solid OpenSCAD_Model
  facet normal -0.996787 -0.0627107 0.0498393
    outer loop
      vertex 13.925 0 -5
      vertex 14.075 0 -2
      vertex 13.8152 1.74527 -5
    endloop
  endfacet
  facet normal 0 0.998757 0.049838
    outer loop
      vertex 0.874357 -13.8975 -5
      vertex -0.883776 -14.0472 -2
      vertex 0.883776 -14.0472 -2
    endloop
  endfacet
  facet normal 0 0.998757 0.049838
    outer loop
      vertex -0.883776 -14.0472 -2
      vertex 0.874357 -13.8975 -5
      vertex -0.874357 -13.8975 -5
    endloop
  endfacet
  facet normal -0.996786 0.0627208 0.0498334
    outer loop
      vertex 13.964 -1.76406 -2
      vertex 14.075 0 -2
      vertex 13.8152 -1.74527 -5
    endloop
  endfacet
  facet normal 0.996787 0.0627107 0.0498393
    outer loop
      vertex -13.8152 -1.74527 -5
      vertex -13.925 0 -5
      vertex -14.075 0 -2
    endloop
  endfacet
  facet normal -0.125193 -0.99088 0.049838
    outer loop
      vertex 2.60928 13.6783 -5
      vertex 0.883776 14.0472 -2
      vertex 0.874357 13.8975 -5
    endloop
  endfacet
  facet normal -0.903701 -0.425256 0.0498251
    outer loop
      vertex 13.0866 5.18135 -2
      vertex 12.334 6.78068 -2
      vertex 12.2026 6.70842 -5
    endloop
  endfacet
  facet normal -0.683713 0.728047 0.0498286
    outer loop
      vertex 10.2602 -9.635 -2
      vertex 10.1509 -9.53232 -5
      vertex 8.97174 -10.845 -2
    endloop
  endfacet
  facet normal -0.248333 0.967393 0.0498201
    outer loop
      vertex 4.34941 -13.3861 -2
      vertex 4.30306 -13.2435 -5
      vertex 2.60928 -13.6783 -5
    endloop
  endfacet
  facet normal 0.996786 -0.0627208 0.0498334
    outer loop
      vertex -13.8152 1.74527 -5
      vertex -13.964 1.76406 -2
      vertex -14.075 0 -2
    endloop
  endfacet
  facet normal 0.903701 -0.425256 0.0498251
    outer loop
      vertex -12.2026 6.70842 -5
      vertex -12.334 6.78068 -2
      vertex -13.0866 5.18135 -2
    endloop
  endfacet
  facet normal -0.683713 -0.728047 0.0498286
    outer loop
      vertex 10.1509 9.53232 -5
      vertex 10.2602 9.635 -2
      vertex 8.97174 10.845 -2
    endloop
  endfacet
  facet normal -0.981068 -0.187144 0.0498331
    outer loop
      vertex 13.8152 1.74527 -5
      vertex 13.964 1.76406 -2
      vertex 13.6328 3.50031 -2
    endloop
  endfacet
  facet normal -0.58704 0.808023 0.0498254
    outer loop
      vertex 7.54176 -11.8839 -2
      vertex 8.97174 -10.845 -2
      vertex 7.46139 -11.7573 -5
    endloop
  endfacet
  facet normal 0.683694 -0.728065 0.0498441
    outer loop
      vertex -8.87613 10.7294 -5
      vertex -8.97174 10.845 -2
      vertex -10.1509 9.53232 -5
    endloop
  endfacet
  facet normal 0 0 -1
    outer loop
      vertex 13.964 -1.76406 -2
      vertex 13.964 1.76406 -2
      vertex 14.075 0 -2
    endloop
  endfacet
  facet normal 0 0 -1
    outer loop
      vertex 13.6328 -3.50031 -2
      vertex 13.964 1.76406 -2
      vertex 13.964 -1.76406 -2
    endloop
  endfacet
  facet normal 0 0 -1
    outer loop
      vertex 13.6328 -3.50031 -2
      vertex 13.6328 3.50031 -2
      vertex 13.964 1.76406 -2
    endloop
  endfacet
  facet normal 0 0 -1
    outer loop
      vertex 13.0866 -5.18135 -2
      vertex 13.6328 3.50031 -2
      vertex 13.6328 -3.50031 -2
    endloop
  endfacet
  facet normal 0 0 -1
    outer loop
      vertex 13.0866 -5.18135 -2
      vertex 13.0866 5.18135 -2
      vertex 13.6328 3.50031 -2
    endloop
  endfacet
  facet normal 0 0 -1
    outer loop
      vertex 12.334 -6.78068 -2
      vertex 13.0866 5.18135 -2
      vertex 13.0866 -5.18135 -2
    endloop
  endfacet
  facet normal 0 0 -1
    outer loop
      vertex 12.334 -6.78068 -2
      vertex 12.334 6.78068 -2
      vertex 13.0866 5.18135 -2
    endloop
  endfacet
  facet normal 0 0 -1
    outer loop
      vertex 11.3869 -8.27308 -2
      vertex 12.334 6.78068 -2
      vertex 12.334 -6.78068 -2
    endloop
  endfacet
  facet normal 0 0 -1
    outer loop
      vertex 11.3869 -8.27308 -2
      vertex 11.3869 8.27308 -2
      vertex 12.334 6.78068 -2
    endloop
  endfacet
  facet normal 0 0 -1
    outer loop
      vertex 10.2602 -9.635 -2
      vertex 11.3869 8.27308 -2
      vertex 11.3869 -8.27308 -2
    endloop
  endfacet
  facet normal 0 0 -1
    outer loop
      vertex 10.2602 -9.635 -2
      vertex 10.2602 9.635 -2
      vertex 11.3869 8.27308 -2
    endloop
  endfacet
  facet normal 0 0 -1
    outer loop
      vertex 8.97174 -10.845 -2
      vertex 10.2602 9.635 -2
      vertex 10.2602 -9.635 -2
    endloop
  endfacet
  facet normal 0 0 -1
    outer loop
      vertex 8.97174 -10.845 -2
      vertex 8.97174 10.845 -2
      vertex 10.2602 9.635 -2
    endloop
  endfacet
  facet normal 0 0 -1
    outer loop
      vertex 7.54176 -11.8839 -2
      vertex 8.97174 10.845 -2
      vertex 8.97174 -10.845 -2
    endloop
  endfacet
  facet normal 0 0 -1
    outer loop
      vertex 7.54176 -11.8839 -2
      vertex 7.54176 11.8839 -2
      vertex 8.97174 10.845 -2
    endloop
  endfacet
  facet normal 0 0 -1
    outer loop
      vertex 5.99284 -12.7354 -2
      vertex 7.54176 11.8839 -2
      vertex 7.54176 -11.8839 -2
    endloop
  endfacet
  facet normal 0 0 -1
    outer loop
      vertex 5.99284 -12.7354 -2
      vertex 5.99284 12.7354 -2
      vertex 7.54176 11.8839 -2
    endloop
  endfacet
  facet normal 0 0 -1
    outer loop
      vertex 4.34941 -13.3861 -2
      vertex 5.99284 12.7354 -2
      vertex 5.99284 -12.7354 -2
    endloop
  endfacet
  facet normal 0 0 -1
    outer loop
      vertex 4.34941 -13.3861 -2
      vertex 4.34941 13.3861 -2
      vertex 5.99284 12.7354 -2
    endloop
  endfacet
  facet normal 0 0 -1
    outer loop
      vertex 2.63739 -13.8257 -2
      vertex 4.34941 13.3861 -2
      vertex 4.34941 -13.3861 -2
    endloop
  endfacet
  facet normal 0 0 -1
    outer loop
      vertex 2.63739 -13.8257 -2
      vertex 2.63739 13.8257 -2
      vertex 4.34941 13.3861 -2
    endloop
  endfacet
  facet normal 0 0 -1
    outer loop
      vertex 0.883776 -14.0472 -2
      vertex 2.63739 13.8257 -2
      vertex 2.63739 -13.8257 -2
    endloop
  endfacet
  facet normal 0 0 -1
    outer loop
      vertex 0.883776 -14.0472 -2
      vertex 0.883776 14.0472 -2
      vertex 2.63739 13.8257 -2
    endloop
  endfacet
  facet normal 0 0 -1
    outer loop
      vertex -0.883776 -14.0472 -2
      vertex 0.883776 14.0472 -2
      vertex 0.883776 -14.0472 -2
    endloop
  endfacet
  facet normal 0 0 -1
    outer loop
      vertex -0.883776 -14.0472 -2
      vertex -0.883776 14.0472 -2
      vertex 0.883776 14.0472 -2
    endloop
  endfacet
  facet normal 0 0 -1
    outer loop
      vertex -2.63739 -13.8257 -2
      vertex -0.883776 14.0472 -2
      vertex -0.883776 -14.0472 -2
    endloop
  endfacet
  facet normal 0 0 -1
    outer loop
      vertex -2.63739 -13.8257 -2
      vertex -2.63739 13.8257 -2
      vertex -0.883776 14.0472 -2
    endloop
  endfacet
  facet normal 0 0 -1
    outer loop
      vertex -4.34941 -13.3861 -2
      vertex -2.63739 13.8257 -2
      vertex -2.63739 -13.8257 -2
    endloop
  endfacet
  facet normal 0 0 -1
    outer loop
      vertex -4.34941 -13.3861 -2
      vertex -4.34941 13.3861 -2
      vertex -2.63739 13.8257 -2
    endloop
  endfacet
  facet normal 0 0 -1
    outer loop
      vertex -5.99284 -12.7354 -2
      vertex -4.34941 13.3861 -2
      vertex -4.34941 -13.3861 -2
    endloop
  endfacet
  facet normal 0 0 -1
    outer loop
      vertex -5.99284 -12.7354 -2
      vertex -5.99284 12.7354 -2
      vertex -4.34941 13.3861 -2
    endloop
  endfacet
  facet normal 0 0 -1
    outer loop
      vertex -7.54176 -11.8839 -2
      vertex -5.99284 12.7354 -2
      vertex -5.99284 -12.7354 -2
    endloop
  endfacet
  facet normal 0 0 -1
    outer loop
      vertex -7.54176 -11.8839 -2
      vertex -7.54176 11.8839 -2
      vertex -5.99284 12.7354 -2
    endloop
  endfacet
  facet normal 0 0 -1
    outer loop
      vertex -8.97174 -10.845 -2
      vertex -7.54176 11.8839 -2
      vertex -7.54176 -11.8839 -2
    endloop
  endfacet
  facet normal 0 0 -1
    outer loop
      vertex -8.97174 -10.845 -2
      vertex -8.97174 10.845 -2
      vertex -7.54176 11.8839 -2
    endloop
  endfacet
  facet normal 0 0 -1
    outer loop
      vertex -10.2602 -9.635 -2
      vertex -8.97174 10.845 -2
      vertex -8.97174 -10.845 -2
    endloop
  endfacet
  facet normal 0 0 -1
    outer loop
      vertex -10.2602 -9.635 -2
      vertex -10.2602 9.635 -2
      vertex -8.97174 10.845 -2
    endloop
  endfacet
  facet normal 0 0 -1
    outer loop
      vertex -11.3869 -8.27308 -2
      vertex -10.2602 9.635 -2
      vertex -10.2602 -9.635 -2
    endloop
  endfacet
  facet normal 0 0 -1
    outer loop
      vertex -11.3869 -8.27308 -2
      vertex -11.3869 8.27308 -2
      vertex -10.2602 9.635 -2
    endloop
  endfacet
  facet normal 0 0 -1
    outer loop
      vertex -12.334 -6.78068 -2
      vertex -11.3869 8.27308 -2
      vertex -11.3869 -8.27308 -2
    endloop
  endfacet
  facet normal 0 0 -1
    outer loop
      vertex -12.334 -6.78068 -2
      vertex -12.334 6.78068 -2
      vertex -11.3869 8.27308 -2
    endloop
  endfacet
  facet normal 0 0 -1
    outer loop
      vertex -13.0866 -5.18135 -2
      vertex -12.334 6.78068 -2
      vertex -12.334 -6.78068 -2
    endloop
  endfacet
  facet normal 0 0 -1
    outer loop
      vertex -13.0866 -5.18135 -2
      vertex -13.0866 5.18135 -2
      vertex -12.334 6.78068 -2
    endloop
  endfacet
  facet normal 0 0 -1
    outer loop
      vertex -13.6328 -3.50031 -2
      vertex -13.0866 5.18135 -2
      vertex -13.0866 -5.18135 -2
    endloop
  endfacet
  facet normal 0 0 -1
    outer loop
      vertex -13.6328 -3.50031 -2
      vertex -13.6328 3.50031 -2
      vertex -13.0866 5.18135 -2
    endloop
  endfacet
  facet normal 0 0 -1
    outer loop
      vertex -13.964 -1.76406 -2
      vertex -13.6328 3.50031 -2
      vertex -13.6328 -3.50031 -2
    endloop
  endfacet
  facet normal 0 0 -1
    outer loop
      vertex -13.964 -1.76406 -2
      vertex -13.964 1.76406 -2
      vertex -13.6328 3.50031 -2
    endloop
  endfacet
  facet normal 0 -0 -1
    outer loop
      vertex -13.964 1.76406 -2
      vertex -13.964 -1.76406 -2
      vertex -14.075 0 -2
    endloop
  endfacet
  facet normal 0.367677 -0.928618 0.0498209
    outer loop
      vertex -4.30306 13.2435 -5
      vertex -4.34941 13.3861 -2
      vertex -5.99284 12.7354 -2
    endloop
  endfacet
  facet normal -0.248333 -0.967393 0.0498201
    outer loop
      vertex 4.30306 13.2435 -5
      vertex 4.34941 13.3861 -2
      vertex 2.60928 13.6783 -5
    endloop
  endfacet
  facet normal -0.367677 -0.928618 0.0498209
    outer loop
      vertex 5.99284 12.7354 -2
      vertex 4.34941 13.3861 -2
      vertex 4.30306 13.2435 -5
    endloop
  endfacet
  facet normal -0.843281 -0.535159 0.0498259
    outer loop
      vertex 12.2026 6.70842 -5
      vertex 12.334 6.78068 -2
      vertex 11.3869 8.27308 -2
    endloop
  endfacet
  facet normal -0.996786 -0.0627208 0.0498334
    outer loop
      vertex 14.075 0 -2
      vertex 13.964 1.76406 -2
      vertex 13.8152 1.74527 -5
    endloop
  endfacet
  facet normal -0.843281 0.535159 0.0498259
    outer loop
      vertex 12.334 -6.78068 -2
      vertex 12.2026 -6.70842 -5
      vertex 11.3869 -8.27308 -2
    endloop
  endfacet
  facet normal -0.981068 0.187144 0.0498331
    outer loop
      vertex 13.964 -1.76406 -2
      vertex 13.8152 -1.74527 -5
      vertex 13.6328 -3.50031 -2
    endloop
  endfacet
  facet normal -0.949871 0.308643 0.0498429
    outer loop
      vertex 13.6328 -3.50031 -2
      vertex 13.4875 -3.46301 -5
      vertex 12.9471 -5.12613 -5
    endloop
  endfacet
  facet normal -0.843282 0.535158 0.049825
    outer loop
      vertex 11.3869 -8.27308 -2
      vertex 12.2026 -6.70842 -5
      vertex 11.2656 -8.18491 -5
    endloop
  endfacet
  facet normal -0.683694 0.728065 0.0498441
    outer loop
      vertex 8.97174 -10.845 -2
      vertex 10.1509 -9.53232 -5
      vertex 8.87613 -10.7294 -5
    endloop
  endfacet
  facet normal 0.903717 0.425218 0.0498497
    outer loop
      vertex -12.2026 -6.70842 -5
      vertex -12.9471 -5.12613 -5
      vertex -13.0866 -5.18135 -2
    endloop
  endfacet
  facet normal 0.981068 -0.187144 0.0498331
    outer loop
      vertex -13.8152 1.74527 -5
      vertex -13.6328 3.50031 -2
      vertex -13.964 1.76406 -2
    endloop
  endfacet
  facet normal 0.981064 -0.187161 0.0498432
    outer loop
      vertex -13.4875 3.46301 -5
      vertex -13.6328 3.50031 -2
      vertex -13.8152 1.74527 -5
    endloop
  endfacet
  facet normal 0 -0.998757 0.049838
    outer loop
      vertex -0.874357 13.8975 -5
      vertex 0.883776 14.0472 -2
      vertex -0.883776 14.0472 -2
    endloop
  endfacet
  facet normal 0 -0.998757 0.049838
    outer loop
      vertex 0.883776 14.0472 -2
      vertex -0.874357 13.8975 -5
      vertex 0.874357 13.8975 -5
    endloop
  endfacet
  facet normal 0.949875 -0.308631 0.04985
    outer loop
      vertex -12.9471 5.12613 -5
      vertex -13.0866 5.18135 -2
      vertex -13.6328 3.50031 -2
    endloop
  endfacet
  facet normal 0.903717 -0.425218 0.0498497
    outer loop
      vertex -12.9471 5.12613 -5
      vertex -12.2026 6.70842 -5
      vertex -13.0866 5.18135 -2
    endloop
  endfacet
  facet normal -0.248395 -0.967375 0.0498578
    outer loop
      vertex 4.34941 13.3861 -2
      vertex 2.63739 13.8257 -2
      vertex 2.60928 13.6783 -5
    endloop
  endfacet
  facet normal -0.125159 -0.990883 0.0498581
    outer loop
      vertex 2.60928 13.6783 -5
      vertex 2.63739 13.8257 -2
      vertex 0.883776 14.0472 -2
    endloop
  endfacet
  facet normal -0.481133 -0.87523 0.0498313
    outer loop
      vertex 7.46139 11.7573 -5
      vertex 5.99284 12.7354 -2
      vertex 5.92898 12.5997 -5
    endloop
  endfacet
  facet normal -0.903717 -0.425218 0.0498497
    outer loop
      vertex 12.9471 5.12613 -5
      vertex 13.0866 5.18135 -2
      vertex 12.2026 6.70842 -5
    endloop
  endfacet
  facet normal -0.996787 0.0627107 0.0498393
    outer loop
      vertex 14.075 0 -2
      vertex 13.925 0 -5
      vertex 13.8152 -1.74527 -5
    endloop
  endfacet
  facet normal -0.949875 0.308631 0.04985
    outer loop
      vertex 13.0866 -5.18135 -2
      vertex 13.6328 -3.50031 -2
      vertex 12.9471 -5.12613 -5
    endloop
  endfacet
  facet normal -0.903717 0.425218 0.0498497
    outer loop
      vertex 13.0866 -5.18135 -2
      vertex 12.9471 -5.12613 -5
      vertex 12.2026 -6.70842 -5
    endloop
  endfacet
  facet normal -0.903701 0.425256 0.0498251
    outer loop
      vertex 12.334 -6.78068 -2
      vertex 13.0866 -5.18135 -2
      vertex 12.2026 -6.70842 -5
    endloop
  endfacet
  facet normal -0.367693 0.928611 0.0498311
    outer loop
      vertex 5.99284 -12.7354 -2
      vertex 5.92898 -12.5997 -5
      vertex 4.30306 -13.2435 -5
    endloop
  endfacet
  facet normal -0.367677 0.928618 0.0498209
    outer loop
      vertex 4.34941 -13.3861 -2
      vertex 5.99284 -12.7354 -2
      vertex 4.30306 -13.2435 -5
    endloop
  endfacet
  facet normal -0.125159 0.990883 0.0498581
    outer loop
      vertex 2.63739 -13.8257 -2
      vertex 2.60928 -13.6783 -5
      vertex 0.883776 -14.0472 -2
    endloop
  endfacet
  facet normal -0.248395 0.967375 0.0498578
    outer loop
      vertex 2.63739 -13.8257 -2
      vertex 4.34941 -13.3861 -2
      vertex 2.60928 -13.6783 -5
    endloop
  endfacet
  facet normal -0.125193 0.99088 0.049838
    outer loop
      vertex 0.883776 -14.0472 -2
      vertex 2.60928 -13.6783 -5
      vertex 0.874357 -13.8975 -5
    endloop
  endfacet
  facet normal -0.481144 0.875225 0.0498243
    outer loop
      vertex 7.54176 -11.8839 -2
      vertex 7.46139 -11.7573 -5
      vertex 5.99284 -12.7354 -2
    endloop
  endfacet
  facet normal -0.481133 0.87523 0.0498313
    outer loop
      vertex 5.99284 -12.7354 -2
      vertex 7.46139 -11.7573 -5
      vertex 5.92898 -12.5997 -5
    endloop
  endfacet
  facet normal 0 0 -1
    outer loop
      vertex 13.925 0 -5
      vertex 16 0 -5
      vertex 15.8738 -2.00533 -5
    endloop
  endfacet
  facet normal 0 0 -1
    outer loop
      vertex 13.8152 -1.74527 -5
      vertex 15.8738 -2.00533 -5
      vertex 15.4973 -3.97904 -5
    endloop
  endfacet
  facet normal 0 0 -1
    outer loop
      vertex 16 0 -5
      vertex 13.925 0 -5
      vertex 15.8738 2.00533 -5
    endloop
  endfacet
  facet normal 0 0 -1
    outer loop
      vertex 13.4875 -3.46301 -5
      vertex 15.4973 -3.97904 -5
      vertex 14.8764 -5.88999 -5
    endloop
  endfacet
  facet normal 0 0 -1
    outer loop
      vertex 13.8152 1.74527 -5
      vertex 15.8738 2.00533 -5
      vertex 13.925 0 -5
    endloop
  endfacet
  facet normal 0 0 -1
    outer loop
      vertex 12.9471 -5.12613 -5
      vertex 14.8764 -5.88999 -5
      vertex 14.0209 -7.70806 -5
    endloop
  endfacet
  facet normal -0 0 -1
    outer loop
      vertex 15.8738 2.00533 -5
      vertex 13.8152 1.74527 -5
      vertex 15.4973 3.97904 -5
    endloop
  endfacet
  facet normal 0 0 -1
    outer loop
      vertex 13.4875 3.46301 -5
      vertex 15.4973 3.97904 -5
      vertex 13.8152 1.74527 -5
    endloop
  endfacet
  facet normal 0 0 -1
    outer loop
      vertex 15.8738 -2.00533 -5
      vertex 13.8152 -1.74527 -5
      vertex 13.925 0 -5
    endloop
  endfacet
  facet normal 0 0 -1
    outer loop
      vertex 15.4973 -3.97904 -5
      vertex 13.4875 -3.46301 -5
      vertex 13.8152 -1.74527 -5
    endloop
  endfacet
  facet normal 0 0 -1
    outer loop
      vertex 14.8764 -5.88999 -5
      vertex 12.9471 -5.12613 -5
      vertex 13.4875 -3.46301 -5
    endloop
  endfacet
  facet normal 0 0 -1
    outer loop
      vertex 12.2026 -6.70842 -5
      vertex 14.0209 -7.70806 -5
      vertex 12.9443 -9.40456 -5
    endloop
  endfacet
  facet normal 0 0 -1
    outer loop
      vertex 14.0209 -7.70806 -5
      vertex 12.2026 -6.70842 -5
      vertex 12.9471 -5.12613 -5
    endloop
  endfacet
  facet normal 0 0 -1
    outer loop
      vertex 11.2656 -8.18491 -5
      vertex 12.9443 -9.40456 -5
      vertex 11.6635 -10.9528 -5
    endloop
  endfacet
  facet normal 0 0 -1
    outer loop
      vertex 12.9443 -9.40456 -5
      vertex 11.2656 -8.18491 -5
      vertex 12.2026 -6.70842 -5
    endloop
  endfacet
  facet normal 0 0 -1
    outer loop
      vertex 10.1509 -9.53232 -5
      vertex 11.6635 -10.9528 -5
      vertex 10.1988 -12.3282 -5
    endloop
  endfacet
  facet normal 0 0 -1
    outer loop
      vertex 11.6635 -10.9528 -5
      vertex 10.1509 -9.53232 -5
      vertex 11.2656 -8.18491 -5
    endloop
  endfacet
  facet normal 0 0 -1
    outer loop
      vertex 10.1988 -12.3282 -5
      vertex 8.87613 -10.7294 -5
      vertex 10.1509 -9.53232 -5
    endloop
  endfacet
  facet normal 0 0 -1
    outer loop
      vertex 8.57323 -13.5092 -5
      vertex 8.87613 -10.7294 -5
      vertex 10.1988 -12.3282 -5
    endloop
  endfacet
  facet normal 0 0 -1
    outer loop
      vertex 8.57323 -13.5092 -5
      vertex 7.46139 -11.7573 -5
      vertex 8.87613 -10.7294 -5
    endloop
  endfacet
  facet normal 0 0 -1
    outer loop
      vertex 6.81247 -14.4772 -5
      vertex 7.46139 -11.7573 -5
      vertex 8.57323 -13.5092 -5
    endloop
  endfacet
  facet normal 0 0 -1
    outer loop
      vertex 6.81247 -14.4772 -5
      vertex 5.92898 -12.5997 -5
      vertex 7.46139 -11.7573 -5
    endloop
  endfacet
  facet normal 0 0 -1
    outer loop
      vertex 4.94427 -15.2169 -5
      vertex 5.92898 -12.5997 -5
      vertex 6.81247 -14.4772 -5
    endloop
  endfacet
  facet normal 0 0 -1
    outer loop
      vertex 4.94427 -15.2169 -5
      vertex 4.30306 -13.2435 -5
      vertex 5.92898 -12.5997 -5
    endloop
  endfacet
  facet normal 0 0 -1
    outer loop
      vertex 2.9981 -15.7166 -5
      vertex 4.30306 -13.2435 -5
      vertex 4.94427 -15.2169 -5
    endloop
  endfacet
  facet normal 0 0 -1
    outer loop
      vertex 2.9981 -15.7166 -5
      vertex 2.60928 -13.6783 -5
      vertex 4.30306 -13.2435 -5
    endloop
  endfacet
  facet normal 0 0 -1
    outer loop
      vertex 1.00465 -15.9684 -5
      vertex 2.60928 -13.6783 -5
      vertex 2.9981 -15.7166 -5
    endloop
  endfacet
  facet normal 0 0 -1
    outer loop
      vertex 1.00465 -15.9684 -5
      vertex 0.874357 -13.8975 -5
      vertex 2.60928 -13.6783 -5
    endloop
  endfacet
  facet normal 0 0 -1
    outer loop
      vertex 1.00465 -15.9684 -5
      vertex -0.874357 -13.8975 -5
      vertex 0.874357 -13.8975 -5
    endloop
  endfacet
  facet normal 0 0 -1
    outer loop
      vertex -1.00465 -15.9684 -5
      vertex -0.874357 -13.8975 -5
      vertex 1.00465 -15.9684 -5
    endloop
  endfacet
  facet normal 0 0 -1
    outer loop
      vertex -1.00465 -15.9684 -5
      vertex -2.60928 -13.6783 -5
      vertex -0.874357 -13.8975 -5
    endloop
  endfacet
  facet normal 0 0 -1
    outer loop
      vertex -2.9981 -15.7166 -5
      vertex -2.60928 -13.6783 -5
      vertex -1.00465 -15.9684 -5
    endloop
  endfacet
  facet normal 0 0 -1
    outer loop
      vertex -2.9981 -15.7166 -5
      vertex -4.30306 -13.2435 -5
      vertex -2.60928 -13.6783 -5
    endloop
  endfacet
  facet normal 0 0 -1
    outer loop
      vertex -4.94427 -15.2169 -5
      vertex -4.30306 -13.2435 -5
      vertex -2.9981 -15.7166 -5
    endloop
  endfacet
  facet normal 0 0 -1
    outer loop
      vertex -4.94427 -15.2169 -5
      vertex -5.92898 -12.5997 -5
      vertex -4.30306 -13.2435 -5
    endloop
  endfacet
  facet normal 0 0 -1
    outer loop
      vertex -6.81247 -14.4772 -5
      vertex -5.92898 -12.5997 -5
      vertex -4.94427 -15.2169 -5
    endloop
  endfacet
  facet normal 0 0 -1
    outer loop
      vertex -6.81247 -14.4772 -5
      vertex -7.46139 -11.7573 -5
      vertex -5.92898 -12.5997 -5
    endloop
  endfacet
  facet normal 0 0 -1
    outer loop
      vertex -8.57323 -13.5092 -5
      vertex -7.46139 -11.7573 -5
      vertex -6.81247 -14.4772 -5
    endloop
  endfacet
  facet normal 0 0 -1
    outer loop
      vertex -8.57323 -13.5092 -5
      vertex -8.87613 -10.7294 -5
      vertex -7.46139 -11.7573 -5
    endloop
  endfacet
  facet normal 0 0 -1
    outer loop
      vertex -10.1988 -12.3282 -5
      vertex -8.87613 -10.7294 -5
      vertex -8.57323 -13.5092 -5
    endloop
  endfacet
  facet normal -0 0 -1
    outer loop
      vertex -8.87613 -10.7294 -5
      vertex -10.1988 -12.3282 -5
      vertex -10.1509 -9.53232 -5
    endloop
  endfacet
  facet normal 0 0 -1
    outer loop
      vertex -11.6635 -10.9528 -5
      vertex -10.1509 -9.53232 -5
      vertex -10.1988 -12.3282 -5
    endloop
  endfacet
  facet normal -0 0 -1
    outer loop
      vertex -10.1509 -9.53232 -5
      vertex -11.6635 -10.9528 -5
      vertex -11.2656 -8.18491 -5
    endloop
  endfacet
  facet normal 0 0 -1
    outer loop
      vertex -12.9443 -9.40456 -5
      vertex -11.2656 -8.18491 -5
      vertex -11.6635 -10.9528 -5
    endloop
  endfacet
  facet normal -0 0 -1
    outer loop
      vertex -11.2656 -8.18491 -5
      vertex -12.9443 -9.40456 -5
      vertex -12.2026 -6.70842 -5
    endloop
  endfacet
  facet normal 0 0 -1
    outer loop
      vertex -14.0209 -7.70806 -5
      vertex -12.2026 -6.70842 -5
      vertex -12.9443 -9.40456 -5
    endloop
  endfacet
  facet normal -0 0 -1
    outer loop
      vertex -12.2026 -6.70842 -5
      vertex -14.0209 -7.70806 -5
      vertex -12.9471 -5.12613 -5
    endloop
  endfacet
  facet normal 0 0 -1
    outer loop
      vertex -14.8764 -5.88999 -5
      vertex -12.9471 -5.12613 -5
      vertex -14.0209 -7.70806 -5
    endloop
  endfacet
  facet normal 0 0 -1
    outer loop
      vertex -15.4973 -3.97904 -5
      vertex -13.4875 -3.46301 -5
      vertex -14.8764 -5.88999 -5
    endloop
  endfacet
  facet normal -0 0 -1
    outer loop
      vertex -12.9471 -5.12613 -5
      vertex -14.8764 -5.88999 -5
      vertex -13.4875 -3.46301 -5
    endloop
  endfacet
  facet normal -0 0 -1
    outer loop
      vertex 15.4973 3.97904 -5
      vertex 13.4875 3.46301 -5
      vertex 14.8764 5.88999 -5
    endloop
  endfacet
  facet normal 0 0 -1
    outer loop
      vertex 12.9471 5.12613 -5
      vertex 14.8764 5.88999 -5
      vertex 13.4875 3.46301 -5
    endloop
  endfacet
  facet normal -0 0 -1
    outer loop
      vertex 14.8764 5.88999 -5
      vertex 12.9471 5.12613 -5
      vertex 14.0209 7.70806 -5
    endloop
  endfacet
  facet normal 0 0 -1
    outer loop
      vertex 12.2026 6.70842 -5
      vertex 14.0209 7.70806 -5
      vertex 12.9471 5.12613 -5
    endloop
  endfacet
  facet normal -0 0 -1
    outer loop
      vertex 14.0209 7.70806 -5
      vertex 12.2026 6.70842 -5
      vertex 12.9443 9.40456 -5
    endloop
  endfacet
  facet normal 0 0 -1
    outer loop
      vertex 11.2656 8.18491 -5
      vertex 12.9443 9.40456 -5
      vertex 12.2026 6.70842 -5
    endloop
  endfacet
  facet normal -0 0 -1
    outer loop
      vertex 12.9443 9.40456 -5
      vertex 11.2656 8.18491 -5
      vertex 11.6635 10.9528 -5
    endloop
  endfacet
  facet normal 0 0 -1
    outer loop
      vertex 10.1509 9.53232 -5
      vertex 11.6635 10.9528 -5
      vertex 11.2656 8.18491 -5
    endloop
  endfacet
  facet normal -0 0 -1
    outer loop
      vertex 11.6635 10.9528 -5
      vertex 10.1509 9.53232 -5
      vertex 10.1988 12.3282 -5
    endloop
  endfacet
  facet normal 0 0 -1
    outer loop
      vertex 8.87613 10.7294 -5
      vertex 10.1988 12.3282 -5
      vertex 10.1509 9.53232 -5
    endloop
  endfacet
  facet normal 0 0 -1
    outer loop
      vertex 8.87613 10.7294 -5
      vertex 8.57323 13.5092 -5
      vertex 10.1988 12.3282 -5
    endloop
  endfacet
  facet normal 0 0 -1
    outer loop
      vertex 7.46139 11.7573 -5
      vertex 8.57323 13.5092 -5
      vertex 8.87613 10.7294 -5
    endloop
  endfacet
  facet normal 0 0 -1
    outer loop
      vertex 7.46139 11.7573 -5
      vertex 6.81247 14.4772 -5
      vertex 8.57323 13.5092 -5
    endloop
  endfacet
  facet normal 0 0 -1
    outer loop
      vertex 5.92898 12.5997 -5
      vertex 6.81247 14.4772 -5
      vertex 7.46139 11.7573 -5
    endloop
  endfacet
  facet normal 0 0 -1
    outer loop
      vertex 5.92898 12.5997 -5
      vertex 4.94427 15.2169 -5
      vertex 6.81247 14.4772 -5
    endloop
  endfacet
  facet normal 0 0 -1
    outer loop
      vertex 4.30306 13.2435 -5
      vertex 4.94427 15.2169 -5
      vertex 5.92898 12.5997 -5
    endloop
  endfacet
  facet normal 0 0 -1
    outer loop
      vertex 4.30306 13.2435 -5
      vertex 2.9981 15.7166 -5
      vertex 4.94427 15.2169 -5
    endloop
  endfacet
  facet normal 0 0 -1
    outer loop
      vertex 2.60928 13.6783 -5
      vertex 2.9981 15.7166 -5
      vertex 4.30306 13.2435 -5
    endloop
  endfacet
  facet normal 0 0 -1
    outer loop
      vertex 2.60928 13.6783 -5
      vertex 1.00465 15.9684 -5
      vertex 2.9981 15.7166 -5
    endloop
  endfacet
  facet normal 0 0 -1
    outer loop
      vertex 0.874357 13.8975 -5
      vertex 1.00465 15.9684 -5
      vertex 2.60928 13.6783 -5
    endloop
  endfacet
  facet normal 0 0 -1
    outer loop
      vertex -0.874357 13.8975 -5
      vertex 1.00465 15.9684 -5
      vertex 0.874357 13.8975 -5
    endloop
  endfacet
  facet normal 0 0 -1
    outer loop
      vertex -0.874357 13.8975 -5
      vertex -1.00465 15.9684 -5
      vertex 1.00465 15.9684 -5
    endloop
  endfacet
  facet normal 0 0 -1
    outer loop
      vertex -2.60928 13.6783 -5
      vertex -1.00465 15.9684 -5
      vertex -0.874357 13.8975 -5
    endloop
  endfacet
  facet normal 0 0 -1
    outer loop
      vertex -2.60928 13.6783 -5
      vertex -2.9981 15.7166 -5
      vertex -1.00465 15.9684 -5
    endloop
  endfacet
  facet normal 0 0 -1
    outer loop
      vertex -4.30306 13.2435 -5
      vertex -2.9981 15.7166 -5
      vertex -2.60928 13.6783 -5
    endloop
  endfacet
  facet normal 0 0 -1
    outer loop
      vertex -4.30306 13.2435 -5
      vertex -4.94427 15.2169 -5
      vertex -2.9981 15.7166 -5
    endloop
  endfacet
  facet normal 0 0 -1
    outer loop
      vertex -5.92898 12.5997 -5
      vertex -4.94427 15.2169 -5
      vertex -4.30306 13.2435 -5
    endloop
  endfacet
  facet normal 0 0 -1
    outer loop
      vertex -5.92898 12.5997 -5
      vertex -6.81247 14.4772 -5
      vertex -4.94427 15.2169 -5
    endloop
  endfacet
  facet normal 0 0 -1
    outer loop
      vertex -7.46139 11.7573 -5
      vertex -6.81247 14.4772 -5
      vertex -5.92898 12.5997 -5
    endloop
  endfacet
  facet normal 0 0 -1
    outer loop
      vertex -7.46139 11.7573 -5
      vertex -8.57323 13.5092 -5
      vertex -6.81247 14.4772 -5
    endloop
  endfacet
  facet normal 0 0 -1
    outer loop
      vertex -8.87613 10.7294 -5
      vertex -8.57323 13.5092 -5
      vertex -7.46139 11.7573 -5
    endloop
  endfacet
  facet normal 0 0 -1
    outer loop
      vertex -10.1988 12.3282 -5
      vertex -8.87613 10.7294 -5
      vertex -10.1509 9.53232 -5
    endloop
  endfacet
  facet normal 0 0 -1
    outer loop
      vertex -8.87613 10.7294 -5
      vertex -10.1988 12.3282 -5
      vertex -8.57323 13.5092 -5
    endloop
  endfacet
  facet normal 0 0 -1
    outer loop
      vertex -11.6635 10.9528 -5
      vertex -10.1509 9.53232 -5
      vertex -11.2656 8.18491 -5
    endloop
  endfacet
  facet normal 0 0 -1
    outer loop
      vertex -10.1509 9.53232 -5
      vertex -11.6635 10.9528 -5
      vertex -10.1988 12.3282 -5
    endloop
  endfacet
  facet normal 0 0 -1
    outer loop
      vertex -12.9443 9.40456 -5
      vertex -11.2656 8.18491 -5
      vertex -12.2026 6.70842 -5
    endloop
  endfacet
  facet normal 0 0 -1
    outer loop
      vertex -11.2656 8.18491 -5
      vertex -12.9443 9.40456 -5
      vertex -11.6635 10.9528 -5
    endloop
  endfacet
  facet normal 0 0 -1
    outer loop
      vertex -14.0209 7.70806 -5
      vertex -12.2026 6.70842 -5
      vertex -12.9471 5.12613 -5
    endloop
  endfacet
  facet normal 0 0 -1
    outer loop
      vertex -14.8764 5.88999 -5
      vertex -12.9471 5.12613 -5
      vertex -13.4875 3.46301 -5
    endloop
  endfacet
  facet normal 0 0 -1
    outer loop
      vertex -15.4973 3.97904 -5
      vertex -13.4875 3.46301 -5
      vertex -13.8152 1.74527 -5
    endloop
  endfacet
  facet normal 0 0 -1
    outer loop
      vertex -12.2026 6.70842 -5
      vertex -14.0209 7.70806 -5
      vertex -12.9443 9.40456 -5
    endloop
  endfacet
  facet normal 0 0 -1
    outer loop
      vertex -15.8738 2.00533 -5
      vertex -13.8152 1.74527 -5
      vertex -13.925 0 -5
    endloop
  endfacet
  facet normal -0 0 -1
    outer loop
      vertex -13.4875 -3.46301 -5
      vertex -15.4973 -3.97904 -5
      vertex -13.8152 -1.74527 -5
    endloop
  endfacet
  facet normal 0 0 -1
    outer loop
      vertex -15.8738 -2.00533 -5
      vertex -13.8152 -1.74527 -5
      vertex -15.4973 -3.97904 -5
    endloop
  endfacet
  facet normal 0 0 -1
    outer loop
      vertex -12.9471 5.12613 -5
      vertex -14.8764 5.88999 -5
      vertex -14.0209 7.70806 -5
    endloop
  endfacet
  facet normal -0 0 -1
    outer loop
      vertex -13.8152 -1.74527 -5
      vertex -15.8738 -2.00533 -5
      vertex -13.925 0 -5
    endloop
  endfacet
  facet normal 0 0 -1
    outer loop
      vertex -13.4875 3.46301 -5
      vertex -15.4973 3.97904 -5
      vertex -14.8764 5.88999 -5
    endloop
  endfacet
  facet normal 0 0 -1
    outer loop
      vertex -16 0 -5
      vertex -13.925 0 -5
      vertex -15.8738 -2.00533 -5
    endloop
  endfacet
  facet normal 0 0 -1
    outer loop
      vertex -13.8152 1.74527 -5
      vertex -15.8738 2.00533 -5
      vertex -15.4973 3.97904 -5
    endloop
  endfacet
  facet normal 0 0 -1
    outer loop
      vertex -13.925 0 -5
      vertex -16 0 -5
      vertex -15.8738 2.00533 -5
    endloop
  endfacet
  facet normal 0.367693 0.928611 0.0498311
    outer loop
      vertex -4.30306 -13.2435 -5
      vertex -5.92898 -12.5997 -5
      vertex -5.99284 -12.7354 -2
    endloop
  endfacet
  facet normal 0.683694 0.728065 0.0498441
    outer loop
      vertex -8.97174 -10.845 -2
      vertex -8.87613 -10.7294 -5
      vertex -10.1509 -9.53232 -5
    endloop
  endfacet
  facet normal 0.683713 0.728047 0.0498286
    outer loop
      vertex -8.97174 -10.845 -2
      vertex -10.1509 -9.53232 -5
      vertex -10.2602 -9.635 -2
    endloop
  endfacet
  facet normal 0.903701 0.425256 0.0498251
    outer loop
      vertex -12.334 -6.78068 -2
      vertex -12.2026 -6.70842 -5
      vertex -13.0866 -5.18135 -2
    endloop
  endfacet
  facet normal 0.843281 0.535159 0.0498259
    outer loop
      vertex -11.3869 -8.27308 -2
      vertex -12.2026 -6.70842 -5
      vertex -12.334 -6.78068 -2
    endloop
  endfacet
  facet normal 0.949875 0.308631 0.04985
    outer loop
      vertex -13.0866 -5.18135 -2
      vertex -12.9471 -5.12613 -5
      vertex -13.6328 -3.50031 -2
    endloop
  endfacet
  facet normal 0.981064 0.187161 0.0498432
    outer loop
      vertex -13.6328 -3.50031 -2
      vertex -13.4875 -3.46301 -5
      vertex -13.8152 -1.74527 -5
    endloop
  endfacet
  facet normal 0.587066 -0.808003 0.0498448
    outer loop
      vertex -8.87613 10.7294 -5
      vertex -7.46139 11.7573 -5
      vertex -8.97174 10.845 -2
    endloop
  endfacet
  facet normal 0.996787 -0.0627107 0.0498393
    outer loop
      vertex -13.925 0 -5
      vertex -13.8152 1.74527 -5
      vertex -14.075 0 -2
    endloop
  endfacet
  facet normal 0.949871 -0.308643 0.0498429
    outer loop
      vertex -13.4875 3.46301 -5
      vertex -12.9471 5.12613 -5
      vertex -13.6328 3.50031 -2
    endloop
  endfacet
  facet normal 0.843282 -0.535158 0.049825
    outer loop
      vertex -11.2656 8.18491 -5
      vertex -11.3869 8.27308 -2
      vertex -12.2026 6.70842 -5
    endloop
  endfacet
  facet normal 0.683713 -0.728047 0.0498286
    outer loop
      vertex -10.1509 9.53232 -5
      vertex -8.97174 10.845 -2
      vertex -10.2602 9.635 -2
    endloop
  endfacet
  facet normal 0.76955 -0.63664 0.0498263
    outer loop
      vertex -11.2656 8.18491 -5
      vertex -10.2602 9.635 -2
      vertex -11.3869 8.27308 -2
    endloop
  endfacet
  facet normal 0.843281 -0.535159 0.0498259
    outer loop
      vertex -12.2026 6.70842 -5
      vertex -11.3869 8.27308 -2
      vertex -12.334 6.78068 -2
    endloop
  endfacet
  facet normal -0.587066 -0.808003 0.0498448
    outer loop
      vertex 8.87613 10.7294 -5
      vertex 8.97174 10.845 -2
      vertex 7.46139 11.7573 -5
    endloop
  endfacet
  facet normal -0.683694 -0.728065 0.0498441
    outer loop
      vertex 10.1509 9.53232 -5
      vertex 8.97174 10.845 -2
      vertex 8.87613 10.7294 -5
    endloop
  endfacet
  facet normal -0.58704 -0.808023 0.0498254
    outer loop
      vertex 8.97174 10.845 -2
      vertex 7.54176 11.8839 -2
      vertex 7.46139 11.7573 -5
    endloop
  endfacet
  facet normal -0.481144 -0.875225 0.0498243
    outer loop
      vertex 7.46139 11.7573 -5
      vertex 7.54176 11.8839 -2
      vertex 5.99284 12.7354 -2
    endloop
  endfacet
  facet normal -0.367693 -0.928611 0.0498311
    outer loop
      vertex 5.92898 12.5997 -5
      vertex 5.99284 12.7354 -2
      vertex 4.30306 13.2435 -5
    endloop
  endfacet
  facet normal -0.76955 -0.63664 0.0498263
    outer loop
      vertex 11.2656 8.18491 -5
      vertex 11.3869 8.27308 -2
      vertex 10.2602 9.635 -2
    endloop
  endfacet
  facet normal -0.843282 -0.535158 0.049825
    outer loop
      vertex 12.2026 6.70842 -5
      vertex 11.3869 8.27308 -2
      vertex 11.2656 8.18491 -5
    endloop
  endfacet
  facet normal -0.949875 -0.308631 0.04985
    outer loop
      vertex 13.6328 3.50031 -2
      vertex 13.0866 5.18135 -2
      vertex 12.9471 5.12613 -5
    endloop
  endfacet
  facet normal -0.981064 0.187161 0.0498432
    outer loop
      vertex 13.6328 -3.50031 -2
      vertex 13.8152 -1.74527 -5
      vertex 13.4875 -3.46301 -5
    endloop
  endfacet
  facet normal -0.76955 0.63664 0.0498263
    outer loop
      vertex 11.3869 -8.27308 -2
      vertex 11.2656 -8.18491 -5
      vertex 10.2602 -9.635 -2
    endloop
  endfacet
  facet normal -0.769549 0.636641 0.0498273
    outer loop
      vertex 10.2602 -9.635 -2
      vertex 11.2656 -8.18491 -5
      vertex 10.1509 -9.53232 -5
    endloop
  endfacet
  facet normal -0.587066 0.808003 0.0498448
    outer loop
      vertex 8.97174 -10.845 -2
      vertex 8.87613 -10.7294 -5
      vertex 7.46139 -11.7573 -5
    endloop
  endfacet
  facet normal 0.981068 0.187144 0.0498331
    outer loop
      vertex -13.6328 -3.50031 -2
      vertex -13.8152 -1.74527 -5
      vertex -13.964 -1.76406 -2
    endloop
  endfacet
  facet normal 0.996786 0.0627208 0.0498334
    outer loop
      vertex -13.964 -1.76406 -2
      vertex -13.8152 -1.74527 -5
      vertex -14.075 0 -2
    endloop
  endfacet
  facet normal 0.481144 0.875225 0.0498243
    outer loop
      vertex -5.99284 -12.7354 -2
      vertex -7.46139 -11.7573 -5
      vertex -7.54176 -11.8839 -2
    endloop
  endfacet
  facet normal 0.367677 0.928618 0.0498209
    outer loop
      vertex -4.34941 -13.3861 -2
      vertex -4.30306 -13.2435 -5
      vertex -5.99284 -12.7354 -2
    endloop
  endfacet
  facet normal 0.248333 0.967393 0.0498201
    outer loop
      vertex -2.60928 -13.6783 -5
      vertex -4.30306 -13.2435 -5
      vertex -4.34941 -13.3861 -2
    endloop
  endfacet
  facet normal 0.481133 0.87523 0.0498313
    outer loop
      vertex -5.99284 -12.7354 -2
      vertex -5.92898 -12.5997 -5
      vertex -7.46139 -11.7573 -5
    endloop
  endfacet
  facet normal 0.125193 0.99088 0.049838
    outer loop
      vertex -0.883776 -14.0472 -2
      vertex -0.874357 -13.8975 -5
      vertex -2.60928 -13.6783 -5
    endloop
  endfacet
  facet normal 0.769549 0.636641 0.0498273
    outer loop
      vertex -10.2602 -9.635 -2
      vertex -10.1509 -9.53232 -5
      vertex -11.2656 -8.18491 -5
    endloop
  endfacet
  facet normal 0.248395 -0.967375 0.0498578
    outer loop
      vertex -2.60928 13.6783 -5
      vertex -2.63739 13.8257 -2
      vertex -4.34941 13.3861 -2
    endloop
  endfacet
  facet normal 0.125159 -0.990883 0.0498581
    outer loop
      vertex -2.60928 13.6783 -5
      vertex -0.883776 14.0472 -2
      vertex -2.63739 13.8257 -2
    endloop
  endfacet
  facet normal 0.481144 -0.875225 0.0498243
    outer loop
      vertex -7.46139 11.7573 -5
      vertex -5.99284 12.7354 -2
      vertex -7.54176 11.8839 -2
    endloop
  endfacet
  facet normal 0.58704 -0.808023 0.0498254
    outer loop
      vertex -7.46139 11.7573 -5
      vertex -7.54176 11.8839 -2
      vertex -8.97174 10.845 -2
    endloop
  endfacet
  facet normal 0.481133 -0.87523 0.0498313
    outer loop
      vertex -5.92898 12.5997 -5
      vertex -5.99284 12.7354 -2
      vertex -7.46139 11.7573 -5
    endloop
  endfacet
  facet normal 0.367693 -0.928611 0.0498311
    outer loop
      vertex -5.92898 12.5997 -5
      vertex -4.30306 13.2435 -5
      vertex -5.99284 12.7354 -2
    endloop
  endfacet
  facet normal 0.769549 -0.636641 0.0498273
    outer loop
      vertex -10.1509 9.53232 -5
      vertex -10.2602 9.635 -2
      vertex -11.2656 8.18491 -5
    endloop
  endfacet
  facet normal -0.769549 -0.636641 0.0498273
    outer loop
      vertex 11.2656 8.18491 -5
      vertex 10.2602 9.635 -2
      vertex 10.1509 9.53232 -5
    endloop
  endfacet
  facet normal -0.949871 -0.308643 0.0498429
    outer loop
      vertex 13.4875 3.46301 -5
      vertex 13.6328 3.50031 -2
      vertex 12.9471 5.12613 -5
    endloop
  endfacet
  facet normal -0.981064 -0.187161 0.0498432
    outer loop
      vertex 13.8152 1.74527 -5
      vertex 13.6328 3.50031 -2
      vertex 13.4875 3.46301 -5
    endloop
  endfacet
  facet normal 0.949871 0.308643 0.0498429
    outer loop
      vertex -12.9471 -5.12613 -5
      vertex -13.4875 -3.46301 -5
      vertex -13.6328 -3.50031 -2
    endloop
  endfacet
  facet normal 0.58704 0.808023 0.0498254
    outer loop
      vertex -7.54176 -11.8839 -2
      vertex -7.46139 -11.7573 -5
      vertex -8.97174 -10.845 -2
    endloop
  endfacet
  facet normal 0.587066 0.808003 0.0498448
    outer loop
      vertex -7.46139 -11.7573 -5
      vertex -8.87613 -10.7294 -5
      vertex -8.97174 -10.845 -2
    endloop
  endfacet
  facet normal 0.248395 0.967375 0.0498578
    outer loop
      vertex -2.63739 -13.8257 -2
      vertex -2.60928 -13.6783 -5
      vertex -4.34941 -13.3861 -2
    endloop
  endfacet
  facet normal 0.125159 0.990883 0.0498581
    outer loop
      vertex -0.883776 -14.0472 -2
      vertex -2.60928 -13.6783 -5
      vertex -2.63739 -13.8257 -2
    endloop
  endfacet
  facet normal 0.843282 0.535158 0.049825
    outer loop
      vertex -11.3869 -8.27308 -2
      vertex -11.2656 -8.18491 -5
      vertex -12.2026 -6.70842 -5
    endloop
  endfacet
  facet normal 0.76955 0.63664 0.0498263
    outer loop
      vertex -10.2602 -9.635 -2
      vertex -11.2656 -8.18491 -5
      vertex -11.3869 -8.27308 -2
    endloop
  endfacet
  facet normal 0.125193 -0.99088 0.049838
    outer loop
      vertex -0.874357 13.8975 -5
      vertex -0.883776 14.0472 -2
      vertex -2.60928 13.6783 -5
    endloop
  endfacet
  facet normal 0.248333 -0.967393 0.0498201
    outer loop
      vertex -4.30306 13.2435 -5
      vertex -2.60928 13.6783 -5
      vertex -4.34941 13.3861 -2
    endloop
  endfacet
  facet normal 0 0 1
    outer loop
      vertex 4.26027 11.2326 -1
      vertex -1.2216 1.73419 -1
      vertex -1.21912 1.0472 -1
    endloop
  endfacet
  facet normal 0 0 1
    outer loop
      vertex -0.301773 9.86087 -1
      vertex -1.22908 2.33815 -1
      vertex -1.2216 1.73419 -1
    endloop
  endfacet
  facet normal 0 0 1
    outer loop
      vertex -0.301773 9.86087 -1
      vertex -1.24152 2.85907 -1
      vertex -1.22908 2.33815 -1
    endloop
  endfacet
  facet normal 0 0 1
    outer loop
      vertex -0.301773 9.86087 -1
      vertex -1.25896 3.29695 -1
      vertex -1.24152 2.85907 -1
    endloop
  endfacet
  facet normal 0 0 1
    outer loop
      vertex -0.301773 9.86087 -1
      vertex -1.28136 3.65181 -1
      vertex -1.25896 3.29695 -1
    endloop
  endfacet
  facet normal 0 0 1
    outer loop
      vertex -0.301773 9.86087 -1
      vertex -1.30875 3.92361 -1
      vertex -1.28136 3.65181 -1
    endloop
  endfacet
  facet normal 0 0 1
    outer loop
      vertex -0.301773 9.86087 -1
      vertex -1.34111 4.1124 -1
      vertex -1.30875 3.92361 -1
    endloop
  endfacet
  facet normal 0 0 1
    outer loop
      vertex -0.301773 9.86087 -1
      vertex -1.38469 4.25453 -1
      vertex -1.34111 4.1124 -1
    endloop
  endfacet
  facet normal 0 0 1
    outer loop
      vertex -0.301773 9.86087 -1
      vertex -1.44572 4.38641 -1
      vertex -1.38469 4.25453 -1
    endloop
  endfacet
  facet normal 0 0 1
    outer loop
      vertex -0.301773 9.86087 -1
      vertex -1.52419 4.50806 -1
      vertex -1.44572 4.38641 -1
    endloop
  endfacet
  facet normal 0 0 1
    outer loop
      vertex -1.08589 9.28545 -1
      vertex -1.6201 4.61946 -1
      vertex -1.52419 4.50806 -1
    endloop
  endfacet
  facet normal 0 0 1
    outer loop
      vertex -1.08589 9.28545 -1
      vertex -1.73346 4.72061 -1
      vertex -1.6201 4.61946 -1
    endloop
  endfacet
  facet normal -0 0 1
    outer loop
      vertex -1.94806 8.78365 -1
      vertex -1.73346 4.72061 -1
      vertex -1.08589 9.28545 -1
    endloop
  endfacet
  facet normal 0 0 1
    outer loop
      vertex -1.73346 4.72061 -1
      vertex -1.94806 8.78365 -1
      vertex -1.86427 4.81152 -1
    endloop
  endfacet
  facet normal 0 0 1
    outer loop
      vertex -1.94806 8.78365 -1
      vertex -2.01251 4.8922 -1
      vertex -1.86427 4.81152 -1
    endloop
  endfacet
  facet normal 0 0 1
    outer loop
      vertex -1.94806 8.78365 -1
      vertex -2.19698 4.96234 -1
      vertex -2.01251 4.8922 -1
    endloop
  endfacet
  facet normal -0 0 1
    outer loop
      vertex -2.88829 8.35547 -1
      vertex -2.19698 4.96234 -1
      vertex -1.94806 8.78365 -1
    endloop
  endfacet
  facet normal 0 0 1
    outer loop
      vertex -2.19698 4.96234 -1
      vertex -2.88829 8.35547 -1
      vertex -2.43651 5.0217 -1
    endloop
  endfacet
  facet normal 0 0 1
    outer loop
      vertex -2.43651 5.0217 -1
      vertex -2.88829 8.35547 -1
      vertex -2.73114 5.07025 -1
    endloop
  endfacet
  facet normal 0 0 1
    outer loop
      vertex -2.88829 8.35547 -1
      vertex -3.08086 5.10803 -1
      vertex -2.73114 5.07025 -1
    endloop
  endfacet
  facet normal -0 0 1
    outer loop
      vertex -3.90657 8.00092 -1
      vertex -3.08086 5.10803 -1
      vertex -2.88829 8.35547 -1
    endloop
  endfacet
  facet normal 0 0 1
    outer loop
      vertex -3.08086 5.10803 -1
      vertex -3.90657 8.00092 -1
      vertex -3.48566 5.13501 -1
    endloop
  endfacet
  facet normal 0 0 1
    outer loop
      vertex -3.90657 8.00092 -1
      vertex -3.94554 5.1512 -1
      vertex -3.48566 5.13501 -1
    endloop
  endfacet
  facet normal -0 0 1
    outer loop
      vertex -5.00291 7.71999 -1
      vertex -3.94554 5.1512 -1
      vertex -3.90657 8.00092 -1
    endloop
  endfacet
  facet normal 0 0 1
    outer loop
      vertex -3.94554 5.1512 -1
      vertex -5.00291 7.71999 -1
      vertex -4.46051 5.15659 -1
    endloop
  endfacet
  facet normal 0 0 1
    outer loop
      vertex -4.46051 5.15659 -1
      vertex -5.00291 7.71999 -1
      vertex -5.00291 5.15659 -1
    endloop
  endfacet
  facet normal 0 0 1
    outer loop
      vertex 0.404266 10.5099 -1
      vertex 4.26027 11.2326 -1
      vertex 1.03227 11.2326 -1
    endloop
  endfacet
  facet normal 0 0 1
    outer loop
      vertex -0.301773 9.86087 -1
      vertex 4.26027 11.2326 -1
      vertex 0.404266 10.5099 -1
    endloop
  endfacet
  facet normal 0 0 1
    outer loop
      vertex -1.2216 1.73419 -1
      vertex 4.26027 11.2326 -1
      vertex -0.301773 9.86087 -1
    endloop
  endfacet
  facet normal 0 0 1
    outer loop
      vertex -1.52419 4.50806 -1
      vertex -0.301773 9.86087 -1
      vertex -1.08589 9.28545 -1
    endloop
  endfacet
  facet normal 0 0 1
    outer loop
      vertex 4.26027 11.2326 -1
      vertex -1.21912 1.0472 -1
      vertex 4.26027 -10.725 -1
    endloop
  endfacet
  facet normal 0 0 1
    outer loop
      vertex 4.26027 -10.725 -1
      vertex -1.21912 1.0472 -1
      vertex -1.21912 -10.725 -1
    endloop
  endfacet
  facet normal 0 0 1
    outer loop
      vertex -5.00291 5.15659 0
      vertex -1.21912 1.0472 0
      vertex -1.2216 1.73419 0
    endloop
  endfacet
  facet normal 0 0 1
    outer loop
      vertex 4.26027 -10.725 0
      vertex 16 0 0
      vertex 15.8738 2.00533 0
    endloop
  endfacet
  facet normal 0 0 1
    outer loop
      vertex 4.26027 11.2326 0
      vertex 15.8738 2.00533 0
      vertex 15.4973 3.97904 0
    endloop
  endfacet
  facet normal 0 0 1
    outer loop
      vertex 16 0 0
      vertex 4.26027 -10.725 0
      vertex 15.8738 -2.00533 0
    endloop
  endfacet
  facet normal 0 0 1
    outer loop
      vertex 4.26027 11.2326 0
      vertex 15.4973 3.97904 0
      vertex 14.8764 5.88999 0
    endloop
  endfacet
  facet normal 0 0 1
    outer loop
      vertex 15.8738 2.00533 0
      vertex 4.26027 11.2326 0
      vertex 4.26027 -10.725 0
    endloop
  endfacet
  facet normal 0 0 1
    outer loop
      vertex 4.26027 11.2326 0
      vertex 14.8764 5.88999 0
      vertex 14.0209 7.70806 0
    endloop
  endfacet
  facet normal 0 0 1
    outer loop
      vertex 15.8738 -2.00533 0
      vertex 4.26027 -10.725 0
      vertex 15.4973 -3.97904 0
    endloop
  endfacet
  facet normal 0 0 1
    outer loop
      vertex 4.26027 11.2326 0
      vertex 14.0209 7.70806 0
      vertex 12.9443 9.40456 0
    endloop
  endfacet
  facet normal 0 0 1
    outer loop
      vertex 15.4973 -3.97904 0
      vertex 4.26027 -10.725 0
      vertex 14.8764 -5.88999 0
    endloop
  endfacet
  facet normal 0 0 1
    outer loop
      vertex 4.26027 11.2326 0
      vertex 12.9443 9.40456 0
      vertex 11.6635 10.9528 0
    endloop
  endfacet
  facet normal 0 0 1
    outer loop
      vertex 14.8764 -5.88999 0
      vertex 4.26027 -10.725 0
      vertex 14.0209 -7.70806 0
    endloop
  endfacet
  facet normal -0 0 1
    outer loop
      vertex 4.26027 11.2326 0
      vertex 11.6635 10.9528 0
      vertex 10.1988 12.3282 0
    endloop
  endfacet
  facet normal 0 0 1
    outer loop
      vertex 14.0209 -7.70806 0
      vertex 4.26027 -10.725 0
      vertex 12.9443 -9.40456 0
    endloop
  endfacet
  facet normal 0 0 1
    outer loop
      vertex 4.26027 11.2326 0
      vertex 10.1988 12.3282 0
      vertex 8.57323 13.5092 0
    endloop
  endfacet
  facet normal 0 0 1
    outer loop
      vertex 12.9443 -9.40456 0
      vertex 4.26027 -10.725 0
      vertex 11.6635 -10.9528 0
    endloop
  endfacet
  facet normal 0 0 1
    outer loop
      vertex 4.26027 11.2326 0
      vertex 8.57323 13.5092 0
      vertex 6.81247 14.4772 0
    endloop
  endfacet
  facet normal 0 0 1
    outer loop
      vertex 11.6635 -10.9528 0
      vertex 4.26027 -10.725 0
      vertex 10.1988 -12.3282 0
    endloop
  endfacet
  facet normal 0 0 1
    outer loop
      vertex 4.26027 11.2326 0
      vertex 6.81247 14.4772 0
      vertex 4.94427 15.2169 0
    endloop
  endfacet
  facet normal 0 0 1
    outer loop
      vertex 10.1988 -12.3282 0
      vertex 4.26027 -10.725 0
      vertex 8.57323 -13.5092 0
    endloop
  endfacet
  facet normal 0 0 1
    outer loop
      vertex 8.57323 -13.5092 0
      vertex 4.26027 -10.725 0
      vertex 6.81247 -14.4772 0
    endloop
  endfacet
  facet normal 0 0 1
    outer loop
      vertex 2.9981 15.7166 0
      vertex 4.26027 11.2326 0
      vertex 4.94427 15.2169 0
    endloop
  endfacet
  facet normal 0 0 1
    outer loop
      vertex 2.9981 15.7166 0
      vertex 1.03227 11.2326 0
      vertex 4.26027 11.2326 0
    endloop
  endfacet
  facet normal 0 0 1
    outer loop
      vertex 1.00465 15.9684 0
      vertex 1.03227 11.2326 0
      vertex 2.9981 15.7166 0
    endloop
  endfacet
  facet normal -0 0 1
    outer loop
      vertex -1.00465 15.9684 0
      vertex 1.03227 11.2326 0
      vertex 1.00465 15.9684 0
    endloop
  endfacet
  facet normal 0 0 1
    outer loop
      vertex 1.03227 11.2326 0
      vertex -1.00465 15.9684 0
      vertex 0.404266 10.5099 0
    endloop
  endfacet
  facet normal -0 0 1
    outer loop
      vertex -2.9981 15.7166 0
      vertex 0.404266 10.5099 0
      vertex -1.00465 15.9684 0
    endloop
  endfacet
  facet normal 0 0 1
    outer loop
      vertex 0.404266 10.5099 0
      vertex -2.9981 15.7166 0
      vertex -0.301773 9.86087 0
    endloop
  endfacet
  facet normal 0 0 1
    outer loop
      vertex -0.301773 9.86087 0
      vertex -2.9981 15.7166 0
      vertex -1.08589 9.28545 0
    endloop
  endfacet
  facet normal -0 0 1
    outer loop
      vertex -4.94427 15.2169 0
      vertex -1.08589 9.28545 0
      vertex -2.9981 15.7166 0
    endloop
  endfacet
  facet normal 0 0 1
    outer loop
      vertex -1.08589 9.28545 0
      vertex -4.94427 15.2169 0
      vertex -1.94806 8.78365 0
    endloop
  endfacet
  facet normal 0 0 1
    outer loop
      vertex -1.94806 8.78365 0
      vertex -4.94427 15.2169 0
      vertex -2.88829 8.35547 0
    endloop
  endfacet
  facet normal 0 0 1
    outer loop
      vertex -2.88829 8.35547 0
      vertex -4.94427 15.2169 0
      vertex -3.90657 8.00092 0
    endloop
  endfacet
  facet normal -0 0 1
    outer loop
      vertex -6.81247 14.4772 0
      vertex -3.90657 8.00092 0
      vertex -4.94427 15.2169 0
    endloop
  endfacet
  facet normal -0 0 1
    outer loop
      vertex -8.57323 13.5092 0
      vertex -5.00291 7.71999 0
      vertex -6.81247 14.4772 0
    endloop
  endfacet
  facet normal 0 0 1
    outer loop
      vertex -3.90657 8.00092 0
      vertex -6.81247 14.4772 0
      vertex -5.00291 7.71999 0
    endloop
  endfacet
  facet normal 0 0 1
    outer loop
      vertex 6.81247 -14.4772 0
      vertex 4.26027 -10.725 0
      vertex 4.94427 -15.2169 0
    endloop
  endfacet
  facet normal 0 0 1
    outer loop
      vertex 4.26027 -10.725 0
      vertex 2.9981 -15.7166 0
      vertex 4.94427 -15.2169 0
    endloop
  endfacet
  facet normal 0 0 1
    outer loop
      vertex 4.26027 -10.725 0
      vertex 1.00465 -15.9684 0
      vertex 2.9981 -15.7166 0
    endloop
  endfacet
  facet normal -0 0 1
    outer loop
      vertex -1.21912 -10.725 0
      vertex 1.00465 -15.9684 0
      vertex 4.26027 -10.725 0
    endloop
  endfacet
  facet normal 0 0 1
    outer loop
      vertex 1.00465 -15.9684 0
      vertex -1.21912 -10.725 0
      vertex -1.00465 -15.9684 0
    endloop
  endfacet
  facet normal 0 0 1
    outer loop
      vertex -4.46051 5.15659 0
      vertex -1.2216 1.73419 0
      vertex -1.22908 2.33815 0
    endloop
  endfacet
  facet normal 0 0 1
    outer loop
      vertex -3.94554 5.1512 0
      vertex -1.22908 2.33815 0
      vertex -1.24152 2.85907 0
    endloop
  endfacet
  facet normal 0 0 1
    outer loop
      vertex -3.08086 5.10803 0
      vertex -1.24152 2.85907 0
      vertex -1.25896 3.29695 0
    endloop
  endfacet
  facet normal 0 0 1
    outer loop
      vertex -2.73114 5.07025 0
      vertex -1.25896 3.29695 0
      vertex -1.28136 3.65181 0
    endloop
  endfacet
  facet normal 0 0 1
    outer loop
      vertex -2.43651 5.0217 0
      vertex -1.28136 3.65181 0
      vertex -1.30875 3.92361 0
    endloop
  endfacet
  facet normal 0 0 1
    outer loop
      vertex -1.86427 4.81152 0
      vertex -1.30875 3.92361 0
      vertex -1.34111 4.1124 0
    endloop
  endfacet
  facet normal 0 0 1
    outer loop
      vertex -1.73346 4.72061 0
      vertex -1.34111 4.1124 0
      vertex -1.38469 4.25453 0
    endloop
  endfacet
  facet normal 0 0 1
    outer loop
      vertex -1.73346 4.72061 0
      vertex -1.38469 4.25453 0
      vertex -1.44572 4.38641 0
    endloop
  endfacet
  facet normal 0 0 1
    outer loop
      vertex -1.73346 4.72061 0
      vertex -1.44572 4.38641 0
      vertex -1.52419 4.50806 0
    endloop
  endfacet
  facet normal 0 0 1
    outer loop
      vertex -1.73346 4.72061 0
      vertex -1.52419 4.50806 0
      vertex -1.6201 4.61946 0
    endloop
  endfacet
  facet normal 0 0 1
    outer loop
      vertex -1.34111 4.1124 0
      vertex -1.73346 4.72061 0
      vertex -1.86427 4.81152 0
    endloop
  endfacet
  facet normal 0 0 1
    outer loop
      vertex -1.30875 3.92361 0
      vertex -1.86427 4.81152 0
      vertex -2.01251 4.8922 0
    endloop
  endfacet
  facet normal 0 0 1
    outer loop
      vertex -1.2216 1.73419 0
      vertex -4.46051 5.15659 0
      vertex -5.00291 5.15659 0
    endloop
  endfacet
  facet normal 0 0 1
    outer loop
      vertex -1.30875 3.92361 0
      vertex -2.01251 4.8922 0
      vertex -2.19698 4.96234 0
    endloop
  endfacet
  facet normal 0 0 1
    outer loop
      vertex -1.30875 3.92361 0
      vertex -2.19698 4.96234 0
      vertex -2.43651 5.0217 0
    endloop
  endfacet
  facet normal 0 0 1
    outer loop
      vertex -1.28136 3.65181 0
      vertex -2.43651 5.0217 0
      vertex -2.73114 5.07025 0
    endloop
  endfacet
  facet normal 0 0 1
    outer loop
      vertex -1.25896 3.29695 0
      vertex -2.73114 5.07025 0
      vertex -3.08086 5.10803 0
    endloop
  endfacet
  facet normal 0 0 1
    outer loop
      vertex -1.21912 -10.725 0
      vertex -2.9981 -15.7166 0
      vertex -1.00465 -15.9684 0
    endloop
  endfacet
  facet normal 0 0 1
    outer loop
      vertex -1.24152 2.85907 0
      vertex -3.08086 5.10803 0
      vertex -3.48566 5.13501 0
    endloop
  endfacet
  facet normal 0 0 1
    outer loop
      vertex -1.24152 2.85907 0
      vertex -3.48566 5.13501 0
      vertex -3.94554 5.1512 0
    endloop
  endfacet
  facet normal 0 0 1
    outer loop
      vertex -1.22908 2.33815 0
      vertex -3.94554 5.1512 0
      vertex -4.46051 5.15659 0
    endloop
  endfacet
  facet normal 0 0 1
    outer loop
      vertex -1.21912 1.0472 0
      vertex -5.00291 5.15659 0
      vertex -15.4973 -3.97904 0
    endloop
  endfacet
  facet normal 0 0 1
    outer loop
      vertex -1.21912 -10.725 0
      vertex -4.94427 -15.2169 0
      vertex -2.9981 -15.7166 0
    endloop
  endfacet
  facet normal 0 0 1
    outer loop
      vertex -1.21912 1.0472 0
      vertex -14.0209 -7.70806 0
      vertex -12.9443 -9.40456 0
    endloop
  endfacet
  facet normal -0 0 1
    outer loop
      vertex -10.1988 12.3282 0
      vertex -5.00291 7.71999 0
      vertex -8.57323 13.5092 0
    endloop
  endfacet
  facet normal 0 0 1
    outer loop
      vertex -1.21912 -10.725 0
      vertex -6.81247 -14.4772 0
      vertex -4.94427 -15.2169 0
    endloop
  endfacet
  facet normal -0 0 1
    outer loop
      vertex -11.6635 10.9528 0
      vertex -5.00291 7.71999 0
      vertex -10.1988 12.3282 0
    endloop
  endfacet
  facet normal 0 0 1
    outer loop
      vertex -1.21912 -10.725 0
      vertex -8.57323 -13.5092 0
      vertex -6.81247 -14.4772 0
    endloop
  endfacet
  facet normal -0 0 1
    outer loop
      vertex -12.9443 9.40456 0
      vertex -5.00291 7.71999 0
      vertex -11.6635 10.9528 0
    endloop
  endfacet
  facet normal 0 0 1
    outer loop
      vertex -1.21912 -10.725 0
      vertex -10.1988 -12.3282 0
      vertex -8.57323 -13.5092 0
    endloop
  endfacet
  facet normal 0 0 1
    outer loop
      vertex -5.00291 7.71999 0
      vertex -12.9443 9.40456 0
      vertex -5.00291 5.15659 0
    endloop
  endfacet
  facet normal 0 0 1
    outer loop
      vertex -1.21912 -10.725 0
      vertex -11.6635 -10.9528 0
      vertex -10.1988 -12.3282 0
    endloop
  endfacet
  facet normal -0 0 1
    outer loop
      vertex -14.0209 7.70806 0
      vertex -5.00291 5.15659 0
      vertex -12.9443 9.40456 0
    endloop
  endfacet
  facet normal 0 0 1
    outer loop
      vertex -1.21912 -10.725 0
      vertex -12.9443 -9.40456 0
      vertex -11.6635 -10.9528 0
    endloop
  endfacet
  facet normal -0 0 1
    outer loop
      vertex -14.8764 5.88999 0
      vertex -5.00291 5.15659 0
      vertex -14.0209 7.70806 0
    endloop
  endfacet
  facet normal 0 0 1
    outer loop
      vertex -1.21912 1.0472 0
      vertex -12.9443 -9.40456 0
      vertex -1.21912 -10.725 0
    endloop
  endfacet
  facet normal 0 0 1
    outer loop
      vertex -15.4973 3.97904 0
      vertex -5.00291 5.15659 0
      vertex -14.8764 5.88999 0
    endloop
  endfacet
  facet normal 0 0 1
    outer loop
      vertex -1.21912 1.0472 0
      vertex -14.8764 -5.88999 0
      vertex -14.0209 -7.70806 0
    endloop
  endfacet
  facet normal 0 0 1
    outer loop
      vertex -15.8738 2.00533 0
      vertex -5.00291 5.15659 0
      vertex -15.4973 3.97904 0
    endloop
  endfacet
  facet normal 0 0 1
    outer loop
      vertex -1.21912 1.0472 0
      vertex -15.4973 -3.97904 0
      vertex -14.8764 -5.88999 0
    endloop
  endfacet
  facet normal 0 0 1
    outer loop
      vertex -16 0 0
      vertex -5.00291 5.15659 0
      vertex -15.8738 2.00533 0
    endloop
  endfacet
  facet normal 0 0 1
    outer loop
      vertex -5.00291 5.15659 0
      vertex -15.8738 -2.00533 0
      vertex -15.4973 -3.97904 0
    endloop
  endfacet
  facet normal 0 0 1
    outer loop
      vertex -5.00291 5.15659 0
      vertex -16 0 0
      vertex -15.8738 -2.00533 0
    endloop
  endfacet
  facet normal 0 -1 0
    outer loop
      vertex 1.03227 11.2326 -1
      vertex 4.26027 11.2326 0
      vertex 1.03227 11.2326 0
    endloop
  endfacet
  facet normal 0 -1 -0
    outer loop
      vertex 4.26027 11.2326 0
      vertex 1.03227 11.2326 -1
      vertex 4.26027 11.2326 -1
    endloop
  endfacet
  facet normal 0.754828 -0.655922 0
    outer loop
      vertex 0.404266 10.5099 0
      vertex 1.03227 11.2326 -1
      vertex 1.03227 11.2326 0
    endloop
  endfacet
  facet normal 0.754828 -0.655922 0
    outer loop
      vertex 1.03227 11.2326 -1
      vertex 0.404266 10.5099 0
      vertex 0.404266 10.5099 -1
    endloop
  endfacet
  facet normal 0.676759 -0.736204 0
    outer loop
      vertex -0.301773 9.86087 -1
      vertex 0.404266 10.5099 0
      vertex -0.301773 9.86087 0
    endloop
  endfacet
  facet normal 0.676759 -0.736204 0
    outer loop
      vertex 0.404266 10.5099 0
      vertex -0.301773 9.86087 -1
      vertex 0.404266 10.5099 -1
    endloop
  endfacet
  facet normal 0.591632 -0.806208 0
    outer loop
      vertex -1.08589 9.28545 -1
      vertex -0.301773 9.86087 0
      vertex -1.08589 9.28545 0
    endloop
  endfacet
  facet normal 0.591632 -0.806208 0
    outer loop
      vertex -0.301773 9.86087 0
      vertex -1.08589 9.28545 -1
      vertex -0.301773 9.86087 -1
    endloop
  endfacet
  facet normal 0.503024 -0.864273 0
    outer loop
      vertex -1.94806 8.78365 -1
      vertex -1.08589 9.28545 0
      vertex -1.94806 8.78365 0
    endloop
  endfacet
  facet normal 0.503024 -0.864273 0
    outer loop
      vertex -1.08589 9.28545 0
      vertex -1.94806 8.78365 -1
      vertex -1.08589 9.28545 -1
    endloop
  endfacet
  facet normal 0.414447 -0.910074 0
    outer loop
      vertex -2.88829 8.35547 -1
      vertex -1.94806 8.78365 0
      vertex -2.88829 8.35547 0
    endloop
  endfacet
  facet normal 0.414447 -0.910074 0
    outer loop
      vertex -1.94806 8.78365 0
      vertex -2.88829 8.35547 -1
      vertex -1.94806 8.78365 -1
    endloop
  endfacet
  facet normal 0.328823 -0.944392 0
    outer loop
      vertex -3.90657 8.00092 -1
      vertex -2.88829 8.35547 0
      vertex -3.90657 8.00092 0
    endloop
  endfacet
  facet normal 0.328823 -0.944392 0
    outer loop
      vertex -2.88829 8.35547 0
      vertex -3.90657 8.00092 -1
      vertex -2.88829 8.35547 -1
    endloop
  endfacet
  facet normal 0.248224 -0.968703 0
    outer loop
      vertex -5.00291 7.71999 -1
      vertex -3.90657 8.00092 0
      vertex -5.00291 7.71999 0
    endloop
  endfacet
  facet normal 0.248224 -0.968703 0
    outer loop
      vertex -3.90657 8.00092 0
      vertex -5.00291 7.71999 -1
      vertex -3.90657 8.00092 -1
    endloop
  endfacet
  facet normal 1 -0 0
    outer loop
      vertex -5.00291 5.15659 0
      vertex -5.00291 7.71999 -1
      vertex -5.00291 7.71999 0
    endloop
  endfacet
  facet normal 1 0 0
    outer loop
      vertex -5.00291 7.71999 -1
      vertex -5.00291 5.15659 0
      vertex -5.00291 5.15659 -1
    endloop
  endfacet
  facet normal 0 1 -0
    outer loop
      vertex -4.46051 5.15659 -1
      vertex -5.00291 5.15659 0
      vertex -4.46051 5.15659 0
    endloop
  endfacet
  facet normal 0 1 0
    outer loop
      vertex -5.00291 5.15659 0
      vertex -4.46051 5.15659 -1
      vertex -5.00291 5.15659 -1
    endloop
  endfacet
  facet normal 0.0104661 0.999945 -0
    outer loop
      vertex -3.94554 5.1512 -1
      vertex -4.46051 5.15659 0
      vertex -3.94554 5.1512 0
    endloop
  endfacet
  facet normal 0.0104661 0.999945 0
    outer loop
      vertex -4.46051 5.15659 0
      vertex -3.94554 5.1512 -1
      vertex -4.46051 5.15659 -1
    endloop
  endfacet
  facet normal 0.035183 0.999381 -0
    outer loop
      vertex -3.48566 5.13501 -1
      vertex -3.94554 5.1512 0
      vertex -3.48566 5.13501 0
    endloop
  endfacet
  facet normal 0.035183 0.999381 0
    outer loop
      vertex -3.94554 5.1512 0
      vertex -3.48566 5.13501 -1
      vertex -3.94554 5.1512 -1
    endloop
  endfacet
  facet normal 0.0665027 0.997786 -0
    outer loop
      vertex -3.08086 5.10803 -1
      vertex -3.48566 5.13501 0
      vertex -3.08086 5.10803 0
    endloop
  endfacet
  facet normal 0.0665027 0.997786 0
    outer loop
      vertex -3.48566 5.13501 0
      vertex -3.08086 5.10803 -1
      vertex -3.48566 5.13501 -1
    endloop
  endfacet
  facet normal 0.107404 0.994215 -0
    outer loop
      vertex -2.73114 5.07025 -1
      vertex -3.08086 5.10803 0
      vertex -2.73114 5.07025 0
    endloop
  endfacet
  facet normal 0.107404 0.994215 0
    outer loop
      vertex -3.08086 5.10803 0
      vertex -2.73114 5.07025 -1
      vertex -3.08086 5.10803 -1
    endloop
  endfacet
  facet normal 0.16259 0.986694 -0
    outer loop
      vertex -2.43651 5.0217 -1
      vertex -2.73114 5.07025 0
      vertex -2.43651 5.0217 0
    endloop
  endfacet
  facet normal 0.16259 0.986694 0
    outer loop
      vertex -2.73114 5.07025 0
      vertex -2.43651 5.0217 -1
      vertex -2.73114 5.07025 -1
    endloop
  endfacet
  facet normal 0.240542 0.970639 -0
    outer loop
      vertex -2.19698 4.96234 -1
      vertex -2.43651 5.0217 0
      vertex -2.19698 4.96234 0
    endloop
  endfacet
  facet normal 0.240542 0.970639 0
    outer loop
      vertex -2.43651 5.0217 0
      vertex -2.19698 4.96234 -1
      vertex -2.43651 5.0217 -1
    endloop
  endfacet
  facet normal 0.355401 0.934714 -0
    outer loop
      vertex -2.01251 4.8922 -1
      vertex -2.19698 4.96234 0
      vertex -2.01251 4.8922 0
    endloop
  endfacet
  facet normal 0.355401 0.934714 0
    outer loop
      vertex -2.19698 4.96234 0
      vertex -2.01251 4.8922 -1
      vertex -2.19698 4.96234 -1
    endloop
  endfacet
  facet normal 0.478038 0.878339 -0
    outer loop
      vertex -1.86427 4.81152 -1
      vertex -2.01251 4.8922 0
      vertex -1.86427 4.81152 0
    endloop
  endfacet
  facet normal 0.478038 0.878339 0
    outer loop
      vertex -2.01251 4.8922 0
      vertex -1.86427 4.81152 -1
      vertex -2.01251 4.8922 -1
    endloop
  endfacet
  facet normal 0.570691 0.821165 -0
    outer loop
      vertex -1.73346 4.72061 -1
      vertex -1.86427 4.81152 0
      vertex -1.73346 4.72061 0
    endloop
  endfacet
  facet normal 0.570691 0.821165 0
    outer loop
      vertex -1.86427 4.81152 0
      vertex -1.73346 4.72061 -1
      vertex -1.86427 4.81152 -1
    endloop
  endfacet
  facet normal 0.66578 0.746148 -0
    outer loop
      vertex -1.6201 4.61946 -1
      vertex -1.73346 4.72061 0
      vertex -1.6201 4.61946 0
    endloop
  endfacet
  facet normal 0.66578 0.746148 0
    outer loop
      vertex -1.73346 4.72061 0
      vertex -1.6201 4.61946 -1
      vertex -1.73346 4.72061 -1
    endloop
  endfacet
  facet normal 0.757829 0.652454 0
    outer loop
      vertex -1.52419 4.50806 0
      vertex -1.6201 4.61946 -1
      vertex -1.6201 4.61946 0
    endloop
  endfacet
  facet normal 0.757829 0.652454 0
    outer loop
      vertex -1.6201 4.61946 -1
      vertex -1.52419 4.50806 0
      vertex -1.52419 4.50806 -1
    endloop
  endfacet
  facet normal 0.84034 0.542059 0
    outer loop
      vertex -1.44572 4.38641 0
      vertex -1.52419 4.50806 -1
      vertex -1.52419 4.50806 0
    endloop
  endfacet
  facet normal 0.84034 0.542059 0
    outer loop
      vertex -1.52419 4.50806 -1
      vertex -1.44572 4.38641 0
      vertex -1.44572 4.38641 -1
    endloop
  endfacet
  facet normal 0.907534 0.419979 0
    outer loop
      vertex -1.38469 4.25453 0
      vertex -1.44572 4.38641 -1
      vertex -1.44572 4.38641 0
    endloop
  endfacet
  facet normal 0.907534 0.419979 0
    outer loop
      vertex -1.44572 4.38641 -1
      vertex -1.38469 4.25453 0
      vertex -1.38469 4.25453 -1
    endloop
  endfacet
  facet normal 0.956067 0.29315 0
    outer loop
      vertex -1.34111 4.1124 0
      vertex -1.38469 4.25453 -1
      vertex -1.38469 4.25453 0
    endloop
  endfacet
  facet normal 0.956067 0.29315 0
    outer loop
      vertex -1.38469 4.25453 -1
      vertex -1.34111 4.1124 0
      vertex -1.34111 4.1124 -1
    endloop
  endfacet
  facet normal 0.985626 0.168944 0
    outer loop
      vertex -1.30875 3.92361 0
      vertex -1.34111 4.1124 -1
      vertex -1.34111 4.1124 0
    endloop
  endfacet
  facet normal 0.985626 0.168944 0
    outer loop
      vertex -1.34111 4.1124 -1
      vertex -1.30875 3.92361 0
      vertex -1.30875 3.92361 -1
    endloop
  endfacet
  facet normal 0.994961 0.100265 0
    outer loop
      vertex -1.28136 3.65181 0
      vertex -1.30875 3.92361 -1
      vertex -1.30875 3.92361 0
    endloop
  endfacet
  facet normal 0.994961 0.100265 0
    outer loop
      vertex -1.30875 3.92361 -1
      vertex -1.28136 3.65181 0
      vertex -1.28136 3.65181 -1
    endloop
  endfacet
  facet normal 0.998014 0.0629981 0
    outer loop
      vertex -1.25896 3.29695 0
      vertex -1.28136 3.65181 -1
      vertex -1.28136 3.65181 0
    endloop
  endfacet
  facet normal 0.998014 0.0629981 0
    outer loop
      vertex -1.28136 3.65181 -1
      vertex -1.25896 3.29695 0
      vertex -1.25896 3.29695 -1
    endloop
  endfacet
  facet normal 0.999208 0.0397967 0
    outer loop
      vertex -1.24152 2.85907 0
      vertex -1.25896 3.29695 -1
      vertex -1.25896 3.29695 0
    endloop
  endfacet
  facet normal 0.999208 0.0397967 0
    outer loop
      vertex -1.25896 3.29695 -1
      vertex -1.24152 2.85907 0
      vertex -1.24152 2.85907 -1
    endloop
  endfacet
  facet normal 0.999715 0.023874 0
    outer loop
      vertex -1.22908 2.33815 0
      vertex -1.24152 2.85907 -1
      vertex -1.24152 2.85907 0
    endloop
  endfacet
  facet normal 0.999715 0.023874 0
    outer loop
      vertex -1.24152 2.85907 -1
      vertex -1.22908 2.33815 0
      vertex -1.22908 2.33815 -1
    endloop
  endfacet
  facet normal 0.999923 0.012384 0
    outer loop
      vertex -1.2216 1.73419 0
      vertex -1.22908 2.33815 -1
      vertex -1.22908 2.33815 0
    endloop
  endfacet
  facet normal 0.999923 0.012384 0
    outer loop
      vertex -1.22908 2.33815 -1
      vertex -1.2216 1.73419 0
      vertex -1.2216 1.73419 -1
    endloop
  endfacet
  facet normal 0.999993 0.00360993 0
    outer loop
      vertex -1.21912 1.0472 0
      vertex -1.2216 1.73419 -1
      vertex -1.2216 1.73419 0
    endloop
  endfacet
  facet normal 0.999993 0.00360993 0
    outer loop
      vertex -1.2216 1.73419 -1
      vertex -1.21912 1.0472 0
      vertex -1.21912 1.0472 -1
    endloop
  endfacet
  facet normal 1 -0 0
    outer loop
      vertex -1.21912 -10.725 0
      vertex -1.21912 1.0472 -1
      vertex -1.21912 1.0472 0
    endloop
  endfacet
  facet normal 1 0 0
    outer loop
      vertex -1.21912 1.0472 -1
      vertex -1.21912 -10.725 0
      vertex -1.21912 -10.725 -1
    endloop
  endfacet
  facet normal 0 1 -0
    outer loop
      vertex 4.26027 -10.725 -1
      vertex -1.21912 -10.725 0
      vertex 4.26027 -10.725 0
    endloop
  endfacet
  facet normal 0 1 0
    outer loop
      vertex -1.21912 -10.725 0
      vertex 4.26027 -10.725 -1
      vertex -1.21912 -10.725 -1
    endloop
  endfacet
  facet normal -1 0 0
    outer loop
      vertex 4.26027 -10.725 -1
      vertex 4.26027 11.2326 0
      vertex 4.26027 11.2326 -1
    endloop
  endfacet
  facet normal -1 -0 0
    outer loop
      vertex 4.26027 11.2326 0
      vertex 4.26027 -10.725 -1
      vertex 4.26027 -10.725 0
    endloop
  endfacet
  facet normal 0.998026 0.062808 0
    outer loop
      vertex 16 0 0
      vertex 15.8738 2.00533 -5
      vertex 15.8738 2.00533 0
    endloop
  endfacet
  facet normal 0.998026 0.062808 0
    outer loop
      vertex 15.8738 2.00533 -5
      vertex 16 0 0
      vertex 16 0 -5
    endloop
  endfacet
  facet normal -0.998026 0.062808 0
    outer loop
      vertex -16 0 -5
      vertex -15.8738 2.00533 0
      vertex -15.8738 2.00533 -5
    endloop
  endfacet
  facet normal -0.998026 0.062808 0
    outer loop
      vertex -15.8738 2.00533 0
      vertex -16 0 -5
      vertex -16 0 0
    endloop
  endfacet
  facet normal 0 1 -0
    outer loop
      vertex 1.00465 15.9684 -5
      vertex -1.00465 15.9684 0
      vertex 1.00465 15.9684 0
    endloop
  endfacet
  facet normal 0 1 0
    outer loop
      vertex -1.00465 15.9684 0
      vertex 1.00465 15.9684 -5
      vertex -1.00465 15.9684 -5
    endloop
  endfacet
  facet normal 0 -1 0
    outer loop
      vertex -1.00465 -15.9684 -5
      vertex 1.00465 -15.9684 0
      vertex -1.00465 -15.9684 0
    endloop
  endfacet
  facet normal 0 -1 -0
    outer loop
      vertex 1.00465 -15.9684 0
      vertex -1.00465 -15.9684 -5
      vertex 1.00465 -15.9684 -5
    endloop
  endfacet
  facet normal 0.684535 0.72898 -0
    outer loop
      vertex 11.6635 10.9528 -5
      vertex 10.1988 12.3282 0
      vertex 11.6635 10.9528 0
    endloop
  endfacet
  facet normal 0.684535 0.72898 0
    outer loop
      vertex 10.1988 12.3282 0
      vertex 11.6635 10.9528 -5
      vertex 10.1988 12.3282 -5
    endloop
  endfacet
  facet normal -0.684535 0.72898 0
    outer loop
      vertex -10.1988 12.3282 -5
      vertex -11.6635 10.9528 0
      vertex -10.1988 12.3282 0
    endloop
  endfacet
  facet normal -0.684535 0.72898 0
    outer loop
      vertex -11.6635 10.9528 0
      vertex -10.1988 12.3282 -5
      vertex -11.6635 10.9528 -5
    endloop
  endfacet
  facet normal -0.368136 0.929772 0
    outer loop
      vertex -4.94427 15.2169 -5
      vertex -6.81247 14.4772 0
      vertex -4.94427 15.2169 0
    endloop
  endfacet
  facet normal -0.368136 0.929772 0
    outer loop
      vertex -6.81247 14.4772 0
      vertex -4.94427 15.2169 -5
      vertex -6.81247 14.4772 -5
    endloop
  endfacet
  facet normal 0.904831 0.425772 0
    outer loop
      vertex 14.8764 5.88999 0
      vertex 14.0209 7.70806 -5
      vertex 14.0209 7.70806 0
    endloop
  endfacet
  facet normal 0.904831 0.425772 0
    outer loop
      vertex 14.0209 7.70806 -5
      vertex 14.8764 5.88999 0
      vertex 14.8764 5.88999 -5
    endloop
  endfacet
  facet normal 0.368136 0.929772 -0
    outer loop
      vertex 6.81247 14.4772 -5
      vertex 4.94427 15.2169 0
      vertex 6.81247 14.4772 0
    endloop
  endfacet
  facet normal 0.368136 0.929772 0
    outer loop
      vertex 4.94427 15.2169 0
      vertex 6.81247 14.4772 -5
      vertex 4.94427 15.2169 -5
    endloop
  endfacet
  facet normal 0.248694 0.968582 -0
    outer loop
      vertex 4.94427 15.2169 -5
      vertex 2.9981 15.7166 0
      vertex 4.94427 15.2169 0
    endloop
  endfacet
  facet normal 0.248694 0.968582 0
    outer loop
      vertex 2.9981 15.7166 0
      vertex 4.94427 15.2169 -5
      vertex 2.9981 15.7166 -5
    endloop
  endfacet
  facet normal 0.481759 0.876304 -0
    outer loop
      vertex 8.57323 13.5092 -5
      vertex 6.81247 14.4772 0
      vertex 8.57323 13.5092 0
    endloop
  endfacet
  facet normal 0.481759 0.876304 0
    outer loop
      vertex 6.81247 14.4772 0
      vertex 8.57323 13.5092 -5
      vertex 6.81247 14.4772 -5
    endloop
  endfacet
  facet normal -0.904831 0.425772 0
    outer loop
      vertex -14.8764 5.88999 -5
      vertex -14.0209 7.70806 0
      vertex -14.0209 7.70806 -5
    endloop
  endfacet
  facet normal -0.904831 0.425772 0
    outer loop
      vertex -14.0209 7.70806 0
      vertex -14.8764 5.88999 -5
      vertex -14.8764 5.88999 0
    endloop
  endfacet
  facet normal -0.844335 0.535816 0
    outer loop
      vertex -14.0209 7.70806 -5
      vertex -12.9443 9.40456 0
      vertex -12.9443 9.40456 -5
    endloop
  endfacet
  facet normal -0.844335 0.535816 0
    outer loop
      vertex -12.9443 9.40456 0
      vertex -14.0209 7.70806 -5
      vertex -14.0209 7.70806 0
    endloop
  endfacet
  facet normal -0.951057 0.309015 0
    outer loop
      vertex -15.4973 3.97904 -5
      vertex -14.8764 5.88999 0
      vertex -14.8764 5.88999 -5
    endloop
  endfacet
  facet normal -0.951057 0.309015 0
    outer loop
      vertex -14.8764 5.88999 0
      vertex -15.4973 3.97904 -5
      vertex -15.4973 3.97904 0
    endloop
  endfacet
  facet normal -0.58777 0.809028 0
    outer loop
      vertex -8.57323 13.5092 -5
      vertex -10.1988 12.3282 0
      vertex -8.57323 13.5092 0
    endloop
  endfacet
  facet normal -0.58777 0.809028 0
    outer loop
      vertex -10.1988 12.3282 0
      vertex -8.57323 13.5092 -5
      vertex -10.1988 12.3282 -5
    endloop
  endfacet
  facet normal -0.125318 0.992117 0
    outer loop
      vertex -1.00465 15.9684 -5
      vertex -2.9981 15.7166 0
      vertex -1.00465 15.9684 0
    endloop
  endfacet
  facet normal -0.125318 0.992117 0
    outer loop
      vertex -2.9981 15.7166 0
      vertex -1.00465 15.9684 -5
      vertex -2.9981 15.7166 -5
    endloop
  endfacet
  facet normal 0.125318 -0.992117 0
    outer loop
      vertex 1.00465 -15.9684 -5
      vertex 2.9981 -15.7166 0
      vertex 1.00465 -15.9684 0
    endloop
  endfacet
  facet normal 0.125318 -0.992117 0
    outer loop
      vertex 2.9981 -15.7166 0
      vertex 1.00465 -15.9684 -5
      vertex 2.9981 -15.7166 -5
    endloop
  endfacet
  facet normal 0.951057 0.309015 0
    outer loop
      vertex 15.4973 3.97904 0
      vertex 14.8764 5.88999 -5
      vertex 14.8764 5.88999 0
    endloop
  endfacet
  facet normal 0.951057 0.309015 0
    outer loop
      vertex 14.8764 5.88999 -5
      vertex 15.4973 3.97904 0
      vertex 15.4973 3.97904 -5
    endloop
  endfacet
  facet normal 0.982288 0.187379 0
    outer loop
      vertex 15.8738 2.00533 0
      vertex 15.4973 3.97904 -5
      vertex 15.4973 3.97904 0
    endloop
  endfacet
  facet normal 0.982288 0.187379 0
    outer loop
      vertex 15.4973 3.97904 -5
      vertex 15.8738 2.00533 0
      vertex 15.8738 2.00533 -5
    endloop
  endfacet
  facet normal 0.770517 0.637419 0
    outer loop
      vertex 12.9443 9.40456 0
      vertex 11.6635 10.9528 -5
      vertex 11.6635 10.9528 0
    endloop
  endfacet
  facet normal 0.770517 0.637419 0
    outer loop
      vertex 11.6635 10.9528 -5
      vertex 12.9443 9.40456 0
      vertex 12.9443 9.40456 -5
    endloop
  endfacet
  facet normal 0.844335 0.535816 0
    outer loop
      vertex 14.0209 7.70806 0
      vertex 12.9443 9.40456 -5
      vertex 12.9443 9.40456 0
    endloop
  endfacet
  facet normal 0.844335 0.535816 0
    outer loop
      vertex 12.9443 9.40456 -5
      vertex 14.0209 7.70806 0
      vertex 14.0209 7.70806 -5
    endloop
  endfacet
  facet normal 0.125318 0.992117 -0
    outer loop
      vertex 2.9981 15.7166 -5
      vertex 1.00465 15.9684 0
      vertex 2.9981 15.7166 0
    endloop
  endfacet
  facet normal 0.125318 0.992117 0
    outer loop
      vertex 1.00465 15.9684 0
      vertex 2.9981 15.7166 -5
      vertex 1.00465 15.9684 -5
    endloop
  endfacet
  facet normal 0.58777 0.809028 -0
    outer loop
      vertex 10.1988 12.3282 -5
      vertex 8.57323 13.5092 0
      vertex 10.1988 12.3282 0
    endloop
  endfacet
  facet normal 0.58777 0.809028 0
    outer loop
      vertex 8.57323 13.5092 0
      vertex 10.1988 12.3282 -5
      vertex 8.57323 13.5092 -5
    endloop
  endfacet
  facet normal -0.982288 0.187379 0
    outer loop
      vertex -15.8738 2.00533 -5
      vertex -15.4973 3.97904 0
      vertex -15.4973 3.97904 -5
    endloop
  endfacet
  facet normal -0.982288 0.187379 0
    outer loop
      vertex -15.4973 3.97904 0
      vertex -15.8738 2.00533 -5
      vertex -15.8738 2.00533 0
    endloop
  endfacet
  facet normal -0.248694 0.968582 0
    outer loop
      vertex -2.9981 15.7166 -5
      vertex -4.94427 15.2169 0
      vertex -2.9981 15.7166 0
    endloop
  endfacet
  facet normal -0.248694 0.968582 0
    outer loop
      vertex -4.94427 15.2169 0
      vertex -2.9981 15.7166 -5
      vertex -4.94427 15.2169 -5
    endloop
  endfacet
  facet normal 0.998026 -0.062808 0
    outer loop
      vertex 15.8738 -2.00533 0
      vertex 16 0 -5
      vertex 16 0 0
    endloop
  endfacet
  facet normal 0.998026 -0.062808 0
    outer loop
      vertex 16 0 -5
      vertex 15.8738 -2.00533 0
      vertex 15.8738 -2.00533 -5
    endloop
  endfacet
  facet normal 0.904831 -0.425772 0
    outer loop
      vertex 14.0209 -7.70806 0
      vertex 14.8764 -5.88999 -5
      vertex 14.8764 -5.88999 0
    endloop
  endfacet
  facet normal 0.904831 -0.425772 0
    outer loop
      vertex 14.8764 -5.88999 -5
      vertex 14.0209 -7.70806 0
      vertex 14.0209 -7.70806 -5
    endloop
  endfacet
  facet normal -0.368136 -0.929772 0
    outer loop
      vertex -6.81247 -14.4772 -5
      vertex -4.94427 -15.2169 0
      vertex -6.81247 -14.4772 0
    endloop
  endfacet
  facet normal -0.368136 -0.929772 -0
    outer loop
      vertex -4.94427 -15.2169 0
      vertex -6.81247 -14.4772 -5
      vertex -4.94427 -15.2169 -5
    endloop
  endfacet
  facet normal -0.904831 -0.425772 0
    outer loop
      vertex -14.0209 -7.70806 -5
      vertex -14.8764 -5.88999 0
      vertex -14.8764 -5.88999 -5
    endloop
  endfacet
  facet normal -0.904831 -0.425772 0
    outer loop
      vertex -14.8764 -5.88999 0
      vertex -14.0209 -7.70806 -5
      vertex -14.0209 -7.70806 0
    endloop
  endfacet
  facet normal 0.368136 -0.929772 0
    outer loop
      vertex 4.94427 -15.2169 -5
      vertex 6.81247 -14.4772 0
      vertex 4.94427 -15.2169 0
    endloop
  endfacet
  facet normal 0.368136 -0.929772 0
    outer loop
      vertex 6.81247 -14.4772 0
      vertex 4.94427 -15.2169 -5
      vertex 6.81247 -14.4772 -5
    endloop
  endfacet
  facet normal -0.770517 0.637419 0
    outer loop
      vertex -12.9443 9.40456 -5
      vertex -11.6635 10.9528 0
      vertex -11.6635 10.9528 -5
    endloop
  endfacet
  facet normal -0.770517 0.637419 0
    outer loop
      vertex -11.6635 10.9528 0
      vertex -12.9443 9.40456 -5
      vertex -12.9443 9.40456 0
    endloop
  endfacet
  facet normal -0.481759 0.876304 0
    outer loop
      vertex -6.81247 14.4772 -5
      vertex -8.57323 13.5092 0
      vertex -6.81247 14.4772 0
    endloop
  endfacet
  facet normal -0.481759 0.876304 0
    outer loop
      vertex -8.57323 13.5092 0
      vertex -6.81247 14.4772 -5
      vertex -8.57323 13.5092 -5
    endloop
  endfacet
  facet normal 0.951057 -0.309015 0
    outer loop
      vertex 14.8764 -5.88999 0
      vertex 15.4973 -3.97904 -5
      vertex 15.4973 -3.97904 0
    endloop
  endfacet
  facet normal 0.951057 -0.309015 0
    outer loop
      vertex 15.4973 -3.97904 -5
      vertex 14.8764 -5.88999 0
      vertex 14.8764 -5.88999 -5
    endloop
  endfacet
  facet normal 0.770517 -0.637419 0
    outer loop
      vertex 11.6635 -10.9528 0
      vertex 12.9443 -9.40456 -5
      vertex 12.9443 -9.40456 0
    endloop
  endfacet
  facet normal 0.770517 -0.637419 0
    outer loop
      vertex 12.9443 -9.40456 -5
      vertex 11.6635 -10.9528 0
      vertex 11.6635 -10.9528 -5
    endloop
  endfacet
  facet normal -0.951057 -0.309015 0
    outer loop
      vertex -14.8764 -5.88999 -5
      vertex -15.4973 -3.97904 0
      vertex -15.4973 -3.97904 -5
    endloop
  endfacet
  facet normal -0.951057 -0.309015 0
    outer loop
      vertex -15.4973 -3.97904 0
      vertex -14.8764 -5.88999 -5
      vertex -14.8764 -5.88999 0
    endloop
  endfacet
  facet normal -0.998026 -0.062808 0
    outer loop
      vertex -15.8738 -2.00533 -5
      vertex -16 0 0
      vertex -16 0 -5
    endloop
  endfacet
  facet normal -0.998026 -0.062808 0
    outer loop
      vertex -16 0 0
      vertex -15.8738 -2.00533 -5
      vertex -15.8738 -2.00533 0
    endloop
  endfacet
  facet normal 0.684535 -0.72898 0
    outer loop
      vertex 10.1988 -12.3282 -5
      vertex 11.6635 -10.9528 0
      vertex 10.1988 -12.3282 0
    endloop
  endfacet
  facet normal 0.684535 -0.72898 0
    outer loop
      vertex 11.6635 -10.9528 0
      vertex 10.1988 -12.3282 -5
      vertex 11.6635 -10.9528 -5
    endloop
  endfacet
  facet normal 0.481759 -0.876304 0
    outer loop
      vertex 6.81247 -14.4772 -5
      vertex 8.57323 -13.5092 0
      vertex 6.81247 -14.4772 0
    endloop
  endfacet
  facet normal 0.481759 -0.876304 0
    outer loop
      vertex 8.57323 -13.5092 0
      vertex 6.81247 -14.4772 -5
      vertex 8.57323 -13.5092 -5
    endloop
  endfacet
  facet normal 0.248694 -0.968582 0
    outer loop
      vertex 2.9981 -15.7166 -5
      vertex 4.94427 -15.2169 0
      vertex 2.9981 -15.7166 0
    endloop
  endfacet
  facet normal 0.248694 -0.968582 0
    outer loop
      vertex 4.94427 -15.2169 0
      vertex 2.9981 -15.7166 -5
      vertex 4.94427 -15.2169 -5
    endloop
  endfacet
  facet normal 0.982288 -0.187379 0
    outer loop
      vertex 15.4973 -3.97904 0
      vertex 15.8738 -2.00533 -5
      vertex 15.8738 -2.00533 0
    endloop
  endfacet
  facet normal 0.982288 -0.187379 0
    outer loop
      vertex 15.8738 -2.00533 -5
      vertex 15.4973 -3.97904 0
      vertex 15.4973 -3.97904 -5
    endloop
  endfacet
  facet normal 0.844335 -0.535816 0
    outer loop
      vertex 12.9443 -9.40456 0
      vertex 14.0209 -7.70806 -5
      vertex 14.0209 -7.70806 0
    endloop
  endfacet
  facet normal 0.844335 -0.535816 0
    outer loop
      vertex 14.0209 -7.70806 -5
      vertex 12.9443 -9.40456 0
      vertex 12.9443 -9.40456 -5
    endloop
  endfacet
  facet normal -0.125318 -0.992117 0
    outer loop
      vertex -2.9981 -15.7166 -5
      vertex -1.00465 -15.9684 0
      vertex -2.9981 -15.7166 0
    endloop
  endfacet
  facet normal -0.125318 -0.992117 -0
    outer loop
      vertex -1.00465 -15.9684 0
      vertex -2.9981 -15.7166 -5
      vertex -1.00465 -15.9684 -5
    endloop
  endfacet
  facet normal -0.684535 -0.72898 0
    outer loop
      vertex -11.6635 -10.9528 -5
      vertex -10.1988 -12.3282 0
      vertex -11.6635 -10.9528 0
    endloop
  endfacet
  facet normal -0.684535 -0.72898 -0
    outer loop
      vertex -10.1988 -12.3282 0
      vertex -11.6635 -10.9528 -5
      vertex -10.1988 -12.3282 -5
    endloop
  endfacet
  facet normal -0.248694 -0.968582 0
    outer loop
      vertex -4.94427 -15.2169 -5
      vertex -2.9981 -15.7166 0
      vertex -4.94427 -15.2169 0
    endloop
  endfacet
  facet normal -0.248694 -0.968582 -0
    outer loop
      vertex -2.9981 -15.7166 0
      vertex -4.94427 -15.2169 -5
      vertex -2.9981 -15.7166 -5
    endloop
  endfacet
  facet normal -0.770517 -0.637419 0
    outer loop
      vertex -11.6635 -10.9528 -5
      vertex -12.9443 -9.40456 0
      vertex -12.9443 -9.40456 -5
    endloop
  endfacet
  facet normal -0.770517 -0.637419 0
    outer loop
      vertex -12.9443 -9.40456 0
      vertex -11.6635 -10.9528 -5
      vertex -11.6635 -10.9528 0
    endloop
  endfacet
  facet normal -0.844335 -0.535816 0
    outer loop
      vertex -12.9443 -9.40456 -5
      vertex -14.0209 -7.70806 0
      vertex -14.0209 -7.70806 -5
    endloop
  endfacet
  facet normal -0.844335 -0.535816 0
    outer loop
      vertex -14.0209 -7.70806 0
      vertex -12.9443 -9.40456 -5
      vertex -12.9443 -9.40456 0
    endloop
  endfacet
  facet normal -0.982288 -0.187379 0
    outer loop
      vertex -15.4973 -3.97904 -5
      vertex -15.8738 -2.00533 0
      vertex -15.8738 -2.00533 -5
    endloop
  endfacet
  facet normal -0.982288 -0.187379 0
    outer loop
      vertex -15.8738 -2.00533 0
      vertex -15.4973 -3.97904 -5
      vertex -15.4973 -3.97904 0
    endloop
  endfacet
  facet normal 0.58777 -0.809028 0
    outer loop
      vertex 8.57323 -13.5092 -5
      vertex 10.1988 -12.3282 0
      vertex 8.57323 -13.5092 0
    endloop
  endfacet
  facet normal 0.58777 -0.809028 0
    outer loop
      vertex 10.1988 -12.3282 0
      vertex 8.57323 -13.5092 -5
      vertex 10.1988 -12.3282 -5
    endloop
  endfacet
  facet normal -0.481759 -0.876304 0
    outer loop
      vertex -8.57323 -13.5092 -5
      vertex -6.81247 -14.4772 0
      vertex -8.57323 -13.5092 0
    endloop
  endfacet
  facet normal -0.481759 -0.876304 -0
    outer loop
      vertex -6.81247 -14.4772 0
      vertex -8.57323 -13.5092 -5
      vertex -6.81247 -14.4772 -5
    endloop
  endfacet
  facet normal -0.58777 -0.809028 0
    outer loop
      vertex -10.1988 -12.3282 -5
      vertex -8.57323 -13.5092 0
      vertex -10.1988 -12.3282 0
    endloop
  endfacet
  facet normal -0.58777 -0.809028 -0
    outer loop
      vertex -8.57323 -13.5092 0
      vertex -10.1988 -12.3282 -5
      vertex -8.57323 -13.5092 -5
    endloop
  endfacet
endsolid OpenSCAD_Model
