solid OpenSCAD_Model
  facet normal -0.6836963841928089 -0.7280627007864849 -0.04983932147580148
    outer loop
      vertex -3.5901704900504523 -3.3713944966987905 -3
      vertex -3.1393131495122963 -3.7947777206707625 -3
      vertex -3.2349267479746002 -3.910354707087131 0
    endloop
  endfacet
  facet normal -0.5870547814661051 -0.8080115875361041 -0.04983932147580149
    outer loop
      vertex -2.638946965271559 -4.1583150330974235 -3
      vertex -2.7193209845184088 -4.284964221922726 0
      vertex -3.1393131495122963 -3.7947777206707625 -3
    endloop
  endfacet
  facet normal -0.6836963841928088 -0.7280627007864852 -0.04983932147580153
    outer loop
      vertex -3.5901704900504523 -3.3713944966987905 -3
      vertex -3.2349267479746002 -3.910354707087131 0
      vertex -3.699515784163664 -3.4740765625880945 0
    endloop
  endfacet
  facet normal -0.5870547814661053 -0.8080115875361041 -0.04983932147580147
    outer loop
      vertex -3.1393131495122963 -3.7947777206707625 -3
      vertex -2.7193209845184088 -4.284964221922726 0
      vertex -3.2349267479746002 -3.910354707087131 0
    endloop
  endfacet
  facet normal -0.9037025775627162 -0.42525015384045983 -0.04983932147580143
    outer loop
      vertex -4.579149192999639 -1.8130134219720384 -3
      vertex -4.315810399216027 -2.3726368449509483 -3
      vertex -4.718615665882877 -1.8682321048747401 0
    endloop
  endfacet
  facet normal -0.8432786359612162 -0.5351608955876933 -0.04983932147580154
    outer loop
      vertex -3.984408697296616 -2.8948423675404302 -3
      vertex -4.4472564012226075 -2.4448998960662056 0
      vertex -4.315810399216027 -2.3726368449509483 -3
    endloop
  endfacet
  facet normal -0.7695556865203668 -0.6366318303218892 -0.04983932147580135
    outer loop
      vertex -3.984408697296616 -2.8948423675404302 -3
      vertex -3.5901704900504523 -3.3713944966987905 -3
      vertex -4.105761246452858 -2.983010155384301 0
    endloop
  endfacet
  facet normal 0 0 -1
    outer loop
      vertex -4.770272068558508 -1.22479769428691 -3
      vertex -4.886164903973803 -0.6172661753041975 -3
      vertex -4.770272068558508 1.22479769428691 -3
    endloop
  endfacet
  facet normal 0 0 -1
    outer loop
      vertex -4.579149192999639 -1.8130134219720384 -3
      vertex -4.770272068558508 -1.22479769428691 -3
      vertex -4.579149192999639 1.8130134219720384 -3
    endloop
  endfacet
  facet normal 0 0 -1
    outer loop
      vertex -4.579149192999639 -1.8130134219720384 -3
      vertex -4.315810399216027 2.3726368449509483 -3
      vertex -4.315810399216027 -2.3726368449509483 -3
    endloop
  endfacet
  facet normal 0 0 -1
    outer loop
      vertex -3.984408697296616 -2.8948423675404302 -3
      vertex -4.315810399216027 -2.3726368449509483 -3
      vertex -3.984408697296616 2.8948423675404302 -3
    endloop
  endfacet
  facet normal -0.9810665120712087 -0.18714844623256843 -0.049839321475801564
    outer loop
      vertex -4.770272068558508 -1.22479769428691 -3
      vertex -5.034982109170976 -0.6360661603388431 0
      vertex -4.886164903973803 -0.6172661753041975 -3
    endloop
  endfacet
  facet normal -0.9498745896703013 -0.30863296313502947 -0.04983932147580165
    outer loop
      vertex -4.579149192999639 -1.8130134219720384 -3
      vertex -4.915559542727803 -1.2621011773616384 0
      vertex -4.770272068558508 -1.22479769428691 -3
    endloop
  endfacet
  facet normal -0.9967864295160269 -0.06271248653595425 -0.04983932147580147
    outer loop
      vertex -4.886164903973803 -0.6172661753041975 -3
      vertex -5.075 0 0
      vertex -4.925 0 -3
    endloop
  endfacet
  facet normal 0 0 -1
    outer loop
      vertex -3.984408697296616 -2.8948423675404302 -3
      vertex -3.5901704900504523 3.3713944966987905 -3
      vertex -3.5901704900504523 -3.3713944966987905 -3
    endloop
  endfacet
  facet normal 0 0 -1
    outer loop
      vertex -3.5901704900504523 -3.3713944966987905 -3
      vertex -3.1393131495122963 3.7947777206707625 -3
      vertex -3.1393131495122963 -3.7947777206707625 -3
    endloop
  endfacet
  facet normal 0 0 -1
    outer loop
      vertex -2.638946965271559 -4.1583150330974235 -3
      vertex -3.1393131495122963 -3.7947777206707625 -3
      vertex -2.638946965271559 4.1583150330974235 -3
    endloop
  endfacet
  facet normal -0.9037025775627163 -0.4252501538404593 -0.04983932147580155
    outer loop
      vertex -4.315810399216027 -2.3726368449509483 -3
      vertex -4.4472564012226075 -2.4448998960662056 0
      vertex -4.718615665882877 -1.8682321048747401 0
    endloop
  endfacet
  facet normal -0.8432786359612159 -0.5351608955876942 -0.04983932147580136
    outer loop
      vertex -3.984408697296616 -2.8948423675404302 -3
      vertex -4.105761246452858 -2.983010155384301 0
      vertex -4.4472564012226075 -2.4448998960662056 0
    endloop
  endfacet
  facet normal -0.9810665120712088 -0.18714844623256804 -0.04983932147580164
    outer loop
      vertex -4.770272068558508 -1.22479769428691 -3
      vertex -4.915559542727803 -1.2621011773616384 0
      vertex -5.034982109170976 -0.6360661603388431 0
    endloop
  endfacet
  facet normal -0.949874589670301 -0.30863296313503036 -0.04983932147580144
    outer loop
      vertex -4.579149192999639 -1.8130134219720384 -3
      vertex -4.718615665882877 -1.8682321048747401 0
      vertex -4.915559542727803 -1.2621011773616384 0
    endloop
  endfacet
  facet normal -0.996786429516027 -0.06271248653595377 -0.049839321475801564
    outer loop
      vertex -4.886164903973803 -0.6172661753041975 -3
      vertex -5.034982109170976 -0.6360661603388431 0
      vertex -5.075 0 0
    endloop
  endfacet
  facet normal -0.7695556865203673 -0.6366318303218886 -0.0498393214758015
    outer loop
      vertex -3.5901704900504523 -3.3713944966987905 -3
      vertex -3.699515784163664 -3.4740765625880945 0
      vertex -4.105761246452858 -2.983010155384301 0
    endloop
  endfacet
  facet normal -0.48115497414615477 -0.8752176488675516 -0.04983932147580144
    outer loop
      vertex -2.638946965271559 -4.1583150330974235 -3
      vertex -2.0969630109579818 -4.456273233395146 -3
      vertex -2.1608299046927426 -4.5919972912650495 0
    endloop
  endfacet
  facet normal -0.3676670654558689 -0.9286210050466776 -0.04983932147580149
    outer loop
      vertex -2.0969630109579818 -4.456273233395146 -3
      vertex -1.5219086972966158 -4.683953342753631 -3
      vertex -1.568261246452858 -4.826611820197904 0
    endloop
  endfacet
  facet normal -0.24838082750968726 -0.967379453244917 -0.049839321475801585
    outer loop
      vertex -1.5219086972966158 -4.683953342753631 -3
      vertex -0.9228529743346947 -4.837764709838791 -3
      vertex -0.9509601715225535 -4.985107797448095 0
    endloop
  endfacet
  facet normal -0.12517747553816258 -0.9908817495810105 -0.04983932147580137
    outer loop
      vertex -0.9228529743346947 -4.837764709838791 -3
      vertex -0.3092433086818703 -4.915281637509238 -3
      vertex -0.3186618866112674 -5.064985646773478 0
    endloop
  endfacet
  facet normal -0.48115497414615466 -0.8752176488675517 -0.049839321475801474
    outer loop
      vertex -2.638946965271559 -4.1583150330974235 -3
      vertex -2.1608299046927426 -4.5919972912650495 0
      vertex -2.7193209845184088 -4.284964221922726 0
    endloop
  endfacet
  facet normal -0.367667065455869 -0.9286210050466774 -0.049839321475801446
    outer loop
      vertex -2.0969630109579818 -4.456273233395146 -3
      vertex -1.568261246452858 -4.826611820197904 0
      vertex -2.1608299046927426 -4.5919972912650495 0
    endloop
  endfacet
  facet normal -0.24838082750968782 -0.967379453244917 -0.04983932147580149
    outer loop
      vertex -1.5219086972966158 -4.683953342753631 -3
      vertex -0.9509601715225535 -4.985107797448095 0
      vertex -1.568261246452858 -4.826611820197904 0
    endloop
  endfacet
  facet normal -0.125177475538161 -0.9908817495810107 -0.0498393214758017
    outer loop
      vertex -0.9228529743346947 -4.837764709838791 -3
      vertex -0.3186618866112674 -5.064985646773478 0
      vertex -0.8058599978685379 -5.00343821219823 0
    endloop
  endfacet
  facet normal 0 -0.998757248802146 -0.049839321475801356
    outer loop
      vertex -0.3092433086818703 -4.915281637509238 -3
      vertex 0.3186618866112674 -5.064985646773478 0
      vertex -0.3186618866112674 -5.064985646773478 0
    endloop
  endfacet
  facet normal -0.12517747553816305 -0.9908817495810105 -0.049839321475801605
    outer loop
      vertex -0.9228529743346947 -4.837764709838791 -3
      vertex -0.8058599978685379 -5.00343821219823 0
      vertex -0.9509601715225535 -4.985107797448095 0
    endloop
  endfacet
  facet normal 0 0 -1
    outer loop
      vertex -2.638946965271559 -4.1583150330974235 -3
      vertex -2.096963010957983 4.456273233395145 -3
      vertex -2.0969630109579818 -4.456273233395146 -3
    endloop
  endfacet
  facet normal 0 0 -1
    outer loop
      vertex -2.0969630109579818 -4.456273233395146 -3
      vertex -1.5219086972966158 4.683953342753631 -3
      vertex -1.5219086972966158 -4.683953342753631 -3
    endloop
  endfacet
  facet normal 0 0 -1
    outer loop
      vertex -1.5219086972966158 -4.683953342753631 -3
      vertex -0.9228529743346935 4.837764709838792 -3
      vertex -0.9228529743346947 -4.837764709838791 -3
    endloop
  endfacet
  facet normal 0 0 -1
    outer loop
      vertex -0.9228529743346947 -4.837764709838791 -3
      vertex -0.3092433086818679 4.915281637509238 -3
      vertex -0.3092433086818703 -4.915281637509238 -3
    endloop
  endfacet
  facet normal 0 0 1
    outer loop
      vertex -4.915559542727803 -1.2621011773616384 0
      vertex -5.034982109170976 0.6360661603388431 0
      vertex -5.034982109170976 -0.6360661603388431 0
    endloop
  endfacet
  facet normal 0 0 1
    outer loop
      vertex -4.718615665882877 -1.8682321048747401 0
      vertex -4.915559542727803 1.2621011773616384 0
      vertex -4.915559542727803 -1.2621011773616384 0
    endloop
  endfacet
  facet normal 0 0 1
    outer loop
      vertex -4.4472564012226075 -2.4448998960662056 0
      vertex -4.718615665882877 1.8682321048747401 0
      vertex -4.718615665882877 -1.8682321048747401 0
    endloop
  endfacet
  facet normal 0 0 1
    outer loop
      vertex -4.105761246452858 -2.983010155384301 0
      vertex -4.4472564012226075 2.4448998960662056 0
      vertex -4.4472564012226075 -2.4448998960662056 0
    endloop
  endfacet
  facet normal 0 0 1
    outer loop
      vertex -4.105761246452858 -2.983010155384301 0
      vertex -3.699515784163664 -3.4740765625880945 0
      vertex -4.105761246452858 2.983010155384301 0
    endloop
  endfacet
  facet normal 0 0 1
    outer loop
      vertex -2.7193209845184088 -4.284964221922726 0
      vertex -2.1608299046927426 -4.5919972912650495 0
      vertex -2.750699996948242 2.939520001411438 0
    endloop
  endfacet
  facet normal 0 0 1
    outer loop
      vertex -3.2349267479746002 -3.910354707087131 0
      vertex -3.699515784163664 3.4740765625880945 0
      vertex -3.699515784163664 -3.4740765625880945 0
    endloop
  endfacet
  facet normal 0 0 1
    outer loop
      vertex -3.2349267479746002 -3.910354707087131 0
      vertex -2.7193209845184088 -4.284964221922726 0
      vertex -3.2349267479746002 3.910354707087131 0
    endloop
  endfacet
  facet normal 0 0 1
    outer loop
      vertex -2.1608299046927426 -4.5919972912650495 0
      vertex -1.568261246452858 -4.826611820197904 0
      vertex -2.16578571498394 2.9265697970986366 0
    endloop
  endfacet
  facet normal 0 0 1
    outer loop
      vertex -1.568261246452858 -4.826611820197904 0
      vertex -0.9509601715225535 -4.985107797448095 0
      vertex -1.536300003528595 2.8585812225937843 0
    endloop
  endfacet
  facet normal 0 0 1
    outer loop
      vertex -0.9509601715225535 -4.985107797448095 0
      vertex -0.8058599978685379 -5.00343821219823 0
      vertex -0.8058599978685379 0.47388000041246414 0
    endloop
  endfacet
  facet normal 0 0 1
    outer loop
      vertex -0.9509601715225535 -4.985107797448095 0
      vertex -0.8058599978685379 0.47388000041246414 0
      vertex -0.8073538765311241 0.8860775530338287 0
    endloop
  endfacet
  facet normal 0 0 1
    outer loop
      vertex -0.9509601715225535 -4.985107797448095 0
      vertex -0.8073538765311241 0.8860775530338287 0
      vertex -0.8118355125188828 1.2484530583024025 0
    endloop
  endfacet
  facet normal 0 0 1
    outer loop
      vertex -0.9509601715225535 -4.985107797448095 0
      vertex -0.8118355125188828 1.2484530583024025 0
      vertex -0.8193048983812332 1.5610065311193466 0
    endloop
  endfacet
  facet normal 0 0 1
    outer loop
      vertex -0.9509601715225535 -4.985107797448095 0
      vertex -0.8193048983812332 1.5610065311193466 0
      vertex -0.8297620415687561 1.8237379565835 0
    endloop
  endfacet
  facet normal 0 0 1
    outer loop
      vertex -0.9509601715225535 -4.985107797448095 0
      vertex -0.8297620415687561 1.8237379565835 0
      vertex -0.8432069420814514 2.0366473495960236 0
    endloop
  endfacet
  facet normal 0 0 1
    outer loop
      vertex -0.9509601715225535 -4.985107797448095 0
      vertex -0.8432069420814514 2.0366473495960236 0
      vertex -0.8596395924687386 2.1997346952557564 0
    endloop
  endfacet
  facet normal 0 0 1
    outer loop
      vertex -0.9509601715225535 -4.985107797448095 0
      vertex -0.8596395924687386 2.1997346952557564 0
      vertex -0.8790600001811981 2.313000001013279 0
    endloop
  endfacet
  facet normal 0 0 1
    outer loop
      vertex -0.9509601715225535 -4.985107797448095 0
      vertex -0.9052077531814575 2.3982808142900467 0
      vertex -0.9418224468827248 2.477414697408676 0
    endloop
  endfacet
  facet normal 0 0 1
    outer loop
      vertex -0.9509601715225535 -4.985107797448095 0
      vertex -0.8790600001811981 2.313000001013279 0
      vertex -0.9052077531814575 2.3982808142900467 0
    endloop
  endfacet
  facet normal 0 0 -1
    outer loop
      vertex -4.886164903973803 -0.6172661753041975 -3
      vertex -4.925 0 -3
      vertex -4.886164903973803 0.6172661753041975 -3
    endloop
  endfacet
  facet normal 0 0 -1
    outer loop
      vertex -4.886164903973803 -0.6172661753041975 -3
      vertex -4.886164903973803 0.6172661753041975 -3
      vertex -4.770272068558508 1.22479769428691 -3
    endloop
  endfacet
  facet normal 0 0 -1
    outer loop
      vertex -4.770272068558508 -1.22479769428691 -3
      vertex -4.770272068558508 1.22479769428691 -3
      vertex -4.579149192999639 1.8130134219720384 -3
    endloop
  endfacet
  facet normal 0 0 -1
    outer loop
      vertex -4.579149192999639 -1.8130134219720384 -3
      vertex -4.579149192999639 1.8130134219720384 -3
      vertex -4.315810399216027 2.3726368449509483 -3
    endloop
  endfacet
  facet normal 0 0 -1
    outer loop
      vertex -4.315810399216027 -2.3726368449509483 -3
      vertex -4.315810399216027 2.3726368449509483 -3
      vertex -3.984408697296616 2.8948423675404302 -3
    endloop
  endfacet
  facet normal 0 0 -1
    outer loop
      vertex -3.984408697296616 -2.8948423675404302 -3
      vertex -3.984408697296616 2.8948423675404302 -3
      vertex -3.5901704900504523 3.3713944966987905 -3
    endloop
  endfacet
  facet normal -0.9967864295160269 0.06271248653595425 -0.04983932147580157
    outer loop
      vertex -4.925 0 -3
      vertex -5.034982109170976 0.6360661603388431 0
      vertex -4.886164903973803 0.6172661753041975 -3
    endloop
  endfacet
  facet normal -0.9810665120712087 0.18714844623256843 -0.049839321475801564
    outer loop
      vertex -4.886164903973803 0.6172661753041975 -3
      vertex -5.034982109170976 0.6360661603388431 0
      vertex -4.770272068558508 1.22479769428691 -3
    endloop
  endfacet
  facet normal -0.9498745896703013 0.30863296313502947 -0.04983932147580164
    outer loop
      vertex -4.770272068558508 1.22479769428691 -3
      vertex -4.915559542727803 1.2621011773616384 0
      vertex -4.579149192999639 1.8130134219720384 -3
    endloop
  endfacet
  facet normal -0.9037025775627162 0.42525015384045983 -0.04983932147580143
    outer loop
      vertex -4.579149192999639 1.8130134219720384 -3
      vertex -4.718615665882877 1.8682321048747401 0
      vertex -4.315810399216027 2.3726368449509483 -3
    endloop
  endfacet
  facet normal -0.8432786359612162 0.5351608955876933 -0.04983932147580154
    outer loop
      vertex -4.315810399216027 2.3726368449509483 -3
      vertex -4.4472564012226075 2.4448998960662056 0
      vertex -3.984408697296616 2.8948423675404302 -3
    endloop
  endfacet
  facet normal -0.7695556865203668 0.6366318303218892 -0.04983932147580135
    outer loop
      vertex -3.984408697296616 2.8948423675404302 -3
      vertex -4.105761246452858 2.983010155384301 0
      vertex -3.5901704900504523 3.3713944966987905 -3
    endloop
  endfacet
  facet normal 0 0 -1
    outer loop
      vertex -3.5901704900504523 -3.3713944966987905 -3
      vertex -3.5901704900504523 3.3713944966987905 -3
      vertex -3.1393131495122963 3.7947777206707625 -3
    endloop
  endfacet
  facet normal 0 0 -1
    outer loop
      vertex -3.1393131495122963 -3.7947777206707625 -3
      vertex -3.1393131495122963 3.7947777206707625 -3
      vertex -2.638946965271559 4.1583150330974235 -3
    endloop
  endfacet
  facet normal -0.996786429516027 0.06271248653595377 -0.049839321475801474
    outer loop
      vertex -4.925 0 -3
      vertex -5.075 0 0
      vertex -5.034982109170976 0.6360661603388431 0
    endloop
  endfacet
  facet normal -0.9810665120712088 0.18714844623256804 -0.04983932147580164
    outer loop
      vertex -4.770272068558508 1.22479769428691 -3
      vertex -5.034982109170976 0.6360661603388431 0
      vertex -4.915559542727803 1.2621011773616384 0
    endloop
  endfacet
  facet normal -0.949874589670301 0.30863296313503036 -0.04983932147580144
    outer loop
      vertex -4.579149192999639 1.8130134219720384 -3
      vertex -4.915559542727803 1.2621011773616384 0
      vertex -4.718615665882877 1.8682321048747401 0
    endloop
  endfacet
  facet normal -0.9037025775627163 0.4252501538404593 -0.04983932147580155
    outer loop
      vertex -4.315810399216027 2.3726368449509483 -3
      vertex -4.718615665882877 1.8682321048747401 0
      vertex -4.4472564012226075 2.4448998960662056 0
    endloop
  endfacet
  facet normal -0.8432786359612159 0.5351608955876942 -0.04983932147580136
    outer loop
      vertex -3.984408697296616 2.8948423675404302 -3
      vertex -4.4472564012226075 2.4448998960662056 0
      vertex -4.105761246452858 2.983010155384301 0
    endloop
  endfacet
  facet normal -0.7695556865203673 0.6366318303218886 -0.0498393214758015
    outer loop
      vertex -3.5901704900504523 3.3713944966987905 -3
      vertex -4.105761246452858 2.983010155384301 0
      vertex -3.699515784163664 3.4740765625880945 0
    endloop
  endfacet
  facet normal -0.6836963841928089 0.7280627007864849 -0.04983932147580148
    outer loop
      vertex -3.5901704900504523 3.3713944966987905 -3
      vertex -3.2349267479746002 3.910354707087131 0
      vertex -3.1393131495122963 3.7947777206707625 -3
    endloop
  endfacet
  facet normal -0.5870547814661051 0.8080115875361041 -0.04983932147580148
    outer loop
      vertex -3.1393131495122963 3.7947777206707625 -3
      vertex -2.7193209845184088 4.284964221922726 0
      vertex -2.638946965271559 4.1583150330974235 -3
    endloop
  endfacet
  facet normal -0.6836963841928088 0.7280627007864852 -0.04983932147580153
    outer loop
      vertex -3.5901704900504523 3.3713944966987905 -3
      vertex -3.699515784163664 3.4740765625880945 0
      vertex -3.2349267479746002 3.910354707087131 0
    endloop
  endfacet
  facet normal -0.5870547814661062 0.8080115875361032 -0.04983932147580146
    outer loop
      vertex -3.1393131495122963 3.7947777206707625 -3
      vertex -3.2349267479746002 3.910354707087131 0
      vertex -3.0761400014162064 4.025720031345413 0
    endloop
  endfacet
  facet normal -0.5870547814661048 0.8080115875361042 -0.049839321475801564
    outer loop
      vertex -3.1393131495122963 3.7947777206707625 -3
      vertex -3.0761400014162064 4.025720031345413 0
      vertex -2.7193209845184088 4.284964221922726 0
    endloop
  endfacet
  facet normal 0 0 -1
    outer loop
      vertex -2.638946965271559 -4.1583150330974235 -3
      vertex -2.638946965271559 4.1583150330974235 -3
      vertex -2.096963010957983 4.456273233395145 -3
    endloop
  endfacet
  facet normal 0 0 -1
    outer loop
      vertex -2.0969630109579818 -4.456273233395146 -3
      vertex -2.096963010957983 4.456273233395145 -3
      vertex -1.5219086972966158 4.683953342753631 -3
    endloop
  endfacet
  facet normal 0 0 -1
    outer loop
      vertex -1.5219086972966158 -4.683953342753631 -3
      vertex -1.5219086972966158 4.683953342753631 -3
      vertex -0.9228529743346935 4.837764709838792 -3
    endloop
  endfacet
  facet normal 0 0 -1
    outer loop
      vertex -0.9228529743346947 -4.837764709838791 -3
      vertex -0.9228529743346935 4.837764709838792 -3
      vertex -0.3092433086818679 4.915281637509238 -3
    endloop
  endfacet
  facet normal 0 0 -1
    outer loop
      vertex -0.3092433086818703 -4.915281637509238 -3
      vertex -0.3092433086818679 4.915281637509238 -3
      vertex 0.3092433086818679 4.915281637509238 -3
    endloop
  endfacet
  facet normal -0.4811549741461546 0.8752176488675517 -0.04983932147580144
    outer loop
      vertex -2.638946965271559 4.1583150330974235 -3
      vertex -2.160829904692744 4.591997291265049 0
      vertex -2.096963010957983 4.456273233395145 -3
    endloop
  endfacet
  facet normal -0.36766706545586947 0.9286210050466774 -0.04983932147580148
    outer loop
      vertex -2.096963010957983 4.456273233395145 -3
      vertex -1.568261246452858 4.826611820197904 0
      vertex -1.5219086972966158 4.683953342753631 -3
    endloop
  endfacet
  facet normal -0.24838082750968812 0.9673794532449169 -0.0498393214758013
    outer loop
      vertex -1.5219086972966158 4.683953342753631 -3
      vertex -0.9509601715225522 4.985107797448095 0
      vertex -0.9228529743346935 4.837764709838792 -3
    endloop
  endfacet
  facet normal -0.12517747553816094 0.9908817495810107 -0.049839321475801356
    outer loop
      vertex -0.9228529743346935 4.837764709838792 -3
      vertex -0.3186618866112649 5.064985646773478 0
      vertex -0.3092433086818679 4.915281637509238 -3
    endloop
  endfacet
  facet normal 0 0.998757248802146 -0.04983932147580136
    outer loop
      vertex -0.3092433086818679 4.915281637509238 -3
      vertex -0.3186618866112649 5.064985646773478 0
      vertex 0.3092433086818679 4.915281637509238 -3
    endloop
  endfacet
  facet normal -0.48115497414615443 0.8752176488675517 -0.049839321475801474
    outer loop
      vertex -2.638946965271559 4.1583150330974235 -3
      vertex -2.7193209845184088 4.284964221922726 0
      vertex -2.160829904692744 4.591997291265049 0
    endloop
  endfacet
  facet normal -0.3676670654558696 0.9286210050466773 -0.049839321475801446
    outer loop
      vertex -2.096963010957983 4.456273233395145 -3
      vertex -2.160829904692744 4.591997291265049 0
      vertex -1.568261246452858 4.826611820197904 0
    endloop
  endfacet
  facet normal -0.24838082750968732 0.9673794532449171 -0.04983932147580148
    outer loop
      vertex -1.5219086972966158 4.683953342753631 -3
      vertex -1.568261246452858 4.826611820197904 0
      vertex -0.9509601715225522 4.985107797448095 0
    endloop
  endfacet
  facet normal -0.12517747553816122 0.9908817495810106 -0.0498393214758013
    outer loop
      vertex -0.9228529743346935 4.837764709838792 -3
      vertex -0.9509601715225522 4.985107797448095 0
      vertex -0.3186618866112649 5.064985646773478 0
    endloop
  endfacet
  facet normal 0 0 1
    outer loop
      vertex -5.034982109170976 -0.6360661603388431 0
      vertex -5.034982109170976 0.6360661603388431 0
      vertex -5.075 0 0
    endloop
  endfacet
  facet normal 0 0 1
    outer loop
      vertex -4.915559542727803 -1.2621011773616384 0
      vertex -4.915559542727803 1.2621011773616384 0
      vertex -5.034982109170976 0.6360661603388431 0
    endloop
  endfacet
  facet normal 0 0 1
    outer loop
      vertex -4.718615665882877 -1.8682321048747401 0
      vertex -4.718615665882877 1.8682321048747401 0
      vertex -4.915559542727803 1.2621011773616384 0
    endloop
  endfacet
  facet normal 0 0 1
    outer loop
      vertex -4.4472564012226075 -2.4448998960662056 0
      vertex -4.4472564012226075 2.4448998960662056 0
      vertex -4.718615665882877 1.8682321048747401 0
    endloop
  endfacet
  facet normal 0 0 1
    outer loop
      vertex -4.105761246452858 -2.983010155384301 0
      vertex -4.105761246452858 2.983010155384301 0
      vertex -4.4472564012226075 2.4448998960662056 0
    endloop
  endfacet
  facet normal 0 0 1
    outer loop
      vertex -3.699515784163664 -3.4740765625880945 0
      vertex -3.699515784163664 3.4740765625880945 0
      vertex -4.105761246452858 2.983010155384301 0
    endloop
  endfacet
  facet normal 0 0 1
    outer loop
      vertex -3.2349267479746002 -3.910354707087131 0
      vertex -3.2349267479746002 3.910354707087131 0
      vertex -3.699515784163664 3.4740765625880945 0
    endloop
  endfacet
  facet normal 0 0 1
    outer loop
      vertex -2.7193209845184088 -4.284964221922726 0
      vertex -2.750699996948242 2.939520001411438 0
      vertex -3.0761400014162064 2.939520001411438 0
    endloop
  endfacet
  facet normal 0 0 1
    outer loop
      vertex -2.7193209845184088 -4.284964221922726 0
      vertex -3.0761400014162064 2.939520001411438 0
      vertex -3.2349267479746002 3.910354707087131 0
    endloop
  endfacet
  facet normal 0 0 1
    outer loop
      vertex -3.2349267479746002 3.910354707087131 0
      vertex -3.0761400014162064 2.939520001411438 0
      vertex -3.0761400014162064 4.025720031345413 0
    endloop
  endfacet
  facet normal 0 0 1
    outer loop
      vertex -2.1608299046927426 -4.5919972912650495 0
      vertex -2.441717140376568 2.9362824484705925 0
      vertex -2.750699996948242 2.939520001411438 0
    endloop
  endfacet
  facet normal 0 0 1
    outer loop
      vertex -2.1608299046927426 -4.5919972912650495 0
      vertex -2.16578571498394 2.9265697970986366 0
      vertex -2.441717140376568 2.9362824484705925 0
    endloop
  endfacet
  facet normal 0 0 1
    outer loop
      vertex -1.568261246452858 -4.826611820197904 0
      vertex -1.9229057133197784 2.9103820398449898 0
      vertex -2.16578571498394 2.9265697970986366 0
    endloop
  endfacet
  facet normal 0 0 1
    outer loop
      vertex -1.568261246452858 -4.826611820197904 0
      vertex -1.7130771428346634 2.8877191841602325 0
      vertex -1.9229057133197784 2.9103820398449898 0
    endloop
  endfacet
  facet normal 0 0 1
    outer loop
      vertex -1.568261246452858 -4.826611820197904 0
      vertex -1.536300003528595 2.8585812225937843 0
      vertex -1.7130771428346634 2.8877191841602325 0
    endloop
  endfacet
  facet normal 0 0 1
    outer loop
      vertex -0.9509601715225535 -4.985107797448095 0
      vertex -1.3925742879509926 2.8229681625962257 0
      vertex -1.536300003528595 2.8585812225937843 0
    endloop
  endfacet
  facet normal 0 0 1
    outer loop
      vertex -0.9509601715225535 -4.985107797448095 0
      vertex -1.192950613796711 2.7324808165431023 0
      vertex -1.2819000035524368 2.780879996716976 0
    endloop
  endfacet
  facet normal 0 0 1
    outer loop
      vertex -0.9509601715225535 -4.985107797448095 0
      vertex -1.2819000035524368 2.780879996716976 0
      vertex -1.3925742879509926 2.8229681625962257 0
    endloop
  endfacet
  facet normal 0 0 1
    outer loop
      vertex -0.9509601715225535 -4.985107797448095 0
      vertex -1.114468164741993 2.677934691309929 0
      vertex -1.192950613796711 2.7324808165431023 0
    endloop
  endfacet
  facet normal 0 0 1
    outer loop
      vertex -0.9509601715225535 -4.985107797448095 0
      vertex -1.0464526563882828 2.6172416359186172 0
      vertex -1.114468164741993 2.677934691309929 0
    endloop
  endfacet
  facet normal 0 0 1
    outer loop
      vertex -0.9509601715225535 -4.985107797448095 0
      vertex -0.9889040812849998 2.550401635468006 0
      vertex -1.0464526563882828 2.6172416359186172 0
    endloop
  endfacet
  facet normal 0 0 1
    outer loop
      vertex -0.9509601715225535 -4.985107797448095 0
      vertex -0.9418224468827248 2.477414697408676 0
      vertex -0.9889040812849998 2.550401635468006 0
    endloop
  endfacet
  facet normal 0 -0.998757248802146 -0.04983932147580136
    outer loop
      vertex -0.3092433086818703 -4.915281637509238 -3
      vertex 0.3092433086818703 -4.915281637509238 -3
      vertex 0.3186618866112674 -5.064985646773478 0
    endloop
  endfacet
  facet normal 0.12517747553816258 -0.9908817495810105 -0.049839321475801356
    outer loop
      vertex 0.3092433086818703 -4.915281637509238 -3
      vertex 0.9228529743346947 -4.837764709838791 -3
      vertex 0.3186618866112674 -5.064985646773478 0
    endloop
  endfacet
  facet normal 0.24838082750968726 -0.967379453244917 -0.0498393214758016
    outer loop
      vertex 0.9228529743346947 -4.837764709838791 -3
      vertex 1.5219086972966158 -4.683953342753631 -3
      vertex 0.9509601715225535 -4.985107797448095 0
    endloop
  endfacet
  facet normal 0.3676670654558689 -0.9286210050466776 -0.04983932147580148
    outer loop
      vertex 1.5219086972966158 -4.683953342753631 -3
      vertex 2.0969630109579818 -4.456273233395146 -3
      vertex 1.568261246452858 -4.826611820197904 0
    endloop
  endfacet
  facet normal 0.4811549741461544 -0.8752176488675518 -0.04983932147580143
    outer loop
      vertex 2.0969630109579818 -4.456273233395146 -3
      vertex 2.6389469652715563 -4.158315033097425 -3
      vertex 2.1608299046927426 -4.5919972912650495 0
    endloop
  endfacet
  facet normal 0.12517747553816147 -0.9908817495810106 -0.0498393214758016
    outer loop
      vertex 0.9228529743346947 -4.837764709838791 -3
      vertex 0.9509601715225535 -4.985107797448095 0
      vertex 0.3186618866112674 -5.064985646773478 0
    endloop
  endfacet
  facet normal 0.24838082750968782 -0.967379453244917 -0.04983932147580149
    outer loop
      vertex 1.5219086972966158 -4.683953342753631 -3
      vertex 1.568261246452858 -4.826611820197904 0
      vertex 0.9509601715225535 -4.985107797448095 0
    endloop
  endfacet
  facet normal 0.367667065455869 -0.9286210050466774 -0.049839321475801446
    outer loop
      vertex 2.0969630109579818 -4.456273233395146 -3
      vertex 2.1608299046927426 -4.5919972912650495 0
      vertex 1.568261246452858 -4.826611820197904 0
    endloop
  endfacet
  facet normal 0.4811549741461548 -0.8752176488675517 -0.049839321475801356
    outer loop
      vertex 2.6389469652715563 -4.158315033097425 -3
      vertex 2.4817800000309944 -4.4155534832311325 0
      vertex 2.1608299046927426 -4.5919972912650495 0
    endloop
  endfacet
  facet normal 0 0 -1
    outer loop
      vertex -0.3092433086818703 -4.915281637509238 -3
      vertex 0.3092433086818679 4.915281637509238 -3
      vertex 0.3092433086818703 -4.915281637509238 -3
    endloop
  endfacet
  facet normal 0 0 -1
    outer loop
      vertex 0.3092433086818703 -4.915281637509238 -3
      vertex 0.9228529743346935 4.837764709838792 -3
      vertex 0.9228529743346947 -4.837764709838791 -3
    endloop
  endfacet
  facet normal 0 0 -1
    outer loop
      vertex 0.9228529743346947 -4.837764709838791 -3
      vertex 1.5219086972966158 4.683953342753631 -3
      vertex 1.5219086972966158 -4.683953342753631 -3
    endloop
  endfacet
  facet normal 0 0 -1
    outer loop
      vertex 1.5219086972966158 -4.683953342753631 -3
      vertex 2.096963010957983 4.456273233395145 -3
      vertex 2.0969630109579818 -4.456273233395146 -3
    endloop
  endfacet
  facet normal 0 0 -1
    outer loop
      vertex 2.0969630109579818 -4.456273233395146 -3
      vertex 2.6389469652715585 4.158315033097424 -3
      vertex 2.6389469652715563 -4.158315033097425 -3
    endloop
  endfacet
  facet normal 0.5870547814661055 -0.8080115875361038 -0.04983932147580149
    outer loop
      vertex 2.6389469652715563 -4.158315033097425 -3
      vertex 3.139313149512298 -3.7947777206707607 -3
      vertex 2.719320984518406 -4.284964221922728 0
    endloop
  endfacet
  facet normal 0.6836963841928088 -0.728062700786485 -0.049839321475801474
    outer loop
      vertex 3.139313149512298 -3.7947777206707607 -3
      vertex 3.5901704900504523 -3.3713944966987905 -3
      vertex 3.2349267479746016 -3.9103547070871296 0
    endloop
  endfacet
  facet normal 0.48115497414615355 -0.8752176488675523 -0.04983932147580147
    outer loop
      vertex 2.6389469652715563 -4.158315033097425 -3
      vertex 2.719320984518406 -4.284964221922728 0
      vertex 2.4817800000309944 -4.4155534832311325 0
    endloop
  endfacet
  facet normal 0.5870547814661055 -0.8080115875361038 -0.04983932147580148
    outer loop
      vertex 3.139313149512298 -3.7947777206707607 -3
      vertex 3.2349267479746016 -3.9103547070871296 0
      vertex 2.719320984518406 -4.284964221922728 0
    endloop
  endfacet
  facet normal 0.6836963841928086 -0.7280627007864853 -0.04983932147580153
    outer loop
      vertex 3.5901704900504523 -3.3713944966987905 -3
      vertex 3.699515784163664 -3.4740765625880945 0
      vertex 3.2349267479746016 -3.9103547070871296 0
    endloop
  endfacet
  facet normal 0 0 -1
    outer loop
      vertex 2.6389469652715563 -4.158315033097425 -3
      vertex 3.139313149512297 3.7947777206707616 -3
      vertex 3.139313149512298 -3.7947777206707607 -3
    endloop
  endfacet
  facet normal 0 0 -1
    outer loop
      vertex 3.139313149512298 -3.7947777206707607 -3
      vertex 3.590170490050452 3.371394496698792 -3
      vertex 3.5901704900504523 -3.3713944966987905 -3
    endloop
  endfacet
  facet normal 0.7695556865203668 -0.6366318303218892 -0.04983932147580135
    outer loop
      vertex 3.5901704900504523 -3.3713944966987905 -3
      vertex 3.984408697296616 -2.8948423675404302 -3
      vertex 4.105761246452858 -2.983010155384301 0
    endloop
  endfacet
  facet normal 0.8432786359612162 -0.5351608955876933 -0.04983932147580154
    outer loop
      vertex 3.984408697296616 -2.8948423675404302 -3
      vertex 4.315810399216027 -2.3726368449509483 -3
      vertex 4.4472564012226075 -2.4448998960662056 0
    endloop
  endfacet
  facet normal 0.9037025775627165 -0.425250153840459 -0.04983932147580146
    outer loop
      vertex 4.315810399216027 -2.3726368449509483 -3
      vertex 4.579149192999637 -1.8130134219720409 -3
      vertex 4.718615665882875 -1.8682321048747428 0
    endloop
  endfacet
  facet normal 0 0 -1
    outer loop
      vertex 3.5901704900504523 -3.3713944966987905 -3
      vertex 3.984408697296616 2.8948423675404302 -3
      vertex 3.984408697296616 -2.8948423675404302 -3
    endloop
  endfacet
  facet normal 0 0 -1
    outer loop
      vertex 3.984408697296616 -2.8948423675404302 -3
      vertex 4.315810399216028 2.372636844950948 -3
      vertex 4.315810399216027 -2.3726368449509483 -3
    endloop
  endfacet
  facet normal 0 0 -1
    outer loop
      vertex 4.315810399216027 -2.3726368449509483 -3
      vertex 4.579149192999638 1.8130134219720389 -3
      vertex 4.579149192999637 -1.8130134219720409 -3
    endloop
  endfacet
  facet normal 0 0 -1
    outer loop
      vertex 4.579149192999637 -1.8130134219720409 -3
      vertex 4.770272068558508 1.2247976942869099 -3
      vertex 4.7702720685585085 -1.224797694286908 -3
    endloop
  endfacet
  facet normal 0 0 -1
    outer loop
      vertex 4.7702720685585085 -1.224797694286908 -3
      vertex 4.886164903973803 0.6172661753041985 -3
      vertex 4.886164903973803 -0.6172661753041975 -3
    endloop
  endfacet
  facet normal 0.9498745896703007 -0.30863296313503125 -0.049839321475801356
    outer loop
      vertex 4.579149192999637 -1.8130134219720409 -3
      vertex 4.7702720685585085 -1.224797694286908 -3
      vertex 4.915559542727803 -1.2621011773616364 0
    endloop
  endfacet
  facet normal 0.9810665120712089 -0.18714844623256763 -0.04983932147580157
    outer loop
      vertex 4.7702720685585085 -1.224797694286908 -3
      vertex 4.886164903973803 -0.6172661753041975 -3
      vertex 5.034982109170976 -0.6360661603388431 0
    endloop
  endfacet
  facet normal 0.9967864295160269 -0.06271248653595425 -0.04983932147580147
    outer loop
      vertex 4.886164903973803 -0.6172661753041975 -3
      vertex 4.925 0 -3
      vertex 5.075 0 0
    endloop
  endfacet
  facet normal 0.7695556865203673 -0.6366318303218886 -0.0498393214758015
    outer loop
      vertex 3.5901704900504523 -3.3713944966987905 -3
      vertex 4.105761246452858 -2.983010155384301 0
      vertex 3.699515784163664 -3.4740765625880945 0
    endloop
  endfacet
  facet normal 0.8432786359612159 -0.5351608955876942 -0.04983932147580136
    outer loop
      vertex 3.984408697296616 -2.8948423675404302 -3
      vertex 4.4472564012226075 -2.4448998960662056 0
      vertex 4.105761246452858 -2.983010155384301 0
    endloop
  endfacet
  facet normal 0.9037025775627168 -0.42525015384045867 -0.04983932147580156
    outer loop
      vertex 4.315810399216027 -2.3726368449509483 -3
      vertex 4.718615665882875 -1.8682321048747428 0
      vertex 4.4472564012226075 -2.4448998960662056 0
    endloop
  endfacet
  facet normal 0.9498745896703009 -0.30863296313503075 -0.04983932147580146
    outer loop
      vertex 4.579149192999637 -1.8130134219720409 -3
      vertex 4.915559542727803 -1.2621011773616364 0
      vertex 4.718615665882875 -1.8682321048747428 0
    endloop
  endfacet
  facet normal 0.9810665120712088 -0.18714844623256865 -0.049839321475801356
    outer loop
      vertex 4.7702720685585085 -1.224797694286908 -3
      vertex 5.034982109170976 -0.6360661603388431 0
      vertex 4.915559542727803 -1.2621011773616364 0
    endloop
  endfacet
  facet normal 0.996786429516027 -0.06271248653595377 -0.049839321475801564
    outer loop
      vertex 4.886164903973803 -0.6172661753041975 -3
      vertex 5.075 0 0
      vertex 5.034982109170976 -0.6360661603388431 0
    endloop
  endfacet
  facet normal 0 0 1
    outer loop
      vertex 2.719320984518406 -4.284964221922728 0
      vertex 2.7193209845184083 4.284964221922727 0
      vertex 2.4817800000309944 -4.4155534832311325 0
    endloop
  endfacet
  facet normal 0 0 1
    outer loop
      vertex 2.719320984518406 -4.284964221922728 0
      vertex 3.2349267479746016 -3.9103547070871296 0
      vertex 2.7193209845184083 4.284964221922727 0
    endloop
  endfacet
  facet normal 0 0 1
    outer loop
      vertex 3.2349267479746016 -3.9103547070871296 0
      vertex 3.699515784163664 -3.4740765625880945 0
      vertex 3.2349267479746007 3.91035470708713 0
    endloop
  endfacet
  facet normal 0 0 1
    outer loop
      vertex 3.699515784163664 -3.4740765625880945 0
      vertex 4.105761246452858 -2.983010155384301 0
      vertex 3.6995157841636637 3.4740765625880954 0
    endloop
  endfacet
  facet normal 0 0 1
    outer loop
      vertex 4.105761246452858 -2.983010155384301 0
      vertex 4.4472564012226075 -2.4448998960662056 0
      vertex 4.105761246452858 2.983010155384301 0
    endloop
  endfacet
  facet normal 0 0 1
    outer loop
      vertex 4.4472564012226075 -2.4448998960662056 0
      vertex 4.718615665882875 -1.8682321048747428 0
      vertex 4.4472564012226075 2.444899896066205 0
    endloop
  endfacet
  facet normal 0 0 1
    outer loop
      vertex 4.718615665882875 -1.8682321048747428 0
      vertex 4.915559542727803 -1.2621011773616364 0
      vertex 4.718615665882876 1.8682321048747408 0
    endloop
  endfacet
  facet normal 0 0 1
    outer loop
      vertex 4.915559542727803 -1.2621011773616364 0
      vertex 5.034982109170976 -0.6360661603388431 0
      vertex 4.915559542727803 1.2621011773616382 0
    endloop
  endfacet
  facet normal 0 0 -1
    outer loop
      vertex 0.3092433086818703 -4.915281637509238 -3
      vertex 0.3092433086818679 4.915281637509238 -3
      vertex 0.9228529743346935 4.837764709838792 -3
    endloop
  endfacet
  facet normal 0 0 -1
    outer loop
      vertex 0.9228529743346947 -4.837764709838791 -3
      vertex 0.9228529743346935 4.837764709838792 -3
      vertex 1.5219086972966158 4.683953342753631 -3
    endloop
  endfacet
  facet normal 0 0 -1
    outer loop
      vertex 1.5219086972966158 -4.683953342753631 -3
      vertex 1.5219086972966158 4.683953342753631 -3
      vertex 2.096963010957983 4.456273233395145 -3
    endloop
  endfacet
  facet normal 0 0 -1
    outer loop
      vertex 2.0969630109579818 -4.456273233395146 -3
      vertex 2.096963010957983 4.456273233395145 -3
      vertex 2.6389469652715585 4.158315033097424 -3
    endloop
  endfacet
  facet normal 0.24838082750968812 0.9673794532449169 -0.049839321475801286
    outer loop
      vertex 0.9228529743346935 4.837764709838792 -3
      vertex 0.9509601715225522 4.985107797448095 0
      vertex 1.5219086972966158 4.683953342753631 -3
    endloop
  endfacet
  facet normal 0.12517747553816094 0.9908817495810107 -0.04983932147580136
    outer loop
      vertex 0.3092433086818679 4.915281637509238 -3
      vertex 0.3186618866112649 5.064985646773478 0
      vertex 0.9228529743346935 4.837764709838792 -3
    endloop
  endfacet
  facet normal 0.36766706545586947 0.9286210050466774 -0.04983932147580148
    outer loop
      vertex 1.5219086972966158 4.683953342753631 -3
      vertex 1.568261246452858 4.826611820197904 0
      vertex 2.096963010957983 4.456273233395145 -3
    endloop
  endfacet
  facet normal 0.4811549741461538 0.8752176488675522 -0.04983932147580144
    outer loop
      vertex 2.096963010957983 4.456273233395145 -3
      vertex 2.160829904692744 4.591997291265049 0
      vertex 2.6389469652715585 4.158315033097424 -3
    endloop
  endfacet
  facet normal 0 0.9987572488021459 -0.049839321475801356
    outer loop
      vertex 0.3092433086818679 4.915281637509238 -3
      vertex -0.3186618866112649 5.064985646773478 0
      vertex 0.3186618866112649 5.064985646773478 0
    endloop
  endfacet
  facet normal 0.12517747553816122 0.9908817495810106 -0.0498393214758013
    outer loop
      vertex 0.9228529743346935 4.837764709838792 -3
      vertex 0.3186618866112649 5.064985646773478 0
      vertex 0.9509601715225522 4.985107797448095 0
    endloop
  endfacet
  facet normal 0.24838082750968732 0.9673794532449171 -0.04983932147580148
    outer loop
      vertex 1.5219086972966158 4.683953342753631 -3
      vertex 0.9509601715225522 4.985107797448095 0
      vertex 1.568261246452858 4.826611820197904 0
    endloop
  endfacet
  facet normal 0.3676670654558696 0.9286210050466773 -0.049839321475801446
    outer loop
      vertex 2.096963010957983 4.456273233395145 -3
      vertex 1.568261246452858 4.826611820197904 0
      vertex 2.160829904692744 4.591997291265049 0
    endloop
  endfacet
  facet normal 0.48115497414615443 0.8752176488675517 -0.049839321475801286
    outer loop
      vertex 2.6389469652715585 4.158315033097424 -3
      vertex 2.160829904692744 4.591997291265049 0
      vertex 2.4817800000309944 4.4155534832311325 0
    endloop
  endfacet
  facet normal 0 0 -1
    outer loop
      vertex 2.6389469652715563 -4.158315033097425 -3
      vertex 2.6389469652715585 4.158315033097424 -3
      vertex 3.139313149512297 3.7947777206707616 -3
    endloop
  endfacet
  facet normal 0 0 -1
    outer loop
      vertex 3.139313149512298 -3.7947777206707607 -3
      vertex 3.139313149512297 3.7947777206707616 -3
      vertex 3.590170490050452 3.371394496698792 -3
    endloop
  endfacet
  facet normal 0 0 -1
    outer loop
      vertex 3.5901704900504523 -3.3713944966987905 -3
      vertex 3.590170490050452 3.371394496698792 -3
      vertex 3.984408697296616 2.8948423675404302 -3
    endloop
  endfacet
  facet normal 0 0 -1
    outer loop
      vertex 3.984408697296616 -2.8948423675404302 -3
      vertex 3.984408697296616 2.8948423675404302 -3
      vertex 4.315810399216028 2.372636844950948 -3
    endloop
  endfacet
  facet normal 0 0 -1
    outer loop
      vertex 4.315810399216027 -2.3726368449509483 -3
      vertex 4.315810399216028 2.372636844950948 -3
      vertex 4.579149192999638 1.8130134219720389 -3
    endloop
  endfacet
  facet normal 0 0 -1
    outer loop
      vertex 4.579149192999637 -1.8130134219720409 -3
      vertex 4.579149192999638 1.8130134219720389 -3
      vertex 4.770272068558508 1.2247976942869099 -3
    endloop
  endfacet
  facet normal 0 0 -1
    outer loop
      vertex 4.886164903973803 -0.6172661753041975 -3
      vertex 4.886164903973803 0.6172661753041985 -3
      vertex 4.925 0 -3
    endloop
  endfacet
  facet normal 0 0 -1
    outer loop
      vertex 4.7702720685585085 -1.224797694286908 -3
      vertex 4.770272068558508 1.2247976942869099 -3
      vertex 4.886164903973803 0.6172661753041985 -3
    endloop
  endfacet
  facet normal 0.996786429516027 0.06271248653595415 -0.049839321475801474
    outer loop
      vertex 4.925 0 -3
      vertex 4.886164903973803 0.6172661753041985 -3
      vertex 5.075 0 0
    endloop
  endfacet
  facet normal 0.949874589670301 0.3086329631350304 -0.04983932147580164
    outer loop
      vertex 4.770272068558508 1.2247976942869099 -3
      vertex 4.579149192999638 1.8130134219720389 -3
      vertex 4.915559542727803 1.2621011773616382 0
    endloop
  endfacet
  facet normal 0.9810665120712087 0.1871484462325688 -0.049839321475801564
    outer loop
      vertex 4.886164903973803 0.6172661753041985 -3
      vertex 4.770272068558508 1.2247976942869099 -3
      vertex 5.034982109170976 0.6360661603388441 0
    endloop
  endfacet
  facet normal 0.7695556865203673 0.6366318303218885 -0.04983932147580134
    outer loop
      vertex 3.590170490050452 3.371394496698792 -3
      vertex 4.105761246452858 2.983010155384301 0
      vertex 3.984408697296616 2.8948423675404302 -3
    endloop
  endfacet
  facet normal 0.8432786359612159 0.5351608955876941 -0.04983932147580128
    outer loop
      vertex 4.315810399216028 2.372636844950948 -3
      vertex 3.984408697296616 2.8948423675404302 -3
      vertex 4.4472564012226075 2.444899896066205 0
    endloop
  endfacet
  facet normal 0.903702577562717 0.42525015384045806 -0.04983932147580147
    outer loop
      vertex 4.315810399216028 2.372636844950948 -3
      vertex 4.718615665882876 1.8682321048747408 0
      vertex 4.579149192999638 1.8130134219720389 -3
    endloop
  endfacet
  facet normal 0.7695556865203675 0.6366318303218884 -0.04983932147580142
    outer loop
      vertex 3.590170490050452 3.371394496698792 -3
      vertex 3.6995157841636637 3.4740765625880954 0
      vertex 4.105761246452858 2.983010155384301 0
    endloop
  endfacet
  facet normal 0.996786429516027 0.06271248653595367 -0.04983932147580157
    outer loop
      vertex 4.886164903973803 0.6172661753041985 -3
      vertex 5.034982109170976 0.6360661603388441 0
      vertex 5.075 0 0
    endloop
  endfacet
  facet normal 0.9810665120712087 0.1871484462325684 -0.04983932147580165
    outer loop
      vertex 4.770272068558508 1.2247976942869099 -3
      vertex 4.915559542727803 1.2621011773616382 0
      vertex 5.034982109170976 0.6360661603388441 0
    endloop
  endfacet
  facet normal 0.8432786359612161 0.5351608955876939 -0.04983932147580136
    outer loop
      vertex 3.984408697296616 2.8948423675404302 -3
      vertex 4.105761246452858 2.983010155384301 0
      vertex 4.4472564012226075 2.444899896066205 0
    endloop
  endfacet
  facet normal 0.9498745896703008 0.30863296313503125 -0.04983932147580146
    outer loop
      vertex 4.579149192999638 1.8130134219720389 -3
      vertex 4.718615665882876 1.8682321048747408 0
      vertex 4.915559542727803 1.2621011773616382 0
    endloop
  endfacet
  facet normal 0.9037025775627167 0.4252501538404589 -0.049839321475801286
    outer loop
      vertex 4.315810399216028 2.372636844950948 -3
      vertex 4.4472564012226075 2.444899896066205 0
      vertex 4.718615665882876 1.8682321048747408 0
    endloop
  endfacet
  facet normal 0.5870547814661063 0.8080115875361032 -0.04983932147580149
    outer loop
      vertex 3.139313149512297 3.7947777206707616 -3
      vertex 2.6389469652715585 4.158315033097424 -3
      vertex 2.7193209845184083 4.284964221922727 0
    endloop
  endfacet
  facet normal 0.6836963841928076 0.728062700786486 -0.049839321475801474
    outer loop
      vertex 3.139313149512297 3.7947777206707616 -3
      vertex 3.2349267479746007 3.91035470708713 0
      vertex 3.590170490050452 3.371394496698792 -3
    endloop
  endfacet
  facet normal 0.5870547814661065 0.8080115875361032 -0.04983932147580147
    outer loop
      vertex 3.139313149512297 3.7947777206707616 -3
      vertex 2.7193209845184083 4.284964221922727 0
      vertex 3.2349267479746007 3.91035470708713 0
    endloop
  endfacet
  facet normal 0.4811549741461526 0.8752176488675528 -0.049839321475801474
    outer loop
      vertex 2.6389469652715585 4.158315033097424 -3
      vertex 2.4817800000309944 4.4155534832311325 0
      vertex 2.7193209845184083 4.284964221922727 0
    endloop
  endfacet
  facet normal 0.6836963841928079 0.7280627007864859 -0.04983932147580142
    outer loop
      vertex 3.590170490050452 3.371394496698792 -3
      vertex 3.2349267479746007 3.91035470708713 0
      vertex 3.6995157841636637 3.4740765625880954 0
    endloop
  endfacet
  facet normal 0 0 1
    outer loop
      vertex 2.7193209845184083 4.284964221922727 0
      vertex 2.4817800000309944 4.4155534832311325 0
      vertex 2.4817800000309944 -4.4155534832311325 0
    endloop
  endfacet
  facet normal 0 0 1
    outer loop
      vertex 3.2349267479746016 -3.9103547070871296 0
      vertex 3.2349267479746007 3.91035470708713 0
      vertex 2.7193209845184083 4.284964221922727 0
    endloop
  endfacet
  facet normal 0 0 1
    outer loop
      vertex 3.699515784163664 -3.4740765625880945 0
      vertex 3.6995157841636637 3.4740765625880954 0
      vertex 3.2349267479746007 3.91035470708713 0
    endloop
  endfacet
  facet normal 0 0 1
    outer loop
      vertex 4.105761246452858 -2.983010155384301 0
      vertex 4.105761246452858 2.983010155384301 0
      vertex 3.6995157841636637 3.4740765625880954 0
    endloop
  endfacet
  facet normal 0 0 1
    outer loop
      vertex 4.4472564012226075 -2.4448998960662056 0
      vertex 4.4472564012226075 2.444899896066205 0
      vertex 4.105761246452858 2.983010155384301 0
    endloop
  endfacet
  facet normal 0 0 1
    outer loop
      vertex 4.718615665882875 -1.8682321048747428 0
      vertex 4.718615665882876 1.8682321048747408 0
      vertex 4.4472564012226075 2.444899896066205 0
    endloop
  endfacet
  facet normal 0 0 1
    outer loop
      vertex 5.034982109170976 -0.6360661603388431 0
      vertex 5.075 0 0
      vertex 5.034982109170976 0.6360661603388441 0
    endloop
  endfacet
  facet normal 0 0 1
    outer loop
      vertex 4.915559542727803 -1.2621011773616364 0
      vertex 4.915559542727803 1.2621011773616382 0
      vertex 4.718615665882876 1.8682321048747408 0
    endloop
  endfacet
  facet normal 0 0 1
    outer loop
      vertex 5.034982109170976 -0.6360661603388431 0
      vertex 5.034982109170976 0.6360661603388441 0
      vertex 4.915559542727803 1.2621011773616382 0
    endloop
  endfacet
  facet normal 0 0 -1
    outer loop
      vertex -0.8058599978685379 -6.589440003037453 0
      vertex -0.8058599978685379 -5.00343821219823 0
      vertex -0.3186618866112674 -5.064985646773478 0
    endloop
  endfacet
  facet normal 0 0 -1
    outer loop
      vertex -0.8058599978685379 -6.589440003037453 0
      vertex -0.3186618866112674 -5.064985646773478 0
      vertex 0.3186618866112674 -5.064985646773478 0
    endloop
  endfacet
  facet normal -1 0 0
    outer loop
      vertex -0.8058599978685379 -6.589440003037453 0
      vertex -0.8058599978685379 0.47388000041246414 2
      vertex -0.8058599978685379 -5.00343821219823 0
    endloop
  endfacet
  facet normal -1 0 0
    outer loop
      vertex -0.8058599978685379 -6.589440003037453 0
      vertex -0.8058599978685379 -6.589440003037453 2
      vertex -0.8058599978685379 0.47388000041246414 2
    endloop
  endfacet
  facet normal -1 0 0
    outer loop
      vertex -0.8058599978685379 0.47388000041246414 2
      vertex -0.8058599978685379 0.47388000041246414 0
      vertex -0.8058599978685379 -5.00343821219823 0
    endloop
  endfacet
  facet normal 0 -1 0
    outer loop
      vertex -3.0761400014162064 2.939520001411438 2
      vertex -3.0761400014162064 2.939520001411438 0
      vertex -2.750699996948242 2.939520001411438 0
    endloop
  endfacet
  facet normal -0.01047752378571469 -0.9999451092411621 0
    outer loop
      vertex -2.750699996948242 2.939520001411438 2
      vertex -2.750699996948242 2.939520001411438 0
      vertex -2.441717140376568 2.9362824484705925 0
    endloop
  endfacet
  facet normal 0 -1 0
    outer loop
      vertex -3.0761400014162064 2.939520001411438 2
      vertex -2.750699996948242 2.939520001411438 0
      vertex -2.750699996948242 2.939520001411438 2
    endloop
  endfacet
  facet normal -0.01047752378571469 -0.9999451092411621 0
    outer loop
      vertex -2.750699996948242 2.939520001411438 2
      vertex -2.441717140376568 2.9362824484705925 0
      vertex -2.441717140376568 2.9362824484705925 2
    endloop
  endfacet
  facet normal 0 0 -1
    outer loop
      vertex -3.0761400014162064 4.477559998631477 0
      vertex -2.7193209845184088 4.284964221922726 0
      vertex -3.0761400014162064 4.025720031345413 0
    endloop
  endfacet
  facet normal 0 0 -1
    outer loop
      vertex -3.0761400014162064 4.477559998631477 0
      vertex -2.160829904692744 4.591997291265049 0
      vertex -2.7193209845184088 4.284964221922726 0
    endloop
  endfacet
  facet normal 0 0 -1
    outer loop
      vertex -3.0761400014162064 4.477559998631477 0
      vertex -2.4183342829346657 4.64611592143774 0
      vertex -2.160829904692744 4.591997291265049 0
    endloop
  endfacet
  facet normal -1 0 0
    outer loop
      vertex -3.0761400014162064 4.477559998631477 2
      vertex -3.0761400014162064 4.025720031345413 0
      vertex -3.0761400014162064 2.939520001411438 0
    endloop
  endfacet
  facet normal -1 0 0
    outer loop
      vertex -3.0761400014162064 4.477559998631477 0
      vertex -3.0761400014162064 4.025720031345413 0
      vertex -3.0761400014162064 4.477559998631477 2
    endloop
  endfacet
  facet normal -0.24822029715813107 0.9687036100266836 0
    outer loop
      vertex -3.0761400014162064 4.477559998631477 0
      vertex -2.4183342829346657 4.64611592143774 2
      vertex -2.4183342829346657 4.64611592143774 0
    endloop
  endfacet
  facet normal -1 0 0
    outer loop
      vertex -3.0761400014162064 2.939520001411438 2
      vertex -3.0761400014162064 4.477559998631477 2
      vertex -3.0761400014162064 2.939520001411438 0
    endloop
  endfacet
  facet normal -0.24822029715813107 0.9687036100266836 0
    outer loop
      vertex -3.0761400014162064 4.477559998631477 0
      vertex -3.0761400014162064 4.477559998631477 2
      vertex -2.4183342829346657 4.64611592143774 2
    endloop
  endfacet
  facet normal 0 0 1
    outer loop
      vertex -3.0761400014162064 2.939520001411438 2
      vertex -2.750699996948242 2.939520001411438 2
      vertex -3.0761400014162064 4.477559998631477 2
    endloop
  endfacet
  facet normal 0 0 1
    outer loop
      vertex -2.750699996948242 2.939520001411438 2
      vertex -2.4183342829346657 4.64611592143774 2
      vertex -3.0761400014162064 4.477559998631477 2
    endloop
  endfacet
  facet normal -0.0351777255126234 -0.9993810722781168 0
    outer loop
      vertex -2.441717140376568 2.9362824484705925 2
      vertex -2.441717140376568 2.9362824484705925 0
      vertex -2.16578571498394 2.9265697970986366 0
    endloop
  endfacet
  facet normal -0.06650165736495209 -0.997786314582293 0
    outer loop
      vertex -2.16578571498394 2.9265697970986366 2
      vertex -2.16578571498394 2.9265697970986366 0
      vertex -1.9229057133197784 2.9103820398449898 0
    endloop
  endfacet
  facet normal -0.16263432519247226 -0.9866864123262209 0
    outer loop
      vertex -1.7130771428346634 2.8877191841602325 2
      vertex -1.7130771428346634 2.8877191841602325 0
      vertex -1.536300003528595 2.8585812225937843 0
    endloop
  endfacet
  facet normal -0.10738201784522144 -0.9942178344022443 0
    outer loop
      vertex -1.9229057133197784 2.9103820398449898 2
      vertex -1.9229057133197784 2.9103820398449898 0
      vertex -1.7130771428346634 2.8877191841602325 0
    endloop
  endfacet
  facet normal -0.24051148088993243 -0.9706462937446017 0
    outer loop
      vertex -1.536300003528595 2.8585812225937843 2
      vertex -1.536300003528595 2.8585812225937843 0
      vertex -1.3925742879509926 2.8229681625962257 0
    endloop
  endfacet
  facet normal -0.35545344412090685 -0.9346939868548344 0
    outer loop
      vertex -1.3925742879509926 2.8229681625962257 2
      vertex -1.3925742879509926 2.8229681625962257 0
      vertex -1.2819000035524368 2.780879996716976 0
    endloop
  endfacet
  facet normal -0.9999934327196425 -0.0036241575001257935 0
    outer loop
      vertex -0.8073538765311241 0.8860775530338287 2
      vertex -0.8073538765311241 0.8860775530338287 0
      vertex -0.8058599978685379 0.47388000041246414 0
    endloop
  endfacet
  facet normal -0.9999235327136902 -0.01236643543524037 0
    outer loop
      vertex -0.8118355125188828 1.2484530583024025 2
      vertex -0.8118355125188828 1.2484530583024025 0
      vertex -0.8073538765311241 0.8860775530338287 0
    endloop
  endfacet
  facet normal -0.9997145663552746 -0.02389112423234319 0
    outer loop
      vertex -0.8193048983812332 1.5610065311193466 2
      vertex -0.8193048983812332 1.5610065311193466 0
      vertex -0.8118355125188828 1.2484530583024025 0
    endloop
  endfacet
  facet normal -0.9992088543466514 -0.0397701570936335 0
    outer loop
      vertex -0.8297620415687561 1.8237379565835 2
      vertex -0.8297620415687561 1.8237379565835 0
      vertex -0.8193048983812332 1.5610065311193466 0
    endloop
  endfacet
  facet normal -0.9980120794265382 -0.0630229269291501 0
    outer loop
      vertex -0.8432069420814514 2.0366473495960236 2
      vertex -0.8432069420814514 2.0366473495960236 0
      vertex -0.8297620415687561 1.8237379565835 0
    endloop
  endfacet
  facet normal -0.9949620587150143 -0.10025219058744031 0
    outer loop
      vertex -0.8596395924687386 2.1997346952557564 2
      vertex -0.8596395924687386 2.1997346952557564 0
      vertex -0.8432069420814514 2.0366473495960236 0
    endloop
  endfacet
  facet normal -0.985617184993689 -0.16899338639460526 0
    outer loop
      vertex -0.8790600001811981 2.313000001013279 2
      vertex -0.8790600001811981 2.313000001013279 0
      vertex -0.8596395924687386 2.1997346952557564 0
    endloop
  endfacet
  facet normal -0.907560293782424 -0.4199217940873756 0
    outer loop
      vertex -0.9418224468827248 2.477414697408676 2
      vertex -0.9418224468827248 2.477414697408676 0
      vertex -0.9052077531814575 2.3982808142900467 0
    endloop
  endfacet
  facet normal -0.9560700125645201 -0.293138416238606 0
    outer loop
      vertex -0.9052077531814575 2.3982808142900467 2
      vertex -0.9052077531814575 2.3982808142900467 0
      vertex -0.8790600001811981 2.313000001013279 0
    endloop
  endfacet
  facet normal -0.4779487155942554 -0.878387741980614 0
    outer loop
      vertex -1.2819000035524368 2.780879996716976 2
      vertex -1.2819000035524368 2.780879996716976 0
      vertex -1.192950613796711 2.7324808165431023 0
    endloop
  endfacet
  facet normal -0.5707093500338483 -0.8211521404611587 0
    outer loop
      vertex -1.192950613796711 2.7324808165431023 2
      vertex -1.192950613796711 2.7324808165431023 0
      vertex -1.114468164741993 2.677934691309929 0
    endloop
  endfacet
  facet normal -0.6658016332288883 -0.7461287993300788 0
    outer loop
      vertex -1.114468164741993 2.677934691309929 2
      vertex -1.114468164741993 2.677934691309929 0
      vertex -1.0464526563882828 2.6172416359186172 0
    endloop
  endfacet
  facet normal -0.8403318542292185 -0.5420722966244295 0
    outer loop
      vertex -0.9889040812849998 2.550401635468006 2
      vertex -0.9889040812849998 2.550401635468006 0
      vertex -0.9418224468827248 2.477414697408676 0
    endloop
  endfacet
  facet normal -0.757814164609356 -0.6524704529075808 0
    outer loop
      vertex -1.0464526563882828 2.6172416359186172 2
      vertex -1.0464526563882828 2.6172416359186172 0
      vertex -0.9889040812849998 2.550401635468006 0
    endloop
  endfacet
  facet normal -0.0351777255126234 -0.9993810722781168 0
    outer loop
      vertex -2.441717140376568 2.9362824484705925 2
      vertex -2.16578571498394 2.9265697970986366 0
      vertex -2.16578571498394 2.9265697970986366 2
    endloop
  endfacet
  facet normal -0.06650165736495209 -0.997786314582293 0
    outer loop
      vertex -2.16578571498394 2.9265697970986366 2
      vertex -1.9229057133197784 2.9103820398449898 0
      vertex -1.9229057133197784 2.9103820398449898 2
    endloop
  endfacet
  facet normal -0.16263432519247226 -0.9866864123262209 0
    outer loop
      vertex -1.7130771428346634 2.8877191841602325 2
      vertex -1.536300003528595 2.8585812225937843 0
      vertex -1.536300003528595 2.8585812225937843 2
    endloop
  endfacet
  facet normal -0.10738201784522144 -0.9942178344022443 0
    outer loop
      vertex -1.9229057133197784 2.9103820398449898 2
      vertex -1.7130771428346634 2.8877191841602325 0
      vertex -1.7130771428346634 2.8877191841602325 2
    endloop
  endfacet
  facet normal -0.24051148088993243 -0.9706462937446017 0
    outer loop
      vertex -1.536300003528595 2.8585812225937843 2
      vertex -1.3925742879509926 2.8229681625962257 0
      vertex -1.3925742879509926 2.8229681625962257 2
    endloop
  endfacet
  facet normal -0.35545344412090685 -0.9346939868548344 0
    outer loop
      vertex -1.3925742879509926 2.8229681625962257 2
      vertex -1.2819000035524368 2.780879996716976 0
      vertex -1.2819000035524368 2.780879996716976 2
    endloop
  endfacet
  facet normal -0.9999934327196425 -0.0036241575001257935 0
    outer loop
      vertex -0.8058599978685379 0.47388000041246414 2
      vertex -0.8073538765311241 0.8860775530338287 2
      vertex -0.8058599978685379 0.47388000041246414 0
    endloop
  endfacet
  facet normal -0.9999235327136902 -0.01236643543524037 0
    outer loop
      vertex -0.8073538765311241 0.8860775530338287 2
      vertex -0.8118355125188828 1.2484530583024025 2
      vertex -0.8073538765311241 0.8860775530338287 0
    endloop
  endfacet
  facet normal -0.9997145663552746 -0.02389112423234319 0
    outer loop
      vertex -0.8193048983812332 1.5610065311193466 2
      vertex -0.8118355125188828 1.2484530583024025 0
      vertex -0.8118355125188828 1.2484530583024025 2
    endloop
  endfacet
  facet normal -0.9992088543466514 -0.0397701570936335 0
    outer loop
      vertex -0.8193048983812332 1.5610065311193466 2
      vertex -0.8297620415687561 1.8237379565835 2
      vertex -0.8193048983812332 1.5610065311193466 0
    endloop
  endfacet
  facet normal -0.9980120794265382 -0.0630229269291501 0
    outer loop
      vertex -0.8297620415687561 1.8237379565835 2
      vertex -0.8432069420814514 2.0366473495960236 2
      vertex -0.8297620415687561 1.8237379565835 0
    endloop
  endfacet
  facet normal -0.9949620587150143 -0.10025219058744031 0
    outer loop
      vertex -0.8432069420814514 2.0366473495960236 2
      vertex -0.8596395924687386 2.1997346952557564 2
      vertex -0.8432069420814514 2.0366473495960236 0
    endloop
  endfacet
  facet normal -0.985617184993689 -0.16899338639460526 0
    outer loop
      vertex -0.8596395924687386 2.1997346952557564 2
      vertex -0.8790600001811981 2.313000001013279 2
      vertex -0.8596395924687386 2.1997346952557564 0
    endloop
  endfacet
  facet normal -0.9560700125645201 -0.293138416238606 0
    outer loop
      vertex -0.9052077531814575 2.3982808142900467 2
      vertex -0.8790600001811981 2.313000001013279 0
      vertex -0.8790600001811981 2.313000001013279 2
    endloop
  endfacet
  facet normal -0.907560293782424 -0.4199217940873756 0
    outer loop
      vertex -0.9052077531814575 2.3982808142900467 2
      vertex -0.9418224468827248 2.477414697408676 2
      vertex -0.9052077531814575 2.3982808142900467 0
    endloop
  endfacet
  facet normal -0.4779487155942554 -0.878387741980614 0
    outer loop
      vertex -1.2819000035524368 2.780879996716976 2
      vertex -1.192950613796711 2.7324808165431023 0
      vertex -1.192950613796711 2.7324808165431023 2
    endloop
  endfacet
  facet normal -0.5707093500338483 -0.8211521404611587 0
    outer loop
      vertex -1.192950613796711 2.7324808165431023 2
      vertex -1.114468164741993 2.677934691309929 0
      vertex -1.114468164741993 2.677934691309929 2
    endloop
  endfacet
  facet normal -0.6658016332288883 -0.7461287993300788 0
    outer loop
      vertex -1.114468164741993 2.677934691309929 2
      vertex -1.0464526563882828 2.6172416359186172 0
      vertex -1.0464526563882828 2.6172416359186172 2
    endloop
  endfacet
  facet normal -0.8403318542292185 -0.5420722966244295 0
    outer loop
      vertex -0.9889040812849998 2.550401635468006 2
      vertex -0.9418224468827248 2.477414697408676 0
      vertex -0.9418224468827248 2.477414697408676 2
    endloop
  endfacet
  facet normal -0.757814164609356 -0.6524704529075808 0
    outer loop
      vertex -1.0464526563882828 2.6172416359186172 2
      vertex -0.9889040812849998 2.550401635468006 0
      vertex -0.9889040812849998 2.550401635468006 2
    endloop
  endfacet
  facet normal 0 0 -1
    outer loop
      vertex -2.4183342829346657 4.64611592143774 0
      vertex -1.8073628544807434 4.85884653031826 0
      vertex -2.160829904692744 4.591997291265049 0
    endloop
  endfacet
  facet normal 0 0 -1
    outer loop
      vertex -1.8073628544807434 4.85884653031826 0
      vertex -1.568261246452858 4.826611820197904 0
      vertex -2.160829904692744 4.591997291265049 0
    endloop
  endfacet
  facet normal 0 0 -1
    outer loop
      vertex -1.8073628544807434 4.85884653031826 0
      vertex -1.2432257160544395 5.115751840174198 0
      vertex -1.568261246452858 4.826611820197904 0
    endloop
  endfacet
  facet normal -0.32882232175158344 0.944391804664726 0
    outer loop
      vertex -2.4183342829346657 4.64611592143774 0
      vertex -1.8073628544807434 4.85884653031826 2
      vertex -1.8073628544807434 4.85884653031826 0
    endloop
  endfacet
  facet normal -0.4144437069861592 0.9100749495176595 0
    outer loop
      vertex -1.8073628544807434 4.85884653031826 0
      vertex -1.2432257160544395 5.115751840174198 2
      vertex -1.2432257160544395 5.115751840174198 0
    endloop
  endfacet
  facet normal 0 0 -1
    outer loop
      vertex -1.2432257160544395 5.115751840174198 0
      vertex -0.9509601715225522 4.985107797448095 0
      vertex -1.568261246452858 4.826611820197904 0
    endloop
  endfacet
  facet normal 0 0 -1
    outer loop
      vertex -1.2432257160544395 5.115751840174198 0
      vertex -0.7259228602051735 5.416831836104393 0
      vertex -0.9509601715225522 4.985107797448095 0
    endloop
  endfacet
  facet normal 0 0 -1
    outer loop
      vertex -0.7259228602051735 5.416831836104393 0
      vertex -0.3186618866112649 5.064985646773478 0
      vertex -0.9509601715225522 4.985107797448095 0
    endloop
  endfacet
  facet normal 0 0 -1
    outer loop
      vertex -0.7259228602051735 5.416831836104393 0
      vertex -0.25545428693294525 5.762086533010006 0
      vertex -0.3186618866112649 5.064985646773478 0
    endloop
  endfacet
  facet normal 0 0 -1
    outer loop
      vertex -0.25545428693294525 5.762086533010006 0
      vertex 0.3186618866112649 5.064985646773478 0
      vertex -0.3186618866112649 5.064985646773478 0
    endloop
  endfacet
  facet normal -0.5030231217904448 0.8642729539585254 0
    outer loop
      vertex -1.2432257160544395 5.115751840174198 0
      vertex -0.7259228602051735 5.416831836104393 2
      vertex -0.7259228602051735 5.416831836104393 0
    endloop
  endfacet
  facet normal -0.5916359878714487 0.806205220682287 0
    outer loop
      vertex -0.7259228602051735 5.416831836104393 0
      vertex -0.25545428693294525 5.762086533010006 2
      vertex -0.25545428693294525 5.762086533010006 0
    endloop
  endfacet
  facet normal -0.32882232175158344 0.944391804664726 0
    outer loop
      vertex -2.4183342829346657 4.64611592143774 0
      vertex -2.4183342829346657 4.64611592143774 2
      vertex -1.8073628544807434 4.85884653031826 2
    endloop
  endfacet
  facet normal 0 0 1
    outer loop
      vertex -2.750699996948242 2.939520001411438 2
      vertex -2.441717140376568 2.9362824484705925 2
      vertex -2.4183342829346657 4.64611592143774 2
    endloop
  endfacet
  facet normal 0 0 1
    outer loop
      vertex -2.441717140376568 2.9362824484705925 2
      vertex -2.16578571498394 2.9265697970986366 2
      vertex -2.4183342829346657 4.64611592143774 2
    endloop
  endfacet
  facet normal 0 0 1
    outer loop
      vertex -2.16578571498394 2.9265697970986366 2
      vertex -1.9229057133197784 2.9103820398449898 2
      vertex -1.8073628544807434 4.85884653031826 2
    endloop
  endfacet
  facet normal 0 0 1
    outer loop
      vertex -2.16578571498394 2.9265697970986366 2
      vertex -1.8073628544807434 4.85884653031826 2
      vertex -2.4183342829346657 4.64611592143774 2
    endloop
  endfacet
  facet normal 0 0 1
    outer loop
      vertex -1.9229057133197784 2.9103820398449898 2
      vertex -1.7130771428346634 2.8877191841602325 2
      vertex -1.8073628544807434 4.85884653031826 2
    endloop
  endfacet
  facet normal 0 0 1
    outer loop
      vertex -1.7130771428346634 2.8877191841602325 2
      vertex -1.536300003528595 2.8585812225937843 2
      vertex -1.8073628544807434 4.85884653031826 2
    endloop
  endfacet
  facet normal 0 0 1
    outer loop
      vertex -1.536300003528595 2.8585812225937843 2
      vertex -1.3925742879509926 2.8229681625962257 2
      vertex -1.2432257160544395 5.115751840174198 2
    endloop
  endfacet
  facet normal 0 0 1
    outer loop
      vertex -1.3925742879509926 2.8229681625962257 2
      vertex -1.2819000035524368 2.780879996716976 2
      vertex -1.2432257160544395 5.115751840174198 2
    endloop
  endfacet
  facet normal 0 0 1
    outer loop
      vertex -1.8073628544807434 4.85884653031826 2
      vertex -1.536300003528595 2.8585812225937843 2
      vertex -1.2432257160544395 5.115751840174198 2
    endloop
  endfacet
  facet normal -0.4144437069861592 0.9100749495176595 0
    outer loop
      vertex -1.8073628544807434 4.85884653031826 0
      vertex -1.8073628544807434 4.85884653031826 2
      vertex -1.2432257160544395 5.115751840174198 2
    endloop
  endfacet
  facet normal 0 0 1
    outer loop
      vertex -1.2819000035524368 2.780879996716976 2
      vertex -1.192950613796711 2.7324808165431023 2
      vertex -1.2432257160544395 5.115751840174198 2
    endloop
  endfacet
  facet normal 0 0 1
    outer loop
      vertex -1.114468164741993 2.677934691309929 2
      vertex -1.0464526563882828 2.6172416359186172 2
      vertex -0.7259228602051735 5.416831836104393 2
    endloop
  endfacet
  facet normal 0 0 1
    outer loop
      vertex -1.192950613796711 2.7324808165431023 2
      vertex -1.114468164741993 2.677934691309929 2
      vertex -0.7259228602051735 5.416831836104393 2
    endloop
  endfacet
  facet normal 0 0 1
    outer loop
      vertex -0.9889040812849998 2.550401635468006 2
      vertex -0.9418224468827248 2.477414697408676 2
      vertex -0.7259228602051735 5.416831836104393 2
    endloop
  endfacet
  facet normal 0 0 1
    outer loop
      vertex -1.0464526563882828 2.6172416359186172 2
      vertex -0.9889040812849998 2.550401635468006 2
      vertex -0.7259228602051735 5.416831836104393 2
    endloop
  endfacet
  facet normal 0 0 1
    outer loop
      vertex -1.192950613796711 2.7324808165431023 2
      vertex -0.7259228602051735 5.416831836104393 2
      vertex -1.2432257160544395 5.115751840174198 2
    endloop
  endfacet
  facet normal 0 0 1
    outer loop
      vertex -0.9418224468827248 2.477414697408676 2
      vertex -0.25545428693294525 5.762086533010006 2
      vertex -0.7259228602051735 5.416831836104393 2
    endloop
  endfacet
  facet normal 0 0 1
    outer loop
      vertex -0.9418224468827248 2.477414697408676 2
      vertex 0.16817999631166458 6.151515915989876 2
      vertex -0.25545428693294525 5.762086533010006 2
    endloop
  endfacet
  facet normal -0.5030231217904448 0.8642729539585254 0
    outer loop
      vertex -1.2432257160544395 5.115751840174198 0
      vertex -1.2432257160544395 5.115751840174198 2
      vertex -0.7259228602051735 5.416831836104393 2
    endloop
  endfacet
  facet normal -0.5916359878714487 0.806205220682287 0
    outer loop
      vertex -0.7259228602051735 5.416831836104393 0
      vertex -0.7259228602051735 5.416831836104393 2
      vertex -0.25545428693294525 5.762086533010006 2
    endloop
  endfacet
  facet normal -0.6767607918764424 0.7362029819137996 0
    outer loop
      vertex -0.25545428693294525 5.762086533010006 0
      vertex -0.25545428693294525 5.762086533010006 2
      vertex 0.16817999631166458 6.151515915989876 2
    endloop
  endfacet
  facet normal 0 0 -1
    outer loop
      vertex -0.8058599978685379 -6.589440003037453 0
      vertex 0.3186618866112674 -5.064985646773478 0
      vertex 2.4817800000309944 -6.589440003037453 0
    endloop
  endfacet
  facet normal 0 0 -1
    outer loop
      vertex 2.4817800000309944 -6.589440003037453 0
      vertex 0.3186618866112674 -5.064985646773478 0
      vertex 0.9509601715225535 -4.985107797448095 0
    endloop
  endfacet
  facet normal 0 -1 0
    outer loop
      vertex -0.8058599978685379 -6.589440003037453 0
      vertex 2.4817800000309944 -6.589440003037453 0
      vertex -0.8058599978685379 -6.589440003037453 2
    endloop
  endfacet
  facet normal 0 0 -1
    outer loop
      vertex 2.4817800000309944 -6.589440003037453 0
      vertex 0.9509601715225535 -4.985107797448095 0
      vertex 1.568261246452858 -4.826611820197904 0
    endloop
  endfacet
  facet normal 0 0 -1
    outer loop
      vertex 2.4817800000309944 -6.589440003037453 0
      vertex 1.568261246452858 -4.826611820197904 0
      vertex 2.1608299046927426 -4.5919972912650495 0
    endloop
  endfacet
  facet normal 0 0 -1
    outer loop
      vertex 2.4817800000309944 -6.589440003037453 0
      vertex 2.1608299046927426 -4.5919972912650495 0
      vertex 2.4817800000309944 -4.4155534832311325 0
    endloop
  endfacet
  facet normal 1 0 0
    outer loop
      vertex 2.4817800000309944 -6.589440003037453 0
      vertex 2.4817800000309944 -4.4155534832311325 0
      vertex 2.4817800000309944 -6.589440003037453 2
    endloop
  endfacet
  facet normal 0 0 1
    outer loop
      vertex -0.8058599978685379 -6.589440003037453 2
      vertex 2.4817800000309944 -6.589440003037453 2
      vertex -0.8058599978685379 0.47388000041246414 2
    endloop
  endfacet
  facet normal 0 -1 0
    outer loop
      vertex -0.8058599978685379 -6.589440003037453 2
      vertex 2.4817800000309944 -6.589440003037453 0
      vertex 2.4817800000309944 -6.589440003037453 2
    endloop
  endfacet
  facet normal 1 0 0
    outer loop
      vertex 2.4817800000309944 -6.589440003037453 2
      vertex 2.4817800000309944 -4.4155534832311325 0
      vertex 2.4817800000309944 4.4155534832311325 0
    endloop
  endfacet
  facet normal 1 0 0
    outer loop
      vertex 2.4817800000309944 -6.589440003037453 2
      vertex 2.4817800000309944 4.4155534832311325 0
      vertex 2.4817800000309944 6.585119999945164 0
    endloop
  endfacet
  facet normal 0 0 1
    outer loop
      vertex -0.8058599978685379 0.47388000041246414 2
      vertex 2.4817800000309944 6.585119999945164 2
      vertex -0.8073538765311241 0.8860775530338287 2
    endloop
  endfacet
  facet normal 0 0 1
    outer loop
      vertex -0.8073538765311241 0.8860775530338287 2
      vertex 2.4817800000309944 6.585119999945164 2
      vertex -0.8118355125188828 1.2484530583024025 2
    endloop
  endfacet
  facet normal 0 0 1
    outer loop
      vertex -0.8193048983812332 1.5610065311193466 2
      vertex -0.8118355125188828 1.2484530583024025 2
      vertex 2.4817800000309944 6.585119999945164 2
    endloop
  endfacet
  facet normal 0 0 1
    outer loop
      vertex -0.8058599978685379 0.47388000041246414 2
      vertex 2.4817800000309944 -6.589440003037453 2
      vertex 2.4817800000309944 6.585119999945164 2
    endloop
  endfacet
  facet normal 1 0 0
    outer loop
      vertex 2.4817800000309944 -6.589440003037453 2
      vertex 2.4817800000309944 6.585119999945164 0
      vertex 2.4817800000309944 6.585119999945164 2
    endloop
  endfacet
  facet normal 0 0 -1
    outer loop
      vertex -0.25545428693294525 5.762086533010006 0
      vertex 0.16817999631166458 6.151515915989876 0
      vertex 0.3186618866112649 5.064985646773478 0
    endloop
  endfacet
  facet normal 0 0 -1
    outer loop
      vertex 0.16817999631166458 6.151515915989876 0
      vertex 0.9509601715225522 4.985107797448095 0
      vertex 0.3186618866112649 5.064985646773478 0
    endloop
  endfacet
  facet normal 0 0 -1
    outer loop
      vertex 0.16817999631166458 6.151515915989876 0
      vertex 2.4817800000309944 6.585119999945164 0
      vertex 0.9509601715225522 4.985107797448095 0
    endloop
  endfacet
  facet normal 0 0 -1
    outer loop
      vertex 0.16817999631166458 6.151515915989876 0
      vertex 0.5449799969792366 6.585119999945164 0
      vertex 2.4817800000309944 6.585119999945164 0
    endloop
  endfacet
  facet normal -0.6767607918764424 0.7362029819137996 0
    outer loop
      vertex -0.25545428693294525 5.762086533010006 0
      vertex 0.16817999631166458 6.151515915989876 2
      vertex 0.16817999631166458 6.151515915989876 0
    endloop
  endfacet
  facet normal -0.7548184134516883 0.6559338097051226 0
    outer loop
      vertex 0.16817999631166458 6.151515915989876 0
      vertex 0.5449799969792366 6.585119999945164 2
      vertex 0.5449799969792366 6.585119999945164 0
    endloop
  endfacet
  facet normal 0 0 -1
    outer loop
      vertex 2.4817800000309944 6.585119999945164 0
      vertex 1.568261246452858 4.826611820197904 0
      vertex 0.9509601715225522 4.985107797448095 0
    endloop
  endfacet
  facet normal 0 0 -1
    outer loop
      vertex 2.4817800000309944 6.585119999945164 0
      vertex 2.160829904692744 4.591997291265049 0
      vertex 1.568261246452858 4.826611820197904 0
    endloop
  endfacet
  facet normal 0 0 -1
    outer loop
      vertex 2.4817800000309944 6.585119999945164 0
      vertex 2.4817800000309944 4.4155534832311325 0
      vertex 2.160829904692744 4.591997291265049 0
    endloop
  endfacet
  facet normal 0 1 0
    outer loop
      vertex 0.5449799969792366 6.585119999945164 0
      vertex 2.4817800000309944 6.585119999945164 2
      vertex 2.4817800000309944 6.585119999945164 0
    endloop
  endfacet
  facet normal 0 0 1
    outer loop
      vertex -0.8193048983812332 1.5610065311193466 2
      vertex 2.4817800000309944 6.585119999945164 2
      vertex -0.8297620415687561 1.8237379565835 2
    endloop
  endfacet
  facet normal 0 0 1
    outer loop
      vertex -0.8297620415687561 1.8237379565835 2
      vertex 2.4817800000309944 6.585119999945164 2
      vertex -0.8432069420814514 2.0366473495960236 2
    endloop
  endfacet
  facet normal 0 0 1
    outer loop
      vertex -0.8432069420814514 2.0366473495960236 2
      vertex 2.4817800000309944 6.585119999945164 2
      vertex -0.8596395924687386 2.1997346952557564 2
    endloop
  endfacet
  facet normal 0 0 1
    outer loop
      vertex -0.8596395924687386 2.1997346952557564 2
      vertex 2.4817800000309944 6.585119999945164 2
      vertex -0.8790600001811981 2.313000001013279 2
    endloop
  endfacet
  facet normal 0 0 1
    outer loop
      vertex -0.9052077531814575 2.3982808142900467 2
      vertex -0.8790600001811981 2.313000001013279 2
      vertex 2.4817800000309944 6.585119999945164 2
    endloop
  endfacet
  facet normal 0 0 1
    outer loop
      vertex -0.9052077531814575 2.3982808142900467 2
      vertex 2.4817800000309944 6.585119999945164 2
      vertex -0.9418224468827248 2.477414697408676 2
    endloop
  endfacet
  facet normal -0.7548184134516883 0.6559338097051226 0
    outer loop
      vertex 0.16817999631166458 6.151515915989876 0
      vertex 0.16817999631166458 6.151515915989876 2
      vertex 0.5449799969792366 6.585119999945164 2
    endloop
  endfacet
  facet normal 0 1 0
    outer loop
      vertex 0.5449799969792366 6.585119999945164 0
      vertex 0.5449799969792366 6.585119999945164 2
      vertex 2.4817800000309944 6.585119999945164 2
    endloop
  endfacet
  facet normal 0 0 1
    outer loop
      vertex -0.9418224468827248 2.477414697408676 2
      vertex 2.4817800000309944 6.585119999945164 2
      vertex 0.16817999631166458 6.151515915989876 2
    endloop
  endfacet
  facet normal 0 0 1
    outer loop
      vertex 0.16817999631166458 6.151515915989876 2
      vertex 2.4817800000309944 6.585119999945164 2
      vertex 0.5449799969792366 6.585119999945164 2
    endloop
  endfacet
endsolid OpenSCAD_Model
