solid OpenSCAD_Model
  facet normal 0 1 -0
    outer loop
      vertex 1.55789 -2.69835 -1.9
      vertex -1.55789 -2.69835 0
      vertex 1.55789 -2.69835 0
    endloop
  endfacet
  facet normal 0 1 0
    outer loop
      vertex -1.55789 -2.69835 0
      vertex 1.55789 -2.69835 -1.9
      vertex -1.55789 -2.69835 -1.9
    endloop
  endfacet
  facet normal -0 0 1
    outer loop
      vertex 1.35827 0.746717 -1.9
      vertex 3.1158 0 -1.9
      vertex 1.55789 2.69835 -1.9
    endloop
  endfacet
  facet normal 0 0 1
    outer loop
      vertex 1.53778 -0.194266 -1.9
      vertex 3.1158 0 -1.9
      vertex 1.55 0 -1.9
    endloop
  endfacet
  facet normal 0 0 1
    outer loop
      vertex 3.1158 0 -1.9
      vertex 1.53778 0.194266 -1.9
      vertex 1.55 0 -1.9
    endloop
  endfacet
  facet normal 0 0 1
    outer loop
      vertex 3.1158 0 -1.9
      vertex 1.5013 0.385468 -1.9
      vertex 1.53778 0.194266 -1.9
    endloop
  endfacet
  facet normal 0 0 1
    outer loop
      vertex 3.1158 0 -1.9
      vertex 1.44115 0.570593 -1.9
      vertex 1.5013 0.385468 -1.9
    endloop
  endfacet
  facet normal 0 0 1
    outer loop
      vertex 3.1158 0 -1.9
      vertex 1.35827 0.746717 -1.9
      vertex 1.44115 0.570593 -1.9
    endloop
  endfacet
  facet normal 0 0 1
    outer loop
      vertex 1.55789 2.69835 -1.9
      vertex 1.25398 0.911067 -1.9
      vertex 1.35827 0.746717 -1.9
    endloop
  endfacet
  facet normal 0 0 1
    outer loop
      vertex 1.55789 2.69835 -1.9
      vertex 1.1299 1.06105 -1.9
      vertex 1.25398 0.911067 -1.9
    endloop
  endfacet
  facet normal 0 0 1
    outer loop
      vertex 1.55789 2.69835 -1.9
      vertex 0.988007 1.19429 -1.9
      vertex 1.1299 1.06105 -1.9
    endloop
  endfacet
  facet normal 0 0 1
    outer loop
      vertex 1.55789 2.69835 -1.9
      vertex 0.830531 1.30871 -1.9
      vertex 0.988007 1.19429 -1.9
    endloop
  endfacet
  facet normal 0 0 1
    outer loop
      vertex 1.55789 2.69835 -1.9
      vertex 0.659958 1.40248 -1.9
      vertex 0.830531 1.30871 -1.9
    endloop
  endfacet
  facet normal 0 0 1
    outer loop
      vertex 1.55789 2.69835 -1.9
      vertex 0.478976 1.47414 -1.9
      vertex 0.659958 1.40248 -1.9
    endloop
  endfacet
  facet normal 0 0 1
    outer loop
      vertex 1.55789 2.69835 -1.9
      vertex 0.290441 1.52254 -1.9
      vertex 0.478976 1.47414 -1.9
    endloop
  endfacet
  facet normal 0 0 1
    outer loop
      vertex 1.55789 2.69835 -1.9
      vertex 0.0973244 1.54694 -1.9
      vertex 0.290441 1.52254 -1.9
    endloop
  endfacet
  facet normal 0 0 1
    outer loop
      vertex 1.55789 2.69835 -1.9
      vertex -0.0973244 1.54694 -1.9
      vertex 0.0973244 1.54694 -1.9
    endloop
  endfacet
  facet normal -0 0 1
    outer loop
      vertex -1.55789 2.69835 -1.9
      vertex -0.0973244 1.54694 -1.9
      vertex 1.55789 2.69835 -1.9
    endloop
  endfacet
  facet normal 0 0 1
    outer loop
      vertex -0.0973244 1.54694 -1.9
      vertex -1.55789 2.69835 -1.9
      vertex -0.290441 1.52254 -1.9
    endloop
  endfacet
  facet normal 0 0 1
    outer loop
      vertex -0.290441 1.52254 -1.9
      vertex -1.55789 2.69835 -1.9
      vertex -0.478976 1.47414 -1.9
    endloop
  endfacet
  facet normal 0 0 1
    outer loop
      vertex -0.478976 1.47414 -1.9
      vertex -1.55789 2.69835 -1.9
      vertex -0.659958 1.40248 -1.9
    endloop
  endfacet
  facet normal 0 0 1
    outer loop
      vertex -1.5013 0.385468 -1.9
      vertex -3.1158 0 -1.9
      vertex -1.53778 0.194266 -1.9
    endloop
  endfacet
  facet normal 0 0 1
    outer loop
      vertex -1.44115 0.570593 -1.9
      vertex -3.1158 0 -1.9
      vertex -1.5013 0.385468 -1.9
    endloop
  endfacet
  facet normal 0 0 1
    outer loop
      vertex -1.35827 0.746717 -1.9
      vertex -3.1158 0 -1.9
      vertex -1.44115 0.570593 -1.9
    endloop
  endfacet
  facet normal 0 0 1
    outer loop
      vertex -3.1158 0 -1.9
      vertex -1.35827 0.746717 -1.9
      vertex -1.55789 2.69835 -1.9
    endloop
  endfacet
  facet normal 0 0 1
    outer loop
      vertex -1.25398 0.911067 -1.9
      vertex -1.55789 2.69835 -1.9
      vertex -1.35827 0.746717 -1.9
    endloop
  endfacet
  facet normal 0 0 1
    outer loop
      vertex -1.1299 1.06105 -1.9
      vertex -1.55789 2.69835 -1.9
      vertex -1.25398 0.911067 -1.9
    endloop
  endfacet
  facet normal 0 0 1
    outer loop
      vertex -0.988007 1.19429 -1.9
      vertex -1.55789 2.69835 -1.9
      vertex -1.1299 1.06105 -1.9
    endloop
  endfacet
  facet normal 0 0 1
    outer loop
      vertex -0.830531 1.30871 -1.9
      vertex -1.55789 2.69835 -1.9
      vertex -0.988007 1.19429 -1.9
    endloop
  endfacet
  facet normal 0 0 1
    outer loop
      vertex -0.659958 1.40248 -1.9
      vertex -1.55789 2.69835 -1.9
      vertex -0.830531 1.30871 -1.9
    endloop
  endfacet
  facet normal 0 0 1
    outer loop
      vertex 1.5013 -0.385468 -1.9
      vertex 3.1158 0 -1.9
      vertex 1.53778 -0.194266 -1.9
    endloop
  endfacet
  facet normal 0 0 1
    outer loop
      vertex 1.44115 -0.570593 -1.9
      vertex 3.1158 0 -1.9
      vertex 1.5013 -0.385468 -1.9
    endloop
  endfacet
  facet normal 0 0 1
    outer loop
      vertex 1.35827 -0.746717 -1.9
      vertex 3.1158 0 -1.9
      vertex 1.44115 -0.570593 -1.9
    endloop
  endfacet
  facet normal 0 0 1
    outer loop
      vertex 3.1158 0 -1.9
      vertex 1.35827 -0.746717 -1.9
      vertex 1.55789 -2.69835 -1.9
    endloop
  endfacet
  facet normal -0 0 1
    outer loop
      vertex 1.25398 -0.911067 -1.9
      vertex 1.55789 -2.69835 -1.9
      vertex 1.35827 -0.746717 -1.9
    endloop
  endfacet
  facet normal -0 0 1
    outer loop
      vertex 1.1299 -1.06105 -1.9
      vertex 1.55789 -2.69835 -1.9
      vertex 1.25398 -0.911067 -1.9
    endloop
  endfacet
  facet normal -0 0 1
    outer loop
      vertex 0.988007 -1.19429 -1.9
      vertex 1.55789 -2.69835 -1.9
      vertex 1.1299 -1.06105 -1.9
    endloop
  endfacet
  facet normal -0 0 1
    outer loop
      vertex 0.830531 -1.30871 -1.9
      vertex 1.55789 -2.69835 -1.9
      vertex 0.988007 -1.19429 -1.9
    endloop
  endfacet
  facet normal -0 0 1
    outer loop
      vertex 0.659958 -1.40248 -1.9
      vertex 1.55789 -2.69835 -1.9
      vertex 0.830531 -1.30871 -1.9
    endloop
  endfacet
  facet normal -0 0 1
    outer loop
      vertex 0.478976 -1.47414 -1.9
      vertex 1.55789 -2.69835 -1.9
      vertex 0.659958 -1.40248 -1.9
    endloop
  endfacet
  facet normal -0 0 1
    outer loop
      vertex 0.290441 -1.52254 -1.9
      vertex 1.55789 -2.69835 -1.9
      vertex 0.478976 -1.47414 -1.9
    endloop
  endfacet
  facet normal -0 0 1
    outer loop
      vertex 0.0973244 -1.54694 -1.9
      vertex 1.55789 -2.69835 -1.9
      vertex 0.290441 -1.52254 -1.9
    endloop
  endfacet
  facet normal -0 0 1
    outer loop
      vertex -0.0973244 -1.54694 -1.9
      vertex 1.55789 -2.69835 -1.9
      vertex 0.0973244 -1.54694 -1.9
    endloop
  endfacet
  facet normal 0 0 1
    outer loop
      vertex -1.55789 -2.69835 -1.9
      vertex -0.0973244 -1.54694 -1.9
      vertex -0.290441 -1.52254 -1.9
    endloop
  endfacet
  facet normal 0 0 1
    outer loop
      vertex -1.55789 -2.69835 -1.9
      vertex -0.290441 -1.52254 -1.9
      vertex -0.478976 -1.47414 -1.9
    endloop
  endfacet
  facet normal 0 0 1
    outer loop
      vertex -1.55789 -2.69835 -1.9
      vertex -0.478976 -1.47414 -1.9
      vertex -0.659958 -1.40248 -1.9
    endloop
  endfacet
  facet normal 0 0 1
    outer loop
      vertex -1.55789 -2.69835 -1.9
      vertex -0.659958 -1.40248 -1.9
      vertex -0.830531 -1.30871 -1.9
    endloop
  endfacet
  facet normal 0 0 1
    outer loop
      vertex -0.0973244 -1.54694 -1.9
      vertex -1.55789 -2.69835 -1.9
      vertex 1.55789 -2.69835 -1.9
    endloop
  endfacet
  facet normal 0 0 1
    outer loop
      vertex -0.988007 -1.19429 -1.9
      vertex -1.55789 -2.69835 -1.9
      vertex -0.830531 -1.30871 -1.9
    endloop
  endfacet
  facet normal 0 0 1
    outer loop
      vertex -1.1299 -1.06105 -1.9
      vertex -1.55789 -2.69835 -1.9
      vertex -0.988007 -1.19429 -1.9
    endloop
  endfacet
  facet normal 0 0 1
    outer loop
      vertex -1.25398 -0.911067 -1.9
      vertex -1.55789 -2.69835 -1.9
      vertex -1.1299 -1.06105 -1.9
    endloop
  endfacet
  facet normal 0 0 1
    outer loop
      vertex -1.35827 -0.746717 -1.9
      vertex -1.55789 -2.69835 -1.9
      vertex -1.25398 -0.911067 -1.9
    endloop
  endfacet
  facet normal 0 0 1
    outer loop
      vertex -3.1158 0 -1.9
      vertex -1.35827 -0.746717 -1.9
      vertex -1.44115 -0.570593 -1.9
    endloop
  endfacet
  facet normal 0 0 1
    outer loop
      vertex -3.1158 0 -1.9
      vertex -1.44115 -0.570593 -1.9
      vertex -1.5013 -0.385468 -1.9
    endloop
  endfacet
  facet normal 0 0 1
    outer loop
      vertex -3.1158 0 -1.9
      vertex -1.5013 -0.385468 -1.9
      vertex -1.53778 -0.194266 -1.9
    endloop
  endfacet
  facet normal -0 0 1
    outer loop
      vertex -3.1158 0 -1.9
      vertex -1.53778 -0.194266 -1.9
      vertex -1.55 0 -1.9
    endloop
  endfacet
  facet normal 0 0 1
    outer loop
      vertex -1.53778 0.194266 -1.9
      vertex -3.1158 0 -1.9
      vertex -1.55 0 -1.9
    endloop
  endfacet
  facet normal 0 0 1
    outer loop
      vertex -1.35827 -0.746717 -1.9
      vertex -3.1158 0 -1.9
      vertex -1.55789 -2.69835 -1.9
    endloop
  endfacet
  facet normal -0.866023 0.500004 0
    outer loop
      vertex 1.55789 -2.69835 -1.9
      vertex 3.1158 0 0
      vertex 3.1158 0 -1.9
    endloop
  endfacet
  facet normal -0.866023 0.500004 0
    outer loop
      vertex 3.1158 0 0
      vertex 1.55789 -2.69835 -1.9
      vertex 1.55789 -2.69835 0
    endloop
  endfacet
  facet normal -0.866023 -0.500004 0
    outer loop
      vertex 3.1158 0 -1.9
      vertex 1.55789 2.69835 0
      vertex 1.55789 2.69835 -1.9
    endloop
  endfacet
  facet normal -0.866023 -0.500004 0
    outer loop
      vertex 1.55789 2.69835 0
      vertex 3.1158 0 -1.9
      vertex 3.1158 0 0
    endloop
  endfacet
  facet normal 0.866023 -0.500004 0
    outer loop
      vertex -3.1158 0 0
      vertex -1.55789 2.69835 -1.9
      vertex -1.55789 2.69835 0
    endloop
  endfacet
  facet normal 0.866023 -0.500004 0
    outer loop
      vertex -1.55789 2.69835 -1.9
      vertex -3.1158 0 0
      vertex -3.1158 0 -1.9
    endloop
  endfacet
  facet normal 0 0 1
    outer loop
      vertex 3.1158 0 0
      vertex 7 0 0
      vertex 6.9448 0.877332 0
    endloop
  endfacet
  facet normal 0 0 1
    outer loop
      vertex 3.1158 0 0
      vertex 6.9448 0.877332 0
      vertex 6.78008 1.74083 0
    endloop
  endfacet
  facet normal 0 0 1
    outer loop
      vertex 7 0 0
      vertex 3.1158 0 0
      vertex 6.9448 -0.877332 0
    endloop
  endfacet
  facet normal 0 0 1
    outer loop
      vertex 3.1158 0 0
      vertex 6.78008 1.74083 0
      vertex 6.50844 2.57687 0
    endloop
  endfacet
  facet normal 0 0 1
    outer loop
      vertex 6.9448 -0.877332 0
      vertex 3.1158 0 0
      vertex 6.78008 -1.74083 0
    endloop
  endfacet
  facet normal 0 0 1
    outer loop
      vertex 3.1158 0 0
      vertex 6.50844 2.57687 0
      vertex 6.13415 3.37228 0
    endloop
  endfacet
  facet normal 0 0 1
    outer loop
      vertex 6.78008 -1.74083 0
      vertex 3.1158 0 0
      vertex 6.50844 -2.57687 0
    endloop
  endfacet
  facet normal 0 0 1
    outer loop
      vertex 1.55789 2.69835 0
      vertex 6.13415 3.37228 0
      vertex 5.66312 4.1145 0
    endloop
  endfacet
  facet normal 0 0 1
    outer loop
      vertex 6.50844 -2.57687 0
      vertex 3.1158 0 0
      vertex 6.13415 -3.37228 0
    endloop
  endfacet
  facet normal 0 0 1
    outer loop
      vertex 1.55789 2.69835 0
      vertex 5.66312 4.1145 0
      vertex 5.10278 4.79183 0
    endloop
  endfacet
  facet normal -0 0 1
    outer loop
      vertex 1.55789 -2.69835 0
      vertex 6.13415 -3.37228 0
      vertex 3.1158 0 0
    endloop
  endfacet
  facet normal 0 0 1
    outer loop
      vertex 1.55789 2.69835 0
      vertex 5.10278 4.79183 0
      vertex 4.46197 5.39359 0
    endloop
  endfacet
  facet normal 0 0 1
    outer loop
      vertex 6.13415 -3.37228 0
      vertex 1.55789 -2.69835 0
      vertex 5.66312 -4.1145 0
    endloop
  endfacet
  facet normal 0 0 1
    outer loop
      vertex 1.55789 2.69835 0
      vertex 4.46197 5.39359 0
      vertex 3.75079 5.91029 0
    endloop
  endfacet
  facet normal 0 0 1
    outer loop
      vertex 5.66312 -4.1145 0
      vertex 1.55789 -2.69835 0
      vertex 5.10278 -4.79183 0
    endloop
  endfacet
  facet normal 0 0 1
    outer loop
      vertex 5.10278 -4.79183 0
      vertex 1.55789 -2.69835 0
      vertex 4.46197 -5.39359 0
    endloop
  endfacet
  facet normal 0 0 1
    outer loop
      vertex 1.55789 2.69835 0
      vertex 3.75079 5.91029 0
      vertex 2.98045 6.33379 0
    endloop
  endfacet
  facet normal 0 0 1
    outer loop
      vertex 1.55789 2.69835 0
      vertex 2.98045 6.33379 0
      vertex 2.16312 6.6574 0
    endloop
  endfacet
  facet normal 0 0 1
    outer loop
      vertex 6.13415 3.37228 0
      vertex 1.55789 2.69835 0
      vertex 3.1158 0 0
    endloop
  endfacet
  facet normal 0 0 1
    outer loop
      vertex 1.31167 6.87601 0
      vertex 1.55789 2.69835 0
      vertex 2.16312 6.6574 0
    endloop
  endfacet
  facet normal 0 0 1
    outer loop
      vertex 0.439533 6.98619 0
      vertex 1.55789 2.69835 0
      vertex 1.31167 6.87601 0
    endloop
  endfacet
  facet normal -0 0 1
    outer loop
      vertex -0.439533 6.98619 0
      vertex 1.55789 2.69835 0
      vertex 0.439533 6.98619 0
    endloop
  endfacet
  facet normal 0 0 1
    outer loop
      vertex -1.55789 2.69835 0
      vertex -0.439533 6.98619 0
      vertex -1.31167 6.87601 0
    endloop
  endfacet
  facet normal 0 0 1
    outer loop
      vertex -0.439533 6.98619 0
      vertex -1.55789 2.69835 0
      vertex 1.55789 2.69835 0
    endloop
  endfacet
  facet normal -0 0 1
    outer loop
      vertex -2.16312 6.6574 0
      vertex -1.55789 2.69835 0
      vertex -1.31167 6.87601 0
    endloop
  endfacet
  facet normal -0 0 1
    outer loop
      vertex -2.98045 6.33379 0
      vertex -1.55789 2.69835 0
      vertex -2.16312 6.6574 0
    endloop
  endfacet
  facet normal -0 0 1
    outer loop
      vertex -3.75079 5.91029 0
      vertex -1.55789 2.69835 0
      vertex -2.98045 6.33379 0
    endloop
  endfacet
  facet normal -0 0 1
    outer loop
      vertex -4.46197 5.39359 0
      vertex -1.55789 2.69835 0
      vertex -3.75079 5.91029 0
    endloop
  endfacet
  facet normal 0 0 1
    outer loop
      vertex 4.46197 -5.39359 0
      vertex 1.55789 -2.69835 0
      vertex 3.75079 -5.91029 0
    endloop
  endfacet
  facet normal 0 0 1
    outer loop
      vertex 3.75079 -5.91029 0
      vertex 1.55789 -2.69835 0
      vertex 2.98045 -6.33379 0
    endloop
  endfacet
  facet normal 0 0 1
    outer loop
      vertex 2.98045 -6.33379 0
      vertex 1.55789 -2.69835 0
      vertex 2.16312 -6.6574 0
    endloop
  endfacet
  facet normal 0 0 1
    outer loop
      vertex 1.55789 -2.69835 0
      vertex 1.31167 -6.87601 0
      vertex 2.16312 -6.6574 0
    endloop
  endfacet
  facet normal 0 0 1
    outer loop
      vertex 1.55789 -2.69835 0
      vertex 0.439533 -6.98619 0
      vertex 1.31167 -6.87601 0
    endloop
  endfacet
  facet normal 0 0 1
    outer loop
      vertex 1.55789 -2.69835 0
      vertex -0.439533 -6.98619 0
      vertex 0.439533 -6.98619 0
    endloop
  endfacet
  facet normal -0 0 1
    outer loop
      vertex -1.55789 -2.69835 0
      vertex -0.439533 -6.98619 0
      vertex 1.55789 -2.69835 0
    endloop
  endfacet
  facet normal 0 0 1
    outer loop
      vertex -0.439533 -6.98619 0
      vertex -1.55789 -2.69835 0
      vertex -1.31167 -6.87601 0
    endloop
  endfacet
  facet normal 0 0 1
    outer loop
      vertex -1.55789 -2.69835 0
      vertex -2.16312 -6.6574 0
      vertex -1.31167 -6.87601 0
    endloop
  endfacet
  facet normal 0 0 1
    outer loop
      vertex -1.55789 -2.69835 0
      vertex -2.98045 -6.33379 0
      vertex -2.16312 -6.6574 0
    endloop
  endfacet
  facet normal 0 0 1
    outer loop
      vertex -6.13415 -3.37228 0
      vertex -1.55789 -2.69835 0
      vertex -3.1158 0 0
    endloop
  endfacet
  facet normal -0 0 1
    outer loop
      vertex -5.10278 4.79183 0
      vertex -1.55789 2.69835 0
      vertex -4.46197 5.39359 0
    endloop
  endfacet
  facet normal 0 0 1
    outer loop
      vertex -1.55789 -2.69835 0
      vertex -3.75079 -5.91029 0
      vertex -2.98045 -6.33379 0
    endloop
  endfacet
  facet normal -0 0 1
    outer loop
      vertex -5.66312 4.1145 0
      vertex -1.55789 2.69835 0
      vertex -5.10278 4.79183 0
    endloop
  endfacet
  facet normal 0 0 1
    outer loop
      vertex -1.55789 -2.69835 0
      vertex -4.46197 -5.39359 0
      vertex -3.75079 -5.91029 0
    endloop
  endfacet
  facet normal -0 0 1
    outer loop
      vertex -6.13415 3.37228 0
      vertex -1.55789 2.69835 0
      vertex -5.66312 4.1145 0
    endloop
  endfacet
  facet normal 0 0 1
    outer loop
      vertex -1.55789 -2.69835 0
      vertex -5.10278 -4.79183 0
      vertex -4.46197 -5.39359 0
    endloop
  endfacet
  facet normal 0 0 1
    outer loop
      vertex -1.55789 2.69835 0
      vertex -6.13415 3.37228 0
      vertex -3.1158 0 0
    endloop
  endfacet
  facet normal 0 0 1
    outer loop
      vertex -1.55789 -2.69835 0
      vertex -5.66312 -4.1145 0
      vertex -5.10278 -4.79183 0
    endloop
  endfacet
  facet normal -0 0 1
    outer loop
      vertex -6.50844 2.57687 0
      vertex -3.1158 0 0
      vertex -6.13415 3.37228 0
    endloop
  endfacet
  facet normal 0 0 1
    outer loop
      vertex -1.55789 -2.69835 0
      vertex -6.13415 -3.37228 0
      vertex -5.66312 -4.1145 0
    endloop
  endfacet
  facet normal -0 0 1
    outer loop
      vertex -6.78008 1.74083 0
      vertex -3.1158 0 0
      vertex -6.50844 2.57687 0
    endloop
  endfacet
  facet normal 0 0 1
    outer loop
      vertex -3.1158 0 0
      vertex -6.50844 -2.57687 0
      vertex -6.13415 -3.37228 0
    endloop
  endfacet
  facet normal -0 0 1
    outer loop
      vertex -6.9448 0.877332 0
      vertex -3.1158 0 0
      vertex -6.78008 1.74083 0
    endloop
  endfacet
  facet normal 0 0 1
    outer loop
      vertex -3.1158 0 0
      vertex -6.78008 -1.74083 0
      vertex -6.50844 -2.57687 0
    endloop
  endfacet
  facet normal 0 0 1
    outer loop
      vertex -7 0 0
      vertex -3.1158 0 0
      vertex -6.9448 0.877332 0
    endloop
  endfacet
  facet normal 0 0 1
    outer loop
      vertex -3.1158 0 0
      vertex -6.9448 -0.877332 0
      vertex -6.78008 -1.74083 0
    endloop
  endfacet
  facet normal 0 0 1
    outer loop
      vertex -3.1158 0 0
      vertex -7 0 0
      vertex -6.9448 -0.877332 0
    endloop
  endfacet
  facet normal 0 -1 0
    outer loop
      vertex -1.55789 2.69835 -1.9
      vertex 1.55789 2.69835 0
      vertex -1.55789 2.69835 0
    endloop
  endfacet
  facet normal 0 -1 -0
    outer loop
      vertex 1.55789 2.69835 0
      vertex -1.55789 2.69835 -1.9
      vertex 1.55789 2.69835 -1.9
    endloop
  endfacet
  facet normal 0.866023 0.500004 0
    outer loop
      vertex -1.55789 -2.69835 0
      vertex -3.1158 0 -1.9
      vertex -3.1158 0 0
    endloop
  endfacet
  facet normal 0.866023 0.500004 0
    outer loop
      vertex -3.1158 0 -1.9
      vertex -1.55789 -2.69835 0
      vertex -1.55789 -2.69835 -1.9
    endloop
  endfacet
  facet normal -0.998027 -0.0627794 0
    outer loop
      vertex 1.55 0 -10.5
      vertex 1.53778 0.194266 -1.9
      vertex 1.53778 0.194266 -10.5
    endloop
  endfacet
  facet normal -0.998027 -0.0627794 0
    outer loop
      vertex 1.53778 0.194266 -1.9
      vertex 1.55 0 -10.5
      vertex 1.55 0 -1.9
    endloop
  endfacet
  facet normal 0.998027 -0.0627794 0
    outer loop
      vertex -1.55 0 -1.9
      vertex -1.53778 0.194266 -10.5
      vertex -1.53778 0.194266 -1.9
    endloop
  endfacet
  facet normal 0.998027 -0.0627794 0
    outer loop
      vertex -1.53778 0.194266 -10.5
      vertex -1.55 0 -1.9
      vertex -1.55 0 -10.5
    endloop
  endfacet
  facet normal 0 -1 0
    outer loop
      vertex -0.0973244 1.54694 -10.5
      vertex 0.0973244 1.54694 -1.9
      vertex -0.0973244 1.54694 -1.9
    endloop
  endfacet
  facet normal 0 -1 -0
    outer loop
      vertex 0.0973244 1.54694 -1.9
      vertex -0.0973244 1.54694 -10.5
      vertex 0.0973244 1.54694 -10.5
    endloop
  endfacet
  facet normal 0 1 -0
    outer loop
      vertex 0.0973244 -1.54694 -10.5
      vertex -0.0973244 -1.54694 -1.9
      vertex 0.0973244 -1.54694 -1.9
    endloop
  endfacet
  facet normal 0 1 0
    outer loop
      vertex -0.0973244 -1.54694 -1.9
      vertex 0.0973244 -1.54694 -10.5
      vertex -0.0973244 -1.54694 -10.5
    endloop
  endfacet
  facet normal -0.68453 -0.728985 0
    outer loop
      vertex 0.988007 1.19429 -10.5
      vertex 1.1299 1.06105 -1.9
      vertex 0.988007 1.19429 -1.9
    endloop
  endfacet
  facet normal -0.68453 -0.728985 -0
    outer loop
      vertex 1.1299 1.06105 -1.9
      vertex 0.988007 1.19429 -10.5
      vertex 1.1299 1.06105 -10.5
    endloop
  endfacet
  facet normal 0.68453 -0.728985 0
    outer loop
      vertex -1.1299 1.06105 -10.5
      vertex -0.988007 1.19429 -1.9
      vertex -1.1299 1.06105 -1.9
    endloop
  endfacet
  facet normal 0.68453 -0.728985 0
    outer loop
      vertex -0.988007 1.19429 -1.9
      vertex -1.1299 1.06105 -10.5
      vertex -0.988007 1.19429 -10.5
    endloop
  endfacet
  facet normal 0.368143 -0.929769 0
    outer loop
      vertex -0.659958 1.40248 -10.5
      vertex -0.478976 1.47414 -1.9
      vertex -0.659958 1.40248 -1.9
    endloop
  endfacet
  facet normal 0.368143 -0.929769 0
    outer loop
      vertex -0.478976 1.47414 -1.9
      vertex -0.659958 1.40248 -10.5
      vertex -0.478976 1.47414 -10.5
    endloop
  endfacet
  facet normal -0.904822 -0.425789 0
    outer loop
      vertex 1.44115 0.570593 -10.5
      vertex 1.35827 0.746717 -1.9
      vertex 1.35827 0.746717 -10.5
    endloop
  endfacet
  facet normal -0.904822 -0.425789 0
    outer loop
      vertex 1.35827 0.746717 -1.9
      vertex 1.44115 0.570593 -10.5
      vertex 1.44115 0.570593 -1.9
    endloop
  endfacet
  facet normal -0.84435 -0.535791 0
    outer loop
      vertex 1.35827 0.746717 -10.5
      vertex 1.25398 0.911067 -1.9
      vertex 1.25398 0.911067 -10.5
    endloop
  endfacet
  facet normal -0.84435 -0.535791 0
    outer loop
      vertex 1.25398 0.911067 -1.9
      vertex 1.35827 0.746717 -10.5
      vertex 1.35827 0.746717 -1.9
    endloop
  endfacet
  facet normal -0.368143 -0.929769 0
    outer loop
      vertex 0.478976 1.47414 -10.5
      vertex 0.659958 1.40248 -1.9
      vertex 0.478976 1.47414 -1.9
    endloop
  endfacet
  facet normal -0.368143 -0.929769 -0
    outer loop
      vertex 0.659958 1.40248 -1.9
      vertex 0.478976 1.47414 -10.5
      vertex 0.659958 1.40248 -10.5
    endloop
  endfacet
  facet normal -0.248653 -0.968593 0
    outer loop
      vertex 0.290441 1.52254 -10.5
      vertex 0.478976 1.47414 -1.9
      vertex 0.290441 1.52254 -1.9
    endloop
  endfacet
  facet normal -0.248653 -0.968593 -0
    outer loop
      vertex 0.478976 1.47414 -1.9
      vertex 0.290441 1.52254 -10.5
      vertex 0.478976 1.47414 -10.5
    endloop
  endfacet
  facet normal -0.587809 -0.809 0
    outer loop
      vertex 0.830531 1.30871 -10.5
      vertex 0.988007 1.19429 -1.9
      vertex 0.830531 1.30871 -1.9
    endloop
  endfacet
  facet normal -0.587809 -0.809 -0
    outer loop
      vertex 0.988007 1.19429 -1.9
      vertex 0.830531 1.30871 -10.5
      vertex 0.988007 1.19429 -10.5
    endloop
  endfacet
  facet normal 0.904822 -0.425789 0
    outer loop
      vertex -1.44115 0.570593 -1.9
      vertex -1.35827 0.746717 -10.5
      vertex -1.35827 0.746717 -1.9
    endloop
  endfacet
  facet normal 0.904822 -0.425789 0
    outer loop
      vertex -1.35827 0.746717 -10.5
      vertex -1.44115 0.570593 -1.9
      vertex -1.44115 0.570593 -10.5
    endloop
  endfacet
  facet normal 0.770505 -0.637434 0
    outer loop
      vertex -1.25398 0.911067 -1.9
      vertex -1.1299 1.06105 -10.5
      vertex -1.1299 1.06105 -1.9
    endloop
  endfacet
  facet normal 0.770505 -0.637434 0
    outer loop
      vertex -1.1299 1.06105 -10.5
      vertex -1.25398 0.911067 -1.9
      vertex -1.25398 0.911067 -10.5
    endloop
  endfacet
  facet normal 0.951058 -0.309013 0
    outer loop
      vertex -1.5013 0.385468 -1.9
      vertex -1.44115 0.570593 -10.5
      vertex -1.44115 0.570593 -1.9
    endloop
  endfacet
  facet normal 0.951058 -0.309013 0
    outer loop
      vertex -1.44115 0.570593 -10.5
      vertex -1.5013 0.385468 -1.9
      vertex -1.5013 0.385468 -10.5
    endloop
  endfacet
  facet normal 0.481741 -0.876314 0
    outer loop
      vertex -0.830531 1.30871 -10.5
      vertex -0.659958 1.40248 -1.9
      vertex -0.830531 1.30871 -1.9
    endloop
  endfacet
  facet normal 0.481741 -0.876314 0
    outer loop
      vertex -0.659958 1.40248 -1.9
      vertex -0.830531 1.30871 -10.5
      vertex -0.659958 1.40248 -10.5
    endloop
  endfacet
  facet normal 0.248653 -0.968593 0
    outer loop
      vertex -0.478976 1.47414 -10.5
      vertex -0.290441 1.52254 -1.9
      vertex -0.478976 1.47414 -1.9
    endloop
  endfacet
  facet normal 0.248653 -0.968593 0
    outer loop
      vertex -0.290441 1.52254 -1.9
      vertex -0.478976 1.47414 -10.5
      vertex -0.290441 1.52254 -10.5
    endloop
  endfacet
  facet normal -0.368143 0.929769 0
    outer loop
      vertex 0.659958 -1.40248 -10.5
      vertex 0.478976 -1.47414 -1.9
      vertex 0.659958 -1.40248 -1.9
    endloop
  endfacet
  facet normal -0.368143 0.929769 0
    outer loop
      vertex 0.478976 -1.47414 -1.9
      vertex 0.659958 -1.40248 -10.5
      vertex 0.478976 -1.47414 -10.5
    endloop
  endfacet
  facet normal -0.951058 -0.309013 0
    outer loop
      vertex 1.5013 0.385468 -10.5
      vertex 1.44115 0.570593 -1.9
      vertex 1.44115 0.570593 -10.5
    endloop
  endfacet
  facet normal -0.951058 -0.309013 0
    outer loop
      vertex 1.44115 0.570593 -1.9
      vertex 1.5013 0.385468 -10.5
      vertex 1.5013 0.385468 -1.9
    endloop
  endfacet
  facet normal -0.982281 -0.187412 0
    outer loop
      vertex 1.53778 0.194266 -10.5
      vertex 1.5013 0.385468 -1.9
      vertex 1.5013 0.385468 -10.5
    endloop
  endfacet
  facet normal -0.982281 -0.187412 0
    outer loop
      vertex 1.5013 0.385468 -1.9
      vertex 1.53778 0.194266 -10.5
      vertex 1.53778 0.194266 -1.9
    endloop
  endfacet
  facet normal -0.770505 -0.637434 0
    outer loop
      vertex 1.25398 0.911067 -10.5
      vertex 1.1299 1.06105 -1.9
      vertex 1.1299 1.06105 -10.5
    endloop
  endfacet
  facet normal -0.770505 -0.637434 0
    outer loop
      vertex 1.1299 1.06105 -1.9
      vertex 1.25398 0.911067 -10.5
      vertex 1.25398 0.911067 -1.9
    endloop
  endfacet
  facet normal -0.125352 -0.992112 0
    outer loop
      vertex 0.0973244 1.54694 -10.5
      vertex 0.290441 1.52254 -1.9
      vertex 0.0973244 1.54694 -1.9
    endloop
  endfacet
  facet normal -0.125352 -0.992112 -0
    outer loop
      vertex 0.290441 1.52254 -1.9
      vertex 0.0973244 1.54694 -10.5
      vertex 0.290441 1.52254 -10.5
    endloop
  endfacet
  facet normal -0.481741 -0.876314 0
    outer loop
      vertex 0.659958 1.40248 -10.5
      vertex 0.830531 1.30871 -1.9
      vertex 0.659958 1.40248 -1.9
    endloop
  endfacet
  facet normal -0.481741 -0.876314 -0
    outer loop
      vertex 0.830531 1.30871 -1.9
      vertex 0.659958 1.40248 -10.5
      vertex 0.830531 1.30871 -10.5
    endloop
  endfacet
  facet normal 0.84435 -0.535791 0
    outer loop
      vertex -1.35827 0.746717 -1.9
      vertex -1.25398 0.911067 -10.5
      vertex -1.25398 0.911067 -1.9
    endloop
  endfacet
  facet normal 0.84435 -0.535791 0
    outer loop
      vertex -1.25398 0.911067 -10.5
      vertex -1.35827 0.746717 -1.9
      vertex -1.35827 0.746717 -10.5
    endloop
  endfacet
  facet normal 0.982281 -0.187412 0
    outer loop
      vertex -1.53778 0.194266 -1.9
      vertex -1.5013 0.385468 -10.5
      vertex -1.5013 0.385468 -1.9
    endloop
  endfacet
  facet normal 0.982281 -0.187412 0
    outer loop
      vertex -1.5013 0.385468 -10.5
      vertex -1.53778 0.194266 -1.9
      vertex -1.53778 0.194266 -10.5
    endloop
  endfacet
  facet normal 0.587809 -0.809 0
    outer loop
      vertex -0.988007 1.19429 -10.5
      vertex -0.830531 1.30871 -1.9
      vertex -0.988007 1.19429 -1.9
    endloop
  endfacet
  facet normal 0.587809 -0.809 0
    outer loop
      vertex -0.830531 1.30871 -1.9
      vertex -0.988007 1.19429 -10.5
      vertex -0.830531 1.30871 -10.5
    endloop
  endfacet
  facet normal 0.125352 -0.992112 0
    outer loop
      vertex -0.290441 1.52254 -10.5
      vertex -0.0973244 1.54694 -1.9
      vertex -0.290441 1.52254 -1.9
    endloop
  endfacet
  facet normal 0.125352 -0.992112 0
    outer loop
      vertex -0.0973244 1.54694 -1.9
      vertex -0.290441 1.52254 -10.5
      vertex -0.0973244 1.54694 -10.5
    endloop
  endfacet
  facet normal -0.998027 0.0627794 0
    outer loop
      vertex 1.53778 -0.194266 -10.5
      vertex 1.55 0 -1.9
      vertex 1.55 0 -10.5
    endloop
  endfacet
  facet normal -0.998027 0.0627794 0
    outer loop
      vertex 1.55 0 -1.9
      vertex 1.53778 -0.194266 -10.5
      vertex 1.53778 -0.194266 -1.9
    endloop
  endfacet
  facet normal -0.951058 0.309013 0
    outer loop
      vertex 1.44115 -0.570593 -10.5
      vertex 1.5013 -0.385468 -1.9
      vertex 1.5013 -0.385468 -10.5
    endloop
  endfacet
  facet normal -0.951058 0.309013 0
    outer loop
      vertex 1.5013 -0.385468 -1.9
      vertex 1.44115 -0.570593 -10.5
      vertex 1.44115 -0.570593 -1.9
    endloop
  endfacet
  facet normal -0.982281 0.187412 0
    outer loop
      vertex 1.5013 -0.385468 -10.5
      vertex 1.53778 -0.194266 -1.9
      vertex 1.53778 -0.194266 -10.5
    endloop
  endfacet
  facet normal -0.982281 0.187412 0
    outer loop
      vertex 1.53778 -0.194266 -1.9
      vertex 1.5013 -0.385468 -10.5
      vertex 1.5013 -0.385468 -1.9
    endloop
  endfacet
  facet normal 0.68453 0.728985 -0
    outer loop
      vertex -0.988007 -1.19429 -10.5
      vertex -1.1299 -1.06105 -1.9
      vertex -0.988007 -1.19429 -1.9
    endloop
  endfacet
  facet normal 0.68453 0.728985 0
    outer loop
      vertex -1.1299 -1.06105 -1.9
      vertex -0.988007 -1.19429 -10.5
      vertex -1.1299 -1.06105 -10.5
    endloop
  endfacet
  facet normal 0.904822 0.425789 0
    outer loop
      vertex -1.35827 -0.746717 -1.9
      vertex -1.44115 -0.570593 -10.5
      vertex -1.44115 -0.570593 -1.9
    endloop
  endfacet
  facet normal 0.904822 0.425789 0
    outer loop
      vertex -1.44115 -0.570593 -10.5
      vertex -1.35827 -0.746717 -1.9
      vertex -1.35827 -0.746717 -10.5
    endloop
  endfacet
  facet normal 0.770505 0.637434 0
    outer loop
      vertex -1.1299 -1.06105 -1.9
      vertex -1.25398 -0.911067 -10.5
      vertex -1.25398 -0.911067 -1.9
    endloop
  endfacet
  facet normal 0.770505 0.637434 0
    outer loop
      vertex -1.25398 -0.911067 -10.5
      vertex -1.1299 -1.06105 -1.9
      vertex -1.1299 -1.06105 -10.5
    endloop
  endfacet
  facet normal -0.587809 0.809 0
    outer loop
      vertex 0.988007 -1.19429 -10.5
      vertex 0.830531 -1.30871 -1.9
      vertex 0.988007 -1.19429 -1.9
    endloop
  endfacet
  facet normal -0.587809 0.809 0
    outer loop
      vertex 0.830531 -1.30871 -1.9
      vertex 0.988007 -1.19429 -10.5
      vertex 0.830531 -1.30871 -10.5
    endloop
  endfacet
  facet normal 0.248653 0.968593 -0
    outer loop
      vertex -0.290441 -1.52254 -10.5
      vertex -0.478976 -1.47414 -1.9
      vertex -0.290441 -1.52254 -1.9
    endloop
  endfacet
  facet normal 0.248653 0.968593 0
    outer loop
      vertex -0.478976 -1.47414 -1.9
      vertex -0.290441 -1.52254 -10.5
      vertex -0.478976 -1.47414 -10.5
    endloop
  endfacet
  facet normal 0.951058 0.309013 0
    outer loop
      vertex -1.44115 -0.570593 -1.9
      vertex -1.5013 -0.385468 -10.5
      vertex -1.5013 -0.385468 -1.9
    endloop
  endfacet
  facet normal 0.951058 0.309013 0
    outer loop
      vertex -1.5013 -0.385468 -10.5
      vertex -1.44115 -0.570593 -1.9
      vertex -1.44115 -0.570593 -10.5
    endloop
  endfacet
  facet normal -0.770505 0.637434 0
    outer loop
      vertex 1.1299 -1.06105 -10.5
      vertex 1.25398 -0.911067 -1.9
      vertex 1.25398 -0.911067 -10.5
    endloop
  endfacet
  facet normal -0.770505 0.637434 0
    outer loop
      vertex 1.25398 -0.911067 -1.9
      vertex 1.1299 -1.06105 -10.5
      vertex 1.1299 -1.06105 -1.9
    endloop
  endfacet
  facet normal -0.481741 0.876314 0
    outer loop
      vertex 0.830531 -1.30871 -10.5
      vertex 0.659958 -1.40248 -1.9
      vertex 0.830531 -1.30871 -1.9
    endloop
  endfacet
  facet normal -0.481741 0.876314 0
    outer loop
      vertex 0.659958 -1.40248 -1.9
      vertex 0.830531 -1.30871 -10.5
      vertex 0.659958 -1.40248 -10.5
    endloop
  endfacet
  facet normal -0.904822 0.425789 0
    outer loop
      vertex 1.35827 -0.746717 -10.5
      vertex 1.44115 -0.570593 -1.9
      vertex 1.44115 -0.570593 -10.5
    endloop
  endfacet
  facet normal -0.904822 0.425789 0
    outer loop
      vertex 1.44115 -0.570593 -1.9
      vertex 1.35827 -0.746717 -10.5
      vertex 1.35827 -0.746717 -1.9
    endloop
  endfacet
  facet normal -0.84435 0.535791 0
    outer loop
      vertex 1.25398 -0.911067 -10.5
      vertex 1.35827 -0.746717 -1.9
      vertex 1.35827 -0.746717 -10.5
    endloop
  endfacet
  facet normal -0.84435 0.535791 0
    outer loop
      vertex 1.35827 -0.746717 -1.9
      vertex 1.25398 -0.911067 -10.5
      vertex 1.25398 -0.911067 -1.9
    endloop
  endfacet
  facet normal 0.125352 0.992112 -0
    outer loop
      vertex -0.0973244 -1.54694 -10.5
      vertex -0.290441 -1.52254 -1.9
      vertex -0.0973244 -1.54694 -1.9
    endloop
  endfacet
  facet normal 0.125352 0.992112 0
    outer loop
      vertex -0.290441 -1.52254 -1.9
      vertex -0.0973244 -1.54694 -10.5
      vertex -0.290441 -1.52254 -10.5
    endloop
  endfacet
  facet normal 0.368143 0.929769 -0
    outer loop
      vertex -0.478976 -1.47414 -10.5
      vertex -0.659958 -1.40248 -1.9
      vertex -0.478976 -1.47414 -1.9
    endloop
  endfacet
  facet normal 0.368143 0.929769 0
    outer loop
      vertex -0.659958 -1.40248 -1.9
      vertex -0.478976 -1.47414 -10.5
      vertex -0.659958 -1.40248 -10.5
    endloop
  endfacet
  facet normal 0.84435 0.535791 0
    outer loop
      vertex -1.25398 -0.911067 -1.9
      vertex -1.35827 -0.746717 -10.5
      vertex -1.35827 -0.746717 -1.9
    endloop
  endfacet
  facet normal 0.84435 0.535791 0
    outer loop
      vertex -1.35827 -0.746717 -10.5
      vertex -1.25398 -0.911067 -1.9
      vertex -1.25398 -0.911067 -10.5
    endloop
  endfacet
  facet normal 0.982281 0.187412 0
    outer loop
      vertex -1.5013 -0.385468 -1.9
      vertex -1.53778 -0.194266 -10.5
      vertex -1.53778 -0.194266 -1.9
    endloop
  endfacet
  facet normal 0.982281 0.187412 0
    outer loop
      vertex -1.53778 -0.194266 -10.5
      vertex -1.5013 -0.385468 -1.9
      vertex -1.5013 -0.385468 -10.5
    endloop
  endfacet
  facet normal 0.998027 0.0627794 0
    outer loop
      vertex -1.53778 -0.194266 -1.9
      vertex -1.55 0 -10.5
      vertex -1.55 0 -1.9
    endloop
  endfacet
  facet normal 0.998027 0.0627794 0
    outer loop
      vertex -1.55 0 -10.5
      vertex -1.53778 -0.194266 -1.9
      vertex -1.53778 -0.194266 -10.5
    endloop
  endfacet
  facet normal -0.68453 0.728985 0
    outer loop
      vertex 1.1299 -1.06105 -10.5
      vertex 0.988007 -1.19429 -1.9
      vertex 1.1299 -1.06105 -1.9
    endloop
  endfacet
  facet normal -0.68453 0.728985 0
    outer loop
      vertex 0.988007 -1.19429 -1.9
      vertex 1.1299 -1.06105 -10.5
      vertex 0.988007 -1.19429 -10.5
    endloop
  endfacet
  facet normal -0.248653 0.968593 0
    outer loop
      vertex 0.478976 -1.47414 -10.5
      vertex 0.290441 -1.52254 -1.9
      vertex 0.478976 -1.47414 -1.9
    endloop
  endfacet
  facet normal -0.248653 0.968593 0
    outer loop
      vertex 0.290441 -1.52254 -1.9
      vertex 0.478976 -1.47414 -10.5
      vertex 0.290441 -1.52254 -10.5
    endloop
  endfacet
  facet normal -0.125352 0.992112 0
    outer loop
      vertex 0.290441 -1.52254 -10.5
      vertex 0.0973244 -1.54694 -1.9
      vertex 0.290441 -1.52254 -1.9
    endloop
  endfacet
  facet normal -0.125352 0.992112 0
    outer loop
      vertex 0.0973244 -1.54694 -1.9
      vertex 0.290441 -1.52254 -10.5
      vertex 0.0973244 -1.54694 -10.5
    endloop
  endfacet
  facet normal 0.481741 0.876314 -0
    outer loop
      vertex -0.659958 -1.40248 -10.5
      vertex -0.830531 -1.30871 -1.9
      vertex -0.659958 -1.40248 -1.9
    endloop
  endfacet
  facet normal 0.481741 0.876314 0
    outer loop
      vertex -0.830531 -1.30871 -1.9
      vertex -0.659958 -1.40248 -10.5
      vertex -0.830531 -1.30871 -10.5
    endloop
  endfacet
  facet normal 0.587809 0.809 -0
    outer loop
      vertex -0.830531 -1.30871 -10.5
      vertex -0.988007 -1.19429 -1.9
      vertex -0.830531 -1.30871 -1.9
    endloop
  endfacet
  facet normal 0.587809 0.809 0
    outer loop
      vertex -0.988007 -1.19429 -1.9
      vertex -0.830531 -1.30871 -10.5
      vertex -0.988007 -1.19429 -10.5
    endloop
  endfacet
  facet normal -0.951058 0.309011 0
    outer loop
      vertex -6.78008 1.74083 -10.5
      vertex -6.50844 2.57687 0
      vertex -6.50844 2.57687 -10.5
    endloop
  endfacet
  facet normal -0.951058 0.309011 0
    outer loop
      vertex -6.50844 2.57687 0
      vertex -6.78008 1.74083 -10.5
      vertex -6.78008 1.74083 0
    endloop
  endfacet
  facet normal 0.844326 0.535829 0
    outer loop
      vertex 6.13415 3.37228 0
      vertex 5.66312 4.1145 -10.5
      vertex 5.66312 4.1145 0
    endloop
  endfacet
  facet normal 0.844326 0.535829 0
    outer loop
      vertex 5.66312 4.1145 -10.5
      vertex 6.13415 3.37228 0
      vertex 6.13415 3.37228 -10.5
    endloop
  endfacet
  facet normal 0.368131 0.929774 -0
    outer loop
      vertex 2.98045 6.33379 -10.5
      vertex 2.16312 6.6574 0
      vertex 2.98045 6.33379 0
    endloop
  endfacet
  facet normal 0.368131 0.929774 0
    outer loop
      vertex 2.16312 6.6574 0
      vertex 2.98045 6.33379 -10.5
      vertex 2.16312 6.6574 -10.5
    endloop
  endfacet
  facet normal -0.368131 0.929774 0
    outer loop
      vertex -2.16312 6.6574 -10.5
      vertex -2.98045 6.33379 0
      vertex -2.16312 6.6574 0
    endloop
  endfacet
  facet normal -0.368131 0.929774 0
    outer loop
      vertex -2.98045 6.33379 0
      vertex -2.16312 6.6574 -10.5
      vertex -2.98045 6.33379 -10.5
    endloop
  endfacet
  facet normal -0.904828 0.425778 0
    outer loop
      vertex -6.50844 2.57687 -10.5
      vertex -6.13415 3.37228 0
      vertex -6.13415 3.37228 -10.5
    endloop
  endfacet
  facet normal -0.904828 0.425778 0
    outer loop
      vertex -6.13415 3.37228 0
      vertex -6.50844 2.57687 -10.5
      vertex -6.50844 2.57687 0
    endloop
  endfacet
  facet normal 0.998027 -0.0627939 0
    outer loop
      vertex 6.9448 -0.877332 0
      vertex 7 0 -10.5
      vertex 7 0 0
    endloop
  endfacet
  facet normal 0.998027 -0.0627939 0
    outer loop
      vertex 7 0 -10.5
      vertex 6.9448 -0.877332 0
      vertex 6.9448 -0.877332 -10.5
    endloop
  endfacet
  facet normal 0.368131 -0.929774 0
    outer loop
      vertex 2.16312 -6.6574 -10.5
      vertex 2.98045 -6.33379 0
      vertex 2.16312 -6.6574 0
    endloop
  endfacet
  facet normal 0.368131 -0.929774 0
    outer loop
      vertex 2.98045 -6.33379 0
      vertex 2.16312 -6.6574 -10.5
      vertex 2.98045 -6.33379 -10.5
    endloop
  endfacet
  facet normal 0.684547 0.728969 -0
    outer loop
      vertex 5.10278 4.79183 -10.5
      vertex 4.46197 5.39359 0
      vertex 5.10278 4.79183 0
    endloop
  endfacet
  facet normal 0.684547 0.728969 0
    outer loop
      vertex 4.46197 5.39359 0
      vertex 5.10278 4.79183 -10.5
      vertex 4.46197 5.39359 -10.5
    endloop
  endfacet
  facet normal 0 1 -0
    outer loop
      vertex 0.439533 6.98619 -10.5
      vertex -0.439533 6.98619 0
      vertex 0.439533 6.98619 0
    endloop
  endfacet
  facet normal 0 1 0
    outer loop
      vertex -0.439533 6.98619 0
      vertex 0.439533 6.98619 -10.5
      vertex -0.439533 6.98619 -10.5
    endloop
  endfacet
  facet normal -0.770511 0.637427 0
    outer loop
      vertex -5.66312 4.1145 -10.5
      vertex -5.10278 4.79183 0
      vertex -5.10278 4.79183 -10.5
    endloop
  endfacet
  facet normal -0.770511 0.637427 0
    outer loop
      vertex -5.10278 4.79183 0
      vertex -5.66312 4.1145 -10.5
      vertex -5.66312 4.1145 0
    endloop
  endfacet
  facet normal -0.684547 0.728969 0
    outer loop
      vertex -4.46197 5.39359 -10.5
      vertex -5.10278 4.79183 0
      vertex -4.46197 5.39359 0
    endloop
  endfacet
  facet normal -0.684547 0.728969 0
    outer loop
      vertex -5.10278 4.79183 0
      vertex -4.46197 5.39359 -10.5
      vertex -5.10278 4.79183 -10.5
    endloop
  endfacet
  facet normal 0.587783 -0.809018 0
    outer loop
      vertex 3.75079 -5.91029 -10.5
      vertex 4.46197 -5.39359 0
      vertex 3.75079 -5.91029 0
    endloop
  endfacet
  facet normal 0.587783 -0.809018 0
    outer loop
      vertex 4.46197 -5.39359 0
      vertex 3.75079 -5.91029 -10.5
      vertex 4.46197 -5.39359 -10.5
    endloop
  endfacet
  facet normal 0.904828 -0.425778 0
    outer loop
      vertex 6.13415 -3.37228 0
      vertex 6.50844 -2.57687 -10.5
      vertex 6.50844 -2.57687 0
    endloop
  endfacet
  facet normal 0.904828 -0.425778 0
    outer loop
      vertex 6.50844 -2.57687 -10.5
      vertex 6.13415 -3.37228 0
      vertex 6.13415 -3.37228 -10.5
    endloop
  endfacet
  facet normal 0.248684 -0.968585 0
    outer loop
      vertex 1.31167 -6.87601 -10.5
      vertex 2.16312 -6.6574 0
      vertex 1.31167 -6.87601 0
    endloop
  endfacet
  facet normal 0.248684 -0.968585 0
    outer loop
      vertex 2.16312 -6.6574 0
      vertex 1.31167 -6.87601 -10.5
      vertex 2.16312 -6.6574 -10.5
    endloop
  endfacet
  facet normal 0.770511 0.637427 0
    outer loop
      vertex 5.66312 4.1145 0
      vertex 5.10278 4.79183 -10.5
      vertex 5.10278 4.79183 0
    endloop
  endfacet
  facet normal 0.770511 0.637427 0
    outer loop
      vertex 5.10278 4.79183 -10.5
      vertex 5.66312 4.1145 0
      vertex 5.66312 4.1145 -10.5
    endloop
  endfacet
  facet normal 0.248684 0.968585 -0
    outer loop
      vertex 2.16312 6.6574 -10.5
      vertex 1.31167 6.87601 0
      vertex 2.16312 6.6574 0
    endloop
  endfacet
  facet normal 0.248684 0.968585 0
    outer loop
      vertex 1.31167 6.87601 0
      vertex 2.16312 6.6574 -10.5
      vertex 1.31167 6.87601 -10.5
    endloop
  endfacet
  facet normal 0.125337 0.992114 -0
    outer loop
      vertex 1.31167 6.87601 -10.5
      vertex 0.439533 6.98619 0
      vertex 1.31167 6.87601 0
    endloop
  endfacet
  facet normal 0.125337 0.992114 0
    outer loop
      vertex 0.439533 6.98619 0
      vertex 1.31167 6.87601 -10.5
      vertex 0.439533 6.98619 -10.5
    endloop
  endfacet
  facet normal 0.587783 0.809018 -0
    outer loop
      vertex 4.46197 5.39359 -10.5
      vertex 3.75079 5.91029 0
      vertex 4.46197 5.39359 0
    endloop
  endfacet
  facet normal 0.587783 0.809018 0
    outer loop
      vertex 3.75079 5.91029 0
      vertex 4.46197 5.39359 -10.5
      vertex 3.75079 5.91029 -10.5
    endloop
  endfacet
  facet normal 0.481755 0.876306 -0
    outer loop
      vertex 3.75079 5.91029 -10.5
      vertex 2.98045 6.33379 0
      vertex 3.75079 5.91029 0
    endloop
  endfacet
  facet normal 0.481755 0.876306 0
    outer loop
      vertex 2.98045 6.33379 0
      vertex 3.75079 5.91029 -10.5
      vertex 2.98045 6.33379 -10.5
    endloop
  endfacet
  facet normal -0.998027 0.0627939 0
    outer loop
      vertex -7 0 -10.5
      vertex -6.9448 0.877332 0
      vertex -6.9448 0.877332 -10.5
    endloop
  endfacet
  facet normal -0.998027 0.0627939 0
    outer loop
      vertex -6.9448 0.877332 0
      vertex -7 0 -10.5
      vertex -7 0 0
    endloop
  endfacet
  facet normal -0.982287 0.18738 0
    outer loop
      vertex -6.9448 0.877332 -10.5
      vertex -6.78008 1.74083 0
      vertex -6.78008 1.74083 -10.5
    endloop
  endfacet
  facet normal -0.982287 0.18738 0
    outer loop
      vertex -6.78008 1.74083 0
      vertex -6.9448 0.877332 -10.5
      vertex -6.9448 0.877332 0
    endloop
  endfacet
  facet normal -0.844326 0.535829 0
    outer loop
      vertex -6.13415 3.37228 -10.5
      vertex -5.66312 4.1145 0
      vertex -5.66312 4.1145 -10.5
    endloop
  endfacet
  facet normal -0.844326 0.535829 0
    outer loop
      vertex -5.66312 4.1145 0
      vertex -6.13415 3.37228 -10.5
      vertex -6.13415 3.37228 0
    endloop
  endfacet
  facet normal -0.125337 0.992114 0
    outer loop
      vertex -0.439533 6.98619 -10.5
      vertex -1.31167 6.87601 0
      vertex -0.439533 6.98619 0
    endloop
  endfacet
  facet normal -0.125337 0.992114 0
    outer loop
      vertex -1.31167 6.87601 0
      vertex -0.439533 6.98619 -10.5
      vertex -1.31167 6.87601 -10.5
    endloop
  endfacet
  facet normal -0.248684 0.968585 0
    outer loop
      vertex -1.31167 6.87601 -10.5
      vertex -2.16312 6.6574 0
      vertex -1.31167 6.87601 0
    endloop
  endfacet
  facet normal -0.248684 0.968585 0
    outer loop
      vertex -2.16312 6.6574 0
      vertex -1.31167 6.87601 -10.5
      vertex -2.16312 6.6574 -10.5
    endloop
  endfacet
  facet normal -0.481755 0.876306 0
    outer loop
      vertex -2.98045 6.33379 -10.5
      vertex -3.75079 5.91029 0
      vertex -2.98045 6.33379 0
    endloop
  endfacet
  facet normal -0.481755 0.876306 0
    outer loop
      vertex -3.75079 5.91029 0
      vertex -2.98045 6.33379 -10.5
      vertex -3.75079 5.91029 -10.5
    endloop
  endfacet
  facet normal -0.587783 0.809018 0
    outer loop
      vertex -3.75079 5.91029 -10.5
      vertex -4.46197 5.39359 0
      vertex -3.75079 5.91029 0
    endloop
  endfacet
  facet normal -0.587783 0.809018 0
    outer loop
      vertex -4.46197 5.39359 0
      vertex -3.75079 5.91029 -10.5
      vertex -4.46197 5.39359 -10.5
    endloop
  endfacet
  facet normal 0.998027 0.0627939 0
    outer loop
      vertex 7 0 0
      vertex 6.9448 0.877332 -10.5
      vertex 6.9448 0.877332 0
    endloop
  endfacet
  facet normal 0.998027 0.0627939 0
    outer loop
      vertex 6.9448 0.877332 -10.5
      vertex 7 0 0
      vertex 7 0 -10.5
    endloop
  endfacet
  facet normal 0.770511 -0.637427 0
    outer loop
      vertex 5.10278 -4.79183 0
      vertex 5.66312 -4.1145 -10.5
      vertex 5.66312 -4.1145 0
    endloop
  endfacet
  facet normal 0.770511 -0.637427 0
    outer loop
      vertex 5.66312 -4.1145 -10.5
      vertex 5.10278 -4.79183 0
      vertex 5.10278 -4.79183 -10.5
    endloop
  endfacet
  facet normal 0.844326 -0.535829 0
    outer loop
      vertex 5.66312 -4.1145 0
      vertex 6.13415 -3.37228 -10.5
      vertex 6.13415 -3.37228 0
    endloop
  endfacet
  facet normal 0.844326 -0.535829 0
    outer loop
      vertex 6.13415 -3.37228 -10.5
      vertex 5.66312 -4.1145 0
      vertex 5.66312 -4.1145 -10.5
    endloop
  endfacet
  facet normal 0.125337 -0.992114 0
    outer loop
      vertex 0.439533 -6.98619 -10.5
      vertex 1.31167 -6.87601 0
      vertex 0.439533 -6.98619 0
    endloop
  endfacet
  facet normal 0.125337 -0.992114 0
    outer loop
      vertex 1.31167 -6.87601 0
      vertex 0.439533 -6.98619 -10.5
      vertex 1.31167 -6.87601 -10.5
    endloop
  endfacet
  facet normal 0.684547 -0.728969 0
    outer loop
      vertex 4.46197 -5.39359 -10.5
      vertex 5.10278 -4.79183 0
      vertex 4.46197 -5.39359 0
    endloop
  endfacet
  facet normal 0.684547 -0.728969 0
    outer loop
      vertex 5.10278 -4.79183 0
      vertex 4.46197 -5.39359 -10.5
      vertex 5.10278 -4.79183 -10.5
    endloop
  endfacet
  facet normal 0.904828 0.425778 0
    outer loop
      vertex 6.50844 2.57687 0
      vertex 6.13415 3.37228 -10.5
      vertex 6.13415 3.37228 0
    endloop
  endfacet
  facet normal 0.904828 0.425778 0
    outer loop
      vertex 6.13415 3.37228 -10.5
      vertex 6.50844 2.57687 0
      vertex 6.50844 2.57687 -10.5
    endloop
  endfacet
  facet normal 0.951058 0.309011 0
    outer loop
      vertex 6.78008 1.74083 0
      vertex 6.50844 2.57687 -10.5
      vertex 6.50844 2.57687 0
    endloop
  endfacet
  facet normal 0.951058 0.309011 0
    outer loop
      vertex 6.50844 2.57687 -10.5
      vertex 6.78008 1.74083 0
      vertex 6.78008 1.74083 -10.5
    endloop
  endfacet
  facet normal 0.982287 0.18738 0
    outer loop
      vertex 6.9448 0.877332 0
      vertex 6.78008 1.74083 -10.5
      vertex 6.78008 1.74083 0
    endloop
  endfacet
  facet normal 0.982287 0.18738 0
    outer loop
      vertex 6.78008 1.74083 -10.5
      vertex 6.9448 0.877332 0
      vertex 6.9448 0.877332 -10.5
    endloop
  endfacet
  facet normal 0.982287 -0.18738 0
    outer loop
      vertex 6.78008 -1.74083 0
      vertex 6.9448 -0.877332 -10.5
      vertex 6.9448 -0.877332 0
    endloop
  endfacet
  facet normal 0.982287 -0.18738 0
    outer loop
      vertex 6.9448 -0.877332 -10.5
      vertex 6.78008 -1.74083 0
      vertex 6.78008 -1.74083 -10.5
    endloop
  endfacet
  facet normal 0 -1 0
    outer loop
      vertex -0.439533 -6.98619 -10.5
      vertex 0.439533 -6.98619 0
      vertex -0.439533 -6.98619 0
    endloop
  endfacet
  facet normal 0 -1 -0
    outer loop
      vertex 0.439533 -6.98619 0
      vertex -0.439533 -6.98619 -10.5
      vertex 0.439533 -6.98619 -10.5
    endloop
  endfacet
  facet normal -0.368131 -0.929774 0
    outer loop
      vertex -2.98045 -6.33379 -10.5
      vertex -2.16312 -6.6574 0
      vertex -2.98045 -6.33379 0
    endloop
  endfacet
  facet normal -0.368131 -0.929774 -0
    outer loop
      vertex -2.16312 -6.6574 0
      vertex -2.98045 -6.33379 -10.5
      vertex -2.16312 -6.6574 -10.5
    endloop
  endfacet
  facet normal -0.998027 -0.0627939 0
    outer loop
      vertex -6.9448 -0.877332 -10.5
      vertex -7 0 0
      vertex -7 0 -10.5
    endloop
  endfacet
  facet normal -0.998027 -0.0627939 0
    outer loop
      vertex -7 0 0
      vertex -6.9448 -0.877332 -10.5
      vertex -6.9448 -0.877332 0
    endloop
  endfacet
  facet normal -0.951058 -0.309011 0
    outer loop
      vertex -6.50844 -2.57687 -10.5
      vertex -6.78008 -1.74083 0
      vertex -6.78008 -1.74083 -10.5
    endloop
  endfacet
  facet normal -0.951058 -0.309011 0
    outer loop
      vertex -6.78008 -1.74083 0
      vertex -6.50844 -2.57687 -10.5
      vertex -6.50844 -2.57687 0
    endloop
  endfacet
  facet normal -0.904828 -0.425778 0
    outer loop
      vertex -6.13415 -3.37228 -10.5
      vertex -6.50844 -2.57687 0
      vertex -6.50844 -2.57687 -10.5
    endloop
  endfacet
  facet normal -0.904828 -0.425778 0
    outer loop
      vertex -6.50844 -2.57687 0
      vertex -6.13415 -3.37228 -10.5
      vertex -6.13415 -3.37228 0
    endloop
  endfacet
  facet normal 0.481755 -0.876306 0
    outer loop
      vertex 2.98045 -6.33379 -10.5
      vertex 3.75079 -5.91029 0
      vertex 2.98045 -6.33379 0
    endloop
  endfacet
  facet normal 0.481755 -0.876306 0
    outer loop
      vertex 3.75079 -5.91029 0
      vertex 2.98045 -6.33379 -10.5
      vertex 3.75079 -5.91029 -10.5
    endloop
  endfacet
  facet normal 0.951058 -0.309011 0
    outer loop
      vertex 6.50844 -2.57687 0
      vertex 6.78008 -1.74083 -10.5
      vertex 6.78008 -1.74083 0
    endloop
  endfacet
  facet normal 0.951058 -0.309011 0
    outer loop
      vertex 6.78008 -1.74083 -10.5
      vertex 6.50844 -2.57687 0
      vertex 6.50844 -2.57687 -10.5
    endloop
  endfacet
  facet normal -0.684547 -0.728969 0
    outer loop
      vertex -5.10278 -4.79183 -10.5
      vertex -4.46197 -5.39359 0
      vertex -5.10278 -4.79183 0
    endloop
  endfacet
  facet normal -0.684547 -0.728969 -0
    outer loop
      vertex -4.46197 -5.39359 0
      vertex -5.10278 -4.79183 -10.5
      vertex -4.46197 -5.39359 -10.5
    endloop
  endfacet
  facet normal -0.248684 -0.968585 0
    outer loop
      vertex -2.16312 -6.6574 -10.5
      vertex -1.31167 -6.87601 0
      vertex -2.16312 -6.6574 0
    endloop
  endfacet
  facet normal -0.248684 -0.968585 -0
    outer loop
      vertex -1.31167 -6.87601 0
      vertex -2.16312 -6.6574 -10.5
      vertex -1.31167 -6.87601 -10.5
    endloop
  endfacet
  facet normal -0.587783 -0.809018 0
    outer loop
      vertex -4.46197 -5.39359 -10.5
      vertex -3.75079 -5.91029 0
      vertex -4.46197 -5.39359 0
    endloop
  endfacet
  facet normal -0.587783 -0.809018 -0
    outer loop
      vertex -3.75079 -5.91029 0
      vertex -4.46197 -5.39359 -10.5
      vertex -3.75079 -5.91029 -10.5
    endloop
  endfacet
  facet normal -0.481755 -0.876306 0
    outer loop
      vertex -3.75079 -5.91029 -10.5
      vertex -2.98045 -6.33379 0
      vertex -3.75079 -5.91029 0
    endloop
  endfacet
  facet normal -0.481755 -0.876306 -0
    outer loop
      vertex -2.98045 -6.33379 0
      vertex -3.75079 -5.91029 -10.5
      vertex -2.98045 -6.33379 -10.5
    endloop
  endfacet
  facet normal 0 0 -1
    outer loop
      vertex 1.55 0 -10.5
      vertex 7 0 -10.5
      vertex 6.9448 -0.877332 -10.5
    endloop
  endfacet
  facet normal 0 0 -1
    outer loop
      vertex 1.53778 -0.194266 -10.5
      vertex 6.9448 -0.877332 -10.5
      vertex 6.78008 -1.74083 -10.5
    endloop
  endfacet
  facet normal 0 0 -1
    outer loop
      vertex 7 0 -10.5
      vertex 1.55 0 -10.5
      vertex 6.9448 0.877332 -10.5
    endloop
  endfacet
  facet normal 0 0 -1
    outer loop
      vertex 1.5013 -0.385468 -10.5
      vertex 6.78008 -1.74083 -10.5
      vertex 6.50844 -2.57687 -10.5
    endloop
  endfacet
  facet normal 0 0 -1
    outer loop
      vertex 1.53778 0.194266 -10.5
      vertex 6.9448 0.877332 -10.5
      vertex 1.55 0 -10.5
    endloop
  endfacet
  facet normal 0 0 -1
    outer loop
      vertex 1.44115 -0.570593 -10.5
      vertex 6.50844 -2.57687 -10.5
      vertex 6.13415 -3.37228 -10.5
    endloop
  endfacet
  facet normal -0 0 -1
    outer loop
      vertex 6.9448 0.877332 -10.5
      vertex 1.53778 0.194266 -10.5
      vertex 6.78008 1.74083 -10.5
    endloop
  endfacet
  facet normal 0 0 -1
    outer loop
      vertex 1.35827 -0.746717 -10.5
      vertex 6.13415 -3.37228 -10.5
      vertex 5.66312 -4.1145 -10.5
    endloop
  endfacet
  facet normal 0 0 -1
    outer loop
      vertex 1.5013 0.385468 -10.5
      vertex 6.78008 1.74083 -10.5
      vertex 1.53778 0.194266 -10.5
    endloop
  endfacet
  facet normal 0 0 -1
    outer loop
      vertex 1.25398 -0.911067 -10.5
      vertex 5.66312 -4.1145 -10.5
      vertex 5.10278 -4.79183 -10.5
    endloop
  endfacet
  facet normal -0 0 -1
    outer loop
      vertex 6.78008 1.74083 -10.5
      vertex 1.5013 0.385468 -10.5
      vertex 6.50844 2.57687 -10.5
    endloop
  endfacet
  facet normal 0 0 -1
    outer loop
      vertex 1.1299 -1.06105 -10.5
      vertex 5.10278 -4.79183 -10.5
      vertex 4.46197 -5.39359 -10.5
    endloop
  endfacet
  facet normal 0 0 -1
    outer loop
      vertex 1.44115 0.570593 -10.5
      vertex 6.50844 2.57687 -10.5
      vertex 1.5013 0.385468 -10.5
    endloop
  endfacet
  facet normal 0 0 -1
    outer loop
      vertex 0.988007 -1.19429 -10.5
      vertex 4.46197 -5.39359 -10.5
      vertex 3.75079 -5.91029 -10.5
    endloop
  endfacet
  facet normal -0 0 -1
    outer loop
      vertex 6.50844 2.57687 -10.5
      vertex 1.44115 0.570593 -10.5
      vertex 6.13415 3.37228 -10.5
    endloop
  endfacet
  facet normal 0 0 -1
    outer loop
      vertex 0.830531 -1.30871 -10.5
      vertex 3.75079 -5.91029 -10.5
      vertex 2.98045 -6.33379 -10.5
    endloop
  endfacet
  facet normal 0 0 -1
    outer loop
      vertex 1.35827 0.746717 -10.5
      vertex 6.13415 3.37228 -10.5
      vertex 1.44115 0.570593 -10.5
    endloop
  endfacet
  facet normal 0 0 -1
    outer loop
      vertex 0.659958 -1.40248 -10.5
      vertex 2.98045 -6.33379 -10.5
      vertex 2.16312 -6.6574 -10.5
    endloop
  endfacet
  facet normal -0 0 -1
    outer loop
      vertex 6.13415 3.37228 -10.5
      vertex 1.35827 0.746717 -10.5
      vertex 5.66312 4.1145 -10.5
    endloop
  endfacet
  facet normal 0 0 -1
    outer loop
      vertex 1.25398 0.911067 -10.5
      vertex 5.66312 4.1145 -10.5
      vertex 1.35827 0.746717 -10.5
    endloop
  endfacet
  facet normal 0 0 -1
    outer loop
      vertex 6.9448 -0.877332 -10.5
      vertex 1.53778 -0.194266 -10.5
      vertex 1.55 0 -10.5
    endloop
  endfacet
  facet normal 0 0 -1
    outer loop
      vertex 6.78008 -1.74083 -10.5
      vertex 1.5013 -0.385468 -10.5
      vertex 1.53778 -0.194266 -10.5
    endloop
  endfacet
  facet normal 0 0 -1
    outer loop
      vertex 6.50844 -2.57687 -10.5
      vertex 1.44115 -0.570593 -10.5
      vertex 1.5013 -0.385468 -10.5
    endloop
  endfacet
  facet normal 0 0 -1
    outer loop
      vertex 6.13415 -3.37228 -10.5
      vertex 1.35827 -0.746717 -10.5
      vertex 1.44115 -0.570593 -10.5
    endloop
  endfacet
  facet normal 0 0 -1
    outer loop
      vertex 0.478976 -1.47414 -10.5
      vertex 2.16312 -6.6574 -10.5
      vertex 1.31167 -6.87601 -10.5
    endloop
  endfacet
  facet normal 0 0 -1
    outer loop
      vertex 5.66312 -4.1145 -10.5
      vertex 1.25398 -0.911067 -10.5
      vertex 1.35827 -0.746717 -10.5
    endloop
  endfacet
  facet normal 0 0 -1
    outer loop
      vertex 5.10278 -4.79183 -10.5
      vertex 1.1299 -1.06105 -10.5
      vertex 1.25398 -0.911067 -10.5
    endloop
  endfacet
  facet normal 0 0 -1
    outer loop
      vertex 4.46197 -5.39359 -10.5
      vertex 0.988007 -1.19429 -10.5
      vertex 1.1299 -1.06105 -10.5
    endloop
  endfacet
  facet normal 0 0 -1
    outer loop
      vertex 3.75079 -5.91029 -10.5
      vertex 0.830531 -1.30871 -10.5
      vertex 0.988007 -1.19429 -10.5
    endloop
  endfacet
  facet normal 0 0 -1
    outer loop
      vertex 2.98045 -6.33379 -10.5
      vertex 0.659958 -1.40248 -10.5
      vertex 0.830531 -1.30871 -10.5
    endloop
  endfacet
  facet normal 0 0 -1
    outer loop
      vertex 2.16312 -6.6574 -10.5
      vertex 0.478976 -1.47414 -10.5
      vertex 0.659958 -1.40248 -10.5
    endloop
  endfacet
  facet normal 0 0 -1
    outer loop
      vertex 0.290441 -1.52254 -10.5
      vertex 1.31167 -6.87601 -10.5
      vertex 0.439533 -6.98619 -10.5
    endloop
  endfacet
  facet normal 0 0 -1
    outer loop
      vertex 1.31167 -6.87601 -10.5
      vertex 0.290441 -1.52254 -10.5
      vertex 0.478976 -1.47414 -10.5
    endloop
  endfacet
  facet normal 0 0 -1
    outer loop
      vertex 0.439533 -6.98619 -10.5
      vertex 0.0973244 -1.54694 -10.5
      vertex 0.290441 -1.52254 -10.5
    endloop
  endfacet
  facet normal 0 0 -1
    outer loop
      vertex 0.439533 -6.98619 -10.5
      vertex -0.0973244 -1.54694 -10.5
      vertex 0.0973244 -1.54694 -10.5
    endloop
  endfacet
  facet normal 0 0 -1
    outer loop
      vertex -0.439533 -6.98619 -10.5
      vertex -0.0973244 -1.54694 -10.5
      vertex 0.439533 -6.98619 -10.5
    endloop
  endfacet
  facet normal -0 0 -1
    outer loop
      vertex -0.0973244 -1.54694 -10.5
      vertex -0.439533 -6.98619 -10.5
      vertex -0.290441 -1.52254 -10.5
    endloop
  endfacet
  facet normal 0 0 -1
    outer loop
      vertex -1.31167 -6.87601 -10.5
      vertex -0.290441 -1.52254 -10.5
      vertex -0.439533 -6.98619 -10.5
    endloop
  endfacet
  facet normal -0 0 -1
    outer loop
      vertex -0.290441 -1.52254 -10.5
      vertex -1.31167 -6.87601 -10.5
      vertex -0.478976 -1.47414 -10.5
    endloop
  endfacet
  facet normal 0 0 -1
    outer loop
      vertex -2.16312 -6.6574 -10.5
      vertex -0.478976 -1.47414 -10.5
      vertex -1.31167 -6.87601 -10.5
    endloop
  endfacet
  facet normal -0 0 -1
    outer loop
      vertex -0.478976 -1.47414 -10.5
      vertex -2.16312 -6.6574 -10.5
      vertex -0.659958 -1.40248 -10.5
    endloop
  endfacet
  facet normal 0 0 -1
    outer loop
      vertex -2.98045 -6.33379 -10.5
      vertex -0.659958 -1.40248 -10.5
      vertex -2.16312 -6.6574 -10.5
    endloop
  endfacet
  facet normal -0 0 -1
    outer loop
      vertex -0.659958 -1.40248 -10.5
      vertex -2.98045 -6.33379 -10.5
      vertex -0.830531 -1.30871 -10.5
    endloop
  endfacet
  facet normal 0 0 -1
    outer loop
      vertex -3.75079 -5.91029 -10.5
      vertex -0.830531 -1.30871 -10.5
      vertex -2.98045 -6.33379 -10.5
    endloop
  endfacet
  facet normal -0 0 -1
    outer loop
      vertex -0.830531 -1.30871 -10.5
      vertex -3.75079 -5.91029 -10.5
      vertex -0.988007 -1.19429 -10.5
    endloop
  endfacet
  facet normal 0 0 -1
    outer loop
      vertex -4.46197 -5.39359 -10.5
      vertex -0.988007 -1.19429 -10.5
      vertex -3.75079 -5.91029 -10.5
    endloop
  endfacet
  facet normal -0 0 -1
    outer loop
      vertex -0.988007 -1.19429 -10.5
      vertex -4.46197 -5.39359 -10.5
      vertex -1.1299 -1.06105 -10.5
    endloop
  endfacet
  facet normal 0 0 -1
    outer loop
      vertex -5.10278 -4.79183 -10.5
      vertex -1.1299 -1.06105 -10.5
      vertex -4.46197 -5.39359 -10.5
    endloop
  endfacet
  facet normal -0 0 -1
    outer loop
      vertex -1.1299 -1.06105 -10.5
      vertex -5.10278 -4.79183 -10.5
      vertex -1.25398 -0.911067 -10.5
    endloop
  endfacet
  facet normal 0 0 -1
    outer loop
      vertex -5.66312 -4.1145 -10.5
      vertex -1.25398 -0.911067 -10.5
      vertex -5.10278 -4.79183 -10.5
    endloop
  endfacet
  facet normal -0 0 -1
    outer loop
      vertex 5.66312 4.1145 -10.5
      vertex 1.25398 0.911067 -10.5
      vertex 5.10278 4.79183 -10.5
    endloop
  endfacet
  facet normal 0 0 -1
    outer loop
      vertex 1.1299 1.06105 -10.5
      vertex 5.10278 4.79183 -10.5
      vertex 1.25398 0.911067 -10.5
    endloop
  endfacet
  facet normal -0 0 -1
    outer loop
      vertex 5.10278 4.79183 -10.5
      vertex 1.1299 1.06105 -10.5
      vertex 4.46197 5.39359 -10.5
    endloop
  endfacet
  facet normal 0 0 -1
    outer loop
      vertex 0.988007 1.19429 -10.5
      vertex 4.46197 5.39359 -10.5
      vertex 1.1299 1.06105 -10.5
    endloop
  endfacet
  facet normal -0 0 -1
    outer loop
      vertex 4.46197 5.39359 -10.5
      vertex 0.988007 1.19429 -10.5
      vertex 3.75079 5.91029 -10.5
    endloop
  endfacet
  facet normal 0 0 -1
    outer loop
      vertex 0.830531 1.30871 -10.5
      vertex 3.75079 5.91029 -10.5
      vertex 0.988007 1.19429 -10.5
    endloop
  endfacet
  facet normal -0 0 -1
    outer loop
      vertex 3.75079 5.91029 -10.5
      vertex 0.830531 1.30871 -10.5
      vertex 2.98045 6.33379 -10.5
    endloop
  endfacet
  facet normal 0 0 -1
    outer loop
      vertex 0.659958 1.40248 -10.5
      vertex 2.98045 6.33379 -10.5
      vertex 0.830531 1.30871 -10.5
    endloop
  endfacet
  facet normal -0 0 -1
    outer loop
      vertex 2.98045 6.33379 -10.5
      vertex 0.659958 1.40248 -10.5
      vertex 2.16312 6.6574 -10.5
    endloop
  endfacet
  facet normal 0 0 -1
    outer loop
      vertex 0.478976 1.47414 -10.5
      vertex 2.16312 6.6574 -10.5
      vertex 0.659958 1.40248 -10.5
    endloop
  endfacet
  facet normal -0 0 -1
    outer loop
      vertex 2.16312 6.6574 -10.5
      vertex 0.478976 1.47414 -10.5
      vertex 1.31167 6.87601 -10.5
    endloop
  endfacet
  facet normal 0 0 -1
    outer loop
      vertex 0.290441 1.52254 -10.5
      vertex 1.31167 6.87601 -10.5
      vertex 0.478976 1.47414 -10.5
    endloop
  endfacet
  facet normal -0 0 -1
    outer loop
      vertex 1.31167 6.87601 -10.5
      vertex 0.290441 1.52254 -10.5
      vertex 0.439533 6.98619 -10.5
    endloop
  endfacet
  facet normal 0 0 -1
    outer loop
      vertex 0.0973244 1.54694 -10.5
      vertex 0.439533 6.98619 -10.5
      vertex 0.290441 1.52254 -10.5
    endloop
  endfacet
  facet normal 0 0 -1
    outer loop
      vertex -0.0973244 1.54694 -10.5
      vertex 0.439533 6.98619 -10.5
      vertex 0.0973244 1.54694 -10.5
    endloop
  endfacet
  facet normal 0 0 -1
    outer loop
      vertex -0.439533 6.98619 -10.5
      vertex -0.0973244 1.54694 -10.5
      vertex -0.290441 1.52254 -10.5
    endloop
  endfacet
  facet normal 0 0 -1
    outer loop
      vertex -0.0973244 1.54694 -10.5
      vertex -0.439533 6.98619 -10.5
      vertex 0.439533 6.98619 -10.5
    endloop
  endfacet
  facet normal 0 0 -1
    outer loop
      vertex -1.31167 6.87601 -10.5
      vertex -0.290441 1.52254 -10.5
      vertex -0.478976 1.47414 -10.5
    endloop
  endfacet
  facet normal 0 0 -1
    outer loop
      vertex -2.16312 6.6574 -10.5
      vertex -0.478976 1.47414 -10.5
      vertex -0.659958 1.40248 -10.5
    endloop
  endfacet
  facet normal 0 0 -1
    outer loop
      vertex -2.98045 6.33379 -10.5
      vertex -0.659958 1.40248 -10.5
      vertex -0.830531 1.30871 -10.5
    endloop
  endfacet
  facet normal 0 0 -1
    outer loop
      vertex -3.75079 5.91029 -10.5
      vertex -0.830531 1.30871 -10.5
      vertex -0.988007 1.19429 -10.5
    endloop
  endfacet
  facet normal 0 0 -1
    outer loop
      vertex -4.46197 5.39359 -10.5
      vertex -0.988007 1.19429 -10.5
      vertex -1.1299 1.06105 -10.5
    endloop
  endfacet
  facet normal 0 0 -1
    outer loop
      vertex -5.10278 4.79183 -10.5
      vertex -1.1299 1.06105 -10.5
      vertex -1.25398 0.911067 -10.5
    endloop
  endfacet
  facet normal 0 0 -1
    outer loop
      vertex -0.290441 1.52254 -10.5
      vertex -1.31167 6.87601 -10.5
      vertex -0.439533 6.98619 -10.5
    endloop
  endfacet
  facet normal 0 0 -1
    outer loop
      vertex -5.66312 4.1145 -10.5
      vertex -1.25398 0.911067 -10.5
      vertex -1.35827 0.746717 -10.5
    endloop
  endfacet
  facet normal 0 0 -1
    outer loop
      vertex -6.13415 3.37228 -10.5
      vertex -1.35827 0.746717 -10.5
      vertex -1.44115 0.570593 -10.5
    endloop
  endfacet
  facet normal 0 0 -1
    outer loop
      vertex -6.50844 2.57687 -10.5
      vertex -1.44115 0.570593 -10.5
      vertex -1.5013 0.385468 -10.5
    endloop
  endfacet
  facet normal 0 0 -1
    outer loop
      vertex -6.78008 1.74083 -10.5
      vertex -1.5013 0.385468 -10.5
      vertex -1.53778 0.194266 -10.5
    endloop
  endfacet
  facet normal 0 0 -1
    outer loop
      vertex -6.9448 0.877332 -10.5
      vertex -1.53778 0.194266 -10.5
      vertex -1.55 0 -10.5
    endloop
  endfacet
  facet normal -0 0 -1
    outer loop
      vertex -1.25398 -0.911067 -10.5
      vertex -5.66312 -4.1145 -10.5
      vertex -1.35827 -0.746717 -10.5
    endloop
  endfacet
  facet normal 0 0 -1
    outer loop
      vertex -0.478976 1.47414 -10.5
      vertex -2.16312 6.6574 -10.5
      vertex -1.31167 6.87601 -10.5
    endloop
  endfacet
  facet normal 0 0 -1
    outer loop
      vertex -6.13415 -3.37228 -10.5
      vertex -1.35827 -0.746717 -10.5
      vertex -5.66312 -4.1145 -10.5
    endloop
  endfacet
  facet normal 0 0 -1
    outer loop
      vertex -0.659958 1.40248 -10.5
      vertex -2.98045 6.33379 -10.5
      vertex -2.16312 6.6574 -10.5
    endloop
  endfacet
  facet normal -0 0 -1
    outer loop
      vertex -1.35827 -0.746717 -10.5
      vertex -6.13415 -3.37228 -10.5
      vertex -1.44115 -0.570593 -10.5
    endloop
  endfacet
  facet normal 0 0 -1
    outer loop
      vertex -0.830531 1.30871 -10.5
      vertex -3.75079 5.91029 -10.5
      vertex -2.98045 6.33379 -10.5
    endloop
  endfacet
  facet normal 0 0 -1
    outer loop
      vertex -6.50844 -2.57687 -10.5
      vertex -1.44115 -0.570593 -10.5
      vertex -6.13415 -3.37228 -10.5
    endloop
  endfacet
  facet normal 0 0 -1
    outer loop
      vertex -0.988007 1.19429 -10.5
      vertex -4.46197 5.39359 -10.5
      vertex -3.75079 5.91029 -10.5
    endloop
  endfacet
  facet normal -0 0 -1
    outer loop
      vertex -1.44115 -0.570593 -10.5
      vertex -6.50844 -2.57687 -10.5
      vertex -1.5013 -0.385468 -10.5
    endloop
  endfacet
  facet normal 0 0 -1
    outer loop
      vertex -1.1299 1.06105 -10.5
      vertex -5.10278 4.79183 -10.5
      vertex -4.46197 5.39359 -10.5
    endloop
  endfacet
  facet normal 0 0 -1
    outer loop
      vertex -6.78008 -1.74083 -10.5
      vertex -1.5013 -0.385468 -10.5
      vertex -6.50844 -2.57687 -10.5
    endloop
  endfacet
  facet normal 0 0 -1
    outer loop
      vertex -1.25398 0.911067 -10.5
      vertex -5.66312 4.1145 -10.5
      vertex -5.10278 4.79183 -10.5
    endloop
  endfacet
  facet normal -0 0 -1
    outer loop
      vertex -1.5013 -0.385468 -10.5
      vertex -6.78008 -1.74083 -10.5
      vertex -1.53778 -0.194266 -10.5
    endloop
  endfacet
  facet normal 0 0 -1
    outer loop
      vertex -1.35827 0.746717 -10.5
      vertex -6.13415 3.37228 -10.5
      vertex -5.66312 4.1145 -10.5
    endloop
  endfacet
  facet normal 0 0 -1
    outer loop
      vertex -6.9448 -0.877332 -10.5
      vertex -1.53778 -0.194266 -10.5
      vertex -6.78008 -1.74083 -10.5
    endloop
  endfacet
  facet normal 0 0 -1
    outer loop
      vertex -1.44115 0.570593 -10.5
      vertex -6.50844 2.57687 -10.5
      vertex -6.13415 3.37228 -10.5
    endloop
  endfacet
  facet normal -0 0 -1
    outer loop
      vertex -1.53778 -0.194266 -10.5
      vertex -6.9448 -0.877332 -10.5
      vertex -1.55 0 -10.5
    endloop
  endfacet
  facet normal 0 0 -1
    outer loop
      vertex -1.5013 0.385468 -10.5
      vertex -6.78008 1.74083 -10.5
      vertex -6.50844 2.57687 -10.5
    endloop
  endfacet
  facet normal 0 0 -1
    outer loop
      vertex -7 0 -10.5
      vertex -1.55 0 -10.5
      vertex -6.9448 -0.877332 -10.5
    endloop
  endfacet
  facet normal 0 0 -1
    outer loop
      vertex -1.53778 0.194266 -10.5
      vertex -6.9448 0.877332 -10.5
      vertex -6.78008 1.74083 -10.5
    endloop
  endfacet
  facet normal 0 0 -1
    outer loop
      vertex -1.55 0 -10.5
      vertex -7 0 -10.5
      vertex -6.9448 0.877332 -10.5
    endloop
  endfacet
  facet normal -0.982287 -0.18738 0
    outer loop
      vertex -6.78008 -1.74083 -10.5
      vertex -6.9448 -0.877332 0
      vertex -6.9448 -0.877332 -10.5
    endloop
  endfacet
  facet normal -0.982287 -0.18738 0
    outer loop
      vertex -6.9448 -0.877332 0
      vertex -6.78008 -1.74083 -10.5
      vertex -6.78008 -1.74083 0
    endloop
  endfacet
  facet normal -0.770511 -0.637427 0
    outer loop
      vertex -5.10278 -4.79183 -10.5
      vertex -5.66312 -4.1145 0
      vertex -5.66312 -4.1145 -10.5
    endloop
  endfacet
  facet normal -0.770511 -0.637427 0
    outer loop
      vertex -5.66312 -4.1145 0
      vertex -5.10278 -4.79183 -10.5
      vertex -5.10278 -4.79183 0
    endloop
  endfacet
  facet normal -0.844326 -0.535829 0
    outer loop
      vertex -5.66312 -4.1145 -10.5
      vertex -6.13415 -3.37228 0
      vertex -6.13415 -3.37228 -10.5
    endloop
  endfacet
  facet normal -0.844326 -0.535829 0
    outer loop
      vertex -6.13415 -3.37228 0
      vertex -5.66312 -4.1145 -10.5
      vertex -5.66312 -4.1145 0
    endloop
  endfacet
  facet normal -0.125337 -0.992114 0
    outer loop
      vertex -1.31167 -6.87601 -10.5
      vertex -0.439533 -6.98619 0
      vertex -1.31167 -6.87601 0
    endloop
  endfacet
  facet normal -0.125337 -0.992114 -0
    outer loop
      vertex -0.439533 -6.98619 0
      vertex -1.31167 -6.87601 -10.5
      vertex -0.439533 -6.98619 -10.5
    endloop
  endfacet
endsolid OpenSCAD_Model
