solid OpenSCAD_Model
  facet normal 0.901714 -0.424314 -0.0828843
    outer loop
      vertex 4.60061 -2.52921 0
      vertex 4.64888 -1.84062 -3
      vertex 4.88133 -1.93265 0
    endloop
  endfacet
  facet normal 0.994593 0.0625778 -0.0828827
    outer loop
      vertex 5 0 -3
      vertex 5.2086 0.657999 0
      vertex 5.25 0 0
    endloop
  endfacet
  facet normal 0.994592 0.06258 -0.0828832
    outer loop
      vertex 4.96057 0.626666 -3
      vertex 5.2086 0.657999 0
      vertex 5 0 -3
    endloop
  endfacet
  facet normal 0 0 1
    outer loop
      vertex 5.2086 0.657999 0
      vertex 5.2086 -0.657999 0
      vertex 5.25 0 0
    endloop
  endfacet
  facet normal 0 0 1
    outer loop
      vertex 5.08506 1.30562 0
      vertex 5.2086 -0.657999 0
      vertex 5.2086 0.657999 0
    endloop
  endfacet
  facet normal 0 0 1
    outer loop
      vertex 5.08506 1.30562 0
      vertex 5.08506 -1.30562 0
      vertex 5.2086 -0.657999 0
    endloop
  endfacet
  facet normal 0 0 1
    outer loop
      vertex 4.88133 1.93265 0
      vertex 5.08506 -1.30562 0
      vertex 5.08506 1.30562 0
    endloop
  endfacet
  facet normal 0 0 1
    outer loop
      vertex 4.88133 1.93265 0
      vertex 4.88133 -1.93265 0
      vertex 5.08506 -1.30562 0
    endloop
  endfacet
  facet normal 0 0 1
    outer loop
      vertex 4.60061 2.52921 0
      vertex 4.88133 -1.93265 0
      vertex 4.88133 1.93265 0
    endloop
  endfacet
  facet normal 0 0 1
    outer loop
      vertex 4.60061 2.52921 0
      vertex 4.60061 -2.52921 0
      vertex 4.88133 -1.93265 0
    endloop
  endfacet
  facet normal 0 0 1
    outer loop
      vertex 4.24734 3.08587 0
      vertex 4.60061 -2.52921 0
      vertex 4.60061 2.52921 0
    endloop
  endfacet
  facet normal 0 0 1
    outer loop
      vertex 4.24734 3.08587 0
      vertex 4.24734 -3.08587 0
      vertex 4.60061 -2.52921 0
    endloop
  endfacet
  facet normal 0 0 1
    outer loop
      vertex 3.82708 3.59387 0
      vertex 4.24734 -3.08587 0
      vertex 4.24734 3.08587 0
    endloop
  endfacet
  facet normal 0 0 1
    outer loop
      vertex 3.82708 3.59387 0
      vertex 3.82708 -3.59387 0
      vertex 4.24734 -3.08587 0
    endloop
  endfacet
  facet normal 0 0 1
    outer loop
      vertex 3.34648 4.04519 0
      vertex 3.82708 -3.59387 0
      vertex 3.82708 3.59387 0
    endloop
  endfacet
  facet normal 0 0 1
    outer loop
      vertex 3.34648 4.04519 0
      vertex 3.34648 -4.04519 0
      vertex 3.82708 -3.59387 0
    endloop
  endfacet
  facet normal 0 0 1
    outer loop
      vertex 2.81309 4.43272 0
      vertex 3.34648 -4.04519 0
      vertex 3.34648 4.04519 0
    endloop
  endfacet
  facet normal 0 0 1
    outer loop
      vertex 2.81309 4.43272 0
      vertex 2.81309 -4.43272 0
      vertex 3.34648 -4.04519 0
    endloop
  endfacet
  facet normal 0 0 1
    outer loop
      vertex 2.23534 4.75034 0
      vertex 2.81309 -4.43272 0
      vertex 2.81309 4.43272 0
    endloop
  endfacet
  facet normal 0 0 1
    outer loop
      vertex 2.23534 4.75034 0
      vertex 2.23534 -4.75034 0
      vertex 2.81309 -4.43272 0
    endloop
  endfacet
  facet normal 0 0 1
    outer loop
      vertex 1.62234 4.99305 0
      vertex 2.23534 -4.75034 0
      vertex 2.23534 4.75034 0
    endloop
  endfacet
  facet normal 0 0 1
    outer loop
      vertex 1.62234 4.99305 0
      vertex 1.62234 -4.99305 0
      vertex 2.23534 -4.75034 0
    endloop
  endfacet
  facet normal 0 0 1
    outer loop
      vertex 0.983751 5.15701 0
      vertex 1.62234 -4.99305 0
      vertex 1.62234 4.99305 0
    endloop
  endfacet
  facet normal 0 0 1
    outer loop
      vertex 0.983751 5.15701 0
      vertex 0.983751 -5.15701 0
      vertex 1.62234 -4.99305 0
    endloop
  endfacet
  facet normal 0 0 1
    outer loop
      vertex 0.32965 5.23964 0
      vertex 0.983751 -5.15701 0
      vertex 0.983751 5.15701 0
    endloop
  endfacet
  facet normal 0 0 1
    outer loop
      vertex 0.32965 5.23964 0
      vertex 0.32965 -5.23964 0
      vertex 0.983751 -5.15701 0
    endloop
  endfacet
  facet normal -0 0 1
    outer loop
      vertex -0.32965 5.23964 0
      vertex 0.32965 -5.23964 0
      vertex 0.32965 5.23964 0
    endloop
  endfacet
  facet normal 0 0 1
    outer loop
      vertex -0.32965 5.23964 0
      vertex -0.32965 -5.23964 0
      vertex 0.32965 -5.23964 0
    endloop
  endfacet
  facet normal -0 0 1
    outer loop
      vertex -0.983751 5.15701 0
      vertex -0.32965 -5.23964 0
      vertex -0.32965 5.23964 0
    endloop
  endfacet
  facet normal 0 0 1
    outer loop
      vertex -0.983751 5.15701 0
      vertex -0.983751 -5.15701 0
      vertex -0.32965 -5.23964 0
    endloop
  endfacet
  facet normal -0 0 1
    outer loop
      vertex -1.62234 4.99305 0
      vertex -0.983751 -5.15701 0
      vertex -0.983751 5.15701 0
    endloop
  endfacet
  facet normal 0 0 1
    outer loop
      vertex -1.62234 4.99305 0
      vertex -1.62234 -4.99305 0
      vertex -0.983751 -5.15701 0
    endloop
  endfacet
  facet normal -0 0 1
    outer loop
      vertex -2.23534 4.75034 0
      vertex -1.62234 -4.99305 0
      vertex -1.62234 4.99305 0
    endloop
  endfacet
  facet normal 0 0 1
    outer loop
      vertex -2.23534 4.75034 0
      vertex -2.23534 -4.75034 0
      vertex -1.62234 -4.99305 0
    endloop
  endfacet
  facet normal -0 0 1
    outer loop
      vertex -2.81309 4.43272 0
      vertex -2.23534 -4.75034 0
      vertex -2.23534 4.75034 0
    endloop
  endfacet
  facet normal 0 0 1
    outer loop
      vertex -2.81309 4.43272 0
      vertex -2.81309 -4.43272 0
      vertex -2.23534 -4.75034 0
    endloop
  endfacet
  facet normal -0 0 1
    outer loop
      vertex -3.34648 4.04519 0
      vertex -2.81309 -4.43272 0
      vertex -2.81309 4.43272 0
    endloop
  endfacet
  facet normal 0 0 1
    outer loop
      vertex -3.34648 4.04519 0
      vertex -3.34648 -4.04519 0
      vertex -2.81309 -4.43272 0
    endloop
  endfacet
  facet normal -0 0 1
    outer loop
      vertex -3.82708 3.59387 0
      vertex -3.34648 -4.04519 0
      vertex -3.34648 4.04519 0
    endloop
  endfacet
  facet normal 0 0 1
    outer loop
      vertex -3.82708 3.59387 0
      vertex -3.82708 -3.59387 0
      vertex -3.34648 -4.04519 0
    endloop
  endfacet
  facet normal -0 0 1
    outer loop
      vertex -4.24734 3.08587 0
      vertex -3.82708 -3.59387 0
      vertex -3.82708 3.59387 0
    endloop
  endfacet
  facet normal 0 0 1
    outer loop
      vertex -4.24734 3.08587 0
      vertex -4.24734 -3.08587 0
      vertex -3.82708 -3.59387 0
    endloop
  endfacet
  facet normal -0 0 1
    outer loop
      vertex -4.60061 2.52921 0
      vertex -4.24734 -3.08587 0
      vertex -4.24734 3.08587 0
    endloop
  endfacet
  facet normal 0 0 1
    outer loop
      vertex -4.60061 2.52921 0
      vertex -4.60061 -2.52921 0
      vertex -4.24734 -3.08587 0
    endloop
  endfacet
  facet normal -0 0 1
    outer loop
      vertex -4.88133 1.93265 0
      vertex -4.60061 -2.52921 0
      vertex -4.60061 2.52921 0
    endloop
  endfacet
  facet normal 0 0 1
    outer loop
      vertex -4.88133 1.93265 0
      vertex -4.88133 -1.93265 0
      vertex -4.60061 -2.52921 0
    endloop
  endfacet
  facet normal -0 0 1
    outer loop
      vertex -5.08506 1.30562 0
      vertex -4.88133 -1.93265 0
      vertex -4.88133 1.93265 0
    endloop
  endfacet
  facet normal 0 0 1
    outer loop
      vertex -5.08506 1.30562 0
      vertex -5.08506 -1.30562 0
      vertex -4.88133 -1.93265 0
    endloop
  endfacet
  facet normal -0 0 1
    outer loop
      vertex -5.2086 0.657999 0
      vertex -5.08506 -1.30562 0
      vertex -5.08506 1.30562 0
    endloop
  endfacet
  facet normal 0 0 1
    outer loop
      vertex -5.2086 0.657999 0
      vertex -5.2086 -0.657999 0
      vertex -5.08506 -1.30562 0
    endloop
  endfacet
  facet normal 0 -0 1
    outer loop
      vertex -5.2086 -0.657999 0
      vertex -5.2086 0.657999 0
      vertex -5.25 0 0
    endloop
  endfacet
  facet normal 0.247832 -0.965251 -0.0828851
    outer loop
      vertex 0.983751 -5.15701 0
      vertex 1.54508 -4.75528 -3
      vertex 1.62234 -4.99305 0
    endloop
  endfacet
  facet normal -0.12489 0.988703 -0.0828839
    outer loop
      vertex -0.936906 4.91144 -3
      vertex -0.32965 5.23964 0
      vertex -0.313952 4.99013 -3
    endloop
  endfacet
  facet normal 0.994593 -0.0625778 -0.0828827
    outer loop
      vertex 5 0 -3
      vertex 5.25 0 0
      vertex 5.2086 -0.657999 0
    endloop
  endfacet
  facet normal 0.94778 -0.307965 -0.0828845
    outer loop
      vertex 4.64888 -1.84062 -3
      vertex 4.84292 -1.24345 -3
      vertex 4.88133 -1.93265 0
    endloop
  endfacet
  facet normal 0.901714 -0.424313 -0.0828839
    outer loop
      vertex 4.38153 -2.40877 -3
      vertex 4.64888 -1.84062 -3
      vertex 4.60061 -2.52921 0
    endloop
  endfacet
  facet normal 0.366857 -0.926578 -0.0828831
    outer loop
      vertex 1.54508 -4.75528 -3
      vertex 2.1289 -4.52413 -3
      vertex 2.23534 -4.75034 0
    endloop
  endfacet
  facet normal -0.585756 -0.806238 -0.0828829
    outer loop
      vertex -3.18712 -3.85257 -3
      vertex -2.67913 -4.22164 -3
      vertex -2.81309 -4.43272 0
    endloop
  endfacet
  facet normal -0.366857 -0.926578 -0.0828831
    outer loop
      vertex -2.23534 -4.75034 0
      vertex -2.1289 -4.52413 -3
      vertex -1.54508 -4.75528 -3
    endloop
  endfacet
  facet normal 0 0 -1
    outer loop
      vertex 4.96057 -0.626666 -3
      vertex 4.96057 0.626666 -3
      vertex 5 0 -3
    endloop
  endfacet
  facet normal 0 0 -1
    outer loop
      vertex 4.84292 -1.24345 -3
      vertex 4.96057 0.626666 -3
      vertex 4.96057 -0.626666 -3
    endloop
  endfacet
  facet normal 0 0 -1
    outer loop
      vertex 4.84292 -1.24345 -3
      vertex 4.84292 1.24345 -3
      vertex 4.96057 0.626666 -3
    endloop
  endfacet
  facet normal 0 0 -1
    outer loop
      vertex 4.64888 -1.84062 -3
      vertex 4.84292 1.24345 -3
      vertex 4.84292 -1.24345 -3
    endloop
  endfacet
  facet normal 0 0 -1
    outer loop
      vertex 4.64888 -1.84062 -3
      vertex 4.64888 1.84062 -3
      vertex 4.84292 1.24345 -3
    endloop
  endfacet
  facet normal 0 0 -1
    outer loop
      vertex 4.38153 -2.40877 -3
      vertex 4.64888 1.84062 -3
      vertex 4.64888 -1.84062 -3
    endloop
  endfacet
  facet normal 0 0 -1
    outer loop
      vertex 4.38153 -2.40877 -3
      vertex 4.38153 2.40877 -3
      vertex 4.64888 1.84062 -3
    endloop
  endfacet
  facet normal 0 0 -1
    outer loop
      vertex 4.04508 -2.93893 -3
      vertex 4.38153 2.40877 -3
      vertex 4.38153 -2.40877 -3
    endloop
  endfacet
  facet normal 0 0 -1
    outer loop
      vertex 4.04508 -2.93893 -3
      vertex 4.04508 2.93893 -3
      vertex 4.38153 2.40877 -3
    endloop
  endfacet
  facet normal 0 0 -1
    outer loop
      vertex 3.64484 -3.42274 -3
      vertex 4.04508 2.93893 -3
      vertex 4.04508 -2.93893 -3
    endloop
  endfacet
  facet normal 0 0 -1
    outer loop
      vertex 3.64484 -3.42274 -3
      vertex 3.64484 3.42274 -3
      vertex 4.04508 2.93893 -3
    endloop
  endfacet
  facet normal 0 0 -1
    outer loop
      vertex 3.18712 -3.85257 -3
      vertex 3.64484 3.42274 -3
      vertex 3.64484 -3.42274 -3
    endloop
  endfacet
  facet normal 0 0 -1
    outer loop
      vertex 3.18712 -3.85257 -3
      vertex 3.18712 3.85257 -3
      vertex 3.64484 3.42274 -3
    endloop
  endfacet
  facet normal 0 0 -1
    outer loop
      vertex 2.67913 -4.22164 -3
      vertex 3.18712 3.85257 -3
      vertex 3.18712 -3.85257 -3
    endloop
  endfacet
  facet normal 0 0 -1
    outer loop
      vertex 2.67913 -4.22164 -3
      vertex 2.67913 4.22164 -3
      vertex 3.18712 3.85257 -3
    endloop
  endfacet
  facet normal 0 0 -1
    outer loop
      vertex 2.1289 -4.52413 -3
      vertex 2.67913 4.22164 -3
      vertex 2.67913 -4.22164 -3
    endloop
  endfacet
  facet normal 0 0 -1
    outer loop
      vertex 2.1289 -4.52413 -3
      vertex 2.1289 4.52413 -3
      vertex 2.67913 4.22164 -3
    endloop
  endfacet
  facet normal 0 0 -1
    outer loop
      vertex 1.54508 -4.75528 -3
      vertex 2.1289 4.52413 -3
      vertex 2.1289 -4.52413 -3
    endloop
  endfacet
  facet normal 0 0 -1
    outer loop
      vertex 1.54508 -4.75528 -3
      vertex 1.54508 4.75528 -3
      vertex 2.1289 4.52413 -3
    endloop
  endfacet
  facet normal 0 0 -1
    outer loop
      vertex 0.936906 -4.91144 -3
      vertex 1.54508 4.75528 -3
      vertex 1.54508 -4.75528 -3
    endloop
  endfacet
  facet normal 0 0 -1
    outer loop
      vertex 0.936906 -4.91144 -3
      vertex 0.936906 4.91144 -3
      vertex 1.54508 4.75528 -3
    endloop
  endfacet
  facet normal 0 0 -1
    outer loop
      vertex 0.313952 -4.99013 -3
      vertex 0.936906 4.91144 -3
      vertex 0.936906 -4.91144 -3
    endloop
  endfacet
  facet normal 0 0 -1
    outer loop
      vertex 0.313952 -4.99013 -3
      vertex 0.313952 4.99013 -3
      vertex 0.936906 4.91144 -3
    endloop
  endfacet
  facet normal 0 0 -1
    outer loop
      vertex -0.313952 -4.99013 -3
      vertex 0.313952 4.99013 -3
      vertex 0.313952 -4.99013 -3
    endloop
  endfacet
  facet normal 0 0 -1
    outer loop
      vertex -0.313952 -4.99013 -3
      vertex -0.313952 4.99013 -3
      vertex 0.313952 4.99013 -3
    endloop
  endfacet
  facet normal 0 0 -1
    outer loop
      vertex -0.936906 -4.91144 -3
      vertex -0.313952 4.99013 -3
      vertex -0.313952 -4.99013 -3
    endloop
  endfacet
  facet normal 0 0 -1
    outer loop
      vertex -0.936906 -4.91144 -3
      vertex -0.936906 4.91144 -3
      vertex -0.313952 4.99013 -3
    endloop
  endfacet
  facet normal 0 0 -1
    outer loop
      vertex -1.54508 -4.75528 -3
      vertex -0.936906 4.91144 -3
      vertex -0.936906 -4.91144 -3
    endloop
  endfacet
  facet normal 0 0 -1
    outer loop
      vertex -1.54508 -4.75528 -3
      vertex -1.54508 4.75528 -3
      vertex -0.936906 4.91144 -3
    endloop
  endfacet
  facet normal 0 0 -1
    outer loop
      vertex -2.1289 -4.52413 -3
      vertex -1.54508 4.75528 -3
      vertex -1.54508 -4.75528 -3
    endloop
  endfacet
  facet normal 0 0 -1
    outer loop
      vertex -2.1289 -4.52413 -3
      vertex -2.1289 4.52413 -3
      vertex -1.54508 4.75528 -3
    endloop
  endfacet
  facet normal 0 0 -1
    outer loop
      vertex -2.67913 -4.22164 -3
      vertex -2.1289 4.52413 -3
      vertex -2.1289 -4.52413 -3
    endloop
  endfacet
  facet normal 0 0 -1
    outer loop
      vertex -2.67913 -4.22164 -3
      vertex -2.67913 4.22164 -3
      vertex -2.1289 4.52413 -3
    endloop
  endfacet
  facet normal 0 0 -1
    outer loop
      vertex -3.18712 -3.85257 -3
      vertex -2.67913 4.22164 -3
      vertex -2.67913 -4.22164 -3
    endloop
  endfacet
  facet normal 0 0 -1
    outer loop
      vertex -3.18712 -3.85257 -3
      vertex -3.18712 3.85257 -3
      vertex -2.67913 4.22164 -3
    endloop
  endfacet
  facet normal 0 0 -1
    outer loop
      vertex -3.64484 -3.42274 -3
      vertex -3.18712 3.85257 -3
      vertex -3.18712 -3.85257 -3
    endloop
  endfacet
  facet normal 0 0 -1
    outer loop
      vertex -3.64484 -3.42274 -3
      vertex -3.64484 3.42274 -3
      vertex -3.18712 3.85257 -3
    endloop
  endfacet
  facet normal 0 0 -1
    outer loop
      vertex -4.04508 -2.93893 -3
      vertex -3.64484 3.42274 -3
      vertex -3.64484 -3.42274 -3
    endloop
  endfacet
  facet normal 0 0 -1
    outer loop
      vertex -4.04508 -2.93893 -3
      vertex -4.04508 2.93893 -3
      vertex -3.64484 3.42274 -3
    endloop
  endfacet
  facet normal 0 0 -1
    outer loop
      vertex -4.38153 -2.40877 -3
      vertex -4.04508 2.93893 -3
      vertex -4.04508 -2.93893 -3
    endloop
  endfacet
  facet normal 0 0 -1
    outer loop
      vertex -4.38153 -2.40877 -3
      vertex -4.38153 2.40877 -3
      vertex -4.04508 2.93893 -3
    endloop
  endfacet
  facet normal 0 0 -1
    outer loop
      vertex -4.64888 -1.84062 -3
      vertex -4.38153 2.40877 -3
      vertex -4.38153 -2.40877 -3
    endloop
  endfacet
  facet normal 0 0 -1
    outer loop
      vertex -4.64888 -1.84062 -3
      vertex -4.64888 1.84062 -3
      vertex -4.38153 2.40877 -3
    endloop
  endfacet
  facet normal 0 0 -1
    outer loop
      vertex -4.84292 -1.24345 -3
      vertex -4.64888 1.84062 -3
      vertex -4.64888 -1.84062 -3
    endloop
  endfacet
  facet normal 0 0 -1
    outer loop
      vertex -4.84292 -1.24345 -3
      vertex -4.84292 1.24345 -3
      vertex -4.64888 1.84062 -3
    endloop
  endfacet
  facet normal 0 0 -1
    outer loop
      vertex -4.96057 -0.626666 -3
      vertex -4.84292 1.24345 -3
      vertex -4.84292 -1.24345 -3
    endloop
  endfacet
  facet normal 0 0 -1
    outer loop
      vertex -4.96057 -0.626666 -3
      vertex -4.96057 0.626666 -3
      vertex -4.84292 1.24345 -3
    endloop
  endfacet
  facet normal 0 -0 -1
    outer loop
      vertex -4.96057 0.626666 -3
      vertex -4.96057 -0.626666 -3
      vertex -5 0 -3
    endloop
  endfacet
  facet normal -0.767858 0.635236 -0.0828828
    outer loop
      vertex -4.24734 3.08587 0
      vertex -3.82708 3.59387 0
      vertex -4.04508 2.93893 -3
    endloop
  endfacet
  facet normal 0.585762 0.806234 -0.0828813
    outer loop
      vertex 2.81309 4.43272 0
      vertex 3.34648 4.04519 0
      vertex 3.18712 3.85257 -3
    endloop
  endfacet
  facet normal 0.682197 0.726456 -0.0828807
    outer loop
      vertex 3.34648 4.04519 0
      vertex 3.82708 3.59387 0
      vertex 3.64484 3.42274 -3
    endloop
  endfacet
  facet normal 0.978908 -0.186736 -0.0828807
    outer loop
      vertex 4.84292 -1.24345 -3
      vertex 5.2086 -0.657999 0
      vertex 5.08506 -1.30562 0
    endloop
  endfacet
  facet normal 0.947786 -0.307948 -0.0828807
    outer loop
      vertex 4.84292 -1.24345 -3
      vertex 5.08506 -1.30562 0
      vertex 4.88133 -1.93265 0
    endloop
  endfacet
  facet normal 0.994592 -0.06258 -0.0828832
    outer loop
      vertex 4.96057 -0.626666 -3
      vertex 5 0 -3
      vertex 5.2086 -0.657999 0
    endloop
  endfacet
  facet normal 0.841421 -0.533986 -0.0828832
    outer loop
      vertex 4.04508 -2.93893 -3
      vertex 4.60061 -2.52921 0
      vertex 4.24734 -3.08587 0
    endloop
  endfacet
  facet normal 0.767864 -0.635229 -0.0828807
    outer loop
      vertex 3.64484 -3.42274 -3
      vertex 4.04508 -2.93893 -3
      vertex 3.82708 -3.59387 0
    endloop
  endfacet
  facet normal 0.767858 -0.635236 -0.0828828
    outer loop
      vertex 3.82708 -3.59387 0
      vertex 4.04508 -2.93893 -3
      vertex 4.24734 -3.08587 0
    endloop
  endfacet
  facet normal -0.97891 -0.186725 -0.0828832
    outer loop
      vertex -5.2086 -0.657999 0
      vertex -4.96057 -0.626666 -3
      vertex -4.84292 -1.24345 -3
    endloop
  endfacet
  facet normal -0.94778 -0.307965 -0.0828845
    outer loop
      vertex -4.88133 -1.93265 0
      vertex -4.84292 -1.24345 -3
      vertex -4.64888 -1.84062 -3
    endloop
  endfacet
  facet normal -0.901714 -0.424313 -0.0828839
    outer loop
      vertex -4.64888 -1.84062 -3
      vertex -4.38153 -2.40877 -3
      vertex -4.60061 -2.52921 0
    endloop
  endfacet
  facet normal 0 -0.996559 -0.0828838
    outer loop
      vertex -0.313952 -4.99013 -3
      vertex 0.32965 -5.23964 0
      vertex -0.32965 -5.23964 0
    endloop
  endfacet
  facet normal 0 -0.996559 -0.0828838
    outer loop
      vertex 0.32965 -5.23964 0
      vertex -0.313952 -4.99013 -3
      vertex 0.313952 -4.99013 -3
    endloop
  endfacet
  facet normal -0.247845 0.965248 -0.0828821
    outer loop
      vertex -1.54508 4.75528 -3
      vertex -0.983751 5.15701 0
      vertex -0.936906 4.91144 -3
    endloop
  endfacet
  facet normal -0.585762 0.806234 -0.0828813
    outer loop
      vertex -3.34648 4.04519 0
      vertex -2.81309 4.43272 0
      vertex -3.18712 3.85257 -3
    endloop
  endfacet
  facet normal -0.978908 0.186736 -0.0828807
    outer loop
      vertex -5.2086 0.657999 0
      vertex -5.08506 1.30562 0
      vertex -4.84292 1.24345 -3
    endloop
  endfacet
  facet normal 0.247832 0.965251 -0.0828851
    outer loop
      vertex 0.983751 5.15701 0
      vertex 1.62234 4.99305 0
      vertex 1.54508 4.75528 -3
    endloop
  endfacet
  facet normal 0.97891 0.186725 -0.0828832
    outer loop
      vertex 4.84292 1.24345 -3
      vertex 5.2086 0.657999 0
      vertex 4.96057 0.626666 -3
    endloop
  endfacet
  facet normal 0.978908 0.186736 -0.0828807
    outer loop
      vertex 4.84292 1.24345 -3
      vertex 5.08506 1.30562 0
      vertex 5.2086 0.657999 0
    endloop
  endfacet
  facet normal 0.841421 0.533986 -0.0828832
    outer loop
      vertex 4.04508 2.93893 -3
      vertex 4.24734 3.08587 0
      vertex 4.60061 2.52921 0
    endloop
  endfacet
  facet normal 0.767864 0.635229 -0.0828807
    outer loop
      vertex 3.64484 3.42274 -3
      vertex 3.82708 3.59387 0
      vertex 4.04508 2.93893 -3
    endloop
  endfacet
  facet normal 0.97891 -0.186725 -0.0828832
    outer loop
      vertex 4.84292 -1.24345 -3
      vertex 4.96057 -0.626666 -3
      vertex 5.2086 -0.657999 0
    endloop
  endfacet
  facet normal 0.841423 -0.533983 -0.0828839
    outer loop
      vertex 4.04508 -2.93893 -3
      vertex 4.38153 -2.40877 -3
      vertex 4.60061 -2.52921 0
    endloop
  endfacet
  facet normal 0.366866 -0.926574 -0.0828852
    outer loop
      vertex 1.54508 -4.75528 -3
      vertex 2.23534 -4.75034 0
      vertex 1.62234 -4.99305 0
    endloop
  endfacet
  facet normal 0.480094 -0.873293 -0.0828827
    outer loop
      vertex 2.1289 -4.52413 -3
      vertex 2.67913 -4.22164 -3
      vertex 2.81309 -4.43272 0
    endloop
  endfacet
  facet normal 0.480095 -0.873292 -0.0828829
    outer loop
      vertex 2.1289 -4.52413 -3
      vertex 2.81309 -4.43272 0
      vertex 2.23534 -4.75034 0
    endloop
  endfacet
  facet normal 0.682197 -0.726456 -0.0828807
    outer loop
      vertex 3.34648 -4.04519 0
      vertex 3.64484 -3.42274 -3
      vertex 3.82708 -3.59387 0
    endloop
  endfacet
  facet normal -0.994592 -0.06258 -0.0828832
    outer loop
      vertex -5.2086 -0.657999 0
      vertex -5 0 -3
      vertex -4.96057 -0.626666 -3
    endloop
  endfacet
  facet normal -0.247832 -0.965251 -0.0828851
    outer loop
      vertex -1.62234 -4.99305 0
      vertex -1.54508 -4.75528 -3
      vertex -0.983751 -5.15701 0
    endloop
  endfacet
  facet normal -0.124899 -0.988702 -0.0828821
    outer loop
      vertex -0.983751 -5.15701 0
      vertex -0.936906 -4.91144 -3
      vertex -0.32965 -5.23964 0
    endloop
  endfacet
  facet normal -0.366866 -0.926574 -0.0828852
    outer loop
      vertex -2.23534 -4.75034 0
      vertex -1.54508 -4.75528 -3
      vertex -1.62234 -4.99305 0
    endloop
  endfacet
  facet normal -0.767864 -0.635229 -0.0828807
    outer loop
      vertex -4.04508 -2.93893 -3
      vertex -3.64484 -3.42274 -3
      vertex -3.82708 -3.59387 0
    endloop
  endfacet
  facet normal -0.978908 -0.186736 -0.0828807
    outer loop
      vertex -5.2086 -0.657999 0
      vertex -4.84292 -1.24345 -3
      vertex -5.08506 -1.30562 0
    endloop
  endfacet
  facet normal -0.901714 -0.424314 -0.0828843
    outer loop
      vertex -4.88133 -1.93265 0
      vertex -4.64888 -1.84062 -3
      vertex -4.60061 -2.52921 0
    endloop
  endfacet
  facet normal -0.366866 0.926574 -0.0828852
    outer loop
      vertex -2.23534 4.75034 0
      vertex -1.62234 4.99305 0
      vertex -1.54508 4.75528 -3
    endloop
  endfacet
  facet normal -0.124899 0.988702 -0.0828821
    outer loop
      vertex -0.983751 5.15701 0
      vertex -0.32965 5.23964 0
      vertex -0.936906 4.91144 -3
    endloop
  endfacet
  facet normal -0.480095 0.873292 -0.0828829
    outer loop
      vertex -2.81309 4.43272 0
      vertex -2.23534 4.75034 0
      vertex -2.1289 4.52413 -3
    endloop
  endfacet
  facet normal -0.585756 0.806238 -0.0828829
    outer loop
      vertex -3.18712 3.85257 -3
      vertex -2.81309 4.43272 0
      vertex -2.67913 4.22164 -3
    endloop
  endfacet
  facet normal -0.767864 0.635229 -0.0828807
    outer loop
      vertex -4.04508 2.93893 -3
      vertex -3.82708 3.59387 0
      vertex -3.64484 3.42274 -3
    endloop
  endfacet
  facet normal -0.994592 0.06258 -0.0828832
    outer loop
      vertex -5.2086 0.657999 0
      vertex -4.96057 0.626666 -3
      vertex -5 0 -3
    endloop
  endfacet
  facet normal -0.994593 -0.0625778 -0.0828827
    outer loop
      vertex -5.25 0 0
      vertex -5 0 -3
      vertex -5.2086 -0.657999 0
    endloop
  endfacet
  facet normal 0.247845 0.965248 -0.0828821
    outer loop
      vertex 0.936906 4.91144 -3
      vertex 0.983751 5.15701 0
      vertex 1.54508 4.75528 -3
    endloop
  endfacet
  facet normal 0.947786 0.307948 -0.0828807
    outer loop
      vertex 4.84292 1.24345 -3
      vertex 4.88133 1.93265 0
      vertex 5.08506 1.30562 0
    endloop
  endfacet
  facet normal 0.767858 0.635236 -0.0828828
    outer loop
      vertex 3.82708 3.59387 0
      vertex 4.24734 3.08587 0
      vertex 4.04508 2.93893 -3
    endloop
  endfacet
  facet normal 0.124899 -0.988702 -0.0828821
    outer loop
      vertex 0.32965 -5.23964 0
      vertex 0.936906 -4.91144 -3
      vertex 0.983751 -5.15701 0
    endloop
  endfacet
  facet normal 0.247845 -0.965248 -0.0828821
    outer loop
      vertex 0.936906 -4.91144 -3
      vertex 1.54508 -4.75528 -3
      vertex 0.983751 -5.15701 0
    endloop
  endfacet
  facet normal 0.12489 -0.988703 -0.0828839
    outer loop
      vertex 0.313952 -4.99013 -3
      vertex 0.936906 -4.91144 -3
      vertex 0.32965 -5.23964 0
    endloop
  endfacet
  facet normal 0.682194 -0.726459 -0.0828816
    outer loop
      vertex 3.18712 -3.85257 -3
      vertex 3.64484 -3.42274 -3
      vertex 3.34648 -4.04519 0
    endloop
  endfacet
  facet normal 0.585762 -0.806234 -0.0828813
    outer loop
      vertex 2.81309 -4.43272 0
      vertex 3.18712 -3.85257 -3
      vertex 3.34648 -4.04519 0
    endloop
  endfacet
  facet normal -0.247845 -0.965248 -0.0828821
    outer loop
      vertex -1.54508 -4.75528 -3
      vertex -0.936906 -4.91144 -3
      vertex -0.983751 -5.15701 0
    endloop
  endfacet
  facet normal -0.585762 -0.806234 -0.0828813
    outer loop
      vertex -3.34648 -4.04519 0
      vertex -3.18712 -3.85257 -3
      vertex -2.81309 -4.43272 0
    endloop
  endfacet
  facet normal -0.480095 -0.873292 -0.0828829
    outer loop
      vertex -2.81309 -4.43272 0
      vertex -2.1289 -4.52413 -3
      vertex -2.23534 -4.75034 0
    endloop
  endfacet
  facet normal -0.480094 -0.873293 -0.0828827
    outer loop
      vertex -2.81309 -4.43272 0
      vertex -2.67913 -4.22164 -3
      vertex -2.1289 -4.52413 -3
    endloop
  endfacet
  facet normal -0.682194 -0.726459 -0.0828816
    outer loop
      vertex -3.64484 -3.42274 -3
      vertex -3.18712 -3.85257 -3
      vertex -3.34648 -4.04519 0
    endloop
  endfacet
  facet normal -0.682197 -0.726456 -0.0828807
    outer loop
      vertex -3.82708 -3.59387 0
      vertex -3.64484 -3.42274 -3
      vertex -3.34648 -4.04519 0
    endloop
  endfacet
  facet normal -0.841421 -0.533986 -0.0828832
    outer loop
      vertex -4.60061 -2.52921 0
      vertex -4.04508 -2.93893 -3
      vertex -4.24734 -3.08587 0
    endloop
  endfacet
  facet normal -0.841423 -0.533983 -0.0828839
    outer loop
      vertex -4.60061 -2.52921 0
      vertex -4.38153 -2.40877 -3
      vertex -4.04508 -2.93893 -3
    endloop
  endfacet
  facet normal -0.947786 -0.307948 -0.0828807
    outer loop
      vertex -5.08506 -1.30562 0
      vertex -4.84292 -1.24345 -3
      vertex -4.88133 -1.93265 0
    endloop
  endfacet
  facet normal -0.247832 0.965251 -0.0828851
    outer loop
      vertex -1.62234 4.99305 0
      vertex -0.983751 5.15701 0
      vertex -1.54508 4.75528 -3
    endloop
  endfacet
  facet normal -0.480094 0.873293 -0.0828827
    outer loop
      vertex -2.81309 4.43272 0
      vertex -2.1289 4.52413 -3
      vertex -2.67913 4.22164 -3
    endloop
  endfacet
  facet normal -0.682194 0.726459 -0.0828816
    outer loop
      vertex -3.64484 3.42274 -3
      vertex -3.34648 4.04519 0
      vertex -3.18712 3.85257 -3
    endloop
  endfacet
  facet normal -0.682197 0.726456 -0.0828807
    outer loop
      vertex -3.82708 3.59387 0
      vertex -3.34648 4.04519 0
      vertex -3.64484 3.42274 -3
    endloop
  endfacet
  facet normal -0.841421 0.533986 -0.0828832
    outer loop
      vertex -4.60061 2.52921 0
      vertex -4.24734 3.08587 0
      vertex -4.04508 2.93893 -3
    endloop
  endfacet
  facet normal -0.901714 0.424313 -0.0828839
    outer loop
      vertex -4.64888 1.84062 -3
      vertex -4.60061 2.52921 0
      vertex -4.38153 2.40877 -3
    endloop
  endfacet
  facet normal -0.947786 0.307948 -0.0828807
    outer loop
      vertex -5.08506 1.30562 0
      vertex -4.88133 1.93265 0
      vertex -4.84292 1.24345 -3
    endloop
  endfacet
  facet normal -0.841423 0.533983 -0.0828839
    outer loop
      vertex -4.60061 2.52921 0
      vertex -4.04508 2.93893 -3
      vertex -4.38153 2.40877 -3
    endloop
  endfacet
  facet normal -0.994593 0.0625778 -0.0828827
    outer loop
      vertex -5.25 0 0
      vertex -5.2086 0.657999 0
      vertex -5 0 -3
    endloop
  endfacet
  facet normal 0.366866 0.926574 -0.0828852
    outer loop
      vertex 1.54508 4.75528 -3
      vertex 1.62234 4.99305 0
      vertex 2.23534 4.75034 0
    endloop
  endfacet
  facet normal 0 0.996559 -0.0828838
    outer loop
      vertex 0.313952 4.99013 -3
      vertex -0.32965 5.23964 0
      vertex 0.32965 5.23964 0
    endloop
  endfacet
  facet normal 0 0.996559 -0.0828838
    outer loop
      vertex -0.32965 5.23964 0
      vertex 0.313952 4.99013 -3
      vertex -0.313952 4.99013 -3
    endloop
  endfacet
  facet normal 0.366857 0.926578 -0.0828831
    outer loop
      vertex 1.54508 4.75528 -3
      vertex 2.23534 4.75034 0
      vertex 2.1289 4.52413 -3
    endloop
  endfacet
  facet normal 0.901714 0.424314 -0.0828843
    outer loop
      vertex 4.60061 2.52921 0
      vertex 4.88133 1.93265 0
      vertex 4.64888 1.84062 -3
    endloop
  endfacet
  facet normal 0.94778 0.307965 -0.0828845
    outer loop
      vertex 4.64888 1.84062 -3
      vertex 4.88133 1.93265 0
      vertex 4.84292 1.24345 -3
    endloop
  endfacet
  facet normal 0.841423 0.533983 -0.0828839
    outer loop
      vertex 4.04508 2.93893 -3
      vertex 4.60061 2.52921 0
      vertex 4.38153 2.40877 -3
    endloop
  endfacet
  facet normal 0.585756 -0.806238 -0.0828829
    outer loop
      vertex 2.67913 -4.22164 -3
      vertex 3.18712 -3.85257 -3
      vertex 2.81309 -4.43272 0
    endloop
  endfacet
  facet normal -0.12489 -0.988703 -0.0828839
    outer loop
      vertex -0.936906 -4.91144 -3
      vertex -0.313952 -4.99013 -3
      vertex -0.32965 -5.23964 0
    endloop
  endfacet
  facet normal -0.767858 -0.635236 -0.0828828
    outer loop
      vertex -4.24734 -3.08587 0
      vertex -4.04508 -2.93893 -3
      vertex -3.82708 -3.59387 0
    endloop
  endfacet
  facet normal -0.366857 0.926578 -0.0828831
    outer loop
      vertex -2.23534 4.75034 0
      vertex -1.54508 4.75528 -3
      vertex -2.1289 4.52413 -3
    endloop
  endfacet
  facet normal -0.94778 0.307965 -0.0828845
    outer loop
      vertex -4.88133 1.93265 0
      vertex -4.64888 1.84062 -3
      vertex -4.84292 1.24345 -3
    endloop
  endfacet
  facet normal -0.901714 0.424314 -0.0828843
    outer loop
      vertex -4.88133 1.93265 0
      vertex -4.60061 2.52921 0
      vertex -4.64888 1.84062 -3
    endloop
  endfacet
  facet normal -0.97891 0.186725 -0.0828832
    outer loop
      vertex -5.2086 0.657999 0
      vertex -4.84292 1.24345 -3
      vertex -4.96057 0.626666 -3
    endloop
  endfacet
  facet normal 0.124899 0.988702 -0.0828821
    outer loop
      vertex 0.32965 5.23964 0
      vertex 0.983751 5.15701 0
      vertex 0.936906 4.91144 -3
    endloop
  endfacet
  facet normal 0.12489 0.988703 -0.0828839
    outer loop
      vertex 0.313952 4.99013 -3
      vertex 0.32965 5.23964 0
      vertex 0.936906 4.91144 -3
    endloop
  endfacet
  facet normal 0.480095 0.873292 -0.0828829
    outer loop
      vertex 2.1289 4.52413 -3
      vertex 2.23534 4.75034 0
      vertex 2.81309 4.43272 0
    endloop
  endfacet
  facet normal 0.901714 0.424313 -0.0828839
    outer loop
      vertex 4.38153 2.40877 -3
      vertex 4.60061 2.52921 0
      vertex 4.64888 1.84062 -3
    endloop
  endfacet
  facet normal 0.682194 0.726459 -0.0828816
    outer loop
      vertex 3.18712 3.85257 -3
      vertex 3.34648 4.04519 0
      vertex 3.64484 3.42274 -3
    endloop
  endfacet
  facet normal 0.480094 0.873293 -0.0828827
    outer loop
      vertex 2.1289 4.52413 -3
      vertex 2.81309 4.43272 0
      vertex 2.67913 4.22164 -3
    endloop
  endfacet
  facet normal 0.585756 0.806238 -0.0828829
    outer loop
      vertex 2.67913 4.22164 -3
      vertex 2.81309 4.43272 0
      vertex 3.18712 3.85257 -3
    endloop
  endfacet
endsolid OpenSCAD_Model
