solid OpenSCAD_Model
  facet normal 0.8076950598642658 0.3800724452837148 0.4507478525815933
    outer loop
      vertex -2.6132717065593787 -1.4366582781247585 -3
      vertex -2.7727263061310357 -1.0978000053275214 -3
      vertex -4.183994186497132 -1.6565604870810504 0
    endloop
  endfacet
  facet normal 0.8489618516265157 0.27584442694381234 0.45074785258159333
    outer loop
      vertex -2.7727263061310357 -1.0978000053275214 -3
      vertex -2.888453355508596 -0.741628770652335 -3
      vertex -4.35862422507884 -1.119104492241847 0
    endloop
  endfacet
  facet normal 0.8768400078433869 0.16726617720953554 0.4507478525815932
    outer loop
      vertex -2.888453355508596 -0.741628770652335 -3
      vertex -2.9586277699913897 -0.3737616072364068 -3
      vertex -4.464516155915151 -0.5639995510393683 0
    endloop
  endfacet
  facet normal 0.8908898733377371 0.05605003994068916 0.45074785258159317
    outer loop
      vertex -2.9586277699913897 -0.3737616072364068 -3
      vertex -2.982142857142857 0 -3
      vertex -4.5 0 0
    endloop
  endfacet
  facet normal 0.32860686670210104 0.8299662044621515 0.4507478525815931
    outer loop
      vertex -1.2697346730601267 -2.6983235314611655 -3
      vertex -1.916006812042826 -4.071721736097088 0
      vertex -0.9215328225110039 -2.836186396808761 -3
    endloop
  endfacet
  facet normal 0.22199335525371 0.8646070342162863 0.45074785258159317
    outer loop
      vertex -0.558797848853858 -2.929320908423054 -3
      vertex -0.9215328225110039 -2.836186396808761 -3
      vertex -0.8432159156357617 -4.420292628279099 0
    endloop
  endfacet
  facet normal 0.11187887598056238 0.8856124945496244 0.45074785258159317
    outer loop
      vertex -0.558797848853858 -2.929320908423054 -3
      vertex -0.28255733788191195 -4.491120277927222 0
      vertex -0.18725029931063214 -2.9762582794200245 -3
    endloop
  endfacet
  facet normal 0 0.8926513168046537 0.4507478525815931
    outer loop
      vertex -0.28255733788191195 -4.491120277927222 0
      vertex 0.18725029931063214 -2.9762582794200245 -3
      vertex -0.18725029931063214 -2.9762582794200245 -3
    endloop
  endfacet
  facet normal 0.6877996607792316 0.5689973638120447 0.4507478525815931
    outer loop
      vertex -2.1738885853459955 -2.041417262323053 -3
      vertex -2.4126042510824326 -1.7528595916579113 -3
      vertex -3.6405764746872635 -2.6450336353161292 0
    endloop
  endfacet
  facet normal 0.7536904345143157 0.4783064941172182 0.45074785258159317
    outer loop
      vertex -2.4126042510824326 -1.7528595916579113 -3
      vertex -2.6132717065593787 -1.4366582781247585 -3
      vertex -3.9433800601973856 -2.1678915334577193 0
    endloop
  endfacet
  facet normal 0.5246872794572323 0.7221700853461397 0.4507478525815932
    outer loop
      vertex -1.5979120493123653 -2.517906492122081 -3
      vertex -1.9008893980005566 -2.2977805632778003 -3
      vertex -2.868407953869103 -3.467309592491052 0
    endloop
  endfacet
  facet normal 0.6110618755220592 0.6507148051770036 0.4507478525815932
    outer loop
      vertex -2.1738885853459955 -2.041417262323053 -3
      vertex -2.868407953869103 -3.467309592491052 0
      vertex -1.9008893980005566 -2.2977805632778003 -3
    endloop
  endfacet
  facet normal 0.43003805156237507 0.7822363118658698 0.4507478525815933
    outer loop
      vertex -1.5979120493123653 -2.517906492122081 -3
      vertex -1.916006812042826 -4.071721736097088 0
      vertex -1.2697346730601267 -2.6983235314611655 -3
    endloop
  endfacet
  facet normal 0.8076950598642657 0.3800724452837151 0.4507478525815932
    outer loop
      vertex -2.6132717065593787 -1.4366582781247585 -3
      vertex -4.183994186497132 -1.6565604870810504 0
      vertex -3.9433800601973856 -2.1678915334577193 0
    endloop
  endfacet
  facet normal 0.7536904345143156 0.4783064941172182 0.45074785258159317
    outer loop
      vertex -3.9433800601973856 -2.1678915334577193 0
      vertex -3.6405764746872635 -2.6450336353161292 0
      vertex -2.4126042510824326 -1.7528595916579113 -3
    endloop
  endfacet
  facet normal 0.8908898733377372 0.05605003994068924 0.4507478525815932
    outer loop
      vertex -2.9586277699913897 -0.3737616072364068 -3
      vertex -4.5 0 0
      vertex -4.464516155915151 -0.5639995510393683 0
    endloop
  endfacet
  facet normal 0.8489618516265156 0.27584442694381256 0.4507478525815932
    outer loop
      vertex -2.7727263061310357 -1.0978000053275214 -3
      vertex -4.35862422507884 -1.119104492241847 0
      vertex -4.183994186497132 -1.6565604870810504 0
    endloop
  endfacet
  facet normal 0.876840007843387 0.16726617720953485 0.45074785258159333
    outer loop
      vertex -2.888453355508596 -0.741628770652335 -3
      vertex -4.464516155915151 -0.5639995510393683 0
      vertex -4.35862422507884 -1.119104492241847 0
    endloop
  endfacet
  facet normal 0.5246872794572318 0.72217008534614 0.4507478525815931
    outer loop
      vertex -1.5979120493123653 -2.517906492122081 -3
      vertex -2.868407953869103 -3.467309592491052 0
      vertex -2.4112205774054853 -3.7994756647590675 0
    endloop
  endfacet
  facet normal 0.4300380515623761 0.7822363118658693 0.4507478525815931
    outer loop
      vertex -2.4112205774054853 -3.7994756647590675 0
      vertex -1.916006812042826 -4.071721736097088 0
      vertex -1.5979120493123653 -2.517906492122081 -3
    endloop
  endfacet
  facet normal 0.328606866702101 0.8299662044621515 0.4507478525815932
    outer loop
      vertex -1.916006812042826 -4.071721736097088 0
      vertex -1.3905764746872633 -4.2797543233281905 0
      vertex -0.9215328225110039 -2.836186396808761 -3
    endloop
  endfacet
  facet normal 0.22199335525370928 0.8646070342162865 0.4507478525815932
    outer loop
      vertex -1.3905764746872633 -4.2797543233281905 0
      vertex -0.8432159156357617 -4.420292628279099 0
      vertex -0.9215328225110039 -2.836186396808761 -3
    endloop
  endfacet
  facet normal 0.11187887598056206 0.8856124945496243 0.45074785258159317
    outer loop
      vertex -0.8432159156357617 -4.420292628279099 0
      vertex -0.28255733788191195 -4.491120277927222 0
      vertex -0.558797848853858 -2.929320908423054 -3
    endloop
  endfacet
  facet normal 0.6110618755220588 0.6507148051770039 0.4507478525815932
    outer loop
      vertex -3.2803588233963525 -3.080461976679098 0
      vertex -2.868407953869103 -3.467309592491052 0
      vertex -2.1738885853459955 -2.041417262323053 -3
    endloop
  endfacet
  facet normal 0.6877996607792319 0.5689973638120442 0.4507478525815933
    outer loop
      vertex -3.2803588233963525 -3.080461976679098 0
      vertex -2.1738885853459955 -2.041417262323053 -3
      vertex -3.6405764746872635 -2.6450336353161292 0
    endloop
  endfacet
  facet normal 0.8908898733377371 -0.05605003994068916 0.45074785258159317
    outer loop
      vertex -2.9586277699913897 0.3737616072364068 -3
      vertex -4.464516155915151 0.5639995510393683 0
      vertex -2.982142857142857 0 -3
    endloop
  endfacet
  facet normal 0.8768400078433868 -0.16726617720953552 0.4507478525815933
    outer loop
      vertex -2.888453355508596 0.741628770652335 -3
      vertex -4.35862422507884 1.119104492241847 0
      vertex -2.9586277699913897 0.3737616072364068 -3
    endloop
  endfacet
  facet normal 0.8489618516265158 -0.27584442694381217 0.4507478525815933
    outer loop
      vertex -2.7727263061310357 1.0978000053275216 -3
      vertex -4.183994186497132 1.6565604870810504 0
      vertex -2.888453355508596 0.741628770652335 -3
    endloop
  endfacet
  facet normal 0.8076950598642656 -0.3800724452837152 0.4507478525815931
    outer loop
      vertex -2.6132717065593787 1.4366582781247583 -3
      vertex -3.9433800601973856 2.1678915334577193 0
      vertex -2.7727263061310357 1.0978000053275216 -3
    endloop
  endfacet
  facet normal 0.7536904345143155 -0.47830649411721815 0.4507478525815932
    outer loop
      vertex -2.4126042510824326 1.752859591657911 -3
      vertex -3.9433800601973856 2.1678915334577193 0
      vertex -2.6132717065593787 1.4366582781247583 -3
    endloop
  endfacet
  facet normal 0.6877996607792316 -0.5689973638120446 0.45074785258159306
    outer loop
      vertex -3.6405764746872635 2.6450336353161292 0
      vertex -2.4126042510824326 1.752859591657911 -3
      vertex -2.1738885853459955 2.041417262323053 -3
    endloop
  endfacet
  facet normal 0.6110618755220594 -0.6507148051770034 0.4507478525815931
    outer loop
      vertex -1.9008893980005568 2.2977805632778003 -3
      vertex -2.868407953869103 3.467309592491052 0
      vertex -2.1738885853459955 2.041417262323053 -3
    endloop
  endfacet
  facet normal 0.5246872794572313 -0.7221700853461402 0.4507478525815932
    outer loop
      vertex -1.9008893980005568 2.2977805632778003 -3
      vertex -1.5979120493123653 2.5179064921220804 -3
      vertex -2.4112205774054853 3.7994756647590675 0
    endloop
  endfacet
  facet normal 0.43003805156237596 -0.7822363118658693 0.4507478525815933
    outer loop
      vertex -1.5979120493123653 2.5179064921220804 -3
      vertex -1.2697346730601275 2.698323531461165 -3
      vertex -1.9160068120428273 4.071721736097087 0
    endloop
  endfacet
  facet normal 0.3286068667021023 -0.8299662044621511 0.45074785258159306
    outer loop
      vertex -1.2697346730601275 2.698323531461165 -3
      vertex -0.921532822511004 2.8361863968087615 -3
      vertex -1.3905764746872633 4.2797543233281905 0
    endloop
  endfacet
  facet normal 0.2219933552537085 -0.8646070342162867 0.45074785258159317
    outer loop
      vertex -0.921532822511004 2.8361863968087615 -3
      vertex -0.5587978488538572 2.929320908423054 -3
      vertex -0.8432159156357606 4.420292628279099 0
    endloop
  endfacet
  facet normal 0.11187887598056216 -0.8856124945496244 0.45074785258159306
    outer loop
      vertex -0.2825573378819078 4.491120277927222 0
      vertex -0.5587978488538572 2.929320908423054 -3
      vertex -0.18725029931063064 2.9762582794200245 -3
    endloop
  endfacet
  facet normal 0.8908898733377372 -0.05605003994068924 0.4507478525815932
    outer loop
      vertex -4.464516155915151 0.5639995510393683 0
      vertex -4.5 0 0
      vertex -2.982142857142857 0 -3
    endloop
  endfacet
  facet normal 0.876840007843387 -0.16726617720953485 0.4507478525815932
    outer loop
      vertex -4.35862422507884 1.119104492241847 0
      vertex -4.464516155915151 0.5639995510393683 0
      vertex -2.9586277699913897 0.3737616072364068 -3
    endloop
  endfacet
  facet normal 0.8489618516265156 -0.27584442694381256 0.4507478525815932
    outer loop
      vertex -4.183994186497132 1.6565604870810504 0
      vertex -4.35862422507884 1.119104492241847 0
      vertex -2.888453355508596 0.741628770652335 -3
    endloop
  endfacet
  facet normal 0.8076950598642656 -0.3800724452837153 0.4507478525815932
    outer loop
      vertex -3.9433800601973856 2.1678915334577193 0
      vertex -4.183994186497132 1.6565604870810504 0
      vertex -2.7727263061310357 1.0978000053275216 -3
    endloop
  endfacet
  facet normal 0.7536904345143156 -0.4783064941172182 0.4507478525815933
    outer loop
      vertex -3.6405764746872635 2.6450336353161292 0
      vertex -3.9433800601973856 2.1678915334577193 0
      vertex -2.4126042510824326 1.752859591657911 -3
    endloop
  endfacet
  facet normal 0.6877996607792319 -0.5689973638120442 0.4507478525815933
    outer loop
      vertex -3.2803588233963525 3.080461976679098 0
      vertex -3.6405764746872635 2.6450336353161292 0
      vertex -2.1738885853459955 2.041417262323053 -3
    endloop
  endfacet
  facet normal 0.6110618755220588 -0.6507148051770039 0.4507478525815932
    outer loop
      vertex -3.2803588233963525 3.080461976679098 0
      vertex -2.1738885853459955 2.041417262323053 -3
      vertex -2.868407953869103 3.467309592491052 0
    endloop
  endfacet
  facet normal 0.5246872794572318 -0.72217008534614 0.45074785258159317
    outer loop
      vertex -2.868407953869103 3.467309592491052 0
      vertex -1.9008893980005568 2.2977805632778003 -3
      vertex -2.4112205774054853 3.7994756647590675 0
    endloop
  endfacet
  facet normal 0.43003805156237596 -0.7822363118658694 0.45074785258159317
    outer loop
      vertex -1.9160068120428273 4.071721736097087 0
      vertex -2.4112205774054853 3.7994756647590675 0
      vertex -1.5979120493123653 2.5179064921220804 -3
    endloop
  endfacet
  facet normal 0.3286068667021015 -0.8299662044621513 0.45074785258159317
    outer loop
      vertex -1.3905764746872633 4.2797543233281905 0
      vertex -1.9160068120428273 4.071721736097087 0
      vertex -1.2697346730601275 2.698323531461165 -3
    endloop
  endfacet
  facet normal 0.22199335525370886 -0.8646070342162866 0.45074785258159306
    outer loop
      vertex -0.8432159156357606 4.420292628279099 0
      vertex -1.3905764746872633 4.2797543233281905 0
      vertex -0.921532822511004 2.8361863968087615 -3
    endloop
  endfacet
  facet normal 0.11187887598056144 -0.8856124945496243 0.45074785258159317
    outer loop
      vertex -0.2825573378819078 4.491120277927222 0
      vertex -0.8432159156357606 4.420292628279099 0
      vertex -0.5587978488538572 2.929320908423054 -3
    endloop
  endfacet
  facet normal 0 -0.8926513168046538 0.45074785258159317
    outer loop
      vertex -0.2825573378819078 4.491120277927222 0
      vertex -0.18725029931063064 2.9762582794200245 -3
      vertex 0.28255733788190973 4.491120277927222 0
    endloop
  endfacet
  facet normal -0.11187887598056236 0.8856124945496242 0.45074785258159317
    outer loop
      vertex 0.18725029931063214 -2.9762582794200245 -3
      vertex 0.28255733788191195 -4.491120277927222 0
      vertex 0.558797848853858 -2.929320908423054 -3
    endloop
  endfacet
  facet normal -0.22199335525371 0.8646070342162863 0.45074785258159306
    outer loop
      vertex 0.9215328225110039 -2.836186396808761 -3
      vertex 0.558797848853858 -2.929320908423054 -3
      vertex 0.8432159156357617 -4.420292628279099 0
    endloop
  endfacet
  facet normal -0.3286068667021017 0.8299662044621513 0.4507478525815931
    outer loop
      vertex 1.3905764746872633 -4.2797543233281905 0
      vertex 1.2697346730601267 -2.6983235314611655 -3
      vertex 0.9215328225110039 -2.836186396808761 -3
    endloop
  endfacet
  facet normal -0.430038051562375 0.7822363118658698 0.4507478525815933
    outer loop
      vertex 1.5979120493123637 -2.5179064921220817 -3
      vertex 1.2697346730601267 -2.6983235314611655 -3
      vertex 1.916006812042826 -4.071721736097088 0
    endloop
  endfacet
  facet normal -0.524687279457232 0.7221700853461399 0.4507478525815931
    outer loop
      vertex 1.9008893980005577 -2.2977805632777994 -3
      vertex 1.5979120493123637 -2.5179064921220817 -3
      vertex 2.411220577405483 -3.799475664759069 0
    endloop
  endfacet
  facet normal -0.6110618755220594 0.6507148051770034 0.4507478525815932
    outer loop
      vertex 2.1738885853459955 -2.041417262323053 -3
      vertex 1.9008893980005577 -2.2977805632777994 -3
      vertex 2.868407953869105 -3.4673095924910506 0
    endloop
  endfacet
  facet normal -0.6877996607792316 0.5689973638120447 0.4507478525815931
    outer loop
      vertex 2.1738885853459955 -2.041417262323053 -3
      vertex 3.6405764746872635 -2.6450336353161292 0
      vertex 2.4126042510824326 -1.7528595916579113 -3
    endloop
  endfacet
  facet normal -0.7536904345143157 0.4783064941172179 0.4507478525815931
    outer loop
      vertex 2.4126042510824326 -1.7528595916579113 -3
      vertex 3.9433800601973856 -2.1678915334577193 0
      vertex 2.6132717065593787 -1.4366582781247583 -3
    endloop
  endfacet
  facet normal -0.8076950598642654 0.3800724452837155 0.4507478525815931
    outer loop
      vertex 3.9433800601973856 -2.1678915334577193 0
      vertex 2.772726306131035 -1.097800005327523 -3
      vertex 2.6132717065593787 -1.4366582781247583 -3
    endloop
  endfacet
  facet normal -0.8489618516265154 0.27584442694381356 0.450747852581593
    outer loop
      vertex 4.183994186497131 -1.6565604870810526 0
      vertex 2.888453355508597 -0.7416287706523338 -3
      vertex 2.772726306131035 -1.097800005327523 -3
    endloop
  endfacet
  facet normal -0.876840007843387 0.16726617720953396 0.4507478525815933
    outer loop
      vertex 4.358624225078841 -1.119104492241845 0
      vertex 2.9586277699913897 -0.3737616072364068 -3
      vertex 2.888453355508597 -0.7416287706523338 -3
    endloop
  endfacet
  facet normal -0.8908898733377373 0.056050039940688114 0.45074785258159317
    outer loop
      vertex 4.464516155915151 -0.5639995510393683 0
      vertex 2.9821428571428568 0 -3
      vertex 2.9586277699913897 -0.3737616072364068 -3
    endloop
  endfacet
  facet normal 0 0.8926513168046537 0.4507478525815931
    outer loop
      vertex -0.28255733788191195 -4.491120277927222 0
      vertex 0.28255733788191195 -4.491120277927222 0
      vertex 0.18725029931063214 -2.9762582794200245 -3
    endloop
  endfacet
  facet normal -0.11187887598056206 0.8856124945496243 0.45074785258159317
    outer loop
      vertex 0.28255733788191195 -4.491120277927222 0
      vertex 0.8432159156357617 -4.420292628279099 0
      vertex 0.558797848853858 -2.929320908423054 -3
    endloop
  endfacet
  facet normal -0.22199335525370928 0.8646070342162865 0.4507478525815932
    outer loop
      vertex 0.8432159156357617 -4.420292628279099 0
      vertex 1.3905764746872633 -4.2797543233281905 0
      vertex 0.9215328225110039 -2.836186396808761 -3
    endloop
  endfacet
  facet normal -0.328606866702101 0.8299662044621515 0.4507478525815933
    outer loop
      vertex 1.3905764746872633 -4.2797543233281905 0
      vertex 1.916006812042826 -4.071721736097088 0
      vertex 1.2697346730601267 -2.6983235314611655 -3
    endloop
  endfacet
  facet normal -0.430038051562376 0.7822363118658694 0.45074785258159317
    outer loop
      vertex 1.916006812042826 -4.071721736097088 0
      vertex 2.411220577405483 -3.799475664759069 0
      vertex 1.5979120493123637 -2.5179064921220817 -3
    endloop
  endfacet
  facet normal -0.5246872794572315 0.7221700853461401 0.4507478525815932
    outer loop
      vertex 1.9008893980005577 -2.2977805632777994 -3
      vertex 2.411220577405483 -3.799475664759069 0
      vertex 2.868407953869105 -3.4673095924910506 0
    endloop
  endfacet
  facet normal -0.6110618755220594 0.6507148051770035 0.45074785258159317
    outer loop
      vertex 2.1738885853459955 -2.041417262323053 -3
      vertex 2.868407953869105 -3.4673095924910506 0
      vertex 3.2803588233963525 -3.080461976679098 0
    endloop
  endfacet
  facet normal -0.6877996607792319 0.5689973638120442 0.4507478525815933
    outer loop
      vertex 3.2803588233963525 -3.080461976679098 0
      vertex 3.6405764746872635 -2.6450336353161292 0
      vertex 2.1738885853459955 -2.041417262323053 -3
    endloop
  endfacet
  facet normal -0.7536904345143156 0.4783064941172182 0.45074785258159317
    outer loop
      vertex 3.6405764746872635 -2.6450336353161292 0
      vertex 3.9433800601973856 -2.1678915334577193 0
      vertex 2.4126042510824326 -1.7528595916579113 -3
    endloop
  endfacet
  facet normal -0.8076950598642655 0.3800724452837155 0.4507478525815932
    outer loop
      vertex 3.9433800601973856 -2.1678915334577193 0
      vertex 4.183994186497131 -1.6565604870810526 0
      vertex 2.772726306131035 -1.097800005327523 -3
    endloop
  endfacet
  facet normal -0.8489618516265155 0.27584442694381317 0.4507478525815932
    outer loop
      vertex 4.183994186497131 -1.6565604870810526 0
      vertex 4.358624225078841 -1.119104492241845 0
      vertex 2.888453355508597 -0.7416287706523338 -3
    endloop
  endfacet
  facet normal -0.8768400078433871 0.16726617720953407 0.4507478525815932
    outer loop
      vertex 4.358624225078841 -1.119104492241845 0
      vertex 4.464516155915151 -0.5639995510393683 0
      vertex 2.9586277699913897 -0.3737616072364068 -3
    endloop
  endfacet
  facet normal -0.8908898733377372 0.05605003994068924 0.45074785258159333
    outer loop
      vertex 4.464516155915151 -0.5639995510393683 0
      vertex 4.5 0 0
      vertex 2.9821428571428568 0 -3
    endloop
  endfacet
  facet normal -0.43003805156237535 -0.7822363118658696 0.4507478525815932
    outer loop
      vertex 1.597912049312365 2.517906492122081 -3
      vertex 1.9160068120428273 4.071721736097087 0
      vertex 1.2697346730601275 2.698323531461165 -3
    endloop
  endfacet
  facet normal -0.611061875522057 -0.6507148051770054 0.4507478525815934
    outer loop
      vertex 1.9008893980005568 2.2977805632777994 -3
      vertex 2.1738885853459955 2.041417262323054 -3
      vertex 2.868407953869104 3.467309592491051 0
    endloop
  endfacet
  facet normal -0.524687279457233 -0.7221700853461389 0.4507478525815934
    outer loop
      vertex 1.9008893980005568 2.2977805632777994 -3
      vertex 2.868407953869104 3.467309592491051 0
      vertex 1.597912049312365 2.517906492122081 -3
    endloop
  endfacet
  facet normal -0.753690434514315 -0.4783064941172192 0.45074785258159306
    outer loop
      vertex 3.943380060197386 2.167891533457719 0
      vertex 2.4126042510824326 1.752859591657911 -3
      vertex 2.613271706559379 1.4366582781247583 -3
    endloop
  endfacet
  facet normal -0.6877996607792326 -0.5689973638120434 0.4507478525815932
    outer loop
      vertex 2.1738885853459955 2.041417262323054 -3
      vertex 2.4126042510824326 1.752859591657911 -3
      vertex 3.6405764746872635 2.6450336353161292 0
    endloop
  endfacet
  facet normal -1.0585211863767996e-15 -0.8926513168046537 0.4507478525815933
    outer loop
      vertex -0.18725029931063064 2.9762582794200245 -3
      vertex 0.18725029931062823 2.976258279420024 -3
      vertex 0.28255733788190973 4.491120277927222 0
    endloop
  endfacet
  facet normal -0.11187887598056037 -0.8856124945496244 0.4507478525815934
    outer loop
      vertex 0.5587978488538572 2.929320908423054 -3
      vertex 0.28255733788190973 4.491120277927222 0
      vertex 0.18725029931062823 2.976258279420024 -3
    endloop
  endfacet
  facet normal -0.22199335525370856 -0.8646070342162867 0.45074785258159306
    outer loop
      vertex 0.5587978488538572 2.929320908423054 -3
      vertex 0.9215328225110039 2.8361863968087615 -3
      vertex 0.8432159156357606 4.420292628279099 0
    endloop
  endfacet
  facet normal -0.3286068667021022 -0.8299662044621511 0.45074785258159317
    outer loop
      vertex 1.2697346730601275 2.698323531461165 -3
      vertex 1.9160068120428273 4.071721736097087 0
      vertex 0.9215328225110039 2.8361863968087615 -3
    endloop
  endfacet
  facet normal -0.8908898733377373 -0.05605003994068803 0.4507478525815934
    outer loop
      vertex 2.9821428571428568 0 -3
      vertex 4.5 0 0
      vertex 2.9586277699913897 0.37376160723640733 -3
    endloop
  endfacet
  facet normal -0.8768400078433868 -0.16726617720953518 0.45074785258159317
    outer loop
      vertex 4.464516155915151 0.5639995510393692 0
      vertex 2.8884533555085965 0.7416287706523348 -3
      vertex 2.9586277699913897 0.37376160723640733 -3
    endloop
  endfacet
  facet normal -0.8489618516265154 -0.2758444269438138 0.45074785258159317
    outer loop
      vertex 4.35862422507884 1.1191044922418465 0
      vertex 2.772726306131035 1.0978000053275219 -3
      vertex 2.8884533555085965 0.7416287706523348 -3
    endloop
  endfacet
  facet normal -0.8076950598642665 -0.38007244528371337 0.4507478525815932
    outer loop
      vertex 4.183994186497131 1.6565604870810509 0
      vertex 2.613271706559379 1.4366582781247583 -3
      vertex 2.772726306131035 1.0978000053275219 -3
    endloop
  endfacet
  facet normal -0.687799660779232 -0.5689973638120441 0.4507478525815931
    outer loop
      vertex 2.1738885853459955 2.041417262323054 -3
      vertex 3.6405764746872635 2.6450336353161292 0
      vertex 3.280358823396352 3.080461976679099 0
    endloop
  endfacet
  facet normal -0.6110618755220585 -0.6507148051770043 0.45074785258159317
    outer loop
      vertex 3.280358823396352 3.080461976679099 0
      vertex 2.868407953869104 3.467309592491051 0
      vertex 2.1738885853459955 2.041417262323054 -3
    endloop
  endfacet
  facet normal -0.11187887598056184 -0.8856124945496243 0.45074785258159317
    outer loop
      vertex 0.8432159156357606 4.420292628279099 0
      vertex 0.28255733788190973 4.491120277927222 0
      vertex 0.5587978488538572 2.929320908423054 -3
    endloop
  endfacet
  facet normal -0.22199335525370886 -0.8646070342162866 0.45074785258159306
    outer loop
      vertex 1.3905764746872633 4.2797543233281905 0
      vertex 0.8432159156357606 4.420292628279099 0
      vertex 0.9215328225110039 2.8361863968087615 -3
    endloop
  endfacet
  facet normal -0.3286068667021015 -0.8299662044621514 0.4507478525815931
    outer loop
      vertex 1.9160068120428273 4.071721736097087 0
      vertex 1.3905764746872633 4.2797543233281905 0
      vertex 0.9215328225110039 2.8361863968087615 -3
    endloop
  endfacet
  facet normal -0.4300380515623757 -0.7822363118658695 0.4507478525815931
    outer loop
      vertex 2.411220577405485 3.799475664759068 0
      vertex 1.9160068120428273 4.071721736097087 0
      vertex 1.597912049312365 2.517906492122081 -3
    endloop
  endfacet
  facet normal -0.5246872794572321 -0.7221700853461397 0.45074785258159317
    outer loop
      vertex 2.868407953869104 3.467309592491051 0
      vertex 2.411220577405485 3.799475664759068 0
      vertex 1.597912049312365 2.517906492122081 -3
    endloop
  endfacet
  facet normal -0.8768400078433869 -0.16726617720953524 0.45074785258159317
    outer loop
      vertex 4.464516155915151 0.5639995510393692 0
      vertex 4.35862422507884 1.1191044922418465 0
      vertex 2.8884533555085965 0.7416287706523348 -3
    endloop
  endfacet
  facet normal -0.8489618516265154 -0.27584442694381345 0.4507478525815931
    outer loop
      vertex 4.35862422507884 1.1191044922418465 0
      vertex 4.183994186497131 1.6565604870810509 0
      vertex 2.772726306131035 1.0978000053275219 -3
    endloop
  endfacet
  facet normal -0.8908898733377372 -0.056050039940689154 0.4507478525815932
    outer loop
      vertex 4.5 0 0
      vertex 4.464516155915151 0.5639995510393692 0
      vertex 2.9586277699913897 0.37376160723640733 -3
    endloop
  endfacet
  facet normal -0.7536904345143155 -0.4783064941172184 0.45074785258159317
    outer loop
      vertex 3.943380060197386 2.167891533457719 0
      vertex 3.6405764746872635 2.6450336353161292 0
      vertex 2.4126042510824326 1.752859591657911 -3
    endloop
  endfacet
  facet normal -0.8076950598642662 -0.38007244528371414 0.45074785258159317
    outer loop
      vertex 4.183994186497131 1.6565604870810509 0
      vertex 3.943380060197386 2.167891533457719 0
      vertex 2.613271706559379 1.4366582781247583 -3
    endloop
  endfacet
  facet normal -0.8443279255020151 -0.5358267949789965 0
    outer loop
      vertex -10.112712429686843 -7.347315653655914 -3
      vertex -10.953833500548294 -6.021920926271442 0
      vertex -10.953833500548294 -6.021920926271442 -3
    endloop
  endfacet
  facet normal -0.7705132427757891 -0.6374239897486897 0
    outer loop
      vertex -10.112712429686843 -7.347315653655914 -3
      vertex -9.112107842767646 -8.556838824108606 -3
      vertex -10.112712429686843 -7.347315653655914 0
    endloop
  endfacet
  facet normal -0.5877852522924725 -0.8090169943749479 0
    outer loop
      vertex -7.96779987185862 -9.631415534697368 -3
      vertex -6.6978349372374595 -10.554099068775187 -3
      vertex -6.6978349372374595 -10.554099068775187 0
    endloop
  endfacet
  facet normal -0.6845471059286893 -0.7289686274214109 0
    outer loop
      vertex -7.96779987185862 -9.631415534697368 -3
      vertex -7.96779987185862 -9.631415534697368 0
      vertex -9.112107842767646 -8.556838824108606 -3
    endloop
  endfacet
  facet normal 0 0 -1
    outer loop
      vertex -11.622206073603143 -4.601556908558473 -3
      vertex -12.107289514107888 -3.1086235895606857 -3
      vertex -11.622206073603143 4.601556908558473 -3
    endloop
  endfacet
  facet normal 0 0 -1
    outer loop
      vertex -12.107289514107888 -3.1086235895606857 -3
      vertex -12.401433766430973 -1.5666654195538008 -3
      vertex -12.107289514107888 3.1086235895606857 -3
    endloop
  endfacet
  facet normal 0 0 -1
    outer loop
      vertex -10.953833500548294 -6.021920926271442 -3
      vertex -11.622206073603143 -4.601556908558473 -3
      vertex -10.953833500548294 6.021920926271442 -3
    endloop
  endfacet
  facet normal 0 0 -1
    outer loop
      vertex -10.112712429686843 -7.347315653655914 -3
      vertex -10.953833500548294 -6.021920926271442 -3
      vertex -10.112712429686843 7.347315653655914 -3
    endloop
  endfacet
  facet normal 0 0 -1
    outer loop
      vertex -10.112712429686843 -7.347315653655914 -3
      vertex -9.112107842767646 8.556838824108606 -3
      vertex -9.112107842767646 -8.556838824108606 -3
    endloop
  endfacet
  facet normal 0 0 -1
    outer loop
      vertex -7.96779987185862 -9.631415534697368 -3
      vertex -6.6978349372374595 10.554099068775187 -3
      vertex -6.6978349372374595 -10.554099068775187 -3
    endloop
  endfacet
  facet normal 0 0 -1
    outer loop
      vertex -7.96779987185862 -9.631415534697368 -3
      vertex -9.112107842767646 -8.556838824108606 -3
      vertex -7.96779987185862 9.631415534697368 -3
    endloop
  endfacet
  facet normal -0.9048270524660194 -0.42577929156507294 0
    outer loop
      vertex -10.953833500548294 -6.021920926271442 -3
      vertex -11.622206073603143 -4.601556908558473 0
      vertex -11.622206073603143 -4.601556908558473 -3
    endloop
  endfacet
  facet normal -0.9510565162951538 -0.309016994374947 0
    outer loop
      vertex -11.622206073603143 -4.601556908558473 -3
      vertex -12.107289514107888 -3.1086235895606857 0
      vertex -12.107289514107888 -3.1086235895606857 -3
    endloop
  endfacet
  facet normal -0.9822872507286888 -0.1873813145857246 0
    outer loop
      vertex -12.107289514107888 -3.1086235895606857 -3
      vertex -12.401433766430973 -1.5666654195538008 0
      vertex -12.401433766430973 -1.5666654195538008 -3
    endloop
  endfacet
  facet normal -0.9980267284282716 -0.0627905195293135 0
    outer loop
      vertex -12.401433766430973 -1.5666654195538008 -3
      vertex -12.5 0 0
      vertex -12.5 0 -3
    endloop
  endfacet
  facet normal 0 0 -1
    outer loop
      vertex -3.8627124296868423 -11.888206453689419 -3
      vertex -2.1738885853459955 -2.041417262323053 -3
      vertex -2.3422664323215603 -12.278590634108607 -3
    endloop
  endfacet
  facet normal 0 0 -1
    outer loop
      vertex -2.3422664323215603 -12.278590634108607 -3
      vertex -0.558797848853858 -2.929320908423054 -3
      vertex -0.784881494116422 -12.475334105353394 -3
    endloop
  endfacet
  facet normal 0 0 -1
    outer loop
      vertex -0.784881494116422 -12.475334105353394 -3
      vertex -0.18725029931063214 -2.9762582794200245 -3
      vertex 0.784881494116422 -12.475334105353394 -3
    endloop
  endfacet
  facet normal -0.48175367410171477 -0.8763066800438639 0
    outer loop
      vertex -6.6978349372374595 -10.554099068775187 -3
      vertex -5.322241144563406 -11.310338155825244 -3
      vertex -5.322241144563406 -11.310338155825244 0
    endloop
  endfacet
  facet normal -0.368124552684678 -0.9297764858882516 0
    outer loop
      vertex -5.322241144563406 -11.310338155825244 -3
      vertex -3.8627124296868423 -11.888206453689419 -3
      vertex -3.8627124296868423 -11.888206453689419 0
    endloop
  endfacet
  facet normal -0.24868988716485482 -0.9685831611286312 0
    outer loop
      vertex -3.8627124296868423 -11.888206453689419 -3
      vertex -2.3422664323215603 -12.278590634108607 -3
      vertex -2.3422664323215603 -12.278590634108607 0
    endloop
  endfacet
  facet normal -0.12533323356430498 -0.9921147013144779 0
    outer loop
      vertex -2.3422664323215603 -12.278590634108607 -3
      vertex -0.784881494116422 -12.475334105353394 -3
      vertex -0.784881494116422 -12.475334105353394 0
    endloop
  endfacet
  facet normal 0 0 -1
    outer loop
      vertex -6.6978349372374595 -10.554099068775187 -3
      vertex -5.322241144563409 11.310338155825244 -3
      vertex -5.322241144563406 -11.310338155825244 -3
    endloop
  endfacet
  facet normal 0 0 -1
    outer loop
      vertex -5.322241144563406 -11.310338155825244 -3
      vertex -3.8627124296868423 11.888206453689419 -3
      vertex -3.8627124296868423 -11.888206453689419 -3
    endloop
  endfacet
  facet normal 0 0 -1
    outer loop
      vertex -3.8627124296868423 -11.888206453689419 -3
      vertex -2.888453355508596 -0.741628770652335 -3
      vertex -2.7727263061310357 -1.0978000053275214 -3
    endloop
  endfacet
  facet normal 0 0 -1
    outer loop
      vertex -3.8627124296868423 -11.888206453689419 -3
      vertex -2.9586277699913897 -0.3737616072364068 -3
      vertex -2.888453355508596 -0.741628770652335 -3
    endloop
  endfacet
  facet normal 0 0 -1
    outer loop
      vertex -3.8627124296868423 -11.888206453689419 -3
      vertex -2.982142857142857 0 -3
      vertex -2.9586277699913897 -0.3737616072364068 -3
    endloop
  endfacet
  facet normal 0 0 -1
    outer loop
      vertex -3.8627124296868423 -11.888206453689419 -3
      vertex -2.9586277699913897 0.3737616072364068 -3
      vertex -2.982142857142857 0 -3
    endloop
  endfacet
  facet normal 0 0 -1
    outer loop
      vertex -3.8627124296868423 -11.888206453689419 -3
      vertex -2.4126042510824326 -1.7528595916579113 -3
      vertex -2.1738885853459955 -2.041417262323053 -3
    endloop
  endfacet
  facet normal 0 0 -1
    outer loop
      vertex -3.8627124296868423 -11.888206453689419 -3
      vertex -2.6132717065593787 -1.4366582781247585 -3
      vertex -2.4126042510824326 -1.7528595916579113 -3
    endloop
  endfacet
  facet normal 0 0 -1
    outer loop
      vertex -3.8627124296868423 -11.888206453689419 -3
      vertex -2.7727263061310357 -1.0978000053275214 -3
      vertex -2.6132717065593787 -1.4366582781247585 -3
    endloop
  endfacet
  facet normal 0 0 -1
    outer loop
      vertex -2.3422664323215603 -12.278590634108607 -3
      vertex -2.1738885853459955 -2.041417262323053 -3
      vertex -1.9008893980005566 -2.2977805632778003 -3
    endloop
  endfacet
  facet normal 0 0 -1
    outer loop
      vertex -2.3422664323215603 -12.278590634108607 -3
      vertex -1.9008893980005566 -2.2977805632778003 -3
      vertex -1.5979120493123653 -2.517906492122081 -3
    endloop
  endfacet
  facet normal 0 0 -1
    outer loop
      vertex -2.3422664323215603 -12.278590634108607 -3
      vertex -1.5979120493123653 -2.517906492122081 -3
      vertex -1.2697346730601267 -2.6983235314611655 -3
    endloop
  endfacet
  facet normal 0 0 -1
    outer loop
      vertex -2.3422664323215603 -12.278590634108607 -3
      vertex -1.2697346730601267 -2.6983235314611655 -3
      vertex -0.9215328225110039 -2.836186396808761 -3
    endloop
  endfacet
  facet normal 0 0 -1
    outer loop
      vertex -2.3422664323215603 -12.278590634108607 -3
      vertex -0.9215328225110039 -2.836186396808761 -3
      vertex -0.558797848853858 -2.929320908423054 -3
    endloop
  endfacet
  facet normal 0 0 -1
    outer loop
      vertex -0.784881494116422 -12.475334105353394 -3
      vertex -0.558797848853858 -2.929320908423054 -3
      vertex -0.18725029931063214 -2.9762582794200245 -3
    endloop
  endfacet
  facet normal -0.7705132427757891 -0.6374239897486897 0
    outer loop
      vertex -9.112107842767646 -8.556838824108606 -3
      vertex -9.112107842767646 -8.556838824108606 0
      vertex -10.112712429686843 -7.347315653655914 0
    endloop
  endfacet
  facet normal -0.8443279255020151 -0.5358267949789965 0
    outer loop
      vertex -10.112712429686843 -7.347315653655914 -3
      vertex -10.112712429686843 -7.347315653655914 0
      vertex -10.953833500548294 -6.021920926271442 0
    endloop
  endfacet
  facet normal -0.5877852522924725 -0.8090169943749479 0
    outer loop
      vertex -7.96779987185862 -9.631415534697368 -3
      vertex -6.6978349372374595 -10.554099068775187 0
      vertex -7.96779987185862 -9.631415534697368 0
    endloop
  endfacet
  facet normal -0.6845471059286893 -0.7289686274214109 0
    outer loop
      vertex -9.112107842767646 -8.556838824108606 -3
      vertex -7.96779987185862 -9.631415534697368 0
      vertex -9.112107842767646 -8.556838824108606 0
    endloop
  endfacet
  facet normal -0.9048270524660194 -0.42577929156507294 0
    outer loop
      vertex -10.953833500548294 -6.021920926271442 -3
      vertex -10.953833500548294 -6.021920926271442 0
      vertex -11.622206073603143 -4.601556908558473 0
    endloop
  endfacet
  facet normal -0.9510565162951538 -0.309016994374947 0
    outer loop
      vertex -11.622206073603143 -4.601556908558473 -3
      vertex -11.622206073603143 -4.601556908558473 0
      vertex -12.107289514107888 -3.1086235895606857 0
    endloop
  endfacet
  facet normal -0.9822872507286888 -0.1873813145857246 0
    outer loop
      vertex -12.107289514107888 -3.1086235895606857 -3
      vertex -12.107289514107888 -3.1086235895606857 0
      vertex -12.401433766430973 -1.5666654195538008 0
    endloop
  endfacet
  facet normal -0.9980267284282716 -0.0627905195293135 0
    outer loop
      vertex -12.401433766430973 -1.5666654195538008 -3
      vertex -12.401433766430973 -1.5666654195538008 0
      vertex -12.5 0 0
    endloop
  endfacet
  facet normal 0 0 1
    outer loop
      vertex -10.953833500548294 -6.021920926271442 0
      vertex -11.622206073603143 4.601556908558473 0
      vertex -11.622206073603143 -4.601556908558473 0
    endloop
  endfacet
  facet normal 0 0 1
    outer loop
      vertex -12.107289514107888 -3.1086235895606857 0
      vertex -12.401433766430973 1.5666654195538008 0
      vertex -12.401433766430973 -1.5666654195538008 0
    endloop
  endfacet
  facet normal 0 0 1
    outer loop
      vertex -11.622206073603143 -4.601556908558473 0
      vertex -12.107289514107888 3.1086235895606857 0
      vertex -12.107289514107888 -3.1086235895606857 0
    endloop
  endfacet
  facet normal 0 0 1
    outer loop
      vertex -10.112712429686843 -7.347315653655914 0
      vertex -10.953833500548294 6.021920926271442 0
      vertex -10.953833500548294 -6.021920926271442 0
    endloop
  endfacet
  facet normal 0 0 1
    outer loop
      vertex -10.112712429686843 -7.347315653655914 0
      vertex -9.112107842767646 -8.556838824108606 0
      vertex -10.112712429686843 7.347315653655914 0
    endloop
  endfacet
  facet normal 0 0 1
    outer loop
      vertex -7.96779987185862 -9.631415534697368 0
      vertex -9.112107842767646 8.556838824108606 0
      vertex -9.112107842767646 -8.556838824108606 0
    endloop
  endfacet
  facet normal 0 0 1
    outer loop
      vertex -7.96779987185862 -9.631415534697368 0
      vertex -6.6978349372374595 -10.554099068775187 0
      vertex -7.96779987185862 9.631415534697368 0
    endloop
  endfacet
  facet normal -0.368124552684678 -0.9297764858882516 0
    outer loop
      vertex -5.322241144563406 -11.310338155825244 -3
      vertex -3.8627124296868423 -11.888206453689419 0
      vertex -5.322241144563406 -11.310338155825244 0
    endloop
  endfacet
  facet normal -0.48175367410171477 -0.8763066800438639 0
    outer loop
      vertex -6.6978349372374595 -10.554099068775187 -3
      vertex -5.322241144563406 -11.310338155825244 0
      vertex -6.6978349372374595 -10.554099068775187 0
    endloop
  endfacet
  facet normal -0.24868988716485482 -0.9685831611286312 0
    outer loop
      vertex -3.8627124296868423 -11.888206453689419 -3
      vertex -2.3422664323215603 -12.278590634108607 0
      vertex -3.8627124296868423 -11.888206453689419 0
    endloop
  endfacet
  facet normal -0.12533323356430498 -0.9921147013144779 0
    outer loop
      vertex -2.3422664323215603 -12.278590634108607 -3
      vertex -0.784881494116422 -12.475334105353394 0
      vertex -2.3422664323215603 -12.278590634108607 0
    endloop
  endfacet
  facet normal 0 -1 0
    outer loop
      vertex -0.784881494116422 -12.475334105353394 -3
      vertex 0.784881494116422 -12.475334105353394 0
      vertex -0.784881494116422 -12.475334105353394 0
    endloop
  endfacet
  facet normal 0 0 1
    outer loop
      vertex -3.8627124296868423 -11.888206453689419 0
      vertex -2.3422664323215603 -12.278590634108607 0
      vertex -3.2803588233963525 -3.080461976679098 0
    endloop
  endfacet
  facet normal 0 0 1
    outer loop
      vertex -2.3422664323215603 -12.278590634108607 0
      vertex -0.784881494116422 -12.475334105353394 0
      vertex -1.3905764746872633 -4.2797543233281905 0
    endloop
  endfacet
  facet normal 0 0 1
    outer loop
      vertex -2.3422664323215603 -12.278590634108607 0
      vertex -2.868407953869103 -3.467309592491052 0
      vertex -3.2803588233963525 -3.080461976679098 0
    endloop
  endfacet
  facet normal 0 0 1
    outer loop
      vertex -2.3422664323215603 -12.278590634108607 0
      vertex -2.4112205774054853 -3.7994756647590675 0
      vertex -2.868407953869103 -3.467309592491052 0
    endloop
  endfacet
  facet normal 0 0 1
    outer loop
      vertex -2.3422664323215603 -12.278590634108607 0
      vertex -1.916006812042826 -4.071721736097088 0
      vertex -2.4112205774054853 -3.7994756647590675 0
    endloop
  endfacet
  facet normal 0 0 1
    outer loop
      vertex -2.3422664323215603 -12.278590634108607 0
      vertex -1.3905764746872633 -4.2797543233281905 0
      vertex -1.916006812042826 -4.071721736097088 0
    endloop
  endfacet
  facet normal 0 0 1
    outer loop
      vertex -0.784881494116422 -12.475334105353394 0
      vertex -0.8432159156357617 -4.420292628279099 0
      vertex -1.3905764746872633 -4.2797543233281905 0
    endloop
  endfacet
  facet normal 0 0 1
    outer loop
      vertex -0.784881494116422 -12.475334105353394 0
      vertex -0.28255733788191195 -4.491120277927222 0
      vertex -0.8432159156357617 -4.420292628279099 0
    endloop
  endfacet
  facet normal 0 0 1
    outer loop
      vertex -0.784881494116422 -12.475334105353394 0
      vertex 0.28255733788191195 -4.491120277927222 0
      vertex -0.28255733788191195 -4.491120277927222 0
    endloop
  endfacet
  facet normal 0 0 1
    outer loop
      vertex -6.6978349372374595 -10.554099068775187 0
      vertex -5.322241144563406 -11.310338155825244 0
      vertex -6.6978349372374595 10.554099068775187 0
    endloop
  endfacet
  facet normal 0 0 1
    outer loop
      vertex -5.322241144563406 -11.310338155825244 0
      vertex -3.8627124296868423 -11.888206453689419 0
      vertex -5.322241144563409 11.310338155825244 0
    endloop
  endfacet
  facet normal 0 0 1
    outer loop
      vertex -3.8627124296868423 -11.888206453689419 0
      vertex -3.9433800601973856 -2.1678915334577193 0
      vertex -4.183994186497132 -1.6565604870810504 0
    endloop
  endfacet
  facet normal 0 0 1
    outer loop
      vertex -3.8627124296868423 -11.888206453689419 0
      vertex -4.183994186497132 -1.6565604870810504 0
      vertex -4.35862422507884 -1.119104492241847 0
    endloop
  endfacet
  facet normal 0 0 1
    outer loop
      vertex -3.8627124296868423 -11.888206453689419 0
      vertex -3.2803588233963525 -3.080461976679098 0
      vertex -3.6405764746872635 -2.6450336353161292 0
    endloop
  endfacet
  facet normal 0 0 1
    outer loop
      vertex -3.8627124296868423 -11.888206453689419 0
      vertex -3.6405764746872635 -2.6450336353161292 0
      vertex -3.9433800601973856 -2.1678915334577193 0
    endloop
  endfacet
  facet normal 0 0 1
    outer loop
      vertex -3.8627124296868423 -11.888206453689419 0
      vertex -4.35862422507884 -1.119104492241847 0
      vertex -4.464516155915151 -0.5639995510393683 0
    endloop
  endfacet
  facet normal 0 0 1
    outer loop
      vertex -3.8627124296868423 -11.888206453689419 0
      vertex -4.464516155915151 -0.5639995510393683 0
      vertex -5.322241144563409 11.310338155825244 0
    endloop
  endfacet
  facet normal 0 0 -1
    outer loop
      vertex -12.401433766430973 -1.5666654195538008 -3
      vertex -12.5 0 -3
      vertex -12.401433766430973 1.5666654195538008 -3
    endloop
  endfacet
  facet normal 0 0 -1
    outer loop
      vertex -12.401433766430973 -1.5666654195538008 -3
      vertex -12.401433766430973 1.5666654195538008 -3
      vertex -12.107289514107888 3.1086235895606857 -3
    endloop
  endfacet
  facet normal 0 0 -1
    outer loop
      vertex -12.107289514107888 -3.1086235895606857 -3
      vertex -12.107289514107888 3.1086235895606857 -3
      vertex -11.622206073603143 4.601556908558473 -3
    endloop
  endfacet
  facet normal 0 0 -1
    outer loop
      vertex -11.622206073603143 -4.601556908558473 -3
      vertex -11.622206073603143 4.601556908558473 -3
      vertex -10.953833500548294 6.021920926271442 -3
    endloop
  endfacet
  facet normal 0 0 -1
    outer loop
      vertex -10.953833500548294 -6.021920926271442 -3
      vertex -10.953833500548294 6.021920926271442 -3
      vertex -10.112712429686843 7.347315653655914 -3
    endloop
  endfacet
  facet normal 0 0 -1
    outer loop
      vertex -10.112712429686843 -7.347315653655914 -3
      vertex -10.112712429686843 7.347315653655914 -3
      vertex -9.112107842767646 8.556838824108606 -3
    endloop
  endfacet
  facet normal 0 0 -1
    outer loop
      vertex -9.112107842767646 -8.556838824108606 -3
      vertex -9.112107842767646 8.556838824108606 -3
      vertex -7.96779987185862 9.631415534697368 -3
    endloop
  endfacet
  facet normal 0 0 -1
    outer loop
      vertex -7.96779987185862 -9.631415534697368 -3
      vertex -7.96779987185862 9.631415534697368 -3
      vertex -6.6978349372374595 10.554099068775187 -3
    endloop
  endfacet
  facet normal -0.9980267284282716 0.0627905195293135 0
    outer loop
      vertex -12.5 0 -3
      vertex -12.401433766430973 1.5666654195538008 0
      vertex -12.401433766430973 1.5666654195538008 -3
    endloop
  endfacet
  facet normal -0.9822872507286888 0.1873813145857246 0
    outer loop
      vertex -12.401433766430973 1.5666654195538008 -3
      vertex -12.107289514107888 3.1086235895606857 0
      vertex -12.107289514107888 3.1086235895606857 -3
    endloop
  endfacet
  facet normal -0.9510565162951538 0.309016994374947 0
    outer loop
      vertex -12.107289514107888 3.1086235895606857 -3
      vertex -11.622206073603143 4.601556908558473 0
      vertex -11.622206073603143 4.601556908558473 -3
    endloop
  endfacet
  facet normal -0.9048270524660194 0.42577929156507294 0
    outer loop
      vertex -11.622206073603143 4.601556908558473 -3
      vertex -10.953833500548294 6.021920926271442 0
      vertex -10.953833500548294 6.021920926271442 -3
    endloop
  endfacet
  facet normal -0.8443279255020151 0.5358267949789965 0
    outer loop
      vertex -10.953833500548294 6.021920926271442 -3
      vertex -10.112712429686843 7.347315653655914 0
      vertex -10.112712429686843 7.347315653655914 -3
    endloop
  endfacet
  facet normal -0.7705132427757891 0.6374239897486897 0
    outer loop
      vertex -10.112712429686843 7.347315653655914 -3
      vertex -9.112107842767646 8.556838824108606 0
      vertex -9.112107842767646 8.556838824108606 -3
    endloop
  endfacet
  facet normal -0.6845471059286893 0.7289686274214109 0
    outer loop
      vertex -9.112107842767646 8.556838824108606 -3
      vertex -9.112107842767646 8.556838824108606 0
      vertex -7.96779987185862 9.631415534697368 -3
    endloop
  endfacet
  facet normal -0.5877852522924725 0.8090169943749479 0
    outer loop
      vertex -7.96779987185862 9.631415534697368 -3
      vertex -7.96779987185862 9.631415534697368 0
      vertex -6.6978349372374595 10.554099068775187 -3
    endloop
  endfacet
  facet normal 0 0 -1
    outer loop
      vertex -6.6978349372374595 -10.554099068775187 -3
      vertex -6.6978349372374595 10.554099068775187 -3
      vertex -5.322241144563409 11.310338155825244 -3
    endloop
  endfacet
  facet normal 0 0 -1
    outer loop
      vertex -5.322241144563406 -11.310338155825244 -3
      vertex -5.322241144563409 11.310338155825244 -3
      vertex -3.8627124296868423 11.888206453689419 -3
    endloop
  endfacet
  facet normal 0 0 -1
    outer loop
      vertex -3.8627124296868423 -11.888206453689419 -3
      vertex -3.8627124296868423 11.888206453689419 -3
      vertex -2.342266432321557 12.278590634108609 -3
    endloop
  endfacet
  facet normal 0 0 -1
    outer loop
      vertex -3.8627124296868423 -11.888206453689419 -3
      vertex -2.342266432321557 12.278590634108609 -3
      vertex -2.9586277699913897 0.3737616072364068 -3
    endloop
  endfacet
  facet normal 0 0 -1
    outer loop
      vertex -2.342266432321557 12.278590634108609 -3
      vertex -2.888453355508596 0.741628770652335 -3
      vertex -2.9586277699913897 0.3737616072364068 -3
    endloop
  endfacet
  facet normal 0 0 -1
    outer loop
      vertex -2.342266432321557 12.278590634108609 -3
      vertex -2.7727263061310357 1.0978000053275216 -3
      vertex -2.888453355508596 0.741628770652335 -3
    endloop
  endfacet
  facet normal 0 0 -1
    outer loop
      vertex -2.342266432321557 12.278590634108609 -3
      vertex -2.6132717065593787 1.4366582781247583 -3
      vertex -2.7727263061310357 1.0978000053275216 -3
    endloop
  endfacet
  facet normal 0 0 -1
    outer loop
      vertex -2.342266432321557 12.278590634108609 -3
      vertex -2.4126042510824326 1.752859591657911 -3
      vertex -2.6132717065593787 1.4366582781247583 -3
    endloop
  endfacet
  facet normal 0 0 -1
    outer loop
      vertex -2.342266432321557 12.278590634108609 -3
      vertex -2.1738885853459955 2.041417262323053 -3
      vertex -2.4126042510824326 1.752859591657911 -3
    endloop
  endfacet
  facet normal 0 0 -1
    outer loop
      vertex -2.342266432321557 12.278590634108609 -3
      vertex -1.9008893980005568 2.2977805632778003 -3
      vertex -2.1738885853459955 2.041417262323053 -3
    endloop
  endfacet
  facet normal 0 0 -1
    outer loop
      vertex -2.342266432321557 12.278590634108609 -3
      vertex -1.5979120493123653 2.5179064921220804 -3
      vertex -1.9008893980005568 2.2977805632778003 -3
    endloop
  endfacet
  facet normal 0 0 -1
    outer loop
      vertex -0.784881494116416 12.475334105353394 -3
      vertex -1.2697346730601275 2.698323531461165 -3
      vertex -1.5979120493123653 2.5179064921220804 -3
    endloop
  endfacet
  facet normal 0 0 -1
    outer loop
      vertex -0.784881494116416 12.475334105353394 -3
      vertex -0.921532822511004 2.8361863968087615 -3
      vertex -1.2697346730601275 2.698323531461165 -3
    endloop
  endfacet
  facet normal 0 0 -1
    outer loop
      vertex -0.784881494116416 12.475334105353394 -3
      vertex -0.5587978488538572 2.929320908423054 -3
      vertex -0.921532822511004 2.8361863968087615 -3
    endloop
  endfacet
  facet normal 0 0 -1
    outer loop
      vertex -0.784881494116416 12.475334105353394 -3
      vertex -0.18725029931063064 2.9762582794200245 -3
      vertex -0.5587978488538572 2.929320908423054 -3
    endloop
  endfacet
  facet normal 0 0 -1
    outer loop
      vertex -0.784881494116416 12.475334105353394 -3
      vertex 0.18725029931062823 2.976258279420024 -3
      vertex -0.18725029931063064 2.9762582794200245 -3
    endloop
  endfacet
  facet normal 0 0 -1
    outer loop
      vertex -2.342266432321557 12.278590634108609 -3
      vertex -0.784881494116416 12.475334105353394 -3
      vertex -1.5979120493123653 2.5179064921220804 -3
    endloop
  endfacet
  facet normal -0.48175367410171566 0.8763066800438634 0
    outer loop
      vertex -6.6978349372374595 10.554099068775187 -3
      vertex -6.6978349372374595 10.554099068775187 0
      vertex -5.322241144563409 11.310338155825244 -3
    endloop
  endfacet
  facet normal -0.36812455268467714 0.9297764858882517 0
    outer loop
      vertex -5.322241144563409 11.310338155825244 -3
      vertex -5.322241144563409 11.310338155825244 0
      vertex -3.8627124296868423 11.888206453689419 -3
    endloop
  endfacet
  facet normal -0.24868988716485538 0.9685831611286311 0
    outer loop
      vertex -3.8627124296868423 11.888206453689419 -3
      vertex -3.8627124296868423 11.888206453689419 0
      vertex -2.342266432321557 12.278590634108609 -3
    endloop
  endfacet
  facet normal -0.12533323356430362 0.9921147013144779 0
    outer loop
      vertex -2.342266432321557 12.278590634108609 -3
      vertex -2.342266432321557 12.278590634108609 0
      vertex -0.784881494116416 12.475334105353394 -3
    endloop
  endfacet
  facet normal 0 1 0
    outer loop
      vertex -0.784881494116416 12.475334105353394 -3
      vertex -0.784881494116416 12.475334105353394 0
      vertex 0.784881494116416 12.475334105353394 -3
    endloop
  endfacet
  facet normal -0.9980267284282716 0.0627905195293135 0
    outer loop
      vertex -12.5 0 -3
      vertex -12.5 0 0
      vertex -12.401433766430973 1.5666654195538008 0
    endloop
  endfacet
  facet normal -0.9822872507286888 0.1873813145857246 0
    outer loop
      vertex -12.401433766430973 1.5666654195538008 -3
      vertex -12.401433766430973 1.5666654195538008 0
      vertex -12.107289514107888 3.1086235895606857 0
    endloop
  endfacet
  facet normal -0.9510565162951538 0.309016994374947 0
    outer loop
      vertex -12.107289514107888 3.1086235895606857 -3
      vertex -12.107289514107888 3.1086235895606857 0
      vertex -11.622206073603143 4.601556908558473 0
    endloop
  endfacet
  facet normal -0.9048270524660194 0.42577929156507294 0
    outer loop
      vertex -11.622206073603143 4.601556908558473 -3
      vertex -11.622206073603143 4.601556908558473 0
      vertex -10.953833500548294 6.021920926271442 0
    endloop
  endfacet
  facet normal 0 0 1
    outer loop
      vertex -12.401433766430973 -1.5666654195538008 0
      vertex -12.401433766430973 1.5666654195538008 0
      vertex -12.5 0 0
    endloop
  endfacet
  facet normal 0 0 1
    outer loop
      vertex -12.107289514107888 -3.1086235895606857 0
      vertex -12.107289514107888 3.1086235895606857 0
      vertex -12.401433766430973 1.5666654195538008 0
    endloop
  endfacet
  facet normal 0 0 1
    outer loop
      vertex -11.622206073603143 -4.601556908558473 0
      vertex -11.622206073603143 4.601556908558473 0
      vertex -12.107289514107888 3.1086235895606857 0
    endloop
  endfacet
  facet normal 0 0 1
    outer loop
      vertex -10.953833500548294 -6.021920926271442 0
      vertex -10.953833500548294 6.021920926271442 0
      vertex -11.622206073603143 4.601556908558473 0
    endloop
  endfacet
  facet normal 0 0 1
    outer loop
      vertex -10.112712429686843 -7.347315653655914 0
      vertex -10.112712429686843 7.347315653655914 0
      vertex -10.953833500548294 6.021920926271442 0
    endloop
  endfacet
  facet normal 0 0 1
    outer loop
      vertex -9.112107842767646 -8.556838824108606 0
      vertex -9.112107842767646 8.556838824108606 0
      vertex -10.112712429686843 7.347315653655914 0
    endloop
  endfacet
  facet normal 0 0 1
    outer loop
      vertex -7.96779987185862 -9.631415534697368 0
      vertex -7.96779987185862 9.631415534697368 0
      vertex -9.112107842767646 8.556838824108606 0
    endloop
  endfacet
  facet normal 0 0 1
    outer loop
      vertex -6.6978349372374595 -10.554099068775187 0
      vertex -6.6978349372374595 10.554099068775187 0
      vertex -7.96779987185862 9.631415534697368 0
    endloop
  endfacet
  facet normal -0.8443279255020151 0.5358267949789965 0
    outer loop
      vertex -10.953833500548294 6.021920926271442 -3
      vertex -10.953833500548294 6.021920926271442 0
      vertex -10.112712429686843 7.347315653655914 0
    endloop
  endfacet
  facet normal -0.7705132427757891 0.6374239897486897 0
    outer loop
      vertex -10.112712429686843 7.347315653655914 -3
      vertex -10.112712429686843 7.347315653655914 0
      vertex -9.112107842767646 8.556838824108606 0
    endloop
  endfacet
  facet normal -0.6845471059286893 0.7289686274214109 0
    outer loop
      vertex -7.96779987185862 9.631415534697368 -3
      vertex -9.112107842767646 8.556838824108606 0
      vertex -7.96779987185862 9.631415534697368 0
    endloop
  endfacet
  facet normal -0.5877852522924725 0.8090169943749479 0
    outer loop
      vertex -6.6978349372374595 10.554099068775187 -3
      vertex -7.96779987185862 9.631415534697368 0
      vertex -6.6978349372374595 10.554099068775187 0
    endloop
  endfacet
  facet normal 0 0 1
    outer loop
      vertex -5.322241144563406 -11.310338155825244 0
      vertex -5.322241144563409 11.310338155825244 0
      vertex -6.6978349372374595 10.554099068775187 0
    endloop
  endfacet
  facet normal 0 0 1
    outer loop
      vertex -5.322241144563409 11.310338155825244 0
      vertex -4.464516155915151 -0.5639995510393683 0
      vertex -4.5 0 0
    endloop
  endfacet
  facet normal 0 0 1
    outer loop
      vertex -5.322241144563409 11.310338155825244 0
      vertex -4.5 0 0
      vertex -4.464516155915151 0.5639995510393683 0
    endloop
  endfacet
  facet normal 0 0 1
    outer loop
      vertex -5.322241144563409 11.310338155825244 0
      vertex -4.464516155915151 0.5639995510393683 0
      vertex -4.35862422507884 1.119104492241847 0
    endloop
  endfacet
  facet normal 0 0 1
    outer loop
      vertex -5.322241144563409 11.310338155825244 0
      vertex -4.35862422507884 1.119104492241847 0
      vertex -4.183994186497132 1.6565604870810504 0
    endloop
  endfacet
  facet normal 0 0 1
    outer loop
      vertex -5.322241144563409 11.310338155825244 0
      vertex -4.183994186497132 1.6565604870810504 0
      vertex -3.9433800601973856 2.1678915334577193 0
    endloop
  endfacet
  facet normal 0 0 1
    outer loop
      vertex -5.322241144563409 11.310338155825244 0
      vertex -3.9433800601973856 2.1678915334577193 0
      vertex -3.6405764746872635 2.6450336353161292 0
    endloop
  endfacet
  facet normal 0 0 1
    outer loop
      vertex -3.8627124296868423 11.888206453689419 0
      vertex -3.6405764746872635 2.6450336353161292 0
      vertex -3.2803588233963525 3.080461976679098 0
    endloop
  endfacet
  facet normal 0 0 1
    outer loop
      vertex -3.8627124296868423 11.888206453689419 0
      vertex -3.2803588233963525 3.080461976679098 0
      vertex -2.868407953869103 3.467309592491052 0
    endloop
  endfacet
  facet normal -0.48175367410171566 0.8763066800438634 0
    outer loop
      vertex -5.322241144563409 11.310338155825244 -3
      vertex -6.6978349372374595 10.554099068775187 0
      vertex -5.322241144563409 11.310338155825244 0
    endloop
  endfacet
  facet normal -0.36812455268467714 0.9297764858882517 0
    outer loop
      vertex -3.8627124296868423 11.888206453689419 -3
      vertex -5.322241144563409 11.310338155825244 0
      vertex -3.8627124296868423 11.888206453689419 0
    endloop
  endfacet
  facet normal -0.24868988716485538 0.9685831611286311 0
    outer loop
      vertex -2.342266432321557 12.278590634108609 -3
      vertex -3.8627124296868423 11.888206453689419 0
      vertex -2.342266432321557 12.278590634108609 0
    endloop
  endfacet
  facet normal -0.12533323356430362 0.9921147013144779 0
    outer loop
      vertex -0.784881494116416 12.475334105353394 -3
      vertex -2.342266432321557 12.278590634108609 0
      vertex -0.784881494116416 12.475334105353394 0
    endloop
  endfacet
  facet normal 0 0 1
    outer loop
      vertex -5.322241144563409 11.310338155825244 0
      vertex -3.6405764746872635 2.6450336353161292 0
      vertex -3.8627124296868423 11.888206453689419 0
    endloop
  endfacet
  facet normal 0 0 1
    outer loop
      vertex -3.8627124296868423 11.888206453689419 0
      vertex -2.868407953869103 3.467309592491052 0
      vertex -2.4112205774054853 3.7994756647590675 0
    endloop
  endfacet
  facet normal 0 0 1
    outer loop
      vertex -3.8627124296868423 11.888206453689419 0
      vertex -2.4112205774054853 3.7994756647590675 0
      vertex -1.9160068120428273 4.071721736097087 0
    endloop
  endfacet
  facet normal 0 0 1
    outer loop
      vertex -2.342266432321557 12.278590634108609 0
      vertex -1.9160068120428273 4.071721736097087 0
      vertex -1.3905764746872633 4.2797543233281905 0
    endloop
  endfacet
  facet normal 0 0 1
    outer loop
      vertex -2.342266432321557 12.278590634108609 0
      vertex -1.3905764746872633 4.2797543233281905 0
      vertex -0.8432159156357606 4.420292628279099 0
    endloop
  endfacet
  facet normal 0 0 1
    outer loop
      vertex -2.342266432321557 12.278590634108609 0
      vertex -0.8432159156357606 4.420292628279099 0
      vertex -0.2825573378819078 4.491120277927222 0
    endloop
  endfacet
  facet normal 0 0 1
    outer loop
      vertex -3.8627124296868423 11.888206453689419 0
      vertex -1.9160068120428273 4.071721736097087 0
      vertex -2.342266432321557 12.278590634108609 0
    endloop
  endfacet
  facet normal 0 0 1
    outer loop
      vertex -2.342266432321557 12.278590634108609 0
      vertex -0.2825573378819078 4.491120277927222 0
      vertex -0.784881494116416 12.475334105353394 0
    endloop
  endfacet
  facet normal 0 0 1
    outer loop
      vertex -0.784881494116416 12.475334105353394 0
      vertex -0.2825573378819078 4.491120277927222 0
      vertex 0.784881494116416 12.475334105353394 0
    endloop
  endfacet
  facet normal 0 0 -1
    outer loop
      vertex 0.784881494116422 -12.475334105353394 -3
      vertex 1.5979120493123637 -2.5179064921220817 -3
      vertex 2.3422664323215603 -12.278590634108607 -3
    endloop
  endfacet
  facet normal 0 -1 0
    outer loop
      vertex -0.784881494116422 -12.475334105353394 -3
      vertex 0.784881494116422 -12.475334105353394 -3
      vertex 0.784881494116422 -12.475334105353394 0
    endloop
  endfacet
  facet normal 0.12533323356430498 -0.9921147013144779 0
    outer loop
      vertex 0.784881494116422 -12.475334105353394 -3
      vertex 2.3422664323215603 -12.278590634108607 -3
      vertex 2.3422664323215603 -12.278590634108607 0
    endloop
  endfacet
  facet normal 0.24868988716485482 -0.9685831611286312 0
    outer loop
      vertex 2.3422664323215603 -12.278590634108607 -3
      vertex 3.8627124296868423 -11.888206453689419 -3
      vertex 3.8627124296868423 -11.888206453689419 0
    endloop
  endfacet
  facet normal 0.368124552684678 -0.9297764858882516 0
    outer loop
      vertex 3.8627124296868423 -11.888206453689419 -3
      vertex 5.322241144563406 -11.310338155825244 -3
      vertex 5.322241144563406 -11.310338155825244 0
    endloop
  endfacet
  facet normal 0.4817536741017149 -0.8763066800438637 0
    outer loop
      vertex 5.322241144563406 -11.310338155825244 -3
      vertex 6.697834937237452 -10.55409906877519 -3
      vertex 6.697834937237452 -10.55409906877519 0
    endloop
  endfacet
  facet normal 0 0 -1
    outer loop
      vertex 0.784881494116422 -12.475334105353394 -3
      vertex -0.18725029931063214 -2.9762582794200245 -3
      vertex 0.18725029931063214 -2.9762582794200245 -3
    endloop
  endfacet
  facet normal 0 0 -1
    outer loop
      vertex 0.784881494116422 -12.475334105353394 -3
      vertex 0.18725029931063214 -2.9762582794200245 -3
      vertex 0.558797848853858 -2.929320908423054 -3
    endloop
  endfacet
  facet normal 0 0 -1
    outer loop
      vertex 0.784881494116422 -12.475334105353394 -3
      vertex 0.558797848853858 -2.929320908423054 -3
      vertex 0.9215328225110039 -2.836186396808761 -3
    endloop
  endfacet
  facet normal 0 0 -1
    outer loop
      vertex 0.784881494116422 -12.475334105353394 -3
      vertex 0.9215328225110039 -2.836186396808761 -3
      vertex 1.2697346730601267 -2.6983235314611655 -3
    endloop
  endfacet
  facet normal 0 0 -1
    outer loop
      vertex 0.784881494116422 -12.475334105353394 -3
      vertex 1.2697346730601267 -2.6983235314611655 -3
      vertex 1.5979120493123637 -2.5179064921220817 -3
    endloop
  endfacet
  facet normal 0 0 -1
    outer loop
      vertex 2.3422664323215603 -12.278590634108607 -3
      vertex 1.5979120493123637 -2.5179064921220817 -3
      vertex 1.9008893980005577 -2.2977805632777994 -3
    endloop
  endfacet
  facet normal 0 0 -1
    outer loop
      vertex 2.3422664323215603 -12.278590634108607 -3
      vertex 1.9008893980005577 -2.2977805632777994 -3
      vertex 2.1738885853459955 -2.041417262323053 -3
    endloop
  endfacet
  facet normal 0 0 -1
    outer loop
      vertex 2.3422664323215603 -12.278590634108607 -3
      vertex 2.1738885853459955 -2.041417262323053 -3
      vertex 2.4126042510824326 -1.7528595916579113 -3
    endloop
  endfacet
  facet normal 0 0 -1
    outer loop
      vertex 2.3422664323215603 -12.278590634108607 -3
      vertex 2.4126042510824326 -1.7528595916579113 -3
      vertex 2.6132717065593787 -1.4366582781247583 -3
    endloop
  endfacet
  facet normal 0 0 -1
    outer loop
      vertex 2.3422664323215603 -12.278590634108607 -3
      vertex 2.6132717065593787 -1.4366582781247583 -3
      vertex 2.772726306131035 -1.097800005327523 -3
    endloop
  endfacet
  facet normal 0 0 -1
    outer loop
      vertex 2.3422664323215603 -12.278590634108607 -3
      vertex 2.772726306131035 -1.097800005327523 -3
      vertex 2.888453355508597 -0.7416287706523338 -3
    endloop
  endfacet
  facet normal 0 0 -1
    outer loop
      vertex 2.3422664323215603 -12.278590634108607 -3
      vertex 2.888453355508597 -0.7416287706523338 -3
      vertex 2.9586277699913897 -0.3737616072364068 -3
    endloop
  endfacet
  facet normal 0 0 -1
    outer loop
      vertex 2.3422664323215603 -12.278590634108607 -3
      vertex 2.9586277699913897 -0.3737616072364068 -3
      vertex 3.8627124296868423 11.888206453689419 -3
    endloop
  endfacet
  facet normal 0 0 -1
    outer loop
      vertex 2.3422664323215603 -12.278590634108607 -3
      vertex 3.8627124296868423 11.888206453689419 -3
      vertex 3.8627124296868423 -11.888206453689419 -3
    endloop
  endfacet
  facet normal 0 0 -1
    outer loop
      vertex 3.8627124296868423 -11.888206453689419 -3
      vertex 5.322241144563409 11.310338155825244 -3
      vertex 5.322241144563406 -11.310338155825244 -3
    endloop
  endfacet
  facet normal 0 0 -1
    outer loop
      vertex 5.322241144563406 -11.310338155825244 -3
      vertex 6.697834937237459 10.554099068775189 -3
      vertex 6.697834937237452 -10.55409906877519 -3
    endloop
  endfacet
  facet normal 0.5877852522924727 -0.8090169943749478 0
    outer loop
      vertex 6.697834937237452 -10.55409906877519 -3
      vertex 7.967799871858625 -9.631415534697362 -3
      vertex 7.967799871858625 -9.631415534697362 0
    endloop
  endfacet
  facet normal 0.6845471059286888 -0.7289686274214112 0
    outer loop
      vertex 7.967799871858625 -9.631415534697362 -3
      vertex 9.112107842767646 -8.556838824108606 -3
      vertex 9.112107842767646 -8.556838824108606 0
    endloop
  endfacet
  facet normal 0.7705132427757891 -0.6374239897486897 0
    outer loop
      vertex 9.112107842767646 -8.556838824108606 -3
      vertex 10.112712429686843 -7.347315653655914 -3
      vertex 9.112107842767646 -8.556838824108606 0
    endloop
  endfacet
  facet normal 0.8443279255020151 -0.5358267949789965 0
    outer loop
      vertex 10.112712429686843 -7.347315653655914 -3
      vertex 10.953833500548294 -6.021920926271442 -3
      vertex 10.112712429686843 -7.347315653655914 0
    endloop
  endfacet
  facet normal 0 0 -1
    outer loop
      vertex 6.697834937237452 -10.55409906877519 -3
      vertex 7.967799871858622 9.631415534697364 -3
      vertex 7.967799871858625 -9.631415534697362 -3
    endloop
  endfacet
  facet normal 0 0 -1
    outer loop
      vertex 7.967799871858625 -9.631415534697362 -3
      vertex 9.112107842767644 8.55683882410861 -3
      vertex 9.112107842767646 -8.556838824108606 -3
    endloop
  endfacet
  facet normal 0 0 -1
    outer loop
      vertex 9.112107842767646 -8.556838824108606 -3
      vertex 10.112712429686843 7.347315653655914 -3
      vertex 10.112712429686843 -7.347315653655914 -3
    endloop
  endfacet
  facet normal 0 0 -1
    outer loop
      vertex 10.112712429686843 -7.347315653655914 -3
      vertex 10.953833500548296 6.0219209262714415 -3
      vertex 10.953833500548294 -6.021920926271442 -3
    endloop
  endfacet
  facet normal 0 0 -1
    outer loop
      vertex 10.953833500548294 -6.021920926271442 -3
      vertex 11.622206073603142 4.601556908558475 -3
      vertex 11.62220607360314 -4.6015569085584795 -3
    endloop
  endfacet
  facet normal 0 0 -1
    outer loop
      vertex 11.62220607360314 -4.6015569085584795 -3
      vertex 12.107289514107888 3.108623589560685 -3
      vertex 12.10728951410789 -3.1086235895606804 -3
    endloop
  endfacet
  facet normal 0 0 -1
    outer loop
      vertex 12.10728951410789 -3.1086235895606804 -3
      vertex 12.401433766430973 1.5666654195538032 -3
      vertex 12.401433766430973 -1.5666654195538008 -3
    endloop
  endfacet
  facet normal 0.9048270524660196 -0.42577929156507266 0
    outer loop
      vertex 10.953833500548294 -6.021920926271442 -3
      vertex 11.62220607360314 -4.6015569085584795 -3
      vertex 10.953833500548294 -6.021920926271442 0
    endloop
  endfacet
  facet normal 0.9510565162951534 -0.30901699437494795 0
    outer loop
      vertex 11.62220607360314 -4.6015569085584795 -3
      vertex 12.10728951410789 -3.1086235895606804 -3
      vertex 11.62220607360314 -4.6015569085584795 0
    endloop
  endfacet
  facet normal 0.9822872507286887 -0.1873813145857241 0
    outer loop
      vertex 12.10728951410789 -3.1086235895606804 -3
      vertex 12.401433766430973 -1.5666654195538008 -3
      vertex 12.10728951410789 -3.1086235895606804 0
    endloop
  endfacet
  facet normal 0.9980267284282716 -0.0627905195293135 0
    outer loop
      vertex 12.401433766430973 -1.5666654195538008 -3
      vertex 12.5 0 -3
      vertex 12.401433766430973 -1.5666654195538008 0
    endloop
  endfacet
  facet normal 0.12533323356430498 -0.9921147013144779 0
    outer loop
      vertex 0.784881494116422 -12.475334105353394 -3
      vertex 2.3422664323215603 -12.278590634108607 0
      vertex 0.784881494116422 -12.475334105353394 0
    endloop
  endfacet
  facet normal 0.24868988716485482 -0.9685831611286312 0
    outer loop
      vertex 2.3422664323215603 -12.278590634108607 -3
      vertex 3.8627124296868423 -11.888206453689419 0
      vertex 2.3422664323215603 -12.278590634108607 0
    endloop
  endfacet
  facet normal 0.368124552684678 -0.9297764858882516 0
    outer loop
      vertex 3.8627124296868423 -11.888206453689419 -3
      vertex 5.322241144563406 -11.310338155825244 0
      vertex 3.8627124296868423 -11.888206453689419 0
    endloop
  endfacet
  facet normal 0.4817536741017149 -0.8763066800438637 0
    outer loop
      vertex 5.322241144563406 -11.310338155825244 -3
      vertex 6.697834937237452 -10.55409906877519 0
      vertex 5.322241144563406 -11.310338155825244 0
    endloop
  endfacet
  facet normal 0 0 1
    outer loop
      vertex -0.784881494116422 -12.475334105353394 0
      vertex 0.784881494116422 -12.475334105353394 0
      vertex 0.28255733788191195 -4.491120277927222 0
    endloop
  endfacet
  facet normal 0 0 1
    outer loop
      vertex 0.784881494116422 -12.475334105353394 0
      vertex 2.3422664323215603 -12.278590634108607 0
      vertex 0.28255733788191195 -4.491120277927222 0
    endloop
  endfacet
  facet normal 0 0 1
    outer loop
      vertex 2.3422664323215603 -12.278590634108607 0
      vertex 3.8627124296868423 -11.888206453689419 0
      vertex 1.916006812042826 -4.071721736097088 0
    endloop
  endfacet
  facet normal 0 0 1
    outer loop
      vertex 2.3422664323215603 -12.278590634108607 0
      vertex 0.8432159156357617 -4.420292628279099 0
      vertex 0.28255733788191195 -4.491120277927222 0
    endloop
  endfacet
  facet normal 0 0 1
    outer loop
      vertex 2.3422664323215603 -12.278590634108607 0
      vertex 1.3905764746872633 -4.2797543233281905 0
      vertex 0.8432159156357617 -4.420292628279099 0
    endloop
  endfacet
  facet normal 0 0 1
    outer loop
      vertex 2.3422664323215603 -12.278590634108607 0
      vertex 1.916006812042826 -4.071721736097088 0
      vertex 1.3905764746872633 -4.2797543233281905 0
    endloop
  endfacet
  facet normal 0 0 1
    outer loop
      vertex 3.8627124296868423 -11.888206453689419 0
      vertex 2.411220577405483 -3.799475664759069 0
      vertex 1.916006812042826 -4.071721736097088 0
    endloop
  endfacet
  facet normal 0 0 1
    outer loop
      vertex 3.8627124296868423 -11.888206453689419 0
      vertex 2.868407953869105 -3.4673095924910506 0
      vertex 2.411220577405483 -3.799475664759069 0
    endloop
  endfacet
  facet normal 0 0 1
    outer loop
      vertex 3.8627124296868423 -11.888206453689419 0
      vertex 5.322241144563406 -11.310338155825244 0
      vertex 3.6405764746872635 -2.6450336353161292 0
    endloop
  endfacet
  facet normal 0 0 1
    outer loop
      vertex 3.8627124296868423 -11.888206453689419 0
      vertex 3.2803588233963525 -3.080461976679098 0
      vertex 2.868407953869105 -3.4673095924910506 0
    endloop
  endfacet
  facet normal 0 0 1
    outer loop
      vertex 3.8627124296868423 -11.888206453689419 0
      vertex 3.6405764746872635 -2.6450336353161292 0
      vertex 3.2803588233963525 -3.080461976679098 0
    endloop
  endfacet
  facet normal 0 0 1
    outer loop
      vertex 5.322241144563406 -11.310338155825244 0
      vertex 3.9433800601973856 -2.1678915334577193 0
      vertex 3.6405764746872635 -2.6450336353161292 0
    endloop
  endfacet
  facet normal 0 0 1
    outer loop
      vertex 5.322241144563406 -11.310338155825244 0
      vertex 4.183994186497131 -1.6565604870810526 0
      vertex 3.9433800601973856 -2.1678915334577193 0
    endloop
  endfacet
  facet normal 0 0 1
    outer loop
      vertex 5.322241144563406 -11.310338155825244 0
      vertex 4.358624225078841 -1.119104492241845 0
      vertex 4.183994186497131 -1.6565604870810526 0
    endloop
  endfacet
  facet normal 0 0 1
    outer loop
      vertex 5.322241144563406 -11.310338155825244 0
      vertex 4.464516155915151 -0.5639995510393683 0
      vertex 4.358624225078841 -1.119104492241845 0
    endloop
  endfacet
  facet normal 0 0 1
    outer loop
      vertex 5.322241144563406 -11.310338155825244 0
      vertex 4.5 0 0
      vertex 4.464516155915151 -0.5639995510393683 0
    endloop
  endfacet
  facet normal 0 0 1
    outer loop
      vertex 5.322241144563406 -11.310338155825244 0
      vertex 4.464516155915151 0.5639995510393692 0
      vertex 4.5 0 0
    endloop
  endfacet
  facet normal 0 0 1
    outer loop
      vertex 5.322241144563406 -11.310338155825244 0
      vertex 6.697834937237452 -10.55409906877519 0
      vertex 5.322241144563409 11.310338155825244 0
    endloop
  endfacet
  facet normal 0.5877852522924727 -0.8090169943749478 0
    outer loop
      vertex 6.697834937237452 -10.55409906877519 -3
      vertex 7.967799871858625 -9.631415534697362 0
      vertex 6.697834937237452 -10.55409906877519 0
    endloop
  endfacet
  facet normal 0.6845471059286888 -0.7289686274214112 0
    outer loop
      vertex 7.967799871858625 -9.631415534697362 -3
      vertex 9.112107842767646 -8.556838824108606 0
      vertex 7.967799871858625 -9.631415534697362 0
    endloop
  endfacet
  facet normal 0.7705132427757891 -0.6374239897486897 0
    outer loop
      vertex 10.112712429686843 -7.347315653655914 -3
      vertex 10.112712429686843 -7.347315653655914 0
      vertex 9.112107842767646 -8.556838824108606 0
    endloop
  endfacet
  facet normal 0.8443279255020151 -0.5358267949789965 0
    outer loop
      vertex 10.953833500548294 -6.021920926271442 -3
      vertex 10.953833500548294 -6.021920926271442 0
      vertex 10.112712429686843 -7.347315653655914 0
    endloop
  endfacet
  facet normal 0.9048270524660196 -0.42577929156507266 0
    outer loop
      vertex 11.62220607360314 -4.6015569085584795 -3
      vertex 11.62220607360314 -4.6015569085584795 0
      vertex 10.953833500548294 -6.021920926271442 0
    endloop
  endfacet
  facet normal 0.9510565162951534 -0.30901699437494795 0
    outer loop
      vertex 12.10728951410789 -3.1086235895606804 -3
      vertex 12.10728951410789 -3.1086235895606804 0
      vertex 11.62220607360314 -4.6015569085584795 0
    endloop
  endfacet
  facet normal 0.9822872507286887 -0.1873813145857241 0
    outer loop
      vertex 12.401433766430973 -1.5666654195538008 -3
      vertex 12.401433766430973 -1.5666654195538008 0
      vertex 12.10728951410789 -3.1086235895606804 0
    endloop
  endfacet
  facet normal 0.9980267284282716 -0.0627905195293135 0
    outer loop
      vertex 12.401433766430973 -1.5666654195538008 0
      vertex 12.5 0 -3
      vertex 12.5 0 0
    endloop
  endfacet
  facet normal 0 0 1
    outer loop
      vertex 6.697834937237452 -10.55409906877519 0
      vertex 7.967799871858625 -9.631415534697362 0
      vertex 6.697834937237459 10.554099068775189 0
    endloop
  endfacet
  facet normal 0 0 1
    outer loop
      vertex 7.967799871858625 -9.631415534697362 0
      vertex 9.112107842767646 -8.556838824108606 0
      vertex 7.967799871858622 9.631415534697364 0
    endloop
  endfacet
  facet normal 0 0 1
    outer loop
      vertex 9.112107842767646 -8.556838824108606 0
      vertex 10.112712429686843 -7.347315653655914 0
      vertex 9.112107842767644 8.55683882410861 0
    endloop
  endfacet
  facet normal 0 0 1
    outer loop
      vertex 10.112712429686843 -7.347315653655914 0
      vertex 10.953833500548294 -6.021920926271442 0
      vertex 10.112712429686843 7.347315653655914 0
    endloop
  endfacet
  facet normal 0 0 1
    outer loop
      vertex 10.953833500548294 -6.021920926271442 0
      vertex 11.62220607360314 -4.6015569085584795 0
      vertex 10.953833500548296 6.0219209262714415 0
    endloop
  endfacet
  facet normal 0 0 1
    outer loop
      vertex 11.62220607360314 -4.6015569085584795 0
      vertex 12.10728951410789 -3.1086235895606804 0
      vertex 11.622206073603142 4.601556908558475 0
    endloop
  endfacet
  facet normal 0 0 1
    outer loop
      vertex 12.10728951410789 -3.1086235895606804 0
      vertex 12.401433766430973 -1.5666654195538008 0
      vertex 12.107289514107888 3.108623589560685 0
    endloop
  endfacet
  facet normal 0 0 -1
    outer loop
      vertex 0.784881494116416 12.475334105353394 -3
      vertex 0.5587978488538572 2.929320908423054 -3
      vertex 0.18725029931062823 2.976258279420024 -3
    endloop
  endfacet
  facet normal 0 0 -1
    outer loop
      vertex 2.342266432321557 12.278590634108609 -3
      vertex 0.9215328225110039 2.8361863968087615 -3
      vertex 0.5587978488538572 2.929320908423054 -3
    endloop
  endfacet
  facet normal 0 0 -1
    outer loop
      vertex 2.342266432321557 12.278590634108609 -3
      vertex 1.2697346730601275 2.698323531461165 -3
      vertex 0.9215328225110039 2.8361863968087615 -3
    endloop
  endfacet
  facet normal 0 0 -1
    outer loop
      vertex 2.342266432321557 12.278590634108609 -3
      vertex 1.597912049312365 2.517906492122081 -3
      vertex 1.2697346730601275 2.698323531461165 -3
    endloop
  endfacet
  facet normal 0 0 -1
    outer loop
      vertex 2.342266432321557 12.278590634108609 -3
      vertex 1.9008893980005568 2.2977805632777994 -3
      vertex 1.597912049312365 2.517906492122081 -3
    endloop
  endfacet
  facet normal 0 0 -1
    outer loop
      vertex 2.342266432321557 12.278590634108609 -3
      vertex 2.1738885853459955 2.041417262323054 -3
      vertex 1.9008893980005568 2.2977805632777994 -3
    endloop
  endfacet
  facet normal 0 0 -1
    outer loop
      vertex 3.8627124296868423 11.888206453689419 -3
      vertex 2.772726306131035 1.0978000053275219 -3
      vertex 2.613271706559379 1.4366582781247583 -3
    endloop
  endfacet
  facet normal 0 0 -1
    outer loop
      vertex 3.8627124296868423 11.888206453689419 -3
      vertex 2.613271706559379 1.4366582781247583 -3
      vertex 2.4126042510824326 1.752859591657911 -3
    endloop
  endfacet
  facet normal 0 0 -1
    outer loop
      vertex 3.8627124296868423 11.888206453689419 -3
      vertex 2.4126042510824326 1.752859591657911 -3
      vertex 2.1738885853459955 2.041417262323054 -3
    endloop
  endfacet
  facet normal 0 0 -1
    outer loop
      vertex 3.8627124296868423 11.888206453689419 -3
      vertex 2.9586277699913897 -0.3737616072364068 -3
      vertex 2.9821428571428568 0 -3
    endloop
  endfacet
  facet normal 0 0 -1
    outer loop
      vertex 3.8627124296868423 11.888206453689419 -3
      vertex 2.9821428571428568 0 -3
      vertex 2.9586277699913897 0.37376160723640733 -3
    endloop
  endfacet
  facet normal 0 0 -1
    outer loop
      vertex 3.8627124296868423 11.888206453689419 -3
      vertex 2.9586277699913897 0.37376160723640733 -3
      vertex 2.8884533555085965 0.7416287706523348 -3
    endloop
  endfacet
  facet normal 0 0 -1
    outer loop
      vertex 3.8627124296868423 11.888206453689419 -3
      vertex 2.8884533555085965 0.7416287706523348 -3
      vertex 2.772726306131035 1.0978000053275219 -3
    endloop
  endfacet
  facet normal 0 0 -1
    outer loop
      vertex 3.8627124296868423 -11.888206453689419 -3
      vertex 3.8627124296868423 11.888206453689419 -3
      vertex 5.322241144563409 11.310338155825244 -3
    endloop
  endfacet
  facet normal 0 0 -1
    outer loop
      vertex 5.322241144563406 -11.310338155825244 -3
      vertex 5.322241144563409 11.310338155825244 -3
      vertex 6.697834937237459 10.554099068775189 -3
    endloop
  endfacet
  facet normal 0 0 -1
    outer loop
      vertex -0.784881494116416 12.475334105353394 -3
      vertex 0.784881494116416 12.475334105353394 -3
      vertex 0.18725029931062823 2.976258279420024 -3
    endloop
  endfacet
  facet normal 0 0 -1
    outer loop
      vertex 0.784881494116416 12.475334105353394 -3
      vertex 2.342266432321557 12.278590634108609 -3
      vertex 0.5587978488538572 2.929320908423054 -3
    endloop
  endfacet
  facet normal 0 0 -1
    outer loop
      vertex 2.342266432321557 12.278590634108609 -3
      vertex 3.8627124296868423 11.888206453689419 -3
      vertex 2.1738885853459955 2.041417262323054 -3
    endloop
  endfacet
  facet normal 0.12533323356430362 0.9921147013144779 0
    outer loop
      vertex 0.784881494116416 12.475334105353394 -3
      vertex 0.784881494116416 12.475334105353394 0
      vertex 2.342266432321557 12.278590634108609 -3
    endloop
  endfacet
  facet normal 0.24868988716485538 0.9685831611286311 0
    outer loop
      vertex 2.342266432321557 12.278590634108609 -3
      vertex 2.342266432321557 12.278590634108609 0
      vertex 3.8627124296868423 11.888206453689419 -3
    endloop
  endfacet
  facet normal 0.36812455268467714 0.9297764858882517 0
    outer loop
      vertex 3.8627124296868423 11.888206453689419 -3
      vertex 3.8627124296868423 11.888206453689419 0
      vertex 5.322241144563409 11.310338155825244 -3
    endloop
  endfacet
  facet normal 0.4817536741017151 0.8763066800438637 0
    outer loop
      vertex 5.322241144563409 11.310338155825244 -3
      vertex 5.322241144563409 11.310338155825244 0
      vertex 6.697834937237459 10.554099068775189 -3
    endloop
  endfacet
  facet normal 0 0 -1
    outer loop
      vertex 7.967799871858625 -9.631415534697362 -3
      vertex 7.967799871858622 9.631415534697364 -3
      vertex 9.112107842767644 8.55683882410861 -3
    endloop
  endfacet
  facet normal 0 0 -1
    outer loop
      vertex 6.697834937237452 -10.55409906877519 -3
      vertex 6.697834937237459 10.554099068775189 -3
      vertex 7.967799871858622 9.631415534697364 -3
    endloop
  endfacet
  facet normal 0 0 -1
    outer loop
      vertex 9.112107842767646 -8.556838824108606 -3
      vertex 9.112107842767644 8.55683882410861 -3
      vertex 10.112712429686843 7.347315653655914 -3
    endloop
  endfacet
  facet normal 0 0 -1
    outer loop
      vertex 10.112712429686843 -7.347315653655914 -3
      vertex 10.112712429686843 7.347315653655914 -3
      vertex 10.953833500548296 6.0219209262714415 -3
    endloop
  endfacet
  facet normal 0 0 -1
    outer loop
      vertex 10.953833500548294 -6.021920926271442 -3
      vertex 10.953833500548296 6.0219209262714415 -3
      vertex 11.622206073603142 4.601556908558475 -3
    endloop
  endfacet
  facet normal 0 0 -1
    outer loop
      vertex 12.401433766430973 -1.5666654195538008 -3
      vertex 12.401433766430973 1.5666654195538032 -3
      vertex 12.5 0 -3
    endloop
  endfacet
  facet normal 0 0 -1
    outer loop
      vertex 12.10728951410789 -3.1086235895606804 -3
      vertex 12.107289514107888 3.108623589560685 -3
      vertex 12.401433766430973 1.5666654195538032 -3
    endloop
  endfacet
  facet normal 0 0 -1
    outer loop
      vertex 11.62220607360314 -4.6015569085584795 -3
      vertex 11.622206073603142 4.601556908558475 -3
      vertex 12.107289514107888 3.108623589560685 -3
    endloop
  endfacet
  facet normal 0.9980267284282716 0.0627905195293134 0
    outer loop
      vertex 12.5 0 -3
      vertex 12.401433766430973 1.5666654195538032 -3
      vertex 12.5 0 0
    endloop
  endfacet
  facet normal 0.9822872507286886 0.18738131458572493 0
    outer loop
      vertex 12.401433766430973 1.5666654195538032 -3
      vertex 12.107289514107888 3.108623589560685 -3
      vertex 12.401433766430973 1.5666654195538032 0
    endloop
  endfacet
  facet normal 0.9510565162951535 0.30901699437494756 0
    outer loop
      vertex 12.107289514107888 3.108623589560685 -3
      vertex 11.622206073603142 4.601556908558475 -3
      vertex 12.107289514107888 3.108623589560685 0
    endloop
  endfacet
  facet normal 0.90482705246602 0.42577929156507177 0
    outer loop
      vertex 11.622206073603142 4.601556908558475 -3
      vertex 10.953833500548296 6.0219209262714415 -3
      vertex 11.622206073603142 4.601556908558475 0
    endloop
  endfacet
  facet normal 0.6845471059286882 0.7289686274214122 0
    outer loop
      vertex 9.112107842767644 8.55683882410861 -3
      vertex 7.967799871858622 9.631415534697364 -3
      vertex 7.967799871858622 9.631415534697364 0
    endloop
  endfacet
  facet normal 0.5877852522924739 0.8090169943749468 0
    outer loop
      vertex 6.697834937237459 10.554099068775189 -3
      vertex 6.697834937237459 10.554099068775189 0
      vertex 7.967799871858622 9.631415534697364 -3
    endloop
  endfacet
  facet normal 0.7705132427757895 0.6374239897486893 0
    outer loop
      vertex 9.112107842767644 8.55683882410861 -3
      vertex 10.112712429686843 7.347315653655914 0
      vertex 10.112712429686843 7.347315653655914 -3
    endloop
  endfacet
  facet normal 0.8443279255020147 0.5358267949789971 0
    outer loop
      vertex 10.953833500548296 6.0219209262714415 -3
      vertex 10.112712429686843 7.347315653655914 -3
      vertex 10.953833500548296 6.0219209262714415 0
    endloop
  endfacet
  facet normal 0 0 1
    outer loop
      vertex 5.322241144563406 -11.310338155825244 0
      vertex 3.8627124296868423 11.888206453689419 0
      vertex 4.464516155915151 0.5639995510393692 0
    endloop
  endfacet
  facet normal 0 0 1
    outer loop
      vertex 3.8627124296868423 11.888206453689419 0
      vertex 4.35862422507884 1.1191044922418465 0
      vertex 4.464516155915151 0.5639995510393692 0
    endloop
  endfacet
  facet normal 0 0 1
    outer loop
      vertex 3.8627124296868423 11.888206453689419 0
      vertex 3.6405764746872635 2.6450336353161292 0
      vertex 3.943380060197386 2.167891533457719 0
    endloop
  endfacet
  facet normal 0 0 1
    outer loop
      vertex 3.8627124296868423 11.888206453689419 0
      vertex 3.280358823396352 3.080461976679099 0
      vertex 3.6405764746872635 2.6450336353161292 0
    endloop
  endfacet
  facet normal 0 0 1
    outer loop
      vertex 3.8627124296868423 11.888206453689419 0
      vertex 4.183994186497131 1.6565604870810509 0
      vertex 4.35862422507884 1.1191044922418465 0
    endloop
  endfacet
  facet normal 0 0 1
    outer loop
      vertex 3.8627124296868423 11.888206453689419 0
      vertex 3.943380060197386 2.167891533457719 0
      vertex 4.183994186497131 1.6565604870810509 0
    endloop
  endfacet
  facet normal 0 0 1
    outer loop
      vertex 5.322241144563406 -11.310338155825244 0
      vertex 5.322241144563409 11.310338155825244 0
      vertex 3.8627124296868423 11.888206453689419 0
    endloop
  endfacet
  facet normal 0 0 1
    outer loop
      vertex 6.697834937237452 -10.55409906877519 0
      vertex 6.697834937237459 10.554099068775189 0
      vertex 5.322241144563409 11.310338155825244 0
    endloop
  endfacet
  facet normal 0 1 0
    outer loop
      vertex -0.784881494116416 12.475334105353394 0
      vertex 0.784881494116416 12.475334105353394 0
      vertex 0.784881494116416 12.475334105353394 -3
    endloop
  endfacet
  facet normal 0.12533323356430362 0.9921147013144779 0
    outer loop
      vertex 2.342266432321557 12.278590634108609 -3
      vertex 0.784881494116416 12.475334105353394 0
      vertex 2.342266432321557 12.278590634108609 0
    endloop
  endfacet
  facet normal 0.24868988716485538 0.9685831611286311 0
    outer loop
      vertex 3.8627124296868423 11.888206453689419 -3
      vertex 2.342266432321557 12.278590634108609 0
      vertex 3.8627124296868423 11.888206453689419 0
    endloop
  endfacet
  facet normal 0.4817536741017151 0.8763066800438637 0
    outer loop
      vertex 6.697834937237459 10.554099068775189 -3
      vertex 5.322241144563409 11.310338155825244 0
      vertex 6.697834937237459 10.554099068775189 0
    endloop
  endfacet
  facet normal 0.36812455268467714 0.9297764858882517 0
    outer loop
      vertex 5.322241144563409 11.310338155825244 -3
      vertex 3.8627124296868423 11.888206453689419 0
      vertex 5.322241144563409 11.310338155825244 0
    endloop
  endfacet
  facet normal 0 0 1
    outer loop
      vertex 0.784881494116416 12.475334105353394 0
      vertex -0.2825573378819078 4.491120277927222 0
      vertex 0.28255733788190973 4.491120277927222 0
    endloop
  endfacet
  facet normal 0 0 1
    outer loop
      vertex 0.784881494116416 12.475334105353394 0
      vertex 0.28255733788190973 4.491120277927222 0
      vertex 0.8432159156357606 4.420292628279099 0
    endloop
  endfacet
  facet normal 0 0 1
    outer loop
      vertex 0.784881494116416 12.475334105353394 0
      vertex 0.8432159156357606 4.420292628279099 0
      vertex 1.3905764746872633 4.2797543233281905 0
    endloop
  endfacet
  facet normal 0 0 1
    outer loop
      vertex 2.342266432321557 12.278590634108609 0
      vertex 1.3905764746872633 4.2797543233281905 0
      vertex 1.9160068120428273 4.071721736097087 0
    endloop
  endfacet
  facet normal 0 0 1
    outer loop
      vertex 2.342266432321557 12.278590634108609 0
      vertex 1.9160068120428273 4.071721736097087 0
      vertex 2.411220577405485 3.799475664759068 0
    endloop
  endfacet
  facet normal 0 0 1
    outer loop
      vertex 2.342266432321557 12.278590634108609 0
      vertex 2.411220577405485 3.799475664759068 0
      vertex 2.868407953869104 3.467309592491051 0
    endloop
  endfacet
  facet normal 0 0 1
    outer loop
      vertex 2.342266432321557 12.278590634108609 0
      vertex 2.868407953869104 3.467309592491051 0
      vertex 3.280358823396352 3.080461976679099 0
    endloop
  endfacet
  facet normal 0 0 1
    outer loop
      vertex 0.784881494116416 12.475334105353394 0
      vertex 1.3905764746872633 4.2797543233281905 0
      vertex 2.342266432321557 12.278590634108609 0
    endloop
  endfacet
  facet normal 0 0 1
    outer loop
      vertex 2.342266432321557 12.278590634108609 0
      vertex 3.280358823396352 3.080461976679099 0
      vertex 3.8627124296868423 11.888206453689419 0
    endloop
  endfacet
  facet normal 0.9980267284282716 0.0627905195293134 0
    outer loop
      vertex 12.401433766430973 1.5666654195538032 -3
      vertex 12.401433766430973 1.5666654195538032 0
      vertex 12.5 0 0
    endloop
  endfacet
  facet normal 0.9822872507286886 0.18738131458572493 0
    outer loop
      vertex 12.107289514107888 3.108623589560685 -3
      vertex 12.107289514107888 3.108623589560685 0
      vertex 12.401433766430973 1.5666654195538032 0
    endloop
  endfacet
  facet normal 0.9510565162951535 0.30901699437494756 0
    outer loop
      vertex 11.622206073603142 4.601556908558475 -3
      vertex 11.622206073603142 4.601556908558475 0
      vertex 12.107289514107888 3.108623589560685 0
    endloop
  endfacet
  facet normal 0.90482705246602 0.42577929156507177 0
    outer loop
      vertex 10.953833500548296 6.0219209262714415 -3
      vertex 10.953833500548296 6.0219209262714415 0
      vertex 11.622206073603142 4.601556908558475 0
    endloop
  endfacet
  facet normal 0 0 1
    outer loop
      vertex 7.967799871858625 -9.631415534697362 0
      vertex 7.967799871858622 9.631415534697364 0
      vertex 6.697834937237459 10.554099068775189 0
    endloop
  endfacet
  facet normal 0 0 1
    outer loop
      vertex 9.112107842767646 -8.556838824108606 0
      vertex 9.112107842767644 8.55683882410861 0
      vertex 7.967799871858622 9.631415534697364 0
    endloop
  endfacet
  facet normal 0 0 1
    outer loop
      vertex 10.112712429686843 -7.347315653655914 0
      vertex 10.112712429686843 7.347315653655914 0
      vertex 9.112107842767644 8.55683882410861 0
    endloop
  endfacet
  facet normal 0 0 1
    outer loop
      vertex 10.953833500548294 -6.021920926271442 0
      vertex 10.953833500548296 6.0219209262714415 0
      vertex 10.112712429686843 7.347315653655914 0
    endloop
  endfacet
  facet normal 0 0 1
    outer loop
      vertex 12.401433766430973 -1.5666654195538008 0
      vertex 12.5 0 0
      vertex 12.401433766430973 1.5666654195538032 0
    endloop
  endfacet
  facet normal 0 0 1
    outer loop
      vertex 12.10728951410789 -3.1086235895606804 0
      vertex 12.107289514107888 3.108623589560685 0
      vertex 11.622206073603142 4.601556908558475 0
    endloop
  endfacet
  facet normal 0 0 1
    outer loop
      vertex 12.401433766430973 -1.5666654195538008 0
      vertex 12.401433766430973 1.5666654195538032 0
      vertex 12.107289514107888 3.108623589560685 0
    endloop
  endfacet
  facet normal 0 0 1
    outer loop
      vertex 11.62220607360314 -4.6015569085584795 0
      vertex 11.622206073603142 4.601556908558475 0
      vertex 10.953833500548296 6.0219209262714415 0
    endloop
  endfacet
  facet normal 0.6845471059286882 0.7289686274214122 0
    outer loop
      vertex 9.112107842767644 8.55683882410861 -3
      vertex 7.967799871858622 9.631415534697364 0
      vertex 9.112107842767644 8.55683882410861 0
    endloop
  endfacet
  facet normal 0.5877852522924739 0.8090169943749468 0
    outer loop
      vertex 7.967799871858622 9.631415534697364 -3
      vertex 6.697834937237459 10.554099068775189 0
      vertex 7.967799871858622 9.631415534697364 0
    endloop
  endfacet
  facet normal 0.8443279255020147 0.5358267949789971 0
    outer loop
      vertex 10.112712429686843 7.347315653655914 -3
      vertex 10.112712429686843 7.347315653655914 0
      vertex 10.953833500548296 6.0219209262714415 0
    endloop
  endfacet
  facet normal 0.7705132427757895 0.6374239897486893 0
    outer loop
      vertex 9.112107842767644 8.55683882410861 -3
      vertex 9.112107842767644 8.55683882410861 0
      vertex 10.112712429686843 7.347315653655914 0
    endloop
  endfacet
endsolid OpenSCAD_Model
