solid OpenSCAD_Model
  facet normal -0.996786 -0.0627255 -0.0498393
    outer loop
      vertex 30.075 0 -5
      vertex 29.925 0 -2
      vertex 29.8378 3.7694 -5
    endloop
  endfacet
  facet normal 0.125186 -0.990879 -0.0498706
    outer loop
      vertex -1.88842 30.0157 -5
      vertex -1.87901 29.8659 -2
      vertex -5.63549 29.5423 -5
    endloop
  endfacet
  facet normal -0.683688 -0.728071 -0.0498418
    outer loop
      vertex 19.1705 23.1732 -5
      vertex 21.8144 20.4851 -2
      vertex 19.0749 23.0576 -2
    endloop
  endfacet
  facet normal 0.248389 -0.967378 -0.0498212
    outer loop
      vertex -5.63549 29.5423 -5
      vertex -9.24733 28.4604 -2
      vertex -9.29369 28.603 -5
    endloop
  endfacet
  facet normal 0.367657 -0.928626 -0.0498222
    outer loop
      vertex -9.29369 28.603 -5
      vertex -9.24733 28.4604 -2
      vertex -12.8053 27.2127 -5
    endloop
  endfacet
  facet normal -0.949875 -0.308634 -0.0498164
    outer loop
      vertex 27.963 11.0713 -5
      vertex 29.1301 7.47935 -5
      vertex 27.8236 11.0161 -2
    endloop
  endfacet
  facet normal -0.981071 -0.187128 -0.0498338
    outer loop
      vertex 29.8378 3.7694 -5
      vertex 29.689 3.7506 -2
      vertex 28.9849 7.44204 -2
    endloop
  endfacet
  facet normal 0.981068 0.187146 -0.0498112
    outer loop
      vertex -28.9849 -7.44204 -2
      vertex -29.1301 -7.47935 -5
      vertex -29.8378 -3.7694 -5
    endloop
  endfacet
  facet normal 0.683693 0.728066 -0.0498334
    outer loop
      vertex -21.8144 -20.4851 -2
      vertex -19.1705 -23.1732 -5
      vertex -21.9237 -20.5878 -5
    endloop
  endfacet
  facet normal 0.683688 0.728071 -0.0498418
    outer loop
      vertex -19.0749 -23.0576 -2
      vertex -19.1705 -23.1732 -5
      vertex -21.8144 -20.4851 -2
    endloop
  endfacet
  facet normal -0.949875 0.308638 -0.0498123
    outer loop
      vertex 28.9849 -7.44204 -2
      vertex 29.1301 -7.47935 -5
      vertex 27.8236 -11.0161 -2
    endloop
  endfacet
  facet normal -0.769559 -0.636628 -0.0498315
    outer loop
      vertex 21.9237 20.5878 -5
      vertex 24.3312 17.6776 -5
      vertex 21.8144 20.4851 -2
    endloop
  endfacet
  facet normal -0.843284 -0.535154 -0.0498152
    outer loop
      vertex 26.3549 14.4887 -5
      vertex 26.2235 14.4165 -2
      vertex 24.3312 17.6776 -5
    endloop
  endfacet
  facet normal -0.949875 -0.308638 -0.0498123
    outer loop
      vertex 29.1301 7.47935 -5
      vertex 28.9849 7.44204 -2
      vertex 27.8236 11.0161 -2
    endloop
  endfacet
  facet normal -0.981068 -0.187146 -0.0498112
    outer loop
      vertex 29.1301 7.47935 -5
      vertex 29.8378 3.7694 -5
      vertex 28.9849 7.44204 -2
    endloop
  endfacet
  facet normal -0.996786 -0.062721 -0.0498336
    outer loop
      vertex 29.8378 3.7694 -5
      vertex 29.925 0 -2
      vertex 29.689 3.7506 -2
    endloop
  endfacet
  facet normal 0.949875 0.308638 -0.0498123
    outer loop
      vertex -28.9849 -7.44204 -2
      vertex -27.8236 -11.0161 -2
      vertex -29.1301 -7.47935 -5
    endloop
  endfacet
  facet normal 0 0 -1
    outer loop
      vertex 30.075 0 -5
      vertex 32 0 -5
      vertex 31.7477 -4.01066 -5
    endloop
  endfacet
  facet normal 0 0 -1
    outer loop
      vertex 29.8378 -3.7694 -5
      vertex 31.7477 -4.01066 -5
      vertex 30.9947 -7.95808 -5
    endloop
  endfacet
  facet normal 0 0 -1
    outer loop
      vertex 32 0 -5
      vertex 30.075 0 -5
      vertex 31.7477 4.01066 -5
    endloop
  endfacet
  facet normal 0 0 -1
    outer loop
      vertex 29.8378 3.7694 -5
      vertex 31.7477 4.01066 -5
      vertex 30.075 0 -5
    endloop
  endfacet
  facet normal 0 0 -1
    outer loop
      vertex 31.7477 -4.01066 -5
      vertex 29.8378 -3.7694 -5
      vertex 30.075 0 -5
    endloop
  endfacet
  facet normal 0 0 -1
    outer loop
      vertex 29.1301 -7.47935 -5
      vertex 30.9947 -7.95808 -5
      vertex 29.7528 -11.78 -5
    endloop
  endfacet
  facet normal 0 0 -1
    outer loop
      vertex 30.9947 -7.95808 -5
      vertex 29.1301 -7.47935 -5
      vertex 29.8378 -3.7694 -5
    endloop
  endfacet
  facet normal 0 0 -1
    outer loop
      vertex 27.963 -11.0713 -5
      vertex 29.7528 -11.78 -5
      vertex 28.0418 -15.4161 -5
    endloop
  endfacet
  facet normal 0 0 -1
    outer loop
      vertex 29.7528 -11.78 -5
      vertex 27.963 -11.0713 -5
      vertex 29.1301 -7.47935 -5
    endloop
  endfacet
  facet normal 0 0 -1
    outer loop
      vertex 28.0418 -15.4161 -5
      vertex 26.3549 -14.4887 -5
      vertex 27.963 -11.0713 -5
    endloop
  endfacet
  facet normal 0 0 -1
    outer loop
      vertex 25.8885 -18.8091 -5
      vertex 26.3549 -14.4887 -5
      vertex 28.0418 -15.4161 -5
    endloop
  endfacet
  facet normal 0 0 -1
    outer loop
      vertex 25.8885 -18.8091 -5
      vertex 24.3312 -17.6776 -5
      vertex 26.3549 -14.4887 -5
    endloop
  endfacet
  facet normal 0 0 -1
    outer loop
      vertex 23.327 -21.9055 -5
      vertex 24.3312 -17.6776 -5
      vertex 25.8885 -18.8091 -5
    endloop
  endfacet
  facet normal 0 0 -1
    outer loop
      vertex 23.327 -21.9055 -5
      vertex 21.9237 -20.5878 -5
      vertex 24.3312 -17.6776 -5
    endloop
  endfacet
  facet normal 0 0 -1
    outer loop
      vertex 20.3976 -24.6564 -5
      vertex 21.9237 -20.5878 -5
      vertex 23.327 -21.9055 -5
    endloop
  endfacet
  facet normal 0 0 -1
    outer loop
      vertex 20.3976 -24.6564 -5
      vertex 19.1705 -23.1732 -5
      vertex 21.9237 -20.5878 -5
    endloop
  endfacet
  facet normal 0 0 -1
    outer loop
      vertex 17.1465 -27.0185 -5
      vertex 19.1705 -23.1732 -5
      vertex 20.3976 -24.6564 -5
    endloop
  endfacet
  facet normal 0 0 -1
    outer loop
      vertex 17.1465 -27.0185 -5
      vertex 16.115 -25.3932 -5
      vertex 19.1705 -23.1732 -5
    endloop
  endfacet
  facet normal 0 0 -1
    outer loop
      vertex 13.6249 -28.9545 -5
      vertex 16.115 -25.3932 -5
      vertex 17.1465 -27.0185 -5
    endloop
  endfacet
  facet normal 0 0 -1
    outer loop
      vertex 13.6249 -28.9545 -5
      vertex 12.8053 -27.2127 -5
      vertex 16.115 -25.3932 -5
    endloop
  endfacet
  facet normal 0 0 -1
    outer loop
      vertex 9.88854 -30.4338 -5
      vertex 12.8053 -27.2127 -5
      vertex 13.6249 -28.9545 -5
    endloop
  endfacet
  facet normal 0 0 -1
    outer loop
      vertex 9.88854 -30.4338 -5
      vertex 9.29369 -28.603 -5
      vertex 12.8053 -27.2127 -5
    endloop
  endfacet
  facet normal 0 0 -1
    outer loop
      vertex 5.9962 -31.4332 -5
      vertex 9.29369 -28.603 -5
      vertex 9.88854 -30.4338 -5
    endloop
  endfacet
  facet normal 0 0 -1
    outer loop
      vertex 5.9962 -31.4332 -5
      vertex 5.63549 -29.5423 -5
      vertex 9.29369 -28.603 -5
    endloop
  endfacet
  facet normal 0 0 -1
    outer loop
      vertex 2.0093 -31.9369 -5
      vertex 5.63549 -29.5423 -5
      vertex 5.9962 -31.4332 -5
    endloop
  endfacet
  facet normal 0 0 -1
    outer loop
      vertex 2.0093 -31.9369 -5
      vertex 1.88842 -30.0157 -5
      vertex 5.63549 -29.5423 -5
    endloop
  endfacet
  facet normal 0 0 -1
    outer loop
      vertex 2.0093 -31.9369 -5
      vertex -1.88842 -30.0157 -5
      vertex 1.88842 -30.0157 -5
    endloop
  endfacet
  facet normal 0 0 -1
    outer loop
      vertex -2.0093 -31.9369 -5
      vertex -1.88842 -30.0157 -5
      vertex 2.0093 -31.9369 -5
    endloop
  endfacet
  facet normal 0 0 -1
    outer loop
      vertex -2.0093 -31.9369 -5
      vertex -5.63549 -29.5423 -5
      vertex -1.88842 -30.0157 -5
    endloop
  endfacet
  facet normal 0 0 -1
    outer loop
      vertex -5.9962 -31.4332 -5
      vertex -5.63549 -29.5423 -5
      vertex -2.0093 -31.9369 -5
    endloop
  endfacet
  facet normal 0 0 -1
    outer loop
      vertex -5.9962 -31.4332 -5
      vertex -9.29369 -28.603 -5
      vertex -5.63549 -29.5423 -5
    endloop
  endfacet
  facet normal 0 0 -1
    outer loop
      vertex -9.88854 -30.4338 -5
      vertex -9.29369 -28.603 -5
      vertex -5.9962 -31.4332 -5
    endloop
  endfacet
  facet normal 0 0 -1
    outer loop
      vertex -9.88854 -30.4338 -5
      vertex -12.8053 -27.2127 -5
      vertex -9.29369 -28.603 -5
    endloop
  endfacet
  facet normal 0 0 -1
    outer loop
      vertex -13.6249 -28.9545 -5
      vertex -12.8053 -27.2127 -5
      vertex -9.88854 -30.4338 -5
    endloop
  endfacet
  facet normal 0 0 -1
    outer loop
      vertex -13.6249 -28.9545 -5
      vertex -16.115 -25.3932 -5
      vertex -12.8053 -27.2127 -5
    endloop
  endfacet
  facet normal 0 0 -1
    outer loop
      vertex -17.1465 -27.0185 -5
      vertex -16.115 -25.3932 -5
      vertex -13.6249 -28.9545 -5
    endloop
  endfacet
  facet normal 0 0 -1
    outer loop
      vertex -17.1465 -27.0185 -5
      vertex -19.1705 -23.1732 -5
      vertex -16.115 -25.3932 -5
    endloop
  endfacet
  facet normal 0 0 -1
    outer loop
      vertex -20.3976 -24.6564 -5
      vertex -19.1705 -23.1732 -5
      vertex -17.1465 -27.0185 -5
    endloop
  endfacet
  facet normal 0 0 -1
    outer loop
      vertex -20.3976 -24.6564 -5
      vertex -21.9237 -20.5878 -5
      vertex -19.1705 -23.1732 -5
    endloop
  endfacet
  facet normal 0 0 -1
    outer loop
      vertex -23.327 -21.9055 -5
      vertex -21.9237 -20.5878 -5
      vertex -20.3976 -24.6564 -5
    endloop
  endfacet
  facet normal 0 0 -1
    outer loop
      vertex -23.327 -21.9055 -5
      vertex -24.3312 -17.6776 -5
      vertex -21.9237 -20.5878 -5
    endloop
  endfacet
  facet normal 0 0 -1
    outer loop
      vertex -25.8885 -18.8091 -5
      vertex -24.3312 -17.6776 -5
      vertex -23.327 -21.9055 -5
    endloop
  endfacet
  facet normal 0 0 -1
    outer loop
      vertex -25.8885 -18.8091 -5
      vertex -26.3549 -14.4887 -5
      vertex -24.3312 -17.6776 -5
    endloop
  endfacet
  facet normal 0 0 -1
    outer loop
      vertex -28.0418 -15.4161 -5
      vertex -26.3549 -14.4887 -5
      vertex -25.8885 -18.8091 -5
    endloop
  endfacet
  facet normal -0 0 -1
    outer loop
      vertex -26.3549 -14.4887 -5
      vertex -28.0418 -15.4161 -5
      vertex -27.963 -11.0713 -5
    endloop
  endfacet
  facet normal 0 0 -1
    outer loop
      vertex -29.7528 -11.78 -5
      vertex -27.963 -11.0713 -5
      vertex -28.0418 -15.4161 -5
    endloop
  endfacet
  facet normal -0 0 -1
    outer loop
      vertex -27.963 -11.0713 -5
      vertex -29.7528 -11.78 -5
      vertex -29.1301 -7.47935 -5
    endloop
  endfacet
  facet normal 0 0 -1
    outer loop
      vertex -30.9947 -7.95808 -5
      vertex -29.1301 -7.47935 -5
      vertex -29.7528 -11.78 -5
    endloop
  endfacet
  facet normal -0 0 -1
    outer loop
      vertex -29.1301 -7.47935 -5
      vertex -30.9947 -7.95808 -5
      vertex -29.8378 -3.7694 -5
    endloop
  endfacet
  facet normal 0 0 -1
    outer loop
      vertex -31.7477 -4.01066 -5
      vertex -29.8378 -3.7694 -5
      vertex -30.9947 -7.95808 -5
    endloop
  endfacet
  facet normal -0 0 -1
    outer loop
      vertex 31.7477 4.01066 -5
      vertex 29.8378 3.7694 -5
      vertex 30.9947 7.95808 -5
    endloop
  endfacet
  facet normal 0 0 -1
    outer loop
      vertex 29.1301 7.47935 -5
      vertex 30.9947 7.95808 -5
      vertex 29.8378 3.7694 -5
    endloop
  endfacet
  facet normal -0 0 -1
    outer loop
      vertex 30.9947 7.95808 -5
      vertex 29.1301 7.47935 -5
      vertex 29.7528 11.78 -5
    endloop
  endfacet
  facet normal 0 0 -1
    outer loop
      vertex 27.963 11.0713 -5
      vertex 29.7528 11.78 -5
      vertex 29.1301 7.47935 -5
    endloop
  endfacet
  facet normal -0 0 -1
    outer loop
      vertex 29.7528 11.78 -5
      vertex 27.963 11.0713 -5
      vertex 28.0418 15.4161 -5
    endloop
  endfacet
  facet normal 0 0 -1
    outer loop
      vertex 26.3549 14.4887 -5
      vertex 28.0418 15.4161 -5
      vertex 27.963 11.0713 -5
    endloop
  endfacet
  facet normal 0 0 -1
    outer loop
      vertex 26.3549 14.4887 -5
      vertex 25.8885 18.8091 -5
      vertex 28.0418 15.4161 -5
    endloop
  endfacet
  facet normal 0 0 -1
    outer loop
      vertex 24.3312 17.6776 -5
      vertex 25.8885 18.8091 -5
      vertex 26.3549 14.4887 -5
    endloop
  endfacet
  facet normal 0 0 -1
    outer loop
      vertex 24.3312 17.6776 -5
      vertex 23.327 21.9055 -5
      vertex 25.8885 18.8091 -5
    endloop
  endfacet
  facet normal 0 0 -1
    outer loop
      vertex 21.9237 20.5878 -5
      vertex 23.327 21.9055 -5
      vertex 24.3312 17.6776 -5
    endloop
  endfacet
  facet normal 0 0 -1
    outer loop
      vertex 21.9237 20.5878 -5
      vertex 20.3976 24.6564 -5
      vertex 23.327 21.9055 -5
    endloop
  endfacet
  facet normal 0 0 -1
    outer loop
      vertex 19.1705 23.1732 -5
      vertex 20.3976 24.6564 -5
      vertex 21.9237 20.5878 -5
    endloop
  endfacet
  facet normal 0 0 -1
    outer loop
      vertex 19.1705 23.1732 -5
      vertex 17.1465 27.0185 -5
      vertex 20.3976 24.6564 -5
    endloop
  endfacet
  facet normal 0 0 -1
    outer loop
      vertex 16.115 25.3932 -5
      vertex 17.1465 27.0185 -5
      vertex 19.1705 23.1732 -5
    endloop
  endfacet
  facet normal 0 0 -1
    outer loop
      vertex 16.115 25.3932 -5
      vertex 13.6249 28.9545 -5
      vertex 17.1465 27.0185 -5
    endloop
  endfacet
  facet normal 0 0 -1
    outer loop
      vertex 12.8053 27.2127 -5
      vertex 13.6249 28.9545 -5
      vertex 16.115 25.3932 -5
    endloop
  endfacet
  facet normal 0 0 -1
    outer loop
      vertex 12.8053 27.2127 -5
      vertex 9.88854 30.4338 -5
      vertex 13.6249 28.9545 -5
    endloop
  endfacet
  facet normal 0 0 -1
    outer loop
      vertex 9.29369 28.603 -5
      vertex 9.88854 30.4338 -5
      vertex 12.8053 27.2127 -5
    endloop
  endfacet
  facet normal 0 0 -1
    outer loop
      vertex 9.29369 28.603 -5
      vertex 5.9962 31.4332 -5
      vertex 9.88854 30.4338 -5
    endloop
  endfacet
  facet normal 0 0 -1
    outer loop
      vertex 5.63549 29.5423 -5
      vertex 5.9962 31.4332 -5
      vertex 9.29369 28.603 -5
    endloop
  endfacet
  facet normal 0 0 -1
    outer loop
      vertex 5.63549 29.5423 -5
      vertex 2.0093 31.9369 -5
      vertex 5.9962 31.4332 -5
    endloop
  endfacet
  facet normal 0 0 -1
    outer loop
      vertex 1.88842 30.0157 -5
      vertex 2.0093 31.9369 -5
      vertex 5.63549 29.5423 -5
    endloop
  endfacet
  facet normal 0 0 -1
    outer loop
      vertex -1.88842 30.0157 -5
      vertex 2.0093 31.9369 -5
      vertex 1.88842 30.0157 -5
    endloop
  endfacet
  facet normal 0 0 -1
    outer loop
      vertex -1.88842 30.0157 -5
      vertex -2.0093 31.9369 -5
      vertex 2.0093 31.9369 -5
    endloop
  endfacet
  facet normal 0 0 -1
    outer loop
      vertex -5.63549 29.5423 -5
      vertex -2.0093 31.9369 -5
      vertex -1.88842 30.0157 -5
    endloop
  endfacet
  facet normal 0 0 -1
    outer loop
      vertex -5.63549 29.5423 -5
      vertex -5.9962 31.4332 -5
      vertex -2.0093 31.9369 -5
    endloop
  endfacet
  facet normal 0 0 -1
    outer loop
      vertex -9.29369 28.603 -5
      vertex -5.9962 31.4332 -5
      vertex -5.63549 29.5423 -5
    endloop
  endfacet
  facet normal 0 0 -1
    outer loop
      vertex -9.29369 28.603 -5
      vertex -9.88854 30.4338 -5
      vertex -5.9962 31.4332 -5
    endloop
  endfacet
  facet normal 0 0 -1
    outer loop
      vertex -12.8053 27.2127 -5
      vertex -9.88854 30.4338 -5
      vertex -9.29369 28.603 -5
    endloop
  endfacet
  facet normal 0 0 -1
    outer loop
      vertex -12.8053 27.2127 -5
      vertex -13.6249 28.9545 -5
      vertex -9.88854 30.4338 -5
    endloop
  endfacet
  facet normal 0 0 -1
    outer loop
      vertex -16.115 25.3932 -5
      vertex -13.6249 28.9545 -5
      vertex -12.8053 27.2127 -5
    endloop
  endfacet
  facet normal 0 0 -1
    outer loop
      vertex -16.115 25.3932 -5
      vertex -17.1465 27.0185 -5
      vertex -13.6249 28.9545 -5
    endloop
  endfacet
  facet normal 0 0 -1
    outer loop
      vertex -19.1705 23.1732 -5
      vertex -17.1465 27.0185 -5
      vertex -16.115 25.3932 -5
    endloop
  endfacet
  facet normal 0 0 -1
    outer loop
      vertex -19.1705 23.1732 -5
      vertex -20.3976 24.6564 -5
      vertex -17.1465 27.0185 -5
    endloop
  endfacet
  facet normal 0 0 -1
    outer loop
      vertex -21.9237 20.5878 -5
      vertex -20.3976 24.6564 -5
      vertex -19.1705 23.1732 -5
    endloop
  endfacet
  facet normal 0 0 -1
    outer loop
      vertex -21.9237 20.5878 -5
      vertex -23.327 21.9055 -5
      vertex -20.3976 24.6564 -5
    endloop
  endfacet
  facet normal 0 0 -1
    outer loop
      vertex -24.3312 17.6776 -5
      vertex -23.327 21.9055 -5
      vertex -21.9237 20.5878 -5
    endloop
  endfacet
  facet normal 0 0 -1
    outer loop
      vertex -24.3312 17.6776 -5
      vertex -25.8885 18.8091 -5
      vertex -23.327 21.9055 -5
    endloop
  endfacet
  facet normal 0 0 -1
    outer loop
      vertex -26.3549 14.4887 -5
      vertex -25.8885 18.8091 -5
      vertex -24.3312 17.6776 -5
    endloop
  endfacet
  facet normal 0 0 -1
    outer loop
      vertex -28.0418 15.4161 -5
      vertex -26.3549 14.4887 -5
      vertex -27.963 11.0713 -5
    endloop
  endfacet
  facet normal 0 0 -1
    outer loop
      vertex -26.3549 14.4887 -5
      vertex -28.0418 15.4161 -5
      vertex -25.8885 18.8091 -5
    endloop
  endfacet
  facet normal 0 0 -1
    outer loop
      vertex -29.7528 11.78 -5
      vertex -27.963 11.0713 -5
      vertex -29.1301 7.47935 -5
    endloop
  endfacet
  facet normal 0 0 -1
    outer loop
      vertex -27.963 11.0713 -5
      vertex -29.7528 11.78 -5
      vertex -28.0418 15.4161 -5
    endloop
  endfacet
  facet normal 0 0 -1
    outer loop
      vertex -30.9947 7.95808 -5
      vertex -29.1301 7.47935 -5
      vertex -29.8378 3.7694 -5
    endloop
  endfacet
  facet normal 0 0 -1
    outer loop
      vertex -31.7477 4.01066 -5
      vertex -29.8378 3.7694 -5
      vertex -30.075 0 -5
    endloop
  endfacet
  facet normal -0 0 -1
    outer loop
      vertex -29.8378 -3.7694 -5
      vertex -31.7477 -4.01066 -5
      vertex -30.075 0 -5
    endloop
  endfacet
  facet normal 0 0 -1
    outer loop
      vertex -29.1301 7.47935 -5
      vertex -30.9947 7.95808 -5
      vertex -29.7528 11.78 -5
    endloop
  endfacet
  facet normal 0 0 -1
    outer loop
      vertex -32 0 -5
      vertex -30.075 0 -5
      vertex -31.7477 -4.01066 -5
    endloop
  endfacet
  facet normal 0 0 -1
    outer loop
      vertex -29.8378 3.7694 -5
      vertex -31.7477 4.01066 -5
      vertex -30.9947 7.95808 -5
    endloop
  endfacet
  facet normal 0 0 -1
    outer loop
      vertex -30.075 0 -5
      vertex -32 0 -5
      vertex -31.7477 4.01066 -5
    endloop
  endfacet
  facet normal 0.996786 -0.0627255 -0.0498393
    outer loop
      vertex -29.8378 3.7694 -5
      vertex -29.925 0 -2
      vertex -30.075 0 -5
    endloop
  endfacet
  facet normal 0.949875 -0.308638 -0.0498123
    outer loop
      vertex -27.8236 11.0161 -2
      vertex -28.9849 7.44204 -2
      vertex -29.1301 7.47935 -5
    endloop
  endfacet
  facet normal 0.903704 -0.425249 -0.0498166
    outer loop
      vertex -26.3549 14.4887 -5
      vertex -26.2235 14.4165 -2
      vertex -27.963 11.0713 -5
    endloop
  endfacet
  facet normal 0.903704 -0.425249 -0.0498167
    outer loop
      vertex -26.2235 14.4165 -2
      vertex -27.8236 11.0161 -2
      vertex -27.963 11.0713 -5
    endloop
  endfacet
  facet normal 0.48115 0.875219 -0.0498582
    outer loop
      vertex -16.0346 -25.2665 -2
      vertex -12.8053 -27.2127 -5
      vertex -16.115 -25.3932 -5
    endloop
  endfacet
  facet normal 0.125186 0.990879 -0.0498706
    outer loop
      vertex -1.87901 -29.8659 -2
      vertex -1.88842 -30.0157 -5
      vertex -5.63549 -29.5423 -5
    endloop
  endfacet
  facet normal 0.367667 0.928621 -0.0498359
    outer loop
      vertex -12.7414 -27.077 -2
      vertex -9.24733 -28.4604 -2
      vertex -12.8053 -27.2127 -5
    endloop
  endfacet
  facet normal 0.367657 0.928626 -0.0498222
    outer loop
      vertex -9.24733 -28.4604 -2
      vertex -9.29369 -28.603 -5
      vertex -12.8053 -27.2127 -5
    endloop
  endfacet
  facet normal -0.367657 0.928626 -0.0498222
    outer loop
      vertex 12.8053 -27.2127 -5
      vertex 9.29369 -28.603 -5
      vertex 9.24733 -28.4604 -2
    endloop
  endfacet
  facet normal 0 0.998756 -0.0498712
    outer loop
      vertex 1.88842 -30.0157 -5
      vertex -1.87901 -29.8659 -2
      vertex 1.87901 -29.8659 -2
    endloop
  endfacet
  facet normal 0 0.998756 -0.0498712
    outer loop
      vertex -1.87901 -29.8659 -2
      vertex 1.88842 -30.0157 -5
      vertex -1.88842 -30.0157 -5
    endloop
  endfacet
  facet normal -0.587053 0.808012 -0.0498428
    outer loop
      vertex 19.0749 -23.0576 -2
      vertex 19.1705 -23.1732 -5
      vertex 16.0346 -25.2665 -2
    endloop
  endfacet
  facet normal -0.683693 0.728066 -0.0498334
    outer loop
      vertex 21.8144 -20.4851 -2
      vertex 21.9237 -20.5878 -5
      vertex 19.1705 -23.1732 -5
    endloop
  endfacet
  facet normal -0.981068 0.187146 -0.0498112
    outer loop
      vertex 29.8378 -3.7694 -5
      vertex 29.1301 -7.47935 -5
      vertex 28.9849 -7.44204 -2
    endloop
  endfacet
  facet normal 0.125176 -0.990881 -0.0498578
    outer loop
      vertex -1.87901 29.8659 -2
      vertex -5.60739 29.3949 -2
      vertex -5.63549 29.5423 -5
    endloop
  endfacet
  facet normal 0.587053 -0.808012 -0.0498428
    outer loop
      vertex -16.0346 25.2665 -2
      vertex -19.0749 23.0576 -2
      vertex -19.1705 23.1732 -5
    endloop
  endfacet
  facet normal -0.367657 -0.928626 -0.0498222
    outer loop
      vertex 9.29369 28.603 -5
      vertex 12.8053 27.2127 -5
      vertex 9.24733 28.4604 -2
    endloop
  endfacet
  facet normal 0 -0.998756 -0.0498712
    outer loop
      vertex -1.88842 30.0157 -5
      vertex 1.87901 29.8659 -2
      vertex -1.87901 29.8659 -2
    endloop
  endfacet
  facet normal 0 -0.998756 -0.0498712
    outer loop
      vertex 1.87901 29.8659 -2
      vertex -1.88842 30.0157 -5
      vertex 1.88842 30.0157 -5
    endloop
  endfacet
  facet normal -0.683693 -0.728066 -0.0498334
    outer loop
      vertex 21.9237 20.5878 -5
      vertex 21.8144 20.4851 -2
      vertex 19.1705 23.1732 -5
    endloop
  endfacet
  facet normal -0.843272 -0.535171 -0.0498406
    outer loop
      vertex 24.3312 17.6776 -5
      vertex 26.2235 14.4165 -2
      vertex 24.2098 17.5895 -2
    endloop
  endfacet
  facet normal -0.769562 -0.636624 -0.0498371
    outer loop
      vertex 24.3312 17.6776 -5
      vertex 24.2098 17.5895 -2
      vertex 21.8144 20.4851 -2
    endloop
  endfacet
  facet normal -0.903704 -0.425249 -0.0498166
    outer loop
      vertex 26.3549 14.4887 -5
      vertex 27.963 11.0713 -5
      vertex 26.2235 14.4165 -2
    endloop
  endfacet
  facet normal -0.903704 -0.425249 -0.0498167
    outer loop
      vertex 27.963 11.0713 -5
      vertex 27.8236 11.0161 -2
      vertex 26.2235 14.4165 -2
    endloop
  endfacet
  facet normal 0.949875 0.308634 -0.0498164
    outer loop
      vertex -27.8236 -11.0161 -2
      vertex -27.963 -11.0713 -5
      vertex -29.1301 -7.47935 -5
    endloop
  endfacet
  facet normal 0 0 -1
    outer loop
      vertex 29.689 -3.7506 -2
      vertex 29.689 3.7506 -2
      vertex 29.925 0 -2
    endloop
  endfacet
  facet normal 0 0 -1
    outer loop
      vertex 28.9849 -7.44204 -2
      vertex 29.689 3.7506 -2
      vertex 29.689 -3.7506 -2
    endloop
  endfacet
  facet normal 0 0 -1
    outer loop
      vertex 28.9849 -7.44204 -2
      vertex 28.9849 7.44204 -2
      vertex 29.689 3.7506 -2
    endloop
  endfacet
  facet normal 0 0 -1
    outer loop
      vertex 27.8236 -11.0161 -2
      vertex 28.9849 7.44204 -2
      vertex 28.9849 -7.44204 -2
    endloop
  endfacet
  facet normal 0 0 -1
    outer loop
      vertex 27.8236 -11.0161 -2
      vertex 27.8236 11.0161 -2
      vertex 28.9849 7.44204 -2
    endloop
  endfacet
  facet normal 0 0 -1
    outer loop
      vertex 26.2235 -14.4165 -2
      vertex 27.8236 11.0161 -2
      vertex 27.8236 -11.0161 -2
    endloop
  endfacet
  facet normal 0 0 -1
    outer loop
      vertex 26.2235 -14.4165 -2
      vertex 26.2235 14.4165 -2
      vertex 27.8236 11.0161 -2
    endloop
  endfacet
  facet normal 0 0 -1
    outer loop
      vertex 24.2098 -17.5895 -2
      vertex 26.2235 14.4165 -2
      vertex 26.2235 -14.4165 -2
    endloop
  endfacet
  facet normal 0 0 -1
    outer loop
      vertex 24.2098 -17.5895 -2
      vertex 24.2098 17.5895 -2
      vertex 26.2235 14.4165 -2
    endloop
  endfacet
  facet normal 0 0 -1
    outer loop
      vertex 21.8144 -20.4851 -2
      vertex 24.2098 17.5895 -2
      vertex 24.2098 -17.5895 -2
    endloop
  endfacet
  facet normal 0 0 -1
    outer loop
      vertex 21.8144 -20.4851 -2
      vertex 21.8144 20.4851 -2
      vertex 24.2098 17.5895 -2
    endloop
  endfacet
  facet normal 0 0 -1
    outer loop
      vertex 19.0749 -23.0576 -2
      vertex 21.8144 20.4851 -2
      vertex 21.8144 -20.4851 -2
    endloop
  endfacet
  facet normal 0 0 -1
    outer loop
      vertex 19.0749 -23.0576 -2
      vertex 19.0749 23.0576 -2
      vertex 21.8144 20.4851 -2
    endloop
  endfacet
  facet normal 0 0 -1
    outer loop
      vertex 16.0346 -25.2665 -2
      vertex 19.0749 23.0576 -2
      vertex 19.0749 -23.0576 -2
    endloop
  endfacet
  facet normal 0 0 -1
    outer loop
      vertex 16.0346 -25.2665 -2
      vertex 16.0346 25.2665 -2
      vertex 19.0749 23.0576 -2
    endloop
  endfacet
  facet normal 0 0 -1
    outer loop
      vertex 12.7414 -27.077 -2
      vertex 16.0346 25.2665 -2
      vertex 16.0346 -25.2665 -2
    endloop
  endfacet
  facet normal 0 0 -1
    outer loop
      vertex 12.7414 -27.077 -2
      vertex 12.7414 27.077 -2
      vertex 16.0346 25.2665 -2
    endloop
  endfacet
  facet normal 0 0 -1
    outer loop
      vertex 9.24733 -28.4604 -2
      vertex 12.7414 27.077 -2
      vertex 12.7414 -27.077 -2
    endloop
  endfacet
  facet normal 0 0 -1
    outer loop
      vertex 9.24733 -28.4604 -2
      vertex 9.24733 28.4604 -2
      vertex 12.7414 27.077 -2
    endloop
  endfacet
  facet normal 0 0 -1
    outer loop
      vertex 5.60739 -29.3949 -2
      vertex 9.24733 28.4604 -2
      vertex 9.24733 -28.4604 -2
    endloop
  endfacet
  facet normal 0 0 -1
    outer loop
      vertex 5.60739 -29.3949 -2
      vertex 5.60739 29.3949 -2
      vertex 9.24733 28.4604 -2
    endloop
  endfacet
  facet normal 0 0 -1
    outer loop
      vertex 1.87901 -29.8659 -2
      vertex 5.60739 29.3949 -2
      vertex 5.60739 -29.3949 -2
    endloop
  endfacet
  facet normal 0 0 -1
    outer loop
      vertex 1.87901 -29.8659 -2
      vertex 1.87901 29.8659 -2
      vertex 5.60739 29.3949 -2
    endloop
  endfacet
  facet normal 0 0 -1
    outer loop
      vertex -1.87901 -29.8659 -2
      vertex 1.87901 29.8659 -2
      vertex 1.87901 -29.8659 -2
    endloop
  endfacet
  facet normal 0 0 -1
    outer loop
      vertex -1.87901 -29.8659 -2
      vertex -1.87901 29.8659 -2
      vertex 1.87901 29.8659 -2
    endloop
  endfacet
  facet normal 0 0 -1
    outer loop
      vertex -5.60739 -29.3949 -2
      vertex -1.87901 29.8659 -2
      vertex -1.87901 -29.8659 -2
    endloop
  endfacet
  facet normal 0 0 -1
    outer loop
      vertex -5.60739 -29.3949 -2
      vertex -5.60739 29.3949 -2
      vertex -1.87901 29.8659 -2
    endloop
  endfacet
  facet normal 0 0 -1
    outer loop
      vertex -9.24733 -28.4604 -2
      vertex -5.60739 29.3949 -2
      vertex -5.60739 -29.3949 -2
    endloop
  endfacet
  facet normal 0 0 -1
    outer loop
      vertex -9.24733 -28.4604 -2
      vertex -9.24733 28.4604 -2
      vertex -5.60739 29.3949 -2
    endloop
  endfacet
  facet normal 0 0 -1
    outer loop
      vertex -12.7414 -27.077 -2
      vertex -9.24733 28.4604 -2
      vertex -9.24733 -28.4604 -2
    endloop
  endfacet
  facet normal 0 0 -1
    outer loop
      vertex -12.7414 -27.077 -2
      vertex -12.7414 27.077 -2
      vertex -9.24733 28.4604 -2
    endloop
  endfacet
  facet normal 0 0 -1
    outer loop
      vertex -16.0346 -25.2665 -2
      vertex -12.7414 27.077 -2
      vertex -12.7414 -27.077 -2
    endloop
  endfacet
  facet normal 0 0 -1
    outer loop
      vertex -16.0346 -25.2665 -2
      vertex -16.0346 25.2665 -2
      vertex -12.7414 27.077 -2
    endloop
  endfacet
  facet normal 0 0 -1
    outer loop
      vertex -19.0749 -23.0576 -2
      vertex -16.0346 25.2665 -2
      vertex -16.0346 -25.2665 -2
    endloop
  endfacet
  facet normal 0 0 -1
    outer loop
      vertex -19.0749 -23.0576 -2
      vertex -19.0749 23.0576 -2
      vertex -16.0346 25.2665 -2
    endloop
  endfacet
  facet normal 0 0 -1
    outer loop
      vertex -21.8144 -20.4851 -2
      vertex -19.0749 23.0576 -2
      vertex -19.0749 -23.0576 -2
    endloop
  endfacet
  facet normal 0 0 -1
    outer loop
      vertex -21.8144 -20.4851 -2
      vertex -21.8144 20.4851 -2
      vertex -19.0749 23.0576 -2
    endloop
  endfacet
  facet normal 0 0 -1
    outer loop
      vertex -24.2098 -17.5895 -2
      vertex -21.8144 20.4851 -2
      vertex -21.8144 -20.4851 -2
    endloop
  endfacet
  facet normal 0 0 -1
    outer loop
      vertex -24.2098 -17.5895 -2
      vertex -24.2098 17.5895 -2
      vertex -21.8144 20.4851 -2
    endloop
  endfacet
  facet normal 0 0 -1
    outer loop
      vertex -26.2235 -14.4165 -2
      vertex -24.2098 17.5895 -2
      vertex -24.2098 -17.5895 -2
    endloop
  endfacet
  facet normal 0 0 -1
    outer loop
      vertex -26.2235 -14.4165 -2
      vertex -26.2235 14.4165 -2
      vertex -24.2098 17.5895 -2
    endloop
  endfacet
  facet normal 0 0 -1
    outer loop
      vertex -27.8236 -11.0161 -2
      vertex -26.2235 14.4165 -2
      vertex -26.2235 -14.4165 -2
    endloop
  endfacet
  facet normal 0 0 -1
    outer loop
      vertex -27.8236 -11.0161 -2
      vertex -27.8236 11.0161 -2
      vertex -26.2235 14.4165 -2
    endloop
  endfacet
  facet normal 0 0 -1
    outer loop
      vertex -28.9849 -7.44204 -2
      vertex -27.8236 11.0161 -2
      vertex -27.8236 -11.0161 -2
    endloop
  endfacet
  facet normal 0 0 -1
    outer loop
      vertex -28.9849 -7.44204 -2
      vertex -28.9849 7.44204 -2
      vertex -27.8236 11.0161 -2
    endloop
  endfacet
  facet normal 0 0 -1
    outer loop
      vertex -29.689 -3.7506 -2
      vertex -28.9849 7.44204 -2
      vertex -28.9849 -7.44204 -2
    endloop
  endfacet
  facet normal 0 0 -1
    outer loop
      vertex -29.689 -3.7506 -2
      vertex -29.689 3.7506 -2
      vertex -28.9849 7.44204 -2
    endloop
  endfacet
  facet normal 0 -0 -1
    outer loop
      vertex -29.689 3.7506 -2
      vertex -29.689 -3.7506 -2
      vertex -29.925 0 -2
    endloop
  endfacet
  facet normal 0.996786 -0.062721 -0.0498336
    outer loop
      vertex -29.8378 3.7694 -5
      vertex -29.689 3.7506 -2
      vertex -29.925 0 -2
    endloop
  endfacet
  facet normal 0.949875 -0.308634 -0.0498164
    outer loop
      vertex -27.963 11.0713 -5
      vertex -27.8236 11.0161 -2
      vertex -29.1301 7.47935 -5
    endloop
  endfacet
  facet normal 0.769562 -0.636624 -0.0498371
    outer loop
      vertex -21.8144 20.4851 -2
      vertex -24.2098 17.5895 -2
      vertex -24.3312 17.6776 -5
    endloop
  endfacet
  facet normal 0.248361 0.967384 -0.0498571
    outer loop
      vertex -5.60739 -29.3949 -2
      vertex -5.63549 -29.5423 -5
      vertex -9.24733 -28.4604 -2
    endloop
  endfacet
  facet normal 0.125176 0.990881 -0.0498578
    outer loop
      vertex -5.60739 -29.3949 -2
      vertex -1.87901 -29.8659 -2
      vertex -5.63549 -29.5423 -5
    endloop
  endfacet
  facet normal 0.587053 0.808012 -0.0498428
    outer loop
      vertex -19.0749 -23.0576 -2
      vertex -16.0346 -25.2665 -2
      vertex -19.1705 -23.1732 -5
    endloop
  endfacet
  facet normal 0.587063 0.808005 -0.049858
    outer loop
      vertex -16.0346 -25.2665 -2
      vertex -16.115 -25.3932 -5
      vertex -19.1705 -23.1732 -5
    endloop
  endfacet
  facet normal 0.481165 0.875212 -0.0498376
    outer loop
      vertex -12.7414 -27.077 -2
      vertex -12.8053 -27.2127 -5
      vertex -16.0346 -25.2665 -2
    endloop
  endfacet
  facet normal -0.248389 0.967378 -0.0498212
    outer loop
      vertex 9.24733 -28.4604 -2
      vertex 9.29369 -28.603 -5
      vertex 5.63549 -29.5423 -5
    endloop
  endfacet
  facet normal -0.125186 0.990879 -0.0498706
    outer loop
      vertex 5.63549 -29.5423 -5
      vertex 1.88842 -30.0157 -5
      vertex 1.87901 -29.8659 -2
    endloop
  endfacet
  facet normal -0.367667 0.928621 -0.0498359
    outer loop
      vertex 12.7414 -27.077 -2
      vertex 12.8053 -27.2127 -5
      vertex 9.24733 -28.4604 -2
    endloop
  endfacet
  facet normal -0.587063 0.808005 -0.049858
    outer loop
      vertex 19.1705 -23.1732 -5
      vertex 16.115 -25.3932 -5
      vertex 16.0346 -25.2665 -2
    endloop
  endfacet
  facet normal -0.769559 0.636628 -0.0498315
    outer loop
      vertex 24.3312 -17.6776 -5
      vertex 21.9237 -20.5878 -5
      vertex 21.8144 -20.4851 -2
    endloop
  endfacet
  facet normal -0.769562 0.636624 -0.0498371
    outer loop
      vertex 24.2098 -17.5895 -2
      vertex 24.3312 -17.6776 -5
      vertex 21.8144 -20.4851 -2
    endloop
  endfacet
  facet normal -0.843272 0.535171 -0.0498406
    outer loop
      vertex 26.2235 -14.4165 -2
      vertex 24.3312 -17.6776 -5
      vertex 24.2098 -17.5895 -2
    endloop
  endfacet
  facet normal -0.843284 0.535154 -0.0498152
    outer loop
      vertex 26.2235 -14.4165 -2
      vertex 26.3549 -14.4887 -5
      vertex 24.3312 -17.6776 -5
    endloop
  endfacet
  facet normal -0.996786 0.0627255 -0.0498393
    outer loop
      vertex 29.925 0 -2
      vertex 30.075 0 -5
      vertex 29.8378 -3.7694 -5
    endloop
  endfacet
  facet normal 0.367667 -0.928621 -0.0498359
    outer loop
      vertex -9.24733 28.4604 -2
      vertex -12.7414 27.077 -2
      vertex -12.8053 27.2127 -5
    endloop
  endfacet
  facet normal 0.481165 -0.875212 -0.0498376
    outer loop
      vertex -12.8053 27.2127 -5
      vertex -12.7414 27.077 -2
      vertex -16.0346 25.2665 -2
    endloop
  endfacet
  facet normal -0.587053 -0.808012 -0.0498428
    outer loop
      vertex 19.1705 23.1732 -5
      vertex 19.0749 23.0576 -2
      vertex 16.0346 25.2665 -2
    endloop
  endfacet
  facet normal -0.125186 -0.990879 -0.0498706
    outer loop
      vertex 1.88842 30.0157 -5
      vertex 5.63549 29.5423 -5
      vertex 1.87901 29.8659 -2
    endloop
  endfacet
  facet normal -0.248361 -0.967384 -0.0498571
    outer loop
      vertex 5.63549 29.5423 -5
      vertex 9.24733 28.4604 -2
      vertex 5.60739 29.3949 -2
    endloop
  endfacet
  facet normal -0.248389 -0.967378 -0.0498212
    outer loop
      vertex 9.29369 28.603 -5
      vertex 9.24733 28.4604 -2
      vertex 5.63549 29.5423 -5
    endloop
  endfacet
  facet normal 0.903704 0.425249 -0.0498166
    outer loop
      vertex -26.2235 -14.4165 -2
      vertex -26.3549 -14.4887 -5
      vertex -27.963 -11.0713 -5
    endloop
  endfacet
  facet normal 0.843284 0.535154 -0.0498152
    outer loop
      vertex -26.2235 -14.4165 -2
      vertex -24.3312 -17.6776 -5
      vertex -26.3549 -14.4887 -5
    endloop
  endfacet
  facet normal 0.769559 0.636628 -0.0498315
    outer loop
      vertex -21.8144 -20.4851 -2
      vertex -21.9237 -20.5878 -5
      vertex -24.3312 -17.6776 -5
    endloop
  endfacet
  facet normal 0.996786 0.0627255 -0.0498393
    outer loop
      vertex -29.925 0 -2
      vertex -29.8378 -3.7694 -5
      vertex -30.075 0 -5
    endloop
  endfacet
  facet normal 0.981068 -0.187146 -0.0498112
    outer loop
      vertex -29.1301 7.47935 -5
      vertex -28.9849 7.44204 -2
      vertex -29.8378 3.7694 -5
    endloop
  endfacet
  facet normal 0.981071 -0.187128 -0.0498338
    outer loop
      vertex -28.9849 7.44204 -2
      vertex -29.689 3.7506 -2
      vertex -29.8378 3.7694 -5
    endloop
  endfacet
  facet normal 0.843284 -0.535154 -0.0498152
    outer loop
      vertex -24.3312 17.6776 -5
      vertex -26.2235 14.4165 -2
      vertex -26.3549 14.4887 -5
    endloop
  endfacet
  facet normal 0.769559 -0.636628 -0.0498315
    outer loop
      vertex -21.9237 20.5878 -5
      vertex -21.8144 20.4851 -2
      vertex -24.3312 17.6776 -5
    endloop
  endfacet
  facet normal 0.248389 0.967378 -0.0498212
    outer loop
      vertex -9.24733 -28.4604 -2
      vertex -5.63549 -29.5423 -5
      vertex -9.29369 -28.603 -5
    endloop
  endfacet
  facet normal -0.125176 0.990881 -0.0498578
    outer loop
      vertex 5.60739 -29.3949 -2
      vertex 5.63549 -29.5423 -5
      vertex 1.87901 -29.8659 -2
    endloop
  endfacet
  facet normal -0.248361 0.967384 -0.0498571
    outer loop
      vertex 9.24733 -28.4604 -2
      vertex 5.63549 -29.5423 -5
      vertex 5.60739 -29.3949 -2
    endloop
  endfacet
  facet normal -0.481165 0.875212 -0.0498376
    outer loop
      vertex 16.0346 -25.2665 -2
      vertex 12.8053 -27.2127 -5
      vertex 12.7414 -27.077 -2
    endloop
  endfacet
  facet normal -0.48115 0.875219 -0.0498582
    outer loop
      vertex 16.0346 -25.2665 -2
      vertex 16.115 -25.3932 -5
      vertex 12.8053 -27.2127 -5
    endloop
  endfacet
  facet normal -0.683688 0.728071 -0.0498418
    outer loop
      vertex 21.8144 -20.4851 -2
      vertex 19.1705 -23.1732 -5
      vertex 19.0749 -23.0576 -2
    endloop
  endfacet
  facet normal -0.903704 0.425249 -0.0498166
    outer loop
      vertex 27.963 -11.0713 -5
      vertex 26.3549 -14.4887 -5
      vertex 26.2235 -14.4165 -2
    endloop
  endfacet
  facet normal -0.981071 0.187128 -0.0498338
    outer loop
      vertex 29.689 -3.7506 -2
      vertex 29.8378 -3.7694 -5
      vertex 28.9849 -7.44204 -2
    endloop
  endfacet
  facet normal -0.996786 0.062721 -0.0498336
    outer loop
      vertex 29.925 0 -2
      vertex 29.8378 -3.7694 -5
      vertex 29.689 -3.7506 -2
    endloop
  endfacet
  facet normal 0.248361 -0.967384 -0.0498571
    outer loop
      vertex -5.63549 29.5423 -5
      vertex -5.60739 29.3949 -2
      vertex -9.24733 28.4604 -2
    endloop
  endfacet
  facet normal 0.587063 -0.808005 -0.049858
    outer loop
      vertex -16.115 25.3932 -5
      vertex -16.0346 25.2665 -2
      vertex -19.1705 23.1732 -5
    endloop
  endfacet
  facet normal 0.48115 -0.875219 -0.0498582
    outer loop
      vertex -12.8053 27.2127 -5
      vertex -16.0346 25.2665 -2
      vertex -16.115 25.3932 -5
    endloop
  endfacet
  facet normal -0.481165 -0.875212 -0.0498376
    outer loop
      vertex 12.8053 27.2127 -5
      vertex 16.0346 25.2665 -2
      vertex 12.7414 27.077 -2
    endloop
  endfacet
  facet normal -0.367667 -0.928621 -0.0498359
    outer loop
      vertex 12.8053 27.2127 -5
      vertex 12.7414 27.077 -2
      vertex 9.24733 28.4604 -2
    endloop
  endfacet
  facet normal -0.48115 -0.875219 -0.0498582
    outer loop
      vertex 16.115 25.3932 -5
      vertex 16.0346 25.2665 -2
      vertex 12.8053 27.2127 -5
    endloop
  endfacet
  facet normal -0.587063 -0.808005 -0.049858
    outer loop
      vertex 16.115 25.3932 -5
      vertex 19.1705 23.1732 -5
      vertex 16.0346 25.2665 -2
    endloop
  endfacet
  facet normal -0.125176 -0.990881 -0.0498578
    outer loop
      vertex 5.63549 29.5423 -5
      vertex 5.60739 29.3949 -2
      vertex 1.87901 29.8659 -2
    endloop
  endfacet
  facet normal 0.903704 0.425249 -0.0498167
    outer loop
      vertex -27.8236 -11.0161 -2
      vertex -26.2235 -14.4165 -2
      vertex -27.963 -11.0713 -5
    endloop
  endfacet
  facet normal 0.843272 0.535171 -0.0498406
    outer loop
      vertex -24.2098 -17.5895 -2
      vertex -24.3312 -17.6776 -5
      vertex -26.2235 -14.4165 -2
    endloop
  endfacet
  facet normal 0.769562 0.636624 -0.0498371
    outer loop
      vertex -24.2098 -17.5895 -2
      vertex -21.8144 -20.4851 -2
      vertex -24.3312 -17.6776 -5
    endloop
  endfacet
  facet normal 0.996786 0.062721 -0.0498336
    outer loop
      vertex -29.689 -3.7506 -2
      vertex -29.8378 -3.7694 -5
      vertex -29.925 0 -2
    endloop
  endfacet
  facet normal 0.981071 0.187128 -0.0498338
    outer loop
      vertex -29.689 -3.7506 -2
      vertex -28.9849 -7.44204 -2
      vertex -29.8378 -3.7694 -5
    endloop
  endfacet
  facet normal 0.683688 -0.728071 -0.0498418
    outer loop
      vertex -19.1705 23.1732 -5
      vertex -19.0749 23.0576 -2
      vertex -21.8144 20.4851 -2
    endloop
  endfacet
  facet normal 0.683693 -0.728066 -0.0498334
    outer loop
      vertex -19.1705 23.1732 -5
      vertex -21.8144 20.4851 -2
      vertex -21.9237 20.5878 -5
    endloop
  endfacet
  facet normal -0.903704 0.425249 -0.0498167
    outer loop
      vertex 27.8236 -11.0161 -2
      vertex 27.963 -11.0713 -5
      vertex 26.2235 -14.4165 -2
    endloop
  endfacet
  facet normal -0.949875 0.308634 -0.0498164
    outer loop
      vertex 29.1301 -7.47935 -5
      vertex 27.963 -11.0713 -5
      vertex 27.8236 -11.0161 -2
    endloop
  endfacet
  facet normal 0.843272 -0.535171 -0.0498406
    outer loop
      vertex -24.3312 17.6776 -5
      vertex -24.2098 17.5895 -2
      vertex -26.2235 14.4165 -2
    endloop
  endfacet
  facet normal 0 0 1
    outer loop
      vertex 2.13013 5.61629 -1
      vertex -0.610794 0.867096 -1
      vertex -0.609558 0.52359 -1
    endloop
  endfacet
  facet normal 0 0 1
    outer loop
      vertex -0.150879 4.93044 -1
      vertex -0.614532 1.16907 -1
      vertex -0.610794 0.867096 -1
    endloop
  endfacet
  facet normal 0 0 1
    outer loop
      vertex -0.150879 4.93044 -1
      vertex -0.620758 1.42953 -1
      vertex -0.614532 1.16907 -1
    endloop
  endfacet
  facet normal 0 0 1
    outer loop
      vertex -0.150879 4.93044 -1
      vertex -0.629471 1.64847 -1
      vertex -0.620758 1.42953 -1
    endloop
  endfacet
  facet normal 0 0 1
    outer loop
      vertex -0.150879 4.93044 -1
      vertex -0.640671 1.8259 -1
      vertex -0.629471 1.64847 -1
    endloop
  endfacet
  facet normal 0 0 1
    outer loop
      vertex -0.150879 4.93044 -1
      vertex -0.654373 1.96181 -1
      vertex -0.640671 1.8259 -1
    endloop
  endfacet
  facet normal 0 0 1
    outer loop
      vertex -0.150879 4.93044 -1
      vertex -0.670547 2.0562 -1
      vertex -0.654373 1.96181 -1
    endloop
  endfacet
  facet normal 0 0 1
    outer loop
      vertex -0.150879 4.93044 -1
      vertex -0.692337 2.12726 -1
      vertex -0.670547 2.0562 -1
    endloop
  endfacet
  facet normal 0 0 1
    outer loop
      vertex -0.150879 4.93044 -1
      vertex -0.722855 2.19321 -1
      vertex -0.692337 2.12726 -1
    endloop
  endfacet
  facet normal 0 0 1
    outer loop
      vertex -0.150879 4.93044 -1
      vertex -0.762085 2.25403 -1
      vertex -0.722855 2.19321 -1
    endloop
  endfacet
  facet normal 0 0 1
    outer loop
      vertex -0.542938 4.64272 -1
      vertex -0.810043 2.30972 -1
      vertex -0.762085 2.25403 -1
    endloop
  endfacet
  facet normal 0 0 1
    outer loop
      vertex -0.542938 4.64272 -1
      vertex -0.86673 2.36031 -1
      vertex -0.810043 2.30972 -1
    endloop
  endfacet
  facet normal -0 0 1
    outer loop
      vertex -0.97403 4.39182 -1
      vertex -0.86673 2.36031 -1
      vertex -0.542938 4.64272 -1
    endloop
  endfacet
  facet normal 0 0 1
    outer loop
      vertex -0.86673 2.36031 -1
      vertex -0.97403 4.39182 -1
      vertex -0.932129 2.40576 -1
    endloop
  endfacet
  facet normal 0 0 1
    outer loop
      vertex -0.97403 4.39182 -1
      vertex -1.00626 2.44609 -1
      vertex -0.932129 2.40576 -1
    endloop
  endfacet
  facet normal 0 0 1
    outer loop
      vertex -0.97403 4.39182 -1
      vertex -1.09848 2.48117 -1
      vertex -1.00626 2.44609 -1
    endloop
  endfacet
  facet normal -0 0 1
    outer loop
      vertex -1.44414 4.17773 -1
      vertex -1.09848 2.48117 -1
      vertex -0.97403 4.39182 -1
    endloop
  endfacet
  facet normal 0 0 1
    outer loop
      vertex -1.09848 2.48117 -1
      vertex -1.44414 4.17773 -1
      vertex -1.21825 2.51085 -1
    endloop
  endfacet
  facet normal 0 0 1
    outer loop
      vertex -1.21825 2.51085 -1
      vertex -1.44414 4.17773 -1
      vertex -1.36557 2.53513 -1
    endloop
  endfacet
  facet normal 0 0 1
    outer loop
      vertex -1.44414 4.17773 -1
      vertex -1.54042 2.55402 -1
      vertex -1.36557 2.53513 -1
    endloop
  endfacet
  facet normal -0 0 1
    outer loop
      vertex -1.95328 4.00046 -1
      vertex -1.54042 2.55402 -1
      vertex -1.44414 4.17773 -1
    endloop
  endfacet
  facet normal 0 0 1
    outer loop
      vertex -1.54042 2.55402 -1
      vertex -1.95328 4.00046 -1
      vertex -1.74283 2.5675 -1
    endloop
  endfacet
  facet normal 0 0 1
    outer loop
      vertex -1.95328 4.00046 -1
      vertex -1.97276 2.57559 -1
      vertex -1.74283 2.5675 -1
    endloop
  endfacet
  facet normal -0 0 1
    outer loop
      vertex -2.50145 3.85999 -1
      vertex -1.97276 2.57559 -1
      vertex -1.95328 4.00046 -1
    endloop
  endfacet
  facet normal 0 0 1
    outer loop
      vertex -1.97276 2.57559 -1
      vertex -2.50145 3.85999 -1
      vertex -2.23026 2.57829 -1
    endloop
  endfacet
  facet normal 0 0 1
    outer loop
      vertex -2.23026 2.57829 -1
      vertex -2.50145 3.85999 -1
      vertex -2.50145 2.57829 -1
    endloop
  endfacet
  facet normal 0 0 1
    outer loop
      vertex 0.202133 5.25496 -1
      vertex 2.13013 5.61629 -1
      vertex 0.516129 5.61629 -1
    endloop
  endfacet
  facet normal 0 0 1
    outer loop
      vertex -0.150879 4.93044 -1
      vertex 2.13013 5.61629 -1
      vertex 0.202133 5.25496 -1
    endloop
  endfacet
  facet normal 0 0 1
    outer loop
      vertex -0.610794 0.867096 -1
      vertex 2.13013 5.61629 -1
      vertex -0.150879 4.93044 -1
    endloop
  endfacet
  facet normal 0 0 1
    outer loop
      vertex -0.762085 2.25403 -1
      vertex -0.150879 4.93044 -1
      vertex -0.542938 4.64272 -1
    endloop
  endfacet
  facet normal 0 0 1
    outer loop
      vertex 2.13013 5.61629 -1
      vertex -0.609558 0.52359 -1
      vertex 2.13013 -5.36249 -1
    endloop
  endfacet
  facet normal 0 0 1
    outer loop
      vertex 2.13013 -5.36249 -1
      vertex -0.609558 0.52359 -1
      vertex -0.609558 -5.36249 -1
    endloop
  endfacet
  facet normal 0 0 1
    outer loop
      vertex -2.50145 2.57829 0
      vertex -0.609558 0.52359 0
      vertex -0.610794 0.867096 0
    endloop
  endfacet
  facet normal 0 0 1
    outer loop
      vertex 2.13013 5.61629 0
      vertex 32 0 0
      vertex 31.7477 4.01066 0
    endloop
  endfacet
  facet normal -0 0 1
    outer loop
      vertex 2.13013 5.61629 0
      vertex 31.7477 4.01066 0
      vertex 30.9947 7.95808 0
    endloop
  endfacet
  facet normal 0 0 1
    outer loop
      vertex 2.13013 -5.36249 0
      vertex 32 0 0
      vertex 2.13013 5.61629 0
    endloop
  endfacet
  facet normal 0 0 1
    outer loop
      vertex 2.13013 5.61629 0
      vertex 30.9947 7.95808 0
      vertex 29.7528 11.78 0
    endloop
  endfacet
  facet normal 0 0 1
    outer loop
      vertex 32 0 0
      vertex 2.13013 -5.36249 0
      vertex 31.7477 -4.01066 0
    endloop
  endfacet
  facet normal 0 0 1
    outer loop
      vertex 2.13013 5.61629 0
      vertex 29.7528 11.78 0
      vertex 28.0418 15.4161 0
    endloop
  endfacet
  facet normal 0 0 1
    outer loop
      vertex 31.7477 -4.01066 0
      vertex 2.13013 -5.36249 0
      vertex 30.9947 -7.95808 0
    endloop
  endfacet
  facet normal 0 0 1
    outer loop
      vertex 2.13013 5.61629 0
      vertex 28.0418 15.4161 0
      vertex 25.8885 18.8091 0
    endloop
  endfacet
  facet normal 0 0 1
    outer loop
      vertex 30.9947 -7.95808 0
      vertex 2.13013 -5.36249 0
      vertex 29.7528 -11.78 0
    endloop
  endfacet
  facet normal 0 0 1
    outer loop
      vertex 2.13013 5.61629 0
      vertex 25.8885 18.8091 0
      vertex 23.327 21.9055 0
    endloop
  endfacet
  facet normal 0 0 1
    outer loop
      vertex 29.7528 -11.78 0
      vertex 2.13013 -5.36249 0
      vertex 28.0418 -15.4161 0
    endloop
  endfacet
  facet normal 0 0 1
    outer loop
      vertex 2.13013 5.61629 0
      vertex 23.327 21.9055 0
      vertex 20.3976 24.6564 0
    endloop
  endfacet
  facet normal 0 0 1
    outer loop
      vertex 28.0418 -15.4161 0
      vertex 2.13013 -5.36249 0
      vertex 25.8885 -18.8091 0
    endloop
  endfacet
  facet normal 0 0 1
    outer loop
      vertex 2.13013 5.61629 0
      vertex 20.3976 24.6564 0
      vertex 17.1465 27.0185 0
    endloop
  endfacet
  facet normal 0 0 1
    outer loop
      vertex 25.8885 -18.8091 0
      vertex 2.13013 -5.36249 0
      vertex 23.327 -21.9055 0
    endloop
  endfacet
  facet normal 0 0 1
    outer loop
      vertex 2.13013 5.61629 0
      vertex 17.1465 27.0185 0
      vertex 13.6249 28.9545 0
    endloop
  endfacet
  facet normal 0 0 1
    outer loop
      vertex 23.327 -21.9055 0
      vertex 2.13013 -5.36249 0
      vertex 20.3976 -24.6564 0
    endloop
  endfacet
  facet normal 0 0 1
    outer loop
      vertex 2.13013 5.61629 0
      vertex 13.6249 28.9545 0
      vertex 9.88854 30.4338 0
    endloop
  endfacet
  facet normal 0 0 1
    outer loop
      vertex 20.3976 -24.6564 0
      vertex 2.13013 -5.36249 0
      vertex 17.1465 -27.0185 0
    endloop
  endfacet
  facet normal 0 0 1
    outer loop
      vertex 2.13013 5.61629 0
      vertex 9.88854 30.4338 0
      vertex 5.9962 31.4332 0
    endloop
  endfacet
  facet normal 0 0 1
    outer loop
      vertex 17.1465 -27.0185 0
      vertex 2.13013 -5.36249 0
      vertex 13.6249 -28.9545 0
    endloop
  endfacet
  facet normal 0 0 1
    outer loop
      vertex 13.6249 -28.9545 0
      vertex 2.13013 -5.36249 0
      vertex 9.88854 -30.4338 0
    endloop
  endfacet
  facet normal 0 0 1
    outer loop
      vertex 2.0093 31.9369 0
      vertex 2.13013 5.61629 0
      vertex 5.9962 31.4332 0
    endloop
  endfacet
  facet normal 0 0 1
    outer loop
      vertex 2.0093 31.9369 0
      vertex 0.516129 5.61629 0
      vertex 2.13013 5.61629 0
    endloop
  endfacet
  facet normal -0 0 1
    outer loop
      vertex -2.0093 31.9369 0
      vertex 0.516129 5.61629 0
      vertex 2.0093 31.9369 0
    endloop
  endfacet
  facet normal -0 0 1
    outer loop
      vertex -5.9962 31.4332 0
      vertex 0.516129 5.61629 0
      vertex -2.0093 31.9369 0
    endloop
  endfacet
  facet normal -0 0 1
    outer loop
      vertex -9.88854 30.4338 0
      vertex 0.516129 5.61629 0
      vertex -5.9962 31.4332 0
    endloop
  endfacet
  facet normal -0 0 1
    outer loop
      vertex -13.6249 28.9545 0
      vertex 0.516129 5.61629 0
      vertex -9.88854 30.4338 0
    endloop
  endfacet
  facet normal 0 -0 1
    outer loop
      vertex -2.50145 3.85999 0
      vertex 0.516129 5.61629 0
      vertex -13.6249 28.9545 0
    endloop
  endfacet
  facet normal 0 -0 1
    outer loop
      vertex -1.95328 4.00046 0
      vertex 0.516129 5.61629 0
      vertex -2.50145 3.85999 0
    endloop
  endfacet
  facet normal 0 0 1
    outer loop
      vertex 0.516129 5.61629 0
      vertex -1.44414 4.17773 0
      vertex 0.202133 5.25496 0
    endloop
  endfacet
  facet normal 0 0 1
    outer loop
      vertex 0.202133 5.25496 0
      vertex -1.44414 4.17773 0
      vertex -0.150879 4.93044 0
    endloop
  endfacet
  facet normal 0 0 1
    outer loop
      vertex -0.150879 4.93044 0
      vertex -1.44414 4.17773 0
      vertex -0.542938 4.64272 0
    endloop
  endfacet
  facet normal 0 0 1
    outer loop
      vertex -0.542938 4.64272 0
      vertex -1.44414 4.17773 0
      vertex -0.97403 4.39182 0
    endloop
  endfacet
  facet normal 0 0 1
    outer loop
      vertex 9.88854 -30.4338 0
      vertex 2.13013 -5.36249 0
      vertex 5.9962 -31.4332 0
    endloop
  endfacet
  facet normal 0 0 1
    outer loop
      vertex 2.13013 -5.36249 0
      vertex 2.0093 -31.9369 0
      vertex 5.9962 -31.4332 0
    endloop
  endfacet
  facet normal -0 0 1
    outer loop
      vertex -0.609558 -5.36249 0
      vertex 2.0093 -31.9369 0
      vertex 2.13013 -5.36249 0
    endloop
  endfacet
  facet normal 0 0 1
    outer loop
      vertex -2.23026 2.57829 0
      vertex -0.610794 0.867096 0
      vertex -0.614532 1.16907 0
    endloop
  endfacet
  facet normal 0 0 1
    outer loop
      vertex -1.97276 2.57559 0
      vertex -0.614532 1.16907 0
      vertex -0.620758 1.42953 0
    endloop
  endfacet
  facet normal 0 0 1
    outer loop
      vertex -1.54042 2.55402 0
      vertex -0.620758 1.42953 0
      vertex -0.629471 1.64847 0
    endloop
  endfacet
  facet normal 0 0 1
    outer loop
      vertex -1.36557 2.53513 0
      vertex -0.629471 1.64847 0
      vertex -0.640671 1.8259 0
    endloop
  endfacet
  facet normal 0 0 1
    outer loop
      vertex -1.21825 2.51085 0
      vertex -0.640671 1.8259 0
      vertex -0.654373 1.96181 0
    endloop
  endfacet
  facet normal 0 0 1
    outer loop
      vertex -0.932129 2.40576 0
      vertex -0.654373 1.96181 0
      vertex -0.670547 2.0562 0
    endloop
  endfacet
  facet normal 0 0 1
    outer loop
      vertex -0.86673 2.36031 0
      vertex -0.670547 2.0562 0
      vertex -0.692337 2.12726 0
    endloop
  endfacet
  facet normal 0 0 1
    outer loop
      vertex -0.86673 2.36031 0
      vertex -0.692337 2.12726 0
      vertex -0.722855 2.19321 0
    endloop
  endfacet
  facet normal 0 0 1
    outer loop
      vertex -0.86673 2.36031 0
      vertex -0.722855 2.19321 0
      vertex -0.762085 2.25403 0
    endloop
  endfacet
  facet normal 0 0 1
    outer loop
      vertex -0.86673 2.36031 0
      vertex -0.762085 2.25403 0
      vertex -0.810043 2.30972 0
    endloop
  endfacet
  facet normal 0 0 1
    outer loop
      vertex -0.670547 2.0562 0
      vertex -0.86673 2.36031 0
      vertex -0.932129 2.40576 0
    endloop
  endfacet
  facet normal 0 0 1
    outer loop
      vertex -0.654373 1.96181 0
      vertex -0.932129 2.40576 0
      vertex -1.00626 2.44609 0
    endloop
  endfacet
  facet normal 0 0 1
    outer loop
      vertex -0.654373 1.96181 0
      vertex -1.00626 2.44609 0
      vertex -1.09848 2.48117 0
    endloop
  endfacet
  facet normal 0 0 1
    outer loop
      vertex -0.654373 1.96181 0
      vertex -1.09848 2.48117 0
      vertex -1.21825 2.51085 0
    endloop
  endfacet
  facet normal 0 0 1
    outer loop
      vertex -0.640671 1.8259 0
      vertex -1.21825 2.51085 0
      vertex -1.36557 2.53513 0
    endloop
  endfacet
  facet normal 0 0 1
    outer loop
      vertex -0.629471 1.64847 0
      vertex -1.36557 2.53513 0
      vertex -1.54042 2.55402 0
    endloop
  endfacet
  facet normal 0 0 1
    outer loop
      vertex -0.620758 1.42953 0
      vertex -1.54042 2.55402 0
      vertex -1.74283 2.5675 0
    endloop
  endfacet
  facet normal 0 0 1
    outer loop
      vertex -0.620758 1.42953 0
      vertex -1.74283 2.5675 0
      vertex -1.97276 2.57559 0
    endloop
  endfacet
  facet normal 0 0 1
    outer loop
      vertex -0.614532 1.16907 0
      vertex -1.97276 2.57559 0
      vertex -2.23026 2.57829 0
    endloop
  endfacet
  facet normal 0 0 1
    outer loop
      vertex -0.610794 0.867096 0
      vertex -2.23026 2.57829 0
      vertex -2.50145 2.57829 0
    endloop
  endfacet
  facet normal 0 0 1
    outer loop
      vertex -0.609558 -5.36249 0
      vertex -2.0093 -31.9369 0
      vertex 2.0093 -31.9369 0
    endloop
  endfacet
  facet normal 0 0 1
    outer loop
      vertex -0.609558 0.52359 0
      vertex -2.50145 2.57829 0
      vertex -0.609558 -5.36249 0
    endloop
  endfacet
  facet normal 0 0 1
    outer loop
      vertex -30.9947 -7.95808 0
      vertex -0.609558 -5.36249 0
      vertex -2.50145 2.57829 0
    endloop
  endfacet
  facet normal 0 -0 1
    outer loop
      vertex -1.44414 4.17773 0
      vertex 0.516129 5.61629 0
      vertex -1.95328 4.00046 0
    endloop
  endfacet
  facet normal 0 0 1
    outer loop
      vertex -0.609558 -5.36249 0
      vertex -5.9962 -31.4332 0
      vertex -2.0093 -31.9369 0
    endloop
  endfacet
  facet normal -0 0 1
    outer loop
      vertex -17.1465 27.0185 0
      vertex -2.50145 3.85999 0
      vertex -13.6249 28.9545 0
    endloop
  endfacet
  facet normal 0 0 1
    outer loop
      vertex -0.609558 -5.36249 0
      vertex -9.88854 -30.4338 0
      vertex -5.9962 -31.4332 0
    endloop
  endfacet
  facet normal -0 0 1
    outer loop
      vertex -20.3976 24.6564 0
      vertex -2.50145 3.85999 0
      vertex -17.1465 27.0185 0
    endloop
  endfacet
  facet normal 0 0 1
    outer loop
      vertex -0.609558 -5.36249 0
      vertex -13.6249 -28.9545 0
      vertex -9.88854 -30.4338 0
    endloop
  endfacet
  facet normal -0 0 1
    outer loop
      vertex -23.327 21.9055 0
      vertex -2.50145 3.85999 0
      vertex -20.3976 24.6564 0
    endloop
  endfacet
  facet normal 0 0 1
    outer loop
      vertex -0.609558 -5.36249 0
      vertex -17.1465 -27.0185 0
      vertex -13.6249 -28.9545 0
    endloop
  endfacet
  facet normal -0 0 1
    outer loop
      vertex -25.8885 18.8091 0
      vertex -2.50145 3.85999 0
      vertex -23.327 21.9055 0
    endloop
  endfacet
  facet normal 0 0 1
    outer loop
      vertex -0.609558 -5.36249 0
      vertex -20.3976 -24.6564 0
      vertex -17.1465 -27.0185 0
    endloop
  endfacet
  facet normal -0 0 1
    outer loop
      vertex -28.0418 15.4161 0
      vertex -2.50145 3.85999 0
      vertex -25.8885 18.8091 0
    endloop
  endfacet
  facet normal 0 0 1
    outer loop
      vertex -0.609558 -5.36249 0
      vertex -23.327 -21.9055 0
      vertex -20.3976 -24.6564 0
    endloop
  endfacet
  facet normal -0 0 1
    outer loop
      vertex -29.7528 11.78 0
      vertex -2.50145 3.85999 0
      vertex -28.0418 15.4161 0
    endloop
  endfacet
  facet normal 0 0 1
    outer loop
      vertex -0.609558 -5.36249 0
      vertex -25.8885 -18.8091 0
      vertex -23.327 -21.9055 0
    endloop
  endfacet
  facet normal -0 0 1
    outer loop
      vertex -30.9947 7.95808 0
      vertex -2.50145 3.85999 0
      vertex -29.7528 11.78 0
    endloop
  endfacet
  facet normal 0 0 1
    outer loop
      vertex -0.609558 -5.36249 0
      vertex -28.0418 -15.4161 0
      vertex -25.8885 -18.8091 0
    endloop
  endfacet
  facet normal 0 0 1
    outer loop
      vertex -2.50145 3.85999 0
      vertex -30.9947 7.95808 0
      vertex -2.50145 2.57829 0
    endloop
  endfacet
  facet normal 0 0 1
    outer loop
      vertex -0.609558 -5.36249 0
      vertex -29.7528 -11.78 0
      vertex -28.0418 -15.4161 0
    endloop
  endfacet
  facet normal -0 0 1
    outer loop
      vertex -31.7477 4.01066 0
      vertex -2.50145 2.57829 0
      vertex -30.9947 7.95808 0
    endloop
  endfacet
  facet normal 0 0 1
    outer loop
      vertex -0.609558 -5.36249 0
      vertex -30.9947 -7.95808 0
      vertex -29.7528 -11.78 0
    endloop
  endfacet
  facet normal 0 0 1
    outer loop
      vertex -32 0 0
      vertex -2.50145 2.57829 0
      vertex -31.7477 4.01066 0
    endloop
  endfacet
  facet normal 0 0 1
    outer loop
      vertex -2.50145 2.57829 0
      vertex -31.7477 -4.01066 0
      vertex -30.9947 -7.95808 0
    endloop
  endfacet
  facet normal 0 0 1
    outer loop
      vertex -2.50145 2.57829 0
      vertex -32 0 0
      vertex -31.7477 -4.01066 0
    endloop
  endfacet
  facet normal 0 -1 0
    outer loop
      vertex 0.516129 5.61629 -1
      vertex 2.13013 5.61629 0
      vertex 0.516129 5.61629 0
    endloop
  endfacet
  facet normal 0 -1 -0
    outer loop
      vertex 2.13013 5.61629 0
      vertex 0.516129 5.61629 -1
      vertex 2.13013 5.61629 -1
    endloop
  endfacet
  facet normal 0.754816 -0.655936 0
    outer loop
      vertex 0.202133 5.25496 0
      vertex 0.516129 5.61629 -1
      vertex 0.516129 5.61629 0
    endloop
  endfacet
  facet normal 0.754816 -0.655936 0
    outer loop
      vertex 0.516129 5.61629 -1
      vertex 0.202133 5.25496 0
      vertex 0.202133 5.25496 -1
    endloop
  endfacet
  facet normal 0.676773 -0.736192 0
    outer loop
      vertex -0.150879 4.93044 -1
      vertex 0.202133 5.25496 0
      vertex -0.150879 4.93044 0
    endloop
  endfacet
  facet normal 0.676773 -0.736192 0
    outer loop
      vertex 0.202133 5.25496 0
      vertex -0.150879 4.93044 -1
      vertex 0.202133 5.25496 -1
    endloop
  endfacet
  facet normal 0.591645 -0.806199 0
    outer loop
      vertex -0.542938 4.64272 -1
      vertex -0.150879 4.93044 0
      vertex -0.542938 4.64272 0
    endloop
  endfacet
  facet normal 0.591645 -0.806199 0
    outer loop
      vertex -0.150879 4.93044 0
      vertex -0.542938 4.64272 -1
      vertex -0.150879 4.93044 -1
    endloop
  endfacet
  facet normal 0.503018 -0.864276 0
    outer loop
      vertex -0.97403 4.39182 -1
      vertex -0.542938 4.64272 0
      vertex -0.97403 4.39182 0
    endloop
  endfacet
  facet normal 0.503018 -0.864276 0
    outer loop
      vertex -0.542938 4.64272 0
      vertex -0.97403 4.39182 -1
      vertex -0.542938 4.64272 -1
    endloop
  endfacet
  facet normal 0.41445 -0.910072 0
    outer loop
      vertex -1.44414 4.17773 -1
      vertex -0.97403 4.39182 0
      vertex -1.44414 4.17773 0
    endloop
  endfacet
  facet normal 0.41445 -0.910072 0
    outer loop
      vertex -0.97403 4.39182 0
      vertex -1.44414 4.17773 -1
      vertex -0.97403 4.39182 -1
    endloop
  endfacet
  facet normal 0.328815 -0.944394 0
    outer loop
      vertex -1.95328 4.00046 -1
      vertex -1.44414 4.17773 0
      vertex -1.95328 4.00046 0
    endloop
  endfacet
  facet normal 0.328815 -0.944394 0
    outer loop
      vertex -1.44414 4.17773 0
      vertex -1.95328 4.00046 -1
      vertex -1.44414 4.17773 -1
    endloop
  endfacet
  facet normal 0.248232 -0.968701 0
    outer loop
      vertex -2.50145 3.85999 -1
      vertex -1.95328 4.00046 0
      vertex -2.50145 3.85999 0
    endloop
  endfacet
  facet normal 0.248232 -0.968701 0
    outer loop
      vertex -1.95328 4.00046 0
      vertex -2.50145 3.85999 -1
      vertex -1.95328 4.00046 -1
    endloop
  endfacet
  facet normal 1 -0 0
    outer loop
      vertex -2.50145 2.57829 0
      vertex -2.50145 3.85999 -1
      vertex -2.50145 3.85999 0
    endloop
  endfacet
  facet normal 1 0 0
    outer loop
      vertex -2.50145 3.85999 -1
      vertex -2.50145 2.57829 0
      vertex -2.50145 2.57829 -1
    endloop
  endfacet
  facet normal 0 1 -0
    outer loop
      vertex -2.23026 2.57829 -1
      vertex -2.50145 2.57829 0
      vertex -2.23026 2.57829 0
    endloop
  endfacet
  facet normal 0 1 0
    outer loop
      vertex -2.50145 2.57829 0
      vertex -2.23026 2.57829 -1
      vertex -2.50145 2.57829 -1
    endloop
  endfacet
  facet normal 0.0104849 0.999945 -0
    outer loop
      vertex -1.97276 2.57559 -1
      vertex -2.23026 2.57829 0
      vertex -1.97276 2.57559 0
    endloop
  endfacet
  facet normal 0.0104849 0.999945 0
    outer loop
      vertex -2.23026 2.57829 0
      vertex -1.97276 2.57559 -1
      vertex -2.23026 2.57829 -1
    endloop
  endfacet
  facet normal 0.0351629 0.999382 -0
    outer loop
      vertex -1.74283 2.5675 -1
      vertex -1.97276 2.57559 0
      vertex -1.74283 2.5675 0
    endloop
  endfacet
  facet normal 0.0351629 0.999382 0
    outer loop
      vertex -1.97276 2.57559 0
      vertex -1.74283 2.5675 -1
      vertex -1.97276 2.57559 -1
    endloop
  endfacet
  facet normal 0.0664503 0.99779 -0
    outer loop
      vertex -1.54042 2.55402 -1
      vertex -1.74283 2.5675 0
      vertex -1.54042 2.55402 0
    endloop
  endfacet
  facet normal 0.0664503 0.99779 0
    outer loop
      vertex -1.74283 2.5675 0
      vertex -1.54042 2.55402 -1
      vertex -1.74283 2.5675 -1
    endloop
  endfacet
  facet normal 0.10741 0.994215 -0
    outer loop
      vertex -1.36557 2.53513 -1
      vertex -1.54042 2.55402 0
      vertex -1.36557 2.53513 0
    endloop
  endfacet
  facet normal 0.10741 0.994215 0
    outer loop
      vertex -1.54042 2.55402 0
      vertex -1.36557 2.53513 -1
      vertex -1.54042 2.55402 -1
    endloop
  endfacet
  facet normal 0.162618 0.986689 -0
    outer loop
      vertex -1.21825 2.51085 -1
      vertex -1.36557 2.53513 0
      vertex -1.21825 2.51085 0
    endloop
  endfacet
  facet normal 0.162618 0.986689 0
    outer loop
      vertex -1.36557 2.53513 0
      vertex -1.21825 2.51085 -1
      vertex -1.36557 2.53513 -1
    endloop
  endfacet
  facet normal 0.240533 0.970641 -0
    outer loop
      vertex -1.09848 2.48117 -1
      vertex -1.21825 2.51085 0
      vertex -1.09848 2.48117 0
    endloop
  endfacet
  facet normal 0.240533 0.970641 0
    outer loop
      vertex -1.21825 2.51085 0
      vertex -1.09848 2.48117 -1
      vertex -1.21825 2.51085 -1
    endloop
  endfacet
  facet normal 0.35554 0.934661 -0
    outer loop
      vertex -1.00626 2.44609 -1
      vertex -1.09848 2.48117 0
      vertex -1.00626 2.44609 0
    endloop
  endfacet
  facet normal 0.35554 0.934661 0
    outer loop
      vertex -1.09848 2.48117 0
      vertex -1.00626 2.44609 -1
      vertex -1.09848 2.48117 -1
    endloop
  endfacet
  facet normal 0.477892 0.878419 -0
    outer loop
      vertex -0.932129 2.40576 -1
      vertex -1.00626 2.44609 0
      vertex -0.932129 2.40576 0
    endloop
  endfacet
  facet normal 0.477892 0.878419 0
    outer loop
      vertex -1.00626 2.44609 0
      vertex -0.932129 2.40576 -1
      vertex -1.00626 2.44609 -1
    endloop
  endfacet
  facet normal 0.570684 0.82117 -0
    outer loop
      vertex -0.86673 2.36031 -1
      vertex -0.932129 2.40576 0
      vertex -0.86673 2.36031 0
    endloop
  endfacet
  facet normal 0.570684 0.82117 0
    outer loop
      vertex -0.932129 2.40576 0
      vertex -0.86673 2.36031 -1
      vertex -0.932129 2.40576 -1
    endloop
  endfacet
  facet normal 0.665844 0.746091 -0
    outer loop
      vertex -0.810043 2.30972 -1
      vertex -0.86673 2.36031 0
      vertex -0.810043 2.30972 0
    endloop
  endfacet
  facet normal 0.665844 0.746091 0
    outer loop
      vertex -0.86673 2.36031 0
      vertex -0.810043 2.30972 -1
      vertex -0.86673 2.36031 -1
    endloop
  endfacet
  facet normal 0.75775 0.652544 0
    outer loop
      vertex -0.762085 2.25403 0
      vertex -0.810043 2.30972 -1
      vertex -0.810043 2.30972 0
    endloop
  endfacet
  facet normal 0.75775 0.652544 0
    outer loop
      vertex -0.810043 2.30972 -1
      vertex -0.762085 2.25403 0
      vertex -0.762085 2.25403 -1
    endloop
  endfacet
  facet normal 0.840351 0.542042 0
    outer loop
      vertex -0.722855 2.19321 0
      vertex -0.762085 2.25403 -1
      vertex -0.762085 2.25403 0
    endloop
  endfacet
  facet normal 0.840351 0.542042 0
    outer loop
      vertex -0.762085 2.25403 -1
      vertex -0.722855 2.19321 0
      vertex -0.722855 2.19321 -1
    endloop
  endfacet
  facet normal 0.907542 0.41996 0
    outer loop
      vertex -0.692337 2.12726 0
      vertex -0.722855 2.19321 -1
      vertex -0.722855 2.19321 0
    endloop
  endfacet
  facet normal 0.907542 0.41996 0
    outer loop
      vertex -0.722855 2.19321 -1
      vertex -0.692337 2.12726 0
      vertex -0.692337 2.12726 -1
    endloop
  endfacet
  facet normal 0.956061 0.293169 0
    outer loop
      vertex -0.670547 2.0562 0
      vertex -0.692337 2.12726 -1
      vertex -0.692337 2.12726 0
    endloop
  endfacet
  facet normal 0.956061 0.293169 0
    outer loop
      vertex -0.692337 2.12726 -1
      vertex -0.670547 2.0562 0
      vertex -0.670547 2.0562 -1
    endloop
  endfacet
  facet normal 0.985635 0.168891 0
    outer loop
      vertex -0.654373 1.96181 0
      vertex -0.670547 2.0562 -1
      vertex -0.670547 2.0562 0
    endloop
  endfacet
  facet normal 0.985635 0.168891 0
    outer loop
      vertex -0.670547 2.0562 -1
      vertex -0.654373 1.96181 0
      vertex -0.654373 1.96181 -1
    endloop
  endfacet
  facet normal 0.994956 0.100308 0
    outer loop
      vertex -0.640671 1.8259 0
      vertex -0.654373 1.96181 -1
      vertex -0.654373 1.96181 0
    endloop
  endfacet
  facet normal 0.994956 0.100308 0
    outer loop
      vertex -0.654373 1.96181 -1
      vertex -0.640671 1.8259 0
      vertex -0.640671 1.8259 -1
    endloop
  endfacet
  facet normal 0.998014 0.0629981 0
    outer loop
      vertex -0.629471 1.64847 0
      vertex -0.640671 1.8259 -1
      vertex -0.640671 1.8259 0
    endloop
  endfacet
  facet normal 0.998014 0.0629981 0
    outer loop
      vertex -0.640671 1.8259 -1
      vertex -0.629471 1.64847 0
      vertex -0.629471 1.64847 -1
    endloop
  endfacet
  facet normal 0.999209 0.0397648 0
    outer loop
      vertex -0.620758 1.42953 0
      vertex -0.629471 1.64847 -1
      vertex -0.629471 1.64847 0
    endloop
  endfacet
  facet normal 0.999209 0.0397648 0
    outer loop
      vertex -0.629471 1.64847 -1
      vertex -0.620758 1.42953 0
      vertex -0.620758 1.42953 -1
    endloop
  endfacet
  facet normal 0.999714 0.023897 0
    outer loop
      vertex -0.614532 1.16907 0
      vertex -0.620758 1.42953 -1
      vertex -0.620758 1.42953 0
    endloop
  endfacet
  facet normal 0.999714 0.023897 0
    outer loop
      vertex -0.620758 1.42953 -1
      vertex -0.614532 1.16907 0
      vertex -0.614532 1.16907 -1
    endloop
  endfacet
  facet normal 0.999923 0.0123776 0
    outer loop
      vertex -0.610794 0.867096 0
      vertex -0.614532 1.16907 -1
      vertex -0.614532 1.16907 0
    endloop
  endfacet
  facet normal 0.999923 0.0123776 0
    outer loop
      vertex -0.614532 1.16907 -1
      vertex -0.610794 0.867096 0
      vertex -0.610794 0.867096 -1
    endloop
  endfacet
  facet normal 0.999994 0.00359817 0
    outer loop
      vertex -0.609558 0.52359 0
      vertex -0.610794 0.867096 -1
      vertex -0.610794 0.867096 0
    endloop
  endfacet
  facet normal 0.999994 0.00359817 0
    outer loop
      vertex -0.610794 0.867096 -1
      vertex -0.609558 0.52359 0
      vertex -0.609558 0.52359 -1
    endloop
  endfacet
  facet normal 1 -0 0
    outer loop
      vertex -0.609558 -5.36249 0
      vertex -0.609558 0.52359 -1
      vertex -0.609558 0.52359 0
    endloop
  endfacet
  facet normal 1 0 0
    outer loop
      vertex -0.609558 0.52359 -1
      vertex -0.609558 -5.36249 0
      vertex -0.609558 -5.36249 -1
    endloop
  endfacet
  facet normal 0 1 -0
    outer loop
      vertex 2.13013 -5.36249 -1
      vertex -0.609558 -5.36249 0
      vertex 2.13013 -5.36249 0
    endloop
  endfacet
  facet normal 0 1 0
    outer loop
      vertex -0.609558 -5.36249 0
      vertex 2.13013 -5.36249 -1
      vertex -0.609558 -5.36249 -1
    endloop
  endfacet
  facet normal -1 0 0
    outer loop
      vertex 2.13013 -5.36249 -1
      vertex 2.13013 5.61629 0
      vertex 2.13013 5.61629 -1
    endloop
  endfacet
  facet normal -1 -0 0
    outer loop
      vertex 2.13013 5.61629 0
      vertex 2.13013 -5.36249 -1
      vertex 2.13013 -5.36249 0
    endloop
  endfacet
  facet normal 0.904829 0.425775 0
    outer loop
      vertex 29.7528 11.78 0
      vertex 28.0418 15.4161 -5
      vertex 28.0418 15.4161 0
    endloop
  endfacet
  facet normal 0.904829 0.425775 0
    outer loop
      vertex 28.0418 15.4161 -5
      vertex 29.7528 11.78 0
      vertex 29.7528 11.78 -5
    endloop
  endfacet
  facet normal 0.844324 0.535833 0
    outer loop
      vertex 28.0418 15.4161 0
      vertex 25.8885 18.8091 -5
      vertex 25.8885 18.8091 0
    endloop
  endfacet
  facet normal 0.844324 0.535833 0
    outer loop
      vertex 25.8885 18.8091 -5
      vertex 28.0418 15.4161 0
      vertex 28.0418 15.4161 -5
    endloop
  endfacet
  facet normal 0.368118 0.929779 -0
    outer loop
      vertex 13.6249 28.9545 -5
      vertex 9.88854 30.4338 0
      vertex 13.6249 28.9545 0
    endloop
  endfacet
  facet normal 0.368118 0.929779 0
    outer loop
      vertex 9.88854 30.4338 0
      vertex 13.6249 28.9545 -5
      vertex 9.88854 30.4338 -5
    endloop
  endfacet
  facet normal -0.368118 0.929779 0
    outer loop
      vertex -9.88854 30.4338 -5
      vertex -13.6249 28.9545 0
      vertex -9.88854 30.4338 0
    endloop
  endfacet
  facet normal -0.368118 0.929779 0
    outer loop
      vertex -13.6249 28.9545 0
      vertex -9.88854 30.4338 -5
      vertex -13.6249 28.9545 -5
    endloop
  endfacet
  facet normal -0.904829 0.425775 0
    outer loop
      vertex -29.7528 11.78 -5
      vertex -28.0418 15.4161 0
      vertex -28.0418 15.4161 -5
    endloop
  endfacet
  facet normal -0.904829 0.425775 0
    outer loop
      vertex -28.0418 15.4161 0
      vertex -29.7528 11.78 -5
      vertex -29.7528 11.78 0
    endloop
  endfacet
  facet normal 0.998027 -0.0627832 0
    outer loop
      vertex 31.7477 -4.01066 0
      vertex 32 0 -5
      vertex 32 0 0
    endloop
  endfacet
  facet normal 0.998027 -0.0627832 0
    outer loop
      vertex 32 0 -5
      vertex 31.7477 -4.01066 0
      vertex 31.7477 -4.01066 -5
    endloop
  endfacet
  facet normal 0.368118 -0.929779 0
    outer loop
      vertex 9.88854 -30.4338 -5
      vertex 13.6249 -28.9545 0
      vertex 9.88854 -30.4338 0
    endloop
  endfacet
  facet normal 0.368118 -0.929779 0
    outer loop
      vertex 13.6249 -28.9545 0
      vertex 9.88854 -30.4338 -5
      vertex 13.6249 -28.9545 -5
    endloop
  endfacet
  facet normal 0.684548 0.728967 -0
    outer loop
      vertex 23.327 21.9055 -5
      vertex 20.3976 24.6564 0
      vertex 23.327 21.9055 0
    endloop
  endfacet
  facet normal 0.684548 0.728967 0
    outer loop
      vertex 20.3976 24.6564 0
      vertex 23.327 21.9055 -5
      vertex 20.3976 24.6564 -5
    endloop
  endfacet
  facet normal 0 1 -0
    outer loop
      vertex 2.0093 31.9369 -5
      vertex -2.0093 31.9369 0
      vertex 2.0093 31.9369 0
    endloop
  endfacet
  facet normal 0 1 0
    outer loop
      vertex -2.0093 31.9369 0
      vertex 2.0093 31.9369 -5
      vertex -2.0093 31.9369 -5
    endloop
  endfacet
  facet normal -0.998027 0.0627832 0
    outer loop
      vertex -32 0 -5
      vertex -31.7477 4.01066 0
      vertex -31.7477 4.01066 -5
    endloop
  endfacet
  facet normal -0.998027 0.0627832 0
    outer loop
      vertex -31.7477 4.01066 0
      vertex -32 0 -5
      vertex -32 0 0
    endloop
  endfacet
  facet normal -0.982288 0.187379 0
    outer loop
      vertex -31.7477 4.01066 -5
      vertex -30.9947 7.95808 0
      vertex -30.9947 7.95808 -5
    endloop
  endfacet
  facet normal -0.982288 0.187379 0
    outer loop
      vertex -30.9947 7.95808 0
      vertex -31.7477 4.01066 -5
      vertex -31.7477 4.01066 0
    endloop
  endfacet
  facet normal -0.770521 0.637414 0
    outer loop
      vertex -25.8885 18.8091 -5
      vertex -23.327 21.9055 0
      vertex -23.327 21.9055 -5
    endloop
  endfacet
  facet normal -0.770521 0.637414 0
    outer loop
      vertex -23.327 21.9055 0
      vertex -25.8885 18.8091 -5
      vertex -25.8885 18.8091 0
    endloop
  endfacet
  facet normal -0.684548 0.728967 0
    outer loop
      vertex -20.3976 24.6564 -5
      vertex -23.327 21.9055 0
      vertex -20.3976 24.6564 0
    endloop
  endfacet
  facet normal -0.684548 0.728967 0
    outer loop
      vertex -23.327 21.9055 0
      vertex -20.3976 24.6564 -5
      vertex -23.327 21.9055 -5
    endloop
  endfacet
  facet normal 0.587791 -0.809013 0
    outer loop
      vertex 17.1465 -27.0185 -5
      vertex 20.3976 -24.6564 0
      vertex 17.1465 -27.0185 0
    endloop
  endfacet
  facet normal 0.587791 -0.809013 0
    outer loop
      vertex 20.3976 -24.6564 0
      vertex 17.1465 -27.0185 -5
      vertex 20.3976 -24.6564 -5
    endloop
  endfacet
  facet normal 0.770521 -0.637414 0
    outer loop
      vertex 23.327 -21.9055 0
      vertex 25.8885 -18.8091 -5
      vertex 25.8885 -18.8091 0
    endloop
  endfacet
  facet normal 0.770521 -0.637414 0
    outer loop
      vertex 25.8885 -18.8091 -5
      vertex 23.327 -21.9055 0
      vertex 23.327 -21.9055 -5
    endloop
  endfacet
  facet normal 0.248694 -0.968582 0
    outer loop
      vertex 5.9962 -31.4332 -5
      vertex 9.88854 -30.4338 0
      vertex 5.9962 -31.4332 0
    endloop
  endfacet
  facet normal 0.248694 -0.968582 0
    outer loop
      vertex 9.88854 -30.4338 0
      vertex 5.9962 -31.4332 -5
      vertex 9.88854 -30.4338 -5
    endloop
  endfacet
  facet normal 0.982288 0.187379 0
    outer loop
      vertex 31.7477 4.01066 0
      vertex 30.9947 7.95808 -5
      vertex 30.9947 7.95808 0
    endloop
  endfacet
  facet normal 0.982288 0.187379 0
    outer loop
      vertex 30.9947 7.95808 -5
      vertex 31.7477 4.01066 0
      vertex 31.7477 4.01066 -5
    endloop
  endfacet
  facet normal 0.95105 0.309036 0
    outer loop
      vertex 30.9947 7.95808 0
      vertex 29.7528 11.78 -5
      vertex 29.7528 11.78 0
    endloop
  endfacet
  facet normal 0.95105 0.309036 0
    outer loop
      vertex 29.7528 11.78 -5
      vertex 30.9947 7.95808 0
      vertex 30.9947 7.95808 -5
    endloop
  endfacet
  facet normal 0.770521 0.637414 0
    outer loop
      vertex 25.8885 18.8091 0
      vertex 23.327 21.9055 -5
      vertex 23.327 21.9055 0
    endloop
  endfacet
  facet normal 0.770521 0.637414 0
    outer loop
      vertex 23.327 21.9055 -5
      vertex 25.8885 18.8091 0
      vertex 25.8885 18.8091 -5
    endloop
  endfacet
  facet normal 0.248694 0.968582 -0
    outer loop
      vertex 9.88854 30.4338 -5
      vertex 5.9962 31.4332 0
      vertex 9.88854 30.4338 0
    endloop
  endfacet
  facet normal 0.248694 0.968582 0
    outer loop
      vertex 5.9962 31.4332 0
      vertex 9.88854 30.4338 -5
      vertex 5.9962 31.4332 -5
    endloop
  endfacet
  facet normal 0.125342 0.992114 -0
    outer loop
      vertex 5.9962 31.4332 -5
      vertex 2.0093 31.9369 0
      vertex 5.9962 31.4332 0
    endloop
  endfacet
  facet normal 0.125342 0.992114 0
    outer loop
      vertex 2.0093 31.9369 0
      vertex 5.9962 31.4332 -5
      vertex 2.0093 31.9369 -5
    endloop
  endfacet
  facet normal 0.587791 0.809013 -0
    outer loop
      vertex 20.3976 24.6564 -5
      vertex 17.1465 27.0185 0
      vertex 20.3976 24.6564 0
    endloop
  endfacet
  facet normal 0.587791 0.809013 0
    outer loop
      vertex 17.1465 27.0185 0
      vertex 20.3976 24.6564 -5
      vertex 17.1465 27.0185 -5
    endloop
  endfacet
  facet normal 0.481751 0.876308 -0
    outer loop
      vertex 17.1465 27.0185 -5
      vertex 13.6249 28.9545 0
      vertex 17.1465 27.0185 0
    endloop
  endfacet
  facet normal 0.481751 0.876308 0
    outer loop
      vertex 13.6249 28.9545 0
      vertex 17.1465 27.0185 -5
      vertex 13.6249 28.9545 -5
    endloop
  endfacet
  facet normal -0.95105 0.309036 0
    outer loop
      vertex -30.9947 7.95808 -5
      vertex -29.7528 11.78 0
      vertex -29.7528 11.78 -5
    endloop
  endfacet
  facet normal -0.95105 0.309036 0
    outer loop
      vertex -29.7528 11.78 0
      vertex -30.9947 7.95808 -5
      vertex -30.9947 7.95808 0
    endloop
  endfacet
  facet normal -0.844324 0.535833 0
    outer loop
      vertex -28.0418 15.4161 -5
      vertex -25.8885 18.8091 0
      vertex -25.8885 18.8091 -5
    endloop
  endfacet
  facet normal -0.844324 0.535833 0
    outer loop
      vertex -25.8885 18.8091 0
      vertex -28.0418 15.4161 -5
      vertex -28.0418 15.4161 0
    endloop
  endfacet
  facet normal -0.125342 0.992114 0
    outer loop
      vertex -2.0093 31.9369 -5
      vertex -5.9962 31.4332 0
      vertex -2.0093 31.9369 0
    endloop
  endfacet
  facet normal -0.125342 0.992114 0
    outer loop
      vertex -5.9962 31.4332 0
      vertex -2.0093 31.9369 -5
      vertex -5.9962 31.4332 -5
    endloop
  endfacet
  facet normal -0.248694 0.968582 0
    outer loop
      vertex -5.9962 31.4332 -5
      vertex -9.88854 30.4338 0
      vertex -5.9962 31.4332 0
    endloop
  endfacet
  facet normal -0.248694 0.968582 0
    outer loop
      vertex -9.88854 30.4338 0
      vertex -5.9962 31.4332 -5
      vertex -9.88854 30.4338 -5
    endloop
  endfacet
  facet normal -0.481751 0.876308 0
    outer loop
      vertex -13.6249 28.9545 -5
      vertex -17.1465 27.0185 0
      vertex -13.6249 28.9545 0
    endloop
  endfacet
  facet normal -0.481751 0.876308 0
    outer loop
      vertex -17.1465 27.0185 0
      vertex -13.6249 28.9545 -5
      vertex -17.1465 27.0185 -5
    endloop
  endfacet
  facet normal -0.587791 0.809013 0
    outer loop
      vertex -17.1465 27.0185 -5
      vertex -20.3976 24.6564 0
      vertex -17.1465 27.0185 0
    endloop
  endfacet
  facet normal -0.587791 0.809013 0
    outer loop
      vertex -20.3976 24.6564 0
      vertex -17.1465 27.0185 -5
      vertex -20.3976 24.6564 -5
    endloop
  endfacet
  facet normal 0.998027 0.0627832 0
    outer loop
      vertex 32 0 0
      vertex 31.7477 4.01066 -5
      vertex 31.7477 4.01066 0
    endloop
  endfacet
  facet normal 0.998027 0.0627832 0
    outer loop
      vertex 31.7477 4.01066 -5
      vertex 32 0 0
      vertex 32 0 -5
    endloop
  endfacet
  facet normal -0.998027 -0.0627832 0
    outer loop
      vertex -31.7477 -4.01066 -5
      vertex -32 0 0
      vertex -32 0 -5
    endloop
  endfacet
  facet normal -0.998027 -0.0627832 0
    outer loop
      vertex -32 0 0
      vertex -31.7477 -4.01066 -5
      vertex -31.7477 -4.01066 0
    endloop
  endfacet
  facet normal -0.982288 -0.187379 0
    outer loop
      vertex -30.9947 -7.95808 -5
      vertex -31.7477 -4.01066 0
      vertex -31.7477 -4.01066 -5
    endloop
  endfacet
  facet normal -0.982288 -0.187379 0
    outer loop
      vertex -31.7477 -4.01066 0
      vertex -30.9947 -7.95808 -5
      vertex -30.9947 -7.95808 0
    endloop
  endfacet
  facet normal 0.125342 -0.992114 0
    outer loop
      vertex 2.0093 -31.9369 -5
      vertex 5.9962 -31.4332 0
      vertex 2.0093 -31.9369 0
    endloop
  endfacet
  facet normal 0.125342 -0.992114 0
    outer loop
      vertex 5.9962 -31.4332 0
      vertex 2.0093 -31.9369 -5
      vertex 5.9962 -31.4332 -5
    endloop
  endfacet
  facet normal 0.684548 -0.728967 0
    outer loop
      vertex 20.3976 -24.6564 -5
      vertex 23.327 -21.9055 0
      vertex 20.3976 -24.6564 0
    endloop
  endfacet
  facet normal 0.684548 -0.728967 0
    outer loop
      vertex 23.327 -21.9055 0
      vertex 20.3976 -24.6564 -5
      vertex 23.327 -21.9055 -5
    endloop
  endfacet
  facet normal 0.95105 -0.309036 0
    outer loop
      vertex 29.7528 -11.78 0
      vertex 30.9947 -7.95808 -5
      vertex 30.9947 -7.95808 0
    endloop
  endfacet
  facet normal 0.95105 -0.309036 0
    outer loop
      vertex 30.9947 -7.95808 -5
      vertex 29.7528 -11.78 0
      vertex 29.7528 -11.78 -5
    endloop
  endfacet
  facet normal 0.904829 -0.425775 0
    outer loop
      vertex 28.0418 -15.4161 0
      vertex 29.7528 -11.78 -5
      vertex 29.7528 -11.78 0
    endloop
  endfacet
  facet normal 0.904829 -0.425775 0
    outer loop
      vertex 29.7528 -11.78 -5
      vertex 28.0418 -15.4161 0
      vertex 28.0418 -15.4161 -5
    endloop
  endfacet
  facet normal 0.844324 -0.535833 0
    outer loop
      vertex 25.8885 -18.8091 0
      vertex 28.0418 -15.4161 -5
      vertex 28.0418 -15.4161 0
    endloop
  endfacet
  facet normal 0.844324 -0.535833 0
    outer loop
      vertex 28.0418 -15.4161 -5
      vertex 25.8885 -18.8091 0
      vertex 25.8885 -18.8091 -5
    endloop
  endfacet
  facet normal 0 -1 0
    outer loop
      vertex -2.0093 -31.9369 -5
      vertex 2.0093 -31.9369 0
      vertex -2.0093 -31.9369 0
    endloop
  endfacet
  facet normal 0 -1 -0
    outer loop
      vertex 2.0093 -31.9369 0
      vertex -2.0093 -31.9369 -5
      vertex 2.0093 -31.9369 -5
    endloop
  endfacet
  facet normal -0.95105 -0.309036 0
    outer loop
      vertex -29.7528 -11.78 -5
      vertex -30.9947 -7.95808 0
      vertex -30.9947 -7.95808 -5
    endloop
  endfacet
  facet normal -0.95105 -0.309036 0
    outer loop
      vertex -30.9947 -7.95808 0
      vertex -29.7528 -11.78 -5
      vertex -29.7528 -11.78 0
    endloop
  endfacet
  facet normal -0.770521 -0.637414 0
    outer loop
      vertex -23.327 -21.9055 -5
      vertex -25.8885 -18.8091 0
      vertex -25.8885 -18.8091 -5
    endloop
  endfacet
  facet normal -0.770521 -0.637414 0
    outer loop
      vertex -25.8885 -18.8091 0
      vertex -23.327 -21.9055 -5
      vertex -23.327 -21.9055 0
    endloop
  endfacet
  facet normal -0.904829 -0.425775 0
    outer loop
      vertex -28.0418 -15.4161 -5
      vertex -29.7528 -11.78 0
      vertex -29.7528 -11.78 -5
    endloop
  endfacet
  facet normal -0.904829 -0.425775 0
    outer loop
      vertex -29.7528 -11.78 0
      vertex -28.0418 -15.4161 -5
      vertex -28.0418 -15.4161 0
    endloop
  endfacet
  facet normal 0.481751 -0.876308 0
    outer loop
      vertex 13.6249 -28.9545 -5
      vertex 17.1465 -27.0185 0
      vertex 13.6249 -28.9545 0
    endloop
  endfacet
  facet normal 0.481751 -0.876308 0
    outer loop
      vertex 17.1465 -27.0185 0
      vertex 13.6249 -28.9545 -5
      vertex 17.1465 -27.0185 -5
    endloop
  endfacet
  facet normal 0.982288 -0.187379 0
    outer loop
      vertex 30.9947 -7.95808 0
      vertex 31.7477 -4.01066 -5
      vertex 31.7477 -4.01066 0
    endloop
  endfacet
  facet normal 0.982288 -0.187379 0
    outer loop
      vertex 31.7477 -4.01066 -5
      vertex 30.9947 -7.95808 0
      vertex 30.9947 -7.95808 -5
    endloop
  endfacet
  facet normal -0.684548 -0.728967 0
    outer loop
      vertex -23.327 -21.9055 -5
      vertex -20.3976 -24.6564 0
      vertex -23.327 -21.9055 0
    endloop
  endfacet
  facet normal -0.684548 -0.728967 -0
    outer loop
      vertex -20.3976 -24.6564 0
      vertex -23.327 -21.9055 -5
      vertex -20.3976 -24.6564 -5
    endloop
  endfacet
  facet normal -0.248694 -0.968582 0
    outer loop
      vertex -9.88854 -30.4338 -5
      vertex -5.9962 -31.4332 0
      vertex -9.88854 -30.4338 0
    endloop
  endfacet
  facet normal -0.248694 -0.968582 -0
    outer loop
      vertex -5.9962 -31.4332 0
      vertex -9.88854 -30.4338 -5
      vertex -5.9962 -31.4332 -5
    endloop
  endfacet
  facet normal -0.481751 -0.876308 0
    outer loop
      vertex -17.1465 -27.0185 -5
      vertex -13.6249 -28.9545 0
      vertex -17.1465 -27.0185 0
    endloop
  endfacet
  facet normal -0.481751 -0.876308 -0
    outer loop
      vertex -13.6249 -28.9545 0
      vertex -17.1465 -27.0185 -5
      vertex -13.6249 -28.9545 -5
    endloop
  endfacet
  facet normal -0.844324 -0.535833 0
    outer loop
      vertex -25.8885 -18.8091 -5
      vertex -28.0418 -15.4161 0
      vertex -28.0418 -15.4161 -5
    endloop
  endfacet
  facet normal -0.844324 -0.535833 0
    outer loop
      vertex -28.0418 -15.4161 0
      vertex -25.8885 -18.8091 -5
      vertex -25.8885 -18.8091 0
    endloop
  endfacet
  facet normal -0.125342 -0.992114 0
    outer loop
      vertex -5.9962 -31.4332 -5
      vertex -2.0093 -31.9369 0
      vertex -5.9962 -31.4332 0
    endloop
  endfacet
  facet normal -0.125342 -0.992114 -0
    outer loop
      vertex -2.0093 -31.9369 0
      vertex -5.9962 -31.4332 -5
      vertex -2.0093 -31.9369 -5
    endloop
  endfacet
  facet normal -0.587791 -0.809013 0
    outer loop
      vertex -20.3976 -24.6564 -5
      vertex -17.1465 -27.0185 0
      vertex -20.3976 -24.6564 0
    endloop
  endfacet
  facet normal -0.587791 -0.809013 -0
    outer loop
      vertex -17.1465 -27.0185 0
      vertex -20.3976 -24.6564 -5
      vertex -17.1465 -27.0185 -5
    endloop
  endfacet
  facet normal -0.368118 -0.929779 0
    outer loop
      vertex -13.6249 -28.9545 -5
      vertex -9.88854 -30.4338 0
      vertex -13.6249 -28.9545 0
    endloop
  endfacet
  facet normal -0.368118 -0.929779 -0
    outer loop
      vertex -9.88854 -30.4338 0
      vertex -13.6249 -28.9545 -5
      vertex -9.88854 -30.4338 -5
    endloop
  endfacet
endsolid OpenSCAD_Model
