solid OpenSCAD_Model
  facet normal 0 0 1
    outer loop
      vertex 3 0 0
      vertex 22.5 0 0
      vertex 22.3226 2.82 0
    endloop
  endfacet
  facet normal 0 0 1
    outer loop
      vertex 2.97634 0.375999 0
      vertex 22.3226 2.82 0
      vertex 21.7931 5.59552 0
    endloop
  endfacet
  facet normal 0 0 1
    outer loop
      vertex 22.5 0 0
      vertex 3 0 0
      vertex 22.3226 -2.82 0
    endloop
  endfacet
  facet normal 0 0 1
    outer loop
      vertex 2.90575 0.746069 0
      vertex 21.7931 5.59552 0
      vertex 20.92 8.2828 0
    endloop
  endfacet
  facet normal -0 0 1
    outer loop
      vertex 2.97634 -0.375999 0
      vertex 22.3226 -2.82 0
      vertex 3 0 0
    endloop
  endfacet
  facet normal 0 0 1
    outer loop
      vertex 2.78933 1.10437 0
      vertex 20.92 8.2828 0
      vertex 19.7169 10.8395 0
    endloop
  endfacet
  facet normal 0 0 1
    outer loop
      vertex 22.3226 -2.82 0
      vertex 2.97634 -0.375999 0
      vertex 21.7931 -5.59552 0
    endloop
  endfacet
  facet normal 0 0 1
    outer loop
      vertex 2.62892 1.44526 0
      vertex 19.7169 10.8395 0
      vertex 18.2029 13.2252 0
    endloop
  endfacet
  facet normal -0 0 1
    outer loop
      vertex 2.90575 -0.746069 0
      vertex 21.7931 -5.59552 0
      vertex 2.97634 -0.375999 0
    endloop
  endfacet
  facet normal 0 0 1
    outer loop
      vertex 2.42705 1.76336 0
      vertex 18.2029 13.2252 0
      vertex 16.4018 15.4023 0
    endloop
  endfacet
  facet normal 0 0 1
    outer loop
      vertex 21.7931 -5.59552 0
      vertex 2.90575 -0.746069 0
      vertex 20.92 -8.2828 0
    endloop
  endfacet
  facet normal 0 0 1
    outer loop
      vertex 2.18691 2.05364 0
      vertex 16.4018 15.4023 0
      vertex 14.342 17.3365 0
    endloop
  endfacet
  facet normal -0 0 1
    outer loop
      vertex 2.78933 -1.10437 0
      vertex 20.92 -8.2828 0
      vertex 2.90575 -0.746069 0
    endloop
  endfacet
  facet normal 0 0 1
    outer loop
      vertex 1.91227 2.31154 0
      vertex 14.342 17.3365 0
      vertex 12.0561 18.9974 0
    endloop
  endfacet
  facet normal 0 0 1
    outer loop
      vertex 20.92 -8.2828 0
      vertex 2.78933 -1.10437 0
      vertex 19.7169 -10.8395 0
    endloop
  endfacet
  facet normal 0 0 1
    outer loop
      vertex 1.60748 2.53298 0
      vertex 12.0561 18.9974 0
      vertex 9.58003 20.3586 0
    endloop
  endfacet
  facet normal -0 0 1
    outer loop
      vertex 2.62892 -1.44526 0
      vertex 19.7169 -10.8395 0
      vertex 2.78933 -1.10437 0
    endloop
  endfacet
  facet normal 0 0 1
    outer loop
      vertex 1.27734 2.71448 0
      vertex 9.58003 20.3586 0
      vertex 6.95288 21.3988 0
    endloop
  endfacet
  facet normal 0 0 1
    outer loop
      vertex 19.7169 -10.8395 0
      vertex 2.62892 -1.44526 0
      vertex 18.2029 -13.2252 0
    endloop
  endfacet
  facet normal 0 0 1
    outer loop
      vertex 0.927051 2.85317 0
      vertex 6.95288 21.3988 0
      vertex 4.21608 22.1015 0
    endloop
  endfacet
  facet normal -0 0 1
    outer loop
      vertex 2.42705 -1.76336 0
      vertex 18.2029 -13.2252 0
      vertex 2.62892 -1.44526 0
    endloop
  endfacet
  facet normal 0 0 1
    outer loop
      vertex 18.2029 -13.2252 0
      vertex 2.42705 -1.76336 0
      vertex 16.4018 -15.4023 0
    endloop
  endfacet
  facet normal 0 0 1
    outer loop
      vertex 22.3226 2.82 0
      vertex 2.97634 0.375999 0
      vertex 3 0 0
    endloop
  endfacet
  facet normal 0 0 1
    outer loop
      vertex 21.7931 5.59552 0
      vertex 2.90575 0.746069 0
      vertex 2.97634 0.375999 0
    endloop
  endfacet
  facet normal 0 0 1
    outer loop
      vertex 20.92 8.2828 0
      vertex 2.78933 1.10437 0
      vertex 2.90575 0.746069 0
    endloop
  endfacet
  facet normal 0 0 1
    outer loop
      vertex 19.7169 10.8395 0
      vertex 2.62892 1.44526 0
      vertex 2.78933 1.10437 0
    endloop
  endfacet
  facet normal 0 0 1
    outer loop
      vertex 18.2029 13.2252 0
      vertex 2.42705 1.76336 0
      vertex 2.62892 1.44526 0
    endloop
  endfacet
  facet normal 0 0 1
    outer loop
      vertex 16.4018 15.4023 0
      vertex 2.18691 2.05364 0
      vertex 2.42705 1.76336 0
    endloop
  endfacet
  facet normal 0 0 1
    outer loop
      vertex 14.342 17.3365 0
      vertex 1.91227 2.31154 0
      vertex 2.18691 2.05364 0
    endloop
  endfacet
  facet normal 0 0 1
    outer loop
      vertex 12.0561 18.9974 0
      vertex 1.60748 2.53298 0
      vertex 1.91227 2.31154 0
    endloop
  endfacet
  facet normal 0 0 1
    outer loop
      vertex 0.562143 2.94686 0
      vertex 4.21608 22.1015 0
      vertex 1.41279 22.4556 0
    endloop
  endfacet
  facet normal 0 0 1
    outer loop
      vertex 9.58003 20.3586 0
      vertex 1.27734 2.71448 0
      vertex 1.60748 2.53298 0
    endloop
  endfacet
  facet normal 0 0 1
    outer loop
      vertex 6.95288 21.3988 0
      vertex 0.927051 2.85317 0
      vertex 1.27734 2.71448 0
    endloop
  endfacet
  facet normal 0 0 1
    outer loop
      vertex 4.21608 22.1015 0
      vertex 0.562143 2.94686 0
      vertex 0.927051 2.85317 0
    endloop
  endfacet
  facet normal 0 0 1
    outer loop
      vertex 1.41279 22.4556 0
      vertex 0.188371 2.99408 0
      vertex 0.562143 2.94686 0
    endloop
  endfacet
  facet normal 0 0 1
    outer loop
      vertex 1.41279 22.4556 0
      vertex -0.188371 2.99408 0
      vertex 0.188371 2.99408 0
    endloop
  endfacet
  facet normal -0 0 1
    outer loop
      vertex -1.41279 22.4556 0
      vertex -0.188371 2.99408 0
      vertex 1.41279 22.4556 0
    endloop
  endfacet
  facet normal 0 0 1
    outer loop
      vertex -0.188371 2.99408 0
      vertex -1.41279 22.4556 0
      vertex -0.562143 2.94686 0
    endloop
  endfacet
  facet normal -0 0 1
    outer loop
      vertex -4.21608 22.1015 0
      vertex -0.562143 2.94686 0
      vertex -1.41279 22.4556 0
    endloop
  endfacet
  facet normal 0 0 1
    outer loop
      vertex -0.562143 2.94686 0
      vertex -4.21608 22.1015 0
      vertex -0.927051 2.85317 0
    endloop
  endfacet
  facet normal -0 0 1
    outer loop
      vertex -6.95288 21.3988 0
      vertex -0.927051 2.85317 0
      vertex -4.21608 22.1015 0
    endloop
  endfacet
  facet normal 0 0 1
    outer loop
      vertex -0.927051 2.85317 0
      vertex -6.95288 21.3988 0
      vertex -1.27734 2.71448 0
    endloop
  endfacet
  facet normal -0 0 1
    outer loop
      vertex -9.58003 20.3586 0
      vertex -1.27734 2.71448 0
      vertex -6.95288 21.3988 0
    endloop
  endfacet
  facet normal 0 0 1
    outer loop
      vertex -1.27734 2.71448 0
      vertex -9.58003 20.3586 0
      vertex -1.60748 2.53298 0
    endloop
  endfacet
  facet normal -0 0 1
    outer loop
      vertex -12.0561 18.9974 0
      vertex -1.60748 2.53298 0
      vertex -9.58003 20.3586 0
    endloop
  endfacet
  facet normal 0 0 1
    outer loop
      vertex -1.60748 2.53298 0
      vertex -12.0561 18.9974 0
      vertex -1.91227 2.31154 0
    endloop
  endfacet
  facet normal -0 0 1
    outer loop
      vertex -14.342 17.3365 0
      vertex -1.91227 2.31154 0
      vertex -12.0561 18.9974 0
    endloop
  endfacet
  facet normal 0 0 1
    outer loop
      vertex -1.91227 2.31154 0
      vertex -14.342 17.3365 0
      vertex -2.18691 2.05364 0
    endloop
  endfacet
  facet normal 0 0 1
    outer loop
      vertex -2.18691 2.05364 0
      vertex -16.4018 15.4023 0
      vertex -2.42705 1.76336 0
    endloop
  endfacet
  facet normal -0 0 1
    outer loop
      vertex -16.4018 15.4023 0
      vertex -2.18691 2.05364 0
      vertex -14.342 17.3365 0
    endloop
  endfacet
  facet normal -0 0 1
    outer loop
      vertex 2.18691 -2.05364 0
      vertex 16.4018 -15.4023 0
      vertex 2.42705 -1.76336 0
    endloop
  endfacet
  facet normal 0 0 1
    outer loop
      vertex 16.4018 -15.4023 0
      vertex 2.18691 -2.05364 0
      vertex 14.342 -17.3365 0
    endloop
  endfacet
  facet normal -0 0 1
    outer loop
      vertex 1.91227 -2.31154 0
      vertex 14.342 -17.3365 0
      vertex 2.18691 -2.05364 0
    endloop
  endfacet
  facet normal 0 0 1
    outer loop
      vertex 14.342 -17.3365 0
      vertex 1.91227 -2.31154 0
      vertex 12.0561 -18.9974 0
    endloop
  endfacet
  facet normal -0 0 1
    outer loop
      vertex 1.60748 -2.53298 0
      vertex 12.0561 -18.9974 0
      vertex 1.91227 -2.31154 0
    endloop
  endfacet
  facet normal 0 0 1
    outer loop
      vertex 12.0561 -18.9974 0
      vertex 1.60748 -2.53298 0
      vertex 9.58003 -20.3586 0
    endloop
  endfacet
  facet normal -0 0 1
    outer loop
      vertex 1.27734 -2.71448 0
      vertex 9.58003 -20.3586 0
      vertex 1.60748 -2.53298 0
    endloop
  endfacet
  facet normal 0 0 1
    outer loop
      vertex 9.58003 -20.3586 0
      vertex 1.27734 -2.71448 0
      vertex 6.95288 -21.3988 0
    endloop
  endfacet
  facet normal -0 0 1
    outer loop
      vertex 0.927051 -2.85317 0
      vertex 6.95288 -21.3988 0
      vertex 1.27734 -2.71448 0
    endloop
  endfacet
  facet normal 0 0 1
    outer loop
      vertex 6.95288 -21.3988 0
      vertex 0.927051 -2.85317 0
      vertex 4.21608 -22.1015 0
    endloop
  endfacet
  facet normal -0 0 1
    outer loop
      vertex 0.562143 -2.94686 0
      vertex 4.21608 -22.1015 0
      vertex 0.927051 -2.85317 0
    endloop
  endfacet
  facet normal 0 0 1
    outer loop
      vertex 4.21608 -22.1015 0
      vertex 0.562143 -2.94686 0
      vertex 1.41279 -22.4556 0
    endloop
  endfacet
  facet normal -0 0 1
    outer loop
      vertex 0.188371 -2.99408 0
      vertex 1.41279 -22.4556 0
      vertex 0.562143 -2.94686 0
    endloop
  endfacet
  facet normal -0 0 1
    outer loop
      vertex -0.188371 -2.99408 0
      vertex 1.41279 -22.4556 0
      vertex 0.188371 -2.99408 0
    endloop
  endfacet
  facet normal 0 0 1
    outer loop
      vertex -1.41279 -22.4556 0
      vertex -0.188371 -2.99408 0
      vertex -0.562143 -2.94686 0
    endloop
  endfacet
  facet normal 0 0 1
    outer loop
      vertex -4.21608 -22.1015 0
      vertex -0.562143 -2.94686 0
      vertex -0.927051 -2.85317 0
    endloop
  endfacet
  facet normal 0 0 1
    outer loop
      vertex -6.95288 -21.3988 0
      vertex -0.927051 -2.85317 0
      vertex -1.27734 -2.71448 0
    endloop
  endfacet
  facet normal 0 0 1
    outer loop
      vertex -0.188371 -2.99408 0
      vertex -1.41279 -22.4556 0
      vertex 1.41279 -22.4556 0
    endloop
  endfacet
  facet normal 0 0 1
    outer loop
      vertex -9.58003 -20.3586 0
      vertex -1.27734 -2.71448 0
      vertex -1.60748 -2.53298 0
    endloop
  endfacet
  facet normal 0 0 1
    outer loop
      vertex -12.0561 -18.9974 0
      vertex -1.60748 -2.53298 0
      vertex -1.91227 -2.31154 0
    endloop
  endfacet
  facet normal 0 0 1
    outer loop
      vertex -14.342 -17.3365 0
      vertex -1.91227 -2.31154 0
      vertex -2.18691 -2.05364 0
    endloop
  endfacet
  facet normal 0 0 1
    outer loop
      vertex -16.4018 -15.4023 0
      vertex -2.18691 -2.05364 0
      vertex -2.42705 -1.76336 0
    endloop
  endfacet
  facet normal 0 0 1
    outer loop
      vertex -18.2029 -13.2252 0
      vertex -2.42705 -1.76336 0
      vertex -2.62892 -1.44526 0
    endloop
  endfacet
  facet normal 0 0 1
    outer loop
      vertex -19.7169 -10.8395 0
      vertex -2.62892 -1.44526 0
      vertex -2.78933 -1.10437 0
    endloop
  endfacet
  facet normal 0 0 1
    outer loop
      vertex -20.92 -8.2828 0
      vertex -2.78933 -1.10437 0
      vertex -2.90575 -0.746069 0
    endloop
  endfacet
  facet normal 0 0 1
    outer loop
      vertex -21.7931 -5.59552 0
      vertex -2.90575 -0.746069 0
      vertex -2.97634 -0.375999 0
    endloop
  endfacet
  facet normal 0 0 1
    outer loop
      vertex -0.562143 -2.94686 0
      vertex -4.21608 -22.1015 0
      vertex -1.41279 -22.4556 0
    endloop
  endfacet
  facet normal 0 0 1
    outer loop
      vertex -22.3226 -2.82 0
      vertex -2.97634 -0.375999 0
      vertex -3 0 0
    endloop
  endfacet
  facet normal -0 0 1
    outer loop
      vertex -18.2029 13.2252 0
      vertex -2.42705 1.76336 0
      vertex -16.4018 15.4023 0
    endloop
  endfacet
  facet normal 0 0 1
    outer loop
      vertex -2.42705 1.76336 0
      vertex -18.2029 13.2252 0
      vertex -2.62892 1.44526 0
    endloop
  endfacet
  facet normal 0 0 1
    outer loop
      vertex -0.927051 -2.85317 0
      vertex -6.95288 -21.3988 0
      vertex -4.21608 -22.1015 0
    endloop
  endfacet
  facet normal -0 0 1
    outer loop
      vertex -19.7169 10.8395 0
      vertex -2.62892 1.44526 0
      vertex -18.2029 13.2252 0
    endloop
  endfacet
  facet normal 0 0 1
    outer loop
      vertex -1.27734 -2.71448 0
      vertex -9.58003 -20.3586 0
      vertex -6.95288 -21.3988 0
    endloop
  endfacet
  facet normal 0 0 1
    outer loop
      vertex -2.62892 1.44526 0
      vertex -19.7169 10.8395 0
      vertex -2.78933 1.10437 0
    endloop
  endfacet
  facet normal 0 0 1
    outer loop
      vertex -1.60748 -2.53298 0
      vertex -12.0561 -18.9974 0
      vertex -9.58003 -20.3586 0
    endloop
  endfacet
  facet normal -0 0 1
    outer loop
      vertex -20.92 8.2828 0
      vertex -2.78933 1.10437 0
      vertex -19.7169 10.8395 0
    endloop
  endfacet
  facet normal 0 0 1
    outer loop
      vertex -1.91227 -2.31154 0
      vertex -14.342 -17.3365 0
      vertex -12.0561 -18.9974 0
    endloop
  endfacet
  facet normal 0 0 1
    outer loop
      vertex -2.78933 1.10437 0
      vertex -20.92 8.2828 0
      vertex -2.90575 0.746069 0
    endloop
  endfacet
  facet normal 0 0 1
    outer loop
      vertex -2.18691 -2.05364 0
      vertex -16.4018 -15.4023 0
      vertex -14.342 -17.3365 0
    endloop
  endfacet
  facet normal -0 0 1
    outer loop
      vertex -21.7931 5.59552 0
      vertex -2.90575 0.746069 0
      vertex -20.92 8.2828 0
    endloop
  endfacet
  facet normal 0 0 1
    outer loop
      vertex -2.42705 -1.76336 0
      vertex -18.2029 -13.2252 0
      vertex -16.4018 -15.4023 0
    endloop
  endfacet
  facet normal 0 0 1
    outer loop
      vertex -2.90575 0.746069 0
      vertex -21.7931 5.59552 0
      vertex -2.97634 0.375999 0
    endloop
  endfacet
  facet normal 0 0 1
    outer loop
      vertex -2.62892 -1.44526 0
      vertex -19.7169 -10.8395 0
      vertex -18.2029 -13.2252 0
    endloop
  endfacet
  facet normal -0 0 1
    outer loop
      vertex -22.3226 2.82 0
      vertex -2.97634 0.375999 0
      vertex -21.7931 5.59552 0
    endloop
  endfacet
  facet normal 0 0 1
    outer loop
      vertex -2.78933 -1.10437 0
      vertex -20.92 -8.2828 0
      vertex -19.7169 -10.8395 0
    endloop
  endfacet
  facet normal 0 0 1
    outer loop
      vertex -2.97634 0.375999 0
      vertex -22.3226 2.82 0
      vertex -3 0 0
    endloop
  endfacet
  facet normal 0 0 1
    outer loop
      vertex -2.90575 -0.746069 0
      vertex -21.7931 -5.59552 0
      vertex -20.92 -8.2828 0
    endloop
  endfacet
  facet normal 0 0 1
    outer loop
      vertex -22.5 0 0
      vertex -3 0 0
      vertex -22.3226 2.82 0
    endloop
  endfacet
  facet normal 0 0 1
    outer loop
      vertex -2.97634 -0.375999 0
      vertex -22.3226 -2.82 0
      vertex -21.7931 -5.59552 0
    endloop
  endfacet
  facet normal 0 0 1
    outer loop
      vertex -3 0 0
      vertex -22.5 0 0
      vertex -22.3226 -2.82 0
    endloop
  endfacet
  facet normal -0.457766 -0.0288135 0.888606
    outer loop
      vertex 1.35 0 -0.849999
      vertex 3 0 0
      vertex 1.33935 0.169199 -0.849999
    endloop
  endfacet
  facet normal -0 0.458672 0.888606
    outer loop
      vertex -0.0847664 -1.34734 -0.849999
      vertex 0.188371 -2.99408 0
      vertex 0.0847664 -1.34734 -0.849999
    endloop
  endfacet
  facet normal 0 0.458672 0.888606
    outer loop
      vertex 0.188371 -2.99408 0
      vertex -0.0847664 -1.34734 -0.849999
      vertex -0.188371 -2.99408 0
    endloop
  endfacet
  facet normal -0.457765 0.0288052 0.888606
    outer loop
      vertex 2.97634 -0.375999 0
      vertex 3 0 0
      vertex 1.33935 -0.169199 -0.849999
    endloop
  endfacet
  facet normal 0.457766 0.0288135 0.888606
    outer loop
      vertex -1.33935 -0.169199 -0.849999
      vertex -1.35 0 -0.849999
      vertex -3 0 0
    endloop
  endfacet
  facet normal -0.0574888 -0.455055 0.888606
    outer loop
      vertex 0.562143 2.94686 0
      vertex 0.188371 2.99408 0
      vertex 0.0847664 1.34734 -0.849999
    endloop
  endfacet
  facet normal -0.415018 -0.195292 0.888606
    outer loop
      vertex 2.78933 1.10437 0
      vertex 2.62892 1.44526 0
      vertex 1.18301 0.650367 -0.849999
    endloop
  endfacet
  facet normal -0.313979 0.334359 0.888606
    outer loop
      vertex 1.91227 -2.31154 0
      vertex 2.18691 -2.05364 0
      vertex 0.860522 -1.04019 -0.849999
    endloop
  endfacet
  facet normal 0.457765 -0.0288052 0.888606
    outer loop
      vertex -1.33935 0.169199 -0.849999
      vertex -2.97634 0.375999 0
      vertex -3 0 0
    endloop
  endfacet
  facet normal 0.313979 -0.334359 0.888606
    outer loop
      vertex -0.860522 1.04019 -0.849999
      vertex -1.91227 2.31154 0
      vertex -2.18691 2.05364 0
    endloop
  endfacet
  facet normal -0.313979 -0.334359 0.888606
    outer loop
      vertex 0.984107 0.924138 -0.849999
      vertex 2.18691 2.05364 0
      vertex 0.860522 1.04019 -0.849999
    endloop
  endfacet
  facet normal -0.450548 -0.0859409 0.888606
    outer loop
      vertex 2.97634 0.375999 0
      vertex 2.90575 0.746069 0
      vertex 1.33935 0.169199 -0.849999
    endloop
  endfacet
  facet normal -0.415018 0.195292 0.888606
    outer loop
      vertex 2.62892 -1.44526 0
      vertex 2.78933 -1.10437 0
      vertex 1.18301 -0.650367 -0.849999
    endloop
  endfacet
  facet normal -0.168849 0.426462 0.888606
    outer loop
      vertex 1.27734 -2.71448 0
      vertex 0.574801 -1.22152 -0.849999
      vertex 0.417172 -1.28393 -0.849999
    endloop
  endfacet
  facet normal -0.114064 0.444263 0.888606
    outer loop
      vertex 0.562143 -2.94686 0
      vertex 0.927051 -2.85317 0
      vertex 0.417172 -1.28393 -0.849999
    endloop
  endfacet
  facet normal -0.269598 0.371074 0.888606
    outer loop
      vertex 1.60748 -2.53298 0
      vertex 1.91227 -2.31154 0
      vertex 0.860522 -1.04019 -0.849999
    endloop
  endfacet
  facet normal 0.313979 0.334359 0.888606
    outer loop
      vertex -1.91227 -2.31154 0
      vertex -0.860522 -1.04019 -0.849999
      vertex -2.18691 -2.05364 0
    endloop
  endfacet
  facet normal 0.415018 0.195292 0.888606
    outer loop
      vertex -2.62892 -1.44526 0
      vertex -1.18301 -0.650367 -0.849999
      vertex -2.78933 -1.10437 0
    endloop
  endfacet
  facet normal 0.114064 0.444263 0.888606
    outer loop
      vertex -0.562143 -2.94686 0
      vertex -0.417172 -1.28393 -0.849999
      vertex -0.927051 -2.85317 0
    endloop
  endfacet
  facet normal 0.436222 -0.14174 0.888606
    outer loop
      vertex -1.30759 0.335731 -0.849999
      vertex -1.2552 0.496967 -0.849999
      vertex -2.90575 0.746069 0
    endloop
  endfacet
  facet normal 0.387269 -0.245767 0.888606
    outer loop
      vertex -1.18301 0.650367 -0.849999
      vertex -1.09217 0.793509 -0.849999
      vertex -2.42705 1.76336 0
    endloop
  endfacet
  facet normal 0.353416 -0.292363 0.888606
    outer loop
      vertex -1.09217 0.793509 -0.849999
      vertex -0.984107 0.924138 -0.849999
      vertex -2.18691 2.05364 0
    endloop
  endfacet
  facet normal -0.114063 -0.444263 0.888606
    outer loop
      vertex 0.417172 1.28393 -0.849999
      vertex 0.562143 2.94686 0
      vertex 0.252964 1.32609 -0.849999
    endloop
  endfacet
  facet normal -0.114064 -0.444263 0.888606
    outer loop
      vertex 0.927051 2.85317 0
      vertex 0.562143 2.94686 0
      vertex 0.417172 1.28393 -0.849999
    endloop
  endfacet
  facet normal -0.38727 -0.245766 0.888606
    outer loop
      vertex 2.62892 1.44526 0
      vertex 2.42705 1.76336 0
      vertex 1.18301 0.650367 -0.849999
    endloop
  endfacet
  facet normal -0.457765 -0.0288052 0.888606
    outer loop
      vertex 3 0 0
      vertex 2.97634 0.375999 0
      vertex 1.33935 0.169199 -0.849999
    endloop
  endfacet
  facet normal -0.450548 0.0859409 0.888606
    outer loop
      vertex 2.90575 -0.746069 0
      vertex 2.97634 -0.375999 0
      vertex 1.33935 -0.169199 -0.849999
    endloop
  endfacet
  facet normal -0.450552 0.0859267 0.888605
    outer loop
      vertex 2.90575 -0.746069 0
      vertex 1.33935 -0.169199 -0.849999
      vertex 1.30759 -0.335731 -0.849999
    endloop
  endfacet
  facet normal -0.436222 0.141738 0.888606
    outer loop
      vertex 2.78933 -1.10437 0
      vertex 2.90575 -0.746069 0
      vertex 1.2552 -0.496967 -0.849999
    endloop
  endfacet
  facet normal -0.415014 0.195305 0.888605
    outer loop
      vertex 2.78933 -1.10437 0
      vertex 1.2552 -0.496967 -0.849999
      vertex 1.18301 -0.650367 -0.849999
    endloop
  endfacet
  facet normal -0.353412 0.292367 0.888607
    outer loop
      vertex 2.18691 -2.05364 0
      vertex 2.42705 -1.76336 0
      vertex 1.09217 -0.793509 -0.849999
    endloop
  endfacet
  facet normal -0.114063 0.444263 0.888606
    outer loop
      vertex 0.562143 -2.94686 0
      vertex 0.417172 -1.28393 -0.849999
      vertex 0.252964 -1.32609 -0.849999
    endloop
  endfacet
  facet normal -0.0574914 0.455055 0.888606
    outer loop
      vertex 0.562143 -2.94686 0
      vertex 0.252964 -1.32609 -0.849999
      vertex 0.0847664 -1.34734 -0.849999
    endloop
  endfacet
  facet normal -0.168849 0.426462 0.888606
    outer loop
      vertex 0.927051 -2.85317 0
      vertex 1.27734 -2.71448 0
      vertex 0.417172 -1.28393 -0.849999
    endloop
  endfacet
  facet normal 0.415014 0.195305 0.888605
    outer loop
      vertex -1.18301 -0.650367 -0.849999
      vertex -1.2552 -0.496967 -0.849999
      vertex -2.78933 -1.10437 0
    endloop
  endfacet
  facet normal 0.313979 0.334359 0.888606
    outer loop
      vertex -0.860522 -1.04019 -0.849999
      vertex -0.984107 -0.924138 -0.849999
      vertex -2.18691 -2.05364 0
    endloop
  endfacet
  facet normal 0.168849 0.426462 0.888606
    outer loop
      vertex -0.927051 -2.85317 0
      vertex -0.417172 -1.28393 -0.849999
      vertex -1.27734 -2.71448 0
    endloop
  endfacet
  facet normal 0.450548 -0.0859409 0.888606
    outer loop
      vertex -1.33935 0.169199 -0.849999
      vertex -2.90575 0.746069 0
      vertex -2.97634 0.375999 0
    endloop
  endfacet
  facet normal 0.450552 -0.0859267 0.888605
    outer loop
      vertex -1.33935 0.169199 -0.849999
      vertex -1.30759 0.335731 -0.849999
      vertex -2.90575 0.746069 0
    endloop
  endfacet
  facet normal 0 -0.458672 0.888606
    outer loop
      vertex 0.188371 2.99408 0
      vertex -0.0847664 1.34734 -0.849999
      vertex 0.0847664 1.34734 -0.849999
    endloop
  endfacet
  facet normal 0 -0.458672 0.888606
    outer loop
      vertex -0.0847664 1.34734 -0.849999
      vertex 0.188371 2.99408 0
      vertex -0.188371 2.99408 0
    endloop
  endfacet
  facet normal 0.22097 -0.401935 0.888606
    outer loop
      vertex -0.723366 1.13984 -0.849999
      vertex -1.27734 2.71448 0
      vertex -1.60748 2.53298 0
    endloop
  endfacet
  facet normal 0.269598 -0.371074 0.888606
    outer loop
      vertex -0.860522 1.04019 -0.849999
      vertex -1.60748 2.53298 0
      vertex -1.91227 2.31154 0
    endloop
  endfacet
  facet normal 0.415018 -0.195292 0.888606
    outer loop
      vertex -1.18301 0.650367 -0.849999
      vertex -2.62892 1.44526 0
      vertex -2.78933 1.10437 0
    endloop
  endfacet
  facet normal 0.436222 -0.141738 0.888606
    outer loop
      vertex -1.2552 0.496967 -0.849999
      vertex -2.78933 1.10437 0
      vertex -2.90575 0.746069 0
    endloop
  endfacet
  facet normal 0.38727 -0.245766 0.888606
    outer loop
      vertex -1.18301 0.650367 -0.849999
      vertex -2.42705 1.76336 0
      vertex -2.62892 1.44526 0
    endloop
  endfacet
  facet normal -0.168849 -0.426462 0.888606
    outer loop
      vertex 1.27734 2.71448 0
      vertex 0.927051 2.85317 0
      vertex 0.417172 1.28393 -0.849999
    endloop
  endfacet
  facet normal -0.0574914 -0.455055 0.888606
    outer loop
      vertex 0.252964 1.32609 -0.849999
      vertex 0.562143 2.94686 0
      vertex 0.0847664 1.34734 -0.849999
    endloop
  endfacet
  facet normal -0.269598 -0.371074 0.888606
    outer loop
      vertex 1.91227 2.31154 0
      vertex 1.60748 2.53298 0
      vertex 0.860522 1.04019 -0.849999
    endloop
  endfacet
  facet normal -0.168849 -0.426462 0.888606
    outer loop
      vertex 0.574801 1.22152 -0.849999
      vertex 1.27734 2.71448 0
      vertex 0.417172 1.28393 -0.849999
    endloop
  endfacet
  facet normal -0.415014 -0.195305 0.888605
    outer loop
      vertex 1.2552 0.496967 -0.849999
      vertex 2.78933 1.10437 0
      vertex 1.18301 0.650367 -0.849999
    endloop
  endfacet
  facet normal -0.457766 0.0288135 0.888606
    outer loop
      vertex 3 0 0
      vertex 1.35 0 -0.849999
      vertex 1.33935 -0.169199 -0.849999
    endloop
  endfacet
  facet normal -0.436222 0.14174 0.888606
    outer loop
      vertex 2.90575 -0.746069 0
      vertex 1.30759 -0.335731 -0.849999
      vertex 1.2552 -0.496967 -0.849999
    endloop
  endfacet
  facet normal -0.387269 0.245767 0.888606
    outer loop
      vertex 2.42705 -1.76336 0
      vertex 1.18301 -0.650367 -0.849999
      vertex 1.09217 -0.793509 -0.849999
    endloop
  endfacet
  facet normal -0.38727 0.245766 0.888606
    outer loop
      vertex 2.42705 -1.76336 0
      vertex 2.62892 -1.44526 0
      vertex 1.18301 -0.650367 -0.849999
    endloop
  endfacet
  facet normal -0.353416 0.292363 0.888606
    outer loop
      vertex 2.18691 -2.05364 0
      vertex 1.09217 -0.793509 -0.849999
      vertex 0.984107 -0.924138 -0.849999
    endloop
  endfacet
  facet normal -0.313979 0.334359 0.888606
    outer loop
      vertex 2.18691 -2.05364 0
      vertex 0.984107 -0.924138 -0.849999
      vertex 0.860522 -1.04019 -0.849999
    endloop
  endfacet
  facet normal -0.0574888 0.455055 0.888606
    outer loop
      vertex 0.188371 -2.99408 0
      vertex 0.562143 -2.94686 0
      vertex 0.0847664 -1.34734 -0.849999
    endloop
  endfacet
  facet normal -0.269601 0.371073 0.888606
    outer loop
      vertex 1.60748 -2.53298 0
      vertex 0.860522 -1.04019 -0.849999
      vertex 0.723366 -1.13984 -0.849999
    endloop
  endfacet
  facet normal -0.22097 0.401935 0.888606
    outer loop
      vertex 1.27734 -2.71448 0
      vertex 1.60748 -2.53298 0
      vertex 0.723366 -1.13984 -0.849999
    endloop
  endfacet
  facet normal 0.436222 0.141738 0.888606
    outer loop
      vertex -2.78933 -1.10437 0
      vertex -1.2552 -0.496967 -0.849999
      vertex -2.90575 -0.746069 0
    endloop
  endfacet
  facet normal 0.450552 0.0859267 0.888605
    outer loop
      vertex -1.30759 -0.335731 -0.849999
      vertex -1.33935 -0.169199 -0.849999
      vertex -2.90575 -0.746069 0
    endloop
  endfacet
  facet normal 0.269598 0.371074 0.888606
    outer loop
      vertex -1.60748 -2.53298 0
      vertex -0.860522 -1.04019 -0.849999
      vertex -1.91227 -2.31154 0
    endloop
  endfacet
  facet normal 0.220979 0.401931 0.888605
    outer loop
      vertex -0.574801 -1.22152 -0.849999
      vertex -0.723366 -1.13984 -0.849999
      vertex -1.27734 -2.71448 0
    endloop
  endfacet
  facet normal 0.168849 0.426462 0.888606
    outer loop
      vertex -0.417172 -1.28393 -0.849999
      vertex -0.574801 -1.22152 -0.849999
      vertex -1.27734 -2.71448 0
    endloop
  endfacet
  facet normal 0.0574914 0.455055 0.888606
    outer loop
      vertex -0.0847664 -1.34734 -0.849999
      vertex -0.252964 -1.32609 -0.849999
      vertex -0.562143 -2.94686 0
    endloop
  endfacet
  facet normal 0.0574888 0.455055 0.888606
    outer loop
      vertex -0.188371 -2.99408 0
      vertex -0.0847664 -1.34734 -0.849999
      vertex -0.562143 -2.94686 0
    endloop
  endfacet
  facet normal 0.114064 -0.444263 0.888606
    outer loop
      vertex -0.417172 1.28393 -0.849999
      vertex -0.562143 2.94686 0
      vertex -0.927051 2.85317 0
    endloop
  endfacet
  facet normal 0.457766 -0.0288135 0.888606
    outer loop
      vertex -1.35 0 -0.849999
      vertex -1.33935 0.169199 -0.849999
      vertex -3 0 0
    endloop
  endfacet
  facet normal 0.415014 -0.195305 0.888605
    outer loop
      vertex -1.2552 0.496967 -0.849999
      vertex -1.18301 0.650367 -0.849999
      vertex -2.78933 1.10437 0
    endloop
  endfacet
  facet normal 0.353412 -0.292367 0.888607
    outer loop
      vertex -1.09217 0.793509 -0.849999
      vertex -2.18691 2.05364 0
      vertex -2.42705 1.76336 0
    endloop
  endfacet
  facet normal 0.313979 -0.334359 0.888606
    outer loop
      vertex -0.984107 0.924138 -0.849999
      vertex -0.860522 1.04019 -0.849999
      vertex -2.18691 2.05364 0
    endloop
  endfacet
  facet normal -0.269601 -0.371073 0.888606
    outer loop
      vertex 0.860522 1.04019 -0.849999
      vertex 1.60748 2.53298 0
      vertex 0.723366 1.13984 -0.849999
    endloop
  endfacet
  facet normal -0.313979 -0.334359 0.888606
    outer loop
      vertex 2.18691 2.05364 0
      vertex 1.91227 2.31154 0
      vertex 0.860522 1.04019 -0.849999
    endloop
  endfacet
  facet normal -0.22097 -0.401935 0.888606
    outer loop
      vertex 1.60748 2.53298 0
      vertex 1.27734 2.71448 0
      vertex 0.723366 1.13984 -0.849999
    endloop
  endfacet
  facet normal -0.220979 -0.401931 0.888605
    outer loop
      vertex 0.723366 1.13984 -0.849999
      vertex 1.27734 2.71448 0
      vertex 0.574801 1.22152 -0.849999
    endloop
  endfacet
  facet normal -0.353412 -0.292367 0.888607
    outer loop
      vertex 2.42705 1.76336 0
      vertex 2.18691 2.05364 0
      vertex 1.09217 0.793509 -0.849999
    endloop
  endfacet
  facet normal -0.387269 -0.245767 0.888606
    outer loop
      vertex 1.18301 0.650367 -0.849999
      vertex 2.42705 1.76336 0
      vertex 1.09217 0.793509 -0.849999
    endloop
  endfacet
  facet normal -0.436222 -0.141738 0.888606
    outer loop
      vertex 2.90575 0.746069 0
      vertex 2.78933 1.10437 0
      vertex 1.2552 0.496967 -0.849999
    endloop
  endfacet
  facet normal -0.220979 0.401931 0.888605
    outer loop
      vertex 1.27734 -2.71448 0
      vertex 0.723366 -1.13984 -0.849999
      vertex 0.574801 -1.22152 -0.849999
    endloop
  endfacet
  facet normal 0.450548 0.0859409 0.888606
    outer loop
      vertex -2.90575 -0.746069 0
      vertex -1.33935 -0.169199 -0.849999
      vertex -2.97634 -0.375999 0
    endloop
  endfacet
  facet normal 0.457765 0.0288052 0.888606
    outer loop
      vertex -2.97634 -0.375999 0
      vertex -1.33935 -0.169199 -0.849999
      vertex -3 0 0
    endloop
  endfacet
  facet normal 0.387269 0.245767 0.888606
    outer loop
      vertex -1.09217 -0.793509 -0.849999
      vertex -1.18301 -0.650367 -0.849999
      vertex -2.42705 -1.76336 0
    endloop
  endfacet
  facet normal 0.38727 0.245766 0.888606
    outer loop
      vertex -2.42705 -1.76336 0
      vertex -1.18301 -0.650367 -0.849999
      vertex -2.62892 -1.44526 0
    endloop
  endfacet
  facet normal 0.22097 0.401935 0.888606
    outer loop
      vertex -1.27734 -2.71448 0
      vertex -0.723366 -1.13984 -0.849999
      vertex -1.60748 -2.53298 0
    endloop
  endfacet
  facet normal 0.114063 0.444263 0.888606
    outer loop
      vertex -0.252964 -1.32609 -0.849999
      vertex -0.417172 -1.28393 -0.849999
      vertex -0.562143 -2.94686 0
    endloop
  endfacet
  facet normal 0.269601 -0.371073 0.888606
    outer loop
      vertex -0.860522 1.04019 -0.849999
      vertex -0.723366 1.13984 -0.849999
      vertex -1.60748 2.53298 0
    endloop
  endfacet
  facet normal 0.0574888 -0.455055 0.888606
    outer loop
      vertex -0.0847664 1.34734 -0.849999
      vertex -0.188371 2.99408 0
      vertex -0.562143 2.94686 0
    endloop
  endfacet
  facet normal 0.114063 -0.444263 0.888606
    outer loop
      vertex -0.417172 1.28393 -0.849999
      vertex -0.252964 1.32609 -0.849999
      vertex -0.562143 2.94686 0
    endloop
  endfacet
  facet normal 0.0574914 -0.455055 0.888606
    outer loop
      vertex -0.252964 1.32609 -0.849999
      vertex -0.0847664 1.34734 -0.849999
      vertex -0.562143 2.94686 0
    endloop
  endfacet
  facet normal -0.353416 -0.292363 0.888606
    outer loop
      vertex 1.09217 0.793509 -0.849999
      vertex 2.18691 2.05364 0
      vertex 0.984107 0.924138 -0.849999
    endloop
  endfacet
  facet normal -0.436222 -0.14174 0.888606
    outer loop
      vertex 1.30759 0.335731 -0.849999
      vertex 2.90575 0.746069 0
      vertex 1.2552 0.496967 -0.849999
    endloop
  endfacet
  facet normal -0.450552 -0.0859267 0.888605
    outer loop
      vertex 1.33935 0.169199 -0.849999
      vertex 2.90575 0.746069 0
      vertex 1.30759 0.335731 -0.849999
    endloop
  endfacet
  facet normal 0.436222 0.14174 0.888606
    outer loop
      vertex -1.2552 -0.496967 -0.849999
      vertex -1.30759 -0.335731 -0.849999
      vertex -2.90575 -0.746069 0
    endloop
  endfacet
  facet normal 0.353416 0.292363 0.888606
    outer loop
      vertex -0.984107 -0.924138 -0.849999
      vertex -1.09217 -0.793509 -0.849999
      vertex -2.18691 -2.05364 0
    endloop
  endfacet
  facet normal 0.353412 0.292367 0.888607
    outer loop
      vertex -2.18691 -2.05364 0
      vertex -1.09217 -0.793509 -0.849999
      vertex -2.42705 -1.76336 0
    endloop
  endfacet
  facet normal 0.269601 0.371073 0.888606
    outer loop
      vertex -0.723366 -1.13984 -0.849999
      vertex -0.860522 -1.04019 -0.849999
      vertex -1.60748 -2.53298 0
    endloop
  endfacet
  facet normal 0.168849 -0.426462 0.888606
    outer loop
      vertex -0.417172 1.28393 -0.849999
      vertex -0.927051 2.85317 0
      vertex -1.27734 2.71448 0
    endloop
  endfacet
  facet normal 0.220979 -0.401931 0.888605
    outer loop
      vertex -0.723366 1.13984 -0.849999
      vertex -0.574801 1.22152 -0.849999
      vertex -1.27734 2.71448 0
    endloop
  endfacet
  facet normal 0.168849 -0.426462 0.888606
    outer loop
      vertex -0.574801 1.22152 -0.849999
      vertex -0.417172 1.28393 -0.849999
      vertex -1.27734 2.71448 0
    endloop
  endfacet
  facet normal -0.998025 -0.0628193 0
    outer loop
      vertex 1.35 0 -30
      vertex 1.33935 0.169199 -0.849999
      vertex 1.33935 0.169199 -30
    endloop
  endfacet
  facet normal -0.998025 -0.0628193 0
    outer loop
      vertex 1.33935 0.169199 -0.849999
      vertex 1.35 0 -30
      vertex 1.35 0 -0.849999
    endloop
  endfacet
  facet normal 0.998025 -0.0628193 0
    outer loop
      vertex -1.35 0 -0.849999
      vertex -1.33935 0.169199 -30
      vertex -1.33935 0.169199 -0.849999
    endloop
  endfacet
  facet normal 0.998025 -0.0628193 0
    outer loop
      vertex -1.33935 0.169199 -30
      vertex -1.35 0 -0.849999
      vertex -1.35 0 -30
    endloop
  endfacet
  facet normal 0 -1 0
    outer loop
      vertex -0.0847664 1.34734 -30
      vertex 0.0847664 1.34734 -0.849999
      vertex -0.0847664 1.34734 -0.849999
    endloop
  endfacet
  facet normal 0 -1 -0
    outer loop
      vertex 0.0847664 1.34734 -0.849999
      vertex -0.0847664 1.34734 -30
      vertex 0.0847664 1.34734 -30
    endloop
  endfacet
  facet normal 0 1 -0
    outer loop
      vertex 0.0847664 -1.34734 -30
      vertex -0.0847664 -1.34734 -0.849999
      vertex 0.0847664 -1.34734 -0.849999
    endloop
  endfacet
  facet normal 0 1 0
    outer loop
      vertex -0.0847664 -1.34734 -0.849999
      vertex 0.0847664 -1.34734 -30
      vertex -0.0847664 -1.34734 -30
    endloop
  endfacet
  facet normal -0.684541 -0.728975 0
    outer loop
      vertex 0.860522 1.04019 -30
      vertex 0.984107 0.924138 -0.849999
      vertex 0.860522 1.04019 -0.849999
    endloop
  endfacet
  facet normal -0.684541 -0.728975 -0
    outer loop
      vertex 0.984107 0.924138 -0.849999
      vertex 0.860522 1.04019 -30
      vertex 0.984107 0.924138 -30
    endloop
  endfacet
  facet normal 0.684541 -0.728975 0
    outer loop
      vertex -0.984107 0.924138 -30
      vertex -0.860522 1.04019 -0.849999
      vertex -0.984107 0.924138 -0.849999
    endloop
  endfacet
  facet normal 0.684541 -0.728975 0
    outer loop
      vertex -0.860522 1.04019 -0.849999
      vertex -0.984107 0.924138 -30
      vertex -0.860522 1.04019 -30
    endloop
  endfacet
  facet normal 0.368126 -0.929776 0
    outer loop
      vertex -0.574801 1.22152 -30
      vertex -0.417172 1.28393 -0.849999
      vertex -0.574801 1.22152 -0.849999
    endloop
  endfacet
  facet normal 0.368126 -0.929776 0
    outer loop
      vertex -0.417172 1.28393 -0.849999
      vertex -0.574801 1.22152 -30
      vertex -0.417172 1.28393 -30
    endloop
  endfacet
  facet normal -0.84433 0.535824 0
    outer loop
      vertex 1.09217 -0.793509 -30
      vertex 1.18301 -0.650367 -0.849999
      vertex 1.18301 -0.650367 -30
    endloop
  endfacet
  facet normal -0.84433 0.535824 0
    outer loop
      vertex 1.18301 -0.650367 -0.849999
      vertex 1.09217 -0.793509 -30
      vertex 1.09217 -0.793509 -0.849999
    endloop
  endfacet
  facet normal -0.904815 -0.425806 0
    outer loop
      vertex 1.2552 0.496967 -30
      vertex 1.18301 0.650367 -0.849999
      vertex 1.18301 0.650367 -30
    endloop
  endfacet
  facet normal -0.904815 -0.425806 0
    outer loop
      vertex 1.18301 0.650367 -0.849999
      vertex 1.2552 0.496967 -30
      vertex 1.2552 0.496967 -0.849999
    endloop
  endfacet
  facet normal -0.982296 -0.187338 0
    outer loop
      vertex 1.33935 0.169199 -30
      vertex 1.30759 0.335731 -0.849999
      vertex 1.30759 0.335731 -30
    endloop
  endfacet
  facet normal -0.982296 -0.187338 0
    outer loop
      vertex 1.30759 0.335731 -0.849999
      vertex 1.33935 0.169199 -30
      vertex 1.33935 0.169199 -0.849999
    endloop
  endfacet
  facet normal -0.84433 -0.535824 0
    outer loop
      vertex 1.18301 0.650367 -30
      vertex 1.09217 0.793509 -0.849999
      vertex 1.09217 0.793509 -30
    endloop
  endfacet
  facet normal -0.84433 -0.535824 0
    outer loop
      vertex 1.09217 0.793509 -0.849999
      vertex 1.18301 0.650367 -30
      vertex 1.18301 0.650367 -0.849999
    endloop
  endfacet
  facet normal -0.368126 -0.929776 0
    outer loop
      vertex 0.417172 1.28393 -30
      vertex 0.574801 1.22152 -0.849999
      vertex 0.417172 1.28393 -0.849999
    endloop
  endfacet
  facet normal -0.368126 -0.929776 -0
    outer loop
      vertex 0.574801 1.22152 -0.849999
      vertex 0.417172 1.28393 -30
      vertex 0.574801 1.22152 -30
    endloop
  endfacet
  facet normal -0.587787 -0.809016 0
    outer loop
      vertex 0.723366 1.13984 -30
      vertex 0.860522 1.04019 -0.849999
      vertex 0.723366 1.13984 -0.849999
    endloop
  endfacet
  facet normal -0.587787 -0.809016 -0
    outer loop
      vertex 0.860522 1.04019 -0.849999
      vertex 0.723366 1.13984 -30
      vertex 0.860522 1.04019 -30
    endloop
  endfacet
  facet normal 0.904815 -0.425806 0
    outer loop
      vertex -1.2552 0.496967 -0.849999
      vertex -1.18301 0.650367 -30
      vertex -1.18301 0.650367 -0.849999
    endloop
  endfacet
  facet normal 0.904815 -0.425806 0
    outer loop
      vertex -1.18301 0.650367 -30
      vertex -1.2552 0.496967 -0.849999
      vertex -1.2552 0.496967 -30
    endloop
  endfacet
  facet normal 0.248682 -0.968585 0
    outer loop
      vertex -0.417172 1.28393 -30
      vertex -0.252964 1.32609 -0.849999
      vertex -0.417172 1.28393 -0.849999
    endloop
  endfacet
  facet normal 0.248682 -0.968585 0
    outer loop
      vertex -0.252964 1.32609 -0.849999
      vertex -0.417172 1.28393 -30
      vertex -0.252964 1.32609 -30
    endloop
  endfacet
  facet normal -0.982296 0.187338 0
    outer loop
      vertex 1.30759 -0.335731 -30
      vertex 1.33935 -0.169199 -0.849999
      vertex 1.33935 -0.169199 -30
    endloop
  endfacet
  facet normal -0.982296 0.187338 0
    outer loop
      vertex 1.33935 -0.169199 -0.849999
      vertex 1.30759 -0.335731 -30
      vertex 1.30759 -0.335731 -0.849999
    endloop
  endfacet
  facet normal -0.368126 0.929776 0
    outer loop
      vertex 0.574801 -1.22152 -30
      vertex 0.417172 -1.28393 -0.849999
      vertex 0.574801 -1.22152 -0.849999
    endloop
  endfacet
  facet normal -0.368126 0.929776 0
    outer loop
      vertex 0.417172 -1.28393 -0.849999
      vertex 0.574801 -1.22152 -30
      vertex 0.417172 -1.28393 -30
    endloop
  endfacet
  facet normal -0.951054 -0.309024 0
    outer loop
      vertex 1.30759 0.335731 -30
      vertex 1.2552 0.496967 -0.849999
      vertex 1.2552 0.496967 -30
    endloop
  endfacet
  facet normal -0.951054 -0.309024 0
    outer loop
      vertex 1.2552 0.496967 -0.849999
      vertex 1.30759 0.335731 -30
      vertex 1.30759 0.335731 -0.849999
    endloop
  endfacet
  facet normal -0.770521 -0.637415 0
    outer loop
      vertex 1.09217 0.793509 -30
      vertex 0.984107 0.924138 -0.849999
      vertex 0.984107 0.924138 -30
    endloop
  endfacet
  facet normal -0.770521 -0.637415 0
    outer loop
      vertex 0.984107 0.924138 -0.849999
      vertex 1.09217 0.793509 -30
      vertex 1.09217 0.793509 -0.849999
    endloop
  endfacet
  facet normal -0.248682 -0.968585 0
    outer loop
      vertex 0.252964 1.32609 -30
      vertex 0.417172 1.28393 -0.849999
      vertex 0.252964 1.32609 -0.849999
    endloop
  endfacet
  facet normal -0.248682 -0.968585 -0
    outer loop
      vertex 0.417172 1.28393 -0.849999
      vertex 0.252964 1.32609 -30
      vertex 0.417172 1.28393 -30
    endloop
  endfacet
  facet normal -0.125343 -0.992113 0
    outer loop
      vertex 0.0847664 1.34734 -30
      vertex 0.252964 1.32609 -0.849999
      vertex 0.0847664 1.34734 -0.849999
    endloop
  endfacet
  facet normal -0.125343 -0.992113 -0
    outer loop
      vertex 0.252964 1.32609 -0.849999
      vertex 0.0847664 1.34734 -30
      vertex 0.252964 1.32609 -30
    endloop
  endfacet
  facet normal -0.481779 -0.876292 0
    outer loop
      vertex 0.574801 1.22152 -30
      vertex 0.723366 1.13984 -0.849999
      vertex 0.574801 1.22152 -0.849999
    endloop
  endfacet
  facet normal -0.481779 -0.876292 -0
    outer loop
      vertex 0.723366 1.13984 -0.849999
      vertex 0.574801 1.22152 -30
      vertex 0.723366 1.13984 -30
    endloop
  endfacet
  facet normal 0.84433 -0.535824 0
    outer loop
      vertex -1.18301 0.650367 -0.849999
      vertex -1.09217 0.793509 -30
      vertex -1.09217 0.793509 -0.849999
    endloop
  endfacet
  facet normal 0.84433 -0.535824 0
    outer loop
      vertex -1.09217 0.793509 -30
      vertex -1.18301 0.650367 -0.849999
      vertex -1.18301 0.650367 -30
    endloop
  endfacet
  facet normal 0.770521 -0.637415 0
    outer loop
      vertex -1.09217 0.793509 -0.849999
      vertex -0.984107 0.924138 -30
      vertex -0.984107 0.924138 -0.849999
    endloop
  endfacet
  facet normal 0.770521 -0.637415 0
    outer loop
      vertex -0.984107 0.924138 -30
      vertex -1.09217 0.793509 -0.849999
      vertex -1.09217 0.793509 -30
    endloop
  endfacet
  facet normal 0.951054 -0.309024 0
    outer loop
      vertex -1.30759 0.335731 -0.849999
      vertex -1.2552 0.496967 -30
      vertex -1.2552 0.496967 -0.849999
    endloop
  endfacet
  facet normal 0.951054 -0.309024 0
    outer loop
      vertex -1.2552 0.496967 -30
      vertex -1.30759 0.335731 -0.849999
      vertex -1.30759 0.335731 -30
    endloop
  endfacet
  facet normal 0.982296 -0.187338 0
    outer loop
      vertex -1.33935 0.169199 -0.849999
      vertex -1.30759 0.335731 -30
      vertex -1.30759 0.335731 -0.849999
    endloop
  endfacet
  facet normal 0.982296 -0.187338 0
    outer loop
      vertex -1.30759 0.335731 -30
      vertex -1.33935 0.169199 -0.849999
      vertex -1.33935 0.169199 -30
    endloop
  endfacet
  facet normal 0.481779 -0.876292 0
    outer loop
      vertex -0.723366 1.13984 -30
      vertex -0.574801 1.22152 -0.849999
      vertex -0.723366 1.13984 -0.849999
    endloop
  endfacet
  facet normal 0.481779 -0.876292 0
    outer loop
      vertex -0.574801 1.22152 -0.849999
      vertex -0.723366 1.13984 -30
      vertex -0.574801 1.22152 -30
    endloop
  endfacet
  facet normal 0.587787 -0.809016 0
    outer loop
      vertex -0.860522 1.04019 -30
      vertex -0.723366 1.13984 -0.849999
      vertex -0.860522 1.04019 -0.849999
    endloop
  endfacet
  facet normal 0.587787 -0.809016 0
    outer loop
      vertex -0.723366 1.13984 -0.849999
      vertex -0.860522 1.04019 -30
      vertex -0.723366 1.13984 -30
    endloop
  endfacet
  facet normal 0.125343 -0.992113 0
    outer loop
      vertex -0.252964 1.32609 -30
      vertex -0.0847664 1.34734 -0.849999
      vertex -0.252964 1.32609 -0.849999
    endloop
  endfacet
  facet normal 0.125343 -0.992113 0
    outer loop
      vertex -0.0847664 1.34734 -0.849999
      vertex -0.252964 1.32609 -30
      vertex -0.0847664 1.34734 -30
    endloop
  endfacet
  facet normal -0.998025 0.0628193 0
    outer loop
      vertex 1.33935 -0.169199 -30
      vertex 1.35 0 -0.849999
      vertex 1.35 0 -30
    endloop
  endfacet
  facet normal -0.998025 0.0628193 0
    outer loop
      vertex 1.35 0 -0.849999
      vertex 1.33935 -0.169199 -30
      vertex 1.33935 -0.169199 -0.849999
    endloop
  endfacet
  facet normal -0.770521 0.637415 0
    outer loop
      vertex 0.984107 -0.924138 -30
      vertex 1.09217 -0.793509 -0.849999
      vertex 1.09217 -0.793509 -30
    endloop
  endfacet
  facet normal -0.770521 0.637415 0
    outer loop
      vertex 1.09217 -0.793509 -0.849999
      vertex 0.984107 -0.924138 -30
      vertex 0.984107 -0.924138 -0.849999
    endloop
  endfacet
  facet normal 0.951054 0.309024 0
    outer loop
      vertex -1.2552 -0.496967 -0.849999
      vertex -1.30759 -0.335731 -30
      vertex -1.30759 -0.335731 -0.849999
    endloop
  endfacet
  facet normal 0.951054 0.309024 0
    outer loop
      vertex -1.30759 -0.335731 -30
      vertex -1.2552 -0.496967 -0.849999
      vertex -1.2552 -0.496967 -30
    endloop
  endfacet
  facet normal -0.587787 0.809016 0
    outer loop
      vertex 0.860522 -1.04019 -30
      vertex 0.723366 -1.13984 -0.849999
      vertex 0.860522 -1.04019 -0.849999
    endloop
  endfacet
  facet normal -0.587787 0.809016 0
    outer loop
      vertex 0.723366 -1.13984 -0.849999
      vertex 0.860522 -1.04019 -30
      vertex 0.723366 -1.13984 -30
    endloop
  endfacet
  facet normal -0.684541 0.728975 0
    outer loop
      vertex 0.984107 -0.924138 -30
      vertex 0.860522 -1.04019 -0.849999
      vertex 0.984107 -0.924138 -0.849999
    endloop
  endfacet
  facet normal -0.684541 0.728975 0
    outer loop
      vertex 0.860522 -1.04019 -0.849999
      vertex 0.984107 -0.924138 -30
      vertex 0.860522 -1.04019 -30
    endloop
  endfacet
  facet normal -0.904815 0.425806 0
    outer loop
      vertex 1.18301 -0.650367 -30
      vertex 1.2552 -0.496967 -0.849999
      vertex 1.2552 -0.496967 -30
    endloop
  endfacet
  facet normal -0.904815 0.425806 0
    outer loop
      vertex 1.2552 -0.496967 -0.849999
      vertex 1.18301 -0.650367 -30
      vertex 1.18301 -0.650367 -0.849999
    endloop
  endfacet
  facet normal 0.770521 0.637415 0
    outer loop
      vertex -0.984107 -0.924138 -0.849999
      vertex -1.09217 -0.793509 -30
      vertex -1.09217 -0.793509 -0.849999
    endloop
  endfacet
  facet normal 0.770521 0.637415 0
    outer loop
      vertex -1.09217 -0.793509 -30
      vertex -0.984107 -0.924138 -0.849999
      vertex -0.984107 -0.924138 -30
    endloop
  endfacet
  facet normal 0.84433 0.535824 0
    outer loop
      vertex -1.09217 -0.793509 -0.849999
      vertex -1.18301 -0.650367 -30
      vertex -1.18301 -0.650367 -0.849999
    endloop
  endfacet
  facet normal 0.84433 0.535824 0
    outer loop
      vertex -1.18301 -0.650367 -30
      vertex -1.09217 -0.793509 -0.849999
      vertex -1.09217 -0.793509 -30
    endloop
  endfacet
  facet normal -0.481779 0.876292 0
    outer loop
      vertex 0.723366 -1.13984 -30
      vertex 0.574801 -1.22152 -0.849999
      vertex 0.723366 -1.13984 -0.849999
    endloop
  endfacet
  facet normal -0.481779 0.876292 0
    outer loop
      vertex 0.574801 -1.22152 -0.849999
      vertex 0.723366 -1.13984 -30
      vertex 0.574801 -1.22152 -30
    endloop
  endfacet
  facet normal -0.951054 0.309024 0
    outer loop
      vertex 1.2552 -0.496967 -30
      vertex 1.30759 -0.335731 -0.849999
      vertex 1.30759 -0.335731 -30
    endloop
  endfacet
  facet normal -0.951054 0.309024 0
    outer loop
      vertex 1.30759 -0.335731 -0.849999
      vertex 1.2552 -0.496967 -30
      vertex 1.2552 -0.496967 -0.849999
    endloop
  endfacet
  facet normal 0.125343 0.992113 -0
    outer loop
      vertex -0.0847664 -1.34734 -30
      vertex -0.252964 -1.32609 -0.849999
      vertex -0.0847664 -1.34734 -0.849999
    endloop
  endfacet
  facet normal 0.125343 0.992113 0
    outer loop
      vertex -0.252964 -1.32609 -0.849999
      vertex -0.0847664 -1.34734 -30
      vertex -0.252964 -1.32609 -30
    endloop
  endfacet
  facet normal 0.368126 0.929776 -0
    outer loop
      vertex -0.417172 -1.28393 -30
      vertex -0.574801 -1.22152 -0.849999
      vertex -0.417172 -1.28393 -0.849999
    endloop
  endfacet
  facet normal 0.368126 0.929776 0
    outer loop
      vertex -0.574801 -1.22152 -0.849999
      vertex -0.417172 -1.28393 -30
      vertex -0.574801 -1.22152 -30
    endloop
  endfacet
  facet normal 0.587787 0.809016 -0
    outer loop
      vertex -0.723366 -1.13984 -30
      vertex -0.860522 -1.04019 -0.849999
      vertex -0.723366 -1.13984 -0.849999
    endloop
  endfacet
  facet normal 0.587787 0.809016 0
    outer loop
      vertex -0.860522 -1.04019 -0.849999
      vertex -0.723366 -1.13984 -30
      vertex -0.860522 -1.04019 -30
    endloop
  endfacet
  facet normal 0.248682 0.968585 -0
    outer loop
      vertex -0.252964 -1.32609 -30
      vertex -0.417172 -1.28393 -0.849999
      vertex -0.252964 -1.32609 -0.849999
    endloop
  endfacet
  facet normal 0.248682 0.968585 0
    outer loop
      vertex -0.417172 -1.28393 -0.849999
      vertex -0.252964 -1.32609 -30
      vertex -0.417172 -1.28393 -30
    endloop
  endfacet
  facet normal 0.684541 0.728975 -0
    outer loop
      vertex -0.860522 -1.04019 -30
      vertex -0.984107 -0.924138 -0.849999
      vertex -0.860522 -1.04019 -0.849999
    endloop
  endfacet
  facet normal 0.684541 0.728975 0
    outer loop
      vertex -0.984107 -0.924138 -0.849999
      vertex -0.860522 -1.04019 -30
      vertex -0.984107 -0.924138 -30
    endloop
  endfacet
  facet normal 0.904815 0.425806 0
    outer loop
      vertex -1.18301 -0.650367 -0.849999
      vertex -1.2552 -0.496967 -30
      vertex -1.2552 -0.496967 -0.849999
    endloop
  endfacet
  facet normal 0.904815 0.425806 0
    outer loop
      vertex -1.2552 -0.496967 -30
      vertex -1.18301 -0.650367 -0.849999
      vertex -1.18301 -0.650367 -30
    endloop
  endfacet
  facet normal 0.982296 0.187338 0
    outer loop
      vertex -1.30759 -0.335731 -0.849999
      vertex -1.33935 -0.169199 -30
      vertex -1.33935 -0.169199 -0.849999
    endloop
  endfacet
  facet normal 0.982296 0.187338 0
    outer loop
      vertex -1.33935 -0.169199 -30
      vertex -1.30759 -0.335731 -0.849999
      vertex -1.30759 -0.335731 -30
    endloop
  endfacet
  facet normal 0.998025 0.0628193 0
    outer loop
      vertex -1.33935 -0.169199 -0.849999
      vertex -1.35 0 -30
      vertex -1.35 0 -0.849999
    endloop
  endfacet
  facet normal 0.998025 0.0628193 0
    outer loop
      vertex -1.35 0 -30
      vertex -1.33935 -0.169199 -0.849999
      vertex -1.33935 -0.169199 -30
    endloop
  endfacet
  facet normal -0.248682 0.968585 0
    outer loop
      vertex 0.417172 -1.28393 -30
      vertex 0.252964 -1.32609 -0.849999
      vertex 0.417172 -1.28393 -0.849999
    endloop
  endfacet
  facet normal -0.248682 0.968585 0
    outer loop
      vertex 0.252964 -1.32609 -0.849999
      vertex 0.417172 -1.28393 -30
      vertex 0.252964 -1.32609 -30
    endloop
  endfacet
  facet normal -0.125343 0.992113 0
    outer loop
      vertex 0.252964 -1.32609 -30
      vertex 0.0847664 -1.34734 -0.849999
      vertex 0.252964 -1.32609 -0.849999
    endloop
  endfacet
  facet normal -0.125343 0.992113 0
    outer loop
      vertex 0.0847664 -1.34734 -0.849999
      vertex 0.252964 -1.32609 -30
      vertex 0.0847664 -1.34734 -30
    endloop
  endfacet
  facet normal 0.481779 0.876292 -0
    outer loop
      vertex -0.574801 -1.22152 -30
      vertex -0.723366 -1.13984 -0.849999
      vertex -0.574801 -1.22152 -0.849999
    endloop
  endfacet
  facet normal 0.481779 0.876292 0
    outer loop
      vertex -0.723366 -1.13984 -0.849999
      vertex -0.574801 -1.22152 -30
      vertex -0.723366 -1.13984 -30
    endloop
  endfacet
  facet normal 0.998027 0.0627837 0
    outer loop
      vertex 22.5 0 0
      vertex 22.3226 2.82 -30
      vertex 22.3226 2.82 0
    endloop
  endfacet
  facet normal 0.998027 0.0627837 0
    outer loop
      vertex 22.3226 2.82 -30
      vertex 22.5 0 0
      vertex 22.5 0 -30
    endloop
  endfacet
  facet normal -0.998027 0.0627837 0
    outer loop
      vertex -22.5 0 -30
      vertex -22.3226 2.82 0
      vertex -22.3226 2.82 -30
    endloop
  endfacet
  facet normal -0.998027 0.0627837 0
    outer loop
      vertex -22.3226 2.82 0
      vertex -22.5 0 -30
      vertex -22.5 0 0
    endloop
  endfacet
  facet normal 0 1 -0
    outer loop
      vertex 1.41279 22.4556 -30
      vertex -1.41279 22.4556 0
      vertex 1.41279 22.4556 0
    endloop
  endfacet
  facet normal 0 1 0
    outer loop
      vertex -1.41279 22.4556 0
      vertex 1.41279 22.4556 -30
      vertex -1.41279 22.4556 -30
    endloop
  endfacet
  facet normal 0.684532 0.728983 -0
    outer loop
      vertex 16.4018 15.4023 -30
      vertex 14.342 17.3365 0
      vertex 16.4018 15.4023 0
    endloop
  endfacet
  facet normal 0.684532 0.728983 0
    outer loop
      vertex 14.342 17.3365 0
      vertex 16.4018 15.4023 -30
      vertex 14.342 17.3365 -30
    endloop
  endfacet
  facet normal -0.684532 0.728983 0
    outer loop
      vertex -14.342 17.3365 -30
      vertex -16.4018 15.4023 0
      vertex -14.342 17.3365 0
    endloop
  endfacet
  facet normal -0.684532 0.728983 0
    outer loop
      vertex -16.4018 15.4023 0
      vertex -14.342 17.3365 -30
      vertex -16.4018 15.4023 -30
    endloop
  endfacet
  facet normal -0.368136 0.929772 0
    outer loop
      vertex -6.95288 21.3988 -30
      vertex -9.58003 20.3586 0
      vertex -6.95288 21.3988 0
    endloop
  endfacet
  facet normal -0.368136 0.929772 0
    outer loop
      vertex -9.58003 20.3586 0
      vertex -6.95288 21.3988 -30
      vertex -9.58003 20.3586 -30
    endloop
  endfacet
  facet normal 0.904826 0.425782 0
    outer loop
      vertex 20.92 8.2828 0
      vertex 19.7169 10.8395 -30
      vertex 19.7169 10.8395 0
    endloop
  endfacet
  facet normal 0.904826 0.425782 0
    outer loop
      vertex 19.7169 10.8395 -30
      vertex 20.92 8.2828 0
      vertex 20.92 8.2828 -30
    endloop
  endfacet
  facet normal 0.368136 0.929772 -0
    outer loop
      vertex 9.58003 20.3586 -30
      vertex 6.95288 21.3988 0
      vertex 9.58003 20.3586 0
    endloop
  endfacet
  facet normal 0.368136 0.929772 0
    outer loop
      vertex 6.95288 21.3988 0
      vertex 9.58003 20.3586 -30
      vertex 6.95288 21.3988 -30
    endloop
  endfacet
  facet normal 0.587808 0.809001 -0
    outer loop
      vertex 14.342 17.3365 -30
      vertex 12.0561 18.9974 0
      vertex 14.342 17.3365 0
    endloop
  endfacet
  facet normal 0.587808 0.809001 0
    outer loop
      vertex 12.0561 18.9974 0
      vertex 14.342 17.3365 -30
      vertex 12.0561 18.9974 -30
    endloop
  endfacet
  facet normal -0.904826 0.425782 0
    outer loop
      vertex -20.92 8.2828 -30
      vertex -19.7169 10.8395 0
      vertex -19.7169 10.8395 -30
    endloop
  endfacet
  facet normal -0.904826 0.425782 0
    outer loop
      vertex -19.7169 10.8395 0
      vertex -20.92 8.2828 -30
      vertex -20.92 8.2828 0
    endloop
  endfacet
  facet normal -0.84433 0.535824 0
    outer loop
      vertex -19.7169 10.8395 -30
      vertex -18.2029 13.2252 0
      vertex -18.2029 13.2252 -30
    endloop
  endfacet
  facet normal -0.84433 0.535824 0
    outer loop
      vertex -18.2029 13.2252 0
      vertex -19.7169 10.8395 -30
      vertex -19.7169 10.8395 0
    endloop
  endfacet
  facet normal -0.982285 0.187395 0
    outer loop
      vertex -22.3226 2.82 -30
      vertex -21.7931 5.59552 0
      vertex -21.7931 5.59552 -30
    endloop
  endfacet
  facet normal -0.982285 0.187395 0
    outer loop
      vertex -21.7931 5.59552 0
      vertex -22.3226 2.82 -30
      vertex -22.3226 2.82 0
    endloop
  endfacet
  facet normal -0.587808 0.809001 0
    outer loop
      vertex -12.0561 18.9974 -30
      vertex -14.342 17.3365 0
      vertex -12.0561 18.9974 0
    endloop
  endfacet
  facet normal -0.587808 0.809001 0
    outer loop
      vertex -14.342 17.3365 0
      vertex -12.0561 18.9974 -30
      vertex -14.342 17.3365 -30
    endloop
  endfacet
  facet normal -0.12532 0.992116 0
    outer loop
      vertex -1.41279 22.4556 -30
      vertex -4.21608 22.1015 0
      vertex -1.41279 22.4556 0
    endloop
  endfacet
  facet normal -0.12532 0.992116 0
    outer loop
      vertex -4.21608 22.1015 0
      vertex -1.41279 22.4556 -30
      vertex -4.21608 22.1015 -30
    endloop
  endfacet
  facet normal -0.248693 -0.968582 0
    outer loop
      vertex -6.95288 -21.3988 -30
      vertex -4.21608 -22.1015 0
      vertex -6.95288 -21.3988 0
    endloop
  endfacet
  facet normal -0.248693 -0.968582 -0
    outer loop
      vertex -4.21608 -22.1015 0
      vertex -6.95288 -21.3988 -30
      vertex -4.21608 -22.1015 -30
    endloop
  endfacet
  facet normal 0.12532 -0.992116 0
    outer loop
      vertex 1.41279 -22.4556 -30
      vertex 4.21608 -22.1015 0
      vertex 1.41279 -22.4556 0
    endloop
  endfacet
  facet normal 0.12532 -0.992116 0
    outer loop
      vertex 4.21608 -22.1015 0
      vertex 1.41279 -22.4556 -30
      vertex 4.21608 -22.1015 -30
    endloop
  endfacet
  facet normal 0.951062 0.309001 0
    outer loop
      vertex 21.7931 5.59552 0
      vertex 20.92 8.2828 -30
      vertex 20.92 8.2828 0
    endloop
  endfacet
  facet normal 0.951062 0.309001 0
    outer loop
      vertex 20.92 8.2828 -30
      vertex 21.7931 5.59552 0
      vertex 21.7931 5.59552 -30
    endloop
  endfacet
  facet normal 0.982285 0.187395 0
    outer loop
      vertex 22.3226 2.82 0
      vertex 21.7931 5.59552 -30
      vertex 21.7931 5.59552 0
    endloop
  endfacet
  facet normal 0.982285 0.187395 0
    outer loop
      vertex 21.7931 5.59552 -30
      vertex 22.3226 2.82 0
      vertex 22.3226 2.82 -30
    endloop
  endfacet
  facet normal 0.770505 0.637434 0
    outer loop
      vertex 18.2029 13.2252 0
      vertex 16.4018 15.4023 -30
      vertex 16.4018 15.4023 0
    endloop
  endfacet
  facet normal 0.770505 0.637434 0
    outer loop
      vertex 16.4018 15.4023 -30
      vertex 18.2029 13.2252 0
      vertex 18.2029 13.2252 -30
    endloop
  endfacet
  facet normal 0.84433 0.535824 0
    outer loop
      vertex 19.7169 10.8395 0
      vertex 18.2029 13.2252 -30
      vertex 18.2029 13.2252 0
    endloop
  endfacet
  facet normal 0.84433 0.535824 0
    outer loop
      vertex 18.2029 13.2252 -30
      vertex 19.7169 10.8395 0
      vertex 19.7169 10.8395 -30
    endloop
  endfacet
  facet normal 0.248693 0.968582 -0
    outer loop
      vertex 6.95288 21.3988 -30
      vertex 4.21608 22.1015 0
      vertex 6.95288 21.3988 0
    endloop
  endfacet
  facet normal 0.248693 0.968582 0
    outer loop
      vertex 4.21608 22.1015 0
      vertex 6.95288 21.3988 -30
      vertex 4.21608 22.1015 -30
    endloop
  endfacet
  facet normal 0.12532 0.992116 -0
    outer loop
      vertex 4.21608 22.1015 -30
      vertex 1.41279 22.4556 0
      vertex 4.21608 22.1015 0
    endloop
  endfacet
  facet normal 0.12532 0.992116 0
    outer loop
      vertex 1.41279 22.4556 0
      vertex 4.21608 22.1015 -30
      vertex 1.41279 22.4556 -30
    endloop
  endfacet
  facet normal 0.481745 0.876311 -0
    outer loop
      vertex 12.0561 18.9974 -30
      vertex 9.58003 20.3586 0
      vertex 12.0561 18.9974 0
    endloop
  endfacet
  facet normal 0.481745 0.876311 0
    outer loop
      vertex 9.58003 20.3586 0
      vertex 12.0561 18.9974 -30
      vertex 9.58003 20.3586 -30
    endloop
  endfacet
  facet normal -0.248693 0.968582 0
    outer loop
      vertex -4.21608 22.1015 -30
      vertex -6.95288 21.3988 0
      vertex -4.21608 22.1015 0
    endloop
  endfacet
  facet normal -0.248693 0.968582 0
    outer loop
      vertex -6.95288 21.3988 0
      vertex -4.21608 22.1015 -30
      vertex -6.95288 21.3988 -30
    endloop
  endfacet
  facet normal 0.998027 -0.0627837 0
    outer loop
      vertex 22.3226 -2.82 0
      vertex 22.5 0 -30
      vertex 22.5 0 0
    endloop
  endfacet
  facet normal 0.998027 -0.0627837 0
    outer loop
      vertex 22.5 0 -30
      vertex 22.3226 -2.82 0
      vertex 22.3226 -2.82 -30
    endloop
  endfacet
  facet normal 0.904826 -0.425782 0
    outer loop
      vertex 19.7169 -10.8395 0
      vertex 20.92 -8.2828 -30
      vertex 20.92 -8.2828 0
    endloop
  endfacet
  facet normal 0.904826 -0.425782 0
    outer loop
      vertex 20.92 -8.2828 -30
      vertex 19.7169 -10.8395 0
      vertex 19.7169 -10.8395 -30
    endloop
  endfacet
  facet normal -0.904826 -0.425782 0
    outer loop
      vertex -19.7169 -10.8395 -30
      vertex -20.92 -8.2828 0
      vertex -20.92 -8.2828 -30
    endloop
  endfacet
  facet normal -0.904826 -0.425782 0
    outer loop
      vertex -20.92 -8.2828 0
      vertex -19.7169 -10.8395 -30
      vertex -19.7169 -10.8395 0
    endloop
  endfacet
  facet normal -0.998027 -0.0627837 0
    outer loop
      vertex -22.3226 -2.82 -30
      vertex -22.5 0 0
      vertex -22.5 0 -30
    endloop
  endfacet
  facet normal -0.998027 -0.0627837 0
    outer loop
      vertex -22.5 0 0
      vertex -22.3226 -2.82 -30
      vertex -22.3226 -2.82 0
    endloop
  endfacet
  facet normal 0.368136 -0.929772 0
    outer loop
      vertex 6.95288 -21.3988 -30
      vertex 9.58003 -20.3586 0
      vertex 6.95288 -21.3988 0
    endloop
  endfacet
  facet normal 0.368136 -0.929772 0
    outer loop
      vertex 9.58003 -20.3586 0
      vertex 6.95288 -21.3988 -30
      vertex 9.58003 -20.3586 -30
    endloop
  endfacet
  facet normal 0.248693 -0.968582 0
    outer loop
      vertex 4.21608 -22.1015 -30
      vertex 6.95288 -21.3988 0
      vertex 4.21608 -22.1015 0
    endloop
  endfacet
  facet normal 0.248693 -0.968582 0
    outer loop
      vertex 6.95288 -21.3988 0
      vertex 4.21608 -22.1015 -30
      vertex 6.95288 -21.3988 -30
    endloop
  endfacet
  facet normal -0.770505 0.637434 0
    outer loop
      vertex -18.2029 13.2252 -30
      vertex -16.4018 15.4023 0
      vertex -16.4018 15.4023 -30
    endloop
  endfacet
  facet normal -0.770505 0.637434 0
    outer loop
      vertex -16.4018 15.4023 0
      vertex -18.2029 13.2252 -30
      vertex -18.2029 13.2252 0
    endloop
  endfacet
  facet normal -0.951062 0.309001 0
    outer loop
      vertex -21.7931 5.59552 -30
      vertex -20.92 8.2828 0
      vertex -20.92 8.2828 -30
    endloop
  endfacet
  facet normal -0.951062 0.309001 0
    outer loop
      vertex -20.92 8.2828 0
      vertex -21.7931 5.59552 -30
      vertex -21.7931 5.59552 0
    endloop
  endfacet
  facet normal -0.481745 0.876311 0
    outer loop
      vertex -9.58003 20.3586 -30
      vertex -12.0561 18.9974 0
      vertex -9.58003 20.3586 0
    endloop
  endfacet
  facet normal -0.481745 0.876311 0
    outer loop
      vertex -12.0561 18.9974 0
      vertex -9.58003 20.3586 -30
      vertex -12.0561 18.9974 -30
    endloop
  endfacet
  facet normal 0.951062 -0.309001 0
    outer loop
      vertex 20.92 -8.2828 0
      vertex 21.7931 -5.59552 -30
      vertex 21.7931 -5.59552 0
    endloop
  endfacet
  facet normal 0.951062 -0.309001 0
    outer loop
      vertex 21.7931 -5.59552 -30
      vertex 20.92 -8.2828 0
      vertex 20.92 -8.2828 -30
    endloop
  endfacet
  facet normal 0.982285 -0.187395 0
    outer loop
      vertex 21.7931 -5.59552 0
      vertex 22.3226 -2.82 -30
      vertex 22.3226 -2.82 0
    endloop
  endfacet
  facet normal 0.982285 -0.187395 0
    outer loop
      vertex 22.3226 -2.82 -30
      vertex 21.7931 -5.59552 0
      vertex 21.7931 -5.59552 -30
    endloop
  endfacet
  facet normal 0.481745 -0.876311 0
    outer loop
      vertex 9.58003 -20.3586 -30
      vertex 12.0561 -18.9974 0
      vertex 9.58003 -20.3586 0
    endloop
  endfacet
  facet normal 0.481745 -0.876311 0
    outer loop
      vertex 12.0561 -18.9974 0
      vertex 9.58003 -20.3586 -30
      vertex 12.0561 -18.9974 -30
    endloop
  endfacet
  facet normal 0.684532 -0.728983 0
    outer loop
      vertex 14.342 -17.3365 -30
      vertex 16.4018 -15.4023 0
      vertex 14.342 -17.3365 0
    endloop
  endfacet
  facet normal 0.684532 -0.728983 0
    outer loop
      vertex 16.4018 -15.4023 0
      vertex 14.342 -17.3365 -30
      vertex 16.4018 -15.4023 -30
    endloop
  endfacet
  facet normal 0.770505 -0.637434 0
    outer loop
      vertex 16.4018 -15.4023 0
      vertex 18.2029 -13.2252 -30
      vertex 18.2029 -13.2252 0
    endloop
  endfacet
  facet normal 0.770505 -0.637434 0
    outer loop
      vertex 18.2029 -13.2252 -30
      vertex 16.4018 -15.4023 0
      vertex 16.4018 -15.4023 -30
    endloop
  endfacet
  facet normal 0 -1 0
    outer loop
      vertex -1.41279 -22.4556 -30
      vertex 1.41279 -22.4556 0
      vertex -1.41279 -22.4556 0
    endloop
  endfacet
  facet normal 0 -1 -0
    outer loop
      vertex 1.41279 -22.4556 0
      vertex -1.41279 -22.4556 -30
      vertex 1.41279 -22.4556 -30
    endloop
  endfacet
  facet normal -0.368136 -0.929772 0
    outer loop
      vertex -9.58003 -20.3586 -30
      vertex -6.95288 -21.3988 0
      vertex -9.58003 -20.3586 0
    endloop
  endfacet
  facet normal -0.368136 -0.929772 -0
    outer loop
      vertex -6.95288 -21.3988 0
      vertex -9.58003 -20.3586 -30
      vertex -6.95288 -21.3988 -30
    endloop
  endfacet
  facet normal -0.684532 -0.728983 0
    outer loop
      vertex -16.4018 -15.4023 -30
      vertex -14.342 -17.3365 0
      vertex -16.4018 -15.4023 0
    endloop
  endfacet
  facet normal -0.684532 -0.728983 -0
    outer loop
      vertex -14.342 -17.3365 0
      vertex -16.4018 -15.4023 -30
      vertex -14.342 -17.3365 -30
    endloop
  endfacet
  facet normal 0.587808 -0.809001 0
    outer loop
      vertex 12.0561 -18.9974 -30
      vertex 14.342 -17.3365 0
      vertex 12.0561 -18.9974 0
    endloop
  endfacet
  facet normal 0.587808 -0.809001 0
    outer loop
      vertex 14.342 -17.3365 0
      vertex 12.0561 -18.9974 -30
      vertex 14.342 -17.3365 -30
    endloop
  endfacet
  facet normal 0.84433 -0.535824 0
    outer loop
      vertex 18.2029 -13.2252 0
      vertex 19.7169 -10.8395 -30
      vertex 19.7169 -10.8395 0
    endloop
  endfacet
  facet normal 0.84433 -0.535824 0
    outer loop
      vertex 19.7169 -10.8395 -30
      vertex 18.2029 -13.2252 0
      vertex 18.2029 -13.2252 -30
    endloop
  endfacet
  facet normal -0.12532 -0.992116 0
    outer loop
      vertex -4.21608 -22.1015 -30
      vertex -1.41279 -22.4556 0
      vertex -4.21608 -22.1015 0
    endloop
  endfacet
  facet normal -0.12532 -0.992116 -0
    outer loop
      vertex -1.41279 -22.4556 0
      vertex -4.21608 -22.1015 -30
      vertex -1.41279 -22.4556 -30
    endloop
  endfacet
  facet normal -0.587808 -0.809001 0
    outer loop
      vertex -14.342 -17.3365 -30
      vertex -12.0561 -18.9974 0
      vertex -14.342 -17.3365 0
    endloop
  endfacet
  facet normal -0.587808 -0.809001 -0
    outer loop
      vertex -12.0561 -18.9974 0
      vertex -14.342 -17.3365 -30
      vertex -12.0561 -18.9974 -30
    endloop
  endfacet
  facet normal -0.84433 -0.535824 0
    outer loop
      vertex -18.2029 -13.2252 -30
      vertex -19.7169 -10.8395 0
      vertex -19.7169 -10.8395 -30
    endloop
  endfacet
  facet normal -0.84433 -0.535824 0
    outer loop
      vertex -19.7169 -10.8395 0
      vertex -18.2029 -13.2252 -30
      vertex -18.2029 -13.2252 0
    endloop
  endfacet
  facet normal -0.951062 -0.309001 0
    outer loop
      vertex -20.92 -8.2828 -30
      vertex -21.7931 -5.59552 0
      vertex -21.7931 -5.59552 -30
    endloop
  endfacet
  facet normal -0.951062 -0.309001 0
    outer loop
      vertex -21.7931 -5.59552 0
      vertex -20.92 -8.2828 -30
      vertex -20.92 -8.2828 0
    endloop
  endfacet
  facet normal 0 0 -1
    outer loop
      vertex 1.35 0 -30
      vertex 22.5 0 -30
      vertex 22.3226 -2.82 -30
    endloop
  endfacet
  facet normal 0 0 -1
    outer loop
      vertex 1.33935 -0.169199 -30
      vertex 22.3226 -2.82 -30
      vertex 21.7931 -5.59552 -30
    endloop
  endfacet
  facet normal 0 0 -1
    outer loop
      vertex 22.5 0 -30
      vertex 1.35 0 -30
      vertex 22.3226 2.82 -30
    endloop
  endfacet
  facet normal 0 0 -1
    outer loop
      vertex 1.30759 -0.335731 -30
      vertex 21.7931 -5.59552 -30
      vertex 20.92 -8.2828 -30
    endloop
  endfacet
  facet normal 0 0 -1
    outer loop
      vertex 1.33935 0.169199 -30
      vertex 22.3226 2.82 -30
      vertex 1.35 0 -30
    endloop
  endfacet
  facet normal 0 0 -1
    outer loop
      vertex 1.2552 -0.496967 -30
      vertex 20.92 -8.2828 -30
      vertex 19.7169 -10.8395 -30
    endloop
  endfacet
  facet normal -0 0 -1
    outer loop
      vertex 22.3226 2.82 -30
      vertex 1.33935 0.169199 -30
      vertex 21.7931 5.59552 -30
    endloop
  endfacet
  facet normal 0 0 -1
    outer loop
      vertex 1.18301 -0.650367 -30
      vertex 19.7169 -10.8395 -30
      vertex 18.2029 -13.2252 -30
    endloop
  endfacet
  facet normal 0 0 -1
    outer loop
      vertex 1.30759 0.335731 -30
      vertex 21.7931 5.59552 -30
      vertex 1.33935 0.169199 -30
    endloop
  endfacet
  facet normal 0 0 -1
    outer loop
      vertex 1.09217 -0.793509 -30
      vertex 18.2029 -13.2252 -30
      vertex 16.4018 -15.4023 -30
    endloop
  endfacet
  facet normal -0 0 -1
    outer loop
      vertex 21.7931 5.59552 -30
      vertex 1.30759 0.335731 -30
      vertex 20.92 8.2828 -30
    endloop
  endfacet
  facet normal 0 0 -1
    outer loop
      vertex 0.984107 -0.924138 -30
      vertex 16.4018 -15.4023 -30
      vertex 14.342 -17.3365 -30
    endloop
  endfacet
  facet normal 0 0 -1
    outer loop
      vertex 1.2552 0.496967 -30
      vertex 20.92 8.2828 -30
      vertex 1.30759 0.335731 -30
    endloop
  endfacet
  facet normal 0 0 -1
    outer loop
      vertex 0.860522 -1.04019 -30
      vertex 14.342 -17.3365 -30
      vertex 12.0561 -18.9974 -30
    endloop
  endfacet
  facet normal -0 0 -1
    outer loop
      vertex 20.92 8.2828 -30
      vertex 1.2552 0.496967 -30
      vertex 19.7169 10.8395 -30
    endloop
  endfacet
  facet normal 0 0 -1
    outer loop
      vertex 0.723366 -1.13984 -30
      vertex 12.0561 -18.9974 -30
      vertex 9.58003 -20.3586 -30
    endloop
  endfacet
  facet normal 0 0 -1
    outer loop
      vertex 1.18301 0.650367 -30
      vertex 19.7169 10.8395 -30
      vertex 1.2552 0.496967 -30
    endloop
  endfacet
  facet normal 0 0 -1
    outer loop
      vertex 0.574801 -1.22152 -30
      vertex 9.58003 -20.3586 -30
      vertex 6.95288 -21.3988 -30
    endloop
  endfacet
  facet normal -0 0 -1
    outer loop
      vertex 19.7169 10.8395 -30
      vertex 1.18301 0.650367 -30
      vertex 18.2029 13.2252 -30
    endloop
  endfacet
  facet normal 0 0 -1
    outer loop
      vertex 0.417172 -1.28393 -30
      vertex 6.95288 -21.3988 -30
      vertex 4.21608 -22.1015 -30
    endloop
  endfacet
  facet normal 0 0 -1
    outer loop
      vertex 1.09217 0.793509 -30
      vertex 18.2029 13.2252 -30
      vertex 1.18301 0.650367 -30
    endloop
  endfacet
  facet normal 0 0 -1
    outer loop
      vertex 0.252964 -1.32609 -30
      vertex 4.21608 -22.1015 -30
      vertex 1.41279 -22.4556 -30
    endloop
  endfacet
  facet normal -0 0 -1
    outer loop
      vertex 18.2029 13.2252 -30
      vertex 1.09217 0.793509 -30
      vertex 16.4018 15.4023 -30
    endloop
  endfacet
  facet normal 0 0 -1
    outer loop
      vertex 0.984107 0.924138 -30
      vertex 16.4018 15.4023 -30
      vertex 1.09217 0.793509 -30
    endloop
  endfacet
  facet normal 0 0 -1
    outer loop
      vertex 22.3226 -2.82 -30
      vertex 1.33935 -0.169199 -30
      vertex 1.35 0 -30
    endloop
  endfacet
  facet normal 0 0 -1
    outer loop
      vertex 21.7931 -5.59552 -30
      vertex 1.30759 -0.335731 -30
      vertex 1.33935 -0.169199 -30
    endloop
  endfacet
  facet normal 0 0 -1
    outer loop
      vertex 20.92 -8.2828 -30
      vertex 1.2552 -0.496967 -30
      vertex 1.30759 -0.335731 -30
    endloop
  endfacet
  facet normal 0 0 -1
    outer loop
      vertex 19.7169 -10.8395 -30
      vertex 1.18301 -0.650367 -30
      vertex 1.2552 -0.496967 -30
    endloop
  endfacet
  facet normal 0 0 -1
    outer loop
      vertex 18.2029 -13.2252 -30
      vertex 1.09217 -0.793509 -30
      vertex 1.18301 -0.650367 -30
    endloop
  endfacet
  facet normal 0 0 -1
    outer loop
      vertex 16.4018 -15.4023 -30
      vertex 0.984107 -0.924138 -30
      vertex 1.09217 -0.793509 -30
    endloop
  endfacet
  facet normal 0 0 -1
    outer loop
      vertex 14.342 -17.3365 -30
      vertex 0.860522 -1.04019 -30
      vertex 0.984107 -0.924138 -30
    endloop
  endfacet
  facet normal 0 0 -1
    outer loop
      vertex 12.0561 -18.9974 -30
      vertex 0.723366 -1.13984 -30
      vertex 0.860522 -1.04019 -30
    endloop
  endfacet
  facet normal 0 0 -1
    outer loop
      vertex 9.58003 -20.3586 -30
      vertex 0.574801 -1.22152 -30
      vertex 0.723366 -1.13984 -30
    endloop
  endfacet
  facet normal 0 0 -1
    outer loop
      vertex 6.95288 -21.3988 -30
      vertex 0.417172 -1.28393 -30
      vertex 0.574801 -1.22152 -30
    endloop
  endfacet
  facet normal 0 0 -1
    outer loop
      vertex 4.21608 -22.1015 -30
      vertex 0.252964 -1.32609 -30
      vertex 0.417172 -1.28393 -30
    endloop
  endfacet
  facet normal 0 0 -1
    outer loop
      vertex 1.41279 -22.4556 -30
      vertex 0.0847664 -1.34734 -30
      vertex 0.252964 -1.32609 -30
    endloop
  endfacet
  facet normal 0 0 -1
    outer loop
      vertex 1.41279 -22.4556 -30
      vertex -0.0847664 -1.34734 -30
      vertex 0.0847664 -1.34734 -30
    endloop
  endfacet
  facet normal 0 0 -1
    outer loop
      vertex -1.41279 -22.4556 -30
      vertex -0.0847664 -1.34734 -30
      vertex 1.41279 -22.4556 -30
    endloop
  endfacet
  facet normal -0 0 -1
    outer loop
      vertex -0.0847664 -1.34734 -30
      vertex -1.41279 -22.4556 -30
      vertex -0.252964 -1.32609 -30
    endloop
  endfacet
  facet normal 0 0 -1
    outer loop
      vertex -4.21608 -22.1015 -30
      vertex -0.252964 -1.32609 -30
      vertex -1.41279 -22.4556 -30
    endloop
  endfacet
  facet normal -0 0 -1
    outer loop
      vertex -0.252964 -1.32609 -30
      vertex -4.21608 -22.1015 -30
      vertex -0.417172 -1.28393 -30
    endloop
  endfacet
  facet normal 0 0 -1
    outer loop
      vertex -6.95288 -21.3988 -30
      vertex -0.417172 -1.28393 -30
      vertex -4.21608 -22.1015 -30
    endloop
  endfacet
  facet normal -0 0 -1
    outer loop
      vertex -0.417172 -1.28393 -30
      vertex -6.95288 -21.3988 -30
      vertex -0.574801 -1.22152 -30
    endloop
  endfacet
  facet normal 0 0 -1
    outer loop
      vertex -9.58003 -20.3586 -30
      vertex -0.574801 -1.22152 -30
      vertex -6.95288 -21.3988 -30
    endloop
  endfacet
  facet normal -0 0 -1
    outer loop
      vertex -0.574801 -1.22152 -30
      vertex -9.58003 -20.3586 -30
      vertex -0.723366 -1.13984 -30
    endloop
  endfacet
  facet normal 0 0 -1
    outer loop
      vertex -12.0561 -18.9974 -30
      vertex -0.723366 -1.13984 -30
      vertex -9.58003 -20.3586 -30
    endloop
  endfacet
  facet normal -0 0 -1
    outer loop
      vertex -0.723366 -1.13984 -30
      vertex -12.0561 -18.9974 -30
      vertex -0.860522 -1.04019 -30
    endloop
  endfacet
  facet normal 0 0 -1
    outer loop
      vertex -14.342 -17.3365 -30
      vertex -0.860522 -1.04019 -30
      vertex -12.0561 -18.9974 -30
    endloop
  endfacet
  facet normal 0 0 -1
    outer loop
      vertex -16.4018 -15.4023 -30
      vertex -0.984107 -0.924138 -30
      vertex -14.342 -17.3365 -30
    endloop
  endfacet
  facet normal -0 0 -1
    outer loop
      vertex -0.860522 -1.04019 -30
      vertex -14.342 -17.3365 -30
      vertex -0.984107 -0.924138 -30
    endloop
  endfacet
  facet normal -0 0 -1
    outer loop
      vertex 16.4018 15.4023 -30
      vertex 0.984107 0.924138 -30
      vertex 14.342 17.3365 -30
    endloop
  endfacet
  facet normal 0 0 -1
    outer loop
      vertex 0.860522 1.04019 -30
      vertex 14.342 17.3365 -30
      vertex 0.984107 0.924138 -30
    endloop
  endfacet
  facet normal -0 0 -1
    outer loop
      vertex 14.342 17.3365 -30
      vertex 0.860522 1.04019 -30
      vertex 12.0561 18.9974 -30
    endloop
  endfacet
  facet normal 0 0 -1
    outer loop
      vertex 0.723366 1.13984 -30
      vertex 12.0561 18.9974 -30
      vertex 0.860522 1.04019 -30
    endloop
  endfacet
  facet normal -0 0 -1
    outer loop
      vertex 12.0561 18.9974 -30
      vertex 0.723366 1.13984 -30
      vertex 9.58003 20.3586 -30
    endloop
  endfacet
  facet normal 0 0 -1
    outer loop
      vertex 0.574801 1.22152 -30
      vertex 9.58003 20.3586 -30
      vertex 0.723366 1.13984 -30
    endloop
  endfacet
  facet normal -0 0 -1
    outer loop
      vertex 9.58003 20.3586 -30
      vertex 0.574801 1.22152 -30
      vertex 6.95288 21.3988 -30
    endloop
  endfacet
  facet normal 0 0 -1
    outer loop
      vertex 0.417172 1.28393 -30
      vertex 6.95288 21.3988 -30
      vertex 0.574801 1.22152 -30
    endloop
  endfacet
  facet normal -0 0 -1
    outer loop
      vertex 6.95288 21.3988 -30
      vertex 0.417172 1.28393 -30
      vertex 4.21608 22.1015 -30
    endloop
  endfacet
  facet normal 0 0 -1
    outer loop
      vertex 0.252964 1.32609 -30
      vertex 4.21608 22.1015 -30
      vertex 0.417172 1.28393 -30
    endloop
  endfacet
  facet normal -0 0 -1
    outer loop
      vertex 4.21608 22.1015 -30
      vertex 0.252964 1.32609 -30
      vertex 1.41279 22.4556 -30
    endloop
  endfacet
  facet normal 0 0 -1
    outer loop
      vertex 0.0847664 1.34734 -30
      vertex 1.41279 22.4556 -30
      vertex 0.252964 1.32609 -30
    endloop
  endfacet
  facet normal 0 0 -1
    outer loop
      vertex -0.0847664 1.34734 -30
      vertex 1.41279 22.4556 -30
      vertex 0.0847664 1.34734 -30
    endloop
  endfacet
  facet normal 0 0 -1
    outer loop
      vertex -1.41279 22.4556 -30
      vertex -0.0847664 1.34734 -30
      vertex -0.252964 1.32609 -30
    endloop
  endfacet
  facet normal 0 0 -1
    outer loop
      vertex -4.21608 22.1015 -30
      vertex -0.252964 1.32609 -30
      vertex -0.417172 1.28393 -30
    endloop
  endfacet
  facet normal 0 0 -1
    outer loop
      vertex -6.95288 21.3988 -30
      vertex -0.417172 1.28393 -30
      vertex -0.574801 1.22152 -30
    endloop
  endfacet
  facet normal 0 0 -1
    outer loop
      vertex -9.58003 20.3586 -30
      vertex -0.574801 1.22152 -30
      vertex -0.723366 1.13984 -30
    endloop
  endfacet
  facet normal 0 0 -1
    outer loop
      vertex -12.0561 18.9974 -30
      vertex -0.723366 1.13984 -30
      vertex -0.860522 1.04019 -30
    endloop
  endfacet
  facet normal 0 0 -1
    outer loop
      vertex -14.342 17.3365 -30
      vertex -0.860522 1.04019 -30
      vertex -0.984107 0.924138 -30
    endloop
  endfacet
  facet normal 0 0 -1
    outer loop
      vertex -16.4018 15.4023 -30
      vertex -0.984107 0.924138 -30
      vertex -1.09217 0.793509 -30
    endloop
  endfacet
  facet normal 0 0 -1
    outer loop
      vertex -18.2029 13.2252 -30
      vertex -1.09217 0.793509 -30
      vertex -1.18301 0.650367 -30
    endloop
  endfacet
  facet normal 0 0 -1
    outer loop
      vertex -19.7169 10.8395 -30
      vertex -1.18301 0.650367 -30
      vertex -1.2552 0.496967 -30
    endloop
  endfacet
  facet normal 0 0 -1
    outer loop
      vertex -20.92 8.2828 -30
      vertex -1.2552 0.496967 -30
      vertex -1.30759 0.335731 -30
    endloop
  endfacet
  facet normal 0 0 -1
    outer loop
      vertex -21.7931 5.59552 -30
      vertex -1.30759 0.335731 -30
      vertex -1.33935 0.169199 -30
    endloop
  endfacet
  facet normal 0 0 -1
    outer loop
      vertex -0.0847664 1.34734 -30
      vertex -1.41279 22.4556 -30
      vertex 1.41279 22.4556 -30
    endloop
  endfacet
  facet normal 0 0 -1
    outer loop
      vertex -22.3226 2.82 -30
      vertex -1.33935 0.169199 -30
      vertex -1.35 0 -30
    endloop
  endfacet
  facet normal -0 0 -1
    outer loop
      vertex -0.984107 -0.924138 -30
      vertex -16.4018 -15.4023 -30
      vertex -1.09217 -0.793509 -30
    endloop
  endfacet
  facet normal 0 0 -1
    outer loop
      vertex -18.2029 -13.2252 -30
      vertex -1.09217 -0.793509 -30
      vertex -16.4018 -15.4023 -30
    endloop
  endfacet
  facet normal 0 0 -1
    outer loop
      vertex -0.252964 1.32609 -30
      vertex -4.21608 22.1015 -30
      vertex -1.41279 22.4556 -30
    endloop
  endfacet
  facet normal -0 0 -1
    outer loop
      vertex -1.09217 -0.793509 -30
      vertex -18.2029 -13.2252 -30
      vertex -1.18301 -0.650367 -30
    endloop
  endfacet
  facet normal 0 0 -1
    outer loop
      vertex -0.417172 1.28393 -30
      vertex -6.95288 21.3988 -30
      vertex -4.21608 22.1015 -30
    endloop
  endfacet
  facet normal 0 0 -1
    outer loop
      vertex -19.7169 -10.8395 -30
      vertex -1.18301 -0.650367 -30
      vertex -18.2029 -13.2252 -30
    endloop
  endfacet
  facet normal 0 0 -1
    outer loop
      vertex -0.574801 1.22152 -30
      vertex -9.58003 20.3586 -30
      vertex -6.95288 21.3988 -30
    endloop
  endfacet
  facet normal -0 0 -1
    outer loop
      vertex -1.18301 -0.650367 -30
      vertex -19.7169 -10.8395 -30
      vertex -1.2552 -0.496967 -30
    endloop
  endfacet
  facet normal 0 0 -1
    outer loop
      vertex -0.723366 1.13984 -30
      vertex -12.0561 18.9974 -30
      vertex -9.58003 20.3586 -30
    endloop
  endfacet
  facet normal 0 0 -1
    outer loop
      vertex -20.92 -8.2828 -30
      vertex -1.2552 -0.496967 -30
      vertex -19.7169 -10.8395 -30
    endloop
  endfacet
  facet normal 0 0 -1
    outer loop
      vertex -0.860522 1.04019 -30
      vertex -14.342 17.3365 -30
      vertex -12.0561 18.9974 -30
    endloop
  endfacet
  facet normal -0 0 -1
    outer loop
      vertex -1.2552 -0.496967 -30
      vertex -20.92 -8.2828 -30
      vertex -1.30759 -0.335731 -30
    endloop
  endfacet
  facet normal 0 0 -1
    outer loop
      vertex -0.984107 0.924138 -30
      vertex -16.4018 15.4023 -30
      vertex -14.342 17.3365 -30
    endloop
  endfacet
  facet normal 0 0 -1
    outer loop
      vertex -21.7931 -5.59552 -30
      vertex -1.30759 -0.335731 -30
      vertex -20.92 -8.2828 -30
    endloop
  endfacet
  facet normal 0 0 -1
    outer loop
      vertex -1.09217 0.793509 -30
      vertex -18.2029 13.2252 -30
      vertex -16.4018 15.4023 -30
    endloop
  endfacet
  facet normal -0 0 -1
    outer loop
      vertex -1.30759 -0.335731 -30
      vertex -21.7931 -5.59552 -30
      vertex -1.33935 -0.169199 -30
    endloop
  endfacet
  facet normal 0 0 -1
    outer loop
      vertex -1.18301 0.650367 -30
      vertex -19.7169 10.8395 -30
      vertex -18.2029 13.2252 -30
    endloop
  endfacet
  facet normal 0 0 -1
    outer loop
      vertex -22.3226 -2.82 -30
      vertex -1.33935 -0.169199 -30
      vertex -21.7931 -5.59552 -30
    endloop
  endfacet
  facet normal 0 0 -1
    outer loop
      vertex -1.2552 0.496967 -30
      vertex -20.92 8.2828 -30
      vertex -19.7169 10.8395 -30
    endloop
  endfacet
  facet normal -0 0 -1
    outer loop
      vertex -1.33935 -0.169199 -30
      vertex -22.3226 -2.82 -30
      vertex -1.35 0 -30
    endloop
  endfacet
  facet normal 0 0 -1
    outer loop
      vertex -1.30759 0.335731 -30
      vertex -21.7931 5.59552 -30
      vertex -20.92 8.2828 -30
    endloop
  endfacet
  facet normal 0 0 -1
    outer loop
      vertex -22.5 0 -30
      vertex -1.35 0 -30
      vertex -22.3226 -2.82 -30
    endloop
  endfacet
  facet normal 0 0 -1
    outer loop
      vertex -1.33935 0.169199 -30
      vertex -22.3226 2.82 -30
      vertex -21.7931 5.59552 -30
    endloop
  endfacet
  facet normal 0 0 -1
    outer loop
      vertex -1.35 0 -30
      vertex -22.5 0 -30
      vertex -22.3226 2.82 -30
    endloop
  endfacet
  facet normal -0.982285 -0.187395 0
    outer loop
      vertex -21.7931 -5.59552 -30
      vertex -22.3226 -2.82 0
      vertex -22.3226 -2.82 -30
    endloop
  endfacet
  facet normal -0.982285 -0.187395 0
    outer loop
      vertex -22.3226 -2.82 0
      vertex -21.7931 -5.59552 -30
      vertex -21.7931 -5.59552 0
    endloop
  endfacet
  facet normal -0.481745 -0.876311 0
    outer loop
      vertex -12.0561 -18.9974 -30
      vertex -9.58003 -20.3586 0
      vertex -12.0561 -18.9974 0
    endloop
  endfacet
  facet normal -0.481745 -0.876311 -0
    outer loop
      vertex -9.58003 -20.3586 0
      vertex -12.0561 -18.9974 -30
      vertex -9.58003 -20.3586 -30
    endloop
  endfacet
  facet normal -0.770505 -0.637434 0
    outer loop
      vertex -16.4018 -15.4023 -30
      vertex -18.2029 -13.2252 0
      vertex -18.2029 -13.2252 -30
    endloop
  endfacet
  facet normal -0.770505 -0.637434 0
    outer loop
      vertex -18.2029 -13.2252 0
      vertex -16.4018 -15.4023 -30
      vertex -16.4018 -15.4023 0
    endloop
  endfacet
endsolid OpenSCAD_Model
