solid OpenSCAD_Model
  facet normal 0.866025 -0.5 0
    outer loop
      vertex -4.84679 0 0
      vertex -2.42339 4.19745 -4
      vertex -2.42339 4.19745 0
    endloop
  endfacet
  facet normal 0.866025 -0.5 0
    outer loop
      vertex -2.42339 4.19745 -4
      vertex -4.84679 0 0
      vertex -4.84679 0 -4
    endloop
  endfacet
  facet normal 0 -1 0
    outer loop
      vertex -2.42339 4.19745 -4
      vertex 2.42339 4.19745 0
      vertex -2.42339 4.19745 0
    endloop
  endfacet
  facet normal 0 -1 -0
    outer loop
      vertex 2.42339 4.19745 0
      vertex -2.42339 4.19745 -4
      vertex 2.42339 4.19745 -4
    endloop
  endfacet
  facet normal -0.866025 -0.5 0
    outer loop
      vertex 4.84679 0 -4
      vertex 2.42339 4.19745 0
      vertex 2.42339 4.19745 -4
    endloop
  endfacet
  facet normal -0.866025 -0.5 0
    outer loop
      vertex 2.42339 4.19745 0
      vertex 4.84679 0 -4
      vertex 4.84679 0 0
    endloop
  endfacet
  facet normal 0 0 1
    outer loop
      vertex 4.84679 0 0
      vertex 12.5 0 0
      vertex 12.4014 1.56666 0
    endloop
  endfacet
  facet normal 0 0 1
    outer loop
      vertex 4.84679 0 0
      vertex 12.4014 1.56666 0
      vertex 12.1073 3.10862 0
    endloop
  endfacet
  facet normal 0 0 1
    outer loop
      vertex 12.5 0 0
      vertex 4.84679 0 0
      vertex 12.4014 -1.56666 0
    endloop
  endfacet
  facet normal 0 0 1
    outer loop
      vertex 4.84679 0 0
      vertex 12.1073 3.10862 0
      vertex 11.6222 4.60156 0
    endloop
  endfacet
  facet normal 0 0 1
    outer loop
      vertex 12.4014 -1.56666 0
      vertex 4.84679 0 0
      vertex 12.1073 -3.10862 0
    endloop
  endfacet
  facet normal 0 0 1
    outer loop
      vertex 4.84679 0 0
      vertex 11.6222 4.60156 0
      vertex 10.9538 6.02192 0
    endloop
  endfacet
  facet normal 0 0 1
    outer loop
      vertex 12.1073 -3.10862 0
      vertex 4.84679 0 0
      vertex 11.6222 -4.60156 0
    endloop
  endfacet
  facet normal 0 0 1
    outer loop
      vertex 2.42339 4.19745 0
      vertex 10.9538 6.02192 0
      vertex 10.1127 7.34731 0
    endloop
  endfacet
  facet normal 0 0 1
    outer loop
      vertex 11.6222 -4.60156 0
      vertex 4.84679 0 0
      vertex 10.9538 -6.02192 0
    endloop
  endfacet
  facet normal 0 0 1
    outer loop
      vertex 2.42339 4.19745 0
      vertex 10.1127 7.34731 0
      vertex 9.11211 8.55684 0
    endloop
  endfacet
  facet normal -0 0 1
    outer loop
      vertex 2.42339 -4.19745 0
      vertex 10.9538 -6.02192 0
      vertex 4.84679 0 0
    endloop
  endfacet
  facet normal 0 0 1
    outer loop
      vertex 2.42339 4.19745 0
      vertex 9.11211 8.55684 0
      vertex 7.9678 9.63142 0
    endloop
  endfacet
  facet normal 0 0 1
    outer loop
      vertex 10.9538 -6.02192 0
      vertex 2.42339 -4.19745 0
      vertex 10.1127 -7.34731 0
    endloop
  endfacet
  facet normal 0 0 1
    outer loop
      vertex 2.42339 4.19745 0
      vertex 7.9678 9.63142 0
      vertex 6.69783 10.5541 0
    endloop
  endfacet
  facet normal 0 0 1
    outer loop
      vertex 10.1127 -7.34731 0
      vertex 2.42339 -4.19745 0
      vertex 9.11211 -8.55684 0
    endloop
  endfacet
  facet normal 0 0 1
    outer loop
      vertex 2.42339 4.19745 0
      vertex 6.69783 10.5541 0
      vertex 5.32224 11.3103 0
    endloop
  endfacet
  facet normal 0 0 1
    outer loop
      vertex 9.11211 -8.55684 0
      vertex 2.42339 -4.19745 0
      vertex 7.9678 -9.63142 0
    endloop
  endfacet
  facet normal 0 0 1
    outer loop
      vertex 7.9678 -9.63142 0
      vertex 2.42339 -4.19745 0
      vertex 6.69783 -10.5541 0
    endloop
  endfacet
  facet normal 0 0 1
    outer loop
      vertex 2.42339 4.19745 0
      vertex 5.32224 11.3103 0
      vertex 3.86271 11.8882 0
    endloop
  endfacet
  facet normal 0 0 1
    outer loop
      vertex 10.9538 6.02192 0
      vertex 2.42339 4.19745 0
      vertex 4.84679 0 0
    endloop
  endfacet
  facet normal 0 0 1
    outer loop
      vertex 2.34227 12.2786 0
      vertex 2.42339 4.19745 0
      vertex 3.86271 11.8882 0
    endloop
  endfacet
  facet normal 0 0 1
    outer loop
      vertex 0.784881 12.4753 0
      vertex 2.42339 4.19745 0
      vertex 2.34227 12.2786 0
    endloop
  endfacet
  facet normal -0 0 1
    outer loop
      vertex -0.784881 12.4753 0
      vertex 2.42339 4.19745 0
      vertex 0.784881 12.4753 0
    endloop
  endfacet
  facet normal 0 0 1
    outer loop
      vertex -2.42339 4.19745 0
      vertex -0.784881 12.4753 0
      vertex -2.34227 12.2786 0
    endloop
  endfacet
  facet normal 0 0 1
    outer loop
      vertex -0.784881 12.4753 0
      vertex -2.42339 4.19745 0
      vertex 2.42339 4.19745 0
    endloop
  endfacet
  facet normal -0 0 1
    outer loop
      vertex -3.86271 11.8882 0
      vertex -2.42339 4.19745 0
      vertex -2.34227 12.2786 0
    endloop
  endfacet
  facet normal -0 0 1
    outer loop
      vertex -5.32224 11.3103 0
      vertex -2.42339 4.19745 0
      vertex -3.86271 11.8882 0
    endloop
  endfacet
  facet normal -0 0 1
    outer loop
      vertex -6.69783 10.5541 0
      vertex -2.42339 4.19745 0
      vertex -5.32224 11.3103 0
    endloop
  endfacet
  facet normal 0 0 1
    outer loop
      vertex 6.69783 -10.5541 0
      vertex 2.42339 -4.19745 0
      vertex 5.32224 -11.3103 0
    endloop
  endfacet
  facet normal 0 0 1
    outer loop
      vertex 5.32224 -11.3103 0
      vertex 2.42339 -4.19745 0
      vertex 3.86271 -11.8882 0
    endloop
  endfacet
  facet normal 0 0 1
    outer loop
      vertex 2.42339 -4.19745 0
      vertex 2.34227 -12.2786 0
      vertex 3.86271 -11.8882 0
    endloop
  endfacet
  facet normal 0 0 1
    outer loop
      vertex 2.42339 -4.19745 0
      vertex 0.784881 -12.4753 0
      vertex 2.34227 -12.2786 0
    endloop
  endfacet
  facet normal 0 0 1
    outer loop
      vertex 2.42339 -4.19745 0
      vertex -0.784881 -12.4753 0
      vertex 0.784881 -12.4753 0
    endloop
  endfacet
  facet normal -0 0 1
    outer loop
      vertex -2.42339 -4.19745 0
      vertex -0.784881 -12.4753 0
      vertex 2.42339 -4.19745 0
    endloop
  endfacet
  facet normal 0 0 1
    outer loop
      vertex -0.784881 -12.4753 0
      vertex -2.42339 -4.19745 0
      vertex -2.34227 -12.2786 0
    endloop
  endfacet
  facet normal 0 0 1
    outer loop
      vertex -2.42339 -4.19745 0
      vertex -3.86271 -11.8882 0
      vertex -2.34227 -12.2786 0
    endloop
  endfacet
  facet normal 0 0 1
    outer loop
      vertex -10.9538 -6.02192 0
      vertex -2.42339 -4.19745 0
      vertex -4.84679 0 0
    endloop
  endfacet
  facet normal 0 0 1
    outer loop
      vertex -2.42339 -4.19745 0
      vertex -5.32224 -11.3103 0
      vertex -3.86271 -11.8882 0
    endloop
  endfacet
  facet normal -0 0 1
    outer loop
      vertex -7.9678 9.63142 0
      vertex -2.42339 4.19745 0
      vertex -6.69783 10.5541 0
    endloop
  endfacet
  facet normal -0 0 1
    outer loop
      vertex -9.11211 8.55684 0
      vertex -2.42339 4.19745 0
      vertex -7.9678 9.63142 0
    endloop
  endfacet
  facet normal 0 0 1
    outer loop
      vertex -2.42339 -4.19745 0
      vertex -6.69783 -10.5541 0
      vertex -5.32224 -11.3103 0
    endloop
  endfacet
  facet normal -0 0 1
    outer loop
      vertex -10.1127 7.34731 0
      vertex -2.42339 4.19745 0
      vertex -9.11211 8.55684 0
    endloop
  endfacet
  facet normal 0 0 1
    outer loop
      vertex -2.42339 -4.19745 0
      vertex -7.9678 -9.63142 0
      vertex -6.69783 -10.5541 0
    endloop
  endfacet
  facet normal -0 0 1
    outer loop
      vertex -10.9538 6.02192 0
      vertex -2.42339 4.19745 0
      vertex -10.1127 7.34731 0
    endloop
  endfacet
  facet normal 0 0 1
    outer loop
      vertex -2.42339 -4.19745 0
      vertex -9.11211 -8.55684 0
      vertex -7.9678 -9.63142 0
    endloop
  endfacet
  facet normal 0 0 1
    outer loop
      vertex -2.42339 4.19745 0
      vertex -10.9538 6.02192 0
      vertex -4.84679 0 0
    endloop
  endfacet
  facet normal 0 0 1
    outer loop
      vertex -2.42339 -4.19745 0
      vertex -10.1127 -7.34731 0
      vertex -9.11211 -8.55684 0
    endloop
  endfacet
  facet normal -0 0 1
    outer loop
      vertex -11.6222 4.60156 0
      vertex -4.84679 0 0
      vertex -10.9538 6.02192 0
    endloop
  endfacet
  facet normal 0 0 1
    outer loop
      vertex -2.42339 -4.19745 0
      vertex -10.9538 -6.02192 0
      vertex -10.1127 -7.34731 0
    endloop
  endfacet
  facet normal -0 0 1
    outer loop
      vertex -12.1073 3.10862 0
      vertex -4.84679 0 0
      vertex -11.6222 4.60156 0
    endloop
  endfacet
  facet normal 0 0 1
    outer loop
      vertex -4.84679 0 0
      vertex -11.6222 -4.60156 0
      vertex -10.9538 -6.02192 0
    endloop
  endfacet
  facet normal -0 0 1
    outer loop
      vertex -12.4014 1.56666 0
      vertex -4.84679 0 0
      vertex -12.1073 3.10862 0
    endloop
  endfacet
  facet normal 0 0 1
    outer loop
      vertex -4.84679 0 0
      vertex -12.1073 -3.10862 0
      vertex -11.6222 -4.60156 0
    endloop
  endfacet
  facet normal 0 0 1
    outer loop
      vertex -12.5 0 0
      vertex -4.84679 0 0
      vertex -12.4014 1.56666 0
    endloop
  endfacet
  facet normal 0 0 1
    outer loop
      vertex -4.84679 0 0
      vertex -12.4014 -1.56666 0
      vertex -12.1073 -3.10862 0
    endloop
  endfacet
  facet normal 0 0 1
    outer loop
      vertex -4.84679 0 0
      vertex -12.5 0 0
      vertex -12.4014 -1.56666 0
    endloop
  endfacet
  facet normal -0.866025 0.5 0
    outer loop
      vertex 2.42339 -4.19745 -4
      vertex 4.84679 0 0
      vertex 4.84679 0 -4
    endloop
  endfacet
  facet normal -0.866025 0.5 0
    outer loop
      vertex 4.84679 0 0
      vertex 2.42339 -4.19745 -4
      vertex 2.42339 -4.19745 0
    endloop
  endfacet
  facet normal 0 0 1
    outer loop
      vertex 4.84679 0 -4
      vertex 2.72832 0.344666 -4
      vertex 2.75 0 -4
    endloop
  endfacet
  facet normal 0 0 1
    outer loop
      vertex 4.84679 0 -4
      vertex 2.6636 0.683897 -4
      vertex 2.72832 0.344666 -4
    endloop
  endfacet
  facet normal 0 0 1
    outer loop
      vertex 4.84679 0 -4
      vertex 2.55688 1.01234 -4
      vertex 2.6636 0.683897 -4
    endloop
  endfacet
  facet normal -0 0 1
    outer loop
      vertex 2.40984 1.32482 -4
      vertex 4.84679 0 -4
      vertex 2.42339 4.19745 -4
    endloop
  endfacet
  facet normal 0 0 1
    outer loop
      vertex 4.84679 0 -4
      vertex 2.40984 1.32482 -4
      vertex 2.55688 1.01234 -4
    endloop
  endfacet
  facet normal 0 0 1
    outer loop
      vertex 2.42339 4.19745 -4
      vertex 2.2248 1.61641 -4
      vertex 2.40984 1.32482 -4
    endloop
  endfacet
  facet normal 0 0 1
    outer loop
      vertex 2.42339 4.19745 -4
      vertex 2.00466 1.8825 -4
      vertex 2.2248 1.61641 -4
    endloop
  endfacet
  facet normal 0 0 1
    outer loop
      vertex 2.42339 4.19745 -4
      vertex 1.75292 2.11891 -4
      vertex 2.00466 1.8825 -4
    endloop
  endfacet
  facet normal 0 0 1
    outer loop
      vertex 2.42339 4.19745 -4
      vertex 1.47352 2.3219 -4
      vertex 1.75292 2.11891 -4
    endloop
  endfacet
  facet normal 0 0 1
    outer loop
      vertex 2.42339 4.19745 -4
      vertex 1.17089 2.48827 -4
      vertex 1.47352 2.3219 -4
    endloop
  endfacet
  facet normal 0 0 1
    outer loop
      vertex 2.42339 4.19745 -4
      vertex 0.849796 2.61541 -4
      vertex 1.17089 2.48827 -4
    endloop
  endfacet
  facet normal 0 0 1
    outer loop
      vertex 2.42339 4.19745 -4
      vertex 0.515298 2.70129 -4
      vertex 0.849796 2.61541 -4
    endloop
  endfacet
  facet normal 0 0 1
    outer loop
      vertex 2.42339 4.19745 -4
      vertex 0.172673 2.74457 -4
      vertex 0.515298 2.70129 -4
    endloop
  endfacet
  facet normal 0 0 1
    outer loop
      vertex 2.42339 4.19745 -4
      vertex -0.172673 2.74457 -4
      vertex 0.172673 2.74457 -4
    endloop
  endfacet
  facet normal -0 0 1
    outer loop
      vertex -2.42339 4.19745 -4
      vertex -0.172673 2.74457 -4
      vertex 2.42339 4.19745 -4
    endloop
  endfacet
  facet normal 0 0 1
    outer loop
      vertex -0.172673 2.74457 -4
      vertex -2.42339 4.19745 -4
      vertex -0.515298 2.70129 -4
    endloop
  endfacet
  facet normal 0 0 1
    outer loop
      vertex -0.515298 2.70129 -4
      vertex -2.42339 4.19745 -4
      vertex -0.849796 2.61541 -4
    endloop
  endfacet
  facet normal 0 0 1
    outer loop
      vertex -0.849796 2.61541 -4
      vertex -2.42339 4.19745 -4
      vertex -1.17089 2.48827 -4
    endloop
  endfacet
  facet normal 0 0 1
    outer loop
      vertex -2.42339 4.19745 -4
      vertex -1.47352 2.3219 -4
      vertex -1.17089 2.48827 -4
    endloop
  endfacet
  facet normal 0 0 1
    outer loop
      vertex -2.42339 4.19745 -4
      vertex -1.75292 2.11891 -4
      vertex -1.47352 2.3219 -4
    endloop
  endfacet
  facet normal 0 0 1
    outer loop
      vertex -2.42339 4.19745 -4
      vertex -2.00466 1.8825 -4
      vertex -1.75292 2.11891 -4
    endloop
  endfacet
  facet normal 0 0 1
    outer loop
      vertex -2.42339 4.19745 -4
      vertex -2.2248 1.61641 -4
      vertex -2.00466 1.8825 -4
    endloop
  endfacet
  facet normal 0 0 1
    outer loop
      vertex -2.42339 4.19745 -4
      vertex -2.40984 1.32482 -4
      vertex -2.2248 1.61641 -4
    endloop
  endfacet
  facet normal 0 0 1
    outer loop
      vertex -4.84679 0 -4
      vertex -2.40984 1.32482 -4
      vertex -2.42339 4.19745 -4
    endloop
  endfacet
  facet normal 0 0 1
    outer loop
      vertex -2.40984 1.32482 -4
      vertex -4.84679 0 -4
      vertex -2.55688 1.01234 -4
    endloop
  endfacet
  facet normal 0 0 1
    outer loop
      vertex -2.55688 1.01234 -4
      vertex -4.84679 0 -4
      vertex -2.6636 0.683897 -4
    endloop
  endfacet
  facet normal 0 0 1
    outer loop
      vertex -2.72832 0.344666 -4
      vertex -4.84679 0 -4
      vertex -2.75 0 -4
    endloop
  endfacet
  facet normal 0 0 1
    outer loop
      vertex -2.6636 0.683897 -4
      vertex -4.84679 0 -4
      vertex -2.72832 0.344666 -4
    endloop
  endfacet
  facet normal 0 0 1
    outer loop
      vertex 2.72832 -0.344666 -4
      vertex 4.84679 0 -4
      vertex 2.75 0 -4
    endloop
  endfacet
  facet normal 0 0 1
    outer loop
      vertex 2.6636 -0.683897 -4
      vertex 4.84679 0 -4
      vertex 2.72832 -0.344666 -4
    endloop
  endfacet
  facet normal 0 0 1
    outer loop
      vertex 2.55688 -1.01234 -4
      vertex 4.84679 0 -4
      vertex 2.6636 -0.683897 -4
    endloop
  endfacet
  facet normal 0 0 1
    outer loop
      vertex 2.40984 -1.32482 -4
      vertex 4.84679 0 -4
      vertex 2.55688 -1.01234 -4
    endloop
  endfacet
  facet normal 0 0 1
    outer loop
      vertex 4.84679 0 -4
      vertex 2.40984 -1.32482 -4
      vertex 2.42339 -4.19745 -4
    endloop
  endfacet
  facet normal -0 0 1
    outer loop
      vertex 2.2248 -1.61641 -4
      vertex 2.42339 -4.19745 -4
      vertex 2.40984 -1.32482 -4
    endloop
  endfacet
  facet normal -0 0 1
    outer loop
      vertex 2.00466 -1.8825 -4
      vertex 2.42339 -4.19745 -4
      vertex 2.2248 -1.61641 -4
    endloop
  endfacet
  facet normal -0 0 1
    outer loop
      vertex 1.75292 -2.11891 -4
      vertex 2.42339 -4.19745 -4
      vertex 2.00466 -1.8825 -4
    endloop
  endfacet
  facet normal -0 0 1
    outer loop
      vertex 1.47352 -2.3219 -4
      vertex 2.42339 -4.19745 -4
      vertex 1.75292 -2.11891 -4
    endloop
  endfacet
  facet normal -0 0 1
    outer loop
      vertex 1.17089 -2.48827 -4
      vertex 2.42339 -4.19745 -4
      vertex 1.47352 -2.3219 -4
    endloop
  endfacet
  facet normal -0 0 1
    outer loop
      vertex 0.849796 -2.61541 -4
      vertex 2.42339 -4.19745 -4
      vertex 1.17089 -2.48827 -4
    endloop
  endfacet
  facet normal -0 0 1
    outer loop
      vertex 0.515298 -2.70129 -4
      vertex 2.42339 -4.19745 -4
      vertex 0.849796 -2.61541 -4
    endloop
  endfacet
  facet normal -0 0 1
    outer loop
      vertex 0.172673 -2.74457 -4
      vertex 2.42339 -4.19745 -4
      vertex 0.515298 -2.70129 -4
    endloop
  endfacet
  facet normal -0 0 1
    outer loop
      vertex -0.172673 -2.74457 -4
      vertex 2.42339 -4.19745 -4
      vertex 0.172673 -2.74457 -4
    endloop
  endfacet
  facet normal 0 0 1
    outer loop
      vertex -2.42339 -4.19745 -4
      vertex -0.172673 -2.74457 -4
      vertex -0.515298 -2.70129 -4
    endloop
  endfacet
  facet normal 0 0 1
    outer loop
      vertex -2.42339 -4.19745 -4
      vertex -0.515298 -2.70129 -4
      vertex -0.849796 -2.61541 -4
    endloop
  endfacet
  facet normal 0 0 1
    outer loop
      vertex -2.42339 -4.19745 -4
      vertex -0.849796 -2.61541 -4
      vertex -1.17089 -2.48827 -4
    endloop
  endfacet
  facet normal 0 0 1
    outer loop
      vertex -0.172673 -2.74457 -4
      vertex -2.42339 -4.19745 -4
      vertex 2.42339 -4.19745 -4
    endloop
  endfacet
  facet normal 0 0 1
    outer loop
      vertex -1.47352 -2.3219 -4
      vertex -2.42339 -4.19745 -4
      vertex -1.17089 -2.48827 -4
    endloop
  endfacet
  facet normal 0 0 1
    outer loop
      vertex -1.75292 -2.11891 -4
      vertex -2.42339 -4.19745 -4
      vertex -1.47352 -2.3219 -4
    endloop
  endfacet
  facet normal 0 0 1
    outer loop
      vertex -2.00466 -1.8825 -4
      vertex -2.42339 -4.19745 -4
      vertex -1.75292 -2.11891 -4
    endloop
  endfacet
  facet normal 0 0 1
    outer loop
      vertex -2.2248 -1.61641 -4
      vertex -2.42339 -4.19745 -4
      vertex -2.00466 -1.8825 -4
    endloop
  endfacet
  facet normal 0 0 1
    outer loop
      vertex -2.40984 -1.32482 -4
      vertex -2.42339 -4.19745 -4
      vertex -2.2248 -1.61641 -4
    endloop
  endfacet
  facet normal 0 0 1
    outer loop
      vertex -4.84679 0 -4
      vertex -2.40984 -1.32482 -4
      vertex -2.55688 -1.01234 -4
    endloop
  endfacet
  facet normal 0 0 1
    outer loop
      vertex -4.84679 0 -4
      vertex -2.55688 -1.01234 -4
      vertex -2.6636 -0.683897 -4
    endloop
  endfacet
  facet normal 0 0 1
    outer loop
      vertex -4.84679 0 -4
      vertex -2.6636 -0.683897 -4
      vertex -2.72832 -0.344666 -4
    endloop
  endfacet
  facet normal 0 0 1
    outer loop
      vertex -2.40984 -1.32482 -4
      vertex -4.84679 0 -4
      vertex -2.42339 -4.19745 -4
    endloop
  endfacet
  facet normal -0 0 1
    outer loop
      vertex -4.84679 0 -4
      vertex -2.72832 -0.344666 -4
      vertex -2.75 0 -4
    endloop
  endfacet
  facet normal 0.866025 0.5 0
    outer loop
      vertex -2.42339 -4.19745 0
      vertex -4.84679 0 -4
      vertex -4.84679 0 0
    endloop
  endfacet
  facet normal 0.866025 0.5 0
    outer loop
      vertex -4.84679 0 -4
      vertex -2.42339 -4.19745 0
      vertex -2.42339 -4.19745 -4
    endloop
  endfacet
  facet normal 0 1 -0
    outer loop
      vertex 2.42339 -4.19745 -4
      vertex -2.42339 -4.19745 0
      vertex 2.42339 -4.19745 0
    endloop
  endfacet
  facet normal 0 1 0
    outer loop
      vertex -2.42339 -4.19745 0
      vertex 2.42339 -4.19745 -4
      vertex -2.42339 -4.19745 -4
    endloop
  endfacet
  facet normal -0.998028 -0.0627774 0
    outer loop
      vertex 2.75 0 -31.5
      vertex 2.72832 0.344666 -4
      vertex 2.72832 0.344666 -31.5
    endloop
  endfacet
  facet normal -0.998028 -0.0627774 0
    outer loop
      vertex 2.72832 0.344666 -4
      vertex 2.75 0 -31.5
      vertex 2.75 0 -4
    endloop
  endfacet
  facet normal 0.998028 -0.0627774 0
    outer loop
      vertex -2.75 0 -4
      vertex -2.72832 0.344666 -31.5
      vertex -2.72832 0.344666 -4
    endloop
  endfacet
  facet normal 0.998028 -0.0627774 0
    outer loop
      vertex -2.72832 0.344666 -31.5
      vertex -2.75 0 -4
      vertex -2.75 0 -31.5
    endloop
  endfacet
  facet normal 0 -1 0
    outer loop
      vertex -0.172673 2.74457 -31.5
      vertex 0.172673 2.74457 -4
      vertex -0.172673 2.74457 -4
    endloop
  endfacet
  facet normal 0 -1 -0
    outer loop
      vertex 0.172673 2.74457 -4
      vertex -0.172673 2.74457 -31.5
      vertex 0.172673 2.74457 -31.5
    endloop
  endfacet
  facet normal 0 1 -0
    outer loop
      vertex 0.172673 -2.74457 -31.5
      vertex -0.172673 -2.74457 -4
      vertex 0.172673 -2.74457 -4
    endloop
  endfacet
  facet normal 0 1 0
    outer loop
      vertex -0.172673 -2.74457 -4
      vertex 0.172673 -2.74457 -31.5
      vertex -0.172673 -2.74457 -31.5
    endloop
  endfacet
  facet normal -0.684563 -0.728954 0
    outer loop
      vertex 1.75292 2.11891 -31.5
      vertex 2.00466 1.8825 -4
      vertex 1.75292 2.11891 -4
    endloop
  endfacet
  facet normal -0.684563 -0.728954 -0
    outer loop
      vertex 2.00466 1.8825 -4
      vertex 1.75292 2.11891 -31.5
      vertex 2.00466 1.8825 -31.5
    endloop
  endfacet
  facet normal 0.684563 -0.728954 0
    outer loop
      vertex -2.00466 1.8825 -31.5
      vertex -1.75292 2.11891 -4
      vertex -2.00466 1.8825 -4
    endloop
  endfacet
  facet normal 0.684563 -0.728954 0
    outer loop
      vertex -1.75292 2.11891 -4
      vertex -2.00466 1.8825 -31.5
      vertex -1.75292 2.11891 -31.5
    endloop
  endfacet
  facet normal 0.368149 -0.929767 0
    outer loop
      vertex -1.17089 2.48827 -31.5
      vertex -0.849796 2.61541 -4
      vertex -1.17089 2.48827 -4
    endloop
  endfacet
  facet normal 0.368149 -0.929767 0
    outer loop
      vertex -0.849796 2.61541 -4
      vertex -1.17089 2.48827 -31.5
      vertex -0.849796 2.61541 -31.5
    endloop
  endfacet
  facet normal -0.904829 0.425775 0
    outer loop
      vertex 2.40984 -1.32482 -31.5
      vertex 2.55688 -1.01234 -4
      vertex 2.55688 -1.01234 -31.5
    endloop
  endfacet
  facet normal -0.904829 0.425775 0
    outer loop
      vertex 2.55688 -1.01234 -4
      vertex 2.40984 -1.32482 -31.5
      vertex 2.40984 -1.32482 -4
    endloop
  endfacet
  facet normal -0.904829 -0.425775 0
    outer loop
      vertex 2.55688 1.01234 -31.5
      vertex 2.40984 1.32482 -4
      vertex 2.40984 1.32482 -31.5
    endloop
  endfacet
  facet normal -0.904829 -0.425775 0
    outer loop
      vertex 2.40984 1.32482 -4
      vertex 2.55688 1.01234 -31.5
      vertex 2.55688 1.01234 -4
    endloop
  endfacet
  facet normal -0.368149 -0.929767 0
    outer loop
      vertex 0.849796 2.61541 -31.5
      vertex 1.17089 2.48827 -4
      vertex 0.849796 2.61541 -4
    endloop
  endfacet
  facet normal -0.368149 -0.929767 -0
    outer loop
      vertex 1.17089 2.48827 -4
      vertex 0.849796 2.61541 -31.5
      vertex 1.17089 2.48827 -31.5
    endloop
  endfacet
  facet normal -0.587774 -0.809025 0
    outer loop
      vertex 1.47352 2.3219 -31.5
      vertex 1.75292 2.11891 -4
      vertex 1.47352 2.3219 -4
    endloop
  endfacet
  facet normal -0.587774 -0.809025 -0
    outer loop
      vertex 1.75292 2.11891 -4
      vertex 1.47352 2.3219 -31.5
      vertex 1.75292 2.11891 -31.5
    endloop
  endfacet
  facet normal 0.904829 -0.425775 0
    outer loop
      vertex -2.55688 1.01234 -4
      vertex -2.40984 1.32482 -31.5
      vertex -2.40984 1.32482 -4
    endloop
  endfacet
  facet normal 0.904829 -0.425775 0
    outer loop
      vertex -2.40984 1.32482 -31.5
      vertex -2.55688 1.01234 -4
      vertex -2.55688 1.01234 -31.5
    endloop
  endfacet
  facet normal 0.770497 -0.637443 0
    outer loop
      vertex -2.2248 1.61641 -4
      vertex -2.00466 1.8825 -31.5
      vertex -2.00466 1.8825 -4
    endloop
  endfacet
  facet normal 0.770497 -0.637443 0
    outer loop
      vertex -2.00466 1.8825 -31.5
      vertex -2.2248 1.61641 -4
      vertex -2.2248 1.61641 -31.5
    endloop
  endfacet
  facet normal 0.481749 -0.876309 0
    outer loop
      vertex -1.47352 2.3219 -31.5
      vertex -1.17089 2.48827 -4
      vertex -1.47352 2.3219 -4
    endloop
  endfacet
  facet normal 0.481749 -0.876309 0
    outer loop
      vertex -1.17089 2.48827 -4
      vertex -1.47352 2.3219 -31.5
      vertex -1.17089 2.48827 -31.5
    endloop
  endfacet
  facet normal 0.248678 -0.968586 0
    outer loop
      vertex -0.849796 2.61541 -31.5
      vertex -0.515298 2.70129 -4
      vertex -0.849796 2.61541 -4
    endloop
  endfacet
  facet normal 0.248678 -0.968586 0
    outer loop
      vertex -0.515298 2.70129 -4
      vertex -0.849796 2.61541 -31.5
      vertex -0.515298 2.70129 -31.5
    endloop
  endfacet
  facet normal -0.368149 0.929767 0
    outer loop
      vertex 1.17089 -2.48827 -31.5
      vertex 0.849796 -2.61541 -4
      vertex 1.17089 -2.48827 -4
    endloop
  endfacet
  facet normal -0.368149 0.929767 0
    outer loop
      vertex 0.849796 -2.61541 -4
      vertex 1.17089 -2.48827 -31.5
      vertex 0.849796 -2.61541 -31.5
    endloop
  endfacet
  facet normal -0.951054 -0.309023 0
    outer loop
      vertex 2.6636 0.683897 -31.5
      vertex 2.55688 1.01234 -4
      vertex 2.55688 1.01234 -31.5
    endloop
  endfacet
  facet normal -0.951054 -0.309023 0
    outer loop
      vertex 2.55688 1.01234 -4
      vertex 2.6636 0.683897 -31.5
      vertex 2.6636 0.683897 -4
    endloop
  endfacet
  facet normal -0.982283 -0.187404 0
    outer loop
      vertex 2.72832 0.344666 -31.5
      vertex 2.6636 0.683897 -4
      vertex 2.6636 0.683897 -31.5
    endloop
  endfacet
  facet normal -0.982283 -0.187404 0
    outer loop
      vertex 2.6636 0.683897 -4
      vertex 2.72832 0.344666 -31.5
      vertex 2.72832 0.344666 -4
    endloop
  endfacet
  facet normal -0.770497 -0.637443 0
    outer loop
      vertex 2.2248 1.61641 -31.5
      vertex 2.00466 1.8825 -4
      vertex 2.00466 1.8825 -31.5
    endloop
  endfacet
  facet normal -0.770497 -0.637443 0
    outer loop
      vertex 2.00466 1.8825 -4
      vertex 2.2248 1.61641 -31.5
      vertex 2.2248 1.61641 -4
    endloop
  endfacet
  facet normal -0.844339 -0.535809 0
    outer loop
      vertex 2.40984 1.32482 -31.5
      vertex 2.2248 1.61641 -4
      vertex 2.2248 1.61641 -31.5
    endloop
  endfacet
  facet normal -0.844339 -0.535809 0
    outer loop
      vertex 2.2248 1.61641 -4
      vertex 2.40984 1.32482 -31.5
      vertex 2.40984 1.32482 -4
    endloop
  endfacet
  facet normal -0.248678 -0.968586 0
    outer loop
      vertex 0.515298 2.70129 -31.5
      vertex 0.849796 2.61541 -4
      vertex 0.515298 2.70129 -4
    endloop
  endfacet
  facet normal -0.248678 -0.968586 -0
    outer loop
      vertex 0.849796 2.61541 -4
      vertex 0.515298 2.70129 -31.5
      vertex 0.849796 2.61541 -31.5
    endloop
  endfacet
  facet normal -0.125323 -0.992116 0
    outer loop
      vertex 0.172673 2.74457 -31.5
      vertex 0.515298 2.70129 -4
      vertex 0.172673 2.74457 -4
    endloop
  endfacet
  facet normal -0.125323 -0.992116 -0
    outer loop
      vertex 0.515298 2.70129 -4
      vertex 0.172673 2.74457 -31.5
      vertex 0.515298 2.70129 -31.5
    endloop
  endfacet
  facet normal -0.481749 -0.876309 0
    outer loop
      vertex 1.17089 2.48827 -31.5
      vertex 1.47352 2.3219 -4
      vertex 1.17089 2.48827 -4
    endloop
  endfacet
  facet normal -0.481749 -0.876309 -0
    outer loop
      vertex 1.47352 2.3219 -4
      vertex 1.17089 2.48827 -31.5
      vertex 1.47352 2.3219 -31.5
    endloop
  endfacet
  facet normal 0.844339 -0.535809 0
    outer loop
      vertex -2.40984 1.32482 -4
      vertex -2.2248 1.61641 -31.5
      vertex -2.2248 1.61641 -4
    endloop
  endfacet
  facet normal 0.844339 -0.535809 0
    outer loop
      vertex -2.2248 1.61641 -31.5
      vertex -2.40984 1.32482 -4
      vertex -2.40984 1.32482 -31.5
    endloop
  endfacet
  facet normal 0.951054 -0.309023 0
    outer loop
      vertex -2.6636 0.683897 -4
      vertex -2.55688 1.01234 -31.5
      vertex -2.55688 1.01234 -4
    endloop
  endfacet
  facet normal 0.951054 -0.309023 0
    outer loop
      vertex -2.55688 1.01234 -31.5
      vertex -2.6636 0.683897 -4
      vertex -2.6636 0.683897 -31.5
    endloop
  endfacet
  facet normal 0.982283 -0.187404 0
    outer loop
      vertex -2.72832 0.344666 -4
      vertex -2.6636 0.683897 -31.5
      vertex -2.6636 0.683897 -4
    endloop
  endfacet
  facet normal 0.982283 -0.187404 0
    outer loop
      vertex -2.6636 0.683897 -31.5
      vertex -2.72832 0.344666 -4
      vertex -2.72832 0.344666 -31.5
    endloop
  endfacet
  facet normal 0.587774 -0.809025 0
    outer loop
      vertex -1.75292 2.11891 -31.5
      vertex -1.47352 2.3219 -4
      vertex -1.75292 2.11891 -4
    endloop
  endfacet
  facet normal 0.587774 -0.809025 0
    outer loop
      vertex -1.47352 2.3219 -4
      vertex -1.75292 2.11891 -31.5
      vertex -1.47352 2.3219 -31.5
    endloop
  endfacet
  facet normal 0.125323 -0.992116 0
    outer loop
      vertex -0.515298 2.70129 -31.5
      vertex -0.172673 2.74457 -4
      vertex -0.515298 2.70129 -4
    endloop
  endfacet
  facet normal 0.125323 -0.992116 0
    outer loop
      vertex -0.172673 2.74457 -4
      vertex -0.515298 2.70129 -31.5
      vertex -0.172673 2.74457 -31.5
    endloop
  endfacet
  facet normal -0.998028 0.0627774 0
    outer loop
      vertex 2.72832 -0.344666 -31.5
      vertex 2.75 0 -4
      vertex 2.75 0 -31.5
    endloop
  endfacet
  facet normal -0.998028 0.0627774 0
    outer loop
      vertex 2.75 0 -4
      vertex 2.72832 -0.344666 -31.5
      vertex 2.72832 -0.344666 -4
    endloop
  endfacet
  facet normal -0.770497 0.637443 0
    outer loop
      vertex 2.00466 -1.8825 -31.5
      vertex 2.2248 -1.61641 -4
      vertex 2.2248 -1.61641 -31.5
    endloop
  endfacet
  facet normal -0.770497 0.637443 0
    outer loop
      vertex 2.2248 -1.61641 -4
      vertex 2.00466 -1.8825 -31.5
      vertex 2.00466 -1.8825 -4
    endloop
  endfacet
  facet normal 0.684563 0.728954 -0
    outer loop
      vertex -1.75292 -2.11891 -31.5
      vertex -2.00466 -1.8825 -4
      vertex -1.75292 -2.11891 -4
    endloop
  endfacet
  facet normal 0.684563 0.728954 0
    outer loop
      vertex -2.00466 -1.8825 -4
      vertex -1.75292 -2.11891 -31.5
      vertex -2.00466 -1.8825 -31.5
    endloop
  endfacet
  facet normal 0.904829 0.425775 0
    outer loop
      vertex -2.40984 -1.32482 -4
      vertex -2.55688 -1.01234 -31.5
      vertex -2.55688 -1.01234 -4
    endloop
  endfacet
  facet normal 0.904829 0.425775 0
    outer loop
      vertex -2.55688 -1.01234 -31.5
      vertex -2.40984 -1.32482 -4
      vertex -2.40984 -1.32482 -31.5
    endloop
  endfacet
  facet normal 0.770497 0.637443 0
    outer loop
      vertex -2.00466 -1.8825 -4
      vertex -2.2248 -1.61641 -31.5
      vertex -2.2248 -1.61641 -4
    endloop
  endfacet
  facet normal 0.770497 0.637443 0
    outer loop
      vertex -2.2248 -1.61641 -31.5
      vertex -2.00466 -1.8825 -4
      vertex -2.00466 -1.8825 -31.5
    endloop
  endfacet
  facet normal -0.481749 0.876309 0
    outer loop
      vertex 1.47352 -2.3219 -31.5
      vertex 1.17089 -2.48827 -4
      vertex 1.47352 -2.3219 -4
    endloop
  endfacet
  facet normal -0.481749 0.876309 0
    outer loop
      vertex 1.17089 -2.48827 -4
      vertex 1.47352 -2.3219 -31.5
      vertex 1.17089 -2.48827 -31.5
    endloop
  endfacet
  facet normal -0.951054 0.309023 0
    outer loop
      vertex 2.55688 -1.01234 -31.5
      vertex 2.6636 -0.683897 -4
      vertex 2.6636 -0.683897 -31.5
    endloop
  endfacet
  facet normal -0.951054 0.309023 0
    outer loop
      vertex 2.6636 -0.683897 -4
      vertex 2.55688 -1.01234 -31.5
      vertex 2.55688 -1.01234 -4
    endloop
  endfacet
  facet normal -0.844339 0.535809 0
    outer loop
      vertex 2.2248 -1.61641 -31.5
      vertex 2.40984 -1.32482 -4
      vertex 2.40984 -1.32482 -31.5
    endloop
  endfacet
  facet normal -0.844339 0.535809 0
    outer loop
      vertex 2.40984 -1.32482 -4
      vertex 2.2248 -1.61641 -31.5
      vertex 2.2248 -1.61641 -4
    endloop
  endfacet
  facet normal 0.982283 0.187404 0
    outer loop
      vertex -2.6636 -0.683897 -4
      vertex -2.72832 -0.344666 -31.5
      vertex -2.72832 -0.344666 -4
    endloop
  endfacet
  facet normal 0.982283 0.187404 0
    outer loop
      vertex -2.72832 -0.344666 -31.5
      vertex -2.6636 -0.683897 -4
      vertex -2.6636 -0.683897 -31.5
    endloop
  endfacet
  facet normal 0.998028 0.0627774 0
    outer loop
      vertex -2.72832 -0.344666 -4
      vertex -2.75 0 -31.5
      vertex -2.75 0 -4
    endloop
  endfacet
  facet normal 0.998028 0.0627774 0
    outer loop
      vertex -2.75 0 -31.5
      vertex -2.72832 -0.344666 -4
      vertex -2.72832 -0.344666 -31.5
    endloop
  endfacet
  facet normal 0.951054 0.309023 0
    outer loop
      vertex -2.55688 -1.01234 -4
      vertex -2.6636 -0.683897 -31.5
      vertex -2.6636 -0.683897 -4
    endloop
  endfacet
  facet normal 0.951054 0.309023 0
    outer loop
      vertex -2.6636 -0.683897 -31.5
      vertex -2.55688 -1.01234 -4
      vertex -2.55688 -1.01234 -31.5
    endloop
  endfacet
  facet normal -0.587774 0.809025 0
    outer loop
      vertex 1.75292 -2.11891 -31.5
      vertex 1.47352 -2.3219 -4
      vertex 1.75292 -2.11891 -4
    endloop
  endfacet
  facet normal -0.587774 0.809025 0
    outer loop
      vertex 1.47352 -2.3219 -4
      vertex 1.75292 -2.11891 -31.5
      vertex 1.47352 -2.3219 -31.5
    endloop
  endfacet
  facet normal -0.248678 0.968586 0
    outer loop
      vertex 0.849796 -2.61541 -31.5
      vertex 0.515298 -2.70129 -4
      vertex 0.849796 -2.61541 -4
    endloop
  endfacet
  facet normal -0.248678 0.968586 0
    outer loop
      vertex 0.515298 -2.70129 -4
      vertex 0.849796 -2.61541 -31.5
      vertex 0.515298 -2.70129 -31.5
    endloop
  endfacet
  facet normal -0.125323 0.992116 0
    outer loop
      vertex 0.515298 -2.70129 -31.5
      vertex 0.172673 -2.74457 -4
      vertex 0.515298 -2.70129 -4
    endloop
  endfacet
  facet normal -0.125323 0.992116 0
    outer loop
      vertex 0.172673 -2.74457 -4
      vertex 0.515298 -2.70129 -31.5
      vertex 0.172673 -2.74457 -31.5
    endloop
  endfacet
  facet normal -0.982283 0.187404 0
    outer loop
      vertex 2.6636 -0.683897 -31.5
      vertex 2.72832 -0.344666 -4
      vertex 2.72832 -0.344666 -31.5
    endloop
  endfacet
  facet normal -0.982283 0.187404 0
    outer loop
      vertex 2.72832 -0.344666 -4
      vertex 2.6636 -0.683897 -31.5
      vertex 2.6636 -0.683897 -4
    endloop
  endfacet
  facet normal 0.125323 0.992116 -0
    outer loop
      vertex -0.172673 -2.74457 -31.5
      vertex -0.515298 -2.70129 -4
      vertex -0.172673 -2.74457 -4
    endloop
  endfacet
  facet normal 0.125323 0.992116 0
    outer loop
      vertex -0.515298 -2.70129 -4
      vertex -0.172673 -2.74457 -31.5
      vertex -0.515298 -2.70129 -31.5
    endloop
  endfacet
  facet normal 0.368149 0.929767 -0
    outer loop
      vertex -0.849796 -2.61541 -31.5
      vertex -1.17089 -2.48827 -4
      vertex -0.849796 -2.61541 -4
    endloop
  endfacet
  facet normal 0.368149 0.929767 0
    outer loop
      vertex -1.17089 -2.48827 -4
      vertex -0.849796 -2.61541 -31.5
      vertex -1.17089 -2.48827 -31.5
    endloop
  endfacet
  facet normal 0.248678 0.968586 -0
    outer loop
      vertex -0.515298 -2.70129 -31.5
      vertex -0.849796 -2.61541 -4
      vertex -0.515298 -2.70129 -4
    endloop
  endfacet
  facet normal 0.248678 0.968586 0
    outer loop
      vertex -0.849796 -2.61541 -4
      vertex -0.515298 -2.70129 -31.5
      vertex -0.849796 -2.61541 -31.5
    endloop
  endfacet
  facet normal 0.844339 0.535809 0
    outer loop
      vertex -2.2248 -1.61641 -4
      vertex -2.40984 -1.32482 -31.5
      vertex -2.40984 -1.32482 -4
    endloop
  endfacet
  facet normal 0.844339 0.535809 0
    outer loop
      vertex -2.40984 -1.32482 -31.5
      vertex -2.2248 -1.61641 -4
      vertex -2.2248 -1.61641 -31.5
    endloop
  endfacet
  facet normal -0.684563 0.728954 0
    outer loop
      vertex 2.00466 -1.8825 -31.5
      vertex 1.75292 -2.11891 -4
      vertex 2.00466 -1.8825 -4
    endloop
  endfacet
  facet normal -0.684563 0.728954 0
    outer loop
      vertex 1.75292 -2.11891 -4
      vertex 2.00466 -1.8825 -31.5
      vertex 1.75292 -2.11891 -31.5
    endloop
  endfacet
  facet normal 0.481749 0.876309 -0
    outer loop
      vertex -1.17089 -2.48827 -31.5
      vertex -1.47352 -2.3219 -4
      vertex -1.17089 -2.48827 -4
    endloop
  endfacet
  facet normal 0.481749 0.876309 0
    outer loop
      vertex -1.47352 -2.3219 -4
      vertex -1.17089 -2.48827 -31.5
      vertex -1.47352 -2.3219 -31.5
    endloop
  endfacet
  facet normal 0.587774 0.809025 -0
    outer loop
      vertex -1.47352 -2.3219 -31.5
      vertex -1.75292 -2.11891 -4
      vertex -1.47352 -2.3219 -4
    endloop
  endfacet
  facet normal 0.587774 0.809025 0
    outer loop
      vertex -1.75292 -2.11891 -4
      vertex -1.47352 -2.3219 -31.5
      vertex -1.75292 -2.11891 -31.5
    endloop
  endfacet
  facet normal 0.998025 0.0628122 0
    outer loop
      vertex 12.5 0 0
      vertex 12.4014 1.56666 -31.5
      vertex 12.4014 1.56666 0
    endloop
  endfacet
  facet normal 0.998025 0.0628122 0
    outer loop
      vertex 12.4014 1.56666 -31.5
      vertex 12.5 0 0
      vertex 12.5 0 -31.5
    endloop
  endfacet
  facet normal -0.998025 0.0628122 0
    outer loop
      vertex -12.5 0 -31.5
      vertex -12.4014 1.56666 0
      vertex -12.4014 1.56666 -31.5
    endloop
  endfacet
  facet normal -0.998025 0.0628122 0
    outer loop
      vertex -12.4014 1.56666 0
      vertex -12.5 0 -31.5
      vertex -12.5 0 0
    endloop
  endfacet
  facet normal 0 1 -0
    outer loop
      vertex 0.784881 12.4753 -31.5
      vertex -0.784881 12.4753 0
      vertex 0.784881 12.4753 0
    endloop
  endfacet
  facet normal 0 1 0
    outer loop
      vertex -0.784881 12.4753 0
      vertex 0.784881 12.4753 -31.5
      vertex -0.784881 12.4753 -31.5
    endloop
  endfacet
  facet normal 0 -1 0
    outer loop
      vertex -0.784881 -12.4753 -31.5
      vertex 0.784881 -12.4753 0
      vertex -0.784881 -12.4753 0
    endloop
  endfacet
  facet normal 0 -1 -0
    outer loop
      vertex 0.784881 -12.4753 0
      vertex -0.784881 -12.4753 -31.5
      vertex 0.784881 -12.4753 -31.5
    endloop
  endfacet
  facet normal 0.684548 0.728968 -0
    outer loop
      vertex 9.11211 8.55684 -31.5
      vertex 7.9678 9.63142 0
      vertex 9.11211 8.55684 0
    endloop
  endfacet
  facet normal 0.684548 0.728968 0
    outer loop
      vertex 7.9678 9.63142 0
      vertex 9.11211 8.55684 -31.5
      vertex 7.9678 9.63142 -31.5
    endloop
  endfacet
  facet normal -0.684548 0.728968 0
    outer loop
      vertex -7.9678 9.63142 -31.5
      vertex -9.11211 8.55684 0
      vertex -7.9678 9.63142 0
    endloop
  endfacet
  facet normal -0.684548 0.728968 0
    outer loop
      vertex -9.11211 8.55684 0
      vertex -7.9678 9.63142 -31.5
      vertex -9.11211 8.55684 -31.5
    endloop
  endfacet
  facet normal -0.368142 0.92977 0
    outer loop
      vertex -3.86271 11.8882 -31.5
      vertex -5.32224 11.3103 0
      vertex -3.86271 11.8882 0
    endloop
  endfacet
  facet normal -0.368142 0.92977 0
    outer loop
      vertex -5.32224 11.3103 0
      vertex -3.86271 11.8882 -31.5
      vertex -5.32224 11.3103 -31.5
    endloop
  endfacet
  facet normal 0.90482 0.425795 0
    outer loop
      vertex 11.6222 4.60156 0
      vertex 10.9538 6.02192 -31.5
      vertex 10.9538 6.02192 0
    endloop
  endfacet
  facet normal 0.90482 0.425795 0
    outer loop
      vertex 10.9538 6.02192 -31.5
      vertex 11.6222 4.60156 0
      vertex 11.6222 4.60156 -31.5
    endloop
  endfacet
  facet normal 0.982292 0.187354 0
    outer loop
      vertex 12.4014 1.56666 0
      vertex 12.1073 3.10862 -31.5
      vertex 12.1073 3.10862 0
    endloop
  endfacet
  facet normal 0.982292 0.187354 0
    outer loop
      vertex 12.1073 3.10862 -31.5
      vertex 12.4014 1.56666 0
      vertex 12.4014 1.56666 -31.5
    endloop
  endfacet
  facet normal 0.844333 0.535819 0
    outer loop
      vertex 10.9538 6.02192 0
      vertex 10.1127 7.34731 -31.5
      vertex 10.1127 7.34731 0
    endloop
  endfacet
  facet normal 0.844333 0.535819 0
    outer loop
      vertex 10.1127 7.34731 -31.5
      vertex 10.9538 6.02192 0
      vertex 10.9538 6.02192 -31.5
    endloop
  endfacet
  facet normal 0.368142 0.92977 -0
    outer loop
      vertex 5.32224 11.3103 -31.5
      vertex 3.86271 11.8882 0
      vertex 5.32224 11.3103 0
    endloop
  endfacet
  facet normal 0.368142 0.92977 0
    outer loop
      vertex 3.86271 11.8882 0
      vertex 5.32224 11.3103 -31.5
      vertex 3.86271 11.8882 -31.5
    endloop
  endfacet
  facet normal 0.2487 0.96858 -0
    outer loop
      vertex 3.86271 11.8882 -31.5
      vertex 2.34227 12.2786 0
      vertex 3.86271 11.8882 0
    endloop
  endfacet
  facet normal 0.2487 0.96858 0
    outer loop
      vertex 2.34227 12.2786 0
      vertex 3.86271 11.8882 -31.5
      vertex 2.34227 12.2786 -31.5
    endloop
  endfacet
  facet normal 0.481736 0.876317 -0
    outer loop
      vertex 6.69783 10.5541 -31.5
      vertex 5.32224 11.3103 0
      vertex 6.69783 10.5541 0
    endloop
  endfacet
  facet normal 0.481736 0.876317 0
    outer loop
      vertex 5.32224 11.3103 0
      vertex 6.69783 10.5541 -31.5
      vertex 5.32224 11.3103 -31.5
    endloop
  endfacet
  facet normal -0.844333 0.535819 0
    outer loop
      vertex -10.9538 6.02192 -31.5
      vertex -10.1127 7.34731 0
      vertex -10.1127 7.34731 -31.5
    endloop
  endfacet
  facet normal -0.844333 0.535819 0
    outer loop
      vertex -10.1127 7.34731 0
      vertex -10.9538 6.02192 -31.5
      vertex -10.9538 6.02192 0
    endloop
  endfacet
  facet normal -0.77052 0.637416 0
    outer loop
      vertex -10.1127 7.34731 -31.5
      vertex -9.11211 8.55684 0
      vertex -9.11211 8.55684 -31.5
    endloop
  endfacet
  facet normal -0.77052 0.637416 0
    outer loop
      vertex -9.11211 8.55684 0
      vertex -10.1127 7.34731 -31.5
      vertex -10.1127 7.34731 0
    endloop
  endfacet
  facet normal -0.951054 0.309025 0
    outer loop
      vertex -12.1073 3.10862 -31.5
      vertex -11.6222 4.60156 0
      vertex -11.6222 4.60156 -31.5
    endloop
  endfacet
  facet normal -0.951054 0.309025 0
    outer loop
      vertex -11.6222 4.60156 0
      vertex -12.1073 3.10862 -31.5
      vertex -12.1073 3.10862 0
    endloop
  endfacet
  facet normal -0.587782 0.809019 0
    outer loop
      vertex -6.69783 10.5541 -31.5
      vertex -7.9678 9.63142 0
      vertex -6.69783 10.5541 0
    endloop
  endfacet
  facet normal -0.587782 0.809019 0
    outer loop
      vertex -7.9678 9.63142 0
      vertex -6.69783 10.5541 -31.5
      vertex -7.9678 9.63142 -31.5
    endloop
  endfacet
  facet normal -0.125306 0.992118 0
    outer loop
      vertex -0.784881 12.4753 -31.5
      vertex -2.34227 12.2786 0
      vertex -0.784881 12.4753 0
    endloop
  endfacet
  facet normal -0.125306 0.992118 0
    outer loop
      vertex -2.34227 12.2786 0
      vertex -0.784881 12.4753 -31.5
      vertex -2.34227 12.2786 -31.5
    endloop
  endfacet
  facet normal 0.951054 -0.309025 0
    outer loop
      vertex 11.6222 -4.60156 0
      vertex 12.1073 -3.10862 -31.5
      vertex 12.1073 -3.10862 0
    endloop
  endfacet
  facet normal 0.951054 -0.309025 0
    outer loop
      vertex 12.1073 -3.10862 -31.5
      vertex 11.6222 -4.60156 0
      vertex 11.6222 -4.60156 -31.5
    endloop
  endfacet
  facet normal 0.125306 -0.992118 0
    outer loop
      vertex 0.784881 -12.4753 -31.5
      vertex 2.34227 -12.2786 0
      vertex 0.784881 -12.4753 0
    endloop
  endfacet
  facet normal 0.125306 -0.992118 0
    outer loop
      vertex 2.34227 -12.2786 0
      vertex 0.784881 -12.4753 -31.5
      vertex 2.34227 -12.2786 -31.5
    endloop
  endfacet
  facet normal 0.951054 0.309025 0
    outer loop
      vertex 12.1073 3.10862 0
      vertex 11.6222 4.60156 -31.5
      vertex 11.6222 4.60156 0
    endloop
  endfacet
  facet normal 0.951054 0.309025 0
    outer loop
      vertex 11.6222 4.60156 -31.5
      vertex 12.1073 3.10862 0
      vertex 12.1073 3.10862 -31.5
    endloop
  endfacet
  facet normal 0.77052 0.637416 0
    outer loop
      vertex 10.1127 7.34731 0
      vertex 9.11211 8.55684 -31.5
      vertex 9.11211 8.55684 0
    endloop
  endfacet
  facet normal 0.77052 0.637416 0
    outer loop
      vertex 9.11211 8.55684 -31.5
      vertex 10.1127 7.34731 0
      vertex 10.1127 7.34731 -31.5
    endloop
  endfacet
  facet normal 0.125306 0.992118 -0
    outer loop
      vertex 2.34227 12.2786 -31.5
      vertex 0.784881 12.4753 0
      vertex 2.34227 12.2786 0
    endloop
  endfacet
  facet normal 0.125306 0.992118 0
    outer loop
      vertex 0.784881 12.4753 0
      vertex 2.34227 12.2786 -31.5
      vertex 0.784881 12.4753 -31.5
    endloop
  endfacet
  facet normal 0.587782 0.809019 -0
    outer loop
      vertex 7.9678 9.63142 -31.5
      vertex 6.69783 10.5541 0
      vertex 7.9678 9.63142 0
    endloop
  endfacet
  facet normal 0.587782 0.809019 0
    outer loop
      vertex 6.69783 10.5541 0
      vertex 7.9678 9.63142 -31.5
      vertex 6.69783 10.5541 -31.5
    endloop
  endfacet
  facet normal -0.90482 0.425795 0
    outer loop
      vertex -11.6222 4.60156 -31.5
      vertex -10.9538 6.02192 0
      vertex -10.9538 6.02192 -31.5
    endloop
  endfacet
  facet normal -0.90482 0.425795 0
    outer loop
      vertex -10.9538 6.02192 0
      vertex -11.6222 4.60156 -31.5
      vertex -11.6222 4.60156 0
    endloop
  endfacet
  facet normal -0.982292 0.187354 0
    outer loop
      vertex -12.4014 1.56666 -31.5
      vertex -12.1073 3.10862 0
      vertex -12.1073 3.10862 -31.5
    endloop
  endfacet
  facet normal -0.982292 0.187354 0
    outer loop
      vertex -12.1073 3.10862 0
      vertex -12.4014 1.56666 -31.5
      vertex -12.4014 1.56666 0
    endloop
  endfacet
  facet normal 0.998025 -0.0628122 0
    outer loop
      vertex 12.4014 -1.56666 0
      vertex 12.5 0 -31.5
      vertex 12.5 0 0
    endloop
  endfacet
  facet normal 0.998025 -0.0628122 0
    outer loop
      vertex 12.5 0 -31.5
      vertex 12.4014 -1.56666 0
      vertex 12.4014 -1.56666 -31.5
    endloop
  endfacet
  facet normal 0.684548 -0.728968 0
    outer loop
      vertex 7.9678 -9.63142 -31.5
      vertex 9.11211 -8.55684 0
      vertex 7.9678 -9.63142 0
    endloop
  endfacet
  facet normal 0.684548 -0.728968 0
    outer loop
      vertex 9.11211 -8.55684 0
      vertex 7.9678 -9.63142 -31.5
      vertex 9.11211 -8.55684 -31.5
    endloop
  endfacet
  facet normal 0.982292 -0.187354 0
    outer loop
      vertex 12.1073 -3.10862 0
      vertex 12.4014 -1.56666 -31.5
      vertex 12.4014 -1.56666 0
    endloop
  endfacet
  facet normal 0.982292 -0.187354 0
    outer loop
      vertex 12.4014 -1.56666 -31.5
      vertex 12.1073 -3.10862 0
      vertex 12.1073 -3.10862 -31.5
    endloop
  endfacet
  facet normal 0 0 -1
    outer loop
      vertex 2.75 0 -31.5
      vertex 12.5 0 -31.5
      vertex 12.4014 -1.56666 -31.5
    endloop
  endfacet
  facet normal 0 0 -1
    outer loop
      vertex 2.72832 -0.344666 -31.5
      vertex 12.4014 -1.56666 -31.5
      vertex 12.1073 -3.10862 -31.5
    endloop
  endfacet
  facet normal 0 0 -1
    outer loop
      vertex 12.5 0 -31.5
      vertex 2.75 0 -31.5
      vertex 12.4014 1.56666 -31.5
    endloop
  endfacet
  facet normal 0 0 -1
    outer loop
      vertex 2.6636 -0.683897 -31.5
      vertex 12.1073 -3.10862 -31.5
      vertex 11.6222 -4.60156 -31.5
    endloop
  endfacet
  facet normal 0 0 -1
    outer loop
      vertex 2.72832 0.344666 -31.5
      vertex 12.4014 1.56666 -31.5
      vertex 2.75 0 -31.5
    endloop
  endfacet
  facet normal 0 0 -1
    outer loop
      vertex 2.55688 -1.01234 -31.5
      vertex 11.6222 -4.60156 -31.5
      vertex 10.9538 -6.02192 -31.5
    endloop
  endfacet
  facet normal -0 0 -1
    outer loop
      vertex 12.4014 1.56666 -31.5
      vertex 2.72832 0.344666 -31.5
      vertex 12.1073 3.10862 -31.5
    endloop
  endfacet
  facet normal 0 0 -1
    outer loop
      vertex 2.40984 -1.32482 -31.5
      vertex 10.9538 -6.02192 -31.5
      vertex 10.1127 -7.34731 -31.5
    endloop
  endfacet
  facet normal 0 0 -1
    outer loop
      vertex 2.6636 0.683897 -31.5
      vertex 12.1073 3.10862 -31.5
      vertex 2.72832 0.344666 -31.5
    endloop
  endfacet
  facet normal 0 0 -1
    outer loop
      vertex 2.2248 -1.61641 -31.5
      vertex 10.1127 -7.34731 -31.5
      vertex 9.11211 -8.55684 -31.5
    endloop
  endfacet
  facet normal -0 0 -1
    outer loop
      vertex 12.1073 3.10862 -31.5
      vertex 2.6636 0.683897 -31.5
      vertex 11.6222 4.60156 -31.5
    endloop
  endfacet
  facet normal 0 0 -1
    outer loop
      vertex 2.00466 -1.8825 -31.5
      vertex 9.11211 -8.55684 -31.5
      vertex 7.9678 -9.63142 -31.5
    endloop
  endfacet
  facet normal 0 0 -1
    outer loop
      vertex 2.55688 1.01234 -31.5
      vertex 11.6222 4.60156 -31.5
      vertex 2.6636 0.683897 -31.5
    endloop
  endfacet
  facet normal 0 0 -1
    outer loop
      vertex 1.75292 -2.11891 -31.5
      vertex 7.9678 -9.63142 -31.5
      vertex 6.69783 -10.5541 -31.5
    endloop
  endfacet
  facet normal -0 0 -1
    outer loop
      vertex 11.6222 4.60156 -31.5
      vertex 2.55688 1.01234 -31.5
      vertex 10.9538 6.02192 -31.5
    endloop
  endfacet
  facet normal 0 0 -1
    outer loop
      vertex 1.47352 -2.3219 -31.5
      vertex 6.69783 -10.5541 -31.5
      vertex 5.32224 -11.3103 -31.5
    endloop
  endfacet
  facet normal 0 0 -1
    outer loop
      vertex 2.40984 1.32482 -31.5
      vertex 10.9538 6.02192 -31.5
      vertex 2.55688 1.01234 -31.5
    endloop
  endfacet
  facet normal 0 0 -1
    outer loop
      vertex 1.17089 -2.48827 -31.5
      vertex 5.32224 -11.3103 -31.5
      vertex 3.86271 -11.8882 -31.5
    endloop
  endfacet
  facet normal -0 0 -1
    outer loop
      vertex 10.9538 6.02192 -31.5
      vertex 2.40984 1.32482 -31.5
      vertex 10.1127 7.34731 -31.5
    endloop
  endfacet
  facet normal 0 0 -1
    outer loop
      vertex 2.2248 1.61641 -31.5
      vertex 10.1127 7.34731 -31.5
      vertex 2.40984 1.32482 -31.5
    endloop
  endfacet
  facet normal 0 0 -1
    outer loop
      vertex 12.4014 -1.56666 -31.5
      vertex 2.72832 -0.344666 -31.5
      vertex 2.75 0 -31.5
    endloop
  endfacet
  facet normal 0 0 -1
    outer loop
      vertex 12.1073 -3.10862 -31.5
      vertex 2.6636 -0.683897 -31.5
      vertex 2.72832 -0.344666 -31.5
    endloop
  endfacet
  facet normal 0 0 -1
    outer loop
      vertex 11.6222 -4.60156 -31.5
      vertex 2.55688 -1.01234 -31.5
      vertex 2.6636 -0.683897 -31.5
    endloop
  endfacet
  facet normal 0 0 -1
    outer loop
      vertex 10.9538 -6.02192 -31.5
      vertex 2.40984 -1.32482 -31.5
      vertex 2.55688 -1.01234 -31.5
    endloop
  endfacet
  facet normal 0 0 -1
    outer loop
      vertex 0.849796 -2.61541 -31.5
      vertex 3.86271 -11.8882 -31.5
      vertex 2.34227 -12.2786 -31.5
    endloop
  endfacet
  facet normal 0 0 -1
    outer loop
      vertex 10.1127 -7.34731 -31.5
      vertex 2.2248 -1.61641 -31.5
      vertex 2.40984 -1.32482 -31.5
    endloop
  endfacet
  facet normal 0 0 -1
    outer loop
      vertex 9.11211 -8.55684 -31.5
      vertex 2.00466 -1.8825 -31.5
      vertex 2.2248 -1.61641 -31.5
    endloop
  endfacet
  facet normal 0 0 -1
    outer loop
      vertex 7.9678 -9.63142 -31.5
      vertex 1.75292 -2.11891 -31.5
      vertex 2.00466 -1.8825 -31.5
    endloop
  endfacet
  facet normal 0 0 -1
    outer loop
      vertex 6.69783 -10.5541 -31.5
      vertex 1.47352 -2.3219 -31.5
      vertex 1.75292 -2.11891 -31.5
    endloop
  endfacet
  facet normal 0 0 -1
    outer loop
      vertex 5.32224 -11.3103 -31.5
      vertex 1.17089 -2.48827 -31.5
      vertex 1.47352 -2.3219 -31.5
    endloop
  endfacet
  facet normal 0 0 -1
    outer loop
      vertex 3.86271 -11.8882 -31.5
      vertex 0.849796 -2.61541 -31.5
      vertex 1.17089 -2.48827 -31.5
    endloop
  endfacet
  facet normal 0 0 -1
    outer loop
      vertex 0.515298 -2.70129 -31.5
      vertex 2.34227 -12.2786 -31.5
      vertex 0.784881 -12.4753 -31.5
    endloop
  endfacet
  facet normal 0 0 -1
    outer loop
      vertex 2.34227 -12.2786 -31.5
      vertex 0.515298 -2.70129 -31.5
      vertex 0.849796 -2.61541 -31.5
    endloop
  endfacet
  facet normal 0 0 -1
    outer loop
      vertex 0.784881 -12.4753 -31.5
      vertex 0.172673 -2.74457 -31.5
      vertex 0.515298 -2.70129 -31.5
    endloop
  endfacet
  facet normal 0 0 -1
    outer loop
      vertex 0.784881 -12.4753 -31.5
      vertex -0.172673 -2.74457 -31.5
      vertex 0.172673 -2.74457 -31.5
    endloop
  endfacet
  facet normal 0 0 -1
    outer loop
      vertex -0.784881 -12.4753 -31.5
      vertex -0.172673 -2.74457 -31.5
      vertex 0.784881 -12.4753 -31.5
    endloop
  endfacet
  facet normal -0 0 -1
    outer loop
      vertex -0.172673 -2.74457 -31.5
      vertex -0.784881 -12.4753 -31.5
      vertex -0.515298 -2.70129 -31.5
    endloop
  endfacet
  facet normal 0 0 -1
    outer loop
      vertex -2.34227 -12.2786 -31.5
      vertex -0.515298 -2.70129 -31.5
      vertex -0.784881 -12.4753 -31.5
    endloop
  endfacet
  facet normal -0 0 -1
    outer loop
      vertex -0.515298 -2.70129 -31.5
      vertex -2.34227 -12.2786 -31.5
      vertex -0.849796 -2.61541 -31.5
    endloop
  endfacet
  facet normal 0 0 -1
    outer loop
      vertex -3.86271 -11.8882 -31.5
      vertex -0.849796 -2.61541 -31.5
      vertex -2.34227 -12.2786 -31.5
    endloop
  endfacet
  facet normal -0 0 -1
    outer loop
      vertex -0.849796 -2.61541 -31.5
      vertex -3.86271 -11.8882 -31.5
      vertex -1.17089 -2.48827 -31.5
    endloop
  endfacet
  facet normal 0 0 -1
    outer loop
      vertex -5.32224 -11.3103 -31.5
      vertex -1.17089 -2.48827 -31.5
      vertex -3.86271 -11.8882 -31.5
    endloop
  endfacet
  facet normal -0 0 -1
    outer loop
      vertex -1.17089 -2.48827 -31.5
      vertex -5.32224 -11.3103 -31.5
      vertex -1.47352 -2.3219 -31.5
    endloop
  endfacet
  facet normal 0 0 -1
    outer loop
      vertex -6.69783 -10.5541 -31.5
      vertex -1.47352 -2.3219 -31.5
      vertex -5.32224 -11.3103 -31.5
    endloop
  endfacet
  facet normal -0 0 -1
    outer loop
      vertex -1.47352 -2.3219 -31.5
      vertex -6.69783 -10.5541 -31.5
      vertex -1.75292 -2.11891 -31.5
    endloop
  endfacet
  facet normal 0 0 -1
    outer loop
      vertex -7.9678 -9.63142 -31.5
      vertex -1.75292 -2.11891 -31.5
      vertex -6.69783 -10.5541 -31.5
    endloop
  endfacet
  facet normal -0 0 -1
    outer loop
      vertex -1.75292 -2.11891 -31.5
      vertex -7.9678 -9.63142 -31.5
      vertex -2.00466 -1.8825 -31.5
    endloop
  endfacet
  facet normal 0 0 -1
    outer loop
      vertex -9.11211 -8.55684 -31.5
      vertex -2.00466 -1.8825 -31.5
      vertex -7.9678 -9.63142 -31.5
    endloop
  endfacet
  facet normal -0 0 -1
    outer loop
      vertex -2.00466 -1.8825 -31.5
      vertex -9.11211 -8.55684 -31.5
      vertex -2.2248 -1.61641 -31.5
    endloop
  endfacet
  facet normal 0 0 -1
    outer loop
      vertex -10.1127 -7.34731 -31.5
      vertex -2.2248 -1.61641 -31.5
      vertex -9.11211 -8.55684 -31.5
    endloop
  endfacet
  facet normal -0 0 -1
    outer loop
      vertex 10.1127 7.34731 -31.5
      vertex 2.2248 1.61641 -31.5
      vertex 9.11211 8.55684 -31.5
    endloop
  endfacet
  facet normal 0 0 -1
    outer loop
      vertex 2.00466 1.8825 -31.5
      vertex 9.11211 8.55684 -31.5
      vertex 2.2248 1.61641 -31.5
    endloop
  endfacet
  facet normal -0 0 -1
    outer loop
      vertex 9.11211 8.55684 -31.5
      vertex 2.00466 1.8825 -31.5
      vertex 7.9678 9.63142 -31.5
    endloop
  endfacet
  facet normal 0 0 -1
    outer loop
      vertex 1.75292 2.11891 -31.5
      vertex 7.9678 9.63142 -31.5
      vertex 2.00466 1.8825 -31.5
    endloop
  endfacet
  facet normal -0 0 -1
    outer loop
      vertex 7.9678 9.63142 -31.5
      vertex 1.75292 2.11891 -31.5
      vertex 6.69783 10.5541 -31.5
    endloop
  endfacet
  facet normal 0 0 -1
    outer loop
      vertex 1.47352 2.3219 -31.5
      vertex 6.69783 10.5541 -31.5
      vertex 1.75292 2.11891 -31.5
    endloop
  endfacet
  facet normal -0 0 -1
    outer loop
      vertex 6.69783 10.5541 -31.5
      vertex 1.47352 2.3219 -31.5
      vertex 5.32224 11.3103 -31.5
    endloop
  endfacet
  facet normal 0 0 -1
    outer loop
      vertex 1.17089 2.48827 -31.5
      vertex 5.32224 11.3103 -31.5
      vertex 1.47352 2.3219 -31.5
    endloop
  endfacet
  facet normal -0 0 -1
    outer loop
      vertex 5.32224 11.3103 -31.5
      vertex 1.17089 2.48827 -31.5
      vertex 3.86271 11.8882 -31.5
    endloop
  endfacet
  facet normal 0 0 -1
    outer loop
      vertex 0.849796 2.61541 -31.5
      vertex 3.86271 11.8882 -31.5
      vertex 1.17089 2.48827 -31.5
    endloop
  endfacet
  facet normal -0 0 -1
    outer loop
      vertex 3.86271 11.8882 -31.5
      vertex 0.849796 2.61541 -31.5
      vertex 2.34227 12.2786 -31.5
    endloop
  endfacet
  facet normal 0 0 -1
    outer loop
      vertex 0.515298 2.70129 -31.5
      vertex 2.34227 12.2786 -31.5
      vertex 0.849796 2.61541 -31.5
    endloop
  endfacet
  facet normal -0 0 -1
    outer loop
      vertex 2.34227 12.2786 -31.5
      vertex 0.515298 2.70129 -31.5
      vertex 0.784881 12.4753 -31.5
    endloop
  endfacet
  facet normal 0 0 -1
    outer loop
      vertex 0.172673 2.74457 -31.5
      vertex 0.784881 12.4753 -31.5
      vertex 0.515298 2.70129 -31.5
    endloop
  endfacet
  facet normal 0 0 -1
    outer loop
      vertex -0.172673 2.74457 -31.5
      vertex 0.784881 12.4753 -31.5
      vertex 0.172673 2.74457 -31.5
    endloop
  endfacet
  facet normal 0 0 -1
    outer loop
      vertex -0.784881 12.4753 -31.5
      vertex -0.172673 2.74457 -31.5
      vertex -0.515298 2.70129 -31.5
    endloop
  endfacet
  facet normal 0 0 -1
    outer loop
      vertex -0.172673 2.74457 -31.5
      vertex -0.784881 12.4753 -31.5
      vertex 0.784881 12.4753 -31.5
    endloop
  endfacet
  facet normal 0 0 -1
    outer loop
      vertex -2.34227 12.2786 -31.5
      vertex -0.515298 2.70129 -31.5
      vertex -0.849796 2.61541 -31.5
    endloop
  endfacet
  facet normal 0 0 -1
    outer loop
      vertex -3.86271 11.8882 -31.5
      vertex -0.849796 2.61541 -31.5
      vertex -1.17089 2.48827 -31.5
    endloop
  endfacet
  facet normal 0 0 -1
    outer loop
      vertex -5.32224 11.3103 -31.5
      vertex -1.17089 2.48827 -31.5
      vertex -1.47352 2.3219 -31.5
    endloop
  endfacet
  facet normal 0 0 -1
    outer loop
      vertex -6.69783 10.5541 -31.5
      vertex -1.47352 2.3219 -31.5
      vertex -1.75292 2.11891 -31.5
    endloop
  endfacet
  facet normal 0 0 -1
    outer loop
      vertex -7.9678 9.63142 -31.5
      vertex -1.75292 2.11891 -31.5
      vertex -2.00466 1.8825 -31.5
    endloop
  endfacet
  facet normal 0 0 -1
    outer loop
      vertex -9.11211 8.55684 -31.5
      vertex -2.00466 1.8825 -31.5
      vertex -2.2248 1.61641 -31.5
    endloop
  endfacet
  facet normal 0 0 -1
    outer loop
      vertex -0.515298 2.70129 -31.5
      vertex -2.34227 12.2786 -31.5
      vertex -0.784881 12.4753 -31.5
    endloop
  endfacet
  facet normal 0 0 -1
    outer loop
      vertex -10.1127 7.34731 -31.5
      vertex -2.2248 1.61641 -31.5
      vertex -2.40984 1.32482 -31.5
    endloop
  endfacet
  facet normal 0 0 -1
    outer loop
      vertex -10.9538 6.02192 -31.5
      vertex -2.40984 1.32482 -31.5
      vertex -2.55688 1.01234 -31.5
    endloop
  endfacet
  facet normal 0 0 -1
    outer loop
      vertex -11.6222 4.60156 -31.5
      vertex -2.55688 1.01234 -31.5
      vertex -2.6636 0.683897 -31.5
    endloop
  endfacet
  facet normal 0 0 -1
    outer loop
      vertex -12.1073 3.10862 -31.5
      vertex -2.6636 0.683897 -31.5
      vertex -2.72832 0.344666 -31.5
    endloop
  endfacet
  facet normal 0 0 -1
    outer loop
      vertex -12.4014 1.56666 -31.5
      vertex -2.72832 0.344666 -31.5
      vertex -2.75 0 -31.5
    endloop
  endfacet
  facet normal -0 0 -1
    outer loop
      vertex -2.2248 -1.61641 -31.5
      vertex -10.1127 -7.34731 -31.5
      vertex -2.40984 -1.32482 -31.5
    endloop
  endfacet
  facet normal 0 0 -1
    outer loop
      vertex -0.849796 2.61541 -31.5
      vertex -3.86271 11.8882 -31.5
      vertex -2.34227 12.2786 -31.5
    endloop
  endfacet
  facet normal 0 0 -1
    outer loop
      vertex -10.9538 -6.02192 -31.5
      vertex -2.40984 -1.32482 -31.5
      vertex -10.1127 -7.34731 -31.5
    endloop
  endfacet
  facet normal 0 0 -1
    outer loop
      vertex -1.17089 2.48827 -31.5
      vertex -5.32224 11.3103 -31.5
      vertex -3.86271 11.8882 -31.5
    endloop
  endfacet
  facet normal -0 0 -1
    outer loop
      vertex -2.40984 -1.32482 -31.5
      vertex -10.9538 -6.02192 -31.5
      vertex -2.55688 -1.01234 -31.5
    endloop
  endfacet
  facet normal 0 0 -1
    outer loop
      vertex -1.47352 2.3219 -31.5
      vertex -6.69783 10.5541 -31.5
      vertex -5.32224 11.3103 -31.5
    endloop
  endfacet
  facet normal 0 0 -1
    outer loop
      vertex -11.6222 -4.60156 -31.5
      vertex -2.55688 -1.01234 -31.5
      vertex -10.9538 -6.02192 -31.5
    endloop
  endfacet
  facet normal 0 0 -1
    outer loop
      vertex -1.75292 2.11891 -31.5
      vertex -7.9678 9.63142 -31.5
      vertex -6.69783 10.5541 -31.5
    endloop
  endfacet
  facet normal -0 0 -1
    outer loop
      vertex -2.55688 -1.01234 -31.5
      vertex -11.6222 -4.60156 -31.5
      vertex -2.6636 -0.683897 -31.5
    endloop
  endfacet
  facet normal 0 0 -1
    outer loop
      vertex -2.00466 1.8825 -31.5
      vertex -9.11211 8.55684 -31.5
      vertex -7.9678 9.63142 -31.5
    endloop
  endfacet
  facet normal 0 0 -1
    outer loop
      vertex -12.1073 -3.10862 -31.5
      vertex -2.6636 -0.683897 -31.5
      vertex -11.6222 -4.60156 -31.5
    endloop
  endfacet
  facet normal 0 0 -1
    outer loop
      vertex -2.2248 1.61641 -31.5
      vertex -10.1127 7.34731 -31.5
      vertex -9.11211 8.55684 -31.5
    endloop
  endfacet
  facet normal -0 0 -1
    outer loop
      vertex -2.6636 -0.683897 -31.5
      vertex -12.1073 -3.10862 -31.5
      vertex -2.72832 -0.344666 -31.5
    endloop
  endfacet
  facet normal 0 0 -1
    outer loop
      vertex -2.40984 1.32482 -31.5
      vertex -10.9538 6.02192 -31.5
      vertex -10.1127 7.34731 -31.5
    endloop
  endfacet
  facet normal 0 0 -1
    outer loop
      vertex -12.4014 -1.56666 -31.5
      vertex -2.72832 -0.344666 -31.5
      vertex -12.1073 -3.10862 -31.5
    endloop
  endfacet
  facet normal 0 0 -1
    outer loop
      vertex -2.55688 1.01234 -31.5
      vertex -11.6222 4.60156 -31.5
      vertex -10.9538 6.02192 -31.5
    endloop
  endfacet
  facet normal -0 0 -1
    outer loop
      vertex -2.72832 -0.344666 -31.5
      vertex -12.4014 -1.56666 -31.5
      vertex -2.75 0 -31.5
    endloop
  endfacet
  facet normal 0 0 -1
    outer loop
      vertex -2.6636 0.683897 -31.5
      vertex -12.1073 3.10862 -31.5
      vertex -11.6222 4.60156 -31.5
    endloop
  endfacet
  facet normal 0 0 -1
    outer loop
      vertex -12.5 0 -31.5
      vertex -2.75 0 -31.5
      vertex -12.4014 -1.56666 -31.5
    endloop
  endfacet
  facet normal 0 0 -1
    outer loop
      vertex -2.72832 0.344666 -31.5
      vertex -12.4014 1.56666 -31.5
      vertex -12.1073 3.10862 -31.5
    endloop
  endfacet
  facet normal 0 0 -1
    outer loop
      vertex -2.75 0 -31.5
      vertex -12.5 0 -31.5
      vertex -12.4014 1.56666 -31.5
    endloop
  endfacet
  facet normal 0.368142 -0.92977 0
    outer loop
      vertex 3.86271 -11.8882 -31.5
      vertex 5.32224 -11.3103 0
      vertex 3.86271 -11.8882 0
    endloop
  endfacet
  facet normal 0.368142 -0.92977 0
    outer loop
      vertex 5.32224 -11.3103 0
      vertex 3.86271 -11.8882 -31.5
      vertex 5.32224 -11.3103 -31.5
    endloop
  endfacet
  facet normal -0.481736 0.876317 0
    outer loop
      vertex -5.32224 11.3103 -31.5
      vertex -6.69783 10.5541 0
      vertex -5.32224 11.3103 0
    endloop
  endfacet
  facet normal -0.481736 0.876317 0
    outer loop
      vertex -6.69783 10.5541 0
      vertex -5.32224 11.3103 -31.5
      vertex -6.69783 10.5541 -31.5
    endloop
  endfacet
  facet normal -0.2487 0.96858 0
    outer loop
      vertex -2.34227 12.2786 -31.5
      vertex -3.86271 11.8882 0
      vertex -2.34227 12.2786 0
    endloop
  endfacet
  facet normal -0.2487 0.96858 0
    outer loop
      vertex -3.86271 11.8882 0
      vertex -2.34227 12.2786 -31.5
      vertex -3.86271 11.8882 -31.5
    endloop
  endfacet
  facet normal 0.77052 -0.637416 0
    outer loop
      vertex 9.11211 -8.55684 0
      vertex 10.1127 -7.34731 -31.5
      vertex 10.1127 -7.34731 0
    endloop
  endfacet
  facet normal 0.77052 -0.637416 0
    outer loop
      vertex 10.1127 -7.34731 -31.5
      vertex 9.11211 -8.55684 0
      vertex 9.11211 -8.55684 -31.5
    endloop
  endfacet
  facet normal 0.481736 -0.876317 0
    outer loop
      vertex 5.32224 -11.3103 -31.5
      vertex 6.69783 -10.5541 0
      vertex 5.32224 -11.3103 0
    endloop
  endfacet
  facet normal 0.481736 -0.876317 0
    outer loop
      vertex 6.69783 -10.5541 0
      vertex 5.32224 -11.3103 -31.5
      vertex 6.69783 -10.5541 -31.5
    endloop
  endfacet
  facet normal 0.90482 -0.425795 0
    outer loop
      vertex 10.9538 -6.02192 0
      vertex 11.6222 -4.60156 -31.5
      vertex 11.6222 -4.60156 0
    endloop
  endfacet
  facet normal 0.90482 -0.425795 0
    outer loop
      vertex 11.6222 -4.60156 -31.5
      vertex 10.9538 -6.02192 0
      vertex 10.9538 -6.02192 -31.5
    endloop
  endfacet
  facet normal -0.368142 -0.92977 0
    outer loop
      vertex -5.32224 -11.3103 -31.5
      vertex -3.86271 -11.8882 0
      vertex -5.32224 -11.3103 0
    endloop
  endfacet
  facet normal -0.368142 -0.92977 -0
    outer loop
      vertex -3.86271 -11.8882 0
      vertex -5.32224 -11.3103 -31.5
      vertex -3.86271 -11.8882 -31.5
    endloop
  endfacet
  facet normal -0.77052 -0.637416 0
    outer loop
      vertex -9.11211 -8.55684 -31.5
      vertex -10.1127 -7.34731 0
      vertex -10.1127 -7.34731 -31.5
    endloop
  endfacet
  facet normal -0.77052 -0.637416 0
    outer loop
      vertex -10.1127 -7.34731 0
      vertex -9.11211 -8.55684 -31.5
      vertex -9.11211 -8.55684 0
    endloop
  endfacet
  facet normal -0.951054 -0.309025 0
    outer loop
      vertex -11.6222 -4.60156 -31.5
      vertex -12.1073 -3.10862 0
      vertex -12.1073 -3.10862 -31.5
    endloop
  endfacet
  facet normal -0.951054 -0.309025 0
    outer loop
      vertex -12.1073 -3.10862 0
      vertex -11.6222 -4.60156 -31.5
      vertex -11.6222 -4.60156 0
    endloop
  endfacet
  facet normal 0.2487 -0.96858 0
    outer loop
      vertex 2.34227 -12.2786 -31.5
      vertex 3.86271 -11.8882 0
      vertex 2.34227 -12.2786 0
    endloop
  endfacet
  facet normal 0.2487 -0.96858 0
    outer loop
      vertex 3.86271 -11.8882 0
      vertex 2.34227 -12.2786 -31.5
      vertex 3.86271 -11.8882 -31.5
    endloop
  endfacet
  facet normal 0.844333 -0.535819 0
    outer loop
      vertex 10.1127 -7.34731 0
      vertex 10.9538 -6.02192 -31.5
      vertex 10.9538 -6.02192 0
    endloop
  endfacet
  facet normal 0.844333 -0.535819 0
    outer loop
      vertex 10.9538 -6.02192 -31.5
      vertex 10.1127 -7.34731 0
      vertex 10.1127 -7.34731 -31.5
    endloop
  endfacet
  facet normal 0.587782 -0.809019 0
    outer loop
      vertex 6.69783 -10.5541 -31.5
      vertex 7.9678 -9.63142 0
      vertex 6.69783 -10.5541 0
    endloop
  endfacet
  facet normal 0.587782 -0.809019 0
    outer loop
      vertex 7.9678 -9.63142 0
      vertex 6.69783 -10.5541 -31.5
      vertex 7.9678 -9.63142 -31.5
    endloop
  endfacet
  facet normal -0.125306 -0.992118 0
    outer loop
      vertex -2.34227 -12.2786 -31.5
      vertex -0.784881 -12.4753 0
      vertex -2.34227 -12.2786 0
    endloop
  endfacet
  facet normal -0.125306 -0.992118 -0
    outer loop
      vertex -0.784881 -12.4753 0
      vertex -2.34227 -12.2786 -31.5
      vertex -0.784881 -12.4753 -31.5
    endloop
  endfacet
  facet normal -0.2487 -0.96858 0
    outer loop
      vertex -3.86271 -11.8882 -31.5
      vertex -2.34227 -12.2786 0
      vertex -3.86271 -11.8882 0
    endloop
  endfacet
  facet normal -0.2487 -0.96858 -0
    outer loop
      vertex -2.34227 -12.2786 0
      vertex -3.86271 -11.8882 -31.5
      vertex -2.34227 -12.2786 -31.5
    endloop
  endfacet
  facet normal -0.684548 -0.728968 0
    outer loop
      vertex -9.11211 -8.55684 -31.5
      vertex -7.9678 -9.63142 0
      vertex -9.11211 -8.55684 0
    endloop
  endfacet
  facet normal -0.684548 -0.728968 -0
    outer loop
      vertex -7.9678 -9.63142 0
      vertex -9.11211 -8.55684 -31.5
      vertex -7.9678 -9.63142 -31.5
    endloop
  endfacet
  facet normal -0.90482 -0.425795 0
    outer loop
      vertex -10.9538 -6.02192 -31.5
      vertex -11.6222 -4.60156 0
      vertex -11.6222 -4.60156 -31.5
    endloop
  endfacet
  facet normal -0.90482 -0.425795 0
    outer loop
      vertex -11.6222 -4.60156 0
      vertex -10.9538 -6.02192 -31.5
      vertex -10.9538 -6.02192 0
    endloop
  endfacet
  facet normal -0.982292 -0.187354 0
    outer loop
      vertex -12.1073 -3.10862 -31.5
      vertex -12.4014 -1.56666 0
      vertex -12.4014 -1.56666 -31.5
    endloop
  endfacet
  facet normal -0.982292 -0.187354 0
    outer loop
      vertex -12.4014 -1.56666 0
      vertex -12.1073 -3.10862 -31.5
      vertex -12.1073 -3.10862 0
    endloop
  endfacet
  facet normal -0.998025 -0.0628122 0
    outer loop
      vertex -12.4014 -1.56666 -31.5
      vertex -12.5 0 0
      vertex -12.5 0 -31.5
    endloop
  endfacet
  facet normal -0.998025 -0.0628122 0
    outer loop
      vertex -12.5 0 0
      vertex -12.4014 -1.56666 -31.5
      vertex -12.4014 -1.56666 0
    endloop
  endfacet
  facet normal -0.587782 -0.809019 0
    outer loop
      vertex -7.9678 -9.63142 -31.5
      vertex -6.69783 -10.5541 0
      vertex -7.9678 -9.63142 0
    endloop
  endfacet
  facet normal -0.587782 -0.809019 -0
    outer loop
      vertex -6.69783 -10.5541 0
      vertex -7.9678 -9.63142 -31.5
      vertex -6.69783 -10.5541 -31.5
    endloop
  endfacet
  facet normal -0.481736 -0.876317 0
    outer loop
      vertex -6.69783 -10.5541 -31.5
      vertex -5.32224 -11.3103 0
      vertex -6.69783 -10.5541 0
    endloop
  endfacet
  facet normal -0.481736 -0.876317 -0
    outer loop
      vertex -5.32224 -11.3103 0
      vertex -6.69783 -10.5541 -31.5
      vertex -5.32224 -11.3103 -31.5
    endloop
  endfacet
  facet normal -0.844333 -0.535819 0
    outer loop
      vertex -10.1127 -7.34731 -31.5
      vertex -10.9538 -6.02192 0
      vertex -10.9538 -6.02192 -31.5
    endloop
  endfacet
  facet normal -0.844333 -0.535819 0
    outer loop
      vertex -10.9538 -6.02192 0
      vertex -10.1127 -7.34731 -31.5
      vertex -10.1127 -7.34731 0
    endloop
  endfacet
endsolid OpenSCAD_Model
