solid OpenSCAD_Model
  facet normal 0 0 1
    outer loop
      vertex 3.45 0 0
      vertex 5 0 0
      vertex 4.96057 0.626666 0
    endloop
  endfacet
  facet normal 0 0 1
    outer loop
      vertex 3.4228 0.432399 0
      vertex 4.96057 0.626666 0
      vertex 4.84292 1.24345 0
    endloop
  endfacet
  facet normal 0 0 1
    outer loop
      vertex 5 0 0
      vertex 3.45 0 0
      vertex 4.96057 -0.626666 0
    endloop
  endfacet
  facet normal 0 0 1
    outer loop
      vertex 3.34161 0.85798 0
      vertex 4.84292 1.24345 0
      vertex 4.64888 1.84062 0
    endloop
  endfacet
  facet normal -0 0 1
    outer loop
      vertex 3.4228 -0.432399 0
      vertex 4.96057 -0.626666 0
      vertex 3.45 0 0
    endloop
  endfacet
  facet normal 0 0 1
    outer loop
      vertex 3.20773 1.27003 0
      vertex 4.64888 1.84062 0
      vertex 4.38153 2.40877 0
    endloop
  endfacet
  facet normal 0 0 1
    outer loop
      vertex 4.96057 -0.626666 0
      vertex 3.4228 -0.432399 0
      vertex 4.84292 -1.24345 0
    endloop
  endfacet
  facet normal 0 0 1
    outer loop
      vertex 3.02326 1.66205 0
      vertex 4.38153 2.40877 0
      vertex 4.04508 2.93893 0
    endloop
  endfacet
  facet normal -0 0 1
    outer loop
      vertex 3.34161 -0.85798 0
      vertex 4.84292 -1.24345 0
      vertex 3.4228 -0.432399 0
    endloop
  endfacet
  facet normal 0 0 1
    outer loop
      vertex 2.79111 2.02786 0
      vertex 4.04508 2.93893 0
      vertex 3.64484 3.42274 0
    endloop
  endfacet
  facet normal 0 0 1
    outer loop
      vertex 4.84292 -1.24345 0
      vertex 3.34161 -0.85798 0
      vertex 4.64888 -1.84062 0
    endloop
  endfacet
  facet normal -0 0 1
    outer loop
      vertex 3.20773 -1.27003 0
      vertex 4.64888 -1.84062 0
      vertex 3.34161 -0.85798 0
    endloop
  endfacet
  facet normal 0 0 1
    outer loop
      vertex 4.96057 0.626666 0
      vertex 3.4228 0.432399 0
      vertex 3.45 0 0
    endloop
  endfacet
  facet normal 0 0 1
    outer loop
      vertex 4.84292 1.24345 0
      vertex 3.34161 0.85798 0
      vertex 3.4228 0.432399 0
    endloop
  endfacet
  facet normal 0 0 1
    outer loop
      vertex 4.64888 1.84062 0
      vertex 3.20773 1.27003 0
      vertex 3.34161 0.85798 0
    endloop
  endfacet
  facet normal 0 0 1
    outer loop
      vertex 2.51494 2.36169 0
      vertex 3.64484 3.42274 0
      vertex 3.18712 3.85257 0
    endloop
  endfacet
  facet normal 0 0 1
    outer loop
      vertex 4.38153 2.40877 0
      vertex 3.02326 1.66205 0
      vertex 3.20773 1.27003 0
    endloop
  endfacet
  facet normal 0 0 1
    outer loop
      vertex 4.04508 2.93893 0
      vertex 2.79111 2.02786 0
      vertex 3.02326 1.66205 0
    endloop
  endfacet
  facet normal 0 0 1
    outer loop
      vertex 2.19911 2.65827 0
      vertex 3.18712 3.85257 0
      vertex 2.67913 4.22164 0
    endloop
  endfacet
  facet normal 0 0 1
    outer loop
      vertex 3.64484 3.42274 0
      vertex 2.51494 2.36169 0
      vertex 2.79111 2.02786 0
    endloop
  endfacet
  facet normal 0 0 1
    outer loop
      vertex 3.18712 3.85257 0
      vertex 2.19911 2.65827 0
      vertex 2.51494 2.36169 0
    endloop
  endfacet
  facet normal 0 0 1
    outer loop
      vertex 1.8486 2.91293 0
      vertex 2.67913 4.22164 0
      vertex 2.1289 4.52413 0
    endloop
  endfacet
  facet normal 0 0 1
    outer loop
      vertex 2.67913 4.22164 0
      vertex 1.8486 2.91293 0
      vertex 2.19911 2.65827 0
    endloop
  endfacet
  facet normal 0 0 1
    outer loop
      vertex 1.46894 3.12165 0
      vertex 2.1289 4.52413 0
      vertex 1.54508 4.75528 0
    endloop
  endfacet
  facet normal 0 0 1
    outer loop
      vertex 2.1289 4.52413 0
      vertex 1.46894 3.12165 0
      vertex 1.8486 2.91293 0
    endloop
  endfacet
  facet normal 0 0 1
    outer loop
      vertex 1.54508 4.75528 0
      vertex 1.06611 3.28114 0
      vertex 1.46894 3.12165 0
    endloop
  endfacet
  facet normal 0 0 1
    outer loop
      vertex 0.936906 4.91144 0
      vertex 1.06611 3.28114 0
      vertex 1.54508 4.75528 0
    endloop
  endfacet
  facet normal 0 0 1
    outer loop
      vertex 0.936906 4.91144 0
      vertex 0.646465 3.38889 0
      vertex 1.06611 3.28114 0
    endloop
  endfacet
  facet normal 0 0 1
    outer loop
      vertex 0.313952 4.99013 0
      vertex 0.646465 3.38889 0
      vertex 0.936906 4.91144 0
    endloop
  endfacet
  facet normal 0 0 1
    outer loop
      vertex 0.313952 4.99013 0
      vertex 0.216627 3.44319 0
      vertex 0.646465 3.38889 0
    endloop
  endfacet
  facet normal 0 0 1
    outer loop
      vertex 0.313952 4.99013 0
      vertex -0.216627 3.44319 0
      vertex 0.216627 3.44319 0
    endloop
  endfacet
  facet normal -0 0 1
    outer loop
      vertex -0.313952 4.99013 0
      vertex -0.216627 3.44319 0
      vertex 0.313952 4.99013 0
    endloop
  endfacet
  facet normal 0 0 1
    outer loop
      vertex -0.313952 4.99013 0
      vertex -0.646465 3.38889 0
      vertex -0.216627 3.44319 0
    endloop
  endfacet
  facet normal -0 0 1
    outer loop
      vertex -0.936906 4.91144 0
      vertex -0.646465 3.38889 0
      vertex -0.313952 4.99013 0
    endloop
  endfacet
  facet normal 0 0 1
    outer loop
      vertex -0.936906 4.91144 0
      vertex -1.06611 3.28114 0
      vertex -0.646465 3.38889 0
    endloop
  endfacet
  facet normal -0 0 1
    outer loop
      vertex -1.54508 4.75528 0
      vertex -1.06611 3.28114 0
      vertex -0.936906 4.91144 0
    endloop
  endfacet
  facet normal 0 0 1
    outer loop
      vertex -1.06611 3.28114 0
      vertex -1.54508 4.75528 0
      vertex -1.46894 3.12165 0
    endloop
  endfacet
  facet normal -0 0 1
    outer loop
      vertex -2.1289 4.52413 0
      vertex -1.46894 3.12165 0
      vertex -1.54508 4.75528 0
    endloop
  endfacet
  facet normal 0 0 1
    outer loop
      vertex -1.46894 3.12165 0
      vertex -2.1289 4.52413 0
      vertex -1.8486 2.91293 0
    endloop
  endfacet
  facet normal -0 0 1
    outer loop
      vertex -2.67913 4.22164 0
      vertex -1.8486 2.91293 0
      vertex -2.1289 4.52413 0
    endloop
  endfacet
  facet normal 0 0 1
    outer loop
      vertex -1.8486 2.91293 0
      vertex -2.67913 4.22164 0
      vertex -2.19911 2.65827 0
    endloop
  endfacet
  facet normal -0 0 1
    outer loop
      vertex -3.18712 3.85257 0
      vertex -2.19911 2.65827 0
      vertex -2.67913 4.22164 0
    endloop
  endfacet
  facet normal 0 0 1
    outer loop
      vertex -2.19911 2.65827 0
      vertex -3.18712 3.85257 0
      vertex -2.51494 2.36169 0
    endloop
  endfacet
  facet normal -0 0 1
    outer loop
      vertex -3.64484 3.42274 0
      vertex -2.51494 2.36169 0
      vertex -3.18712 3.85257 0
    endloop
  endfacet
  facet normal 0 0 1
    outer loop
      vertex -2.51494 2.36169 0
      vertex -3.64484 3.42274 0
      vertex -2.79111 2.02786 0
    endloop
  endfacet
  facet normal -0 0 1
    outer loop
      vertex -4.04508 2.93893 0
      vertex -2.79111 2.02786 0
      vertex -3.64484 3.42274 0
    endloop
  endfacet
  facet normal 0 0 1
    outer loop
      vertex -2.79111 2.02786 0
      vertex -4.04508 2.93893 0
      vertex -3.02326 1.66205 0
    endloop
  endfacet
  facet normal -0 0 1
    outer loop
      vertex -4.38153 2.40877 0
      vertex -3.02326 1.66205 0
      vertex -4.04508 2.93893 0
    endloop
  endfacet
  facet normal -0 0 1
    outer loop
      vertex -4.64888 1.84062 0
      vertex -3.20773 1.27003 0
      vertex -4.38153 2.40877 0
    endloop
  endfacet
  facet normal 0 0 1
    outer loop
      vertex -3.02326 1.66205 0
      vertex -4.38153 2.40877 0
      vertex -3.20773 1.27003 0
    endloop
  endfacet
  facet normal 0 0 1
    outer loop
      vertex 4.64888 -1.84062 0
      vertex 3.20773 -1.27003 0
      vertex 4.38153 -2.40877 0
    endloop
  endfacet
  facet normal -0 0 1
    outer loop
      vertex 3.02326 -1.66205 0
      vertex 4.38153 -2.40877 0
      vertex 3.20773 -1.27003 0
    endloop
  endfacet
  facet normal 0 0 1
    outer loop
      vertex 4.38153 -2.40877 0
      vertex 3.02326 -1.66205 0
      vertex 4.04508 -2.93893 0
    endloop
  endfacet
  facet normal -0 0 1
    outer loop
      vertex 2.79111 -2.02786 0
      vertex 4.04508 -2.93893 0
      vertex 3.02326 -1.66205 0
    endloop
  endfacet
  facet normal 0 0 1
    outer loop
      vertex 4.04508 -2.93893 0
      vertex 2.79111 -2.02786 0
      vertex 3.64484 -3.42274 0
    endloop
  endfacet
  facet normal -0 0 1
    outer loop
      vertex 2.51494 -2.36169 0
      vertex 3.64484 -3.42274 0
      vertex 2.79111 -2.02786 0
    endloop
  endfacet
  facet normal 0 0 1
    outer loop
      vertex 3.64484 -3.42274 0
      vertex 2.51494 -2.36169 0
      vertex 3.18712 -3.85257 0
    endloop
  endfacet
  facet normal -0 0 1
    outer loop
      vertex 2.19911 -2.65827 0
      vertex 3.18712 -3.85257 0
      vertex 2.51494 -2.36169 0
    endloop
  endfacet
  facet normal 0 0 1
    outer loop
      vertex 3.18712 -3.85257 0
      vertex 2.19911 -2.65827 0
      vertex 2.67913 -4.22164 0
    endloop
  endfacet
  facet normal -0 0 1
    outer loop
      vertex 1.8486 -2.91293 0
      vertex 2.67913 -4.22164 0
      vertex 2.19911 -2.65827 0
    endloop
  endfacet
  facet normal 0 0 1
    outer loop
      vertex 2.67913 -4.22164 0
      vertex 1.8486 -2.91293 0
      vertex 2.1289 -4.52413 0
    endloop
  endfacet
  facet normal -0 0 1
    outer loop
      vertex 1.46894 -3.12165 0
      vertex 2.1289 -4.52413 0
      vertex 1.8486 -2.91293 0
    endloop
  endfacet
  facet normal 0 0 1
    outer loop
      vertex 2.1289 -4.52413 0
      vertex 1.46894 -3.12165 0
      vertex 1.54508 -4.75528 0
    endloop
  endfacet
  facet normal -0 0 1
    outer loop
      vertex 1.06611 -3.28114 0
      vertex 1.54508 -4.75528 0
      vertex 1.46894 -3.12165 0
    endloop
  endfacet
  facet normal 0 0 1
    outer loop
      vertex 1.06611 -3.28114 0
      vertex 0.936906 -4.91144 0
      vertex 1.54508 -4.75528 0
    endloop
  endfacet
  facet normal -0 0 1
    outer loop
      vertex 0.646465 -3.38889 0
      vertex 0.936906 -4.91144 0
      vertex 1.06611 -3.28114 0
    endloop
  endfacet
  facet normal 0 0 1
    outer loop
      vertex 0.646465 -3.38889 0
      vertex 0.313952 -4.99013 0
      vertex 0.936906 -4.91144 0
    endloop
  endfacet
  facet normal -0 0 1
    outer loop
      vertex 0.216627 -3.44319 0
      vertex 0.313952 -4.99013 0
      vertex 0.646465 -3.38889 0
    endloop
  endfacet
  facet normal -0 0 1
    outer loop
      vertex -0.216627 -3.44319 0
      vertex 0.313952 -4.99013 0
      vertex 0.216627 -3.44319 0
    endloop
  endfacet
  facet normal 0 0 1
    outer loop
      vertex -0.216627 -3.44319 0
      vertex -0.313952 -4.99013 0
      vertex 0.313952 -4.99013 0
    endloop
  endfacet
  facet normal 0 0 1
    outer loop
      vertex -0.646465 -3.38889 0
      vertex -0.313952 -4.99013 0
      vertex -0.216627 -3.44319 0
    endloop
  endfacet
  facet normal 0 0 1
    outer loop
      vertex -0.646465 -3.38889 0
      vertex -0.936906 -4.91144 0
      vertex -0.313952 -4.99013 0
    endloop
  endfacet
  facet normal 0 0 1
    outer loop
      vertex -1.06611 -3.28114 0
      vertex -0.936906 -4.91144 0
      vertex -0.646465 -3.38889 0
    endloop
  endfacet
  facet normal 0 0 1
    outer loop
      vertex -1.54508 -4.75528 0
      vertex -1.06611 -3.28114 0
      vertex -1.46894 -3.12165 0
    endloop
  endfacet
  facet normal 0 0 1
    outer loop
      vertex -1.06611 -3.28114 0
      vertex -1.54508 -4.75528 0
      vertex -0.936906 -4.91144 0
    endloop
  endfacet
  facet normal 0 0 1
    outer loop
      vertex -2.1289 -4.52413 0
      vertex -1.46894 -3.12165 0
      vertex -1.8486 -2.91293 0
    endloop
  endfacet
  facet normal 0 0 1
    outer loop
      vertex -1.46894 -3.12165 0
      vertex -2.1289 -4.52413 0
      vertex -1.54508 -4.75528 0
    endloop
  endfacet
  facet normal 0 0 1
    outer loop
      vertex -2.67913 -4.22164 0
      vertex -1.8486 -2.91293 0
      vertex -2.19911 -2.65827 0
    endloop
  endfacet
  facet normal 0 0 1
    outer loop
      vertex -3.18712 -3.85257 0
      vertex -2.19911 -2.65827 0
      vertex -2.51494 -2.36169 0
    endloop
  endfacet
  facet normal 0 0 1
    outer loop
      vertex -1.8486 -2.91293 0
      vertex -2.67913 -4.22164 0
      vertex -2.1289 -4.52413 0
    endloop
  endfacet
  facet normal 0 0 1
    outer loop
      vertex -3.64484 -3.42274 0
      vertex -2.51494 -2.36169 0
      vertex -2.79111 -2.02786 0
    endloop
  endfacet
  facet normal 0 0 1
    outer loop
      vertex -4.04508 -2.93893 0
      vertex -2.79111 -2.02786 0
      vertex -3.02326 -1.66205 0
    endloop
  endfacet
  facet normal 0 0 1
    outer loop
      vertex -2.19911 -2.65827 0
      vertex -3.18712 -3.85257 0
      vertex -2.67913 -4.22164 0
    endloop
  endfacet
  facet normal 0 0 1
    outer loop
      vertex -4.38153 -2.40877 0
      vertex -3.02326 -1.66205 0
      vertex -3.20773 -1.27003 0
    endloop
  endfacet
  facet normal 0 0 1
    outer loop
      vertex -4.64888 -1.84062 0
      vertex -3.20773 -1.27003 0
      vertex -3.34161 -0.85798 0
    endloop
  endfacet
  facet normal 0 0 1
    outer loop
      vertex -4.84292 -1.24345 0
      vertex -3.34161 -0.85798 0
      vertex -3.4228 -0.432399 0
    endloop
  endfacet
  facet normal 0 0 1
    outer loop
      vertex -2.51494 -2.36169 0
      vertex -3.64484 -3.42274 0
      vertex -3.18712 -3.85257 0
    endloop
  endfacet
  facet normal 0 0 1
    outer loop
      vertex -4.96057 -0.626666 0
      vertex -3.4228 -0.432399 0
      vertex -3.45 0 0
    endloop
  endfacet
  facet normal 0 0 1
    outer loop
      vertex -3.20773 1.27003 0
      vertex -4.64888 1.84062 0
      vertex -3.34161 0.85798 0
    endloop
  endfacet
  facet normal -0 0 1
    outer loop
      vertex -4.84292 1.24345 0
      vertex -3.34161 0.85798 0
      vertex -4.64888 1.84062 0
    endloop
  endfacet
  facet normal 0 0 1
    outer loop
      vertex -2.79111 -2.02786 0
      vertex -4.04508 -2.93893 0
      vertex -3.64484 -3.42274 0
    endloop
  endfacet
  facet normal 0 0 1
    outer loop
      vertex -3.34161 0.85798 0
      vertex -4.84292 1.24345 0
      vertex -3.4228 0.432399 0
    endloop
  endfacet
  facet normal 0 0 1
    outer loop
      vertex -3.02326 -1.66205 0
      vertex -4.38153 -2.40877 0
      vertex -4.04508 -2.93893 0
    endloop
  endfacet
  facet normal -0 0 1
    outer loop
      vertex -4.96057 0.626666 0
      vertex -3.4228 0.432399 0
      vertex -4.84292 1.24345 0
    endloop
  endfacet
  facet normal 0 0 1
    outer loop
      vertex -3.20773 -1.27003 0
      vertex -4.64888 -1.84062 0
      vertex -4.38153 -2.40877 0
    endloop
  endfacet
  facet normal 0 0 1
    outer loop
      vertex -3.4228 0.432399 0
      vertex -4.96057 0.626666 0
      vertex -3.45 0 0
    endloop
  endfacet
  facet normal 0 0 1
    outer loop
      vertex -3.34161 -0.85798 0
      vertex -4.84292 -1.24345 0
      vertex -4.64888 -1.84062 0
    endloop
  endfacet
  facet normal 0 0 1
    outer loop
      vertex -5 0 0
      vertex -3.45 0 0
      vertex -4.96057 0.626666 0
    endloop
  endfacet
  facet normal 0 0 1
    outer loop
      vertex -3.4228 -0.432399 0
      vertex -4.96057 -0.626666 0
      vertex -4.84292 -1.24345 0
    endloop
  endfacet
  facet normal 0 0 1
    outer loop
      vertex -3.45 0 0
      vertex -5 0 0
      vertex -4.96057 -0.626666 0
    endloop
  endfacet
  facet normal -0.465547 -0.0292845 0.884539
    outer loop
      vertex 1.55 0 -1
      vertex 3.45 0 0
      vertex 1.53778 0.194266 -1
    endloop
  endfacet
  facet normal 0.31931 -0.340047 0.884539
    outer loop
      vertex -1.1299 1.06105 -1
      vertex -0.988007 1.19429 -1
      vertex -2.19911 2.65827 0
    endloop
  endfacet
  facet normal -0.359418 -0.297339 0.884538
    outer loop
      vertex 2.79111 2.02786 0
      vertex 2.51494 2.36169 0
      vertex 1.25398 0.911067 -1
    endloop
  endfacet
  facet normal -0.319316 0.340042 0.884538
    outer loop
      vertex 2.19911 -2.65827 0
      vertex 2.51494 -2.36169 0
      vertex 1.1299 -1.06105 -1
    endloop
  endfacet
  facet normal 0.443637 0.144143 0.884539
    outer loop
      vertex -3.20773 -1.27003 0
      vertex -1.44115 -0.570593 -1
      vertex -3.34161 -0.85798 0
    endloop
  endfacet
  facet normal -0.359415 0.297342 0.884539
    outer loop
      vertex 2.51494 -2.36169 0
      vertex 1.25398 -0.911067 -1
      vertex 1.1299 -1.06105 -1
    endloop
  endfacet
  facet normal -0.274183 0.377381 0.884538
    outer loop
      vertex 1.8486 -2.91293 0
      vertex 2.19911 -2.65827 0
      vertex 0.830531 -1.30871 -1
    endloop
  endfacet
  facet normal 0.171717 0.433712 0.884538
    outer loop
      vertex -1.06611 -3.28114 0
      vertex -0.478976 -1.47414 -1
      vertex -1.46894 -3.12165 0
    endloop
  endfacet
  facet normal 0.465547 0.0292845 0.884539
    outer loop
      vertex -1.53778 -0.194266 -1
      vertex -1.55 0 -1
      vertex -3.45 0 0
    endloop
  endfacet
  facet normal -0.359415 -0.297342 0.884539
    outer loop
      vertex 1.25398 0.911067 -1
      vertex 2.51494 2.36169 0
      vertex 1.1299 1.06105 -1
    endloop
  endfacet
  facet normal -0.224723 -0.408769 0.884538
    outer loop
      vertex 1.8486 2.91293 0
      vertex 1.46894 3.12165 0
      vertex 0.830531 1.30871 -1
    endloop
  endfacet
  facet normal -0.458203 0.0874134 0.884539
    outer loop
      vertex 3.34161 -0.85798 0
      vertex 3.4228 -0.432399 0
      vertex 1.5013 -0.385468 -1
    endloop
  endfacet
  facet normal -0.359418 0.297339 0.884538
    outer loop
      vertex 2.51494 -2.36169 0
      vertex 2.79111 -2.02786 0
      vertex 1.25398 -0.911067 -1
    endloop
  endfacet
  facet normal -0.224723 0.408769 0.884538
    outer loop
      vertex 1.46894 -3.12165 0
      vertex 1.8486 -2.91293 0
      vertex 0.830531 -1.30871 -1
    endloop
  endfacet
  facet normal 0.422071 0.198611 0.884539
    outer loop
      vertex -3.02326 -1.66205 0
      vertex -1.44115 -0.570593 -1
      vertex -3.20773 -1.27003 0
    endloop
  endfacet
  facet normal 0.393851 -0.249946 0.884538
    outer loop
      vertex -1.25398 0.911067 -1
      vertex -2.79111 2.02786 0
      vertex -3.02326 1.66205 0
    endloop
  endfacet
  facet normal 0.224723 -0.408769 0.884538
    outer loop
      vertex -0.830531 1.30871 -1
      vertex -1.46894 3.12165 0
      vertex -1.8486 2.91293 0
    endloop
  endfacet
  facet normal -0.0584625 -0.462788 0.884539
    outer loop
      vertex 0.290441 1.52254 -1
      vertex 0.646465 3.38889 0
      vertex 0.216627 3.44319 0
    endloop
  endfacet
  facet normal -0.274183 -0.377381 0.884538
    outer loop
      vertex 2.19911 2.65827 0
      vertex 1.8486 2.91293 0
      vertex 0.830531 1.30871 -1
    endloop
  endfacet
  facet normal -0.465547 -0.0292852 0.884539
    outer loop
      vertex 3.45 0 0
      vertex 3.4228 0.432399 0
      vertex 1.53778 0.194266 -1
    endloop
  endfacet
  facet normal -0.458202 -0.0874218 0.884538
    outer loop
      vertex 1.53778 0.194266 -1
      vertex 3.4228 0.432399 0
      vertex 1.5013 0.385468 -1
    endloop
  endfacet
  facet normal -0.458203 -0.0874134 0.884539
    outer loop
      vertex 3.4228 0.432399 0
      vertex 3.34161 0.85798 0
      vertex 1.5013 0.385468 -1
    endloop
  endfacet
  facet normal -0.465547 0.0292845 0.884539
    outer loop
      vertex 3.45 0 0
      vertex 1.55 0 -1
      vertex 1.53778 -0.194266 -1
    endloop
  endfacet
  facet normal -0.31931 0.340047 0.884539
    outer loop
      vertex 2.19911 -2.65827 0
      vertex 1.1299 -1.06105 -1
      vertex 0.988007 -1.19429 -1
    endloop
  endfacet
  facet normal -0 0.466467 0.884538
    outer loop
      vertex -0.0973244 -1.54694 -1
      vertex 0.216627 -3.44319 0
      vertex 0.0973244 -1.54694 -1
    endloop
  endfacet
  facet normal 0 0.466467 0.884538
    outer loop
      vertex 0.216627 -3.44319 0
      vertex -0.0973244 -1.54694 -1
      vertex -0.216627 -3.44319 0
    endloop
  endfacet
  facet normal -0.0584625 0.462788 0.884539
    outer loop
      vertex 0.646465 -3.38889 0
      vertex 0.290441 -1.52254 -1
      vertex 0.216627 -3.44319 0
    endloop
  endfacet
  facet normal -0.115988 0.451815 0.884539
    outer loop
      vertex 0.646465 -3.38889 0
      vertex 0.478976 -1.47414 -1
      vertex 0.290441 -1.52254 -1
    endloop
  endfacet
  facet normal 0.458203 0.0874134 0.884539
    outer loop
      vertex -3.34161 -0.85798 0
      vertex -1.5013 -0.385468 -1
      vertex -3.4228 -0.432399 0
    endloop
  endfacet
  facet normal 0.465547 0.0292852 0.884539
    outer loop
      vertex -3.4228 -0.432399 0
      vertex -1.53778 -0.194266 -1
      vertex -3.45 0 0
    endloop
  endfacet
  facet normal 0.39386 0.249928 0.88454
    outer loop
      vertex -1.25398 -0.911067 -1
      vertex -1.35827 -0.746717 -1
      vertex -3.02326 -1.66205 0
    endloop
  endfacet
  facet normal 0.422068 0.198616 0.884539
    outer loop
      vertex -1.35827 -0.746717 -1
      vertex -1.44115 -0.570593 -1
      vertex -3.02326 -1.66205 0
    endloop
  endfacet
  facet normal 0.0584625 0.462788 0.884539
    outer loop
      vertex -0.216627 -3.44319 0
      vertex -0.290441 -1.52254 -1
      vertex -0.646465 -3.38889 0
    endloop
  endfacet
  facet normal 0.224716 0.408771 0.884539
    outer loop
      vertex -0.659958 -1.40248 -1
      vertex -0.830531 -1.30871 -1
      vertex -1.46894 -3.12165 0
    endloop
  endfacet
  facet normal 0.274193 0.377371 0.884539
    outer loop
      vertex -0.830531 -1.30871 -1
      vertex -0.988007 -1.19429 -1
      vertex -2.19911 -2.65827 0
    endloop
  endfacet
  facet normal 0.458202 -0.0874218 0.884538
    outer loop
      vertex -1.53778 0.194266 -1
      vertex -1.5013 0.385468 -1
      vertex -3.4228 0.432399 0
    endloop
  endfacet
  facet normal 0.359418 -0.297339 0.884538
    outer loop
      vertex -1.25398 0.911067 -1
      vertex -2.51494 2.36169 0
      vertex -2.79111 2.02786 0
    endloop
  endfacet
  facet normal 0.443637 -0.144144 0.884539
    outer loop
      vertex -1.5013 0.385468 -1
      vertex -1.44115 0.570593 -1
      vertex -3.34161 0.85798 0
    endloop
  endfacet
  facet normal 0.359415 -0.297342 0.884539
    outer loop
      vertex -1.25398 0.911067 -1
      vertex -1.1299 1.06105 -1
      vertex -2.51494 2.36169 0
    endloop
  endfacet
  facet normal 0.319316 -0.340042 0.884538
    outer loop
      vertex -1.1299 1.06105 -1
      vertex -2.19911 2.65827 0
      vertex -2.51494 2.36169 0
    endloop
  endfacet
  facet normal 0.443637 -0.144143 0.884539
    outer loop
      vertex -1.44115 0.570593 -1
      vertex -3.20773 1.27003 0
      vertex -3.34161 0.85798 0
    endloop
  endfacet
  facet normal 0.274193 -0.377371 0.884539
    outer loop
      vertex -0.988007 1.19429 -1
      vertex -0.830531 1.30871 -1
      vertex -2.19911 2.65827 0
    endloop
  endfacet
  facet normal -0.0584726 -0.462788 0.884538
    outer loop
      vertex 0.290441 1.52254 -1
      vertex 0.216627 3.44319 0
      vertex 0.0973244 1.54694 -1
    endloop
  endfacet
  facet normal -0.115988 -0.451815 0.884539
    outer loop
      vertex 0.478976 1.47414 -1
      vertex 0.646465 3.38889 0
      vertex 0.290441 1.52254 -1
    endloop
  endfacet
  facet normal -0.319316 -0.340042 0.884538
    outer loop
      vertex 2.51494 2.36169 0
      vertex 2.19911 2.65827 0
      vertex 1.1299 1.06105 -1
    endloop
  endfacet
  facet normal -0.171726 -0.433706 0.884539
    outer loop
      vertex 0.659958 1.40248 -1
      vertex 1.46894 3.12165 0
      vertex 0.478976 1.47414 -1
    endloop
  endfacet
  facet normal -0.393851 0.249946 0.884538
    outer loop
      vertex 2.79111 -2.02786 0
      vertex 3.02326 -1.66205 0
      vertex 1.25398 -0.911067 -1
    endloop
  endfacet
  facet normal -0.422071 0.198611 0.884539
    outer loop
      vertex 3.02326 -1.66205 0
      vertex 3.20773 -1.27003 0
      vertex 1.44115 -0.570593 -1
    endloop
  endfacet
  facet normal -0.465547 0.0292852 0.884539
    outer loop
      vertex 3.4228 -0.432399 0
      vertex 3.45 0 0
      vertex 1.53778 -0.194266 -1
    endloop
  endfacet
  facet normal -0.458202 0.0874218 0.884538
    outer loop
      vertex 3.4228 -0.432399 0
      vertex 1.53778 -0.194266 -1
      vertex 1.5013 -0.385468 -1
    endloop
  endfacet
  facet normal -0.224716 0.408771 0.884539
    outer loop
      vertex 1.46894 -3.12165 0
      vertex 0.830531 -1.30871 -1
      vertex 0.659958 -1.40248 -1
    endloop
  endfacet
  facet normal -0.171717 0.433712 0.884538
    outer loop
      vertex 1.06611 -3.28114 0
      vertex 1.46894 -3.12165 0
      vertex 0.478976 -1.47414 -1
    endloop
  endfacet
  facet normal -0.116009 0.451812 0.884538
    outer loop
      vertex 0.646465 -3.38889 0
      vertex 1.06611 -3.28114 0
      vertex 0.478976 -1.47414 -1
    endloop
  endfacet
  facet normal 0.458202 0.0874218 0.884538
    outer loop
      vertex -1.5013 -0.385468 -1
      vertex -1.53778 -0.194266 -1
      vertex -3.4228 -0.432399 0
    endloop
  endfacet
  facet normal 0.359415 0.297342 0.884539
    outer loop
      vertex -1.1299 -1.06105 -1
      vertex -1.25398 -0.911067 -1
      vertex -2.51494 -2.36169 0
    endloop
  endfacet
  facet normal 0.115988 0.451815 0.884539
    outer loop
      vertex -0.290441 -1.52254 -1
      vertex -0.478976 -1.47414 -1
      vertex -0.646465 -3.38889 0
    endloop
  endfacet
  facet normal 0.224723 0.408769 0.884538
    outer loop
      vertex -1.46894 -3.12165 0
      vertex -0.830531 -1.30871 -1
      vertex -1.8486 -2.91293 0
    endloop
  endfacet
  facet normal 0.274183 0.377381 0.884538
    outer loop
      vertex -1.8486 -2.91293 0
      vertex -0.830531 -1.30871 -1
      vertex -2.19911 -2.65827 0
    endloop
  endfacet
  facet normal 0.319316 0.340042 0.884538
    outer loop
      vertex -2.19911 -2.65827 0
      vertex -1.1299 -1.06105 -1
      vertex -2.51494 -2.36169 0
    endloop
  endfacet
  facet normal 0.31931 0.340047 0.884539
    outer loop
      vertex -0.988007 -1.19429 -1
      vertex -1.1299 -1.06105 -1
      vertex -2.19911 -2.65827 0
    endloop
  endfacet
  facet normal 0.422071 -0.198611 0.884539
    outer loop
      vertex -1.44115 0.570593 -1
      vertex -3.02326 1.66205 0
      vertex -3.20773 1.27003 0
    endloop
  endfacet
  facet normal 0.465547 -0.0292852 0.884539
    outer loop
      vertex -1.53778 0.194266 -1
      vertex -3.4228 0.432399 0
      vertex -3.45 0 0
    endloop
  endfacet
  facet normal 0.458203 -0.0874134 0.884539
    outer loop
      vertex -1.5013 0.385468 -1
      vertex -3.34161 0.85798 0
      vertex -3.4228 0.432399 0
    endloop
  endfacet
  facet normal 0.274183 -0.377381 0.884538
    outer loop
      vertex -0.830531 1.30871 -1
      vertex -1.8486 2.91293 0
      vertex -2.19911 2.65827 0
    endloop
  endfacet
  facet normal 0.115988 -0.451815 0.884539
    outer loop
      vertex -0.478976 1.47414 -1
      vertex -0.290441 1.52254 -1
      vertex -0.646465 3.38889 0
    endloop
  endfacet
  facet normal 0 -0.466467 0.884538
    outer loop
      vertex 0.216627 3.44319 0
      vertex -0.0973244 1.54694 -1
      vertex 0.0973244 1.54694 -1
    endloop
  endfacet
  facet normal 0 -0.466467 0.884538
    outer loop
      vertex -0.0973244 1.54694 -1
      vertex 0.216627 3.44319 0
      vertex -0.216627 3.44319 0
    endloop
  endfacet
  facet normal -0.224716 -0.408771 0.884539
    outer loop
      vertex 0.830531 1.30871 -1
      vertex 1.46894 3.12165 0
      vertex 0.659958 1.40248 -1
    endloop
  endfacet
  facet normal -0.116009 -0.451812 0.884538
    outer loop
      vertex 1.06611 3.28114 0
      vertex 0.646465 3.38889 0
      vertex 0.478976 1.47414 -1
    endloop
  endfacet
  facet normal -0.171717 -0.433712 0.884538
    outer loop
      vertex 1.46894 3.12165 0
      vertex 1.06611 3.28114 0
      vertex 0.478976 1.47414 -1
    endloop
  endfacet
  facet normal -0.443637 -0.144144 0.884539
    outer loop
      vertex 1.5013 0.385468 -1
      vertex 3.34161 0.85798 0
      vertex 1.44115 0.570593 -1
    endloop
  endfacet
  facet normal -0.393851 -0.249946 0.884538
    outer loop
      vertex 3.02326 1.66205 0
      vertex 2.79111 2.02786 0
      vertex 1.25398 0.911067 -1
    endloop
  endfacet
  facet normal -0.443637 0.144144 0.884539
    outer loop
      vertex 3.34161 -0.85798 0
      vertex 1.5013 -0.385468 -1
      vertex 1.44115 -0.570593 -1
    endloop
  endfacet
  facet normal -0.443637 0.144143 0.884539
    outer loop
      vertex 3.20773 -1.27003 0
      vertex 3.34161 -0.85798 0
      vertex 1.44115 -0.570593 -1
    endloop
  endfacet
  facet normal -0.274193 0.377371 0.884539
    outer loop
      vertex 2.19911 -2.65827 0
      vertex 0.988007 -1.19429 -1
      vertex 0.830531 -1.30871 -1
    endloop
  endfacet
  facet normal -0.0584726 0.462788 0.884538
    outer loop
      vertex 0.216627 -3.44319 0
      vertex 0.290441 -1.52254 -1
      vertex 0.0973244 -1.54694 -1
    endloop
  endfacet
  facet normal -0.171726 0.433706 0.884539
    outer loop
      vertex 1.46894 -3.12165 0
      vertex 0.659958 -1.40248 -1
      vertex 0.478976 -1.47414 -1
    endloop
  endfacet
  facet normal 0.443637 0.144144 0.884539
    outer loop
      vertex -1.44115 -0.570593 -1
      vertex -1.5013 -0.385468 -1
      vertex -3.34161 -0.85798 0
    endloop
  endfacet
  facet normal 0.393851 0.249946 0.884538
    outer loop
      vertex -2.79111 -2.02786 0
      vertex -1.25398 -0.911067 -1
      vertex -3.02326 -1.66205 0
    endloop
  endfacet
  facet normal 0.359418 0.297339 0.884538
    outer loop
      vertex -2.51494 -2.36169 0
      vertex -1.25398 -0.911067 -1
      vertex -2.79111 -2.02786 0
    endloop
  endfacet
  facet normal 0.116009 0.451812 0.884538
    outer loop
      vertex -0.646465 -3.38889 0
      vertex -0.478976 -1.47414 -1
      vertex -1.06611 -3.28114 0
    endloop
  endfacet
  facet normal 0.0584726 0.462788 0.884538
    outer loop
      vertex -0.216627 -3.44319 0
      vertex -0.0973244 -1.54694 -1
      vertex -0.290441 -1.52254 -1
    endloop
  endfacet
  facet normal 0.171726 0.433706 0.884539
    outer loop
      vertex -0.478976 -1.47414 -1
      vertex -0.659958 -1.40248 -1
      vertex -1.46894 -3.12165 0
    endloop
  endfacet
  facet normal 0.422068 -0.198616 0.884539
    outer loop
      vertex -1.44115 0.570593 -1
      vertex -1.35827 0.746717 -1
      vertex -3.02326 1.66205 0
    endloop
  endfacet
  facet normal 0.39386 -0.249928 0.88454
    outer loop
      vertex -1.35827 0.746717 -1
      vertex -1.25398 0.911067 -1
      vertex -3.02326 1.66205 0
    endloop
  endfacet
  facet normal 0.465547 -0.0292845 0.884539
    outer loop
      vertex -1.55 0 -1
      vertex -1.53778 0.194266 -1
      vertex -3.45 0 0
    endloop
  endfacet
  facet normal 0.171726 -0.433706 0.884539
    outer loop
      vertex -0.659958 1.40248 -1
      vertex -0.478976 1.47414 -1
      vertex -1.46894 3.12165 0
    endloop
  endfacet
  facet normal 0.0584625 -0.462788 0.884539
    outer loop
      vertex -0.290441 1.52254 -1
      vertex -0.216627 3.44319 0
      vertex -0.646465 3.38889 0
    endloop
  endfacet
  facet normal -0.274193 -0.377371 0.884539
    outer loop
      vertex 0.988007 1.19429 -1
      vertex 2.19911 2.65827 0
      vertex 0.830531 1.30871 -1
    endloop
  endfacet
  facet normal -0.31931 -0.340047 0.884539
    outer loop
      vertex 1.1299 1.06105 -1
      vertex 2.19911 2.65827 0
      vertex 0.988007 1.19429 -1
    endloop
  endfacet
  facet normal -0.422071 -0.198611 0.884539
    outer loop
      vertex 3.20773 1.27003 0
      vertex 3.02326 1.66205 0
      vertex 1.44115 0.570593 -1
    endloop
  endfacet
  facet normal -0.443637 -0.144143 0.884539
    outer loop
      vertex 3.34161 0.85798 0
      vertex 3.20773 1.27003 0
      vertex 1.44115 0.570593 -1
    endloop
  endfacet
  facet normal -0.422068 0.198616 0.884539
    outer loop
      vertex 3.02326 -1.66205 0
      vertex 1.44115 -0.570593 -1
      vertex 1.35827 -0.746717 -1
    endloop
  endfacet
  facet normal -0.39386 0.249928 0.88454
    outer loop
      vertex 3.02326 -1.66205 0
      vertex 1.35827 -0.746717 -1
      vertex 1.25398 -0.911067 -1
    endloop
  endfacet
  facet normal 0.116009 -0.451812 0.884538
    outer loop
      vertex -0.478976 1.47414 -1
      vertex -0.646465 3.38889 0
      vertex -1.06611 3.28114 0
    endloop
  endfacet
  facet normal 0.171717 -0.433712 0.884538
    outer loop
      vertex -0.478976 1.47414 -1
      vertex -1.06611 3.28114 0
      vertex -1.46894 3.12165 0
    endloop
  endfacet
  facet normal 0.224716 -0.408771 0.884539
    outer loop
      vertex -0.830531 1.30871 -1
      vertex -0.659958 1.40248 -1
      vertex -1.46894 3.12165 0
    endloop
  endfacet
  facet normal 0.0584726 -0.462788 0.884538
    outer loop
      vertex -0.0973244 1.54694 -1
      vertex -0.216627 3.44319 0
      vertex -0.290441 1.52254 -1
    endloop
  endfacet
  facet normal -0.39386 -0.249928 0.88454
    outer loop
      vertex 1.35827 0.746717 -1
      vertex 3.02326 1.66205 0
      vertex 1.25398 0.911067 -1
    endloop
  endfacet
  facet normal -0.422068 -0.198616 0.884539
    outer loop
      vertex 1.44115 0.570593 -1
      vertex 3.02326 1.66205 0
      vertex 1.35827 0.746717 -1
    endloop
  endfacet
  facet normal -0.998026 -0.0627961 0
    outer loop
      vertex 5 0 0
      vertex 4.96057 0.626666 3
      vertex 4.96057 0.626666 0
    endloop
  endfacet
  facet normal -0.998026 -0.0627961 0
    outer loop
      vertex 4.96057 0.626666 3
      vertex 5 0 0
      vertex 5 0 3
    endloop
  endfacet
  facet normal 0.998026 -0.0627961 0
    outer loop
      vertex -5 0 3
      vertex -4.96057 0.626666 0
      vertex -4.96057 0.626666 3
    endloop
  endfacet
  facet normal 0.998026 -0.0627961 0
    outer loop
      vertex -4.96057 0.626666 0
      vertex -5 0 3
      vertex -5 0 0
    endloop
  endfacet
  facet normal 0 -1 0
    outer loop
      vertex -0.313952 4.99013 0
      vertex 0.313952 4.99013 3
      vertex -0.313952 4.99013 3
    endloop
  endfacet
  facet normal 0 -1 -0
    outer loop
      vertex 0.313952 4.99013 3
      vertex -0.313952 4.99013 0
      vertex 0.313952 4.99013 0
    endloop
  endfacet
  facet normal 0 1 -0
    outer loop
      vertex 0.313952 -4.99013 0
      vertex -0.313952 -4.99013 3
      vertex 0.313952 -4.99013 3
    endloop
  endfacet
  facet normal 0 1 0
    outer loop
      vertex -0.313952 -4.99013 3
      vertex 0.313952 -4.99013 0
      vertex -0.313952 -4.99013 0
    endloop
  endfacet
  facet normal -0.684549 -0.728967 0
    outer loop
      vertex 3.18712 3.85257 0
      vertex 3.64484 3.42274 3
      vertex 3.18712 3.85257 3
    endloop
  endfacet
  facet normal -0.684549 -0.728967 -0
    outer loop
      vertex 3.64484 3.42274 3
      vertex 3.18712 3.85257 0
      vertex 3.64484 3.42274 0
    endloop
  endfacet
  facet normal 0.684549 -0.728967 0
    outer loop
      vertex -3.64484 3.42274 0
      vertex -3.18712 3.85257 3
      vertex -3.64484 3.42274 3
    endloop
  endfacet
  facet normal 0.684549 -0.728967 0
    outer loop
      vertex -3.18712 3.85257 3
      vertex -3.64484 3.42274 0
      vertex -3.18712 3.85257 0
    endloop
  endfacet
  facet normal 0.368124 -0.929777 0
    outer loop
      vertex -2.1289 4.52413 0
      vertex -1.54508 4.75528 3
      vertex -2.1289 4.52413 3
    endloop
  endfacet
  facet normal 0.368124 -0.929777 0
    outer loop
      vertex -1.54508 4.75528 3
      vertex -2.1289 4.52413 0
      vertex -1.54508 4.75528 0
    endloop
  endfacet
  facet normal -0.904828 -0.425778 0
    outer loop
      vertex 4.64888 1.84062 0
      vertex 4.38153 2.40877 3
      vertex 4.38153 2.40877 0
    endloop
  endfacet
  facet normal -0.904828 -0.425778 0
    outer loop
      vertex 4.38153 2.40877 3
      vertex 4.64888 1.84062 0
      vertex 4.64888 1.84062 3
    endloop
  endfacet
  facet normal -0.98229 -0.187369 0
    outer loop
      vertex 4.96057 0.626666 0
      vertex 4.84292 1.24345 3
      vertex 4.84292 1.24345 0
    endloop
  endfacet
  facet normal -0.98229 -0.187369 0
    outer loop
      vertex 4.84292 1.24345 3
      vertex 4.96057 0.626666 0
      vertex 4.96057 0.626666 3
    endloop
  endfacet
  facet normal -0.368124 -0.929777 0
    outer loop
      vertex 1.54508 4.75528 0
      vertex 2.1289 4.52413 3
      vertex 1.54508 4.75528 3
    endloop
  endfacet
  facet normal -0.368124 -0.929777 -0
    outer loop
      vertex 2.1289 4.52413 3
      vertex 1.54508 4.75528 0
      vertex 2.1289 4.52413 0
    endloop
  endfacet
  facet normal -0.248701 -0.96858 0
    outer loop
      vertex 0.936906 4.91144 0
      vertex 1.54508 4.75528 3
      vertex 0.936906 4.91144 3
    endloop
  endfacet
  facet normal -0.248701 -0.96858 -0
    outer loop
      vertex 1.54508 4.75528 3
      vertex 0.936906 4.91144 0
      vertex 1.54508 4.75528 0
    endloop
  endfacet
  facet normal -0.481752 -0.876308 0
    outer loop
      vertex 2.1289 4.52413 0
      vertex 2.67913 4.22164 3
      vertex 2.1289 4.52413 3
    endloop
  endfacet
  facet normal -0.481752 -0.876308 -0
    outer loop
      vertex 2.67913 4.22164 3
      vertex 2.1289 4.52413 0
      vertex 2.67913 4.22164 0
    endloop
  endfacet
  facet normal 0.904828 -0.425778 0
    outer loop
      vertex -4.64888 1.84062 3
      vertex -4.38153 2.40877 0
      vertex -4.38153 2.40877 3
    endloop
  endfacet
  facet normal 0.904828 -0.425778 0
    outer loop
      vertex -4.38153 2.40877 0
      vertex -4.64888 1.84062 3
      vertex -4.64888 1.84062 0
    endloop
  endfacet
  facet normal 0.770515 -0.637422 0
    outer loop
      vertex -4.04508 2.93893 3
      vertex -3.64484 3.42274 0
      vertex -3.64484 3.42274 3
    endloop
  endfacet
  facet normal 0.770515 -0.637422 0
    outer loop
      vertex -3.64484 3.42274 0
      vertex -4.04508 2.93893 3
      vertex -4.04508 2.93893 0
    endloop
  endfacet
  facet normal 0.951053 -0.309028 0
    outer loop
      vertex -4.84292 1.24345 3
      vertex -4.64888 1.84062 0
      vertex -4.64888 1.84062 3
    endloop
  endfacet
  facet normal 0.951053 -0.309028 0
    outer loop
      vertex -4.64888 1.84062 0
      vertex -4.84292 1.24345 3
      vertex -4.84292 1.24345 0
    endloop
  endfacet
  facet normal 0.248701 -0.96858 0
    outer loop
      vertex -1.54508 4.75528 0
      vertex -0.936906 4.91144 3
      vertex -1.54508 4.75528 3
    endloop
  endfacet
  facet normal 0.248701 -0.96858 0
    outer loop
      vertex -0.936906 4.91144 3
      vertex -1.54508 4.75528 0
      vertex -0.936906 4.91144 0
    endloop
  endfacet
  facet normal -0.125322 0.992116 0
    outer loop
      vertex 0.936906 -4.91144 0
      vertex 0.313952 -4.99013 3
      vertex 0.936906 -4.91144 3
    endloop
  endfacet
  facet normal -0.125322 0.992116 0
    outer loop
      vertex 0.313952 -4.99013 3
      vertex 0.936906 -4.91144 0
      vertex 0.313952 -4.99013 0
    endloop
  endfacet
  facet normal -0.951053 -0.309028 0
    outer loop
      vertex 4.84292 1.24345 0
      vertex 4.64888 1.84062 3
      vertex 4.64888 1.84062 0
    endloop
  endfacet
  facet normal -0.951053 -0.309028 0
    outer loop
      vertex 4.64888 1.84062 3
      vertex 4.84292 1.24345 0
      vertex 4.84292 1.24345 3
    endloop
  endfacet
  facet normal -0.770515 -0.637422 0
    outer loop
      vertex 4.04508 2.93893 0
      vertex 3.64484 3.42274 3
      vertex 3.64484 3.42274 0
    endloop
  endfacet
  facet normal -0.770515 -0.637422 0
    outer loop
      vertex 3.64484 3.42274 3
      vertex 4.04508 2.93893 0
      vertex 4.04508 2.93893 3
    endloop
  endfacet
  facet normal -0.844328 -0.535827 0
    outer loop
      vertex 4.38153 2.40877 0
      vertex 4.04508 2.93893 3
      vertex 4.04508 2.93893 0
    endloop
  endfacet
  facet normal -0.844328 -0.535827 0
    outer loop
      vertex 4.04508 2.93893 3
      vertex 4.38153 2.40877 0
      vertex 4.38153 2.40877 3
    endloop
  endfacet
  facet normal -0.125322 -0.992116 0
    outer loop
      vertex 0.313952 4.99013 0
      vertex 0.936906 4.91144 3
      vertex 0.313952 4.99013 3
    endloop
  endfacet
  facet normal -0.125322 -0.992116 -0
    outer loop
      vertex 0.936906 4.91144 3
      vertex 0.313952 4.99013 0
      vertex 0.936906 4.91144 0
    endloop
  endfacet
  facet normal -0.587779 -0.809022 0
    outer loop
      vertex 2.67913 4.22164 0
      vertex 3.18712 3.85257 3
      vertex 2.67913 4.22164 3
    endloop
  endfacet
  facet normal -0.587779 -0.809022 -0
    outer loop
      vertex 3.18712 3.85257 3
      vertex 2.67913 4.22164 0
      vertex 3.18712 3.85257 0
    endloop
  endfacet
  facet normal 0.844328 -0.535827 0
    outer loop
      vertex -4.38153 2.40877 3
      vertex -4.04508 2.93893 0
      vertex -4.04508 2.93893 3
    endloop
  endfacet
  facet normal 0.844328 -0.535827 0
    outer loop
      vertex -4.04508 2.93893 0
      vertex -4.38153 2.40877 3
      vertex -4.38153 2.40877 0
    endloop
  endfacet
  facet normal 0.98229 -0.187369 0
    outer loop
      vertex -4.96057 0.626666 3
      vertex -4.84292 1.24345 0
      vertex -4.84292 1.24345 3
    endloop
  endfacet
  facet normal 0.98229 -0.187369 0
    outer loop
      vertex -4.84292 1.24345 0
      vertex -4.96057 0.626666 3
      vertex -4.96057 0.626666 0
    endloop
  endfacet
  facet normal 0 0 1
    outer loop
      vertex 5 0 3
      vertex 15 0 3
      vertex 14.8817 1.88 3
    endloop
  endfacet
  facet normal 0 0 1
    outer loop
      vertex 4.96057 0.626666 3
      vertex 14.8817 1.88 3
      vertex 14.5287 3.73035 3
    endloop
  endfacet
  facet normal 0 0 1
    outer loop
      vertex 15 0 3
      vertex 5 0 3
      vertex 14.8817 -1.88 3
    endloop
  endfacet
  facet normal 0 0 1
    outer loop
      vertex 4.84292 1.24345 3
      vertex 14.5287 3.73035 3
      vertex 13.9466 5.52187 3
    endloop
  endfacet
  facet normal -0 0 1
    outer loop
      vertex 4.96057 -0.626666 3
      vertex 14.8817 -1.88 3
      vertex 5 0 3
    endloop
  endfacet
  facet normal 0 0 1
    outer loop
      vertex 4.64888 1.84062 3
      vertex 13.9466 5.52187 3
      vertex 13.1446 7.22631 3
    endloop
  endfacet
  facet normal 0 0 1
    outer loop
      vertex 14.8817 -1.88 3
      vertex 4.96057 -0.626666 3
      vertex 14.5287 -3.73035 3
    endloop
  endfacet
  facet normal 0 0 1
    outer loop
      vertex 4.38153 2.40877 3
      vertex 13.1446 7.22631 3
      vertex 12.1353 8.81678 3
    endloop
  endfacet
  facet normal -0 0 1
    outer loop
      vertex 4.84292 -1.24345 3
      vertex 14.5287 -3.73035 3
      vertex 4.96057 -0.626666 3
    endloop
  endfacet
  facet normal 0 0 1
    outer loop
      vertex 4.04508 2.93893 3
      vertex 12.1353 8.81678 3
      vertex 10.9345 10.2682 3
    endloop
  endfacet
  facet normal 0 0 1
    outer loop
      vertex 14.5287 -3.73035 3
      vertex 4.84292 -1.24345 3
      vertex 13.9466 -5.52187 3
    endloop
  endfacet
  facet normal 0 0 1
    outer loop
      vertex 3.64484 3.42274 3
      vertex 10.9345 10.2682 3
      vertex 9.56136 11.5577 3
    endloop
  endfacet
  facet normal -0 0 1
    outer loop
      vertex 4.64888 -1.84062 3
      vertex 13.9466 -5.52187 3
      vertex 4.84292 -1.24345 3
    endloop
  endfacet
  facet normal 0 0 1
    outer loop
      vertex 3.18712 3.85257 3
      vertex 9.56136 11.5577 3
      vertex 8.0374 12.6649 3
    endloop
  endfacet
  facet normal 0 0 1
    outer loop
      vertex 13.9466 -5.52187 3
      vertex 4.64888 -1.84062 3
      vertex 13.1446 -7.22631 3
    endloop
  endfacet
  facet normal 0 0 1
    outer loop
      vertex 2.67913 4.22164 3
      vertex 8.0374 12.6649 3
      vertex 6.38669 13.5724 3
    endloop
  endfacet
  facet normal -0 0 1
    outer loop
      vertex 4.38153 -2.40877 3
      vertex 13.1446 -7.22631 3
      vertex 4.64888 -1.84062 3
    endloop
  endfacet
  facet normal 0 0 1
    outer loop
      vertex 13.1446 -7.22631 3
      vertex 4.38153 -2.40877 3
      vertex 12.1353 -8.81678 3
    endloop
  endfacet
  facet normal 0 0 1
    outer loop
      vertex 14.8817 1.88 3
      vertex 4.96057 0.626666 3
      vertex 5 0 3
    endloop
  endfacet
  facet normal 0 0 1
    outer loop
      vertex 14.5287 3.73035 3
      vertex 4.84292 1.24345 3
      vertex 4.96057 0.626666 3
    endloop
  endfacet
  facet normal 0 0 1
    outer loop
      vertex 13.9466 5.52187 3
      vertex 4.64888 1.84062 3
      vertex 4.84292 1.24345 3
    endloop
  endfacet
  facet normal 0 0 1
    outer loop
      vertex 2.1289 4.52413 3
      vertex 6.38669 13.5724 3
      vertex 4.63525 14.2658 3
    endloop
  endfacet
  facet normal 0 0 1
    outer loop
      vertex 13.1446 7.22631 3
      vertex 4.38153 2.40877 3
      vertex 4.64888 1.84062 3
    endloop
  endfacet
  facet normal 0 0 1
    outer loop
      vertex 12.1353 8.81678 3
      vertex 4.04508 2.93893 3
      vertex 4.38153 2.40877 3
    endloop
  endfacet
  facet normal 0 0 1
    outer loop
      vertex 10.9345 10.2682 3
      vertex 3.64484 3.42274 3
      vertex 4.04508 2.93893 3
    endloop
  endfacet
  facet normal 0 0 1
    outer loop
      vertex 9.56136 11.5577 3
      vertex 3.18712 3.85257 3
      vertex 3.64484 3.42274 3
    endloop
  endfacet
  facet normal 0 0 1
    outer loop
      vertex 1.54508 4.75528 3
      vertex 4.63525 14.2658 3
      vertex 2.81072 14.7343 3
    endloop
  endfacet
  facet normal 0 0 1
    outer loop
      vertex 8.0374 12.6649 3
      vertex 2.67913 4.22164 3
      vertex 3.18712 3.85257 3
    endloop
  endfacet
  facet normal 0 0 1
    outer loop
      vertex 6.38669 13.5724 3
      vertex 2.1289 4.52413 3
      vertex 2.67913 4.22164 3
    endloop
  endfacet
  facet normal 0 0 1
    outer loop
      vertex 4.63525 14.2658 3
      vertex 1.54508 4.75528 3
      vertex 2.1289 4.52413 3
    endloop
  endfacet
  facet normal 0 0 1
    outer loop
      vertex 0.936906 4.91144 3
      vertex 2.81072 14.7343 3
      vertex 0.941857 14.9704 3
    endloop
  endfacet
  facet normal 0 0 1
    outer loop
      vertex 2.81072 14.7343 3
      vertex 0.936906 4.91144 3
      vertex 1.54508 4.75528 3
    endloop
  endfacet
  facet normal 0 0 1
    outer loop
      vertex 0.941857 14.9704 3
      vertex 0.313952 4.99013 3
      vertex 0.936906 4.91144 3
    endloop
  endfacet
  facet normal 0 0 1
    outer loop
      vertex 0.941857 14.9704 3
      vertex -0.313952 4.99013 3
      vertex 0.313952 4.99013 3
    endloop
  endfacet
  facet normal -0 0 1
    outer loop
      vertex -0.941857 14.9704 3
      vertex -0.313952 4.99013 3
      vertex 0.941857 14.9704 3
    endloop
  endfacet
  facet normal 0 0 1
    outer loop
      vertex -0.313952 4.99013 3
      vertex -0.941857 14.9704 3
      vertex -0.936906 4.91144 3
    endloop
  endfacet
  facet normal -0 0 1
    outer loop
      vertex -2.81072 14.7343 3
      vertex -0.936906 4.91144 3
      vertex -0.941857 14.9704 3
    endloop
  endfacet
  facet normal 0 0 1
    outer loop
      vertex -0.936906 4.91144 3
      vertex -2.81072 14.7343 3
      vertex -1.54508 4.75528 3
    endloop
  endfacet
  facet normal -0 0 1
    outer loop
      vertex -4.63525 14.2658 3
      vertex -1.54508 4.75528 3
      vertex -2.81072 14.7343 3
    endloop
  endfacet
  facet normal 0 0 1
    outer loop
      vertex -1.54508 4.75528 3
      vertex -4.63525 14.2658 3
      vertex -2.1289 4.52413 3
    endloop
  endfacet
  facet normal -0 0 1
    outer loop
      vertex -6.38669 13.5724 3
      vertex -2.1289 4.52413 3
      vertex -4.63525 14.2658 3
    endloop
  endfacet
  facet normal 0 0 1
    outer loop
      vertex -2.1289 4.52413 3
      vertex -6.38669 13.5724 3
      vertex -2.67913 4.22164 3
    endloop
  endfacet
  facet normal -0 0 1
    outer loop
      vertex -8.0374 12.6649 3
      vertex -2.67913 4.22164 3
      vertex -6.38669 13.5724 3
    endloop
  endfacet
  facet normal 0 0 1
    outer loop
      vertex -2.67913 4.22164 3
      vertex -8.0374 12.6649 3
      vertex -3.18712 3.85257 3
    endloop
  endfacet
  facet normal -0 0 1
    outer loop
      vertex -9.56136 11.5577 3
      vertex -3.18712 3.85257 3
      vertex -8.0374 12.6649 3
    endloop
  endfacet
  facet normal 0 0 1
    outer loop
      vertex -3.18712 3.85257 3
      vertex -9.56136 11.5577 3
      vertex -3.64484 3.42274 3
    endloop
  endfacet
  facet normal -0 0 1
    outer loop
      vertex -10.9345 10.2682 3
      vertex -3.64484 3.42274 3
      vertex -9.56136 11.5577 3
    endloop
  endfacet
  facet normal 0 0 1
    outer loop
      vertex -3.64484 3.42274 3
      vertex -10.9345 10.2682 3
      vertex -4.04508 2.93893 3
    endloop
  endfacet
  facet normal -0 0 1
    outer loop
      vertex -12.1353 8.81678 3
      vertex -4.04508 2.93893 3
      vertex -10.9345 10.2682 3
    endloop
  endfacet
  facet normal 0 0 1
    outer loop
      vertex -4.04508 2.93893 3
      vertex -12.1353 8.81678 3
      vertex -4.38153 2.40877 3
    endloop
  endfacet
  facet normal -0 0 1
    outer loop
      vertex 4.04508 -2.93893 3
      vertex 12.1353 -8.81678 3
      vertex 4.38153 -2.40877 3
    endloop
  endfacet
  facet normal 0 0 1
    outer loop
      vertex 12.1353 -8.81678 3
      vertex 4.04508 -2.93893 3
      vertex 10.9345 -10.2682 3
    endloop
  endfacet
  facet normal -0 0 1
    outer loop
      vertex 3.64484 -3.42274 3
      vertex 10.9345 -10.2682 3
      vertex 4.04508 -2.93893 3
    endloop
  endfacet
  facet normal 0 0 1
    outer loop
      vertex 10.9345 -10.2682 3
      vertex 3.64484 -3.42274 3
      vertex 9.56136 -11.5577 3
    endloop
  endfacet
  facet normal -0 0 1
    outer loop
      vertex 3.18712 -3.85257 3
      vertex 9.56136 -11.5577 3
      vertex 3.64484 -3.42274 3
    endloop
  endfacet
  facet normal 0 0 1
    outer loop
      vertex 9.56136 -11.5577 3
      vertex 3.18712 -3.85257 3
      vertex 8.0374 -12.6649 3
    endloop
  endfacet
  facet normal -0 0 1
    outer loop
      vertex 2.67913 -4.22164 3
      vertex 8.0374 -12.6649 3
      vertex 3.18712 -3.85257 3
    endloop
  endfacet
  facet normal 0 0 1
    outer loop
      vertex 8.0374 -12.6649 3
      vertex 2.67913 -4.22164 3
      vertex 6.38669 -13.5724 3
    endloop
  endfacet
  facet normal -0 0 1
    outer loop
      vertex 2.1289 -4.52413 3
      vertex 6.38669 -13.5724 3
      vertex 2.67913 -4.22164 3
    endloop
  endfacet
  facet normal 0 0 1
    outer loop
      vertex 6.38669 -13.5724 3
      vertex 2.1289 -4.52413 3
      vertex 4.63525 -14.2658 3
    endloop
  endfacet
  facet normal -0 0 1
    outer loop
      vertex 1.54508 -4.75528 3
      vertex 4.63525 -14.2658 3
      vertex 2.1289 -4.52413 3
    endloop
  endfacet
  facet normal 0 0 1
    outer loop
      vertex 4.63525 -14.2658 3
      vertex 1.54508 -4.75528 3
      vertex 2.81072 -14.7343 3
    endloop
  endfacet
  facet normal -0 0 1
    outer loop
      vertex 0.936906 -4.91144 3
      vertex 2.81072 -14.7343 3
      vertex 1.54508 -4.75528 3
    endloop
  endfacet
  facet normal 0 0 1
    outer loop
      vertex 2.81072 -14.7343 3
      vertex 0.936906 -4.91144 3
      vertex 0.941857 -14.9704 3
    endloop
  endfacet
  facet normal -0 0 1
    outer loop
      vertex 0.313952 -4.99013 3
      vertex 0.941857 -14.9704 3
      vertex 0.936906 -4.91144 3
    endloop
  endfacet
  facet normal -0 0 1
    outer loop
      vertex -0.313952 -4.99013 3
      vertex 0.941857 -14.9704 3
      vertex 0.313952 -4.99013 3
    endloop
  endfacet
  facet normal 0 0 1
    outer loop
      vertex -0.941857 -14.9704 3
      vertex -0.313952 -4.99013 3
      vertex -0.936906 -4.91144 3
    endloop
  endfacet
  facet normal 0 0 1
    outer loop
      vertex -0.313952 -4.99013 3
      vertex -0.941857 -14.9704 3
      vertex 0.941857 -14.9704 3
    endloop
  endfacet
  facet normal 0 0 1
    outer loop
      vertex -2.81072 -14.7343 3
      vertex -0.936906 -4.91144 3
      vertex -1.54508 -4.75528 3
    endloop
  endfacet
  facet normal 0 0 1
    outer loop
      vertex -4.63525 -14.2658 3
      vertex -1.54508 -4.75528 3
      vertex -2.1289 -4.52413 3
    endloop
  endfacet
  facet normal 0 0 1
    outer loop
      vertex -6.38669 -13.5724 3
      vertex -2.1289 -4.52413 3
      vertex -2.67913 -4.22164 3
    endloop
  endfacet
  facet normal 0 0 1
    outer loop
      vertex -0.936906 -4.91144 3
      vertex -2.81072 -14.7343 3
      vertex -0.941857 -14.9704 3
    endloop
  endfacet
  facet normal 0 0 1
    outer loop
      vertex -8.0374 -12.6649 3
      vertex -2.67913 -4.22164 3
      vertex -3.18712 -3.85257 3
    endloop
  endfacet
  facet normal 0 0 1
    outer loop
      vertex -9.56136 -11.5577 3
      vertex -3.18712 -3.85257 3
      vertex -3.64484 -3.42274 3
    endloop
  endfacet
  facet normal 0 0 1
    outer loop
      vertex -10.9345 -10.2682 3
      vertex -3.64484 -3.42274 3
      vertex -4.04508 -2.93893 3
    endloop
  endfacet
  facet normal 0 0 1
    outer loop
      vertex -12.1353 -8.81678 3
      vertex -4.04508 -2.93893 3
      vertex -4.38153 -2.40877 3
    endloop
  endfacet
  facet normal 0 0 1
    outer loop
      vertex -1.54508 -4.75528 3
      vertex -4.63525 -14.2658 3
      vertex -2.81072 -14.7343 3
    endloop
  endfacet
  facet normal 0 0 1
    outer loop
      vertex -13.1446 -7.22631 3
      vertex -4.38153 -2.40877 3
      vertex -4.64888 -1.84062 3
    endloop
  endfacet
  facet normal 0 0 1
    outer loop
      vertex -13.9466 -5.52187 3
      vertex -4.64888 -1.84062 3
      vertex -4.84292 -1.24345 3
    endloop
  endfacet
  facet normal 0 0 1
    outer loop
      vertex -14.5287 -3.73035 3
      vertex -4.84292 -1.24345 3
      vertex -4.96057 -0.626666 3
    endloop
  endfacet
  facet normal 0 0 1
    outer loop
      vertex -14.8817 -1.88 3
      vertex -4.96057 -0.626666 3
      vertex -5 0 3
    endloop
  endfacet
  facet normal -0 0 1
    outer loop
      vertex -13.1446 7.22631 3
      vertex -4.38153 2.40877 3
      vertex -12.1353 8.81678 3
    endloop
  endfacet
  facet normal 0 0 1
    outer loop
      vertex -2.1289 -4.52413 3
      vertex -6.38669 -13.5724 3
      vertex -4.63525 -14.2658 3
    endloop
  endfacet
  facet normal 0 0 1
    outer loop
      vertex -4.38153 2.40877 3
      vertex -13.1446 7.22631 3
      vertex -4.64888 1.84062 3
    endloop
  endfacet
  facet normal 0 0 1
    outer loop
      vertex -2.67913 -4.22164 3
      vertex -8.0374 -12.6649 3
      vertex -6.38669 -13.5724 3
    endloop
  endfacet
  facet normal -0 0 1
    outer loop
      vertex -13.9466 5.52187 3
      vertex -4.64888 1.84062 3
      vertex -13.1446 7.22631 3
    endloop
  endfacet
  facet normal 0 0 1
    outer loop
      vertex -3.18712 -3.85257 3
      vertex -9.56136 -11.5577 3
      vertex -8.0374 -12.6649 3
    endloop
  endfacet
  facet normal 0 0 1
    outer loop
      vertex -4.64888 1.84062 3
      vertex -13.9466 5.52187 3
      vertex -4.84292 1.24345 3
    endloop
  endfacet
  facet normal 0 0 1
    outer loop
      vertex -3.64484 -3.42274 3
      vertex -10.9345 -10.2682 3
      vertex -9.56136 -11.5577 3
    endloop
  endfacet
  facet normal -0 0 1
    outer loop
      vertex -14.5287 3.73035 3
      vertex -4.84292 1.24345 3
      vertex -13.9466 5.52187 3
    endloop
  endfacet
  facet normal 0 0 1
    outer loop
      vertex -4.04508 -2.93893 3
      vertex -12.1353 -8.81678 3
      vertex -10.9345 -10.2682 3
    endloop
  endfacet
  facet normal 0 0 1
    outer loop
      vertex -4.84292 1.24345 3
      vertex -14.5287 3.73035 3
      vertex -4.96057 0.626666 3
    endloop
  endfacet
  facet normal 0 0 1
    outer loop
      vertex -4.38153 -2.40877 3
      vertex -13.1446 -7.22631 3
      vertex -12.1353 -8.81678 3
    endloop
  endfacet
  facet normal -0 0 1
    outer loop
      vertex -14.8817 1.88 3
      vertex -4.96057 0.626666 3
      vertex -14.5287 3.73035 3
    endloop
  endfacet
  facet normal 0 0 1
    outer loop
      vertex -4.64888 -1.84062 3
      vertex -13.9466 -5.52187 3
      vertex -13.1446 -7.22631 3
    endloop
  endfacet
  facet normal 0 0 1
    outer loop
      vertex -4.96057 0.626666 3
      vertex -14.8817 1.88 3
      vertex -5 0 3
    endloop
  endfacet
  facet normal 0 0 1
    outer loop
      vertex -4.84292 -1.24345 3
      vertex -14.5287 -3.73035 3
      vertex -13.9466 -5.52187 3
    endloop
  endfacet
  facet normal 0 0 1
    outer loop
      vertex -15 0 3
      vertex -5 0 3
      vertex -14.8817 1.88 3
    endloop
  endfacet
  facet normal 0 0 1
    outer loop
      vertex -4.96057 -0.626666 3
      vertex -14.8817 -1.88 3
      vertex -14.5287 -3.73035 3
    endloop
  endfacet
  facet normal 0 0 1
    outer loop
      vertex -5 0 3
      vertex -15 0 3
      vertex -14.8817 -1.88 3
    endloop
  endfacet
  facet normal 0.481752 -0.876308 0
    outer loop
      vertex -2.67913 4.22164 0
      vertex -2.1289 4.52413 3
      vertex -2.67913 4.22164 3
    endloop
  endfacet
  facet normal 0.481752 -0.876308 0
    outer loop
      vertex -2.1289 4.52413 3
      vertex -2.67913 4.22164 0
      vertex -2.1289 4.52413 0
    endloop
  endfacet
  facet normal 0.587779 -0.809022 0
    outer loop
      vertex -3.18712 3.85257 0
      vertex -2.67913 4.22164 3
      vertex -3.18712 3.85257 3
    endloop
  endfacet
  facet normal 0.587779 -0.809022 0
    outer loop
      vertex -2.67913 4.22164 3
      vertex -3.18712 3.85257 0
      vertex -2.67913 4.22164 0
    endloop
  endfacet
  facet normal 0.125322 -0.992116 0
    outer loop
      vertex -0.936906 4.91144 0
      vertex -0.313952 4.99013 3
      vertex -0.936906 4.91144 3
    endloop
  endfacet
  facet normal 0.125322 -0.992116 0
    outer loop
      vertex -0.313952 4.99013 3
      vertex -0.936906 4.91144 0
      vertex -0.313952 4.99013 0
    endloop
  endfacet
  facet normal -0.998026 0.0627961 0
    outer loop
      vertex 4.96057 -0.626666 0
      vertex 5 0 3
      vertex 5 0 0
    endloop
  endfacet
  facet normal -0.998026 0.0627961 0
    outer loop
      vertex 5 0 3
      vertex 4.96057 -0.626666 0
      vertex 4.96057 -0.626666 3
    endloop
  endfacet
  facet normal -0.98229 0.187369 0
    outer loop
      vertex 4.84292 -1.24345 0
      vertex 4.96057 -0.626666 3
      vertex 4.96057 -0.626666 0
    endloop
  endfacet
  facet normal -0.98229 0.187369 0
    outer loop
      vertex 4.96057 -0.626666 3
      vertex 4.84292 -1.24345 0
      vertex 4.84292 -1.24345 3
    endloop
  endfacet
  facet normal 0.684549 0.728967 -0
    outer loop
      vertex -3.18712 -3.85257 0
      vertex -3.64484 -3.42274 3
      vertex -3.18712 -3.85257 3
    endloop
  endfacet
  facet normal 0.684549 0.728967 0
    outer loop
      vertex -3.64484 -3.42274 3
      vertex -3.18712 -3.85257 0
      vertex -3.64484 -3.42274 0
    endloop
  endfacet
  facet normal 0.770515 0.637422 0
    outer loop
      vertex -3.64484 -3.42274 3
      vertex -4.04508 -2.93893 0
      vertex -4.04508 -2.93893 3
    endloop
  endfacet
  facet normal 0.770515 0.637422 0
    outer loop
      vertex -4.04508 -2.93893 0
      vertex -3.64484 -3.42274 3
      vertex -3.64484 -3.42274 0
    endloop
  endfacet
  facet normal -0.481752 0.876308 0
    outer loop
      vertex 2.67913 -4.22164 0
      vertex 2.1289 -4.52413 3
      vertex 2.67913 -4.22164 3
    endloop
  endfacet
  facet normal -0.481752 0.876308 0
    outer loop
      vertex 2.1289 -4.52413 3
      vertex 2.67913 -4.22164 0
      vertex 2.1289 -4.52413 0
    endloop
  endfacet
  facet normal -0.904828 0.425778 0
    outer loop
      vertex 4.38153 -2.40877 0
      vertex 4.64888 -1.84062 3
      vertex 4.64888 -1.84062 0
    endloop
  endfacet
  facet normal -0.904828 0.425778 0
    outer loop
      vertex 4.64888 -1.84062 3
      vertex 4.38153 -2.40877 0
      vertex 4.38153 -2.40877 3
    endloop
  endfacet
  facet normal 0.951053 0.309028 0
    outer loop
      vertex -4.64888 -1.84062 3
      vertex -4.84292 -1.24345 0
      vertex -4.84292 -1.24345 3
    endloop
  endfacet
  facet normal 0.951053 0.309028 0
    outer loop
      vertex -4.84292 -1.24345 0
      vertex -4.64888 -1.84062 3
      vertex -4.64888 -1.84062 0
    endloop
  endfacet
  facet normal -0.684549 0.728967 0
    outer loop
      vertex 3.64484 -3.42274 0
      vertex 3.18712 -3.85257 3
      vertex 3.64484 -3.42274 3
    endloop
  endfacet
  facet normal -0.684549 0.728967 0
    outer loop
      vertex 3.18712 -3.85257 3
      vertex 3.64484 -3.42274 0
      vertex 3.18712 -3.85257 0
    endloop
  endfacet
  facet normal -0.368124 0.929777 0
    outer loop
      vertex 2.1289 -4.52413 0
      vertex 1.54508 -4.75528 3
      vertex 2.1289 -4.52413 3
    endloop
  endfacet
  facet normal -0.368124 0.929777 0
    outer loop
      vertex 1.54508 -4.75528 3
      vertex 2.1289 -4.52413 0
      vertex 1.54508 -4.75528 0
    endloop
  endfacet
  facet normal -0.248701 0.96858 0
    outer loop
      vertex 1.54508 -4.75528 0
      vertex 0.936906 -4.91144 3
      vertex 1.54508 -4.75528 3
    endloop
  endfacet
  facet normal -0.248701 0.96858 0
    outer loop
      vertex 0.936906 -4.91144 3
      vertex 1.54508 -4.75528 0
      vertex 0.936906 -4.91144 0
    endloop
  endfacet
  facet normal -0.844328 0.535827 0
    outer loop
      vertex 4.04508 -2.93893 0
      vertex 4.38153 -2.40877 3
      vertex 4.38153 -2.40877 0
    endloop
  endfacet
  facet normal -0.844328 0.535827 0
    outer loop
      vertex 4.38153 -2.40877 3
      vertex 4.04508 -2.93893 0
      vertex 4.04508 -2.93893 3
    endloop
  endfacet
  facet normal -0.770515 0.637422 0
    outer loop
      vertex 3.64484 -3.42274 0
      vertex 4.04508 -2.93893 3
      vertex 4.04508 -2.93893 0
    endloop
  endfacet
  facet normal -0.770515 0.637422 0
    outer loop
      vertex 4.04508 -2.93893 3
      vertex 3.64484 -3.42274 0
      vertex 3.64484 -3.42274 3
    endloop
  endfacet
  facet normal -0.951053 0.309028 0
    outer loop
      vertex 4.64888 -1.84062 0
      vertex 4.84292 -1.24345 3
      vertex 4.84292 -1.24345 0
    endloop
  endfacet
  facet normal -0.951053 0.309028 0
    outer loop
      vertex 4.84292 -1.24345 3
      vertex 4.64888 -1.84062 0
      vertex 4.64888 -1.84062 3
    endloop
  endfacet
  facet normal 0.125322 0.992116 -0
    outer loop
      vertex -0.313952 -4.99013 0
      vertex -0.936906 -4.91144 3
      vertex -0.313952 -4.99013 3
    endloop
  endfacet
  facet normal 0.125322 0.992116 0
    outer loop
      vertex -0.936906 -4.91144 3
      vertex -0.313952 -4.99013 0
      vertex -0.936906 -4.91144 0
    endloop
  endfacet
  facet normal 0.248701 0.96858 -0
    outer loop
      vertex -0.936906 -4.91144 0
      vertex -1.54508 -4.75528 3
      vertex -0.936906 -4.91144 3
    endloop
  endfacet
  facet normal 0.248701 0.96858 0
    outer loop
      vertex -1.54508 -4.75528 3
      vertex -0.936906 -4.91144 0
      vertex -1.54508 -4.75528 0
    endloop
  endfacet
  facet normal 0.844328 0.535827 0
    outer loop
      vertex -4.04508 -2.93893 3
      vertex -4.38153 -2.40877 0
      vertex -4.38153 -2.40877 3
    endloop
  endfacet
  facet normal 0.844328 0.535827 0
    outer loop
      vertex -4.38153 -2.40877 0
      vertex -4.04508 -2.93893 3
      vertex -4.04508 -2.93893 0
    endloop
  endfacet
  facet normal 0.904828 0.425778 0
    outer loop
      vertex -4.38153 -2.40877 3
      vertex -4.64888 -1.84062 0
      vertex -4.64888 -1.84062 3
    endloop
  endfacet
  facet normal 0.904828 0.425778 0
    outer loop
      vertex -4.64888 -1.84062 0
      vertex -4.38153 -2.40877 3
      vertex -4.38153 -2.40877 0
    endloop
  endfacet
  facet normal 0.98229 0.187369 0
    outer loop
      vertex -4.84292 -1.24345 3
      vertex -4.96057 -0.626666 0
      vertex -4.96057 -0.626666 3
    endloop
  endfacet
  facet normal 0.98229 0.187369 0
    outer loop
      vertex -4.96057 -0.626666 0
      vertex -4.84292 -1.24345 3
      vertex -4.84292 -1.24345 0
    endloop
  endfacet
  facet normal 0.998026 0.0627961 0
    outer loop
      vertex -4.96057 -0.626666 3
      vertex -5 0 0
      vertex -5 0 3
    endloop
  endfacet
  facet normal 0.998026 0.0627961 0
    outer loop
      vertex -5 0 0
      vertex -4.96057 -0.626666 3
      vertex -4.96057 -0.626666 0
    endloop
  endfacet
  facet normal -0.587779 0.809022 0
    outer loop
      vertex 3.18712 -3.85257 0
      vertex 2.67913 -4.22164 3
      vertex 3.18712 -3.85257 3
    endloop
  endfacet
  facet normal -0.587779 0.809022 0
    outer loop
      vertex 2.67913 -4.22164 3
      vertex 3.18712 -3.85257 0
      vertex 2.67913 -4.22164 0
    endloop
  endfacet
  facet normal 0.587779 0.809022 -0
    outer loop
      vertex -2.67913 -4.22164 0
      vertex -3.18712 -3.85257 3
      vertex -2.67913 -4.22164 3
    endloop
  endfacet
  facet normal 0.587779 0.809022 0
    outer loop
      vertex -3.18712 -3.85257 3
      vertex -2.67913 -4.22164 0
      vertex -3.18712 -3.85257 0
    endloop
  endfacet
  facet normal 0.368124 0.929777 -0
    outer loop
      vertex -1.54508 -4.75528 0
      vertex -2.1289 -4.52413 3
      vertex -1.54508 -4.75528 3
    endloop
  endfacet
  facet normal 0.368124 0.929777 0
    outer loop
      vertex -2.1289 -4.52413 3
      vertex -1.54508 -4.75528 0
      vertex -2.1289 -4.52413 0
    endloop
  endfacet
  facet normal 0.481752 0.876308 -0
    outer loop
      vertex -2.1289 -4.52413 0
      vertex -2.67913 -4.22164 3
      vertex -2.1289 -4.52413 3
    endloop
  endfacet
  facet normal 0.481752 0.876308 0
    outer loop
      vertex -2.67913 -4.22164 3
      vertex -2.1289 -4.52413 0
      vertex -2.67913 -4.22164 0
    endloop
  endfacet
  facet normal 0.998026 0.0628013 0
    outer loop
      vertex 15 0 3
      vertex 14.8817 1.88 -1
      vertex 14.8817 1.88 3
    endloop
  endfacet
  facet normal 0.998026 0.0628013 0
    outer loop
      vertex 14.8817 1.88 -1
      vertex 15 0 3
      vertex 15 0 -1
    endloop
  endfacet
  facet normal -0.998026 0.0628013 0
    outer loop
      vertex -15 0 -1
      vertex -14.8817 1.88 3
      vertex -14.8817 1.88 -1
    endloop
  endfacet
  facet normal -0.998026 0.0628013 0
    outer loop
      vertex -14.8817 1.88 3
      vertex -15 0 -1
      vertex -15 0 3
    endloop
  endfacet
  facet normal 0 1 -0
    outer loop
      vertex 0.941857 14.9704 -1
      vertex -0.941857 14.9704 3
      vertex 0.941857 14.9704 3
    endloop
  endfacet
  facet normal 0 1 0
    outer loop
      vertex -0.941857 14.9704 3
      vertex 0.941857 14.9704 -1
      vertex -0.941857 14.9704 -1
    endloop
  endfacet
  facet normal 0.684557 0.728959 -0
    outer loop
      vertex 10.9345 10.2682 -1
      vertex 9.56136 11.5577 3
      vertex 10.9345 10.2682 3
    endloop
  endfacet
  facet normal 0.684557 0.728959 0
    outer loop
      vertex 9.56136 11.5577 3
      vertex 10.9345 10.2682 -1
      vertex 9.56136 11.5577 -1
    endloop
  endfacet
  facet normal -0.684557 0.728959 0
    outer loop
      vertex -9.56136 11.5577 -1
      vertex -10.9345 10.2682 3
      vertex -9.56136 11.5577 3
    endloop
  endfacet
  facet normal -0.684557 0.728959 0
    outer loop
      vertex -10.9345 10.2682 3
      vertex -9.56136 11.5577 -1
      vertex -10.9345 10.2682 -1
    endloop
  endfacet
  facet normal -0.368104 0.929785 0
    outer loop
      vertex -4.63525 14.2658 -1
      vertex -6.38669 13.5724 3
      vertex -4.63525 14.2658 3
    endloop
  endfacet
  facet normal -0.368104 0.929785 0
    outer loop
      vertex -6.38669 13.5724 3
      vertex -4.63525 14.2658 -1
      vertex -6.38669 13.5724 -1
    endloop
  endfacet
  facet normal 0.904837 0.425758 0
    outer loop
      vertex 13.9466 5.52187 3
      vertex 13.1446 7.22631 -1
      vertex 13.1446 7.22631 3
    endloop
  endfacet
  facet normal 0.904837 0.425758 0
    outer loop
      vertex 13.1446 7.22631 -1
      vertex 13.9466 5.52187 3
      vertex 13.9466 5.52187 -1
    endloop
  endfacet
  facet normal 0.844338 0.535811 0
    outer loop
      vertex 13.1446 7.22631 3
      vertex 12.1353 8.81678 -1
      vertex 12.1353 8.81678 3
    endloop
  endfacet
  facet normal 0.844338 0.535811 0
    outer loop
      vertex 12.1353 8.81678 -1
      vertex 13.1446 7.22631 3
      vertex 13.1446 7.22631 -1
    endloop
  endfacet
  facet normal 0.368104 0.929785 -0
    outer loop
      vertex 6.38669 13.5724 -1
      vertex 4.63525 14.2658 3
      vertex 6.38669 13.5724 3
    endloop
  endfacet
  facet normal 0.368104 0.929785 0
    outer loop
      vertex 4.63525 14.2658 3
      vertex 6.38669 13.5724 -1
      vertex 4.63525 14.2658 -1
    endloop
  endfacet
  facet normal 0.587778 0.809022 -0
    outer loop
      vertex 9.56136 11.5577 -1
      vertex 8.0374 12.6649 3
      vertex 9.56136 11.5577 3
    endloop
  endfacet
  facet normal 0.587778 0.809022 0
    outer loop
      vertex 8.0374 12.6649 3
      vertex 9.56136 11.5577 -1
      vertex 8.0374 12.6649 -1
    endloop
  endfacet
  facet normal -0.904837 0.425758 0
    outer loop
      vertex -13.9466 5.52187 -1
      vertex -13.1446 7.22631 3
      vertex -13.1446 7.22631 -1
    endloop
  endfacet
  facet normal -0.904837 0.425758 0
    outer loop
      vertex -13.1446 7.22631 3
      vertex -13.9466 5.52187 -1
      vertex -13.9466 5.52187 3
    endloop
  endfacet
  facet normal -0.844338 0.535811 0
    outer loop
      vertex -13.1446 7.22631 -1
      vertex -12.1353 8.81678 3
      vertex -12.1353 8.81678 -1
    endloop
  endfacet
  facet normal -0.844338 0.535811 0
    outer loop
      vertex -12.1353 8.81678 3
      vertex -13.1446 7.22631 -1
      vertex -13.1446 7.22631 3
    endloop
  endfacet
  facet normal -0.951057 0.309017 0
    outer loop
      vertex -14.5287 3.73035 -1
      vertex -13.9466 5.52187 3
      vertex -13.9466 5.52187 -1
    endloop
  endfacet
  facet normal -0.951057 0.309017 0
    outer loop
      vertex -13.9466 5.52187 3
      vertex -14.5287 3.73035 -1
      vertex -14.5287 3.73035 3
    endloop
  endfacet
  facet normal -0.587778 0.809022 0
    outer loop
      vertex -8.0374 12.6649 -1
      vertex -9.56136 11.5577 3
      vertex -8.0374 12.6649 3
    endloop
  endfacet
  facet normal -0.587778 0.809022 0
    outer loop
      vertex -9.56136 11.5577 3
      vertex -8.0374 12.6649 -1
      vertex -9.56136 11.5577 -1
    endloop
  endfacet
  facet normal -0.125337 0.992114 0
    outer loop
      vertex -0.941857 14.9704 -1
      vertex -2.81072 14.7343 3
      vertex -0.941857 14.9704 3
    endloop
  endfacet
  facet normal -0.125337 0.992114 0
    outer loop
      vertex -2.81072 14.7343 3
      vertex -0.941857 14.9704 -1
      vertex -2.81072 14.7343 -1
    endloop
  endfacet
  facet normal 0.998026 -0.0628013 0
    outer loop
      vertex 14.8817 -1.88 3
      vertex 15 0 -1
      vertex 15 0 3
    endloop
  endfacet
  facet normal 0.998026 -0.0628013 0
    outer loop
      vertex 15 0 -1
      vertex 14.8817 -1.88 3
      vertex 14.8817 -1.88 -1
    endloop
  endfacet
  facet normal -0.24871 -0.968578 0
    outer loop
      vertex -4.63525 -14.2658 -1
      vertex -2.81072 -14.7343 3
      vertex -4.63525 -14.2658 3
    endloop
  endfacet
  facet normal -0.24871 -0.968578 -0
    outer loop
      vertex -2.81072 -14.7343 3
      vertex -4.63525 -14.2658 -1
      vertex -2.81072 -14.7343 -1
    endloop
  endfacet
  facet normal -0.904837 -0.425758 0
    outer loop
      vertex -13.1446 -7.22631 -1
      vertex -13.9466 -5.52187 3
      vertex -13.9466 -5.52187 -1
    endloop
  endfacet
  facet normal -0.904837 -0.425758 0
    outer loop
      vertex -13.9466 -5.52187 3
      vertex -13.1446 -7.22631 -1
      vertex -13.1446 -7.22631 3
    endloop
  endfacet
  facet normal 0.125337 -0.992114 0
    outer loop
      vertex 0.941857 -14.9704 -1
      vertex 2.81072 -14.7343 3
      vertex 0.941857 -14.9704 3
    endloop
  endfacet
  facet normal 0.125337 -0.992114 0
    outer loop
      vertex 2.81072 -14.7343 3
      vertex 0.941857 -14.9704 -1
      vertex 2.81072 -14.7343 -1
    endloop
  endfacet
  facet normal 0.951057 0.309017 0
    outer loop
      vertex 14.5287 3.73035 3
      vertex 13.9466 5.52187 -1
      vertex 13.9466 5.52187 3
    endloop
  endfacet
  facet normal 0.951057 0.309017 0
    outer loop
      vertex 13.9466 5.52187 -1
      vertex 14.5287 3.73035 3
      vertex 14.5287 3.73035 -1
    endloop
  endfacet
  facet normal 0.982285 0.187395 0
    outer loop
      vertex 14.8817 1.88 3
      vertex 14.5287 3.73035 -1
      vertex 14.5287 3.73035 3
    endloop
  endfacet
  facet normal 0.982285 0.187395 0
    outer loop
      vertex 14.5287 3.73035 -1
      vertex 14.8817 1.88 3
      vertex 14.8817 1.88 -1
    endloop
  endfacet
  facet normal 0.770492 0.63745 0
    outer loop
      vertex 12.1353 8.81678 3
      vertex 10.9345 10.2682 -1
      vertex 10.9345 10.2682 3
    endloop
  endfacet
  facet normal 0.770492 0.63745 0
    outer loop
      vertex 10.9345 10.2682 -1
      vertex 12.1353 8.81678 3
      vertex 12.1353 8.81678 -1
    endloop
  endfacet
  facet normal 0.24871 0.968578 -0
    outer loop
      vertex 4.63525 14.2658 -1
      vertex 2.81072 14.7343 3
      vertex 4.63525 14.2658 3
    endloop
  endfacet
  facet normal 0.24871 0.968578 0
    outer loop
      vertex 2.81072 14.7343 3
      vertex 4.63525 14.2658 -1
      vertex 2.81072 14.7343 -1
    endloop
  endfacet
  facet normal 0.125337 0.992114 -0
    outer loop
      vertex 2.81072 14.7343 -1
      vertex 0.941857 14.9704 3
      vertex 2.81072 14.7343 3
    endloop
  endfacet
  facet normal 0.125337 0.992114 0
    outer loop
      vertex 0.941857 14.9704 3
      vertex 2.81072 14.7343 -1
      vertex 0.941857 14.9704 -1
    endloop
  endfacet
  facet normal 0.48176 0.876303 -0
    outer loop
      vertex 8.0374 12.6649 -1
      vertex 6.38669 13.5724 3
      vertex 8.0374 12.6649 3
    endloop
  endfacet
  facet normal 0.48176 0.876303 0
    outer loop
      vertex 6.38669 13.5724 3
      vertex 8.0374 12.6649 -1
      vertex 6.38669 13.5724 -1
    endloop
  endfacet
  facet normal -0.24871 0.968578 0
    outer loop
      vertex -2.81072 14.7343 -1
      vertex -4.63525 14.2658 3
      vertex -2.81072 14.7343 3
    endloop
  endfacet
  facet normal -0.24871 0.968578 0
    outer loop
      vertex -4.63525 14.2658 3
      vertex -2.81072 14.7343 -1
      vertex -4.63525 14.2658 -1
    endloop
  endfacet
  facet normal 0.844338 -0.535811 0
    outer loop
      vertex 12.1353 -8.81678 3
      vertex 13.1446 -7.22631 -1
      vertex 13.1446 -7.22631 3
    endloop
  endfacet
  facet normal 0.844338 -0.535811 0
    outer loop
      vertex 13.1446 -7.22631 -1
      vertex 12.1353 -8.81678 3
      vertex 12.1353 -8.81678 -1
    endloop
  endfacet
  facet normal 0.982285 -0.187395 0
    outer loop
      vertex 14.5287 -3.73035 3
      vertex 14.8817 -1.88 -1
      vertex 14.8817 -1.88 3
    endloop
  endfacet
  facet normal 0.982285 -0.187395 0
    outer loop
      vertex 14.8817 -1.88 -1
      vertex 14.5287 -3.73035 3
      vertex 14.5287 -3.73035 -1
    endloop
  endfacet
  facet normal -0.844338 -0.535811 0
    outer loop
      vertex -12.1353 -8.81678 -1
      vertex -13.1446 -7.22631 3
      vertex -13.1446 -7.22631 -1
    endloop
  endfacet
  facet normal -0.844338 -0.535811 0
    outer loop
      vertex -13.1446 -7.22631 3
      vertex -12.1353 -8.81678 -1
      vertex -12.1353 -8.81678 3
    endloop
  endfacet
  facet normal -0.951057 -0.309017 0
    outer loop
      vertex -13.9466 -5.52187 -1
      vertex -14.5287 -3.73035 3
      vertex -14.5287 -3.73035 -1
    endloop
  endfacet
  facet normal -0.951057 -0.309017 0
    outer loop
      vertex -14.5287 -3.73035 3
      vertex -13.9466 -5.52187 -1
      vertex -13.9466 -5.52187 3
    endloop
  endfacet
  facet normal 0.368104 -0.929785 0
    outer loop
      vertex 4.63525 -14.2658 -1
      vertex 6.38669 -13.5724 3
      vertex 4.63525 -14.2658 3
    endloop
  endfacet
  facet normal 0.368104 -0.929785 0
    outer loop
      vertex 6.38669 -13.5724 3
      vertex 4.63525 -14.2658 -1
      vertex 6.38669 -13.5724 -1
    endloop
  endfacet
  facet normal 0.24871 -0.968578 0
    outer loop
      vertex 2.81072 -14.7343 -1
      vertex 4.63525 -14.2658 3
      vertex 2.81072 -14.7343 3
    endloop
  endfacet
  facet normal 0.24871 -0.968578 0
    outer loop
      vertex 4.63525 -14.2658 3
      vertex 2.81072 -14.7343 -1
      vertex 4.63525 -14.2658 -1
    endloop
  endfacet
  facet normal -0.770492 0.63745 0
    outer loop
      vertex -12.1353 8.81678 -1
      vertex -10.9345 10.2682 3
      vertex -10.9345 10.2682 -1
    endloop
  endfacet
  facet normal -0.770492 0.63745 0
    outer loop
      vertex -10.9345 10.2682 3
      vertex -12.1353 8.81678 -1
      vertex -12.1353 8.81678 3
    endloop
  endfacet
  facet normal -0.982285 0.187395 0
    outer loop
      vertex -14.8817 1.88 -1
      vertex -14.5287 3.73035 3
      vertex -14.5287 3.73035 -1
    endloop
  endfacet
  facet normal -0.982285 0.187395 0
    outer loop
      vertex -14.5287 3.73035 3
      vertex -14.8817 1.88 -1
      vertex -14.8817 1.88 3
    endloop
  endfacet
  facet normal -0.48176 0.876303 0
    outer loop
      vertex -6.38669 13.5724 -1
      vertex -8.0374 12.6649 3
      vertex -6.38669 13.5724 3
    endloop
  endfacet
  facet normal -0.48176 0.876303 0
    outer loop
      vertex -8.0374 12.6649 3
      vertex -6.38669 13.5724 -1
      vertex -8.0374 12.6649 -1
    endloop
  endfacet
  facet normal 0.684557 -0.728959 0
    outer loop
      vertex 9.56136 -11.5577 -1
      vertex 10.9345 -10.2682 3
      vertex 9.56136 -11.5577 3
    endloop
  endfacet
  facet normal 0.684557 -0.728959 0
    outer loop
      vertex 10.9345 -10.2682 3
      vertex 9.56136 -11.5577 -1
      vertex 10.9345 -10.2682 -1
    endloop
  endfacet
  facet normal 0.904837 -0.425758 0
    outer loop
      vertex 13.1446 -7.22631 3
      vertex 13.9466 -5.52187 -1
      vertex 13.9466 -5.52187 3
    endloop
  endfacet
  facet normal 0.904837 -0.425758 0
    outer loop
      vertex 13.9466 -5.52187 -1
      vertex 13.1446 -7.22631 3
      vertex 13.1446 -7.22631 -1
    endloop
  endfacet
  facet normal 0.951057 -0.309017 0
    outer loop
      vertex 13.9466 -5.52187 3
      vertex 14.5287 -3.73035 -1
      vertex 14.5287 -3.73035 3
    endloop
  endfacet
  facet normal 0.951057 -0.309017 0
    outer loop
      vertex 14.5287 -3.73035 -1
      vertex 13.9466 -5.52187 3
      vertex 13.9466 -5.52187 -1
    endloop
  endfacet
  facet normal 0 -1 0
    outer loop
      vertex -0.941857 -14.9704 -1
      vertex 0.941857 -14.9704 3
      vertex -0.941857 -14.9704 3
    endloop
  endfacet
  facet normal 0 -1 -0
    outer loop
      vertex 0.941857 -14.9704 3
      vertex -0.941857 -14.9704 -1
      vertex 0.941857 -14.9704 -1
    endloop
  endfacet
  facet normal -0.368104 -0.929785 0
    outer loop
      vertex -6.38669 -13.5724 -1
      vertex -4.63525 -14.2658 3
      vertex -6.38669 -13.5724 3
    endloop
  endfacet
  facet normal -0.368104 -0.929785 -0
    outer loop
      vertex -4.63525 -14.2658 3
      vertex -6.38669 -13.5724 -1
      vertex -4.63525 -14.2658 -1
    endloop
  endfacet
  facet normal -0.770492 -0.63745 0
    outer loop
      vertex -10.9345 -10.2682 -1
      vertex -12.1353 -8.81678 3
      vertex -12.1353 -8.81678 -1
    endloop
  endfacet
  facet normal -0.770492 -0.63745 0
    outer loop
      vertex -12.1353 -8.81678 3
      vertex -10.9345 -10.2682 -1
      vertex -10.9345 -10.2682 3
    endloop
  endfacet
  facet normal -0.998026 -0.0628013 0
    outer loop
      vertex -14.8817 -1.88 -1
      vertex -15 0 3
      vertex -15 0 -1
    endloop
  endfacet
  facet normal -0.998026 -0.0628013 0
    outer loop
      vertex -15 0 3
      vertex -14.8817 -1.88 -1
      vertex -14.8817 -1.88 3
    endloop
  endfacet
  facet normal 0 0 -1
    outer loop
      vertex 1.55 0 -1
      vertex 15 0 -1
      vertex 14.8817 -1.88 -1
    endloop
  endfacet
  facet normal 0 0 -1
    outer loop
      vertex 1.53778 -0.194266 -1
      vertex 14.8817 -1.88 -1
      vertex 14.5287 -3.73035 -1
    endloop
  endfacet
  facet normal 0 0 -1
    outer loop
      vertex 15 0 -1
      vertex 1.55 0 -1
      vertex 14.8817 1.88 -1
    endloop
  endfacet
  facet normal 0 0 -1
    outer loop
      vertex 1.5013 -0.385468 -1
      vertex 14.5287 -3.73035 -1
      vertex 13.9466 -5.52187 -1
    endloop
  endfacet
  facet normal 0 0 -1
    outer loop
      vertex 1.53778 0.194266 -1
      vertex 14.8817 1.88 -1
      vertex 1.55 0 -1
    endloop
  endfacet
  facet normal 0 0 -1
    outer loop
      vertex 1.44115 -0.570593 -1
      vertex 13.9466 -5.52187 -1
      vertex 13.1446 -7.22631 -1
    endloop
  endfacet
  facet normal -0 0 -1
    outer loop
      vertex 14.8817 1.88 -1
      vertex 1.53778 0.194266 -1
      vertex 14.5287 3.73035 -1
    endloop
  endfacet
  facet normal 0 0 -1
    outer loop
      vertex 1.35827 -0.746717 -1
      vertex 13.1446 -7.22631 -1
      vertex 12.1353 -8.81678 -1
    endloop
  endfacet
  facet normal 0 0 -1
    outer loop
      vertex 1.5013 0.385468 -1
      vertex 14.5287 3.73035 -1
      vertex 1.53778 0.194266 -1
    endloop
  endfacet
  facet normal 0 0 -1
    outer loop
      vertex 1.25398 -0.911067 -1
      vertex 12.1353 -8.81678 -1
      vertex 10.9345 -10.2682 -1
    endloop
  endfacet
  facet normal -0 0 -1
    outer loop
      vertex 14.5287 3.73035 -1
      vertex 1.5013 0.385468 -1
      vertex 13.9466 5.52187 -1
    endloop
  endfacet
  facet normal 0 0 -1
    outer loop
      vertex 1.1299 -1.06105 -1
      vertex 10.9345 -10.2682 -1
      vertex 9.56136 -11.5577 -1
    endloop
  endfacet
  facet normal 0 0 -1
    outer loop
      vertex 1.44115 0.570593 -1
      vertex 13.9466 5.52187 -1
      vertex 1.5013 0.385468 -1
    endloop
  endfacet
  facet normal 0 0 -1
    outer loop
      vertex 0.988007 -1.19429 -1
      vertex 9.56136 -11.5577 -1
      vertex 8.0374 -12.6649 -1
    endloop
  endfacet
  facet normal -0 0 -1
    outer loop
      vertex 13.9466 5.52187 -1
      vertex 1.44115 0.570593 -1
      vertex 13.1446 7.22631 -1
    endloop
  endfacet
  facet normal 0 0 -1
    outer loop
      vertex 0.830531 -1.30871 -1
      vertex 8.0374 -12.6649 -1
      vertex 6.38669 -13.5724 -1
    endloop
  endfacet
  facet normal 0 0 -1
    outer loop
      vertex 1.35827 0.746717 -1
      vertex 13.1446 7.22631 -1
      vertex 1.44115 0.570593 -1
    endloop
  endfacet
  facet normal 0 0 -1
    outer loop
      vertex 0.659958 -1.40248 -1
      vertex 6.38669 -13.5724 -1
      vertex 4.63525 -14.2658 -1
    endloop
  endfacet
  facet normal -0 0 -1
    outer loop
      vertex 13.1446 7.22631 -1
      vertex 1.35827 0.746717 -1
      vertex 12.1353 8.81678 -1
    endloop
  endfacet
  facet normal 0 0 -1
    outer loop
      vertex 0.478976 -1.47414 -1
      vertex 4.63525 -14.2658 -1
      vertex 2.81072 -14.7343 -1
    endloop
  endfacet
  facet normal 0 0 -1
    outer loop
      vertex 1.25398 0.911067 -1
      vertex 12.1353 8.81678 -1
      vertex 1.35827 0.746717 -1
    endloop
  endfacet
  facet normal -0 0 -1
    outer loop
      vertex 12.1353 8.81678 -1
      vertex 1.25398 0.911067 -1
      vertex 10.9345 10.2682 -1
    endloop
  endfacet
  facet normal 0 0 -1
    outer loop
      vertex 14.8817 -1.88 -1
      vertex 1.53778 -0.194266 -1
      vertex 1.55 0 -1
    endloop
  endfacet
  facet normal 0 0 -1
    outer loop
      vertex 14.5287 -3.73035 -1
      vertex 1.5013 -0.385468 -1
      vertex 1.53778 -0.194266 -1
    endloop
  endfacet
  facet normal 0 0 -1
    outer loop
      vertex 13.9466 -5.52187 -1
      vertex 1.44115 -0.570593 -1
      vertex 1.5013 -0.385468 -1
    endloop
  endfacet
  facet normal 0 0 -1
    outer loop
      vertex 13.1446 -7.22631 -1
      vertex 1.35827 -0.746717 -1
      vertex 1.44115 -0.570593 -1
    endloop
  endfacet
  facet normal 0 0 -1
    outer loop
      vertex 12.1353 -8.81678 -1
      vertex 1.25398 -0.911067 -1
      vertex 1.35827 -0.746717 -1
    endloop
  endfacet
  facet normal 0 0 -1
    outer loop
      vertex 10.9345 -10.2682 -1
      vertex 1.1299 -1.06105 -1
      vertex 1.25398 -0.911067 -1
    endloop
  endfacet
  facet normal 0 0 -1
    outer loop
      vertex 9.56136 -11.5577 -1
      vertex 0.988007 -1.19429 -1
      vertex 1.1299 -1.06105 -1
    endloop
  endfacet
  facet normal 0 0 -1
    outer loop
      vertex 0.290441 -1.52254 -1
      vertex 2.81072 -14.7343 -1
      vertex 0.941857 -14.9704 -1
    endloop
  endfacet
  facet normal 0 0 -1
    outer loop
      vertex 8.0374 -12.6649 -1
      vertex 0.830531 -1.30871 -1
      vertex 0.988007 -1.19429 -1
    endloop
  endfacet
  facet normal 0 0 -1
    outer loop
      vertex 6.38669 -13.5724 -1
      vertex 0.659958 -1.40248 -1
      vertex 0.830531 -1.30871 -1
    endloop
  endfacet
  facet normal 0 0 -1
    outer loop
      vertex 4.63525 -14.2658 -1
      vertex 0.478976 -1.47414 -1
      vertex 0.659958 -1.40248 -1
    endloop
  endfacet
  facet normal 0 0 -1
    outer loop
      vertex 2.81072 -14.7343 -1
      vertex 0.290441 -1.52254 -1
      vertex 0.478976 -1.47414 -1
    endloop
  endfacet
  facet normal 0 0 -1
    outer loop
      vertex 0.941857 -14.9704 -1
      vertex 0.0973244 -1.54694 -1
      vertex 0.290441 -1.52254 -1
    endloop
  endfacet
  facet normal 0 0 -1
    outer loop
      vertex 0.941857 -14.9704 -1
      vertex -0.0973244 -1.54694 -1
      vertex 0.0973244 -1.54694 -1
    endloop
  endfacet
  facet normal 0 0 -1
    outer loop
      vertex -0.941857 -14.9704 -1
      vertex -0.0973244 -1.54694 -1
      vertex 0.941857 -14.9704 -1
    endloop
  endfacet
  facet normal -0 0 -1
    outer loop
      vertex -0.0973244 -1.54694 -1
      vertex -0.941857 -14.9704 -1
      vertex -0.290441 -1.52254 -1
    endloop
  endfacet
  facet normal 0 0 -1
    outer loop
      vertex -2.81072 -14.7343 -1
      vertex -0.290441 -1.52254 -1
      vertex -0.941857 -14.9704 -1
    endloop
  endfacet
  facet normal -0 0 -1
    outer loop
      vertex -0.290441 -1.52254 -1
      vertex -2.81072 -14.7343 -1
      vertex -0.478976 -1.47414 -1
    endloop
  endfacet
  facet normal 0 0 -1
    outer loop
      vertex -4.63525 -14.2658 -1
      vertex -0.478976 -1.47414 -1
      vertex -2.81072 -14.7343 -1
    endloop
  endfacet
  facet normal -0 0 -1
    outer loop
      vertex -0.478976 -1.47414 -1
      vertex -4.63525 -14.2658 -1
      vertex -0.659958 -1.40248 -1
    endloop
  endfacet
  facet normal 0 0 -1
    outer loop
      vertex -6.38669 -13.5724 -1
      vertex -0.659958 -1.40248 -1
      vertex -4.63525 -14.2658 -1
    endloop
  endfacet
  facet normal -0 0 -1
    outer loop
      vertex -0.659958 -1.40248 -1
      vertex -6.38669 -13.5724 -1
      vertex -0.830531 -1.30871 -1
    endloop
  endfacet
  facet normal 0 0 -1
    outer loop
      vertex -8.0374 -12.6649 -1
      vertex -0.830531 -1.30871 -1
      vertex -6.38669 -13.5724 -1
    endloop
  endfacet
  facet normal -0 0 -1
    outer loop
      vertex -0.830531 -1.30871 -1
      vertex -8.0374 -12.6649 -1
      vertex -0.988007 -1.19429 -1
    endloop
  endfacet
  facet normal 0 0 -1
    outer loop
      vertex -9.56136 -11.5577 -1
      vertex -0.988007 -1.19429 -1
      vertex -8.0374 -12.6649 -1
    endloop
  endfacet
  facet normal -0 0 -1
    outer loop
      vertex -0.988007 -1.19429 -1
      vertex -9.56136 -11.5577 -1
      vertex -1.1299 -1.06105 -1
    endloop
  endfacet
  facet normal 0 0 -1
    outer loop
      vertex -10.9345 -10.2682 -1
      vertex -1.1299 -1.06105 -1
      vertex -9.56136 -11.5577 -1
    endloop
  endfacet
  facet normal -0 0 -1
    outer loop
      vertex -1.1299 -1.06105 -1
      vertex -10.9345 -10.2682 -1
      vertex -1.25398 -0.911067 -1
    endloop
  endfacet
  facet normal 0 0 -1
    outer loop
      vertex 1.1299 1.06105 -1
      vertex 10.9345 10.2682 -1
      vertex 1.25398 0.911067 -1
    endloop
  endfacet
  facet normal -0 0 -1
    outer loop
      vertex 10.9345 10.2682 -1
      vertex 1.1299 1.06105 -1
      vertex 9.56136 11.5577 -1
    endloop
  endfacet
  facet normal 0 0 -1
    outer loop
      vertex 0.988007 1.19429 -1
      vertex 9.56136 11.5577 -1
      vertex 1.1299 1.06105 -1
    endloop
  endfacet
  facet normal -0 0 -1
    outer loop
      vertex 9.56136 11.5577 -1
      vertex 0.988007 1.19429 -1
      vertex 8.0374 12.6649 -1
    endloop
  endfacet
  facet normal 0 0 -1
    outer loop
      vertex 0.830531 1.30871 -1
      vertex 8.0374 12.6649 -1
      vertex 0.988007 1.19429 -1
    endloop
  endfacet
  facet normal -0 0 -1
    outer loop
      vertex 8.0374 12.6649 -1
      vertex 0.830531 1.30871 -1
      vertex 6.38669 13.5724 -1
    endloop
  endfacet
  facet normal 0 0 -1
    outer loop
      vertex 0.659958 1.40248 -1
      vertex 6.38669 13.5724 -1
      vertex 0.830531 1.30871 -1
    endloop
  endfacet
  facet normal -0 0 -1
    outer loop
      vertex 6.38669 13.5724 -1
      vertex 0.659958 1.40248 -1
      vertex 4.63525 14.2658 -1
    endloop
  endfacet
  facet normal 0 0 -1
    outer loop
      vertex 0.478976 1.47414 -1
      vertex 4.63525 14.2658 -1
      vertex 0.659958 1.40248 -1
    endloop
  endfacet
  facet normal -0 0 -1
    outer loop
      vertex 4.63525 14.2658 -1
      vertex 0.478976 1.47414 -1
      vertex 2.81072 14.7343 -1
    endloop
  endfacet
  facet normal 0 0 -1
    outer loop
      vertex 0.290441 1.52254 -1
      vertex 2.81072 14.7343 -1
      vertex 0.478976 1.47414 -1
    endloop
  endfacet
  facet normal -0 0 -1
    outer loop
      vertex 2.81072 14.7343 -1
      vertex 0.290441 1.52254 -1
      vertex 0.941857 14.9704 -1
    endloop
  endfacet
  facet normal 0 0 -1
    outer loop
      vertex 0.0973244 1.54694 -1
      vertex 0.941857 14.9704 -1
      vertex 0.290441 1.52254 -1
    endloop
  endfacet
  facet normal 0 0 -1
    outer loop
      vertex -0.0973244 1.54694 -1
      vertex 0.941857 14.9704 -1
      vertex 0.0973244 1.54694 -1
    endloop
  endfacet
  facet normal 0 0 -1
    outer loop
      vertex -0.941857 14.9704 -1
      vertex -0.0973244 1.54694 -1
      vertex -0.290441 1.52254 -1
    endloop
  endfacet
  facet normal 0 0 -1
    outer loop
      vertex -2.81072 14.7343 -1
      vertex -0.290441 1.52254 -1
      vertex -0.478976 1.47414 -1
    endloop
  endfacet
  facet normal 0 0 -1
    outer loop
      vertex -4.63525 14.2658 -1
      vertex -0.478976 1.47414 -1
      vertex -0.659958 1.40248 -1
    endloop
  endfacet
  facet normal 0 0 -1
    outer loop
      vertex -6.38669 13.5724 -1
      vertex -0.659958 1.40248 -1
      vertex -0.830531 1.30871 -1
    endloop
  endfacet
  facet normal 0 0 -1
    outer loop
      vertex -0.0973244 1.54694 -1
      vertex -0.941857 14.9704 -1
      vertex 0.941857 14.9704 -1
    endloop
  endfacet
  facet normal 0 0 -1
    outer loop
      vertex -8.0374 12.6649 -1
      vertex -0.830531 1.30871 -1
      vertex -0.988007 1.19429 -1
    endloop
  endfacet
  facet normal 0 0 -1
    outer loop
      vertex -9.56136 11.5577 -1
      vertex -0.988007 1.19429 -1
      vertex -1.1299 1.06105 -1
    endloop
  endfacet
  facet normal 0 0 -1
    outer loop
      vertex -10.9345 10.2682 -1
      vertex -1.1299 1.06105 -1
      vertex -1.25398 0.911067 -1
    endloop
  endfacet
  facet normal 0 0 -1
    outer loop
      vertex -12.1353 8.81678 -1
      vertex -1.25398 0.911067 -1
      vertex -1.35827 0.746717 -1
    endloop
  endfacet
  facet normal 0 0 -1
    outer loop
      vertex -13.1446 7.22631 -1
      vertex -1.35827 0.746717 -1
      vertex -1.44115 0.570593 -1
    endloop
  endfacet
  facet normal 0 0 -1
    outer loop
      vertex -13.9466 5.52187 -1
      vertex -1.44115 0.570593 -1
      vertex -1.5013 0.385468 -1
    endloop
  endfacet
  facet normal 0 0 -1
    outer loop
      vertex -14.5287 3.73035 -1
      vertex -1.5013 0.385468 -1
      vertex -1.53778 0.194266 -1
    endloop
  endfacet
  facet normal 0 0 -1
    outer loop
      vertex -14.8817 1.88 -1
      vertex -1.53778 0.194266 -1
      vertex -1.55 0 -1
    endloop
  endfacet
  facet normal 0 0 -1
    outer loop
      vertex -12.1353 -8.81678 -1
      vertex -1.25398 -0.911067 -1
      vertex -10.9345 -10.2682 -1
    endloop
  endfacet
  facet normal 0 0 -1
    outer loop
      vertex -0.290441 1.52254 -1
      vertex -2.81072 14.7343 -1
      vertex -0.941857 14.9704 -1
    endloop
  endfacet
  facet normal -0 0 -1
    outer loop
      vertex -1.25398 -0.911067 -1
      vertex -12.1353 -8.81678 -1
      vertex -1.35827 -0.746717 -1
    endloop
  endfacet
  facet normal 0 0 -1
    outer loop
      vertex -0.478976 1.47414 -1
      vertex -4.63525 14.2658 -1
      vertex -2.81072 14.7343 -1
    endloop
  endfacet
  facet normal 0 0 -1
    outer loop
      vertex -13.1446 -7.22631 -1
      vertex -1.35827 -0.746717 -1
      vertex -12.1353 -8.81678 -1
    endloop
  endfacet
  facet normal 0 0 -1
    outer loop
      vertex -0.659958 1.40248 -1
      vertex -6.38669 13.5724 -1
      vertex -4.63525 14.2658 -1
    endloop
  endfacet
  facet normal -0 0 -1
    outer loop
      vertex -1.35827 -0.746717 -1
      vertex -13.1446 -7.22631 -1
      vertex -1.44115 -0.570593 -1
    endloop
  endfacet
  facet normal 0 0 -1
    outer loop
      vertex -0.830531 1.30871 -1
      vertex -8.0374 12.6649 -1
      vertex -6.38669 13.5724 -1
    endloop
  endfacet
  facet normal 0 0 -1
    outer loop
      vertex -13.9466 -5.52187 -1
      vertex -1.44115 -0.570593 -1
      vertex -13.1446 -7.22631 -1
    endloop
  endfacet
  facet normal 0 0 -1
    outer loop
      vertex -0.988007 1.19429 -1
      vertex -9.56136 11.5577 -1
      vertex -8.0374 12.6649 -1
    endloop
  endfacet
  facet normal -0 0 -1
    outer loop
      vertex -1.44115 -0.570593 -1
      vertex -13.9466 -5.52187 -1
      vertex -1.5013 -0.385468 -1
    endloop
  endfacet
  facet normal 0 0 -1
    outer loop
      vertex -1.1299 1.06105 -1
      vertex -10.9345 10.2682 -1
      vertex -9.56136 11.5577 -1
    endloop
  endfacet
  facet normal 0 0 -1
    outer loop
      vertex -14.5287 -3.73035 -1
      vertex -1.5013 -0.385468 -1
      vertex -13.9466 -5.52187 -1
    endloop
  endfacet
  facet normal 0 0 -1
    outer loop
      vertex -1.25398 0.911067 -1
      vertex -12.1353 8.81678 -1
      vertex -10.9345 10.2682 -1
    endloop
  endfacet
  facet normal -0 0 -1
    outer loop
      vertex -1.5013 -0.385468 -1
      vertex -14.5287 -3.73035 -1
      vertex -1.53778 -0.194266 -1
    endloop
  endfacet
  facet normal 0 0 -1
    outer loop
      vertex -1.35827 0.746717 -1
      vertex -13.1446 7.22631 -1
      vertex -12.1353 8.81678 -1
    endloop
  endfacet
  facet normal 0 0 -1
    outer loop
      vertex -14.8817 -1.88 -1
      vertex -1.53778 -0.194266 -1
      vertex -14.5287 -3.73035 -1
    endloop
  endfacet
  facet normal 0 0 -1
    outer loop
      vertex -1.44115 0.570593 -1
      vertex -13.9466 5.52187 -1
      vertex -13.1446 7.22631 -1
    endloop
  endfacet
  facet normal -0 0 -1
    outer loop
      vertex -1.53778 -0.194266 -1
      vertex -14.8817 -1.88 -1
      vertex -1.55 0 -1
    endloop
  endfacet
  facet normal 0 0 -1
    outer loop
      vertex -1.5013 0.385468 -1
      vertex -14.5287 3.73035 -1
      vertex -13.9466 5.52187 -1
    endloop
  endfacet
  facet normal 0 0 -1
    outer loop
      vertex -15 0 -1
      vertex -1.55 0 -1
      vertex -14.8817 -1.88 -1
    endloop
  endfacet
  facet normal 0 0 -1
    outer loop
      vertex -1.53778 0.194266 -1
      vertex -14.8817 1.88 -1
      vertex -14.5287 3.73035 -1
    endloop
  endfacet
  facet normal 0 0 -1
    outer loop
      vertex -1.55 0 -1
      vertex -15 0 -1
      vertex -14.8817 1.88 -1
    endloop
  endfacet
  facet normal -0.982285 -0.187395 0
    outer loop
      vertex -14.5287 -3.73035 -1
      vertex -14.8817 -1.88 3
      vertex -14.8817 -1.88 -1
    endloop
  endfacet
  facet normal -0.982285 -0.187395 0
    outer loop
      vertex -14.8817 -1.88 3
      vertex -14.5287 -3.73035 -1
      vertex -14.5287 -3.73035 3
    endloop
  endfacet
  facet normal 0.48176 -0.876303 0
    outer loop
      vertex 6.38669 -13.5724 -1
      vertex 8.0374 -12.6649 3
      vertex 6.38669 -13.5724 3
    endloop
  endfacet
  facet normal 0.48176 -0.876303 0
    outer loop
      vertex 8.0374 -12.6649 3
      vertex 6.38669 -13.5724 -1
      vertex 8.0374 -12.6649 -1
    endloop
  endfacet
  facet normal -0.125337 -0.992114 0
    outer loop
      vertex -2.81072 -14.7343 -1
      vertex -0.941857 -14.9704 3
      vertex -2.81072 -14.7343 3
    endloop
  endfacet
  facet normal -0.125337 -0.992114 -0
    outer loop
      vertex -0.941857 -14.9704 3
      vertex -2.81072 -14.7343 -1
      vertex -0.941857 -14.9704 -1
    endloop
  endfacet
  facet normal -0.587778 -0.809022 0
    outer loop
      vertex -9.56136 -11.5577 -1
      vertex -8.0374 -12.6649 3
      vertex -9.56136 -11.5577 3
    endloop
  endfacet
  facet normal -0.587778 -0.809022 -0
    outer loop
      vertex -8.0374 -12.6649 3
      vertex -9.56136 -11.5577 -1
      vertex -8.0374 -12.6649 -1
    endloop
  endfacet
  facet normal -0.684557 -0.728959 0
    outer loop
      vertex -10.9345 -10.2682 -1
      vertex -9.56136 -11.5577 3
      vertex -10.9345 -10.2682 3
    endloop
  endfacet
  facet normal -0.684557 -0.728959 -0
    outer loop
      vertex -9.56136 -11.5577 3
      vertex -10.9345 -10.2682 -1
      vertex -9.56136 -11.5577 -1
    endloop
  endfacet
  facet normal 0.587778 -0.809022 0
    outer loop
      vertex 8.0374 -12.6649 -1
      vertex 9.56136 -11.5577 3
      vertex 8.0374 -12.6649 3
    endloop
  endfacet
  facet normal 0.587778 -0.809022 0
    outer loop
      vertex 9.56136 -11.5577 3
      vertex 8.0374 -12.6649 -1
      vertex 9.56136 -11.5577 -1
    endloop
  endfacet
  facet normal 0.770492 -0.63745 0
    outer loop
      vertex 10.9345 -10.2682 3
      vertex 12.1353 -8.81678 -1
      vertex 12.1353 -8.81678 3
    endloop
  endfacet
  facet normal 0.770492 -0.63745 0
    outer loop
      vertex 12.1353 -8.81678 -1
      vertex 10.9345 -10.2682 3
      vertex 10.9345 -10.2682 -1
    endloop
  endfacet
  facet normal -0.48176 -0.876303 0
    outer loop
      vertex -8.0374 -12.6649 -1
      vertex -6.38669 -13.5724 3
      vertex -8.0374 -12.6649 3
    endloop
  endfacet
  facet normal -0.48176 -0.876303 -0
    outer loop
      vertex -6.38669 -13.5724 3
      vertex -8.0374 -12.6649 -1
      vertex -6.38669 -13.5724 -1
    endloop
  endfacet
endsolid OpenSCAD_Model
