solid OpenSCAD_Model
  facet normal 0 0 1
    outer loop
      vertex 4.375 0 0
      vertex 7 0 0
      vertex 6.9448 0.877332 0
    endloop
  endfacet
  facet normal 0 0 1
    outer loop
      vertex 4.3405 0.548332 0
      vertex 6.9448 0.877332 0
      vertex 6.78008 1.74083 0
    endloop
  endfacet
  facet normal 0 0 1
    outer loop
      vertex 7 0 0
      vertex 4.375 0 0
      vertex 6.9448 -0.877332 0
    endloop
  endfacet
  facet normal 0 0 1
    outer loop
      vertex 4.23755 1.08802 0
      vertex 6.78008 1.74083 0
      vertex 6.50844 2.57687 0
    endloop
  endfacet
  facet normal -0 0 1
    outer loop
      vertex 4.3405 -0.548332 0
      vertex 6.9448 -0.877332 0
      vertex 4.375 0 0
    endloop
  endfacet
  facet normal 0 0 1
    outer loop
      vertex 4.06777 1.61054 0
      vertex 6.50844 2.57687 0
      vertex 6.13415 3.37228 0
    endloop
  endfacet
  facet normal 0 0 1
    outer loop
      vertex 6.9448 -0.877332 0
      vertex 4.3405 -0.548332 0
      vertex 6.78008 -1.74083 0
    endloop
  endfacet
  facet normal 0 0 1
    outer loop
      vertex 3.83384 2.10767 0
      vertex 6.13415 3.37228 0
      vertex 5.66312 4.1145 0
    endloop
  endfacet
  facet normal -0 0 1
    outer loop
      vertex 4.23755 -1.08802 0
      vertex 6.78008 -1.74083 0
      vertex 4.3405 -0.548332 0
    endloop
  endfacet
  facet normal 0 0 1
    outer loop
      vertex 3.53945 2.57156 0
      vertex 5.66312 4.1145 0
      vertex 5.10278 4.79183 0
    endloop
  endfacet
  facet normal 0 0 1
    outer loop
      vertex 6.78008 -1.74083 0
      vertex 4.23755 -1.08802 0
      vertex 6.50844 -2.57687 0
    endloop
  endfacet
  facet normal 0 0 1
    outer loop
      vertex 3.18924 2.99489 0
      vertex 5.10278 4.79183 0
      vertex 4.46197 5.39359 0
    endloop
  endfacet
  facet normal -0 0 1
    outer loop
      vertex 4.06777 -1.61054 0
      vertex 6.50844 -2.57687 0
      vertex 4.23755 -1.08802 0
    endloop
  endfacet
  facet normal 0 0 1
    outer loop
      vertex 6.50844 -2.57687 0
      vertex 4.06777 -1.61054 0
      vertex 6.13415 -3.37228 0
    endloop
  endfacet
  facet normal 0 0 1
    outer loop
      vertex 6.9448 0.877332 0
      vertex 4.3405 0.548332 0
      vertex 4.375 0 0
    endloop
  endfacet
  facet normal 0 0 1
    outer loop
      vertex 6.78008 1.74083 0
      vertex 4.23755 1.08802 0
      vertex 4.3405 0.548332 0
    endloop
  endfacet
  facet normal 0 0 1
    outer loop
      vertex 6.50844 2.57687 0
      vertex 4.06777 1.61054 0
      vertex 4.23755 1.08802 0
    endloop
  endfacet
  facet normal 0 0 1
    outer loop
      vertex 6.13415 3.37228 0
      vertex 3.83384 2.10767 0
      vertex 4.06777 1.61054 0
    endloop
  endfacet
  facet normal 0 0 1
    outer loop
      vertex 2.78873 3.37099 0
      vertex 4.46197 5.39359 0
      vertex 3.75079 5.91029 0
    endloop
  endfacet
  facet normal 0 0 1
    outer loop
      vertex 5.66312 4.1145 0
      vertex 3.53945 2.57156 0
      vertex 3.83384 2.10767 0
    endloop
  endfacet
  facet normal 0 0 1
    outer loop
      vertex 5.10278 4.79183 0
      vertex 3.18924 2.99489 0
      vertex 3.53945 2.57156 0
    endloop
  endfacet
  facet normal 0 0 1
    outer loop
      vertex 2.34424 3.69393 0
      vertex 3.75079 5.91029 0
      vertex 2.98045 6.33379 0
    endloop
  endfacet
  facet normal 0 0 1
    outer loop
      vertex 4.46197 5.39359 0
      vertex 2.78873 3.37099 0
      vertex 3.18924 2.99489 0
    endloop
  endfacet
  facet normal 0 0 1
    outer loop
      vertex 3.75079 5.91029 0
      vertex 2.34424 3.69393 0
      vertex 2.78873 3.37099 0
    endloop
  endfacet
  facet normal 0 0 1
    outer loop
      vertex 1.86278 3.95862 0
      vertex 2.98045 6.33379 0
      vertex 2.16312 6.6574 0
    endloop
  endfacet
  facet normal 0 0 1
    outer loop
      vertex 2.98045 6.33379 0
      vertex 1.86278 3.95862 0
      vertex 2.34424 3.69393 0
    endloop
  endfacet
  facet normal 0 0 1
    outer loop
      vertex 2.16312 6.6574 0
      vertex 1.35195 4.16087 0
      vertex 1.86278 3.95862 0
    endloop
  endfacet
  facet normal 0 0 1
    outer loop
      vertex 1.31167 6.87601 0
      vertex 1.35195 4.16087 0
      vertex 2.16312 6.6574 0
    endloop
  endfacet
  facet normal 0 0 1
    outer loop
      vertex 1.31167 6.87601 0
      vertex 0.819793 4.29751 0
      vertex 1.35195 4.16087 0
    endloop
  endfacet
  facet normal 0 0 1
    outer loop
      vertex 0.439533 6.98619 0
      vertex 0.819793 4.29751 0
      vertex 1.31167 6.87601 0
    endloop
  endfacet
  facet normal 0 0 1
    outer loop
      vertex 0.439533 6.98619 0
      vertex 0.274708 4.36637 0
      vertex 0.819793 4.29751 0
    endloop
  endfacet
  facet normal 0 0 1
    outer loop
      vertex 0.439533 6.98619 0
      vertex -0.274708 4.36637 0
      vertex 0.274708 4.36637 0
    endloop
  endfacet
  facet normal -0 0 1
    outer loop
      vertex -0.439533 6.98619 0
      vertex -0.274708 4.36637 0
      vertex 0.439533 6.98619 0
    endloop
  endfacet
  facet normal 0 0 1
    outer loop
      vertex -0.439533 6.98619 0
      vertex -0.819793 4.29751 0
      vertex -0.274708 4.36637 0
    endloop
  endfacet
  facet normal -0 0 1
    outer loop
      vertex -1.31167 6.87601 0
      vertex -0.819793 4.29751 0
      vertex -0.439533 6.98619 0
    endloop
  endfacet
  facet normal 0 0 1
    outer loop
      vertex -1.31167 6.87601 0
      vertex -1.35195 4.16087 0
      vertex -0.819793 4.29751 0
    endloop
  endfacet
  facet normal -0 0 1
    outer loop
      vertex -2.16312 6.6574 0
      vertex -1.35195 4.16087 0
      vertex -1.31167 6.87601 0
    endloop
  endfacet
  facet normal 0 0 1
    outer loop
      vertex -1.35195 4.16087 0
      vertex -2.16312 6.6574 0
      vertex -1.86278 3.95862 0
    endloop
  endfacet
  facet normal -0 0 1
    outer loop
      vertex -2.98045 6.33379 0
      vertex -1.86278 3.95862 0
      vertex -2.16312 6.6574 0
    endloop
  endfacet
  facet normal 0 0 1
    outer loop
      vertex -1.86278 3.95862 0
      vertex -2.98045 6.33379 0
      vertex -2.34424 3.69393 0
    endloop
  endfacet
  facet normal -0 0 1
    outer loop
      vertex -3.75079 5.91029 0
      vertex -2.34424 3.69393 0
      vertex -2.98045 6.33379 0
    endloop
  endfacet
  facet normal 0 0 1
    outer loop
      vertex -2.34424 3.69393 0
      vertex -3.75079 5.91029 0
      vertex -2.78873 3.37099 0
    endloop
  endfacet
  facet normal -0 0 1
    outer loop
      vertex -4.46197 5.39359 0
      vertex -2.78873 3.37099 0
      vertex -3.75079 5.91029 0
    endloop
  endfacet
  facet normal 0 0 1
    outer loop
      vertex -2.78873 3.37099 0
      vertex -4.46197 5.39359 0
      vertex -3.18924 2.99489 0
    endloop
  endfacet
  facet normal -0 0 1
    outer loop
      vertex -5.10278 4.79183 0
      vertex -3.18924 2.99489 0
      vertex -4.46197 5.39359 0
    endloop
  endfacet
  facet normal 0 0 1
    outer loop
      vertex -3.18924 2.99489 0
      vertex -5.10278 4.79183 0
      vertex -3.53945 2.57156 0
    endloop
  endfacet
  facet normal -0 0 1
    outer loop
      vertex -5.66312 4.1145 0
      vertex -3.53945 2.57156 0
      vertex -5.10278 4.79183 0
    endloop
  endfacet
  facet normal 0 0 1
    outer loop
      vertex -3.53945 2.57156 0
      vertex -5.66312 4.1145 0
      vertex -3.83384 2.10767 0
    endloop
  endfacet
  facet normal 0 0 1
    outer loop
      vertex -3.83384 2.10767 0
      vertex -6.13415 3.37228 0
      vertex -4.06777 1.61054 0
    endloop
  endfacet
  facet normal -0 0 1
    outer loop
      vertex -6.13415 3.37228 0
      vertex -3.83384 2.10767 0
      vertex -5.66312 4.1145 0
    endloop
  endfacet
  facet normal -0 0 1
    outer loop
      vertex 3.83384 -2.10767 0
      vertex 6.13415 -3.37228 0
      vertex 4.06777 -1.61054 0
    endloop
  endfacet
  facet normal 0 0 1
    outer loop
      vertex 6.13415 -3.37228 0
      vertex 3.83384 -2.10767 0
      vertex 5.66312 -4.1145 0
    endloop
  endfacet
  facet normal -0 0 1
    outer loop
      vertex 3.53945 -2.57156 0
      vertex 5.66312 -4.1145 0
      vertex 3.83384 -2.10767 0
    endloop
  endfacet
  facet normal 0 0 1
    outer loop
      vertex 5.66312 -4.1145 0
      vertex 3.53945 -2.57156 0
      vertex 5.10278 -4.79183 0
    endloop
  endfacet
  facet normal -0 0 1
    outer loop
      vertex 3.18924 -2.99489 0
      vertex 5.10278 -4.79183 0
      vertex 3.53945 -2.57156 0
    endloop
  endfacet
  facet normal 0 0 1
    outer loop
      vertex 5.10278 -4.79183 0
      vertex 3.18924 -2.99489 0
      vertex 4.46197 -5.39359 0
    endloop
  endfacet
  facet normal -0 0 1
    outer loop
      vertex 2.78873 -3.37099 0
      vertex 4.46197 -5.39359 0
      vertex 3.18924 -2.99489 0
    endloop
  endfacet
  facet normal 0 0 1
    outer loop
      vertex 4.46197 -5.39359 0
      vertex 2.78873 -3.37099 0
      vertex 3.75079 -5.91029 0
    endloop
  endfacet
  facet normal -0 0 1
    outer loop
      vertex 2.34424 -3.69393 0
      vertex 3.75079 -5.91029 0
      vertex 2.78873 -3.37099 0
    endloop
  endfacet
  facet normal 0 0 1
    outer loop
      vertex 3.75079 -5.91029 0
      vertex 2.34424 -3.69393 0
      vertex 2.98045 -6.33379 0
    endloop
  endfacet
  facet normal -0 0 1
    outer loop
      vertex 1.86278 -3.95862 0
      vertex 2.98045 -6.33379 0
      vertex 2.34424 -3.69393 0
    endloop
  endfacet
  facet normal 0 0 1
    outer loop
      vertex 2.98045 -6.33379 0
      vertex 1.86278 -3.95862 0
      vertex 2.16312 -6.6574 0
    endloop
  endfacet
  facet normal -0 0 1
    outer loop
      vertex 1.35195 -4.16087 0
      vertex 2.16312 -6.6574 0
      vertex 1.86278 -3.95862 0
    endloop
  endfacet
  facet normal 0 0 1
    outer loop
      vertex 1.35195 -4.16087 0
      vertex 1.31167 -6.87601 0
      vertex 2.16312 -6.6574 0
    endloop
  endfacet
  facet normal -0 0 1
    outer loop
      vertex 0.819793 -4.29751 0
      vertex 1.31167 -6.87601 0
      vertex 1.35195 -4.16087 0
    endloop
  endfacet
  facet normal 0 0 1
    outer loop
      vertex 0.819793 -4.29751 0
      vertex 0.439533 -6.98619 0
      vertex 1.31167 -6.87601 0
    endloop
  endfacet
  facet normal -0 0 1
    outer loop
      vertex 0.274708 -4.36637 0
      vertex 0.439533 -6.98619 0
      vertex 0.819793 -4.29751 0
    endloop
  endfacet
  facet normal -0 0 1
    outer loop
      vertex -0.274708 -4.36637 0
      vertex 0.439533 -6.98619 0
      vertex 0.274708 -4.36637 0
    endloop
  endfacet
  facet normal 0 0 1
    outer loop
      vertex -0.274708 -4.36637 0
      vertex -0.439533 -6.98619 0
      vertex 0.439533 -6.98619 0
    endloop
  endfacet
  facet normal 0 0 1
    outer loop
      vertex -0.819793 -4.29751 0
      vertex -0.439533 -6.98619 0
      vertex -0.274708 -4.36637 0
    endloop
  endfacet
  facet normal 0 0 1
    outer loop
      vertex -0.819793 -4.29751 0
      vertex -1.31167 -6.87601 0
      vertex -0.439533 -6.98619 0
    endloop
  endfacet
  facet normal 0 0 1
    outer loop
      vertex -1.35195 -4.16087 0
      vertex -1.31167 -6.87601 0
      vertex -0.819793 -4.29751 0
    endloop
  endfacet
  facet normal 0 0 1
    outer loop
      vertex -2.16312 -6.6574 0
      vertex -1.35195 -4.16087 0
      vertex -1.86278 -3.95862 0
    endloop
  endfacet
  facet normal 0 0 1
    outer loop
      vertex -1.35195 -4.16087 0
      vertex -2.16312 -6.6574 0
      vertex -1.31167 -6.87601 0
    endloop
  endfacet
  facet normal 0 0 1
    outer loop
      vertex -2.98045 -6.33379 0
      vertex -1.86278 -3.95862 0
      vertex -2.34424 -3.69393 0
    endloop
  endfacet
  facet normal 0 0 1
    outer loop
      vertex -3.75079 -5.91029 0
      vertex -2.34424 -3.69393 0
      vertex -2.78873 -3.37099 0
    endloop
  endfacet
  facet normal 0 0 1
    outer loop
      vertex -1.86278 -3.95862 0
      vertex -2.98045 -6.33379 0
      vertex -2.16312 -6.6574 0
    endloop
  endfacet
  facet normal 0 0 1
    outer loop
      vertex -4.46197 -5.39359 0
      vertex -2.78873 -3.37099 0
      vertex -3.18924 -2.99489 0
    endloop
  endfacet
  facet normal 0 0 1
    outer loop
      vertex -5.10278 -4.79183 0
      vertex -3.18924 -2.99489 0
      vertex -3.53945 -2.57156 0
    endloop
  endfacet
  facet normal 0 0 1
    outer loop
      vertex -2.34424 -3.69393 0
      vertex -3.75079 -5.91029 0
      vertex -2.98045 -6.33379 0
    endloop
  endfacet
  facet normal 0 0 1
    outer loop
      vertex -5.66312 -4.1145 0
      vertex -3.53945 -2.57156 0
      vertex -3.83384 -2.10767 0
    endloop
  endfacet
  facet normal 0 0 1
    outer loop
      vertex -6.13415 -3.37228 0
      vertex -3.83384 -2.10767 0
      vertex -4.06777 -1.61054 0
    endloop
  endfacet
  facet normal 0 0 1
    outer loop
      vertex -6.50844 -2.57687 0
      vertex -4.06777 -1.61054 0
      vertex -4.23755 -1.08802 0
    endloop
  endfacet
  facet normal 0 0 1
    outer loop
      vertex -6.78008 -1.74083 0
      vertex -4.23755 -1.08802 0
      vertex -4.3405 -0.548332 0
    endloop
  endfacet
  facet normal 0 0 1
    outer loop
      vertex -2.78873 -3.37099 0
      vertex -4.46197 -5.39359 0
      vertex -3.75079 -5.91029 0
    endloop
  endfacet
  facet normal 0 0 1
    outer loop
      vertex -6.9448 -0.877332 0
      vertex -4.3405 -0.548332 0
      vertex -4.375 0 0
    endloop
  endfacet
  facet normal -0 0 1
    outer loop
      vertex -6.50844 2.57687 0
      vertex -4.06777 1.61054 0
      vertex -6.13415 3.37228 0
    endloop
  endfacet
  facet normal 0 0 1
    outer loop
      vertex -4.06777 1.61054 0
      vertex -6.50844 2.57687 0
      vertex -4.23755 1.08802 0
    endloop
  endfacet
  facet normal 0 0 1
    outer loop
      vertex -3.18924 -2.99489 0
      vertex -5.10278 -4.79183 0
      vertex -4.46197 -5.39359 0
    endloop
  endfacet
  facet normal -0 0 1
    outer loop
      vertex -6.78008 1.74083 0
      vertex -4.23755 1.08802 0
      vertex -6.50844 2.57687 0
    endloop
  endfacet
  facet normal 0 0 1
    outer loop
      vertex -3.53945 -2.57156 0
      vertex -5.66312 -4.1145 0
      vertex -5.10278 -4.79183 0
    endloop
  endfacet
  facet normal 0 0 1
    outer loop
      vertex -4.23755 1.08802 0
      vertex -6.78008 1.74083 0
      vertex -4.3405 0.548332 0
    endloop
  endfacet
  facet normal 0 0 1
    outer loop
      vertex -3.83384 -2.10767 0
      vertex -6.13415 -3.37228 0
      vertex -5.66312 -4.1145 0
    endloop
  endfacet
  facet normal -0 0 1
    outer loop
      vertex -6.9448 0.877332 0
      vertex -4.3405 0.548332 0
      vertex -6.78008 1.74083 0
    endloop
  endfacet
  facet normal 0 0 1
    outer loop
      vertex -4.06777 -1.61054 0
      vertex -6.50844 -2.57687 0
      vertex -6.13415 -3.37228 0
    endloop
  endfacet
  facet normal 0 0 1
    outer loop
      vertex -4.3405 0.548332 0
      vertex -6.9448 0.877332 0
      vertex -4.375 0 0
    endloop
  endfacet
  facet normal 0 0 1
    outer loop
      vertex -4.23755 -1.08802 0
      vertex -6.78008 -1.74083 0
      vertex -6.50844 -2.57687 0
    endloop
  endfacet
  facet normal 0 0 1
    outer loop
      vertex -7 0 0
      vertex -4.375 0 0
      vertex -6.9448 0.877332 0
    endloop
  endfacet
  facet normal 0 0 1
    outer loop
      vertex -4.3405 -0.548332 0
      vertex -6.9448 -0.877332 0
      vertex -6.78008 -1.74083 0
    endloop
  endfacet
  facet normal 0 0 1
    outer loop
      vertex -4.375 0 0
      vertex -7 0 0
      vertex -6.9448 -0.877332 0
    endloop
  endfacet
  facet normal -0.107144 0.848135 0.518833
    outer loop
      vertex 0.263282 -2.53261 -3
      vertex 0.274708 -4.36637 0
      vertex 0.819793 -4.29751 0
    endloop
  endfacet
  facet normal -0.107164 0.848133 0.518832
    outer loop
      vertex 0.274708 -4.36637 0
      vertex 0.263282 -2.53261 -3
      vertex 0.160158 -2.54564 -3
    endloop
  endfacet
  facet normal -0.853189 -0.0537052 0.51883
    outer loop
      vertex 4.375 0 0
      vertex 2.54415 0.103739 -3
      vertex 2.55068 0 -3
    endloop
  endfacet
  facet normal -0.85319 -0.0536811 0.518831
    outer loop
      vertex 2.54415 0.103739 -3
      vertex 4.375 0 0
      vertex 4.3405 0.548332 0
    endloop
  endfacet
  facet normal -0.853188 -0.0536934 0.518832
    outer loop
      vertex 2.54415 0.103739 -3
      vertex 4.3405 0.548332 0
      vertex 2.53056 0.319684 -3
    endloop
  endfacet
  facet normal -0.853188 0.0536934 0.518832
    outer loop
      vertex 4.3405 -0.548332 0
      vertex 2.54415 -0.103739 -3
      vertex 2.53056 -0.319684 -3
    endloop
  endfacet
  facet normal 0.839737 0.160172 0.518832
    outer loop
      vertex -2.49002 -0.532224 -3
      vertex -2.53056 -0.319684 -3
      vertex -4.3405 -0.548332 0
    endloop
  endfacet
  facet normal 0.212607 -0.828017 0.518831
    outer loop
      vertex -0.578627 2.47965 -3
      vertex -0.819793 4.29751 0
      vertex -1.35195 4.16087 0
    endloop
  endfacet
  facet normal 0.212599 -0.828019 0.518831
    outer loop
      vertex -0.819793 4.29751 0
      vertex -0.578627 2.47965 -3
      vertex -0.477948 2.5055 -3
    endloop
  endfacet
  facet normal -0.658699 0.544912 0.518831
    outer loop
      vertex 3.18924 -2.99489 0
      vertex 1.99728 -1.57934 -3
      vertex 1.85936 -1.74606 -3
    endloop
  endfacet
  facet normal -0.813037 0.264167 0.518832
    outer loop
      vertex 2.43842 -0.733183 -3
      vertex 4.23755 -1.08802 0
      vertex 2.47054 -0.634326 -3
    endloop
  endfacet
  facet normal -0.813035 0.264176 0.518831
    outer loop
      vertex 4.23755 -1.08802 0
      vertex 2.43842 -0.733183 -3
      vertex 4.06777 -1.61054 0
    endloop
  endfacet
  facet normal -0.853189 0.0537052 0.51883
    outer loop
      vertex 2.54415 -0.103739 -3
      vertex 4.375 0 0
      vertex 2.55068 0 -3
    endloop
  endfacet
  facet normal -0.85319 0.0536811 0.518831
    outer loop
      vertex 4.375 0 0
      vertex 2.54415 -0.103739 -3
      vertex 4.3405 -0.548332 0
    endloop
  endfacet
  facet normal -0.773506 0.364013 0.518829
    outer loop
      vertex 2.23517 -1.2288 -3
      vertex 4.06777 -1.61054 0
      vertex 2.27943 -1.13475 -3
    endloop
  endfacet
  facet normal -0.773516 0.363987 0.518831
    outer loop
      vertex 4.06777 -1.61054 0
      vertex 2.23517 -1.2288 -3
      vertex 3.83384 -2.10767 0
    endloop
  endfacet
  facet normal -0.721811 0.458041 0.518832
    outer loop
      vertex 3.83384 -2.10767 0
      vertex 2.23517 -1.2288 -3
      vertex 2.11924 -1.41149 -3
    endloop
  endfacet
  facet normal -0.411846 0.74913 0.518832
    outer loop
      vertex 1.17711 -2.25784 -3
      vertex 1.86278 -3.95862 0
      vertex 2.34424 -3.69393 0
    endloop
  endfacet
  facet normal -0.411858 0.749124 0.518831
    outer loop
      vertex 1.86278 -3.95862 0
      vertex 1.17711 -2.25784 -3
      vertex 1.08602 -2.30792 -3
    endloop
  endfacet
  facet normal -0.314698 0.794845 0.518832
    outer loop
      vertex 0.884847 -2.38757 -3
      vertex 1.35195 -4.16087 0
      vertex 1.86278 -3.95862 0
    endloop
  endfacet
  facet normal -0.314741 0.79483 0.518829
    outer loop
      vertex 1.35195 -4.16087 0
      vertex 0.884847 -2.38757 -3
      vertex 0.788202 -2.42584 -3
    endloop
  endfacet
  facet normal 0.502513 0.691592 0.518827
    outer loop
      vertex -1.62586 -1.96533 -3
      vertex -2.34424 -3.69393 0
      vertex -1.54177 -2.02643 -3
    endloop
  endfacet
  facet normal 0.502483 0.691611 0.518831
    outer loop
      vertex -2.34424 -3.69393 0
      vertex -1.62586 -1.96533 -3
      vertex -2.78873 -3.37099 0
    endloop
  endfacet
  facet normal 0.107144 -0.848135 0.518833
    outer loop
      vertex -0.263282 2.53261 -3
      vertex -0.274708 4.36637 0
      vertex -0.819793 4.29751 0
    endloop
  endfacet
  facet normal 0.107164 -0.848133 0.518832
    outer loop
      vertex -0.274708 4.36637 0
      vertex -0.263282 2.53261 -3
      vertex -0.160158 2.54564 -3
    endloop
  endfacet
  facet normal -0.81304 0.264162 0.51883
    outer loop
      vertex 4.06777 -1.61054 0
      vertex 2.43842 -0.733183 -3
      vertex 2.37156 -0.938965 -3
    endloop
  endfacet
  facet normal -0.2126 0.828019 0.51883
    outer loop
      vertex 1.35195 -4.16087 0
      vertex 0.788202 -2.42584 -3
      vertex 0.578627 -2.47965 -3
    endloop
  endfacet
  facet normal -0.585186 0.623195 0.518831
    outer loop
      vertex 3.18924 -2.99489 0
      vertex 1.85936 -1.74606 -3
      vertex 1.70163 -1.89417 -3
    endloop
  endfacet
  facet normal 0.721811 0.458041 0.518832
    outer loop
      vertex -2.11924 -1.41149 -3
      vertex -2.23517 -1.2288 -3
      vertex -3.83384 -2.10767 0
    endloop
  endfacet
  facet normal 0.502483 -0.691611 0.518831
    outer loop
      vertex -1.62586 1.96533 -3
      vertex -2.34424 3.69393 0
      vertex -2.78873 3.37099 0
    endloop
  endfacet
  facet normal 0.502513 -0.691592 0.518827
    outer loop
      vertex -2.34424 3.69393 0
      vertex -1.62586 1.96533 -3
      vertex -1.54177 2.02643 -3
    endloop
  endfacet
  facet normal 0.721799 -0.458062 0.518831
    outer loop
      vertex -3.83384 2.10767 0
      vertex -2.06354 1.49925 -3
      vertex -3.53945 2.57156 0
    endloop
  endfacet
  facet normal 0.721777 -0.458101 0.518827
    outer loop
      vertex -2.06354 1.49925 -3
      vertex -3.83384 2.10767 0
      vertex -2.11924 1.41149 -3
    endloop
  endfacet
  facet normal -0.411858 -0.749124 0.518831
    outer loop
      vertex 1.17711 2.25784 -3
      vertex 1.86278 3.95862 0
      vertex 1.08602 2.30792 -3
    endloop
  endfacet
  facet normal -0.411846 -0.74913 0.518832
    outer loop
      vertex 1.86278 3.95862 0
      vertex 1.17711 2.25784 -3
      vertex 2.34424 3.69393 0
    endloop
  endfacet
  facet normal -0.839737 0.160172 0.518832
    outer loop
      vertex 4.3405 -0.548332 0
      vertex 2.53056 -0.319684 -3
      vertex 2.49002 -0.532224 -3
    endloop
  endfacet
  facet normal -0.839731 0.160212 0.518829
    outer loop
      vertex 2.47054 -0.634326 -3
      vertex 4.3405 -0.548332 0
      vertex 2.49002 -0.532224 -3
    endloop
  endfacet
  facet normal -0.839735 0.160186 0.518832
    outer loop
      vertex 4.3405 -0.548332 0
      vertex 2.47054 -0.634326 -3
      vertex 4.23755 -1.08802 0
    endloop
  endfacet
  facet normal -0.721777 0.458101 0.518827
    outer loop
      vertex 2.06354 -1.49925 -3
      vertex 3.83384 -2.10767 0
      vertex 2.11924 -1.41149 -3
    endloop
  endfacet
  facet normal -0.721799 0.458062 0.518831
    outer loop
      vertex 3.83384 -2.10767 0
      vertex 2.06354 -1.49925 -3
      vertex 3.53945 -2.57156 0
    endloop
  endfacet
  facet normal -0.658679 0.544938 0.518831
    outer loop
      vertex 1.99728 -1.57934 -3
      vertex 3.53945 -2.57156 0
      vertex 2.06354 -1.49925 -3
    endloop
  endfacet
  facet normal -0.658693 0.544919 0.518832
    outer loop
      vertex 3.53945 -2.57156 0
      vertex 1.99728 -1.57934 -3
      vertex 3.18924 -2.99489 0
    endloop
  endfacet
  facet normal -0.212607 0.828017 0.518831
    outer loop
      vertex 0.578627 -2.47965 -3
      vertex 0.819793 -4.29751 0
      vertex 1.35195 -4.16087 0
    endloop
  endfacet
  facet normal -0.212599 0.828019 0.518831
    outer loop
      vertex 0.819793 -4.29751 0
      vertex 0.578627 -2.47965 -3
      vertex 0.477948 -2.5055 -3
    endloop
  endfacet
  facet normal -0.107111 0.84814 0.51883
    outer loop
      vertex 0.819793 -4.29751 0
      vertex 0.477948 -2.5055 -3
      vertex 0.263282 -2.53261 -3
    endloop
  endfacet
  facet normal -0.502483 0.691611 0.518831
    outer loop
      vertex 1.62586 -1.96533 -3
      vertex 2.34424 -3.69393 0
      vertex 2.78873 -3.37099 0
    endloop
  endfacet
  facet normal -0.502513 0.691592 0.518827
    outer loop
      vertex 2.34424 -3.69393 0
      vertex 1.62586 -1.96533 -3
      vertex 1.54177 -2.02643 -3
    endloop
  endfacet
  facet normal -0.5852 0.623181 0.518832
    outer loop
      vertex 1.70163 -1.89417 -3
      vertex 2.78873 -3.37099 0
      vertex 3.18924 -2.99489 0
    endloop
  endfacet
  facet normal -0.585236 0.623149 0.51883
    outer loop
      vertex 2.78873 -3.37099 0
      vertex 1.70163 -1.89417 -3
      vertex 1.62586 -1.96533 -3
    endloop
  endfacet
  facet normal -0.502481 0.691613 0.51883
    outer loop
      vertex 2.34424 -3.69393 0
      vertex 1.54177 -2.02643 -3
      vertex 1.36672 -2.15361 -3
    endloop
  endfacet
  facet normal -0.411813 0.74915 0.518829
    outer loop
      vertex 2.34424 -3.69393 0
      vertex 1.36672 -2.15361 -3
      vertex 1.17711 -2.25784 -3
    endloop
  endfacet
  facet normal 0.2126 0.828019 0.51883
    outer loop
      vertex -0.578627 -2.47965 -3
      vertex -0.788202 -2.42584 -3
      vertex -1.35195 -4.16087 0
    endloop
  endfacet
  facet normal 0.212599 0.828019 0.518831
    outer loop
      vertex -0.578627 -2.47965 -3
      vertex -0.819793 -4.29751 0
      vertex -0.477948 -2.5055 -3
    endloop
  endfacet
  facet normal 0.212607 0.828017 0.518831
    outer loop
      vertex -0.819793 -4.29751 0
      vertex -0.578627 -2.47965 -3
      vertex -1.35195 -4.16087 0
    endloop
  endfacet
  facet normal 0.502481 0.691613 0.51883
    outer loop
      vertex -1.36672 -2.15361 -3
      vertex -1.54177 -2.02643 -3
      vertex -2.34424 -3.69393 0
    endloop
  endfacet
  facet normal 0.721777 0.458101 0.518827
    outer loop
      vertex -3.83384 -2.10767 0
      vertex -2.06354 -1.49925 -3
      vertex -2.11924 -1.41149 -3
    endloop
  endfacet
  facet normal 0.721799 0.458062 0.518831
    outer loop
      vertex -2.06354 -1.49925 -3
      vertex -3.83384 -2.10767 0
      vertex -3.53945 -2.57156 0
    endloop
  endfacet
  facet normal 0.658679 0.544938 0.518831
    outer loop
      vertex -3.53945 -2.57156 0
      vertex -1.99728 -1.57934 -3
      vertex -2.06354 -1.49925 -3
    endloop
  endfacet
  facet normal 0.658693 0.544919 0.518832
    outer loop
      vertex -1.99728 -1.57934 -3
      vertex -3.53945 -2.57156 0
      vertex -3.18924 -2.99489 0
    endloop
  endfacet
  facet normal 0.773506 0.364013 0.518829
    outer loop
      vertex -4.06777 -1.61054 0
      vertex -2.23517 -1.2288 -3
      vertex -2.27943 -1.13475 -3
    endloop
  endfacet
  facet normal 0.773516 0.363987 0.518831
    outer loop
      vertex -2.23517 -1.2288 -3
      vertex -4.06777 -1.61054 0
      vertex -3.83384 -2.10767 0
    endloop
  endfacet
  facet normal 0.81304 0.264162 0.51883
    outer loop
      vertex -2.37156 -0.938965 -3
      vertex -2.43842 -0.733183 -3
      vertex -4.06777 -1.61054 0
    endloop
  endfacet
  facet normal 0.813035 -0.264176 0.518831
    outer loop
      vertex -4.23755 1.08802 0
      vertex -2.43842 0.733183 -3
      vertex -4.06777 1.61054 0
    endloop
  endfacet
  facet normal 0.813037 -0.264167 0.518832
    outer loop
      vertex -2.43842 0.733183 -3
      vertex -4.23755 1.08802 0
      vertex -2.47054 0.634326 -3
    endloop
  endfacet
  facet normal 0.411813 -0.74915 0.518829
    outer loop
      vertex -1.36672 2.15361 -3
      vertex -1.17711 2.25784 -3
      vertex -2.34424 3.69393 0
    endloop
  endfacet
  facet normal -0.721811 -0.458041 0.518832
    outer loop
      vertex 2.23517 1.2288 -3
      vertex 3.83384 2.10767 0
      vertex 2.11924 1.41149 -3
    endloop
  endfacet
  facet normal -0.502481 -0.691613 0.51883
    outer loop
      vertex 1.54177 2.02643 -3
      vertex 2.34424 3.69393 0
      vertex 1.36672 2.15361 -3
    endloop
  endfacet
  facet normal -0.773515 0.363991 0.51883
    outer loop
      vertex 4.06777 -1.61054 0
      vertex 2.37156 -0.938965 -3
      vertex 2.27943 -1.13475 -3
    endloop
  endfacet
  facet normal -0.314701 0.794844 0.518832
    outer loop
      vertex 1.86278 -3.95862 0
      vertex 1.08602 -2.30792 -3
      vertex 0.884847 -2.38757 -3
    endloop
  endfacet
  facet normal 0.813037 0.264167 0.518832
    outer loop
      vertex -4.23755 -1.08802 0
      vertex -2.43842 -0.733183 -3
      vertex -2.47054 -0.634326 -3
    endloop
  endfacet
  facet normal 0.813035 0.264176 0.518831
    outer loop
      vertex -2.43842 -0.733183 -3
      vertex -4.23755 -1.08802 0
      vertex -4.06777 -1.61054 0
    endloop
  endfacet
  facet normal 0.839731 0.160212 0.518829
    outer loop
      vertex -4.3405 -0.548332 0
      vertex -2.47054 -0.634326 -3
      vertex -2.49002 -0.532224 -3
    endloop
  endfacet
  facet normal 0.839735 0.160186 0.518832
    outer loop
      vertex -2.47054 -0.634326 -3
      vertex -4.3405 -0.548332 0
      vertex -4.23755 -1.08802 0
    endloop
  endfacet
  facet normal 0.314701 0.794844 0.518832
    outer loop
      vertex -0.884847 -2.38757 -3
      vertex -1.08602 -2.30792 -3
      vertex -1.86278 -3.95862 0
    endloop
  endfacet
  facet normal 0.314741 0.79483 0.518829
    outer loop
      vertex -0.884847 -2.38757 -3
      vertex -1.35195 -4.16087 0
      vertex -0.788202 -2.42584 -3
    endloop
  endfacet
  facet normal 0.314698 0.794845 0.518832
    outer loop
      vertex -1.35195 -4.16087 0
      vertex -0.884847 -2.38757 -3
      vertex -1.86278 -3.95862 0
    endloop
  endfacet
  facet normal 0.585236 0.623149 0.51883
    outer loop
      vertex -1.70163 -1.89417 -3
      vertex -2.78873 -3.37099 0
      vertex -1.62586 -1.96533 -3
    endloop
  endfacet
  facet normal 0.5852 0.623181 0.518832
    outer loop
      vertex -2.78873 -3.37099 0
      vertex -1.70163 -1.89417 -3
      vertex -3.18924 -2.99489 0
    endloop
  endfacet
  facet normal 0.411846 -0.74913 0.518832
    outer loop
      vertex -1.17711 2.25784 -3
      vertex -1.86278 3.95862 0
      vertex -2.34424 3.69393 0
    endloop
  endfacet
  facet normal 0.411858 -0.749124 0.518831
    outer loop
      vertex -1.86278 3.95862 0
      vertex -1.17711 2.25784 -3
      vertex -1.08602 2.30792 -3
    endloop
  endfacet
  facet normal 0.839735 -0.160186 0.518832
    outer loop
      vertex -4.3405 0.548332 0
      vertex -2.47054 0.634326 -3
      vertex -4.23755 1.08802 0
    endloop
  endfacet
  facet normal 0.839731 -0.160212 0.518829
    outer loop
      vertex -2.47054 0.634326 -3
      vertex -4.3405 0.548332 0
      vertex -2.49002 0.532224 -3
    endloop
  endfacet
  facet normal 0.721811 -0.458041 0.518832
    outer loop
      vertex -2.23517 1.2288 -3
      vertex -2.11924 1.41149 -3
      vertex -3.83384 2.10767 0
    endloop
  endfacet
  facet normal 0.5852 -0.623181 0.518832
    outer loop
      vertex -1.70163 1.89417 -3
      vertex -2.78873 3.37099 0
      vertex -3.18924 2.99489 0
    endloop
  endfacet
  facet normal 0.585236 -0.623149 0.51883
    outer loop
      vertex -2.78873 3.37099 0
      vertex -1.70163 1.89417 -3
      vertex -1.62586 1.96533 -3
    endloop
  endfacet
  facet normal 0.314701 -0.794844 0.518832
    outer loop
      vertex -1.08602 2.30792 -3
      vertex -0.884847 2.38757 -3
      vertex -1.86278 3.95862 0
    endloop
  endfacet
  facet normal -0.773516 -0.363987 0.518831
    outer loop
      vertex 2.23517 1.2288 -3
      vertex 4.06777 1.61054 0
      vertex 3.83384 2.10767 0
    endloop
  endfacet
  facet normal -0.773506 -0.364013 0.518829
    outer loop
      vertex 4.06777 1.61054 0
      vertex 2.23517 1.2288 -3
      vertex 2.27943 1.13475 -3
    endloop
  endfacet
  facet normal -0.585186 -0.623195 0.518831
    outer loop
      vertex 1.85936 1.74606 -3
      vertex 3.18924 2.99489 0
      vertex 1.70163 1.89417 -3
    endloop
  endfacet
  facet normal -0.411813 -0.74915 0.518829
    outer loop
      vertex 1.36672 2.15361 -3
      vertex 2.34424 3.69393 0
      vertex 1.17711 2.25784 -3
    endloop
  endfacet
  facet normal -0.107164 -0.848133 0.518832
    outer loop
      vertex 0.263282 2.53261 -3
      vertex 0.274708 4.36637 0
      vertex 0.160158 2.54564 -3
    endloop
  endfacet
  facet normal -0.107144 -0.848135 0.518833
    outer loop
      vertex 0.274708 4.36637 0
      vertex 0.263282 2.53261 -3
      vertex 0.819793 4.29751 0
    endloop
  endfacet
  facet normal 0 -0.854876 0.518833
    outer loop
      vertex -0.160158 2.54564 -3
      vertex 0.274708 4.36637 0
      vertex -0.274708 4.36637 0
    endloop
  endfacet
  facet normal 0 -0.854876 0.518833
    outer loop
      vertex 0.274708 4.36637 0
      vertex -0.160158 2.54564 -3
      vertex 0.160158 2.54564 -3
    endloop
  endfacet
  facet normal 0.773515 0.363991 0.51883
    outer loop
      vertex -2.27943 -1.13475 -3
      vertex -2.37156 -0.938965 -3
      vertex -4.06777 -1.61054 0
    endloop
  endfacet
  facet normal 0.107164 0.848133 0.518832
    outer loop
      vertex -0.263282 -2.53261 -3
      vertex -0.274708 -4.36637 0
      vertex -0.160158 -2.54564 -3
    endloop
  endfacet
  facet normal 0.107144 0.848135 0.518833
    outer loop
      vertex -0.274708 -4.36637 0
      vertex -0.263282 -2.53261 -3
      vertex -0.819793 -4.29751 0
    endloop
  endfacet
  facet normal 0 0.854876 0.518833
    outer loop
      vertex 0.160158 -2.54564 -3
      vertex -0.274708 -4.36637 0
      vertex 0.274708 -4.36637 0
    endloop
  endfacet
  facet normal 0 0.854876 0.518833
    outer loop
      vertex -0.274708 -4.36637 0
      vertex 0.160158 -2.54564 -3
      vertex -0.160158 -2.54564 -3
    endloop
  endfacet
  facet normal 0.411858 0.749124 0.518831
    outer loop
      vertex -1.17711 -2.25784 -3
      vertex -1.86278 -3.95862 0
      vertex -1.08602 -2.30792 -3
    endloop
  endfacet
  facet normal 0.411846 0.74913 0.518832
    outer loop
      vertex -1.86278 -3.95862 0
      vertex -1.17711 -2.25784 -3
      vertex -2.34424 -3.69393 0
    endloop
  endfacet
  facet normal 0.411813 0.74915 0.518829
    outer loop
      vertex -1.17711 -2.25784 -3
      vertex -1.36672 -2.15361 -3
      vertex -2.34424 -3.69393 0
    endloop
  endfacet
  facet normal 0.585186 0.623195 0.518831
    outer loop
      vertex -1.70163 -1.89417 -3
      vertex -1.85936 -1.74606 -3
      vertex -3.18924 -2.99489 0
    endloop
  endfacet
  facet normal 0.658699 0.544912 0.518831
    outer loop
      vertex -1.85936 -1.74606 -3
      vertex -1.99728 -1.57934 -3
      vertex -3.18924 -2.99489 0
    endloop
  endfacet
  facet normal 0.773516 -0.363987 0.518831
    outer loop
      vertex -4.06777 1.61054 0
      vertex -2.23517 1.2288 -3
      vertex -3.83384 2.10767 0
    endloop
  endfacet
  facet normal 0.773506 -0.364013 0.518829
    outer loop
      vertex -2.23517 1.2288 -3
      vertex -4.06777 1.61054 0
      vertex -2.27943 1.13475 -3
    endloop
  endfacet
  facet normal 0.853188 -0.0536934 0.518832
    outer loop
      vertex -2.54415 0.103739 -3
      vertex -2.53056 0.319684 -3
      vertex -4.3405 0.548332 0
    endloop
  endfacet
  facet normal 0.81304 -0.264162 0.51883
    outer loop
      vertex -2.43842 0.733183 -3
      vertex -2.37156 0.938965 -3
      vertex -4.06777 1.61054 0
    endloop
  endfacet
  facet normal 0.773515 -0.363991 0.51883
    outer loop
      vertex -2.37156 0.938965 -3
      vertex -2.27943 1.13475 -3
      vertex -4.06777 1.61054 0
    endloop
  endfacet
  facet normal 0.658693 -0.544919 0.518832
    outer loop
      vertex -3.53945 2.57156 0
      vertex -1.99728 1.57934 -3
      vertex -3.18924 2.99489 0
    endloop
  endfacet
  facet normal 0.658679 -0.544938 0.518831
    outer loop
      vertex -1.99728 1.57934 -3
      vertex -3.53945 2.57156 0
      vertex -2.06354 1.49925 -3
    endloop
  endfacet
  facet normal 0.502481 -0.691613 0.51883
    outer loop
      vertex -1.54177 2.02643 -3
      vertex -1.36672 2.15361 -3
      vertex -2.34424 3.69393 0
    endloop
  endfacet
  facet normal 0.314698 -0.794845 0.518832
    outer loop
      vertex -0.884847 2.38757 -3
      vertex -1.35195 4.16087 0
      vertex -1.86278 3.95862 0
    endloop
  endfacet
  facet normal 0.314741 -0.79483 0.518829
    outer loop
      vertex -1.35195 4.16087 0
      vertex -0.884847 2.38757 -3
      vertex -0.788202 2.42584 -3
    endloop
  endfacet
  facet normal 0.2126 -0.828019 0.51883
    outer loop
      vertex -0.788202 2.42584 -3
      vertex -0.578627 2.47965 -3
      vertex -1.35195 4.16087 0
    endloop
  endfacet
  facet normal -0.658699 -0.544912 0.518831
    outer loop
      vertex 1.99728 1.57934 -3
      vertex 3.18924 2.99489 0
      vertex 1.85936 1.74606 -3
    endloop
  endfacet
  facet normal -0.585236 -0.623149 0.51883
    outer loop
      vertex 1.70163 1.89417 -3
      vertex 2.78873 3.37099 0
      vertex 1.62586 1.96533 -3
    endloop
  endfacet
  facet normal -0.5852 -0.623181 0.518832
    outer loop
      vertex 2.78873 3.37099 0
      vertex 1.70163 1.89417 -3
      vertex 3.18924 2.99489 0
    endloop
  endfacet
  facet normal -0.502513 -0.691592 0.518827
    outer loop
      vertex 1.62586 1.96533 -3
      vertex 2.34424 3.69393 0
      vertex 1.54177 2.02643 -3
    endloop
  endfacet
  facet normal -0.502483 -0.691611 0.518831
    outer loop
      vertex 2.34424 3.69393 0
      vertex 1.62586 1.96533 -3
      vertex 2.78873 3.37099 0
    endloop
  endfacet
  facet normal -0.107111 -0.84814 0.51883
    outer loop
      vertex 0.477948 2.5055 -3
      vertex 0.819793 4.29751 0
      vertex 0.263282 2.53261 -3
    endloop
  endfacet
  facet normal -0.2126 -0.828019 0.51883
    outer loop
      vertex 0.788202 2.42584 -3
      vertex 1.35195 4.16087 0
      vertex 0.578627 2.47965 -3
    endloop
  endfacet
  facet normal -0.212599 -0.828019 0.518831
    outer loop
      vertex 0.578627 2.47965 -3
      vertex 0.819793 4.29751 0
      vertex 0.477948 2.5055 -3
    endloop
  endfacet
  facet normal -0.212607 -0.828017 0.518831
    outer loop
      vertex 0.819793 4.29751 0
      vertex 0.578627 2.47965 -3
      vertex 1.35195 4.16087 0
    endloop
  endfacet
  facet normal 0.107111 0.84814 0.51883
    outer loop
      vertex -0.263282 -2.53261 -3
      vertex -0.477948 -2.5055 -3
      vertex -0.819793 -4.29751 0
    endloop
  endfacet
  facet normal 0.853188 0.0536934 0.518832
    outer loop
      vertex -2.53056 -0.319684 -3
      vertex -2.54415 -0.103739 -3
      vertex -4.3405 -0.548332 0
    endloop
  endfacet
  facet normal 0.658699 -0.544912 0.518831
    outer loop
      vertex -1.99728 1.57934 -3
      vertex -1.85936 1.74606 -3
      vertex -3.18924 2.99489 0
    endloop
  endfacet
  facet normal 0.585186 -0.623195 0.518831
    outer loop
      vertex -1.85936 1.74606 -3
      vertex -1.70163 1.89417 -3
      vertex -3.18924 2.99489 0
    endloop
  endfacet
  facet normal -0.839735 -0.160186 0.518832
    outer loop
      vertex 2.47054 0.634326 -3
      vertex 4.3405 0.548332 0
      vertex 4.23755 1.08802 0
    endloop
  endfacet
  facet normal -0.839731 -0.160212 0.518829
    outer loop
      vertex 4.3405 0.548332 0
      vertex 2.47054 0.634326 -3
      vertex 2.49002 0.532224 -3
    endloop
  endfacet
  facet normal -0.839737 -0.160172 0.518832
    outer loop
      vertex 2.53056 0.319684 -3
      vertex 4.3405 0.548332 0
      vertex 2.49002 0.532224 -3
    endloop
  endfacet
  facet normal -0.658693 -0.544919 0.518832
    outer loop
      vertex 1.99728 1.57934 -3
      vertex 3.53945 2.57156 0
      vertex 3.18924 2.99489 0
    endloop
  endfacet
  facet normal -0.658679 -0.544938 0.518831
    outer loop
      vertex 3.53945 2.57156 0
      vertex 1.99728 1.57934 -3
      vertex 2.06354 1.49925 -3
    endloop
  endfacet
  facet normal -0.721799 -0.458062 0.518831
    outer loop
      vertex 2.06354 1.49925 -3
      vertex 3.83384 2.10767 0
      vertex 3.53945 2.57156 0
    endloop
  endfacet
  facet normal -0.721777 -0.458101 0.518827
    outer loop
      vertex 3.83384 2.10767 0
      vertex 2.06354 1.49925 -3
      vertex 2.11924 1.41149 -3
    endloop
  endfacet
  facet normal 0.107111 -0.84814 0.51883
    outer loop
      vertex -0.477948 2.5055 -3
      vertex -0.263282 2.53261 -3
      vertex -0.819793 4.29751 0
    endloop
  endfacet
  facet normal -0.314741 -0.79483 0.518829
    outer loop
      vertex 0.884847 2.38757 -3
      vertex 1.35195 4.16087 0
      vertex 0.788202 2.42584 -3
    endloop
  endfacet
  facet normal -0.314698 -0.794845 0.518832
    outer loop
      vertex 1.35195 4.16087 0
      vertex 0.884847 2.38757 -3
      vertex 1.86278 3.95862 0
    endloop
  endfacet
  facet normal -0.314701 -0.794844 0.518832
    outer loop
      vertex 1.08602 2.30792 -3
      vertex 1.86278 3.95862 0
      vertex 0.884847 2.38757 -3
    endloop
  endfacet
  facet normal 0.85319 -0.0536811 0.518831
    outer loop
      vertex -4.375 0 0
      vertex -2.54415 0.103739 -3
      vertex -4.3405 0.548332 0
    endloop
  endfacet
  facet normal 0.853189 -0.0537052 0.51883
    outer loop
      vertex -2.54415 0.103739 -3
      vertex -4.375 0 0
      vertex -2.55068 0 -3
    endloop
  endfacet
  facet normal 0.853189 0.0537052 0.51883
    outer loop
      vertex -4.375 0 0
      vertex -2.54415 -0.103739 -3
      vertex -2.55068 0 -3
    endloop
  endfacet
  facet normal 0.85319 0.0536811 0.518831
    outer loop
      vertex -2.54415 -0.103739 -3
      vertex -4.375 0 0
      vertex -4.3405 -0.548332 0
    endloop
  endfacet
  facet normal 0.839737 -0.160172 0.518832
    outer loop
      vertex -2.53056 0.319684 -3
      vertex -2.49002 0.532224 -3
      vertex -4.3405 0.548332 0
    endloop
  endfacet
  facet normal -0.773515 -0.363991 0.51883
    outer loop
      vertex 2.37156 0.938965 -3
      vertex 4.06777 1.61054 0
      vertex 2.27943 1.13475 -3
    endloop
  endfacet
  facet normal -0.81304 -0.264162 0.51883
    outer loop
      vertex 2.43842 0.733183 -3
      vertex 4.06777 1.61054 0
      vertex 2.37156 0.938965 -3
    endloop
  endfacet
  facet normal -0.813035 -0.264176 0.518831
    outer loop
      vertex 2.43842 0.733183 -3
      vertex 4.23755 1.08802 0
      vertex 4.06777 1.61054 0
    endloop
  endfacet
  facet normal -0.813037 -0.264167 0.518832
    outer loop
      vertex 4.23755 1.08802 0
      vertex 2.43842 0.733183 -3
      vertex 2.47054 0.634326 -3
    endloop
  endfacet
  facet normal 0.998027 0.0627939 0
    outer loop
      vertex 7 0 0
      vertex 6.9448 0.877332 -3
      vertex 6.9448 0.877332 0
    endloop
  endfacet
  facet normal 0.998027 0.0627939 0
    outer loop
      vertex 6.9448 0.877332 -3
      vertex 7 0 0
      vertex 7 0 -3
    endloop
  endfacet
  facet normal -0.998027 0.0627939 0
    outer loop
      vertex -7 0 -3
      vertex -6.9448 0.877332 0
      vertex -6.9448 0.877332 -3
    endloop
  endfacet
  facet normal -0.998027 0.0627939 0
    outer loop
      vertex -6.9448 0.877332 0
      vertex -7 0 -3
      vertex -7 0 0
    endloop
  endfacet
  facet normal 0 1 -0
    outer loop
      vertex 0.439533 6.98619 -3
      vertex -0.439533 6.98619 0
      vertex 0.439533 6.98619 0
    endloop
  endfacet
  facet normal 0 1 0
    outer loop
      vertex -0.439533 6.98619 0
      vertex 0.439533 6.98619 -3
      vertex -0.439533 6.98619 -3
    endloop
  endfacet
  facet normal 0.684547 0.728969 -0
    outer loop
      vertex 5.10278 4.79183 -3
      vertex 4.46197 5.39359 0
      vertex 5.10278 4.79183 0
    endloop
  endfacet
  facet normal 0.684547 0.728969 0
    outer loop
      vertex 4.46197 5.39359 0
      vertex 5.10278 4.79183 -3
      vertex 4.46197 5.39359 -3
    endloop
  endfacet
  facet normal -0.684547 0.728969 0
    outer loop
      vertex -4.46197 5.39359 -3
      vertex -5.10278 4.79183 0
      vertex -4.46197 5.39359 0
    endloop
  endfacet
  facet normal -0.684547 0.728969 0
    outer loop
      vertex -5.10278 4.79183 0
      vertex -4.46197 5.39359 -3
      vertex -5.10278 4.79183 -3
    endloop
  endfacet
  facet normal -0.368131 0.929774 0
    outer loop
      vertex -2.16312 6.6574 -3
      vertex -2.98045 6.33379 0
      vertex -2.16312 6.6574 0
    endloop
  endfacet
  facet normal -0.368131 0.929774 0
    outer loop
      vertex -2.98045 6.33379 0
      vertex -2.16312 6.6574 -3
      vertex -2.98045 6.33379 -3
    endloop
  endfacet
  facet normal 0.770511 -0.637427 0
    outer loop
      vertex 5.10278 -4.79183 0
      vertex 5.66312 -4.1145 -3
      vertex 5.66312 -4.1145 0
    endloop
  endfacet
  facet normal 0.770511 -0.637427 0
    outer loop
      vertex 5.66312 -4.1145 -3
      vertex 5.10278 -4.79183 0
      vertex 5.10278 -4.79183 -3
    endloop
  endfacet
  facet normal 0.904828 0.425778 0
    outer loop
      vertex 6.50844 2.57687 0
      vertex 6.13415 3.37228 -3
      vertex 6.13415 3.37228 0
    endloop
  endfacet
  facet normal 0.904828 0.425778 0
    outer loop
      vertex 6.13415 3.37228 -3
      vertex 6.50844 2.57687 0
      vertex 6.50844 2.57687 -3
    endloop
  endfacet
  facet normal 0.982287 0.18738 0
    outer loop
      vertex 6.9448 0.877332 0
      vertex 6.78008 1.74083 -3
      vertex 6.78008 1.74083 0
    endloop
  endfacet
  facet normal 0.982287 0.18738 0
    outer loop
      vertex 6.78008 1.74083 -3
      vertex 6.9448 0.877332 0
      vertex 6.9448 0.877332 -3
    endloop
  endfacet
  facet normal 0.368131 0.929774 -0
    outer loop
      vertex 2.98045 6.33379 -3
      vertex 2.16312 6.6574 0
      vertex 2.98045 6.33379 0
    endloop
  endfacet
  facet normal 0.368131 0.929774 0
    outer loop
      vertex 2.16312 6.6574 0
      vertex 2.98045 6.33379 -3
      vertex 2.16312 6.6574 -3
    endloop
  endfacet
  facet normal 0.587783 0.809018 -0
    outer loop
      vertex 4.46197 5.39359 -3
      vertex 3.75079 5.91029 0
      vertex 4.46197 5.39359 0
    endloop
  endfacet
  facet normal 0.587783 0.809018 0
    outer loop
      vertex 3.75079 5.91029 0
      vertex 4.46197 5.39359 -3
      vertex 3.75079 5.91029 -3
    endloop
  endfacet
  facet normal -0.904828 0.425778 0
    outer loop
      vertex -6.50844 2.57687 -3
      vertex -6.13415 3.37228 0
      vertex -6.13415 3.37228 -3
    endloop
  endfacet
  facet normal -0.904828 0.425778 0
    outer loop
      vertex -6.13415 3.37228 0
      vertex -6.50844 2.57687 -3
      vertex -6.50844 2.57687 0
    endloop
  endfacet
  facet normal -0.844326 0.535829 0
    outer loop
      vertex -6.13415 3.37228 -3
      vertex -5.66312 4.1145 0
      vertex -5.66312 4.1145 -3
    endloop
  endfacet
  facet normal -0.844326 0.535829 0
    outer loop
      vertex -5.66312 4.1145 0
      vertex -6.13415 3.37228 -3
      vertex -6.13415 3.37228 0
    endloop
  endfacet
  facet normal -0.951058 0.309011 0
    outer loop
      vertex -6.78008 1.74083 -3
      vertex -6.50844 2.57687 0
      vertex -6.50844 2.57687 -3
    endloop
  endfacet
  facet normal -0.951058 0.309011 0
    outer loop
      vertex -6.50844 2.57687 0
      vertex -6.78008 1.74083 -3
      vertex -6.78008 1.74083 0
    endloop
  endfacet
  facet normal -0.587783 0.809018 0
    outer loop
      vertex -3.75079 5.91029 -3
      vertex -4.46197 5.39359 0
      vertex -3.75079 5.91029 0
    endloop
  endfacet
  facet normal -0.587783 0.809018 0
    outer loop
      vertex -4.46197 5.39359 0
      vertex -3.75079 5.91029 -3
      vertex -4.46197 5.39359 -3
    endloop
  endfacet
  facet normal -0.125337 0.992114 0
    outer loop
      vertex -0.439533 6.98619 -3
      vertex -1.31167 6.87601 0
      vertex -0.439533 6.98619 0
    endloop
  endfacet
  facet normal -0.125337 0.992114 0
    outer loop
      vertex -1.31167 6.87601 0
      vertex -0.439533 6.98619 -3
      vertex -1.31167 6.87601 -3
    endloop
  endfacet
  facet normal -0.248684 -0.968585 0
    outer loop
      vertex -2.16312 -6.6574 -3
      vertex -1.31167 -6.87601 0
      vertex -2.16312 -6.6574 0
    endloop
  endfacet
  facet normal -0.248684 -0.968585 -0
    outer loop
      vertex -1.31167 -6.87601 0
      vertex -2.16312 -6.6574 -3
      vertex -1.31167 -6.87601 -3
    endloop
  endfacet
  facet normal 0.125337 -0.992114 0
    outer loop
      vertex 0.439533 -6.98619 -3
      vertex 1.31167 -6.87601 0
      vertex 0.439533 -6.98619 0
    endloop
  endfacet
  facet normal 0.125337 -0.992114 0
    outer loop
      vertex 1.31167 -6.87601 0
      vertex 0.439533 -6.98619 -3
      vertex 1.31167 -6.87601 -3
    endloop
  endfacet
  facet normal 0.951058 0.309011 0
    outer loop
      vertex 6.78008 1.74083 0
      vertex 6.50844 2.57687 -3
      vertex 6.50844 2.57687 0
    endloop
  endfacet
  facet normal 0.951058 0.309011 0
    outer loop
      vertex 6.50844 2.57687 -3
      vertex 6.78008 1.74083 0
      vertex 6.78008 1.74083 -3
    endloop
  endfacet
  facet normal 0.770511 0.637427 0
    outer loop
      vertex 5.66312 4.1145 0
      vertex 5.10278 4.79183 -3
      vertex 5.10278 4.79183 0
    endloop
  endfacet
  facet normal 0.770511 0.637427 0
    outer loop
      vertex 5.10278 4.79183 -3
      vertex 5.66312 4.1145 0
      vertex 5.66312 4.1145 -3
    endloop
  endfacet
  facet normal 0.844326 0.535829 0
    outer loop
      vertex 6.13415 3.37228 0
      vertex 5.66312 4.1145 -3
      vertex 5.66312 4.1145 0
    endloop
  endfacet
  facet normal 0.844326 0.535829 0
    outer loop
      vertex 5.66312 4.1145 -3
      vertex 6.13415 3.37228 0
      vertex 6.13415 3.37228 -3
    endloop
  endfacet
  facet normal 0.248684 0.968585 -0
    outer loop
      vertex 2.16312 6.6574 -3
      vertex 1.31167 6.87601 0
      vertex 2.16312 6.6574 0
    endloop
  endfacet
  facet normal 0.248684 0.968585 0
    outer loop
      vertex 1.31167 6.87601 0
      vertex 2.16312 6.6574 -3
      vertex 1.31167 6.87601 -3
    endloop
  endfacet
  facet normal 0.125337 0.992114 -0
    outer loop
      vertex 1.31167 6.87601 -3
      vertex 0.439533 6.98619 0
      vertex 1.31167 6.87601 0
    endloop
  endfacet
  facet normal 0.125337 0.992114 0
    outer loop
      vertex 0.439533 6.98619 0
      vertex 1.31167 6.87601 -3
      vertex 0.439533 6.98619 -3
    endloop
  endfacet
  facet normal 0.481755 0.876306 -0
    outer loop
      vertex 3.75079 5.91029 -3
      vertex 2.98045 6.33379 0
      vertex 3.75079 5.91029 0
    endloop
  endfacet
  facet normal 0.481755 0.876306 0
    outer loop
      vertex 2.98045 6.33379 0
      vertex 3.75079 5.91029 -3
      vertex 2.98045 6.33379 -3
    endloop
  endfacet
  facet normal -0.770511 0.637427 0
    outer loop
      vertex -5.66312 4.1145 -3
      vertex -5.10278 4.79183 0
      vertex -5.10278 4.79183 -3
    endloop
  endfacet
  facet normal -0.770511 0.637427 0
    outer loop
      vertex -5.10278 4.79183 0
      vertex -5.66312 4.1145 -3
      vertex -5.66312 4.1145 0
    endloop
  endfacet
  facet normal -0.248684 0.968585 0
    outer loop
      vertex -1.31167 6.87601 -3
      vertex -2.16312 6.6574 0
      vertex -1.31167 6.87601 0
    endloop
  endfacet
  facet normal -0.248684 0.968585 0
    outer loop
      vertex -2.16312 6.6574 0
      vertex -1.31167 6.87601 -3
      vertex -2.16312 6.6574 -3
    endloop
  endfacet
  facet normal 0.998027 -0.0627939 0
    outer loop
      vertex 6.9448 -0.877332 0
      vertex 7 0 -3
      vertex 7 0 0
    endloop
  endfacet
  facet normal 0.998027 -0.0627939 0
    outer loop
      vertex 7 0 -3
      vertex 6.9448 -0.877332 0
      vertex 6.9448 -0.877332 -3
    endloop
  endfacet
  facet normal 0.587783 -0.809018 0
    outer loop
      vertex 3.75079 -5.91029 -3
      vertex 4.46197 -5.39359 0
      vertex 3.75079 -5.91029 0
    endloop
  endfacet
  facet normal 0.587783 -0.809018 0
    outer loop
      vertex 4.46197 -5.39359 0
      vertex 3.75079 -5.91029 -3
      vertex 4.46197 -5.39359 -3
    endloop
  endfacet
  facet normal 0.904828 -0.425778 0
    outer loop
      vertex 6.13415 -3.37228 0
      vertex 6.50844 -2.57687 -3
      vertex 6.50844 -2.57687 0
    endloop
  endfacet
  facet normal 0.904828 -0.425778 0
    outer loop
      vertex 6.50844 -2.57687 -3
      vertex 6.13415 -3.37228 0
      vertex 6.13415 -3.37228 -3
    endloop
  endfacet
  facet normal 0.844326 -0.535829 0
    outer loop
      vertex 5.66312 -4.1145 0
      vertex 6.13415 -3.37228 -3
      vertex 6.13415 -3.37228 0
    endloop
  endfacet
  facet normal 0.844326 -0.535829 0
    outer loop
      vertex 6.13415 -3.37228 -3
      vertex 5.66312 -4.1145 0
      vertex 5.66312 -4.1145 -3
    endloop
  endfacet
  facet normal -0.844326 -0.535829 0
    outer loop
      vertex -5.66312 -4.1145 -3
      vertex -6.13415 -3.37228 0
      vertex -6.13415 -3.37228 -3
    endloop
  endfacet
  facet normal -0.844326 -0.535829 0
    outer loop
      vertex -6.13415 -3.37228 0
      vertex -5.66312 -4.1145 -3
      vertex -5.66312 -4.1145 0
    endloop
  endfacet
  facet normal -0.904828 -0.425778 0
    outer loop
      vertex -6.13415 -3.37228 -3
      vertex -6.50844 -2.57687 0
      vertex -6.50844 -2.57687 -3
    endloop
  endfacet
  facet normal -0.904828 -0.425778 0
    outer loop
      vertex -6.50844 -2.57687 0
      vertex -6.13415 -3.37228 -3
      vertex -6.13415 -3.37228 0
    endloop
  endfacet
  facet normal -0.951058 -0.309011 0
    outer loop
      vertex -6.50844 -2.57687 -3
      vertex -6.78008 -1.74083 0
      vertex -6.78008 -1.74083 -3
    endloop
  endfacet
  facet normal -0.951058 -0.309011 0
    outer loop
      vertex -6.78008 -1.74083 0
      vertex -6.50844 -2.57687 -3
      vertex -6.50844 -2.57687 0
    endloop
  endfacet
  facet normal 0.684547 -0.728969 0
    outer loop
      vertex 4.46197 -5.39359 -3
      vertex 5.10278 -4.79183 0
      vertex 4.46197 -5.39359 0
    endloop
  endfacet
  facet normal 0.684547 -0.728969 0
    outer loop
      vertex 5.10278 -4.79183 0
      vertex 4.46197 -5.39359 -3
      vertex 5.10278 -4.79183 -3
    endloop
  endfacet
  facet normal 0.368131 -0.929774 0
    outer loop
      vertex 2.16312 -6.6574 -3
      vertex 2.98045 -6.33379 0
      vertex 2.16312 -6.6574 0
    endloop
  endfacet
  facet normal 0.368131 -0.929774 0
    outer loop
      vertex 2.98045 -6.33379 0
      vertex 2.16312 -6.6574 -3
      vertex 2.98045 -6.33379 -3
    endloop
  endfacet
  facet normal 0.248684 -0.968585 0
    outer loop
      vertex 1.31167 -6.87601 -3
      vertex 2.16312 -6.6574 0
      vertex 1.31167 -6.87601 0
    endloop
  endfacet
  facet normal 0.248684 -0.968585 0
    outer loop
      vertex 2.16312 -6.6574 0
      vertex 1.31167 -6.87601 -3
      vertex 2.16312 -6.6574 -3
    endloop
  endfacet
  facet normal -0.982287 0.18738 0
    outer loop
      vertex -6.9448 0.877332 -3
      vertex -6.78008 1.74083 0
      vertex -6.78008 1.74083 -3
    endloop
  endfacet
  facet normal -0.982287 0.18738 0
    outer loop
      vertex -6.78008 1.74083 0
      vertex -6.9448 0.877332 -3
      vertex -6.9448 0.877332 0
    endloop
  endfacet
  facet normal -0.481755 0.876306 0
    outer loop
      vertex -2.98045 6.33379 -3
      vertex -3.75079 5.91029 0
      vertex -2.98045 6.33379 0
    endloop
  endfacet
  facet normal -0.481755 0.876306 0
    outer loop
      vertex -3.75079 5.91029 0
      vertex -2.98045 6.33379 -3
      vertex -3.75079 5.91029 -3
    endloop
  endfacet
  facet normal 0 -1 0
    outer loop
      vertex -0.439533 -6.98619 -3
      vertex 0.439533 -6.98619 0
      vertex -0.439533 -6.98619 0
    endloop
  endfacet
  facet normal 0 -1 -0
    outer loop
      vertex 0.439533 -6.98619 0
      vertex -0.439533 -6.98619 -3
      vertex 0.439533 -6.98619 -3
    endloop
  endfacet
  facet normal -0.368131 -0.929774 0
    outer loop
      vertex -2.98045 -6.33379 -3
      vertex -2.16312 -6.6574 0
      vertex -2.98045 -6.33379 0
    endloop
  endfacet
  facet normal -0.368131 -0.929774 -0
    outer loop
      vertex -2.16312 -6.6574 0
      vertex -2.98045 -6.33379 -3
      vertex -2.16312 -6.6574 -3
    endloop
  endfacet
  facet normal -0.998027 -0.0627939 0
    outer loop
      vertex -6.9448 -0.877332 -3
      vertex -7 0 0
      vertex -7 0 -3
    endloop
  endfacet
  facet normal -0.998027 -0.0627939 0
    outer loop
      vertex -7 0 0
      vertex -6.9448 -0.877332 -3
      vertex -6.9448 -0.877332 0
    endloop
  endfacet
  facet normal 0.481755 -0.876306 0
    outer loop
      vertex 2.98045 -6.33379 -3
      vertex 3.75079 -5.91029 0
      vertex 2.98045 -6.33379 0
    endloop
  endfacet
  facet normal 0.481755 -0.876306 0
    outer loop
      vertex 3.75079 -5.91029 0
      vertex 2.98045 -6.33379 -3
      vertex 3.75079 -5.91029 -3
    endloop
  endfacet
  facet normal 0.951058 -0.309011 0
    outer loop
      vertex 6.50844 -2.57687 0
      vertex 6.78008 -1.74083 -3
      vertex 6.78008 -1.74083 0
    endloop
  endfacet
  facet normal 0.951058 -0.309011 0
    outer loop
      vertex 6.78008 -1.74083 -3
      vertex 6.50844 -2.57687 0
      vertex 6.50844 -2.57687 -3
    endloop
  endfacet
  facet normal 0.982287 -0.18738 0
    outer loop
      vertex 6.78008 -1.74083 0
      vertex 6.9448 -0.877332 -3
      vertex 6.9448 -0.877332 0
    endloop
  endfacet
  facet normal 0.982287 -0.18738 0
    outer loop
      vertex 6.9448 -0.877332 -3
      vertex 6.78008 -1.74083 0
      vertex 6.78008 -1.74083 -3
    endloop
  endfacet
  facet normal -0.125337 -0.992114 0
    outer loop
      vertex -1.31167 -6.87601 -3
      vertex -0.439533 -6.98619 0
      vertex -1.31167 -6.87601 0
    endloop
  endfacet
  facet normal -0.125337 -0.992114 -0
    outer loop
      vertex -0.439533 -6.98619 0
      vertex -1.31167 -6.87601 -3
      vertex -0.439533 -6.98619 -3
    endloop
  endfacet
  facet normal -0.684547 -0.728969 0
    outer loop
      vertex -5.10278 -4.79183 -3
      vertex -4.46197 -5.39359 0
      vertex -5.10278 -4.79183 0
    endloop
  endfacet
  facet normal -0.684547 -0.728969 -0
    outer loop
      vertex -4.46197 -5.39359 0
      vertex -5.10278 -4.79183 -3
      vertex -4.46197 -5.39359 -3
    endloop
  endfacet
  facet normal -0.770511 -0.637427 0
    outer loop
      vertex -5.10278 -4.79183 -3
      vertex -5.66312 -4.1145 0
      vertex -5.66312 -4.1145 -3
    endloop
  endfacet
  facet normal -0.770511 -0.637427 0
    outer loop
      vertex -5.66312 -4.1145 0
      vertex -5.10278 -4.79183 -3
      vertex -5.10278 -4.79183 0
    endloop
  endfacet
  facet normal 0 0 -1
    outer loop
      vertex 2.54415 -0.103739 -3
      vertex 7 0 -3
      vertex 6.9448 -0.877332 -3
    endloop
  endfacet
  facet normal 0 0 -1
    outer loop
      vertex 2.49002 -0.532224 -3
      vertex 6.9448 -0.877332 -3
      vertex 6.78008 -1.74083 -3
    endloop
  endfacet
  facet normal -0 0 -1
    outer loop
      vertex 7 0 -3
      vertex 2.54415 -0.103739 -3
      vertex 2.55068 0 -3
    endloop
  endfacet
  facet normal 0 0 -1
    outer loop
      vertex 2.43842 -0.733183 -3
      vertex 6.78008 -1.74083 -3
      vertex 6.50844 -2.57687 -3
    endloop
  endfacet
  facet normal 0 0 -1
    outer loop
      vertex 2.54415 0.103739 -3
      vertex 7 0 -3
      vertex 2.55068 0 -3
    endloop
  endfacet
  facet normal 0 0 -1
    outer loop
      vertex 2.27943 -1.13475 -3
      vertex 6.50844 -2.57687 -3
      vertex 6.13415 -3.37228 -3
    endloop
  endfacet
  facet normal 0 0 -1
    outer loop
      vertex 7 0 -3
      vertex 2.54415 0.103739 -3
      vertex 6.9448 0.877332 -3
    endloop
  endfacet
  facet normal 0 0 -1
    outer loop
      vertex 2.11924 -1.41149 -3
      vertex 6.13415 -3.37228 -3
      vertex 5.66312 -4.1145 -3
    endloop
  endfacet
  facet normal 0 0 -1
    outer loop
      vertex 2.53056 0.319684 -3
      vertex 6.9448 0.877332 -3
      vertex 2.54415 0.103739 -3
    endloop
  endfacet
  facet normal 0 0 -1
    outer loop
      vertex 1.99728 -1.57934 -3
      vertex 5.66312 -4.1145 -3
      vertex 5.10278 -4.79183 -3
    endloop
  endfacet
  facet normal 0 0 -1
    outer loop
      vertex 2.49002 0.532224 -3
      vertex 6.9448 0.877332 -3
      vertex 2.53056 0.319684 -3
    endloop
  endfacet
  facet normal 0 0 -1
    outer loop
      vertex 1.70163 -1.89417 -3
      vertex 5.10278 -4.79183 -3
      vertex 4.46197 -5.39359 -3
    endloop
  endfacet
  facet normal -0 0 -1
    outer loop
      vertex 6.9448 0.877332 -3
      vertex 2.49002 0.532224 -3
      vertex 6.78008 1.74083 -3
    endloop
  endfacet
  facet normal 0 0 -1
    outer loop
      vertex 1.54177 -2.02643 -3
      vertex 4.46197 -5.39359 -3
      vertex 3.75079 -5.91029 -3
    endloop
  endfacet
  facet normal 0 0 -1
    outer loop
      vertex 2.47054 0.634326 -3
      vertex 6.78008 1.74083 -3
      vertex 2.49002 0.532224 -3
    endloop
  endfacet
  facet normal 0 0 -1
    outer loop
      vertex 1.17711 -2.25784 -3
      vertex 3.75079 -5.91029 -3
      vertex 2.98045 -6.33379 -3
    endloop
  endfacet
  facet normal -0 0 -1
    outer loop
      vertex 6.78008 1.74083 -3
      vertex 2.43842 0.733183 -3
      vertex 6.50844 2.57687 -3
    endloop
  endfacet
  facet normal 0 0 -1
    outer loop
      vertex 2.37156 0.938965 -3
      vertex 6.50844 2.57687 -3
      vertex 2.43842 0.733183 -3
    endloop
  endfacet
  facet normal 0 0 -1
    outer loop
      vertex 2.43842 0.733183 -3
      vertex 6.78008 1.74083 -3
      vertex 2.47054 0.634326 -3
    endloop
  endfacet
  facet normal 0 0 -1
    outer loop
      vertex 6.9448 -0.877332 -3
      vertex 2.53056 -0.319684 -3
      vertex 2.54415 -0.103739 -3
    endloop
  endfacet
  facet normal 0 0 -1
    outer loop
      vertex 6.9448 -0.877332 -3
      vertex 2.49002 -0.532224 -3
      vertex 2.53056 -0.319684 -3
    endloop
  endfacet
  facet normal 0 0 -1
    outer loop
      vertex 6.78008 -1.74083 -3
      vertex 2.47054 -0.634326 -3
      vertex 2.49002 -0.532224 -3
    endloop
  endfacet
  facet normal 0 0 -1
    outer loop
      vertex 6.78008 -1.74083 -3
      vertex 2.43842 -0.733183 -3
      vertex 2.47054 -0.634326 -3
    endloop
  endfacet
  facet normal 0 0 -1
    outer loop
      vertex 6.50844 -2.57687 -3
      vertex 2.37156 -0.938965 -3
      vertex 2.43842 -0.733183 -3
    endloop
  endfacet
  facet normal 0 0 -1
    outer loop
      vertex 6.50844 -2.57687 -3
      vertex 2.27943 -1.13475 -3
      vertex 2.37156 -0.938965 -3
    endloop
  endfacet
  facet normal 0 0 -1
    outer loop
      vertex 6.13415 -3.37228 -3
      vertex 2.23517 -1.2288 -3
      vertex 2.27943 -1.13475 -3
    endloop
  endfacet
  facet normal 0 0 -1
    outer loop
      vertex 0.884847 -2.38757 -3
      vertex 2.98045 -6.33379 -3
      vertex 2.16312 -6.6574 -3
    endloop
  endfacet
  facet normal 0 0 -1
    outer loop
      vertex 6.13415 -3.37228 -3
      vertex 2.11924 -1.41149 -3
      vertex 2.23517 -1.2288 -3
    endloop
  endfacet
  facet normal 0 0 -1
    outer loop
      vertex 5.66312 -4.1145 -3
      vertex 2.06354 -1.49925 -3
      vertex 2.11924 -1.41149 -3
    endloop
  endfacet
  facet normal 0 0 -1
    outer loop
      vertex 5.66312 -4.1145 -3
      vertex 1.99728 -1.57934 -3
      vertex 2.06354 -1.49925 -3
    endloop
  endfacet
  facet normal 0 0 -1
    outer loop
      vertex 5.10278 -4.79183 -3
      vertex 1.85936 -1.74606 -3
      vertex 1.99728 -1.57934 -3
    endloop
  endfacet
  facet normal 0 0 -1
    outer loop
      vertex 5.10278 -4.79183 -3
      vertex 1.70163 -1.89417 -3
      vertex 1.85936 -1.74606 -3
    endloop
  endfacet
  facet normal 0 0 -1
    outer loop
      vertex 4.46197 -5.39359 -3
      vertex 1.62586 -1.96533 -3
      vertex 1.70163 -1.89417 -3
    endloop
  endfacet
  facet normal 0 0 -1
    outer loop
      vertex 4.46197 -5.39359 -3
      vertex 1.54177 -2.02643 -3
      vertex 1.62586 -1.96533 -3
    endloop
  endfacet
  facet normal 0 0 -1
    outer loop
      vertex 3.75079 -5.91029 -3
      vertex 1.36672 -2.15361 -3
      vertex 1.54177 -2.02643 -3
    endloop
  endfacet
  facet normal 0 0 -1
    outer loop
      vertex 0.578627 -2.47965 -3
      vertex 2.16312 -6.6574 -3
      vertex 1.31167 -6.87601 -3
    endloop
  endfacet
  facet normal 0 0 -1
    outer loop
      vertex 3.75079 -5.91029 -3
      vertex 1.17711 -2.25784 -3
      vertex 1.36672 -2.15361 -3
    endloop
  endfacet
  facet normal 0 0 -1
    outer loop
      vertex 2.98045 -6.33379 -3
      vertex 1.08602 -2.30792 -3
      vertex 1.17711 -2.25784 -3
    endloop
  endfacet
  facet normal 0 0 -1
    outer loop
      vertex 2.98045 -6.33379 -3
      vertex 0.884847 -2.38757 -3
      vertex 1.08602 -2.30792 -3
    endloop
  endfacet
  facet normal 0 0 -1
    outer loop
      vertex 2.16312 -6.6574 -3
      vertex 0.788202 -2.42584 -3
      vertex 0.884847 -2.38757 -3
    endloop
  endfacet
  facet normal 0 0 -1
    outer loop
      vertex 2.16312 -6.6574 -3
      vertex 0.578627 -2.47965 -3
      vertex 0.788202 -2.42584 -3
    endloop
  endfacet
  facet normal 0 0 -1
    outer loop
      vertex 1.31167 -6.87601 -3
      vertex 0.477948 -2.5055 -3
      vertex 0.578627 -2.47965 -3
    endloop
  endfacet
  facet normal 0 0 -1
    outer loop
      vertex 0.263282 -2.53261 -3
      vertex 1.31167 -6.87601 -3
      vertex 0.439533 -6.98619 -3
    endloop
  endfacet
  facet normal 0 0 -1
    outer loop
      vertex 1.31167 -6.87601 -3
      vertex 0.263282 -2.53261 -3
      vertex 0.477948 -2.5055 -3
    endloop
  endfacet
  facet normal 0 0 -1
    outer loop
      vertex 0.439533 -6.98619 -3
      vertex 0.160158 -2.54564 -3
      vertex 0.263282 -2.53261 -3
    endloop
  endfacet
  facet normal 0 0 -1
    outer loop
      vertex 0.439533 -6.98619 -3
      vertex -0.160158 -2.54564 -3
      vertex 0.160158 -2.54564 -3
    endloop
  endfacet
  facet normal 0 0 -1
    outer loop
      vertex -0.439533 -6.98619 -3
      vertex -0.160158 -2.54564 -3
      vertex 0.439533 -6.98619 -3
    endloop
  endfacet
  facet normal -0 0 -1
    outer loop
      vertex -0.160158 -2.54564 -3
      vertex -0.439533 -6.98619 -3
      vertex -0.263282 -2.53261 -3
    endloop
  endfacet
  facet normal 0 0 -1
    outer loop
      vertex -1.31167 -6.87601 -3
      vertex -0.263282 -2.53261 -3
      vertex -0.439533 -6.98619 -3
    endloop
  endfacet
  facet normal -0 0 -1
    outer loop
      vertex -0.263282 -2.53261 -3
      vertex -1.31167 -6.87601 -3
      vertex -0.477948 -2.5055 -3
    endloop
  endfacet
  facet normal -0 0 -1
    outer loop
      vertex -0.477948 -2.5055 -3
      vertex -1.31167 -6.87601 -3
      vertex -0.578627 -2.47965 -3
    endloop
  endfacet
  facet normal 0 0 -1
    outer loop
      vertex -2.16312 -6.6574 -3
      vertex -0.578627 -2.47965 -3
      vertex -1.31167 -6.87601 -3
    endloop
  endfacet
  facet normal -0 0 -1
    outer loop
      vertex -0.578627 -2.47965 -3
      vertex -2.16312 -6.6574 -3
      vertex -0.788202 -2.42584 -3
    endloop
  endfacet
  facet normal -0 0 -1
    outer loop
      vertex -0.788202 -2.42584 -3
      vertex -2.16312 -6.6574 -3
      vertex -0.884847 -2.38757 -3
    endloop
  endfacet
  facet normal 0 0 -1
    outer loop
      vertex -2.98045 -6.33379 -3
      vertex -0.884847 -2.38757 -3
      vertex -2.16312 -6.6574 -3
    endloop
  endfacet
  facet normal -0 0 -1
    outer loop
      vertex -0.884847 -2.38757 -3
      vertex -2.98045 -6.33379 -3
      vertex -1.08602 -2.30792 -3
    endloop
  endfacet
  facet normal -0 0 -1
    outer loop
      vertex -1.08602 -2.30792 -3
      vertex -2.98045 -6.33379 -3
      vertex -1.17711 -2.25784 -3
    endloop
  endfacet
  facet normal 0 0 -1
    outer loop
      vertex -3.75079 -5.91029 -3
      vertex -1.17711 -2.25784 -3
      vertex -2.98045 -6.33379 -3
    endloop
  endfacet
  facet normal -0 0 -1
    outer loop
      vertex -1.17711 -2.25784 -3
      vertex -3.75079 -5.91029 -3
      vertex -1.36672 -2.15361 -3
    endloop
  endfacet
  facet normal -0 0 -1
    outer loop
      vertex -1.36672 -2.15361 -3
      vertex -3.75079 -5.91029 -3
      vertex -1.54177 -2.02643 -3
    endloop
  endfacet
  facet normal 0 0 -1
    outer loop
      vertex -4.46197 -5.39359 -3
      vertex -1.54177 -2.02643 -3
      vertex -3.75079 -5.91029 -3
    endloop
  endfacet
  facet normal -0 0 -1
    outer loop
      vertex -1.54177 -2.02643 -3
      vertex -4.46197 -5.39359 -3
      vertex -1.62586 -1.96533 -3
    endloop
  endfacet
  facet normal -0 0 -1
    outer loop
      vertex -1.62586 -1.96533 -3
      vertex -4.46197 -5.39359 -3
      vertex -1.70163 -1.89417 -3
    endloop
  endfacet
  facet normal 0 0 -1
    outer loop
      vertex -5.10278 -4.79183 -3
      vertex -1.70163 -1.89417 -3
      vertex -4.46197 -5.39359 -3
    endloop
  endfacet
  facet normal -0 0 -1
    outer loop
      vertex -1.70163 -1.89417 -3
      vertex -5.10278 -4.79183 -3
      vertex -1.85936 -1.74606 -3
    endloop
  endfacet
  facet normal -0 0 -1
    outer loop
      vertex -1.85936 -1.74606 -3
      vertex -5.10278 -4.79183 -3
      vertex -1.99728 -1.57934 -3
    endloop
  endfacet
  facet normal 0 0 -1
    outer loop
      vertex -5.66312 -4.1145 -3
      vertex -1.99728 -1.57934 -3
      vertex -5.10278 -4.79183 -3
    endloop
  endfacet
  facet normal -0 0 -1
    outer loop
      vertex -1.99728 -1.57934 -3
      vertex -5.66312 -4.1145 -3
      vertex -2.06354 -1.49925 -3
    endloop
  endfacet
  facet normal -0 0 -1
    outer loop
      vertex -2.06354 -1.49925 -3
      vertex -5.66312 -4.1145 -3
      vertex -2.11924 -1.41149 -3
    endloop
  endfacet
  facet normal 0 0 -1
    outer loop
      vertex -6.13415 -3.37228 -3
      vertex -2.11924 -1.41149 -3
      vertex -5.66312 -4.1145 -3
    endloop
  endfacet
  facet normal -0 0 -1
    outer loop
      vertex -2.11924 -1.41149 -3
      vertex -6.13415 -3.37228 -3
      vertex -2.23517 -1.2288 -3
    endloop
  endfacet
  facet normal -0 0 -1
    outer loop
      vertex -2.23517 -1.2288 -3
      vertex -6.13415 -3.37228 -3
      vertex -2.27943 -1.13475 -3
    endloop
  endfacet
  facet normal 0 0 -1
    outer loop
      vertex -6.50844 -2.57687 -3
      vertex -2.27943 -1.13475 -3
      vertex -6.13415 -3.37228 -3
    endloop
  endfacet
  facet normal -0 0 -1
    outer loop
      vertex -2.27943 -1.13475 -3
      vertex -6.50844 -2.57687 -3
      vertex -2.37156 -0.938965 -3
    endloop
  endfacet
  facet normal 0 0 -1
    outer loop
      vertex 2.27943 1.13475 -3
      vertex 6.50844 2.57687 -3
      vertex 2.37156 0.938965 -3
    endloop
  endfacet
  facet normal -0 0 -1
    outer loop
      vertex 6.50844 2.57687 -3
      vertex 2.27943 1.13475 -3
      vertex 6.13415 3.37228 -3
    endloop
  endfacet
  facet normal 0 0 -1
    outer loop
      vertex 2.23517 1.2288 -3
      vertex 6.13415 3.37228 -3
      vertex 2.27943 1.13475 -3
    endloop
  endfacet
  facet normal 0 0 -1
    outer loop
      vertex 2.11924 1.41149 -3
      vertex 6.13415 3.37228 -3
      vertex 2.23517 1.2288 -3
    endloop
  endfacet
  facet normal -0 0 -1
    outer loop
      vertex 6.13415 3.37228 -3
      vertex 2.11924 1.41149 -3
      vertex 5.66312 4.1145 -3
    endloop
  endfacet
  facet normal 0 0 -1
    outer loop
      vertex 2.06354 1.49925 -3
      vertex 5.66312 4.1145 -3
      vertex 2.11924 1.41149 -3
    endloop
  endfacet
  facet normal 0 0 -1
    outer loop
      vertex 1.99728 1.57934 -3
      vertex 5.66312 4.1145 -3
      vertex 2.06354 1.49925 -3
    endloop
  endfacet
  facet normal -0 0 -1
    outer loop
      vertex 5.66312 4.1145 -3
      vertex 1.99728 1.57934 -3
      vertex 5.10278 4.79183 -3
    endloop
  endfacet
  facet normal 0 0 -1
    outer loop
      vertex 1.85936 1.74606 -3
      vertex 5.10278 4.79183 -3
      vertex 1.99728 1.57934 -3
    endloop
  endfacet
  facet normal 0 0 -1
    outer loop
      vertex 1.70163 1.89417 -3
      vertex 5.10278 4.79183 -3
      vertex 1.85936 1.74606 -3
    endloop
  endfacet
  facet normal -0 0 -1
    outer loop
      vertex 5.10278 4.79183 -3
      vertex 1.70163 1.89417 -3
      vertex 4.46197 5.39359 -3
    endloop
  endfacet
  facet normal 0 0 -1
    outer loop
      vertex 1.62586 1.96533 -3
      vertex 4.46197 5.39359 -3
      vertex 1.70163 1.89417 -3
    endloop
  endfacet
  facet normal 0 0 -1
    outer loop
      vertex 1.54177 2.02643 -3
      vertex 4.46197 5.39359 -3
      vertex 1.62586 1.96533 -3
    endloop
  endfacet
  facet normal -0 0 -1
    outer loop
      vertex 4.46197 5.39359 -3
      vertex 1.54177 2.02643 -3
      vertex 3.75079 5.91029 -3
    endloop
  endfacet
  facet normal 0 0 -1
    outer loop
      vertex 1.36672 2.15361 -3
      vertex 3.75079 5.91029 -3
      vertex 1.54177 2.02643 -3
    endloop
  endfacet
  facet normal 0 0 -1
    outer loop
      vertex 1.17711 2.25784 -3
      vertex 3.75079 5.91029 -3
      vertex 1.36672 2.15361 -3
    endloop
  endfacet
  facet normal -0 0 -1
    outer loop
      vertex 3.75079 5.91029 -3
      vertex 1.17711 2.25784 -3
      vertex 2.98045 6.33379 -3
    endloop
  endfacet
  facet normal 0 0 -1
    outer loop
      vertex 1.08602 2.30792 -3
      vertex 2.98045 6.33379 -3
      vertex 1.17711 2.25784 -3
    endloop
  endfacet
  facet normal 0 0 -1
    outer loop
      vertex 0.884847 2.38757 -3
      vertex 2.98045 6.33379 -3
      vertex 1.08602 2.30792 -3
    endloop
  endfacet
  facet normal -0 0 -1
    outer loop
      vertex 2.98045 6.33379 -3
      vertex 0.884847 2.38757 -3
      vertex 2.16312 6.6574 -3
    endloop
  endfacet
  facet normal 0 0 -1
    outer loop
      vertex 0.788202 2.42584 -3
      vertex 2.16312 6.6574 -3
      vertex 0.884847 2.38757 -3
    endloop
  endfacet
  facet normal 0 0 -1
    outer loop
      vertex 0.578627 2.47965 -3
      vertex 2.16312 6.6574 -3
      vertex 0.788202 2.42584 -3
    endloop
  endfacet
  facet normal -0 0 -1
    outer loop
      vertex 2.16312 6.6574 -3
      vertex 0.578627 2.47965 -3
      vertex 1.31167 6.87601 -3
    endloop
  endfacet
  facet normal 0 0 -1
    outer loop
      vertex 0.477948 2.5055 -3
      vertex 1.31167 6.87601 -3
      vertex 0.578627 2.47965 -3
    endloop
  endfacet
  facet normal 0 0 -1
    outer loop
      vertex 0.263282 2.53261 -3
      vertex 1.31167 6.87601 -3
      vertex 0.477948 2.5055 -3
    endloop
  endfacet
  facet normal -0 0 -1
    outer loop
      vertex 1.31167 6.87601 -3
      vertex 0.263282 2.53261 -3
      vertex 0.439533 6.98619 -3
    endloop
  endfacet
  facet normal 0 0 -1
    outer loop
      vertex 0.160158 2.54564 -3
      vertex 0.439533 6.98619 -3
      vertex 0.263282 2.53261 -3
    endloop
  endfacet
  facet normal 0 0 -1
    outer loop
      vertex -0.160158 2.54564 -3
      vertex 0.439533 6.98619 -3
      vertex 0.160158 2.54564 -3
    endloop
  endfacet
  facet normal 0 0 -1
    outer loop
      vertex -0.439533 6.98619 -3
      vertex -0.160158 2.54564 -3
      vertex -0.263282 2.53261 -3
    endloop
  endfacet
  facet normal 0 0 -1
    outer loop
      vertex -0.160158 2.54564 -3
      vertex -0.439533 6.98619 -3
      vertex 0.439533 6.98619 -3
    endloop
  endfacet
  facet normal 0 0 -1
    outer loop
      vertex -1.31167 6.87601 -3
      vertex -0.263282 2.53261 -3
      vertex -0.477948 2.5055 -3
    endloop
  endfacet
  facet normal 0 0 -1
    outer loop
      vertex -1.31167 6.87601 -3
      vertex -0.477948 2.5055 -3
      vertex -0.578627 2.47965 -3
    endloop
  endfacet
  facet normal 0 0 -1
    outer loop
      vertex -2.16312 6.6574 -3
      vertex -0.578627 2.47965 -3
      vertex -0.788202 2.42584 -3
    endloop
  endfacet
  facet normal 0 0 -1
    outer loop
      vertex -2.16312 6.6574 -3
      vertex -0.788202 2.42584 -3
      vertex -0.884847 2.38757 -3
    endloop
  endfacet
  facet normal 0 0 -1
    outer loop
      vertex -2.98045 6.33379 -3
      vertex -0.884847 2.38757 -3
      vertex -1.08602 2.30792 -3
    endloop
  endfacet
  facet normal 0 0 -1
    outer loop
      vertex -2.98045 6.33379 -3
      vertex -1.08602 2.30792 -3
      vertex -1.17711 2.25784 -3
    endloop
  endfacet
  facet normal 0 0 -1
    outer loop
      vertex -0.263282 2.53261 -3
      vertex -1.31167 6.87601 -3
      vertex -0.439533 6.98619 -3
    endloop
  endfacet
  facet normal 0 0 -1
    outer loop
      vertex -3.75079 5.91029 -3
      vertex -1.17711 2.25784 -3
      vertex -1.36672 2.15361 -3
    endloop
  endfacet
  facet normal 0 0 -1
    outer loop
      vertex -3.75079 5.91029 -3
      vertex -1.36672 2.15361 -3
      vertex -1.54177 2.02643 -3
    endloop
  endfacet
  facet normal 0 0 -1
    outer loop
      vertex -4.46197 5.39359 -3
      vertex -1.54177 2.02643 -3
      vertex -1.62586 1.96533 -3
    endloop
  endfacet
  facet normal 0 0 -1
    outer loop
      vertex -4.46197 5.39359 -3
      vertex -1.62586 1.96533 -3
      vertex -1.70163 1.89417 -3
    endloop
  endfacet
  facet normal 0 0 -1
    outer loop
      vertex -5.10278 4.79183 -3
      vertex -1.70163 1.89417 -3
      vertex -1.85936 1.74606 -3
    endloop
  endfacet
  facet normal 0 0 -1
    outer loop
      vertex -5.10278 4.79183 -3
      vertex -1.85936 1.74606 -3
      vertex -1.99728 1.57934 -3
    endloop
  endfacet
  facet normal 0 0 -1
    outer loop
      vertex -5.66312 4.1145 -3
      vertex -1.99728 1.57934 -3
      vertex -2.06354 1.49925 -3
    endloop
  endfacet
  facet normal 0 0 -1
    outer loop
      vertex -5.66312 4.1145 -3
      vertex -2.06354 1.49925 -3
      vertex -2.11924 1.41149 -3
    endloop
  endfacet
  facet normal 0 0 -1
    outer loop
      vertex -0.578627 2.47965 -3
      vertex -2.16312 6.6574 -3
      vertex -1.31167 6.87601 -3
    endloop
  endfacet
  facet normal 0 0 -1
    outer loop
      vertex -6.13415 3.37228 -3
      vertex -2.11924 1.41149 -3
      vertex -2.23517 1.2288 -3
    endloop
  endfacet
  facet normal 0 0 -1
    outer loop
      vertex -6.13415 3.37228 -3
      vertex -2.23517 1.2288 -3
      vertex -2.27943 1.13475 -3
    endloop
  endfacet
  facet normal 0 0 -1
    outer loop
      vertex -6.50844 2.57687 -3
      vertex -2.27943 1.13475 -3
      vertex -2.37156 0.938965 -3
    endloop
  endfacet
  facet normal 0 0 -1
    outer loop
      vertex -6.50844 2.57687 -3
      vertex -2.37156 0.938965 -3
      vertex -2.43842 0.733183 -3
    endloop
  endfacet
  facet normal 0 0 -1
    outer loop
      vertex -6.78008 1.74083 -3
      vertex -2.43842 0.733183 -3
      vertex -2.47054 0.634326 -3
    endloop
  endfacet
  facet normal 0 0 -1
    outer loop
      vertex -6.78008 1.74083 -3
      vertex -2.47054 0.634326 -3
      vertex -2.49002 0.532224 -3
    endloop
  endfacet
  facet normal 0 0 -1
    outer loop
      vertex -6.9448 0.877332 -3
      vertex -2.49002 0.532224 -3
      vertex -2.53056 0.319684 -3
    endloop
  endfacet
  facet normal 0 0 -1
    outer loop
      vertex -6.9448 0.877332 -3
      vertex -2.53056 0.319684 -3
      vertex -2.54415 0.103739 -3
    endloop
  endfacet
  facet normal 0 0 -1
    outer loop
      vertex -7 0 -3
      vertex -2.54415 0.103739 -3
      vertex -2.55068 0 -3
    endloop
  endfacet
  facet normal -0 0 -1
    outer loop
      vertex -2.37156 -0.938965 -3
      vertex -6.50844 -2.57687 -3
      vertex -2.43842 -0.733183 -3
    endloop
  endfacet
  facet normal 0 0 -1
    outer loop
      vertex -0.884847 2.38757 -3
      vertex -2.98045 6.33379 -3
      vertex -2.16312 6.6574 -3
    endloop
  endfacet
  facet normal 0 0 -1
    outer loop
      vertex -6.78008 -1.74083 -3
      vertex -2.43842 -0.733183 -3
      vertex -6.50844 -2.57687 -3
    endloop
  endfacet
  facet normal 0 0 -1
    outer loop
      vertex -1.17711 2.25784 -3
      vertex -3.75079 5.91029 -3
      vertex -2.98045 6.33379 -3
    endloop
  endfacet
  facet normal -0 0 -1
    outer loop
      vertex -2.43842 -0.733183 -3
      vertex -6.78008 -1.74083 -3
      vertex -2.47054 -0.634326 -3
    endloop
  endfacet
  facet normal 0 0 -1
    outer loop
      vertex -1.54177 2.02643 -3
      vertex -4.46197 5.39359 -3
      vertex -3.75079 5.91029 -3
    endloop
  endfacet
  facet normal -0 0 -1
    outer loop
      vertex -2.47054 -0.634326 -3
      vertex -6.78008 -1.74083 -3
      vertex -2.49002 -0.532224 -3
    endloop
  endfacet
  facet normal 0 0 -1
    outer loop
      vertex -1.70163 1.89417 -3
      vertex -5.10278 4.79183 -3
      vertex -4.46197 5.39359 -3
    endloop
  endfacet
  facet normal 0 0 -1
    outer loop
      vertex -6.9448 -0.877332 -3
      vertex -2.49002 -0.532224 -3
      vertex -6.78008 -1.74083 -3
    endloop
  endfacet
  facet normal 0 0 -1
    outer loop
      vertex -1.99728 1.57934 -3
      vertex -5.66312 4.1145 -3
      vertex -5.10278 4.79183 -3
    endloop
  endfacet
  facet normal -0 0 -1
    outer loop
      vertex -2.49002 -0.532224 -3
      vertex -6.9448 -0.877332 -3
      vertex -2.53056 -0.319684 -3
    endloop
  endfacet
  facet normal 0 0 -1
    outer loop
      vertex -2.11924 1.41149 -3
      vertex -6.13415 3.37228 -3
      vertex -5.66312 4.1145 -3
    endloop
  endfacet
  facet normal -0 0 -1
    outer loop
      vertex -2.53056 -0.319684 -3
      vertex -6.9448 -0.877332 -3
      vertex -2.54415 -0.103739 -3
    endloop
  endfacet
  facet normal 0 0 -1
    outer loop
      vertex -2.27943 1.13475 -3
      vertex -6.50844 2.57687 -3
      vertex -6.13415 3.37228 -3
    endloop
  endfacet
  facet normal 0 0 -1
    outer loop
      vertex -7 0 -3
      vertex -2.54415 -0.103739 -3
      vertex -6.9448 -0.877332 -3
    endloop
  endfacet
  facet normal 0 0 -1
    outer loop
      vertex -2.43842 0.733183 -3
      vertex -6.78008 1.74083 -3
      vertex -6.50844 2.57687 -3
    endloop
  endfacet
  facet normal 0 0 -1
    outer loop
      vertex -2.54415 -0.103739 -3
      vertex -7 0 -3
      vertex -2.55068 0 -3
    endloop
  endfacet
  facet normal 0 0 -1
    outer loop
      vertex -2.49002 0.532224 -3
      vertex -6.9448 0.877332 -3
      vertex -6.78008 1.74083 -3
    endloop
  endfacet
  facet normal -0 0 -1
    outer loop
      vertex -2.54415 0.103739 -3
      vertex -7 0 -3
      vertex -6.9448 0.877332 -3
    endloop
  endfacet
  facet normal -0.982287 -0.18738 0
    outer loop
      vertex -6.78008 -1.74083 -3
      vertex -6.9448 -0.877332 0
      vertex -6.9448 -0.877332 -3
    endloop
  endfacet
  facet normal -0.982287 -0.18738 0
    outer loop
      vertex -6.9448 -0.877332 0
      vertex -6.78008 -1.74083 -3
      vertex -6.78008 -1.74083 0
    endloop
  endfacet
  facet normal -0.481755 -0.876306 0
    outer loop
      vertex -3.75079 -5.91029 -3
      vertex -2.98045 -6.33379 0
      vertex -3.75079 -5.91029 0
    endloop
  endfacet
  facet normal -0.481755 -0.876306 -0
    outer loop
      vertex -2.98045 -6.33379 0
      vertex -3.75079 -5.91029 -3
      vertex -2.98045 -6.33379 -3
    endloop
  endfacet
  facet normal -0.587783 -0.809018 0
    outer loop
      vertex -4.46197 -5.39359 -3
      vertex -3.75079 -5.91029 0
      vertex -4.46197 -5.39359 0
    endloop
  endfacet
  facet normal -0.587783 -0.809018 -0
    outer loop
      vertex -3.75079 -5.91029 0
      vertex -4.46197 -5.39359 -3
      vertex -3.75079 -5.91029 -3
    endloop
  endfacet
endsolid OpenSCAD_Model
