solid OpenSCAD_Model
  facet normal -0.8443279255020159 -0.5358267949789957 0
    outer loop
      vertex -24.270509831248425 -17.633557568774194 -4.5
      vertex -26.289200401315902 -14.452610223051462 0
      vertex -26.289200401315902 -14.452610223051462 -4.5
    endloop
  endfacet
  facet normal -0.7705132427757891 -0.6374239897486897 0
    outer loop
      vertex -24.270509831248425 -17.633557568774194 -4.5
      vertex -21.86905882264235 -20.536413177860656 -4.5
      vertex -24.270509831248425 -17.633557568774194 0
    endloop
  endfacet
  facet normal -0.5877852522924734 -0.8090169943749473 0
    outer loop
      vertex -19.122719692460688 -23.11539728327368 -4.5
      vertex -16.074803849369903 -25.32983776506045 -4.5
      vertex -16.074803849369903 -25.32983776506045 0
    endloop
  endfacet
  facet normal -0.6845471059286885 -0.7289686274214117 0
    outer loop
      vertex -19.122719692460688 -23.11539728327368 -4.5
      vertex -19.122719692460688 -23.11539728327368 0
      vertex -21.86905882264235 -20.536413177860656 -4.5
    endloop
  endfacet
  facet normal 0 0 -1
    outer loop
      vertex -27.893294576647545 -11.043736580540337 -4.5
      vertex -29.057494833858932 -7.460696614945645 -4.5
      vertex -27.893294576647545 11.043736580540337 -4.5
    endloop
  endfacet
  facet normal 0 0 -1
    outer loop
      vertex -29.057494833858932 -7.460696614945645 -4.5
      vertex -29.763441039434337 -3.759997006929122 -4.5
      vertex -29.057494833858932 7.460696614945645 -4.5
    endloop
  endfacet
  facet normal 0 0 -1
    outer loop
      vertex -26.289200401315902 -14.452610223051462 -4.5
      vertex -27.893294576647545 -11.043736580540337 -4.5
      vertex -26.289200401315902 14.452610223051462 -4.5
    endloop
  endfacet
  facet normal 0 0 -1
    outer loop
      vertex -24.270509831248425 -17.633557568774194 -4.5
      vertex -26.289200401315902 -14.452610223051462 -4.5
      vertex -24.270509831248425 17.633557568774194 -4.5
    endloop
  endfacet
  facet normal 0 0 -1
    outer loop
      vertex -24.270509831248425 -17.633557568774194 -4.5
      vertex -21.86905882264235 20.536413177860656 -4.5
      vertex -21.86905882264235 -20.536413177860656 -4.5
    endloop
  endfacet
  facet normal 0 0 -1
    outer loop
      vertex -19.122719692460688 -23.11539728327368 -4.5
      vertex -16.074803849369903 25.32983776506045 -4.5
      vertex -16.074803849369903 -25.32983776506045 -4.5
    endloop
  endfacet
  facet normal 0 0 -1
    outer loop
      vertex -19.122719692460688 -23.11539728327368 -4.5
      vertex -21.86905882264235 -20.536413177860656 -4.5
      vertex -19.122719692460688 23.11539728327368 -4.5
    endloop
  endfacet
  facet normal -0.9048270524660189 -0.42577929156507377 0
    outer loop
      vertex -26.289200401315902 -14.452610223051462 -4.5
      vertex -27.893294576647545 -11.043736580540337 0
      vertex -27.893294576647545 -11.043736580540337 -4.5
    endloop
  endfacet
  facet normal -0.9510565162951536 -0.3090169943749467 0
    outer loop
      vertex -27.893294576647545 -11.043736580540337 -4.5
      vertex -29.057494833858932 -7.460696614945645 0
      vertex -29.057494833858932 -7.460696614945645 -4.5
    endloop
  endfacet
  facet normal -0.9822872507286884 -0.1873813145857251 0
    outer loop
      vertex -29.057494833858932 -7.460696614945645 -4.5
      vertex -29.763441039434337 -3.759997006929122 0
      vertex -29.763441039434337 -3.759997006929122 -4.5
    endloop
  endfacet
  facet normal -0.9980267284282716 -0.06279051952931293 0
    outer loop
      vertex -29.763441039434337 -3.759997006929122 -4.5
      vertex -30 0 0
      vertex -30 0 -4.5
    endloop
  endfacet
  facet normal 0 0 -1
    outer loop
      vertex -9.270509831248422 -28.531695488854606 -4.5
      vertex -2.957125000655651 -5.1218907460570335 -4.5
      vertex -5.621439437571745 -29.468617521860658 -4.5
    endloop
  endfacet
  facet normal 0 0 -1
    outer loop
      vertex -5.621439437571745 -29.468617521860658 -4.5
      vertex 2.957125000655651 -5.1218907460570335 -4.5
      vertex -1.8837155858794128 -29.940801852848146 -4.5
    endloop
  endfacet
  facet normal -0.4817536741017145 -0.876306680043864 0
    outer loop
      vertex -16.074803849369903 -25.32983776506045 -4.5
      vertex -12.773378746952172 -27.144811573980586 -4.5
      vertex -12.773378746952172 -27.144811573980586 0
    endloop
  endfacet
  facet normal -0.36812455268467803 -0.9297764858882512 0
    outer loop
      vertex -12.773378746952172 -27.144811573980586 -4.5
      vertex -9.270509831248422 -28.531695488854606 -4.5
      vertex -9.270509831248422 -28.531695488854606 0
    endloop
  endfacet
  facet normal -0.2486898871648549 -0.968583161128631 0
    outer loop
      vertex -9.270509831248422 -28.531695488854606 -4.5
      vertex -5.621439437571745 -29.468617521860658 -4.5
      vertex -5.621439437571745 -29.468617521860658 0
    endloop
  endfacet
  facet normal -0.12533323356430498 -0.9921147013144778 0
    outer loop
      vertex -5.621439437571745 -29.468617521860658 -4.5
      vertex -1.8837155858794128 -29.940801852848146 -4.5
      vertex -1.8837155858794128 -29.940801852848146 0
    endloop
  endfacet
  facet normal 0 0 -1
    outer loop
      vertex -16.074803849369903 -25.32983776506045 -4.5
      vertex -12.773378746952181 27.144811573980583 -4.5
      vertex -12.773378746952172 -27.144811573980586 -4.5
    endloop
  endfacet
  facet normal 0 0 -1
    outer loop
      vertex -12.773378746952172 -27.144811573980586 -4.5
      vertex -9.270509831248422 28.531695488854606 -4.5
      vertex -9.270509831248422 -28.531695488854606 -4.5
    endloop
  endfacet
  facet normal 0 0 -1
    outer loop
      vertex -9.270509831248422 -28.531695488854606 -4.5
      vertex -5.914250001311302 0 -4.5
      vertex -2.957125000655651 -5.1218907460570335 -4.5
    endloop
  endfacet
  facet normal 0 0 -1
    outer loop
      vertex -5.621439437571745 -29.468617521860658 -4.5
      vertex -2.957125000655651 -5.1218907460570335 -4.5
      vertex 2.957125000655651 -5.1218907460570335 -4.5
    endloop
  endfacet
  facet normal -0.7705132427757891 -0.6374239897486897 0
    outer loop
      vertex -21.86905882264235 -20.536413177860656 -4.5
      vertex -21.86905882264235 -20.536413177860656 0
      vertex -24.270509831248425 -17.633557568774194 0
    endloop
  endfacet
  facet normal -0.8443279255020159 -0.5358267949789957 0
    outer loop
      vertex -24.270509831248425 -17.633557568774194 -4.5
      vertex -24.270509831248425 -17.633557568774194 0
      vertex -26.289200401315902 -14.452610223051462 0
    endloop
  endfacet
  facet normal -0.5877852522924734 -0.8090169943749473 0
    outer loop
      vertex -19.122719692460688 -23.11539728327368 -4.5
      vertex -16.074803849369903 -25.32983776506045 0
      vertex -19.122719692460688 -23.11539728327368 0
    endloop
  endfacet
  facet normal -0.6845471059286885 -0.7289686274214117 0
    outer loop
      vertex -21.86905882264235 -20.536413177860656 -4.5
      vertex -19.122719692460688 -23.11539728327368 0
      vertex -21.86905882264235 -20.536413177860656 0
    endloop
  endfacet
  facet normal -0.9048270524660189 -0.42577929156507377 0
    outer loop
      vertex -26.289200401315902 -14.452610223051462 -4.5
      vertex -26.289200401315902 -14.452610223051462 0
      vertex -27.893294576647545 -11.043736580540337 0
    endloop
  endfacet
  facet normal -0.9510565162951536 -0.3090169943749467 0
    outer loop
      vertex -27.893294576647545 -11.043736580540337 -4.5
      vertex -27.893294576647545 -11.043736580540337 0
      vertex -29.057494833858932 -7.460696614945645 0
    endloop
  endfacet
  facet normal -0.9822872507286884 -0.1873813145857251 0
    outer loop
      vertex -29.057494833858932 -7.460696614945645 -4.5
      vertex -29.057494833858932 -7.460696614945645 0
      vertex -29.763441039434337 -3.759997006929122 0
    endloop
  endfacet
  facet normal -0.9980267284282716 -0.06279051952931293 0
    outer loop
      vertex -29.763441039434337 -3.759997006929122 -4.5
      vertex -29.763441039434337 -3.759997006929122 0
      vertex -30 0 0
    endloop
  endfacet
  facet normal 0 0 1
    outer loop
      vertex -26.289200401315902 -14.452610223051462 0
      vertex -27.893294576647545 11.043736580540337 0
      vertex -27.893294576647545 -11.043736580540337 0
    endloop
  endfacet
  facet normal 0 0 1
    outer loop
      vertex -29.057494833858932 -7.460696614945645 0
      vertex -29.763441039434337 3.759997006929122 0
      vertex -29.763441039434337 -3.759997006929122 0
    endloop
  endfacet
  facet normal 0 0 1
    outer loop
      vertex -27.893294576647545 -11.043736580540337 0
      vertex -29.057494833858932 7.460696614945645 0
      vertex -29.057494833858932 -7.460696614945645 0
    endloop
  endfacet
  facet normal 0 0 1
    outer loop
      vertex -24.270509831248425 -17.633557568774194 0
      vertex -26.289200401315902 14.452610223051462 0
      vertex -26.289200401315902 -14.452610223051462 0
    endloop
  endfacet
  facet normal 0 0 1
    outer loop
      vertex -24.270509831248425 -17.633557568774194 0
      vertex -21.86905882264235 -20.536413177860656 0
      vertex -24.270509831248425 17.633557568774194 0
    endloop
  endfacet
  facet normal 0 0 1
    outer loop
      vertex -19.122719692460688 -23.11539728327368 0
      vertex -21.86905882264235 20.536413177860656 0
      vertex -21.86905882264235 -20.536413177860656 0
    endloop
  endfacet
  facet normal 0 0 1
    outer loop
      vertex -19.122719692460688 -23.11539728327368 0
      vertex -16.074803849369903 -25.32983776506045 0
      vertex -19.122719692460688 23.11539728327368 0
    endloop
  endfacet
  facet normal -0.36812455268467803 -0.9297764858882512 0
    outer loop
      vertex -12.773378746952172 -27.144811573980586 -4.5
      vertex -9.270509831248422 -28.531695488854606 0
      vertex -12.773378746952172 -27.144811573980586 0
    endloop
  endfacet
  facet normal -0.4817536741017145 -0.876306680043864 0
    outer loop
      vertex -16.074803849369903 -25.32983776506045 -4.5
      vertex -12.773378746952172 -27.144811573980586 0
      vertex -16.074803849369903 -25.32983776506045 0
    endloop
  endfacet
  facet normal -0.2486898871648549 -0.968583161128631 0
    outer loop
      vertex -9.270509831248422 -28.531695488854606 -4.5
      vertex -5.621439437571745 -29.468617521860658 0
      vertex -9.270509831248422 -28.531695488854606 0
    endloop
  endfacet
  facet normal -0.12533323356430498 -0.9921147013144778 0
    outer loop
      vertex -5.621439437571745 -29.468617521860658 -4.5
      vertex -1.8837155858794128 -29.940801852848146 0
      vertex -5.621439437571745 -29.468617521860658 0
    endloop
  endfacet
  facet normal 0 -1 0
    outer loop
      vertex -1.8837155858794128 -29.940801852848146 -4.5
      vertex 1.8837155858794128 -29.940801852848146 0
      vertex -1.8837155858794128 -29.940801852848146 0
    endloop
  endfacet
  facet normal 0 0 1
    outer loop
      vertex -5.621439437571745 -29.468617521860658 0
      vertex -1.8837155858794128 -29.940801852848146 0
      vertex -5.914250001311302 0 0
    endloop
  endfacet
  facet normal 0 0 1
    outer loop
      vertex -1.8837155858794128 -29.940801852848146 0
      vertex 1.8837155858794128 -29.940801852848146 0
      vertex -2.957125000655651 -5.1218907460570335 0
    endloop
  endfacet
  facet normal 0 0 1
    outer loop
      vertex -16.074803849369903 -25.32983776506045 0
      vertex -12.773378746952172 -27.144811573980586 0
      vertex -16.074803849369903 25.32983776506045 0
    endloop
  endfacet
  facet normal 0 0 1
    outer loop
      vertex -12.773378746952172 -27.144811573980586 0
      vertex -9.270509831248422 -28.531695488854606 0
      vertex -12.773378746952181 27.144811573980583 0
    endloop
  endfacet
  facet normal 0 0 1
    outer loop
      vertex -9.270509831248422 -28.531695488854606 0
      vertex -5.621439437571745 -29.468617521860658 0
      vertex -9.270509831248422 28.531695488854606 0
    endloop
  endfacet
  facet normal 0 0 1
    outer loop
      vertex -1.8837155858794128 -29.940801852848146 0
      vertex -2.957125000655651 -5.1218907460570335 0
      vertex -5.914250001311302 0 0
    endloop
  endfacet
  facet normal 0 0 1
    outer loop
      vertex -5.621439437571745 -29.468617521860658 0
      vertex -5.914250001311302 0 0
      vertex -9.270509831248422 28.531695488854606 0
    endloop
  endfacet
  facet normal 0 0 -1
    outer loop
      vertex -29.763441039434337 -3.759997006929122 -4.5
      vertex -30 0 -4.5
      vertex -29.763441039434337 3.759997006929122 -4.5
    endloop
  endfacet
  facet normal 0 0 -1
    outer loop
      vertex -29.763441039434337 -3.759997006929122 -4.5
      vertex -29.763441039434337 3.759997006929122 -4.5
      vertex -29.057494833858932 7.460696614945645 -4.5
    endloop
  endfacet
  facet normal 0 0 -1
    outer loop
      vertex -29.057494833858932 -7.460696614945645 -4.5
      vertex -29.057494833858932 7.460696614945645 -4.5
      vertex -27.893294576647545 11.043736580540337 -4.5
    endloop
  endfacet
  facet normal 0 0 -1
    outer loop
      vertex -27.893294576647545 -11.043736580540337 -4.5
      vertex -27.893294576647545 11.043736580540337 -4.5
      vertex -26.289200401315902 14.452610223051462 -4.5
    endloop
  endfacet
  facet normal 0 0 -1
    outer loop
      vertex -26.289200401315902 -14.452610223051462 -4.5
      vertex -26.289200401315902 14.452610223051462 -4.5
      vertex -24.270509831248425 17.633557568774194 -4.5
    endloop
  endfacet
  facet normal 0 0 -1
    outer loop
      vertex -24.270509831248425 -17.633557568774194 -4.5
      vertex -24.270509831248425 17.633557568774194 -4.5
      vertex -21.86905882264235 20.536413177860656 -4.5
    endloop
  endfacet
  facet normal 0 0 -1
    outer loop
      vertex -21.86905882264235 -20.536413177860656 -4.5
      vertex -21.86905882264235 20.536413177860656 -4.5
      vertex -19.122719692460688 23.11539728327368 -4.5
    endloop
  endfacet
  facet normal 0 0 -1
    outer loop
      vertex -19.122719692460688 -23.11539728327368 -4.5
      vertex -19.122719692460688 23.11539728327368 -4.5
      vertex -16.074803849369903 25.32983776506045 -4.5
    endloop
  endfacet
  facet normal -0.9980267284282716 0.06279051952931293 0
    outer loop
      vertex -30 0 -4.5
      vertex -29.763441039434337 3.759997006929122 0
      vertex -29.763441039434337 3.759997006929122 -4.5
    endloop
  endfacet
  facet normal -0.9822872507286884 0.1873813145857251 0
    outer loop
      vertex -29.763441039434337 3.759997006929122 -4.5
      vertex -29.057494833858932 7.460696614945645 0
      vertex -29.057494833858932 7.460696614945645 -4.5
    endloop
  endfacet
  facet normal -0.9510565162951536 0.3090169943749467 0
    outer loop
      vertex -29.057494833858932 7.460696614945645 -4.5
      vertex -27.893294576647545 11.043736580540337 0
      vertex -27.893294576647545 11.043736580540337 -4.5
    endloop
  endfacet
  facet normal -0.9048270524660189 0.42577929156507377 0
    outer loop
      vertex -27.893294576647545 11.043736580540337 -4.5
      vertex -26.289200401315902 14.452610223051462 0
      vertex -26.289200401315902 14.452610223051462 -4.5
    endloop
  endfacet
  facet normal -0.8443279255020159 0.5358267949789957 0
    outer loop
      vertex -26.289200401315902 14.452610223051462 -4.5
      vertex -24.270509831248425 17.633557568774194 0
      vertex -24.270509831248425 17.633557568774194 -4.5
    endloop
  endfacet
  facet normal -0.7705132427757891 0.6374239897486897 0
    outer loop
      vertex -24.270509831248425 17.633557568774194 -4.5
      vertex -21.86905882264235 20.536413177860656 0
      vertex -21.86905882264235 20.536413177860656 -4.5
    endloop
  endfacet
  facet normal -0.6845471059286885 0.7289686274214117 0
    outer loop
      vertex -21.86905882264235 20.536413177860656 -4.5
      vertex -21.86905882264235 20.536413177860656 0
      vertex -19.122719692460688 23.11539728327368 -4.5
    endloop
  endfacet
  facet normal -0.5877852522924734 0.8090169943749473 0
    outer loop
      vertex -19.122719692460688 23.11539728327368 -4.5
      vertex -19.122719692460688 23.11539728327368 0
      vertex -16.074803849369903 25.32983776506045 -4.5
    endloop
  endfacet
  facet normal 0 0 -1
    outer loop
      vertex -16.074803849369903 -25.32983776506045 -4.5
      vertex -16.074803849369903 25.32983776506045 -4.5
      vertex -12.773378746952181 27.144811573980583 -4.5
    endloop
  endfacet
  facet normal 0 0 -1
    outer loop
      vertex -12.773378746952172 -27.144811573980586 -4.5
      vertex -12.773378746952181 27.144811573980583 -4.5
      vertex -9.270509831248422 28.531695488854606 -4.5
    endloop
  endfacet
  facet normal 0 0 -1
    outer loop
      vertex -9.270509831248422 -28.531695488854606 -4.5
      vertex -9.270509831248422 28.531695488854606 -4.5
      vertex -5.621439437571738 29.46861752186066 -4.5
    endloop
  endfacet
  facet normal 0 0 -1
    outer loop
      vertex -9.270509831248422 -28.531695488854606 -4.5
      vertex -5.621439437571738 29.46861752186066 -4.5
      vertex -5.914250001311302 0 -4.5
    endloop
  endfacet
  facet normal 0 0 -1
    outer loop
      vertex -1.8837155858793984 29.940801852848146 -4.5
      vertex -2.957125000655651 5.1218907460570335 -4.5
      vertex -5.914250001311302 0 -4.5
    endloop
  endfacet
  facet normal 0 0 -1
    outer loop
      vertex -5.621439437571738 29.46861752186066 -4.5
      vertex -1.8837155858793984 29.940801852848146 -4.5
      vertex -5.914250001311302 0 -4.5
    endloop
  endfacet
  facet normal 0 0 -1
    outer loop
      vertex -1.8837155858793984 29.940801852848146 -4.5
      vertex 1.8837155858793984 29.940801852848146 -4.5
      vertex -2.957125000655651 5.1218907460570335 -4.5
    endloop
  endfacet
  facet normal -0.48175367410171477 0.8763066800438639 0
    outer loop
      vertex -16.074803849369903 25.32983776506045 -4.5
      vertex -16.074803849369903 25.32983776506045 0
      vertex -12.773378746952181 27.144811573980583 -4.5
    endloop
  endfacet
  facet normal -0.36812455268467814 0.9297764858882515 0
    outer loop
      vertex -12.773378746952181 27.144811573980583 -4.5
      vertex -12.773378746952181 27.144811573980583 0
      vertex -9.270509831248422 28.531695488854606 -4.5
    endloop
  endfacet
  facet normal -0.24868988716485538 0.9685831611286309 0
    outer loop
      vertex -9.270509831248422 28.531695488854606 -4.5
      vertex -9.270509831248422 28.531695488854606 0
      vertex -5.621439437571738 29.46861752186066 -4.5
    endloop
  endfacet
  facet normal -0.1253332335643038 0.9921147013144779 0
    outer loop
      vertex -5.621439437571738 29.46861752186066 -4.5
      vertex -5.621439437571738 29.46861752186066 0
      vertex -1.8837155858793984 29.940801852848146 -4.5
    endloop
  endfacet
  facet normal 0 1 0
    outer loop
      vertex -1.8837155858793984 29.940801852848146 -4.5
      vertex -1.8837155858793984 29.940801852848146 0
      vertex 1.8837155858793984 29.940801852848146 -4.5
    endloop
  endfacet
  facet normal -0.9980267284282716 0.06279051952931293 0
    outer loop
      vertex -30 0 -4.5
      vertex -30 0 0
      vertex -29.763441039434337 3.759997006929122 0
    endloop
  endfacet
  facet normal -0.9822872507286884 0.1873813145857251 0
    outer loop
      vertex -29.763441039434337 3.759997006929122 -4.5
      vertex -29.763441039434337 3.759997006929122 0
      vertex -29.057494833858932 7.460696614945645 0
    endloop
  endfacet
  facet normal -0.9510565162951536 0.3090169943749467 0
    outer loop
      vertex -29.057494833858932 7.460696614945645 -4.5
      vertex -29.057494833858932 7.460696614945645 0
      vertex -27.893294576647545 11.043736580540337 0
    endloop
  endfacet
  facet normal -0.9048270524660189 0.42577929156507377 0
    outer loop
      vertex -27.893294576647545 11.043736580540337 -4.5
      vertex -27.893294576647545 11.043736580540337 0
      vertex -26.289200401315902 14.452610223051462 0
    endloop
  endfacet
  facet normal 0 0 1
    outer loop
      vertex -29.763441039434337 -3.759997006929122 0
      vertex -29.763441039434337 3.759997006929122 0
      vertex -30 0 0
    endloop
  endfacet
  facet normal 0 0 1
    outer loop
      vertex -29.057494833858932 -7.460696614945645 0
      vertex -29.057494833858932 7.460696614945645 0
      vertex -29.763441039434337 3.759997006929122 0
    endloop
  endfacet
  facet normal 0 0 1
    outer loop
      vertex -27.893294576647545 -11.043736580540337 0
      vertex -27.893294576647545 11.043736580540337 0
      vertex -29.057494833858932 7.460696614945645 0
    endloop
  endfacet
  facet normal 0 0 1
    outer loop
      vertex -26.289200401315902 -14.452610223051462 0
      vertex -26.289200401315902 14.452610223051462 0
      vertex -27.893294576647545 11.043736580540337 0
    endloop
  endfacet
  facet normal 0 0 1
    outer loop
      vertex -24.270509831248425 -17.633557568774194 0
      vertex -24.270509831248425 17.633557568774194 0
      vertex -26.289200401315902 14.452610223051462 0
    endloop
  endfacet
  facet normal 0 0 1
    outer loop
      vertex -21.86905882264235 -20.536413177860656 0
      vertex -21.86905882264235 20.536413177860656 0
      vertex -24.270509831248425 17.633557568774194 0
    endloop
  endfacet
  facet normal 0 0 1
    outer loop
      vertex -19.122719692460688 -23.11539728327368 0
      vertex -19.122719692460688 23.11539728327368 0
      vertex -21.86905882264235 20.536413177860656 0
    endloop
  endfacet
  facet normal 0 0 1
    outer loop
      vertex -16.074803849369903 -25.32983776506045 0
      vertex -16.074803849369903 25.32983776506045 0
      vertex -19.122719692460688 23.11539728327368 0
    endloop
  endfacet
  facet normal -0.8443279255020159 0.5358267949789957 0
    outer loop
      vertex -26.289200401315902 14.452610223051462 -4.5
      vertex -26.289200401315902 14.452610223051462 0
      vertex -24.270509831248425 17.633557568774194 0
    endloop
  endfacet
  facet normal -0.7705132427757891 0.6374239897486897 0
    outer loop
      vertex -24.270509831248425 17.633557568774194 -4.5
      vertex -24.270509831248425 17.633557568774194 0
      vertex -21.86905882264235 20.536413177860656 0
    endloop
  endfacet
  facet normal -0.6845471059286885 0.7289686274214117 0
    outer loop
      vertex -19.122719692460688 23.11539728327368 -4.5
      vertex -21.86905882264235 20.536413177860656 0
      vertex -19.122719692460688 23.11539728327368 0
    endloop
  endfacet
  facet normal -0.5877852522924734 0.8090169943749473 0
    outer loop
      vertex -16.074803849369903 25.32983776506045 -4.5
      vertex -19.122719692460688 23.11539728327368 0
      vertex -16.074803849369903 25.32983776506045 0
    endloop
  endfacet
  facet normal 0 0 1
    outer loop
      vertex -12.773378746952172 -27.144811573980586 0
      vertex -12.773378746952181 27.144811573980583 0
      vertex -16.074803849369903 25.32983776506045 0
    endloop
  endfacet
  facet normal 0 0 1
    outer loop
      vertex -9.270509831248422 -28.531695488854606 0
      vertex -9.270509831248422 28.531695488854606 0
      vertex -12.773378746952181 27.144811573980583 0
    endloop
  endfacet
  facet normal 0 0 1
    outer loop
      vertex -9.270509831248422 28.531695488854606 0
      vertex -5.914250001311302 0 0
      vertex -2.957125000655651 5.1218907460570335 0
    endloop
  endfacet
  facet normal 0 0 1
    outer loop
      vertex -1.8837155858793984 29.940801852848146 0
      vertex -2.957125000655651 5.1218907460570335 0
      vertex 2.957125000655651 5.1218907460570335 0
    endloop
  endfacet
  facet normal -0.48175367410171477 0.8763066800438639 0
    outer loop
      vertex -12.773378746952181 27.144811573980583 -4.5
      vertex -16.074803849369903 25.32983776506045 0
      vertex -12.773378746952181 27.144811573980583 0
    endloop
  endfacet
  facet normal -0.36812455268467814 0.9297764858882515 0
    outer loop
      vertex -9.270509831248422 28.531695488854606 -4.5
      vertex -12.773378746952181 27.144811573980583 0
      vertex -9.270509831248422 28.531695488854606 0
    endloop
  endfacet
  facet normal -0.24868988716485538 0.9685831611286309 0
    outer loop
      vertex -5.621439437571738 29.46861752186066 -4.5
      vertex -9.270509831248422 28.531695488854606 0
      vertex -5.621439437571738 29.46861752186066 0
    endloop
  endfacet
  facet normal -0.1253332335643038 0.9921147013144779 0
    outer loop
      vertex -1.8837155858793984 29.940801852848146 -4.5
      vertex -5.621439437571738 29.46861752186066 0
      vertex -1.8837155858793984 29.940801852848146 0
    endloop
  endfacet
  facet normal 0 0 1
    outer loop
      vertex -9.270509831248422 28.531695488854606 0
      vertex -2.957125000655651 5.1218907460570335 0
      vertex -5.621439437571738 29.46861752186066 0
    endloop
  endfacet
  facet normal 0 0 1
    outer loop
      vertex -5.621439437571738 29.46861752186066 0
      vertex -2.957125000655651 5.1218907460570335 0
      vertex -1.8837155858793984 29.940801852848146 0
    endloop
  endfacet
  facet normal 0 0 -1
    outer loop
      vertex -1.8837155858794128 -29.940801852848146 -4.5
      vertex 2.957125000655651 -5.1218907460570335 -4.5
      vertex 1.8837155858794128 -29.940801852848146 -4.5
    endloop
  endfacet
  facet normal 0 0 -1
    outer loop
      vertex 1.8837155858794128 -29.940801852848146 -4.5
      vertex 5.914250001311302 0 -4.5
      vertex 5.621439437571745 -29.468617521860658 -4.5
    endloop
  endfacet
  facet normal 0 -1 0
    outer loop
      vertex -1.8837155858794128 -29.940801852848146 -4.5
      vertex 1.8837155858794128 -29.940801852848146 -4.5
      vertex 1.8837155858794128 -29.940801852848146 0
    endloop
  endfacet
  facet normal 0.12533323356430498 -0.9921147013144778 0
    outer loop
      vertex 1.8837155858794128 -29.940801852848146 -4.5
      vertex 5.621439437571745 -29.468617521860658 -4.5
      vertex 5.621439437571745 -29.468617521860658 0
    endloop
  endfacet
  facet normal 0.2486898871648549 -0.968583161128631 0
    outer loop
      vertex 5.621439437571745 -29.468617521860658 -4.5
      vertex 9.270509831248422 -28.531695488854606 -4.5
      vertex 9.270509831248422 -28.531695488854606 0
    endloop
  endfacet
  facet normal 0.36812455268467803 -0.9297764858882512 0
    outer loop
      vertex 9.270509831248422 -28.531695488854606 -4.5
      vertex 12.773378746952172 -27.144811573980586 -4.5
      vertex 12.773378746952172 -27.144811573980586 0
    endloop
  endfacet
  facet normal 0.4817536741017143 -0.876306680043864 0
    outer loop
      vertex 12.773378746952172 -27.144811573980586 -4.5
      vertex 16.074803849369886 -25.32983776506046 -4.5
      vertex 16.074803849369886 -25.32983776506046 0
    endloop
  endfacet
  facet normal 0 0 -1
    outer loop
      vertex 1.8837155858794128 -29.940801852848146 -4.5
      vertex 2.957125000655651 -5.1218907460570335 -4.5
      vertex 5.914250001311302 0 -4.5
    endloop
  endfacet
  facet normal 0 0 -1
    outer loop
      vertex 5.621439437571745 -29.468617521860658 -4.5
      vertex 5.914250001311302 0 -4.5
      vertex 9.270509831248422 28.531695488854606 -4.5
    endloop
  endfacet
  facet normal 0 0 -1
    outer loop
      vertex 5.621439437571745 -29.468617521860658 -4.5
      vertex 9.270509831248422 28.531695488854606 -4.5
      vertex 9.270509831248422 -28.531695488854606 -4.5
    endloop
  endfacet
  facet normal 0 0 -1
    outer loop
      vertex 9.270509831248422 -28.531695488854606 -4.5
      vertex 12.773378746952181 27.144811573980583 -4.5
      vertex 12.773378746952172 -27.144811573980586 -4.5
    endloop
  endfacet
  facet normal 0 0 -1
    outer loop
      vertex 12.773378746952172 -27.144811573980586 -4.5
      vertex 16.0748038493699 25.329837765060454 -4.5
      vertex 16.074803849369886 -25.32983776506046 -4.5
    endloop
  endfacet
  facet normal 0.5877852522924727 -0.8090169943749477 0
    outer loop
      vertex 16.074803849369886 -25.32983776506046 -4.5
      vertex 19.1227196924607 -23.115397283273673 -4.5
      vertex 19.1227196924607 -23.115397283273673 0
    endloop
  endfacet
  facet normal 0.684547105928689 -0.7289686274214112 0
    outer loop
      vertex 19.1227196924607 -23.115397283273673 -4.5
      vertex 21.86905882264235 -20.536413177860656 -4.5
      vertex 21.86905882264235 -20.536413177860656 0
    endloop
  endfacet
  facet normal 0.7705132427757891 -0.6374239897486897 0
    outer loop
      vertex 21.86905882264235 -20.536413177860656 -4.5
      vertex 24.270509831248425 -17.633557568774194 -4.5
      vertex 21.86905882264235 -20.536413177860656 0
    endloop
  endfacet
  facet normal 0.8443279255020159 -0.5358267949789957 0
    outer loop
      vertex 24.270509831248425 -17.633557568774194 -4.5
      vertex 26.289200401315902 -14.452610223051462 -4.5
      vertex 24.270509831248425 -17.633557568774194 0
    endloop
  endfacet
  facet normal 0 0 -1
    outer loop
      vertex 16.074803849369886 -25.32983776506046 -4.5
      vertex 19.12271969246069 23.115397283273673 -4.5
      vertex 19.1227196924607 -23.115397283273673 -4.5
    endloop
  endfacet
  facet normal 0 0 -1
    outer loop
      vertex 19.1227196924607 -23.115397283273673 -4.5
      vertex 21.869058822642348 20.536413177860663 -4.5
      vertex 21.86905882264235 -20.536413177860656 -4.5
    endloop
  endfacet
  facet normal 0 0 -1
    outer loop
      vertex 21.86905882264235 -20.536413177860656 -4.5
      vertex 24.270509831248425 17.633557568774194 -4.5
      vertex 24.270509831248425 -17.633557568774194 -4.5
    endloop
  endfacet
  facet normal 0 0 -1
    outer loop
      vertex 24.270509831248425 -17.633557568774194 -4.5
      vertex 26.289200401315906 14.45261022305146 -4.5
      vertex 26.289200401315902 -14.452610223051462 -4.5
    endloop
  endfacet
  facet normal 0 0 -1
    outer loop
      vertex 26.289200401315902 -14.452610223051462 -4.5
      vertex 27.89329457664754 11.043736580540338 -4.5
      vertex 27.893294576647538 -11.043736580540351 -4.5
    endloop
  endfacet
  facet normal 0 0 -1
    outer loop
      vertex 27.893294576647538 -11.043736580540351 -4.5
      vertex 29.057494833858932 7.460696614945644 -4.5
      vertex 29.057494833858936 -7.460696614945633 -4.5
    endloop
  endfacet
  facet normal 0 0 -1
    outer loop
      vertex 29.057494833858936 -7.460696614945633 -4.5
      vertex 29.763441039434337 3.7599970069291277 -4.5
      vertex 29.763441039434337 -3.759997006929122 -4.5
    endloop
  endfacet
  facet normal 0.9048270524660191 -0.42577929156507377 0
    outer loop
      vertex 26.289200401315902 -14.452610223051462 -4.5
      vertex 27.893294576647538 -11.043736580540351 -4.5
      vertex 26.289200401315902 -14.452610223051462 0
    endloop
  endfacet
  facet normal 0.9510565162951536 -0.3090169943749472 0
    outer loop
      vertex 27.893294576647538 -11.043736580540351 -4.5
      vertex 29.057494833858936 -7.460696614945633 -4.5
      vertex 27.893294576647538 -11.043736580540351 0
    endloop
  endfacet
  facet normal 0.9822872507286886 -0.18738131458572482 0
    outer loop
      vertex 29.057494833858936 -7.460696614945633 -4.5
      vertex 29.763441039434337 -3.759997006929122 -4.5
      vertex 29.057494833858936 -7.460696614945633 0
    endloop
  endfacet
  facet normal 0.9980267284282716 -0.06279051952931293 0
    outer loop
      vertex 29.763441039434337 -3.759997006929122 -4.5
      vertex 30 0 -4.5
      vertex 29.763441039434337 -3.759997006929122 0
    endloop
  endfacet
  facet normal 0.12533323356430498 -0.9921147013144778 0
    outer loop
      vertex 1.8837155858794128 -29.940801852848146 -4.5
      vertex 5.621439437571745 -29.468617521860658 0
      vertex 1.8837155858794128 -29.940801852848146 0
    endloop
  endfacet
  facet normal 0.2486898871648549 -0.968583161128631 0
    outer loop
      vertex 5.621439437571745 -29.468617521860658 -4.5
      vertex 9.270509831248422 -28.531695488854606 0
      vertex 5.621439437571745 -29.468617521860658 0
    endloop
  endfacet
  facet normal 0.36812455268467803 -0.9297764858882512 0
    outer loop
      vertex 9.270509831248422 -28.531695488854606 -4.5
      vertex 12.773378746952172 -27.144811573980586 0
      vertex 9.270509831248422 -28.531695488854606 0
    endloop
  endfacet
  facet normal 0.4817536741017143 -0.876306680043864 0
    outer loop
      vertex 12.773378746952172 -27.144811573980586 -4.5
      vertex 16.074803849369886 -25.32983776506046 0
      vertex 12.773378746952172 -27.144811573980586 0
    endloop
  endfacet
  facet normal 0 0 1
    outer loop
      vertex 1.8837155858794128 -29.940801852848146 0
      vertex 5.621439437571745 -29.468617521860658 0
      vertex 2.957125000655651 -5.1218907460570335 0
    endloop
  endfacet
  facet normal 0 0 1
    outer loop
      vertex 5.621439437571745 -29.468617521860658 0
      vertex 9.270509831248422 -28.531695488854606 0
      vertex 2.957125000655651 -5.1218907460570335 0
    endloop
  endfacet
  facet normal 0 0 1
    outer loop
      vertex 1.8837155858794128 -29.940801852848146 0
      vertex 2.957125000655651 -5.1218907460570335 0
      vertex -2.957125000655651 -5.1218907460570335 0
    endloop
  endfacet
  facet normal 0 0 1
    outer loop
      vertex 9.270509831248422 -28.531695488854606 0
      vertex 5.914250001311302 0 0
      vertex 2.957125000655651 -5.1218907460570335 0
    endloop
  endfacet
  facet normal 0 0 1
    outer loop
      vertex 9.270509831248422 -28.531695488854606 0
      vertex 12.773378746952172 -27.144811573980586 0
      vertex 9.270509831248422 28.531695488854606 0
    endloop
  endfacet
  facet normal 0 0 1
    outer loop
      vertex 12.773378746952172 -27.144811573980586 0
      vertex 16.074803849369886 -25.32983776506046 0
      vertex 12.773378746952181 27.144811573980583 0
    endloop
  endfacet
  facet normal 0.5877852522924727 -0.8090169943749477 0
    outer loop
      vertex 16.074803849369886 -25.32983776506046 -4.5
      vertex 19.1227196924607 -23.115397283273673 0
      vertex 16.074803849369886 -25.32983776506046 0
    endloop
  endfacet
  facet normal 0.684547105928689 -0.7289686274214112 0
    outer loop
      vertex 19.1227196924607 -23.115397283273673 -4.5
      vertex 21.86905882264235 -20.536413177860656 0
      vertex 19.1227196924607 -23.115397283273673 0
    endloop
  endfacet
  facet normal 0.7705132427757891 -0.6374239897486897 0
    outer loop
      vertex 24.270509831248425 -17.633557568774194 -4.5
      vertex 24.270509831248425 -17.633557568774194 0
      vertex 21.86905882264235 -20.536413177860656 0
    endloop
  endfacet
  facet normal 0.8443279255020159 -0.5358267949789957 0
    outer loop
      vertex 26.289200401315902 -14.452610223051462 -4.5
      vertex 26.289200401315902 -14.452610223051462 0
      vertex 24.270509831248425 -17.633557568774194 0
    endloop
  endfacet
  facet normal 0.9048270524660191 -0.42577929156507377 0
    outer loop
      vertex 27.893294576647538 -11.043736580540351 -4.5
      vertex 27.893294576647538 -11.043736580540351 0
      vertex 26.289200401315902 -14.452610223051462 0
    endloop
  endfacet
  facet normal 0.9510565162951536 -0.3090169943749472 0
    outer loop
      vertex 29.057494833858936 -7.460696614945633 -4.5
      vertex 29.057494833858936 -7.460696614945633 0
      vertex 27.893294576647538 -11.043736580540351 0
    endloop
  endfacet
  facet normal 0.9822872507286886 -0.18738131458572482 0
    outer loop
      vertex 29.763441039434337 -3.759997006929122 -4.5
      vertex 29.763441039434337 -3.759997006929122 0
      vertex 29.057494833858936 -7.460696614945633 0
    endloop
  endfacet
  facet normal 0.9980267284282716 -0.06279051952931293 0
    outer loop
      vertex 29.763441039434337 -3.759997006929122 0
      vertex 30 0 -4.5
      vertex 30 0 0
    endloop
  endfacet
  facet normal 0 0 1
    outer loop
      vertex 16.074803849369886 -25.32983776506046 0
      vertex 19.1227196924607 -23.115397283273673 0
      vertex 16.0748038493699 25.329837765060454 0
    endloop
  endfacet
  facet normal 0 0 1
    outer loop
      vertex 19.1227196924607 -23.115397283273673 0
      vertex 21.86905882264235 -20.536413177860656 0
      vertex 19.12271969246069 23.115397283273673 0
    endloop
  endfacet
  facet normal 0 0 1
    outer loop
      vertex 21.86905882264235 -20.536413177860656 0
      vertex 24.270509831248425 -17.633557568774194 0
      vertex 21.869058822642348 20.536413177860663 0
    endloop
  endfacet
  facet normal 0 0 1
    outer loop
      vertex 24.270509831248425 -17.633557568774194 0
      vertex 26.289200401315902 -14.452610223051462 0
      vertex 24.270509831248425 17.633557568774194 0
    endloop
  endfacet
  facet normal 0 0 1
    outer loop
      vertex 26.289200401315902 -14.452610223051462 0
      vertex 27.893294576647538 -11.043736580540351 0
      vertex 26.289200401315906 14.45261022305146 0
    endloop
  endfacet
  facet normal 0 0 1
    outer loop
      vertex 27.893294576647538 -11.043736580540351 0
      vertex 29.057494833858936 -7.460696614945633 0
      vertex 27.89329457664754 11.043736580540338 0
    endloop
  endfacet
  facet normal 0 0 1
    outer loop
      vertex 29.057494833858936 -7.460696614945633 0
      vertex 29.763441039434337 -3.759997006929122 0
      vertex 29.057494833858932 7.460696614945644 0
    endloop
  endfacet
  facet normal 0 0 -1
    outer loop
      vertex 5.621439437571738 29.46861752186066 -4.5
      vertex 2.957125000655651 5.1218907460570335 -4.5
      vertex -2.957125000655651 5.1218907460570335 -4.5
    endloop
  endfacet
  facet normal 0 0 -1
    outer loop
      vertex 9.270509831248422 28.531695488854606 -4.5
      vertex 5.914250001311302 0 -4.5
      vertex 2.957125000655651 5.1218907460570335 -4.5
    endloop
  endfacet
  facet normal 0 0 -1
    outer loop
      vertex 9.270509831248422 -28.531695488854606 -4.5
      vertex 9.270509831248422 28.531695488854606 -4.5
      vertex 12.773378746952181 27.144811573980583 -4.5
    endloop
  endfacet
  facet normal 0 0 -1
    outer loop
      vertex 12.773378746952172 -27.144811573980586 -4.5
      vertex 12.773378746952181 27.144811573980583 -4.5
      vertex 16.0748038493699 25.329837765060454 -4.5
    endloop
  endfacet
  facet normal 0 0 -1
    outer loop
      vertex 1.8837155858793984 29.940801852848146 -4.5
      vertex 5.621439437571738 29.46861752186066 -4.5
      vertex -2.957125000655651 5.1218907460570335 -4.5
    endloop
  endfacet
  facet normal 0 0 -1
    outer loop
      vertex 5.621439437571738 29.46861752186066 -4.5
      vertex 9.270509831248422 28.531695488854606 -4.5
      vertex 2.957125000655651 5.1218907460570335 -4.5
    endloop
  endfacet
  facet normal 0.1253332335643038 0.9921147013144779 0
    outer loop
      vertex 1.8837155858793984 29.940801852848146 -4.5
      vertex 1.8837155858793984 29.940801852848146 0
      vertex 5.621439437571738 29.46861752186066 -4.5
    endloop
  endfacet
  facet normal 0.24868988716485538 0.9685831611286309 0
    outer loop
      vertex 5.621439437571738 29.46861752186066 -4.5
      vertex 5.621439437571738 29.46861752186066 0
      vertex 9.270509831248422 28.531695488854606 -4.5
    endloop
  endfacet
  facet normal 0.36812455268467814 0.9297764858882515 0
    outer loop
      vertex 9.270509831248422 28.531695488854606 -4.5
      vertex 9.270509831248422 28.531695488854606 0
      vertex 12.773378746952181 27.144811573980583 -4.5
    endloop
  endfacet
  facet normal 0.48175367410171444 0.8763066800438639 0
    outer loop
      vertex 12.773378746952181 27.144811573980583 -4.5
      vertex 12.773378746952181 27.144811573980583 0
      vertex 16.0748038493699 25.329837765060454 -4.5
    endloop
  endfacet
  facet normal 0 0 -1
    outer loop
      vertex 19.1227196924607 -23.115397283273673 -4.5
      vertex 19.12271969246069 23.115397283273673 -4.5
      vertex 21.869058822642348 20.536413177860663 -4.5
    endloop
  endfacet
  facet normal 0 0 -1
    outer loop
      vertex 16.074803849369886 -25.32983776506046 -4.5
      vertex 16.0748038493699 25.329837765060454 -4.5
      vertex 19.12271969246069 23.115397283273673 -4.5
    endloop
  endfacet
  facet normal 0 0 -1
    outer loop
      vertex 21.86905882264235 -20.536413177860656 -4.5
      vertex 21.869058822642348 20.536413177860663 -4.5
      vertex 24.270509831248425 17.633557568774194 -4.5
    endloop
  endfacet
  facet normal 0 0 -1
    outer loop
      vertex 24.270509831248425 -17.633557568774194 -4.5
      vertex 24.270509831248425 17.633557568774194 -4.5
      vertex 26.289200401315906 14.45261022305146 -4.5
    endloop
  endfacet
  facet normal 0 0 -1
    outer loop
      vertex 26.289200401315902 -14.452610223051462 -4.5
      vertex 26.289200401315906 14.45261022305146 -4.5
      vertex 27.89329457664754 11.043736580540338 -4.5
    endloop
  endfacet
  facet normal 0 0 -1
    outer loop
      vertex 29.763441039434337 -3.759997006929122 -4.5
      vertex 29.763441039434337 3.7599970069291277 -4.5
      vertex 30 0 -4.5
    endloop
  endfacet
  facet normal 0 0 -1
    outer loop
      vertex 29.057494833858936 -7.460696614945633 -4.5
      vertex 29.057494833858932 7.460696614945644 -4.5
      vertex 29.763441039434337 3.7599970069291277 -4.5
    endloop
  endfacet
  facet normal 0 0 -1
    outer loop
      vertex 27.893294576647538 -11.043736580540351 -4.5
      vertex 27.89329457664754 11.043736580540338 -4.5
      vertex 29.057494833858932 7.460696614945644 -4.5
    endloop
  endfacet
  facet normal 0.9980267284282716 0.06279051952931283 0
    outer loop
      vertex 30 0 -4.5
      vertex 29.763441039434337 3.7599970069291277 -4.5
      vertex 30 0 0
    endloop
  endfacet
  facet normal 0.9822872507286884 0.18738131458572546 0
    outer loop
      vertex 29.763441039434337 3.7599970069291277 -4.5
      vertex 29.057494833858932 7.460696614945644 -4.5
      vertex 29.763441039434337 3.7599970069291277 0
    endloop
  endfacet
  facet normal 0.9510565162951535 0.30901699437494734 0
    outer loop
      vertex 29.057494833858932 7.460696614945644 -4.5
      vertex 27.89329457664754 11.043736580540338 -4.5
      vertex 29.057494833858932 7.460696614945644 0
    endloop
  endfacet
  facet normal 0.9048270524660195 0.4257792915650726 0
    outer loop
      vertex 27.89329457664754 11.043736580540338 -4.5
      vertex 26.289200401315906 14.45261022305146 -4.5
      vertex 27.89329457664754 11.043736580540338 0
    endloop
  endfacet
  facet normal 0.6845471059286874 0.7289686274214127 0
    outer loop
      vertex 21.869058822642348 20.536413177860663 -4.5
      vertex 19.12271969246069 23.115397283273673 -4.5
      vertex 19.12271969246069 23.115397283273673 0
    endloop
  endfacet
  facet normal 0.5877852522924741 0.8090169943749466 0
    outer loop
      vertex 16.0748038493699 25.329837765060454 -4.5
      vertex 16.0748038493699 25.329837765060454 0
      vertex 19.12271969246069 23.115397283273673 -4.5
    endloop
  endfacet
  facet normal 0.7705132427757894 0.6374239897486894 0
    outer loop
      vertex 21.869058822642348 20.536413177860663 -4.5
      vertex 24.270509831248425 17.633557568774194 0
      vertex 24.270509831248425 17.633557568774194 -4.5
    endloop
  endfacet
  facet normal 0.8443279255020155 0.535826794978996 0
    outer loop
      vertex 26.289200401315906 14.45261022305146 -4.5
      vertex 24.270509831248425 17.633557568774194 -4.5
      vertex 26.289200401315906 14.45261022305146 0
    endloop
  endfacet
  facet normal 0 0 1
    outer loop
      vertex 9.270509831248422 -28.531695488854606 0
      vertex 5.621439437571738 29.46861752186066 0
      vertex 5.914250001311302 0 0
    endloop
  endfacet
  facet normal 0 0 1
    outer loop
      vertex 1.8837155858793984 29.940801852848146 0
      vertex 2.957125000655651 5.1218907460570335 0
      vertex 5.914250001311302 0 0
    endloop
  endfacet
  facet normal 0 0 1
    outer loop
      vertex 9.270509831248422 -28.531695488854606 0
      vertex 9.270509831248422 28.531695488854606 0
      vertex 5.621439437571738 29.46861752186066 0
    endloop
  endfacet
  facet normal 0 0 1
    outer loop
      vertex 12.773378746952172 -27.144811573980586 0
      vertex 12.773378746952181 27.144811573980583 0
      vertex 9.270509831248422 28.531695488854606 0
    endloop
  endfacet
  facet normal 0 0 1
    outer loop
      vertex 16.074803849369886 -25.32983776506046 0
      vertex 16.0748038493699 25.329837765060454 0
      vertex 12.773378746952181 27.144811573980583 0
    endloop
  endfacet
  facet normal 0 1 0
    outer loop
      vertex -1.8837155858793984 29.940801852848146 0
      vertex 1.8837155858793984 29.940801852848146 0
      vertex 1.8837155858793984 29.940801852848146 -4.5
    endloop
  endfacet
  facet normal 0.1253332335643038 0.9921147013144779 0
    outer loop
      vertex 5.621439437571738 29.46861752186066 -4.5
      vertex 1.8837155858793984 29.940801852848146 0
      vertex 5.621439437571738 29.46861752186066 0
    endloop
  endfacet
  facet normal 0.24868988716485538 0.9685831611286309 0
    outer loop
      vertex 9.270509831248422 28.531695488854606 -4.5
      vertex 5.621439437571738 29.46861752186066 0
      vertex 9.270509831248422 28.531695488854606 0
    endloop
  endfacet
  facet normal 0.48175367410171444 0.8763066800438639 0
    outer loop
      vertex 16.0748038493699 25.329837765060454 -4.5
      vertex 12.773378746952181 27.144811573980583 0
      vertex 16.0748038493699 25.329837765060454 0
    endloop
  endfacet
  facet normal 0.36812455268467814 0.9297764858882515 0
    outer loop
      vertex 12.773378746952181 27.144811573980583 -4.5
      vertex 9.270509831248422 28.531695488854606 0
      vertex 12.773378746952181 27.144811573980583 0
    endloop
  endfacet
  facet normal 0 0 1
    outer loop
      vertex -1.8837155858793984 29.940801852848146 0
      vertex 2.957125000655651 5.1218907460570335 0
      vertex 1.8837155858793984 29.940801852848146 0
    endloop
  endfacet
  facet normal 0 0 1
    outer loop
      vertex 1.8837155858793984 29.940801852848146 0
      vertex 5.914250001311302 0 0
      vertex 5.621439437571738 29.46861752186066 0
    endloop
  endfacet
  facet normal 0.9980267284282716 0.06279051952931283 0
    outer loop
      vertex 29.763441039434337 3.7599970069291277 -4.5
      vertex 29.763441039434337 3.7599970069291277 0
      vertex 30 0 0
    endloop
  endfacet
  facet normal 0.9822872507286884 0.18738131458572546 0
    outer loop
      vertex 29.057494833858932 7.460696614945644 -4.5
      vertex 29.057494833858932 7.460696614945644 0
      vertex 29.763441039434337 3.7599970069291277 0
    endloop
  endfacet
  facet normal 0.9510565162951535 0.30901699437494734 0
    outer loop
      vertex 27.89329457664754 11.043736580540338 -4.5
      vertex 27.89329457664754 11.043736580540338 0
      vertex 29.057494833858932 7.460696614945644 0
    endloop
  endfacet
  facet normal 0.9048270524660195 0.4257792915650726 0
    outer loop
      vertex 26.289200401315906 14.45261022305146 -4.5
      vertex 26.289200401315906 14.45261022305146 0
      vertex 27.89329457664754 11.043736580540338 0
    endloop
  endfacet
  facet normal 0 0 1
    outer loop
      vertex 19.1227196924607 -23.115397283273673 0
      vertex 19.12271969246069 23.115397283273673 0
      vertex 16.0748038493699 25.329837765060454 0
    endloop
  endfacet
  facet normal 0 0 1
    outer loop
      vertex 21.86905882264235 -20.536413177860656 0
      vertex 21.869058822642348 20.536413177860663 0
      vertex 19.12271969246069 23.115397283273673 0
    endloop
  endfacet
  facet normal 0 0 1
    outer loop
      vertex 24.270509831248425 -17.633557568774194 0
      vertex 24.270509831248425 17.633557568774194 0
      vertex 21.869058822642348 20.536413177860663 0
    endloop
  endfacet
  facet normal 0 0 1
    outer loop
      vertex 26.289200401315902 -14.452610223051462 0
      vertex 26.289200401315906 14.45261022305146 0
      vertex 24.270509831248425 17.633557568774194 0
    endloop
  endfacet
  facet normal 0 0 1
    outer loop
      vertex 29.763441039434337 -3.759997006929122 0
      vertex 30 0 0
      vertex 29.763441039434337 3.7599970069291277 0
    endloop
  endfacet
  facet normal 0 0 1
    outer loop
      vertex 29.057494833858936 -7.460696614945633 0
      vertex 29.057494833858932 7.460696614945644 0
      vertex 27.89329457664754 11.043736580540338 0
    endloop
  endfacet
  facet normal 0 0 1
    outer loop
      vertex 29.763441039434337 -3.759997006929122 0
      vertex 29.763441039434337 3.7599970069291277 0
      vertex 29.057494833858932 7.460696614945644 0
    endloop
  endfacet
  facet normal 0 0 1
    outer loop
      vertex 27.893294576647538 -11.043736580540351 0
      vertex 27.89329457664754 11.043736580540338 0
      vertex 26.289200401315906 14.45261022305146 0
    endloop
  endfacet
  facet normal 0.6845471059286874 0.7289686274214127 0
    outer loop
      vertex 21.869058822642348 20.536413177860663 -4.5
      vertex 19.12271969246069 23.115397283273673 0
      vertex 21.869058822642348 20.536413177860663 0
    endloop
  endfacet
  facet normal 0.5877852522924741 0.8090169943749466 0
    outer loop
      vertex 19.12271969246069 23.115397283273673 -4.5
      vertex 16.0748038493699 25.329837765060454 0
      vertex 19.12271969246069 23.115397283273673 0
    endloop
  endfacet
  facet normal 0.8443279255020155 0.535826794978996 0
    outer loop
      vertex 24.270509831248425 17.633557568774194 -4.5
      vertex 24.270509831248425 17.633557568774194 0
      vertex 26.289200401315906 14.45261022305146 0
    endloop
  endfacet
  facet normal 0.7705132427757894 0.6374239897486894 0
    outer loop
      vertex 21.869058822642348 20.536413177860663 -4.5
      vertex 21.869058822642348 20.536413177860663 0
      vertex 24.270509831248425 17.633557568774194 0
    endloop
  endfacet
  facet normal 0.8660254038093487 0.49999999995685457 0
    outer loop
      vertex -2.957125000655651 -5.1218907460570335 -4.5
      vertex -5.914250001311302 0 -4.5
      vertex -5.914250001311302 0 0
    endloop
  endfacet
  facet normal 0 1 0
    outer loop
      vertex 2.957125000655651 -5.1218907460570335 -4.5
      vertex -2.957125000655651 -5.1218907460570335 -4.5
      vertex -2.957125000655651 -5.1218907460570335 0
    endloop
  endfacet
  facet normal 0.8660254038093487 0.49999999995685457 0
    outer loop
      vertex -2.957125000655651 -5.1218907460570335 -4.5
      vertex -5.914250001311302 0 0
      vertex -2.957125000655651 -5.1218907460570335 0
    endloop
  endfacet
  facet normal 0.8660254038093487 -0.49999999995685457 0
    outer loop
      vertex -5.914250001311302 0 -4.5
      vertex -2.957125000655651 5.1218907460570335 -4.5
      vertex -2.957125000655651 5.1218907460570335 0
    endloop
  endfacet
  facet normal 0.8660254038093487 -0.49999999995685457 0
    outer loop
      vertex -2.957125000655651 5.1218907460570335 0
      vertex -5.914250001311302 0 0
      vertex -5.914250001311302 0 -4.5
    endloop
  endfacet
  facet normal 0 -1 0
    outer loop
      vertex -2.957125000655651 5.1218907460570335 -4.5
      vertex 2.957125000655651 5.1218907460570335 0
      vertex -2.957125000655651 5.1218907460570335 0
    endloop
  endfacet
  facet normal -0.8660254038093487 0.49999999995685457 0
    outer loop
      vertex 5.914250001311302 0 -4.5
      vertex 2.957125000655651 -5.1218907460570335 -4.5
      vertex 2.957125000655651 -5.1218907460570335 0
    endloop
  endfacet
  facet normal 0 1 0
    outer loop
      vertex 2.957125000655651 -5.1218907460570335 -4.5
      vertex -2.957125000655651 -5.1218907460570335 0
      vertex 2.957125000655651 -5.1218907460570335 0
    endloop
  endfacet
  facet normal -0.8660254038093487 0.49999999995685457 0
    outer loop
      vertex 2.957125000655651 -5.1218907460570335 0
      vertex 5.914250001311302 0 0
      vertex 5.914250001311302 0 -4.5
    endloop
  endfacet
  facet normal 0 -1 0
    outer loop
      vertex -2.957125000655651 5.1218907460570335 -4.5
      vertex 2.957125000655651 5.1218907460570335 -4.5
      vertex 2.957125000655651 5.1218907460570335 0
    endloop
  endfacet
  facet normal -0.8660254038093487 -0.49999999995685457 0
    outer loop
      vertex 2.957125000655651 5.1218907460570335 -4.5
      vertex 5.914250001311302 0 -4.5
      vertex 5.914250001311302 0 0
    endloop
  endfacet
  facet normal -0.8660254038093487 -0.49999999995685457 0
    outer loop
      vertex 5.914250001311302 0 0
      vertex 2.957125000655651 5.1218907460570335 0
      vertex 2.957125000655651 5.1218907460570335 -4.5
    endloop
  endfacet
endsolid OpenSCAD_Model
