solid OpenSCAD_Model
  facet normal 0.996786 0.0627204 -0.0498393
    outer loop
      vertex 4.925 0 -3
      vertex 4.88616 0.617266 -3
      vertex 5.075 0 0
    endloop
  endfacet
  facet normal 0 -0.998757 -0.0498413
    outer loop
      vertex -0.309243 -4.91528 -3
      vertex 0.318662 -5.06499 0
      vertex -0.318662 -5.06499 0
    endloop
  endfacet
  facet normal 0 -0.998757 -0.0498413
    outer loop
      vertex 0.318662 -5.06499 0
      vertex -0.309243 -4.91528 -3
      vertex 0.309243 -4.91528 -3
    endloop
  endfacet
  facet normal 0.996786 -0.0627159 -0.0498402
    outer loop
      vertex 5.03498 -0.636065 0
      vertex 4.88616 -0.617266 -3
      vertex 5.075 0 0
    endloop
  endfacet
  facet normal -0.996786 -0.0627204 -0.0498393
    outer loop
      vertex -4.88616 -0.617266 -3
      vertex -5.075 0 0
      vertex -4.925 0 -3
    endloop
  endfacet
  facet normal 0.125174 0.990882 -0.0498398
    outer loop
      vertex 0.309243 4.91528 -3
      vertex 0.38322 5.05683 0
      vertex 0.95096 4.98511 0
    endloop
  endfacet
  facet normal 0.125244 0.990873 -0.0498411
    outer loop
      vertex 0.38322 5.05683 0
      vertex 0.309243 4.91528 -3
      vertex 0.318662 5.06499 0
    endloop
  endfacet
  facet normal 0.683689 -0.72807 -0.0498423
    outer loop
      vertex 3.69952 -3.47408 0
      vertex 3.23493 -3.91035 0
      vertex 3.59017 -3.37139 -3
    endloop
  endfacet
  facet normal 0 0 -1
    outer loop
      vertex 4.44726 2.4449 0
      vertex 8.61424 3.48811 0
      vertex 8.52545 2.49323 0
    endloop
  endfacet
  facet normal -0 0 -1
    outer loop
      vertex 8.61424 3.48811 0
      vertex 4.44726 2.4449 0
      vertex 8.58635 3.96704 0
    endloop
  endfacet
  facet normal -0 0 -1
    outer loop
      vertex 8.58635 3.96704 0
      vertex 4.44726 2.4449 0
      vertex 8.50264 4.42429 0
    endloop
  endfacet
  facet normal 0 0 -1
    outer loop
      vertex 4.71862 1.86823 0
      vertex 8.52545 2.49323 0
      vertex 8.25908 1.4926 0
    endloop
  endfacet
  facet normal -0 0 -1
    outer loop
      vertex 8.50264 4.42429 0
      vertex 4.44726 2.4449 0
      vertex 8.36313 4.85983 0
    endloop
  endfacet
  facet normal 0 0 -1
    outer loop
      vertex 4.10576 2.98301 0
      vertex 8.36313 4.85983 0
      vertex 4.44726 2.4449 0
    endloop
  endfacet
  facet normal 0 0 -1
    outer loop
      vertex 4.91556 1.2621 0
      vertex 8.25908 1.4926 0
      vertex 7.81511 0.486191 0
    endloop
  endfacet
  facet normal 0 0 -1
    outer loop
      vertex 8.52545 2.49323 0
      vertex 4.71862 1.86823 0
      vertex 4.44726 2.4449 0
    endloop
  endfacet
  facet normal -0 0 -1
    outer loop
      vertex 8.36313 4.85983 0
      vertex 4.10576 2.98301 0
      vertex 8.16782 5.27368 0
    endloop
  endfacet
  facet normal 0 0 -1
    outer loop
      vertex 5.03498 0.636065 0
      vertex 7.81511 0.486191 0
      vertex 7.19356 -0.525955 0
    endloop
  endfacet
  facet normal -0 0 -1
    outer loop
      vertex 8.16782 5.27368 0
      vertex 4.10576 2.98301 0
      vertex 7.9167 5.66585 0
    endloop
  endfacet
  facet normal -0 0 -1
    outer loop
      vertex 7.9167 5.66585 0
      vertex 4.10576 2.98301 0
      vertex 7.60977 6.0363 0
    endloop
  endfacet
  facet normal 0 0 -1
    outer loop
      vertex 5.03498 -0.636065 0
      vertex 7.19356 -0.525955 0
      vertex 6.39441 -1.54387 0
    endloop
  endfacet
  facet normal -0 0 -1
    outer loop
      vertex 8.25908 1.4926 0
      vertex 4.91556 1.2621 0
      vertex 4.71862 1.86823 0
    endloop
  endfacet
  facet normal -0 0 -1
    outer loop
      vertex 7.60977 6.0363 0
      vertex 4.10576 2.98301 0
      vertex 7.24706 6.38507 0
    endloop
  endfacet
  facet normal 0 0 -1
    outer loop
      vertex 4.91556 -1.2621 0
      vertex 6.39441 -1.54387 0
      vertex 5.41768 -2.56755 0
    endloop
  endfacet
  facet normal 0 0 -1
    outer loop
      vertex 7.81511 0.486191 0
      vertex 5.03498 0.636065 0
      vertex 4.91556 1.2621 0
    endloop
  endfacet
  facet normal 0 0 -1
    outer loop
      vertex 7.19356 -0.525955 0
      vertex 5.075 0 0
      vertex 5.03498 0.636065 0
    endloop
  endfacet
  facet normal -0 0 -1
    outer loop
      vertex 7.19356 -0.525955 0
      vertex 5.03498 -0.636065 0
      vertex 5.075 0 0
    endloop
  endfacet
  facet normal 0 0 -1
    outer loop
      vertex 6.39441 -1.54387 0
      vertex 4.91556 -1.2621 0
      vertex 5.03498 -0.636065 0
    endloop
  endfacet
  facet normal 0 0 -1
    outer loop
      vertex 5.41768 -2.56755 0
      vertex 4.71862 -1.86823 0
      vertex 4.91556 -1.2621 0
    endloop
  endfacet
  facet normal 0 0 -1
    outer loop
      vertex 5.41768 -2.56755 0
      vertex 4.44726 -2.4449 0
      vertex 4.71862 -1.86823 0
    endloop
  endfacet
  facet normal 0 0 -1
    outer loop
      vertex 4.10576 -2.98301 0
      vertex 5.41768 -2.56755 0
      vertex 4.26337 -3.59698 0
    endloop
  endfacet
  facet normal -0 0 -1
    outer loop
      vertex 5.41768 -2.56755 0
      vertex 4.10576 -2.98301 0
      vertex 4.44726 -2.4449 0
    endloop
  endfacet
  facet normal 0 0 -1
    outer loop
      vertex 4.26337 -3.59698 0
      vertex 3.69952 -3.47408 0
      vertex 4.10576 -2.98301 0
    endloop
  endfacet
  facet normal 0 0 -1
    outer loop
      vertex 3.36879 -4.30554 0
      vertex 3.69952 -3.47408 0
      vertex 4.26337 -3.59698 0
    endloop
  endfacet
  facet normal 0 0 -1
    outer loop
      vertex 3.36879 -4.30554 0
      vertex 3.23493 -3.91035 0
      vertex 3.69952 -3.47408 0
    endloop
  endfacet
  facet normal 0 0 -1
    outer loop
      vertex 3.36879 -4.30554 0
      vertex 2.71932 -4.28496 0
      vertex 3.23493 -3.91035 0
    endloop
  endfacet
  facet normal 0 0 -1
    outer loop
      vertex 2.41487 -4.99902 0
      vertex 2.71932 -4.28496 0
      vertex 3.36879 -4.30554 0
    endloop
  endfacet
  facet normal 0 0 -1
    outer loop
      vertex 2.41487 -4.99902 0
      vertex 2.16083 -4.592 0
      vertex 2.71932 -4.28496 0
    endloop
  endfacet
  facet normal 0 0 -1
    outer loop
      vertex 2.41487 -4.99902 0
      vertex 1.56826 -4.82661 0
      vertex 2.16083 -4.592 0
    endloop
  endfacet
  facet normal 0 0 -1
    outer loop
      vertex 1.40161 -5.67746 0
      vertex 1.56826 -4.82661 0
      vertex 2.41487 -4.99902 0
    endloop
  endfacet
  facet normal 0 0 -1
    outer loop
      vertex 1.40161 -5.67746 0
      vertex 0.95096 -4.98511 0
      vertex 1.56826 -4.82661 0
    endloop
  endfacet
  facet normal 0 0 -1
    outer loop
      vertex 0.318662 -5.06499 0
      vertex 1.40161 -5.67746 0
      vertex 0.32901 -6.34084 0
    endloop
  endfacet
  facet normal 0 0 -1
    outer loop
      vertex 1.40161 -5.67746 0
      vertex 0.318662 -5.06499 0
      vertex 0.95096 -4.98511 0
    endloop
  endfacet
  facet normal 0 0 -1
    outer loop
      vertex 0.32901 -6.34084 0
      vertex -0.318662 -5.06499 0
      vertex 0.318662 -5.06499 0
    endloop
  endfacet
  facet normal 0 0 -1
    outer loop
      vertex -0.802902 -6.98917 0
      vertex -0.318662 -5.06499 0
      vertex 0.32901 -6.34084 0
    endloop
  endfacet
  facet normal 0 0 -1
    outer loop
      vertex -0.802902 -6.98917 0
      vertex -0.95096 -4.98511 0
      vertex -0.318662 -5.06499 0
    endloop
  endfacet
  facet normal 0 0 -1
    outer loop
      vertex -0.802902 -6.98917 0
      vertex -1.56826 -4.82661 0
      vertex -0.95096 -4.98511 0
    endloop
  endfacet
  facet normal 0 0 -1
    outer loop
      vertex -3.08206 -6.60243 0
      vertex -0.802902 -6.98917 0
      vertex -1.99417 -7.62245 0
    endloop
  endfacet
  facet normal 0 0 -1
    outer loop
      vertex -0.802902 -6.98917 0
      vertex -3.10818 -6.03337 0
      vertex -1.56826 -4.82661 0
    endloop
  endfacet
  facet normal 0 0 -1
    outer loop
      vertex -3.18657 -5.47935 0
      vertex -1.56826 -4.82661 0
      vertex -3.10818 -6.03337 0
    endloop
  endfacet
  facet normal 0 0 -1
    outer loop
      vertex -0.802902 -6.98917 0
      vertex -3.08206 -6.60243 0
      vertex -3.10818 -6.03337 0
    endloop
  endfacet
  facet normal 0 0 -1
    outer loop
      vertex -1.99417 -7.62245 0
      vertex -3.08537 -6.82716 0
      vertex -3.08206 -6.60243 0
    endloop
  endfacet
  facet normal 0 0 -1
    outer loop
      vertex -1.99417 -7.62245 0
      vertex -3.09534 -7.05499 0
      vertex -3.08537 -6.82716 0
    endloop
  endfacet
  facet normal 0 0 -1
    outer loop
      vertex -1.99417 -7.62245 0
      vertex -3.11194 -7.28592 0
      vertex -3.09534 -7.05499 0
    endloop
  endfacet
  facet normal 0 0 -1
    outer loop
      vertex -1.99417 -7.62245 0
      vertex -3.13519 -7.51996 0
      vertex -3.11194 -7.28592 0
    endloop
  endfacet
  facet normal -0 0 -1
    outer loop
      vertex -1.99417 -7.62245 0
      vertex -3.16507 -7.7571 0
      vertex -3.13519 -7.51996 0
    endloop
  endfacet
  facet normal 0 0 -1
    outer loop
      vertex -1.99417 -7.62245 0
      vertex -3.2016 -7.99733 0
      vertex -3.16507 -7.7571 0
    endloop
  endfacet
  facet normal 0 -0 -1
    outer loop
      vertex -3.2016 -7.99733 0
      vertex -1.99417 -7.62245 0
      vertex -3.24478 -8.24068 0
    endloop
  endfacet
  facet normal 0 0 -1
    outer loop
      vertex 3.69952 3.47408 0
      vertex 7.24706 6.38507 0
      vertex 4.10576 2.98301 0
    endloop
  endfacet
  facet normal -0 0 -1
    outer loop
      vertex 7.24706 6.38507 0
      vertex 3.69952 3.47408 0
      vertex 6.86621 6.68442 0
    endloop
  endfacet
  facet normal -0 0 -1
    outer loop
      vertex 6.86621 6.68442 0
      vertex 3.69952 3.47408 0
      vertex 6.46767 6.93771 0
    endloop
  endfacet
  facet normal -0 0 -1
    outer loop
      vertex 6.46767 6.93771 0
      vertex 3.69952 3.47408 0
      vertex 6.05139 7.14496 0
    endloop
  endfacet
  facet normal -0 0 -1
    outer loop
      vertex 6.05139 7.14496 0
      vertex 3.69952 3.47408 0
      vertex 5.6174 7.30615 0
    endloop
  endfacet
  facet normal 0 0 -1
    outer loop
      vertex 3.23493 3.91035 0
      vertex 5.6174 7.30615 0
      vertex 3.69952 3.47408 0
    endloop
  endfacet
  facet normal -0 0 -1
    outer loop
      vertex 5.6174 7.30615 0
      vertex 3.23493 3.91035 0
      vertex 5.1657 7.42128 0
    endloop
  endfacet
  facet normal -0 0 -1
    outer loop
      vertex 5.1657 7.42128 0
      vertex 3.23493 3.91035 0
      vertex 4.69627 7.49037 0
    endloop
  endfacet
  facet normal -0 0 -1
    outer loop
      vertex 4.69627 7.49037 0
      vertex 3.23493 3.91035 0
      vertex 4.20912 7.5134 0
    endloop
  endfacet
  facet normal 0 0 -1
    outer loop
      vertex 2.71932 4.28496 0
      vertex 4.20912 7.5134 0
      vertex 3.23493 3.91035 0
    endloop
  endfacet
  facet normal 0 0 -1
    outer loop
      vertex 4.20912 7.5134 0
      vertex 2.71932 4.28496 0
      vertex 3.49699 7.46046 0
    endloop
  endfacet
  facet normal 0 0 -1
    outer loop
      vertex 3.49699 7.46046 0
      vertex 2.71932 4.28496 0
      vertex 2.83623 7.30171 0
    endloop
  endfacet
  facet normal 0 0 -1
    outer loop
      vertex 2.16083 4.592 0
      vertex 2.83623 7.30171 0
      vertex 2.71932 4.28496 0
    endloop
  endfacet
  facet normal 0 0 -1
    outer loop
      vertex 2.83623 7.30171 0
      vertex 2.16083 4.592 0
      vertex 2.22684 7.03711 0
    endloop
  endfacet
  facet normal 0 0 -1
    outer loop
      vertex 2.16083 4.592 0
      vertex 1.66882 6.66666 0
      vertex 2.22684 7.03711 0
    endloop
  endfacet
  facet normal 0 0 -1
    outer loop
      vertex 1.56826 4.82661 0
      vertex 1.66882 6.66666 0
      vertex 2.16083 4.592 0
    endloop
  endfacet
  facet normal 0 0 -1
    outer loop
      vertex 1.56826 4.82661 0
      vertex 1.16219 6.19037 0
      vertex 1.66882 6.66666 0
    endloop
  endfacet
  facet normal 0 0 -1
    outer loop
      vertex 0.95096 4.98511 0
      vertex 1.16219 6.19037 0
      vertex 1.56826 4.82661 0
    endloop
  endfacet
  facet normal 0 0 -1
    outer loop
      vertex 0.95096 4.98511 0
      vertex 0.706924 5.60825 0
      vertex 1.16219 6.19037 0
    endloop
  endfacet
  facet normal 0 -0 -1
    outer loop
      vertex 0.706924 5.60825 0
      vertex 0.95096 4.98511 0
      vertex 0.38322 5.05683 0
    endloop
  endfacet
  facet normal -0 0 -1
    outer loop
      vertex -1.56826 -4.82661 0
      vertex -3.18657 -5.47935 0
      vertex -2.16083 -4.592 0
    endloop
  endfacet
  facet normal 0 0 -1
    outer loop
      vertex -3.31721 -4.94038 0
      vertex -2.16083 -4.592 0
      vertex -3.18657 -5.47935 0
    endloop
  endfacet
  facet normal -0 0 -1
    outer loop
      vertex -2.16083 -4.592 0
      vertex -3.31721 -4.94038 0
      vertex -2.71932 -4.28496 0
    endloop
  endfacet
  facet normal 0 0 -1
    outer loop
      vertex -3.50012 -4.41647 0
      vertex -2.71932 -4.28496 0
      vertex -3.31721 -4.94038 0
    endloop
  endfacet
  facet normal -0 0 -1
    outer loop
      vertex -2.71932 -4.28496 0
      vertex -3.50012 -4.41647 0
      vertex -3.23493 -3.91035 0
    endloop
  endfacet
  facet normal 0 0 -1
    outer loop
      vertex -3.73528 -3.90762 0
      vertex -3.23493 -3.91035 0
      vertex -3.50012 -4.41647 0
    endloop
  endfacet
  facet normal 0 0 -1
    outer loop
      vertex -3.23493 -3.91035 0
      vertex -3.73528 -3.90762 0
      vertex -3.69952 -3.47408 0
    endloop
  endfacet
  facet normal 0 0 -1
    outer loop
      vertex -4.02271 -3.41382 0
      vertex -3.69952 -3.47408 0
      vertex -3.73528 -3.90762 0
    endloop
  endfacet
  facet normal 0 0 -1
    outer loop
      vertex -4.02271 -3.41382 0
      vertex -4.10576 -2.98301 0
      vertex -3.69952 -3.47408 0
    endloop
  endfacet
  facet normal 0 0 -1
    outer loop
      vertex -4.36238 -2.93507 0
      vertex -4.10576 -2.98301 0
      vertex -4.02271 -3.41382 0
    endloop
  endfacet
  facet normal 0 0 -1
    outer loop
      vertex -4.36238 -2.93507 0
      vertex -4.44726 -2.4449 0
      vertex -4.10576 -2.98301 0
    endloop
  endfacet
  facet normal 0 0 -1
    outer loop
      vertex -4.70358 -2.5571 0
      vertex -4.44726 -2.4449 0
      vertex -4.36238 -2.93507 0
    endloop
  endfacet
  facet normal 0 0 -1
    outer loop
      vertex -4.70358 -2.5571 0
      vertex -4.71862 -1.86823 0
      vertex -4.44726 -2.4449 0
    endloop
  endfacet
  facet normal 0 0 -1
    outer loop
      vertex -5.04524 -2.17957 0
      vertex -4.71862 -1.86823 0
      vertex -4.70358 -2.5571 0
    endloop
  endfacet
  facet normal 0 0 -1
    outer loop
      vertex -5.38734 -1.80249 0
      vertex -4.71862 -1.86823 0
      vertex -5.04524 -2.17957 0
    endloop
  endfacet
  facet normal 0 0 -1
    outer loop
      vertex -4.71862 -1.86823 0
      vertex -5.38734 -1.80249 0
      vertex -4.91556 -1.2621 0
    endloop
  endfacet
  facet normal 0 0 -1
    outer loop
      vertex -5.72992 -1.42584 0
      vertex -4.91556 -1.2621 0
      vertex -5.38734 -1.80249 0
    endloop
  endfacet
  facet normal -0 0 -1
    outer loop
      vertex -4.91556 -1.2621 0
      vertex -5.72992 -1.42584 0
      vertex -5.03498 -0.636065 0
    endloop
  endfacet
  facet normal 0 0 -1
    outer loop
      vertex -6.41638 -0.673904 0
      vertex -5.03498 -0.636065 0
      vertex -6.07292 -1.04965 0
    endloop
  endfacet
  facet normal -0 0 -1
    outer loop
      vertex -5.03498 -0.636065 0
      vertex -6.41638 -0.673904 0
      vertex -5.075 0 0
    endloop
  endfacet
  facet normal 0 0 -1
    outer loop
      vertex -6.7603 -0.298615 0
      vertex -5.075 0 0
      vertex -6.41638 -0.673904 0
    endloop
  endfacet
  facet normal -0 0 -1
    outer loop
      vertex -5.075 0 0
      vertex -6.7603 -0.298615 0
      vertex -5.03498 0.636065 0
    endloop
  endfacet
  facet normal 0 0 -1
    outer loop
      vertex -7.09998 0.166428 0
      vertex -5.03498 0.636065 0
      vertex -6.7603 -0.298615 0
    endloop
  endfacet
  facet normal 0 0 -1
    outer loop
      vertex -7.38739 0.643845 0
      vertex -5.03498 0.636065 0
      vertex -7.09998 0.166428 0
    endloop
  endfacet
  facet normal 0 0 -1
    outer loop
      vertex -7.62256 1.13367 0
      vertex -5.03498 0.636065 0
      vertex -7.38739 0.643845 0
    endloop
  endfacet
  facet normal 0 0 -1
    outer loop
      vertex -7.80545 1.63589 0
      vertex -5.03498 0.636065 0
      vertex -7.62256 1.13367 0
    endloop
  endfacet
  facet normal 0 0 -1
    outer loop
      vertex -7.9361 2.1505 0
      vertex -5.03498 0.636065 0
      vertex -7.80545 1.63589 0
    endloop
  endfacet
  facet normal 0 0 -1
    outer loop
      vertex -8.01448 2.67751 0
      vertex -5.03498 0.636065 0
      vertex -7.9361 2.1505 0
    endloop
  endfacet
  facet normal 0 0 -1
    outer loop
      vertex -8.04062 3.21692 0
      vertex -5.03498 0.636065 0
      vertex -8.01448 2.67751 0
    endloop
  endfacet
  facet normal 0 -0 -1
    outer loop
      vertex -8.01482 3.73956 0
      vertex -5.03498 0.636065 0
      vertex -8.04062 3.21692 0
    endloop
  endfacet
  facet normal 0 0 -1
    outer loop
      vertex -5.03498 0.636065 0
      vertex -5.57849 7.11836 0
      vertex -5.1282 7.2912 0
    endloop
  endfacet
  facet normal 0 0 -1
    outer loop
      vertex -5.03498 0.636065 0
      vertex -6.00333 6.89616 0
      vertex -5.57849 7.11836 0
    endloop
  endfacet
  facet normal 0 0 -1
    outer loop
      vertex -5.03498 0.636065 0
      vertex -6.40269 6.62459 0
      vertex -6.00333 6.89616 0
    endloop
  endfacet
  facet normal 0 -0 -1
    outer loop
      vertex -7.93744 4.235 0
      vertex -5.03498 0.636065 0
      vertex -8.01482 3.73956 0
    endloop
  endfacet
  facet normal 0 0 -1
    outer loop
      vertex -5.03498 0.636065 0
      vertex -6.77661 6.30363 0
      vertex -6.40269 6.62459 0
    endloop
  endfacet
  facet normal 0 0 -1
    outer loop
      vertex -5.03498 0.636065 0
      vertex -7.11197 5.94437 0
      vertex -6.77661 6.30363 0
    endloop
  endfacet
  facet normal 0 0 -1
    outer loop
      vertex -5.03498 0.636065 0
      vertex -7.39572 5.55788 0
      vertex -7.11197 5.94437 0
    endloop
  endfacet
  facet normal 0 0 -1
    outer loop
      vertex -5.03498 0.636065 0
      vertex -7.62788 5.14415 0
      vertex -7.39572 5.55788 0
    endloop
  endfacet
  facet normal 0 0 -1
    outer loop
      vertex -5.03498 0.636065 0
      vertex -7.93744 4.235 0
      vertex -7.80846 4.70319 0
    endloop
  endfacet
  facet normal 0 0 -1
    outer loop
      vertex -5.03498 0.636065 0
      vertex -7.80846 4.70319 0
      vertex -7.62788 5.14415 0
    endloop
  endfacet
  facet normal 0 0 -1
    outer loop
      vertex -0.318662 5.06499 0
      vertex 0.192123 5.24911 0
      vertex 0.254238 5.06499 0
    endloop
  endfacet
  facet normal -0 0 -1
    outer loop
      vertex 0.192123 5.24911 0
      vertex -0.318662 5.06499 0
      vertex 0.0453339 5.55978 0
    endloop
  endfacet
  facet normal -0 0 -1
    outer loop
      vertex 0.0453339 5.55978 0
      vertex -0.318662 5.06499 0
      vertex -0.137314 5.85231 0
    endloop
  endfacet
  facet normal 0 0 -1
    outer loop
      vertex -0.95096 4.98511 0
      vertex -0.137314 5.85231 0
      vertex -0.318662 5.06499 0
    endloop
  endfacet
  facet normal -0 0 -1
    outer loop
      vertex -0.137314 5.85231 0
      vertex -0.95096 4.98511 0
      vertex -0.35585 6.12666 0
    endloop
  endfacet
  facet normal -0 0 -1
    outer loop
      vertex -0.35585 6.12666 0
      vertex -0.95096 4.98511 0
      vertex -0.61026 6.38286 0
    endloop
  endfacet
  facet normal -0 0 -1
    outer loop
      vertex -0.61026 6.38286 0
      vertex -0.95096 4.98511 0
      vertex -0.900543 6.62088 0
    endloop
  endfacet
  facet normal 0 0 -1
    outer loop
      vertex -1.56826 4.82661 0
      vertex -0.900543 6.62088 0
      vertex -0.95096 4.98511 0
    endloop
  endfacet
  facet normal -0 0 -1
    outer loop
      vertex -0.900543 6.62088 0
      vertex -1.56826 4.82661 0
      vertex -1.2267 6.84076 0
    endloop
  endfacet
  facet normal -0 0 -1
    outer loop
      vertex -1.2267 6.84076 0
      vertex -1.56826 4.82661 0
      vertex -1.54666 7.01921 0
    endloop
  endfacet
  facet normal 0 0 -1
    outer loop
      vertex -1.56826 4.82661 0
      vertex -1.87416 7.17021 0
      vertex -1.54666 7.01921 0
    endloop
  endfacet
  facet normal 0 0 -1
    outer loop
      vertex -2.16083 4.592 0
      vertex -1.87416 7.17021 0
      vertex -1.56826 4.82661 0
    endloop
  endfacet
  facet normal 0 0 -1
    outer loop
      vertex -2.16083 4.592 0
      vertex -2.2092 7.29376 0
      vertex -1.87416 7.17021 0
    endloop
  endfacet
  facet normal 0 0 -1
    outer loop
      vertex -2.16083 4.592 0
      vertex -2.55176 7.38985 0
      vertex -2.2092 7.29376 0
    endloop
  endfacet
  facet normal 0 0 -1
    outer loop
      vertex -2.90184 7.45848 0
      vertex -2.16083 4.592 0
      vertex -2.71932 4.28496 0
    endloop
  endfacet
  facet normal 0 0 -1
    outer loop
      vertex -2.16083 4.592 0
      vertex -2.90184 7.45848 0
      vertex -2.55176 7.38985 0
    endloop
  endfacet
  facet normal 0 0 -1
    outer loop
      vertex -4.15128 7.48871 0
      vertex -2.71932 4.28496 0
      vertex -3.23493 3.91035 0
    endloop
  endfacet
  facet normal 0 0 -1
    outer loop
      vertex -2.71932 4.28496 0
      vertex -3.25946 7.49966 0
      vertex -2.90184 7.45848 0
    endloop
  endfacet
  facet normal 0 0 -1
    outer loop
      vertex -2.71932 4.28496 0
      vertex -3.62462 7.5134 0
      vertex -3.25946 7.49966 0
    endloop
  endfacet
  facet normal 0 0 -1
    outer loop
      vertex -5.1282 7.2912 0
      vertex -3.23493 3.91035 0
      vertex -3.69952 3.47408 0
    endloop
  endfacet
  facet normal 0 0 -1
    outer loop
      vertex -5.1282 7.2912 0
      vertex -3.69952 3.47408 0
      vertex -4.10576 2.98301 0
    endloop
  endfacet
  facet normal 0 0 -1
    outer loop
      vertex -2.71932 4.28496 0
      vertex -4.15128 7.48871 0
      vertex -3.62462 7.5134 0
    endloop
  endfacet
  facet normal 0 0 -1
    outer loop
      vertex -5.1282 7.2912 0
      vertex -4.10576 2.98301 0
      vertex -4.44726 2.4449 0
    endloop
  endfacet
  facet normal 0 0 -1
    outer loop
      vertex -3.23493 3.91035 0
      vertex -4.65247 7.41464 0
      vertex -4.15128 7.48871 0
    endloop
  endfacet
  facet normal 0 0 -1
    outer loop
      vertex -5.1282 7.2912 0
      vertex -4.44726 2.4449 0
      vertex -4.71862 1.86823 0
    endloop
  endfacet
  facet normal 0 0 -1
    outer loop
      vertex -5.1282 7.2912 0
      vertex -4.71862 1.86823 0
      vertex -4.91556 1.2621 0
    endloop
  endfacet
  facet normal 0 0 -1
    outer loop
      vertex -5.1282 7.2912 0
      vertex -4.91556 1.2621 0
      vertex -5.03498 0.636065 0
    endloop
  endfacet
  facet normal 0 0 -1
    outer loop
      vertex -6.07292 -1.04965 0
      vertex -5.03498 -0.636065 0
      vertex -5.72992 -1.42584 0
    endloop
  endfacet
  facet normal 0 0 -1
    outer loop
      vertex -3.23493 3.91035 0
      vertex -5.1282 7.2912 0
      vertex -4.65247 7.41464 0
    endloop
  endfacet
  facet normal 0 0 1
    outer loop
      vertex 0.318662 5.06499 0
      vertex 0.303055 4.92027 0
      vertex 0.38322 5.05683 0
    endloop
  endfacet
  facet normal 0 -0 1
    outer loop
      vertex 0.303055 4.92027 0
      vertex 0.318662 5.06499 0
      vertex 0.254238 5.06499 0
    endloop
  endfacet
  facet normal -0.6837 0.728059 -0.0498391
    outer loop
      vertex -3.13931 3.79478 -3
      vertex -3.59017 3.37139 -3
      vertex -3.23493 3.91035 0
    endloop
  endfacet
  facet normal 0.683689 0.72807 -0.0498423
    outer loop
      vertex 3.59017 3.37139 -3
      vertex 3.23493 3.91035 0
      vertex 3.69952 3.47408 0
    endloop
  endfacet
  facet normal 0.996786 0.0627159 -0.0498402
    outer loop
      vertex 5.075 0 0
      vertex 4.88616 0.617266 -3
      vertex 5.03498 0.636065 0
    endloop
  endfacet
  facet normal 0.949875 -0.308631 -0.0498406
    outer loop
      vertex 4.71862 -1.86823 0
      vertex 4.57915 -1.81301 -3
      vertex 4.77027 -1.2248 -3
    endloop
  endfacet
  facet normal 0.367669 -0.92862 -0.0498395
    outer loop
      vertex 1.56826 -4.82661 0
      vertex 1.52191 -4.68395 -3
      vertex 2.09696 -4.45627 -3
    endloop
  endfacet
  facet normal -0.903703 -0.42525 -0.0498401
    outer loop
      vertex -4.44726 -2.4449 0
      vertex -4.71862 -1.86823 0
      vertex -4.31581 -2.37264 -3
    endloop
  endfacet
  facet normal -0.996786 0.0627159 -0.0498402
    outer loop
      vertex -4.88616 0.617266 -3
      vertex -5.075 0 0
      vertex -5.03498 0.636065 0
    endloop
  endfacet
  facet normal -0.903704 0.425248 -0.0498406
    outer loop
      vertex -4.57915 1.81301 -3
      vertex -4.71862 1.86823 0
      vertex -4.31581 2.37264 -3
    endloop
  endfacet
  facet normal -0.367669 0.92862 -0.0498395
    outer loop
      vertex -1.52191 4.68395 -3
      vertex -2.09696 4.45627 -3
      vertex -1.56826 4.82661 0
    endloop
  endfacet
  facet normal 0.248378 0.96738 -0.0498415
    outer loop
      vertex 1.52191 4.68395 -3
      vertex 0.922853 4.83776 -3
      vertex 0.95096 4.98511 0
    endloop
  endfacet
  facet normal 0.125182 0.990881 -0.0498416
    outer loop
      vertex 0.922853 4.83776 -3
      vertex 0.309243 4.91528 -3
      vertex 0.95096 4.98511 0
    endloop
  endfacet
  facet normal 0.903704 0.425248 -0.0498406
    outer loop
      vertex 4.57915 1.81301 -3
      vertex 4.31581 2.37264 -3
      vertex 4.71862 1.86823 0
    endloop
  endfacet
  facet normal 0.949875 0.308631 -0.0498406
    outer loop
      vertex 4.77027 1.2248 -3
      vertex 4.57915 1.81301 -3
      vertex 4.71862 1.86823 0
    endloop
  endfacet
  facet normal 0.981067 0.187145 -0.0498402
    outer loop
      vertex 5.03498 0.636065 0
      vertex 4.88616 0.617266 -3
      vertex 4.91556 1.2621 0
    endloop
  endfacet
  facet normal 0.996786 -0.0627204 -0.0498393
    outer loop
      vertex 5.075 0 0
      vertex 4.88616 -0.617266 -3
      vertex 4.925 0 -3
    endloop
  endfacet
  facet normal 0.843275 -0.535167 -0.049839
    outer loop
      vertex 4.10576 -2.98301 0
      vertex 3.98441 -2.89484 -3
      vertex 4.44726 -2.4449 0
    endloop
  endfacet
  facet normal 0.903704 -0.425248 -0.0498406
    outer loop
      vertex 4.71862 -1.86823 0
      vertex 4.31581 -2.37264 -3
      vertex 4.57915 -1.81301 -3
    endloop
  endfacet
  facet normal 0.248387 -0.967378 -0.0498396
    outer loop
      vertex 1.56826 -4.82661 0
      vertex 0.95096 -4.98511 0
      vertex 1.52191 -4.68395 -3
    endloop
  endfacet
  facet normal 0.36766 -0.928624 -0.0498415
    outer loop
      vertex 2.16083 -4.592 0
      vertex 1.56826 -4.82661 0
      vertex 2.09696 -4.45627 -3
    endloop
  endfacet
  facet normal 0.481153 -0.875219 -0.0498416
    outer loop
      vertex 2.16083 -4.592 0
      vertex 2.09696 -4.45627 -3
      vertex 2.63895 -4.15831 -3
    endloop
  endfacet
  facet normal 0.125182 -0.990881 -0.0498416
    outer loop
      vertex 0.95096 -4.98511 0
      vertex 0.309243 -4.91528 -3
      vertex 0.922853 -4.83776 -3
    endloop
  endfacet
  facet normal 0.587052 -0.808014 -0.0498387
    outer loop
      vertex 3.23493 -3.91035 0
      vertex 2.63895 -4.15831 -3
      vertex 3.13931 -3.79478 -3
    endloop
  endfacet
  facet normal 0 0 -1
    outer loop
      vertex 4.88616 -0.617266 -3
      vertex 4.88616 0.617266 -3
      vertex 4.925 0 -3
    endloop
  endfacet
  facet normal 0 0 -1
    outer loop
      vertex 4.77027 -1.2248 -3
      vertex 4.88616 0.617266 -3
      vertex 4.88616 -0.617266 -3
    endloop
  endfacet
  facet normal 0 0 -1
    outer loop
      vertex 4.77027 -1.2248 -3
      vertex 4.77027 1.2248 -3
      vertex 4.88616 0.617266 -3
    endloop
  endfacet
  facet normal 0 0 -1
    outer loop
      vertex 4.57915 -1.81301 -3
      vertex 4.77027 1.2248 -3
      vertex 4.77027 -1.2248 -3
    endloop
  endfacet
  facet normal 0 0 -1
    outer loop
      vertex 4.57915 -1.81301 -3
      vertex 4.57915 1.81301 -3
      vertex 4.77027 1.2248 -3
    endloop
  endfacet
  facet normal 0 0 -1
    outer loop
      vertex 4.31581 -2.37264 -3
      vertex 4.57915 1.81301 -3
      vertex 4.57915 -1.81301 -3
    endloop
  endfacet
  facet normal 0 0 -1
    outer loop
      vertex 4.31581 -2.37264 -3
      vertex 4.31581 2.37264 -3
      vertex 4.57915 1.81301 -3
    endloop
  endfacet
  facet normal 0 0 -1
    outer loop
      vertex 3.98441 -2.89484 -3
      vertex 4.31581 2.37264 -3
      vertex 4.31581 -2.37264 -3
    endloop
  endfacet
  facet normal 0 0 -1
    outer loop
      vertex 3.98441 -2.89484 -3
      vertex 3.98441 2.89484 -3
      vertex 4.31581 2.37264 -3
    endloop
  endfacet
  facet normal 0 0 -1
    outer loop
      vertex 3.59017 -3.37139 -3
      vertex 3.98441 2.89484 -3
      vertex 3.98441 -2.89484 -3
    endloop
  endfacet
  facet normal 0 0 -1
    outer loop
      vertex 3.59017 -3.37139 -3
      vertex 3.59017 3.37139 -3
      vertex 3.98441 2.89484 -3
    endloop
  endfacet
  facet normal 0 0 -1
    outer loop
      vertex 3.13931 -3.79478 -3
      vertex 3.59017 3.37139 -3
      vertex 3.59017 -3.37139 -3
    endloop
  endfacet
  facet normal 0 0 -1
    outer loop
      vertex 3.13931 -3.79478 -3
      vertex 3.13931 3.79478 -3
      vertex 3.59017 3.37139 -3
    endloop
  endfacet
  facet normal 0 0 -1
    outer loop
      vertex 2.63895 -4.15831 -3
      vertex 3.13931 3.79478 -3
      vertex 3.13931 -3.79478 -3
    endloop
  endfacet
  facet normal 0 0 -1
    outer loop
      vertex 2.63895 -4.15831 -3
      vertex 2.63895 4.15831 -3
      vertex 3.13931 3.79478 -3
    endloop
  endfacet
  facet normal 0 0 -1
    outer loop
      vertex 2.09696 -4.45627 -3
      vertex 2.63895 4.15831 -3
      vertex 2.63895 -4.15831 -3
    endloop
  endfacet
  facet normal 0 0 -1
    outer loop
      vertex 2.09696 -4.45627 -3
      vertex 2.09696 4.45627 -3
      vertex 2.63895 4.15831 -3
    endloop
  endfacet
  facet normal 0 0 -1
    outer loop
      vertex 1.52191 -4.68395 -3
      vertex 2.09696 4.45627 -3
      vertex 2.09696 -4.45627 -3
    endloop
  endfacet
  facet normal 0 0 -1
    outer loop
      vertex 1.52191 -4.68395 -3
      vertex 1.52191 4.68395 -3
      vertex 2.09696 4.45627 -3
    endloop
  endfacet
  facet normal 0 0 -1
    outer loop
      vertex 0.922853 -4.83776 -3
      vertex 1.52191 4.68395 -3
      vertex 1.52191 -4.68395 -3
    endloop
  endfacet
  facet normal 0 0 -1
    outer loop
      vertex 0.922853 -4.83776 -3
      vertex 0.922853 4.83776 -3
      vertex 1.52191 4.68395 -3
    endloop
  endfacet
  facet normal 0 0 -1
    outer loop
      vertex 0.309243 -4.91528 -3
      vertex 0.922853 4.83776 -3
      vertex 0.922853 -4.83776 -3
    endloop
  endfacet
  facet normal 0 0 -1
    outer loop
      vertex 0.309243 -4.91528 -3
      vertex 0.309243 4.91528 -3
      vertex 0.922853 4.83776 -3
    endloop
  endfacet
  facet normal 0 0 -1
    outer loop
      vertex -0.309243 -4.91528 -3
      vertex 0.309243 4.91528 -3
      vertex 0.309243 -4.91528 -3
    endloop
  endfacet
  facet normal 0 0 -1
    outer loop
      vertex -0.309243 -4.91528 -3
      vertex -0.309243 4.91528 -3
      vertex 0.309243 4.91528 -3
    endloop
  endfacet
  facet normal 0 0 -1
    outer loop
      vertex -0.922853 -4.83776 -3
      vertex -0.309243 4.91528 -3
      vertex -0.309243 -4.91528 -3
    endloop
  endfacet
  facet normal 0 0 -1
    outer loop
      vertex -0.922853 -4.83776 -3
      vertex -0.922853 4.83776 -3
      vertex -0.309243 4.91528 -3
    endloop
  endfacet
  facet normal 0 0 -1
    outer loop
      vertex -1.52191 -4.68395 -3
      vertex -0.922853 4.83776 -3
      vertex -0.922853 -4.83776 -3
    endloop
  endfacet
  facet normal 0 0 -1
    outer loop
      vertex -1.52191 -4.68395 -3
      vertex -1.52191 4.68395 -3
      vertex -0.922853 4.83776 -3
    endloop
  endfacet
  facet normal 0 0 -1
    outer loop
      vertex -2.09696 -4.45627 -3
      vertex -1.52191 4.68395 -3
      vertex -1.52191 -4.68395 -3
    endloop
  endfacet
  facet normal 0 0 -1
    outer loop
      vertex -2.09696 -4.45627 -3
      vertex -2.09696 4.45627 -3
      vertex -1.52191 4.68395 -3
    endloop
  endfacet
  facet normal 0 0 -1
    outer loop
      vertex -2.63895 -4.15831 -3
      vertex -2.09696 4.45627 -3
      vertex -2.09696 -4.45627 -3
    endloop
  endfacet
  facet normal 0 0 -1
    outer loop
      vertex -2.63895 -4.15831 -3
      vertex -2.63895 4.15831 -3
      vertex -2.09696 4.45627 -3
    endloop
  endfacet
  facet normal 0 0 -1
    outer loop
      vertex -3.13931 -3.79478 -3
      vertex -2.63895 4.15831 -3
      vertex -2.63895 -4.15831 -3
    endloop
  endfacet
  facet normal 0 0 -1
    outer loop
      vertex -3.13931 -3.79478 -3
      vertex -3.13931 3.79478 -3
      vertex -2.63895 4.15831 -3
    endloop
  endfacet
  facet normal 0 0 -1
    outer loop
      vertex -3.59017 -3.37139 -3
      vertex -3.13931 3.79478 -3
      vertex -3.13931 -3.79478 -3
    endloop
  endfacet
  facet normal 0 0 -1
    outer loop
      vertex -3.59017 -3.37139 -3
      vertex -3.59017 3.37139 -3
      vertex -3.13931 3.79478 -3
    endloop
  endfacet
  facet normal 0 0 -1
    outer loop
      vertex -3.98441 -2.89484 -3
      vertex -3.59017 3.37139 -3
      vertex -3.59017 -3.37139 -3
    endloop
  endfacet
  facet normal 0 0 -1
    outer loop
      vertex -3.98441 -2.89484 -3
      vertex -3.98441 2.89484 -3
      vertex -3.59017 3.37139 -3
    endloop
  endfacet
  facet normal 0 0 -1
    outer loop
      vertex -4.31581 -2.37264 -3
      vertex -3.98441 2.89484 -3
      vertex -3.98441 -2.89484 -3
    endloop
  endfacet
  facet normal 0 0 -1
    outer loop
      vertex -4.31581 -2.37264 -3
      vertex -4.31581 2.37264 -3
      vertex -3.98441 2.89484 -3
    endloop
  endfacet
  facet normal 0 0 -1
    outer loop
      vertex -4.57915 -1.81301 -3
      vertex -4.31581 2.37264 -3
      vertex -4.31581 -2.37264 -3
    endloop
  endfacet
  facet normal 0 0 -1
    outer loop
      vertex -4.57915 -1.81301 -3
      vertex -4.57915 1.81301 -3
      vertex -4.31581 2.37264 -3
    endloop
  endfacet
  facet normal 0 0 -1
    outer loop
      vertex -4.77027 -1.2248 -3
      vertex -4.57915 1.81301 -3
      vertex -4.57915 -1.81301 -3
    endloop
  endfacet
  facet normal 0 0 -1
    outer loop
      vertex -4.77027 -1.2248 -3
      vertex -4.77027 1.2248 -3
      vertex -4.57915 1.81301 -3
    endloop
  endfacet
  facet normal 0 0 -1
    outer loop
      vertex -4.88616 -0.617266 -3
      vertex -4.77027 1.2248 -3
      vertex -4.77027 -1.2248 -3
    endloop
  endfacet
  facet normal 0 0 -1
    outer loop
      vertex -4.88616 -0.617266 -3
      vertex -4.88616 0.617266 -3
      vertex -4.77027 1.2248 -3
    endloop
  endfacet
  facet normal 0 -0 -1
    outer loop
      vertex -4.88616 0.617266 -3
      vertex -4.88616 -0.617266 -3
      vertex -4.925 0 -3
    endloop
  endfacet
  facet normal -0.981067 0.187145 -0.0498402
    outer loop
      vertex -4.88616 0.617266 -3
      vertex -5.03498 0.636065 0
      vertex -4.91556 1.2621 0
    endloop
  endfacet
  facet normal 0 0.998757 -0.0498413
    outer loop
      vertex 0.309243 4.91528 -3
      vertex 0.254238 5.06499 0
      vertex 0.318662 5.06499 0
    endloop
  endfacet
  facet normal 0 0.998757 -0.0498413
    outer loop
      vertex -0.309243 4.91528 -3
      vertex 0.254238 5.06499 0
      vertex 0.309243 4.91528 -3
    endloop
  endfacet
  facet normal 0 0.998757 -0.0498413
    outer loop
      vertex 0.254238 5.06499 0
      vertex -0.309243 4.91528 -3
      vertex -0.318662 5.06499 0
    endloop
  endfacet
  facet normal -0.36766 0.928624 -0.0498415
    outer loop
      vertex -2.09696 4.45627 -3
      vertex -2.16083 4.592 0
      vertex -1.56826 4.82661 0
    endloop
  endfacet
  facet normal 0.36766 0.928624 -0.0498415
    outer loop
      vertex 2.09696 4.45627 -3
      vertex 1.56826 4.82661 0
      vertex 2.16083 4.592 0
    endloop
  endfacet
  facet normal 0.248387 0.967378 -0.0498396
    outer loop
      vertex 1.52191 4.68395 -3
      vertex 0.95096 4.98511 0
      vertex 1.56826 4.82661 0
    endloop
  endfacet
  facet normal 0.769562 0.636624 -0.0498392
    outer loop
      vertex 3.98441 2.89484 -3
      vertex 3.69952 3.47408 0
      vertex 4.10576 2.98301 0
    endloop
  endfacet
  facet normal 0.843277 0.535163 -0.0498399
    outer loop
      vertex 4.31581 2.37264 -3
      vertex 3.98441 2.89484 -3
      vertex 4.44726 2.4449 0
    endloop
  endfacet
  facet normal 0.843275 0.535167 -0.049839
    outer loop
      vertex 4.44726 2.4449 0
      vertex 3.98441 2.89484 -3
      vertex 4.10576 2.98301 0
    endloop
  endfacet
  facet normal 0.903703 0.42525 -0.0498401
    outer loop
      vertex 4.71862 1.86823 0
      vertex 4.31581 2.37264 -3
      vertex 4.44726 2.4449 0
    endloop
  endfacet
  facet normal 0.949876 0.308628 -0.0498398
    outer loop
      vertex 4.77027 1.2248 -3
      vertex 4.71862 1.86823 0
      vertex 4.91556 1.2621 0
    endloop
  endfacet
  facet normal 0.981067 0.187143 -0.0498399
    outer loop
      vertex 4.88616 0.617266 -3
      vertex 4.77027 1.2248 -3
      vertex 4.91556 1.2621 0
    endloop
  endfacet
  facet normal 0.981067 -0.187145 -0.0498402
    outer loop
      vertex 4.91556 -1.2621 0
      vertex 4.88616 -0.617266 -3
      vertex 5.03498 -0.636065 0
    endloop
  endfacet
  facet normal 0.843277 -0.535163 -0.0498399
    outer loop
      vertex 4.44726 -2.4449 0
      vertex 3.98441 -2.89484 -3
      vertex 4.31581 -2.37264 -3
    endloop
  endfacet
  facet normal 0.903703 -0.42525 -0.0498401
    outer loop
      vertex 4.44726 -2.4449 0
      vertex 4.31581 -2.37264 -3
      vertex 4.71862 -1.86823 0
    endloop
  endfacet
  facet normal 0.769562 -0.636624 -0.0498392
    outer loop
      vertex 4.10576 -2.98301 0
      vertex 3.69952 -3.47408 0
      vertex 3.98441 -2.89484 -3
    endloop
  endfacet
  facet normal 0.769553 -0.636635 -0.0498422
    outer loop
      vertex 3.69952 -3.47408 0
      vertex 3.59017 -3.37139 -3
      vertex 3.98441 -2.89484 -3
    endloop
  endfacet
  facet normal 0.125181 -0.990881 -0.0498413
    outer loop
      vertex 0.318662 -5.06499 0
      vertex 0.309243 -4.91528 -3
      vertex 0.95096 -4.98511 0
    endloop
  endfacet
  facet normal 0.481164 -0.875213 -0.0498389
    outer loop
      vertex 2.71932 -4.28496 0
      vertex 2.16083 -4.592 0
      vertex 2.63895 -4.15831 -3
    endloop
  endfacet
  facet normal 0.587052 -0.808014 -0.0498388
    outer loop
      vertex 2.71932 -4.28496 0
      vertex 2.63895 -4.15831 -3
      vertex 3.23493 -3.91035 0
    endloop
  endfacet
  facet normal 0.6837 -0.728059 -0.0498391
    outer loop
      vertex 3.23493 -3.91035 0
      vertex 3.13931 -3.79478 -3
      vertex 3.59017 -3.37139 -3
    endloop
  endfacet
  facet normal -0.981067 -0.187145 -0.0498402
    outer loop
      vertex -4.91556 -1.2621 0
      vertex -5.03498 -0.636065 0
      vertex -4.88616 -0.617266 -3
    endloop
  endfacet
  facet normal -0.996786 -0.0627159 -0.0498402
    outer loop
      vertex -5.03498 -0.636065 0
      vertex -5.075 0 0
      vertex -4.88616 -0.617266 -3
    endloop
  endfacet
  facet normal -0.481153 -0.875219 -0.0498416
    outer loop
      vertex -2.16083 -4.592 0
      vertex -2.63895 -4.15831 -3
      vertex -2.09696 -4.45627 -3
    endloop
  endfacet
  facet normal -0.36766 -0.928624 -0.0498415
    outer loop
      vertex -1.56826 -4.82661 0
      vertex -2.16083 -4.592 0
      vertex -2.09696 -4.45627 -3
    endloop
  endfacet
  facet normal -0.769553 -0.636635 -0.0498422
    outer loop
      vertex -3.69952 -3.47408 0
      vertex -3.98441 -2.89484 -3
      vertex -3.59017 -3.37139 -3
    endloop
  endfacet
  facet normal -0.843277 -0.535163 -0.0498399
    outer loop
      vertex -3.98441 -2.89484 -3
      vertex -4.44726 -2.4449 0
      vertex -4.31581 -2.37264 -3
    endloop
  endfacet
  facet normal -0.996786 0.0627204 -0.0498393
    outer loop
      vertex -4.925 0 -3
      vertex -5.075 0 0
      vertex -4.88616 0.617266 -3
    endloop
  endfacet
  facet normal -0.587052 0.808014 -0.0498388
    outer loop
      vertex -2.63895 4.15831 -3
      vertex -3.23493 3.91035 0
      vertex -2.71932 4.28496 0
    endloop
  endfacet
  facet normal -0.843277 0.535163 -0.0498399
    outer loop
      vertex -4.31581 2.37264 -3
      vertex -4.44726 2.4449 0
      vertex -3.98441 2.89484 -3
    endloop
  endfacet
  facet normal -0.769562 0.636624 -0.0498392
    outer loop
      vertex -3.98441 2.89484 -3
      vertex -4.10576 2.98301 0
      vertex -3.69952 3.47408 0
    endloop
  endfacet
  facet normal -0.903703 0.42525 -0.0498401
    outer loop
      vertex -4.31581 2.37264 -3
      vertex -4.71862 1.86823 0
      vertex -4.44726 2.4449 0
    endloop
  endfacet
  facet normal 0.481153 0.875219 -0.0498416
    outer loop
      vertex 2.63895 4.15831 -3
      vertex 2.09696 4.45627 -3
      vertex 2.16083 4.592 0
    endloop
  endfacet
  facet normal 0.367669 0.92862 -0.0498395
    outer loop
      vertex 2.09696 4.45627 -3
      vertex 1.52191 4.68395 -3
      vertex 1.56826 4.82661 0
    endloop
  endfacet
  facet normal 0.769553 0.636635 -0.0498422
    outer loop
      vertex 3.98441 2.89484 -3
      vertex 3.59017 3.37139 -3
      vertex 3.69952 3.47408 0
    endloop
  endfacet
  facet normal 0.981067 -0.187143 -0.0498399
    outer loop
      vertex 4.91556 -1.2621 0
      vertex 4.77027 -1.2248 -3
      vertex 4.88616 -0.617266 -3
    endloop
  endfacet
  facet normal 0.949876 -0.308628 -0.0498398
    outer loop
      vertex 4.91556 -1.2621 0
      vertex 4.71862 -1.86823 0
      vertex 4.77027 -1.2248 -3
    endloop
  endfacet
  facet normal 0.248378 -0.96738 -0.0498415
    outer loop
      vertex 0.95096 -4.98511 0
      vertex 0.922853 -4.83776 -3
      vertex 1.52191 -4.68395 -3
    endloop
  endfacet
  facet normal -0.949875 -0.308631 -0.0498406
    outer loop
      vertex -4.71862 -1.86823 0
      vertex -4.77027 -1.2248 -3
      vertex -4.57915 -1.81301 -3
    endloop
  endfacet
  facet normal -0.125182 -0.990881 -0.0498416
    outer loop
      vertex -0.309243 -4.91528 -3
      vertex -0.95096 -4.98511 0
      vertex -0.922853 -4.83776 -3
    endloop
  endfacet
  facet normal -0.125181 -0.990881 -0.0498413
    outer loop
      vertex -0.318662 -5.06499 0
      vertex -0.95096 -4.98511 0
      vertex -0.309243 -4.91528 -3
    endloop
  endfacet
  facet normal -0.481164 -0.875213 -0.0498389
    outer loop
      vertex -2.16083 -4.592 0
      vertex -2.71932 -4.28496 0
      vertex -2.63895 -4.15831 -3
    endloop
  endfacet
  facet normal -0.6837 -0.728059 -0.0498391
    outer loop
      vertex -3.23493 -3.91035 0
      vertex -3.59017 -3.37139 -3
      vertex -3.13931 -3.79478 -3
    endloop
  endfacet
  facet normal -0.683689 -0.72807 -0.0498423
    outer loop
      vertex -3.23493 -3.91035 0
      vertex -3.69952 -3.47408 0
      vertex -3.59017 -3.37139 -3
    endloop
  endfacet
  facet normal -0.843275 -0.535167 -0.049839
    outer loop
      vertex -4.10576 -2.98301 0
      vertex -4.44726 -2.4449 0
      vertex -3.98441 -2.89484 -3
    endloop
  endfacet
  facet normal -0.769562 -0.636624 -0.0498392
    outer loop
      vertex -3.69952 -3.47408 0
      vertex -4.10576 -2.98301 0
      vertex -3.98441 -2.89484 -3
    endloop
  endfacet
  facet normal -0.981067 0.187143 -0.0498399
    outer loop
      vertex -4.88616 0.617266 -3
      vertex -4.91556 1.2621 0
      vertex -4.77027 1.2248 -3
    endloop
  endfacet
  facet normal -0.949876 0.308628 -0.0498398
    outer loop
      vertex -4.77027 1.2248 -3
      vertex -4.91556 1.2621 0
      vertex -4.71862 1.86823 0
    endloop
  endfacet
  facet normal -0.125181 0.990881 -0.0498413
    outer loop
      vertex -0.309243 4.91528 -3
      vertex -0.95096 4.98511 0
      vertex -0.318662 5.06499 0
    endloop
  endfacet
  facet normal -0.248378 0.96738 -0.0498415
    outer loop
      vertex -0.922853 4.83776 -3
      vertex -1.52191 4.68395 -3
      vertex -0.95096 4.98511 0
    endloop
  endfacet
  facet normal -0.481164 0.875213 -0.0498389
    outer loop
      vertex -2.63895 4.15831 -3
      vertex -2.71932 4.28496 0
      vertex -2.16083 4.592 0
    endloop
  endfacet
  facet normal -0.481153 0.875219 -0.0498416
    outer loop
      vertex -2.09696 4.45627 -3
      vertex -2.63895 4.15831 -3
      vertex -2.16083 4.592 0
    endloop
  endfacet
  facet normal -0.843275 0.535167 -0.049839
    outer loop
      vertex -3.98441 2.89484 -3
      vertex -4.44726 2.4449 0
      vertex -4.10576 2.98301 0
    endloop
  endfacet
  facet normal -0.683689 0.72807 -0.0498423
    outer loop
      vertex -3.59017 3.37139 -3
      vertex -3.69952 3.47408 0
      vertex -3.23493 3.91035 0
    endloop
  endfacet
  facet normal 0.587052 0.808014 -0.0498388
    outer loop
      vertex 3.23493 3.91035 0
      vertex 2.63895 4.15831 -3
      vertex 2.71932 4.28496 0
    endloop
  endfacet
  facet normal 0.481164 0.875213 -0.0498389
    outer loop
      vertex 2.63895 4.15831 -3
      vertex 2.16083 4.592 0
      vertex 2.71932 4.28496 0
    endloop
  endfacet
  facet normal 0.587052 0.808014 -0.0498387
    outer loop
      vertex 3.13931 3.79478 -3
      vertex 2.63895 4.15831 -3
      vertex 3.23493 3.91035 0
    endloop
  endfacet
  facet normal 0.6837 0.728059 -0.0498391
    outer loop
      vertex 3.59017 3.37139 -3
      vertex 3.13931 3.79478 -3
      vertex 3.23493 3.91035 0
    endloop
  endfacet
  facet normal -0.981067 -0.187143 -0.0498399
    outer loop
      vertex -4.77027 -1.2248 -3
      vertex -4.91556 -1.2621 0
      vertex -4.88616 -0.617266 -3
    endloop
  endfacet
  facet normal -0.949876 -0.308628 -0.0498398
    outer loop
      vertex -4.71862 -1.86823 0
      vertex -4.91556 -1.2621 0
      vertex -4.77027 -1.2248 -3
    endloop
  endfacet
  facet normal -0.903704 -0.425248 -0.0498406
    outer loop
      vertex -4.31581 -2.37264 -3
      vertex -4.71862 -1.86823 0
      vertex -4.57915 -1.81301 -3
    endloop
  endfacet
  facet normal -0.367669 -0.92862 -0.0498395
    outer loop
      vertex -1.56826 -4.82661 0
      vertex -2.09696 -4.45627 -3
      vertex -1.52191 -4.68395 -3
    endloop
  endfacet
  facet normal -0.587052 -0.808014 -0.0498388
    outer loop
      vertex -2.71932 -4.28496 0
      vertex -3.23493 -3.91035 0
      vertex -2.63895 -4.15831 -3
    endloop
  endfacet
  facet normal -0.587052 -0.808014 -0.0498387
    outer loop
      vertex -2.63895 -4.15831 -3
      vertex -3.23493 -3.91035 0
      vertex -3.13931 -3.79478 -3
    endloop
  endfacet
  facet normal -0.949875 0.308631 -0.0498406
    outer loop
      vertex -4.57915 1.81301 -3
      vertex -4.77027 1.2248 -3
      vertex -4.71862 1.86823 0
    endloop
  endfacet
  facet normal -0.248387 0.967378 -0.0498396
    outer loop
      vertex -1.52191 4.68395 -3
      vertex -1.56826 4.82661 0
      vertex -0.95096 4.98511 0
    endloop
  endfacet
  facet normal -0.125182 0.990881 -0.0498416
    outer loop
      vertex -0.922853 4.83776 -3
      vertex -0.95096 4.98511 0
      vertex -0.309243 4.91528 -3
    endloop
  endfacet
  facet normal -0.587052 0.808014 -0.0498387
    outer loop
      vertex -3.13931 3.79478 -3
      vertex -3.23493 3.91035 0
      vertex -2.63895 4.15831 -3
    endloop
  endfacet
  facet normal -0.769553 0.636635 -0.0498422
    outer loop
      vertex -3.59017 3.37139 -3
      vertex -3.98441 2.89484 -3
      vertex -3.69952 3.47408 0
    endloop
  endfacet
  facet normal -0.248378 -0.96738 -0.0498415
    outer loop
      vertex -0.95096 -4.98511 0
      vertex -1.52191 -4.68395 -3
      vertex -0.922853 -4.83776 -3
    endloop
  endfacet
  facet normal -0.248387 -0.967378 -0.0498396
    outer loop
      vertex -0.95096 -4.98511 0
      vertex -1.56826 -4.82661 0
      vertex -1.52191 -4.68395 -3
    endloop
  endfacet
  facet normal 0 0 1
    outer loop
      vertex -0.802902 -6.98917 2
      vertex -3.10818 -6.03337 2
      vertex -3.08206 -6.60243 2
    endloop
  endfacet
  facet normal 0 0 1
    outer loop
      vertex 0.303055 4.92027 2
      vertex -3.18657 -5.47935 2
      vertex -3.10818 -6.03337 2
    endloop
  endfacet
  facet normal 0 0 1
    outer loop
      vertex -3.62462 7.5134 2
      vertex 0.303055 4.92027 2
      vertex -3.25946 7.49966 2
    endloop
  endfacet
  facet normal 0 0 1
    outer loop
      vertex 0.303055 4.92027 2
      vertex -3.31721 -4.94038 2
      vertex -3.18657 -5.47935 2
    endloop
  endfacet
  facet normal 0 0 1
    outer loop
      vertex 0.303055 4.92027 2
      vertex -3.50012 -4.41647 2
      vertex -3.31721 -4.94038 2
    endloop
  endfacet
  facet normal 0 0 1
    outer loop
      vertex -8.01448 2.67751 2
      vertex 0.303055 4.92027 2
      vertex -3.62462 7.5134 2
    endloop
  endfacet
  facet normal 0 0 1
    outer loop
      vertex 0.303055 4.92027 2
      vertex -3.73528 -3.90762 2
      vertex -3.50012 -4.41647 2
    endloop
  endfacet
  facet normal 0 0 1
    outer loop
      vertex 0.303055 4.92027 2
      vertex -4.02271 -3.41382 2
      vertex -3.73528 -3.90762 2
    endloop
  endfacet
  facet normal 0 0 1
    outer loop
      vertex -8.01448 2.67751 2
      vertex -3.62462 7.5134 2
      vertex -4.15128 7.48871 2
    endloop
  endfacet
  facet normal 0 0 1
    outer loop
      vertex 0.303055 4.92027 2
      vertex -4.36238 -2.93507 2
      vertex -4.02271 -3.41382 2
    endloop
  endfacet
  facet normal 0 0 1
    outer loop
      vertex -8.04062 3.21692 2
      vertex -4.15128 7.48871 2
      vertex -4.65247 7.41464 2
    endloop
  endfacet
  facet normal 0 0 1
    outer loop
      vertex 0.303055 4.92027 2
      vertex -4.70358 -2.5571 2
      vertex -4.36238 -2.93507 2
    endloop
  endfacet
  facet normal 0 0 1
    outer loop
      vertex 0.303055 4.92027 2
      vertex -5.04524 -2.17957 2
      vertex -4.70358 -2.5571 2
    endloop
  endfacet
  facet normal 0 0 1
    outer loop
      vertex -8.04062 3.21692 2
      vertex -4.65247 7.41464 2
      vertex -5.1282 7.2912 2
    endloop
  endfacet
  facet normal 0 0 1
    outer loop
      vertex 0.303055 4.92027 2
      vertex -5.38734 -1.80249 2
      vertex -5.04524 -2.17957 2
    endloop
  endfacet
  facet normal 0 0 1
    outer loop
      vertex -8.04062 3.21692 2
      vertex -5.1282 7.2912 2
      vertex -5.57849 7.11836 2
    endloop
  endfacet
  facet normal 0 0 1
    outer loop
      vertex 0.303055 4.92027 2
      vertex -5.72992 -1.42584 2
      vertex -5.38734 -1.80249 2
    endloop
  endfacet
  facet normal 0 0 1
    outer loop
      vertex -8.04062 3.21692 2
      vertex -5.57849 7.11836 2
      vertex -6.00333 6.89616 2
    endloop
  endfacet
  facet normal 0 0 1
    outer loop
      vertex 0.303055 4.92027 2
      vertex -6.07292 -1.04965 2
      vertex -5.72992 -1.42584 2
    endloop
  endfacet
  facet normal 0 0 1
    outer loop
      vertex -8.04062 3.21692 2
      vertex -6.00333 6.89616 2
      vertex -6.40269 6.62459 2
    endloop
  endfacet
  facet normal 0 0 1
    outer loop
      vertex 0.303055 4.92027 2
      vertex -6.41638 -0.673904 2
      vertex -6.07292 -1.04965 2
    endloop
  endfacet
  facet normal 0 0 1
    outer loop
      vertex 0.303055 4.92027 2
      vertex -6.7603 -0.298615 2
      vertex -6.41638 -0.673904 2
    endloop
  endfacet
  facet normal 0 0 1
    outer loop
      vertex -8.01482 3.73956 2
      vertex -6.40269 6.62459 2
      vertex -6.77661 6.30363 2
    endloop
  endfacet
  facet normal 0 0 1
    outer loop
      vertex 0.303055 4.92027 2
      vertex -7.09998 0.166428 2
      vertex -6.7603 -0.298615 2
    endloop
  endfacet
  facet normal 0 0 1
    outer loop
      vertex -8.01482 3.73956 2
      vertex -6.77661 6.30363 2
      vertex -7.11197 5.94437 2
    endloop
  endfacet
  facet normal 0 0 1
    outer loop
      vertex 0.303055 4.92027 2
      vertex -7.38739 0.643845 2
      vertex -7.09998 0.166428 2
    endloop
  endfacet
  facet normal 0 0 1
    outer loop
      vertex -8.01482 3.73956 2
      vertex -7.11197 5.94437 2
      vertex -7.39572 5.55788 2
    endloop
  endfacet
  facet normal 0 0 1
    outer loop
      vertex 0.303055 4.92027 2
      vertex -7.62256 1.13367 2
      vertex -7.38739 0.643845 2
    endloop
  endfacet
  facet normal 0 0 1
    outer loop
      vertex -8.01482 3.73956 2
      vertex -7.39572 5.55788 2
      vertex -7.62788 5.14415 2
    endloop
  endfacet
  facet normal 0 0 1
    outer loop
      vertex 0.303055 4.92027 2
      vertex -7.80545 1.63589 2
      vertex -7.62256 1.13367 2
    endloop
  endfacet
  facet normal 0 0 1
    outer loop
      vertex -8.01482 3.73956 2
      vertex -7.62788 5.14415 2
      vertex -7.80846 4.70319 2
    endloop
  endfacet
  facet normal 0 0 1
    outer loop
      vertex 0.303055 4.92027 2
      vertex -7.9361 2.1505 2
      vertex -7.80545 1.63589 2
    endloop
  endfacet
  facet normal 0 0 1
    outer loop
      vertex -8.01482 3.73956 2
      vertex -7.80846 4.70319 2
      vertex -7.93744 4.235 2
    endloop
  endfacet
  facet normal 0 0 1
    outer loop
      vertex 0.303055 4.92027 2
      vertex -8.01448 2.67751 2
      vertex -7.9361 2.1505 2
    endloop
  endfacet
  facet normal 0 0 1
    outer loop
      vertex -6.40269 6.62459 2
      vertex -8.01482 3.73956 2
      vertex -8.04062 3.21692 2
    endloop
  endfacet
  facet normal 0 0 1
    outer loop
      vertex -4.15128 7.48871 2
      vertex -8.04062 3.21692 2
      vertex -8.01448 2.67751 2
    endloop
  endfacet
  facet normal 0 0 1
    outer loop
      vertex 7.60977 6.0363 2
      vertex 8.61424 3.48811 2
      vertex 8.58635 3.96704 2
    endloop
  endfacet
  facet normal 0 0 1
    outer loop
      vertex 7.60977 6.0363 2
      vertex 8.58635 3.96704 2
      vertex 8.50264 4.42429 2
    endloop
  endfacet
  facet normal 0 0 1
    outer loop
      vertex 7.60977 6.0363 2
      vertex 8.50264 4.42429 2
      vertex 8.36313 4.85983 2
    endloop
  endfacet
  facet normal 0 0 1
    outer loop
      vertex 7.24706 6.38507 2
      vertex 8.61424 3.48811 2
      vertex 7.60977 6.0363 2
    endloop
  endfacet
  facet normal 0 0 1
    outer loop
      vertex 7.9167 5.66585 2
      vertex 8.36313 4.85983 2
      vertex 8.16782 5.27368 2
    endloop
  endfacet
  facet normal 0 0 1
    outer loop
      vertex 7.60977 6.0363 2
      vertex 8.36313 4.85983 2
      vertex 7.9167 5.66585 2
    endloop
  endfacet
  facet normal 0 0 1
    outer loop
      vertex 8.61424 3.48811 2
      vertex 7.24706 6.38507 2
      vertex 8.52545 2.49323 2
    endloop
  endfacet
  facet normal 0 0 1
    outer loop
      vertex 6.86621 6.68442 2
      vertex 8.52545 2.49323 2
      vertex 7.24706 6.38507 2
    endloop
  endfacet
  facet normal 0 0 1
    outer loop
      vertex 6.46767 6.93771 2
      vertex 8.52545 2.49323 2
      vertex 6.86621 6.68442 2
    endloop
  endfacet
  facet normal 0 0 1
    outer loop
      vertex 6.05139 7.14496 2
      vertex 8.52545 2.49323 2
      vertex 6.46767 6.93771 2
    endloop
  endfacet
  facet normal -0 0 1
    outer loop
      vertex 0.303055 4.92027 2
      vertex 8.25908 1.4926 2
      vertex 0.706924 5.60825 2
    endloop
  endfacet
  facet normal 0 0 1
    outer loop
      vertex 5.6174 7.30615 2
      vertex 8.52545 2.49323 2
      vertex 6.05139 7.14496 2
    endloop
  endfacet
  facet normal 0 0 1
    outer loop
      vertex 7.81511 0.486191 2
      vertex 0.303055 4.92027 2
      vertex 7.19356 -0.525955 2
    endloop
  endfacet
  facet normal 0 0 1
    outer loop
      vertex 5.1657 7.42128 2
      vertex 8.52545 2.49323 2
      vertex 5.6174 7.30615 2
    endloop
  endfacet
  facet normal 0 0 1
    outer loop
      vertex 8.52545 2.49323 2
      vertex 0.706924 5.60825 2
      vertex 8.25908 1.4926 2
    endloop
  endfacet
  facet normal 0 0 1
    outer loop
      vertex 7.19356 -0.525955 2
      vertex 0.303055 4.92027 2
      vertex 6.39441 -1.54387 2
    endloop
  endfacet
  facet normal 0 0 1
    outer loop
      vertex 8.52545 2.49323 2
      vertex 5.1657 7.42128 2
      vertex 0.706924 5.60825 2
    endloop
  endfacet
  facet normal 0 0 1
    outer loop
      vertex 0.706924 5.60825 2
      vertex 5.1657 7.42128 2
      vertex 4.69627 7.49037 2
    endloop
  endfacet
  facet normal 0 0 1
    outer loop
      vertex 6.39441 -1.54387 2
      vertex 0.303055 4.92027 2
      vertex 5.41768 -2.56755 2
    endloop
  endfacet
  facet normal 0 0 1
    outer loop
      vertex 0.706924 5.60825 2
      vertex 4.69627 7.49037 2
      vertex 4.20912 7.5134 2
    endloop
  endfacet
  facet normal 0 0 1
    outer loop
      vertex 1.16219 6.19037 2
      vertex 4.20912 7.5134 2
      vertex 3.49699 7.46046 2
    endloop
  endfacet
  facet normal 0 0 1
    outer loop
      vertex 5.41768 -2.56755 2
      vertex 0.303055 4.92027 2
      vertex 4.26337 -3.59698 2
    endloop
  endfacet
  facet normal 0 0 1
    outer loop
      vertex 1.16219 6.19037 2
      vertex 3.49699 7.46046 2
      vertex 2.83623 7.30171 2
    endloop
  endfacet
  facet normal 0 0 1
    outer loop
      vertex 4.26337 -3.59698 2
      vertex 0.303055 4.92027 2
      vertex 3.36879 -4.30554 2
    endloop
  endfacet
  facet normal 0 0 1
    outer loop
      vertex 1.16219 6.19037 2
      vertex 2.83623 7.30171 2
      vertex 2.22684 7.03711 2
    endloop
  endfacet
  facet normal 0 0 1
    outer loop
      vertex 1.16219 6.19037 2
      vertex 2.22684 7.03711 2
      vertex 1.66882 6.66666 2
    endloop
  endfacet
  facet normal 0 0 1
    outer loop
      vertex 3.36879 -4.30554 2
      vertex 0.303055 4.92027 2
      vertex 2.41487 -4.99902 2
    endloop
  endfacet
  facet normal 0 0 1
    outer loop
      vertex 4.20912 7.5134 2
      vertex 1.16219 6.19037 2
      vertex 0.706924 5.60825 2
    endloop
  endfacet
  facet normal 0 0 1
    outer loop
      vertex 8.25908 1.4926 2
      vertex 0.303055 4.92027 2
      vertex 7.81511 0.486191 2
    endloop
  endfacet
  facet normal 0 0 1
    outer loop
      vertex 2.41487 -4.99902 2
      vertex 0.303055 4.92027 2
      vertex 1.40161 -5.67746 2
    endloop
  endfacet
  facet normal 0 0 1
    outer loop
      vertex -3.10818 -6.03337 2
      vertex 1.40161 -5.67746 2
      vertex 0.303055 4.92027 2
    endloop
  endfacet
  facet normal 0 0 1
    outer loop
      vertex -0.900543 6.62088 2
      vertex 0.303055 4.92027 2
      vertex 0.192123 5.24911 2
    endloop
  endfacet
  facet normal 0 0 1
    outer loop
      vertex -0.900543 6.62088 2
      vertex 0.192123 5.24911 2
      vertex 0.0453339 5.55978 2
    endloop
  endfacet
  facet normal 0 0 1
    outer loop
      vertex -0.900543 6.62088 2
      vertex 0.0453339 5.55978 2
      vertex -0.137314 5.85231 2
    endloop
  endfacet
  facet normal 0 0 1
    outer loop
      vertex -0.900543 6.62088 2
      vertex -0.137314 5.85231 2
      vertex -0.35585 6.12666 2
    endloop
  endfacet
  facet normal 0 0 1
    outer loop
      vertex -0.900543 6.62088 2
      vertex -0.35585 6.12666 2
      vertex -0.61026 6.38286 2
    endloop
  endfacet
  facet normal -0 0 1
    outer loop
      vertex -3.10818 -6.03337 2
      vertex 0.32901 -6.34084 2
      vertex 1.40161 -5.67746 2
    endloop
  endfacet
  facet normal 0 0 1
    outer loop
      vertex 0.303055 4.92027 2
      vertex -0.900543 6.62088 2
      vertex -1.2267 6.84076 2
    endloop
  endfacet
  facet normal 0 0 1
    outer loop
      vertex 0.303055 4.92027 2
      vertex -1.2267 6.84076 2
      vertex -1.54666 7.01921 2
    endloop
  endfacet
  facet normal 0 0 1
    outer loop
      vertex 0.303055 4.92027 2
      vertex -1.54666 7.01921 2
      vertex -1.87416 7.17021 2
    endloop
  endfacet
  facet normal 0 0 1
    outer loop
      vertex -2.2092 7.29376 2
      vertex 0.303055 4.92027 2
      vertex -1.87416 7.17021 2
    endloop
  endfacet
  facet normal 0 0 1
    outer loop
      vertex -3.10818 -6.03337 2
      vertex -0.802902 -6.98917 2
      vertex 0.32901 -6.34084 2
    endloop
  endfacet
  facet normal 0 0 1
    outer loop
      vertex 0.303055 4.92027 2
      vertex -2.2092 7.29376 2
      vertex -2.90184 7.45848 2
    endloop
  endfacet
  facet normal 0 0 1
    outer loop
      vertex -2.90184 7.45848 2
      vertex -2.2092 7.29376 2
      vertex -2.55176 7.38985 2
    endloop
  endfacet
  facet normal 0 0 1
    outer loop
      vertex -3.25946 7.49966 2
      vertex 0.303055 4.92027 2
      vertex -2.90184 7.45848 2
    endloop
  endfacet
  facet normal 0 0 1
    outer loop
      vertex -0.802902 -6.98917 2
      vertex -3.08206 -6.60243 2
      vertex -1.99417 -7.62245 2
    endloop
  endfacet
  facet normal -0 0 1
    outer loop
      vertex -3.08537 -6.82716 2
      vertex -1.99417 -7.62245 2
      vertex -3.08206 -6.60243 2
    endloop
  endfacet
  facet normal -0 0 1
    outer loop
      vertex -3.09534 -7.05499 2
      vertex -1.99417 -7.62245 2
      vertex -3.08537 -6.82716 2
    endloop
  endfacet
  facet normal -0 0 1
    outer loop
      vertex -3.11194 -7.28592 2
      vertex -1.99417 -7.62245 2
      vertex -3.09534 -7.05499 2
    endloop
  endfacet
  facet normal -0 0 1
    outer loop
      vertex -3.13519 -7.51996 2
      vertex -1.99417 -7.62245 2
      vertex -3.11194 -7.28592 2
    endloop
  endfacet
  facet normal 0 0 1
    outer loop
      vertex -3.16507 -7.7571 2
      vertex -1.99417 -7.62245 2
      vertex -3.13519 -7.51996 2
    endloop
  endfacet
  facet normal 0 0 1
    outer loop
      vertex -3.2016 -7.99733 2
      vertex -1.99417 -7.62245 2
      vertex -3.16507 -7.7571 2
    endloop
  endfacet
  facet normal 0 0 1
    outer loop
      vertex -1.99417 -7.62245 2
      vertex -3.2016 -7.99733 2
      vertex -3.24478 -8.24068 2
    endloop
  endfacet
  facet normal 0.469397 -0.882987 0
    outer loop
      vertex -1.99417 -7.62245 0
      vertex -0.802902 -6.98917 2
      vertex -1.99417 -7.62245 2
    endloop
  endfacet
  facet normal 0.469397 -0.882987 0
    outer loop
      vertex -0.802902 -6.98917 2
      vertex -1.99417 -7.62245 0
      vertex -0.802902 -6.98917 0
    endloop
  endfacet
  facet normal 0.497019 -0.86774 0
    outer loop
      vertex -0.802902 -6.98917 0
      vertex 0.32901 -6.34084 2
      vertex -0.802902 -6.98917 2
    endloop
  endfacet
  facet normal 0.497019 -0.86774 0
    outer loop
      vertex 0.32901 -6.34084 2
      vertex -0.802902 -6.98917 0
      vertex 0.32901 -6.34084 0
    endloop
  endfacet
  facet normal 0.526005 -0.850482 0
    outer loop
      vertex 0.32901 -6.34084 0
      vertex 1.40161 -5.67746 2
      vertex 0.32901 -6.34084 2
    endloop
  endfacet
  facet normal 0.526005 -0.850482 0
    outer loop
      vertex 1.40161 -5.67746 2
      vertex 0.32901 -6.34084 0
      vertex 1.40161 -5.67746 0
    endloop
  endfacet
  facet normal 0.556364 -0.830938 0
    outer loop
      vertex 1.40161 -5.67746 0
      vertex 2.41487 -4.99902 2
      vertex 1.40161 -5.67746 2
    endloop
  endfacet
  facet normal 0.556364 -0.830938 0
    outer loop
      vertex 2.41487 -4.99902 2
      vertex 1.40161 -5.67746 0
      vertex 2.41487 -4.99902 0
    endloop
  endfacet
  facet normal 0.588016 -0.808849 0
    outer loop
      vertex 2.41487 -4.99902 0
      vertex 3.36879 -4.30554 2
      vertex 2.41487 -4.99902 2
    endloop
  endfacet
  facet normal 0.588016 -0.808849 0
    outer loop
      vertex 3.36879 -4.30554 2
      vertex 2.41487 -4.99902 0
      vertex 3.36879 -4.30554 0
    endloop
  endfacet
  facet normal 0.620892 -0.783896 0
    outer loop
      vertex 3.36879 -4.30554 0
      vertex 4.26337 -3.59698 2
      vertex 3.36879 -4.30554 2
    endloop
  endfacet
  facet normal 0.620892 -0.783896 0
    outer loop
      vertex 4.26337 -3.59698 2
      vertex 3.36879 -4.30554 0
      vertex 4.26337 -3.59698 0
    endloop
  endfacet
  facet normal 0.665583 -0.746324 0
    outer loop
      vertex 4.26337 -3.59698 0
      vertex 5.41768 -2.56755 2
      vertex 4.26337 -3.59698 2
    endloop
  endfacet
  facet normal 0.665583 -0.746324 0
    outer loop
      vertex 5.41768 -2.56755 2
      vertex 4.26337 -3.59698 0
      vertex 5.41768 -2.56755 0
    endloop
  endfacet
  facet normal 0.723503 -0.690321 0
    outer loop
      vertex 5.41768 -2.56755 2
      vertex 6.39441 -1.54387 0
      vertex 6.39441 -1.54387 2
    endloop
  endfacet
  facet normal 0.723503 -0.690321 0
    outer loop
      vertex 6.39441 -1.54387 0
      vertex 5.41768 -2.56755 2
      vertex 5.41768 -2.56755 0
    endloop
  endfacet
  facet normal 0.786559 -0.617516 0
    outer loop
      vertex 6.39441 -1.54387 2
      vertex 7.19356 -0.525955 0
      vertex 7.19356 -0.525955 2
    endloop
  endfacet
  facet normal 0.786559 -0.617516 0
    outer loop
      vertex 7.19356 -0.525955 0
      vertex 6.39441 -1.54387 2
      vertex 6.39441 -1.54387 0
    endloop
  endfacet
  facet normal 0.85215 -0.523298 0
    outer loop
      vertex 7.19356 -0.525955 2
      vertex 7.81511 0.486191 0
      vertex 7.81511 0.486191 2
    endloop
  endfacet
  facet normal 0.85215 -0.523298 0
    outer loop
      vertex 7.81511 0.486191 0
      vertex 7.19356 -0.525955 2
      vertex 7.19356 -0.525955 0
    endloop
  endfacet
  facet normal 0.914929 -0.403614 0
    outer loop
      vertex 7.81511 0.486191 2
      vertex 8.25908 1.4926 0
      vertex 8.25908 1.4926 2
    endloop
  endfacet
  facet normal 0.914929 -0.403614 0
    outer loop
      vertex 8.25908 1.4926 0
      vertex 7.81511 0.486191 2
      vertex 7.81511 0.486191 0
    endloop
  endfacet
  facet normal 0.966347 -0.257244 0
    outer loop
      vertex 8.25908 1.4926 2
      vertex 8.52545 2.49323 0
      vertex 8.52545 2.49323 2
    endloop
  endfacet
  facet normal 0.966347 -0.257244 0
    outer loop
      vertex 8.52545 2.49323 0
      vertex 8.25908 1.4926 2
      vertex 8.25908 1.4926 0
    endloop
  endfacet
  facet normal 0.996041 -0.0888936 0
    outer loop
      vertex 8.52545 2.49323 2
      vertex 8.61424 3.48811 0
      vertex 8.61424 3.48811 2
    endloop
  endfacet
  facet normal 0.996041 -0.0888936 0
    outer loop
      vertex 8.61424 3.48811 0
      vertex 8.52545 2.49323 2
      vertex 8.52545 2.49323 0
    endloop
  endfacet
  facet normal 0.998309 0.0581355 0
    outer loop
      vertex 8.61424 3.48811 2
      vertex 8.58635 3.96704 0
      vertex 8.58635 3.96704 2
    endloop
  endfacet
  facet normal 0.998309 0.0581355 0
    outer loop
      vertex 8.58635 3.96704 0
      vertex 8.61424 3.48811 2
      vertex 8.61424 3.48811 0
    endloop
  endfacet
  facet normal 0.983652 0.18008 0
    outer loop
      vertex 8.58635 3.96704 2
      vertex 8.50264 4.42429 0
      vertex 8.50264 4.42429 2
    endloop
  endfacet
  facet normal 0.983652 0.18008 0
    outer loop
      vertex 8.50264 4.42429 0
      vertex 8.58635 3.96704 2
      vertex 8.58635 3.96704 0
    endloop
  endfacet
  facet normal 0.952337 0.305048 0
    outer loop
      vertex 8.50264 4.42429 2
      vertex 8.36313 4.85983 0
      vertex 8.36313 4.85983 2
    endloop
  endfacet
  facet normal 0.952337 0.305048 0
    outer loop
      vertex 8.36313 4.85983 0
      vertex 8.50264 4.42429 2
      vertex 8.50264 4.42429 0
    endloop
  endfacet
  facet normal 0.904349 0.426793 0
    outer loop
      vertex 8.36313 4.85983 2
      vertex 8.16782 5.27368 0
      vertex 8.16782 5.27368 2
    endloop
  endfacet
  facet normal 0.904349 0.426793 0
    outer loop
      vertex 8.16782 5.27368 0
      vertex 8.36313 4.85983 2
      vertex 8.36313 4.85983 0
    endloop
  endfacet
  facet normal 0.842143 0.539254 0
    outer loop
      vertex 8.16782 5.27368 2
      vertex 7.9167 5.66585 0
      vertex 7.9167 5.66585 2
    endloop
  endfacet
  facet normal 0.842143 0.539254 0
    outer loop
      vertex 7.9167 5.66585 0
      vertex 8.16782 5.27368 2
      vertex 8.16782 5.27368 0
    endloop
  endfacet
  facet normal 0.770036 0.638 0
    outer loop
      vertex 7.9167 5.66585 2
      vertex 7.60977 6.0363 0
      vertex 7.60977 6.0363 2
    endloop
  endfacet
  facet normal 0.770036 0.638 0
    outer loop
      vertex 7.60977 6.0363 0
      vertex 7.9167 5.66585 2
      vertex 7.9167 5.66585 0
    endloop
  endfacet
  facet normal 0.693119 0.720823 -0
    outer loop
      vertex 7.60977 6.0363 0
      vertex 7.24706 6.38507 2
      vertex 7.60977 6.0363 2
    endloop
  endfacet
  facet normal 0.693119 0.720823 0
    outer loop
      vertex 7.24706 6.38507 2
      vertex 7.60977 6.0363 0
      vertex 7.24706 6.38507 0
    endloop
  endfacet
  facet normal 0.617963 0.786207 -0
    outer loop
      vertex 7.24706 6.38507 0
      vertex 6.86621 6.68442 2
      vertex 7.24706 6.38507 2
    endloop
  endfacet
  facet normal 0.617963 0.786207 0
    outer loop
      vertex 6.86621 6.68442 2
      vertex 7.24706 6.38507 0
      vertex 6.86621 6.68442 0
    endloop
  endfacet
  facet normal 0.536383 0.843974 -0
    outer loop
      vertex 6.86621 6.68442 0
      vertex 6.46767 6.93771 2
      vertex 6.86621 6.68442 2
    endloop
  endfacet
  facet normal 0.536383 0.843974 0
    outer loop
      vertex 6.46767 6.93771 2
      vertex 6.86621 6.68442 0
      vertex 6.46767 6.93771 0
    endloop
  endfacet
  facet normal 0.445682 0.895191 -0
    outer loop
      vertex 6.46767 6.93771 0
      vertex 6.05139 7.14496 2
      vertex 6.46767 6.93771 2
    endloop
  endfacet
  facet normal 0.445682 0.895191 0
    outer loop
      vertex 6.05139 7.14496 2
      vertex 6.46767 6.93771 0
      vertex 6.05139 7.14496 0
    endloop
  endfacet
  facet normal 0.348175 0.93743 -0
    outer loop
      vertex 6.05139 7.14496 0
      vertex 5.6174 7.30615 2
      vertex 6.05139 7.14496 2
    endloop
  endfacet
  facet normal 0.348175 0.93743 0
    outer loop
      vertex 5.6174 7.30615 2
      vertex 6.05139 7.14496 0
      vertex 5.6174 7.30615 0
    endloop
  endfacet
  facet normal 0.246985 0.969019 -0
    outer loop
      vertex 5.6174 7.30615 0
      vertex 5.1657 7.42128 2
      vertex 5.6174 7.30615 2
    endloop
  endfacet
  facet normal 0.246985 0.969019 0
    outer loop
      vertex 5.1657 7.42128 2
      vertex 5.6174 7.30615 0
      vertex 5.1657 7.42128 0
    endloop
  endfacet
  facet normal 0.14561 0.989342 -0
    outer loop
      vertex 5.1657 7.42128 0
      vertex 4.69627 7.49037 2
      vertex 5.1657 7.42128 2
    endloop
  endfacet
  facet normal 0.14561 0.989342 0
    outer loop
      vertex 4.69627 7.49037 2
      vertex 5.1657 7.42128 0
      vertex 4.69627 7.49037 0
    endloop
  endfacet
  facet normal 0.0472222 0.998884 -0
    outer loop
      vertex 4.69627 7.49037 0
      vertex 4.20912 7.5134 2
      vertex 4.69627 7.49037 2
    endloop
  endfacet
  facet normal 0.0472222 0.998884 0
    outer loop
      vertex 4.20912 7.5134 2
      vertex 4.69627 7.49037 0
      vertex 4.20912 7.5134 0
    endloop
  endfacet
  facet normal -0.0741358 0.997248 0
    outer loop
      vertex 4.20912 7.5134 0
      vertex 3.49699 7.46046 2
      vertex 4.20912 7.5134 2
    endloop
  endfacet
  facet normal -0.0741358 0.997248 0
    outer loop
      vertex 3.49699 7.46046 2
      vertex 4.20912 7.5134 0
      vertex 3.49699 7.46046 0
    endloop
  endfacet
  facet normal -0.233606 0.972331 0
    outer loop
      vertex 3.49699 7.46046 0
      vertex 2.83623 7.30171 2
      vertex 3.49699 7.46046 2
    endloop
  endfacet
  facet normal -0.233606 0.972331 0
    outer loop
      vertex 2.83623 7.30171 2
      vertex 3.49699 7.46046 0
      vertex 2.83623 7.30171 0
    endloop
  endfacet
  facet normal -0.39828 0.917264 0
    outer loop
      vertex 2.83623 7.30171 0
      vertex 2.22684 7.03711 2
      vertex 2.83623 7.30171 2
    endloop
  endfacet
  facet normal -0.39828 0.917264 0
    outer loop
      vertex 2.22684 7.03711 2
      vertex 2.83623 7.30171 0
      vertex 2.22684 7.03711 0
    endloop
  endfacet
  facet normal -0.553083 0.833126 0
    outer loop
      vertex 2.22684 7.03711 0
      vertex 1.66882 6.66666 2
      vertex 2.22684 7.03711 2
    endloop
  endfacet
  facet normal -0.553083 0.833126 0
    outer loop
      vertex 1.66882 6.66666 2
      vertex 2.22684 7.03711 0
      vertex 1.66882 6.66666 0
    endloop
  endfacet
  facet normal -0.684954 0.728586 0
    outer loop
      vertex 1.66882 6.66666 0
      vertex 1.16219 6.19037 2
      vertex 1.66882 6.66666 2
    endloop
  endfacet
  facet normal -0.684954 0.728586 0
    outer loop
      vertex 1.16219 6.19037 2
      vertex 1.66882 6.66666 0
      vertex 1.16219 6.19037 0
    endloop
  endfacet
  facet normal -0.787706 0.616051 0
    outer loop
      vertex 0.706924 5.60825 0
      vertex 1.16219 6.19037 2
      vertex 1.16219 6.19037 0
    endloop
  endfacet
  facet normal -0.787706 0.616051 0
    outer loop
      vertex 1.16219 6.19037 2
      vertex 0.706924 5.60825 0
      vertex 0.706924 5.60825 2
    endloop
  endfacet
  facet normal -0.862385 0.506252 0
    outer loop
      vertex 0.38322 5.05683 0
      vertex 0.706924 5.60825 2
      vertex 0.706924 5.60825 0
    endloop
  endfacet
  facet normal -0.862388 0.506249 0
    outer loop
      vertex 0.303055 4.92027 2
      vertex 0.38322 5.05683 0
      vertex 0.303055 4.92027 0
    endloop
  endfacet
  facet normal -0.862386 0.506252 2.71973e-07
    outer loop
      vertex 0.38322 5.05683 0
      vertex 0.303055 4.92027 2
      vertex 0.706924 5.60825 2
    endloop
  endfacet
  facet normal 0.947532 0.319661 0
    outer loop
      vertex 0.192123 5.24911 2
      vertex 0.254238 5.06499 0
      vertex 0.192123 5.24911 0
    endloop
  endfacet
  facet normal 0.947537 0.319645 1.58013e-06
    outer loop
      vertex 0.303055 4.92027 2
      vertex 0.254238 5.06499 0
      vertex 0.192123 5.24911 2
    endloop
  endfacet
  facet normal 0.947544 0.319626 0
    outer loop
      vertex 0.254238 5.06499 0
      vertex 0.303055 4.92027 2
      vertex 0.303055 4.92027 0
    endloop
  endfacet
  facet normal 0.904154 0.427206 0
    outer loop
      vertex 0.192123 5.24911 2
      vertex 0.0453339 5.55978 0
      vertex 0.0453339 5.55978 2
    endloop
  endfacet
  facet normal 0.904154 0.427206 0
    outer loop
      vertex 0.0453339 5.55978 0
      vertex 0.192123 5.24911 2
      vertex 0.192123 5.24911 0
    endloop
  endfacet
  facet normal 0.848237 0.529617 0
    outer loop
      vertex 0.0453339 5.55978 2
      vertex -0.137314 5.85231 0
      vertex -0.137314 5.85231 2
    endloop
  endfacet
  facet normal 0.848237 0.529617 0
    outer loop
      vertex -0.137314 5.85231 0
      vertex 0.0453339 5.55978 2
      vertex 0.0453339 5.55978 0
    endloop
  endfacet
  facet normal 0.78218 0.623053 0
    outer loop
      vertex -0.137314 5.85231 2
      vertex -0.35585 6.12666 0
      vertex -0.35585 6.12666 2
    endloop
  endfacet
  facet normal 0.78218 0.623053 0
    outer loop
      vertex -0.35585 6.12666 0
      vertex -0.137314 5.85231 2
      vertex -0.137314 5.85231 0
    endloop
  endfacet
  facet normal 0.709581 0.704624 0
    outer loop
      vertex -0.35585 6.12666 2
      vertex -0.61026 6.38286 0
      vertex -0.61026 6.38286 2
    endloop
  endfacet
  facet normal 0.709581 0.704624 0
    outer loop
      vertex -0.61026 6.38286 0
      vertex -0.35585 6.12666 2
      vertex -0.35585 6.12666 0
    endloop
  endfacet
  facet normal 0.63406 0.773284 -0
    outer loop
      vertex -0.61026 6.38286 0
      vertex -0.900543 6.62088 2
      vertex -0.61026 6.38286 2
    endloop
  endfacet
  facet normal 0.63406 0.773284 0
    outer loop
      vertex -0.900543 6.62088 2
      vertex -0.61026 6.38286 0
      vertex -0.900543 6.62088 0
    endloop
  endfacet
  facet normal 0.558991 0.829174 -0
    outer loop
      vertex -0.900543 6.62088 0
      vertex -1.2267 6.84076 2
      vertex -0.900543 6.62088 2
    endloop
  endfacet
  facet normal 0.558991 0.829174 0
    outer loop
      vertex -1.2267 6.84076 2
      vertex -0.900543 6.62088 0
      vertex -1.2267 6.84076 0
    endloop
  endfacet
  facet normal 0.487091 0.873351 -0
    outer loop
      vertex -1.2267 6.84076 0
      vertex -1.54666 7.01921 2
      vertex -1.2267 6.84076 2
    endloop
  endfacet
  facet normal 0.487091 0.873351 0
    outer loop
      vertex -1.54666 7.01921 2
      vertex -1.2267 6.84076 0
      vertex -1.54666 7.01921 0
    endloop
  endfacet
  facet normal 0.418706 0.908122 -0
    outer loop
      vertex -1.54666 7.01921 0
      vertex -1.87416 7.17021 2
      vertex -1.54666 7.01921 2
    endloop
  endfacet
  facet normal 0.418706 0.908122 0
    outer loop
      vertex -1.87416 7.17021 2
      vertex -1.54666 7.01921 0
      vertex -1.87416 7.17021 0
    endloop
  endfacet
  facet normal 0.345987 0.938239 -0
    outer loop
      vertex -1.87416 7.17021 0
      vertex -2.2092 7.29376 2
      vertex -1.87416 7.17021 2
    endloop
  endfacet
  facet normal 0.345987 0.938239 0
    outer loop
      vertex -2.2092 7.29376 2
      vertex -1.87416 7.17021 0
      vertex -2.2092 7.29376 0
    endloop
  endfacet
  facet normal 0.270081 0.962838 -0
    outer loop
      vertex -2.2092 7.29376 0
      vertex -2.55176 7.38985 2
      vertex -2.2092 7.29376 2
    endloop
  endfacet
  facet normal 0.270081 0.962838 0
    outer loop
      vertex -2.55176 7.38985 2
      vertex -2.2092 7.29376 0
      vertex -2.55176 7.38985 0
    endloop
  endfacet
  facet normal 0.192379 0.981321 -0
    outer loop
      vertex -2.55176 7.38985 0
      vertex -2.90184 7.45848 2
      vertex -2.55176 7.38985 2
    endloop
  endfacet
  facet normal 0.192379 0.981321 0
    outer loop
      vertex -2.90184 7.45848 2
      vertex -2.55176 7.38985 0
      vertex -2.90184 7.45848 0
    endloop
  endfacet
  facet normal 0.114394 0.993435 -0
    outer loop
      vertex -2.90184 7.45848 0
      vertex -3.25946 7.49966 2
      vertex -2.90184 7.45848 2
    endloop
  endfacet
  facet normal 0.114394 0.993435 0
    outer loop
      vertex -3.25946 7.49966 2
      vertex -2.90184 7.45848 0
      vertex -3.25946 7.49966 0
    endloop
  endfacet
  facet normal 0.0376007 0.999293 -0
    outer loop
      vertex -3.25946 7.49966 0
      vertex -3.62462 7.5134 2
      vertex -3.25946 7.49966 2
    endloop
  endfacet
  facet normal 0.0376007 0.999293 0
    outer loop
      vertex -3.62462 7.5134 2
      vertex -3.25946 7.49966 0
      vertex -3.62462 7.5134 0
    endloop
  endfacet
  facet normal -0.0468289 0.998903 0
    outer loop
      vertex -3.62462 7.5134 0
      vertex -4.15128 7.48871 2
      vertex -3.62462 7.5134 2
    endloop
  endfacet
  facet normal -0.0468289 0.998903 0
    outer loop
      vertex -4.15128 7.48871 2
      vertex -3.62462 7.5134 0
      vertex -4.15128 7.48871 0
    endloop
  endfacet
  facet normal -0.1462 0.989255 0
    outer loop
      vertex -4.15128 7.48871 0
      vertex -4.65247 7.41464 2
      vertex -4.15128 7.48871 2
    endloop
  endfacet
  facet normal -0.1462 0.989255 0
    outer loop
      vertex -4.65247 7.41464 2
      vertex -4.15128 7.48871 0
      vertex -4.65247 7.41464 0
    endloop
  endfacet
  facet normal -0.251158 0.967946 0
    outer loop
      vertex -4.65247 7.41464 0
      vertex -5.1282 7.2912 2
      vertex -4.65247 7.41464 2
    endloop
  endfacet
  facet normal -0.251158 0.967946 0
    outer loop
      vertex -5.1282 7.2912 2
      vertex -4.65247 7.41464 0
      vertex -5.1282 7.2912 0
    endloop
  endfacet
  facet normal -0.35835 0.933587 0
    outer loop
      vertex -5.1282 7.2912 0
      vertex -5.57849 7.11836 2
      vertex -5.1282 7.2912 2
    endloop
  endfacet
  facet normal -0.35835 0.933587 0
    outer loop
      vertex -5.57849 7.11836 2
      vertex -5.1282 7.2912 0
      vertex -5.57849 7.11836 0
    endloop
  endfacet
  facet normal -0.463458 0.886119 0
    outer loop
      vertex -5.57849 7.11836 0
      vertex -6.00333 6.89616 2
      vertex -5.57849 7.11836 2
    endloop
  endfacet
  facet normal -0.463458 0.886119 0
    outer loop
      vertex -6.00333 6.89616 2
      vertex -5.57849 7.11836 0
      vertex -6.00333 6.89616 0
    endloop
  endfacet
  facet normal -0.562317 0.826921 0
    outer loop
      vertex -6.00333 6.89616 0
      vertex -6.40269 6.62459 2
      vertex -6.00333 6.89616 2
    endloop
  endfacet
  facet normal -0.562317 0.826921 0
    outer loop
      vertex -6.40269 6.62459 2
      vertex -6.00333 6.89616 0
      vertex -6.40269 6.62459 0
    endloop
  endfacet
  facet normal -0.651326 0.758798 0
    outer loop
      vertex -6.40269 6.62459 0
      vertex -6.77661 6.30363 2
      vertex -6.40269 6.62459 2
    endloop
  endfacet
  facet normal -0.651326 0.758798 0
    outer loop
      vertex -6.77661 6.30363 2
      vertex -6.40269 6.62459 0
      vertex -6.77661 6.30363 0
    endloop
  endfacet
  facet normal -0.731004 0.682373 0
    outer loop
      vertex -7.11197 5.94437 0
      vertex -6.77661 6.30363 2
      vertex -6.77661 6.30363 0
    endloop
  endfacet
  facet normal -0.731004 0.682373 0
    outer loop
      vertex -6.77661 6.30363 2
      vertex -7.11197 5.94437 0
      vertex -7.11197 5.94437 2
    endloop
  endfacet
  facet normal -0.806083 0.591803 0
    outer loop
      vertex -7.39572 5.55788 0
      vertex -7.11197 5.94437 2
      vertex -7.11197 5.94437 0
    endloop
  endfacet
  facet normal -0.806083 0.591803 0
    outer loop
      vertex -7.11197 5.94437 2
      vertex -7.39572 5.55788 0
      vertex -7.39572 5.55788 2
    endloop
  endfacet
  facet normal -0.872082 0.489359 0
    outer loop
      vertex -7.62788 5.14415 0
      vertex -7.39572 5.55788 2
      vertex -7.39572 5.55788 0
    endloop
  endfacet
  facet normal -0.872082 0.489359 0
    outer loop
      vertex -7.39572 5.55788 2
      vertex -7.62788 5.14415 0
      vertex -7.62788 5.14415 2
    endloop
  endfacet
  facet normal -0.925409 0.378969 0
    outer loop
      vertex -7.80846 4.70319 0
      vertex -7.62788 5.14415 2
      vertex -7.62788 5.14415 0
    endloop
  endfacet
  facet normal -0.925409 0.378969 0
    outer loop
      vertex -7.62788 5.14415 2
      vertex -7.80846 4.70319 0
      vertex -7.80846 4.70319 2
    endloop
  endfacet
  facet normal -0.964085 0.265592 0
    outer loop
      vertex -7.93744 4.235 0
      vertex -7.80846 4.70319 2
      vertex -7.80846 4.70319 0
    endloop
  endfacet
  facet normal -0.964085 0.265592 0
    outer loop
      vertex -7.80846 4.70319 2
      vertex -7.93744 4.235 0
      vertex -7.93744 4.235 2
    endloop
  endfacet
  facet normal -0.988022 0.154314 0
    outer loop
      vertex -8.01482 3.73956 0
      vertex -7.93744 4.235 2
      vertex -7.93744 4.235 0
    endloop
  endfacet
  facet normal -0.988022 0.154314 0
    outer loop
      vertex -7.93744 4.235 2
      vertex -8.01482 3.73956 0
      vertex -8.01482 3.73956 2
    endloop
  endfacet
  facet normal -0.998784 0.0493047 0
    outer loop
      vertex -8.04062 3.21692 0
      vertex -8.01482 3.73956 2
      vertex -8.01482 3.73956 0
    endloop
  endfacet
  facet normal -0.998784 0.0493047 0
    outer loop
      vertex -8.01482 3.73956 2
      vertex -8.04062 3.21692 0
      vertex -8.04062 3.21692 2
    endloop
  endfacet
  facet normal -0.998828 -0.0484036 0
    outer loop
      vertex -8.01448 2.67751 0
      vertex -8.04062 3.21692 2
      vertex -8.04062 3.21692 0
    endloop
  endfacet
  facet normal -0.998828 -0.0484036 0
    outer loop
      vertex -8.04062 3.21692 2
      vertex -8.01448 2.67751 0
      vertex -8.01448 2.67751 2
    endloop
  endfacet
  facet normal -0.98912 -0.147108 0
    outer loop
      vertex -7.9361 2.1505 0
      vertex -8.01448 2.67751 2
      vertex -8.01448 2.67751 0
    endloop
  endfacet
  facet normal -0.98912 -0.147108 0
    outer loop
      vertex -8.01448 2.67751 2
      vertex -7.9361 2.1505 0
      vertex -7.9361 2.1505 2
    endloop
  endfacet
  facet normal -0.969251 -0.246075 0
    outer loop
      vertex -7.80545 1.63589 0
      vertex -7.9361 2.1505 2
      vertex -7.9361 2.1505 0
    endloop
  endfacet
  facet normal -0.969251 -0.246075 0
    outer loop
      vertex -7.9361 2.1505 2
      vertex -7.80545 1.63589 0
      vertex -7.80545 1.63589 2
    endloop
  endfacet
  facet normal -0.939634 -0.34218 0
    outer loop
      vertex -7.62256 1.13367 0
      vertex -7.80545 1.63589 2
      vertex -7.80545 1.63589 0
    endloop
  endfacet
  facet normal -0.939634 -0.34218 0
    outer loop
      vertex -7.80545 1.63589 2
      vertex -7.62256 1.13367 0
      vertex -7.62256 1.13367 2
    endloop
  endfacet
  facet normal -0.901484 -0.432812 0
    outer loop
      vertex -7.38739 0.643845 0
      vertex -7.62256 1.13367 2
      vertex -7.62256 1.13367 0
    endloop
  endfacet
  facet normal -0.901484 -0.432812 0
    outer loop
      vertex -7.62256 1.13367 2
      vertex -7.38739 0.643845 0
      vertex -7.38739 0.643845 2
    endloop
  endfacet
  facet normal -0.856732 -0.515762 0
    outer loop
      vertex -7.09998 0.166428 0
      vertex -7.38739 0.643845 2
      vertex -7.38739 0.643845 0
    endloop
  endfacet
  facet normal -0.856732 -0.515762 0
    outer loop
      vertex -7.38739 0.643845 2
      vertex -7.09998 0.166428 0
      vertex -7.09998 0.166428 2
    endloop
  endfacet
  facet normal -0.807523 -0.589836 0
    outer loop
      vertex -6.7603 -0.298615 0
      vertex -7.09998 0.166428 2
      vertex -7.09998 0.166428 0
    endloop
  endfacet
  facet normal -0.807523 -0.589836 0
    outer loop
      vertex -7.09998 0.166428 2
      vertex -6.7603 -0.298615 0
      vertex -6.7603 -0.298615 2
    endloop
  endfacet
  facet normal -0.737247 -0.675623 0
    outer loop
      vertex -6.41638 -0.673904 0
      vertex -6.7603 -0.298615 2
      vertex -6.7603 -0.298615 0
    endloop
  endfacet
  facet normal -0.737247 -0.675623 0
    outer loop
      vertex -6.7603 -0.298615 2
      vertex -6.41638 -0.673904 0
      vertex -6.41638 -0.673904 2
    endloop
  endfacet
  facet normal -0.738106 -0.674684 0
    outer loop
      vertex -6.07292 -1.04965 0
      vertex -6.41638 -0.673904 2
      vertex -6.41638 -0.673904 0
    endloop
  endfacet
  facet normal -0.738106 -0.674684 0
    outer loop
      vertex -6.41638 -0.673904 2
      vertex -6.07292 -1.04965 0
      vertex -6.07292 -1.04965 2
    endloop
  endfacet
  facet normal -0.738953 -0.673757 0
    outer loop
      vertex -5.72992 -1.42584 0
      vertex -6.07292 -1.04965 2
      vertex -6.07292 -1.04965 0
    endloop
  endfacet
  facet normal -0.738953 -0.673757 0
    outer loop
      vertex -6.07292 -1.04965 2
      vertex -5.72992 -1.42584 0
      vertex -5.72992 -1.42584 2
    endloop
  endfacet
  facet normal -0.739773 -0.672857 0
    outer loop
      vertex -5.38734 -1.80249 0
      vertex -5.72992 -1.42584 2
      vertex -5.72992 -1.42584 0
    endloop
  endfacet
  facet normal -0.739773 -0.672857 0
    outer loop
      vertex -5.72992 -1.42584 2
      vertex -5.38734 -1.80249 0
      vertex -5.38734 -1.80249 2
    endloop
  endfacet
  facet normal -0.740624 -0.67192 0
    outer loop
      vertex -5.04524 -2.17957 0
      vertex -5.38734 -1.80249 2
      vertex -5.38734 -1.80249 0
    endloop
  endfacet
  facet normal -0.740624 -0.67192 0
    outer loop
      vertex -5.38734 -1.80249 2
      vertex -5.04524 -2.17957 0
      vertex -5.04524 -2.17957 2
    endloop
  endfacet
  facet normal -0.741452 -0.671005 0
    outer loop
      vertex -4.70358 -2.5571 0
      vertex -5.04524 -2.17957 2
      vertex -5.04524 -2.17957 0
    endloop
  endfacet
  facet normal -0.741452 -0.671005 0
    outer loop
      vertex -5.04524 -2.17957 2
      vertex -4.70358 -2.5571 0
      vertex -4.70358 -2.5571 2
    endloop
  endfacet
  facet normal -0.74229 -0.670078 0
    outer loop
      vertex -4.36238 -2.93507 0
      vertex -4.70358 -2.5571 2
      vertex -4.70358 -2.5571 0
    endloop
  endfacet
  facet normal -0.74229 -0.670078 0
    outer loop
      vertex -4.70358 -2.5571 2
      vertex -4.36238 -2.93507 0
      vertex -4.36238 -2.93507 2
    endloop
  endfacet
  facet normal -0.815578 -0.578647 0
    outer loop
      vertex -4.02271 -3.41382 0
      vertex -4.36238 -2.93507 2
      vertex -4.36238 -2.93507 0
    endloop
  endfacet
  facet normal -0.815578 -0.578647 0
    outer loop
      vertex -4.36238 -2.93507 2
      vertex -4.02271 -3.41382 0
      vertex -4.02271 -3.41382 2
    endloop
  endfacet
  facet normal -0.864251 -0.503061 0
    outer loop
      vertex -3.73528 -3.90762 0
      vertex -4.02271 -3.41382 2
      vertex -4.02271 -3.41382 0
    endloop
  endfacet
  facet normal -0.864251 -0.503061 0
    outer loop
      vertex -4.02271 -3.41382 2
      vertex -3.73528 -3.90762 0
      vertex -3.73528 -3.90762 2
    endloop
  endfacet
  facet normal -0.907751 -0.419508 0
    outer loop
      vertex -3.50012 -4.41647 0
      vertex -3.73528 -3.90762 2
      vertex -3.73528 -3.90762 0
    endloop
  endfacet
  facet normal -0.907751 -0.419508 0
    outer loop
      vertex -3.73528 -3.90762 2
      vertex -3.50012 -4.41647 0
      vertex -3.50012 -4.41647 2
    endloop
  endfacet
  facet normal -0.944116 -0.329614 0
    outer loop
      vertex -3.31721 -4.94038 0
      vertex -3.50012 -4.41647 2
      vertex -3.50012 -4.41647 0
    endloop
  endfacet
  facet normal -0.944116 -0.329614 0
    outer loop
      vertex -3.50012 -4.41647 2
      vertex -3.31721 -4.94038 0
      vertex -3.31721 -4.94038 2
    endloop
  endfacet
  facet normal -0.971858 -0.235567 0
    outer loop
      vertex -3.18657 -5.47935 0
      vertex -3.31721 -4.94038 2
      vertex -3.31721 -4.94038 0
    endloop
  endfacet
  facet normal -0.971858 -0.235567 0
    outer loop
      vertex -3.31721 -4.94038 2
      vertex -3.18657 -5.47935 0
      vertex -3.18657 -5.47935 2
    endloop
  endfacet
  facet normal -0.990138 -0.140098 0
    outer loop
      vertex -3.10818 -6.03337 0
      vertex -3.18657 -5.47935 2
      vertex -3.18657 -5.47935 0
    endloop
  endfacet
  facet normal -0.990138 -0.140098 0
    outer loop
      vertex -3.18657 -5.47935 2
      vertex -3.10818 -6.03337 0
      vertex -3.10818 -6.03337 2
    endloop
  endfacet
  facet normal -0.998948 -0.045852 0
    outer loop
      vertex -3.08206 -6.60243 0
      vertex -3.10818 -6.03337 2
      vertex -3.10818 -6.03337 0
    endloop
  endfacet
  facet normal -0.998948 -0.045852 0
    outer loop
      vertex -3.10818 -6.03337 2
      vertex -3.08206 -6.60243 0
      vertex -3.08206 -6.60243 2
    endloop
  endfacet
  facet normal -0.999892 0.0147272 0
    outer loop
      vertex -3.08537 -6.82716 0
      vertex -3.08206 -6.60243 2
      vertex -3.08206 -6.60243 0
    endloop
  endfacet
  facet normal -0.999892 0.0147272 0
    outer loop
      vertex -3.08206 -6.60243 2
      vertex -3.08537 -6.82716 0
      vertex -3.08537 -6.82716 2
    endloop
  endfacet
  facet normal -0.999044 0.0437189 0
    outer loop
      vertex -3.09534 -7.05499 0
      vertex -3.08537 -6.82716 2
      vertex -3.08537 -6.82716 0
    endloop
  endfacet
  facet normal -0.999044 0.0437189 0
    outer loop
      vertex -3.08537 -6.82716 2
      vertex -3.09534 -7.05499 0
      vertex -3.09534 -7.05499 2
    endloop
  endfacet
  facet normal -0.997426 0.0716983 0
    outer loop
      vertex -3.11194 -7.28592 0
      vertex -3.09534 -7.05499 2
      vertex -3.09534 -7.05499 0
    endloop
  endfacet
  facet normal -0.997426 0.0716983 0
    outer loop
      vertex -3.09534 -7.05499 2
      vertex -3.11194 -7.28592 0
      vertex -3.11194 -7.28592 2
    endloop
  endfacet
  facet normal -0.995102 0.0988554 0
    outer loop
      vertex -3.13519 -7.51996 0
      vertex -3.11194 -7.28592 2
      vertex -3.11194 -7.28592 0
    endloop
  endfacet
  facet normal -0.995102 0.0988554 0
    outer loop
      vertex -3.11194 -7.28592 2
      vertex -3.13519 -7.51996 0
      vertex -3.13519 -7.51996 2
    endloop
  endfacet
  facet normal -0.992155 0.125013 0
    outer loop
      vertex -3.16507 -7.7571 0
      vertex -3.13519 -7.51996 2
      vertex -3.13519 -7.51996 0
    endloop
  endfacet
  facet normal -0.992155 0.125013 0
    outer loop
      vertex -3.13519 -7.51996 2
      vertex -3.16507 -7.7571 0
      vertex -3.16507 -7.7571 2
    endloop
  endfacet
  facet normal -0.988635 0.150334 0
    outer loop
      vertex -3.2016 -7.99733 0
      vertex -3.16507 -7.7571 2
      vertex -3.16507 -7.7571 0
    endloop
  endfacet
  facet normal -0.988635 0.150334 0
    outer loop
      vertex -3.16507 -7.7571 2
      vertex -3.2016 -7.99733 0
      vertex -3.2016 -7.99733 2
    endloop
  endfacet
  facet normal -0.98462 0.174711 0
    outer loop
      vertex -3.24478 -8.24068 0
      vertex -3.2016 -7.99733 2
      vertex -3.2016 -7.99733 0
    endloop
  endfacet
  facet normal -0.98462 0.174711 0
    outer loop
      vertex -3.2016 -7.99733 2
      vertex -3.24478 -8.24068 0
      vertex -3.24478 -8.24068 2
    endloop
  endfacet
  facet normal 0.443152 -0.896447 0
    outer loop
      vertex -3.24478 -8.24068 0
      vertex -1.99417 -7.62245 2
      vertex -3.24478 -8.24068 2
    endloop
  endfacet
  facet normal 0.443152 -0.896447 0
    outer loop
      vertex -1.99417 -7.62245 2
      vertex -3.24478 -8.24068 0
      vertex -1.99417 -7.62245 0
    endloop
  endfacet
endsolid OpenSCAD_Model
