solid OpenSCAD_Model
  facet normal -0.8443279255020153 -0.5358267949789964 0
    outer loop
      vertex -18.202882373436317 -13.225168176580645 -4.5
      vertex -19.71690030098693 -10.839457667288595 0
      vertex -19.71690030098693 -10.839457667288595 -4.5
    endloop
  endfacet
  facet normal -0.770513242775789 -0.63742398974869 0
    outer loop
      vertex -18.202882373436317 -13.225168176580645 -4.5
      vertex -16.401794116981762 -15.40230988339549 -4.5
      vertex -18.202882373436317 -13.225168176580645 0
    endloop
  endfacet
  facet normal -0.5877852522924731 -0.8090169943749473 0
    outer loop
      vertex -14.342039769345517 -17.33654796245526 -4.5
      vertex -12.056102887027427 -18.99737832379534 -4.5
      vertex -12.056102887027427 -18.99737832379534 0
    endloop
  endfacet
  facet normal -0.6845471059286891 -0.728968627421411 0
    outer loop
      vertex -14.342039769345517 -17.33654796245526 -4.5
      vertex -14.342039769345517 -17.33654796245526 0
      vertex -16.401794116981762 -15.40230988339549 -4.5
    endloop
  endfacet
  facet normal 0 0 -1
    outer loop
      vertex -20.919970932485658 -8.282802435405252 -4.5
      vertex -21.7931211253942 -5.595522461209234 -4.5
      vertex -20.919970932485658 8.282802435405252 -4.5
    endloop
  endfacet
  facet normal 0 0 -1
    outer loop
      vertex -21.7931211253942 -5.595522461209234 -4.5
      vertex -22.322580779575752 -2.8199977551968414 -4.5
      vertex -21.7931211253942 5.595522461209234 -4.5
    endloop
  endfacet
  facet normal 0 0 -1
    outer loop
      vertex -19.71690030098693 -10.839457667288595 -4.5
      vertex -20.919970932485658 -8.282802435405252 -4.5
      vertex -19.71690030098693 10.839457667288595 -4.5
    endloop
  endfacet
  facet normal 0 0 -1
    outer loop
      vertex -18.202882373436317 -13.225168176580645 -4.5
      vertex -19.71690030098693 -10.839457667288595 -4.5
      vertex -18.202882373436317 13.225168176580645 -4.5
    endloop
  endfacet
  facet normal 0 0 -1
    outer loop
      vertex -18.202882373436317 -13.225168176580645 -4.5
      vertex -16.401794116981762 15.40230988339549 -4.5
      vertex -16.401794116981762 -15.40230988339549 -4.5
    endloop
  endfacet
  facet normal 0 0 -1
    outer loop
      vertex -14.342039769345517 -17.33654796245526 -4.5
      vertex -12.056102887027427 18.99737832379534 -4.5
      vertex -12.056102887027427 -18.99737832379534 -4.5
    endloop
  endfacet
  facet normal 0 0 -1
    outer loop
      vertex -14.342039769345517 -17.33654796245526 -4.5
      vertex -16.401794116981762 -15.40230988339549 -4.5
      vertex -14.342039769345517 17.33654796245526 -4.5
    endloop
  endfacet
  facet normal -0.9048270524660194 -0.42577929156507305 0
    outer loop
      vertex -19.71690030098693 -10.839457667288595 -4.5
      vertex -20.919970932485658 -8.282802435405252 0
      vertex -20.919970932485658 -8.282802435405252 -4.5
    endloop
  endfacet
  facet normal -0.9510565162951534 -0.30901699437494773 0
    outer loop
      vertex -20.919970932485658 -8.282802435405252 -4.5
      vertex -21.7931211253942 -5.595522461209234 0
      vertex -21.7931211253942 -5.595522461209234 -4.5
    endloop
  endfacet
  facet normal -0.9822872507286887 -0.18738131458572418 0
    outer loop
      vertex -21.7931211253942 -5.595522461209234 -4.5
      vertex -22.322580779575752 -2.8199977551968414 0
      vertex -22.322580779575752 -2.8199977551968414 -4.5
    endloop
  endfacet
  facet normal -0.9980267284282716 -0.06279051952931325 0
    outer loop
      vertex -22.322580779575752 -2.8199977551968414 -4.5
      vertex -22.5 0 0
      vertex -22.5 0 -4.5
    endloop
  endfacet
  facet normal 0 0 -1
    outer loop
      vertex -6.952882373436316 -21.398771616640953 -4.5
      vertex -2.957125000655651 -5.1218907460570335 -4.5
      vertex -4.2160795781788085 -22.101463141395495 -4.5
    endloop
  endfacet
  facet normal 0 0 -1
    outer loop
      vertex -4.2160795781788085 -22.101463141395495 -4.5
      vertex 2.957125000655651 -5.1218907460570335 -4.5
      vertex -1.4127866894095598 -22.45560138963611 -4.5
    endloop
  endfacet
  facet normal -0.48175367410171427 -0.876306680043864 0
    outer loop
      vertex -12.056102887027427 -18.99737832379534 -4.5
      vertex -9.58003406021413 -20.35860868048544 -4.5
      vertex -9.58003406021413 -20.35860868048544 0
    endloop
  endfacet
  facet normal -0.3681245526846779 -0.9297764858882513 0
    outer loop
      vertex -9.58003406021413 -20.35860868048544 -4.5
      vertex -6.952882373436316 -21.398771616640953 -4.5
      vertex -6.952882373436316 -21.398771616640953 0
    endloop
  endfacet
  facet normal -0.24868988716485585 -0.9685831611286309 0
    outer loop
      vertex -6.952882373436316 -21.398771616640953 -4.5
      vertex -4.2160795781788085 -22.101463141395495 -4.5
      vertex -4.2160795781788085 -22.101463141395495 0
    endloop
  endfacet
  facet normal -0.12533323356430498 -0.9921147013144778 0
    outer loop
      vertex -4.2160795781788085 -22.101463141395495 -4.5
      vertex -1.4127866894095598 -22.45560138963611 -4.5
      vertex -1.4127866894095598 -22.45560138963611 0
    endloop
  endfacet
  facet normal 0 0 -1
    outer loop
      vertex -12.056102887027427 -18.99737832379534 -4.5
      vertex -9.580034060214135 20.35860868048544 -4.5
      vertex -9.58003406021413 -20.35860868048544 -4.5
    endloop
  endfacet
  facet normal 0 0 -1
    outer loop
      vertex -9.58003406021413 -20.35860868048544 -4.5
      vertex -6.952882373436316 21.398771616640953 -4.5
      vertex -6.952882373436316 -21.398771616640953 -4.5
    endloop
  endfacet
  facet normal 0 0 -1
    outer loop
      vertex -6.952882373436316 -21.398771616640953 -4.5
      vertex -5.914250001311302 0 -4.5
      vertex -2.957125000655651 -5.1218907460570335 -4.5
    endloop
  endfacet
  facet normal 0 0 -1
    outer loop
      vertex -4.2160795781788085 -22.101463141395495 -4.5
      vertex -2.957125000655651 -5.1218907460570335 -4.5
      vertex 2.957125000655651 -5.1218907460570335 -4.5
    endloop
  endfacet
  facet normal -0.770513242775789 -0.63742398974869 0
    outer loop
      vertex -16.401794116981762 -15.40230988339549 -4.5
      vertex -16.401794116981762 -15.40230988339549 0
      vertex -18.202882373436317 -13.225168176580645 0
    endloop
  endfacet
  facet normal -0.8443279255020153 -0.5358267949789964 0
    outer loop
      vertex -18.202882373436317 -13.225168176580645 -4.5
      vertex -18.202882373436317 -13.225168176580645 0
      vertex -19.71690030098693 -10.839457667288595 0
    endloop
  endfacet
  facet normal -0.5877852522924731 -0.8090169943749473 0
    outer loop
      vertex -14.342039769345517 -17.33654796245526 -4.5
      vertex -12.056102887027427 -18.99737832379534 0
      vertex -14.342039769345517 -17.33654796245526 0
    endloop
  endfacet
  facet normal -0.6845471059286891 -0.728968627421411 0
    outer loop
      vertex -16.401794116981762 -15.40230988339549 -4.5
      vertex -14.342039769345517 -17.33654796245526 0
      vertex -16.401794116981762 -15.40230988339549 0
    endloop
  endfacet
  facet normal -0.9048270524660194 -0.42577929156507305 0
    outer loop
      vertex -19.71690030098693 -10.839457667288595 -4.5
      vertex -19.71690030098693 -10.839457667288595 0
      vertex -20.919970932485658 -8.282802435405252 0
    endloop
  endfacet
  facet normal -0.9510565162951534 -0.30901699437494773 0
    outer loop
      vertex -20.919970932485658 -8.282802435405252 -4.5
      vertex -20.919970932485658 -8.282802435405252 0
      vertex -21.7931211253942 -5.595522461209234 0
    endloop
  endfacet
  facet normal -0.9822872507286887 -0.18738131458572418 0
    outer loop
      vertex -21.7931211253942 -5.595522461209234 -4.5
      vertex -21.7931211253942 -5.595522461209234 0
      vertex -22.322580779575752 -2.8199977551968414 0
    endloop
  endfacet
  facet normal -0.9980267284282716 -0.06279051952931325 0
    outer loop
      vertex -22.322580779575752 -2.8199977551968414 -4.5
      vertex -22.322580779575752 -2.8199977551968414 0
      vertex -22.5 0 0
    endloop
  endfacet
  facet normal 0 0 1
    outer loop
      vertex -19.71690030098693 -10.839457667288595 0
      vertex -20.919970932485658 8.282802435405252 0
      vertex -20.919970932485658 -8.282802435405252 0
    endloop
  endfacet
  facet normal 0 0 1
    outer loop
      vertex -21.7931211253942 -5.595522461209234 0
      vertex -22.322580779575752 2.8199977551968414 0
      vertex -22.322580779575752 -2.8199977551968414 0
    endloop
  endfacet
  facet normal 0 0 1
    outer loop
      vertex -20.919970932485658 -8.282802435405252 0
      vertex -21.7931211253942 5.595522461209234 0
      vertex -21.7931211253942 -5.595522461209234 0
    endloop
  endfacet
  facet normal 0 0 1
    outer loop
      vertex -18.202882373436317 -13.225168176580645 0
      vertex -19.71690030098693 10.839457667288595 0
      vertex -19.71690030098693 -10.839457667288595 0
    endloop
  endfacet
  facet normal 0 0 1
    outer loop
      vertex -18.202882373436317 -13.225168176580645 0
      vertex -16.401794116981762 -15.40230988339549 0
      vertex -18.202882373436317 13.225168176580645 0
    endloop
  endfacet
  facet normal 0 0 1
    outer loop
      vertex -14.342039769345517 -17.33654796245526 0
      vertex -16.401794116981762 15.40230988339549 0
      vertex -16.401794116981762 -15.40230988339549 0
    endloop
  endfacet
  facet normal 0 0 1
    outer loop
      vertex -14.342039769345517 -17.33654796245526 0
      vertex -12.056102887027427 -18.99737832379534 0
      vertex -14.342039769345517 17.33654796245526 0
    endloop
  endfacet
  facet normal -0.3681245526846779 -0.9297764858882513 0
    outer loop
      vertex -9.58003406021413 -20.35860868048544 -4.5
      vertex -6.952882373436316 -21.398771616640953 0
      vertex -9.58003406021413 -20.35860868048544 0
    endloop
  endfacet
  facet normal -0.48175367410171427 -0.876306680043864 0
    outer loop
      vertex -12.056102887027427 -18.99737832379534 -4.5
      vertex -9.58003406021413 -20.35860868048544 0
      vertex -12.056102887027427 -18.99737832379534 0
    endloop
  endfacet
  facet normal -0.24868988716485585 -0.9685831611286309 0
    outer loop
      vertex -6.952882373436316 -21.398771616640953 -4.5
      vertex -4.2160795781788085 -22.101463141395495 0
      vertex -6.952882373436316 -21.398771616640953 0
    endloop
  endfacet
  facet normal -0.12533323356430498 -0.9921147013144778 0
    outer loop
      vertex -4.2160795781788085 -22.101463141395495 -4.5
      vertex -1.4127866894095598 -22.45560138963611 0
      vertex -4.2160795781788085 -22.101463141395495 0
    endloop
  endfacet
  facet normal 0 -1 0
    outer loop
      vertex -1.4127866894095598 -22.45560138963611 -4.5
      vertex 1.4127866894095598 -22.45560138963611 0
      vertex -1.4127866894095598 -22.45560138963611 0
    endloop
  endfacet
  facet normal 0 0 1
    outer loop
      vertex -6.952882373436316 -21.398771616640953 0
      vertex -4.2160795781788085 -22.101463141395495 0
      vertex -5.914250001311302 0 0
    endloop
  endfacet
  facet normal 0 0 1
    outer loop
      vertex -4.2160795781788085 -22.101463141395495 0
      vertex -1.4127866894095598 -22.45560138963611 0
      vertex -2.957125000655651 -5.1218907460570335 0
    endloop
  endfacet
  facet normal 0 0 1
    outer loop
      vertex -1.4127866894095598 -22.45560138963611 0
      vertex 1.4127866894095598 -22.45560138963611 0
      vertex -2.957125000655651 -5.1218907460570335 0
    endloop
  endfacet
  facet normal 0 0 1
    outer loop
      vertex -12.056102887027427 -18.99737832379534 0
      vertex -9.58003406021413 -20.35860868048544 0
      vertex -12.056102887027427 18.99737832379534 0
    endloop
  endfacet
  facet normal 0 0 1
    outer loop
      vertex -9.58003406021413 -20.35860868048544 0
      vertex -6.952882373436316 -21.398771616640953 0
      vertex -9.580034060214135 20.35860868048544 0
    endloop
  endfacet
  facet normal 0 0 1
    outer loop
      vertex -4.2160795781788085 -22.101463141395495 0
      vertex -2.957125000655651 -5.1218907460570335 0
      vertex -5.914250001311302 0 0
    endloop
  endfacet
  facet normal 0 0 -1
    outer loop
      vertex -22.322580779575752 -2.8199977551968414 -4.5
      vertex -22.5 0 -4.5
      vertex -22.322580779575752 2.8199977551968414 -4.5
    endloop
  endfacet
  facet normal 0 0 -1
    outer loop
      vertex -22.322580779575752 -2.8199977551968414 -4.5
      vertex -22.322580779575752 2.8199977551968414 -4.5
      vertex -21.7931211253942 5.595522461209234 -4.5
    endloop
  endfacet
  facet normal 0 0 -1
    outer loop
      vertex -21.7931211253942 -5.595522461209234 -4.5
      vertex -21.7931211253942 5.595522461209234 -4.5
      vertex -20.919970932485658 8.282802435405252 -4.5
    endloop
  endfacet
  facet normal 0 0 -1
    outer loop
      vertex -20.919970932485658 -8.282802435405252 -4.5
      vertex -20.919970932485658 8.282802435405252 -4.5
      vertex -19.71690030098693 10.839457667288595 -4.5
    endloop
  endfacet
  facet normal 0 0 -1
    outer loop
      vertex -19.71690030098693 -10.839457667288595 -4.5
      vertex -19.71690030098693 10.839457667288595 -4.5
      vertex -18.202882373436317 13.225168176580645 -4.5
    endloop
  endfacet
  facet normal 0 0 -1
    outer loop
      vertex -18.202882373436317 -13.225168176580645 -4.5
      vertex -18.202882373436317 13.225168176580645 -4.5
      vertex -16.401794116981762 15.40230988339549 -4.5
    endloop
  endfacet
  facet normal 0 0 -1
    outer loop
      vertex -16.401794116981762 -15.40230988339549 -4.5
      vertex -16.401794116981762 15.40230988339549 -4.5
      vertex -14.342039769345517 17.33654796245526 -4.5
    endloop
  endfacet
  facet normal 0 0 -1
    outer loop
      vertex -14.342039769345517 -17.33654796245526 -4.5
      vertex -14.342039769345517 17.33654796245526 -4.5
      vertex -12.056102887027427 18.99737832379534 -4.5
    endloop
  endfacet
  facet normal -0.9980267284282716 0.06279051952931325 0
    outer loop
      vertex -22.5 0 -4.5
      vertex -22.322580779575752 2.8199977551968414 0
      vertex -22.322580779575752 2.8199977551968414 -4.5
    endloop
  endfacet
  facet normal -0.9822872507286887 0.18738131458572418 0
    outer loop
      vertex -22.322580779575752 2.8199977551968414 -4.5
      vertex -21.7931211253942 5.595522461209234 0
      vertex -21.7931211253942 5.595522461209234 -4.5
    endloop
  endfacet
  facet normal -0.9510565162951534 0.30901699437494773 0
    outer loop
      vertex -21.7931211253942 5.595522461209234 -4.5
      vertex -20.919970932485658 8.282802435405252 0
      vertex -20.919970932485658 8.282802435405252 -4.5
    endloop
  endfacet
  facet normal -0.9048270524660194 0.42577929156507305 0
    outer loop
      vertex -20.919970932485658 8.282802435405252 -4.5
      vertex -19.71690030098693 10.839457667288595 0
      vertex -19.71690030098693 10.839457667288595 -4.5
    endloop
  endfacet
  facet normal -0.8443279255020153 0.5358267949789964 0
    outer loop
      vertex -19.71690030098693 10.839457667288595 -4.5
      vertex -18.202882373436317 13.225168176580645 0
      vertex -18.202882373436317 13.225168176580645 -4.5
    endloop
  endfacet
  facet normal -0.770513242775789 0.63742398974869 0
    outer loop
      vertex -18.202882373436317 13.225168176580645 -4.5
      vertex -16.401794116981762 15.40230988339549 0
      vertex -16.401794116981762 15.40230988339549 -4.5
    endloop
  endfacet
  facet normal -0.6845471059286891 0.728968627421411 0
    outer loop
      vertex -16.401794116981762 15.40230988339549 -4.5
      vertex -16.401794116981762 15.40230988339549 0
      vertex -14.342039769345517 17.33654796245526 -4.5
    endloop
  endfacet
  facet normal -0.5877852522924731 0.8090169943749473 0
    outer loop
      vertex -14.342039769345517 17.33654796245526 -4.5
      vertex -14.342039769345517 17.33654796245526 0
      vertex -12.056102887027427 18.99737832379534 -4.5
    endloop
  endfacet
  facet normal 0 0 -1
    outer loop
      vertex -6.952882373436316 -21.398771616640953 -4.5
      vertex -6.952882373436316 21.398771616640953 -4.5
      vertex -5.914250001311302 0 -4.5
    endloop
  endfacet
  facet normal 0 0 -1
    outer loop
      vertex -12.056102887027427 -18.99737832379534 -4.5
      vertex -12.056102887027427 18.99737832379534 -4.5
      vertex -9.580034060214135 20.35860868048544 -4.5
    endloop
  endfacet
  facet normal 0 0 -1
    outer loop
      vertex -9.58003406021413 -20.35860868048544 -4.5
      vertex -9.580034060214135 20.35860868048544 -4.5
      vertex -6.952882373436316 21.398771616640953 -4.5
    endloop
  endfacet
  facet normal 0 0 -1
    outer loop
      vertex -4.216079578178803 22.101463141395495 -4.5
      vertex -2.957125000655651 5.1218907460570335 -4.5
      vertex -5.914250001311302 0 -4.5
    endloop
  endfacet
  facet normal 0 0 -1
    outer loop
      vertex -6.952882373436316 21.398771616640953 -4.5
      vertex -4.216079578178803 22.101463141395495 -4.5
      vertex -5.914250001311302 0 -4.5
    endloop
  endfacet
  facet normal 0 0 -1
    outer loop
      vertex -4.216079578178803 22.101463141395495 -4.5
      vertex -1.4127866894095487 22.45560138963611 -4.5
      vertex -2.957125000655651 5.1218907460570335 -4.5
    endloop
  endfacet
  facet normal 0 0 -1
    outer loop
      vertex -1.4127866894095487 22.45560138963611 -4.5
      vertex 1.4127866894095487 22.45560138963611 -4.5
      vertex -2.957125000655651 5.1218907460570335 -4.5
    endloop
  endfacet
  facet normal -0.4817536741017151 0.8763066800438637 0
    outer loop
      vertex -12.056102887027427 18.99737832379534 -4.5
      vertex -12.056102887027427 18.99737832379534 0
      vertex -9.580034060214135 20.35860868048544 -4.5
    endloop
  endfacet
  facet normal -0.3681245526846773 0.9297764858882516 0
    outer loop
      vertex -9.580034060214135 20.35860868048544 -4.5
      vertex -9.580034060214135 20.35860868048544 0
      vertex -6.952882373436316 21.398771616640953 -4.5
    endloop
  endfacet
  facet normal -0.24868988716485535 0.968583161128631 0
    outer loop
      vertex -6.952882373436316 21.398771616640953 -4.5
      vertex -6.952882373436316 21.398771616640953 0
      vertex -4.216079578178803 22.101463141395495 -4.5
    endloop
  endfacet
  facet normal -0.12533323356430473 0.9921147013144779 0
    outer loop
      vertex -4.216079578178803 22.101463141395495 -4.5
      vertex -4.216079578178803 22.101463141395495 0
      vertex -1.4127866894095487 22.45560138963611 -4.5
    endloop
  endfacet
  facet normal 0 1 0
    outer loop
      vertex -1.4127866894095487 22.45560138963611 -4.5
      vertex -1.4127866894095487 22.45560138963611 0
      vertex 1.4127866894095487 22.45560138963611 -4.5
    endloop
  endfacet
  facet normal -0.9980267284282716 0.06279051952931325 0
    outer loop
      vertex -22.5 0 -4.5
      vertex -22.5 0 0
      vertex -22.322580779575752 2.8199977551968414 0
    endloop
  endfacet
  facet normal -0.9822872507286887 0.18738131458572418 0
    outer loop
      vertex -22.322580779575752 2.8199977551968414 -4.5
      vertex -22.322580779575752 2.8199977551968414 0
      vertex -21.7931211253942 5.595522461209234 0
    endloop
  endfacet
  facet normal -0.9510565162951534 0.30901699437494773 0
    outer loop
      vertex -21.7931211253942 5.595522461209234 -4.5
      vertex -21.7931211253942 5.595522461209234 0
      vertex -20.919970932485658 8.282802435405252 0
    endloop
  endfacet
  facet normal -0.9048270524660194 0.42577929156507305 0
    outer loop
      vertex -20.919970932485658 8.282802435405252 -4.5
      vertex -20.919970932485658 8.282802435405252 0
      vertex -19.71690030098693 10.839457667288595 0
    endloop
  endfacet
  facet normal 0 0 1
    outer loop
      vertex -22.322580779575752 -2.8199977551968414 0
      vertex -22.322580779575752 2.8199977551968414 0
      vertex -22.5 0 0
    endloop
  endfacet
  facet normal 0 0 1
    outer loop
      vertex -21.7931211253942 -5.595522461209234 0
      vertex -21.7931211253942 5.595522461209234 0
      vertex -22.322580779575752 2.8199977551968414 0
    endloop
  endfacet
  facet normal 0 0 1
    outer loop
      vertex -20.919970932485658 -8.282802435405252 0
      vertex -20.919970932485658 8.282802435405252 0
      vertex -21.7931211253942 5.595522461209234 0
    endloop
  endfacet
  facet normal 0 0 1
    outer loop
      vertex -19.71690030098693 -10.839457667288595 0
      vertex -19.71690030098693 10.839457667288595 0
      vertex -20.919970932485658 8.282802435405252 0
    endloop
  endfacet
  facet normal 0 0 1
    outer loop
      vertex -18.202882373436317 -13.225168176580645 0
      vertex -18.202882373436317 13.225168176580645 0
      vertex -19.71690030098693 10.839457667288595 0
    endloop
  endfacet
  facet normal 0 0 1
    outer loop
      vertex -16.401794116981762 -15.40230988339549 0
      vertex -16.401794116981762 15.40230988339549 0
      vertex -18.202882373436317 13.225168176580645 0
    endloop
  endfacet
  facet normal 0 0 1
    outer loop
      vertex -14.342039769345517 -17.33654796245526 0
      vertex -14.342039769345517 17.33654796245526 0
      vertex -16.401794116981762 15.40230988339549 0
    endloop
  endfacet
  facet normal 0 0 1
    outer loop
      vertex -12.056102887027427 -18.99737832379534 0
      vertex -12.056102887027427 18.99737832379534 0
      vertex -14.342039769345517 17.33654796245526 0
    endloop
  endfacet
  facet normal -0.8443279255020153 0.5358267949789964 0
    outer loop
      vertex -19.71690030098693 10.839457667288595 -4.5
      vertex -19.71690030098693 10.839457667288595 0
      vertex -18.202882373436317 13.225168176580645 0
    endloop
  endfacet
  facet normal -0.770513242775789 0.63742398974869 0
    outer loop
      vertex -18.202882373436317 13.225168176580645 -4.5
      vertex -18.202882373436317 13.225168176580645 0
      vertex -16.401794116981762 15.40230988339549 0
    endloop
  endfacet
  facet normal -0.6845471059286891 0.728968627421411 0
    outer loop
      vertex -14.342039769345517 17.33654796245526 -4.5
      vertex -16.401794116981762 15.40230988339549 0
      vertex -14.342039769345517 17.33654796245526 0
    endloop
  endfacet
  facet normal -0.5877852522924731 0.8090169943749473 0
    outer loop
      vertex -12.056102887027427 18.99737832379534 -4.5
      vertex -14.342039769345517 17.33654796245526 0
      vertex -12.056102887027427 18.99737832379534 0
    endloop
  endfacet
  facet normal 0 0 1
    outer loop
      vertex -6.952882373436316 -21.398771616640953 0
      vertex -5.914250001311302 0 0
      vertex -6.952882373436316 21.398771616640953 0
    endloop
  endfacet
  facet normal 0 0 1
    outer loop
      vertex -9.58003406021413 -20.35860868048544 0
      vertex -9.580034060214135 20.35860868048544 0
      vertex -12.056102887027427 18.99737832379534 0
    endloop
  endfacet
  facet normal 0 0 1
    outer loop
      vertex -6.952882373436316 -21.398771616640953 0
      vertex -6.952882373436316 21.398771616640953 0
      vertex -9.580034060214135 20.35860868048544 0
    endloop
  endfacet
  facet normal 0 0 1
    outer loop
      vertex -6.952882373436316 21.398771616640953 0
      vertex -5.914250001311302 0 0
      vertex -2.957125000655651 5.1218907460570335 0
    endloop
  endfacet
  facet normal 0 0 1
    outer loop
      vertex -4.216079578178803 22.101463141395495 0
      vertex -2.957125000655651 5.1218907460570335 0
      vertex 2.957125000655651 5.1218907460570335 0
    endloop
  endfacet
  facet normal -0.4817536741017151 0.8763066800438637 0
    outer loop
      vertex -9.580034060214135 20.35860868048544 -4.5
      vertex -12.056102887027427 18.99737832379534 0
      vertex -9.580034060214135 20.35860868048544 0
    endloop
  endfacet
  facet normal -0.3681245526846773 0.9297764858882516 0
    outer loop
      vertex -6.952882373436316 21.398771616640953 -4.5
      vertex -9.580034060214135 20.35860868048544 0
      vertex -6.952882373436316 21.398771616640953 0
    endloop
  endfacet
  facet normal -0.24868988716485535 0.968583161128631 0
    outer loop
      vertex -4.216079578178803 22.101463141395495 -4.5
      vertex -6.952882373436316 21.398771616640953 0
      vertex -4.216079578178803 22.101463141395495 0
    endloop
  endfacet
  facet normal -0.12533323356430473 0.9921147013144779 0
    outer loop
      vertex -1.4127866894095487 22.45560138963611 -4.5
      vertex -4.216079578178803 22.101463141395495 0
      vertex -1.4127866894095487 22.45560138963611 0
    endloop
  endfacet
  facet normal 0 0 1
    outer loop
      vertex -6.952882373436316 21.398771616640953 0
      vertex -2.957125000655651 5.1218907460570335 0
      vertex -4.216079578178803 22.101463141395495 0
    endloop
  endfacet
  facet normal 0 0 1
    outer loop
      vertex -4.216079578178803 22.101463141395495 0
      vertex 2.957125000655651 5.1218907460570335 0
      vertex -1.4127866894095487 22.45560138963611 0
    endloop
  endfacet
  facet normal 0 0 -1
    outer loop
      vertex -1.4127866894095598 -22.45560138963611 -4.5
      vertex 2.957125000655651 -5.1218907460570335 -4.5
      vertex 1.4127866894095598 -22.45560138963611 -4.5
    endloop
  endfacet
  facet normal 0 0 -1
    outer loop
      vertex 1.4127866894095598 -22.45560138963611 -4.5
      vertex 2.957125000655651 -5.1218907460570335 -4.5
      vertex 4.2160795781788085 -22.101463141395495 -4.5
    endloop
  endfacet
  facet normal 0 0 -1
    outer loop
      vertex 4.2160795781788085 -22.101463141395495 -4.5
      vertex 5.914250001311302 0 -4.5
      vertex 6.952882373436316 -21.398771616640953 -4.5
    endloop
  endfacet
  facet normal 0 -1 0
    outer loop
      vertex -1.4127866894095598 -22.45560138963611 -4.5
      vertex 1.4127866894095598 -22.45560138963611 -4.5
      vertex 1.4127866894095598 -22.45560138963611 0
    endloop
  endfacet
  facet normal 0.12533323356430498 -0.9921147013144778 0
    outer loop
      vertex 1.4127866894095598 -22.45560138963611 -4.5
      vertex 4.2160795781788085 -22.101463141395495 -4.5
      vertex 4.2160795781788085 -22.101463141395495 0
    endloop
  endfacet
  facet normal 0.24868988716485585 -0.9685831611286309 0
    outer loop
      vertex 4.2160795781788085 -22.101463141395495 -4.5
      vertex 6.952882373436316 -21.398771616640953 -4.5
      vertex 6.952882373436316 -21.398771616640953 0
    endloop
  endfacet
  facet normal 0.3681245526846779 -0.9297764858882513 0
    outer loop
      vertex 6.952882373436316 -21.398771616640953 -4.5
      vertex 9.58003406021413 -20.35860868048544 -4.5
      vertex 9.58003406021413 -20.35860868048544 0
    endloop
  endfacet
  facet normal 0.4817536741017142 -0.8763066800438641 0
    outer loop
      vertex 9.58003406021413 -20.35860868048544 -4.5
      vertex 12.056102887027414 -18.997378323795346 -4.5
      vertex 12.056102887027414 -18.997378323795346 0
    endloop
  endfacet
  facet normal 0 0 -1
    outer loop
      vertex 4.2160795781788085 -22.101463141395495 -4.5
      vertex 2.957125000655651 -5.1218907460570335 -4.5
      vertex 5.914250001311302 0 -4.5
    endloop
  endfacet
  facet normal 0 0 -1
    outer loop
      vertex 6.952882373436316 -21.398771616640953 -4.5
      vertex 9.580034060214135 20.35860868048544 -4.5
      vertex 9.58003406021413 -20.35860868048544 -4.5
    endloop
  endfacet
  facet normal 0 0 -1
    outer loop
      vertex 9.58003406021413 -20.35860868048544 -4.5
      vertex 12.056102887027425 18.99737832379534 -4.5
      vertex 12.056102887027414 -18.997378323795346 -4.5
    endloop
  endfacet
  facet normal 0.5877852522924731 -0.8090169943749473 0
    outer loop
      vertex 12.056102887027414 -18.997378323795346 -4.5
      vertex 14.342039769345524 -17.336547962455253 -4.5
      vertex 14.342039769345524 -17.336547962455253 0
    endloop
  endfacet
  facet normal 0.6845471059286891 -0.7289686274214111 0
    outer loop
      vertex 14.342039769345524 -17.336547962455253 -4.5
      vertex 16.401794116981762 -15.40230988339549 -4.5
      vertex 16.401794116981762 -15.40230988339549 0
    endloop
  endfacet
  facet normal 0.770513242775789 -0.63742398974869 0
    outer loop
      vertex 16.401794116981762 -15.40230988339549 -4.5
      vertex 18.202882373436317 -13.225168176580645 -4.5
      vertex 16.401794116981762 -15.40230988339549 0
    endloop
  endfacet
  facet normal 0.8443279255020153 -0.5358267949789964 0
    outer loop
      vertex 18.202882373436317 -13.225168176580645 -4.5
      vertex 19.71690030098693 -10.839457667288595 -4.5
      vertex 18.202882373436317 -13.225168176580645 0
    endloop
  endfacet
  facet normal 0 0 -1
    outer loop
      vertex 12.056102887027414 -18.997378323795346 -4.5
      vertex 14.342039769345519 17.336547962455256 -4.5
      vertex 14.342039769345524 -17.336547962455253 -4.5
    endloop
  endfacet
  facet normal 0 0 -1
    outer loop
      vertex 14.342039769345524 -17.336547962455253 -4.5
      vertex 16.40179411698176 15.402309883395496 -4.5
      vertex 16.401794116981762 -15.40230988339549 -4.5
    endloop
  endfacet
  facet normal 0 0 -1
    outer loop
      vertex 16.401794116981762 -15.40230988339549 -4.5
      vertex 18.202882373436317 13.225168176580645 -4.5
      vertex 18.202882373436317 -13.225168176580645 -4.5
    endloop
  endfacet
  facet normal 0 0 -1
    outer loop
      vertex 18.202882373436317 -13.225168176580645 -4.5
      vertex 19.716900300986932 10.839457667288595 -4.5
      vertex 19.71690030098693 -10.839457667288595 -4.5
    endloop
  endfacet
  facet normal 0 0 -1
    outer loop
      vertex 19.71690030098693 -10.839457667288595 -4.5
      vertex 20.919970932485654 8.282802435405255 -4.5
      vertex 20.919970932485654 -8.282802435405262 -4.5
    endloop
  endfacet
  facet normal 0 0 -1
    outer loop
      vertex 20.919970932485654 -8.282802435405262 -4.5
      vertex 21.7931211253942 5.5955224612092325 -4.5
      vertex 21.7931211253942 -5.5955224612092245 -4.5
    endloop
  endfacet
  facet normal 0 0 -1
    outer loop
      vertex 21.7931211253942 -5.5955224612092245 -4.5
      vertex 22.322580779575752 2.819997755196846 -4.5
      vertex 22.322580779575752 -2.8199977551968414 -4.5
    endloop
  endfacet
  facet normal 0.9048270524660191 -0.42577929156507344 0
    outer loop
      vertex 19.71690030098693 -10.839457667288595 -4.5
      vertex 20.919970932485654 -8.282802435405262 -4.5
      vertex 19.71690030098693 -10.839457667288595 0
    endloop
  endfacet
  facet normal 0.9510565162951539 -0.3090169943749468 0
    outer loop
      vertex 20.919970932485654 -8.282802435405262 -4.5
      vertex 21.7931211253942 -5.5955224612092245 -4.5
      vertex 20.919970932485654 -8.282802435405262 0
    endloop
  endfacet
  facet normal 0.9822872507286886 -0.18738131458572482 0
    outer loop
      vertex 21.7931211253942 -5.5955224612092245 -4.5
      vertex 22.322580779575752 -2.8199977551968414 -4.5
      vertex 21.7931211253942 -5.5955224612092245 0
    endloop
  endfacet
  facet normal 0.9980267284282716 -0.06279051952931325 0
    outer loop
      vertex 22.322580779575752 -2.8199977551968414 -4.5
      vertex 22.5 0 -4.5
      vertex 22.322580779575752 -2.8199977551968414 0
    endloop
  endfacet
  facet normal 0.12533323356430498 -0.9921147013144778 0
    outer loop
      vertex 1.4127866894095598 -22.45560138963611 -4.5
      vertex 4.2160795781788085 -22.101463141395495 0
      vertex 1.4127866894095598 -22.45560138963611 0
    endloop
  endfacet
  facet normal 0.24868988716485585 -0.9685831611286309 0
    outer loop
      vertex 4.2160795781788085 -22.101463141395495 -4.5
      vertex 6.952882373436316 -21.398771616640953 0
      vertex 4.2160795781788085 -22.101463141395495 0
    endloop
  endfacet
  facet normal 0.3681245526846779 -0.9297764858882513 0
    outer loop
      vertex 6.952882373436316 -21.398771616640953 -4.5
      vertex 9.58003406021413 -20.35860868048544 0
      vertex 6.952882373436316 -21.398771616640953 0
    endloop
  endfacet
  facet normal 0.4817536741017142 -0.8763066800438641 0
    outer loop
      vertex 9.58003406021413 -20.35860868048544 -4.5
      vertex 12.056102887027414 -18.997378323795346 0
      vertex 9.58003406021413 -20.35860868048544 0
    endloop
  endfacet
  facet normal 0 0 1
    outer loop
      vertex 1.4127866894095598 -22.45560138963611 0
      vertex 4.2160795781788085 -22.101463141395495 0
      vertex -2.957125000655651 -5.1218907460570335 0
    endloop
  endfacet
  facet normal 0 0 1
    outer loop
      vertex 4.2160795781788085 -22.101463141395495 0
      vertex 6.952882373436316 -21.398771616640953 0
      vertex 2.957125000655651 -5.1218907460570335 0
    endloop
  endfacet
  facet normal 0 0 1
    outer loop
      vertex 4.2160795781788085 -22.101463141395495 0
      vertex 2.957125000655651 -5.1218907460570335 0
      vertex -2.957125000655651 -5.1218907460570335 0
    endloop
  endfacet
  facet normal 0 0 1
    outer loop
      vertex 6.952882373436316 -21.398771616640953 0
      vertex 5.914250001311302 0 0
      vertex 2.957125000655651 -5.1218907460570335 0
    endloop
  endfacet
  facet normal 0 0 1
    outer loop
      vertex 6.952882373436316 -21.398771616640953 0
      vertex 9.58003406021413 -20.35860868048544 0
      vertex 6.952882373436316 21.398771616640953 0
    endloop
  endfacet
  facet normal 0 0 1
    outer loop
      vertex 9.58003406021413 -20.35860868048544 0
      vertex 12.056102887027414 -18.997378323795346 0
      vertex 9.580034060214135 20.35860868048544 0
    endloop
  endfacet
  facet normal 0.5877852522924731 -0.8090169943749473 0
    outer loop
      vertex 12.056102887027414 -18.997378323795346 -4.5
      vertex 14.342039769345524 -17.336547962455253 0
      vertex 12.056102887027414 -18.997378323795346 0
    endloop
  endfacet
  facet normal 0.6845471059286891 -0.7289686274214111 0
    outer loop
      vertex 14.342039769345524 -17.336547962455253 -4.5
      vertex 16.401794116981762 -15.40230988339549 0
      vertex 14.342039769345524 -17.336547962455253 0
    endloop
  endfacet
  facet normal 0.770513242775789 -0.63742398974869 0
    outer loop
      vertex 18.202882373436317 -13.225168176580645 -4.5
      vertex 18.202882373436317 -13.225168176580645 0
      vertex 16.401794116981762 -15.40230988339549 0
    endloop
  endfacet
  facet normal 0.8443279255020153 -0.5358267949789964 0
    outer loop
      vertex 19.71690030098693 -10.839457667288595 -4.5
      vertex 19.71690030098693 -10.839457667288595 0
      vertex 18.202882373436317 -13.225168176580645 0
    endloop
  endfacet
  facet normal 0.9048270524660191 -0.42577929156507344 0
    outer loop
      vertex 20.919970932485654 -8.282802435405262 -4.5
      vertex 20.919970932485654 -8.282802435405262 0
      vertex 19.71690030098693 -10.839457667288595 0
    endloop
  endfacet
  facet normal 0.9510565162951539 -0.3090169943749468 0
    outer loop
      vertex 21.7931211253942 -5.5955224612092245 -4.5
      vertex 21.7931211253942 -5.5955224612092245 0
      vertex 20.919970932485654 -8.282802435405262 0
    endloop
  endfacet
  facet normal 0.9822872507286886 -0.18738131458572482 0
    outer loop
      vertex 22.322580779575752 -2.8199977551968414 -4.5
      vertex 22.322580779575752 -2.8199977551968414 0
      vertex 21.7931211253942 -5.5955224612092245 0
    endloop
  endfacet
  facet normal 0.9980267284282716 -0.06279051952931325 0
    outer loop
      vertex 22.322580779575752 -2.8199977551968414 0
      vertex 22.5 0 -4.5
      vertex 22.5 0 0
    endloop
  endfacet
  facet normal 0 0 1
    outer loop
      vertex 12.056102887027414 -18.997378323795346 0
      vertex 14.342039769345524 -17.336547962455253 0
      vertex 12.056102887027425 18.99737832379534 0
    endloop
  endfacet
  facet normal 0 0 1
    outer loop
      vertex 14.342039769345524 -17.336547962455253 0
      vertex 16.401794116981762 -15.40230988339549 0
      vertex 14.342039769345519 17.336547962455256 0
    endloop
  endfacet
  facet normal 0 0 1
    outer loop
      vertex 16.401794116981762 -15.40230988339549 0
      vertex 18.202882373436317 -13.225168176580645 0
      vertex 16.40179411698176 15.402309883395496 0
    endloop
  endfacet
  facet normal 0 0 1
    outer loop
      vertex 18.202882373436317 -13.225168176580645 0
      vertex 19.71690030098693 -10.839457667288595 0
      vertex 18.202882373436317 13.225168176580645 0
    endloop
  endfacet
  facet normal 0 0 1
    outer loop
      vertex 19.71690030098693 -10.839457667288595 0
      vertex 20.919970932485654 -8.282802435405262 0
      vertex 19.716900300986932 10.839457667288595 0
    endloop
  endfacet
  facet normal 0 0 1
    outer loop
      vertex 20.919970932485654 -8.282802435405262 0
      vertex 21.7931211253942 -5.5955224612092245 0
      vertex 20.919970932485654 8.282802435405255 0
    endloop
  endfacet
  facet normal 0 0 1
    outer loop
      vertex 21.7931211253942 -5.5955224612092245 0
      vertex 22.322580779575752 -2.8199977551968414 0
      vertex 21.7931211253942 5.5955224612092325 0
    endloop
  endfacet
  facet normal 0 0 -1
    outer loop
      vertex 4.216079578178803 22.101463141395495 -4.5
      vertex 2.957125000655651 5.1218907460570335 -4.5
      vertex -2.957125000655651 5.1218907460570335 -4.5
    endloop
  endfacet
  facet normal 0 0 -1
    outer loop
      vertex 6.952882373436316 21.398771616640953 -4.5
      vertex 5.914250001311302 0 -4.5
      vertex 2.957125000655651 5.1218907460570335 -4.5
    endloop
  endfacet
  facet normal 0 0 -1
    outer loop
      vertex 6.952882373436316 -21.398771616640953 -4.5
      vertex 5.914250001311302 0 -4.5
      vertex 6.952882373436316 21.398771616640953 -4.5
    endloop
  endfacet
  facet normal 0 0 -1
    outer loop
      vertex 6.952882373436316 -21.398771616640953 -4.5
      vertex 6.952882373436316 21.398771616640953 -4.5
      vertex 9.580034060214135 20.35860868048544 -4.5
    endloop
  endfacet
  facet normal 0 0 -1
    outer loop
      vertex 9.58003406021413 -20.35860868048544 -4.5
      vertex 9.580034060214135 20.35860868048544 -4.5
      vertex 12.056102887027425 18.99737832379534 -4.5
    endloop
  endfacet
  facet normal 0 0 -1
    outer loop
      vertex 1.4127866894095487 22.45560138963611 -4.5
      vertex 4.216079578178803 22.101463141395495 -4.5
      vertex -2.957125000655651 5.1218907460570335 -4.5
    endloop
  endfacet
  facet normal 0 0 -1
    outer loop
      vertex 4.216079578178803 22.101463141395495 -4.5
      vertex 6.952882373436316 21.398771616640953 -4.5
      vertex 2.957125000655651 5.1218907460570335 -4.5
    endloop
  endfacet
  facet normal 0.12533323356430473 0.9921147013144779 0
    outer loop
      vertex 1.4127866894095487 22.45560138963611 -4.5
      vertex 1.4127866894095487 22.45560138963611 0
      vertex 4.216079578178803 22.101463141395495 -4.5
    endloop
  endfacet
  facet normal 0.24868988716485535 0.968583161128631 0
    outer loop
      vertex 4.216079578178803 22.101463141395495 -4.5
      vertex 4.216079578178803 22.101463141395495 0
      vertex 6.952882373436316 21.398771616640953 -4.5
    endloop
  endfacet
  facet normal 0.3681245526846773 0.9297764858882516 0
    outer loop
      vertex 6.952882373436316 21.398771616640953 -4.5
      vertex 6.952882373436316 21.398771616640953 0
      vertex 9.580034060214135 20.35860868048544 -4.5
    endloop
  endfacet
  facet normal 0.4817536741017153 0.8763066800438635 0
    outer loop
      vertex 9.580034060214135 20.35860868048544 -4.5
      vertex 9.580034060214135 20.35860868048544 0
      vertex 12.056102887027425 18.99737832379534 -4.5
    endloop
  endfacet
  facet normal 0 0 -1
    outer loop
      vertex 14.342039769345524 -17.336547962455253 -4.5
      vertex 14.342039769345519 17.336547962455256 -4.5
      vertex 16.40179411698176 15.402309883395496 -4.5
    endloop
  endfacet
  facet normal 0 0 -1
    outer loop
      vertex 12.056102887027414 -18.997378323795346 -4.5
      vertex 12.056102887027425 18.99737832379534 -4.5
      vertex 14.342039769345519 17.336547962455256 -4.5
    endloop
  endfacet
  facet normal 0 0 -1
    outer loop
      vertex 16.401794116981762 -15.40230988339549 -4.5
      vertex 16.40179411698176 15.402309883395496 -4.5
      vertex 18.202882373436317 13.225168176580645 -4.5
    endloop
  endfacet
  facet normal 0 0 -1
    outer loop
      vertex 18.202882373436317 -13.225168176580645 -4.5
      vertex 18.202882373436317 13.225168176580645 -4.5
      vertex 19.716900300986932 10.839457667288595 -4.5
    endloop
  endfacet
  facet normal 0 0 -1
    outer loop
      vertex 19.71690030098693 -10.839457667288595 -4.5
      vertex 19.716900300986932 10.839457667288595 -4.5
      vertex 20.919970932485654 8.282802435405255 -4.5
    endloop
  endfacet
  facet normal 0 0 -1
    outer loop
      vertex 22.322580779575752 -2.8199977551968414 -4.5
      vertex 22.322580779575752 2.819997755196846 -4.5
      vertex 22.5 0 -4.5
    endloop
  endfacet
  facet normal 0 0 -1
    outer loop
      vertex 21.7931211253942 -5.5955224612092245 -4.5
      vertex 21.7931211253942 5.5955224612092325 -4.5
      vertex 22.322580779575752 2.819997755196846 -4.5
    endloop
  endfacet
  facet normal 0 0 -1
    outer loop
      vertex 20.919970932485654 -8.282802435405262 -4.5
      vertex 20.919970932485654 8.282802435405255 -4.5
      vertex 21.7931211253942 5.5955224612092325 -4.5
    endloop
  endfacet
  facet normal 0.9980267284282716 0.06279051952931315 0
    outer loop
      vertex 22.5 0 -4.5
      vertex 22.322580779575752 2.819997755196846 -4.5
      vertex 22.5 0 0
    endloop
  endfacet
  facet normal 0.9822872507286887 0.1873813145857246 0
    outer loop
      vertex 22.322580779575752 2.819997755196846 -4.5
      vertex 21.7931211253942 5.5955224612092325 -4.5
      vertex 22.322580779575752 2.819997755196846 0
    endloop
  endfacet
  facet normal 0.9510565162951532 0.3090169943749483 0
    outer loop
      vertex 21.7931211253942 5.5955224612092325 -4.5
      vertex 20.919970932485654 8.282802435405255 -4.5
      vertex 21.7931211253942 5.5955224612092325 0
    endloop
  endfacet
  facet normal 0.9048270524660201 0.42577929156507144 0
    outer loop
      vertex 20.919970932485654 8.282802435405255 -4.5
      vertex 19.716900300986932 10.839457667288595 -4.5
      vertex 20.919970932485654 8.282802435405255 0
    endloop
  endfacet
  facet normal 0.6845471059286885 0.7289686274214118 0
    outer loop
      vertex 16.40179411698176 15.402309883395496 -4.5
      vertex 14.342039769345519 17.336547962455256 -4.5
      vertex 14.342039769345519 17.336547962455256 0
    endloop
  endfacet
  facet normal 0.5877852522924735 0.8090169943749473 0
    outer loop
      vertex 12.056102887027425 18.99737832379534 -4.5
      vertex 12.056102887027425 18.99737832379534 0
      vertex 14.342039769345519 17.336547962455256 -4.5
    endloop
  endfacet
  facet normal 0.7705132427757893 0.6374239897486899 0
    outer loop
      vertex 16.40179411698176 15.402309883395496 -4.5
      vertex 18.202882373436317 13.225168176580645 0
      vertex 18.202882373436317 13.225168176580645 -4.5
    endloop
  endfacet
  facet normal 0.8443279255020147 0.5358267949789972 0
    outer loop
      vertex 19.716900300986932 10.839457667288595 -4.5
      vertex 18.202882373436317 13.225168176580645 -4.5
      vertex 19.716900300986932 10.839457667288595 0
    endloop
  endfacet
  facet normal 0 0 1
    outer loop
      vertex 4.216079578178803 22.101463141395495 0
      vertex 2.957125000655651 5.1218907460570335 0
      vertex 5.914250001311302 0 0
    endloop
  endfacet
  facet normal 0 0 1
    outer loop
      vertex 6.952882373436316 -21.398771616640953 0
      vertex 6.952882373436316 21.398771616640953 0
      vertex 5.914250001311302 0 0
    endloop
  endfacet
  facet normal 0 0 1
    outer loop
      vertex 9.58003406021413 -20.35860868048544 0
      vertex 9.580034060214135 20.35860868048544 0
      vertex 6.952882373436316 21.398771616640953 0
    endloop
  endfacet
  facet normal 0 0 1
    outer loop
      vertex 12.056102887027414 -18.997378323795346 0
      vertex 12.056102887027425 18.99737832379534 0
      vertex 9.580034060214135 20.35860868048544 0
    endloop
  endfacet
  facet normal 0 1 0
    outer loop
      vertex -1.4127866894095487 22.45560138963611 0
      vertex 1.4127866894095487 22.45560138963611 0
      vertex 1.4127866894095487 22.45560138963611 -4.5
    endloop
  endfacet
  facet normal 0.12533323356430473 0.9921147013144779 0
    outer loop
      vertex 4.216079578178803 22.101463141395495 -4.5
      vertex 1.4127866894095487 22.45560138963611 0
      vertex 4.216079578178803 22.101463141395495 0
    endloop
  endfacet
  facet normal 0.24868988716485535 0.968583161128631 0
    outer loop
      vertex 6.952882373436316 21.398771616640953 -4.5
      vertex 4.216079578178803 22.101463141395495 0
      vertex 6.952882373436316 21.398771616640953 0
    endloop
  endfacet
  facet normal 0.4817536741017153 0.8763066800438635 0
    outer loop
      vertex 12.056102887027425 18.99737832379534 -4.5
      vertex 9.580034060214135 20.35860868048544 0
      vertex 12.056102887027425 18.99737832379534 0
    endloop
  endfacet
  facet normal 0.3681245526846773 0.9297764858882516 0
    outer loop
      vertex 9.580034060214135 20.35860868048544 -4.5
      vertex 6.952882373436316 21.398771616640953 0
      vertex 9.580034060214135 20.35860868048544 0
    endloop
  endfacet
  facet normal 0 0 1
    outer loop
      vertex -1.4127866894095487 22.45560138963611 0
      vertex 2.957125000655651 5.1218907460570335 0
      vertex 1.4127866894095487 22.45560138963611 0
    endloop
  endfacet
  facet normal 0 0 1
    outer loop
      vertex 1.4127866894095487 22.45560138963611 0
      vertex 2.957125000655651 5.1218907460570335 0
      vertex 4.216079578178803 22.101463141395495 0
    endloop
  endfacet
  facet normal 0 0 1
    outer loop
      vertex 4.216079578178803 22.101463141395495 0
      vertex 5.914250001311302 0 0
      vertex 6.952882373436316 21.398771616640953 0
    endloop
  endfacet
  facet normal 0.9980267284282716 0.06279051952931315 0
    outer loop
      vertex 22.322580779575752 2.819997755196846 -4.5
      vertex 22.322580779575752 2.819997755196846 0
      vertex 22.5 0 0
    endloop
  endfacet
  facet normal 0.9822872507286887 0.1873813145857246 0
    outer loop
      vertex 21.7931211253942 5.5955224612092325 -4.5
      vertex 21.7931211253942 5.5955224612092325 0
      vertex 22.322580779575752 2.819997755196846 0
    endloop
  endfacet
  facet normal 0.9510565162951532 0.3090169943749483 0
    outer loop
      vertex 20.919970932485654 8.282802435405255 -4.5
      vertex 20.919970932485654 8.282802435405255 0
      vertex 21.7931211253942 5.5955224612092325 0
    endloop
  endfacet
  facet normal 0.9048270524660201 0.42577929156507144 0
    outer loop
      vertex 19.716900300986932 10.839457667288595 -4.5
      vertex 19.716900300986932 10.839457667288595 0
      vertex 20.919970932485654 8.282802435405255 0
    endloop
  endfacet
  facet normal 0 0 1
    outer loop
      vertex 14.342039769345524 -17.336547962455253 0
      vertex 14.342039769345519 17.336547962455256 0
      vertex 12.056102887027425 18.99737832379534 0
    endloop
  endfacet
  facet normal 0 0 1
    outer loop
      vertex 16.401794116981762 -15.40230988339549 0
      vertex 16.40179411698176 15.402309883395496 0
      vertex 14.342039769345519 17.336547962455256 0
    endloop
  endfacet
  facet normal 0 0 1
    outer loop
      vertex 18.202882373436317 -13.225168176580645 0
      vertex 18.202882373436317 13.225168176580645 0
      vertex 16.40179411698176 15.402309883395496 0
    endloop
  endfacet
  facet normal 0 0 1
    outer loop
      vertex 19.71690030098693 -10.839457667288595 0
      vertex 19.716900300986932 10.839457667288595 0
      vertex 18.202882373436317 13.225168176580645 0
    endloop
  endfacet
  facet normal 0 0 1
    outer loop
      vertex 22.322580779575752 -2.8199977551968414 0
      vertex 22.5 0 0
      vertex 22.322580779575752 2.819997755196846 0
    endloop
  endfacet
  facet normal 0 0 1
    outer loop
      vertex 21.7931211253942 -5.5955224612092245 0
      vertex 21.7931211253942 5.5955224612092325 0
      vertex 20.919970932485654 8.282802435405255 0
    endloop
  endfacet
  facet normal 0 0 1
    outer loop
      vertex 22.322580779575752 -2.8199977551968414 0
      vertex 22.322580779575752 2.819997755196846 0
      vertex 21.7931211253942 5.5955224612092325 0
    endloop
  endfacet
  facet normal 0 0 1
    outer loop
      vertex 20.919970932485654 -8.282802435405262 0
      vertex 20.919970932485654 8.282802435405255 0
      vertex 19.716900300986932 10.839457667288595 0
    endloop
  endfacet
  facet normal 0.6845471059286885 0.7289686274214118 0
    outer loop
      vertex 16.40179411698176 15.402309883395496 -4.5
      vertex 14.342039769345519 17.336547962455256 0
      vertex 16.40179411698176 15.402309883395496 0
    endloop
  endfacet
  facet normal 0.5877852522924735 0.8090169943749473 0
    outer loop
      vertex 14.342039769345519 17.336547962455256 -4.5
      vertex 12.056102887027425 18.99737832379534 0
      vertex 14.342039769345519 17.336547962455256 0
    endloop
  endfacet
  facet normal 0.8443279255020147 0.5358267949789972 0
    outer loop
      vertex 18.202882373436317 13.225168176580645 -4.5
      vertex 18.202882373436317 13.225168176580645 0
      vertex 19.716900300986932 10.839457667288595 0
    endloop
  endfacet
  facet normal 0.7705132427757893 0.6374239897486899 0
    outer loop
      vertex 16.40179411698176 15.402309883395496 -4.5
      vertex 16.40179411698176 15.402309883395496 0
      vertex 18.202882373436317 13.225168176580645 0
    endloop
  endfacet
  facet normal 0.8660254038093487 0.49999999995685457 0
    outer loop
      vertex -2.957125000655651 -5.1218907460570335 -4.5
      vertex -5.914250001311302 0 -4.5
      vertex -5.914250001311302 0 0
    endloop
  endfacet
  facet normal 0 1 0
    outer loop
      vertex 2.957125000655651 -5.1218907460570335 -4.5
      vertex -2.957125000655651 -5.1218907460570335 -4.5
      vertex -2.957125000655651 -5.1218907460570335 0
    endloop
  endfacet
  facet normal 0.8660254038093487 0.49999999995685457 0
    outer loop
      vertex -2.957125000655651 -5.1218907460570335 -4.5
      vertex -5.914250001311302 0 0
      vertex -2.957125000655651 -5.1218907460570335 0
    endloop
  endfacet
  facet normal 0.8660254038093487 -0.49999999995685457 0
    outer loop
      vertex -5.914250001311302 0 -4.5
      vertex -2.957125000655651 5.1218907460570335 -4.5
      vertex -2.957125000655651 5.1218907460570335 0
    endloop
  endfacet
  facet normal 0.8660254038093487 -0.49999999995685457 0
    outer loop
      vertex -2.957125000655651 5.1218907460570335 0
      vertex -5.914250001311302 0 0
      vertex -5.914250001311302 0 -4.5
    endloop
  endfacet
  facet normal 0 -1 0
    outer loop
      vertex -2.957125000655651 5.1218907460570335 -4.5
      vertex 2.957125000655651 5.1218907460570335 0
      vertex -2.957125000655651 5.1218907460570335 0
    endloop
  endfacet
  facet normal -0.8660254038093487 0.49999999995685457 0
    outer loop
      vertex 5.914250001311302 0 -4.5
      vertex 2.957125000655651 -5.1218907460570335 -4.5
      vertex 2.957125000655651 -5.1218907460570335 0
    endloop
  endfacet
  facet normal 0 1 0
    outer loop
      vertex 2.957125000655651 -5.1218907460570335 -4.5
      vertex -2.957125000655651 -5.1218907460570335 0
      vertex 2.957125000655651 -5.1218907460570335 0
    endloop
  endfacet
  facet normal -0.8660254038093487 0.49999999995685457 0
    outer loop
      vertex 2.957125000655651 -5.1218907460570335 0
      vertex 5.914250001311302 0 0
      vertex 5.914250001311302 0 -4.5
    endloop
  endfacet
  facet normal 0 -1 0
    outer loop
      vertex -2.957125000655651 5.1218907460570335 -4.5
      vertex 2.957125000655651 5.1218907460570335 -4.5
      vertex 2.957125000655651 5.1218907460570335 0
    endloop
  endfacet
  facet normal -0.8660254038093487 -0.49999999995685457 0
    outer loop
      vertex 2.957125000655651 5.1218907460570335 -4.5
      vertex 5.914250001311302 0 -4.5
      vertex 5.914250001311302 0 0
    endloop
  endfacet
  facet normal -0.8660254038093487 -0.49999999995685457 0
    outer loop
      vertex 2.957125000655651 5.1218907460570335 -4.5
      vertex 5.914250001311302 0 0
      vertex 2.957125000655651 5.1218907460570335 0
    endloop
  endfacet
endsolid OpenSCAD_Model
