solid OpenSCAD_Model
  facet normal 0 0 1
    outer loop
      vertex -1.7414370836817394 -2.7440657578815486 -5
      vertex -2.5496959589947585 -3.0820529711031575 -5
      vertex -2.143307179915987 -3.37731170200806 -5
    endloop
  endfacet
  facet normal 0 0 1
    outer loop
      vertex -2.369148039119588 -2.224778094268238 -5
      vertex -2.9158745096856467 -2.738188423714754 -5
      vertex -2.5496959589947585 -3.0820529711031575 -5
    endloop
  endfacet
  facet normal 0 0 1
    outer loop
      vertex -2.8479967101425565 -1.5656994408305749 -5
      vertex -3.23606797749979 -2.3511410091698925 -5
      vertex -2.9158745096856467 -2.738188423714754 -5
    endloop
  endfacet
  facet normal 0 0 1
    outer loop
      vertex -2.629305231718579 -1.9103020699505378 -5
      vertex -2.8479967101425565 -1.5656994408305749 -5
      vertex -2.9158745096856467 -2.738188423714754 -5
    endloop
  endfacet
  facet normal 0 0 1
    outer loop
      vertex -2.369148039119588 -2.224778094268238 -5
      vertex -2.629305231718579 -1.9103020699505378 -5
      vertex -2.9158745096856467 -2.738188423714754 -5
    endloop
  endfacet
  facet normal 0 0 1
    outer loop
      vertex -2.369148039119588 -2.224778094268238 -5
      vertex -2.5496959589947585 -3.0820529711031575 -5
      vertex -2.0716279666832413 -2.5041680390213155 -5
    endloop
  endfacet
  facet normal 0 0 1
    outer loop
      vertex -1.7414370836817394 -2.7440657578815486 -5
      vertex -2.0716279666832413 -2.5041680390213155 -5
      vertex -2.5496959589947585 -3.0820529711031575 -5
    endloop
  endfacet
  facet normal 0 0 1
    outer loop
      vertex -2.8479967101425565 -1.5656994408305749 -5
      vertex -3.719105943553006 -1.4724982107387115 -5
      vertex -3.505226720175454 -1.9270146964068615 -5
    endloop
  endfacet
  facet normal 0 0 1
    outer loop
      vertex -2.8479967101425565 -1.5656994408305749 -5
      vertex -3.505226720175454 -1.9270146964068615 -5
      vertex -3.23606797749979 -2.3511410091698925 -5
    endloop
  endfacet
  facet normal 0 0 1
    outer loop
      vertex -2.8479967101425565 -1.5656994408305749 -5
      vertex -3.8743326445145243 -0.9947595486594194 -5
      vertex -3.719105943553006 -1.4724982107387115 -5
    endloop
  endfacet
  facet normal 0 0 1
    outer loop
      vertex -3.021773579136817 -1.1964047962252031 -5
      vertex -3.8743326445145243 -0.9947595486594194 -5
      vertex -2.8479967101425565 -1.5656994408305749 -5
    endloop
  endfacet
  facet normal 0 0 1
    outer loop
      vertex -3.021773579136817 -1.1964047962252031 -5
      vertex -3.9684588052579115 -0.5013329342572163 -5
      vertex -3.8743326445145243 -0.9947595486594194 -5
    endloop
  endfacet
  facet normal 0 0 1
    outer loop
      vertex -3.224372779272053 -0.40733300908398823 -5
      vertex -4 0 -5
      vertex -3.9684588052579115 -0.5013329342572163 -5
    endloop
  endfacet
  facet normal 0 0 1
    outer loop
      vertex -3.021773579136817 -1.1964047962252031 -5
      vertex -3.147895273668051 -0.8082421332857783 -5
      vertex -3.9684588052579115 -0.5013329342572163 -5
    endloop
  endfacet
  facet normal 0 0 1
    outer loop
      vertex -3.147895273668051 -0.8082421332857783 -5
      vertex -3.224372779272053 -0.40733300908398823 -5
      vertex -3.9684588052579115 -0.5013329342572163 -5
    endloop
  endfacet
  facet normal 0 0 1
    outer loop
      vertex -3.224372779272053 -0.40733300908398823 -5
      vertex -3.25 0 -5
      vertex -4 0 -5
    endloop
  endfacet
  facet normal 0 0 1
    outer loop
      vertex -1.7414370836817394 -2.7440657578815486 -5
      vertex -2.143307179915987 -3.37731170200806 -5
      vertex -1.3837826975864855 -2.9406879205145637 -5
    endloop
  endfacet
  facet normal 0 0 1
    outer loop
      vertex -1.3837826975864855 -2.9406879205145637 -5
      vertex -2.143307179915987 -3.37731170200806 -5
      vertex -1.7031171662602897 -3.6193082098640783 -5
    endloop
  endfacet
  facet normal 0 0 1
    outer loop
      vertex -0.6089892724036057 -3.192433564868238 -5
      vertex -1.7031171662602897 -3.6193082098640783 -5
      vertex -1.2360679774997896 -3.804226065180614 -5
    endloop
  endfacet
  facet normal 0 0 1
    outer loop
      vertex -1.3837826975864855 -2.9406879205145637 -5
      vertex -1.7031171662602897 -3.6193082098640783 -5
      vertex -1.004305231718579 -3.090933677959249 -5
    endloop
  endfacet
  facet normal 0 0 1
    outer loop
      vertex -1.004305231718579 -3.090933677959249 -5
      vertex -1.7031171662602897 -3.6193082098640783 -5
      vertex -0.6089892724036057 -3.192433564868238 -5
    endloop
  endfacet
  facet normal 0 0 1
    outer loop
      vertex -0.20406918847026972 -3.2435868673918824 -5
      vertex -1.2360679774997896 -3.804226065180614 -5
      vertex -0.7495252583428993 -3.9291490029147544 -5
    endloop
  endfacet
  facet normal 0 0 1
    outer loop
      vertex -0.20406918847026972 -3.2435868673918824 -5
      vertex -0.6089892724036057 -3.192433564868238 -5
      vertex -1.2360679774997896 -3.804226065180614 -5
    endloop
  endfacet
  facet normal 0 0 1
    outer loop
      vertex -0.20406918847026972 -3.2435868673918824 -5
      vertex -0.7495252583428993 -3.9291490029147544 -5
      vertex -0.25116207811725505 -3.9921069137130862 -5
    endloop
  endfacet
  facet normal 0 0 1
    outer loop
      vertex -0.20406918847026972 -3.2435868673918824 -5
      vertex -0.25116207811725505 -3.9921069137130862 -5
      vertex 0.25116207811725505 -3.9921069137130862 -5
    endloop
  endfacet
  facet normal 0 0 1
    outer loop
      vertex -3.25 0 -5
      vertex -3.9684588052579115 0.5013329342572163 -5
      vertex -4 0 -5
    endloop
  endfacet
  facet normal 0 0 1
    outer loop
      vertex -3.224372779272053 0.40733300908398823 -5
      vertex -3.8743326445145243 0.9947595486594194 -5
      vertex -3.9684588052579115 0.5013329342572163 -5
    endloop
  endfacet
  facet normal 0 0 1
    outer loop
      vertex -3.25 0 -5
      vertex -3.224372779272053 0.40733300908398823 -5
      vertex -3.9684588052579115 0.5013329342572163 -5
    endloop
  endfacet
  facet normal 0 0 1
    outer loop
      vertex -3.224372779272053 0.40733300908398823 -5
      vertex -3.147895273668051 0.8082421332857783 -5
      vertex -3.8743326445145243 0.9947595486594194 -5
    endloop
  endfacet
  facet normal 0 0 1
    outer loop
      vertex -3.021773579136817 1.1964047962252031 -5
      vertex -3.719105943553006 1.4724982107387115 -5
      vertex -3.8743326445145243 0.9947595486594194 -5
    endloop
  endfacet
  facet normal 0 0 1
    outer loop
      vertex -3.147895273668051 0.8082421332857783 -5
      vertex -3.021773579136817 1.1964047962252031 -5
      vertex -3.8743326445145243 0.9947595486594194 -5
    endloop
  endfacet
  facet normal 0 0 1
    outer loop
      vertex -3.021773579136817 1.1964047962252031 -5
      vertex -3.505226720175454 1.9270146964068615 -5
      vertex -3.719105943553006 1.4724982107387115 -5
    endloop
  endfacet
  facet normal 0 0 1
    outer loop
      vertex -3.021773579136817 1.1964047962252031 -5
      vertex -3.23606797749979 2.3511410091698925 -5
      vertex -3.505226720175454 1.9270146964068615 -5
    endloop
  endfacet
  facet normal 0 0 1
    outer loop
      vertex -3.021773579136817 1.1964047962252031 -5
      vertex -2.8479967101425565 1.5656994408305749 -5
      vertex -2.9158745096856467 2.738188423714754 -5
    endloop
  endfacet
  facet normal 0 0 1
    outer loop
      vertex -3.021773579136817 1.1964047962252031 -5
      vertex -2.9158745096856467 2.738188423714754 -5
      vertex -3.23606797749979 2.3511410091698925 -5
    endloop
  endfacet
  facet normal 0 0 1
    outer loop
      vertex -2.8479967101425565 1.5656994408305749 -5
      vertex -2.5496959589947585 3.0820529711031575 -5
      vertex -2.9158745096856467 2.738188423714754 -5
    endloop
  endfacet
  facet normal 0 0 1
    outer loop
      vertex -2.8479967101425565 1.5656994408305749 -5
      vertex -2.629305231718579 1.9103020699505378 -5
      vertex -2.5496959589947585 3.0820529711031575 -5
    endloop
  endfacet
  facet normal 0 0 1
    outer loop
      vertex -2.629305231718579 1.9103020699505378 -5
      vertex -2.369148039119588 2.224778094268238 -5
      vertex -2.5496959589947585 3.0820529711031575 -5
    endloop
  endfacet
  facet normal 0 0 1
    outer loop
      vertex -2.369148039119588 2.224778094268238 -5
      vertex -2.143307179915987 3.37731170200806 -5
      vertex -2.5496959589947585 3.0820529711031575 -5
    endloop
  endfacet
  facet normal 0 0 1
    outer loop
      vertex -2.369148039119588 2.224778094268238 -5
      vertex -2.0716279666832413 2.5041680390213155 -5
      vertex -2.143307179915987 3.37731170200806 -5
    endloop
  endfacet
  facet normal 0 0 1
    outer loop
      vertex -2.0716279666832413 2.5041680390213155 -5
      vertex -1.7414370836817394 2.7440657578815486 -5
      vertex -2.143307179915987 3.37731170200806 -5
    endloop
  endfacet
  facet normal 0 0 1
    outer loop
      vertex -1.7414370836817394 2.7440657578815486 -5
      vertex -1.7031171662602909 3.619308209864078 -5
      vertex -2.143307179915987 3.37731170200806 -5
    endloop
  endfacet
  facet normal 0 0 1
    outer loop
      vertex -1.7414370836817394 2.7440657578815486 -5
      vertex -1.3837826975864864 2.9406879205145633 -5
      vertex -1.7031171662602909 3.619308209864078 -5
    endloop
  endfacet
  facet normal 0 0 1
    outer loop
      vertex -1.3837826975864864 2.9406879205145633 -5
      vertex -1.2360679774997896 3.804226065180614 -5
      vertex -1.7031171662602909 3.619308209864078 -5
    endloop
  endfacet
  facet normal 0 0 1
    outer loop
      vertex -1.3837826975864864 2.9406879205145633 -5
      vertex -1.004305231718579 3.090933677959249 -5
      vertex -1.2360679774997896 3.804226065180614 -5
    endloop
  endfacet
  facet normal 0 0 1
    outer loop
      vertex -1.004305231718579 3.090933677959249 -5
      vertex -0.6089892724036049 3.1924335648682383 -5
      vertex -1.2360679774997896 3.804226065180614 -5
    endloop
  endfacet
  facet normal 0 0 1
    outer loop
      vertex -0.6089892724036049 3.1924335648682383 -5
      vertex -0.7495252583428983 3.929149002914755 -5
      vertex -1.2360679774997896 3.804226065180614 -5
    endloop
  endfacet
  facet normal 0 0 1
    outer loop
      vertex -0.6089892724036049 3.1924335648682383 -5
      vertex -0.2511620781172531 3.9921069137130862 -5
      vertex -0.7495252583428983 3.929149002914755 -5
    endloop
  endfacet
  facet normal 0 0 1
    outer loop
      vertex -0.6089892724036049 3.1924335648682383 -5
      vertex 0.2511620781172531 3.9921069137130862 -5
      vertex -0.2511620781172531 3.9921069137130862 -5
    endloop
  endfacet
  facet normal 0 0 1
    outer loop
      vertex -0.20406918847026972 -3.2435868673918824 -5
      vertex 0.25116207811725505 -3.9921069137130862 -5
      vertex 0.7495252583428993 -3.9291490029147544 -5
    endloop
  endfacet
  facet normal 0 0 1
    outer loop
      vertex -0.20406918847026972 -3.2435868673918824 -5
      vertex 0.7495252583428993 -3.9291490029147544 -5
      vertex 0.20406918847026972 -3.2435868673918824 -5
    endloop
  endfacet
  facet normal 0 0 1
    outer loop
      vertex 0.6089892724036057 -3.192433564868238 -5
      vertex 0.7495252583428993 -3.9291490029147544 -5
      vertex 1.2360679774997896 -3.804226065180614 -5
    endloop
  endfacet
  facet normal 0 0 1
    outer loop
      vertex 0.20406918847026972 -3.2435868673918824 -5
      vertex 0.7495252583428993 -3.9291490029147544 -5
      vertex 0.6089892724036057 -3.192433564868238 -5
    endloop
  endfacet
  facet normal 0 0 1
    outer loop
      vertex 0.6089892724036057 -3.192433564868238 -5
      vertex 1.2360679774997896 -3.804226065180614 -5
      vertex 1.004305231718579 -3.090933677959249 -5
    endloop
  endfacet
  facet normal 0 0 1
    outer loop
      vertex 1.004305231718579 -3.090933677959249 -5
      vertex 1.2360679774997896 -3.804226065180614 -5
      vertex 1.3837826975864855 -2.9406879205145637 -5
    endloop
  endfacet
  facet normal 0 0 1
    outer loop
      vertex 1.3837826975864855 -2.9406879205145637 -5
      vertex 1.2360679774997896 -3.804226065180614 -5
      vertex 1.7031171662602897 -3.6193082098640783 -5
    endloop
  endfacet
  facet normal 0 0 1
    outer loop
      vertex 1.3837826975864855 -2.9406879205145637 -5
      vertex 1.7031171662602897 -3.6193082098640783 -5
      vertex 1.7414370836817377 -2.7440657578815495 -5
    endloop
  endfacet
  facet normal 0 0 1
    outer loop
      vertex 1.7414370836817377 -2.7440657578815495 -5
      vertex 1.7031171662602897 -3.6193082098640783 -5
      vertex 2.143307179915985 -3.377311702008061 -5
    endloop
  endfacet
  facet normal 0 0 1
    outer loop
      vertex 1.7414370836817377 -2.7440657578815495 -5
      vertex 2.143307179915985 -3.377311702008061 -5
      vertex 2.0716279666832422 -2.504168039021314 -5
    endloop
  endfacet
  facet normal 0 0 1
    outer loop
      vertex 2.0716279666832422 -2.504168039021314 -5
      vertex 2.143307179915985 -3.377311702008061 -5
      vertex 2.369148039119588 -2.224778094268238 -5
    endloop
  endfacet
  facet normal 0 0 1
    outer loop
      vertex 2.369148039119588 -2.224778094268238 -5
      vertex 2.143307179915985 -3.377311702008061 -5
      vertex 2.54969595899476 -3.082052971103156 -5
    endloop
  endfacet
  facet normal 0 0 1
    outer loop
      vertex 2.369148039119588 -2.224778094268238 -5
      vertex 2.54969595899476 -3.082052971103156 -5
      vertex 2.629305231718579 -1.9103020699505378 -5
    endloop
  endfacet
  facet normal 0 0 1
    outer loop
      vertex 2.629305231718579 -1.9103020699505378 -5
      vertex 2.54969595899476 -3.082052971103156 -5
      vertex 2.8479967101425565 -1.5656994408305749 -5
    endloop
  endfacet
  facet normal 0 0 1
    outer loop
      vertex 2.8479967101425565 -1.5656994408305749 -5
      vertex 2.54969595899476 -3.082052971103156 -5
      vertex 2.9158745096856467 -2.738188423714754 -5
    endloop
  endfacet
  facet normal 0 0 1
    outer loop
      vertex 3.0217735791368163 -1.1964047962252047 -5
      vertex 2.9158745096856467 -2.738188423714754 -5
      vertex 3.23606797749979 -2.3511410091698925 -5
    endloop
  endfacet
  facet normal 0 0 1
    outer loop
      vertex 2.8479967101425565 -1.5656994408305749 -5
      vertex 2.9158745096856467 -2.738188423714754 -5
      vertex 3.0217735791368163 -1.1964047962252047 -5
    endloop
  endfacet
  facet normal 0 0 1
    outer loop
      vertex 3.0217735791368163 -1.1964047962252047 -5
      vertex 3.23606797749979 -2.3511410091698925 -5
      vertex 3.505226720175454 -1.9270146964068615 -5
    endloop
  endfacet
  facet normal 0 0 1
    outer loop
      vertex 3.0217735791368163 -1.1964047962252047 -5
      vertex 3.505226720175454 -1.9270146964068615 -5
      vertex 3.719105943553005 -1.4724982107387135 -5
    endloop
  endfacet
  facet normal 0 0 1
    outer loop
      vertex 3.0217735791368163 -1.1964047962252047 -5
      vertex 3.8743326445145247 -0.9947595486594177 -5
      vertex 3.1478952736680514 -0.8082421332857769 -5
    endloop
  endfacet
  facet normal 0 0 1
    outer loop
      vertex 3.0217735791368163 -1.1964047962252047 -5
      vertex 3.719105943553005 -1.4724982107387135 -5
      vertex 3.8743326445145247 -0.9947595486594177 -5
    endloop
  endfacet
  facet normal 0 0 1
    outer loop
      vertex 3.1478952736680514 -0.8082421332857769 -5
      vertex 3.8743326445145247 -0.9947595486594177 -5
      vertex 3.224372779272053 -0.40733300908398823 -5
    endloop
  endfacet
  facet normal 0 0 1
    outer loop
      vertex 3.224372779272053 -0.40733300908398823 -5
      vertex 3.9684588052579115 -0.5013329342572163 -5
      vertex 3.25 0 -5
    endloop
  endfacet
  facet normal 0 0 1
    outer loop
      vertex 3.224372779272053 -0.40733300908398823 -5
      vertex 3.8743326445145247 -0.9947595486594177 -5
      vertex 3.9684588052579115 -0.5013329342572163 -5
    endloop
  endfacet
  facet normal 0 0 1
    outer loop
      vertex 3.25 0 -5
      vertex 3.9684588052579115 -0.5013329342572163 -5
      vertex 4 0 -5
    endloop
  endfacet
  facet normal 0 0 1
    outer loop
      vertex -0.6089892724036049 3.1924335648682383 -5
      vertex -0.20406918847026814 3.2435868673918824 -5
      vertex 1.2360679774997896 3.804226065180614 -5
    endloop
  endfacet
  facet normal 0 0 1
    outer loop
      vertex -0.20406918847026814 3.2435868673918824 -5
      vertex 0.20406918847026814 3.2435868673918824 -5
      vertex 1.2360679774997896 3.804226065180614 -5
    endloop
  endfacet
  facet normal 0 0 1
    outer loop
      vertex -0.6089892724036049 3.1924335648682383 -5
      vertex 1.2360679774997896 3.804226065180614 -5
      vertex 0.2511620781172531 3.9921069137130862 -5
    endloop
  endfacet
  facet normal 0 0 1
    outer loop
      vertex 0.6089892724036049 3.1924335648682383 -5
      vertex 1.2360679774997896 3.804226065180614 -5
      vertex 0.20406918847026814 3.2435868673918824 -5
    endloop
  endfacet
  facet normal 0 0 1
    outer loop
      vertex 0.2511620781172531 3.9921069137130862 -5
      vertex 1.2360679774997896 3.804226065180614 -5
      vertex 0.7495252583428983 3.929149002914755 -5
    endloop
  endfacet
  facet normal 0 0 1
    outer loop
      vertex 0.6089892724036049 3.1924335648682383 -5
      vertex 1.004305231718579 3.090933677959249 -5
      vertex 1.7031171662602909 3.619308209864078 -5
    endloop
  endfacet
  facet normal 0 0 1
    outer loop
      vertex 1.004305231718579 3.090933677959249 -5
      vertex 1.3837826975864864 2.9406879205145633 -5
      vertex 1.7031171662602909 3.619308209864078 -5
    endloop
  endfacet
  facet normal 0 0 1
    outer loop
      vertex 0.6089892724036049 3.1924335648682383 -5
      vertex 1.7031171662602909 3.619308209864078 -5
      vertex 1.2360679774997896 3.804226065180614 -5
    endloop
  endfacet
  facet normal 0 0 1
    outer loop
      vertex 1.3837826975864864 2.9406879205145633 -5
      vertex 2.1433071799159866 3.3773117020080603 -5
      vertex 1.7031171662602909 3.619308209864078 -5
    endloop
  endfacet
  facet normal 0 0 1
    outer loop
      vertex 1.3837826975864864 2.9406879205145633 -5
      vertex 1.7414370836817392 2.744065757881549 -5
      vertex 2.1433071799159866 3.3773117020080603 -5
    endloop
  endfacet
  facet normal 0 0 1
    outer loop
      vertex 3.25 0 -5
      vertex 4 0 -5
      vertex 3.224372779272053 0.40733300908398884 -5
    endloop
  endfacet
  facet normal 0 0 1
    outer loop
      vertex 3.224372779272053 0.40733300908398884 -5
      vertex 3.9684588052579115 0.501332934257217 -5
      vertex 3.147895273668051 0.8082421332857781 -5
    endloop
  endfacet
  facet normal 0 0 1
    outer loop
      vertex 3.147895273668051 0.8082421332857781 -5
      vertex 3.9684588052579115 0.501332934257217 -5
      vertex 3.0217735791368168 1.1964047962252033 -5
    endloop
  endfacet
  facet normal 0 0 1
    outer loop
      vertex 3.224372779272053 0.40733300908398884 -5
      vertex 4 0 -5
      vertex 3.9684588052579115 0.501332934257217 -5
    endloop
  endfacet
  facet normal 0 0 1
    outer loop
      vertex 3.0217735791368168 1.1964047962252033 -5
      vertex 3.9684588052579115 0.501332934257217 -5
      vertex 3.8743326445145243 0.9947595486594192 -5
    endloop
  endfacet
  facet normal 0 0 1
    outer loop
      vertex 2.8479967101425565 1.5656994408305749 -5
      vertex 3.0217735791368168 1.1964047962252033 -5
      vertex 3.8743326445145243 0.9947595486594192 -5
    endloop
  endfacet
  facet normal 0 0 1
    outer loop
      vertex 2.8479967101425565 1.5656994408305749 -5
      vertex 3.8743326445145243 0.9947595486594192 -5
      vertex 3.7191059435530054 1.472498210738712 -5
    endloop
  endfacet
  facet normal 0 0 1
    outer loop
      vertex 2.8479967101425565 1.5656994408305749 -5
      vertex 3.5052267201754543 1.9270146964068613 -5
      vertex 3.23606797749979 2.3511410091698925 -5
    endloop
  endfacet
  facet normal 0 0 1
    outer loop
      vertex 2.8479967101425565 1.5656994408305749 -5
      vertex 3.7191059435530054 1.472498210738712 -5
      vertex 3.5052267201754543 1.9270146964068613 -5
    endloop
  endfacet
  facet normal 0 0 1
    outer loop
      vertex 2.071627966683242 2.5041680390213146 -5
      vertex 2.549695958994759 3.0820529711031566 -5
      vertex 1.7414370836817392 2.744065757881549 -5
    endloop
  endfacet
  facet normal 0 0 1
    outer loop
      vertex 2.071627966683242 2.5041680390213146 -5
      vertex 2.3691480391195876 2.2247780942682382 -5
      vertex 2.549695958994759 3.0820529711031566 -5
    endloop
  endfacet
  facet normal 0 0 1
    outer loop
      vertex 2.629305231718579 1.9103020699505378 -5
      vertex 2.915874509685646 2.738188423714755 -5
      vertex 2.3691480391195876 2.2247780942682382 -5
    endloop
  endfacet
  facet normal 0 0 1
    outer loop
      vertex 2.8479967101425565 1.5656994408305749 -5
      vertex 2.915874509685646 2.738188423714755 -5
      vertex 2.629305231718579 1.9103020699505378 -5
    endloop
  endfacet
  facet normal 0 0 1
    outer loop
      vertex 2.8479967101425565 1.5656994408305749 -5
      vertex 3.23606797749979 2.3511410091698925 -5
      vertex 2.915874509685646 2.738188423714755 -5
    endloop
  endfacet
  facet normal 0 0 1
    outer loop
      vertex 2.3691480391195876 2.2247780942682382 -5
      vertex 2.915874509685646 2.738188423714755 -5
      vertex 2.549695958994759 3.0820529711031566 -5
    endloop
  endfacet
  facet normal 0 0 1
    outer loop
      vertex 1.7414370836817392 2.744065757881549 -5
      vertex 2.549695958994759 3.0820529711031566 -5
      vertex 2.1433071799159866 3.3773117020080603 -5
    endloop
  endfacet
  facet normal 0.7705132427757896 0.6374239897486893 0
    outer loop
      vertex -2.629305231718579 -1.9103020699505378 -5
      vertex -2.369148039119588 -2.224778094268238 -28.5
      vertex -2.629305231718579 -1.9103020699505378 -28.5
    endloop
  endfacet
  facet normal 0.6845471059286888 0.7289686274214114 0
    outer loop
      vertex -2.369148039119588 -2.224778094268238 -5
      vertex -2.0716279666832413 -2.5041680390213155 -28.5
      vertex -2.369148039119588 -2.224778094268238 -28.5
    endloop
  endfacet
  facet normal 0.9510565162951538 0.3090169943749472 0
    outer loop
      vertex -3.147895273668051 -0.8082421332857783 -5
      vertex -3.021773579136817 -1.1964047962252031 -28.5
      vertex -3.147895273668051 -0.8082421332857783 -28.5
    endloop
  endfacet
  facet normal 0.9822872507286887 0.1873813145857245 0
    outer loop
      vertex -3.224372779272053 -0.40733300908398823 -5
      vertex -3.147895273668051 -0.8082421332857783 -28.5
      vertex -3.224372779272053 -0.40733300908398823 -28.5
    endloop
  endfacet
  facet normal 0.9980267284282716 0.06279051952931358 0
    outer loop
      vertex -3.25 0 -5
      vertex -3.224372779272053 -0.40733300908398823 -28.5
      vertex -3.25 0 -28.5
    endloop
  endfacet
  facet normal 0.844327925502015 0.5358267949789967 0
    outer loop
      vertex -2.8479967101425565 -1.5656994408305749 -5
      vertex -2.629305231718579 -1.9103020699505378 -28.5
      vertex -2.8479967101425565 -1.5656994408305749 -28.5
    endloop
  endfacet
  facet normal 0.9048270524660194 0.4257792915650728 0
    outer loop
      vertex -3.021773579136817 -1.1964047962252031 -5
      vertex -2.8479967101425565 -1.5656994408305749 -28.5
      vertex -3.021773579136817 -1.1964047962252031 -28.5
    endloop
  endfacet
  facet normal 0.5877852522924725 0.8090169943749478 0
    outer loop
      vertex -2.0716279666832413 -2.5041680390213155 -5
      vertex -1.7414370836817394 -2.7440657578815486 -28.5
      vertex -2.0716279666832413 -2.5041680390213155 -28.5
    endloop
  endfacet
  facet normal 0.48175367410171555 0.8763066800438636 0
    outer loop
      vertex -1.7414370836817394 -2.7440657578815486 -5
      vertex -1.3837826975864855 -2.9406879205145637 -28.5
      vertex -1.7414370836817394 -2.7440657578815486 -28.5
    endloop
  endfacet
  facet normal 0.36812455268467736 0.9297764858882517 0
    outer loop
      vertex -1.3837826975864855 -2.9406879205145637 -5
      vertex -1.004305231718579 -3.090933677959249 -28.5
      vertex -1.3837826975864855 -2.9406879205145637 -28.5
    endloop
  endfacet
  facet normal 0.2486898871648548 0.9685831611286311 0
    outer loop
      vertex -1.004305231718579 -3.090933677959249 -5
      vertex -0.6089892724036057 -3.192433564868238 -28.5
      vertex -1.004305231718579 -3.090933677959249 -28.5
    endloop
  endfacet
  facet normal 0.12533323356430498 0.9921147013144779 0
    outer loop
      vertex -0.6089892724036057 -3.192433564868238 -5
      vertex -0.20406918847026972 -3.2435868673918824 -28.5
      vertex -0.6089892724036057 -3.192433564868238 -28.5
    endloop
  endfacet
  facet normal 0 1 0
    outer loop
      vertex -0.20406918847026972 -3.2435868673918824 -5
      vertex 0.20406918847026972 -3.2435868673918824 -28.5
      vertex -0.20406918847026972 -3.2435868673918824 -28.5
    endloop
  endfacet
  facet normal 0.7705132427757896 0.6374239897486893 0
    outer loop
      vertex -2.369148039119588 -2.224778094268238 -5
      vertex -2.369148039119588 -2.224778094268238 -28.5
      vertex -2.629305231718579 -1.9103020699505378 -5
    endloop
  endfacet
  facet normal 0.6845471059286888 0.7289686274214114 0
    outer loop
      vertex -2.369148039119588 -2.224778094268238 -5
      vertex -2.0716279666832413 -2.5041680390213155 -5
      vertex -2.0716279666832413 -2.5041680390213155 -28.5
    endloop
  endfacet
  facet normal 0.9510565162951538 0.3090169943749472 0
    outer loop
      vertex -3.021773579136817 -1.1964047962252031 -5
      vertex -3.021773579136817 -1.1964047962252031 -28.5
      vertex -3.147895273668051 -0.8082421332857783 -5
    endloop
  endfacet
  facet normal 0.9822872507286887 0.1873813145857245 0
    outer loop
      vertex -3.147895273668051 -0.8082421332857783 -5
      vertex -3.147895273668051 -0.8082421332857783 -28.5
      vertex -3.224372779272053 -0.40733300908398823 -5
    endloop
  endfacet
  facet normal 0.9980267284282716 0.06279051952931358 0
    outer loop
      vertex -3.224372779272053 -0.40733300908398823 -5
      vertex -3.224372779272053 -0.40733300908398823 -28.5
      vertex -3.25 0 -5
    endloop
  endfacet
  facet normal 0.844327925502015 0.5358267949789967 0
    outer loop
      vertex -2.629305231718579 -1.9103020699505378 -5
      vertex -2.629305231718579 -1.9103020699505378 -28.5
      vertex -2.8479967101425565 -1.5656994408305749 -5
    endloop
  endfacet
  facet normal 0.9048270524660194 0.4257792915650728 0
    outer loop
      vertex -3.021773579136817 -1.1964047962252031 -5
      vertex -2.8479967101425565 -1.5656994408305749 -5
      vertex -2.8479967101425565 -1.5656994408305749 -28.5
    endloop
  endfacet
  facet normal 0.36812455268467736 0.9297764858882517 0
    outer loop
      vertex -1.3837826975864855 -2.9406879205145637 -5
      vertex -1.004305231718579 -3.090933677959249 -5
      vertex -1.004305231718579 -3.090933677959249 -28.5
    endloop
  endfacet
  facet normal 0.5877852522924725 0.8090169943749478 0
    outer loop
      vertex -1.7414370836817394 -2.7440657578815486 -5
      vertex -1.7414370836817394 -2.7440657578815486 -28.5
      vertex -2.0716279666832413 -2.5041680390213155 -5
    endloop
  endfacet
  facet normal 0.48175367410171555 0.8763066800438636 0
    outer loop
      vertex -1.7414370836817394 -2.7440657578815486 -5
      vertex -1.3837826975864855 -2.9406879205145637 -5
      vertex -1.3837826975864855 -2.9406879205145637 -28.5
    endloop
  endfacet
  facet normal 0.2486898871648548 0.9685831611286311 0
    outer loop
      vertex -1.004305231718579 -3.090933677959249 -5
      vertex -0.6089892724036057 -3.192433564868238 -5
      vertex -0.6089892724036057 -3.192433564868238 -28.5
    endloop
  endfacet
  facet normal 0.12533323356430498 0.9921147013144779 0
    outer loop
      vertex -0.20406918847026972 -3.2435868673918824 -5
      vertex -0.20406918847026972 -3.2435868673918824 -28.5
      vertex -0.6089892724036057 -3.192433564868238 -5
    endloop
  endfacet
  facet normal 0.9980267284282716 -0.06279051952931358 0
    outer loop
      vertex -3.224372779272053 0.40733300908398823 -5
      vertex -3.25 0 -28.5
      vertex -3.224372779272053 0.40733300908398823 -28.5
    endloop
  endfacet
  facet normal 0.9822872507286887 -0.1873813145857245 0
    outer loop
      vertex -3.147895273668051 0.8082421332857783 -5
      vertex -3.224372779272053 0.40733300908398823 -28.5
      vertex -3.147895273668051 0.8082421332857783 -28.5
    endloop
  endfacet
  facet normal 0.9510565162951538 -0.3090169943749472 0
    outer loop
      vertex -3.021773579136817 1.1964047962252031 -5
      vertex -3.147895273668051 0.8082421332857783 -28.5
      vertex -3.021773579136817 1.1964047962252031 -28.5
    endloop
  endfacet
  facet normal 0.9048270524660194 -0.4257792915650728 0
    outer loop
      vertex -2.8479967101425565 1.5656994408305749 -5
      vertex -3.021773579136817 1.1964047962252031 -28.5
      vertex -2.8479967101425565 1.5656994408305749 -28.5
    endloop
  endfacet
  facet normal 0.844327925502015 -0.5358267949789967 0
    outer loop
      vertex -2.629305231718579 1.9103020699505378 -5
      vertex -2.8479967101425565 1.5656994408305749 -28.5
      vertex -2.629305231718579 1.9103020699505378 -28.5
    endloop
  endfacet
  facet normal 0.7705132427757896 -0.6374239897486893 0
    outer loop
      vertex -2.369148039119588 2.224778094268238 -5
      vertex -2.629305231718579 1.9103020699505378 -28.5
      vertex -2.369148039119588 2.224778094268238 -28.5
    endloop
  endfacet
  facet normal 0.6845471059286888 -0.7289686274214114 0
    outer loop
      vertex -2.0716279666832413 2.5041680390213155 -5
      vertex -2.369148039119588 2.224778094268238 -28.5
      vertex -2.0716279666832413 2.5041680390213155 -28.5
    endloop
  endfacet
  facet normal 0.5877852522924725 -0.8090169943749478 0
    outer loop
      vertex -1.7414370836817394 2.7440657578815486 -5
      vertex -2.0716279666832413 2.5041680390213155 -28.5
      vertex -1.7414370836817394 2.7440657578815486 -28.5
    endloop
  endfacet
  facet normal 0.4817536741017156 -0.8763066800438635 0
    outer loop
      vertex -1.3837826975864864 2.9406879205145633 -5
      vertex -1.7414370836817394 2.7440657578815486 -28.5
      vertex -1.3837826975864864 2.9406879205145633 -28.5
    endloop
  endfacet
  facet normal 0.36812455268467753 -0.9297764858882517 0
    outer loop
      vertex -1.004305231718579 3.090933677959249 -5
      vertex -1.3837826975864864 2.9406879205145633 -28.5
      vertex -1.004305231718579 3.090933677959249 -28.5
    endloop
  endfacet
  facet normal 0.24868988716485535 -0.9685831611286309 0
    outer loop
      vertex -0.6089892724036049 3.1924335648682383 -5
      vertex -1.004305231718579 3.090933677959249 -28.5
      vertex -0.6089892724036049 3.1924335648682383 -28.5
    endloop
  endfacet
  facet normal 0.12533323356430362 -0.9921147013144779 0
    outer loop
      vertex -0.20406918847026814 3.2435868673918824 -5
      vertex -0.6089892724036049 3.1924335648682383 -28.5
      vertex -0.20406918847026814 3.2435868673918824 -28.5
    endloop
  endfacet
  facet normal 0.9980267284282716 -0.06279051952931358 0
    outer loop
      vertex -3.25 0 -5
      vertex -3.25 0 -28.5
      vertex -3.224372779272053 0.40733300908398823 -5
    endloop
  endfacet
  facet normal 0.9822872507286887 -0.1873813145857245 0
    outer loop
      vertex -3.224372779272053 0.40733300908398823 -5
      vertex -3.224372779272053 0.40733300908398823 -28.5
      vertex -3.147895273668051 0.8082421332857783 -5
    endloop
  endfacet
  facet normal 0.9510565162951538 -0.3090169943749472 0
    outer loop
      vertex -3.147895273668051 0.8082421332857783 -5
      vertex -3.147895273668051 0.8082421332857783 -28.5
      vertex -3.021773579136817 1.1964047962252031 -5
    endloop
  endfacet
  facet normal 0.9048270524660194 -0.4257792915650728 0
    outer loop
      vertex -3.021773579136817 1.1964047962252031 -5
      vertex -3.021773579136817 1.1964047962252031 -28.5
      vertex -2.8479967101425565 1.5656994408305749 -5
    endloop
  endfacet
  facet normal 0.844327925502015 -0.5358267949789967 0
    outer loop
      vertex -2.8479967101425565 1.5656994408305749 -5
      vertex -2.8479967101425565 1.5656994408305749 -28.5
      vertex -2.629305231718579 1.9103020699505378 -5
    endloop
  endfacet
  facet normal 0.7705132427757896 -0.6374239897486893 0
    outer loop
      vertex -2.629305231718579 1.9103020699505378 -5
      vertex -2.629305231718579 1.9103020699505378 -28.5
      vertex -2.369148039119588 2.224778094268238 -5
    endloop
  endfacet
  facet normal 0.6845471059286888 -0.7289686274214114 0
    outer loop
      vertex -2.369148039119588 2.224778094268238 -5
      vertex -2.369148039119588 2.224778094268238 -28.5
      vertex -2.0716279666832413 2.5041680390213155 -5
    endloop
  endfacet
  facet normal 0.5877852522924725 -0.8090169943749478 0
    outer loop
      vertex -2.0716279666832413 2.5041680390213155 -5
      vertex -2.0716279666832413 2.5041680390213155 -28.5
      vertex -1.7414370836817394 2.7440657578815486 -5
    endloop
  endfacet
  facet normal 0.4817536741017156 -0.8763066800438635 0
    outer loop
      vertex -1.7414370836817394 2.7440657578815486 -5
      vertex -1.7414370836817394 2.7440657578815486 -28.5
      vertex -1.3837826975864864 2.9406879205145633 -5
    endloop
  endfacet
  facet normal 0.36812455268467753 -0.9297764858882517 0
    outer loop
      vertex -1.3837826975864864 2.9406879205145633 -5
      vertex -1.3837826975864864 2.9406879205145633 -28.5
      vertex -1.004305231718579 3.090933677959249 -5
    endloop
  endfacet
  facet normal 0.24868988716485535 -0.9685831611286309 0
    outer loop
      vertex -1.004305231718579 3.090933677959249 -5
      vertex -1.004305231718579 3.090933677959249 -28.5
      vertex -0.6089892724036049 3.1924335648682383 -5
    endloop
  endfacet
  facet normal 0.12533323356430362 -0.9921147013144779 0
    outer loop
      vertex -0.6089892724036049 3.1924335648682383 -5
      vertex -0.6089892724036049 3.1924335648682383 -28.5
      vertex -0.20406918847026814 3.2435868673918824 -5
    endloop
  endfacet
  facet normal 0 -1 0
    outer loop
      vertex -0.20406918847026814 3.2435868673918824 -5
      vertex -0.20406918847026814 3.2435868673918824 -28.5
      vertex 0.20406918847026814 3.2435868673918824 -5
    endloop
  endfacet
  facet normal -0.12533323356430498 0.9921147013144779 0
    outer loop
      vertex 0.20406918847026972 -3.2435868673918824 -5
      vertex 0.6089892724036057 -3.192433564868238 -28.5
      vertex 0.20406918847026972 -3.2435868673918824 -28.5
    endloop
  endfacet
  facet normal -0.2486898871648548 0.9685831611286311 0
    outer loop
      vertex 0.6089892724036057 -3.192433564868238 -5
      vertex 1.004305231718579 -3.090933677959249 -28.5
      vertex 0.6089892724036057 -3.192433564868238 -28.5
    endloop
  endfacet
  facet normal -0.36812455268467736 0.9297764858882517 0
    outer loop
      vertex 1.004305231718579 -3.090933677959249 -5
      vertex 1.3837826975864855 -2.9406879205145637 -28.5
      vertex 1.004305231718579 -3.090933677959249 -28.5
    endloop
  endfacet
  facet normal -0.48175367410171566 0.8763066800438634 0
    outer loop
      vertex 1.3837826975864855 -2.9406879205145637 -5
      vertex 1.7414370836817377 -2.7440657578815495 -28.5
      vertex 1.3837826975864855 -2.9406879205145637 -28.5
    endloop
  endfacet
  facet normal -0.587785252292473 0.8090169943749476 0
    outer loop
      vertex 1.7414370836817377 -2.7440657578815495 -5
      vertex 2.0716279666832422 -2.504168039021314 -28.5
      vertex 1.7414370836817377 -2.7440657578815495 -28.5
    endloop
  endfacet
  facet normal -0.6845471059286882 0.728968627421412 0
    outer loop
      vertex 2.0716279666832422 -2.504168039021314 -5
      vertex 2.369148039119588 -2.224778094268238 -28.5
      vertex 2.0716279666832422 -2.504168039021314 -28.5
    endloop
  endfacet
  facet normal -0.7705132427757896 0.6374239897486893 0
    outer loop
      vertex 2.369148039119588 -2.224778094268238 -5
      vertex 2.629305231718579 -1.9103020699505378 -28.5
      vertex 2.369148039119588 -2.224778094268238 -28.5
    endloop
  endfacet
  facet normal -0.844327925502015 0.5358267949789967 0
    outer loop
      vertex 2.629305231718579 -1.9103020699505378 -5
      vertex 2.8479967101425565 -1.5656994408305749 -28.5
      vertex 2.629305231718579 -1.9103020699505378 -28.5
    endloop
  endfacet
  facet normal -0.9048270524660195 0.4257792915650725 0
    outer loop
      vertex 2.8479967101425565 -1.5656994408305749 -5
      vertex 3.0217735791368163 -1.1964047962252047 -28.5
      vertex 2.8479967101425565 -1.5656994408305749 -28.5
    endloop
  endfacet
  facet normal -0.9510565162951534 0.3090169943749479 0
    outer loop
      vertex 3.0217735791368163 -1.1964047962252047 -5
      vertex 3.1478952736680514 -0.8082421332857769 -28.5
      vertex 3.0217735791368163 -1.1964047962252047 -28.5
    endloop
  endfacet
  facet normal -0.9822872507286887 0.18738131458572405 0
    outer loop
      vertex 3.1478952736680514 -0.8082421332857769 -5
      vertex 3.224372779272053 -0.40733300908398823 -28.5
      vertex 3.1478952736680514 -0.8082421332857769 -28.5
    endloop
  endfacet
  facet normal -0.9980267284282716 0.06279051952931358 0
    outer loop
      vertex 3.224372779272053 -0.40733300908398823 -5
      vertex 3.25 0 -28.5
      vertex 3.224372779272053 -0.40733300908398823 -28.5
    endloop
  endfacet
  facet normal 0 1 0
    outer loop
      vertex -0.20406918847026972 -3.2435868673918824 -5
      vertex 0.20406918847026972 -3.2435868673918824 -5
      vertex 0.20406918847026972 -3.2435868673918824 -28.5
    endloop
  endfacet
  facet normal -0.12533323356430498 0.9921147013144779 0
    outer loop
      vertex 0.20406918847026972 -3.2435868673918824 -5
      vertex 0.6089892724036057 -3.192433564868238 -5
      vertex 0.6089892724036057 -3.192433564868238 -28.5
    endloop
  endfacet
  facet normal -0.2486898871648548 0.9685831611286311 0
    outer loop
      vertex 0.6089892724036057 -3.192433564868238 -5
      vertex 1.004305231718579 -3.090933677959249 -5
      vertex 1.004305231718579 -3.090933677959249 -28.5
    endloop
  endfacet
  facet normal -0.36812455268467736 0.9297764858882517 0
    outer loop
      vertex 1.004305231718579 -3.090933677959249 -5
      vertex 1.3837826975864855 -2.9406879205145637 -5
      vertex 1.3837826975864855 -2.9406879205145637 -28.5
    endloop
  endfacet
  facet normal -0.48175367410171566 0.8763066800438634 0
    outer loop
      vertex 1.3837826975864855 -2.9406879205145637 -5
      vertex 1.7414370836817377 -2.7440657578815495 -5
      vertex 1.7414370836817377 -2.7440657578815495 -28.5
    endloop
  endfacet
  facet normal -0.587785252292473 0.8090169943749476 0
    outer loop
      vertex 1.7414370836817377 -2.7440657578815495 -5
      vertex 2.0716279666832422 -2.504168039021314 -5
      vertex 2.0716279666832422 -2.504168039021314 -28.5
    endloop
  endfacet
  facet normal -0.6845471059286882 0.728968627421412 0
    outer loop
      vertex 2.0716279666832422 -2.504168039021314 -5
      vertex 2.369148039119588 -2.224778094268238 -5
      vertex 2.369148039119588 -2.224778094268238 -28.5
    endloop
  endfacet
  facet normal -0.7705132427757896 0.6374239897486893 0
    outer loop
      vertex 2.369148039119588 -2.224778094268238 -5
      vertex 2.629305231718579 -1.9103020699505378 -5
      vertex 2.629305231718579 -1.9103020699505378 -28.5
    endloop
  endfacet
  facet normal -0.844327925502015 0.5358267949789967 0
    outer loop
      vertex 2.629305231718579 -1.9103020699505378 -5
      vertex 2.8479967101425565 -1.5656994408305749 -5
      vertex 2.8479967101425565 -1.5656994408305749 -28.5
    endloop
  endfacet
  facet normal -0.9048270524660195 0.4257792915650725 0
    outer loop
      vertex 2.8479967101425565 -1.5656994408305749 -5
      vertex 3.0217735791368163 -1.1964047962252047 -5
      vertex 3.0217735791368163 -1.1964047962252047 -28.5
    endloop
  endfacet
  facet normal -0.9510565162951534 0.3090169943749479 0
    outer loop
      vertex 3.0217735791368163 -1.1964047962252047 -5
      vertex 3.1478952736680514 -0.8082421332857769 -5
      vertex 3.1478952736680514 -0.8082421332857769 -28.5
    endloop
  endfacet
  facet normal -0.9822872507286887 0.18738131458572405 0
    outer loop
      vertex 3.1478952736680514 -0.8082421332857769 -5
      vertex 3.224372779272053 -0.40733300908398823 -5
      vertex 3.224372779272053 -0.40733300908398823 -28.5
    endloop
  endfacet
  facet normal -0.9980267284282716 0.06279051952931358 0
    outer loop
      vertex 3.224372779272053 -0.40733300908398823 -5
      vertex 3.25 0 -5
      vertex 3.25 0 -28.5
    endloop
  endfacet
  facet normal 0 -1 0
    outer loop
      vertex 0.20406918847026814 3.2435868673918824 -5
      vertex -0.20406918847026814 3.2435868673918824 -28.5
      vertex 0.20406918847026795 3.2435868673918824 -28.5
    endloop
  endfacet
  facet normal -0.1253332335643036 -0.9921147013144779 0
    outer loop
      vertex 0.6089892724036049 3.1924335648682383 -5
      vertex 0.20406918847026795 3.2435868673918824 -28.5
      vertex 0.6089892724036049 3.1924335648682383 -28.5
    endloop
  endfacet
  facet normal -0.24868988716485535 -0.9685831611286309 0
    outer loop
      vertex 1.004305231718579 3.090933677959249 -5
      vertex 0.6089892724036049 3.1924335648682383 -28.5
      vertex 1.004305231718579 3.090933677959249 -28.5
    endloop
  endfacet
  facet normal -0.36812455268467753 -0.9297764858882517 0
    outer loop
      vertex 1.3837826975864864 2.9406879205145633 -5
      vertex 1.004305231718579 3.090933677959249 -28.5
      vertex 1.3837826975864864 2.9406879205145633 -28.5
    endloop
  endfacet
  facet normal -0.48175367410171493 -0.8763066800438637 0
    outer loop
      vertex 1.7414370836817392 2.744065757881549 -5
      vertex 1.3837826975864864 2.9406879205145633 -28.5
      vertex 1.7414370836817392 2.744065757881549 -28.5
    endloop
  endfacet
  facet normal -0.5877852522924738 -0.8090169943749469 0
    outer loop
      vertex 2.071627966683242 2.5041680390213146 -5
      vertex 1.7414370836817392 2.744065757881549 -28.5
      vertex 2.071627966683242 2.5041680390213146 -28.5
    endloop
  endfacet
  facet normal -0.9048270524660198 -0.42577929156507216 0
    outer loop
      vertex 3.0217735791368168 1.1964047962252033 -5
      vertex 2.8479967101425565 1.5656994408305749 -28.5
      vertex 3.0217735791368168 1.1964047962252033 -28.5
    endloop
  endfacet
  facet normal -0.844327925502015 -0.5358267949789967 0
    outer loop
      vertex 2.8479967101425565 1.5656994408305749 -5
      vertex 2.629305231718579 1.9103020699505378 -28.5
      vertex 2.8479967101425565 1.5656994408305749 -28.5
    endloop
  endfacet
  facet normal -0.9980267284282716 -0.06279051952931348 0
    outer loop
      vertex 3.25 0 -5
      vertex 3.224372779272053 0.40733300908398884 -28.5
      vertex 3.25 0 -28.5
    endloop
  endfacet
  facet normal -0.9822872507286887 -0.18738131458572485 0
    outer loop
      vertex 3.224372779272053 0.40733300908398884 -5
      vertex 3.147895273668051 0.8082421332857781 -28.5
      vertex 3.224372779272053 0.40733300908398884 -28.5
    endloop
  endfacet
  facet normal -0.9510565162951534 -0.30901699437494784 0
    outer loop
      vertex 3.147895273668051 0.8082421332857781 -5
      vertex 3.0217735791368168 1.1964047962252033 -28.5
      vertex 3.147895273668051 0.8082421332857781 -28.5
    endloop
  endfacet
  facet normal -0.6845471059286882 -0.728968627421412 0
    outer loop
      vertex 2.3691480391195876 2.2247780942682382 -5
      vertex 2.071627966683242 2.5041680390213146 -28.5
      vertex 2.3691480391195876 2.2247780942682382 -28.5
    endloop
  endfacet
  facet normal -0.7705132427757896 -0.6374239897486893 0
    outer loop
      vertex 2.629305231718579 1.9103020699505378 -5
      vertex 2.3691480391195876 2.2247780942682382 -28.5
      vertex 2.629305231718579 1.9103020699505378 -28.5
    endloop
  endfacet
  facet normal -0.12533323356430362 -0.9921147013144779 7.234607125914745e-19
    outer loop
      vertex 0.6089892724036049 3.1924335648682383 -5
      vertex 0.20406918847026814 3.2435868673918824 -5
      vertex 0.20406918847026795 3.2435868673918824 -28.5
    endloop
  endfacet
  facet normal -0.24868988716485535 -0.9685831611286309 0
    outer loop
      vertex 0.6089892724036049 3.1924335648682383 -5
      vertex 0.6089892724036049 3.1924335648682383 -28.5
      vertex 1.004305231718579 3.090933677959249 -5
    endloop
  endfacet
  facet normal -0.48175367410171493 -0.8763066800438637 0
    outer loop
      vertex 1.3837826975864864 2.9406879205145633 -5
      vertex 1.3837826975864864 2.9406879205145633 -28.5
      vertex 1.7414370836817392 2.744065757881549 -5
    endloop
  endfacet
  facet normal -0.5877852522924738 -0.8090169943749469 0
    outer loop
      vertex 2.071627966683242 2.5041680390213146 -5
      vertex 1.7414370836817392 2.744065757881549 -5
      vertex 1.7414370836817392 2.744065757881549 -28.5
    endloop
  endfacet
  facet normal -0.36812455268467753 -0.9297764858882517 0
    outer loop
      vertex 1.004305231718579 3.090933677959249 -5
      vertex 1.004305231718579 3.090933677959249 -28.5
      vertex 1.3837826975864864 2.9406879205145633 -5
    endloop
  endfacet
  facet normal -0.9048270524660198 -0.42577929156507216 0
    outer loop
      vertex 2.8479967101425565 1.5656994408305749 -5
      vertex 2.8479967101425565 1.5656994408305749 -28.5
      vertex 3.0217735791368168 1.1964047962252033 -5
    endloop
  endfacet
  facet normal -0.844327925502015 -0.5358267949789967 0
    outer loop
      vertex 2.8479967101425565 1.5656994408305749 -5
      vertex 2.629305231718579 1.9103020699505378 -5
      vertex 2.629305231718579 1.9103020699505378 -28.5
    endloop
  endfacet
  facet normal -0.9980267284282716 -0.06279051952931348 0
    outer loop
      vertex 3.25 0 -5
      vertex 3.224372779272053 0.40733300908398884 -5
      vertex 3.224372779272053 0.40733300908398884 -28.5
    endloop
  endfacet
  facet normal -0.9822872507286887 -0.18738131458572485 0
    outer loop
      vertex 3.224372779272053 0.40733300908398884 -5
      vertex 3.147895273668051 0.8082421332857781 -5
      vertex 3.147895273668051 0.8082421332857781 -28.5
    endloop
  endfacet
  facet normal -0.9510565162951534 -0.30901699437494784 0
    outer loop
      vertex 3.147895273668051 0.8082421332857781 -5
      vertex 3.0217735791368168 1.1964047962252033 -5
      vertex 3.0217735791368168 1.1964047962252033 -28.5
    endloop
  endfacet
  facet normal -0.6845471059286882 -0.728968627421412 0
    outer loop
      vertex 2.071627966683242 2.5041680390213146 -5
      vertex 2.071627966683242 2.5041680390213146 -28.5
      vertex 2.3691480391195876 2.2247780942682382 -5
    endloop
  endfacet
  facet normal -0.7705132427757896 -0.6374239897486893 0
    outer loop
      vertex 2.629305231718579 1.9103020699505378 -5
      vertex 2.3691480391195876 2.2247780942682382 -5
      vertex 2.3691480391195876 2.2247780942682382 -28.5
    endloop
  endfacet
  facet normal 0 0 -1
    outer loop
      vertex -2.5496959589947585 -3.0820529711031575 -28.5
      vertex -2.9158745096856467 -2.738188423714754 -28.5
      vertex -2.369148039119588 -2.224778094268238 -28.5
    endloop
  endfacet
  facet normal 0 0 -1
    outer loop
      vertex -3.23606797749979 -2.3511410091698925 -28.5
      vertex -2.8479967101425565 -1.5656994408305749 -28.5
      vertex -2.9158745096856467 -2.738188423714754 -28.5
    endloop
  endfacet
  facet normal 0 0 -1
    outer loop
      vertex -2.9158745096856467 -2.738188423714754 -28.5
      vertex -2.8479967101425565 -1.5656994408305749 -28.5
      vertex -2.629305231718579 -1.9103020699505378 -28.5
    endloop
  endfacet
  facet normal 0 0 -1
    outer loop
      vertex -2.9158745096856467 -2.738188423714754 -28.5
      vertex -2.629305231718579 -1.9103020699505378 -28.5
      vertex -2.369148039119588 -2.224778094268238 -28.5
    endloop
  endfacet
  facet normal 0 0 -1
    outer loop
      vertex -2.5496959589947585 -3.0820529711031575 -28.5
      vertex -2.0716279666832413 -2.5041680390213155 -28.5
      vertex -2.143307179915987 -3.37731170200806 -28.5
    endloop
  endfacet
  facet normal 0 0 -1
    outer loop
      vertex -2.5496959589947585 -3.0820529711031575 -28.5
      vertex -2.369148039119588 -2.224778094268238 -28.5
      vertex -2.0716279666832413 -2.5041680390213155 -28.5
    endloop
  endfacet
  facet normal -0.8443279255020154 -0.5358267949789962 0
    outer loop
      vertex -3.23606797749979 -2.3511410091698925 -28.5
      vertex -3.505226720175454 -1.9270146964068615 -5
      vertex -3.505226720175454 -1.9270146964068615 -28.5
    endloop
  endfacet
  facet normal -0.7705132427757891 -0.6374239897486899 0
    outer loop
      vertex -3.23606797749979 -2.3511410091698925 -28.5
      vertex -2.9158745096856467 -2.738188423714754 -28.5
      vertex -3.23606797749979 -2.3511410091698925 -5
    endloop
  endfacet
  facet normal -0.5877852522924728 -0.8090169943749478 0
    outer loop
      vertex -2.5496959589947585 -3.0820529711031575 -28.5
      vertex -2.143307179915987 -3.37731170200806 -28.5
      vertex -2.5496959589947585 -3.0820529711031575 -5
    endloop
  endfacet
  facet normal -0.6845471059286893 -0.7289686274214112 0
    outer loop
      vertex -2.5496959589947585 -3.0820529711031575 -28.5
      vertex -2.9158745096856467 -2.738188423714754 -5
      vertex -2.9158745096856467 -2.738188423714754 -28.5
    endloop
  endfacet
  facet normal 0 0 -1
    outer loop
      vertex -3.23606797749979 -2.3511410091698925 -28.5
      vertex -3.505226720175454 -1.9270146964068615 -28.5
      vertex -3.224372779272053 -0.40733300908398823 -28.5
    endloop
  endfacet
  facet normal 0 0 -1
    outer loop
      vertex -3.23606797749979 -2.3511410091698925 -28.5
      vertex -3.021773579136817 -1.1964047962252031 -28.5
      vertex -2.8479967101425565 -1.5656994408305749 -28.5
    endloop
  endfacet
  facet normal 0 0 -1
    outer loop
      vertex -3.23606797749979 -2.3511410091698925 -28.5
      vertex -3.147895273668051 -0.8082421332857783 -28.5
      vertex -3.021773579136817 -1.1964047962252031 -28.5
    endloop
  endfacet
  facet normal 0 0 -1
    outer loop
      vertex -3.23606797749979 -2.3511410091698925 -28.5
      vertex -3.224372779272053 -0.40733300908398823 -28.5
      vertex -3.147895273668051 -0.8082421332857783 -28.5
    endloop
  endfacet
  facet normal 0 0 -1
    outer loop
      vertex -3.719105943553006 -1.4724982107387115 -28.5
      vertex -3.8743326445145243 -0.9947595486594194 -28.5
      vertex -3.719105943553006 1.4724982107387115 -28.5
    endloop
  endfacet
  facet normal 0 0 -1
    outer loop
      vertex -3.8743326445145243 -0.9947595486594194 -28.5
      vertex -3.9684588052579115 -0.5013329342572163 -28.5
      vertex -3.8743326445145243 0.9947595486594194 -28.5
    endloop
  endfacet
  facet normal 0 0 -1
    outer loop
      vertex -3.505226720175454 -1.9270146964068615 -28.5
      vertex -3.719105943553006 -1.4724982107387115 -28.5
      vertex -3.505226720175454 1.9270146964068615 -28.5
    endloop
  endfacet
  facet normal 0 0 -1
    outer loop
      vertex -3.505226720175454 -1.9270146964068615 -28.5
      vertex -3.25 0 -28.5
      vertex -3.224372779272053 -0.40733300908398823 -28.5
    endloop
  endfacet
  facet normal -0.9048270524660194 -0.42577929156507316 0
    outer loop
      vertex -3.505226720175454 -1.9270146964068615 -28.5
      vertex -3.719105943553006 -1.4724982107387115 -5
      vertex -3.719105943553006 -1.4724982107387115 -28.5
    endloop
  endfacet
  facet normal -0.9510565162951536 -0.30901699437494706 0
    outer loop
      vertex -3.719105943553006 -1.4724982107387115 -28.5
      vertex -3.8743326445145243 -0.9947595486594194 -5
      vertex -3.8743326445145243 -0.9947595486594194 -28.5
    endloop
  endfacet
  facet normal -0.9822872507286886 -0.1873813145857249 0
    outer loop
      vertex -3.8743326445145243 -0.9947595486594194 -28.5
      vertex -3.9684588052579115 -0.5013329342572163 -5
      vertex -3.9684588052579115 -0.5013329342572163 -28.5
    endloop
  endfacet
  facet normal -0.9980267284282716 -0.06279051952931311 0
    outer loop
      vertex -3.9684588052579115 -0.5013329342572163 -28.5
      vertex -4 0 -5
      vertex -4 0 -28.5
    endloop
  endfacet
  facet normal 0 0 -1
    outer loop
      vertex -2.143307179915987 -3.37731170200806 -28.5
      vertex -1.7414370836817394 -2.7440657578815486 -28.5
      vertex -1.3837826975864855 -2.9406879205145637 -28.5
    endloop
  endfacet
  facet normal 0 0 -1
    outer loop
      vertex -2.143307179915987 -3.37731170200806 -28.5
      vertex -1.3837826975864855 -2.9406879205145637 -28.5
      vertex -1.7031171662602897 -3.6193082098640783 -28.5
    endloop
  endfacet
  facet normal 0 0 -1
    outer loop
      vertex -1.7031171662602897 -3.6193082098640783 -28.5
      vertex -1.004305231718579 -3.090933677959249 -28.5
      vertex -1.2360679774997896 -3.804226065180614 -28.5
    endloop
  endfacet
  facet normal 0 0 -1
    outer loop
      vertex -1.7031171662602897 -3.6193082098640783 -28.5
      vertex -1.3837826975864855 -2.9406879205145637 -28.5
      vertex -1.004305231718579 -3.090933677959249 -28.5
    endloop
  endfacet
  facet normal 0 0 -1
    outer loop
      vertex -2.143307179915987 -3.37731170200806 -28.5
      vertex -2.0716279666832413 -2.5041680390213155 -28.5
      vertex -1.7414370836817394 -2.7440657578815486 -28.5
    endloop
  endfacet
  facet normal 0 0 -1
    outer loop
      vertex -1.2360679774997896 -3.804226065180614 -28.5
      vertex -0.6089892724036057 -3.192433564868238 -28.5
      vertex -0.7495252583428993 -3.9291490029147544 -28.5
    endloop
  endfacet
  facet normal 0 0 -1
    outer loop
      vertex -1.2360679774997896 -3.804226065180614 -28.5
      vertex -1.004305231718579 -3.090933677959249 -28.5
      vertex -0.6089892724036057 -3.192433564868238 -28.5
    endloop
  endfacet
  facet normal 0 0 -1
    outer loop
      vertex -0.7495252583428993 -3.9291490029147544 -28.5
      vertex -0.6089892724036057 -3.192433564868238 -28.5
      vertex -0.20406918847026972 -3.2435868673918824 -28.5
    endloop
  endfacet
  facet normal 0 0 -1
    outer loop
      vertex -0.7495252583428993 -3.9291490029147544 -28.5
      vertex -0.20406918847026972 -3.2435868673918824 -28.5
      vertex -0.25116207811725505 -3.9921069137130862 -28.5
    endloop
  endfacet
  facet normal 0 0 -1
    outer loop
      vertex -0.25116207811725505 -3.9921069137130862 -28.5
      vertex -0.20406918847026972 -3.2435868673918824 -28.5
      vertex 0.20406918847026972 -3.2435868673918824 -28.5
    endloop
  endfacet
  facet normal -0.3681245526846778 -0.9297764858882515 0
    outer loop
      vertex -1.7031171662602897 -3.6193082098640783 -28.5
      vertex -1.2360679774997896 -3.804226065180614 -28.5
      vertex -1.7031171662602897 -3.6193082098640783 -5
    endloop
  endfacet
  facet normal -0.4817536741017151 -0.8763066800438638 0
    outer loop
      vertex -2.143307179915987 -3.37731170200806 -28.5
      vertex -1.7031171662602897 -3.6193082098640783 -28.5
      vertex -2.143307179915987 -3.37731170200806 -5
    endloop
  endfacet
  facet normal -0.24868988716485493 -0.968583161128631 0
    outer loop
      vertex -1.2360679774997896 -3.804226065180614 -28.5
      vertex -0.7495252583428993 -3.9291490029147544 -28.5
      vertex -1.2360679774997896 -3.804226065180614 -5
    endloop
  endfacet
  facet normal -0.12533323356430495 -0.9921147013144777 0
    outer loop
      vertex -0.7495252583428993 -3.9291490029147544 -28.5
      vertex -0.25116207811725505 -3.9921069137130862 -28.5
      vertex -0.7495252583428993 -3.9291490029147544 -5
    endloop
  endfacet
  facet normal 0 -1 0
    outer loop
      vertex -0.25116207811725505 -3.9921069137130862 -28.5
      vertex 0.25116207811725505 -3.9921069137130862 -28.5
      vertex -0.25116207811725505 -3.9921069137130862 -5
    endloop
  endfacet
  facet normal -0.7705132427757891 -0.6374239897486899 0
    outer loop
      vertex -2.9158745096856467 -2.738188423714754 -28.5
      vertex -2.9158745096856467 -2.738188423714754 -5
      vertex -3.23606797749979 -2.3511410091698925 -5
    endloop
  endfacet
  facet normal -0.8443279255020154 -0.5358267949789962 0
    outer loop
      vertex -3.23606797749979 -2.3511410091698925 -28.5
      vertex -3.23606797749979 -2.3511410091698925 -5
      vertex -3.505226720175454 -1.9270146964068615 -5
    endloop
  endfacet
  facet normal -0.5877852522924728 -0.8090169943749478 0
    outer loop
      vertex -2.143307179915987 -3.37731170200806 -28.5
      vertex -2.143307179915987 -3.37731170200806 -5
      vertex -2.5496959589947585 -3.0820529711031575 -5
    endloop
  endfacet
  facet normal -0.6845471059286893 -0.7289686274214112 0
    outer loop
      vertex -2.5496959589947585 -3.0820529711031575 -28.5
      vertex -2.5496959589947585 -3.0820529711031575 -5
      vertex -2.9158745096856467 -2.738188423714754 -5
    endloop
  endfacet
  facet normal -0.9048270524660194 -0.42577929156507316 0
    outer loop
      vertex -3.505226720175454 -1.9270146964068615 -28.5
      vertex -3.505226720175454 -1.9270146964068615 -5
      vertex -3.719105943553006 -1.4724982107387115 -5
    endloop
  endfacet
  facet normal -0.9510565162951536 -0.30901699437494706 0
    outer loop
      vertex -3.719105943553006 -1.4724982107387115 -28.5
      vertex -3.719105943553006 -1.4724982107387115 -5
      vertex -3.8743326445145243 -0.9947595486594194 -5
    endloop
  endfacet
  facet normal -0.9822872507286886 -0.1873813145857249 0
    outer loop
      vertex -3.8743326445145243 -0.9947595486594194 -28.5
      vertex -3.8743326445145243 -0.9947595486594194 -5
      vertex -3.9684588052579115 -0.5013329342572163 -5
    endloop
  endfacet
  facet normal -0.9980267284282716 -0.06279051952931311 0
    outer loop
      vertex -3.9684588052579115 -0.5013329342572163 -28.5
      vertex -3.9684588052579115 -0.5013329342572163 -5
      vertex -4 0 -5
    endloop
  endfacet
  facet normal -0.4817536741017151 -0.8763066800438638 0
    outer loop
      vertex -1.7031171662602897 -3.6193082098640783 -28.5
      vertex -1.7031171662602897 -3.6193082098640783 -5
      vertex -2.143307179915987 -3.37731170200806 -5
    endloop
  endfacet
  facet normal -0.3681245526846778 -0.9297764858882515 0
    outer loop
      vertex -1.2360679774997896 -3.804226065180614 -28.5
      vertex -1.2360679774997896 -3.804226065180614 -5
      vertex -1.7031171662602897 -3.6193082098640783 -5
    endloop
  endfacet
  facet normal -0.24868988716485493 -0.968583161128631 0
    outer loop
      vertex -0.7495252583428993 -3.9291490029147544 -28.5
      vertex -0.7495252583428993 -3.9291490029147544 -5
      vertex -1.2360679774997896 -3.804226065180614 -5
    endloop
  endfacet
  facet normal -0.12533323356430495 -0.9921147013144777 0
    outer loop
      vertex -0.25116207811725505 -3.9921069137130862 -28.5
      vertex -0.25116207811725505 -3.9921069137130862 -5
      vertex -0.7495252583428993 -3.9291490029147544 -5
    endloop
  endfacet
  facet normal 0 0 -1
    outer loop
      vertex -3.9684588052579115 -0.5013329342572163 -28.5
      vertex -4 0 -28.5
      vertex -3.9684588052579115 0.5013329342572163 -28.5
    endloop
  endfacet
  facet normal 0 0 -1
    outer loop
      vertex -3.9684588052579115 -0.5013329342572163 -28.5
      vertex -3.9684588052579115 0.5013329342572163 -28.5
      vertex -3.8743326445145243 0.9947595486594194 -28.5
    endloop
  endfacet
  facet normal 0 0 -1
    outer loop
      vertex -3.8743326445145243 -0.9947595486594194 -28.5
      vertex -3.8743326445145243 0.9947595486594194 -28.5
      vertex -3.719105943553006 1.4724982107387115 -28.5
    endloop
  endfacet
  facet normal 0 0 -1
    outer loop
      vertex -3.719105943553006 -1.4724982107387115 -28.5
      vertex -3.719105943553006 1.4724982107387115 -28.5
      vertex -3.505226720175454 1.9270146964068615 -28.5
    endloop
  endfacet
  facet normal 0 0 -1
    outer loop
      vertex -3.505226720175454 -1.9270146964068615 -28.5
      vertex -3.23606797749979 2.3511410091698925 -28.5
      vertex -3.25 0 -28.5
    endloop
  endfacet
  facet normal 0 0 -1
    outer loop
      vertex -3.505226720175454 -1.9270146964068615 -28.5
      vertex -3.505226720175454 1.9270146964068615 -28.5
      vertex -3.23606797749979 2.3511410091698925 -28.5
    endloop
  endfacet
  facet normal 0 0 -1
    outer loop
      vertex -3.23606797749979 2.3511410091698925 -28.5
      vertex -3.224372779272053 0.40733300908398823 -28.5
      vertex -3.25 0 -28.5
    endloop
  endfacet
  facet normal 0 0 -1
    outer loop
      vertex -3.23606797749979 2.3511410091698925 -28.5
      vertex -3.147895273668051 0.8082421332857783 -28.5
      vertex -3.224372779272053 0.40733300908398823 -28.5
    endloop
  endfacet
  facet normal 0 0 -1
    outer loop
      vertex -3.23606797749979 2.3511410091698925 -28.5
      vertex -3.021773579136817 1.1964047962252031 -28.5
      vertex -3.147895273668051 0.8082421332857783 -28.5
    endloop
  endfacet
  facet normal 0 0 -1
    outer loop
      vertex -2.9158745096856467 2.738188423714754 -28.5
      vertex -2.8479967101425565 1.5656994408305749 -28.5
      vertex -3.021773579136817 1.1964047962252031 -28.5
    endloop
  endfacet
  facet normal -0.9980267284282716 0.06279051952931311 0
    outer loop
      vertex -4 0 -28.5
      vertex -3.9684588052579115 0.5013329342572163 -5
      vertex -3.9684588052579115 0.5013329342572163 -28.5
    endloop
  endfacet
  facet normal -0.9822872507286886 0.1873813145857249 0
    outer loop
      vertex -3.9684588052579115 0.5013329342572163 -28.5
      vertex -3.8743326445145243 0.9947595486594194 -5
      vertex -3.8743326445145243 0.9947595486594194 -28.5
    endloop
  endfacet
  facet normal -0.9510565162951536 0.30901699437494706 0
    outer loop
      vertex -3.8743326445145243 0.9947595486594194 -28.5
      vertex -3.719105943553006 1.4724982107387115 -5
      vertex -3.719105943553006 1.4724982107387115 -28.5
    endloop
  endfacet
  facet normal -0.9048270524660194 0.42577929156507316 0
    outer loop
      vertex -3.719105943553006 1.4724982107387115 -28.5
      vertex -3.505226720175454 1.9270146964068615 -5
      vertex -3.505226720175454 1.9270146964068615 -28.5
    endloop
  endfacet
  facet normal 0 0 -1
    outer loop
      vertex -3.23606797749979 2.3511410091698925 -28.5
      vertex -2.9158745096856467 2.738188423714754 -28.5
      vertex -3.021773579136817 1.1964047962252031 -28.5
    endloop
  endfacet
  facet normal 0 0 -1
    outer loop
      vertex -2.9158745096856467 2.738188423714754 -28.5
      vertex -2.629305231718579 1.9103020699505378 -28.5
      vertex -2.8479967101425565 1.5656994408305749 -28.5
    endloop
  endfacet
  facet normal 0 0 -1
    outer loop
      vertex -2.5496959589947585 3.0820529711031575 -28.5
      vertex -2.369148039119588 2.224778094268238 -28.5
      vertex -2.629305231718579 1.9103020699505378 -28.5
    endloop
  endfacet
  facet normal 0 0 -1
    outer loop
      vertex -2.9158745096856467 2.738188423714754 -28.5
      vertex -2.5496959589947585 3.0820529711031575 -28.5
      vertex -2.629305231718579 1.9103020699505378 -28.5
    endloop
  endfacet
  facet normal 0 0 -1
    outer loop
      vertex -2.5496959589947585 3.0820529711031575 -28.5
      vertex -2.143307179915987 3.37731170200806 -28.5
      vertex -2.369148039119588 2.224778094268238 -28.5
    endloop
  endfacet
  facet normal 0 0 -1
    outer loop
      vertex -2.143307179915987 3.37731170200806 -28.5
      vertex -2.0716279666832413 2.5041680390213155 -28.5
      vertex -2.369148039119588 2.224778094268238 -28.5
    endloop
  endfacet
  facet normal -0.8443279255020154 0.5358267949789962 0
    outer loop
      vertex -3.505226720175454 1.9270146964068615 -28.5
      vertex -3.23606797749979 2.3511410091698925 -5
      vertex -3.23606797749979 2.3511410091698925 -28.5
    endloop
  endfacet
  facet normal -0.7705132427757891 0.6374239897486899 0
    outer loop
      vertex -3.23606797749979 2.3511410091698925 -28.5
      vertex -2.9158745096856467 2.738188423714754 -5
      vertex -2.9158745096856467 2.738188423714754 -28.5
    endloop
  endfacet
  facet normal -0.6845471059286893 0.7289686274214112 0
    outer loop
      vertex -2.9158745096856467 2.738188423714754 -28.5
      vertex -2.5496959589947585 3.0820529711031575 -5
      vertex -2.5496959589947585 3.0820529711031575 -28.5
    endloop
  endfacet
  facet normal -0.5877852522924728 0.8090169943749478 0
    outer loop
      vertex -2.5496959589947585 3.0820529711031575 -28.5
      vertex -2.143307179915987 3.37731170200806 -5
      vertex -2.143307179915987 3.37731170200806 -28.5
    endloop
  endfacet
  facet normal 0 0 -1
    outer loop
      vertex -1.7031171662602909 3.619308209864078 -28.5
      vertex -1.7414370836817394 2.7440657578815486 -28.5
      vertex -2.0716279666832413 2.5041680390213155 -28.5
    endloop
  endfacet
  facet normal 0 0 -1
    outer loop
      vertex -2.143307179915987 3.37731170200806 -28.5
      vertex -1.7031171662602909 3.619308209864078 -28.5
      vertex -2.0716279666832413 2.5041680390213155 -28.5
    endloop
  endfacet
  facet normal 0 0 -1
    outer loop
      vertex -1.7031171662602909 3.619308209864078 -28.5
      vertex -1.3837826975864864 2.9406879205145633 -28.5
      vertex -1.7414370836817394 2.7440657578815486 -28.5
    endloop
  endfacet
  facet normal 0 0 -1
    outer loop
      vertex -1.7031171662602909 3.619308209864078 -28.5
      vertex -1.2360679774997896 3.804226065180614 -28.5
      vertex -1.3837826975864864 2.9406879205145633 -28.5
    endloop
  endfacet
  facet normal 0 0 -1
    outer loop
      vertex -1.2360679774997896 3.804226065180614 -28.5
      vertex -1.004305231718579 3.090933677959249 -28.5
      vertex -1.3837826975864864 2.9406879205145633 -28.5
    endloop
  endfacet
  facet normal 0 0 -1
    outer loop
      vertex -0.7495252583428983 3.929149002914755 -28.5
      vertex -0.6089892724036049 3.1924335648682383 -28.5
      vertex -1.004305231718579 3.090933677959249 -28.5
    endloop
  endfacet
  facet normal 0 0 -1
    outer loop
      vertex -1.2360679774997896 3.804226065180614 -28.5
      vertex -0.7495252583428983 3.929149002914755 -28.5
      vertex -1.004305231718579 3.090933677959249 -28.5
    endloop
  endfacet
  facet normal 0 0 -1
    outer loop
      vertex -0.7495252583428983 3.929149002914755 -28.5
      vertex -0.2511620781172531 3.9921069137130862 -28.5
      vertex -0.6089892724036049 3.1924335648682383 -28.5
    endloop
  endfacet
  facet normal 0 0 -1
    outer loop
      vertex -0.2511620781172531 3.9921069137130862 -28.5
      vertex -0.20406918847026814 3.2435868673918824 -28.5
      vertex -0.6089892724036049 3.1924335648682383 -28.5
    endloop
  endfacet
  facet normal 0 0 -1
    outer loop
      vertex -0.2511620781172531 3.9921069137130862 -28.5
      vertex 0.2511620781172531 3.9921069137130862 -28.5
      vertex -0.20406918847026814 3.2435868673918824 -28.5
    endloop
  endfacet
  facet normal -0.4817536741017152 0.8763066800438635 0
    outer loop
      vertex -2.143307179915987 3.37731170200806 -28.5
      vertex -1.7031171662602909 3.619308209864078 -5
      vertex -1.7031171662602909 3.619308209864078 -28.5
    endloop
  endfacet
  facet normal -0.36812455268467786 0.9297764858882515 0
    outer loop
      vertex -1.7031171662602909 3.619308209864078 -28.5
      vertex -1.2360679774997896 3.804226065180614 -5
      vertex -1.2360679774997896 3.804226065180614 -28.5
    endloop
  endfacet
  facet normal -0.24868988716485535 0.968583161128631 0
    outer loop
      vertex -1.2360679774997896 3.804226065180614 -28.5
      vertex -0.7495252583428983 3.929149002914755 -5
      vertex -0.7495252583428983 3.929149002914755 -28.5
    endloop
  endfacet
  facet normal -0.12533323356430387 0.992114701314478 0
    outer loop
      vertex -0.7495252583428983 3.929149002914755 -28.5
      vertex -0.2511620781172531 3.9921069137130862 -5
      vertex -0.2511620781172531 3.9921069137130862 -28.5
    endloop
  endfacet
  facet normal -0.9980267284282716 0.06279051952931311 0
    outer loop
      vertex -4 0 -28.5
      vertex -4 0 -5
      vertex -3.9684588052579115 0.5013329342572163 -5
    endloop
  endfacet
  facet normal -0.9822872507286886 0.1873813145857249 0
    outer loop
      vertex -3.9684588052579115 0.5013329342572163 -28.5
      vertex -3.9684588052579115 0.5013329342572163 -5
      vertex -3.8743326445145243 0.9947595486594194 -5
    endloop
  endfacet
  facet normal -0.9510565162951536 0.30901699437494706 0
    outer loop
      vertex -3.8743326445145243 0.9947595486594194 -28.5
      vertex -3.8743326445145243 0.9947595486594194 -5
      vertex -3.719105943553006 1.4724982107387115 -5
    endloop
  endfacet
  facet normal -0.9048270524660194 0.42577929156507316 0
    outer loop
      vertex -3.719105943553006 1.4724982107387115 -28.5
      vertex -3.719105943553006 1.4724982107387115 -5
      vertex -3.505226720175454 1.9270146964068615 -5
    endloop
  endfacet
  facet normal -0.8443279255020154 0.5358267949789962 0
    outer loop
      vertex -3.505226720175454 1.9270146964068615 -28.5
      vertex -3.505226720175454 1.9270146964068615 -5
      vertex -3.23606797749979 2.3511410091698925 -5
    endloop
  endfacet
  facet normal -0.7705132427757891 0.6374239897486899 0
    outer loop
      vertex -3.23606797749979 2.3511410091698925 -28.5
      vertex -3.23606797749979 2.3511410091698925 -5
      vertex -2.9158745096856467 2.738188423714754 -5
    endloop
  endfacet
  facet normal -0.6845471059286893 0.7289686274214112 0
    outer loop
      vertex -2.9158745096856467 2.738188423714754 -28.5
      vertex -2.9158745096856467 2.738188423714754 -5
      vertex -2.5496959589947585 3.0820529711031575 -5
    endloop
  endfacet
  facet normal -0.5877852522924728 0.8090169943749478 0
    outer loop
      vertex -2.5496959589947585 3.0820529711031575 -28.5
      vertex -2.5496959589947585 3.0820529711031575 -5
      vertex -2.143307179915987 3.37731170200806 -5
    endloop
  endfacet
  facet normal -0.4817536741017152 0.8763066800438635 0
    outer loop
      vertex -2.143307179915987 3.37731170200806 -28.5
      vertex -2.143307179915987 3.37731170200806 -5
      vertex -1.7031171662602909 3.619308209864078 -5
    endloop
  endfacet
  facet normal -0.36812455268467786 0.9297764858882515 0
    outer loop
      vertex -1.7031171662602909 3.619308209864078 -28.5
      vertex -1.7031171662602909 3.619308209864078 -5
      vertex -1.2360679774997896 3.804226065180614 -5
    endloop
  endfacet
  facet normal -0.24868988716485535 0.968583161128631 0
    outer loop
      vertex -1.2360679774997896 3.804226065180614 -28.5
      vertex -1.2360679774997896 3.804226065180614 -5
      vertex -0.7495252583428983 3.929149002914755 -5
    endloop
  endfacet
  facet normal -0.12533323356430387 0.992114701314478 0
    outer loop
      vertex -0.7495252583428983 3.929149002914755 -28.5
      vertex -0.7495252583428983 3.929149002914755 -5
      vertex -0.2511620781172531 3.9921069137130862 -5
    endloop
  endfacet
  facet normal 0 1 0
    outer loop
      vertex -0.2511620781172531 3.9921069137130862 -28.5
      vertex -0.2511620781172531 3.9921069137130862 -5
      vertex 0.2511620781172531 3.9921069137130862 -5
    endloop
  endfacet
  facet normal 0 0 -1
    outer loop
      vertex -0.25116207811725505 -3.9921069137130862 -28.5
      vertex 0.20406918847026972 -3.2435868673918824 -28.5
      vertex 0.25116207811725505 -3.9921069137130862 -28.5
    endloop
  endfacet
  facet normal 0 0 -1
    outer loop
      vertex 0.25116207811725505 -3.9921069137130862 -28.5
      vertex 0.20406918847026972 -3.2435868673918824 -28.5
      vertex 0.6089892724036057 -3.192433564868238 -28.5
    endloop
  endfacet
  facet normal 0 0 -1
    outer loop
      vertex 0.25116207811725505 -3.9921069137130862 -28.5
      vertex 0.6089892724036057 -3.192433564868238 -28.5
      vertex 0.7495252583428993 -3.9291490029147544 -28.5
    endloop
  endfacet
  facet normal 0 0 -1
    outer loop
      vertex 0.7495252583428993 -3.9291490029147544 -28.5
      vertex 1.004305231718579 -3.090933677959249 -28.5
      vertex 1.2360679774997896 -3.804226065180614 -28.5
    endloop
  endfacet
  facet normal 0 0 -1
    outer loop
      vertex 0.7495252583428993 -3.9291490029147544 -28.5
      vertex 0.6089892724036057 -3.192433564868238 -28.5
      vertex 1.004305231718579 -3.090933677959249 -28.5
    endloop
  endfacet
  facet normal 0 0 -1
    outer loop
      vertex 1.2360679774997896 -3.804226065180614 -28.5
      vertex 1.004305231718579 -3.090933677959249 -28.5
      vertex 1.3837826975864855 -2.9406879205145637 -28.5
    endloop
  endfacet
  facet normal 0 0 -1
    outer loop
      vertex 1.2360679774997896 -3.804226065180614 -28.5
      vertex 1.3837826975864855 -2.9406879205145637 -28.5
      vertex 1.7031171662602897 -3.6193082098640783 -28.5
    endloop
  endfacet
  facet normal 0 0 -1
    outer loop
      vertex 1.7031171662602897 -3.6193082098640783 -28.5
      vertex 1.3837826975864855 -2.9406879205145637 -28.5
      vertex 1.7414370836817377 -2.7440657578815495 -28.5
    endloop
  endfacet
  facet normal 0 0 -1
    outer loop
      vertex 1.7031171662602897 -3.6193082098640783 -28.5
      vertex 2.0716279666832422 -2.504168039021314 -28.5
      vertex 2.143307179915985 -3.377311702008061 -28.5
    endloop
  endfacet
  facet normal 0 0 -1
    outer loop
      vertex 1.7031171662602897 -3.6193082098640783 -28.5
      vertex 1.7414370836817377 -2.7440657578815495 -28.5
      vertex 2.0716279666832422 -2.504168039021314 -28.5
    endloop
  endfacet
  facet normal 0.12533323356430495 -0.9921147013144777 0
    outer loop
      vertex 0.25116207811725505 -3.9921069137130862 -28.5
      vertex 0.7495252583428993 -3.9291490029147544 -28.5
      vertex 0.25116207811725505 -3.9921069137130862 -5
    endloop
  endfacet
  facet normal 0.24868988716485493 -0.968583161128631 0
    outer loop
      vertex 0.7495252583428993 -3.9291490029147544 -28.5
      vertex 1.2360679774997896 -3.804226065180614 -28.5
      vertex 0.7495252583428993 -3.9291490029147544 -5
    endloop
  endfacet
  facet normal 0.3681245526846778 -0.9297764858882515 0
    outer loop
      vertex 1.2360679774997896 -3.804226065180614 -28.5
      vertex 1.7031171662602897 -3.6193082098640783 -28.5
      vertex 1.2360679774997896 -3.804226065180614 -5
    endloop
  endfacet
  facet normal 0.4817536741017149 -0.8763066800438638 0
    outer loop
      vertex 1.7031171662602897 -3.6193082098640783 -28.5
      vertex 2.143307179915985 -3.377311702008061 -28.5
      vertex 1.7031171662602897 -3.6193082098640783 -5
    endloop
  endfacet
  facet normal 0 0 -1
    outer loop
      vertex 2.143307179915985 -3.377311702008061 -28.5
      vertex 2.0716279666832422 -2.504168039021314 -28.5
      vertex 2.369148039119588 -2.224778094268238 -28.5
    endloop
  endfacet
  facet normal 0 0 -1
    outer loop
      vertex 2.143307179915985 -3.377311702008061 -28.5
      vertex 2.369148039119588 -2.224778094268238 -28.5
      vertex 2.54969595899476 -3.082052971103156 -28.5
    endloop
  endfacet
  facet normal 0 0 -1
    outer loop
      vertex 2.54969595899476 -3.082052971103156 -28.5
      vertex 2.629305231718579 -1.9103020699505378 -28.5
      vertex 2.9158745096856467 -2.738188423714754 -28.5
    endloop
  endfacet
  facet normal 0 0 -1
    outer loop
      vertex 2.54969595899476 -3.082052971103156 -28.5
      vertex 2.369148039119588 -2.224778094268238 -28.5
      vertex 2.629305231718579 -1.9103020699505378 -28.5
    endloop
  endfacet
  facet normal 0 0 -1
    outer loop
      vertex 2.9158745096856467 -2.738188423714754 -28.5
      vertex 2.629305231718579 -1.9103020699505378 -28.5
      vertex 2.8479967101425565 -1.5656994408305749 -28.5
    endloop
  endfacet
  facet normal 0 0 -1
    outer loop
      vertex 2.9158745096856467 -2.738188423714754 -28.5
      vertex 3.0217735791368163 -1.1964047962252047 -28.5
      vertex 3.23606797749979 -2.3511410091698925 -28.5
    endloop
  endfacet
  facet normal 0.5877852522924728 -0.8090169943749477 0
    outer loop
      vertex 2.143307179915985 -3.377311702008061 -28.5
      vertex 2.54969595899476 -3.082052971103156 -28.5
      vertex 2.143307179915985 -3.377311702008061 -5
    endloop
  endfacet
  facet normal 0.6845471059286891 -0.7289686274214112 0
    outer loop
      vertex 2.54969595899476 -3.082052971103156 -28.5
      vertex 2.9158745096856467 -2.738188423714754 -28.5
      vertex 2.54969595899476 -3.082052971103156 -5
    endloop
  endfacet
  facet normal 0.7705132427757891 -0.6374239897486899 0
    outer loop
      vertex 2.9158745096856467 -2.738188423714754 -28.5
      vertex 3.23606797749979 -2.3511410091698925 -28.5
      vertex 2.9158745096856467 -2.738188423714754 -5
    endloop
  endfacet
  facet normal 0.8443279255020154 -0.5358267949789962 0
    outer loop
      vertex 3.23606797749979 -2.3511410091698925 -28.5
      vertex 3.505226720175454 -1.9270146964068615 -28.5
      vertex 3.23606797749979 -2.3511410091698925 -5
    endloop
  endfacet
  facet normal 0 0 -1
    outer loop
      vertex 2.9158745096856467 -2.738188423714754 -28.5
      vertex 2.8479967101425565 -1.5656994408305749 -28.5
      vertex 3.0217735791368163 -1.1964047962252047 -28.5
    endloop
  endfacet
  facet normal 0 0 -1
    outer loop
      vertex 3.23606797749979 -2.3511410091698925 -28.5
      vertex 3.0217735791368163 -1.1964047962252047 -28.5
      vertex 3.1478952736680514 -0.8082421332857769 -28.5
    endloop
  endfacet
  facet normal 0 0 -1
    outer loop
      vertex 3.23606797749979 -2.3511410091698925 -28.5
      vertex 3.1478952736680514 -0.8082421332857769 -28.5
      vertex 3.224372779272053 -0.40733300908398823 -28.5
    endloop
  endfacet
  facet normal 0 0 -1
    outer loop
      vertex 3.23606797749979 -2.3511410091698925 -28.5
      vertex 3.224372779272053 -0.40733300908398823 -28.5
      vertex 3.25 0 -28.5
    endloop
  endfacet
  facet normal 0 0 -1
    outer loop
      vertex 3.23606797749979 -2.3511410091698925 -28.5
      vertex 3.5052267201754543 1.9270146964068613 -28.5
      vertex 3.505226720175454 -1.9270146964068615 -28.5
    endloop
  endfacet
  facet normal 0 0 -1
    outer loop
      vertex 3.23606797749979 -2.3511410091698925 -28.5
      vertex 3.25 0 -28.5
      vertex 3.5052267201754543 1.9270146964068613 -28.5
    endloop
  endfacet
  facet normal 0 0 -1
    outer loop
      vertex 3.505226720175454 -1.9270146964068615 -28.5
      vertex 3.7191059435530054 1.472498210738712 -28.5
      vertex 3.719105943553005 -1.4724982107387135 -28.5
    endloop
  endfacet
  facet normal 0 0 -1
    outer loop
      vertex 3.719105943553005 -1.4724982107387135 -28.5
      vertex 3.8743326445145243 0.9947595486594192 -28.5
      vertex 3.8743326445145247 -0.9947595486594177 -28.5
    endloop
  endfacet
  facet normal 0 0 -1
    outer loop
      vertex 3.8743326445145247 -0.9947595486594177 -28.5
      vertex 3.9684588052579115 0.501332934257217 -28.5
      vertex 3.9684588052579115 -0.5013329342572163 -28.5
    endloop
  endfacet
  facet normal 0.9048270524660192 -0.42577929156507316 0
    outer loop
      vertex 3.505226720175454 -1.9270146964068615 -28.5
      vertex 3.719105943553005 -1.4724982107387135 -28.5
      vertex 3.505226720175454 -1.9270146964068615 -5
    endloop
  endfacet
  facet normal 0.9510565162951536 -0.30901699437494734 0
    outer loop
      vertex 3.719105943553005 -1.4724982107387135 -28.5
      vertex 3.8743326445145247 -0.9947595486594177 -28.5
      vertex 3.719105943553005 -1.4724982107387135 -5
    endloop
  endfacet
  facet normal 0.9822872507286885 -0.1873813145857247 0
    outer loop
      vertex 3.8743326445145247 -0.9947595486594177 -28.5
      vertex 3.9684588052579115 -0.5013329342572163 -28.5
      vertex 3.8743326445145247 -0.9947595486594177 -5
    endloop
  endfacet
  facet normal 0.9980267284282716 -0.06279051952931311 0
    outer loop
      vertex 3.9684588052579115 -0.5013329342572163 -28.5
      vertex 4 0 -28.5
      vertex 3.9684588052579115 -0.5013329342572163 -5
    endloop
  endfacet
  facet normal 0 -1 0
    outer loop
      vertex 0.25116207811725505 -3.9921069137130862 -28.5
      vertex 0.25116207811725505 -3.9921069137130862 -5
      vertex -0.25116207811725505 -3.9921069137130862 -5
    endloop
  endfacet
  facet normal 0.12533323356430495 -0.9921147013144777 0
    outer loop
      vertex 0.7495252583428993 -3.9291490029147544 -28.5
      vertex 0.7495252583428993 -3.9291490029147544 -5
      vertex 0.25116207811725505 -3.9921069137130862 -5
    endloop
  endfacet
  facet normal 0.24868988716485493 -0.968583161128631 0
    outer loop
      vertex 1.2360679774997896 -3.804226065180614 -28.5
      vertex 1.2360679774997896 -3.804226065180614 -5
      vertex 0.7495252583428993 -3.9291490029147544 -5
    endloop
  endfacet
  facet normal 0.3681245526846778 -0.9297764858882515 0
    outer loop
      vertex 1.7031171662602897 -3.6193082098640783 -28.5
      vertex 1.7031171662602897 -3.6193082098640783 -5
      vertex 1.2360679774997896 -3.804226065180614 -5
    endloop
  endfacet
  facet normal 0.4817536741017149 -0.8763066800438638 0
    outer loop
      vertex 2.143307179915985 -3.377311702008061 -28.5
      vertex 2.143307179915985 -3.377311702008061 -5
      vertex 1.7031171662602897 -3.6193082098640783 -5
    endloop
  endfacet
  facet normal 0.5877852522924728 -0.8090169943749477 0
    outer loop
      vertex 2.54969595899476 -3.082052971103156 -28.5
      vertex 2.54969595899476 -3.082052971103156 -5
      vertex 2.143307179915985 -3.377311702008061 -5
    endloop
  endfacet
  facet normal 0.6845471059286891 -0.7289686274214112 0
    outer loop
      vertex 2.9158745096856467 -2.738188423714754 -28.5
      vertex 2.9158745096856467 -2.738188423714754 -5
      vertex 2.54969595899476 -3.082052971103156 -5
    endloop
  endfacet
  facet normal 0.7705132427757891 -0.6374239897486899 0
    outer loop
      vertex 3.23606797749979 -2.3511410091698925 -28.5
      vertex 3.23606797749979 -2.3511410091698925 -5
      vertex 2.9158745096856467 -2.738188423714754 -5
    endloop
  endfacet
  facet normal 0.8443279255020154 -0.5358267949789962 0
    outer loop
      vertex 3.505226720175454 -1.9270146964068615 -28.5
      vertex 3.505226720175454 -1.9270146964068615 -5
      vertex 3.23606797749979 -2.3511410091698925 -5
    endloop
  endfacet
  facet normal 0.9048270524660192 -0.42577929156507316 0
    outer loop
      vertex 3.719105943553005 -1.4724982107387135 -28.5
      vertex 3.719105943553005 -1.4724982107387135 -5
      vertex 3.505226720175454 -1.9270146964068615 -5
    endloop
  endfacet
  facet normal 0.9510565162951536 -0.30901699437494734 0
    outer loop
      vertex 3.8743326445145247 -0.9947595486594177 -28.5
      vertex 3.8743326445145247 -0.9947595486594177 -5
      vertex 3.719105943553005 -1.4724982107387135 -5
    endloop
  endfacet
  facet normal 0.9822872507286885 -0.1873813145857247 0
    outer loop
      vertex 3.9684588052579115 -0.5013329342572163 -28.5
      vertex 3.9684588052579115 -0.5013329342572163 -5
      vertex 3.8743326445145247 -0.9947595486594177 -5
    endloop
  endfacet
  facet normal 0.9980267284282716 -0.06279051952931311 0
    outer loop
      vertex 4 0 -28.5
      vertex 4 0 -5
      vertex 3.9684588052579115 -0.5013329342572163 -5
    endloop
  endfacet
  facet normal 0 0 -1
    outer loop
      vertex 0.2511620781172531 3.9921069137130862 -28.5
      vertex 0.20406918847026795 3.2435868673918824 -28.5
      vertex -0.20406918847026814 3.2435868673918824 -28.5
    endloop
  endfacet
  facet normal 0 0 -1
    outer loop
      vertex 0.2511620781172531 3.9921069137130862 -28.5
      vertex 0.7495252583428983 3.929149002914755 -28.5
      vertex 0.20406918847026795 3.2435868673918824 -28.5
    endloop
  endfacet
  facet normal 0 0 -1
    outer loop
      vertex 0.7495252583428983 3.929149002914755 -28.5
      vertex 0.6089892724036049 3.1924335648682383 -28.5
      vertex 0.20406918847026795 3.2435868673918824 -28.5
    endloop
  endfacet
  facet normal 0 0 -1
    outer loop
      vertex 1.2360679774997896 3.804226065180614 -28.5
      vertex 1.004305231718579 3.090933677959249 -28.5
      vertex 0.6089892724036049 3.1924335648682383 -28.5
    endloop
  endfacet
  facet normal 0 0 -1
    outer loop
      vertex 0.7495252583428983 3.929149002914755 -28.5
      vertex 1.2360679774997896 3.804226065180614 -28.5
      vertex 0.6089892724036049 3.1924335648682383 -28.5
    endloop
  endfacet
  facet normal 0 0 -1
    outer loop
      vertex 2.1433071799159866 3.3773117020080603 -28.5
      vertex 2.071627966683242 2.5041680390213146 -28.5
      vertex 1.7414370836817392 2.744065757881549 -28.5
    endloop
  endfacet
  facet normal 0 0 -1
    outer loop
      vertex 1.7031171662602909 3.619308209864078 -28.5
      vertex 1.3837826975864864 2.9406879205145633 -28.5
      vertex 1.004305231718579 3.090933677959249 -28.5
    endloop
  endfacet
  facet normal 0 0 -1
    outer loop
      vertex 1.2360679774997896 3.804226065180614 -28.5
      vertex 1.7031171662602909 3.619308209864078 -28.5
      vertex 1.004305231718579 3.090933677959249 -28.5
    endloop
  endfacet
  facet normal 0 0 -1
    outer loop
      vertex 1.7031171662602909 3.619308209864078 -28.5
      vertex 2.1433071799159866 3.3773117020080603 -28.5
      vertex 1.3837826975864864 2.9406879205145633 -28.5
    endloop
  endfacet
  facet normal 0 0 -1
    outer loop
      vertex 2.1433071799159866 3.3773117020080603 -28.5
      vertex 1.7414370836817392 2.744065757881549 -28.5
      vertex 1.3837826975864864 2.9406879205145633 -28.5
    endloop
  endfacet
  facet normal 0 1 0
    outer loop
      vertex -0.2511620781172531 3.9921069137130862 -28.5
      vertex 0.2511620781172531 3.9921069137130862 -5
      vertex 0.2511620781172531 3.9921069137130862 -28.5
    endloop
  endfacet
  facet normal 0.12533323356430387 0.992114701314478 0
    outer loop
      vertex 0.2511620781172531 3.9921069137130862 -28.5
      vertex 0.7495252583428983 3.929149002914755 -5
      vertex 0.7495252583428983 3.929149002914755 -28.5
    endloop
  endfacet
  facet normal 0.24868988716485535 0.968583161128631 0
    outer loop
      vertex 0.7495252583428983 3.929149002914755 -28.5
      vertex 1.2360679774997896 3.804226065180614 -5
      vertex 1.2360679774997896 3.804226065180614 -28.5
    endloop
  endfacet
  facet normal 0.481753674101715 0.8763066800438637 0
    outer loop
      vertex 1.7031171662602909 3.619308209864078 -28.5
      vertex 2.1433071799159866 3.3773117020080603 -5
      vertex 2.1433071799159866 3.3773117020080603 -28.5
    endloop
  endfacet
  facet normal 0.36812455268467786 0.9297764858882515 0
    outer loop
      vertex 1.2360679774997896 3.804226065180614 -28.5
      vertex 1.7031171662602909 3.619308209864078 -5
      vertex 1.7031171662602909 3.619308209864078 -28.5
    endloop
  endfacet
  facet normal 0 0 -1
    outer loop
      vertex 3.5052267201754543 1.9270146964068613 -28.5
      vertex 3.25 0 -28.5
      vertex 3.224372779272053 0.40733300908398884 -28.5
    endloop
  endfacet
  facet normal 0 0 -1
    outer loop
      vertex 3.505226720175454 -1.9270146964068615 -28.5
      vertex 3.5052267201754543 1.9270146964068613 -28.5
      vertex 3.7191059435530054 1.472498210738712 -28.5
    endloop
  endfacet
  facet normal 0 0 -1
    outer loop
      vertex 3.9684588052579115 -0.5013329342572163 -28.5
      vertex 3.9684588052579115 0.501332934257217 -28.5
      vertex 4 0 -28.5
    endloop
  endfacet
  facet normal 0 0 -1
    outer loop
      vertex 3.8743326445145247 -0.9947595486594177 -28.5
      vertex 3.8743326445145243 0.9947595486594192 -28.5
      vertex 3.9684588052579115 0.501332934257217 -28.5
    endloop
  endfacet
  facet normal 0 0 -1
    outer loop
      vertex 3.719105943553005 -1.4724982107387135 -28.5
      vertex 3.7191059435530054 1.472498210738712 -28.5
      vertex 3.8743326445145243 0.9947595486594192 -28.5
    endloop
  endfacet
  facet normal 0 0 -1
    outer loop
      vertex 3.23606797749979 2.3511410091698925 -28.5
      vertex 3.224372779272053 0.40733300908398884 -28.5
      vertex 3.147895273668051 0.8082421332857781 -28.5
    endloop
  endfacet
  facet normal 0 0 -1
    outer loop
      vertex 3.23606797749979 2.3511410091698925 -28.5
      vertex 3.147895273668051 0.8082421332857781 -28.5
      vertex 3.0217735791368168 1.1964047962252033 -28.5
    endloop
  endfacet
  facet normal 0 0 -1
    outer loop
      vertex 3.23606797749979 2.3511410091698925 -28.5
      vertex 3.0217735791368168 1.1964047962252033 -28.5
      vertex 2.8479967101425565 1.5656994408305749 -28.5
    endloop
  endfacet
  facet normal 0 0 -1
    outer loop
      vertex 3.5052267201754543 1.9270146964068613 -28.5
      vertex 3.224372779272053 0.40733300908398884 -28.5
      vertex 3.23606797749979 2.3511410091698925 -28.5
    endloop
  endfacet
  facet normal 0.9980267284282716 0.06279051952931301 0
    outer loop
      vertex 4 0 -28.5
      vertex 3.9684588052579115 0.501332934257217 -28.5
      vertex 4 0 -5
    endloop
  endfacet
  facet normal 0.9822872507286884 0.1873813145857253 0
    outer loop
      vertex 3.9684588052579115 0.501332934257217 -28.5
      vertex 3.8743326445145243 0.9947595486594192 -28.5
      vertex 3.9684588052579115 0.501332934257217 -5
    endloop
  endfacet
  facet normal 0.9510565162951534 0.30901699437494745 0
    outer loop
      vertex 3.8743326445145243 0.9947595486594192 -28.5
      vertex 3.7191059435530054 1.472498210738712 -28.5
      vertex 3.8743326445145243 0.9947595486594192 -5
    endloop
  endfacet
  facet normal 0.9048270524660197 0.4257792915650722 0
    outer loop
      vertex 3.7191059435530054 1.472498210738712 -28.5
      vertex 3.5052267201754543 1.9270146964068613 -28.5
      vertex 3.7191059435530054 1.472498210738712 -5
    endloop
  endfacet
  facet normal 0 0 -1
    outer loop
      vertex 2.549695958994759 3.0820529711031566 -28.5
      vertex 2.3691480391195876 2.2247780942682382 -28.5
      vertex 2.071627966683242 2.5041680390213146 -28.5
    endloop
  endfacet
  facet normal 0 0 -1
    outer loop
      vertex 2.1433071799159866 3.3773117020080603 -28.5
      vertex 2.549695958994759 3.0820529711031566 -28.5
      vertex 2.071627966683242 2.5041680390213146 -28.5
    endloop
  endfacet
  facet normal 0 0 -1
    outer loop
      vertex 2.915874509685646 2.738188423714755 -28.5
      vertex 2.629305231718579 1.9103020699505378 -28.5
      vertex 2.3691480391195876 2.2247780942682382 -28.5
    endloop
  endfacet
  facet normal 0 0 -1
    outer loop
      vertex 2.915874509685646 2.738188423714755 -28.5
      vertex 2.8479967101425565 1.5656994408305749 -28.5
      vertex 2.629305231718579 1.9103020699505378 -28.5
    endloop
  endfacet
  facet normal 0 0 -1
    outer loop
      vertex 2.915874509685646 2.738188423714755 -28.5
      vertex 3.23606797749979 2.3511410091698925 -28.5
      vertex 2.8479967101425565 1.5656994408305749 -28.5
    endloop
  endfacet
  facet normal 0 0 -1
    outer loop
      vertex 2.915874509685646 2.738188423714755 -28.5
      vertex 2.3691480391195876 2.2247780942682382 -28.5
      vertex 2.549695958994759 3.0820529711031566 -28.5
    endloop
  endfacet
  facet normal 0.6845471059286881 0.7289686274214121 0
    outer loop
      vertex 2.915874509685646 2.738188423714755 -28.5
      vertex 2.549695958994759 3.0820529711031566 -28.5
      vertex 2.915874509685646 2.738188423714755 -5
    endloop
  endfacet
  facet normal 0.5877852522924736 0.8090169943749471 0
    outer loop
      vertex 2.1433071799159866 3.3773117020080603 -28.5
      vertex 2.549695958994759 3.0820529711031566 -5
      vertex 2.549695958994759 3.0820529711031566 -28.5
    endloop
  endfacet
  facet normal 0.7705132427757895 0.6374239897486896 0
    outer loop
      vertex 2.915874509685646 2.738188423714755 -28.5
      vertex 3.23606797749979 2.3511410091698925 -5
      vertex 3.23606797749979 2.3511410091698925 -28.5
    endloop
  endfacet
  facet normal 0.8443279255020151 0.5358267949789967 0
    outer loop
      vertex 3.5052267201754543 1.9270146964068613 -28.5
      vertex 3.23606797749979 2.3511410091698925 -28.5
      vertex 3.5052267201754543 1.9270146964068613 -5
    endloop
  endfacet
  facet normal 0.12533323356430387 0.992114701314478 0
    outer loop
      vertex 0.2511620781172531 3.9921069137130862 -28.5
      vertex 0.2511620781172531 3.9921069137130862 -5
      vertex 0.7495252583428983 3.929149002914755 -5
    endloop
  endfacet
  facet normal 0.24868988716485535 0.968583161128631 0
    outer loop
      vertex 0.7495252583428983 3.929149002914755 -28.5
      vertex 0.7495252583428983 3.929149002914755 -5
      vertex 1.2360679774997896 3.804226065180614 -5
    endloop
  endfacet
  facet normal 0.36812455268467786 0.9297764858882515 0
    outer loop
      vertex 1.2360679774997896 3.804226065180614 -28.5
      vertex 1.2360679774997896 3.804226065180614 -5
      vertex 1.7031171662602909 3.619308209864078 -5
    endloop
  endfacet
  facet normal 0.481753674101715 0.8763066800438637 0
    outer loop
      vertex 1.7031171662602909 3.619308209864078 -28.5
      vertex 1.7031171662602909 3.619308209864078 -5
      vertex 2.1433071799159866 3.3773117020080603 -5
    endloop
  endfacet
  facet normal 0.9980267284282716 0.06279051952931301 0
    outer loop
      vertex 3.9684588052579115 0.501332934257217 -28.5
      vertex 3.9684588052579115 0.501332934257217 -5
      vertex 4 0 -5
    endloop
  endfacet
  facet normal 0.9822872507286884 0.1873813145857253 0
    outer loop
      vertex 3.8743326445145243 0.9947595486594192 -28.5
      vertex 3.8743326445145243 0.9947595486594192 -5
      vertex 3.9684588052579115 0.501332934257217 -5
    endloop
  endfacet
  facet normal 0.9510565162951534 0.30901699437494745 0
    outer loop
      vertex 3.7191059435530054 1.472498210738712 -28.5
      vertex 3.7191059435530054 1.472498210738712 -5
      vertex 3.8743326445145243 0.9947595486594192 -5
    endloop
  endfacet
  facet normal 0.9048270524660197 0.4257792915650722 0
    outer loop
      vertex 3.5052267201754543 1.9270146964068613 -28.5
      vertex 3.5052267201754543 1.9270146964068613 -5
      vertex 3.7191059435530054 1.472498210738712 -5
    endloop
  endfacet
  facet normal 0.6845471059286881 0.7289686274214121 0
    outer loop
      vertex 2.549695958994759 3.0820529711031566 -28.5
      vertex 2.549695958994759 3.0820529711031566 -5
      vertex 2.915874509685646 2.738188423714755 -5
    endloop
  endfacet
  facet normal 0.5877852522924736 0.8090169943749471 0
    outer loop
      vertex 2.1433071799159866 3.3773117020080603 -28.5
      vertex 2.1433071799159866 3.3773117020080603 -5
      vertex 2.549695958994759 3.0820529711031566 -5
    endloop
  endfacet
  facet normal 0.8443279255020151 0.5358267949789967 0
    outer loop
      vertex 3.23606797749979 2.3511410091698925 -28.5
      vertex 3.23606797749979 2.3511410091698925 -5
      vertex 3.5052267201754543 1.9270146964068613 -5
    endloop
  endfacet
  facet normal 0.7705132427757895 0.6374239897486896 0
    outer loop
      vertex 2.915874509685646 2.738188423714755 -28.5
      vertex 2.915874509685646 2.738188423714755 -5
      vertex 3.23606797749979 2.3511410091698925 -5
    endloop
  endfacet
endsolid OpenSCAD_Model
