solid OpenSCAD_Model
  facet normal 0.998026 0.0628013 0
    outer loop
      vertex 15 0 0
      vertex 14.8817 1.88 -5.9
      vertex 14.8817 1.88 0
    endloop
  endfacet
  facet normal 0.998026 0.0628013 0
    outer loop
      vertex 14.8817 1.88 -5.9
      vertex 15 0 0
      vertex 15 0 -5.9
    endloop
  endfacet
  facet normal -0.998026 0.0628013 0
    outer loop
      vertex -15 0 -5.9
      vertex -14.8817 1.88 0
      vertex -14.8817 1.88 -5.9
    endloop
  endfacet
  facet normal -0.998026 0.0628013 0
    outer loop
      vertex -14.8817 1.88 0
      vertex -15 0 -5.9
      vertex -15 0 0
    endloop
  endfacet
  facet normal 0 1 -0
    outer loop
      vertex 0.941857 14.9704 -5.9
      vertex -0.941857 14.9704 0
      vertex 0.941857 14.9704 0
    endloop
  endfacet
  facet normal 0 1 0
    outer loop
      vertex -0.941857 14.9704 0
      vertex 0.941857 14.9704 -5.9
      vertex -0.941857 14.9704 -5.9
    endloop
  endfacet
  facet normal 0 -1 0
    outer loop
      vertex -0.941857 -14.9704 -5.9
      vertex 0.941857 -14.9704 0
      vertex -0.941857 -14.9704 0
    endloop
  endfacet
  facet normal 0 -1 -0
    outer loop
      vertex 0.941857 -14.9704 0
      vertex -0.941857 -14.9704 -5.9
      vertex 0.941857 -14.9704 -5.9
    endloop
  endfacet
  facet normal 0.684557 0.728959 -0
    outer loop
      vertex 10.9345 10.2682 -5.9
      vertex 9.56136 11.5577 0
      vertex 10.9345 10.2682 0
    endloop
  endfacet
  facet normal 0.684557 0.728959 0
    outer loop
      vertex 9.56136 11.5577 0
      vertex 10.9345 10.2682 -5.9
      vertex 9.56136 11.5577 -5.9
    endloop
  endfacet
  facet normal -0.684557 0.728959 0
    outer loop
      vertex -9.56136 11.5577 -5.9
      vertex -10.9345 10.2682 0
      vertex -9.56136 11.5577 0
    endloop
  endfacet
  facet normal -0.684557 0.728959 0
    outer loop
      vertex -10.9345 10.2682 0
      vertex -9.56136 11.5577 -5.9
      vertex -10.9345 10.2682 -5.9
    endloop
  endfacet
  facet normal -0.368104 0.929785 0
    outer loop
      vertex -4.63525 14.2658 -5.9
      vertex -6.38669 13.5724 0
      vertex -4.63525 14.2658 0
    endloop
  endfacet
  facet normal -0.368104 0.929785 0
    outer loop
      vertex -6.38669 13.5724 0
      vertex -4.63525 14.2658 -5.9
      vertex -6.38669 13.5724 -5.9
    endloop
  endfacet
  facet normal 0.951057 -0.309017 0
    outer loop
      vertex 13.9466 -5.52187 0
      vertex 14.5287 -3.73035 -5.9
      vertex 14.5287 -3.73035 0
    endloop
  endfacet
  facet normal 0.951057 -0.309017 0
    outer loop
      vertex 14.5287 -3.73035 -5.9
      vertex 13.9466 -5.52187 0
      vertex 13.9466 -5.52187 -5.9
    endloop
  endfacet
  facet normal 0.904837 0.425758 0
    outer loop
      vertex 13.9466 5.52187 0
      vertex 13.1446 7.22631 -5.9
      vertex 13.1446 7.22631 0
    endloop
  endfacet
  facet normal 0.904837 0.425758 0
    outer loop
      vertex 13.1446 7.22631 -5.9
      vertex 13.9466 5.52187 0
      vertex 13.9466 5.52187 -5.9
    endloop
  endfacet
  facet normal 0.844338 0.535811 0
    outer loop
      vertex 13.1446 7.22631 0
      vertex 12.1353 8.81678 -5.9
      vertex 12.1353 8.81678 0
    endloop
  endfacet
  facet normal 0.844338 0.535811 0
    outer loop
      vertex 12.1353 8.81678 -5.9
      vertex 13.1446 7.22631 0
      vertex 13.1446 7.22631 -5.9
    endloop
  endfacet
  facet normal 0.368104 0.929785 -0
    outer loop
      vertex 6.38669 13.5724 -5.9
      vertex 4.63525 14.2658 0
      vertex 6.38669 13.5724 0
    endloop
  endfacet
  facet normal 0.368104 0.929785 0
    outer loop
      vertex 4.63525 14.2658 0
      vertex 6.38669 13.5724 -5.9
      vertex 4.63525 14.2658 -5.9
    endloop
  endfacet
  facet normal 0.48176 0.876303 -0
    outer loop
      vertex 8.0374 12.6649 -5.9
      vertex 6.38669 13.5724 0
      vertex 8.0374 12.6649 0
    endloop
  endfacet
  facet normal 0.48176 0.876303 0
    outer loop
      vertex 6.38669 13.5724 0
      vertex 8.0374 12.6649 -5.9
      vertex 6.38669 13.5724 -5.9
    endloop
  endfacet
  facet normal -0.904837 0.425758 0
    outer loop
      vertex -13.9466 5.52187 -5.9
      vertex -13.1446 7.22631 0
      vertex -13.1446 7.22631 -5.9
    endloop
  endfacet
  facet normal -0.904837 0.425758 0
    outer loop
      vertex -13.1446 7.22631 0
      vertex -13.9466 5.52187 -5.9
      vertex -13.9466 5.52187 0
    endloop
  endfacet
  facet normal -0.951057 0.309017 0
    outer loop
      vertex -14.5287 3.73035 -5.9
      vertex -13.9466 5.52187 0
      vertex -13.9466 5.52187 -5.9
    endloop
  endfacet
  facet normal -0.951057 0.309017 0
    outer loop
      vertex -13.9466 5.52187 0
      vertex -14.5287 3.73035 -5.9
      vertex -14.5287 3.73035 0
    endloop
  endfacet
  facet normal -0.24871 0.968578 0
    outer loop
      vertex -2.81072 14.7343 -5.9
      vertex -4.63525 14.2658 0
      vertex -2.81072 14.7343 0
    endloop
  endfacet
  facet normal -0.24871 0.968578 0
    outer loop
      vertex -4.63525 14.2658 0
      vertex -2.81072 14.7343 -5.9
      vertex -4.63525 14.2658 -5.9
    endloop
  endfacet
  facet normal 0.125337 -0.992114 0
    outer loop
      vertex 0.941857 -14.9704 -5.9
      vertex 2.81072 -14.7343 0
      vertex 0.941857 -14.9704 0
    endloop
  endfacet
  facet normal 0.125337 -0.992114 0
    outer loop
      vertex 2.81072 -14.7343 0
      vertex 0.941857 -14.9704 -5.9
      vertex 2.81072 -14.7343 -5.9
    endloop
  endfacet
  facet normal 0.951057 0.309017 0
    outer loop
      vertex 14.5287 3.73035 0
      vertex 13.9466 5.52187 -5.9
      vertex 13.9466 5.52187 0
    endloop
  endfacet
  facet normal 0.951057 0.309017 0
    outer loop
      vertex 13.9466 5.52187 -5.9
      vertex 14.5287 3.73035 0
      vertex 14.5287 3.73035 -5.9
    endloop
  endfacet
  facet normal 0.982285 0.187395 0
    outer loop
      vertex 14.8817 1.88 0
      vertex 14.5287 3.73035 -5.9
      vertex 14.5287 3.73035 0
    endloop
  endfacet
  facet normal 0.982285 0.187395 0
    outer loop
      vertex 14.5287 3.73035 -5.9
      vertex 14.8817 1.88 0
      vertex 14.8817 1.88 -5.9
    endloop
  endfacet
  facet normal 0.770492 0.63745 0
    outer loop
      vertex 12.1353 8.81678 0
      vertex 10.9345 10.2682 -5.9
      vertex 10.9345 10.2682 0
    endloop
  endfacet
  facet normal 0.770492 0.63745 0
    outer loop
      vertex 10.9345 10.2682 -5.9
      vertex 12.1353 8.81678 0
      vertex 12.1353 8.81678 -5.9
    endloop
  endfacet
  facet normal 0.24871 0.968578 -0
    outer loop
      vertex 4.63525 14.2658 -5.9
      vertex 2.81072 14.7343 0
      vertex 4.63525 14.2658 0
    endloop
  endfacet
  facet normal 0.24871 0.968578 0
    outer loop
      vertex 2.81072 14.7343 0
      vertex 4.63525 14.2658 -5.9
      vertex 2.81072 14.7343 -5.9
    endloop
  endfacet
  facet normal 0.125337 0.992114 -0
    outer loop
      vertex 2.81072 14.7343 -5.9
      vertex 0.941857 14.9704 0
      vertex 2.81072 14.7343 0
    endloop
  endfacet
  facet normal 0.125337 0.992114 0
    outer loop
      vertex 0.941857 14.9704 0
      vertex 2.81072 14.7343 -5.9
      vertex 0.941857 14.9704 -5.9
    endloop
  endfacet
  facet normal 0.587778 0.809022 -0
    outer loop
      vertex 9.56136 11.5577 -5.9
      vertex 8.0374 12.6649 0
      vertex 9.56136 11.5577 0
    endloop
  endfacet
  facet normal 0.587778 0.809022 0
    outer loop
      vertex 8.0374 12.6649 0
      vertex 9.56136 11.5577 -5.9
      vertex 8.0374 12.6649 -5.9
    endloop
  endfacet
  facet normal -0.844338 0.535811 0
    outer loop
      vertex -13.1446 7.22631 -5.9
      vertex -12.1353 8.81678 0
      vertex -12.1353 8.81678 -5.9
    endloop
  endfacet
  facet normal -0.844338 0.535811 0
    outer loop
      vertex -12.1353 8.81678 0
      vertex -13.1446 7.22631 -5.9
      vertex -13.1446 7.22631 0
    endloop
  endfacet
  facet normal -0.770492 0.63745 0
    outer loop
      vertex -12.1353 8.81678 -5.9
      vertex -10.9345 10.2682 0
      vertex -10.9345 10.2682 -5.9
    endloop
  endfacet
  facet normal -0.770492 0.63745 0
    outer loop
      vertex -10.9345 10.2682 0
      vertex -12.1353 8.81678 -5.9
      vertex -12.1353 8.81678 0
    endloop
  endfacet
  facet normal -0.982285 0.187395 0
    outer loop
      vertex -14.8817 1.88 -5.9
      vertex -14.5287 3.73035 0
      vertex -14.5287 3.73035 -5.9
    endloop
  endfacet
  facet normal -0.982285 0.187395 0
    outer loop
      vertex -14.5287 3.73035 0
      vertex -14.8817 1.88 -5.9
      vertex -14.8817 1.88 0
    endloop
  endfacet
  facet normal 0 0 1
    outer loop
      vertex 5.9 0 0
      vertex 15 0 0
      vertex 14.8817 1.88 0
    endloop
  endfacet
  facet normal 0 0 1
    outer loop
      vertex 5.85348 0.739466 0
      vertex 14.8817 1.88 0
      vertex 14.5287 3.73035 0
    endloop
  endfacet
  facet normal 0 0 1
    outer loop
      vertex 15 0 0
      vertex 5.9 0 0
      vertex 14.8817 -1.88 0
    endloop
  endfacet
  facet normal 0 0 1
    outer loop
      vertex 5.71464 1.46727 0
      vertex 14.5287 3.73035 0
      vertex 13.9466 5.52187 0
    endloop
  endfacet
  facet normal -0 0 1
    outer loop
      vertex 5.85348 -0.739466 0
      vertex 14.8817 -1.88 0
      vertex 5.9 0 0
    endloop
  endfacet
  facet normal 0 0 1
    outer loop
      vertex 5.48568 2.17193 0
      vertex 13.9466 5.52187 0
      vertex 13.1446 7.22631 0
    endloop
  endfacet
  facet normal 0 0 1
    outer loop
      vertex 14.8817 -1.88 0
      vertex 5.85348 -0.739466 0
      vertex 14.5287 -3.73035 0
    endloop
  endfacet
  facet normal 0 0 1
    outer loop
      vertex 5.17021 2.84235 0
      vertex 13.1446 7.22631 0
      vertex 12.1353 8.81678 0
    endloop
  endfacet
  facet normal -0 0 1
    outer loop
      vertex 5.71464 -1.46727 0
      vertex 14.5287 -3.73035 0
      vertex 5.85348 -0.739466 0
    endloop
  endfacet
  facet normal 0 0 1
    outer loop
      vertex 4.7732 3.46793 0
      vertex 12.1353 8.81678 0
      vertex 10.9345 10.2682 0
    endloop
  endfacet
  facet normal 0 0 1
    outer loop
      vertex 14.5287 -3.73035 0
      vertex 5.71464 -1.46727 0
      vertex 13.9466 -5.52187 0
    endloop
  endfacet
  facet normal 0 0 1
    outer loop
      vertex 4.30091 4.03883 0
      vertex 10.9345 10.2682 0
      vertex 9.56136 11.5577 0
    endloop
  endfacet
  facet normal -0 0 1
    outer loop
      vertex 5.48568 -2.17193 0
      vertex 13.9466 -5.52187 0
      vertex 5.71464 -1.46727 0
    endloop
  endfacet
  facet normal 0 0 1
    outer loop
      vertex 3.7608 4.54603 0
      vertex 9.56136 11.5577 0
      vertex 8.0374 12.6649 0
    endloop
  endfacet
  facet normal 0 0 1
    outer loop
      vertex 13.9466 -5.52187 0
      vertex 5.48568 -2.17193 0
      vertex 13.1446 -7.22631 0
    endloop
  endfacet
  facet normal 0 0 1
    outer loop
      vertex 3.16138 4.98153 0
      vertex 8.0374 12.6649 0
      vertex 6.38669 13.5724 0
    endloop
  endfacet
  facet normal -0 0 1
    outer loop
      vertex 5.17021 -2.84235 0
      vertex 13.1446 -7.22631 0
      vertex 5.48568 -2.17193 0
    endloop
  endfacet
  facet normal 0 0 1
    outer loop
      vertex 13.1446 -7.22631 0
      vertex 5.17021 -2.84235 0
      vertex 12.1353 -8.81678 0
    endloop
  endfacet
  facet normal 0 0 1
    outer loop
      vertex 14.8817 1.88 0
      vertex 5.85348 0.739466 0
      vertex 5.9 0 0
    endloop
  endfacet
  facet normal 0 0 1
    outer loop
      vertex 14.5287 3.73035 0
      vertex 5.71464 1.46727 0
      vertex 5.85348 0.739466 0
    endloop
  endfacet
  facet normal 0 0 1
    outer loop
      vertex 13.9466 5.52187 0
      vertex 5.48568 2.17193 0
      vertex 5.71464 1.46727 0
    endloop
  endfacet
  facet normal 0 0 1
    outer loop
      vertex 13.1446 7.22631 0
      vertex 5.17021 2.84235 0
      vertex 5.48568 2.17193 0
    endloop
  endfacet
  facet normal 0 0 1
    outer loop
      vertex 12.1353 8.81678 0
      vertex 4.7732 3.46793 0
      vertex 5.17021 2.84235 0
    endloop
  endfacet
  facet normal 0 0 1
    outer loop
      vertex 2.5121 5.33848 0
      vertex 6.38669 13.5724 0
      vertex 4.63525 14.2658 0
    endloop
  endfacet
  facet normal 0 0 1
    outer loop
      vertex 10.9345 10.2682 0
      vertex 4.30091 4.03883 0
      vertex 4.7732 3.46793 0
    endloop
  endfacet
  facet normal 0 0 1
    outer loop
      vertex 9.56136 11.5577 0
      vertex 3.7608 4.54603 0
      vertex 4.30091 4.03883 0
    endloop
  endfacet
  facet normal 0 0 1
    outer loop
      vertex 8.0374 12.6649 0
      vertex 3.16138 4.98153 0
      vertex 3.7608 4.54603 0
    endloop
  endfacet
  facet normal 0 0 1
    outer loop
      vertex 1.8232 5.61123 0
      vertex 4.63525 14.2658 0
      vertex 2.81072 14.7343 0
    endloop
  endfacet
  facet normal 0 0 1
    outer loop
      vertex 6.38669 13.5724 0
      vertex 2.5121 5.33848 0
      vertex 3.16138 4.98153 0
    endloop
  endfacet
  facet normal 0 0 1
    outer loop
      vertex 4.63525 14.2658 0
      vertex 1.8232 5.61123 0
      vertex 2.5121 5.33848 0
    endloop
  endfacet
  facet normal 0 0 1
    outer loop
      vertex 2.81072 14.7343 0
      vertex 1.10555 5.79549 0
      vertex 1.8232 5.61123 0
    endloop
  endfacet
  facet normal 0 0 1
    outer loop
      vertex 0.941857 14.9704 0
      vertex 1.10555 5.79549 0
      vertex 2.81072 14.7343 0
    endloop
  endfacet
  facet normal 0 0 1
    outer loop
      vertex 0.941857 14.9704 0
      vertex 0.370463 5.88836 0
      vertex 1.10555 5.79549 0
    endloop
  endfacet
  facet normal 0 0 1
    outer loop
      vertex 0.941857 14.9704 0
      vertex -0.370463 5.88836 0
      vertex 0.370463 5.88836 0
    endloop
  endfacet
  facet normal -0 0 1
    outer loop
      vertex -0.941857 14.9704 0
      vertex -0.370463 5.88836 0
      vertex 0.941857 14.9704 0
    endloop
  endfacet
  facet normal 0 0 1
    outer loop
      vertex -0.941857 14.9704 0
      vertex -1.10555 5.79549 0
      vertex -0.370463 5.88836 0
    endloop
  endfacet
  facet normal -0 0 1
    outer loop
      vertex -2.81072 14.7343 0
      vertex -1.10555 5.79549 0
      vertex -0.941857 14.9704 0
    endloop
  endfacet
  facet normal 0 0 1
    outer loop
      vertex -1.10555 5.79549 0
      vertex -2.81072 14.7343 0
      vertex -1.8232 5.61123 0
    endloop
  endfacet
  facet normal -0 0 1
    outer loop
      vertex -4.63525 14.2658 0
      vertex -1.8232 5.61123 0
      vertex -2.81072 14.7343 0
    endloop
  endfacet
  facet normal 0 0 1
    outer loop
      vertex -1.8232 5.61123 0
      vertex -4.63525 14.2658 0
      vertex -2.5121 5.33848 0
    endloop
  endfacet
  facet normal -0 0 1
    outer loop
      vertex -6.38669 13.5724 0
      vertex -2.5121 5.33848 0
      vertex -4.63525 14.2658 0
    endloop
  endfacet
  facet normal 0 0 1
    outer loop
      vertex -2.5121 5.33848 0
      vertex -6.38669 13.5724 0
      vertex -3.16138 4.98153 0
    endloop
  endfacet
  facet normal -0 0 1
    outer loop
      vertex -8.0374 12.6649 0
      vertex -3.16138 4.98153 0
      vertex -6.38669 13.5724 0
    endloop
  endfacet
  facet normal 0 0 1
    outer loop
      vertex -3.16138 4.98153 0
      vertex -8.0374 12.6649 0
      vertex -3.7608 4.54603 0
    endloop
  endfacet
  facet normal -0 0 1
    outer loop
      vertex -9.56136 11.5577 0
      vertex -3.7608 4.54603 0
      vertex -8.0374 12.6649 0
    endloop
  endfacet
  facet normal 0 0 1
    outer loop
      vertex -3.7608 4.54603 0
      vertex -9.56136 11.5577 0
      vertex -4.30091 4.03883 0
    endloop
  endfacet
  facet normal -0 0 1
    outer loop
      vertex -10.9345 10.2682 0
      vertex -4.30091 4.03883 0
      vertex -9.56136 11.5577 0
    endloop
  endfacet
  facet normal 0 0 1
    outer loop
      vertex -4.30091 4.03883 0
      vertex -10.9345 10.2682 0
      vertex -4.7732 3.46793 0
    endloop
  endfacet
  facet normal 0 0 1
    outer loop
      vertex -4.7732 3.46793 0
      vertex -12.1353 8.81678 0
      vertex -5.17021 2.84235 0
    endloop
  endfacet
  facet normal -0 0 1
    outer loop
      vertex -12.1353 8.81678 0
      vertex -4.7732 3.46793 0
      vertex -10.9345 10.2682 0
    endloop
  endfacet
  facet normal -0 0 1
    outer loop
      vertex 4.7732 -3.46793 0
      vertex 12.1353 -8.81678 0
      vertex 5.17021 -2.84235 0
    endloop
  endfacet
  facet normal 0 0 1
    outer loop
      vertex 12.1353 -8.81678 0
      vertex 4.7732 -3.46793 0
      vertex 10.9345 -10.2682 0
    endloop
  endfacet
  facet normal -0 0 1
    outer loop
      vertex 4.30091 -4.03883 0
      vertex 10.9345 -10.2682 0
      vertex 4.7732 -3.46793 0
    endloop
  endfacet
  facet normal 0 0 1
    outer loop
      vertex 10.9345 -10.2682 0
      vertex 4.30091 -4.03883 0
      vertex 9.56136 -11.5577 0
    endloop
  endfacet
  facet normal -0 0 1
    outer loop
      vertex 3.7608 -4.54603 0
      vertex 9.56136 -11.5577 0
      vertex 4.30091 -4.03883 0
    endloop
  endfacet
  facet normal 0 0 1
    outer loop
      vertex 9.56136 -11.5577 0
      vertex 3.7608 -4.54603 0
      vertex 8.0374 -12.6649 0
    endloop
  endfacet
  facet normal -0 0 1
    outer loop
      vertex 3.16138 -4.98153 0
      vertex 8.0374 -12.6649 0
      vertex 3.7608 -4.54603 0
    endloop
  endfacet
  facet normal 0 0 1
    outer loop
      vertex 8.0374 -12.6649 0
      vertex 3.16138 -4.98153 0
      vertex 6.38669 -13.5724 0
    endloop
  endfacet
  facet normal -0 0 1
    outer loop
      vertex 2.5121 -5.33848 0
      vertex 6.38669 -13.5724 0
      vertex 3.16138 -4.98153 0
    endloop
  endfacet
  facet normal 0 0 1
    outer loop
      vertex 6.38669 -13.5724 0
      vertex 2.5121 -5.33848 0
      vertex 4.63525 -14.2658 0
    endloop
  endfacet
  facet normal -0 0 1
    outer loop
      vertex 1.8232 -5.61123 0
      vertex 4.63525 -14.2658 0
      vertex 2.5121 -5.33848 0
    endloop
  endfacet
  facet normal 0 0 1
    outer loop
      vertex 4.63525 -14.2658 0
      vertex 1.8232 -5.61123 0
      vertex 2.81072 -14.7343 0
    endloop
  endfacet
  facet normal -0 0 1
    outer loop
      vertex 1.10555 -5.79549 0
      vertex 2.81072 -14.7343 0
      vertex 1.8232 -5.61123 0
    endloop
  endfacet
  facet normal 0 0 1
    outer loop
      vertex 1.10555 -5.79549 0
      vertex 0.941857 -14.9704 0
      vertex 2.81072 -14.7343 0
    endloop
  endfacet
  facet normal -0 0 1
    outer loop
      vertex 0.370463 -5.88836 0
      vertex 0.941857 -14.9704 0
      vertex 1.10555 -5.79549 0
    endloop
  endfacet
  facet normal -0 0 1
    outer loop
      vertex -0.370463 -5.88836 0
      vertex 0.941857 -14.9704 0
      vertex 0.370463 -5.88836 0
    endloop
  endfacet
  facet normal 0 0 1
    outer loop
      vertex -0.370463 -5.88836 0
      vertex -0.941857 -14.9704 0
      vertex 0.941857 -14.9704 0
    endloop
  endfacet
  facet normal 0 0 1
    outer loop
      vertex -1.10555 -5.79549 0
      vertex -0.941857 -14.9704 0
      vertex -0.370463 -5.88836 0
    endloop
  endfacet
  facet normal 0 0 1
    outer loop
      vertex -2.81072 -14.7343 0
      vertex -1.10555 -5.79549 0
      vertex -1.8232 -5.61123 0
    endloop
  endfacet
  facet normal 0 0 1
    outer loop
      vertex -4.63525 -14.2658 0
      vertex -1.8232 -5.61123 0
      vertex -2.5121 -5.33848 0
    endloop
  endfacet
  facet normal 0 0 1
    outer loop
      vertex -1.10555 -5.79549 0
      vertex -2.81072 -14.7343 0
      vertex -0.941857 -14.9704 0
    endloop
  endfacet
  facet normal 0 0 1
    outer loop
      vertex -6.38669 -13.5724 0
      vertex -2.5121 -5.33848 0
      vertex -3.16138 -4.98153 0
    endloop
  endfacet
  facet normal 0 0 1
    outer loop
      vertex -8.0374 -12.6649 0
      vertex -3.16138 -4.98153 0
      vertex -3.7608 -4.54603 0
    endloop
  endfacet
  facet normal 0 0 1
    outer loop
      vertex -9.56136 -11.5577 0
      vertex -3.7608 -4.54603 0
      vertex -4.30091 -4.03883 0
    endloop
  endfacet
  facet normal 0 0 1
    outer loop
      vertex -1.8232 -5.61123 0
      vertex -4.63525 -14.2658 0
      vertex -2.81072 -14.7343 0
    endloop
  endfacet
  facet normal 0 0 1
    outer loop
      vertex -10.9345 -10.2682 0
      vertex -4.30091 -4.03883 0
      vertex -4.7732 -3.46793 0
    endloop
  endfacet
  facet normal 0 0 1
    outer loop
      vertex -12.1353 -8.81678 0
      vertex -4.7732 -3.46793 0
      vertex -5.17021 -2.84235 0
    endloop
  endfacet
  facet normal 0 0 1
    outer loop
      vertex -13.1446 -7.22631 0
      vertex -5.17021 -2.84235 0
      vertex -5.48568 -2.17193 0
    endloop
  endfacet
  facet normal 0 0 1
    outer loop
      vertex -13.9466 -5.52187 0
      vertex -5.48568 -2.17193 0
      vertex -5.71464 -1.46727 0
    endloop
  endfacet
  facet normal 0 0 1
    outer loop
      vertex -14.5287 -3.73035 0
      vertex -5.71464 -1.46727 0
      vertex -5.85348 -0.739466 0
    endloop
  endfacet
  facet normal 0 0 1
    outer loop
      vertex -2.5121 -5.33848 0
      vertex -6.38669 -13.5724 0
      vertex -4.63525 -14.2658 0
    endloop
  endfacet
  facet normal 0 0 1
    outer loop
      vertex -14.8817 -1.88 0
      vertex -5.85348 -0.739466 0
      vertex -5.9 0 0
    endloop
  endfacet
  facet normal -0 0 1
    outer loop
      vertex -13.1446 7.22631 0
      vertex -5.17021 2.84235 0
      vertex -12.1353 8.81678 0
    endloop
  endfacet
  facet normal 0 0 1
    outer loop
      vertex -5.17021 2.84235 0
      vertex -13.1446 7.22631 0
      vertex -5.48568 2.17193 0
    endloop
  endfacet
  facet normal 0 0 1
    outer loop
      vertex -3.16138 -4.98153 0
      vertex -8.0374 -12.6649 0
      vertex -6.38669 -13.5724 0
    endloop
  endfacet
  facet normal -0 0 1
    outer loop
      vertex -13.9466 5.52187 0
      vertex -5.48568 2.17193 0
      vertex -13.1446 7.22631 0
    endloop
  endfacet
  facet normal 0 0 1
    outer loop
      vertex -3.7608 -4.54603 0
      vertex -9.56136 -11.5577 0
      vertex -8.0374 -12.6649 0
    endloop
  endfacet
  facet normal 0 0 1
    outer loop
      vertex -5.48568 2.17193 0
      vertex -13.9466 5.52187 0
      vertex -5.71464 1.46727 0
    endloop
  endfacet
  facet normal 0 0 1
    outer loop
      vertex -4.30091 -4.03883 0
      vertex -10.9345 -10.2682 0
      vertex -9.56136 -11.5577 0
    endloop
  endfacet
  facet normal -0 0 1
    outer loop
      vertex -14.5287 3.73035 0
      vertex -5.71464 1.46727 0
      vertex -13.9466 5.52187 0
    endloop
  endfacet
  facet normal 0 0 1
    outer loop
      vertex -4.7732 -3.46793 0
      vertex -12.1353 -8.81678 0
      vertex -10.9345 -10.2682 0
    endloop
  endfacet
  facet normal 0 0 1
    outer loop
      vertex -5.71464 1.46727 0
      vertex -14.5287 3.73035 0
      vertex -5.85348 0.739466 0
    endloop
  endfacet
  facet normal 0 0 1
    outer loop
      vertex -5.17021 -2.84235 0
      vertex -13.1446 -7.22631 0
      vertex -12.1353 -8.81678 0
    endloop
  endfacet
  facet normal -0 0 1
    outer loop
      vertex -14.8817 1.88 0
      vertex -5.85348 0.739466 0
      vertex -14.5287 3.73035 0
    endloop
  endfacet
  facet normal 0 0 1
    outer loop
      vertex -5.48568 -2.17193 0
      vertex -13.9466 -5.52187 0
      vertex -13.1446 -7.22631 0
    endloop
  endfacet
  facet normal 0 0 1
    outer loop
      vertex -5.85348 0.739466 0
      vertex -14.8817 1.88 0
      vertex -5.9 0 0
    endloop
  endfacet
  facet normal 0 0 1
    outer loop
      vertex -5.71464 -1.46727 0
      vertex -14.5287 -3.73035 0
      vertex -13.9466 -5.52187 0
    endloop
  endfacet
  facet normal 0 0 1
    outer loop
      vertex -15 0 0
      vertex -5.9 0 0
      vertex -14.8817 1.88 0
    endloop
  endfacet
  facet normal 0 0 1
    outer loop
      vertex -5.85348 -0.739466 0
      vertex -14.8817 -1.88 0
      vertex -14.5287 -3.73035 0
    endloop
  endfacet
  facet normal 0 0 1
    outer loop
      vertex -5.9 0 0
      vertex -15 0 0
      vertex -14.8817 -1.88 0
    endloop
  endfacet
  facet normal -0.48176 0.876303 0
    outer loop
      vertex -6.38669 13.5724 -5.9
      vertex -8.0374 12.6649 0
      vertex -6.38669 13.5724 0
    endloop
  endfacet
  facet normal -0.48176 0.876303 0
    outer loop
      vertex -8.0374 12.6649 0
      vertex -6.38669 13.5724 -5.9
      vertex -8.0374 12.6649 -5.9
    endloop
  endfacet
  facet normal -0.587778 0.809022 0
    outer loop
      vertex -8.0374 12.6649 -5.9
      vertex -9.56136 11.5577 0
      vertex -8.0374 12.6649 0
    endloop
  endfacet
  facet normal -0.587778 0.809022 0
    outer loop
      vertex -9.56136 11.5577 0
      vertex -8.0374 12.6649 -5.9
      vertex -9.56136 11.5577 -5.9
    endloop
  endfacet
  facet normal -0.125337 0.992114 0
    outer loop
      vertex -0.941857 14.9704 -5.9
      vertex -2.81072 14.7343 0
      vertex -0.941857 14.9704 0
    endloop
  endfacet
  facet normal -0.125337 0.992114 0
    outer loop
      vertex -2.81072 14.7343 0
      vertex -0.941857 14.9704 -5.9
      vertex -2.81072 14.7343 -5.9
    endloop
  endfacet
  facet normal 0.998026 -0.0628013 0
    outer loop
      vertex 14.8817 -1.88 0
      vertex 15 0 -5.9
      vertex 15 0 0
    endloop
  endfacet
  facet normal 0.998026 -0.0628013 0
    outer loop
      vertex 15 0 -5.9
      vertex 14.8817 -1.88 0
      vertex 14.8817 -1.88 -5.9
    endloop
  endfacet
  facet normal 0.770492 -0.63745 0
    outer loop
      vertex 10.9345 -10.2682 0
      vertex 12.1353 -8.81678 -5.9
      vertex 12.1353 -8.81678 0
    endloop
  endfacet
  facet normal 0.770492 -0.63745 0
    outer loop
      vertex 12.1353 -8.81678 -5.9
      vertex 10.9345 -10.2682 0
      vertex 10.9345 -10.2682 -5.9
    endloop
  endfacet
  facet normal 0.904837 -0.425758 0
    outer loop
      vertex 13.1446 -7.22631 0
      vertex 13.9466 -5.52187 -5.9
      vertex 13.9466 -5.52187 0
    endloop
  endfacet
  facet normal 0.904837 -0.425758 0
    outer loop
      vertex 13.9466 -5.52187 -5.9
      vertex 13.1446 -7.22631 0
      vertex 13.1446 -7.22631 -5.9
    endloop
  endfacet
  facet normal 0.982285 -0.187395 0
    outer loop
      vertex 14.5287 -3.73035 0
      vertex 14.8817 -1.88 -5.9
      vertex 14.8817 -1.88 0
    endloop
  endfacet
  facet normal 0.982285 -0.187395 0
    outer loop
      vertex 14.8817 -1.88 -5.9
      vertex 14.5287 -3.73035 0
      vertex 14.5287 -3.73035 -5.9
    endloop
  endfacet
  facet normal 0 0 -1
    outer loop
      vertex 2.5 0 -5.9
      vertex 15 0 -5.9
      vertex 14.8817 -1.88 -5.9
    endloop
  endfacet
  facet normal 0 0 -1
    outer loop
      vertex 2.48029 -0.313333 -5.9
      vertex 14.8817 -1.88 -5.9
      vertex 14.5287 -3.73035 -5.9
    endloop
  endfacet
  facet normal 0 0 -1
    outer loop
      vertex 15 0 -5.9
      vertex 2.5 0 -5.9
      vertex 14.8817 1.88 -5.9
    endloop
  endfacet
  facet normal 0 0 -1
    outer loop
      vertex 2.42146 -0.621724 -5.9
      vertex 14.5287 -3.73035 -5.9
      vertex 13.9466 -5.52187 -5.9
    endloop
  endfacet
  facet normal 0 0 -1
    outer loop
      vertex 2.48029 0.313333 -5.9
      vertex 14.8817 1.88 -5.9
      vertex 2.5 0 -5.9
    endloop
  endfacet
  facet normal 0 0 -1
    outer loop
      vertex 2.32444 -0.920311 -5.9
      vertex 13.9466 -5.52187 -5.9
      vertex 13.1446 -7.22631 -5.9
    endloop
  endfacet
  facet normal -0 0 -1
    outer loop
      vertex 14.8817 1.88 -5.9
      vertex 2.48029 0.313333 -5.9
      vertex 14.5287 3.73035 -5.9
    endloop
  endfacet
  facet normal 0 0 -1
    outer loop
      vertex 2.19077 -1.20438 -5.9
      vertex 13.1446 -7.22631 -5.9
      vertex 12.1353 -8.81678 -5.9
    endloop
  endfacet
  facet normal 0 0 -1
    outer loop
      vertex 2.42146 0.621724 -5.9
      vertex 14.5287 3.73035 -5.9
      vertex 2.48029 0.313333 -5.9
    endloop
  endfacet
  facet normal 0 0 -1
    outer loop
      vertex 2.02254 -1.46946 -5.9
      vertex 12.1353 -8.81678 -5.9
      vertex 10.9345 -10.2682 -5.9
    endloop
  endfacet
  facet normal -0 0 -1
    outer loop
      vertex 14.5287 3.73035 -5.9
      vertex 2.42146 0.621724 -5.9
      vertex 13.9466 5.52187 -5.9
    endloop
  endfacet
  facet normal 0 0 -1
    outer loop
      vertex 1.82242 -1.71137 -5.9
      vertex 10.9345 -10.2682 -5.9
      vertex 9.56136 -11.5577 -5.9
    endloop
  endfacet
  facet normal 0 0 -1
    outer loop
      vertex 2.32444 0.920311 -5.9
      vertex 13.9466 5.52187 -5.9
      vertex 2.42146 0.621724 -5.9
    endloop
  endfacet
  facet normal 0 0 -1
    outer loop
      vertex 1.59356 -1.92628 -5.9
      vertex 9.56136 -11.5577 -5.9
      vertex 8.0374 -12.6649 -5.9
    endloop
  endfacet
  facet normal -0 0 -1
    outer loop
      vertex 13.9466 5.52187 -5.9
      vertex 2.32444 0.920311 -5.9
      vertex 13.1446 7.22631 -5.9
    endloop
  endfacet
  facet normal 0 0 -1
    outer loop
      vertex 1.33957 -2.11082 -5.9
      vertex 8.0374 -12.6649 -5.9
      vertex 6.38669 -13.5724 -5.9
    endloop
  endfacet
  facet normal 0 0 -1
    outer loop
      vertex 2.19077 1.20438 -5.9
      vertex 13.1446 7.22631 -5.9
      vertex 2.32444 0.920311 -5.9
    endloop
  endfacet
  facet normal 0 0 -1
    outer loop
      vertex 1.06445 -2.26207 -5.9
      vertex 6.38669 -13.5724 -5.9
      vertex 4.63525 -14.2658 -5.9
    endloop
  endfacet
  facet normal -0 0 -1
    outer loop
      vertex 13.1446 7.22631 -5.9
      vertex 2.19077 1.20438 -5.9
      vertex 12.1353 8.81678 -5.9
    endloop
  endfacet
  facet normal 0 0 -1
    outer loop
      vertex 0.772542 -2.37764 -5.9
      vertex 4.63525 -14.2658 -5.9
      vertex 2.81072 -14.7343 -5.9
    endloop
  endfacet
  facet normal 0 0 -1
    outer loop
      vertex 2.02254 1.46946 -5.9
      vertex 12.1353 8.81678 -5.9
      vertex 2.19077 1.20438 -5.9
    endloop
  endfacet
  facet normal -0 0 -1
    outer loop
      vertex 12.1353 8.81678 -5.9
      vertex 2.02254 1.46946 -5.9
      vertex 10.9345 10.2682 -5.9
    endloop
  endfacet
  facet normal 0 0 -1
    outer loop
      vertex 14.8817 -1.88 -5.9
      vertex 2.48029 -0.313333 -5.9
      vertex 2.5 0 -5.9
    endloop
  endfacet
  facet normal 0 0 -1
    outer loop
      vertex 14.5287 -3.73035 -5.9
      vertex 2.42146 -0.621724 -5.9
      vertex 2.48029 -0.313333 -5.9
    endloop
  endfacet
  facet normal 0 0 -1
    outer loop
      vertex 13.9466 -5.52187 -5.9
      vertex 2.32444 -0.920311 -5.9
      vertex 2.42146 -0.621724 -5.9
    endloop
  endfacet
  facet normal 0 0 -1
    outer loop
      vertex 13.1446 -7.22631 -5.9
      vertex 2.19077 -1.20438 -5.9
      vertex 2.32444 -0.920311 -5.9
    endloop
  endfacet
  facet normal 0 0 -1
    outer loop
      vertex 12.1353 -8.81678 -5.9
      vertex 2.02254 -1.46946 -5.9
      vertex 2.19077 -1.20438 -5.9
    endloop
  endfacet
  facet normal 0 0 -1
    outer loop
      vertex 10.9345 -10.2682 -5.9
      vertex 1.82242 -1.71137 -5.9
      vertex 2.02254 -1.46946 -5.9
    endloop
  endfacet
  facet normal 0 0 -1
    outer loop
      vertex 9.56136 -11.5577 -5.9
      vertex 1.59356 -1.92628 -5.9
      vertex 1.82242 -1.71137 -5.9
    endloop
  endfacet
  facet normal 0 0 -1
    outer loop
      vertex 8.0374 -12.6649 -5.9
      vertex 1.33957 -2.11082 -5.9
      vertex 1.59356 -1.92628 -5.9
    endloop
  endfacet
  facet normal 0 0 -1
    outer loop
      vertex 6.38669 -13.5724 -5.9
      vertex 1.06445 -2.26207 -5.9
      vertex 1.33957 -2.11082 -5.9
    endloop
  endfacet
  facet normal 0 0 -1
    outer loop
      vertex 0.468452 -2.45572 -5.9
      vertex 2.81072 -14.7343 -5.9
      vertex 0.941857 -14.9704 -5.9
    endloop
  endfacet
  facet normal 0 0 -1
    outer loop
      vertex 4.63525 -14.2658 -5.9
      vertex 0.772542 -2.37764 -5.9
      vertex 1.06445 -2.26207 -5.9
    endloop
  endfacet
  facet normal 0 0 -1
    outer loop
      vertex 2.81072 -14.7343 -5.9
      vertex 0.468452 -2.45572 -5.9
      vertex 0.772542 -2.37764 -5.9
    endloop
  endfacet
  facet normal 0 0 -1
    outer loop
      vertex 0.941857 -14.9704 -5.9
      vertex 0.156976 -2.49507 -5.9
      vertex 0.468452 -2.45572 -5.9
    endloop
  endfacet
  facet normal 0 0 -1
    outer loop
      vertex 0.941857 -14.9704 -5.9
      vertex -0.156976 -2.49507 -5.9
      vertex 0.156976 -2.49507 -5.9
    endloop
  endfacet
  facet normal 0 0 -1
    outer loop
      vertex -0.941857 -14.9704 -5.9
      vertex -0.156976 -2.49507 -5.9
      vertex 0.941857 -14.9704 -5.9
    endloop
  endfacet
  facet normal -0 0 -1
    outer loop
      vertex -0.156976 -2.49507 -5.9
      vertex -0.941857 -14.9704 -5.9
      vertex -0.468452 -2.45572 -5.9
    endloop
  endfacet
  facet normal 0 0 -1
    outer loop
      vertex -2.81072 -14.7343 -5.9
      vertex -0.468452 -2.45572 -5.9
      vertex -0.941857 -14.9704 -5.9
    endloop
  endfacet
  facet normal -0 0 -1
    outer loop
      vertex -0.468452 -2.45572 -5.9
      vertex -2.81072 -14.7343 -5.9
      vertex -0.772542 -2.37764 -5.9
    endloop
  endfacet
  facet normal 0 0 -1
    outer loop
      vertex -4.63525 -14.2658 -5.9
      vertex -0.772542 -2.37764 -5.9
      vertex -2.81072 -14.7343 -5.9
    endloop
  endfacet
  facet normal -0 0 -1
    outer loop
      vertex -0.772542 -2.37764 -5.9
      vertex -4.63525 -14.2658 -5.9
      vertex -1.06445 -2.26207 -5.9
    endloop
  endfacet
  facet normal 0 0 -1
    outer loop
      vertex -6.38669 -13.5724 -5.9
      vertex -1.06445 -2.26207 -5.9
      vertex -4.63525 -14.2658 -5.9
    endloop
  endfacet
  facet normal -0 0 -1
    outer loop
      vertex -1.06445 -2.26207 -5.9
      vertex -6.38669 -13.5724 -5.9
      vertex -1.33957 -2.11082 -5.9
    endloop
  endfacet
  facet normal 0 0 -1
    outer loop
      vertex -8.0374 -12.6649 -5.9
      vertex -1.33957 -2.11082 -5.9
      vertex -6.38669 -13.5724 -5.9
    endloop
  endfacet
  facet normal -0 0 -1
    outer loop
      vertex -1.33957 -2.11082 -5.9
      vertex -8.0374 -12.6649 -5.9
      vertex -1.59356 -1.92628 -5.9
    endloop
  endfacet
  facet normal 0 0 -1
    outer loop
      vertex -9.56136 -11.5577 -5.9
      vertex -1.59356 -1.92628 -5.9
      vertex -8.0374 -12.6649 -5.9
    endloop
  endfacet
  facet normal -0 0 -1
    outer loop
      vertex -1.59356 -1.92628 -5.9
      vertex -9.56136 -11.5577 -5.9
      vertex -1.82242 -1.71137 -5.9
    endloop
  endfacet
  facet normal -0 0 -1
    outer loop
      vertex -1.82242 -1.71137 -5.9
      vertex -10.9345 -10.2682 -5.9
      vertex -2.02254 -1.46946 -5.9
    endloop
  endfacet
  facet normal 0 0 -1
    outer loop
      vertex -10.9345 -10.2682 -5.9
      vertex -1.82242 -1.71137 -5.9
      vertex -9.56136 -11.5577 -5.9
    endloop
  endfacet
  facet normal 0 0 -1
    outer loop
      vertex 1.82242 1.71137 -5.9
      vertex 10.9345 10.2682 -5.9
      vertex 2.02254 1.46946 -5.9
    endloop
  endfacet
  facet normal -0 0 -1
    outer loop
      vertex 10.9345 10.2682 -5.9
      vertex 1.82242 1.71137 -5.9
      vertex 9.56136 11.5577 -5.9
    endloop
  endfacet
  facet normal 0 0 -1
    outer loop
      vertex 1.59356 1.92628 -5.9
      vertex 9.56136 11.5577 -5.9
      vertex 1.82242 1.71137 -5.9
    endloop
  endfacet
  facet normal -0 0 -1
    outer loop
      vertex 9.56136 11.5577 -5.9
      vertex 1.59356 1.92628 -5.9
      vertex 8.0374 12.6649 -5.9
    endloop
  endfacet
  facet normal 0 0 -1
    outer loop
      vertex 1.33957 2.11082 -5.9
      vertex 8.0374 12.6649 -5.9
      vertex 1.59356 1.92628 -5.9
    endloop
  endfacet
  facet normal -0 0 -1
    outer loop
      vertex 8.0374 12.6649 -5.9
      vertex 1.33957 2.11082 -5.9
      vertex 6.38669 13.5724 -5.9
    endloop
  endfacet
  facet normal 0 0 -1
    outer loop
      vertex 1.06445 2.26207 -5.9
      vertex 6.38669 13.5724 -5.9
      vertex 1.33957 2.11082 -5.9
    endloop
  endfacet
  facet normal -0 0 -1
    outer loop
      vertex 6.38669 13.5724 -5.9
      vertex 1.06445 2.26207 -5.9
      vertex 4.63525 14.2658 -5.9
    endloop
  endfacet
  facet normal 0 0 -1
    outer loop
      vertex 0.772542 2.37764 -5.9
      vertex 4.63525 14.2658 -5.9
      vertex 1.06445 2.26207 -5.9
    endloop
  endfacet
  facet normal -0 0 -1
    outer loop
      vertex 4.63525 14.2658 -5.9
      vertex 0.772542 2.37764 -5.9
      vertex 2.81072 14.7343 -5.9
    endloop
  endfacet
  facet normal 0 0 -1
    outer loop
      vertex 0.468452 2.45572 -5.9
      vertex 2.81072 14.7343 -5.9
      vertex 0.772542 2.37764 -5.9
    endloop
  endfacet
  facet normal -0 0 -1
    outer loop
      vertex 2.81072 14.7343 -5.9
      vertex 0.468452 2.45572 -5.9
      vertex 0.941857 14.9704 -5.9
    endloop
  endfacet
  facet normal 0 0 -1
    outer loop
      vertex 0.156976 2.49507 -5.9
      vertex 0.941857 14.9704 -5.9
      vertex 0.468452 2.45572 -5.9
    endloop
  endfacet
  facet normal 0 0 -1
    outer loop
      vertex -0.156976 2.49507 -5.9
      vertex 0.941857 14.9704 -5.9
      vertex 0.156976 2.49507 -5.9
    endloop
  endfacet
  facet normal 0 0 -1
    outer loop
      vertex -0.941857 14.9704 -5.9
      vertex -0.156976 2.49507 -5.9
      vertex -0.468452 2.45572 -5.9
    endloop
  endfacet
  facet normal 0 0 -1
    outer loop
      vertex -2.81072 14.7343 -5.9
      vertex -0.468452 2.45572 -5.9
      vertex -0.772542 2.37764 -5.9
    endloop
  endfacet
  facet normal 0 0 -1
    outer loop
      vertex -0.156976 2.49507 -5.9
      vertex -0.941857 14.9704 -5.9
      vertex 0.941857 14.9704 -5.9
    endloop
  endfacet
  facet normal 0 0 -1
    outer loop
      vertex -4.63525 14.2658 -5.9
      vertex -0.772542 2.37764 -5.9
      vertex -1.06445 2.26207 -5.9
    endloop
  endfacet
  facet normal 0 0 -1
    outer loop
      vertex -6.38669 13.5724 -5.9
      vertex -1.06445 2.26207 -5.9
      vertex -1.33957 2.11082 -5.9
    endloop
  endfacet
  facet normal 0 0 -1
    outer loop
      vertex -8.0374 12.6649 -5.9
      vertex -1.33957 2.11082 -5.9
      vertex -1.59356 1.92628 -5.9
    endloop
  endfacet
  facet normal 0 0 -1
    outer loop
      vertex -9.56136 11.5577 -5.9
      vertex -1.59356 1.92628 -5.9
      vertex -1.82242 1.71137 -5.9
    endloop
  endfacet
  facet normal 0 0 -1
    outer loop
      vertex -10.9345 10.2682 -5.9
      vertex -1.82242 1.71137 -5.9
      vertex -2.02254 1.46946 -5.9
    endloop
  endfacet
  facet normal 0 0 -1
    outer loop
      vertex -12.1353 8.81678 -5.9
      vertex -2.02254 1.46946 -5.9
      vertex -2.19077 1.20438 -5.9
    endloop
  endfacet
  facet normal 0 0 -1
    outer loop
      vertex -13.1446 7.22631 -5.9
      vertex -2.19077 1.20438 -5.9
      vertex -2.32444 0.920311 -5.9
    endloop
  endfacet
  facet normal 0 0 -1
    outer loop
      vertex -13.9466 5.52187 -5.9
      vertex -2.32444 0.920311 -5.9
      vertex -2.42146 0.621724 -5.9
    endloop
  endfacet
  facet normal 0 0 -1
    outer loop
      vertex -14.5287 3.73035 -5.9
      vertex -2.42146 0.621724 -5.9
      vertex -2.48029 0.313333 -5.9
    endloop
  endfacet
  facet normal 0 0 -1
    outer loop
      vertex -0.468452 2.45572 -5.9
      vertex -2.81072 14.7343 -5.9
      vertex -0.941857 14.9704 -5.9
    endloop
  endfacet
  facet normal 0 0 -1
    outer loop
      vertex -14.8817 1.88 -5.9
      vertex -2.48029 0.313333 -5.9
      vertex -2.5 0 -5.9
    endloop
  endfacet
  facet normal 0 0 -1
    outer loop
      vertex -12.1353 -8.81678 -5.9
      vertex -2.02254 -1.46946 -5.9
      vertex -10.9345 -10.2682 -5.9
    endloop
  endfacet
  facet normal -0 0 -1
    outer loop
      vertex -2.02254 -1.46946 -5.9
      vertex -12.1353 -8.81678 -5.9
      vertex -2.19077 -1.20438 -5.9
    endloop
  endfacet
  facet normal 0 0 -1
    outer loop
      vertex -0.772542 2.37764 -5.9
      vertex -4.63525 14.2658 -5.9
      vertex -2.81072 14.7343 -5.9
    endloop
  endfacet
  facet normal 0 0 -1
    outer loop
      vertex -13.1446 -7.22631 -5.9
      vertex -2.19077 -1.20438 -5.9
      vertex -12.1353 -8.81678 -5.9
    endloop
  endfacet
  facet normal 0 0 -1
    outer loop
      vertex -1.06445 2.26207 -5.9
      vertex -6.38669 13.5724 -5.9
      vertex -4.63525 14.2658 -5.9
    endloop
  endfacet
  facet normal -0 0 -1
    outer loop
      vertex -2.19077 -1.20438 -5.9
      vertex -13.1446 -7.22631 -5.9
      vertex -2.32444 -0.920311 -5.9
    endloop
  endfacet
  facet normal 0 0 -1
    outer loop
      vertex -1.33957 2.11082 -5.9
      vertex -8.0374 12.6649 -5.9
      vertex -6.38669 13.5724 -5.9
    endloop
  endfacet
  facet normal 0 0 -1
    outer loop
      vertex -13.9466 -5.52187 -5.9
      vertex -2.32444 -0.920311 -5.9
      vertex -13.1446 -7.22631 -5.9
    endloop
  endfacet
  facet normal 0 0 -1
    outer loop
      vertex -1.59356 1.92628 -5.9
      vertex -9.56136 11.5577 -5.9
      vertex -8.0374 12.6649 -5.9
    endloop
  endfacet
  facet normal -0 0 -1
    outer loop
      vertex -2.32444 -0.920311 -5.9
      vertex -13.9466 -5.52187 -5.9
      vertex -2.42146 -0.621724 -5.9
    endloop
  endfacet
  facet normal 0 0 -1
    outer loop
      vertex -1.82242 1.71137 -5.9
      vertex -10.9345 10.2682 -5.9
      vertex -9.56136 11.5577 -5.9
    endloop
  endfacet
  facet normal 0 0 -1
    outer loop
      vertex -14.5287 -3.73035 -5.9
      vertex -2.42146 -0.621724 -5.9
      vertex -13.9466 -5.52187 -5.9
    endloop
  endfacet
  facet normal 0 0 -1
    outer loop
      vertex -2.02254 1.46946 -5.9
      vertex -12.1353 8.81678 -5.9
      vertex -10.9345 10.2682 -5.9
    endloop
  endfacet
  facet normal -0 0 -1
    outer loop
      vertex -2.42146 -0.621724 -5.9
      vertex -14.5287 -3.73035 -5.9
      vertex -2.48029 -0.313333 -5.9
    endloop
  endfacet
  facet normal 0 0 -1
    outer loop
      vertex -2.19077 1.20438 -5.9
      vertex -13.1446 7.22631 -5.9
      vertex -12.1353 8.81678 -5.9
    endloop
  endfacet
  facet normal 0 0 -1
    outer loop
      vertex -14.8817 -1.88 -5.9
      vertex -2.48029 -0.313333 -5.9
      vertex -14.5287 -3.73035 -5.9
    endloop
  endfacet
  facet normal 0 0 -1
    outer loop
      vertex -2.32444 0.920311 -5.9
      vertex -13.9466 5.52187 -5.9
      vertex -13.1446 7.22631 -5.9
    endloop
  endfacet
  facet normal -0 0 -1
    outer loop
      vertex -2.48029 -0.313333 -5.9
      vertex -14.8817 -1.88 -5.9
      vertex -2.5 0 -5.9
    endloop
  endfacet
  facet normal 0 0 -1
    outer loop
      vertex -2.42146 0.621724 -5.9
      vertex -14.5287 3.73035 -5.9
      vertex -13.9466 5.52187 -5.9
    endloop
  endfacet
  facet normal 0 0 -1
    outer loop
      vertex -15 0 -5.9
      vertex -2.5 0 -5.9
      vertex -14.8817 -1.88 -5.9
    endloop
  endfacet
  facet normal 0 0 -1
    outer loop
      vertex -2.48029 0.313333 -5.9
      vertex -14.8817 1.88 -5.9
      vertex -14.5287 3.73035 -5.9
    endloop
  endfacet
  facet normal 0 0 -1
    outer loop
      vertex -2.5 0 -5.9
      vertex -15 0 -5.9
      vertex -14.8817 1.88 -5.9
    endloop
  endfacet
  facet normal 0.48176 -0.876303 0
    outer loop
      vertex 6.38669 -13.5724 -5.9
      vertex 8.0374 -12.6649 0
      vertex 6.38669 -13.5724 0
    endloop
  endfacet
  facet normal 0.48176 -0.876303 0
    outer loop
      vertex 8.0374 -12.6649 0
      vertex 6.38669 -13.5724 -5.9
      vertex 8.0374 -12.6649 -5.9
    endloop
  endfacet
  facet normal 0.684557 -0.728959 0
    outer loop
      vertex 9.56136 -11.5577 -5.9
      vertex 10.9345 -10.2682 0
      vertex 9.56136 -11.5577 0
    endloop
  endfacet
  facet normal 0.684557 -0.728959 0
    outer loop
      vertex 10.9345 -10.2682 0
      vertex 9.56136 -11.5577 -5.9
      vertex 10.9345 -10.2682 -5.9
    endloop
  endfacet
  facet normal 0.844338 -0.535811 0
    outer loop
      vertex 12.1353 -8.81678 0
      vertex 13.1446 -7.22631 -5.9
      vertex 13.1446 -7.22631 0
    endloop
  endfacet
  facet normal 0.844338 -0.535811 0
    outer loop
      vertex 13.1446 -7.22631 -5.9
      vertex 12.1353 -8.81678 0
      vertex 12.1353 -8.81678 -5.9
    endloop
  endfacet
  facet normal -0.770492 -0.63745 0
    outer loop
      vertex -10.9345 -10.2682 -5.9
      vertex -12.1353 -8.81678 0
      vertex -12.1353 -8.81678 -5.9
    endloop
  endfacet
  facet normal -0.770492 -0.63745 0
    outer loop
      vertex -12.1353 -8.81678 0
      vertex -10.9345 -10.2682 -5.9
      vertex -10.9345 -10.2682 0
    endloop
  endfacet
  facet normal -0.844338 -0.535811 0
    outer loop
      vertex -12.1353 -8.81678 -5.9
      vertex -13.1446 -7.22631 0
      vertex -13.1446 -7.22631 -5.9
    endloop
  endfacet
  facet normal -0.844338 -0.535811 0
    outer loop
      vertex -13.1446 -7.22631 0
      vertex -12.1353 -8.81678 -5.9
      vertex -12.1353 -8.81678 0
    endloop
  endfacet
  facet normal -0.951057 -0.309017 0
    outer loop
      vertex -13.9466 -5.52187 -5.9
      vertex -14.5287 -3.73035 0
      vertex -14.5287 -3.73035 -5.9
    endloop
  endfacet
  facet normal -0.951057 -0.309017 0
    outer loop
      vertex -14.5287 -3.73035 0
      vertex -13.9466 -5.52187 -5.9
      vertex -13.9466 -5.52187 0
    endloop
  endfacet
  facet normal 0.368104 -0.929785 0
    outer loop
      vertex 4.63525 -14.2658 -5.9
      vertex 6.38669 -13.5724 0
      vertex 4.63525 -14.2658 0
    endloop
  endfacet
  facet normal 0.368104 -0.929785 0
    outer loop
      vertex 6.38669 -13.5724 0
      vertex 4.63525 -14.2658 -5.9
      vertex 6.38669 -13.5724 -5.9
    endloop
  endfacet
  facet normal 0.24871 -0.968578 0
    outer loop
      vertex 2.81072 -14.7343 -5.9
      vertex 4.63525 -14.2658 0
      vertex 2.81072 -14.7343 0
    endloop
  endfacet
  facet normal 0.24871 -0.968578 0
    outer loop
      vertex 4.63525 -14.2658 0
      vertex 2.81072 -14.7343 -5.9
      vertex 4.63525 -14.2658 -5.9
    endloop
  endfacet
  facet normal -0.125337 -0.992114 0
    outer loop
      vertex -2.81072 -14.7343 -5.9
      vertex -0.941857 -14.9704 0
      vertex -2.81072 -14.7343 0
    endloop
  endfacet
  facet normal -0.125337 -0.992114 -0
    outer loop
      vertex -0.941857 -14.9704 0
      vertex -2.81072 -14.7343 -5.9
      vertex -0.941857 -14.9704 -5.9
    endloop
  endfacet
  facet normal -0.368104 -0.929785 0
    outer loop
      vertex -6.38669 -13.5724 -5.9
      vertex -4.63525 -14.2658 0
      vertex -6.38669 -13.5724 0
    endloop
  endfacet
  facet normal -0.368104 -0.929785 -0
    outer loop
      vertex -4.63525 -14.2658 0
      vertex -6.38669 -13.5724 -5.9
      vertex -4.63525 -14.2658 -5.9
    endloop
  endfacet
  facet normal -0.24871 -0.968578 0
    outer loop
      vertex -4.63525 -14.2658 -5.9
      vertex -2.81072 -14.7343 0
      vertex -4.63525 -14.2658 0
    endloop
  endfacet
  facet normal -0.24871 -0.968578 -0
    outer loop
      vertex -2.81072 -14.7343 0
      vertex -4.63525 -14.2658 -5.9
      vertex -2.81072 -14.7343 -5.9
    endloop
  endfacet
  facet normal -0.684557 -0.728959 0
    outer loop
      vertex -10.9345 -10.2682 -5.9
      vertex -9.56136 -11.5577 0
      vertex -10.9345 -10.2682 0
    endloop
  endfacet
  facet normal -0.684557 -0.728959 -0
    outer loop
      vertex -9.56136 -11.5577 0
      vertex -10.9345 -10.2682 -5.9
      vertex -9.56136 -11.5577 -5.9
    endloop
  endfacet
  facet normal -0.904837 -0.425758 0
    outer loop
      vertex -13.1446 -7.22631 -5.9
      vertex -13.9466 -5.52187 0
      vertex -13.9466 -5.52187 -5.9
    endloop
  endfacet
  facet normal -0.904837 -0.425758 0
    outer loop
      vertex -13.9466 -5.52187 0
      vertex -13.1446 -7.22631 -5.9
      vertex -13.1446 -7.22631 0
    endloop
  endfacet
  facet normal -0.982285 -0.187395 0
    outer loop
      vertex -14.5287 -3.73035 -5.9
      vertex -14.8817 -1.88 0
      vertex -14.8817 -1.88 -5.9
    endloop
  endfacet
  facet normal -0.982285 -0.187395 0
    outer loop
      vertex -14.8817 -1.88 0
      vertex -14.5287 -3.73035 -5.9
      vertex -14.5287 -3.73035 0
    endloop
  endfacet
  facet normal -0.998026 -0.0628013 0
    outer loop
      vertex -14.8817 -1.88 -5.9
      vertex -15 0 0
      vertex -15 0 -5.9
    endloop
  endfacet
  facet normal -0.998026 -0.0628013 0
    outer loop
      vertex -15 0 0
      vertex -14.8817 -1.88 -5.9
      vertex -14.8817 -1.88 0
    endloop
  endfacet
  facet normal 0.587778 -0.809022 0
    outer loop
      vertex 8.0374 -12.6649 -5.9
      vertex 9.56136 -11.5577 0
      vertex 8.0374 -12.6649 0
    endloop
  endfacet
  facet normal 0.587778 -0.809022 0
    outer loop
      vertex 9.56136 -11.5577 0
      vertex 8.0374 -12.6649 -5.9
      vertex 9.56136 -11.5577 -5.9
    endloop
  endfacet
  facet normal -0.48176 -0.876303 0
    outer loop
      vertex -8.0374 -12.6649 -5.9
      vertex -6.38669 -13.5724 0
      vertex -8.0374 -12.6649 0
    endloop
  endfacet
  facet normal -0.48176 -0.876303 -0
    outer loop
      vertex -6.38669 -13.5724 0
      vertex -8.0374 -12.6649 -5.9
      vertex -6.38669 -13.5724 -5.9
    endloop
  endfacet
  facet normal -0.587778 -0.809022 0
    outer loop
      vertex -9.56136 -11.5577 -5.9
      vertex -8.0374 -12.6649 0
      vertex -9.56136 -11.5577 0
    endloop
  endfacet
  facet normal -0.587778 -0.809022 -0
    outer loop
      vertex -8.0374 -12.6649 0
      vertex -9.56136 -11.5577 -5.9
      vertex -8.0374 -12.6649 -5.9
    endloop
  endfacet
  facet normal -0.10865 0.86002 0.498558
    outer loop
      vertex 0.370463 -5.88836 0
      vertex 0.468452 -2.45572 -5.9
      vertex 0.156976 -2.49507 -5.9
    endloop
  endfacet
  facet normal -0.865146 -0.0544265 0.498559
    outer loop
      vertex 5.9 0 0
      vertex 5.85348 0.739466 0
      vertex 2.5 0 -5.9
    endloop
  endfacet
  facet normal -0.865146 -0.0544214 0.498558
    outer loop
      vertex 2.5 0 -5.9
      vertex 5.85348 0.739466 0
      vertex 2.48029 0.313333 -5.9
    endloop
  endfacet
  facet normal -0.865146 0.0544214 0.498558
    outer loop
      vertex 5.85348 -0.739466 0
      vertex 2.5 0 -5.9
      vertex 2.48029 -0.313333 -5.9
    endloop
  endfacet
  facet normal 0.851501 0.162437 0.498558
    outer loop
      vertex -5.71464 -1.46727 0
      vertex -2.48029 -0.313333 -5.9
      vertex -5.85348 -0.739466 0
    endloop
  endfacet
  facet normal 0.108654 -0.86002 0.498558
    outer loop
      vertex -0.468452 2.45572 -5.9
      vertex -0.370463 5.88836 0
      vertex -1.10555 5.79549 0
    endloop
  endfacet
  facet normal -0.824428 0.267875 0.498558
    outer loop
      vertex 5.48568 -2.17193 0
      vertex 5.71464 -1.46727 0
      vertex 2.32444 -0.920311 -5.9
    endloop
  endfacet
  facet normal -0.667924 0.552555 0.498558
    outer loop
      vertex 4.30091 -4.03883 0
      vertex 4.7732 -3.46793 0
      vertex 1.82242 -1.71137 -5.9
    endloop
  endfacet
  facet normal -0.784358 0.369083 0.498558
    outer loop
      vertex 5.17021 -2.84235 0
      vertex 2.32444 -0.920311 -5.9
      vertex 2.19077 -1.20438 -5.9
    endloop
  endfacet
  facet normal -0.417616 0.759629 0.498558
    outer loop
      vertex 2.5121 -5.33848 0
      vertex 3.16138 -4.98153 0
      vertex 1.06445 -2.26207 -5.9
    endloop
  endfacet
  facet normal -0.3191 0.805987 0.498558
    outer loop
      vertex 2.5121 -5.33848 0
      vertex 1.06445 -2.26207 -5.9
      vertex 0.772542 -2.37764 -5.9
    endloop
  endfacet
  facet normal 0.509522 0.701303 0.498559
    outer loop
      vertex -3.16138 -4.98153 0
      vertex -1.59356 -1.92628 -5.9
      vertex -3.7608 -4.54603 0
    endloop
  endfacet
  facet normal 0.215577 0.839623 0.498558
    outer loop
      vertex -1.10555 -5.79549 0
      vertex -0.468452 -2.45572 -5.9
      vertex -1.8232 -5.61123 0
    endloop
  endfacet
  facet normal 0.731908 -0.464489 0.498559
    outer loop
      vertex -2.19077 1.20438 -5.9
      vertex -4.7732 3.46793 0
      vertex -5.17021 2.84235 0
    endloop
  endfacet
  facet normal -0.851501 0.162437 0.498558
    outer loop
      vertex 5.71464 -1.46727 0
      vertex 5.85348 -0.739466 0
      vertex 2.48029 -0.313333 -5.9
    endloop
  endfacet
  facet normal -0.865146 0.0544265 0.498559
    outer loop
      vertex 5.85348 -0.739466 0
      vertex 5.9 0 0
      vertex 2.5 0 -5.9
    endloop
  endfacet
  facet normal -0.824427 0.267881 0.498558
    outer loop
      vertex 5.71464 -1.46727 0
      vertex 2.42146 -0.621724 -5.9
      vertex 2.32444 -0.920311 -5.9
    endloop
  endfacet
  facet normal -0.731904 0.464495 0.498559
    outer loop
      vertex 4.7732 -3.46793 0
      vertex 2.19077 -1.20438 -5.9
      vertex 2.02254 -1.46946 -5.9
    endloop
  endfacet
  facet normal -0.319106 0.805984 0.498558
    outer loop
      vertex 1.8232 -5.61123 0
      vertex 2.5121 -5.33848 0
      vertex 0.772542 -2.37764 -5.9
    endloop
  endfacet
  facet normal -0.215586 0.83962 0.498558
    outer loop
      vertex 1.8232 -5.61123 0
      vertex 0.772542 -2.37764 -5.9
      vertex 0.468452 -2.45572 -5.9
    endloop
  endfacet
  facet normal -0.593398 0.631916 0.498558
    outer loop
      vertex 4.30091 -4.03883 0
      vertex 1.82242 -1.71137 -5.9
      vertex 1.59356 -1.92628 -5.9
    endloop
  endfacet
  facet normal 0.593406 0.631909 0.498559
    outer loop
      vertex -3.7608 -4.54603 0
      vertex -1.59356 -1.92628 -5.9
      vertex -4.30091 -4.03883 0
    endloop
  endfacet
  facet normal 0.417616 0.759629 0.498558
    outer loop
      vertex -2.5121 -5.33848 0
      vertex -1.06445 -2.26207 -5.9
      vertex -3.16138 -4.98153 0
    endloop
  endfacet
  facet normal 0.319106 0.805984 0.498558
    outer loop
      vertex -1.8232 -5.61123 0
      vertex -0.772542 -2.37764 -5.9
      vertex -2.5121 -5.33848 0
    endloop
  endfacet
  facet normal 0 0.866856 0.498558
    outer loop
      vertex 0.156976 -2.49507 -5.9
      vertex -0.370463 -5.88836 0
      vertex 0.370463 -5.88836 0
    endloop
  endfacet
  facet normal 0 0.866856 0.498558
    outer loop
      vertex -0.370463 -5.88836 0
      vertex 0.156976 -2.49507 -5.9
      vertex -0.156976 -2.49507 -5.9
    endloop
  endfacet
  facet normal -0.509522 -0.701303 0.498559
    outer loop
      vertex 3.7608 4.54603 0
      vertex 3.16138 4.98153 0
      vertex 1.59356 1.92628 -5.9
    endloop
  endfacet
  facet normal -0.509535 -0.701295 0.498558
    outer loop
      vertex 1.59356 1.92628 -5.9
      vertex 3.16138 4.98153 0
      vertex 1.33957 2.11082 -5.9
    endloop
  endfacet
  facet normal -0.784358 -0.369083 0.498558
    outer loop
      vertex 2.32444 0.920311 -5.9
      vertex 5.17021 2.84235 0
      vertex 2.19077 1.20438 -5.9
    endloop
  endfacet
  facet normal 0.417616 -0.759629 0.498558
    outer loop
      vertex -1.06445 2.26207 -5.9
      vertex -2.5121 5.33848 0
      vertex -3.16138 4.98153 0
    endloop
  endfacet
  facet normal 0.3191 -0.805987 0.498558
    outer loop
      vertex -1.06445 2.26207 -5.9
      vertex -0.772542 2.37764 -5.9
      vertex -2.5121 5.33848 0
    endloop
  endfacet
  facet normal 0.319106 -0.805984 0.498558
    outer loop
      vertex -0.772542 2.37764 -5.9
      vertex -1.8232 5.61123 0
      vertex -2.5121 5.33848 0
    endloop
  endfacet
  facet normal 0.865146 0.0544214 0.498558
    outer loop
      vertex -2.48029 -0.313333 -5.9
      vertex -2.5 0 -5.9
      vertex -5.85348 -0.739466 0
    endloop
  endfacet
  facet normal 0.667931 -0.552546 0.498559
    outer loop
      vertex -2.02254 1.46946 -5.9
      vertex -1.82242 1.71137 -5.9
      vertex -4.7732 3.46793 0
    endloop
  endfacet
  facet normal 0.865146 -0.0544214 0.498558
    outer loop
      vertex -2.5 0 -5.9
      vertex -2.48029 0.313333 -5.9
      vertex -5.85348 0.739466 0
    endloop
  endfacet
  facet normal -0.851501 0.162436 0.498558
    outer loop
      vertex 5.71464 -1.46727 0
      vertex 2.48029 -0.313333 -5.9
      vertex 2.42146 -0.621724 -5.9
    endloop
  endfacet
  facet normal -0.784357 0.369084 0.498558
    outer loop
      vertex 5.17021 -2.84235 0
      vertex 5.48568 -2.17193 0
      vertex 2.32444 -0.920311 -5.9
    endloop
  endfacet
  facet normal -0.215577 0.839623 0.498558
    outer loop
      vertex 1.10555 -5.79549 0
      vertex 1.8232 -5.61123 0
      vertex 0.468452 -2.45572 -5.9
    endloop
  endfacet
  facet normal -0.108654 0.86002 0.498558
    outer loop
      vertex 1.10555 -5.79549 0
      vertex 0.468452 -2.45572 -5.9
      vertex 0.370463 -5.88836 0
    endloop
  endfacet
  facet normal -0.509522 0.701303 0.498559
    outer loop
      vertex 3.16138 -4.98153 0
      vertex 3.7608 -4.54603 0
      vertex 1.59356 -1.92628 -5.9
    endloop
  endfacet
  facet normal -0.593406 0.631909 0.498559
    outer loop
      vertex 3.7608 -4.54603 0
      vertex 4.30091 -4.03883 0
      vertex 1.59356 -1.92628 -5.9
    endloop
  endfacet
  facet normal -0.509535 0.701295 0.498558
    outer loop
      vertex 3.16138 -4.98153 0
      vertex 1.59356 -1.92628 -5.9
      vertex 1.33957 -2.11082 -5.9
    endloop
  endfacet
  facet normal -0.417614 0.75963 0.498558
    outer loop
      vertex 3.16138 -4.98153 0
      vertex 1.33957 -2.11082 -5.9
      vertex 1.06445 -2.26207 -5.9
    endloop
  endfacet
  facet normal 0.784357 0.369084 0.498558
    outer loop
      vertex -5.17021 -2.84235 0
      vertex -2.32444 -0.920311 -5.9
      vertex -5.48568 -2.17193 0
    endloop
  endfacet
  facet normal 0.824427 0.267881 0.498558
    outer loop
      vertex -2.32444 -0.920311 -5.9
      vertex -2.42146 -0.621724 -5.9
      vertex -5.71464 -1.46727 0
    endloop
  endfacet
  facet normal 0.417614 0.75963 0.498558
    outer loop
      vertex -1.06445 -2.26207 -5.9
      vertex -1.33957 -2.11082 -5.9
      vertex -3.16138 -4.98153 0
    endloop
  endfacet
  facet normal 0.215586 0.83962 0.498558
    outer loop
      vertex -0.468452 -2.45572 -5.9
      vertex -0.772542 -2.37764 -5.9
      vertex -1.8232 -5.61123 0
    endloop
  endfacet
  facet normal 0 -0.866856 0.498558
    outer loop
      vertex -0.156976 2.49507 -5.9
      vertex 0.370463 5.88836 0
      vertex -0.370463 5.88836 0
    endloop
  endfacet
  facet normal 0 -0.866856 0.498558
    outer loop
      vertex 0.370463 5.88836 0
      vertex -0.156976 2.49507 -5.9
      vertex 0.156976 2.49507 -5.9
    endloop
  endfacet
  facet normal -0.10865 -0.86002 0.498558
    outer loop
      vertex 0.468452 2.45572 -5.9
      vertex 0.370463 5.88836 0
      vertex 0.156976 2.49507 -5.9
    endloop
  endfacet
  facet normal -0.593406 -0.631909 0.498559
    outer loop
      vertex 4.30091 4.03883 0
      vertex 3.7608 4.54603 0
      vertex 1.59356 1.92628 -5.9
    endloop
  endfacet
  facet normal -0.851501 -0.162437 0.498558
    outer loop
      vertex 5.85348 0.739466 0
      vertex 5.71464 1.46727 0
      vertex 2.48029 0.313333 -5.9
    endloop
  endfacet
  facet normal -0.784357 -0.369084 0.498558
    outer loop
      vertex 5.48568 2.17193 0
      vertex 5.17021 2.84235 0
      vertex 2.32444 0.920311 -5.9
    endloop
  endfacet
  facet normal 0.593398 -0.631916 0.498558
    outer loop
      vertex -1.82242 1.71137 -5.9
      vertex -1.59356 1.92628 -5.9
      vertex -4.30091 4.03883 0
    endloop
  endfacet
  facet normal 0.593406 -0.631909 0.498559
    outer loop
      vertex -1.59356 1.92628 -5.9
      vertex -3.7608 4.54603 0
      vertex -4.30091 4.03883 0
    endloop
  endfacet
  facet normal 0.509522 -0.701303 0.498559
    outer loop
      vertex -1.59356 1.92628 -5.9
      vertex -3.16138 4.98153 0
      vertex -3.7608 4.54603 0
    endloop
  endfacet
  facet normal 0.10865 -0.86002 0.498558
    outer loop
      vertex -0.156976 2.49507 -5.9
      vertex -0.370463 5.88836 0
      vertex -0.468452 2.45572 -5.9
    endloop
  endfacet
  facet normal 0.667924 -0.552555 0.498558
    outer loop
      vertex -1.82242 1.71137 -5.9
      vertex -4.30091 4.03883 0
      vertex -4.7732 3.46793 0
    endloop
  endfacet
  facet normal 0.824427 -0.267881 0.498558
    outer loop
      vertex -2.42146 0.621724 -5.9
      vertex -2.32444 0.920311 -5.9
      vertex -5.71464 1.46727 0
    endloop
  endfacet
  facet normal 0.784357 -0.369084 0.498558
    outer loop
      vertex -2.32444 0.920311 -5.9
      vertex -5.17021 2.84235 0
      vertex -5.48568 2.17193 0
    endloop
  endfacet
  facet normal 0.865146 -0.0544265 0.498559
    outer loop
      vertex -2.5 0 -5.9
      vertex -5.85348 0.739466 0
      vertex -5.9 0 0
    endloop
  endfacet
  facet normal -0.731908 0.464489 0.498559
    outer loop
      vertex 4.7732 -3.46793 0
      vertex 5.17021 -2.84235 0
      vertex 2.19077 -1.20438 -5.9
    endloop
  endfacet
  facet normal -0.667931 0.552546 0.498559
    outer loop
      vertex 4.7732 -3.46793 0
      vertex 2.02254 -1.46946 -5.9
      vertex 1.82242 -1.71137 -5.9
    endloop
  endfacet
  facet normal 0.667931 0.552546 0.498559
    outer loop
      vertex -1.82242 -1.71137 -5.9
      vertex -2.02254 -1.46946 -5.9
      vertex -4.7732 -3.46793 0
    endloop
  endfacet
  facet normal 0.824428 0.267875 0.498558
    outer loop
      vertex -5.48568 -2.17193 0
      vertex -2.32444 -0.920311 -5.9
      vertex -5.71464 -1.46727 0
    endloop
  endfacet
  facet normal 0.851501 0.162436 0.498558
    outer loop
      vertex -2.42146 -0.621724 -5.9
      vertex -2.48029 -0.313333 -5.9
      vertex -5.71464 -1.46727 0
    endloop
  endfacet
  facet normal 0.3191 0.805987 0.498558
    outer loop
      vertex -0.772542 -2.37764 -5.9
      vertex -1.06445 -2.26207 -5.9
      vertex -2.5121 -5.33848 0
    endloop
  endfacet
  facet normal 0.108654 0.86002 0.498558
    outer loop
      vertex -0.370463 -5.88836 0
      vertex -0.468452 -2.45572 -5.9
      vertex -1.10555 -5.79549 0
    endloop
  endfacet
  facet normal -0.417616 -0.759629 0.498558
    outer loop
      vertex 3.16138 4.98153 0
      vertex 2.5121 5.33848 0
      vertex 1.06445 2.26207 -5.9
    endloop
  endfacet
  facet normal -0.3191 -0.805987 0.498558
    outer loop
      vertex 1.06445 2.26207 -5.9
      vertex 2.5121 5.33848 0
      vertex 0.772542 2.37764 -5.9
    endloop
  endfacet
  facet normal -0.215586 -0.83962 0.498558
    outer loop
      vertex 0.772542 2.37764 -5.9
      vertex 1.8232 5.61123 0
      vertex 0.468452 2.45572 -5.9
    endloop
  endfacet
  facet normal -0.824428 -0.267875 0.498558
    outer loop
      vertex 5.71464 1.46727 0
      vertex 5.48568 2.17193 0
      vertex 2.32444 0.920311 -5.9
    endloop
  endfacet
  facet normal -0.851501 -0.162436 0.498558
    outer loop
      vertex 2.48029 0.313333 -5.9
      vertex 5.71464 1.46727 0
      vertex 2.42146 0.621724 -5.9
    endloop
  endfacet
  facet normal 0.215586 -0.83962 0.498558
    outer loop
      vertex -0.772542 2.37764 -5.9
      vertex -0.468452 2.45572 -5.9
      vertex -1.8232 5.61123 0
    endloop
  endfacet
  facet normal 0.215577 -0.839623 0.498558
    outer loop
      vertex -0.468452 2.45572 -5.9
      vertex -1.10555 5.79549 0
      vertex -1.8232 5.61123 0
    endloop
  endfacet
  facet normal 0.509535 -0.701295 0.498558
    outer loop
      vertex -1.59356 1.92628 -5.9
      vertex -1.33957 2.11082 -5.9
      vertex -3.16138 4.98153 0
    endloop
  endfacet
  facet normal 0.417614 -0.75963 0.498558
    outer loop
      vertex -1.33957 2.11082 -5.9
      vertex -1.06445 2.26207 -5.9
      vertex -3.16138 4.98153 0
    endloop
  endfacet
  facet normal 0.784358 -0.369083 0.498558
    outer loop
      vertex -2.32444 0.920311 -5.9
      vertex -2.19077 1.20438 -5.9
      vertex -5.17021 2.84235 0
    endloop
  endfacet
  facet normal 0.824428 -0.267875 0.498558
    outer loop
      vertex -2.32444 0.920311 -5.9
      vertex -5.48568 2.17193 0
      vertex -5.71464 1.46727 0
    endloop
  endfacet
  facet normal 0.865146 0.0544265 0.498559
    outer loop
      vertex -5.85348 -0.739466 0
      vertex -2.5 0 -5.9
      vertex -5.9 0 0
    endloop
  endfacet
  facet normal 0.851501 -0.162437 0.498558
    outer loop
      vertex -2.48029 0.313333 -5.9
      vertex -5.71464 1.46727 0
      vertex -5.85348 0.739466 0
    endloop
  endfacet
  facet normal 0.851501 -0.162436 0.498558
    outer loop
      vertex -2.48029 0.313333 -5.9
      vertex -2.42146 0.621724 -5.9
      vertex -5.71464 1.46727 0
    endloop
  endfacet
  facet normal 0.593398 0.631916 0.498558
    outer loop
      vertex -1.59356 -1.92628 -5.9
      vertex -1.82242 -1.71137 -5.9
      vertex -4.30091 -4.03883 0
    endloop
  endfacet
  facet normal 0.667924 0.552555 0.498558
    outer loop
      vertex -4.30091 -4.03883 0
      vertex -1.82242 -1.71137 -5.9
      vertex -4.7732 -3.46793 0
    endloop
  endfacet
  facet normal 0.731904 0.464495 0.498559
    outer loop
      vertex -2.02254 -1.46946 -5.9
      vertex -2.19077 -1.20438 -5.9
      vertex -4.7732 -3.46793 0
    endloop
  endfacet
  facet normal 0.731908 0.464489 0.498559
    outer loop
      vertex -4.7732 -3.46793 0
      vertex -2.19077 -1.20438 -5.9
      vertex -5.17021 -2.84235 0
    endloop
  endfacet
  facet normal 0.784358 0.369083 0.498558
    outer loop
      vertex -2.19077 -1.20438 -5.9
      vertex -2.32444 -0.920311 -5.9
      vertex -5.17021 -2.84235 0
    endloop
  endfacet
  facet normal 0.509535 0.701295 0.498558
    outer loop
      vertex -1.33957 -2.11082 -5.9
      vertex -1.59356 -1.92628 -5.9
      vertex -3.16138 -4.98153 0
    endloop
  endfacet
  facet normal 0.10865 0.86002 0.498558
    outer loop
      vertex -0.370463 -5.88836 0
      vertex -0.156976 -2.49507 -5.9
      vertex -0.468452 -2.45572 -5.9
    endloop
  endfacet
  facet normal -0.417614 -0.75963 0.498558
    outer loop
      vertex 1.33957 2.11082 -5.9
      vertex 3.16138 4.98153 0
      vertex 1.06445 2.26207 -5.9
    endloop
  endfacet
  facet normal -0.319106 -0.805984 0.498558
    outer loop
      vertex 2.5121 5.33848 0
      vertex 1.8232 5.61123 0
      vertex 0.772542 2.37764 -5.9
    endloop
  endfacet
  facet normal -0.215577 -0.839623 0.498558
    outer loop
      vertex 1.8232 5.61123 0
      vertex 1.10555 5.79549 0
      vertex 0.468452 2.45572 -5.9
    endloop
  endfacet
  facet normal -0.108654 -0.86002 0.498558
    outer loop
      vertex 0.468452 2.45572 -5.9
      vertex 1.10555 5.79549 0
      vertex 0.370463 5.88836 0
    endloop
  endfacet
  facet normal -0.593398 -0.631916 0.498558
    outer loop
      vertex 1.82242 1.71137 -5.9
      vertex 4.30091 4.03883 0
      vertex 1.59356 1.92628 -5.9
    endloop
  endfacet
  facet normal -0.667924 -0.552555 0.498558
    outer loop
      vertex 4.7732 3.46793 0
      vertex 4.30091 4.03883 0
      vertex 1.82242 1.71137 -5.9
    endloop
  endfacet
  facet normal -0.731908 -0.464489 0.498559
    outer loop
      vertex 5.17021 2.84235 0
      vertex 4.7732 3.46793 0
      vertex 2.19077 1.20438 -5.9
    endloop
  endfacet
  facet normal -0.824427 -0.267881 0.498558
    outer loop
      vertex 2.42146 0.621724 -5.9
      vertex 5.71464 1.46727 0
      vertex 2.32444 0.920311 -5.9
    endloop
  endfacet
  facet normal 0.731904 -0.464495 0.498559
    outer loop
      vertex -2.19077 1.20438 -5.9
      vertex -2.02254 1.46946 -5.9
      vertex -4.7732 3.46793 0
    endloop
  endfacet
  facet normal -0.667931 -0.552546 0.498559
    outer loop
      vertex 2.02254 1.46946 -5.9
      vertex 4.7732 3.46793 0
      vertex 1.82242 1.71137 -5.9
    endloop
  endfacet
  facet normal -0.731904 -0.464495 0.498559
    outer loop
      vertex 2.19077 1.20438 -5.9
      vertex 4.7732 3.46793 0
      vertex 2.02254 1.46946 -5.9
    endloop
  endfacet
endsolid OpenSCAD_Model
