solid OpenSCAD_Model
  facet normal 0 0 1
    outer loop
      vertex 5.9 0 0
      vertex 30 0 0
      vertex 29.7634 3.76 0
    endloop
  endfacet
  facet normal 0 0 1
    outer loop
      vertex 5.85348 0.739466 0
      vertex 29.7634 3.76 0
      vertex 29.0575 7.4607 0
    endloop
  endfacet
  facet normal 0 0 1
    outer loop
      vertex 30 0 0
      vertex 5.9 0 0
      vertex 29.7634 -3.76 0
    endloop
  endfacet
  facet normal 0 0 1
    outer loop
      vertex 5.71464 1.46727 0
      vertex 29.0575 7.4607 0
      vertex 27.8933 11.0437 0
    endloop
  endfacet
  facet normal -0 0 1
    outer loop
      vertex 5.85348 -0.739466 0
      vertex 29.7634 -3.76 0
      vertex 5.9 0 0
    endloop
  endfacet
  facet normal 0 0 1
    outer loop
      vertex 5.48568 2.17193 0
      vertex 27.8933 11.0437 0
      vertex 26.2892 14.4526 0
    endloop
  endfacet
  facet normal 0 0 1
    outer loop
      vertex 29.7634 -3.76 0
      vertex 5.85348 -0.739466 0
      vertex 29.0575 -7.4607 0
    endloop
  endfacet
  facet normal 0 0 1
    outer loop
      vertex 5.17021 2.84235 0
      vertex 26.2892 14.4526 0
      vertex 24.2705 17.6336 0
    endloop
  endfacet
  facet normal -0 0 1
    outer loop
      vertex 5.71464 -1.46727 0
      vertex 29.0575 -7.4607 0
      vertex 5.85348 -0.739466 0
    endloop
  endfacet
  facet normal 0 0 1
    outer loop
      vertex 4.7732 3.46793 0
      vertex 24.2705 17.6336 0
      vertex 21.8691 20.5364 0
    endloop
  endfacet
  facet normal 0 0 1
    outer loop
      vertex 29.0575 -7.4607 0
      vertex 5.71464 -1.46727 0
      vertex 27.8933 -11.0437 0
    endloop
  endfacet
  facet normal 0 0 1
    outer loop
      vertex 4.30091 4.03883 0
      vertex 21.8691 20.5364 0
      vertex 19.1227 23.1154 0
    endloop
  endfacet
  facet normal -0 0 1
    outer loop
      vertex 5.48568 -2.17193 0
      vertex 27.8933 -11.0437 0
      vertex 5.71464 -1.46727 0
    endloop
  endfacet
  facet normal 0 0 1
    outer loop
      vertex 3.7608 4.54603 0
      vertex 19.1227 23.1154 0
      vertex 16.0748 25.3298 0
    endloop
  endfacet
  facet normal 0 0 1
    outer loop
      vertex 27.8933 -11.0437 0
      vertex 5.48568 -2.17193 0
      vertex 26.2892 -14.4526 0
    endloop
  endfacet
  facet normal 0 0 1
    outer loop
      vertex 3.16138 4.98153 0
      vertex 16.0748 25.3298 0
      vertex 12.7734 27.1448 0
    endloop
  endfacet
  facet normal -0 0 1
    outer loop
      vertex 5.17021 -2.84235 0
      vertex 26.2892 -14.4526 0
      vertex 5.48568 -2.17193 0
    endloop
  endfacet
  facet normal 0 0 1
    outer loop
      vertex 2.5121 5.33848 0
      vertex 12.7734 27.1448 0
      vertex 9.27051 28.5317 0
    endloop
  endfacet
  facet normal 0 0 1
    outer loop
      vertex 26.2892 -14.4526 0
      vertex 5.17021 -2.84235 0
      vertex 24.2705 -17.6336 0
    endloop
  endfacet
  facet normal -0 0 1
    outer loop
      vertex 4.7732 -3.46793 0
      vertex 24.2705 -17.6336 0
      vertex 5.17021 -2.84235 0
    endloop
  endfacet
  facet normal 0 0 1
    outer loop
      vertex 29.7634 3.76 0
      vertex 5.85348 0.739466 0
      vertex 5.9 0 0
    endloop
  endfacet
  facet normal 0 0 1
    outer loop
      vertex 29.0575 7.4607 0
      vertex 5.71464 1.46727 0
      vertex 5.85348 0.739466 0
    endloop
  endfacet
  facet normal 0 0 1
    outer loop
      vertex 1.8232 5.61123 0
      vertex 9.27051 28.5317 0
      vertex 5.62144 29.4686 0
    endloop
  endfacet
  facet normal 0 0 1
    outer loop
      vertex 27.8933 11.0437 0
      vertex 5.48568 2.17193 0
      vertex 5.71464 1.46727 0
    endloop
  endfacet
  facet normal 0 0 1
    outer loop
      vertex 26.2892 14.4526 0
      vertex 5.17021 2.84235 0
      vertex 5.48568 2.17193 0
    endloop
  endfacet
  facet normal 0 0 1
    outer loop
      vertex 24.2705 17.6336 0
      vertex 4.7732 3.46793 0
      vertex 5.17021 2.84235 0
    endloop
  endfacet
  facet normal 0 0 1
    outer loop
      vertex 21.8691 20.5364 0
      vertex 4.30091 4.03883 0
      vertex 4.7732 3.46793 0
    endloop
  endfacet
  facet normal 0 0 1
    outer loop
      vertex 19.1227 23.1154 0
      vertex 3.7608 4.54603 0
      vertex 4.30091 4.03883 0
    endloop
  endfacet
  facet normal 0 0 1
    outer loop
      vertex 16.0748 25.3298 0
      vertex 3.16138 4.98153 0
      vertex 3.7608 4.54603 0
    endloop
  endfacet
  facet normal 0 0 1
    outer loop
      vertex 12.7734 27.1448 0
      vertex 2.5121 5.33848 0
      vertex 3.16138 4.98153 0
    endloop
  endfacet
  facet normal 0 0 1
    outer loop
      vertex 1.10555 5.79549 0
      vertex 5.62144 29.4686 0
      vertex 1.88371 29.9408 0
    endloop
  endfacet
  facet normal 0 0 1
    outer loop
      vertex 9.27051 28.5317 0
      vertex 1.8232 5.61123 0
      vertex 2.5121 5.33848 0
    endloop
  endfacet
  facet normal 0 0 1
    outer loop
      vertex 5.62144 29.4686 0
      vertex 1.10555 5.79549 0
      vertex 1.8232 5.61123 0
    endloop
  endfacet
  facet normal 0 0 1
    outer loop
      vertex 1.88371 29.9408 0
      vertex 0.370463 5.88836 0
      vertex 1.10555 5.79549 0
    endloop
  endfacet
  facet normal 0 0 1
    outer loop
      vertex 1.88371 29.9408 0
      vertex -0.370463 5.88836 0
      vertex 0.370463 5.88836 0
    endloop
  endfacet
  facet normal -0 0 1
    outer loop
      vertex -1.88371 29.9408 0
      vertex -0.370463 5.88836 0
      vertex 1.88371 29.9408 0
    endloop
  endfacet
  facet normal 0 0 1
    outer loop
      vertex -0.370463 5.88836 0
      vertex -1.88371 29.9408 0
      vertex -1.10555 5.79549 0
    endloop
  endfacet
  facet normal -0 0 1
    outer loop
      vertex -5.62144 29.4686 0
      vertex -1.10555 5.79549 0
      vertex -1.88371 29.9408 0
    endloop
  endfacet
  facet normal 0 0 1
    outer loop
      vertex -1.10555 5.79549 0
      vertex -5.62144 29.4686 0
      vertex -1.8232 5.61123 0
    endloop
  endfacet
  facet normal -0 0 1
    outer loop
      vertex -9.27051 28.5317 0
      vertex -1.8232 5.61123 0
      vertex -5.62144 29.4686 0
    endloop
  endfacet
  facet normal 0 0 1
    outer loop
      vertex -1.8232 5.61123 0
      vertex -9.27051 28.5317 0
      vertex -2.5121 5.33848 0
    endloop
  endfacet
  facet normal -0 0 1
    outer loop
      vertex -12.7734 27.1448 0
      vertex -2.5121 5.33848 0
      vertex -9.27051 28.5317 0
    endloop
  endfacet
  facet normal 0 0 1
    outer loop
      vertex -2.5121 5.33848 0
      vertex -12.7734 27.1448 0
      vertex -3.16138 4.98153 0
    endloop
  endfacet
  facet normal -0 0 1
    outer loop
      vertex -16.0748 25.3298 0
      vertex -3.16138 4.98153 0
      vertex -12.7734 27.1448 0
    endloop
  endfacet
  facet normal 0 0 1
    outer loop
      vertex -3.16138 4.98153 0
      vertex -16.0748 25.3298 0
      vertex -3.7608 4.54603 0
    endloop
  endfacet
  facet normal -0 0 1
    outer loop
      vertex -19.1227 23.1154 0
      vertex -3.7608 4.54603 0
      vertex -16.0748 25.3298 0
    endloop
  endfacet
  facet normal 0 0 1
    outer loop
      vertex -3.7608 4.54603 0
      vertex -19.1227 23.1154 0
      vertex -4.30091 4.03883 0
    endloop
  endfacet
  facet normal -0 0 1
    outer loop
      vertex -21.8691 20.5364 0
      vertex -4.30091 4.03883 0
      vertex -19.1227 23.1154 0
    endloop
  endfacet
  facet normal 0 0 1
    outer loop
      vertex -4.30091 4.03883 0
      vertex -21.8691 20.5364 0
      vertex -4.7732 3.46793 0
    endloop
  endfacet
  facet normal -0 0 1
    outer loop
      vertex -24.2705 17.6336 0
      vertex -4.7732 3.46793 0
      vertex -21.8691 20.5364 0
    endloop
  endfacet
  facet normal 0 0 1
    outer loop
      vertex 24.2705 -17.6336 0
      vertex 4.7732 -3.46793 0
      vertex 21.8691 -20.5364 0
    endloop
  endfacet
  facet normal -0 0 1
    outer loop
      vertex 4.30091 -4.03883 0
      vertex 21.8691 -20.5364 0
      vertex 4.7732 -3.46793 0
    endloop
  endfacet
  facet normal 0 0 1
    outer loop
      vertex 21.8691 -20.5364 0
      vertex 4.30091 -4.03883 0
      vertex 19.1227 -23.1154 0
    endloop
  endfacet
  facet normal -0 0 1
    outer loop
      vertex 3.7608 -4.54603 0
      vertex 19.1227 -23.1154 0
      vertex 4.30091 -4.03883 0
    endloop
  endfacet
  facet normal 0 0 1
    outer loop
      vertex 19.1227 -23.1154 0
      vertex 3.7608 -4.54603 0
      vertex 16.0748 -25.3298 0
    endloop
  endfacet
  facet normal -0 0 1
    outer loop
      vertex 3.16138 -4.98153 0
      vertex 16.0748 -25.3298 0
      vertex 3.7608 -4.54603 0
    endloop
  endfacet
  facet normal 0 0 1
    outer loop
      vertex 16.0748 -25.3298 0
      vertex 3.16138 -4.98153 0
      vertex 12.7734 -27.1448 0
    endloop
  endfacet
  facet normal -0 0 1
    outer loop
      vertex 2.5121 -5.33848 0
      vertex 12.7734 -27.1448 0
      vertex 3.16138 -4.98153 0
    endloop
  endfacet
  facet normal 0 0 1
    outer loop
      vertex 12.7734 -27.1448 0
      vertex 2.5121 -5.33848 0
      vertex 9.27051 -28.5317 0
    endloop
  endfacet
  facet normal -0 0 1
    outer loop
      vertex 1.8232 -5.61123 0
      vertex 9.27051 -28.5317 0
      vertex 2.5121 -5.33848 0
    endloop
  endfacet
  facet normal 0 0 1
    outer loop
      vertex 9.27051 -28.5317 0
      vertex 1.8232 -5.61123 0
      vertex 5.62144 -29.4686 0
    endloop
  endfacet
  facet normal -0 0 1
    outer loop
      vertex 1.10555 -5.79549 0
      vertex 5.62144 -29.4686 0
      vertex 1.8232 -5.61123 0
    endloop
  endfacet
  facet normal 0 0 1
    outer loop
      vertex 5.62144 -29.4686 0
      vertex 1.10555 -5.79549 0
      vertex 1.88371 -29.9408 0
    endloop
  endfacet
  facet normal -0 0 1
    outer loop
      vertex 0.370463 -5.88836 0
      vertex 1.88371 -29.9408 0
      vertex 1.10555 -5.79549 0
    endloop
  endfacet
  facet normal -0 0 1
    outer loop
      vertex -0.370463 -5.88836 0
      vertex 1.88371 -29.9408 0
      vertex 0.370463 -5.88836 0
    endloop
  endfacet
  facet normal 0 0 1
    outer loop
      vertex -1.88371 -29.9408 0
      vertex -0.370463 -5.88836 0
      vertex -1.10555 -5.79549 0
    endloop
  endfacet
  facet normal 0 0 1
    outer loop
      vertex -5.62144 -29.4686 0
      vertex -1.10555 -5.79549 0
      vertex -1.8232 -5.61123 0
    endloop
  endfacet
  facet normal 0 0 1
    outer loop
      vertex -0.370463 -5.88836 0
      vertex -1.88371 -29.9408 0
      vertex 1.88371 -29.9408 0
    endloop
  endfacet
  facet normal 0 0 1
    outer loop
      vertex -9.27051 -28.5317 0
      vertex -1.8232 -5.61123 0
      vertex -2.5121 -5.33848 0
    endloop
  endfacet
  facet normal 0 0 1
    outer loop
      vertex -12.7734 -27.1448 0
      vertex -2.5121 -5.33848 0
      vertex -3.16138 -4.98153 0
    endloop
  endfacet
  facet normal 0 0 1
    outer loop
      vertex -16.0748 -25.3298 0
      vertex -3.16138 -4.98153 0
      vertex -3.7608 -4.54603 0
    endloop
  endfacet
  facet normal 0 0 1
    outer loop
      vertex -19.1227 -23.1154 0
      vertex -3.7608 -4.54603 0
      vertex -4.30091 -4.03883 0
    endloop
  endfacet
  facet normal 0 0 1
    outer loop
      vertex -21.8691 -20.5364 0
      vertex -4.30091 -4.03883 0
      vertex -4.7732 -3.46793 0
    endloop
  endfacet
  facet normal 0 0 1
    outer loop
      vertex -24.2705 -17.6336 0
      vertex -4.7732 -3.46793 0
      vertex -5.17021 -2.84235 0
    endloop
  endfacet
  facet normal 0 0 1
    outer loop
      vertex -26.2892 -14.4526 0
      vertex -5.17021 -2.84235 0
      vertex -5.48568 -2.17193 0
    endloop
  endfacet
  facet normal 0 0 1
    outer loop
      vertex -1.10555 -5.79549 0
      vertex -5.62144 -29.4686 0
      vertex -1.88371 -29.9408 0
    endloop
  endfacet
  facet normal 0 0 1
    outer loop
      vertex -27.8933 -11.0437 0
      vertex -5.48568 -2.17193 0
      vertex -5.71464 -1.46727 0
    endloop
  endfacet
  facet normal 0 0 1
    outer loop
      vertex -29.0575 -7.4607 0
      vertex -5.71464 -1.46727 0
      vertex -5.85348 -0.739466 0
    endloop
  endfacet
  facet normal 0 0 1
    outer loop
      vertex -29.7634 -3.76 0
      vertex -5.85348 -0.739466 0
      vertex -5.9 0 0
    endloop
  endfacet
  facet normal 0 0 1
    outer loop
      vertex -4.7732 3.46793 0
      vertex -24.2705 17.6336 0
      vertex -5.17021 2.84235 0
    endloop
  endfacet
  facet normal 0 0 1
    outer loop
      vertex -1.8232 -5.61123 0
      vertex -9.27051 -28.5317 0
      vertex -5.62144 -29.4686 0
    endloop
  endfacet
  facet normal -0 0 1
    outer loop
      vertex -26.2892 14.4526 0
      vertex -5.17021 2.84235 0
      vertex -24.2705 17.6336 0
    endloop
  endfacet
  facet normal 0 0 1
    outer loop
      vertex -2.5121 -5.33848 0
      vertex -12.7734 -27.1448 0
      vertex -9.27051 -28.5317 0
    endloop
  endfacet
  facet normal 0 0 1
    outer loop
      vertex -5.17021 2.84235 0
      vertex -26.2892 14.4526 0
      vertex -5.48568 2.17193 0
    endloop
  endfacet
  facet normal 0 0 1
    outer loop
      vertex -3.16138 -4.98153 0
      vertex -16.0748 -25.3298 0
      vertex -12.7734 -27.1448 0
    endloop
  endfacet
  facet normal -0 0 1
    outer loop
      vertex -27.8933 11.0437 0
      vertex -5.48568 2.17193 0
      vertex -26.2892 14.4526 0
    endloop
  endfacet
  facet normal 0 0 1
    outer loop
      vertex -3.7608 -4.54603 0
      vertex -19.1227 -23.1154 0
      vertex -16.0748 -25.3298 0
    endloop
  endfacet
  facet normal 0 0 1
    outer loop
      vertex -5.48568 2.17193 0
      vertex -27.8933 11.0437 0
      vertex -5.71464 1.46727 0
    endloop
  endfacet
  facet normal 0 0 1
    outer loop
      vertex -4.30091 -4.03883 0
      vertex -21.8691 -20.5364 0
      vertex -19.1227 -23.1154 0
    endloop
  endfacet
  facet normal -0 0 1
    outer loop
      vertex -29.0575 7.4607 0
      vertex -5.71464 1.46727 0
      vertex -27.8933 11.0437 0
    endloop
  endfacet
  facet normal 0 0 1
    outer loop
      vertex -4.7732 -3.46793 0
      vertex -24.2705 -17.6336 0
      vertex -21.8691 -20.5364 0
    endloop
  endfacet
  facet normal 0 0 1
    outer loop
      vertex -5.71464 1.46727 0
      vertex -29.0575 7.4607 0
      vertex -5.85348 0.739466 0
    endloop
  endfacet
  facet normal 0 0 1
    outer loop
      vertex -5.17021 -2.84235 0
      vertex -26.2892 -14.4526 0
      vertex -24.2705 -17.6336 0
    endloop
  endfacet
  facet normal -0 0 1
    outer loop
      vertex -29.7634 3.76 0
      vertex -5.85348 0.739466 0
      vertex -29.0575 7.4607 0
    endloop
  endfacet
  facet normal 0 0 1
    outer loop
      vertex -5.48568 -2.17193 0
      vertex -27.8933 -11.0437 0
      vertex -26.2892 -14.4526 0
    endloop
  endfacet
  facet normal 0 0 1
    outer loop
      vertex -5.85348 0.739466 0
      vertex -29.7634 3.76 0
      vertex -5.9 0 0
    endloop
  endfacet
  facet normal 0 0 1
    outer loop
      vertex -5.71464 -1.46727 0
      vertex -29.0575 -7.4607 0
      vertex -27.8933 -11.0437 0
    endloop
  endfacet
  facet normal 0 0 1
    outer loop
      vertex -30 0 0
      vertex -5.9 0 0
      vertex -29.7634 3.76 0
    endloop
  endfacet
  facet normal 0 0 1
    outer loop
      vertex -5.85348 -0.739466 0
      vertex -29.7634 -3.76 0
      vertex -29.0575 -7.4607 0
    endloop
  endfacet
  facet normal 0 0 1
    outer loop
      vertex -5.9 0 0
      vertex -30 0 0
      vertex -29.7634 -3.76 0
    endloop
  endfacet
  facet normal 0 0 -1
    outer loop
      vertex 2.5 0 -5.9
      vertex 30 0 -5.9
      vertex 29.7634 -3.76 -5.9
    endloop
  endfacet
  facet normal 0 0 -1
    outer loop
      vertex 2.48029 -0.313333 -5.9
      vertex 29.7634 -3.76 -5.9
      vertex 29.0575 -7.4607 -5.9
    endloop
  endfacet
  facet normal 0 0 -1
    outer loop
      vertex 30 0 -5.9
      vertex 2.5 0 -5.9
      vertex 29.7634 3.76 -5.9
    endloop
  endfacet
  facet normal 0 0 -1
    outer loop
      vertex 2.42146 -0.621724 -5.9
      vertex 29.0575 -7.4607 -5.9
      vertex 27.8933 -11.0437 -5.9
    endloop
  endfacet
  facet normal 0 0 -1
    outer loop
      vertex 2.48029 0.313333 -5.9
      vertex 29.7634 3.76 -5.9
      vertex 2.5 0 -5.9
    endloop
  endfacet
  facet normal 0 0 -1
    outer loop
      vertex 2.32444 -0.920311 -5.9
      vertex 27.8933 -11.0437 -5.9
      vertex 26.2892 -14.4526 -5.9
    endloop
  endfacet
  facet normal -0 0 -1
    outer loop
      vertex 29.7634 3.76 -5.9
      vertex 2.48029 0.313333 -5.9
      vertex 29.0575 7.4607 -5.9
    endloop
  endfacet
  facet normal 0 0 -1
    outer loop
      vertex 2.19077 -1.20438 -5.9
      vertex 26.2892 -14.4526 -5.9
      vertex 24.2705 -17.6336 -5.9
    endloop
  endfacet
  facet normal 0 0 -1
    outer loop
      vertex 2.42146 0.621724 -5.9
      vertex 29.0575 7.4607 -5.9
      vertex 2.48029 0.313333 -5.9
    endloop
  endfacet
  facet normal 0 0 -1
    outer loop
      vertex 2.02254 -1.46946 -5.9
      vertex 24.2705 -17.6336 -5.9
      vertex 21.8691 -20.5364 -5.9
    endloop
  endfacet
  facet normal -0 0 -1
    outer loop
      vertex 29.0575 7.4607 -5.9
      vertex 2.42146 0.621724 -5.9
      vertex 27.8933 11.0437 -5.9
    endloop
  endfacet
  facet normal 0 0 -1
    outer loop
      vertex 1.82242 -1.71137 -5.9
      vertex 21.8691 -20.5364 -5.9
      vertex 19.1227 -23.1154 -5.9
    endloop
  endfacet
  facet normal 0 0 -1
    outer loop
      vertex 2.32444 0.920311 -5.9
      vertex 27.8933 11.0437 -5.9
      vertex 2.42146 0.621724 -5.9
    endloop
  endfacet
  facet normal 0 0 -1
    outer loop
      vertex 1.59356 -1.92628 -5.9
      vertex 19.1227 -23.1154 -5.9
      vertex 16.0748 -25.3298 -5.9
    endloop
  endfacet
  facet normal -0 0 -1
    outer loop
      vertex 27.8933 11.0437 -5.9
      vertex 2.32444 0.920311 -5.9
      vertex 26.2892 14.4526 -5.9
    endloop
  endfacet
  facet normal 0 0 -1
    outer loop
      vertex 1.33957 -2.11082 -5.9
      vertex 16.0748 -25.3298 -5.9
      vertex 12.7734 -27.1448 -5.9
    endloop
  endfacet
  facet normal 0 0 -1
    outer loop
      vertex 2.19077 1.20438 -5.9
      vertex 26.2892 14.4526 -5.9
      vertex 2.32444 0.920311 -5.9
    endloop
  endfacet
  facet normal 0 0 -1
    outer loop
      vertex 1.06445 -2.26207 -5.9
      vertex 12.7734 -27.1448 -5.9
      vertex 9.27051 -28.5317 -5.9
    endloop
  endfacet
  facet normal -0 0 -1
    outer loop
      vertex 26.2892 14.4526 -5.9
      vertex 2.19077 1.20438 -5.9
      vertex 24.2705 17.6336 -5.9
    endloop
  endfacet
  facet normal 0 0 -1
    outer loop
      vertex 0.772542 -2.37764 -5.9
      vertex 9.27051 -28.5317 -5.9
      vertex 5.62144 -29.4686 -5.9
    endloop
  endfacet
  facet normal 0 0 -1
    outer loop
      vertex 2.02254 1.46946 -5.9
      vertex 24.2705 17.6336 -5.9
      vertex 2.19077 1.20438 -5.9
    endloop
  endfacet
  facet normal -0 0 -1
    outer loop
      vertex 24.2705 17.6336 -5.9
      vertex 2.02254 1.46946 -5.9
      vertex 21.8691 20.5364 -5.9
    endloop
  endfacet
  facet normal 0 0 -1
    outer loop
      vertex 29.7634 -3.76 -5.9
      vertex 2.48029 -0.313333 -5.9
      vertex 2.5 0 -5.9
    endloop
  endfacet
  facet normal 0 0 -1
    outer loop
      vertex 29.0575 -7.4607 -5.9
      vertex 2.42146 -0.621724 -5.9
      vertex 2.48029 -0.313333 -5.9
    endloop
  endfacet
  facet normal 0 0 -1
    outer loop
      vertex 27.8933 -11.0437 -5.9
      vertex 2.32444 -0.920311 -5.9
      vertex 2.42146 -0.621724 -5.9
    endloop
  endfacet
  facet normal 0 0 -1
    outer loop
      vertex 26.2892 -14.4526 -5.9
      vertex 2.19077 -1.20438 -5.9
      vertex 2.32444 -0.920311 -5.9
    endloop
  endfacet
  facet normal 0 0 -1
    outer loop
      vertex 24.2705 -17.6336 -5.9
      vertex 2.02254 -1.46946 -5.9
      vertex 2.19077 -1.20438 -5.9
    endloop
  endfacet
  facet normal 0 0 -1
    outer loop
      vertex 0.468452 -2.45572 -5.9
      vertex 5.62144 -29.4686 -5.9
      vertex 1.88371 -29.9408 -5.9
    endloop
  endfacet
  facet normal 0 0 -1
    outer loop
      vertex 21.8691 -20.5364 -5.9
      vertex 1.82242 -1.71137 -5.9
      vertex 2.02254 -1.46946 -5.9
    endloop
  endfacet
  facet normal 0 0 -1
    outer loop
      vertex 19.1227 -23.1154 -5.9
      vertex 1.59356 -1.92628 -5.9
      vertex 1.82242 -1.71137 -5.9
    endloop
  endfacet
  facet normal 0 0 -1
    outer loop
      vertex 16.0748 -25.3298 -5.9
      vertex 1.33957 -2.11082 -5.9
      vertex 1.59356 -1.92628 -5.9
    endloop
  endfacet
  facet normal 0 0 -1
    outer loop
      vertex 12.7734 -27.1448 -5.9
      vertex 1.06445 -2.26207 -5.9
      vertex 1.33957 -2.11082 -5.9
    endloop
  endfacet
  facet normal 0 0 -1
    outer loop
      vertex 9.27051 -28.5317 -5.9
      vertex 0.772542 -2.37764 -5.9
      vertex 1.06445 -2.26207 -5.9
    endloop
  endfacet
  facet normal 0 0 -1
    outer loop
      vertex 5.62144 -29.4686 -5.9
      vertex 0.468452 -2.45572 -5.9
      vertex 0.772542 -2.37764 -5.9
    endloop
  endfacet
  facet normal 0 0 -1
    outer loop
      vertex 1.88371 -29.9408 -5.9
      vertex 0.156976 -2.49507 -5.9
      vertex 0.468452 -2.45572 -5.9
    endloop
  endfacet
  facet normal 0 0 -1
    outer loop
      vertex 1.88371 -29.9408 -5.9
      vertex -0.156976 -2.49507 -5.9
      vertex 0.156976 -2.49507 -5.9
    endloop
  endfacet
  facet normal 0 0 -1
    outer loop
      vertex -1.88371 -29.9408 -5.9
      vertex -0.156976 -2.49507 -5.9
      vertex 1.88371 -29.9408 -5.9
    endloop
  endfacet
  facet normal -0 0 -1
    outer loop
      vertex -0.156976 -2.49507 -5.9
      vertex -1.88371 -29.9408 -5.9
      vertex -0.468452 -2.45572 -5.9
    endloop
  endfacet
  facet normal 0 0 -1
    outer loop
      vertex -5.62144 -29.4686 -5.9
      vertex -0.468452 -2.45572 -5.9
      vertex -1.88371 -29.9408 -5.9
    endloop
  endfacet
  facet normal -0 0 -1
    outer loop
      vertex -0.468452 -2.45572 -5.9
      vertex -5.62144 -29.4686 -5.9
      vertex -0.772542 -2.37764 -5.9
    endloop
  endfacet
  facet normal 0 0 -1
    outer loop
      vertex -9.27051 -28.5317 -5.9
      vertex -0.772542 -2.37764 -5.9
      vertex -5.62144 -29.4686 -5.9
    endloop
  endfacet
  facet normal -0 0 -1
    outer loop
      vertex -0.772542 -2.37764 -5.9
      vertex -9.27051 -28.5317 -5.9
      vertex -1.06445 -2.26207 -5.9
    endloop
  endfacet
  facet normal 0 0 -1
    outer loop
      vertex -12.7734 -27.1448 -5.9
      vertex -1.06445 -2.26207 -5.9
      vertex -9.27051 -28.5317 -5.9
    endloop
  endfacet
  facet normal -0 0 -1
    outer loop
      vertex -1.06445 -2.26207 -5.9
      vertex -12.7734 -27.1448 -5.9
      vertex -1.33957 -2.11082 -5.9
    endloop
  endfacet
  facet normal 0 0 -1
    outer loop
      vertex -16.0748 -25.3298 -5.9
      vertex -1.33957 -2.11082 -5.9
      vertex -12.7734 -27.1448 -5.9
    endloop
  endfacet
  facet normal -0 0 -1
    outer loop
      vertex -1.33957 -2.11082 -5.9
      vertex -16.0748 -25.3298 -5.9
      vertex -1.59356 -1.92628 -5.9
    endloop
  endfacet
  facet normal 0 0 -1
    outer loop
      vertex -19.1227 -23.1154 -5.9
      vertex -1.59356 -1.92628 -5.9
      vertex -16.0748 -25.3298 -5.9
    endloop
  endfacet
  facet normal -0 0 -1
    outer loop
      vertex -1.59356 -1.92628 -5.9
      vertex -19.1227 -23.1154 -5.9
      vertex -1.82242 -1.71137 -5.9
    endloop
  endfacet
  facet normal 0 0 -1
    outer loop
      vertex -21.8691 -20.5364 -5.9
      vertex -1.82242 -1.71137 -5.9
      vertex -19.1227 -23.1154 -5.9
    endloop
  endfacet
  facet normal -0 0 -1
    outer loop
      vertex -1.82242 -1.71137 -5.9
      vertex -21.8691 -20.5364 -5.9
      vertex -2.02254 -1.46946 -5.9
    endloop
  endfacet
  facet normal 0 0 -1
    outer loop
      vertex 1.82242 1.71137 -5.9
      vertex 21.8691 20.5364 -5.9
      vertex 2.02254 1.46946 -5.9
    endloop
  endfacet
  facet normal -0 0 -1
    outer loop
      vertex 21.8691 20.5364 -5.9
      vertex 1.82242 1.71137 -5.9
      vertex 19.1227 23.1154 -5.9
    endloop
  endfacet
  facet normal 0 0 -1
    outer loop
      vertex 1.59356 1.92628 -5.9
      vertex 19.1227 23.1154 -5.9
      vertex 1.82242 1.71137 -5.9
    endloop
  endfacet
  facet normal -0 0 -1
    outer loop
      vertex 19.1227 23.1154 -5.9
      vertex 1.59356 1.92628 -5.9
      vertex 16.0748 25.3298 -5.9
    endloop
  endfacet
  facet normal 0 0 -1
    outer loop
      vertex 1.33957 2.11082 -5.9
      vertex 16.0748 25.3298 -5.9
      vertex 1.59356 1.92628 -5.9
    endloop
  endfacet
  facet normal -0 0 -1
    outer loop
      vertex 16.0748 25.3298 -5.9
      vertex 1.33957 2.11082 -5.9
      vertex 12.7734 27.1448 -5.9
    endloop
  endfacet
  facet normal 0 0 -1
    outer loop
      vertex 1.06445 2.26207 -5.9
      vertex 12.7734 27.1448 -5.9
      vertex 1.33957 2.11082 -5.9
    endloop
  endfacet
  facet normal -0 0 -1
    outer loop
      vertex 12.7734 27.1448 -5.9
      vertex 1.06445 2.26207 -5.9
      vertex 9.27051 28.5317 -5.9
    endloop
  endfacet
  facet normal 0 0 -1
    outer loop
      vertex 0.772542 2.37764 -5.9
      vertex 9.27051 28.5317 -5.9
      vertex 1.06445 2.26207 -5.9
    endloop
  endfacet
  facet normal -0 0 -1
    outer loop
      vertex 9.27051 28.5317 -5.9
      vertex 0.772542 2.37764 -5.9
      vertex 5.62144 29.4686 -5.9
    endloop
  endfacet
  facet normal 0 0 -1
    outer loop
      vertex 0.468452 2.45572 -5.9
      vertex 5.62144 29.4686 -5.9
      vertex 0.772542 2.37764 -5.9
    endloop
  endfacet
  facet normal -0 0 -1
    outer loop
      vertex 5.62144 29.4686 -5.9
      vertex 0.468452 2.45572 -5.9
      vertex 1.88371 29.9408 -5.9
    endloop
  endfacet
  facet normal 0 0 -1
    outer loop
      vertex 0.156976 2.49507 -5.9
      vertex 1.88371 29.9408 -5.9
      vertex 0.468452 2.45572 -5.9
    endloop
  endfacet
  facet normal 0 0 -1
    outer loop
      vertex -0.156976 2.49507 -5.9
      vertex 1.88371 29.9408 -5.9
      vertex 0.156976 2.49507 -5.9
    endloop
  endfacet
  facet normal 0 0 -1
    outer loop
      vertex -1.88371 29.9408 -5.9
      vertex -0.156976 2.49507 -5.9
      vertex -0.468452 2.45572 -5.9
    endloop
  endfacet
  facet normal 0 0 -1
    outer loop
      vertex -5.62144 29.4686 -5.9
      vertex -0.468452 2.45572 -5.9
      vertex -0.772542 2.37764 -5.9
    endloop
  endfacet
  facet normal 0 0 -1
    outer loop
      vertex -9.27051 28.5317 -5.9
      vertex -0.772542 2.37764 -5.9
      vertex -1.06445 2.26207 -5.9
    endloop
  endfacet
  facet normal 0 0 -1
    outer loop
      vertex -12.7734 27.1448 -5.9
      vertex -1.06445 2.26207 -5.9
      vertex -1.33957 2.11082 -5.9
    endloop
  endfacet
  facet normal 0 0 -1
    outer loop
      vertex -16.0748 25.3298 -5.9
      vertex -1.33957 2.11082 -5.9
      vertex -1.59356 1.92628 -5.9
    endloop
  endfacet
  facet normal 0 0 -1
    outer loop
      vertex -19.1227 23.1154 -5.9
      vertex -1.59356 1.92628 -5.9
      vertex -1.82242 1.71137 -5.9
    endloop
  endfacet
  facet normal 0 0 -1
    outer loop
      vertex -0.156976 2.49507 -5.9
      vertex -1.88371 29.9408 -5.9
      vertex 1.88371 29.9408 -5.9
    endloop
  endfacet
  facet normal 0 0 -1
    outer loop
      vertex -21.8691 20.5364 -5.9
      vertex -1.82242 1.71137 -5.9
      vertex -2.02254 1.46946 -5.9
    endloop
  endfacet
  facet normal 0 0 -1
    outer loop
      vertex -24.2705 17.6336 -5.9
      vertex -2.02254 1.46946 -5.9
      vertex -2.19077 1.20438 -5.9
    endloop
  endfacet
  facet normal 0 0 -1
    outer loop
      vertex -26.2892 14.4526 -5.9
      vertex -2.19077 1.20438 -5.9
      vertex -2.32444 0.920311 -5.9
    endloop
  endfacet
  facet normal 0 0 -1
    outer loop
      vertex -27.8933 11.0437 -5.9
      vertex -2.32444 0.920311 -5.9
      vertex -2.42146 0.621724 -5.9
    endloop
  endfacet
  facet normal 0 0 -1
    outer loop
      vertex -29.0575 7.4607 -5.9
      vertex -2.42146 0.621724 -5.9
      vertex -2.48029 0.313333 -5.9
    endloop
  endfacet
  facet normal 0 0 -1
    outer loop
      vertex -29.7634 3.76 -5.9
      vertex -2.48029 0.313333 -5.9
      vertex -2.5 0 -5.9
    endloop
  endfacet
  facet normal 0 0 -1
    outer loop
      vertex -24.2705 -17.6336 -5.9
      vertex -2.02254 -1.46946 -5.9
      vertex -21.8691 -20.5364 -5.9
    endloop
  endfacet
  facet normal 0 0 -1
    outer loop
      vertex -0.468452 2.45572 -5.9
      vertex -5.62144 29.4686 -5.9
      vertex -1.88371 29.9408 -5.9
    endloop
  endfacet
  facet normal -0 0 -1
    outer loop
      vertex -2.02254 -1.46946 -5.9
      vertex -24.2705 -17.6336 -5.9
      vertex -2.19077 -1.20438 -5.9
    endloop
  endfacet
  facet normal 0 0 -1
    outer loop
      vertex -0.772542 2.37764 -5.9
      vertex -9.27051 28.5317 -5.9
      vertex -5.62144 29.4686 -5.9
    endloop
  endfacet
  facet normal 0 0 -1
    outer loop
      vertex -26.2892 -14.4526 -5.9
      vertex -2.19077 -1.20438 -5.9
      vertex -24.2705 -17.6336 -5.9
    endloop
  endfacet
  facet normal 0 0 -1
    outer loop
      vertex -1.06445 2.26207 -5.9
      vertex -12.7734 27.1448 -5.9
      vertex -9.27051 28.5317 -5.9
    endloop
  endfacet
  facet normal -0 0 -1
    outer loop
      vertex -2.19077 -1.20438 -5.9
      vertex -26.2892 -14.4526 -5.9
      vertex -2.32444 -0.920311 -5.9
    endloop
  endfacet
  facet normal 0 0 -1
    outer loop
      vertex -1.33957 2.11082 -5.9
      vertex -16.0748 25.3298 -5.9
      vertex -12.7734 27.1448 -5.9
    endloop
  endfacet
  facet normal 0 0 -1
    outer loop
      vertex -27.8933 -11.0437 -5.9
      vertex -2.32444 -0.920311 -5.9
      vertex -26.2892 -14.4526 -5.9
    endloop
  endfacet
  facet normal 0 0 -1
    outer loop
      vertex -1.59356 1.92628 -5.9
      vertex -19.1227 23.1154 -5.9
      vertex -16.0748 25.3298 -5.9
    endloop
  endfacet
  facet normal -0 0 -1
    outer loop
      vertex -2.32444 -0.920311 -5.9
      vertex -27.8933 -11.0437 -5.9
      vertex -2.42146 -0.621724 -5.9
    endloop
  endfacet
  facet normal 0 0 -1
    outer loop
      vertex -1.82242 1.71137 -5.9
      vertex -21.8691 20.5364 -5.9
      vertex -19.1227 23.1154 -5.9
    endloop
  endfacet
  facet normal 0 0 -1
    outer loop
      vertex -29.0575 -7.4607 -5.9
      vertex -2.42146 -0.621724 -5.9
      vertex -27.8933 -11.0437 -5.9
    endloop
  endfacet
  facet normal 0 0 -1
    outer loop
      vertex -2.02254 1.46946 -5.9
      vertex -24.2705 17.6336 -5.9
      vertex -21.8691 20.5364 -5.9
    endloop
  endfacet
  facet normal -0 0 -1
    outer loop
      vertex -2.42146 -0.621724 -5.9
      vertex -29.0575 -7.4607 -5.9
      vertex -2.48029 -0.313333 -5.9
    endloop
  endfacet
  facet normal 0 0 -1
    outer loop
      vertex -2.19077 1.20438 -5.9
      vertex -26.2892 14.4526 -5.9
      vertex -24.2705 17.6336 -5.9
    endloop
  endfacet
  facet normal 0 0 -1
    outer loop
      vertex -29.7634 -3.76 -5.9
      vertex -2.48029 -0.313333 -5.9
      vertex -29.0575 -7.4607 -5.9
    endloop
  endfacet
  facet normal 0 0 -1
    outer loop
      vertex -2.32444 0.920311 -5.9
      vertex -27.8933 11.0437 -5.9
      vertex -26.2892 14.4526 -5.9
    endloop
  endfacet
  facet normal -0 0 -1
    outer loop
      vertex -2.48029 -0.313333 -5.9
      vertex -29.7634 -3.76 -5.9
      vertex -2.5 0 -5.9
    endloop
  endfacet
  facet normal 0 0 -1
    outer loop
      vertex -2.42146 0.621724 -5.9
      vertex -29.0575 7.4607 -5.9
      vertex -27.8933 11.0437 -5.9
    endloop
  endfacet
  facet normal 0 0 -1
    outer loop
      vertex -30 0 -5.9
      vertex -2.5 0 -5.9
      vertex -29.7634 -3.76 -5.9
    endloop
  endfacet
  facet normal 0 0 -1
    outer loop
      vertex -2.48029 0.313333 -5.9
      vertex -29.7634 3.76 -5.9
      vertex -29.0575 7.4607 -5.9
    endloop
  endfacet
  facet normal 0 0 -1
    outer loop
      vertex -2.5 0 -5.9
      vertex -30 0 -5.9
      vertex -29.7634 3.76 -5.9
    endloop
  endfacet
  facet normal -0.10865 0.86002 0.498558
    outer loop
      vertex 0.370463 -5.88836 0
      vertex 0.468452 -2.45572 -5.9
      vertex 0.156976 -2.49507 -5.9
    endloop
  endfacet
  facet normal -0.865146 -0.0544265 0.498559
    outer loop
      vertex 5.9 0 0
      vertex 5.85348 0.739466 0
      vertex 2.5 0 -5.9
    endloop
  endfacet
  facet normal -0.865146 -0.0544214 0.498558
    outer loop
      vertex 2.5 0 -5.9
      vertex 5.85348 0.739466 0
      vertex 2.48029 0.313333 -5.9
    endloop
  endfacet
  facet normal -0.865146 0.0544214 0.498558
    outer loop
      vertex 5.85348 -0.739466 0
      vertex 2.5 0 -5.9
      vertex 2.48029 -0.313333 -5.9
    endloop
  endfacet
  facet normal 0.851501 0.162437 0.498558
    outer loop
      vertex -5.71464 -1.46727 0
      vertex -2.48029 -0.313333 -5.9
      vertex -5.85348 -0.739466 0
    endloop
  endfacet
  facet normal 0.10865 -0.86002 0.498558
    outer loop
      vertex -0.156976 2.49507 -5.9
      vertex -0.370463 5.88836 0
      vertex -0.468452 2.45572 -5.9
    endloop
  endfacet
  facet normal -0.824428 0.267875 0.498558
    outer loop
      vertex 5.48568 -2.17193 0
      vertex 5.71464 -1.46727 0
      vertex 2.32444 -0.920311 -5.9
    endloop
  endfacet
  facet normal 0.667924 -0.552555 0.498558
    outer loop
      vertex -1.82242 1.71137 -5.9
      vertex -4.30091 4.03883 0
      vertex -4.7732 3.46793 0
    endloop
  endfacet
  facet normal -0.667924 0.552555 0.498558
    outer loop
      vertex 4.30091 -4.03883 0
      vertex 4.7732 -3.46793 0
      vertex 1.82242 -1.71137 -5.9
    endloop
  endfacet
  facet normal -0.417616 0.759629 0.498558
    outer loop
      vertex 2.5121 -5.33848 0
      vertex 3.16138 -4.98153 0
      vertex 1.06445 -2.26207 -5.9
    endloop
  endfacet
  facet normal -0.3191 0.805987 0.498558
    outer loop
      vertex 2.5121 -5.33848 0
      vertex 1.06445 -2.26207 -5.9
      vertex 0.772542 -2.37764 -5.9
    endloop
  endfacet
  facet normal 0.509522 0.701303 0.498559
    outer loop
      vertex -3.16138 -4.98153 0
      vertex -1.59356 -1.92628 -5.9
      vertex -3.7608 -4.54603 0
    endloop
  endfacet
  facet normal 0.784358 0.369083 0.498558
    outer loop
      vertex -2.19077 -1.20438 -5.9
      vertex -2.32444 -0.920311 -5.9
      vertex -5.17021 -2.84235 0
    endloop
  endfacet
  facet normal 0.865146 0.0544265 0.498559
    outer loop
      vertex -5.85348 -0.739466 0
      vertex -2.5 0 -5.9
      vertex -5.9 0 0
    endloop
  endfacet
  facet normal -0.851501 0.162437 0.498558
    outer loop
      vertex 5.71464 -1.46727 0
      vertex 5.85348 -0.739466 0
      vertex 2.48029 -0.313333 -5.9
    endloop
  endfacet
  facet normal -0.865146 0.0544265 0.498559
    outer loop
      vertex 5.85348 -0.739466 0
      vertex 5.9 0 0
      vertex 2.5 0 -5.9
    endloop
  endfacet
  facet normal -0.824427 0.267881 0.498558
    outer loop
      vertex 5.71464 -1.46727 0
      vertex 2.42146 -0.621724 -5.9
      vertex 2.32444 -0.920311 -5.9
    endloop
  endfacet
  facet normal -0.319106 0.805984 0.498558
    outer loop
      vertex 1.8232 -5.61123 0
      vertex 2.5121 -5.33848 0
      vertex 0.772542 -2.37764 -5.9
    endloop
  endfacet
  facet normal -0.215586 0.83962 0.498558
    outer loop
      vertex 1.8232 -5.61123 0
      vertex 0.772542 -2.37764 -5.9
      vertex 0.468452 -2.45572 -5.9
    endloop
  endfacet
  facet normal -0.593398 0.631916 0.498558
    outer loop
      vertex 4.30091 -4.03883 0
      vertex 1.82242 -1.71137 -5.9
      vertex 1.59356 -1.92628 -5.9
    endloop
  endfacet
  facet normal 0.593406 0.631909 0.498559
    outer loop
      vertex -3.7608 -4.54603 0
      vertex -1.59356 -1.92628 -5.9
      vertex -4.30091 -4.03883 0
    endloop
  endfacet
  facet normal 0.319106 0.805984 0.498558
    outer loop
      vertex -1.8232 -5.61123 0
      vertex -0.772542 -2.37764 -5.9
      vertex -2.5121 -5.33848 0
    endloop
  endfacet
  facet normal 0 0.866856 0.498558
    outer loop
      vertex 0.156976 -2.49507 -5.9
      vertex -0.370463 -5.88836 0
      vertex 0.370463 -5.88836 0
    endloop
  endfacet
  facet normal 0 0.866856 0.498558
    outer loop
      vertex -0.370463 -5.88836 0
      vertex 0.156976 -2.49507 -5.9
      vertex -0.156976 -2.49507 -5.9
    endloop
  endfacet
  facet normal -0.509522 -0.701303 0.498559
    outer loop
      vertex 3.7608 4.54603 0
      vertex 3.16138 4.98153 0
      vertex 1.59356 1.92628 -5.9
    endloop
  endfacet
  facet normal 0.417616 -0.759629 0.498558
    outer loop
      vertex -1.06445 2.26207 -5.9
      vertex -2.5121 5.33848 0
      vertex -3.16138 4.98153 0
    endloop
  endfacet
  facet normal 0.593406 -0.631909 0.498559
    outer loop
      vertex -1.59356 1.92628 -5.9
      vertex -3.7608 4.54603 0
      vertex -4.30091 4.03883 0
    endloop
  endfacet
  facet normal 0.3191 -0.805987 0.498558
    outer loop
      vertex -1.06445 2.26207 -5.9
      vertex -0.772542 2.37764 -5.9
      vertex -2.5121 5.33848 0
    endloop
  endfacet
  facet normal 0.824428 -0.267875 0.498558
    outer loop
      vertex -2.32444 0.920311 -5.9
      vertex -5.48568 2.17193 0
      vertex -5.71464 1.46727 0
    endloop
  endfacet
  facet normal 0.851501 -0.162437 0.498558
    outer loop
      vertex -2.48029 0.313333 -5.9
      vertex -5.71464 1.46727 0
      vertex -5.85348 0.739466 0
    endloop
  endfacet
  facet normal -0.851501 0.162436 0.498558
    outer loop
      vertex 5.71464 -1.46727 0
      vertex 2.48029 -0.313333 -5.9
      vertex 2.42146 -0.621724 -5.9
    endloop
  endfacet
  facet normal -0.731908 0.464489 0.498559
    outer loop
      vertex 4.7732 -3.46793 0
      vertex 5.17021 -2.84235 0
      vertex 2.19077 -1.20438 -5.9
    endloop
  endfacet
  facet normal -0.215577 0.839623 0.498558
    outer loop
      vertex 1.10555 -5.79549 0
      vertex 1.8232 -5.61123 0
      vertex 0.468452 -2.45572 -5.9
    endloop
  endfacet
  facet normal -0.108654 0.86002 0.498558
    outer loop
      vertex 1.10555 -5.79549 0
      vertex 0.468452 -2.45572 -5.9
      vertex 0.370463 -5.88836 0
    endloop
  endfacet
  facet normal -0.509522 0.701303 0.498559
    outer loop
      vertex 3.16138 -4.98153 0
      vertex 3.7608 -4.54603 0
      vertex 1.59356 -1.92628 -5.9
    endloop
  endfacet
  facet normal -0.593406 0.631909 0.498559
    outer loop
      vertex 3.7608 -4.54603 0
      vertex 4.30091 -4.03883 0
      vertex 1.59356 -1.92628 -5.9
    endloop
  endfacet
  facet normal -0.509535 0.701295 0.498558
    outer loop
      vertex 3.16138 -4.98153 0
      vertex 1.59356 -1.92628 -5.9
      vertex 1.33957 -2.11082 -5.9
    endloop
  endfacet
  facet normal -0.417614 0.75963 0.498558
    outer loop
      vertex 3.16138 -4.98153 0
      vertex 1.33957 -2.11082 -5.9
      vertex 1.06445 -2.26207 -5.9
    endloop
  endfacet
  facet normal 0.3191 0.805987 0.498558
    outer loop
      vertex -0.772542 -2.37764 -5.9
      vertex -1.06445 -2.26207 -5.9
      vertex -2.5121 -5.33848 0
    endloop
  endfacet
  facet normal 0.215577 0.839623 0.498558
    outer loop
      vertex -1.10555 -5.79549 0
      vertex -0.468452 -2.45572 -5.9
      vertex -1.8232 -5.61123 0
    endloop
  endfacet
  facet normal 0.108654 0.86002 0.498558
    outer loop
      vertex -0.370463 -5.88836 0
      vertex -0.468452 -2.45572 -5.9
      vertex -1.10555 -5.79549 0
    endloop
  endfacet
  facet normal -0.319106 -0.805984 0.498558
    outer loop
      vertex 2.5121 5.33848 0
      vertex 1.8232 5.61123 0
      vertex 0.772542 2.37764 -5.9
    endloop
  endfacet
  facet normal 0 -0.866856 0.498558
    outer loop
      vertex -0.156976 2.49507 -5.9
      vertex 0.370463 5.88836 0
      vertex -0.370463 5.88836 0
    endloop
  endfacet
  facet normal 0 -0.866856 0.498558
    outer loop
      vertex 0.370463 5.88836 0
      vertex -0.156976 2.49507 -5.9
      vertex 0.156976 2.49507 -5.9
    endloop
  endfacet
  facet normal -0.731908 -0.464489 0.498559
    outer loop
      vertex 5.17021 2.84235 0
      vertex 4.7732 3.46793 0
      vertex 2.19077 1.20438 -5.9
    endloop
  endfacet
  facet normal -0.784358 -0.369083 0.498558
    outer loop
      vertex 2.32444 0.920311 -5.9
      vertex 5.17021 2.84235 0
      vertex 2.19077 1.20438 -5.9
    endloop
  endfacet
  facet normal -0.851501 -0.162437 0.498558
    outer loop
      vertex 5.85348 0.739466 0
      vertex 5.71464 1.46727 0
      vertex 2.48029 0.313333 -5.9
    endloop
  endfacet
  facet normal 0.319106 -0.805984 0.498558
    outer loop
      vertex -0.772542 2.37764 -5.9
      vertex -1.8232 5.61123 0
      vertex -2.5121 5.33848 0
    endloop
  endfacet
  facet normal 0.509522 -0.701303 0.498559
    outer loop
      vertex -1.59356 1.92628 -5.9
      vertex -3.16138 4.98153 0
      vertex -3.7608 4.54603 0
    endloop
  endfacet
  facet normal 0.417614 -0.75963 0.498558
    outer loop
      vertex -1.33957 2.11082 -5.9
      vertex -1.06445 2.26207 -5.9
      vertex -3.16138 4.98153 0
    endloop
  endfacet
  facet normal 0.593398 -0.631916 0.498558
    outer loop
      vertex -1.82242 1.71137 -5.9
      vertex -1.59356 1.92628 -5.9
      vertex -4.30091 4.03883 0
    endloop
  endfacet
  facet normal 0.215586 -0.83962 0.498558
    outer loop
      vertex -0.772542 2.37764 -5.9
      vertex -0.468452 2.45572 -5.9
      vertex -1.8232 5.61123 0
    endloop
  endfacet
  facet normal 0.784357 -0.369084 0.498558
    outer loop
      vertex -2.32444 0.920311 -5.9
      vertex -5.17021 2.84235 0
      vertex -5.48568 2.17193 0
    endloop
  endfacet
  facet normal 0.784358 -0.369083 0.498558
    outer loop
      vertex -2.32444 0.920311 -5.9
      vertex -2.19077 1.20438 -5.9
      vertex -5.17021 2.84235 0
    endloop
  endfacet
  facet normal 0.851501 -0.162436 0.498558
    outer loop
      vertex -2.48029 0.313333 -5.9
      vertex -2.42146 0.621724 -5.9
      vertex -5.71464 1.46727 0
    endloop
  endfacet
  facet normal 0.865146 -0.0544265 0.498559
    outer loop
      vertex -2.5 0 -5.9
      vertex -5.85348 0.739466 0
      vertex -5.9 0 0
    endloop
  endfacet
  facet normal 0.865146 -0.0544214 0.498558
    outer loop
      vertex -2.5 0 -5.9
      vertex -2.48029 0.313333 -5.9
      vertex -5.85348 0.739466 0
    endloop
  endfacet
  facet normal -0.784358 0.369083 0.498558
    outer loop
      vertex 5.17021 -2.84235 0
      vertex 2.32444 -0.920311 -5.9
      vertex 2.19077 -1.20438 -5.9
    endloop
  endfacet
  facet normal -0.784357 0.369084 0.498558
    outer loop
      vertex 5.17021 -2.84235 0
      vertex 5.48568 -2.17193 0
      vertex 2.32444 -0.920311 -5.9
    endloop
  endfacet
  facet normal -0.731904 0.464495 0.498559
    outer loop
      vertex 4.7732 -3.46793 0
      vertex 2.19077 -1.20438 -5.9
      vertex 2.02254 -1.46946 -5.9
    endloop
  endfacet
  facet normal -0.667931 0.552546 0.498559
    outer loop
      vertex 4.7732 -3.46793 0
      vertex 2.02254 -1.46946 -5.9
      vertex 1.82242 -1.71137 -5.9
    endloop
  endfacet
  facet normal 0.593398 0.631916 0.498558
    outer loop
      vertex -1.59356 -1.92628 -5.9
      vertex -1.82242 -1.71137 -5.9
      vertex -4.30091 -4.03883 0
    endloop
  endfacet
  facet normal 0.731908 0.464489 0.498559
    outer loop
      vertex -4.7732 -3.46793 0
      vertex -2.19077 -1.20438 -5.9
      vertex -5.17021 -2.84235 0
    endloop
  endfacet
  facet normal 0.824428 0.267875 0.498558
    outer loop
      vertex -5.48568 -2.17193 0
      vertex -2.32444 -0.920311 -5.9
      vertex -5.71464 -1.46727 0
    endloop
  endfacet
  facet normal 0.784357 0.369084 0.498558
    outer loop
      vertex -5.17021 -2.84235 0
      vertex -2.32444 -0.920311 -5.9
      vertex -5.48568 -2.17193 0
    endloop
  endfacet
  facet normal 0.824427 0.267881 0.498558
    outer loop
      vertex -2.32444 -0.920311 -5.9
      vertex -2.42146 -0.621724 -5.9
      vertex -5.71464 -1.46727 0
    endloop
  endfacet
  facet normal 0.851501 0.162436 0.498558
    outer loop
      vertex -2.42146 -0.621724 -5.9
      vertex -2.48029 -0.313333 -5.9
      vertex -5.71464 -1.46727 0
    endloop
  endfacet
  facet normal 0.417616 0.759629 0.498558
    outer loop
      vertex -2.5121 -5.33848 0
      vertex -1.06445 -2.26207 -5.9
      vertex -3.16138 -4.98153 0
    endloop
  endfacet
  facet normal 0.215586 0.83962 0.498558
    outer loop
      vertex -0.468452 -2.45572 -5.9
      vertex -0.772542 -2.37764 -5.9
      vertex -1.8232 -5.61123 0
    endloop
  endfacet
  facet normal -0.3191 -0.805987 0.498558
    outer loop
      vertex 1.06445 2.26207 -5.9
      vertex 2.5121 5.33848 0
      vertex 0.772542 2.37764 -5.9
    endloop
  endfacet
  facet normal -0.215577 -0.839623 0.498558
    outer loop
      vertex 1.8232 5.61123 0
      vertex 1.10555 5.79549 0
      vertex 0.468452 2.45572 -5.9
    endloop
  endfacet
  facet normal -0.108654 -0.86002 0.498558
    outer loop
      vertex 0.468452 2.45572 -5.9
      vertex 1.10555 5.79549 0
      vertex 0.370463 5.88836 0
    endloop
  endfacet
  facet normal -0.731904 -0.464495 0.498559
    outer loop
      vertex 2.19077 1.20438 -5.9
      vertex 4.7732 3.46793 0
      vertex 2.02254 1.46946 -5.9
    endloop
  endfacet
  facet normal -0.593406 -0.631909 0.498559
    outer loop
      vertex 4.30091 4.03883 0
      vertex 3.7608 4.54603 0
      vertex 1.59356 1.92628 -5.9
    endloop
  endfacet
  facet normal 0.215577 -0.839623 0.498558
    outer loop
      vertex -0.468452 2.45572 -5.9
      vertex -1.10555 5.79549 0
      vertex -1.8232 5.61123 0
    endloop
  endfacet
  facet normal 0.108654 -0.86002 0.498558
    outer loop
      vertex -0.468452 2.45572 -5.9
      vertex -0.370463 5.88836 0
      vertex -1.10555 5.79549 0
    endloop
  endfacet
  facet normal 0.509535 -0.701295 0.498558
    outer loop
      vertex -1.59356 1.92628 -5.9
      vertex -1.33957 2.11082 -5.9
      vertex -3.16138 4.98153 0
    endloop
  endfacet
  facet normal 0.731908 -0.464489 0.498559
    outer loop
      vertex -2.19077 1.20438 -5.9
      vertex -4.7732 3.46793 0
      vertex -5.17021 2.84235 0
    endloop
  endfacet
  facet normal 0.865146 0.0544214 0.498558
    outer loop
      vertex -2.48029 -0.313333 -5.9
      vertex -2.5 0 -5.9
      vertex -5.85348 -0.739466 0
    endloop
  endfacet
  facet normal 0.731904 0.464495 0.498559
    outer loop
      vertex -2.02254 -1.46946 -5.9
      vertex -2.19077 -1.20438 -5.9
      vertex -4.7732 -3.46793 0
    endloop
  endfacet
  facet normal 0.667931 0.552546 0.498559
    outer loop
      vertex -1.82242 -1.71137 -5.9
      vertex -2.02254 -1.46946 -5.9
      vertex -4.7732 -3.46793 0
    endloop
  endfacet
  facet normal 0.667924 0.552555 0.498558
    outer loop
      vertex -4.30091 -4.03883 0
      vertex -1.82242 -1.71137 -5.9
      vertex -4.7732 -3.46793 0
    endloop
  endfacet
  facet normal 0.417614 0.75963 0.498558
    outer loop
      vertex -1.06445 -2.26207 -5.9
      vertex -1.33957 -2.11082 -5.9
      vertex -3.16138 -4.98153 0
    endloop
  endfacet
  facet normal 0.509535 0.701295 0.498558
    outer loop
      vertex -1.33957 -2.11082 -5.9
      vertex -1.59356 -1.92628 -5.9
      vertex -3.16138 -4.98153 0
    endloop
  endfacet
  facet normal 0.10865 0.86002 0.498558
    outer loop
      vertex -0.370463 -5.88836 0
      vertex -0.156976 -2.49507 -5.9
      vertex -0.468452 -2.45572 -5.9
    endloop
  endfacet
  facet normal -0.417616 -0.759629 0.498558
    outer loop
      vertex 3.16138 4.98153 0
      vertex 2.5121 5.33848 0
      vertex 1.06445 2.26207 -5.9
    endloop
  endfacet
  facet normal -0.215586 -0.83962 0.498558
    outer loop
      vertex 0.772542 2.37764 -5.9
      vertex 1.8232 5.61123 0
      vertex 0.468452 2.45572 -5.9
    endloop
  endfacet
  facet normal -0.593398 -0.631916 0.498558
    outer loop
      vertex 1.82242 1.71137 -5.9
      vertex 4.30091 4.03883 0
      vertex 1.59356 1.92628 -5.9
    endloop
  endfacet
  facet normal -0.667924 -0.552555 0.498558
    outer loop
      vertex 4.7732 3.46793 0
      vertex 4.30091 4.03883 0
      vertex 1.82242 1.71137 -5.9
    endloop
  endfacet
  facet normal -0.824428 -0.267875 0.498558
    outer loop
      vertex 5.71464 1.46727 0
      vertex 5.48568 2.17193 0
      vertex 2.32444 0.920311 -5.9
    endloop
  endfacet
  facet normal -0.784357 -0.369084 0.498558
    outer loop
      vertex 5.48568 2.17193 0
      vertex 5.17021 2.84235 0
      vertex 2.32444 0.920311 -5.9
    endloop
  endfacet
  facet normal -0.824427 -0.267881 0.498558
    outer loop
      vertex 2.42146 0.621724 -5.9
      vertex 5.71464 1.46727 0
      vertex 2.32444 0.920311 -5.9
    endloop
  endfacet
  facet normal -0.851501 -0.162436 0.498558
    outer loop
      vertex 2.48029 0.313333 -5.9
      vertex 5.71464 1.46727 0
      vertex 2.42146 0.621724 -5.9
    endloop
  endfacet
  facet normal 0.824427 -0.267881 0.498558
    outer loop
      vertex -2.42146 0.621724 -5.9
      vertex -2.32444 0.920311 -5.9
      vertex -5.71464 1.46727 0
    endloop
  endfacet
  facet normal 0.731904 -0.464495 0.498559
    outer loop
      vertex -2.19077 1.20438 -5.9
      vertex -2.02254 1.46946 -5.9
      vertex -4.7732 3.46793 0
    endloop
  endfacet
  facet normal 0.667931 -0.552546 0.498559
    outer loop
      vertex -2.02254 1.46946 -5.9
      vertex -1.82242 1.71137 -5.9
      vertex -4.7732 3.46793 0
    endloop
  endfacet
  facet normal -0.417614 -0.75963 0.498558
    outer loop
      vertex 1.33957 2.11082 -5.9
      vertex 3.16138 4.98153 0
      vertex 1.06445 2.26207 -5.9
    endloop
  endfacet
  facet normal -0.509535 -0.701295 0.498558
    outer loop
      vertex 1.59356 1.92628 -5.9
      vertex 3.16138 4.98153 0
      vertex 1.33957 2.11082 -5.9
    endloop
  endfacet
  facet normal -0.10865 -0.86002 0.498558
    outer loop
      vertex 0.468452 2.45572 -5.9
      vertex 0.370463 5.88836 0
      vertex 0.156976 2.49507 -5.9
    endloop
  endfacet
  facet normal -0.667931 -0.552546 0.498559
    outer loop
      vertex 2.02254 1.46946 -5.9
      vertex 4.7732 3.46793 0
      vertex 1.82242 1.71137 -5.9
    endloop
  endfacet
  facet normal 0.904828 0.425778 0
    outer loop
      vertex 27.8933 11.0437 0
      vertex 26.2892 14.4526 -5.9
      vertex 26.2892 14.4526 0
    endloop
  endfacet
  facet normal 0.904828 0.425778 0
    outer loop
      vertex 26.2892 14.4526 -5.9
      vertex 27.8933 11.0437 0
      vertex 27.8933 11.0437 -5.9
    endloop
  endfacet
  facet normal 0.844331 0.535822 0
    outer loop
      vertex 26.2892 14.4526 0
      vertex 24.2705 17.6336 -5.9
      vertex 24.2705 17.6336 0
    endloop
  endfacet
  facet normal 0.844331 0.535822 0
    outer loop
      vertex 24.2705 17.6336 -5.9
      vertex 26.2892 14.4526 0
      vertex 26.2892 14.4526 -5.9
    endloop
  endfacet
  facet normal 0.248684 0.968585 -0
    outer loop
      vertex 9.27051 28.5317 -5.9
      vertex 5.62144 29.4686 0
      vertex 9.27051 28.5317 0
    endloop
  endfacet
  facet normal 0.248684 0.968585 0
    outer loop
      vertex 5.62144 29.4686 0
      vertex 9.27051 28.5317 -5.9
      vertex 5.62144 29.4686 -5.9
    endloop
  endfacet
  facet normal 0.368126 0.929776 -0
    outer loop
      vertex 12.7734 27.1448 -5.9
      vertex 9.27051 28.5317 0
      vertex 12.7734 27.1448 0
    endloop
  endfacet
  facet normal 0.368126 0.929776 0
    outer loop
      vertex 9.27051 28.5317 0
      vertex 12.7734 27.1448 -5.9
      vertex 9.27051 28.5317 -5.9
    endloop
  endfacet
  facet normal -0.368126 0.929776 0
    outer loop
      vertex -9.27051 28.5317 -5.9
      vertex -12.7734 27.1448 0
      vertex -9.27051 28.5317 0
    endloop
  endfacet
  facet normal -0.368126 0.929776 0
    outer loop
      vertex -12.7734 27.1448 0
      vertex -9.27051 28.5317 -5.9
      vertex -12.7734 27.1448 -5.9
    endloop
  endfacet
  facet normal -0.904828 0.425778 0
    outer loop
      vertex -27.8933 11.0437 -5.9
      vertex -26.2892 14.4526 0
      vertex -26.2892 14.4526 -5.9
    endloop
  endfacet
  facet normal -0.904828 0.425778 0
    outer loop
      vertex -26.2892 14.4526 0
      vertex -27.8933 11.0437 -5.9
      vertex -27.8933 11.0437 0
    endloop
  endfacet
  facet normal 0.98229 -0.187369 0
    outer loop
      vertex 29.0575 -7.4607 0
      vertex 29.7634 -3.76 -5.9
      vertex 29.7634 -3.76 0
    endloop
  endfacet
  facet normal 0.98229 -0.187369 0
    outer loop
      vertex 29.7634 -3.76 -5.9
      vertex 29.0575 -7.4607 0
      vertex 29.0575 -7.4607 -5.9
    endloop
  endfacet
  facet normal 0.125337 0.992114 -0
    outer loop
      vertex 5.62144 29.4686 -5.9
      vertex 1.88371 29.9408 0
      vertex 5.62144 29.4686 0
    endloop
  endfacet
  facet normal 0.125337 0.992114 0
    outer loop
      vertex 1.88371 29.9408 0
      vertex 5.62144 29.4686 -5.9
      vertex 1.88371 29.9408 -5.9
    endloop
  endfacet
  facet normal 0.58778 0.809021 -0
    outer loop
      vertex 19.1227 23.1154 -5.9
      vertex 16.0748 25.3298 0
      vertex 19.1227 23.1154 0
    endloop
  endfacet
  facet normal 0.58778 0.809021 0
    outer loop
      vertex 16.0748 25.3298 0
      vertex 19.1227 23.1154 -5.9
      vertex 16.0748 25.3298 -5.9
    endloop
  endfacet
  facet normal -0.98229 0.187369 0
    outer loop
      vertex -29.7634 3.76 -5.9
      vertex -29.0575 7.4607 0
      vertex -29.0575 7.4607 -5.9
    endloop
  endfacet
  facet normal -0.98229 0.187369 0
    outer loop
      vertex -29.0575 7.4607 0
      vertex -29.7634 3.76 -5.9
      vertex -29.7634 3.76 0
    endloop
  endfacet
  facet normal -0.770514 0.637423 0
    outer loop
      vertex -24.2705 17.6336 -5.9
      vertex -21.8691 20.5364 0
      vertex -21.8691 20.5364 -5.9
    endloop
  endfacet
  facet normal -0.770514 0.637423 0
    outer loop
      vertex -21.8691 20.5364 0
      vertex -24.2705 17.6336 -5.9
      vertex -24.2705 17.6336 0
    endloop
  endfacet
  facet normal -0.481762 0.876302 0
    outer loop
      vertex -12.7734 27.1448 -5.9
      vertex -16.0748 25.3298 0
      vertex -12.7734 27.1448 0
    endloop
  endfacet
  facet normal -0.481762 0.876302 0
    outer loop
      vertex -16.0748 25.3298 0
      vertex -12.7734 27.1448 -5.9
      vertex -16.0748 25.3298 -5.9
    endloop
  endfacet
  facet normal -0.248684 0.968585 0
    outer loop
      vertex -5.62144 29.4686 -5.9
      vertex -9.27051 28.5317 0
      vertex -5.62144 29.4686 0
    endloop
  endfacet
  facet normal -0.248684 0.968585 0
    outer loop
      vertex -9.27051 28.5317 0
      vertex -5.62144 29.4686 -5.9
      vertex -9.27051 28.5317 -5.9
    endloop
  endfacet
  facet normal 0.998026 0.0628013 0
    outer loop
      vertex 30 0 0
      vertex 29.7634 3.76 -5.9
      vertex 29.7634 3.76 0
    endloop
  endfacet
  facet normal 0.998026 0.0628013 0
    outer loop
      vertex 29.7634 3.76 -5.9
      vertex 30 0 0
      vertex 30 0 -5.9
    endloop
  endfacet
  facet normal 0.481762 -0.876302 0
    outer loop
      vertex 12.7734 -27.1448 -5.9
      vertex 16.0748 -25.3298 0
      vertex 12.7734 -27.1448 0
    endloop
  endfacet
  facet normal 0.481762 -0.876302 0
    outer loop
      vertex 16.0748 -25.3298 0
      vertex 12.7734 -27.1448 -5.9
      vertex 16.0748 -25.3298 -5.9
    endloop
  endfacet
  facet normal 0.951056 -0.30902 0
    outer loop
      vertex 27.8933 -11.0437 0
      vertex 29.0575 -7.4607 -5.9
      vertex 29.0575 -7.4607 0
    endloop
  endfacet
  facet normal 0.951056 -0.30902 0
    outer loop
      vertex 29.0575 -7.4607 -5.9
      vertex 27.8933 -11.0437 0
      vertex 27.8933 -11.0437 -5.9
    endloop
  endfacet
  facet normal -0.684541 -0.728974 0
    outer loop
      vertex -21.8691 -20.5364 -5.9
      vertex -19.1227 -23.1154 0
      vertex -21.8691 -20.5364 0
    endloop
  endfacet
  facet normal -0.684541 -0.728974 -0
    outer loop
      vertex -19.1227 -23.1154 0
      vertex -21.8691 -20.5364 -5.9
      vertex -19.1227 -23.1154 -5.9
    endloop
  endfacet
  facet normal 0.98229 0.187369 0
    outer loop
      vertex 29.7634 3.76 0
      vertex 29.0575 7.4607 -5.9
      vertex 29.0575 7.4607 0
    endloop
  endfacet
  facet normal 0.98229 0.187369 0
    outer loop
      vertex 29.0575 7.4607 -5.9
      vertex 29.7634 3.76 0
      vertex 29.7634 3.76 -5.9
    endloop
  endfacet
  facet normal 0.951056 0.30902 0
    outer loop
      vertex 29.0575 7.4607 0
      vertex 27.8933 11.0437 -5.9
      vertex 27.8933 11.0437 0
    endloop
  endfacet
  facet normal 0.951056 0.30902 0
    outer loop
      vertex 27.8933 11.0437 -5.9
      vertex 29.0575 7.4607 0
      vertex 29.0575 7.4607 -5.9
    endloop
  endfacet
  facet normal 0.684541 0.728974 -0
    outer loop
      vertex 21.8691 20.5364 -5.9
      vertex 19.1227 23.1154 0
      vertex 21.8691 20.5364 0
    endloop
  endfacet
  facet normal 0.684541 0.728974 0
    outer loop
      vertex 19.1227 23.1154 0
      vertex 21.8691 20.5364 -5.9
      vertex 19.1227 23.1154 -5.9
    endloop
  endfacet
  facet normal 0 1 -0
    outer loop
      vertex 1.88371 29.9408 -5.9
      vertex -1.88371 29.9408 0
      vertex 1.88371 29.9408 0
    endloop
  endfacet
  facet normal 0 1 0
    outer loop
      vertex -1.88371 29.9408 0
      vertex 1.88371 29.9408 -5.9
      vertex -1.88371 29.9408 -5.9
    endloop
  endfacet
  facet normal 0.481762 0.876302 -0
    outer loop
      vertex 16.0748 25.3298 -5.9
      vertex 12.7734 27.1448 0
      vertex 16.0748 25.3298 0
    endloop
  endfacet
  facet normal 0.481762 0.876302 0
    outer loop
      vertex 12.7734 27.1448 0
      vertex 16.0748 25.3298 -5.9
      vertex 12.7734 27.1448 -5.9
    endloop
  endfacet
  facet normal -0.998026 0.0628013 0
    outer loop
      vertex -30 0 -5.9
      vertex -29.7634 3.76 0
      vertex -29.7634 3.76 -5.9
    endloop
  endfacet
  facet normal -0.998026 0.0628013 0
    outer loop
      vertex -29.7634 3.76 0
      vertex -30 0 -5.9
      vertex -30 0 0
    endloop
  endfacet
  facet normal -0.951056 0.30902 0
    outer loop
      vertex -29.0575 7.4607 -5.9
      vertex -27.8933 11.0437 0
      vertex -27.8933 11.0437 -5.9
    endloop
  endfacet
  facet normal -0.951056 0.30902 0
    outer loop
      vertex -27.8933 11.0437 0
      vertex -29.0575 7.4607 -5.9
      vertex -29.0575 7.4607 0
    endloop
  endfacet
  facet normal -0.844331 0.535822 0
    outer loop
      vertex -26.2892 14.4526 -5.9
      vertex -24.2705 17.6336 0
      vertex -24.2705 17.6336 -5.9
    endloop
  endfacet
  facet normal -0.844331 0.535822 0
    outer loop
      vertex -24.2705 17.6336 0
      vertex -26.2892 14.4526 -5.9
      vertex -26.2892 14.4526 0
    endloop
  endfacet
  facet normal -0.125337 0.992114 0
    outer loop
      vertex -1.88371 29.9408 -5.9
      vertex -5.62144 29.4686 0
      vertex -1.88371 29.9408 0
    endloop
  endfacet
  facet normal -0.125337 0.992114 0
    outer loop
      vertex -5.62144 29.4686 0
      vertex -1.88371 29.9408 -5.9
      vertex -5.62144 29.4686 -5.9
    endloop
  endfacet
  facet normal -0.58778 0.809021 0
    outer loop
      vertex -16.0748 25.3298 -5.9
      vertex -19.1227 23.1154 0
      vertex -16.0748 25.3298 0
    endloop
  endfacet
  facet normal -0.58778 0.809021 0
    outer loop
      vertex -19.1227 23.1154 0
      vertex -16.0748 25.3298 -5.9
      vertex -19.1227 23.1154 -5.9
    endloop
  endfacet
  facet normal -0.684541 0.728974 0
    outer loop
      vertex -19.1227 23.1154 -5.9
      vertex -21.8691 20.5364 0
      vertex -19.1227 23.1154 0
    endloop
  endfacet
  facet normal -0.684541 0.728974 0
    outer loop
      vertex -21.8691 20.5364 0
      vertex -19.1227 23.1154 -5.9
      vertex -21.8691 20.5364 -5.9
    endloop
  endfacet
  facet normal 0.998026 -0.0628013 0
    outer loop
      vertex 29.7634 -3.76 0
      vertex 30 0 -5.9
      vertex 30 0 0
    endloop
  endfacet
  facet normal 0.998026 -0.0628013 0
    outer loop
      vertex 30 0 -5.9
      vertex 29.7634 -3.76 0
      vertex 29.7634 -3.76 -5.9
    endloop
  endfacet
  facet normal -0.770514 -0.637423 0
    outer loop
      vertex -21.8691 -20.5364 -5.9
      vertex -24.2705 -17.6336 0
      vertex -24.2705 -17.6336 -5.9
    endloop
  endfacet
  facet normal -0.770514 -0.637423 0
    outer loop
      vertex -24.2705 -17.6336 0
      vertex -21.8691 -20.5364 -5.9
      vertex -21.8691 -20.5364 0
    endloop
  endfacet
  facet normal 0.125337 -0.992114 0
    outer loop
      vertex 1.88371 -29.9408 -5.9
      vertex 5.62144 -29.4686 0
      vertex 1.88371 -29.9408 0
    endloop
  endfacet
  facet normal 0.125337 -0.992114 0
    outer loop
      vertex 5.62144 -29.4686 0
      vertex 1.88371 -29.9408 -5.9
      vertex 5.62144 -29.4686 -5.9
    endloop
  endfacet
  facet normal 0.368126 -0.929776 0
    outer loop
      vertex 9.27051 -28.5317 -5.9
      vertex 12.7734 -27.1448 0
      vertex 9.27051 -28.5317 0
    endloop
  endfacet
  facet normal 0.368126 -0.929776 0
    outer loop
      vertex 12.7734 -27.1448 0
      vertex 9.27051 -28.5317 -5.9
      vertex 12.7734 -27.1448 -5.9
    endloop
  endfacet
  facet normal 0.770514 0.637423 0
    outer loop
      vertex 24.2705 17.6336 0
      vertex 21.8691 20.5364 -5.9
      vertex 21.8691 20.5364 0
    endloop
  endfacet
  facet normal 0.770514 0.637423 0
    outer loop
      vertex 21.8691 20.5364 -5.9
      vertex 24.2705 17.6336 0
      vertex 24.2705 17.6336 -5.9
    endloop
  endfacet
  facet normal 0.684541 -0.728974 0
    outer loop
      vertex 19.1227 -23.1154 -5.9
      vertex 21.8691 -20.5364 0
      vertex 19.1227 -23.1154 0
    endloop
  endfacet
  facet normal 0.684541 -0.728974 0
    outer loop
      vertex 21.8691 -20.5364 0
      vertex 19.1227 -23.1154 -5.9
      vertex 21.8691 -20.5364 -5.9
    endloop
  endfacet
  facet normal 0.844331 -0.535822 0
    outer loop
      vertex 24.2705 -17.6336 0
      vertex 26.2892 -14.4526 -5.9
      vertex 26.2892 -14.4526 0
    endloop
  endfacet
  facet normal 0.844331 -0.535822 0
    outer loop
      vertex 26.2892 -14.4526 -5.9
      vertex 24.2705 -17.6336 0
      vertex 24.2705 -17.6336 -5.9
    endloop
  endfacet
  facet normal 0.904828 -0.425778 0
    outer loop
      vertex 26.2892 -14.4526 0
      vertex 27.8933 -11.0437 -5.9
      vertex 27.8933 -11.0437 0
    endloop
  endfacet
  facet normal 0.904828 -0.425778 0
    outer loop
      vertex 27.8933 -11.0437 -5.9
      vertex 26.2892 -14.4526 0
      vertex 26.2892 -14.4526 -5.9
    endloop
  endfacet
  facet normal -0.368126 -0.929776 0
    outer loop
      vertex -12.7734 -27.1448 -5.9
      vertex -9.27051 -28.5317 0
      vertex -12.7734 -27.1448 0
    endloop
  endfacet
  facet normal -0.368126 -0.929776 -0
    outer loop
      vertex -9.27051 -28.5317 0
      vertex -12.7734 -27.1448 -5.9
      vertex -9.27051 -28.5317 -5.9
    endloop
  endfacet
  facet normal -0.248684 -0.968585 0
    outer loop
      vertex -9.27051 -28.5317 -5.9
      vertex -5.62144 -29.4686 0
      vertex -9.27051 -28.5317 0
    endloop
  endfacet
  facet normal -0.248684 -0.968585 -0
    outer loop
      vertex -5.62144 -29.4686 0
      vertex -9.27051 -28.5317 -5.9
      vertex -5.62144 -29.4686 -5.9
    endloop
  endfacet
  facet normal -0.125337 -0.992114 0
    outer loop
      vertex -5.62144 -29.4686 -5.9
      vertex -1.88371 -29.9408 0
      vertex -5.62144 -29.4686 0
    endloop
  endfacet
  facet normal -0.125337 -0.992114 -0
    outer loop
      vertex -1.88371 -29.9408 0
      vertex -5.62144 -29.4686 -5.9
      vertex -1.88371 -29.9408 -5.9
    endloop
  endfacet
  facet normal -0.998026 -0.0628013 0
    outer loop
      vertex -29.7634 -3.76 -5.9
      vertex -30 0 0
      vertex -30 0 -5.9
    endloop
  endfacet
  facet normal -0.998026 -0.0628013 0
    outer loop
      vertex -30 0 0
      vertex -29.7634 -3.76 -5.9
      vertex -29.7634 -3.76 0
    endloop
  endfacet
  facet normal -0.951056 -0.30902 0
    outer loop
      vertex -27.8933 -11.0437 -5.9
      vertex -29.0575 -7.4607 0
      vertex -29.0575 -7.4607 -5.9
    endloop
  endfacet
  facet normal -0.951056 -0.30902 0
    outer loop
      vertex -29.0575 -7.4607 0
      vertex -27.8933 -11.0437 -5.9
      vertex -27.8933 -11.0437 0
    endloop
  endfacet
  facet normal 0.248684 -0.968585 0
    outer loop
      vertex 5.62144 -29.4686 -5.9
      vertex 9.27051 -28.5317 0
      vertex 5.62144 -29.4686 0
    endloop
  endfacet
  facet normal 0.248684 -0.968585 0
    outer loop
      vertex 9.27051 -28.5317 0
      vertex 5.62144 -29.4686 -5.9
      vertex 9.27051 -28.5317 -5.9
    endloop
  endfacet
  facet normal 0 -1 0
    outer loop
      vertex -1.88371 -29.9408 -5.9
      vertex 1.88371 -29.9408 0
      vertex -1.88371 -29.9408 0
    endloop
  endfacet
  facet normal 0 -1 -0
    outer loop
      vertex 1.88371 -29.9408 0
      vertex -1.88371 -29.9408 -5.9
      vertex 1.88371 -29.9408 -5.9
    endloop
  endfacet
  facet normal -0.481762 -0.876302 0
    outer loop
      vertex -16.0748 -25.3298 -5.9
      vertex -12.7734 -27.1448 0
      vertex -16.0748 -25.3298 0
    endloop
  endfacet
  facet normal -0.481762 -0.876302 -0
    outer loop
      vertex -12.7734 -27.1448 0
      vertex -16.0748 -25.3298 -5.9
      vertex -12.7734 -27.1448 -5.9
    endloop
  endfacet
  facet normal -0.98229 -0.187369 0
    outer loop
      vertex -29.0575 -7.4607 -5.9
      vertex -29.7634 -3.76 0
      vertex -29.7634 -3.76 -5.9
    endloop
  endfacet
  facet normal -0.98229 -0.187369 0
    outer loop
      vertex -29.7634 -3.76 0
      vertex -29.0575 -7.4607 -5.9
      vertex -29.0575 -7.4607 0
    endloop
  endfacet
  facet normal -0.844331 -0.535822 0
    outer loop
      vertex -24.2705 -17.6336 -5.9
      vertex -26.2892 -14.4526 0
      vertex -26.2892 -14.4526 -5.9
    endloop
  endfacet
  facet normal -0.844331 -0.535822 0
    outer loop
      vertex -26.2892 -14.4526 0
      vertex -24.2705 -17.6336 -5.9
      vertex -24.2705 -17.6336 0
    endloop
  endfacet
  facet normal -0.904828 -0.425778 0
    outer loop
      vertex -26.2892 -14.4526 -5.9
      vertex -27.8933 -11.0437 0
      vertex -27.8933 -11.0437 -5.9
    endloop
  endfacet
  facet normal -0.904828 -0.425778 0
    outer loop
      vertex -27.8933 -11.0437 0
      vertex -26.2892 -14.4526 -5.9
      vertex -26.2892 -14.4526 0
    endloop
  endfacet
  facet normal 0.770514 -0.637423 0
    outer loop
      vertex 21.8691 -20.5364 0
      vertex 24.2705 -17.6336 -5.9
      vertex 24.2705 -17.6336 0
    endloop
  endfacet
  facet normal 0.770514 -0.637423 0
    outer loop
      vertex 24.2705 -17.6336 -5.9
      vertex 21.8691 -20.5364 0
      vertex 21.8691 -20.5364 -5.9
    endloop
  endfacet
  facet normal 0.58778 -0.809021 0
    outer loop
      vertex 16.0748 -25.3298 -5.9
      vertex 19.1227 -23.1154 0
      vertex 16.0748 -25.3298 0
    endloop
  endfacet
  facet normal 0.58778 -0.809021 0
    outer loop
      vertex 19.1227 -23.1154 0
      vertex 16.0748 -25.3298 -5.9
      vertex 19.1227 -23.1154 -5.9
    endloop
  endfacet
  facet normal -0.58778 -0.809021 0
    outer loop
      vertex -19.1227 -23.1154 -5.9
      vertex -16.0748 -25.3298 0
      vertex -19.1227 -23.1154 0
    endloop
  endfacet
  facet normal -0.58778 -0.809021 -0
    outer loop
      vertex -16.0748 -25.3298 0
      vertex -19.1227 -23.1154 -5.9
      vertex -16.0748 -25.3298 -5.9
    endloop
  endfacet
endsolid OpenSCAD_Model
