solid OpenSCAD_Model
  facet normal -0.8443279255020157 -0.5358267949789955 0
    outer loop
      vertex -12.135254915624213 -8.816778784387097 -4.5
      vertex -13.144600200657951 -7.226305111525731 3
      vertex -13.144600200657951 -7.226305111525731 -4.5
    endloop
  endfacet
  facet normal -0.7705132427757891 -0.6374239897486897 0
    outer loop
      vertex -12.135254915624213 -8.816778784387097 -4.5
      vertex -10.934529411321176 -10.268206588930328 -4.5
      vertex -12.135254915624213 -8.816778784387097 3
    endloop
  endfacet
  facet normal -0.5877852522924734 -0.8090169943749473 0
    outer loop
      vertex -9.561359846230344 -11.55769864163684 -4.5
      vertex -8.037401924684952 -12.664918882530225 -4.5
      vertex -8.037401924684952 -12.664918882530225 3
    endloop
  endfacet
  facet normal -0.6845471059286885 -0.7289686274214117 0
    outer loop
      vertex -9.561359846230344 -11.55769864163684 -4.5
      vertex -9.561359846230344 -11.55769864163684 3
      vertex -10.934529411321176 -10.268206588930328 -4.5
    endloop
  endfacet
  facet normal 0 0 -1
    outer loop
      vertex -13.946647288323772 -5.521868290270168 -4.5
      vertex -14.528747416929466 -3.7303483074728225 -4.5
      vertex -13.946647288323772 5.521868290270168 -4.5
    endloop
  endfacet
  facet normal 0 0 -1
    outer loop
      vertex -14.528747416929466 -3.7303483074728225 -4.5
      vertex -14.881720519717168 -1.879998503464561 -4.5
      vertex -14.528747416929466 3.7303483074728225 -4.5
    endloop
  endfacet
  facet normal 0 0 -1
    outer loop
      vertex -13.144600200657951 -7.226305111525731 -4.5
      vertex -13.946647288323772 -5.521868290270168 -4.5
      vertex -13.144600200657951 7.226305111525731 -4.5
    endloop
  endfacet
  facet normal 0 0 -1
    outer loop
      vertex -12.135254915624213 -8.816778784387097 -4.5
      vertex -13.144600200657951 -7.226305111525731 -4.5
      vertex -12.135254915624213 8.816778784387097 -4.5
    endloop
  endfacet
  facet normal 0 0 -1
    outer loop
      vertex -12.135254915624213 -8.816778784387097 -4.5
      vertex -10.934529411321176 10.268206588930328 -4.5
      vertex -10.934529411321176 -10.268206588930328 -4.5
    endloop
  endfacet
  facet normal 0 0 -1
    outer loop
      vertex -9.561359846230344 -11.55769864163684 -4.5
      vertex -8.037401924684952 12.664918882530225 -4.5
      vertex -8.037401924684952 -12.664918882530225 -4.5
    endloop
  endfacet
  facet normal 0 0 -1
    outer loop
      vertex -9.561359846230344 -11.55769864163684 -4.5
      vertex -10.934529411321176 -10.268206588930328 -4.5
      vertex -9.561359846230344 11.55769864163684 -4.5
    endloop
  endfacet
  facet normal -0.9048270524660189 -0.42577929156507377 0
    outer loop
      vertex -13.144600200657951 -7.226305111525731 -4.5
      vertex -13.946647288323772 -5.521868290270168 3
      vertex -13.946647288323772 -5.521868290270168 -4.5
    endloop
  endfacet
  facet normal -0.9510565162951538 -0.30901699437494673 0
    outer loop
      vertex -13.946647288323772 -5.521868290270168 -4.5
      vertex -14.528747416929466 -3.7303483074728225 3
      vertex -14.528747416929466 -3.7303483074728225 -4.5
    endloop
  endfacet
  facet normal -0.9822872507286887 -0.18738131458572516 0
    outer loop
      vertex -14.528747416929466 -3.7303483074728225 -4.5
      vertex -14.881720519717168 -1.879998503464561 3
      vertex -14.881720519717168 -1.879998503464561 -4.5
    endloop
  endfacet
  facet normal -0.9980267284282716 -0.06279051952931293 0
    outer loop
      vertex -14.881720519717168 -1.879998503464561 -4.5
      vertex -15 0 3
      vertex -15 0 -4.5
    endloop
  endfacet
  facet normal 0 0 -1
    outer loop
      vertex -6.386689373476086 -13.572405786990293 -4.5
      vertex -2.957125000655651 -5.1218907460570335 -4.5
      vertex -4.635254915624211 -14.265847744427303 -4.5
    endloop
  endfacet
  facet normal 0 0 -1
    outer loop
      vertex -4.635254915624211 -14.265847744427303 -4.5
      vertex 2.957125000655651 -5.1218907460570335 -4.5
      vertex -2.8107197187858723 -14.734308760930329 -4.5
    endloop
  endfacet
  facet normal 0 0 -1
    outer loop
      vertex -2.8107197187858723 -14.734308760930329 -4.5
      vertex 2.957125000655651 -5.1218907460570335 -4.5
      vertex -0.9418577929397064 -14.970400926424073 -4.5
    endloop
  endfacet
  facet normal 0 0 -1
    outer loop
      vertex -4.635254915624211 -14.265847744427303 -4.5
      vertex -2.957125000655651 -5.1218907460570335 -4.5
      vertex 2.957125000655651 -5.1218907460570335 -4.5
    endloop
  endfacet
  facet normal -0.4817536741017145 -0.8763066800438639 0
    outer loop
      vertex -8.037401924684952 -12.664918882530225 -4.5
      vertex -6.386689373476086 -13.572405786990293 -4.5
      vertex -6.386689373476086 -13.572405786990293 3
    endloop
  endfacet
  facet normal -0.3681245526846781 -0.9297764858882513 0
    outer loop
      vertex -6.386689373476086 -13.572405786990293 -4.5
      vertex -4.635254915624211 -14.265847744427303 -4.5
      vertex -4.635254915624211 -14.265847744427303 3
    endloop
  endfacet
  facet normal -0.24868988716485496 -0.9685831611286311 0
    outer loop
      vertex -4.635254915624211 -14.265847744427303 -4.5
      vertex -2.8107197187858723 -14.734308760930329 -4.5
      vertex -2.8107197187858723 -14.734308760930329 3
    endloop
  endfacet
  facet normal -0.12533323356430498 -0.9921147013144778 0
    outer loop
      vertex -2.8107197187858723 -14.734308760930329 -4.5
      vertex -0.9418577929397064 -14.970400926424073 -4.5
      vertex -0.9418577929397064 -14.970400926424073 3
    endloop
  endfacet
  facet normal 0 0 -1
    outer loop
      vertex -8.037401924684952 -12.664918882530225 -4.5
      vertex -6.386689373476091 13.572405786990291 -4.5
      vertex -6.386689373476086 -13.572405786990293 -4.5
    endloop
  endfacet
  facet normal 0 0 -1
    outer loop
      vertex -6.386689373476086 -13.572405786990293 -4.5
      vertex -5.914250001311302 0 -4.5
      vertex -2.957125000655651 -5.1218907460570335 -4.5
    endloop
  endfacet
  facet normal -0.7705132427757891 -0.6374239897486897 0
    outer loop
      vertex -10.934529411321176 -10.268206588930328 -4.5
      vertex -10.934529411321176 -10.268206588930328 3
      vertex -12.135254915624213 -8.816778784387097 3
    endloop
  endfacet
  facet normal -0.8443279255020157 -0.5358267949789955 0
    outer loop
      vertex -12.135254915624213 -8.816778784387097 -4.5
      vertex -12.135254915624213 -8.816778784387097 3
      vertex -13.144600200657951 -7.226305111525731 3
    endloop
  endfacet
  facet normal -0.5877852522924734 -0.8090169943749473 0
    outer loop
      vertex -9.561359846230344 -11.55769864163684 -4.5
      vertex -8.037401924684952 -12.664918882530225 3
      vertex -9.561359846230344 -11.55769864163684 3
    endloop
  endfacet
  facet normal -0.6845471059286885 -0.7289686274214117 0
    outer loop
      vertex -10.934529411321176 -10.268206588930328 -4.5
      vertex -9.561359846230344 -11.55769864163684 3
      vertex -10.934529411321176 -10.268206588930328 3
    endloop
  endfacet
  facet normal -0.9048270524660189 -0.42577929156507377 0
    outer loop
      vertex -13.144600200657951 -7.226305111525731 -4.5
      vertex -13.144600200657951 -7.226305111525731 3
      vertex -13.946647288323772 -5.521868290270168 3
    endloop
  endfacet
  facet normal -0.9510565162951538 -0.30901699437494673 0
    outer loop
      vertex -13.946647288323772 -5.521868290270168 -4.5
      vertex -13.946647288323772 -5.521868290270168 3
      vertex -14.528747416929466 -3.7303483074728225 3
    endloop
  endfacet
  facet normal -0.9822872507286887 -0.18738131458572516 0
    outer loop
      vertex -14.528747416929466 -3.7303483074728225 -4.5
      vertex -14.528747416929466 -3.7303483074728225 3
      vertex -14.881720519717168 -1.879998503464561 3
    endloop
  endfacet
  facet normal -0.9980267284282716 -0.06279051952931293 0
    outer loop
      vertex -14.881720519717168 -1.879998503464561 -4.5
      vertex -14.881720519717168 -1.879998503464561 3
      vertex -15 0 3
    endloop
  endfacet
  facet normal 0 0 1
    outer loop
      vertex -13.144600200657951 -7.226305111525731 3
      vertex -13.946647288323772 5.521868290270168 3
      vertex -13.946647288323772 -5.521868290270168 3
    endloop
  endfacet
  facet normal 0 0 1
    outer loop
      vertex -14.528747416929466 -3.7303483074728225 3
      vertex -14.881720519717168 1.879998503464561 3
      vertex -14.881720519717168 -1.879998503464561 3
    endloop
  endfacet
  facet normal 0 0 1
    outer loop
      vertex -13.946647288323772 -5.521868290270168 3
      vertex -14.528747416929466 3.7303483074728225 3
      vertex -14.528747416929466 -3.7303483074728225 3
    endloop
  endfacet
  facet normal 0 0 1
    outer loop
      vertex -12.135254915624213 -8.816778784387097 3
      vertex -13.144600200657951 7.226305111525731 3
      vertex -13.144600200657951 -7.226305111525731 3
    endloop
  endfacet
  facet normal 0 0 1
    outer loop
      vertex -12.135254915624213 -8.816778784387097 3
      vertex -10.934529411321176 -10.268206588930328 3
      vertex -12.135254915624213 8.816778784387097 3
    endloop
  endfacet
  facet normal 0 0 1
    outer loop
      vertex -9.561359846230344 -11.55769864163684 3
      vertex -10.934529411321176 10.268206588930328 3
      vertex -10.934529411321176 -10.268206588930328 3
    endloop
  endfacet
  facet normal 0 0 1
    outer loop
      vertex -9.561359846230344 -11.55769864163684 3
      vertex -8.037401924684952 -12.664918882530225 3
      vertex -9.561359846230344 11.55769864163684 3
    endloop
  endfacet
  facet normal -0.3681245526846781 -0.9297764858882513 0
    outer loop
      vertex -6.386689373476086 -13.572405786990293 -4.5
      vertex -4.635254915624211 -14.265847744427303 3
      vertex -6.386689373476086 -13.572405786990293 3
    endloop
  endfacet
  facet normal -0.4817536741017145 -0.8763066800438639 0
    outer loop
      vertex -8.037401924684952 -12.664918882530225 -4.5
      vertex -6.386689373476086 -13.572405786990293 3
      vertex -8.037401924684952 -12.664918882530225 3
    endloop
  endfacet
  facet normal -0.24868988716485496 -0.9685831611286311 0
    outer loop
      vertex -4.635254915624211 -14.265847744427303 -4.5
      vertex -2.8107197187858723 -14.734308760930329 3
      vertex -4.635254915624211 -14.265847744427303 3
    endloop
  endfacet
  facet normal -0.12533323356430498 -0.9921147013144778 0
    outer loop
      vertex -2.8107197187858723 -14.734308760930329 -4.5
      vertex -0.9418577929397064 -14.970400926424073 3
      vertex -2.8107197187858723 -14.734308760930329 3
    endloop
  endfacet
  facet normal 0 -1 0
    outer loop
      vertex -0.9418577929397064 -14.970400926424073 -4.5
      vertex 0.9418577929397064 -14.970400926424073 3
      vertex -0.9418577929397064 -14.970400926424073 3
    endloop
  endfacet
  facet normal 0 0 1
    outer loop
      vertex -4.635254915624211 -14.265847744427303 3
      vertex -2.8107197187858723 -14.734308760930329 3
      vertex -3.98389993592931 -4.815707767348684 3
    endloop
  endfacet
  facet normal 0 0 1
    outer loop
      vertex -6.386689373476086 -13.572405786990293 3
      vertex -4.635254915624211 -14.265847744427303 3
      vertex -5.476916750274147 -3.010960463135721 3
    endloop
  endfacet
  facet normal 0 0 1
    outer loop
      vertex -4.635254915624211 -14.265847744427303 3
      vertex -3.98389993592931 -4.815707767348684 3
      vertex -4.556053921383823 -4.278419412054303 3
    endloop
  endfacet
  facet normal 0 0 1
    outer loop
      vertex -2.8107197187858723 -14.734308760930329 3
      vertex -0.9418577929397064 -14.970400926424073 3
      vertex -1.9313562148434211 -5.944103226844709 3
    endloop
  endfacet
  facet normal 0 0 1
    outer loop
      vertex -2.8107197187858723 -14.734308760930329 3
      vertex -2.661120572281703 -5.655169077912622 3
      vertex -3.3489174686187297 -5.277049534387594 3
    endloop
  endfacet
  facet normal 0 0 1
    outer loop
      vertex -2.8107197187858723 -14.734308760930329 3
      vertex -3.3489174686187297 -5.277049534387594 3
      vertex -3.98389993592931 -4.815707767348684 3
    endloop
  endfacet
  facet normal 0 0 1
    outer loop
      vertex -2.8107197187858723 -14.734308760930329 3
      vertex -1.9313562148434211 -5.944103226844709 3
      vertex -2.661120572281703 -5.655169077912622 3
    endloop
  endfacet
  facet normal 0 0 1
    outer loop
      vertex -0.9418577929397064 -14.970400926424073 3
      vertex -1.1711332161607801 -6.139295317054303 3
      vertex -1.9313562148434211 -5.944103226844709 3
    endloop
  endfacet
  facet normal 0 0 1
    outer loop
      vertex -0.9418577929397064 -14.970400926424073 3
      vertex -0.392440747058211 -6.237667052676697 3
      vertex -1.1711332161607801 -6.139295317054303 3
    endloop
  endfacet
  facet normal 0 0 1
    outer loop
      vertex -0.9418577929397064 -14.970400926424073 3
      vertex 0.392440747058211 -6.237667052676697 3
      vertex -0.392440747058211 -6.237667052676697 3
    endloop
  endfacet
  facet normal 0 0 1
    outer loop
      vertex -6.386689373476086 -13.572405786990293 3
      vertex -5.476916750274147 -3.010960463135721 3
      vertex -5.811103036801572 -2.3007784542792367 3
    endloop
  endfacet
  facet normal 0 0 1
    outer loop
      vertex -6.386689373476086 -13.572405786990293 3
      vertex -5.811103036801572 -2.3007784542792367 3
      vertex -6.053644757053944 -1.5543117947803429 3
    endloop
  endfacet
  facet normal 0 0 1
    outer loop
      vertex -8.037401924684952 -12.664918882530225 3
      vertex -6.386689373476086 -13.572405786990293 3
      vertex -8.037401924684952 12.664918882530225 3
    endloop
  endfacet
  facet normal 0 0 1
    outer loop
      vertex -6.386689373476086 -13.572405786990293 3
      vertex -6.053644757053944 -1.5543117947803429 3
      vertex -6.200716883215486 -0.7833327097769004 3
    endloop
  endfacet
  facet normal 0 0 1
    outer loop
      vertex -6.386689373476086 -13.572405786990293 3
      vertex -6.200716883215486 -0.7833327097769004 3
      vertex -6.25 0 3
    endloop
  endfacet
  facet normal 0 0 1
    outer loop
      vertex -4.635254915624211 -14.265847744427303 3
      vertex -4.556053921383823 -4.278419412054303 3
      vertex -5.056356214843421 -3.673657826827957 3
    endloop
  endfacet
  facet normal 0 0 1
    outer loop
      vertex -4.635254915624211 -14.265847744427303 3
      vertex -5.056356214843421 -3.673657826827957 3
      vertex -5.476916750274147 -3.010960463135721 3
    endloop
  endfacet
  facet normal 0 0 -1
    outer loop
      vertex -14.881720519717168 -1.879998503464561 -4.5
      vertex -15 0 -4.5
      vertex -14.881720519717168 1.879998503464561 -4.5
    endloop
  endfacet
  facet normal 0 0 -1
    outer loop
      vertex -14.881720519717168 -1.879998503464561 -4.5
      vertex -14.881720519717168 1.879998503464561 -4.5
      vertex -14.528747416929466 3.7303483074728225 -4.5
    endloop
  endfacet
  facet normal 0 0 -1
    outer loop
      vertex -14.528747416929466 -3.7303483074728225 -4.5
      vertex -14.528747416929466 3.7303483074728225 -4.5
      vertex -13.946647288323772 5.521868290270168 -4.5
    endloop
  endfacet
  facet normal 0 0 -1
    outer loop
      vertex -13.946647288323772 -5.521868290270168 -4.5
      vertex -13.946647288323772 5.521868290270168 -4.5
      vertex -13.144600200657951 7.226305111525731 -4.5
    endloop
  endfacet
  facet normal 0 0 -1
    outer loop
      vertex -13.144600200657951 -7.226305111525731 -4.5
      vertex -13.144600200657951 7.226305111525731 -4.5
      vertex -12.135254915624213 8.816778784387097 -4.5
    endloop
  endfacet
  facet normal 0 0 -1
    outer loop
      vertex -12.135254915624213 -8.816778784387097 -4.5
      vertex -12.135254915624213 8.816778784387097 -4.5
      vertex -10.934529411321176 10.268206588930328 -4.5
    endloop
  endfacet
  facet normal 0 0 -1
    outer loop
      vertex -10.934529411321176 -10.268206588930328 -4.5
      vertex -10.934529411321176 10.268206588930328 -4.5
      vertex -9.561359846230344 11.55769864163684 -4.5
    endloop
  endfacet
  facet normal 0 0 -1
    outer loop
      vertex -9.561359846230344 -11.55769864163684 -4.5
      vertex -9.561359846230344 11.55769864163684 -4.5
      vertex -8.037401924684952 12.664918882530225 -4.5
    endloop
  endfacet
  facet normal -0.9980267284282716 0.06279051952931293 0
    outer loop
      vertex -15 0 -4.5
      vertex -14.881720519717168 1.879998503464561 3
      vertex -14.881720519717168 1.879998503464561 -4.5
    endloop
  endfacet
  facet normal -0.9822872507286887 0.18738131458572516 0
    outer loop
      vertex -14.881720519717168 1.879998503464561 -4.5
      vertex -14.528747416929466 3.7303483074728225 3
      vertex -14.528747416929466 3.7303483074728225 -4.5
    endloop
  endfacet
  facet normal -0.9510565162951538 0.30901699437494673 0
    outer loop
      vertex -14.528747416929466 3.7303483074728225 -4.5
      vertex -13.946647288323772 5.521868290270168 3
      vertex -13.946647288323772 5.521868290270168 -4.5
    endloop
  endfacet
  facet normal -0.9048270524660189 0.42577929156507377 0
    outer loop
      vertex -13.946647288323772 5.521868290270168 -4.5
      vertex -13.144600200657951 7.226305111525731 3
      vertex -13.144600200657951 7.226305111525731 -4.5
    endloop
  endfacet
  facet normal -0.8443279255020157 0.5358267949789955 0
    outer loop
      vertex -13.144600200657951 7.226305111525731 -4.5
      vertex -12.135254915624213 8.816778784387097 3
      vertex -12.135254915624213 8.816778784387097 -4.5
    endloop
  endfacet
  facet normal -0.7705132427757891 0.6374239897486897 0
    outer loop
      vertex -12.135254915624213 8.816778784387097 -4.5
      vertex -10.934529411321176 10.268206588930328 3
      vertex -10.934529411321176 10.268206588930328 -4.5
    endloop
  endfacet
  facet normal -0.6845471059286885 0.7289686274214117 0
    outer loop
      vertex -10.934529411321176 10.268206588930328 -4.5
      vertex -10.934529411321176 10.268206588930328 3
      vertex -9.561359846230344 11.55769864163684 -4.5
    endloop
  endfacet
  facet normal -0.5877852522924734 0.8090169943749473 0
    outer loop
      vertex -9.561359846230344 11.55769864163684 -4.5
      vertex -9.561359846230344 11.55769864163684 3
      vertex -8.037401924684952 12.664918882530225 -4.5
    endloop
  endfacet
  facet normal 0 0 -1
    outer loop
      vertex -6.386689373476086 -13.572405786990293 -4.5
      vertex -6.386689373476091 13.572405786990291 -4.5
      vertex -5.914250001311302 0 -4.5
    endloop
  endfacet
  facet normal 0 0 -1
    outer loop
      vertex -8.037401924684952 -12.664918882530225 -4.5
      vertex -8.037401924684952 12.664918882530225 -4.5
      vertex -6.386689373476091 13.572405786990291 -4.5
    endloop
  endfacet
  facet normal 0 0 -1
    outer loop
      vertex -2.810719718785869 14.73430876093033 -4.5
      vertex -2.957125000655651 5.1218907460570335 -4.5
      vertex -5.914250001311302 0 -4.5
    endloop
  endfacet
  facet normal 0 0 -1
    outer loop
      vertex -6.386689373476091 13.572405786990291 -4.5
      vertex -4.635254915624211 14.265847744427303 -4.5
      vertex -5.914250001311302 0 -4.5
    endloop
  endfacet
  facet normal 0 0 -1
    outer loop
      vertex -4.635254915624211 14.265847744427303 -4.5
      vertex -2.810719718785869 14.73430876093033 -4.5
      vertex -5.914250001311302 0 -4.5
    endloop
  endfacet
  facet normal 0 0 -1
    outer loop
      vertex -2.810719718785869 14.73430876093033 -4.5
      vertex -0.9418577929396992 14.970400926424073 -4.5
      vertex -2.957125000655651 5.1218907460570335 -4.5
    endloop
  endfacet
  facet normal 0 0 -1
    outer loop
      vertex -0.9418577929396992 14.970400926424073 -4.5
      vertex 0.9418577929396992 14.970400926424073 -4.5
      vertex -2.957125000655651 5.1218907460570335 -4.5
    endloop
  endfacet
  facet normal -0.4817536741017148 0.8763066800438639 0
    outer loop
      vertex -8.037401924684952 12.664918882530225 -4.5
      vertex -8.037401924684952 12.664918882530225 3
      vertex -6.386689373476091 13.572405786990291 -4.5
    endloop
  endfacet
  facet normal -0.36812455268467803 0.9297764858882513 0
    outer loop
      vertex -6.386689373476091 13.572405786990291 -4.5
      vertex -6.386689373476091 13.572405786990291 3
      vertex -4.635254915624211 14.265847744427303 -4.5
    endloop
  endfacet
  facet normal -0.24868988716485538 0.9685831611286311 0
    outer loop
      vertex -4.635254915624211 14.265847744427303 -4.5
      vertex -4.635254915624211 14.265847744427303 3
      vertex -2.810719718785869 14.73430876093033 -4.5
    endloop
  endfacet
  facet normal -0.1253332335643038 0.9921147013144779 0
    outer loop
      vertex -2.810719718785869 14.73430876093033 -4.5
      vertex -2.810719718785869 14.73430876093033 3
      vertex -0.9418577929396992 14.970400926424073 -4.5
    endloop
  endfacet
  facet normal 0 1 0
    outer loop
      vertex -0.9418577929396992 14.970400926424073 -4.5
      vertex -0.9418577929396992 14.970400926424073 3
      vertex 0.9418577929396992 14.970400926424073 -4.5
    endloop
  endfacet
  facet normal -0.9980267284282716 0.06279051952931293 0
    outer loop
      vertex -15 0 -4.5
      vertex -15 0 3
      vertex -14.881720519717168 1.879998503464561 3
    endloop
  endfacet
  facet normal -0.9822872507286887 0.18738131458572516 0
    outer loop
      vertex -14.881720519717168 1.879998503464561 -4.5
      vertex -14.881720519717168 1.879998503464561 3
      vertex -14.528747416929466 3.7303483074728225 3
    endloop
  endfacet
  facet normal -0.9510565162951538 0.30901699437494673 0
    outer loop
      vertex -14.528747416929466 3.7303483074728225 -4.5
      vertex -14.528747416929466 3.7303483074728225 3
      vertex -13.946647288323772 5.521868290270168 3
    endloop
  endfacet
  facet normal -0.9048270524660189 0.42577929156507377 0
    outer loop
      vertex -13.946647288323772 5.521868290270168 -4.5
      vertex -13.946647288323772 5.521868290270168 3
      vertex -13.144600200657951 7.226305111525731 3
    endloop
  endfacet
  facet normal 0 0 1
    outer loop
      vertex -14.881720519717168 -1.879998503464561 3
      vertex -14.881720519717168 1.879998503464561 3
      vertex -15 0 3
    endloop
  endfacet
  facet normal 0 0 1
    outer loop
      vertex -14.528747416929466 -3.7303483074728225 3
      vertex -14.528747416929466 3.7303483074728225 3
      vertex -14.881720519717168 1.879998503464561 3
    endloop
  endfacet
  facet normal 0 0 1
    outer loop
      vertex -13.946647288323772 -5.521868290270168 3
      vertex -13.946647288323772 5.521868290270168 3
      vertex -14.528747416929466 3.7303483074728225 3
    endloop
  endfacet
  facet normal 0 0 1
    outer loop
      vertex -13.144600200657951 -7.226305111525731 3
      vertex -13.144600200657951 7.226305111525731 3
      vertex -13.946647288323772 5.521868290270168 3
    endloop
  endfacet
  facet normal 0 0 1
    outer loop
      vertex -12.135254915624213 -8.816778784387097 3
      vertex -12.135254915624213 8.816778784387097 3
      vertex -13.144600200657951 7.226305111525731 3
    endloop
  endfacet
  facet normal 0 0 1
    outer loop
      vertex -10.934529411321176 -10.268206588930328 3
      vertex -10.934529411321176 10.268206588930328 3
      vertex -12.135254915624213 8.816778784387097 3
    endloop
  endfacet
  facet normal 0 0 1
    outer loop
      vertex -9.561359846230344 -11.55769864163684 3
      vertex -9.561359846230344 11.55769864163684 3
      vertex -10.934529411321176 10.268206588930328 3
    endloop
  endfacet
  facet normal 0 0 1
    outer loop
      vertex -8.037401924684952 -12.664918882530225 3
      vertex -8.037401924684952 12.664918882530225 3
      vertex -9.561359846230344 11.55769864163684 3
    endloop
  endfacet
  facet normal -0.8443279255020157 0.5358267949789955 0
    outer loop
      vertex -13.144600200657951 7.226305111525731 -4.5
      vertex -13.144600200657951 7.226305111525731 3
      vertex -12.135254915624213 8.816778784387097 3
    endloop
  endfacet
  facet normal -0.7705132427757891 0.6374239897486897 0
    outer loop
      vertex -12.135254915624213 8.816778784387097 -4.5
      vertex -12.135254915624213 8.816778784387097 3
      vertex -10.934529411321176 10.268206588930328 3
    endloop
  endfacet
  facet normal -0.6845471059286885 0.7289686274214117 0
    outer loop
      vertex -9.561359846230344 11.55769864163684 -4.5
      vertex -10.934529411321176 10.268206588930328 3
      vertex -9.561359846230344 11.55769864163684 3
    endloop
  endfacet
  facet normal -0.5877852522924734 0.8090169943749473 0
    outer loop
      vertex -8.037401924684952 12.664918882530225 -4.5
      vertex -9.561359846230344 11.55769864163684 3
      vertex -8.037401924684952 12.664918882530225 3
    endloop
  endfacet
  facet normal 0 0 1
    outer loop
      vertex -6.386689373476086 -13.572405786990293 3
      vertex -6.25 0 3
      vertex -6.386689373476091 13.572405786990291 3
    endloop
  endfacet
  facet normal 0 0 1
    outer loop
      vertex -6.386689373476086 -13.572405786990293 3
      vertex -6.386689373476091 13.572405786990291 3
      vertex -8.037401924684952 12.664918882530225 3
    endloop
  endfacet
  facet normal 0 0 1
    outer loop
      vertex -6.386689373476091 13.572405786990291 3
      vertex -6.25 0 3
      vertex -6.200716883215486 0.7833327097769004 3
    endloop
  endfacet
  facet normal 0 0 1
    outer loop
      vertex -6.386689373476091 13.572405786990291 3
      vertex -6.200716883215486 0.7833327097769004 3
      vertex -6.053644757053944 1.5543117947803429 3
    endloop
  endfacet
  facet normal 0 0 1
    outer loop
      vertex -6.386689373476091 13.572405786990291 3
      vertex -6.053644757053944 1.5543117947803429 3
      vertex -5.811103036801572 2.3007784542792367 3
    endloop
  endfacet
  facet normal 0 0 1
    outer loop
      vertex -6.386689373476091 13.572405786990291 3
      vertex -5.811103036801572 2.3007784542792367 3
      vertex -5.476916750274147 3.010960463135721 3
    endloop
  endfacet
  facet normal 0 0 1
    outer loop
      vertex -6.386689373476091 13.572405786990291 3
      vertex -5.476916750274147 3.010960463135721 3
      vertex -5.056356214843421 3.673657826827957 3
    endloop
  endfacet
  facet normal 0 0 1
    outer loop
      vertex -6.386689373476091 13.572405786990291 3
      vertex -5.056356214843421 3.673657826827957 3
      vertex -4.556053921383823 4.278419412054303 3
    endloop
  endfacet
  facet normal -0.4817536741017148 0.8763066800438639 0
    outer loop
      vertex -6.386689373476091 13.572405786990291 -4.5
      vertex -8.037401924684952 12.664918882530225 3
      vertex -6.386689373476091 13.572405786990291 3
    endloop
  endfacet
  facet normal -0.36812455268467803 0.9297764858882513 0
    outer loop
      vertex -4.635254915624211 14.265847744427303 -4.5
      vertex -6.386689373476091 13.572405786990291 3
      vertex -4.635254915624211 14.265847744427303 3
    endloop
  endfacet
  facet normal -0.24868988716485538 0.9685831611286311 0
    outer loop
      vertex -2.810719718785869 14.73430876093033 -4.5
      vertex -4.635254915624211 14.265847744427303 3
      vertex -2.810719718785869 14.73430876093033 3
    endloop
  endfacet
  facet normal -0.1253332335643038 0.9921147013144779 0
    outer loop
      vertex -0.9418577929396992 14.970400926424073 -4.5
      vertex -2.810719718785869 14.73430876093033 3
      vertex -0.9418577929396992 14.970400926424073 3
    endloop
  endfacet
  facet normal 0 0 1
    outer loop
      vertex -4.635254915624211 14.265847744427303 3
      vertex -4.556053921383823 4.278419412054303 3
      vertex -3.98389993592931 4.815707767348684 3
    endloop
  endfacet
  facet normal 0 0 1
    outer loop
      vertex -4.635254915624211 14.265847744427303 3
      vertex -3.98389993592931 4.815707767348684 3
      vertex -3.3489174686187297 5.277049534387594 3
    endloop
  endfacet
  facet normal 0 0 1
    outer loop
      vertex -6.386689373476091 13.572405786990291 3
      vertex -4.556053921383823 4.278419412054303 3
      vertex -4.635254915624211 14.265847744427303 3
    endloop
  endfacet
  facet normal 0 0 1
    outer loop
      vertex -4.635254915624211 14.265847744427303 3
      vertex -3.3489174686187297 5.277049534387594 3
      vertex -2.6611205722817046 5.655169077912622 3
    endloop
  endfacet
  facet normal 0 0 1
    outer loop
      vertex -2.810719718785869 14.73430876093033 3
      vertex -2.6611205722817046 5.655169077912622 3
      vertex -1.9313562148434211 5.944103226844709 3
    endloop
  endfacet
  facet normal 0 0 1
    outer loop
      vertex -2.810719718785869 14.73430876093033 3
      vertex -1.9313562148434211 5.944103226844709 3
      vertex -1.1711332161607786 6.139295317054304 3
    endloop
  endfacet
  facet normal 0 0 1
    outer loop
      vertex -2.810719718785869 14.73430876093033 3
      vertex -1.1711332161607786 6.139295317054304 3
      vertex -0.39244074705820586 6.237667052676697 3
    endloop
  endfacet
  facet normal 0 0 1
    outer loop
      vertex -4.635254915624211 14.265847744427303 3
      vertex -2.6611205722817046 5.655169077912622 3
      vertex -2.810719718785869 14.73430876093033 3
    endloop
  endfacet
  facet normal 0 0 1
    outer loop
      vertex -2.810719718785869 14.73430876093033 3
      vertex -0.39244074705820586 6.237667052676697 3
      vertex -0.9418577929396992 14.970400926424073 3
    endloop
  endfacet
  facet normal 0 0 1
    outer loop
      vertex -0.9418577929396992 14.970400926424073 3
      vertex -0.39244074705820586 6.237667052676697 3
      vertex 0.9418577929396992 14.970400926424073 3
    endloop
  endfacet
  facet normal 0 0 -1
    outer loop
      vertex -0.9418577929397064 -14.970400926424073 -4.5
      vertex 2.957125000655651 -5.1218907460570335 -4.5
      vertex 0.9418577929397064 -14.970400926424073 -4.5
    endloop
  endfacet
  facet normal 0 0 -1
    outer loop
      vertex 0.9418577929397064 -14.970400926424073 -4.5
      vertex 2.957125000655651 -5.1218907460570335 -4.5
      vertex 2.8107197187858723 -14.734308760930329 -4.5
    endloop
  endfacet
  facet normal 0 0 -1
    outer loop
      vertex 2.8107197187858723 -14.734308760930329 -4.5
      vertex 5.914250001311302 0 -4.5
      vertex 4.635254915624211 -14.265847744427303 -4.5
    endloop
  endfacet
  facet normal 0 0 -1
    outer loop
      vertex 4.635254915624211 -14.265847744427303 -4.5
      vertex 5.914250001311302 0 -4.5
      vertex 6.386689373476086 -13.572405786990293 -4.5
    endloop
  endfacet
  facet normal 0 -1 0
    outer loop
      vertex -0.9418577929397064 -14.970400926424073 -4.5
      vertex 0.9418577929397064 -14.970400926424073 -4.5
      vertex 0.9418577929397064 -14.970400926424073 3
    endloop
  endfacet
  facet normal 0.12533323356430498 -0.9921147013144778 0
    outer loop
      vertex 0.9418577929397064 -14.970400926424073 -4.5
      vertex 2.8107197187858723 -14.734308760930329 -4.5
      vertex 2.8107197187858723 -14.734308760930329 3
    endloop
  endfacet
  facet normal 0.24868988716485496 -0.9685831611286311 0
    outer loop
      vertex 2.8107197187858723 -14.734308760930329 -4.5
      vertex 4.635254915624211 -14.265847744427303 -4.5
      vertex 4.635254915624211 -14.265847744427303 3
    endloop
  endfacet
  facet normal 0.3681245526846781 -0.9297764858882513 0
    outer loop
      vertex 4.635254915624211 -14.265847744427303 -4.5
      vertex 6.386689373476086 -13.572405786990293 -4.5
      vertex 6.386689373476086 -13.572405786990293 3
    endloop
  endfacet
  facet normal 0.48175367410171427 -0.876306680043864 0
    outer loop
      vertex 6.386689373476086 -13.572405786990293 -4.5
      vertex 8.037401924684943 -12.66491888253023 -4.5
      vertex 8.037401924684943 -12.66491888253023 3
    endloop
  endfacet
  facet normal 0 0 -1
    outer loop
      vertex 2.8107197187858723 -14.734308760930329 -4.5
      vertex 2.957125000655651 -5.1218907460570335 -4.5
      vertex 5.914250001311302 0 -4.5
    endloop
  endfacet
  facet normal 0 0 -1
    outer loop
      vertex 6.386689373476086 -13.572405786990293 -4.5
      vertex 8.03740192468495 12.664918882530227 -4.5
      vertex 8.037401924684943 -12.66491888253023 -4.5
    endloop
  endfacet
  facet normal 0.5877852522924728 -0.8090169943749477 0
    outer loop
      vertex 8.037401924684943 -12.66491888253023 -4.5
      vertex 9.56135984623035 -11.557698641636836 -4.5
      vertex 9.56135984623035 -11.557698641636836 3
    endloop
  endfacet
  facet normal 0.6845471059286891 -0.7289686274214113 0
    outer loop
      vertex 9.56135984623035 -11.557698641636836 -4.5
      vertex 10.934529411321176 -10.268206588930328 -4.5
      vertex 10.934529411321176 -10.268206588930328 3
    endloop
  endfacet
  facet normal 0.7705132427757891 -0.6374239897486897 0
    outer loop
      vertex 10.934529411321176 -10.268206588930328 -4.5
      vertex 12.135254915624213 -8.816778784387097 -4.5
      vertex 10.934529411321176 -10.268206588930328 3
    endloop
  endfacet
  facet normal 0.8443279255020157 -0.5358267949789955 0
    outer loop
      vertex 12.135254915624213 -8.816778784387097 -4.5
      vertex 13.144600200657951 -7.226305111525731 -4.5
      vertex 12.135254915624213 -8.816778784387097 3
    endloop
  endfacet
  facet normal 0 0 -1
    outer loop
      vertex 8.037401924684943 -12.66491888253023 -4.5
      vertex 9.561359846230346 11.557698641636836 -4.5
      vertex 9.56135984623035 -11.557698641636836 -4.5
    endloop
  endfacet
  facet normal 0 0 -1
    outer loop
      vertex 9.56135984623035 -11.557698641636836 -4.5
      vertex 10.934529411321174 10.268206588930331 -4.5
      vertex 10.934529411321176 -10.268206588930328 -4.5
    endloop
  endfacet
  facet normal 0 0 -1
    outer loop
      vertex 10.934529411321176 -10.268206588930328 -4.5
      vertex 12.135254915624213 8.816778784387097 -4.5
      vertex 12.135254915624213 -8.816778784387097 -4.5
    endloop
  endfacet
  facet normal 0 0 -1
    outer loop
      vertex 12.135254915624213 -8.816778784387097 -4.5
      vertex 13.144600200657953 7.22630511152573 -4.5
      vertex 13.144600200657951 -7.226305111525731 -4.5
    endloop
  endfacet
  facet normal 0 0 -1
    outer loop
      vertex 13.144600200657951 -7.226305111525731 -4.5
      vertex 13.94664728832377 5.521868290270169 -4.5
      vertex 13.946647288323769 -5.5218682902701755 -4.5
    endloop
  endfacet
  facet normal 0 0 -1
    outer loop
      vertex 13.946647288323769 -5.5218682902701755 -4.5
      vertex 14.528747416929466 3.730348307472822 -4.5
      vertex 14.528747416929468 -3.7303483074728163 -4.5
    endloop
  endfacet
  facet normal 0 0 -1
    outer loop
      vertex 14.528747416929468 -3.7303483074728163 -4.5
      vertex 14.881720519717168 1.8799985034645639 -4.5
      vertex 14.881720519717168 -1.879998503464561 -4.5
    endloop
  endfacet
  facet normal 0.904827052466019 -0.4257792915650737 0
    outer loop
      vertex 13.144600200657951 -7.226305111525731 -4.5
      vertex 13.946647288323769 -5.5218682902701755 -4.5
      vertex 13.144600200657951 -7.226305111525731 3
    endloop
  endfacet
  facet normal 0.9510565162951536 -0.30901699437494723 0
    outer loop
      vertex 13.946647288323769 -5.5218682902701755 -4.5
      vertex 14.528747416929468 -3.7303483074728163 -4.5
      vertex 13.946647288323769 -5.5218682902701755 3
    endloop
  endfacet
  facet normal 0.9822872507286886 -0.18738131458572485 0
    outer loop
      vertex 14.528747416929468 -3.7303483074728163 -4.5
      vertex 14.881720519717168 -1.879998503464561 -4.5
      vertex 14.528747416929468 -3.7303483074728163 3
    endloop
  endfacet
  facet normal 0.9980267284282716 -0.06279051952931293 0
    outer loop
      vertex 14.881720519717168 -1.879998503464561 -4.5
      vertex 15 0 -4.5
      vertex 14.881720519717168 -1.879998503464561 3
    endloop
  endfacet
  facet normal 0.12533323356430498 -0.9921147013144778 0
    outer loop
      vertex 0.9418577929397064 -14.970400926424073 -4.5
      vertex 2.8107197187858723 -14.734308760930329 3
      vertex 0.9418577929397064 -14.970400926424073 3
    endloop
  endfacet
  facet normal 0.24868988716485496 -0.9685831611286311 0
    outer loop
      vertex 2.8107197187858723 -14.734308760930329 -4.5
      vertex 4.635254915624211 -14.265847744427303 3
      vertex 2.8107197187858723 -14.734308760930329 3
    endloop
  endfacet
  facet normal 0.3681245526846781 -0.9297764858882513 0
    outer loop
      vertex 4.635254915624211 -14.265847744427303 -4.5
      vertex 6.386689373476086 -13.572405786990293 3
      vertex 4.635254915624211 -14.265847744427303 3
    endloop
  endfacet
  facet normal 0.48175367410171427 -0.876306680043864 0
    outer loop
      vertex 6.386689373476086 -13.572405786990293 -4.5
      vertex 8.037401924684943 -12.66491888253023 3
      vertex 6.386689373476086 -13.572405786990293 3
    endloop
  endfacet
  facet normal 0 0 1
    outer loop
      vertex -0.9418577929397064 -14.970400926424073 3
      vertex 0.9418577929397064 -14.970400926424073 3
      vertex 0.392440747058211 -6.237667052676697 3
    endloop
  endfacet
  facet normal 0 0 1
    outer loop
      vertex 0.9418577929397064 -14.970400926424073 3
      vertex 2.8107197187858723 -14.734308760930329 3
      vertex 0.392440747058211 -6.237667052676697 3
    endloop
  endfacet
  facet normal 0 0 1
    outer loop
      vertex 2.8107197187858723 -14.734308760930329 3
      vertex 4.635254915624211 -14.265847744427303 3
      vertex 2.661120572281703 -5.655169077912622 3
    endloop
  endfacet
  facet normal 0 0 1
    outer loop
      vertex 2.8107197187858723 -14.734308760930329 3
      vertex 1.1711332161607801 -6.139295317054303 3
      vertex 0.392440747058211 -6.237667052676697 3
    endloop
  endfacet
  facet normal 0 0 1
    outer loop
      vertex 2.8107197187858723 -14.734308760930329 3
      vertex 1.9313562148434211 -5.944103226844709 3
      vertex 1.1711332161607801 -6.139295317054303 3
    endloop
  endfacet
  facet normal 0 0 1
    outer loop
      vertex 2.8107197187858723 -14.734308760930329 3
      vertex 2.661120572281703 -5.655169077912622 3
      vertex 1.9313562148434211 -5.944103226844709 3
    endloop
  endfacet
  facet normal 0 0 1
    outer loop
      vertex 4.635254915624211 -14.265847744427303 3
      vertex 3.348917468618726 -5.277049534387595 3
      vertex 2.661120572281703 -5.655169077912622 3
    endloop
  endfacet
  facet normal 0 0 1
    outer loop
      vertex 4.635254915624211 -14.265847744427303 3
      vertex 6.386689373476086 -13.572405786990293 3
      vertex 4.556053921383823 -4.278419412054303 3
    endloop
  endfacet
  facet normal 0 0 1
    outer loop
      vertex 4.635254915624211 -14.265847744427303 3
      vertex 3.9838999359293124 -4.815707767348681 3
      vertex 3.348917468618726 -5.277049534387595 3
    endloop
  endfacet
  facet normal 0 0 1
    outer loop
      vertex 4.635254915624211 -14.265847744427303 3
      vertex 4.556053921383823 -4.278419412054303 3
      vertex 3.9838999359293124 -4.815707767348681 3
    endloop
  endfacet
  facet normal 0 0 1
    outer loop
      vertex 6.386689373476086 -13.572405786990293 3
      vertex 5.056356214843421 -3.673657826827957 3
      vertex 4.556053921383823 -4.278419412054303 3
    endloop
  endfacet
  facet normal 0 0 1
    outer loop
      vertex 6.386689373476086 -13.572405786990293 3
      vertex 5.476916750274147 -3.010960463135721 3
      vertex 5.056356214843421 -3.673657826827957 3
    endloop
  endfacet
  facet normal 0 0 1
    outer loop
      vertex 6.386689373476086 -13.572405786990293 3
      vertex 5.81110303680157 -2.3007784542792398 3
      vertex 5.476916750274147 -3.010960463135721 3
    endloop
  endfacet
  facet normal 0 0 1
    outer loop
      vertex 6.386689373476086 -13.572405786990293 3
      vertex 6.053644757053945 -1.5543117947803402 3
      vertex 5.81110303680157 -2.3007784542792398 3
    endloop
  endfacet
  facet normal 0 0 1
    outer loop
      vertex 6.386689373476086 -13.572405786990293 3
      vertex 6.200716883215486 -0.7833327097769004 3
      vertex 6.053644757053945 -1.5543117947803402 3
    endloop
  endfacet
  facet normal 0 0 1
    outer loop
      vertex 6.386689373476086 -13.572405786990293 3
      vertex 6.25 0 3
      vertex 6.200716883215486 -0.7833327097769004 3
    endloop
  endfacet
  facet normal 0 0 1
    outer loop
      vertex 6.386689373476086 -13.572405786990293 3
      vertex 8.037401924684943 -12.66491888253023 3
      vertex 6.386689373476091 13.572405786990291 3
    endloop
  endfacet
  facet normal 0.5877852522924728 -0.8090169943749477 0
    outer loop
      vertex 8.037401924684943 -12.66491888253023 -4.5
      vertex 9.56135984623035 -11.557698641636836 3
      vertex 8.037401924684943 -12.66491888253023 3
    endloop
  endfacet
  facet normal 0.6845471059286891 -0.7289686274214113 0
    outer loop
      vertex 9.56135984623035 -11.557698641636836 -4.5
      vertex 10.934529411321176 -10.268206588930328 3
      vertex 9.56135984623035 -11.557698641636836 3
    endloop
  endfacet
  facet normal 0.7705132427757891 -0.6374239897486897 0
    outer loop
      vertex 12.135254915624213 -8.816778784387097 -4.5
      vertex 12.135254915624213 -8.816778784387097 3
      vertex 10.934529411321176 -10.268206588930328 3
    endloop
  endfacet
  facet normal 0.8443279255020157 -0.5358267949789955 0
    outer loop
      vertex 13.144600200657951 -7.226305111525731 -4.5
      vertex 13.144600200657951 -7.226305111525731 3
      vertex 12.135254915624213 -8.816778784387097 3
    endloop
  endfacet
  facet normal 0.904827052466019 -0.4257792915650737 0
    outer loop
      vertex 13.946647288323769 -5.5218682902701755 -4.5
      vertex 13.946647288323769 -5.5218682902701755 3
      vertex 13.144600200657951 -7.226305111525731 3
    endloop
  endfacet
  facet normal 0.9510565162951536 -0.30901699437494723 0
    outer loop
      vertex 14.528747416929468 -3.7303483074728163 -4.5
      vertex 14.528747416929468 -3.7303483074728163 3
      vertex 13.946647288323769 -5.5218682902701755 3
    endloop
  endfacet
  facet normal 0.9822872507286886 -0.18738131458572485 0
    outer loop
      vertex 14.881720519717168 -1.879998503464561 -4.5
      vertex 14.881720519717168 -1.879998503464561 3
      vertex 14.528747416929468 -3.7303483074728163 3
    endloop
  endfacet
  facet normal 0.9980267284282716 -0.06279051952931293 0
    outer loop
      vertex 14.881720519717168 -1.879998503464561 3
      vertex 15 0 -4.5
      vertex 15 0 3
    endloop
  endfacet
  facet normal 0 0 1
    outer loop
      vertex 8.037401924684943 -12.66491888253023 3
      vertex 9.56135984623035 -11.557698641636836 3
      vertex 8.03740192468495 12.664918882530227 3
    endloop
  endfacet
  facet normal 0 0 1
    outer loop
      vertex 9.56135984623035 -11.557698641636836 3
      vertex 10.934529411321176 -10.268206588930328 3
      vertex 9.561359846230346 11.557698641636836 3
    endloop
  endfacet
  facet normal 0 0 1
    outer loop
      vertex 10.934529411321176 -10.268206588930328 3
      vertex 12.135254915624213 -8.816778784387097 3
      vertex 10.934529411321174 10.268206588930331 3
    endloop
  endfacet
  facet normal 0 0 1
    outer loop
      vertex 12.135254915624213 -8.816778784387097 3
      vertex 13.144600200657951 -7.226305111525731 3
      vertex 12.135254915624213 8.816778784387097 3
    endloop
  endfacet
  facet normal 0 0 1
    outer loop
      vertex 13.144600200657951 -7.226305111525731 3
      vertex 13.946647288323769 -5.5218682902701755 3
      vertex 13.144600200657953 7.22630511152573 3
    endloop
  endfacet
  facet normal 0 0 1
    outer loop
      vertex 13.946647288323769 -5.5218682902701755 3
      vertex 14.528747416929468 -3.7303483074728163 3
      vertex 13.94664728832377 5.521868290270169 3
    endloop
  endfacet
  facet normal 0 0 1
    outer loop
      vertex 14.528747416929468 -3.7303483074728163 3
      vertex 14.881720519717168 -1.879998503464561 3
      vertex 14.528747416929466 3.730348307472822 3
    endloop
  endfacet
  facet normal 0 0 -1
    outer loop
      vertex 6.386689373476086 -13.572405786990293 -4.5
      vertex 5.914250001311302 0 -4.5
      vertex 6.386689373476091 13.572405786990291 -4.5
    endloop
  endfacet
  facet normal 0 0 -1
    outer loop
      vertex 6.386689373476091 13.572405786990291 -4.5
      vertex 5.914250001311302 0 -4.5
      vertex 2.957125000655651 5.1218907460570335 -4.5
    endloop
  endfacet
  facet normal 0 0 -1
    outer loop
      vertex 6.386689373476086 -13.572405786990293 -4.5
      vertex 6.386689373476091 13.572405786990291 -4.5
      vertex 8.03740192468495 12.664918882530227 -4.5
    endloop
  endfacet
  facet normal 0 0 -1
    outer loop
      vertex 4.635254915624211 14.265847744427303 -4.5
      vertex 2.957125000655651 5.1218907460570335 -4.5
      vertex -2.957125000655651 5.1218907460570335 -4.5
    endloop
  endfacet
  facet normal 0 0 -1
    outer loop
      vertex 0.9418577929396992 14.970400926424073 -4.5
      vertex 2.810719718785869 14.73430876093033 -4.5
      vertex -2.957125000655651 5.1218907460570335 -4.5
    endloop
  endfacet
  facet normal 0 0 -1
    outer loop
      vertex 2.810719718785869 14.73430876093033 -4.5
      vertex 4.635254915624211 14.265847744427303 -4.5
      vertex -2.957125000655651 5.1218907460570335 -4.5
    endloop
  endfacet
  facet normal 0 0 -1
    outer loop
      vertex 4.635254915624211 14.265847744427303 -4.5
      vertex 6.386689373476091 13.572405786990291 -4.5
      vertex 2.957125000655651 5.1218907460570335 -4.5
    endloop
  endfacet
  facet normal 0.1253332335643038 0.9921147013144779 0
    outer loop
      vertex 0.9418577929396992 14.970400926424073 -4.5
      vertex 0.9418577929396992 14.970400926424073 3
      vertex 2.810719718785869 14.73430876093033 -4.5
    endloop
  endfacet
  facet normal 0.24868988716485538 0.9685831611286311 0
    outer loop
      vertex 2.810719718785869 14.73430876093033 -4.5
      vertex 2.810719718785869 14.73430876093033 3
      vertex 4.635254915624211 14.265847744427303 -4.5
    endloop
  endfacet
  facet normal 0.36812455268467803 0.9297764858882513 0
    outer loop
      vertex 4.635254915624211 14.265847744427303 -4.5
      vertex 4.635254915624211 14.265847744427303 3
      vertex 6.386689373476091 13.572405786990291 -4.5
    endloop
  endfacet
  facet normal 0.4817536741017144 0.876306680043864 0
    outer loop
      vertex 6.386689373476091 13.572405786990291 -4.5
      vertex 6.386689373476091 13.572405786990291 3
      vertex 8.03740192468495 12.664918882530227 -4.5
    endloop
  endfacet
  facet normal 0 0 -1
    outer loop
      vertex 9.56135984623035 -11.557698641636836 -4.5
      vertex 9.561359846230346 11.557698641636836 -4.5
      vertex 10.934529411321174 10.268206588930331 -4.5
    endloop
  endfacet
  facet normal 0 0 -1
    outer loop
      vertex 8.037401924684943 -12.66491888253023 -4.5
      vertex 8.03740192468495 12.664918882530227 -4.5
      vertex 9.561359846230346 11.557698641636836 -4.5
    endloop
  endfacet
  facet normal 0 0 -1
    outer loop
      vertex 10.934529411321176 -10.268206588930328 -4.5
      vertex 10.934529411321174 10.268206588930331 -4.5
      vertex 12.135254915624213 8.816778784387097 -4.5
    endloop
  endfacet
  facet normal 0 0 -1
    outer loop
      vertex 12.135254915624213 -8.816778784387097 -4.5
      vertex 12.135254915624213 8.816778784387097 -4.5
      vertex 13.144600200657953 7.22630511152573 -4.5
    endloop
  endfacet
  facet normal 0 0 -1
    outer loop
      vertex 13.144600200657951 -7.226305111525731 -4.5
      vertex 13.144600200657953 7.22630511152573 -4.5
      vertex 13.94664728832377 5.521868290270169 -4.5
    endloop
  endfacet
  facet normal 0 0 -1
    outer loop
      vertex 14.881720519717168 -1.879998503464561 -4.5
      vertex 14.881720519717168 1.8799985034645639 -4.5
      vertex 15 0 -4.5
    endloop
  endfacet
  facet normal 0 0 -1
    outer loop
      vertex 14.528747416929468 -3.7303483074728163 -4.5
      vertex 14.528747416929466 3.730348307472822 -4.5
      vertex 14.881720519717168 1.8799985034645639 -4.5
    endloop
  endfacet
  facet normal 0 0 -1
    outer loop
      vertex 13.946647288323769 -5.5218682902701755 -4.5
      vertex 13.94664728832377 5.521868290270169 -4.5
      vertex 14.528747416929466 3.730348307472822 -4.5
    endloop
  endfacet
  facet normal 0.9980267284282716 0.06279051952931283 0
    outer loop
      vertex 15 0 -4.5
      vertex 14.881720519717168 1.8799985034645639 -4.5
      vertex 15 0 3
    endloop
  endfacet
  facet normal 0.9822872507286885 0.18738131458572546 0
    outer loop
      vertex 14.881720519717168 1.8799985034645639 -4.5
      vertex 14.528747416929466 3.730348307472822 -4.5
      vertex 14.881720519717168 1.8799985034645639 3
    endloop
  endfacet
  facet normal 0.9510565162951536 0.3090169943749474 0
    outer loop
      vertex 14.528747416929466 3.730348307472822 -4.5
      vertex 13.94664728832377 5.521868290270169 -4.5
      vertex 14.528747416929466 3.730348307472822 3
    endloop
  endfacet
  facet normal 0.9048270524660196 0.42577929156507266 0
    outer loop
      vertex 13.94664728832377 5.521868290270169 -4.5
      vertex 13.144600200657953 7.22630511152573 -4.5
      vertex 13.94664728832377 5.521868290270169 3
    endloop
  endfacet
  facet normal 0.6845471059286874 0.7289686274214127 0
    outer loop
      vertex 10.934529411321174 10.268206588930331 -4.5
      vertex 9.561359846230346 11.557698641636836 -4.5
      vertex 9.561359846230346 11.557698641636836 3
    endloop
  endfacet
  facet normal 0.5877852522924742 0.8090169943749466 0
    outer loop
      vertex 8.03740192468495 12.664918882530227 -4.5
      vertex 8.03740192468495 12.664918882530227 3
      vertex 9.561359846230346 11.557698641636836 -4.5
    endloop
  endfacet
  facet normal 0.7705132427757894 0.6374239897486895 0
    outer loop
      vertex 10.934529411321174 10.268206588930331 -4.5
      vertex 12.135254915624213 8.816778784387097 3
      vertex 12.135254915624213 8.816778784387097 -4.5
    endloop
  endfacet
  facet normal 0.8443279255020154 0.535826794978996 0
    outer loop
      vertex 13.144600200657953 7.22630511152573 -4.5
      vertex 12.135254915624213 8.816778784387097 -4.5
      vertex 13.144600200657953 7.22630511152573 3
    endloop
  endfacet
  facet normal 0 0 1
    outer loop
      vertex 6.386689373476086 -13.572405786990293 3
      vertex 6.386689373476091 13.572405786990291 3
      vertex 6.25 0 3
    endloop
  endfacet
  facet normal 0 0 1
    outer loop
      vertex 4.635254915624211 14.265847744427303 3
      vertex 5.056356214843421 3.673657826827957 3
      vertex 5.476916750274148 3.0109604631357207 3
    endloop
  endfacet
  facet normal 0 0 1
    outer loop
      vertex 4.635254915624211 14.265847744427303 3
      vertex 4.556053921383822 4.278419412054305 3
      vertex 5.056356214843421 3.673657826827957 3
    endloop
  endfacet
  facet normal 0 0 1
    outer loop
      vertex 6.386689373476091 13.572405786990291 3
      vertex 6.200716883215486 0.7833327097769016 3
      vertex 6.25 0 3
    endloop
  endfacet
  facet normal 0 0 1
    outer loop
      vertex 6.386689373476091 13.572405786990291 3
      vertex 6.053644757053944 1.5543117947803424 3
      vertex 6.200716883215486 0.7833327097769016 3
    endloop
  endfacet
  facet normal 0 0 1
    outer loop
      vertex 8.037401924684943 -12.66491888253023 3
      vertex 8.03740192468495 12.664918882530227 3
      vertex 6.386689373476091 13.572405786990291 3
    endloop
  endfacet
  facet normal 0 0 1
    outer loop
      vertex 6.386689373476091 13.572405786990291 3
      vertex 5.811103036801571 2.3007784542792376 3
      vertex 6.053644757053944 1.5543117947803424 3
    endloop
  endfacet
  facet normal 0 0 1
    outer loop
      vertex 6.386689373476091 13.572405786990291 3
      vertex 5.476916750274148 3.0109604631357207 3
      vertex 5.811103036801571 2.3007784542792376 3
    endloop
  endfacet
  facet normal 0 1 0
    outer loop
      vertex -0.9418577929396992 14.970400926424073 3
      vertex 0.9418577929396992 14.970400926424073 3
      vertex 0.9418577929396992 14.970400926424073 -4.5
    endloop
  endfacet
  facet normal 0.1253332335643038 0.9921147013144779 0
    outer loop
      vertex 2.810719718785869 14.73430876093033 -4.5
      vertex 0.9418577929396992 14.970400926424073 3
      vertex 2.810719718785869 14.73430876093033 3
    endloop
  endfacet
  facet normal 0.24868988716485538 0.9685831611286311 0
    outer loop
      vertex 4.635254915624211 14.265847744427303 -4.5
      vertex 2.810719718785869 14.73430876093033 3
      vertex 4.635254915624211 14.265847744427303 3
    endloop
  endfacet
  facet normal 0.4817536741017144 0.876306680043864 0
    outer loop
      vertex 8.03740192468495 12.664918882530227 -4.5
      vertex 6.386689373476091 13.572405786990291 3
      vertex 8.03740192468495 12.664918882530227 3
    endloop
  endfacet
  facet normal 0.36812455268467803 0.9297764858882513 0
    outer loop
      vertex 6.386689373476091 13.572405786990291 -4.5
      vertex 4.635254915624211 14.265847744427303 3
      vertex 6.386689373476091 13.572405786990291 3
    endloop
  endfacet
  facet normal 0 0 1
    outer loop
      vertex 0.9418577929396992 14.970400926424073 3
      vertex -0.39244074705820586 6.237667052676697 3
      vertex 0.392440747058208 6.237667052676697 3
    endloop
  endfacet
  facet normal 0 0 1
    outer loop
      vertex 0.9418577929396992 14.970400926424073 3
      vertex 0.392440747058208 6.237667052676697 3
      vertex 1.1711332161607786 6.139295317054304 3
    endloop
  endfacet
  facet normal 0 0 1
    outer loop
      vertex 0.9418577929396992 14.970400926424073 3
      vertex 1.1711332161607786 6.139295317054304 3
      vertex 1.9313562148434211 5.944103226844709 3
    endloop
  endfacet
  facet normal 0 0 1
    outer loop
      vertex 2.810719718785869 14.73430876093033 3
      vertex 1.9313562148434211 5.944103226844709 3
      vertex 2.6611205722817046 5.655169077912622 3
    endloop
  endfacet
  facet normal 0 0 1
    outer loop
      vertex 2.810719718785869 14.73430876093033 3
      vertex 3.3489174686187293 5.2770495343875945 3
      vertex 3.983899935929311 4.815707767348682 3
    endloop
  endfacet
  facet normal 0 0 1
    outer loop
      vertex 2.810719718785869 14.73430876093033 3
      vertex 2.6611205722817046 5.655169077912622 3
      vertex 3.3489174686187293 5.2770495343875945 3
    endloop
  endfacet
  facet normal 0 0 1
    outer loop
      vertex 0.9418577929396992 14.970400926424073 3
      vertex 1.9313562148434211 5.944103226844709 3
      vertex 2.810719718785869 14.73430876093033 3
    endloop
  endfacet
  facet normal 0 0 1
    outer loop
      vertex 4.635254915624211 14.265847744427303 3
      vertex 3.983899935929311 4.815707767348682 3
      vertex 4.556053921383822 4.278419412054305 3
    endloop
  endfacet
  facet normal 0 0 1
    outer loop
      vertex 4.635254915624211 14.265847744427303 3
      vertex 5.476916750274148 3.0109604631357207 3
      vertex 6.386689373476091 13.572405786990291 3
    endloop
  endfacet
  facet normal 0 0 1
    outer loop
      vertex 2.810719718785869 14.73430876093033 3
      vertex 3.983899935929311 4.815707767348682 3
      vertex 4.635254915624211 14.265847744427303 3
    endloop
  endfacet
  facet normal 0.9980267284282716 0.06279051952931283 0
    outer loop
      vertex 14.881720519717168 1.8799985034645639 -4.5
      vertex 14.881720519717168 1.8799985034645639 3
      vertex 15 0 3
    endloop
  endfacet
  facet normal 0.9822872507286885 0.18738131458572546 0
    outer loop
      vertex 14.528747416929466 3.730348307472822 -4.5
      vertex 14.528747416929466 3.730348307472822 3
      vertex 14.881720519717168 1.8799985034645639 3
    endloop
  endfacet
  facet normal 0.9510565162951536 0.3090169943749474 0
    outer loop
      vertex 13.94664728832377 5.521868290270169 -4.5
      vertex 13.94664728832377 5.521868290270169 3
      vertex 14.528747416929466 3.730348307472822 3
    endloop
  endfacet
  facet normal 0.9048270524660196 0.42577929156507266 0
    outer loop
      vertex 13.144600200657953 7.22630511152573 -4.5
      vertex 13.144600200657953 7.22630511152573 3
      vertex 13.94664728832377 5.521868290270169 3
    endloop
  endfacet
  facet normal 0 0 1
    outer loop
      vertex 9.56135984623035 -11.557698641636836 3
      vertex 9.561359846230346 11.557698641636836 3
      vertex 8.03740192468495 12.664918882530227 3
    endloop
  endfacet
  facet normal 0 0 1
    outer loop
      vertex 10.934529411321176 -10.268206588930328 3
      vertex 10.934529411321174 10.268206588930331 3
      vertex 9.561359846230346 11.557698641636836 3
    endloop
  endfacet
  facet normal 0 0 1
    outer loop
      vertex 12.135254915624213 -8.816778784387097 3
      vertex 12.135254915624213 8.816778784387097 3
      vertex 10.934529411321174 10.268206588930331 3
    endloop
  endfacet
  facet normal 0 0 1
    outer loop
      vertex 13.144600200657951 -7.226305111525731 3
      vertex 13.144600200657953 7.22630511152573 3
      vertex 12.135254915624213 8.816778784387097 3
    endloop
  endfacet
  facet normal 0 0 1
    outer loop
      vertex 14.881720519717168 -1.879998503464561 3
      vertex 15 0 3
      vertex 14.881720519717168 1.8799985034645639 3
    endloop
  endfacet
  facet normal 0 0 1
    outer loop
      vertex 14.528747416929468 -3.7303483074728163 3
      vertex 14.528747416929466 3.730348307472822 3
      vertex 13.94664728832377 5.521868290270169 3
    endloop
  endfacet
  facet normal 0 0 1
    outer loop
      vertex 14.881720519717168 -1.879998503464561 3
      vertex 14.881720519717168 1.8799985034645639 3
      vertex 14.528747416929466 3.730348307472822 3
    endloop
  endfacet
  facet normal 0 0 1
    outer loop
      vertex 13.946647288323769 -5.5218682902701755 3
      vertex 13.94664728832377 5.521868290270169 3
      vertex 13.144600200657953 7.22630511152573 3
    endloop
  endfacet
  facet normal 0.6845471059286874 0.7289686274214127 0
    outer loop
      vertex 10.934529411321174 10.268206588930331 -4.5
      vertex 9.561359846230346 11.557698641636836 3
      vertex 10.934529411321174 10.268206588930331 3
    endloop
  endfacet
  facet normal 0.5877852522924742 0.8090169943749466 0
    outer loop
      vertex 9.561359846230346 11.557698641636836 -4.5
      vertex 8.03740192468495 12.664918882530227 3
      vertex 9.561359846230346 11.557698641636836 3
    endloop
  endfacet
  facet normal 0.8443279255020154 0.535826794978996 0
    outer loop
      vertex 12.135254915624213 8.816778784387097 -4.5
      vertex 12.135254915624213 8.816778784387097 3
      vertex 13.144600200657953 7.22630511152573 3
    endloop
  endfacet
  facet normal 0.7705132427757894 0.6374239897486895 0
    outer loop
      vertex 10.934529411321174 10.268206588930331 -4.5
      vertex 10.934529411321174 10.268206588930331 3
      vertex 12.135254915624213 8.816778784387097 3
    endloop
  endfacet
  facet normal 0.8660254038093487 0.49999999995685457 0
    outer loop
      vertex -5.914250001311302 0 0
      vertex -2.957125000655651 -5.1218907460570335 -4.5
      vertex -5.914250001311302 0 -4.5
    endloop
  endfacet
  facet normal 0 1 0
    outer loop
      vertex -2.957125000655651 -5.1218907460570335 0
      vertex 2.957125000655651 -5.1218907460570335 -4.5
      vertex -2.957125000655651 -5.1218907460570335 -4.5
    endloop
  endfacet
  facet normal 0.8660254038093487 0.49999999995685457 0
    outer loop
      vertex -2.957125000655651 -5.1218907460570335 0
      vertex -2.957125000655651 -5.1218907460570335 -4.5
      vertex -5.914250001311302 0 0
    endloop
  endfacet
  facet normal 0.8660254038093487 -0.49999999995685457 0
    outer loop
      vertex -2.957125000655651 5.1218907460570335 0
      vertex -5.914250001311302 0 -4.5
      vertex -2.957125000655651 5.1218907460570335 -4.5
    endloop
  endfacet
  facet normal 0.8660254038093487 -0.49999999995685457 0
    outer loop
      vertex -5.914250001311302 0 0
      vertex -5.914250001311302 0 -4.5
      vertex -2.957125000655651 5.1218907460570335 0
    endloop
  endfacet
  facet normal 0 -1 0
    outer loop
      vertex -2.957125000655651 5.1218907460570335 0
      vertex -2.957125000655651 5.1218907460570335 -4.5
      vertex 2.957125000655651 5.1218907460570335 0
    endloop
  endfacet
  facet normal -0.8660254038093487 0.49999999995685457 0
    outer loop
      vertex 2.957125000655651 -5.1218907460570335 0
      vertex 5.914250001311302 0 -4.5
      vertex 2.957125000655651 -5.1218907460570335 -4.5
    endloop
  endfacet
  facet normal 0 1 0
    outer loop
      vertex -2.957125000655651 -5.1218907460570335 0
      vertex 2.957125000655651 -5.1218907460570335 0
      vertex 2.957125000655651 -5.1218907460570335 -4.5
    endloop
  endfacet
  facet normal -0.8660254038093487 0.49999999995685457 0
    outer loop
      vertex 2.957125000655651 -5.1218907460570335 0
      vertex 5.914250001311302 0 0
      vertex 5.914250001311302 0 -4.5
    endloop
  endfacet
  facet normal 0 -1 0
    outer loop
      vertex 2.957125000655651 5.1218907460570335 0
      vertex -2.957125000655651 5.1218907460570335 -4.5
      vertex 2.957125000655651 5.1218907460570335 -4.5
    endloop
  endfacet
  facet normal -0.8660254038093487 -0.49999999995685457 0
    outer loop
      vertex 5.914250001311302 0 0
      vertex 2.957125000655651 5.1218907460570335 -4.5
      vertex 5.914250001311302 0 -4.5
    endloop
  endfacet
  facet normal -0.8660254038093487 -0.49999999995685457 0
    outer loop
      vertex 2.957125000655651 5.1218907460570335 0
      vertex 2.957125000655651 5.1218907460570335 -4.5
      vertex 5.914250001311302 0 0
    endloop
  endfacet
  facet normal 0 0 1
    outer loop
      vertex -3.98389993592931 -4.815707767348684 0
      vertex -2.957125000655651 -5.1218907460570335 0
      vertex -4.556053921383823 -4.278419412054303 0
    endloop
  endfacet
  facet normal 0 0 1
    outer loop
      vertex -5.056356214843421 -3.673657826827957 0
      vertex -2.957125000655651 -5.1218907460570335 0
      vertex -5.476916750274147 -3.010960463135721 0
    endloop
  endfacet
  facet normal 0 0 1
    outer loop
      vertex -5.056356214843421 -3.673657826827957 0
      vertex -4.556053921383823 -4.278419412054303 0
      vertex -2.957125000655651 -5.1218907460570335 0
    endloop
  endfacet
  facet normal 0.7705132427757891 0.6374239897486897 0
    outer loop
      vertex -5.056356214843421 -3.673657826827957 0
      vertex -5.056356214843421 -3.673657826827957 3
      vertex -4.556053921383823 -4.278419412054303 0
    endloop
  endfacet
  facet normal 0.6845471059286893 0.7289686274214109 0
    outer loop
      vertex -3.98389993592931 -4.815707767348684 0
      vertex -4.556053921383823 -4.278419412054303 0
      vertex -3.98389993592931 -4.815707767348684 3
    endloop
  endfacet
  facet normal 0 0 1
    outer loop
      vertex -6.053644757053944 -1.5543117947803429 0
      vertex -6.053644757053944 1.5543117947803429 0
      vertex -6.200716883215486 -0.7833327097769004 0
    endloop
  endfacet
  facet normal 0 0 1
    outer loop
      vertex -5.476916750274147 -3.010960463135721 0
      vertex -2.957125000655651 -5.1218907460570335 0
      vertex -5.811103036801572 -2.3007784542792367 0
    endloop
  endfacet
  facet normal 0 0 1
    outer loop
      vertex -5.811103036801572 -2.3007784542792367 0
      vertex -2.957125000655651 -5.1218907460570335 0
      vertex -6.053644757053944 -1.5543117947803429 0
    endloop
  endfacet
  facet normal 0 0 1
    outer loop
      vertex -6.053644757053944 -1.5543117947803429 0
      vertex -2.957125000655651 -5.1218907460570335 0
      vertex -5.914250001311302 0 0
    endloop
  endfacet
  facet normal 0.9048270524660194 0.42577929156507294 0
    outer loop
      vertex -5.476916750274147 -3.010960463135721 0
      vertex -5.811103036801572 -2.3007784542792367 0
      vertex -5.811103036801572 -2.3007784542792367 3
    endloop
  endfacet
  facet normal 0.9822872507286888 0.1873813145857246 0
    outer loop
      vertex -6.053644757053944 -1.5543117947803429 0
      vertex -6.200716883215486 -0.7833327097769004 0
      vertex -6.200716883215486 -0.7833327097769004 3
    endloop
  endfacet
  facet normal 0.9510565162951538 0.309016994374947 0
    outer loop
      vertex -5.811103036801572 -2.3007784542792367 0
      vertex -6.053644757053944 -1.5543117947803429 0
      vertex -6.053644757053944 -1.5543117947803429 3
    endloop
  endfacet
  facet normal 0.9980267284282716 0.0627905195293135 0
    outer loop
      vertex -6.200716883215486 -0.7833327097769004 0
      vertex -6.25 0 0
      vertex -6.25 0 3
    endloop
  endfacet
  facet normal 0.8443279255020151 0.5358267949789965 0
    outer loop
      vertex -5.056356214843421 -3.673657826827957 0
      vertex -5.476916750274147 -3.010960463135721 0
      vertex -5.476916750274147 -3.010960463135721 3
    endloop
  endfacet
  facet normal 0 0 1
    outer loop
      vertex -3.98389993592931 -4.815707767348684 0
      vertex -3.3489174686187297 -5.277049534387594 0
      vertex -2.957125000655651 -5.1218907460570335 0
    endloop
  endfacet
  facet normal 0 0 1
    outer loop
      vertex -3.3489174686187297 -5.277049534387594 0
      vertex -2.661120572281703 -5.655169077912622 0
      vertex -2.957125000655651 -5.1218907460570335 0
    endloop
  endfacet
  facet normal 0 0 1
    outer loop
      vertex -1.9313562148434211 -5.944103226844709 0
      vertex -1.1711332161607801 -6.139295317054303 0
      vertex 2.957125000655651 -5.1218907460570335 0
    endloop
  endfacet
  facet normal 0 0 1
    outer loop
      vertex -2.661120572281703 -5.655169077912622 0
      vertex 2.957125000655651 -5.1218907460570335 0
      vertex -2.957125000655651 -5.1218907460570335 0
    endloop
  endfacet
  facet normal 0 0 1
    outer loop
      vertex -2.661120572281703 -5.655169077912622 0
      vertex -1.9313562148434211 -5.944103226844709 0
      vertex 2.957125000655651 -5.1218907460570335 0
    endloop
  endfacet
  facet normal 0.368124552684678 0.9297764858882516 0
    outer loop
      vertex -2.661120572281703 -5.655169077912622 0
      vertex -1.9313562148434211 -5.944103226844709 3
      vertex -1.9313562148434211 -5.944103226844709 0
    endloop
  endfacet
  facet normal 0.5877852522924725 0.8090169943749479 0
    outer loop
      vertex -3.98389993592931 -4.815707767348684 0
      vertex -3.3489174686187297 -5.277049534387594 3
      vertex -3.3489174686187297 -5.277049534387594 0
    endloop
  endfacet
  facet normal 0.48175367410171477 0.8763066800438639 0
    outer loop
      vertex -3.3489174686187297 -5.277049534387594 0
      vertex -2.661120572281703 -5.655169077912622 3
      vertex -2.661120572281703 -5.655169077912622 0
    endloop
  endfacet
  facet normal 0.24868988716485482 0.9685831611286312 0
    outer loop
      vertex -1.9313562148434211 -5.944103226844709 0
      vertex -1.1711332161607801 -6.139295317054303 3
      vertex -1.1711332161607801 -6.139295317054303 0
    endloop
  endfacet
  facet normal 0.12533323356430498 0.9921147013144779 0
    outer loop
      vertex -1.1711332161607801 -6.139295317054303 0
      vertex -0.392440747058211 -6.237667052676697 3
      vertex -0.392440747058211 -6.237667052676697 0
    endloop
  endfacet
  facet normal 0.7705132427757891 0.6374239897486897 0
    outer loop
      vertex -4.556053921383823 -4.278419412054303 0
      vertex -5.056356214843421 -3.673657826827957 3
      vertex -4.556053921383823 -4.278419412054303 3
    endloop
  endfacet
  facet normal 0.5877852522924725 0.8090169943749479 0
    outer loop
      vertex -3.98389993592931 -4.815707767348684 0
      vertex -3.98389993592931 -4.815707767348684 3
      vertex -3.3489174686187297 -5.277049534387594 3
    endloop
  endfacet
  facet normal 0.6845471059286893 0.7289686274214109 0
    outer loop
      vertex -4.556053921383823 -4.278419412054303 0
      vertex -4.556053921383823 -4.278419412054303 3
      vertex -3.98389993592931 -4.815707767348684 3
    endloop
  endfacet
  facet normal 0.9510565162951538 0.309016994374947 0
    outer loop
      vertex -5.811103036801572 -2.3007784542792367 0
      vertex -6.053644757053944 -1.5543117947803429 3
      vertex -5.811103036801572 -2.3007784542792367 3
    endloop
  endfacet
  facet normal 0.9822872507286888 0.1873813145857246 0
    outer loop
      vertex -6.053644757053944 -1.5543117947803429 0
      vertex -6.200716883215486 -0.7833327097769004 3
      vertex -6.053644757053944 -1.5543117947803429 3
    endloop
  endfacet
  facet normal 0.9980267284282716 0.0627905195293135 0
    outer loop
      vertex -6.200716883215486 -0.7833327097769004 0
      vertex -6.25 0 3
      vertex -6.200716883215486 -0.7833327097769004 3
    endloop
  endfacet
  facet normal 0.8443279255020151 0.5358267949789965 0
    outer loop
      vertex -5.056356214843421 -3.673657826827957 0
      vertex -5.476916750274147 -3.010960463135721 3
      vertex -5.056356214843421 -3.673657826827957 3
    endloop
  endfacet
  facet normal 0.9048270524660194 0.42577929156507294 0
    outer loop
      vertex -5.476916750274147 -3.010960463135721 0
      vertex -5.811103036801572 -2.3007784542792367 3
      vertex -5.476916750274147 -3.010960463135721 3
    endloop
  endfacet
  facet normal 0.368124552684678 0.9297764858882516 0
    outer loop
      vertex -2.661120572281703 -5.655169077912622 0
      vertex -2.661120572281703 -5.655169077912622 3
      vertex -1.9313562148434211 -5.944103226844709 3
    endloop
  endfacet
  facet normal 0.48175367410171477 0.8763066800438639 0
    outer loop
      vertex -3.3489174686187297 -5.277049534387594 0
      vertex -3.3489174686187297 -5.277049534387594 3
      vertex -2.661120572281703 -5.655169077912622 3
    endloop
  endfacet
  facet normal 0.24868988716485482 0.9685831611286312 0
    outer loop
      vertex -1.9313562148434211 -5.944103226844709 0
      vertex -1.9313562148434211 -5.944103226844709 3
      vertex -1.1711332161607801 -6.139295317054303 3
    endloop
  endfacet
  facet normal 0.12533323356430498 0.9921147013144779 0
    outer loop
      vertex -1.1711332161607801 -6.139295317054303 0
      vertex -1.1711332161607801 -6.139295317054303 3
      vertex -0.392440747058211 -6.237667052676697 3
    endloop
  endfacet
  facet normal 0 1 0
    outer loop
      vertex -0.392440747058211 -6.237667052676697 0
      vertex -0.392440747058211 -6.237667052676697 3
      vertex 0.392440747058211 -6.237667052676697 3
    endloop
  endfacet
  facet normal 0 0 1
    outer loop
      vertex -6.200716883215486 -0.7833327097769004 0
      vertex -6.200716883215486 0.7833327097769004 0
      vertex -6.25 0 0
    endloop
  endfacet
  facet normal 0 0 1
    outer loop
      vertex -6.200716883215486 -0.7833327097769004 0
      vertex -6.053644757053944 1.5543117947803429 0
      vertex -6.200716883215486 0.7833327097769004 0
    endloop
  endfacet
  facet normal 0 0 1
    outer loop
      vertex -6.053644757053944 -1.5543117947803429 0
      vertex -5.914250001311302 0 0
      vertex -5.811103036801572 2.3007784542792367 0
    endloop
  endfacet
  facet normal 0 0 1
    outer loop
      vertex -6.053644757053944 -1.5543117947803429 0
      vertex -5.811103036801572 2.3007784542792367 0
      vertex -6.053644757053944 1.5543117947803429 0
    endloop
  endfacet
  facet normal 0 0 1
    outer loop
      vertex -5.914250001311302 0 0
      vertex -5.476916750274147 3.010960463135721 0
      vertex -5.811103036801572 2.3007784542792367 0
    endloop
  endfacet
  facet normal 0 0 1
    outer loop
      vertex -5.914250001311302 0 0
      vertex -5.056356214843421 3.673657826827957 0
      vertex -5.476916750274147 3.010960463135721 0
    endloop
  endfacet
  facet normal 0 0 1
    outer loop
      vertex -5.914250001311302 0 0
      vertex -4.556053921383823 4.278419412054303 0
      vertex -5.056356214843421 3.673657826827957 0
    endloop
  endfacet
  facet normal 0 0 1
    outer loop
      vertex -5.914250001311302 0 0
      vertex -3.98389993592931 4.815707767348684 0
      vertex -4.556053921383823 4.278419412054303 0
    endloop
  endfacet
  facet normal 0 0 1
    outer loop
      vertex -5.914250001311302 0 0
      vertex -3.3489174686187297 5.277049534387594 0
      vertex -3.98389993592931 4.815707767348684 0
    endloop
  endfacet
  facet normal 0 0 1
    outer loop
      vertex -5.914250001311302 0 0
      vertex -2.957125000655651 5.1218907460570335 0
      vertex -3.3489174686187297 5.277049534387594 0
    endloop
  endfacet
  facet normal 0.9980267284282716 -0.0627905195293135 0
    outer loop
      vertex -6.25 0 0
      vertex -6.200716883215486 0.7833327097769004 0
      vertex -6.200716883215486 0.7833327097769004 3
    endloop
  endfacet
  facet normal 0.9822872507286888 -0.1873813145857246 0
    outer loop
      vertex -6.200716883215486 0.7833327097769004 0
      vertex -6.053644757053944 1.5543117947803429 0
      vertex -6.053644757053944 1.5543117947803429 3
    endloop
  endfacet
  facet normal 0.9510565162951538 -0.309016994374947 0
    outer loop
      vertex -6.053644757053944 1.5543117947803429 0
      vertex -5.811103036801572 2.3007784542792367 0
      vertex -5.811103036801572 2.3007784542792367 3
    endloop
  endfacet
  facet normal 0.9048270524660194 -0.42577929156507294 0
    outer loop
      vertex -5.811103036801572 2.3007784542792367 0
      vertex -5.476916750274147 3.010960463135721 0
      vertex -5.476916750274147 3.010960463135721 3
    endloop
  endfacet
  facet normal 0.8443279255020151 -0.5358267949789965 0
    outer loop
      vertex -5.476916750274147 3.010960463135721 0
      vertex -5.056356214843421 3.673657826827957 0
      vertex -5.056356214843421 3.673657826827957 3
    endloop
  endfacet
  facet normal 0.7705132427757891 -0.6374239897486897 0
    outer loop
      vertex -5.056356214843421 3.673657826827957 0
      vertex -4.556053921383823 4.278419412054303 0
      vertex -4.556053921383823 4.278419412054303 3
    endloop
  endfacet
  facet normal 0.6845471059286893 -0.7289686274214109 0
    outer loop
      vertex -4.556053921383823 4.278419412054303 0
      vertex -3.98389993592931 4.815707767348684 0
      vertex -4.556053921383823 4.278419412054303 3
    endloop
  endfacet
  facet normal 0.5877852522924725 -0.8090169943749479 0
    outer loop
      vertex -3.98389993592931 4.815707767348684 0
      vertex -3.3489174686187297 5.277049534387594 0
      vertex -3.98389993592931 4.815707767348684 3
    endloop
  endfacet
  facet normal 0 0 1
    outer loop
      vertex -3.3489174686187297 5.277049534387594 0
      vertex -2.957125000655651 5.1218907460570335 0
      vertex -2.6611205722817046 5.655169077912622 0
    endloop
  endfacet
  facet normal 0 0 1
    outer loop
      vertex -2.957125000655651 5.1218907460570335 0
      vertex -1.9313562148434211 5.944103226844709 0
      vertex -2.6611205722817046 5.655169077912622 0
    endloop
  endfacet
  facet normal 0 0 1
    outer loop
      vertex -2.957125000655651 5.1218907460570335 0
      vertex -1.1711332161607786 6.139295317054304 0
      vertex -1.9313562148434211 5.944103226844709 0
    endloop
  endfacet
  facet normal 0 0 1
    outer loop
      vertex -2.957125000655651 5.1218907460570335 0
      vertex -0.392440747058208 6.237667052676697 0
      vertex -1.1711332161607786 6.139295317054304 0
    endloop
  endfacet
  facet normal 0 0 1
    outer loop
      vertex -2.957125000655651 5.1218907460570335 0
      vertex 0.392440747058208 6.237667052676697 0
      vertex -0.392440747058208 6.237667052676697 0
    endloop
  endfacet
  facet normal 0 0 1
    outer loop
      vertex -2.957125000655651 5.1218907460570335 0
      vertex 1.1711332161607786 6.139295317054304 0
      vertex 0.392440747058208 6.237667052676697 0
    endloop
  endfacet
  facet normal 0.48175367410171566 -0.8763066800438634 0
    outer loop
      vertex -3.3489174686187297 5.277049534387594 0
      vertex -2.6611205722817046 5.655169077912622 0
      vertex -3.3489174686187297 5.277049534387594 3
    endloop
  endfacet
  facet normal 0.36812455268467714 -0.9297764858882517 0
    outer loop
      vertex -2.6611205722817046 5.655169077912622 0
      vertex -1.9313562148434211 5.944103226844709 0
      vertex -2.6611205722817046 5.655169077912622 3
    endloop
  endfacet
  facet normal 0.24868988716485538 -0.9685831611286311 0
    outer loop
      vertex -1.9313562148434211 5.944103226844709 0
      vertex -1.1711332161607786 6.139295317054304 0
      vertex -1.9313562148434211 5.944103226844709 3
    endloop
  endfacet
  facet normal 0.12533323356430362 -0.9921147013144779 0
    outer loop
      vertex -1.1711332161607786 6.139295317054304 0
      vertex -0.392440747058208 6.237667052676697 0
      vertex -1.1711332161607786 6.139295317054304 3
    endloop
  endfacet
  facet normal 0 -1 0
    outer loop
      vertex -0.392440747058208 6.237667052676697 0
      vertex 0.392440747058208 6.237667052676697 0
      vertex -0.39244074705820586 6.237667052676697 3
    endloop
  endfacet
  facet normal 0.9980267284282716 -0.0627905195293135 0
    outer loop
      vertex -6.25 0 0
      vertex -6.200716883215486 0.7833327097769004 3
      vertex -6.25 0 3
    endloop
  endfacet
  facet normal 0.9822872507286888 -0.1873813145857246 0
    outer loop
      vertex -6.200716883215486 0.7833327097769004 0
      vertex -6.053644757053944 1.5543117947803429 3
      vertex -6.200716883215486 0.7833327097769004 3
    endloop
  endfacet
  facet normal 0.9510565162951538 -0.309016994374947 0
    outer loop
      vertex -6.053644757053944 1.5543117947803429 0
      vertex -5.811103036801572 2.3007784542792367 3
      vertex -6.053644757053944 1.5543117947803429 3
    endloop
  endfacet
  facet normal 0.9048270524660194 -0.42577929156507294 0
    outer loop
      vertex -5.811103036801572 2.3007784542792367 0
      vertex -5.476916750274147 3.010960463135721 3
      vertex -5.811103036801572 2.3007784542792367 3
    endloop
  endfacet
  facet normal 0.8443279255020151 -0.5358267949789965 0
    outer loop
      vertex -5.476916750274147 3.010960463135721 0
      vertex -5.056356214843421 3.673657826827957 3
      vertex -5.476916750274147 3.010960463135721 3
    endloop
  endfacet
  facet normal 0.7705132427757891 -0.6374239897486897 0
    outer loop
      vertex -5.056356214843421 3.673657826827957 0
      vertex -4.556053921383823 4.278419412054303 3
      vertex -5.056356214843421 3.673657826827957 3
    endloop
  endfacet
  facet normal 0.6845471059286893 -0.7289686274214109 0
    outer loop
      vertex -3.98389993592931 4.815707767348684 0
      vertex -3.98389993592931 4.815707767348684 3
      vertex -4.556053921383823 4.278419412054303 3
    endloop
  endfacet
  facet normal 0.5877852522924725 -0.8090169943749479 0
    outer loop
      vertex -3.3489174686187297 5.277049534387594 0
      vertex -3.3489174686187297 5.277049534387594 3
      vertex -3.98389993592931 4.815707767348684 3
    endloop
  endfacet
  facet normal 0.48175367410171566 -0.8763066800438634 0
    outer loop
      vertex -2.6611205722817046 5.655169077912622 0
      vertex -2.6611205722817046 5.655169077912622 3
      vertex -3.3489174686187297 5.277049534387594 3
    endloop
  endfacet
  facet normal 0.36812455268467714 -0.9297764858882517 0
    outer loop
      vertex -1.9313562148434211 5.944103226844709 0
      vertex -1.9313562148434211 5.944103226844709 3
      vertex -2.6611205722817046 5.655169077912622 3
    endloop
  endfacet
  facet normal 0.24868988716485538 -0.9685831611286311 0
    outer loop
      vertex -1.1711332161607786 6.139295317054304 0
      vertex -1.1711332161607786 6.139295317054304 3
      vertex -1.9313562148434211 5.944103226844709 3
    endloop
  endfacet
  facet normal 0.1253332335643033 -0.9921147013144779 -8.812696638074759e-17
    outer loop
      vertex -0.392440747058208 6.237667052676697 0
      vertex -0.39244074705820586 6.237667052676697 3
      vertex -1.1711332161607786 6.139295317054304 3
    endloop
  endfacet
  facet normal 0 0 1
    outer loop
      vertex -1.1711332161607801 -6.139295317054303 0
      vertex -0.392440747058211 -6.237667052676697 0
      vertex 2.957125000655651 -5.1218907460570335 0
    endloop
  endfacet
  facet normal 0 0 1
    outer loop
      vertex -0.392440747058211 -6.237667052676697 0
      vertex 0.392440747058211 -6.237667052676697 0
      vertex 2.957125000655651 -5.1218907460570335 0
    endloop
  endfacet
  facet normal 0 0 1
    outer loop
      vertex 0.392440747058211 -6.237667052676697 0
      vertex 1.1711332161607801 -6.139295317054303 0
      vertex 2.957125000655651 -5.1218907460570335 0
    endloop
  endfacet
  facet normal 0 0 1
    outer loop
      vertex 1.1711332161607801 -6.139295317054303 0
      vertex 1.9313562148434211 -5.944103226844709 0
      vertex 2.957125000655651 -5.1218907460570335 0
    endloop
  endfacet
  facet normal 0 0 1
    outer loop
      vertex 1.9313562148434211 -5.944103226844709 0
      vertex 2.661120572281703 -5.655169077912622 0
      vertex 2.957125000655651 -5.1218907460570335 0
    endloop
  endfacet
  facet normal 0 0 1
    outer loop
      vertex 2.661120572281703 -5.655169077912622 0
      vertex 3.348917468618726 -5.277049534387595 0
      vertex 2.957125000655651 -5.1218907460570335 0
    endloop
  endfacet
  facet normal 0 1 0
    outer loop
      vertex -0.392440747058211 -6.237667052676697 0
      vertex 0.392440747058211 -6.237667052676697 3
      vertex 0.392440747058211 -6.237667052676697 0
    endloop
  endfacet
  facet normal -0.12533323356430498 0.9921147013144779 0
    outer loop
      vertex 0.392440747058211 -6.237667052676697 0
      vertex 1.1711332161607801 -6.139295317054303 3
      vertex 1.1711332161607801 -6.139295317054303 0
    endloop
  endfacet
  facet normal -0.24868988716485482 0.9685831611286312 0
    outer loop
      vertex 1.1711332161607801 -6.139295317054303 0
      vertex 1.9313562148434211 -5.944103226844709 3
      vertex 1.9313562148434211 -5.944103226844709 0
    endloop
  endfacet
  facet normal -0.368124552684678 0.9297764858882516 0
    outer loop
      vertex 1.9313562148434211 -5.944103226844709 0
      vertex 2.661120572281703 -5.655169077912622 3
      vertex 2.661120572281703 -5.655169077912622 0
    endloop
  endfacet
  facet normal -0.4817536741017149 0.8763066800438637 0
    outer loop
      vertex 2.661120572281703 -5.655169077912622 0
      vertex 3.348917468618726 -5.277049534387595 3
      vertex 3.348917468618726 -5.277049534387595 0
    endloop
  endfacet
  facet normal -0.5877852522924727 0.8090169943749478 0
    outer loop
      vertex 3.348917468618726 -5.277049534387595 0
      vertex 3.9838999359293124 -4.815707767348681 3
      vertex 3.9838999359293124 -4.815707767348681 0
    endloop
  endfacet
  facet normal -0.6845471059286888 0.7289686274214112 0
    outer loop
      vertex 3.9838999359293124 -4.815707767348681 0
      vertex 4.556053921383823 -4.278419412054303 3
      vertex 4.556053921383823 -4.278419412054303 0
    endloop
  endfacet
  facet normal -0.7705132427757891 0.6374239897486897 0
    outer loop
      vertex 4.556053921383823 -4.278419412054303 0
      vertex 4.556053921383823 -4.278419412054303 3
      vertex 5.056356214843421 -3.673657826827957 0
    endloop
  endfacet
  facet normal 0 0 1
    outer loop
      vertex 2.957125000655651 -5.1218907460570335 0
      vertex 3.348917468618726 -5.277049534387595 0
      vertex 5.914250001311302 0 0
    endloop
  endfacet
  facet normal 0 0 1
    outer loop
      vertex 3.348917468618726 -5.277049534387595 0
      vertex 3.9838999359293124 -4.815707767348681 0
      vertex 5.914250001311302 0 0
    endloop
  endfacet
  facet normal 0 0 1
    outer loop
      vertex 3.9838999359293124 -4.815707767348681 0
      vertex 4.556053921383823 -4.278419412054303 0
      vertex 5.914250001311302 0 0
    endloop
  endfacet
  facet normal 0 0 1
    outer loop
      vertex 4.556053921383823 -4.278419412054303 0
      vertex 5.056356214843421 -3.673657826827957 0
      vertex 5.914250001311302 0 0
    endloop
  endfacet
  facet normal 0 0 1
    outer loop
      vertex 5.056356214843421 -3.673657826827957 0
      vertex 5.476916750274147 -3.010960463135721 0
      vertex 5.914250001311302 0 0
    endloop
  endfacet
  facet normal 0 0 1
    outer loop
      vertex 5.476916750274147 -3.010960463135721 0
      vertex 5.81110303680157 -2.3007784542792398 0
      vertex 5.914250001311302 0 0
    endloop
  endfacet
  facet normal 0 0 1
    outer loop
      vertex 5.81110303680157 -2.3007784542792398 0
      vertex 6.053644757053945 -1.5543117947803402 0
      vertex 6.053644757053944 1.5543117947803424 0
    endloop
  endfacet
  facet normal 0 0 1
    outer loop
      vertex 5.81110303680157 -2.3007784542792398 0
      vertex 6.053644757053944 1.5543117947803424 0
      vertex 5.914250001311302 0 0
    endloop
  endfacet
  facet normal 0 0 1
    outer loop
      vertex 6.053644757053945 -1.5543117947803402 0
      vertex 6.200716883215486 -0.7833327097769004 0
      vertex 6.200716883215486 0.7833327097769016 0
    endloop
  endfacet
  facet normal -0.8443279255020151 0.5358267949789965 0
    outer loop
      vertex 5.056356214843421 -3.673657826827957 0
      vertex 5.056356214843421 -3.673657826827957 3
      vertex 5.476916750274147 -3.010960463135721 0
    endloop
  endfacet
  facet normal -0.9048270524660196 0.42577929156507266 0
    outer loop
      vertex 5.476916750274147 -3.010960463135721 0
      vertex 5.476916750274147 -3.010960463135721 3
      vertex 5.81110303680157 -2.3007784542792398 0
    endloop
  endfacet
  facet normal -0.9510565162951534 0.30901699437494795 0
    outer loop
      vertex 5.81110303680157 -2.3007784542792398 0
      vertex 5.81110303680157 -2.3007784542792398 3
      vertex 6.053644757053945 -1.5543117947803402 0
    endloop
  endfacet
  facet normal -0.9822872507286887 0.1873813145857241 0
    outer loop
      vertex 6.053644757053945 -1.5543117947803402 0
      vertex 6.053644757053945 -1.5543117947803402 3
      vertex 6.200716883215486 -0.7833327097769004 0
    endloop
  endfacet
  facet normal -0.9980267284282716 0.0627905195293135 0
    outer loop
      vertex 6.200716883215486 -0.7833327097769004 0
      vertex 6.200716883215486 -0.7833327097769004 3
      vertex 6.25 0 0
    endloop
  endfacet
  facet normal -0.12533323356430498 0.9921147013144779 0
    outer loop
      vertex 0.392440747058211 -6.237667052676697 0
      vertex 0.392440747058211 -6.237667052676697 3
      vertex 1.1711332161607801 -6.139295317054303 3
    endloop
  endfacet
  facet normal -0.24868988716485482 0.9685831611286312 0
    outer loop
      vertex 1.1711332161607801 -6.139295317054303 0
      vertex 1.1711332161607801 -6.139295317054303 3
      vertex 1.9313562148434211 -5.944103226844709 3
    endloop
  endfacet
  facet normal -0.368124552684678 0.9297764858882516 0
    outer loop
      vertex 1.9313562148434211 -5.944103226844709 0
      vertex 1.9313562148434211 -5.944103226844709 3
      vertex 2.661120572281703 -5.655169077912622 3
    endloop
  endfacet
  facet normal -0.4817536741017149 0.8763066800438637 0
    outer loop
      vertex 2.661120572281703 -5.655169077912622 0
      vertex 2.661120572281703 -5.655169077912622 3
      vertex 3.348917468618726 -5.277049534387595 3
    endloop
  endfacet
  facet normal -0.5877852522924727 0.8090169943749478 0
    outer loop
      vertex 3.348917468618726 -5.277049534387595 0
      vertex 3.348917468618726 -5.277049534387595 3
      vertex 3.9838999359293124 -4.815707767348681 3
    endloop
  endfacet
  facet normal -0.6845471059286888 0.7289686274214112 0
    outer loop
      vertex 3.9838999359293124 -4.815707767348681 0
      vertex 3.9838999359293124 -4.815707767348681 3
      vertex 4.556053921383823 -4.278419412054303 3
    endloop
  endfacet
  facet normal -0.7705132427757891 0.6374239897486897 0
    outer loop
      vertex 5.056356214843421 -3.673657826827957 0
      vertex 4.556053921383823 -4.278419412054303 3
      vertex 5.056356214843421 -3.673657826827957 3
    endloop
  endfacet
  facet normal -0.8443279255020151 0.5358267949789965 0
    outer loop
      vertex 5.476916750274147 -3.010960463135721 0
      vertex 5.056356214843421 -3.673657826827957 3
      vertex 5.476916750274147 -3.010960463135721 3
    endloop
  endfacet
  facet normal -0.9048270524660196 0.42577929156507266 0
    outer loop
      vertex 5.81110303680157 -2.3007784542792398 0
      vertex 5.476916750274147 -3.010960463135721 3
      vertex 5.81110303680157 -2.3007784542792398 3
    endloop
  endfacet
  facet normal -0.9510565162951534 0.30901699437494795 0
    outer loop
      vertex 6.053644757053945 -1.5543117947803402 0
      vertex 5.81110303680157 -2.3007784542792398 3
      vertex 6.053644757053945 -1.5543117947803402 3
    endloop
  endfacet
  facet normal -0.9822872507286887 0.1873813145857241 0
    outer loop
      vertex 6.200716883215486 -0.7833327097769004 0
      vertex 6.053644757053945 -1.5543117947803402 3
      vertex 6.200716883215486 -0.7833327097769004 3
    endloop
  endfacet
  facet normal -0.9980267284282716 0.0627905195293135 0
    outer loop
      vertex 6.25 0 0
      vertex 6.200716883215486 -0.7833327097769004 3
      vertex 6.25 0 3
    endloop
  endfacet
  facet normal 0 0 1
    outer loop
      vertex -2.957125000655651 5.1218907460570335 0
      vertex 2.6611205722817046 5.655169077912622 0
      vertex 1.9313562148434211 5.944103226844709 0
    endloop
  endfacet
  facet normal 0 0 1
    outer loop
      vertex -2.957125000655651 5.1218907460570335 0
      vertex 2.957125000655651 5.1218907460570335 0
      vertex 2.6611205722817046 5.655169077912622 0
    endloop
  endfacet
  facet normal 0 0 1
    outer loop
      vertex -2.957125000655651 5.1218907460570335 0
      vertex 1.9313562148434211 5.944103226844709 0
      vertex 1.1711332161607786 6.139295317054304 0
    endloop
  endfacet
  facet normal 0 0 1
    outer loop
      vertex 2.957125000655651 5.1218907460570335 0
      vertex 3.3489174686187293 5.2770495343875945 0
      vertex 2.6611205722817046 5.655169077912622 0
    endloop
  endfacet
  facet normal 0 0 1
    outer loop
      vertex 2.957125000655651 5.1218907460570335 0
      vertex 3.983899935929311 4.815707767348682 0
      vertex 3.3489174686187293 5.2770495343875945 0
    endloop
  endfacet
  facet normal -0.12533323356430362 -0.9921147013144779 0
    outer loop
      vertex 0.392440747058208 6.237667052676697 0
      vertex 1.1711332161607786 6.139295317054304 0
      vertex 0.392440747058208 6.237667052676697 3
    endloop
  endfacet
  facet normal -0.24868988716485538 -0.9685831611286311 0
    outer loop
      vertex 1.1711332161607786 6.139295317054304 0
      vertex 1.9313562148434211 5.944103226844709 0
      vertex 1.1711332161607786 6.139295317054304 3
    endloop
  endfacet
  facet normal -0.4817536741017151 -0.8763066800438637 0
    outer loop
      vertex 2.6611205722817046 5.655169077912622 0
      vertex 3.3489174686187293 5.2770495343875945 0
      vertex 2.6611205722817046 5.655169077912622 3
    endloop
  endfacet
  facet normal -0.5877852522924739 -0.8090169943749468 0
    outer loop
      vertex 3.3489174686187293 5.2770495343875945 0
      vertex 3.983899935929311 4.815707767348682 0
      vertex 3.3489174686187293 5.2770495343875945 3
    endloop
  endfacet
  facet normal -0.36812455268467714 -0.9297764858882517 0
    outer loop
      vertex 1.9313562148434211 5.944103226844709 0
      vertex 2.6611205722817046 5.655169077912622 0
      vertex 1.9313562148434211 5.944103226844709 3
    endloop
  endfacet
  facet normal 0 0 1
    outer loop
      vertex 2.957125000655651 5.1218907460570335 0
      vertex 5.914250001311302 0 0
      vertex 6.053644757053944 1.5543117947803424 0
    endloop
  endfacet
  facet normal 0 0 1
    outer loop
      vertex 2.957125000655651 5.1218907460570335 0
      vertex 6.053644757053944 1.5543117947803424 0
      vertex 5.811103036801571 2.3007784542792376 0
    endloop
  endfacet
  facet normal 0 0 1
    outer loop
      vertex 2.957125000655651 5.1218907460570335 0
      vertex 5.811103036801571 2.3007784542792376 0
      vertex 5.476916750274148 3.0109604631357207 0
    endloop
  endfacet
  facet normal 0 0 1
    outer loop
      vertex 6.200716883215486 -0.7833327097769004 0
      vertex 6.25 0 0
      vertex 6.200716883215486 0.7833327097769016 0
    endloop
  endfacet
  facet normal 0 0 1
    outer loop
      vertex 6.053644757053945 -1.5543117947803402 0
      vertex 6.200716883215486 0.7833327097769016 0
      vertex 6.053644757053944 1.5543117947803424 0
    endloop
  endfacet
  facet normal -0.8443279255020147 -0.5358267949789971 0
    outer loop
      vertex 5.476916750274148 3.0109604631357207 0
      vertex 5.476916750274148 3.0109604631357207 3
      vertex 5.056356214843421 3.673657826827957 0
    endloop
  endfacet
  facet normal -0.9980267284282716 -0.0627905195293134 0
    outer loop
      vertex 6.25 0 0
      vertex 6.25 0 3
      vertex 6.200716883215486 0.7833327097769016 0
    endloop
  endfacet
  facet normal -0.9510565162951535 -0.30901699437494756 0
    outer loop
      vertex 6.053644757053944 1.5543117947803424 0
      vertex 6.053644757053944 1.5543117947803424 3
      vertex 5.811103036801571 2.3007784542792376 0
    endloop
  endfacet
  facet normal -0.9822872507286886 -0.18738131458572493 0
    outer loop
      vertex 6.200716883215486 0.7833327097769016 0
      vertex 6.200716883215486 0.7833327097769016 3
      vertex 6.053644757053944 1.5543117947803424 0
    endloop
  endfacet
  facet normal -0.90482705246602 -0.42577929156507177 0
    outer loop
      vertex 5.811103036801571 2.3007784542792376 0
      vertex 5.811103036801571 2.3007784542792376 3
      vertex 5.476916750274148 3.0109604631357207 0
    endloop
  endfacet
  facet normal 0 0 1
    outer loop
      vertex 2.957125000655651 5.1218907460570335 0
      vertex 5.056356214843421 3.673657826827957 0
      vertex 4.556053921383822 4.278419412054305 0
    endloop
  endfacet
  facet normal 0 0 1
    outer loop
      vertex 2.957125000655651 5.1218907460570335 0
      vertex 5.476916750274148 3.0109604631357207 0
      vertex 5.056356214843421 3.673657826827957 0
    endloop
  endfacet
  facet normal 0 0 1
    outer loop
      vertex 2.957125000655651 5.1218907460570335 0
      vertex 4.556053921383822 4.278419412054305 0
      vertex 3.983899935929311 4.815707767348682 0
    endloop
  endfacet
  facet normal -0.6845471059286882 -0.7289686274214122 0
    outer loop
      vertex 4.556053921383822 4.278419412054305 0
      vertex 3.983899935929311 4.815707767348682 3
      vertex 3.983899935929311 4.815707767348682 0
    endloop
  endfacet
  facet normal -0.7705132427757895 -0.6374239897486893 0
    outer loop
      vertex 4.556053921383822 4.278419412054305 0
      vertex 5.056356214843421 3.673657826827957 0
      vertex 5.056356214843421 3.673657826827957 3
    endloop
  endfacet
  facet normal 0 -1 0
    outer loop
      vertex 0.392440747058208 6.237667052676697 0
      vertex 0.392440747058208 6.237667052676697 3
      vertex -0.39244074705820586 6.237667052676697 3
    endloop
  endfacet
  facet normal -0.12533323356430362 -0.9921147013144779 0
    outer loop
      vertex 1.1711332161607786 6.139295317054304 0
      vertex 1.1711332161607786 6.139295317054304 3
      vertex 0.392440747058208 6.237667052676697 3
    endloop
  endfacet
  facet normal -0.24868988716485538 -0.9685831611286311 0
    outer loop
      vertex 1.9313562148434211 5.944103226844709 0
      vertex 1.9313562148434211 5.944103226844709 3
      vertex 1.1711332161607786 6.139295317054304 3
    endloop
  endfacet
  facet normal -0.4817536741017151 -0.8763066800438637 0
    outer loop
      vertex 3.3489174686187293 5.2770495343875945 0
      vertex 3.3489174686187293 5.2770495343875945 3
      vertex 2.6611205722817046 5.655169077912622 3
    endloop
  endfacet
  facet normal -0.36812455268467714 -0.9297764858882517 0
    outer loop
      vertex 2.6611205722817046 5.655169077912622 0
      vertex 2.6611205722817046 5.655169077912622 3
      vertex 1.9313562148434211 5.944103226844709 3
    endloop
  endfacet
  facet normal -0.90482705246602 -0.42577929156507177 0
    outer loop
      vertex 5.476916750274148 3.0109604631357207 0
      vertex 5.811103036801571 2.3007784542792376 3
      vertex 5.476916750274148 3.0109604631357207 3
    endloop
  endfacet
  facet normal -0.8443279255020147 -0.5358267949789971 0
    outer loop
      vertex 5.056356214843421 3.673657826827957 0
      vertex 5.476916750274148 3.0109604631357207 3
      vertex 5.056356214843421 3.673657826827957 3
    endloop
  endfacet
  facet normal -0.9980267284282716 -0.0627905195293134 0
    outer loop
      vertex 6.200716883215486 0.7833327097769016 0
      vertex 6.25 0 3
      vertex 6.200716883215486 0.7833327097769016 3
    endloop
  endfacet
  facet normal -0.9822872507286886 -0.18738131458572493 0
    outer loop
      vertex 6.053644757053944 1.5543117947803424 0
      vertex 6.200716883215486 0.7833327097769016 3
      vertex 6.053644757053944 1.5543117947803424 3
    endloop
  endfacet
  facet normal -0.9510565162951535 -0.30901699437494756 0
    outer loop
      vertex 5.811103036801571 2.3007784542792376 0
      vertex 6.053644757053944 1.5543117947803424 3
      vertex 5.811103036801571 2.3007784542792376 3
    endloop
  endfacet
  facet normal -0.6845471059286882 -0.7289686274214122 0
    outer loop
      vertex 4.556053921383822 4.278419412054305 0
      vertex 4.556053921383822 4.278419412054305 3
      vertex 3.983899935929311 4.815707767348682 3
    endloop
  endfacet
  facet normal -0.5877852522924739 -0.8090169943749468 0
    outer loop
      vertex 3.983899935929311 4.815707767348682 0
      vertex 3.983899935929311 4.815707767348682 3
      vertex 3.3489174686187293 5.2770495343875945 3
    endloop
  endfacet
  facet normal -0.7705132427757895 -0.6374239897486893 0
    outer loop
      vertex 4.556053921383822 4.278419412054305 0
      vertex 5.056356214843421 3.673657826827957 3
      vertex 4.556053921383822 4.278419412054305 3
    endloop
  endfacet
endsolid OpenSCAD_Model
