solid OpenSCAD_Model
  facet normal 0.866025 -0.5 0
    outer loop
      vertex -4.84679 0 0
      vertex -2.42339 4.19745 -4
      vertex -2.42339 4.19745 0
    endloop
  endfacet
  facet normal 0.866025 -0.5 0
    outer loop
      vertex -2.42339 4.19745 -4
      vertex -4.84679 0 0
      vertex -4.84679 0 -4
    endloop
  endfacet
  facet normal 0 -1 0
    outer loop
      vertex -2.42339 4.19745 -4
      vertex 2.42339 4.19745 0
      vertex -2.42339 4.19745 0
    endloop
  endfacet
  facet normal 0 -1 -0
    outer loop
      vertex 2.42339 4.19745 0
      vertex -2.42339 4.19745 -4
      vertex 2.42339 4.19745 -4
    endloop
  endfacet
  facet normal -0.866025 0.5 0
    outer loop
      vertex 2.42339 -4.19745 -4
      vertex 4.84679 0 0
      vertex 4.84679 0 -4
    endloop
  endfacet
  facet normal -0.866025 0.5 0
    outer loop
      vertex 4.84679 0 0
      vertex 2.42339 -4.19745 -4
      vertex 2.42339 -4.19745 0
    endloop
  endfacet
  facet normal 0 1 -0
    outer loop
      vertex 2.42339 -4.19745 -4
      vertex -2.42339 -4.19745 0
      vertex 2.42339 -4.19745 0
    endloop
  endfacet
  facet normal 0 1 0
    outer loop
      vertex -2.42339 -4.19745 0
      vertex 2.42339 -4.19745 -4
      vertex -2.42339 -4.19745 -4
    endloop
  endfacet
  facet normal 0 0 1
    outer loop
      vertex 4.84679 0 -4
      vertex 2.72832 0.344666 -4
      vertex 2.75 0 -4
    endloop
  endfacet
  facet normal 0 0 1
    outer loop
      vertex 4.84679 0 -4
      vertex 2.6636 0.683897 -4
      vertex 2.72832 0.344666 -4
    endloop
  endfacet
  facet normal 0 0 1
    outer loop
      vertex 4.84679 0 -4
      vertex 2.55688 1.01234 -4
      vertex 2.6636 0.683897 -4
    endloop
  endfacet
  facet normal -0 0 1
    outer loop
      vertex 2.40984 1.32482 -4
      vertex 4.84679 0 -4
      vertex 2.42339 4.19745 -4
    endloop
  endfacet
  facet normal 0 0 1
    outer loop
      vertex 4.84679 0 -4
      vertex 2.40984 1.32482 -4
      vertex 2.55688 1.01234 -4
    endloop
  endfacet
  facet normal 0 0 1
    outer loop
      vertex 2.42339 4.19745 -4
      vertex 2.2248 1.61641 -4
      vertex 2.40984 1.32482 -4
    endloop
  endfacet
  facet normal 0 0 1
    outer loop
      vertex 2.42339 4.19745 -4
      vertex 2.00466 1.8825 -4
      vertex 2.2248 1.61641 -4
    endloop
  endfacet
  facet normal 0 0 1
    outer loop
      vertex 2.42339 4.19745 -4
      vertex 1.75292 2.11891 -4
      vertex 2.00466 1.8825 -4
    endloop
  endfacet
  facet normal 0 0 1
    outer loop
      vertex 2.42339 4.19745 -4
      vertex 1.47352 2.3219 -4
      vertex 1.75292 2.11891 -4
    endloop
  endfacet
  facet normal 0 0 1
    outer loop
      vertex 2.42339 4.19745 -4
      vertex 1.17089 2.48827 -4
      vertex 1.47352 2.3219 -4
    endloop
  endfacet
  facet normal 0 0 1
    outer loop
      vertex 2.42339 4.19745 -4
      vertex 0.849796 2.61541 -4
      vertex 1.17089 2.48827 -4
    endloop
  endfacet
  facet normal 0 0 1
    outer loop
      vertex 2.42339 4.19745 -4
      vertex 0.515298 2.70129 -4
      vertex 0.849796 2.61541 -4
    endloop
  endfacet
  facet normal 0 0 1
    outer loop
      vertex 2.42339 4.19745 -4
      vertex 0.172673 2.74457 -4
      vertex 0.515298 2.70129 -4
    endloop
  endfacet
  facet normal 0 0 1
    outer loop
      vertex 2.42339 4.19745 -4
      vertex -0.172673 2.74457 -4
      vertex 0.172673 2.74457 -4
    endloop
  endfacet
  facet normal -0 0 1
    outer loop
      vertex -2.42339 4.19745 -4
      vertex -0.172673 2.74457 -4
      vertex 2.42339 4.19745 -4
    endloop
  endfacet
  facet normal 0 0 1
    outer loop
      vertex -0.172673 2.74457 -4
      vertex -2.42339 4.19745 -4
      vertex -0.515298 2.70129 -4
    endloop
  endfacet
  facet normal 0 0 1
    outer loop
      vertex -0.515298 2.70129 -4
      vertex -2.42339 4.19745 -4
      vertex -0.849796 2.61541 -4
    endloop
  endfacet
  facet normal 0 0 1
    outer loop
      vertex -0.849796 2.61541 -4
      vertex -2.42339 4.19745 -4
      vertex -1.17089 2.48827 -4
    endloop
  endfacet
  facet normal 0 0 1
    outer loop
      vertex -2.42339 4.19745 -4
      vertex -1.47352 2.3219 -4
      vertex -1.17089 2.48827 -4
    endloop
  endfacet
  facet normal 0 0 1
    outer loop
      vertex -2.42339 4.19745 -4
      vertex -1.75292 2.11891 -4
      vertex -1.47352 2.3219 -4
    endloop
  endfacet
  facet normal 0 0 1
    outer loop
      vertex -2.42339 4.19745 -4
      vertex -2.00466 1.8825 -4
      vertex -1.75292 2.11891 -4
    endloop
  endfacet
  facet normal 0 0 1
    outer loop
      vertex -2.42339 4.19745 -4
      vertex -2.2248 1.61641 -4
      vertex -2.00466 1.8825 -4
    endloop
  endfacet
  facet normal 0 0 1
    outer loop
      vertex -2.42339 4.19745 -4
      vertex -2.40984 1.32482 -4
      vertex -2.2248 1.61641 -4
    endloop
  endfacet
  facet normal 0 0 1
    outer loop
      vertex -4.84679 0 -4
      vertex -2.40984 1.32482 -4
      vertex -2.42339 4.19745 -4
    endloop
  endfacet
  facet normal 0 0 1
    outer loop
      vertex -2.40984 1.32482 -4
      vertex -4.84679 0 -4
      vertex -2.55688 1.01234 -4
    endloop
  endfacet
  facet normal 0 0 1
    outer loop
      vertex -2.55688 1.01234 -4
      vertex -4.84679 0 -4
      vertex -2.6636 0.683897 -4
    endloop
  endfacet
  facet normal 0 0 1
    outer loop
      vertex -2.72832 0.344666 -4
      vertex -4.84679 0 -4
      vertex -2.75 0 -4
    endloop
  endfacet
  facet normal 0 0 1
    outer loop
      vertex -2.6636 0.683897 -4
      vertex -4.84679 0 -4
      vertex -2.72832 0.344666 -4
    endloop
  endfacet
  facet normal 0 0 1
    outer loop
      vertex 2.72832 -0.344666 -4
      vertex 4.84679 0 -4
      vertex 2.75 0 -4
    endloop
  endfacet
  facet normal 0 0 1
    outer loop
      vertex 2.6636 -0.683897 -4
      vertex 4.84679 0 -4
      vertex 2.72832 -0.344666 -4
    endloop
  endfacet
  facet normal 0 0 1
    outer loop
      vertex 2.55688 -1.01234 -4
      vertex 4.84679 0 -4
      vertex 2.6636 -0.683897 -4
    endloop
  endfacet
  facet normal 0 0 1
    outer loop
      vertex 2.40984 -1.32482 -4
      vertex 4.84679 0 -4
      vertex 2.55688 -1.01234 -4
    endloop
  endfacet
  facet normal 0 0 1
    outer loop
      vertex 4.84679 0 -4
      vertex 2.40984 -1.32482 -4
      vertex 2.42339 -4.19745 -4
    endloop
  endfacet
  facet normal -0 0 1
    outer loop
      vertex 2.2248 -1.61641 -4
      vertex 2.42339 -4.19745 -4
      vertex 2.40984 -1.32482 -4
    endloop
  endfacet
  facet normal -0 0 1
    outer loop
      vertex 2.00466 -1.8825 -4
      vertex 2.42339 -4.19745 -4
      vertex 2.2248 -1.61641 -4
    endloop
  endfacet
  facet normal -0 0 1
    outer loop
      vertex 1.75292 -2.11891 -4
      vertex 2.42339 -4.19745 -4
      vertex 2.00466 -1.8825 -4
    endloop
  endfacet
  facet normal -0 0 1
    outer loop
      vertex 1.47352 -2.3219 -4
      vertex 2.42339 -4.19745 -4
      vertex 1.75292 -2.11891 -4
    endloop
  endfacet
  facet normal -0 0 1
    outer loop
      vertex 1.17089 -2.48827 -4
      vertex 2.42339 -4.19745 -4
      vertex 1.47352 -2.3219 -4
    endloop
  endfacet
  facet normal -0 0 1
    outer loop
      vertex 0.849796 -2.61541 -4
      vertex 2.42339 -4.19745 -4
      vertex 1.17089 -2.48827 -4
    endloop
  endfacet
  facet normal -0 0 1
    outer loop
      vertex 0.515298 -2.70129 -4
      vertex 2.42339 -4.19745 -4
      vertex 0.849796 -2.61541 -4
    endloop
  endfacet
  facet normal -0 0 1
    outer loop
      vertex 0.172673 -2.74457 -4
      vertex 2.42339 -4.19745 -4
      vertex 0.515298 -2.70129 -4
    endloop
  endfacet
  facet normal -0 0 1
    outer loop
      vertex -0.172673 -2.74457 -4
      vertex 2.42339 -4.19745 -4
      vertex 0.172673 -2.74457 -4
    endloop
  endfacet
  facet normal 0 0 1
    outer loop
      vertex -2.42339 -4.19745 -4
      vertex -0.172673 -2.74457 -4
      vertex -0.515298 -2.70129 -4
    endloop
  endfacet
  facet normal 0 0 1
    outer loop
      vertex -2.42339 -4.19745 -4
      vertex -0.515298 -2.70129 -4
      vertex -0.849796 -2.61541 -4
    endloop
  endfacet
  facet normal 0 0 1
    outer loop
      vertex -2.42339 -4.19745 -4
      vertex -0.849796 -2.61541 -4
      vertex -1.17089 -2.48827 -4
    endloop
  endfacet
  facet normal 0 0 1
    outer loop
      vertex -0.172673 -2.74457 -4
      vertex -2.42339 -4.19745 -4
      vertex 2.42339 -4.19745 -4
    endloop
  endfacet
  facet normal 0 0 1
    outer loop
      vertex -1.47352 -2.3219 -4
      vertex -2.42339 -4.19745 -4
      vertex -1.17089 -2.48827 -4
    endloop
  endfacet
  facet normal 0 0 1
    outer loop
      vertex -1.75292 -2.11891 -4
      vertex -2.42339 -4.19745 -4
      vertex -1.47352 -2.3219 -4
    endloop
  endfacet
  facet normal 0 0 1
    outer loop
      vertex -2.00466 -1.8825 -4
      vertex -2.42339 -4.19745 -4
      vertex -1.75292 -2.11891 -4
    endloop
  endfacet
  facet normal 0 0 1
    outer loop
      vertex -2.2248 -1.61641 -4
      vertex -2.42339 -4.19745 -4
      vertex -2.00466 -1.8825 -4
    endloop
  endfacet
  facet normal 0 0 1
    outer loop
      vertex -2.40984 -1.32482 -4
      vertex -2.42339 -4.19745 -4
      vertex -2.2248 -1.61641 -4
    endloop
  endfacet
  facet normal 0 0 1
    outer loop
      vertex -4.84679 0 -4
      vertex -2.40984 -1.32482 -4
      vertex -2.55688 -1.01234 -4
    endloop
  endfacet
  facet normal 0 0 1
    outer loop
      vertex -4.84679 0 -4
      vertex -2.55688 -1.01234 -4
      vertex -2.6636 -0.683897 -4
    endloop
  endfacet
  facet normal 0 0 1
    outer loop
      vertex -4.84679 0 -4
      vertex -2.6636 -0.683897 -4
      vertex -2.72832 -0.344666 -4
    endloop
  endfacet
  facet normal 0 0 1
    outer loop
      vertex -2.40984 -1.32482 -4
      vertex -4.84679 0 -4
      vertex -2.42339 -4.19745 -4
    endloop
  endfacet
  facet normal -0 0 1
    outer loop
      vertex -4.84679 0 -4
      vertex -2.72832 -0.344666 -4
      vertex -2.75 0 -4
    endloop
  endfacet
  facet normal 0 0 1
    outer loop
      vertex 4.84679 0 0
      vertex 30 0 0
      vertex 29.7634 3.76 0
    endloop
  endfacet
  facet normal 0 0 1
    outer loop
      vertex 4.84679 0 0
      vertex 29.7634 3.76 0
      vertex 29.0575 7.4607 0
    endloop
  endfacet
  facet normal 0 0 1
    outer loop
      vertex 30 0 0
      vertex 4.84679 0 0
      vertex 29.7634 -3.76 0
    endloop
  endfacet
  facet normal 0 0 1
    outer loop
      vertex 4.84679 0 0
      vertex 29.0575 7.4607 0
      vertex 27.8933 11.0437 0
    endloop
  endfacet
  facet normal 0 0 1
    outer loop
      vertex 29.7634 -3.76 0
      vertex 4.84679 0 0
      vertex 29.0575 -7.4607 0
    endloop
  endfacet
  facet normal 0 0 1
    outer loop
      vertex 4.84679 0 0
      vertex 27.8933 11.0437 0
      vertex 26.2892 14.4526 0
    endloop
  endfacet
  facet normal 0 0 1
    outer loop
      vertex 29.0575 -7.4607 0
      vertex 4.84679 0 0
      vertex 27.8933 -11.0437 0
    endloop
  endfacet
  facet normal 0 0 1
    outer loop
      vertex 2.42339 4.19745 0
      vertex 26.2892 14.4526 0
      vertex 24.2705 17.6336 0
    endloop
  endfacet
  facet normal 0 0 1
    outer loop
      vertex 27.8933 -11.0437 0
      vertex 4.84679 0 0
      vertex 26.2892 -14.4526 0
    endloop
  endfacet
  facet normal 0 0 1
    outer loop
      vertex 2.42339 4.19745 0
      vertex 24.2705 17.6336 0
      vertex 21.8691 20.5364 0
    endloop
  endfacet
  facet normal -0 0 1
    outer loop
      vertex 2.42339 -4.19745 0
      vertex 26.2892 -14.4526 0
      vertex 4.84679 0 0
    endloop
  endfacet
  facet normal 0 0 1
    outer loop
      vertex 2.42339 4.19745 0
      vertex 21.8691 20.5364 0
      vertex 19.1227 23.1154 0
    endloop
  endfacet
  facet normal 0 0 1
    outer loop
      vertex 26.2892 -14.4526 0
      vertex 2.42339 -4.19745 0
      vertex 24.2705 -17.6336 0
    endloop
  endfacet
  facet normal 0 0 1
    outer loop
      vertex 2.42339 4.19745 0
      vertex 19.1227 23.1154 0
      vertex 16.0748 25.3298 0
    endloop
  endfacet
  facet normal 0 0 1
    outer loop
      vertex 24.2705 -17.6336 0
      vertex 2.42339 -4.19745 0
      vertex 21.8691 -20.5364 0
    endloop
  endfacet
  facet normal 0 0 1
    outer loop
      vertex 2.42339 4.19745 0
      vertex 16.0748 25.3298 0
      vertex 12.7734 27.1448 0
    endloop
  endfacet
  facet normal 0 0 1
    outer loop
      vertex 21.8691 -20.5364 0
      vertex 2.42339 -4.19745 0
      vertex 19.1227 -23.1154 0
    endloop
  endfacet
  facet normal 0 0 1
    outer loop
      vertex 2.42339 4.19745 0
      vertex 12.7734 27.1448 0
      vertex 9.27051 28.5317 0
    endloop
  endfacet
  facet normal 0 0 1
    outer loop
      vertex 19.1227 -23.1154 0
      vertex 2.42339 -4.19745 0
      vertex 16.0748 -25.3298 0
    endloop
  endfacet
  facet normal 0 0 1
    outer loop
      vertex 2.42339 4.19745 0
      vertex 9.27051 28.5317 0
      vertex 5.62144 29.4686 0
    endloop
  endfacet
  facet normal 0 0 1
    outer loop
      vertex 16.0748 -25.3298 0
      vertex 2.42339 -4.19745 0
      vertex 12.7734 -27.1448 0
    endloop
  endfacet
  facet normal 0 0 1
    outer loop
      vertex 12.7734 -27.1448 0
      vertex 2.42339 -4.19745 0
      vertex 9.27051 -28.5317 0
    endloop
  endfacet
  facet normal 0 0 1
    outer loop
      vertex 26.2892 14.4526 0
      vertex 2.42339 4.19745 0
      vertex 4.84679 0 0
    endloop
  endfacet
  facet normal 0 0 1
    outer loop
      vertex 1.88371 29.9408 0
      vertex 2.42339 4.19745 0
      vertex 5.62144 29.4686 0
    endloop
  endfacet
  facet normal -0 0 1
    outer loop
      vertex -1.88371 29.9408 0
      vertex 2.42339 4.19745 0
      vertex 1.88371 29.9408 0
    endloop
  endfacet
  facet normal 0 0 1
    outer loop
      vertex -1.88371 29.9408 0
      vertex -2.42339 4.19745 0
      vertex 2.42339 4.19745 0
    endloop
  endfacet
  facet normal -0 0 1
    outer loop
      vertex -5.62144 29.4686 0
      vertex -2.42339 4.19745 0
      vertex -1.88371 29.9408 0
    endloop
  endfacet
  facet normal -0 0 1
    outer loop
      vertex -9.27051 28.5317 0
      vertex -2.42339 4.19745 0
      vertex -5.62144 29.4686 0
    endloop
  endfacet
  facet normal 0 0 1
    outer loop
      vertex 9.27051 -28.5317 0
      vertex 2.42339 -4.19745 0
      vertex 5.62144 -29.4686 0
    endloop
  endfacet
  facet normal 0 0 1
    outer loop
      vertex 2.42339 -4.19745 0
      vertex 1.88371 -29.9408 0
      vertex 5.62144 -29.4686 0
    endloop
  endfacet
  facet normal 0 0 1
    outer loop
      vertex 2.42339 -4.19745 0
      vertex -1.88371 -29.9408 0
      vertex 1.88371 -29.9408 0
    endloop
  endfacet
  facet normal -0 0 1
    outer loop
      vertex -2.42339 -4.19745 0
      vertex -1.88371 -29.9408 0
      vertex 2.42339 -4.19745 0
    endloop
  endfacet
  facet normal 0 0 1
    outer loop
      vertex -26.2892 -14.4526 0
      vertex -2.42339 -4.19745 0
      vertex -4.84679 0 0
    endloop
  endfacet
  facet normal 0 0 1
    outer loop
      vertex -2.42339 -4.19745 0
      vertex -5.62144 -29.4686 0
      vertex -1.88371 -29.9408 0
    endloop
  endfacet
  facet normal -0 0 1
    outer loop
      vertex -12.7734 27.1448 0
      vertex -2.42339 4.19745 0
      vertex -9.27051 28.5317 0
    endloop
  endfacet
  facet normal -0 0 1
    outer loop
      vertex -16.0748 25.3298 0
      vertex -2.42339 4.19745 0
      vertex -12.7734 27.1448 0
    endloop
  endfacet
  facet normal 0 0 1
    outer loop
      vertex -2.42339 -4.19745 0
      vertex -9.27051 -28.5317 0
      vertex -5.62144 -29.4686 0
    endloop
  endfacet
  facet normal -0 0 1
    outer loop
      vertex -19.1227 23.1154 0
      vertex -2.42339 4.19745 0
      vertex -16.0748 25.3298 0
    endloop
  endfacet
  facet normal 0 0 1
    outer loop
      vertex -2.42339 -4.19745 0
      vertex -12.7734 -27.1448 0
      vertex -9.27051 -28.5317 0
    endloop
  endfacet
  facet normal -0 0 1
    outer loop
      vertex -21.8691 20.5364 0
      vertex -2.42339 4.19745 0
      vertex -19.1227 23.1154 0
    endloop
  endfacet
  facet normal 0 0 1
    outer loop
      vertex -2.42339 -4.19745 0
      vertex -16.0748 -25.3298 0
      vertex -12.7734 -27.1448 0
    endloop
  endfacet
  facet normal -0 0 1
    outer loop
      vertex -24.2705 17.6336 0
      vertex -2.42339 4.19745 0
      vertex -21.8691 20.5364 0
    endloop
  endfacet
  facet normal 0 0 1
    outer loop
      vertex -2.42339 -4.19745 0
      vertex -19.1227 -23.1154 0
      vertex -16.0748 -25.3298 0
    endloop
  endfacet
  facet normal -0 0 1
    outer loop
      vertex -26.2892 14.4526 0
      vertex -2.42339 4.19745 0
      vertex -24.2705 17.6336 0
    endloop
  endfacet
  facet normal 0 0 1
    outer loop
      vertex -2.42339 -4.19745 0
      vertex -21.8691 -20.5364 0
      vertex -19.1227 -23.1154 0
    endloop
  endfacet
  facet normal 0 0 1
    outer loop
      vertex -2.42339 4.19745 0
      vertex -26.2892 14.4526 0
      vertex -4.84679 0 0
    endloop
  endfacet
  facet normal 0 0 1
    outer loop
      vertex -2.42339 -4.19745 0
      vertex -24.2705 -17.6336 0
      vertex -21.8691 -20.5364 0
    endloop
  endfacet
  facet normal -0 0 1
    outer loop
      vertex -27.8933 11.0437 0
      vertex -4.84679 0 0
      vertex -26.2892 14.4526 0
    endloop
  endfacet
  facet normal 0 0 1
    outer loop
      vertex -2.42339 -4.19745 0
      vertex -26.2892 -14.4526 0
      vertex -24.2705 -17.6336 0
    endloop
  endfacet
  facet normal -0 0 1
    outer loop
      vertex -29.0575 7.4607 0
      vertex -4.84679 0 0
      vertex -27.8933 11.0437 0
    endloop
  endfacet
  facet normal 0 0 1
    outer loop
      vertex -4.84679 0 0
      vertex -27.8933 -11.0437 0
      vertex -26.2892 -14.4526 0
    endloop
  endfacet
  facet normal -0 0 1
    outer loop
      vertex -29.7634 3.76 0
      vertex -4.84679 0 0
      vertex -29.0575 7.4607 0
    endloop
  endfacet
  facet normal 0 0 1
    outer loop
      vertex -4.84679 0 0
      vertex -29.0575 -7.4607 0
      vertex -27.8933 -11.0437 0
    endloop
  endfacet
  facet normal 0 0 1
    outer loop
      vertex -30 0 0
      vertex -4.84679 0 0
      vertex -29.7634 3.76 0
    endloop
  endfacet
  facet normal 0 0 1
    outer loop
      vertex -4.84679 0 0
      vertex -29.7634 -3.76 0
      vertex -29.0575 -7.4607 0
    endloop
  endfacet
  facet normal 0 0 1
    outer loop
      vertex -4.84679 0 0
      vertex -30 0 0
      vertex -29.7634 -3.76 0
    endloop
  endfacet
  facet normal -0.866025 -0.5 0
    outer loop
      vertex 4.84679 0 -4
      vertex 2.42339 4.19745 0
      vertex 2.42339 4.19745 -4
    endloop
  endfacet
  facet normal -0.866025 -0.5 0
    outer loop
      vertex 2.42339 4.19745 0
      vertex 4.84679 0 -4
      vertex 4.84679 0 0
    endloop
  endfacet
  facet normal 0.866025 0.5 0
    outer loop
      vertex -2.42339 -4.19745 0
      vertex -4.84679 0 -4
      vertex -4.84679 0 0
    endloop
  endfacet
  facet normal 0.866025 0.5 0
    outer loop
      vertex -4.84679 0 -4
      vertex -2.42339 -4.19745 0
      vertex -2.42339 -4.19745 -4
    endloop
  endfacet
  facet normal -0.998028 -0.0627774 0
    outer loop
      vertex 2.75 0 -7.5
      vertex 2.72832 0.344666 -4
      vertex 2.72832 0.344666 -7.5
    endloop
  endfacet
  facet normal -0.998028 -0.0627774 0
    outer loop
      vertex 2.72832 0.344666 -4
      vertex 2.75 0 -7.5
      vertex 2.75 0 -4
    endloop
  endfacet
  facet normal 0.998028 -0.0627774 0
    outer loop
      vertex -2.75 0 -4
      vertex -2.72832 0.344666 -7.5
      vertex -2.72832 0.344666 -4
    endloop
  endfacet
  facet normal 0.998028 -0.0627774 0
    outer loop
      vertex -2.72832 0.344666 -7.5
      vertex -2.75 0 -4
      vertex -2.75 0 -7.5
    endloop
  endfacet
  facet normal 0 -1 0
    outer loop
      vertex -0.172673 2.74457 -7.5
      vertex 0.172673 2.74457 -4
      vertex -0.172673 2.74457 -4
    endloop
  endfacet
  facet normal 0 -1 -0
    outer loop
      vertex 0.172673 2.74457 -4
      vertex -0.172673 2.74457 -7.5
      vertex 0.172673 2.74457 -7.5
    endloop
  endfacet
  facet normal 0 1 -0
    outer loop
      vertex 0.172673 -2.74457 -7.5
      vertex -0.172673 -2.74457 -4
      vertex 0.172673 -2.74457 -4
    endloop
  endfacet
  facet normal 0 1 0
    outer loop
      vertex -0.172673 -2.74457 -4
      vertex 0.172673 -2.74457 -7.5
      vertex -0.172673 -2.74457 -7.5
    endloop
  endfacet
  facet normal -0.684563 -0.728954 0
    outer loop
      vertex 1.75292 2.11891 -7.5
      vertex 2.00466 1.8825 -4
      vertex 1.75292 2.11891 -4
    endloop
  endfacet
  facet normal -0.684563 -0.728954 -0
    outer loop
      vertex 2.00466 1.8825 -4
      vertex 1.75292 2.11891 -7.5
      vertex 2.00466 1.8825 -7.5
    endloop
  endfacet
  facet normal 0.684563 -0.728954 0
    outer loop
      vertex -2.00466 1.8825 -7.5
      vertex -1.75292 2.11891 -4
      vertex -2.00466 1.8825 -4
    endloop
  endfacet
  facet normal 0.684563 -0.728954 0
    outer loop
      vertex -1.75292 2.11891 -4
      vertex -2.00466 1.8825 -7.5
      vertex -1.75292 2.11891 -7.5
    endloop
  endfacet
  facet normal 0.368149 -0.929767 0
    outer loop
      vertex -1.17089 2.48827 -7.5
      vertex -0.849796 2.61541 -4
      vertex -1.17089 2.48827 -4
    endloop
  endfacet
  facet normal 0.368149 -0.929767 0
    outer loop
      vertex -0.849796 2.61541 -4
      vertex -1.17089 2.48827 -7.5
      vertex -0.849796 2.61541 -7.5
    endloop
  endfacet
  facet normal -0.904829 0.425775 0
    outer loop
      vertex 2.40984 -1.32482 -7.5
      vertex 2.55688 -1.01234 -4
      vertex 2.55688 -1.01234 -7.5
    endloop
  endfacet
  facet normal -0.904829 0.425775 0
    outer loop
      vertex 2.55688 -1.01234 -4
      vertex 2.40984 -1.32482 -7.5
      vertex 2.40984 -1.32482 -4
    endloop
  endfacet
  facet normal -0.904829 -0.425775 0
    outer loop
      vertex 2.55688 1.01234 -7.5
      vertex 2.40984 1.32482 -4
      vertex 2.40984 1.32482 -7.5
    endloop
  endfacet
  facet normal -0.904829 -0.425775 0
    outer loop
      vertex 2.40984 1.32482 -4
      vertex 2.55688 1.01234 -7.5
      vertex 2.55688 1.01234 -4
    endloop
  endfacet
  facet normal -0.368149 -0.929767 0
    outer loop
      vertex 0.849796 2.61541 -7.5
      vertex 1.17089 2.48827 -4
      vertex 0.849796 2.61541 -4
    endloop
  endfacet
  facet normal -0.368149 -0.929767 -0
    outer loop
      vertex 1.17089 2.48827 -4
      vertex 0.849796 2.61541 -7.5
      vertex 1.17089 2.48827 -7.5
    endloop
  endfacet
  facet normal -0.587774 -0.809025 0
    outer loop
      vertex 1.47352 2.3219 -7.5
      vertex 1.75292 2.11891 -4
      vertex 1.47352 2.3219 -4
    endloop
  endfacet
  facet normal -0.587774 -0.809025 -0
    outer loop
      vertex 1.75292 2.11891 -4
      vertex 1.47352 2.3219 -7.5
      vertex 1.75292 2.11891 -7.5
    endloop
  endfacet
  facet normal 0.904829 -0.425775 0
    outer loop
      vertex -2.55688 1.01234 -4
      vertex -2.40984 1.32482 -7.5
      vertex -2.40984 1.32482 -4
    endloop
  endfacet
  facet normal 0.904829 -0.425775 0
    outer loop
      vertex -2.40984 1.32482 -7.5
      vertex -2.55688 1.01234 -4
      vertex -2.55688 1.01234 -7.5
    endloop
  endfacet
  facet normal 0.770497 -0.637443 0
    outer loop
      vertex -2.2248 1.61641 -4
      vertex -2.00466 1.8825 -7.5
      vertex -2.00466 1.8825 -4
    endloop
  endfacet
  facet normal 0.770497 -0.637443 0
    outer loop
      vertex -2.00466 1.8825 -7.5
      vertex -2.2248 1.61641 -4
      vertex -2.2248 1.61641 -7.5
    endloop
  endfacet
  facet normal 0.481749 -0.876309 0
    outer loop
      vertex -1.47352 2.3219 -7.5
      vertex -1.17089 2.48827 -4
      vertex -1.47352 2.3219 -4
    endloop
  endfacet
  facet normal 0.481749 -0.876309 0
    outer loop
      vertex -1.17089 2.48827 -4
      vertex -1.47352 2.3219 -7.5
      vertex -1.17089 2.48827 -7.5
    endloop
  endfacet
  facet normal 0.248678 -0.968586 0
    outer loop
      vertex -0.849796 2.61541 -7.5
      vertex -0.515298 2.70129 -4
      vertex -0.849796 2.61541 -4
    endloop
  endfacet
  facet normal 0.248678 -0.968586 0
    outer loop
      vertex -0.515298 2.70129 -4
      vertex -0.849796 2.61541 -7.5
      vertex -0.515298 2.70129 -7.5
    endloop
  endfacet
  facet normal -0.125323 0.992116 0
    outer loop
      vertex 0.515298 -2.70129 -7.5
      vertex 0.172673 -2.74457 -4
      vertex 0.515298 -2.70129 -4
    endloop
  endfacet
  facet normal -0.125323 0.992116 0
    outer loop
      vertex 0.172673 -2.74457 -4
      vertex 0.515298 -2.70129 -7.5
      vertex 0.172673 -2.74457 -7.5
    endloop
  endfacet
  facet normal -0.368149 0.929767 0
    outer loop
      vertex 1.17089 -2.48827 -7.5
      vertex 0.849796 -2.61541 -4
      vertex 1.17089 -2.48827 -4
    endloop
  endfacet
  facet normal -0.368149 0.929767 0
    outer loop
      vertex 0.849796 -2.61541 -4
      vertex 1.17089 -2.48827 -7.5
      vertex 0.849796 -2.61541 -7.5
    endloop
  endfacet
  facet normal -0.951054 -0.309023 0
    outer loop
      vertex 2.6636 0.683897 -7.5
      vertex 2.55688 1.01234 -4
      vertex 2.55688 1.01234 -7.5
    endloop
  endfacet
  facet normal -0.951054 -0.309023 0
    outer loop
      vertex 2.55688 1.01234 -4
      vertex 2.6636 0.683897 -7.5
      vertex 2.6636 0.683897 -4
    endloop
  endfacet
  facet normal -0.982283 -0.187404 0
    outer loop
      vertex 2.72832 0.344666 -7.5
      vertex 2.6636 0.683897 -4
      vertex 2.6636 0.683897 -7.5
    endloop
  endfacet
  facet normal -0.982283 -0.187404 0
    outer loop
      vertex 2.6636 0.683897 -4
      vertex 2.72832 0.344666 -7.5
      vertex 2.72832 0.344666 -4
    endloop
  endfacet
  facet normal -0.770497 -0.637443 0
    outer loop
      vertex 2.2248 1.61641 -7.5
      vertex 2.00466 1.8825 -4
      vertex 2.00466 1.8825 -7.5
    endloop
  endfacet
  facet normal -0.770497 -0.637443 0
    outer loop
      vertex 2.00466 1.8825 -4
      vertex 2.2248 1.61641 -7.5
      vertex 2.2248 1.61641 -4
    endloop
  endfacet
  facet normal -0.844339 -0.535809 0
    outer loop
      vertex 2.40984 1.32482 -7.5
      vertex 2.2248 1.61641 -4
      vertex 2.2248 1.61641 -7.5
    endloop
  endfacet
  facet normal -0.844339 -0.535809 0
    outer loop
      vertex 2.2248 1.61641 -4
      vertex 2.40984 1.32482 -7.5
      vertex 2.40984 1.32482 -4
    endloop
  endfacet
  facet normal -0.248678 -0.968586 0
    outer loop
      vertex 0.515298 2.70129 -7.5
      vertex 0.849796 2.61541 -4
      vertex 0.515298 2.70129 -4
    endloop
  endfacet
  facet normal -0.248678 -0.968586 -0
    outer loop
      vertex 0.849796 2.61541 -4
      vertex 0.515298 2.70129 -7.5
      vertex 0.849796 2.61541 -7.5
    endloop
  endfacet
  facet normal -0.125323 -0.992116 0
    outer loop
      vertex 0.172673 2.74457 -7.5
      vertex 0.515298 2.70129 -4
      vertex 0.172673 2.74457 -4
    endloop
  endfacet
  facet normal -0.125323 -0.992116 -0
    outer loop
      vertex 0.515298 2.70129 -4
      vertex 0.172673 2.74457 -7.5
      vertex 0.515298 2.70129 -7.5
    endloop
  endfacet
  facet normal -0.481749 -0.876309 0
    outer loop
      vertex 1.17089 2.48827 -7.5
      vertex 1.47352 2.3219 -4
      vertex 1.17089 2.48827 -4
    endloop
  endfacet
  facet normal -0.481749 -0.876309 -0
    outer loop
      vertex 1.47352 2.3219 -4
      vertex 1.17089 2.48827 -7.5
      vertex 1.47352 2.3219 -7.5
    endloop
  endfacet
  facet normal 0.844339 -0.535809 0
    outer loop
      vertex -2.40984 1.32482 -4
      vertex -2.2248 1.61641 -7.5
      vertex -2.2248 1.61641 -4
    endloop
  endfacet
  facet normal 0.844339 -0.535809 0
    outer loop
      vertex -2.2248 1.61641 -7.5
      vertex -2.40984 1.32482 -4
      vertex -2.40984 1.32482 -7.5
    endloop
  endfacet
  facet normal 0.951054 -0.309023 0
    outer loop
      vertex -2.6636 0.683897 -4
      vertex -2.55688 1.01234 -7.5
      vertex -2.55688 1.01234 -4
    endloop
  endfacet
  facet normal 0.951054 -0.309023 0
    outer loop
      vertex -2.55688 1.01234 -7.5
      vertex -2.6636 0.683897 -4
      vertex -2.6636 0.683897 -7.5
    endloop
  endfacet
  facet normal 0.982283 -0.187404 0
    outer loop
      vertex -2.72832 0.344666 -4
      vertex -2.6636 0.683897 -7.5
      vertex -2.6636 0.683897 -4
    endloop
  endfacet
  facet normal 0.982283 -0.187404 0
    outer loop
      vertex -2.6636 0.683897 -7.5
      vertex -2.72832 0.344666 -4
      vertex -2.72832 0.344666 -7.5
    endloop
  endfacet
  facet normal 0.587774 -0.809025 0
    outer loop
      vertex -1.75292 2.11891 -7.5
      vertex -1.47352 2.3219 -4
      vertex -1.75292 2.11891 -4
    endloop
  endfacet
  facet normal 0.587774 -0.809025 0
    outer loop
      vertex -1.47352 2.3219 -4
      vertex -1.75292 2.11891 -7.5
      vertex -1.47352 2.3219 -7.5
    endloop
  endfacet
  facet normal 0.125323 -0.992116 0
    outer loop
      vertex -0.515298 2.70129 -7.5
      vertex -0.172673 2.74457 -4
      vertex -0.515298 2.70129 -4
    endloop
  endfacet
  facet normal 0.125323 -0.992116 0
    outer loop
      vertex -0.172673 2.74457 -4
      vertex -0.515298 2.70129 -7.5
      vertex -0.172673 2.74457 -7.5
    endloop
  endfacet
  facet normal -0.998028 0.0627774 0
    outer loop
      vertex 2.72832 -0.344666 -7.5
      vertex 2.75 0 -4
      vertex 2.75 0 -7.5
    endloop
  endfacet
  facet normal -0.998028 0.0627774 0
    outer loop
      vertex 2.75 0 -4
      vertex 2.72832 -0.344666 -7.5
      vertex 2.72832 -0.344666 -4
    endloop
  endfacet
  facet normal -0.770497 0.637443 0
    outer loop
      vertex 2.00466 -1.8825 -7.5
      vertex 2.2248 -1.61641 -4
      vertex 2.2248 -1.61641 -7.5
    endloop
  endfacet
  facet normal -0.770497 0.637443 0
    outer loop
      vertex 2.2248 -1.61641 -4
      vertex 2.00466 -1.8825 -7.5
      vertex 2.00466 -1.8825 -4
    endloop
  endfacet
  facet normal 0.684563 0.728954 -0
    outer loop
      vertex -1.75292 -2.11891 -7.5
      vertex -2.00466 -1.8825 -4
      vertex -1.75292 -2.11891 -4
    endloop
  endfacet
  facet normal 0.684563 0.728954 0
    outer loop
      vertex -2.00466 -1.8825 -4
      vertex -1.75292 -2.11891 -7.5
      vertex -2.00466 -1.8825 -7.5
    endloop
  endfacet
  facet normal 0.904829 0.425775 0
    outer loop
      vertex -2.40984 -1.32482 -4
      vertex -2.55688 -1.01234 -7.5
      vertex -2.55688 -1.01234 -4
    endloop
  endfacet
  facet normal 0.904829 0.425775 0
    outer loop
      vertex -2.55688 -1.01234 -7.5
      vertex -2.40984 -1.32482 -4
      vertex -2.40984 -1.32482 -7.5
    endloop
  endfacet
  facet normal 0.770497 0.637443 0
    outer loop
      vertex -2.00466 -1.8825 -4
      vertex -2.2248 -1.61641 -7.5
      vertex -2.2248 -1.61641 -4
    endloop
  endfacet
  facet normal 0.770497 0.637443 0
    outer loop
      vertex -2.2248 -1.61641 -7.5
      vertex -2.00466 -1.8825 -4
      vertex -2.00466 -1.8825 -7.5
    endloop
  endfacet
  facet normal -0.481749 0.876309 0
    outer loop
      vertex 1.47352 -2.3219 -7.5
      vertex 1.17089 -2.48827 -4
      vertex 1.47352 -2.3219 -4
    endloop
  endfacet
  facet normal -0.481749 0.876309 0
    outer loop
      vertex 1.17089 -2.48827 -4
      vertex 1.47352 -2.3219 -7.5
      vertex 1.17089 -2.48827 -7.5
    endloop
  endfacet
  facet normal -0.951054 0.309023 0
    outer loop
      vertex 2.55688 -1.01234 -7.5
      vertex 2.6636 -0.683897 -4
      vertex 2.6636 -0.683897 -7.5
    endloop
  endfacet
  facet normal -0.951054 0.309023 0
    outer loop
      vertex 2.6636 -0.683897 -4
      vertex 2.55688 -1.01234 -7.5
      vertex 2.55688 -1.01234 -4
    endloop
  endfacet
  facet normal -0.844339 0.535809 0
    outer loop
      vertex 2.2248 -1.61641 -7.5
      vertex 2.40984 -1.32482 -4
      vertex 2.40984 -1.32482 -7.5
    endloop
  endfacet
  facet normal -0.844339 0.535809 0
    outer loop
      vertex 2.40984 -1.32482 -4
      vertex 2.2248 -1.61641 -7.5
      vertex 2.2248 -1.61641 -4
    endloop
  endfacet
  facet normal 0.982283 0.187404 0
    outer loop
      vertex -2.6636 -0.683897 -4
      vertex -2.72832 -0.344666 -7.5
      vertex -2.72832 -0.344666 -4
    endloop
  endfacet
  facet normal 0.982283 0.187404 0
    outer loop
      vertex -2.72832 -0.344666 -7.5
      vertex -2.6636 -0.683897 -4
      vertex -2.6636 -0.683897 -7.5
    endloop
  endfacet
  facet normal 0.998028 0.0627774 0
    outer loop
      vertex -2.72832 -0.344666 -4
      vertex -2.75 0 -7.5
      vertex -2.75 0 -4
    endloop
  endfacet
  facet normal 0.998028 0.0627774 0
    outer loop
      vertex -2.75 0 -7.5
      vertex -2.72832 -0.344666 -4
      vertex -2.72832 -0.344666 -7.5
    endloop
  endfacet
  facet normal 0.951054 0.309023 0
    outer loop
      vertex -2.55688 -1.01234 -4
      vertex -2.6636 -0.683897 -7.5
      vertex -2.6636 -0.683897 -4
    endloop
  endfacet
  facet normal 0.951054 0.309023 0
    outer loop
      vertex -2.6636 -0.683897 -7.5
      vertex -2.55688 -1.01234 -4
      vertex -2.55688 -1.01234 -7.5
    endloop
  endfacet
  facet normal -0.587774 0.809025 0
    outer loop
      vertex 1.75292 -2.11891 -7.5
      vertex 1.47352 -2.3219 -4
      vertex 1.75292 -2.11891 -4
    endloop
  endfacet
  facet normal -0.587774 0.809025 0
    outer loop
      vertex 1.47352 -2.3219 -4
      vertex 1.75292 -2.11891 -7.5
      vertex 1.47352 -2.3219 -7.5
    endloop
  endfacet
  facet normal -0.248678 0.968586 0
    outer loop
      vertex 0.849796 -2.61541 -7.5
      vertex 0.515298 -2.70129 -4
      vertex 0.849796 -2.61541 -4
    endloop
  endfacet
  facet normal -0.248678 0.968586 0
    outer loop
      vertex 0.515298 -2.70129 -4
      vertex 0.849796 -2.61541 -7.5
      vertex 0.515298 -2.70129 -7.5
    endloop
  endfacet
  facet normal -0.982283 0.187404 0
    outer loop
      vertex 2.6636 -0.683897 -7.5
      vertex 2.72832 -0.344666 -4
      vertex 2.72832 -0.344666 -7.5
    endloop
  endfacet
  facet normal -0.982283 0.187404 0
    outer loop
      vertex 2.72832 -0.344666 -4
      vertex 2.6636 -0.683897 -7.5
      vertex 2.6636 -0.683897 -4
    endloop
  endfacet
  facet normal 0.125323 0.992116 -0
    outer loop
      vertex -0.172673 -2.74457 -7.5
      vertex -0.515298 -2.70129 -4
      vertex -0.172673 -2.74457 -4
    endloop
  endfacet
  facet normal 0.125323 0.992116 0
    outer loop
      vertex -0.515298 -2.70129 -4
      vertex -0.172673 -2.74457 -7.5
      vertex -0.515298 -2.70129 -7.5
    endloop
  endfacet
  facet normal 0.368149 0.929767 -0
    outer loop
      vertex -0.849796 -2.61541 -7.5
      vertex -1.17089 -2.48827 -4
      vertex -0.849796 -2.61541 -4
    endloop
  endfacet
  facet normal 0.368149 0.929767 0
    outer loop
      vertex -1.17089 -2.48827 -4
      vertex -0.849796 -2.61541 -7.5
      vertex -1.17089 -2.48827 -7.5
    endloop
  endfacet
  facet normal 0.248678 0.968586 -0
    outer loop
      vertex -0.515298 -2.70129 -7.5
      vertex -0.849796 -2.61541 -4
      vertex -0.515298 -2.70129 -4
    endloop
  endfacet
  facet normal 0.248678 0.968586 0
    outer loop
      vertex -0.849796 -2.61541 -4
      vertex -0.515298 -2.70129 -7.5
      vertex -0.849796 -2.61541 -7.5
    endloop
  endfacet
  facet normal 0.844339 0.535809 0
    outer loop
      vertex -2.2248 -1.61641 -4
      vertex -2.40984 -1.32482 -7.5
      vertex -2.40984 -1.32482 -4
    endloop
  endfacet
  facet normal 0.844339 0.535809 0
    outer loop
      vertex -2.40984 -1.32482 -7.5
      vertex -2.2248 -1.61641 -4
      vertex -2.2248 -1.61641 -7.5
    endloop
  endfacet
  facet normal -0.684563 0.728954 0
    outer loop
      vertex 2.00466 -1.8825 -7.5
      vertex 1.75292 -2.11891 -4
      vertex 2.00466 -1.8825 -4
    endloop
  endfacet
  facet normal -0.684563 0.728954 0
    outer loop
      vertex 1.75292 -2.11891 -4
      vertex 2.00466 -1.8825 -7.5
      vertex 1.75292 -2.11891 -7.5
    endloop
  endfacet
  facet normal 0.481749 0.876309 -0
    outer loop
      vertex -1.17089 -2.48827 -7.5
      vertex -1.47352 -2.3219 -4
      vertex -1.17089 -2.48827 -4
    endloop
  endfacet
  facet normal 0.481749 0.876309 0
    outer loop
      vertex -1.47352 -2.3219 -4
      vertex -1.17089 -2.48827 -7.5
      vertex -1.47352 -2.3219 -7.5
    endloop
  endfacet
  facet normal 0.587774 0.809025 -0
    outer loop
      vertex -1.47352 -2.3219 -7.5
      vertex -1.75292 -2.11891 -4
      vertex -1.47352 -2.3219 -4
    endloop
  endfacet
  facet normal 0.587774 0.809025 0
    outer loop
      vertex -1.75292 -2.11891 -4
      vertex -1.47352 -2.3219 -7.5
      vertex -1.75292 -2.11891 -7.5
    endloop
  endfacet
  facet normal 0.998026 0.0628013 0
    outer loop
      vertex 30 0 0
      vertex 29.7634 3.76 -7.5
      vertex 29.7634 3.76 0
    endloop
  endfacet
  facet normal 0.998026 0.0628013 0
    outer loop
      vertex 29.7634 3.76 -7.5
      vertex 30 0 0
      vertex 30 0 -7.5
    endloop
  endfacet
  facet normal -0.998026 0.0628013 0
    outer loop
      vertex -30 0 -7.5
      vertex -29.7634 3.76 0
      vertex -29.7634 3.76 -7.5
    endloop
  endfacet
  facet normal -0.998026 0.0628013 0
    outer loop
      vertex -29.7634 3.76 0
      vertex -30 0 -7.5
      vertex -30 0 0
    endloop
  endfacet
  facet normal 0 1 -0
    outer loop
      vertex 1.88371 29.9408 -7.5
      vertex -1.88371 29.9408 0
      vertex 1.88371 29.9408 0
    endloop
  endfacet
  facet normal 0 1 0
    outer loop
      vertex -1.88371 29.9408 0
      vertex 1.88371 29.9408 -7.5
      vertex -1.88371 29.9408 -7.5
    endloop
  endfacet
  facet normal 0 -1 0
    outer loop
      vertex -1.88371 -29.9408 -7.5
      vertex 1.88371 -29.9408 0
      vertex -1.88371 -29.9408 0
    endloop
  endfacet
  facet normal 0 -1 -0
    outer loop
      vertex 1.88371 -29.9408 0
      vertex -1.88371 -29.9408 -7.5
      vertex 1.88371 -29.9408 -7.5
    endloop
  endfacet
  facet normal 0.684541 0.728974 -0
    outer loop
      vertex 21.8691 20.5364 -7.5
      vertex 19.1227 23.1154 0
      vertex 21.8691 20.5364 0
    endloop
  endfacet
  facet normal 0.684541 0.728974 0
    outer loop
      vertex 19.1227 23.1154 0
      vertex 21.8691 20.5364 -7.5
      vertex 19.1227 23.1154 -7.5
    endloop
  endfacet
  facet normal -0.684541 0.728974 0
    outer loop
      vertex -19.1227 23.1154 -7.5
      vertex -21.8691 20.5364 0
      vertex -19.1227 23.1154 0
    endloop
  endfacet
  facet normal -0.684541 0.728974 0
    outer loop
      vertex -21.8691 20.5364 0
      vertex -19.1227 23.1154 -7.5
      vertex -21.8691 20.5364 -7.5
    endloop
  endfacet
  facet normal -0.368126 0.929776 0
    outer loop
      vertex -9.27051 28.5317 -7.5
      vertex -12.7734 27.1448 0
      vertex -9.27051 28.5317 0
    endloop
  endfacet
  facet normal -0.368126 0.929776 0
    outer loop
      vertex -12.7734 27.1448 0
      vertex -9.27051 28.5317 -7.5
      vertex -12.7734 27.1448 -7.5
    endloop
  endfacet
  facet normal 0.904828 0.425778 0
    outer loop
      vertex 27.8933 11.0437 0
      vertex 26.2892 14.4526 -7.5
      vertex 26.2892 14.4526 0
    endloop
  endfacet
  facet normal 0.904828 0.425778 0
    outer loop
      vertex 26.2892 14.4526 -7.5
      vertex 27.8933 11.0437 0
      vertex 27.8933 11.0437 -7.5
    endloop
  endfacet
  facet normal 0.844331 0.535822 0
    outer loop
      vertex 26.2892 14.4526 0
      vertex 24.2705 17.6336 -7.5
      vertex 24.2705 17.6336 0
    endloop
  endfacet
  facet normal 0.844331 0.535822 0
    outer loop
      vertex 24.2705 17.6336 -7.5
      vertex 26.2892 14.4526 0
      vertex 26.2892 14.4526 -7.5
    endloop
  endfacet
  facet normal 0.368126 0.929776 -0
    outer loop
      vertex 12.7734 27.1448 -7.5
      vertex 9.27051 28.5317 0
      vertex 12.7734 27.1448 0
    endloop
  endfacet
  facet normal 0.368126 0.929776 0
    outer loop
      vertex 9.27051 28.5317 0
      vertex 12.7734 27.1448 -7.5
      vertex 9.27051 28.5317 -7.5
    endloop
  endfacet
  facet normal 0.248684 0.968585 -0
    outer loop
      vertex 9.27051 28.5317 -7.5
      vertex 5.62144 29.4686 0
      vertex 9.27051 28.5317 0
    endloop
  endfacet
  facet normal 0.248684 0.968585 0
    outer loop
      vertex 5.62144 29.4686 0
      vertex 9.27051 28.5317 -7.5
      vertex 5.62144 29.4686 -7.5
    endloop
  endfacet
  facet normal 0.58778 0.809021 -0
    outer loop
      vertex 19.1227 23.1154 -7.5
      vertex 16.0748 25.3298 0
      vertex 19.1227 23.1154 0
    endloop
  endfacet
  facet normal 0.58778 0.809021 0
    outer loop
      vertex 16.0748 25.3298 0
      vertex 19.1227 23.1154 -7.5
      vertex 16.0748 25.3298 -7.5
    endloop
  endfacet
  facet normal -0.904828 0.425778 0
    outer loop
      vertex -27.8933 11.0437 -7.5
      vertex -26.2892 14.4526 0
      vertex -26.2892 14.4526 -7.5
    endloop
  endfacet
  facet normal -0.904828 0.425778 0
    outer loop
      vertex -26.2892 14.4526 0
      vertex -27.8933 11.0437 -7.5
      vertex -27.8933 11.0437 0
    endloop
  endfacet
  facet normal -0.770514 0.637423 0
    outer loop
      vertex -24.2705 17.6336 -7.5
      vertex -21.8691 20.5364 0
      vertex -21.8691 20.5364 -7.5
    endloop
  endfacet
  facet normal -0.770514 0.637423 0
    outer loop
      vertex -21.8691 20.5364 0
      vertex -24.2705 17.6336 -7.5
      vertex -24.2705 17.6336 0
    endloop
  endfacet
  facet normal -0.951056 0.30902 0
    outer loop
      vertex -29.0575 7.4607 -7.5
      vertex -27.8933 11.0437 0
      vertex -27.8933 11.0437 -7.5
    endloop
  endfacet
  facet normal -0.951056 0.30902 0
    outer loop
      vertex -27.8933 11.0437 0
      vertex -29.0575 7.4607 -7.5
      vertex -29.0575 7.4607 0
    endloop
  endfacet
  facet normal -0.481762 0.876302 0
    outer loop
      vertex -12.7734 27.1448 -7.5
      vertex -16.0748 25.3298 0
      vertex -12.7734 27.1448 0
    endloop
  endfacet
  facet normal -0.481762 0.876302 0
    outer loop
      vertex -16.0748 25.3298 0
      vertex -12.7734 27.1448 -7.5
      vertex -16.0748 25.3298 -7.5
    endloop
  endfacet
  facet normal -0.248684 0.968585 0
    outer loop
      vertex -5.62144 29.4686 -7.5
      vertex -9.27051 28.5317 0
      vertex -5.62144 29.4686 0
    endloop
  endfacet
  facet normal -0.248684 0.968585 0
    outer loop
      vertex -9.27051 28.5317 0
      vertex -5.62144 29.4686 -7.5
      vertex -9.27051 28.5317 -7.5
    endloop
  endfacet
  facet normal 0.125337 -0.992114 0
    outer loop
      vertex 1.88371 -29.9408 -7.5
      vertex 5.62144 -29.4686 0
      vertex 1.88371 -29.9408 0
    endloop
  endfacet
  facet normal 0.125337 -0.992114 0
    outer loop
      vertex 5.62144 -29.4686 0
      vertex 1.88371 -29.9408 -7.5
      vertex 5.62144 -29.4686 -7.5
    endloop
  endfacet
  facet normal 0.368126 -0.929776 0
    outer loop
      vertex 9.27051 -28.5317 -7.5
      vertex 12.7734 -27.1448 0
      vertex 9.27051 -28.5317 0
    endloop
  endfacet
  facet normal 0.368126 -0.929776 0
    outer loop
      vertex 12.7734 -27.1448 0
      vertex 9.27051 -28.5317 -7.5
      vertex 12.7734 -27.1448 -7.5
    endloop
  endfacet
  facet normal 0.951056 0.30902 0
    outer loop
      vertex 29.0575 7.4607 0
      vertex 27.8933 11.0437 -7.5
      vertex 27.8933 11.0437 0
    endloop
  endfacet
  facet normal 0.951056 0.30902 0
    outer loop
      vertex 27.8933 11.0437 -7.5
      vertex 29.0575 7.4607 0
      vertex 29.0575 7.4607 -7.5
    endloop
  endfacet
  facet normal 0.98229 0.187369 0
    outer loop
      vertex 29.7634 3.76 0
      vertex 29.0575 7.4607 -7.5
      vertex 29.0575 7.4607 0
    endloop
  endfacet
  facet normal 0.98229 0.187369 0
    outer loop
      vertex 29.0575 7.4607 -7.5
      vertex 29.7634 3.76 0
      vertex 29.7634 3.76 -7.5
    endloop
  endfacet
  facet normal 0.770514 0.637423 0
    outer loop
      vertex 24.2705 17.6336 0
      vertex 21.8691 20.5364 -7.5
      vertex 21.8691 20.5364 0
    endloop
  endfacet
  facet normal 0.770514 0.637423 0
    outer loop
      vertex 21.8691 20.5364 -7.5
      vertex 24.2705 17.6336 0
      vertex 24.2705 17.6336 -7.5
    endloop
  endfacet
  facet normal 0.125337 0.992114 -0
    outer loop
      vertex 5.62144 29.4686 -7.5
      vertex 1.88371 29.9408 0
      vertex 5.62144 29.4686 0
    endloop
  endfacet
  facet normal 0.125337 0.992114 0
    outer loop
      vertex 1.88371 29.9408 0
      vertex 5.62144 29.4686 -7.5
      vertex 1.88371 29.9408 -7.5
    endloop
  endfacet
  facet normal 0.481762 0.876302 -0
    outer loop
      vertex 16.0748 25.3298 -7.5
      vertex 12.7734 27.1448 0
      vertex 16.0748 25.3298 0
    endloop
  endfacet
  facet normal 0.481762 0.876302 0
    outer loop
      vertex 12.7734 27.1448 0
      vertex 16.0748 25.3298 -7.5
      vertex 12.7734 27.1448 -7.5
    endloop
  endfacet
  facet normal -0.844331 0.535822 0
    outer loop
      vertex -26.2892 14.4526 -7.5
      vertex -24.2705 17.6336 0
      vertex -24.2705 17.6336 -7.5
    endloop
  endfacet
  facet normal -0.844331 0.535822 0
    outer loop
      vertex -24.2705 17.6336 0
      vertex -26.2892 14.4526 -7.5
      vertex -26.2892 14.4526 0
    endloop
  endfacet
  facet normal -0.98229 0.187369 0
    outer loop
      vertex -29.7634 3.76 -7.5
      vertex -29.0575 7.4607 0
      vertex -29.0575 7.4607 -7.5
    endloop
  endfacet
  facet normal -0.98229 0.187369 0
    outer loop
      vertex -29.0575 7.4607 0
      vertex -29.7634 3.76 -7.5
      vertex -29.7634 3.76 0
    endloop
  endfacet
  facet normal -0.58778 0.809021 0
    outer loop
      vertex -16.0748 25.3298 -7.5
      vertex -19.1227 23.1154 0
      vertex -16.0748 25.3298 0
    endloop
  endfacet
  facet normal -0.58778 0.809021 0
    outer loop
      vertex -19.1227 23.1154 0
      vertex -16.0748 25.3298 -7.5
      vertex -19.1227 23.1154 -7.5
    endloop
  endfacet
  facet normal -0.125337 0.992114 0
    outer loop
      vertex -1.88371 29.9408 -7.5
      vertex -5.62144 29.4686 0
      vertex -1.88371 29.9408 0
    endloop
  endfacet
  facet normal -0.125337 0.992114 0
    outer loop
      vertex -5.62144 29.4686 0
      vertex -1.88371 29.9408 -7.5
      vertex -5.62144 29.4686 -7.5
    endloop
  endfacet
  facet normal 0.770514 -0.637423 0
    outer loop
      vertex 21.8691 -20.5364 0
      vertex 24.2705 -17.6336 -7.5
      vertex 24.2705 -17.6336 0
    endloop
  endfacet
  facet normal 0.770514 -0.637423 0
    outer loop
      vertex 24.2705 -17.6336 -7.5
      vertex 21.8691 -20.5364 0
      vertex 21.8691 -20.5364 -7.5
    endloop
  endfacet
  facet normal 0.951056 -0.30902 0
    outer loop
      vertex 27.8933 -11.0437 0
      vertex 29.0575 -7.4607 -7.5
      vertex 29.0575 -7.4607 0
    endloop
  endfacet
  facet normal 0.951056 -0.30902 0
    outer loop
      vertex 29.0575 -7.4607 -7.5
      vertex 27.8933 -11.0437 0
      vertex 27.8933 -11.0437 -7.5
    endloop
  endfacet
  facet normal 0.98229 -0.187369 0
    outer loop
      vertex 29.0575 -7.4607 0
      vertex 29.7634 -3.76 -7.5
      vertex 29.7634 -3.76 0
    endloop
  endfacet
  facet normal 0.98229 -0.187369 0
    outer loop
      vertex 29.7634 -3.76 -7.5
      vertex 29.0575 -7.4607 0
      vertex 29.0575 -7.4607 -7.5
    endloop
  endfacet
  facet normal -0.770514 -0.637423 0
    outer loop
      vertex -21.8691 -20.5364 -7.5
      vertex -24.2705 -17.6336 0
      vertex -24.2705 -17.6336 -7.5
    endloop
  endfacet
  facet normal -0.770514 -0.637423 0
    outer loop
      vertex -24.2705 -17.6336 0
      vertex -21.8691 -20.5364 -7.5
      vertex -21.8691 -20.5364 0
    endloop
  endfacet
  facet normal 0 0 -1
    outer loop
      vertex 2.75 0 -7.5
      vertex 30 0 -7.5
      vertex 29.7634 -3.76 -7.5
    endloop
  endfacet
  facet normal 0 0 -1
    outer loop
      vertex 2.72832 -0.344666 -7.5
      vertex 29.7634 -3.76 -7.5
      vertex 29.0575 -7.4607 -7.5
    endloop
  endfacet
  facet normal 0 0 -1
    outer loop
      vertex 30 0 -7.5
      vertex 2.75 0 -7.5
      vertex 29.7634 3.76 -7.5
    endloop
  endfacet
  facet normal 0 0 -1
    outer loop
      vertex 2.6636 -0.683897 -7.5
      vertex 29.0575 -7.4607 -7.5
      vertex 27.8933 -11.0437 -7.5
    endloop
  endfacet
  facet normal 0 0 -1
    outer loop
      vertex 2.72832 0.344666 -7.5
      vertex 29.7634 3.76 -7.5
      vertex 2.75 0 -7.5
    endloop
  endfacet
  facet normal 0 0 -1
    outer loop
      vertex 2.55688 -1.01234 -7.5
      vertex 27.8933 -11.0437 -7.5
      vertex 26.2892 -14.4526 -7.5
    endloop
  endfacet
  facet normal -0 0 -1
    outer loop
      vertex 29.7634 3.76 -7.5
      vertex 2.72832 0.344666 -7.5
      vertex 29.0575 7.4607 -7.5
    endloop
  endfacet
  facet normal 0 0 -1
    outer loop
      vertex 2.40984 -1.32482 -7.5
      vertex 26.2892 -14.4526 -7.5
      vertex 24.2705 -17.6336 -7.5
    endloop
  endfacet
  facet normal 0 0 -1
    outer loop
      vertex 2.6636 0.683897 -7.5
      vertex 29.0575 7.4607 -7.5
      vertex 2.72832 0.344666 -7.5
    endloop
  endfacet
  facet normal 0 0 -1
    outer loop
      vertex 2.2248 -1.61641 -7.5
      vertex 24.2705 -17.6336 -7.5
      vertex 21.8691 -20.5364 -7.5
    endloop
  endfacet
  facet normal -0 0 -1
    outer loop
      vertex 29.0575 7.4607 -7.5
      vertex 2.6636 0.683897 -7.5
      vertex 27.8933 11.0437 -7.5
    endloop
  endfacet
  facet normal 0 0 -1
    outer loop
      vertex 2.00466 -1.8825 -7.5
      vertex 21.8691 -20.5364 -7.5
      vertex 19.1227 -23.1154 -7.5
    endloop
  endfacet
  facet normal 0 0 -1
    outer loop
      vertex 2.55688 1.01234 -7.5
      vertex 27.8933 11.0437 -7.5
      vertex 2.6636 0.683897 -7.5
    endloop
  endfacet
  facet normal 0 0 -1
    outer loop
      vertex 1.75292 -2.11891 -7.5
      vertex 19.1227 -23.1154 -7.5
      vertex 16.0748 -25.3298 -7.5
    endloop
  endfacet
  facet normal -0 0 -1
    outer loop
      vertex 27.8933 11.0437 -7.5
      vertex 2.55688 1.01234 -7.5
      vertex 26.2892 14.4526 -7.5
    endloop
  endfacet
  facet normal 0 0 -1
    outer loop
      vertex 1.47352 -2.3219 -7.5
      vertex 16.0748 -25.3298 -7.5
      vertex 12.7734 -27.1448 -7.5
    endloop
  endfacet
  facet normal 0 0 -1
    outer loop
      vertex 2.40984 1.32482 -7.5
      vertex 26.2892 14.4526 -7.5
      vertex 2.55688 1.01234 -7.5
    endloop
  endfacet
  facet normal 0 0 -1
    outer loop
      vertex 1.17089 -2.48827 -7.5
      vertex 12.7734 -27.1448 -7.5
      vertex 9.27051 -28.5317 -7.5
    endloop
  endfacet
  facet normal -0 0 -1
    outer loop
      vertex 26.2892 14.4526 -7.5
      vertex 2.40984 1.32482 -7.5
      vertex 24.2705 17.6336 -7.5
    endloop
  endfacet
  facet normal 0 0 -1
    outer loop
      vertex 0.849796 -2.61541 -7.5
      vertex 9.27051 -28.5317 -7.5
      vertex 5.62144 -29.4686 -7.5
    endloop
  endfacet
  facet normal 0 0 -1
    outer loop
      vertex 2.2248 1.61641 -7.5
      vertex 24.2705 17.6336 -7.5
      vertex 2.40984 1.32482 -7.5
    endloop
  endfacet
  facet normal -0 0 -1
    outer loop
      vertex 24.2705 17.6336 -7.5
      vertex 2.2248 1.61641 -7.5
      vertex 21.8691 20.5364 -7.5
    endloop
  endfacet
  facet normal 0 0 -1
    outer loop
      vertex 29.7634 -3.76 -7.5
      vertex 2.72832 -0.344666 -7.5
      vertex 2.75 0 -7.5
    endloop
  endfacet
  facet normal 0 0 -1
    outer loop
      vertex 29.0575 -7.4607 -7.5
      vertex 2.6636 -0.683897 -7.5
      vertex 2.72832 -0.344666 -7.5
    endloop
  endfacet
  facet normal 0 0 -1
    outer loop
      vertex 27.8933 -11.0437 -7.5
      vertex 2.55688 -1.01234 -7.5
      vertex 2.6636 -0.683897 -7.5
    endloop
  endfacet
  facet normal 0 0 -1
    outer loop
      vertex 26.2892 -14.4526 -7.5
      vertex 2.40984 -1.32482 -7.5
      vertex 2.55688 -1.01234 -7.5
    endloop
  endfacet
  facet normal 0 0 -1
    outer loop
      vertex 24.2705 -17.6336 -7.5
      vertex 2.2248 -1.61641 -7.5
      vertex 2.40984 -1.32482 -7.5
    endloop
  endfacet
  facet normal 0 0 -1
    outer loop
      vertex 21.8691 -20.5364 -7.5
      vertex 2.00466 -1.8825 -7.5
      vertex 2.2248 -1.61641 -7.5
    endloop
  endfacet
  facet normal 0 0 -1
    outer loop
      vertex 0.515298 -2.70129 -7.5
      vertex 5.62144 -29.4686 -7.5
      vertex 1.88371 -29.9408 -7.5
    endloop
  endfacet
  facet normal 0 0 -1
    outer loop
      vertex 19.1227 -23.1154 -7.5
      vertex 1.75292 -2.11891 -7.5
      vertex 2.00466 -1.8825 -7.5
    endloop
  endfacet
  facet normal 0 0 -1
    outer loop
      vertex 16.0748 -25.3298 -7.5
      vertex 1.47352 -2.3219 -7.5
      vertex 1.75292 -2.11891 -7.5
    endloop
  endfacet
  facet normal 0 0 -1
    outer loop
      vertex 12.7734 -27.1448 -7.5
      vertex 1.17089 -2.48827 -7.5
      vertex 1.47352 -2.3219 -7.5
    endloop
  endfacet
  facet normal 0 0 -1
    outer loop
      vertex 9.27051 -28.5317 -7.5
      vertex 0.849796 -2.61541 -7.5
      vertex 1.17089 -2.48827 -7.5
    endloop
  endfacet
  facet normal 0 0 -1
    outer loop
      vertex 5.62144 -29.4686 -7.5
      vertex 0.515298 -2.70129 -7.5
      vertex 0.849796 -2.61541 -7.5
    endloop
  endfacet
  facet normal 0 0 -1
    outer loop
      vertex 1.88371 -29.9408 -7.5
      vertex 0.172673 -2.74457 -7.5
      vertex 0.515298 -2.70129 -7.5
    endloop
  endfacet
  facet normal 0 0 -1
    outer loop
      vertex 1.88371 -29.9408 -7.5
      vertex -0.172673 -2.74457 -7.5
      vertex 0.172673 -2.74457 -7.5
    endloop
  endfacet
  facet normal 0 0 -1
    outer loop
      vertex -1.88371 -29.9408 -7.5
      vertex -0.172673 -2.74457 -7.5
      vertex 1.88371 -29.9408 -7.5
    endloop
  endfacet
  facet normal -0 0 -1
    outer loop
      vertex -0.172673 -2.74457 -7.5
      vertex -1.88371 -29.9408 -7.5
      vertex -0.515298 -2.70129 -7.5
    endloop
  endfacet
  facet normal 0 0 -1
    outer loop
      vertex -5.62144 -29.4686 -7.5
      vertex -0.515298 -2.70129 -7.5
      vertex -1.88371 -29.9408 -7.5
    endloop
  endfacet
  facet normal -0 0 -1
    outer loop
      vertex -0.515298 -2.70129 -7.5
      vertex -5.62144 -29.4686 -7.5
      vertex -0.849796 -2.61541 -7.5
    endloop
  endfacet
  facet normal 0 0 -1
    outer loop
      vertex -9.27051 -28.5317 -7.5
      vertex -0.849796 -2.61541 -7.5
      vertex -5.62144 -29.4686 -7.5
    endloop
  endfacet
  facet normal -0 0 -1
    outer loop
      vertex -0.849796 -2.61541 -7.5
      vertex -9.27051 -28.5317 -7.5
      vertex -1.17089 -2.48827 -7.5
    endloop
  endfacet
  facet normal 0 0 -1
    outer loop
      vertex -12.7734 -27.1448 -7.5
      vertex -1.17089 -2.48827 -7.5
      vertex -9.27051 -28.5317 -7.5
    endloop
  endfacet
  facet normal -0 0 -1
    outer loop
      vertex -1.17089 -2.48827 -7.5
      vertex -12.7734 -27.1448 -7.5
      vertex -1.47352 -2.3219 -7.5
    endloop
  endfacet
  facet normal 0 0 -1
    outer loop
      vertex -16.0748 -25.3298 -7.5
      vertex -1.47352 -2.3219 -7.5
      vertex -12.7734 -27.1448 -7.5
    endloop
  endfacet
  facet normal -0 0 -1
    outer loop
      vertex -1.47352 -2.3219 -7.5
      vertex -16.0748 -25.3298 -7.5
      vertex -1.75292 -2.11891 -7.5
    endloop
  endfacet
  facet normal 0 0 -1
    outer loop
      vertex -19.1227 -23.1154 -7.5
      vertex -1.75292 -2.11891 -7.5
      vertex -16.0748 -25.3298 -7.5
    endloop
  endfacet
  facet normal -0 0 -1
    outer loop
      vertex -1.75292 -2.11891 -7.5
      vertex -19.1227 -23.1154 -7.5
      vertex -2.00466 -1.8825 -7.5
    endloop
  endfacet
  facet normal 0 0 -1
    outer loop
      vertex -21.8691 -20.5364 -7.5
      vertex -2.00466 -1.8825 -7.5
      vertex -19.1227 -23.1154 -7.5
    endloop
  endfacet
  facet normal -0 0 -1
    outer loop
      vertex -2.00466 -1.8825 -7.5
      vertex -21.8691 -20.5364 -7.5
      vertex -2.2248 -1.61641 -7.5
    endloop
  endfacet
  facet normal 0 0 -1
    outer loop
      vertex 2.00466 1.8825 -7.5
      vertex 21.8691 20.5364 -7.5
      vertex 2.2248 1.61641 -7.5
    endloop
  endfacet
  facet normal -0 0 -1
    outer loop
      vertex 21.8691 20.5364 -7.5
      vertex 2.00466 1.8825 -7.5
      vertex 19.1227 23.1154 -7.5
    endloop
  endfacet
  facet normal 0 0 -1
    outer loop
      vertex 1.75292 2.11891 -7.5
      vertex 19.1227 23.1154 -7.5
      vertex 2.00466 1.8825 -7.5
    endloop
  endfacet
  facet normal -0 0 -1
    outer loop
      vertex 19.1227 23.1154 -7.5
      vertex 1.75292 2.11891 -7.5
      vertex 16.0748 25.3298 -7.5
    endloop
  endfacet
  facet normal 0 0 -1
    outer loop
      vertex 1.47352 2.3219 -7.5
      vertex 16.0748 25.3298 -7.5
      vertex 1.75292 2.11891 -7.5
    endloop
  endfacet
  facet normal -0 0 -1
    outer loop
      vertex 16.0748 25.3298 -7.5
      vertex 1.47352 2.3219 -7.5
      vertex 12.7734 27.1448 -7.5
    endloop
  endfacet
  facet normal 0 0 -1
    outer loop
      vertex 1.17089 2.48827 -7.5
      vertex 12.7734 27.1448 -7.5
      vertex 1.47352 2.3219 -7.5
    endloop
  endfacet
  facet normal -0 0 -1
    outer loop
      vertex 12.7734 27.1448 -7.5
      vertex 1.17089 2.48827 -7.5
      vertex 9.27051 28.5317 -7.5
    endloop
  endfacet
  facet normal 0 0 -1
    outer loop
      vertex 0.849796 2.61541 -7.5
      vertex 9.27051 28.5317 -7.5
      vertex 1.17089 2.48827 -7.5
    endloop
  endfacet
  facet normal -0 0 -1
    outer loop
      vertex 9.27051 28.5317 -7.5
      vertex 0.849796 2.61541 -7.5
      vertex 5.62144 29.4686 -7.5
    endloop
  endfacet
  facet normal 0 0 -1
    outer loop
      vertex 0.515298 2.70129 -7.5
      vertex 5.62144 29.4686 -7.5
      vertex 0.849796 2.61541 -7.5
    endloop
  endfacet
  facet normal -0 0 -1
    outer loop
      vertex 5.62144 29.4686 -7.5
      vertex 0.515298 2.70129 -7.5
      vertex 1.88371 29.9408 -7.5
    endloop
  endfacet
  facet normal 0 0 -1
    outer loop
      vertex 0.172673 2.74457 -7.5
      vertex 1.88371 29.9408 -7.5
      vertex 0.515298 2.70129 -7.5
    endloop
  endfacet
  facet normal 0 0 -1
    outer loop
      vertex -0.172673 2.74457 -7.5
      vertex 1.88371 29.9408 -7.5
      vertex 0.172673 2.74457 -7.5
    endloop
  endfacet
  facet normal 0 0 -1
    outer loop
      vertex -1.88371 29.9408 -7.5
      vertex -0.172673 2.74457 -7.5
      vertex -0.515298 2.70129 -7.5
    endloop
  endfacet
  facet normal 0 0 -1
    outer loop
      vertex -5.62144 29.4686 -7.5
      vertex -0.515298 2.70129 -7.5
      vertex -0.849796 2.61541 -7.5
    endloop
  endfacet
  facet normal 0 0 -1
    outer loop
      vertex -9.27051 28.5317 -7.5
      vertex -0.849796 2.61541 -7.5
      vertex -1.17089 2.48827 -7.5
    endloop
  endfacet
  facet normal 0 0 -1
    outer loop
      vertex -12.7734 27.1448 -7.5
      vertex -1.17089 2.48827 -7.5
      vertex -1.47352 2.3219 -7.5
    endloop
  endfacet
  facet normal 0 0 -1
    outer loop
      vertex -16.0748 25.3298 -7.5
      vertex -1.47352 2.3219 -7.5
      vertex -1.75292 2.11891 -7.5
    endloop
  endfacet
  facet normal 0 0 -1
    outer loop
      vertex -0.172673 2.74457 -7.5
      vertex -1.88371 29.9408 -7.5
      vertex 1.88371 29.9408 -7.5
    endloop
  endfacet
  facet normal 0 0 -1
    outer loop
      vertex -19.1227 23.1154 -7.5
      vertex -1.75292 2.11891 -7.5
      vertex -2.00466 1.8825 -7.5
    endloop
  endfacet
  facet normal 0 0 -1
    outer loop
      vertex -21.8691 20.5364 -7.5
      vertex -2.00466 1.8825 -7.5
      vertex -2.2248 1.61641 -7.5
    endloop
  endfacet
  facet normal 0 0 -1
    outer loop
      vertex -24.2705 17.6336 -7.5
      vertex -2.2248 1.61641 -7.5
      vertex -2.40984 1.32482 -7.5
    endloop
  endfacet
  facet normal 0 0 -1
    outer loop
      vertex -26.2892 14.4526 -7.5
      vertex -2.40984 1.32482 -7.5
      vertex -2.55688 1.01234 -7.5
    endloop
  endfacet
  facet normal 0 0 -1
    outer loop
      vertex -27.8933 11.0437 -7.5
      vertex -2.55688 1.01234 -7.5
      vertex -2.6636 0.683897 -7.5
    endloop
  endfacet
  facet normal 0 0 -1
    outer loop
      vertex -29.0575 7.4607 -7.5
      vertex -2.6636 0.683897 -7.5
      vertex -2.72832 0.344666 -7.5
    endloop
  endfacet
  facet normal 0 0 -1
    outer loop
      vertex -29.7634 3.76 -7.5
      vertex -2.72832 0.344666 -7.5
      vertex -2.75 0 -7.5
    endloop
  endfacet
  facet normal 0 0 -1
    outer loop
      vertex -24.2705 -17.6336 -7.5
      vertex -2.2248 -1.61641 -7.5
      vertex -21.8691 -20.5364 -7.5
    endloop
  endfacet
  facet normal 0 0 -1
    outer loop
      vertex -0.515298 2.70129 -7.5
      vertex -5.62144 29.4686 -7.5
      vertex -1.88371 29.9408 -7.5
    endloop
  endfacet
  facet normal -0 0 -1
    outer loop
      vertex -2.2248 -1.61641 -7.5
      vertex -24.2705 -17.6336 -7.5
      vertex -2.40984 -1.32482 -7.5
    endloop
  endfacet
  facet normal 0 0 -1
    outer loop
      vertex -0.849796 2.61541 -7.5
      vertex -9.27051 28.5317 -7.5
      vertex -5.62144 29.4686 -7.5
    endloop
  endfacet
  facet normal 0 0 -1
    outer loop
      vertex -26.2892 -14.4526 -7.5
      vertex -2.40984 -1.32482 -7.5
      vertex -24.2705 -17.6336 -7.5
    endloop
  endfacet
  facet normal 0 0 -1
    outer loop
      vertex -1.17089 2.48827 -7.5
      vertex -12.7734 27.1448 -7.5
      vertex -9.27051 28.5317 -7.5
    endloop
  endfacet
  facet normal -0 0 -1
    outer loop
      vertex -2.40984 -1.32482 -7.5
      vertex -26.2892 -14.4526 -7.5
      vertex -2.55688 -1.01234 -7.5
    endloop
  endfacet
  facet normal 0 0 -1
    outer loop
      vertex -1.47352 2.3219 -7.5
      vertex -16.0748 25.3298 -7.5
      vertex -12.7734 27.1448 -7.5
    endloop
  endfacet
  facet normal 0 0 -1
    outer loop
      vertex -27.8933 -11.0437 -7.5
      vertex -2.55688 -1.01234 -7.5
      vertex -26.2892 -14.4526 -7.5
    endloop
  endfacet
  facet normal 0 0 -1
    outer loop
      vertex -1.75292 2.11891 -7.5
      vertex -19.1227 23.1154 -7.5
      vertex -16.0748 25.3298 -7.5
    endloop
  endfacet
  facet normal -0 0 -1
    outer loop
      vertex -2.55688 -1.01234 -7.5
      vertex -27.8933 -11.0437 -7.5
      vertex -2.6636 -0.683897 -7.5
    endloop
  endfacet
  facet normal 0 0 -1
    outer loop
      vertex -2.00466 1.8825 -7.5
      vertex -21.8691 20.5364 -7.5
      vertex -19.1227 23.1154 -7.5
    endloop
  endfacet
  facet normal 0 0 -1
    outer loop
      vertex -29.0575 -7.4607 -7.5
      vertex -2.6636 -0.683897 -7.5
      vertex -27.8933 -11.0437 -7.5
    endloop
  endfacet
  facet normal 0 0 -1
    outer loop
      vertex -2.2248 1.61641 -7.5
      vertex -24.2705 17.6336 -7.5
      vertex -21.8691 20.5364 -7.5
    endloop
  endfacet
  facet normal -0 0 -1
    outer loop
      vertex -2.6636 -0.683897 -7.5
      vertex -29.0575 -7.4607 -7.5
      vertex -2.72832 -0.344666 -7.5
    endloop
  endfacet
  facet normal 0 0 -1
    outer loop
      vertex -2.40984 1.32482 -7.5
      vertex -26.2892 14.4526 -7.5
      vertex -24.2705 17.6336 -7.5
    endloop
  endfacet
  facet normal 0 0 -1
    outer loop
      vertex -29.7634 -3.76 -7.5
      vertex -2.72832 -0.344666 -7.5
      vertex -29.0575 -7.4607 -7.5
    endloop
  endfacet
  facet normal 0 0 -1
    outer loop
      vertex -2.55688 1.01234 -7.5
      vertex -27.8933 11.0437 -7.5
      vertex -26.2892 14.4526 -7.5
    endloop
  endfacet
  facet normal -0 0 -1
    outer loop
      vertex -2.72832 -0.344666 -7.5
      vertex -29.7634 -3.76 -7.5
      vertex -2.75 0 -7.5
    endloop
  endfacet
  facet normal 0 0 -1
    outer loop
      vertex -2.6636 0.683897 -7.5
      vertex -29.0575 7.4607 -7.5
      vertex -27.8933 11.0437 -7.5
    endloop
  endfacet
  facet normal 0 0 -1
    outer loop
      vertex -30 0 -7.5
      vertex -2.75 0 -7.5
      vertex -29.7634 -3.76 -7.5
    endloop
  endfacet
  facet normal 0 0 -1
    outer loop
      vertex -2.72832 0.344666 -7.5
      vertex -29.7634 3.76 -7.5
      vertex -29.0575 7.4607 -7.5
    endloop
  endfacet
  facet normal 0 0 -1
    outer loop
      vertex -2.75 0 -7.5
      vertex -30 0 -7.5
      vertex -29.7634 3.76 -7.5
    endloop
  endfacet
  facet normal 0.844331 -0.535822 0
    outer loop
      vertex 24.2705 -17.6336 0
      vertex 26.2892 -14.4526 -7.5
      vertex 26.2892 -14.4526 0
    endloop
  endfacet
  facet normal 0.844331 -0.535822 0
    outer loop
      vertex 26.2892 -14.4526 -7.5
      vertex 24.2705 -17.6336 0
      vertex 24.2705 -17.6336 -7.5
    endloop
  endfacet
  facet normal 0.998026 -0.0628013 0
    outer loop
      vertex 29.7634 -3.76 0
      vertex 30 0 -7.5
      vertex 30 0 0
    endloop
  endfacet
  facet normal 0.998026 -0.0628013 0
    outer loop
      vertex 30 0 -7.5
      vertex 29.7634 -3.76 0
      vertex 29.7634 -3.76 -7.5
    endloop
  endfacet
  facet normal -0.248684 -0.968585 0
    outer loop
      vertex -9.27051 -28.5317 -7.5
      vertex -5.62144 -29.4686 0
      vertex -9.27051 -28.5317 0
    endloop
  endfacet
  facet normal -0.248684 -0.968585 -0
    outer loop
      vertex -5.62144 -29.4686 0
      vertex -9.27051 -28.5317 -7.5
      vertex -5.62144 -29.4686 -7.5
    endloop
  endfacet
  facet normal -0.951056 -0.30902 0
    outer loop
      vertex -27.8933 -11.0437 -7.5
      vertex -29.0575 -7.4607 0
      vertex -29.0575 -7.4607 -7.5
    endloop
  endfacet
  facet normal -0.951056 -0.30902 0
    outer loop
      vertex -29.0575 -7.4607 0
      vertex -27.8933 -11.0437 -7.5
      vertex -27.8933 -11.0437 0
    endloop
  endfacet
  facet normal 0.248684 -0.968585 0
    outer loop
      vertex 5.62144 -29.4686 -7.5
      vertex 9.27051 -28.5317 0
      vertex 5.62144 -29.4686 0
    endloop
  endfacet
  facet normal 0.248684 -0.968585 0
    outer loop
      vertex 9.27051 -28.5317 0
      vertex 5.62144 -29.4686 -7.5
      vertex 9.27051 -28.5317 -7.5
    endloop
  endfacet
  facet normal 0.904828 -0.425778 0
    outer loop
      vertex 26.2892 -14.4526 0
      vertex 27.8933 -11.0437 -7.5
      vertex 27.8933 -11.0437 0
    endloop
  endfacet
  facet normal 0.904828 -0.425778 0
    outer loop
      vertex 27.8933 -11.0437 -7.5
      vertex 26.2892 -14.4526 0
      vertex 26.2892 -14.4526 -7.5
    endloop
  endfacet
  facet normal -0.125337 -0.992114 0
    outer loop
      vertex -5.62144 -29.4686 -7.5
      vertex -1.88371 -29.9408 0
      vertex -5.62144 -29.4686 0
    endloop
  endfacet
  facet normal -0.125337 -0.992114 -0
    outer loop
      vertex -1.88371 -29.9408 0
      vertex -5.62144 -29.4686 -7.5
      vertex -1.88371 -29.9408 -7.5
    endloop
  endfacet
  facet normal -0.368126 -0.929776 0
    outer loop
      vertex -12.7734 -27.1448 -7.5
      vertex -9.27051 -28.5317 0
      vertex -12.7734 -27.1448 0
    endloop
  endfacet
  facet normal -0.368126 -0.929776 -0
    outer loop
      vertex -9.27051 -28.5317 0
      vertex -12.7734 -27.1448 -7.5
      vertex -9.27051 -28.5317 -7.5
    endloop
  endfacet
  facet normal -0.844331 -0.535822 0
    outer loop
      vertex -24.2705 -17.6336 -7.5
      vertex -26.2892 -14.4526 0
      vertex -26.2892 -14.4526 -7.5
    endloop
  endfacet
  facet normal -0.844331 -0.535822 0
    outer loop
      vertex -26.2892 -14.4526 0
      vertex -24.2705 -17.6336 -7.5
      vertex -24.2705 -17.6336 0
    endloop
  endfacet
  facet normal -0.904828 -0.425778 0
    outer loop
      vertex -26.2892 -14.4526 -7.5
      vertex -27.8933 -11.0437 0
      vertex -27.8933 -11.0437 -7.5
    endloop
  endfacet
  facet normal -0.904828 -0.425778 0
    outer loop
      vertex -27.8933 -11.0437 0
      vertex -26.2892 -14.4526 -7.5
      vertex -26.2892 -14.4526 0
    endloop
  endfacet
  facet normal -0.98229 -0.187369 0
    outer loop
      vertex -29.0575 -7.4607 -7.5
      vertex -29.7634 -3.76 0
      vertex -29.7634 -3.76 -7.5
    endloop
  endfacet
  facet normal -0.98229 -0.187369 0
    outer loop
      vertex -29.7634 -3.76 0
      vertex -29.0575 -7.4607 -7.5
      vertex -29.0575 -7.4607 0
    endloop
  endfacet
  facet normal -0.998026 -0.0628013 0
    outer loop
      vertex -29.7634 -3.76 -7.5
      vertex -30 0 0
      vertex -30 0 -7.5
    endloop
  endfacet
  facet normal -0.998026 -0.0628013 0
    outer loop
      vertex -30 0 0
      vertex -29.7634 -3.76 -7.5
      vertex -29.7634 -3.76 0
    endloop
  endfacet
  facet normal 0.684541 -0.728974 0
    outer loop
      vertex 19.1227 -23.1154 -7.5
      vertex 21.8691 -20.5364 0
      vertex 19.1227 -23.1154 0
    endloop
  endfacet
  facet normal 0.684541 -0.728974 0
    outer loop
      vertex 21.8691 -20.5364 0
      vertex 19.1227 -23.1154 -7.5
      vertex 21.8691 -20.5364 -7.5
    endloop
  endfacet
  facet normal 0.58778 -0.809021 0
    outer loop
      vertex 16.0748 -25.3298 -7.5
      vertex 19.1227 -23.1154 0
      vertex 16.0748 -25.3298 0
    endloop
  endfacet
  facet normal 0.58778 -0.809021 0
    outer loop
      vertex 19.1227 -23.1154 0
      vertex 16.0748 -25.3298 -7.5
      vertex 19.1227 -23.1154 -7.5
    endloop
  endfacet
  facet normal 0.481762 -0.876302 0
    outer loop
      vertex 12.7734 -27.1448 -7.5
      vertex 16.0748 -25.3298 0
      vertex 12.7734 -27.1448 0
    endloop
  endfacet
  facet normal 0.481762 -0.876302 0
    outer loop
      vertex 16.0748 -25.3298 0
      vertex 12.7734 -27.1448 -7.5
      vertex 16.0748 -25.3298 -7.5
    endloop
  endfacet
  facet normal -0.481762 -0.876302 0
    outer loop
      vertex -16.0748 -25.3298 -7.5
      vertex -12.7734 -27.1448 0
      vertex -16.0748 -25.3298 0
    endloop
  endfacet
  facet normal -0.481762 -0.876302 -0
    outer loop
      vertex -12.7734 -27.1448 0
      vertex -16.0748 -25.3298 -7.5
      vertex -12.7734 -27.1448 -7.5
    endloop
  endfacet
  facet normal -0.58778 -0.809021 0
    outer loop
      vertex -19.1227 -23.1154 -7.5
      vertex -16.0748 -25.3298 0
      vertex -19.1227 -23.1154 0
    endloop
  endfacet
  facet normal -0.58778 -0.809021 -0
    outer loop
      vertex -16.0748 -25.3298 0
      vertex -19.1227 -23.1154 -7.5
      vertex -16.0748 -25.3298 -7.5
    endloop
  endfacet
  facet normal -0.684541 -0.728974 0
    outer loop
      vertex -21.8691 -20.5364 -7.5
      vertex -19.1227 -23.1154 0
      vertex -21.8691 -20.5364 0
    endloop
  endfacet
  facet normal -0.684541 -0.728974 -0
    outer loop
      vertex -19.1227 -23.1154 0
      vertex -21.8691 -20.5364 -7.5
      vertex -19.1227 -23.1154 -7.5
    endloop
  endfacet
endsolid OpenSCAD_Model
