solid OpenSCAD_Model
  facet normal 0.795963181872165 0.37455184254909185 0.47555602230128374
    outer loop
      vertex -1.86215169509321 -1.0237265574661452 -3
      vertex -1.9757750325125343 -0.7822646744549404 -3
      vertex -3.486661822080943 -1.380467072567542 0
    endloop
  endfacet
  facet normal 0.6778092793788227 0.5607326015499204 0.4755560223012837
    outer loop
      vertex -1.5490583332704997 -1.454662600098463 -3
      vertex -1.7191611130467632 -1.2490436611215054 -3
      vertex -3.033813728906053 -2.204194696096774 0
    endloop
  endfacet
  facet normal 0.7427429808762785 0.4713590287795506 0.4755560223012836
    outer loop
      vertex -1.86215169509321 -1.0237265574661452 -3
      vertex -3.286150050164488 -1.8065762778814327 0
      vertex -1.7191611130467632 -1.2490436611215054 -3
    endloop
  endfacet
  facet normal 0.8366305680045703 0.2718377500152088 0.4755560223012837
    outer loop
      vertex -1.9757750325125343 -0.7822646744549404 -3
      vertex -2.058239217398341 -0.5284660102253166 -3
      vertex -3.6321868542323665 -0.9325870768682056 0
    endloop
  endfacet
  facet normal 0.8641037903006672 0.16483661377558567 0.47555602230128374
    outer loop
      vertex -3.720430129929292 -0.46999962586614025 0
      vertex -2.058239217398341 -0.5284660102253166 -3
      vertex -2.1082437402932657 -0.26633312132414616 -3
    endloop
  endfacet
  facet normal 0.8779495796331391 0.0552359056680998 0.4755560223012837
    outer loop
      vertex -3.75 0 0
      vertex -2.1082437402932657 -0.26633312132414616 -3
      vertex -2.125 0 -3
    endloop
  endfacet
  facet normal 0.6021861206419272 0.6412630862284273 0.4755560223012837
    outer loop
      vertex -1.3545259782159655 -1.6373406408985525 -3
      vertex -1.5490583332704997 -1.454662600098463 -3
      vertex -2.390339961557586 -2.88942466040921 0
    endloop
  endfacet
  facet normal 0.5170661270539538 0.7116804689651145 0.47555602230128374
    outer loop
      vertex -1.3545259782159655 -1.6373406408985525 -3
      vertex -2.009350481171238 -3.1662297206325563 0
      vertex -1.138631939330368 -1.7941968416917817 -3
    endloop
  endfacet
  facet normal 0.42379169176201015 0.7708742255689149 0.4755560223012836
    outer loop
      vertex -0.904780994575779 -1.9227574864902917 -3
      vertex -1.138631939330368 -1.7941968416917817 -3
      vertex -1.5966723433690215 -3.3931014467475733 0
    endloop
  endfacet
  facet normal 0.3238338083300918 0.8179108351375536 0.47555602230128374
    outer loop
      vertex -0.6566611130467632 -2.020995097127201 -3
      vertex -0.904780994575779 -1.9227574864902917 -3
      vertex -1.1588137289060527 -3.5664619361068257 0
    endloop
  endfacet
  facet normal 0.21876887229187061 0.8520485022398222 0.47555602230128363
    outer loop
      vertex -0.39818529349466525 -2.0873604077984633 -3
      vertex -0.6566611130467632 -2.020995097127201 -3
      vertex -0.7026799296964681 -3.6835771902325822 0
    endloop
  endfacet
  facet normal 0.11025382045141481 0.8727488554726659 0.47555602230128363
    outer loop
      vertex -0.13342985399979174 -2.120806797910077 -3
      vertex -0.39818529349466525 -2.0873604077984633 -3
      vertex -0.2354644482349266 -3.7426002316060183 0
    endloop
  endfacet
  facet normal 0.6778092793788228 0.5607326015499203 0.47555602230128374
    outer loop
      vertex -3.033813728906053 -2.204194696096774 0
      vertex -2.733632352830294 -2.567051647232582 0
      vertex -1.5490583332704997 -1.454662600098463 -3
    endloop
  endfacet
  facet normal 0.5170661270539548 0.7116804689651139 0.47555602230128363
    outer loop
      vertex -2.390339961557586 -2.88942466040921 0
      vertex -2.009350481171238 -3.1662297206325563 0
      vertex -1.3545259782159655 -1.6373406408985525 -3
    endloop
  endfacet
  facet normal 0.6021861206419261 0.6412630862284281 0.47555602230128374
    outer loop
      vertex -2.733632352830294 -2.567051647232582 0
      vertex -2.390339961557586 -2.88942466040921 0
      vertex -1.5490583332704997 -1.454662600098463 -3
    endloop
  endfacet
  facet normal 0.7959631818721645 0.37455184254909296 0.47555602230128363
    outer loop
      vertex -3.286150050164488 -1.8065762778814327 0
      vertex -1.86215169509321 -1.0237265574661452 -3
      vertex -3.486661822080943 -1.380467072567542 0
    endloop
  endfacet
  facet normal 0.8366305680045704 0.2718377500152085 0.47555602230128363
    outer loop
      vertex -1.9757750325125343 -0.7822646744549404 -3
      vertex -3.6321868542323665 -0.9325870768682056 0
      vertex -3.486661822080943 -1.380467072567542 0
    endloop
  endfacet
  facet normal 0.8641037903006672 0.16483661377558573 0.4755560223012837
    outer loop
      vertex -3.720430129929292 -0.46999962586614025 0
      vertex -3.6321868542323665 -0.9325870768682056 0
      vertex -2.058239217398341 -0.5284660102253166 -3
    endloop
  endfacet
  facet normal 0.877949579633139 0.05523590566810023 0.4755560223012837
    outer loop
      vertex -3.75 0 0
      vertex -3.720430129929292 -0.46999962586614025 0
      vertex -2.1082437402932657 -0.26633312132414616 -3
    endloop
  endfacet
  facet normal 0.7427429808762791 0.4713590287795496 0.47555602230128374
    outer loop
      vertex -3.033813728906053 -2.204194696096774 0
      vertex -1.7191611130467632 -1.2490436611215054 -3
      vertex -3.286150050164488 -1.8065762778814327 0
    endloop
  endfacet
  facet normal 0.32383380833009284 0.8179108351375532 0.4755560223012836
    outer loop
      vertex -1.5966723433690215 -3.3931014467475733 0
      vertex -1.1588137289060527 -3.5664619361068257 0
      vertex -0.904780994575779 -1.9227574864902917 -3
    endloop
  endfacet
  facet normal 0.4237916917620092 0.7708742255689155 0.47555602230128374
    outer loop
      vertex -2.009350481171238 -3.1662297206325563 0
      vertex -1.5966723433690215 -3.3931014467475733 0
      vertex -1.138631939330368 -1.7941968416917817 -3
    endloop
  endfacet
  facet normal 0.2187688722918698 0.8520485022398223 0.47555602230128374
    outer loop
      vertex -1.1588137289060527 -3.5664619361068257 0
      vertex -0.7026799296964681 -3.6835771902325822 0
      vertex -0.6566611130467632 -2.020995097127201 -3
    endloop
  endfacet
  facet normal 0.11025382045141482 0.8727488554726659 0.4755560223012837
    outer loop
      vertex -0.7026799296964681 -3.6835771902325822 0
      vertex -0.2354644482349266 -3.7426002316060183 0
      vertex -0.39818529349466525 -2.0873604077984633 -3
    endloop
  endfacet
  facet normal 0 0.8796854378998102 0.47555602230128363
    outer loop
      vertex -0.2354644482349266 -3.7426002316060183 0
      vertex 0.2354644482349266 -3.7426002316060183 0
      vertex -0.13342985399979174 -2.120806797910077 -3
    endloop
  endfacet
  facet normal 0.8779495796331391 -0.0552359056680998 0.4755560223012837
    outer loop
      vertex -2.125 0 -3
      vertex -2.1082437402932657 0.26633312132414616 -3
      vertex -3.75 0 0
    endloop
  endfacet
  facet normal 0.864103790300667 -0.16483661377558612 0.47555602230128363
    outer loop
      vertex -2.1082437402932657 0.26633312132414616 -3
      vertex -2.058239217398341 0.5284660102253166 -3
      vertex -3.720430129929292 0.46999962586614025 0
    endloop
  endfacet
  facet normal 0.8366305680045703 -0.2718377500152088 0.4755560223012837
    outer loop
      vertex -2.058239217398341 0.5284660102253166 -3
      vertex -1.9757750325125343 0.7822646744549404 -3
      vertex -3.6321868542323665 0.9325870768682056 0
    endloop
  endfacet
  facet normal 0.795963181872165 -0.37455184254909185 0.47555602230128374
    outer loop
      vertex -1.9757750325125343 0.7822646744549404 -3
      vertex -1.86215169509321 1.0237265574661452 -3
      vertex -3.486661822080943 1.380467072567542 0
    endloop
  endfacet
  facet normal 0.7427429808762785 -0.4713590287795506 0.4755560223012836
    outer loop
      vertex -1.86215169509321 1.0237265574661452 -3
      vertex -1.7191611130467632 1.2490436611215054 -3
      vertex -3.286150050164488 1.8065762778814327 0
    endloop
  endfacet
  facet normal 0.6778092793788227 -0.5607326015499204 0.4755560223012837
    outer loop
      vertex -1.5490583332704997 1.454662600098463 -3
      vertex -3.033813728906053 2.204194696096774 0
      vertex -1.7191611130467632 1.2490436611215054 -3
    endloop
  endfacet
  facet normal 0.6021861206419272 -0.6412630862284273 0.47555602230128363
    outer loop
      vertex -1.5490583332704997 1.454662600098463 -3
      vertex -1.3545259782159655 1.6373406408985525 -3
      vertex -2.390339961557586 2.88942466040921 0
    endloop
  endfacet
  facet normal 0.5170661270539538 -0.7116804689651145 0.47555602230128374
    outer loop
      vertex -1.3545259782159655 1.6373406408985525 -3
      vertex -1.138631939330368 1.7941968416917817 -3
      vertex -2.009350481171238 3.1662297206325563 0
    endloop
  endfacet
  facet normal 0.42379169176201037 -0.7708742255689148 0.4755560223012836
    outer loop
      vertex -1.138631939330368 1.7941968416917817 -3
      vertex -0.9047809945757795 1.9227574864902914 -3
      vertex -1.5966723433690226 3.393101446747573 0
    endloop
  endfacet
  facet normal 0.3238338083300918 -0.8179108351375535 0.4755560223012837
    outer loop
      vertex -0.9047809945757795 1.9227574864902914 -3
      vertex -0.6566611130467632 2.020995097127201 -3
      vertex -1.1588137289060527 3.5664619361068257 0
    endloop
  endfacet
  facet normal 0.21876887229187014 -0.8520485022398222 0.4755560223012837
    outer loop
      vertex -0.7026799296964672 3.6835771902325827 0
      vertex -0.6566611130467632 2.020995097127201 -3
      vertex -0.3981852934946647 2.0873604077984633 -3
    endloop
  endfacet
  facet normal 0.11025382045141463 -0.8727488554726659 0.4755560223012836
    outer loop
      vertex -0.23546444823492205 3.7426002316060183 0
      vertex -0.3981852934946647 2.0873604077984633 -3
      vertex -0.1334298539997907 2.120806797910077 -3
    endloop
  endfacet
  facet normal 0 -0.8796854378998104 0.47555602230128363
    outer loop
      vertex -0.23546444823492205 3.7426002316060183 0
      vertex -0.1334298539997907 2.120806797910077 -3
      vertex 0.13342985399978777 2.120806797910077 -3
    endloop
  endfacet
  facet normal 0.8779495796331391 -0.055235905668100244 0.4755560223012837
    outer loop
      vertex -3.720430129929292 0.46999962586614025 0
      vertex -3.75 0 0
      vertex -2.1082437402932657 0.26633312132414616 -3
    endloop
  endfacet
  facet normal 0.8641037903006672 -0.16483661377558573 0.4755560223012837
    outer loop
      vertex -3.6321868542323665 0.9325870768682056 0
      vertex -3.720430129929292 0.46999962586614025 0
      vertex -2.058239217398341 0.5284660102253166 -3
    endloop
  endfacet
  facet normal 0.8366305680045705 -0.2718377500152082 0.47555602230128374
    outer loop
      vertex -3.486661822080943 1.380467072567542 0
      vertex -3.6321868542323665 0.9325870768682056 0
      vertex -1.9757750325125343 0.7822646744549404 -3
    endloop
  endfacet
  facet normal 0.7959631818721645 -0.37455184254909324 0.4755560223012836
    outer loop
      vertex -1.86215169509321 1.0237265574661452 -3
      vertex -3.286150050164488 1.8065762778814327 0
      vertex -3.486661822080943 1.380467072567542 0
    endloop
  endfacet
  facet normal 0.742742980876279 -0.4713590287795498 0.4755560223012837
    outer loop
      vertex -1.7191611130467632 1.2490436611215054 -3
      vertex -3.033813728906053 2.204194696096774 0
      vertex -3.286150050164488 1.8065762778814327 0
    endloop
  endfacet
  facet normal 0.6778092793788228 -0.5607326015499203 0.47555602230128374
    outer loop
      vertex -2.733632352830294 2.567051647232582 0
      vertex -3.033813728906053 2.204194696096774 0
      vertex -1.5490583332704997 1.454662600098463 -3
    endloop
  endfacet
  facet normal 0.6021861206419261 -0.6412630862284281 0.47555602230128374
    outer loop
      vertex -2.733632352830294 2.567051647232582 0
      vertex -1.5490583332704997 1.454662600098463 -3
      vertex -2.390339961557586 2.88942466040921 0
    endloop
  endfacet
  facet normal 0.5170661270539548 -0.7116804689651139 0.47555602230128363
    outer loop
      vertex -2.009350481171238 3.1662297206325563 0
      vertex -2.390339961557586 2.88942466040921 0
      vertex -1.3545259782159655 1.6373406408985525 -3
    endloop
  endfacet
  facet normal 0.4237916917620094 -0.7708742255689153 0.47555602230128374
    outer loop
      vertex -2.009350481171238 3.1662297206325563 0
      vertex -1.138631939330368 1.7941968416917817 -3
      vertex -1.5966723433690226 3.393101446747573 0
    endloop
  endfacet
  facet normal 0.3238338083300931 -0.8179108351375531 0.47555602230128374
    outer loop
      vertex -0.9047809945757795 1.9227574864902914 -3
      vertex -1.1588137289060527 3.5664619361068257 0
      vertex -1.5966723433690226 3.393101446747573 0
    endloop
  endfacet
  facet normal 0.2187688722918702 -0.8520485022398222 0.47555602230128374
    outer loop
      vertex -0.7026799296964672 3.6835771902325827 0
      vertex -1.1588137289060527 3.5664619361068257 0
      vertex -0.6566611130467632 2.020995097127201 -3
    endloop
  endfacet
  facet normal 0.11025382045141316 -0.872748855472666 0.47555602230128374
    outer loop
      vertex -0.23546444823492205 3.7426002316060183 0
      vertex -0.7026799296964672 3.6835771902325827 0
      vertex -0.3981852934946647 2.0873604077984633 -3
    endloop
  endfacet
  facet normal 0 0.8796854378998104 0.47555602230128363
    outer loop
      vertex 0.2354644482349266 -3.7426002316060183 0
      vertex 0.13342985399979174 -2.120806797910077 -3
      vertex -0.13342985399979174 -2.120806797910077 -3
    endloop
  endfacet
  facet normal -0.11025382045141481 0.8727488554726659 0.47555602230128363
    outer loop
      vertex 0.13342985399979174 -2.120806797910077 -3
      vertex 0.2354644482349266 -3.7426002316060183 0
      vertex 0.39818529349466525 -2.0873604077984633 -3
    endloop
  endfacet
  facet normal -0.21876887229187061 0.8520485022398222 0.47555602230128363
    outer loop
      vertex 0.6566611130467632 -2.020995097127201 -3
      vertex 0.39818529349466525 -2.0873604077984633 -3
      vertex 0.7026799296964681 -3.6835771902325822 0
    endloop
  endfacet
  facet normal -0.3238338083300918 0.8179108351375536 0.47555602230128374
    outer loop
      vertex 0.904780994575779 -1.9227574864902917 -3
      vertex 0.6566611130467632 -2.020995097127201 -3
      vertex 1.1588137289060527 -3.5664619361068257 0
    endloop
  endfacet
  facet normal -0.42379169176201004 0.770874225568915 0.47555602230128363
    outer loop
      vertex 1.138631939330367 -1.7941968416917824 -3
      vertex 0.904780994575779 -1.9227574864902917 -3
      vertex 1.5966723433690215 -3.3931014467475733 0
    endloop
  endfacet
  facet normal -0.5170661270539547 0.7116804689651139 0.47555602230128363
    outer loop
      vertex 2.0093504811712357 -3.1662297206325576 0
      vertex 1.3545259782159662 -1.6373406408985516 -3
      vertex 1.138631939330367 -1.7941968416917824 -3
    endloop
  endfacet
  facet normal -0.6021861206419267 0.6412630862284278 0.47555602230128374
    outer loop
      vertex 1.5490583332704997 -1.454662600098463 -3
      vertex 1.3545259782159662 -1.6373406408985516 -3
      vertex 2.3903399615575873 -2.889424660409209 0
    endloop
  endfacet
  facet normal -0.6778092793788226 0.5607326015499206 0.47555602230128374
    outer loop
      vertex 3.033813728906053 -2.204194696096774 0
      vertex 1.7191611130467632 -1.2490436611215054 -3
      vertex 1.5490583332704997 -1.454662600098463 -3
    endloop
  endfacet
  facet normal -0.7427429808762785 0.4713590287795506 0.4755560223012836
    outer loop
      vertex 1.86215169509321 -1.0237265574661452 -3
      vertex 1.7191611130467632 -1.2490436611215054 -3
      vertex 3.286150050164488 -1.8065762778814327 0
    endloop
  endfacet
  facet normal -0.7959631818721649 0.374551842549092 0.4755560223012837
    outer loop
      vertex 1.9757750325125338 -0.7822646744549415 -3
      vertex 1.86215169509321 -1.0237265574661452 -3
      vertex 3.486661822080942 -1.3804670725675439 0
    endloop
  endfacet
  facet normal -0.83663056800457 0.27183775001520954 0.4755560223012836
    outer loop
      vertex 2.0582392173983415 -0.5284660102253157 -3
      vertex 1.9757750325125338 -0.7822646744549415 -3
      vertex 3.632186854232367 -0.9325870768682041 0
    endloop
  endfacet
  facet normal -0.8641037903006672 0.16483661377558526 0.4755560223012837
    outer loop
      vertex 2.1082437402932657 -0.26633312132414616 -3
      vertex 2.0582392173983415 -0.5284660102253157 -3
      vertex 3.720430129929292 -0.46999962586614025 0
    endloop
  endfacet
  facet normal -0.8779495796331391 0.0552359056680998 0.4755560223012837
    outer loop
      vertex 2.125 0 -3
      vertex 2.1082437402932657 -0.26633312132414616 -3
      vertex 3.75 0 0
    endloop
  endfacet
  facet normal -0.11025382045141482 0.8727488554726659 0.4755560223012837
    outer loop
      vertex 0.2354644482349266 -3.7426002316060183 0
      vertex 0.7026799296964681 -3.6835771902325822 0
      vertex 0.39818529349466525 -2.0873604077984633 -3
    endloop
  endfacet
  facet normal -0.2187688722918698 0.8520485022398223 0.4755560223012837
    outer loop
      vertex 0.7026799296964681 -3.6835771902325822 0
      vertex 1.1588137289060527 -3.5664619361068257 0
      vertex 0.6566611130467632 -2.020995097127201 -3
    endloop
  endfacet
  facet normal -0.3238338083300928 0.8179108351375532 0.4755560223012836
    outer loop
      vertex 0.904780994575779 -1.9227574864902917 -3
      vertex 1.1588137289060527 -3.5664619361068257 0
      vertex 1.5966723433690215 -3.3931014467475733 0
    endloop
  endfacet
  facet normal -0.42379169176200904 0.7708742255689155 0.47555602230128374
    outer loop
      vertex 1.5966723433690215 -3.3931014467475733 0
      vertex 2.0093504811712357 -3.1662297206325576 0
      vertex 1.138631939330367 -1.7941968416917824 -3
    endloop
  endfacet
  facet normal -0.5170661270539544 0.7116804689651142 0.47555602230128374
    outer loop
      vertex 2.0093504811712357 -3.1662297206325576 0
      vertex 2.3903399615575873 -2.889424660409209 0
      vertex 1.3545259782159662 -1.6373406408985516 -3
    endloop
  endfacet
  facet normal -0.6021861206419267 0.6412630862284276 0.47555602230128363
    outer loop
      vertex 1.5490583332704997 -1.454662600098463 -3
      vertex 2.3903399615575873 -2.889424660409209 0
      vertex 2.733632352830294 -2.567051647232582 0
    endloop
  endfacet
  facet normal -0.6778092793788228 0.5607326015499203 0.47555602230128374
    outer loop
      vertex 2.733632352830294 -2.567051647232582 0
      vertex 3.033813728906053 -2.204194696096774 0
      vertex 1.5490583332704997 -1.454662600098463 -3
    endloop
  endfacet
  facet normal -0.7427429808762791 0.4713590287795496 0.47555602230128374
    outer loop
      vertex 3.033813728906053 -2.204194696096774 0
      vertex 3.286150050164488 -1.8065762778814327 0
      vertex 1.7191611130467632 -1.2490436611215054 -3
    endloop
  endfacet
  facet normal -0.7959631818721646 0.3745518425490929 0.4755560223012837
    outer loop
      vertex 3.286150050164488 -1.8065762778814327 0
      vertex 3.486661822080942 -1.3804670725675439 0
      vertex 1.86215169509321 -1.0237265574661452 -3
    endloop
  endfacet
  facet normal -0.8366305680045703 0.27183775001520866 0.47555602230128363
    outer loop
      vertex 3.486661822080942 -1.3804670725675439 0
      vertex 3.632186854232367 -0.9325870768682041 0
      vertex 1.9757750325125338 -0.7822646744549415 -3
    endloop
  endfacet
  facet normal -0.8641037903006673 0.16483661377558548 0.4755560223012837
    outer loop
      vertex 3.632186854232367 -0.9325870768682041 0
      vertex 3.720430129929292 -0.46999962586614025 0
      vertex 2.0582392173983415 -0.5284660102253157 -3
    endloop
  endfacet
  facet normal -0.8779495796331391 0.055235905668100244 0.4755560223012837
    outer loop
      vertex 3.720430129929292 -0.46999962586614025 0
      vertex 3.75 0 0
      vertex 2.1082437402932657 -0.26633312132414616 -3
    endloop
  endfacet
  facet normal -0.11025382045141342 -0.8727488554726659 0.47555602230128374
    outer loop
      vertex 0.13342985399978777 2.120806797910077 -3
      vertex 0.3981852934946647 2.0873604077984633 -3
      vertex 0.2354644482349248 3.7426002316060183 0
    endloop
  endfacet
  facet normal -0.21876887229187014 -0.8520485022398222 0.4755560223012837
    outer loop
      vertex 0.3981852934946647 2.0873604077984633 -3
      vertex 0.6566611130467632 2.020995097127201 -3
      vertex 0.7026799296964672 3.6835771902325827 0
    endloop
  endfacet
  facet normal -0.3238338083300918 -0.8179108351375535 0.47555602230128374
    outer loop
      vertex 0.6566611130467632 2.020995097127201 -3
      vertex 0.9047809945757795 1.9227574864902914 -3
      vertex 1.1588137289060527 3.5664619361068257 0
    endloop
  endfacet
  facet normal -0.42379169176201015 -0.770874225568915 0.4755560223012837
    outer loop
      vertex 0.9047809945757795 1.9227574864902914 -3
      vertex 1.1386319393303679 1.794196841691782 -3
      vertex 1.5966723433690226 3.393101446747573 0
    endloop
  endfacet
  facet normal -0.5170661270539546 -0.7116804689651139 0.4755560223012837
    outer loop
      vertex 1.1386319393303679 1.794196841691782 -3
      vertex 1.3545259782159658 1.637340640898552 -3
      vertex 2.0093504811712375 3.1662297206325567 0
    endloop
  endfacet
  facet normal -0.6021861206419263 -0.6412630862284281 0.4755560223012836
    outer loop
      vertex 1.3545259782159658 1.637340640898552 -3
      vertex 1.5490583332704995 1.4546626000984635 -3
      vertex 2.3903399615575864 2.889424660409209 0
    endloop
  endfacet
  facet normal -0.8779495796331391 -0.055235905668099716 0.47555602230128374
    outer loop
      vertex 2.125 0 -3
      vertex 3.75 0 0
      vertex 2.1082437402932657 0.26633312132414655 -3
    endloop
  endfacet
  facet normal -0.864103790300667 -0.16483661377558642 0.47555602230128363
    outer loop
      vertex 2.058239217398341 0.5284660102253165 -3
      vertex 2.1082437402932657 0.26633312132414655 -3
      vertex 3.720430129929292 0.46999962586614097 0
    endloop
  endfacet
  facet normal -0.8366305680045701 -0.27183775001520905 0.47555602230128363
    outer loop
      vertex 1.975775032512534 0.7822646744549407 -3
      vertex 2.058239217398341 0.5284660102253165 -3
      vertex 3.6321868542323665 0.9325870768682055 0
    endloop
  endfacet
  facet normal -0.7427429808762782 -0.4713590287795512 0.4755560223012834
    outer loop
      vertex 3.2861500501644882 1.8065762778814325 0
      vertex 1.7191611130467632 1.2490436611215054 -3
      vertex 1.8621516950932102 1.0237265574661452 -3
    endloop
  endfacet
  facet normal -0.6778092793788231 -0.5607326015499203 0.4755560223012836
    outer loop
      vertex 3.033813728906053 2.204194696096774 0
      vertex 1.5490583332704995 1.4546626000984635 -3
      vertex 1.7191611130467632 1.2490436611215054 -3
    endloop
  endfacet
  facet normal -0.7959631818721654 -0.3745518425490911 0.47555602230128374
    outer loop
      vertex 1.8621516950932102 1.0237265574661452 -3
      vertex 1.975775032512534 0.7822646744549407 -3
      vertex 3.4866618220809427 1.3804670725675423 0
    endloop
  endfacet
  facet normal 0 -0.8796854378998102 0.4755560223012837
    outer loop
      vertex -0.23546444823492205 3.7426002316060183 0
      vertex 0.13342985399978777 2.120806797910077 -3
      vertex 0.2354644482349248 3.7426002316060183 0
    endloop
  endfacet
  facet normal -0.11025382045141378 -0.872748855472666 0.47555602230128374
    outer loop
      vertex 0.7026799296964672 3.6835771902325827 0
      vertex 0.2354644482349248 3.7426002316060183 0
      vertex 0.3981852934946647 2.0873604077984633 -3
    endloop
  endfacet
  facet normal -0.2187688722918702 -0.8520485022398222 0.47555602230128374
    outer loop
      vertex 1.1588137289060527 3.5664619361068257 0
      vertex 0.7026799296964672 3.6835771902325827 0
      vertex 0.6566611130467632 2.020995097127201 -3
    endloop
  endfacet
  facet normal -0.42379169176200915 -0.7708742255689154 0.47555602230128374
    outer loop
      vertex 2.0093504811712375 3.1662297206325567 0
      vertex 1.5966723433690226 3.393101446747573 0
      vertex 1.1386319393303679 1.794196841691782 -3
    endloop
  endfacet
  facet normal -0.3238338083300928 -0.8179108351375531 0.4755560223012836
    outer loop
      vertex 1.5966723433690226 3.393101446747573 0
      vertex 1.1588137289060527 3.5664619361068257 0
      vertex 0.9047809945757795 1.9227574864902914 -3
    endloop
  endfacet
  facet normal -0.7427429808762788 -0.47135902877955 0.4755560223012837
    outer loop
      vertex 3.2861500501644882 1.8065762778814325 0
      vertex 3.033813728906053 2.204194696096774 0
      vertex 1.7191611130467632 1.2490436611215054 -3
    endloop
  endfacet
  facet normal -0.8779495796331392 -0.05523590566809988 0.47555602230128363
    outer loop
      vertex 2.1082437402932657 0.26633312132414655 -3
      vertex 3.75 0 0
      vertex 3.720430129929292 0.46999962586614097 0
    endloop
  endfacet
  facet normal -0.8641037903006671 -0.16483661377558603 0.4755560223012837
    outer loop
      vertex 3.720430129929292 0.46999962586614097 0
      vertex 3.6321868542323665 0.9325870768682055 0
      vertex 2.058239217398341 0.5284660102253165 -3
    endloop
  endfacet
  facet normal -0.8366305680045701 -0.27183775001520877 0.4755560223012837
    outer loop
      vertex 1.975775032512534 0.7822646744549407 -3
      vertex 3.6321868542323665 0.9325870768682055 0
      vertex 3.4866618220809427 1.3804670725675423 0
    endloop
  endfacet
  facet normal -0.795963181872165 -0.3745518425490919 0.4755560223012836
    outer loop
      vertex 3.4866618220809427 1.3804670725675423 0
      vertex 3.2861500501644882 1.8065762778814325 0
      vertex 1.8621516950932102 1.0237265574661452 -3
    endloop
  endfacet
  facet normal -0.6021861206419252 -0.6412630862284291 0.47555602230128396
    outer loop
      vertex 1.5490583332704995 1.4546626000984635 -3
      vertex 2.7336323528302935 2.567051647232583 0
      vertex 2.3903399615575864 2.889424660409209 0
    endloop
  endfacet
  facet normal -0.5170661270539557 -0.7116804689651133 0.47555602230128363
    outer loop
      vertex 2.3903399615575864 2.889424660409209 0
      vertex 2.0093504811712375 3.1662297206325567 0
      vertex 1.3545259782159658 1.637340640898552 -3
    endloop
  endfacet
  facet normal -0.6778092793788232 -0.5607326015499201 0.4755560223012838
    outer loop
      vertex 3.033813728906053 2.204194696096774 0
      vertex 2.7336323528302935 2.567051647232583 0
      vertex 1.5490583332704995 1.4546626000984635 -3
    endloop
  endfacet
  facet normal -0.8443279255020157 -0.5358267949789955 0
    outer loop
      vertex -12.135254915624213 -8.816778784387097 -3
      vertex -13.144600200657951 -7.226305111525731 0
      vertex -13.144600200657951 -7.226305111525731 -3
    endloop
  endfacet
  facet normal -0.7705132427757891 -0.6374239897486899 0
    outer loop
      vertex -12.135254915624213 -8.816778784387097 -3
      vertex -10.934529411321176 -10.268206588930328 -3
      vertex -12.135254915624213 -8.816778784387097 0
    endloop
  endfacet
  facet normal -0.5877852522924732 -0.8090169943749473 0
    outer loop
      vertex -9.561359846230344 -11.55769864163684 -3
      vertex -8.037401924684952 -12.664918882530225 -3
      vertex -8.037401924684952 -12.664918882530225 0
    endloop
  endfacet
  facet normal -0.6845471059286886 -0.7289686274214117 0
    outer loop
      vertex -9.561359846230344 -11.55769864163684 -3
      vertex -9.561359846230344 -11.55769864163684 0
      vertex -10.934529411321176 -10.268206588930328 -3
    endloop
  endfacet
  facet normal 0 0 -1
    outer loop
      vertex -13.946647288323772 -5.521868290270168 -3
      vertex -14.528747416929466 -3.7303483074728225 -3
      vertex -13.946647288323772 5.521868290270168 -3
    endloop
  endfacet
  facet normal 0 0 -1
    outer loop
      vertex -14.528747416929466 -3.7303483074728225 -3
      vertex -14.881720519717168 -1.879998503464561 -3
      vertex -14.528747416929466 3.7303483074728225 -3
    endloop
  endfacet
  facet normal 0 0 -1
    outer loop
      vertex -13.144600200657951 -7.226305111525731 -3
      vertex -13.946647288323772 -5.521868290270168 -3
      vertex -13.144600200657951 7.226305111525731 -3
    endloop
  endfacet
  facet normal 0 0 -1
    outer loop
      vertex -12.135254915624213 -8.816778784387097 -3
      vertex -13.144600200657951 -7.226305111525731 -3
      vertex -12.135254915624213 8.816778784387097 -3
    endloop
  endfacet
  facet normal 0 0 -1
    outer loop
      vertex -12.135254915624213 -8.816778784387097 -3
      vertex -10.934529411321176 10.268206588930328 -3
      vertex -10.934529411321176 -10.268206588930328 -3
    endloop
  endfacet
  facet normal 0 0 -1
    outer loop
      vertex -9.561359846230344 -11.55769864163684 -3
      vertex -8.037401924684952 12.664918882530225 -3
      vertex -8.037401924684952 -12.664918882530225 -3
    endloop
  endfacet
  facet normal 0 0 -1
    outer loop
      vertex -9.561359846230344 -11.55769864163684 -3
      vertex -10.934529411321176 -10.268206588930328 -3
      vertex -9.561359846230344 11.55769864163684 -3
    endloop
  endfacet
  facet normal -0.9048270524660189 -0.42577929156507377 0
    outer loop
      vertex -13.144600200657951 -7.226305111525731 -3
      vertex -13.946647288323772 -5.521868290270168 0
      vertex -13.946647288323772 -5.521868290270168 -3
    endloop
  endfacet
  facet normal -0.9510565162951538 -0.30901699437494673 0
    outer loop
      vertex -13.946647288323772 -5.521868290270168 -3
      vertex -14.528747416929466 -3.7303483074728225 0
      vertex -14.528747416929466 -3.7303483074728225 -3
    endloop
  endfacet
  facet normal -0.9822872507286886 -0.18738131458572513 0
    outer loop
      vertex -14.528747416929466 -3.7303483074728225 -3
      vertex -14.881720519717168 -1.879998503464561 0
      vertex -14.881720519717168 -1.879998503464561 -3
    endloop
  endfacet
  facet normal -0.9980267284282716 -0.06279051952931293 0
    outer loop
      vertex -14.881720519717168 -1.879998503464561 -3
      vertex -15 0 0
      vertex -15 0 -3
    endloop
  endfacet
  facet normal 0 0 -1
    outer loop
      vertex -2.8107197187858723 -14.734308760930329 -3
      vertex -0.904780994575779 -1.9227574864902917 -3
      vertex -0.9418577929397064 -14.970400926424073 -3
    endloop
  endfacet
  facet normal 0 0 -1
    outer loop
      vertex -0.9418577929397064 -14.970400926424073 -3
      vertex -0.13342985399979174 -2.120806797910077 -3
      vertex 0.9418577929397064 -14.970400926424073 -3
    endloop
  endfacet
  facet normal -0.4817536741017145 -0.876306680043864 0
    outer loop
      vertex -8.037401924684952 -12.664918882530225 -3
      vertex -6.386689373476086 -13.572405786990293 -3
      vertex -6.386689373476086 -13.572405786990293 0
    endloop
  endfacet
  facet normal -0.3681245526846781 -0.9297764858882513 0
    outer loop
      vertex -6.386689373476086 -13.572405786990293 -3
      vertex -4.635254915624211 -14.265847744427303 -3
      vertex -4.635254915624211 -14.265847744427303 0
    endloop
  endfacet
  facet normal -0.24868988716485493 -0.9685831611286311 0
    outer loop
      vertex -4.635254915624211 -14.265847744427303 -3
      vertex -2.8107197187858723 -14.734308760930329 -3
      vertex -2.8107197187858723 -14.734308760930329 0
    endloop
  endfacet
  facet normal -0.12533323356430498 -0.9921147013144778 0
    outer loop
      vertex -2.8107197187858723 -14.734308760930329 -3
      vertex -0.9418577929397064 -14.970400926424073 -3
      vertex -0.9418577929397064 -14.970400926424073 0
    endloop
  endfacet
  facet normal 0 0 -1
    outer loop
      vertex -8.037401924684952 -12.664918882530225 -3
      vertex -6.386689373476091 13.572405786990291 -3
      vertex -6.386689373476086 -13.572405786990293 -3
    endloop
  endfacet
  facet normal 0 0 -1
    outer loop
      vertex -6.386689373476086 -13.572405786990293 -3
      vertex -4.635254915624211 14.265847744427303 -3
      vertex -4.635254915624211 -14.265847744427303 -3
    endloop
  endfacet
  facet normal 0 0 -1
    outer loop
      vertex -2.8107197187858723 -14.734308760930329 -3
      vertex -1.86215169509321 -1.0237265574661452 -3
      vertex -1.7191611130467632 -1.2490436611215054 -3
    endloop
  endfacet
  facet normal 0 0 -1
    outer loop
      vertex -2.8107197187858723 -14.734308760930329 -3
      vertex -1.5490583332704997 -1.454662600098463 -3
      vertex -1.3545259782159655 -1.6373406408985525 -3
    endloop
  endfacet
  facet normal 0 0 -1
    outer loop
      vertex -2.8107197187858723 -14.734308760930329 -3
      vertex -1.7191611130467632 -1.2490436611215054 -3
      vertex -1.5490583332704997 -1.454662600098463 -3
    endloop
  endfacet
  facet normal 0 0 -1
    outer loop
      vertex -4.635254915624211 -14.265847744427303 -3
      vertex -2.810719718785869 14.73430876093033 -3
      vertex -2.8107197187858723 -14.734308760930329 -3
    endloop
  endfacet
  facet normal 0 0 -1
    outer loop
      vertex -2.8107197187858723 -14.734308760930329 -3
      vertex -2.125 0 -3
      vertex -2.1082437402932657 -0.26633312132414616 -3
    endloop
  endfacet
  facet normal 0 0 -1
    outer loop
      vertex -2.8107197187858723 -14.734308760930329 -3
      vertex -1.9757750325125343 -0.7822646744549404 -3
      vertex -1.86215169509321 -1.0237265574661452 -3
    endloop
  endfacet
  facet normal 0 0 -1
    outer loop
      vertex -2.8107197187858723 -14.734308760930329 -3
      vertex -2.058239217398341 -0.5284660102253166 -3
      vertex -1.9757750325125343 -0.7822646744549404 -3
    endloop
  endfacet
  facet normal 0 0 -1
    outer loop
      vertex -2.8107197187858723 -14.734308760930329 -3
      vertex -2.1082437402932657 -0.26633312132414616 -3
      vertex -2.058239217398341 -0.5284660102253166 -3
    endloop
  endfacet
  facet normal 0 0 -1
    outer loop
      vertex -2.8107197187858723 -14.734308760930329 -3
      vertex -1.138631939330368 -1.7941968416917817 -3
      vertex -0.904780994575779 -1.9227574864902917 -3
    endloop
  endfacet
  facet normal 0 0 -1
    outer loop
      vertex -2.8107197187858723 -14.734308760930329 -3
      vertex -1.3545259782159655 -1.6373406408985525 -3
      vertex -1.138631939330368 -1.7941968416917817 -3
    endloop
  endfacet
  facet normal 0 0 -1
    outer loop
      vertex -0.9418577929397064 -14.970400926424073 -3
      vertex -0.904780994575779 -1.9227574864902917 -3
      vertex -0.6566611130467632 -2.020995097127201 -3
    endloop
  endfacet
  facet normal 0 0 -1
    outer loop
      vertex -0.9418577929397064 -14.970400926424073 -3
      vertex -0.6566611130467632 -2.020995097127201 -3
      vertex -0.39818529349466525 -2.0873604077984633 -3
    endloop
  endfacet
  facet normal 0 0 -1
    outer loop
      vertex -0.9418577929397064 -14.970400926424073 -3
      vertex -0.39818529349466525 -2.0873604077984633 -3
      vertex -0.13342985399979174 -2.120806797910077 -3
    endloop
  endfacet
  facet normal -0.7705132427757891 -0.6374239897486899 0
    outer loop
      vertex -10.934529411321176 -10.268206588930328 -3
      vertex -10.934529411321176 -10.268206588930328 0
      vertex -12.135254915624213 -8.816778784387097 0
    endloop
  endfacet
  facet normal -0.8443279255020157 -0.5358267949789955 0
    outer loop
      vertex -12.135254915624213 -8.816778784387097 -3
      vertex -12.135254915624213 -8.816778784387097 0
      vertex -13.144600200657951 -7.226305111525731 0
    endloop
  endfacet
  facet normal -0.5877852522924732 -0.8090169943749473 0
    outer loop
      vertex -9.561359846230344 -11.55769864163684 -3
      vertex -8.037401924684952 -12.664918882530225 0
      vertex -9.561359846230344 -11.55769864163684 0
    endloop
  endfacet
  facet normal -0.6845471059286886 -0.7289686274214117 0
    outer loop
      vertex -10.934529411321176 -10.268206588930328 -3
      vertex -9.561359846230344 -11.55769864163684 0
      vertex -10.934529411321176 -10.268206588930328 0
    endloop
  endfacet
  facet normal -0.9048270524660189 -0.42577929156507377 0
    outer loop
      vertex -13.144600200657951 -7.226305111525731 -3
      vertex -13.144600200657951 -7.226305111525731 0
      vertex -13.946647288323772 -5.521868290270168 0
    endloop
  endfacet
  facet normal -0.9510565162951538 -0.30901699437494673 0
    outer loop
      vertex -13.946647288323772 -5.521868290270168 -3
      vertex -13.946647288323772 -5.521868290270168 0
      vertex -14.528747416929466 -3.7303483074728225 0
    endloop
  endfacet
  facet normal -0.9822872507286886 -0.18738131458572513 0
    outer loop
      vertex -14.528747416929466 -3.7303483074728225 -3
      vertex -14.528747416929466 -3.7303483074728225 0
      vertex -14.881720519717168 -1.879998503464561 0
    endloop
  endfacet
  facet normal -0.9980267284282716 -0.06279051952931293 0
    outer loop
      vertex -14.881720519717168 -1.879998503464561 -3
      vertex -14.881720519717168 -1.879998503464561 0
      vertex -15 0 0
    endloop
  endfacet
  facet normal 0 0 1
    outer loop
      vertex -13.144600200657951 -7.226305111525731 0
      vertex -13.946647288323772 5.521868290270168 0
      vertex -13.946647288323772 -5.521868290270168 0
    endloop
  endfacet
  facet normal 0 0 1
    outer loop
      vertex -14.528747416929466 -3.7303483074728225 0
      vertex -14.881720519717168 1.879998503464561 0
      vertex -14.881720519717168 -1.879998503464561 0
    endloop
  endfacet
  facet normal 0 0 1
    outer loop
      vertex -13.946647288323772 -5.521868290270168 0
      vertex -14.528747416929466 3.7303483074728225 0
      vertex -14.528747416929466 -3.7303483074728225 0
    endloop
  endfacet
  facet normal 0 0 1
    outer loop
      vertex -12.135254915624213 -8.816778784387097 0
      vertex -13.144600200657951 7.226305111525731 0
      vertex -13.144600200657951 -7.226305111525731 0
    endloop
  endfacet
  facet normal 0 0 1
    outer loop
      vertex -12.135254915624213 -8.816778784387097 0
      vertex -10.934529411321176 -10.268206588930328 0
      vertex -12.135254915624213 8.816778784387097 0
    endloop
  endfacet
  facet normal 0 0 1
    outer loop
      vertex -9.561359846230344 -11.55769864163684 0
      vertex -10.934529411321176 10.268206588930328 0
      vertex -10.934529411321176 -10.268206588930328 0
    endloop
  endfacet
  facet normal 0 0 1
    outer loop
      vertex -9.561359846230344 -11.55769864163684 0
      vertex -8.037401924684952 -12.664918882530225 0
      vertex -9.561359846230344 11.55769864163684 0
    endloop
  endfacet
  facet normal -0.3681245526846781 -0.9297764858882513 0
    outer loop
      vertex -6.386689373476086 -13.572405786990293 -3
      vertex -4.635254915624211 -14.265847744427303 0
      vertex -6.386689373476086 -13.572405786990293 0
    endloop
  endfacet
  facet normal -0.4817536741017145 -0.876306680043864 0
    outer loop
      vertex -8.037401924684952 -12.664918882530225 -3
      vertex -6.386689373476086 -13.572405786990293 0
      vertex -8.037401924684952 -12.664918882530225 0
    endloop
  endfacet
  facet normal -0.24868988716485493 -0.9685831611286311 0
    outer loop
      vertex -4.635254915624211 -14.265847744427303 -3
      vertex -2.8107197187858723 -14.734308760930329 0
      vertex -4.635254915624211 -14.265847744427303 0
    endloop
  endfacet
  facet normal -0.12533323356430498 -0.9921147013144778 0
    outer loop
      vertex -2.8107197187858723 -14.734308760930329 -3
      vertex -0.9418577929397064 -14.970400926424073 0
      vertex -2.8107197187858723 -14.734308760930329 0
    endloop
  endfacet
  facet normal 0 -1 0
    outer loop
      vertex -0.9418577929397064 -14.970400926424073 -3
      vertex 0.9418577929397064 -14.970400926424073 0
      vertex -0.9418577929397064 -14.970400926424073 0
    endloop
  endfacet
  facet normal 0 0 1
    outer loop
      vertex -4.635254915624211 -14.265847744427303 0
      vertex -2.8107197187858723 -14.734308760930329 0
      vertex -3.720430129929292 -0.46999962586614025 0
    endloop
  endfacet
  facet normal 0 0 1
    outer loop
      vertex -2.8107197187858723 -14.734308760930329 0
      vertex -0.9418577929397064 -14.970400926424073 0
      vertex -2.009350481171238 -3.1662297206325563 0
    endloop
  endfacet
  facet normal 0 0 1
    outer loop
      vertex -0.9418577929397064 -14.970400926424073 0
      vertex 0.2354644482349266 -3.7426002316060183 0
      vertex -0.2354644482349266 -3.7426002316060183 0
    endloop
  endfacet
  facet normal 0 0 1
    outer loop
      vertex -8.037401924684952 -12.664918882530225 0
      vertex -6.386689373476086 -13.572405786990293 0
      vertex -8.037401924684952 12.664918882530225 0
    endloop
  endfacet
  facet normal 0 0 1
    outer loop
      vertex -6.386689373476086 -13.572405786990293 0
      vertex -4.635254915624211 -14.265847744427303 0
      vertex -6.386689373476091 13.572405786990291 0
    endloop
  endfacet
  facet normal 0 0 1
    outer loop
      vertex -4.635254915624211 -14.265847744427303 0
      vertex -3.720430129929292 -0.46999962586614025 0
      vertex -3.75 0 0
    endloop
  endfacet
  facet normal 0 0 1
    outer loop
      vertex -2.8107197187858723 -14.734308760930329 0
      vertex -3.486661822080943 -1.380467072567542 0
      vertex -3.6321868542323665 -0.9325870768682056 0
    endloop
  endfacet
  facet normal 0 0 1
    outer loop
      vertex -2.8107197187858723 -14.734308760930329 0
      vertex -2.733632352830294 -2.567051647232582 0
      vertex -3.033813728906053 -2.204194696096774 0
    endloop
  endfacet
  facet normal 0 0 1
    outer loop
      vertex -2.8107197187858723 -14.734308760930329 0
      vertex -3.033813728906053 -2.204194696096774 0
      vertex -3.286150050164488 -1.8065762778814327 0
    endloop
  endfacet
  facet normal 0 0 1
    outer loop
      vertex -2.8107197187858723 -14.734308760930329 0
      vertex -3.286150050164488 -1.8065762778814327 0
      vertex -3.486661822080943 -1.380467072567542 0
    endloop
  endfacet
  facet normal 0 0 1
    outer loop
      vertex -2.8107197187858723 -14.734308760930329 0
      vertex -2.390339961557586 -2.88942466040921 0
      vertex -2.733632352830294 -2.567051647232582 0
    endloop
  endfacet
  facet normal 0 0 1
    outer loop
      vertex -2.8107197187858723 -14.734308760930329 0
      vertex -2.009350481171238 -3.1662297206325563 0
      vertex -2.390339961557586 -2.88942466040921 0
    endloop
  endfacet
  facet normal 0 0 1
    outer loop
      vertex -2.8107197187858723 -14.734308760930329 0
      vertex -3.6321868542323665 -0.9325870768682056 0
      vertex -3.720430129929292 -0.46999962586614025 0
    endloop
  endfacet
  facet normal 0 0 1
    outer loop
      vertex -0.9418577929397064 -14.970400926424073 0
      vertex -1.5966723433690215 -3.3931014467475733 0
      vertex -2.009350481171238 -3.1662297206325563 0
    endloop
  endfacet
  facet normal 0 0 1
    outer loop
      vertex -0.9418577929397064 -14.970400926424073 0
      vertex -1.1588137289060527 -3.5664619361068257 0
      vertex -1.5966723433690215 -3.3931014467475733 0
    endloop
  endfacet
  facet normal 0 0 1
    outer loop
      vertex -0.9418577929397064 -14.970400926424073 0
      vertex -0.7026799296964681 -3.6835771902325822 0
      vertex -1.1588137289060527 -3.5664619361068257 0
    endloop
  endfacet
  facet normal 0 0 1
    outer loop
      vertex -0.9418577929397064 -14.970400926424073 0
      vertex -0.2354644482349266 -3.7426002316060183 0
      vertex -0.7026799296964681 -3.6835771902325822 0
    endloop
  endfacet
  facet normal 0 0 -1
    outer loop
      vertex -14.881720519717168 -1.879998503464561 -3
      vertex -15 0 -3
      vertex -14.881720519717168 1.879998503464561 -3
    endloop
  endfacet
  facet normal 0 0 -1
    outer loop
      vertex -14.881720519717168 -1.879998503464561 -3
      vertex -14.881720519717168 1.879998503464561 -3
      vertex -14.528747416929466 3.7303483074728225 -3
    endloop
  endfacet
  facet normal 0 0 -1
    outer loop
      vertex -14.528747416929466 -3.7303483074728225 -3
      vertex -14.528747416929466 3.7303483074728225 -3
      vertex -13.946647288323772 5.521868290270168 -3
    endloop
  endfacet
  facet normal 0 0 -1
    outer loop
      vertex -13.946647288323772 -5.521868290270168 -3
      vertex -13.946647288323772 5.521868290270168 -3
      vertex -13.144600200657951 7.226305111525731 -3
    endloop
  endfacet
  facet normal 0 0 -1
    outer loop
      vertex -13.144600200657951 -7.226305111525731 -3
      vertex -13.144600200657951 7.226305111525731 -3
      vertex -12.135254915624213 8.816778784387097 -3
    endloop
  endfacet
  facet normal 0 0 -1
    outer loop
      vertex -12.135254915624213 -8.816778784387097 -3
      vertex -12.135254915624213 8.816778784387097 -3
      vertex -10.934529411321176 10.268206588930328 -3
    endloop
  endfacet
  facet normal 0 0 -1
    outer loop
      vertex -10.934529411321176 -10.268206588930328 -3
      vertex -10.934529411321176 10.268206588930328 -3
      vertex -9.561359846230344 11.55769864163684 -3
    endloop
  endfacet
  facet normal 0 0 -1
    outer loop
      vertex -9.561359846230344 -11.55769864163684 -3
      vertex -9.561359846230344 11.55769864163684 -3
      vertex -8.037401924684952 12.664918882530225 -3
    endloop
  endfacet
  facet normal -0.9980267284282716 0.06279051952931293 0
    outer loop
      vertex -15 0 -3
      vertex -14.881720519717168 1.879998503464561 0
      vertex -14.881720519717168 1.879998503464561 -3
    endloop
  endfacet
  facet normal -0.9822872507286886 0.18738131458572513 0
    outer loop
      vertex -14.881720519717168 1.879998503464561 -3
      vertex -14.528747416929466 3.7303483074728225 0
      vertex -14.528747416929466 3.7303483074728225 -3
    endloop
  endfacet
  facet normal -0.9510565162951538 0.30901699437494673 0
    outer loop
      vertex -14.528747416929466 3.7303483074728225 -3
      vertex -13.946647288323772 5.521868290270168 0
      vertex -13.946647288323772 5.521868290270168 -3
    endloop
  endfacet
  facet normal -0.9048270524660189 0.42577929156507377 0
    outer loop
      vertex -13.946647288323772 5.521868290270168 -3
      vertex -13.144600200657951 7.226305111525731 0
      vertex -13.144600200657951 7.226305111525731 -3
    endloop
  endfacet
  facet normal -0.8443279255020157 0.5358267949789955 0
    outer loop
      vertex -13.144600200657951 7.226305111525731 -3
      vertex -12.135254915624213 8.816778784387097 0
      vertex -12.135254915624213 8.816778784387097 -3
    endloop
  endfacet
  facet normal -0.7705132427757891 0.6374239897486899 0
    outer loop
      vertex -12.135254915624213 8.816778784387097 -3
      vertex -10.934529411321176 10.268206588930328 0
      vertex -10.934529411321176 10.268206588930328 -3
    endloop
  endfacet
  facet normal -0.6845471059286886 0.7289686274214117 0
    outer loop
      vertex -10.934529411321176 10.268206588930328 -3
      vertex -10.934529411321176 10.268206588930328 0
      vertex -9.561359846230344 11.55769864163684 -3
    endloop
  endfacet
  facet normal -0.5877852522924732 0.8090169943749473 0
    outer loop
      vertex -9.561359846230344 11.55769864163684 -3
      vertex -9.561359846230344 11.55769864163684 0
      vertex -8.037401924684952 12.664918882530225 -3
    endloop
  endfacet
  facet normal 0 0 -1
    outer loop
      vertex -8.037401924684952 -12.664918882530225 -3
      vertex -8.037401924684952 12.664918882530225 -3
      vertex -6.386689373476091 13.572405786990291 -3
    endloop
  endfacet
  facet normal 0 0 -1
    outer loop
      vertex -6.386689373476086 -13.572405786990293 -3
      vertex -6.386689373476091 13.572405786990291 -3
      vertex -4.635254915624211 14.265847744427303 -3
    endloop
  endfacet
  facet normal 0 0 -1
    outer loop
      vertex -4.635254915624211 -14.265847744427303 -3
      vertex -4.635254915624211 14.265847744427303 -3
      vertex -2.810719718785869 14.73430876093033 -3
    endloop
  endfacet
  facet normal 0 0 -1
    outer loop
      vertex -2.8107197187858723 -14.734308760930329 -3
      vertex -2.810719718785869 14.73430876093033 -3
      vertex -2.125 0 -3
    endloop
  endfacet
  facet normal 0 0 -1
    outer loop
      vertex -2.810719718785869 14.73430876093033 -3
      vertex -2.1082437402932657 0.26633312132414616 -3
      vertex -2.125 0 -3
    endloop
  endfacet
  facet normal 0 0 -1
    outer loop
      vertex -2.810719718785869 14.73430876093033 -3
      vertex -2.058239217398341 0.5284660102253166 -3
      vertex -2.1082437402932657 0.26633312132414616 -3
    endloop
  endfacet
  facet normal 0 0 -1
    outer loop
      vertex -2.810719718785869 14.73430876093033 -3
      vertex -1.9757750325125343 0.7822646744549404 -3
      vertex -2.058239217398341 0.5284660102253166 -3
    endloop
  endfacet
  facet normal 0 0 -1
    outer loop
      vertex -2.810719718785869 14.73430876093033 -3
      vertex -1.86215169509321 1.0237265574661452 -3
      vertex -1.9757750325125343 0.7822646744549404 -3
    endloop
  endfacet
  facet normal 0 0 -1
    outer loop
      vertex -0.9418577929396992 14.970400926424073 -3
      vertex -1.7191611130467632 1.2490436611215054 -3
      vertex -1.86215169509321 1.0237265574661452 -3
    endloop
  endfacet
  facet normal 0 0 -1
    outer loop
      vertex -0.9418577929396992 14.970400926424073 -3
      vertex -1.5490583332704997 1.454662600098463 -3
      vertex -1.7191611130467632 1.2490436611215054 -3
    endloop
  endfacet
  facet normal 0 0 -1
    outer loop
      vertex -0.9418577929396992 14.970400926424073 -3
      vertex -1.3545259782159655 1.6373406408985525 -3
      vertex -1.5490583332704997 1.454662600098463 -3
    endloop
  endfacet
  facet normal 0 0 -1
    outer loop
      vertex -0.9418577929396992 14.970400926424073 -3
      vertex -1.138631939330368 1.7941968416917817 -3
      vertex -1.3545259782159655 1.6373406408985525 -3
    endloop
  endfacet
  facet normal 0 0 -1
    outer loop
      vertex -0.9418577929396992 14.970400926424073 -3
      vertex -0.9047809945757795 1.9227574864902914 -3
      vertex -1.138631939330368 1.7941968416917817 -3
    endloop
  endfacet
  facet normal 0 0 -1
    outer loop
      vertex -0.9418577929396992 14.970400926424073 -3
      vertex -0.6566611130467632 2.020995097127201 -3
      vertex -0.9047809945757795 1.9227574864902914 -3
    endloop
  endfacet
  facet normal 0 0 -1
    outer loop
      vertex -0.9418577929396992 14.970400926424073 -3
      vertex -0.3981852934946647 2.0873604077984633 -3
      vertex -0.6566611130467632 2.020995097127201 -3
    endloop
  endfacet
  facet normal 0 0 -1
    outer loop
      vertex -0.9418577929396992 14.970400926424073 -3
      vertex -0.1334298539997907 2.120806797910077 -3
      vertex -0.3981852934946647 2.0873604077984633 -3
    endloop
  endfacet
  facet normal 0 0 -1
    outer loop
      vertex -0.9418577929396992 14.970400926424073 -3
      vertex 0.13342985399978777 2.120806797910077 -3
      vertex -0.1334298539997907 2.120806797910077 -3
    endloop
  endfacet
  facet normal 0 0 -1
    outer loop
      vertex -2.810719718785869 14.73430876093033 -3
      vertex -0.9418577929396992 14.970400926424073 -3
      vertex -1.86215169509321 1.0237265574661452 -3
    endloop
  endfacet
  facet normal -0.48175367410171477 0.8763066800438638 0
    outer loop
      vertex -8.037401924684952 12.664918882530225 -3
      vertex -8.037401924684952 12.664918882530225 0
      vertex -6.386689373476091 13.572405786990291 -3
    endloop
  endfacet
  facet normal -0.36812455268467803 0.9297764858882512 0
    outer loop
      vertex -6.386689373476091 13.572405786990291 -3
      vertex -6.386689373476091 13.572405786990291 0
      vertex -4.635254915624211 14.265847744427303 -3
    endloop
  endfacet
  facet normal -0.24868988716485538 0.968583161128631 0
    outer loop
      vertex -4.635254915624211 14.265847744427303 -3
      vertex -4.635254915624211 14.265847744427303 0
      vertex -2.810719718785869 14.73430876093033 -3
    endloop
  endfacet
  facet normal -0.1253332335643038 0.9921147013144779 0
    outer loop
      vertex -2.810719718785869 14.73430876093033 -3
      vertex -2.810719718785869 14.73430876093033 0
      vertex -0.9418577929396992 14.970400926424073 -3
    endloop
  endfacet
  facet normal 0 1 0
    outer loop
      vertex -0.9418577929396992 14.970400926424073 -3
      vertex -0.9418577929396992 14.970400926424073 0
      vertex 0.9418577929396992 14.970400926424073 -3
    endloop
  endfacet
  facet normal -0.9980267284282716 0.06279051952931293 0
    outer loop
      vertex -15 0 -3
      vertex -15 0 0
      vertex -14.881720519717168 1.879998503464561 0
    endloop
  endfacet
  facet normal -0.9822872507286886 0.18738131458572513 0
    outer loop
      vertex -14.881720519717168 1.879998503464561 -3
      vertex -14.881720519717168 1.879998503464561 0
      vertex -14.528747416929466 3.7303483074728225 0
    endloop
  endfacet
  facet normal -0.9510565162951538 0.30901699437494673 0
    outer loop
      vertex -14.528747416929466 3.7303483074728225 -3
      vertex -14.528747416929466 3.7303483074728225 0
      vertex -13.946647288323772 5.521868290270168 0
    endloop
  endfacet
  facet normal -0.9048270524660189 0.42577929156507377 0
    outer loop
      vertex -13.946647288323772 5.521868290270168 -3
      vertex -13.946647288323772 5.521868290270168 0
      vertex -13.144600200657951 7.226305111525731 0
    endloop
  endfacet
  facet normal 0 0 1
    outer loop
      vertex -14.881720519717168 -1.879998503464561 0
      vertex -14.881720519717168 1.879998503464561 0
      vertex -15 0 0
    endloop
  endfacet
  facet normal 0 0 1
    outer loop
      vertex -14.528747416929466 -3.7303483074728225 0
      vertex -14.528747416929466 3.7303483074728225 0
      vertex -14.881720519717168 1.879998503464561 0
    endloop
  endfacet
  facet normal 0 0 1
    outer loop
      vertex -13.946647288323772 -5.521868290270168 0
      vertex -13.946647288323772 5.521868290270168 0
      vertex -14.528747416929466 3.7303483074728225 0
    endloop
  endfacet
  facet normal 0 0 1
    outer loop
      vertex -13.144600200657951 -7.226305111525731 0
      vertex -13.144600200657951 7.226305111525731 0
      vertex -13.946647288323772 5.521868290270168 0
    endloop
  endfacet
  facet normal 0 0 1
    outer loop
      vertex -12.135254915624213 -8.816778784387097 0
      vertex -12.135254915624213 8.816778784387097 0
      vertex -13.144600200657951 7.226305111525731 0
    endloop
  endfacet
  facet normal 0 0 1
    outer loop
      vertex -10.934529411321176 -10.268206588930328 0
      vertex -10.934529411321176 10.268206588930328 0
      vertex -12.135254915624213 8.816778784387097 0
    endloop
  endfacet
  facet normal 0 0 1
    outer loop
      vertex -9.561359846230344 -11.55769864163684 0
      vertex -9.561359846230344 11.55769864163684 0
      vertex -10.934529411321176 10.268206588930328 0
    endloop
  endfacet
  facet normal 0 0 1
    outer loop
      vertex -8.037401924684952 -12.664918882530225 0
      vertex -8.037401924684952 12.664918882530225 0
      vertex -9.561359846230344 11.55769864163684 0
    endloop
  endfacet
  facet normal -0.8443279255020157 0.5358267949789955 0
    outer loop
      vertex -13.144600200657951 7.226305111525731 -3
      vertex -13.144600200657951 7.226305111525731 0
      vertex -12.135254915624213 8.816778784387097 0
    endloop
  endfacet
  facet normal -0.7705132427757891 0.6374239897486899 0
    outer loop
      vertex -12.135254915624213 8.816778784387097 -3
      vertex -12.135254915624213 8.816778784387097 0
      vertex -10.934529411321176 10.268206588930328 0
    endloop
  endfacet
  facet normal -0.6845471059286886 0.7289686274214117 0
    outer loop
      vertex -9.561359846230344 11.55769864163684 -3
      vertex -10.934529411321176 10.268206588930328 0
      vertex -9.561359846230344 11.55769864163684 0
    endloop
  endfacet
  facet normal -0.5877852522924732 0.8090169943749473 0
    outer loop
      vertex -8.037401924684952 12.664918882530225 -3
      vertex -9.561359846230344 11.55769864163684 0
      vertex -8.037401924684952 12.664918882530225 0
    endloop
  endfacet
  facet normal 0 0 1
    outer loop
      vertex -4.635254915624211 -14.265847744427303 0
      vertex -3.75 0 0
      vertex -4.635254915624211 14.265847744427303 0
    endloop
  endfacet
  facet normal 0 0 1
    outer loop
      vertex -6.386689373476086 -13.572405786990293 0
      vertex -6.386689373476091 13.572405786990291 0
      vertex -8.037401924684952 12.664918882530225 0
    endloop
  endfacet
  facet normal 0 0 1
    outer loop
      vertex -4.635254915624211 -14.265847744427303 0
      vertex -4.635254915624211 14.265847744427303 0
      vertex -6.386689373476091 13.572405786990291 0
    endloop
  endfacet
  facet normal 0 0 1
    outer loop
      vertex -4.635254915624211 14.265847744427303 0
      vertex -3.75 0 0
      vertex -3.720430129929292 0.46999962586614025 0
    endloop
  endfacet
  facet normal 0 0 1
    outer loop
      vertex -4.635254915624211 14.265847744427303 0
      vertex -3.720430129929292 0.46999962586614025 0
      vertex -3.6321868542323665 0.9325870768682056 0
    endloop
  endfacet
  facet normal 0 0 1
    outer loop
      vertex -4.635254915624211 14.265847744427303 0
      vertex -3.6321868542323665 0.9325870768682056 0
      vertex -3.486661822080943 1.380467072567542 0
    endloop
  endfacet
  facet normal 0 0 1
    outer loop
      vertex -4.635254915624211 14.265847744427303 0
      vertex -3.486661822080943 1.380467072567542 0
      vertex -3.286150050164488 1.8065762778814327 0
    endloop
  endfacet
  facet normal 0 0 1
    outer loop
      vertex -4.635254915624211 14.265847744427303 0
      vertex -3.286150050164488 1.8065762778814327 0
      vertex -3.033813728906053 2.204194696096774 0
    endloop
  endfacet
  facet normal 0 0 1
    outer loop
      vertex -4.635254915624211 14.265847744427303 0
      vertex -3.033813728906053 2.204194696096774 0
      vertex -2.733632352830294 2.567051647232582 0
    endloop
  endfacet
  facet normal 0 0 1
    outer loop
      vertex -2.810719718785869 14.73430876093033 0
      vertex -2.733632352830294 2.567051647232582 0
      vertex -2.390339961557586 2.88942466040921 0
    endloop
  endfacet
  facet normal 0 0 1
    outer loop
      vertex -2.810719718785869 14.73430876093033 0
      vertex -2.390339961557586 2.88942466040921 0
      vertex -2.009350481171238 3.1662297206325563 0
    endloop
  endfacet
  facet normal 0 0 1
    outer loop
      vertex -2.810719718785869 14.73430876093033 0
      vertex -2.009350481171238 3.1662297206325563 0
      vertex -1.5966723433690226 3.393101446747573 0
    endloop
  endfacet
  facet normal 0 0 1
    outer loop
      vertex -2.810719718785869 14.73430876093033 0
      vertex -1.5966723433690226 3.393101446747573 0
      vertex -1.1588137289060527 3.5664619361068257 0
    endloop
  endfacet
  facet normal 0 0 1
    outer loop
      vertex -2.810719718785869 14.73430876093033 0
      vertex -1.1588137289060527 3.5664619361068257 0
      vertex -0.7026799296964672 3.6835771902325827 0
    endloop
  endfacet
  facet normal 0 0 1
    outer loop
      vertex -0.9418577929396992 14.970400926424073 0
      vertex -0.7026799296964672 3.6835771902325827 0
      vertex -0.23546444823492205 3.7426002316060183 0
    endloop
  endfacet
  facet normal -0.48175367410171477 0.8763066800438638 0
    outer loop
      vertex -6.386689373476091 13.572405786990291 -3
      vertex -8.037401924684952 12.664918882530225 0
      vertex -6.386689373476091 13.572405786990291 0
    endloop
  endfacet
  facet normal -0.36812455268467803 0.9297764858882512 0
    outer loop
      vertex -4.635254915624211 14.265847744427303 -3
      vertex -6.386689373476091 13.572405786990291 0
      vertex -4.635254915624211 14.265847744427303 0
    endloop
  endfacet
  facet normal -0.24868988716485538 0.968583161128631 0
    outer loop
      vertex -2.810719718785869 14.73430876093033 -3
      vertex -4.635254915624211 14.265847744427303 0
      vertex -2.810719718785869 14.73430876093033 0
    endloop
  endfacet
  facet normal -0.1253332335643038 0.9921147013144779 0
    outer loop
      vertex -0.9418577929396992 14.970400926424073 -3
      vertex -2.810719718785869 14.73430876093033 0
      vertex -0.9418577929396992 14.970400926424073 0
    endloop
  endfacet
  facet normal 0 0 1
    outer loop
      vertex -4.635254915624211 14.265847744427303 0
      vertex -2.733632352830294 2.567051647232582 0
      vertex -2.810719718785869 14.73430876093033 0
    endloop
  endfacet
  facet normal 0 0 1
    outer loop
      vertex -2.810719718785869 14.73430876093033 0
      vertex -0.7026799296964672 3.6835771902325827 0
      vertex -0.9418577929396992 14.970400926424073 0
    endloop
  endfacet
  facet normal 0 0 1
    outer loop
      vertex -0.9418577929396992 14.970400926424073 0
      vertex -0.23546444823492205 3.7426002316060183 0
      vertex 0.9418577929396992 14.970400926424073 0
    endloop
  endfacet
  facet normal 0 0 -1
    outer loop
      vertex 0.9418577929397064 -14.970400926424073 -3
      vertex 1.86215169509321 -1.0237265574661452 -3
      vertex 2.8107197187858723 -14.734308760930329 -3
    endloop
  endfacet
  facet normal 0 -1 0
    outer loop
      vertex -0.9418577929397064 -14.970400926424073 -3
      vertex 0.9418577929397064 -14.970400926424073 -3
      vertex 0.9418577929397064 -14.970400926424073 0
    endloop
  endfacet
  facet normal 0.12533323356430498 -0.9921147013144778 0
    outer loop
      vertex 0.9418577929397064 -14.970400926424073 -3
      vertex 2.8107197187858723 -14.734308760930329 -3
      vertex 2.8107197187858723 -14.734308760930329 0
    endloop
  endfacet
  facet normal 0.24868988716485493 -0.9685831611286311 0
    outer loop
      vertex 2.8107197187858723 -14.734308760930329 -3
      vertex 4.635254915624211 -14.265847744427303 -3
      vertex 4.635254915624211 -14.265847744427303 0
    endloop
  endfacet
  facet normal 0.3681245526846781 -0.9297764858882513 0
    outer loop
      vertex 4.635254915624211 -14.265847744427303 -3
      vertex 6.386689373476086 -13.572405786990293 -3
      vertex 6.386689373476086 -13.572405786990293 0
    endloop
  endfacet
  facet normal 0.4817536741017143 -0.876306680043864 0
    outer loop
      vertex 6.386689373476086 -13.572405786990293 -3
      vertex 8.037401924684943 -12.66491888253023 -3
      vertex 8.037401924684943 -12.66491888253023 0
    endloop
  endfacet
  facet normal 0 0 -1
    outer loop
      vertex 0.9418577929397064 -14.970400926424073 -3
      vertex -0.13342985399979174 -2.120806797910077 -3
      vertex 0.13342985399979174 -2.120806797910077 -3
    endloop
  endfacet
  facet normal 0 0 -1
    outer loop
      vertex 0.9418577929397064 -14.970400926424073 -3
      vertex 0.13342985399979174 -2.120806797910077 -3
      vertex 0.39818529349466525 -2.0873604077984633 -3
    endloop
  endfacet
  facet normal 0 0 -1
    outer loop
      vertex 0.9418577929397064 -14.970400926424073 -3
      vertex 0.39818529349466525 -2.0873604077984633 -3
      vertex 0.6566611130467632 -2.020995097127201 -3
    endloop
  endfacet
  facet normal 0 0 -1
    outer loop
      vertex 0.9418577929397064 -14.970400926424073 -3
      vertex 0.6566611130467632 -2.020995097127201 -3
      vertex 0.904780994575779 -1.9227574864902917 -3
    endloop
  endfacet
  facet normal 0 0 -1
    outer loop
      vertex 0.9418577929397064 -14.970400926424073 -3
      vertex 0.904780994575779 -1.9227574864902917 -3
      vertex 1.138631939330367 -1.7941968416917824 -3
    endloop
  endfacet
  facet normal 0 0 -1
    outer loop
      vertex 0.9418577929397064 -14.970400926424073 -3
      vertex 1.138631939330367 -1.7941968416917824 -3
      vertex 1.3545259782159662 -1.6373406408985516 -3
    endloop
  endfacet
  facet normal 0 0 -1
    outer loop
      vertex 0.9418577929397064 -14.970400926424073 -3
      vertex 1.3545259782159662 -1.6373406408985516 -3
      vertex 1.5490583332704997 -1.454662600098463 -3
    endloop
  endfacet
  facet normal 0 0 -1
    outer loop
      vertex 0.9418577929397064 -14.970400926424073 -3
      vertex 1.5490583332704997 -1.454662600098463 -3
      vertex 1.7191611130467632 -1.2490436611215054 -3
    endloop
  endfacet
  facet normal 0 0 -1
    outer loop
      vertex 0.9418577929397064 -14.970400926424073 -3
      vertex 1.7191611130467632 -1.2490436611215054 -3
      vertex 1.86215169509321 -1.0237265574661452 -3
    endloop
  endfacet
  facet normal 0 0 -1
    outer loop
      vertex 2.8107197187858723 -14.734308760930329 -3
      vertex 1.86215169509321 -1.0237265574661452 -3
      vertex 1.9757750325125338 -0.7822646744549415 -3
    endloop
  endfacet
  facet normal 0 0 -1
    outer loop
      vertex 2.8107197187858723 -14.734308760930329 -3
      vertex 1.9757750325125338 -0.7822646744549415 -3
      vertex 2.0582392173983415 -0.5284660102253157 -3
    endloop
  endfacet
  facet normal 0 0 -1
    outer loop
      vertex 2.8107197187858723 -14.734308760930329 -3
      vertex 2.0582392173983415 -0.5284660102253157 -3
      vertex 2.1082437402932657 -0.26633312132414616 -3
    endloop
  endfacet
  facet normal 0 0 -1
    outer loop
      vertex 2.8107197187858723 -14.734308760930329 -3
      vertex 2.1082437402932657 -0.26633312132414616 -3
      vertex 2.125 0 -3
    endloop
  endfacet
  facet normal 0 0 -1
    outer loop
      vertex 2.8107197187858723 -14.734308760930329 -3
      vertex 4.635254915624211 14.265847744427303 -3
      vertex 4.635254915624211 -14.265847744427303 -3
    endloop
  endfacet
  facet normal 0 0 -1
    outer loop
      vertex 4.635254915624211 -14.265847744427303 -3
      vertex 6.386689373476091 13.572405786990291 -3
      vertex 6.386689373476086 -13.572405786990293 -3
    endloop
  endfacet
  facet normal 0 0 -1
    outer loop
      vertex 6.386689373476086 -13.572405786990293 -3
      vertex 8.03740192468495 12.664918882530227 -3
      vertex 8.037401924684943 -12.66491888253023 -3
    endloop
  endfacet
  facet normal 0.5877852522924728 -0.8090169943749477 0
    outer loop
      vertex 8.037401924684943 -12.66491888253023 -3
      vertex 9.56135984623035 -11.557698641636836 -3
      vertex 9.56135984623035 -11.557698641636836 0
    endloop
  endfacet
  facet normal 0.684547105928689 -0.7289686274214113 0
    outer loop
      vertex 9.56135984623035 -11.557698641636836 -3
      vertex 10.934529411321176 -10.268206588930328 -3
      vertex 10.934529411321176 -10.268206588930328 0
    endloop
  endfacet
  facet normal 0.7705132427757891 -0.6374239897486899 0
    outer loop
      vertex 10.934529411321176 -10.268206588930328 -3
      vertex 12.135254915624213 -8.816778784387097 -3
      vertex 10.934529411321176 -10.268206588930328 0
    endloop
  endfacet
  facet normal 0.8443279255020157 -0.5358267949789955 0
    outer loop
      vertex 12.135254915624213 -8.816778784387097 -3
      vertex 13.144600200657951 -7.226305111525731 -3
      vertex 12.135254915624213 -8.816778784387097 0
    endloop
  endfacet
  facet normal 0 0 -1
    outer loop
      vertex 8.037401924684943 -12.66491888253023 -3
      vertex 9.561359846230346 11.557698641636836 -3
      vertex 9.56135984623035 -11.557698641636836 -3
    endloop
  endfacet
  facet normal 0 0 -1
    outer loop
      vertex 9.56135984623035 -11.557698641636836 -3
      vertex 10.934529411321174 10.268206588930331 -3
      vertex 10.934529411321176 -10.268206588930328 -3
    endloop
  endfacet
  facet normal 0 0 -1
    outer loop
      vertex 10.934529411321176 -10.268206588930328 -3
      vertex 12.135254915624213 8.816778784387097 -3
      vertex 12.135254915624213 -8.816778784387097 -3
    endloop
  endfacet
  facet normal 0 0 -1
    outer loop
      vertex 12.135254915624213 -8.816778784387097 -3
      vertex 13.144600200657953 7.22630511152573 -3
      vertex 13.144600200657951 -7.226305111525731 -3
    endloop
  endfacet
  facet normal 0 0 -1
    outer loop
      vertex 13.144600200657951 -7.226305111525731 -3
      vertex 13.94664728832377 5.521868290270169 -3
      vertex 13.946647288323769 -5.5218682902701755 -3
    endloop
  endfacet
  facet normal 0 0 -1
    outer loop
      vertex 13.946647288323769 -5.5218682902701755 -3
      vertex 14.528747416929466 3.730348307472822 -3
      vertex 14.528747416929468 -3.7303483074728163 -3
    endloop
  endfacet
  facet normal 0 0 -1
    outer loop
      vertex 14.528747416929468 -3.7303483074728163 -3
      vertex 14.881720519717168 1.8799985034645639 -3
      vertex 14.881720519717168 -1.879998503464561 -3
    endloop
  endfacet
  facet normal 0.904827052466019 -0.4257792915650737 0
    outer loop
      vertex 13.144600200657951 -7.226305111525731 -3
      vertex 13.946647288323769 -5.5218682902701755 -3
      vertex 13.144600200657951 -7.226305111525731 0
    endloop
  endfacet
  facet normal 0.9510565162951536 -0.30901699437494723 0
    outer loop
      vertex 13.946647288323769 -5.5218682902701755 -3
      vertex 14.528747416929468 -3.7303483074728163 -3
      vertex 13.946647288323769 -5.5218682902701755 0
    endloop
  endfacet
  facet normal 0.9822872507286887 -0.18738131458572485 0
    outer loop
      vertex 14.528747416929468 -3.7303483074728163 -3
      vertex 14.881720519717168 -1.879998503464561 -3
      vertex 14.528747416929468 -3.7303483074728163 0
    endloop
  endfacet
  facet normal 0.9980267284282716 -0.06279051952931293 0
    outer loop
      vertex 14.881720519717168 -1.879998503464561 -3
      vertex 15 0 -3
      vertex 14.881720519717168 -1.879998503464561 0
    endloop
  endfacet
  facet normal 0.12533323356430498 -0.9921147013144778 0
    outer loop
      vertex 0.9418577929397064 -14.970400926424073 -3
      vertex 2.8107197187858723 -14.734308760930329 0
      vertex 0.9418577929397064 -14.970400926424073 0
    endloop
  endfacet
  facet normal 0.24868988716485493 -0.9685831611286311 0
    outer loop
      vertex 2.8107197187858723 -14.734308760930329 -3
      vertex 4.635254915624211 -14.265847744427303 0
      vertex 2.8107197187858723 -14.734308760930329 0
    endloop
  endfacet
  facet normal 0.3681245526846781 -0.9297764858882513 0
    outer loop
      vertex 4.635254915624211 -14.265847744427303 -3
      vertex 6.386689373476086 -13.572405786990293 0
      vertex 4.635254915624211 -14.265847744427303 0
    endloop
  endfacet
  facet normal 0.4817536741017143 -0.876306680043864 0
    outer loop
      vertex 6.386689373476086 -13.572405786990293 -3
      vertex 8.037401924684943 -12.66491888253023 0
      vertex 6.386689373476086 -13.572405786990293 0
    endloop
  endfacet
  facet normal 0 0 1
    outer loop
      vertex -0.9418577929397064 -14.970400926424073 0
      vertex 0.9418577929397064 -14.970400926424073 0
      vertex 0.2354644482349266 -3.7426002316060183 0
    endloop
  endfacet
  facet normal 0 0 1
    outer loop
      vertex 0.9418577929397064 -14.970400926424073 0
      vertex 2.8107197187858723 -14.734308760930329 0
      vertex 0.7026799296964681 -3.6835771902325822 0
    endloop
  endfacet
  facet normal 0 0 1
    outer loop
      vertex 2.8107197187858723 -14.734308760930329 0
      vertex 4.635254915624211 -14.265847744427303 0
      vertex 2.733632352830294 -2.567051647232582 0
    endloop
  endfacet
  facet normal 0 0 1
    outer loop
      vertex 0.9418577929397064 -14.970400926424073 0
      vertex 0.7026799296964681 -3.6835771902325822 0
      vertex 0.2354644482349266 -3.7426002316060183 0
    endloop
  endfacet
  facet normal 0 0 1
    outer loop
      vertex 2.8107197187858723 -14.734308760930329 0
      vertex 1.1588137289060527 -3.5664619361068257 0
      vertex 0.7026799296964681 -3.6835771902325822 0
    endloop
  endfacet
  facet normal 0 0 1
    outer loop
      vertex 2.8107197187858723 -14.734308760930329 0
      vertex 1.5966723433690215 -3.3931014467475733 0
      vertex 1.1588137289060527 -3.5664619361068257 0
    endloop
  endfacet
  facet normal 0 0 1
    outer loop
      vertex 2.8107197187858723 -14.734308760930329 0
      vertex 2.0093504811712357 -3.1662297206325576 0
      vertex 1.5966723433690215 -3.3931014467475733 0
    endloop
  endfacet
  facet normal 0 0 1
    outer loop
      vertex 2.8107197187858723 -14.734308760930329 0
      vertex 2.3903399615575873 -2.889424660409209 0
      vertex 2.0093504811712357 -3.1662297206325576 0
    endloop
  endfacet
  facet normal 0 0 1
    outer loop
      vertex 2.8107197187858723 -14.734308760930329 0
      vertex 2.733632352830294 -2.567051647232582 0
      vertex 2.3903399615575873 -2.889424660409209 0
    endloop
  endfacet
  facet normal 0 0 1
    outer loop
      vertex 4.635254915624211 -14.265847744427303 0
      vertex 3.033813728906053 -2.204194696096774 0
      vertex 2.733632352830294 -2.567051647232582 0
    endloop
  endfacet
  facet normal 0 0 1
    outer loop
      vertex 4.635254915624211 -14.265847744427303 0
      vertex 3.286150050164488 -1.8065762778814327 0
      vertex 3.033813728906053 -2.204194696096774 0
    endloop
  endfacet
  facet normal 0 0 1
    outer loop
      vertex 4.635254915624211 -14.265847744427303 0
      vertex 3.486661822080942 -1.3804670725675439 0
      vertex 3.286150050164488 -1.8065762778814327 0
    endloop
  endfacet
  facet normal 0 0 1
    outer loop
      vertex 4.635254915624211 -14.265847744427303 0
      vertex 3.632186854232367 -0.9325870768682041 0
      vertex 3.486661822080942 -1.3804670725675439 0
    endloop
  endfacet
  facet normal 0 0 1
    outer loop
      vertex 4.635254915624211 -14.265847744427303 0
      vertex 3.720430129929292 -0.46999962586614025 0
      vertex 3.632186854232367 -0.9325870768682041 0
    endloop
  endfacet
  facet normal 0 0 1
    outer loop
      vertex 4.635254915624211 -14.265847744427303 0
      vertex 3.75 0 0
      vertex 3.720430129929292 -0.46999962586614025 0
    endloop
  endfacet
  facet normal 0 0 1
    outer loop
      vertex 4.635254915624211 -14.265847744427303 0
      vertex 6.386689373476086 -13.572405786990293 0
      vertex 4.635254915624211 14.265847744427303 0
    endloop
  endfacet
  facet normal 0 0 1
    outer loop
      vertex 6.386689373476086 -13.572405786990293 0
      vertex 8.037401924684943 -12.66491888253023 0
      vertex 6.386689373476091 13.572405786990291 0
    endloop
  endfacet
  facet normal 0.5877852522924728 -0.8090169943749477 0
    outer loop
      vertex 8.037401924684943 -12.66491888253023 -3
      vertex 9.56135984623035 -11.557698641636836 0
      vertex 8.037401924684943 -12.66491888253023 0
    endloop
  endfacet
  facet normal 0.684547105928689 -0.7289686274214113 0
    outer loop
      vertex 9.56135984623035 -11.557698641636836 -3
      vertex 10.934529411321176 -10.268206588930328 0
      vertex 9.56135984623035 -11.557698641636836 0
    endloop
  endfacet
  facet normal 0.7705132427757891 -0.6374239897486899 0
    outer loop
      vertex 12.135254915624213 -8.816778784387097 -3
      vertex 12.135254915624213 -8.816778784387097 0
      vertex 10.934529411321176 -10.268206588930328 0
    endloop
  endfacet
  facet normal 0.8443279255020157 -0.5358267949789955 0
    outer loop
      vertex 13.144600200657951 -7.226305111525731 -3
      vertex 13.144600200657951 -7.226305111525731 0
      vertex 12.135254915624213 -8.816778784387097 0
    endloop
  endfacet
  facet normal 0.904827052466019 -0.4257792915650737 0
    outer loop
      vertex 13.946647288323769 -5.5218682902701755 -3
      vertex 13.946647288323769 -5.5218682902701755 0
      vertex 13.144600200657951 -7.226305111525731 0
    endloop
  endfacet
  facet normal 0.9510565162951536 -0.30901699437494723 0
    outer loop
      vertex 14.528747416929468 -3.7303483074728163 -3
      vertex 14.528747416929468 -3.7303483074728163 0
      vertex 13.946647288323769 -5.5218682902701755 0
    endloop
  endfacet
  facet normal 0.9822872507286887 -0.18738131458572485 0
    outer loop
      vertex 14.881720519717168 -1.879998503464561 -3
      vertex 14.881720519717168 -1.879998503464561 0
      vertex 14.528747416929468 -3.7303483074728163 0
    endloop
  endfacet
  facet normal 0.9980267284282716 -0.06279051952931293 0
    outer loop
      vertex 14.881720519717168 -1.879998503464561 0
      vertex 15 0 -3
      vertex 15 0 0
    endloop
  endfacet
  facet normal 0 0 1
    outer loop
      vertex 8.037401924684943 -12.66491888253023 0
      vertex 9.56135984623035 -11.557698641636836 0
      vertex 8.03740192468495 12.664918882530227 0
    endloop
  endfacet
  facet normal 0 0 1
    outer loop
      vertex 9.56135984623035 -11.557698641636836 0
      vertex 10.934529411321176 -10.268206588930328 0
      vertex 9.561359846230346 11.557698641636836 0
    endloop
  endfacet
  facet normal 0 0 1
    outer loop
      vertex 10.934529411321176 -10.268206588930328 0
      vertex 12.135254915624213 -8.816778784387097 0
      vertex 10.934529411321174 10.268206588930331 0
    endloop
  endfacet
  facet normal 0 0 1
    outer loop
      vertex 12.135254915624213 -8.816778784387097 0
      vertex 13.144600200657951 -7.226305111525731 0
      vertex 12.135254915624213 8.816778784387097 0
    endloop
  endfacet
  facet normal 0 0 1
    outer loop
      vertex 13.144600200657951 -7.226305111525731 0
      vertex 13.946647288323769 -5.5218682902701755 0
      vertex 13.144600200657953 7.22630511152573 0
    endloop
  endfacet
  facet normal 0 0 1
    outer loop
      vertex 13.946647288323769 -5.5218682902701755 0
      vertex 14.528747416929468 -3.7303483074728163 0
      vertex 13.94664728832377 5.521868290270169 0
    endloop
  endfacet
  facet normal 0 0 1
    outer loop
      vertex 14.528747416929468 -3.7303483074728163 0
      vertex 14.881720519717168 -1.879998503464561 0
      vertex 14.528747416929466 3.730348307472822 0
    endloop
  endfacet
  facet normal 0 0 -1
    outer loop
      vertex 2.8107197187858723 -14.734308760930329 -3
      vertex 2.125 0 -3
      vertex 2.810719718785869 14.73430876093033 -3
    endloop
  endfacet
  facet normal 0 0 -1
    outer loop
      vertex 0.9418577929396992 14.970400926424073 -3
      vertex 0.3981852934946647 2.0873604077984633 -3
      vertex 0.13342985399978777 2.120806797910077 -3
    endloop
  endfacet
  facet normal 0 0 -1
    outer loop
      vertex 0.9418577929396992 14.970400926424073 -3
      vertex 0.6566611130467632 2.020995097127201 -3
      vertex 0.3981852934946647 2.0873604077984633 -3
    endloop
  endfacet
  facet normal 0 0 -1
    outer loop
      vertex 0.9418577929396992 14.970400926424073 -3
      vertex 0.9047809945757795 1.9227574864902914 -3
      vertex 0.6566611130467632 2.020995097127201 -3
    endloop
  endfacet
  facet normal 0 0 -1
    outer loop
      vertex 2.810719718785869 14.73430876093033 -3
      vertex 1.3545259782159658 1.637340640898552 -3
      vertex 1.1386319393303679 1.794196841691782 -3
    endloop
  endfacet
  facet normal 0 0 -1
    outer loop
      vertex 2.810719718785869 14.73430876093033 -3
      vertex 1.1386319393303679 1.794196841691782 -3
      vertex 0.9047809945757795 1.9227574864902914 -3
    endloop
  endfacet
  facet normal 0 0 -1
    outer loop
      vertex 2.810719718785869 14.73430876093033 -3
      vertex 2.1082437402932657 0.26633312132414655 -3
      vertex 2.058239217398341 0.5284660102253165 -3
    endloop
  endfacet
  facet normal 0 0 -1
    outer loop
      vertex 2.810719718785869 14.73430876093033 -3
      vertex 2.058239217398341 0.5284660102253165 -3
      vertex 1.975775032512534 0.7822646744549407 -3
    endloop
  endfacet
  facet normal 0 0 -1
    outer loop
      vertex 2.810719718785869 14.73430876093033 -3
      vertex 1.975775032512534 0.7822646744549407 -3
      vertex 1.8621516950932102 1.0237265574661452 -3
    endloop
  endfacet
  facet normal 0 0 -1
    outer loop
      vertex 2.810719718785869 14.73430876093033 -3
      vertex 2.125 0 -3
      vertex 2.1082437402932657 0.26633312132414655 -3
    endloop
  endfacet
  facet normal 0 0 -1
    outer loop
      vertex 2.8107197187858723 -14.734308760930329 -3
      vertex 2.810719718785869 14.73430876093033 -3
      vertex 4.635254915624211 14.265847744427303 -3
    endloop
  endfacet
  facet normal 0 0 -1
    outer loop
      vertex 2.810719718785869 14.73430876093033 -3
      vertex 1.7191611130467632 1.2490436611215054 -3
      vertex 1.5490583332704995 1.4546626000984635 -3
    endloop
  endfacet
  facet normal 0 0 -1
    outer loop
      vertex 2.810719718785869 14.73430876093033 -3
      vertex 1.5490583332704995 1.4546626000984635 -3
      vertex 1.3545259782159658 1.637340640898552 -3
    endloop
  endfacet
  facet normal 0 0 -1
    outer loop
      vertex 2.810719718785869 14.73430876093033 -3
      vertex 1.8621516950932102 1.0237265574661452 -3
      vertex 1.7191611130467632 1.2490436611215054 -3
    endloop
  endfacet
  facet normal 0 0 -1
    outer loop
      vertex 4.635254915624211 -14.265847744427303 -3
      vertex 4.635254915624211 14.265847744427303 -3
      vertex 6.386689373476091 13.572405786990291 -3
    endloop
  endfacet
  facet normal 0 0 -1
    outer loop
      vertex 6.386689373476086 -13.572405786990293 -3
      vertex 6.386689373476091 13.572405786990291 -3
      vertex 8.03740192468495 12.664918882530227 -3
    endloop
  endfacet
  facet normal 0 0 -1
    outer loop
      vertex -0.9418577929396992 14.970400926424073 -3
      vertex 0.9418577929396992 14.970400926424073 -3
      vertex 0.13342985399978777 2.120806797910077 -3
    endloop
  endfacet
  facet normal 0 0 -1
    outer loop
      vertex 0.9418577929396992 14.970400926424073 -3
      vertex 2.810719718785869 14.73430876093033 -3
      vertex 0.9047809945757795 1.9227574864902914 -3
    endloop
  endfacet
  facet normal 0.1253332335643038 0.9921147013144779 0
    outer loop
      vertex 0.9418577929396992 14.970400926424073 -3
      vertex 0.9418577929396992 14.970400926424073 0
      vertex 2.810719718785869 14.73430876093033 -3
    endloop
  endfacet
  facet normal 0.24868988716485538 0.968583161128631 0
    outer loop
      vertex 2.810719718785869 14.73430876093033 -3
      vertex 2.810719718785869 14.73430876093033 0
      vertex 4.635254915624211 14.265847744427303 -3
    endloop
  endfacet
  facet normal 0.36812455268467803 0.9297764858882512 0
    outer loop
      vertex 4.635254915624211 14.265847744427303 -3
      vertex 4.635254915624211 14.265847744427303 0
      vertex 6.386689373476091 13.572405786990291 -3
    endloop
  endfacet
  facet normal 0.4817536741017145 0.8763066800438641 0
    outer loop
      vertex 6.386689373476091 13.572405786990291 -3
      vertex 6.386689373476091 13.572405786990291 0
      vertex 8.03740192468495 12.664918882530227 -3
    endloop
  endfacet
  facet normal 0 0 -1
    outer loop
      vertex 9.56135984623035 -11.557698641636836 -3
      vertex 9.561359846230346 11.557698641636836 -3
      vertex 10.934529411321174 10.268206588930331 -3
    endloop
  endfacet
  facet normal 0 0 -1
    outer loop
      vertex 8.037401924684943 -12.66491888253023 -3
      vertex 8.03740192468495 12.664918882530227 -3
      vertex 9.561359846230346 11.557698641636836 -3
    endloop
  endfacet
  facet normal 0 0 -1
    outer loop
      vertex 10.934529411321176 -10.268206588930328 -3
      vertex 10.934529411321174 10.268206588930331 -3
      vertex 12.135254915624213 8.816778784387097 -3
    endloop
  endfacet
  facet normal 0 0 -1
    outer loop
      vertex 12.135254915624213 -8.816778784387097 -3
      vertex 12.135254915624213 8.816778784387097 -3
      vertex 13.144600200657953 7.22630511152573 -3
    endloop
  endfacet
  facet normal 0 0 -1
    outer loop
      vertex 13.144600200657951 -7.226305111525731 -3
      vertex 13.144600200657953 7.22630511152573 -3
      vertex 13.94664728832377 5.521868290270169 -3
    endloop
  endfacet
  facet normal 0 0 -1
    outer loop
      vertex 14.881720519717168 -1.879998503464561 -3
      vertex 14.881720519717168 1.8799985034645639 -3
      vertex 15 0 -3
    endloop
  endfacet
  facet normal 0 0 -1
    outer loop
      vertex 14.528747416929468 -3.7303483074728163 -3
      vertex 14.528747416929466 3.730348307472822 -3
      vertex 14.881720519717168 1.8799985034645639 -3
    endloop
  endfacet
  facet normal 0 0 -1
    outer loop
      vertex 13.946647288323769 -5.5218682902701755 -3
      vertex 13.94664728832377 5.521868290270169 -3
      vertex 14.528747416929466 3.730348307472822 -3
    endloop
  endfacet
  facet normal 0.9980267284282716 0.06279051952931283 0
    outer loop
      vertex 15 0 -3
      vertex 14.881720519717168 1.8799985034645639 -3
      vertex 15 0 0
    endloop
  endfacet
  facet normal 0.9822872507286885 0.1873813145857255 0
    outer loop
      vertex 14.881720519717168 1.8799985034645639 -3
      vertex 14.528747416929466 3.730348307472822 -3
      vertex 14.881720519717168 1.8799985034645639 0
    endloop
  endfacet
  facet normal 0.9510565162951536 0.30901699437494734 0
    outer loop
      vertex 14.528747416929466 3.730348307472822 -3
      vertex 13.94664728832377 5.521868290270169 -3
      vertex 14.528747416929466 3.730348307472822 0
    endloop
  endfacet
  facet normal 0.9048270524660196 0.42577929156507266 0
    outer loop
      vertex 13.94664728832377 5.521868290270169 -3
      vertex 13.144600200657953 7.22630511152573 -3
      vertex 13.94664728832377 5.521868290270169 0
    endloop
  endfacet
  facet normal 0.6845471059286875 0.7289686274214127 0
    outer loop
      vertex 10.934529411321174 10.268206588930331 -3
      vertex 9.561359846230346 11.557698641636836 -3
      vertex 9.561359846230346 11.557698641636836 0
    endloop
  endfacet
  facet normal 0.5877852522924742 0.8090169943749467 0
    outer loop
      vertex 8.03740192468495 12.664918882530227 -3
      vertex 8.03740192468495 12.664918882530227 0
      vertex 9.561359846230346 11.557698641636836 -3
    endloop
  endfacet
  facet normal 0.7705132427757895 0.6374239897486894 0
    outer loop
      vertex 10.934529411321174 10.268206588930331 -3
      vertex 12.135254915624213 8.816778784387097 0
      vertex 12.135254915624213 8.816778784387097 -3
    endloop
  endfacet
  facet normal 0.8443279255020154 0.535826794978996 0
    outer loop
      vertex 13.144600200657953 7.22630511152573 -3
      vertex 12.135254915624213 8.816778784387097 -3
      vertex 13.144600200657953 7.22630511152573 0
    endloop
  endfacet
  facet normal 0 0 1
    outer loop
      vertex 0.9418577929396992 14.970400926424073 0
      vertex 0.2354644482349248 3.7426002316060183 0
      vertex 0.7026799296964672 3.6835771902325827 0
    endloop
  endfacet
  facet normal 0 0 1
    outer loop
      vertex 0.9418577929396992 14.970400926424073 0
      vertex 0.7026799296964672 3.6835771902325827 0
      vertex 1.1588137289060527 3.5664619361068257 0
    endloop
  endfacet
  facet normal 0 0 1
    outer loop
      vertex 0.9418577929396992 14.970400926424073 0
      vertex 1.1588137289060527 3.5664619361068257 0
      vertex 1.5966723433690226 3.393101446747573 0
    endloop
  endfacet
  facet normal 0 0 1
    outer loop
      vertex 0.9418577929396992 14.970400926424073 0
      vertex 1.5966723433690226 3.393101446747573 0
      vertex 2.0093504811712375 3.1662297206325567 0
    endloop
  endfacet
  facet normal 0 0 1
    outer loop
      vertex 2.810719718785869 14.73430876093033 0
      vertex 3.6321868542323665 0.9325870768682055 0
      vertex 3.720430129929292 0.46999962586614097 0
    endloop
  endfacet
  facet normal 0 0 1
    outer loop
      vertex 2.810719718785869 14.73430876093033 0
      vertex 2.0093504811712375 3.1662297206325567 0
      vertex 2.3903399615575864 2.889424660409209 0
    endloop
  endfacet
  facet normal 0 0 1
    outer loop
      vertex 2.810719718785869 14.73430876093033 0
      vertex 2.3903399615575864 2.889424660409209 0
      vertex 2.7336323528302935 2.567051647232583 0
    endloop
  endfacet
  facet normal 0 0 1
    outer loop
      vertex 2.810719718785869 14.73430876093033 0
      vertex 3.2861500501644882 1.8065762778814325 0
      vertex 3.4866618220809427 1.3804670725675423 0
    endloop
  endfacet
  facet normal 0 0 1
    outer loop
      vertex 2.810719718785869 14.73430876093033 0
      vertex 3.033813728906053 2.204194696096774 0
      vertex 3.2861500501644882 1.8065762778814325 0
    endloop
  endfacet
  facet normal 0 0 1
    outer loop
      vertex 2.810719718785869 14.73430876093033 0
      vertex 2.7336323528302935 2.567051647232583 0
      vertex 3.033813728906053 2.204194696096774 0
    endloop
  endfacet
  facet normal 0 0 1
    outer loop
      vertex 2.810719718785869 14.73430876093033 0
      vertex 3.4866618220809427 1.3804670725675423 0
      vertex 3.6321868542323665 0.9325870768682055 0
    endloop
  endfacet
  facet normal 0 0 1
    outer loop
      vertex 4.635254915624211 -14.265847744427303 0
      vertex 4.635254915624211 14.265847744427303 0
      vertex 3.75 0 0
    endloop
  endfacet
  facet normal 0 0 1
    outer loop
      vertex 4.635254915624211 14.265847744427303 0
      vertex 3.720430129929292 0.46999962586614097 0
      vertex 3.75 0 0
    endloop
  endfacet
  facet normal 0 0 1
    outer loop
      vertex 6.386689373476086 -13.572405786990293 0
      vertex 6.386689373476091 13.572405786990291 0
      vertex 4.635254915624211 14.265847744427303 0
    endloop
  endfacet
  facet normal 0 0 1
    outer loop
      vertex 8.037401924684943 -12.66491888253023 0
      vertex 8.03740192468495 12.664918882530227 0
      vertex 6.386689373476091 13.572405786990291 0
    endloop
  endfacet
  facet normal 0 1 0
    outer loop
      vertex -0.9418577929396992 14.970400926424073 0
      vertex 0.9418577929396992 14.970400926424073 0
      vertex 0.9418577929396992 14.970400926424073 -3
    endloop
  endfacet
  facet normal 0.1253332335643038 0.9921147013144779 0
    outer loop
      vertex 2.810719718785869 14.73430876093033 -3
      vertex 0.9418577929396992 14.970400926424073 0
      vertex 2.810719718785869 14.73430876093033 0
    endloop
  endfacet
  facet normal 0.24868988716485538 0.968583161128631 0
    outer loop
      vertex 4.635254915624211 14.265847744427303 -3
      vertex 2.810719718785869 14.73430876093033 0
      vertex 4.635254915624211 14.265847744427303 0
    endloop
  endfacet
  facet normal 0.4817536741017145 0.8763066800438641 0
    outer loop
      vertex 8.03740192468495 12.664918882530227 -3
      vertex 6.386689373476091 13.572405786990291 0
      vertex 8.03740192468495 12.664918882530227 0
    endloop
  endfacet
  facet normal 0.36812455268467803 0.9297764858882512 0
    outer loop
      vertex 6.386689373476091 13.572405786990291 -3
      vertex 4.635254915624211 14.265847744427303 0
      vertex 6.386689373476091 13.572405786990291 0
    endloop
  endfacet
  facet normal 0 0 1
    outer loop
      vertex 0.9418577929396992 14.970400926424073 0
      vertex -0.23546444823492205 3.7426002316060183 0
      vertex 0.2354644482349248 3.7426002316060183 0
    endloop
  endfacet
  facet normal 0 0 1
    outer loop
      vertex 0.9418577929396992 14.970400926424073 0
      vertex 2.0093504811712375 3.1662297206325567 0
      vertex 2.810719718785869 14.73430876093033 0
    endloop
  endfacet
  facet normal 0 0 1
    outer loop
      vertex 2.810719718785869 14.73430876093033 0
      vertex 3.720430129929292 0.46999962586614097 0
      vertex 4.635254915624211 14.265847744427303 0
    endloop
  endfacet
  facet normal 0.9980267284282716 0.06279051952931283 0
    outer loop
      vertex 14.881720519717168 1.8799985034645639 -3
      vertex 14.881720519717168 1.8799985034645639 0
      vertex 15 0 0
    endloop
  endfacet
  facet normal 0.9822872507286885 0.1873813145857255 0
    outer loop
      vertex 14.528747416929466 3.730348307472822 -3
      vertex 14.528747416929466 3.730348307472822 0
      vertex 14.881720519717168 1.8799985034645639 0
    endloop
  endfacet
  facet normal 0.9510565162951536 0.30901699437494734 0
    outer loop
      vertex 13.94664728832377 5.521868290270169 -3
      vertex 13.94664728832377 5.521868290270169 0
      vertex 14.528747416929466 3.730348307472822 0
    endloop
  endfacet
  facet normal 0.9048270524660196 0.42577929156507266 0
    outer loop
      vertex 13.144600200657953 7.22630511152573 -3
      vertex 13.144600200657953 7.22630511152573 0
      vertex 13.94664728832377 5.521868290270169 0
    endloop
  endfacet
  facet normal 0 0 1
    outer loop
      vertex 9.56135984623035 -11.557698641636836 0
      vertex 9.561359846230346 11.557698641636836 0
      vertex 8.03740192468495 12.664918882530227 0
    endloop
  endfacet
  facet normal 0 0 1
    outer loop
      vertex 10.934529411321176 -10.268206588930328 0
      vertex 10.934529411321174 10.268206588930331 0
      vertex 9.561359846230346 11.557698641636836 0
    endloop
  endfacet
  facet normal 0 0 1
    outer loop
      vertex 12.135254915624213 -8.816778784387097 0
      vertex 12.135254915624213 8.816778784387097 0
      vertex 10.934529411321174 10.268206588930331 0
    endloop
  endfacet
  facet normal 0 0 1
    outer loop
      vertex 13.144600200657951 -7.226305111525731 0
      vertex 13.144600200657953 7.22630511152573 0
      vertex 12.135254915624213 8.816778784387097 0
    endloop
  endfacet
  facet normal 0 0 1
    outer loop
      vertex 14.881720519717168 -1.879998503464561 0
      vertex 15 0 0
      vertex 14.881720519717168 1.8799985034645639 0
    endloop
  endfacet
  facet normal 0 0 1
    outer loop
      vertex 14.528747416929468 -3.7303483074728163 0
      vertex 14.528747416929466 3.730348307472822 0
      vertex 13.94664728832377 5.521868290270169 0
    endloop
  endfacet
  facet normal 0 0 1
    outer loop
      vertex 14.881720519717168 -1.879998503464561 0
      vertex 14.881720519717168 1.8799985034645639 0
      vertex 14.528747416929466 3.730348307472822 0
    endloop
  endfacet
  facet normal 0 0 1
    outer loop
      vertex 13.946647288323769 -5.5218682902701755 0
      vertex 13.94664728832377 5.521868290270169 0
      vertex 13.144600200657953 7.22630511152573 0
    endloop
  endfacet
  facet normal 0.6845471059286875 0.7289686274214127 0
    outer loop
      vertex 10.934529411321174 10.268206588930331 -3
      vertex 9.561359846230346 11.557698641636836 0
      vertex 10.934529411321174 10.268206588930331 0
    endloop
  endfacet
  facet normal 0.5877852522924742 0.8090169943749467 0
    outer loop
      vertex 9.561359846230346 11.557698641636836 -3
      vertex 8.03740192468495 12.664918882530227 0
      vertex 9.561359846230346 11.557698641636836 0
    endloop
  endfacet
  facet normal 0.8443279255020154 0.535826794978996 0
    outer loop
      vertex 12.135254915624213 8.816778784387097 -3
      vertex 12.135254915624213 8.816778784387097 0
      vertex 13.144600200657953 7.22630511152573 0
    endloop
  endfacet
  facet normal 0.7705132427757895 0.6374239897486894 0
    outer loop
      vertex 10.934529411321174 10.268206588930331 -3
      vertex 10.934529411321174 10.268206588930331 0
      vertex 12.135254915624213 8.816778784387097 0
    endloop
  endfacet
endsolid OpenSCAD_Model
