solid OpenSCAD_Model
  facet normal 0 -1 0
    outer loop
      vertex -2.95712 5.12189 -5
      vertex 2.95712 5.12189 0
      vertex -2.95712 5.12189 0
    endloop
  endfacet
  facet normal 0 -1 -0
    outer loop
      vertex 2.95712 5.12189 0
      vertex -2.95712 5.12189 -5
      vertex 2.95712 5.12189 -5
    endloop
  endfacet
  facet normal 0.866025 -0.500001 0
    outer loop
      vertex -5.91425 0 0
      vertex -2.95712 5.12189 -5
      vertex -2.95712 5.12189 0
    endloop
  endfacet
  facet normal 0.866025 -0.500001 0
    outer loop
      vertex -2.95712 5.12189 -5
      vertex -5.91425 0 0
      vertex -5.91425 0 -5
    endloop
  endfacet
  facet normal -0.866025 -0.500001 0
    outer loop
      vertex 5.91425 0 -5
      vertex 2.95712 5.12189 0
      vertex 2.95712 5.12189 -5
    endloop
  endfacet
  facet normal -0.866025 -0.500001 0
    outer loop
      vertex 2.95712 5.12189 0
      vertex 5.91425 0 -5
      vertex 5.91425 0 0
    endloop
  endfacet
  facet normal 0 0 1
    outer loop
      vertex 5.91425 0 0
      vertex 22.5 0 0
      vertex 22.3226 2.82 0
    endloop
  endfacet
  facet normal 0 0 1
    outer loop
      vertex 5.91425 0 0
      vertex 22.3226 2.82 0
      vertex 21.7931 5.59552 0
    endloop
  endfacet
  facet normal 0 0 1
    outer loop
      vertex 22.5 0 0
      vertex 5.91425 0 0
      vertex 22.3226 -2.82 0
    endloop
  endfacet
  facet normal 0 0 1
    outer loop
      vertex 5.91425 0 0
      vertex 21.7931 5.59552 0
      vertex 20.92 8.2828 0
    endloop
  endfacet
  facet normal 0 0 1
    outer loop
      vertex 22.3226 -2.82 0
      vertex 5.91425 0 0
      vertex 21.7931 -5.59552 0
    endloop
  endfacet
  facet normal 0 0 1
    outer loop
      vertex 5.91425 0 0
      vertex 20.92 8.2828 0
      vertex 19.7169 10.8395 0
    endloop
  endfacet
  facet normal 0 0 1
    outer loop
      vertex 21.7931 -5.59552 0
      vertex 5.91425 0 0
      vertex 20.92 -8.2828 0
    endloop
  endfacet
  facet normal 0 0 1
    outer loop
      vertex 2.95712 5.12189 0
      vertex 19.7169 10.8395 0
      vertex 18.2029 13.2252 0
    endloop
  endfacet
  facet normal 0 0 1
    outer loop
      vertex 20.92 -8.2828 0
      vertex 5.91425 0 0
      vertex 19.7169 -10.8395 0
    endloop
  endfacet
  facet normal 0 0 1
    outer loop
      vertex 2.95712 5.12189 0
      vertex 18.2029 13.2252 0
      vertex 16.4018 15.4023 0
    endloop
  endfacet
  facet normal -0 0 1
    outer loop
      vertex 2.95712 -5.12189 0
      vertex 19.7169 -10.8395 0
      vertex 5.91425 0 0
    endloop
  endfacet
  facet normal 0 0 1
    outer loop
      vertex 2.95712 5.12189 0
      vertex 16.4018 15.4023 0
      vertex 14.342 17.3365 0
    endloop
  endfacet
  facet normal 0 0 1
    outer loop
      vertex 19.7169 -10.8395 0
      vertex 2.95712 -5.12189 0
      vertex 18.2029 -13.2252 0
    endloop
  endfacet
  facet normal 0 0 1
    outer loop
      vertex 2.95712 5.12189 0
      vertex 14.342 17.3365 0
      vertex 12.0561 18.9974 0
    endloop
  endfacet
  facet normal 0 0 1
    outer loop
      vertex 18.2029 -13.2252 0
      vertex 2.95712 -5.12189 0
      vertex 16.4018 -15.4023 0
    endloop
  endfacet
  facet normal 0 0 1
    outer loop
      vertex 2.95712 5.12189 0
      vertex 12.0561 18.9974 0
      vertex 9.58003 20.3586 0
    endloop
  endfacet
  facet normal 0 0 1
    outer loop
      vertex 16.4018 -15.4023 0
      vertex 2.95712 -5.12189 0
      vertex 14.342 -17.3365 0
    endloop
  endfacet
  facet normal 0 0 1
    outer loop
      vertex 2.95712 5.12189 0
      vertex 9.58003 20.3586 0
      vertex 6.95288 21.3988 0
    endloop
  endfacet
  facet normal 0 0 1
    outer loop
      vertex 14.342 -17.3365 0
      vertex 2.95712 -5.12189 0
      vertex 12.0561 -18.9974 0
    endloop
  endfacet
  facet normal 0 0 1
    outer loop
      vertex 12.0561 -18.9974 0
      vertex 2.95712 -5.12189 0
      vertex 9.58003 -20.3586 0
    endloop
  endfacet
  facet normal 0 0 1
    outer loop
      vertex 2.95712 5.12189 0
      vertex 6.95288 21.3988 0
      vertex 4.21608 22.1015 0
    endloop
  endfacet
  facet normal 0 0 1
    outer loop
      vertex 19.7169 10.8395 0
      vertex 2.95712 5.12189 0
      vertex 5.91425 0 0
    endloop
  endfacet
  facet normal 0 0 1
    outer loop
      vertex 1.41279 22.4556 0
      vertex 2.95712 5.12189 0
      vertex 4.21608 22.1015 0
    endloop
  endfacet
  facet normal -0 0 1
    outer loop
      vertex -1.41279 22.4556 0
      vertex 2.95712 5.12189 0
      vertex 1.41279 22.4556 0
    endloop
  endfacet
  facet normal 0 0 1
    outer loop
      vertex -1.41279 22.4556 0
      vertex -2.95712 5.12189 0
      vertex 2.95712 5.12189 0
    endloop
  endfacet
  facet normal -0 0 1
    outer loop
      vertex -4.21608 22.1015 0
      vertex -2.95712 5.12189 0
      vertex -1.41279 22.4556 0
    endloop
  endfacet
  facet normal -0 0 1
    outer loop
      vertex -6.95288 21.3988 0
      vertex -2.95712 5.12189 0
      vertex -4.21608 22.1015 0
    endloop
  endfacet
  facet normal -0 0 1
    outer loop
      vertex -9.58003 20.3586 0
      vertex -2.95712 5.12189 0
      vertex -6.95288 21.3988 0
    endloop
  endfacet
  facet normal 0 0 1
    outer loop
      vertex 9.58003 -20.3586 0
      vertex 2.95712 -5.12189 0
      vertex 6.95288 -21.3988 0
    endloop
  endfacet
  facet normal 0 0 1
    outer loop
      vertex 6.95288 -21.3988 0
      vertex 2.95712 -5.12189 0
      vertex 4.21608 -22.1015 0
    endloop
  endfacet
  facet normal 0 0 1
    outer loop
      vertex 2.95712 -5.12189 0
      vertex 1.41279 -22.4556 0
      vertex 4.21608 -22.1015 0
    endloop
  endfacet
  facet normal 0 0 1
    outer loop
      vertex 2.95712 -5.12189 0
      vertex -1.41279 -22.4556 0
      vertex 1.41279 -22.4556 0
    endloop
  endfacet
  facet normal -0 0 1
    outer loop
      vertex -2.95712 -5.12189 0
      vertex -1.41279 -22.4556 0
      vertex 2.95712 -5.12189 0
    endloop
  endfacet
  facet normal 0 0 1
    outer loop
      vertex -2.95712 -5.12189 0
      vertex -4.21608 -22.1015 0
      vertex -1.41279 -22.4556 0
    endloop
  endfacet
  facet normal 0 0 1
    outer loop
      vertex -19.7169 -10.8395 0
      vertex -2.95712 -5.12189 0
      vertex -5.91425 0 0
    endloop
  endfacet
  facet normal 0 0 1
    outer loop
      vertex -2.95712 -5.12189 0
      vertex -6.95288 -21.3988 0
      vertex -4.21608 -22.1015 0
    endloop
  endfacet
  facet normal -0 0 1
    outer loop
      vertex -12.0561 18.9974 0
      vertex -2.95712 5.12189 0
      vertex -9.58003 20.3586 0
    endloop
  endfacet
  facet normal -0 0 1
    outer loop
      vertex -14.342 17.3365 0
      vertex -2.95712 5.12189 0
      vertex -12.0561 18.9974 0
    endloop
  endfacet
  facet normal 0 0 1
    outer loop
      vertex -2.95712 -5.12189 0
      vertex -9.58003 -20.3586 0
      vertex -6.95288 -21.3988 0
    endloop
  endfacet
  facet normal -0 0 1
    outer loop
      vertex -16.4018 15.4023 0
      vertex -2.95712 5.12189 0
      vertex -14.342 17.3365 0
    endloop
  endfacet
  facet normal 0 0 1
    outer loop
      vertex -2.95712 -5.12189 0
      vertex -12.0561 -18.9974 0
      vertex -9.58003 -20.3586 0
    endloop
  endfacet
  facet normal -0 0 1
    outer loop
      vertex -18.2029 13.2252 0
      vertex -2.95712 5.12189 0
      vertex -16.4018 15.4023 0
    endloop
  endfacet
  facet normal 0 0 1
    outer loop
      vertex -2.95712 -5.12189 0
      vertex -14.342 -17.3365 0
      vertex -12.0561 -18.9974 0
    endloop
  endfacet
  facet normal -0 0 1
    outer loop
      vertex -19.7169 10.8395 0
      vertex -2.95712 5.12189 0
      vertex -18.2029 13.2252 0
    endloop
  endfacet
  facet normal 0 0 1
    outer loop
      vertex -2.95712 -5.12189 0
      vertex -16.4018 -15.4023 0
      vertex -14.342 -17.3365 0
    endloop
  endfacet
  facet normal 0 0 1
    outer loop
      vertex -2.95712 5.12189 0
      vertex -19.7169 10.8395 0
      vertex -5.91425 0 0
    endloop
  endfacet
  facet normal 0 0 1
    outer loop
      vertex -2.95712 -5.12189 0
      vertex -18.2029 -13.2252 0
      vertex -16.4018 -15.4023 0
    endloop
  endfacet
  facet normal -0 0 1
    outer loop
      vertex -20.92 8.2828 0
      vertex -5.91425 0 0
      vertex -19.7169 10.8395 0
    endloop
  endfacet
  facet normal 0 0 1
    outer loop
      vertex -2.95712 -5.12189 0
      vertex -19.7169 -10.8395 0
      vertex -18.2029 -13.2252 0
    endloop
  endfacet
  facet normal -0 0 1
    outer loop
      vertex -21.7931 5.59552 0
      vertex -5.91425 0 0
      vertex -20.92 8.2828 0
    endloop
  endfacet
  facet normal 0 0 1
    outer loop
      vertex -5.91425 0 0
      vertex -20.92 -8.2828 0
      vertex -19.7169 -10.8395 0
    endloop
  endfacet
  facet normal -0 0 1
    outer loop
      vertex -22.3226 2.82 0
      vertex -5.91425 0 0
      vertex -21.7931 5.59552 0
    endloop
  endfacet
  facet normal 0 0 1
    outer loop
      vertex -5.91425 0 0
      vertex -21.7931 -5.59552 0
      vertex -20.92 -8.2828 0
    endloop
  endfacet
  facet normal 0 0 1
    outer loop
      vertex -22.5 0 0
      vertex -5.91425 0 0
      vertex -22.3226 2.82 0
    endloop
  endfacet
  facet normal 0 0 1
    outer loop
      vertex -5.91425 0 0
      vertex -22.3226 -2.82 0
      vertex -21.7931 -5.59552 0
    endloop
  endfacet
  facet normal 0 0 1
    outer loop
      vertex -5.91425 0 0
      vertex -22.5 0 0
      vertex -22.3226 -2.82 0
    endloop
  endfacet
  facet normal 0 1 -0
    outer loop
      vertex 2.95712 -5.12189 -5
      vertex -2.95712 -5.12189 0
      vertex 2.95712 -5.12189 0
    endloop
  endfacet
  facet normal 0 1 0
    outer loop
      vertex -2.95712 -5.12189 0
      vertex 2.95712 -5.12189 -5
      vertex -2.95712 -5.12189 -5
    endloop
  endfacet
  facet normal 0 0 1
    outer loop
      vertex 5.91425 0 -5
      vertex 3.22437 0.407332 -5
      vertex 3.25 0 -5
    endloop
  endfacet
  facet normal 0 0 1
    outer loop
      vertex 5.91425 0 -5
      vertex 3.14789 0.808242 -5
      vertex 3.22437 0.407332 -5
    endloop
  endfacet
  facet normal 0 0 1
    outer loop
      vertex 5.91425 0 -5
      vertex 3.02177 1.1964 -5
      vertex 3.14789 0.808242 -5
    endloop
  endfacet
  facet normal -0 0 1
    outer loop
      vertex 2.848 1.5657 -5
      vertex 5.91425 0 -5
      vertex 2.95712 5.12189 -5
    endloop
  endfacet
  facet normal 0 0 1
    outer loop
      vertex 5.91425 0 -5
      vertex 2.848 1.5657 -5
      vertex 3.02177 1.1964 -5
    endloop
  endfacet
  facet normal 0 0 1
    outer loop
      vertex 2.95712 5.12189 -5
      vertex 2.6293 1.9103 -5
      vertex 2.848 1.5657 -5
    endloop
  endfacet
  facet normal 0 0 1
    outer loop
      vertex 2.95712 5.12189 -5
      vertex 2.36915 2.22478 -5
      vertex 2.6293 1.9103 -5
    endloop
  endfacet
  facet normal 0 0 1
    outer loop
      vertex 2.95712 5.12189 -5
      vertex 2.07163 2.50417 -5
      vertex 2.36915 2.22478 -5
    endloop
  endfacet
  facet normal 0 0 1
    outer loop
      vertex 2.95712 5.12189 -5
      vertex 1.74144 2.74407 -5
      vertex 2.07163 2.50417 -5
    endloop
  endfacet
  facet normal 0 0 1
    outer loop
      vertex 2.95712 5.12189 -5
      vertex 1.38378 2.94069 -5
      vertex 1.74144 2.74407 -5
    endloop
  endfacet
  facet normal 0 0 1
    outer loop
      vertex 2.95712 5.12189 -5
      vertex 1.0043 3.09093 -5
      vertex 1.38378 2.94069 -5
    endloop
  endfacet
  facet normal 0 0 1
    outer loop
      vertex 2.95712 5.12189 -5
      vertex 0.608989 3.19243 -5
      vertex 1.0043 3.09093 -5
    endloop
  endfacet
  facet normal 0 0 1
    outer loop
      vertex 2.95712 5.12189 -5
      vertex 0.204069 3.24359 -5
      vertex 0.608989 3.19243 -5
    endloop
  endfacet
  facet normal 0 0 1
    outer loop
      vertex 2.95712 5.12189 -5
      vertex -0.204069 3.24359 -5
      vertex 0.204069 3.24359 -5
    endloop
  endfacet
  facet normal -0 0 1
    outer loop
      vertex -2.95712 5.12189 -5
      vertex -0.204069 3.24359 -5
      vertex 2.95712 5.12189 -5
    endloop
  endfacet
  facet normal 0 0 1
    outer loop
      vertex -0.204069 3.24359 -5
      vertex -2.95712 5.12189 -5
      vertex -0.608989 3.19243 -5
    endloop
  endfacet
  facet normal 0 0 1
    outer loop
      vertex -0.608989 3.19243 -5
      vertex -2.95712 5.12189 -5
      vertex -1.0043 3.09093 -5
    endloop
  endfacet
  facet normal 0 0 1
    outer loop
      vertex -1.0043 3.09093 -5
      vertex -2.95712 5.12189 -5
      vertex -1.38378 2.94069 -5
    endloop
  endfacet
  facet normal 0 0 1
    outer loop
      vertex -2.95712 5.12189 -5
      vertex -1.74144 2.74407 -5
      vertex -1.38378 2.94069 -5
    endloop
  endfacet
  facet normal 0 0 1
    outer loop
      vertex -2.95712 5.12189 -5
      vertex -2.07163 2.50417 -5
      vertex -1.74144 2.74407 -5
    endloop
  endfacet
  facet normal 0 0 1
    outer loop
      vertex -2.95712 5.12189 -5
      vertex -2.36915 2.22478 -5
      vertex -2.07163 2.50417 -5
    endloop
  endfacet
  facet normal 0 0 1
    outer loop
      vertex -2.95712 5.12189 -5
      vertex -2.6293 1.9103 -5
      vertex -2.36915 2.22478 -5
    endloop
  endfacet
  facet normal 0 0 1
    outer loop
      vertex -2.95712 5.12189 -5
      vertex -2.848 1.5657 -5
      vertex -2.6293 1.9103 -5
    endloop
  endfacet
  facet normal 0 0 1
    outer loop
      vertex -5.91425 0 -5
      vertex -2.848 1.5657 -5
      vertex -2.95712 5.12189 -5
    endloop
  endfacet
  facet normal 0 0 1
    outer loop
      vertex -2.848 1.5657 -5
      vertex -5.91425 0 -5
      vertex -3.02177 1.1964 -5
    endloop
  endfacet
  facet normal 0 0 1
    outer loop
      vertex -3.02177 1.1964 -5
      vertex -5.91425 0 -5
      vertex -3.14789 0.808242 -5
    endloop
  endfacet
  facet normal 0 0 1
    outer loop
      vertex -3.14789 0.808242 -5
      vertex -5.91425 0 -5
      vertex -3.22437 0.407332 -5
    endloop
  endfacet
  facet normal 0 0 1
    outer loop
      vertex -3.22437 0.407332 -5
      vertex -5.91425 0 -5
      vertex -3.25 0 -5
    endloop
  endfacet
  facet normal 0 0 1
    outer loop
      vertex 3.22437 -0.407332 -5
      vertex 5.91425 0 -5
      vertex 3.25 0 -5
    endloop
  endfacet
  facet normal 0 0 1
    outer loop
      vertex 3.14789 -0.808242 -5
      vertex 5.91425 0 -5
      vertex 3.22437 -0.407332 -5
    endloop
  endfacet
  facet normal 0 0 1
    outer loop
      vertex 3.02177 -1.1964 -5
      vertex 5.91425 0 -5
      vertex 3.14789 -0.808242 -5
    endloop
  endfacet
  facet normal 0 0 1
    outer loop
      vertex 2.848 -1.5657 -5
      vertex 5.91425 0 -5
      vertex 3.02177 -1.1964 -5
    endloop
  endfacet
  facet normal 0 0 1
    outer loop
      vertex 5.91425 0 -5
      vertex 2.848 -1.5657 -5
      vertex 2.95712 -5.12189 -5
    endloop
  endfacet
  facet normal -0 0 1
    outer loop
      vertex 2.6293 -1.9103 -5
      vertex 2.95712 -5.12189 -5
      vertex 2.848 -1.5657 -5
    endloop
  endfacet
  facet normal -0 0 1
    outer loop
      vertex 2.36915 -2.22478 -5
      vertex 2.95712 -5.12189 -5
      vertex 2.6293 -1.9103 -5
    endloop
  endfacet
  facet normal -0 0 1
    outer loop
      vertex 2.07163 -2.50417 -5
      vertex 2.95712 -5.12189 -5
      vertex 2.36915 -2.22478 -5
    endloop
  endfacet
  facet normal -0 0 1
    outer loop
      vertex 1.74144 -2.74407 -5
      vertex 2.95712 -5.12189 -5
      vertex 2.07163 -2.50417 -5
    endloop
  endfacet
  facet normal -0 0 1
    outer loop
      vertex 1.38378 -2.94069 -5
      vertex 2.95712 -5.12189 -5
      vertex 1.74144 -2.74407 -5
    endloop
  endfacet
  facet normal -0 0 1
    outer loop
      vertex 1.0043 -3.09093 -5
      vertex 2.95712 -5.12189 -5
      vertex 1.38378 -2.94069 -5
    endloop
  endfacet
  facet normal -0 0 1
    outer loop
      vertex 0.608989 -3.19243 -5
      vertex 2.95712 -5.12189 -5
      vertex 1.0043 -3.09093 -5
    endloop
  endfacet
  facet normal -0 0 1
    outer loop
      vertex 0.204069 -3.24359 -5
      vertex 2.95712 -5.12189 -5
      vertex 0.608989 -3.19243 -5
    endloop
  endfacet
  facet normal -0 0 1
    outer loop
      vertex -0.204069 -3.24359 -5
      vertex 2.95712 -5.12189 -5
      vertex 0.204069 -3.24359 -5
    endloop
  endfacet
  facet normal 0 0 1
    outer loop
      vertex -2.95712 -5.12189 -5
      vertex -0.204069 -3.24359 -5
      vertex -0.608989 -3.19243 -5
    endloop
  endfacet
  facet normal 0 0 1
    outer loop
      vertex -2.95712 -5.12189 -5
      vertex -0.608989 -3.19243 -5
      vertex -1.0043 -3.09093 -5
    endloop
  endfacet
  facet normal 0 0 1
    outer loop
      vertex -2.95712 -5.12189 -5
      vertex -1.0043 -3.09093 -5
      vertex -1.38378 -2.94069 -5
    endloop
  endfacet
  facet normal 0 0 1
    outer loop
      vertex -0.204069 -3.24359 -5
      vertex -2.95712 -5.12189 -5
      vertex 2.95712 -5.12189 -5
    endloop
  endfacet
  facet normal 0 0 1
    outer loop
      vertex -1.74144 -2.74407 -5
      vertex -2.95712 -5.12189 -5
      vertex -1.38378 -2.94069 -5
    endloop
  endfacet
  facet normal 0 0 1
    outer loop
      vertex -2.07163 -2.50417 -5
      vertex -2.95712 -5.12189 -5
      vertex -1.74144 -2.74407 -5
    endloop
  endfacet
  facet normal 0 0 1
    outer loop
      vertex -2.36915 -2.22478 -5
      vertex -2.95712 -5.12189 -5
      vertex -2.07163 -2.50417 -5
    endloop
  endfacet
  facet normal 0 0 1
    outer loop
      vertex -2.6293 -1.9103 -5
      vertex -2.95712 -5.12189 -5
      vertex -2.36915 -2.22478 -5
    endloop
  endfacet
  facet normal 0 0 1
    outer loop
      vertex -2.848 -1.5657 -5
      vertex -2.95712 -5.12189 -5
      vertex -2.6293 -1.9103 -5
    endloop
  endfacet
  facet normal 0 0 1
    outer loop
      vertex -5.91425 0 -5
      vertex -2.848 -1.5657 -5
      vertex -3.02177 -1.1964 -5
    endloop
  endfacet
  facet normal 0 0 1
    outer loop
      vertex -5.91425 0 -5
      vertex -3.02177 -1.1964 -5
      vertex -3.14789 -0.808242 -5
    endloop
  endfacet
  facet normal 0 0 1
    outer loop
      vertex -5.91425 0 -5
      vertex -3.14789 -0.808242 -5
      vertex -3.22437 -0.407332 -5
    endloop
  endfacet
  facet normal -0 0 1
    outer loop
      vertex -5.91425 0 -5
      vertex -3.22437 -0.407332 -5
      vertex -3.25 0 -5
    endloop
  endfacet
  facet normal 0 0 1
    outer loop
      vertex -2.848 -1.5657 -5
      vertex -5.91425 0 -5
      vertex -2.95712 -5.12189 -5
    endloop
  endfacet
  facet normal 0.866025 0.500001 0
    outer loop
      vertex -2.95712 -5.12189 0
      vertex -5.91425 0 -5
      vertex -5.91425 0 0
    endloop
  endfacet
  facet normal 0.866025 0.500001 0
    outer loop
      vertex -5.91425 0 -5
      vertex -2.95712 -5.12189 0
      vertex -2.95712 -5.12189 -5
    endloop
  endfacet
  facet normal -0.866025 0.500001 0
    outer loop
      vertex 2.95712 -5.12189 -5
      vertex 5.91425 0 0
      vertex 5.91425 0 -5
    endloop
  endfacet
  facet normal -0.866025 0.500001 0
    outer loop
      vertex 5.91425 0 0
      vertex 2.95712 -5.12189 -5
      vertex 2.95712 -5.12189 0
    endloop
  endfacet
  facet normal -0.998026 -0.0627975 0
    outer loop
      vertex 3.25 0 -7
      vertex 3.22437 0.407332 -5
      vertex 3.22437 0.407332 -7
    endloop
  endfacet
  facet normal -0.998026 -0.0627975 0
    outer loop
      vertex 3.22437 0.407332 -5
      vertex 3.25 0 -7
      vertex 3.25 0 -5
    endloop
  endfacet
  facet normal 0.998026 -0.0627975 0
    outer loop
      vertex -3.25 0 -5
      vertex -3.22437 0.407332 -7
      vertex -3.22437 0.407332 -5
    endloop
  endfacet
  facet normal 0.998026 -0.0627975 0
    outer loop
      vertex -3.22437 0.407332 -7
      vertex -3.25 0 -5
      vertex -3.25 0 -7
    endloop
  endfacet
  facet normal 0 -1 0
    outer loop
      vertex -0.204069 3.24359 -7
      vertex 0.204069 3.24359 -5
      vertex -0.204069 3.24359 -5
    endloop
  endfacet
  facet normal 0 -1 -0
    outer loop
      vertex 0.204069 3.24359 -5
      vertex -0.204069 3.24359 -7
      vertex 0.204069 3.24359 -7
    endloop
  endfacet
  facet normal 0 1 -0
    outer loop
      vertex 0.204069 -3.24359 -7
      vertex -0.204069 -3.24359 -5
      vertex 0.204069 -3.24359 -5
    endloop
  endfacet
  facet normal 0 1 0
    outer loop
      vertex -0.204069 -3.24359 -5
      vertex 0.204069 -3.24359 -7
      vertex -0.204069 -3.24359 -7
    endloop
  endfacet
  facet normal -0.684547 -0.728968 0
    outer loop
      vertex 2.07163 2.50417 -7
      vertex 2.36915 2.22478 -5
      vertex 2.07163 2.50417 -5
    endloop
  endfacet
  facet normal -0.684547 -0.728968 -0
    outer loop
      vertex 2.36915 2.22478 -5
      vertex 2.07163 2.50417 -7
      vertex 2.36915 2.22478 -7
    endloop
  endfacet
  facet normal 0.684547 -0.728968 0
    outer loop
      vertex -2.36915 2.22478 -7
      vertex -2.07163 2.50417 -5
      vertex -2.36915 2.22478 -5
    endloop
  endfacet
  facet normal 0.684547 -0.728968 0
    outer loop
      vertex -2.07163 2.50417 -5
      vertex -2.36915 2.22478 -7
      vertex -2.07163 2.50417 -7
    endloop
  endfacet
  facet normal 0.36811 -0.929782 0
    outer loop
      vertex -1.38378 2.94069 -7
      vertex -1.0043 3.09093 -5
      vertex -1.38378 2.94069 -5
    endloop
  endfacet
  facet normal 0.36811 -0.929782 0
    outer loop
      vertex -1.0043 3.09093 -5
      vertex -1.38378 2.94069 -7
      vertex -1.0043 3.09093 -7
    endloop
  endfacet
  facet normal -0.904836 -0.42576 0
    outer loop
      vertex 3.02177 1.1964 -7
      vertex 2.848 1.5657 -5
      vertex 2.848 1.5657 -7
    endloop
  endfacet
  facet normal -0.904836 -0.42576 0
    outer loop
      vertex 2.848 1.5657 -5
      vertex 3.02177 1.1964 -7
      vertex 3.02177 1.1964 -5
    endloop
  endfacet
  facet normal -0.844317 -0.535845 0
    outer loop
      vertex 2.848 1.5657 -7
      vertex 2.6293 1.9103 -5
      vertex 2.6293 1.9103 -7
    endloop
  endfacet
  facet normal -0.844317 -0.535845 0
    outer loop
      vertex 2.6293 1.9103 -5
      vertex 2.848 1.5657 -7
      vertex 2.848 1.5657 -5
    endloop
  endfacet
  facet normal -0.36811 -0.929782 0
    outer loop
      vertex 1.0043 3.09093 -7
      vertex 1.38378 2.94069 -5
      vertex 1.0043 3.09093 -5
    endloop
  endfacet
  facet normal -0.36811 -0.929782 -0
    outer loop
      vertex 1.38378 2.94069 -5
      vertex 1.0043 3.09093 -7
      vertex 1.38378 2.94069 -7
    endloop
  endfacet
  facet normal -0.248693 -0.968582 0
    outer loop
      vertex 0.608989 3.19243 -7
      vertex 1.0043 3.09093 -5
      vertex 0.608989 3.19243 -5
    endloop
  endfacet
  facet normal -0.248693 -0.968582 -0
    outer loop
      vertex 1.0043 3.09093 -5
      vertex 0.608989 3.19243 -7
      vertex 1.0043 3.09093 -7
    endloop
  endfacet
  facet normal -0.58779 -0.809014 0
    outer loop
      vertex 1.74144 2.74407 -7
      vertex 2.07163 2.50417 -5
      vertex 1.74144 2.74407 -5
    endloop
  endfacet
  facet normal -0.58779 -0.809014 -0
    outer loop
      vertex 2.07163 2.50417 -5
      vertex 1.74144 2.74407 -7
      vertex 2.07163 2.50417 -7
    endloop
  endfacet
  facet normal 0.904836 -0.42576 0
    outer loop
      vertex -3.02177 1.1964 -5
      vertex -2.848 1.5657 -7
      vertex -2.848 1.5657 -5
    endloop
  endfacet
  facet normal 0.904836 -0.42576 0
    outer loop
      vertex -2.848 1.5657 -7
      vertex -3.02177 1.1964 -5
      vertex -3.02177 1.1964 -7
    endloop
  endfacet
  facet normal 0.770526 -0.637409 0
    outer loop
      vertex -2.6293 1.9103 -5
      vertex -2.36915 2.22478 -7
      vertex -2.36915 2.22478 -5
    endloop
  endfacet
  facet normal 0.770526 -0.637409 0
    outer loop
      vertex -2.36915 2.22478 -7
      vertex -2.6293 1.9103 -5
      vertex -2.6293 1.9103 -7
    endloop
  endfacet
  facet normal 0.951057 -0.309017 0
    outer loop
      vertex -3.14789 0.808242 -5
      vertex -3.02177 1.1964 -7
      vertex -3.02177 1.1964 -5
    endloop
  endfacet
  facet normal 0.951057 -0.309017 0
    outer loop
      vertex -3.02177 1.1964 -7
      vertex -3.14789 0.808242 -5
      vertex -3.14789 0.808242 -7
    endloop
  endfacet
  facet normal 0.481744 -0.876312 0
    outer loop
      vertex -1.74144 2.74407 -7
      vertex -1.38378 2.94069 -5
      vertex -1.74144 2.74407 -5
    endloop
  endfacet
  facet normal 0.481744 -0.876312 0
    outer loop
      vertex -1.38378 2.94069 -5
      vertex -1.74144 2.74407 -7
      vertex -1.38378 2.94069 -7
    endloop
  endfacet
  facet normal 0.125349 -0.992113 0
    outer loop
      vertex -0.608989 3.19243 -7
      vertex -0.204069 3.24359 -5
      vertex -0.608989 3.19243 -5
    endloop
  endfacet
  facet normal 0.125349 -0.992113 0
    outer loop
      vertex -0.204069 3.24359 -5
      vertex -0.608989 3.19243 -7
      vertex -0.204069 3.24359 -7
    endloop
  endfacet
  facet normal -0.125349 0.992113 0
    outer loop
      vertex 0.608989 -3.19243 -7
      vertex 0.204069 -3.24359 -5
      vertex 0.608989 -3.19243 -5
    endloop
  endfacet
  facet normal -0.125349 0.992113 0
    outer loop
      vertex 0.204069 -3.24359 -5
      vertex 0.608989 -3.19243 -7
      vertex 0.204069 -3.24359 -7
    endloop
  endfacet
  facet normal -0.481744 0.876312 0
    outer loop
      vertex 1.74144 -2.74407 -7
      vertex 1.38378 -2.94069 -5
      vertex 1.74144 -2.74407 -5
    endloop
  endfacet
  facet normal -0.481744 0.876312 0
    outer loop
      vertex 1.38378 -2.94069 -5
      vertex 1.74144 -2.74407 -7
      vertex 1.38378 -2.94069 -7
    endloop
  endfacet
  facet normal -0.951057 -0.309017 0
    outer loop
      vertex 3.14789 0.808242 -7
      vertex 3.02177 1.1964 -5
      vertex 3.02177 1.1964 -7
    endloop
  endfacet
  facet normal -0.951057 -0.309017 0
    outer loop
      vertex 3.02177 1.1964 -5
      vertex 3.14789 0.808242 -7
      vertex 3.14789 0.808242 -5
    endloop
  endfacet
  facet normal -0.982286 -0.187387 0
    outer loop
      vertex 3.22437 0.407332 -7
      vertex 3.14789 0.808242 -5
      vertex 3.14789 0.808242 -7
    endloop
  endfacet
  facet normal -0.982286 -0.187387 0
    outer loop
      vertex 3.14789 0.808242 -5
      vertex 3.22437 0.407332 -7
      vertex 3.22437 0.407332 -5
    endloop
  endfacet
  facet normal -0.770526 -0.637409 0
    outer loop
      vertex 2.6293 1.9103 -7
      vertex 2.36915 2.22478 -5
      vertex 2.36915 2.22478 -7
    endloop
  endfacet
  facet normal -0.770526 -0.637409 0
    outer loop
      vertex 2.36915 2.22478 -5
      vertex 2.6293 1.9103 -7
      vertex 2.6293 1.9103 -5
    endloop
  endfacet
  facet normal -0.125349 -0.992113 0
    outer loop
      vertex 0.204069 3.24359 -7
      vertex 0.608989 3.19243 -5
      vertex 0.204069 3.24359 -5
    endloop
  endfacet
  facet normal -0.125349 -0.992113 -0
    outer loop
      vertex 0.608989 3.19243 -5
      vertex 0.204069 3.24359 -7
      vertex 0.608989 3.19243 -7
    endloop
  endfacet
  facet normal -0.481744 -0.876312 0
    outer loop
      vertex 1.38378 2.94069 -7
      vertex 1.74144 2.74407 -5
      vertex 1.38378 2.94069 -5
    endloop
  endfacet
  facet normal -0.481744 -0.876312 -0
    outer loop
      vertex 1.74144 2.74407 -5
      vertex 1.38378 2.94069 -7
      vertex 1.74144 2.74407 -7
    endloop
  endfacet
  facet normal 0.844317 -0.535845 0
    outer loop
      vertex -2.848 1.5657 -5
      vertex -2.6293 1.9103 -7
      vertex -2.6293 1.9103 -5
    endloop
  endfacet
  facet normal 0.844317 -0.535845 0
    outer loop
      vertex -2.6293 1.9103 -7
      vertex -2.848 1.5657 -5
      vertex -2.848 1.5657 -7
    endloop
  endfacet
  facet normal 0.982286 -0.187387 0
    outer loop
      vertex -3.22437 0.407332 -5
      vertex -3.14789 0.808242 -7
      vertex -3.14789 0.808242 -5
    endloop
  endfacet
  facet normal 0.982286 -0.187387 0
    outer loop
      vertex -3.14789 0.808242 -7
      vertex -3.22437 0.407332 -5
      vertex -3.22437 0.407332 -7
    endloop
  endfacet
  facet normal 0.58779 -0.809014 0
    outer loop
      vertex -2.07163 2.50417 -7
      vertex -1.74144 2.74407 -5
      vertex -2.07163 2.50417 -5
    endloop
  endfacet
  facet normal 0.58779 -0.809014 0
    outer loop
      vertex -1.74144 2.74407 -5
      vertex -2.07163 2.50417 -7
      vertex -1.74144 2.74407 -7
    endloop
  endfacet
  facet normal 0.248693 -0.968582 0
    outer loop
      vertex -1.0043 3.09093 -7
      vertex -0.608989 3.19243 -5
      vertex -1.0043 3.09093 -5
    endloop
  endfacet
  facet normal 0.248693 -0.968582 0
    outer loop
      vertex -0.608989 3.19243 -5
      vertex -1.0043 3.09093 -7
      vertex -0.608989 3.19243 -7
    endloop
  endfacet
  facet normal -0.998026 0.0627975 0
    outer loop
      vertex 3.22437 -0.407332 -7
      vertex 3.25 0 -5
      vertex 3.25 0 -7
    endloop
  endfacet
  facet normal -0.998026 0.0627975 0
    outer loop
      vertex 3.25 0 -5
      vertex 3.22437 -0.407332 -7
      vertex 3.22437 -0.407332 -5
    endloop
  endfacet
  facet normal -0.951057 0.309017 0
    outer loop
      vertex 3.02177 -1.1964 -7
      vertex 3.14789 -0.808242 -5
      vertex 3.14789 -0.808242 -7
    endloop
  endfacet
  facet normal -0.951057 0.309017 0
    outer loop
      vertex 3.14789 -0.808242 -5
      vertex 3.02177 -1.1964 -7
      vertex 3.02177 -1.1964 -5
    endloop
  endfacet
  facet normal -0.982286 0.187387 0
    outer loop
      vertex 3.14789 -0.808242 -7
      vertex 3.22437 -0.407332 -5
      vertex 3.22437 -0.407332 -7
    endloop
  endfacet
  facet normal -0.982286 0.187387 0
    outer loop
      vertex 3.22437 -0.407332 -5
      vertex 3.14789 -0.808242 -7
      vertex 3.14789 -0.808242 -5
    endloop
  endfacet
  facet normal 0.904836 0.42576 0
    outer loop
      vertex -2.848 -1.5657 -5
      vertex -3.02177 -1.1964 -7
      vertex -3.02177 -1.1964 -5
    endloop
  endfacet
  facet normal 0.904836 0.42576 0
    outer loop
      vertex -3.02177 -1.1964 -7
      vertex -2.848 -1.5657 -5
      vertex -2.848 -1.5657 -7
    endloop
  endfacet
  facet normal -0.58779 0.809014 0
    outer loop
      vertex 2.07163 -2.50417 -7
      vertex 1.74144 -2.74407 -5
      vertex 2.07163 -2.50417 -5
    endloop
  endfacet
  facet normal -0.58779 0.809014 0
    outer loop
      vertex 1.74144 -2.74407 -5
      vertex 2.07163 -2.50417 -7
      vertex 1.74144 -2.74407 -7
    endloop
  endfacet
  facet normal 0.951057 0.309017 0
    outer loop
      vertex -3.02177 -1.1964 -5
      vertex -3.14789 -0.808242 -7
      vertex -3.14789 -0.808242 -5
    endloop
  endfacet
  facet normal 0.951057 0.309017 0
    outer loop
      vertex -3.14789 -0.808242 -7
      vertex -3.02177 -1.1964 -5
      vertex -3.02177 -1.1964 -7
    endloop
  endfacet
  facet normal -0.684547 0.728968 0
    outer loop
      vertex 2.36915 -2.22478 -7
      vertex 2.07163 -2.50417 -5
      vertex 2.36915 -2.22478 -5
    endloop
  endfacet
  facet normal -0.684547 0.728968 0
    outer loop
      vertex 2.07163 -2.50417 -5
      vertex 2.36915 -2.22478 -7
      vertex 2.07163 -2.50417 -7
    endloop
  endfacet
  facet normal -0.248693 0.968582 0
    outer loop
      vertex 1.0043 -3.09093 -7
      vertex 0.608989 -3.19243 -5
      vertex 1.0043 -3.09093 -5
    endloop
  endfacet
  facet normal -0.248693 0.968582 0
    outer loop
      vertex 0.608989 -3.19243 -5
      vertex 1.0043 -3.09093 -7
      vertex 0.608989 -3.19243 -7
    endloop
  endfacet
  facet normal -0.904836 0.42576 0
    outer loop
      vertex 2.848 -1.5657 -7
      vertex 3.02177 -1.1964 -5
      vertex 3.02177 -1.1964 -7
    endloop
  endfacet
  facet normal -0.904836 0.42576 0
    outer loop
      vertex 3.02177 -1.1964 -5
      vertex 2.848 -1.5657 -7
      vertex 2.848 -1.5657 -5
    endloop
  endfacet
  facet normal -0.844317 0.535845 0
    outer loop
      vertex 2.6293 -1.9103 -7
      vertex 2.848 -1.5657 -5
      vertex 2.848 -1.5657 -7
    endloop
  endfacet
  facet normal -0.844317 0.535845 0
    outer loop
      vertex 2.848 -1.5657 -5
      vertex 2.6293 -1.9103 -7
      vertex 2.6293 -1.9103 -5
    endloop
  endfacet
  facet normal 0.125349 0.992113 -0
    outer loop
      vertex -0.204069 -3.24359 -7
      vertex -0.608989 -3.19243 -5
      vertex -0.204069 -3.24359 -5
    endloop
  endfacet
  facet normal 0.125349 0.992113 0
    outer loop
      vertex -0.608989 -3.19243 -5
      vertex -0.204069 -3.24359 -7
      vertex -0.608989 -3.19243 -7
    endloop
  endfacet
  facet normal 0.248693 0.968582 -0
    outer loop
      vertex -0.608989 -3.19243 -7
      vertex -1.0043 -3.09093 -5
      vertex -0.608989 -3.19243 -5
    endloop
  endfacet
  facet normal 0.248693 0.968582 0
    outer loop
      vertex -1.0043 -3.09093 -5
      vertex -0.608989 -3.19243 -7
      vertex -1.0043 -3.09093 -7
    endloop
  endfacet
  facet normal 0.770526 0.637409 0
    outer loop
      vertex -2.36915 -2.22478 -5
      vertex -2.6293 -1.9103 -7
      vertex -2.6293 -1.9103 -5
    endloop
  endfacet
  facet normal 0.770526 0.637409 0
    outer loop
      vertex -2.6293 -1.9103 -7
      vertex -2.36915 -2.22478 -5
      vertex -2.36915 -2.22478 -7
    endloop
  endfacet
  facet normal 0.684547 0.728968 -0
    outer loop
      vertex -2.07163 -2.50417 -7
      vertex -2.36915 -2.22478 -5
      vertex -2.07163 -2.50417 -5
    endloop
  endfacet
  facet normal 0.684547 0.728968 0
    outer loop
      vertex -2.36915 -2.22478 -5
      vertex -2.07163 -2.50417 -7
      vertex -2.36915 -2.22478 -7
    endloop
  endfacet
  facet normal 0.982286 0.187387 0
    outer loop
      vertex -3.14789 -0.808242 -5
      vertex -3.22437 -0.407332 -7
      vertex -3.22437 -0.407332 -5
    endloop
  endfacet
  facet normal 0.982286 0.187387 0
    outer loop
      vertex -3.22437 -0.407332 -7
      vertex -3.14789 -0.808242 -5
      vertex -3.14789 -0.808242 -7
    endloop
  endfacet
  facet normal 0.998026 0.0627975 0
    outer loop
      vertex -3.22437 -0.407332 -5
      vertex -3.25 0 -7
      vertex -3.25 0 -5
    endloop
  endfacet
  facet normal 0.998026 0.0627975 0
    outer loop
      vertex -3.25 0 -7
      vertex -3.22437 -0.407332 -5
      vertex -3.22437 -0.407332 -7
    endloop
  endfacet
  facet normal -0.770526 0.637409 0
    outer loop
      vertex 2.36915 -2.22478 -7
      vertex 2.6293 -1.9103 -5
      vertex 2.6293 -1.9103 -7
    endloop
  endfacet
  facet normal -0.770526 0.637409 0
    outer loop
      vertex 2.6293 -1.9103 -5
      vertex 2.36915 -2.22478 -7
      vertex 2.36915 -2.22478 -5
    endloop
  endfacet
  facet normal 0.58779 0.809014 -0
    outer loop
      vertex -1.74144 -2.74407 -7
      vertex -2.07163 -2.50417 -5
      vertex -1.74144 -2.74407 -5
    endloop
  endfacet
  facet normal 0.58779 0.809014 0
    outer loop
      vertex -2.07163 -2.50417 -5
      vertex -1.74144 -2.74407 -7
      vertex -2.07163 -2.50417 -7
    endloop
  endfacet
  facet normal 0.844317 0.535845 0
    outer loop
      vertex -2.6293 -1.9103 -5
      vertex -2.848 -1.5657 -7
      vertex -2.848 -1.5657 -5
    endloop
  endfacet
  facet normal 0.844317 0.535845 0
    outer loop
      vertex -2.848 -1.5657 -7
      vertex -2.6293 -1.9103 -5
      vertex -2.6293 -1.9103 -7
    endloop
  endfacet
  facet normal -0.36811 0.929782 0
    outer loop
      vertex 1.38378 -2.94069 -7
      vertex 1.0043 -3.09093 -5
      vertex 1.38378 -2.94069 -5
    endloop
  endfacet
  facet normal -0.36811 0.929782 0
    outer loop
      vertex 1.0043 -3.09093 -5
      vertex 1.38378 -2.94069 -7
      vertex 1.0043 -3.09093 -7
    endloop
  endfacet
  facet normal 0.36811 0.929782 -0
    outer loop
      vertex -1.0043 -3.09093 -7
      vertex -1.38378 -2.94069 -5
      vertex -1.0043 -3.09093 -5
    endloop
  endfacet
  facet normal 0.36811 0.929782 0
    outer loop
      vertex -1.38378 -2.94069 -5
      vertex -1.0043 -3.09093 -7
      vertex -1.38378 -2.94069 -7
    endloop
  endfacet
  facet normal 0.481744 0.876312 -0
    outer loop
      vertex -1.38378 -2.94069 -7
      vertex -1.74144 -2.74407 -5
      vertex -1.38378 -2.94069 -5
    endloop
  endfacet
  facet normal 0.481744 0.876312 0
    outer loop
      vertex -1.74144 -2.74407 -5
      vertex -1.38378 -2.94069 -7
      vertex -1.74144 -2.74407 -7
    endloop
  endfacet
  facet normal 0.904826 0.425782 0
    outer loop
      vertex 20.92 8.2828 0
      vertex 19.7169 10.8395 -7
      vertex 19.7169 10.8395 0
    endloop
  endfacet
  facet normal 0.904826 0.425782 0
    outer loop
      vertex 19.7169 10.8395 -7
      vertex 20.92 8.2828 0
      vertex 20.92 8.2828 -7
    endloop
  endfacet
  facet normal 0.84433 0.535824 0
    outer loop
      vertex 19.7169 10.8395 0
      vertex 18.2029 13.2252 -7
      vertex 18.2029 13.2252 0
    endloop
  endfacet
  facet normal 0.84433 0.535824 0
    outer loop
      vertex 18.2029 13.2252 -7
      vertex 19.7169 10.8395 0
      vertex 19.7169 10.8395 -7
    endloop
  endfacet
  facet normal 0.368136 0.929772 -0
    outer loop
      vertex 9.58003 20.3586 -7
      vertex 6.95288 21.3988 0
      vertex 9.58003 20.3586 0
    endloop
  endfacet
  facet normal 0.368136 0.929772 0
    outer loop
      vertex 6.95288 21.3988 0
      vertex 9.58003 20.3586 -7
      vertex 6.95288 21.3988 -7
    endloop
  endfacet
  facet normal -0.368136 0.929772 0
    outer loop
      vertex -6.95288 21.3988 -7
      vertex -9.58003 20.3586 0
      vertex -6.95288 21.3988 0
    endloop
  endfacet
  facet normal -0.368136 0.929772 0
    outer loop
      vertex -9.58003 20.3586 0
      vertex -6.95288 21.3988 -7
      vertex -9.58003 20.3586 -7
    endloop
  endfacet
  facet normal -0.904826 0.425782 0
    outer loop
      vertex -20.92 8.2828 -7
      vertex -19.7169 10.8395 0
      vertex -19.7169 10.8395 -7
    endloop
  endfacet
  facet normal -0.904826 0.425782 0
    outer loop
      vertex -19.7169 10.8395 0
      vertex -20.92 8.2828 -7
      vertex -20.92 8.2828 0
    endloop
  endfacet
  facet normal 0.998027 -0.0627837 0
    outer loop
      vertex 22.3226 -2.82 0
      vertex 22.5 0 -7
      vertex 22.5 0 0
    endloop
  endfacet
  facet normal 0.998027 -0.0627837 0
    outer loop
      vertex 22.5 0 -7
      vertex 22.3226 -2.82 0
      vertex 22.3226 -2.82 -7
    endloop
  endfacet
  facet normal 0.368136 -0.929772 0
    outer loop
      vertex 6.95288 -21.3988 -7
      vertex 9.58003 -20.3586 0
      vertex 6.95288 -21.3988 0
    endloop
  endfacet
  facet normal 0.368136 -0.929772 0
    outer loop
      vertex 9.58003 -20.3586 0
      vertex 6.95288 -21.3988 -7
      vertex 9.58003 -20.3586 -7
    endloop
  endfacet
  facet normal 0.684532 0.728983 -0
    outer loop
      vertex 16.4018 15.4023 -7
      vertex 14.342 17.3365 0
      vertex 16.4018 15.4023 0
    endloop
  endfacet
  facet normal 0.684532 0.728983 0
    outer loop
      vertex 14.342 17.3365 0
      vertex 16.4018 15.4023 -7
      vertex 14.342 17.3365 -7
    endloop
  endfacet
  facet normal 0 1 -0
    outer loop
      vertex 1.41279 22.4556 -7
      vertex -1.41279 22.4556 0
      vertex 1.41279 22.4556 0
    endloop
  endfacet
  facet normal 0 1 0
    outer loop
      vertex -1.41279 22.4556 0
      vertex 1.41279 22.4556 -7
      vertex -1.41279 22.4556 -7
    endloop
  endfacet
  facet normal -0.998027 0.0627837 0
    outer loop
      vertex -22.5 0 -7
      vertex -22.3226 2.82 0
      vertex -22.3226 2.82 -7
    endloop
  endfacet
  facet normal -0.998027 0.0627837 0
    outer loop
      vertex -22.3226 2.82 0
      vertex -22.5 0 -7
      vertex -22.5 0 0
    endloop
  endfacet
  facet normal -0.982285 0.187395 0
    outer loop
      vertex -22.3226 2.82 -7
      vertex -21.7931 5.59552 0
      vertex -21.7931 5.59552 -7
    endloop
  endfacet
  facet normal -0.982285 0.187395 0
    outer loop
      vertex -21.7931 5.59552 0
      vertex -22.3226 2.82 -7
      vertex -22.3226 2.82 0
    endloop
  endfacet
  facet normal -0.770505 0.637434 0
    outer loop
      vertex -18.2029 13.2252 -7
      vertex -16.4018 15.4023 0
      vertex -16.4018 15.4023 -7
    endloop
  endfacet
  facet normal -0.770505 0.637434 0
    outer loop
      vertex -16.4018 15.4023 0
      vertex -18.2029 13.2252 -7
      vertex -18.2029 13.2252 0
    endloop
  endfacet
  facet normal -0.684532 0.728983 0
    outer loop
      vertex -14.342 17.3365 -7
      vertex -16.4018 15.4023 0
      vertex -14.342 17.3365 0
    endloop
  endfacet
  facet normal -0.684532 0.728983 0
    outer loop
      vertex -16.4018 15.4023 0
      vertex -14.342 17.3365 -7
      vertex -16.4018 15.4023 -7
    endloop
  endfacet
  facet normal 0.904826 -0.425782 0
    outer loop
      vertex 19.7169 -10.8395 0
      vertex 20.92 -8.2828 -7
      vertex 20.92 -8.2828 0
    endloop
  endfacet
  facet normal 0.904826 -0.425782 0
    outer loop
      vertex 20.92 -8.2828 -7
      vertex 19.7169 -10.8395 0
      vertex 19.7169 -10.8395 -7
    endloop
  endfacet
  facet normal 0.248693 -0.968582 0
    outer loop
      vertex 4.21608 -22.1015 -7
      vertex 6.95288 -21.3988 0
      vertex 4.21608 -22.1015 0
    endloop
  endfacet
  facet normal 0.248693 -0.968582 0
    outer loop
      vertex 6.95288 -21.3988 0
      vertex 4.21608 -22.1015 -7
      vertex 6.95288 -21.3988 -7
    endloop
  endfacet
  facet normal 0.982285 0.187395 0
    outer loop
      vertex 22.3226 2.82 0
      vertex 21.7931 5.59552 -7
      vertex 21.7931 5.59552 0
    endloop
  endfacet
  facet normal 0.982285 0.187395 0
    outer loop
      vertex 21.7931 5.59552 -7
      vertex 22.3226 2.82 0
      vertex 22.3226 2.82 -7
    endloop
  endfacet
  facet normal 0.951062 0.309001 0
    outer loop
      vertex 21.7931 5.59552 0
      vertex 20.92 8.2828 -7
      vertex 20.92 8.2828 0
    endloop
  endfacet
  facet normal 0.951062 0.309001 0
    outer loop
      vertex 20.92 8.2828 -7
      vertex 21.7931 5.59552 0
      vertex 21.7931 5.59552 -7
    endloop
  endfacet
  facet normal 0.770505 0.637434 0
    outer loop
      vertex 18.2029 13.2252 0
      vertex 16.4018 15.4023 -7
      vertex 16.4018 15.4023 0
    endloop
  endfacet
  facet normal 0.770505 0.637434 0
    outer loop
      vertex 16.4018 15.4023 -7
      vertex 18.2029 13.2252 0
      vertex 18.2029 13.2252 -7
    endloop
  endfacet
  facet normal 0.248693 0.968582 -0
    outer loop
      vertex 6.95288 21.3988 -7
      vertex 4.21608 22.1015 0
      vertex 6.95288 21.3988 0
    endloop
  endfacet
  facet normal 0.248693 0.968582 0
    outer loop
      vertex 4.21608 22.1015 0
      vertex 6.95288 21.3988 -7
      vertex 4.21608 22.1015 -7
    endloop
  endfacet
  facet normal 0.12532 0.992116 -0
    outer loop
      vertex 4.21608 22.1015 -7
      vertex 1.41279 22.4556 0
      vertex 4.21608 22.1015 0
    endloop
  endfacet
  facet normal 0.12532 0.992116 0
    outer loop
      vertex 1.41279 22.4556 0
      vertex 4.21608 22.1015 -7
      vertex 1.41279 22.4556 -7
    endloop
  endfacet
  facet normal 0.587808 0.809001 -0
    outer loop
      vertex 14.342 17.3365 -7
      vertex 12.0561 18.9974 0
      vertex 14.342 17.3365 0
    endloop
  endfacet
  facet normal 0.587808 0.809001 0
    outer loop
      vertex 12.0561 18.9974 0
      vertex 14.342 17.3365 -7
      vertex 12.0561 18.9974 -7
    endloop
  endfacet
  facet normal 0.481745 0.876311 -0
    outer loop
      vertex 12.0561 18.9974 -7
      vertex 9.58003 20.3586 0
      vertex 12.0561 18.9974 0
    endloop
  endfacet
  facet normal 0.481745 0.876311 0
    outer loop
      vertex 9.58003 20.3586 0
      vertex 12.0561 18.9974 -7
      vertex 9.58003 20.3586 -7
    endloop
  endfacet
  facet normal -0.84433 0.535824 0
    outer loop
      vertex -19.7169 10.8395 -7
      vertex -18.2029 13.2252 0
      vertex -18.2029 13.2252 -7
    endloop
  endfacet
  facet normal -0.84433 0.535824 0
    outer loop
      vertex -18.2029 13.2252 0
      vertex -19.7169 10.8395 -7
      vertex -19.7169 10.8395 0
    endloop
  endfacet
  facet normal -0.12532 0.992116 0
    outer loop
      vertex -1.41279 22.4556 -7
      vertex -4.21608 22.1015 0
      vertex -1.41279 22.4556 0
    endloop
  endfacet
  facet normal -0.12532 0.992116 0
    outer loop
      vertex -4.21608 22.1015 0
      vertex -1.41279 22.4556 -7
      vertex -4.21608 22.1015 -7
    endloop
  endfacet
  facet normal -0.248693 0.968582 0
    outer loop
      vertex -4.21608 22.1015 -7
      vertex -6.95288 21.3988 0
      vertex -4.21608 22.1015 0
    endloop
  endfacet
  facet normal -0.248693 0.968582 0
    outer loop
      vertex -6.95288 21.3988 0
      vertex -4.21608 22.1015 -7
      vertex -6.95288 21.3988 -7
    endloop
  endfacet
  facet normal -0.481745 0.876311 0
    outer loop
      vertex -9.58003 20.3586 -7
      vertex -12.0561 18.9974 0
      vertex -9.58003 20.3586 0
    endloop
  endfacet
  facet normal -0.481745 0.876311 0
    outer loop
      vertex -12.0561 18.9974 0
      vertex -9.58003 20.3586 -7
      vertex -12.0561 18.9974 -7
    endloop
  endfacet
  facet normal -0.587808 0.809001 0
    outer loop
      vertex -12.0561 18.9974 -7
      vertex -14.342 17.3365 0
      vertex -12.0561 18.9974 0
    endloop
  endfacet
  facet normal -0.587808 0.809001 0
    outer loop
      vertex -14.342 17.3365 0
      vertex -12.0561 18.9974 -7
      vertex -14.342 17.3365 -7
    endloop
  endfacet
  facet normal 0.998027 0.0627837 0
    outer loop
      vertex 22.5 0 0
      vertex 22.3226 2.82 -7
      vertex 22.3226 2.82 0
    endloop
  endfacet
  facet normal 0.998027 0.0627837 0
    outer loop
      vertex 22.3226 2.82 -7
      vertex 22.5 0 0
      vertex 22.5 0 -7
    endloop
  endfacet
  facet normal -0.998027 -0.0627837 0
    outer loop
      vertex -22.3226 -2.82 -7
      vertex -22.5 0 0
      vertex -22.5 0 -7
    endloop
  endfacet
  facet normal -0.998027 -0.0627837 0
    outer loop
      vertex -22.5 0 0
      vertex -22.3226 -2.82 -7
      vertex -22.3226 -2.82 0
    endloop
  endfacet
  facet normal 0.12532 -0.992116 0
    outer loop
      vertex 1.41279 -22.4556 -7
      vertex 4.21608 -22.1015 0
      vertex 1.41279 -22.4556 0
    endloop
  endfacet
  facet normal 0.12532 -0.992116 0
    outer loop
      vertex 4.21608 -22.1015 0
      vertex 1.41279 -22.4556 -7
      vertex 4.21608 -22.1015 -7
    endloop
  endfacet
  facet normal -0.951062 0.309001 0
    outer loop
      vertex -21.7931 5.59552 -7
      vertex -20.92 8.2828 0
      vertex -20.92 8.2828 -7
    endloop
  endfacet
  facet normal -0.951062 0.309001 0
    outer loop
      vertex -20.92 8.2828 0
      vertex -21.7931 5.59552 -7
      vertex -21.7931 5.59552 0
    endloop
  endfacet
  facet normal 0.982285 -0.187395 0
    outer loop
      vertex 21.7931 -5.59552 0
      vertex 22.3226 -2.82 -7
      vertex 22.3226 -2.82 0
    endloop
  endfacet
  facet normal 0.982285 -0.187395 0
    outer loop
      vertex 22.3226 -2.82 -7
      vertex 21.7931 -5.59552 0
      vertex 21.7931 -5.59552 -7
    endloop
  endfacet
  facet normal 0.951062 -0.309001 0
    outer loop
      vertex 20.92 -8.2828 0
      vertex 21.7931 -5.59552 -7
      vertex 21.7931 -5.59552 0
    endloop
  endfacet
  facet normal 0.951062 -0.309001 0
    outer loop
      vertex 21.7931 -5.59552 -7
      vertex 20.92 -8.2828 0
      vertex 20.92 -8.2828 -7
    endloop
  endfacet
  facet normal 0.481745 -0.876311 0
    outer loop
      vertex 9.58003 -20.3586 -7
      vertex 12.0561 -18.9974 0
      vertex 9.58003 -20.3586 0
    endloop
  endfacet
  facet normal 0.481745 -0.876311 0
    outer loop
      vertex 12.0561 -18.9974 0
      vertex 9.58003 -20.3586 -7
      vertex 12.0561 -18.9974 -7
    endloop
  endfacet
  facet normal 0.684532 -0.728983 0
    outer loop
      vertex 14.342 -17.3365 -7
      vertex 16.4018 -15.4023 0
      vertex 14.342 -17.3365 0
    endloop
  endfacet
  facet normal 0.684532 -0.728983 0
    outer loop
      vertex 16.4018 -15.4023 0
      vertex 14.342 -17.3365 -7
      vertex 16.4018 -15.4023 -7
    endloop
  endfacet
  facet normal 0.770505 -0.637434 0
    outer loop
      vertex 16.4018 -15.4023 0
      vertex 18.2029 -13.2252 -7
      vertex 18.2029 -13.2252 0
    endloop
  endfacet
  facet normal 0.770505 -0.637434 0
    outer loop
      vertex 18.2029 -13.2252 -7
      vertex 16.4018 -15.4023 0
      vertex 16.4018 -15.4023 -7
    endloop
  endfacet
  facet normal -0.368136 -0.929772 0
    outer loop
      vertex -9.58003 -20.3586 -7
      vertex -6.95288 -21.3988 0
      vertex -9.58003 -20.3586 0
    endloop
  endfacet
  facet normal -0.368136 -0.929772 -0
    outer loop
      vertex -6.95288 -21.3988 0
      vertex -9.58003 -20.3586 -7
      vertex -6.95288 -21.3988 -7
    endloop
  endfacet
  facet normal 0 -1 0
    outer loop
      vertex -1.41279 -22.4556 -7
      vertex 1.41279 -22.4556 0
      vertex -1.41279 -22.4556 0
    endloop
  endfacet
  facet normal 0 -1 -0
    outer loop
      vertex 1.41279 -22.4556 0
      vertex -1.41279 -22.4556 -7
      vertex 1.41279 -22.4556 -7
    endloop
  endfacet
  facet normal -0.904826 -0.425782 0
    outer loop
      vertex -19.7169 -10.8395 -7
      vertex -20.92 -8.2828 0
      vertex -20.92 -8.2828 -7
    endloop
  endfacet
  facet normal -0.904826 -0.425782 0
    outer loop
      vertex -20.92 -8.2828 0
      vertex -19.7169 -10.8395 -7
      vertex -19.7169 -10.8395 0
    endloop
  endfacet
  facet normal -0.684532 -0.728983 0
    outer loop
      vertex -16.4018 -15.4023 -7
      vertex -14.342 -17.3365 0
      vertex -16.4018 -15.4023 0
    endloop
  endfacet
  facet normal -0.684532 -0.728983 -0
    outer loop
      vertex -14.342 -17.3365 0
      vertex -16.4018 -15.4023 -7
      vertex -14.342 -17.3365 -7
    endloop
  endfacet
  facet normal 0.587808 -0.809001 0
    outer loop
      vertex 12.0561 -18.9974 -7
      vertex 14.342 -17.3365 0
      vertex 12.0561 -18.9974 0
    endloop
  endfacet
  facet normal 0.587808 -0.809001 0
    outer loop
      vertex 14.342 -17.3365 0
      vertex 12.0561 -18.9974 -7
      vertex 14.342 -17.3365 -7
    endloop
  endfacet
  facet normal 0.84433 -0.535824 0
    outer loop
      vertex 18.2029 -13.2252 0
      vertex 19.7169 -10.8395 -7
      vertex 19.7169 -10.8395 0
    endloop
  endfacet
  facet normal 0.84433 -0.535824 0
    outer loop
      vertex 19.7169 -10.8395 -7
      vertex 18.2029 -13.2252 0
      vertex 18.2029 -13.2252 -7
    endloop
  endfacet
  facet normal -0.587808 -0.809001 0
    outer loop
      vertex -14.342 -17.3365 -7
      vertex -12.0561 -18.9974 0
      vertex -14.342 -17.3365 0
    endloop
  endfacet
  facet normal -0.587808 -0.809001 -0
    outer loop
      vertex -12.0561 -18.9974 0
      vertex -14.342 -17.3365 -7
      vertex -12.0561 -18.9974 -7
    endloop
  endfacet
  facet normal -0.248693 -0.968582 0
    outer loop
      vertex -6.95288 -21.3988 -7
      vertex -4.21608 -22.1015 0
      vertex -6.95288 -21.3988 0
    endloop
  endfacet
  facet normal -0.248693 -0.968582 -0
    outer loop
      vertex -4.21608 -22.1015 0
      vertex -6.95288 -21.3988 -7
      vertex -4.21608 -22.1015 -7
    endloop
  endfacet
  facet normal 0 0 -1
    outer loop
      vertex 3.25 0 -7
      vertex 22.5 0 -7
      vertex 22.3226 -2.82 -7
    endloop
  endfacet
  facet normal 0 0 -1
    outer loop
      vertex 3.22437 -0.407332 -7
      vertex 22.3226 -2.82 -7
      vertex 21.7931 -5.59552 -7
    endloop
  endfacet
  facet normal 0 0 -1
    outer loop
      vertex 22.5 0 -7
      vertex 3.25 0 -7
      vertex 22.3226 2.82 -7
    endloop
  endfacet
  facet normal 0 0 -1
    outer loop
      vertex 3.14789 -0.808242 -7
      vertex 21.7931 -5.59552 -7
      vertex 20.92 -8.2828 -7
    endloop
  endfacet
  facet normal 0 0 -1
    outer loop
      vertex 3.22437 0.407332 -7
      vertex 22.3226 2.82 -7
      vertex 3.25 0 -7
    endloop
  endfacet
  facet normal 0 0 -1
    outer loop
      vertex 3.02177 -1.1964 -7
      vertex 20.92 -8.2828 -7
      vertex 19.7169 -10.8395 -7
    endloop
  endfacet
  facet normal -0 0 -1
    outer loop
      vertex 22.3226 2.82 -7
      vertex 3.22437 0.407332 -7
      vertex 21.7931 5.59552 -7
    endloop
  endfacet
  facet normal 0 0 -1
    outer loop
      vertex 2.848 -1.5657 -7
      vertex 19.7169 -10.8395 -7
      vertex 18.2029 -13.2252 -7
    endloop
  endfacet
  facet normal 0 0 -1
    outer loop
      vertex 3.14789 0.808242 -7
      vertex 21.7931 5.59552 -7
      vertex 3.22437 0.407332 -7
    endloop
  endfacet
  facet normal 0 0 -1
    outer loop
      vertex 2.6293 -1.9103 -7
      vertex 18.2029 -13.2252 -7
      vertex 16.4018 -15.4023 -7
    endloop
  endfacet
  facet normal -0 0 -1
    outer loop
      vertex 21.7931 5.59552 -7
      vertex 3.14789 0.808242 -7
      vertex 20.92 8.2828 -7
    endloop
  endfacet
  facet normal 0 0 -1
    outer loop
      vertex 2.36915 -2.22478 -7
      vertex 16.4018 -15.4023 -7
      vertex 14.342 -17.3365 -7
    endloop
  endfacet
  facet normal 0 0 -1
    outer loop
      vertex 3.02177 1.1964 -7
      vertex 20.92 8.2828 -7
      vertex 3.14789 0.808242 -7
    endloop
  endfacet
  facet normal 0 0 -1
    outer loop
      vertex 2.07163 -2.50417 -7
      vertex 14.342 -17.3365 -7
      vertex 12.0561 -18.9974 -7
    endloop
  endfacet
  facet normal -0 0 -1
    outer loop
      vertex 20.92 8.2828 -7
      vertex 3.02177 1.1964 -7
      vertex 19.7169 10.8395 -7
    endloop
  endfacet
  facet normal 0 0 -1
    outer loop
      vertex 1.74144 -2.74407 -7
      vertex 12.0561 -18.9974 -7
      vertex 9.58003 -20.3586 -7
    endloop
  endfacet
  facet normal 0 0 -1
    outer loop
      vertex 2.848 1.5657 -7
      vertex 19.7169 10.8395 -7
      vertex 3.02177 1.1964 -7
    endloop
  endfacet
  facet normal 0 0 -1
    outer loop
      vertex 1.38378 -2.94069 -7
      vertex 9.58003 -20.3586 -7
      vertex 6.95288 -21.3988 -7
    endloop
  endfacet
  facet normal -0 0 -1
    outer loop
      vertex 19.7169 10.8395 -7
      vertex 2.848 1.5657 -7
      vertex 18.2029 13.2252 -7
    endloop
  endfacet
  facet normal 0 0 -1
    outer loop
      vertex 1.0043 -3.09093 -7
      vertex 6.95288 -21.3988 -7
      vertex 4.21608 -22.1015 -7
    endloop
  endfacet
  facet normal 0 0 -1
    outer loop
      vertex 2.6293 1.9103 -7
      vertex 18.2029 13.2252 -7
      vertex 2.848 1.5657 -7
    endloop
  endfacet
  facet normal -0 0 -1
    outer loop
      vertex 18.2029 13.2252 -7
      vertex 2.6293 1.9103 -7
      vertex 16.4018 15.4023 -7
    endloop
  endfacet
  facet normal 0 0 -1
    outer loop
      vertex 22.3226 -2.82 -7
      vertex 3.22437 -0.407332 -7
      vertex 3.25 0 -7
    endloop
  endfacet
  facet normal 0 0 -1
    outer loop
      vertex 21.7931 -5.59552 -7
      vertex 3.14789 -0.808242 -7
      vertex 3.22437 -0.407332 -7
    endloop
  endfacet
  facet normal 0 0 -1
    outer loop
      vertex 20.92 -8.2828 -7
      vertex 3.02177 -1.1964 -7
      vertex 3.14789 -0.808242 -7
    endloop
  endfacet
  facet normal 0 0 -1
    outer loop
      vertex 19.7169 -10.8395 -7
      vertex 2.848 -1.5657 -7
      vertex 3.02177 -1.1964 -7
    endloop
  endfacet
  facet normal 0 0 -1
    outer loop
      vertex 18.2029 -13.2252 -7
      vertex 2.6293 -1.9103 -7
      vertex 2.848 -1.5657 -7
    endloop
  endfacet
  facet normal 0 0 -1
    outer loop
      vertex 16.4018 -15.4023 -7
      vertex 2.36915 -2.22478 -7
      vertex 2.6293 -1.9103 -7
    endloop
  endfacet
  facet normal 0 0 -1
    outer loop
      vertex 14.342 -17.3365 -7
      vertex 2.07163 -2.50417 -7
      vertex 2.36915 -2.22478 -7
    endloop
  endfacet
  facet normal 0 0 -1
    outer loop
      vertex 12.0561 -18.9974 -7
      vertex 1.74144 -2.74407 -7
      vertex 2.07163 -2.50417 -7
    endloop
  endfacet
  facet normal 0 0 -1
    outer loop
      vertex 0.608989 -3.19243 -7
      vertex 4.21608 -22.1015 -7
      vertex 1.41279 -22.4556 -7
    endloop
  endfacet
  facet normal 0 0 -1
    outer loop
      vertex 9.58003 -20.3586 -7
      vertex 1.38378 -2.94069 -7
      vertex 1.74144 -2.74407 -7
    endloop
  endfacet
  facet normal 0 0 -1
    outer loop
      vertex 6.95288 -21.3988 -7
      vertex 1.0043 -3.09093 -7
      vertex 1.38378 -2.94069 -7
    endloop
  endfacet
  facet normal 0 0 -1
    outer loop
      vertex 4.21608 -22.1015 -7
      vertex 0.608989 -3.19243 -7
      vertex 1.0043 -3.09093 -7
    endloop
  endfacet
  facet normal 0 0 -1
    outer loop
      vertex 1.41279 -22.4556 -7
      vertex 0.204069 -3.24359 -7
      vertex 0.608989 -3.19243 -7
    endloop
  endfacet
  facet normal 0 0 -1
    outer loop
      vertex 1.41279 -22.4556 -7
      vertex -0.204069 -3.24359 -7
      vertex 0.204069 -3.24359 -7
    endloop
  endfacet
  facet normal 0 0 -1
    outer loop
      vertex -1.41279 -22.4556 -7
      vertex -0.204069 -3.24359 -7
      vertex 1.41279 -22.4556 -7
    endloop
  endfacet
  facet normal -0 0 -1
    outer loop
      vertex -0.204069 -3.24359 -7
      vertex -1.41279 -22.4556 -7
      vertex -0.608989 -3.19243 -7
    endloop
  endfacet
  facet normal 0 0 -1
    outer loop
      vertex -4.21608 -22.1015 -7
      vertex -0.608989 -3.19243 -7
      vertex -1.41279 -22.4556 -7
    endloop
  endfacet
  facet normal -0 0 -1
    outer loop
      vertex -0.608989 -3.19243 -7
      vertex -4.21608 -22.1015 -7
      vertex -1.0043 -3.09093 -7
    endloop
  endfacet
  facet normal 0 0 -1
    outer loop
      vertex -6.95288 -21.3988 -7
      vertex -1.0043 -3.09093 -7
      vertex -4.21608 -22.1015 -7
    endloop
  endfacet
  facet normal -0 0 -1
    outer loop
      vertex -1.0043 -3.09093 -7
      vertex -6.95288 -21.3988 -7
      vertex -1.38378 -2.94069 -7
    endloop
  endfacet
  facet normal 0 0 -1
    outer loop
      vertex -9.58003 -20.3586 -7
      vertex -1.38378 -2.94069 -7
      vertex -6.95288 -21.3988 -7
    endloop
  endfacet
  facet normal -0 0 -1
    outer loop
      vertex -1.38378 -2.94069 -7
      vertex -9.58003 -20.3586 -7
      vertex -1.74144 -2.74407 -7
    endloop
  endfacet
  facet normal 0 0 -1
    outer loop
      vertex -12.0561 -18.9974 -7
      vertex -1.74144 -2.74407 -7
      vertex -9.58003 -20.3586 -7
    endloop
  endfacet
  facet normal -0 0 -1
    outer loop
      vertex -1.74144 -2.74407 -7
      vertex -12.0561 -18.9974 -7
      vertex -2.07163 -2.50417 -7
    endloop
  endfacet
  facet normal 0 0 -1
    outer loop
      vertex -14.342 -17.3365 -7
      vertex -2.07163 -2.50417 -7
      vertex -12.0561 -18.9974 -7
    endloop
  endfacet
  facet normal -0 0 -1
    outer loop
      vertex -2.07163 -2.50417 -7
      vertex -14.342 -17.3365 -7
      vertex -2.36915 -2.22478 -7
    endloop
  endfacet
  facet normal -0 0 -1
    outer loop
      vertex -2.36915 -2.22478 -7
      vertex -16.4018 -15.4023 -7
      vertex -2.6293 -1.9103 -7
    endloop
  endfacet
  facet normal 0 0 -1
    outer loop
      vertex -16.4018 -15.4023 -7
      vertex -2.36915 -2.22478 -7
      vertex -14.342 -17.3365 -7
    endloop
  endfacet
  facet normal 0 0 -1
    outer loop
      vertex 2.36915 2.22478 -7
      vertex 16.4018 15.4023 -7
      vertex 2.6293 1.9103 -7
    endloop
  endfacet
  facet normal -0 0 -1
    outer loop
      vertex 16.4018 15.4023 -7
      vertex 2.36915 2.22478 -7
      vertex 14.342 17.3365 -7
    endloop
  endfacet
  facet normal 0 0 -1
    outer loop
      vertex 2.07163 2.50417 -7
      vertex 14.342 17.3365 -7
      vertex 2.36915 2.22478 -7
    endloop
  endfacet
  facet normal -0 0 -1
    outer loop
      vertex 14.342 17.3365 -7
      vertex 2.07163 2.50417 -7
      vertex 12.0561 18.9974 -7
    endloop
  endfacet
  facet normal 0 0 -1
    outer loop
      vertex 1.74144 2.74407 -7
      vertex 12.0561 18.9974 -7
      vertex 2.07163 2.50417 -7
    endloop
  endfacet
  facet normal -0 0 -1
    outer loop
      vertex 12.0561 18.9974 -7
      vertex 1.74144 2.74407 -7
      vertex 9.58003 20.3586 -7
    endloop
  endfacet
  facet normal 0 0 -1
    outer loop
      vertex 1.38378 2.94069 -7
      vertex 9.58003 20.3586 -7
      vertex 1.74144 2.74407 -7
    endloop
  endfacet
  facet normal -0 0 -1
    outer loop
      vertex 9.58003 20.3586 -7
      vertex 1.38378 2.94069 -7
      vertex 6.95288 21.3988 -7
    endloop
  endfacet
  facet normal 0 0 -1
    outer loop
      vertex 1.0043 3.09093 -7
      vertex 6.95288 21.3988 -7
      vertex 1.38378 2.94069 -7
    endloop
  endfacet
  facet normal -0 0 -1
    outer loop
      vertex 6.95288 21.3988 -7
      vertex 1.0043 3.09093 -7
      vertex 4.21608 22.1015 -7
    endloop
  endfacet
  facet normal 0 0 -1
    outer loop
      vertex 0.608989 3.19243 -7
      vertex 4.21608 22.1015 -7
      vertex 1.0043 3.09093 -7
    endloop
  endfacet
  facet normal -0 0 -1
    outer loop
      vertex 4.21608 22.1015 -7
      vertex 0.608989 3.19243 -7
      vertex 1.41279 22.4556 -7
    endloop
  endfacet
  facet normal 0 0 -1
    outer loop
      vertex 0.204069 3.24359 -7
      vertex 1.41279 22.4556 -7
      vertex 0.608989 3.19243 -7
    endloop
  endfacet
  facet normal 0 0 -1
    outer loop
      vertex -0.204069 3.24359 -7
      vertex 1.41279 22.4556 -7
      vertex 0.204069 3.24359 -7
    endloop
  endfacet
  facet normal 0 0 -1
    outer loop
      vertex -1.41279 22.4556 -7
      vertex -0.204069 3.24359 -7
      vertex -0.608989 3.19243 -7
    endloop
  endfacet
  facet normal 0 0 -1
    outer loop
      vertex -4.21608 22.1015 -7
      vertex -0.608989 3.19243 -7
      vertex -1.0043 3.09093 -7
    endloop
  endfacet
  facet normal 0 0 -1
    outer loop
      vertex -6.95288 21.3988 -7
      vertex -1.0043 3.09093 -7
      vertex -1.38378 2.94069 -7
    endloop
  endfacet
  facet normal 0 0 -1
    outer loop
      vertex -0.204069 3.24359 -7
      vertex -1.41279 22.4556 -7
      vertex 1.41279 22.4556 -7
    endloop
  endfacet
  facet normal 0 0 -1
    outer loop
      vertex -9.58003 20.3586 -7
      vertex -1.38378 2.94069 -7
      vertex -1.74144 2.74407 -7
    endloop
  endfacet
  facet normal 0 0 -1
    outer loop
      vertex -12.0561 18.9974 -7
      vertex -1.74144 2.74407 -7
      vertex -2.07163 2.50417 -7
    endloop
  endfacet
  facet normal 0 0 -1
    outer loop
      vertex -14.342 17.3365 -7
      vertex -2.07163 2.50417 -7
      vertex -2.36915 2.22478 -7
    endloop
  endfacet
  facet normal 0 0 -1
    outer loop
      vertex -16.4018 15.4023 -7
      vertex -2.36915 2.22478 -7
      vertex -2.6293 1.9103 -7
    endloop
  endfacet
  facet normal 0 0 -1
    outer loop
      vertex -18.2029 13.2252 -7
      vertex -2.6293 1.9103 -7
      vertex -2.848 1.5657 -7
    endloop
  endfacet
  facet normal 0 0 -1
    outer loop
      vertex -19.7169 10.8395 -7
      vertex -2.848 1.5657 -7
      vertex -3.02177 1.1964 -7
    endloop
  endfacet
  facet normal 0 0 -1
    outer loop
      vertex -20.92 8.2828 -7
      vertex -3.02177 1.1964 -7
      vertex -3.14789 0.808242 -7
    endloop
  endfacet
  facet normal 0 0 -1
    outer loop
      vertex -21.7931 5.59552 -7
      vertex -3.14789 0.808242 -7
      vertex -3.22437 0.407332 -7
    endloop
  endfacet
  facet normal 0 0 -1
    outer loop
      vertex -0.608989 3.19243 -7
      vertex -4.21608 22.1015 -7
      vertex -1.41279 22.4556 -7
    endloop
  endfacet
  facet normal 0 0 -1
    outer loop
      vertex -22.3226 2.82 -7
      vertex -3.22437 0.407332 -7
      vertex -3.25 0 -7
    endloop
  endfacet
  facet normal 0 0 -1
    outer loop
      vertex -18.2029 -13.2252 -7
      vertex -2.6293 -1.9103 -7
      vertex -16.4018 -15.4023 -7
    endloop
  endfacet
  facet normal -0 0 -1
    outer loop
      vertex -2.6293 -1.9103 -7
      vertex -18.2029 -13.2252 -7
      vertex -2.848 -1.5657 -7
    endloop
  endfacet
  facet normal 0 0 -1
    outer loop
      vertex -1.0043 3.09093 -7
      vertex -6.95288 21.3988 -7
      vertex -4.21608 22.1015 -7
    endloop
  endfacet
  facet normal 0 0 -1
    outer loop
      vertex -19.7169 -10.8395 -7
      vertex -2.848 -1.5657 -7
      vertex -18.2029 -13.2252 -7
    endloop
  endfacet
  facet normal 0 0 -1
    outer loop
      vertex -1.38378 2.94069 -7
      vertex -9.58003 20.3586 -7
      vertex -6.95288 21.3988 -7
    endloop
  endfacet
  facet normal -0 0 -1
    outer loop
      vertex -2.848 -1.5657 -7
      vertex -19.7169 -10.8395 -7
      vertex -3.02177 -1.1964 -7
    endloop
  endfacet
  facet normal 0 0 -1
    outer loop
      vertex -1.74144 2.74407 -7
      vertex -12.0561 18.9974 -7
      vertex -9.58003 20.3586 -7
    endloop
  endfacet
  facet normal 0 0 -1
    outer loop
      vertex -20.92 -8.2828 -7
      vertex -3.02177 -1.1964 -7
      vertex -19.7169 -10.8395 -7
    endloop
  endfacet
  facet normal 0 0 -1
    outer loop
      vertex -2.07163 2.50417 -7
      vertex -14.342 17.3365 -7
      vertex -12.0561 18.9974 -7
    endloop
  endfacet
  facet normal -0 0 -1
    outer loop
      vertex -3.02177 -1.1964 -7
      vertex -20.92 -8.2828 -7
      vertex -3.14789 -0.808242 -7
    endloop
  endfacet
  facet normal 0 0 -1
    outer loop
      vertex -2.36915 2.22478 -7
      vertex -16.4018 15.4023 -7
      vertex -14.342 17.3365 -7
    endloop
  endfacet
  facet normal 0 0 -1
    outer loop
      vertex -21.7931 -5.59552 -7
      vertex -3.14789 -0.808242 -7
      vertex -20.92 -8.2828 -7
    endloop
  endfacet
  facet normal 0 0 -1
    outer loop
      vertex -2.6293 1.9103 -7
      vertex -18.2029 13.2252 -7
      vertex -16.4018 15.4023 -7
    endloop
  endfacet
  facet normal -0 0 -1
    outer loop
      vertex -3.14789 -0.808242 -7
      vertex -21.7931 -5.59552 -7
      vertex -3.22437 -0.407332 -7
    endloop
  endfacet
  facet normal 0 0 -1
    outer loop
      vertex -2.848 1.5657 -7
      vertex -19.7169 10.8395 -7
      vertex -18.2029 13.2252 -7
    endloop
  endfacet
  facet normal 0 0 -1
    outer loop
      vertex -22.3226 -2.82 -7
      vertex -3.22437 -0.407332 -7
      vertex -21.7931 -5.59552 -7
    endloop
  endfacet
  facet normal 0 0 -1
    outer loop
      vertex -3.02177 1.1964 -7
      vertex -20.92 8.2828 -7
      vertex -19.7169 10.8395 -7
    endloop
  endfacet
  facet normal -0 0 -1
    outer loop
      vertex -3.22437 -0.407332 -7
      vertex -22.3226 -2.82 -7
      vertex -3.25 0 -7
    endloop
  endfacet
  facet normal 0 0 -1
    outer loop
      vertex -3.14789 0.808242 -7
      vertex -21.7931 5.59552 -7
      vertex -20.92 8.2828 -7
    endloop
  endfacet
  facet normal 0 0 -1
    outer loop
      vertex -22.5 0 -7
      vertex -3.25 0 -7
      vertex -22.3226 -2.82 -7
    endloop
  endfacet
  facet normal 0 0 -1
    outer loop
      vertex -3.22437 0.407332 -7
      vertex -22.3226 2.82 -7
      vertex -21.7931 5.59552 -7
    endloop
  endfacet
  facet normal 0 0 -1
    outer loop
      vertex -3.25 0 -7
      vertex -22.5 0 -7
      vertex -22.3226 2.82 -7
    endloop
  endfacet
  facet normal -0.982285 -0.187395 0
    outer loop
      vertex -21.7931 -5.59552 -7
      vertex -22.3226 -2.82 0
      vertex -22.3226 -2.82 -7
    endloop
  endfacet
  facet normal -0.982285 -0.187395 0
    outer loop
      vertex -22.3226 -2.82 0
      vertex -21.7931 -5.59552 -7
      vertex -21.7931 -5.59552 0
    endloop
  endfacet
  facet normal -0.951062 -0.309001 0
    outer loop
      vertex -20.92 -8.2828 -7
      vertex -21.7931 -5.59552 0
      vertex -21.7931 -5.59552 -7
    endloop
  endfacet
  facet normal -0.951062 -0.309001 0
    outer loop
      vertex -21.7931 -5.59552 0
      vertex -20.92 -8.2828 -7
      vertex -20.92 -8.2828 0
    endloop
  endfacet
  facet normal -0.12532 -0.992116 0
    outer loop
      vertex -4.21608 -22.1015 -7
      vertex -1.41279 -22.4556 0
      vertex -4.21608 -22.1015 0
    endloop
  endfacet
  facet normal -0.12532 -0.992116 -0
    outer loop
      vertex -1.41279 -22.4556 0
      vertex -4.21608 -22.1015 -7
      vertex -1.41279 -22.4556 -7
    endloop
  endfacet
  facet normal -0.770505 -0.637434 0
    outer loop
      vertex -16.4018 -15.4023 -7
      vertex -18.2029 -13.2252 0
      vertex -18.2029 -13.2252 -7
    endloop
  endfacet
  facet normal -0.770505 -0.637434 0
    outer loop
      vertex -18.2029 -13.2252 0
      vertex -16.4018 -15.4023 -7
      vertex -16.4018 -15.4023 0
    endloop
  endfacet
  facet normal -0.84433 -0.535824 0
    outer loop
      vertex -18.2029 -13.2252 -7
      vertex -19.7169 -10.8395 0
      vertex -19.7169 -10.8395 -7
    endloop
  endfacet
  facet normal -0.84433 -0.535824 0
    outer loop
      vertex -19.7169 -10.8395 0
      vertex -18.2029 -13.2252 -7
      vertex -18.2029 -13.2252 0
    endloop
  endfacet
  facet normal -0.481745 -0.876311 0
    outer loop
      vertex -12.0561 -18.9974 -7
      vertex -9.58003 -20.3586 0
      vertex -12.0561 -18.9974 0
    endloop
  endfacet
  facet normal -0.481745 -0.876311 -0
    outer loop
      vertex -9.58003 -20.3586 0
      vertex -12.0561 -18.9974 -7
      vertex -9.58003 -20.3586 -7
    endloop
  endfacet
endsolid OpenSCAD_Model
