solid OpenSCAD_Model
  facet normal -0.6836963841928089 -0.7280627007864849 -0.04983932147580148
    outer loop
      vertex -3.5901704900504523 -3.3713944966987905 -3
      vertex -3.1393131495122963 -3.7947777206707625 -3
      vertex -3.2349267479746002 -3.910354707087131 0
    endloop
  endfacet
  facet normal -0.5870547814661051 -0.8080115875361041 -0.04983932147580149
    outer loop
      vertex -2.638946965271559 -4.1583150330974235 -3
      vertex -2.7193209845184088 -4.284964221922726 0
      vertex -3.1393131495122963 -3.7947777206707625 -3
    endloop
  endfacet
  facet normal -0.6836963841928088 -0.7280627007864852 -0.04983932147580153
    outer loop
      vertex -3.5901704900504523 -3.3713944966987905 -3
      vertex -3.2349267479746002 -3.910354707087131 0
      vertex -3.699515784163664 -3.4740765625880945 0
    endloop
  endfacet
  facet normal -0.5870547814661053 -0.8080115875361041 -0.04983932147580147
    outer loop
      vertex -3.1393131495122963 -3.7947777206707625 -3
      vertex -2.7193209845184088 -4.284964221922726 0
      vertex -3.2349267479746002 -3.910354707087131 0
    endloop
  endfacet
  facet normal -0.8432786359612162 -0.5351608955876933 -0.04983932147580154
    outer loop
      vertex -3.984408697296616 -2.8948423675404302 -3
      vertex -4.4472564012226075 -2.4448998960662056 0
      vertex -4.315810399216027 -2.3726368449509483 -3
    endloop
  endfacet
  facet normal -0.9037025775627162 -0.42525015384045983 -0.04983932147580143
    outer loop
      vertex -4.579149192999639 -1.8130134219720384 -3
      vertex -4.315810399216027 -2.3726368449509483 -3
      vertex -4.718615665882877 -1.8682321048747401 0
    endloop
  endfacet
  facet normal 0 0 -1
    outer loop
      vertex -4.770272068558508 -1.22479769428691 -3
      vertex -4.886164903973803 -0.6172661753041975 -3
      vertex -4.770272068558508 1.22479769428691 -3
    endloop
  endfacet
  facet normal 0 0 -1
    outer loop
      vertex -4.579149192999639 -1.8130134219720384 -3
      vertex -4.770272068558508 -1.22479769428691 -3
      vertex -4.579149192999639 1.8130134219720384 -3
    endloop
  endfacet
  facet normal 0 0 -1
    outer loop
      vertex -4.579149192999639 -1.8130134219720384 -3
      vertex -4.315810399216027 2.3726368449509483 -3
      vertex -4.315810399216027 -2.3726368449509483 -3
    endloop
  endfacet
  facet normal 0 0 -1
    outer loop
      vertex -3.984408697296616 -2.8948423675404302 -3
      vertex -4.315810399216027 -2.3726368449509483 -3
      vertex -3.984408697296616 2.8948423675404302 -3
    endloop
  endfacet
  facet normal -0.9498745896703013 -0.30863296313502947 -0.04983932147580165
    outer loop
      vertex -4.579149192999639 -1.8130134219720384 -3
      vertex -4.915559542727803 -1.2621011773616384 0
      vertex -4.770272068558508 -1.22479769428691 -3
    endloop
  endfacet
  facet normal -0.9810665120712087 -0.18714844623256843 -0.049839321475801564
    outer loop
      vertex -4.770272068558508 -1.22479769428691 -3
      vertex -5.034982109170976 -0.6360661603388431 0
      vertex -4.886164903973803 -0.6172661753041975 -3
    endloop
  endfacet
  facet normal -0.9967864295160269 -0.06271248653595425 -0.04983932147580147
    outer loop
      vertex -4.886164903973803 -0.6172661753041975 -3
      vertex -5.075 0 0
      vertex -4.925 0 -3
    endloop
  endfacet
  facet normal -0.7695556865203668 -0.6366318303218892 -0.04983932147580135
    outer loop
      vertex -3.984408697296616 -2.8948423675404302 -3
      vertex -3.5901704900504523 -3.3713944966987905 -3
      vertex -4.105761246452858 -2.983010155384301 0
    endloop
  endfacet
  facet normal 0 0 -1
    outer loop
      vertex -3.984408697296616 -2.8948423675404302 -3
      vertex -3.5901704900504523 3.3713944966987905 -3
      vertex -3.5901704900504523 -3.3713944966987905 -3
    endloop
  endfacet
  facet normal 0 0 -1
    outer loop
      vertex -3.5901704900504523 -3.3713944966987905 -3
      vertex -3.1393131495122963 3.7947777206707625 -3
      vertex -3.1393131495122963 -3.7947777206707625 -3
    endloop
  endfacet
  facet normal 0 0 -1
    outer loop
      vertex -2.638946965271559 -4.1583150330974235 -3
      vertex -3.1393131495122963 -3.7947777206707625 -3
      vertex -2.638946965271559 4.1583150330974235 -3
    endloop
  endfacet
  facet normal -0.8432786359612159 -0.5351608955876942 -0.04983932147580136
    outer loop
      vertex -3.984408697296616 -2.8948423675404302 -3
      vertex -4.105761246452858 -2.983010155384301 0
      vertex -4.4472564012226075 -2.4448998960662056 0
    endloop
  endfacet
  facet normal -0.9037025775627163 -0.4252501538404593 -0.04983932147580155
    outer loop
      vertex -4.315810399216027 -2.3726368449509483 -3
      vertex -4.4472564012226075 -2.4448998960662056 0
      vertex -4.718615665882877 -1.8682321048747401 0
    endloop
  endfacet
  facet normal -0.949874589670301 -0.30863296313503036 -0.04983932147580144
    outer loop
      vertex -4.579149192999639 -1.8130134219720384 -3
      vertex -4.718615665882877 -1.8682321048747401 0
      vertex -4.915559542727803 -1.2621011773616384 0
    endloop
  endfacet
  facet normal -0.9810665120712088 -0.18714844623256804 -0.04983932147580164
    outer loop
      vertex -4.770272068558508 -1.22479769428691 -3
      vertex -4.915559542727803 -1.2621011773616384 0
      vertex -5.034982109170976 -0.6360661603388431 0
    endloop
  endfacet
  facet normal -0.996786429516027 -0.06271248653595377 -0.049839321475801564
    outer loop
      vertex -4.886164903973803 -0.6172661753041975 -3
      vertex -5.034982109170976 -0.6360661603388431 0
      vertex -5.075 0 0
    endloop
  endfacet
  facet normal -0.7695556865203673 -0.6366318303218886 -0.0498393214758015
    outer loop
      vertex -3.5901704900504523 -3.3713944966987905 -3
      vertex -3.699515784163664 -3.4740765625880945 0
      vertex -4.105761246452858 -2.983010155384301 0
    endloop
  endfacet
  facet normal -0.48115497414615477 -0.8752176488675516 -0.04983932147580144
    outer loop
      vertex -2.638946965271559 -4.1583150330974235 -3
      vertex -2.0969630109579818 -4.456273233395146 -3
      vertex -2.1608299046927426 -4.5919972912650495 0
    endloop
  endfacet
  facet normal -0.3676670654558689 -0.9286210050466776 -0.04983932147580149
    outer loop
      vertex -2.0969630109579818 -4.456273233395146 -3
      vertex -1.5219086972966158 -4.683953342753631 -3
      vertex -1.568261246452858 -4.826611820197904 0
    endloop
  endfacet
  facet normal -0.24838082750968726 -0.967379453244917 -0.049839321475801585
    outer loop
      vertex -1.5219086972966158 -4.683953342753631 -3
      vertex -0.9228529743346947 -4.837764709838791 -3
      vertex -0.9509601715225535 -4.985107797448095 0
    endloop
  endfacet
  facet normal -0.12517747553816258 -0.9908817495810105 -0.04983932147580137
    outer loop
      vertex -0.9228529743346947 -4.837764709838791 -3
      vertex -0.3092433086818703 -4.915281637509238 -3
      vertex -0.3186618866112674 -5.064985646773478 0
    endloop
  endfacet
  facet normal -0.4811549741461548 -0.8752176488675516 -0.04983932147580149
    outer loop
      vertex -2.638946965271559 -4.1583150330974235 -3
      vertex -2.2951800003647804 -4.518137701146803 0
      vertex -2.7193209845184088 -4.284964221922726 0
    endloop
  endfacet
  facet normal -0.48115497414615405 -0.8752176488675519 -0.049839321475801626
    outer loop
      vertex -2.638946965271559 -4.1583150330974235 -3
      vertex -2.1608299046927426 -4.5919972912650495 0
      vertex -2.2951800003647804 -4.518137701146803 0
    endloop
  endfacet
  facet normal -0.367667065455869 -0.9286210050466774 -0.049839321475801446
    outer loop
      vertex -2.0969630109579818 -4.456273233395146 -3
      vertex -1.568261246452858 -4.826611820197904 0
      vertex -2.1608299046927426 -4.5919972912650495 0
    endloop
  endfacet
  facet normal -0.24838082750968865 -0.9673794532449168 -0.04983932147580149
    outer loop
      vertex -1.5219086972966158 -4.683953342753631 -3
      vertex -1.2789199588092555 -4.900902036117388 0
      vertex -1.568261246452858 -4.826611820197904 0
    endloop
  endfacet
  facet normal -0.12517747553816147 -0.9908817495810106 -0.0498393214758016
    outer loop
      vertex -0.9228529743346947 -4.837764709838791 -3
      vertex -0.3186618866112674 -5.064985646773478 0
      vertex -0.9509601715225535 -4.985107797448095 0
    endloop
  endfacet
  facet normal 0 -0.998757248802146 -0.049839321475801356
    outer loop
      vertex -0.3092433086818703 -4.915281637509238 -3
      vertex 0.3186618866112674 -5.064985646773478 0
      vertex -0.3186618866112674 -5.064985646773478 0
    endloop
  endfacet
  facet normal -0.24838082750968704 -0.967379453244917 -0.04983932147580165
    outer loop
      vertex -1.5219086972966158 -4.683953342753631 -3
      vertex -0.9509601715225535 -4.985107797448095 0
      vertex -1.2789199588092555 -4.900902036117388 0
    endloop
  endfacet
  facet normal 0 0 -1
    outer loop
      vertex -2.638946965271559 -4.1583150330974235 -3
      vertex -2.096963010957983 4.456273233395145 -3
      vertex -2.0969630109579818 -4.456273233395146 -3
    endloop
  endfacet
  facet normal 0 0 -1
    outer loop
      vertex -2.0969630109579818 -4.456273233395146 -3
      vertex -1.5219086972966158 4.683953342753631 -3
      vertex -1.5219086972966158 -4.683953342753631 -3
    endloop
  endfacet
  facet normal 0 0 -1
    outer loop
      vertex -1.5219086972966158 -4.683953342753631 -3
      vertex -0.9228529743346935 4.837764709838792 -3
      vertex -0.9228529743346947 -4.837764709838791 -3
    endloop
  endfacet
  facet normal 0 0 -1
    outer loop
      vertex -0.9228529743346947 -4.837764709838791 -3
      vertex -0.3092433086818679 4.915281637509238 -3
      vertex -0.3092433086818703 -4.915281637509238 -3
    endloop
  endfacet
  facet normal 0 0 1
    outer loop
      vertex -2.1608299046927426 -4.5919972912650495 0
      vertex -2.2951800003647804 2.1014399975538254 0
      vertex -2.2951800003647804 -4.518137701146803 0
    endloop
  endfacet
  facet normal 0 0 1
    outer loop
      vertex -2.1608299046927426 -4.5919972912650495 0
      vertex -1.568261246452858 -4.826611820197904 0
      vertex -2.2951800003647804 2.1014399975538254 0
    endloop
  endfacet
  facet normal 0 0 1
    outer loop
      vertex -1.568261246452858 -4.826611820197904 0
      vertex -1.2789199588092555 -4.900902036117388 0
      vertex -2.2951800003647804 2.1014399975538254 0
    endloop
  endfacet
  facet normal 0 0 -1
    outer loop
      vertex -4.886164903973803 -0.6172661753041975 -3
      vertex -4.925 0 -3
      vertex -4.886164903973803 0.6172661753041975 -3
    endloop
  endfacet
  facet normal 0 0 -1
    outer loop
      vertex -4.886164903973803 -0.6172661753041975 -3
      vertex -4.886164903973803 0.6172661753041975 -3
      vertex -4.770272068558508 1.22479769428691 -3
    endloop
  endfacet
  facet normal 0 0 -1
    outer loop
      vertex -4.770272068558508 -1.22479769428691 -3
      vertex -4.770272068558508 1.22479769428691 -3
      vertex -4.579149192999639 1.8130134219720384 -3
    endloop
  endfacet
  facet normal 0 0 -1
    outer loop
      vertex -4.579149192999639 -1.8130134219720384 -3
      vertex -4.579149192999639 1.8130134219720384 -3
      vertex -4.315810399216027 2.3726368449509483 -3
    endloop
  endfacet
  facet normal 0 0 -1
    outer loop
      vertex -4.315810399216027 -2.3726368449509483 -3
      vertex -4.315810399216027 2.3726368449509483 -3
      vertex -3.984408697296616 2.8948423675404302 -3
    endloop
  endfacet
  facet normal -0.9967864295160269 0.06271248653595425 -0.04983932147580157
    outer loop
      vertex -4.925 0 -3
      vertex -5.034982109170976 0.6360661603388431 0
      vertex -4.886164903973803 0.6172661753041975 -3
    endloop
  endfacet
  facet normal -0.9810665120712087 0.18714844623256843 -0.049839321475801564
    outer loop
      vertex -4.886164903973803 0.6172661753041975 -3
      vertex -5.034982109170976 0.6360661603388431 0
      vertex -4.770272068558508 1.22479769428691 -3
    endloop
  endfacet
  facet normal -0.9498745896703013 0.30863296313502947 -0.04983932147580164
    outer loop
      vertex -4.770272068558508 1.22479769428691 -3
      vertex -4.915559542727803 1.2621011773616384 0
      vertex -4.579149192999639 1.8130134219720384 -3
    endloop
  endfacet
  facet normal -0.9037025775627162 0.42525015384045983 -0.04983932147580143
    outer loop
      vertex -4.579149192999639 1.8130134219720384 -3
      vertex -4.718615665882877 1.8682321048747401 0
      vertex -4.315810399216027 2.3726368449509483 -3
    endloop
  endfacet
  facet normal -0.8432786359612162 0.5351608955876933 -0.04983932147580154
    outer loop
      vertex -4.315810399216027 2.3726368449509483 -3
      vertex -4.4472564012226075 2.4448998960662056 0
      vertex -3.984408697296616 2.8948423675404302 -3
    endloop
  endfacet
  facet normal 0 0 -1
    outer loop
      vertex -3.984408697296616 -2.8948423675404302 -3
      vertex -3.984408697296616 2.8948423675404302 -3
      vertex -3.5901704900504523 3.3713944966987905 -3
    endloop
  endfacet
  facet normal 0 0 -1
    outer loop
      vertex -3.5901704900504523 -3.3713944966987905 -3
      vertex -3.5901704900504523 3.3713944966987905 -3
      vertex -3.1393131495122963 3.7947777206707625 -3
    endloop
  endfacet
  facet normal 0 0 -1
    outer loop
      vertex -3.1393131495122963 -3.7947777206707625 -3
      vertex -3.1393131495122963 3.7947777206707625 -3
      vertex -2.638946965271559 4.1583150330974235 -3
    endloop
  endfacet
  facet normal -0.7695556865203668 0.6366318303218892 -0.04983932147580135
    outer loop
      vertex -3.984408697296616 2.8948423675404302 -3
      vertex -4.105761246452858 2.983010155384301 0
      vertex -3.5901704900504523 3.3713944966987905 -3
    endloop
  endfacet
  facet normal -0.996786429516027 0.06271248653595377 -0.049839321475801474
    outer loop
      vertex -4.925 0 -3
      vertex -5.075 0 0
      vertex -5.034982109170976 0.6360661603388431 0
    endloop
  endfacet
  facet normal -0.9810665120712088 0.18714844623256804 -0.04983932147580164
    outer loop
      vertex -4.770272068558508 1.22479769428691 -3
      vertex -5.034982109170976 0.6360661603388431 0
      vertex -4.915559542727803 1.2621011773616384 0
    endloop
  endfacet
  facet normal -0.949874589670301 0.30863296313503036 -0.04983932147580144
    outer loop
      vertex -4.579149192999639 1.8130134219720384 -3
      vertex -4.915559542727803 1.2621011773616384 0
      vertex -4.718615665882877 1.8682321048747401 0
    endloop
  endfacet
  facet normal -0.9037025775627163 0.4252501538404593 -0.04983932147580155
    outer loop
      vertex -4.315810399216027 2.3726368449509483 -3
      vertex -4.718615665882877 1.8682321048747401 0
      vertex -4.4472564012226075 2.4448998960662056 0
    endloop
  endfacet
  facet normal -0.8432786359612159 0.5351608955876942 -0.04983932147580136
    outer loop
      vertex -3.984408697296616 2.8948423675404302 -3
      vertex -4.4472564012226075 2.4448998960662056 0
      vertex -4.105761246452858 2.983010155384301 0
    endloop
  endfacet
  facet normal -0.7695556865203673 0.6366318303218886 -0.0498393214758015
    outer loop
      vertex -3.5901704900504523 3.3713944966987905 -3
      vertex -4.105761246452858 2.983010155384301 0
      vertex -3.699515784163664 3.4740765625880945 0
    endloop
  endfacet
  facet normal -0.6836963841928089 0.7280627007864849 -0.04983932147580148
    outer loop
      vertex -3.5901704900504523 3.3713944966987905 -3
      vertex -3.2349267479746002 3.910354707087131 0
      vertex -3.1393131495122963 3.7947777206707625 -3
    endloop
  endfacet
  facet normal -0.5870547814661051 0.8080115875361041 -0.04983932147580148
    outer loop
      vertex -3.1393131495122963 3.7947777206707625 -3
      vertex -2.7193209845184088 4.284964221922726 0
      vertex -2.638946965271559 4.1583150330974235 -3
    endloop
  endfacet
  facet normal -0.6836963841928088 0.7280627007864852 -0.04983932147580153
    outer loop
      vertex -3.5901704900504523 3.3713944966987905 -3
      vertex -3.699515784163664 3.4740765625880945 0
      vertex -3.2349267479746002 3.910354707087131 0
    endloop
  endfacet
  facet normal -0.5870547814661053 0.8080115875361041 -0.04983932147580147
    outer loop
      vertex -3.1393131495122963 3.7947777206707625 -3
      vertex -3.2349267479746002 3.910354707087131 0
      vertex -2.7193209845184088 4.284964221922726 0
    endloop
  endfacet
  facet normal 0 0 -1
    outer loop
      vertex -2.638946965271559 -4.1583150330974235 -3
      vertex -2.638946965271559 4.1583150330974235 -3
      vertex -2.096963010957983 4.456273233395145 -3
    endloop
  endfacet
  facet normal 0 0 -1
    outer loop
      vertex -2.0969630109579818 -4.456273233395146 -3
      vertex -2.096963010957983 4.456273233395145 -3
      vertex -1.5219086972966158 4.683953342753631 -3
    endloop
  endfacet
  facet normal 0 0 -1
    outer loop
      vertex -1.5219086972966158 -4.683953342753631 -3
      vertex -1.5219086972966158 4.683953342753631 -3
      vertex -0.9228529743346935 4.837764709838792 -3
    endloop
  endfacet
  facet normal 0 0 -1
    outer loop
      vertex -0.9228529743346947 -4.837764709838791 -3
      vertex -0.9228529743346935 4.837764709838792 -3
      vertex -0.3092433086818679 4.915281637509238 -3
    endloop
  endfacet
  facet normal 0 0 -1
    outer loop
      vertex -0.3092433086818703 -4.915281637509238 -3
      vertex -0.3092433086818679 4.915281637509238 -3
      vertex 0.3092433086818679 4.915281637509238 -3
    endloop
  endfacet
  facet normal -0.4811549741461546 0.8752176488675517 -0.04983932147580144
    outer loop
      vertex -2.638946965271559 4.1583150330974235 -3
      vertex -2.160829904692744 4.591997291265049 0
      vertex -2.096963010957983 4.456273233395145 -3
    endloop
  endfacet
  facet normal -0.36766706545586947 0.9286210050466774 -0.04983932147580148
    outer loop
      vertex -2.096963010957983 4.456273233395145 -3
      vertex -1.568261246452858 4.826611820197904 0
      vertex -1.5219086972966158 4.683953342753631 -3
    endloop
  endfacet
  facet normal -0.24838082750968812 0.9673794532449169 -0.0498393214758013
    outer loop
      vertex -1.5219086972966158 4.683953342753631 -3
      vertex -0.9509601715225522 4.985107797448095 0
      vertex -0.9228529743346935 4.837764709838792 -3
    endloop
  endfacet
  facet normal -0.12517747553816094 0.9908817495810107 -0.049839321475801356
    outer loop
      vertex -0.9228529743346935 4.837764709838792 -3
      vertex -0.3186618866112649 5.064985646773478 0
      vertex -0.3092433086818679 4.915281637509238 -3
    endloop
  endfacet
  facet normal 0 0.998757248802146 -0.04983932147580136
    outer loop
      vertex -0.3092433086818679 4.915281637509238 -3
      vertex -0.3186618866112649 5.064985646773478 0
      vertex 0.3092433086818679 4.915281637509238 -3
    endloop
  endfacet
  facet normal -0.48115497414615443 0.8752176488675517 -0.049839321475801474
    outer loop
      vertex -2.638946965271559 4.1583150330974235 -3
      vertex -2.7193209845184088 4.284964221922726 0
      vertex -2.160829904692744 4.591997291265049 0
    endloop
  endfacet
  facet normal -0.3676670654558696 0.9286210050466773 -0.049839321475801446
    outer loop
      vertex -2.096963010957983 4.456273233395145 -3
      vertex -2.160829904692744 4.591997291265049 0
      vertex -1.568261246452858 4.826611820197904 0
    endloop
  endfacet
  facet normal -0.24838082750968732 0.9673794532449171 -0.04983932147580148
    outer loop
      vertex -1.5219086972966158 4.683953342753631 -3
      vertex -1.568261246452858 4.826611820197904 0
      vertex -0.9509601715225522 4.985107797448095 0
    endloop
  endfacet
  facet normal -0.1251774755381614 0.9908817495810107 -0.04983932147580131
    outer loop
      vertex -0.9228529743346935 4.837764709838792 -3
      vertex -0.9509601715225522 4.985107797448095 0
      vertex -0.6146919488000848 5.027588353015802 0
    endloop
  endfacet
  facet normal -0.12517747553816105 0.9908817495810107 -0.049839321475801335
    outer loop
      vertex -0.9228529743346935 4.837764709838792 -3
      vertex -0.6146919488000848 5.027588353015802 0
      vertex -0.3186618866112649 5.064985646773478 0
    endloop
  endfacet
  facet normal 0 0 1
    outer loop
      vertex -0.3186618866112649 5.064985646773478 0
      vertex -0.43974000215530396 3.785879999399185 0
      vertex 0.03221999853849411 0.43320000171661377 0
    endloop
  endfacet
  facet normal 0 0 1
    outer loop
      vertex -0.3186618866112649 5.064985646773478 0
      vertex -0.502020001411438 4.237596735358238 0
      vertex -0.43974000215530396 3.785879999399185 0
    endloop
  endfacet
  facet normal 0 0 1
    outer loop
      vertex -0.3186618866112649 5.064985646773478 0
      vertex -0.5633057132363319 4.672038368880749 0
      vertex -0.502020001411438 4.237596735358238 0
    endloop
  endfacet
  facet normal 0 0 1
    outer loop
      vertex -0.3186618866112649 5.064985646773478 0
      vertex -0.6146919488000848 5.027588353015802 0
      vertex -0.5633057132363319 4.672038368880749 0
    endloop
  endfacet
  facet normal 0 -0.998757248802146 -0.04983932147580136
    outer loop
      vertex -0.3092433086818703 -4.915281637509238 -3
      vertex 0.3092433086818703 -4.915281637509238 -3
      vertex 0.3186618866112674 -5.064985646773478 0
    endloop
  endfacet
  facet normal 0.12517747553816258 -0.9908817495810105 -0.049839321475801356
    outer loop
      vertex 0.3092433086818703 -4.915281637509238 -3
      vertex 0.9228529743346947 -4.837764709838791 -3
      vertex 0.3186618866112674 -5.064985646773478 0
    endloop
  endfacet
  facet normal 0.24838082750968726 -0.967379453244917 -0.0498393214758016
    outer loop
      vertex 0.9228529743346947 -4.837764709838791 -3
      vertex 1.5219086972966158 -4.683953342753631 -3
      vertex 0.9509601715225535 -4.985107797448095 0
    endloop
  endfacet
  facet normal 0.3676670654558689 -0.9286210050466776 -0.04983932147580148
    outer loop
      vertex 1.5219086972966158 -4.683953342753631 -3
      vertex 2.0969630109579818 -4.456273233395146 -3
      vertex 1.568261246452858 -4.826611820197904 0
    endloop
  endfacet
  facet normal 0.4811549741461544 -0.8752176488675518 -0.04983932147580143
    outer loop
      vertex 2.0969630109579818 -4.456273233395146 -3
      vertex 2.6389469652715563 -4.158315033097425 -3
      vertex 2.1608299046927426 -4.5919972912650495 0
    endloop
  endfacet
  facet normal 0.12517747553816147 -0.9908817495810106 -0.0498393214758016
    outer loop
      vertex 0.9228529743346947 -4.837764709838791 -3
      vertex 0.9509601715225535 -4.985107797448095 0
      vertex 0.3186618866112674 -5.064985646773478 0
    endloop
  endfacet
  facet normal 0.24838082750968707 -0.967379453244917 -0.04983932147580162
    outer loop
      vertex 1.5219086972966158 -4.683953342753631 -3
      vertex 1.318494902322366 -4.890740917659203 0
      vertex 0.9509601715225535 -4.985107797448095 0
    endloop
  endfacet
  facet normal 0.2483808275096888 -0.9673794532449167 -0.04983932147580148
    outer loop
      vertex 1.5219086972966158 -4.683953342753631 -3
      vertex 1.568261246452858 -4.826611820197904 0
      vertex 1.318494902322366 -4.890740917659203 0
    endloop
  endfacet
  facet normal 0.367667065455869 -0.9286210050466774 -0.049839321475801446
    outer loop
      vertex 2.0969630109579818 -4.456273233395146 -3
      vertex 2.1608299046927426 -4.5919972912650495 0
      vertex 1.568261246452858 -4.826611820197904 0
    endloop
  endfacet
  facet normal 0.48115497414615505 -0.8752176488675515 -0.04983932147580129
    outer loop
      vertex 2.6389469652715563 -4.158315033097425 -3
      vertex 2.286300003528595 -4.523019520718953 0
      vertex 2.1608299046927426 -4.5919972912650495 0
    endloop
  endfacet
  facet normal 0.481154974146154 -0.8752176488675519 -0.049839321475801474
    outer loop
      vertex 2.6389469652715563 -4.158315033097425 -3
      vertex 2.719320984518406 -4.284964221922728 0
      vertex 2.286300003528595 -4.523019520718953 0
    endloop
  endfacet
  facet normal 0 0 -1
    outer loop
      vertex -0.3092433086818703 -4.915281637509238 -3
      vertex 0.3092433086818679 4.915281637509238 -3
      vertex 0.3092433086818703 -4.915281637509238 -3
    endloop
  endfacet
  facet normal 0 0 -1
    outer loop
      vertex 0.3092433086818703 -4.915281637509238 -3
      vertex 0.9228529743346935 4.837764709838792 -3
      vertex 0.9228529743346947 -4.837764709838791 -3
    endloop
  endfacet
  facet normal 0 0 -1
    outer loop
      vertex 0.9228529743346947 -4.837764709838791 -3
      vertex 1.5219086972966158 4.683953342753631 -3
      vertex 1.5219086972966158 -4.683953342753631 -3
    endloop
  endfacet
  facet normal 0 0 -1
    outer loop
      vertex 1.5219086972966158 -4.683953342753631 -3
      vertex 2.096963010957983 4.456273233395145 -3
      vertex 2.0969630109579818 -4.456273233395146 -3
    endloop
  endfacet
  facet normal 0 0 -1
    outer loop
      vertex 2.0969630109579818 -4.456273233395146 -3
      vertex 2.6389469652715585 4.158315033097424 -3
      vertex 2.6389469652715563 -4.158315033097425 -3
    endloop
  endfacet
  facet normal 0.5870547814661055 -0.8080115875361038 -0.04983932147580149
    outer loop
      vertex 2.6389469652715563 -4.158315033097425 -3
      vertex 3.139313149512298 -3.7947777206707607 -3
      vertex 2.719320984518406 -4.284964221922728 0
    endloop
  endfacet
  facet normal 0.6836963841928088 -0.728062700786485 -0.049839321475801474
    outer loop
      vertex 3.139313149512298 -3.7947777206707607 -3
      vertex 3.5901704900504523 -3.3713944966987905 -3
      vertex 3.2349267479746016 -3.9103547070871296 0
    endloop
  endfacet
  facet normal 0.5870547814661055 -0.8080115875361038 -0.04983932147580148
    outer loop
      vertex 3.139313149512298 -3.7947777206707607 -3
      vertex 3.2349267479746016 -3.9103547070871296 0
      vertex 2.719320984518406 -4.284964221922728 0
    endloop
  endfacet
  facet normal 0.6836963841928086 -0.7280627007864853 -0.04983932147580153
    outer loop
      vertex 3.5901704900504523 -3.3713944966987905 -3
      vertex 3.699515784163664 -3.4740765625880945 0
      vertex 3.2349267479746016 -3.9103547070871296 0
    endloop
  endfacet
  facet normal 0.7695556865203668 -0.6366318303218892 -0.04983932147580135
    outer loop
      vertex 3.5901704900504523 -3.3713944966987905 -3
      vertex 3.984408697296616 -2.8948423675404302 -3
      vertex 4.105761246452858 -2.983010155384301 0
    endloop
  endfacet
  facet normal 0 0 -1
    outer loop
      vertex 2.6389469652715563 -4.158315033097425 -3
      vertex 3.139313149512297 3.7947777206707616 -3
      vertex 3.139313149512298 -3.7947777206707607 -3
    endloop
  endfacet
  facet normal 0 0 -1
    outer loop
      vertex 3.139313149512298 -3.7947777206707607 -3
      vertex 3.590170490050452 3.371394496698792 -3
      vertex 3.5901704900504523 -3.3713944966987905 -3
    endloop
  endfacet
  facet normal 0 0 -1
    outer loop
      vertex 3.5901704900504523 -3.3713944966987905 -3
      vertex 3.984408697296616 2.8948423675404302 -3
      vertex 3.984408697296616 -2.8948423675404302 -3
    endloop
  endfacet
  facet normal 0.8432786359612162 -0.5351608955876933 -0.04983932147580154
    outer loop
      vertex 3.984408697296616 -2.8948423675404302 -3
      vertex 4.315810399216027 -2.3726368449509483 -3
      vertex 4.4472564012226075 -2.4448998960662056 0
    endloop
  endfacet
  facet normal 0.9037025775627165 -0.425250153840459 -0.04983932147580146
    outer loop
      vertex 4.315810399216027 -2.3726368449509483 -3
      vertex 4.579149192999637 -1.8130134219720409 -3
      vertex 4.718615665882875 -1.8682321048747428 0
    endloop
  endfacet
  facet normal 0 0 -1
    outer loop
      vertex 3.984408697296616 -2.8948423675404302 -3
      vertex 4.315810399216028 2.372636844950948 -3
      vertex 4.315810399216027 -2.3726368449509483 -3
    endloop
  endfacet
  facet normal 0 0 -1
    outer loop
      vertex 4.315810399216027 -2.3726368449509483 -3
      vertex 4.579149192999638 1.8130134219720389 -3
      vertex 4.579149192999637 -1.8130134219720409 -3
    endloop
  endfacet
  facet normal 0 0 -1
    outer loop
      vertex 4.579149192999637 -1.8130134219720409 -3
      vertex 4.770272068558508 1.2247976942869099 -3
      vertex 4.7702720685585085 -1.224797694286908 -3
    endloop
  endfacet
  facet normal 0 0 -1
    outer loop
      vertex 4.7702720685585085 -1.224797694286908 -3
      vertex 4.886164903973803 0.6172661753041985 -3
      vertex 4.886164903973803 -0.6172661753041975 -3
    endloop
  endfacet
  facet normal 0.9498745896703007 -0.30863296313503125 -0.049839321475801356
    outer loop
      vertex 4.579149192999637 -1.8130134219720409 -3
      vertex 4.7702720685585085 -1.224797694286908 -3
      vertex 4.915559542727803 -1.2621011773616364 0
    endloop
  endfacet
  facet normal 0.9810665120712089 -0.18714844623256763 -0.04983932147580157
    outer loop
      vertex 4.7702720685585085 -1.224797694286908 -3
      vertex 4.886164903973803 -0.6172661753041975 -3
      vertex 5.034982109170976 -0.6360661603388431 0
    endloop
  endfacet
  facet normal 0.9967864295160269 -0.06271248653595425 -0.04983932147580147
    outer loop
      vertex 4.886164903973803 -0.6172661753041975 -3
      vertex 4.925 0 -3
      vertex 5.075 0 0
    endloop
  endfacet
  facet normal 0.7695556865203673 -0.6366318303218886 -0.0498393214758015
    outer loop
      vertex 3.5901704900504523 -3.3713944966987905 -3
      vertex 4.105761246452858 -2.983010155384301 0
      vertex 3.699515784163664 -3.4740765625880945 0
    endloop
  endfacet
  facet normal 0.8432786359612159 -0.5351608955876942 -0.04983932147580136
    outer loop
      vertex 3.984408697296616 -2.8948423675404302 -3
      vertex 4.4472564012226075 -2.4448998960662056 0
      vertex 4.105761246452858 -2.983010155384301 0
    endloop
  endfacet
  facet normal 0.9037025775627168 -0.42525015384045867 -0.04983932147580156
    outer loop
      vertex 4.315810399216027 -2.3726368449509483 -3
      vertex 4.718615665882875 -1.8682321048747428 0
      vertex 4.4472564012226075 -2.4448998960662056 0
    endloop
  endfacet
  facet normal 0.9498745896703009 -0.30863296313503075 -0.04983932147580146
    outer loop
      vertex 4.579149192999637 -1.8130134219720409 -3
      vertex 4.915559542727803 -1.2621011773616364 0
      vertex 4.718615665882875 -1.8682321048747428 0
    endloop
  endfacet
  facet normal 0.9810665120712088 -0.18714844623256865 -0.049839321475801356
    outer loop
      vertex 4.7702720685585085 -1.224797694286908 -3
      vertex 5.034982109170976 -0.6360661603388431 0
      vertex 4.915559542727803 -1.2621011773616364 0
    endloop
  endfacet
  facet normal 0.996786429516027 -0.06271248653595377 -0.049839321475801564
    outer loop
      vertex 4.886164903973803 -0.6172661753041975 -3
      vertex 5.075 0 0
      vertex 5.034982109170976 -0.6360661603388431 0
    endloop
  endfacet
  facet normal 0 0 1
    outer loop
      vertex 1.568261246452858 -4.826611820197904 0
      vertex 2.1608299046927426 -4.5919972912650495 0
      vertex 1.318494902322366 -4.890740917659203 0
    endloop
  endfacet
  facet normal 0 0 1
    outer loop
      vertex 2.1608299046927426 -4.5919972912650495 0
      vertex 2.286300003528595 -4.523019520718953 0
      vertex 1.318494902322366 -4.890740917659203 0
    endloop
  endfacet
  facet normal 0 0 1
    outer loop
      vertex 2.286300003528595 -4.523019520718953 0
      vertex 2.286300003528595 2.304839998483658 0
      vertex 1.318494902322366 -4.890740917659203 0
    endloop
  endfacet
  facet normal 0 0 -1
    outer loop
      vertex 0.3092433086818703 -4.915281637509238 -3
      vertex 0.3092433086818679 4.915281637509238 -3
      vertex 0.9228529743346935 4.837764709838792 -3
    endloop
  endfacet
  facet normal 0 0 -1
    outer loop
      vertex 0.9228529743346947 -4.837764709838791 -3
      vertex 0.9228529743346935 4.837764709838792 -3
      vertex 1.5219086972966158 4.683953342753631 -3
    endloop
  endfacet
  facet normal 0 0 -1
    outer loop
      vertex 1.5219086972966158 -4.683953342753631 -3
      vertex 1.5219086972966158 4.683953342753631 -3
      vertex 2.096963010957983 4.456273233395145 -3
    endloop
  endfacet
  facet normal 0 0 -1
    outer loop
      vertex 2.0969630109579818 -4.456273233395146 -3
      vertex 2.096963010957983 4.456273233395145 -3
      vertex 2.6389469652715585 4.158315033097424 -3
    endloop
  endfacet
  facet normal 0.24838082750968812 0.9673794532449169 -0.049839321475801286
    outer loop
      vertex 0.9228529743346935 4.837764709838792 -3
      vertex 0.9509601715225522 4.985107797448095 0
      vertex 1.5219086972966158 4.683953342753631 -3
    endloop
  endfacet
  facet normal 0.12517747553816094 0.9908817495810107 -0.04983932147580136
    outer loop
      vertex 0.3092433086818679 4.915281637509238 -3
      vertex 0.3186618866112649 5.064985646773478 0
      vertex 0.9228529743346935 4.837764709838792 -3
    endloop
  endfacet
  facet normal 0.36766706545586947 0.9286210050466774 -0.04983932147580148
    outer loop
      vertex 1.5219086972966158 4.683953342753631 -3
      vertex 1.568261246452858 4.826611820197904 0
      vertex 2.096963010957983 4.456273233395145 -3
    endloop
  endfacet
  facet normal 0.4811549741461538 0.8752176488675522 -0.04983932147580144
    outer loop
      vertex 2.096963010957983 4.456273233395145 -3
      vertex 2.160829904692744 4.591997291265049 0
      vertex 2.6389469652715585 4.158315033097424 -3
    endloop
  endfacet
  facet normal 0 0.9987572488021459 -0.04983932147580136
    outer loop
      vertex -0.3186618866112649 5.064985646773478 0
      vertex 0.3186618866112649 5.064985646773478 0
      vertex 0.3092433086818679 4.915281637509238 -3
    endloop
  endfacet
  facet normal 0.12517747553816153 0.9908817495810106 -0.049839321475801224
    outer loop
      vertex 0.9228529743346935 4.837764709838792 -3
      vertex 0.3186618866112649 5.064985646773478 0
      vertex 0.6156223121266102 5.027470820795033 0
    endloop
  endfacet
  facet normal 0.12517747553816094 0.9908817495810108 -0.04983932147580129
    outer loop
      vertex 0.9228529743346935 4.837764709838792 -3
      vertex 0.6156223121266102 5.027470820795033 0
      vertex 0.9509601715225522 4.985107797448095 0
    endloop
  endfacet
  facet normal 0.24838082750968732 0.9673794532449171 -0.04983932147580148
    outer loop
      vertex 1.5219086972966158 4.683953342753631 -3
      vertex 0.9509601715225522 4.985107797448095 0
      vertex 1.568261246452858 4.826611820197904 0
    endloop
  endfacet
  facet normal 0.3676670654558696 0.9286210050466773 -0.049839321475801446
    outer loop
      vertex 2.096963010957983 4.456273233395145 -3
      vertex 1.568261246452858 4.826611820197904 0
      vertex 2.160829904692744 4.591997291265049 0
    endloop
  endfacet
  facet normal 0.4811549741461537 0.8752176488675523 -0.04983932147580148
    outer loop
      vertex 2.6389469652715585 4.158315033097424 -3
      vertex 2.160829904692744 4.591997291265049 0
      vertex 2.7193209845184083 4.284964221922727 0
    endloop
  endfacet
  facet normal 0 0 -1
    outer loop
      vertex 2.6389469652715563 -4.158315033097425 -3
      vertex 2.6389469652715585 4.158315033097424 -3
      vertex 3.139313149512297 3.7947777206707616 -3
    endloop
  endfacet
  facet normal 0 0 -1
    outer loop
      vertex 3.139313149512298 -3.7947777206707607 -3
      vertex 3.139313149512297 3.7947777206707616 -3
      vertex 3.590170490050452 3.371394496698792 -3
    endloop
  endfacet
  facet normal 0 0 -1
    outer loop
      vertex 3.5901704900504523 -3.3713944966987905 -3
      vertex 3.590170490050452 3.371394496698792 -3
      vertex 3.984408697296616 2.8948423675404302 -3
    endloop
  endfacet
  facet normal 0.7695556865203673 0.6366318303218885 -0.04983932147580134
    outer loop
      vertex 3.590170490050452 3.371394496698792 -3
      vertex 4.105761246452858 2.983010155384301 0
      vertex 3.984408697296616 2.8948423675404302 -3
    endloop
  endfacet
  facet normal 0 0 -1
    outer loop
      vertex 3.984408697296616 -2.8948423675404302 -3
      vertex 3.984408697296616 2.8948423675404302 -3
      vertex 4.315810399216028 2.372636844950948 -3
    endloop
  endfacet
  facet normal 0 0 -1
    outer loop
      vertex 4.315810399216027 -2.3726368449509483 -3
      vertex 4.315810399216028 2.372636844950948 -3
      vertex 4.579149192999638 1.8130134219720389 -3
    endloop
  endfacet
  facet normal 0 0 -1
    outer loop
      vertex 4.579149192999637 -1.8130134219720409 -3
      vertex 4.579149192999638 1.8130134219720389 -3
      vertex 4.770272068558508 1.2247976942869099 -3
    endloop
  endfacet
  facet normal 0 0 -1
    outer loop
      vertex 4.886164903973803 -0.6172661753041975 -3
      vertex 4.886164903973803 0.6172661753041985 -3
      vertex 4.925 0 -3
    endloop
  endfacet
  facet normal 0 0 -1
    outer loop
      vertex 4.7702720685585085 -1.224797694286908 -3
      vertex 4.770272068558508 1.2247976942869099 -3
      vertex 4.886164903973803 0.6172661753041985 -3
    endloop
  endfacet
  facet normal 0.996786429516027 0.06271248653595415 -0.049839321475801474
    outer loop
      vertex 4.925 0 -3
      vertex 4.886164903973803 0.6172661753041985 -3
      vertex 5.075 0 0
    endloop
  endfacet
  facet normal 0.9810665120712087 0.1871484462325688 -0.049839321475801564
    outer loop
      vertex 4.886164903973803 0.6172661753041985 -3
      vertex 4.770272068558508 1.2247976942869099 -3
      vertex 5.034982109170976 0.6360661603388441 0
    endloop
  endfacet
  facet normal 0.949874589670301 0.3086329631350304 -0.04983932147580164
    outer loop
      vertex 4.770272068558508 1.2247976942869099 -3
      vertex 4.579149192999638 1.8130134219720389 -3
      vertex 4.915559542727803 1.2621011773616382 0
    endloop
  endfacet
  facet normal 0.903702577562717 0.42525015384045806 -0.04983932147580147
    outer loop
      vertex 4.315810399216028 2.372636844950948 -3
      vertex 4.718615665882876 1.8682321048747408 0
      vertex 4.579149192999638 1.8130134219720389 -3
    endloop
  endfacet
  facet normal 0.8432786359612159 0.5351608955876941 -0.04983932147580128
    outer loop
      vertex 4.315810399216028 2.372636844950948 -3
      vertex 3.984408697296616 2.8948423675404302 -3
      vertex 4.4472564012226075 2.444899896066205 0
    endloop
  endfacet
  facet normal 0.7695556865203675 0.6366318303218884 -0.04983932147580142
    outer loop
      vertex 3.590170490050452 3.371394496698792 -3
      vertex 3.6995157841636637 3.4740765625880954 0
      vertex 4.105761246452858 2.983010155384301 0
    endloop
  endfacet
  facet normal 0.996786429516027 0.06271248653595367 -0.04983932147580157
    outer loop
      vertex 4.886164903973803 0.6172661753041985 -3
      vertex 5.034982109170976 0.6360661603388441 0
      vertex 5.075 0 0
    endloop
  endfacet
  facet normal 0.9810665120712087 0.1871484462325684 -0.04983932147580165
    outer loop
      vertex 4.770272068558508 1.2247976942869099 -3
      vertex 4.915559542727803 1.2621011773616382 0
      vertex 5.034982109170976 0.6360661603388441 0
    endloop
  endfacet
  facet normal 0.9037025775627167 0.4252501538404589 -0.049839321475801286
    outer loop
      vertex 4.315810399216028 2.372636844950948 -3
      vertex 4.4472564012226075 2.444899896066205 0
      vertex 4.718615665882876 1.8682321048747408 0
    endloop
  endfacet
  facet normal 0.8432786359612161 0.5351608955876939 -0.04983932147580136
    outer loop
      vertex 3.984408697296616 2.8948423675404302 -3
      vertex 4.105761246452858 2.983010155384301 0
      vertex 4.4472564012226075 2.444899896066205 0
    endloop
  endfacet
  facet normal 0.9498745896703008 0.30863296313503125 -0.04983932147580146
    outer loop
      vertex 4.579149192999638 1.8130134219720389 -3
      vertex 4.718615665882876 1.8682321048747408 0
      vertex 4.915559542727803 1.2621011773616382 0
    endloop
  endfacet
  facet normal 0.5870547814661063 0.8080115875361032 -0.04983932147580149
    outer loop
      vertex 3.139313149512297 3.7947777206707616 -3
      vertex 2.6389469652715585 4.158315033097424 -3
      vertex 2.7193209845184083 4.284964221922727 0
    endloop
  endfacet
  facet normal 0.6836963841928076 0.728062700786486 -0.049839321475801474
    outer loop
      vertex 3.139313149512297 3.7947777206707616 -3
      vertex 3.2349267479746007 3.91035470708713 0
      vertex 3.590170490050452 3.371394496698792 -3
    endloop
  endfacet
  facet normal 0.5870547814661065 0.8080115875361032 -0.04983932147580147
    outer loop
      vertex 3.139313149512297 3.7947777206707616 -3
      vertex 2.7193209845184083 4.284964221922727 0
      vertex 3.2349267479746007 3.91035470708713 0
    endloop
  endfacet
  facet normal 0.6836963841928079 0.7280627007864859 -0.04983932147580142
    outer loop
      vertex 3.590170490050452 3.371394496698792 -3
      vertex 3.2349267479746007 3.91035470708713 0
      vertex 3.6995157841636637 3.4740765625880954 0
    endloop
  endfacet
  facet normal 0 0 1
    outer loop
      vertex -0.3186618866112649 5.064985646773478 0
      vertex 0.03221999853849411 0.43320000171661377 0
      vertex 0.6156223121266102 5.027470820795033 0
    endloop
  endfacet
  facet normal 0 0 1
    outer loop
      vertex -0.3186618866112649 5.064985646773478 0
      vertex 0.6156223121266102 5.027470820795033 0
      vertex 0.3186618866112649 5.064985646773478 0
    endloop
  endfacet
  facet normal 0 -1 0
    outer loop
      vertex -5.289779998362064 -6.589440003037453 0
      vertex -2.2951800003647804 -6.589440003037453 0
      vertex -5.289779998362064 -6.589440003037453 2
    endloop
  endfacet
  facet normal 0 0 -1
    outer loop
      vertex -5.289779998362064 -6.589440003037453 0
      vertex -4.718615665882877 -1.8682321048747401 0
      vertex -4.4472564012226075 -2.4448998960662056 0
    endloop
  endfacet
  facet normal 0 0 -1
    outer loop
      vertex -5.289779998362064 -6.589440003037453 0
      vertex -4.105761246452858 -2.983010155384301 0
      vertex -3.699515784163664 -3.4740765625880945 0
    endloop
  endfacet
  facet normal 0 0 -1
    outer loop
      vertex -5.289779998362064 -6.589440003037453 0
      vertex -3.699515784163664 -3.4740765625880945 0
      vertex -3.2349267479746002 -3.910354707087131 0
    endloop
  endfacet
  facet normal 0 0 -1
    outer loop
      vertex -5.289779998362064 -6.589440003037453 0
      vertex -4.4472564012226075 -2.4448998960662056 0
      vertex -4.105761246452858 -2.983010155384301 0
    endloop
  endfacet
  facet normal 0 0 -1
    outer loop
      vertex -5.289779998362064 -6.589440003037453 0
      vertex -2.7193209845184088 -4.284964221922726 0
      vertex -2.2951800003647804 -4.518137701146803 0
    endloop
  endfacet
  facet normal 0 0 -1
    outer loop
      vertex -5.289779998362064 -6.589440003037453 0
      vertex -2.2951800003647804 -4.518137701146803 0
      vertex -2.2951800003647804 -6.589440003037453 0
    endloop
  endfacet
  facet normal 0 0 -1
    outer loop
      vertex -5.289779998362064 -6.589440003037453 0
      vertex -3.2349267479746002 -3.910354707087131 0
      vertex -2.7193209845184088 -4.284964221922726 0
    endloop
  endfacet
  facet normal 0 -1 0
    outer loop
      vertex -2.2951800003647804 -6.589440003037453 0
      vertex -2.2951800003647804 -6.589440003037453 2
      vertex -5.289779998362064 -6.589440003037453 2
    endloop
  endfacet
  facet normal 0 0 1
    outer loop
      vertex -5.289779998362064 -6.589440003037453 2
      vertex -2.2951800003647804 -6.589440003037453 2
      vertex -2.2951800003647804 2.1014399975538254 2
    endloop
  endfacet
  facet normal 0 0 -1
    outer loop
      vertex -5.289779998362064 -6.589440003037453 0
      vertex -4.915559542727803 -1.2621011773616384 0
      vertex -4.718615665882877 -1.8682321048747401 0
    endloop
  endfacet
  facet normal 0 0 -1
    outer loop
      vertex -5.289779998362064 -6.589440003037453 0
      vertex -5.034982109170976 -0.6360661603388431 0
      vertex -4.915559542727803 -1.2621011773616384 0
    endloop
  endfacet
  facet normal 0 0 -1
    outer loop
      vertex -5.289779998362064 -6.589440003037453 0
      vertex -5.075 0 0
      vertex -5.034982109170976 -0.6360661603388431 0
    endloop
  endfacet
  facet normal -1 0 0
    outer loop
      vertex -5.289779998362064 -6.589440003037453 0
      vertex -5.289779998362064 -6.589440003037453 2
      vertex -5.289779998362064 6.585119999945164 2
    endloop
  endfacet
  facet normal 1 0 0
    outer loop
      vertex -2.2951800003647804 -6.589440003037453 0
      vertex -2.2951800003647804 -4.518137701146803 0
      vertex -2.2951800003647804 -6.589440003037453 2
    endloop
  endfacet
  facet normal 0 0 -1
    outer loop
      vertex -1.0338599979877472 -6.589440003037453 0
      vertex -1.2789199588092555 -4.900902036117388 0
      vertex -0.9509601715225535 -4.985107797448095 0
    endloop
  endfacet
  facet normal 0 0 -1
    outer loop
      vertex -1.0338599979877472 -6.589440003037453 0
      vertex -0.9509601715225535 -4.985107797448095 0
      vertex -0.3186618866112674 -5.064985646773478 0
    endloop
  endfacet
  facet normal 0 0 -1
    outer loop
      vertex -1.0338599979877472 -6.589440003037453 0
      vertex -0.3186618866112674 -5.064985646773478 0
      vertex 0.3186618866112674 -5.064985646773478 0
    endloop
  endfacet
  facet normal 0 -1 0
    outer loop
      vertex -1.0338599979877472 -6.589440003037453 0
      vertex 1.0900200009346008 -6.589440003037453 0
      vertex -1.0338599979877472 -6.589440003037453 2
    endloop
  endfacet
  facet normal -0.9896319348253785 -0.14362671608645053 0
    outer loop
      vertex -1.0338599979877472 -6.589440003037453 0
      vertex -1.0338599979877472 -6.589440003037453 2
      vertex -2.2951800003647804 2.1014399975538254 2
    endloop
  endfacet
  facet normal 1 0 0
    outer loop
      vertex -2.2951800003647804 -6.589440003037453 2
      vertex -2.2951800003647804 -4.518137701146803 0
      vertex -2.2951800003647804 2.1014399975538254 0
    endloop
  endfacet
  facet normal -0.9896319348253786 -0.14362671608645058 3.904130726600915e-16
    outer loop
      vertex -1.0338599979877472 -6.589440003037453 0
      vertex -2.2951800003647804 2.1014399975538254 2
      vertex -1.2789199588092555 -4.900902036117388 0
    endloop
  endfacet
  facet normal -0.9896319348253785 -0.1436267160864505 0
    outer loop
      vertex -2.2951800003647804 2.1014399975538254 2
      vertex -2.2951800003647804 2.1014399975538254 0
      vertex -1.2789199588092555 -4.900902036117388 0
    endloop
  endfacet
  facet normal 1 0 0
    outer loop
      vertex -2.2951800003647804 -6.589440003037453 2
      vertex -2.2951800003647804 2.1014399975538254 0
      vertex -2.2951800003647804 2.1014399975538254 2
    endloop
  endfacet
  facet normal 0 0 1
    outer loop
      vertex -1.0338599979877472 -6.589440003037453 2
      vertex 0.03221999853849411 0.43320000171661377 2
      vertex -2.2951800003647804 2.1014399975538254 2
    endloop
  endfacet
  facet normal 0 0 -1
    outer loop
      vertex -5.289779998362064 -6.589440003037453 0
      vertex -5.289779998362064 6.585119999945164 0
      vertex -5.075 0 0
    endloop
  endfacet
  facet normal 0 0 -1
    outer loop
      vertex -5.289779998362064 6.585119999945164 0
      vertex -5.034982109170976 0.6360661603388431 0
      vertex -5.075 0 0
    endloop
  endfacet
  facet normal 0 0 -1
    outer loop
      vertex -5.289779998362064 6.585119999945164 0
      vertex -4.915559542727803 1.2621011773616384 0
      vertex -5.034982109170976 0.6360661603388431 0
    endloop
  endfacet
  facet normal 0 0 -1
    outer loop
      vertex -5.289779998362064 6.585119999945164 0
      vertex -4.718615665882877 1.8682321048747401 0
      vertex -4.915559542727803 1.2621011773616384 0
    endloop
  endfacet
  facet normal -1 0 0
    outer loop
      vertex -5.289779998362064 -6.589440003037453 0
      vertex -5.289779998362064 6.585119999945164 2
      vertex -5.289779998362064 6.585119999945164 0
    endloop
  endfacet
  facet normal 0 0 1
    outer loop
      vertex -5.289779998362064 -6.589440003037453 2
      vertex -2.2951800003647804 2.1014399975538254 2
      vertex -5.289779998362064 6.585119999945164 2
    endloop
  endfacet
  facet normal 0 0 -1
    outer loop
      vertex -5.289779998362064 6.585119999945164 0
      vertex -4.4472564012226075 2.4448998960662056 0
      vertex -4.718615665882877 1.8682321048747401 0
    endloop
  endfacet
  facet normal 0 0 -1
    outer loop
      vertex -5.289779998362064 6.585119999945164 0
      vertex -4.105761246452858 2.983010155384301 0
      vertex -4.4472564012226075 2.4448998960662056 0
    endloop
  endfacet
  facet normal 0 0 -1
    outer loop
      vertex -5.289779998362064 6.585119999945164 0
      vertex -3.699515784163664 3.4740765625880945 0
      vertex -4.105761246452858 2.983010155384301 0
    endloop
  endfacet
  facet normal 0 0 -1
    outer loop
      vertex -5.289779998362064 6.585119999945164 0
      vertex -3.2349267479746002 3.910354707087131 0
      vertex -3.699515784163664 3.4740765625880945 0
    endloop
  endfacet
  facet normal 0 0 -1
    outer loop
      vertex -5.289779998362064 6.585119999945164 0
      vertex -2.7193209845184088 4.284964221922726 0
      vertex -3.2349267479746002 3.910354707087131 0
    endloop
  endfacet
  facet normal 0 0 -1
    outer loop
      vertex -5.289779998362064 6.585119999945164 0
      vertex -2.160829904692744 4.591997291265049 0
      vertex -2.7193209845184088 4.284964221922726 0
    endloop
  endfacet
  facet normal 0 0 -1
    outer loop
      vertex -5.289779998362064 6.585119999945164 0
      vertex -1.568261246452858 4.826611820197904 0
      vertex -2.160829904692744 4.591997291265049 0
    endloop
  endfacet
  facet normal 0 0 1
    outer loop
      vertex -5.289779998362064 6.585119999945164 2
      vertex -2.2951800003647804 2.1014399975538254 2
      vertex -0.43974000215530396 3.785879999399185 2
    endloop
  endfacet
  facet normal 0 1 0
    outer loop
      vertex -5.289779998362064 6.585119999945164 0
      vertex -5.289779998362064 6.585119999945164 2
      vertex -0.8548199981451035 6.585119999945164 2
    endloop
  endfacet
  facet normal 0.9902366368458406 0.1393965675626152 0
    outer loop
      vertex 0.03221999853849411 0.43320000171661377 2
      vertex 0.03221999853849411 0.43320000171661377 0
      vertex -0.43974000215530396 3.785879999399185 0
    endloop
  endfacet
  facet normal 0.9902366368458406 0.1393965675626152 0
    outer loop
      vertex -0.43974000215530396 3.785879999399185 2
      vertex 0.03221999853849411 0.43320000171661377 2
      vertex -0.43974000215530396 3.785879999399185 0
    endloop
  endfacet
  facet normal 0 0 1
    outer loop
      vertex -2.2951800003647804 2.1014399975538254 2
      vertex 0.03221999853849411 0.43320000171661377 2
      vertex -0.43974000215530396 3.785879999399185 2
    endloop
  endfacet
  facet normal 0 0 -1
    outer loop
      vertex -5.289779998362064 6.585119999945164 0
      vertex -0.9509601715225522 4.985107797448095 0
      vertex -1.568261246452858 4.826611820197904 0
    endloop
  endfacet
  facet normal 0 0 -1
    outer loop
      vertex -5.289779998362064 6.585119999945164 0
      vertex -0.6235971450805664 5.089204899966717 0
      vertex -0.9509601715225522 4.985107797448095 0
    endloop
  endfacet
  facet normal 0 0 -1
    outer loop
      vertex -5.289779998362064 6.585119999945164 0
      vertex -0.6828942820429802 5.489096328616142 0
      vertex -0.6235971450805664 5.089204899966717 0
    endloop
  endfacet
  facet normal 0 0 -1
    outer loop
      vertex -5.289779998362064 6.585119999945164 0
      vertex -0.7411971464753151 5.871712654829025 0
      vertex -0.6828942820429802 5.489096328616142 0
    endloop
  endfacet
  facet normal 0 0 -1
    outer loop
      vertex -5.289779998362064 6.585119999945164 0
      vertex -0.7985057160258293 6.237053878605366 0
      vertex -0.7411971464753151 5.871712654829025 0
    endloop
  endfacet
  facet normal 0 0 -1
    outer loop
      vertex -5.289779998362064 6.585119999945164 0
      vertex -0.8548199981451035 6.585119999945164 0
      vertex -0.7985057160258293 6.237053878605366 0
    endloop
  endfacet
  facet normal 0 1 0
    outer loop
      vertex -5.289779998362064 6.585119999945164 0
      vertex -0.8548199981451035 6.585119999945164 2
      vertex -0.8548199981451035 6.585119999945164 0
    endloop
  endfacet
  facet normal 0.9906287735186722 0.13658196468381567 0
    outer loop
      vertex -0.43974000215530396 3.785879999399185 2
      vertex -0.43974000215530396 3.785879999399185 0
      vertex -0.502020001411438 4.237596735358238 0
    endloop
  endfacet
  facet normal 0.9901960272017486 0.13968474402694842 0
    outer loop
      vertex -0.502020001411438 4.237596735358238 2
      vertex -0.502020001411438 4.237596735358238 0
      vertex -0.5633057132363319 4.672038368880749 0
    endloop
  endfacet
  facet normal 0.9897169255494697 0.1430398800366721 1.845991850504224e-16
    outer loop
      vertex -0.6235971450805664 5.089204899966717 0
      vertex -0.5633057132363319 4.672038368880749 2
      vertex -0.6146919488000848 5.027588353015802 0
    endloop
  endfacet
  facet normal 0.9897169255494698 0.14303988003667106 0
    outer loop
      vertex -0.5633057132363319 4.672038368880749 2
      vertex -0.5633057132363319 4.672038368880749 0
      vertex -0.6146919488000848 5.027588353015802 0
    endloop
  endfacet
  facet normal 0 0 -1
    outer loop
      vertex -0.6235971450805664 5.089204899966717 0
      vertex -0.6146919488000848 5.027588353015802 0
      vertex -0.9509601715225522 4.985107797448095 0
    endloop
  endfacet
  facet normal 0.9885885971176223 0.15064058433573493 0
    outer loop
      vertex -0.6828942820429802 5.489096328616142 0
      vertex -0.7411971464753151 5.871712654829025 0
      vertex -0.6828942820429802 5.489096328616142 2
    endloop
  endfacet
  facet normal 0.9879194674814523 0.15496814437542883 0
    outer loop
      vertex -0.7411971464753151 5.871712654829025 0
      vertex -0.7985057160258293 6.237053878605366 0
      vertex -0.7411971464753151 5.871712654829025 2
    endloop
  endfacet
  facet normal 0.9871631651986895 0.15971501267853583 0
    outer loop
      vertex -0.8548199981451035 6.585119999945164 0
      vertex -0.7985057160258293 6.237053878605366 2
      vertex -0.7985057160258293 6.237053878605366 0
    endloop
  endfacet
  facet normal 0.9891841031787777 0.14667927603583733 0
    outer loop
      vertex -0.6828942820429802 5.489096328616142 0
      vertex -0.6235971450805664 5.089204899966717 2
      vertex -0.6235971450805664 5.089204899966717 0
    endloop
  endfacet
  facet normal 0 0 1
    outer loop
      vertex -5.289779998362064 6.585119999945164 2
      vertex -0.43974000215530396 3.785879999399185 2
      vertex -0.502020001411438 4.237596735358238 2
    endloop
  endfacet
  facet normal 0 0 1
    outer loop
      vertex -5.289779998362064 6.585119999945164 2
      vertex -0.502020001411438 4.237596735358238 2
      vertex -0.5633057132363319 4.672038368880749 2
    endloop
  endfacet
  facet normal 0 0 1
    outer loop
      vertex -5.289779998362064 6.585119999945164 2
      vertex -0.5633057132363319 4.672038368880749 2
      vertex -0.6235971450805664 5.089204899966717 2
    endloop
  endfacet
  facet normal 0 0 1
    outer loop
      vertex -5.289779998362064 6.585119999945164 2
      vertex -0.6235971450805664 5.089204899966717 2
      vertex -0.6828942820429802 5.489096328616142 2
    endloop
  endfacet
  facet normal 0 0 1
    outer loop
      vertex -5.289779998362064 6.585119999945164 2
      vertex -0.6828942820429802 5.489096328616142 2
      vertex -0.7411971464753151 5.871712654829025 2
    endloop
  endfacet
  facet normal 0 0 1
    outer loop
      vertex -5.289779998362064 6.585119999945164 2
      vertex -0.7411971464753151 5.871712654829025 2
      vertex -0.7985057160258293 6.237053878605366 2
    endloop
  endfacet
  facet normal 0 0 1
    outer loop
      vertex -5.289779998362064 6.585119999945164 2
      vertex -0.7985057160258293 6.237053878605366 2
      vertex -0.8548199981451035 6.585119999945164 2
    endloop
  endfacet
  facet normal 0.9906287735186722 0.13658196468381567 0
    outer loop
      vertex -0.43974000215530396 3.785879999399185 2
      vertex -0.502020001411438 4.237596735358238 0
      vertex -0.502020001411438 4.237596735358238 2
    endloop
  endfacet
  facet normal 0.9901960272017486 0.13968474402694842 0
    outer loop
      vertex -0.502020001411438 4.237596735358238 2
      vertex -0.5633057132363319 4.672038368880749 0
      vertex -0.5633057132363319 4.672038368880749 2
    endloop
  endfacet
  facet normal 0.9885885971176223 0.15064058433573493 0
    outer loop
      vertex -0.7411971464753151 5.871712654829025 0
      vertex -0.7411971464753151 5.871712654829025 2
      vertex -0.6828942820429802 5.489096328616142 2
    endloop
  endfacet
  facet normal 0.9879194674814523 0.15496814437542883 0
    outer loop
      vertex -0.7985057160258293 6.237053878605366 0
      vertex -0.7985057160258293 6.237053878605366 2
      vertex -0.7411971464753151 5.871712654829025 2
    endloop
  endfacet
  facet normal 0.9871631651986895 0.15971501267853583 0
    outer loop
      vertex -0.8548199981451035 6.585119999945164 0
      vertex -0.8548199981451035 6.585119999945164 2
      vertex -0.7985057160258293 6.237053878605366 2
    endloop
  endfacet
  facet normal 0.9897169255494698 0.1430398800366712 0
    outer loop
      vertex -0.6235971450805664 5.089204899966717 0
      vertex -0.6235971450805664 5.089204899966717 2
      vertex -0.5633057132363319 4.672038368880749 2
    endloop
  endfacet
  facet normal 0.9891841031787777 0.14667927603583733 0
    outer loop
      vertex -0.6828942820429802 5.489096328616142 0
      vertex -0.6828942820429802 5.489096328616142 2
      vertex -0.6235971450805664 5.089204899966717 2
    endloop
  endfacet
  facet normal 0 0 -1
    outer loop
      vertex -1.0338599979877472 -6.589440003037453 0
      vertex 0.3186618866112674 -5.064985646773478 0
      vertex 1.0900200009346008 -6.589440003037453 0
    endloop
  endfacet
  facet normal 0 0 -1
    outer loop
      vertex 1.0900200009346008 -6.589440003037453 0
      vertex 0.3186618866112674 -5.064985646773478 0
      vertex 0.9509601715225535 -4.985107797448095 0
    endloop
  endfacet
  facet normal 0 0 -1
    outer loop
      vertex 1.0900200009346008 -6.589440003037453 0
      vertex 0.9509601715225535 -4.985107797448095 0
      vertex 1.318494902322366 -4.890740917659203 0
    endloop
  endfacet
  facet normal 0.9910757848742406 -0.13329961978905966 0
    outer loop
      vertex 1.0900200009346008 -6.589440003037453 0
      vertex 1.318494902322366 -4.890740917659203 0
      vertex 1.0900200009346008 -6.589440003037453 2
    endloop
  endfacet
  facet normal 0 -1 0
    outer loop
      vertex -1.0338599979877472 -6.589440003037453 2
      vertex 1.0900200009346008 -6.589440003037453 0
      vertex 1.0900200009346008 -6.589440003037453 2
    endloop
  endfacet
  facet normal 0 0 1
    outer loop
      vertex -1.0338599979877472 -6.589440003037453 2
      vertex 1.0900200009346008 -6.589440003037453 2
      vertex 0.03221999853849411 0.43320000171661377 2
    endloop
  endfacet
  facet normal -1 0 0
    outer loop
      vertex 2.286300003528595 -6.589440003037453 0
      vertex 2.286300003528595 -6.589440003037453 2
      vertex 2.286300003528595 2.304839998483658 2
    endloop
  endfacet
  facet normal 0.9910757848742406 -0.13329961978905971 -6.116616119470428e-17
    outer loop
      vertex 1.0900200009346008 -6.589440003037453 2
      vertex 1.318494902322366 -4.890740917659203 0
      vertex 2.286300003528595 2.304839998483658 0
    endloop
  endfacet
  facet normal -1 0 0
    outer loop
      vertex 2.286300003528595 -6.589440003037453 0
      vertex 2.286300003528595 2.304839998483658 2
      vertex 2.286300003528595 -4.523019520718953 0
    endloop
  endfacet
  facet normal 0 0 1
    outer loop
      vertex 1.0900200009346008 -6.589440003037453 2
      vertex 2.286300003528595 2.304839998483658 2
      vertex 0.03221999853849411 0.43320000171661377 2
    endloop
  endfacet
  facet normal 0.9910757848742406 -0.1332996197890597 0
    outer loop
      vertex 1.0900200009346008 -6.589440003037453 2
      vertex 2.286300003528595 2.304839998483658 0
      vertex 2.286300003528595 2.304839998483658 2
    endloop
  endfacet
  facet normal 0 0 -1
    outer loop
      vertex 2.286300003528595 -6.589440003037453 0
      vertex 2.286300003528595 -4.523019520718953 0
      vertex 5.280900001525879 -6.589440003037453 0
    endloop
  endfacet
  facet normal 0 0 -1
    outer loop
      vertex 5.280900001525879 -6.589440003037453 0
      vertex 2.286300003528595 -4.523019520718953 0
      vertex 2.719320984518406 -4.284964221922728 0
    endloop
  endfacet
  facet normal 0 -1 0
    outer loop
      vertex 2.286300003528595 -6.589440003037453 0
      vertex 5.280900001525879 -6.589440003037453 0
      vertex 2.286300003528595 -6.589440003037453 2
    endloop
  endfacet
  facet normal 0 0 -1
    outer loop
      vertex 5.280900001525879 -6.589440003037453 0
      vertex 2.719320984518406 -4.284964221922728 0
      vertex 3.2349267479746016 -3.9103547070871296 0
    endloop
  endfacet
  facet normal 0 0 -1
    outer loop
      vertex 5.280900001525879 -6.589440003037453 0
      vertex 3.2349267479746016 -3.9103547070871296 0
      vertex 3.699515784163664 -3.4740765625880945 0
    endloop
  endfacet
  facet normal 0 0 -1
    outer loop
      vertex 5.280900001525879 -6.589440003037453 0
      vertex 3.699515784163664 -3.4740765625880945 0
      vertex 4.105761246452858 -2.983010155384301 0
    endloop
  endfacet
  facet normal 0 0 -1
    outer loop
      vertex 5.280900001525879 -6.589440003037453 0
      vertex 4.105761246452858 -2.983010155384301 0
      vertex 4.4472564012226075 -2.4448998960662056 0
    endloop
  endfacet
  facet normal 0 0 -1
    outer loop
      vertex 5.280900001525879 -6.589440003037453 0
      vertex 4.4472564012226075 -2.4448998960662056 0
      vertex 4.718615665882875 -1.8682321048747428 0
    endloop
  endfacet
  facet normal 0 0 1
    outer loop
      vertex 2.286300003528595 -6.589440003037453 2
      vertex 5.280900001525879 -6.589440003037453 2
      vertex 2.286300003528595 2.304839998483658 2
    endloop
  endfacet
  facet normal 0 -1 0
    outer loop
      vertex 5.280900001525879 -6.589440003037453 0
      vertex 5.280900001525879 -6.589440003037453 2
      vertex 2.286300003528595 -6.589440003037453 2
    endloop
  endfacet
  facet normal 0 0 -1
    outer loop
      vertex 5.280900001525879 -6.589440003037453 0
      vertex 4.718615665882875 -1.8682321048747428 0
      vertex 4.915559542727803 -1.2621011773616364 0
    endloop
  endfacet
  facet normal 0 0 -1
    outer loop
      vertex 5.280900001525879 -6.589440003037453 0
      vertex 4.915559542727803 -1.2621011773616364 0
      vertex 5.034982109170976 -0.6360661603388431 0
    endloop
  endfacet
  facet normal 0 0 -1
    outer loop
      vertex 5.280900001525879 -6.589440003037453 0
      vertex 5.034982109170976 -0.6360661603388431 0
      vertex 5.075 0 0
    endloop
  endfacet
  facet normal 1 0 0
    outer loop
      vertex 5.280900001525879 -6.589440003037453 0
      vertex 5.280900001525879 6.585119999945164 0
      vertex 5.280900001525879 -6.589440003037453 2
    endloop
  endfacet
  facet normal -1 0 0
    outer loop
      vertex 2.286300003528595 2.304839998483658 2
      vertex 2.286300003528595 2.304839998483658 0
      vertex 2.286300003528595 -4.523019520718953 0
    endloop
  endfacet
  facet normal -0.992033652463136 0.12597314150504454 0
    outer loop
      vertex 0.03221999853849411 0.43320000171661377 2
      vertex 0.8134199976921082 6.585119999945164 2
      vertex 0.03221999853849411 0.43320000171661377 0
    endloop
  endfacet
  facet normal 0 0 1
    outer loop
      vertex 0.03221999853849411 0.43320000171661377 2
      vertex 2.286300003528595 2.304839998483658 2
      vertex 0.8134199976921082 6.585119999945164 2
    endloop
  endfacet
  facet normal -0.992033652463136 0.12597314150504454 -7.191861204136592e-17
    outer loop
      vertex 0.8134199976921082 6.585119999945164 2
      vertex 0.6156223121266102 5.027470820795033 0
      vertex 0.03221999853849411 0.43320000171661377 0
    endloop
  endfacet
  facet normal 0 0 -1
    outer loop
      vertex 0.8134199976921082 6.585119999945164 0
      vertex 0.9509601715225522 4.985107797448095 0
      vertex 0.6156223121266102 5.027470820795033 0
    endloop
  endfacet
  facet normal 0 0 -1
    outer loop
      vertex 0.8134199976921082 6.585119999945164 0
      vertex 1.568261246452858 4.826611820197904 0
      vertex 0.9509601715225522 4.985107797448095 0
    endloop
  endfacet
  facet normal -0.9920336524631359 0.1259731415050445 0
    outer loop
      vertex 0.8134199976921082 6.585119999945164 0
      vertex 0.6156223121266102 5.027470820795033 0
      vertex 0.8134199976921082 6.585119999945164 2
    endloop
  endfacet
  facet normal 0 0 -1
    outer loop
      vertex 0.8134199976921082 6.585119999945164 0
      vertex 5.280900001525879 6.585119999945164 0
      vertex 1.568261246452858 4.826611820197904 0
    endloop
  endfacet
  facet normal 0 1 0
    outer loop
      vertex 0.8134199976921082 6.585119999945164 0
      vertex 0.8134199976921082 6.585119999945164 2
      vertex 5.280900001525879 6.585119999945164 2
    endloop
  endfacet
  facet normal 0 0 -1
    outer loop
      vertex 5.280900001525879 -6.589440003037453 0
      vertex 5.075 0 0
      vertex 5.280900001525879 6.585119999945164 0
    endloop
  endfacet
  facet normal 0 0 -1
    outer loop
      vertex 5.280900001525879 6.585119999945164 0
      vertex 5.075 0 0
      vertex 5.034982109170976 0.6360661603388441 0
    endloop
  endfacet
  facet normal 0 0 -1
    outer loop
      vertex 5.280900001525879 6.585119999945164 0
      vertex 5.034982109170976 0.6360661603388441 0
      vertex 4.915559542727803 1.2621011773616382 0
    endloop
  endfacet
  facet normal 0 0 -1
    outer loop
      vertex 5.280900001525879 6.585119999945164 0
      vertex 4.915559542727803 1.2621011773616382 0
      vertex 4.718615665882876 1.8682321048747408 0
    endloop
  endfacet
  facet normal 0 0 1
    outer loop
      vertex 5.280900001525879 -6.589440003037453 2
      vertex 5.280900001525879 6.585119999945164 2
      vertex 2.286300003528595 2.304839998483658 2
    endloop
  endfacet
  facet normal 1 0 0
    outer loop
      vertex 5.280900001525879 -6.589440003037453 2
      vertex 5.280900001525879 6.585119999945164 0
      vertex 5.280900001525879 6.585119999945164 2
    endloop
  endfacet
  facet normal 0 0 -1
    outer loop
      vertex 5.280900001525879 6.585119999945164 0
      vertex 3.2349267479746007 3.91035470708713 0
      vertex 2.7193209845184083 4.284964221922727 0
    endloop
  endfacet
  facet normal 0 0 -1
    outer loop
      vertex 5.280900001525879 6.585119999945164 0
      vertex 2.160829904692744 4.591997291265049 0
      vertex 1.568261246452858 4.826611820197904 0
    endloop
  endfacet
  facet normal 0 0 -1
    outer loop
      vertex 5.280900001525879 6.585119999945164 0
      vertex 2.7193209845184083 4.284964221922727 0
      vertex 2.160829904692744 4.591997291265049 0
    endloop
  endfacet
  facet normal 0 1 0
    outer loop
      vertex 0.8134199976921082 6.585119999945164 0
      vertex 5.280900001525879 6.585119999945164 2
      vertex 5.280900001525879 6.585119999945164 0
    endloop
  endfacet
  facet normal 0 0 -1
    outer loop
      vertex 5.280900001525879 6.585119999945164 0
      vertex 4.4472564012226075 2.444899896066205 0
      vertex 4.105761246452858 2.983010155384301 0
    endloop
  endfacet
  facet normal 0 0 -1
    outer loop
      vertex 5.280900001525879 6.585119999945164 0
      vertex 3.6995157841636637 3.4740765625880954 0
      vertex 3.2349267479746007 3.91035470708713 0
    endloop
  endfacet
  facet normal 0 0 -1
    outer loop
      vertex 5.280900001525879 6.585119999945164 0
      vertex 4.105761246452858 2.983010155384301 0
      vertex 3.6995157841636637 3.4740765625880954 0
    endloop
  endfacet
  facet normal 0 0 -1
    outer loop
      vertex 5.280900001525879 6.585119999945164 0
      vertex 4.718615665882876 1.8682321048747408 0
      vertex 4.4472564012226075 2.444899896066205 0
    endloop
  endfacet
  facet normal 0 0 1
    outer loop
      vertex 2.286300003528595 2.304839998483658 2
      vertex 5.280900001525879 6.585119999945164 2
      vertex 0.8134199976921082 6.585119999945164 2
    endloop
  endfacet
endsolid OpenSCAD_Model
