solid OpenSCAD_Model
  facet normal 0.996787 0.0627103 -0.0498393
    outer loop
      vertex 6.175 0 -3
      vertex 6.12631 0.773932 -3
      vertex 6.325 0 0
    endloop
  endfacet
  facet normal 0 -0.998757 -0.0498413
    outer loop
      vertex -0.387731 -6.16281 -3
      vertex 0.397149 -6.31252 0
      vertex -0.397149 -6.31252 0
    endloop
  endfacet
  facet normal 0 -0.998757 -0.0498413
    outer loop
      vertex 0.397149 -6.31252 0
      vertex -0.387731 -6.16281 -3
      vertex 0.387731 -6.16281 -3
    endloop
  endfacet
  facet normal 0.996786 -0.0627194 -0.049837
    outer loop
      vertex 6.27512 -0.792732 0
      vertex 6.12631 -0.773932 -3
      vertex 6.325 0 0
    endloop
  endfacet
  facet normal -0.996787 -0.0627103 -0.0498393
    outer loop
      vertex -6.12631 -0.773932 -3
      vertex -6.325 0 0
      vertex -6.175 0 -3
    endloop
  endfacet
  facet normal 0.125176 0.990882 -0.0498413
    outer loop
      vertex 1.15708 6.06562 -3
      vertex 0.387731 6.16281 -3
      vertex 0.397149 6.31252 0
    endloop
  endfacet
  facet normal 0.9037 0.425256 -0.0498405
    outer loop
      vertex 5.74137 2.27317 -3
      vertex 5.54264 3.04709 0
      vertex 5.88084 2.32839 0
    endloop
  endfacet
  facet normal 0.683699 -0.72806 -0.0498399
    outer loop
      vertex 4.61073 -4.32976 0
      vertex 4.03171 -4.8735 0
      vertex 4.50138 -4.22708 -3
    endloop
  endfacet
  facet normal 0.248381 -0.967379 -0.0498396
    outer loop
      vertex 1.95453 -6.01543 0
      vertex 1.15708 -6.06562 -3
      vertex 1.90818 -5.87277 -3
    endloop
  endfacet
  facet normal -0.996786 0.0627194 -0.049837
    outer loop
      vertex -6.12631 0.773932 -3
      vertex -6.325 0 0
      vertex -6.27512 0.792732 0
    endloop
  endfacet
  facet normal 0.683699 0.72806 -0.0498399
    outer loop
      vertex 4.50138 4.22708 -3
      vertex 4.03171 4.8735 0
      vertex 4.61073 4.32976 0
    endloop
  endfacet
  facet normal 0.981068 0.187141 -0.049837
    outer loop
      vertex 6.12631 0.773932 -3
      vertex 6.12629 1.57296 0
      vertex 6.27512 0.792732 0
    endloop
  endfacet
  facet normal 0.9037 -0.425256 -0.0498405
    outer loop
      vertex 5.88084 -2.32839 0
      vertex 5.54264 -3.04709 0
      vertex 5.74137 -2.27317 -3
    endloop
  endfacet
  facet normal 0.769558 -0.636629 -0.0498401
    outer loop
      vertex 4.61073 -4.32976 0
      vertex 4.50138 -4.22708 -3
      vertex 4.99568 -3.62957 -3
    endloop
  endfacet
  facet normal 0.36767 -0.92862 -0.0498363
    outer loop
      vertex 2.62919 -5.58731 -3
      vertex 2.55615 -5.77723 0
      vertex 1.95453 -6.01543 0
    endloop
  endfacet
  facet normal 0.367652 -0.928627 -0.0498372
    outer loop
      vertex 2.55615 -5.77723 0
      vertex 2.62919 -5.58731 -3
      vertex 2.69305 -5.72303 0
    endloop
  endfacet
  facet normal -0.769558 -0.636629 -0.0498401
    outer loop
      vertex -4.61073 -4.32976 0
      vertex -4.99568 -3.62957 -3
      vertex -4.50138 -4.22708 -3
    endloop
  endfacet
  facet normal -0.683699 -0.72806 -0.0498399
    outer loop
      vertex -4.03171 -4.8735 0
      vertex -4.61073 -4.32976 0
      vertex -4.50138 -4.22708 -3
    endloop
  endfacet
  facet normal -0.9037 0.425256 -0.0498405
    outer loop
      vertex -5.74137 2.27317 -3
      vertex -5.88084 2.32839 0
      vertex -5.54264 3.04709 0
    endloop
  endfacet
  facet normal -0 0 1
    outer loop
      vertex -0.397149 6.31252 0
      vertex 0.242554 6.30595 0
      vertex 0.248258 6.31252 0
    endloop
  endfacet
  facet normal 0 0 1
    outer loop
      vertex 0.242554 6.30595 0
      vertex -0.397149 6.31252 0
      vertex -0.181061 5.91652 0
    endloop
  endfacet
  facet normal 0 0 1
    outer loop
      vertex -0.397149 6.31252 0
      vertex -0.651535 5.57126 0
      vertex -0.181061 5.91652 0
    endloop
  endfacet
  facet normal -0 0 1
    outer loop
      vertex -1.18519 6.21297 0
      vertex -0.651535 5.57126 0
      vertex -0.397149 6.31252 0
    endloop
  endfacet
  facet normal 0 0 1
    outer loop
      vertex -0.651535 5.57126 0
      vertex -1.18519 6.21297 0
      vertex -1.16884 5.27019 0
    endloop
  endfacet
  facet normal -0 0 1
    outer loop
      vertex -1.95453 6.01543 0
      vertex -1.16884 5.27019 0
      vertex -1.18519 6.21297 0
    endloop
  endfacet
  facet normal 0 0 1
    outer loop
      vertex -1.16884 5.27019 0
      vertex -1.95453 6.01543 0
      vertex -1.73297 5.01328 0
    endloop
  endfacet
  facet normal -0 0 1
    outer loop
      vertex -2.69305 5.72303 0
      vertex -1.73297 5.01328 0
      vertex -1.95453 6.01543 0
    endloop
  endfacet
  facet normal 0 0 1
    outer loop
      vertex -1.73297 5.01328 0
      vertex -2.69305 5.72303 0
      vertex -2.34393 4.80055 0
    endloop
  endfacet
  facet normal 0 0 1
    outer loop
      vertex -2.69305 5.72303 0
      vertex -3.00174 4.63199 0
      vertex -2.34393 4.80055 0
    endloop
  endfacet
  facet normal -0 0 1
    outer loop
      vertex -4.03171 4.8735 0
      vertex -3.00174 4.63199 0
      vertex -3.3891 5.34037 0
    endloop
  endfacet
  facet normal -0 0 1
    outer loop
      vertex -3.3891 5.34037 0
      vertex -3.00174 4.63199 0
      vertex -2.69305 5.72303 0
    endloop
  endfacet
  facet normal 0 0 1
    outer loop
      vertex -3.00174 3.09395 0
      vertex -0.731461 0.628311 0
      vertex -0.732956 1.04051 0
    endloop
  endfacet
  facet normal 0 0 1
    outer loop
      vertex -2.6763 3.09395 0
      vertex -0.732956 1.04051 0
      vertex -0.737442 1.40288 0
    endloop
  endfacet
  facet normal 0 0 1
    outer loop
      vertex -2.36732 3.09071 0
      vertex -0.737442 1.40288 0
      vertex -0.744904 1.71544 0
    endloop
  endfacet
  facet normal 0 0 1
    outer loop
      vertex -1.84851 3.06482 0
      vertex -0.744904 1.71544 0
      vertex -0.755371 1.97816 0
    endloop
  endfacet
  facet normal 0 0 1
    outer loop
      vertex -1.63869 3.04214 0
      vertex -0.755371 1.97816 0
      vertex -0.768814 2.19109 0
    endloop
  endfacet
  facet normal 0 0 1
    outer loop
      vertex -1.4619 3.01302 0
      vertex -0.768814 2.19109 0
      vertex -0.785248 2.35417 0
    endloop
  endfacet
  facet normal 0 0 1
    outer loop
      vertex -1.11856 2.88692 0
      vertex -0.785248 2.35417 0
      vertex -0.804672 2.46744 0
    endloop
  endfacet
  facet normal 0 0 1
    outer loop
      vertex -1.04007 2.83237 0
      vertex -0.804672 2.46744 0
      vertex -0.830811 2.55272 0
    endloop
  endfacet
  facet normal 0 0 1
    outer loop
      vertex -1.04007 2.83237 0
      vertex -0.830811 2.55272 0
      vertex -0.867432 2.63185 0
    endloop
  endfacet
  facet normal 0 0 1
    outer loop
      vertex -0.972061 2.77167 0
      vertex -0.867432 2.63185 0
      vertex -0.914505 2.70483 0
    endloop
  endfacet
  facet normal 0 0 1
    outer loop
      vertex -1.04007 2.83237 0
      vertex -0.867432 2.63185 0
      vertex -0.972061 2.77167 0
    endloop
  endfacet
  facet normal 0 0 1
    outer loop
      vertex -0.804672 2.46744 0
      vertex -1.04007 2.83237 0
      vertex -1.11856 2.88692 0
    endloop
  endfacet
  facet normal 0 0 1
    outer loop
      vertex -0.785248 2.35417 0
      vertex -1.11856 2.88692 0
      vertex -1.2075 2.93532 0
    endloop
  endfacet
  facet normal 0 0 1
    outer loop
      vertex -0.731461 0.628311 0
      vertex -1.18519 -6.21297 0
      vertex -0.731461 -6.27028 0
    endloop
  endfacet
  facet normal 0 0 1
    outer loop
      vertex -0.785248 2.35417 0
      vertex -1.2075 2.93532 0
      vertex -1.31818 2.9774 0
    endloop
  endfacet
  facet normal 0 0 1
    outer loop
      vertex -0.785248 2.35417 0
      vertex -1.31818 2.9774 0
      vertex -1.4619 3.01302 0
    endloop
  endfacet
  facet normal 0 0 1
    outer loop
      vertex -0.768814 2.19109 0
      vertex -1.4619 3.01302 0
      vertex -1.63869 3.04214 0
    endloop
  endfacet
  facet normal 0 0 1
    outer loop
      vertex -0.755371 1.97816 0
      vertex -1.63869 3.04214 0
      vertex -1.84851 3.06482 0
    endloop
  endfacet
  facet normal 0 0 1
    outer loop
      vertex -0.744904 1.71544 0
      vertex -1.84851 3.06482 0
      vertex -2.09138 3.08101 0
    endloop
  endfacet
  facet normal 0 0 1
    outer loop
      vertex -0.731461 0.628311 0
      vertex -1.95453 -6.01543 0
      vertex -1.18519 -6.21297 0
    endloop
  endfacet
  facet normal 0 0 1
    outer loop
      vertex -0.744904 1.71544 0
      vertex -2.09138 3.08101 0
      vertex -2.36732 3.09071 0
    endloop
  endfacet
  facet normal 0 0 1
    outer loop
      vertex -0.737442 1.40288 0
      vertex -2.36732 3.09071 0
      vertex -2.6763 3.09395 0
    endloop
  endfacet
  facet normal 0 0 1
    outer loop
      vertex -0.732956 1.04051 0
      vertex -2.6763 3.09395 0
      vertex -3.00174 3.09395 0
    endloop
  endfacet
  facet normal 0 0 1
    outer loop
      vertex -0.731461 0.628311 0
      vertex -2.69305 -5.72303 0
      vertex -1.95453 -6.01543 0
    endloop
  endfacet
  facet normal 0 0 1
    outer loop
      vertex -0.731461 0.628311 0
      vertex -3.00174 3.09395 0
      vertex -6.27512 0.792732 0
    endloop
  endfacet
  facet normal 0 0 1
    outer loop
      vertex -4.61073 4.32976 0
      vertex -3.00174 4.63199 0
      vertex -4.03171 4.8735 0
    endloop
  endfacet
  facet normal 0 0 1
    outer loop
      vertex -0.731461 0.628311 0
      vertex -3.3891 -5.34037 0
      vertex -2.69305 -5.72303 0
    endloop
  endfacet
  facet normal 0 0 1
    outer loop
      vertex -3.00174 4.63199 0
      vertex -4.61073 4.32976 0
      vertex -3.00174 3.09395 0
    endloop
  endfacet
  facet normal 0 0 1
    outer loop
      vertex -0.731461 0.628311 0
      vertex -4.03171 -4.8735 0
      vertex -3.3891 -5.34037 0
    endloop
  endfacet
  facet normal -0 0 1
    outer loop
      vertex -5.11703 3.71774 0
      vertex -3.00174 3.09395 0
      vertex -4.61073 4.32976 0
    endloop
  endfacet
  facet normal 0 0 1
    outer loop
      vertex -0.731461 0.628311 0
      vertex -4.61073 -4.32976 0
      vertex -4.03171 -4.8735 0
    endloop
  endfacet
  facet normal 0 0 1
    outer loop
      vertex -5.54264 3.04709 0
      vertex -3.00174 3.09395 0
      vertex -5.11703 3.71774 0
    endloop
  endfacet
  facet normal 0 0 1
    outer loop
      vertex -0.731461 0.628311 0
      vertex -5.11703 -3.71774 0
      vertex -4.61073 -4.32976 0
    endloop
  endfacet
  facet normal 0 0 1
    outer loop
      vertex -5.88084 2.32839 0
      vertex -3.00174 3.09395 0
      vertex -5.54264 3.04709 0
    endloop
  endfacet
  facet normal 0 0 1
    outer loop
      vertex -0.731461 0.628311 0
      vertex -5.54264 -3.04709 0
      vertex -5.11703 -3.71774 0
    endloop
  endfacet
  facet normal 0 0 1
    outer loop
      vertex -6.12629 1.57296 0
      vertex -3.00174 3.09395 0
      vertex -5.88084 2.32839 0
    endloop
  endfacet
  facet normal 0 0 1
    outer loop
      vertex -0.731461 0.628311 0
      vertex -5.88084 -2.32839 0
      vertex -5.54264 -3.04709 0
    endloop
  endfacet
  facet normal 0 0 1
    outer loop
      vertex -6.27512 0.792732 0
      vertex -3.00174 3.09395 0
      vertex -6.12629 1.57296 0
    endloop
  endfacet
  facet normal 0 0 1
    outer loop
      vertex -0.731461 0.628311 0
      vertex -6.12629 -1.57296 0
      vertex -5.88084 -2.32839 0
    endloop
  endfacet
  facet normal 0 0 1
    outer loop
      vertex -0.731461 0.628311 0
      vertex -6.27512 0.792732 0
      vertex -6.325 0 0
    endloop
  endfacet
  facet normal 0 0 1
    outer loop
      vertex -0.731461 0.628311 0
      vertex -6.27512 -0.792732 0
      vertex -6.12629 -1.57296 0
    endloop
  endfacet
  facet normal 0 0 1
    outer loop
      vertex -0.731461 0.628311 0
      vertex -6.325 0 0
      vertex -6.27512 -0.792732 0
    endloop
  endfacet
  facet normal 0 0 -1
    outer loop
      vertex 1.95453 6.01543 0
      vertex 2.55615 6.73955 0
      vertex 2.55615 5.77723 0
    endloop
  endfacet
  facet normal 0 0 -1
    outer loop
      vertex 1.18519 6.21297 0
      vertex 2.55615 6.73955 0
      vertex 1.95453 6.01543 0
    endloop
  endfacet
  facet normal 0 0 -1
    outer loop
      vertex 1.18519 6.21297 0
      vertex 0.619354 6.73955 0
      vertex 2.55615 6.73955 0
    endloop
  endfacet
  facet normal 0 0 -1
    outer loop
      vertex 0.397149 6.31252 0
      vertex 0.619354 6.73955 0
      vertex 1.18519 6.21297 0
    endloop
  endfacet
  facet normal 0 0 -1
    outer loop
      vertex 0.619354 6.73955 0
      vertex 0.397149 6.31252 0
      vertex 0.248258 6.31252 0
    endloop
  endfacet
  facet normal 0 0 -1
    outer loop
      vertex 2.55615 -6.435 0
      vertex 1.95453 -6.01543 0
      vertex 2.55615 -5.77723 0
    endloop
  endfacet
  facet normal 0 0 -1
    outer loop
      vertex 2.55615 -6.435 0
      vertex 1.18519 -6.21297 0
      vertex 1.95453 -6.01543 0
    endloop
  endfacet
  facet normal 0 0 -1
    outer loop
      vertex 2.55615 -6.435 0
      vertex 0.397149 -6.31252 0
      vertex 1.18519 -6.21297 0
    endloop
  endfacet
  facet normal 0 0 -1
    outer loop
      vertex -0.731461 -6.435 0
      vertex 0.397149 -6.31252 0
      vertex 2.55615 -6.435 0
    endloop
  endfacet
  facet normal -0 0 -1
    outer loop
      vertex 0.397149 -6.31252 0
      vertex -0.731461 -6.435 0
      vertex -0.397149 -6.31252 0
    endloop
  endfacet
  facet normal -0 0 -1
    outer loop
      vertex -0.397149 -6.31252 0
      vertex -0.731461 -6.435 0
      vertex -0.731461 -6.27028 0
    endloop
  endfacet
  facet normal 0 0 1
    outer loop
      vertex 6.27512 0.792732 0
      vertex 6.27512 -0.792732 0
      vertex 6.325 0 0
    endloop
  endfacet
  facet normal 0 0 1
    outer loop
      vertex 6.12629 1.57296 0
      vertex 6.27512 -0.792732 0
      vertex 6.27512 0.792732 0
    endloop
  endfacet
  facet normal 0 0 1
    outer loop
      vertex 6.12629 1.57296 0
      vertex 6.12629 -1.57296 0
      vertex 6.27512 -0.792732 0
    endloop
  endfacet
  facet normal 0 0 1
    outer loop
      vertex 5.88084 2.32839 0
      vertex 6.12629 -1.57296 0
      vertex 6.12629 1.57296 0
    endloop
  endfacet
  facet normal 0 0 1
    outer loop
      vertex 5.88084 2.32839 0
      vertex 5.88084 -2.32839 0
      vertex 6.12629 -1.57296 0
    endloop
  endfacet
  facet normal 0 0 1
    outer loop
      vertex 5.54264 3.04709 0
      vertex 5.88084 -2.32839 0
      vertex 5.88084 2.32839 0
    endloop
  endfacet
  facet normal 0 0 1
    outer loop
      vertex 5.54264 3.04709 0
      vertex 5.54264 -3.04709 0
      vertex 5.88084 -2.32839 0
    endloop
  endfacet
  facet normal 0 0 1
    outer loop
      vertex 5.11703 3.71774 0
      vertex 5.54264 -3.04709 0
      vertex 5.54264 3.04709 0
    endloop
  endfacet
  facet normal 0 0 1
    outer loop
      vertex 5.11703 3.71774 0
      vertex 5.11703 -3.71774 0
      vertex 5.54264 -3.04709 0
    endloop
  endfacet
  facet normal 0 0 1
    outer loop
      vertex 4.61073 4.32976 0
      vertex 5.11703 -3.71774 0
      vertex 5.11703 3.71774 0
    endloop
  endfacet
  facet normal 0 0 1
    outer loop
      vertex 4.61073 4.32976 0
      vertex 4.61073 -4.32976 0
      vertex 5.11703 -3.71774 0
    endloop
  endfacet
  facet normal 0 0 1
    outer loop
      vertex 4.03171 4.8735 0
      vertex 4.61073 -4.32976 0
      vertex 4.61073 4.32976 0
    endloop
  endfacet
  facet normal 0 0 1
    outer loop
      vertex 4.03171 4.8735 0
      vertex 4.03171 -4.8735 0
      vertex 4.61073 -4.32976 0
    endloop
  endfacet
  facet normal 0 0 1
    outer loop
      vertex 3.3891 5.34037 0
      vertex 4.03171 -4.8735 0
      vertex 4.03171 4.8735 0
    endloop
  endfacet
  facet normal 0 0 1
    outer loop
      vertex 3.3891 5.34037 0
      vertex 3.3891 -5.34037 0
      vertex 4.03171 -4.8735 0
    endloop
  endfacet
  facet normal 0 0 1
    outer loop
      vertex 2.55615 5.77723 0
      vertex 3.3891 5.34037 0
      vertex 2.69305 5.72303 0
    endloop
  endfacet
  facet normal 0 0 1
    outer loop
      vertex 3.3891 5.34037 0
      vertex 2.55615 5.77723 0
      vertex 3.3891 -5.34037 0
    endloop
  endfacet
  facet normal 0 0 1
    outer loop
      vertex 2.55615 -5.77723 0
      vertex 3.3891 -5.34037 0
      vertex 2.55615 5.77723 0
    endloop
  endfacet
  facet normal 0 0 1
    outer loop
      vertex 3.3891 -5.34037 0
      vertex 2.55615 -5.77723 0
      vertex 2.69305 -5.72303 0
    endloop
  endfacet
  facet normal 0 0.998757 -0.0498413
    outer loop
      vertex 0.387731 6.16281 -3
      vertex 0.248258 6.31252 0
      vertex 0.397149 6.31252 0
    endloop
  endfacet
  facet normal 0 0.998757 -0.0498413
    outer loop
      vertex -0.387731 6.16281 -3
      vertex 0.248258 6.31252 0
      vertex 0.387731 6.16281 -3
    endloop
  endfacet
  facet normal 0 0.998757 -0.0498413
    outer loop
      vertex 0.248258 6.31252 0
      vertex -0.387731 6.16281 -3
      vertex -0.397149 6.31252 0
    endloop
  endfacet
  facet normal -0.683694 0.728064 -0.0498415
    outer loop
      vertex -3.93609 4.75792 -3
      vertex -4.50138 4.22708 -3
      vertex -4.03171 4.8735 0
    endloop
  endfacet
  facet normal 0.248381 0.967379 -0.0498396
    outer loop
      vertex 1.90818 5.87277 -3
      vertex 1.15708 6.06562 -3
      vertex 1.95453 6.01543 0
    endloop
  endfacet
  facet normal 0.367652 0.928627 -0.0498372
    outer loop
      vertex 2.62919 5.58731 -3
      vertex 2.55615 5.77723 0
      vertex 2.69305 5.72303 0
    endloop
  endfacet
  facet normal 0.36767 0.92862 -0.0498363
    outer loop
      vertex 2.55615 5.77723 0
      vertex 2.62919 5.58731 -3
      vertex 1.95453 6.01543 0
    endloop
  endfacet
  facet normal 0.76956 0.636627 -0.0498392
    outer loop
      vertex 4.99568 3.62957 -3
      vertex 4.61073 4.32976 0
      vertex 5.11703 3.71774 0
    endloop
  endfacet
  facet normal 0.996786 0.0627194 -0.049837
    outer loop
      vertex 6.325 0 0
      vertex 6.12631 0.773932 -3
      vertex 6.27512 0.792732 0
    endloop
  endfacet
  facet normal 0.981068 -0.187141 -0.049837
    outer loop
      vertex 6.27512 -0.792732 0
      vertex 6.12629 -1.57296 0
      vertex 6.12631 -0.773932 -3
    endloop
  endfacet
  facet normal 0.981066 -0.187152 -0.0498399
    outer loop
      vertex 6.12629 -1.57296 0
      vertex 5.981 -1.53566 -3
      vertex 6.12631 -0.773932 -3
    endloop
  endfacet
  facet normal 0.949875 -0.308631 -0.0498398
    outer loop
      vertex 6.12629 -1.57296 0
      vertex 5.74137 -2.27317 -3
      vertex 5.981 -1.53566 -3
    endloop
  endfacet
  facet normal 0.949876 -0.308628 -0.0498406
    outer loop
      vertex 5.88084 -2.32839 0
      vertex 5.74137 -2.27317 -3
      vertex 6.12629 -1.57296 0
    endloop
  endfacet
  facet normal 0.843279 -0.53516 -0.0498399
    outer loop
      vertex 5.54264 -3.04709 0
      vertex 4.99568 -3.62957 -3
      vertex 5.41119 -2.97483 -3
    endloop
  endfacet
  facet normal 0.587044 -0.80802 -0.0498388
    outer loop
      vertex 3.3891 -5.34037 0
      vertex 3.30873 -5.21372 -3
      vertex 4.03171 -4.8735 0
    endloop
  endfacet
  facet normal 0.481165 -0.875212 -0.0498389
    outer loop
      vertex 3.3891 -5.34037 0
      vertex 2.62919 -5.58731 -3
      vertex 3.30873 -5.21372 -3
    endloop
  endfacet
  facet normal -0.481158 -0.875216 -0.049837
    outer loop
      vertex -2.69305 -5.72303 0
      vertex -3.3891 -5.34037 0
      vertex -2.62919 -5.58731 -3
    endloop
  endfacet
  facet normal -0.843279 -0.53516 -0.0498399
    outer loop
      vertex -4.99568 -3.62957 -3
      vertex -5.54264 -3.04709 0
      vertex -5.41119 -2.97483 -3
    endloop
  endfacet
  facet normal -0.981068 0.187141 -0.049837
    outer loop
      vertex -6.12631 0.773932 -3
      vertex -6.27512 0.792732 0
      vertex -6.12629 1.57296 0
    endloop
  endfacet
  facet normal -0.981066 0.187152 -0.0498399
    outer loop
      vertex -5.981 1.53566 -3
      vertex -6.12631 0.773932 -3
      vertex -6.12629 1.57296 0
    endloop
  endfacet
  facet normal -0.367666 0.928621 -0.0498372
    outer loop
      vertex -2.62919 5.58731 -3
      vertex -2.69305 5.72303 0
      vertex -1.95453 6.01543 0
    endloop
  endfacet
  facet normal -0.949875 0.308631 -0.0498398
    outer loop
      vertex -5.981 1.53566 -3
      vertex -6.12629 1.57296 0
      vertex -5.74137 2.27317 -3
    endloop
  endfacet
  facet normal -0.949876 0.308628 -0.0498406
    outer loop
      vertex -5.74137 2.27317 -3
      vertex -6.12629 1.57296 0
      vertex -5.88084 2.32839 0
    endloop
  endfacet
  facet normal -0.843279 0.53516 -0.0498399
    outer loop
      vertex -5.41119 2.97483 -3
      vertex -5.54264 3.04709 0
      vertex -4.99568 3.62957 -3
    endloop
  endfacet
  facet normal 0.248389 0.967377 -0.0498417
    outer loop
      vertex 1.95453 6.01543 0
      vertex 1.15708 6.06562 -3
      vertex 1.18519 6.21297 0
    endloop
  endfacet
  facet normal 0.125174 0.990882 -0.0498417
    outer loop
      vertex 1.15708 6.06562 -3
      vertex 0.397149 6.31252 0
      vertex 1.18519 6.21297 0
    endloop
  endfacet
  facet normal 0.481158 0.875216 -0.049837
    outer loop
      vertex 3.3891 5.34037 0
      vertex 2.62919 5.58731 -3
      vertex 2.69305 5.72303 0
    endloop
  endfacet
  facet normal 0.367658 0.928625 -0.0498395
    outer loop
      vertex 2.62919 5.58731 -3
      vertex 1.90818 5.87277 -3
      vertex 1.95453 6.01543 0
    endloop
  endfacet
  facet normal 0.949876 0.308628 -0.0498406
    outer loop
      vertex 6.12629 1.57296 0
      vertex 5.74137 2.27317 -3
      vertex 5.88084 2.32839 0
    endloop
  endfacet
  facet normal 0.843277 0.535163 -0.049839
    outer loop
      vertex 5.54264 3.04709 0
      vertex 4.99568 3.62957 -3
      vertex 5.11703 3.71774 0
    endloop
  endfacet
  facet normal 0.903701 0.425254 -0.0498401
    outer loop
      vertex 5.74137 2.27317 -3
      vertex 5.41119 2.97483 -3
      vertex 5.54264 3.04709 0
    endloop
  endfacet
  facet normal 0.996787 -0.0627103 -0.0498393
    outer loop
      vertex 6.325 0 0
      vertex 6.12631 -0.773932 -3
      vertex 6.175 0 -3
    endloop
  endfacet
  facet normal 0.76956 -0.636627 -0.0498392
    outer loop
      vertex 5.11703 -3.71774 0
      vertex 4.61073 -4.32976 0
      vertex 4.99568 -3.62957 -3
    endloop
  endfacet
  facet normal 0.843277 -0.535163 -0.049839
    outer loop
      vertex 5.11703 -3.71774 0
      vertex 4.99568 -3.62957 -3
      vertex 5.54264 -3.04709 0
    endloop
  endfacet
  facet normal 0.903701 -0.425254 -0.0498401
    outer loop
      vertex 5.54264 -3.04709 0
      vertex 5.41119 -2.97483 -3
      vertex 5.74137 -2.27317 -3
    endloop
  endfacet
  facet normal 0.367658 -0.928625 -0.0498395
    outer loop
      vertex 1.95453 -6.01543 0
      vertex 1.90818 -5.87277 -3
      vertex 2.62919 -5.58731 -3
    endloop
  endfacet
  facet normal 0.125174 -0.990882 -0.0498417
    outer loop
      vertex 1.18519 -6.21297 0
      vertex 0.397149 -6.31252 0
      vertex 1.15708 -6.06562 -3
    endloop
  endfacet
  facet normal 0.248389 -0.967377 -0.0498417
    outer loop
      vertex 1.18519 -6.21297 0
      vertex 1.15708 -6.06562 -3
      vertex 1.95453 -6.01543 0
    endloop
  endfacet
  facet normal 0.125176 -0.990882 -0.0498413
    outer loop
      vertex 0.397149 -6.31252 0
      vertex 0.387731 -6.16281 -3
      vertex 1.15708 -6.06562 -3
    endloop
  endfacet
  facet normal 0.481158 -0.875216 -0.049837
    outer loop
      vertex 2.69305 -5.72303 0
      vertex 2.62919 -5.58731 -3
      vertex 3.3891 -5.34037 0
    endloop
  endfacet
  facet normal 0.587052 -0.808014 -0.0498414
    outer loop
      vertex 4.03171 -4.8735 0
      vertex 3.30873 -5.21372 -3
      vertex 3.93609 -4.75792 -3
    endloop
  endfacet
  facet normal 0 0 -1
    outer loop
      vertex 6.12631 -0.773932 -3
      vertex 6.12631 0.773932 -3
      vertex 6.175 0 -3
    endloop
  endfacet
  facet normal 0 0 -1
    outer loop
      vertex 5.981 -1.53566 -3
      vertex 6.12631 0.773932 -3
      vertex 6.12631 -0.773932 -3
    endloop
  endfacet
  facet normal 0 0 -1
    outer loop
      vertex 5.981 -1.53566 -3
      vertex 5.981 1.53566 -3
      vertex 6.12631 0.773932 -3
    endloop
  endfacet
  facet normal 0 0 -1
    outer loop
      vertex 5.74137 -2.27317 -3
      vertex 5.981 1.53566 -3
      vertex 5.981 -1.53566 -3
    endloop
  endfacet
  facet normal 0 0 -1
    outer loop
      vertex 5.74137 -2.27317 -3
      vertex 5.74137 2.27317 -3
      vertex 5.981 1.53566 -3
    endloop
  endfacet
  facet normal 0 0 -1
    outer loop
      vertex 5.41119 -2.97483 -3
      vertex 5.74137 2.27317 -3
      vertex 5.74137 -2.27317 -3
    endloop
  endfacet
  facet normal 0 0 -1
    outer loop
      vertex 5.41119 -2.97483 -3
      vertex 5.41119 2.97483 -3
      vertex 5.74137 2.27317 -3
    endloop
  endfacet
  facet normal 0 0 -1
    outer loop
      vertex 4.99568 -3.62957 -3
      vertex 5.41119 2.97483 -3
      vertex 5.41119 -2.97483 -3
    endloop
  endfacet
  facet normal 0 0 -1
    outer loop
      vertex 4.99568 -3.62957 -3
      vertex 4.99568 3.62957 -3
      vertex 5.41119 2.97483 -3
    endloop
  endfacet
  facet normal 0 0 -1
    outer loop
      vertex 4.50138 -4.22708 -3
      vertex 4.99568 3.62957 -3
      vertex 4.99568 -3.62957 -3
    endloop
  endfacet
  facet normal 0 0 -1
    outer loop
      vertex 4.50138 -4.22708 -3
      vertex 4.50138 4.22708 -3
      vertex 4.99568 3.62957 -3
    endloop
  endfacet
  facet normal 0 0 -1
    outer loop
      vertex 3.93609 -4.75792 -3
      vertex 4.50138 4.22708 -3
      vertex 4.50138 -4.22708 -3
    endloop
  endfacet
  facet normal 0 0 -1
    outer loop
      vertex 3.93609 -4.75792 -3
      vertex 3.93609 4.75792 -3
      vertex 4.50138 4.22708 -3
    endloop
  endfacet
  facet normal 0 0 -1
    outer loop
      vertex 3.30873 -5.21372 -3
      vertex 3.93609 4.75792 -3
      vertex 3.93609 -4.75792 -3
    endloop
  endfacet
  facet normal 0 0 -1
    outer loop
      vertex 3.30873 -5.21372 -3
      vertex 3.30873 5.21372 -3
      vertex 3.93609 4.75792 -3
    endloop
  endfacet
  facet normal 0 0 -1
    outer loop
      vertex 2.62919 -5.58731 -3
      vertex 3.30873 5.21372 -3
      vertex 3.30873 -5.21372 -3
    endloop
  endfacet
  facet normal 0 0 -1
    outer loop
      vertex 2.62919 -5.58731 -3
      vertex 2.62919 5.58731 -3
      vertex 3.30873 5.21372 -3
    endloop
  endfacet
  facet normal 0 0 -1
    outer loop
      vertex 1.90818 -5.87277 -3
      vertex 2.62919 5.58731 -3
      vertex 2.62919 -5.58731 -3
    endloop
  endfacet
  facet normal 0 0 -1
    outer loop
      vertex 1.90818 -5.87277 -3
      vertex 1.90818 5.87277 -3
      vertex 2.62919 5.58731 -3
    endloop
  endfacet
  facet normal 0 0 -1
    outer loop
      vertex 1.15708 -6.06562 -3
      vertex 1.90818 5.87277 -3
      vertex 1.90818 -5.87277 -3
    endloop
  endfacet
  facet normal 0 0 -1
    outer loop
      vertex 1.15708 -6.06562 -3
      vertex 1.15708 6.06562 -3
      vertex 1.90818 5.87277 -3
    endloop
  endfacet
  facet normal 0 0 -1
    outer loop
      vertex 0.387731 -6.16281 -3
      vertex 1.15708 6.06562 -3
      vertex 1.15708 -6.06562 -3
    endloop
  endfacet
  facet normal 0 0 -1
    outer loop
      vertex 0.387731 -6.16281 -3
      vertex 0.387731 6.16281 -3
      vertex 1.15708 6.06562 -3
    endloop
  endfacet
  facet normal 0 0 -1
    outer loop
      vertex -0.387731 -6.16281 -3
      vertex 0.387731 6.16281 -3
      vertex 0.387731 -6.16281 -3
    endloop
  endfacet
  facet normal 0 0 -1
    outer loop
      vertex -0.387731 -6.16281 -3
      vertex -0.387731 6.16281 -3
      vertex 0.387731 6.16281 -3
    endloop
  endfacet
  facet normal 0 0 -1
    outer loop
      vertex -1.15708 -6.06562 -3
      vertex -0.387731 6.16281 -3
      vertex -0.387731 -6.16281 -3
    endloop
  endfacet
  facet normal 0 0 -1
    outer loop
      vertex -1.15708 -6.06562 -3
      vertex -1.15708 6.06562 -3
      vertex -0.387731 6.16281 -3
    endloop
  endfacet
  facet normal 0 0 -1
    outer loop
      vertex -1.90818 -5.87277 -3
      vertex -1.15708 6.06562 -3
      vertex -1.15708 -6.06562 -3
    endloop
  endfacet
  facet normal 0 0 -1
    outer loop
      vertex -1.90818 -5.87277 -3
      vertex -1.90818 5.87277 -3
      vertex -1.15708 6.06562 -3
    endloop
  endfacet
  facet normal 0 0 -1
    outer loop
      vertex -2.62919 -5.58731 -3
      vertex -1.90818 5.87277 -3
      vertex -1.90818 -5.87277 -3
    endloop
  endfacet
  facet normal 0 0 -1
    outer loop
      vertex -2.62919 -5.58731 -3
      vertex -2.62919 5.58731 -3
      vertex -1.90818 5.87277 -3
    endloop
  endfacet
  facet normal 0 0 -1
    outer loop
      vertex -3.30873 -5.21372 -3
      vertex -2.62919 5.58731 -3
      vertex -2.62919 -5.58731 -3
    endloop
  endfacet
  facet normal 0 0 -1
    outer loop
      vertex -3.30873 -5.21372 -3
      vertex -3.30873 5.21372 -3
      vertex -2.62919 5.58731 -3
    endloop
  endfacet
  facet normal 0 0 -1
    outer loop
      vertex -3.93609 -4.75792 -3
      vertex -3.30873 5.21372 -3
      vertex -3.30873 -5.21372 -3
    endloop
  endfacet
  facet normal 0 0 -1
    outer loop
      vertex -3.93609 -4.75792 -3
      vertex -3.93609 4.75792 -3
      vertex -3.30873 5.21372 -3
    endloop
  endfacet
  facet normal 0 0 -1
    outer loop
      vertex -4.50138 -4.22708 -3
      vertex -3.93609 4.75792 -3
      vertex -3.93609 -4.75792 -3
    endloop
  endfacet
  facet normal 0 0 -1
    outer loop
      vertex -4.50138 -4.22708 -3
      vertex -4.50138 4.22708 -3
      vertex -3.93609 4.75792 -3
    endloop
  endfacet
  facet normal 0 0 -1
    outer loop
      vertex -4.99568 -3.62957 -3
      vertex -4.50138 4.22708 -3
      vertex -4.50138 -4.22708 -3
    endloop
  endfacet
  facet normal 0 0 -1
    outer loop
      vertex -4.99568 -3.62957 -3
      vertex -4.99568 3.62957 -3
      vertex -4.50138 4.22708 -3
    endloop
  endfacet
  facet normal 0 0 -1
    outer loop
      vertex -5.41119 -2.97483 -3
      vertex -4.99568 3.62957 -3
      vertex -4.99568 -3.62957 -3
    endloop
  endfacet
  facet normal 0 0 -1
    outer loop
      vertex -5.41119 -2.97483 -3
      vertex -5.41119 2.97483 -3
      vertex -4.99568 3.62957 -3
    endloop
  endfacet
  facet normal 0 0 -1
    outer loop
      vertex -5.74137 -2.27317 -3
      vertex -5.41119 2.97483 -3
      vertex -5.41119 -2.97483 -3
    endloop
  endfacet
  facet normal 0 0 -1
    outer loop
      vertex -5.74137 -2.27317 -3
      vertex -5.74137 2.27317 -3
      vertex -5.41119 2.97483 -3
    endloop
  endfacet
  facet normal 0 0 -1
    outer loop
      vertex -5.981 -1.53566 -3
      vertex -5.74137 2.27317 -3
      vertex -5.74137 -2.27317 -3
    endloop
  endfacet
  facet normal 0 0 -1
    outer loop
      vertex -5.981 -1.53566 -3
      vertex -5.981 1.53566 -3
      vertex -5.74137 2.27317 -3
    endloop
  endfacet
  facet normal 0 0 -1
    outer loop
      vertex -6.12631 -0.773932 -3
      vertex -5.981 1.53566 -3
      vertex -5.981 -1.53566 -3
    endloop
  endfacet
  facet normal 0 0 -1
    outer loop
      vertex -6.12631 -0.773932 -3
      vertex -6.12631 0.773932 -3
      vertex -5.981 1.53566 -3
    endloop
  endfacet
  facet normal 0 -0 -1
    outer loop
      vertex -6.12631 0.773932 -3
      vertex -6.12631 -0.773932 -3
      vertex -6.175 0 -3
    endloop
  endfacet
  facet normal -0.367666 -0.928621 -0.0498372
    outer loop
      vertex -1.95453 -6.01543 0
      vertex -2.69305 -5.72303 0
      vertex -2.62919 -5.58731 -3
    endloop
  endfacet
  facet normal -0.683694 -0.728064 -0.0498415
    outer loop
      vertex -4.03171 -4.8735 0
      vertex -4.50138 -4.22708 -3
      vertex -3.93609 -4.75792 -3
    endloop
  endfacet
  facet normal -0.9037 -0.425256 -0.0498405
    outer loop
      vertex -5.54264 -3.04709 0
      vertex -5.88084 -2.32839 0
      vertex -5.74137 -2.27317 -3
    endloop
  endfacet
  facet normal -0.949876 -0.308628 -0.0498406
    outer loop
      vertex -5.88084 -2.32839 0
      vertex -6.12629 -1.57296 0
      vertex -5.74137 -2.27317 -3
    endloop
  endfacet
  facet normal -0.981066 -0.187152 -0.0498399
    outer loop
      vertex -6.12629 -1.57296 0
      vertex -6.12631 -0.773932 -3
      vertex -5.981 -1.53566 -3
    endloop
  endfacet
  facet normal -0.125176 0.990882 -0.0498413
    outer loop
      vertex -0.387731 6.16281 -3
      vertex -1.15708 6.06562 -3
      vertex -0.397149 6.31252 0
    endloop
  endfacet
  facet normal -0.481158 0.875216 -0.049837
    outer loop
      vertex -2.62919 5.58731 -3
      vertex -3.3891 5.34037 0
      vertex -2.69305 5.72303 0
    endloop
  endfacet
  facet normal -0.996787 0.0627103 -0.0498393
    outer loop
      vertex -6.175 0 -3
      vertex -6.325 0 0
      vertex -6.12631 0.773932 -3
    endloop
  endfacet
  facet normal -0.76956 0.636627 -0.0498392
    outer loop
      vertex -4.99568 3.62957 -3
      vertex -5.11703 3.71774 0
      vertex -4.61073 4.32976 0
    endloop
  endfacet
  facet normal -0.843277 0.535163 -0.049839
    outer loop
      vertex -4.99568 3.62957 -3
      vertex -5.54264 3.04709 0
      vertex -5.11703 3.71774 0
    endloop
  endfacet
  facet normal -0.769558 0.636629 -0.0498401
    outer loop
      vertex -4.50138 4.22708 -3
      vertex -4.99568 3.62957 -3
      vertex -4.61073 4.32976 0
    endloop
  endfacet
  facet normal -0.683699 0.72806 -0.0498399
    outer loop
      vertex -4.50138 4.22708 -3
      vertex -4.61073 4.32976 0
      vertex -4.03171 4.8735 0
    endloop
  endfacet
  facet normal -0.903701 0.425254 -0.0498401
    outer loop
      vertex -5.41119 2.97483 -3
      vertex -5.74137 2.27317 -3
      vertex -5.54264 3.04709 0
    endloop
  endfacet
  facet normal 0.481165 0.875212 -0.0498389
    outer loop
      vertex 3.30873 5.21372 -3
      vertex 2.62919 5.58731 -3
      vertex 3.3891 5.34037 0
    endloop
  endfacet
  facet normal 0.587044 0.80802 -0.0498388
    outer loop
      vertex 4.03171 4.8735 0
      vertex 3.30873 5.21372 -3
      vertex 3.3891 5.34037 0
    endloop
  endfacet
  facet normal 0.769558 0.636629 -0.0498401
    outer loop
      vertex 4.99568 3.62957 -3
      vertex 4.50138 4.22708 -3
      vertex 4.61073 4.32976 0
    endloop
  endfacet
  facet normal 0.949875 0.308631 -0.0498398
    outer loop
      vertex 5.981 1.53566 -3
      vertex 5.74137 2.27317 -3
      vertex 6.12629 1.57296 0
    endloop
  endfacet
  facet normal 0.981066 0.187152 -0.0498399
    outer loop
      vertex 6.12631 0.773932 -3
      vertex 5.981 1.53566 -3
      vertex 6.12629 1.57296 0
    endloop
  endfacet
  facet normal 0.683694 -0.728064 -0.0498415
    outer loop
      vertex 4.03171 -4.8735 0
      vertex 3.93609 -4.75792 -3
      vertex 4.50138 -4.22708 -3
    endloop
  endfacet
  facet normal -0.981068 -0.187141 -0.049837
    outer loop
      vertex -6.12629 -1.57296 0
      vertex -6.27512 -0.792732 0
      vertex -6.12631 -0.773932 -3
    endloop
  endfacet
  facet normal -0.996786 -0.0627194 -0.049837
    outer loop
      vertex -6.27512 -0.792732 0
      vertex -6.325 0 0
      vertex -6.12631 -0.773932 -3
    endloop
  endfacet
  facet normal -0.481165 -0.875212 -0.0498389
    outer loop
      vertex -2.62919 -5.58731 -3
      vertex -3.3891 -5.34037 0
      vertex -3.30873 -5.21372 -3
    endloop
  endfacet
  facet normal -0.587044 -0.80802 -0.0498388
    outer loop
      vertex -3.3891 -5.34037 0
      vertex -4.03171 -4.8735 0
      vertex -3.30873 -5.21372 -3
    endloop
  endfacet
  facet normal -0.587052 -0.808014 -0.0498414
    outer loop
      vertex -3.30873 -5.21372 -3
      vertex -4.03171 -4.8735 0
      vertex -3.93609 -4.75792 -3
    endloop
  endfacet
  facet normal -0.843277 -0.535163 -0.049839
    outer loop
      vertex -5.11703 -3.71774 0
      vertex -5.54264 -3.04709 0
      vertex -4.99568 -3.62957 -3
    endloop
  endfacet
  facet normal -0.76956 -0.636627 -0.0498392
    outer loop
      vertex -4.61073 -4.32976 0
      vertex -5.11703 -3.71774 0
      vertex -4.99568 -3.62957 -3
    endloop
  endfacet
  facet normal -0.903701 -0.425254 -0.0498401
    outer loop
      vertex -5.54264 -3.04709 0
      vertex -5.74137 -2.27317 -3
      vertex -5.41119 -2.97483 -3
    endloop
  endfacet
  facet normal -0.125174 0.990882 -0.0498417
    outer loop
      vertex -1.15708 6.06562 -3
      vertex -1.18519 6.21297 0
      vertex -0.397149 6.31252 0
    endloop
  endfacet
  facet normal -0.248389 0.967377 -0.0498417
    outer loop
      vertex -1.15708 6.06562 -3
      vertex -1.95453 6.01543 0
      vertex -1.18519 6.21297 0
    endloop
  endfacet
  facet normal -0.587044 0.80802 -0.0498388
    outer loop
      vertex -3.30873 5.21372 -3
      vertex -4.03171 4.8735 0
      vertex -3.3891 5.34037 0
    endloop
  endfacet
  facet normal -0.481165 0.875212 -0.0498389
    outer loop
      vertex -3.30873 5.21372 -3
      vertex -3.3891 5.34037 0
      vertex -2.62919 5.58731 -3
    endloop
  endfacet
  facet normal 0.587052 0.808014 -0.0498414
    outer loop
      vertex 3.93609 4.75792 -3
      vertex 3.30873 5.21372 -3
      vertex 4.03171 4.8735 0
    endloop
  endfacet
  facet normal 0.683694 0.728064 -0.0498415
    outer loop
      vertex 4.50138 4.22708 -3
      vertex 3.93609 4.75792 -3
      vertex 4.03171 4.8735 0
    endloop
  endfacet
  facet normal 0.843279 0.53516 -0.0498399
    outer loop
      vertex 5.41119 2.97483 -3
      vertex 4.99568 3.62957 -3
      vertex 5.54264 3.04709 0
    endloop
  endfacet
  facet normal -0.949875 -0.308631 -0.0498398
    outer loop
      vertex -5.74137 -2.27317 -3
      vertex -6.12629 -1.57296 0
      vertex -5.981 -1.53566 -3
    endloop
  endfacet
  facet normal -0.125176 -0.990882 -0.0498413
    outer loop
      vertex -0.397149 -6.31252 0
      vertex -1.15708 -6.06562 -3
      vertex -0.387731 -6.16281 -3
    endloop
  endfacet
  facet normal -0.367658 0.928625 -0.0498395
    outer loop
      vertex -1.90818 5.87277 -3
      vertex -2.62919 5.58731 -3
      vertex -1.95453 6.01543 0
    endloop
  endfacet
  facet normal -0.248381 0.967379 -0.0498396
    outer loop
      vertex -1.90818 5.87277 -3
      vertex -1.95453 6.01543 0
      vertex -1.15708 6.06562 -3
    endloop
  endfacet
  facet normal -0.587052 0.808014 -0.0498414
    outer loop
      vertex -3.93609 4.75792 -3
      vertex -4.03171 4.8735 0
      vertex -3.30873 5.21372 -3
    endloop
  endfacet
  facet normal -0.248389 -0.967377 -0.0498417
    outer loop
      vertex -1.18519 -6.21297 0
      vertex -1.95453 -6.01543 0
      vertex -1.15708 -6.06562 -3
    endloop
  endfacet
  facet normal -0.125157 -0.990884 -0.0498417
    outer loop
      vertex -1.15708 -6.06562 -3
      vertex -0.731461 -6.27028 0
      vertex -1.18519 -6.21297 0
    endloop
  endfacet
  facet normal -0.125197 -0.99088 -0.0498358
    outer loop
      vertex -0.731461 -6.27028 0
      vertex -1.15708 -6.06562 -3
      vertex -0.397149 -6.31252 0
    endloop
  endfacet
  facet normal -0.248381 -0.967379 -0.0498396
    outer loop
      vertex -1.15708 -6.06562 -3
      vertex -1.95453 -6.01543 0
      vertex -1.90818 -5.87277 -3
    endloop
  endfacet
  facet normal -0.367658 -0.928625 -0.0498395
    outer loop
      vertex -1.95453 -6.01543 0
      vertex -2.62919 -5.58731 -3
      vertex -1.90818 -5.87277 -3
    endloop
  endfacet
  facet normal 0 0 1
    outer loop
      vertex 2.55615 6.73955 2
      vertex -0.732956 1.04051 2
      vertex -0.731461 0.628311 2
    endloop
  endfacet
  facet normal 0 0 1
    outer loop
      vertex -0.181061 5.91652 2
      vertex -0.737442 1.40288 2
      vertex -0.732956 1.04051 2
    endloop
  endfacet
  facet normal 0 0 1
    outer loop
      vertex -0.181061 5.91652 2
      vertex -0.744904 1.71544 2
      vertex -0.737442 1.40288 2
    endloop
  endfacet
  facet normal 0 0 1
    outer loop
      vertex -0.181061 5.91652 2
      vertex -0.755371 1.97816 2
      vertex -0.744904 1.71544 2
    endloop
  endfacet
  facet normal 0 0 1
    outer loop
      vertex -0.181061 5.91652 2
      vertex -0.768814 2.19109 2
      vertex -0.755371 1.97816 2
    endloop
  endfacet
  facet normal 0 0 1
    outer loop
      vertex -0.181061 5.91652 2
      vertex -0.785248 2.35417 2
      vertex -0.768814 2.19109 2
    endloop
  endfacet
  facet normal 0 0 1
    outer loop
      vertex -0.181061 5.91652 2
      vertex -0.804672 2.46744 2
      vertex -0.785248 2.35417 2
    endloop
  endfacet
  facet normal 0 0 1
    outer loop
      vertex -0.181061 5.91652 2
      vertex -0.830811 2.55272 2
      vertex -0.804672 2.46744 2
    endloop
  endfacet
  facet normal 0 0 1
    outer loop
      vertex -0.181061 5.91652 2
      vertex -0.867432 2.63185 2
      vertex -0.830811 2.55272 2
    endloop
  endfacet
  facet normal 0 0 1
    outer loop
      vertex -0.181061 5.91652 2
      vertex -0.914505 2.70483 2
      vertex -0.867432 2.63185 2
    endloop
  endfacet
  facet normal 0 0 1
    outer loop
      vertex -0.651535 5.57126 2
      vertex -0.972061 2.77167 2
      vertex -0.914505 2.70483 2
    endloop
  endfacet
  facet normal 0 0 1
    outer loop
      vertex -0.651535 5.57126 2
      vertex -1.04007 2.83237 2
      vertex -0.972061 2.77167 2
    endloop
  endfacet
  facet normal -0 0 1
    outer loop
      vertex -1.16884 5.27019 2
      vertex -1.04007 2.83237 2
      vertex -0.651535 5.57126 2
    endloop
  endfacet
  facet normal 0 0 1
    outer loop
      vertex -1.04007 2.83237 2
      vertex -1.16884 5.27019 2
      vertex -1.11856 2.88692 2
    endloop
  endfacet
  facet normal 0 0 1
    outer loop
      vertex -1.16884 5.27019 2
      vertex -1.2075 2.93532 2
      vertex -1.11856 2.88692 2
    endloop
  endfacet
  facet normal 0 0 1
    outer loop
      vertex -1.16884 5.27019 2
      vertex -1.31818 2.9774 2
      vertex -1.2075 2.93532 2
    endloop
  endfacet
  facet normal -0 0 1
    outer loop
      vertex -1.73297 5.01328 2
      vertex -1.31818 2.9774 2
      vertex -1.16884 5.27019 2
    endloop
  endfacet
  facet normal 0 0 1
    outer loop
      vertex -1.31818 2.9774 2
      vertex -1.73297 5.01328 2
      vertex -1.4619 3.01302 2
    endloop
  endfacet
  facet normal 0 0 1
    outer loop
      vertex -1.4619 3.01302 2
      vertex -1.73297 5.01328 2
      vertex -1.63869 3.04214 2
    endloop
  endfacet
  facet normal 0 0 1
    outer loop
      vertex -1.73297 5.01328 2
      vertex -1.84851 3.06482 2
      vertex -1.63869 3.04214 2
    endloop
  endfacet
  facet normal -0 0 1
    outer loop
      vertex -2.34393 4.80055 2
      vertex -1.84851 3.06482 2
      vertex -1.73297 5.01328 2
    endloop
  endfacet
  facet normal 0 0 1
    outer loop
      vertex -1.84851 3.06482 2
      vertex -2.34393 4.80055 2
      vertex -2.09138 3.08101 2
    endloop
  endfacet
  facet normal 0 0 1
    outer loop
      vertex -2.34393 4.80055 2
      vertex -2.36732 3.09071 2
      vertex -2.09138 3.08101 2
    endloop
  endfacet
  facet normal -0 0 1
    outer loop
      vertex -3.00174 4.63199 2
      vertex -2.36732 3.09071 2
      vertex -2.34393 4.80055 2
    endloop
  endfacet
  facet normal 0 0 1
    outer loop
      vertex -2.36732 3.09071 2
      vertex -3.00174 4.63199 2
      vertex -2.6763 3.09395 2
    endloop
  endfacet
  facet normal 0 0 1
    outer loop
      vertex -2.6763 3.09395 2
      vertex -3.00174 4.63199 2
      vertex -3.00174 3.09395 2
    endloop
  endfacet
  facet normal 0 0 1
    outer loop
      vertex 0.242554 6.30595 2
      vertex 2.55615 6.73955 2
      vertex 0.619354 6.73955 2
    endloop
  endfacet
  facet normal 0 0 1
    outer loop
      vertex -0.181061 5.91652 2
      vertex 2.55615 6.73955 2
      vertex 0.242554 6.30595 2
    endloop
  endfacet
  facet normal 0 0 1
    outer loop
      vertex -0.732956 1.04051 2
      vertex 2.55615 6.73955 2
      vertex -0.181061 5.91652 2
    endloop
  endfacet
  facet normal 0 0 1
    outer loop
      vertex -0.914505 2.70483 2
      vertex -0.181061 5.91652 2
      vertex -0.651535 5.57126 2
    endloop
  endfacet
  facet normal 0 0 1
    outer loop
      vertex 2.55615 6.73955 2
      vertex -0.731461 0.628311 2
      vertex 2.55615 -6.435 2
    endloop
  endfacet
  facet normal 0 0 1
    outer loop
      vertex 2.55615 -6.435 2
      vertex -0.731461 0.628311 2
      vertex -0.731461 -6.435 2
    endloop
  endfacet
  facet normal 0 1 -0
    outer loop
      vertex 2.55615 6.73955 0
      vertex 0.619354 6.73955 2
      vertex 2.55615 6.73955 2
    endloop
  endfacet
  facet normal 0 1 0
    outer loop
      vertex 0.619354 6.73955 2
      vertex 2.55615 6.73955 0
      vertex 0.619354 6.73955 0
    endloop
  endfacet
  facet normal -0.754811 0.655943 0
    outer loop
      vertex 0.248258 6.31252 0
      vertex 0.619354 6.73955 2
      vertex 0.619354 6.73955 0
    endloop
  endfacet
  facet normal -0.75512 0.655587 0
    outer loop
      vertex 0.242554 6.30595 2
      vertex 0.248258 6.31252 0
      vertex 0.242554 6.30595 0
    endloop
  endfacet
  facet normal -0.754815 0.655937 2.02073e-06
    outer loop
      vertex 0.248258 6.31252 0
      vertex 0.242554 6.30595 2
      vertex 0.619354 6.73955 2
    endloop
  endfacet
  facet normal -0.676778 0.736187 0
    outer loop
      vertex 0.242554 6.30595 0
      vertex -0.181061 5.91652 2
      vertex 0.242554 6.30595 2
    endloop
  endfacet
  facet normal -0.676778 0.736187 0
    outer loop
      vertex -0.181061 5.91652 2
      vertex 0.242554 6.30595 0
      vertex -0.181061 5.91652 0
    endloop
  endfacet
  facet normal -0.591637 0.806204 0
    outer loop
      vertex -0.181061 5.91652 0
      vertex -0.651535 5.57126 2
      vertex -0.181061 5.91652 2
    endloop
  endfacet
  facet normal -0.591637 0.806204 0
    outer loop
      vertex -0.651535 5.57126 2
      vertex -0.181061 5.91652 0
      vertex -0.651535 5.57126 0
    endloop
  endfacet
  facet normal -0.503009 0.864281 0
    outer loop
      vertex -0.651535 5.57126 0
      vertex -1.16884 5.27019 2
      vertex -0.651535 5.57126 2
    endloop
  endfacet
  facet normal -0.503009 0.864281 0
    outer loop
      vertex -1.16884 5.27019 2
      vertex -0.651535 5.57126 0
      vertex -1.16884 5.27019 0
    endloop
  endfacet
  facet normal -0.414454 0.91007 0
    outer loop
      vertex -1.16884 5.27019 0
      vertex -1.73297 5.01328 2
      vertex -1.16884 5.27019 2
    endloop
  endfacet
  facet normal -0.414454 0.91007 0
    outer loop
      vertex -1.73297 5.01328 2
      vertex -1.16884 5.27019 0
      vertex -1.73297 5.01328 0
    endloop
  endfacet
  facet normal -0.328827 0.94439 0
    outer loop
      vertex -1.73297 5.01328 0
      vertex -2.34393 4.80055 2
      vertex -1.73297 5.01328 2
    endloop
  endfacet
  facet normal -0.328827 0.94439 0
    outer loop
      vertex -2.34393 4.80055 2
      vertex -1.73297 5.01328 0
      vertex -2.34393 4.80055 0
    endloop
  endfacet
  facet normal -0.248224 0.968703 0
    outer loop
      vertex -2.34393 4.80055 0
      vertex -3.00174 4.63199 2
      vertex -2.34393 4.80055 2
    endloop
  endfacet
  facet normal -0.248224 0.968703 0
    outer loop
      vertex -3.00174 4.63199 2
      vertex -2.34393 4.80055 0
      vertex -3.00174 4.63199 0
    endloop
  endfacet
  facet normal -1 0 0
    outer loop
      vertex -3.00174 3.09395 0
      vertex -3.00174 4.63199 2
      vertex -3.00174 4.63199 0
    endloop
  endfacet
  facet normal -1 -0 0
    outer loop
      vertex -3.00174 4.63199 2
      vertex -3.00174 3.09395 0
      vertex -3.00174 3.09395 2
    endloop
  endfacet
  facet normal 0 -1 0
    outer loop
      vertex -3.00174 3.09395 0
      vertex -2.6763 3.09395 2
      vertex -3.00174 3.09395 2
    endloop
  endfacet
  facet normal 0 -1 -0
    outer loop
      vertex -2.6763 3.09395 2
      vertex -3.00174 3.09395 0
      vertex -2.6763 3.09395 0
    endloop
  endfacet
  facet normal -0.0104855 -0.999945 0
    outer loop
      vertex -2.6763 3.09395 0
      vertex -2.36732 3.09071 2
      vertex -2.6763 3.09395 2
    endloop
  endfacet
  facet normal -0.0104855 -0.999945 -0
    outer loop
      vertex -2.36732 3.09071 2
      vertex -2.6763 3.09395 0
      vertex -2.36732 3.09071 0
    endloop
  endfacet
  facet normal -0.0351309 -0.999383 0
    outer loop
      vertex -2.36732 3.09071 0
      vertex -2.09138 3.08101 2
      vertex -2.36732 3.09071 2
    endloop
  endfacet
  facet normal -0.0351309 -0.999383 -0
    outer loop
      vertex -2.09138 3.08101 2
      vertex -2.36732 3.09071 0
      vertex -2.09138 3.08101 0
    endloop
  endfacet
  facet normal -0.0665136 -0.997786 0
    outer loop
      vertex -2.09138 3.08101 0
      vertex -1.84851 3.06482 2
      vertex -2.09138 3.08101 2
    endloop
  endfacet
  facet normal -0.0665136 -0.997786 -0
    outer loop
      vertex -1.84851 3.06482 2
      vertex -2.09138 3.08101 0
      vertex -1.84851 3.06482 0
    endloop
  endfacet
  facet normal -0.107467 -0.994209 0
    outer loop
      vertex -1.84851 3.06482 0
      vertex -1.63869 3.04214 2
      vertex -1.84851 3.06482 2
    endloop
  endfacet
  facet normal -0.107467 -0.994209 -0
    outer loop
      vertex -1.63869 3.04214 2
      vertex -1.84851 3.06482 0
      vertex -1.63869 3.04214 0
    endloop
  endfacet
  facet normal -0.162525 -0.986704 0
    outer loop
      vertex -1.63869 3.04214 0
      vertex -1.4619 3.01302 2
      vertex -1.63869 3.04214 2
    endloop
  endfacet
  facet normal -0.162525 -0.986704 -0
    outer loop
      vertex -1.4619 3.01302 2
      vertex -1.63869 3.04214 0
      vertex -1.4619 3.01302 0
    endloop
  endfacet
  facet normal -0.240565 -0.970633 0
    outer loop
      vertex -1.4619 3.01302 0
      vertex -1.31818 2.9774 2
      vertex -1.4619 3.01302 2
    endloop
  endfacet
  facet normal -0.240565 -0.970633 -0
    outer loop
      vertex -1.31818 2.9774 2
      vertex -1.4619 3.01302 0
      vertex -1.31818 2.9774 0
    endloop
  endfacet
  facet normal -0.355377 -0.934723 0
    outer loop
      vertex -1.31818 2.9774 0
      vertex -1.2075 2.93532 2
      vertex -1.31818 2.9774 2
    endloop
  endfacet
  facet normal -0.355377 -0.934723 -0
    outer loop
      vertex -1.2075 2.93532 2
      vertex -1.31818 2.9774 0
      vertex -1.2075 2.93532 0
    endloop
  endfacet
  facet normal -0.477994 -0.878363 0
    outer loop
      vertex -1.2075 2.93532 0
      vertex -1.11856 2.88692 2
      vertex -1.2075 2.93532 2
    endloop
  endfacet
  facet normal -0.477994 -0.878363 -0
    outer loop
      vertex -1.11856 2.88692 2
      vertex -1.2075 2.93532 0
      vertex -1.11856 2.88692 0
    endloop
  endfacet
  facet normal -0.5707 -0.821159 0
    outer loop
      vertex -1.11856 2.88692 0
      vertex -1.04007 2.83237 2
      vertex -1.11856 2.88692 2
    endloop
  endfacet
  facet normal -0.5707 -0.821159 -0
    outer loop
      vertex -1.04007 2.83237 2
      vertex -1.11856 2.88692 0
      vertex -1.04007 2.83237 0
    endloop
  endfacet
  facet normal -0.66588 -0.746059 0
    outer loop
      vertex -1.04007 2.83237 0
      vertex -0.972061 2.77167 2
      vertex -1.04007 2.83237 2
    endloop
  endfacet
  facet normal -0.66588 -0.746059 -0
    outer loop
      vertex -0.972061 2.77167 2
      vertex -1.04007 2.83237 0
      vertex -0.972061 2.77167 0
    endloop
  endfacet
  facet normal -0.757773 -0.652519 0
    outer loop
      vertex -0.914505 2.70483 0
      vertex -0.972061 2.77167 2
      vertex -0.972061 2.77167 0
    endloop
  endfacet
  facet normal -0.757773 -0.652519 0
    outer loop
      vertex -0.972061 2.77167 2
      vertex -0.914505 2.70483 0
      vertex -0.914505 2.70483 2
    endloop
  endfacet
  facet normal -0.840354 -0.542038 0
    outer loop
      vertex -0.867432 2.63185 0
      vertex -0.914505 2.70483 2
      vertex -0.914505 2.70483 0
    endloop
  endfacet
  facet normal -0.840354 -0.542038 0
    outer loop
      vertex -0.914505 2.70483 2
      vertex -0.867432 2.63185 0
      vertex -0.867432 2.63185 2
    endloop
  endfacet
  facet normal -0.907525 -0.419998 0
    outer loop
      vertex -0.830811 2.55272 0
      vertex -0.867432 2.63185 2
      vertex -0.867432 2.63185 0
    endloop
  endfacet
  facet normal -0.907525 -0.419998 0
    outer loop
      vertex -0.867432 2.63185 2
      vertex -0.830811 2.55272 0
      vertex -0.830811 2.55272 2
    endloop
  endfacet
  facet normal -0.956097 -0.293051 0
    outer loop
      vertex -0.804672 2.46744 0
      vertex -0.830811 2.55272 2
      vertex -0.830811 2.55272 0
    endloop
  endfacet
  facet normal -0.956097 -0.293051 0
    outer loop
      vertex -0.830811 2.55272 2
      vertex -0.804672 2.46744 0
      vertex -0.804672 2.46744 2
    endloop
  endfacet
  facet normal -0.985613 -0.169017 0
    outer loop
      vertex -0.785248 2.35417 0
      vertex -0.804672 2.46744 2
      vertex -0.804672 2.46744 0
    endloop
  endfacet
  facet normal -0.985613 -0.169017 0
    outer loop
      vertex -0.804672 2.46744 2
      vertex -0.785248 2.35417 0
      vertex -0.785248 2.35417 2
    endloop
  endfacet
  facet normal -0.994961 -0.100265 0
    outer loop
      vertex -0.768814 2.19109 0
      vertex -0.785248 2.35417 2
      vertex -0.785248 2.35417 0
    endloop
  endfacet
  facet normal -0.994961 -0.100265 0
    outer loop
      vertex -0.785248 2.35417 2
      vertex -0.768814 2.19109 0
      vertex -0.768814 2.19109 2
    endloop
  endfacet
  facet normal -0.998013 -0.063008 0
    outer loop
      vertex -0.755371 1.97816 0
      vertex -0.768814 2.19109 2
      vertex -0.768814 2.19109 0
    endloop
  endfacet
  facet normal -0.998013 -0.063008 0
    outer loop
      vertex -0.768814 2.19109 2
      vertex -0.755371 1.97816 0
      vertex -0.755371 1.97816 2
    endloop
  endfacet
  facet normal -0.999207 -0.0398093 0
    outer loop
      vertex -0.744904 1.71544 0
      vertex -0.755371 1.97816 2
      vertex -0.755371 1.97816 0
    endloop
  endfacet
  facet normal -0.999207 -0.0398093 0
    outer loop
      vertex -0.755371 1.97816 2
      vertex -0.744904 1.71544 0
      vertex -0.744904 1.71544 2
    endloop
  endfacet
  facet normal -0.999715 -0.023867 0
    outer loop
      vertex -0.737442 1.40288 0
      vertex -0.744904 1.71544 2
      vertex -0.744904 1.71544 0
    endloop
  endfacet
  facet normal -0.999715 -0.023867 0
    outer loop
      vertex -0.744904 1.71544 2
      vertex -0.737442 1.40288 0
      vertex -0.737442 1.40288 2
    endloop
  endfacet
  facet normal -0.999923 -0.0123787 0
    outer loop
      vertex -0.732956 1.04051 0
      vertex -0.737442 1.40288 2
      vertex -0.737442 1.40288 0
    endloop
  endfacet
  facet normal -0.999923 -0.0123787 0
    outer loop
      vertex -0.737442 1.40288 2
      vertex -0.732956 1.04051 0
      vertex -0.732956 1.04051 2
    endloop
  endfacet
  facet normal -0.999993 -0.00362687 0
    outer loop
      vertex -0.731461 0.628311 0
      vertex -0.732956 1.04051 2
      vertex -0.732956 1.04051 0
    endloop
  endfacet
  facet normal -0.999993 -0.00362687 0
    outer loop
      vertex -0.732956 1.04051 2
      vertex -0.731461 0.628311 0
      vertex -0.731461 0.628311 2
    endloop
  endfacet
  facet normal -1 0 0
    outer loop
      vertex -0.731461 -6.27028 0
      vertex -0.731461 0.628311 2
      vertex -0.731461 0.628311 0
    endloop
  endfacet
  facet normal -1 0 0
    outer loop
      vertex -0.731461 -6.435 2
      vertex -0.731461 -6.27028 0
      vertex -0.731461 -6.435 0
    endloop
  endfacet
  facet normal -1 0 0
    outer loop
      vertex -0.731461 -6.27028 0
      vertex -0.731461 -6.435 2
      vertex -0.731461 0.628311 2
    endloop
  endfacet
  facet normal 0 -1 0
    outer loop
      vertex -0.731461 -6.435 0
      vertex 2.55615 -6.435 2
      vertex -0.731461 -6.435 2
    endloop
  endfacet
  facet normal 0 -1 -0
    outer loop
      vertex 2.55615 -6.435 2
      vertex -0.731461 -6.435 0
      vertex 2.55615 -6.435 0
    endloop
  endfacet
  facet normal 1 0 0
    outer loop
      vertex 2.55615 6.73955 2
      vertex 2.55615 5.77723 0
      vertex 2.55615 6.73955 0
    endloop
  endfacet
  facet normal 1 -0 0
    outer loop
      vertex 2.55615 -6.435 2
      vertex 2.55615 5.77723 0
      vertex 2.55615 6.73955 2
    endloop
  endfacet
  facet normal 1 0 0
    outer loop
      vertex 2.55615 5.77723 0
      vertex 2.55615 -6.435 2
      vertex 2.55615 -5.77723 0
    endloop
  endfacet
  facet normal 1 0 0
    outer loop
      vertex 2.55615 -5.77723 0
      vertex 2.55615 -6.435 2
      vertex 2.55615 -6.435 0
    endloop
  endfacet
endsolid OpenSCAD_Model
