solid OpenSCAD_Model
  facet normal -0.8443279255020154 -0.535826794978996 0
    outer loop
      vertex -8.090169943749475 -5.877852522924732 -7.5
      vertex -8.763066800438635 -4.817536741017154 0
      vertex -8.763066800438635 -4.817536741017154 -7.5
    endloop
  endfacet
  facet normal -0.7705132427757888 -0.6374239897486901 0
    outer loop
      vertex -8.090169943749475 -5.877852522924732 -7.5
      vertex -7.289686274214117 -6.845471059286885 -7.5
      vertex -8.090169943749475 -5.877852522924732 0
    endloop
  endfacet
  facet normal -0.5877852522924722 -0.8090169943749481 0
    outer loop
      vertex -6.374239897486897 -7.705132427757894 -7.5
      vertex -5.358267949789967 -8.44327925502015 -7.5
      vertex -5.358267949789967 -8.44327925502015 0
    endloop
  endfacet
  facet normal -0.6845471059286894 -0.7289686274214109 0
    outer loop
      vertex -6.374239897486897 -7.705132427757894 -7.5
      vertex -6.374239897486897 -7.705132427757894 0
      vertex -7.289686274214117 -6.845471059286885 -7.5
    endloop
  endfacet
  facet normal 0 0 -1
    outer loop
      vertex -9.297764858882514 -3.6812455268467787 -7.5
      vertex -9.68583161128631 -2.4868988716485485 -7.5
      vertex -9.297764858882514 3.6812455268467787 -7.5
    endloop
  endfacet
  facet normal 0 0 -1
    outer loop
      vertex -9.68583161128631 -2.4868988716485485 -7.5
      vertex -9.921147013144779 -1.2533323356430406 -7.5
      vertex -9.68583161128631 2.4868988716485485 -7.5
    endloop
  endfacet
  facet normal 0 0 -1
    outer loop
      vertex -8.763066800438635 -4.817536741017154 -7.5
      vertex -9.297764858882514 -3.6812455268467787 -7.5
      vertex -8.763066800438635 4.817536741017154 -7.5
    endloop
  endfacet
  facet normal 0 0 -1
    outer loop
      vertex -8.090169943749475 -5.877852522924732 -7.5
      vertex -8.763066800438635 -4.817536741017154 -7.5
      vertex -8.090169943749475 5.877852522924732 -7.5
    endloop
  endfacet
  facet normal 0 0 -1
    outer loop
      vertex -8.090169943749475 -5.877852522924732 -7.5
      vertex -7.289686274214117 6.845471059286885 -7.5
      vertex -7.289686274214117 -6.845471059286885 -7.5
    endloop
  endfacet
  facet normal 0 0 -1
    outer loop
      vertex -6.374239897486897 -7.705132427757894 -7.5
      vertex -5.358267949789967 8.44327925502015 -7.5
      vertex -5.358267949789967 -8.44327925502015 -7.5
    endloop
  endfacet
  facet normal 0 0 -1
    outer loop
      vertex -6.374239897486897 -7.705132427757894 -7.5
      vertex -7.289686274214117 -6.845471059286885 -7.5
      vertex -6.374239897486897 7.705132427757894 -7.5
    endloop
  endfacet
  facet normal -0.9048270524660194 -0.42577929156507294 0
    outer loop
      vertex -8.763066800438635 -4.817536741017154 -7.5
      vertex -9.297764858882514 -3.6812455268467787 0
      vertex -9.297764858882514 -3.6812455268467787 -7.5
    endloop
  endfacet
  facet normal -0.9510565162951536 -0.30901699437494723 0
    outer loop
      vertex -9.297764858882514 -3.6812455268467787 -7.5
      vertex -9.68583161128631 -2.4868988716485485 0
      vertex -9.68583161128631 -2.4868988716485485 -7.5
    endloop
  endfacet
  facet normal -0.9822872507286886 -0.18738131458572513 0
    outer loop
      vertex -9.68583161128631 -2.4868988716485485 -7.5
      vertex -9.921147013144779 -1.2533323356430406 0
      vertex -9.921147013144779 -1.2533323356430406 -7.5
    endloop
  endfacet
  facet normal -0.9980267284282716 -0.06279051952931293 0
    outer loop
      vertex -9.921147013144779 -1.2533323356430406 -7.5
      vertex -10 0 0
      vertex -10 0 -7.5
    endloop
  endfacet
  facet normal 0 0 -1
    outer loop
      vertex -4.257792915650724 -9.048270524660197 -7.5
      vertex -3.021773579136817 -1.1964047962252031 -7.5
      vertex -3.090169943749474 -9.510565162951535 -7.5
    endloop
  endfacet
  facet normal 0 0 -1
    outer loop
      vertex -1.8738131458572482 -9.822872507286887 -7.5
      vertex -0.2040691884702697 -3.2435868673918824 -7.5
      vertex -0.6279051952931376 -9.980267284282716 -7.5
    endloop
  endfacet
  facet normal 0 0 -1
    outer loop
      vertex -3.090169943749474 -9.510565162951535 -7.5
      vertex -1.7414370836817394 -2.7440657578815486 -7.5
      vertex -1.8738131458572482 -9.822872507286887 -7.5
    endloop
  endfacet
  facet normal 0 0 -1
    outer loop
      vertex -1.8738131458572482 -9.822872507286887 -7.5
      vertex -1.7414370836817394 -2.7440657578815486 -7.5
      vertex -1.3837826975864855 -2.9406879205145637 -7.5
    endloop
  endfacet
  facet normal 0 0 -1
    outer loop
      vertex -1.8738131458572482 -9.822872507286887 -7.5
      vertex -1.3837826975864855 -2.9406879205145637 -7.5
      vertex -1.004305231718579 -3.090933677959249 -7.5
    endloop
  endfacet
  facet normal 0 0 -1
    outer loop
      vertex -1.8738131458572482 -9.822872507286887 -7.5
      vertex -1.004305231718579 -3.090933677959249 -7.5
      vertex -0.6089892724036056 -3.192433564868238 -7.5
    endloop
  endfacet
  facet normal 0 0 -1
    outer loop
      vertex -1.8738131458572482 -9.822872507286887 -7.5
      vertex -0.6089892724036056 -3.192433564868238 -7.5
      vertex -0.2040691884702697 -3.2435868673918824 -7.5
    endloop
  endfacet
  facet normal 0 0 -1
    outer loop
      vertex -0.6279051952931376 -9.980267284282716 -7.5
      vertex -0.2040691884702697 -3.2435868673918824 -7.5
      vertex 0.20406918847026972 -3.2435868673918824 -7.5
    endloop
  endfacet
  facet normal -0.48175367410171593 -0.8763066800438633 0
    outer loop
      vertex -5.358267949789967 -8.44327925502015 -7.5
      vertex -4.257792915650724 -9.048270524660197 -7.5
      vertex -4.257792915650724 -9.048270524660197 0
    endloop
  endfacet
  facet normal -0.36812455268467675 -0.9297764858882519 0
    outer loop
      vertex -4.257792915650724 -9.048270524660197 -7.5
      vertex -3.090169943749474 -9.510565162951535 -7.5
      vertex -3.090169943749474 -9.510565162951535 0
    endloop
  endfacet
  facet normal -0.2486898871648558 -0.968583161128631 0
    outer loop
      vertex -3.090169943749474 -9.510565162951535 -7.5
      vertex -1.8738131458572482 -9.822872507286887 -7.5
      vertex -1.8738131458572482 -9.822872507286887 0
    endloop
  endfacet
  facet normal -0.12533323356430498 -0.9921147013144779 0
    outer loop
      vertex -1.8738131458572482 -9.822872507286887 -7.5
      vertex -0.6279051952931376 -9.980267284282716 -7.5
      vertex -0.6279051952931376 -9.980267284282716 0
    endloop
  endfacet
  facet normal 0 0 -1
    outer loop
      vertex -5.358267949789967 -8.44327925502015 -7.5
      vertex -4.257792915650727 9.048270524660195 -7.5
      vertex -4.257792915650724 -9.048270524660197 -7.5
    endloop
  endfacet
  facet normal 0 0 -1
    outer loop
      vertex -3.090169943749474 -9.510565162951535 -7.5
      vertex -2.369148039119588 -2.224778094268238 -7.5
      vertex -2.0716279666832413 -2.5041680390213155 -7.5
    endloop
  endfacet
  facet normal 0 0 -1
    outer loop
      vertex -3.090169943749474 -9.510565162951535 -7.5
      vertex -2.629305231718579 -1.9103020699505378 -7.5
      vertex -2.369148039119588 -2.224778094268238 -7.5
    endloop
  endfacet
  facet normal 0 0 -1
    outer loop
      vertex -3.090169943749474 -9.510565162951535 -7.5
      vertex -3.021773579136817 -1.1964047962252031 -7.5
      vertex -2.8479967101425565 -1.5656994408305749 -7.5
    endloop
  endfacet
  facet normal 0 0 -1
    outer loop
      vertex -3.090169943749474 -9.510565162951535 -7.5
      vertex -2.8479967101425565 -1.5656994408305749 -7.5
      vertex -2.629305231718579 -1.9103020699505378 -7.5
    endloop
  endfacet
  facet normal 0 0 -1
    outer loop
      vertex -4.257792915650724 -9.048270524660197 -7.5
      vertex -3.147895273668051 -0.8082421332857783 -7.5
      vertex -3.021773579136817 -1.1964047962252031 -7.5
    endloop
  endfacet
  facet normal 0 0 -1
    outer loop
      vertex -4.257792915650724 -9.048270524660197 -7.5
      vertex -3.224372779272053 -0.40733300908398823 -7.5
      vertex -3.147895273668051 -0.8082421332857783 -7.5
    endloop
  endfacet
  facet normal 0 0 -1
    outer loop
      vertex -4.257792915650724 -9.048270524660197 -7.5
      vertex -3.25 0 -7.5
      vertex -3.224372779272053 -0.40733300908398823 -7.5
    endloop
  endfacet
  facet normal 0 0 -1
    outer loop
      vertex -3.090169943749474 -9.510565162951535 -7.5
      vertex -2.0716279666832413 -2.5041680390213155 -7.5
      vertex -1.7414370836817394 -2.7440657578815486 -7.5
    endloop
  endfacet
  facet normal -0.7705132427757888 -0.6374239897486901 0
    outer loop
      vertex -7.289686274214117 -6.845471059286885 -7.5
      vertex -7.289686274214117 -6.845471059286885 0
      vertex -8.090169943749475 -5.877852522924732 0
    endloop
  endfacet
  facet normal -0.8443279255020154 -0.535826794978996 0
    outer loop
      vertex -8.090169943749475 -5.877852522924732 -7.5
      vertex -8.090169943749475 -5.877852522924732 0
      vertex -8.763066800438635 -4.817536741017154 0
    endloop
  endfacet
  facet normal -0.5877852522924722 -0.8090169943749481 0
    outer loop
      vertex -6.374239897486897 -7.705132427757894 -7.5
      vertex -5.358267949789967 -8.44327925502015 0
      vertex -6.374239897486897 -7.705132427757894 0
    endloop
  endfacet
  facet normal -0.6845471059286894 -0.7289686274214109 0
    outer loop
      vertex -7.289686274214117 -6.845471059286885 -7.5
      vertex -6.374239897486897 -7.705132427757894 0
      vertex -7.289686274214117 -6.845471059286885 0
    endloop
  endfacet
  facet normal 0 0 1
    outer loop
      vertex -6.374239897486897 -7.705132427757894 0
      vertex -5.358267949789967 -8.44327925502015 0
      vertex -5.914250001311302 0 0
    endloop
  endfacet
  facet normal 0 0 1
    outer loop
      vertex -5.358267949789967 -8.44327925502015 0
      vertex -4.257792915650724 -9.048270524660197 0
      vertex -5.914250001311302 0 0
    endloop
  endfacet
  facet normal -0.9048270524660194 -0.42577929156507294 0
    outer loop
      vertex -8.763066800438635 -4.817536741017154 -7.5
      vertex -8.763066800438635 -4.817536741017154 0
      vertex -9.297764858882514 -3.6812455268467787 0
    endloop
  endfacet
  facet normal -0.9510565162951536 -0.30901699437494723 0
    outer loop
      vertex -9.297764858882514 -3.6812455268467787 -7.5
      vertex -9.297764858882514 -3.6812455268467787 0
      vertex -9.68583161128631 -2.4868988716485485 0
    endloop
  endfacet
  facet normal -0.9822872507286886 -0.18738131458572513 0
    outer loop
      vertex -9.68583161128631 -2.4868988716485485 -7.5
      vertex -9.68583161128631 -2.4868988716485485 0
      vertex -9.921147013144779 -1.2533323356430406 0
    endloop
  endfacet
  facet normal -0.9980267284282716 -0.06279051952931293 0
    outer loop
      vertex -9.921147013144779 -1.2533323356430406 -7.5
      vertex -9.921147013144779 -1.2533323356430406 0
      vertex -10 0 0
    endloop
  endfacet
  facet normal 0 0 1
    outer loop
      vertex -8.763066800438635 -4.817536741017154 0
      vertex -9.297764858882514 3.6812455268467787 0
      vertex -9.297764858882514 -3.6812455268467787 0
    endloop
  endfacet
  facet normal 0 0 1
    outer loop
      vertex -9.68583161128631 -2.4868988716485485 0
      vertex -9.921147013144779 1.2533323356430406 0
      vertex -9.921147013144779 -1.2533323356430406 0
    endloop
  endfacet
  facet normal 0 0 1
    outer loop
      vertex -9.297764858882514 -3.6812455268467787 0
      vertex -9.68583161128631 2.4868988716485485 0
      vertex -9.68583161128631 -2.4868988716485485 0
    endloop
  endfacet
  facet normal 0 0 1
    outer loop
      vertex -8.090169943749475 -5.877852522924732 0
      vertex -8.763066800438635 4.817536741017154 0
      vertex -8.763066800438635 -4.817536741017154 0
    endloop
  endfacet
  facet normal 0 0 1
    outer loop
      vertex -8.090169943749475 -5.877852522924732 0
      vertex -7.289686274214117 -6.845471059286885 0
      vertex -8.090169943749475 5.877852522924732 0
    endloop
  endfacet
  facet normal 0 0 1
    outer loop
      vertex -6.374239897486897 -7.705132427757894 0
      vertex -7.289686274214117 6.845471059286885 0
      vertex -7.289686274214117 -6.845471059286885 0
    endloop
  endfacet
  facet normal -0.36812455268467675 -0.9297764858882519 0
    outer loop
      vertex -4.257792915650724 -9.048270524660197 -7.5
      vertex -3.090169943749474 -9.510565162951535 0
      vertex -4.257792915650724 -9.048270524660197 0
    endloop
  endfacet
  facet normal -0.48175367410171593 -0.8763066800438633 0
    outer loop
      vertex -5.358267949789967 -8.44327925502015 -7.5
      vertex -4.257792915650724 -9.048270524660197 0
      vertex -5.358267949789967 -8.44327925502015 0
    endloop
  endfacet
  facet normal -0.2486898871648558 -0.968583161128631 0
    outer loop
      vertex -3.090169943749474 -9.510565162951535 -7.5
      vertex -1.8738131458572482 -9.822872507286887 0
      vertex -3.090169943749474 -9.510565162951535 0
    endloop
  endfacet
  facet normal -0.12533323356430498 -0.9921147013144779 0
    outer loop
      vertex -1.8738131458572482 -9.822872507286887 -7.5
      vertex -0.6279051952931376 -9.980267284282716 0
      vertex -1.8738131458572482 -9.822872507286887 0
    endloop
  endfacet
  facet normal 0 -1 0
    outer loop
      vertex -0.6279051952931376 -9.980267284282716 -7.5
      vertex 0.6279051952931376 -9.980267284282716 0
      vertex -0.6279051952931376 -9.980267284282716 0
    endloop
  endfacet
  facet normal 0 0 1
    outer loop
      vertex -3.090169943749474 -9.510565162951535 0
      vertex -1.8738131458572482 -9.822872507286887 0
      vertex -2.957125000655651 -5.1218907460570335 0
    endloop
  endfacet
  facet normal 0 0 1
    outer loop
      vertex -4.257792915650724 -9.048270524660197 0
      vertex -3.090169943749474 -9.510565162951535 0
      vertex -5.914250001311302 0 0
    endloop
  endfacet
  facet normal 0 0 1
    outer loop
      vertex -1.8738131458572482 -9.822872507286887 0
      vertex -0.6279051952931376 -9.980267284282716 0
      vertex -2.957125000655651 -5.1218907460570335 0
    endloop
  endfacet
  facet normal 0 0 1
    outer loop
      vertex -0.6279051952931376 -9.980267284282716 0
      vertex 0.6279051952931376 -9.980267284282716 0
      vertex -2.957125000655651 -5.1218907460570335 0
    endloop
  endfacet
  facet normal 0 0 1
    outer loop
      vertex 0.6279051952931376 -9.980267284282716 0
      vertex 1.8738131458572482 -9.822872507286887 0
      vertex -2.957125000655651 -5.1218907460570335 0
    endloop
  endfacet
  facet normal 0 0 1
    outer loop
      vertex -3.090169943749474 -9.510565162951535 0
      vertex -2.957125000655651 -5.1218907460570335 0
      vertex -5.914250001311302 0 0
    endloop
  endfacet
  facet normal 0 0 -1
    outer loop
      vertex -9.921147013144779 -1.2533323356430406 -7.5
      vertex -10 0 -7.5
      vertex -9.921147013144779 1.2533323356430406 -7.5
    endloop
  endfacet
  facet normal 0 0 -1
    outer loop
      vertex -9.921147013144779 -1.2533323356430406 -7.5
      vertex -9.921147013144779 1.2533323356430406 -7.5
      vertex -9.68583161128631 2.4868988716485485 -7.5
    endloop
  endfacet
  facet normal 0 0 -1
    outer loop
      vertex -9.68583161128631 -2.4868988716485485 -7.5
      vertex -9.68583161128631 2.4868988716485485 -7.5
      vertex -9.297764858882514 3.6812455268467787 -7.5
    endloop
  endfacet
  facet normal 0 0 -1
    outer loop
      vertex -9.297764858882514 -3.6812455268467787 -7.5
      vertex -9.297764858882514 3.6812455268467787 -7.5
      vertex -8.763066800438635 4.817536741017154 -7.5
    endloop
  endfacet
  facet normal 0 0 -1
    outer loop
      vertex -8.763066800438635 -4.817536741017154 -7.5
      vertex -8.763066800438635 4.817536741017154 -7.5
      vertex -8.090169943749475 5.877852522924732 -7.5
    endloop
  endfacet
  facet normal 0 0 -1
    outer loop
      vertex -8.090169943749475 -5.877852522924732 -7.5
      vertex -8.090169943749475 5.877852522924732 -7.5
      vertex -7.289686274214117 6.845471059286885 -7.5
    endloop
  endfacet
  facet normal 0 0 -1
    outer loop
      vertex -7.289686274214117 -6.845471059286885 -7.5
      vertex -7.289686274214117 6.845471059286885 -7.5
      vertex -6.374239897486897 7.705132427757894 -7.5
    endloop
  endfacet
  facet normal 0 0 -1
    outer loop
      vertex -6.374239897486897 -7.705132427757894 -7.5
      vertex -6.374239897486897 7.705132427757894 -7.5
      vertex -5.358267949789967 8.44327925502015 -7.5
    endloop
  endfacet
  facet normal -0.9980267284282716 0.06279051952931293 0
    outer loop
      vertex -10 0 -7.5
      vertex -9.921147013144779 1.2533323356430406 0
      vertex -9.921147013144779 1.2533323356430406 -7.5
    endloop
  endfacet
  facet normal -0.9822872507286886 0.18738131458572513 0
    outer loop
      vertex -9.921147013144779 1.2533323356430406 -7.5
      vertex -9.68583161128631 2.4868988716485485 0
      vertex -9.68583161128631 2.4868988716485485 -7.5
    endloop
  endfacet
  facet normal -0.9510565162951536 0.30901699437494723 0
    outer loop
      vertex -9.68583161128631 2.4868988716485485 -7.5
      vertex -9.297764858882514 3.6812455268467787 0
      vertex -9.297764858882514 3.6812455268467787 -7.5
    endloop
  endfacet
  facet normal -0.9048270524660194 0.42577929156507294 0
    outer loop
      vertex -9.297764858882514 3.6812455268467787 -7.5
      vertex -8.763066800438635 4.817536741017154 0
      vertex -8.763066800438635 4.817536741017154 -7.5
    endloop
  endfacet
  facet normal -0.8443279255020154 0.535826794978996 0
    outer loop
      vertex -8.763066800438635 4.817536741017154 -7.5
      vertex -8.090169943749475 5.877852522924732 0
      vertex -8.090169943749475 5.877852522924732 -7.5
    endloop
  endfacet
  facet normal -0.7705132427757888 0.6374239897486901 0
    outer loop
      vertex -8.090169943749475 5.877852522924732 -7.5
      vertex -7.289686274214117 6.845471059286885 0
      vertex -7.289686274214117 6.845471059286885 -7.5
    endloop
  endfacet
  facet normal -0.6845471059286894 0.7289686274214109 0
    outer loop
      vertex -7.289686274214117 6.845471059286885 -7.5
      vertex -7.289686274214117 6.845471059286885 0
      vertex -6.374239897486897 7.705132427757894 -7.5
    endloop
  endfacet
  facet normal -0.5877852522924722 0.8090169943749481 0
    outer loop
      vertex -6.374239897486897 7.705132427757894 -7.5
      vertex -6.374239897486897 7.705132427757894 0
      vertex -5.358267949789967 8.44327925502015 -7.5
    endloop
  endfacet
  facet normal 0 0 -1
    outer loop
      vertex -4.257792915650724 -9.048270524660197 -7.5
      vertex -3.090169943749474 9.510565162951535 -7.5
      vertex -3.25 0 -7.5
    endloop
  endfacet
  facet normal 0 0 -1
    outer loop
      vertex -5.358267949789967 -8.44327925502015 -7.5
      vertex -5.358267949789967 8.44327925502015 -7.5
      vertex -4.257792915650727 9.048270524660195 -7.5
    endloop
  endfacet
  facet normal 0 0 -1
    outer loop
      vertex -4.257792915650724 -9.048270524660197 -7.5
      vertex -4.257792915650727 9.048270524660195 -7.5
      vertex -3.090169943749474 9.510565162951535 -7.5
    endloop
  endfacet
  facet normal 0 0 -1
    outer loop
      vertex -3.090169943749474 9.510565162951535 -7.5
      vertex -3.224372779272053 0.40733300908398823 -7.5
      vertex -3.25 0 -7.5
    endloop
  endfacet
  facet normal 0 0 -1
    outer loop
      vertex -3.090169943749474 9.510565162951535 -7.5
      vertex -3.147895273668051 0.8082421332857783 -7.5
      vertex -3.224372779272053 0.40733300908398823 -7.5
    endloop
  endfacet
  facet normal 0 0 -1
    outer loop
      vertex -3.090169943749474 9.510565162951535 -7.5
      vertex -3.021773579136817 1.1964047962252031 -7.5
      vertex -3.147895273668051 0.8082421332857783 -7.5
    endloop
  endfacet
  facet normal 0 0 -1
    outer loop
      vertex -3.090169943749474 9.510565162951535 -7.5
      vertex -2.8479967101425565 1.5656994408305749 -7.5
      vertex -3.021773579136817 1.1964047962252031 -7.5
    endloop
  endfacet
  facet normal 0 0 -1
    outer loop
      vertex -3.090169943749474 9.510565162951535 -7.5
      vertex -2.629305231718579 1.9103020699505378 -7.5
      vertex -2.8479967101425565 1.5656994408305749 -7.5
    endloop
  endfacet
  facet normal 0 0 -1
    outer loop
      vertex -1.8738131458572458 9.822872507286887 -7.5
      vertex -2.369148039119588 2.224778094268238 -7.5
      vertex -2.629305231718579 1.9103020699505378 -7.5
    endloop
  endfacet
  facet normal 0 0 -1
    outer loop
      vertex -1.8738131458572458 9.822872507286887 -7.5
      vertex -2.0716279666832413 2.5041680390213155 -7.5
      vertex -2.369148039119588 2.224778094268238 -7.5
    endloop
  endfacet
  facet normal 0 0 -1
    outer loop
      vertex -3.090169943749474 9.510565162951535 -7.5
      vertex -1.8738131458572458 9.822872507286887 -7.5
      vertex -2.629305231718579 1.9103020699505378 -7.5
    endloop
  endfacet
  facet normal 0 0 -1
    outer loop
      vertex -1.8738131458572458 9.822872507286887 -7.5
      vertex -1.7414370836817394 2.7440657578815486 -7.5
      vertex -2.0716279666832413 2.5041680390213155 -7.5
    endloop
  endfacet
  facet normal 0 0 -1
    outer loop
      vertex -1.8738131458572458 9.822872507286887 -7.5
      vertex -1.3837826975864864 2.9406879205145633 -7.5
      vertex -1.7414370836817394 2.7440657578815486 -7.5
    endloop
  endfacet
  facet normal 0 0 -1
    outer loop
      vertex -0.6279051952931327 9.980267284282716 -7.5
      vertex -1.004305231718579 3.090933677959249 -7.5
      vertex -1.3837826975864864 2.9406879205145633 -7.5
    endloop
  endfacet
  facet normal 0 0 -1
    outer loop
      vertex -0.6279051952931327 9.980267284282716 -7.5
      vertex -0.6089892724036049 3.1924335648682383 -7.5
      vertex -1.004305231718579 3.090933677959249 -7.5
    endloop
  endfacet
  facet normal 0 0 -1
    outer loop
      vertex -0.6279051952931327 9.980267284282716 -7.5
      vertex -0.20406918847026814 3.2435868673918824 -7.5
      vertex -0.6089892724036049 3.1924335648682383 -7.5
    endloop
  endfacet
  facet normal 0 0 -1
    outer loop
      vertex -1.8738131458572458 9.822872507286887 -7.5
      vertex -0.6279051952931327 9.980267284282716 -7.5
      vertex -1.3837826975864864 2.9406879205145633 -7.5
    endloop
  endfacet
  facet normal 0 0 -1
    outer loop
      vertex -0.6279051952931327 9.980267284282716 -7.5
      vertex 0.6279051952931327 9.980267284282716 -7.5
      vertex -0.20406918847026814 3.2435868673918824 -7.5
    endloop
  endfacet
  facet normal -0.48175367410171566 0.8763066800438634 0
    outer loop
      vertex -5.358267949789967 8.44327925502015 -7.5
      vertex -5.358267949789967 8.44327925502015 0
      vertex -4.257792915650727 9.048270524660195 -7.5
    endloop
  endfacet
  facet normal -0.36812455268467725 0.9297764858882517 0
    outer loop
      vertex -4.257792915650727 9.048270524660195 -7.5
      vertex -4.257792915650727 9.048270524660195 0
      vertex -3.090169943749474 9.510565162951535 -7.5
    endloop
  endfacet
  facet normal -0.24868988716485535 0.9685831611286311 0
    outer loop
      vertex -3.090169943749474 9.510565162951535 -7.5
      vertex -3.090169943749474 9.510565162951535 0
      vertex -1.8738131458572458 9.822872507286887 -7.5
    endloop
  endfacet
  facet normal -0.1253332335643047 0.9921147013144777 0
    outer loop
      vertex -1.8738131458572458 9.822872507286887 -7.5
      vertex -1.8738131458572458 9.822872507286887 0
      vertex -0.6279051952931327 9.980267284282716 -7.5
    endloop
  endfacet
  facet normal 0 1 0
    outer loop
      vertex -0.6279051952931327 9.980267284282716 -7.5
      vertex -0.6279051952931327 9.980267284282716 0
      vertex 0.6279051952931327 9.980267284282716 -7.5
    endloop
  endfacet
  facet normal -0.9980267284282716 0.06279051952931293 0
    outer loop
      vertex -10 0 -7.5
      vertex -10 0 0
      vertex -9.921147013144779 1.2533323356430406 0
    endloop
  endfacet
  facet normal -0.9822872507286886 0.18738131458572513 0
    outer loop
      vertex -9.921147013144779 1.2533323356430406 -7.5
      vertex -9.921147013144779 1.2533323356430406 0
      vertex -9.68583161128631 2.4868988716485485 0
    endloop
  endfacet
  facet normal -0.9510565162951536 0.30901699437494723 0
    outer loop
      vertex -9.68583161128631 2.4868988716485485 -7.5
      vertex -9.68583161128631 2.4868988716485485 0
      vertex -9.297764858882514 3.6812455268467787 0
    endloop
  endfacet
  facet normal -0.9048270524660194 0.42577929156507294 0
    outer loop
      vertex -9.297764858882514 3.6812455268467787 -7.5
      vertex -9.297764858882514 3.6812455268467787 0
      vertex -8.763066800438635 4.817536741017154 0
    endloop
  endfacet
  facet normal 0 0 1
    outer loop
      vertex -9.921147013144779 -1.2533323356430406 0
      vertex -9.921147013144779 1.2533323356430406 0
      vertex -10 0 0
    endloop
  endfacet
  facet normal 0 0 1
    outer loop
      vertex -9.68583161128631 -2.4868988716485485 0
      vertex -9.68583161128631 2.4868988716485485 0
      vertex -9.921147013144779 1.2533323356430406 0
    endloop
  endfacet
  facet normal 0 0 1
    outer loop
      vertex -9.297764858882514 -3.6812455268467787 0
      vertex -9.297764858882514 3.6812455268467787 0
      vertex -9.68583161128631 2.4868988716485485 0
    endloop
  endfacet
  facet normal 0 0 1
    outer loop
      vertex -8.763066800438635 -4.817536741017154 0
      vertex -8.763066800438635 4.817536741017154 0
      vertex -9.297764858882514 3.6812455268467787 0
    endloop
  endfacet
  facet normal 0 0 1
    outer loop
      vertex -8.090169943749475 -5.877852522924732 0
      vertex -8.090169943749475 5.877852522924732 0
      vertex -8.763066800438635 4.817536741017154 0
    endloop
  endfacet
  facet normal 0 0 1
    outer loop
      vertex -7.289686274214117 -6.845471059286885 0
      vertex -7.289686274214117 6.845471059286885 0
      vertex -8.090169943749475 5.877852522924732 0
    endloop
  endfacet
  facet normal 0 0 1
    outer loop
      vertex -6.374239897486897 -7.705132427757894 0
      vertex -6.374239897486897 7.705132427757894 0
      vertex -7.289686274214117 6.845471059286885 0
    endloop
  endfacet
  facet normal 0 0 1
    outer loop
      vertex -6.374239897486897 -7.705132427757894 0
      vertex -5.914250001311302 0 0
      vertex -6.374239897486897 7.705132427757894 0
    endloop
  endfacet
  facet normal 0 0 1
    outer loop
      vertex -6.374239897486897 7.705132427757894 0
      vertex -5.914250001311302 0 0
      vertex -2.957125000655651 5.1218907460570335 0
    endloop
  endfacet
  facet normal -0.8443279255020154 0.535826794978996 0
    outer loop
      vertex -8.763066800438635 4.817536741017154 -7.5
      vertex -8.763066800438635 4.817536741017154 0
      vertex -8.090169943749475 5.877852522924732 0
    endloop
  endfacet
  facet normal -0.7705132427757888 0.6374239897486901 0
    outer loop
      vertex -8.090169943749475 5.877852522924732 -7.5
      vertex -8.090169943749475 5.877852522924732 0
      vertex -7.289686274214117 6.845471059286885 0
    endloop
  endfacet
  facet normal -0.6845471059286894 0.7289686274214109 0
    outer loop
      vertex -6.374239897486897 7.705132427757894 -7.5
      vertex -7.289686274214117 6.845471059286885 0
      vertex -6.374239897486897 7.705132427757894 0
    endloop
  endfacet
  facet normal -0.5877852522924722 0.8090169943749481 0
    outer loop
      vertex -5.358267949789967 8.44327925502015 -7.5
      vertex -6.374239897486897 7.705132427757894 0
      vertex -5.358267949789967 8.44327925502015 0
    endloop
  endfacet
  facet normal -0.48175367410171566 0.8763066800438634 0
    outer loop
      vertex -4.257792915650727 9.048270524660195 -7.5
      vertex -5.358267949789967 8.44327925502015 0
      vertex -4.257792915650727 9.048270524660195 0
    endloop
  endfacet
  facet normal -0.36812455268467725 0.9297764858882517 0
    outer loop
      vertex -3.090169943749474 9.510565162951535 -7.5
      vertex -4.257792915650727 9.048270524660195 0
      vertex -3.090169943749474 9.510565162951535 0
    endloop
  endfacet
  facet normal -0.24868988716485535 0.9685831611286311 0
    outer loop
      vertex -1.8738131458572458 9.822872507286887 -7.5
      vertex -3.090169943749474 9.510565162951535 0
      vertex -1.8738131458572458 9.822872507286887 0
    endloop
  endfacet
  facet normal -0.1253332335643047 0.9921147013144777 0
    outer loop
      vertex -0.6279051952931327 9.980267284282716 -7.5
      vertex -1.8738131458572458 9.822872507286887 0
      vertex -0.6279051952931327 9.980267284282716 0
    endloop
  endfacet
  facet normal 0 0 1
    outer loop
      vertex -6.374239897486897 7.705132427757894 0
      vertex -2.957125000655651 5.1218907460570335 0
      vertex -5.358267949789967 8.44327925502015 0
    endloop
  endfacet
  facet normal 0 0 1
    outer loop
      vertex -5.358267949789967 8.44327925502015 0
      vertex -2.957125000655651 5.1218907460570335 0
      vertex -4.257792915650727 9.048270524660195 0
    endloop
  endfacet
  facet normal 0 0 1
    outer loop
      vertex -4.257792915650727 9.048270524660195 0
      vertex -2.957125000655651 5.1218907460570335 0
      vertex -3.090169943749474 9.510565162951535 0
    endloop
  endfacet
  facet normal 0 0 1
    outer loop
      vertex -3.090169943749474 9.510565162951535 0
      vertex -2.957125000655651 5.1218907460570335 0
      vertex 2.957125000655651 5.1218907460570335 0
    endloop
  endfacet
  facet normal 0 0 1
    outer loop
      vertex -3.090169943749474 9.510565162951535 0
      vertex 2.957125000655651 5.1218907460570335 0
      vertex -1.8738131458572458 9.822872507286887 0
    endloop
  endfacet
  facet normal 0 0 -1
    outer loop
      vertex -0.6279051952931376 -9.980267284282716 -7.5
      vertex 0.20406918847026972 -3.2435868673918824 -7.5
      vertex 0.6279051952931376 -9.980267284282716 -7.5
    endloop
  endfacet
  facet normal 0 0 -1
    outer loop
      vertex 0.6279051952931376 -9.980267284282716 -7.5
      vertex 1.3837826975864855 -2.9406879205145637 -7.5
      vertex 1.8738131458572482 -9.822872507286887 -7.5
    endloop
  endfacet
  facet normal 0 0 -1
    outer loop
      vertex 0.6279051952931376 -9.980267284282716 -7.5
      vertex 0.20406918847026972 -3.2435868673918824 -7.5
      vertex 0.6089892724036057 -3.192433564868238 -7.5
    endloop
  endfacet
  facet normal 0 0 -1
    outer loop
      vertex 0.6279051952931376 -9.980267284282716 -7.5
      vertex 0.6089892724036057 -3.192433564868238 -7.5
      vertex 1.004305231718579 -3.090933677959249 -7.5
    endloop
  endfacet
  facet normal 0 0 -1
    outer loop
      vertex 0.6279051952931376 -9.980267284282716 -7.5
      vertex 1.004305231718579 -3.090933677959249 -7.5
      vertex 1.3837826975864855 -2.9406879205145637 -7.5
    endloop
  endfacet
  facet normal 0 0 -1
    outer loop
      vertex 1.8738131458572482 -9.822872507286887 -7.5
      vertex 1.3837826975864855 -2.9406879205145637 -7.5
      vertex 1.7414370836817377 -2.7440657578815495 -7.5
    endloop
  endfacet
  facet normal 0 0 -1
    outer loop
      vertex 1.8738131458572482 -9.822872507286887 -7.5
      vertex 1.7414370836817377 -2.7440657578815495 -7.5
      vertex 2.0716279666832422 -2.504168039021314 -7.5
    endloop
  endfacet
  facet normal 0 0 -1
    outer loop
      vertex 1.8738131458572482 -9.822872507286887 -7.5
      vertex 2.629305231718579 -1.9103020699505378 -7.5
      vertex 3.090169943749474 -9.510565162951535 -7.5
    endloop
  endfacet
  facet normal 0 -1 0
    outer loop
      vertex -0.6279051952931376 -9.980267284282716 -7.5
      vertex 0.6279051952931376 -9.980267284282716 -7.5
      vertex 0.6279051952931376 -9.980267284282716 0
    endloop
  endfacet
  facet normal 0.12533323356430498 -0.9921147013144779 0
    outer loop
      vertex 0.6279051952931376 -9.980267284282716 -7.5
      vertex 1.8738131458572482 -9.822872507286887 -7.5
      vertex 1.8738131458572482 -9.822872507286887 0
    endloop
  endfacet
  facet normal 0.2486898871648558 -0.968583161128631 0
    outer loop
      vertex 1.8738131458572482 -9.822872507286887 -7.5
      vertex 3.090169943749474 -9.510565162951535 -7.5
      vertex 3.090169943749474 -9.510565162951535 0
    endloop
  endfacet
  facet normal 0.36812455268467675 -0.9297764858882519 0
    outer loop
      vertex 3.090169943749474 -9.510565162951535 -7.5
      vertex 4.257792915650724 -9.048270524660197 -7.5
      vertex 4.257792915650724 -9.048270524660197 0
    endloop
  endfacet
  facet normal 0.48175367410171543 -0.8763066800438634 0
    outer loop
      vertex 4.257792915650724 -9.048270524660197 -7.5
      vertex 5.358267949789962 -8.443279255020153 -7.5
      vertex 5.358267949789962 -8.443279255020153 0
    endloop
  endfacet
  facet normal 0 0 -1
    outer loop
      vertex 1.8738131458572482 -9.822872507286887 -7.5
      vertex 2.0716279666832422 -2.504168039021314 -7.5
      vertex 2.369148039119588 -2.224778094268238 -7.5
    endloop
  endfacet
  facet normal 0 0 -1
    outer loop
      vertex 1.8738131458572482 -9.822872507286887 -7.5
      vertex 2.369148039119588 -2.224778094268238 -7.5
      vertex 2.629305231718579 -1.9103020699505378 -7.5
    endloop
  endfacet
  facet normal 0 0 -1
    outer loop
      vertex 3.090169943749474 -9.510565162951535 -7.5
      vertex 2.629305231718579 -1.9103020699505378 -7.5
      vertex 2.8479967101425565 -1.5656994408305749 -7.5
    endloop
  endfacet
  facet normal 0 0 -1
    outer loop
      vertex 3.090169943749474 -9.510565162951535 -7.5
      vertex 2.8479967101425565 -1.5656994408305749 -7.5
      vertex 3.0217735791368163 -1.1964047962252047 -7.5
    endloop
  endfacet
  facet normal 0 0 -1
    outer loop
      vertex 3.090169943749474 -9.510565162951535 -7.5
      vertex 3.0217735791368163 -1.1964047962252047 -7.5
      vertex 3.1478952736680514 -0.8082421332857769 -7.5
    endloop
  endfacet
  facet normal 0 0 -1
    outer loop
      vertex 3.090169943749474 -9.510565162951535 -7.5
      vertex 3.1478952736680514 -0.8082421332857769 -7.5
      vertex 3.224372779272053 -0.40733300908398823 -7.5
    endloop
  endfacet
  facet normal 0 0 -1
    outer loop
      vertex 3.090169943749474 -9.510565162951535 -7.5
      vertex 3.224372779272053 -0.40733300908398823 -7.5
      vertex 3.25 0 -7.5
    endloop
  endfacet
  facet normal 0 0 -1
    outer loop
      vertex 3.090169943749474 -9.510565162951535 -7.5
      vertex 4.257792915650727 9.048270524660195 -7.5
      vertex 4.257792915650724 -9.048270524660197 -7.5
    endloop
  endfacet
  facet normal 0 0 -1
    outer loop
      vertex 4.257792915650724 -9.048270524660197 -7.5
      vertex 5.358267949789966 8.443279255020151 -7.5
      vertex 5.358267949789962 -8.443279255020153 -7.5
    endloop
  endfacet
  facet normal 0 0 -1
    outer loop
      vertex 3.090169943749474 -9.510565162951535 -7.5
      vertex 3.25 0 -7.5
      vertex 4.257792915650727 9.048270524660195 -7.5
    endloop
  endfacet
  facet normal 0.5877852522924726 -0.8090169943749479 0
    outer loop
      vertex 5.358267949789962 -8.443279255020153 -7.5
      vertex 6.3742398974869 -7.70513242775789 -7.5
      vertex 6.3742398974869 -7.70513242775789 0
    endloop
  endfacet
  facet normal 0.6845471059286893 -0.7289686274214109 0
    outer loop
      vertex 6.3742398974869 -7.70513242775789 -7.5
      vertex 7.289686274214117 -6.845471059286885 -7.5
      vertex 7.289686274214117 -6.845471059286885 0
    endloop
  endfacet
  facet normal 0.7705132427757888 -0.6374239897486901 0
    outer loop
      vertex 7.289686274214117 -6.845471059286885 -7.5
      vertex 8.090169943749475 -5.877852522924732 -7.5
      vertex 7.289686274214117 -6.845471059286885 0
    endloop
  endfacet
  facet normal 0.8443279255020154 -0.535826794978996 0
    outer loop
      vertex 8.090169943749475 -5.877852522924732 -7.5
      vertex 8.763066800438635 -4.817536741017154 -7.5
      vertex 8.090169943749475 -5.877852522924732 0
    endloop
  endfacet
  facet normal 0 0 -1
    outer loop
      vertex 5.358267949789962 -8.443279255020153 -7.5
      vertex 6.3742398974868975 7.705132427757891 -7.5
      vertex 6.3742398974869 -7.70513242775789 -7.5
    endloop
  endfacet
  facet normal 0 0 -1
    outer loop
      vertex 6.3742398974869 -7.70513242775789 -7.5
      vertex 7.289686274214116 6.845471059286887 -7.5
      vertex 7.289686274214117 -6.845471059286885 -7.5
    endloop
  endfacet
  facet normal 0 0 -1
    outer loop
      vertex 7.289686274214117 -6.845471059286885 -7.5
      vertex 8.090169943749475 5.877852522924732 -7.5
      vertex 8.090169943749475 -5.877852522924732 -7.5
    endloop
  endfacet
  facet normal 0 0 -1
    outer loop
      vertex 8.090169943749475 -5.877852522924732 -7.5
      vertex 8.763066800438637 4.817536741017153 -7.5
      vertex 8.763066800438635 -4.817536741017154 -7.5
    endloop
  endfacet
  facet normal 0 0 -1
    outer loop
      vertex 8.763066800438635 -4.817536741017154 -7.5
      vertex 9.297764858882513 3.6812455268467796 -7.5
      vertex 9.297764858882513 -3.6812455268467836 -7.5
    endloop
  endfacet
  facet normal 0 0 -1
    outer loop
      vertex 9.297764858882513 -3.6812455268467836 -7.5
      vertex 9.68583161128631 2.486898871648548 -7.5
      vertex 9.685831611286313 -2.4868988716485445 -7.5
    endloop
  endfacet
  facet normal 0 0 -1
    outer loop
      vertex 9.685831611286313 -2.4868988716485445 -7.5
      vertex 9.921147013144779 1.2533323356430426 -7.5
      vertex 9.921147013144779 -1.2533323356430406 -7.5
    endloop
  endfacet
  facet normal 0.9048270524660191 -0.42577929156507327 0
    outer loop
      vertex 8.763066800438635 -4.817536741017154 -7.5
      vertex 9.297764858882513 -3.6812455268467836 -7.5
      vertex 8.763066800438635 -4.817536741017154 0
    endloop
  endfacet
  facet normal 0.9510565162951534 -0.3090169943749477 0
    outer loop
      vertex 9.297764858882513 -3.6812455268467836 -7.5
      vertex 9.685831611286313 -2.4868988716485445 -7.5
      vertex 9.297764858882513 -3.6812455268467836 0
    endloop
  endfacet
  facet normal 0.9822872507286887 -0.18738131458572435 0
    outer loop
      vertex 9.685831611286313 -2.4868988716485445 -7.5
      vertex 9.921147013144779 -1.2533323356430406 -7.5
      vertex 9.685831611286313 -2.4868988716485445 0
    endloop
  endfacet
  facet normal 0.9980267284282716 -0.06279051952931293 0
    outer loop
      vertex 9.921147013144779 -1.2533323356430406 -7.5
      vertex 10 0 -7.5
      vertex 9.921147013144779 -1.2533323356430406 0
    endloop
  endfacet
  facet normal 0.12533323356430498 -0.9921147013144779 0
    outer loop
      vertex 0.6279051952931376 -9.980267284282716 -7.5
      vertex 1.8738131458572482 -9.822872507286887 0
      vertex 0.6279051952931376 -9.980267284282716 0
    endloop
  endfacet
  facet normal 0.2486898871648558 -0.968583161128631 0
    outer loop
      vertex 1.8738131458572482 -9.822872507286887 -7.5
      vertex 3.090169943749474 -9.510565162951535 0
      vertex 1.8738131458572482 -9.822872507286887 0
    endloop
  endfacet
  facet normal 0.36812455268467675 -0.9297764858882519 0
    outer loop
      vertex 3.090169943749474 -9.510565162951535 -7.5
      vertex 4.257792915650724 -9.048270524660197 0
      vertex 3.090169943749474 -9.510565162951535 0
    endloop
  endfacet
  facet normal 0.48175367410171543 -0.8763066800438634 0
    outer loop
      vertex 4.257792915650724 -9.048270524660197 -7.5
      vertex 5.358267949789962 -8.443279255020153 0
      vertex 4.257792915650724 -9.048270524660197 0
    endloop
  endfacet
  facet normal 0 0 1
    outer loop
      vertex 1.8738131458572482 -9.822872507286887 0
      vertex 3.090169943749474 -9.510565162951535 0
      vertex -2.957125000655651 -5.1218907460570335 0
    endloop
  endfacet
  facet normal 0 0 1
    outer loop
      vertex 3.090169943749474 -9.510565162951535 0
      vertex 2.957125000655651 -5.1218907460570335 0
      vertex -2.957125000655651 -5.1218907460570335 0
    endloop
  endfacet
  facet normal 0 0 1
    outer loop
      vertex 3.090169943749474 -9.510565162951535 0
      vertex 4.257792915650724 -9.048270524660197 0
      vertex 2.957125000655651 -5.1218907460570335 0
    endloop
  endfacet
  facet normal 0 0 1
    outer loop
      vertex 4.257792915650724 -9.048270524660197 0
      vertex 5.358267949789962 -8.443279255020153 0
      vertex 2.957125000655651 -5.1218907460570335 0
    endloop
  endfacet
  facet normal 0 0 1
    outer loop
      vertex 5.358267949789962 -8.443279255020153 0
      vertex 6.3742398974869 -7.70513242775789 0
      vertex 2.957125000655651 -5.1218907460570335 0
    endloop
  endfacet
  facet normal 0.5877852522924726 -0.8090169943749479 0
    outer loop
      vertex 5.358267949789962 -8.443279255020153 -7.5
      vertex 6.3742398974869 -7.70513242775789 0
      vertex 5.358267949789962 -8.443279255020153 0
    endloop
  endfacet
  facet normal 0.6845471059286893 -0.7289686274214109 0
    outer loop
      vertex 6.3742398974869 -7.70513242775789 -7.5
      vertex 7.289686274214117 -6.845471059286885 0
      vertex 6.3742398974869 -7.70513242775789 0
    endloop
  endfacet
  facet normal 0.7705132427757888 -0.6374239897486901 0
    outer loop
      vertex 8.090169943749475 -5.877852522924732 -7.5
      vertex 8.090169943749475 -5.877852522924732 0
      vertex 7.289686274214117 -6.845471059286885 0
    endloop
  endfacet
  facet normal 0.8443279255020154 -0.535826794978996 0
    outer loop
      vertex 8.763066800438635 -4.817536741017154 -7.5
      vertex 8.763066800438635 -4.817536741017154 0
      vertex 8.090169943749475 -5.877852522924732 0
    endloop
  endfacet
  facet normal 0.9048270524660191 -0.42577929156507327 0
    outer loop
      vertex 9.297764858882513 -3.6812455268467836 -7.5
      vertex 9.297764858882513 -3.6812455268467836 0
      vertex 8.763066800438635 -4.817536741017154 0
    endloop
  endfacet
  facet normal 0.9510565162951534 -0.3090169943749477 0
    outer loop
      vertex 9.685831611286313 -2.4868988716485445 -7.5
      vertex 9.685831611286313 -2.4868988716485445 0
      vertex 9.297764858882513 -3.6812455268467836 0
    endloop
  endfacet
  facet normal 0.9822872507286887 -0.18738131458572435 0
    outer loop
      vertex 9.921147013144779 -1.2533323356430406 -7.5
      vertex 9.921147013144779 -1.2533323356430406 0
      vertex 9.685831611286313 -2.4868988716485445 0
    endloop
  endfacet
  facet normal 0.9980267284282716 -0.06279051952931293 0
    outer loop
      vertex 9.921147013144779 -1.2533323356430406 0
      vertex 10 0 -7.5
      vertex 10 0 0
    endloop
  endfacet
  facet normal 0 0 1
    outer loop
      vertex 6.3742398974869 -7.70513242775789 0
      vertex 5.914250001311302 0 0
      vertex 2.957125000655651 -5.1218907460570335 0
    endloop
  endfacet
  facet normal 0 0 1
    outer loop
      vertex 6.3742398974869 -7.70513242775789 0
      vertex 7.289686274214117 -6.845471059286885 0
      vertex 6.3742398974868975 7.705132427757891 0
    endloop
  endfacet
  facet normal 0 0 1
    outer loop
      vertex 7.289686274214117 -6.845471059286885 0
      vertex 8.090169943749475 -5.877852522924732 0
      vertex 7.289686274214116 6.845471059286887 0
    endloop
  endfacet
  facet normal 0 0 1
    outer loop
      vertex 8.090169943749475 -5.877852522924732 0
      vertex 8.763066800438635 -4.817536741017154 0
      vertex 8.090169943749475 5.877852522924732 0
    endloop
  endfacet
  facet normal 0 0 1
    outer loop
      vertex 8.763066800438635 -4.817536741017154 0
      vertex 9.297764858882513 -3.6812455268467836 0
      vertex 8.763066800438637 4.817536741017153 0
    endloop
  endfacet
  facet normal 0 0 1
    outer loop
      vertex 9.297764858882513 -3.6812455268467836 0
      vertex 9.685831611286313 -2.4868988716485445 0
      vertex 9.297764858882513 3.6812455268467796 0
    endloop
  endfacet
  facet normal 0 0 1
    outer loop
      vertex 9.685831611286313 -2.4868988716485445 0
      vertex 9.921147013144779 -1.2533323356430406 0
      vertex 9.68583161128631 2.486898871648548 0
    endloop
  endfacet
  facet normal 0 0 -1
    outer loop
      vertex 3.090169943749474 9.510565162951535 -7.5
      vertex 2.071627966683242 2.5041680390213146 -7.5
      vertex 1.7414370836817392 2.744065757881549 -7.5
    endloop
  endfacet
  facet normal 0 0 -1
    outer loop
      vertex 4.257792915650727 9.048270524660195 -7.5
      vertex 3.25 0 -7.5
      vertex 3.224372779272053 0.40733300908398884 -7.5
    endloop
  endfacet
  facet normal 0 0 -1
    outer loop
      vertex 4.257792915650727 9.048270524660195 -7.5
      vertex 3.224372779272053 0.40733300908398884 -7.5
      vertex 3.147895273668051 0.8082421332857781 -7.5
    endloop
  endfacet
  facet normal 0 0 -1
    outer loop
      vertex 4.257792915650727 9.048270524660195 -7.5
      vertex 3.147895273668051 0.8082421332857781 -7.5
      vertex 3.0217735791368168 1.1964047962252033 -7.5
    endloop
  endfacet
  facet normal 0 0 -1
    outer loop
      vertex 3.090169943749474 9.510565162951535 -7.5
      vertex 2.8479967101425565 1.5656994408305749 -7.5
      vertex 2.629305231718579 1.9103020699505378 -7.5
    endloop
  endfacet
  facet normal 0 0 -1
    outer loop
      vertex 3.090169943749474 9.510565162951535 -7.5
      vertex 3.0217735791368168 1.1964047962252033 -7.5
      vertex 2.8479967101425565 1.5656994408305749 -7.5
    endloop
  endfacet
  facet normal 0 0 -1
    outer loop
      vertex 3.090169943749474 9.510565162951535 -7.5
      vertex 2.629305231718579 1.9103020699505378 -7.5
      vertex 2.3691480391195876 2.2247780942682382 -7.5
    endloop
  endfacet
  facet normal 0 0 -1
    outer loop
      vertex 3.090169943749474 9.510565162951535 -7.5
      vertex 2.3691480391195876 2.2247780942682382 -7.5
      vertex 2.071627966683242 2.5041680390213146 -7.5
    endloop
  endfacet
  facet normal 0 0 -1
    outer loop
      vertex 4.257792915650724 -9.048270524660197 -7.5
      vertex 4.257792915650727 9.048270524660195 -7.5
      vertex 5.358267949789966 8.443279255020151 -7.5
    endloop
  endfacet
  facet normal 0 0 -1
    outer loop
      vertex 0.6279051952931327 9.980267284282716 -7.5
      vertex 0.20406918847026653 3.2435868673918824 -7.5
      vertex -0.20406918847026814 3.2435868673918824 -7.5
    endloop
  endfacet
  facet normal 0 0 -1
    outer loop
      vertex 1.8738131458572458 9.822872507286887 -7.5
      vertex 0.6089892724036049 3.1924335648682383 -7.5
      vertex 0.20406918847026653 3.2435868673918824 -7.5
    endloop
  endfacet
  facet normal 0 0 -1
    outer loop
      vertex 1.8738131458572458 9.822872507286887 -7.5
      vertex 1.004305231718579 3.090933677959249 -7.5
      vertex 0.6089892724036049 3.1924335648682383 -7.5
    endloop
  endfacet
  facet normal 0 0 -1
    outer loop
      vertex 1.8738131458572458 9.822872507286887 -7.5
      vertex 1.3837826975864864 2.9406879205145633 -7.5
      vertex 1.004305231718579 3.090933677959249 -7.5
    endloop
  endfacet
  facet normal 0 0 -1
    outer loop
      vertex 1.8738131458572458 9.822872507286887 -7.5
      vertex 1.7414370836817392 2.744065757881549 -7.5
      vertex 1.3837826975864864 2.9406879205145633 -7.5
    endloop
  endfacet
  facet normal 0 0 -1
    outer loop
      vertex 1.8738131458572458 9.822872507286887 -7.5
      vertex 3.090169943749474 9.510565162951535 -7.5
      vertex 1.7414370836817392 2.744065757881549 -7.5
    endloop
  endfacet
  facet normal 0 0 -1
    outer loop
      vertex 0.6279051952931327 9.980267284282716 -7.5
      vertex 1.8738131458572458 9.822872507286887 -7.5
      vertex 0.20406918847026653 3.2435868673918824 -7.5
    endloop
  endfacet
  facet normal 0 0 -1
    outer loop
      vertex 3.090169943749474 9.510565162951535 -7.5
      vertex 4.257792915650727 9.048270524660195 -7.5
      vertex 3.0217735791368168 1.1964047962252033 -7.5
    endloop
  endfacet
  facet normal 0.1253332335643047 0.9921147013144777 0
    outer loop
      vertex 0.6279051952931327 9.980267284282716 -7.5
      vertex 0.6279051952931327 9.980267284282716 0
      vertex 1.8738131458572458 9.822872507286887 -7.5
    endloop
  endfacet
  facet normal 0.24868988716485535 0.9685831611286311 0
    outer loop
      vertex 1.8738131458572458 9.822872507286887 -7.5
      vertex 1.8738131458572458 9.822872507286887 0
      vertex 3.090169943749474 9.510565162951535 -7.5
    endloop
  endfacet
  facet normal 0.36812455268467725 0.9297764858882517 0
    outer loop
      vertex 3.090169943749474 9.510565162951535 -7.5
      vertex 3.090169943749474 9.510565162951535 0
      vertex 4.257792915650727 9.048270524660195 -7.5
    endloop
  endfacet
  facet normal 0.4817536741017149 0.8763066800438637 0
    outer loop
      vertex 4.257792915650727 9.048270524660195 -7.5
      vertex 4.257792915650727 9.048270524660195 0
      vertex 5.358267949789966 8.443279255020151 -7.5
    endloop
  endfacet
  facet normal 0 0 -1
    outer loop
      vertex 6.3742398974869 -7.70513242775789 -7.5
      vertex 6.3742398974868975 7.705132427757891 -7.5
      vertex 7.289686274214116 6.845471059286887 -7.5
    endloop
  endfacet
  facet normal 0 0 -1
    outer loop
      vertex 5.358267949789962 -8.443279255020153 -7.5
      vertex 5.358267949789966 8.443279255020151 -7.5
      vertex 6.3742398974868975 7.705132427757891 -7.5
    endloop
  endfacet
  facet normal 0 0 -1
    outer loop
      vertex 7.289686274214117 -6.845471059286885 -7.5
      vertex 7.289686274214116 6.845471059286887 -7.5
      vertex 8.090169943749475 5.877852522924732 -7.5
    endloop
  endfacet
  facet normal 0 0 -1
    outer loop
      vertex 8.090169943749475 -5.877852522924732 -7.5
      vertex 8.090169943749475 5.877852522924732 -7.5
      vertex 8.763066800438637 4.817536741017153 -7.5
    endloop
  endfacet
  facet normal 0 0 -1
    outer loop
      vertex 8.763066800438635 -4.817536741017154 -7.5
      vertex 8.763066800438637 4.817536741017153 -7.5
      vertex 9.297764858882513 3.6812455268467796 -7.5
    endloop
  endfacet
  facet normal 0 0 -1
    outer loop
      vertex 9.921147013144779 -1.2533323356430406 -7.5
      vertex 9.921147013144779 1.2533323356430426 -7.5
      vertex 10 0 -7.5
    endloop
  endfacet
  facet normal 0 0 -1
    outer loop
      vertex 9.685831611286313 -2.4868988716485445 -7.5
      vertex 9.68583161128631 2.486898871648548 -7.5
      vertex 9.921147013144779 1.2533323356430426 -7.5
    endloop
  endfacet
  facet normal 0 0 -1
    outer loop
      vertex 9.297764858882513 -3.6812455268467836 -7.5
      vertex 9.297764858882513 3.6812455268467796 -7.5
      vertex 9.68583161128631 2.486898871648548 -7.5
    endloop
  endfacet
  facet normal 0.9980267284282716 0.06279051952931285 0
    outer loop
      vertex 10 0 -7.5
      vertex 9.921147013144779 1.2533323356430426 -7.5
      vertex 10 0 0
    endloop
  endfacet
  facet normal 0.9822872507286886 0.18738131458572546 0
    outer loop
      vertex 9.921147013144779 1.2533323356430426 -7.5
      vertex 9.68583161128631 2.486898871648548 -7.5
      vertex 9.921147013144779 1.2533323356430426 0
    endloop
  endfacet
  facet normal 0.9510565162951533 0.3090169943749482 0
    outer loop
      vertex 9.68583161128631 2.486898871648548 -7.5
      vertex 9.297764858882513 3.6812455268467796 -7.5
      vertex 9.68583161128631 2.486898871648548 0
    endloop
  endfacet
  facet normal 0.9048270524660201 0.4257792915650712 0
    outer loop
      vertex 9.297764858882513 3.6812455268467796 -7.5
      vertex 8.763066800438637 4.817536741017153 -7.5
      vertex 9.297764858882513 3.6812455268467796 0
    endloop
  endfacet
  facet normal 0.6845471059286877 0.7289686274214123 0
    outer loop
      vertex 7.289686274214116 6.845471059286887 -7.5
      vertex 6.3742398974868975 7.705132427757891 -7.5
      vertex 6.3742398974868975 7.705132427757891 0
    endloop
  endfacet
  facet normal 0.5877852522924739 0.809016994374947 0
    outer loop
      vertex 5.358267949789966 8.443279255020151 -7.5
      vertex 5.358267949789966 8.443279255020151 0
      vertex 6.3742398974868975 7.705132427757891 -7.5
    endloop
  endfacet
  facet normal 0.7705132427757895 0.6374239897486895 0
    outer loop
      vertex 7.289686274214116 6.845471059286887 -7.5
      vertex 8.090169943749475 5.877852522924732 0
      vertex 8.090169943749475 5.877852522924732 -7.5
    endloop
  endfacet
  facet normal 0.844327925502015 0.5358267949789967 0
    outer loop
      vertex 8.763066800438637 4.817536741017153 -7.5
      vertex 8.090169943749475 5.877852522924732 -7.5
      vertex 8.763066800438637 4.817536741017153 0
    endloop
  endfacet
  facet normal 0 0 1
    outer loop
      vertex 3.090169943749474 9.510565162951535 0
      vertex 2.957125000655651 5.1218907460570335 0
      vertex 5.914250001311302 0 0
    endloop
  endfacet
  facet normal 0 1 0
    outer loop
      vertex -0.6279051952931327 9.980267284282716 0
      vertex 0.6279051952931327 9.980267284282716 0
      vertex 0.6279051952931327 9.980267284282716 -7.5
    endloop
  endfacet
  facet normal 0.1253332335643047 0.9921147013144777 0
    outer loop
      vertex 1.8738131458572458 9.822872507286887 -7.5
      vertex 0.6279051952931327 9.980267284282716 0
      vertex 1.8738131458572458 9.822872507286887 0
    endloop
  endfacet
  facet normal 0.24868988716485535 0.9685831611286311 0
    outer loop
      vertex 3.090169943749474 9.510565162951535 -7.5
      vertex 1.8738131458572458 9.822872507286887 0
      vertex 3.090169943749474 9.510565162951535 0
    endloop
  endfacet
  facet normal 0.4817536741017149 0.8763066800438637 0
    outer loop
      vertex 5.358267949789966 8.443279255020151 -7.5
      vertex 4.257792915650727 9.048270524660195 0
      vertex 5.358267949789966 8.443279255020151 0
    endloop
  endfacet
  facet normal 0.36812455268467725 0.9297764858882517 0
    outer loop
      vertex 4.257792915650727 9.048270524660195 -7.5
      vertex 3.090169943749474 9.510565162951535 0
      vertex 4.257792915650727 9.048270524660195 0
    endloop
  endfacet
  facet normal 0 0 1
    outer loop
      vertex -1.8738131458572458 9.822872507286887 0
      vertex 2.957125000655651 5.1218907460570335 0
      vertex -0.6279051952931327 9.980267284282716 0
    endloop
  endfacet
  facet normal 0 0 1
    outer loop
      vertex -0.6279051952931327 9.980267284282716 0
      vertex 2.957125000655651 5.1218907460570335 0
      vertex 0.6279051952931327 9.980267284282716 0
    endloop
  endfacet
  facet normal 0 0 1
    outer loop
      vertex 0.6279051952931327 9.980267284282716 0
      vertex 2.957125000655651 5.1218907460570335 0
      vertex 1.8738131458572458 9.822872507286887 0
    endloop
  endfacet
  facet normal 0 0 1
    outer loop
      vertex 3.090169943749474 9.510565162951535 0
      vertex 5.914250001311302 0 0
      vertex 4.257792915650727 9.048270524660195 0
    endloop
  endfacet
  facet normal 0 0 1
    outer loop
      vertex 1.8738131458572458 9.822872507286887 0
      vertex 2.957125000655651 5.1218907460570335 0
      vertex 3.090169943749474 9.510565162951535 0
    endloop
  endfacet
  facet normal 0.9980267284282716 0.06279051952931285 0
    outer loop
      vertex 9.921147013144779 1.2533323356430426 -7.5
      vertex 9.921147013144779 1.2533323356430426 0
      vertex 10 0 0
    endloop
  endfacet
  facet normal 0.9822872507286886 0.18738131458572546 0
    outer loop
      vertex 9.68583161128631 2.486898871648548 -7.5
      vertex 9.68583161128631 2.486898871648548 0
      vertex 9.921147013144779 1.2533323356430426 0
    endloop
  endfacet
  facet normal 0.9510565162951533 0.3090169943749482 0
    outer loop
      vertex 9.297764858882513 3.6812455268467796 -7.5
      vertex 9.297764858882513 3.6812455268467796 0
      vertex 9.68583161128631 2.486898871648548 0
    endloop
  endfacet
  facet normal 0.9048270524660201 0.4257792915650712 0
    outer loop
      vertex 8.763066800438637 4.817536741017153 -7.5
      vertex 8.763066800438637 4.817536741017153 0
      vertex 9.297764858882513 3.6812455268467796 0
    endloop
  endfacet
  facet normal 0 0 1
    outer loop
      vertex 6.3742398974869 -7.70513242775789 0
      vertex 6.3742398974868975 7.705132427757891 0
      vertex 5.914250001311302 0 0
    endloop
  endfacet
  facet normal 0 0 1
    outer loop
      vertex 7.289686274214117 -6.845471059286885 0
      vertex 7.289686274214116 6.845471059286887 0
      vertex 6.3742398974868975 7.705132427757891 0
    endloop
  endfacet
  facet normal 0 0 1
    outer loop
      vertex 8.090169943749475 -5.877852522924732 0
      vertex 8.090169943749475 5.877852522924732 0
      vertex 7.289686274214116 6.845471059286887 0
    endloop
  endfacet
  facet normal 0 0 1
    outer loop
      vertex 8.763066800438635 -4.817536741017154 0
      vertex 8.763066800438637 4.817536741017153 0
      vertex 8.090169943749475 5.877852522924732 0
    endloop
  endfacet
  facet normal 0 0 1
    outer loop
      vertex 9.921147013144779 -1.2533323356430406 0
      vertex 10 0 0
      vertex 9.921147013144779 1.2533323356430426 0
    endloop
  endfacet
  facet normal 0 0 1
    outer loop
      vertex 9.685831611286313 -2.4868988716485445 0
      vertex 9.68583161128631 2.486898871648548 0
      vertex 9.297764858882513 3.6812455268467796 0
    endloop
  endfacet
  facet normal 0 0 1
    outer loop
      vertex 9.921147013144779 -1.2533323356430406 0
      vertex 9.921147013144779 1.2533323356430426 0
      vertex 9.68583161128631 2.486898871648548 0
    endloop
  endfacet
  facet normal 0 0 1
    outer loop
      vertex 9.297764858882513 -3.6812455268467836 0
      vertex 9.297764858882513 3.6812455268467796 0
      vertex 8.763066800438637 4.817536741017153 0
    endloop
  endfacet
  facet normal 0.6845471059286877 0.7289686274214123 0
    outer loop
      vertex 7.289686274214116 6.845471059286887 -7.5
      vertex 6.3742398974868975 7.705132427757891 0
      vertex 7.289686274214116 6.845471059286887 0
    endloop
  endfacet
  facet normal 0.5877852522924739 0.809016994374947 0
    outer loop
      vertex 6.3742398974868975 7.705132427757891 -7.5
      vertex 5.358267949789966 8.443279255020151 0
      vertex 6.3742398974868975 7.705132427757891 0
    endloop
  endfacet
  facet normal 0.844327925502015 0.5358267949789967 0
    outer loop
      vertex 8.090169943749475 5.877852522924732 -7.5
      vertex 8.090169943749475 5.877852522924732 0
      vertex 8.763066800438637 4.817536741017153 0
    endloop
  endfacet
  facet normal 0.7705132427757895 0.6374239897486895 0
    outer loop
      vertex 7.289686274214116 6.845471059286887 -7.5
      vertex 7.289686274214116 6.845471059286887 0
      vertex 8.090169943749475 5.877852522924732 0
    endloop
  endfacet
  facet normal 0 0 1
    outer loop
      vertex 4.257792915650727 9.048270524660195 0
      vertex 5.914250001311302 0 0
      vertex 5.358267949789966 8.443279255020151 0
    endloop
  endfacet
  facet normal 0 0 1
    outer loop
      vertex 5.358267949789966 8.443279255020151 0
      vertex 5.914250001311302 0 0
      vertex 6.3742398974868975 7.705132427757891 0
    endloop
  endfacet
  facet normal 0 0 1
    outer loop
      vertex -2.957125000655651 -5.1218907460570335 -5
      vertex -2.629305231718579 -1.9103020699505378 -5
      vertex -2.8479967101425565 -1.5656994408305749 -5
    endloop
  endfacet
  facet normal 0 0 1
    outer loop
      vertex -2.957125000655651 -5.1218907460570335 -5
      vertex -2.369148039119588 -2.224778094268238 -5
      vertex -2.629305231718579 -1.9103020699505378 -5
    endloop
  endfacet
  facet normal 0 0 1
    outer loop
      vertex -2.957125000655651 -5.1218907460570335 -5
      vertex -2.8479967101425565 -1.5656994408305749 -5
      vertex -5.914250001311302 0 -5
    endloop
  endfacet
  facet normal 0 0 1
    outer loop
      vertex -3.021773579136817 -1.1964047962252031 -5
      vertex -5.914250001311302 0 -5
      vertex -2.8479967101425565 -1.5656994408305749 -5
    endloop
  endfacet
  facet normal 0 0 1
    outer loop
      vertex -3.021773579136817 -1.1964047962252031 -5
      vertex -3.147895273668051 -0.8082421332857783 -5
      vertex -5.914250001311302 0 -5
    endloop
  endfacet
  facet normal 0 0 1
    outer loop
      vertex -3.147895273668051 -0.8082421332857783 -5
      vertex -3.224372779272053 -0.40733300908398823 -5
      vertex -5.914250001311302 0 -5
    endloop
  endfacet
  facet normal 0 0 1
    outer loop
      vertex -3.224372779272053 -0.40733300908398823 -5
      vertex -3.25 0 -5
      vertex -5.914250001311302 0 -5
    endloop
  endfacet
  facet normal 0 0 1
    outer loop
      vertex -2.957125000655651 -5.1218907460570335 -5
      vertex -0.6089892724036057 -3.192433564868238 -5
      vertex -1.004305231718579 -3.090933677959249 -5
    endloop
  endfacet
  facet normal 0 0 1
    outer loop
      vertex -2.957125000655651 -5.1218907460570335 -5
      vertex -0.20406918847026972 -3.2435868673918824 -5
      vertex -0.6089892724036057 -3.192433564868238 -5
    endloop
  endfacet
  facet normal 0 0 1
    outer loop
      vertex -2.957125000655651 -5.1218907460570335 -5
      vertex -1.7414370836817394 -2.7440657578815486 -5
      vertex -2.0716279666832413 -2.5041680390213155 -5
    endloop
  endfacet
  facet normal 0 0 1
    outer loop
      vertex -2.957125000655651 -5.1218907460570335 -5
      vertex -2.0716279666832413 -2.5041680390213155 -5
      vertex -2.369148039119588 -2.224778094268238 -5
    endloop
  endfacet
  facet normal 0 0 1
    outer loop
      vertex -2.957125000655651 -5.1218907460570335 -5
      vertex -1.3837826975864855 -2.9406879205145637 -5
      vertex -1.7414370836817394 -2.7440657578815486 -5
    endloop
  endfacet
  facet normal 0 0 1
    outer loop
      vertex -2.957125000655651 -5.1218907460570335 -5
      vertex -1.004305231718579 -3.090933677959249 -5
      vertex -1.3837826975864855 -2.9406879205145637 -5
    endloop
  endfacet
  facet normal 0 0 1
    outer loop
      vertex -2.957125000655651 -5.1218907460570335 -5
      vertex 2.957125000655651 -5.1218907460570335 -5
      vertex -0.20406918847026972 -3.2435868673918824 -5
    endloop
  endfacet
  facet normal 0 1 0
    outer loop
      vertex -2.957125000655651 -5.1218907460570335 -5
      vertex -2.957125000655651 -5.1218907460570335 0
      vertex 2.957125000655651 -5.1218907460570335 -5
    endloop
  endfacet
  facet normal 0.8660254038093487 0.4999999999568546 0
    outer loop
      vertex -2.957125000655651 -5.1218907460570335 -5
      vertex -5.914250001311302 0 -5
      vertex -5.914250001311302 0 0
    endloop
  endfacet
  facet normal 0.8660254038093487 0.4999999999568546 0
    outer loop
      vertex -2.957125000655651 -5.1218907460570335 -5
      vertex -5.914250001311302 0 0
      vertex -2.957125000655651 -5.1218907460570335 0
    endloop
  endfacet
  facet normal 0 0 1
    outer loop
      vertex -5.914250001311302 0 -5
      vertex -3.25 0 -5
      vertex -3.224372779272053 0.40733300908398823 -5
    endloop
  endfacet
  facet normal 0 0 1
    outer loop
      vertex -5.914250001311302 0 -5
      vertex -3.224372779272053 0.40733300908398823 -5
      vertex -3.147895273668051 0.8082421332857783 -5
    endloop
  endfacet
  facet normal 0 0 1
    outer loop
      vertex -5.914250001311302 0 -5
      vertex -3.147895273668051 0.8082421332857783 -5
      vertex -3.021773579136817 1.1964047962252031 -5
    endloop
  endfacet
  facet normal 0 0 1
    outer loop
      vertex -5.914250001311302 0 -5
      vertex -3.021773579136817 1.1964047962252031 -5
      vertex -2.957125000655651 5.1218907460570335 -5
    endloop
  endfacet
  facet normal 0 0 1
    outer loop
      vertex -3.021773579136817 1.1964047962252031 -5
      vertex -2.8479967101425565 1.5656994408305749 -5
      vertex -2.957125000655651 5.1218907460570335 -5
    endloop
  endfacet
  facet normal 0 0 1
    outer loop
      vertex -2.8479967101425565 1.5656994408305749 -5
      vertex -2.629305231718579 1.9103020699505378 -5
      vertex -2.957125000655651 5.1218907460570335 -5
    endloop
  endfacet
  facet normal 0 0 1
    outer loop
      vertex -2.629305231718579 1.9103020699505378 -5
      vertex -2.369148039119588 2.224778094268238 -5
      vertex -2.957125000655651 5.1218907460570335 -5
    endloop
  endfacet
  facet normal 0 0 1
    outer loop
      vertex -2.369148039119588 2.224778094268238 -5
      vertex -2.0716279666832413 2.5041680390213155 -5
      vertex -2.957125000655651 5.1218907460570335 -5
    endloop
  endfacet
  facet normal 0 0 1
    outer loop
      vertex -2.0716279666832413 2.5041680390213155 -5
      vertex -1.7414370836817394 2.7440657578815486 -5
      vertex -2.957125000655651 5.1218907460570335 -5
    endloop
  endfacet
  facet normal 0 0 1
    outer loop
      vertex -1.7414370836817394 2.7440657578815486 -5
      vertex -1.3837826975864864 2.9406879205145633 -5
      vertex -2.957125000655651 5.1218907460570335 -5
    endloop
  endfacet
  facet normal 0 0 1
    outer loop
      vertex -2.957125000655651 5.1218907460570335 -5
      vertex -1.3837826975864864 2.9406879205145633 -5
      vertex -1.004305231718579 3.090933677959249 -5
    endloop
  endfacet
  facet normal 0 0 1
    outer loop
      vertex -2.957125000655651 5.1218907460570335 -5
      vertex -1.004305231718579 3.090933677959249 -5
      vertex -0.6089892724036049 3.1924335648682383 -5
    endloop
  endfacet
  facet normal 0 0 1
    outer loop
      vertex -2.957125000655651 5.1218907460570335 -5
      vertex -0.6089892724036049 3.1924335648682383 -5
      vertex 2.957125000655651 5.1218907460570335 -5
    endloop
  endfacet
  facet normal 0.8660254038093487 -0.4999999999568546 0
    outer loop
      vertex -5.914250001311302 0 -5
      vertex -2.957125000655651 5.1218907460570335 -5
      vertex -2.957125000655651 5.1218907460570335 0
    endloop
  endfacet
  facet normal 0.8660254038093487 -0.4999999999568546 0
    outer loop
      vertex -5.914250001311302 0 -5
      vertex -2.957125000655651 5.1218907460570335 0
      vertex -5.914250001311302 0 0
    endloop
  endfacet
  facet normal 0 -1 0
    outer loop
      vertex -2.957125000655651 5.1218907460570335 -5
      vertex 2.957125000655651 5.1218907460570335 0
      vertex -2.957125000655651 5.1218907460570335 0
    endloop
  endfacet
  facet normal 0 0 1
    outer loop
      vertex -0.20406918847026972 -3.2435868673918824 -5
      vertex 2.957125000655651 -5.1218907460570335 -5
      vertex 0.20406918847026972 -3.2435868673918824 -5
    endloop
  endfacet
  facet normal 0 0 1
    outer loop
      vertex 0.20406918847026972 -3.2435868673918824 -5
      vertex 2.957125000655651 -5.1218907460570335 -5
      vertex 0.6089892724036057 -3.192433564868238 -5
    endloop
  endfacet
  facet normal 0 0 1
    outer loop
      vertex 0.6089892724036057 -3.192433564868238 -5
      vertex 2.957125000655651 -5.1218907460570335 -5
      vertex 1.004305231718579 -3.090933677959249 -5
    endloop
  endfacet
  facet normal 0 0 1
    outer loop
      vertex 1.004305231718579 -3.090933677959249 -5
      vertex 2.957125000655651 -5.1218907460570335 -5
      vertex 1.3837826975864855 -2.9406879205145637 -5
    endloop
  endfacet
  facet normal 0 0 1
    outer loop
      vertex 1.3837826975864855 -2.9406879205145637 -5
      vertex 2.957125000655651 -5.1218907460570335 -5
      vertex 1.7414370836817377 -2.7440657578815495 -5
    endloop
  endfacet
  facet normal 0 0 1
    outer loop
      vertex 1.7414370836817377 -2.7440657578815495 -5
      vertex 2.957125000655651 -5.1218907460570335 -5
      vertex 2.0716279666832422 -2.504168039021314 -5
    endloop
  endfacet
  facet normal 0 0 1
    outer loop
      vertex 2.0716279666832422 -2.504168039021314 -5
      vertex 2.957125000655651 -5.1218907460570335 -5
      vertex 2.369148039119588 -2.224778094268238 -5
    endloop
  endfacet
  facet normal 0 0 1
    outer loop
      vertex 2.369148039119588 -2.224778094268238 -5
      vertex 2.957125000655651 -5.1218907460570335 -5
      vertex 2.629305231718579 -1.9103020699505378 -5
    endloop
  endfacet
  facet normal 0 0 1
    outer loop
      vertex 2.629305231718579 -1.9103020699505378 -5
      vertex 2.957125000655651 -5.1218907460570335 -5
      vertex 2.8479967101425565 -1.5656994408305749 -5
    endloop
  endfacet
  facet normal 0 0 1
    outer loop
      vertex 2.8479967101425565 -1.5656994408305749 -5
      vertex 2.957125000655651 -5.1218907460570335 -5
      vertex 3.0217735791368163 -1.1964047962252047 -5
    endloop
  endfacet
  facet normal 0 0 1
    outer loop
      vertex 2.957125000655651 -5.1218907460570335 -5
      vertex 5.914250001311302 0 -5
      vertex 3.0217735791368163 -1.1964047962252047 -5
    endloop
  endfacet
  facet normal 0 0 1
    outer loop
      vertex 3.0217735791368163 -1.1964047962252047 -5
      vertex 5.914250001311302 0 -5
      vertex 3.1478952736680514 -0.8082421332857769 -5
    endloop
  endfacet
  facet normal 0 0 1
    outer loop
      vertex 3.1478952736680514 -0.8082421332857769 -5
      vertex 5.914250001311302 0 -5
      vertex 3.224372779272053 -0.40733300908398823 -5
    endloop
  endfacet
  facet normal 0 0 1
    outer loop
      vertex 3.224372779272053 -0.40733300908398823 -5
      vertex 5.914250001311302 0 -5
      vertex 3.25 0 -5
    endloop
  endfacet
  facet normal 0 1 0
    outer loop
      vertex 2.957125000655651 -5.1218907460570335 -5
      vertex -2.957125000655651 -5.1218907460570335 0
      vertex 2.957125000655651 -5.1218907460570335 0
    endloop
  endfacet
  facet normal -0.8660254038093487 0.4999999999568546 0
    outer loop
      vertex 2.957125000655651 -5.1218907460570335 -5
      vertex 2.957125000655651 -5.1218907460570335 0
      vertex 5.914250001311302 0 -5
    endloop
  endfacet
  facet normal -0.8660254038093487 0.4999999999568546 0
    outer loop
      vertex 5.914250001311302 0 -5
      vertex 2.957125000655651 -5.1218907460570335 0
      vertex 5.914250001311302 0 0
    endloop
  endfacet
  facet normal 0 0 1
    outer loop
      vertex -0.6089892724036049 3.1924335648682383 -5
      vertex -0.20406918847026814 3.2435868673918824 -5
      vertex 2.957125000655651 5.1218907460570335 -5
    endloop
  endfacet
  facet normal 0 0 1
    outer loop
      vertex -0.20406918847026814 3.2435868673918824 -5
      vertex 0.20406918847026814 3.2435868673918824 -5
      vertex 2.957125000655651 5.1218907460570335 -5
    endloop
  endfacet
  facet normal 0 0 1
    outer loop
      vertex 1.004305231718579 3.090933677959249 -5
      vertex 1.3837826975864864 2.9406879205145633 -5
      vertex 2.957125000655651 5.1218907460570335 -5
    endloop
  endfacet
  facet normal 0 0 1
    outer loop
      vertex 1.3837826975864864 2.9406879205145633 -5
      vertex 1.7414370836817392 2.744065757881549 -5
      vertex 2.957125000655651 5.1218907460570335 -5
    endloop
  endfacet
  facet normal 0 0 1
    outer loop
      vertex 2.071627966683242 2.5041680390213146 -5
      vertex 2.3691480391195876 2.2247780942682382 -5
      vertex 2.957125000655651 5.1218907460570335 -5
    endloop
  endfacet
  facet normal 0 0 1
    outer loop
      vertex 2.071627966683242 2.5041680390213146 -5
      vertex 2.957125000655651 5.1218907460570335 -5
      vertex 1.7414370836817392 2.744065757881549 -5
    endloop
  endfacet
  facet normal 0 0 1
    outer loop
      vertex 0.6089892724036049 3.1924335648682383 -5
      vertex 2.957125000655651 5.1218907460570335 -5
      vertex 0.20406918847026814 3.2435868673918824 -5
    endloop
  endfacet
  facet normal 0 0 1
    outer loop
      vertex 0.6089892724036049 3.1924335648682383 -5
      vertex 1.004305231718579 3.090933677959249 -5
      vertex 2.957125000655651 5.1218907460570335 -5
    endloop
  endfacet
  facet normal 0 0 1
    outer loop
      vertex 3.25 0 -5
      vertex 5.914250001311302 0 -5
      vertex 3.224372779272053 0.40733300908398884 -5
    endloop
  endfacet
  facet normal 0 0 1
    outer loop
      vertex 3.224372779272053 0.40733300908398884 -5
      vertex 5.914250001311302 0 -5
      vertex 3.147895273668051 0.8082421332857781 -5
    endloop
  endfacet
  facet normal 0 0 1
    outer loop
      vertex 3.147895273668051 0.8082421332857781 -5
      vertex 5.914250001311302 0 -5
      vertex 3.0217735791368168 1.1964047962252033 -5
    endloop
  endfacet
  facet normal 0 0 1
    outer loop
      vertex 2.8479967101425565 1.5656994408305749 -5
      vertex 3.0217735791368168 1.1964047962252033 -5
      vertex 5.914250001311302 0 -5
    endloop
  endfacet
  facet normal 0 0 1
    outer loop
      vertex 2.8479967101425565 1.5656994408305749 -5
      vertex 5.914250001311302 0 -5
      vertex 2.957125000655651 5.1218907460570335 -5
    endloop
  endfacet
  facet normal 0 0 1
    outer loop
      vertex 2.629305231718579 1.9103020699505378 -5
      vertex 2.957125000655651 5.1218907460570335 -5
      vertex 2.3691480391195876 2.2247780942682382 -5
    endloop
  endfacet
  facet normal 0 0 1
    outer loop
      vertex 2.8479967101425565 1.5656994408305749 -5
      vertex 2.957125000655651 5.1218907460570335 -5
      vertex 2.629305231718579 1.9103020699505378 -5
    endloop
  endfacet
  facet normal -0.8660254038093487 -0.4999999999568546 0
    outer loop
      vertex 5.914250001311302 0 -5
      vertex 5.914250001311302 0 0
      vertex 2.957125000655651 5.1218907460570335 -5
    endloop
  endfacet
  facet normal -0.8660254038093487 -0.4999999999568546 0
    outer loop
      vertex 2.957125000655651 5.1218907460570335 -5
      vertex 5.914250001311302 0 0
      vertex 2.957125000655651 5.1218907460570335 0
    endloop
  endfacet
  facet normal 0 -1 0
    outer loop
      vertex -2.957125000655651 5.1218907460570335 -5
      vertex 2.957125000655651 5.1218907460570335 -5
      vertex 2.957125000655651 5.1218907460570335 0
    endloop
  endfacet
  facet normal 0.7705132427757896 0.6374239897486892 0
    outer loop
      vertex -2.629305231718579 -1.9103020699505378 -5
      vertex -2.369148039119588 -2.224778094268238 -7.5
      vertex -2.629305231718579 -1.9103020699505378 -7.5
    endloop
  endfacet
  facet normal 0.9048270524660194 0.4257792915650727 0
    outer loop
      vertex -3.021773579136817 -1.1964047962252031 -5
      vertex -2.8479967101425565 -1.5656994408305749 -7.5
      vertex -3.021773579136817 -1.1964047962252031 -7.5
    endloop
  endfacet
  facet normal 0.8443279255020149 0.5358267949789967 0
    outer loop
      vertex -2.8479967101425565 -1.5656994408305749 -5
      vertex -2.629305231718579 -1.9103020699505378 -7.5
      vertex -2.8479967101425565 -1.5656994408305749 -7.5
    endloop
  endfacet
  facet normal 0.9822872507286887 0.1873813145857245 0
    outer loop
      vertex -3.224372779272053 -0.40733300908398823 -5
      vertex -3.147895273668051 -0.8082421332857783 -7.5
      vertex -3.224372779272053 -0.40733300908398823 -7.5
    endloop
  endfacet
  facet normal 0.9980267284282716 0.06279051952931358 0
    outer loop
      vertex -3.25 0 -5
      vertex -3.224372779272053 -0.40733300908398823 -7.5
      vertex -3.25 0 -7.5
    endloop
  endfacet
  facet normal 0.9510565162951536 0.3090169943749471 0
    outer loop
      vertex -3.147895273668051 -0.8082421332857783 -5
      vertex -3.021773579136817 -1.1964047962252031 -7.5
      vertex -3.147895273668051 -0.8082421332857783 -7.5
    endloop
  endfacet
  facet normal 0.9048270524660194 0.4257792915650727 0
    outer loop
      vertex -3.021773579136817 -1.1964047962252031 -5
      vertex -2.8479967101425565 -1.5656994408305749 -5
      vertex -2.8479967101425565 -1.5656994408305749 -7.5
    endloop
  endfacet
  facet normal 0.8443279255020149 0.5358267949789967 0
    outer loop
      vertex -2.629305231718579 -1.9103020699505378 -5
      vertex -2.629305231718579 -1.9103020699505378 -7.5
      vertex -2.8479967101425565 -1.5656994408305749 -5
    endloop
  endfacet
  facet normal 0.9822872507286887 0.1873813145857245 0
    outer loop
      vertex -3.147895273668051 -0.8082421332857783 -5
      vertex -3.147895273668051 -0.8082421332857783 -7.5
      vertex -3.224372779272053 -0.40733300908398823 -5
    endloop
  endfacet
  facet normal 0.9980267284282716 0.06279051952931358 0
    outer loop
      vertex -3.224372779272053 -0.40733300908398823 -5
      vertex -3.224372779272053 -0.40733300908398823 -7.5
      vertex -3.25 0 -5
    endloop
  endfacet
  facet normal 0.9510565162951536 0.3090169943749471 0
    outer loop
      vertex -3.021773579136817 -1.1964047962252031 -5
      vertex -3.021773579136817 -1.1964047962252031 -7.5
      vertex -3.147895273668051 -0.8082421332857783 -5
    endloop
  endfacet
  facet normal 0.5877852522924726 0.809016994374948 0
    outer loop
      vertex -2.0716279666832413 -2.5041680390213155 -5
      vertex -1.7414370836817394 -2.7440657578815486 -7.5
      vertex -2.0716279666832413 -2.5041680390213155 -7.5
    endloop
  endfacet
  facet normal 0.48175367410171555 0.8763066800438636 0
    outer loop
      vertex -1.7414370836817394 -2.7440657578815486 -5
      vertex -1.3837826975864855 -2.9406879205145637 -7.5
      vertex -1.7414370836817394 -2.7440657578815486 -7.5
    endloop
  endfacet
  facet normal 0.3681245526846773 0.9297764858882518 0
    outer loop
      vertex -1.3837826975864855 -2.9406879205145637 -5
      vertex -1.004305231718579 -3.090933677959249 -7.5
      vertex -1.3837826975864855 -2.9406879205145637 -7.5
    endloop
  endfacet
  facet normal 0.24868988716485477 0.9685831611286312 0
    outer loop
      vertex -1.004305231718579 -3.090933677959249 -5
      vertex -0.6089892724036056 -3.192433564868238 -7.5
      vertex -1.004305231718579 -3.090933677959249 -7.5
    endloop
  endfacet
  facet normal 0.12533323356430498 0.9921147013144778 5.565913666152555e-18
    outer loop
      vertex -0.6089892724036057 -3.192433564868238 -5
      vertex -0.2040691884702697 -3.2435868673918824 -7.5
      vertex -0.6089892724036056 -3.192433564868238 -7.5
    endloop
  endfacet
  facet normal 0 1 0
    outer loop
      vertex -0.20406918847026972 -3.2435868673918824 -5
      vertex 0.20406918847026972 -3.2435868673918824 -7.5
      vertex -0.2040691884702697 -3.2435868673918824 -7.5
    endloop
  endfacet
  facet normal 0.5877852522924726 0.809016994374948 0
    outer loop
      vertex -1.7414370836817394 -2.7440657578815486 -5
      vertex -1.7414370836817394 -2.7440657578815486 -7.5
      vertex -2.0716279666832413 -2.5041680390213155 -5
    endloop
  endfacet
  facet normal 0.48175367410171555 0.8763066800438636 0
    outer loop
      vertex -1.7414370836817394 -2.7440657578815486 -5
      vertex -1.3837826975864855 -2.9406879205145637 -5
      vertex -1.3837826975864855 -2.9406879205145637 -7.5
    endloop
  endfacet
  facet normal 0.24868988716485482 0.9685831611286312 1.3601061396719756e-17
    outer loop
      vertex -1.004305231718579 -3.090933677959249 -5
      vertex -0.6089892724036057 -3.192433564868238 -5
      vertex -0.6089892724036056 -3.192433564868238 -7.5
    endloop
  endfacet
  facet normal 0.3681245526846773 0.9297764858882518 0
    outer loop
      vertex -1.3837826975864855 -2.9406879205145637 -5
      vertex -1.004305231718579 -3.090933677959249 -5
      vertex -1.004305231718579 -3.090933677959249 -7.5
    endloop
  endfacet
  facet normal 0.12533323356430498 0.9921147013144778 1.3914784165381387e-18
    outer loop
      vertex -0.20406918847026972 -3.2435868673918824 -5
      vertex -0.2040691884702697 -3.2435868673918824 -7.5
      vertex -0.6089892724036057 -3.192433564868238 -5
    endloop
  endfacet
  facet normal 0.6845471059286888 0.7289686274214114 0
    outer loop
      vertex -2.369148039119588 -2.224778094268238 -5
      vertex -2.0716279666832413 -2.5041680390213155 -7.5
      vertex -2.369148039119588 -2.224778094268238 -7.5
    endloop
  endfacet
  facet normal 0.7705132427757896 0.6374239897486892 0
    outer loop
      vertex -2.369148039119588 -2.224778094268238 -5
      vertex -2.369148039119588 -2.224778094268238 -7.5
      vertex -2.629305231718579 -1.9103020699505378 -5
    endloop
  endfacet
  facet normal 0.6845471059286888 0.7289686274214114 0
    outer loop
      vertex -2.369148039119588 -2.224778094268238 -5
      vertex -2.0716279666832413 -2.5041680390213155 -5
      vertex -2.0716279666832413 -2.5041680390213155 -7.5
    endloop
  endfacet
  facet normal 0.9980267284282716 -0.06279051952931358 0
    outer loop
      vertex -3.224372779272053 0.40733300908398823 -5
      vertex -3.25 0 -7.5
      vertex -3.224372779272053 0.40733300908398823 -7.5
    endloop
  endfacet
  facet normal 0.9822872507286887 -0.1873813145857245 0
    outer loop
      vertex -3.147895273668051 0.8082421332857783 -5
      vertex -3.224372779272053 0.40733300908398823 -7.5
      vertex -3.147895273668051 0.8082421332857783 -7.5
    endloop
  endfacet
  facet normal 0.9510565162951536 -0.3090169943749471 0
    outer loop
      vertex -3.021773579136817 1.1964047962252031 -5
      vertex -3.147895273668051 0.8082421332857783 -7.5
      vertex -3.021773579136817 1.1964047962252031 -7.5
    endloop
  endfacet
  facet normal 0.9048270524660194 -0.4257792915650727 0
    outer loop
      vertex -2.8479967101425565 1.5656994408305749 -5
      vertex -3.021773579136817 1.1964047962252031 -7.5
      vertex -2.8479967101425565 1.5656994408305749 -7.5
    endloop
  endfacet
  facet normal 0.8443279255020149 -0.5358267949789967 0
    outer loop
      vertex -2.629305231718579 1.9103020699505378 -5
      vertex -2.8479967101425565 1.5656994408305749 -7.5
      vertex -2.629305231718579 1.9103020699505378 -7.5
    endloop
  endfacet
  facet normal 0.9980267284282716 -0.06279051952931358 0
    outer loop
      vertex -3.25 0 -5
      vertex -3.25 0 -7.5
      vertex -3.224372779272053 0.40733300908398823 -5
    endloop
  endfacet
  facet normal 0.9822872507286887 -0.1873813145857245 0
    outer loop
      vertex -3.224372779272053 0.40733300908398823 -5
      vertex -3.224372779272053 0.40733300908398823 -7.5
      vertex -3.147895273668051 0.8082421332857783 -5
    endloop
  endfacet
  facet normal 0.9510565162951536 -0.3090169943749471 0
    outer loop
      vertex -3.147895273668051 0.8082421332857783 -5
      vertex -3.147895273668051 0.8082421332857783 -7.5
      vertex -3.021773579136817 1.1964047962252031 -5
    endloop
  endfacet
  facet normal 0.9048270524660194 -0.4257792915650727 0
    outer loop
      vertex -3.021773579136817 1.1964047962252031 -5
      vertex -3.021773579136817 1.1964047962252031 -7.5
      vertex -2.8479967101425565 1.5656994408305749 -5
    endloop
  endfacet
  facet normal 0.8443279255020149 -0.5358267949789967 0
    outer loop
      vertex -2.8479967101425565 1.5656994408305749 -5
      vertex -2.8479967101425565 1.5656994408305749 -7.5
      vertex -2.629305231718579 1.9103020699505378 -5
    endloop
  endfacet
  facet normal 0.7705132427757896 -0.6374239897486892 0
    outer loop
      vertex -2.629305231718579 1.9103020699505378 -5
      vertex -2.629305231718579 1.9103020699505378 -7.5
      vertex -2.369148039119588 2.224778094268238 -5
    endloop
  endfacet
  facet normal 0.7705132427757896 -0.6374239897486892 0
    outer loop
      vertex -2.369148039119588 2.224778094268238 -5
      vertex -2.629305231718579 1.9103020699505378 -7.5
      vertex -2.369148039119588 2.224778094268238 -7.5
    endloop
  endfacet
  facet normal 0.6845471059286888 -0.7289686274214114 0
    outer loop
      vertex -2.0716279666832413 2.5041680390213155 -5
      vertex -2.369148039119588 2.224778094268238 -7.5
      vertex -2.0716279666832413 2.5041680390213155 -7.5
    endloop
  endfacet
  facet normal 0.6845471059286888 -0.7289686274214114 0
    outer loop
      vertex -2.369148039119588 2.224778094268238 -5
      vertex -2.369148039119588 2.224778094268238 -7.5
      vertex -2.0716279666832413 2.5041680390213155 -5
    endloop
  endfacet
  facet normal 0.5877852522924726 -0.809016994374948 0
    outer loop
      vertex -1.7414370836817394 2.7440657578815486 -5
      vertex -2.0716279666832413 2.5041680390213155 -7.5
      vertex -1.7414370836817394 2.7440657578815486 -7.5
    endloop
  endfacet
  facet normal 0.4817536741017156 -0.8763066800438635 0
    outer loop
      vertex -1.3837826975864864 2.9406879205145633 -5
      vertex -1.7414370836817394 2.7440657578815486 -7.5
      vertex -1.3837826975864864 2.9406879205145633 -7.5
    endloop
  endfacet
  facet normal 0.3681245526846775 -0.9297764858882515 0
    outer loop
      vertex -1.004305231718579 3.090933677959249 -5
      vertex -1.3837826975864864 2.9406879205145633 -7.5
      vertex -1.004305231718579 3.090933677959249 -7.5
    endloop
  endfacet
  facet normal 0.24868988716485538 -0.968583161128631 0
    outer loop
      vertex -0.6089892724036049 3.1924335648682383 -5
      vertex -1.004305231718579 3.090933677959249 -7.5
      vertex -0.6089892724036049 3.1924335648682383 -7.5
    endloop
  endfacet
  facet normal 0.12533323356430365 -0.992114701314478 0
    outer loop
      vertex -0.20406918847026814 3.2435868673918824 -5
      vertex -0.6089892724036049 3.1924335648682383 -7.5
      vertex -0.20406918847026814 3.2435868673918824 -7.5
    endloop
  endfacet
  facet normal 0.5877852522924726 -0.809016994374948 0
    outer loop
      vertex -2.0716279666832413 2.5041680390213155 -5
      vertex -2.0716279666832413 2.5041680390213155 -7.5
      vertex -1.7414370836817394 2.7440657578815486 -5
    endloop
  endfacet
  facet normal 0.4817536741017156 -0.8763066800438635 0
    outer loop
      vertex -1.7414370836817394 2.7440657578815486 -5
      vertex -1.7414370836817394 2.7440657578815486 -7.5
      vertex -1.3837826975864864 2.9406879205145633 -5
    endloop
  endfacet
  facet normal 0.3681245526846775 -0.9297764858882515 0
    outer loop
      vertex -1.3837826975864864 2.9406879205145633 -5
      vertex -1.3837826975864864 2.9406879205145633 -7.5
      vertex -1.004305231718579 3.090933677959249 -5
    endloop
  endfacet
  facet normal 0.24868988716485538 -0.968583161128631 0
    outer loop
      vertex -1.004305231718579 3.090933677959249 -5
      vertex -1.004305231718579 3.090933677959249 -7.5
      vertex -0.6089892724036049 3.1924335648682383 -5
    endloop
  endfacet
  facet normal 0.12533323356430365 -0.992114701314478 0
    outer loop
      vertex -0.6089892724036049 3.1924335648682383 -5
      vertex -0.6089892724036049 3.1924335648682383 -7.5
      vertex -0.20406918847026814 3.2435868673918824 -5
    endloop
  endfacet
  facet normal 0 -1 0
    outer loop
      vertex -0.20406918847026814 3.2435868673918824 -5
      vertex -0.20406918847026814 3.2435868673918824 -7.5
      vertex 0.20406918847026814 3.2435868673918824 -5
    endloop
  endfacet
  facet normal -0.12533323356430498 0.9921147013144778 0
    outer loop
      vertex 0.20406918847026972 -3.2435868673918824 -5
      vertex 0.6089892724036057 -3.192433564868238 -7.5
      vertex 0.20406918847026972 -3.2435868673918824 -7.5
    endloop
  endfacet
  facet normal -0.24868988716485482 0.9685831611286312 0
    outer loop
      vertex 0.6089892724036057 -3.192433564868238 -5
      vertex 1.004305231718579 -3.090933677959249 -7.5
      vertex 0.6089892724036057 -3.192433564868238 -7.5
    endloop
  endfacet
  facet normal -0.3681245526846773 0.9297764858882518 0
    outer loop
      vertex 1.004305231718579 -3.090933677959249 -5
      vertex 1.3837826975864855 -2.9406879205145637 -7.5
      vertex 1.004305231718579 -3.090933677959249 -7.5
    endloop
  endfacet
  facet normal -0.4817536741017157 0.8763066800438635 0
    outer loop
      vertex 1.3837826975864855 -2.9406879205145637 -5
      vertex 1.7414370836817377 -2.7440657578815495 -7.5
      vertex 1.3837826975864855 -2.9406879205145637 -7.5
    endloop
  endfacet
  facet normal -0.5877852522924729 0.8090169943749475 0
    outer loop
      vertex 1.7414370836817377 -2.7440657578815495 -5
      vertex 2.0716279666832422 -2.504168039021314 -7.5
      vertex 1.7414370836817377 -2.7440657578815495 -7.5
    endloop
  endfacet
  facet normal 0 1 0
    outer loop
      vertex -0.20406918847026972 -3.2435868673918824 -5
      vertex 0.20406918847026972 -3.2435868673918824 -5
      vertex 0.20406918847026972 -3.2435868673918824 -7.5
    endloop
  endfacet
  facet normal -0.12533323356430498 0.9921147013144778 0
    outer loop
      vertex 0.20406918847026972 -3.2435868673918824 -5
      vertex 0.6089892724036057 -3.192433564868238 -5
      vertex 0.6089892724036057 -3.192433564868238 -7.5
    endloop
  endfacet
  facet normal -0.24868988716485482 0.9685831611286312 0
    outer loop
      vertex 0.6089892724036057 -3.192433564868238 -5
      vertex 1.004305231718579 -3.090933677959249 -5
      vertex 1.004305231718579 -3.090933677959249 -7.5
    endloop
  endfacet
  facet normal -0.3681245526846773 0.9297764858882518 0
    outer loop
      vertex 1.004305231718579 -3.090933677959249 -5
      vertex 1.3837826975864855 -2.9406879205145637 -5
      vertex 1.3837826975864855 -2.9406879205145637 -7.5
    endloop
  endfacet
  facet normal -0.4817536741017157 0.8763066800438635 0
    outer loop
      vertex 1.3837826975864855 -2.9406879205145637 -5
      vertex 1.7414370836817377 -2.7440657578815495 -5
      vertex 1.7414370836817377 -2.7440657578815495 -7.5
    endloop
  endfacet
  facet normal -0.5877852522924729 0.8090169943749475 0
    outer loop
      vertex 1.7414370836817377 -2.7440657578815495 -5
      vertex 2.0716279666832422 -2.504168039021314 -5
      vertex 2.0716279666832422 -2.504168039021314 -7.5
    endloop
  endfacet
  facet normal -0.6845471059286881 0.728968627421412 0
    outer loop
      vertex 2.0716279666832422 -2.504168039021314 -5
      vertex 2.369148039119588 -2.224778094268238 -7.5
      vertex 2.0716279666832422 -2.504168039021314 -7.5
    endloop
  endfacet
  facet normal -0.7705132427757896 0.6374239897486892 0
    outer loop
      vertex 2.369148039119588 -2.224778094268238 -5
      vertex 2.629305231718579 -1.9103020699505378 -7.5
      vertex 2.369148039119588 -2.224778094268238 -7.5
    endloop
  endfacet
  facet normal -0.6845471059286881 0.728968627421412 0
    outer loop
      vertex 2.0716279666832422 -2.504168039021314 -5
      vertex 2.369148039119588 -2.224778094268238 -5
      vertex 2.369148039119588 -2.224778094268238 -7.5
    endloop
  endfacet
  facet normal -0.8443279255020149 0.5358267949789967 0
    outer loop
      vertex 2.629305231718579 -1.9103020699505378 -5
      vertex 2.8479967101425565 -1.5656994408305749 -7.5
      vertex 2.629305231718579 -1.9103020699505378 -7.5
    endloop
  endfacet
  facet normal -0.9048270524660197 0.4257792915650725 0
    outer loop
      vertex 2.8479967101425565 -1.5656994408305749 -5
      vertex 3.0217735791368163 -1.1964047962252047 -7.5
      vertex 2.8479967101425565 -1.5656994408305749 -7.5
    endloop
  endfacet
  facet normal -0.9510565162951534 0.30901699437494795 0
    outer loop
      vertex 3.0217735791368163 -1.1964047962252047 -5
      vertex 3.1478952736680514 -0.8082421332857769 -7.5
      vertex 3.0217735791368163 -1.1964047962252047 -7.5
    endloop
  endfacet
  facet normal -0.9822872507286888 0.1873813145857241 0
    outer loop
      vertex 3.1478952736680514 -0.8082421332857769 -5
      vertex 3.224372779272053 -0.40733300908398823 -7.5
      vertex 3.1478952736680514 -0.8082421332857769 -7.5
    endloop
  endfacet
  facet normal -0.9980267284282716 0.06279051952931358 0
    outer loop
      vertex 3.224372779272053 -0.40733300908398823 -5
      vertex 3.25 0 -7.5
      vertex 3.224372779272053 -0.40733300908398823 -7.5
    endloop
  endfacet
  facet normal -0.7705132427757896 0.6374239897486892 0
    outer loop
      vertex 2.369148039119588 -2.224778094268238 -5
      vertex 2.629305231718579 -1.9103020699505378 -5
      vertex 2.629305231718579 -1.9103020699505378 -7.5
    endloop
  endfacet
  facet normal -0.8443279255020149 0.5358267949789967 0
    outer loop
      vertex 2.629305231718579 -1.9103020699505378 -5
      vertex 2.8479967101425565 -1.5656994408305749 -5
      vertex 2.8479967101425565 -1.5656994408305749 -7.5
    endloop
  endfacet
  facet normal -0.9048270524660197 0.4257792915650725 0
    outer loop
      vertex 2.8479967101425565 -1.5656994408305749 -5
      vertex 3.0217735791368163 -1.1964047962252047 -5
      vertex 3.0217735791368163 -1.1964047962252047 -7.5
    endloop
  endfacet
  facet normal -0.9510565162951534 0.30901699437494795 0
    outer loop
      vertex 3.0217735791368163 -1.1964047962252047 -5
      vertex 3.1478952736680514 -0.8082421332857769 -5
      vertex 3.1478952736680514 -0.8082421332857769 -7.5
    endloop
  endfacet
  facet normal -0.9822872507286888 0.1873813145857241 0
    outer loop
      vertex 3.1478952736680514 -0.8082421332857769 -5
      vertex 3.224372779272053 -0.40733300908398823 -5
      vertex 3.224372779272053 -0.40733300908398823 -7.5
    endloop
  endfacet
  facet normal -0.9980267284282716 0.06279051952931358 0
    outer loop
      vertex 3.224372779272053 -0.40733300908398823 -5
      vertex 3.25 0 -5
      vertex 3.25 0 -7.5
    endloop
  endfacet
  facet normal -0.6845471059286881 -0.728968627421412 0
    outer loop
      vertex 2.3691480391195876 2.2247780942682382 -5
      vertex 2.071627966683242 2.5041680390213146 -7.5
      vertex 2.3691480391195876 2.2247780942682382 -7.5
    endloop
  endfacet
  facet normal -0.6845471059286881 -0.728968627421412 0
    outer loop
      vertex 2.071627966683242 2.5041680390213146 -5
      vertex 2.071627966683242 2.5041680390213146 -7.5
      vertex 2.3691480391195876 2.2247780942682382 -5
    endloop
  endfacet
  facet normal -0.7705132427757895 -0.6374239897486893 0
    outer loop
      vertex 2.629305231718579 1.9103020699505378 -5
      vertex 2.3691480391195876 2.2247780942682382 -5
      vertex 2.3691480391195876 2.2247780942682382 -7.5
    endloop
  endfacet
  facet normal 0 -1 0
    outer loop
      vertex 0.20406918847026814 3.2435868673918824 -5
      vertex -0.20406918847026814 3.2435868673918824 -7.5
      vertex 0.20406918847026653 3.2435868673918824 -7.5
    endloop
  endfacet
  facet normal -0.12533323356430318 -0.992114701314478 0
    outer loop
      vertex 0.6089892724036049 3.1924335648682383 -5
      vertex 0.20406918847026653 3.2435868673918824 -7.5
      vertex 0.6089892724036049 3.1924335648682383 -7.5
    endloop
  endfacet
  facet normal -0.24868988716485538 -0.968583161128631 0
    outer loop
      vertex 1.004305231718579 3.090933677959249 -5
      vertex 0.6089892724036049 3.1924335648682383 -7.5
      vertex 1.004305231718579 3.090933677959249 -7.5
    endloop
  endfacet
  facet normal -0.3681245526846775 -0.9297764858882515 0
    outer loop
      vertex 1.3837826975864864 2.9406879205145633 -5
      vertex 1.004305231718579 3.090933677959249 -7.5
      vertex 1.3837826975864864 2.9406879205145633 -7.5
    endloop
  endfacet
  facet normal -0.48175367410171493 -0.8763066800438637 0
    outer loop
      vertex 1.7414370836817392 2.744065757881549 -5
      vertex 1.3837826975864864 2.9406879205145633 -7.5
      vertex 1.7414370836817392 2.744065757881549 -7.5
    endloop
  endfacet
  facet normal -0.5877852522924739 -0.8090169943749469 0
    outer loop
      vertex 2.071627966683242 2.5041680390213146 -5
      vertex 1.7414370836817392 2.744065757881549 -7.5
      vertex 2.071627966683242 2.5041680390213146 -7.5
    endloop
  endfacet
  facet normal -0.12533323356430365 -0.992114701314478 7.820610303113841e-17
    outer loop
      vertex 0.6089892724036049 3.1924335648682383 -5
      vertex 0.20406918847026814 3.2435868673918824 -5
      vertex 0.20406918847026653 3.2435868673918824 -7.5
    endloop
  endfacet
  facet normal -0.3681245526846775 -0.9297764858882515 0
    outer loop
      vertex 1.004305231718579 3.090933677959249 -5
      vertex 1.004305231718579 3.090933677959249 -7.5
      vertex 1.3837826975864864 2.9406879205145633 -5
    endloop
  endfacet
  facet normal -0.24868988716485538 -0.968583161128631 0
    outer loop
      vertex 0.6089892724036049 3.1924335648682383 -5
      vertex 0.6089892724036049 3.1924335648682383 -7.5
      vertex 1.004305231718579 3.090933677959249 -5
    endloop
  endfacet
  facet normal -0.48175367410171493 -0.8763066800438637 0
    outer loop
      vertex 1.3837826975864864 2.9406879205145633 -5
      vertex 1.3837826975864864 2.9406879205145633 -7.5
      vertex 1.7414370836817392 2.744065757881549 -5
    endloop
  endfacet
  facet normal -0.5877852522924739 -0.8090169943749469 0
    outer loop
      vertex 2.071627966683242 2.5041680390213146 -5
      vertex 1.7414370836817392 2.744065757881549 -5
      vertex 1.7414370836817392 2.744065757881549 -7.5
    endloop
  endfacet
  facet normal -0.9510565162951534 -0.3090169943749478 0
    outer loop
      vertex 3.147895273668051 0.8082421332857781 -5
      vertex 3.0217735791368168 1.1964047962252033 -7.5
      vertex 3.147895273668051 0.8082421332857781 -7.5
    endloop
  endfacet
  facet normal -0.9980267284282716 -0.06279051952931348 0
    outer loop
      vertex 3.25 0 -5
      vertex 3.224372779272053 0.40733300908398884 -7.5
      vertex 3.25 0 -7.5
    endloop
  endfacet
  facet normal -0.9822872507286887 -0.18738131458572485 0
    outer loop
      vertex 3.224372779272053 0.40733300908398884 -5
      vertex 3.147895273668051 0.8082421332857781 -7.5
      vertex 3.224372779272053 0.40733300908398884 -7.5
    endloop
  endfacet
  facet normal -0.8443279255020149 -0.5358267949789967 0
    outer loop
      vertex 2.8479967101425565 1.5656994408305749 -5
      vertex 2.629305231718579 1.9103020699505378 -7.5
      vertex 2.8479967101425565 1.5656994408305749 -7.5
    endloop
  endfacet
  facet normal -0.9048270524660198 -0.4257792915650721 0
    outer loop
      vertex 3.0217735791368168 1.1964047962252033 -5
      vertex 2.8479967101425565 1.5656994408305749 -7.5
      vertex 3.0217735791368168 1.1964047962252033 -7.5
    endloop
  endfacet
  facet normal -0.7705132427757895 -0.6374239897486893 0
    outer loop
      vertex 2.629305231718579 1.9103020699505378 -5
      vertex 2.3691480391195876 2.2247780942682382 -7.5
      vertex 2.629305231718579 1.9103020699505378 -7.5
    endloop
  endfacet
  facet normal -0.9510565162951534 -0.3090169943749478 0
    outer loop
      vertex 3.147895273668051 0.8082421332857781 -5
      vertex 3.0217735791368168 1.1964047962252033 -5
      vertex 3.0217735791368168 1.1964047962252033 -7.5
    endloop
  endfacet
  facet normal -0.9980267284282716 -0.06279051952931348 0
    outer loop
      vertex 3.25 0 -5
      vertex 3.224372779272053 0.40733300908398884 -5
      vertex 3.224372779272053 0.40733300908398884 -7.5
    endloop
  endfacet
  facet normal -0.9822872507286887 -0.18738131458572485 0
    outer loop
      vertex 3.224372779272053 0.40733300908398884 -5
      vertex 3.147895273668051 0.8082421332857781 -5
      vertex 3.147895273668051 0.8082421332857781 -7.5
    endloop
  endfacet
  facet normal -0.8443279255020149 -0.5358267949789967 0
    outer loop
      vertex 2.8479967101425565 1.5656994408305749 -5
      vertex 2.629305231718579 1.9103020699505378 -5
      vertex 2.629305231718579 1.9103020699505378 -7.5
    endloop
  endfacet
  facet normal -0.9048270524660198 -0.4257792915650721 0
    outer loop
      vertex 2.8479967101425565 1.5656994408305749 -5
      vertex 2.8479967101425565 1.5656994408305749 -7.5
      vertex 3.0217735791368168 1.1964047962252033 -5
    endloop
  endfacet
endsolid OpenSCAD_Model
