solid OpenSCAD_Model
  facet normal 0 -1 0
    outer loop
      vertex -2.95712 5.12189 -4.5
      vertex 2.95712 5.12189 0
      vertex -2.95712 5.12189 0
    endloop
  endfacet
  facet normal 0 -1 -0
    outer loop
      vertex 2.95712 5.12189 0
      vertex -2.95712 5.12189 -4.5
      vertex 2.95712 5.12189 -4.5
    endloop
  endfacet
  facet normal 0.866025 -0.500001 0
    outer loop
      vertex -5.91425 0 0
      vertex -2.95712 5.12189 -4.5
      vertex -2.95712 5.12189 0
    endloop
  endfacet
  facet normal 0.866025 -0.500001 0
    outer loop
      vertex -2.95712 5.12189 -4.5
      vertex -5.91425 0 0
      vertex -5.91425 0 -4.5
    endloop
  endfacet
  facet normal -0.866025 -0.500001 0
    outer loop
      vertex 5.91425 0 -4.5
      vertex 2.95712 5.12189 0
      vertex 2.95712 5.12189 -4.5
    endloop
  endfacet
  facet normal -0.866025 -0.500001 0
    outer loop
      vertex 2.95712 5.12189 0
      vertex 5.91425 0 -4.5
      vertex 5.91425 0 0
    endloop
  endfacet
  facet normal 0 0 1
    outer loop
      vertex 5.91425 0 0
      vertex 15 0 0
      vertex 14.8817 1.88 0
    endloop
  endfacet
  facet normal 0 0 1
    outer loop
      vertex 5.91425 0 0
      vertex 14.8817 1.88 0
      vertex 14.5287 3.73035 0
    endloop
  endfacet
  facet normal 0 0 1
    outer loop
      vertex 15 0 0
      vertex 5.91425 0 0
      vertex 14.8817 -1.88 0
    endloop
  endfacet
  facet normal 0 0 1
    outer loop
      vertex 5.91425 0 0
      vertex 14.5287 3.73035 0
      vertex 13.9466 5.52187 0
    endloop
  endfacet
  facet normal 0 0 1
    outer loop
      vertex 14.8817 -1.88 0
      vertex 5.91425 0 0
      vertex 14.5287 -3.73035 0
    endloop
  endfacet
  facet normal 0 0 1
    outer loop
      vertex 5.91425 0 0
      vertex 13.9466 5.52187 0
      vertex 13.1446 7.22631 0
    endloop
  endfacet
  facet normal 0 0 1
    outer loop
      vertex 14.5287 -3.73035 0
      vertex 5.91425 0 0
      vertex 13.9466 -5.52187 0
    endloop
  endfacet
  facet normal 0 0 1
    outer loop
      vertex 2.95712 5.12189 0
      vertex 13.1446 7.22631 0
      vertex 12.1353 8.81678 0
    endloop
  endfacet
  facet normal 0 0 1
    outer loop
      vertex 13.9466 -5.52187 0
      vertex 5.91425 0 0
      vertex 13.1446 -7.22631 0
    endloop
  endfacet
  facet normal 0 0 1
    outer loop
      vertex 2.95712 5.12189 0
      vertex 12.1353 8.81678 0
      vertex 10.9345 10.2682 0
    endloop
  endfacet
  facet normal -0 0 1
    outer loop
      vertex 2.95712 -5.12189 0
      vertex 13.1446 -7.22631 0
      vertex 5.91425 0 0
    endloop
  endfacet
  facet normal 0 0 1
    outer loop
      vertex 2.95712 5.12189 0
      vertex 10.9345 10.2682 0
      vertex 9.56136 11.5577 0
    endloop
  endfacet
  facet normal 0 0 1
    outer loop
      vertex 13.1446 -7.22631 0
      vertex 2.95712 -5.12189 0
      vertex 12.1353 -8.81678 0
    endloop
  endfacet
  facet normal 0 0 1
    outer loop
      vertex 2.95712 5.12189 0
      vertex 9.56136 11.5577 0
      vertex 8.0374 12.6649 0
    endloop
  endfacet
  facet normal 0 0 1
    outer loop
      vertex 12.1353 -8.81678 0
      vertex 2.95712 -5.12189 0
      vertex 10.9345 -10.2682 0
    endloop
  endfacet
  facet normal 0 0 1
    outer loop
      vertex 2.95712 5.12189 0
      vertex 8.0374 12.6649 0
      vertex 6.38669 13.5724 0
    endloop
  endfacet
  facet normal 0 0 1
    outer loop
      vertex 10.9345 -10.2682 0
      vertex 2.95712 -5.12189 0
      vertex 9.56136 -11.5577 0
    endloop
  endfacet
  facet normal 0 0 1
    outer loop
      vertex 9.56136 -11.5577 0
      vertex 2.95712 -5.12189 0
      vertex 8.0374 -12.6649 0
    endloop
  endfacet
  facet normal 0 0 1
    outer loop
      vertex 2.95712 5.12189 0
      vertex 6.38669 13.5724 0
      vertex 4.63525 14.2658 0
    endloop
  endfacet
  facet normal 0 0 1
    outer loop
      vertex 13.1446 7.22631 0
      vertex 2.95712 5.12189 0
      vertex 5.91425 0 0
    endloop
  endfacet
  facet normal 0 0 1
    outer loop
      vertex 2.81072 14.7343 0
      vertex 2.95712 5.12189 0
      vertex 4.63525 14.2658 0
    endloop
  endfacet
  facet normal 0 0 1
    outer loop
      vertex 0.941857 14.9704 0
      vertex 2.95712 5.12189 0
      vertex 2.81072 14.7343 0
    endloop
  endfacet
  facet normal -0 0 1
    outer loop
      vertex -0.941857 14.9704 0
      vertex 2.95712 5.12189 0
      vertex 0.941857 14.9704 0
    endloop
  endfacet
  facet normal 0 0 1
    outer loop
      vertex -2.95712 5.12189 0
      vertex -0.941857 14.9704 0
      vertex -2.81072 14.7343 0
    endloop
  endfacet
  facet normal 0 0 1
    outer loop
      vertex -0.941857 14.9704 0
      vertex -2.95712 5.12189 0
      vertex 2.95712 5.12189 0
    endloop
  endfacet
  facet normal -0 0 1
    outer loop
      vertex -4.63525 14.2658 0
      vertex -2.95712 5.12189 0
      vertex -2.81072 14.7343 0
    endloop
  endfacet
  facet normal -0 0 1
    outer loop
      vertex -6.38669 13.5724 0
      vertex -2.95712 5.12189 0
      vertex -4.63525 14.2658 0
    endloop
  endfacet
  facet normal -0 0 1
    outer loop
      vertex -8.0374 12.6649 0
      vertex -2.95712 5.12189 0
      vertex -6.38669 13.5724 0
    endloop
  endfacet
  facet normal 0 0 1
    outer loop
      vertex 8.0374 -12.6649 0
      vertex 2.95712 -5.12189 0
      vertex 6.38669 -13.5724 0
    endloop
  endfacet
  facet normal 0 0 1
    outer loop
      vertex 6.38669 -13.5724 0
      vertex 2.95712 -5.12189 0
      vertex 4.63525 -14.2658 0
    endloop
  endfacet
  facet normal 0 0 1
    outer loop
      vertex 2.95712 -5.12189 0
      vertex 2.81072 -14.7343 0
      vertex 4.63525 -14.2658 0
    endloop
  endfacet
  facet normal 0 0 1
    outer loop
      vertex 2.95712 -5.12189 0
      vertex 0.941857 -14.9704 0
      vertex 2.81072 -14.7343 0
    endloop
  endfacet
  facet normal 0 0 1
    outer loop
      vertex 2.95712 -5.12189 0
      vertex -0.941857 -14.9704 0
      vertex 0.941857 -14.9704 0
    endloop
  endfacet
  facet normal -0 0 1
    outer loop
      vertex -2.95712 -5.12189 0
      vertex -0.941857 -14.9704 0
      vertex 2.95712 -5.12189 0
    endloop
  endfacet
  facet normal 0 0 1
    outer loop
      vertex -0.941857 -14.9704 0
      vertex -2.95712 -5.12189 0
      vertex -2.81072 -14.7343 0
    endloop
  endfacet
  facet normal 0 0 1
    outer loop
      vertex -2.95712 -5.12189 0
      vertex -4.63525 -14.2658 0
      vertex -2.81072 -14.7343 0
    endloop
  endfacet
  facet normal 0 0 1
    outer loop
      vertex -13.1446 -7.22631 0
      vertex -2.95712 -5.12189 0
      vertex -5.91425 0 0
    endloop
  endfacet
  facet normal 0 0 1
    outer loop
      vertex -2.95712 -5.12189 0
      vertex -6.38669 -13.5724 0
      vertex -4.63525 -14.2658 0
    endloop
  endfacet
  facet normal -0 0 1
    outer loop
      vertex -9.56136 11.5577 0
      vertex -2.95712 5.12189 0
      vertex -8.0374 12.6649 0
    endloop
  endfacet
  facet normal -0 0 1
    outer loop
      vertex -10.9345 10.2682 0
      vertex -2.95712 5.12189 0
      vertex -9.56136 11.5577 0
    endloop
  endfacet
  facet normal 0 0 1
    outer loop
      vertex -2.95712 -5.12189 0
      vertex -8.0374 -12.6649 0
      vertex -6.38669 -13.5724 0
    endloop
  endfacet
  facet normal -0 0 1
    outer loop
      vertex -12.1353 8.81678 0
      vertex -2.95712 5.12189 0
      vertex -10.9345 10.2682 0
    endloop
  endfacet
  facet normal 0 0 1
    outer loop
      vertex -2.95712 -5.12189 0
      vertex -9.56136 -11.5577 0
      vertex -8.0374 -12.6649 0
    endloop
  endfacet
  facet normal -0 0 1
    outer loop
      vertex -13.1446 7.22631 0
      vertex -2.95712 5.12189 0
      vertex -12.1353 8.81678 0
    endloop
  endfacet
  facet normal 0 0 1
    outer loop
      vertex -2.95712 -5.12189 0
      vertex -10.9345 -10.2682 0
      vertex -9.56136 -11.5577 0
    endloop
  endfacet
  facet normal 0 0 1
    outer loop
      vertex -2.95712 5.12189 0
      vertex -13.1446 7.22631 0
      vertex -5.91425 0 0
    endloop
  endfacet
  facet normal 0 0 1
    outer loop
      vertex -2.95712 -5.12189 0
      vertex -12.1353 -8.81678 0
      vertex -10.9345 -10.2682 0
    endloop
  endfacet
  facet normal -0 0 1
    outer loop
      vertex -13.9466 5.52187 0
      vertex -5.91425 0 0
      vertex -13.1446 7.22631 0
    endloop
  endfacet
  facet normal 0 0 1
    outer loop
      vertex -2.95712 -5.12189 0
      vertex -13.1446 -7.22631 0
      vertex -12.1353 -8.81678 0
    endloop
  endfacet
  facet normal -0 0 1
    outer loop
      vertex -14.5287 3.73035 0
      vertex -5.91425 0 0
      vertex -13.9466 5.52187 0
    endloop
  endfacet
  facet normal 0 0 1
    outer loop
      vertex -5.91425 0 0
      vertex -13.9466 -5.52187 0
      vertex -13.1446 -7.22631 0
    endloop
  endfacet
  facet normal -0 0 1
    outer loop
      vertex -14.8817 1.88 0
      vertex -5.91425 0 0
      vertex -14.5287 3.73035 0
    endloop
  endfacet
  facet normal 0 0 1
    outer loop
      vertex -5.91425 0 0
      vertex -14.5287 -3.73035 0
      vertex -13.9466 -5.52187 0
    endloop
  endfacet
  facet normal 0 0 1
    outer loop
      vertex -15 0 0
      vertex -5.91425 0 0
      vertex -14.8817 1.88 0
    endloop
  endfacet
  facet normal 0 0 1
    outer loop
      vertex -5.91425 0 0
      vertex -14.8817 -1.88 0
      vertex -14.5287 -3.73035 0
    endloop
  endfacet
  facet normal 0 0 1
    outer loop
      vertex -5.91425 0 0
      vertex -15 0 0
      vertex -14.8817 -1.88 0
    endloop
  endfacet
  facet normal 0 1 -0
    outer loop
      vertex 2.95712 -5.12189 -4.5
      vertex -2.95712 -5.12189 0
      vertex 2.95712 -5.12189 0
    endloop
  endfacet
  facet normal 0 1 0
    outer loop
      vertex -2.95712 -5.12189 0
      vertex 2.95712 -5.12189 -4.5
      vertex -2.95712 -5.12189 -4.5
    endloop
  endfacet
  facet normal 0.866025 0.500001 0
    outer loop
      vertex -2.95712 -5.12189 0
      vertex -5.91425 0 -4.5
      vertex -5.91425 0 0
    endloop
  endfacet
  facet normal 0.866025 0.500001 0
    outer loop
      vertex -5.91425 0 -4.5
      vertex -2.95712 -5.12189 0
      vertex -2.95712 -5.12189 -4.5
    endloop
  endfacet
  facet normal -0.866025 0.500001 0
    outer loop
      vertex 2.95712 -5.12189 -4.5
      vertex 5.91425 0 0
      vertex 5.91425 0 -4.5
    endloop
  endfacet
  facet normal -0.866025 0.500001 0
    outer loop
      vertex 5.91425 0 0
      vertex 2.95712 -5.12189 -4.5
      vertex 2.95712 -5.12189 0
    endloop
  endfacet
  facet normal 0.998026 0.0628013 0
    outer loop
      vertex 15 0 0
      vertex 14.8817 1.88 -4.5
      vertex 14.8817 1.88 0
    endloop
  endfacet
  facet normal 0.998026 0.0628013 0
    outer loop
      vertex 14.8817 1.88 -4.5
      vertex 15 0 0
      vertex 15 0 -4.5
    endloop
  endfacet
  facet normal -0.998026 0.0628013 0
    outer loop
      vertex -15 0 -4.5
      vertex -14.8817 1.88 0
      vertex -14.8817 1.88 -4.5
    endloop
  endfacet
  facet normal -0.998026 0.0628013 0
    outer loop
      vertex -14.8817 1.88 0
      vertex -15 0 -4.5
      vertex -15 0 0
    endloop
  endfacet
  facet normal 0 1 -0
    outer loop
      vertex 0.941857 14.9704 -4.5
      vertex -0.941857 14.9704 0
      vertex 0.941857 14.9704 0
    endloop
  endfacet
  facet normal 0 1 0
    outer loop
      vertex -0.941857 14.9704 0
      vertex 0.941857 14.9704 -4.5
      vertex -0.941857 14.9704 -4.5
    endloop
  endfacet
  facet normal 0.684557 0.728959 -0
    outer loop
      vertex 10.9345 10.2682 -4.5
      vertex 9.56136 11.5577 0
      vertex 10.9345 10.2682 0
    endloop
  endfacet
  facet normal 0.684557 0.728959 0
    outer loop
      vertex 9.56136 11.5577 0
      vertex 10.9345 10.2682 -4.5
      vertex 9.56136 11.5577 -4.5
    endloop
  endfacet
  facet normal -0.684557 0.728959 0
    outer loop
      vertex -9.56136 11.5577 -4.5
      vertex -10.9345 10.2682 0
      vertex -9.56136 11.5577 0
    endloop
  endfacet
  facet normal -0.684557 0.728959 0
    outer loop
      vertex -10.9345 10.2682 0
      vertex -9.56136 11.5577 -4.5
      vertex -10.9345 10.2682 -4.5
    endloop
  endfacet
  facet normal -0.368104 0.929785 0
    outer loop
      vertex -4.63525 14.2658 -4.5
      vertex -6.38669 13.5724 0
      vertex -4.63525 14.2658 0
    endloop
  endfacet
  facet normal -0.368104 0.929785 0
    outer loop
      vertex -6.38669 13.5724 0
      vertex -4.63525 14.2658 -4.5
      vertex -6.38669 13.5724 -4.5
    endloop
  endfacet
  facet normal 0.904837 0.425758 0
    outer loop
      vertex 13.9466 5.52187 0
      vertex 13.1446 7.22631 -4.5
      vertex 13.1446 7.22631 0
    endloop
  endfacet
  facet normal 0.904837 0.425758 0
    outer loop
      vertex 13.1446 7.22631 -4.5
      vertex 13.9466 5.52187 0
      vertex 13.9466 5.52187 -4.5
    endloop
  endfacet
  facet normal 0.844338 0.535811 0
    outer loop
      vertex 13.1446 7.22631 0
      vertex 12.1353 8.81678 -4.5
      vertex 12.1353 8.81678 0
    endloop
  endfacet
  facet normal 0.844338 0.535811 0
    outer loop
      vertex 12.1353 8.81678 -4.5
      vertex 13.1446 7.22631 0
      vertex 13.1446 7.22631 -4.5
    endloop
  endfacet
  facet normal 0.368104 0.929785 -0
    outer loop
      vertex 6.38669 13.5724 -4.5
      vertex 4.63525 14.2658 0
      vertex 6.38669 13.5724 0
    endloop
  endfacet
  facet normal 0.368104 0.929785 0
    outer loop
      vertex 4.63525 14.2658 0
      vertex 6.38669 13.5724 -4.5
      vertex 4.63525 14.2658 -4.5
    endloop
  endfacet
  facet normal 0.587778 0.809022 -0
    outer loop
      vertex 9.56136 11.5577 -4.5
      vertex 8.0374 12.6649 0
      vertex 9.56136 11.5577 0
    endloop
  endfacet
  facet normal 0.587778 0.809022 0
    outer loop
      vertex 8.0374 12.6649 0
      vertex 9.56136 11.5577 -4.5
      vertex 8.0374 12.6649 -4.5
    endloop
  endfacet
  facet normal -0.904837 0.425758 0
    outer loop
      vertex -13.9466 5.52187 -4.5
      vertex -13.1446 7.22631 0
      vertex -13.1446 7.22631 -4.5
    endloop
  endfacet
  facet normal -0.904837 0.425758 0
    outer loop
      vertex -13.1446 7.22631 0
      vertex -13.9466 5.52187 -4.5
      vertex -13.9466 5.52187 0
    endloop
  endfacet
  facet normal -0.844338 0.535811 0
    outer loop
      vertex -13.1446 7.22631 -4.5
      vertex -12.1353 8.81678 0
      vertex -12.1353 8.81678 -4.5
    endloop
  endfacet
  facet normal -0.844338 0.535811 0
    outer loop
      vertex -12.1353 8.81678 0
      vertex -13.1446 7.22631 -4.5
      vertex -13.1446 7.22631 0
    endloop
  endfacet
  facet normal -0.951057 0.309017 0
    outer loop
      vertex -14.5287 3.73035 -4.5
      vertex -13.9466 5.52187 0
      vertex -13.9466 5.52187 -4.5
    endloop
  endfacet
  facet normal -0.951057 0.309017 0
    outer loop
      vertex -13.9466 5.52187 0
      vertex -14.5287 3.73035 -4.5
      vertex -14.5287 3.73035 0
    endloop
  endfacet
  facet normal -0.587778 0.809022 0
    outer loop
      vertex -8.0374 12.6649 -4.5
      vertex -9.56136 11.5577 0
      vertex -8.0374 12.6649 0
    endloop
  endfacet
  facet normal -0.587778 0.809022 0
    outer loop
      vertex -9.56136 11.5577 0
      vertex -8.0374 12.6649 -4.5
      vertex -9.56136 11.5577 -4.5
    endloop
  endfacet
  facet normal -0.125337 0.992114 0
    outer loop
      vertex -0.941857 14.9704 -4.5
      vertex -2.81072 14.7343 0
      vertex -0.941857 14.9704 0
    endloop
  endfacet
  facet normal -0.125337 0.992114 0
    outer loop
      vertex -2.81072 14.7343 0
      vertex -0.941857 14.9704 -4.5
      vertex -2.81072 14.7343 -4.5
    endloop
  endfacet
  facet normal 0.998026 -0.0628013 0
    outer loop
      vertex 14.8817 -1.88 0
      vertex 15 0 -4.5
      vertex 15 0 0
    endloop
  endfacet
  facet normal 0.998026 -0.0628013 0
    outer loop
      vertex 15 0 -4.5
      vertex 14.8817 -1.88 0
      vertex 14.8817 -1.88 -4.5
    endloop
  endfacet
  facet normal -0.24871 -0.968578 0
    outer loop
      vertex -4.63525 -14.2658 -4.5
      vertex -2.81072 -14.7343 0
      vertex -4.63525 -14.2658 0
    endloop
  endfacet
  facet normal -0.24871 -0.968578 -0
    outer loop
      vertex -2.81072 -14.7343 0
      vertex -4.63525 -14.2658 -4.5
      vertex -2.81072 -14.7343 -4.5
    endloop
  endfacet
  facet normal -0.904837 -0.425758 0
    outer loop
      vertex -13.1446 -7.22631 -4.5
      vertex -13.9466 -5.52187 0
      vertex -13.9466 -5.52187 -4.5
    endloop
  endfacet
  facet normal -0.904837 -0.425758 0
    outer loop
      vertex -13.9466 -5.52187 0
      vertex -13.1446 -7.22631 -4.5
      vertex -13.1446 -7.22631 0
    endloop
  endfacet
  facet normal 0.125337 -0.992114 0
    outer loop
      vertex 0.941857 -14.9704 -4.5
      vertex 2.81072 -14.7343 0
      vertex 0.941857 -14.9704 0
    endloop
  endfacet
  facet normal 0.125337 -0.992114 0
    outer loop
      vertex 2.81072 -14.7343 0
      vertex 0.941857 -14.9704 -4.5
      vertex 2.81072 -14.7343 -4.5
    endloop
  endfacet
  facet normal 0.951057 0.309017 0
    outer loop
      vertex 14.5287 3.73035 0
      vertex 13.9466 5.52187 -4.5
      vertex 13.9466 5.52187 0
    endloop
  endfacet
  facet normal 0.951057 0.309017 0
    outer loop
      vertex 13.9466 5.52187 -4.5
      vertex 14.5287 3.73035 0
      vertex 14.5287 3.73035 -4.5
    endloop
  endfacet
  facet normal 0.982285 0.187395 0
    outer loop
      vertex 14.8817 1.88 0
      vertex 14.5287 3.73035 -4.5
      vertex 14.5287 3.73035 0
    endloop
  endfacet
  facet normal 0.982285 0.187395 0
    outer loop
      vertex 14.5287 3.73035 -4.5
      vertex 14.8817 1.88 0
      vertex 14.8817 1.88 -4.5
    endloop
  endfacet
  facet normal 0.770492 0.63745 0
    outer loop
      vertex 12.1353 8.81678 0
      vertex 10.9345 10.2682 -4.5
      vertex 10.9345 10.2682 0
    endloop
  endfacet
  facet normal 0.770492 0.63745 0
    outer loop
      vertex 10.9345 10.2682 -4.5
      vertex 12.1353 8.81678 0
      vertex 12.1353 8.81678 -4.5
    endloop
  endfacet
  facet normal 0.24871 0.968578 -0
    outer loop
      vertex 4.63525 14.2658 -4.5
      vertex 2.81072 14.7343 0
      vertex 4.63525 14.2658 0
    endloop
  endfacet
  facet normal 0.24871 0.968578 0
    outer loop
      vertex 2.81072 14.7343 0
      vertex 4.63525 14.2658 -4.5
      vertex 2.81072 14.7343 -4.5
    endloop
  endfacet
  facet normal 0.125337 0.992114 -0
    outer loop
      vertex 2.81072 14.7343 -4.5
      vertex 0.941857 14.9704 0
      vertex 2.81072 14.7343 0
    endloop
  endfacet
  facet normal 0.125337 0.992114 0
    outer loop
      vertex 0.941857 14.9704 0
      vertex 2.81072 14.7343 -4.5
      vertex 0.941857 14.9704 -4.5
    endloop
  endfacet
  facet normal 0.48176 0.876303 -0
    outer loop
      vertex 8.0374 12.6649 -4.5
      vertex 6.38669 13.5724 0
      vertex 8.0374 12.6649 0
    endloop
  endfacet
  facet normal 0.48176 0.876303 0
    outer loop
      vertex 6.38669 13.5724 0
      vertex 8.0374 12.6649 -4.5
      vertex 6.38669 13.5724 -4.5
    endloop
  endfacet
  facet normal -0.770492 0.63745 0
    outer loop
      vertex -12.1353 8.81678 -4.5
      vertex -10.9345 10.2682 0
      vertex -10.9345 10.2682 -4.5
    endloop
  endfacet
  facet normal -0.770492 0.63745 0
    outer loop
      vertex -10.9345 10.2682 0
      vertex -12.1353 8.81678 -4.5
      vertex -12.1353 8.81678 0
    endloop
  endfacet
  facet normal -0.982285 0.187395 0
    outer loop
      vertex -14.8817 1.88 -4.5
      vertex -14.5287 3.73035 0
      vertex -14.5287 3.73035 -4.5
    endloop
  endfacet
  facet normal -0.982285 0.187395 0
    outer loop
      vertex -14.5287 3.73035 0
      vertex -14.8817 1.88 -4.5
      vertex -14.8817 1.88 0
    endloop
  endfacet
  facet normal -0.48176 0.876303 0
    outer loop
      vertex -6.38669 13.5724 -4.5
      vertex -8.0374 12.6649 0
      vertex -6.38669 13.5724 0
    endloop
  endfacet
  facet normal -0.48176 0.876303 0
    outer loop
      vertex -8.0374 12.6649 0
      vertex -6.38669 13.5724 -4.5
      vertex -8.0374 12.6649 -4.5
    endloop
  endfacet
  facet normal -0.24871 0.968578 0
    outer loop
      vertex -2.81072 14.7343 -4.5
      vertex -4.63525 14.2658 0
      vertex -2.81072 14.7343 0
    endloop
  endfacet
  facet normal -0.24871 0.968578 0
    outer loop
      vertex -4.63525 14.2658 0
      vertex -2.81072 14.7343 -4.5
      vertex -4.63525 14.2658 -4.5
    endloop
  endfacet
  facet normal 0.844338 -0.535811 0
    outer loop
      vertex 12.1353 -8.81678 0
      vertex 13.1446 -7.22631 -4.5
      vertex 13.1446 -7.22631 0
    endloop
  endfacet
  facet normal 0.844338 -0.535811 0
    outer loop
      vertex 13.1446 -7.22631 -4.5
      vertex 12.1353 -8.81678 0
      vertex 12.1353 -8.81678 -4.5
    endloop
  endfacet
  facet normal 0.982285 -0.187395 0
    outer loop
      vertex 14.5287 -3.73035 0
      vertex 14.8817 -1.88 -4.5
      vertex 14.8817 -1.88 0
    endloop
  endfacet
  facet normal 0.982285 -0.187395 0
    outer loop
      vertex 14.8817 -1.88 -4.5
      vertex 14.5287 -3.73035 0
      vertex 14.5287 -3.73035 -4.5
    endloop
  endfacet
  facet normal -0.844338 -0.535811 0
    outer loop
      vertex -12.1353 -8.81678 -4.5
      vertex -13.1446 -7.22631 0
      vertex -13.1446 -7.22631 -4.5
    endloop
  endfacet
  facet normal -0.844338 -0.535811 0
    outer loop
      vertex -13.1446 -7.22631 0
      vertex -12.1353 -8.81678 -4.5
      vertex -12.1353 -8.81678 0
    endloop
  endfacet
  facet normal -0.951057 -0.309017 0
    outer loop
      vertex -13.9466 -5.52187 -4.5
      vertex -14.5287 -3.73035 0
      vertex -14.5287 -3.73035 -4.5
    endloop
  endfacet
  facet normal -0.951057 -0.309017 0
    outer loop
      vertex -14.5287 -3.73035 0
      vertex -13.9466 -5.52187 -4.5
      vertex -13.9466 -5.52187 0
    endloop
  endfacet
  facet normal 0.368104 -0.929785 0
    outer loop
      vertex 4.63525 -14.2658 -4.5
      vertex 6.38669 -13.5724 0
      vertex 4.63525 -14.2658 0
    endloop
  endfacet
  facet normal 0.368104 -0.929785 0
    outer loop
      vertex 6.38669 -13.5724 0
      vertex 4.63525 -14.2658 -4.5
      vertex 6.38669 -13.5724 -4.5
    endloop
  endfacet
  facet normal 0.24871 -0.968578 0
    outer loop
      vertex 2.81072 -14.7343 -4.5
      vertex 4.63525 -14.2658 0
      vertex 2.81072 -14.7343 0
    endloop
  endfacet
  facet normal 0.24871 -0.968578 0
    outer loop
      vertex 4.63525 -14.2658 0
      vertex 2.81072 -14.7343 -4.5
      vertex 4.63525 -14.2658 -4.5
    endloop
  endfacet
  facet normal 0.684557 -0.728959 0
    outer loop
      vertex 9.56136 -11.5577 -4.5
      vertex 10.9345 -10.2682 0
      vertex 9.56136 -11.5577 0
    endloop
  endfacet
  facet normal 0.684557 -0.728959 0
    outer loop
      vertex 10.9345 -10.2682 0
      vertex 9.56136 -11.5577 -4.5
      vertex 10.9345 -10.2682 -4.5
    endloop
  endfacet
  facet normal 0.904837 -0.425758 0
    outer loop
      vertex 13.1446 -7.22631 0
      vertex 13.9466 -5.52187 -4.5
      vertex 13.9466 -5.52187 0
    endloop
  endfacet
  facet normal 0.904837 -0.425758 0
    outer loop
      vertex 13.9466 -5.52187 -4.5
      vertex 13.1446 -7.22631 0
      vertex 13.1446 -7.22631 -4.5
    endloop
  endfacet
  facet normal 0.951057 -0.309017 0
    outer loop
      vertex 13.9466 -5.52187 0
      vertex 14.5287 -3.73035 -4.5
      vertex 14.5287 -3.73035 0
    endloop
  endfacet
  facet normal 0.951057 -0.309017 0
    outer loop
      vertex 14.5287 -3.73035 -4.5
      vertex 13.9466 -5.52187 0
      vertex 13.9466 -5.52187 -4.5
    endloop
  endfacet
  facet normal 0 -1 0
    outer loop
      vertex -0.941857 -14.9704 -4.5
      vertex 0.941857 -14.9704 0
      vertex -0.941857 -14.9704 0
    endloop
  endfacet
  facet normal 0 -1 -0
    outer loop
      vertex 0.941857 -14.9704 0
      vertex -0.941857 -14.9704 -4.5
      vertex 0.941857 -14.9704 -4.5
    endloop
  endfacet
  facet normal -0.368104 -0.929785 0
    outer loop
      vertex -6.38669 -13.5724 -4.5
      vertex -4.63525 -14.2658 0
      vertex -6.38669 -13.5724 0
    endloop
  endfacet
  facet normal -0.368104 -0.929785 -0
    outer loop
      vertex -4.63525 -14.2658 0
      vertex -6.38669 -13.5724 -4.5
      vertex -4.63525 -14.2658 -4.5
    endloop
  endfacet
  facet normal -0.770492 -0.63745 0
    outer loop
      vertex -10.9345 -10.2682 -4.5
      vertex -12.1353 -8.81678 0
      vertex -12.1353 -8.81678 -4.5
    endloop
  endfacet
  facet normal -0.770492 -0.63745 0
    outer loop
      vertex -12.1353 -8.81678 0
      vertex -10.9345 -10.2682 -4.5
      vertex -10.9345 -10.2682 0
    endloop
  endfacet
  facet normal -0.998026 -0.0628013 0
    outer loop
      vertex -14.8817 -1.88 -4.5
      vertex -15 0 0
      vertex -15 0 -4.5
    endloop
  endfacet
  facet normal -0.998026 -0.0628013 0
    outer loop
      vertex -15 0 0
      vertex -14.8817 -1.88 -4.5
      vertex -14.8817 -1.88 0
    endloop
  endfacet
  facet normal 0 0 -1
    outer loop
      vertex 5.91425 0 -4.5
      vertex 15 0 -4.5
      vertex 14.8817 -1.88 -4.5
    endloop
  endfacet
  facet normal 0 0 -1
    outer loop
      vertex 5.91425 0 -4.5
      vertex 14.8817 -1.88 -4.5
      vertex 14.5287 -3.73035 -4.5
    endloop
  endfacet
  facet normal 0 0 -1
    outer loop
      vertex 15 0 -4.5
      vertex 5.91425 0 -4.5
      vertex 14.8817 1.88 -4.5
    endloop
  endfacet
  facet normal 0 0 -1
    outer loop
      vertex 5.91425 0 -4.5
      vertex 14.5287 -3.73035 -4.5
      vertex 13.9466 -5.52187 -4.5
    endloop
  endfacet
  facet normal -0 0 -1
    outer loop
      vertex 14.8817 1.88 -4.5
      vertex 5.91425 0 -4.5
      vertex 14.5287 3.73035 -4.5
    endloop
  endfacet
  facet normal 0 0 -1
    outer loop
      vertex 5.91425 0 -4.5
      vertex 13.9466 -5.52187 -4.5
      vertex 13.1446 -7.22631 -4.5
    endloop
  endfacet
  facet normal -0 0 -1
    outer loop
      vertex 14.5287 3.73035 -4.5
      vertex 5.91425 0 -4.5
      vertex 13.9466 5.52187 -4.5
    endloop
  endfacet
  facet normal 0 0 -1
    outer loop
      vertex 2.95712 -5.12189 -4.5
      vertex 13.1446 -7.22631 -4.5
      vertex 12.1353 -8.81678 -4.5
    endloop
  endfacet
  facet normal -0 0 -1
    outer loop
      vertex 13.9466 5.52187 -4.5
      vertex 5.91425 0 -4.5
      vertex 13.1446 7.22631 -4.5
    endloop
  endfacet
  facet normal 0 0 -1
    outer loop
      vertex 2.95712 -5.12189 -4.5
      vertex 12.1353 -8.81678 -4.5
      vertex 10.9345 -10.2682 -4.5
    endloop
  endfacet
  facet normal 0 0 -1
    outer loop
      vertex 2.95712 5.12189 -4.5
      vertex 13.1446 7.22631 -4.5
      vertex 5.91425 0 -4.5
    endloop
  endfacet
  facet normal 0 0 -1
    outer loop
      vertex 2.95712 -5.12189 -4.5
      vertex 10.9345 -10.2682 -4.5
      vertex 9.56136 -11.5577 -4.5
    endloop
  endfacet
  facet normal -0 0 -1
    outer loop
      vertex 13.1446 7.22631 -4.5
      vertex 2.95712 5.12189 -4.5
      vertex 12.1353 8.81678 -4.5
    endloop
  endfacet
  facet normal 0 0 -1
    outer loop
      vertex 2.95712 -5.12189 -4.5
      vertex 9.56136 -11.5577 -4.5
      vertex 8.0374 -12.6649 -4.5
    endloop
  endfacet
  facet normal -0 0 -1
    outer loop
      vertex 12.1353 8.81678 -4.5
      vertex 2.95712 5.12189 -4.5
      vertex 10.9345 10.2682 -4.5
    endloop
  endfacet
  facet normal 0 0 -1
    outer loop
      vertex 2.95712 -5.12189 -4.5
      vertex 8.0374 -12.6649 -4.5
      vertex 6.38669 -13.5724 -4.5
    endloop
  endfacet
  facet normal -0 0 -1
    outer loop
      vertex 10.9345 10.2682 -4.5
      vertex 2.95712 5.12189 -4.5
      vertex 9.56136 11.5577 -4.5
    endloop
  endfacet
  facet normal -0 0 -1
    outer loop
      vertex 9.56136 11.5577 -4.5
      vertex 2.95712 5.12189 -4.5
      vertex 8.0374 12.6649 -4.5
    endloop
  endfacet
  facet normal 0 0 -1
    outer loop
      vertex 2.95712 -5.12189 -4.5
      vertex 6.38669 -13.5724 -4.5
      vertex 4.63525 -14.2658 -4.5
    endloop
  endfacet
  facet normal 0 0 -1
    outer loop
      vertex 13.1446 -7.22631 -4.5
      vertex 2.95712 -5.12189 -4.5
      vertex 5.91425 0 -4.5
    endloop
  endfacet
  facet normal 0 0 -1
    outer loop
      vertex 2.81072 -14.7343 -4.5
      vertex 2.95712 -5.12189 -4.5
      vertex 4.63525 -14.2658 -4.5
    endloop
  endfacet
  facet normal 0 0 -1
    outer loop
      vertex 0.941857 -14.9704 -4.5
      vertex 2.95712 -5.12189 -4.5
      vertex 2.81072 -14.7343 -4.5
    endloop
  endfacet
  facet normal 0 0 -1
    outer loop
      vertex -0.941857 -14.9704 -4.5
      vertex 2.95712 -5.12189 -4.5
      vertex 0.941857 -14.9704 -4.5
    endloop
  endfacet
  facet normal 0 0 -1
    outer loop
      vertex -2.95712 -5.12189 -4.5
      vertex -0.941857 -14.9704 -4.5
      vertex -2.81072 -14.7343 -4.5
    endloop
  endfacet
  facet normal 0 0 -1
    outer loop
      vertex -0.941857 -14.9704 -4.5
      vertex -2.95712 -5.12189 -4.5
      vertex 2.95712 -5.12189 -4.5
    endloop
  endfacet
  facet normal 0 0 -1
    outer loop
      vertex -4.63525 -14.2658 -4.5
      vertex -2.95712 -5.12189 -4.5
      vertex -2.81072 -14.7343 -4.5
    endloop
  endfacet
  facet normal 0 0 -1
    outer loop
      vertex -6.38669 -13.5724 -4.5
      vertex -2.95712 -5.12189 -4.5
      vertex -4.63525 -14.2658 -4.5
    endloop
  endfacet
  facet normal 0 0 -1
    outer loop
      vertex -8.0374 -12.6649 -4.5
      vertex -2.95712 -5.12189 -4.5
      vertex -6.38669 -13.5724 -4.5
    endloop
  endfacet
  facet normal -0 0 -1
    outer loop
      vertex 8.0374 12.6649 -4.5
      vertex 2.95712 5.12189 -4.5
      vertex 6.38669 13.5724 -4.5
    endloop
  endfacet
  facet normal -0 0 -1
    outer loop
      vertex 6.38669 13.5724 -4.5
      vertex 2.95712 5.12189 -4.5
      vertex 4.63525 14.2658 -4.5
    endloop
  endfacet
  facet normal 0 0 -1
    outer loop
      vertex 2.95712 5.12189 -4.5
      vertex 2.81072 14.7343 -4.5
      vertex 4.63525 14.2658 -4.5
    endloop
  endfacet
  facet normal 0 0 -1
    outer loop
      vertex 2.95712 5.12189 -4.5
      vertex 0.941857 14.9704 -4.5
      vertex 2.81072 14.7343 -4.5
    endloop
  endfacet
  facet normal 0 0 -1
    outer loop
      vertex 2.95712 5.12189 -4.5
      vertex -0.941857 14.9704 -4.5
      vertex 0.941857 14.9704 -4.5
    endloop
  endfacet
  facet normal 0 0 -1
    outer loop
      vertex -2.95712 5.12189 -4.5
      vertex -0.941857 14.9704 -4.5
      vertex 2.95712 5.12189 -4.5
    endloop
  endfacet
  facet normal 0 0 -1
    outer loop
      vertex -0.941857 14.9704 -4.5
      vertex -2.95712 5.12189 -4.5
      vertex -2.81072 14.7343 -4.5
    endloop
  endfacet
  facet normal 0 0 -1
    outer loop
      vertex -2.95712 5.12189 -4.5
      vertex -4.63525 14.2658 -4.5
      vertex -2.81072 14.7343 -4.5
    endloop
  endfacet
  facet normal 0 0 -1
    outer loop
      vertex -13.1446 7.22631 -4.5
      vertex -2.95712 5.12189 -4.5
      vertex -5.91425 0 -4.5
    endloop
  endfacet
  facet normal 0 0 -1
    outer loop
      vertex -2.95712 5.12189 -4.5
      vertex -6.38669 13.5724 -4.5
      vertex -4.63525 14.2658 -4.5
    endloop
  endfacet
  facet normal 0 0 -1
    outer loop
      vertex -9.56136 -11.5577 -4.5
      vertex -2.95712 -5.12189 -4.5
      vertex -8.0374 -12.6649 -4.5
    endloop
  endfacet
  facet normal 0 0 -1
    outer loop
      vertex -10.9345 -10.2682 -4.5
      vertex -2.95712 -5.12189 -4.5
      vertex -9.56136 -11.5577 -4.5
    endloop
  endfacet
  facet normal 0 0 -1
    outer loop
      vertex -2.95712 5.12189 -4.5
      vertex -8.0374 12.6649 -4.5
      vertex -6.38669 13.5724 -4.5
    endloop
  endfacet
  facet normal 0 0 -1
    outer loop
      vertex -12.1353 -8.81678 -4.5
      vertex -2.95712 -5.12189 -4.5
      vertex -10.9345 -10.2682 -4.5
    endloop
  endfacet
  facet normal 0 0 -1
    outer loop
      vertex -2.95712 5.12189 -4.5
      vertex -9.56136 11.5577 -4.5
      vertex -8.0374 12.6649 -4.5
    endloop
  endfacet
  facet normal 0 0 -1
    outer loop
      vertex -13.1446 -7.22631 -4.5
      vertex -2.95712 -5.12189 -4.5
      vertex -12.1353 -8.81678 -4.5
    endloop
  endfacet
  facet normal 0 0 -1
    outer loop
      vertex -2.95712 5.12189 -4.5
      vertex -10.9345 10.2682 -4.5
      vertex -9.56136 11.5577 -4.5
    endloop
  endfacet
  facet normal -0 0 -1
    outer loop
      vertex -2.95712 -5.12189 -4.5
      vertex -13.1446 -7.22631 -4.5
      vertex -5.91425 0 -4.5
    endloop
  endfacet
  facet normal 0 0 -1
    outer loop
      vertex -2.95712 5.12189 -4.5
      vertex -12.1353 8.81678 -4.5
      vertex -10.9345 10.2682 -4.5
    endloop
  endfacet
  facet normal 0 0 -1
    outer loop
      vertex -13.9466 -5.52187 -4.5
      vertex -5.91425 0 -4.5
      vertex -13.1446 -7.22631 -4.5
    endloop
  endfacet
  facet normal 0 0 -1
    outer loop
      vertex -2.95712 5.12189 -4.5
      vertex -13.1446 7.22631 -4.5
      vertex -12.1353 8.81678 -4.5
    endloop
  endfacet
  facet normal 0 0 -1
    outer loop
      vertex -14.5287 -3.73035 -4.5
      vertex -5.91425 0 -4.5
      vertex -13.9466 -5.52187 -4.5
    endloop
  endfacet
  facet normal 0 0 -1
    outer loop
      vertex -5.91425 0 -4.5
      vertex -13.9466 5.52187 -4.5
      vertex -13.1446 7.22631 -4.5
    endloop
  endfacet
  facet normal 0 0 -1
    outer loop
      vertex -14.8817 -1.88 -4.5
      vertex -5.91425 0 -4.5
      vertex -14.5287 -3.73035 -4.5
    endloop
  endfacet
  facet normal 0 0 -1
    outer loop
      vertex -5.91425 0 -4.5
      vertex -14.5287 3.73035 -4.5
      vertex -13.9466 5.52187 -4.5
    endloop
  endfacet
  facet normal 0 0 -1
    outer loop
      vertex -15 0 -4.5
      vertex -5.91425 0 -4.5
      vertex -14.8817 -1.88 -4.5
    endloop
  endfacet
  facet normal 0 0 -1
    outer loop
      vertex -5.91425 0 -4.5
      vertex -14.8817 1.88 -4.5
      vertex -14.5287 3.73035 -4.5
    endloop
  endfacet
  facet normal 0 0 -1
    outer loop
      vertex -5.91425 0 -4.5
      vertex -15 0 -4.5
      vertex -14.8817 1.88 -4.5
    endloop
  endfacet
  facet normal -0.982285 -0.187395 0
    outer loop
      vertex -14.5287 -3.73035 -4.5
      vertex -14.8817 -1.88 0
      vertex -14.8817 -1.88 -4.5
    endloop
  endfacet
  facet normal -0.982285 -0.187395 0
    outer loop
      vertex -14.8817 -1.88 0
      vertex -14.5287 -3.73035 -4.5
      vertex -14.5287 -3.73035 0
    endloop
  endfacet
  facet normal 0.48176 -0.876303 0
    outer loop
      vertex 6.38669 -13.5724 -4.5
      vertex 8.0374 -12.6649 0
      vertex 6.38669 -13.5724 0
    endloop
  endfacet
  facet normal 0.48176 -0.876303 0
    outer loop
      vertex 8.0374 -12.6649 0
      vertex 6.38669 -13.5724 -4.5
      vertex 8.0374 -12.6649 -4.5
    endloop
  endfacet
  facet normal -0.125337 -0.992114 0
    outer loop
      vertex -2.81072 -14.7343 -4.5
      vertex -0.941857 -14.9704 0
      vertex -2.81072 -14.7343 0
    endloop
  endfacet
  facet normal -0.125337 -0.992114 -0
    outer loop
      vertex -0.941857 -14.9704 0
      vertex -2.81072 -14.7343 -4.5
      vertex -0.941857 -14.9704 -4.5
    endloop
  endfacet
  facet normal -0.684557 -0.728959 0
    outer loop
      vertex -10.9345 -10.2682 -4.5
      vertex -9.56136 -11.5577 0
      vertex -10.9345 -10.2682 0
    endloop
  endfacet
  facet normal -0.684557 -0.728959 -0
    outer loop
      vertex -9.56136 -11.5577 0
      vertex -10.9345 -10.2682 -4.5
      vertex -9.56136 -11.5577 -4.5
    endloop
  endfacet
  facet normal 0.587778 -0.809022 0
    outer loop
      vertex 8.0374 -12.6649 -4.5
      vertex 9.56136 -11.5577 0
      vertex 8.0374 -12.6649 0
    endloop
  endfacet
  facet normal 0.587778 -0.809022 0
    outer loop
      vertex 9.56136 -11.5577 0
      vertex 8.0374 -12.6649 -4.5
      vertex 9.56136 -11.5577 -4.5
    endloop
  endfacet
  facet normal 0.770492 -0.63745 0
    outer loop
      vertex 10.9345 -10.2682 0
      vertex 12.1353 -8.81678 -4.5
      vertex 12.1353 -8.81678 0
    endloop
  endfacet
  facet normal 0.770492 -0.63745 0
    outer loop
      vertex 12.1353 -8.81678 -4.5
      vertex 10.9345 -10.2682 0
      vertex 10.9345 -10.2682 -4.5
    endloop
  endfacet
  facet normal -0.48176 -0.876303 0
    outer loop
      vertex -8.0374 -12.6649 -4.5
      vertex -6.38669 -13.5724 0
      vertex -8.0374 -12.6649 0
    endloop
  endfacet
  facet normal -0.48176 -0.876303 -0
    outer loop
      vertex -6.38669 -13.5724 0
      vertex -8.0374 -12.6649 -4.5
      vertex -6.38669 -13.5724 -4.5
    endloop
  endfacet
  facet normal -0.587778 -0.809022 0
    outer loop
      vertex -9.56136 -11.5577 -4.5
      vertex -8.0374 -12.6649 0
      vertex -9.56136 -11.5577 0
    endloop
  endfacet
  facet normal -0.587778 -0.809022 -0
    outer loop
      vertex -8.0374 -12.6649 0
      vertex -9.56136 -11.5577 -4.5
      vertex -8.0374 -12.6649 -4.5
    endloop
  endfacet
endsolid OpenSCAD_Model
