solid OpenSCAD_Model
  facet normal -0.6836963841928089 -0.7280627007864849 -0.04983932147580148
    outer loop
      vertex -3.5901704900504523 -3.3713944966987905 -3
      vertex -3.1393131495122963 -3.7947777206707625 -3
      vertex -3.2349267479746002 -3.910354707087131 0
    endloop
  endfacet
  facet normal -0.5870547814661051 -0.8080115875361041 -0.04983932147580149
    outer loop
      vertex -2.638946965271559 -4.1583150330974235 -3
      vertex -2.7193209845184088 -4.284964221922726 0
      vertex -3.1393131495122963 -3.7947777206707625 -3
    endloop
  endfacet
  facet normal -0.7695556865203669 -0.6366318303218891 -0.04983932147580151
    outer loop
      vertex -3.5901704900504523 -3.3713944966987905 -3
      vertex -3.699515784163664 -3.4740765625880945 0
      vertex -3.887628233258695 -3.2466876731052046 0
    endloop
  endfacet
  facet normal -0.6836963841928088 -0.7280627007864852 -0.04983932147580153
    outer loop
      vertex -3.5901704900504523 -3.3713944966987905 -3
      vertex -3.2349267479746002 -3.910354707087131 0
      vertex -3.699515784163664 -3.4740765625880945 0
    endloop
  endfacet
  facet normal -0.5870547814661053 -0.8080115875361041 -0.04983932147580147
    outer loop
      vertex -3.1393131495122963 -3.7947777206707625 -3
      vertex -2.7193209845184088 -4.284964221922726 0
      vertex -3.2349267479746002 -3.910354707087131 0
    endloop
  endfacet
  facet normal -0.9037025775627162 -0.42525015384045983 -0.04983932147580143
    outer loop
      vertex -4.579149192999639 -1.8130134219720384 -3
      vertex -4.315810399216027 -2.3726368449509483 -3
      vertex -4.718615665882877 -1.8682321048747401 0
    endloop
  endfacet
  facet normal -0.8432786359612162 -0.5351608955876933 -0.04983932147580154
    outer loop
      vertex -3.984408697296616 -2.8948423675404302 -3
      vertex -4.4472564012226075 -2.4448998960662056 0
      vertex -4.315810399216027 -2.3726368449509483 -3
    endloop
  endfacet
  facet normal -0.7695556865203668 -0.6366318303218892 -0.04983932147580135
    outer loop
      vertex -3.984408697296616 -2.8948423675404302 -3
      vertex -3.5901704900504523 -3.3713944966987905 -3
      vertex -4.105761246452858 -2.983010155384301 0
    endloop
  endfacet
  facet normal 0 0 -1
    outer loop
      vertex -4.770272068558508 -1.22479769428691 -3
      vertex -4.886164903973803 -0.6172661753041975 -3
      vertex -4.770272068558508 1.22479769428691 -3
    endloop
  endfacet
  facet normal 0 0 -1
    outer loop
      vertex -4.579149192999639 -1.8130134219720384 -3
      vertex -4.770272068558508 -1.22479769428691 -3
      vertex -4.579149192999639 1.8130134219720384 -3
    endloop
  endfacet
  facet normal 0 0 -1
    outer loop
      vertex -4.579149192999639 -1.8130134219720384 -3
      vertex -4.315810399216027 2.3726368449509483 -3
      vertex -4.315810399216027 -2.3726368449509483 -3
    endloop
  endfacet
  facet normal 0 0 -1
    outer loop
      vertex -3.984408697296616 -2.8948423675404302 -3
      vertex -4.315810399216027 -2.3726368449509483 -3
      vertex -3.984408697296616 2.8948423675404302 -3
    endloop
  endfacet
  facet normal -0.9810665120712087 -0.18714844623256843 -0.049839321475801564
    outer loop
      vertex -4.770272068558508 -1.22479769428691 -3
      vertex -5.034982109170976 -0.6360661603388431 0
      vertex -4.886164903973803 -0.6172661753041975 -3
    endloop
  endfacet
  facet normal -0.9498745896703013 -0.30863296313502947 -0.04983932147580165
    outer loop
      vertex -4.579149192999639 -1.8130134219720384 -3
      vertex -4.915559542727803 -1.2621011773616384 0
      vertex -4.770272068558508 -1.22479769428691 -3
    endloop
  endfacet
  facet normal -0.9967864295160269 -0.06271248653595425 -0.04983932147580147
    outer loop
      vertex -4.886164903973803 -0.6172661753041975 -3
      vertex -5.075 0 0
      vertex -4.925 0 -3
    endloop
  endfacet
  facet normal 0 0 -1
    outer loop
      vertex -3.984408697296616 -2.8948423675404302 -3
      vertex -3.5901704900504523 3.3713944966987905 -3
      vertex -3.5901704900504523 -3.3713944966987905 -3
    endloop
  endfacet
  facet normal 0 0 -1
    outer loop
      vertex -3.5901704900504523 -3.3713944966987905 -3
      vertex -3.1393131495122963 3.7947777206707625 -3
      vertex -3.1393131495122963 -3.7947777206707625 -3
    endloop
  endfacet
  facet normal 0 0 -1
    outer loop
      vertex -2.638946965271559 -4.1583150330974235 -3
      vertex -3.1393131495122963 -3.7947777206707625 -3
      vertex -2.638946965271559 4.1583150330974235 -3
    endloop
  endfacet
  facet normal -0.9037025775627163 -0.4252501538404593 -0.04983932147580155
    outer loop
      vertex -4.315810399216027 -2.3726368449509483 -3
      vertex -4.4472564012226075 -2.4448998960662056 0
      vertex -4.718615665882877 -1.8682321048747401 0
    endloop
  endfacet
  facet normal -0.8432786359612159 -0.5351608955876942 -0.04983932147580136
    outer loop
      vertex -3.984408697296616 -2.8948423675404302 -3
      vertex -4.105761246452858 -2.983010155384301 0
      vertex -4.4472564012226075 -2.4448998960662056 0
    endloop
  endfacet
  facet normal -0.7695556865203674 -0.6366318303218881 -0.04983932147580162
    outer loop
      vertex -3.5901704900504523 -3.3713944966987905 -3
      vertex -3.887628233258695 -3.2466876731052046 0
      vertex -4.105761246452858 -2.983010155384301 0
    endloop
  endfacet
  facet normal -0.9810665120712088 -0.18714844623256804 -0.04983932147580164
    outer loop
      vertex -4.770272068558508 -1.22479769428691 -3
      vertex -4.915559542727803 -1.2621011773616384 0
      vertex -5.034982109170976 -0.6360661603388431 0
    endloop
  endfacet
  facet normal -0.949874589670301 -0.30863296313503036 -0.04983932147580144
    outer loop
      vertex -4.579149192999639 -1.8130134219720384 -3
      vertex -4.718615665882877 -1.8682321048747401 0
      vertex -4.915559542727803 -1.2621011773616384 0
    endloop
  endfacet
  facet normal -0.996786429516027 -0.06271248653595377 -0.049839321475801564
    outer loop
      vertex -4.886164903973803 -0.6172661753041975 -3
      vertex -5.034982109170976 -0.6360661603388431 0
      vertex -5.075 0 0
    endloop
  endfacet
  facet normal -0.48115497414615477 -0.8752176488675516 -0.04983932147580144
    outer loop
      vertex -2.638946965271559 -4.1583150330974235 -3
      vertex -2.0969630109579818 -4.456273233395146 -3
      vertex -2.1608299046927426 -4.5919972912650495 0
    endloop
  endfacet
  facet normal -0.3676670654558689 -0.9286210050466776 -0.04983932147580149
    outer loop
      vertex -2.0969630109579818 -4.456273233395146 -3
      vertex -1.5219086972966158 -4.683953342753631 -3
      vertex -1.568261246452858 -4.826611820197904 0
    endloop
  endfacet
  facet normal -0.24838082750968726 -0.967379453244917 -0.049839321475801585
    outer loop
      vertex -1.5219086972966158 -4.683953342753631 -3
      vertex -0.9228529743346947 -4.837764709838791 -3
      vertex -0.9509601715225535 -4.985107797448095 0
    endloop
  endfacet
  facet normal -0.12517747553816258 -0.9908817495810105 -0.04983932147580137
    outer loop
      vertex -0.9228529743346947 -4.837764709838791 -3
      vertex -0.3092433086818703 -4.915281637509238 -3
      vertex -0.3186618866112674 -5.064985646773478 0
    endloop
  endfacet
  facet normal -0.48115497414615466 -0.8752176488675517 -0.049839321475801474
    outer loop
      vertex -2.638946965271559 -4.1583150330974235 -3
      vertex -2.1608299046927426 -4.5919972912650495 0
      vertex -2.7193209845184088 -4.284964221922726 0
    endloop
  endfacet
  facet normal -0.367667065455869 -0.9286210050466774 -0.049839321475801446
    outer loop
      vertex -2.0969630109579818 -4.456273233395146 -3
      vertex -1.568261246452858 -4.826611820197904 0
      vertex -2.1608299046927426 -4.5919972912650495 0
    endloop
  endfacet
  facet normal -0.24838082750968782 -0.967379453244917 -0.04983932147580149
    outer loop
      vertex -1.5219086972966158 -4.683953342753631 -3
      vertex -0.9509601715225535 -4.985107797448095 0
      vertex -1.568261246452858 -4.826611820197904 0
    endloop
  endfacet
  facet normal -0.12517747553815964 -0.9908817495810108 -0.049839321475801585
    outer loop
      vertex -0.9228529743346947 -4.837764709838791 -3
      vertex -0.6469322130838419 -5.023515460467896 0
      vertex -0.9509601715225535 -4.985107797448095 0
    endloop
  endfacet
  facet normal -0.12517747553816314 -0.9908817495810105 -0.049839321475801245
    outer loop
      vertex -0.9228529743346947 -4.837764709838791 -3
      vertex -0.3186618866112674 -5.064985646773478 0
      vertex -0.6469322130838419 -5.023515460467896 0
    endloop
  endfacet
  facet normal 0 -0.998757248802146 -0.049839321475801356
    outer loop
      vertex -0.3092433086818703 -4.915281637509238 -3
      vertex 0.3186618866112674 -5.064985646773478 0
      vertex -0.3186618866112674 -5.064985646773478 0
    endloop
  endfacet
  facet normal 0 0 -1
    outer loop
      vertex -2.638946965271559 -4.1583150330974235 -3
      vertex -2.096963010957983 4.456273233395145 -3
      vertex -2.0969630109579818 -4.456273233395146 -3
    endloop
  endfacet
  facet normal 0 0 -1
    outer loop
      vertex -2.0969630109579818 -4.456273233395146 -3
      vertex -1.5219086972966158 4.683953342753631 -3
      vertex -1.5219086972966158 -4.683953342753631 -3
    endloop
  endfacet
  facet normal 0 0 -1
    outer loop
      vertex -1.5219086972966158 -4.683953342753631 -3
      vertex -0.9228529743346935 4.837764709838792 -3
      vertex -0.9228529743346947 -4.837764709838791 -3
    endloop
  endfacet
  facet normal 0 0 -1
    outer loop
      vertex -0.9228529743346947 -4.837764709838791 -3
      vertex -0.3092433086818679 4.915281637509238 -3
      vertex -0.3092433086818703 -4.915281637509238 -3
    endloop
  endfacet
  facet normal 0 0 1
    outer loop
      vertex -4.915559542727803 -1.2621011773616384 0
      vertex -5.034982109170976 0.6360661603388431 0
      vertex -5.034982109170976 -0.6360661603388431 0
    endloop
  endfacet
  facet normal 0 0 1
    outer loop
      vertex -4.718615665882877 -1.8682321048747401 0
      vertex -4.915559542727803 1.2621011773616384 0
      vertex -4.915559542727803 -1.2621011773616384 0
    endloop
  endfacet
  facet normal 0 0 1
    outer loop
      vertex -4.4472564012226075 -2.4448998960662056 0
      vertex -4.718615665882877 1.8682321048747401 0
      vertex -4.718615665882877 -1.8682321048747401 0
    endloop
  endfacet
  facet normal 0 0 1
    outer loop
      vertex -4.105761246452858 -2.983010155384301 0
      vertex -4.4472564012226075 2.4448998960662056 0
      vertex -4.4472564012226075 -2.4448998960662056 0
    endloop
  endfacet
  facet normal 0 0 1
    outer loop
      vertex -4.105761246452858 -2.983010155384301 0
      vertex -3.887628233258695 -3.2466876731052046 0
      vertex -2.91043283795747 4.146113332793321 0
    endloop
  endfacet
  facet normal 0 0 1
    outer loop
      vertex -0.3186618866112674 -5.064985646773478 0
      vertex -0.5780399963259697 -4.221479997038841 0
      vertex -0.6469322130838419 -5.023515460467896 0
    endloop
  endfacet
  facet normal 0 0 1
    outer loop
      vertex -0.3186618866112674 -5.064985646773478 0
      vertex 0.3186618866112674 -5.064985646773478 0
      vertex -0.5780399963259697 -4.221479997038841 0
    endloop
  endfacet
  facet normal 0 0 1
    outer loop
      vertex -0.5735485702753067 -1.344715103507042 0
      vertex -0.6187200024724007 -1.8859200030565262 0
      vertex -0.5124342888593674 -0.7208032682538033 0
    endloop
  endfacet
  facet normal 0 0 1
    outer loop
      vertex -0.6187200024724007 -1.8859200030565262 0
      vertex -0.4353771433234215 -0.014184489846229553 0
      vertex -0.5124342888593674 -0.7208032682538033 0
    endloop
  endfacet
  facet normal 0 0 1
    outer loop
      vertex -0.6187200024724007 -1.8859200030565262 0
      vertex -0.3423771411180496 0.7751412242650986 0
      vertex -0.4353771433234215 -0.014184489846229553 0
    endloop
  endfacet
  facet normal 0 0 1
    outer loop
      vertex -0.6187200024724007 -1.8859200030565262 0
      vertex 0.3298799991607666 0.22497306019067764 0
      vertex 0.25547999888658524 1.0142987743020058 0
    endloop
  endfacet
  facet normal 0 0 -1
    outer loop
      vertex -4.886164903973803 -0.6172661753041975 -3
      vertex -4.925 0 -3
      vertex -4.886164903973803 0.6172661753041975 -3
    endloop
  endfacet
  facet normal 0 0 -1
    outer loop
      vertex -4.886164903973803 -0.6172661753041975 -3
      vertex -4.886164903973803 0.6172661753041975 -3
      vertex -4.770272068558508 1.22479769428691 -3
    endloop
  endfacet
  facet normal 0 0 -1
    outer loop
      vertex -4.770272068558508 -1.22479769428691 -3
      vertex -4.770272068558508 1.22479769428691 -3
      vertex -4.579149192999639 1.8130134219720384 -3
    endloop
  endfacet
  facet normal 0 0 -1
    outer loop
      vertex -4.579149192999639 -1.8130134219720384 -3
      vertex -4.579149192999639 1.8130134219720384 -3
      vertex -4.315810399216027 2.3726368449509483 -3
    endloop
  endfacet
  facet normal 0 0 -1
    outer loop
      vertex -4.315810399216027 -2.3726368449509483 -3
      vertex -4.315810399216027 2.3726368449509483 -3
      vertex -3.984408697296616 2.8948423675404302 -3
    endloop
  endfacet
  facet normal 0 0 -1
    outer loop
      vertex -3.984408697296616 -2.8948423675404302 -3
      vertex -3.984408697296616 2.8948423675404302 -3
      vertex -3.5901704900504523 3.3713944966987905 -3
    endloop
  endfacet
  facet normal -0.9967864295160269 0.06271248653595425 -0.04983932147580157
    outer loop
      vertex -4.925 0 -3
      vertex -5.034982109170976 0.6360661603388431 0
      vertex -4.886164903973803 0.6172661753041975 -3
    endloop
  endfacet
  facet normal -0.9810665120712087 0.18714844623256843 -0.049839321475801564
    outer loop
      vertex -4.886164903973803 0.6172661753041975 -3
      vertex -5.034982109170976 0.6360661603388431 0
      vertex -4.770272068558508 1.22479769428691 -3
    endloop
  endfacet
  facet normal -0.9498745896703013 0.30863296313502947 -0.04983932147580164
    outer loop
      vertex -4.770272068558508 1.22479769428691 -3
      vertex -4.915559542727803 1.2621011773616384 0
      vertex -4.579149192999639 1.8130134219720384 -3
    endloop
  endfacet
  facet normal -0.9037025775627162 0.42525015384045983 -0.04983932147580143
    outer loop
      vertex -4.579149192999639 1.8130134219720384 -3
      vertex -4.718615665882877 1.8682321048747401 0
      vertex -4.315810399216027 2.3726368449509483 -3
    endloop
  endfacet
  facet normal -0.8432786359612162 0.5351608955876933 -0.04983932147580154
    outer loop
      vertex -4.315810399216027 2.3726368449509483 -3
      vertex -4.4472564012226075 2.4448998960662056 0
      vertex -3.984408697296616 2.8948423675404302 -3
    endloop
  endfacet
  facet normal -0.7695556865203668 0.6366318303218892 -0.04983932147580135
    outer loop
      vertex -3.984408697296616 2.8948423675404302 -3
      vertex -4.105761246452858 2.983010155384301 0
      vertex -3.5901704900504523 3.3713944966987905 -3
    endloop
  endfacet
  facet normal 0 0 -1
    outer loop
      vertex -3.5901704900504523 -3.3713944966987905 -3
      vertex -3.5901704900504523 3.3713944966987905 -3
      vertex -3.1393131495122963 3.7947777206707625 -3
    endloop
  endfacet
  facet normal 0 0 -1
    outer loop
      vertex -3.1393131495122963 -3.7947777206707625 -3
      vertex -3.1393131495122963 3.7947777206707625 -3
      vertex -2.638946965271559 4.1583150330974235 -3
    endloop
  endfacet
  facet normal -0.996786429516027 0.06271248653595377 -0.049839321475801474
    outer loop
      vertex -4.925 0 -3
      vertex -5.075 0 0
      vertex -5.034982109170976 0.6360661603388431 0
    endloop
  endfacet
  facet normal -0.9810665120712088 0.18714844623256804 -0.04983932147580164
    outer loop
      vertex -4.770272068558508 1.22479769428691 -3
      vertex -5.034982109170976 0.6360661603388431 0
      vertex -4.915559542727803 1.2621011773616384 0
    endloop
  endfacet
  facet normal -0.949874589670301 0.30863296313503036 -0.04983932147580144
    outer loop
      vertex -4.579149192999639 1.8130134219720384 -3
      vertex -4.915559542727803 1.2621011773616384 0
      vertex -4.718615665882877 1.8682321048747401 0
    endloop
  endfacet
  facet normal -0.9037025775627163 0.4252501538404593 -0.04983932147580155
    outer loop
      vertex -4.315810399216027 2.3726368449509483 -3
      vertex -4.718615665882877 1.8682321048747401 0
      vertex -4.4472564012226075 2.4448998960662056 0
    endloop
  endfacet
  facet normal -0.8432786359612159 0.5351608955876942 -0.04983932147580136
    outer loop
      vertex -3.984408697296616 2.8948423675404302 -3
      vertex -4.4472564012226075 2.4448998960662056 0
      vertex -4.105761246452858 2.983010155384301 0
    endloop
  endfacet
  facet normal -0.7695556865203673 0.6366318303218886 -0.0498393214758015
    outer loop
      vertex -3.5901704900504523 3.3713944966987905 -3
      vertex -4.105761246452858 2.983010155384301 0
      vertex -3.699515784163664 3.4740765625880945 0
    endloop
  endfacet
  facet normal -0.6836963841928089 0.7280627007864849 -0.04983932147580148
    outer loop
      vertex -3.5901704900504523 3.3713944966987905 -3
      vertex -3.2349267479746002 3.910354707087131 0
      vertex -3.1393131495122963 3.7947777206707625 -3
    endloop
  endfacet
  facet normal -0.5870547814661051 0.8080115875361041 -0.04983932147580148
    outer loop
      vertex -3.1393131495122963 3.7947777206707625 -3
      vertex -2.7193209845184088 4.284964221922726 0
      vertex -2.638946965271559 4.1583150330974235 -3
    endloop
  endfacet
  facet normal -0.6836963841928088 0.7280627007864852 -0.04983932147580153
    outer loop
      vertex -3.5901704900504523 3.3713944966987905 -3
      vertex -3.699515784163664 3.4740765625880945 0
      vertex -3.2349267479746002 3.910354707087131 0
    endloop
  endfacet
  facet normal -0.5870547814661056 0.8080115875361038 -0.04983932147580146
    outer loop
      vertex -3.1393131495122963 3.7947777206707625 -3
      vertex -3.2349267479746002 3.910354707087131 0
      vertex -2.91043283795747 4.146113332793321 0
    endloop
  endfacet
  facet normal -0.5870547814661046 0.8080115875361044 -0.0498393214758016
    outer loop
      vertex -3.1393131495122963 3.7947777206707625 -3
      vertex -2.91043283795747 4.146113332793321 0
      vertex -2.7193209845184088 4.284964221922726 0
    endloop
  endfacet
  facet normal 0 0 -1
    outer loop
      vertex -2.638946965271559 -4.1583150330974235 -3
      vertex -2.638946965271559 4.1583150330974235 -3
      vertex -2.096963010957983 4.456273233395145 -3
    endloop
  endfacet
  facet normal 0 0 -1
    outer loop
      vertex -2.0969630109579818 -4.456273233395146 -3
      vertex -2.096963010957983 4.456273233395145 -3
      vertex -1.5219086972966158 4.683953342753631 -3
    endloop
  endfacet
  facet normal 0 0 -1
    outer loop
      vertex -1.5219086972966158 -4.683953342753631 -3
      vertex -1.5219086972966158 4.683953342753631 -3
      vertex -0.9228529743346935 4.837764709838792 -3
    endloop
  endfacet
  facet normal 0 0 -1
    outer loop
      vertex -0.9228529743346947 -4.837764709838791 -3
      vertex -0.9228529743346935 4.837764709838792 -3
      vertex -0.3092433086818679 4.915281637509238 -3
    endloop
  endfacet
  facet normal 0 0 -1
    outer loop
      vertex -0.3092433086818703 -4.915281637509238 -3
      vertex -0.3092433086818679 4.915281637509238 -3
      vertex 0.3092433086818679 4.915281637509238 -3
    endloop
  endfacet
  facet normal -0.4811549741461546 0.8752176488675517 -0.04983932147580144
    outer loop
      vertex -2.638946965271559 4.1583150330974235 -3
      vertex -2.160829904692744 4.591997291265049 0
      vertex -2.096963010957983 4.456273233395145 -3
    endloop
  endfacet
  facet normal -0.36766706545586947 0.9286210050466774 -0.04983932147580148
    outer loop
      vertex -2.096963010957983 4.456273233395145 -3
      vertex -1.568261246452858 4.826611820197904 0
      vertex -1.5219086972966158 4.683953342753631 -3
    endloop
  endfacet
  facet normal -0.24838082750968812 0.9673794532449169 -0.0498393214758013
    outer loop
      vertex -1.5219086972966158 4.683953342753631 -3
      vertex -0.9509601715225522 4.985107797448095 0
      vertex -0.9228529743346935 4.837764709838792 -3
    endloop
  endfacet
  facet normal -0.12517747553816094 0.9908817495810107 -0.049839321475801356
    outer loop
      vertex -0.9228529743346935 4.837764709838792 -3
      vertex -0.3186618866112649 5.064985646773478 0
      vertex -0.3092433086818679 4.915281637509238 -3
    endloop
  endfacet
  facet normal 0 0.998757248802146 -0.04983932147580136
    outer loop
      vertex -0.3092433086818679 4.915281637509238 -3
      vertex -0.3186618866112649 5.064985646773478 0
      vertex 0.3092433086818679 4.915281637509238 -3
    endloop
  endfacet
  facet normal -0.48115497414615443 0.8752176488675517 -0.049839321475801474
    outer loop
      vertex -2.638946965271559 4.1583150330974235 -3
      vertex -2.7193209845184088 4.284964221922726 0
      vertex -2.160829904692744 4.591997291265049 0
    endloop
  endfacet
  facet normal -0.3676670654558696 0.9286210050466773 -0.049839321475801446
    outer loop
      vertex -2.096963010957983 4.456273233395145 -3
      vertex -2.160829904692744 4.591997291265049 0
      vertex -1.568261246452858 4.826611820197904 0
    endloop
  endfacet
  facet normal -0.24838082750968732 0.9673794532449171 -0.04983932147580148
    outer loop
      vertex -1.5219086972966158 4.683953342753631 -3
      vertex -1.568261246452858 4.826611820197904 0
      vertex -0.9509601715225522 4.985107797448095 0
    endloop
  endfacet
  facet normal -0.12517747553816122 0.9908817495810106 -0.0498393214758013
    outer loop
      vertex -0.9228529743346935 4.837764709838792 -3
      vertex -0.9509601715225522 4.985107797448095 0
      vertex -0.3186618866112649 5.064985646773478 0
    endloop
  endfacet
  facet normal 0 0 1
    outer loop
      vertex -5.034982109170976 -0.6360661603388431 0
      vertex -5.034982109170976 0.6360661603388431 0
      vertex -5.075 0 0
    endloop
  endfacet
  facet normal 0 0 1
    outer loop
      vertex -4.915559542727803 -1.2621011773616384 0
      vertex -4.915559542727803 1.2621011773616384 0
      vertex -5.034982109170976 0.6360661603388431 0
    endloop
  endfacet
  facet normal 0 0 1
    outer loop
      vertex -4.718615665882877 -1.8682321048747401 0
      vertex -4.718615665882877 1.8682321048747401 0
      vertex -4.915559542727803 1.2621011773616384 0
    endloop
  endfacet
  facet normal 0 0 1
    outer loop
      vertex -4.4472564012226075 -2.4448998960662056 0
      vertex -4.4472564012226075 2.4448998960662056 0
      vertex -4.718615665882877 1.8682321048747401 0
    endloop
  endfacet
  facet normal 0 0 1
    outer loop
      vertex -4.105761246452858 -2.983010155384301 0
      vertex -4.105761246452858 2.983010155384301 0
      vertex -4.4472564012226075 2.4448998960662056 0
    endloop
  endfacet
  facet normal 0 0 1
    outer loop
      vertex -4.105761246452858 -2.983010155384301 0
      vertex -2.91043283795747 4.146113332793321 0
      vertex -4.105761246452858 2.983010155384301 0
    endloop
  endfacet
  facet normal 0 0 1
    outer loop
      vertex -4.105761246452858 2.983010155384301 0
      vertex -2.91043283795747 4.146113332793321 0
      vertex -3.699515784163664 3.4740765625880945 0
    endloop
  endfacet
  facet normal 0 0 1
    outer loop
      vertex -3.699515784163664 3.4740765625880945 0
      vertex -2.91043283795747 4.146113332793321 0
      vertex -3.2349267479746002 3.910354707087131 0
    endloop
  endfacet
  facet normal 0 0 1
    outer loop
      vertex -0.3423771411180496 0.7751412242650986 0
      vertex -0.6187200024724007 -1.8859200030565262 0
      vertex -0.2334342822432518 1.6471738740801811 0
    endloop
  endfacet
  facet normal 0 0 1
    outer loop
      vertex -0.6187200024724007 -1.8859200030565262 0
      vertex 0.25547999888658524 1.0142987743020058 0
      vertex -0.2334342822432518 1.6471738740801811 0
    endloop
  endfacet
  facet normal 0 0 1
    outer loop
      vertex -0.2334342822432518 1.6471738740801811 0
      vertex 0.1066799983382225 2.7214922457933426 0
      vertex -0.10854857414960861 2.6019134670495987 0
    endloop
  endfacet
  facet normal 0 -0.998757248802146 -0.04983932147580136
    outer loop
      vertex -0.3092433086818703 -4.915281637509238 -3
      vertex 0.3092433086818703 -4.915281637509238 -3
      vertex 0.3186618866112674 -5.064985646773478 0
    endloop
  endfacet
  facet normal 0.12517747553816258 -0.9908817495810105 -0.049839321475801356
    outer loop
      vertex 0.3092433086818703 -4.915281637509238 -3
      vertex 0.9228529743346947 -4.837764709838791 -3
      vertex 0.3186618866112674 -5.064985646773478 0
    endloop
  endfacet
  facet normal 0.24838082750968726 -0.967379453244917 -0.0498393214758016
    outer loop
      vertex 0.9228529743346947 -4.837764709838791 -3
      vertex 1.5219086972966158 -4.683953342753631 -3
      vertex 0.9509601715225535 -4.985107797448095 0
    endloop
  endfacet
  facet normal 0.3676670654558689 -0.9286210050466776 -0.04983932147580148
    outer loop
      vertex 1.5219086972966158 -4.683953342753631 -3
      vertex 2.0969630109579818 -4.456273233395146 -3
      vertex 1.568261246452858 -4.826611820197904 0
    endloop
  endfacet
  facet normal 0.4811549741461544 -0.8752176488675518 -0.04983932147580143
    outer loop
      vertex 2.0969630109579818 -4.456273233395146 -3
      vertex 2.6389469652715563 -4.158315033097425 -3
      vertex 2.1608299046927426 -4.5919972912650495 0
    endloop
  endfacet
  facet normal 0.12517747553816178 -0.9908817495810105 -0.04983932147580152
    outer loop
      vertex 0.9228529743346947 -4.837764709838791 -3
      vertex 0.7080801459527128 -5.015790680115308 0
      vertex 0.3186618866112674 -5.064985646773478 0
    endloop
  endfacet
  facet normal 0.12517747553816094 -0.9908817495810106 -0.04983932147580159
    outer loop
      vertex 0.9228529743346947 -4.837764709838791 -3
      vertex 0.9509601715225535 -4.985107797448095 0
      vertex 0.7080801459527128 -5.015790680115308 0
    endloop
  endfacet
  facet normal 0.24838082750968782 -0.967379453244917 -0.04983932147580149
    outer loop
      vertex 1.5219086972966158 -4.683953342753631 -3
      vertex 1.568261246452858 -4.826611820197904 0
      vertex 0.9509601715225535 -4.985107797448095 0
    endloop
  endfacet
  facet normal 0.367667065455869 -0.9286210050466774 -0.049839321475801446
    outer loop
      vertex 2.0969630109579818 -4.456273233395146 -3
      vertex 2.1608299046927426 -4.5919972912650495 0
      vertex 1.568261246452858 -4.826611820197904 0
    endloop
  endfacet
  facet normal 0.48115497414615427 -0.8752176488675518 -0.04983932147580148
    outer loop
      vertex 2.6389469652715563 -4.158315033097425 -3
      vertex 2.719320984518406 -4.284964221922728 0
      vertex 2.1608299046927426 -4.5919972912650495 0
    endloop
  endfacet
  facet normal 0 0 -1
    outer loop
      vertex -0.3092433086818703 -4.915281637509238 -3
      vertex 0.3092433086818679 4.915281637509238 -3
      vertex 0.3092433086818703 -4.915281637509238 -3
    endloop
  endfacet
  facet normal 0 0 -1
    outer loop
      vertex 0.3092433086818703 -4.915281637509238 -3
      vertex 0.9228529743346935 4.837764709838792 -3
      vertex 0.9228529743346947 -4.837764709838791 -3
    endloop
  endfacet
  facet normal 0 0 -1
    outer loop
      vertex 0.9228529743346947 -4.837764709838791 -3
      vertex 1.5219086972966158 4.683953342753631 -3
      vertex 1.5219086972966158 -4.683953342753631 -3
    endloop
  endfacet
  facet normal 0 0 -1
    outer loop
      vertex 1.5219086972966158 -4.683953342753631 -3
      vertex 2.096963010957983 4.456273233395145 -3
      vertex 2.0969630109579818 -4.456273233395146 -3
    endloop
  endfacet
  facet normal 0 0 -1
    outer loop
      vertex 2.0969630109579818 -4.456273233395146 -3
      vertex 2.6389469652715585 4.158315033097424 -3
      vertex 2.6389469652715563 -4.158315033097425 -3
    endloop
  endfacet
  facet normal 0.5870547814661055 -0.8080115875361038 -0.04983932147580149
    outer loop
      vertex 2.6389469652715563 -4.158315033097425 -3
      vertex 3.139313149512298 -3.7947777206707607 -3
      vertex 2.719320984518406 -4.284964221922728 0
    endloop
  endfacet
  facet normal 0.6836963841928088 -0.728062700786485 -0.049839321475801474
    outer loop
      vertex 3.139313149512298 -3.7947777206707607 -3
      vertex 3.5901704900504523 -3.3713944966987905 -3
      vertex 3.2349267479746016 -3.9103547070871296 0
    endloop
  endfacet
  facet normal 0.5870547814661055 -0.8080115875361038 -0.04983932147580148
    outer loop
      vertex 3.139313149512298 -3.7947777206707607 -3
      vertex 3.2349267479746016 -3.9103547070871296 0
      vertex 2.719320984518406 -4.284964221922728 0
    endloop
  endfacet
  facet normal 0.6836963841928086 -0.7280627007864853 -0.04983932147580153
    outer loop
      vertex 3.5901704900504523 -3.3713944966987905 -3
      vertex 3.699515784163664 -3.4740765625880945 0
      vertex 3.2349267479746016 -3.9103547070871296 0
    endloop
  endfacet
  facet normal 0.7695556865203665 -0.6366318303218895 -0.049839321475801515
    outer loop
      vertex 3.5901704900504523 -3.3713944966987905 -3
      vertex 3.8398723640711756 -3.30441460246624 0
      vertex 3.699515784163664 -3.4740765625880945 0
    endloop
  endfacet
  facet normal 0 0 -1
    outer loop
      vertex 2.6389469652715563 -4.158315033097425 -3
      vertex 3.139313149512297 3.7947777206707616 -3
      vertex 3.139313149512298 -3.7947777206707607 -3
    endloop
  endfacet
  facet normal 0 0 -1
    outer loop
      vertex 3.139313149512298 -3.7947777206707607 -3
      vertex 3.590170490050452 3.371394496698792 -3
      vertex 3.5901704900504523 -3.3713944966987905 -3
    endloop
  endfacet
  facet normal 0.7695556865203668 -0.6366318303218892 -0.04983932147580135
    outer loop
      vertex 3.5901704900504523 -3.3713944966987905 -3
      vertex 3.984408697296616 -2.8948423675404302 -3
      vertex 4.105761246452858 -2.983010155384301 0
    endloop
  endfacet
  facet normal 0.8432786359612162 -0.5351608955876933 -0.04983932147580154
    outer loop
      vertex 3.984408697296616 -2.8948423675404302 -3
      vertex 4.315810399216027 -2.3726368449509483 -3
      vertex 4.4472564012226075 -2.4448998960662056 0
    endloop
  endfacet
  facet normal 0.9037025775627165 -0.425250153840459 -0.04983932147580146
    outer loop
      vertex 4.315810399216027 -2.3726368449509483 -3
      vertex 4.579149192999637 -1.8130134219720409 -3
      vertex 4.718615665882875 -1.8682321048747428 0
    endloop
  endfacet
  facet normal 0 0 -1
    outer loop
      vertex 3.5901704900504523 -3.3713944966987905 -3
      vertex 3.984408697296616 2.8948423675404302 -3
      vertex 3.984408697296616 -2.8948423675404302 -3
    endloop
  endfacet
  facet normal 0 0 -1
    outer loop
      vertex 3.984408697296616 -2.8948423675404302 -3
      vertex 4.315810399216028 2.372636844950948 -3
      vertex 4.315810399216027 -2.3726368449509483 -3
    endloop
  endfacet
  facet normal 0 0 -1
    outer loop
      vertex 4.315810399216027 -2.3726368449509483 -3
      vertex 4.579149192999638 1.8130134219720389 -3
      vertex 4.579149192999637 -1.8130134219720409 -3
    endloop
  endfacet
  facet normal 0 0 -1
    outer loop
      vertex 4.579149192999637 -1.8130134219720409 -3
      vertex 4.770272068558508 1.2247976942869099 -3
      vertex 4.7702720685585085 -1.224797694286908 -3
    endloop
  endfacet
  facet normal 0 0 -1
    outer loop
      vertex 4.7702720685585085 -1.224797694286908 -3
      vertex 4.886164903973803 0.6172661753041985 -3
      vertex 4.886164903973803 -0.6172661753041975 -3
    endloop
  endfacet
  facet normal 0.9498745896703007 -0.30863296313503125 -0.049839321475801356
    outer loop
      vertex 4.579149192999637 -1.8130134219720409 -3
      vertex 4.7702720685585085 -1.224797694286908 -3
      vertex 4.915559542727803 -1.2621011773616364 0
    endloop
  endfacet
  facet normal 0.9810665120712089 -0.18714844623256763 -0.04983932147580157
    outer loop
      vertex 4.7702720685585085 -1.224797694286908 -3
      vertex 4.886164903973803 -0.6172661753041975 -3
      vertex 5.034982109170976 -0.6360661603388431 0
    endloop
  endfacet
  facet normal 0.9967864295160269 -0.06271248653595425 -0.04983932147580147
    outer loop
      vertex 4.886164903973803 -0.6172661753041975 -3
      vertex 4.925 0 -3
      vertex 5.075 0 0
    endloop
  endfacet
  facet normal 0.7695556865203678 -0.6366318303218882 -0.04983932147580165
    outer loop
      vertex 3.5901704900504523 -3.3713944966987905 -3
      vertex 4.105761246452858 -2.983010155384301 0
      vertex 3.8398723640711756 -3.30441460246624 0
    endloop
  endfacet
  facet normal 0.8432786359612159 -0.5351608955876942 -0.04983932147580136
    outer loop
      vertex 3.984408697296616 -2.8948423675404302 -3
      vertex 4.4472564012226075 -2.4448998960662056 0
      vertex 4.105761246452858 -2.983010155384301 0
    endloop
  endfacet
  facet normal 0.9037025775627168 -0.42525015384045867 -0.04983932147580156
    outer loop
      vertex 4.315810399216027 -2.3726368449509483 -3
      vertex 4.718615665882875 -1.8682321048747428 0
      vertex 4.4472564012226075 -2.4448998960662056 0
    endloop
  endfacet
  facet normal 0.9498745896703009 -0.30863296313503075 -0.04983932147580146
    outer loop
      vertex 4.579149192999637 -1.8130134219720409 -3
      vertex 4.915559542727803 -1.2621011773616364 0
      vertex 4.718615665882875 -1.8682321048747428 0
    endloop
  endfacet
  facet normal 0.9810665120712088 -0.18714844623256865 -0.049839321475801356
    outer loop
      vertex 4.7702720685585085 -1.224797694286908 -3
      vertex 5.034982109170976 -0.6360661603388431 0
      vertex 4.915559542727803 -1.2621011773616364 0
    endloop
  endfacet
  facet normal 0.996786429516027 -0.06271248653595377 -0.049839321475801564
    outer loop
      vertex 4.886164903973803 -0.6172661753041975 -3
      vertex 5.075 0 0
      vertex 5.034982109170976 -0.6360661603388431 0
    endloop
  endfacet
  facet normal 0 0 1
    outer loop
      vertex 0.3186618866112674 -5.064985646773478 0
      vertex 0.6507600024342537 -4.221479997038841 0
      vertex -0.5780399963259697 -4.221479997038841 0
    endloop
  endfacet
  facet normal 0 0 1
    outer loop
      vertex 0.3186618866112674 -5.064985646773478 0
      vertex 0.7080801459527128 -5.015790680115308 0
      vertex 0.6507600024342537 -4.221479997038841 0
    endloop
  endfacet
  facet normal 0 0 1
    outer loop
      vertex -0.6187200024724007 -1.8859200030565262 0
      vertex 0.5530799999833107 -1.8859200030565262 0
      vertex 0.47867999970912933 -1.225136324763298 0
    endloop
  endfacet
  facet normal 0 0 1
    outer loop
      vertex -0.6187200024724007 -1.8859200030565262 0
      vertex 0.47867999970912933 -1.225136324763298 0
      vertex 0.40427999943494797 -0.5215053036808968 0
    endloop
  endfacet
  facet normal 0 0 1
    outer loop
      vertex -0.6187200024724007 -1.8859200030565262 0
      vertex 0.40427999943494797 -0.5215053036808968 0
      vertex 0.3298799991607666 0.22497306019067764 0
    endloop
  endfacet
  facet normal 0 0 1
    outer loop
      vertex 4.105761246452858 -2.983010155384301 0
      vertex 3.6995157841636637 3.4740765625880954 0
      vertex 3.8398723640711756 -3.30441460246624 0
    endloop
  endfacet
  facet normal 0 0 1
    outer loop
      vertex 4.105761246452858 -2.983010155384301 0
      vertex 4.4472564012226075 -2.4448998960662056 0
      vertex 4.105761246452858 2.983010155384301 0
    endloop
  endfacet
  facet normal 0 0 1
    outer loop
      vertex 4.4472564012226075 -2.4448998960662056 0
      vertex 4.718615665882875 -1.8682321048747428 0
      vertex 4.4472564012226075 2.444899896066205 0
    endloop
  endfacet
  facet normal 0 0 1
    outer loop
      vertex 4.718615665882875 -1.8682321048747428 0
      vertex 4.915559542727803 -1.2621011773616364 0
      vertex 4.718615665882876 1.8682321048747408 0
    endloop
  endfacet
  facet normal 0 0 1
    outer loop
      vertex 4.915559542727803 -1.2621011773616364 0
      vertex 5.034982109170976 -0.6360661603388431 0
      vertex 4.915559542727803 1.2621011773616382 0
    endloop
  endfacet
  facet normal 0 0 -1
    outer loop
      vertex 0.3092433086818703 -4.915281637509238 -3
      vertex 0.3092433086818679 4.915281637509238 -3
      vertex 0.9228529743346935 4.837764709838792 -3
    endloop
  endfacet
  facet normal 0 0 -1
    outer loop
      vertex 0.9228529743346947 -4.837764709838791 -3
      vertex 0.9228529743346935 4.837764709838792 -3
      vertex 1.5219086972966158 4.683953342753631 -3
    endloop
  endfacet
  facet normal 0 0 -1
    outer loop
      vertex 1.5219086972966158 -4.683953342753631 -3
      vertex 1.5219086972966158 4.683953342753631 -3
      vertex 2.096963010957983 4.456273233395145 -3
    endloop
  endfacet
  facet normal 0 0 -1
    outer loop
      vertex 2.0969630109579818 -4.456273233395146 -3
      vertex 2.096963010957983 4.456273233395145 -3
      vertex 2.6389469652715585 4.158315033097424 -3
    endloop
  endfacet
  facet normal 0.24838082750968812 0.9673794532449169 -0.049839321475801286
    outer loop
      vertex 0.9228529743346935 4.837764709838792 -3
      vertex 0.9509601715225522 4.985107797448095 0
      vertex 1.5219086972966158 4.683953342753631 -3
    endloop
  endfacet
  facet normal 0.12517747553816094 0.9908817495810107 -0.04983932147580136
    outer loop
      vertex 0.3092433086818679 4.915281637509238 -3
      vertex 0.3186618866112649 5.064985646773478 0
      vertex 0.9228529743346935 4.837764709838792 -3
    endloop
  endfacet
  facet normal 0.36766706545586947 0.9286210050466774 -0.04983932147580148
    outer loop
      vertex 1.5219086972966158 4.683953342753631 -3
      vertex 1.568261246452858 4.826611820197904 0
      vertex 2.096963010957983 4.456273233395145 -3
    endloop
  endfacet
  facet normal 0.4811549741461538 0.8752176488675522 -0.04983932147580144
    outer loop
      vertex 2.096963010957983 4.456273233395145 -3
      vertex 2.160829904692744 4.591997291265049 0
      vertex 2.6389469652715585 4.158315033097424 -3
    endloop
  endfacet
  facet normal 0 0.9987572488021459 -0.049839321475801356
    outer loop
      vertex 0.3092433086818679 4.915281637509238 -3
      vertex -0.3186618866112649 5.064985646773478 0
      vertex 0.3186618866112649 5.064985646773478 0
    endloop
  endfacet
  facet normal 0.12517747553816122 0.9908817495810106 -0.0498393214758013
    outer loop
      vertex 0.9228529743346935 4.837764709838792 -3
      vertex 0.3186618866112649 5.064985646773478 0
      vertex 0.9509601715225522 4.985107797448095 0
    endloop
  endfacet
  facet normal 0.24838082750968732 0.9673794532449171 -0.04983932147580148
    outer loop
      vertex 1.5219086972966158 4.683953342753631 -3
      vertex 0.9509601715225522 4.985107797448095 0
      vertex 1.568261246452858 4.826611820197904 0
    endloop
  endfacet
  facet normal 0.3676670654558696 0.9286210050466773 -0.049839321475801446
    outer loop
      vertex 2.096963010957983 4.456273233395145 -3
      vertex 1.568261246452858 4.826611820197904 0
      vertex 2.160829904692744 4.591997291265049 0
    endloop
  endfacet
  facet normal 0.48115497414615355 0.8752176488675524 -0.04983932147580152
    outer loop
      vertex 2.6389469652715585 4.158315033097424 -3
      vertex 2.160829904692744 4.591997291265049 0
      vertex 2.7093002566997413 4.290473163659397 0
    endloop
  endfacet
  facet normal 0 0 -1
    outer loop
      vertex 2.6389469652715563 -4.158315033097425 -3
      vertex 2.6389469652715585 4.158315033097424 -3
      vertex 3.139313149512297 3.7947777206707616 -3
    endloop
  endfacet
  facet normal 0 0 -1
    outer loop
      vertex 3.139313149512298 -3.7947777206707607 -3
      vertex 3.139313149512297 3.7947777206707616 -3
      vertex 3.590170490050452 3.371394496698792 -3
    endloop
  endfacet
  facet normal 0 0 -1
    outer loop
      vertex 3.5901704900504523 -3.3713944966987905 -3
      vertex 3.590170490050452 3.371394496698792 -3
      vertex 3.984408697296616 2.8948423675404302 -3
    endloop
  endfacet
  facet normal 0 0 -1
    outer loop
      vertex 3.984408697296616 -2.8948423675404302 -3
      vertex 3.984408697296616 2.8948423675404302 -3
      vertex 4.315810399216028 2.372636844950948 -3
    endloop
  endfacet
  facet normal 0 0 -1
    outer loop
      vertex 4.315810399216027 -2.3726368449509483 -3
      vertex 4.315810399216028 2.372636844950948 -3
      vertex 4.579149192999638 1.8130134219720389 -3
    endloop
  endfacet
  facet normal 0 0 -1
    outer loop
      vertex 4.579149192999637 -1.8130134219720409 -3
      vertex 4.579149192999638 1.8130134219720389 -3
      vertex 4.770272068558508 1.2247976942869099 -3
    endloop
  endfacet
  facet normal 0 0 -1
    outer loop
      vertex 4.886164903973803 -0.6172661753041975 -3
      vertex 4.886164903973803 0.6172661753041985 -3
      vertex 4.925 0 -3
    endloop
  endfacet
  facet normal 0 0 -1
    outer loop
      vertex 4.7702720685585085 -1.224797694286908 -3
      vertex 4.770272068558508 1.2247976942869099 -3
      vertex 4.886164903973803 0.6172661753041985 -3
    endloop
  endfacet
  facet normal 0.996786429516027 0.06271248653595415 -0.049839321475801474
    outer loop
      vertex 4.925 0 -3
      vertex 4.886164903973803 0.6172661753041985 -3
      vertex 5.075 0 0
    endloop
  endfacet
  facet normal 0.949874589670301 0.3086329631350304 -0.04983932147580164
    outer loop
      vertex 4.770272068558508 1.2247976942869099 -3
      vertex 4.579149192999638 1.8130134219720389 -3
      vertex 4.915559542727803 1.2621011773616382 0
    endloop
  endfacet
  facet normal 0.9810665120712087 0.1871484462325688 -0.049839321475801564
    outer loop
      vertex 4.886164903973803 0.6172661753041985 -3
      vertex 4.770272068558508 1.2247976942869099 -3
      vertex 5.034982109170976 0.6360661603388441 0
    endloop
  endfacet
  facet normal 0.7695556865203673 0.6366318303218885 -0.04983932147580134
    outer loop
      vertex 3.590170490050452 3.371394496698792 -3
      vertex 4.105761246452858 2.983010155384301 0
      vertex 3.984408697296616 2.8948423675404302 -3
    endloop
  endfacet
  facet normal 0.8432786359612159 0.5351608955876941 -0.04983932147580128
    outer loop
      vertex 4.315810399216028 2.372636844950948 -3
      vertex 3.984408697296616 2.8948423675404302 -3
      vertex 4.4472564012226075 2.444899896066205 0
    endloop
  endfacet
  facet normal 0.903702577562717 0.42525015384045806 -0.04983932147580147
    outer loop
      vertex 4.315810399216028 2.372636844950948 -3
      vertex 4.718615665882876 1.8682321048747408 0
      vertex 4.579149192999638 1.8130134219720389 -3
    endloop
  endfacet
  facet normal 0.7695556865203675 0.6366318303218884 -0.04983932147580142
    outer loop
      vertex 3.590170490050452 3.371394496698792 -3
      vertex 3.6995157841636637 3.4740765625880954 0
      vertex 4.105761246452858 2.983010155384301 0
    endloop
  endfacet
  facet normal 0.996786429516027 0.06271248653595367 -0.04983932147580157
    outer loop
      vertex 4.886164903973803 0.6172661753041985 -3
      vertex 5.034982109170976 0.6360661603388441 0
      vertex 5.075 0 0
    endloop
  endfacet
  facet normal 0.9810665120712087 0.1871484462325684 -0.04983932147580165
    outer loop
      vertex 4.770272068558508 1.2247976942869099 -3
      vertex 4.915559542727803 1.2621011773616382 0
      vertex 5.034982109170976 0.6360661603388441 0
    endloop
  endfacet
  facet normal 0.8432786359612161 0.5351608955876939 -0.04983932147580136
    outer loop
      vertex 3.984408697296616 2.8948423675404302 -3
      vertex 4.105761246452858 2.983010155384301 0
      vertex 4.4472564012226075 2.444899896066205 0
    endloop
  endfacet
  facet normal 0.9498745896703008 0.30863296313503125 -0.04983932147580146
    outer loop
      vertex 4.579149192999638 1.8130134219720389 -3
      vertex 4.718615665882876 1.8682321048747408 0
      vertex 4.915559542727803 1.2621011773616382 0
    endloop
  endfacet
  facet normal 0.9037025775627167 0.4252501538404589 -0.049839321475801286
    outer loop
      vertex 4.315810399216028 2.372636844950948 -3
      vertex 4.4472564012226075 2.444899896066205 0
      vertex 4.718615665882876 1.8682321048747408 0
    endloop
  endfacet
  facet normal 0.5870547814661063 0.8080115875361032 -0.04983932147580149
    outer loop
      vertex 3.139313149512297 3.7947777206707616 -3
      vertex 2.6389469652715585 4.158315033097424 -3
      vertex 2.7193209845184083 4.284964221922727 0
    endloop
  endfacet
  facet normal 0.6836963841928076 0.728062700786486 -0.049839321475801474
    outer loop
      vertex 3.139313149512297 3.7947777206707616 -3
      vertex 3.2349267479746007 3.91035470708713 0
      vertex 3.590170490050452 3.371394496698792 -3
    endloop
  endfacet
  facet normal 0.5870547814661065 0.8080115875361032 -0.04983932147580147
    outer loop
      vertex 3.139313149512297 3.7947777206707616 -3
      vertex 2.7193209845184083 4.284964221922727 0
      vertex 3.2349267479746007 3.91035470708713 0
    endloop
  endfacet
  facet normal 0.48115497414616265 0.8752176488675473 -0.04983932147580154
    outer loop
      vertex 2.6389469652715585 4.158315033097424 -3
      vertex 2.7093002566997413 4.290473163659397 0
      vertex 2.7193209845184083 4.284964221922727 0
    endloop
  endfacet
  facet normal 0.6836963841928079 0.7280627007864859 -0.04983932147580142
    outer loop
      vertex 3.590170490050452 3.371394496698792 -3
      vertex 3.2349267479746007 3.91035470708713 0
      vertex 3.6995157841636637 3.4740765625880954 0
    endloop
  endfacet
  facet normal 0 0 1
    outer loop
      vertex -0.2334342822432518 1.6471738740801811 0
      vertex 0.25547999888658524 1.0142987743020058 0
      vertex 0.18107999861240387 1.8464718386530876 0
    endloop
  endfacet
  facet normal 0 0 1
    outer loop
      vertex -0.2334342822432518 1.6471738740801811 0
      vertex 0.18107999861240387 1.8464718386530876 0
      vertex 0.1066799983382225 2.7214922457933426 0
    endloop
  endfacet
  facet normal 0 0 1
    outer loop
      vertex -0.10854857414960861 2.6019134670495987 0
      vertex 0.1066799983382225 2.7214922457933426 0
      vertex 0.03227999806404114 3.6393600031733513 0
    endloop
  endfacet
  facet normal 0 0 1
    outer loop
      vertex 2.7193209845184083 4.284964221922727 0
      vertex 3.8398723640711756 -3.30441460246624 0
      vertex 3.2349267479746007 3.91035470708713 0
    endloop
  endfacet
  facet normal 0 0 1
    outer loop
      vertex 3.6995157841636637 3.4740765625880954 0
      vertex 3.2349267479746007 3.91035470708713 0
      vertex 3.8398723640711756 -3.30441460246624 0
    endloop
  endfacet
  facet normal 0 0 1
    outer loop
      vertex 2.7193209845184083 4.284964221922727 0
      vertex 2.7093002566997413 4.290473163659397 0
      vertex 3.8398723640711756 -3.30441460246624 0
    endloop
  endfacet
  facet normal 0 0 1
    outer loop
      vertex 4.105761246452858 -2.983010155384301 0
      vertex 4.105761246452858 2.983010155384301 0
      vertex 3.6995157841636637 3.4740765625880954 0
    endloop
  endfacet
  facet normal 0 0 1
    outer loop
      vertex 4.4472564012226075 -2.4448998960662056 0
      vertex 4.4472564012226075 2.444899896066205 0
      vertex 4.105761246452858 2.983010155384301 0
    endloop
  endfacet
  facet normal 0 0 1
    outer loop
      vertex 4.718615665882875 -1.8682321048747428 0
      vertex 4.718615665882876 1.8682321048747408 0
      vertex 4.4472564012226075 2.444899896066205 0
    endloop
  endfacet
  facet normal 0 0 1
    outer loop
      vertex 5.034982109170976 -0.6360661603388431 0
      vertex 5.075 0 0
      vertex 5.034982109170976 0.6360661603388441 0
    endloop
  endfacet
  facet normal 0 0 1
    outer loop
      vertex 4.915559542727803 -1.2621011773616364 0
      vertex 4.915559542727803 1.2621011773616382 0
      vertex 4.718615665882876 1.8682321048747408 0
    endloop
  endfacet
  facet normal 0 0 1
    outer loop
      vertex 5.034982109170976 -0.6360661603388431 0
      vertex 5.034982109170976 0.6360661603388441 0
      vertex 4.915559542727803 1.2621011773616382 0
    endloop
  endfacet
  facet normal 0 0 -1
    outer loop
      vertex -4.3294799998402596 -6.589440003037453 0
      vertex -3.887628233258695 -3.2466876731052046 0
      vertex -3.699515784163664 -3.4740765625880945 0
    endloop
  endfacet
  facet normal 0 0 -1
    outer loop
      vertex -4.3294799998402596 -6.589440003037453 0
      vertex -2.7193209845184088 -4.284964221922726 0
      vertex -2.1608299046927426 -4.5919972912650495 0
    endloop
  endfacet
  facet normal 0 0 -1
    outer loop
      vertex -4.3294799998402596 -6.589440003037453 0
      vertex -2.1608299046927426 -4.5919972912650495 0
      vertex -1.568261246452858 -4.826611820197904 0
    endloop
  endfacet
  facet normal 0 -1 0
    outer loop
      vertex -4.3294799998402596 -6.589440003037453 0
      vertex -0.7814399972558022 -6.589440003037453 0
      vertex -4.3294799998402596 -6.589440003037453 2
    endloop
  endfacet
  facet normal 0 0 -1
    outer loop
      vertex -4.3294799998402596 -6.589440003037453 0
      vertex -3.699515784163664 -3.4740765625880945 0
      vertex -3.2349267479746002 -3.910354707087131 0
    endloop
  endfacet
  facet normal 0 0 -1
    outer loop
      vertex -4.3294799998402596 -6.589440003037453 0
      vertex -3.2349267479746002 -3.910354707087131 0
      vertex -2.7193209845184088 -4.284964221922726 0
    endloop
  endfacet
  facet normal -0.9913767923218068 0.13104219032710498 1.3170576007789489e-16
    outer loop
      vertex -4.3294799998402596 -6.589440003037453 0
      vertex -2.5880400016903877 6.585119999945164 2
      vertex -3.887628233258695 -3.2466876731052046 0
    endloop
  endfacet
  facet normal -0.9913767923218068 0.131042190327105 0
    outer loop
      vertex -4.3294799998402596 -6.589440003037453 0
      vertex -4.3294799998402596 -6.589440003037453 2
      vertex -2.5880400016903877 6.585119999945164 2
    endloop
  endfacet
  facet normal 0 0 -1
    outer loop
      vertex -4.3294799998402596 -6.589440003037453 0
      vertex -1.568261246452858 -4.826611820197904 0
      vertex -0.7814399972558022 -6.589440003037453 0
    endloop
  endfacet
  facet normal 0 0 -1
    outer loop
      vertex -0.7814399972558022 -6.589440003037453 0
      vertex -1.568261246452858 -4.826611820197904 0
      vertex -0.9509601715225535 -4.985107797448095 0
    endloop
  endfacet
  facet normal 0 0 -1
    outer loop
      vertex -0.7814399972558022 -6.589440003037453 0
      vertex -0.9509601715225535 -4.985107797448095 0
      vertex -0.6469322130838419 -5.023515460467896 0
    endloop
  endfacet
  facet normal 0.9963311663589486 -0.08558158062233334 0
    outer loop
      vertex -0.7814399972558022 -6.589440003037453 0
      vertex -0.6469322130838419 -5.023515460467896 0
      vertex -0.7814399972558022 -6.589440003037453 2
    endloop
  endfacet
  facet normal 0.9963311663589486 -0.08558158062233347 -1.0343836259254022e-16
    outer loop
      vertex -0.7814399972558022 -6.589440003037453 2
      vertex -0.6469322130838419 -5.023515460467896 0
      vertex -0.5780399963259697 -4.221479997038841 0
    endloop
  endfacet
  facet normal 0 -1 0
    outer loop
      vertex -0.5780399963259697 -4.221479997038841 2
      vertex -0.5780399963259697 -4.221479997038841 0
      vertex 0.6507600024342537 -4.221479997038841 0
    endloop
  endfacet
  facet normal 0 -1 0
    outer loop
      vertex -0.7814399972558022 -6.589440003037453 0
      vertex -0.7814399972558022 -6.589440003037453 2
      vertex -4.3294799998402596 -6.589440003037453 2
    endloop
  endfacet
  facet normal 0 0 1
    outer loop
      vertex -4.3294799998402596 -6.589440003037453 2
      vertex -0.7814399972558022 -6.589440003037453 2
      vertex -0.5780399963259697 -4.221479997038841 2
    endloop
  endfacet
  facet normal 0 0 1
    outer loop
      vertex -4.3294799998402596 -6.589440003037453 2
      vertex -0.5780399963259697 -4.221479997038841 2
      vertex -0.6187200024724007 -1.8859200030565262 2
    endloop
  endfacet
  facet normal 0.9963311663589487 -0.08558158062233338 0
    outer loop
      vertex -0.7814399972558022 -6.589440003037453 2
      vertex -0.5780399963259697 -4.221479997038841 0
      vertex -0.5780399963259697 -4.221479997038841 2
    endloop
  endfacet
  facet normal 0 1 0
    outer loop
      vertex -0.6187200024724007 -1.8859200030565262 2
      vertex 0.5530799999833107 -1.8859200030565262 0
      vertex -0.6187200024724007 -1.8859200030565262 0
    endloop
  endfacet
  facet normal 0.9965349267589335 -0.08317535542194643 0
    outer loop
      vertex -0.5735485702753067 -1.344715103507042 2
      vertex -0.6187200024724007 -1.8859200030565262 0
      vertex -0.5735485702753067 -1.344715103507042 0
    endloop
  endfacet
  facet normal 0.9952368156804303 -0.09748682328539213 0
    outer loop
      vertex -0.5124342888593674 -0.7208032682538033 2
      vertex -0.5735485702753067 -1.344715103507042 0
      vertex -0.5124342888593674 -0.7208032682538033 0
    endloop
  endfacet
  facet normal 0.9941065043707761 -0.10840783167150016 0
    outer loop
      vertex -0.4353771433234215 -0.014184489846229553 2
      vertex -0.5124342888593674 -0.7208032682538033 0
      vertex -0.4353771433234215 -0.014184489846229553 0
    endloop
  endfacet
  facet normal 0 0 1
    outer loop
      vertex -4.3294799998402596 -6.589440003037453 2
      vertex -0.6187200024724007 -1.8859200030565262 2
      vertex -0.5735485702753067 -1.344715103507042 2
    endloop
  endfacet
  facet normal 0 0 1
    outer loop
      vertex -4.3294799998402596 -6.589440003037453 2
      vertex -0.5735485702753067 -1.344715103507042 2
      vertex -0.5124342888593674 -0.7208032682538033 2
    endloop
  endfacet
  facet normal 0 0 1
    outer loop
      vertex -4.3294799998402596 -6.589440003037453 2
      vertex -0.5124342888593674 -0.7208032682538033 2
      vertex -2.5880400016903877 6.585119999945164 2
    endloop
  endfacet
  facet normal 0.9965349267589335 -0.08317535542194643 0
    outer loop
      vertex -0.6187200024724007 -1.8859200030565262 2
      vertex -0.6187200024724007 -1.8859200030565262 0
      vertex -0.5735485702753067 -1.344715103507042 2
    endloop
  endfacet
  facet normal 0 0 1
    outer loop
      vertex -0.5780399963259697 -4.221479997038841 2
      vertex 0.5530799999833107 -1.8859200030565262 2
      vertex -0.6187200024724007 -1.8859200030565262 2
    endloop
  endfacet
  facet normal 0.9952368156804303 -0.09748682328539213 0
    outer loop
      vertex -0.5735485702753067 -1.344715103507042 2
      vertex -0.5735485702753067 -1.344715103507042 0
      vertex -0.5124342888593674 -0.7208032682538033 2
    endloop
  endfacet
  facet normal 0.9941065043707761 -0.10840783167150016 0
    outer loop
      vertex -0.5124342888593674 -0.7208032682538033 2
      vertex -0.5124342888593674 -0.7208032682538033 0
      vertex -0.4353771433234215 -0.014184489846229553 2
    endloop
  endfacet
  facet normal -0.9913767923218068 0.131042190327105 -1.1910498768047695e-16
    outer loop
      vertex -2.5880400016903877 6.585119999945164 2
      vertex -2.91043283795747 4.146113332793321 0
      vertex -3.887628233258695 -3.2466876731052046 0
    endloop
  endfacet
  facet normal 0 0 -1
    outer loop
      vertex -2.5880400016903877 6.585119999945164 0
      vertex -2.7193209845184088 4.284964221922726 0
      vertex -2.91043283795747 4.146113332793321 0
    endloop
  endfacet
  facet normal -0.9913767923218068 0.13104219032710493 0
    outer loop
      vertex -2.5880400016903877 6.585119999945164 0
      vertex -2.91043283795747 4.146113332793321 0
      vertex -2.5880400016903877 6.585119999945164 2
    endloop
  endfacet
  facet normal 0.9931304187210682 -0.11701269764822891 0
    outer loop
      vertex -0.3423771411180496 0.7751412242650986 2
      vertex -0.4353771433234215 -0.014184489846229553 0
      vertex -0.3423771411180496 0.7751412242650986 0
    endloop
  endfacet
  facet normal 0.9922864484904517 -0.123966141112025 0
    outer loop
      vertex -0.2334342822432518 1.6471738740801811 2
      vertex -0.3423771411180496 0.7751412242650986 0
      vertex -0.2334342822432518 1.6471738740801811 0
    endloop
  endfacet
  facet normal 0.9915531321615 -0.12970114147808812 0
    outer loop
      vertex -0.10854857414960861 2.6019134670495987 2
      vertex -0.2334342822432518 1.6471738740801811 0
      vertex -0.10854857414960861 2.6019134670495987 0
    endloop
  endfacet
  facet normal 0.9931304187210682 -0.11701269764822891 0
    outer loop
      vertex -0.4353771433234215 -0.014184489846229553 2
      vertex -0.4353771433234215 -0.014184489846229553 0
      vertex -0.3423771411180496 0.7751412242650986 2
    endloop
  endfacet
  facet normal 0.9922864484904517 -0.123966141112025 0
    outer loop
      vertex -0.3423771411180496 0.7751412242650986 2
      vertex -0.3423771411180496 0.7751412242650986 0
      vertex -0.2334342822432518 1.6471738740801811 2
    endloop
  endfacet
  facet normal 0.9915531321615 -0.12970114147808812 0
    outer loop
      vertex -0.2334342822432518 1.6471738740801811 2
      vertex -0.2334342822432518 1.6471738740801811 0
      vertex -0.10854857414960861 2.6019134670495987 2
    endloop
  endfacet
  facet normal 0.9909120021591974 -0.13451172431000588 0
    outer loop
      vertex -0.10854857414960861 2.6019134670495987 2
      vertex -0.10854857414960861 2.6019134670495987 0
      vertex 0.03227999806404114 3.6393600031733513 2
    endloop
  endfacet
  facet normal 0 0 1
    outer loop
      vertex -0.5124342888593674 -0.7208032682538033 2
      vertex -0.4353771433234215 -0.014184489846229553 2
      vertex -2.5880400016903877 6.585119999945164 2
    endloop
  endfacet
  facet normal 0 0 1
    outer loop
      vertex -0.4353771433234215 -0.014184489846229553 2
      vertex -0.3423771411180496 0.7751412242650986 2
      vertex -2.5880400016903877 6.585119999945164 2
    endloop
  endfacet
  facet normal 0 0 1
    outer loop
      vertex -2.5880400016903877 6.585119999945164 2
      vertex -0.3423771411180496 0.7751412242650986 2
      vertex -0.2334342822432518 1.6471738740801811 2
    endloop
  endfacet
  facet normal 0 0 -1
    outer loop
      vertex -2.5880400016903877 6.585119999945164 0
      vertex -2.160829904692744 4.591997291265049 0
      vertex -2.7193209845184088 4.284964221922726 0
    endloop
  endfacet
  facet normal 0 0 -1
    outer loop
      vertex -2.5880400016903877 6.585119999945164 0
      vertex -1.568261246452858 4.826611820197904 0
      vertex -2.160829904692744 4.591997291265049 0
    endloop
  endfacet
  facet normal 0 0 -1
    outer loop
      vertex -2.5880400016903877 6.585119999945164 0
      vertex -0.9509601715225522 4.985107797448095 0
      vertex -1.568261246452858 4.826611820197904 0
    endloop
  endfacet
  facet normal 0 0 -1
    outer loop
      vertex -2.5880400016903877 6.585119999945164 0
      vertex -0.3186618866112649 5.064985646773478 0
      vertex -0.9509601715225522 4.985107797448095 0
    endloop
  endfacet
  facet normal 0.9909120021591974 -0.13451172431000588 0
    outer loop
      vertex 0.03227999806404114 3.6393600031733513 2
      vertex -0.10854857414960861 2.6019134670495987 0
      vertex 0.03227999806404114 3.6393600031733513 0
    endloop
  endfacet
  facet normal 0 0 -1
    outer loop
      vertex -2.5880400016903877 6.585119999945164 0
      vertex 2.3677200004458427 6.585119999945164 0
      vertex -0.3186618866112649 5.064985646773478 0
    endloop
  endfacet
  facet normal 0 0 1
    outer loop
      vertex -2.5880400016903877 6.585119999945164 2
      vertex -0.2334342822432518 1.6471738740801811 2
      vertex -0.10854857414960861 2.6019134670495987 2
    endloop
  endfacet
  facet normal 0 0 1
    outer loop
      vertex -2.5880400016903877 6.585119999945164 2
      vertex -0.10854857414960861 2.6019134670495987 2
      vertex 0.03227999806404114 3.6393600031733513 2
    endloop
  endfacet
  facet normal 0 1 0
    outer loop
      vertex -2.5880400016903877 6.585119999945164 0
      vertex -2.5880400016903877 6.585119999945164 2
      vertex 2.3677200004458427 6.585119999945164 2
    endloop
  endfacet
  facet normal 0 0 1
    outer loop
      vertex -2.5880400016903877 6.585119999945164 2
      vertex 0.03227999806404114 3.6393600031733513 2
      vertex 2.3677200004458427 6.585119999945164 2
    endloop
  endfacet
  facet normal 0 0 -1
    outer loop
      vertex 0.8216399997472763 -6.589440003037453 0
      vertex 0.7080801459527128 -5.015790680115308 0
      vertex 0.9509601715225535 -4.985107797448095 0
    endloop
  endfacet
  facet normal 0 0 -1
    outer loop
      vertex 0.8216399997472763 -6.589440003037453 0
      vertex 0.9509601715225535 -4.985107797448095 0
      vertex 1.568261246452858 -4.826611820197904 0
    endloop
  endfacet
  facet normal -0.9974063488544307 -0.07197621318792524 -1.7591967239391828e-17
    outer loop
      vertex 0.8216399997472763 -6.589440003037453 0
      vertex 0.6507600024342537 -4.221479997038841 2
      vertex 0.7080801459527128 -5.015790680115308 0
    endloop
  endfacet
  facet normal -0.9974063488544307 -0.07197621318792526 0
    outer loop
      vertex 0.6507600024342537 -4.221479997038841 2
      vertex 0.6507600024342537 -4.221479997038841 0
      vertex 0.7080801459527128 -5.015790680115308 0
    endloop
  endfacet
  facet normal 0 0 -1
    outer loop
      vertex 0.8216399997472763 -6.589440003037453 0
      vertex 1.568261246452858 -4.826611820197904 0
      vertex 4.328879997134209 -6.589440003037453 0
    endloop
  endfacet
  facet normal 0 -1 0
    outer loop
      vertex 0.8216399997472763 -6.589440003037453 0
      vertex 4.328879997134209 -6.589440003037453 0
      vertex 0.8216399997472763 -6.589440003037453 2
    endloop
  endfacet
  facet normal -0.9974063488544307 -0.07197621318792526 0
    outer loop
      vertex 0.8216399997472763 -6.589440003037453 0
      vertex 0.8216399997472763 -6.589440003037453 2
      vertex 0.6507600024342537 -4.221479997038841 2
    endloop
  endfacet
  facet normal 0 -1 0
    outer loop
      vertex -0.5780399963259697 -4.221479997038841 2
      vertex 0.6507600024342537 -4.221479997038841 0
      vertex 0.6507600024342537 -4.221479997038841 2
    endloop
  endfacet
  facet normal 0 0 1
    outer loop
      vertex -0.5780399963259697 -4.221479997038841 2
      vertex 0.6507600024342537 -4.221479997038841 2
      vertex 0.5530799999833107 -1.8859200030565262 2
    endloop
  endfacet
  facet normal 0 0 1
    outer loop
      vertex 0.8216399997472763 -6.589440003037453 2
      vertex 4.328879997134209 -6.589440003037453 2
      vertex 0.6507600024342537 -4.221479997038841 2
    endloop
  endfacet
  facet normal 0 0 1
    outer loop
      vertex 0.6507600024342537 -4.221479997038841 2
      vertex 4.328879997134209 -6.589440003037453 2
      vertex 0.5530799999833107 -1.8859200030565262 2
    endloop
  endfacet
  facet normal -0.9937209809650458 -0.11188660326360374 0
    outer loop
      vertex 0.5530799999833107 -1.8859200030565262 2
      vertex 0.47867999970912933 -1.225136324763298 0
      vertex 0.5530799999833107 -1.8859200030565262 0
    endloop
  endfacet
  facet normal -0.9944562610121073 -0.1051510576923492 0
    outer loop
      vertex 0.47867999970912933 -1.225136324763298 2
      vertex 0.40427999943494797 -0.5215053036808968 0
      vertex 0.47867999970912933 -1.225136324763298 0
    endloop
  endfacet
  facet normal -0.9950698463718394 -0.09917661438829227 0
    outer loop
      vertex 0.40427999943494797 -0.5215053036808968 2
      vertex 0.3298799991607666 0.22497306019067764 0
      vertex 0.40427999943494797 -0.5215053036808968 0
    endloop
  endfacet
  facet normal 0 1 0
    outer loop
      vertex -0.6187200024724007 -1.8859200030565262 2
      vertex 0.5530799999833107 -1.8859200030565262 2
      vertex 0.5530799999833107 -1.8859200030565262 0
    endloop
  endfacet
  facet normal -0.9937209809650458 -0.11188660326360374 0
    outer loop
      vertex 0.5530799999833107 -1.8859200030565262 2
      vertex 0.47867999970912933 -1.225136324763298 2
      vertex 0.47867999970912933 -1.225136324763298 0
    endloop
  endfacet
  facet normal -0.9944562610121073 -0.1051510576923492 0
    outer loop
      vertex 0.47867999970912933 -1.225136324763298 2
      vertex 0.40427999943494797 -0.5215053036808968 2
      vertex 0.40427999943494797 -0.5215053036808968 0
    endloop
  endfacet
  facet normal -0.9950698463718394 -0.09917661438829227 0
    outer loop
      vertex 0.40427999943494797 -0.5215053036808968 2
      vertex 0.3298799991607666 0.22497306019067764 2
      vertex 0.3298799991607666 0.22497306019067764 0
    endloop
  endfacet
  facet normal 0 0 1
    outer loop
      vertex 0.5530799999833107 -1.8859200030565262 2
      vertex 4.328879997134209 -6.589440003037453 2
      vertex 0.47867999970912933 -1.225136324763298 2
    endloop
  endfacet
  facet normal 0 0 1
    outer loop
      vertex 0.47867999970912933 -1.225136324763298 2
      vertex 4.328879997134209 -6.589440003037453 2
      vertex 0.40427999943494797 -0.5215053036808968 2
    endloop
  endfacet
  facet normal 0 0 1
    outer loop
      vertex 0.40427999943494797 -0.5215053036808968 2
      vertex 4.328879997134209 -6.589440003037453 2
      vertex 0.3298799991607666 0.22497306019067764 2
    endloop
  endfacet
  facet normal 0 0 1
    outer loop
      vertex 4.328879997134209 -6.589440003037453 2
      vertex 0.25547999888658524 1.0142987743020058 2
      vertex 0.3298799991607666 0.22497306019067764 2
    endloop
  endfacet
  facet normal 0 0 1
    outer loop
      vertex 4.328879997134209 -6.589440003037453 2
      vertex 0.18107999861240387 1.8464718386530876 2
      vertex 0.25547999888658524 1.0142987743020058 2
    endloop
  endfacet
  facet normal 0 0 -1
    outer loop
      vertex 4.328879997134209 -6.589440003037453 0
      vertex 1.568261246452858 -4.826611820197904 0
      vertex 2.1608299046927426 -4.5919972912650495 0
    endloop
  endfacet
  facet normal 0 0 -1
    outer loop
      vertex 4.328879997134209 -6.589440003037453 0
      vertex 2.1608299046927426 -4.5919972912650495 0
      vertex 2.719320984518406 -4.284964221922728 0
    endloop
  endfacet
  facet normal 0 0 -1
    outer loop
      vertex 4.328879997134209 -6.589440003037453 0
      vertex 2.719320984518406 -4.284964221922728 0
      vertex 3.2349267479746016 -3.9103547070871296 0
    endloop
  endfacet
  facet normal 0 0 -1
    outer loop
      vertex 4.328879997134209 -6.589440003037453 0
      vertex 3.2349267479746016 -3.9103547070871296 0
      vertex 3.699515784163664 -3.4740765625880945 0
    endloop
  endfacet
  facet normal 0.9891012072204605 0.1472372299217419 0
    outer loop
      vertex 4.328879997134209 -6.589440003037453 0
      vertex 3.8398723640711756 -3.30441460246624 0
      vertex 4.328879997134209 -6.589440003037453 2
    endloop
  endfacet
  facet normal 0 0 -1
    outer loop
      vertex 4.328879997134209 -6.589440003037453 0
      vertex 3.699515784163664 -3.4740765625880945 0
      vertex 3.8398723640711756 -3.30441460246624 0
    endloop
  endfacet
  facet normal 0 -1 0
    outer loop
      vertex 4.328879997134209 -6.589440003037453 0
      vertex 4.328879997134209 -6.589440003037453 2
      vertex 0.8216399997472763 -6.589440003037453 2
    endloop
  endfacet
  facet normal 0.9891012072204604 0.14723722992174199 1.7350454164789476e-16
    outer loop
      vertex 4.328879997134209 -6.589440003037453 2
      vertex 3.8398723640711756 -3.30441460246624 0
      vertex 2.7093002566997413 4.290473163659397 0
    endloop
  endfacet
  facet normal -0.9955871290759966 -0.09384172003014 0
    outer loop
      vertex 0.3298799991607666 0.22497306019067764 2
      vertex 0.25547999888658524 1.0142987743020058 0
      vertex 0.3298799991607666 0.22497306019067764 0
    endloop
  endfacet
  facet normal -0.9960272199602276 -0.08904929588885305 0
    outer loop
      vertex 0.25547999888658524 1.0142987743020058 2
      vertex 0.18107999861240387 1.8464718386530876 0
      vertex 0.25547999888658524 1.0142987743020058 0
    endloop
  endfacet
  facet normal -0.9964047220064287 -0.08472089449062573 0
    outer loop
      vertex 0.18107999861240387 1.8464718386530876 2
      vertex 0.1066799983382225 2.7214922457933426 0
      vertex 0.18107999861240387 1.8464718386530876 0
    endloop
  endfacet
  facet normal -0.9967309468487731 -0.08079244762939411 0
    outer loop
      vertex 0.1066799983382225 2.7214922457933426 2
      vertex 0.03227999806404114 3.6393600031733513 0
      vertex 0.1066799983382225 2.7214922457933426 0
    endloop
  endfacet
  facet normal -0.9955871290759966 -0.09384172003014 0
    outer loop
      vertex 0.3298799991607666 0.22497306019067764 2
      vertex 0.25547999888658524 1.0142987743020058 2
      vertex 0.25547999888658524 1.0142987743020058 0
    endloop
  endfacet
  facet normal -0.9960272199602276 -0.08904929588885305 0
    outer loop
      vertex 0.25547999888658524 1.0142987743020058 2
      vertex 0.18107999861240387 1.8464718386530876 2
      vertex 0.18107999861240387 1.8464718386530876 0
    endloop
  endfacet
  facet normal -0.9964047220064287 -0.08472089449062573 0
    outer loop
      vertex 0.18107999861240387 1.8464718386530876 2
      vertex 0.1066799983382225 2.7214922457933426 2
      vertex 0.1066799983382225 2.7214922457933426 0
    endloop
  endfacet
  facet normal 0 0 1
    outer loop
      vertex 4.328879997134209 -6.589440003037453 2
      vertex 2.3677200004458427 6.585119999945164 2
      vertex 0.18107999861240387 1.8464718386530876 2
    endloop
  endfacet
  facet normal 0 0 -1
    outer loop
      vertex 2.3677200004458427 6.585119999945164 0
      vertex 0.3186618866112649 5.064985646773478 0
      vertex -0.3186618866112649 5.064985646773478 0
    endloop
  endfacet
  facet normal 0 0 -1
    outer loop
      vertex 2.3677200004458427 6.585119999945164 0
      vertex 0.9509601715225522 4.985107797448095 0
      vertex 0.3186618866112649 5.064985646773478 0
    endloop
  endfacet
  facet normal 0 1 0
    outer loop
      vertex -2.5880400016903877 6.585119999945164 0
      vertex 2.3677200004458427 6.585119999945164 2
      vertex 2.3677200004458427 6.585119999945164 0
    endloop
  endfacet
  facet normal 0 0 -1
    outer loop
      vertex 2.3677200004458427 6.585119999945164 0
      vertex 1.568261246452858 4.826611820197904 0
      vertex 0.9509601715225522 4.985107797448095 0
    endloop
  endfacet
  facet normal 0 0 -1
    outer loop
      vertex 2.3677200004458427 6.585119999945164 0
      vertex 2.160829904692744 4.591997291265049 0
      vertex 1.568261246452858 4.826611820197904 0
    endloop
  endfacet
  facet normal 0 0 -1
    outer loop
      vertex 2.3677200004458427 6.585119999945164 0
      vertex 2.7093002566997413 4.290473163659397 0
      vertex 2.160829904692744 4.591997291265049 0
    endloop
  endfacet
  facet normal -0.9967309468487731 -0.08079244762939411 0
    outer loop
      vertex 0.1066799983382225 2.7214922457933426 2
      vertex 0.03227999806404114 3.6393600031733513 2
      vertex 0.03227999806404114 3.6393600031733513 0
    endloop
  endfacet
  facet normal 0 0 1
    outer loop
      vertex 0.18107999861240387 1.8464718386530876 2
      vertex 2.3677200004458427 6.585119999945164 2
      vertex 0.1066799983382225 2.7214922457933426 2
    endloop
  endfacet
  facet normal 0 0 1
    outer loop
      vertex 0.1066799983382225 2.7214922457933426 2
      vertex 2.3677200004458427 6.585119999945164 2
      vertex 0.03227999806404114 3.6393600031733513 2
    endloop
  endfacet
  facet normal 0.9891012072204604 0.1472372299217419 0
    outer loop
      vertex 4.328879997134209 -6.589440003037453 2
      vertex 2.7093002566997413 4.290473163659397 0
      vertex 2.3677200004458427 6.585119999945164 0
    endloop
  endfacet
  facet normal 0.9891012072204605 0.14723722992174196 0
    outer loop
      vertex 4.328879997134209 -6.589440003037453 2
      vertex 2.3677200004458427 6.585119999945164 0
      vertex 2.3677200004458427 6.585119999945164 2
    endloop
  endfacet
endsolid OpenSCAD_Model
