solid OpenSCAD_Model
  facet normal 0.6778092793788226 0.5607326015499206 0.47555602230128374
    outer loop
      vertex -3.033813728906053 -2.204194696096774 0
      vertex -1.5490583332704997 -1.454662600098463 -3
      vertex -1.7191611130467632 -1.2490436611215054 -3
    endloop
  endfacet
  facet normal 0.7427429808762783 0.4713590287795514 0.47555602230128335
    outer loop
      vertex -3.286150050164488 -1.8065762778814327 0
      vertex -1.7191611130467632 -1.2490436611215054 -3
      vertex -1.86215169509321 -1.0237265574661452 -3
    endloop
  endfacet
  facet normal 0.795963181872165 0.3745518425490921 0.47555602230128363
    outer loop
      vertex -3.486661822080943 -1.380467072567542 0
      vertex -1.86215169509321 -1.0237265574661452 -3
      vertex -1.9757750325125343 -0.7822646744549404 -3
    endloop
  endfacet
  facet normal 0.8366305680045701 0.2718377500152095 0.4755560223012835
    outer loop
      vertex -3.6321868542323665 -0.9325870768682056 0
      vertex -1.9757750325125343 -0.7822646744549404 -3
      vertex -2.058239217398341 -0.5284660102253166 -3
    endloop
  endfacet
  facet normal 0.8641037903006672 0.16483661377558567 0.47555602230128374
    outer loop
      vertex -3.720430129929292 -0.46999962586614025 0
      vertex -2.058239217398341 -0.5284660102253166 -3
      vertex -2.1082437402932657 -0.26633312132414616 -3
    endloop
  endfacet
  facet normal 0.8779495796331391 0.0552359056680998 0.4755560223012837
    outer loop
      vertex -3.75 0 0
      vertex -2.1082437402932657 -0.26633312132414616 -3
      vertex -2.125 0 -3
    endloop
  endfacet
  facet normal 0.5170661270539537 0.7116804689651145 0.47555602230128396
    outer loop
      vertex -2.009350481171238 -3.1662297206325563 0
      vertex -1.138631939330368 -1.7941968416917817 -3
      vertex -1.3545259782159655 -1.6373406408985525 -3
    endloop
  endfacet
  facet normal 0.4237916917620101 0.7708742255689152 0.4755560223012835
    outer loop
      vertex -1.5966723433690215 -3.3931014467475733 0
      vertex -0.904780994575779 -1.9227574864902917 -3
      vertex -1.138631939330368 -1.7941968416917817 -3
    endloop
  endfacet
  facet normal 0.323833808330092 0.8179108351375535 0.4755560223012837
    outer loop
      vertex -1.1588137289060527 -3.5664619361068257 0
      vertex -0.6566611130467632 -2.020995097127201 -3
      vertex -0.904780994575779 -1.9227574864902917 -3
    endloop
  endfacet
  facet normal 0.21876887229187061 0.8520485022398222 0.4755560223012836
    outer loop
      vertex -0.7026799296964681 -3.6835771902325822 0
      vertex -0.39818529349466525 -2.0873604077984633 -3
      vertex -0.6566611130467632 -2.020995097127201 -3
    endloop
  endfacet
  facet normal 0.11025382045141482 0.8727488554726659 0.4755560223012837
    outer loop
      vertex -0.23546444823492688 -3.7426002316060183 0
      vertex -0.13342985399979174 -2.120806797910077 -3
      vertex -0.39818529349466525 -2.0873604077984633 -3
    endloop
  endfacet
  facet normal 0.6021861206419274 0.6412630862284271 0.4755560223012837
    outer loop
      vertex -2.390339961557586 -2.88942466040921 0
      vertex -1.3545259782159655 -1.6373406408985525 -3
      vertex -1.5490583332704997 -1.454662600098463 -3
    endloop
  endfacet
  facet normal 0.6778092793788228 0.5607326015499203 0.47555602230128374
    outer loop
      vertex -2.733632352830294 -2.567051647232582 0
      vertex -1.5490583332704997 -1.454662600098463 -3
      vertex -3.033813728906053 -2.204194696096774 0
    endloop
  endfacet
  facet normal 0.6021861206419261 0.6412630862284281 0.47555602230128374
    outer loop
      vertex -2.733632352830294 -2.567051647232582 0
      vertex -2.390339961557586 -2.88942466040921 0
      vertex -1.5490583332704997 -1.454662600098463 -3
    endloop
  endfacet
  facet normal 0.8366305680045705 0.2718377500152082 0.47555602230128374
    outer loop
      vertex -3.486661822080943 -1.380467072567542 0
      vertex -1.9757750325125343 -0.7822646744549404 -3
      vertex -3.6321868542323665 -0.9325870768682056 0
    endloop
  endfacet
  facet normal 0.8641037903006672 0.16483661377558573 0.4755560223012837
    outer loop
      vertex -3.6321868542323665 -0.9325870768682056 0
      vertex -2.058239217398341 -0.5284660102253166 -3
      vertex -3.720430129929292 -0.46999962586614025 0
    endloop
  endfacet
  facet normal 0.8779495796331391 0.055235905668100244 0.4755560223012837
    outer loop
      vertex -3.720430129929292 -0.46999962586614025 0
      vertex -2.1082437402932657 -0.26633312132414616 -3
      vertex -3.75 0 0
    endloop
  endfacet
  facet normal 0.7427429808762791 0.4713590287795496 0.47555602230128374
    outer loop
      vertex -3.286150050164488 -1.8065762778814327 0
      vertex -3.033813728906053 -2.204194696096774 0
      vertex -1.7191611130467632 -1.2490436611215054 -3
    endloop
  endfacet
  facet normal 0.7959631818721645 0.37455184254909296 0.4755560223012836
    outer loop
      vertex -3.486661822080943 -1.380467072567542 0
      vertex -3.286150050164488 -1.8065762778814327 0
      vertex -1.86215169509321 -1.0237265574661452 -3
    endloop
  endfacet
  facet normal 0.5170661270539548 0.7116804689651139 0.47555602230128363
    outer loop
      vertex -2.009350481171238 -3.1662297206325563 0
      vertex -1.3545259782159655 -1.6373406408985525 -3
      vertex -2.390339961557586 -2.88942466040921 0
    endloop
  endfacet
  facet normal 0.4237916917620092 0.7708742255689155 0.47555602230128374
    outer loop
      vertex -2.009350481171238 -3.1662297206325563 0
      vertex -1.5966723433690215 -3.3931014467475733 0
      vertex -1.138631939330368 -1.7941968416917817 -3
    endloop
  endfacet
  facet normal 0.32383380833009284 0.8179108351375532 0.4755560223012836
    outer loop
      vertex -1.5966723433690215 -3.3931014467475733 0
      vertex -1.1588137289060527 -3.5664619361068257 0
      vertex -0.904780994575779 -1.9227574864902917 -3
    endloop
  endfacet
  facet normal 0.2187688722918698 0.8520485022398223 0.47555602230128374
    outer loop
      vertex -1.1588137289060527 -3.5664619361068257 0
      vertex -0.7026799296964681 -3.6835771902325822 0
      vertex -0.6566611130467632 -2.020995097127201 -3
    endloop
  endfacet
  facet normal 0.11025382045141487 0.8727488554726658 0.4755560223012837
    outer loop
      vertex -0.7026799296964681 -3.6835771902325822 0
      vertex -0.23546444823492688 -3.7426002316060183 0
      vertex -0.39818529349466525 -2.0873604077984633 -3
    endloop
  endfacet
  facet normal 0 0.8796854378998104 0.4755560223012837
    outer loop
      vertex -0.23546444823492688 -3.7426002316060183 0
      vertex 0.2354644482349266 -3.7426002316060183 0
      vertex -0.13342985399979174 -2.120806797910077 -3
    endloop
  endfacet
  facet normal 0.8779495796331391 -0.0552359056680998 0.4755560223012837
    outer loop
      vertex -3.75 0 0
      vertex -2.125 0 -3
      vertex -2.1082437402932657 0.26633312132414616 -3
    endloop
  endfacet
  facet normal 0.8641037903006672 -0.16483661377558567 0.47555602230128374
    outer loop
      vertex -3.720430129929292 0.46999962586614025 0
      vertex -2.1082437402932657 0.26633312132414616 -3
      vertex -2.058239217398341 0.5284660102253166 -3
    endloop
  endfacet
  facet normal 0.8366305680045701 -0.2718377500152095 0.4755560223012835
    outer loop
      vertex -3.6321868542323665 0.9325870768682056 0
      vertex -2.058239217398341 0.5284660102253166 -3
      vertex -1.9757750325125343 0.7822646744549404 -3
    endloop
  endfacet
  facet normal 0.795963181872165 -0.3745518425490921 0.47555602230128363
    outer loop
      vertex -3.486661822080943 1.380467072567542 0
      vertex -1.9757750325125343 0.7822646744549404 -3
      vertex -1.86215169509321 1.0237265574661452 -3
    endloop
  endfacet
  facet normal 0.7427429808762783 -0.4713590287795514 0.47555602230128335
    outer loop
      vertex -3.286150050164488 1.8065762778814327 0
      vertex -1.86215169509321 1.0237265574661452 -3
      vertex -1.7191611130467632 1.2490436611215054 -3
    endloop
  endfacet
  facet normal 0.6778092793788226 -0.5607326015499206 0.47555602230128374
    outer loop
      vertex -3.033813728906053 2.204194696096774 0
      vertex -1.7191611130467632 1.2490436611215054 -3
      vertex -1.5490583332704997 1.454662600098463 -3
    endloop
  endfacet
  facet normal 0.6021861206419274 -0.6412630862284271 0.4755560223012837
    outer loop
      vertex -2.390339961557586 2.88942466040921 0
      vertex -1.5490583332704997 1.454662600098463 -3
      vertex -1.3545259782159655 1.6373406408985525 -3
    endloop
  endfacet
  facet normal 0.5170661270539537 -0.7116804689651145 0.47555602230128396
    outer loop
      vertex -2.009350481171238 3.1662297206325563 0
      vertex -1.3545259782159655 1.6373406408985525 -3
      vertex -1.138631939330368 1.7941968416917817 -3
    endloop
  endfacet
  facet normal 0.4237916917620102 -0.7708742255689149 0.47555602230128374
    outer loop
      vertex -1.5966723433690226 3.393101446747573 0
      vertex -1.138631939330368 1.7941968416917817 -3
      vertex -0.9047809945757795 1.9227574864902914 -3
    endloop
  endfacet
  facet normal 0.32383380833009223 -0.8179108351375534 0.47555602230128363
    outer loop
      vertex -1.1588137289060527 3.5664619361068257 0
      vertex -0.9047809945757795 1.9227574864902914 -3
      vertex -0.6566611130467632 2.020995097127201 -3
    endloop
  endfacet
  facet normal 0.21876887229187014 -0.8520485022398222 0.4755560223012837
    outer loop
      vertex -0.7026799296964672 3.6835771902325827 0
      vertex -0.6566611130467632 2.020995097127201 -3
      vertex -0.3981852934946647 2.0873604077984633 -3
    endloop
  endfacet
  facet normal 0.11025382045141463 -0.8727488554726659 0.4755560223012837
    outer loop
      vertex -0.2354644482349248 3.7426002316060183 0
      vertex -0.3981852934946647 2.0873604077984633 -3
      vertex -0.1334298539997907 2.120806797910077 -3
    endloop
  endfacet
  facet normal 0 -0.8796854378998102 0.4755560223012837
    outer loop
      vertex -0.2354644482349248 3.7426002316060183 0
      vertex -0.1334298539997907 2.120806797910077 -3
      vertex 0.13342985399979024 2.120806797910077 -3
    endloop
  endfacet
  facet normal 0.877949579633139 -0.05523590566810023 0.4755560223012837
    outer loop
      vertex -3.75 0 0
      vertex -2.1082437402932657 0.26633312132414616 -3
      vertex -3.720430129929292 0.46999962586614025 0
    endloop
  endfacet
  facet normal 0.8641037903006672 -0.16483661377558573 0.4755560223012837
    outer loop
      vertex -3.720430129929292 0.46999962586614025 0
      vertex -2.058239217398341 0.5284660102253166 -3
      vertex -3.6321868542323665 0.9325870768682056 0
    endloop
  endfacet
  facet normal 0.8366305680045705 -0.2718377500152082 0.4755560223012838
    outer loop
      vertex -3.6321868542323665 0.9325870768682056 0
      vertex -1.9757750325125343 0.7822646744549404 -3
      vertex -3.486661822080943 1.380467072567542 0
    endloop
  endfacet
  facet normal 0.7959631818721645 -0.37455184254909296 0.4755560223012836
    outer loop
      vertex -3.486661822080943 1.380467072567542 0
      vertex -1.86215169509321 1.0237265574661452 -3
      vertex -3.286150050164488 1.8065762778814327 0
    endloop
  endfacet
  facet normal 0.7427429808762791 -0.4713590287795496 0.47555602230128374
    outer loop
      vertex -3.286150050164488 1.8065762778814327 0
      vertex -1.7191611130467632 1.2490436611215054 -3
      vertex -3.033813728906053 2.204194696096774 0
    endloop
  endfacet
  facet normal 0.6778092793788228 -0.5607326015499203 0.47555602230128374
    outer loop
      vertex -3.033813728906053 2.204194696096774 0
      vertex -1.5490583332704997 1.454662600098463 -3
      vertex -2.733632352830294 2.567051647232582 0
    endloop
  endfacet
  facet normal 0.6021861206419261 -0.6412630862284281 0.47555602230128374
    outer loop
      vertex -2.733632352830294 2.567051647232582 0
      vertex -1.5490583332704997 1.454662600098463 -3
      vertex -2.390339961557586 2.88942466040921 0
    endloop
  endfacet
  facet normal 0.5170661270539548 -0.7116804689651139 0.47555602230128363
    outer loop
      vertex -2.390339961557586 2.88942466040921 0
      vertex -1.3545259782159655 1.6373406408985525 -3
      vertex -2.009350481171238 3.1662297206325563 0
    endloop
  endfacet
  facet normal 0.4237916917620094 -0.7708742255689153 0.47555602230128374
    outer loop
      vertex -2.009350481171238 3.1662297206325563 0
      vertex -1.138631939330368 1.7941968416917817 -3
      vertex -1.5966723433690226 3.393101446747573 0
    endloop
  endfacet
  facet normal 0.3238338083300928 -0.8179108351375531 0.4755560223012836
    outer loop
      vertex -1.5966723433690226 3.393101446747573 0
      vertex -0.9047809945757795 1.9227574864902914 -3
      vertex -1.1588137289060527 3.5664619361068257 0
    endloop
  endfacet
  facet normal 0.2187688722918702 -0.8520485022398222 0.47555602230128374
    outer loop
      vertex -1.1588137289060527 3.5664619361068257 0
      vertex -0.6566611130467632 2.020995097127201 -3
      vertex -0.7026799296964672 3.6835771902325827 0
    endloop
  endfacet
  facet normal 0.11025382045141378 -0.872748855472666 0.47555602230128374
    outer loop
      vertex -0.7026799296964672 3.6835771902325827 0
      vertex -0.3981852934946647 2.0873604077984633 -3
      vertex -0.2354644482349248 3.7426002316060183 0
    endloop
  endfacet
  facet normal 0 0.8796854378998104 0.47555602230128363
    outer loop
      vertex 0.2354644482349266 -3.7426002316060183 0
      vertex 0.13342985399979174 -2.120806797910077 -3
      vertex -0.13342985399979174 -2.120806797910077 -3
    endloop
  endfacet
  facet normal -0.11025382045141481 0.8727488554726659 0.47555602230128363
    outer loop
      vertex 0.2354644482349266 -3.7426002316060183 0
      vertex 0.39818529349466525 -2.0873604077984633 -3
      vertex 0.13342985399979174 -2.120806797910077 -3
    endloop
  endfacet
  facet normal -0.21876887229187061 0.8520485022398222 0.4755560223012836
    outer loop
      vertex 0.7026799296964681 -3.6835771902325822 0
      vertex 0.6566611130467632 -2.020995097127201 -3
      vertex 0.39818529349466525 -2.0873604077984633 -3
    endloop
  endfacet
  facet normal -0.323833808330092 0.8179108351375535 0.4755560223012837
    outer loop
      vertex 1.1588137289060527 -3.5664619361068257 0
      vertex 0.904780994575779 -1.9227574864902917 -3
      vertex 0.6566611130467632 -2.020995097127201 -3
    endloop
  endfacet
  facet normal -0.4237916917620093 0.7708742255689153 0.4755560223012837
    outer loop
      vertex 1.5966723433690215 -3.3931014467475733 0
      vertex 1.138631939330367 -1.7941968416917824 -3
      vertex 0.904780994575779 -1.9227574864902917 -3
    endloop
  endfacet
  facet normal -0.5170661270539547 0.7116804689651139 0.47555602230128363
    outer loop
      vertex 2.0093504811712357 -3.1662297206325576 0
      vertex 1.3545259782159662 -1.6373406408985516 -3
      vertex 1.138631939330367 -1.7941968416917824 -3
    endloop
  endfacet
  facet normal -0.6021861206419268 0.6412630862284275 0.4755560223012835
    outer loop
      vertex 2.3903399615575873 -2.889424660409209 0
      vertex 1.5490583332704997 -1.454662600098463 -3
      vertex 1.3545259782159662 -1.6373406408985516 -3
    endloop
  endfacet
  facet normal -0.6778092793788226 0.5607326015499206 0.47555602230128374
    outer loop
      vertex 3.033813728906053 -2.204194696096774 0
      vertex 1.7191611130467632 -1.2490436611215054 -3
      vertex 1.5490583332704997 -1.454662600098463 -3
    endloop
  endfacet
  facet normal -0.7427429808762783 0.4713590287795514 0.47555602230128335
    outer loop
      vertex 3.286150050164488 -1.8065762778814327 0
      vertex 1.86215169509321 -1.0237265574661452 -3
      vertex 1.7191611130467632 -1.2490436611215054 -3
    endloop
  endfacet
  facet normal -0.7959631818721651 0.37455184254909185 0.4755560223012838
    outer loop
      vertex 3.486661822080942 -1.3804670725675439 0
      vertex 1.9757750325125338 -0.7822646744549415 -3
      vertex 1.86215169509321 -1.0237265574661452 -3
    endloop
  endfacet
  facet normal -0.8366305680045699 0.27183775001521027 0.4755560223012835
    outer loop
      vertex 3.632186854232367 -0.9325870768682041 0
      vertex 2.0582392173983415 -0.5284660102253157 -3
      vertex 1.9757750325125338 -0.7822646744549415 -3
    endloop
  endfacet
  facet normal -0.8641037903006673 0.1648366137755843 0.47555602230128374
    outer loop
      vertex 3.720430129929292 -0.46999962586614025 0
      vertex 2.1082437402932657 -0.26633312132414616 -3
      vertex 2.0582392173983415 -0.5284660102253157 -3
    endloop
  endfacet
  facet normal -0.8779495796331391 0.0552359056680998 0.4755560223012837
    outer loop
      vertex 3.75 0 0
      vertex 2.125 0 -3
      vertex 2.1082437402932657 -0.26633312132414616 -3
    endloop
  endfacet
  facet normal -0.11025382045141482 0.8727488554726659 0.4755560223012837
    outer loop
      vertex 0.2354644482349266 -3.7426002316060183 0
      vertex 0.7026799296964681 -3.6835771902325822 0
      vertex 0.39818529349466525 -2.0873604077984633 -3
    endloop
  endfacet
  facet normal -0.2187688722918698 0.8520485022398223 0.4755560223012837
    outer loop
      vertex 0.7026799296964681 -3.6835771902325822 0
      vertex 1.1588137289060527 -3.5664619361068257 0
      vertex 0.6566611130467632 -2.020995097127201 -3
    endloop
  endfacet
  facet normal -0.32383380833009284 0.8179108351375532 0.4755560223012836
    outer loop
      vertex 1.1588137289060527 -3.5664619361068257 0
      vertex 1.5966723433690215 -3.3931014467475733 0
      vertex 0.904780994575779 -1.9227574864902917 -3
    endloop
  endfacet
  facet normal -0.42379169176200904 0.7708742255689155 0.47555602230128374
    outer loop
      vertex 1.5966723433690215 -3.3931014467475733 0
      vertex 2.0093504811712357 -3.1662297206325576 0
      vertex 1.138631939330367 -1.7941968416917824 -3
    endloop
  endfacet
  facet normal -0.5170661270539544 0.7116804689651142 0.47555602230128374
    outer loop
      vertex 2.0093504811712357 -3.1662297206325576 0
      vertex 2.3903399615575873 -2.889424660409209 0
      vertex 1.3545259782159662 -1.6373406408985516 -3
    endloop
  endfacet
  facet normal -0.6021861206419264 0.6412630862284278 0.4755560223012837
    outer loop
      vertex 2.3903399615575873 -2.889424660409209 0
      vertex 2.733632352830294 -2.567051647232582 0
      vertex 1.5490583332704997 -1.454662600098463 -3
    endloop
  endfacet
  facet normal -0.6778092793788228 0.5607326015499203 0.47555602230128374
    outer loop
      vertex 2.733632352830294 -2.567051647232582 0
      vertex 3.033813728906053 -2.204194696096774 0
      vertex 1.5490583332704997 -1.454662600098463 -3
    endloop
  endfacet
  facet normal -0.7427429808762791 0.4713590287795496 0.47555602230128374
    outer loop
      vertex 3.033813728906053 -2.204194696096774 0
      vertex 3.286150050164488 -1.8065762778814327 0
      vertex 1.7191611130467632 -1.2490436611215054 -3
    endloop
  endfacet
  facet normal -0.7959631818721646 0.3745518425490929 0.4755560223012837
    outer loop
      vertex 3.286150050164488 -1.8065762778814327 0
      vertex 3.486661822080942 -1.3804670725675439 0
      vertex 1.86215169509321 -1.0237265574661452 -3
    endloop
  endfacet
  facet normal -0.8366305680045703 0.27183775001520866 0.47555602230128363
    outer loop
      vertex 3.486661822080942 -1.3804670725675439 0
      vertex 3.632186854232367 -0.9325870768682041 0
      vertex 1.9757750325125338 -0.7822646744549415 -3
    endloop
  endfacet
  facet normal -0.8641037903006673 0.16483661377558548 0.4755560223012837
    outer loop
      vertex 3.632186854232367 -0.9325870768682041 0
      vertex 3.720430129929292 -0.46999962586614025 0
      vertex 2.0582392173983415 -0.5284660102253157 -3
    endloop
  endfacet
  facet normal -0.8779495796331391 0.055235905668100244 0.4755560223012837
    outer loop
      vertex 3.720430129929292 -0.46999962586614025 0
      vertex 3.75 0 0
      vertex 2.1082437402932657 -0.26633312132414616 -3
    endloop
  endfacet
  facet normal -0.6021861206419262 -0.641263086228428 0.4755560223012837
    outer loop
      vertex 2.3903399615575864 2.889424660409209 0
      vertex 1.3545259782159658 1.637340640898552 -3
      vertex 1.5490583332704995 1.4546626000984635 -3
    endloop
  endfacet
  facet normal -0.11025382045141442 -0.8727488554726659 0.4755560223012837
    outer loop
      vertex 0.2354644482349248 3.7426002316060183 0
      vertex 0.13342985399979024 2.120806797910077 -3
      vertex 0.3981852934946647 2.0873604077984633 -3
    endloop
  endfacet
  facet normal -0.21876887229187014 -0.8520485022398222 0.4755560223012837
    outer loop
      vertex 0.7026799296964672 3.6835771902325827 0
      vertex 0.3981852934946647 2.0873604077984633 -3
      vertex 0.6566611130467632 2.020995097127201 -3
    endloop
  endfacet
  facet normal -0.32383380833009223 -0.8179108351375534 0.47555602230128363
    outer loop
      vertex 1.1588137289060527 3.5664619361068257 0
      vertex 0.6566611130467632 2.020995097127201 -3
      vertex 0.9047809945757795 1.9227574864902914 -3
    endloop
  endfacet
  facet normal -0.42379169176200976 -0.770874225568915 0.47555602230128374
    outer loop
      vertex 1.5966723433690226 3.393101446747573 0
      vertex 0.9047809945757795 1.9227574864902914 -3
      vertex 1.1386319393303679 1.794196841691782 -3
    endloop
  endfacet
  facet normal -0.5170661270539549 -0.7116804689651138 0.4755560223012837
    outer loop
      vertex 2.0093504811712375 3.1662297206325567 0
      vertex 1.1386319393303679 1.794196841691782 -3
      vertex 1.3545259782159658 1.637340640898552 -3
    endloop
  endfacet
  facet normal -0.8779495796331391 -0.055235905668099716 0.47555602230128374
    outer loop
      vertex 3.75 0 0
      vertex 2.1082437402932657 0.26633312132414655 -3
      vertex 2.125 0 -3
    endloop
  endfacet
  facet normal -0.8641037903006671 -0.16483661377558595 0.4755560223012837
    outer loop
      vertex 3.720430129929292 0.46999962586614097 0
      vertex 2.058239217398341 0.5284660102253165 -3
      vertex 2.1082437402932657 0.26633312132414655 -3
    endloop
  endfacet
  facet normal -0.8366305680045699 -0.27183775001520993 0.4755560223012835
    outer loop
      vertex 3.6321868542323665 0.9325870768682055 0
      vertex 1.975775032512534 0.7822646744549407 -3
      vertex 2.058239217398341 0.5284660102253165 -3
    endloop
  endfacet
  facet normal -0.7959631818721654 -0.3745518425490909 0.4755560223012838
    outer loop
      vertex 3.4866618220809427 1.3804670725675423 0
      vertex 1.8621516950932102 1.0237265574661452 -3
      vertex 1.975775032512534 0.7822646744549407 -3
    endloop
  endfacet
  facet normal -0.7427429808762782 -0.4713590287795512 0.4755560223012834
    outer loop
      vertex 3.2861500501644882 1.8065762778814325 0
      vertex 1.7191611130467632 1.2490436611215054 -3
      vertex 1.8621516950932102 1.0237265574661452 -3
    endloop
  endfacet
  facet normal -0.6778092793788231 -0.5607326015499203 0.4755560223012836
    outer loop
      vertex 3.033813728906053 2.204194696096774 0
      vertex 1.5490583332704995 1.4546626000984635 -3
      vertex 1.7191611130467632 1.2490436611215054 -3
    endloop
  endfacet
  facet normal 0 -0.8796854378998104 0.4755560223012837
    outer loop
      vertex -0.2354644482349248 3.7426002316060183 0
      vertex 0.13342985399979024 2.120806797910077 -3
      vertex 0.2354644482349248 3.7426002316060183 0
    endloop
  endfacet
  facet normal -0.11025382045141378 -0.872748855472666 0.47555602230128374
    outer loop
      vertex 0.7026799296964672 3.6835771902325827 0
      vertex 0.2354644482349248 3.7426002316060183 0
      vertex 0.3981852934946647 2.0873604077984633 -3
    endloop
  endfacet
  facet normal -0.2187688722918702 -0.8520485022398222 0.47555602230128374
    outer loop
      vertex 0.7026799296964672 3.6835771902325827 0
      vertex 0.6566611130467632 2.020995097127201 -3
      vertex 1.1588137289060527 3.5664619361068257 0
    endloop
  endfacet
  facet normal -0.3238338083300928 -0.8179108351375531 0.4755560223012836
    outer loop
      vertex 1.1588137289060527 3.5664619361068257 0
      vertex 0.9047809945757795 1.9227574864902914 -3
      vertex 1.5966723433690226 3.393101446747573 0
    endloop
  endfacet
  facet normal -0.42379169176200915 -0.7708742255689154 0.4755560223012837
    outer loop
      vertex 1.5966723433690226 3.393101446747573 0
      vertex 1.1386319393303679 1.794196841691782 -3
      vertex 2.0093504811712375 3.1662297206325567 0
    endloop
  endfacet
  facet normal -0.5170661270539557 -0.7116804689651133 0.47555602230128363
    outer loop
      vertex 2.3903399615575864 2.889424660409209 0
      vertex 2.0093504811712375 3.1662297206325567 0
      vertex 1.3545259782159658 1.637340640898552 -3
    endloop
  endfacet
  facet normal -0.795963181872165 -0.3745518425490919 0.4755560223012836
    outer loop
      vertex 3.2861500501644882 1.8065762778814325 0
      vertex 1.8621516950932102 1.0237265574661452 -3
      vertex 3.4866618220809427 1.3804670725675423 0
    endloop
  endfacet
  facet normal -0.7427429808762788 -0.47135902877955 0.47555602230128374
    outer loop
      vertex 3.033813728906053 2.204194696096774 0
      vertex 1.7191611130467632 1.2490436611215054 -3
      vertex 3.2861500501644882 1.8065762778814325 0
    endloop
  endfacet
  facet normal -0.877949579633139 -0.055235905668100146 0.47555602230128363
    outer loop
      vertex 3.720430129929292 0.46999962586614097 0
      vertex 2.1082437402932657 0.26633312132414655 -3
      vertex 3.75 0 0
    endloop
  endfacet
  facet normal -0.8641037903006671 -0.16483661377558603 0.4755560223012837
    outer loop
      vertex 3.720430129929292 0.46999962586614097 0
      vertex 3.6321868542323665 0.9325870768682055 0
      vertex 2.058239217398341 0.5284660102253165 -3
    endloop
  endfacet
  facet normal -0.8366305680045704 -0.27183775001520877 0.47555602230128363
    outer loop
      vertex 3.6321868542323665 0.9325870768682055 0
      vertex 3.4866618220809427 1.3804670725675423 0
      vertex 1.975775032512534 0.7822646744549407 -3
    endloop
  endfacet
  facet normal -0.6021861206419252 -0.6412630862284291 0.47555602230128374
    outer loop
      vertex 2.3903399615575864 2.889424660409209 0
      vertex 1.5490583332704995 1.4546626000984635 -3
      vertex 2.7336323528302935 2.567051647232583 0
    endloop
  endfacet
  facet normal -0.6778092793788232 -0.5607326015499201 0.4755560223012838
    outer loop
      vertex 3.033813728906053 2.204194696096774 0
      vertex 2.7336323528302935 2.567051647232583 0
      vertex 1.5490583332704995 1.4546626000984635 -3
    endloop
  endfacet
  facet normal 0 0 1
    outer loop
      vertex -3.033813728906053 -2.204194696096774 0
      vertex -3.505226720175454 -1.9270146964068615 0
      vertex -3.23606797749979 -2.3511410091698925 0
    endloop
  endfacet
  facet normal 0 0 1
    outer loop
      vertex -2.733632352830294 -2.567051647232582 0
      vertex -3.033813728906053 -2.204194696096774 0
      vertex -3.23606797749979 -2.3511410091698925 0
    endloop
  endfacet
  facet normal 0 0 1
    outer loop
      vertex -2.009350481171238 -3.1662297206325563 0
      vertex -2.390339961557586 -2.88942466040921 0
      vertex -2.5496959589947585 -3.0820529711031575 0
    endloop
  endfacet
  facet normal 0 0 1
    outer loop
      vertex -2.009350481171238 -3.1662297206325563 0
      vertex -2.5496959589947585 -3.0820529711031575 0
      vertex -2.143307179915987 -3.37731170200806 0
    endloop
  endfacet
  facet normal 0 0 1
    outer loop
      vertex -2.733632352830294 -2.567051647232582 0
      vertex -3.23606797749979 -2.3511410091698925 0
      vertex -2.9158745096856467 -2.738188423714754 0
    endloop
  endfacet
  facet normal 0 0 1
    outer loop
      vertex -2.390339961557586 -2.88942466040921 0
      vertex -2.9158745096856467 -2.738188423714754 0
      vertex -2.5496959589947585 -3.0820529711031575 0
    endloop
  endfacet
  facet normal 0 0 1
    outer loop
      vertex -2.733632352830294 -2.567051647232582 0
      vertex -2.9158745096856467 -2.738188423714754 0
      vertex -2.390339961557586 -2.88942466040921 0
    endloop
  endfacet
  facet normal 0 0 1
    outer loop
      vertex -3.286150050164488 -1.8065762778814327 0
      vertex -3.719105943553006 -1.4724982107387115 0
      vertex -3.505226720175454 -1.9270146964068615 0
    endloop
  endfacet
  facet normal 0 0 1
    outer loop
      vertex -3.486661822080943 -1.380467072567542 0
      vertex -3.6321868542323665 -0.9325870768682056 0
      vertex -3.719105943553006 -1.4724982107387115 0
    endloop
  endfacet
  facet normal 0 0 1
    outer loop
      vertex -3.286150050164488 -1.8065762778814327 0
      vertex -3.505226720175454 -1.9270146964068615 0
      vertex -3.033813728906053 -2.204194696096774 0
    endloop
  endfacet
  facet normal 0 0 1
    outer loop
      vertex -3.486661822080943 -1.380467072567542 0
      vertex -3.719105943553006 -1.4724982107387115 0
      vertex -3.286150050164488 -1.8065762778814327 0
    endloop
  endfacet
  facet normal 0 0 1
    outer loop
      vertex -3.720430129929292 -0.46999962586614025 0
      vertex -3.8743326445145243 -0.9947595486594194 0
      vertex -3.719105943553006 -1.4724982107387115 0
    endloop
  endfacet
  facet normal 0 0 1
    outer loop
      vertex -3.6321868542323665 -0.9325870768682056 0
      vertex -3.720430129929292 -0.46999962586614025 0
      vertex -3.719105943553006 -1.4724982107387115 0
    endloop
  endfacet
  facet normal 0 0 1
    outer loop
      vertex -3.75 0 0
      vertex -3.9684588052579115 -0.5013329342572163 0
      vertex -3.8743326445145243 -0.9947595486594194 0
    endloop
  endfacet
  facet normal 0 0 1
    outer loop
      vertex -3.720430129929292 -0.46999962586614025 0
      vertex -3.75 0 0
      vertex -3.8743326445145243 -0.9947595486594194 0
    endloop
  endfacet
  facet normal 0 0 1
    outer loop
      vertex -2.009350481171238 -3.1662297206325563 0
      vertex -2.143307179915987 -3.37731170200806 0
      vertex -1.5966723433690215 -3.3931014467475733 0
    endloop
  endfacet
  facet normal 0 0 1
    outer loop
      vertex -1.5966723433690215 -3.3931014467475733 0
      vertex -2.143307179915987 -3.37731170200806 0
      vertex -1.7031171662602897 -3.6193082098640783 0
    endloop
  endfacet
  facet normal 0 0 1
    outer loop
      vertex -1.5966723433690215 -3.3931014467475733 0
      vertex -1.7031171662602897 -3.6193082098640783 0
      vertex -1.1588137289060527 -3.5664619361068257 0
    endloop
  endfacet
  facet normal 0 0 1
    outer loop
      vertex -1.1588137289060527 -3.5664619361068257 0
      vertex -1.7031171662602897 -3.6193082098640783 0
      vertex -1.2360679774997896 -3.804226065180614 0
    endloop
  endfacet
  facet normal 0 0 1
    outer loop
      vertex -1.1588137289060527 -3.5664619361068257 0
      vertex -1.2360679774997896 -3.804226065180614 0
      vertex -0.7026799296964681 -3.6835771902325822 0
    endloop
  endfacet
  facet normal 0 0 1
    outer loop
      vertex -0.7026799296964681 -3.6835771902325822 0
      vertex -1.2360679774997896 -3.804226065180614 0
      vertex -0.7495252583428993 -3.9291490029147544 0
    endloop
  endfacet
  facet normal 0 0 1
    outer loop
      vertex -0.7026799296964681 -3.6835771902325822 0
      vertex -0.7495252583428993 -3.9291490029147544 0
      vertex -0.23546444823492688 -3.7426002316060183 0
    endloop
  endfacet
  facet normal 0 0 1
    outer loop
      vertex -0.23546444823492688 -3.7426002316060183 0
      vertex -0.7495252583428993 -3.9291490029147544 0
      vertex -0.25116207811725527 -3.9921069137130862 0
    endloop
  endfacet
  facet normal 0 0 1
    outer loop
      vertex -0.23546444823492688 -3.7426002316060183 0
      vertex -0.25116207811725527 -3.9921069137130862 0
      vertex 0.2354644482349266 -3.7426002316060183 0
    endloop
  endfacet
  facet normal 0 0 1
    outer loop
      vertex -4 0 0
      vertex -3.9684588052579115 -0.5013329342572163 0
      vertex -3.9684588052579115 0.5013329342572163 0
    endloop
  endfacet
  facet normal 0 0 1
    outer loop
      vertex -3.9684588052579115 -0.5013329342572163 0
      vertex -3.8743326445145243 0.9947595486594194 0
      vertex -3.9684588052579115 0.5013329342572163 0
    endloop
  endfacet
  facet normal 0 0 1
    outer loop
      vertex -3.75 0 0
      vertex -3.719105943553006 1.4724982107387115 0
      vertex -3.9684588052579115 -0.5013329342572163 0
    endloop
  endfacet
  facet normal 0 0 1
    outer loop
      vertex -3.719105943553006 1.4724982107387115 0
      vertex -3.8743326445145243 0.9947595486594194 0
      vertex -3.9684588052579115 -0.5013329342572163 0
    endloop
  endfacet
  facet normal 0 0 1
    outer loop
      vertex -3.75 0 0
      vertex -3.720430129929292 0.46999962586614025 0
      vertex -3.719105943553006 1.4724982107387115 0
    endloop
  endfacet
  facet normal 0 0 1
    outer loop
      vertex -3.720430129929292 0.46999962586614025 0
      vertex -3.6321868542323665 0.9325870768682056 0
      vertex -3.505226720175454 1.9270146964068615 0
    endloop
  endfacet
  facet normal 0 0 1
    outer loop
      vertex -3.720430129929292 0.46999962586614025 0
      vertex -3.505226720175454 1.9270146964068615 0
      vertex -3.719105943553006 1.4724982107387115 0
    endloop
  endfacet
  facet normal 0 0 1
    outer loop
      vertex -3.6321868542323665 0.9325870768682056 0
      vertex -3.486661822080943 1.380467072567542 0
      vertex -3.505226720175454 1.9270146964068615 0
    endloop
  endfacet
  facet normal 0 0 1
    outer loop
      vertex -3.486661822080943 1.380467072567542 0
      vertex -3.286150050164488 1.8065762778814327 0
      vertex -3.505226720175454 1.9270146964068615 0
    endloop
  endfacet
  facet normal 0 0 1
    outer loop
      vertex -3.286150050164488 1.8065762778814327 0
      vertex -3.23606797749979 2.3511410091698925 0
      vertex -3.505226720175454 1.9270146964068615 0
    endloop
  endfacet
  facet normal 0 0 1
    outer loop
      vertex -3.286150050164488 1.8065762778814327 0
      vertex -3.033813728906053 2.204194696096774 0
      vertex -3.23606797749979 2.3511410091698925 0
    endloop
  endfacet
  facet normal 0 0 1
    outer loop
      vertex -3.033813728906053 2.204194696096774 0
      vertex -2.9158745096856467 2.738188423714754 0
      vertex -3.23606797749979 2.3511410091698925 0
    endloop
  endfacet
  facet normal 0 0 1
    outer loop
      vertex -3.033813728906053 2.204194696096774 0
      vertex -2.733632352830294 2.567051647232582 0
      vertex -2.9158745096856467 2.738188423714754 0
    endloop
  endfacet
  facet normal 0 0 1
    outer loop
      vertex -2.733632352830294 2.567051647232582 0
      vertex -2.5496959589947585 3.0820529711031575 0
      vertex -2.9158745096856467 2.738188423714754 0
    endloop
  endfacet
  facet normal 0 0 1
    outer loop
      vertex -2.733632352830294 2.567051647232582 0
      vertex -2.390339961557586 2.88942466040921 0
      vertex -2.5496959589947585 3.0820529711031575 0
    endloop
  endfacet
  facet normal 0 0 1
    outer loop
      vertex -2.390339961557586 2.88942466040921 0
      vertex -2.143307179915987 3.37731170200806 0
      vertex -2.5496959589947585 3.0820529711031575 0
    endloop
  endfacet
  facet normal 0 0 1
    outer loop
      vertex -2.390339961557586 2.88942466040921 0
      vertex -2.009350481171238 3.1662297206325563 0
      vertex -2.143307179915987 3.37731170200806 0
    endloop
  endfacet
  facet normal 0 0 1
    outer loop
      vertex -2.009350481171238 3.1662297206325563 0
      vertex -1.7031171662602909 3.619308209864078 0
      vertex -2.143307179915987 3.37731170200806 0
    endloop
  endfacet
  facet normal 0 0 1
    outer loop
      vertex -2.009350481171238 3.1662297206325563 0
      vertex -1.5966723433690226 3.393101446747573 0
      vertex -1.7031171662602909 3.619308209864078 0
    endloop
  endfacet
  facet normal 0 0 1
    outer loop
      vertex -1.5966723433690226 3.393101446747573 0
      vertex -1.2360679774997896 3.804226065180614 0
      vertex -1.7031171662602909 3.619308209864078 0
    endloop
  endfacet
  facet normal 0 0 1
    outer loop
      vertex -1.5966723433690226 3.393101446747573 0
      vertex -1.1588137289060527 3.5664619361068257 0
      vertex -1.2360679774997896 3.804226065180614 0
    endloop
  endfacet
  facet normal 0 0 1
    outer loop
      vertex -1.1588137289060527 3.5664619361068257 0
      vertex -0.7495252583428983 3.929149002914755 0
      vertex -1.2360679774997896 3.804226065180614 0
    endloop
  endfacet
  facet normal 0 0 1
    outer loop
      vertex -1.1588137289060527 3.5664619361068257 0
      vertex -0.7026799296964672 3.6835771902325827 0
      vertex -0.7495252583428983 3.929149002914755 0
    endloop
  endfacet
  facet normal 0 0 1
    outer loop
      vertex -0.7026799296964672 3.6835771902325827 0
      vertex -0.2511620781172531 3.9921069137130862 0
      vertex -0.7495252583428983 3.929149002914755 0
    endloop
  endfacet
  facet normal 0 0 1
    outer loop
      vertex -0.7026799296964672 3.6835771902325827 0
      vertex -0.2354644482349248 3.7426002316060183 0
      vertex -0.2511620781172531 3.9921069137130862 0
    endloop
  endfacet
  facet normal 0 0 1
    outer loop
      vertex -0.2354644482349248 3.7426002316060183 0
      vertex 0.2511620781172531 3.9921069137130862 0
      vertex -0.2511620781172531 3.9921069137130862 0
    endloop
  endfacet
  facet normal 0 0 1
    outer loop
      vertex 0.2354644482349266 -3.7426002316060183 0
      vertex -0.25116207811725527 -3.9921069137130862 0
      vertex 0.25116207811725505 -3.9921069137130862 0
    endloop
  endfacet
  facet normal 0 0 1
    outer loop
      vertex 0.2354644482349266 -3.7426002316060183 0
      vertex 0.25116207811725505 -3.9921069137130862 0
      vertex 0.7026799296964681 -3.6835771902325822 0
    endloop
  endfacet
  facet normal 0 0 1
    outer loop
      vertex 0.7026799296964681 -3.6835771902325822 0
      vertex 0.25116207811725505 -3.9921069137130862 0
      vertex 0.7495252583428993 -3.9291490029147544 0
    endloop
  endfacet
  facet normal 0 0 1
    outer loop
      vertex 0.7026799296964681 -3.6835771902325822 0
      vertex 0.7495252583428993 -3.9291490029147544 0
      vertex 1.1588137289060527 -3.5664619361068257 0
    endloop
  endfacet
  facet normal 0 0 1
    outer loop
      vertex 1.1588137289060527 -3.5664619361068257 0
      vertex 0.7495252583428993 -3.9291490029147544 0
      vertex 1.2360679774997896 -3.804226065180614 0
    endloop
  endfacet
  facet normal 0 0 1
    outer loop
      vertex 1.1588137289060527 -3.5664619361068257 0
      vertex 1.2360679774997896 -3.804226065180614 0
      vertex 1.5966723433690215 -3.3931014467475733 0
    endloop
  endfacet
  facet normal 0 0 1
    outer loop
      vertex 1.5966723433690215 -3.3931014467475733 0
      vertex 1.2360679774997896 -3.804226065180614 0
      vertex 1.7031171662602897 -3.6193082098640783 0
    endloop
  endfacet
  facet normal 0 0 1
    outer loop
      vertex 1.5966723433690215 -3.3931014467475733 0
      vertex 1.7031171662602897 -3.6193082098640783 0
      vertex 2.0093504811712357 -3.1662297206325576 0
    endloop
  endfacet
  facet normal 0 0 1
    outer loop
      vertex 2.0093504811712357 -3.1662297206325576 0
      vertex 1.7031171662602897 -3.6193082098640783 0
      vertex 2.143307179915985 -3.377311702008061 0
    endloop
  endfacet
  facet normal 0 0 1
    outer loop
      vertex 2.0093504811712357 -3.1662297206325576 0
      vertex 2.143307179915985 -3.377311702008061 0
      vertex 2.3903399615575873 -2.889424660409209 0
    endloop
  endfacet
  facet normal 0 0 1
    outer loop
      vertex 2.3903399615575873 -2.889424660409209 0
      vertex 2.143307179915985 -3.377311702008061 0
      vertex 2.54969595899476 -3.082052971103156 0
    endloop
  endfacet
  facet normal 0 0 1
    outer loop
      vertex 2.3903399615575873 -2.889424660409209 0
      vertex 2.54969595899476 -3.082052971103156 0
      vertex 2.733632352830294 -2.567051647232582 0
    endloop
  endfacet
  facet normal 0 0 1
    outer loop
      vertex 2.733632352830294 -2.567051647232582 0
      vertex 2.54969595899476 -3.082052971103156 0
      vertex 2.9158745096856467 -2.738188423714754 0
    endloop
  endfacet
  facet normal 0 0 1
    outer loop
      vertex 2.733632352830294 -2.567051647232582 0
      vertex 2.9158745096856467 -2.738188423714754 0
      vertex 3.033813728906053 -2.204194696096774 0
    endloop
  endfacet
  facet normal 0 0 1
    outer loop
      vertex 3.033813728906053 -2.204194696096774 0
      vertex 2.9158745096856467 -2.738188423714754 0
      vertex 3.23606797749979 -2.3511410091698925 0
    endloop
  endfacet
  facet normal 0 0 1
    outer loop
      vertex 3.033813728906053 -2.204194696096774 0
      vertex 3.23606797749979 -2.3511410091698925 0
      vertex 3.286150050164488 -1.8065762778814327 0
    endloop
  endfacet
  facet normal 0 0 1
    outer loop
      vertex 3.286150050164488 -1.8065762778814327 0
      vertex 3.23606797749979 -2.3511410091698925 0
      vertex 3.505226720175454 -1.9270146964068615 0
    endloop
  endfacet
  facet normal 0 0 1
    outer loop
      vertex 3.286150050164488 -1.8065762778814327 0
      vertex 3.505226720175454 -1.9270146964068615 0
      vertex 3.486661822080942 -1.3804670725675439 0
    endloop
  endfacet
  facet normal 0 0 1
    outer loop
      vertex 3.486661822080942 -1.3804670725675439 0
      vertex 3.505226720175454 -1.9270146964068615 0
      vertex 3.632186854232367 -0.9325870768682041 0
    endloop
  endfacet
  facet normal 0 0 1
    outer loop
      vertex 3.720430129929292 -0.46999962586614025 0
      vertex 3.505226720175454 -1.9270146964068615 0
      vertex 3.719105943553005 -1.4724982107387135 0
    endloop
  endfacet
  facet normal 0 0 1
    outer loop
      vertex 3.632186854232367 -0.9325870768682041 0
      vertex 3.505226720175454 -1.9270146964068615 0
      vertex 3.720430129929292 -0.46999962586614025 0
    endloop
  endfacet
  facet normal 0 0 1
    outer loop
      vertex 3.720430129929292 -0.46999962586614025 0
      vertex 3.719105943553005 -1.4724982107387135 0
      vertex 3.75 0 0
    endloop
  endfacet
  facet normal 0 0 1
    outer loop
      vertex 3.719105943553005 -1.4724982107387135 0
      vertex 3.8743326445145247 -0.9947595486594177 0
      vertex 3.9684588052579115 0.501332934257217 0
    endloop
  endfacet
  facet normal 0 0 1
    outer loop
      vertex 3.75 0 0
      vertex 3.719105943553005 -1.4724982107387135 0
      vertex 3.9684588052579115 0.501332934257217 0
    endloop
  endfacet
  facet normal 0 0 1
    outer loop
      vertex 3.8743326445145247 -0.9947595486594177 0
      vertex 3.9684588052579115 -0.5013329342572163 0
      vertex 3.9684588052579115 0.501332934257217 0
    endloop
  endfacet
  facet normal 0 0 1
    outer loop
      vertex -0.2354644482349248 3.7426002316060183 0
      vertex 0.2354644482349248 3.7426002316060183 0
      vertex 0.2511620781172531 3.9921069137130862 0
    endloop
  endfacet
  facet normal 0 0 1
    outer loop
      vertex 0.2354644482349248 3.7426002316060183 0
      vertex 0.7495252583428984 3.929149002914755 0
      vertex 0.2511620781172531 3.9921069137130862 0
    endloop
  endfacet
  facet normal 0 0 1
    outer loop
      vertex 0.7026799296964672 3.6835771902325827 0
      vertex 0.7495252583428984 3.929149002914755 0
      vertex 0.2354644482349248 3.7426002316060183 0
    endloop
  endfacet
  facet normal 0 0 1
    outer loop
      vertex 0.7026799296964672 3.6835771902325827 0
      vertex 1.2360679774997896 3.804226065180614 0
      vertex 0.7495252583428984 3.929149002914755 0
    endloop
  endfacet
  facet normal 0 0 1
    outer loop
      vertex 0.7026799296964672 3.6835771902325827 0
      vertex 1.1588137289060527 3.5664619361068257 0
      vertex 1.2360679774997896 3.804226065180614 0
    endloop
  endfacet
  facet normal 0 0 1
    outer loop
      vertex 1.1588137289060527 3.5664619361068257 0
      vertex 1.7031171662602909 3.619308209864078 0
      vertex 1.2360679774997896 3.804226065180614 0
    endloop
  endfacet
  facet normal 0 0 1
    outer loop
      vertex 1.1588137289060527 3.5664619361068257 0
      vertex 1.5966723433690226 3.393101446747573 0
      vertex 1.7031171662602909 3.619308209864078 0
    endloop
  endfacet
  facet normal 0 0 1
    outer loop
      vertex 1.5966723433690226 3.393101446747573 0
      vertex 2.1433071799159866 3.3773117020080603 0
      vertex 1.7031171662602909 3.619308209864078 0
    endloop
  endfacet
  facet normal 0 0 1
    outer loop
      vertex 1.5966723433690226 3.393101446747573 0
      vertex 2.0093504811712375 3.1662297206325567 0
      vertex 2.1433071799159866 3.3773117020080603 0
    endloop
  endfacet
  facet normal 0 0 1
    outer loop
      vertex 3.9684588052579115 -0.5013329342572163 0
      vertex 4 0 0
      vertex 3.9684588052579115 0.501332934257217 0
    endloop
  endfacet
  facet normal 0 0 1
    outer loop
      vertex 3.720430129929292 0.46999962586614097 0
      vertex 3.75 0 0
      vertex 3.8743326445145243 0.9947595486594192 0
    endloop
  endfacet
  facet normal 0 0 1
    outer loop
      vertex 3.75 0 0
      vertex 3.9684588052579115 0.501332934257217 0
      vertex 3.8743326445145243 0.9947595486594192 0
    endloop
  endfacet
  facet normal 0 0 1
    outer loop
      vertex 3.720430129929292 0.46999962586614097 0
      vertex 3.7191059435530054 1.472498210738712 0
      vertex 3.6321868542323665 0.9325870768682055 0
    endloop
  endfacet
  facet normal 0 0 1
    outer loop
      vertex 3.720430129929292 0.46999962586614097 0
      vertex 3.8743326445145243 0.9947595486594192 0
      vertex 3.7191059435530054 1.472498210738712 0
    endloop
  endfacet
  facet normal 0 0 1
    outer loop
      vertex 3.2861500501644882 1.8065762778814325 0
      vertex 3.4866618220809427 1.3804670725675423 0
      vertex 3.7191059435530054 1.472498210738712 0
    endloop
  endfacet
  facet normal 0 0 1
    outer loop
      vertex 3.033813728906053 2.204194696096774 0
      vertex 3.2861500501644882 1.8065762778814325 0
      vertex 3.5052267201754543 1.9270146964068613 0
    endloop
  endfacet
  facet normal 0 0 1
    outer loop
      vertex 3.6321868542323665 0.9325870768682055 0
      vertex 3.7191059435530054 1.472498210738712 0
      vertex 3.4866618220809427 1.3804670725675423 0
    endloop
  endfacet
  facet normal 0 0 1
    outer loop
      vertex 3.2861500501644882 1.8065762778814325 0
      vertex 3.7191059435530054 1.472498210738712 0
      vertex 3.5052267201754543 1.9270146964068613 0
    endloop
  endfacet
  facet normal 0 0 1
    outer loop
      vertex 2.3903399615575864 2.889424660409209 0
      vertex 2.7336323528302935 2.567051647232583 0
      vertex 2.915874509685646 2.738188423714755 0
    endloop
  endfacet
  facet normal 0 0 1
    outer loop
      vertex 2.3903399615575864 2.889424660409209 0
      vertex 2.915874509685646 2.738188423714755 0
      vertex 2.549695958994759 3.0820529711031566 0
    endloop
  endfacet
  facet normal 0 0 1
    outer loop
      vertex 2.7336323528302935 2.567051647232583 0
      vertex 3.23606797749979 2.3511410091698925 0
      vertex 2.915874509685646 2.738188423714755 0
    endloop
  endfacet
  facet normal 0 0 1
    outer loop
      vertex 2.0093504811712375 3.1662297206325567 0
      vertex 2.549695958994759 3.0820529711031566 0
      vertex 2.1433071799159866 3.3773117020080603 0
    endloop
  endfacet
  facet normal 0 0 1
    outer loop
      vertex 2.3903399615575864 2.889424660409209 0
      vertex 2.549695958994759 3.0820529711031566 0
      vertex 2.0093504811712375 3.1662297206325567 0
    endloop
  endfacet
  facet normal 0 0 1
    outer loop
      vertex 3.033813728906053 2.204194696096774 0
      vertex 3.23606797749979 2.3511410091698925 0
      vertex 2.7336323528302935 2.567051647232583 0
    endloop
  endfacet
  facet normal 0 0 1
    outer loop
      vertex 3.033813728906053 2.204194696096774 0
      vertex 3.5052267201754543 1.9270146964068613 0
      vertex 3.23606797749979 2.3511410091698925 0
    endloop
  endfacet
  facet normal -0.8443279255020154 -0.5358267949789962 0
    outer loop
      vertex -3.23606797749979 -2.3511410091698925 -3
      vertex -3.505226720175454 -1.9270146964068615 0
      vertex -3.505226720175454 -1.9270146964068615 -3
    endloop
  endfacet
  facet normal -0.7705132427757891 -0.6374239897486899 0
    outer loop
      vertex -3.23606797749979 -2.3511410091698925 -3
      vertex -2.9158745096856467 -2.738188423714754 -3
      vertex -3.23606797749979 -2.3511410091698925 0
    endloop
  endfacet
  facet normal -0.5877852522924727 -0.8090169943749478 0
    outer loop
      vertex -2.5496959589947585 -3.0820529711031575 -3
      vertex -2.143307179915987 -3.37731170200806 -3
      vertex -2.5496959589947585 -3.0820529711031575 0
    endloop
  endfacet
  facet normal -0.6845471059286891 -0.7289686274214111 0
    outer loop
      vertex -2.5496959589947585 -3.0820529711031575 -3
      vertex -2.9158745096856467 -2.738188423714754 0
      vertex -2.9158745096856467 -2.738188423714754 -3
    endloop
  endfacet
  facet normal 0 0 -1
    outer loop
      vertex -3.719105943553006 -1.4724982107387115 -3
      vertex -3.8743326445145243 -0.9947595486594194 -3
      vertex -3.719105943553006 1.4724982107387115 -3
    endloop
  endfacet
  facet normal 0 0 -1
    outer loop
      vertex -3.8743326445145243 -0.9947595486594194 -3
      vertex -3.9684588052579115 -0.5013329342572163 -3
      vertex -3.8743326445145243 0.9947595486594194 -3
    endloop
  endfacet
  facet normal 0 0 -1
    outer loop
      vertex -3.505226720175454 -1.9270146964068615 -3
      vertex -3.719105943553006 -1.4724982107387115 -3
      vertex -3.505226720175454 1.9270146964068615 -3
    endloop
  endfacet
  facet normal 0 0 -1
    outer loop
      vertex -3.23606797749979 -2.3511410091698925 -3
      vertex -3.505226720175454 -1.9270146964068615 -3
      vertex -3.23606797749979 2.3511410091698925 -3
    endloop
  endfacet
  facet normal 0 0 -1
    outer loop
      vertex -3.23606797749979 -2.3511410091698925 -3
      vertex -2.9158745096856467 2.738188423714754 -3
      vertex -2.9158745096856467 -2.738188423714754 -3
    endloop
  endfacet
  facet normal 0 0 -1
    outer loop
      vertex -2.143307179915987 -3.37731170200806 -3
      vertex -2.058239217398341 -0.5284660102253166 -3
      vertex -1.9757750325125343 -0.7822646744549404 -3
    endloop
  endfacet
  facet normal 0 0 -1
    outer loop
      vertex -2.5496959589947585 -3.0820529711031575 -3
      vertex -2.143307179915987 3.37731170200806 -3
      vertex -2.143307179915987 -3.37731170200806 -3
    endloop
  endfacet
  facet normal 0 0 -1
    outer loop
      vertex -2.143307179915987 -3.37731170200806 -3
      vertex -2.1082437402932657 -0.26633312132414616 -3
      vertex -2.058239217398341 -0.5284660102253166 -3
    endloop
  endfacet
  facet normal 0 0 -1
    outer loop
      vertex -2.143307179915987 -3.37731170200806 -3
      vertex -2.125 0 -3
      vertex -2.1082437402932657 -0.26633312132414616 -3
    endloop
  endfacet
  facet normal 0 0 -1
    outer loop
      vertex -2.5496959589947585 -3.0820529711031575 -3
      vertex -2.9158745096856467 -2.738188423714754 -3
      vertex -2.5496959589947585 3.0820529711031575 -3
    endloop
  endfacet
  facet normal -0.9048270524660192 -0.4257792915650731 0
    outer loop
      vertex -3.505226720175454 -1.9270146964068615 -3
      vertex -3.719105943553006 -1.4724982107387115 0
      vertex -3.719105943553006 -1.4724982107387115 -3
    endloop
  endfacet
  facet normal -0.9510565162951536 -0.30901699437494706 0
    outer loop
      vertex -3.719105943553006 -1.4724982107387115 -3
      vertex -3.8743326445145243 -0.9947595486594194 0
      vertex -3.8743326445145243 -0.9947595486594194 -3
    endloop
  endfacet
  facet normal -0.9822872507286886 -0.18738131458572496 0
    outer loop
      vertex -3.8743326445145243 -0.9947595486594194 -3
      vertex -3.9684588052579115 -0.5013329342572163 0
      vertex -3.9684588052579115 -0.5013329342572163 -3
    endloop
  endfacet
  facet normal -0.9980267284282717 -0.06279051952931311 0
    outer loop
      vertex -3.9684588052579115 -0.5013329342572163 -3
      vertex -4 0 0
      vertex -4 0 -3
    endloop
  endfacet
  facet normal 0 0 -1
    outer loop
      vertex -1.7031171662602897 -3.6193082098640783 -3
      vertex -1.138631939330368 -1.7941968416917817 -3
      vertex -1.2360679774997896 -3.804226065180614 -3
    endloop
  endfacet
  facet normal 0 0 -1
    outer loop
      vertex -2.143307179915987 -3.37731170200806 -3
      vertex -1.5490583332704997 -1.454662600098463 -3
      vertex -1.7031171662602897 -3.6193082098640783 -3
    endloop
  endfacet
  facet normal 0 0 -1
    outer loop
      vertex -2.143307179915987 -3.37731170200806 -3
      vertex -1.7191611130467632 -1.2490436611215054 -3
      vertex -1.5490583332704997 -1.454662600098463 -3
    endloop
  endfacet
  facet normal 0 0 -1
    outer loop
      vertex -1.7031171662602897 -3.6193082098640783 -3
      vertex -1.5490583332704997 -1.454662600098463 -3
      vertex -1.3545259782159655 -1.6373406408985525 -3
    endloop
  endfacet
  facet normal 0 0 -1
    outer loop
      vertex -1.2360679774997896 -3.804226065180614 -3
      vertex -1.138631939330368 -1.7941968416917817 -3
      vertex -0.904780994575779 -1.9227574864902917 -3
    endloop
  endfacet
  facet normal 0 0 -1
    outer loop
      vertex -1.7031171662602897 -3.6193082098640783 -3
      vertex -1.3545259782159655 -1.6373406408985525 -3
      vertex -1.138631939330368 -1.7941968416917817 -3
    endloop
  endfacet
  facet normal 0 0 -1
    outer loop
      vertex -1.2360679774997896 -3.804226065180614 -3
      vertex -0.6566611130467632 -2.020995097127201 -3
      vertex -0.7495252583428993 -3.9291490029147544 -3
    endloop
  endfacet
  facet normal 0 0 -1
    outer loop
      vertex -0.7495252583428993 -3.9291490029147544 -3
      vertex -0.13342985399979174 -2.120806797910077 -3
      vertex -0.25116207811725505 -3.9921069137130862 -3
    endloop
  endfacet
  facet normal 0 0 -1
    outer loop
      vertex -0.25116207811725505 -3.9921069137130862 -3
      vertex -0.13342985399979174 -2.120806797910077 -3
      vertex 0.25116207811725505 -3.9921069137130862 -3
    endloop
  endfacet
  facet normal 0 0 -1
    outer loop
      vertex -1.2360679774997896 -3.804226065180614 -3
      vertex -0.904780994575779 -1.9227574864902917 -3
      vertex -0.6566611130467632 -2.020995097127201 -3
    endloop
  endfacet
  facet normal 0 0 -1
    outer loop
      vertex -0.7495252583428993 -3.9291490029147544 -3
      vertex -0.6566611130467632 -2.020995097127201 -3
      vertex -0.39818529349466525 -2.0873604077984633 -3
    endloop
  endfacet
  facet normal 0 0 -1
    outer loop
      vertex -0.7495252583428993 -3.9291490029147544 -3
      vertex -0.39818529349466525 -2.0873604077984633 -3
      vertex -0.13342985399979174 -2.120806797910077 -3
    endloop
  endfacet
  facet normal -0.3681245526846778 -0.9297764858882515 0
    outer loop
      vertex -1.7031171662602897 -3.6193082098640783 -3
      vertex -1.2360679774997896 -3.804226065180614 -3
      vertex -1.7031171662602897 -3.6193082098640783 0
    endloop
  endfacet
  facet normal -0.481753674101715 -0.8763066800438636 0
    outer loop
      vertex -2.143307179915987 -3.37731170200806 -3
      vertex -1.7031171662602897 -3.6193082098640783 -3
      vertex -2.143307179915987 -3.37731170200806 0
    endloop
  endfacet
  facet normal -0.248689887164855 -0.9685831611286311 0
    outer loop
      vertex -1.2360679774997896 -3.804226065180614 -3
      vertex -0.7495252583428993 -3.9291490029147544 -3
      vertex -1.2360679774997896 -3.804226065180614 0
    endloop
  endfacet
  facet normal -0.12533323356430498 -0.9921147013144777 0
    outer loop
      vertex -0.7495252583428993 -3.9291490029147544 -3
      vertex -0.25116207811725505 -3.9921069137130862 -3
      vertex -0.7495252583428993 -3.9291490029147544 0
    endloop
  endfacet
  facet normal 0 -1 0
    outer loop
      vertex -0.25116207811725505 -3.9921069137130862 -3
      vertex 0.25116207811725505 -3.9921069137130862 -3
      vertex -0.25116207811725527 -3.9921069137130862 0
    endloop
  endfacet
  facet normal 0 0 -1
    outer loop
      vertex -2.143307179915987 -3.37731170200806 -3
      vertex -1.86215169509321 -1.0237265574661452 -3
      vertex -1.7191611130467632 -1.2490436611215054 -3
    endloop
  endfacet
  facet normal 0 0 -1
    outer loop
      vertex -2.143307179915987 -3.37731170200806 -3
      vertex -1.9757750325125343 -0.7822646744549404 -3
      vertex -1.86215169509321 -1.0237265574661452 -3
    endloop
  endfacet
  facet normal -0.7705132427757891 -0.6374239897486899 0
    outer loop
      vertex -2.9158745096856467 -2.738188423714754 -3
      vertex -2.9158745096856467 -2.738188423714754 0
      vertex -3.23606797749979 -2.3511410091698925 0
    endloop
  endfacet
  facet normal -0.8443279255020154 -0.5358267949789962 0
    outer loop
      vertex -3.23606797749979 -2.3511410091698925 -3
      vertex -3.23606797749979 -2.3511410091698925 0
      vertex -3.505226720175454 -1.9270146964068615 0
    endloop
  endfacet
  facet normal -0.5877852522924727 -0.8090169943749478 0
    outer loop
      vertex -2.143307179915987 -3.37731170200806 -3
      vertex -2.143307179915987 -3.37731170200806 0
      vertex -2.5496959589947585 -3.0820529711031575 0
    endloop
  endfacet
  facet normal -0.6845471059286891 -0.7289686274214111 0
    outer loop
      vertex -2.5496959589947585 -3.0820529711031575 -3
      vertex -2.5496959589947585 -3.0820529711031575 0
      vertex -2.9158745096856467 -2.738188423714754 0
    endloop
  endfacet
  facet normal -0.9048270524660192 -0.4257792915650731 0
    outer loop
      vertex -3.505226720175454 -1.9270146964068615 -3
      vertex -3.505226720175454 -1.9270146964068615 0
      vertex -3.719105943553006 -1.4724982107387115 0
    endloop
  endfacet
  facet normal -0.9510565162951536 -0.30901699437494706 0
    outer loop
      vertex -3.719105943553006 -1.4724982107387115 -3
      vertex -3.719105943553006 -1.4724982107387115 0
      vertex -3.8743326445145243 -0.9947595486594194 0
    endloop
  endfacet
  facet normal -0.9822872507286886 -0.18738131458572496 0
    outer loop
      vertex -3.8743326445145243 -0.9947595486594194 -3
      vertex -3.8743326445145243 -0.9947595486594194 0
      vertex -3.9684588052579115 -0.5013329342572163 0
    endloop
  endfacet
  facet normal -0.9980267284282717 -0.06279051952931311 0
    outer loop
      vertex -3.9684588052579115 -0.5013329342572163 -3
      vertex -3.9684588052579115 -0.5013329342572163 0
      vertex -4 0 0
    endloop
  endfacet
  facet normal -0.481753674101715 -0.8763066800438636 0
    outer loop
      vertex -1.7031171662602897 -3.6193082098640783 -3
      vertex -1.7031171662602897 -3.6193082098640783 0
      vertex -2.143307179915987 -3.37731170200806 0
    endloop
  endfacet
  facet normal -0.3681245526846778 -0.9297764858882515 0
    outer loop
      vertex -1.2360679774997896 -3.804226065180614 -3
      vertex -1.2360679774997896 -3.804226065180614 0
      vertex -1.7031171662602897 -3.6193082098640783 0
    endloop
  endfacet
  facet normal -0.248689887164855 -0.9685831611286311 0
    outer loop
      vertex -0.7495252583428993 -3.9291490029147544 -3
      vertex -0.7495252583428993 -3.9291490029147544 0
      vertex -1.2360679774997896 -3.804226065180614 0
    endloop
  endfacet
  facet normal -0.12533323356430504 -0.9921147013144778 -9.276522776920928e-18
    outer loop
      vertex -0.25116207811725505 -3.9921069137130862 -3
      vertex -0.25116207811725527 -3.9921069137130862 0
      vertex -0.7495252583428993 -3.9291490029147544 0
    endloop
  endfacet
  facet normal 0 0 -1
    outer loop
      vertex -3.9684588052579115 -0.5013329342572163 -3
      vertex -4 0 -3
      vertex -3.9684588052579115 0.5013329342572163 -3
    endloop
  endfacet
  facet normal 0 0 -1
    outer loop
      vertex -3.9684588052579115 -0.5013329342572163 -3
      vertex -3.9684588052579115 0.5013329342572163 -3
      vertex -3.8743326445145243 0.9947595486594194 -3
    endloop
  endfacet
  facet normal 0 0 -1
    outer loop
      vertex -3.8743326445145243 -0.9947595486594194 -3
      vertex -3.8743326445145243 0.9947595486594194 -3
      vertex -3.719105943553006 1.4724982107387115 -3
    endloop
  endfacet
  facet normal 0 0 -1
    outer loop
      vertex -3.719105943553006 -1.4724982107387115 -3
      vertex -3.719105943553006 1.4724982107387115 -3
      vertex -3.505226720175454 1.9270146964068615 -3
    endloop
  endfacet
  facet normal 0 0 -1
    outer loop
      vertex -3.505226720175454 -1.9270146964068615 -3
      vertex -3.505226720175454 1.9270146964068615 -3
      vertex -3.23606797749979 2.3511410091698925 -3
    endloop
  endfacet
  facet normal 0 0 -1
    outer loop
      vertex -3.23606797749979 -2.3511410091698925 -3
      vertex -3.23606797749979 2.3511410091698925 -3
      vertex -2.9158745096856467 2.738188423714754 -3
    endloop
  endfacet
  facet normal 0 0 -1
    outer loop
      vertex -2.143307179915987 -3.37731170200806 -3
      vertex -2.143307179915987 3.37731170200806 -3
      vertex -2.125 0 -3
    endloop
  endfacet
  facet normal 0 0 -1
    outer loop
      vertex -2.9158745096856467 -2.738188423714754 -3
      vertex -2.9158745096856467 2.738188423714754 -3
      vertex -2.5496959589947585 3.0820529711031575 -3
    endloop
  endfacet
  facet normal 0 0 -1
    outer loop
      vertex -2.5496959589947585 -3.0820529711031575 -3
      vertex -2.5496959589947585 3.0820529711031575 -3
      vertex -2.143307179915987 3.37731170200806 -3
    endloop
  endfacet
  facet normal 0 0 -1
    outer loop
      vertex -2.143307179915987 3.37731170200806 -3
      vertex -2.1082437402932657 0.26633312132414616 -3
      vertex -2.125 0 -3
    endloop
  endfacet
  facet normal 0 0 -1
    outer loop
      vertex -2.143307179915987 3.37731170200806 -3
      vertex -2.058239217398341 0.5284660102253166 -3
      vertex -2.1082437402932657 0.26633312132414616 -3
    endloop
  endfacet
  facet normal 0 0 -1
    outer loop
      vertex -2.143307179915987 3.37731170200806 -3
      vertex -1.9757750325125343 0.7822646744549404 -3
      vertex -2.058239217398341 0.5284660102253166 -3
    endloop
  endfacet
  facet normal -0.9980267284282717 0.06279051952931311 0
    outer loop
      vertex -4 0 -3
      vertex -3.9684588052579115 0.5013329342572163 0
      vertex -3.9684588052579115 0.5013329342572163 -3
    endloop
  endfacet
  facet normal -0.9822872507286886 0.18738131458572496 0
    outer loop
      vertex -3.9684588052579115 0.5013329342572163 -3
      vertex -3.8743326445145243 0.9947595486594194 0
      vertex -3.8743326445145243 0.9947595486594194 -3
    endloop
  endfacet
  facet normal -0.9510565162951536 0.30901699437494706 0
    outer loop
      vertex -3.8743326445145243 0.9947595486594194 -3
      vertex -3.719105943553006 1.4724982107387115 0
      vertex -3.719105943553006 1.4724982107387115 -3
    endloop
  endfacet
  facet normal -0.9048270524660192 0.4257792915650731 0
    outer loop
      vertex -3.719105943553006 1.4724982107387115 -3
      vertex -3.505226720175454 1.9270146964068615 0
      vertex -3.505226720175454 1.9270146964068615 -3
    endloop
  endfacet
  facet normal -0.8443279255020154 0.5358267949789962 0
    outer loop
      vertex -3.505226720175454 1.9270146964068615 -3
      vertex -3.23606797749979 2.3511410091698925 0
      vertex -3.23606797749979 2.3511410091698925 -3
    endloop
  endfacet
  facet normal -0.7705132427757891 0.6374239897486899 0
    outer loop
      vertex -3.23606797749979 2.3511410091698925 -3
      vertex -2.9158745096856467 2.738188423714754 0
      vertex -2.9158745096856467 2.738188423714754 -3
    endloop
  endfacet
  facet normal -0.6845471059286891 0.7289686274214111 0
    outer loop
      vertex -2.9158745096856467 2.738188423714754 -3
      vertex -2.5496959589947585 3.0820529711031575 0
      vertex -2.5496959589947585 3.0820529711031575 -3
    endloop
  endfacet
  facet normal -0.5877852522924727 0.8090169943749478 0
    outer loop
      vertex -2.5496959589947585 3.0820529711031575 -3
      vertex -2.143307179915987 3.37731170200806 0
      vertex -2.143307179915987 3.37731170200806 -3
    endloop
  endfacet
  facet normal 0 0 -1
    outer loop
      vertex -1.7031171662602909 3.619308209864078 -3
      vertex -1.86215169509321 1.0237265574661452 -3
      vertex -1.9757750325125343 0.7822646744549404 -3
    endloop
  endfacet
  facet normal 0 0 -1
    outer loop
      vertex -1.7031171662602909 3.619308209864078 -3
      vertex -1.7191611130467632 1.2490436611215054 -3
      vertex -1.86215169509321 1.0237265574661452 -3
    endloop
  endfacet
  facet normal 0 0 -1
    outer loop
      vertex -1.7031171662602909 3.619308209864078 -3
      vertex -1.5490583332704997 1.454662600098463 -3
      vertex -1.7191611130467632 1.2490436611215054 -3
    endloop
  endfacet
  facet normal 0 0 -1
    outer loop
      vertex -2.143307179915987 3.37731170200806 -3
      vertex -1.7031171662602909 3.619308209864078 -3
      vertex -1.9757750325125343 0.7822646744549404 -3
    endloop
  endfacet
  facet normal 0 0 -1
    outer loop
      vertex -1.2360679774997896 3.804226065180614 -3
      vertex -1.3545259782159655 1.6373406408985525 -3
      vertex -1.5490583332704997 1.454662600098463 -3
    endloop
  endfacet
  facet normal 0 0 -1
    outer loop
      vertex -1.2360679774997896 3.804226065180614 -3
      vertex -1.138631939330368 1.7941968416917817 -3
      vertex -1.3545259782159655 1.6373406408985525 -3
    endloop
  endfacet
  facet normal 0 0 -1
    outer loop
      vertex -1.7031171662602909 3.619308209864078 -3
      vertex -1.2360679774997896 3.804226065180614 -3
      vertex -1.5490583332704997 1.454662600098463 -3
    endloop
  endfacet
  facet normal 0 0 -1
    outer loop
      vertex -1.2360679774997896 3.804226065180614 -3
      vertex -0.9047809945757795 1.9227574864902914 -3
      vertex -1.138631939330368 1.7941968416917817 -3
    endloop
  endfacet
  facet normal 0 0 -1
    outer loop
      vertex -0.7495252583428983 3.929149002914755 -3
      vertex -0.6566611130467632 2.020995097127201 -3
      vertex -0.9047809945757795 1.9227574864902914 -3
    endloop
  endfacet
  facet normal 0 0 -1
    outer loop
      vertex -0.7495252583428983 3.929149002914755 -3
      vertex -0.3981852934946647 2.0873604077984633 -3
      vertex -0.6566611130467632 2.020995097127201 -3
    endloop
  endfacet
  facet normal 0 0 -1
    outer loop
      vertex -0.2511620781172531 3.9921069137130862 -3
      vertex -0.1334298539997907 2.120806797910077 -3
      vertex -0.3981852934946647 2.0873604077984633 -3
    endloop
  endfacet
  facet normal 0 0 -1
    outer loop
      vertex -0.2511620781172531 3.9921069137130862 -3
      vertex 0.13342985399979024 2.120806797910077 -3
      vertex -0.1334298539997907 2.120806797910077 -3
    endloop
  endfacet
  facet normal 0 0 -1
    outer loop
      vertex -1.2360679774997896 3.804226065180614 -3
      vertex -0.7495252583428983 3.929149002914755 -3
      vertex -0.9047809945757795 1.9227574864902914 -3
    endloop
  endfacet
  facet normal 0 0 -1
    outer loop
      vertex -0.7495252583428983 3.929149002914755 -3
      vertex -0.2511620781172531 3.9921069137130862 -3
      vertex -0.3981852934946647 2.0873604077984633 -3
    endloop
  endfacet
  facet normal -0.4817536741017153 0.8763066800438636 0
    outer loop
      vertex -2.143307179915987 3.37731170200806 -3
      vertex -1.7031171662602909 3.619308209864078 0
      vertex -1.7031171662602909 3.619308209864078 -3
    endloop
  endfacet
  facet normal -0.36812455268467786 0.9297764858882515 0
    outer loop
      vertex -1.7031171662602909 3.619308209864078 -3
      vertex -1.2360679774997896 3.804226065180614 0
      vertex -1.2360679774997896 3.804226065180614 -3
    endloop
  endfacet
  facet normal -0.24868988716485535 0.968583161128631 0
    outer loop
      vertex -1.2360679774997896 3.804226065180614 -3
      vertex -0.7495252583428983 3.929149002914755 0
      vertex -0.7495252583428983 3.929149002914755 -3
    endloop
  endfacet
  facet normal -0.12533323356430387 0.9921147013144779 0
    outer loop
      vertex -0.7495252583428983 3.929149002914755 -3
      vertex -0.2511620781172531 3.9921069137130862 0
      vertex -0.2511620781172531 3.9921069137130862 -3
    endloop
  endfacet
  facet normal -0.9980267284282717 0.06279051952931311 0
    outer loop
      vertex -4 0 -3
      vertex -4 0 0
      vertex -3.9684588052579115 0.5013329342572163 0
    endloop
  endfacet
  facet normal -0.9822872507286886 0.18738131458572496 0
    outer loop
      vertex -3.9684588052579115 0.5013329342572163 -3
      vertex -3.9684588052579115 0.5013329342572163 0
      vertex -3.8743326445145243 0.9947595486594194 0
    endloop
  endfacet
  facet normal -0.9510565162951536 0.30901699437494706 0
    outer loop
      vertex -3.8743326445145243 0.9947595486594194 -3
      vertex -3.8743326445145243 0.9947595486594194 0
      vertex -3.719105943553006 1.4724982107387115 0
    endloop
  endfacet
  facet normal -0.9048270524660192 0.4257792915650731 0
    outer loop
      vertex -3.719105943553006 1.4724982107387115 -3
      vertex -3.719105943553006 1.4724982107387115 0
      vertex -3.505226720175454 1.9270146964068615 0
    endloop
  endfacet
  facet normal -0.8443279255020154 0.5358267949789962 0
    outer loop
      vertex -3.505226720175454 1.9270146964068615 -3
      vertex -3.505226720175454 1.9270146964068615 0
      vertex -3.23606797749979 2.3511410091698925 0
    endloop
  endfacet
  facet normal -0.7705132427757891 0.6374239897486899 0
    outer loop
      vertex -3.23606797749979 2.3511410091698925 -3
      vertex -3.23606797749979 2.3511410091698925 0
      vertex -2.9158745096856467 2.738188423714754 0
    endloop
  endfacet
  facet normal -0.6845471059286891 0.7289686274214111 0
    outer loop
      vertex -2.9158745096856467 2.738188423714754 -3
      vertex -2.9158745096856467 2.738188423714754 0
      vertex -2.5496959589947585 3.0820529711031575 0
    endloop
  endfacet
  facet normal -0.5877852522924727 0.8090169943749478 0
    outer loop
      vertex -2.5496959589947585 3.0820529711031575 -3
      vertex -2.5496959589947585 3.0820529711031575 0
      vertex -2.143307179915987 3.37731170200806 0
    endloop
  endfacet
  facet normal -0.4817536741017153 0.8763066800438636 0
    outer loop
      vertex -2.143307179915987 3.37731170200806 -3
      vertex -2.143307179915987 3.37731170200806 0
      vertex -1.7031171662602909 3.619308209864078 0
    endloop
  endfacet
  facet normal -0.36812455268467786 0.9297764858882515 0
    outer loop
      vertex -1.7031171662602909 3.619308209864078 -3
      vertex -1.7031171662602909 3.619308209864078 0
      vertex -1.2360679774997896 3.804226065180614 0
    endloop
  endfacet
  facet normal -0.24868988716485535 0.968583161128631 0
    outer loop
      vertex -1.2360679774997896 3.804226065180614 -3
      vertex -1.2360679774997896 3.804226065180614 0
      vertex -0.7495252583428983 3.929149002914755 0
    endloop
  endfacet
  facet normal -0.12533323356430387 0.9921147013144779 0
    outer loop
      vertex -0.7495252583428983 3.929149002914755 -3
      vertex -0.7495252583428983 3.929149002914755 0
      vertex -0.2511620781172531 3.9921069137130862 0
    endloop
  endfacet
  facet normal 0 1 0
    outer loop
      vertex -0.2511620781172531 3.9921069137130862 -3
      vertex -0.2511620781172531 3.9921069137130862 0
      vertex 0.2511620781172531 3.9921069137130862 0
    endloop
  endfacet
  facet normal 0 0 -1
    outer loop
      vertex 0.25116207811725505 -3.9921069137130862 -3
      vertex 0.39818529349466525 -2.0873604077984633 -3
      vertex 0.7495252583428993 -3.9291490029147544 -3
    endloop
  endfacet
  facet normal 0 0 -1
    outer loop
      vertex 0.7495252583428993 -3.9291490029147544 -3
      vertex 0.904780994575779 -1.9227574864902917 -3
      vertex 1.2360679774997896 -3.804226065180614 -3
    endloop
  endfacet
  facet normal 0 0 -1
    outer loop
      vertex 0.25116207811725505 -3.9921069137130862 -3
      vertex -0.13342985399979174 -2.120806797910077 -3
      vertex 0.13342985399979174 -2.120806797910077 -3
    endloop
  endfacet
  facet normal 0 0 -1
    outer loop
      vertex 0.25116207811725505 -3.9921069137130862 -3
      vertex 0.13342985399979174 -2.120806797910077 -3
      vertex 0.39818529349466525 -2.0873604077984633 -3
    endloop
  endfacet
  facet normal 0 0 -1
    outer loop
      vertex 0.7495252583428993 -3.9291490029147544 -3
      vertex 0.39818529349466525 -2.0873604077984633 -3
      vertex 0.6566611130467632 -2.020995097127201 -3
    endloop
  endfacet
  facet normal 0 0 -1
    outer loop
      vertex 0.7495252583428993 -3.9291490029147544 -3
      vertex 0.6566611130467632 -2.020995097127201 -3
      vertex 0.904780994575779 -1.9227574864902917 -3
    endloop
  endfacet
  facet normal 0 0 -1
    outer loop
      vertex 1.2360679774997896 -3.804226065180614 -3
      vertex 0.904780994575779 -1.9227574864902917 -3
      vertex 1.138631939330367 -1.7941968416917824 -3
    endloop
  endfacet
  facet normal 0 0 -1
    outer loop
      vertex 1.2360679774997896 -3.804226065180614 -3
      vertex 1.5490583332704997 -1.454662600098463 -3
      vertex 1.7031171662602897 -3.6193082098640783 -3
    endloop
  endfacet
  facet normal 0 0 -1
    outer loop
      vertex 1.2360679774997896 -3.804226065180614 -3
      vertex 1.138631939330367 -1.7941968416917824 -3
      vertex 1.3545259782159662 -1.6373406408985516 -3
    endloop
  endfacet
  facet normal 0 0 -1
    outer loop
      vertex 1.2360679774997896 -3.804226065180614 -3
      vertex 1.3545259782159662 -1.6373406408985516 -3
      vertex 1.5490583332704997 -1.454662600098463 -3
    endloop
  endfacet
  facet normal 0 0 -1
    outer loop
      vertex 1.7031171662602897 -3.6193082098640783 -3
      vertex 1.9757750325125338 -0.7822646744549415 -3
      vertex 2.143307179915985 -3.377311702008061 -3
    endloop
  endfacet
  facet normal 0 0 -1
    outer loop
      vertex 1.7031171662602897 -3.6193082098640783 -3
      vertex 1.5490583332704997 -1.454662600098463 -3
      vertex 1.7191611130467632 -1.2490436611215054 -3
    endloop
  endfacet
  facet normal 0.12533323356430498 -0.9921147013144777 0
    outer loop
      vertex 0.25116207811725505 -3.9921069137130862 -3
      vertex 0.7495252583428993 -3.9291490029147544 -3
      vertex 0.25116207811725505 -3.9921069137130862 0
    endloop
  endfacet
  facet normal 0.248689887164855 -0.9685831611286311 0
    outer loop
      vertex 0.7495252583428993 -3.9291490029147544 -3
      vertex 1.2360679774997896 -3.804226065180614 -3
      vertex 0.7495252583428993 -3.9291490029147544 0
    endloop
  endfacet
  facet normal 0.3681245526846778 -0.9297764858882515 0
    outer loop
      vertex 1.2360679774997896 -3.804226065180614 -3
      vertex 1.7031171662602897 -3.6193082098640783 -3
      vertex 1.2360679774997896 -3.804226065180614 0
    endloop
  endfacet
  facet normal 0.4817536741017149 -0.8763066800438638 0
    outer loop
      vertex 1.7031171662602897 -3.6193082098640783 -3
      vertex 2.143307179915985 -3.377311702008061 -3
      vertex 1.7031171662602897 -3.6193082098640783 0
    endloop
  endfacet
  facet normal 0 0 -1
    outer loop
      vertex 1.7031171662602897 -3.6193082098640783 -3
      vertex 1.7191611130467632 -1.2490436611215054 -3
      vertex 1.86215169509321 -1.0237265574661452 -3
    endloop
  endfacet
  facet normal 0 0 -1
    outer loop
      vertex 1.7031171662602897 -3.6193082098640783 -3
      vertex 1.86215169509321 -1.0237265574661452 -3
      vertex 1.9757750325125338 -0.7822646744549415 -3
    endloop
  endfacet
  facet normal 0.5877852522924728 -0.8090169943749477 0
    outer loop
      vertex 2.143307179915985 -3.377311702008061 -3
      vertex 2.54969595899476 -3.082052971103156 -3
      vertex 2.143307179915985 -3.377311702008061 0
    endloop
  endfacet
  facet normal 0.6845471059286891 -0.7289686274214112 0
    outer loop
      vertex 2.54969595899476 -3.082052971103156 -3
      vertex 2.9158745096856467 -2.738188423714754 -3
      vertex 2.54969595899476 -3.082052971103156 0
    endloop
  endfacet
  facet normal 0.7705132427757891 -0.6374239897486899 0
    outer loop
      vertex 2.9158745096856467 -2.738188423714754 -3
      vertex 3.23606797749979 -2.3511410091698925 -3
      vertex 2.9158745096856467 -2.738188423714754 0
    endloop
  endfacet
  facet normal 0.8443279255020154 -0.5358267949789962 0
    outer loop
      vertex 3.23606797749979 -2.3511410091698925 -3
      vertex 3.505226720175454 -1.9270146964068615 -3
      vertex 3.23606797749979 -2.3511410091698925 0
    endloop
  endfacet
  facet normal 0 0 -1
    outer loop
      vertex 2.143307179915985 -3.377311702008061 -3
      vertex 1.9757750325125338 -0.7822646744549415 -3
      vertex 2.0582392173983415 -0.5284660102253157 -3
    endloop
  endfacet
  facet normal 0 0 -1
    outer loop
      vertex 2.143307179915985 -3.377311702008061 -3
      vertex 2.0582392173983415 -0.5284660102253157 -3
      vertex 2.1082437402932657 -0.26633312132414616 -3
    endloop
  endfacet
  facet normal 0 0 -1
    outer loop
      vertex 2.143307179915985 -3.377311702008061 -3
      vertex 2.1082437402932657 -0.26633312132414616 -3
      vertex 2.125 0 -3
    endloop
  endfacet
  facet normal 0 0 -1
    outer loop
      vertex 2.143307179915985 -3.377311702008061 -3
      vertex 2.549695958994759 3.0820529711031566 -3
      vertex 2.54969595899476 -3.082052971103156 -3
    endloop
  endfacet
  facet normal 0 0 -1
    outer loop
      vertex 2.54969595899476 -3.082052971103156 -3
      vertex 2.915874509685646 2.738188423714755 -3
      vertex 2.9158745096856467 -2.738188423714754 -3
    endloop
  endfacet
  facet normal 0 0 -1
    outer loop
      vertex 2.143307179915985 -3.377311702008061 -3
      vertex 2.125 0 -3
      vertex 2.1433071799159866 3.3773117020080603 -3
    endloop
  endfacet
  facet normal 0 0 -1
    outer loop
      vertex 2.9158745096856467 -2.738188423714754 -3
      vertex 3.23606797749979 2.3511410091698925 -3
      vertex 3.23606797749979 -2.3511410091698925 -3
    endloop
  endfacet
  facet normal 0 0 -1
    outer loop
      vertex 3.23606797749979 -2.3511410091698925 -3
      vertex 3.5052267201754543 1.9270146964068613 -3
      vertex 3.505226720175454 -1.9270146964068615 -3
    endloop
  endfacet
  facet normal 0 0 -1
    outer loop
      vertex 3.505226720175454 -1.9270146964068615 -3
      vertex 3.7191059435530054 1.472498210738712 -3
      vertex 3.719105943553005 -1.4724982107387135 -3
    endloop
  endfacet
  facet normal 0 0 -1
    outer loop
      vertex 3.719105943553005 -1.4724982107387135 -3
      vertex 3.8743326445145243 0.9947595486594192 -3
      vertex 3.8743326445145247 -0.9947595486594177 -3
    endloop
  endfacet
  facet normal 0 0 -1
    outer loop
      vertex 3.8743326445145247 -0.9947595486594177 -3
      vertex 3.9684588052579115 0.501332934257217 -3
      vertex 3.9684588052579115 -0.5013329342572163 -3
    endloop
  endfacet
  facet normal 0.9048270524660192 -0.4257792915650732 0
    outer loop
      vertex 3.505226720175454 -1.9270146964068615 -3
      vertex 3.719105943553005 -1.4724982107387135 -3
      vertex 3.505226720175454 -1.9270146964068615 0
    endloop
  endfacet
  facet normal 0.9510565162951536 -0.3090169943749474 0
    outer loop
      vertex 3.719105943553005 -1.4724982107387135 -3
      vertex 3.8743326445145247 -0.9947595486594177 -3
      vertex 3.719105943553005 -1.4724982107387135 0
    endloop
  endfacet
  facet normal 0.9822872507286887 -0.1873813145857247 0
    outer loop
      vertex 3.8743326445145247 -0.9947595486594177 -3
      vertex 3.9684588052579115 -0.5013329342572163 -3
      vertex 3.8743326445145247 -0.9947595486594177 0
    endloop
  endfacet
  facet normal 0.9980267284282717 -0.06279051952931311 0
    outer loop
      vertex 3.9684588052579115 -0.5013329342572163 -3
      vertex 4 0 -3
      vertex 3.9684588052579115 -0.5013329342572163 0
    endloop
  endfacet
  facet normal 0 -1 0
    outer loop
      vertex 0.25116207811725505 -3.9921069137130862 -3
      vertex 0.25116207811725505 -3.9921069137130862 0
      vertex -0.25116207811725527 -3.9921069137130862 0
    endloop
  endfacet
  facet normal 0.12533323356430498 -0.9921147013144777 0
    outer loop
      vertex 0.7495252583428993 -3.9291490029147544 -3
      vertex 0.7495252583428993 -3.9291490029147544 0
      vertex 0.25116207811725505 -3.9921069137130862 0
    endloop
  endfacet
  facet normal 0.248689887164855 -0.9685831611286311 0
    outer loop
      vertex 1.2360679774997896 -3.804226065180614 -3
      vertex 1.2360679774997896 -3.804226065180614 0
      vertex 0.7495252583428993 -3.9291490029147544 0
    endloop
  endfacet
  facet normal 0.3681245526846778 -0.9297764858882515 0
    outer loop
      vertex 1.7031171662602897 -3.6193082098640783 -3
      vertex 1.7031171662602897 -3.6193082098640783 0
      vertex 1.2360679774997896 -3.804226065180614 0
    endloop
  endfacet
  facet normal 0.4817536741017149 -0.8763066800438638 0
    outer loop
      vertex 2.143307179915985 -3.377311702008061 -3
      vertex 2.143307179915985 -3.377311702008061 0
      vertex 1.7031171662602897 -3.6193082098640783 0
    endloop
  endfacet
  facet normal 0.5877852522924728 -0.8090169943749477 0
    outer loop
      vertex 2.54969595899476 -3.082052971103156 -3
      vertex 2.54969595899476 -3.082052971103156 0
      vertex 2.143307179915985 -3.377311702008061 0
    endloop
  endfacet
  facet normal 0.6845471059286891 -0.7289686274214112 0
    outer loop
      vertex 2.9158745096856467 -2.738188423714754 -3
      vertex 2.9158745096856467 -2.738188423714754 0
      vertex 2.54969595899476 -3.082052971103156 0
    endloop
  endfacet
  facet normal 0.7705132427757891 -0.6374239897486899 0
    outer loop
      vertex 3.23606797749979 -2.3511410091698925 -3
      vertex 3.23606797749979 -2.3511410091698925 0
      vertex 2.9158745096856467 -2.738188423714754 0
    endloop
  endfacet
  facet normal 0.8443279255020154 -0.5358267949789962 0
    outer loop
      vertex 3.505226720175454 -1.9270146964068615 -3
      vertex 3.505226720175454 -1.9270146964068615 0
      vertex 3.23606797749979 -2.3511410091698925 0
    endloop
  endfacet
  facet normal 0.9048270524660192 -0.4257792915650732 0
    outer loop
      vertex 3.719105943553005 -1.4724982107387135 -3
      vertex 3.719105943553005 -1.4724982107387135 0
      vertex 3.505226720175454 -1.9270146964068615 0
    endloop
  endfacet
  facet normal 0.9510565162951536 -0.3090169943749474 0
    outer loop
      vertex 3.8743326445145247 -0.9947595486594177 -3
      vertex 3.8743326445145247 -0.9947595486594177 0
      vertex 3.719105943553005 -1.4724982107387135 0
    endloop
  endfacet
  facet normal 0.9822872507286887 -0.1873813145857247 0
    outer loop
      vertex 3.9684588052579115 -0.5013329342572163 -3
      vertex 3.9684588052579115 -0.5013329342572163 0
      vertex 3.8743326445145247 -0.9947595486594177 0
    endloop
  endfacet
  facet normal 0.9980267284282717 -0.06279051952931311 0
    outer loop
      vertex 4 0 -3
      vertex 4 0 0
      vertex 3.9684588052579115 -0.5013329342572163 0
    endloop
  endfacet
  facet normal 0 0 -1
    outer loop
      vertex 2.1433071799159866 3.3773117020080603 -3
      vertex 1.975775032512534 0.7822646744549407 -3
      vertex 1.8621516950932102 1.0237265574661452 -3
    endloop
  endfacet
  facet normal 0 0 -1
    outer loop
      vertex 2.1433071799159866 3.3773117020080603 -3
      vertex 1.8621516950932102 1.0237265574661452 -3
      vertex 1.7191611130467632 1.2490436611215054 -3
    endloop
  endfacet
  facet normal 0 0 -1
    outer loop
      vertex 0.7495252583428983 3.929149002914755 -3
      vertex 0.3981852934946647 2.0873604077984633 -3
      vertex 0.13342985399979024 2.120806797910077 -3
    endloop
  endfacet
  facet normal 0 0 -1
    outer loop
      vertex 0.7495252583428983 3.929149002914755 -3
      vertex 0.6566611130467632 2.020995097127201 -3
      vertex 0.3981852934946647 2.0873604077984633 -3
    endloop
  endfacet
  facet normal 0 0 -1
    outer loop
      vertex 1.2360679774997896 3.804226065180614 -3
      vertex 0.9047809945757795 1.9227574864902914 -3
      vertex 0.6566611130467632 2.020995097127201 -3
    endloop
  endfacet
  facet normal 0 0 -1
    outer loop
      vertex -0.2511620781172531 3.9921069137130862 -3
      vertex 0.2511620781172531 3.9921069137130862 -3
      vertex 0.13342985399979024 2.120806797910077 -3
    endloop
  endfacet
  facet normal 0 0 -1
    outer loop
      vertex 0.2511620781172531 3.9921069137130862 -3
      vertex 0.7495252583428983 3.929149002914755 -3
      vertex 0.13342985399979024 2.120806797910077 -3
    endloop
  endfacet
  facet normal 0 0 -1
    outer loop
      vertex 0.7495252583428983 3.929149002914755 -3
      vertex 1.2360679774997896 3.804226065180614 -3
      vertex 0.6566611130467632 2.020995097127201 -3
    endloop
  endfacet
  facet normal 0 0 -1
    outer loop
      vertex 1.7031171662602909 3.619308209864078 -3
      vertex 1.3545259782159658 1.637340640898552 -3
      vertex 1.1386319393303679 1.794196841691782 -3
    endloop
  endfacet
  facet normal 0 0 -1
    outer loop
      vertex 1.2360679774997896 3.804226065180614 -3
      vertex 1.1386319393303679 1.794196841691782 -3
      vertex 0.9047809945757795 1.9227574864902914 -3
    endloop
  endfacet
  facet normal 0 0 -1
    outer loop
      vertex 1.7031171662602909 3.619308209864078 -3
      vertex 1.5490583332704995 1.4546626000984635 -3
      vertex 1.3545259782159658 1.637340640898552 -3
    endloop
  endfacet
  facet normal 0 0 -1
    outer loop
      vertex 2.1433071799159866 3.3773117020080603 -3
      vertex 1.7191611130467632 1.2490436611215054 -3
      vertex 1.5490583332704995 1.4546626000984635 -3
    endloop
  endfacet
  facet normal 0 0 -1
    outer loop
      vertex 1.7031171662602909 3.619308209864078 -3
      vertex 2.1433071799159866 3.3773117020080603 -3
      vertex 1.5490583332704995 1.4546626000984635 -3
    endloop
  endfacet
  facet normal 0 0 -1
    outer loop
      vertex 1.2360679774997896 3.804226065180614 -3
      vertex 1.7031171662602909 3.619308209864078 -3
      vertex 1.1386319393303679 1.794196841691782 -3
    endloop
  endfacet
  facet normal 0 1 0
    outer loop
      vertex -0.2511620781172531 3.9921069137130862 -3
      vertex 0.2511620781172531 3.9921069137130862 0
      vertex 0.2511620781172531 3.9921069137130862 -3
    endloop
  endfacet
  facet normal 0.12533323356430387 0.9921147013144779 -4.6045259936811564e-18
    outer loop
      vertex 0.2511620781172531 3.9921069137130862 -3
      vertex 0.7495252583428984 3.929149002914755 0
      vertex 0.7495252583428983 3.929149002914755 -3
    endloop
  endfacet
  facet normal 0.24868988716485535 0.968583161128631 0
    outer loop
      vertex 0.7495252583428983 3.929149002914755 -3
      vertex 1.2360679774997896 3.804226065180614 0
      vertex 1.2360679774997896 3.804226065180614 -3
    endloop
  endfacet
  facet normal 0.481753674101715 0.8763066800438637 0
    outer loop
      vertex 1.7031171662602909 3.619308209864078 -3
      vertex 2.1433071799159866 3.3773117020080603 0
      vertex 2.1433071799159866 3.3773117020080603 -3
    endloop
  endfacet
  facet normal 0.36812455268467786 0.9297764858882515 0
    outer loop
      vertex 1.2360679774997896 3.804226065180614 -3
      vertex 1.7031171662602909 3.619308209864078 0
      vertex 1.7031171662602909 3.619308209864078 -3
    endloop
  endfacet
  facet normal 0 0 -1
    outer loop
      vertex 2.54969595899476 -3.082052971103156 -3
      vertex 2.549695958994759 3.0820529711031566 -3
      vertex 2.915874509685646 2.738188423714755 -3
    endloop
  endfacet
  facet normal 0 0 -1
    outer loop
      vertex 2.1433071799159866 3.3773117020080603 -3
      vertex 2.125 0 -3
      vertex 2.1082437402932657 0.26633312132414655 -3
    endloop
  endfacet
  facet normal 0 0 -1
    outer loop
      vertex 2.1433071799159866 3.3773117020080603 -3
      vertex 2.1082437402932657 0.26633312132414655 -3
      vertex 2.058239217398341 0.5284660102253165 -3
    endloop
  endfacet
  facet normal 0 0 -1
    outer loop
      vertex 2.143307179915985 -3.377311702008061 -3
      vertex 2.1433071799159866 3.3773117020080603 -3
      vertex 2.549695958994759 3.0820529711031566 -3
    endloop
  endfacet
  facet normal 0 0 -1
    outer loop
      vertex 2.1433071799159866 3.3773117020080603 -3
      vertex 2.058239217398341 0.5284660102253165 -3
      vertex 1.975775032512534 0.7822646744549407 -3
    endloop
  endfacet
  facet normal 0 0 -1
    outer loop
      vertex 2.9158745096856467 -2.738188423714754 -3
      vertex 2.915874509685646 2.738188423714755 -3
      vertex 3.23606797749979 2.3511410091698925 -3
    endloop
  endfacet
  facet normal 0 0 -1
    outer loop
      vertex 3.23606797749979 -2.3511410091698925 -3
      vertex 3.23606797749979 2.3511410091698925 -3
      vertex 3.5052267201754543 1.9270146964068613 -3
    endloop
  endfacet
  facet normal 0 0 -1
    outer loop
      vertex 3.505226720175454 -1.9270146964068615 -3
      vertex 3.5052267201754543 1.9270146964068613 -3
      vertex 3.7191059435530054 1.472498210738712 -3
    endloop
  endfacet
  facet normal 0 0 -1
    outer loop
      vertex 3.9684588052579115 -0.5013329342572163 -3
      vertex 3.9684588052579115 0.501332934257217 -3
      vertex 4 0 -3
    endloop
  endfacet
  facet normal 0 0 -1
    outer loop
      vertex 3.8743326445145247 -0.9947595486594177 -3
      vertex 3.8743326445145243 0.9947595486594192 -3
      vertex 3.9684588052579115 0.501332934257217 -3
    endloop
  endfacet
  facet normal 0 0 -1
    outer loop
      vertex 3.719105943553005 -1.4724982107387135 -3
      vertex 3.7191059435530054 1.472498210738712 -3
      vertex 3.8743326445145243 0.9947595486594192 -3
    endloop
  endfacet
  facet normal 0.9980267284282717 0.06279051952931301 0
    outer loop
      vertex 4 0 -3
      vertex 3.9684588052579115 0.501332934257217 -3
      vertex 4 0 0
    endloop
  endfacet
  facet normal 0.9822872507286886 0.18738131458572532 0
    outer loop
      vertex 3.9684588052579115 0.501332934257217 -3
      vertex 3.8743326445145243 0.9947595486594192 -3
      vertex 3.9684588052579115 0.501332934257217 0
    endloop
  endfacet
  facet normal 0.9510565162951536 0.3090169943749475 0
    outer loop
      vertex 3.8743326445145243 0.9947595486594192 -3
      vertex 3.7191059435530054 1.472498210738712 -3
      vertex 3.8743326445145243 0.9947595486594192 0
    endloop
  endfacet
  facet normal 0.9048270524660198 0.4257792915650722 0
    outer loop
      vertex 3.7191059435530054 1.472498210738712 -3
      vertex 3.5052267201754543 1.9270146964068613 -3
      vertex 3.7191059435530054 1.472498210738712 0
    endloop
  endfacet
  facet normal 0.6845471059286882 0.7289686274214121 0
    outer loop
      vertex 2.915874509685646 2.738188423714755 -3
      vertex 2.549695958994759 3.0820529711031566 -3
      vertex 2.915874509685646 2.738188423714755 0
    endloop
  endfacet
  facet normal 0.5877852522924736 0.8090169943749471 0
    outer loop
      vertex 2.1433071799159866 3.3773117020080603 -3
      vertex 2.549695958994759 3.0820529711031566 0
      vertex 2.549695958994759 3.0820529711031566 -3
    endloop
  endfacet
  facet normal 0.7705132427757894 0.6374239897486895 0
    outer loop
      vertex 2.915874509685646 2.738188423714755 -3
      vertex 3.23606797749979 2.3511410091698925 0
      vertex 3.23606797749979 2.3511410091698925 -3
    endloop
  endfacet
  facet normal 0.8443279255020151 0.5358267949789965 0
    outer loop
      vertex 3.5052267201754543 1.9270146964068613 -3
      vertex 3.23606797749979 2.3511410091698925 -3
      vertex 3.5052267201754543 1.9270146964068613 0
    endloop
  endfacet
  facet normal 0.12533323356430384 0.9921147013144779 0
    outer loop
      vertex 0.2511620781172531 3.9921069137130862 -3
      vertex 0.2511620781172531 3.9921069137130862 0
      vertex 0.7495252583428984 3.929149002914755 0
    endloop
  endfacet
  facet normal 0.24868988716485543 0.968583161128631 -9.203374624061823e-18
    outer loop
      vertex 0.7495252583428983 3.929149002914755 -3
      vertex 0.7495252583428984 3.929149002914755 0
      vertex 1.2360679774997896 3.804226065180614 0
    endloop
  endfacet
  facet normal 0.36812455268467786 0.9297764858882515 0
    outer loop
      vertex 1.2360679774997896 3.804226065180614 -3
      vertex 1.2360679774997896 3.804226065180614 0
      vertex 1.7031171662602909 3.619308209864078 0
    endloop
  endfacet
  facet normal 0.481753674101715 0.8763066800438637 0
    outer loop
      vertex 1.7031171662602909 3.619308209864078 -3
      vertex 1.7031171662602909 3.619308209864078 0
      vertex 2.1433071799159866 3.3773117020080603 0
    endloop
  endfacet
  facet normal 0.9980267284282717 0.06279051952931301 0
    outer loop
      vertex 3.9684588052579115 0.501332934257217 -3
      vertex 3.9684588052579115 0.501332934257217 0
      vertex 4 0 0
    endloop
  endfacet
  facet normal 0.9822872507286886 0.18738131458572532 0
    outer loop
      vertex 3.8743326445145243 0.9947595486594192 -3
      vertex 3.8743326445145243 0.9947595486594192 0
      vertex 3.9684588052579115 0.501332934257217 0
    endloop
  endfacet
  facet normal 0.9510565162951536 0.3090169943749475 0
    outer loop
      vertex 3.7191059435530054 1.472498210738712 -3
      vertex 3.7191059435530054 1.472498210738712 0
      vertex 3.8743326445145243 0.9947595486594192 0
    endloop
  endfacet
  facet normal 0.9048270524660198 0.4257792915650722 0
    outer loop
      vertex 3.5052267201754543 1.9270146964068613 -3
      vertex 3.5052267201754543 1.9270146964068613 0
      vertex 3.7191059435530054 1.472498210738712 0
    endloop
  endfacet
  facet normal 0.6845471059286882 0.7289686274214121 0
    outer loop
      vertex 2.549695958994759 3.0820529711031566 -3
      vertex 2.549695958994759 3.0820529711031566 0
      vertex 2.915874509685646 2.738188423714755 0
    endloop
  endfacet
  facet normal 0.5877852522924736 0.8090169943749471 0
    outer loop
      vertex 2.1433071799159866 3.3773117020080603 -3
      vertex 2.1433071799159866 3.3773117020080603 0
      vertex 2.549695958994759 3.0820529711031566 0
    endloop
  endfacet
  facet normal 0.8443279255020151 0.5358267949789965 0
    outer loop
      vertex 3.23606797749979 2.3511410091698925 -3
      vertex 3.23606797749979 2.3511410091698925 0
      vertex 3.5052267201754543 1.9270146964068613 0
    endloop
  endfacet
  facet normal 0.7705132427757894 0.6374239897486895 0
    outer loop
      vertex 2.915874509685646 2.738188423714755 -3
      vertex 2.915874509685646 2.738188423714755 0
      vertex 3.23606797749979 2.3511410091698925 0
    endloop
  endfacet
endsolid OpenSCAD_Model
