solid OpenSCAD_Model
  facet normal -0.8443279255020151 -0.5358267949789965 0
    outer loop
      vertex -10.112712429686843 -7.347315653655914 -3
      vertex -10.953833500548294 -6.021920926271442 0
      vertex -10.953833500548294 -6.021920926271442 -3
    endloop
  endfacet
  facet normal -0.7705132427757891 -0.6374239897486897 0
    outer loop
      vertex -10.112712429686843 -7.347315653655914 -3
      vertex -9.112107842767646 -8.556838824108606 -3
      vertex -10.112712429686843 -7.347315653655914 0
    endloop
  endfacet
  facet normal -0.5877852522924725 -0.8090169943749479 0
    outer loop
      vertex -7.96779987185862 -9.631415534697368 -3
      vertex -6.6978349372374595 -10.554099068775187 -3
      vertex -6.6978349372374595 -10.554099068775187 0
    endloop
  endfacet
  facet normal -0.6845471059286893 -0.7289686274214109 0
    outer loop
      vertex -7.96779987185862 -9.631415534697368 -3
      vertex -7.96779987185862 -9.631415534697368 0
      vertex -9.112107842767646 -8.556838824108606 -3
    endloop
  endfacet
  facet normal 0 0 -1
    outer loop
      vertex -11.622206073603143 -4.601556908558473 -3
      vertex -12.107289514107888 -3.1086235895606857 -3
      vertex -11.622206073603143 4.601556908558473 -3
    endloop
  endfacet
  facet normal 0 0 -1
    outer loop
      vertex -12.107289514107888 -3.1086235895606857 -3
      vertex -12.401433766430973 -1.5666654195538008 -3
      vertex -12.107289514107888 3.1086235895606857 -3
    endloop
  endfacet
  facet normal 0 0 -1
    outer loop
      vertex -10.953833500548294 -6.021920926271442 -3
      vertex -11.622206073603143 -4.601556908558473 -3
      vertex -10.953833500548294 6.021920926271442 -3
    endloop
  endfacet
  facet normal 0 0 -1
    outer loop
      vertex -10.112712429686843 -7.347315653655914 -3
      vertex -10.953833500548294 -6.021920926271442 -3
      vertex -10.112712429686843 7.347315653655914 -3
    endloop
  endfacet
  facet normal 0 0 -1
    outer loop
      vertex -10.112712429686843 -7.347315653655914 -3
      vertex -9.112107842767646 8.556838824108606 -3
      vertex -9.112107842767646 -8.556838824108606 -3
    endloop
  endfacet
  facet normal 0 0 -1
    outer loop
      vertex -7.96779987185862 -9.631415534697368 -3
      vertex -6.6978349372374595 10.554099068775187 -3
      vertex -6.6978349372374595 -10.554099068775187 -3
    endloop
  endfacet
  facet normal 0 0 -1
    outer loop
      vertex -7.96779987185862 -9.631415534697368 -3
      vertex -9.112107842767646 -8.556838824108606 -3
      vertex -7.96779987185862 9.631415534697368 -3
    endloop
  endfacet
  facet normal -0.9048270524660194 -0.42577929156507294 0
    outer loop
      vertex -10.953833500548294 -6.021920926271442 -3
      vertex -11.622206073603143 -4.601556908558473 0
      vertex -11.622206073603143 -4.601556908558473 -3
    endloop
  endfacet
  facet normal -0.9510565162951538 -0.309016994374947 0
    outer loop
      vertex -11.622206073603143 -4.601556908558473 -3
      vertex -12.107289514107888 -3.1086235895606857 0
      vertex -12.107289514107888 -3.1086235895606857 -3
    endloop
  endfacet
  facet normal -0.9822872507286888 -0.1873813145857246 0
    outer loop
      vertex -12.107289514107888 -3.1086235895606857 -3
      vertex -12.401433766430973 -1.5666654195538008 0
      vertex -12.401433766430973 -1.5666654195538008 -3
    endloop
  endfacet
  facet normal -0.9980267284282716 -0.0627905195293135 0
    outer loop
      vertex -12.401433766430973 -1.5666654195538008 -3
      vertex -12.5 0 0
      vertex -12.5 0 -3
    endloop
  endfacet
  facet normal 0 0 -1
    outer loop
      vertex -2.3422664323215603 -12.278590634108607 -3
      vertex -0.2171102963725118 -3.4508693417577545 -3
      vertex -0.784881494116422 -12.475334105353394 -3
    endloop
  endfacet
  facet normal 0 0 -1
    outer loop
      vertex -3.8627124296868423 -11.888206453689419 -3
      vertex -2.2040160260925847 -2.6641977125209024 -3
      vertex -2.3422664323215603 -12.278590634108607 -3
    endloop
  endfacet
  facet normal 0 0 -1
    outer loop
      vertex -2.3422664323215603 -12.278590634108607 -3
      vertex -1.0684856843964528 -3.2884608005743963 -3
      vertex -0.6479069300483331 -3.396447070788812 -3
    endloop
  endfacet
  facet normal 0 0 -1
    outer loop
      vertex -2.3422664323215603 -12.278590634108607 -3
      vertex -0.6479069300483331 -3.396447070788812 -3
      vertex -0.2171102963725118 -3.4508693417577545 -3
    endloop
  endfacet
  facet normal 0 0 -1
    outer loop
      vertex -0.784881494116422 -12.475334105353394 -3
      vertex -0.2171102963725118 -3.4508693417577545 -3
      vertex 0.21711029637251184 -3.4508693417577545 -3
    endloop
  endfacet
  facet normal -0.48175367410171477 -0.8763066800438639 0
    outer loop
      vertex -6.6978349372374595 -10.554099068775187 -3
      vertex -5.322241144563406 -11.310338155825244 -3
      vertex -5.322241144563406 -11.310338155825244 0
    endloop
  endfacet
  facet normal -0.368124552684678 -0.9297764858882516 0
    outer loop
      vertex -5.322241144563406 -11.310338155825244 -3
      vertex -3.8627124296868423 -11.888206453689419 -3
      vertex -3.8627124296868423 -11.888206453689419 0
    endloop
  endfacet
  facet normal -0.24868988716485482 -0.9685831611286312 0
    outer loop
      vertex -3.8627124296868423 -11.888206453689419 -3
      vertex -2.3422664323215603 -12.278590634108607 -3
      vertex -2.3422664323215603 -12.278590634108607 0
    endloop
  endfacet
  facet normal -0.12533323356430498 -0.9921147013144779 0
    outer loop
      vertex -2.3422664323215603 -12.278590634108607 -3
      vertex -0.784881494116422 -12.475334105353394 -3
      vertex -0.784881494116422 -12.475334105353394 0
    endloop
  endfacet
  facet normal 0 0 -1
    outer loop
      vertex -6.6978349372374595 -10.554099068775187 -3
      vertex -5.322241144563409 11.310338155825244 -3
      vertex -5.322241144563406 -11.310338155825244 -3
    endloop
  endfacet
  facet normal 0 0 -1
    outer loop
      vertex -3.8627124296868423 -11.888206453689419 -3
      vertex -3.0299988667670505 -1.6657559731440084 -3
      vertex -2.7973318382426067 -2.032380545426667 -3
    endloop
  endfacet
  facet normal 0 0 -1
    outer loop
      vertex -3.8627124296868423 -11.888206453689419 -3
      vertex -3.2148810031289927 -1.2728614340904825 -3
      vertex -3.0299988667670505 -1.6657559731440084 -3
    endloop
  endfacet
  facet normal 0 0 -1
    outer loop
      vertex -5.322241144563406 -11.310338155825244 -3
      vertex -3.8627124296868423 11.888206453689419 -3
      vertex -3.8627124296868423 -11.888206453689419 -3
    endloop
  endfacet
  facet normal 0 0 -1
    outer loop
      vertex -3.8627124296868423 -11.888206453689419 -3
      vertex -3.4304273710835216 -0.43336375759349754 -3
      vertex -3.3490625455947667 -0.8598931098507866 -3
    endloop
  endfacet
  facet normal 0 0 -1
    outer loop
      vertex -3.8627124296868423 -11.888206453689419 -3
      vertex -3.457692307692308 0 -3
      vertex -3.4304273710835216 -0.43336375759349754 -3
    endloop
  endfacet
  facet normal 0 0 -1
    outer loop
      vertex -3.8627124296868423 -11.888206453689419 -3
      vertex -3.3490625455947667 -0.8598931098507866 -3
      vertex -3.2148810031289927 -1.2728614340904825 -3
    endloop
  endfacet
  facet normal 0 0 -1
    outer loop
      vertex -3.8627124296868423 -11.888206453689419 -3
      vertex -2.520549215584035 -2.3669532624226575 -3
      vertex -2.2040160260925847 -2.6641977125209024 -3
    endloop
  endfacet
  facet normal 0 0 -1
    outer loop
      vertex -3.8627124296868423 -11.888206453689419 -3
      vertex -2.7973318382426067 -2.032380545426667 -3
      vertex -2.520549215584035 -2.3669532624226575 -3
    endloop
  endfacet
  facet normal 0 0 -1
    outer loop
      vertex -2.3422664323215603 -12.278590634108607 -3
      vertex -2.2040160260925847 -2.6641977125209024 -3
      vertex -1.8527241872543003 -2.919426173178121 -3
    endloop
  endfacet
  facet normal 0 0 -1
    outer loop
      vertex -2.3422664323215603 -12.278590634108607 -3
      vertex -1.8527241872543003 -2.919426173178121 -3
      vertex -1.472213781219231 -3.1286135391036605 -3
    endloop
  endfacet
  facet normal 0 0 -1
    outer loop
      vertex -2.3422664323215603 -12.278590634108607 -3
      vertex -1.472213781219231 -3.1286135391036605 -3
      vertex -1.0684856843964528 -3.2884608005743963 -3
    endloop
  endfacet
  facet normal -0.7705132427757891 -0.6374239897486897 0
    outer loop
      vertex -9.112107842767646 -8.556838824108606 -3
      vertex -9.112107842767646 -8.556838824108606 0
      vertex -10.112712429686843 -7.347315653655914 0
    endloop
  endfacet
  facet normal -0.8443279255020151 -0.5358267949789965 0
    outer loop
      vertex -10.112712429686843 -7.347315653655914 -3
      vertex -10.112712429686843 -7.347315653655914 0
      vertex -10.953833500548294 -6.021920926271442 0
    endloop
  endfacet
  facet normal -0.5877852522924725 -0.8090169943749479 0
    outer loop
      vertex -7.96779987185862 -9.631415534697368 -3
      vertex -6.6978349372374595 -10.554099068775187 0
      vertex -7.96779987185862 -9.631415534697368 0
    endloop
  endfacet
  facet normal -0.6845471059286893 -0.7289686274214109 0
    outer loop
      vertex -9.112107842767646 -8.556838824108606 -3
      vertex -7.96779987185862 -9.631415534697368 0
      vertex -9.112107842767646 -8.556838824108606 0
    endloop
  endfacet
  facet normal -0.9048270524660194 -0.42577929156507294 0
    outer loop
      vertex -10.953833500548294 -6.021920926271442 -3
      vertex -10.953833500548294 -6.021920926271442 0
      vertex -11.622206073603143 -4.601556908558473 0
    endloop
  endfacet
  facet normal -0.9510565162951538 -0.309016994374947 0
    outer loop
      vertex -11.622206073603143 -4.601556908558473 -3
      vertex -11.622206073603143 -4.601556908558473 0
      vertex -12.107289514107888 -3.1086235895606857 0
    endloop
  endfacet
  facet normal -0.9822872507286888 -0.1873813145857246 0
    outer loop
      vertex -12.107289514107888 -3.1086235895606857 -3
      vertex -12.107289514107888 -3.1086235895606857 0
      vertex -12.401433766430973 -1.5666654195538008 0
    endloop
  endfacet
  facet normal -0.9980267284282716 -0.0627905195293135 0
    outer loop
      vertex -12.401433766430973 -1.5666654195538008 -3
      vertex -12.401433766430973 -1.5666654195538008 0
      vertex -12.5 0 0
    endloop
  endfacet
  facet normal 0 0 1
    outer loop
      vertex -10.953833500548294 -6.021920926271442 0
      vertex -11.622206073603143 4.601556908558473 0
      vertex -11.622206073603143 -4.601556908558473 0
    endloop
  endfacet
  facet normal 0 0 1
    outer loop
      vertex -12.107289514107888 -3.1086235895606857 0
      vertex -12.401433766430973 1.5666654195538008 0
      vertex -12.401433766430973 -1.5666654195538008 0
    endloop
  endfacet
  facet normal 0 0 1
    outer loop
      vertex -11.622206073603143 -4.601556908558473 0
      vertex -12.107289514107888 3.1086235895606857 0
      vertex -12.107289514107888 -3.1086235895606857 0
    endloop
  endfacet
  facet normal 0 0 1
    outer loop
      vertex -10.112712429686843 -7.347315653655914 0
      vertex -10.953833500548294 6.021920926271442 0
      vertex -10.953833500548294 -6.021920926271442 0
    endloop
  endfacet
  facet normal 0 0 1
    outer loop
      vertex -10.112712429686843 -7.347315653655914 0
      vertex -9.112107842767646 -8.556838824108606 0
      vertex -10.112712429686843 7.347315653655914 0
    endloop
  endfacet
  facet normal 0 0 1
    outer loop
      vertex -7.96779987185862 -9.631415534697368 0
      vertex -9.112107842767646 8.556838824108606 0
      vertex -9.112107842767646 -8.556838824108606 0
    endloop
  endfacet
  facet normal 0 0 1
    outer loop
      vertex -7.96779987185862 -9.631415534697368 0
      vertex -6.6978349372374595 -10.554099068775187 0
      vertex -7.96779987185862 9.631415534697368 0
    endloop
  endfacet
  facet normal -0.368124552684678 -0.9297764858882516 0
    outer loop
      vertex -5.322241144563406 -11.310338155825244 -3
      vertex -3.8627124296868423 -11.888206453689419 0
      vertex -5.322241144563406 -11.310338155825244 0
    endloop
  endfacet
  facet normal -0.48175367410171477 -0.8763066800438639 0
    outer loop
      vertex -6.6978349372374595 -10.554099068775187 -3
      vertex -5.322241144563406 -11.310338155825244 0
      vertex -6.6978349372374595 -10.554099068775187 0
    endloop
  endfacet
  facet normal -0.24868988716485482 -0.9685831611286312 0
    outer loop
      vertex -3.8627124296868423 -11.888206453689419 -3
      vertex -2.3422664323215603 -12.278590634108607 0
      vertex -3.8627124296868423 -11.888206453689419 0
    endloop
  endfacet
  facet normal -0.12533323356430498 -0.9921147013144779 0
    outer loop
      vertex -2.3422664323215603 -12.278590634108607 -3
      vertex -0.784881494116422 -12.475334105353394 0
      vertex -2.3422664323215603 -12.278590634108607 0
    endloop
  endfacet
  facet normal 0 -1 0
    outer loop
      vertex -0.784881494116422 -12.475334105353394 -3
      vertex 0.784881494116422 -12.475334105353394 0
      vertex -0.784881494116422 -12.475334105353394 0
    endloop
  endfacet
  facet normal 0 0 1
    outer loop
      vertex -5.322241144563406 -11.310338155825244 0
      vertex -3.8627124296868423 -11.888206453689419 0
      vertex -4.732056072236863 -2.6014698401492633 0
    endloop
  endfacet
  facet normal 0 0 1
    outer loop
      vertex -3.8627124296868423 -11.888206453689419 0
      vertex -3.9364305880756234 -3.6965543720149183 0
      vertex -4.368691769624717 -3.174040362379355 0
    endloop
  endfacet
  facet normal 0 0 1
    outer loop
      vertex -3.8627124296868423 -11.888206453689419 0
      vertex -3.4420895446429243 -4.160771510989263 0
      vertex -3.9364305880756234 -3.6965543720149183 0
    endloop
  endfacet
  facet normal 0 0 1
    outer loop
      vertex -3.8627124296868423 -11.888206453689419 0
      vertex -2.8934646928865826 -4.559370797710881 0
      vertex -3.4420895446429243 -4.160771510989263 0
    endloop
  endfacet
  facet normal 0 0 1
    outer loop
      vertex -3.8627124296868423 -11.888206453689419 0
      vertex -2.3422664323215603 -12.278590634108607 0
      vertex -2.8934646928865826 -4.559370797710881 0
    endloop
  endfacet
  facet normal 0 0 1
    outer loop
      vertex -2.3422664323215603 -12.278590634108607 0
      vertex -0.784881494116422 -12.475334105353394 0
      vertex -1.668691769624716 -5.135705187993829 0
    endloop
  endfacet
  facet normal 0 0 1
    outer loop
      vertex -2.3422664323215603 -12.278590634108607 0
      vertex -2.2992081744513913 -4.886066083316506 0
      vertex -2.8934646928865826 -4.559370797710881 0
    endloop
  endfacet
  facet normal 0 0 1
    outer loop
      vertex -2.3422664323215603 -12.278590634108607 0
      vertex -1.668691769624716 -5.135705187993829 0
      vertex -2.2992081744513913 -4.886066083316506 0
    endloop
  endfacet
  facet normal 0 0 1
    outer loop
      vertex -0.784881494116422 -12.475334105353394 0
      vertex -1.0118590987629141 -5.304351153934919 0
      vertex -1.668691769624716 -5.135705187993829 0
    endloop
  endfacet
  facet normal 0 0 1
    outer loop
      vertex -0.784881494116422 -12.475334105353394 0
      vertex -0.3390688054582943 -5.389344333512667 0
      vertex -1.0118590987629141 -5.304351153934919 0
    endloop
  endfacet
  facet normal 0 0 1
    outer loop
      vertex -0.784881494116422 -12.475334105353394 0
      vertex 0.3390688054582943 -5.389344333512667 0
      vertex -0.3390688054582943 -5.389344333512667 0
    endloop
  endfacet
  facet normal 0 0 1
    outer loop
      vertex -5.322241144563406 -11.310338155825244 0
      vertex -5.020793023796558 -1.9878725844972607 0
      vertex -5.230349070094608 -1.3429253906902163 0
    endloop
  endfacet
  facet normal 0 0 1
    outer loop
      vertex -5.322241144563406 -11.310338155825244 0
      vertex -4.732056072236863 -2.6014698401492633 0
      vertex -5.020793023796558 -1.9878725844972607 0
    endloop
  endfacet
  facet normal 0 0 1
    outer loop
      vertex -6.6978349372374595 -10.554099068775187 0
      vertex -5.322241144563406 -11.310338155825244 0
      vertex -6.6978349372374595 10.554099068775187 0
    endloop
  endfacet
  facet normal 0 0 1
    outer loop
      vertex -5.322241144563406 -11.310338155825244 0
      vertex -5.230349070094608 -1.3429253906902163 0
      vertex -5.357419387098181 -0.676799461247242 0
    endloop
  endfacet
  facet normal 0 0 1
    outer loop
      vertex -5.322241144563406 -11.310338155825244 0
      vertex -5.357419387098181 -0.676799461247242 0
      vertex -5.4 0 0
    endloop
  endfacet
  facet normal 0 0 1
    outer loop
      vertex -3.8627124296868423 -11.888206453689419 0
      vertex -4.368691769624717 -3.174040362379355 0
      vertex -4.732056072236863 -2.6014698401492633 0
    endloop
  endfacet
  facet normal 0 0 1
    outer loop
      vertex -5.322241144563406 -11.310338155825244 0
      vertex -5.4 0 0
      vertex -6.6978349372374595 10.554099068775187 0
    endloop
  endfacet
  facet normal 0 0 -1
    outer loop
      vertex -12.401433766430973 -1.5666654195538008 -3
      vertex -12.5 0 -3
      vertex -12.401433766430973 1.5666654195538008 -3
    endloop
  endfacet
  facet normal 0 0 -1
    outer loop
      vertex -12.401433766430973 -1.5666654195538008 -3
      vertex -12.401433766430973 1.5666654195538008 -3
      vertex -12.107289514107888 3.1086235895606857 -3
    endloop
  endfacet
  facet normal 0 0 -1
    outer loop
      vertex -12.107289514107888 -3.1086235895606857 -3
      vertex -12.107289514107888 3.1086235895606857 -3
      vertex -11.622206073603143 4.601556908558473 -3
    endloop
  endfacet
  facet normal 0 0 -1
    outer loop
      vertex -11.622206073603143 -4.601556908558473 -3
      vertex -11.622206073603143 4.601556908558473 -3
      vertex -10.953833500548294 6.021920926271442 -3
    endloop
  endfacet
  facet normal 0 0 -1
    outer loop
      vertex -10.953833500548294 -6.021920926271442 -3
      vertex -10.953833500548294 6.021920926271442 -3
      vertex -10.112712429686843 7.347315653655914 -3
    endloop
  endfacet
  facet normal 0 0 -1
    outer loop
      vertex -10.112712429686843 -7.347315653655914 -3
      vertex -10.112712429686843 7.347315653655914 -3
      vertex -9.112107842767646 8.556838824108606 -3
    endloop
  endfacet
  facet normal 0 0 -1
    outer loop
      vertex -9.112107842767646 -8.556838824108606 -3
      vertex -9.112107842767646 8.556838824108606 -3
      vertex -7.96779987185862 9.631415534697368 -3
    endloop
  endfacet
  facet normal 0 0 -1
    outer loop
      vertex -7.96779987185862 -9.631415534697368 -3
      vertex -7.96779987185862 9.631415534697368 -3
      vertex -6.6978349372374595 10.554099068775187 -3
    endloop
  endfacet
  facet normal -0.9980267284282716 0.0627905195293135 0
    outer loop
      vertex -12.5 0 -3
      vertex -12.401433766430973 1.5666654195538008 0
      vertex -12.401433766430973 1.5666654195538008 -3
    endloop
  endfacet
  facet normal -0.9822872507286888 0.1873813145857246 0
    outer loop
      vertex -12.401433766430973 1.5666654195538008 -3
      vertex -12.107289514107888 3.1086235895606857 0
      vertex -12.107289514107888 3.1086235895606857 -3
    endloop
  endfacet
  facet normal -0.9510565162951538 0.309016994374947 0
    outer loop
      vertex -12.107289514107888 3.1086235895606857 -3
      vertex -11.622206073603143 4.601556908558473 0
      vertex -11.622206073603143 4.601556908558473 -3
    endloop
  endfacet
  facet normal -0.9048270524660194 0.42577929156507294 0
    outer loop
      vertex -11.622206073603143 4.601556908558473 -3
      vertex -10.953833500548294 6.021920926271442 0
      vertex -10.953833500548294 6.021920926271442 -3
    endloop
  endfacet
  facet normal -0.8443279255020151 0.5358267949789965 0
    outer loop
      vertex -10.953833500548294 6.021920926271442 -3
      vertex -10.112712429686843 7.347315653655914 0
      vertex -10.112712429686843 7.347315653655914 -3
    endloop
  endfacet
  facet normal -0.7705132427757891 0.6374239897486897 0
    outer loop
      vertex -10.112712429686843 7.347315653655914 -3
      vertex -9.112107842767646 8.556838824108606 0
      vertex -9.112107842767646 8.556838824108606 -3
    endloop
  endfacet
  facet normal -0.6845471059286893 0.7289686274214109 0
    outer loop
      vertex -9.112107842767646 8.556838824108606 -3
      vertex -9.112107842767646 8.556838824108606 0
      vertex -7.96779987185862 9.631415534697368 -3
    endloop
  endfacet
  facet normal -0.5877852522924725 0.8090169943749479 0
    outer loop
      vertex -7.96779987185862 9.631415534697368 -3
      vertex -7.96779987185862 9.631415534697368 0
      vertex -6.6978349372374595 10.554099068775187 -3
    endloop
  endfacet
  facet normal 0 0 -1
    outer loop
      vertex -3.8627124296868423 -11.888206453689419 -3
      vertex -3.8627124296868423 11.888206453689419 -3
      vertex -3.457692307692308 0 -3
    endloop
  endfacet
  facet normal 0 0 -1
    outer loop
      vertex -6.6978349372374595 -10.554099068775187 -3
      vertex -6.6978349372374595 10.554099068775187 -3
      vertex -5.322241144563409 11.310338155825244 -3
    endloop
  endfacet
  facet normal 0 0 -1
    outer loop
      vertex -5.322241144563406 -11.310338155825244 -3
      vertex -5.322241144563409 11.310338155825244 -3
      vertex -3.8627124296868423 11.888206453689419 -3
    endloop
  endfacet
  facet normal 0 0 -1
    outer loop
      vertex -3.8627124296868423 11.888206453689419 -3
      vertex -3.4304273710835216 0.43336375759349754 -3
      vertex -3.457692307692308 0 -3
    endloop
  endfacet
  facet normal 0 0 -1
    outer loop
      vertex -3.8627124296868423 11.888206453689419 -3
      vertex -3.3490625455947667 0.8598931098507866 -3
      vertex -3.4304273710835216 0.43336375759349754 -3
    endloop
  endfacet
  facet normal 0 0 -1
    outer loop
      vertex -3.8627124296868423 11.888206453689419 -3
      vertex -3.2148810031289923 1.2728614340904825 -3
      vertex -3.3490625455947667 0.8598931098507866 -3
    endloop
  endfacet
  facet normal 0 0 -1
    outer loop
      vertex -3.8627124296868423 11.888206453689419 -3
      vertex -3.029998866767051 1.6657559731440084 -3
      vertex -3.2148810031289923 1.2728614340904825 -3
    endloop
  endfacet
  facet normal 0 0 -1
    outer loop
      vertex -2.342266432321557 12.278590634108609 -3
      vertex -2.797331838242607 2.032380545426667 -3
      vertex -3.029998866767051 1.6657559731440084 -3
    endloop
  endfacet
  facet normal 0 0 -1
    outer loop
      vertex -2.342266432321557 12.278590634108609 -3
      vertex -2.5205492155840354 2.3669532624226575 -3
      vertex -2.797331838242607 2.032380545426667 -3
    endloop
  endfacet
  facet normal 0 0 -1
    outer loop
      vertex -2.342266432321557 12.278590634108609 -3
      vertex -2.2040160260925847 2.6641977125209024 -3
      vertex -2.5205492155840354 2.3669532624226575 -3
    endloop
  endfacet
  facet normal 0 0 -1
    outer loop
      vertex -2.342266432321557 12.278590634108609 -3
      vertex -1.8527241872543003 2.919426173178121 -3
      vertex -2.2040160260925847 2.6641977125209024 -3
    endloop
  endfacet
  facet normal 0 0 -1
    outer loop
      vertex -0.784881494116416 12.475334105353394 -3
      vertex -1.4722137812192322 3.1286135391036596 -3
      vertex -1.8527241872543003 2.919426173178121 -3
    endloop
  endfacet
  facet normal 0 0 -1
    outer loop
      vertex -3.8627124296868423 11.888206453689419 -3
      vertex -2.342266432321557 12.278590634108609 -3
      vertex -3.029998866767051 1.6657559731440084 -3
    endloop
  endfacet
  facet normal 0 0 -1
    outer loop
      vertex -2.342266432321557 12.278590634108609 -3
      vertex -0.784881494116416 12.475334105353394 -3
      vertex -1.8527241872543003 2.919426173178121 -3
    endloop
  endfacet
  facet normal 0 0 -1
    outer loop
      vertex -0.784881494116416 12.475334105353394 -3
      vertex -1.0684856843964528 3.2884608005743963 -3
      vertex -1.4722137812192322 3.1286135391036596 -3
    endloop
  endfacet
  facet normal 0 0 -1
    outer loop
      vertex -0.784881494116416 12.475334105353394 -3
      vertex -0.6479069300483323 3.396447070788812 -3
      vertex -1.0684856843964528 3.2884608005743963 -3
    endloop
  endfacet
  facet normal 0 0 -1
    outer loop
      vertex -0.784881494116416 12.475334105353394 -3
      vertex -0.21711029637251014 3.4508693417577545 -3
      vertex -0.6479069300483323 3.396447070788812 -3
    endloop
  endfacet
  facet normal 0 0 -1
    outer loop
      vertex -0.784881494116416 12.475334105353394 -3
      vertex 0.784881494116416 12.475334105353394 -3
      vertex -0.21711029637251014 3.4508693417577545 -3
    endloop
  endfacet
  facet normal -0.48175367410171566 0.8763066800438634 0
    outer loop
      vertex -6.6978349372374595 10.554099068775187 -3
      vertex -6.6978349372374595 10.554099068775187 0
      vertex -5.322241144563409 11.310338155825244 -3
    endloop
  endfacet
  facet normal -0.36812455268467714 0.9297764858882517 0
    outer loop
      vertex -5.322241144563409 11.310338155825244 -3
      vertex -5.322241144563409 11.310338155825244 0
      vertex -3.8627124296868423 11.888206453689419 -3
    endloop
  endfacet
  facet normal -0.24868988716485538 0.9685831611286311 0
    outer loop
      vertex -3.8627124296868423 11.888206453689419 -3
      vertex -3.8627124296868423 11.888206453689419 0
      vertex -2.342266432321557 12.278590634108609 -3
    endloop
  endfacet
  facet normal -0.12533323356430362 0.9921147013144779 0
    outer loop
      vertex -2.342266432321557 12.278590634108609 -3
      vertex -2.342266432321557 12.278590634108609 0
      vertex -0.784881494116416 12.475334105353394 -3
    endloop
  endfacet
  facet normal 0 1 0
    outer loop
      vertex -0.784881494116416 12.475334105353394 -3
      vertex -0.784881494116416 12.475334105353394 0
      vertex 0.784881494116416 12.475334105353394 -3
    endloop
  endfacet
  facet normal -0.9980267284282716 0.0627905195293135 0
    outer loop
      vertex -12.5 0 -3
      vertex -12.5 0 0
      vertex -12.401433766430973 1.5666654195538008 0
    endloop
  endfacet
  facet normal -0.9822872507286888 0.1873813145857246 0
    outer loop
      vertex -12.401433766430973 1.5666654195538008 -3
      vertex -12.401433766430973 1.5666654195538008 0
      vertex -12.107289514107888 3.1086235895606857 0
    endloop
  endfacet
  facet normal -0.9510565162951538 0.309016994374947 0
    outer loop
      vertex -12.107289514107888 3.1086235895606857 -3
      vertex -12.107289514107888 3.1086235895606857 0
      vertex -11.622206073603143 4.601556908558473 0
    endloop
  endfacet
  facet normal -0.9048270524660194 0.42577929156507294 0
    outer loop
      vertex -11.622206073603143 4.601556908558473 -3
      vertex -11.622206073603143 4.601556908558473 0
      vertex -10.953833500548294 6.021920926271442 0
    endloop
  endfacet
  facet normal 0 0 1
    outer loop
      vertex -12.401433766430973 -1.5666654195538008 0
      vertex -12.401433766430973 1.5666654195538008 0
      vertex -12.5 0 0
    endloop
  endfacet
  facet normal 0 0 1
    outer loop
      vertex -12.107289514107888 -3.1086235895606857 0
      vertex -12.107289514107888 3.1086235895606857 0
      vertex -12.401433766430973 1.5666654195538008 0
    endloop
  endfacet
  facet normal 0 0 1
    outer loop
      vertex -11.622206073603143 -4.601556908558473 0
      vertex -11.622206073603143 4.601556908558473 0
      vertex -12.107289514107888 3.1086235895606857 0
    endloop
  endfacet
  facet normal 0 0 1
    outer loop
      vertex -10.953833500548294 -6.021920926271442 0
      vertex -10.953833500548294 6.021920926271442 0
      vertex -11.622206073603143 4.601556908558473 0
    endloop
  endfacet
  facet normal 0 0 1
    outer loop
      vertex -10.112712429686843 -7.347315653655914 0
      vertex -10.112712429686843 7.347315653655914 0
      vertex -10.953833500548294 6.021920926271442 0
    endloop
  endfacet
  facet normal 0 0 1
    outer loop
      vertex -9.112107842767646 -8.556838824108606 0
      vertex -9.112107842767646 8.556838824108606 0
      vertex -10.112712429686843 7.347315653655914 0
    endloop
  endfacet
  facet normal 0 0 1
    outer loop
      vertex -7.96779987185862 -9.631415534697368 0
      vertex -7.96779987185862 9.631415534697368 0
      vertex -9.112107842767646 8.556838824108606 0
    endloop
  endfacet
  facet normal 0 0 1
    outer loop
      vertex -6.6978349372374595 -10.554099068775187 0
      vertex -6.6978349372374595 10.554099068775187 0
      vertex -7.96779987185862 9.631415534697368 0
    endloop
  endfacet
  facet normal -0.8443279255020151 0.5358267949789965 0
    outer loop
      vertex -10.953833500548294 6.021920926271442 -3
      vertex -10.953833500548294 6.021920926271442 0
      vertex -10.112712429686843 7.347315653655914 0
    endloop
  endfacet
  facet normal -0.7705132427757891 0.6374239897486897 0
    outer loop
      vertex -10.112712429686843 7.347315653655914 -3
      vertex -10.112712429686843 7.347315653655914 0
      vertex -9.112107842767646 8.556838824108606 0
    endloop
  endfacet
  facet normal -0.6845471059286893 0.7289686274214109 0
    outer loop
      vertex -7.96779987185862 9.631415534697368 -3
      vertex -9.112107842767646 8.556838824108606 0
      vertex -7.96779987185862 9.631415534697368 0
    endloop
  endfacet
  facet normal -0.5877852522924725 0.8090169943749479 0
    outer loop
      vertex -6.6978349372374595 10.554099068775187 -3
      vertex -7.96779987185862 9.631415534697368 0
      vertex -6.6978349372374595 10.554099068775187 0
    endloop
  endfacet
  facet normal 0 0 1
    outer loop
      vertex -6.6978349372374595 10.554099068775187 0
      vertex -5.4 0 0
      vertex -5.357419387098181 0.676799461247242 0
    endloop
  endfacet
  facet normal 0 0 1
    outer loop
      vertex -6.6978349372374595 10.554099068775187 0
      vertex -5.357419387098181 0.676799461247242 0
      vertex -5.230349070094608 1.3429253906902163 0
    endloop
  endfacet
  facet normal 0 0 1
    outer loop
      vertex -5.322241144563409 11.310338155825244 0
      vertex -5.230349070094608 1.3429253906902163 0
      vertex -5.020793023796558 1.9878725844972607 0
    endloop
  endfacet
  facet normal 0 0 1
    outer loop
      vertex -5.322241144563409 11.310338155825244 0
      vertex -5.020793023796558 1.9878725844972607 0
      vertex -4.732056072236863 2.6014698401492633 0
    endloop
  endfacet
  facet normal 0 0 1
    outer loop
      vertex -5.322241144563409 11.310338155825244 0
      vertex -4.732056072236863 2.6014698401492633 0
      vertex -4.368691769624717 3.174040362379355 0
    endloop
  endfacet
  facet normal 0 0 1
    outer loop
      vertex -5.322241144563409 11.310338155825244 0
      vertex -4.368691769624717 3.174040362379355 0
      vertex -3.9364305880756234 3.6965543720149183 0
    endloop
  endfacet
  facet normal -0.48175367410171566 0.8763066800438634 0
    outer loop
      vertex -6.6978349372374595 10.554099068775187 0
      vertex -5.322241144563409 11.310338155825244 0
      vertex -5.322241144563409 11.310338155825244 -3
    endloop
  endfacet
  facet normal -0.36812455268467714 0.9297764858882517 0
    outer loop
      vertex -3.8627124296868423 11.888206453689419 -3
      vertex -5.322241144563409 11.310338155825244 0
      vertex -3.8627124296868423 11.888206453689419 0
    endloop
  endfacet
  facet normal -0.24868988716485538 0.9685831611286311 0
    outer loop
      vertex -2.342266432321557 12.278590634108609 -3
      vertex -3.8627124296868423 11.888206453689419 0
      vertex -2.342266432321557 12.278590634108609 0
    endloop
  endfacet
  facet normal -0.12533323356430362 0.9921147013144779 0
    outer loop
      vertex -0.784881494116416 12.475334105353394 -3
      vertex -2.342266432321557 12.278590634108609 0
      vertex -0.784881494116416 12.475334105353394 0
    endloop
  endfacet
  facet normal 0 0 1
    outer loop
      vertex -6.6978349372374595 10.554099068775187 0
      vertex -5.230349070094608 1.3429253906902163 0
      vertex -5.322241144563409 11.310338155825244 0
    endloop
  endfacet
  facet normal 0 0 1
    outer loop
      vertex -5.322241144563409 11.310338155825244 0
      vertex -3.9364305880756234 3.6965543720149183 0
      vertex -3.4420895446429243 4.160771510989263 0
    endloop
  endfacet
  facet normal 0 0 1
    outer loop
      vertex -3.8627124296868423 11.888206453689419 0
      vertex -3.4420895446429243 4.160771510989263 0
      vertex -2.8934646928865826 4.559370797710881 0
    endloop
  endfacet
  facet normal 0 0 1
    outer loop
      vertex -5.322241144563409 11.310338155825244 0
      vertex -3.4420895446429243 4.160771510989263 0
      vertex -3.8627124296868423 11.888206453689419 0
    endloop
  endfacet
  facet normal 0 0 1
    outer loop
      vertex -3.8627124296868423 11.888206453689419 0
      vertex -2.8934646928865826 4.559370797710881 0
      vertex -2.299208174451393 4.886066083316505 0
    endloop
  endfacet
  facet normal 0 0 1
    outer loop
      vertex -2.342266432321557 12.278590634108609 0
      vertex -2.299208174451393 4.886066083316505 0
      vertex -1.668691769624716 5.135705187993829 0
    endloop
  endfacet
  facet normal 0 0 1
    outer loop
      vertex -2.342266432321557 12.278590634108609 0
      vertex -1.668691769624716 5.135705187993829 0
      vertex -1.0118590987629128 5.3043511539349195 0
    endloop
  endfacet
  facet normal 0 0 1
    outer loop
      vertex -2.342266432321557 12.278590634108609 0
      vertex -1.0118590987629128 5.3043511539349195 0
      vertex -0.33906880545829 5.389344333512667 0
    endloop
  endfacet
  facet normal 0 0 1
    outer loop
      vertex -3.8627124296868423 11.888206453689419 0
      vertex -2.299208174451393 4.886066083316505 0
      vertex -2.342266432321557 12.278590634108609 0
    endloop
  endfacet
  facet normal 0 0 1
    outer loop
      vertex -2.342266432321557 12.278590634108609 0
      vertex -0.33906880545829 5.389344333512667 0
      vertex -0.784881494116416 12.475334105353394 0
    endloop
  endfacet
  facet normal 0 0 1
    outer loop
      vertex -0.784881494116416 12.475334105353394 0
      vertex -0.33906880545829 5.389344333512667 0
      vertex 0.784881494116416 12.475334105353394 0
    endloop
  endfacet
  facet normal 0 0 -1
    outer loop
      vertex -0.784881494116422 -12.475334105353394 -3
      vertex 0.21711029637251184 -3.4508693417577545 -3
      vertex 0.784881494116422 -12.475334105353394 -3
    endloop
  endfacet
  facet normal 0 0 -1
    outer loop
      vertex 0.784881494116422 -12.475334105353394 -3
      vertex 0.21711029637251184 -3.4508693417577545 -3
      vertex 0.6479069300483331 -3.3964470707888115 -3
    endloop
  endfacet
  facet normal 0 0 -1
    outer loop
      vertex 0.784881494116422 -12.475334105353394 -3
      vertex 0.6479069300483331 -3.3964470707888115 -3
      vertex 1.0684856843964528 -3.2884608005743963 -3
    endloop
  endfacet
  facet normal 0 0 -1
    outer loop
      vertex 0.784881494116422 -12.475334105353394 -3
      vertex 1.0684856843964528 -3.2884608005743963 -3
      vertex 1.4722137812192313 -3.12861353910366 -3
    endloop
  endfacet
  facet normal 0 0 -1
    outer loop
      vertex 0.784881494116422 -12.475334105353394 -3
      vertex 1.8527241872542988 -2.919426173178122 -3
      vertex 2.3422664323215603 -12.278590634108607 -3
    endloop
  endfacet
  facet normal 0 0 -1
    outer loop
      vertex 2.3422664323215603 -12.278590634108607 -3
      vertex 3.029998866767051 -1.6657559731440084 -3
      vertex 3.8627124296868423 -11.888206453689419 -3
    endloop
  endfacet
  facet normal 0 -1 0
    outer loop
      vertex -0.784881494116422 -12.475334105353394 -3
      vertex 0.784881494116422 -12.475334105353394 -3
      vertex 0.784881494116422 -12.475334105353394 0
    endloop
  endfacet
  facet normal 0.12533323356430498 -0.9921147013144779 0
    outer loop
      vertex 0.784881494116422 -12.475334105353394 -3
      vertex 2.3422664323215603 -12.278590634108607 -3
      vertex 2.3422664323215603 -12.278590634108607 0
    endloop
  endfacet
  facet normal 0.24868988716485482 -0.9685831611286312 0
    outer loop
      vertex 2.3422664323215603 -12.278590634108607 -3
      vertex 3.8627124296868423 -11.888206453689419 -3
      vertex 3.8627124296868423 -11.888206453689419 0
    endloop
  endfacet
  facet normal 0.368124552684678 -0.9297764858882516 0
    outer loop
      vertex 3.8627124296868423 -11.888206453689419 -3
      vertex 5.322241144563406 -11.310338155825244 -3
      vertex 5.322241144563406 -11.310338155825244 0
    endloop
  endfacet
  facet normal 0.4817536741017149 -0.8763066800438637 0
    outer loop
      vertex 5.322241144563406 -11.310338155825244 -3
      vertex 6.697834937237452 -10.55409906877519 -3
      vertex 6.697834937237452 -10.55409906877519 0
    endloop
  endfacet
  facet normal 0 0 -1
    outer loop
      vertex 0.784881494116422 -12.475334105353394 -3
      vertex 1.4722137812192313 -3.12861353910366 -3
      vertex 1.8527241872542988 -2.919426173178122 -3
    endloop
  endfacet
  facet normal 0 0 -1
    outer loop
      vertex 2.3422664323215603 -12.278590634108607 -3
      vertex 1.8527241872542988 -2.919426173178122 -3
      vertex 2.2040160260925856 -2.6641977125209015 -3
    endloop
  endfacet
  facet normal 0 0 -1
    outer loop
      vertex 2.3422664323215603 -12.278590634108607 -3
      vertex 2.2040160260925856 -2.6641977125209015 -3
      vertex 2.520549215584035 -2.366953262422658 -3
    endloop
  endfacet
  facet normal 0 0 -1
    outer loop
      vertex 2.3422664323215603 -12.278590634108607 -3
      vertex 2.520549215584035 -2.366953262422658 -3
      vertex 2.7973318382426067 -2.032380545426667 -3
    endloop
  endfacet
  facet normal 0 0 -1
    outer loop
      vertex 2.3422664323215603 -12.278590634108607 -3
      vertex 2.7973318382426067 -2.032380545426667 -3
      vertex 3.029998866767051 -1.6657559731440084 -3
    endloop
  endfacet
  facet normal 0 0 -1
    outer loop
      vertex 3.8627124296868423 -11.888206453689419 -3
      vertex 3.029998866767051 -1.6657559731440084 -3
      vertex 3.214881003128992 -1.272861434090484 -3
    endloop
  endfacet
  facet normal 0 0 -1
    outer loop
      vertex 3.8627124296868423 -11.888206453689419 -3
      vertex 3.214881003128992 -1.272861434090484 -3
      vertex 3.349062545594767 -0.8598931098507852 -3
    endloop
  endfacet
  facet normal 0 0 -1
    outer loop
      vertex 3.8627124296868423 -11.888206453689419 -3
      vertex 3.349062545594767 -0.8598931098507852 -3
      vertex 3.4304273710835216 -0.43336375759349754 -3
    endloop
  endfacet
  facet normal 0 0 -1
    outer loop
      vertex 3.8627124296868423 -11.888206453689419 -3
      vertex 3.4304273710835216 -0.43336375759349754 -3
      vertex 3.457692307692308 0 -3
    endloop
  endfacet
  facet normal 0 0 -1
    outer loop
      vertex 3.8627124296868423 -11.888206453689419 -3
      vertex 5.322241144563409 11.310338155825244 -3
      vertex 5.322241144563406 -11.310338155825244 -3
    endloop
  endfacet
  facet normal 0 0 -1
    outer loop
      vertex 5.322241144563406 -11.310338155825244 -3
      vertex 6.697834937237459 10.554099068775189 -3
      vertex 6.697834937237452 -10.55409906877519 -3
    endloop
  endfacet
  facet normal 0.5877852522924727 -0.8090169943749478 0
    outer loop
      vertex 6.697834937237452 -10.55409906877519 -3
      vertex 7.967799871858625 -9.631415534697362 -3
      vertex 7.967799871858625 -9.631415534697362 0
    endloop
  endfacet
  facet normal 0.6845471059286888 -0.7289686274214112 0
    outer loop
      vertex 7.967799871858625 -9.631415534697362 -3
      vertex 9.112107842767646 -8.556838824108606 -3
      vertex 9.112107842767646 -8.556838824108606 0
    endloop
  endfacet
  facet normal 0.7705132427757891 -0.6374239897486897 0
    outer loop
      vertex 9.112107842767646 -8.556838824108606 -3
      vertex 10.112712429686843 -7.347315653655914 -3
      vertex 9.112107842767646 -8.556838824108606 0
    endloop
  endfacet
  facet normal 0.8443279255020151 -0.5358267949789965 0
    outer loop
      vertex 10.112712429686843 -7.347315653655914 -3
      vertex 10.953833500548294 -6.021920926271442 -3
      vertex 10.112712429686843 -7.347315653655914 0
    endloop
  endfacet
  facet normal 0 0 -1
    outer loop
      vertex 6.697834937237452 -10.55409906877519 -3
      vertex 7.967799871858622 9.631415534697364 -3
      vertex 7.967799871858625 -9.631415534697362 -3
    endloop
  endfacet
  facet normal 0 0 -1
    outer loop
      vertex 7.967799871858625 -9.631415534697362 -3
      vertex 9.112107842767644 8.55683882410861 -3
      vertex 9.112107842767646 -8.556838824108606 -3
    endloop
  endfacet
  facet normal 0 0 -1
    outer loop
      vertex 9.112107842767646 -8.556838824108606 -3
      vertex 10.112712429686843 7.347315653655914 -3
      vertex 10.112712429686843 -7.347315653655914 -3
    endloop
  endfacet
  facet normal 0 0 -1
    outer loop
      vertex 10.112712429686843 -7.347315653655914 -3
      vertex 10.953833500548296 6.0219209262714415 -3
      vertex 10.953833500548294 -6.021920926271442 -3
    endloop
  endfacet
  facet normal 0 0 -1
    outer loop
      vertex 10.953833500548294 -6.021920926271442 -3
      vertex 11.622206073603142 4.601556908558475 -3
      vertex 11.62220607360314 -4.6015569085584795 -3
    endloop
  endfacet
  facet normal 0 0 -1
    outer loop
      vertex 11.62220607360314 -4.6015569085584795 -3
      vertex 12.107289514107888 3.108623589560685 -3
      vertex 12.10728951410789 -3.1086235895606804 -3
    endloop
  endfacet
  facet normal 0 0 -1
    outer loop
      vertex 12.10728951410789 -3.1086235895606804 -3
      vertex 12.401433766430973 1.5666654195538032 -3
      vertex 12.401433766430973 -1.5666654195538008 -3
    endloop
  endfacet
  facet normal 0.9048270524660196 -0.42577929156507266 0
    outer loop
      vertex 10.953833500548294 -6.021920926271442 -3
      vertex 11.62220607360314 -4.6015569085584795 -3
      vertex 10.953833500548294 -6.021920926271442 0
    endloop
  endfacet
  facet normal 0.9510565162951534 -0.30901699437494795 0
    outer loop
      vertex 11.62220607360314 -4.6015569085584795 -3
      vertex 12.10728951410789 -3.1086235895606804 -3
      vertex 11.62220607360314 -4.6015569085584795 0
    endloop
  endfacet
  facet normal 0.9822872507286887 -0.1873813145857241 0
    outer loop
      vertex 12.10728951410789 -3.1086235895606804 -3
      vertex 12.401433766430973 -1.5666654195538008 -3
      vertex 12.10728951410789 -3.1086235895606804 0
    endloop
  endfacet
  facet normal 0.9980267284282716 -0.0627905195293135 0
    outer loop
      vertex 12.401433766430973 -1.5666654195538008 -3
      vertex 12.5 0 -3
      vertex 12.401433766430973 -1.5666654195538008 0
    endloop
  endfacet
  facet normal 0.12533323356430498 -0.9921147013144779 0
    outer loop
      vertex 0.784881494116422 -12.475334105353394 -3
      vertex 2.3422664323215603 -12.278590634108607 0
      vertex 0.784881494116422 -12.475334105353394 0
    endloop
  endfacet
  facet normal 0.24868988716485482 -0.9685831611286312 0
    outer loop
      vertex 2.3422664323215603 -12.278590634108607 -3
      vertex 3.8627124296868423 -11.888206453689419 0
      vertex 2.3422664323215603 -12.278590634108607 0
    endloop
  endfacet
  facet normal 0.368124552684678 -0.9297764858882516 0
    outer loop
      vertex 3.8627124296868423 -11.888206453689419 -3
      vertex 5.322241144563406 -11.310338155825244 0
      vertex 3.8627124296868423 -11.888206453689419 0
    endloop
  endfacet
  facet normal 0.4817536741017149 -0.8763066800438637 0
    outer loop
      vertex 5.322241144563406 -11.310338155825244 -3
      vertex 6.697834937237452 -10.55409906877519 0
      vertex 5.322241144563406 -11.310338155825244 0
    endloop
  endfacet
  facet normal 0 0 1
    outer loop
      vertex -0.784881494116422 -12.475334105353394 0
      vertex 0.784881494116422 -12.475334105353394 0
      vertex 0.3390688054582943 -5.389344333512667 0
    endloop
  endfacet
  facet normal 0 0 1
    outer loop
      vertex 0.784881494116422 -12.475334105353394 0
      vertex 2.3422664323215603 -12.278590634108607 0
      vertex 0.3390688054582943 -5.389344333512667 0
    endloop
  endfacet
  facet normal 0 0 1
    outer loop
      vertex 2.3422664323215603 -12.278590634108607 0
      vertex 3.8627124296868423 -11.888206453689419 0
      vertex 2.2992081744513913 -4.886066083316506 0
    endloop
  endfacet
  facet normal 0 0 1
    outer loop
      vertex 2.3422664323215603 -12.278590634108607 0
      vertex 1.0118590987629141 -5.304351153934919 0
      vertex 0.3390688054582943 -5.389344333512667 0
    endloop
  endfacet
  facet normal 0 0 1
    outer loop
      vertex 2.3422664323215603 -12.278590634108607 0
      vertex 1.668691769624716 -5.135705187993829 0
      vertex 1.0118590987629141 -5.304351153934919 0
    endloop
  endfacet
  facet normal 0 0 1
    outer loop
      vertex 2.3422664323215603 -12.278590634108607 0
      vertex 2.2992081744513913 -4.886066083316506 0
      vertex 1.668691769624716 -5.135705187993829 0
    endloop
  endfacet
  facet normal 0 0 1
    outer loop
      vertex 3.8627124296868423 -11.888206453689419 0
      vertex 2.89346469288658 -4.559370797710883 0
      vertex 2.2992081744513913 -4.886066083316506 0
    endloop
  endfacet
  facet normal 0 0 1
    outer loop
      vertex 3.8627124296868423 -11.888206453689419 0
      vertex 5.322241144563406 -11.310338155825244 0
      vertex 3.442089544642926 -4.160771510989261 0
    endloop
  endfacet
  facet normal 0 0 1
    outer loop
      vertex 3.8627124296868423 -11.888206453689419 0
      vertex 3.442089544642926 -4.160771510989261 0
      vertex 2.89346469288658 -4.559370797710883 0
    endloop
  endfacet
  facet normal 0 0 1
    outer loop
      vertex 5.322241144563406 -11.310338155825244 0
      vertex 3.9364305880756234 -3.6965543720149183 0
      vertex 3.442089544642926 -4.160771510989261 0
    endloop
  endfacet
  facet normal 0 0 1
    outer loop
      vertex 5.322241144563406 -11.310338155825244 0
      vertex 6.697834937237452 -10.55409906877519 0
      vertex 5.230349070094609 -1.342925390690214 0
    endloop
  endfacet
  facet normal 0 0 1
    outer loop
      vertex 5.322241144563406 -11.310338155825244 0
      vertex 4.368691769624717 -3.174040362379355 0
      vertex 3.9364305880756234 -3.6965543720149183 0
    endloop
  endfacet
  facet normal 0 0 1
    outer loop
      vertex 5.322241144563406 -11.310338155825244 0
      vertex 4.732056072236863 -2.6014698401492633 0
      vertex 4.368691769624717 -3.174040362379355 0
    endloop
  endfacet
  facet normal 0 0 1
    outer loop
      vertex 5.322241144563406 -11.310338155825244 0
      vertex 5.020793023796557 -1.9878725844972633 0
      vertex 4.732056072236863 -2.6014698401492633 0
    endloop
  endfacet
  facet normal 0 0 1
    outer loop
      vertex 5.322241144563406 -11.310338155825244 0
      vertex 5.230349070094609 -1.342925390690214 0
      vertex 5.020793023796557 -1.9878725844972633 0
    endloop
  endfacet
  facet normal 0 0 1
    outer loop
      vertex 6.697834937237452 -10.55409906877519 0
      vertex 5.357419387098181 -0.676799461247242 0
      vertex 5.230349070094609 -1.342925390690214 0
    endloop
  endfacet
  facet normal 0 0 1
    outer loop
      vertex 6.697834937237452 -10.55409906877519 0
      vertex 5.4 0 0
      vertex 5.357419387098181 -0.676799461247242 0
    endloop
  endfacet
  facet normal 0.5877852522924727 -0.8090169943749478 0
    outer loop
      vertex 6.697834937237452 -10.55409906877519 -3
      vertex 7.967799871858625 -9.631415534697362 0
      vertex 6.697834937237452 -10.55409906877519 0
    endloop
  endfacet
  facet normal 0.6845471059286888 -0.7289686274214112 0
    outer loop
      vertex 7.967799871858625 -9.631415534697362 -3
      vertex 9.112107842767646 -8.556838824108606 0
      vertex 7.967799871858625 -9.631415534697362 0
    endloop
  endfacet
  facet normal 0.7705132427757891 -0.6374239897486897 0
    outer loop
      vertex 10.112712429686843 -7.347315653655914 -3
      vertex 10.112712429686843 -7.347315653655914 0
      vertex 9.112107842767646 -8.556838824108606 0
    endloop
  endfacet
  facet normal 0.8443279255020151 -0.5358267949789965 0
    outer loop
      vertex 10.112712429686843 -7.347315653655914 0
      vertex 10.953833500548294 -6.021920926271442 -3
      vertex 10.953833500548294 -6.021920926271442 0
    endloop
  endfacet
  facet normal 0.9048270524660196 -0.42577929156507266 0
    outer loop
      vertex 11.62220607360314 -4.6015569085584795 -3
      vertex 11.62220607360314 -4.6015569085584795 0
      vertex 10.953833500548294 -6.021920926271442 0
    endloop
  endfacet
  facet normal 0.9510565162951534 -0.30901699437494795 0
    outer loop
      vertex 12.10728951410789 -3.1086235895606804 -3
      vertex 12.10728951410789 -3.1086235895606804 0
      vertex 11.62220607360314 -4.6015569085584795 0
    endloop
  endfacet
  facet normal 0.9822872507286887 -0.1873813145857241 0
    outer loop
      vertex 12.401433766430973 -1.5666654195538008 -3
      vertex 12.401433766430973 -1.5666654195538008 0
      vertex 12.10728951410789 -3.1086235895606804 0
    endloop
  endfacet
  facet normal 0.9980267284282716 -0.0627905195293135 0
    outer loop
      vertex 12.401433766430973 -1.5666654195538008 0
      vertex 12.5 0 -3
      vertex 12.5 0 0
    endloop
  endfacet
  facet normal 0 0 1
    outer loop
      vertex 6.697834937237452 -10.55409906877519 0
      vertex 7.967799871858625 -9.631415534697362 0
      vertex 6.697834937237459 10.554099068775189 0
    endloop
  endfacet
  facet normal 0 0 1
    outer loop
      vertex 7.967799871858625 -9.631415534697362 0
      vertex 9.112107842767646 -8.556838824108606 0
      vertex 7.967799871858622 9.631415534697364 0
    endloop
  endfacet
  facet normal 0 0 1
    outer loop
      vertex 9.112107842767646 -8.556838824108606 0
      vertex 10.112712429686843 -7.347315653655914 0
      vertex 9.112107842767644 8.55683882410861 0
    endloop
  endfacet
  facet normal 0 0 1
    outer loop
      vertex 10.112712429686843 -7.347315653655914 0
      vertex 10.953833500548294 -6.021920926271442 0
      vertex 10.112712429686843 7.347315653655914 0
    endloop
  endfacet
  facet normal 0 0 1
    outer loop
      vertex 10.953833500548294 -6.021920926271442 0
      vertex 11.62220607360314 -4.6015569085584795 0
      vertex 10.953833500548296 6.0219209262714415 0
    endloop
  endfacet
  facet normal 0 0 1
    outer loop
      vertex 11.62220607360314 -4.6015569085584795 0
      vertex 12.10728951410789 -3.1086235895606804 0
      vertex 11.622206073603142 4.601556908558475 0
    endloop
  endfacet
  facet normal 0 0 1
    outer loop
      vertex 12.10728951410789 -3.1086235895606804 0
      vertex 12.401433766430973 -1.5666654195538008 0
      vertex 12.107289514107888 3.108623589560685 0
    endloop
  endfacet
  facet normal 0 0 -1
    outer loop
      vertex 2.342266432321557 12.278590634108609 -3
      vertex 1.4722137812192322 3.1286135391036596 -3
      vertex 1.0684856843964528 3.2884608005743963 -3
    endloop
  endfacet
  facet normal 0 0 -1
    outer loop
      vertex 2.342266432321557 12.278590634108609 -3
      vertex 1.8527241872543 2.9194261731781217 -3
      vertex 1.4722137812192322 3.1286135391036596 -3
    endloop
  endfacet
  facet normal 0 0 -1
    outer loop
      vertex 2.342266432321557 12.278590634108609 -3
      vertex 2.2040160260925847 2.6641977125209015 -3
      vertex 1.8527241872543 2.9194261731781217 -3
    endloop
  endfacet
  facet normal 0 0 -1
    outer loop
      vertex 3.8627124296868423 11.888206453689419 -3
      vertex 2.7973318382426067 2.032380545426667 -3
      vertex 2.520549215584035 2.3669532624226584 -3
    endloop
  endfacet
  facet normal 0 0 -1
    outer loop
      vertex 3.8627124296868423 11.888206453689419 -3
      vertex 2.520549215584035 2.3669532624226584 -3
      vertex 2.2040160260925847 2.6641977125209015 -3
    endloop
  endfacet
  facet normal 0 0 -1
    outer loop
      vertex 3.8627124296868423 -11.888206453689419 -3
      vertex 3.457692307692308 0 -3
      vertex 3.8627124296868423 11.888206453689419 -3
    endloop
  endfacet
  facet normal 0 0 -1
    outer loop
      vertex 3.8627124296868423 11.888206453689419 -3
      vertex 3.3490625455947667 0.8598931098507865 -3
      vertex 3.2148810031289923 1.2728614340904827 -3
    endloop
  endfacet
  facet normal 0 0 -1
    outer loop
      vertex 3.8627124296868423 11.888206453689419 -3
      vertex 3.457692307692308 0 -3
      vertex 3.4304273710835216 0.43336375759349816 -3
    endloop
  endfacet
  facet normal 0 0 -1
    outer loop
      vertex 3.8627124296868423 11.888206453689419 -3
      vertex 3.4304273710835216 0.43336375759349816 -3
      vertex 3.3490625455947667 0.8598931098507865 -3
    endloop
  endfacet
  facet normal 0 0 -1
    outer loop
      vertex 3.8627124296868423 -11.888206453689419 -3
      vertex 3.8627124296868423 11.888206453689419 -3
      vertex 5.322241144563409 11.310338155825244 -3
    endloop
  endfacet
  facet normal 0 0 -1
    outer loop
      vertex 3.8627124296868423 11.888206453689419 -3
      vertex 3.2148810031289923 1.2728614340904827 -3
      vertex 3.0299988667670514 1.665755973144008 -3
    endloop
  endfacet
  facet normal 0 0 -1
    outer loop
      vertex 3.8627124296868423 11.888206453689419 -3
      vertex 3.0299988667670514 1.665755973144008 -3
      vertex 2.7973318382426067 2.032380545426667 -3
    endloop
  endfacet
  facet normal 0 0 -1
    outer loop
      vertex 5.322241144563406 -11.310338155825244 -3
      vertex 5.322241144563409 11.310338155825244 -3
      vertex 6.697834937237459 10.554099068775189 -3
    endloop
  endfacet
  facet normal 0 0 -1
    outer loop
      vertex 0.784881494116416 12.475334105353394 -3
      vertex 0.2171102963725079 3.4508693417577545 -3
      vertex -0.21711029637251014 3.4508693417577545 -3
    endloop
  endfacet
  facet normal 0 0 -1
    outer loop
      vertex 2.342266432321557 12.278590634108609 -3
      vertex 0.6479069300483323 3.3964470707888124 -3
      vertex 0.2171102963725079 3.4508693417577545 -3
    endloop
  endfacet
  facet normal 0 0 -1
    outer loop
      vertex 2.342266432321557 12.278590634108609 -3
      vertex 1.0684856843964528 3.2884608005743963 -3
      vertex 0.6479069300483323 3.3964470707888124 -3
    endloop
  endfacet
  facet normal 0 0 -1
    outer loop
      vertex 2.342266432321557 12.278590634108609 -3
      vertex 3.8627124296868423 11.888206453689419 -3
      vertex 2.2040160260925847 2.6641977125209015 -3
    endloop
  endfacet
  facet normal 0 0 -1
    outer loop
      vertex 0.784881494116416 12.475334105353394 -3
      vertex 2.342266432321557 12.278590634108609 -3
      vertex 0.2171102963725079 3.4508693417577545 -3
    endloop
  endfacet
  facet normal 0.12533323356430362 0.9921147013144779 0
    outer loop
      vertex 0.784881494116416 12.475334105353394 -3
      vertex 0.784881494116416 12.475334105353394 0
      vertex 2.342266432321557 12.278590634108609 -3
    endloop
  endfacet
  facet normal 0.24868988716485538 0.9685831611286311 0
    outer loop
      vertex 2.342266432321557 12.278590634108609 -3
      vertex 2.342266432321557 12.278590634108609 0
      vertex 3.8627124296868423 11.888206453689419 -3
    endloop
  endfacet
  facet normal 0.36812455268467714 0.9297764858882517 0
    outer loop
      vertex 3.8627124296868423 11.888206453689419 -3
      vertex 3.8627124296868423 11.888206453689419 0
      vertex 5.322241144563409 11.310338155825244 -3
    endloop
  endfacet
  facet normal 0.4817536741017151 0.8763066800438637 0
    outer loop
      vertex 5.322241144563409 11.310338155825244 -3
      vertex 5.322241144563409 11.310338155825244 0
      vertex 6.697834937237459 10.554099068775189 -3
    endloop
  endfacet
  facet normal 0 0 -1
    outer loop
      vertex 7.967799871858625 -9.631415534697362 -3
      vertex 7.967799871858622 9.631415534697364 -3
      vertex 9.112107842767644 8.55683882410861 -3
    endloop
  endfacet
  facet normal 0 0 -1
    outer loop
      vertex 6.697834937237452 -10.55409906877519 -3
      vertex 6.697834937237459 10.554099068775189 -3
      vertex 7.967799871858622 9.631415534697364 -3
    endloop
  endfacet
  facet normal 0 0 -1
    outer loop
      vertex 9.112107842767646 -8.556838824108606 -3
      vertex 9.112107842767644 8.55683882410861 -3
      vertex 10.112712429686843 7.347315653655914 -3
    endloop
  endfacet
  facet normal 0 0 -1
    outer loop
      vertex 10.112712429686843 -7.347315653655914 -3
      vertex 10.112712429686843 7.347315653655914 -3
      vertex 10.953833500548296 6.0219209262714415 -3
    endloop
  endfacet
  facet normal 0 0 -1
    outer loop
      vertex 10.953833500548294 -6.021920926271442 -3
      vertex 10.953833500548296 6.0219209262714415 -3
      vertex 11.622206073603142 4.601556908558475 -3
    endloop
  endfacet
  facet normal 0 0 -1
    outer loop
      vertex 12.401433766430973 -1.5666654195538008 -3
      vertex 12.401433766430973 1.5666654195538032 -3
      vertex 12.5 0 -3
    endloop
  endfacet
  facet normal 0 0 -1
    outer loop
      vertex 12.10728951410789 -3.1086235895606804 -3
      vertex 12.107289514107888 3.108623589560685 -3
      vertex 12.401433766430973 1.5666654195538032 -3
    endloop
  endfacet
  facet normal 0 0 -1
    outer loop
      vertex 11.62220607360314 -4.6015569085584795 -3
      vertex 11.622206073603142 4.601556908558475 -3
      vertex 12.107289514107888 3.108623589560685 -3
    endloop
  endfacet
  facet normal 0.9980267284282716 0.0627905195293134 0
    outer loop
      vertex 12.5 0 -3
      vertex 12.401433766430973 1.5666654195538032 -3
      vertex 12.5 0 0
    endloop
  endfacet
  facet normal 0.9822872507286886 0.18738131458572493 0
    outer loop
      vertex 12.401433766430973 1.5666654195538032 -3
      vertex 12.107289514107888 3.108623589560685 -3
      vertex 12.401433766430973 1.5666654195538032 0
    endloop
  endfacet
  facet normal 0.9510565162951535 0.30901699437494756 0
    outer loop
      vertex 12.107289514107888 3.108623589560685 -3
      vertex 11.622206073603142 4.601556908558475 -3
      vertex 12.107289514107888 3.108623589560685 0
    endloop
  endfacet
  facet normal 0.90482705246602 0.42577929156507177 0
    outer loop
      vertex 11.622206073603142 4.601556908558475 -3
      vertex 10.953833500548296 6.0219209262714415 -3
      vertex 11.622206073603142 4.601556908558475 0
    endloop
  endfacet
  facet normal 0.6845471059286882 0.7289686274214122 0
    outer loop
      vertex 9.112107842767644 8.55683882410861 -3
      vertex 7.967799871858622 9.631415534697364 -3
      vertex 7.967799871858622 9.631415534697364 0
    endloop
  endfacet
  facet normal 0.5877852522924739 0.8090169943749468 0
    outer loop
      vertex 6.697834937237459 10.554099068775189 -3
      vertex 6.697834937237459 10.554099068775189 0
      vertex 7.967799871858622 9.631415534697364 -3
    endloop
  endfacet
  facet normal 0.7705132427757895 0.6374239897486893 0
    outer loop
      vertex 9.112107842767644 8.55683882410861 -3
      vertex 10.112712429686843 7.347315653655914 0
      vertex 10.112712429686843 7.347315653655914 -3
    endloop
  endfacet
  facet normal 0.8443279255020147 0.5358267949789971 0
    outer loop
      vertex 10.953833500548296 6.0219209262714415 -3
      vertex 10.112712429686843 7.347315653655914 -3
      vertex 10.953833500548296 6.0219209262714415 0
    endloop
  endfacet
  facet normal 0 0 1
    outer loop
      vertex 6.697834937237452 -10.55409906877519 0
      vertex 5.322241144563409 11.310338155825244 0
      vertex 5.4 0 0
    endloop
  endfacet
  facet normal 0 0 1
    outer loop
      vertex 3.8627124296868423 11.888206453689419 0
      vertex 4.368691769624717 3.174040362379355 0
      vertex 4.732056072236864 2.601469840149263 0
    endloop
  endfacet
  facet normal 0 0 1
    outer loop
      vertex 5.322241144563409 11.310338155825244 0
      vertex 5.357419387098181 0.676799461247243 0
      vertex 5.4 0 0
    endloop
  endfacet
  facet normal 0 0 1
    outer loop
      vertex 5.322241144563409 11.310338155825244 0
      vertex 5.230349070094608 1.3429253906902159 0
      vertex 5.357419387098181 0.676799461247243 0
    endloop
  endfacet
  facet normal 0 0 1
    outer loop
      vertex 6.697834937237452 -10.55409906877519 0
      vertex 6.697834937237459 10.554099068775189 0
      vertex 5.322241144563409 11.310338155825244 0
    endloop
  endfacet
  facet normal 0 0 1
    outer loop
      vertex 5.322241144563409 11.310338155825244 0
      vertex 4.732056072236864 2.601469840149263 0
      vertex 5.020793023796558 1.9878725844972611 0
    endloop
  endfacet
  facet normal 0 0 1
    outer loop
      vertex 5.322241144563409 11.310338155825244 0
      vertex 5.020793023796558 1.9878725844972611 0
      vertex 5.230349070094608 1.3429253906902159 0
    endloop
  endfacet
  facet normal 0 1 0
    outer loop
      vertex -0.784881494116416 12.475334105353394 0
      vertex 0.784881494116416 12.475334105353394 0
      vertex 0.784881494116416 12.475334105353394 -3
    endloop
  endfacet
  facet normal 0.12533323356430362 0.9921147013144779 0
    outer loop
      vertex 2.342266432321557 12.278590634108609 -3
      vertex 0.784881494116416 12.475334105353394 0
      vertex 2.342266432321557 12.278590634108609 0
    endloop
  endfacet
  facet normal 0.24868988716485538 0.9685831611286311 0
    outer loop
      vertex 3.8627124296868423 11.888206453689419 -3
      vertex 2.342266432321557 12.278590634108609 0
      vertex 3.8627124296868423 11.888206453689419 0
    endloop
  endfacet
  facet normal 0.4817536741017151 0.8763066800438637 0
    outer loop
      vertex 5.322241144563409 11.310338155825244 0
      vertex 6.697834937237459 10.554099068775189 0
      vertex 6.697834937237459 10.554099068775189 -3
    endloop
  endfacet
  facet normal 0.36812455268467714 0.9297764858882517 0
    outer loop
      vertex 5.322241144563409 11.310338155825244 -3
      vertex 3.8627124296868423 11.888206453689419 0
      vertex 5.322241144563409 11.310338155825244 0
    endloop
  endfacet
  facet normal 0 0 1
    outer loop
      vertex 0.784881494116416 12.475334105353394 0
      vertex -0.33906880545829 5.389344333512667 0
      vertex 0.3390688054582917 5.389344333512667 0
    endloop
  endfacet
  facet normal 0 0 1
    outer loop
      vertex 0.784881494116416 12.475334105353394 0
      vertex 0.3390688054582917 5.389344333512667 0
      vertex 1.0118590987629128 5.3043511539349195 0
    endloop
  endfacet
  facet normal 0 0 1
    outer loop
      vertex 0.784881494116416 12.475334105353394 0
      vertex 1.0118590987629128 5.3043511539349195 0
      vertex 1.668691769624716 5.135705187993829 0
    endloop
  endfacet
  facet normal 0 0 1
    outer loop
      vertex 2.342266432321557 12.278590634108609 0
      vertex 1.668691769624716 5.135705187993829 0
      vertex 2.299208174451393 4.886066083316505 0
    endloop
  endfacet
  facet normal 0 0 1
    outer loop
      vertex 2.342266432321557 12.278590634108609 0
      vertex 2.299208174451393 4.886066083316505 0
      vertex 2.893464692886582 4.559370797710882 0
    endloop
  endfacet
  facet normal 0 0 1
    outer loop
      vertex 0.784881494116416 12.475334105353394 0
      vertex 1.668691769624716 5.135705187993829 0
      vertex 2.342266432321557 12.278590634108609 0
    endloop
  endfacet
  facet normal 0 0 1
    outer loop
      vertex 2.342266432321557 12.278590634108609 0
      vertex 2.893464692886582 4.559370797710882 0
      vertex 3.8627124296868423 11.888206453689419 0
    endloop
  endfacet
  facet normal 0 0 1
    outer loop
      vertex 3.8627124296868423 11.888206453689419 0
      vertex 2.893464692886582 4.559370797710882 0
      vertex 3.4420895446429247 4.160771510989262 0
    endloop
  endfacet
  facet normal 0 0 1
    outer loop
      vertex 3.8627124296868423 11.888206453689419 0
      vertex 3.4420895446429247 4.160771510989262 0
      vertex 3.9364305880756225 3.696554372014919 0
    endloop
  endfacet
  facet normal 0 0 1
    outer loop
      vertex 3.8627124296868423 11.888206453689419 0
      vertex 3.9364305880756225 3.696554372014919 0
      vertex 4.368691769624717 3.174040362379355 0
    endloop
  endfacet
  facet normal 0 0 1
    outer loop
      vertex 3.8627124296868423 11.888206453689419 0
      vertex 4.732056072236864 2.601469840149263 0
      vertex 5.322241144563409 11.310338155825244 0
    endloop
  endfacet
  facet normal 0.9980267284282716 0.0627905195293134 0
    outer loop
      vertex 12.401433766430973 1.5666654195538032 -3
      vertex 12.401433766430973 1.5666654195538032 0
      vertex 12.5 0 0
    endloop
  endfacet
  facet normal 0.9822872507286886 0.18738131458572493 0
    outer loop
      vertex 12.107289514107888 3.108623589560685 -3
      vertex 12.107289514107888 3.108623589560685 0
      vertex 12.401433766430973 1.5666654195538032 0
    endloop
  endfacet
  facet normal 0.9510565162951535 0.30901699437494756 0
    outer loop
      vertex 11.622206073603142 4.601556908558475 -3
      vertex 11.622206073603142 4.601556908558475 0
      vertex 12.107289514107888 3.108623589560685 0
    endloop
  endfacet
  facet normal 0.90482705246602 0.42577929156507177 0
    outer loop
      vertex 10.953833500548296 6.0219209262714415 -3
      vertex 10.953833500548296 6.0219209262714415 0
      vertex 11.622206073603142 4.601556908558475 0
    endloop
  endfacet
  facet normal 0 0 1
    outer loop
      vertex 7.967799871858625 -9.631415534697362 0
      vertex 7.967799871858622 9.631415534697364 0
      vertex 6.697834937237459 10.554099068775189 0
    endloop
  endfacet
  facet normal 0 0 1
    outer loop
      vertex 9.112107842767646 -8.556838824108606 0
      vertex 9.112107842767644 8.55683882410861 0
      vertex 7.967799871858622 9.631415534697364 0
    endloop
  endfacet
  facet normal 0 0 1
    outer loop
      vertex 10.112712429686843 -7.347315653655914 0
      vertex 10.112712429686843 7.347315653655914 0
      vertex 9.112107842767644 8.55683882410861 0
    endloop
  endfacet
  facet normal 0 0 1
    outer loop
      vertex 10.953833500548294 -6.021920926271442 0
      vertex 10.953833500548296 6.0219209262714415 0
      vertex 10.112712429686843 7.347315653655914 0
    endloop
  endfacet
  facet normal 0 0 1
    outer loop
      vertex 12.401433766430973 -1.5666654195538008 0
      vertex 12.5 0 0
      vertex 12.401433766430973 1.5666654195538032 0
    endloop
  endfacet
  facet normal 0 0 1
    outer loop
      vertex 12.10728951410789 -3.1086235895606804 0
      vertex 12.107289514107888 3.108623589560685 0
      vertex 11.622206073603142 4.601556908558475 0
    endloop
  endfacet
  facet normal 0 0 1
    outer loop
      vertex 12.401433766430973 -1.5666654195538008 0
      vertex 12.401433766430973 1.5666654195538032 0
      vertex 12.107289514107888 3.108623589560685 0
    endloop
  endfacet
  facet normal 0 0 1
    outer loop
      vertex 11.62220607360314 -4.6015569085584795 0
      vertex 11.622206073603142 4.601556908558475 0
      vertex 10.953833500548296 6.0219209262714415 0
    endloop
  endfacet
  facet normal 0.6845471059286882 0.7289686274214122 0
    outer loop
      vertex 9.112107842767644 8.55683882410861 -3
      vertex 7.967799871858622 9.631415534697364 0
      vertex 9.112107842767644 8.55683882410861 0
    endloop
  endfacet
  facet normal 0.5877852522924739 0.8090169943749468 0
    outer loop
      vertex 7.967799871858622 9.631415534697364 -3
      vertex 6.697834937237459 10.554099068775189 0
      vertex 7.967799871858622 9.631415534697364 0
    endloop
  endfacet
  facet normal 0.8443279255020147 0.5358267949789971 0
    outer loop
      vertex 10.953833500548296 6.0219209262714415 0
      vertex 10.112712429686843 7.347315653655914 -3
      vertex 10.112712429686843 7.347315653655914 0
    endloop
  endfacet
  facet normal 0.7705132427757895 0.6374239897486893 0
    outer loop
      vertex 9.112107842767644 8.55683882410861 -3
      vertex 9.112107842767644 8.55683882410861 0
      vertex 10.112712429686843 7.347315653655914 0
    endloop
  endfacet
  facet normal 0.6471655929890117 0.535381939478451 0.54271804293894
    outer loop
      vertex -2.520549215584035 -2.3669532624226575 -3
      vertex -2.7973318382426067 -2.032380545426667 -3
      vertex -4.368691769624717 -3.174040362379355 0
    endloop
  endfacet
  facet normal 0.7091636486560638 0.45004893655395517 0.5427180429389399
    outer loop
      vertex -2.7973318382426067 -2.032380545426667 -3
      vertex -3.0299988667670505 -1.6657559731440084 -3
      vertex -4.732056072236863 -2.6014698401492633 0
    endloop
  endfacet
  facet normal 0.7599777699499787 0.3576183930538032 0.5427180429389398
    outer loop
      vertex -3.0299988667670505 -1.6657559731440084 -3
      vertex -3.2148810031289927 -1.2728614340904825 -3
      vertex -5.020793023796558 -1.9878725844972607 0
    endloop
  endfacet
  facet normal 0.7988065878230702 0.2595479938643153 0.5427180429389398
    outer loop
      vertex -5.230349070094608 -1.3429253906902163 0
      vertex -3.2148810031289927 -1.2728614340904825 -3
      vertex -3.3490625455947667 -0.8598931098507866 -3
    endloop
  endfacet
  facet normal 0.825037748622265 0.1573843677651346 0.5427180429389399
    outer loop
      vertex -3.3490625455947667 -0.8598931098507866 -3
      vertex -3.4304273710835216 -0.43336375759349754 -3
      vertex -5.357419387098181 -0.676799461247242 0
    endloop
  endfacet
  facet normal 0.8382575712720258 0.052738696169432164 0.5427180429389399
    outer loop
      vertex -3.4304273710835216 -0.43336375759349754 -3
      vertex -3.457692307692308 0 -3
      vertex -5.4 0 0
    endloop
  endfacet
  facet normal 0.49368962171198433 0.6795054696486298 0.5427180429389399
    outer loop
      vertex -1.8527241872543003 -2.919426173178121 -3
      vertex -2.2040160260925847 -2.6641977125209024 -3
      vertex -2.8934646928865826 -4.559370797710881 0
    endloop
  endfacet
  facet normal 0.4046321138511504 0.7360230827283046 0.5427180429389398
    outer loop
      vertex -1.8527241872543003 -2.919426173178121 -3
      vertex -2.2992081744513913 -4.886066083316506 0
      vertex -1.472213781219231 -3.1286135391036605 -3
    endloop
  endfacet
  facet normal 0.30919331583937265 0.7809331721144782 0.5427180429389398
    outer loop
      vertex -1.472213781219231 -3.1286135391036605 -3
      vertex -2.2992081744513913 -4.886066083316506 0
      vertex -1.0684856843964528 -3.2884608005743963 -3
    endloop
  endfacet
  facet normal 0.2088783545336764 0.8135274788695406 0.5427180429389398
    outer loop
      vertex -0.6479069300483331 -3.396447070788812 -3
      vertex -1.0684856843964528 -3.2884608005743963 -3
      vertex -1.0118590987629141 -5.304351153934919 0
    endloop
  endfacet
  facet normal 0.1052692567991025 0.8332919713050713 0.5427180429389398
    outer loop
      vertex -0.2171102963725118 -3.4508693417577545 -3
      vertex -0.6479069300483331 -3.396447070788812 -3
      vertex -1.0118590987629141 -5.304351153934919 0
    endloop
  endfacet
  facet normal 0 0.8399149515686258 0.5427180429389398
    outer loop
      vertex 0.21711029637251184 -3.4508693417577545 -3
      vertex -0.2171102963725118 -3.4508693417577545 -3
      vertex -0.3390688054582943 -5.389344333512667 0
    endloop
  endfacet
  facet normal 0.5749613493225381 0.612271649395702 0.5427180429389399
    outer loop
      vertex -2.2040160260925847 -2.6641977125209024 -3
      vertex -2.520549215584035 -2.3669532624226575 -3
      vertex -3.4420895446429243 -4.160771510989263 0
    endloop
  endfacet
  facet normal 0.5749613493225377 0.6122716493957022 0.5427180429389399
    outer loop
      vertex -3.9364305880756234 -3.6965543720149183 0
      vertex -3.4420895446429243 -4.160771510989263 0
      vertex -2.520549215584035 -2.3669532624226575 -3
    endloop
  endfacet
  facet normal 0.8382575712720258 0.052738696169431463 0.54271804293894
    outer loop
      vertex -3.4304273710835216 -0.43336375759349754 -3
      vertex -5.4 0 0
      vertex -5.357419387098181 -0.676799461247242 0
    endloop
  endfacet
  facet normal 0.7091636486560638 0.45004893655395484 0.5427180429389399
    outer loop
      vertex -4.732056072236863 -2.6014698401492633 0
      vertex -4.368691769624717 -3.174040362379355 0
      vertex -2.7973318382426067 -2.032380545426667 -3
    endloop
  endfacet
  facet normal 0.759977769949979 0.35761839305380216 0.5427180429389399
    outer loop
      vertex -5.020793023796558 -1.9878725844972607 0
      vertex -4.732056072236863 -2.6014698401492633 0
      vertex -3.0299988667670505 -1.6657559731440084 -3
    endloop
  endfacet
  facet normal 0.6471655929890116 0.5353819394784511 0.5427180429389399
    outer loop
      vertex -3.9364305880756234 -3.6965543720149183 0
      vertex -2.520549215584035 -2.3669532624226575 -3
      vertex -4.368691769624717 -3.174040362379355 0
    endloop
  endfacet
  facet normal 0.79880658782307 0.25954799386431593 0.5427180429389397
    outer loop
      vertex -5.230349070094608 -1.3429253906902163 0
      vertex -5.020793023796558 -1.9878725844972607 0
      vertex -3.2148810031289927 -1.2728614340904825 -3
    endloop
  endfacet
  facet normal 0.825037748622265 0.15738436776513542 0.5427180429389399
    outer loop
      vertex -5.357419387098181 -0.676799461247242 0
      vertex -5.230349070094608 -1.3429253906902163 0
      vertex -3.3490625455947667 -0.8598931098507866 -3
    endloop
  endfacet
  facet normal 0.40463211385115 0.7360230827283049 0.5427180429389399
    outer loop
      vertex -2.8934646928865826 -4.559370797710881 0
      vertex -2.2992081744513913 -4.886066083316506 0
      vertex -1.8527241872543003 -2.919426173178121 -3
    endloop
  endfacet
  facet normal 0.49368962171198433 0.6795054696486297 0.5427180429389399
    outer loop
      vertex -2.8934646928865826 -4.559370797710881 0
      vertex -2.2040160260925847 -2.6641977125209024 -3
      vertex -3.4420895446429243 -4.160771510989263 0
    endloop
  endfacet
  facet normal 0.3091933158393729 0.7809331721144781 0.5427180429389399
    outer loop
      vertex -2.2992081744513913 -4.886066083316506 0
      vertex -1.668691769624716 -5.135705187993829 0
      vertex -1.0684856843964528 -3.2884608005743963 -3
    endloop
  endfacet
  facet normal 0.10526925679910268 0.8332919713050713 0.5427180429389398
    outer loop
      vertex -1.0118590987629141 -5.304351153934919 0
      vertex -0.3390688054582943 -5.389344333512667 0
      vertex -0.2171102963725118 -3.4508693417577545 -3
    endloop
  endfacet
  facet normal 0.20887835453367626 0.8135274788695407 0.5427180429389398
    outer loop
      vertex -1.668691769624716 -5.135705187993829 0
      vertex -1.0118590987629141 -5.304351153934919 0
      vertex -1.0684856843964528 -3.2884608005743963 -3
    endloop
  endfacet
  facet normal 0.8382575712720257 -0.05273869616943216 0.54271804293894
    outer loop
      vertex -3.4304273710835216 0.43336375759349754 -3
      vertex -5.357419387098181 0.676799461247242 0
      vertex -3.457692307692308 0 -3
    endloop
  endfacet
  facet normal 0.8250377486222652 -0.15738436776513492 0.5427180429389398
    outer loop
      vertex -5.230349070094608 1.3429253906902163 0
      vertex -3.4304273710835216 0.43336375759349754 -3
      vertex -3.3490625455947667 0.8598931098507866 -3
    endloop
  endfacet
  facet normal 0.7988065878230699 -0.2595479938643165 0.5427180429389399
    outer loop
      vertex -5.020793023796558 1.9878725844972607 0
      vertex -3.3490625455947667 0.8598931098507866 -3
      vertex -3.2148810031289923 1.2728614340904825 -3
    endloop
  endfacet
  facet normal 0.7599777699499792 -0.35761839305380183 0.5427180429389398
    outer loop
      vertex -3.029998866767051 1.6657559731440084 -3
      vertex -5.020793023796558 1.9878725844972607 0
      vertex -3.2148810031289923 1.2728614340904825 -3
    endloop
  endfacet
  facet normal 0.7091636486560638 -0.45004893655395517 0.5427180429389399
    outer loop
      vertex -2.797331838242607 2.032380545426667 -3
      vertex -4.368691769624717 3.174040362379355 0
      vertex -3.029998866767051 1.6657559731440084 -3
    endloop
  endfacet
  facet normal 0.6471655929890118 -0.5353819394784511 0.5427180429389399
    outer loop
      vertex -2.797331838242607 2.032380545426667 -3
      vertex -2.5205492155840354 2.3669532624226575 -3
      vertex -3.9364305880756234 3.6965543720149183 0
    endloop
  endfacet
  facet normal 0.5749613493225376 -0.6122716493957024 0.5427180429389399
    outer loop
      vertex -2.5205492155840354 2.3669532624226575 -3
      vertex -2.2040160260925847 2.6641977125209024 -3
      vertex -3.4420895446429243 4.160771510989263 0
    endloop
  endfacet
  facet normal 0.49368962171198433 -0.6795054696486298 0.5427180429389399
    outer loop
      vertex -2.2040160260925847 2.6641977125209024 -3
      vertex -1.8527241872543003 2.919426173178121 -3
      vertex -2.8934646928865826 4.559370797710881 0
    endloop
  endfacet
  facet normal 0.40463211385114994 -0.7360230827283047 0.5427180429389398
    outer loop
      vertex -1.8527241872543003 2.919426173178121 -3
      vertex -1.4722137812192322 3.1286135391036596 -3
      vertex -2.299208174451393 4.886066083316505 0
    endloop
  endfacet
  facet normal 0.3091933158393734 -0.7809331721144779 0.5427180429389399
    outer loop
      vertex -1.4722137812192322 3.1286135391036596 -3
      vertex -1.0684856843964528 3.2884608005743963 -3
      vertex -1.668691769624716 5.135705187993829 0
    endloop
  endfacet
  facet normal 0.208878354533676 -0.8135274788695407 0.5427180429389399
    outer loop
      vertex -1.0684856843964528 3.2884608005743963 -3
      vertex -0.6479069300483323 3.396447070788812 -3
      vertex -1.0118590987629128 5.3043511539349195 0
    endloop
  endfacet
  facet normal 0.10526925679910258 -0.8332919713050714 0.5427180429389398
    outer loop
      vertex -0.33906880545829 5.389344333512667 0
      vertex -0.6479069300483323 3.396447070788812 -3
      vertex -0.21711029637251014 3.4508693417577545 -3
    endloop
  endfacet
  facet normal 0.8382575712720258 -0.052738696169431463 0.5427180429389399
    outer loop
      vertex -5.357419387098181 0.676799461247242 0
      vertex -5.4 0 0
      vertex -3.457692307692308 0 -3
    endloop
  endfacet
  facet normal 0.825037748622265 -0.15738436776513542 0.5427180429389399
    outer loop
      vertex -5.230349070094608 1.3429253906902163 0
      vertex -5.357419387098181 0.676799461247242 0
      vertex -3.4304273710835216 0.43336375759349754 -3
    endloop
  endfacet
  facet normal 0.79880658782307 -0.25954799386431593 0.5427180429389398
    outer loop
      vertex -5.020793023796558 1.9878725844972607 0
      vertex -5.230349070094608 1.3429253906902163 0
      vertex -3.3490625455947667 0.8598931098507866 -3
    endloop
  endfacet
  facet normal 0.7599777699499791 -0.3576183930538022 0.5427180429389399
    outer loop
      vertex -4.732056072236863 2.6014698401492633 0
      vertex -5.020793023796558 1.9878725844972607 0
      vertex -3.029998866767051 1.6657559731440084 -3
    endloop
  endfacet
  facet normal 0.709163648656064 -0.45004893655395495 0.5427180429389398
    outer loop
      vertex -4.368691769624717 3.174040362379355 0
      vertex -4.732056072236863 2.6014698401492633 0
      vertex -3.029998866767051 1.6657559731440084 -3
    endloop
  endfacet
  facet normal 0.6471655929890117 -0.5353819394784511 0.54271804293894
    outer loop
      vertex -2.797331838242607 2.032380545426667 -3
      vertex -3.9364305880756234 3.6965543720149183 0
      vertex -4.368691769624717 3.174040362379355 0
    endloop
  endfacet
  facet normal 0.5749613493225377 -0.6122716493957022 0.5427180429389398
    outer loop
      vertex -3.4420895446429243 4.160771510989263 0
      vertex -3.9364305880756234 3.6965543720149183 0
      vertex -2.5205492155840354 2.3669532624226575 -3
    endloop
  endfacet
  facet normal 0.49368962171198433 -0.6795054696486297 0.5427180429389399
    outer loop
      vertex -2.8934646928865826 4.559370797710881 0
      vertex -3.4420895446429243 4.160771510989263 0
      vertex -2.2040160260925847 2.6641977125209024 -3
    endloop
  endfacet
  facet normal 0.40463211385115005 -0.7360230827283047 0.5427180429389398
    outer loop
      vertex -2.299208174451393 4.886066083316505 0
      vertex -2.8934646928865826 4.559370797710881 0
      vertex -1.8527241872543003 2.919426173178121 -3
    endloop
  endfacet
  facet normal 0.3091933158393731 -0.780933172114478 0.5427180429389399
    outer loop
      vertex -1.668691769624716 5.135705187993829 0
      vertex -2.299208174451393 4.886066083316505 0
      vertex -1.4722137812192322 3.1286135391036596 -3
    endloop
  endfacet
  facet normal 0.2088783545336769 -0.8135274788695406 0.5427180429389398
    outer loop
      vertex -1.0684856843964528 3.2884608005743963 -3
      vertex -1.0118590987629128 5.3043511539349195 0
      vertex -1.668691769624716 5.135705187993829 0
    endloop
  endfacet
  facet normal 0.10526925679910114 -0.8332919713050714 0.54271804293894
    outer loop
      vertex -0.33906880545829 5.389344333512667 0
      vertex -1.0118590987629128 5.3043511539349195 0
      vertex -0.6479069300483323 3.396447070788812 -3
    endloop
  endfacet
  facet normal 0 -0.8399149515686258 0.5427180429389399
    outer loop
      vertex -0.33906880545829 5.389344333512667 0
      vertex -0.21711029637251014 3.4508693417577545 -3
      vertex 0.3390688054582917 5.389344333512667 0
    endloop
  endfacet
  facet normal -0.10526925679910336 0.8332919713050712 0.5427180429389398
    outer loop
      vertex 0.21711029637251184 -3.4508693417577545 -3
      vertex 0.3390688054582943 -5.389344333512667 0
      vertex 0.6479069300483331 -3.3964470707888115 -3
    endloop
  endfacet
  facet normal -0.20887835453367556 0.8135274788695407 0.5427180429389399
    outer loop
      vertex 1.0684856843964528 -3.2884608005743963 -3
      vertex 0.6479069300483331 -3.3964470707888115 -3
      vertex 1.0118590987629141 -5.304351153934919 0
    endloop
  endfacet
  facet normal -0.3091933158393732 0.7809331721144778 0.5427180429389398
    outer loop
      vertex 1.4722137812192313 -3.12861353910366 -3
      vertex 1.0684856843964528 -3.2884608005743963 -3
      vertex 1.668691769624716 -5.135705187993829 0
    endloop
  endfacet
  facet normal -0.4046321138511492 0.7360230827283053 0.5427180429389399
    outer loop
      vertex 1.8527241872542988 -2.919426173178122 -3
      vertex 1.4722137812192313 -3.12861353910366 -3
      vertex 2.2992081744513913 -4.886066083316506 0
    endloop
  endfacet
  facet normal -0.49368962171198494 0.6795054696486295 0.5427180429389398
    outer loop
      vertex 2.2040160260925856 -2.6641977125209015 -3
      vertex 1.8527241872542988 -2.919426173178122 -3
      vertex 2.89346469288658 -4.559370797710883 0
    endloop
  endfacet
  facet normal -0.5749613493225375 0.6122716493957024 0.5427180429389399
    outer loop
      vertex 2.520549215584035 -2.366953262422658 -3
      vertex 2.2040160260925856 -2.6641977125209015 -3
      vertex 3.442089544642926 -4.160771510989261 0
    endloop
  endfacet
  facet normal -0.6471655929890121 0.5353819394784507 0.5427180429389398
    outer loop
      vertex 2.520549215584035 -2.366953262422658 -3
      vertex 3.9364305880756234 -3.6965543720149183 0
      vertex 2.7973318382426067 -2.032380545426667 -3
    endloop
  endfacet
  facet normal -0.7091636486560633 0.45004893655395567 0.5427180429389399
    outer loop
      vertex 2.7973318382426067 -2.032380545426667 -3
      vertex 4.368691769624717 -3.174040362379355 0
      vertex 3.029998866767051 -1.6657559731440084 -3
    endloop
  endfacet
  facet normal -0.7599777699499791 0.3576183930538023 0.5427180429389399
    outer loop
      vertex 3.029998866767051 -1.6657559731440084 -3
      vertex 5.020793023796557 -1.9878725844972633 0
      vertex 3.214881003128992 -1.272861434090484 -3
    endloop
  endfacet
  facet normal -0.7988065878230699 0.2595479938643162 0.5427180429389399
    outer loop
      vertex 3.214881003128992 -1.272861434090484 -3
      vertex 5.020793023796557 -1.9878725844972633 0
      vertex 3.349062545594767 -0.8598931098507852 -3
    endloop
  endfacet
  facet normal -0.8250377486222653 0.15738436776513376 0.5427180429389398
    outer loop
      vertex 5.230349070094609 -1.342925390690214 0
      vertex 3.4304273710835216 -0.43336375759349754 -3
      vertex 3.349062545594767 -0.8598931098507852 -3
    endloop
  endfacet
  facet normal -0.8382575712720257 0.05273869616943216 0.54271804293894
    outer loop
      vertex 3.4304273710835216 -0.43336375759349754 -3
      vertex 5.357419387098181 -0.676799461247242 0
      vertex 3.457692307692308 0 -3
    endloop
  endfacet
  facet normal 0 0.8399149515686258 0.5427180429389399
    outer loop
      vertex -0.3390688054582943 -5.389344333512667 0
      vertex 0.3390688054582943 -5.389344333512667 0
      vertex 0.21711029637251184 -3.4508693417577545 -3
    endloop
  endfacet
  facet normal -0.10526925679910268 0.8332919713050713 0.5427180429389399
    outer loop
      vertex 0.3390688054582943 -5.389344333512667 0
      vertex 1.0118590987629141 -5.304351153934919 0
      vertex 0.6479069300483331 -3.3964470707888115 -3
    endloop
  endfacet
  facet normal -0.20887835453367662 0.8135274788695407 0.5427180429389398
    outer loop
      vertex 1.0684856843964528 -3.2884608005743963 -3
      vertex 1.0118590987629141 -5.304351153934919 0
      vertex 1.668691769624716 -5.135705187993829 0
    endloop
  endfacet
  facet normal -0.3091933158393729 0.7809331721144781 0.5427180429389399
    outer loop
      vertex 1.668691769624716 -5.135705187993829 0
      vertex 2.2992081744513913 -4.886066083316506 0
      vertex 1.4722137812192313 -3.12861353910366 -3
    endloop
  endfacet
  facet normal -0.40463211385114967 0.736023082728305 0.5427180429389398
    outer loop
      vertex 2.2992081744513913 -4.886066083316506 0
      vertex 2.89346469288658 -4.559370797710883 0
      vertex 1.8527241872542988 -2.919426173178122 -3
    endloop
  endfacet
  facet normal -0.49368962171198466 0.6795054696486296 0.5427180429389398
    outer loop
      vertex 2.89346469288658 -4.559370797710883 0
      vertex 3.442089544642926 -4.160771510989261 0
      vertex 2.2040160260925856 -2.6641977125209015 -3
    endloop
  endfacet
  facet normal -0.5749613493225377 0.6122716493957024 0.5427180429389399
    outer loop
      vertex 3.442089544642926 -4.160771510989261 0
      vertex 3.9364305880756234 -3.6965543720149183 0
      vertex 2.520549215584035 -2.366953262422658 -3
    endloop
  endfacet
  facet normal -0.6471655929890116 0.5353819394784511 0.5427180429389399
    outer loop
      vertex 3.9364305880756234 -3.6965543720149183 0
      vertex 4.368691769624717 -3.174040362379355 0
      vertex 2.7973318382426067 -2.032380545426667 -3
    endloop
  endfacet
  facet normal -0.709163648656064 0.45004893655395495 0.5427180429389398
    outer loop
      vertex 4.368691769624717 -3.174040362379355 0
      vertex 4.732056072236863 -2.6014698401492633 0
      vertex 3.029998866767051 -1.6657559731440084 -3
    endloop
  endfacet
  facet normal -0.7599777699499789 0.3576183930538026 0.5427180429389398
    outer loop
      vertex 4.732056072236863 -2.6014698401492633 0
      vertex 5.020793023796557 -1.9878725844972633 0
      vertex 3.029998866767051 -1.6657559731440084 -3
    endloop
  endfacet
  facet normal -0.7988065878230699 0.25954799386431615 0.5427180429389399
    outer loop
      vertex 5.020793023796557 -1.9878725844972633 0
      vertex 5.230349070094609 -1.342925390690214 0
      vertex 3.349062545594767 -0.8598931098507852 -3
    endloop
  endfacet
  facet normal -0.825037748622265 0.15738436776513484 0.5427180429389399
    outer loop
      vertex 5.230349070094609 -1.342925390690214 0
      vertex 5.357419387098181 -0.676799461247242 0
      vertex 3.4304273710835216 -0.43336375759349754 -3
    endloop
  endfacet
  facet normal -0.8382575712720258 0.052738696169431463 0.5427180429389399
    outer loop
      vertex 5.357419387098181 -0.676799461247242 0
      vertex 5.4 0 0
      vertex 3.457692307692308 0 -3
    endloop
  endfacet
  facet normal -0.5749613493225362 -0.6122716493957037 0.54271804293894
    outer loop
      vertex 2.2040160260925847 2.6641977125209015 -3
      vertex 2.520549215584035 2.3669532624226584 -3
      vertex 3.4420895446429247 4.160771510989262 0
    endloop
  endfacet
  facet normal 0 -0.8399149515686258 0.5427180429389399
    outer loop
      vertex -0.21711029637251014 3.4508693417577545 -3
      vertex 0.2171102963725079 3.4508693417577545 -3
      vertex 0.3390688054582917 5.389344333512667 0
    endloop
  endfacet
  facet normal -0.1052692567991009 -0.8332919713050714 0.5427180429389399
    outer loop
      vertex 1.0118590987629128 5.3043511539349195 0
      vertex 0.2171102963725079 3.4508693417577545 -3
      vertex 0.6479069300483323 3.3964470707888124 -3
    endloop
  endfacet
  facet normal -0.2088783545336768 -0.8135274788695405 0.5427180429389398
    outer loop
      vertex 0.6479069300483323 3.3964470707888124 -3
      vertex 1.0684856843964528 3.2884608005743963 -3
      vertex 1.0118590987629128 5.3043511539349195 0
    endloop
  endfacet
  facet normal -0.3091933158393734 -0.7809331721144779 0.5427180429389399
    outer loop
      vertex 1.4722137812192322 3.1286135391036596 -3
      vertex 2.299208174451393 4.886066083316505 0
      vertex 1.0684856843964528 3.2884608005743963 -3
    endloop
  endfacet
  facet normal -0.40463211385114883 -0.7360230827283054 0.5427180429389399
    outer loop
      vertex 1.8527241872543 2.9194261731781217 -3
      vertex 2.299208174451393 4.886066083316505 0
      vertex 1.4722137812192322 3.1286135391036596 -3
    endloop
  endfacet
  facet normal -0.49368962171198644 -0.6795054696486283 0.5427180429389398
    outer loop
      vertex 1.8527241872543 2.9194261731781217 -3
      vertex 2.2040160260925847 2.6641977125209015 -3
      vertex 2.893464692886582 4.559370797710882 0
    endloop
  endfacet
  facet normal -0.8382575712720258 -0.05273869616943208 0.5427180429389399
    outer loop
      vertex 3.457692307692308 0 -3
      vertex 5.4 0 0
      vertex 3.4304273710835216 0.43336375759349816 -3
    endloop
  endfacet
  facet normal -0.825037748622265 -0.15738436776513487 0.54271804293894
    outer loop
      vertex 3.3490625455947667 0.8598931098507865 -3
      vertex 3.4304273710835216 0.43336375759349816 -3
      vertex 5.357419387098181 0.676799461247243 0
    endloop
  endfacet
  facet normal -0.79880658782307 -0.2595479938643162 0.5427180429389398
    outer loop
      vertex 3.2148810031289923 1.2728614340904827 -3
      vertex 3.3490625455947667 0.8598931098507865 -3
      vertex 5.230349070094608 1.3429253906902159 0
    endloop
  endfacet
  facet normal -0.7599777699499793 -0.35761839305380155 0.5427180429389399
    outer loop
      vertex 3.0299988667670514 1.665755973144008 -3
      vertex 3.2148810031289923 1.2728614340904827 -3
      vertex 5.020793023796558 1.9878725844972611 0
    endloop
  endfacet
  facet normal -0.7091636486560633 -0.45004893655395595 0.5427180429389399
    outer loop
      vertex 2.7973318382426067 2.032380545426667 -3
      vertex 3.0299988667670514 1.665755973144008 -3
      vertex 4.732056072236864 2.601469840149263 0
    endloop
  endfacet
  facet normal -0.6471655929890123 -0.5353819394784501 0.54271804293894
    outer loop
      vertex 2.520549215584035 2.3669532624226584 -3
      vertex 2.7973318382426067 2.032380545426667 -3
      vertex 4.368691769624717 3.174040362379355 0
    endloop
  endfacet
  facet normal -0.2088783545336769 -0.8135274788695406 0.5427180429389398
    outer loop
      vertex 1.668691769624716 5.135705187993829 0
      vertex 1.0118590987629128 5.3043511539349195 0
      vertex 1.0684856843964528 3.2884608005743963 -3
    endloop
  endfacet
  facet normal -0.1052692567991014 -0.8332919713050714 0.5427180429389399
    outer loop
      vertex 1.0118590987629128 5.3043511539349195 0
      vertex 0.3390688054582917 5.389344333512667 0
      vertex 0.2171102963725079 3.4508693417577545 -3
    endloop
  endfacet
  facet normal -0.3091933158393731 -0.780933172114478 0.5427180429389399
    outer loop
      vertex 2.299208174451393 4.886066083316505 0
      vertex 1.668691769624716 5.135705187993829 0
      vertex 1.0684856843964528 3.2884608005743963 -3
    endloop
  endfacet
  facet normal -0.4936896217119852 -0.679505469648629 0.54271804293894
    outer loop
      vertex 2.2040160260925847 2.6641977125209015 -3
      vertex 3.4420895446429247 4.160771510989262 0
      vertex 2.893464692886582 4.559370797710882 0
    endloop
  endfacet
  facet normal -0.40463211385114944 -0.7360230827283051 0.5427180429389398
    outer loop
      vertex 2.893464692886582 4.559370797710882 0
      vertex 2.299208174451393 4.886066083316505 0
      vertex 1.8527241872543 2.9194261731781217 -3
    endloop
  endfacet
  facet normal -0.825037748622265 -0.15738436776513576 0.5427180429389399
    outer loop
      vertex 5.357419387098181 0.676799461247243 0
      vertex 5.230349070094608 1.3429253906902159 0
      vertex 3.3490625455947667 0.8598931098507865 -3
    endloop
  endfacet
  facet normal -0.7988065878230701 -0.2595479938643156 0.5427180429389399
    outer loop
      vertex 3.2148810031289923 1.2728614340904827 -3
      vertex 5.230349070094608 1.3429253906902159 0
      vertex 5.020793023796558 1.9878725844972611 0
    endloop
  endfacet
  facet normal -0.6471655929890117 -0.5353819394784514 0.5427180429389398
    outer loop
      vertex 4.368691769624717 3.174040362379355 0
      vertex 3.9364305880756225 3.696554372014919 0
      vertex 2.520549215584035 2.3669532624226584 -3
    endloop
  endfacet
  facet normal -0.7599777699499795 -0.35761839305380144 0.5427180429389399
    outer loop
      vertex 3.0299988667670514 1.665755973144008 -3
      vertex 5.020793023796558 1.9878725844972611 0
      vertex 4.732056072236864 2.601469840149263 0
    endloop
  endfacet
  facet normal -0.7091636486560635 -0.45004893655395545 0.54271804293894
    outer loop
      vertex 4.732056072236864 2.601469840149263 0
      vertex 4.368691769624717 3.174040362379355 0
      vertex 2.7973318382426067 2.032380545426667 -3
    endloop
  endfacet
  facet normal -0.8382575712720257 -0.05273869616943137 0.5427180429389399
    outer loop
      vertex 3.4304273710835216 0.43336375759349816 -3
      vertex 5.4 0 0
      vertex 5.357419387098181 0.676799461247243 0
    endloop
  endfacet
  facet normal -0.5749613493225374 -0.6122716493957027 0.5427180429389398
    outer loop
      vertex 3.9364305880756225 3.696554372014919 0
      vertex 3.4420895446429247 4.160771510989262 0
      vertex 2.520549215584035 2.3669532624226584 -3
    endloop
  endfacet
endsolid OpenSCAD_Model
