solid OpenSCAD_Model
  facet normal -0.996787 -0.0627113 -0.0498393
    outer loop
      vertex 10.075 0 -5
      vertex 9.925 0 -2
      vertex 9.84674 1.24393 -2
    endloop
  endfacet
  facet normal -0.996786 -0.062717 -0.0498369
    outer loop
      vertex 9.99555 1.26273 -5
      vertex 10.075 0 -5
      vertex 9.84674 1.24393 -2
    endloop
  endfacet
  facet normal 0.996787 -0.0627113 -0.0498393
    outer loop
      vertex -9.84674 1.24393 -2
      vertex -9.925 0 -2
      vertex -10.075 0 -5
    endloop
  endfacet
  facet normal -0.981067 -0.187147 -0.0498399
    outer loop
      vertex 9.75848 2.50555 -5
      vertex 9.84674 1.24393 -2
      vertex 9.61319 2.46825 -2
    endloop
  endfacet
  facet normal 0 -0.998757 -0.0498347
    outer loop
      vertex -0.632614 10.0551 -5
      vertex 0.623196 9.90541 -2
      vertex -0.623196 9.90541 -2
    endloop
  endfacet
  facet normal 0 -0.998757 -0.0498347
    outer loop
      vertex 0.623196 9.90541 -2
      vertex -0.632614 10.0551 -5
      vertex 0.632614 10.0551 -5
    endloop
  endfacet
  facet normal 0 0.998757 -0.0498347
    outer loop
      vertex 0.632614 -10.0551 -5
      vertex -0.623196 -9.90541 -2
      vertex 0.623196 -9.90541 -2
    endloop
  endfacet
  facet normal 0 0.998757 -0.0498347
    outer loop
      vertex -0.623196 -9.90541 -2
      vertex 0.632614 -10.0551 -5
      vertex -0.632614 -10.0551 -5
    endloop
  endfacet
  facet normal -0.9037 0.425254 -0.0498415
    outer loop
      vertex 9.22803 -3.65364 -2
      vertex 8.82879 -4.85367 -5
      vertex 8.69734 -4.7814 -2
    endloop
  endfacet
  facet normal -0.683695 -0.728064 -0.0498415
    outer loop
      vertex 6.42205 7.76292 -5
      vertex 7.23501 6.79413 -2
      vertex 6.32643 7.64734 -2
    endloop
  endfacet
  facet normal 0.996786 0.062717 -0.0498369
    outer loop
      vertex -9.84674 -1.24393 -2
      vertex -9.99555 -1.26273 -5
      vertex -10.075 0 -5
    endloop
  endfacet
  facet normal 0.949874 0.308636 -0.0498396
    outer loop
      vertex -9.22803 -3.65364 -2
      vertex -9.3675 -3.70885 -5
      vertex -9.75848 -2.50555 -5
    endloop
  endfacet
  facet normal -0.683695 0.728064 -0.0498415
    outer loop
      vertex 7.23501 -6.79413 -2
      vertex 6.42205 -7.76292 -5
      vertex 6.32643 -7.64734 -2
    endloop
  endfacet
  facet normal -0.949874 0.308635 -0.0498398
    outer loop
      vertex 9.61319 -2.46825 -2
      vertex 9.75848 -2.50555 -5
      vertex 9.22803 -3.65364 -2
    endloop
  endfacet
  facet normal -0.9037 -0.425254 -0.0498415
    outer loop
      vertex 8.82879 4.85367 -5
      vertex 9.22803 3.65364 -2
      vertex 8.69734 4.7814 -2
    endloop
  endfacet
  facet normal -0.981068 -0.18714 -0.049837
    outer loop
      vertex 9.99555 1.26273 -5
      vertex 9.84674 1.24393 -2
      vertex 9.75848 2.50555 -5
    endloop
  endfacet
  facet normal 0.769555 -0.636632 -0.0498401
    outer loop
      vertex -7.34436 6.89681 -5
      vertex -7.23501 6.79413 -2
      vertex -8.02949 5.83377 -2
    endloop
  endfacet
  facet normal -0.367668 -0.928621 -0.0498385
    outer loop
      vertex 4.28973 9.11613 -5
      vertex 4.22586 8.98041 -2
      vertex 3.06699 9.43924 -2
    endloop
  endfacet
  facet normal -0.367666 -0.928622 -0.0498376
    outer loop
      vertex 3.11335 9.58189 -5
      vertex 4.28973 9.11613 -5
      vertex 3.06699 9.43924 -2
    endloop
  endfacet
  facet normal 0.683698 0.728061 -0.0498399
    outer loop
      vertex -7.23501 -6.79413 -2
      vertex -6.42205 -7.76292 -5
      vertex -7.34436 -6.89681 -5
    endloop
  endfacet
  facet normal 0 0 -1
    outer loop
      vertex 10.075 0 -5
      vertex 12 0 -5
      vertex 11.9054 -1.504 -5
    endloop
  endfacet
  facet normal 0 0 -1
    outer loop
      vertex 9.99555 -1.26273 -5
      vertex 11.9054 -1.504 -5
      vertex 11.623 -2.98428 -5
    endloop
  endfacet
  facet normal 0 0 -1
    outer loop
      vertex 12 0 -5
      vertex 10.075 0 -5
      vertex 11.9054 1.504 -5
    endloop
  endfacet
  facet normal 0 0 -1
    outer loop
      vertex 9.75848 -2.50555 -5
      vertex 11.623 -2.98428 -5
      vertex 11.1573 -4.41749 -5
    endloop
  endfacet
  facet normal 0 0 -1
    outer loop
      vertex 9.99555 1.26273 -5
      vertex 11.9054 1.504 -5
      vertex 10.075 0 -5
    endloop
  endfacet
  facet normal 0 0 -1
    outer loop
      vertex 9.3675 -3.70885 -5
      vertex 11.1573 -4.41749 -5
      vertex 10.5157 -5.78104 -5
    endloop
  endfacet
  facet normal -0 0 -1
    outer loop
      vertex 11.9054 1.504 -5
      vertex 9.99555 1.26273 -5
      vertex 11.623 2.98428 -5
    endloop
  endfacet
  facet normal 0 0 -1
    outer loop
      vertex 9.75848 2.50555 -5
      vertex 11.623 2.98428 -5
      vertex 9.99555 1.26273 -5
    endloop
  endfacet
  facet normal 0 0 -1
    outer loop
      vertex 11.9054 -1.504 -5
      vertex 9.99555 -1.26273 -5
      vertex 10.075 0 -5
    endloop
  endfacet
  facet normal 0 0 -1
    outer loop
      vertex 11.623 -2.98428 -5
      vertex 9.75848 -2.50555 -5
      vertex 9.99555 -1.26273 -5
    endloop
  endfacet
  facet normal 0 0 -1
    outer loop
      vertex 8.82879 -4.85367 -5
      vertex 10.5157 -5.78104 -5
      vertex 9.7082 -7.05342 -5
    endloop
  endfacet
  facet normal 0 0 -1
    outer loop
      vertex 11.1573 -4.41749 -5
      vertex 9.3675 -3.70885 -5
      vertex 9.75848 -2.50555 -5
    endloop
  endfacet
  facet normal 0 0 -1
    outer loop
      vertex 10.5157 -5.78104 -5
      vertex 8.82879 -4.85367 -5
      vertex 9.3675 -3.70885 -5
    endloop
  endfacet
  facet normal 0 0 -1
    outer loop
      vertex 8.15085 -5.92194 -5
      vertex 9.7082 -7.05342 -5
      vertex 8.74762 -8.21456 -5
    endloop
  endfacet
  facet normal 0 0 -1
    outer loop
      vertex 9.7082 -7.05342 -5
      vertex 8.15085 -5.92194 -5
      vertex 8.82879 -4.85367 -5
    endloop
  endfacet
  facet normal 0 0 -1
    outer loop
      vertex 7.34436 -6.89681 -5
      vertex 8.74762 -8.21456 -5
      vertex 7.64909 -9.24616 -5
    endloop
  endfacet
  facet normal 0 0 -1
    outer loop
      vertex 8.74762 -8.21456 -5
      vertex 7.34436 -6.89681 -5
      vertex 8.15085 -5.92194 -5
    endloop
  endfacet
  facet normal 0 0 -1
    outer loop
      vertex 6.42205 -7.76292 -5
      vertex 7.64909 -9.24616 -5
      vertex 6.42992 -10.1319 -5
    endloop
  endfacet
  facet normal 0 0 -1
    outer loop
      vertex 7.64909 -9.24616 -5
      vertex 6.42205 -7.76292 -5
      vertex 7.34436 -6.89681 -5
    endloop
  endfacet
  facet normal 0 0 -1
    outer loop
      vertex 6.42992 -10.1319 -5
      vertex 5.39845 -8.5066 -5
      vertex 6.42205 -7.76292 -5
    endloop
  endfacet
  facet normal 0 0 -1
    outer loop
      vertex 5.10935 -10.8579 -5
      vertex 5.39845 -8.5066 -5
      vertex 6.42992 -10.1319 -5
    endloop
  endfacet
  facet normal 0 0 -1
    outer loop
      vertex 5.10935 -10.8579 -5
      vertex 4.28973 -9.11613 -5
      vertex 5.39845 -8.5066 -5
    endloop
  endfacet
  facet normal 0 0 -1
    outer loop
      vertex 3.7082 -11.4127 -5
      vertex 4.28973 -9.11613 -5
      vertex 5.10935 -10.8579 -5
    endloop
  endfacet
  facet normal 0 0 -1
    outer loop
      vertex 3.7082 -11.4127 -5
      vertex 3.11335 -9.58189 -5
      vertex 4.28973 -9.11613 -5
    endloop
  endfacet
  facet normal 0 0 -1
    outer loop
      vertex 2.24858 -11.7874 -5
      vertex 3.11335 -9.58189 -5
      vertex 3.7082 -11.4127 -5
    endloop
  endfacet
  facet normal 0 0 -1
    outer loop
      vertex 2.24858 -11.7874 -5
      vertex 1.88787 -9.89654 -5
      vertex 3.11335 -9.58189 -5
    endloop
  endfacet
  facet normal 0 0 -1
    outer loop
      vertex 0.753486 -11.9763 -5
      vertex 1.88787 -9.89654 -5
      vertex 2.24858 -11.7874 -5
    endloop
  endfacet
  facet normal 0 0 -1
    outer loop
      vertex 0.753486 -11.9763 -5
      vertex 0.632614 -10.0551 -5
      vertex 1.88787 -9.89654 -5
    endloop
  endfacet
  facet normal 0 0 -1
    outer loop
      vertex 0.753486 -11.9763 -5
      vertex -0.632614 -10.0551 -5
      vertex 0.632614 -10.0551 -5
    endloop
  endfacet
  facet normal 0 0 -1
    outer loop
      vertex -0.753486 -11.9763 -5
      vertex -0.632614 -10.0551 -5
      vertex 0.753486 -11.9763 -5
    endloop
  endfacet
  facet normal 0 0 -1
    outer loop
      vertex -0.753486 -11.9763 -5
      vertex -1.88787 -9.89654 -5
      vertex -0.632614 -10.0551 -5
    endloop
  endfacet
  facet normal 0 0 -1
    outer loop
      vertex -2.24858 -11.7874 -5
      vertex -1.88787 -9.89654 -5
      vertex -0.753486 -11.9763 -5
    endloop
  endfacet
  facet normal 0 0 -1
    outer loop
      vertex -2.24858 -11.7874 -5
      vertex -3.11335 -9.58189 -5
      vertex -1.88787 -9.89654 -5
    endloop
  endfacet
  facet normal 0 0 -1
    outer loop
      vertex -3.7082 -11.4127 -5
      vertex -3.11335 -9.58189 -5
      vertex -2.24858 -11.7874 -5
    endloop
  endfacet
  facet normal 0 0 -1
    outer loop
      vertex -3.7082 -11.4127 -5
      vertex -4.28973 -9.11613 -5
      vertex -3.11335 -9.58189 -5
    endloop
  endfacet
  facet normal 0 0 -1
    outer loop
      vertex -5.10935 -10.8579 -5
      vertex -4.28973 -9.11613 -5
      vertex -3.7082 -11.4127 -5
    endloop
  endfacet
  facet normal 0 0 -1
    outer loop
      vertex -5.10935 -10.8579 -5
      vertex -5.39845 -8.5066 -5
      vertex -4.28973 -9.11613 -5
    endloop
  endfacet
  facet normal 0 0 -1
    outer loop
      vertex -6.42992 -10.1319 -5
      vertex -5.39845 -8.5066 -5
      vertex -5.10935 -10.8579 -5
    endloop
  endfacet
  facet normal -0 0 -1
    outer loop
      vertex -5.39845 -8.5066 -5
      vertex -6.42992 -10.1319 -5
      vertex -6.42205 -7.76292 -5
    endloop
  endfacet
  facet normal 0 0 -1
    outer loop
      vertex -7.64909 -9.24616 -5
      vertex -6.42205 -7.76292 -5
      vertex -6.42992 -10.1319 -5
    endloop
  endfacet
  facet normal -0 0 -1
    outer loop
      vertex -6.42205 -7.76292 -5
      vertex -7.64909 -9.24616 -5
      vertex -7.34436 -6.89681 -5
    endloop
  endfacet
  facet normal 0 0 -1
    outer loop
      vertex -8.74762 -8.21456 -5
      vertex -7.34436 -6.89681 -5
      vertex -7.64909 -9.24616 -5
    endloop
  endfacet
  facet normal -0 0 -1
    outer loop
      vertex -7.34436 -6.89681 -5
      vertex -8.74762 -8.21456 -5
      vertex -8.15085 -5.92194 -5
    endloop
  endfacet
  facet normal 0 0 -1
    outer loop
      vertex -9.7082 -7.05342 -5
      vertex -8.15085 -5.92194 -5
      vertex -8.74762 -8.21456 -5
    endloop
  endfacet
  facet normal -0 0 -1
    outer loop
      vertex -8.15085 -5.92194 -5
      vertex -9.7082 -7.05342 -5
      vertex -8.82879 -4.85367 -5
    endloop
  endfacet
  facet normal 0 0 -1
    outer loop
      vertex -10.5157 -5.78104 -5
      vertex -8.82879 -4.85367 -5
      vertex -9.7082 -7.05342 -5
    endloop
  endfacet
  facet normal -0 0 -1
    outer loop
      vertex -8.82879 -4.85367 -5
      vertex -10.5157 -5.78104 -5
      vertex -9.3675 -3.70885 -5
    endloop
  endfacet
  facet normal 0 0 -1
    outer loop
      vertex -11.1573 -4.41749 -5
      vertex -9.3675 -3.70885 -5
      vertex -10.5157 -5.78104 -5
    endloop
  endfacet
  facet normal -0 0 -1
    outer loop
      vertex -9.3675 -3.70885 -5
      vertex -11.1573 -4.41749 -5
      vertex -9.75848 -2.50555 -5
    endloop
  endfacet
  facet normal 0 0 -1
    outer loop
      vertex -11.623 -2.98428 -5
      vertex -9.75848 -2.50555 -5
      vertex -11.1573 -4.41749 -5
    endloop
  endfacet
  facet normal -0 0 -1
    outer loop
      vertex 11.623 2.98428 -5
      vertex 9.75848 2.50555 -5
      vertex 11.1573 4.41749 -5
    endloop
  endfacet
  facet normal 0 0 -1
    outer loop
      vertex 9.3675 3.70885 -5
      vertex 11.1573 4.41749 -5
      vertex 9.75848 2.50555 -5
    endloop
  endfacet
  facet normal -0 0 -1
    outer loop
      vertex 11.1573 4.41749 -5
      vertex 9.3675 3.70885 -5
      vertex 10.5157 5.78104 -5
    endloop
  endfacet
  facet normal 0 0 -1
    outer loop
      vertex 8.82879 4.85367 -5
      vertex 10.5157 5.78104 -5
      vertex 9.3675 3.70885 -5
    endloop
  endfacet
  facet normal -0 0 -1
    outer loop
      vertex 10.5157 5.78104 -5
      vertex 8.82879 4.85367 -5
      vertex 9.7082 7.05342 -5
    endloop
  endfacet
  facet normal 0 0 -1
    outer loop
      vertex 8.15085 5.92194 -5
      vertex 9.7082 7.05342 -5
      vertex 8.82879 4.85367 -5
    endloop
  endfacet
  facet normal -0 0 -1
    outer loop
      vertex 9.7082 7.05342 -5
      vertex 8.15085 5.92194 -5
      vertex 8.74762 8.21456 -5
    endloop
  endfacet
  facet normal 0 0 -1
    outer loop
      vertex 7.34436 6.89681 -5
      vertex 8.74762 8.21456 -5
      vertex 8.15085 5.92194 -5
    endloop
  endfacet
  facet normal -0 0 -1
    outer loop
      vertex 8.74762 8.21456 -5
      vertex 7.34436 6.89681 -5
      vertex 7.64909 9.24616 -5
    endloop
  endfacet
  facet normal 0 0 -1
    outer loop
      vertex 6.42205 7.76292 -5
      vertex 7.64909 9.24616 -5
      vertex 7.34436 6.89681 -5
    endloop
  endfacet
  facet normal -0 0 -1
    outer loop
      vertex 7.64909 9.24616 -5
      vertex 6.42205 7.76292 -5
      vertex 6.42992 10.1319 -5
    endloop
  endfacet
  facet normal 0 0 -1
    outer loop
      vertex 5.39845 8.5066 -5
      vertex 6.42992 10.1319 -5
      vertex 6.42205 7.76292 -5
    endloop
  endfacet
  facet normal 0 0 -1
    outer loop
      vertex 5.39845 8.5066 -5
      vertex 5.10935 10.8579 -5
      vertex 6.42992 10.1319 -5
    endloop
  endfacet
  facet normal 0 0 -1
    outer loop
      vertex 4.28973 9.11613 -5
      vertex 5.10935 10.8579 -5
      vertex 5.39845 8.5066 -5
    endloop
  endfacet
  facet normal 0 0 -1
    outer loop
      vertex 4.28973 9.11613 -5
      vertex 3.7082 11.4127 -5
      vertex 5.10935 10.8579 -5
    endloop
  endfacet
  facet normal 0 0 -1
    outer loop
      vertex 3.11335 9.58189 -5
      vertex 3.7082 11.4127 -5
      vertex 4.28973 9.11613 -5
    endloop
  endfacet
  facet normal 0 0 -1
    outer loop
      vertex 3.11335 9.58189 -5
      vertex 2.24858 11.7874 -5
      vertex 3.7082 11.4127 -5
    endloop
  endfacet
  facet normal 0 0 -1
    outer loop
      vertex 1.88787 9.89654 -5
      vertex 2.24858 11.7874 -5
      vertex 3.11335 9.58189 -5
    endloop
  endfacet
  facet normal 0 0 -1
    outer loop
      vertex 1.88787 9.89654 -5
      vertex 0.753486 11.9763 -5
      vertex 2.24858 11.7874 -5
    endloop
  endfacet
  facet normal 0 0 -1
    outer loop
      vertex 0.632614 10.0551 -5
      vertex 0.753486 11.9763 -5
      vertex 1.88787 9.89654 -5
    endloop
  endfacet
  facet normal 0 0 -1
    outer loop
      vertex -0.632614 10.0551 -5
      vertex 0.753486 11.9763 -5
      vertex 0.632614 10.0551 -5
    endloop
  endfacet
  facet normal 0 0 -1
    outer loop
      vertex -0.632614 10.0551 -5
      vertex -0.753486 11.9763 -5
      vertex 0.753486 11.9763 -5
    endloop
  endfacet
  facet normal 0 0 -1
    outer loop
      vertex -1.88787 9.89654 -5
      vertex -0.753486 11.9763 -5
      vertex -0.632614 10.0551 -5
    endloop
  endfacet
  facet normal 0 0 -1
    outer loop
      vertex -1.88787 9.89654 -5
      vertex -2.24858 11.7874 -5
      vertex -0.753486 11.9763 -5
    endloop
  endfacet
  facet normal 0 0 -1
    outer loop
      vertex -3.11335 9.58189 -5
      vertex -2.24858 11.7874 -5
      vertex -1.88787 9.89654 -5
    endloop
  endfacet
  facet normal 0 0 -1
    outer loop
      vertex -3.11335 9.58189 -5
      vertex -3.7082 11.4127 -5
      vertex -2.24858 11.7874 -5
    endloop
  endfacet
  facet normal 0 0 -1
    outer loop
      vertex -4.28973 9.11613 -5
      vertex -3.7082 11.4127 -5
      vertex -3.11335 9.58189 -5
    endloop
  endfacet
  facet normal 0 0 -1
    outer loop
      vertex -4.28973 9.11613 -5
      vertex -5.10935 10.8579 -5
      vertex -3.7082 11.4127 -5
    endloop
  endfacet
  facet normal 0 0 -1
    outer loop
      vertex -5.39845 8.5066 -5
      vertex -5.10935 10.8579 -5
      vertex -4.28973 9.11613 -5
    endloop
  endfacet
  facet normal 0 0 -1
    outer loop
      vertex -6.42992 10.1319 -5
      vertex -5.39845 8.5066 -5
      vertex -6.42205 7.76292 -5
    endloop
  endfacet
  facet normal 0 0 -1
    outer loop
      vertex -5.39845 8.5066 -5
      vertex -6.42992 10.1319 -5
      vertex -5.10935 10.8579 -5
    endloop
  endfacet
  facet normal 0 0 -1
    outer loop
      vertex -7.64909 9.24616 -5
      vertex -6.42205 7.76292 -5
      vertex -7.34436 6.89681 -5
    endloop
  endfacet
  facet normal 0 0 -1
    outer loop
      vertex -6.42205 7.76292 -5
      vertex -7.64909 9.24616 -5
      vertex -6.42992 10.1319 -5
    endloop
  endfacet
  facet normal 0 0 -1
    outer loop
      vertex -8.74762 8.21456 -5
      vertex -7.34436 6.89681 -5
      vertex -8.15085 5.92194 -5
    endloop
  endfacet
  facet normal 0 0 -1
    outer loop
      vertex -7.34436 6.89681 -5
      vertex -8.74762 8.21456 -5
      vertex -7.64909 9.24616 -5
    endloop
  endfacet
  facet normal 0 0 -1
    outer loop
      vertex -9.7082 7.05342 -5
      vertex -8.15085 5.92194 -5
      vertex -8.82879 4.85367 -5
    endloop
  endfacet
  facet normal 0 0 -1
    outer loop
      vertex -10.5157 5.78104 -5
      vertex -8.82879 4.85367 -5
      vertex -9.3675 3.70885 -5
    endloop
  endfacet
  facet normal 0 0 -1
    outer loop
      vertex -8.15085 5.92194 -5
      vertex -9.7082 7.05342 -5
      vertex -8.74762 8.21456 -5
    endloop
  endfacet
  facet normal 0 0 -1
    outer loop
      vertex -11.1573 4.41749 -5
      vertex -9.3675 3.70885 -5
      vertex -9.75848 2.50555 -5
    endloop
  endfacet
  facet normal 0 0 -1
    outer loop
      vertex -11.623 2.98428 -5
      vertex -9.75848 2.50555 -5
      vertex -9.99555 1.26273 -5
    endloop
  endfacet
  facet normal 0 0 -1
    outer loop
      vertex -11.9054 1.504 -5
      vertex -9.99555 1.26273 -5
      vertex -10.075 0 -5
    endloop
  endfacet
  facet normal -0 0 -1
    outer loop
      vertex -9.75848 -2.50555 -5
      vertex -11.623 -2.98428 -5
      vertex -9.99555 -1.26273 -5
    endloop
  endfacet
  facet normal 0 0 -1
    outer loop
      vertex -8.82879 4.85367 -5
      vertex -10.5157 5.78104 -5
      vertex -9.7082 7.05342 -5
    endloop
  endfacet
  facet normal 0 0 -1
    outer loop
      vertex -11.9054 -1.504 -5
      vertex -9.99555 -1.26273 -5
      vertex -11.623 -2.98428 -5
    endloop
  endfacet
  facet normal 0 0 -1
    outer loop
      vertex -9.3675 3.70885 -5
      vertex -11.1573 4.41749 -5
      vertex -10.5157 5.78104 -5
    endloop
  endfacet
  facet normal -0 0 -1
    outer loop
      vertex -9.99555 -1.26273 -5
      vertex -11.9054 -1.504 -5
      vertex -10.075 0 -5
    endloop
  endfacet
  facet normal 0 0 -1
    outer loop
      vertex -9.75848 2.50555 -5
      vertex -11.623 2.98428 -5
      vertex -11.1573 4.41749 -5
    endloop
  endfacet
  facet normal 0 0 -1
    outer loop
      vertex -12 0 -5
      vertex -10.075 0 -5
      vertex -11.9054 -1.504 -5
    endloop
  endfacet
  facet normal 0 0 -1
    outer loop
      vertex -9.99555 1.26273 -5
      vertex -11.9054 1.504 -5
      vertex -11.623 2.98428 -5
    endloop
  endfacet
  facet normal 0 0 -1
    outer loop
      vertex -10.075 0 -5
      vertex -12 0 -5
      vertex -11.9054 1.504 -5
    endloop
  endfacet
  facet normal 0.58705 0.808015 -0.0498388
    outer loop
      vertex -5.31808 -8.37995 -2
      vertex -5.39845 -8.5066 -5
      vertex -6.42205 -7.76292 -5
    endloop
  endfacet
  facet normal -0.125165 0.990883 -0.0498384
    outer loop
      vertex 1.85976 -9.7492 -2
      vertex 1.88787 -9.89654 -5
      vertex 0.632614 -10.0551 -5
    endloop
  endfacet
  facet normal -0.125174 0.990882 -0.0498347
    outer loop
      vertex 1.85976 -9.7492 -2
      vertex 0.632614 -10.0551 -5
      vertex 0.623196 -9.90541 -2
    endloop
  endfacet
  facet normal -0.683698 0.728061 -0.0498399
    outer loop
      vertex 7.23501 -6.79413 -2
      vertex 7.34436 -6.89681 -5
      vertex 6.42205 -7.76292 -5
    endloop
  endfacet
  facet normal -0.981068 0.18714 -0.049837
    outer loop
      vertex 9.84674 -1.24393 -2
      vertex 9.99555 -1.26273 -5
      vertex 9.75848 -2.50555 -5
    endloop
  endfacet
  facet normal 0.481159 -0.875215 -0.0498386
    outer loop
      vertex -4.28973 9.11613 -5
      vertex -4.22586 8.98041 -2
      vertex -5.31808 8.37995 -2
    endloop
  endfacet
  facet normal 0.84328 -0.535158 -0.0498417
    outer loop
      vertex -8.02949 5.83377 -2
      vertex -8.69734 4.7814 -2
      vertex -8.82879 4.85367 -5
    endloop
  endfacet
  facet normal -0.84328 -0.535158 -0.0498418
    outer loop
      vertex 8.15085 5.92194 -5
      vertex 8.82879 4.85367 -5
      vertex 8.02949 5.83377 -2
    endloop
  endfacet
  facet normal -0.683698 -0.728061 -0.0498399
    outer loop
      vertex 7.34436 6.89681 -5
      vertex 7.23501 6.79413 -2
      vertex 6.42205 7.76292 -5
    endloop
  endfacet
  facet normal -0.58705 -0.808015 -0.0498388
    outer loop
      vertex 5.39845 8.5066 -5
      vertex 6.42205 7.76292 -5
      vertex 5.31808 8.37995 -2
    endloop
  endfacet
  facet normal -0.481159 -0.875216 -0.0498389
    outer loop
      vertex 5.39845 8.5066 -5
      vertex 5.31808 8.37995 -2
      vertex 4.28973 9.11613 -5
    endloop
  endfacet
  facet normal -0.248381 -0.967379 -0.0498386
    outer loop
      vertex 1.88787 9.89654 -5
      vertex 3.11335 9.58189 -5
      vertex 1.85976 9.7492 -2
    endloop
  endfacet
  facet normal -0.248378 -0.96738 -0.0498372
    outer loop
      vertex 3.11335 9.58189 -5
      vertex 3.06699 9.43924 -2
      vertex 1.85976 9.7492 -2
    endloop
  endfacet
  facet normal 0.981068 0.18714 -0.049837
    outer loop
      vertex -9.84674 -1.24393 -2
      vertex -9.75848 -2.50555 -5
      vertex -9.99555 -1.26273 -5
    endloop
  endfacet
  facet normal 0.981067 0.187147 -0.0498399
    outer loop
      vertex -9.61319 -2.46825 -2
      vertex -9.75848 -2.50555 -5
      vertex -9.84674 -1.24393 -2
    endloop
  endfacet
  facet normal 0.125165 0.990883 -0.0498384
    outer loop
      vertex -1.85976 -9.7492 -2
      vertex -0.632614 -10.0551 -5
      vertex -1.88787 -9.89654 -5
    endloop
  endfacet
  facet normal 0.949874 0.308635 -0.0498398
    outer loop
      vertex -9.61319 -2.46825 -2
      vertex -9.22803 -3.65364 -2
      vertex -9.75848 -2.50555 -5
    endloop
  endfacet
  facet normal 0.903703 0.425249 -0.0498392
    outer loop
      vertex -9.22803 -3.65364 -2
      vertex -8.82879 -4.85367 -5
      vertex -9.3675 -3.70885 -5
    endloop
  endfacet
  facet normal -0.248381 0.967379 -0.0498386
    outer loop
      vertex 3.11335 -9.58189 -5
      vertex 1.88787 -9.89654 -5
      vertex 1.85976 -9.7492 -2
    endloop
  endfacet
  facet normal -0.58705 0.808015 -0.0498388
    outer loop
      vertex 6.42205 -7.76292 -5
      vertex 5.39845 -8.5066 -5
      vertex 5.31808 -8.37995 -2
    endloop
  endfacet
  facet normal -0.481159 0.875215 -0.0498386
    outer loop
      vertex 5.31808 -8.37995 -2
      vertex 4.28973 -9.11613 -5
      vertex 4.22586 -8.98041 -2
    endloop
  endfacet
  facet normal -0.367666 0.928622 -0.0498376
    outer loop
      vertex 4.28973 -9.11613 -5
      vertex 3.11335 -9.58189 -5
      vertex 3.06699 -9.43924 -2
    endloop
  endfacet
  facet normal -0.769555 0.636632 -0.0498401
    outer loop
      vertex 8.02949 -5.83377 -2
      vertex 7.34436 -6.89681 -5
      vertex 7.23501 -6.79413 -2
    endloop
  endfacet
  facet normal -0.84328 0.535158 -0.0498417
    outer loop
      vertex 8.69734 -4.7814 -2
      vertex 8.82879 -4.85367 -5
      vertex 8.02949 -5.83377 -2
    endloop
  endfacet
  facet normal -0.949874 0.308636 -0.0498396
    outer loop
      vertex 9.75848 -2.50555 -5
      vertex 9.3675 -3.70885 -5
      vertex 9.22803 -3.65364 -2
    endloop
  endfacet
  facet normal -0.903703 0.425249 -0.0498392
    outer loop
      vertex 9.22803 -3.65364 -2
      vertex 9.3675 -3.70885 -5
      vertex 8.82879 -4.85367 -5
    endloop
  endfacet
  facet normal -0.981067 0.187147 -0.0498399
    outer loop
      vertex 9.84674 -1.24393 -2
      vertex 9.75848 -2.50555 -5
      vertex 9.61319 -2.46825 -2
    endloop
  endfacet
  facet normal 0 0 -1
    outer loop
      vertex 9.84674 -1.24393 -2
      vertex 9.84674 1.24393 -2
      vertex 9.925 0 -2
    endloop
  endfacet
  facet normal 0 0 -1
    outer loop
      vertex 9.61319 -2.46825 -2
      vertex 9.84674 1.24393 -2
      vertex 9.84674 -1.24393 -2
    endloop
  endfacet
  facet normal 0 0 -1
    outer loop
      vertex 9.61319 -2.46825 -2
      vertex 9.61319 2.46825 -2
      vertex 9.84674 1.24393 -2
    endloop
  endfacet
  facet normal 0 0 -1
    outer loop
      vertex 9.22803 -3.65364 -2
      vertex 9.61319 2.46825 -2
      vertex 9.61319 -2.46825 -2
    endloop
  endfacet
  facet normal 0 0 -1
    outer loop
      vertex 9.22803 -3.65364 -2
      vertex 9.22803 3.65364 -2
      vertex 9.61319 2.46825 -2
    endloop
  endfacet
  facet normal 0 0 -1
    outer loop
      vertex 8.69734 -4.7814 -2
      vertex 9.22803 3.65364 -2
      vertex 9.22803 -3.65364 -2
    endloop
  endfacet
  facet normal 0 0 -1
    outer loop
      vertex 8.69734 -4.7814 -2
      vertex 8.69734 4.7814 -2
      vertex 9.22803 3.65364 -2
    endloop
  endfacet
  facet normal 0 0 -1
    outer loop
      vertex 8.02949 -5.83377 -2
      vertex 8.69734 4.7814 -2
      vertex 8.69734 -4.7814 -2
    endloop
  endfacet
  facet normal 0 0 -1
    outer loop
      vertex 8.02949 -5.83377 -2
      vertex 8.02949 5.83377 -2
      vertex 8.69734 4.7814 -2
    endloop
  endfacet
  facet normal 0 0 -1
    outer loop
      vertex 7.23501 -6.79413 -2
      vertex 8.02949 5.83377 -2
      vertex 8.02949 -5.83377 -2
    endloop
  endfacet
  facet normal 0 0 -1
    outer loop
      vertex 7.23501 -6.79413 -2
      vertex 7.23501 6.79413 -2
      vertex 8.02949 5.83377 -2
    endloop
  endfacet
  facet normal 0 0 -1
    outer loop
      vertex 6.32643 -7.64734 -2
      vertex 7.23501 6.79413 -2
      vertex 7.23501 -6.79413 -2
    endloop
  endfacet
  facet normal 0 0 -1
    outer loop
      vertex 6.32643 -7.64734 -2
      vertex 6.32643 7.64734 -2
      vertex 7.23501 6.79413 -2
    endloop
  endfacet
  facet normal 0 0 -1
    outer loop
      vertex 5.31808 -8.37995 -2
      vertex 6.32643 7.64734 -2
      vertex 6.32643 -7.64734 -2
    endloop
  endfacet
  facet normal 0 0 -1
    outer loop
      vertex 5.31808 -8.37995 -2
      vertex 5.31808 8.37995 -2
      vertex 6.32643 7.64734 -2
    endloop
  endfacet
  facet normal 0 0 -1
    outer loop
      vertex 4.22586 -8.98041 -2
      vertex 5.31808 8.37995 -2
      vertex 5.31808 -8.37995 -2
    endloop
  endfacet
  facet normal 0 0 -1
    outer loop
      vertex 4.22586 -8.98041 -2
      vertex 4.22586 8.98041 -2
      vertex 5.31808 8.37995 -2
    endloop
  endfacet
  facet normal 0 0 -1
    outer loop
      vertex 3.06699 -9.43924 -2
      vertex 4.22586 8.98041 -2
      vertex 4.22586 -8.98041 -2
    endloop
  endfacet
  facet normal 0 0 -1
    outer loop
      vertex 3.06699 -9.43924 -2
      vertex 3.06699 9.43924 -2
      vertex 4.22586 8.98041 -2
    endloop
  endfacet
  facet normal 0 0 -1
    outer loop
      vertex 1.85976 -9.7492 -2
      vertex 3.06699 9.43924 -2
      vertex 3.06699 -9.43924 -2
    endloop
  endfacet
  facet normal 0 0 -1
    outer loop
      vertex 1.85976 -9.7492 -2
      vertex 1.85976 9.7492 -2
      vertex 3.06699 9.43924 -2
    endloop
  endfacet
  facet normal 0 0 -1
    outer loop
      vertex 0.623196 -9.90541 -2
      vertex 1.85976 9.7492 -2
      vertex 1.85976 -9.7492 -2
    endloop
  endfacet
  facet normal 0 0 -1
    outer loop
      vertex 0.623196 -9.90541 -2
      vertex 0.623196 9.90541 -2
      vertex 1.85976 9.7492 -2
    endloop
  endfacet
  facet normal 0 0 -1
    outer loop
      vertex -0.623196 -9.90541 -2
      vertex 0.623196 9.90541 -2
      vertex 0.623196 -9.90541 -2
    endloop
  endfacet
  facet normal 0 0 -1
    outer loop
      vertex -0.623196 -9.90541 -2
      vertex -0.623196 9.90541 -2
      vertex 0.623196 9.90541 -2
    endloop
  endfacet
  facet normal 0 0 -1
    outer loop
      vertex -1.85976 -9.7492 -2
      vertex -0.623196 9.90541 -2
      vertex -0.623196 -9.90541 -2
    endloop
  endfacet
  facet normal 0 0 -1
    outer loop
      vertex -1.85976 -9.7492 -2
      vertex -1.85976 9.7492 -2
      vertex -0.623196 9.90541 -2
    endloop
  endfacet
  facet normal 0 0 -1
    outer loop
      vertex -3.06699 -9.43924 -2
      vertex -1.85976 9.7492 -2
      vertex -1.85976 -9.7492 -2
    endloop
  endfacet
  facet normal 0 0 -1
    outer loop
      vertex -3.06699 -9.43924 -2
      vertex -3.06699 9.43924 -2
      vertex -1.85976 9.7492 -2
    endloop
  endfacet
  facet normal 0 0 -1
    outer loop
      vertex -4.22586 -8.98041 -2
      vertex -3.06699 9.43924 -2
      vertex -3.06699 -9.43924 -2
    endloop
  endfacet
  facet normal 0 0 -1
    outer loop
      vertex -4.22586 -8.98041 -2
      vertex -4.22586 8.98041 -2
      vertex -3.06699 9.43924 -2
    endloop
  endfacet
  facet normal 0 0 -1
    outer loop
      vertex -5.31808 -8.37995 -2
      vertex -4.22586 8.98041 -2
      vertex -4.22586 -8.98041 -2
    endloop
  endfacet
  facet normal 0 0 -1
    outer loop
      vertex -5.31808 -8.37995 -2
      vertex -5.31808 8.37995 -2
      vertex -4.22586 8.98041 -2
    endloop
  endfacet
  facet normal 0 0 -1
    outer loop
      vertex -6.32643 -7.64734 -2
      vertex -5.31808 8.37995 -2
      vertex -5.31808 -8.37995 -2
    endloop
  endfacet
  facet normal 0 0 -1
    outer loop
      vertex -6.32643 -7.64734 -2
      vertex -6.32643 7.64734 -2
      vertex -5.31808 8.37995 -2
    endloop
  endfacet
  facet normal 0 0 -1
    outer loop
      vertex -7.23501 -6.79413 -2
      vertex -6.32643 7.64734 -2
      vertex -6.32643 -7.64734 -2
    endloop
  endfacet
  facet normal 0 0 -1
    outer loop
      vertex -7.23501 -6.79413 -2
      vertex -7.23501 6.79413 -2
      vertex -6.32643 7.64734 -2
    endloop
  endfacet
  facet normal 0 0 -1
    outer loop
      vertex -8.02949 -5.83377 -2
      vertex -7.23501 6.79413 -2
      vertex -7.23501 -6.79413 -2
    endloop
  endfacet
  facet normal 0 0 -1
    outer loop
      vertex -8.02949 -5.83377 -2
      vertex -8.02949 5.83377 -2
      vertex -7.23501 6.79413 -2
    endloop
  endfacet
  facet normal 0 0 -1
    outer loop
      vertex -8.69734 -4.7814 -2
      vertex -8.02949 5.83377 -2
      vertex -8.02949 -5.83377 -2
    endloop
  endfacet
  facet normal 0 0 -1
    outer loop
      vertex -8.69734 -4.7814 -2
      vertex -8.69734 4.7814 -2
      vertex -8.02949 5.83377 -2
    endloop
  endfacet
  facet normal 0 0 -1
    outer loop
      vertex -9.22803 -3.65364 -2
      vertex -8.69734 4.7814 -2
      vertex -8.69734 -4.7814 -2
    endloop
  endfacet
  facet normal 0 0 -1
    outer loop
      vertex -9.22803 -3.65364 -2
      vertex -9.22803 3.65364 -2
      vertex -8.69734 4.7814 -2
    endloop
  endfacet
  facet normal 0 0 -1
    outer loop
      vertex -9.61319 -2.46825 -2
      vertex -9.22803 3.65364 -2
      vertex -9.22803 -3.65364 -2
    endloop
  endfacet
  facet normal 0 0 -1
    outer loop
      vertex -9.61319 -2.46825 -2
      vertex -9.61319 2.46825 -2
      vertex -9.22803 3.65364 -2
    endloop
  endfacet
  facet normal 0 0 -1
    outer loop
      vertex -9.84674 -1.24393 -2
      vertex -9.61319 2.46825 -2
      vertex -9.61319 -2.46825 -2
    endloop
  endfacet
  facet normal 0 0 -1
    outer loop
      vertex -9.84674 -1.24393 -2
      vertex -9.84674 1.24393 -2
      vertex -9.61319 2.46825 -2
    endloop
  endfacet
  facet normal 0 -0 -1
    outer loop
      vertex -9.84674 1.24393 -2
      vertex -9.84674 -1.24393 -2
      vertex -9.925 0 -2
    endloop
  endfacet
  facet normal 0.125165 -0.990883 -0.0498384
    outer loop
      vertex -0.632614 10.0551 -5
      vertex -1.85976 9.7492 -2
      vertex -1.88787 9.89654 -5
    endloop
  endfacet
  facet normal 0.683695 -0.728064 -0.0498415
    outer loop
      vertex -6.42205 7.76292 -5
      vertex -6.32643 7.64734 -2
      vertex -7.23501 6.79413 -2
    endloop
  endfacet
  facet normal 0.683698 -0.728061 -0.0498399
    outer loop
      vertex -6.42205 7.76292 -5
      vertex -7.23501 6.79413 -2
      vertex -7.34436 6.89681 -5
    endloop
  endfacet
  facet normal 0.903703 -0.425249 -0.0498392
    outer loop
      vertex -8.82879 4.85367 -5
      vertex -9.22803 3.65364 -2
      vertex -9.3675 3.70885 -5
    endloop
  endfacet
  facet normal 0.949874 -0.308636 -0.0498396
    outer loop
      vertex -9.3675 3.70885 -5
      vertex -9.22803 3.65364 -2
      vertex -9.75848 2.50555 -5
    endloop
  endfacet
  facet normal 0.981067 -0.187147 -0.0498399
    outer loop
      vertex -9.75848 2.50555 -5
      vertex -9.61319 2.46825 -2
      vertex -9.84674 1.24393 -2
    endloop
  endfacet
  facet normal -0.949874 -0.308635 -0.0498398
    outer loop
      vertex 9.75848 2.50555 -5
      vertex 9.61319 2.46825 -2
      vertex 9.22803 3.65364 -2
    endloop
  endfacet
  facet normal -0.769553 -0.636635 -0.0498417
    outer loop
      vertex 8.15085 5.92194 -5
      vertex 8.02949 5.83377 -2
      vertex 7.34436 6.89681 -5
    endloop
  endfacet
  facet normal -0.769555 -0.636632 -0.0498401
    outer loop
      vertex 7.34436 6.89681 -5
      vertex 8.02949 5.83377 -2
      vertex 7.23501 6.79413 -2
    endloop
  endfacet
  facet normal -0.125165 -0.990883 -0.0498384
    outer loop
      vertex 1.88787 9.89654 -5
      vertex 1.85976 9.7492 -2
      vertex 0.632614 10.0551 -5
    endloop
  endfacet
  facet normal -0.481159 -0.875215 -0.0498386
    outer loop
      vertex 4.28973 9.11613 -5
      vertex 5.31808 8.37995 -2
      vertex 4.22586 8.98041 -2
    endloop
  endfacet
  facet normal -0.587055 -0.808011 -0.0498414
    outer loop
      vertex 6.42205 7.76292 -5
      vertex 6.32643 7.64734 -2
      vertex 5.31808 8.37995 -2
    endloop
  endfacet
  facet normal 0.125174 0.990882 -0.0498347
    outer loop
      vertex -0.623196 -9.90541 -2
      vertex -0.632614 -10.0551 -5
      vertex -1.85976 -9.7492 -2
    endloop
  endfacet
  facet normal 0.481159 0.875216 -0.0498389
    outer loop
      vertex -5.31808 -8.37995 -2
      vertex -4.28973 -9.11613 -5
      vertex -5.39845 -8.5066 -5
    endloop
  endfacet
  facet normal 0.587055 0.808011 -0.0498414
    outer loop
      vertex -6.32643 -7.64734 -2
      vertex -5.31808 -8.37995 -2
      vertex -6.42205 -7.76292 -5
    endloop
  endfacet
  facet normal 0.683695 0.728064 -0.0498415
    outer loop
      vertex -6.32643 -7.64734 -2
      vertex -6.42205 -7.76292 -5
      vertex -7.23501 -6.79413 -2
    endloop
  endfacet
  facet normal 0.996787 0.0627113 -0.0498393
    outer loop
      vertex -9.925 0 -2
      vertex -9.84674 -1.24393 -2
      vertex -10.075 0 -5
    endloop
  endfacet
  facet normal 0.9037 0.425254 -0.0498415
    outer loop
      vertex -8.69734 -4.7814 -2
      vertex -8.82879 -4.85367 -5
      vertex -9.22803 -3.65364 -2
    endloop
  endfacet
  facet normal 0.769553 0.636635 -0.0498417
    outer loop
      vertex -8.02949 -5.83377 -2
      vertex -7.34436 -6.89681 -5
      vertex -8.15085 -5.92194 -5
    endloop
  endfacet
  facet normal -0.587055 0.808011 -0.0498414
    outer loop
      vertex 6.32643 -7.64734 -2
      vertex 6.42205 -7.76292 -5
      vertex 5.31808 -8.37995 -2
    endloop
  endfacet
  facet normal -0.367668 0.928621 -0.0498385
    outer loop
      vertex 4.22586 -8.98041 -2
      vertex 4.28973 -9.11613 -5
      vertex 3.06699 -9.43924 -2
    endloop
  endfacet
  facet normal -0.248378 0.96738 -0.0498372
    outer loop
      vertex 3.06699 -9.43924 -2
      vertex 3.11335 -9.58189 -5
      vertex 1.85976 -9.7492 -2
    endloop
  endfacet
  facet normal -0.769553 0.636635 -0.0498417
    outer loop
      vertex 8.02949 -5.83377 -2
      vertex 8.15085 -5.92194 -5
      vertex 7.34436 -6.89681 -5
    endloop
  endfacet
  facet normal -0.84328 0.535158 -0.0498418
    outer loop
      vertex 8.82879 -4.85367 -5
      vertex 8.15085 -5.92194 -5
      vertex 8.02949 -5.83377 -2
    endloop
  endfacet
  facet normal -0.996786 0.062717 -0.0498369
    outer loop
      vertex 10.075 0 -5
      vertex 9.99555 -1.26273 -5
      vertex 9.84674 -1.24393 -2
    endloop
  endfacet
  facet normal -0.996787 0.0627113 -0.0498393
    outer loop
      vertex 9.925 0 -2
      vertex 10.075 0 -5
      vertex 9.84674 -1.24393 -2
    endloop
  endfacet
  facet normal 0.981068 -0.18714 -0.049837
    outer loop
      vertex -9.75848 2.50555 -5
      vertex -9.84674 1.24393 -2
      vertex -9.99555 1.26273 -5
    endloop
  endfacet
  facet normal 0.996786 -0.062717 -0.0498369
    outer loop
      vertex -9.99555 1.26273 -5
      vertex -9.84674 1.24393 -2
      vertex -10.075 0 -5
    endloop
  endfacet
  facet normal 0.481159 -0.875216 -0.0498389
    outer loop
      vertex -4.28973 9.11613 -5
      vertex -5.31808 8.37995 -2
      vertex -5.39845 8.5066 -5
    endloop
  endfacet
  facet normal 0.367666 -0.928622 -0.0498376
    outer loop
      vertex -3.11335 9.58189 -5
      vertex -3.06699 9.43924 -2
      vertex -4.28973 9.11613 -5
    endloop
  endfacet
  facet normal 0.84328 -0.535158 -0.0498418
    outer loop
      vertex -8.15085 5.92194 -5
      vertex -8.02949 5.83377 -2
      vertex -8.82879 4.85367 -5
    endloop
  endfacet
  facet normal 0.769553 -0.636635 -0.0498417
    outer loop
      vertex -7.34436 6.89681 -5
      vertex -8.02949 5.83377 -2
      vertex -8.15085 5.92194 -5
    endloop
  endfacet
  facet normal 0.9037 -0.425254 -0.0498415
    outer loop
      vertex -8.82879 4.85367 -5
      vertex -8.69734 4.7814 -2
      vertex -9.22803 3.65364 -2
    endloop
  endfacet
  facet normal -0.949874 -0.308636 -0.0498396
    outer loop
      vertex 9.3675 3.70885 -5
      vertex 9.75848 2.50555 -5
      vertex 9.22803 3.65364 -2
    endloop
  endfacet
  facet normal -0.903703 -0.425249 -0.0498392
    outer loop
      vertex 9.3675 3.70885 -5
      vertex 9.22803 3.65364 -2
      vertex 8.82879 4.85367 -5
    endloop
  endfacet
  facet normal -0.84328 -0.535158 -0.0498417
    outer loop
      vertex 8.82879 4.85367 -5
      vertex 8.69734 4.7814 -2
      vertex 8.02949 5.83377 -2
    endloop
  endfacet
  facet normal -0.125174 -0.990882 -0.0498347
    outer loop
      vertex 0.632614 10.0551 -5
      vertex 1.85976 9.7492 -2
      vertex 0.623196 9.90541 -2
    endloop
  endfacet
  facet normal 0.248381 0.967379 -0.0498386
    outer loop
      vertex -1.85976 -9.7492 -2
      vertex -1.88787 -9.89654 -5
      vertex -3.11335 -9.58189 -5
    endloop
  endfacet
  facet normal 0.248378 0.96738 -0.0498372
    outer loop
      vertex -3.06699 -9.43924 -2
      vertex -1.85976 -9.7492 -2
      vertex -3.11335 -9.58189 -5
    endloop
  endfacet
  facet normal 0.769555 0.636632 -0.0498401
    outer loop
      vertex -7.23501 -6.79413 -2
      vertex -7.34436 -6.89681 -5
      vertex -8.02949 -5.83377 -2
    endloop
  endfacet
  facet normal 0.84328 0.535158 -0.0498417
    outer loop
      vertex -8.69734 -4.7814 -2
      vertex -8.02949 -5.83377 -2
      vertex -8.82879 -4.85367 -5
    endloop
  endfacet
  facet normal 0.84328 0.535158 -0.0498418
    outer loop
      vertex -8.02949 -5.83377 -2
      vertex -8.15085 -5.92194 -5
      vertex -8.82879 -4.85367 -5
    endloop
  endfacet
  facet normal -0.481159 0.875216 -0.0498389
    outer loop
      vertex 5.31808 -8.37995 -2
      vertex 5.39845 -8.5066 -5
      vertex 4.28973 -9.11613 -5
    endloop
  endfacet
  facet normal 0.949874 -0.308635 -0.0498398
    outer loop
      vertex -9.22803 3.65364 -2
      vertex -9.61319 2.46825 -2
      vertex -9.75848 2.50555 -5
    endloop
  endfacet
  facet normal 0.58705 -0.808015 -0.0498388
    outer loop
      vertex -5.39845 8.5066 -5
      vertex -5.31808 8.37995 -2
      vertex -6.42205 7.76292 -5
    endloop
  endfacet
  facet normal 0.587055 -0.808011 -0.0498414
    outer loop
      vertex -5.31808 8.37995 -2
      vertex -6.32643 7.64734 -2
      vertex -6.42205 7.76292 -5
    endloop
  endfacet
  facet normal 0.248381 -0.967379 -0.0498386
    outer loop
      vertex -1.88787 9.89654 -5
      vertex -1.85976 9.7492 -2
      vertex -3.11335 9.58189 -5
    endloop
  endfacet
  facet normal 0.248378 -0.96738 -0.0498372
    outer loop
      vertex -1.85976 9.7492 -2
      vertex -3.06699 9.43924 -2
      vertex -3.11335 9.58189 -5
    endloop
  endfacet
  facet normal 0.367666 0.928622 -0.0498376
    outer loop
      vertex -3.06699 -9.43924 -2
      vertex -3.11335 -9.58189 -5
      vertex -4.28973 -9.11613 -5
    endloop
  endfacet
  facet normal 0.367668 -0.928621 -0.0498385
    outer loop
      vertex -3.06699 9.43924 -2
      vertex -4.22586 8.98041 -2
      vertex -4.28973 9.11613 -5
    endloop
  endfacet
  facet normal 0.125174 -0.990882 -0.0498347
    outer loop
      vertex -0.632614 10.0551 -5
      vertex -0.623196 9.90541 -2
      vertex -1.85976 9.7492 -2
    endloop
  endfacet
  facet normal 0.481159 0.875215 -0.0498386
    outer loop
      vertex -4.22586 -8.98041 -2
      vertex -4.28973 -9.11613 -5
      vertex -5.31808 -8.37995 -2
    endloop
  endfacet
  facet normal 0.367668 0.928621 -0.0498385
    outer loop
      vertex -4.22586 -8.98041 -2
      vertex -3.06699 -9.43924 -2
      vertex -4.28973 -9.11613 -5
    endloop
  endfacet
  facet normal 0 0 1
    outer loop
      vertex 4.51741 5.61629 -1
      vertex 2.02191 2.04939 -1
      vertex 4.51741 -5.36249 -1
    endloop
  endfacet
  facet normal -0 0 1
    outer loop
      vertex 0.79451 5.61629 -1
      vertex 2.02191 2.04939 -1
      vertex 4.51741 5.61629 -1
    endloop
  endfacet
  facet normal 0 0 1
    outer loop
      vertex 0.143509 0.489685 -1
      vertex 2.02191 2.04939 -1
      vertex 0.79451 5.61629 -1
    endloop
  endfacet
  facet normal 0 0 1
    outer loop
      vertex 2.02191 2.04939 -1
      vertex 0.143509 0.489685 -1
      vertex 1.02501 -5.36249 -1
    endloop
  endfacet
  facet normal 0 0 1
    outer loop
      vertex -1.79597 1.8799 -1
      vertex -0.301682 3.66002 -1
      vertex -0.352753 4.02206 -1
    endloop
  endfacet
  facet normal 0 0 1
    outer loop
      vertex -1.79597 1.8799 -1
      vertex -0.352753 4.02206 -1
      vertex -0.402985 4.36969 -1
    endloop
  endfacet
  facet normal 0 0 1
    outer loop
      vertex -0.301682 3.66002 -1
      vertex -1.79597 1.8799 -1
      vertex -0.249771 3.2836 -1
    endloop
  endfacet
  facet normal 0 0 1
    outer loop
      vertex -4.29147 5.61629 -1
      vertex -0.402985 4.36969 -1
      vertex -0.452408 4.70294 -1
    endloop
  endfacet
  facet normal 0 0 1
    outer loop
      vertex -4.29147 5.61629 -1
      vertex -0.452408 4.70294 -1
      vertex -0.500992 5.02179 -1
    endloop
  endfacet
  facet normal 0 0 1
    outer loop
      vertex -4.29147 5.61629 -1
      vertex -0.500992 5.02179 -1
      vertex -0.548752 5.32623 -1
    endloop
  endfacet
  facet normal -0 0 1
    outer loop
      vertex -4.29147 5.61629 -1
      vertex -0.548752 5.32623 -1
      vertex -0.595673 5.61629 -1
    endloop
  endfacet
  facet normal 0 0 1
    outer loop
      vertex 0.143509 0.489685 -1
      vertex -0.744873 -5.36249 -1
      vertex 1.02501 -5.36249 -1
    endloop
  endfacet
  facet normal 0 0 1
    outer loop
      vertex -0.249771 3.2836 -1
      vertex -1.79597 1.8799 -1
      vertex 0.143509 0.489685 -1
    endloop
  endfacet
  facet normal 0 0 1
    outer loop
      vertex 0.143509 0.489685 -1
      vertex -1.79597 1.8799 -1
      vertex -0.744873 -5.36249 -1
    endloop
  endfacet
  facet normal 0 0 1
    outer loop
      vertex -0.402985 4.36969 -1
      vertex -4.29147 5.61629 -1
      vertex -1.79597 1.8799 -1
    endloop
  endfacet
  facet normal 0 0 1
    outer loop
      vertex -4.29147 -5.36249 -1
      vertex -1.79597 1.8799 -1
      vertex -4.29147 5.61629 -1
    endloop
  endfacet
  facet normal 0 0 1
    outer loop
      vertex -1.79597 1.8799 -1
      vertex -4.29147 -5.36249 -1
      vertex -1.79597 -5.36249 -1
    endloop
  endfacet
  facet normal 0 0 1
    outer loop
      vertex 4.51741 -5.36249 -1
      vertex 2.02191 2.04939 -1
      vertex 2.02191 -5.36249 -1
    endloop
  endfacet
  facet normal 0 0 1
    outer loop
      vertex 2.02191 2.04939 0
      vertex 1.02501 -5.36249 0
      vertex 2.02191 -5.36249 0
    endloop
  endfacet
  facet normal 0 0 1
    outer loop
      vertex 4.51741 5.61629 0
      vertex 12 0 0
      vertex 11.9054 1.504 0
    endloop
  endfacet
  facet normal 0 0 1
    outer loop
      vertex 4.51741 5.61629 0
      vertex 11.9054 1.504 0
      vertex 11.623 2.98428 0
    endloop
  endfacet
  facet normal 0 0 1
    outer loop
      vertex 12 0 0
      vertex 4.51741 5.61629 0
      vertex 4.51741 -5.36249 0
    endloop
  endfacet
  facet normal 0 0 1
    outer loop
      vertex 4.51741 5.61629 0
      vertex 11.623 2.98428 0
      vertex 11.1573 4.41749 0
    endloop
  endfacet
  facet normal 0 0 1
    outer loop
      vertex 12 0 0
      vertex 4.51741 -5.36249 0
      vertex 11.9054 -1.504 0
    endloop
  endfacet
  facet normal -0 0 1
    outer loop
      vertex 4.51741 5.61629 0
      vertex 11.1573 4.41749 0
      vertex 10.5157 5.78104 0
    endloop
  endfacet
  facet normal 0 0 1
    outer loop
      vertex 11.9054 -1.504 0
      vertex 4.51741 -5.36249 0
      vertex 11.623 -2.98428 0
    endloop
  endfacet
  facet normal 0 0 1
    outer loop
      vertex 4.51741 5.61629 0
      vertex 10.5157 5.78104 0
      vertex 9.7082 7.05342 0
    endloop
  endfacet
  facet normal 0 0 1
    outer loop
      vertex 11.623 -2.98428 0
      vertex 4.51741 -5.36249 0
      vertex 11.1573 -4.41749 0
    endloop
  endfacet
  facet normal 0 0 1
    outer loop
      vertex 4.51741 5.61629 0
      vertex 9.7082 7.05342 0
      vertex 8.74762 8.21456 0
    endloop
  endfacet
  facet normal 0 0 1
    outer loop
      vertex 11.1573 -4.41749 0
      vertex 4.51741 -5.36249 0
      vertex 10.5157 -5.78104 0
    endloop
  endfacet
  facet normal 0 0 1
    outer loop
      vertex 4.51741 5.61629 0
      vertex 8.74762 8.21456 0
      vertex 7.64909 9.24616 0
    endloop
  endfacet
  facet normal 0 0 1
    outer loop
      vertex 10.5157 -5.78104 0
      vertex 4.51741 -5.36249 0
      vertex 9.7082 -7.05342 0
    endloop
  endfacet
  facet normal 0 0 1
    outer loop
      vertex 4.51741 5.61629 0
      vertex 7.64909 9.24616 0
      vertex 6.42992 10.1319 0
    endloop
  endfacet
  facet normal 0 0 1
    outer loop
      vertex 9.7082 -7.05342 0
      vertex 4.51741 -5.36249 0
      vertex 8.74762 -8.21456 0
    endloop
  endfacet
  facet normal 0 0 1
    outer loop
      vertex 4.51741 5.61629 0
      vertex 6.42992 10.1319 0
      vertex 5.10935 10.8579 0
    endloop
  endfacet
  facet normal 0 0 1
    outer loop
      vertex 8.74762 -8.21456 0
      vertex 4.51741 -5.36249 0
      vertex 7.64909 -9.24616 0
    endloop
  endfacet
  facet normal 0 0 1
    outer loop
      vertex 7.64909 -9.24616 0
      vertex 4.51741 -5.36249 0
      vertex 6.42992 -10.1319 0
    endloop
  endfacet
  facet normal 0 0 1
    outer loop
      vertex 3.7082 11.4127 0
      vertex 4.51741 5.61629 0
      vertex 5.10935 10.8579 0
    endloop
  endfacet
  facet normal 0 0 1
    outer loop
      vertex 0.79451 5.61629 0
      vertex 3.7082 11.4127 0
      vertex 2.24858 11.7874 0
    endloop
  endfacet
  facet normal 0 0 1
    outer loop
      vertex 3.7082 11.4127 0
      vertex 0.79451 5.61629 0
      vertex 4.51741 5.61629 0
    endloop
  endfacet
  facet normal 0 0 1
    outer loop
      vertex 0.753486 11.9763 0
      vertex 0.79451 5.61629 0
      vertex 2.24858 11.7874 0
    endloop
  endfacet
  facet normal 0 0 1
    outer loop
      vertex -0.595673 5.61629 0
      vertex 0.79451 5.61629 0
      vertex 0.753486 11.9763 0
    endloop
  endfacet
  facet normal 0 0 1
    outer loop
      vertex 0.79451 5.61629 0
      vertex -0.249771 3.2836 0
      vertex 0.143509 0.489685 0
    endloop
  endfacet
  facet normal 0 0 1
    outer loop
      vertex 0.79451 5.61629 0
      vertex -0.301682 3.66002 0
      vertex -0.249771 3.2836 0
    endloop
  endfacet
  facet normal 0 0 1
    outer loop
      vertex 0.79451 5.61629 0
      vertex -0.352753 4.02206 0
      vertex -0.301682 3.66002 0
    endloop
  endfacet
  facet normal 0 0 1
    outer loop
      vertex 0.79451 5.61629 0
      vertex -0.402985 4.36969 0
      vertex -0.352753 4.02206 0
    endloop
  endfacet
  facet normal 0 0 1
    outer loop
      vertex 0.79451 5.61629 0
      vertex -0.452408 4.70294 0
      vertex -0.402985 4.36969 0
    endloop
  endfacet
  facet normal 0 0 1
    outer loop
      vertex 0.79451 5.61629 0
      vertex -0.500992 5.02179 0
      vertex -0.452408 4.70294 0
    endloop
  endfacet
  facet normal 0 0 1
    outer loop
      vertex 0.79451 5.61629 0
      vertex -0.548752 5.32623 0
      vertex -0.500992 5.02179 0
    endloop
  endfacet
  facet normal 0 0 1
    outer loop
      vertex 0.79451 5.61629 0
      vertex -0.595673 5.61629 0
      vertex -0.548752 5.32623 0
    endloop
  endfacet
  facet normal -0 0 1
    outer loop
      vertex -0.753486 11.9763 0
      vertex -0.595673 5.61629 0
      vertex 0.753486 11.9763 0
    endloop
  endfacet
  facet normal -0 0 1
    outer loop
      vertex -2.24858 11.7874 0
      vertex -0.595673 5.61629 0
      vertex -0.753486 11.9763 0
    endloop
  endfacet
  facet normal -0 0 1
    outer loop
      vertex -3.7082 11.4127 0
      vertex -0.595673 5.61629 0
      vertex -2.24858 11.7874 0
    endloop
  endfacet
  facet normal 0 0 1
    outer loop
      vertex -3.7082 11.4127 0
      vertex -4.29147 5.61629 0
      vertex -0.595673 5.61629 0
    endloop
  endfacet
  facet normal -0 0 1
    outer loop
      vertex -6.42992 10.1319 0
      vertex -4.29147 5.61629 0
      vertex -5.10935 10.8579 0
    endloop
  endfacet
  facet normal -0 0 1
    outer loop
      vertex -5.10935 10.8579 0
      vertex -4.29147 5.61629 0
      vertex -3.7082 11.4127 0
    endloop
  endfacet
  facet normal 0 0 1
    outer loop
      vertex 6.42992 -10.1319 0
      vertex 4.51741 -5.36249 0
      vertex 5.10935 -10.8579 0
    endloop
  endfacet
  facet normal 0 0 1
    outer loop
      vertex 4.51741 -5.36249 0
      vertex 3.7082 -11.4127 0
      vertex 5.10935 -10.8579 0
    endloop
  endfacet
  facet normal -0 0 1
    outer loop
      vertex 2.02191 -5.36249 0
      vertex 3.7082 -11.4127 0
      vertex 4.51741 -5.36249 0
    endloop
  endfacet
  facet normal 0 0 1
    outer loop
      vertex 3.7082 -11.4127 0
      vertex 2.02191 -5.36249 0
      vertex 2.24858 -11.7874 0
    endloop
  endfacet
  facet normal -0 0 1
    outer loop
      vertex 1.02501 -5.36249 0
      vertex 2.24858 -11.7874 0
      vertex 2.02191 -5.36249 0
    endloop
  endfacet
  facet normal 0 0 1
    outer loop
      vertex 1.02501 -5.36249 0
      vertex 0.753486 -11.9763 0
      vertex 2.24858 -11.7874 0
    endloop
  endfacet
  facet normal -0 0 1
    outer loop
      vertex -0.744873 -5.36249 0
      vertex 0.753486 -11.9763 0
      vertex 1.02501 -5.36249 0
    endloop
  endfacet
  facet normal 0 0 1
    outer loop
      vertex -0.744873 -5.36249 0
      vertex -0.753486 -11.9763 0
      vertex 0.753486 -11.9763 0
    endloop
  endfacet
  facet normal 0 0 1
    outer loop
      vertex -1.79597 -5.36249 0
      vertex -0.744873 -5.36249 0
      vertex -1.79597 1.8799 0
    endloop
  endfacet
  facet normal 0 0 1
    outer loop
      vertex -2.24858 -11.7874 0
      vertex -0.744873 -5.36249 0
      vertex -1.79597 -5.36249 0
    endloop
  endfacet
  facet normal 0 0 1
    outer loop
      vertex -0.744873 -5.36249 0
      vertex -2.24858 -11.7874 0
      vertex -0.753486 -11.9763 0
    endloop
  endfacet
  facet normal 0 0 1
    outer loop
      vertex -1.79597 -5.36249 0
      vertex -3.7082 -11.4127 0
      vertex -2.24858 -11.7874 0
    endloop
  endfacet
  facet normal -0 0 1
    outer loop
      vertex -4.29147 -5.36249 0
      vertex -3.7082 -11.4127 0
      vertex -1.79597 -5.36249 0
    endloop
  endfacet
  facet normal 0 0 1
    outer loop
      vertex -4.29147 -5.36249 0
      vertex -5.10935 -10.8579 0
      vertex -3.7082 -11.4127 0
    endloop
  endfacet
  facet normal -0 0 1
    outer loop
      vertex -7.64909 9.24616 0
      vertex -4.29147 5.61629 0
      vertex -6.42992 10.1319 0
    endloop
  endfacet
  facet normal -0 0 1
    outer loop
      vertex -8.74762 8.21456 0
      vertex -4.29147 5.61629 0
      vertex -7.64909 9.24616 0
    endloop
  endfacet
  facet normal 0 0 1
    outer loop
      vertex -4.29147 -5.36249 0
      vertex -6.42992 -10.1319 0
      vertex -5.10935 -10.8579 0
    endloop
  endfacet
  facet normal -0 0 1
    outer loop
      vertex -9.7082 7.05342 0
      vertex -4.29147 5.61629 0
      vertex -8.74762 8.21456 0
    endloop
  endfacet
  facet normal 0 0 1
    outer loop
      vertex -4.29147 -5.36249 0
      vertex -7.64909 -9.24616 0
      vertex -6.42992 -10.1319 0
    endloop
  endfacet
  facet normal -0 0 1
    outer loop
      vertex -10.5157 5.78104 0
      vertex -4.29147 5.61629 0
      vertex -9.7082 7.05342 0
    endloop
  endfacet
  facet normal 0 0 1
    outer loop
      vertex -4.29147 -5.36249 0
      vertex -8.74762 -8.21456 0
      vertex -7.64909 -9.24616 0
    endloop
  endfacet
  facet normal 0 0 1
    outer loop
      vertex -11.1573 4.41749 0
      vertex -4.29147 5.61629 0
      vertex -10.5157 5.78104 0
    endloop
  endfacet
  facet normal 0 0 1
    outer loop
      vertex -4.29147 -5.36249 0
      vertex -9.7082 -7.05342 0
      vertex -8.74762 -8.21456 0
    endloop
  endfacet
  facet normal 0 0 1
    outer loop
      vertex -11.623 2.98428 0
      vertex -4.29147 5.61629 0
      vertex -11.1573 4.41749 0
    endloop
  endfacet
  facet normal 0 0 1
    outer loop
      vertex -4.29147 -5.36249 0
      vertex -10.5157 -5.78104 0
      vertex -9.7082 -7.05342 0
    endloop
  endfacet
  facet normal 0 0 1
    outer loop
      vertex -11.9054 1.504 0
      vertex -4.29147 5.61629 0
      vertex -11.623 2.98428 0
    endloop
  endfacet
  facet normal 0 0 1
    outer loop
      vertex -4.29147 -5.36249 0
      vertex -11.1573 -4.41749 0
      vertex -10.5157 -5.78104 0
    endloop
  endfacet
  facet normal 0 0 1
    outer loop
      vertex -12 0 0
      vertex -4.29147 5.61629 0
      vertex -11.9054 1.504 0
    endloop
  endfacet
  facet normal 0 0 1
    outer loop
      vertex -4.29147 -5.36249 0
      vertex -11.623 -2.98428 0
      vertex -11.1573 -4.41749 0
    endloop
  endfacet
  facet normal 0 0 1
    outer loop
      vertex -4.29147 5.61629 0
      vertex -12 0 0
      vertex -4.29147 -5.36249 0
    endloop
  endfacet
  facet normal 0 0 1
    outer loop
      vertex -4.29147 -5.36249 0
      vertex -11.9054 -1.504 0
      vertex -11.623 -2.98428 0
    endloop
  endfacet
  facet normal 0 0 1
    outer loop
      vertex -4.29147 -5.36249 0
      vertex -12 0 0
      vertex -11.9054 -1.504 0
    endloop
  endfacet
  facet normal 0.989632 0.143627 0
    outer loop
      vertex -0.744873 -5.36249 0
      vertex -1.79597 1.8799 -1
      vertex -1.79597 1.8799 0
    endloop
  endfacet
  facet normal 0.989632 0.143627 0
    outer loop
      vertex -1.79597 1.8799 -1
      vertex -0.744873 -5.36249 0
      vertex -0.744873 -5.36249 -1
    endloop
  endfacet
  facet normal 0 1 -0
    outer loop
      vertex 1.02501 -5.36249 -1
      vertex -0.744873 -5.36249 0
      vertex 1.02501 -5.36249 0
    endloop
  endfacet
  facet normal 0 1 0
    outer loop
      vertex -0.744873 -5.36249 0
      vertex 1.02501 -5.36249 -1
      vertex -0.744873 -5.36249 -1
    endloop
  endfacet
  facet normal -0.991076 0.1333 0
    outer loop
      vertex 1.02501 -5.36249 -1
      vertex 2.02191 2.04939 0
      vertex 2.02191 2.04939 -1
    endloop
  endfacet
  facet normal -0.991076 0.1333 0
    outer loop
      vertex 2.02191 2.04939 0
      vertex 1.02501 -5.36249 -1
      vertex 1.02501 -5.36249 0
    endloop
  endfacet
  facet normal 1 -0 0
    outer loop
      vertex 2.02191 -5.36249 0
      vertex 2.02191 2.04939 -1
      vertex 2.02191 2.04939 0
    endloop
  endfacet
  facet normal 1 0 0
    outer loop
      vertex 2.02191 2.04939 -1
      vertex 2.02191 -5.36249 0
      vertex 2.02191 -5.36249 -1
    endloop
  endfacet
  facet normal 0 1 -0
    outer loop
      vertex 4.51741 -5.36249 -1
      vertex 2.02191 -5.36249 0
      vertex 4.51741 -5.36249 0
    endloop
  endfacet
  facet normal 0 1 0
    outer loop
      vertex 2.02191 -5.36249 0
      vertex 4.51741 -5.36249 -1
      vertex 2.02191 -5.36249 -1
    endloop
  endfacet
  facet normal -1 0 0
    outer loop
      vertex 4.51741 -5.36249 -1
      vertex 4.51741 5.61629 0
      vertex 4.51741 5.61629 -1
    endloop
  endfacet
  facet normal -1 -0 0
    outer loop
      vertex 4.51741 5.61629 0
      vertex 4.51741 -5.36249 -1
      vertex 4.51741 -5.36249 0
    endloop
  endfacet
  facet normal 0 -1 0
    outer loop
      vertex 0.79451 5.61629 -1
      vertex 4.51741 5.61629 0
      vertex 0.79451 5.61629 0
    endloop
  endfacet
  facet normal 0 -1 -0
    outer loop
      vertex 4.51741 5.61629 0
      vertex 0.79451 5.61629 -1
      vertex 4.51741 5.61629 -1
    endloop
  endfacet
  facet normal 0.992034 -0.125973 0
    outer loop
      vertex 0.143509 0.489685 0
      vertex 0.79451 5.61629 -1
      vertex 0.79451 5.61629 0
    endloop
  endfacet
  facet normal 0.992034 -0.125973 0
    outer loop
      vertex 0.79451 5.61629 -1
      vertex 0.143509 0.489685 0
      vertex 0.143509 0.489685 -1
    endloop
  endfacet
  facet normal -0.990238 -0.139389 0
    outer loop
      vertex 0.143509 0.489685 -1
      vertex -0.249771 3.2836 0
      vertex -0.249771 3.2836 -1
    endloop
  endfacet
  facet normal -0.990238 -0.139389 0
    outer loop
      vertex -0.249771 3.2836 0
      vertex 0.143509 0.489685 -1
      vertex 0.143509 0.489685 0
    endloop
  endfacet
  facet normal -0.990624 -0.136614 0
    outer loop
      vertex -0.249771 3.2836 -1
      vertex -0.301682 3.66002 0
      vertex -0.301682 3.66002 -1
    endloop
  endfacet
  facet normal -0.990624 -0.136614 0
    outer loop
      vertex -0.301682 3.66002 0
      vertex -0.249771 3.2836 -1
      vertex -0.249771 3.2836 0
    endloop
  endfacet
  facet normal -0.990196 -0.139682 0
    outer loop
      vertex -0.301682 3.66002 -1
      vertex -0.352753 4.02206 0
      vertex -0.352753 4.02206 -1
    endloop
  endfacet
  facet normal -0.990196 -0.139682 0
    outer loop
      vertex -0.352753 4.02206 0
      vertex -0.301682 3.66002 -1
      vertex -0.301682 3.66002 0
    endloop
  endfacet
  facet normal -0.989721 -0.143013 0
    outer loop
      vertex -0.352753 4.02206 -1
      vertex -0.402985 4.36969 0
      vertex -0.402985 4.36969 -1
    endloop
  endfacet
  facet normal -0.989721 -0.143013 0
    outer loop
      vertex -0.402985 4.36969 0
      vertex -0.352753 4.02206 -1
      vertex -0.352753 4.02206 0
    endloop
  endfacet
  facet normal -0.989181 -0.146702 0
    outer loop
      vertex -0.402985 4.36969 -1
      vertex -0.452408 4.70294 0
      vertex -0.452408 4.70294 -1
    endloop
  endfacet
  facet normal -0.989181 -0.146702 0
    outer loop
      vertex -0.452408 4.70294 0
      vertex -0.402985 4.36969 -1
      vertex -0.402985 4.36969 0
    endloop
  endfacet
  facet normal -0.98859 -0.150634 0
    outer loop
      vertex -0.452408 4.70294 -1
      vertex -0.500992 5.02179 0
      vertex -0.500992 5.02179 -1
    endloop
  endfacet
  facet normal -0.98859 -0.150634 0
    outer loop
      vertex -0.500992 5.02179 0
      vertex -0.452408 4.70294 -1
      vertex -0.452408 4.70294 0
    endloop
  endfacet
  facet normal -0.987917 -0.154983 0
    outer loop
      vertex -0.500992 5.02179 -1
      vertex -0.548752 5.32623 0
      vertex -0.548752 5.32623 -1
    endloop
  endfacet
  facet normal -0.987917 -0.154983 0
    outer loop
      vertex -0.548752 5.32623 0
      vertex -0.500992 5.02179 -1
      vertex -0.500992 5.02179 0
    endloop
  endfacet
  facet normal -0.987168 -0.159687 0
    outer loop
      vertex -0.548752 5.32623 -1
      vertex -0.595673 5.61629 0
      vertex -0.595673 5.61629 -1
    endloop
  endfacet
  facet normal -0.987168 -0.159687 0
    outer loop
      vertex -0.595673 5.61629 0
      vertex -0.548752 5.32623 -1
      vertex -0.548752 5.32623 0
    endloop
  endfacet
  facet normal 0 -1 0
    outer loop
      vertex -4.29147 5.61629 -1
      vertex -0.595673 5.61629 0
      vertex -4.29147 5.61629 0
    endloop
  endfacet
  facet normal 0 -1 -0
    outer loop
      vertex -0.595673 5.61629 0
      vertex -4.29147 5.61629 -1
      vertex -0.595673 5.61629 -1
    endloop
  endfacet
  facet normal 1 -0 0
    outer loop
      vertex -4.29147 -5.36249 0
      vertex -4.29147 5.61629 -1
      vertex -4.29147 5.61629 0
    endloop
  endfacet
  facet normal 1 0 0
    outer loop
      vertex -4.29147 5.61629 -1
      vertex -4.29147 -5.36249 0
      vertex -4.29147 -5.36249 -1
    endloop
  endfacet
  facet normal 0 1 -0
    outer loop
      vertex -1.79597 -5.36249 -1
      vertex -4.29147 -5.36249 0
      vertex -1.79597 -5.36249 0
    endloop
  endfacet
  facet normal 0 1 0
    outer loop
      vertex -4.29147 -5.36249 0
      vertex -1.79597 -5.36249 -1
      vertex -4.29147 -5.36249 -1
    endloop
  endfacet
  facet normal -1 0 0
    outer loop
      vertex -1.79597 -5.36249 -1
      vertex -1.79597 1.8799 0
      vertex -1.79597 1.8799 -1
    endloop
  endfacet
  facet normal -1 -0 0
    outer loop
      vertex -1.79597 1.8799 0
      vertex -1.79597 -5.36249 -1
      vertex -1.79597 -5.36249 0
    endloop
  endfacet
  facet normal -0.951052 0.30903 0
    outer loop
      vertex -11.623 2.98428 -5
      vertex -11.1573 4.41749 0
      vertex -11.1573 4.41749 -5
    endloop
  endfacet
  facet normal -0.951052 0.30903 0
    outer loop
      vertex -11.1573 4.41749 0
      vertex -11.623 2.98428 -5
      vertex -11.623 2.98428 0
    endloop
  endfacet
  facet normal 0.844321 0.535838 0
    outer loop
      vertex 10.5157 5.78104 0
      vertex 9.7082 7.05342 -5
      vertex 9.7082 7.05342 0
    endloop
  endfacet
  facet normal 0.844321 0.535838 0
    outer loop
      vertex 9.7082 7.05342 -5
      vertex 10.5157 5.78104 0
      vertex 10.5157 5.78104 -5
    endloop
  endfacet
  facet normal 0.248648 0.968594 -0
    outer loop
      vertex 3.7082 11.4127 -5
      vertex 2.24858 11.7874 0
      vertex 3.7082 11.4127 0
    endloop
  endfacet
  facet normal 0.248648 0.968594 0
    outer loop
      vertex 2.24858 11.7874 0
      vertex 3.7082 11.4127 -5
      vertex 2.24858 11.7874 -5
    endloop
  endfacet
  facet normal 0.368151 0.929766 -0
    outer loop
      vertex 5.10935 10.8579 -5
      vertex 3.7082 11.4127 0
      vertex 5.10935 10.8579 0
    endloop
  endfacet
  facet normal 0.368151 0.929766 0
    outer loop
      vertex 3.7082 11.4127 0
      vertex 5.10935 10.8579 -5
      vertex 3.7082 11.4127 -5
    endloop
  endfacet
  facet normal -0.368151 0.929766 0
    outer loop
      vertex -3.7082 11.4127 -5
      vertex -5.10935 10.8579 0
      vertex -3.7082 11.4127 0
    endloop
  endfacet
  facet normal -0.368151 0.929766 0
    outer loop
      vertex -5.10935 10.8579 0
      vertex -3.7082 11.4127 -5
      vertex -5.10935 10.8579 -5
    endloop
  endfacet
  facet normal -0.904837 0.425759 0
    outer loop
      vertex -11.1573 4.41749 -5
      vertex -10.5157 5.78104 0
      vertex -10.5157 5.78104 -5
    endloop
  endfacet
  facet normal -0.904837 0.425759 0
    outer loop
      vertex -10.5157 5.78104 0
      vertex -11.1573 4.41749 -5
      vertex -11.1573 4.41749 0
    endloop
  endfacet
  facet normal 0.982285 -0.187395 0
    outer loop
      vertex 11.623 -2.98428 0
      vertex 11.9054 -1.504 -5
      vertex 11.9054 -1.504 0
    endloop
  endfacet
  facet normal 0.982285 -0.187395 0
    outer loop
      vertex 11.9054 -1.504 -5
      vertex 11.623 -2.98428 0
      vertex 11.623 -2.98428 -5
    endloop
  endfacet
  facet normal 0.12535 0.992113 -0
    outer loop
      vertex 2.24858 11.7874 -5
      vertex 0.753486 11.9763 0
      vertex 2.24858 11.7874 0
    endloop
  endfacet
  facet normal 0.12535 0.992113 0
    outer loop
      vertex 0.753486 11.9763 0
      vertex 2.24858 11.7874 -5
      vertex 0.753486 11.9763 -5
    endloop
  endfacet
  facet normal 0.481759 0.876304 -0
    outer loop
      vertex 6.42992 10.1319 -5
      vertex 5.10935 10.8579 0
      vertex 6.42992 10.1319 0
    endloop
  endfacet
  facet normal 0.481759 0.876304 0
    outer loop
      vertex 5.10935 10.8579 0
      vertex 6.42992 10.1319 -5
      vertex 5.10935 10.8579 -5
    endloop
  endfacet
  facet normal -0.982285 0.187395 0
    outer loop
      vertex -11.9054 1.504 -5
      vertex -11.623 2.98428 0
      vertex -11.623 2.98428 -5
    endloop
  endfacet
  facet normal -0.982285 0.187395 0
    outer loop
      vertex -11.623 2.98428 0
      vertex -11.9054 1.504 -5
      vertex -11.9054 1.504 0
    endloop
  endfacet
  facet normal -0.770513 0.637425 0
    outer loop
      vertex -9.7082 7.05342 -5
      vertex -8.74762 8.21456 0
      vertex -8.74762 8.21456 -5
    endloop
  endfacet
  facet normal -0.770513 0.637425 0
    outer loop
      vertex -8.74762 8.21456 0
      vertex -9.7082 7.05342 -5
      vertex -9.7082 7.05342 0
    endloop
  endfacet
  facet normal -0.12535 0.992113 0
    outer loop
      vertex -0.753486 11.9763 -5
      vertex -2.24858 11.7874 0
      vertex -0.753486 11.9763 0
    endloop
  endfacet
  facet normal -0.12535 0.992113 0
    outer loop
      vertex -2.24858 11.7874 0
      vertex -0.753486 11.9763 -5
      vertex -2.24858 11.7874 -5
    endloop
  endfacet
  facet normal -0.684551 0.728965 0
    outer loop
      vertex -7.64909 9.24616 -5
      vertex -8.74762 8.21456 0
      vertex -7.64909 9.24616 0
    endloop
  endfacet
  facet normal -0.684551 0.728965 0
    outer loop
      vertex -8.74762 8.21456 0
      vertex -7.64909 9.24616 -5
      vertex -8.74762 8.21456 -5
    endloop
  endfacet
  facet normal 0.998028 0.0627749 0
    outer loop
      vertex 12 0 0
      vertex 11.9054 1.504 -5
      vertex 11.9054 1.504 0
    endloop
  endfacet
  facet normal 0.998028 0.0627749 0
    outer loop
      vertex 11.9054 1.504 -5
      vertex 12 0 0
      vertex 12 0 -5
    endloop
  endfacet
  facet normal 0.951052 -0.30903 0
    outer loop
      vertex 11.1573 -4.41749 0
      vertex 11.623 -2.98428 -5
      vertex 11.623 -2.98428 0
    endloop
  endfacet
  facet normal 0.951052 -0.30903 0
    outer loop
      vertex 11.623 -2.98428 -5
      vertex 11.1573 -4.41749 0
      vertex 11.1573 -4.41749 -5
    endloop
  endfacet
  facet normal -0.684551 -0.728965 0
    outer loop
      vertex -8.74762 -8.21456 -5
      vertex -7.64909 -9.24616 0
      vertex -8.74762 -8.21456 0
    endloop
  endfacet
  facet normal -0.684551 -0.728965 -0
    outer loop
      vertex -7.64909 -9.24616 0
      vertex -8.74762 -8.21456 -5
      vertex -7.64909 -9.24616 -5
    endloop
  endfacet
  facet normal 0.684551 0.728965 -0
    outer loop
      vertex 8.74762 8.21456 -5
      vertex 7.64909 9.24616 0
      vertex 8.74762 8.21456 0
    endloop
  endfacet
  facet normal 0.684551 0.728965 0
    outer loop
      vertex 7.64909 9.24616 0
      vertex 8.74762 8.21456 -5
      vertex 7.64909 9.24616 -5
    endloop
  endfacet
  facet normal 0.770513 0.637425 0
    outer loop
      vertex 9.7082 7.05342 0
      vertex 8.74762 8.21456 -5
      vertex 8.74762 8.21456 0
    endloop
  endfacet
  facet normal 0.770513 0.637425 0
    outer loop
      vertex 8.74762 8.21456 -5
      vertex 9.7082 7.05342 0
      vertex 9.7082 7.05342 -5
    endloop
  endfacet
  facet normal 0 1 -0
    outer loop
      vertex 0.753486 11.9763 -5
      vertex -0.753486 11.9763 0
      vertex 0.753486 11.9763 0
    endloop
  endfacet
  facet normal 0 1 0
    outer loop
      vertex -0.753486 11.9763 0
      vertex 0.753486 11.9763 -5
      vertex -0.753486 11.9763 -5
    endloop
  endfacet
  facet normal 0.587768 0.809029 -0
    outer loop
      vertex 7.64909 9.24616 -5
      vertex 6.42992 10.1319 0
      vertex 7.64909 9.24616 0
    endloop
  endfacet
  facet normal 0.587768 0.809029 0
    outer loop
      vertex 6.42992 10.1319 0
      vertex 7.64909 9.24616 -5
      vertex 6.42992 10.1319 -5
    endloop
  endfacet
  facet normal -0.998028 0.0627749 0
    outer loop
      vertex -12 0 -5
      vertex -11.9054 1.504 0
      vertex -11.9054 1.504 -5
    endloop
  endfacet
  facet normal -0.998028 0.0627749 0
    outer loop
      vertex -11.9054 1.504 0
      vertex -12 0 -5
      vertex -12 0 0
    endloop
  endfacet
  facet normal -0.844321 0.535838 0
    outer loop
      vertex -10.5157 5.78104 -5
      vertex -9.7082 7.05342 0
      vertex -9.7082 7.05342 -5
    endloop
  endfacet
  facet normal -0.844321 0.535838 0
    outer loop
      vertex -9.7082 7.05342 0
      vertex -10.5157 5.78104 -5
      vertex -10.5157 5.78104 0
    endloop
  endfacet
  facet normal -0.248648 0.968594 0
    outer loop
      vertex -2.24858 11.7874 -5
      vertex -3.7082 11.4127 0
      vertex -2.24858 11.7874 0
    endloop
  endfacet
  facet normal -0.248648 0.968594 0
    outer loop
      vertex -3.7082 11.4127 0
      vertex -2.24858 11.7874 -5
      vertex -3.7082 11.4127 -5
    endloop
  endfacet
  facet normal -0.587768 0.809029 0
    outer loop
      vertex -6.42992 10.1319 -5
      vertex -7.64909 9.24616 0
      vertex -6.42992 10.1319 0
    endloop
  endfacet
  facet normal -0.587768 0.809029 0
    outer loop
      vertex -7.64909 9.24616 0
      vertex -6.42992 10.1319 -5
      vertex -7.64909 9.24616 -5
    endloop
  endfacet
  facet normal -0.481759 0.876304 0
    outer loop
      vertex -5.10935 10.8579 -5
      vertex -6.42992 10.1319 0
      vertex -5.10935 10.8579 0
    endloop
  endfacet
  facet normal -0.481759 0.876304 0
    outer loop
      vertex -6.42992 10.1319 0
      vertex -5.10935 10.8579 -5
      vertex -6.42992 10.1319 -5
    endloop
  endfacet
  facet normal 0.998028 -0.0627749 0
    outer loop
      vertex 11.9054 -1.504 0
      vertex 12 0 -5
      vertex 12 0 0
    endloop
  endfacet
  facet normal 0.998028 -0.0627749 0
    outer loop
      vertex 12 0 -5
      vertex 11.9054 -1.504 0
      vertex 11.9054 -1.504 -5
    endloop
  endfacet
  facet normal -0.770513 -0.637425 0
    outer loop
      vertex -8.74762 -8.21456 -5
      vertex -9.7082 -7.05342 0
      vertex -9.7082 -7.05342 -5
    endloop
  endfacet
  facet normal -0.770513 -0.637425 0
    outer loop
      vertex -9.7082 -7.05342 0
      vertex -8.74762 -8.21456 -5
      vertex -8.74762 -8.21456 0
    endloop
  endfacet
  facet normal 0.12535 -0.992113 0
    outer loop
      vertex 0.753486 -11.9763 -5
      vertex 2.24858 -11.7874 0
      vertex 0.753486 -11.9763 0
    endloop
  endfacet
  facet normal 0.12535 -0.992113 0
    outer loop
      vertex 2.24858 -11.7874 0
      vertex 0.753486 -11.9763 -5
      vertex 2.24858 -11.7874 -5
    endloop
  endfacet
  facet normal 0.904837 0.425759 0
    outer loop
      vertex 11.1573 4.41749 0
      vertex 10.5157 5.78104 -5
      vertex 10.5157 5.78104 0
    endloop
  endfacet
  facet normal 0.904837 0.425759 0
    outer loop
      vertex 10.5157 5.78104 -5
      vertex 11.1573 4.41749 0
      vertex 11.1573 4.41749 -5
    endloop
  endfacet
  facet normal 0.951052 0.30903 0
    outer loop
      vertex 11.623 2.98428 0
      vertex 11.1573 4.41749 -5
      vertex 11.1573 4.41749 0
    endloop
  endfacet
  facet normal 0.951052 0.30903 0
    outer loop
      vertex 11.1573 4.41749 -5
      vertex 11.623 2.98428 0
      vertex 11.623 2.98428 -5
    endloop
  endfacet
  facet normal 0.982285 0.187395 0
    outer loop
      vertex 11.9054 1.504 0
      vertex 11.623 2.98428 -5
      vertex 11.623 2.98428 0
    endloop
  endfacet
  facet normal 0.982285 0.187395 0
    outer loop
      vertex 11.623 2.98428 -5
      vertex 11.9054 1.504 0
      vertex 11.9054 1.504 -5
    endloop
  endfacet
  facet normal 0.844321 -0.535838 0
    outer loop
      vertex 9.7082 -7.05342 0
      vertex 10.5157 -5.78104 -5
      vertex 10.5157 -5.78104 0
    endloop
  endfacet
  facet normal 0.844321 -0.535838 0
    outer loop
      vertex 10.5157 -5.78104 -5
      vertex 9.7082 -7.05342 0
      vertex 9.7082 -7.05342 -5
    endloop
  endfacet
  facet normal -0.587768 -0.809029 0
    outer loop
      vertex -7.64909 -9.24616 -5
      vertex -6.42992 -10.1319 0
      vertex -7.64909 -9.24616 0
    endloop
  endfacet
  facet normal -0.587768 -0.809029 -0
    outer loop
      vertex -6.42992 -10.1319 0
      vertex -7.64909 -9.24616 -5
      vertex -6.42992 -10.1319 -5
    endloop
  endfacet
  facet normal -0.998028 -0.0627749 0
    outer loop
      vertex -11.9054 -1.504 -5
      vertex -12 0 0
      vertex -12 0 -5
    endloop
  endfacet
  facet normal -0.998028 -0.0627749 0
    outer loop
      vertex -12 0 0
      vertex -11.9054 -1.504 -5
      vertex -11.9054 -1.504 0
    endloop
  endfacet
  facet normal -0.951052 -0.30903 0
    outer loop
      vertex -11.1573 -4.41749 -5
      vertex -11.623 -2.98428 0
      vertex -11.623 -2.98428 -5
    endloop
  endfacet
  facet normal -0.951052 -0.30903 0
    outer loop
      vertex -11.623 -2.98428 0
      vertex -11.1573 -4.41749 -5
      vertex -11.1573 -4.41749 0
    endloop
  endfacet
  facet normal 0.368151 -0.929766 0
    outer loop
      vertex 3.7082 -11.4127 -5
      vertex 5.10935 -10.8579 0
      vertex 3.7082 -11.4127 0
    endloop
  endfacet
  facet normal 0.368151 -0.929766 0
    outer loop
      vertex 5.10935 -10.8579 0
      vertex 3.7082 -11.4127 -5
      vertex 5.10935 -10.8579 -5
    endloop
  endfacet
  facet normal 0.248648 -0.968594 0
    outer loop
      vertex 2.24858 -11.7874 -5
      vertex 3.7082 -11.4127 0
      vertex 2.24858 -11.7874 0
    endloop
  endfacet
  facet normal 0.248648 -0.968594 0
    outer loop
      vertex 3.7082 -11.4127 0
      vertex 2.24858 -11.7874 -5
      vertex 3.7082 -11.4127 -5
    endloop
  endfacet
  facet normal 0.684551 -0.728965 0
    outer loop
      vertex 7.64909 -9.24616 -5
      vertex 8.74762 -8.21456 0
      vertex 7.64909 -9.24616 0
    endloop
  endfacet
  facet normal 0.684551 -0.728965 0
    outer loop
      vertex 8.74762 -8.21456 0
      vertex 7.64909 -9.24616 -5
      vertex 8.74762 -8.21456 -5
    endloop
  endfacet
  facet normal 0.904837 -0.425759 0
    outer loop
      vertex 10.5157 -5.78104 0
      vertex 11.1573 -4.41749 -5
      vertex 11.1573 -4.41749 0
    endloop
  endfacet
  facet normal 0.904837 -0.425759 0
    outer loop
      vertex 11.1573 -4.41749 -5
      vertex 10.5157 -5.78104 0
      vertex 10.5157 -5.78104 -5
    endloop
  endfacet
  facet normal 0 -1 0
    outer loop
      vertex -0.753486 -11.9763 -5
      vertex 0.753486 -11.9763 0
      vertex -0.753486 -11.9763 0
    endloop
  endfacet
  facet normal 0 -1 -0
    outer loop
      vertex 0.753486 -11.9763 0
      vertex -0.753486 -11.9763 -5
      vertex 0.753486 -11.9763 -5
    endloop
  endfacet
  facet normal -0.368151 -0.929766 0
    outer loop
      vertex -5.10935 -10.8579 -5
      vertex -3.7082 -11.4127 0
      vertex -5.10935 -10.8579 0
    endloop
  endfacet
  facet normal -0.368151 -0.929766 -0
    outer loop
      vertex -3.7082 -11.4127 0
      vertex -5.10935 -10.8579 -5
      vertex -3.7082 -11.4127 -5
    endloop
  endfacet
  facet normal -0.982285 -0.187395 0
    outer loop
      vertex -11.623 -2.98428 -5
      vertex -11.9054 -1.504 0
      vertex -11.9054 -1.504 -5
    endloop
  endfacet
  facet normal -0.982285 -0.187395 0
    outer loop
      vertex -11.9054 -1.504 0
      vertex -11.623 -2.98428 -5
      vertex -11.623 -2.98428 0
    endloop
  endfacet
  facet normal -0.844321 -0.535838 0
    outer loop
      vertex -9.7082 -7.05342 -5
      vertex -10.5157 -5.78104 0
      vertex -10.5157 -5.78104 -5
    endloop
  endfacet
  facet normal -0.844321 -0.535838 0
    outer loop
      vertex -10.5157 -5.78104 0
      vertex -9.7082 -7.05342 -5
      vertex -9.7082 -7.05342 0
    endloop
  endfacet
  facet normal -0.904837 -0.425759 0
    outer loop
      vertex -10.5157 -5.78104 -5
      vertex -11.1573 -4.41749 0
      vertex -11.1573 -4.41749 -5
    endloop
  endfacet
  facet normal -0.904837 -0.425759 0
    outer loop
      vertex -11.1573 -4.41749 0
      vertex -10.5157 -5.78104 -5
      vertex -10.5157 -5.78104 0
    endloop
  endfacet
  facet normal 0.770513 -0.637425 0
    outer loop
      vertex 8.74762 -8.21456 0
      vertex 9.7082 -7.05342 -5
      vertex 9.7082 -7.05342 0
    endloop
  endfacet
  facet normal 0.770513 -0.637425 0
    outer loop
      vertex 9.7082 -7.05342 -5
      vertex 8.74762 -8.21456 0
      vertex 8.74762 -8.21456 -5
    endloop
  endfacet
  facet normal 0.587768 -0.809029 0
    outer loop
      vertex 6.42992 -10.1319 -5
      vertex 7.64909 -9.24616 0
      vertex 6.42992 -10.1319 0
    endloop
  endfacet
  facet normal 0.587768 -0.809029 0
    outer loop
      vertex 7.64909 -9.24616 0
      vertex 6.42992 -10.1319 -5
      vertex 7.64909 -9.24616 -5
    endloop
  endfacet
  facet normal 0.481759 -0.876304 0
    outer loop
      vertex 5.10935 -10.8579 -5
      vertex 6.42992 -10.1319 0
      vertex 5.10935 -10.8579 0
    endloop
  endfacet
  facet normal 0.481759 -0.876304 0
    outer loop
      vertex 6.42992 -10.1319 0
      vertex 5.10935 -10.8579 -5
      vertex 6.42992 -10.1319 -5
    endloop
  endfacet
  facet normal -0.481759 -0.876304 0
    outer loop
      vertex -6.42992 -10.1319 -5
      vertex -5.10935 -10.8579 0
      vertex -6.42992 -10.1319 0
    endloop
  endfacet
  facet normal -0.481759 -0.876304 -0
    outer loop
      vertex -5.10935 -10.8579 0
      vertex -6.42992 -10.1319 -5
      vertex -5.10935 -10.8579 -5
    endloop
  endfacet
  facet normal -0.248648 -0.968594 0
    outer loop
      vertex -3.7082 -11.4127 -5
      vertex -2.24858 -11.7874 0
      vertex -3.7082 -11.4127 0
    endloop
  endfacet
  facet normal -0.248648 -0.968594 -0
    outer loop
      vertex -2.24858 -11.7874 0
      vertex -3.7082 -11.4127 -5
      vertex -2.24858 -11.7874 -5
    endloop
  endfacet
  facet normal -0.12535 -0.992113 0
    outer loop
      vertex -2.24858 -11.7874 -5
      vertex -0.753486 -11.9763 0
      vertex -2.24858 -11.7874 0
    endloop
  endfacet
  facet normal -0.12535 -0.992113 -0
    outer loop
      vertex -0.753486 -11.9763 0
      vertex -2.24858 -11.7874 -5
      vertex -0.753486 -11.9763 -5
    endloop
  endfacet
endsolid OpenSCAD_Model
