solid OpenSCAD_Model
  facet normal 0 1 -0
    outer loop
      vertex 1.55789 -2.69835 -1.9
      vertex -1.55789 -2.69835 0
      vertex 1.55789 -2.69835 0
    endloop
  endfacet
  facet normal 0 1 0
    outer loop
      vertex -1.55789 -2.69835 0
      vertex 1.55789 -2.69835 -1.9
      vertex -1.55789 -2.69835 -1.9
    endloop
  endfacet
  facet normal -0 0 1
    outer loop
      vertex 1.35827 0.746717 -1.9
      vertex 3.1158 0 -1.9
      vertex 1.55789 2.69835 -1.9
    endloop
  endfacet
  facet normal 0 0 1
    outer loop
      vertex 1.53778 -0.194266 -1.9
      vertex 3.1158 0 -1.9
      vertex 1.55 0 -1.9
    endloop
  endfacet
  facet normal 0 0 1
    outer loop
      vertex 3.1158 0 -1.9
      vertex 1.53778 0.194266 -1.9
      vertex 1.55 0 -1.9
    endloop
  endfacet
  facet normal 0 0 1
    outer loop
      vertex 3.1158 0 -1.9
      vertex 1.5013 0.385468 -1.9
      vertex 1.53778 0.194266 -1.9
    endloop
  endfacet
  facet normal 0 0 1
    outer loop
      vertex 3.1158 0 -1.9
      vertex 1.44115 0.570593 -1.9
      vertex 1.5013 0.385468 -1.9
    endloop
  endfacet
  facet normal 0 0 1
    outer loop
      vertex 3.1158 0 -1.9
      vertex 1.35827 0.746717 -1.9
      vertex 1.44115 0.570593 -1.9
    endloop
  endfacet
  facet normal 0 0 1
    outer loop
      vertex 1.55789 2.69835 -1.9
      vertex 1.25398 0.911067 -1.9
      vertex 1.35827 0.746717 -1.9
    endloop
  endfacet
  facet normal 0 0 1
    outer loop
      vertex 1.55789 2.69835 -1.9
      vertex 1.1299 1.06105 -1.9
      vertex 1.25398 0.911067 -1.9
    endloop
  endfacet
  facet normal 0 0 1
    outer loop
      vertex 1.55789 2.69835 -1.9
      vertex 0.988007 1.19429 -1.9
      vertex 1.1299 1.06105 -1.9
    endloop
  endfacet
  facet normal 0 0 1
    outer loop
      vertex 1.55789 2.69835 -1.9
      vertex 0.830531 1.30871 -1.9
      vertex 0.988007 1.19429 -1.9
    endloop
  endfacet
  facet normal 0 0 1
    outer loop
      vertex 1.55789 2.69835 -1.9
      vertex 0.659958 1.40248 -1.9
      vertex 0.830531 1.30871 -1.9
    endloop
  endfacet
  facet normal 0 0 1
    outer loop
      vertex 1.55789 2.69835 -1.9
      vertex 0.478976 1.47414 -1.9
      vertex 0.659958 1.40248 -1.9
    endloop
  endfacet
  facet normal 0 0 1
    outer loop
      vertex 1.55789 2.69835 -1.9
      vertex 0.290441 1.52254 -1.9
      vertex 0.478976 1.47414 -1.9
    endloop
  endfacet
  facet normal 0 0 1
    outer loop
      vertex 1.55789 2.69835 -1.9
      vertex 0.0973244 1.54694 -1.9
      vertex 0.290441 1.52254 -1.9
    endloop
  endfacet
  facet normal 0 0 1
    outer loop
      vertex 1.55789 2.69835 -1.9
      vertex -0.0973244 1.54694 -1.9
      vertex 0.0973244 1.54694 -1.9
    endloop
  endfacet
  facet normal -0 0 1
    outer loop
      vertex -1.55789 2.69835 -1.9
      vertex -0.0973244 1.54694 -1.9
      vertex 1.55789 2.69835 -1.9
    endloop
  endfacet
  facet normal 0 0 1
    outer loop
      vertex -0.0973244 1.54694 -1.9
      vertex -1.55789 2.69835 -1.9
      vertex -0.290441 1.52254 -1.9
    endloop
  endfacet
  facet normal 0 0 1
    outer loop
      vertex -0.290441 1.52254 -1.9
      vertex -1.55789 2.69835 -1.9
      vertex -0.478976 1.47414 -1.9
    endloop
  endfacet
  facet normal 0 0 1
    outer loop
      vertex -0.478976 1.47414 -1.9
      vertex -1.55789 2.69835 -1.9
      vertex -0.659958 1.40248 -1.9
    endloop
  endfacet
  facet normal 0 0 1
    outer loop
      vertex -1.5013 0.385468 -1.9
      vertex -3.1158 0 -1.9
      vertex -1.53778 0.194266 -1.9
    endloop
  endfacet
  facet normal 0 0 1
    outer loop
      vertex -1.44115 0.570593 -1.9
      vertex -3.1158 0 -1.9
      vertex -1.5013 0.385468 -1.9
    endloop
  endfacet
  facet normal 0 0 1
    outer loop
      vertex -1.35827 0.746717 -1.9
      vertex -3.1158 0 -1.9
      vertex -1.44115 0.570593 -1.9
    endloop
  endfacet
  facet normal 0 0 1
    outer loop
      vertex -3.1158 0 -1.9
      vertex -1.35827 0.746717 -1.9
      vertex -1.55789 2.69835 -1.9
    endloop
  endfacet
  facet normal 0 0 1
    outer loop
      vertex -1.25398 0.911067 -1.9
      vertex -1.55789 2.69835 -1.9
      vertex -1.35827 0.746717 -1.9
    endloop
  endfacet
  facet normal 0 0 1
    outer loop
      vertex -1.1299 1.06105 -1.9
      vertex -1.55789 2.69835 -1.9
      vertex -1.25398 0.911067 -1.9
    endloop
  endfacet
  facet normal 0 0 1
    outer loop
      vertex -0.988007 1.19429 -1.9
      vertex -1.55789 2.69835 -1.9
      vertex -1.1299 1.06105 -1.9
    endloop
  endfacet
  facet normal 0 0 1
    outer loop
      vertex -0.830531 1.30871 -1.9
      vertex -1.55789 2.69835 -1.9
      vertex -0.988007 1.19429 -1.9
    endloop
  endfacet
  facet normal 0 0 1
    outer loop
      vertex -0.659958 1.40248 -1.9
      vertex -1.55789 2.69835 -1.9
      vertex -0.830531 1.30871 -1.9
    endloop
  endfacet
  facet normal 0 0 1
    outer loop
      vertex 1.5013 -0.385468 -1.9
      vertex 3.1158 0 -1.9
      vertex 1.53778 -0.194266 -1.9
    endloop
  endfacet
  facet normal 0 0 1
    outer loop
      vertex 1.44115 -0.570593 -1.9
      vertex 3.1158 0 -1.9
      vertex 1.5013 -0.385468 -1.9
    endloop
  endfacet
  facet normal 0 0 1
    outer loop
      vertex 1.35827 -0.746717 -1.9
      vertex 3.1158 0 -1.9
      vertex 1.44115 -0.570593 -1.9
    endloop
  endfacet
  facet normal 0 0 1
    outer loop
      vertex 3.1158 0 -1.9
      vertex 1.35827 -0.746717 -1.9
      vertex 1.55789 -2.69835 -1.9
    endloop
  endfacet
  facet normal -0 0 1
    outer loop
      vertex 1.25398 -0.911067 -1.9
      vertex 1.55789 -2.69835 -1.9
      vertex 1.35827 -0.746717 -1.9
    endloop
  endfacet
  facet normal -0 0 1
    outer loop
      vertex 1.1299 -1.06105 -1.9
      vertex 1.55789 -2.69835 -1.9
      vertex 1.25398 -0.911067 -1.9
    endloop
  endfacet
  facet normal -0 0 1
    outer loop
      vertex 0.988007 -1.19429 -1.9
      vertex 1.55789 -2.69835 -1.9
      vertex 1.1299 -1.06105 -1.9
    endloop
  endfacet
  facet normal -0 0 1
    outer loop
      vertex 0.830531 -1.30871 -1.9
      vertex 1.55789 -2.69835 -1.9
      vertex 0.988007 -1.19429 -1.9
    endloop
  endfacet
  facet normal -0 0 1
    outer loop
      vertex 0.659958 -1.40248 -1.9
      vertex 1.55789 -2.69835 -1.9
      vertex 0.830531 -1.30871 -1.9
    endloop
  endfacet
  facet normal -0 0 1
    outer loop
      vertex 0.478976 -1.47414 -1.9
      vertex 1.55789 -2.69835 -1.9
      vertex 0.659958 -1.40248 -1.9
    endloop
  endfacet
  facet normal -0 0 1
    outer loop
      vertex 0.290441 -1.52254 -1.9
      vertex 1.55789 -2.69835 -1.9
      vertex 0.478976 -1.47414 -1.9
    endloop
  endfacet
  facet normal -0 0 1
    outer loop
      vertex 0.0973244 -1.54694 -1.9
      vertex 1.55789 -2.69835 -1.9
      vertex 0.290441 -1.52254 -1.9
    endloop
  endfacet
  facet normal -0 0 1
    outer loop
      vertex -0.0973244 -1.54694 -1.9
      vertex 1.55789 -2.69835 -1.9
      vertex 0.0973244 -1.54694 -1.9
    endloop
  endfacet
  facet normal 0 0 1
    outer loop
      vertex -1.55789 -2.69835 -1.9
      vertex -0.0973244 -1.54694 -1.9
      vertex -0.290441 -1.52254 -1.9
    endloop
  endfacet
  facet normal 0 0 1
    outer loop
      vertex -1.55789 -2.69835 -1.9
      vertex -0.290441 -1.52254 -1.9
      vertex -0.478976 -1.47414 -1.9
    endloop
  endfacet
  facet normal 0 0 1
    outer loop
      vertex -1.55789 -2.69835 -1.9
      vertex -0.478976 -1.47414 -1.9
      vertex -0.659958 -1.40248 -1.9
    endloop
  endfacet
  facet normal 0 0 1
    outer loop
      vertex -1.55789 -2.69835 -1.9
      vertex -0.659958 -1.40248 -1.9
      vertex -0.830531 -1.30871 -1.9
    endloop
  endfacet
  facet normal 0 0 1
    outer loop
      vertex -0.0973244 -1.54694 -1.9
      vertex -1.55789 -2.69835 -1.9
      vertex 1.55789 -2.69835 -1.9
    endloop
  endfacet
  facet normal 0 0 1
    outer loop
      vertex -0.988007 -1.19429 -1.9
      vertex -1.55789 -2.69835 -1.9
      vertex -0.830531 -1.30871 -1.9
    endloop
  endfacet
  facet normal 0 0 1
    outer loop
      vertex -1.1299 -1.06105 -1.9
      vertex -1.55789 -2.69835 -1.9
      vertex -0.988007 -1.19429 -1.9
    endloop
  endfacet
  facet normal 0 0 1
    outer loop
      vertex -1.25398 -0.911067 -1.9
      vertex -1.55789 -2.69835 -1.9
      vertex -1.1299 -1.06105 -1.9
    endloop
  endfacet
  facet normal 0 0 1
    outer loop
      vertex -1.35827 -0.746717 -1.9
      vertex -1.55789 -2.69835 -1.9
      vertex -1.25398 -0.911067 -1.9
    endloop
  endfacet
  facet normal 0 0 1
    outer loop
      vertex -3.1158 0 -1.9
      vertex -1.35827 -0.746717 -1.9
      vertex -1.44115 -0.570593 -1.9
    endloop
  endfacet
  facet normal 0 0 1
    outer loop
      vertex -3.1158 0 -1.9
      vertex -1.44115 -0.570593 -1.9
      vertex -1.5013 -0.385468 -1.9
    endloop
  endfacet
  facet normal 0 0 1
    outer loop
      vertex -3.1158 0 -1.9
      vertex -1.5013 -0.385468 -1.9
      vertex -1.53778 -0.194266 -1.9
    endloop
  endfacet
  facet normal -0 0 1
    outer loop
      vertex -3.1158 0 -1.9
      vertex -1.53778 -0.194266 -1.9
      vertex -1.55 0 -1.9
    endloop
  endfacet
  facet normal 0 0 1
    outer loop
      vertex -1.53778 0.194266 -1.9
      vertex -3.1158 0 -1.9
      vertex -1.55 0 -1.9
    endloop
  endfacet
  facet normal 0 0 1
    outer loop
      vertex -1.35827 -0.746717 -1.9
      vertex -3.1158 0 -1.9
      vertex -1.55789 -2.69835 -1.9
    endloop
  endfacet
  facet normal -0.866023 0.500004 0
    outer loop
      vertex 1.55789 -2.69835 -1.9
      vertex 3.1158 0 0
      vertex 3.1158 0 -1.9
    endloop
  endfacet
  facet normal -0.866023 0.500004 0
    outer loop
      vertex 3.1158 0 0
      vertex 1.55789 -2.69835 -1.9
      vertex 1.55789 -2.69835 0
    endloop
  endfacet
  facet normal -0.866023 -0.500004 0
    outer loop
      vertex 3.1158 0 -1.9
      vertex 1.55789 2.69835 0
      vertex 1.55789 2.69835 -1.9
    endloop
  endfacet
  facet normal -0.866023 -0.500004 0
    outer loop
      vertex 1.55789 2.69835 0
      vertex 3.1158 0 -1.9
      vertex 3.1158 0 0
    endloop
  endfacet
  facet normal 0 0 1
    outer loop
      vertex 3.1158 0 0
      vertex 22.5 0 0
      vertex 22.3226 2.82 0
    endloop
  endfacet
  facet normal 0 0 1
    outer loop
      vertex 3.1158 0 0
      vertex 22.3226 2.82 0
      vertex 21.7931 5.59552 0
    endloop
  endfacet
  facet normal 0 0 1
    outer loop
      vertex 22.5 0 0
      vertex 3.1158 0 0
      vertex 22.3226 -2.82 0
    endloop
  endfacet
  facet normal 0 0 1
    outer loop
      vertex 3.1158 0 0
      vertex 21.7931 5.59552 0
      vertex 20.92 8.2828 0
    endloop
  endfacet
  facet normal 0 0 1
    outer loop
      vertex 22.3226 -2.82 0
      vertex 3.1158 0 0
      vertex 21.7931 -5.59552 0
    endloop
  endfacet
  facet normal 0 0 1
    outer loop
      vertex 3.1158 0 0
      vertex 20.92 8.2828 0
      vertex 19.7169 10.8395 0
    endloop
  endfacet
  facet normal 0 0 1
    outer loop
      vertex 21.7931 -5.59552 0
      vertex 3.1158 0 0
      vertex 20.92 -8.2828 0
    endloop
  endfacet
  facet normal 0 0 1
    outer loop
      vertex 1.55789 2.69835 0
      vertex 19.7169 10.8395 0
      vertex 18.2029 13.2252 0
    endloop
  endfacet
  facet normal 0 0 1
    outer loop
      vertex 20.92 -8.2828 0
      vertex 3.1158 0 0
      vertex 19.7169 -10.8395 0
    endloop
  endfacet
  facet normal 0 0 1
    outer loop
      vertex 1.55789 2.69835 0
      vertex 18.2029 13.2252 0
      vertex 16.4018 15.4023 0
    endloop
  endfacet
  facet normal -0 0 1
    outer loop
      vertex 1.55789 -2.69835 0
      vertex 19.7169 -10.8395 0
      vertex 3.1158 0 0
    endloop
  endfacet
  facet normal 0 0 1
    outer loop
      vertex 1.55789 2.69835 0
      vertex 16.4018 15.4023 0
      vertex 14.342 17.3365 0
    endloop
  endfacet
  facet normal 0 0 1
    outer loop
      vertex 19.7169 -10.8395 0
      vertex 1.55789 -2.69835 0
      vertex 18.2029 -13.2252 0
    endloop
  endfacet
  facet normal 0 0 1
    outer loop
      vertex 1.55789 2.69835 0
      vertex 14.342 17.3365 0
      vertex 12.0561 18.9974 0
    endloop
  endfacet
  facet normal 0 0 1
    outer loop
      vertex 18.2029 -13.2252 0
      vertex 1.55789 -2.69835 0
      vertex 16.4018 -15.4023 0
    endloop
  endfacet
  facet normal 0 0 1
    outer loop
      vertex 1.55789 2.69835 0
      vertex 12.0561 18.9974 0
      vertex 9.58003 20.3586 0
    endloop
  endfacet
  facet normal 0 0 1
    outer loop
      vertex 16.4018 -15.4023 0
      vertex 1.55789 -2.69835 0
      vertex 14.342 -17.3365 0
    endloop
  endfacet
  facet normal 0 0 1
    outer loop
      vertex 1.55789 2.69835 0
      vertex 9.58003 20.3586 0
      vertex 6.95288 21.3988 0
    endloop
  endfacet
  facet normal 0 0 1
    outer loop
      vertex 14.342 -17.3365 0
      vertex 1.55789 -2.69835 0
      vertex 12.0561 -18.9974 0
    endloop
  endfacet
  facet normal 0 0 1
    outer loop
      vertex 1.55789 2.69835 0
      vertex 6.95288 21.3988 0
      vertex 4.21608 22.1015 0
    endloop
  endfacet
  facet normal 0 0 1
    outer loop
      vertex 12.0561 -18.9974 0
      vertex 1.55789 -2.69835 0
      vertex 9.58003 -20.3586 0
    endloop
  endfacet
  facet normal 0 0 1
    outer loop
      vertex 9.58003 -20.3586 0
      vertex 1.55789 -2.69835 0
      vertex 6.95288 -21.3988 0
    endloop
  endfacet
  facet normal 0 0 1
    outer loop
      vertex 19.7169 10.8395 0
      vertex 1.55789 2.69835 0
      vertex 3.1158 0 0
    endloop
  endfacet
  facet normal 0 0 1
    outer loop
      vertex 1.41279 22.4556 0
      vertex 1.55789 2.69835 0
      vertex 4.21608 22.1015 0
    endloop
  endfacet
  facet normal -0 0 1
    outer loop
      vertex -1.41279 22.4556 0
      vertex 1.55789 2.69835 0
      vertex 1.41279 22.4556 0
    endloop
  endfacet
  facet normal 0 0 1
    outer loop
      vertex -1.41279 22.4556 0
      vertex -1.55789 2.69835 0
      vertex 1.55789 2.69835 0
    endloop
  endfacet
  facet normal -0 0 1
    outer loop
      vertex -4.21608 22.1015 0
      vertex -1.55789 2.69835 0
      vertex -1.41279 22.4556 0
    endloop
  endfacet
  facet normal -0 0 1
    outer loop
      vertex -6.95288 21.3988 0
      vertex -1.55789 2.69835 0
      vertex -4.21608 22.1015 0
    endloop
  endfacet
  facet normal 0 0 1
    outer loop
      vertex 6.95288 -21.3988 0
      vertex 1.55789 -2.69835 0
      vertex 4.21608 -22.1015 0
    endloop
  endfacet
  facet normal 0 0 1
    outer loop
      vertex 1.55789 -2.69835 0
      vertex 1.41279 -22.4556 0
      vertex 4.21608 -22.1015 0
    endloop
  endfacet
  facet normal 0 0 1
    outer loop
      vertex 1.55789 -2.69835 0
      vertex -1.41279 -22.4556 0
      vertex 1.41279 -22.4556 0
    endloop
  endfacet
  facet normal -0 0 1
    outer loop
      vertex -1.55789 -2.69835 0
      vertex -1.41279 -22.4556 0
      vertex 1.55789 -2.69835 0
    endloop
  endfacet
  facet normal 0 0 1
    outer loop
      vertex -19.7169 -10.8395 0
      vertex -1.55789 -2.69835 0
      vertex -3.1158 0 0
    endloop
  endfacet
  facet normal 0 0 1
    outer loop
      vertex -1.55789 -2.69835 0
      vertex -4.21608 -22.1015 0
      vertex -1.41279 -22.4556 0
    endloop
  endfacet
  facet normal -0 0 1
    outer loop
      vertex -9.58003 20.3586 0
      vertex -1.55789 2.69835 0
      vertex -6.95288 21.3988 0
    endloop
  endfacet
  facet normal -0 0 1
    outer loop
      vertex -12.0561 18.9974 0
      vertex -1.55789 2.69835 0
      vertex -9.58003 20.3586 0
    endloop
  endfacet
  facet normal 0 0 1
    outer loop
      vertex -1.55789 -2.69835 0
      vertex -6.95288 -21.3988 0
      vertex -4.21608 -22.1015 0
    endloop
  endfacet
  facet normal -0 0 1
    outer loop
      vertex -14.342 17.3365 0
      vertex -1.55789 2.69835 0
      vertex -12.0561 18.9974 0
    endloop
  endfacet
  facet normal 0 0 1
    outer loop
      vertex -1.55789 -2.69835 0
      vertex -9.58003 -20.3586 0
      vertex -6.95288 -21.3988 0
    endloop
  endfacet
  facet normal -0 0 1
    outer loop
      vertex -16.4018 15.4023 0
      vertex -1.55789 2.69835 0
      vertex -14.342 17.3365 0
    endloop
  endfacet
  facet normal 0 0 1
    outer loop
      vertex -1.55789 -2.69835 0
      vertex -12.0561 -18.9974 0
      vertex -9.58003 -20.3586 0
    endloop
  endfacet
  facet normal -0 0 1
    outer loop
      vertex -18.2029 13.2252 0
      vertex -1.55789 2.69835 0
      vertex -16.4018 15.4023 0
    endloop
  endfacet
  facet normal 0 0 1
    outer loop
      vertex -1.55789 -2.69835 0
      vertex -14.342 -17.3365 0
      vertex -12.0561 -18.9974 0
    endloop
  endfacet
  facet normal -0 0 1
    outer loop
      vertex -19.7169 10.8395 0
      vertex -1.55789 2.69835 0
      vertex -18.2029 13.2252 0
    endloop
  endfacet
  facet normal 0 0 1
    outer loop
      vertex -1.55789 -2.69835 0
      vertex -16.4018 -15.4023 0
      vertex -14.342 -17.3365 0
    endloop
  endfacet
  facet normal 0 0 1
    outer loop
      vertex -1.55789 2.69835 0
      vertex -19.7169 10.8395 0
      vertex -3.1158 0 0
    endloop
  endfacet
  facet normal 0 0 1
    outer loop
      vertex -1.55789 -2.69835 0
      vertex -18.2029 -13.2252 0
      vertex -16.4018 -15.4023 0
    endloop
  endfacet
  facet normal -0 0 1
    outer loop
      vertex -20.92 8.2828 0
      vertex -3.1158 0 0
      vertex -19.7169 10.8395 0
    endloop
  endfacet
  facet normal 0 0 1
    outer loop
      vertex -1.55789 -2.69835 0
      vertex -19.7169 -10.8395 0
      vertex -18.2029 -13.2252 0
    endloop
  endfacet
  facet normal -0 0 1
    outer loop
      vertex -21.7931 5.59552 0
      vertex -3.1158 0 0
      vertex -20.92 8.2828 0
    endloop
  endfacet
  facet normal 0 0 1
    outer loop
      vertex -3.1158 0 0
      vertex -20.92 -8.2828 0
      vertex -19.7169 -10.8395 0
    endloop
  endfacet
  facet normal -0 0 1
    outer loop
      vertex -22.3226 2.82 0
      vertex -3.1158 0 0
      vertex -21.7931 5.59552 0
    endloop
  endfacet
  facet normal 0 0 1
    outer loop
      vertex -3.1158 0 0
      vertex -21.7931 -5.59552 0
      vertex -20.92 -8.2828 0
    endloop
  endfacet
  facet normal 0 0 1
    outer loop
      vertex -22.5 0 0
      vertex -3.1158 0 0
      vertex -22.3226 2.82 0
    endloop
  endfacet
  facet normal 0 0 1
    outer loop
      vertex -3.1158 0 0
      vertex -22.3226 -2.82 0
      vertex -21.7931 -5.59552 0
    endloop
  endfacet
  facet normal 0 0 1
    outer loop
      vertex -3.1158 0 0
      vertex -22.5 0 0
      vertex -22.3226 -2.82 0
    endloop
  endfacet
  facet normal 0 -1 0
    outer loop
      vertex -1.55789 2.69835 -1.9
      vertex 1.55789 2.69835 0
      vertex -1.55789 2.69835 0
    endloop
  endfacet
  facet normal 0 -1 -0
    outer loop
      vertex 1.55789 2.69835 0
      vertex -1.55789 2.69835 -1.9
      vertex 1.55789 2.69835 -1.9
    endloop
  endfacet
  facet normal 0.866023 0.500004 0
    outer loop
      vertex -1.55789 -2.69835 0
      vertex -3.1158 0 -1.9
      vertex -3.1158 0 0
    endloop
  endfacet
  facet normal 0.866023 0.500004 0
    outer loop
      vertex -3.1158 0 -1.9
      vertex -1.55789 -2.69835 0
      vertex -1.55789 -2.69835 -1.9
    endloop
  endfacet
  facet normal 0.866023 -0.500004 0
    outer loop
      vertex -3.1158 0 0
      vertex -1.55789 2.69835 -1.9
      vertex -1.55789 2.69835 0
    endloop
  endfacet
  facet normal 0.866023 -0.500004 0
    outer loop
      vertex -1.55789 2.69835 -1.9
      vertex -3.1158 0 0
      vertex -3.1158 0 -1.9
    endloop
  endfacet
  facet normal -0.998027 -0.0627794 0
    outer loop
      vertex 1.55 0 -10.5
      vertex 1.53778 0.194266 -1.9
      vertex 1.53778 0.194266 -10.5
    endloop
  endfacet
  facet normal -0.998027 -0.0627794 0
    outer loop
      vertex 1.53778 0.194266 -1.9
      vertex 1.55 0 -10.5
      vertex 1.55 0 -1.9
    endloop
  endfacet
  facet normal 0.998027 -0.0627794 0
    outer loop
      vertex -1.55 0 -1.9
      vertex -1.53778 0.194266 -10.5
      vertex -1.53778 0.194266 -1.9
    endloop
  endfacet
  facet normal 0.998027 -0.0627794 0
    outer loop
      vertex -1.53778 0.194266 -10.5
      vertex -1.55 0 -1.9
      vertex -1.55 0 -10.5
    endloop
  endfacet
  facet normal 0 -1 0
    outer loop
      vertex -0.0973244 1.54694 -10.5
      vertex 0.0973244 1.54694 -1.9
      vertex -0.0973244 1.54694 -1.9
    endloop
  endfacet
  facet normal 0 -1 -0
    outer loop
      vertex 0.0973244 1.54694 -1.9
      vertex -0.0973244 1.54694 -10.5
      vertex 0.0973244 1.54694 -10.5
    endloop
  endfacet
  facet normal 0 1 -0
    outer loop
      vertex 0.0973244 -1.54694 -10.5
      vertex -0.0973244 -1.54694 -1.9
      vertex 0.0973244 -1.54694 -1.9
    endloop
  endfacet
  facet normal 0 1 0
    outer loop
      vertex -0.0973244 -1.54694 -1.9
      vertex 0.0973244 -1.54694 -10.5
      vertex -0.0973244 -1.54694 -10.5
    endloop
  endfacet
  facet normal -0.68453 -0.728985 0
    outer loop
      vertex 0.988007 1.19429 -10.5
      vertex 1.1299 1.06105 -1.9
      vertex 0.988007 1.19429 -1.9
    endloop
  endfacet
  facet normal -0.68453 -0.728985 -0
    outer loop
      vertex 1.1299 1.06105 -1.9
      vertex 0.988007 1.19429 -10.5
      vertex 1.1299 1.06105 -10.5
    endloop
  endfacet
  facet normal 0.68453 -0.728985 0
    outer loop
      vertex -1.1299 1.06105 -10.5
      vertex -0.988007 1.19429 -1.9
      vertex -1.1299 1.06105 -1.9
    endloop
  endfacet
  facet normal 0.68453 -0.728985 0
    outer loop
      vertex -0.988007 1.19429 -1.9
      vertex -1.1299 1.06105 -10.5
      vertex -0.988007 1.19429 -10.5
    endloop
  endfacet
  facet normal 0.368143 -0.929769 0
    outer loop
      vertex -0.659958 1.40248 -10.5
      vertex -0.478976 1.47414 -1.9
      vertex -0.659958 1.40248 -1.9
    endloop
  endfacet
  facet normal 0.368143 -0.929769 0
    outer loop
      vertex -0.478976 1.47414 -1.9
      vertex -0.659958 1.40248 -10.5
      vertex -0.478976 1.47414 -10.5
    endloop
  endfacet
  facet normal -0.904822 -0.425789 0
    outer loop
      vertex 1.44115 0.570593 -10.5
      vertex 1.35827 0.746717 -1.9
      vertex 1.35827 0.746717 -10.5
    endloop
  endfacet
  facet normal -0.904822 -0.425789 0
    outer loop
      vertex 1.35827 0.746717 -1.9
      vertex 1.44115 0.570593 -10.5
      vertex 1.44115 0.570593 -1.9
    endloop
  endfacet
  facet normal -0.84435 -0.535791 0
    outer loop
      vertex 1.35827 0.746717 -10.5
      vertex 1.25398 0.911067 -1.9
      vertex 1.25398 0.911067 -10.5
    endloop
  endfacet
  facet normal -0.84435 -0.535791 0
    outer loop
      vertex 1.25398 0.911067 -1.9
      vertex 1.35827 0.746717 -10.5
      vertex 1.35827 0.746717 -1.9
    endloop
  endfacet
  facet normal -0.368143 -0.929769 0
    outer loop
      vertex 0.478976 1.47414 -10.5
      vertex 0.659958 1.40248 -1.9
      vertex 0.478976 1.47414 -1.9
    endloop
  endfacet
  facet normal -0.368143 -0.929769 -0
    outer loop
      vertex 0.659958 1.40248 -1.9
      vertex 0.478976 1.47414 -10.5
      vertex 0.659958 1.40248 -10.5
    endloop
  endfacet
  facet normal -0.248653 -0.968593 0
    outer loop
      vertex 0.290441 1.52254 -10.5
      vertex 0.478976 1.47414 -1.9
      vertex 0.290441 1.52254 -1.9
    endloop
  endfacet
  facet normal -0.248653 -0.968593 -0
    outer loop
      vertex 0.478976 1.47414 -1.9
      vertex 0.290441 1.52254 -10.5
      vertex 0.478976 1.47414 -10.5
    endloop
  endfacet
  facet normal -0.587809 -0.809 0
    outer loop
      vertex 0.830531 1.30871 -10.5
      vertex 0.988007 1.19429 -1.9
      vertex 0.830531 1.30871 -1.9
    endloop
  endfacet
  facet normal -0.587809 -0.809 -0
    outer loop
      vertex 0.988007 1.19429 -1.9
      vertex 0.830531 1.30871 -10.5
      vertex 0.988007 1.19429 -10.5
    endloop
  endfacet
  facet normal 0.904822 -0.425789 0
    outer loop
      vertex -1.44115 0.570593 -1.9
      vertex -1.35827 0.746717 -10.5
      vertex -1.35827 0.746717 -1.9
    endloop
  endfacet
  facet normal 0.904822 -0.425789 0
    outer loop
      vertex -1.35827 0.746717 -10.5
      vertex -1.44115 0.570593 -1.9
      vertex -1.44115 0.570593 -10.5
    endloop
  endfacet
  facet normal 0.770505 -0.637434 0
    outer loop
      vertex -1.25398 0.911067 -1.9
      vertex -1.1299 1.06105 -10.5
      vertex -1.1299 1.06105 -1.9
    endloop
  endfacet
  facet normal 0.770505 -0.637434 0
    outer loop
      vertex -1.1299 1.06105 -10.5
      vertex -1.25398 0.911067 -1.9
      vertex -1.25398 0.911067 -10.5
    endloop
  endfacet
  facet normal 0.951058 -0.309013 0
    outer loop
      vertex -1.5013 0.385468 -1.9
      vertex -1.44115 0.570593 -10.5
      vertex -1.44115 0.570593 -1.9
    endloop
  endfacet
  facet normal 0.951058 -0.309013 0
    outer loop
      vertex -1.44115 0.570593 -10.5
      vertex -1.5013 0.385468 -1.9
      vertex -1.5013 0.385468 -10.5
    endloop
  endfacet
  facet normal 0.481741 -0.876314 0
    outer loop
      vertex -0.830531 1.30871 -10.5
      vertex -0.659958 1.40248 -1.9
      vertex -0.830531 1.30871 -1.9
    endloop
  endfacet
  facet normal 0.481741 -0.876314 0
    outer loop
      vertex -0.659958 1.40248 -1.9
      vertex -0.830531 1.30871 -10.5
      vertex -0.659958 1.40248 -10.5
    endloop
  endfacet
  facet normal 0.248653 -0.968593 0
    outer loop
      vertex -0.478976 1.47414 -10.5
      vertex -0.290441 1.52254 -1.9
      vertex -0.478976 1.47414 -1.9
    endloop
  endfacet
  facet normal 0.248653 -0.968593 0
    outer loop
      vertex -0.290441 1.52254 -1.9
      vertex -0.478976 1.47414 -10.5
      vertex -0.290441 1.52254 -10.5
    endloop
  endfacet
  facet normal -0.368143 0.929769 0
    outer loop
      vertex 0.659958 -1.40248 -10.5
      vertex 0.478976 -1.47414 -1.9
      vertex 0.659958 -1.40248 -1.9
    endloop
  endfacet
  facet normal -0.368143 0.929769 0
    outer loop
      vertex 0.478976 -1.47414 -1.9
      vertex 0.659958 -1.40248 -10.5
      vertex 0.478976 -1.47414 -10.5
    endloop
  endfacet
  facet normal -0.951058 -0.309013 0
    outer loop
      vertex 1.5013 0.385468 -10.5
      vertex 1.44115 0.570593 -1.9
      vertex 1.44115 0.570593 -10.5
    endloop
  endfacet
  facet normal -0.951058 -0.309013 0
    outer loop
      vertex 1.44115 0.570593 -1.9
      vertex 1.5013 0.385468 -10.5
      vertex 1.5013 0.385468 -1.9
    endloop
  endfacet
  facet normal -0.982281 -0.187412 0
    outer loop
      vertex 1.53778 0.194266 -10.5
      vertex 1.5013 0.385468 -1.9
      vertex 1.5013 0.385468 -10.5
    endloop
  endfacet
  facet normal -0.982281 -0.187412 0
    outer loop
      vertex 1.5013 0.385468 -1.9
      vertex 1.53778 0.194266 -10.5
      vertex 1.53778 0.194266 -1.9
    endloop
  endfacet
  facet normal -0.770505 -0.637434 0
    outer loop
      vertex 1.25398 0.911067 -10.5
      vertex 1.1299 1.06105 -1.9
      vertex 1.1299 1.06105 -10.5
    endloop
  endfacet
  facet normal -0.770505 -0.637434 0
    outer loop
      vertex 1.1299 1.06105 -1.9
      vertex 1.25398 0.911067 -10.5
      vertex 1.25398 0.911067 -1.9
    endloop
  endfacet
  facet normal -0.125352 -0.992112 0
    outer loop
      vertex 0.0973244 1.54694 -10.5
      vertex 0.290441 1.52254 -1.9
      vertex 0.0973244 1.54694 -1.9
    endloop
  endfacet
  facet normal -0.125352 -0.992112 -0
    outer loop
      vertex 0.290441 1.52254 -1.9
      vertex 0.0973244 1.54694 -10.5
      vertex 0.290441 1.52254 -10.5
    endloop
  endfacet
  facet normal -0.481741 -0.876314 0
    outer loop
      vertex 0.659958 1.40248 -10.5
      vertex 0.830531 1.30871 -1.9
      vertex 0.659958 1.40248 -1.9
    endloop
  endfacet
  facet normal -0.481741 -0.876314 -0
    outer loop
      vertex 0.830531 1.30871 -1.9
      vertex 0.659958 1.40248 -10.5
      vertex 0.830531 1.30871 -10.5
    endloop
  endfacet
  facet normal 0.84435 -0.535791 0
    outer loop
      vertex -1.35827 0.746717 -1.9
      vertex -1.25398 0.911067 -10.5
      vertex -1.25398 0.911067 -1.9
    endloop
  endfacet
  facet normal 0.84435 -0.535791 0
    outer loop
      vertex -1.25398 0.911067 -10.5
      vertex -1.35827 0.746717 -1.9
      vertex -1.35827 0.746717 -10.5
    endloop
  endfacet
  facet normal 0.982281 -0.187412 0
    outer loop
      vertex -1.53778 0.194266 -1.9
      vertex -1.5013 0.385468 -10.5
      vertex -1.5013 0.385468 -1.9
    endloop
  endfacet
  facet normal 0.982281 -0.187412 0
    outer loop
      vertex -1.5013 0.385468 -10.5
      vertex -1.53778 0.194266 -1.9
      vertex -1.53778 0.194266 -10.5
    endloop
  endfacet
  facet normal 0.587809 -0.809 0
    outer loop
      vertex -0.988007 1.19429 -10.5
      vertex -0.830531 1.30871 -1.9
      vertex -0.988007 1.19429 -1.9
    endloop
  endfacet
  facet normal 0.587809 -0.809 0
    outer loop
      vertex -0.830531 1.30871 -1.9
      vertex -0.988007 1.19429 -10.5
      vertex -0.830531 1.30871 -10.5
    endloop
  endfacet
  facet normal 0.125352 -0.992112 0
    outer loop
      vertex -0.290441 1.52254 -10.5
      vertex -0.0973244 1.54694 -1.9
      vertex -0.290441 1.52254 -1.9
    endloop
  endfacet
  facet normal 0.125352 -0.992112 0
    outer loop
      vertex -0.0973244 1.54694 -1.9
      vertex -0.290441 1.52254 -10.5
      vertex -0.0973244 1.54694 -10.5
    endloop
  endfacet
  facet normal -0.998027 0.0627794 0
    outer loop
      vertex 1.53778 -0.194266 -10.5
      vertex 1.55 0 -1.9
      vertex 1.55 0 -10.5
    endloop
  endfacet
  facet normal -0.998027 0.0627794 0
    outer loop
      vertex 1.55 0 -1.9
      vertex 1.53778 -0.194266 -10.5
      vertex 1.53778 -0.194266 -1.9
    endloop
  endfacet
  facet normal -0.951058 0.309013 0
    outer loop
      vertex 1.44115 -0.570593 -10.5
      vertex 1.5013 -0.385468 -1.9
      vertex 1.5013 -0.385468 -10.5
    endloop
  endfacet
  facet normal -0.951058 0.309013 0
    outer loop
      vertex 1.5013 -0.385468 -1.9
      vertex 1.44115 -0.570593 -10.5
      vertex 1.44115 -0.570593 -1.9
    endloop
  endfacet
  facet normal -0.982281 0.187412 0
    outer loop
      vertex 1.5013 -0.385468 -10.5
      vertex 1.53778 -0.194266 -1.9
      vertex 1.53778 -0.194266 -10.5
    endloop
  endfacet
  facet normal -0.982281 0.187412 0
    outer loop
      vertex 1.53778 -0.194266 -1.9
      vertex 1.5013 -0.385468 -10.5
      vertex 1.5013 -0.385468 -1.9
    endloop
  endfacet
  facet normal 0.68453 0.728985 -0
    outer loop
      vertex -0.988007 -1.19429 -10.5
      vertex -1.1299 -1.06105 -1.9
      vertex -0.988007 -1.19429 -1.9
    endloop
  endfacet
  facet normal 0.68453 0.728985 0
    outer loop
      vertex -1.1299 -1.06105 -1.9
      vertex -0.988007 -1.19429 -10.5
      vertex -1.1299 -1.06105 -10.5
    endloop
  endfacet
  facet normal 0.904822 0.425789 0
    outer loop
      vertex -1.35827 -0.746717 -1.9
      vertex -1.44115 -0.570593 -10.5
      vertex -1.44115 -0.570593 -1.9
    endloop
  endfacet
  facet normal 0.904822 0.425789 0
    outer loop
      vertex -1.44115 -0.570593 -10.5
      vertex -1.35827 -0.746717 -1.9
      vertex -1.35827 -0.746717 -10.5
    endloop
  endfacet
  facet normal 0.770505 0.637434 0
    outer loop
      vertex -1.1299 -1.06105 -1.9
      vertex -1.25398 -0.911067 -10.5
      vertex -1.25398 -0.911067 -1.9
    endloop
  endfacet
  facet normal 0.770505 0.637434 0
    outer loop
      vertex -1.25398 -0.911067 -10.5
      vertex -1.1299 -1.06105 -1.9
      vertex -1.1299 -1.06105 -10.5
    endloop
  endfacet
  facet normal -0.587809 0.809 0
    outer loop
      vertex 0.988007 -1.19429 -10.5
      vertex 0.830531 -1.30871 -1.9
      vertex 0.988007 -1.19429 -1.9
    endloop
  endfacet
  facet normal -0.587809 0.809 0
    outer loop
      vertex 0.830531 -1.30871 -1.9
      vertex 0.988007 -1.19429 -10.5
      vertex 0.830531 -1.30871 -10.5
    endloop
  endfacet
  facet normal 0.248653 0.968593 -0
    outer loop
      vertex -0.290441 -1.52254 -10.5
      vertex -0.478976 -1.47414 -1.9
      vertex -0.290441 -1.52254 -1.9
    endloop
  endfacet
  facet normal 0.248653 0.968593 0
    outer loop
      vertex -0.478976 -1.47414 -1.9
      vertex -0.290441 -1.52254 -10.5
      vertex -0.478976 -1.47414 -10.5
    endloop
  endfacet
  facet normal 0.951058 0.309013 0
    outer loop
      vertex -1.44115 -0.570593 -1.9
      vertex -1.5013 -0.385468 -10.5
      vertex -1.5013 -0.385468 -1.9
    endloop
  endfacet
  facet normal 0.951058 0.309013 0
    outer loop
      vertex -1.5013 -0.385468 -10.5
      vertex -1.44115 -0.570593 -1.9
      vertex -1.44115 -0.570593 -10.5
    endloop
  endfacet
  facet normal -0.770505 0.637434 0
    outer loop
      vertex 1.1299 -1.06105 -10.5
      vertex 1.25398 -0.911067 -1.9
      vertex 1.25398 -0.911067 -10.5
    endloop
  endfacet
  facet normal -0.770505 0.637434 0
    outer loop
      vertex 1.25398 -0.911067 -1.9
      vertex 1.1299 -1.06105 -10.5
      vertex 1.1299 -1.06105 -1.9
    endloop
  endfacet
  facet normal -0.481741 0.876314 0
    outer loop
      vertex 0.830531 -1.30871 -10.5
      vertex 0.659958 -1.40248 -1.9
      vertex 0.830531 -1.30871 -1.9
    endloop
  endfacet
  facet normal -0.481741 0.876314 0
    outer loop
      vertex 0.659958 -1.40248 -1.9
      vertex 0.830531 -1.30871 -10.5
      vertex 0.659958 -1.40248 -10.5
    endloop
  endfacet
  facet normal -0.904822 0.425789 0
    outer loop
      vertex 1.35827 -0.746717 -10.5
      vertex 1.44115 -0.570593 -1.9
      vertex 1.44115 -0.570593 -10.5
    endloop
  endfacet
  facet normal -0.904822 0.425789 0
    outer loop
      vertex 1.44115 -0.570593 -1.9
      vertex 1.35827 -0.746717 -10.5
      vertex 1.35827 -0.746717 -1.9
    endloop
  endfacet
  facet normal -0.84435 0.535791 0
    outer loop
      vertex 1.25398 -0.911067 -10.5
      vertex 1.35827 -0.746717 -1.9
      vertex 1.35827 -0.746717 -10.5
    endloop
  endfacet
  facet normal -0.84435 0.535791 0
    outer loop
      vertex 1.35827 -0.746717 -1.9
      vertex 1.25398 -0.911067 -10.5
      vertex 1.25398 -0.911067 -1.9
    endloop
  endfacet
  facet normal 0.125352 0.992112 -0
    outer loop
      vertex -0.0973244 -1.54694 -10.5
      vertex -0.290441 -1.52254 -1.9
      vertex -0.0973244 -1.54694 -1.9
    endloop
  endfacet
  facet normal 0.125352 0.992112 0
    outer loop
      vertex -0.290441 -1.52254 -1.9
      vertex -0.0973244 -1.54694 -10.5
      vertex -0.290441 -1.52254 -10.5
    endloop
  endfacet
  facet normal 0.368143 0.929769 -0
    outer loop
      vertex -0.478976 -1.47414 -10.5
      vertex -0.659958 -1.40248 -1.9
      vertex -0.478976 -1.47414 -1.9
    endloop
  endfacet
  facet normal 0.368143 0.929769 0
    outer loop
      vertex -0.659958 -1.40248 -1.9
      vertex -0.478976 -1.47414 -10.5
      vertex -0.659958 -1.40248 -10.5
    endloop
  endfacet
  facet normal 0.84435 0.535791 0
    outer loop
      vertex -1.25398 -0.911067 -1.9
      vertex -1.35827 -0.746717 -10.5
      vertex -1.35827 -0.746717 -1.9
    endloop
  endfacet
  facet normal 0.84435 0.535791 0
    outer loop
      vertex -1.35827 -0.746717 -10.5
      vertex -1.25398 -0.911067 -1.9
      vertex -1.25398 -0.911067 -10.5
    endloop
  endfacet
  facet normal 0.982281 0.187412 0
    outer loop
      vertex -1.5013 -0.385468 -1.9
      vertex -1.53778 -0.194266 -10.5
      vertex -1.53778 -0.194266 -1.9
    endloop
  endfacet
  facet normal 0.982281 0.187412 0
    outer loop
      vertex -1.53778 -0.194266 -10.5
      vertex -1.5013 -0.385468 -1.9
      vertex -1.5013 -0.385468 -10.5
    endloop
  endfacet
  facet normal 0.998027 0.0627794 0
    outer loop
      vertex -1.53778 -0.194266 -1.9
      vertex -1.55 0 -10.5
      vertex -1.55 0 -1.9
    endloop
  endfacet
  facet normal 0.998027 0.0627794 0
    outer loop
      vertex -1.55 0 -10.5
      vertex -1.53778 -0.194266 -1.9
      vertex -1.53778 -0.194266 -10.5
    endloop
  endfacet
  facet normal -0.68453 0.728985 0
    outer loop
      vertex 1.1299 -1.06105 -10.5
      vertex 0.988007 -1.19429 -1.9
      vertex 1.1299 -1.06105 -1.9
    endloop
  endfacet
  facet normal -0.68453 0.728985 0
    outer loop
      vertex 0.988007 -1.19429 -1.9
      vertex 1.1299 -1.06105 -10.5
      vertex 0.988007 -1.19429 -10.5
    endloop
  endfacet
  facet normal -0.248653 0.968593 0
    outer loop
      vertex 0.478976 -1.47414 -10.5
      vertex 0.290441 -1.52254 -1.9
      vertex 0.478976 -1.47414 -1.9
    endloop
  endfacet
  facet normal -0.248653 0.968593 0
    outer loop
      vertex 0.290441 -1.52254 -1.9
      vertex 0.478976 -1.47414 -10.5
      vertex 0.290441 -1.52254 -10.5
    endloop
  endfacet
  facet normal -0.125352 0.992112 0
    outer loop
      vertex 0.290441 -1.52254 -10.5
      vertex 0.0973244 -1.54694 -1.9
      vertex 0.290441 -1.52254 -1.9
    endloop
  endfacet
  facet normal -0.125352 0.992112 0
    outer loop
      vertex 0.0973244 -1.54694 -1.9
      vertex 0.290441 -1.52254 -10.5
      vertex 0.0973244 -1.54694 -10.5
    endloop
  endfacet
  facet normal 0.481741 0.876314 -0
    outer loop
      vertex -0.659958 -1.40248 -10.5
      vertex -0.830531 -1.30871 -1.9
      vertex -0.659958 -1.40248 -1.9
    endloop
  endfacet
  facet normal 0.481741 0.876314 0
    outer loop
      vertex -0.830531 -1.30871 -1.9
      vertex -0.659958 -1.40248 -10.5
      vertex -0.830531 -1.30871 -10.5
    endloop
  endfacet
  facet normal 0.587809 0.809 -0
    outer loop
      vertex -0.830531 -1.30871 -10.5
      vertex -0.988007 -1.19429 -1.9
      vertex -0.830531 -1.30871 -1.9
    endloop
  endfacet
  facet normal 0.587809 0.809 0
    outer loop
      vertex -0.988007 -1.19429 -1.9
      vertex -0.830531 -1.30871 -10.5
      vertex -0.988007 -1.19429 -10.5
    endloop
  endfacet
  facet normal 0.998027 0.0627837 0
    outer loop
      vertex 22.5 0 0
      vertex 22.3226 2.82 -10.5
      vertex 22.3226 2.82 0
    endloop
  endfacet
  facet normal 0.998027 0.0627837 0
    outer loop
      vertex 22.3226 2.82 -10.5
      vertex 22.5 0 0
      vertex 22.5 0 -10.5
    endloop
  endfacet
  facet normal -0.998027 0.0627837 0
    outer loop
      vertex -22.5 0 -10.5
      vertex -22.3226 2.82 0
      vertex -22.3226 2.82 -10.5
    endloop
  endfacet
  facet normal -0.998027 0.0627837 0
    outer loop
      vertex -22.3226 2.82 0
      vertex -22.5 0 -10.5
      vertex -22.5 0 0
    endloop
  endfacet
  facet normal 0 1 -0
    outer loop
      vertex 1.41279 22.4556 -10.5
      vertex -1.41279 22.4556 0
      vertex 1.41279 22.4556 0
    endloop
  endfacet
  facet normal 0 1 0
    outer loop
      vertex -1.41279 22.4556 0
      vertex 1.41279 22.4556 -10.5
      vertex -1.41279 22.4556 -10.5
    endloop
  endfacet
  facet normal 0 -1 0
    outer loop
      vertex -1.41279 -22.4556 -10.5
      vertex 1.41279 -22.4556 0
      vertex -1.41279 -22.4556 0
    endloop
  endfacet
  facet normal 0 -1 -0
    outer loop
      vertex 1.41279 -22.4556 0
      vertex -1.41279 -22.4556 -10.5
      vertex 1.41279 -22.4556 -10.5
    endloop
  endfacet
  facet normal 0.684532 0.728983 -0
    outer loop
      vertex 16.4018 15.4023 -10.5
      vertex 14.342 17.3365 0
      vertex 16.4018 15.4023 0
    endloop
  endfacet
  facet normal 0.684532 0.728983 0
    outer loop
      vertex 14.342 17.3365 0
      vertex 16.4018 15.4023 -10.5
      vertex 14.342 17.3365 -10.5
    endloop
  endfacet
  facet normal -0.684532 0.728983 0
    outer loop
      vertex -14.342 17.3365 -10.5
      vertex -16.4018 15.4023 0
      vertex -14.342 17.3365 0
    endloop
  endfacet
  facet normal -0.684532 0.728983 0
    outer loop
      vertex -16.4018 15.4023 0
      vertex -14.342 17.3365 -10.5
      vertex -16.4018 15.4023 -10.5
    endloop
  endfacet
  facet normal -0.368136 0.929772 0
    outer loop
      vertex -6.95288 21.3988 -10.5
      vertex -9.58003 20.3586 0
      vertex -6.95288 21.3988 0
    endloop
  endfacet
  facet normal -0.368136 0.929772 0
    outer loop
      vertex -9.58003 20.3586 0
      vertex -6.95288 21.3988 -10.5
      vertex -9.58003 20.3586 -10.5
    endloop
  endfacet
  facet normal 0.904826 0.425782 0
    outer loop
      vertex 20.92 8.2828 0
      vertex 19.7169 10.8395 -10.5
      vertex 19.7169 10.8395 0
    endloop
  endfacet
  facet normal 0.904826 0.425782 0
    outer loop
      vertex 19.7169 10.8395 -10.5
      vertex 20.92 8.2828 0
      vertex 20.92 8.2828 -10.5
    endloop
  endfacet
  facet normal 0.368136 0.929772 -0
    outer loop
      vertex 9.58003 20.3586 -10.5
      vertex 6.95288 21.3988 0
      vertex 9.58003 20.3586 0
    endloop
  endfacet
  facet normal 0.368136 0.929772 0
    outer loop
      vertex 6.95288 21.3988 0
      vertex 9.58003 20.3586 -10.5
      vertex 6.95288 21.3988 -10.5
    endloop
  endfacet
  facet normal 0.481745 0.876311 -0
    outer loop
      vertex 12.0561 18.9974 -10.5
      vertex 9.58003 20.3586 0
      vertex 12.0561 18.9974 0
    endloop
  endfacet
  facet normal 0.481745 0.876311 0
    outer loop
      vertex 9.58003 20.3586 0
      vertex 12.0561 18.9974 -10.5
      vertex 9.58003 20.3586 -10.5
    endloop
  endfacet
  facet normal -0.904826 0.425782 0
    outer loop
      vertex -20.92 8.2828 -10.5
      vertex -19.7169 10.8395 0
      vertex -19.7169 10.8395 -10.5
    endloop
  endfacet
  facet normal -0.904826 0.425782 0
    outer loop
      vertex -19.7169 10.8395 0
      vertex -20.92 8.2828 -10.5
      vertex -20.92 8.2828 0
    endloop
  endfacet
  facet normal -0.248693 0.968582 0
    outer loop
      vertex -4.21608 22.1015 -10.5
      vertex -6.95288 21.3988 0
      vertex -4.21608 22.1015 0
    endloop
  endfacet
  facet normal -0.248693 0.968582 0
    outer loop
      vertex -6.95288 21.3988 0
      vertex -4.21608 22.1015 -10.5
      vertex -6.95288 21.3988 -10.5
    endloop
  endfacet
  facet normal -0.951062 -0.309001 0
    outer loop
      vertex -20.92 -8.2828 -10.5
      vertex -21.7931 -5.59552 0
      vertex -21.7931 -5.59552 -10.5
    endloop
  endfacet
  facet normal -0.951062 -0.309001 0
    outer loop
      vertex -21.7931 -5.59552 0
      vertex -20.92 -8.2828 -10.5
      vertex -20.92 -8.2828 0
    endloop
  endfacet
  facet normal 0.368136 -0.929772 0
    outer loop
      vertex 6.95288 -21.3988 -10.5
      vertex 9.58003 -20.3586 0
      vertex 6.95288 -21.3988 0
    endloop
  endfacet
  facet normal 0.368136 -0.929772 0
    outer loop
      vertex 9.58003 -20.3586 0
      vertex 6.95288 -21.3988 -10.5
      vertex 9.58003 -20.3586 -10.5
    endloop
  endfacet
  facet normal 0.951062 0.309001 0
    outer loop
      vertex 21.7931 5.59552 0
      vertex 20.92 8.2828 -10.5
      vertex 20.92 8.2828 0
    endloop
  endfacet
  facet normal 0.951062 0.309001 0
    outer loop
      vertex 20.92 8.2828 -10.5
      vertex 21.7931 5.59552 0
      vertex 21.7931 5.59552 -10.5
    endloop
  endfacet
  facet normal 0.982285 0.187395 0
    outer loop
      vertex 22.3226 2.82 0
      vertex 21.7931 5.59552 -10.5
      vertex 21.7931 5.59552 0
    endloop
  endfacet
  facet normal 0.982285 0.187395 0
    outer loop
      vertex 21.7931 5.59552 -10.5
      vertex 22.3226 2.82 0
      vertex 22.3226 2.82 -10.5
    endloop
  endfacet
  facet normal 0.770505 0.637434 0
    outer loop
      vertex 18.2029 13.2252 0
      vertex 16.4018 15.4023 -10.5
      vertex 16.4018 15.4023 0
    endloop
  endfacet
  facet normal 0.770505 0.637434 0
    outer loop
      vertex 16.4018 15.4023 -10.5
      vertex 18.2029 13.2252 0
      vertex 18.2029 13.2252 -10.5
    endloop
  endfacet
  facet normal 0.84433 0.535824 0
    outer loop
      vertex 19.7169 10.8395 0
      vertex 18.2029 13.2252 -10.5
      vertex 18.2029 13.2252 0
    endloop
  endfacet
  facet normal 0.84433 0.535824 0
    outer loop
      vertex 18.2029 13.2252 -10.5
      vertex 19.7169 10.8395 0
      vertex 19.7169 10.8395 -10.5
    endloop
  endfacet
  facet normal 0.248693 0.968582 -0
    outer loop
      vertex 6.95288 21.3988 -10.5
      vertex 4.21608 22.1015 0
      vertex 6.95288 21.3988 0
    endloop
  endfacet
  facet normal 0.248693 0.968582 0
    outer loop
      vertex 4.21608 22.1015 0
      vertex 6.95288 21.3988 -10.5
      vertex 4.21608 22.1015 -10.5
    endloop
  endfacet
  facet normal 0.12532 0.992116 -0
    outer loop
      vertex 4.21608 22.1015 -10.5
      vertex 1.41279 22.4556 0
      vertex 4.21608 22.1015 0
    endloop
  endfacet
  facet normal 0.12532 0.992116 0
    outer loop
      vertex 1.41279 22.4556 0
      vertex 4.21608 22.1015 -10.5
      vertex 1.41279 22.4556 -10.5
    endloop
  endfacet
  facet normal 0.587808 0.809001 -0
    outer loop
      vertex 14.342 17.3365 -10.5
      vertex 12.0561 18.9974 0
      vertex 14.342 17.3365 0
    endloop
  endfacet
  facet normal 0.587808 0.809001 0
    outer loop
      vertex 12.0561 18.9974 0
      vertex 14.342 17.3365 -10.5
      vertex 12.0561 18.9974 -10.5
    endloop
  endfacet
  facet normal -0.84433 0.535824 0
    outer loop
      vertex -19.7169 10.8395 -10.5
      vertex -18.2029 13.2252 0
      vertex -18.2029 13.2252 -10.5
    endloop
  endfacet
  facet normal -0.84433 0.535824 0
    outer loop
      vertex -18.2029 13.2252 0
      vertex -19.7169 10.8395 -10.5
      vertex -19.7169 10.8395 0
    endloop
  endfacet
  facet normal -0.770505 0.637434 0
    outer loop
      vertex -18.2029 13.2252 -10.5
      vertex -16.4018 15.4023 0
      vertex -16.4018 15.4023 -10.5
    endloop
  endfacet
  facet normal -0.770505 0.637434 0
    outer loop
      vertex -16.4018 15.4023 0
      vertex -18.2029 13.2252 -10.5
      vertex -18.2029 13.2252 0
    endloop
  endfacet
  facet normal -0.951062 0.309001 0
    outer loop
      vertex -21.7931 5.59552 -10.5
      vertex -20.92 8.2828 0
      vertex -20.92 8.2828 -10.5
    endloop
  endfacet
  facet normal -0.951062 0.309001 0
    outer loop
      vertex -20.92 8.2828 0
      vertex -21.7931 5.59552 -10.5
      vertex -21.7931 5.59552 0
    endloop
  endfacet
  facet normal -0.982285 0.187395 0
    outer loop
      vertex -22.3226 2.82 -10.5
      vertex -21.7931 5.59552 0
      vertex -21.7931 5.59552 -10.5
    endloop
  endfacet
  facet normal -0.982285 0.187395 0
    outer loop
      vertex -21.7931 5.59552 0
      vertex -22.3226 2.82 -10.5
      vertex -22.3226 2.82 0
    endloop
  endfacet
  facet normal -0.481745 0.876311 0
    outer loop
      vertex -9.58003 20.3586 -10.5
      vertex -12.0561 18.9974 0
      vertex -9.58003 20.3586 0
    endloop
  endfacet
  facet normal -0.481745 0.876311 0
    outer loop
      vertex -12.0561 18.9974 0
      vertex -9.58003 20.3586 -10.5
      vertex -12.0561 18.9974 -10.5
    endloop
  endfacet
  facet normal -0.587808 0.809001 0
    outer loop
      vertex -12.0561 18.9974 -10.5
      vertex -14.342 17.3365 0
      vertex -12.0561 18.9974 0
    endloop
  endfacet
  facet normal -0.587808 0.809001 0
    outer loop
      vertex -14.342 17.3365 0
      vertex -12.0561 18.9974 -10.5
      vertex -14.342 17.3365 -10.5
    endloop
  endfacet
  facet normal -0.12532 0.992116 0
    outer loop
      vertex -1.41279 22.4556 -10.5
      vertex -4.21608 22.1015 0
      vertex -1.41279 22.4556 0
    endloop
  endfacet
  facet normal -0.12532 0.992116 0
    outer loop
      vertex -4.21608 22.1015 0
      vertex -1.41279 22.4556 -10.5
      vertex -4.21608 22.1015 -10.5
    endloop
  endfacet
  facet normal 0.998027 -0.0627837 0
    outer loop
      vertex 22.3226 -2.82 0
      vertex 22.5 0 -10.5
      vertex 22.5 0 0
    endloop
  endfacet
  facet normal 0.998027 -0.0627837 0
    outer loop
      vertex 22.5 0 -10.5
      vertex 22.3226 -2.82 0
      vertex 22.3226 -2.82 -10.5
    endloop
  endfacet
  facet normal 0.481745 -0.876311 0
    outer loop
      vertex 9.58003 -20.3586 -10.5
      vertex 12.0561 -18.9974 0
      vertex 9.58003 -20.3586 0
    endloop
  endfacet
  facet normal 0.481745 -0.876311 0
    outer loop
      vertex 12.0561 -18.9974 0
      vertex 9.58003 -20.3586 -10.5
      vertex 12.0561 -18.9974 -10.5
    endloop
  endfacet
  facet normal 0.684532 -0.728983 0
    outer loop
      vertex 14.342 -17.3365 -10.5
      vertex 16.4018 -15.4023 0
      vertex 14.342 -17.3365 0
    endloop
  endfacet
  facet normal 0.684532 -0.728983 0
    outer loop
      vertex 16.4018 -15.4023 0
      vertex 14.342 -17.3365 -10.5
      vertex 16.4018 -15.4023 -10.5
    endloop
  endfacet
  facet normal 0.904826 -0.425782 0
    outer loop
      vertex 19.7169 -10.8395 0
      vertex 20.92 -8.2828 -10.5
      vertex 20.92 -8.2828 0
    endloop
  endfacet
  facet normal 0.904826 -0.425782 0
    outer loop
      vertex 20.92 -8.2828 -10.5
      vertex 19.7169 -10.8395 0
      vertex 19.7169 -10.8395 -10.5
    endloop
  endfacet
  facet normal 0.951062 -0.309001 0
    outer loop
      vertex 20.92 -8.2828 0
      vertex 21.7931 -5.59552 -10.5
      vertex 21.7931 -5.59552 0
    endloop
  endfacet
  facet normal 0.951062 -0.309001 0
    outer loop
      vertex 21.7931 -5.59552 -10.5
      vertex 20.92 -8.2828 0
      vertex 20.92 -8.2828 -10.5
    endloop
  endfacet
  facet normal 0.770505 -0.637434 0
    outer loop
      vertex 16.4018 -15.4023 0
      vertex 18.2029 -13.2252 -10.5
      vertex 18.2029 -13.2252 0
    endloop
  endfacet
  facet normal 0.770505 -0.637434 0
    outer loop
      vertex 18.2029 -13.2252 -10.5
      vertex 16.4018 -15.4023 0
      vertex 16.4018 -15.4023 -10.5
    endloop
  endfacet
  facet normal -0.684532 -0.728983 0
    outer loop
      vertex -16.4018 -15.4023 -10.5
      vertex -14.342 -17.3365 0
      vertex -16.4018 -15.4023 0
    endloop
  endfacet
  facet normal -0.684532 -0.728983 -0
    outer loop
      vertex -14.342 -17.3365 0
      vertex -16.4018 -15.4023 -10.5
      vertex -14.342 -17.3365 -10.5
    endloop
  endfacet
  facet normal -0.84433 -0.535824 0
    outer loop
      vertex -18.2029 -13.2252 -10.5
      vertex -19.7169 -10.8395 0
      vertex -19.7169 -10.8395 -10.5
    endloop
  endfacet
  facet normal -0.84433 -0.535824 0
    outer loop
      vertex -19.7169 -10.8395 0
      vertex -18.2029 -13.2252 -10.5
      vertex -18.2029 -13.2252 0
    endloop
  endfacet
  facet normal 0 0 -1
    outer loop
      vertex 1.55 0 -10.5
      vertex 22.5 0 -10.5
      vertex 22.3226 -2.82 -10.5
    endloop
  endfacet
  facet normal 0 0 -1
    outer loop
      vertex 1.53778 -0.194266 -10.5
      vertex 22.3226 -2.82 -10.5
      vertex 21.7931 -5.59552 -10.5
    endloop
  endfacet
  facet normal 0 0 -1
    outer loop
      vertex 22.5 0 -10.5
      vertex 1.55 0 -10.5
      vertex 22.3226 2.82 -10.5
    endloop
  endfacet
  facet normal 0 0 -1
    outer loop
      vertex 1.5013 -0.385468 -10.5
      vertex 21.7931 -5.59552 -10.5
      vertex 20.92 -8.2828 -10.5
    endloop
  endfacet
  facet normal 0 0 -1
    outer loop
      vertex 1.53778 0.194266 -10.5
      vertex 22.3226 2.82 -10.5
      vertex 1.55 0 -10.5
    endloop
  endfacet
  facet normal 0 0 -1
    outer loop
      vertex 1.44115 -0.570593 -10.5
      vertex 20.92 -8.2828 -10.5
      vertex 19.7169 -10.8395 -10.5
    endloop
  endfacet
  facet normal -0 0 -1
    outer loop
      vertex 22.3226 2.82 -10.5
      vertex 1.53778 0.194266 -10.5
      vertex 21.7931 5.59552 -10.5
    endloop
  endfacet
  facet normal 0 0 -1
    outer loop
      vertex 1.35827 -0.746717 -10.5
      vertex 19.7169 -10.8395 -10.5
      vertex 18.2029 -13.2252 -10.5
    endloop
  endfacet
  facet normal 0 0 -1
    outer loop
      vertex 1.5013 0.385468 -10.5
      vertex 21.7931 5.59552 -10.5
      vertex 1.53778 0.194266 -10.5
    endloop
  endfacet
  facet normal 0 0 -1
    outer loop
      vertex 1.25398 -0.911067 -10.5
      vertex 18.2029 -13.2252 -10.5
      vertex 16.4018 -15.4023 -10.5
    endloop
  endfacet
  facet normal -0 0 -1
    outer loop
      vertex 21.7931 5.59552 -10.5
      vertex 1.5013 0.385468 -10.5
      vertex 20.92 8.2828 -10.5
    endloop
  endfacet
  facet normal 0 0 -1
    outer loop
      vertex 1.1299 -1.06105 -10.5
      vertex 16.4018 -15.4023 -10.5
      vertex 14.342 -17.3365 -10.5
    endloop
  endfacet
  facet normal 0 0 -1
    outer loop
      vertex 1.44115 0.570593 -10.5
      vertex 20.92 8.2828 -10.5
      vertex 1.5013 0.385468 -10.5
    endloop
  endfacet
  facet normal 0 0 -1
    outer loop
      vertex 0.988007 -1.19429 -10.5
      vertex 14.342 -17.3365 -10.5
      vertex 12.0561 -18.9974 -10.5
    endloop
  endfacet
  facet normal -0 0 -1
    outer loop
      vertex 20.92 8.2828 -10.5
      vertex 1.44115 0.570593 -10.5
      vertex 19.7169 10.8395 -10.5
    endloop
  endfacet
  facet normal 0 0 -1
    outer loop
      vertex 0.830531 -1.30871 -10.5
      vertex 12.0561 -18.9974 -10.5
      vertex 9.58003 -20.3586 -10.5
    endloop
  endfacet
  facet normal 0 0 -1
    outer loop
      vertex 1.35827 0.746717 -10.5
      vertex 19.7169 10.8395 -10.5
      vertex 1.44115 0.570593 -10.5
    endloop
  endfacet
  facet normal 0 0 -1
    outer loop
      vertex 0.659958 -1.40248 -10.5
      vertex 9.58003 -20.3586 -10.5
      vertex 6.95288 -21.3988 -10.5
    endloop
  endfacet
  facet normal -0 0 -1
    outer loop
      vertex 19.7169 10.8395 -10.5
      vertex 1.35827 0.746717 -10.5
      vertex 18.2029 13.2252 -10.5
    endloop
  endfacet
  facet normal 0 0 -1
    outer loop
      vertex 0.478976 -1.47414 -10.5
      vertex 6.95288 -21.3988 -10.5
      vertex 4.21608 -22.1015 -10.5
    endloop
  endfacet
  facet normal 0 0 -1
    outer loop
      vertex 1.25398 0.911067 -10.5
      vertex 18.2029 13.2252 -10.5
      vertex 1.35827 0.746717 -10.5
    endloop
  endfacet
  facet normal -0 0 -1
    outer loop
      vertex 18.2029 13.2252 -10.5
      vertex 1.25398 0.911067 -10.5
      vertex 16.4018 15.4023 -10.5
    endloop
  endfacet
  facet normal 0 0 -1
    outer loop
      vertex 22.3226 -2.82 -10.5
      vertex 1.53778 -0.194266 -10.5
      vertex 1.55 0 -10.5
    endloop
  endfacet
  facet normal 0 0 -1
    outer loop
      vertex 21.7931 -5.59552 -10.5
      vertex 1.5013 -0.385468 -10.5
      vertex 1.53778 -0.194266 -10.5
    endloop
  endfacet
  facet normal 0 0 -1
    outer loop
      vertex 20.92 -8.2828 -10.5
      vertex 1.44115 -0.570593 -10.5
      vertex 1.5013 -0.385468 -10.5
    endloop
  endfacet
  facet normal 0 0 -1
    outer loop
      vertex 0.290441 -1.52254 -10.5
      vertex 4.21608 -22.1015 -10.5
      vertex 1.41279 -22.4556 -10.5
    endloop
  endfacet
  facet normal 0 0 -1
    outer loop
      vertex 19.7169 -10.8395 -10.5
      vertex 1.35827 -0.746717 -10.5
      vertex 1.44115 -0.570593 -10.5
    endloop
  endfacet
  facet normal 0 0 -1
    outer loop
      vertex 18.2029 -13.2252 -10.5
      vertex 1.25398 -0.911067 -10.5
      vertex 1.35827 -0.746717 -10.5
    endloop
  endfacet
  facet normal 0 0 -1
    outer loop
      vertex 16.4018 -15.4023 -10.5
      vertex 1.1299 -1.06105 -10.5
      vertex 1.25398 -0.911067 -10.5
    endloop
  endfacet
  facet normal 0 0 -1
    outer loop
      vertex 14.342 -17.3365 -10.5
      vertex 0.988007 -1.19429 -10.5
      vertex 1.1299 -1.06105 -10.5
    endloop
  endfacet
  facet normal 0 0 -1
    outer loop
      vertex 12.0561 -18.9974 -10.5
      vertex 0.830531 -1.30871 -10.5
      vertex 0.988007 -1.19429 -10.5
    endloop
  endfacet
  facet normal 0 0 -1
    outer loop
      vertex 9.58003 -20.3586 -10.5
      vertex 0.659958 -1.40248 -10.5
      vertex 0.830531 -1.30871 -10.5
    endloop
  endfacet
  facet normal 0 0 -1
    outer loop
      vertex 6.95288 -21.3988 -10.5
      vertex 0.478976 -1.47414 -10.5
      vertex 0.659958 -1.40248 -10.5
    endloop
  endfacet
  facet normal 0 0 -1
    outer loop
      vertex 4.21608 -22.1015 -10.5
      vertex 0.290441 -1.52254 -10.5
      vertex 0.478976 -1.47414 -10.5
    endloop
  endfacet
  facet normal 0 0 -1
    outer loop
      vertex 1.41279 -22.4556 -10.5
      vertex 0.0973244 -1.54694 -10.5
      vertex 0.290441 -1.52254 -10.5
    endloop
  endfacet
  facet normal 0 0 -1
    outer loop
      vertex 1.41279 -22.4556 -10.5
      vertex -0.0973244 -1.54694 -10.5
      vertex 0.0973244 -1.54694 -10.5
    endloop
  endfacet
  facet normal 0 0 -1
    outer loop
      vertex -1.41279 -22.4556 -10.5
      vertex -0.0973244 -1.54694 -10.5
      vertex 1.41279 -22.4556 -10.5
    endloop
  endfacet
  facet normal -0 0 -1
    outer loop
      vertex -0.0973244 -1.54694 -10.5
      vertex -1.41279 -22.4556 -10.5
      vertex -0.290441 -1.52254 -10.5
    endloop
  endfacet
  facet normal 0 0 -1
    outer loop
      vertex -4.21608 -22.1015 -10.5
      vertex -0.290441 -1.52254 -10.5
      vertex -1.41279 -22.4556 -10.5
    endloop
  endfacet
  facet normal -0 0 -1
    outer loop
      vertex -0.290441 -1.52254 -10.5
      vertex -4.21608 -22.1015 -10.5
      vertex -0.478976 -1.47414 -10.5
    endloop
  endfacet
  facet normal 0 0 -1
    outer loop
      vertex -6.95288 -21.3988 -10.5
      vertex -0.478976 -1.47414 -10.5
      vertex -4.21608 -22.1015 -10.5
    endloop
  endfacet
  facet normal -0 0 -1
    outer loop
      vertex -0.478976 -1.47414 -10.5
      vertex -6.95288 -21.3988 -10.5
      vertex -0.659958 -1.40248 -10.5
    endloop
  endfacet
  facet normal 0 0 -1
    outer loop
      vertex -9.58003 -20.3586 -10.5
      vertex -0.659958 -1.40248 -10.5
      vertex -6.95288 -21.3988 -10.5
    endloop
  endfacet
  facet normal -0 0 -1
    outer loop
      vertex -0.659958 -1.40248 -10.5
      vertex -9.58003 -20.3586 -10.5
      vertex -0.830531 -1.30871 -10.5
    endloop
  endfacet
  facet normal 0 0 -1
    outer loop
      vertex -12.0561 -18.9974 -10.5
      vertex -0.830531 -1.30871 -10.5
      vertex -9.58003 -20.3586 -10.5
    endloop
  endfacet
  facet normal -0 0 -1
    outer loop
      vertex -0.830531 -1.30871 -10.5
      vertex -12.0561 -18.9974 -10.5
      vertex -0.988007 -1.19429 -10.5
    endloop
  endfacet
  facet normal 0 0 -1
    outer loop
      vertex -14.342 -17.3365 -10.5
      vertex -0.988007 -1.19429 -10.5
      vertex -12.0561 -18.9974 -10.5
    endloop
  endfacet
  facet normal -0 0 -1
    outer loop
      vertex -0.988007 -1.19429 -10.5
      vertex -14.342 -17.3365 -10.5
      vertex -1.1299 -1.06105 -10.5
    endloop
  endfacet
  facet normal 0 0 -1
    outer loop
      vertex -16.4018 -15.4023 -10.5
      vertex -1.1299 -1.06105 -10.5
      vertex -14.342 -17.3365 -10.5
    endloop
  endfacet
  facet normal -0 0 -1
    outer loop
      vertex -1.1299 -1.06105 -10.5
      vertex -16.4018 -15.4023 -10.5
      vertex -1.25398 -0.911067 -10.5
    endloop
  endfacet
  facet normal 0 0 -1
    outer loop
      vertex 1.1299 1.06105 -10.5
      vertex 16.4018 15.4023 -10.5
      vertex 1.25398 0.911067 -10.5
    endloop
  endfacet
  facet normal -0 0 -1
    outer loop
      vertex 16.4018 15.4023 -10.5
      vertex 1.1299 1.06105 -10.5
      vertex 14.342 17.3365 -10.5
    endloop
  endfacet
  facet normal 0 0 -1
    outer loop
      vertex 0.988007 1.19429 -10.5
      vertex 14.342 17.3365 -10.5
      vertex 1.1299 1.06105 -10.5
    endloop
  endfacet
  facet normal -0 0 -1
    outer loop
      vertex 14.342 17.3365 -10.5
      vertex 0.988007 1.19429 -10.5
      vertex 12.0561 18.9974 -10.5
    endloop
  endfacet
  facet normal 0 0 -1
    outer loop
      vertex 0.830531 1.30871 -10.5
      vertex 12.0561 18.9974 -10.5
      vertex 0.988007 1.19429 -10.5
    endloop
  endfacet
  facet normal -0 0 -1
    outer loop
      vertex 12.0561 18.9974 -10.5
      vertex 0.830531 1.30871 -10.5
      vertex 9.58003 20.3586 -10.5
    endloop
  endfacet
  facet normal 0 0 -1
    outer loop
      vertex 0.659958 1.40248 -10.5
      vertex 9.58003 20.3586 -10.5
      vertex 0.830531 1.30871 -10.5
    endloop
  endfacet
  facet normal -0 0 -1
    outer loop
      vertex 9.58003 20.3586 -10.5
      vertex 0.659958 1.40248 -10.5
      vertex 6.95288 21.3988 -10.5
    endloop
  endfacet
  facet normal 0 0 -1
    outer loop
      vertex 0.478976 1.47414 -10.5
      vertex 6.95288 21.3988 -10.5
      vertex 0.659958 1.40248 -10.5
    endloop
  endfacet
  facet normal -0 0 -1
    outer loop
      vertex 6.95288 21.3988 -10.5
      vertex 0.478976 1.47414 -10.5
      vertex 4.21608 22.1015 -10.5
    endloop
  endfacet
  facet normal 0 0 -1
    outer loop
      vertex 0.290441 1.52254 -10.5
      vertex 4.21608 22.1015 -10.5
      vertex 0.478976 1.47414 -10.5
    endloop
  endfacet
  facet normal -0 0 -1
    outer loop
      vertex 4.21608 22.1015 -10.5
      vertex 0.290441 1.52254 -10.5
      vertex 1.41279 22.4556 -10.5
    endloop
  endfacet
  facet normal 0 0 -1
    outer loop
      vertex 0.0973244 1.54694 -10.5
      vertex 1.41279 22.4556 -10.5
      vertex 0.290441 1.52254 -10.5
    endloop
  endfacet
  facet normal 0 0 -1
    outer loop
      vertex -0.0973244 1.54694 -10.5
      vertex 1.41279 22.4556 -10.5
      vertex 0.0973244 1.54694 -10.5
    endloop
  endfacet
  facet normal 0 0 -1
    outer loop
      vertex -1.41279 22.4556 -10.5
      vertex -0.0973244 1.54694 -10.5
      vertex -0.290441 1.52254 -10.5
    endloop
  endfacet
  facet normal 0 0 -1
    outer loop
      vertex -4.21608 22.1015 -10.5
      vertex -0.290441 1.52254 -10.5
      vertex -0.478976 1.47414 -10.5
    endloop
  endfacet
  facet normal 0 0 -1
    outer loop
      vertex -6.95288 21.3988 -10.5
      vertex -0.478976 1.47414 -10.5
      vertex -0.659958 1.40248 -10.5
    endloop
  endfacet
  facet normal 0 0 -1
    outer loop
      vertex -9.58003 20.3586 -10.5
      vertex -0.659958 1.40248 -10.5
      vertex -0.830531 1.30871 -10.5
    endloop
  endfacet
  facet normal 0 0 -1
    outer loop
      vertex -12.0561 18.9974 -10.5
      vertex -0.830531 1.30871 -10.5
      vertex -0.988007 1.19429 -10.5
    endloop
  endfacet
  facet normal 0 0 -1
    outer loop
      vertex -14.342 17.3365 -10.5
      vertex -0.988007 1.19429 -10.5
      vertex -1.1299 1.06105 -10.5
    endloop
  endfacet
  facet normal 0 0 -1
    outer loop
      vertex -16.4018 15.4023 -10.5
      vertex -1.1299 1.06105 -10.5
      vertex -1.25398 0.911067 -10.5
    endloop
  endfacet
  facet normal 0 0 -1
    outer loop
      vertex -18.2029 13.2252 -10.5
      vertex -1.25398 0.911067 -10.5
      vertex -1.35827 0.746717 -10.5
    endloop
  endfacet
  facet normal 0 0 -1
    outer loop
      vertex -0.0973244 1.54694 -10.5
      vertex -1.41279 22.4556 -10.5
      vertex 1.41279 22.4556 -10.5
    endloop
  endfacet
  facet normal 0 0 -1
    outer loop
      vertex -19.7169 10.8395 -10.5
      vertex -1.35827 0.746717 -10.5
      vertex -1.44115 0.570593 -10.5
    endloop
  endfacet
  facet normal 0 0 -1
    outer loop
      vertex -20.92 8.2828 -10.5
      vertex -1.44115 0.570593 -10.5
      vertex -1.5013 0.385468 -10.5
    endloop
  endfacet
  facet normal 0 0 -1
    outer loop
      vertex -21.7931 5.59552 -10.5
      vertex -1.5013 0.385468 -10.5
      vertex -1.53778 0.194266 -10.5
    endloop
  endfacet
  facet normal 0 0 -1
    outer loop
      vertex -22.3226 2.82 -10.5
      vertex -1.53778 0.194266 -10.5
      vertex -1.55 0 -10.5
    endloop
  endfacet
  facet normal 0 0 -1
    outer loop
      vertex -18.2029 -13.2252 -10.5
      vertex -1.25398 -0.911067 -10.5
      vertex -16.4018 -15.4023 -10.5
    endloop
  endfacet
  facet normal 0 0 -1
    outer loop
      vertex -0.290441 1.52254 -10.5
      vertex -4.21608 22.1015 -10.5
      vertex -1.41279 22.4556 -10.5
    endloop
  endfacet
  facet normal -0 0 -1
    outer loop
      vertex -1.25398 -0.911067 -10.5
      vertex -18.2029 -13.2252 -10.5
      vertex -1.35827 -0.746717 -10.5
    endloop
  endfacet
  facet normal 0 0 -1
    outer loop
      vertex -0.478976 1.47414 -10.5
      vertex -6.95288 21.3988 -10.5
      vertex -4.21608 22.1015 -10.5
    endloop
  endfacet
  facet normal 0 0 -1
    outer loop
      vertex -19.7169 -10.8395 -10.5
      vertex -1.35827 -0.746717 -10.5
      vertex -18.2029 -13.2252 -10.5
    endloop
  endfacet
  facet normal 0 0 -1
    outer loop
      vertex -0.659958 1.40248 -10.5
      vertex -9.58003 20.3586 -10.5
      vertex -6.95288 21.3988 -10.5
    endloop
  endfacet
  facet normal -0 0 -1
    outer loop
      vertex -1.35827 -0.746717 -10.5
      vertex -19.7169 -10.8395 -10.5
      vertex -1.44115 -0.570593 -10.5
    endloop
  endfacet
  facet normal 0 0 -1
    outer loop
      vertex -0.830531 1.30871 -10.5
      vertex -12.0561 18.9974 -10.5
      vertex -9.58003 20.3586 -10.5
    endloop
  endfacet
  facet normal 0 0 -1
    outer loop
      vertex -20.92 -8.2828 -10.5
      vertex -1.44115 -0.570593 -10.5
      vertex -19.7169 -10.8395 -10.5
    endloop
  endfacet
  facet normal 0 0 -1
    outer loop
      vertex -0.988007 1.19429 -10.5
      vertex -14.342 17.3365 -10.5
      vertex -12.0561 18.9974 -10.5
    endloop
  endfacet
  facet normal -0 0 -1
    outer loop
      vertex -1.44115 -0.570593 -10.5
      vertex -20.92 -8.2828 -10.5
      vertex -1.5013 -0.385468 -10.5
    endloop
  endfacet
  facet normal 0 0 -1
    outer loop
      vertex -1.1299 1.06105 -10.5
      vertex -16.4018 15.4023 -10.5
      vertex -14.342 17.3365 -10.5
    endloop
  endfacet
  facet normal 0 0 -1
    outer loop
      vertex -21.7931 -5.59552 -10.5
      vertex -1.5013 -0.385468 -10.5
      vertex -20.92 -8.2828 -10.5
    endloop
  endfacet
  facet normal 0 0 -1
    outer loop
      vertex -1.25398 0.911067 -10.5
      vertex -18.2029 13.2252 -10.5
      vertex -16.4018 15.4023 -10.5
    endloop
  endfacet
  facet normal -0 0 -1
    outer loop
      vertex -1.5013 -0.385468 -10.5
      vertex -21.7931 -5.59552 -10.5
      vertex -1.53778 -0.194266 -10.5
    endloop
  endfacet
  facet normal 0 0 -1
    outer loop
      vertex -1.35827 0.746717 -10.5
      vertex -19.7169 10.8395 -10.5
      vertex -18.2029 13.2252 -10.5
    endloop
  endfacet
  facet normal 0 0 -1
    outer loop
      vertex -22.3226 -2.82 -10.5
      vertex -1.53778 -0.194266 -10.5
      vertex -21.7931 -5.59552 -10.5
    endloop
  endfacet
  facet normal 0 0 -1
    outer loop
      vertex -1.44115 0.570593 -10.5
      vertex -20.92 8.2828 -10.5
      vertex -19.7169 10.8395 -10.5
    endloop
  endfacet
  facet normal -0 0 -1
    outer loop
      vertex -1.53778 -0.194266 -10.5
      vertex -22.3226 -2.82 -10.5
      vertex -1.55 0 -10.5
    endloop
  endfacet
  facet normal 0 0 -1
    outer loop
      vertex -1.5013 0.385468 -10.5
      vertex -21.7931 5.59552 -10.5
      vertex -20.92 8.2828 -10.5
    endloop
  endfacet
  facet normal 0 0 -1
    outer loop
      vertex -22.5 0 -10.5
      vertex -1.55 0 -10.5
      vertex -22.3226 -2.82 -10.5
    endloop
  endfacet
  facet normal 0 0 -1
    outer loop
      vertex -1.53778 0.194266 -10.5
      vertex -22.3226 2.82 -10.5
      vertex -21.7931 5.59552 -10.5
    endloop
  endfacet
  facet normal 0 0 -1
    outer loop
      vertex -1.55 0 -10.5
      vertex -22.5 0 -10.5
      vertex -22.3226 2.82 -10.5
    endloop
  endfacet
  facet normal 0.248693 -0.968582 0
    outer loop
      vertex 4.21608 -22.1015 -10.5
      vertex 6.95288 -21.3988 0
      vertex 4.21608 -22.1015 0
    endloop
  endfacet
  facet normal 0.248693 -0.968582 0
    outer loop
      vertex 6.95288 -21.3988 0
      vertex 4.21608 -22.1015 -10.5
      vertex 6.95288 -21.3988 -10.5
    endloop
  endfacet
  facet normal 0.12532 -0.992116 0
    outer loop
      vertex 1.41279 -22.4556 -10.5
      vertex 4.21608 -22.1015 0
      vertex 1.41279 -22.4556 0
    endloop
  endfacet
  facet normal 0.12532 -0.992116 0
    outer loop
      vertex 4.21608 -22.1015 0
      vertex 1.41279 -22.4556 -10.5
      vertex 4.21608 -22.1015 -10.5
    endloop
  endfacet
  facet normal 0.982285 -0.187395 0
    outer loop
      vertex 21.7931 -5.59552 0
      vertex 22.3226 -2.82 -10.5
      vertex 22.3226 -2.82 0
    endloop
  endfacet
  facet normal 0.982285 -0.187395 0
    outer loop
      vertex 22.3226 -2.82 -10.5
      vertex 21.7931 -5.59552 0
      vertex 21.7931 -5.59552 -10.5
    endloop
  endfacet
  facet normal 0.587808 -0.809001 0
    outer loop
      vertex 12.0561 -18.9974 -10.5
      vertex 14.342 -17.3365 0
      vertex 12.0561 -18.9974 0
    endloop
  endfacet
  facet normal 0.587808 -0.809001 0
    outer loop
      vertex 14.342 -17.3365 0
      vertex 12.0561 -18.9974 -10.5
      vertex 14.342 -17.3365 -10.5
    endloop
  endfacet
  facet normal 0.84433 -0.535824 0
    outer loop
      vertex 18.2029 -13.2252 0
      vertex 19.7169 -10.8395 -10.5
      vertex 19.7169 -10.8395 0
    endloop
  endfacet
  facet normal 0.84433 -0.535824 0
    outer loop
      vertex 19.7169 -10.8395 -10.5
      vertex 18.2029 -13.2252 0
      vertex 18.2029 -13.2252 -10.5
    endloop
  endfacet
  facet normal -0.12532 -0.992116 0
    outer loop
      vertex -4.21608 -22.1015 -10.5
      vertex -1.41279 -22.4556 0
      vertex -4.21608 -22.1015 0
    endloop
  endfacet
  facet normal -0.12532 -0.992116 -0
    outer loop
      vertex -1.41279 -22.4556 0
      vertex -4.21608 -22.1015 -10.5
      vertex -1.41279 -22.4556 -10.5
    endloop
  endfacet
  facet normal -0.368136 -0.929772 0
    outer loop
      vertex -9.58003 -20.3586 -10.5
      vertex -6.95288 -21.3988 0
      vertex -9.58003 -20.3586 0
    endloop
  endfacet
  facet normal -0.368136 -0.929772 -0
    outer loop
      vertex -6.95288 -21.3988 0
      vertex -9.58003 -20.3586 -10.5
      vertex -6.95288 -21.3988 -10.5
    endloop
  endfacet
  facet normal -0.248693 -0.968582 0
    outer loop
      vertex -6.95288 -21.3988 -10.5
      vertex -4.21608 -22.1015 0
      vertex -6.95288 -21.3988 0
    endloop
  endfacet
  facet normal -0.248693 -0.968582 -0
    outer loop
      vertex -4.21608 -22.1015 0
      vertex -6.95288 -21.3988 -10.5
      vertex -4.21608 -22.1015 -10.5
    endloop
  endfacet
  facet normal -0.770505 -0.637434 0
    outer loop
      vertex -16.4018 -15.4023 -10.5
      vertex -18.2029 -13.2252 0
      vertex -18.2029 -13.2252 -10.5
    endloop
  endfacet
  facet normal -0.770505 -0.637434 0
    outer loop
      vertex -18.2029 -13.2252 0
      vertex -16.4018 -15.4023 -10.5
      vertex -16.4018 -15.4023 0
    endloop
  endfacet
  facet normal -0.904826 -0.425782 0
    outer loop
      vertex -19.7169 -10.8395 -10.5
      vertex -20.92 -8.2828 0
      vertex -20.92 -8.2828 -10.5
    endloop
  endfacet
  facet normal -0.904826 -0.425782 0
    outer loop
      vertex -20.92 -8.2828 0
      vertex -19.7169 -10.8395 -10.5
      vertex -19.7169 -10.8395 0
    endloop
  endfacet
  facet normal -0.982285 -0.187395 0
    outer loop
      vertex -21.7931 -5.59552 -10.5
      vertex -22.3226 -2.82 0
      vertex -22.3226 -2.82 -10.5
    endloop
  endfacet
  facet normal -0.982285 -0.187395 0
    outer loop
      vertex -22.3226 -2.82 0
      vertex -21.7931 -5.59552 -10.5
      vertex -21.7931 -5.59552 0
    endloop
  endfacet
  facet normal -0.998027 -0.0627837 0
    outer loop
      vertex -22.3226 -2.82 -10.5
      vertex -22.5 0 0
      vertex -22.5 0 -10.5
    endloop
  endfacet
  facet normal -0.998027 -0.0627837 0
    outer loop
      vertex -22.5 0 0
      vertex -22.3226 -2.82 -10.5
      vertex -22.3226 -2.82 0
    endloop
  endfacet
  facet normal -0.481745 -0.876311 0
    outer loop
      vertex -12.0561 -18.9974 -10.5
      vertex -9.58003 -20.3586 0
      vertex -12.0561 -18.9974 0
    endloop
  endfacet
  facet normal -0.481745 -0.876311 -0
    outer loop
      vertex -9.58003 -20.3586 0
      vertex -12.0561 -18.9974 -10.5
      vertex -9.58003 -20.3586 -10.5
    endloop
  endfacet
  facet normal -0.587808 -0.809001 0
    outer loop
      vertex -14.342 -17.3365 -10.5
      vertex -12.0561 -18.9974 0
      vertex -14.342 -17.3365 0
    endloop
  endfacet
  facet normal -0.587808 -0.809001 -0
    outer loop
      vertex -12.0561 -18.9974 0
      vertex -14.342 -17.3365 -10.5
      vertex -12.0561 -18.9974 -10.5
    endloop
  endfacet
endsolid OpenSCAD_Model
