solid OpenSCAD_Model
  facet normal -0.996787 -0.0627026 -0.0498394
    outer loop
      vertex 22.575 0 -5
      vertex 22.425 0 -2
      vertex 22.2482 2.8106 -2
    endloop
  endfacet
  facet normal -0.996787 -0.0627087 -0.0498336
    outer loop
      vertex 22.397 2.8294 -5
      vertex 22.575 0 -5
      vertex 22.2482 2.8106 -2
    endloop
  endfacet
  facet normal 0.996787 -0.0627026 -0.0498394
    outer loop
      vertex -22.2482 2.8106 -2
      vertex -22.425 0 -2
      vertex -22.575 0 -5
    endloop
  endfacet
  facet normal -0.981066 -0.18715 -0.0498432
    outer loop
      vertex 21.8658 5.61417 -5
      vertex 22.2482 2.8106 -2
      vertex 21.7205 5.57687 -2
    endloop
  endfacet
  facet normal -0.683667 -0.728092 -0.0498177
    outer loop
      vertex 14.3898 17.3943 -5
      vertex 16.4565 15.4537 -5
      vertex 14.2942 17.2788 -2
    endloop
  endfacet
  facet normal 0 0.998756 -0.0498712
    outer loop
      vertex 1.4175 -22.5305 -5
      vertex -1.40808 -22.3807 -2
      vertex 1.40808 -22.3807 -2
    endloop
  endfacet
  facet normal 0 0.998756 -0.0498712
    outer loop
      vertex -1.40808 -22.3807 -2
      vertex 1.4175 -22.5305 -5
      vertex -1.4175 -22.5305 -5
    endloop
  endfacet
  facet normal 0 -0.998756 -0.0498712
    outer loop
      vertex -1.4175 22.5305 -5
      vertex 1.40808 22.3807 -2
      vertex -1.40808 22.3807 -2
    endloop
  endfacet
  facet normal 0 -0.998756 -0.0498712
    outer loop
      vertex 1.40808 22.3807 -2
      vertex -1.4175 22.5305 -5
      vertex 1.4175 22.5305 -5
    endloop
  endfacet
  facet normal 0.996787 0.0627087 -0.0498336
    outer loop
      vertex -22.2482 -2.8106 -2
      vertex -22.397 -2.8294 -5
      vertex -22.575 0 -5
    endloop
  endfacet
  facet normal 0.769554 0.636633 -0.0498571
    outer loop
      vertex -16.3471 -15.351 -2
      vertex -16.4565 -15.4537 -5
      vertex -18.2636 -13.2693 -5
    endloop
  endfacet
  facet normal -0.683696 0.728062 -0.0498561
    outer loop
      vertex 16.3471 -15.351 -2
      vertex 16.4565 -15.4537 -5
      vertex 14.2942 -17.2788 -2
    endloop
  endfacet
  facet normal -0.94987 0.308645 -0.0498429
    outer loop
      vertex 21.7205 -5.57687 -2
      vertex 21.8658 -5.61417 -5
      vertex 20.9897 -8.31041 -5
    endloop
  endfacet
  facet normal -0.903701 -0.425254 -0.0498307
    outer loop
      vertex 19.7826 10.8756 -5
      vertex 20.9897 8.31041 -5
      vertex 19.6512 10.8033 -2
    endloop
  endfacet
  facet normal -0.683696 -0.728062 -0.0498561
    outer loop
      vertex 16.4565 15.4537 -5
      vertex 16.3471 15.351 -2
      vertex 14.2942 17.2788 -2
    endloop
  endfacet
  facet normal 0.981068 0.187141 -0.0498337
    outer loop
      vertex -22.2482 -2.8106 -2
      vertex -21.8658 -5.61417 -5
      vertex -22.397 -2.8294 -5
    endloop
  endfacet
  facet normal 0 0 -1
    outer loop
      vertex 22.575 0 -5
      vertex 24.5 0 -5
      vertex 24.3068 -3.07066 -5
    endloop
  endfacet
  facet normal 0 0 -1
    outer loop
      vertex 22.397 -2.8294 -5
      vertex 24.3068 -3.07066 -5
      vertex 23.7303 -6.0929 -5
    endloop
  endfacet
  facet normal 0 0 -1
    outer loop
      vertex 24.5 0 -5
      vertex 22.575 0 -5
      vertex 24.3068 3.07066 -5
    endloop
  endfacet
  facet normal 0 0 -1
    outer loop
      vertex 21.8658 -5.61417 -5
      vertex 23.7303 -6.0929 -5
      vertex 22.7795 -9.01905 -5
    endloop
  endfacet
  facet normal 0 0 -1
    outer loop
      vertex 22.397 2.8294 -5
      vertex 24.3068 3.07066 -5
      vertex 22.575 0 -5
    endloop
  endfacet
  facet normal -0 0 -1
    outer loop
      vertex 24.3068 3.07066 -5
      vertex 22.397 2.8294 -5
      vertex 23.7303 6.0929 -5
    endloop
  endfacet
  facet normal 0 0 -1
    outer loop
      vertex 24.3068 -3.07066 -5
      vertex 22.397 -2.8294 -5
      vertex 22.575 0 -5
    endloop
  endfacet
  facet normal 0 0 -1
    outer loop
      vertex 23.7303 -6.0929 -5
      vertex 21.8658 -5.61417 -5
      vertex 22.397 -2.8294 -5
    endloop
  endfacet
  facet normal 0 0 -1
    outer loop
      vertex 20.9897 -8.31041 -5
      vertex 22.7795 -9.01905 -5
      vertex 21.4695 -11.803 -5
    endloop
  endfacet
  facet normal 0 0 -1
    outer loop
      vertex 22.7795 -9.01905 -5
      vertex 20.9897 -8.31041 -5
      vertex 21.8658 -5.61417 -5
    endloop
  endfacet
  facet normal 0 0 -1
    outer loop
      vertex 19.7826 -10.8756 -5
      vertex 21.4695 -11.803 -5
      vertex 19.8209 -14.4007 -5
    endloop
  endfacet
  facet normal 0 0 -1
    outer loop
      vertex 21.4695 -11.803 -5
      vertex 19.7826 -10.8756 -5
      vertex 20.9897 -8.31041 -5
    endloop
  endfacet
  facet normal 0 0 -1
    outer loop
      vertex 19.8209 -14.4007 -5
      vertex 18.2636 -13.2693 -5
      vertex 19.7826 -10.8756 -5
    endloop
  endfacet
  facet normal 0 0 -1
    outer loop
      vertex 17.8597 -16.7714 -5
      vertex 18.2636 -13.2693 -5
      vertex 19.8209 -14.4007 -5
    endloop
  endfacet
  facet normal 0 0 -1
    outer loop
      vertex 17.8597 -16.7714 -5
      vertex 16.4565 -15.4537 -5
      vertex 18.2636 -13.2693 -5
    endloop
  endfacet
  facet normal 0 0 -1
    outer loop
      vertex 15.6169 -18.8776 -5
      vertex 16.4565 -15.4537 -5
      vertex 17.8597 -16.7714 -5
    endloop
  endfacet
  facet normal 0 0 -1
    outer loop
      vertex 15.6169 -18.8776 -5
      vertex 14.3898 -17.3943 -5
      vertex 16.4565 -15.4537 -5
    endloop
  endfacet
  facet normal 0 0 -1
    outer loop
      vertex 13.1278 -20.686 -5
      vertex 14.3898 -17.3943 -5
      vertex 15.6169 -18.8776 -5
    endloop
  endfacet
  facet normal 0 0 -1
    outer loop
      vertex 13.1278 -20.686 -5
      vertex 12.0963 -19.0607 -5
      vertex 14.3898 -17.3943 -5
    endloop
  endfacet
  facet normal 0 0 -1
    outer loop
      vertex 10.4316 -22.1683 -5
      vertex 12.0963 -19.0607 -5
      vertex 13.1278 -20.686 -5
    endloop
  endfacet
  facet normal 0 0 -1
    outer loop
      vertex 10.4316 -22.1683 -5
      vertex 9.61197 -20.4265 -5
      vertex 12.0963 -19.0607 -5
    endloop
  endfacet
  facet normal 0 0 -1
    outer loop
      vertex 7.57092 -23.3009 -5
      vertex 9.61197 -20.4265 -5
      vertex 10.4316 -22.1683 -5
    endloop
  endfacet
  facet normal 0 0 -1
    outer loop
      vertex 7.57092 -23.3009 -5
      vertex 6.97606 -21.4701 -5
      vertex 9.61197 -20.4265 -5
    endloop
  endfacet
  facet normal 0 0 -1
    outer loop
      vertex 4.59084 -24.066 -5
      vertex 6.97606 -21.4701 -5
      vertex 7.57092 -23.3009 -5
    endloop
  endfacet
  facet normal 0 0 -1
    outer loop
      vertex 4.59084 -24.066 -5
      vertex 4.23013 -22.1751 -5
      vertex 6.97606 -21.4701 -5
    endloop
  endfacet
  facet normal 0 0 -1
    outer loop
      vertex 1.53837 -24.4517 -5
      vertex 4.23013 -22.1751 -5
      vertex 4.59084 -24.066 -5
    endloop
  endfacet
  facet normal 0 0 -1
    outer loop
      vertex 1.53837 -24.4517 -5
      vertex 1.4175 -22.5305 -5
      vertex 4.23013 -22.1751 -5
    endloop
  endfacet
  facet normal 0 0 -1
    outer loop
      vertex 1.53837 -24.4517 -5
      vertex -1.4175 -22.5305 -5
      vertex 1.4175 -22.5305 -5
    endloop
  endfacet
  facet normal 0 0 -1
    outer loop
      vertex -1.53837 -24.4517 -5
      vertex -1.4175 -22.5305 -5
      vertex 1.53837 -24.4517 -5
    endloop
  endfacet
  facet normal 0 0 -1
    outer loop
      vertex -1.53837 -24.4517 -5
      vertex -4.23013 -22.1751 -5
      vertex -1.4175 -22.5305 -5
    endloop
  endfacet
  facet normal 0 0 -1
    outer loop
      vertex -4.59084 -24.066 -5
      vertex -4.23013 -22.1751 -5
      vertex -1.53837 -24.4517 -5
    endloop
  endfacet
  facet normal 0 0 -1
    outer loop
      vertex -4.59084 -24.066 -5
      vertex -6.97606 -21.4701 -5
      vertex -4.23013 -22.1751 -5
    endloop
  endfacet
  facet normal 0 0 -1
    outer loop
      vertex -7.57092 -23.3009 -5
      vertex -6.97606 -21.4701 -5
      vertex -4.59084 -24.066 -5
    endloop
  endfacet
  facet normal 0 0 -1
    outer loop
      vertex -7.57092 -23.3009 -5
      vertex -9.61197 -20.4265 -5
      vertex -6.97606 -21.4701 -5
    endloop
  endfacet
  facet normal 0 0 -1
    outer loop
      vertex -10.4316 -22.1683 -5
      vertex -9.61197 -20.4265 -5
      vertex -7.57092 -23.3009 -5
    endloop
  endfacet
  facet normal 0 0 -1
    outer loop
      vertex -10.4316 -22.1683 -5
      vertex -12.0963 -19.0607 -5
      vertex -9.61197 -20.4265 -5
    endloop
  endfacet
  facet normal 0 0 -1
    outer loop
      vertex -13.1278 -20.686 -5
      vertex -12.0963 -19.0607 -5
      vertex -10.4316 -22.1683 -5
    endloop
  endfacet
  facet normal 0 0 -1
    outer loop
      vertex -13.1278 -20.686 -5
      vertex -14.3898 -17.3943 -5
      vertex -12.0963 -19.0607 -5
    endloop
  endfacet
  facet normal 0 0 -1
    outer loop
      vertex -15.6169 -18.8776 -5
      vertex -14.3898 -17.3943 -5
      vertex -13.1278 -20.686 -5
    endloop
  endfacet
  facet normal 0 0 -1
    outer loop
      vertex -15.6169 -18.8776 -5
      vertex -16.4565 -15.4537 -5
      vertex -14.3898 -17.3943 -5
    endloop
  endfacet
  facet normal 0 0 -1
    outer loop
      vertex -17.8597 -16.7714 -5
      vertex -16.4565 -15.4537 -5
      vertex -15.6169 -18.8776 -5
    endloop
  endfacet
  facet normal 0 0 -1
    outer loop
      vertex -17.8597 -16.7714 -5
      vertex -18.2636 -13.2693 -5
      vertex -16.4565 -15.4537 -5
    endloop
  endfacet
  facet normal 0 0 -1
    outer loop
      vertex -19.8209 -14.4007 -5
      vertex -18.2636 -13.2693 -5
      vertex -17.8597 -16.7714 -5
    endloop
  endfacet
  facet normal -0 0 -1
    outer loop
      vertex -18.2636 -13.2693 -5
      vertex -19.8209 -14.4007 -5
      vertex -19.7826 -10.8756 -5
    endloop
  endfacet
  facet normal 0 0 -1
    outer loop
      vertex -21.4695 -11.803 -5
      vertex -19.7826 -10.8756 -5
      vertex -19.8209 -14.4007 -5
    endloop
  endfacet
  facet normal -0 0 -1
    outer loop
      vertex -19.7826 -10.8756 -5
      vertex -21.4695 -11.803 -5
      vertex -20.9897 -8.31041 -5
    endloop
  endfacet
  facet normal 0 0 -1
    outer loop
      vertex -22.7795 -9.01905 -5
      vertex -20.9897 -8.31041 -5
      vertex -21.4695 -11.803 -5
    endloop
  endfacet
  facet normal -0 0 -1
    outer loop
      vertex -20.9897 -8.31041 -5
      vertex -22.7795 -9.01905 -5
      vertex -21.8658 -5.61417 -5
    endloop
  endfacet
  facet normal -0 0 -1
    outer loop
      vertex -21.8658 -5.61417 -5
      vertex -23.7303 -6.0929 -5
      vertex -22.397 -2.8294 -5
    endloop
  endfacet
  facet normal 0 0 -1
    outer loop
      vertex -23.7303 -6.0929 -5
      vertex -21.8658 -5.61417 -5
      vertex -22.7795 -9.01905 -5
    endloop
  endfacet
  facet normal 0 0 -1
    outer loop
      vertex 21.8658 5.61417 -5
      vertex 23.7303 6.0929 -5
      vertex 22.397 2.8294 -5
    endloop
  endfacet
  facet normal -0 0 -1
    outer loop
      vertex 23.7303 6.0929 -5
      vertex 21.8658 5.61417 -5
      vertex 22.7795 9.01905 -5
    endloop
  endfacet
  facet normal 0 0 -1
    outer loop
      vertex 20.9897 8.31041 -5
      vertex 22.7795 9.01905 -5
      vertex 21.8658 5.61417 -5
    endloop
  endfacet
  facet normal -0 0 -1
    outer loop
      vertex 22.7795 9.01905 -5
      vertex 20.9897 8.31041 -5
      vertex 21.4695 11.803 -5
    endloop
  endfacet
  facet normal 0 0 -1
    outer loop
      vertex 19.7826 10.8756 -5
      vertex 21.4695 11.803 -5
      vertex 20.9897 8.31041 -5
    endloop
  endfacet
  facet normal -0 0 -1
    outer loop
      vertex 21.4695 11.803 -5
      vertex 19.7826 10.8756 -5
      vertex 19.8209 14.4007 -5
    endloop
  endfacet
  facet normal 0 0 -1
    outer loop
      vertex 18.2636 13.2693 -5
      vertex 19.8209 14.4007 -5
      vertex 19.7826 10.8756 -5
    endloop
  endfacet
  facet normal 0 0 -1
    outer loop
      vertex 18.2636 13.2693 -5
      vertex 17.8597 16.7714 -5
      vertex 19.8209 14.4007 -5
    endloop
  endfacet
  facet normal 0 0 -1
    outer loop
      vertex 16.4565 15.4537 -5
      vertex 17.8597 16.7714 -5
      vertex 18.2636 13.2693 -5
    endloop
  endfacet
  facet normal 0 0 -1
    outer loop
      vertex 16.4565 15.4537 -5
      vertex 15.6169 18.8776 -5
      vertex 17.8597 16.7714 -5
    endloop
  endfacet
  facet normal 0 0 -1
    outer loop
      vertex 14.3898 17.3943 -5
      vertex 15.6169 18.8776 -5
      vertex 16.4565 15.4537 -5
    endloop
  endfacet
  facet normal 0 0 -1
    outer loop
      vertex 14.3898 17.3943 -5
      vertex 13.1278 20.686 -5
      vertex 15.6169 18.8776 -5
    endloop
  endfacet
  facet normal 0 0 -1
    outer loop
      vertex 12.0963 19.0607 -5
      vertex 13.1278 20.686 -5
      vertex 14.3898 17.3943 -5
    endloop
  endfacet
  facet normal 0 0 -1
    outer loop
      vertex 12.0963 19.0607 -5
      vertex 10.4316 22.1683 -5
      vertex 13.1278 20.686 -5
    endloop
  endfacet
  facet normal 0 0 -1
    outer loop
      vertex 9.61197 20.4265 -5
      vertex 10.4316 22.1683 -5
      vertex 12.0963 19.0607 -5
    endloop
  endfacet
  facet normal 0 0 -1
    outer loop
      vertex 9.61197 20.4265 -5
      vertex 7.57092 23.3009 -5
      vertex 10.4316 22.1683 -5
    endloop
  endfacet
  facet normal 0 0 -1
    outer loop
      vertex 6.97606 21.4701 -5
      vertex 7.57092 23.3009 -5
      vertex 9.61197 20.4265 -5
    endloop
  endfacet
  facet normal 0 0 -1
    outer loop
      vertex 6.97606 21.4701 -5
      vertex 4.59084 24.066 -5
      vertex 7.57092 23.3009 -5
    endloop
  endfacet
  facet normal 0 0 -1
    outer loop
      vertex 4.23013 22.1751 -5
      vertex 4.59084 24.066 -5
      vertex 6.97606 21.4701 -5
    endloop
  endfacet
  facet normal 0 0 -1
    outer loop
      vertex 4.23013 22.1751 -5
      vertex 1.53837 24.4517 -5
      vertex 4.59084 24.066 -5
    endloop
  endfacet
  facet normal 0 0 -1
    outer loop
      vertex 1.4175 22.5305 -5
      vertex 1.53837 24.4517 -5
      vertex 4.23013 22.1751 -5
    endloop
  endfacet
  facet normal 0 0 -1
    outer loop
      vertex -1.4175 22.5305 -5
      vertex 1.53837 24.4517 -5
      vertex 1.4175 22.5305 -5
    endloop
  endfacet
  facet normal 0 0 -1
    outer loop
      vertex -1.4175 22.5305 -5
      vertex -1.53837 24.4517 -5
      vertex 1.53837 24.4517 -5
    endloop
  endfacet
  facet normal 0 0 -1
    outer loop
      vertex -4.23013 22.1751 -5
      vertex -1.53837 24.4517 -5
      vertex -1.4175 22.5305 -5
    endloop
  endfacet
  facet normal 0 0 -1
    outer loop
      vertex -4.23013 22.1751 -5
      vertex -4.59084 24.066 -5
      vertex -1.53837 24.4517 -5
    endloop
  endfacet
  facet normal 0 0 -1
    outer loop
      vertex -6.97606 21.4701 -5
      vertex -4.59084 24.066 -5
      vertex -4.23013 22.1751 -5
    endloop
  endfacet
  facet normal 0 0 -1
    outer loop
      vertex -6.97606 21.4701 -5
      vertex -7.57092 23.3009 -5
      vertex -4.59084 24.066 -5
    endloop
  endfacet
  facet normal 0 0 -1
    outer loop
      vertex -9.61197 20.4265 -5
      vertex -7.57092 23.3009 -5
      vertex -6.97606 21.4701 -5
    endloop
  endfacet
  facet normal 0 0 -1
    outer loop
      vertex -9.61197 20.4265 -5
      vertex -10.4316 22.1683 -5
      vertex -7.57092 23.3009 -5
    endloop
  endfacet
  facet normal 0 0 -1
    outer loop
      vertex -12.0963 19.0607 -5
      vertex -10.4316 22.1683 -5
      vertex -9.61197 20.4265 -5
    endloop
  endfacet
  facet normal 0 0 -1
    outer loop
      vertex -12.0963 19.0607 -5
      vertex -13.1278 20.686 -5
      vertex -10.4316 22.1683 -5
    endloop
  endfacet
  facet normal 0 0 -1
    outer loop
      vertex -14.3898 17.3943 -5
      vertex -13.1278 20.686 -5
      vertex -12.0963 19.0607 -5
    endloop
  endfacet
  facet normal 0 0 -1
    outer loop
      vertex -14.3898 17.3943 -5
      vertex -15.6169 18.8776 -5
      vertex -13.1278 20.686 -5
    endloop
  endfacet
  facet normal 0 0 -1
    outer loop
      vertex -16.4565 15.4537 -5
      vertex -15.6169 18.8776 -5
      vertex -14.3898 17.3943 -5
    endloop
  endfacet
  facet normal 0 0 -1
    outer loop
      vertex -16.4565 15.4537 -5
      vertex -17.8597 16.7714 -5
      vertex -15.6169 18.8776 -5
    endloop
  endfacet
  facet normal 0 0 -1
    outer loop
      vertex -18.2636 13.2693 -5
      vertex -17.8597 16.7714 -5
      vertex -16.4565 15.4537 -5
    endloop
  endfacet
  facet normal 0 0 -1
    outer loop
      vertex -19.8209 14.4007 -5
      vertex -18.2636 13.2693 -5
      vertex -19.7826 10.8756 -5
    endloop
  endfacet
  facet normal 0 0 -1
    outer loop
      vertex -18.2636 13.2693 -5
      vertex -19.8209 14.4007 -5
      vertex -17.8597 16.7714 -5
    endloop
  endfacet
  facet normal 0 0 -1
    outer loop
      vertex -21.4695 11.803 -5
      vertex -19.7826 10.8756 -5
      vertex -20.9897 8.31041 -5
    endloop
  endfacet
  facet normal 0 0 -1
    outer loop
      vertex -19.7826 10.8756 -5
      vertex -21.4695 11.803 -5
      vertex -19.8209 14.4007 -5
    endloop
  endfacet
  facet normal 0 0 -1
    outer loop
      vertex -22.7795 9.01905 -5
      vertex -20.9897 8.31041 -5
      vertex -21.8658 5.61417 -5
    endloop
  endfacet
  facet normal 0 0 -1
    outer loop
      vertex -23.7303 6.0929 -5
      vertex -21.8658 5.61417 -5
      vertex -22.397 2.8294 -5
    endloop
  endfacet
  facet normal 0 0 -1
    outer loop
      vertex -20.9897 8.31041 -5
      vertex -22.7795 9.01905 -5
      vertex -21.4695 11.803 -5
    endloop
  endfacet
  facet normal 0 0 -1
    outer loop
      vertex -24.3068 3.07066 -5
      vertex -22.397 2.8294 -5
      vertex -22.575 0 -5
    endloop
  endfacet
  facet normal 0 0 -1
    outer loop
      vertex -24.3068 -3.07066 -5
      vertex -22.397 -2.8294 -5
      vertex -23.7303 -6.0929 -5
    endloop
  endfacet
  facet normal -0 0 -1
    outer loop
      vertex -22.397 -2.8294 -5
      vertex -24.3068 -3.07066 -5
      vertex -22.575 0 -5
    endloop
  endfacet
  facet normal 0 0 -1
    outer loop
      vertex -21.8658 5.61417 -5
      vertex -23.7303 6.0929 -5
      vertex -22.7795 9.01905 -5
    endloop
  endfacet
  facet normal 0 0 -1
    outer loop
      vertex -24.5 0 -5
      vertex -22.575 0 -5
      vertex -24.3068 -3.07066 -5
    endloop
  endfacet
  facet normal 0 0 -1
    outer loop
      vertex -22.397 2.8294 -5
      vertex -24.3068 3.07066 -5
      vertex -23.7303 6.0929 -5
    endloop
  endfacet
  facet normal 0 0 -1
    outer loop
      vertex -22.575 0 -5
      vertex -24.5 0 -5
      vertex -24.3068 3.07066 -5
    endloop
  endfacet
  facet normal 0.903701 0.425254 -0.0498307
    outer loop
      vertex -19.6512 -10.8033 -2
      vertex -19.7826 -10.8756 -5
      vertex -20.9897 -8.31041 -5
    endloop
  endfacet
  facet normal 0.843277 0.535161 -0.0498584
    outer loop
      vertex -18.1422 -13.1811 -2
      vertex -18.2636 -13.2693 -5
      vertex -19.6512 -10.8033 -2
    endloop
  endfacet
  facet normal -0.125157 0.990885 -0.0498248
    outer loop
      vertex 4.20203 -22.0278 -2
      vertex 4.23013 -22.1751 -5
      vertex 1.40808 -22.3807 -2
    endloop
  endfacet
  facet normal -0.248369 0.967382 -0.0498524
    outer loop
      vertex 6.92971 -21.3274 -2
      vertex 6.97606 -21.4701 -5
      vertex 4.23013 -22.1751 -5
    endloop
  endfacet
  facet normal -0.587072 0.807999 -0.0498311
    outer loop
      vertex 14.3898 -17.3943 -5
      vertex 12.0963 -19.0607 -5
      vertex 12.0159 -18.9341 -2
    endloop
  endfacet
  facet normal -0.903709 0.425236 -0.0498496
    outer loop
      vertex 20.8502 -8.25519 -2
      vertex 20.9897 -8.31041 -5
      vertex 19.6512 -10.8033 -2
    endloop
  endfacet
  facet normal -0.769554 0.636633 -0.0498571
    outer loop
      vertex 18.2636 -13.2693 -5
      vertex 16.4565 -15.4537 -5
      vertex 16.3471 -15.351 -2
    endloop
  endfacet
  facet normal -0.949868 0.308652 -0.0498501
    outer loop
      vertex 21.7205 -5.57687 -2
      vertex 20.9897 -8.31041 -5
      vertex 20.8502 -8.25519 -2
    endloop
  endfacet
  facet normal -0.981068 0.187141 -0.0498337
    outer loop
      vertex 22.2482 -2.8106 -2
      vertex 22.397 -2.8294 -5
      vertex 21.8658 -5.61417 -5
    endloop
  endfacet
  facet normal -0.94987 -0.308645 -0.0498429
    outer loop
      vertex 21.8658 5.61417 -5
      vertex 21.7205 5.57687 -2
      vertex 20.9897 8.31041 -5
    endloop
  endfacet
  facet normal -0.981068 -0.187141 -0.0498337
    outer loop
      vertex 22.397 2.8294 -5
      vertex 22.2482 2.8106 -2
      vertex 21.8658 5.61417 -5
    endloop
  endfacet
  facet normal 0.769554 -0.636633 -0.0498571
    outer loop
      vertex -16.4565 15.4537 -5
      vertex -16.3471 15.351 -2
      vertex -18.2636 13.2693 -5
    endloop
  endfacet
  facet normal 0.587072 -0.807999 -0.0498311
    outer loop
      vertex -12.0963 19.0607 -5
      vertex -12.0159 18.9341 -2
      vertex -14.3898 17.3943 -5
    endloop
  endfacet
  facet normal 0.903709 -0.425236 -0.0498496
    outer loop
      vertex -19.6512 10.8033 -2
      vertex -20.8502 8.25519 -2
      vertex -20.9897 8.31041 -5
    endloop
  endfacet
  facet normal -0.903709 -0.425236 -0.0498496
    outer loop
      vertex 20.9897 8.31041 -5
      vertex 20.8502 8.25519 -2
      vertex 19.6512 10.8033 -2
    endloop
  endfacet
  facet normal -0.769554 -0.636633 -0.0498571
    outer loop
      vertex 16.4565 15.4537 -5
      vertex 18.2636 13.2693 -5
      vertex 16.3471 15.351 -2
    endloop
  endfacet
  facet normal -0.481131 -0.875229 -0.049862
    outer loop
      vertex 9.61197 20.4265 -5
      vertex 12.0159 18.9341 -2
      vertex 9.5481 20.2907 -2
    endloop
  endfacet
  facet normal 0.94987 0.308645 -0.0498429
    outer loop
      vertex -21.7205 -5.57687 -2
      vertex -20.9897 -8.31041 -5
      vertex -21.8658 -5.61417 -5
    endloop
  endfacet
  facet normal 0.981066 0.18715 -0.0498432
    outer loop
      vertex -21.7205 -5.57687 -2
      vertex -21.8658 -5.61417 -5
      vertex -22.2482 -2.8106 -2
    endloop
  endfacet
  facet normal 0.125206 0.990877 -0.0498709
    outer loop
      vertex -1.40808 -22.3807 -2
      vertex -1.4175 -22.5305 -5
      vertex -4.23013 -22.1751 -5
    endloop
  endfacet
  facet normal 0.248369 0.967382 -0.0498524
    outer loop
      vertex -6.92971 -21.3274 -2
      vertex -4.23013 -22.1751 -5
      vertex -6.97606 -21.4701 -5
    endloop
  endfacet
  facet normal 0.949868 0.308652 -0.0498501
    outer loop
      vertex -20.8502 -8.25519 -2
      vertex -20.9897 -8.31041 -5
      vertex -21.7205 -5.57687 -2
    endloop
  endfacet
  facet normal 0.903709 0.425236 -0.0498496
    outer loop
      vertex -20.8502 -8.25519 -2
      vertex -19.6512 -10.8033 -2
      vertex -20.9897 -8.31041 -5
    endloop
  endfacet
  facet normal -0.125206 0.990877 -0.0498709
    outer loop
      vertex 4.23013 -22.1751 -5
      vertex 1.4175 -22.5305 -5
      vertex 1.40808 -22.3807 -2
    endloop
  endfacet
  facet normal -0.367668 0.928619 -0.0498632
    outer loop
      vertex 9.5481 -20.2907 -2
      vertex 9.61197 -20.4265 -5
      vertex 6.92971 -21.3274 -2
    endloop
  endfacet
  facet normal -0.903701 0.425254 -0.0498307
    outer loop
      vertex 20.9897 -8.31041 -5
      vertex 19.7826 -10.8756 -5
      vertex 19.6512 -10.8033 -2
    endloop
  endfacet
  facet normal -0.981066 0.18715 -0.0498432
    outer loop
      vertex 22.2482 -2.8106 -2
      vertex 21.8658 -5.61417 -5
      vertex 21.7205 -5.57687 -2
    endloop
  endfacet
  facet normal 0 0 -1
    outer loop
      vertex 22.2482 -2.8106 -2
      vertex 22.2482 2.8106 -2
      vertex 22.425 0 -2
    endloop
  endfacet
  facet normal 0 0 -1
    outer loop
      vertex 21.7205 -5.57687 -2
      vertex 22.2482 2.8106 -2
      vertex 22.2482 -2.8106 -2
    endloop
  endfacet
  facet normal 0 0 -1
    outer loop
      vertex 21.7205 -5.57687 -2
      vertex 21.7205 5.57687 -2
      vertex 22.2482 2.8106 -2
    endloop
  endfacet
  facet normal 0 0 -1
    outer loop
      vertex 20.8502 -8.25519 -2
      vertex 21.7205 5.57687 -2
      vertex 21.7205 -5.57687 -2
    endloop
  endfacet
  facet normal 0 0 -1
    outer loop
      vertex 20.8502 -8.25519 -2
      vertex 20.8502 8.25519 -2
      vertex 21.7205 5.57687 -2
    endloop
  endfacet
  facet normal 0 0 -1
    outer loop
      vertex 19.6512 -10.8033 -2
      vertex 20.8502 8.25519 -2
      vertex 20.8502 -8.25519 -2
    endloop
  endfacet
  facet normal 0 0 -1
    outer loop
      vertex 19.6512 -10.8033 -2
      vertex 19.6512 10.8033 -2
      vertex 20.8502 8.25519 -2
    endloop
  endfacet
  facet normal 0 0 -1
    outer loop
      vertex 18.1422 -13.1811 -2
      vertex 19.6512 10.8033 -2
      vertex 19.6512 -10.8033 -2
    endloop
  endfacet
  facet normal 0 0 -1
    outer loop
      vertex 18.1422 -13.1811 -2
      vertex 18.1422 13.1811 -2
      vertex 19.6512 10.8033 -2
    endloop
  endfacet
  facet normal 0 0 -1
    outer loop
      vertex 16.3471 -15.351 -2
      vertex 18.1422 13.1811 -2
      vertex 18.1422 -13.1811 -2
    endloop
  endfacet
  facet normal 0 0 -1
    outer loop
      vertex 16.3471 -15.351 -2
      vertex 16.3471 15.351 -2
      vertex 18.1422 13.1811 -2
    endloop
  endfacet
  facet normal 0 0 -1
    outer loop
      vertex 14.2942 -17.2788 -2
      vertex 16.3471 15.351 -2
      vertex 16.3471 -15.351 -2
    endloop
  endfacet
  facet normal 0 0 -1
    outer loop
      vertex 14.2942 -17.2788 -2
      vertex 14.2942 17.2788 -2
      vertex 16.3471 15.351 -2
    endloop
  endfacet
  facet normal 0 0 -1
    outer loop
      vertex 12.0159 -18.9341 -2
      vertex 14.2942 17.2788 -2
      vertex 14.2942 -17.2788 -2
    endloop
  endfacet
  facet normal 0 0 -1
    outer loop
      vertex 12.0159 -18.9341 -2
      vertex 12.0159 18.9341 -2
      vertex 14.2942 17.2788 -2
    endloop
  endfacet
  facet normal 0 0 -1
    outer loop
      vertex 9.5481 -20.2907 -2
      vertex 12.0159 18.9341 -2
      vertex 12.0159 -18.9341 -2
    endloop
  endfacet
  facet normal 0 0 -1
    outer loop
      vertex 9.5481 -20.2907 -2
      vertex 9.5481 20.2907 -2
      vertex 12.0159 18.9341 -2
    endloop
  endfacet
  facet normal 0 0 -1
    outer loop
      vertex 6.92971 -21.3274 -2
      vertex 9.5481 20.2907 -2
      vertex 9.5481 -20.2907 -2
    endloop
  endfacet
  facet normal 0 0 -1
    outer loop
      vertex 6.92971 -21.3274 -2
      vertex 6.92971 21.3274 -2
      vertex 9.5481 20.2907 -2
    endloop
  endfacet
  facet normal 0 0 -1
    outer loop
      vertex 4.20203 -22.0278 -2
      vertex 6.92971 21.3274 -2
      vertex 6.92971 -21.3274 -2
    endloop
  endfacet
  facet normal 0 0 -1
    outer loop
      vertex 4.20203 -22.0278 -2
      vertex 4.20203 22.0278 -2
      vertex 6.92971 21.3274 -2
    endloop
  endfacet
  facet normal 0 0 -1
    outer loop
      vertex 1.40808 -22.3807 -2
      vertex 4.20203 22.0278 -2
      vertex 4.20203 -22.0278 -2
    endloop
  endfacet
  facet normal 0 0 -1
    outer loop
      vertex 1.40808 -22.3807 -2
      vertex 1.40808 22.3807 -2
      vertex 4.20203 22.0278 -2
    endloop
  endfacet
  facet normal 0 0 -1
    outer loop
      vertex -1.40808 -22.3807 -2
      vertex 1.40808 22.3807 -2
      vertex 1.40808 -22.3807 -2
    endloop
  endfacet
  facet normal 0 0 -1
    outer loop
      vertex -1.40808 -22.3807 -2
      vertex -1.40808 22.3807 -2
      vertex 1.40808 22.3807 -2
    endloop
  endfacet
  facet normal 0 0 -1
    outer loop
      vertex -4.20203 -22.0278 -2
      vertex -1.40808 22.3807 -2
      vertex -1.40808 -22.3807 -2
    endloop
  endfacet
  facet normal 0 0 -1
    outer loop
      vertex -4.20203 -22.0278 -2
      vertex -4.20203 22.0278 -2
      vertex -1.40808 22.3807 -2
    endloop
  endfacet
  facet normal 0 0 -1
    outer loop
      vertex -6.92971 -21.3274 -2
      vertex -4.20203 22.0278 -2
      vertex -4.20203 -22.0278 -2
    endloop
  endfacet
  facet normal 0 0 -1
    outer loop
      vertex -6.92971 -21.3274 -2
      vertex -6.92971 21.3274 -2
      vertex -4.20203 22.0278 -2
    endloop
  endfacet
  facet normal 0 0 -1
    outer loop
      vertex -9.5481 -20.2907 -2
      vertex -6.92971 21.3274 -2
      vertex -6.92971 -21.3274 -2
    endloop
  endfacet
  facet normal 0 0 -1
    outer loop
      vertex -9.5481 -20.2907 -2
      vertex -9.5481 20.2907 -2
      vertex -6.92971 21.3274 -2
    endloop
  endfacet
  facet normal 0 0 -1
    outer loop
      vertex -12.0159 -18.9341 -2
      vertex -9.5481 20.2907 -2
      vertex -9.5481 -20.2907 -2
    endloop
  endfacet
  facet normal 0 0 -1
    outer loop
      vertex -12.0159 -18.9341 -2
      vertex -12.0159 18.9341 -2
      vertex -9.5481 20.2907 -2
    endloop
  endfacet
  facet normal 0 0 -1
    outer loop
      vertex -14.2942 -17.2788 -2
      vertex -12.0159 18.9341 -2
      vertex -12.0159 -18.9341 -2
    endloop
  endfacet
  facet normal 0 0 -1
    outer loop
      vertex -14.2942 -17.2788 -2
      vertex -14.2942 17.2788 -2
      vertex -12.0159 18.9341 -2
    endloop
  endfacet
  facet normal 0 0 -1
    outer loop
      vertex -16.3471 -15.351 -2
      vertex -14.2942 17.2788 -2
      vertex -14.2942 -17.2788 -2
    endloop
  endfacet
  facet normal 0 0 -1
    outer loop
      vertex -16.3471 -15.351 -2
      vertex -16.3471 15.351 -2
      vertex -14.2942 17.2788 -2
    endloop
  endfacet
  facet normal 0 0 -1
    outer loop
      vertex -18.1422 -13.1811 -2
      vertex -16.3471 15.351 -2
      vertex -16.3471 -15.351 -2
    endloop
  endfacet
  facet normal 0 0 -1
    outer loop
      vertex -18.1422 -13.1811 -2
      vertex -18.1422 13.1811 -2
      vertex -16.3471 15.351 -2
    endloop
  endfacet
  facet normal 0 0 -1
    outer loop
      vertex -19.6512 -10.8033 -2
      vertex -18.1422 13.1811 -2
      vertex -18.1422 -13.1811 -2
    endloop
  endfacet
  facet normal 0 0 -1
    outer loop
      vertex -19.6512 -10.8033 -2
      vertex -19.6512 10.8033 -2
      vertex -18.1422 13.1811 -2
    endloop
  endfacet
  facet normal 0 0 -1
    outer loop
      vertex -20.8502 -8.25519 -2
      vertex -19.6512 10.8033 -2
      vertex -19.6512 -10.8033 -2
    endloop
  endfacet
  facet normal 0 0 -1
    outer loop
      vertex -20.8502 -8.25519 -2
      vertex -20.8502 8.25519 -2
      vertex -19.6512 10.8033 -2
    endloop
  endfacet
  facet normal 0 0 -1
    outer loop
      vertex -21.7205 -5.57687 -2
      vertex -20.8502 8.25519 -2
      vertex -20.8502 -8.25519 -2
    endloop
  endfacet
  facet normal 0 0 -1
    outer loop
      vertex -21.7205 -5.57687 -2
      vertex -21.7205 5.57687 -2
      vertex -20.8502 8.25519 -2
    endloop
  endfacet
  facet normal 0 0 -1
    outer loop
      vertex -22.2482 -2.8106 -2
      vertex -21.7205 5.57687 -2
      vertex -21.7205 -5.57687 -2
    endloop
  endfacet
  facet normal 0 0 -1
    outer loop
      vertex -22.2482 -2.8106 -2
      vertex -22.2482 2.8106 -2
      vertex -21.7205 5.57687 -2
    endloop
  endfacet
  facet normal 0 -0 -1
    outer loop
      vertex -22.2482 2.8106 -2
      vertex -22.2482 -2.8106 -2
      vertex -22.425 0 -2
    endloop
  endfacet
  facet normal 0.58706 -0.808009 -0.049816
    outer loop
      vertex -12.0159 18.9341 -2
      vertex -14.2942 17.2788 -2
      vertex -14.3898 17.3943 -5
    endloop
  endfacet
  facet normal 0.248369 -0.967382 -0.0498524
    outer loop
      vertex -4.23013 22.1751 -5
      vertex -6.92971 21.3274 -2
      vertex -6.97606 21.4701 -5
    endloop
  endfacet
  facet normal 0.683696 -0.728062 -0.0498561
    outer loop
      vertex -14.2942 17.2788 -2
      vertex -16.3471 15.351 -2
      vertex -16.4565 15.4537 -5
    endloop
  endfacet
  facet normal 0.903701 -0.425254 -0.0498307
    outer loop
      vertex -19.7826 10.8756 -5
      vertex -19.6512 10.8033 -2
      vertex -20.9897 8.31041 -5
    endloop
  endfacet
  facet normal 0.94987 -0.308645 -0.0498429
    outer loop
      vertex -20.9897 8.31041 -5
      vertex -21.7205 5.57687 -2
      vertex -21.8658 5.61417 -5
    endloop
  endfacet
  facet normal 0.949868 -0.308652 -0.0498501
    outer loop
      vertex -20.9897 8.31041 -5
      vertex -20.8502 8.25519 -2
      vertex -21.7205 5.57687 -2
    endloop
  endfacet
  facet normal -0.949868 -0.308652 -0.0498501
    outer loop
      vertex 20.9897 8.31041 -5
      vertex 21.7205 5.57687 -2
      vertex 20.8502 8.25519 -2
    endloop
  endfacet
  facet normal -0.769555 -0.636632 -0.0498583
    outer loop
      vertex 18.2636 13.2693 -5
      vertex 18.1422 13.1811 -2
      vertex 16.3471 15.351 -2
    endloop
  endfacet
  facet normal -0.843293 -0.535139 -0.0498331
    outer loop
      vertex 19.7826 10.8756 -5
      vertex 19.6512 10.8033 -2
      vertex 18.2636 13.2693 -5
    endloop
  endfacet
  facet normal -0.587072 -0.807999 -0.0498311
    outer loop
      vertex 12.0963 19.0607 -5
      vertex 14.3898 17.3943 -5
      vertex 12.0159 18.9341 -2
    endloop
  endfacet
  facet normal -0.481163 -0.875214 -0.0498292
    outer loop
      vertex 12.0963 19.0607 -5
      vertex 12.0159 18.9341 -2
      vertex 9.61197 20.4265 -5
    endloop
  endfacet
  facet normal -0.248369 -0.967382 -0.0498524
    outer loop
      vertex 6.97606 21.4701 -5
      vertex 6.92971 21.3274 -2
      vertex 4.23013 22.1751 -5
    endloop
  endfacet
  facet normal -0.248398 -0.967376 -0.0498248
    outer loop
      vertex 4.23013 22.1751 -5
      vertex 6.92971 21.3274 -2
      vertex 4.20203 22.0278 -2
    endloop
  endfacet
  facet normal 0.587072 0.807999 -0.0498311
    outer loop
      vertex -12.0159 -18.9341 -2
      vertex -12.0963 -19.0607 -5
      vertex -14.3898 -17.3943 -5
    endloop
  endfacet
  facet normal 0.996787 0.0627026 -0.0498394
    outer loop
      vertex -22.425 0 -2
      vertex -22.2482 -2.8106 -2
      vertex -22.575 0 -5
    endloop
  endfacet
  facet normal 0.843293 0.535139 -0.0498331
    outer loop
      vertex -19.6512 -10.8033 -2
      vertex -18.2636 -13.2693 -5
      vertex -19.7826 -10.8756 -5
    endloop
  endfacet
  facet normal 0.769555 0.636632 -0.0498583
    outer loop
      vertex -18.1422 -13.1811 -2
      vertex -16.3471 -15.351 -2
      vertex -18.2636 -13.2693 -5
    endloop
  endfacet
  facet normal -0.367658 0.928624 -0.0498519
    outer loop
      vertex 9.61197 -20.4265 -5
      vertex 6.97606 -21.4701 -5
      vertex 6.92971 -21.3274 -2
    endloop
  endfacet
  facet normal -0.248398 0.967376 -0.0498248
    outer loop
      vertex 6.92971 -21.3274 -2
      vertex 4.23013 -22.1751 -5
      vertex 4.20203 -22.0278 -2
    endloop
  endfacet
  facet normal -0.769555 0.636632 -0.0498583
    outer loop
      vertex 18.1422 -13.1811 -2
      vertex 18.2636 -13.2693 -5
      vertex 16.3471 -15.351 -2
    endloop
  endfacet
  facet normal -0.843277 0.535161 -0.0498584
    outer loop
      vertex 19.6512 -10.8033 -2
      vertex 18.2636 -13.2693 -5
      vertex 18.1422 -13.1811 -2
    endloop
  endfacet
  facet normal -0.843293 0.535139 -0.0498331
    outer loop
      vertex 19.6512 -10.8033 -2
      vertex 19.7826 -10.8756 -5
      vertex 18.2636 -13.2693 -5
    endloop
  endfacet
  facet normal -0.996787 0.0627087 -0.0498336
    outer loop
      vertex 22.575 0 -5
      vertex 22.397 -2.8294 -5
      vertex 22.2482 -2.8106 -2
    endloop
  endfacet
  facet normal -0.996787 0.0627026 -0.0498394
    outer loop
      vertex 22.425 0 -2
      vertex 22.575 0 -5
      vertex 22.2482 -2.8106 -2
    endloop
  endfacet
  facet normal 0.981068 -0.187141 -0.0498337
    outer loop
      vertex -21.8658 5.61417 -5
      vertex -22.2482 2.8106 -2
      vertex -22.397 2.8294 -5
    endloop
  endfacet
  facet normal 0.996787 -0.0627087 -0.0498336
    outer loop
      vertex -22.397 2.8294 -5
      vertex -22.2482 2.8106 -2
      vertex -22.575 0 -5
    endloop
  endfacet
  facet normal 0.683667 -0.728092 -0.0498177
    outer loop
      vertex -14.3898 17.3943 -5
      vertex -14.2942 17.2788 -2
      vertex -16.4565 15.4537 -5
    endloop
  endfacet
  facet normal 0.125157 -0.990885 -0.0498248
    outer loop
      vertex -1.40808 22.3807 -2
      vertex -4.20203 22.0278 -2
      vertex -4.23013 22.1751 -5
    endloop
  endfacet
  facet normal 0.125206 -0.990877 -0.0498709
    outer loop
      vertex -1.4175 22.5305 -5
      vertex -1.40808 22.3807 -2
      vertex -4.23013 22.1751 -5
    endloop
  endfacet
  facet normal 0.367668 -0.928619 -0.0498632
    outer loop
      vertex -6.92971 21.3274 -2
      vertex -9.5481 20.2907 -2
      vertex -9.61197 20.4265 -5
    endloop
  endfacet
  facet normal 0.481163 -0.875214 -0.0498292
    outer loop
      vertex -9.61197 20.4265 -5
      vertex -12.0159 18.9341 -2
      vertex -12.0963 19.0607 -5
    endloop
  endfacet
  facet normal 0.843293 -0.535139 -0.0498331
    outer loop
      vertex -18.2636 13.2693 -5
      vertex -19.6512 10.8033 -2
      vertex -19.7826 10.8756 -5
    endloop
  endfacet
  facet normal 0.769555 -0.636632 -0.0498583
    outer loop
      vertex -16.3471 15.351 -2
      vertex -18.1422 13.1811 -2
      vertex -18.2636 13.2693 -5
    endloop
  endfacet
  facet normal -0.843277 -0.535161 -0.0498584
    outer loop
      vertex 18.2636 13.2693 -5
      vertex 19.6512 10.8033 -2
      vertex 18.1422 13.1811 -2
    endloop
  endfacet
  facet normal -0.125206 -0.990877 -0.0498709
    outer loop
      vertex 1.4175 22.5305 -5
      vertex 4.23013 22.1751 -5
      vertex 1.40808 22.3807 -2
    endloop
  endfacet
  facet normal -0.367658 -0.928624 -0.0498519
    outer loop
      vertex 6.97606 21.4701 -5
      vertex 9.61197 20.4265 -5
      vertex 6.92971 21.3274 -2
    endloop
  endfacet
  facet normal -0.367668 -0.928619 -0.0498632
    outer loop
      vertex 9.61197 20.4265 -5
      vertex 9.5481 20.2907 -2
      vertex 6.92971 21.3274 -2
    endloop
  endfacet
  facet normal -0.58706 -0.808009 -0.049816
    outer loop
      vertex 14.3898 17.3943 -5
      vertex 14.2942 17.2788 -2
      vertex 12.0159 18.9341 -2
    endloop
  endfacet
  facet normal 0.248398 0.967376 -0.0498248
    outer loop
      vertex -4.20203 -22.0278 -2
      vertex -4.23013 -22.1751 -5
      vertex -6.92971 -21.3274 -2
    endloop
  endfacet
  facet normal 0.125157 0.990885 -0.0498248
    outer loop
      vertex -4.20203 -22.0278 -2
      vertex -1.40808 -22.3807 -2
      vertex -4.23013 -22.1751 -5
    endloop
  endfacet
  facet normal 0.367658 0.928624 -0.0498519
    outer loop
      vertex -6.92971 -21.3274 -2
      vertex -6.97606 -21.4701 -5
      vertex -9.61197 -20.4265 -5
    endloop
  endfacet
  facet normal 0.683667 0.728092 -0.0498177
    outer loop
      vertex -14.2942 -17.2788 -2
      vertex -14.3898 -17.3943 -5
      vertex -16.4565 -15.4537 -5
    endloop
  endfacet
  facet normal 0.58706 0.808009 -0.049816
    outer loop
      vertex -14.2942 -17.2788 -2
      vertex -12.0159 -18.9341 -2
      vertex -14.3898 -17.3943 -5
    endloop
  endfacet
  facet normal -0.58706 0.808009 -0.049816
    outer loop
      vertex 14.2942 -17.2788 -2
      vertex 14.3898 -17.3943 -5
      vertex 12.0159 -18.9341 -2
    endloop
  endfacet
  facet normal -0.683667 0.728092 -0.0498177
    outer loop
      vertex 16.4565 -15.4537 -5
      vertex 14.3898 -17.3943 -5
      vertex 14.2942 -17.2788 -2
    endloop
  endfacet
  facet normal 0.981066 -0.18715 -0.0498432
    outer loop
      vertex -21.8658 5.61417 -5
      vertex -21.7205 5.57687 -2
      vertex -22.2482 2.8106 -2
    endloop
  endfacet
  facet normal 0.367658 -0.928624 -0.0498519
    outer loop
      vertex -6.97606 21.4701 -5
      vertex -6.92971 21.3274 -2
      vertex -9.61197 20.4265 -5
    endloop
  endfacet
  facet normal 0.248398 -0.967376 -0.0498248
    outer loop
      vertex -4.23013 22.1751 -5
      vertex -4.20203 22.0278 -2
      vertex -6.92971 21.3274 -2
    endloop
  endfacet
  facet normal 0.481131 -0.875229 -0.049862
    outer loop
      vertex -9.61197 20.4265 -5
      vertex -9.5481 20.2907 -2
      vertex -12.0159 18.9341 -2
    endloop
  endfacet
  facet normal 0.843277 -0.535161 -0.0498584
    outer loop
      vertex -18.2636 13.2693 -5
      vertex -18.1422 13.1811 -2
      vertex -19.6512 10.8033 -2
    endloop
  endfacet
  facet normal -0.125157 -0.990885 -0.0498248
    outer loop
      vertex 4.23013 22.1751 -5
      vertex 4.20203 22.0278 -2
      vertex 1.40808 22.3807 -2
    endloop
  endfacet
  facet normal 0.481131 0.875229 -0.049862
    outer loop
      vertex -9.5481 -20.2907 -2
      vertex -9.61197 -20.4265 -5
      vertex -12.0159 -18.9341 -2
    endloop
  endfacet
  facet normal 0.481163 0.875214 -0.0498292
    outer loop
      vertex -12.0159 -18.9341 -2
      vertex -9.61197 -20.4265 -5
      vertex -12.0963 -19.0607 -5
    endloop
  endfacet
  facet normal 0.683696 0.728062 -0.0498561
    outer loop
      vertex -16.3471 -15.351 -2
      vertex -14.2942 -17.2788 -2
      vertex -16.4565 -15.4537 -5
    endloop
  endfacet
  facet normal -0.481131 0.875229 -0.049862
    outer loop
      vertex 12.0159 -18.9341 -2
      vertex 9.61197 -20.4265 -5
      vertex 9.5481 -20.2907 -2
    endloop
  endfacet
  facet normal -0.481163 0.875214 -0.0498292
    outer loop
      vertex 12.0159 -18.9341 -2
      vertex 12.0963 -19.0607 -5
      vertex 9.61197 -20.4265 -5
    endloop
  endfacet
  facet normal 0.367668 0.928619 -0.0498632
    outer loop
      vertex -9.5481 -20.2907 -2
      vertex -6.92971 -21.3274 -2
      vertex -9.61197 -20.4265 -5
    endloop
  endfacet
  facet normal 0 0 1
    outer loop
      vertex 2.13013 5.61629 -1
      vertex -0.610794 0.867096 -1
      vertex -0.609558 0.52359 -1
    endloop
  endfacet
  facet normal 0 0 1
    outer loop
      vertex -0.150879 4.93044 -1
      vertex -0.614532 1.16907 -1
      vertex -0.610794 0.867096 -1
    endloop
  endfacet
  facet normal 0 0 1
    outer loop
      vertex -0.150879 4.93044 -1
      vertex -0.620758 1.42953 -1
      vertex -0.614532 1.16907 -1
    endloop
  endfacet
  facet normal 0 0 1
    outer loop
      vertex -0.150879 4.93044 -1
      vertex -0.629471 1.64847 -1
      vertex -0.620758 1.42953 -1
    endloop
  endfacet
  facet normal 0 0 1
    outer loop
      vertex -0.150879 4.93044 -1
      vertex -0.640671 1.8259 -1
      vertex -0.629471 1.64847 -1
    endloop
  endfacet
  facet normal 0 0 1
    outer loop
      vertex -0.150879 4.93044 -1
      vertex -0.654373 1.96181 -1
      vertex -0.640671 1.8259 -1
    endloop
  endfacet
  facet normal 0 0 1
    outer loop
      vertex -0.150879 4.93044 -1
      vertex -0.670547 2.0562 -1
      vertex -0.654373 1.96181 -1
    endloop
  endfacet
  facet normal 0 0 1
    outer loop
      vertex -0.150879 4.93044 -1
      vertex -0.692337 2.12726 -1
      vertex -0.670547 2.0562 -1
    endloop
  endfacet
  facet normal 0 0 1
    outer loop
      vertex -0.150879 4.93044 -1
      vertex -0.722855 2.19321 -1
      vertex -0.692337 2.12726 -1
    endloop
  endfacet
  facet normal 0 0 1
    outer loop
      vertex -0.150879 4.93044 -1
      vertex -0.762085 2.25403 -1
      vertex -0.722855 2.19321 -1
    endloop
  endfacet
  facet normal 0 0 1
    outer loop
      vertex -0.542938 4.64272 -1
      vertex -0.810043 2.30972 -1
      vertex -0.762085 2.25403 -1
    endloop
  endfacet
  facet normal 0 0 1
    outer loop
      vertex -0.542938 4.64272 -1
      vertex -0.86673 2.36031 -1
      vertex -0.810043 2.30972 -1
    endloop
  endfacet
  facet normal -0 0 1
    outer loop
      vertex -0.97403 4.39182 -1
      vertex -0.86673 2.36031 -1
      vertex -0.542938 4.64272 -1
    endloop
  endfacet
  facet normal 0 0 1
    outer loop
      vertex -0.86673 2.36031 -1
      vertex -0.97403 4.39182 -1
      vertex -0.932129 2.40576 -1
    endloop
  endfacet
  facet normal 0 0 1
    outer loop
      vertex -0.97403 4.39182 -1
      vertex -1.00626 2.44609 -1
      vertex -0.932129 2.40576 -1
    endloop
  endfacet
  facet normal 0 0 1
    outer loop
      vertex -0.97403 4.39182 -1
      vertex -1.09848 2.48117 -1
      vertex -1.00626 2.44609 -1
    endloop
  endfacet
  facet normal -0 0 1
    outer loop
      vertex -1.44414 4.17773 -1
      vertex -1.09848 2.48117 -1
      vertex -0.97403 4.39182 -1
    endloop
  endfacet
  facet normal 0 0 1
    outer loop
      vertex -1.09848 2.48117 -1
      vertex -1.44414 4.17773 -1
      vertex -1.21825 2.51085 -1
    endloop
  endfacet
  facet normal 0 0 1
    outer loop
      vertex -1.21825 2.51085 -1
      vertex -1.44414 4.17773 -1
      vertex -1.36557 2.53513 -1
    endloop
  endfacet
  facet normal 0 0 1
    outer loop
      vertex -1.44414 4.17773 -1
      vertex -1.54042 2.55402 -1
      vertex -1.36557 2.53513 -1
    endloop
  endfacet
  facet normal -0 0 1
    outer loop
      vertex -1.95328 4.00046 -1
      vertex -1.54042 2.55402 -1
      vertex -1.44414 4.17773 -1
    endloop
  endfacet
  facet normal 0 0 1
    outer loop
      vertex -1.54042 2.55402 -1
      vertex -1.95328 4.00046 -1
      vertex -1.74283 2.5675 -1
    endloop
  endfacet
  facet normal 0 0 1
    outer loop
      vertex -1.95328 4.00046 -1
      vertex -1.97276 2.57559 -1
      vertex -1.74283 2.5675 -1
    endloop
  endfacet
  facet normal -0 0 1
    outer loop
      vertex -2.50145 3.85999 -1
      vertex -1.97276 2.57559 -1
      vertex -1.95328 4.00046 -1
    endloop
  endfacet
  facet normal 0 0 1
    outer loop
      vertex -1.97276 2.57559 -1
      vertex -2.50145 3.85999 -1
      vertex -2.23026 2.57829 -1
    endloop
  endfacet
  facet normal 0 0 1
    outer loop
      vertex -2.23026 2.57829 -1
      vertex -2.50145 3.85999 -1
      vertex -2.50145 2.57829 -1
    endloop
  endfacet
  facet normal 0 0 1
    outer loop
      vertex 0.202133 5.25496 -1
      vertex 2.13013 5.61629 -1
      vertex 0.516129 5.61629 -1
    endloop
  endfacet
  facet normal 0 0 1
    outer loop
      vertex -0.150879 4.93044 -1
      vertex 2.13013 5.61629 -1
      vertex 0.202133 5.25496 -1
    endloop
  endfacet
  facet normal 0 0 1
    outer loop
      vertex -0.610794 0.867096 -1
      vertex 2.13013 5.61629 -1
      vertex -0.150879 4.93044 -1
    endloop
  endfacet
  facet normal 0 0 1
    outer loop
      vertex -0.762085 2.25403 -1
      vertex -0.150879 4.93044 -1
      vertex -0.542938 4.64272 -1
    endloop
  endfacet
  facet normal 0 0 1
    outer loop
      vertex 2.13013 5.61629 -1
      vertex -0.609558 0.52359 -1
      vertex 2.13013 -5.36249 -1
    endloop
  endfacet
  facet normal 0 0 1
    outer loop
      vertex 2.13013 -5.36249 -1
      vertex -0.609558 0.52359 -1
      vertex -0.609558 -5.36249 -1
    endloop
  endfacet
  facet normal 0 0 1
    outer loop
      vertex -2.50145 2.57829 0
      vertex -0.609558 0.52359 0
      vertex -0.610794 0.867096 0
    endloop
  endfacet
  facet normal 0 0 1
    outer loop
      vertex 2.13013 5.61629 0
      vertex 24.5 0 0
      vertex 24.3068 3.07066 0
    endloop
  endfacet
  facet normal -0 0 1
    outer loop
      vertex 2.13013 5.61629 0
      vertex 24.3068 3.07066 0
      vertex 23.7303 6.0929 0
    endloop
  endfacet
  facet normal 0 0 1
    outer loop
      vertex 24.5 0 0
      vertex 2.13013 5.61629 0
      vertex 2.13013 -5.36249 0
    endloop
  endfacet
  facet normal 0 0 1
    outer loop
      vertex 2.13013 5.61629 0
      vertex 23.7303 6.0929 0
      vertex 22.7795 9.01905 0
    endloop
  endfacet
  facet normal 0 0 1
    outer loop
      vertex 24.5 0 0
      vertex 2.13013 -5.36249 0
      vertex 24.3068 -3.07066 0
    endloop
  endfacet
  facet normal 0 0 1
    outer loop
      vertex 2.13013 5.61629 0
      vertex 22.7795 9.01905 0
      vertex 21.4695 11.803 0
    endloop
  endfacet
  facet normal 0 0 1
    outer loop
      vertex 24.3068 -3.07066 0
      vertex 2.13013 -5.36249 0
      vertex 23.7303 -6.0929 0
    endloop
  endfacet
  facet normal 0 0 1
    outer loop
      vertex 2.13013 5.61629 0
      vertex 21.4695 11.803 0
      vertex 19.8209 14.4007 0
    endloop
  endfacet
  facet normal 0 0 1
    outer loop
      vertex 23.7303 -6.0929 0
      vertex 2.13013 -5.36249 0
      vertex 22.7795 -9.01905 0
    endloop
  endfacet
  facet normal 0 0 1
    outer loop
      vertex 2.13013 5.61629 0
      vertex 19.8209 14.4007 0
      vertex 17.8597 16.7714 0
    endloop
  endfacet
  facet normal 0 0 1
    outer loop
      vertex 22.7795 -9.01905 0
      vertex 2.13013 -5.36249 0
      vertex 21.4695 -11.803 0
    endloop
  endfacet
  facet normal 0 0 1
    outer loop
      vertex 2.13013 5.61629 0
      vertex 17.8597 16.7714 0
      vertex 15.6169 18.8776 0
    endloop
  endfacet
  facet normal 0 0 1
    outer loop
      vertex 21.4695 -11.803 0
      vertex 2.13013 -5.36249 0
      vertex 19.8209 -14.4007 0
    endloop
  endfacet
  facet normal 0 0 1
    outer loop
      vertex 2.13013 5.61629 0
      vertex 15.6169 18.8776 0
      vertex 13.1278 20.686 0
    endloop
  endfacet
  facet normal 0 0 1
    outer loop
      vertex 19.8209 -14.4007 0
      vertex 2.13013 -5.36249 0
      vertex 17.8597 -16.7714 0
    endloop
  endfacet
  facet normal 0 0 1
    outer loop
      vertex 2.13013 5.61629 0
      vertex 13.1278 20.686 0
      vertex 10.4316 22.1683 0
    endloop
  endfacet
  facet normal 0 0 1
    outer loop
      vertex 17.8597 -16.7714 0
      vertex 2.13013 -5.36249 0
      vertex 15.6169 -18.8776 0
    endloop
  endfacet
  facet normal 0 0 1
    outer loop
      vertex 2.13013 5.61629 0
      vertex 10.4316 22.1683 0
      vertex 7.57092 23.3009 0
    endloop
  endfacet
  facet normal 0 0 1
    outer loop
      vertex 15.6169 -18.8776 0
      vertex 2.13013 -5.36249 0
      vertex 13.1278 -20.686 0
    endloop
  endfacet
  facet normal 0 0 1
    outer loop
      vertex 2.13013 5.61629 0
      vertex 7.57092 23.3009 0
      vertex 4.59084 24.066 0
    endloop
  endfacet
  facet normal 0 0 1
    outer loop
      vertex 13.1278 -20.686 0
      vertex 2.13013 -5.36249 0
      vertex 10.4316 -22.1683 0
    endloop
  endfacet
  facet normal 0 0 1
    outer loop
      vertex 10.4316 -22.1683 0
      vertex 2.13013 -5.36249 0
      vertex 7.57092 -23.3009 0
    endloop
  endfacet
  facet normal 0 0 1
    outer loop
      vertex 1.53837 24.4517 0
      vertex 2.13013 5.61629 0
      vertex 4.59084 24.066 0
    endloop
  endfacet
  facet normal 0 0 1
    outer loop
      vertex 1.53837 24.4517 0
      vertex 0.516129 5.61629 0
      vertex 2.13013 5.61629 0
    endloop
  endfacet
  facet normal -0 0 1
    outer loop
      vertex -1.53837 24.4517 0
      vertex 0.516129 5.61629 0
      vertex 1.53837 24.4517 0
    endloop
  endfacet
  facet normal -0 0 1
    outer loop
      vertex -4.59084 24.066 0
      vertex 0.516129 5.61629 0
      vertex -1.53837 24.4517 0
    endloop
  endfacet
  facet normal -0 0 1
    outer loop
      vertex -7.57092 23.3009 0
      vertex 0.516129 5.61629 0
      vertex -4.59084 24.066 0
    endloop
  endfacet
  facet normal -0 0 1
    outer loop
      vertex -10.4316 22.1683 0
      vertex 0.516129 5.61629 0
      vertex -7.57092 23.3009 0
    endloop
  endfacet
  facet normal 0 -0 1
    outer loop
      vertex -2.50145 3.85999 0
      vertex 0.516129 5.61629 0
      vertex -10.4316 22.1683 0
    endloop
  endfacet
  facet normal 0 -0 1
    outer loop
      vertex -1.95328 4.00046 0
      vertex 0.516129 5.61629 0
      vertex -2.50145 3.85999 0
    endloop
  endfacet
  facet normal 0 0 1
    outer loop
      vertex 0.516129 5.61629 0
      vertex -1.44414 4.17773 0
      vertex 0.202133 5.25496 0
    endloop
  endfacet
  facet normal 0 0 1
    outer loop
      vertex 0.202133 5.25496 0
      vertex -1.44414 4.17773 0
      vertex -0.150879 4.93044 0
    endloop
  endfacet
  facet normal 0 0 1
    outer loop
      vertex -0.150879 4.93044 0
      vertex -1.44414 4.17773 0
      vertex -0.542938 4.64272 0
    endloop
  endfacet
  facet normal 0 0 1
    outer loop
      vertex -0.542938 4.64272 0
      vertex -1.44414 4.17773 0
      vertex -0.97403 4.39182 0
    endloop
  endfacet
  facet normal 0 0 1
    outer loop
      vertex 7.57092 -23.3009 0
      vertex 2.13013 -5.36249 0
      vertex 4.59084 -24.066 0
    endloop
  endfacet
  facet normal 0 0 1
    outer loop
      vertex 2.13013 -5.36249 0
      vertex 1.53837 -24.4517 0
      vertex 4.59084 -24.066 0
    endloop
  endfacet
  facet normal -0 0 1
    outer loop
      vertex -0.609558 -5.36249 0
      vertex 1.53837 -24.4517 0
      vertex 2.13013 -5.36249 0
    endloop
  endfacet
  facet normal 0 0 1
    outer loop
      vertex -2.23026 2.57829 0
      vertex -0.610794 0.867096 0
      vertex -0.614532 1.16907 0
    endloop
  endfacet
  facet normal 0 0 1
    outer loop
      vertex -1.97276 2.57559 0
      vertex -0.614532 1.16907 0
      vertex -0.620758 1.42953 0
    endloop
  endfacet
  facet normal 0 0 1
    outer loop
      vertex -1.54042 2.55402 0
      vertex -0.620758 1.42953 0
      vertex -0.629471 1.64847 0
    endloop
  endfacet
  facet normal 0 0 1
    outer loop
      vertex -1.36557 2.53513 0
      vertex -0.629471 1.64847 0
      vertex -0.640671 1.8259 0
    endloop
  endfacet
  facet normal 0 0 1
    outer loop
      vertex -1.21825 2.51085 0
      vertex -0.640671 1.8259 0
      vertex -0.654373 1.96181 0
    endloop
  endfacet
  facet normal 0 0 1
    outer loop
      vertex -0.932129 2.40576 0
      vertex -0.654373 1.96181 0
      vertex -0.670547 2.0562 0
    endloop
  endfacet
  facet normal 0 0 1
    outer loop
      vertex -0.86673 2.36031 0
      vertex -0.670547 2.0562 0
      vertex -0.692337 2.12726 0
    endloop
  endfacet
  facet normal 0 0 1
    outer loop
      vertex -0.86673 2.36031 0
      vertex -0.692337 2.12726 0
      vertex -0.722855 2.19321 0
    endloop
  endfacet
  facet normal 0 0 1
    outer loop
      vertex -0.86673 2.36031 0
      vertex -0.722855 2.19321 0
      vertex -0.762085 2.25403 0
    endloop
  endfacet
  facet normal 0 0 1
    outer loop
      vertex -0.86673 2.36031 0
      vertex -0.762085 2.25403 0
      vertex -0.810043 2.30972 0
    endloop
  endfacet
  facet normal 0 0 1
    outer loop
      vertex -0.670547 2.0562 0
      vertex -0.86673 2.36031 0
      vertex -0.932129 2.40576 0
    endloop
  endfacet
  facet normal 0 0 1
    outer loop
      vertex -0.654373 1.96181 0
      vertex -0.932129 2.40576 0
      vertex -1.00626 2.44609 0
    endloop
  endfacet
  facet normal 0 0 1
    outer loop
      vertex -0.654373 1.96181 0
      vertex -1.00626 2.44609 0
      vertex -1.09848 2.48117 0
    endloop
  endfacet
  facet normal 0 0 1
    outer loop
      vertex -0.654373 1.96181 0
      vertex -1.09848 2.48117 0
      vertex -1.21825 2.51085 0
    endloop
  endfacet
  facet normal 0 0 1
    outer loop
      vertex -0.640671 1.8259 0
      vertex -1.21825 2.51085 0
      vertex -1.36557 2.53513 0
    endloop
  endfacet
  facet normal 0 0 1
    outer loop
      vertex -0.629471 1.64847 0
      vertex -1.36557 2.53513 0
      vertex -1.54042 2.55402 0
    endloop
  endfacet
  facet normal 0 0 1
    outer loop
      vertex -0.609558 -5.36249 0
      vertex -1.53837 -24.4517 0
      vertex 1.53837 -24.4517 0
    endloop
  endfacet
  facet normal 0 0 1
    outer loop
      vertex -0.620758 1.42953 0
      vertex -1.54042 2.55402 0
      vertex -1.74283 2.5675 0
    endloop
  endfacet
  facet normal 0 0 1
    outer loop
      vertex -0.620758 1.42953 0
      vertex -1.74283 2.5675 0
      vertex -1.97276 2.57559 0
    endloop
  endfacet
  facet normal 0 0 1
    outer loop
      vertex -0.614532 1.16907 0
      vertex -1.97276 2.57559 0
      vertex -2.23026 2.57829 0
    endloop
  endfacet
  facet normal 0 0 1
    outer loop
      vertex -0.610794 0.867096 0
      vertex -2.23026 2.57829 0
      vertex -2.50145 2.57829 0
    endloop
  endfacet
  facet normal 0 0 1
    outer loop
      vertex -0.609558 0.52359 0
      vertex -2.50145 2.57829 0
      vertex -0.609558 -5.36249 0
    endloop
  endfacet
  facet normal 0 0 1
    outer loop
      vertex -22.7795 -9.01905 0
      vertex -0.609558 -5.36249 0
      vertex -2.50145 2.57829 0
    endloop
  endfacet
  facet normal 0 -0 1
    outer loop
      vertex -1.44414 4.17773 0
      vertex 0.516129 5.61629 0
      vertex -1.95328 4.00046 0
    endloop
  endfacet
  facet normal 0 0 1
    outer loop
      vertex -0.609558 -5.36249 0
      vertex -4.59084 -24.066 0
      vertex -1.53837 -24.4517 0
    endloop
  endfacet
  facet normal -0 0 1
    outer loop
      vertex -13.1278 20.686 0
      vertex -2.50145 3.85999 0
      vertex -10.4316 22.1683 0
    endloop
  endfacet
  facet normal 0 0 1
    outer loop
      vertex -0.609558 -5.36249 0
      vertex -7.57092 -23.3009 0
      vertex -4.59084 -24.066 0
    endloop
  endfacet
  facet normal -0 0 1
    outer loop
      vertex -15.6169 18.8776 0
      vertex -2.50145 3.85999 0
      vertex -13.1278 20.686 0
    endloop
  endfacet
  facet normal 0 0 1
    outer loop
      vertex -0.609558 -5.36249 0
      vertex -10.4316 -22.1683 0
      vertex -7.57092 -23.3009 0
    endloop
  endfacet
  facet normal -0 0 1
    outer loop
      vertex -17.8597 16.7714 0
      vertex -2.50145 3.85999 0
      vertex -15.6169 18.8776 0
    endloop
  endfacet
  facet normal 0 0 1
    outer loop
      vertex -0.609558 -5.36249 0
      vertex -13.1278 -20.686 0
      vertex -10.4316 -22.1683 0
    endloop
  endfacet
  facet normal -0 0 1
    outer loop
      vertex -19.8209 14.4007 0
      vertex -2.50145 3.85999 0
      vertex -17.8597 16.7714 0
    endloop
  endfacet
  facet normal 0 0 1
    outer loop
      vertex -0.609558 -5.36249 0
      vertex -15.6169 -18.8776 0
      vertex -13.1278 -20.686 0
    endloop
  endfacet
  facet normal -0 0 1
    outer loop
      vertex -21.4695 11.803 0
      vertex -2.50145 3.85999 0
      vertex -19.8209 14.4007 0
    endloop
  endfacet
  facet normal 0 0 1
    outer loop
      vertex -0.609558 -5.36249 0
      vertex -17.8597 -16.7714 0
      vertex -15.6169 -18.8776 0
    endloop
  endfacet
  facet normal -0 0 1
    outer loop
      vertex -22.7795 9.01905 0
      vertex -2.50145 3.85999 0
      vertex -21.4695 11.803 0
    endloop
  endfacet
  facet normal 0 0 1
    outer loop
      vertex -0.609558 -5.36249 0
      vertex -19.8209 -14.4007 0
      vertex -17.8597 -16.7714 0
    endloop
  endfacet
  facet normal -0 0 1
    outer loop
      vertex -23.7303 6.0929 0
      vertex -2.50145 3.85999 0
      vertex -22.7795 9.01905 0
    endloop
  endfacet
  facet normal 0 0 1
    outer loop
      vertex -0.609558 -5.36249 0
      vertex -21.4695 -11.803 0
      vertex -19.8209 -14.4007 0
    endloop
  endfacet
  facet normal 0 0 1
    outer loop
      vertex -2.50145 3.85999 0
      vertex -23.7303 6.0929 0
      vertex -2.50145 2.57829 0
    endloop
  endfacet
  facet normal 0 0 1
    outer loop
      vertex -0.609558 -5.36249 0
      vertex -22.7795 -9.01905 0
      vertex -21.4695 -11.803 0
    endloop
  endfacet
  facet normal -0 0 1
    outer loop
      vertex -24.3068 3.07066 0
      vertex -2.50145 2.57829 0
      vertex -23.7303 6.0929 0
    endloop
  endfacet
  facet normal 0 0 1
    outer loop
      vertex -2.50145 2.57829 0
      vertex -23.7303 -6.0929 0
      vertex -22.7795 -9.01905 0
    endloop
  endfacet
  facet normal 0 0 1
    outer loop
      vertex -24.5 0 0
      vertex -2.50145 2.57829 0
      vertex -24.3068 3.07066 0
    endloop
  endfacet
  facet normal 0 0 1
    outer loop
      vertex -2.50145 2.57829 0
      vertex -24.3068 -3.07066 0
      vertex -23.7303 -6.0929 0
    endloop
  endfacet
  facet normal 0 0 1
    outer loop
      vertex -2.50145 2.57829 0
      vertex -24.5 0 0
      vertex -24.3068 -3.07066 0
    endloop
  endfacet
  facet normal 0 -1 0
    outer loop
      vertex 0.516129 5.61629 -1
      vertex 2.13013 5.61629 0
      vertex 0.516129 5.61629 0
    endloop
  endfacet
  facet normal 0 -1 -0
    outer loop
      vertex 2.13013 5.61629 0
      vertex 0.516129 5.61629 -1
      vertex 2.13013 5.61629 -1
    endloop
  endfacet
  facet normal 0.754816 -0.655936 0
    outer loop
      vertex 0.202133 5.25496 0
      vertex 0.516129 5.61629 -1
      vertex 0.516129 5.61629 0
    endloop
  endfacet
  facet normal 0.754816 -0.655936 0
    outer loop
      vertex 0.516129 5.61629 -1
      vertex 0.202133 5.25496 0
      vertex 0.202133 5.25496 -1
    endloop
  endfacet
  facet normal 0.676773 -0.736192 0
    outer loop
      vertex -0.150879 4.93044 -1
      vertex 0.202133 5.25496 0
      vertex -0.150879 4.93044 0
    endloop
  endfacet
  facet normal 0.676773 -0.736192 0
    outer loop
      vertex 0.202133 5.25496 0
      vertex -0.150879 4.93044 -1
      vertex 0.202133 5.25496 -1
    endloop
  endfacet
  facet normal 0.591645 -0.806199 0
    outer loop
      vertex -0.542938 4.64272 -1
      vertex -0.150879 4.93044 0
      vertex -0.542938 4.64272 0
    endloop
  endfacet
  facet normal 0.591645 -0.806199 0
    outer loop
      vertex -0.150879 4.93044 0
      vertex -0.542938 4.64272 -1
      vertex -0.150879 4.93044 -1
    endloop
  endfacet
  facet normal 0.503018 -0.864276 0
    outer loop
      vertex -0.97403 4.39182 -1
      vertex -0.542938 4.64272 0
      vertex -0.97403 4.39182 0
    endloop
  endfacet
  facet normal 0.503018 -0.864276 0
    outer loop
      vertex -0.542938 4.64272 0
      vertex -0.97403 4.39182 -1
      vertex -0.542938 4.64272 -1
    endloop
  endfacet
  facet normal 0.41445 -0.910072 0
    outer loop
      vertex -1.44414 4.17773 -1
      vertex -0.97403 4.39182 0
      vertex -1.44414 4.17773 0
    endloop
  endfacet
  facet normal 0.41445 -0.910072 0
    outer loop
      vertex -0.97403 4.39182 0
      vertex -1.44414 4.17773 -1
      vertex -0.97403 4.39182 -1
    endloop
  endfacet
  facet normal 0.328815 -0.944394 0
    outer loop
      vertex -1.95328 4.00046 -1
      vertex -1.44414 4.17773 0
      vertex -1.95328 4.00046 0
    endloop
  endfacet
  facet normal 0.328815 -0.944394 0
    outer loop
      vertex -1.44414 4.17773 0
      vertex -1.95328 4.00046 -1
      vertex -1.44414 4.17773 -1
    endloop
  endfacet
  facet normal 0.248232 -0.968701 0
    outer loop
      vertex -2.50145 3.85999 -1
      vertex -1.95328 4.00046 0
      vertex -2.50145 3.85999 0
    endloop
  endfacet
  facet normal 0.248232 -0.968701 0
    outer loop
      vertex -1.95328 4.00046 0
      vertex -2.50145 3.85999 -1
      vertex -1.95328 4.00046 -1
    endloop
  endfacet
  facet normal 1 -0 0
    outer loop
      vertex -2.50145 2.57829 0
      vertex -2.50145 3.85999 -1
      vertex -2.50145 3.85999 0
    endloop
  endfacet
  facet normal 1 0 0
    outer loop
      vertex -2.50145 3.85999 -1
      vertex -2.50145 2.57829 0
      vertex -2.50145 2.57829 -1
    endloop
  endfacet
  facet normal 0 1 -0
    outer loop
      vertex -2.23026 2.57829 -1
      vertex -2.50145 2.57829 0
      vertex -2.23026 2.57829 0
    endloop
  endfacet
  facet normal 0 1 0
    outer loop
      vertex -2.50145 2.57829 0
      vertex -2.23026 2.57829 -1
      vertex -2.50145 2.57829 -1
    endloop
  endfacet
  facet normal 0.0104849 0.999945 -0
    outer loop
      vertex -1.97276 2.57559 -1
      vertex -2.23026 2.57829 0
      vertex -1.97276 2.57559 0
    endloop
  endfacet
  facet normal 0.0104849 0.999945 0
    outer loop
      vertex -2.23026 2.57829 0
      vertex -1.97276 2.57559 -1
      vertex -2.23026 2.57829 -1
    endloop
  endfacet
  facet normal 0.0351629 0.999382 -0
    outer loop
      vertex -1.74283 2.5675 -1
      vertex -1.97276 2.57559 0
      vertex -1.74283 2.5675 0
    endloop
  endfacet
  facet normal 0.0351629 0.999382 0
    outer loop
      vertex -1.97276 2.57559 0
      vertex -1.74283 2.5675 -1
      vertex -1.97276 2.57559 -1
    endloop
  endfacet
  facet normal 0.0664503 0.99779 -0
    outer loop
      vertex -1.54042 2.55402 -1
      vertex -1.74283 2.5675 0
      vertex -1.54042 2.55402 0
    endloop
  endfacet
  facet normal 0.0664503 0.99779 0
    outer loop
      vertex -1.74283 2.5675 0
      vertex -1.54042 2.55402 -1
      vertex -1.74283 2.5675 -1
    endloop
  endfacet
  facet normal 0.10741 0.994215 -0
    outer loop
      vertex -1.36557 2.53513 -1
      vertex -1.54042 2.55402 0
      vertex -1.36557 2.53513 0
    endloop
  endfacet
  facet normal 0.10741 0.994215 0
    outer loop
      vertex -1.54042 2.55402 0
      vertex -1.36557 2.53513 -1
      vertex -1.54042 2.55402 -1
    endloop
  endfacet
  facet normal 0.162618 0.986689 -0
    outer loop
      vertex -1.21825 2.51085 -1
      vertex -1.36557 2.53513 0
      vertex -1.21825 2.51085 0
    endloop
  endfacet
  facet normal 0.162618 0.986689 0
    outer loop
      vertex -1.36557 2.53513 0
      vertex -1.21825 2.51085 -1
      vertex -1.36557 2.53513 -1
    endloop
  endfacet
  facet normal 0.240533 0.970641 -0
    outer loop
      vertex -1.09848 2.48117 -1
      vertex -1.21825 2.51085 0
      vertex -1.09848 2.48117 0
    endloop
  endfacet
  facet normal 0.240533 0.970641 0
    outer loop
      vertex -1.21825 2.51085 0
      vertex -1.09848 2.48117 -1
      vertex -1.21825 2.51085 -1
    endloop
  endfacet
  facet normal 0.35554 0.934661 -0
    outer loop
      vertex -1.00626 2.44609 -1
      vertex -1.09848 2.48117 0
      vertex -1.00626 2.44609 0
    endloop
  endfacet
  facet normal 0.35554 0.934661 0
    outer loop
      vertex -1.09848 2.48117 0
      vertex -1.00626 2.44609 -1
      vertex -1.09848 2.48117 -1
    endloop
  endfacet
  facet normal 0.477892 0.878419 -0
    outer loop
      vertex -0.932129 2.40576 -1
      vertex -1.00626 2.44609 0
      vertex -0.932129 2.40576 0
    endloop
  endfacet
  facet normal 0.477892 0.878419 0
    outer loop
      vertex -1.00626 2.44609 0
      vertex -0.932129 2.40576 -1
      vertex -1.00626 2.44609 -1
    endloop
  endfacet
  facet normal 0.570684 0.82117 -0
    outer loop
      vertex -0.86673 2.36031 -1
      vertex -0.932129 2.40576 0
      vertex -0.86673 2.36031 0
    endloop
  endfacet
  facet normal 0.570684 0.82117 0
    outer loop
      vertex -0.932129 2.40576 0
      vertex -0.86673 2.36031 -1
      vertex -0.932129 2.40576 -1
    endloop
  endfacet
  facet normal 0.665844 0.746091 -0
    outer loop
      vertex -0.810043 2.30972 -1
      vertex -0.86673 2.36031 0
      vertex -0.810043 2.30972 0
    endloop
  endfacet
  facet normal 0.665844 0.746091 0
    outer loop
      vertex -0.86673 2.36031 0
      vertex -0.810043 2.30972 -1
      vertex -0.86673 2.36031 -1
    endloop
  endfacet
  facet normal 0.75775 0.652544 0
    outer loop
      vertex -0.762085 2.25403 0
      vertex -0.810043 2.30972 -1
      vertex -0.810043 2.30972 0
    endloop
  endfacet
  facet normal 0.75775 0.652544 0
    outer loop
      vertex -0.810043 2.30972 -1
      vertex -0.762085 2.25403 0
      vertex -0.762085 2.25403 -1
    endloop
  endfacet
  facet normal 0.840351 0.542042 0
    outer loop
      vertex -0.722855 2.19321 0
      vertex -0.762085 2.25403 -1
      vertex -0.762085 2.25403 0
    endloop
  endfacet
  facet normal 0.840351 0.542042 0
    outer loop
      vertex -0.762085 2.25403 -1
      vertex -0.722855 2.19321 0
      vertex -0.722855 2.19321 -1
    endloop
  endfacet
  facet normal 0.907542 0.41996 0
    outer loop
      vertex -0.692337 2.12726 0
      vertex -0.722855 2.19321 -1
      vertex -0.722855 2.19321 0
    endloop
  endfacet
  facet normal 0.907542 0.41996 0
    outer loop
      vertex -0.722855 2.19321 -1
      vertex -0.692337 2.12726 0
      vertex -0.692337 2.12726 -1
    endloop
  endfacet
  facet normal 0.956061 0.293169 0
    outer loop
      vertex -0.670547 2.0562 0
      vertex -0.692337 2.12726 -1
      vertex -0.692337 2.12726 0
    endloop
  endfacet
  facet normal 0.956061 0.293169 0
    outer loop
      vertex -0.692337 2.12726 -1
      vertex -0.670547 2.0562 0
      vertex -0.670547 2.0562 -1
    endloop
  endfacet
  facet normal 0.985635 0.168891 0
    outer loop
      vertex -0.654373 1.96181 0
      vertex -0.670547 2.0562 -1
      vertex -0.670547 2.0562 0
    endloop
  endfacet
  facet normal 0.985635 0.168891 0
    outer loop
      vertex -0.670547 2.0562 -1
      vertex -0.654373 1.96181 0
      vertex -0.654373 1.96181 -1
    endloop
  endfacet
  facet normal 0.994956 0.100308 0
    outer loop
      vertex -0.640671 1.8259 0
      vertex -0.654373 1.96181 -1
      vertex -0.654373 1.96181 0
    endloop
  endfacet
  facet normal 0.994956 0.100308 0
    outer loop
      vertex -0.654373 1.96181 -1
      vertex -0.640671 1.8259 0
      vertex -0.640671 1.8259 -1
    endloop
  endfacet
  facet normal 0.998014 0.0629981 0
    outer loop
      vertex -0.629471 1.64847 0
      vertex -0.640671 1.8259 -1
      vertex -0.640671 1.8259 0
    endloop
  endfacet
  facet normal 0.998014 0.0629981 0
    outer loop
      vertex -0.640671 1.8259 -1
      vertex -0.629471 1.64847 0
      vertex -0.629471 1.64847 -1
    endloop
  endfacet
  facet normal 0.999209 0.0397648 0
    outer loop
      vertex -0.620758 1.42953 0
      vertex -0.629471 1.64847 -1
      vertex -0.629471 1.64847 0
    endloop
  endfacet
  facet normal 0.999209 0.0397648 0
    outer loop
      vertex -0.629471 1.64847 -1
      vertex -0.620758 1.42953 0
      vertex -0.620758 1.42953 -1
    endloop
  endfacet
  facet normal 0.999714 0.023897 0
    outer loop
      vertex -0.614532 1.16907 0
      vertex -0.620758 1.42953 -1
      vertex -0.620758 1.42953 0
    endloop
  endfacet
  facet normal 0.999714 0.023897 0
    outer loop
      vertex -0.620758 1.42953 -1
      vertex -0.614532 1.16907 0
      vertex -0.614532 1.16907 -1
    endloop
  endfacet
  facet normal 0.999923 0.0123776 0
    outer loop
      vertex -0.610794 0.867096 0
      vertex -0.614532 1.16907 -1
      vertex -0.614532 1.16907 0
    endloop
  endfacet
  facet normal 0.999923 0.0123776 0
    outer loop
      vertex -0.614532 1.16907 -1
      vertex -0.610794 0.867096 0
      vertex -0.610794 0.867096 -1
    endloop
  endfacet
  facet normal 0.999994 0.00359817 0
    outer loop
      vertex -0.609558 0.52359 0
      vertex -0.610794 0.867096 -1
      vertex -0.610794 0.867096 0
    endloop
  endfacet
  facet normal 0.999994 0.00359817 0
    outer loop
      vertex -0.610794 0.867096 -1
      vertex -0.609558 0.52359 0
      vertex -0.609558 0.52359 -1
    endloop
  endfacet
  facet normal 1 -0 0
    outer loop
      vertex -0.609558 -5.36249 0
      vertex -0.609558 0.52359 -1
      vertex -0.609558 0.52359 0
    endloop
  endfacet
  facet normal 1 0 0
    outer loop
      vertex -0.609558 0.52359 -1
      vertex -0.609558 -5.36249 0
      vertex -0.609558 -5.36249 -1
    endloop
  endfacet
  facet normal 0 1 -0
    outer loop
      vertex 2.13013 -5.36249 -1
      vertex -0.609558 -5.36249 0
      vertex 2.13013 -5.36249 0
    endloop
  endfacet
  facet normal 0 1 0
    outer loop
      vertex -0.609558 -5.36249 0
      vertex 2.13013 -5.36249 -1
      vertex -0.609558 -5.36249 -1
    endloop
  endfacet
  facet normal -1 0 0
    outer loop
      vertex 2.13013 -5.36249 -1
      vertex 2.13013 5.61629 0
      vertex 2.13013 5.61629 -1
    endloop
  endfacet
  facet normal -1 -0 0
    outer loop
      vertex 2.13013 5.61629 0
      vertex 2.13013 -5.36249 -1
      vertex 2.13013 -5.36249 0
    endloop
  endfacet
  facet normal 0.998027 0.0627939 0
    outer loop
      vertex 24.5 0 0
      vertex 24.3068 3.07066 -5
      vertex 24.3068 3.07066 0
    endloop
  endfacet
  facet normal 0.998027 0.0627939 0
    outer loop
      vertex 24.3068 3.07066 -5
      vertex 24.5 0 0
      vertex 24.5 0 -5
    endloop
  endfacet
  facet normal -0.998027 0.0627939 0
    outer loop
      vertex -24.5 0 -5
      vertex -24.3068 3.07066 0
      vertex -24.3068 3.07066 -5
    endloop
  endfacet
  facet normal -0.998027 0.0627939 0
    outer loop
      vertex -24.3068 3.07066 0
      vertex -24.5 0 -5
      vertex -24.5 0 0
    endloop
  endfacet
  facet normal 0 1 -0
    outer loop
      vertex 1.53837 24.4517 -5
      vertex -1.53837 24.4517 0
      vertex 1.53837 24.4517 0
    endloop
  endfacet
  facet normal 0 1 0
    outer loop
      vertex -1.53837 24.4517 0
      vertex 1.53837 24.4517 -5
      vertex -1.53837 24.4517 -5
    endloop
  endfacet
  facet normal 0 -1 0
    outer loop
      vertex -1.53837 -24.4517 -5
      vertex 1.53837 -24.4517 0
      vertex -1.53837 -24.4517 0
    endloop
  endfacet
  facet normal 0 -1 -0
    outer loop
      vertex 1.53837 -24.4517 0
      vertex -1.53837 -24.4517 -5
      vertex 1.53837 -24.4517 -5
    endloop
  endfacet
  facet normal 0.684559 0.728957 -0
    outer loop
      vertex 17.8597 16.7714 -5
      vertex 15.6169 18.8776 0
      vertex 17.8597 16.7714 0
    endloop
  endfacet
  facet normal 0.684559 0.728957 0
    outer loop
      vertex 15.6169 18.8776 0
      vertex 17.8597 16.7714 -5
      vertex 15.6169 18.8776 -5
    endloop
  endfacet
  facet normal -0.684559 0.728957 0
    outer loop
      vertex -15.6169 18.8776 -5
      vertex -17.8597 16.7714 0
      vertex -15.6169 18.8776 0
    endloop
  endfacet
  facet normal -0.684559 0.728957 0
    outer loop
      vertex -17.8597 16.7714 0
      vertex -15.6169 18.8776 -5
      vertex -17.8597 16.7714 -5
    endloop
  endfacet
  facet normal -0.368118 0.929779 0
    outer loop
      vertex -7.57092 23.3009 -5
      vertex -10.4316 22.1683 0
      vertex -7.57092 23.3009 0
    endloop
  endfacet
  facet normal -0.368118 0.929779 0
    outer loop
      vertex -10.4316 22.1683 0
      vertex -7.57092 23.3009 -5
      vertex -10.4316 22.1683 -5
    endloop
  endfacet
  facet normal 0.90483 0.425772 0
    outer loop
      vertex 22.7795 9.01905 0
      vertex 21.4695 11.803 -5
      vertex 21.4695 11.803 0
    endloop
  endfacet
  facet normal 0.90483 0.425772 0
    outer loop
      vertex 21.4695 11.803 -5
      vertex 22.7795 9.01905 0
      vertex 22.7795 9.01905 -5
    endloop
  endfacet
  facet normal 0.844321 0.535838 0
    outer loop
      vertex 21.4695 11.803 0
      vertex 19.8209 14.4007 -5
      vertex 19.8209 14.4007 0
    endloop
  endfacet
  facet normal 0.844321 0.535838 0
    outer loop
      vertex 19.8209 14.4007 -5
      vertex 21.4695 11.803 0
      vertex 21.4695 11.803 -5
    endloop
  endfacet
  facet normal 0.368118 0.929779 -0
    outer loop
      vertex 10.4316 22.1683 -5
      vertex 7.57092 23.3009 0
      vertex 10.4316 22.1683 0
    endloop
  endfacet
  facet normal 0.368118 0.929779 0
    outer loop
      vertex 7.57092 23.3009 0
      vertex 10.4316 22.1683 -5
      vertex 7.57092 23.3009 -5
    endloop
  endfacet
  facet normal 0.481767 0.8763 -0
    outer loop
      vertex 13.1278 20.686 -5
      vertex 10.4316 22.1683 0
      vertex 13.1278 20.686 0
    endloop
  endfacet
  facet normal 0.481767 0.8763 0
    outer loop
      vertex 10.4316 22.1683 0
      vertex 13.1278 20.686 -5
      vertex 10.4316 22.1683 -5
    endloop
  endfacet
  facet normal -0.844321 0.535838 0
    outer loop
      vertex -21.4695 11.803 -5
      vertex -19.8209 14.4007 0
      vertex -19.8209 14.4007 -5
    endloop
  endfacet
  facet normal -0.844321 0.535838 0
    outer loop
      vertex -19.8209 14.4007 0
      vertex -21.4695 11.803 -5
      vertex -21.4695 11.803 0
    endloop
  endfacet
  facet normal -0.770515 0.637421 0
    outer loop
      vertex -19.8209 14.4007 -5
      vertex -17.8597 16.7714 0
      vertex -17.8597 16.7714 -5
    endloop
  endfacet
  facet normal -0.770515 0.637421 0
    outer loop
      vertex -17.8597 16.7714 0
      vertex -19.8209 14.4007 -5
      vertex -19.8209 14.4007 0
    endloop
  endfacet
  facet normal -0.951053 0.309028 0
    outer loop
      vertex -23.7303 6.0929 -5
      vertex -22.7795 9.01905 0
      vertex -22.7795 9.01905 -5
    endloop
  endfacet
  facet normal -0.951053 0.309028 0
    outer loop
      vertex -22.7795 9.01905 0
      vertex -23.7303 6.0929 -5
      vertex -23.7303 6.0929 0
    endloop
  endfacet
  facet normal -0.587777 0.809023 0
    outer loop
      vertex -13.1278 20.686 -5
      vertex -15.6169 18.8776 0
      vertex -13.1278 20.686 0
    endloop
  endfacet
  facet normal -0.587777 0.809023 0
    outer loop
      vertex -15.6169 18.8776 0
      vertex -13.1278 20.686 -5
      vertex -15.6169 18.8776 -5
    endloop
  endfacet
  facet normal -0.248673 0.968587 0
    outer loop
      vertex -4.59084 24.066 -5
      vertex -7.57092 23.3009 0
      vertex -4.59084 24.066 0
    endloop
  endfacet
  facet normal -0.248673 0.968587 0
    outer loop
      vertex -7.57092 23.3009 0
      vertex -4.59084 24.066 -5
      vertex -7.57092 23.3009 -5
    endloop
  endfacet
  facet normal 0.951053 0.309028 0
    outer loop
      vertex 23.7303 6.0929 0
      vertex 22.7795 9.01905 -5
      vertex 22.7795 9.01905 0
    endloop
  endfacet
  facet normal 0.951053 0.309028 0
    outer loop
      vertex 22.7795 9.01905 -5
      vertex 23.7303 6.0929 0
      vertex 23.7303 6.0929 -5
    endloop
  endfacet
  facet normal 0.982289 0.187374 0
    outer loop
      vertex 24.3068 3.07066 0
      vertex 23.7303 6.0929 -5
      vertex 23.7303 6.0929 0
    endloop
  endfacet
  facet normal 0.982289 0.187374 0
    outer loop
      vertex 23.7303 6.0929 -5
      vertex 24.3068 3.07066 0
      vertex 24.3068 3.07066 -5
    endloop
  endfacet
  facet normal 0.770515 0.637421 0
    outer loop
      vertex 19.8209 14.4007 0
      vertex 17.8597 16.7714 -5
      vertex 17.8597 16.7714 0
    endloop
  endfacet
  facet normal 0.770515 0.637421 0
    outer loop
      vertex 17.8597 16.7714 -5
      vertex 19.8209 14.4007 0
      vertex 19.8209 14.4007 -5
    endloop
  endfacet
  facet normal 0.248673 0.968587 -0
    outer loop
      vertex 7.57092 23.3009 -5
      vertex 4.59084 24.066 0
      vertex 7.57092 23.3009 0
    endloop
  endfacet
  facet normal 0.248673 0.968587 0
    outer loop
      vertex 4.59084 24.066 0
      vertex 7.57092 23.3009 -5
      vertex 4.59084 24.066 -5
    endloop
  endfacet
  facet normal 0.12536 0.992111 -0
    outer loop
      vertex 4.59084 24.066 -5
      vertex 1.53837 24.4517 0
      vertex 4.59084 24.066 0
    endloop
  endfacet
  facet normal 0.12536 0.992111 0
    outer loop
      vertex 1.53837 24.4517 0
      vertex 4.59084 24.066 -5
      vertex 1.53837 24.4517 -5
    endloop
  endfacet
  facet normal 0.587777 0.809023 -0
    outer loop
      vertex 15.6169 18.8776 -5
      vertex 13.1278 20.686 0
      vertex 15.6169 18.8776 0
    endloop
  endfacet
  facet normal 0.587777 0.809023 0
    outer loop
      vertex 13.1278 20.686 0
      vertex 15.6169 18.8776 -5
      vertex 13.1278 20.686 -5
    endloop
  endfacet
  facet normal -0.90483 0.425772 0
    outer loop
      vertex -22.7795 9.01905 -5
      vertex -21.4695 11.803 0
      vertex -21.4695 11.803 -5
    endloop
  endfacet
  facet normal -0.90483 0.425772 0
    outer loop
      vertex -21.4695 11.803 0
      vertex -22.7795 9.01905 -5
      vertex -22.7795 9.01905 0
    endloop
  endfacet
  facet normal -0.982289 0.187374 0
    outer loop
      vertex -24.3068 3.07066 -5
      vertex -23.7303 6.0929 0
      vertex -23.7303 6.0929 -5
    endloop
  endfacet
  facet normal -0.982289 0.187374 0
    outer loop
      vertex -23.7303 6.0929 0
      vertex -24.3068 3.07066 -5
      vertex -24.3068 3.07066 0
    endloop
  endfacet
  facet normal -0.481767 0.8763 0
    outer loop
      vertex -10.4316 22.1683 -5
      vertex -13.1278 20.686 0
      vertex -10.4316 22.1683 0
    endloop
  endfacet
  facet normal -0.481767 0.8763 0
    outer loop
      vertex -13.1278 20.686 0
      vertex -10.4316 22.1683 -5
      vertex -13.1278 20.686 -5
    endloop
  endfacet
  facet normal -0.12536 0.992111 0
    outer loop
      vertex -1.53837 24.4517 -5
      vertex -4.59084 24.066 0
      vertex -1.53837 24.4517 0
    endloop
  endfacet
  facet normal -0.12536 0.992111 0
    outer loop
      vertex -4.59084 24.066 0
      vertex -1.53837 24.4517 -5
      vertex -4.59084 24.066 -5
    endloop
  endfacet
  facet normal 0.770515 -0.637421 0
    outer loop
      vertex 17.8597 -16.7714 0
      vertex 19.8209 -14.4007 -5
      vertex 19.8209 -14.4007 0
    endloop
  endfacet
  facet normal 0.770515 -0.637421 0
    outer loop
      vertex 19.8209 -14.4007 -5
      vertex 17.8597 -16.7714 0
      vertex 17.8597 -16.7714 -5
    endloop
  endfacet
  facet normal 0.951053 -0.309028 0
    outer loop
      vertex 22.7795 -9.01905 0
      vertex 23.7303 -6.0929 -5
      vertex 23.7303 -6.0929 0
    endloop
  endfacet
  facet normal 0.951053 -0.309028 0
    outer loop
      vertex 23.7303 -6.0929 -5
      vertex 22.7795 -9.01905 0
      vertex 22.7795 -9.01905 -5
    endloop
  endfacet
  facet normal 0.982289 -0.187374 0
    outer loop
      vertex 23.7303 -6.0929 0
      vertex 24.3068 -3.07066 -5
      vertex 24.3068 -3.07066 0
    endloop
  endfacet
  facet normal 0.982289 -0.187374 0
    outer loop
      vertex 24.3068 -3.07066 -5
      vertex 23.7303 -6.0929 0
      vertex 23.7303 -6.0929 -5
    endloop
  endfacet
  facet normal 0.368118 -0.929779 0
    outer loop
      vertex 7.57092 -23.3009 -5
      vertex 10.4316 -22.1683 0
      vertex 7.57092 -23.3009 0
    endloop
  endfacet
  facet normal 0.368118 -0.929779 0
    outer loop
      vertex 10.4316 -22.1683 0
      vertex 7.57092 -23.3009 -5
      vertex 10.4316 -22.1683 -5
    endloop
  endfacet
  facet normal 0.684559 -0.728957 0
    outer loop
      vertex 15.6169 -18.8776 -5
      vertex 17.8597 -16.7714 0
      vertex 15.6169 -18.8776 0
    endloop
  endfacet
  facet normal 0.684559 -0.728957 0
    outer loop
      vertex 17.8597 -16.7714 0
      vertex 15.6169 -18.8776 -5
      vertex 17.8597 -16.7714 -5
    endloop
  endfacet
  facet normal 0.844321 -0.535838 0
    outer loop
      vertex 19.8209 -14.4007 0
      vertex 21.4695 -11.803 -5
      vertex 21.4695 -11.803 0
    endloop
  endfacet
  facet normal 0.844321 -0.535838 0
    outer loop
      vertex 21.4695 -11.803 -5
      vertex 19.8209 -14.4007 0
      vertex 19.8209 -14.4007 -5
    endloop
  endfacet
  facet normal 0.998027 -0.0627939 0
    outer loop
      vertex 24.3068 -3.07066 0
      vertex 24.5 0 -5
      vertex 24.5 0 0
    endloop
  endfacet
  facet normal 0.998027 -0.0627939 0
    outer loop
      vertex 24.5 0 -5
      vertex 24.3068 -3.07066 0
      vertex 24.3068 -3.07066 -5
    endloop
  endfacet
  facet normal -0.368118 -0.929779 0
    outer loop
      vertex -10.4316 -22.1683 -5
      vertex -7.57092 -23.3009 0
      vertex -10.4316 -22.1683 0
    endloop
  endfacet
  facet normal -0.368118 -0.929779 -0
    outer loop
      vertex -7.57092 -23.3009 0
      vertex -10.4316 -22.1683 -5
      vertex -7.57092 -23.3009 -5
    endloop
  endfacet
  facet normal -0.770515 -0.637421 0
    outer loop
      vertex -17.8597 -16.7714 -5
      vertex -19.8209 -14.4007 0
      vertex -19.8209 -14.4007 -5
    endloop
  endfacet
  facet normal -0.770515 -0.637421 0
    outer loop
      vertex -19.8209 -14.4007 0
      vertex -17.8597 -16.7714 -5
      vertex -17.8597 -16.7714 0
    endloop
  endfacet
  facet normal -0.951053 -0.309028 0
    outer loop
      vertex -22.7795 -9.01905 -5
      vertex -23.7303 -6.0929 0
      vertex -23.7303 -6.0929 -5
    endloop
  endfacet
  facet normal -0.951053 -0.309028 0
    outer loop
      vertex -23.7303 -6.0929 0
      vertex -22.7795 -9.01905 -5
      vertex -22.7795 -9.01905 0
    endloop
  endfacet
  facet normal -0.998027 -0.0627939 0
    outer loop
      vertex -24.3068 -3.07066 -5
      vertex -24.5 0 0
      vertex -24.5 0 -5
    endloop
  endfacet
  facet normal -0.998027 -0.0627939 0
    outer loop
      vertex -24.5 0 0
      vertex -24.3068 -3.07066 -5
      vertex -24.3068 -3.07066 0
    endloop
  endfacet
  facet normal 0.248673 -0.968587 0
    outer loop
      vertex 4.59084 -24.066 -5
      vertex 7.57092 -23.3009 0
      vertex 4.59084 -24.066 0
    endloop
  endfacet
  facet normal 0.248673 -0.968587 0
    outer loop
      vertex 7.57092 -23.3009 0
      vertex 4.59084 -24.066 -5
      vertex 7.57092 -23.3009 -5
    endloop
  endfacet
  facet normal 0.12536 -0.992111 0
    outer loop
      vertex 1.53837 -24.4517 -5
      vertex 4.59084 -24.066 0
      vertex 1.53837 -24.4517 0
    endloop
  endfacet
  facet normal 0.12536 -0.992111 0
    outer loop
      vertex 4.59084 -24.066 0
      vertex 1.53837 -24.4517 -5
      vertex 4.59084 -24.066 -5
    endloop
  endfacet
  facet normal 0.481767 -0.8763 0
    outer loop
      vertex 10.4316 -22.1683 -5
      vertex 13.1278 -20.686 0
      vertex 10.4316 -22.1683 0
    endloop
  endfacet
  facet normal 0.481767 -0.8763 0
    outer loop
      vertex 13.1278 -20.686 0
      vertex 10.4316 -22.1683 -5
      vertex 13.1278 -20.686 -5
    endloop
  endfacet
  facet normal 0.587777 -0.809023 0
    outer loop
      vertex 13.1278 -20.686 -5
      vertex 15.6169 -18.8776 0
      vertex 13.1278 -20.686 0
    endloop
  endfacet
  facet normal 0.587777 -0.809023 0
    outer loop
      vertex 15.6169 -18.8776 0
      vertex 13.1278 -20.686 -5
      vertex 15.6169 -18.8776 -5
    endloop
  endfacet
  facet normal 0.90483 -0.425772 0
    outer loop
      vertex 21.4695 -11.803 0
      vertex 22.7795 -9.01905 -5
      vertex 22.7795 -9.01905 0
    endloop
  endfacet
  facet normal 0.90483 -0.425772 0
    outer loop
      vertex 22.7795 -9.01905 -5
      vertex 21.4695 -11.803 0
      vertex 21.4695 -11.803 -5
    endloop
  endfacet
  facet normal -0.12536 -0.992111 0
    outer loop
      vertex -4.59084 -24.066 -5
      vertex -1.53837 -24.4517 0
      vertex -4.59084 -24.066 0
    endloop
  endfacet
  facet normal -0.12536 -0.992111 -0
    outer loop
      vertex -1.53837 -24.4517 0
      vertex -4.59084 -24.066 -5
      vertex -1.53837 -24.4517 -5
    endloop
  endfacet
  facet normal -0.587777 -0.809023 0
    outer loop
      vertex -15.6169 -18.8776 -5
      vertex -13.1278 -20.686 0
      vertex -15.6169 -18.8776 0
    endloop
  endfacet
  facet normal -0.587777 -0.809023 -0
    outer loop
      vertex -13.1278 -20.686 0
      vertex -15.6169 -18.8776 -5
      vertex -13.1278 -20.686 -5
    endloop
  endfacet
  facet normal -0.248673 -0.968587 0
    outer loop
      vertex -7.57092 -23.3009 -5
      vertex -4.59084 -24.066 0
      vertex -7.57092 -23.3009 0
    endloop
  endfacet
  facet normal -0.248673 -0.968587 -0
    outer loop
      vertex -4.59084 -24.066 0
      vertex -7.57092 -23.3009 -5
      vertex -4.59084 -24.066 -5
    endloop
  endfacet
  facet normal -0.684559 -0.728957 0
    outer loop
      vertex -17.8597 -16.7714 -5
      vertex -15.6169 -18.8776 0
      vertex -17.8597 -16.7714 0
    endloop
  endfacet
  facet normal -0.684559 -0.728957 -0
    outer loop
      vertex -15.6169 -18.8776 0
      vertex -17.8597 -16.7714 -5
      vertex -15.6169 -18.8776 -5
    endloop
  endfacet
  facet normal -0.90483 -0.425772 0
    outer loop
      vertex -21.4695 -11.803 -5
      vertex -22.7795 -9.01905 0
      vertex -22.7795 -9.01905 -5
    endloop
  endfacet
  facet normal -0.90483 -0.425772 0
    outer loop
      vertex -22.7795 -9.01905 0
      vertex -21.4695 -11.803 -5
      vertex -21.4695 -11.803 0
    endloop
  endfacet
  facet normal -0.982289 -0.187374 0
    outer loop
      vertex -23.7303 -6.0929 -5
      vertex -24.3068 -3.07066 0
      vertex -24.3068 -3.07066 -5
    endloop
  endfacet
  facet normal -0.982289 -0.187374 0
    outer loop
      vertex -24.3068 -3.07066 0
      vertex -23.7303 -6.0929 -5
      vertex -23.7303 -6.0929 0
    endloop
  endfacet
  facet normal -0.481767 -0.8763 0
    outer loop
      vertex -13.1278 -20.686 -5
      vertex -10.4316 -22.1683 0
      vertex -13.1278 -20.686 0
    endloop
  endfacet
  facet normal -0.481767 -0.8763 -0
    outer loop
      vertex -10.4316 -22.1683 0
      vertex -13.1278 -20.686 -5
      vertex -10.4316 -22.1683 -5
    endloop
  endfacet
  facet normal -0.844321 -0.535838 0
    outer loop
      vertex -19.8209 -14.4007 -5
      vertex -21.4695 -11.803 0
      vertex -21.4695 -11.803 -5
    endloop
  endfacet
  facet normal -0.844321 -0.535838 0
    outer loop
      vertex -21.4695 -11.803 0
      vertex -19.8209 -14.4007 -5
      vertex -19.8209 -14.4007 0
    endloop
  endfacet
endsolid OpenSCAD_Model
