solid OpenSCAD_Model
  facet normal 0 0 1
    outer loop
      vertex 4.375 0 0
      vertex 30 0 0
      vertex 29.7634 3.76 0
    endloop
  endfacet
  facet normal 0 0 1
    outer loop
      vertex 4.3405 0.548332 0
      vertex 29.7634 3.76 0
      vertex 29.0575 7.4607 0
    endloop
  endfacet
  facet normal 0 0 1
    outer loop
      vertex 30 0 0
      vertex 4.375 0 0
      vertex 29.7634 -3.76 0
    endloop
  endfacet
  facet normal 0 0 1
    outer loop
      vertex 4.23755 1.08802 0
      vertex 29.0575 7.4607 0
      vertex 27.8933 11.0437 0
    endloop
  endfacet
  facet normal -0 0 1
    outer loop
      vertex 4.3405 -0.548332 0
      vertex 29.7634 -3.76 0
      vertex 4.375 0 0
    endloop
  endfacet
  facet normal 0 0 1
    outer loop
      vertex 4.06777 1.61054 0
      vertex 27.8933 11.0437 0
      vertex 26.2892 14.4526 0
    endloop
  endfacet
  facet normal 0 0 1
    outer loop
      vertex 29.7634 -3.76 0
      vertex 4.3405 -0.548332 0
      vertex 29.0575 -7.4607 0
    endloop
  endfacet
  facet normal 0 0 1
    outer loop
      vertex 3.83384 2.10767 0
      vertex 26.2892 14.4526 0
      vertex 24.2705 17.6336 0
    endloop
  endfacet
  facet normal -0 0 1
    outer loop
      vertex 4.23755 -1.08802 0
      vertex 29.0575 -7.4607 0
      vertex 4.3405 -0.548332 0
    endloop
  endfacet
  facet normal 0 0 1
    outer loop
      vertex 3.53945 2.57156 0
      vertex 24.2705 17.6336 0
      vertex 21.8691 20.5364 0
    endloop
  endfacet
  facet normal 0 0 1
    outer loop
      vertex 29.0575 -7.4607 0
      vertex 4.23755 -1.08802 0
      vertex 27.8933 -11.0437 0
    endloop
  endfacet
  facet normal 0 0 1
    outer loop
      vertex 3.18924 2.99489 0
      vertex 21.8691 20.5364 0
      vertex 19.1227 23.1154 0
    endloop
  endfacet
  facet normal -0 0 1
    outer loop
      vertex 4.06777 -1.61054 0
      vertex 27.8933 -11.0437 0
      vertex 4.23755 -1.08802 0
    endloop
  endfacet
  facet normal 0 0 1
    outer loop
      vertex 2.78873 3.37099 0
      vertex 19.1227 23.1154 0
      vertex 16.0748 25.3298 0
    endloop
  endfacet
  facet normal 0 0 1
    outer loop
      vertex 27.8933 -11.0437 0
      vertex 4.06777 -1.61054 0
      vertex 26.2892 -14.4526 0
    endloop
  endfacet
  facet normal 0 0 1
    outer loop
      vertex 2.34424 3.69393 0
      vertex 16.0748 25.3298 0
      vertex 12.7734 27.1448 0
    endloop
  endfacet
  facet normal -0 0 1
    outer loop
      vertex 3.83384 -2.10767 0
      vertex 26.2892 -14.4526 0
      vertex 4.06777 -1.61054 0
    endloop
  endfacet
  facet normal 0 0 1
    outer loop
      vertex 1.86278 3.95862 0
      vertex 12.7734 27.1448 0
      vertex 9.27051 28.5317 0
    endloop
  endfacet
  facet normal 0 0 1
    outer loop
      vertex 26.2892 -14.4526 0
      vertex 3.83384 -2.10767 0
      vertex 24.2705 -17.6336 0
    endloop
  endfacet
  facet normal 0 0 1
    outer loop
      vertex 1.35195 4.16087 0
      vertex 9.27051 28.5317 0
      vertex 5.62144 29.4686 0
    endloop
  endfacet
  facet normal -0 0 1
    outer loop
      vertex 3.53945 -2.57156 0
      vertex 24.2705 -17.6336 0
      vertex 3.83384 -2.10767 0
    endloop
  endfacet
  facet normal 0 0 1
    outer loop
      vertex 24.2705 -17.6336 0
      vertex 3.53945 -2.57156 0
      vertex 21.8691 -20.5364 0
    endloop
  endfacet
  facet normal 0 0 1
    outer loop
      vertex 29.7634 3.76 0
      vertex 4.3405 0.548332 0
      vertex 4.375 0 0
    endloop
  endfacet
  facet normal 0 0 1
    outer loop
      vertex 29.0575 7.4607 0
      vertex 4.23755 1.08802 0
      vertex 4.3405 0.548332 0
    endloop
  endfacet
  facet normal 0 0 1
    outer loop
      vertex 27.8933 11.0437 0
      vertex 4.06777 1.61054 0
      vertex 4.23755 1.08802 0
    endloop
  endfacet
  facet normal 0 0 1
    outer loop
      vertex 26.2892 14.4526 0
      vertex 3.83384 2.10767 0
      vertex 4.06777 1.61054 0
    endloop
  endfacet
  facet normal 0 0 1
    outer loop
      vertex 24.2705 17.6336 0
      vertex 3.53945 2.57156 0
      vertex 3.83384 2.10767 0
    endloop
  endfacet
  facet normal 0 0 1
    outer loop
      vertex 21.8691 20.5364 0
      vertex 3.18924 2.99489 0
      vertex 3.53945 2.57156 0
    endloop
  endfacet
  facet normal 0 0 1
    outer loop
      vertex 19.1227 23.1154 0
      vertex 2.78873 3.37099 0
      vertex 3.18924 2.99489 0
    endloop
  endfacet
  facet normal 0 0 1
    outer loop
      vertex 16.0748 25.3298 0
      vertex 2.34424 3.69393 0
      vertex 2.78873 3.37099 0
    endloop
  endfacet
  facet normal 0 0 1
    outer loop
      vertex 0.819793 4.29751 0
      vertex 5.62144 29.4686 0
      vertex 1.88371 29.9408 0
    endloop
  endfacet
  facet normal 0 0 1
    outer loop
      vertex 12.7734 27.1448 0
      vertex 1.86278 3.95862 0
      vertex 2.34424 3.69393 0
    endloop
  endfacet
  facet normal 0 0 1
    outer loop
      vertex 9.27051 28.5317 0
      vertex 1.35195 4.16087 0
      vertex 1.86278 3.95862 0
    endloop
  endfacet
  facet normal 0 0 1
    outer loop
      vertex 5.62144 29.4686 0
      vertex 0.819793 4.29751 0
      vertex 1.35195 4.16087 0
    endloop
  endfacet
  facet normal 0 0 1
    outer loop
      vertex 1.88371 29.9408 0
      vertex 0.274708 4.36637 0
      vertex 0.819793 4.29751 0
    endloop
  endfacet
  facet normal 0 0 1
    outer loop
      vertex 1.88371 29.9408 0
      vertex -0.274708 4.36637 0
      vertex 0.274708 4.36637 0
    endloop
  endfacet
  facet normal -0 0 1
    outer loop
      vertex -1.88371 29.9408 0
      vertex -0.274708 4.36637 0
      vertex 1.88371 29.9408 0
    endloop
  endfacet
  facet normal 0 0 1
    outer loop
      vertex -0.274708 4.36637 0
      vertex -1.88371 29.9408 0
      vertex -0.819793 4.29751 0
    endloop
  endfacet
  facet normal -0 0 1
    outer loop
      vertex -5.62144 29.4686 0
      vertex -0.819793 4.29751 0
      vertex -1.88371 29.9408 0
    endloop
  endfacet
  facet normal 0 0 1
    outer loop
      vertex -0.819793 4.29751 0
      vertex -5.62144 29.4686 0
      vertex -1.35195 4.16087 0
    endloop
  endfacet
  facet normal -0 0 1
    outer loop
      vertex -9.27051 28.5317 0
      vertex -1.35195 4.16087 0
      vertex -5.62144 29.4686 0
    endloop
  endfacet
  facet normal 0 0 1
    outer loop
      vertex -1.35195 4.16087 0
      vertex -9.27051 28.5317 0
      vertex -1.86278 3.95862 0
    endloop
  endfacet
  facet normal -0 0 1
    outer loop
      vertex -12.7734 27.1448 0
      vertex -1.86278 3.95862 0
      vertex -9.27051 28.5317 0
    endloop
  endfacet
  facet normal 0 0 1
    outer loop
      vertex -1.86278 3.95862 0
      vertex -12.7734 27.1448 0
      vertex -2.34424 3.69393 0
    endloop
  endfacet
  facet normal -0 0 1
    outer loop
      vertex -16.0748 25.3298 0
      vertex -2.34424 3.69393 0
      vertex -12.7734 27.1448 0
    endloop
  endfacet
  facet normal 0 0 1
    outer loop
      vertex -2.34424 3.69393 0
      vertex -16.0748 25.3298 0
      vertex -2.78873 3.37099 0
    endloop
  endfacet
  facet normal -0 0 1
    outer loop
      vertex -19.1227 23.1154 0
      vertex -2.78873 3.37099 0
      vertex -16.0748 25.3298 0
    endloop
  endfacet
  facet normal 0 0 1
    outer loop
      vertex -2.78873 3.37099 0
      vertex -19.1227 23.1154 0
      vertex -3.18924 2.99489 0
    endloop
  endfacet
  facet normal 0 0 1
    outer loop
      vertex -3.18924 2.99489 0
      vertex -21.8691 20.5364 0
      vertex -3.53945 2.57156 0
    endloop
  endfacet
  facet normal -0 0 1
    outer loop
      vertex -21.8691 20.5364 0
      vertex -3.18924 2.99489 0
      vertex -19.1227 23.1154 0
    endloop
  endfacet
  facet normal -0 0 1
    outer loop
      vertex 3.18924 -2.99489 0
      vertex 21.8691 -20.5364 0
      vertex 3.53945 -2.57156 0
    endloop
  endfacet
  facet normal 0 0 1
    outer loop
      vertex 21.8691 -20.5364 0
      vertex 3.18924 -2.99489 0
      vertex 19.1227 -23.1154 0
    endloop
  endfacet
  facet normal -0 0 1
    outer loop
      vertex 2.78873 -3.37099 0
      vertex 19.1227 -23.1154 0
      vertex 3.18924 -2.99489 0
    endloop
  endfacet
  facet normal 0 0 1
    outer loop
      vertex 19.1227 -23.1154 0
      vertex 2.78873 -3.37099 0
      vertex 16.0748 -25.3298 0
    endloop
  endfacet
  facet normal -0 0 1
    outer loop
      vertex 2.34424 -3.69393 0
      vertex 16.0748 -25.3298 0
      vertex 2.78873 -3.37099 0
    endloop
  endfacet
  facet normal 0 0 1
    outer loop
      vertex 16.0748 -25.3298 0
      vertex 2.34424 -3.69393 0
      vertex 12.7734 -27.1448 0
    endloop
  endfacet
  facet normal -0 0 1
    outer loop
      vertex 1.86278 -3.95862 0
      vertex 12.7734 -27.1448 0
      vertex 2.34424 -3.69393 0
    endloop
  endfacet
  facet normal 0 0 1
    outer loop
      vertex 12.7734 -27.1448 0
      vertex 1.86278 -3.95862 0
      vertex 9.27051 -28.5317 0
    endloop
  endfacet
  facet normal -0 0 1
    outer loop
      vertex 1.35195 -4.16087 0
      vertex 9.27051 -28.5317 0
      vertex 1.86278 -3.95862 0
    endloop
  endfacet
  facet normal 0 0 1
    outer loop
      vertex 9.27051 -28.5317 0
      vertex 1.35195 -4.16087 0
      vertex 5.62144 -29.4686 0
    endloop
  endfacet
  facet normal -0 0 1
    outer loop
      vertex 0.819793 -4.29751 0
      vertex 5.62144 -29.4686 0
      vertex 1.35195 -4.16087 0
    endloop
  endfacet
  facet normal 0 0 1
    outer loop
      vertex 5.62144 -29.4686 0
      vertex 0.819793 -4.29751 0
      vertex 1.88371 -29.9408 0
    endloop
  endfacet
  facet normal -0 0 1
    outer loop
      vertex 0.274708 -4.36637 0
      vertex 1.88371 -29.9408 0
      vertex 0.819793 -4.29751 0
    endloop
  endfacet
  facet normal -0 0 1
    outer loop
      vertex -0.274708 -4.36637 0
      vertex 1.88371 -29.9408 0
      vertex 0.274708 -4.36637 0
    endloop
  endfacet
  facet normal 0 0 1
    outer loop
      vertex -1.88371 -29.9408 0
      vertex -0.274708 -4.36637 0
      vertex -0.819793 -4.29751 0
    endloop
  endfacet
  facet normal 0 0 1
    outer loop
      vertex -5.62144 -29.4686 0
      vertex -0.819793 -4.29751 0
      vertex -1.35195 -4.16087 0
    endloop
  endfacet
  facet normal 0 0 1
    outer loop
      vertex -9.27051 -28.5317 0
      vertex -1.35195 -4.16087 0
      vertex -1.86278 -3.95862 0
    endloop
  endfacet
  facet normal 0 0 1
    outer loop
      vertex -0.274708 -4.36637 0
      vertex -1.88371 -29.9408 0
      vertex 1.88371 -29.9408 0
    endloop
  endfacet
  facet normal 0 0 1
    outer loop
      vertex -12.7734 -27.1448 0
      vertex -1.86278 -3.95862 0
      vertex -2.34424 -3.69393 0
    endloop
  endfacet
  facet normal 0 0 1
    outer loop
      vertex -16.0748 -25.3298 0
      vertex -2.34424 -3.69393 0
      vertex -2.78873 -3.37099 0
    endloop
  endfacet
  facet normal 0 0 1
    outer loop
      vertex -19.1227 -23.1154 0
      vertex -2.78873 -3.37099 0
      vertex -3.18924 -2.99489 0
    endloop
  endfacet
  facet normal 0 0 1
    outer loop
      vertex -21.8691 -20.5364 0
      vertex -3.18924 -2.99489 0
      vertex -3.53945 -2.57156 0
    endloop
  endfacet
  facet normal 0 0 1
    outer loop
      vertex -24.2705 -17.6336 0
      vertex -3.53945 -2.57156 0
      vertex -3.83384 -2.10767 0
    endloop
  endfacet
  facet normal 0 0 1
    outer loop
      vertex -26.2892 -14.4526 0
      vertex -3.83384 -2.10767 0
      vertex -4.06777 -1.61054 0
    endloop
  endfacet
  facet normal 0 0 1
    outer loop
      vertex -27.8933 -11.0437 0
      vertex -4.06777 -1.61054 0
      vertex -4.23755 -1.08802 0
    endloop
  endfacet
  facet normal 0 0 1
    outer loop
      vertex -29.0575 -7.4607 0
      vertex -4.23755 -1.08802 0
      vertex -4.3405 -0.548332 0
    endloop
  endfacet
  facet normal 0 0 1
    outer loop
      vertex -0.819793 -4.29751 0
      vertex -5.62144 -29.4686 0
      vertex -1.88371 -29.9408 0
    endloop
  endfacet
  facet normal 0 0 1
    outer loop
      vertex -29.7634 -3.76 0
      vertex -4.3405 -0.548332 0
      vertex -4.375 0 0
    endloop
  endfacet
  facet normal -0 0 1
    outer loop
      vertex -24.2705 17.6336 0
      vertex -3.53945 2.57156 0
      vertex -21.8691 20.5364 0
    endloop
  endfacet
  facet normal 0 0 1
    outer loop
      vertex -3.53945 2.57156 0
      vertex -24.2705 17.6336 0
      vertex -3.83384 2.10767 0
    endloop
  endfacet
  facet normal 0 0 1
    outer loop
      vertex -1.35195 -4.16087 0
      vertex -9.27051 -28.5317 0
      vertex -5.62144 -29.4686 0
    endloop
  endfacet
  facet normal -0 0 1
    outer loop
      vertex -26.2892 14.4526 0
      vertex -3.83384 2.10767 0
      vertex -24.2705 17.6336 0
    endloop
  endfacet
  facet normal 0 0 1
    outer loop
      vertex -1.86278 -3.95862 0
      vertex -12.7734 -27.1448 0
      vertex -9.27051 -28.5317 0
    endloop
  endfacet
  facet normal 0 0 1
    outer loop
      vertex -3.83384 2.10767 0
      vertex -26.2892 14.4526 0
      vertex -4.06777 1.61054 0
    endloop
  endfacet
  facet normal 0 0 1
    outer loop
      vertex -2.34424 -3.69393 0
      vertex -16.0748 -25.3298 0
      vertex -12.7734 -27.1448 0
    endloop
  endfacet
  facet normal -0 0 1
    outer loop
      vertex -27.8933 11.0437 0
      vertex -4.06777 1.61054 0
      vertex -26.2892 14.4526 0
    endloop
  endfacet
  facet normal 0 0 1
    outer loop
      vertex -2.78873 -3.37099 0
      vertex -19.1227 -23.1154 0
      vertex -16.0748 -25.3298 0
    endloop
  endfacet
  facet normal 0 0 1
    outer loop
      vertex -4.06777 1.61054 0
      vertex -27.8933 11.0437 0
      vertex -4.23755 1.08802 0
    endloop
  endfacet
  facet normal 0 0 1
    outer loop
      vertex -3.18924 -2.99489 0
      vertex -21.8691 -20.5364 0
      vertex -19.1227 -23.1154 0
    endloop
  endfacet
  facet normal -0 0 1
    outer loop
      vertex -29.0575 7.4607 0
      vertex -4.23755 1.08802 0
      vertex -27.8933 11.0437 0
    endloop
  endfacet
  facet normal 0 0 1
    outer loop
      vertex -3.53945 -2.57156 0
      vertex -24.2705 -17.6336 0
      vertex -21.8691 -20.5364 0
    endloop
  endfacet
  facet normal 0 0 1
    outer loop
      vertex -4.23755 1.08802 0
      vertex -29.0575 7.4607 0
      vertex -4.3405 0.548332 0
    endloop
  endfacet
  facet normal 0 0 1
    outer loop
      vertex -3.83384 -2.10767 0
      vertex -26.2892 -14.4526 0
      vertex -24.2705 -17.6336 0
    endloop
  endfacet
  facet normal -0 0 1
    outer loop
      vertex -29.7634 3.76 0
      vertex -4.3405 0.548332 0
      vertex -29.0575 7.4607 0
    endloop
  endfacet
  facet normal 0 0 1
    outer loop
      vertex -4.06777 -1.61054 0
      vertex -27.8933 -11.0437 0
      vertex -26.2892 -14.4526 0
    endloop
  endfacet
  facet normal 0 0 1
    outer loop
      vertex -4.3405 0.548332 0
      vertex -29.7634 3.76 0
      vertex -4.375 0 0
    endloop
  endfacet
  facet normal 0 0 1
    outer loop
      vertex -4.23755 -1.08802 0
      vertex -29.0575 -7.4607 0
      vertex -27.8933 -11.0437 0
    endloop
  endfacet
  facet normal 0 0 1
    outer loop
      vertex -30 0 0
      vertex -4.375 0 0
      vertex -29.7634 3.76 0
    endloop
  endfacet
  facet normal 0 0 1
    outer loop
      vertex -4.3405 -0.548332 0
      vertex -29.7634 -3.76 0
      vertex -29.0575 -7.4607 0
    endloop
  endfacet
  facet normal 0 0 1
    outer loop
      vertex -4.375 0 0
      vertex -30 0 0
      vertex -29.7634 -3.76 0
    endloop
  endfacet
  facet normal -0.107144 0.848135 0.518833
    outer loop
      vertex 0.263282 -2.53261 -3
      vertex 0.274708 -4.36637 0
      vertex 0.819793 -4.29751 0
    endloop
  endfacet
  facet normal -0.107164 0.848133 0.518832
    outer loop
      vertex 0.274708 -4.36637 0
      vertex 0.263282 -2.53261 -3
      vertex 0.160158 -2.54564 -3
    endloop
  endfacet
  facet normal -0.853189 -0.0537052 0.51883
    outer loop
      vertex 4.375 0 0
      vertex 2.54415 0.103739 -3
      vertex 2.55068 0 -3
    endloop
  endfacet
  facet normal -0.85319 -0.0536811 0.518831
    outer loop
      vertex 2.54415 0.103739 -3
      vertex 4.375 0 0
      vertex 4.3405 0.548332 0
    endloop
  endfacet
  facet normal -0.853188 -0.0536934 0.518832
    outer loop
      vertex 2.54415 0.103739 -3
      vertex 4.3405 0.548332 0
      vertex 2.53056 0.319684 -3
    endloop
  endfacet
  facet normal 0.773506 0.364013 0.518829
    outer loop
      vertex -4.06777 -1.61054 0
      vertex -2.23517 -1.2288 -3
      vertex -2.27943 -1.13475 -3
    endloop
  endfacet
  facet normal 0.773516 0.363987 0.518831
    outer loop
      vertex -2.23517 -1.2288 -3
      vertex -4.06777 -1.61054 0
      vertex -3.83384 -2.10767 0
    endloop
  endfacet
  facet normal -0.773515 0.363991 0.51883
    outer loop
      vertex 4.06777 -1.61054 0
      vertex 2.37156 -0.938965 -3
      vertex 2.27943 -1.13475 -3
    endloop
  endfacet
  facet normal -0.107111 0.84814 0.51883
    outer loop
      vertex 0.819793 -4.29751 0
      vertex 0.477948 -2.5055 -3
      vertex 0.263282 -2.53261 -3
    endloop
  endfacet
  facet normal -0.107164 -0.848133 0.518832
    outer loop
      vertex 0.263282 2.53261 -3
      vertex 0.274708 4.36637 0
      vertex 0.160158 2.54564 -3
    endloop
  endfacet
  facet normal -0.107144 -0.848135 0.518833
    outer loop
      vertex 0.274708 4.36637 0
      vertex 0.263282 2.53261 -3
      vertex 0.819793 4.29751 0
    endloop
  endfacet
  facet normal -0.853189 0.0537052 0.51883
    outer loop
      vertex 2.54415 -0.103739 -3
      vertex 4.375 0 0
      vertex 2.55068 0 -3
    endloop
  endfacet
  facet normal -0.85319 0.0536811 0.518831
    outer loop
      vertex 4.375 0 0
      vertex 2.54415 -0.103739 -3
      vertex 4.3405 -0.548332 0
    endloop
  endfacet
  facet normal -0.81304 0.264162 0.51883
    outer loop
      vertex 4.06777 -1.61054 0
      vertex 2.43842 -0.733183 -3
      vertex 2.37156 -0.938965 -3
    endloop
  endfacet
  facet normal -0.773506 0.364013 0.518829
    outer loop
      vertex 2.23517 -1.2288 -3
      vertex 4.06777 -1.61054 0
      vertex 2.27943 -1.13475 -3
    endloop
  endfacet
  facet normal -0.773516 0.363987 0.518831
    outer loop
      vertex 4.06777 -1.61054 0
      vertex 2.23517 -1.2288 -3
      vertex 3.83384 -2.10767 0
    endloop
  endfacet
  facet normal -0.585186 0.623195 0.518831
    outer loop
      vertex 3.18924 -2.99489 0
      vertex 1.85936 -1.74606 -3
      vertex 1.70163 -1.89417 -3
    endloop
  endfacet
  facet normal -0.411846 0.74913 0.518832
    outer loop
      vertex 1.17711 -2.25784 -3
      vertex 1.86278 -3.95862 0
      vertex 2.34424 -3.69393 0
    endloop
  endfacet
  facet normal -0.411858 0.749124 0.518831
    outer loop
      vertex 1.86278 -3.95862 0
      vertex 1.17711 -2.25784 -3
      vertex 1.08602 -2.30792 -3
    endloop
  endfacet
  facet normal 0.839737 0.160172 0.518832
    outer loop
      vertex -2.49002 -0.532224 -3
      vertex -2.53056 -0.319684 -3
      vertex -4.3405 -0.548332 0
    endloop
  endfacet
  facet normal 0.813035 -0.264176 0.518831
    outer loop
      vertex -4.23755 1.08802 0
      vertex -2.43842 0.733183 -3
      vertex -4.06777 1.61054 0
    endloop
  endfacet
  facet normal 0.813037 -0.264167 0.518832
    outer loop
      vertex -2.43842 0.733183 -3
      vertex -4.23755 1.08802 0
      vertex -2.47054 0.634326 -3
    endloop
  endfacet
  facet normal -0.839731 0.160212 0.518829
    outer loop
      vertex 2.47054 -0.634326 -3
      vertex 4.3405 -0.548332 0
      vertex 2.49002 -0.532224 -3
    endloop
  endfacet
  facet normal -0.839735 0.160186 0.518832
    outer loop
      vertex 4.3405 -0.548332 0
      vertex 2.47054 -0.634326 -3
      vertex 4.23755 -1.08802 0
    endloop
  endfacet
  facet normal -0.813037 0.264167 0.518832
    outer loop
      vertex 2.43842 -0.733183 -3
      vertex 4.23755 -1.08802 0
      vertex 2.47054 -0.634326 -3
    endloop
  endfacet
  facet normal -0.813035 0.264176 0.518831
    outer loop
      vertex 4.23755 -1.08802 0
      vertex 2.43842 -0.733183 -3
      vertex 4.06777 -1.61054 0
    endloop
  endfacet
  facet normal -0.853188 0.0536934 0.518832
    outer loop
      vertex 4.3405 -0.548332 0
      vertex 2.54415 -0.103739 -3
      vertex 2.53056 -0.319684 -3
    endloop
  endfacet
  facet normal -0.721777 0.458101 0.518827
    outer loop
      vertex 2.06354 -1.49925 -3
      vertex 3.83384 -2.10767 0
      vertex 2.11924 -1.41149 -3
    endloop
  endfacet
  facet normal -0.721799 0.458062 0.518831
    outer loop
      vertex 3.83384 -2.10767 0
      vertex 2.06354 -1.49925 -3
      vertex 3.53945 -2.57156 0
    endloop
  endfacet
  facet normal -0.212607 0.828017 0.518831
    outer loop
      vertex 0.578627 -2.47965 -3
      vertex 0.819793 -4.29751 0
      vertex 1.35195 -4.16087 0
    endloop
  endfacet
  facet normal -0.212599 0.828019 0.518831
    outer loop
      vertex 0.819793 -4.29751 0
      vertex 0.578627 -2.47965 -3
      vertex 0.477948 -2.5055 -3
    endloop
  endfacet
  facet normal -0.314701 0.794844 0.518832
    outer loop
      vertex 1.86278 -3.95862 0
      vertex 1.08602 -2.30792 -3
      vertex 0.884847 -2.38757 -3
    endloop
  endfacet
  facet normal -0.502483 0.691611 0.518831
    outer loop
      vertex 1.62586 -1.96533 -3
      vertex 2.34424 -3.69393 0
      vertex 2.78873 -3.37099 0
    endloop
  endfacet
  facet normal -0.502513 0.691592 0.518827
    outer loop
      vertex 2.34424 -3.69393 0
      vertex 1.62586 -1.96533 -3
      vertex 1.54177 -2.02643 -3
    endloop
  endfacet
  facet normal 0.502513 0.691592 0.518827
    outer loop
      vertex -1.62586 -1.96533 -3
      vertex -2.34424 -3.69393 0
      vertex -1.54177 -2.02643 -3
    endloop
  endfacet
  facet normal 0.502483 0.691611 0.518831
    outer loop
      vertex -2.34424 -3.69393 0
      vertex -1.62586 -1.96533 -3
      vertex -2.78873 -3.37099 0
    endloop
  endfacet
  facet normal 0.721777 0.458101 0.518827
    outer loop
      vertex -3.83384 -2.10767 0
      vertex -2.06354 -1.49925 -3
      vertex -2.11924 -1.41149 -3
    endloop
  endfacet
  facet normal 0.721799 0.458062 0.518831
    outer loop
      vertex -2.06354 -1.49925 -3
      vertex -3.83384 -2.10767 0
      vertex -3.53945 -2.57156 0
    endloop
  endfacet
  facet normal 0.212599 0.828019 0.518831
    outer loop
      vertex -0.578627 -2.47965 -3
      vertex -0.819793 -4.29751 0
      vertex -0.477948 -2.5055 -3
    endloop
  endfacet
  facet normal 0.212607 0.828017 0.518831
    outer loop
      vertex -0.819793 -4.29751 0
      vertex -0.578627 -2.47965 -3
      vertex -1.35195 -4.16087 0
    endloop
  endfacet
  facet normal 0.502481 -0.691613 0.51883
    outer loop
      vertex -1.54177 2.02643 -3
      vertex -1.36672 2.15361 -3
      vertex -2.34424 3.69393 0
    endloop
  endfacet
  facet normal -0.411813 -0.74915 0.518829
    outer loop
      vertex 1.36672 2.15361 -3
      vertex 2.34424 3.69393 0
      vertex 1.17711 2.25784 -3
    endloop
  endfacet
  facet normal -0.839737 0.160172 0.518832
    outer loop
      vertex 4.3405 -0.548332 0
      vertex 2.53056 -0.319684 -3
      vertex 2.49002 -0.532224 -3
    endloop
  endfacet
  facet normal -0.658679 0.544938 0.518831
    outer loop
      vertex 1.99728 -1.57934 -3
      vertex 3.53945 -2.57156 0
      vertex 2.06354 -1.49925 -3
    endloop
  endfacet
  facet normal -0.658693 0.544919 0.518832
    outer loop
      vertex 3.53945 -2.57156 0
      vertex 1.99728 -1.57934 -3
      vertex 3.18924 -2.99489 0
    endloop
  endfacet
  facet normal -0.658699 0.544912 0.518831
    outer loop
      vertex 3.18924 -2.99489 0
      vertex 1.99728 -1.57934 -3
      vertex 1.85936 -1.74606 -3
    endloop
  endfacet
  facet normal -0.314698 0.794845 0.518832
    outer loop
      vertex 0.884847 -2.38757 -3
      vertex 1.35195 -4.16087 0
      vertex 1.86278 -3.95862 0
    endloop
  endfacet
  facet normal -0.314741 0.79483 0.518829
    outer loop
      vertex 1.35195 -4.16087 0
      vertex 0.884847 -2.38757 -3
      vertex 0.788202 -2.42584 -3
    endloop
  endfacet
  facet normal -0.5852 0.623181 0.518832
    outer loop
      vertex 1.70163 -1.89417 -3
      vertex 2.78873 -3.37099 0
      vertex 3.18924 -2.99489 0
    endloop
  endfacet
  facet normal -0.585236 0.623149 0.51883
    outer loop
      vertex 2.78873 -3.37099 0
      vertex 1.70163 -1.89417 -3
      vertex 1.62586 -1.96533 -3
    endloop
  endfacet
  facet normal -0.502481 0.691613 0.51883
    outer loop
      vertex 2.34424 -3.69393 0
      vertex 1.54177 -2.02643 -3
      vertex 1.36672 -2.15361 -3
    endloop
  endfacet
  facet normal -0.411813 0.74915 0.518829
    outer loop
      vertex 2.34424 -3.69393 0
      vertex 1.36672 -2.15361 -3
      vertex 1.17711 -2.25784 -3
    endloop
  endfacet
  facet normal 0.813037 0.264167 0.518832
    outer loop
      vertex -4.23755 -1.08802 0
      vertex -2.43842 -0.733183 -3
      vertex -2.47054 -0.634326 -3
    endloop
  endfacet
  facet normal 0.813035 0.264176 0.518831
    outer loop
      vertex -2.43842 -0.733183 -3
      vertex -4.23755 -1.08802 0
      vertex -4.06777 -1.61054 0
    endloop
  endfacet
  facet normal 0.839731 0.160212 0.518829
    outer loop
      vertex -4.3405 -0.548332 0
      vertex -2.47054 -0.634326 -3
      vertex -2.49002 -0.532224 -3
    endloop
  endfacet
  facet normal 0.839735 0.160186 0.518832
    outer loop
      vertex -2.47054 -0.634326 -3
      vertex -4.3405 -0.548332 0
      vertex -4.23755 -1.08802 0
    endloop
  endfacet
  facet normal 0.721811 0.458041 0.518832
    outer loop
      vertex -2.11924 -1.41149 -3
      vertex -2.23517 -1.2288 -3
      vertex -3.83384 -2.10767 0
    endloop
  endfacet
  facet normal 0.658679 0.544938 0.518831
    outer loop
      vertex -3.53945 -2.57156 0
      vertex -1.99728 -1.57934 -3
      vertex -2.06354 -1.49925 -3
    endloop
  endfacet
  facet normal 0.658693 0.544919 0.518832
    outer loop
      vertex -1.99728 -1.57934 -3
      vertex -3.53945 -2.57156 0
      vertex -3.18924 -2.99489 0
    endloop
  endfacet
  facet normal 0.658699 0.544912 0.518831
    outer loop
      vertex -1.85936 -1.74606 -3
      vertex -1.99728 -1.57934 -3
      vertex -3.18924 -2.99489 0
    endloop
  endfacet
  facet normal 0 0.854876 0.518833
    outer loop
      vertex 0.160158 -2.54564 -3
      vertex -0.274708 -4.36637 0
      vertex 0.274708 -4.36637 0
    endloop
  endfacet
  facet normal 0 0.854876 0.518833
    outer loop
      vertex -0.274708 -4.36637 0
      vertex 0.160158 -2.54564 -3
      vertex -0.160158 -2.54564 -3
    endloop
  endfacet
  facet normal 0.2126 0.828019 0.51883
    outer loop
      vertex -0.578627 -2.47965 -3
      vertex -0.788202 -2.42584 -3
      vertex -1.35195 -4.16087 0
    endloop
  endfacet
  facet normal 0.773516 -0.363987 0.518831
    outer loop
      vertex -4.06777 1.61054 0
      vertex -2.23517 1.2288 -3
      vertex -3.83384 2.10767 0
    endloop
  endfacet
  facet normal 0.773506 -0.364013 0.518829
    outer loop
      vertex -2.23517 1.2288 -3
      vertex -4.06777 1.61054 0
      vertex -2.27943 1.13475 -3
    endloop
  endfacet
  facet normal -0.212599 -0.828019 0.518831
    outer loop
      vertex 0.578627 2.47965 -3
      vertex 0.819793 4.29751 0
      vertex 0.477948 2.5055 -3
    endloop
  endfacet
  facet normal -0.212607 -0.828017 0.518831
    outer loop
      vertex 0.819793 4.29751 0
      vertex 0.578627 2.47965 -3
      vertex 1.35195 4.16087 0
    endloop
  endfacet
  facet normal -0.585186 -0.623195 0.518831
    outer loop
      vertex 1.85936 1.74606 -3
      vertex 3.18924 2.99489 0
      vertex 1.70163 1.89417 -3
    endloop
  endfacet
  facet normal -0.839737 -0.160172 0.518832
    outer loop
      vertex 2.53056 0.319684 -3
      vertex 4.3405 0.548332 0
      vertex 2.49002 0.532224 -3
    endloop
  endfacet
  facet normal -0.721811 0.458041 0.518832
    outer loop
      vertex 3.83384 -2.10767 0
      vertex 2.23517 -1.2288 -3
      vertex 2.11924 -1.41149 -3
    endloop
  endfacet
  facet normal -0.2126 0.828019 0.51883
    outer loop
      vertex 1.35195 -4.16087 0
      vertex 0.788202 -2.42584 -3
      vertex 0.578627 -2.47965 -3
    endloop
  endfacet
  facet normal 0.585236 0.623149 0.51883
    outer loop
      vertex -1.70163 -1.89417 -3
      vertex -2.78873 -3.37099 0
      vertex -1.62586 -1.96533 -3
    endloop
  endfacet
  facet normal 0.5852 0.623181 0.518832
    outer loop
      vertex -2.78873 -3.37099 0
      vertex -1.70163 -1.89417 -3
      vertex -3.18924 -2.99489 0
    endloop
  endfacet
  facet normal 0.107164 0.848133 0.518832
    outer loop
      vertex -0.263282 -2.53261 -3
      vertex -0.274708 -4.36637 0
      vertex -0.160158 -2.54564 -3
    endloop
  endfacet
  facet normal 0.107144 0.848135 0.518833
    outer loop
      vertex -0.274708 -4.36637 0
      vertex -0.263282 -2.53261 -3
      vertex -0.819793 -4.29751 0
    endloop
  endfacet
  facet normal 0.107111 0.84814 0.51883
    outer loop
      vertex -0.263282 -2.53261 -3
      vertex -0.477948 -2.5055 -3
      vertex -0.819793 -4.29751 0
    endloop
  endfacet
  facet normal 0.314741 0.79483 0.518829
    outer loop
      vertex -0.884847 -2.38757 -3
      vertex -1.35195 -4.16087 0
      vertex -0.788202 -2.42584 -3
    endloop
  endfacet
  facet normal 0.314698 0.794845 0.518832
    outer loop
      vertex -1.35195 -4.16087 0
      vertex -0.884847 -2.38757 -3
      vertex -1.86278 -3.95862 0
    endloop
  endfacet
  facet normal 0.502481 0.691613 0.51883
    outer loop
      vertex -1.36672 -2.15361 -3
      vertex -1.54177 -2.02643 -3
      vertex -2.34424 -3.69393 0
    endloop
  endfacet
  facet normal 0.411858 0.749124 0.518831
    outer loop
      vertex -1.17711 -2.25784 -3
      vertex -1.86278 -3.95862 0
      vertex -1.08602 -2.30792 -3
    endloop
  endfacet
  facet normal 0.411846 0.74913 0.518832
    outer loop
      vertex -1.86278 -3.95862 0
      vertex -1.17711 -2.25784 -3
      vertex -2.34424 -3.69393 0
    endloop
  endfacet
  facet normal 0.411813 0.74915 0.518829
    outer loop
      vertex -1.17711 -2.25784 -3
      vertex -1.36672 -2.15361 -3
      vertex -2.34424 -3.69393 0
    endloop
  endfacet
  facet normal 0.839735 -0.160186 0.518832
    outer loop
      vertex -4.3405 0.548332 0
      vertex -2.47054 0.634326 -3
      vertex -4.23755 1.08802 0
    endloop
  endfacet
  facet normal 0.839731 -0.160212 0.518829
    outer loop
      vertex -2.47054 0.634326 -3
      vertex -4.3405 0.548332 0
      vertex -2.49002 0.532224 -3
    endloop
  endfacet
  facet normal 0.585186 -0.623195 0.518831
    outer loop
      vertex -1.85936 1.74606 -3
      vertex -1.70163 1.89417 -3
      vertex -3.18924 2.99489 0
    endloop
  endfacet
  facet normal 0.658693 -0.544919 0.518832
    outer loop
      vertex -3.53945 2.57156 0
      vertex -1.99728 1.57934 -3
      vertex -3.18924 2.99489 0
    endloop
  endfacet
  facet normal 0.658679 -0.544938 0.518831
    outer loop
      vertex -1.99728 1.57934 -3
      vertex -3.53945 2.57156 0
      vertex -2.06354 1.49925 -3
    endloop
  endfacet
  facet normal 0.411846 -0.74913 0.518832
    outer loop
      vertex -1.17711 2.25784 -3
      vertex -1.86278 3.95862 0
      vertex -2.34424 3.69393 0
    endloop
  endfacet
  facet normal 0.411858 -0.749124 0.518831
    outer loop
      vertex -1.86278 3.95862 0
      vertex -1.17711 2.25784 -3
      vertex -1.08602 2.30792 -3
    endloop
  endfacet
  facet normal 0.314698 -0.794845 0.518832
    outer loop
      vertex -0.884847 2.38757 -3
      vertex -1.35195 4.16087 0
      vertex -1.86278 3.95862 0
    endloop
  endfacet
  facet normal 0.314741 -0.79483 0.518829
    outer loop
      vertex -1.35195 4.16087 0
      vertex -0.884847 2.38757 -3
      vertex -0.788202 2.42584 -3
    endloop
  endfacet
  facet normal -0.107111 -0.84814 0.51883
    outer loop
      vertex 0.477948 2.5055 -3
      vertex 0.819793 4.29751 0
      vertex 0.263282 2.53261 -3
    endloop
  endfacet
  facet normal -0.411858 -0.749124 0.518831
    outer loop
      vertex 1.17711 2.25784 -3
      vertex 1.86278 3.95862 0
      vertex 1.08602 2.30792 -3
    endloop
  endfacet
  facet normal -0.411846 -0.74913 0.518832
    outer loop
      vertex 1.86278 3.95862 0
      vertex 1.17711 2.25784 -3
      vertex 2.34424 3.69393 0
    endloop
  endfacet
  facet normal -0.813035 -0.264176 0.518831
    outer loop
      vertex 2.43842 0.733183 -3
      vertex 4.23755 1.08802 0
      vertex 4.06777 1.61054 0
    endloop
  endfacet
  facet normal -0.813037 -0.264167 0.518832
    outer loop
      vertex 4.23755 1.08802 0
      vertex 2.43842 0.733183 -3
      vertex 2.47054 0.634326 -3
    endloop
  endfacet
  facet normal -0.839735 -0.160186 0.518832
    outer loop
      vertex 2.47054 0.634326 -3
      vertex 4.3405 0.548332 0
      vertex 4.23755 1.08802 0
    endloop
  endfacet
  facet normal -0.839731 -0.160212 0.518829
    outer loop
      vertex 4.3405 0.548332 0
      vertex 2.47054 0.634326 -3
      vertex 2.49002 0.532224 -3
    endloop
  endfacet
  facet normal 0.773515 0.363991 0.51883
    outer loop
      vertex -2.27943 -1.13475 -3
      vertex -2.37156 -0.938965 -3
      vertex -4.06777 -1.61054 0
    endloop
  endfacet
  facet normal 0.81304 0.264162 0.51883
    outer loop
      vertex -2.37156 -0.938965 -3
      vertex -2.43842 -0.733183 -3
      vertex -4.06777 -1.61054 0
    endloop
  endfacet
  facet normal 0.585186 0.623195 0.518831
    outer loop
      vertex -1.70163 -1.89417 -3
      vertex -1.85936 -1.74606 -3
      vertex -3.18924 -2.99489 0
    endloop
  endfacet
  facet normal 0.314701 0.794844 0.518832
    outer loop
      vertex -0.884847 -2.38757 -3
      vertex -1.08602 -2.30792 -3
      vertex -1.86278 -3.95862 0
    endloop
  endfacet
  facet normal 0.721799 -0.458062 0.518831
    outer loop
      vertex -3.83384 2.10767 0
      vertex -2.06354 1.49925 -3
      vertex -3.53945 2.57156 0
    endloop
  endfacet
  facet normal 0.721777 -0.458101 0.518827
    outer loop
      vertex -2.06354 1.49925 -3
      vertex -3.83384 2.10767 0
      vertex -2.11924 1.41149 -3
    endloop
  endfacet
  facet normal 0.721811 -0.458041 0.518832
    outer loop
      vertex -2.23517 1.2288 -3
      vertex -2.11924 1.41149 -3
      vertex -3.83384 2.10767 0
    endloop
  endfacet
  facet normal 0.81304 -0.264162 0.51883
    outer loop
      vertex -2.43842 0.733183 -3
      vertex -2.37156 0.938965 -3
      vertex -4.06777 1.61054 0
    endloop
  endfacet
  facet normal 0.853188 0.0536934 0.518832
    outer loop
      vertex -2.53056 -0.319684 -3
      vertex -2.54415 -0.103739 -3
      vertex -4.3405 -0.548332 0
    endloop
  endfacet
  facet normal 0.212607 -0.828017 0.518831
    outer loop
      vertex -0.578627 2.47965 -3
      vertex -0.819793 4.29751 0
      vertex -1.35195 4.16087 0
    endloop
  endfacet
  facet normal 0.212599 -0.828019 0.518831
    outer loop
      vertex -0.819793 4.29751 0
      vertex -0.578627 2.47965 -3
      vertex -0.477948 2.5055 -3
    endloop
  endfacet
  facet normal 0.2126 -0.828019 0.51883
    outer loop
      vertex -0.788202 2.42584 -3
      vertex -0.578627 2.47965 -3
      vertex -1.35195 4.16087 0
    endloop
  endfacet
  facet normal 0.411813 -0.74915 0.518829
    outer loop
      vertex -1.36672 2.15361 -3
      vertex -1.17711 2.25784 -3
      vertex -2.34424 3.69393 0
    endloop
  endfacet
  facet normal 0 -0.854876 0.518833
    outer loop
      vertex -0.160158 2.54564 -3
      vertex 0.274708 4.36637 0
      vertex -0.274708 4.36637 0
    endloop
  endfacet
  facet normal 0 -0.854876 0.518833
    outer loop
      vertex 0.274708 4.36637 0
      vertex -0.160158 2.54564 -3
      vertex 0.160158 2.54564 -3
    endloop
  endfacet
  facet normal -0.2126 -0.828019 0.51883
    outer loop
      vertex 0.788202 2.42584 -3
      vertex 1.35195 4.16087 0
      vertex 0.578627 2.47965 -3
    endloop
  endfacet
  facet normal -0.502513 -0.691592 0.518827
    outer loop
      vertex 1.62586 1.96533 -3
      vertex 2.34424 3.69393 0
      vertex 1.54177 2.02643 -3
    endloop
  endfacet
  facet normal -0.502483 -0.691611 0.518831
    outer loop
      vertex 2.34424 3.69393 0
      vertex 1.62586 1.96533 -3
      vertex 2.78873 3.37099 0
    endloop
  endfacet
  facet normal -0.658699 -0.544912 0.518831
    outer loop
      vertex 1.99728 1.57934 -3
      vertex 3.18924 2.99489 0
      vertex 1.85936 1.74606 -3
    endloop
  endfacet
  facet normal -0.773516 -0.363987 0.518831
    outer loop
      vertex 2.23517 1.2288 -3
      vertex 4.06777 1.61054 0
      vertex 3.83384 2.10767 0
    endloop
  endfacet
  facet normal -0.773506 -0.364013 0.518829
    outer loop
      vertex 4.06777 1.61054 0
      vertex 2.23517 1.2288 -3
      vertex 2.27943 1.13475 -3
    endloop
  endfacet
  facet normal -0.81304 -0.264162 0.51883
    outer loop
      vertex 2.43842 0.733183 -3
      vertex 4.06777 1.61054 0
      vertex 2.37156 0.938965 -3
    endloop
  endfacet
  facet normal 0.773515 -0.363991 0.51883
    outer loop
      vertex -2.37156 0.938965 -3
      vertex -2.27943 1.13475 -3
      vertex -4.06777 1.61054 0
    endloop
  endfacet
  facet normal 0.853189 0.0537052 0.51883
    outer loop
      vertex -4.375 0 0
      vertex -2.54415 -0.103739 -3
      vertex -2.55068 0 -3
    endloop
  endfacet
  facet normal 0.85319 0.0536811 0.518831
    outer loop
      vertex -2.54415 -0.103739 -3
      vertex -4.375 0 0
      vertex -4.3405 -0.548332 0
    endloop
  endfacet
  facet normal 0.85319 -0.0536811 0.518831
    outer loop
      vertex -4.375 0 0
      vertex -2.54415 0.103739 -3
      vertex -4.3405 0.548332 0
    endloop
  endfacet
  facet normal 0.853189 -0.0537052 0.51883
    outer loop
      vertex -2.54415 0.103739 -3
      vertex -4.375 0 0
      vertex -2.55068 0 -3
    endloop
  endfacet
  facet normal 0.5852 -0.623181 0.518832
    outer loop
      vertex -1.70163 1.89417 -3
      vertex -2.78873 3.37099 0
      vertex -3.18924 2.99489 0
    endloop
  endfacet
  facet normal 0.585236 -0.623149 0.51883
    outer loop
      vertex -2.78873 3.37099 0
      vertex -1.70163 1.89417 -3
      vertex -1.62586 1.96533 -3
    endloop
  endfacet
  facet normal 0.502483 -0.691611 0.518831
    outer loop
      vertex -1.62586 1.96533 -3
      vertex -2.34424 3.69393 0
      vertex -2.78873 3.37099 0
    endloop
  endfacet
  facet normal 0.502513 -0.691592 0.518827
    outer loop
      vertex -2.34424 3.69393 0
      vertex -1.62586 1.96533 -3
      vertex -1.54177 2.02643 -3
    endloop
  endfacet
  facet normal 0.314701 -0.794844 0.518832
    outer loop
      vertex -1.08602 2.30792 -3
      vertex -0.884847 2.38757 -3
      vertex -1.86278 3.95862 0
    endloop
  endfacet
  facet normal 0.107111 -0.84814 0.51883
    outer loop
      vertex -0.477948 2.5055 -3
      vertex -0.263282 2.53261 -3
      vertex -0.819793 4.29751 0
    endloop
  endfacet
  facet normal 0.107144 -0.848135 0.518833
    outer loop
      vertex -0.263282 2.53261 -3
      vertex -0.274708 4.36637 0
      vertex -0.819793 4.29751 0
    endloop
  endfacet
  facet normal 0.107164 -0.848133 0.518832
    outer loop
      vertex -0.274708 4.36637 0
      vertex -0.263282 2.53261 -3
      vertex -0.160158 2.54564 -3
    endloop
  endfacet
  facet normal -0.314741 -0.79483 0.518829
    outer loop
      vertex 0.884847 2.38757 -3
      vertex 1.35195 4.16087 0
      vertex 0.788202 2.42584 -3
    endloop
  endfacet
  facet normal -0.314698 -0.794845 0.518832
    outer loop
      vertex 1.35195 4.16087 0
      vertex 0.884847 2.38757 -3
      vertex 1.86278 3.95862 0
    endloop
  endfacet
  facet normal -0.314701 -0.794844 0.518832
    outer loop
      vertex 1.08602 2.30792 -3
      vertex 1.86278 3.95862 0
      vertex 0.884847 2.38757 -3
    endloop
  endfacet
  facet normal -0.502481 -0.691613 0.51883
    outer loop
      vertex 1.54177 2.02643 -3
      vertex 2.34424 3.69393 0
      vertex 1.36672 2.15361 -3
    endloop
  endfacet
  facet normal -0.585236 -0.623149 0.51883
    outer loop
      vertex 1.70163 1.89417 -3
      vertex 2.78873 3.37099 0
      vertex 1.62586 1.96533 -3
    endloop
  endfacet
  facet normal -0.5852 -0.623181 0.518832
    outer loop
      vertex 2.78873 3.37099 0
      vertex 1.70163 1.89417 -3
      vertex 3.18924 2.99489 0
    endloop
  endfacet
  facet normal -0.721799 -0.458062 0.518831
    outer loop
      vertex 2.06354 1.49925 -3
      vertex 3.83384 2.10767 0
      vertex 3.53945 2.57156 0
    endloop
  endfacet
  facet normal -0.721777 -0.458101 0.518827
    outer loop
      vertex 3.83384 2.10767 0
      vertex 2.06354 1.49925 -3
      vertex 2.11924 1.41149 -3
    endloop
  endfacet
  facet normal -0.658693 -0.544919 0.518832
    outer loop
      vertex 1.99728 1.57934 -3
      vertex 3.53945 2.57156 0
      vertex 3.18924 2.99489 0
    endloop
  endfacet
  facet normal -0.658679 -0.544938 0.518831
    outer loop
      vertex 3.53945 2.57156 0
      vertex 1.99728 1.57934 -3
      vertex 2.06354 1.49925 -3
    endloop
  endfacet
  facet normal -0.773515 -0.363991 0.51883
    outer loop
      vertex 2.37156 0.938965 -3
      vertex 4.06777 1.61054 0
      vertex 2.27943 1.13475 -3
    endloop
  endfacet
  facet normal 0.853188 -0.0536934 0.518832
    outer loop
      vertex -2.54415 0.103739 -3
      vertex -2.53056 0.319684 -3
      vertex -4.3405 0.548332 0
    endloop
  endfacet
  facet normal 0.839737 -0.160172 0.518832
    outer loop
      vertex -2.53056 0.319684 -3
      vertex -2.49002 0.532224 -3
      vertex -4.3405 0.548332 0
    endloop
  endfacet
  facet normal 0.658699 -0.544912 0.518831
    outer loop
      vertex -1.99728 1.57934 -3
      vertex -1.85936 1.74606 -3
      vertex -3.18924 2.99489 0
    endloop
  endfacet
  facet normal -0.721811 -0.458041 0.518832
    outer loop
      vertex 2.23517 1.2288 -3
      vertex 3.83384 2.10767 0
      vertex 2.11924 1.41149 -3
    endloop
  endfacet
  facet normal 0.904828 0.425778 0
    outer loop
      vertex 27.8933 11.0437 0
      vertex 26.2892 14.4526 -3
      vertex 26.2892 14.4526 0
    endloop
  endfacet
  facet normal 0.904828 0.425778 0
    outer loop
      vertex 26.2892 14.4526 -3
      vertex 27.8933 11.0437 0
      vertex 27.8933 11.0437 -3
    endloop
  endfacet
  facet normal -0.951056 0.30902 0
    outer loop
      vertex -29.0575 7.4607 -3
      vertex -27.8933 11.0437 0
      vertex -27.8933 11.0437 -3
    endloop
  endfacet
  facet normal -0.951056 0.30902 0
    outer loop
      vertex -27.8933 11.0437 0
      vertex -29.0575 7.4607 -3
      vertex -29.0575 7.4607 0
    endloop
  endfacet
  facet normal 0.844331 0.535822 0
    outer loop
      vertex 26.2892 14.4526 0
      vertex 24.2705 17.6336 -3
      vertex 24.2705 17.6336 0
    endloop
  endfacet
  facet normal 0.844331 0.535822 0
    outer loop
      vertex 24.2705 17.6336 -3
      vertex 26.2892 14.4526 0
      vertex 26.2892 14.4526 -3
    endloop
  endfacet
  facet normal 0.368126 0.929776 -0
    outer loop
      vertex 12.7734 27.1448 -3
      vertex 9.27051 28.5317 0
      vertex 12.7734 27.1448 0
    endloop
  endfacet
  facet normal 0.368126 0.929776 0
    outer loop
      vertex 9.27051 28.5317 0
      vertex 12.7734 27.1448 -3
      vertex 9.27051 28.5317 -3
    endloop
  endfacet
  facet normal -0.368126 0.929776 0
    outer loop
      vertex -9.27051 28.5317 -3
      vertex -12.7734 27.1448 0
      vertex -9.27051 28.5317 0
    endloop
  endfacet
  facet normal -0.368126 0.929776 0
    outer loop
      vertex -12.7734 27.1448 0
      vertex -9.27051 28.5317 -3
      vertex -12.7734 27.1448 -3
    endloop
  endfacet
  facet normal -0.904828 0.425778 0
    outer loop
      vertex -27.8933 11.0437 -3
      vertex -26.2892 14.4526 0
      vertex -26.2892 14.4526 -3
    endloop
  endfacet
  facet normal -0.904828 0.425778 0
    outer loop
      vertex -26.2892 14.4526 0
      vertex -27.8933 11.0437 -3
      vertex -27.8933 11.0437 0
    endloop
  endfacet
  facet normal 0.998026 -0.0628013 0
    outer loop
      vertex 29.7634 -3.76 0
      vertex 30 0 -3
      vertex 30 0 0
    endloop
  endfacet
  facet normal 0.998026 -0.0628013 0
    outer loop
      vertex 30 0 -3
      vertex 29.7634 -3.76 0
      vertex 29.7634 -3.76 -3
    endloop
  endfacet
  facet normal 0.368126 -0.929776 0
    outer loop
      vertex 9.27051 -28.5317 -3
      vertex 12.7734 -27.1448 0
      vertex 9.27051 -28.5317 0
    endloop
  endfacet
  facet normal 0.368126 -0.929776 0
    outer loop
      vertex 12.7734 -27.1448 0
      vertex 9.27051 -28.5317 -3
      vertex 12.7734 -27.1448 -3
    endloop
  endfacet
  facet normal 0.125337 0.992114 -0
    outer loop
      vertex 5.62144 29.4686 -3
      vertex 1.88371 29.9408 0
      vertex 5.62144 29.4686 0
    endloop
  endfacet
  facet normal 0.125337 0.992114 0
    outer loop
      vertex 1.88371 29.9408 0
      vertex 5.62144 29.4686 -3
      vertex 1.88371 29.9408 -3
    endloop
  endfacet
  facet normal 0.58778 0.809021 -0
    outer loop
      vertex 19.1227 23.1154 -3
      vertex 16.0748 25.3298 0
      vertex 19.1227 23.1154 0
    endloop
  endfacet
  facet normal 0.58778 0.809021 0
    outer loop
      vertex 16.0748 25.3298 0
      vertex 19.1227 23.1154 -3
      vertex 16.0748 25.3298 -3
    endloop
  endfacet
  facet normal -0.770514 0.637423 0
    outer loop
      vertex -24.2705 17.6336 -3
      vertex -21.8691 20.5364 0
      vertex -21.8691 20.5364 -3
    endloop
  endfacet
  facet normal -0.770514 0.637423 0
    outer loop
      vertex -21.8691 20.5364 0
      vertex -24.2705 17.6336 -3
      vertex -24.2705 17.6336 0
    endloop
  endfacet
  facet normal -0.481762 0.876302 0
    outer loop
      vertex -12.7734 27.1448 -3
      vertex -16.0748 25.3298 0
      vertex -12.7734 27.1448 0
    endloop
  endfacet
  facet normal -0.481762 0.876302 0
    outer loop
      vertex -16.0748 25.3298 0
      vertex -12.7734 27.1448 -3
      vertex -16.0748 25.3298 -3
    endloop
  endfacet
  facet normal -0.58778 0.809021 0
    outer loop
      vertex -16.0748 25.3298 -3
      vertex -19.1227 23.1154 0
      vertex -16.0748 25.3298 0
    endloop
  endfacet
  facet normal -0.58778 0.809021 0
    outer loop
      vertex -19.1227 23.1154 0
      vertex -16.0748 25.3298 -3
      vertex -19.1227 23.1154 -3
    endloop
  endfacet
  facet normal 0.998026 0.0628013 0
    outer loop
      vertex 30 0 0
      vertex 29.7634 3.76 -3
      vertex 29.7634 3.76 0
    endloop
  endfacet
  facet normal 0.998026 0.0628013 0
    outer loop
      vertex 29.7634 3.76 -3
      vertex 30 0 0
      vertex 30 0 -3
    endloop
  endfacet
  facet normal 0.951056 -0.30902 0
    outer loop
      vertex 27.8933 -11.0437 0
      vertex 29.0575 -7.4607 -3
      vertex 29.0575 -7.4607 0
    endloop
  endfacet
  facet normal 0.951056 -0.30902 0
    outer loop
      vertex 29.0575 -7.4607 -3
      vertex 27.8933 -11.0437 0
      vertex 27.8933 -11.0437 -3
    endloop
  endfacet
  facet normal -0.125337 -0.992114 0
    outer loop
      vertex -5.62144 -29.4686 -3
      vertex -1.88371 -29.9408 0
      vertex -5.62144 -29.4686 0
    endloop
  endfacet
  facet normal -0.125337 -0.992114 -0
    outer loop
      vertex -1.88371 -29.9408 0
      vertex -5.62144 -29.4686 -3
      vertex -1.88371 -29.9408 -3
    endloop
  endfacet
  facet normal 0.248684 -0.968585 0
    outer loop
      vertex 5.62144 -29.4686 -3
      vertex 9.27051 -28.5317 0
      vertex 5.62144 -29.4686 0
    endloop
  endfacet
  facet normal 0.248684 -0.968585 0
    outer loop
      vertex 9.27051 -28.5317 0
      vertex 5.62144 -29.4686 -3
      vertex 9.27051 -28.5317 -3
    endloop
  endfacet
  facet normal 0.481762 -0.876302 0
    outer loop
      vertex 12.7734 -27.1448 -3
      vertex 16.0748 -25.3298 0
      vertex 12.7734 -27.1448 0
    endloop
  endfacet
  facet normal 0.481762 -0.876302 0
    outer loop
      vertex 16.0748 -25.3298 0
      vertex 12.7734 -27.1448 -3
      vertex 16.0748 -25.3298 -3
    endloop
  endfacet
  facet normal 0.98229 0.187369 0
    outer loop
      vertex 29.7634 3.76 0
      vertex 29.0575 7.4607 -3
      vertex 29.0575 7.4607 0
    endloop
  endfacet
  facet normal 0.98229 0.187369 0
    outer loop
      vertex 29.0575 7.4607 -3
      vertex 29.7634 3.76 0
      vertex 29.7634 3.76 -3
    endloop
  endfacet
  facet normal 0.951056 0.30902 0
    outer loop
      vertex 29.0575 7.4607 0
      vertex 27.8933 11.0437 -3
      vertex 27.8933 11.0437 0
    endloop
  endfacet
  facet normal 0.951056 0.30902 0
    outer loop
      vertex 27.8933 11.0437 -3
      vertex 29.0575 7.4607 0
      vertex 29.0575 7.4607 -3
    endloop
  endfacet
  facet normal 0.684541 0.728974 -0
    outer loop
      vertex 21.8691 20.5364 -3
      vertex 19.1227 23.1154 0
      vertex 21.8691 20.5364 0
    endloop
  endfacet
  facet normal 0.684541 0.728974 0
    outer loop
      vertex 19.1227 23.1154 0
      vertex 21.8691 20.5364 -3
      vertex 19.1227 23.1154 -3
    endloop
  endfacet
  facet normal 0.770514 0.637423 0
    outer loop
      vertex 24.2705 17.6336 0
      vertex 21.8691 20.5364 -3
      vertex 21.8691 20.5364 0
    endloop
  endfacet
  facet normal 0.770514 0.637423 0
    outer loop
      vertex 21.8691 20.5364 -3
      vertex 24.2705 17.6336 0
      vertex 24.2705 17.6336 -3
    endloop
  endfacet
  facet normal 0 1 -0
    outer loop
      vertex 1.88371 29.9408 -3
      vertex -1.88371 29.9408 0
      vertex 1.88371 29.9408 0
    endloop
  endfacet
  facet normal 0 1 0
    outer loop
      vertex -1.88371 29.9408 0
      vertex 1.88371 29.9408 -3
      vertex -1.88371 29.9408 -3
    endloop
  endfacet
  facet normal 0.248684 0.968585 -0
    outer loop
      vertex 9.27051 28.5317 -3
      vertex 5.62144 29.4686 0
      vertex 9.27051 28.5317 0
    endloop
  endfacet
  facet normal 0.248684 0.968585 0
    outer loop
      vertex 5.62144 29.4686 0
      vertex 9.27051 28.5317 -3
      vertex 5.62144 29.4686 -3
    endloop
  endfacet
  facet normal -0.998026 0.0628013 0
    outer loop
      vertex -30 0 -3
      vertex -29.7634 3.76 0
      vertex -29.7634 3.76 -3
    endloop
  endfacet
  facet normal -0.998026 0.0628013 0
    outer loop
      vertex -29.7634 3.76 0
      vertex -30 0 -3
      vertex -30 0 0
    endloop
  endfacet
  facet normal -0.125337 0.992114 0
    outer loop
      vertex -1.88371 29.9408 -3
      vertex -5.62144 29.4686 0
      vertex -1.88371 29.9408 0
    endloop
  endfacet
  facet normal -0.125337 0.992114 0
    outer loop
      vertex -5.62144 29.4686 0
      vertex -1.88371 29.9408 -3
      vertex -5.62144 29.4686 -3
    endloop
  endfacet
  facet normal -0.248684 0.968585 0
    outer loop
      vertex -5.62144 29.4686 -3
      vertex -9.27051 28.5317 0
      vertex -5.62144 29.4686 0
    endloop
  endfacet
  facet normal -0.248684 0.968585 0
    outer loop
      vertex -9.27051 28.5317 0
      vertex -5.62144 29.4686 -3
      vertex -9.27051 28.5317 -3
    endloop
  endfacet
  facet normal -0.684541 0.728974 0
    outer loop
      vertex -19.1227 23.1154 -3
      vertex -21.8691 20.5364 0
      vertex -19.1227 23.1154 0
    endloop
  endfacet
  facet normal -0.684541 0.728974 0
    outer loop
      vertex -21.8691 20.5364 0
      vertex -19.1227 23.1154 -3
      vertex -21.8691 20.5364 -3
    endloop
  endfacet
  facet normal 0.98229 -0.187369 0
    outer loop
      vertex 29.0575 -7.4607 0
      vertex 29.7634 -3.76 -3
      vertex 29.7634 -3.76 0
    endloop
  endfacet
  facet normal 0.98229 -0.187369 0
    outer loop
      vertex 29.7634 -3.76 -3
      vertex 29.0575 -7.4607 0
      vertex 29.0575 -7.4607 -3
    endloop
  endfacet
  facet normal -0.248684 -0.968585 0
    outer loop
      vertex -9.27051 -28.5317 -3
      vertex -5.62144 -29.4686 0
      vertex -9.27051 -28.5317 0
    endloop
  endfacet
  facet normal -0.248684 -0.968585 -0
    outer loop
      vertex -5.62144 -29.4686 0
      vertex -9.27051 -28.5317 -3
      vertex -5.62144 -29.4686 -3
    endloop
  endfacet
  facet normal 0.125337 -0.992114 0
    outer loop
      vertex 1.88371 -29.9408 -3
      vertex 5.62144 -29.4686 0
      vertex 1.88371 -29.9408 0
    endloop
  endfacet
  facet normal 0.125337 -0.992114 0
    outer loop
      vertex 5.62144 -29.4686 0
      vertex 1.88371 -29.9408 -3
      vertex 5.62144 -29.4686 -3
    endloop
  endfacet
  facet normal 0.481762 0.876302 -0
    outer loop
      vertex 16.0748 25.3298 -3
      vertex 12.7734 27.1448 0
      vertex 16.0748 25.3298 0
    endloop
  endfacet
  facet normal 0.481762 0.876302 0
    outer loop
      vertex 12.7734 27.1448 0
      vertex 16.0748 25.3298 -3
      vertex 12.7734 27.1448 -3
    endloop
  endfacet
  facet normal -0.98229 0.187369 0
    outer loop
      vertex -29.7634 3.76 -3
      vertex -29.0575 7.4607 0
      vertex -29.0575 7.4607 -3
    endloop
  endfacet
  facet normal -0.98229 0.187369 0
    outer loop
      vertex -29.0575 7.4607 0
      vertex -29.7634 3.76 -3
      vertex -29.7634 3.76 0
    endloop
  endfacet
  facet normal -0.844331 0.535822 0
    outer loop
      vertex -26.2892 14.4526 -3
      vertex -24.2705 17.6336 0
      vertex -24.2705 17.6336 -3
    endloop
  endfacet
  facet normal -0.844331 0.535822 0
    outer loop
      vertex -24.2705 17.6336 0
      vertex -26.2892 14.4526 -3
      vertex -26.2892 14.4526 0
    endloop
  endfacet
  facet normal 0.844331 -0.535822 0
    outer loop
      vertex 24.2705 -17.6336 0
      vertex 26.2892 -14.4526 -3
      vertex 26.2892 -14.4526 0
    endloop
  endfacet
  facet normal 0.844331 -0.535822 0
    outer loop
      vertex 26.2892 -14.4526 -3
      vertex 24.2705 -17.6336 0
      vertex 24.2705 -17.6336 -3
    endloop
  endfacet
  facet normal -0.998026 -0.0628013 0
    outer loop
      vertex -29.7634 -3.76 -3
      vertex -30 0 0
      vertex -30 0 -3
    endloop
  endfacet
  facet normal -0.998026 -0.0628013 0
    outer loop
      vertex -30 0 0
      vertex -29.7634 -3.76 -3
      vertex -29.7634 -3.76 0
    endloop
  endfacet
  facet normal -0.951056 -0.30902 0
    outer loop
      vertex -27.8933 -11.0437 -3
      vertex -29.0575 -7.4607 0
      vertex -29.0575 -7.4607 -3
    endloop
  endfacet
  facet normal -0.951056 -0.30902 0
    outer loop
      vertex -29.0575 -7.4607 0
      vertex -27.8933 -11.0437 -3
      vertex -27.8933 -11.0437 0
    endloop
  endfacet
  facet normal -0.770514 -0.637423 0
    outer loop
      vertex -21.8691 -20.5364 -3
      vertex -24.2705 -17.6336 0
      vertex -24.2705 -17.6336 -3
    endloop
  endfacet
  facet normal -0.770514 -0.637423 0
    outer loop
      vertex -24.2705 -17.6336 0
      vertex -21.8691 -20.5364 -3
      vertex -21.8691 -20.5364 0
    endloop
  endfacet
  facet normal 0.904828 -0.425778 0
    outer loop
      vertex 26.2892 -14.4526 0
      vertex 27.8933 -11.0437 -3
      vertex 27.8933 -11.0437 0
    endloop
  endfacet
  facet normal 0.904828 -0.425778 0
    outer loop
      vertex 27.8933 -11.0437 -3
      vertex 26.2892 -14.4526 0
      vertex 26.2892 -14.4526 -3
    endloop
  endfacet
  facet normal -0.684541 -0.728974 0
    outer loop
      vertex -21.8691 -20.5364 -3
      vertex -19.1227 -23.1154 0
      vertex -21.8691 -20.5364 0
    endloop
  endfacet
  facet normal -0.684541 -0.728974 -0
    outer loop
      vertex -19.1227 -23.1154 0
      vertex -21.8691 -20.5364 -3
      vertex -19.1227 -23.1154 -3
    endloop
  endfacet
  facet normal 0 -1 0
    outer loop
      vertex -1.88371 -29.9408 -3
      vertex 1.88371 -29.9408 0
      vertex -1.88371 -29.9408 0
    endloop
  endfacet
  facet normal 0 -1 -0
    outer loop
      vertex 1.88371 -29.9408 0
      vertex -1.88371 -29.9408 -3
      vertex 1.88371 -29.9408 -3
    endloop
  endfacet
  facet normal -0.58778 -0.809021 0
    outer loop
      vertex -19.1227 -23.1154 -3
      vertex -16.0748 -25.3298 0
      vertex -19.1227 -23.1154 0
    endloop
  endfacet
  facet normal -0.58778 -0.809021 -0
    outer loop
      vertex -16.0748 -25.3298 0
      vertex -19.1227 -23.1154 -3
      vertex -16.0748 -25.3298 -3
    endloop
  endfacet
  facet normal -0.481762 -0.876302 0
    outer loop
      vertex -16.0748 -25.3298 -3
      vertex -12.7734 -27.1448 0
      vertex -16.0748 -25.3298 0
    endloop
  endfacet
  facet normal -0.481762 -0.876302 -0
    outer loop
      vertex -12.7734 -27.1448 0
      vertex -16.0748 -25.3298 -3
      vertex -12.7734 -27.1448 -3
    endloop
  endfacet
  facet normal 0 0 -1
    outer loop
      vertex 2.55068 0 -3
      vertex 30 0 -3
      vertex 29.7634 -3.76 -3
    endloop
  endfacet
  facet normal 0 0 -1
    outer loop
      vertex 2.53056 -0.319684 -3
      vertex 29.7634 -3.76 -3
      vertex 29.0575 -7.4607 -3
    endloop
  endfacet
  facet normal 0 0 -1
    outer loop
      vertex 30 0 -3
      vertex 2.55068 0 -3
      vertex 29.7634 3.76 -3
    endloop
  endfacet
  facet normal 0 0 -1
    outer loop
      vertex 2.47054 -0.634326 -3
      vertex 29.0575 -7.4607 -3
      vertex 27.8933 -11.0437 -3
    endloop
  endfacet
  facet normal 0 0 -1
    outer loop
      vertex 2.54415 0.103739 -3
      vertex 29.7634 3.76 -3
      vertex 2.55068 0 -3
    endloop
  endfacet
  facet normal 0 0 -1
    outer loop
      vertex 2.37156 -0.938965 -3
      vertex 27.8933 -11.0437 -3
      vertex 26.2892 -14.4526 -3
    endloop
  endfacet
  facet normal 0 0 -1
    outer loop
      vertex 2.53056 0.319684 -3
      vertex 29.7634 3.76 -3
      vertex 2.54415 0.103739 -3
    endloop
  endfacet
  facet normal 0 0 -1
    outer loop
      vertex 2.23517 -1.2288 -3
      vertex 26.2892 -14.4526 -3
      vertex 24.2705 -17.6336 -3
    endloop
  endfacet
  facet normal -0 0 -1
    outer loop
      vertex 29.7634 3.76 -3
      vertex 2.53056 0.319684 -3
      vertex 29.0575 7.4607 -3
    endloop
  endfacet
  facet normal 0 0 -1
    outer loop
      vertex 2.06354 -1.49925 -3
      vertex 24.2705 -17.6336 -3
      vertex 21.8691 -20.5364 -3
    endloop
  endfacet
  facet normal 0 0 -1
    outer loop
      vertex 2.49002 0.532224 -3
      vertex 29.0575 7.4607 -3
      vertex 2.53056 0.319684 -3
    endloop
  endfacet
  facet normal 0 0 -1
    outer loop
      vertex 1.85936 -1.74606 -3
      vertex 21.8691 -20.5364 -3
      vertex 19.1227 -23.1154 -3
    endloop
  endfacet
  facet normal 0 0 -1
    outer loop
      vertex 2.47054 0.634326 -3
      vertex 29.0575 7.4607 -3
      vertex 2.49002 0.532224 -3
    endloop
  endfacet
  facet normal 0 0 -1
    outer loop
      vertex 1.62586 -1.96533 -3
      vertex 19.1227 -23.1154 -3
      vertex 16.0748 -25.3298 -3
    endloop
  endfacet
  facet normal -0 0 -1
    outer loop
      vertex 29.0575 7.4607 -3
      vertex 2.47054 0.634326 -3
      vertex 27.8933 11.0437 -3
    endloop
  endfacet
  facet normal 0 0 -1
    outer loop
      vertex 1.36672 -2.15361 -3
      vertex 16.0748 -25.3298 -3
      vertex 12.7734 -27.1448 -3
    endloop
  endfacet
  facet normal 0 0 -1
    outer loop
      vertex 2.43842 0.733183 -3
      vertex 27.8933 11.0437 -3
      vertex 2.47054 0.634326 -3
    endloop
  endfacet
  facet normal 0 0 -1
    outer loop
      vertex 1.08602 -2.30792 -3
      vertex 12.7734 -27.1448 -3
      vertex 9.27051 -28.5317 -3
    endloop
  endfacet
  facet normal 0 0 -1
    outer loop
      vertex 2.37156 0.938965 -3
      vertex 27.8933 11.0437 -3
      vertex 2.43842 0.733183 -3
    endloop
  endfacet
  facet normal 0 0 -1
    outer loop
      vertex 0.788202 -2.42584 -3
      vertex 9.27051 -28.5317 -3
      vertex 5.62144 -29.4686 -3
    endloop
  endfacet
  facet normal -0 0 -1
    outer loop
      vertex 27.8933 11.0437 -3
      vertex 2.37156 0.938965 -3
      vertex 26.2892 14.4526 -3
    endloop
  endfacet
  facet normal 0 0 -1
    outer loop
      vertex 2.27943 1.13475 -3
      vertex 26.2892 14.4526 -3
      vertex 2.37156 0.938965 -3
    endloop
  endfacet
  facet normal 0 0 -1
    outer loop
      vertex 29.7634 -3.76 -3
      vertex 2.54415 -0.103739 -3
      vertex 2.55068 0 -3
    endloop
  endfacet
  facet normal 0 0 -1
    outer loop
      vertex 29.7634 -3.76 -3
      vertex 2.53056 -0.319684 -3
      vertex 2.54415 -0.103739 -3
    endloop
  endfacet
  facet normal 0 0 -1
    outer loop
      vertex 29.0575 -7.4607 -3
      vertex 2.49002 -0.532224 -3
      vertex 2.53056 -0.319684 -3
    endloop
  endfacet
  facet normal 0 0 -1
    outer loop
      vertex 29.0575 -7.4607 -3
      vertex 2.47054 -0.634326 -3
      vertex 2.49002 -0.532224 -3
    endloop
  endfacet
  facet normal 0 0 -1
    outer loop
      vertex 27.8933 -11.0437 -3
      vertex 2.43842 -0.733183 -3
      vertex 2.47054 -0.634326 -3
    endloop
  endfacet
  facet normal 0 0 -1
    outer loop
      vertex 27.8933 -11.0437 -3
      vertex 2.37156 -0.938965 -3
      vertex 2.43842 -0.733183 -3
    endloop
  endfacet
  facet normal 0 0 -1
    outer loop
      vertex 26.2892 -14.4526 -3
      vertex 2.27943 -1.13475 -3
      vertex 2.37156 -0.938965 -3
    endloop
  endfacet
  facet normal 0 0 -1
    outer loop
      vertex 26.2892 -14.4526 -3
      vertex 2.23517 -1.2288 -3
      vertex 2.27943 -1.13475 -3
    endloop
  endfacet
  facet normal 0 0 -1
    outer loop
      vertex 24.2705 -17.6336 -3
      vertex 2.11924 -1.41149 -3
      vertex 2.23517 -1.2288 -3
    endloop
  endfacet
  facet normal 0 0 -1
    outer loop
      vertex 24.2705 -17.6336 -3
      vertex 2.06354 -1.49925 -3
      vertex 2.11924 -1.41149 -3
    endloop
  endfacet
  facet normal 0 0 -1
    outer loop
      vertex 21.8691 -20.5364 -3
      vertex 1.99728 -1.57934 -3
      vertex 2.06354 -1.49925 -3
    endloop
  endfacet
  facet normal 0 0 -1
    outer loop
      vertex 0.477948 -2.5055 -3
      vertex 5.62144 -29.4686 -3
      vertex 1.88371 -29.9408 -3
    endloop
  endfacet
  facet normal 0 0 -1
    outer loop
      vertex 21.8691 -20.5364 -3
      vertex 1.85936 -1.74606 -3
      vertex 1.99728 -1.57934 -3
    endloop
  endfacet
  facet normal 0 0 -1
    outer loop
      vertex 19.1227 -23.1154 -3
      vertex 1.70163 -1.89417 -3
      vertex 1.85936 -1.74606 -3
    endloop
  endfacet
  facet normal 0 0 -1
    outer loop
      vertex 19.1227 -23.1154 -3
      vertex 1.62586 -1.96533 -3
      vertex 1.70163 -1.89417 -3
    endloop
  endfacet
  facet normal 0 0 -1
    outer loop
      vertex 16.0748 -25.3298 -3
      vertex 1.54177 -2.02643 -3
      vertex 1.62586 -1.96533 -3
    endloop
  endfacet
  facet normal 0 0 -1
    outer loop
      vertex 16.0748 -25.3298 -3
      vertex 1.36672 -2.15361 -3
      vertex 1.54177 -2.02643 -3
    endloop
  endfacet
  facet normal 0 0 -1
    outer loop
      vertex 12.7734 -27.1448 -3
      vertex 1.17711 -2.25784 -3
      vertex 1.36672 -2.15361 -3
    endloop
  endfacet
  facet normal 0 0 -1
    outer loop
      vertex 12.7734 -27.1448 -3
      vertex 1.08602 -2.30792 -3
      vertex 1.17711 -2.25784 -3
    endloop
  endfacet
  facet normal 0 0 -1
    outer loop
      vertex 9.27051 -28.5317 -3
      vertex 0.884847 -2.38757 -3
      vertex 1.08602 -2.30792 -3
    endloop
  endfacet
  facet normal 0 0 -1
    outer loop
      vertex 9.27051 -28.5317 -3
      vertex 0.788202 -2.42584 -3
      vertex 0.884847 -2.38757 -3
    endloop
  endfacet
  facet normal 0 0 -1
    outer loop
      vertex 5.62144 -29.4686 -3
      vertex 0.578627 -2.47965 -3
      vertex 0.788202 -2.42584 -3
    endloop
  endfacet
  facet normal 0 0 -1
    outer loop
      vertex 5.62144 -29.4686 -3
      vertex 0.477948 -2.5055 -3
      vertex 0.578627 -2.47965 -3
    endloop
  endfacet
  facet normal 0 0 -1
    outer loop
      vertex 1.88371 -29.9408 -3
      vertex 0.263282 -2.53261 -3
      vertex 0.477948 -2.5055 -3
    endloop
  endfacet
  facet normal 0 0 -1
    outer loop
      vertex 1.88371 -29.9408 -3
      vertex 0.160158 -2.54564 -3
      vertex 0.263282 -2.53261 -3
    endloop
  endfacet
  facet normal 0 0 -1
    outer loop
      vertex 1.88371 -29.9408 -3
      vertex -0.160158 -2.54564 -3
      vertex 0.160158 -2.54564 -3
    endloop
  endfacet
  facet normal 0 0 -1
    outer loop
      vertex -1.88371 -29.9408 -3
      vertex -0.160158 -2.54564 -3
      vertex 1.88371 -29.9408 -3
    endloop
  endfacet
  facet normal -0 0 -1
    outer loop
      vertex -0.160158 -2.54564 -3
      vertex -1.88371 -29.9408 -3
      vertex -0.263282 -2.53261 -3
    endloop
  endfacet
  facet normal -0 0 -1
    outer loop
      vertex -0.263282 -2.53261 -3
      vertex -1.88371 -29.9408 -3
      vertex -0.477948 -2.5055 -3
    endloop
  endfacet
  facet normal 0 0 -1
    outer loop
      vertex -5.62144 -29.4686 -3
      vertex -0.477948 -2.5055 -3
      vertex -1.88371 -29.9408 -3
    endloop
  endfacet
  facet normal -0 0 -1
    outer loop
      vertex -0.477948 -2.5055 -3
      vertex -5.62144 -29.4686 -3
      vertex -0.578627 -2.47965 -3
    endloop
  endfacet
  facet normal -0 0 -1
    outer loop
      vertex -0.578627 -2.47965 -3
      vertex -5.62144 -29.4686 -3
      vertex -0.788202 -2.42584 -3
    endloop
  endfacet
  facet normal 0 0 -1
    outer loop
      vertex -9.27051 -28.5317 -3
      vertex -0.788202 -2.42584 -3
      vertex -5.62144 -29.4686 -3
    endloop
  endfacet
  facet normal -0 0 -1
    outer loop
      vertex -0.788202 -2.42584 -3
      vertex -9.27051 -28.5317 -3
      vertex -0.884847 -2.38757 -3
    endloop
  endfacet
  facet normal -0 0 -1
    outer loop
      vertex -0.884847 -2.38757 -3
      vertex -9.27051 -28.5317 -3
      vertex -1.08602 -2.30792 -3
    endloop
  endfacet
  facet normal 0 0 -1
    outer loop
      vertex -12.7734 -27.1448 -3
      vertex -1.08602 -2.30792 -3
      vertex -9.27051 -28.5317 -3
    endloop
  endfacet
  facet normal -0 0 -1
    outer loop
      vertex -1.08602 -2.30792 -3
      vertex -12.7734 -27.1448 -3
      vertex -1.17711 -2.25784 -3
    endloop
  endfacet
  facet normal -0 0 -1
    outer loop
      vertex -1.17711 -2.25784 -3
      vertex -12.7734 -27.1448 -3
      vertex -1.36672 -2.15361 -3
    endloop
  endfacet
  facet normal 0 0 -1
    outer loop
      vertex -16.0748 -25.3298 -3
      vertex -1.36672 -2.15361 -3
      vertex -12.7734 -27.1448 -3
    endloop
  endfacet
  facet normal -0 0 -1
    outer loop
      vertex -1.36672 -2.15361 -3
      vertex -16.0748 -25.3298 -3
      vertex -1.54177 -2.02643 -3
    endloop
  endfacet
  facet normal -0 0 -1
    outer loop
      vertex -1.54177 -2.02643 -3
      vertex -16.0748 -25.3298 -3
      vertex -1.62586 -1.96533 -3
    endloop
  endfacet
  facet normal 0 0 -1
    outer loop
      vertex -19.1227 -23.1154 -3
      vertex -1.62586 -1.96533 -3
      vertex -16.0748 -25.3298 -3
    endloop
  endfacet
  facet normal -0 0 -1
    outer loop
      vertex -1.62586 -1.96533 -3
      vertex -19.1227 -23.1154 -3
      vertex -1.70163 -1.89417 -3
    endloop
  endfacet
  facet normal -0 0 -1
    outer loop
      vertex -1.70163 -1.89417 -3
      vertex -19.1227 -23.1154 -3
      vertex -1.85936 -1.74606 -3
    endloop
  endfacet
  facet normal 0 0 -1
    outer loop
      vertex -21.8691 -20.5364 -3
      vertex -1.85936 -1.74606 -3
      vertex -19.1227 -23.1154 -3
    endloop
  endfacet
  facet normal -0 0 -1
    outer loop
      vertex -1.85936 -1.74606 -3
      vertex -21.8691 -20.5364 -3
      vertex -1.99728 -1.57934 -3
    endloop
  endfacet
  facet normal -0 0 -1
    outer loop
      vertex -1.99728 -1.57934 -3
      vertex -21.8691 -20.5364 -3
      vertex -2.06354 -1.49925 -3
    endloop
  endfacet
  facet normal 0 0 -1
    outer loop
      vertex -24.2705 -17.6336 -3
      vertex -2.06354 -1.49925 -3
      vertex -21.8691 -20.5364 -3
    endloop
  endfacet
  facet normal -0 0 -1
    outer loop
      vertex -2.06354 -1.49925 -3
      vertex -24.2705 -17.6336 -3
      vertex -2.11924 -1.41149 -3
    endloop
  endfacet
  facet normal -0 0 -1
    outer loop
      vertex -2.11924 -1.41149 -3
      vertex -24.2705 -17.6336 -3
      vertex -2.23517 -1.2288 -3
    endloop
  endfacet
  facet normal 0 0 -1
    outer loop
      vertex -26.2892 -14.4526 -3
      vertex -2.23517 -1.2288 -3
      vertex -24.2705 -17.6336 -3
    endloop
  endfacet
  facet normal -0 0 -1
    outer loop
      vertex -2.23517 -1.2288 -3
      vertex -26.2892 -14.4526 -3
      vertex -2.27943 -1.13475 -3
    endloop
  endfacet
  facet normal 0 0 -1
    outer loop
      vertex 2.23517 1.2288 -3
      vertex 26.2892 14.4526 -3
      vertex 2.27943 1.13475 -3
    endloop
  endfacet
  facet normal -0 0 -1
    outer loop
      vertex 26.2892 14.4526 -3
      vertex 2.23517 1.2288 -3
      vertex 24.2705 17.6336 -3
    endloop
  endfacet
  facet normal 0 0 -1
    outer loop
      vertex 2.11924 1.41149 -3
      vertex 24.2705 17.6336 -3
      vertex 2.23517 1.2288 -3
    endloop
  endfacet
  facet normal 0 0 -1
    outer loop
      vertex 2.06354 1.49925 -3
      vertex 24.2705 17.6336 -3
      vertex 2.11924 1.41149 -3
    endloop
  endfacet
  facet normal -0 0 -1
    outer loop
      vertex 24.2705 17.6336 -3
      vertex 2.06354 1.49925 -3
      vertex 21.8691 20.5364 -3
    endloop
  endfacet
  facet normal 0 0 -1
    outer loop
      vertex 1.99728 1.57934 -3
      vertex 21.8691 20.5364 -3
      vertex 2.06354 1.49925 -3
    endloop
  endfacet
  facet normal 0 0 -1
    outer loop
      vertex 1.85936 1.74606 -3
      vertex 21.8691 20.5364 -3
      vertex 1.99728 1.57934 -3
    endloop
  endfacet
  facet normal -0 0 -1
    outer loop
      vertex 21.8691 20.5364 -3
      vertex 1.85936 1.74606 -3
      vertex 19.1227 23.1154 -3
    endloop
  endfacet
  facet normal 0 0 -1
    outer loop
      vertex 1.70163 1.89417 -3
      vertex 19.1227 23.1154 -3
      vertex 1.85936 1.74606 -3
    endloop
  endfacet
  facet normal 0 0 -1
    outer loop
      vertex 1.62586 1.96533 -3
      vertex 19.1227 23.1154 -3
      vertex 1.70163 1.89417 -3
    endloop
  endfacet
  facet normal -0 0 -1
    outer loop
      vertex 19.1227 23.1154 -3
      vertex 1.62586 1.96533 -3
      vertex 16.0748 25.3298 -3
    endloop
  endfacet
  facet normal 0 0 -1
    outer loop
      vertex 1.54177 2.02643 -3
      vertex 16.0748 25.3298 -3
      vertex 1.62586 1.96533 -3
    endloop
  endfacet
  facet normal 0 0 -1
    outer loop
      vertex 1.36672 2.15361 -3
      vertex 16.0748 25.3298 -3
      vertex 1.54177 2.02643 -3
    endloop
  endfacet
  facet normal -0 0 -1
    outer loop
      vertex 16.0748 25.3298 -3
      vertex 1.36672 2.15361 -3
      vertex 12.7734 27.1448 -3
    endloop
  endfacet
  facet normal 0 0 -1
    outer loop
      vertex 1.17711 2.25784 -3
      vertex 12.7734 27.1448 -3
      vertex 1.36672 2.15361 -3
    endloop
  endfacet
  facet normal 0 0 -1
    outer loop
      vertex 1.08602 2.30792 -3
      vertex 12.7734 27.1448 -3
      vertex 1.17711 2.25784 -3
    endloop
  endfacet
  facet normal -0 0 -1
    outer loop
      vertex 12.7734 27.1448 -3
      vertex 1.08602 2.30792 -3
      vertex 9.27051 28.5317 -3
    endloop
  endfacet
  facet normal 0 0 -1
    outer loop
      vertex 0.884847 2.38757 -3
      vertex 9.27051 28.5317 -3
      vertex 1.08602 2.30792 -3
    endloop
  endfacet
  facet normal 0 0 -1
    outer loop
      vertex 0.788202 2.42584 -3
      vertex 9.27051 28.5317 -3
      vertex 0.884847 2.38757 -3
    endloop
  endfacet
  facet normal -0 0 -1
    outer loop
      vertex 9.27051 28.5317 -3
      vertex 0.788202 2.42584 -3
      vertex 5.62144 29.4686 -3
    endloop
  endfacet
  facet normal 0 0 -1
    outer loop
      vertex 0.578627 2.47965 -3
      vertex 5.62144 29.4686 -3
      vertex 0.788202 2.42584 -3
    endloop
  endfacet
  facet normal 0 0 -1
    outer loop
      vertex 0.477948 2.5055 -3
      vertex 5.62144 29.4686 -3
      vertex 0.578627 2.47965 -3
    endloop
  endfacet
  facet normal -0 0 -1
    outer loop
      vertex 5.62144 29.4686 -3
      vertex 0.477948 2.5055 -3
      vertex 1.88371 29.9408 -3
    endloop
  endfacet
  facet normal 0 0 -1
    outer loop
      vertex 0.263282 2.53261 -3
      vertex 1.88371 29.9408 -3
      vertex 0.477948 2.5055 -3
    endloop
  endfacet
  facet normal 0 0 -1
    outer loop
      vertex 0.160158 2.54564 -3
      vertex 1.88371 29.9408 -3
      vertex 0.263282 2.53261 -3
    endloop
  endfacet
  facet normal 0 0 -1
    outer loop
      vertex -0.160158 2.54564 -3
      vertex 1.88371 29.9408 -3
      vertex 0.160158 2.54564 -3
    endloop
  endfacet
  facet normal 0 0 -1
    outer loop
      vertex -1.88371 29.9408 -3
      vertex -0.160158 2.54564 -3
      vertex -0.263282 2.53261 -3
    endloop
  endfacet
  facet normal 0 0 -1
    outer loop
      vertex -1.88371 29.9408 -3
      vertex -0.263282 2.53261 -3
      vertex -0.477948 2.5055 -3
    endloop
  endfacet
  facet normal 0 0 -1
    outer loop
      vertex -5.62144 29.4686 -3
      vertex -0.477948 2.5055 -3
      vertex -0.578627 2.47965 -3
    endloop
  endfacet
  facet normal 0 0 -1
    outer loop
      vertex -5.62144 29.4686 -3
      vertex -0.578627 2.47965 -3
      vertex -0.788202 2.42584 -3
    endloop
  endfacet
  facet normal 0 0 -1
    outer loop
      vertex -9.27051 28.5317 -3
      vertex -0.788202 2.42584 -3
      vertex -0.884847 2.38757 -3
    endloop
  endfacet
  facet normal 0 0 -1
    outer loop
      vertex -9.27051 28.5317 -3
      vertex -0.884847 2.38757 -3
      vertex -1.08602 2.30792 -3
    endloop
  endfacet
  facet normal 0 0 -1
    outer loop
      vertex -12.7734 27.1448 -3
      vertex -1.08602 2.30792 -3
      vertex -1.17711 2.25784 -3
    endloop
  endfacet
  facet normal 0 0 -1
    outer loop
      vertex -12.7734 27.1448 -3
      vertex -1.17711 2.25784 -3
      vertex -1.36672 2.15361 -3
    endloop
  endfacet
  facet normal 0 0 -1
    outer loop
      vertex -16.0748 25.3298 -3
      vertex -1.36672 2.15361 -3
      vertex -1.54177 2.02643 -3
    endloop
  endfacet
  facet normal 0 0 -1
    outer loop
      vertex -16.0748 25.3298 -3
      vertex -1.54177 2.02643 -3
      vertex -1.62586 1.96533 -3
    endloop
  endfacet
  facet normal 0 0 -1
    outer loop
      vertex -19.1227 23.1154 -3
      vertex -1.62586 1.96533 -3
      vertex -1.70163 1.89417 -3
    endloop
  endfacet
  facet normal 0 0 -1
    outer loop
      vertex -19.1227 23.1154 -3
      vertex -1.70163 1.89417 -3
      vertex -1.85936 1.74606 -3
    endloop
  endfacet
  facet normal 0 0 -1
    outer loop
      vertex -0.160158 2.54564 -3
      vertex -1.88371 29.9408 -3
      vertex 1.88371 29.9408 -3
    endloop
  endfacet
  facet normal 0 0 -1
    outer loop
      vertex -21.8691 20.5364 -3
      vertex -1.85936 1.74606 -3
      vertex -1.99728 1.57934 -3
    endloop
  endfacet
  facet normal 0 0 -1
    outer loop
      vertex -21.8691 20.5364 -3
      vertex -1.99728 1.57934 -3
      vertex -2.06354 1.49925 -3
    endloop
  endfacet
  facet normal 0 0 -1
    outer loop
      vertex -24.2705 17.6336 -3
      vertex -2.06354 1.49925 -3
      vertex -2.11924 1.41149 -3
    endloop
  endfacet
  facet normal 0 0 -1
    outer loop
      vertex -24.2705 17.6336 -3
      vertex -2.11924 1.41149 -3
      vertex -2.23517 1.2288 -3
    endloop
  endfacet
  facet normal 0 0 -1
    outer loop
      vertex -26.2892 14.4526 -3
      vertex -2.23517 1.2288 -3
      vertex -2.27943 1.13475 -3
    endloop
  endfacet
  facet normal 0 0 -1
    outer loop
      vertex -26.2892 14.4526 -3
      vertex -2.27943 1.13475 -3
      vertex -2.37156 0.938965 -3
    endloop
  endfacet
  facet normal 0 0 -1
    outer loop
      vertex -27.8933 11.0437 -3
      vertex -2.37156 0.938965 -3
      vertex -2.43842 0.733183 -3
    endloop
  endfacet
  facet normal 0 0 -1
    outer loop
      vertex -27.8933 11.0437 -3
      vertex -2.43842 0.733183 -3
      vertex -2.47054 0.634326 -3
    endloop
  endfacet
  facet normal 0 0 -1
    outer loop
      vertex -29.0575 7.4607 -3
      vertex -2.47054 0.634326 -3
      vertex -2.49002 0.532224 -3
    endloop
  endfacet
  facet normal 0 0 -1
    outer loop
      vertex -29.0575 7.4607 -3
      vertex -2.49002 0.532224 -3
      vertex -2.53056 0.319684 -3
    endloop
  endfacet
  facet normal 0 0 -1
    outer loop
      vertex -29.7634 3.76 -3
      vertex -2.53056 0.319684 -3
      vertex -2.54415 0.103739 -3
    endloop
  endfacet
  facet normal 0 0 -1
    outer loop
      vertex -29.7634 3.76 -3
      vertex -2.54415 0.103739 -3
      vertex -2.55068 0 -3
    endloop
  endfacet
  facet normal -0 0 -1
    outer loop
      vertex -2.27943 -1.13475 -3
      vertex -26.2892 -14.4526 -3
      vertex -2.37156 -0.938965 -3
    endloop
  endfacet
  facet normal 0 0 -1
    outer loop
      vertex -0.477948 2.5055 -3
      vertex -5.62144 29.4686 -3
      vertex -1.88371 29.9408 -3
    endloop
  endfacet
  facet normal 0 0 -1
    outer loop
      vertex -27.8933 -11.0437 -3
      vertex -2.37156 -0.938965 -3
      vertex -26.2892 -14.4526 -3
    endloop
  endfacet
  facet normal 0 0 -1
    outer loop
      vertex -0.788202 2.42584 -3
      vertex -9.27051 28.5317 -3
      vertex -5.62144 29.4686 -3
    endloop
  endfacet
  facet normal -0 0 -1
    outer loop
      vertex -2.37156 -0.938965 -3
      vertex -27.8933 -11.0437 -3
      vertex -2.43842 -0.733183 -3
    endloop
  endfacet
  facet normal 0 0 -1
    outer loop
      vertex -1.08602 2.30792 -3
      vertex -12.7734 27.1448 -3
      vertex -9.27051 28.5317 -3
    endloop
  endfacet
  facet normal -0 0 -1
    outer loop
      vertex -2.43842 -0.733183 -3
      vertex -27.8933 -11.0437 -3
      vertex -2.47054 -0.634326 -3
    endloop
  endfacet
  facet normal 0 0 -1
    outer loop
      vertex -1.36672 2.15361 -3
      vertex -16.0748 25.3298 -3
      vertex -12.7734 27.1448 -3
    endloop
  endfacet
  facet normal 0 0 -1
    outer loop
      vertex -29.0575 -7.4607 -3
      vertex -2.47054 -0.634326 -3
      vertex -27.8933 -11.0437 -3
    endloop
  endfacet
  facet normal 0 0 -1
    outer loop
      vertex -1.62586 1.96533 -3
      vertex -19.1227 23.1154 -3
      vertex -16.0748 25.3298 -3
    endloop
  endfacet
  facet normal -0 0 -1
    outer loop
      vertex -2.47054 -0.634326 -3
      vertex -29.0575 -7.4607 -3
      vertex -2.49002 -0.532224 -3
    endloop
  endfacet
  facet normal 0 0 -1
    outer loop
      vertex -1.85936 1.74606 -3
      vertex -21.8691 20.5364 -3
      vertex -19.1227 23.1154 -3
    endloop
  endfacet
  facet normal -0 0 -1
    outer loop
      vertex -2.49002 -0.532224 -3
      vertex -29.0575 -7.4607 -3
      vertex -2.53056 -0.319684 -3
    endloop
  endfacet
  facet normal 0 0 -1
    outer loop
      vertex -2.06354 1.49925 -3
      vertex -24.2705 17.6336 -3
      vertex -21.8691 20.5364 -3
    endloop
  endfacet
  facet normal 0 0 -1
    outer loop
      vertex -29.7634 -3.76 -3
      vertex -2.53056 -0.319684 -3
      vertex -29.0575 -7.4607 -3
    endloop
  endfacet
  facet normal 0 0 -1
    outer loop
      vertex -2.23517 1.2288 -3
      vertex -26.2892 14.4526 -3
      vertex -24.2705 17.6336 -3
    endloop
  endfacet
  facet normal -0 0 -1
    outer loop
      vertex -2.53056 -0.319684 -3
      vertex -29.7634 -3.76 -3
      vertex -2.54415 -0.103739 -3
    endloop
  endfacet
  facet normal 0 0 -1
    outer loop
      vertex -2.37156 0.938965 -3
      vertex -27.8933 11.0437 -3
      vertex -26.2892 14.4526 -3
    endloop
  endfacet
  facet normal -0 0 -1
    outer loop
      vertex -2.54415 -0.103739 -3
      vertex -29.7634 -3.76 -3
      vertex -2.55068 0 -3
    endloop
  endfacet
  facet normal 0 0 -1
    outer loop
      vertex -2.47054 0.634326 -3
      vertex -29.0575 7.4607 -3
      vertex -27.8933 11.0437 -3
    endloop
  endfacet
  facet normal 0 0 -1
    outer loop
      vertex -30 0 -3
      vertex -2.55068 0 -3
      vertex -29.7634 -3.76 -3
    endloop
  endfacet
  facet normal 0 0 -1
    outer loop
      vertex -2.53056 0.319684 -3
      vertex -29.7634 3.76 -3
      vertex -29.0575 7.4607 -3
    endloop
  endfacet
  facet normal 0 0 -1
    outer loop
      vertex -2.55068 0 -3
      vertex -30 0 -3
      vertex -29.7634 3.76 -3
    endloop
  endfacet
  facet normal -0.98229 -0.187369 0
    outer loop
      vertex -29.0575 -7.4607 -3
      vertex -29.7634 -3.76 0
      vertex -29.7634 -3.76 -3
    endloop
  endfacet
  facet normal -0.98229 -0.187369 0
    outer loop
      vertex -29.7634 -3.76 0
      vertex -29.0575 -7.4607 -3
      vertex -29.0575 -7.4607 0
    endloop
  endfacet
  facet normal -0.844331 -0.535822 0
    outer loop
      vertex -24.2705 -17.6336 -3
      vertex -26.2892 -14.4526 0
      vertex -26.2892 -14.4526 -3
    endloop
  endfacet
  facet normal -0.844331 -0.535822 0
    outer loop
      vertex -26.2892 -14.4526 0
      vertex -24.2705 -17.6336 -3
      vertex -24.2705 -17.6336 0
    endloop
  endfacet
  facet normal -0.904828 -0.425778 0
    outer loop
      vertex -26.2892 -14.4526 -3
      vertex -27.8933 -11.0437 0
      vertex -27.8933 -11.0437 -3
    endloop
  endfacet
  facet normal -0.904828 -0.425778 0
    outer loop
      vertex -27.8933 -11.0437 0
      vertex -26.2892 -14.4526 -3
      vertex -26.2892 -14.4526 0
    endloop
  endfacet
  facet normal 0.684541 -0.728974 0
    outer loop
      vertex 19.1227 -23.1154 -3
      vertex 21.8691 -20.5364 0
      vertex 19.1227 -23.1154 0
    endloop
  endfacet
  facet normal 0.684541 -0.728974 0
    outer loop
      vertex 21.8691 -20.5364 0
      vertex 19.1227 -23.1154 -3
      vertex 21.8691 -20.5364 -3
    endloop
  endfacet
  facet normal 0.58778 -0.809021 0
    outer loop
      vertex 16.0748 -25.3298 -3
      vertex 19.1227 -23.1154 0
      vertex 16.0748 -25.3298 0
    endloop
  endfacet
  facet normal 0.58778 -0.809021 0
    outer loop
      vertex 19.1227 -23.1154 0
      vertex 16.0748 -25.3298 -3
      vertex 19.1227 -23.1154 -3
    endloop
  endfacet
  facet normal 0.770514 -0.637423 0
    outer loop
      vertex 21.8691 -20.5364 0
      vertex 24.2705 -17.6336 -3
      vertex 24.2705 -17.6336 0
    endloop
  endfacet
  facet normal 0.770514 -0.637423 0
    outer loop
      vertex 24.2705 -17.6336 -3
      vertex 21.8691 -20.5364 0
      vertex 21.8691 -20.5364 -3
    endloop
  endfacet
  facet normal -0.368126 -0.929776 0
    outer loop
      vertex -12.7734 -27.1448 -3
      vertex -9.27051 -28.5317 0
      vertex -12.7734 -27.1448 0
    endloop
  endfacet
  facet normal -0.368126 -0.929776 -0
    outer loop
      vertex -9.27051 -28.5317 0
      vertex -12.7734 -27.1448 -3
      vertex -9.27051 -28.5317 -3
    endloop
  endfacet
endsolid OpenSCAD_Model
