solid OpenSCAD_Model
  facet normal 0.994593 0.0625712 0.0828828
    outer loop
      vertex 4.875 0 0
      vertex 5.125 0 -3
      vertex 5.08459 0.642332 -3
    endloop
  endfacet
  facet normal -0.682188 -0.726465 0.0828806
    outer loop
      vertex -3.73596 -3.5083 -3
      vertex -3.10744 -3.75625 0
      vertex -3.55372 -3.33717 0
    endloop
  endfacet
  facet normal 0.366863 0.926575 0.0828809
    outer loop
      vertex 1.50646 4.6364 0
      vertex 2.07567 4.41103 0
      vertex 1.58371 4.87416 -3
    endloop
  endfacet
  facet normal 0.90171 0.424322 0.082884
    outer loop
      vertex 4.27199 2.34855 0
      vertex 4.53266 1.79461 0
      vertex 4.49107 2.46899 -3
    endloop
  endfacet
  facet normal -0.682188 0.726465 0.0828806
    outer loop
      vertex -3.73596 3.5083 -3
      vertex -3.55372 3.33717 0
      vertex -3.10744 3.75625 0
    endloop
  endfacet
  facet normal 0.480093 -0.873293 0.0828845
    outer loop
      vertex 2.07567 -4.41103 0
      vertex 2.18212 -4.63724 -3
      vertex 2.61215 -4.1161 0
    endloop
  endfacet
  facet normal 0.682199 0.726453 0.082884
    outer loop
      vertex 3.10744 3.75625 0
      vertex 3.73596 3.5083 -3
      vertex 3.2668 3.94888 -3
    endloop
  endfacet
  facet normal -0.480101 0.873289 0.0828827
    outer loop
      vertex -2.74611 4.32718 -3
      vertex -2.61215 4.1161 0
      vertex -2.18212 4.63724 -3
    endloop
  endfacet
  facet normal -0.366863 -0.926575 0.0828809
    outer loop
      vertex -2.07567 -4.41103 0
      vertex -1.58371 -4.87416 -3
      vertex -1.50646 -4.6364 0
    endloop
  endfacet
  facet normal 0 -0.996559 0.0828838
    outer loop
      vertex -0.321801 -5.11489 -3
      vertex 0.306104 -4.86538 0
      vertex -0.306104 -4.86538 0
    endloop
  endfacet
  facet normal 0 -0.996559 0.0828838
    outer loop
      vertex 0.306104 -4.86538 0
      vertex -0.321801 -5.11489 -3
      vertex 0.321801 -5.11489 -3
    endloop
  endfacet
  facet normal 0 0 -1
    outer loop
      vertex 5.08459 -0.642332 -3
      vertex 5.08459 0.642332 -3
      vertex 5.125 0 -3
    endloop
  endfacet
  facet normal 0 0 -1
    outer loop
      vertex 4.96399 -1.27454 -3
      vertex 5.08459 0.642332 -3
      vertex 5.08459 -0.642332 -3
    endloop
  endfacet
  facet normal 0 0 -1
    outer loop
      vertex 4.96399 -1.27454 -3
      vertex 4.96399 1.27454 -3
      vertex 5.08459 0.642332 -3
    endloop
  endfacet
  facet normal 0 0 -1
    outer loop
      vertex 4.7651 -1.88664 -3
      vertex 4.96399 1.27454 -3
      vertex 4.96399 -1.27454 -3
    endloop
  endfacet
  facet normal 0 0 -1
    outer loop
      vertex 4.7651 -1.88664 -3
      vertex 4.7651 1.88664 -3
      vertex 4.96399 1.27454 -3
    endloop
  endfacet
  facet normal 0 0 -1
    outer loop
      vertex 4.49107 -2.46899 -3
      vertex 4.7651 1.88664 -3
      vertex 4.7651 -1.88664 -3
    endloop
  endfacet
  facet normal 0 0 -1
    outer loop
      vertex 4.49107 -2.46899 -3
      vertex 4.49107 2.46899 -3
      vertex 4.7651 1.88664 -3
    endloop
  endfacet
  facet normal 0 0 -1
    outer loop
      vertex 4.14621 -3.0124 -3
      vertex 4.49107 2.46899 -3
      vertex 4.49107 -2.46899 -3
    endloop
  endfacet
  facet normal 0 0 -1
    outer loop
      vertex 4.14621 -3.0124 -3
      vertex 4.14621 3.0124 -3
      vertex 4.49107 2.46899 -3
    endloop
  endfacet
  facet normal 0 0 -1
    outer loop
      vertex 3.73596 -3.5083 -3
      vertex 4.14621 3.0124 -3
      vertex 4.14621 -3.0124 -3
    endloop
  endfacet
  facet normal 0 0 -1
    outer loop
      vertex 3.73596 -3.5083 -3
      vertex 3.73596 3.5083 -3
      vertex 4.14621 3.0124 -3
    endloop
  endfacet
  facet normal 0 0 -1
    outer loop
      vertex 3.2668 -3.94888 -3
      vertex 3.73596 3.5083 -3
      vertex 3.73596 -3.5083 -3
    endloop
  endfacet
  facet normal 0 0 -1
    outer loop
      vertex 3.2668 -3.94888 -3
      vertex 3.2668 3.94888 -3
      vertex 3.73596 3.5083 -3
    endloop
  endfacet
  facet normal 0 0 -1
    outer loop
      vertex 2.74611 -4.32718 -3
      vertex 3.2668 3.94888 -3
      vertex 3.2668 -3.94888 -3
    endloop
  endfacet
  facet normal 0 0 -1
    outer loop
      vertex 2.74611 -4.32718 -3
      vertex 2.74611 4.32718 -3
      vertex 3.2668 3.94888 -3
    endloop
  endfacet
  facet normal 0 0 -1
    outer loop
      vertex 2.18212 -4.63724 -3
      vertex 2.74611 4.32718 -3
      vertex 2.74611 -4.32718 -3
    endloop
  endfacet
  facet normal 0 0 -1
    outer loop
      vertex 2.18212 -4.63724 -3
      vertex 2.18212 4.63724 -3
      vertex 2.74611 4.32718 -3
    endloop
  endfacet
  facet normal 0 0 -1
    outer loop
      vertex 1.58371 -4.87416 -3
      vertex 2.18212 4.63724 -3
      vertex 2.18212 -4.63724 -3
    endloop
  endfacet
  facet normal 0 0 -1
    outer loop
      vertex 1.58371 -4.87416 -3
      vertex 1.58371 4.87416 -3
      vertex 2.18212 4.63724 -3
    endloop
  endfacet
  facet normal 0 0 -1
    outer loop
      vertex 0.960329 -5.03422 -3
      vertex 1.58371 4.87416 -3
      vertex 1.58371 -4.87416 -3
    endloop
  endfacet
  facet normal 0 0 -1
    outer loop
      vertex 0.960329 -5.03422 -3
      vertex 0.960329 5.03422 -3
      vertex 1.58371 4.87416 -3
    endloop
  endfacet
  facet normal 0 0 -1
    outer loop
      vertex 0.321801 -5.11489 -3
      vertex 0.960329 5.03422 -3
      vertex 0.960329 -5.03422 -3
    endloop
  endfacet
  facet normal 0 0 -1
    outer loop
      vertex 0.321801 -5.11489 -3
      vertex 0.321801 5.11489 -3
      vertex 0.960329 5.03422 -3
    endloop
  endfacet
  facet normal 0 0 -1
    outer loop
      vertex -0.321801 -5.11489 -3
      vertex 0.321801 5.11489 -3
      vertex 0.321801 -5.11489 -3
    endloop
  endfacet
  facet normal 0 0 -1
    outer loop
      vertex -0.321801 -5.11489 -3
      vertex -0.321801 5.11489 -3
      vertex 0.321801 5.11489 -3
    endloop
  endfacet
  facet normal 0 0 -1
    outer loop
      vertex -0.960329 -5.03422 -3
      vertex -0.321801 5.11489 -3
      vertex -0.321801 -5.11489 -3
    endloop
  endfacet
  facet normal 0 0 -1
    outer loop
      vertex -0.960329 -5.03422 -3
      vertex -0.960329 5.03422 -3
      vertex -0.321801 5.11489 -3
    endloop
  endfacet
  facet normal 0 0 -1
    outer loop
      vertex -1.58371 -4.87416 -3
      vertex -0.960329 5.03422 -3
      vertex -0.960329 -5.03422 -3
    endloop
  endfacet
  facet normal 0 0 -1
    outer loop
      vertex -1.58371 -4.87416 -3
      vertex -1.58371 4.87416 -3
      vertex -0.960329 5.03422 -3
    endloop
  endfacet
  facet normal 0 0 -1
    outer loop
      vertex -2.18212 -4.63724 -3
      vertex -1.58371 4.87416 -3
      vertex -1.58371 -4.87416 -3
    endloop
  endfacet
  facet normal 0 0 -1
    outer loop
      vertex -2.18212 -4.63724 -3
      vertex -2.18212 4.63724 -3
      vertex -1.58371 4.87416 -3
    endloop
  endfacet
  facet normal 0 0 -1
    outer loop
      vertex -2.74611 -4.32718 -3
      vertex -2.18212 4.63724 -3
      vertex -2.18212 -4.63724 -3
    endloop
  endfacet
  facet normal 0 0 -1
    outer loop
      vertex -2.74611 -4.32718 -3
      vertex -2.74611 4.32718 -3
      vertex -2.18212 4.63724 -3
    endloop
  endfacet
  facet normal 0 0 -1
    outer loop
      vertex -3.2668 -3.94888 -3
      vertex -2.74611 4.32718 -3
      vertex -2.74611 -4.32718 -3
    endloop
  endfacet
  facet normal 0 0 -1
    outer loop
      vertex -3.2668 -3.94888 -3
      vertex -3.2668 3.94888 -3
      vertex -2.74611 4.32718 -3
    endloop
  endfacet
  facet normal 0 0 -1
    outer loop
      vertex -3.73596 -3.5083 -3
      vertex -3.2668 3.94888 -3
      vertex -3.2668 -3.94888 -3
    endloop
  endfacet
  facet normal 0 0 -1
    outer loop
      vertex -3.73596 -3.5083 -3
      vertex -3.73596 3.5083 -3
      vertex -3.2668 3.94888 -3
    endloop
  endfacet
  facet normal 0 0 -1
    outer loop
      vertex -4.14621 -3.0124 -3
      vertex -3.73596 3.5083 -3
      vertex -3.73596 -3.5083 -3
    endloop
  endfacet
  facet normal 0 0 -1
    outer loop
      vertex -4.14621 -3.0124 -3
      vertex -4.14621 3.0124 -3
      vertex -3.73596 3.5083 -3
    endloop
  endfacet
  facet normal 0 0 -1
    outer loop
      vertex -4.49107 -2.46899 -3
      vertex -4.14621 3.0124 -3
      vertex -4.14621 -3.0124 -3
    endloop
  endfacet
  facet normal 0 0 -1
    outer loop
      vertex -4.49107 -2.46899 -3
      vertex -4.49107 2.46899 -3
      vertex -4.14621 3.0124 -3
    endloop
  endfacet
  facet normal 0 0 -1
    outer loop
      vertex -4.7651 -1.88664 -3
      vertex -4.49107 2.46899 -3
      vertex -4.49107 -2.46899 -3
    endloop
  endfacet
  facet normal 0 0 -1
    outer loop
      vertex -4.7651 -1.88664 -3
      vertex -4.7651 1.88664 -3
      vertex -4.49107 2.46899 -3
    endloop
  endfacet
  facet normal 0 0 -1
    outer loop
      vertex -4.96399 -1.27454 -3
      vertex -4.7651 1.88664 -3
      vertex -4.7651 -1.88664 -3
    endloop
  endfacet
  facet normal 0 0 -1
    outer loop
      vertex -4.96399 -1.27454 -3
      vertex -4.96399 1.27454 -3
      vertex -4.7651 1.88664 -3
    endloop
  endfacet
  facet normal 0 0 -1
    outer loop
      vertex -5.08459 -0.642332 -3
      vertex -4.96399 1.27454 -3
      vertex -4.96399 -1.27454 -3
    endloop
  endfacet
  facet normal 0 0 -1
    outer loop
      vertex -5.08459 -0.642332 -3
      vertex -5.08459 0.642332 -3
      vertex -4.96399 1.27454 -3
    endloop
  endfacet
  facet normal 0 -0 -1
    outer loop
      vertex -5.08459 0.642332 -3
      vertex -5.08459 -0.642332 -3
      vertex -5.125 0 -3
    endloop
  endfacet
  facet normal 0.366848 -0.926581 0.0828843
    outer loop
      vertex 1.58371 -4.87416 -3
      vertex 2.18212 -4.63724 -3
      vertex 2.07567 -4.41103 0
    endloop
  endfacet
  facet normal 0.947781 -0.307963 0.0828848
    outer loop
      vertex 4.72184 -1.21236 0
      vertex 4.7651 -1.88664 -3
      vertex 4.96399 -1.27454 -3
    endloop
  endfacet
  facet normal 0.994593 -0.0625712 0.0828828
    outer loop
      vertex 4.875 0 0
      vertex 5.08459 -0.642332 -3
      vertex 5.125 0 -3
    endloop
  endfacet
  facet normal 0.480093 0.873293 0.0828845
    outer loop
      vertex 2.07567 4.41103 0
      vertex 2.61215 4.1161 0
      vertex 2.18212 4.63724 -3
    endloop
  endfacet
  facet normal 0.247834 0.965251 0.0828821
    outer loop
      vertex 0.913484 4.78865 0
      vertex 1.50646 4.6364 0
      vertex 0.960329 5.03422 -3
    endloop
  endfacet
  facet normal 0.247839 0.96525 0.0828811
    outer loop
      vertex 0.960329 5.03422 -3
      vertex 1.50646 4.6364 0
      vertex 1.58371 4.87416 -3
    endloop
  endfacet
  facet normal 0.682188 0.726465 0.0828806
    outer loop
      vertex 3.10744 3.75625 0
      vertex 3.55372 3.33717 0
      vertex 3.73596 3.5083 -3
    endloop
  endfacet
  facet normal 0.978907 0.186736 0.0828846
    outer loop
      vertex 4.72184 1.21236 0
      vertex 5.08459 0.642332 -3
      vertex 4.96399 1.27454 -3
    endloop
  endfacet
  facet normal 0.994593 0.0625732 0.0828832
    outer loop
      vertex 4.83656 0.610999 0
      vertex 4.875 0 0
      vertex 5.08459 0.642332 -3
    endloop
  endfacet
  facet normal 0.978906 0.186743 0.0828831
    outer loop
      vertex 4.72184 1.21236 0
      vertex 4.83656 0.610999 0
      vertex 5.08459 0.642332 -3
    endloop
  endfacet
  facet normal -0.767858 -0.635236 0.0828824
    outer loop
      vertex -4.14621 -3.0124 -3
      vertex -3.73596 -3.5083 -3
      vertex -3.94396 -2.86545 0
    endloop
  endfacet
  facet normal -0.947786 -0.307947 0.0828813
    outer loop
      vertex -4.7651 -1.88664 -3
      vertex -4.53266 -1.79461 0
      vertex -4.72184 -1.21236 0
    endloop
  endfacet
  facet normal -0.682199 0.726453 0.082884
    outer loop
      vertex -3.73596 3.5083 -3
      vertex -3.10744 3.75625 0
      vertex -3.2668 3.94888 -3
    endloop
  endfacet
  facet normal -0.366863 0.926575 0.0828809
    outer loop
      vertex -2.07567 4.41103 0
      vertex -1.50646 4.6364 0
      vertex -1.58371 4.87416 -3
    endloop
  endfacet
  facet normal -0.366848 0.926581 0.0828843
    outer loop
      vertex -2.18212 4.63724 -3
      vertex -2.07567 4.41103 0
      vertex -1.58371 4.87416 -3
    endloop
  endfacet
  facet normal -0.947786 0.307947 0.0828813
    outer loop
      vertex -4.7651 1.88664 -3
      vertex -4.72184 1.21236 0
      vertex -4.53266 1.79461 0
    endloop
  endfacet
  facet normal -0.994593 0.0625732 0.0828832
    outer loop
      vertex -5.08459 0.642332 -3
      vertex -4.875 0 0
      vertex -4.83656 0.610999 0
    endloop
  endfacet
  facet normal -0.947781 0.307963 0.0828848
    outer loop
      vertex -4.96399 1.27454 -3
      vertex -4.72184 1.21236 0
      vertex -4.7651 1.88664 -3
    endloop
  endfacet
  facet normal -0.480093 -0.873293 0.0828845
    outer loop
      vertex -2.61215 -4.1161 0
      vertex -2.18212 -4.63724 -3
      vertex -2.07567 -4.41103 0
    endloop
  endfacet
  facet normal -0.682199 -0.726453 0.082884
    outer loop
      vertex -3.73596 -3.5083 -3
      vertex -3.2668 -3.94888 -3
      vertex -3.10744 -3.75625 0
    endloop
  endfacet
  facet normal 0 0 1
    outer loop
      vertex 4.83656 0.610999 0
      vertex 4.83656 -0.610999 0
      vertex 4.875 0 0
    endloop
  endfacet
  facet normal 0 0 1
    outer loop
      vertex 4.72184 1.21236 0
      vertex 4.83656 -0.610999 0
      vertex 4.83656 0.610999 0
    endloop
  endfacet
  facet normal 0 0 1
    outer loop
      vertex 4.72184 1.21236 0
      vertex 4.72184 -1.21236 0
      vertex 4.83656 -0.610999 0
    endloop
  endfacet
  facet normal 0 0 1
    outer loop
      vertex 4.53266 1.79461 0
      vertex 4.72184 -1.21236 0
      vertex 4.72184 1.21236 0
    endloop
  endfacet
  facet normal 0 0 1
    outer loop
      vertex 4.53266 1.79461 0
      vertex 4.53266 -1.79461 0
      vertex 4.72184 -1.21236 0
    endloop
  endfacet
  facet normal 0 0 1
    outer loop
      vertex 4.27199 2.34855 0
      vertex 4.53266 -1.79461 0
      vertex 4.53266 1.79461 0
    endloop
  endfacet
  facet normal 0 0 1
    outer loop
      vertex 4.27199 2.34855 0
      vertex 4.27199 -2.34855 0
      vertex 4.53266 -1.79461 0
    endloop
  endfacet
  facet normal 0 0 1
    outer loop
      vertex 3.94396 2.86545 0
      vertex 4.27199 -2.34855 0
      vertex 4.27199 2.34855 0
    endloop
  endfacet
  facet normal 0 0 1
    outer loop
      vertex 3.94396 2.86545 0
      vertex 3.94396 -2.86545 0
      vertex 4.27199 -2.34855 0
    endloop
  endfacet
  facet normal 0 0 1
    outer loop
      vertex 3.55372 3.33717 0
      vertex 3.94396 -2.86545 0
      vertex 3.94396 2.86545 0
    endloop
  endfacet
  facet normal 0 0 1
    outer loop
      vertex 3.55372 3.33717 0
      vertex 3.55372 -3.33717 0
      vertex 3.94396 -2.86545 0
    endloop
  endfacet
  facet normal 0 0 1
    outer loop
      vertex 3.10744 3.75625 0
      vertex 3.55372 -3.33717 0
      vertex 3.55372 3.33717 0
    endloop
  endfacet
  facet normal 0 0 1
    outer loop
      vertex 3.10744 3.75625 0
      vertex 3.10744 -3.75625 0
      vertex 3.55372 -3.33717 0
    endloop
  endfacet
  facet normal 0 0 1
    outer loop
      vertex 2.61215 4.1161 0
      vertex 3.10744 -3.75625 0
      vertex 3.10744 3.75625 0
    endloop
  endfacet
  facet normal 0 0 1
    outer loop
      vertex 2.61215 4.1161 0
      vertex 2.61215 -4.1161 0
      vertex 3.10744 -3.75625 0
    endloop
  endfacet
  facet normal 0 0 1
    outer loop
      vertex 2.07567 4.41103 0
      vertex 2.61215 -4.1161 0
      vertex 2.61215 4.1161 0
    endloop
  endfacet
  facet normal 0 0 1
    outer loop
      vertex 2.07567 4.41103 0
      vertex 2.07567 -4.41103 0
      vertex 2.61215 -4.1161 0
    endloop
  endfacet
  facet normal 0 0 1
    outer loop
      vertex 1.50646 4.6364 0
      vertex 2.07567 -4.41103 0
      vertex 2.07567 4.41103 0
    endloop
  endfacet
  facet normal 0 0 1
    outer loop
      vertex 1.50646 4.6364 0
      vertex 1.50646 -4.6364 0
      vertex 2.07567 -4.41103 0
    endloop
  endfacet
  facet normal 0 0 1
    outer loop
      vertex 0.913484 4.78865 0
      vertex 1.50646 -4.6364 0
      vertex 1.50646 4.6364 0
    endloop
  endfacet
  facet normal 0 0 1
    outer loop
      vertex 0.913484 4.78865 0
      vertex 0.913484 -4.78865 0
      vertex 1.50646 -4.6364 0
    endloop
  endfacet
  facet normal 0 0 1
    outer loop
      vertex 0.306104 4.86538 0
      vertex 0.913484 -4.78865 0
      vertex 0.913484 4.78865 0
    endloop
  endfacet
  facet normal 0 0 1
    outer loop
      vertex 0.306104 4.86538 0
      vertex 0.306104 -4.86538 0
      vertex 0.913484 -4.78865 0
    endloop
  endfacet
  facet normal -0 0 1
    outer loop
      vertex -0.306104 4.86538 0
      vertex 0.306104 -4.86538 0
      vertex 0.306104 4.86538 0
    endloop
  endfacet
  facet normal 0 0 1
    outer loop
      vertex -0.306104 4.86538 0
      vertex -0.306104 -4.86538 0
      vertex 0.306104 -4.86538 0
    endloop
  endfacet
  facet normal -0 0 1
    outer loop
      vertex -0.913484 4.78865 0
      vertex -0.306104 -4.86538 0
      vertex -0.306104 4.86538 0
    endloop
  endfacet
  facet normal 0 0 1
    outer loop
      vertex -0.913484 4.78865 0
      vertex -0.913484 -4.78865 0
      vertex -0.306104 -4.86538 0
    endloop
  endfacet
  facet normal -0 0 1
    outer loop
      vertex -1.50646 4.6364 0
      vertex -0.913484 -4.78865 0
      vertex -0.913484 4.78865 0
    endloop
  endfacet
  facet normal 0 0 1
    outer loop
      vertex -1.50646 4.6364 0
      vertex -1.50646 -4.6364 0
      vertex -0.913484 -4.78865 0
    endloop
  endfacet
  facet normal -0 0 1
    outer loop
      vertex -2.07567 4.41103 0
      vertex -1.50646 -4.6364 0
      vertex -1.50646 4.6364 0
    endloop
  endfacet
  facet normal 0 0 1
    outer loop
      vertex -2.07567 4.41103 0
      vertex -2.07567 -4.41103 0
      vertex -1.50646 -4.6364 0
    endloop
  endfacet
  facet normal -0 0 1
    outer loop
      vertex -2.61215 4.1161 0
      vertex -2.07567 -4.41103 0
      vertex -2.07567 4.41103 0
    endloop
  endfacet
  facet normal 0 0 1
    outer loop
      vertex -2.61215 4.1161 0
      vertex -2.61215 -4.1161 0
      vertex -2.07567 -4.41103 0
    endloop
  endfacet
  facet normal -0 0 1
    outer loop
      vertex -3.10744 3.75625 0
      vertex -2.61215 -4.1161 0
      vertex -2.61215 4.1161 0
    endloop
  endfacet
  facet normal 0 0 1
    outer loop
      vertex -3.10744 3.75625 0
      vertex -3.10744 -3.75625 0
      vertex -2.61215 -4.1161 0
    endloop
  endfacet
  facet normal -0 0 1
    outer loop
      vertex -3.55372 3.33717 0
      vertex -3.10744 -3.75625 0
      vertex -3.10744 3.75625 0
    endloop
  endfacet
  facet normal 0 0 1
    outer loop
      vertex -3.55372 3.33717 0
      vertex -3.55372 -3.33717 0
      vertex -3.10744 -3.75625 0
    endloop
  endfacet
  facet normal -0 0 1
    outer loop
      vertex -3.94396 2.86545 0
      vertex -3.55372 -3.33717 0
      vertex -3.55372 3.33717 0
    endloop
  endfacet
  facet normal 0 0 1
    outer loop
      vertex -3.94396 2.86545 0
      vertex -3.94396 -2.86545 0
      vertex -3.55372 -3.33717 0
    endloop
  endfacet
  facet normal -0 0 1
    outer loop
      vertex -4.27199 2.34855 0
      vertex -3.94396 -2.86545 0
      vertex -3.94396 2.86545 0
    endloop
  endfacet
  facet normal 0 0 1
    outer loop
      vertex -4.27199 2.34855 0
      vertex -4.27199 -2.34855 0
      vertex -3.94396 -2.86545 0
    endloop
  endfacet
  facet normal -0 0 1
    outer loop
      vertex -4.53266 1.79461 0
      vertex -4.27199 -2.34855 0
      vertex -4.27199 2.34855 0
    endloop
  endfacet
  facet normal 0 0 1
    outer loop
      vertex -4.53266 1.79461 0
      vertex -4.53266 -1.79461 0
      vertex -4.27199 -2.34855 0
    endloop
  endfacet
  facet normal -0 0 1
    outer loop
      vertex -4.72184 1.21236 0
      vertex -4.53266 -1.79461 0
      vertex -4.53266 1.79461 0
    endloop
  endfacet
  facet normal 0 0 1
    outer loop
      vertex -4.72184 1.21236 0
      vertex -4.72184 -1.21236 0
      vertex -4.53266 -1.79461 0
    endloop
  endfacet
  facet normal -0 0 1
    outer loop
      vertex -4.83656 0.610999 0
      vertex -4.72184 -1.21236 0
      vertex -4.72184 1.21236 0
    endloop
  endfacet
  facet normal 0 0 1
    outer loop
      vertex -4.83656 0.610999 0
      vertex -4.83656 -0.610999 0
      vertex -4.72184 -1.21236 0
    endloop
  endfacet
  facet normal 0 -0 1
    outer loop
      vertex -4.83656 -0.610999 0
      vertex -4.83656 0.610999 0
      vertex -4.875 0 0
    endloop
  endfacet
  facet normal -0.366848 -0.926581 0.0828843
    outer loop
      vertex -2.18212 -4.63724 -3
      vertex -1.58371 -4.87416 -3
      vertex -2.07567 -4.41103 0
    endloop
  endfacet
  facet normal 0.682199 -0.726453 0.082884
    outer loop
      vertex 3.10744 -3.75625 0
      vertex 3.2668 -3.94888 -3
      vertex 3.73596 -3.5083 -3
    endloop
  endfacet
  facet normal 0.767858 -0.635236 0.0828824
    outer loop
      vertex 3.73596 -3.5083 -3
      vertex 4.14621 -3.0124 -3
      vertex 3.94396 -2.86545 0
    endloop
  endfacet
  facet normal 0.947786 -0.307947 0.0828813
    outer loop
      vertex 4.53266 -1.79461 0
      vertex 4.7651 -1.88664 -3
      vertex 4.72184 -1.21236 0
    endloop
  endfacet
  facet normal -0.12491 0.9887 0.0828838
    outer loop
      vertex -0.960329 5.03422 -3
      vertex -0.306104 4.86538 0
      vertex -0.321801 5.11489 -3
    endloop
  endfacet
  facet normal 0.366848 0.926581 0.0828843
    outer loop
      vertex 1.58371 4.87416 -3
      vertex 2.07567 4.41103 0
      vertex 2.18212 4.63724 -3
    endloop
  endfacet
  facet normal 0.585764 0.806233 0.082884
    outer loop
      vertex 2.61215 4.1161 0
      vertex 3.10744 3.75625 0
      vertex 3.2668 3.94888 -3
    endloop
  endfacet
  facet normal 0.12491 0.9887 0.0828838
    outer loop
      vertex 0.306104 4.86538 0
      vertex 0.960329 5.03422 -3
      vertex 0.321801 5.11489 -3
    endloop
  endfacet
  facet normal 0 0.996559 0.0828838
    outer loop
      vertex 0.321801 5.11489 -3
      vertex -0.306104 4.86538 0
      vertex 0.306104 4.86538 0
    endloop
  endfacet
  facet normal 0 0.996559 0.0828838
    outer loop
      vertex -0.306104 4.86538 0
      vertex 0.321801 5.11489 -3
      vertex -0.321801 5.11489 -3
    endloop
  endfacet
  facet normal 0.841426 0.533978 0.082884
    outer loop
      vertex 3.94396 2.86545 0
      vertex 4.27199 2.34855 0
      vertex 4.49107 2.46899 -3
    endloop
  endfacet
  facet normal 0.947786 0.307947 0.0828813
    outer loop
      vertex 4.53266 1.79461 0
      vertex 4.72184 1.21236 0
      vertex 4.7651 1.88664 -3
    endloop
  endfacet
  facet normal 0.901716 0.42431 0.0828814
    outer loop
      vertex 4.49107 2.46899 -3
      vertex 4.53266 1.79461 0
      vertex 4.7651 1.88664 -3
    endloop
  endfacet
  facet normal 0.947781 0.307963 0.0828848
    outer loop
      vertex 4.72184 1.21236 0
      vertex 4.96399 1.27454 -3
      vertex 4.7651 1.88664 -3
    endloop
  endfacet
  facet normal -0.841426 -0.533978 0.082884
    outer loop
      vertex -4.49107 -2.46899 -3
      vertex -3.94396 -2.86545 0
      vertex -4.27199 -2.34855 0
    endloop
  endfacet
  facet normal -0.978906 -0.186743 0.0828831
    outer loop
      vertex -5.08459 -0.642332 -3
      vertex -4.72184 -1.21236 0
      vertex -4.83656 -0.610999 0
    endloop
  endfacet
  facet normal -0.978906 0.186743 0.0828831
    outer loop
      vertex -5.08459 0.642332 -3
      vertex -4.83656 0.610999 0
      vertex -4.72184 1.21236 0
    endloop
  endfacet
  facet normal -0.978907 0.186736 0.0828846
    outer loop
      vertex -5.08459 0.642332 -3
      vertex -4.72184 1.21236 0
      vertex -4.96399 1.27454 -3
    endloop
  endfacet
  facet normal -0.994593 -0.0625712 0.0828828
    outer loop
      vertex -5.125 0 -3
      vertex -5.08459 -0.642332 -3
      vertex -4.875 0 0
    endloop
  endfacet
  facet normal -0.994593 -0.0625732 0.0828832
    outer loop
      vertex -5.08459 -0.642332 -3
      vertex -4.83656 -0.610999 0
      vertex -4.875 0 0
    endloop
  endfacet
  facet normal -0.585759 0.806236 0.0828829
    outer loop
      vertex -3.2668 3.94888 -3
      vertex -2.61215 4.1161 0
      vertex -2.74611 4.32718 -3
    endloop
  endfacet
  facet normal -0.585764 0.806233 0.082884
    outer loop
      vertex -3.2668 3.94888 -3
      vertex -3.10744 3.75625 0
      vertex -2.61215 4.1161 0
    endloop
  endfacet
  facet normal -0.124902 0.988701 0.0828821
    outer loop
      vertex -0.960329 5.03422 -3
      vertex -0.913484 4.78865 0
      vertex -0.306104 4.86538 0
    endloop
  endfacet
  facet normal -0.247839 0.96525 0.0828811
    outer loop
      vertex -1.58371 4.87416 -3
      vertex -1.50646 4.6364 0
      vertex -0.960329 5.03422 -3
    endloop
  endfacet
  facet normal -0.841426 0.533978 0.082884
    outer loop
      vertex -4.49107 2.46899 -3
      vertex -4.27199 2.34855 0
      vertex -3.94396 2.86545 0
    endloop
  endfacet
  facet normal -0.90171 0.424322 0.082884
    outer loop
      vertex -4.53266 1.79461 0
      vertex -4.27199 2.34855 0
      vertex -4.49107 2.46899 -3
    endloop
  endfacet
  facet normal -0.901716 0.42431 0.0828814
    outer loop
      vertex -4.7651 1.88664 -3
      vertex -4.53266 1.79461 0
      vertex -4.49107 2.46899 -3
    endloop
  endfacet
  facet normal -0.585764 -0.806233 0.082884
    outer loop
      vertex -3.2668 -3.94888 -3
      vertex -2.61215 -4.1161 0
      vertex -3.10744 -3.75625 0
    endloop
  endfacet
  facet normal -0.12491 -0.9887 0.0828838
    outer loop
      vertex -0.960329 -5.03422 -3
      vertex -0.321801 -5.11489 -3
      vertex -0.306104 -4.86538 0
    endloop
  endfacet
  facet normal -0.247839 -0.96525 0.0828811
    outer loop
      vertex -1.58371 -4.87416 -3
      vertex -0.960329 -5.03422 -3
      vertex -1.50646 -4.6364 0
    endloop
  endfacet
  facet normal 0.247839 -0.96525 0.0828811
    outer loop
      vertex 0.960329 -5.03422 -3
      vertex 1.58371 -4.87416 -3
      vertex 1.50646 -4.6364 0
    endloop
  endfacet
  facet normal 0.247834 -0.965251 0.0828821
    outer loop
      vertex 0.913484 -4.78865 0
      vertex 0.960329 -5.03422 -3
      vertex 1.50646 -4.6364 0
    endloop
  endfacet
  facet normal 0.366863 -0.926575 0.0828809
    outer loop
      vertex 1.50646 -4.6364 0
      vertex 1.58371 -4.87416 -3
      vertex 2.07567 -4.41103 0
    endloop
  endfacet
  facet normal 0.480101 -0.873289 0.0828827
    outer loop
      vertex 2.18212 -4.63724 -3
      vertex 2.74611 -4.32718 -3
      vertex 2.61215 -4.1161 0
    endloop
  endfacet
  facet normal 0.585764 -0.806233 0.082884
    outer loop
      vertex 2.61215 -4.1161 0
      vertex 3.2668 -3.94888 -3
      vertex 3.10744 -3.75625 0
    endloop
  endfacet
  facet normal 0.585759 -0.806236 0.0828829
    outer loop
      vertex 2.61215 -4.1161 0
      vertex 2.74611 -4.32718 -3
      vertex 3.2668 -3.94888 -3
    endloop
  endfacet
  facet normal 0.682188 -0.726465 0.0828806
    outer loop
      vertex 3.10744 -3.75625 0
      vertex 3.73596 -3.5083 -3
      vertex 3.55372 -3.33717 0
    endloop
  endfacet
  facet normal 0.767863 -0.63523 0.0828808
    outer loop
      vertex 3.55372 -3.33717 0
      vertex 3.73596 -3.5083 -3
      vertex 3.94396 -2.86545 0
    endloop
  endfacet
  facet normal 0.841422 -0.533985 0.0828822
    outer loop
      vertex 3.94396 -2.86545 0
      vertex 4.14621 -3.0124 -3
      vertex 4.49107 -2.46899 -3
    endloop
  endfacet
  facet normal 0.978907 -0.186736 0.0828846
    outer loop
      vertex 4.72184 -1.21236 0
      vertex 4.96399 -1.27454 -3
      vertex 5.08459 -0.642332 -3
    endloop
  endfacet
  facet normal 0.841426 -0.533978 0.082884
    outer loop
      vertex 3.94396 -2.86545 0
      vertex 4.49107 -2.46899 -3
      vertex 4.27199 -2.34855 0
    endloop
  endfacet
  facet normal 0.585759 0.806236 0.0828829
    outer loop
      vertex 2.61215 4.1161 0
      vertex 3.2668 3.94888 -3
      vertex 2.74611 4.32718 -3
    endloop
  endfacet
  facet normal 0.480101 0.873289 0.0828827
    outer loop
      vertex 2.18212 4.63724 -3
      vertex 2.61215 4.1161 0
      vertex 2.74611 4.32718 -3
    endloop
  endfacet
  facet normal 0.124902 0.988701 0.0828821
    outer loop
      vertex 0.306104 4.86538 0
      vertex 0.913484 4.78865 0
      vertex 0.960329 5.03422 -3
    endloop
  endfacet
  facet normal 0.767858 0.635236 0.0828824
    outer loop
      vertex 3.73596 3.5083 -3
      vertex 3.94396 2.86545 0
      vertex 4.14621 3.0124 -3
    endloop
  endfacet
  facet normal 0.841422 0.533985 0.0828822
    outer loop
      vertex 3.94396 2.86545 0
      vertex 4.49107 2.46899 -3
      vertex 4.14621 3.0124 -3
    endloop
  endfacet
  facet normal 0.767863 0.63523 0.0828808
    outer loop
      vertex 3.55372 3.33717 0
      vertex 3.94396 2.86545 0
      vertex 3.73596 3.5083 -3
    endloop
  endfacet
  facet normal -0.767863 -0.63523 0.0828808
    outer loop
      vertex -3.94396 -2.86545 0
      vertex -3.73596 -3.5083 -3
      vertex -3.55372 -3.33717 0
    endloop
  endfacet
  facet normal -0.901716 -0.42431 0.0828814
    outer loop
      vertex -4.7651 -1.88664 -3
      vertex -4.49107 -2.46899 -3
      vertex -4.53266 -1.79461 0
    endloop
  endfacet
  facet normal -0.90171 -0.424322 0.082884
    outer loop
      vertex -4.53266 -1.79461 0
      vertex -4.49107 -2.46899 -3
      vertex -4.27199 -2.34855 0
    endloop
  endfacet
  facet normal -0.947781 -0.307963 0.0828848
    outer loop
      vertex -4.96399 -1.27454 -3
      vertex -4.7651 -1.88664 -3
      vertex -4.72184 -1.21236 0
    endloop
  endfacet
  facet normal -0.994593 0.0625712 0.0828828
    outer loop
      vertex -5.125 0 -3
      vertex -4.875 0 0
      vertex -5.08459 0.642332 -3
    endloop
  endfacet
  facet normal -0.480093 0.873293 0.0828845
    outer loop
      vertex -2.61215 4.1161 0
      vertex -2.07567 4.41103 0
      vertex -2.18212 4.63724 -3
    endloop
  endfacet
  facet normal -0.247834 0.965251 0.0828821
    outer loop
      vertex -1.50646 4.6364 0
      vertex -0.913484 4.78865 0
      vertex -0.960329 5.03422 -3
    endloop
  endfacet
  facet normal -0.767863 0.63523 0.0828808
    outer loop
      vertex -3.94396 2.86545 0
      vertex -3.55372 3.33717 0
      vertex -3.73596 3.5083 -3
    endloop
  endfacet
  facet normal -0.841422 0.533985 0.0828822
    outer loop
      vertex -4.49107 2.46899 -3
      vertex -3.94396 2.86545 0
      vertex -4.14621 3.0124 -3
    endloop
  endfacet
  facet normal -0.767858 0.635236 0.0828824
    outer loop
      vertex -4.14621 3.0124 -3
      vertex -3.94396 2.86545 0
      vertex -3.73596 3.5083 -3
    endloop
  endfacet
  facet normal -0.585759 -0.806236 0.0828829
    outer loop
      vertex -3.2668 -3.94888 -3
      vertex -2.74611 -4.32718 -3
      vertex -2.61215 -4.1161 0
    endloop
  endfacet
  facet normal -0.480101 -0.873289 0.0828827
    outer loop
      vertex -2.74611 -4.32718 -3
      vertex -2.18212 -4.63724 -3
      vertex -2.61215 -4.1161 0
    endloop
  endfacet
  facet normal -0.247834 -0.965251 0.0828821
    outer loop
      vertex -1.50646 -4.6364 0
      vertex -0.960329 -5.03422 -3
      vertex -0.913484 -4.78865 0
    endloop
  endfacet
  facet normal -0.124902 -0.988701 0.0828821
    outer loop
      vertex -0.960329 -5.03422 -3
      vertex -0.306104 -4.86538 0
      vertex -0.913484 -4.78865 0
    endloop
  endfacet
  facet normal 0.12491 -0.9887 0.0828838
    outer loop
      vertex 0.306104 -4.86538 0
      vertex 0.321801 -5.11489 -3
      vertex 0.960329 -5.03422 -3
    endloop
  endfacet
  facet normal 0.124902 -0.988701 0.0828821
    outer loop
      vertex 0.306104 -4.86538 0
      vertex 0.960329 -5.03422 -3
      vertex 0.913484 -4.78865 0
    endloop
  endfacet
  facet normal 0.978906 -0.186743 0.0828831
    outer loop
      vertex 4.72184 -1.21236 0
      vertex 5.08459 -0.642332 -3
      vertex 4.83656 -0.610999 0
    endloop
  endfacet
  facet normal 0.994593 -0.0625732 0.0828832
    outer loop
      vertex 4.83656 -0.610999 0
      vertex 5.08459 -0.642332 -3
      vertex 4.875 0 0
    endloop
  endfacet
  facet normal 0.90171 -0.424322 0.082884
    outer loop
      vertex 4.27199 -2.34855 0
      vertex 4.49107 -2.46899 -3
      vertex 4.53266 -1.79461 0
    endloop
  endfacet
  facet normal 0.901716 -0.42431 0.0828814
    outer loop
      vertex 4.49107 -2.46899 -3
      vertex 4.7651 -1.88664 -3
      vertex 4.53266 -1.79461 0
    endloop
  endfacet
  facet normal -0.841422 -0.533985 0.0828822
    outer loop
      vertex -4.49107 -2.46899 -3
      vertex -4.14621 -3.0124 -3
      vertex -3.94396 -2.86545 0
    endloop
  endfacet
  facet normal -0.978907 -0.186736 0.0828846
    outer loop
      vertex -5.08459 -0.642332 -3
      vertex -4.96399 -1.27454 -3
      vertex -4.72184 -1.21236 0
    endloop
  endfacet
endsolid OpenSCAD_Model
