solid OpenSCAD_Model
  facet normal 0 0 1
    outer loop
      vertex 5.5 0 0
      vertex 15 0 0
      vertex 14.8817 1.88 0
    endloop
  endfacet
  facet normal 0 0 1
    outer loop
      vertex 5.45663 0.689332 0
      vertex 14.8817 1.88 0
      vertex 14.5287 3.73035 0
    endloop
  endfacet
  facet normal 0 0 1
    outer loop
      vertex 15 0 0
      vertex 5.5 0 0
      vertex 14.8817 -1.88 0
    endloop
  endfacet
  facet normal 0 0 1
    outer loop
      vertex 5.32721 1.36779 0
      vertex 14.5287 3.73035 0
      vertex 13.9466 5.52187 0
    endloop
  endfacet
  facet normal -0 0 1
    outer loop
      vertex 5.45663 -0.689332 0
      vertex 14.8817 -1.88 0
      vertex 5.5 0 0
    endloop
  endfacet
  facet normal 0 0 1
    outer loop
      vertex 5.11377 2.02468 0
      vertex 13.9466 5.52187 0
      vertex 13.1446 7.22631 0
    endloop
  endfacet
  facet normal 0 0 1
    outer loop
      vertex 14.8817 -1.88 0
      vertex 5.45663 -0.689332 0
      vertex 14.5287 -3.73035 0
    endloop
  endfacet
  facet normal 0 0 1
    outer loop
      vertex 4.81969 2.64964 0
      vertex 13.1446 7.22631 0
      vertex 12.1353 8.81678 0
    endloop
  endfacet
  facet normal -0 0 1
    outer loop
      vertex 5.32721 -1.36779 0
      vertex 14.5287 -3.73035 0
      vertex 5.45663 -0.689332 0
    endloop
  endfacet
  facet normal 0 0 1
    outer loop
      vertex 4.44959 3.23282 0
      vertex 12.1353 8.81678 0
      vertex 10.9345 10.2682 0
    endloop
  endfacet
  facet normal 0 0 1
    outer loop
      vertex 14.5287 -3.73035 0
      vertex 5.32721 -1.36779 0
      vertex 13.9466 -5.52187 0
    endloop
  endfacet
  facet normal 0 0 1
    outer loop
      vertex 4.00933 3.76501 0
      vertex 10.9345 10.2682 0
      vertex 9.56136 11.5577 0
    endloop
  endfacet
  facet normal -0 0 1
    outer loop
      vertex 5.11377 -2.02468 0
      vertex 13.9466 -5.52187 0
      vertex 5.32721 -1.36779 0
    endloop
  endfacet
  facet normal 0 0 1
    outer loop
      vertex 3.50583 4.23782 0
      vertex 9.56136 11.5577 0
      vertex 8.0374 12.6649 0
    endloop
  endfacet
  facet normal 0 0 1
    outer loop
      vertex 13.9466 -5.52187 0
      vertex 5.11377 -2.02468 0
      vertex 13.1446 -7.22631 0
    endloop
  endfacet
  facet normal 0 0 1
    outer loop
      vertex 2.94705 4.6438 0
      vertex 8.0374 12.6649 0
      vertex 6.38669 13.5724 0
    endloop
  endfacet
  facet normal -0 0 1
    outer loop
      vertex 4.81969 -2.64964 0
      vertex 13.1446 -7.22631 0
      vertex 5.11377 -2.02468 0
    endloop
  endfacet
  facet normal 0 0 1
    outer loop
      vertex 13.1446 -7.22631 0
      vertex 4.81969 -2.64964 0
      vertex 12.1353 -8.81678 0
    endloop
  endfacet
  facet normal 0 0 1
    outer loop
      vertex 14.8817 1.88 0
      vertex 5.45663 0.689332 0
      vertex 5.5 0 0
    endloop
  endfacet
  facet normal 0 0 1
    outer loop
      vertex 14.5287 3.73035 0
      vertex 5.32721 1.36779 0
      vertex 5.45663 0.689332 0
    endloop
  endfacet
  facet normal 0 0 1
    outer loop
      vertex 13.9466 5.52187 0
      vertex 5.11377 2.02468 0
      vertex 5.32721 1.36779 0
    endloop
  endfacet
  facet normal 0 0 1
    outer loop
      vertex 13.1446 7.22631 0
      vertex 4.81969 2.64964 0
      vertex 5.11377 2.02468 0
    endloop
  endfacet
  facet normal 0 0 1
    outer loop
      vertex 2.34179 4.97655 0
      vertex 6.38669 13.5724 0
      vertex 4.63525 14.2658 0
    endloop
  endfacet
  facet normal 0 0 1
    outer loop
      vertex 12.1353 8.81678 0
      vertex 4.44959 3.23282 0
      vertex 4.81969 2.64964 0
    endloop
  endfacet
  facet normal 0 0 1
    outer loop
      vertex 10.9345 10.2682 0
      vertex 4.00933 3.76501 0
      vertex 4.44959 3.23282 0
    endloop
  endfacet
  facet normal 0 0 1
    outer loop
      vertex 9.56136 11.5577 0
      vertex 3.50583 4.23782 0
      vertex 4.00933 3.76501 0
    endloop
  endfacet
  facet normal 0 0 1
    outer loop
      vertex 8.0374 12.6649 0
      vertex 2.94705 4.6438 0
      vertex 3.50583 4.23782 0
    endloop
  endfacet
  facet normal 0 0 1
    outer loop
      vertex 1.69959 5.23081 0
      vertex 4.63525 14.2658 0
      vertex 2.81072 14.7343 0
    endloop
  endfacet
  facet normal 0 0 1
    outer loop
      vertex 6.38669 13.5724 0
      vertex 2.34179 4.97655 0
      vertex 2.94705 4.6438 0
    endloop
  endfacet
  facet normal 0 0 1
    outer loop
      vertex 4.63525 14.2658 0
      vertex 1.69959 5.23081 0
      vertex 2.34179 4.97655 0
    endloop
  endfacet
  facet normal 0 0 1
    outer loop
      vertex 2.81072 14.7343 0
      vertex 1.0306 5.40258 0
      vertex 1.69959 5.23081 0
    endloop
  endfacet
  facet normal 0 0 1
    outer loop
      vertex 0.941857 14.9704 0
      vertex 1.0306 5.40258 0
      vertex 2.81072 14.7343 0
    endloop
  endfacet
  facet normal 0 0 1
    outer loop
      vertex 0.941857 14.9704 0
      vertex 0.345347 5.48915 0
      vertex 1.0306 5.40258 0
    endloop
  endfacet
  facet normal 0 0 1
    outer loop
      vertex 0.941857 14.9704 0
      vertex -0.345347 5.48915 0
      vertex 0.345347 5.48915 0
    endloop
  endfacet
  facet normal -0 0 1
    outer loop
      vertex -0.941857 14.9704 0
      vertex -0.345347 5.48915 0
      vertex 0.941857 14.9704 0
    endloop
  endfacet
  facet normal 0 0 1
    outer loop
      vertex -0.941857 14.9704 0
      vertex -1.0306 5.40258 0
      vertex -0.345347 5.48915 0
    endloop
  endfacet
  facet normal -0 0 1
    outer loop
      vertex -2.81072 14.7343 0
      vertex -1.0306 5.40258 0
      vertex -0.941857 14.9704 0
    endloop
  endfacet
  facet normal 0 0 1
    outer loop
      vertex -1.0306 5.40258 0
      vertex -2.81072 14.7343 0
      vertex -1.69959 5.23081 0
    endloop
  endfacet
  facet normal -0 0 1
    outer loop
      vertex -4.63525 14.2658 0
      vertex -1.69959 5.23081 0
      vertex -2.81072 14.7343 0
    endloop
  endfacet
  facet normal 0 0 1
    outer loop
      vertex -1.69959 5.23081 0
      vertex -4.63525 14.2658 0
      vertex -2.34179 4.97655 0
    endloop
  endfacet
  facet normal -0 0 1
    outer loop
      vertex -6.38669 13.5724 0
      vertex -2.34179 4.97655 0
      vertex -4.63525 14.2658 0
    endloop
  endfacet
  facet normal 0 0 1
    outer loop
      vertex -2.34179 4.97655 0
      vertex -6.38669 13.5724 0
      vertex -2.94705 4.6438 0
    endloop
  endfacet
  facet normal -0 0 1
    outer loop
      vertex -8.0374 12.6649 0
      vertex -2.94705 4.6438 0
      vertex -6.38669 13.5724 0
    endloop
  endfacet
  facet normal 0 0 1
    outer loop
      vertex -2.94705 4.6438 0
      vertex -8.0374 12.6649 0
      vertex -3.50583 4.23782 0
    endloop
  endfacet
  facet normal -0 0 1
    outer loop
      vertex -9.56136 11.5577 0
      vertex -3.50583 4.23782 0
      vertex -8.0374 12.6649 0
    endloop
  endfacet
  facet normal 0 0 1
    outer loop
      vertex -3.50583 4.23782 0
      vertex -9.56136 11.5577 0
      vertex -4.00933 3.76501 0
    endloop
  endfacet
  facet normal -0 0 1
    outer loop
      vertex -10.9345 10.2682 0
      vertex -4.00933 3.76501 0
      vertex -9.56136 11.5577 0
    endloop
  endfacet
  facet normal 0 0 1
    outer loop
      vertex -4.00933 3.76501 0
      vertex -10.9345 10.2682 0
      vertex -4.44959 3.23282 0
    endloop
  endfacet
  facet normal -0 0 1
    outer loop
      vertex -12.1353 8.81678 0
      vertex -4.44959 3.23282 0
      vertex -10.9345 10.2682 0
    endloop
  endfacet
  facet normal 0 0 1
    outer loop
      vertex -4.44959 3.23282 0
      vertex -12.1353 8.81678 0
      vertex -4.81969 2.64964 0
    endloop
  endfacet
  facet normal -0 0 1
    outer loop
      vertex 4.44959 -3.23282 0
      vertex 12.1353 -8.81678 0
      vertex 4.81969 -2.64964 0
    endloop
  endfacet
  facet normal 0 0 1
    outer loop
      vertex 12.1353 -8.81678 0
      vertex 4.44959 -3.23282 0
      vertex 10.9345 -10.2682 0
    endloop
  endfacet
  facet normal -0 0 1
    outer loop
      vertex 4.00933 -3.76501 0
      vertex 10.9345 -10.2682 0
      vertex 4.44959 -3.23282 0
    endloop
  endfacet
  facet normal 0 0 1
    outer loop
      vertex 10.9345 -10.2682 0
      vertex 4.00933 -3.76501 0
      vertex 9.56136 -11.5577 0
    endloop
  endfacet
  facet normal -0 0 1
    outer loop
      vertex 3.50583 -4.23782 0
      vertex 9.56136 -11.5577 0
      vertex 4.00933 -3.76501 0
    endloop
  endfacet
  facet normal 0 0 1
    outer loop
      vertex 9.56136 -11.5577 0
      vertex 3.50583 -4.23782 0
      vertex 8.0374 -12.6649 0
    endloop
  endfacet
  facet normal -0 0 1
    outer loop
      vertex 2.94705 -4.6438 0
      vertex 8.0374 -12.6649 0
      vertex 3.50583 -4.23782 0
    endloop
  endfacet
  facet normal 0 0 1
    outer loop
      vertex 8.0374 -12.6649 0
      vertex 2.94705 -4.6438 0
      vertex 6.38669 -13.5724 0
    endloop
  endfacet
  facet normal -0 0 1
    outer loop
      vertex 2.34179 -4.97655 0
      vertex 6.38669 -13.5724 0
      vertex 2.94705 -4.6438 0
    endloop
  endfacet
  facet normal 0 0 1
    outer loop
      vertex 6.38669 -13.5724 0
      vertex 2.34179 -4.97655 0
      vertex 4.63525 -14.2658 0
    endloop
  endfacet
  facet normal -0 0 1
    outer loop
      vertex 1.69959 -5.23081 0
      vertex 4.63525 -14.2658 0
      vertex 2.34179 -4.97655 0
    endloop
  endfacet
  facet normal 0 0 1
    outer loop
      vertex 4.63525 -14.2658 0
      vertex 1.69959 -5.23081 0
      vertex 2.81072 -14.7343 0
    endloop
  endfacet
  facet normal -0 0 1
    outer loop
      vertex 1.0306 -5.40258 0
      vertex 2.81072 -14.7343 0
      vertex 1.69959 -5.23081 0
    endloop
  endfacet
  facet normal 0 0 1
    outer loop
      vertex 1.0306 -5.40258 0
      vertex 0.941857 -14.9704 0
      vertex 2.81072 -14.7343 0
    endloop
  endfacet
  facet normal -0 0 1
    outer loop
      vertex 0.345347 -5.48915 0
      vertex 0.941857 -14.9704 0
      vertex 1.0306 -5.40258 0
    endloop
  endfacet
  facet normal -0 0 1
    outer loop
      vertex -0.345347 -5.48915 0
      vertex 0.941857 -14.9704 0
      vertex 0.345347 -5.48915 0
    endloop
  endfacet
  facet normal 0 0 1
    outer loop
      vertex -0.345347 -5.48915 0
      vertex -0.941857 -14.9704 0
      vertex 0.941857 -14.9704 0
    endloop
  endfacet
  facet normal 0 0 1
    outer loop
      vertex -1.0306 -5.40258 0
      vertex -0.941857 -14.9704 0
      vertex -0.345347 -5.48915 0
    endloop
  endfacet
  facet normal 0 0 1
    outer loop
      vertex -2.81072 -14.7343 0
      vertex -1.0306 -5.40258 0
      vertex -1.69959 -5.23081 0
    endloop
  endfacet
  facet normal 0 0 1
    outer loop
      vertex -4.63525 -14.2658 0
      vertex -1.69959 -5.23081 0
      vertex -2.34179 -4.97655 0
    endloop
  endfacet
  facet normal 0 0 1
    outer loop
      vertex -1.0306 -5.40258 0
      vertex -2.81072 -14.7343 0
      vertex -0.941857 -14.9704 0
    endloop
  endfacet
  facet normal 0 0 1
    outer loop
      vertex -6.38669 -13.5724 0
      vertex -2.34179 -4.97655 0
      vertex -2.94705 -4.6438 0
    endloop
  endfacet
  facet normal 0 0 1
    outer loop
      vertex -8.0374 -12.6649 0
      vertex -2.94705 -4.6438 0
      vertex -3.50583 -4.23782 0
    endloop
  endfacet
  facet normal 0 0 1
    outer loop
      vertex -9.56136 -11.5577 0
      vertex -3.50583 -4.23782 0
      vertex -4.00933 -3.76501 0
    endloop
  endfacet
  facet normal 0 0 1
    outer loop
      vertex -10.9345 -10.2682 0
      vertex -4.00933 -3.76501 0
      vertex -4.44959 -3.23282 0
    endloop
  endfacet
  facet normal 0 0 1
    outer loop
      vertex -1.69959 -5.23081 0
      vertex -4.63525 -14.2658 0
      vertex -2.81072 -14.7343 0
    endloop
  endfacet
  facet normal 0 0 1
    outer loop
      vertex -12.1353 -8.81678 0
      vertex -4.44959 -3.23282 0
      vertex -4.81969 -2.64964 0
    endloop
  endfacet
  facet normal 0 0 1
    outer loop
      vertex -13.1446 -7.22631 0
      vertex -4.81969 -2.64964 0
      vertex -5.11377 -2.02468 0
    endloop
  endfacet
  facet normal 0 0 1
    outer loop
      vertex -13.9466 -5.52187 0
      vertex -5.11377 -2.02468 0
      vertex -5.32721 -1.36779 0
    endloop
  endfacet
  facet normal 0 0 1
    outer loop
      vertex -14.5287 -3.73035 0
      vertex -5.32721 -1.36779 0
      vertex -5.45663 -0.689332 0
    endloop
  endfacet
  facet normal 0 0 1
    outer loop
      vertex -14.8817 -1.88 0
      vertex -5.45663 -0.689332 0
      vertex -5.5 0 0
    endloop
  endfacet
  facet normal -0 0 1
    outer loop
      vertex -13.1446 7.22631 0
      vertex -4.81969 2.64964 0
      vertex -12.1353 8.81678 0
    endloop
  endfacet
  facet normal 0 0 1
    outer loop
      vertex -2.34179 -4.97655 0
      vertex -6.38669 -13.5724 0
      vertex -4.63525 -14.2658 0
    endloop
  endfacet
  facet normal 0 0 1
    outer loop
      vertex -4.81969 2.64964 0
      vertex -13.1446 7.22631 0
      vertex -5.11377 2.02468 0
    endloop
  endfacet
  facet normal 0 0 1
    outer loop
      vertex -2.94705 -4.6438 0
      vertex -8.0374 -12.6649 0
      vertex -6.38669 -13.5724 0
    endloop
  endfacet
  facet normal -0 0 1
    outer loop
      vertex -13.9466 5.52187 0
      vertex -5.11377 2.02468 0
      vertex -13.1446 7.22631 0
    endloop
  endfacet
  facet normal 0 0 1
    outer loop
      vertex -3.50583 -4.23782 0
      vertex -9.56136 -11.5577 0
      vertex -8.0374 -12.6649 0
    endloop
  endfacet
  facet normal 0 0 1
    outer loop
      vertex -5.11377 2.02468 0
      vertex -13.9466 5.52187 0
      vertex -5.32721 1.36779 0
    endloop
  endfacet
  facet normal 0 0 1
    outer loop
      vertex -4.00933 -3.76501 0
      vertex -10.9345 -10.2682 0
      vertex -9.56136 -11.5577 0
    endloop
  endfacet
  facet normal -0 0 1
    outer loop
      vertex -14.5287 3.73035 0
      vertex -5.32721 1.36779 0
      vertex -13.9466 5.52187 0
    endloop
  endfacet
  facet normal 0 0 1
    outer loop
      vertex -4.44959 -3.23282 0
      vertex -12.1353 -8.81678 0
      vertex -10.9345 -10.2682 0
    endloop
  endfacet
  facet normal 0 0 1
    outer loop
      vertex -5.32721 1.36779 0
      vertex -14.5287 3.73035 0
      vertex -5.45663 0.689332 0
    endloop
  endfacet
  facet normal 0 0 1
    outer loop
      vertex -4.81969 -2.64964 0
      vertex -13.1446 -7.22631 0
      vertex -12.1353 -8.81678 0
    endloop
  endfacet
  facet normal -0 0 1
    outer loop
      vertex -14.8817 1.88 0
      vertex -5.45663 0.689332 0
      vertex -14.5287 3.73035 0
    endloop
  endfacet
  facet normal 0 0 1
    outer loop
      vertex -5.11377 -2.02468 0
      vertex -13.9466 -5.52187 0
      vertex -13.1446 -7.22631 0
    endloop
  endfacet
  facet normal 0 0 1
    outer loop
      vertex -5.45663 0.689332 0
      vertex -14.8817 1.88 0
      vertex -5.5 0 0
    endloop
  endfacet
  facet normal 0 0 1
    outer loop
      vertex -5.32721 -1.36779 0
      vertex -14.5287 -3.73035 0
      vertex -13.9466 -5.52187 0
    endloop
  endfacet
  facet normal 0 0 1
    outer loop
      vertex -15 0 0
      vertex -5.5 0 0
      vertex -14.8817 1.88 0
    endloop
  endfacet
  facet normal 0 0 1
    outer loop
      vertex -5.45663 -0.689332 0
      vertex -14.8817 -1.88 0
      vertex -14.5287 -3.73035 0
    endloop
  endfacet
  facet normal 0 0 1
    outer loop
      vertex -5.5 0 0
      vertex -15 0 0
      vertex -14.8817 -1.88 0
    endloop
  endfacet
  facet normal -0.835462 -0.0525639 0.547029
    outer loop
      vertex 5.5 0 0
      vertex 5.45663 0.689332 0
      vertex 2.75 0 -4.2
    endloop
  endfacet
  facet normal -0.835463 -0.0525519 0.547028
    outer loop
      vertex 2.75 0 -4.2
      vertex 5.45663 0.689332 0
      vertex 2.72832 0.344666 -4.2
    endloop
  endfacet
  facet normal 0.208171 -0.810817 0.547029
    outer loop
      vertex -0.849796 2.61541 -4.2
      vertex -0.515298 2.70129 -4.2
      vertex -1.0306 5.40258 0
    endloop
  endfacet
  facet normal -0.835462 0.0525639 0.547029
    outer loop
      vertex 5.45663 -0.689332 0
      vertex 5.5 0 0
      vertex 2.75 0 -4.2
    endloop
  endfacet
  facet normal -0.644995 0.533613 0.547027
    outer loop
      vertex 2.00466 -1.8825 -4.2
      vertex 4.44959 -3.23282 0
      vertex 2.2248 -1.61641 -4.2
    endloop
  endfacet
  facet normal -0.64501 0.533592 0.54703
    outer loop
      vertex 4.44959 -3.23282 0
      vertex 2.00466 -1.8825 -4.2
      vertex 4.00933 -3.76501 0
    endloop
  endfacet
  facet normal -0.796141 0.258688 0.547029
    outer loop
      vertex 2.55688 -1.01234 -4.2
      vertex 5.32721 -1.36779 0
      vertex 2.6636 -0.683897 -4.2
    endloop
  endfacet
  facet normal -0.796141 0.258686 0.547029
    outer loop
      vertex 5.32721 -1.36779 0
      vertex 2.55688 -1.01234 -4.2
      vertex 5.11377 -2.02468 0
    endloop
  endfacet
  facet normal -0.822287 0.156856 0.547028
    outer loop
      vertex 5.32721 -1.36779 0
      vertex 5.45663 -0.689332 0
      vertex 2.72832 -0.344666 -4.2
    endloop
  endfacet
  facet normal -0.757445 0.356422 0.547029
    outer loop
      vertex 2.40984 -1.32482 -4.2
      vertex 5.11377 -2.02468 0
      vertex 2.55688 -1.01234 -4.2
    endloop
  endfacet
  facet normal -0.757445 0.356422 0.547029
    outer loop
      vertex 5.11377 -2.02468 0
      vertex 2.40984 -1.32482 -4.2
      vertex 4.81969 -2.64964 0
    endloop
  endfacet
  facet normal -0.706797 0.448551 0.547028
    outer loop
      vertex 4.44959 -3.23282 0
      vertex 4.81969 -2.64964 0
      vertex 2.2248 -1.61641 -4.2
    endloop
  endfacet
  facet normal -0.104921 0.830513 0.547029
    outer loop
      vertex 0.515298 -2.70129 -4.2
      vertex 0.345347 -5.48915 0
      vertex 1.0306 -5.40258 0
    endloop
  endfacet
  facet normal -0.104909 0.830513 0.54703
    outer loop
      vertex 0.345347 -5.48915 0
      vertex 0.515298 -2.70129 -4.2
      vertex 0.172673 -2.74457 -4.2
    endloop
  endfacet
  facet normal -0.403288 0.733565 0.547029
    outer loop
      vertex 2.34179 -4.97655 0
      vertex 2.94705 -4.6438 0
      vertex 1.47352 -2.3219 -4.2
    endloop
  endfacet
  facet normal 0.706807 0.448533 0.54703
    outer loop
      vertex -2.2248 -1.61641 -4.2
      vertex -2.40984 -1.32482 -4.2
      vertex -4.81969 -2.64964 0
    endloop
  endfacet
  facet normal 0.308157 0.778331 0.547028
    outer loop
      vertex -1.69959 -5.23081 0
      vertex -0.849796 -2.61541 -4.2
      vertex -2.34179 -4.97655 0
    endloop
  endfacet
  facet normal -0.492034 -0.677247 0.547028
    outer loop
      vertex 1.75292 2.11891 -4.2
      vertex 3.50583 4.23782 0
      vertex 1.47352 2.3219 -4.2
    endloop
  endfacet
  facet normal 0.308182 -0.77832 0.54703
    outer loop
      vertex -1.17089 2.48827 -4.2
      vertex -0.849796 2.61541 -4.2
      vertex -2.34179 4.97655 0
    endloop
  endfacet
  facet normal 0.64501 -0.533592 0.54703
    outer loop
      vertex -4.44959 3.23282 0
      vertex -2.00466 1.8825 -4.2
      vertex -4.00933 3.76501 0
    endloop
  endfacet
  facet normal 0.644995 -0.533613 0.547027
    outer loop
      vertex -2.00466 1.8825 -4.2
      vertex -4.44959 3.23282 0
      vertex -2.2248 1.61641 -4.2
    endloop
  endfacet
  facet normal -0.835463 0.0525519 0.547028
    outer loop
      vertex 5.45663 -0.689332 0
      vertex 2.75 0 -4.2
      vertex 2.72832 -0.344666 -4.2
    endloop
  endfacet
  facet normal -0.308182 0.77832 0.54703
    outer loop
      vertex 2.34179 -4.97655 0
      vertex 1.17089 -2.48827 -4.2
      vertex 0.849796 -2.61541 -4.2
    endloop
  endfacet
  facet normal -0.573038 0.610234 0.54703
    outer loop
      vertex 3.50583 -4.23782 0
      vertex 4.00933 -3.76501 0
      vertex 2.00466 -1.8825 -4.2
    endloop
  endfacet
  facet normal 0.822287 0.156856 0.547028
    outer loop
      vertex -5.32721 -1.36779 0
      vertex -2.72832 -0.344666 -4.2
      vertex -5.45663 -0.689332 0
    endloop
  endfacet
  facet normal 0.822282 0.156879 0.54703
    outer loop
      vertex -2.6636 -0.683897 -4.2
      vertex -2.72832 -0.344666 -4.2
      vertex -5.32721 -1.36779 0
    endloop
  endfacet
  facet normal 0.757445 0.356422 0.547029
    outer loop
      vertex -5.11377 -2.02468 0
      vertex -2.40984 -1.32482 -4.2
      vertex -2.55688 -1.01234 -4.2
    endloop
  endfacet
  facet normal 0.757445 0.356422 0.547029
    outer loop
      vertex -2.40984 -1.32482 -4.2
      vertex -5.11377 -2.02468 0
      vertex -4.81969 -2.64964 0
    endloop
  endfacet
  facet normal 0 0.837113 0.54703
    outer loop
      vertex 0.172673 -2.74457 -4.2
      vertex -0.345347 -5.48915 0
      vertex 0.345347 -5.48915 0
    endloop
  endfacet
  facet normal 0 0.837113 0.54703
    outer loop
      vertex -0.345347 -5.48915 0
      vertex 0.172673 -2.74457 -4.2
      vertex -0.172673 -2.74457 -4.2
    endloop
  endfacet
  facet normal 0.492034 0.677247 0.547028
    outer loop
      vertex -1.47352 -2.3219 -4.2
      vertex -1.75292 -2.11891 -4.2
      vertex -3.50583 -4.23782 0
    endloop
  endfacet
  facet normal -0.492045 -0.677238 0.547029
    outer loop
      vertex 3.50583 4.23782 0
      vertex 2.94705 4.6438 0
      vertex 1.47352 2.3219 -4.2
    endloop
  endfacet
  facet normal -0.573058 -0.610218 0.547027
    outer loop
      vertex 2.00466 1.8825 -4.2
      vertex 3.50583 4.23782 0
      vertex 1.75292 2.11891 -4.2
    endloop
  endfacet
  facet normal 0.492034 -0.677247 0.547028
    outer loop
      vertex -1.75292 2.11891 -4.2
      vertex -1.47352 2.3219 -4.2
      vertex -3.50583 4.23782 0
    endloop
  endfacet
  facet normal 0.104921 -0.830513 0.547029
    outer loop
      vertex -0.515298 2.70129 -4.2
      vertex -0.345347 5.48915 0
      vertex -1.0306 5.40258 0
    endloop
  endfacet
  facet normal 0.104909 -0.830513 0.54703
    outer loop
      vertex -0.345347 5.48915 0
      vertex -0.515298 2.70129 -4.2
      vertex -0.172673 2.74457 -4.2
    endloop
  endfacet
  facet normal 0.573038 -0.610234 0.54703
    outer loop
      vertex -2.00466 1.8825 -4.2
      vertex -3.50583 4.23782 0
      vertex -4.00933 3.76501 0
    endloop
  endfacet
  facet normal 0.492045 -0.677238 0.547029
    outer loop
      vertex -1.47352 2.3219 -4.2
      vertex -2.94705 4.6438 0
      vertex -3.50583 4.23782 0
    endloop
  endfacet
  facet normal 0.403288 -0.733565 0.547029
    outer loop
      vertex -1.47352 2.3219 -4.2
      vertex -2.34179 4.97655 0
      vertex -2.94705 4.6438 0
    endloop
  endfacet
  facet normal 0.757445 -0.356422 0.547029
    outer loop
      vertex -5.11377 2.02468 0
      vertex -2.40984 1.32482 -4.2
      vertex -4.81969 2.64964 0
    endloop
  endfacet
  facet normal 0.757445 -0.356422 0.547029
    outer loop
      vertex -2.40984 1.32482 -4.2
      vertex -5.11377 2.02468 0
      vertex -2.55688 1.01234 -4.2
    endloop
  endfacet
  facet normal 0.835463 0.0525519 0.547028
    outer loop
      vertex -2.72832 -0.344666 -4.2
      vertex -2.75 0 -4.2
      vertex -5.45663 -0.689332 0
    endloop
  endfacet
  facet normal 0.822282 -0.156879 0.54703
    outer loop
      vertex -2.72832 0.344666 -4.2
      vertex -2.6636 0.683897 -4.2
      vertex -5.32721 1.36779 0
    endloop
  endfacet
  facet normal 0.835462 0.0525639 0.547029
    outer loop
      vertex -5.45663 -0.689332 0
      vertex -2.75 0 -4.2
      vertex -5.5 0 0
    endloop
  endfacet
  facet normal -0.822282 0.156879 0.54703
    outer loop
      vertex 5.32721 -1.36779 0
      vertex 2.72832 -0.344666 -4.2
      vertex 2.6636 -0.683897 -4.2
    endloop
  endfacet
  facet normal -0.706807 0.448533 0.54703
    outer loop
      vertex 4.81969 -2.64964 0
      vertex 2.40984 -1.32482 -4.2
      vertex 2.2248 -1.61641 -4.2
    endloop
  endfacet
  facet normal -0.208185 0.810814 0.547028
    outer loop
      vertex 1.0306 -5.40258 0
      vertex 1.69959 -5.23081 0
      vertex 0.849796 -2.61541 -4.2
    endloop
  endfacet
  facet normal -0.308157 0.778331 0.547028
    outer loop
      vertex 1.69959 -5.23081 0
      vertex 2.34179 -4.97655 0
      vertex 0.849796 -2.61541 -4.2
    endloop
  endfacet
  facet normal -0.208171 0.810817 0.547029
    outer loop
      vertex 1.0306 -5.40258 0
      vertex 0.849796 -2.61541 -4.2
      vertex 0.515298 -2.70129 -4.2
    endloop
  endfacet
  facet normal -0.403278 0.73357 0.54703
    outer loop
      vertex 2.34179 -4.97655 0
      vertex 1.47352 -2.3219 -4.2
      vertex 1.17089 -2.48827 -4.2
    endloop
  endfacet
  facet normal -0.492045 0.677238 0.547029
    outer loop
      vertex 2.94705 -4.6438 0
      vertex 3.50583 -4.23782 0
      vertex 1.47352 -2.3219 -4.2
    endloop
  endfacet
  facet normal -0.573058 0.610218 0.547027
    outer loop
      vertex 3.50583 -4.23782 0
      vertex 2.00466 -1.8825 -4.2
      vertex 1.75292 -2.11891 -4.2
    endloop
  endfacet
  facet normal -0.492034 0.677247 0.547028
    outer loop
      vertex 3.50583 -4.23782 0
      vertex 1.75292 -2.11891 -4.2
      vertex 1.47352 -2.3219 -4.2
    endloop
  endfacet
  facet normal 0.796141 0.258688 0.547029
    outer loop
      vertex -5.32721 -1.36779 0
      vertex -2.55688 -1.01234 -4.2
      vertex -2.6636 -0.683897 -4.2
    endloop
  endfacet
  facet normal 0.796141 0.258686 0.547029
    outer loop
      vertex -2.55688 -1.01234 -4.2
      vertex -5.32721 -1.36779 0
      vertex -5.11377 -2.02468 0
    endloop
  endfacet
  facet normal 0.644995 0.533613 0.547027
    outer loop
      vertex -4.44959 -3.23282 0
      vertex -2.00466 -1.8825 -4.2
      vertex -2.2248 -1.61641 -4.2
    endloop
  endfacet
  facet normal 0.64501 0.533592 0.54703
    outer loop
      vertex -2.00466 -1.8825 -4.2
      vertex -4.44959 -3.23282 0
      vertex -4.00933 -3.76501 0
    endloop
  endfacet
  facet normal 0.706797 0.448551 0.547028
    outer loop
      vertex -4.44959 -3.23282 0
      vertex -2.2248 -1.61641 -4.2
      vertex -4.81969 -2.64964 0
    endloop
  endfacet
  facet normal 0.208185 0.810814 0.547028
    outer loop
      vertex -1.0306 -5.40258 0
      vertex -0.849796 -2.61541 -4.2
      vertex -1.69959 -5.23081 0
    endloop
  endfacet
  facet normal 0.208171 0.810817 0.547029
    outer loop
      vertex -0.515298 -2.70129 -4.2
      vertex -0.849796 -2.61541 -4.2
      vertex -1.0306 -5.40258 0
    endloop
  endfacet
  facet normal 0.403278 0.73357 0.54703
    outer loop
      vertex -1.17089 -2.48827 -4.2
      vertex -1.47352 -2.3219 -4.2
      vertex -2.34179 -4.97655 0
    endloop
  endfacet
  facet normal -0.403288 -0.733565 0.547029
    outer loop
      vertex 2.94705 4.6438 0
      vertex 2.34179 4.97655 0
      vertex 1.47352 2.3219 -4.2
    endloop
  endfacet
  facet normal -0.308157 -0.778331 0.547028
    outer loop
      vertex 2.34179 4.97655 0
      vertex 1.69959 5.23081 0
      vertex 0.849796 2.61541 -4.2
    endloop
  endfacet
  facet normal -0.104909 -0.830513 0.54703
    outer loop
      vertex 0.515298 2.70129 -4.2
      vertex 0.345347 5.48915 0
      vertex 0.172673 2.74457 -4.2
    endloop
  endfacet
  facet normal -0.104921 -0.830513 0.547029
    outer loop
      vertex 0.345347 5.48915 0
      vertex 0.515298 2.70129 -4.2
      vertex 1.0306 5.40258 0
    endloop
  endfacet
  facet normal 0 -0.837113 0.54703
    outer loop
      vertex -0.172673 2.74457 -4.2
      vertex 0.345347 5.48915 0
      vertex -0.345347 5.48915 0
    endloop
  endfacet
  facet normal 0 -0.837113 0.54703
    outer loop
      vertex 0.345347 5.48915 0
      vertex -0.172673 2.74457 -4.2
      vertex 0.172673 2.74457 -4.2
    endloop
  endfacet
  facet normal -0.822287 -0.156856 0.547028
    outer loop
      vertex 5.45663 0.689332 0
      vertex 5.32721 1.36779 0
      vertex 2.72832 0.344666 -4.2
    endloop
  endfacet
  facet normal -0.822282 -0.156879 0.54703
    outer loop
      vertex 2.72832 0.344666 -4.2
      vertex 5.32721 1.36779 0
      vertex 2.6636 0.683897 -4.2
    endloop
  endfacet
  facet normal -0.757445 -0.356422 0.547029
    outer loop
      vertex 2.40984 1.32482 -4.2
      vertex 5.11377 2.02468 0
      vertex 4.81969 2.64964 0
    endloop
  endfacet
  facet normal -0.757445 -0.356422 0.547029
    outer loop
      vertex 5.11377 2.02468 0
      vertex 2.40984 1.32482 -4.2
      vertex 2.55688 1.01234 -4.2
    endloop
  endfacet
  facet normal -0.573038 -0.610234 0.54703
    outer loop
      vertex 4.00933 3.76501 0
      vertex 3.50583 4.23782 0
      vertex 2.00466 1.8825 -4.2
    endloop
  endfacet
  facet normal 0.208185 -0.810814 0.547028
    outer loop
      vertex -0.849796 2.61541 -4.2
      vertex -1.0306 5.40258 0
      vertex -1.69959 5.23081 0
    endloop
  endfacet
  facet normal 0.308157 -0.778331 0.547028
    outer loop
      vertex -0.849796 2.61541 -4.2
      vertex -1.69959 5.23081 0
      vertex -2.34179 4.97655 0
    endloop
  endfacet
  facet normal 0.403278 -0.73357 0.54703
    outer loop
      vertex -1.47352 2.3219 -4.2
      vertex -1.17089 2.48827 -4.2
      vertex -2.34179 4.97655 0
    endloop
  endfacet
  facet normal 0.573058 -0.610218 0.547027
    outer loop
      vertex -2.00466 1.8825 -4.2
      vertex -1.75292 2.11891 -4.2
      vertex -3.50583 4.23782 0
    endloop
  endfacet
  facet normal 0.706797 -0.448551 0.547028
    outer loop
      vertex -2.2248 1.61641 -4.2
      vertex -4.44959 3.23282 0
      vertex -4.81969 2.64964 0
    endloop
  endfacet
  facet normal 0.822287 -0.156856 0.547028
    outer loop
      vertex -2.72832 0.344666 -4.2
      vertex -5.32721 1.36779 0
      vertex -5.45663 0.689332 0
    endloop
  endfacet
  facet normal 0.835462 -0.0525639 0.547029
    outer loop
      vertex -2.75 0 -4.2
      vertex -5.45663 0.689332 0
      vertex -5.5 0 0
    endloop
  endfacet
  facet normal 0.835463 -0.0525519 0.547028
    outer loop
      vertex -2.75 0 -4.2
      vertex -2.72832 0.344666 -4.2
      vertex -5.45663 0.689332 0
    endloop
  endfacet
  facet normal 0.104909 0.830513 0.54703
    outer loop
      vertex -0.515298 -2.70129 -4.2
      vertex -0.345347 -5.48915 0
      vertex -0.172673 -2.74457 -4.2
    endloop
  endfacet
  facet normal 0.104921 0.830513 0.547029
    outer loop
      vertex -0.345347 -5.48915 0
      vertex -0.515298 -2.70129 -4.2
      vertex -1.0306 -5.40258 0
    endloop
  endfacet
  facet normal 0.492045 0.677238 0.547029
    outer loop
      vertex -2.94705 -4.6438 0
      vertex -1.47352 -2.3219 -4.2
      vertex -3.50583 -4.23782 0
    endloop
  endfacet
  facet normal 0.403288 0.733565 0.547029
    outer loop
      vertex -2.34179 -4.97655 0
      vertex -1.47352 -2.3219 -4.2
      vertex -2.94705 -4.6438 0
    endloop
  endfacet
  facet normal 0.308182 0.77832 0.54703
    outer loop
      vertex -0.849796 -2.61541 -4.2
      vertex -1.17089 -2.48827 -4.2
      vertex -2.34179 -4.97655 0
    endloop
  endfacet
  facet normal -0.403278 -0.73357 0.54703
    outer loop
      vertex 1.47352 2.3219 -4.2
      vertex 2.34179 4.97655 0
      vertex 1.17089 2.48827 -4.2
    endloop
  endfacet
  facet normal -0.208185 -0.810814 0.547028
    outer loop
      vertex 1.69959 5.23081 0
      vertex 1.0306 5.40258 0
      vertex 0.849796 2.61541 -4.2
    endloop
  endfacet
  facet normal -0.208171 -0.810817 0.547029
    outer loop
      vertex 0.849796 2.61541 -4.2
      vertex 1.0306 5.40258 0
      vertex 0.515298 2.70129 -4.2
    endloop
  endfacet
  facet normal -0.796141 -0.258686 0.547029
    outer loop
      vertex 2.55688 1.01234 -4.2
      vertex 5.32721 1.36779 0
      vertex 5.11377 2.02468 0
    endloop
  endfacet
  facet normal -0.796141 -0.258688 0.547029
    outer loop
      vertex 5.32721 1.36779 0
      vertex 2.55688 1.01234 -4.2
      vertex 2.6636 0.683897 -4.2
    endloop
  endfacet
  facet normal 0.706807 -0.448533 0.54703
    outer loop
      vertex -2.40984 1.32482 -4.2
      vertex -2.2248 1.61641 -4.2
      vertex -4.81969 2.64964 0
    endloop
  endfacet
  facet normal 0.796141 -0.258686 0.547029
    outer loop
      vertex -5.32721 1.36779 0
      vertex -2.55688 1.01234 -4.2
      vertex -5.11377 2.02468 0
    endloop
  endfacet
  facet normal 0.796141 -0.258688 0.547029
    outer loop
      vertex -2.55688 1.01234 -4.2
      vertex -5.32721 1.36779 0
      vertex -2.6636 0.683897 -4.2
    endloop
  endfacet
  facet normal 0.573058 0.610218 0.547027
    outer loop
      vertex -1.75292 -2.11891 -4.2
      vertex -2.00466 -1.8825 -4.2
      vertex -3.50583 -4.23782 0
    endloop
  endfacet
  facet normal 0.573038 0.610234 0.54703
    outer loop
      vertex -3.50583 -4.23782 0
      vertex -2.00466 -1.8825 -4.2
      vertex -4.00933 -3.76501 0
    endloop
  endfacet
  facet normal -0.308182 -0.77832 0.54703
    outer loop
      vertex 1.17089 2.48827 -4.2
      vertex 2.34179 4.97655 0
      vertex 0.849796 2.61541 -4.2
    endloop
  endfacet
  facet normal -0.64501 -0.533592 0.54703
    outer loop
      vertex 2.00466 1.8825 -4.2
      vertex 4.44959 3.23282 0
      vertex 4.00933 3.76501 0
    endloop
  endfacet
  facet normal -0.644995 -0.533613 0.547027
    outer loop
      vertex 4.44959 3.23282 0
      vertex 2.00466 1.8825 -4.2
      vertex 2.2248 1.61641 -4.2
    endloop
  endfacet
  facet normal -0.706797 -0.448551 0.547028
    outer loop
      vertex 4.81969 2.64964 0
      vertex 4.44959 3.23282 0
      vertex 2.2248 1.61641 -4.2
    endloop
  endfacet
  facet normal -0.706807 -0.448533 0.54703
    outer loop
      vertex 2.40984 1.32482 -4.2
      vertex 4.81969 2.64964 0
      vertex 2.2248 1.61641 -4.2
    endloop
  endfacet
  facet normal -0.904829 -0.425775 0
    outer loop
      vertex 2.55688 1.01234 -12
      vertex 2.40984 1.32482 -4.2
      vertex 2.40984 1.32482 -12
    endloop
  endfacet
  facet normal -0.904829 -0.425775 0
    outer loop
      vertex 2.40984 1.32482 -4.2
      vertex 2.55688 1.01234 -12
      vertex 2.55688 1.01234 -4.2
    endloop
  endfacet
  facet normal -0.844339 -0.535809 0
    outer loop
      vertex 2.40984 1.32482 -12
      vertex 2.2248 1.61641 -4.2
      vertex 2.2248 1.61641 -12
    endloop
  endfacet
  facet normal -0.844339 -0.535809 0
    outer loop
      vertex 2.2248 1.61641 -4.2
      vertex 2.40984 1.32482 -12
      vertex 2.40984 1.32482 -4.2
    endloop
  endfacet
  facet normal -0.368149 -0.929767 0
    outer loop
      vertex 0.849796 2.61541 -12
      vertex 1.17089 2.48827 -4.2
      vertex 0.849796 2.61541 -4.2
    endloop
  endfacet
  facet normal -0.368149 -0.929767 -0
    outer loop
      vertex 1.17089 2.48827 -4.2
      vertex 0.849796 2.61541 -12
      vertex 1.17089 2.48827 -12
    endloop
  endfacet
  facet normal 0.368149 -0.929767 0
    outer loop
      vertex -1.17089 2.48827 -12
      vertex -0.849796 2.61541 -4.2
      vertex -1.17089 2.48827 -4.2
    endloop
  endfacet
  facet normal 0.368149 -0.929767 0
    outer loop
      vertex -0.849796 2.61541 -4.2
      vertex -1.17089 2.48827 -12
      vertex -0.849796 2.61541 -12
    endloop
  endfacet
  facet normal 0.904829 -0.425775 0
    outer loop
      vertex -2.55688 1.01234 -4.2
      vertex -2.40984 1.32482 -12
      vertex -2.40984 1.32482 -4.2
    endloop
  endfacet
  facet normal 0.904829 -0.425775 0
    outer loop
      vertex -2.40984 1.32482 -12
      vertex -2.55688 1.01234 -4.2
      vertex -2.55688 1.01234 -12
    endloop
  endfacet
  facet normal -0.998028 0.0627774 0
    outer loop
      vertex 2.72832 -0.344666 -12
      vertex 2.75 0 -4.2
      vertex 2.75 0 -12
    endloop
  endfacet
  facet normal -0.998028 0.0627774 0
    outer loop
      vertex 2.75 0 -4.2
      vertex 2.72832 -0.344666 -12
      vertex 2.72832 -0.344666 -4.2
    endloop
  endfacet
  facet normal -0.684563 -0.728954 0
    outer loop
      vertex 1.75292 2.11891 -12
      vertex 2.00466 1.8825 -4.2
      vertex 1.75292 2.11891 -4.2
    endloop
  endfacet
  facet normal -0.684563 -0.728954 -0
    outer loop
      vertex 2.00466 1.8825 -4.2
      vertex 1.75292 2.11891 -12
      vertex 2.00466 1.8825 -12
    endloop
  endfacet
  facet normal 0 -1 0
    outer loop
      vertex -0.172673 2.74457 -12
      vertex 0.172673 2.74457 -4.2
      vertex -0.172673 2.74457 -4.2
    endloop
  endfacet
  facet normal 0 -1 -0
    outer loop
      vertex 0.172673 2.74457 -4.2
      vertex -0.172673 2.74457 -12
      vertex 0.172673 2.74457 -12
    endloop
  endfacet
  facet normal -0.587774 -0.809025 0
    outer loop
      vertex 1.47352 2.3219 -12
      vertex 1.75292 2.11891 -4.2
      vertex 1.47352 2.3219 -4.2
    endloop
  endfacet
  facet normal -0.587774 -0.809025 -0
    outer loop
      vertex 1.75292 2.11891 -4.2
      vertex 1.47352 2.3219 -12
      vertex 1.75292 2.11891 -12
    endloop
  endfacet
  facet normal 0.998028 -0.0627774 0
    outer loop
      vertex -2.75 0 -4.2
      vertex -2.72832 0.344666 -12
      vertex -2.72832 0.344666 -4.2
    endloop
  endfacet
  facet normal 0.998028 -0.0627774 0
    outer loop
      vertex -2.72832 0.344666 -12
      vertex -2.75 0 -4.2
      vertex -2.75 0 -12
    endloop
  endfacet
  facet normal 0.770497 -0.637443 0
    outer loop
      vertex -2.2248 1.61641 -4.2
      vertex -2.00466 1.8825 -12
      vertex -2.00466 1.8825 -4.2
    endloop
  endfacet
  facet normal 0.770497 -0.637443 0
    outer loop
      vertex -2.00466 1.8825 -12
      vertex -2.2248 1.61641 -4.2
      vertex -2.2248 1.61641 -12
    endloop
  endfacet
  facet normal 0.481749 -0.876309 0
    outer loop
      vertex -1.47352 2.3219 -12
      vertex -1.17089 2.48827 -4.2
      vertex -1.47352 2.3219 -4.2
    endloop
  endfacet
  facet normal 0.481749 -0.876309 0
    outer loop
      vertex -1.17089 2.48827 -4.2
      vertex -1.47352 2.3219 -12
      vertex -1.17089 2.48827 -12
    endloop
  endfacet
  facet normal 0.248678 -0.968586 0
    outer loop
      vertex -0.849796 2.61541 -12
      vertex -0.515298 2.70129 -4.2
      vertex -0.849796 2.61541 -4.2
    endloop
  endfacet
  facet normal 0.248678 -0.968586 0
    outer loop
      vertex -0.515298 2.70129 -4.2
      vertex -0.849796 2.61541 -12
      vertex -0.515298 2.70129 -12
    endloop
  endfacet
  facet normal -0.904829 0.425775 0
    outer loop
      vertex 2.40984 -1.32482 -12
      vertex 2.55688 -1.01234 -4.2
      vertex 2.55688 -1.01234 -12
    endloop
  endfacet
  facet normal -0.904829 0.425775 0
    outer loop
      vertex 2.55688 -1.01234 -4.2
      vertex 2.40984 -1.32482 -12
      vertex 2.40984 -1.32482 -4.2
    endloop
  endfacet
  facet normal 0.684563 0.728954 -0
    outer loop
      vertex -1.75292 -2.11891 -12
      vertex -2.00466 -1.8825 -4.2
      vertex -1.75292 -2.11891 -4.2
    endloop
  endfacet
  facet normal 0.684563 0.728954 0
    outer loop
      vertex -2.00466 -1.8825 -4.2
      vertex -1.75292 -2.11891 -12
      vertex -2.00466 -1.8825 -12
    endloop
  endfacet
  facet normal 0.904829 0.425775 0
    outer loop
      vertex -2.40984 -1.32482 -4.2
      vertex -2.55688 -1.01234 -12
      vertex -2.55688 -1.01234 -4.2
    endloop
  endfacet
  facet normal 0.904829 0.425775 0
    outer loop
      vertex -2.55688 -1.01234 -12
      vertex -2.40984 -1.32482 -4.2
      vertex -2.40984 -1.32482 -12
    endloop
  endfacet
  facet normal -0.481749 0.876309 0
    outer loop
      vertex 1.47352 -2.3219 -12
      vertex 1.17089 -2.48827 -4.2
      vertex 1.47352 -2.3219 -4.2
    endloop
  endfacet
  facet normal -0.481749 0.876309 0
    outer loop
      vertex 1.17089 -2.48827 -4.2
      vertex 1.47352 -2.3219 -12
      vertex 1.17089 -2.48827 -12
    endloop
  endfacet
  facet normal -0.982283 -0.187404 0
    outer loop
      vertex 2.72832 0.344666 -12
      vertex 2.6636 0.683897 -4.2
      vertex 2.6636 0.683897 -12
    endloop
  endfacet
  facet normal -0.982283 -0.187404 0
    outer loop
      vertex 2.6636 0.683897 -4.2
      vertex 2.72832 0.344666 -12
      vertex 2.72832 0.344666 -4.2
    endloop
  endfacet
  facet normal -0.951054 -0.309023 0
    outer loop
      vertex 2.6636 0.683897 -12
      vertex 2.55688 1.01234 -4.2
      vertex 2.55688 1.01234 -12
    endloop
  endfacet
  facet normal -0.951054 -0.309023 0
    outer loop
      vertex 2.55688 1.01234 -4.2
      vertex 2.6636 0.683897 -12
      vertex 2.6636 0.683897 -4.2
    endloop
  endfacet
  facet normal -0.770497 -0.637443 0
    outer loop
      vertex 2.2248 1.61641 -12
      vertex 2.00466 1.8825 -4.2
      vertex 2.00466 1.8825 -12
    endloop
  endfacet
  facet normal -0.770497 -0.637443 0
    outer loop
      vertex 2.00466 1.8825 -4.2
      vertex 2.2248 1.61641 -12
      vertex 2.2248 1.61641 -4.2
    endloop
  endfacet
  facet normal -0.248678 -0.968586 0
    outer loop
      vertex 0.515298 2.70129 -12
      vertex 0.849796 2.61541 -4.2
      vertex 0.515298 2.70129 -4.2
    endloop
  endfacet
  facet normal -0.248678 -0.968586 -0
    outer loop
      vertex 0.849796 2.61541 -4.2
      vertex 0.515298 2.70129 -12
      vertex 0.849796 2.61541 -12
    endloop
  endfacet
  facet normal -0.125323 -0.992116 0
    outer loop
      vertex 0.172673 2.74457 -12
      vertex 0.515298 2.70129 -4.2
      vertex 0.172673 2.74457 -4.2
    endloop
  endfacet
  facet normal -0.125323 -0.992116 -0
    outer loop
      vertex 0.515298 2.70129 -4.2
      vertex 0.172673 2.74457 -12
      vertex 0.515298 2.70129 -12
    endloop
  endfacet
  facet normal -0.481749 -0.876309 0
    outer loop
      vertex 1.17089 2.48827 -12
      vertex 1.47352 2.3219 -4.2
      vertex 1.17089 2.48827 -4.2
    endloop
  endfacet
  facet normal -0.481749 -0.876309 -0
    outer loop
      vertex 1.47352 2.3219 -4.2
      vertex 1.17089 2.48827 -12
      vertex 1.47352 2.3219 -12
    endloop
  endfacet
  facet normal 0.951054 -0.309023 0
    outer loop
      vertex -2.6636 0.683897 -4.2
      vertex -2.55688 1.01234 -12
      vertex -2.55688 1.01234 -4.2
    endloop
  endfacet
  facet normal 0.951054 -0.309023 0
    outer loop
      vertex -2.55688 1.01234 -12
      vertex -2.6636 0.683897 -4.2
      vertex -2.6636 0.683897 -12
    endloop
  endfacet
  facet normal 0.982283 -0.187404 0
    outer loop
      vertex -2.72832 0.344666 -4.2
      vertex -2.6636 0.683897 -12
      vertex -2.6636 0.683897 -4.2
    endloop
  endfacet
  facet normal 0.982283 -0.187404 0
    outer loop
      vertex -2.6636 0.683897 -12
      vertex -2.72832 0.344666 -4.2
      vertex -2.72832 0.344666 -12
    endloop
  endfacet
  facet normal 0.844339 -0.535809 0
    outer loop
      vertex -2.40984 1.32482 -4.2
      vertex -2.2248 1.61641 -12
      vertex -2.2248 1.61641 -4.2
    endloop
  endfacet
  facet normal 0.844339 -0.535809 0
    outer loop
      vertex -2.2248 1.61641 -12
      vertex -2.40984 1.32482 -4.2
      vertex -2.40984 1.32482 -12
    endloop
  endfacet
  facet normal 0.125323 -0.992116 0
    outer loop
      vertex -0.515298 2.70129 -12
      vertex -0.172673 2.74457 -4.2
      vertex -0.515298 2.70129 -4.2
    endloop
  endfacet
  facet normal 0.125323 -0.992116 0
    outer loop
      vertex -0.172673 2.74457 -4.2
      vertex -0.515298 2.70129 -12
      vertex -0.172673 2.74457 -12
    endloop
  endfacet
  facet normal 0.587774 -0.809025 0
    outer loop
      vertex -1.75292 2.11891 -12
      vertex -1.47352 2.3219 -4.2
      vertex -1.75292 2.11891 -4.2
    endloop
  endfacet
  facet normal 0.587774 -0.809025 0
    outer loop
      vertex -1.47352 2.3219 -4.2
      vertex -1.75292 2.11891 -12
      vertex -1.47352 2.3219 -12
    endloop
  endfacet
  facet normal 0.684563 -0.728954 0
    outer loop
      vertex -2.00466 1.8825 -12
      vertex -1.75292 2.11891 -4.2
      vertex -2.00466 1.8825 -4.2
    endloop
  endfacet
  facet normal 0.684563 -0.728954 0
    outer loop
      vertex -1.75292 2.11891 -4.2
      vertex -2.00466 1.8825 -12
      vertex -1.75292 2.11891 -12
    endloop
  endfacet
  facet normal -0.998028 -0.0627774 0
    outer loop
      vertex 2.75 0 -12
      vertex 2.72832 0.344666 -4.2
      vertex 2.72832 0.344666 -12
    endloop
  endfacet
  facet normal -0.998028 -0.0627774 0
    outer loop
      vertex 2.72832 0.344666 -4.2
      vertex 2.75 0 -12
      vertex 2.75 0 -4.2
    endloop
  endfacet
  facet normal -0.951054 0.309023 0
    outer loop
      vertex 2.55688 -1.01234 -12
      vertex 2.6636 -0.683897 -4.2
      vertex 2.6636 -0.683897 -12
    endloop
  endfacet
  facet normal -0.951054 0.309023 0
    outer loop
      vertex 2.6636 -0.683897 -4.2
      vertex 2.55688 -1.01234 -12
      vertex 2.55688 -1.01234 -4.2
    endloop
  endfacet
  facet normal -0.770497 0.637443 0
    outer loop
      vertex 2.00466 -1.8825 -12
      vertex 2.2248 -1.61641 -4.2
      vertex 2.2248 -1.61641 -12
    endloop
  endfacet
  facet normal -0.770497 0.637443 0
    outer loop
      vertex 2.2248 -1.61641 -4.2
      vertex 2.00466 -1.8825 -12
      vertex 2.00466 -1.8825 -4.2
    endloop
  endfacet
  facet normal 0.998028 0.0627774 0
    outer loop
      vertex -2.72832 -0.344666 -4.2
      vertex -2.75 0 -12
      vertex -2.75 0 -4.2
    endloop
  endfacet
  facet normal 0.998028 0.0627774 0
    outer loop
      vertex -2.75 0 -12
      vertex -2.72832 -0.344666 -4.2
      vertex -2.72832 -0.344666 -12
    endloop
  endfacet
  facet normal 0.770497 0.637443 0
    outer loop
      vertex -2.00466 -1.8825 -4.2
      vertex -2.2248 -1.61641 -12
      vertex -2.2248 -1.61641 -4.2
    endloop
  endfacet
  facet normal 0.770497 0.637443 0
    outer loop
      vertex -2.2248 -1.61641 -12
      vertex -2.00466 -1.8825 -4.2
      vertex -2.00466 -1.8825 -12
    endloop
  endfacet
  facet normal -0.125323 0.992116 0
    outer loop
      vertex 0.515298 -2.70129 -12
      vertex 0.172673 -2.74457 -4.2
      vertex 0.515298 -2.70129 -4.2
    endloop
  endfacet
  facet normal -0.125323 0.992116 0
    outer loop
      vertex 0.172673 -2.74457 -4.2
      vertex 0.515298 -2.70129 -12
      vertex 0.172673 -2.74457 -12
    endloop
  endfacet
  facet normal -0.587774 0.809025 0
    outer loop
      vertex 1.75292 -2.11891 -12
      vertex 1.47352 -2.3219 -4.2
      vertex 1.75292 -2.11891 -4.2
    endloop
  endfacet
  facet normal -0.587774 0.809025 0
    outer loop
      vertex 1.47352 -2.3219 -4.2
      vertex 1.75292 -2.11891 -12
      vertex 1.47352 -2.3219 -12
    endloop
  endfacet
  facet normal -0.844339 0.535809 0
    outer loop
      vertex 2.2248 -1.61641 -12
      vertex 2.40984 -1.32482 -4.2
      vertex 2.40984 -1.32482 -12
    endloop
  endfacet
  facet normal -0.844339 0.535809 0
    outer loop
      vertex 2.40984 -1.32482 -4.2
      vertex 2.2248 -1.61641 -12
      vertex 2.2248 -1.61641 -4.2
    endloop
  endfacet
  facet normal 0 1 -0
    outer loop
      vertex 0.172673 -2.74457 -12
      vertex -0.172673 -2.74457 -4.2
      vertex 0.172673 -2.74457 -4.2
    endloop
  endfacet
  facet normal 0 1 0
    outer loop
      vertex -0.172673 -2.74457 -4.2
      vertex 0.172673 -2.74457 -12
      vertex -0.172673 -2.74457 -12
    endloop
  endfacet
  facet normal 0.951054 0.309023 0
    outer loop
      vertex -2.55688 -1.01234 -4.2
      vertex -2.6636 -0.683897 -12
      vertex -2.6636 -0.683897 -4.2
    endloop
  endfacet
  facet normal 0.951054 0.309023 0
    outer loop
      vertex -2.6636 -0.683897 -12
      vertex -2.55688 -1.01234 -4.2
      vertex -2.55688 -1.01234 -12
    endloop
  endfacet
  facet normal 0.982283 0.187404 0
    outer loop
      vertex -2.6636 -0.683897 -4.2
      vertex -2.72832 -0.344666 -12
      vertex -2.72832 -0.344666 -4.2
    endloop
  endfacet
  facet normal 0.982283 0.187404 0
    outer loop
      vertex -2.72832 -0.344666 -12
      vertex -2.6636 -0.683897 -4.2
      vertex -2.6636 -0.683897 -12
    endloop
  endfacet
  facet normal -0.368149 0.929767 0
    outer loop
      vertex 1.17089 -2.48827 -12
      vertex 0.849796 -2.61541 -4.2
      vertex 1.17089 -2.48827 -4.2
    endloop
  endfacet
  facet normal -0.368149 0.929767 0
    outer loop
      vertex 0.849796 -2.61541 -4.2
      vertex 1.17089 -2.48827 -12
      vertex 0.849796 -2.61541 -12
    endloop
  endfacet
  facet normal -0.248678 0.968586 0
    outer loop
      vertex 0.849796 -2.61541 -12
      vertex 0.515298 -2.70129 -4.2
      vertex 0.849796 -2.61541 -4.2
    endloop
  endfacet
  facet normal -0.248678 0.968586 0
    outer loop
      vertex 0.515298 -2.70129 -4.2
      vertex 0.849796 -2.61541 -12
      vertex 0.515298 -2.70129 -12
    endloop
  endfacet
  facet normal -0.684563 0.728954 0
    outer loop
      vertex 2.00466 -1.8825 -12
      vertex 1.75292 -2.11891 -4.2
      vertex 2.00466 -1.8825 -4.2
    endloop
  endfacet
  facet normal -0.684563 0.728954 0
    outer loop
      vertex 1.75292 -2.11891 -4.2
      vertex 2.00466 -1.8825 -12
      vertex 1.75292 -2.11891 -12
    endloop
  endfacet
  facet normal -0.982283 0.187404 0
    outer loop
      vertex 2.6636 -0.683897 -12
      vertex 2.72832 -0.344666 -4.2
      vertex 2.72832 -0.344666 -12
    endloop
  endfacet
  facet normal -0.982283 0.187404 0
    outer loop
      vertex 2.72832 -0.344666 -4.2
      vertex 2.6636 -0.683897 -12
      vertex 2.6636 -0.683897 -4.2
    endloop
  endfacet
  facet normal 0.248678 0.968586 -0
    outer loop
      vertex -0.515298 -2.70129 -12
      vertex -0.849796 -2.61541 -4.2
      vertex -0.515298 -2.70129 -4.2
    endloop
  endfacet
  facet normal 0.248678 0.968586 0
    outer loop
      vertex -0.849796 -2.61541 -4.2
      vertex -0.515298 -2.70129 -12
      vertex -0.849796 -2.61541 -12
    endloop
  endfacet
  facet normal 0.481749 0.876309 -0
    outer loop
      vertex -1.17089 -2.48827 -12
      vertex -1.47352 -2.3219 -4.2
      vertex -1.17089 -2.48827 -4.2
    endloop
  endfacet
  facet normal 0.481749 0.876309 0
    outer loop
      vertex -1.47352 -2.3219 -4.2
      vertex -1.17089 -2.48827 -12
      vertex -1.47352 -2.3219 -12
    endloop
  endfacet
  facet normal 0.844339 0.535809 0
    outer loop
      vertex -2.2248 -1.61641 -4.2
      vertex -2.40984 -1.32482 -12
      vertex -2.40984 -1.32482 -4.2
    endloop
  endfacet
  facet normal 0.844339 0.535809 0
    outer loop
      vertex -2.40984 -1.32482 -12
      vertex -2.2248 -1.61641 -4.2
      vertex -2.2248 -1.61641 -12
    endloop
  endfacet
  facet normal 0.125323 0.992116 -0
    outer loop
      vertex -0.172673 -2.74457 -12
      vertex -0.515298 -2.70129 -4.2
      vertex -0.172673 -2.74457 -4.2
    endloop
  endfacet
  facet normal 0.125323 0.992116 0
    outer loop
      vertex -0.515298 -2.70129 -4.2
      vertex -0.172673 -2.74457 -12
      vertex -0.515298 -2.70129 -12
    endloop
  endfacet
  facet normal 0.587774 0.809025 -0
    outer loop
      vertex -1.47352 -2.3219 -12
      vertex -1.75292 -2.11891 -4.2
      vertex -1.47352 -2.3219 -4.2
    endloop
  endfacet
  facet normal 0.587774 0.809025 0
    outer loop
      vertex -1.75292 -2.11891 -4.2
      vertex -1.47352 -2.3219 -12
      vertex -1.75292 -2.11891 -12
    endloop
  endfacet
  facet normal 0.368149 0.929767 -0
    outer loop
      vertex -0.849796 -2.61541 -12
      vertex -1.17089 -2.48827 -4.2
      vertex -0.849796 -2.61541 -4.2
    endloop
  endfacet
  facet normal 0.368149 0.929767 0
    outer loop
      vertex -1.17089 -2.48827 -4.2
      vertex -0.849796 -2.61541 -12
      vertex -1.17089 -2.48827 -12
    endloop
  endfacet
  facet normal 0.998026 0.0628013 0
    outer loop
      vertex 15 0 0
      vertex 14.8817 1.88 -12
      vertex 14.8817 1.88 0
    endloop
  endfacet
  facet normal 0.998026 0.0628013 0
    outer loop
      vertex 14.8817 1.88 -12
      vertex 15 0 0
      vertex 15 0 -12
    endloop
  endfacet
  facet normal -0.998026 0.0628013 0
    outer loop
      vertex -15 0 -12
      vertex -14.8817 1.88 0
      vertex -14.8817 1.88 -12
    endloop
  endfacet
  facet normal -0.998026 0.0628013 0
    outer loop
      vertex -14.8817 1.88 0
      vertex -15 0 -12
      vertex -15 0 0
    endloop
  endfacet
  facet normal 0 1 -0
    outer loop
      vertex 0.941857 14.9704 -12
      vertex -0.941857 14.9704 0
      vertex 0.941857 14.9704 0
    endloop
  endfacet
  facet normal 0 1 0
    outer loop
      vertex -0.941857 14.9704 0
      vertex 0.941857 14.9704 -12
      vertex -0.941857 14.9704 -12
    endloop
  endfacet
  facet normal 0 -1 0
    outer loop
      vertex -0.941857 -14.9704 -12
      vertex 0.941857 -14.9704 0
      vertex -0.941857 -14.9704 0
    endloop
  endfacet
  facet normal 0 -1 -0
    outer loop
      vertex 0.941857 -14.9704 0
      vertex -0.941857 -14.9704 -12
      vertex 0.941857 -14.9704 -12
    endloop
  endfacet
  facet normal 0.684557 0.728959 -0
    outer loop
      vertex 10.9345 10.2682 -12
      vertex 9.56136 11.5577 0
      vertex 10.9345 10.2682 0
    endloop
  endfacet
  facet normal 0.684557 0.728959 0
    outer loop
      vertex 9.56136 11.5577 0
      vertex 10.9345 10.2682 -12
      vertex 9.56136 11.5577 -12
    endloop
  endfacet
  facet normal -0.684557 0.728959 0
    outer loop
      vertex -9.56136 11.5577 -12
      vertex -10.9345 10.2682 0
      vertex -9.56136 11.5577 0
    endloop
  endfacet
  facet normal -0.684557 0.728959 0
    outer loop
      vertex -10.9345 10.2682 0
      vertex -9.56136 11.5577 -12
      vertex -10.9345 10.2682 -12
    endloop
  endfacet
  facet normal -0.368104 0.929785 0
    outer loop
      vertex -4.63525 14.2658 -12
      vertex -6.38669 13.5724 0
      vertex -4.63525 14.2658 0
    endloop
  endfacet
  facet normal -0.368104 0.929785 0
    outer loop
      vertex -6.38669 13.5724 0
      vertex -4.63525 14.2658 -12
      vertex -6.38669 13.5724 -12
    endloop
  endfacet
  facet normal 0.951057 -0.309017 0
    outer loop
      vertex 13.9466 -5.52187 0
      vertex 14.5287 -3.73035 -12
      vertex 14.5287 -3.73035 0
    endloop
  endfacet
  facet normal 0.951057 -0.309017 0
    outer loop
      vertex 14.5287 -3.73035 -12
      vertex 13.9466 -5.52187 0
      vertex 13.9466 -5.52187 -12
    endloop
  endfacet
  facet normal 0.904837 0.425758 0
    outer loop
      vertex 13.9466 5.52187 0
      vertex 13.1446 7.22631 -12
      vertex 13.1446 7.22631 0
    endloop
  endfacet
  facet normal 0.904837 0.425758 0
    outer loop
      vertex 13.1446 7.22631 -12
      vertex 13.9466 5.52187 0
      vertex 13.9466 5.52187 -12
    endloop
  endfacet
  facet normal 0.844338 0.535811 0
    outer loop
      vertex 13.1446 7.22631 0
      vertex 12.1353 8.81678 -12
      vertex 12.1353 8.81678 0
    endloop
  endfacet
  facet normal 0.844338 0.535811 0
    outer loop
      vertex 12.1353 8.81678 -12
      vertex 13.1446 7.22631 0
      vertex 13.1446 7.22631 -12
    endloop
  endfacet
  facet normal 0.368104 0.929785 -0
    outer loop
      vertex 6.38669 13.5724 -12
      vertex 4.63525 14.2658 0
      vertex 6.38669 13.5724 0
    endloop
  endfacet
  facet normal 0.368104 0.929785 0
    outer loop
      vertex 4.63525 14.2658 0
      vertex 6.38669 13.5724 -12
      vertex 4.63525 14.2658 -12
    endloop
  endfacet
  facet normal 0.48176 0.876303 -0
    outer loop
      vertex 8.0374 12.6649 -12
      vertex 6.38669 13.5724 0
      vertex 8.0374 12.6649 0
    endloop
  endfacet
  facet normal 0.48176 0.876303 0
    outer loop
      vertex 6.38669 13.5724 0
      vertex 8.0374 12.6649 -12
      vertex 6.38669 13.5724 -12
    endloop
  endfacet
  facet normal -0.904837 0.425758 0
    outer loop
      vertex -13.9466 5.52187 -12
      vertex -13.1446 7.22631 0
      vertex -13.1446 7.22631 -12
    endloop
  endfacet
  facet normal -0.904837 0.425758 0
    outer loop
      vertex -13.1446 7.22631 0
      vertex -13.9466 5.52187 -12
      vertex -13.9466 5.52187 0
    endloop
  endfacet
  facet normal -0.951057 0.309017 0
    outer loop
      vertex -14.5287 3.73035 -12
      vertex -13.9466 5.52187 0
      vertex -13.9466 5.52187 -12
    endloop
  endfacet
  facet normal -0.951057 0.309017 0
    outer loop
      vertex -13.9466 5.52187 0
      vertex -14.5287 3.73035 -12
      vertex -14.5287 3.73035 0
    endloop
  endfacet
  facet normal -0.24871 0.968578 0
    outer loop
      vertex -2.81072 14.7343 -12
      vertex -4.63525 14.2658 0
      vertex -2.81072 14.7343 0
    endloop
  endfacet
  facet normal -0.24871 0.968578 0
    outer loop
      vertex -4.63525 14.2658 0
      vertex -2.81072 14.7343 -12
      vertex -4.63525 14.2658 -12
    endloop
  endfacet
  facet normal 0.951057 0.309017 0
    outer loop
      vertex 14.5287 3.73035 0
      vertex 13.9466 5.52187 -12
      vertex 13.9466 5.52187 0
    endloop
  endfacet
  facet normal 0.951057 0.309017 0
    outer loop
      vertex 13.9466 5.52187 -12
      vertex 14.5287 3.73035 0
      vertex 14.5287 3.73035 -12
    endloop
  endfacet
  facet normal 0.982285 0.187395 0
    outer loop
      vertex 14.8817 1.88 0
      vertex 14.5287 3.73035 -12
      vertex 14.5287 3.73035 0
    endloop
  endfacet
  facet normal 0.982285 0.187395 0
    outer loop
      vertex 14.5287 3.73035 -12
      vertex 14.8817 1.88 0
      vertex 14.8817 1.88 -12
    endloop
  endfacet
  facet normal 0.770492 0.63745 0
    outer loop
      vertex 12.1353 8.81678 0
      vertex 10.9345 10.2682 -12
      vertex 10.9345 10.2682 0
    endloop
  endfacet
  facet normal 0.770492 0.63745 0
    outer loop
      vertex 10.9345 10.2682 -12
      vertex 12.1353 8.81678 0
      vertex 12.1353 8.81678 -12
    endloop
  endfacet
  facet normal 0.24871 0.968578 -0
    outer loop
      vertex 4.63525 14.2658 -12
      vertex 2.81072 14.7343 0
      vertex 4.63525 14.2658 0
    endloop
  endfacet
  facet normal 0.24871 0.968578 0
    outer loop
      vertex 2.81072 14.7343 0
      vertex 4.63525 14.2658 -12
      vertex 2.81072 14.7343 -12
    endloop
  endfacet
  facet normal 0.125337 0.992114 -0
    outer loop
      vertex 2.81072 14.7343 -12
      vertex 0.941857 14.9704 0
      vertex 2.81072 14.7343 0
    endloop
  endfacet
  facet normal 0.125337 0.992114 0
    outer loop
      vertex 0.941857 14.9704 0
      vertex 2.81072 14.7343 -12
      vertex 0.941857 14.9704 -12
    endloop
  endfacet
  facet normal 0.587778 0.809022 -0
    outer loop
      vertex 9.56136 11.5577 -12
      vertex 8.0374 12.6649 0
      vertex 9.56136 11.5577 0
    endloop
  endfacet
  facet normal 0.587778 0.809022 0
    outer loop
      vertex 8.0374 12.6649 0
      vertex 9.56136 11.5577 -12
      vertex 8.0374 12.6649 -12
    endloop
  endfacet
  facet normal -0.844338 0.535811 0
    outer loop
      vertex -13.1446 7.22631 -12
      vertex -12.1353 8.81678 0
      vertex -12.1353 8.81678 -12
    endloop
  endfacet
  facet normal -0.844338 0.535811 0
    outer loop
      vertex -12.1353 8.81678 0
      vertex -13.1446 7.22631 -12
      vertex -13.1446 7.22631 0
    endloop
  endfacet
  facet normal -0.770492 0.63745 0
    outer loop
      vertex -12.1353 8.81678 -12
      vertex -10.9345 10.2682 0
      vertex -10.9345 10.2682 -12
    endloop
  endfacet
  facet normal -0.770492 0.63745 0
    outer loop
      vertex -10.9345 10.2682 0
      vertex -12.1353 8.81678 -12
      vertex -12.1353 8.81678 0
    endloop
  endfacet
  facet normal -0.982285 0.187395 0
    outer loop
      vertex -14.8817 1.88 -12
      vertex -14.5287 3.73035 0
      vertex -14.5287 3.73035 -12
    endloop
  endfacet
  facet normal -0.982285 0.187395 0
    outer loop
      vertex -14.5287 3.73035 0
      vertex -14.8817 1.88 -12
      vertex -14.8817 1.88 0
    endloop
  endfacet
  facet normal -0.48176 0.876303 0
    outer loop
      vertex -6.38669 13.5724 -12
      vertex -8.0374 12.6649 0
      vertex -6.38669 13.5724 0
    endloop
  endfacet
  facet normal -0.48176 0.876303 0
    outer loop
      vertex -8.0374 12.6649 0
      vertex -6.38669 13.5724 -12
      vertex -8.0374 12.6649 -12
    endloop
  endfacet
  facet normal -0.587778 0.809022 0
    outer loop
      vertex -8.0374 12.6649 -12
      vertex -9.56136 11.5577 0
      vertex -8.0374 12.6649 0
    endloop
  endfacet
  facet normal -0.587778 0.809022 0
    outer loop
      vertex -9.56136 11.5577 0
      vertex -8.0374 12.6649 -12
      vertex -9.56136 11.5577 -12
    endloop
  endfacet
  facet normal -0.125337 0.992114 0
    outer loop
      vertex -0.941857 14.9704 -12
      vertex -2.81072 14.7343 0
      vertex -0.941857 14.9704 0
    endloop
  endfacet
  facet normal -0.125337 0.992114 0
    outer loop
      vertex -2.81072 14.7343 0
      vertex -0.941857 14.9704 -12
      vertex -2.81072 14.7343 -12
    endloop
  endfacet
  facet normal 0.998026 -0.0628013 0
    outer loop
      vertex 14.8817 -1.88 0
      vertex 15 0 -12
      vertex 15 0 0
    endloop
  endfacet
  facet normal 0.998026 -0.0628013 0
    outer loop
      vertex 15 0 -12
      vertex 14.8817 -1.88 0
      vertex 14.8817 -1.88 -12
    endloop
  endfacet
  facet normal 0.770492 -0.63745 0
    outer loop
      vertex 10.9345 -10.2682 0
      vertex 12.1353 -8.81678 -12
      vertex 12.1353 -8.81678 0
    endloop
  endfacet
  facet normal 0.770492 -0.63745 0
    outer loop
      vertex 12.1353 -8.81678 -12
      vertex 10.9345 -10.2682 0
      vertex 10.9345 -10.2682 -12
    endloop
  endfacet
  facet normal 0.904837 -0.425758 0
    outer loop
      vertex 13.1446 -7.22631 0
      vertex 13.9466 -5.52187 -12
      vertex 13.9466 -5.52187 0
    endloop
  endfacet
  facet normal 0.904837 -0.425758 0
    outer loop
      vertex 13.9466 -5.52187 -12
      vertex 13.1446 -7.22631 0
      vertex 13.1446 -7.22631 -12
    endloop
  endfacet
  facet normal 0.982285 -0.187395 0
    outer loop
      vertex 14.5287 -3.73035 0
      vertex 14.8817 -1.88 -12
      vertex 14.8817 -1.88 0
    endloop
  endfacet
  facet normal 0.982285 -0.187395 0
    outer loop
      vertex 14.8817 -1.88 -12
      vertex 14.5287 -3.73035 0
      vertex 14.5287 -3.73035 -12
    endloop
  endfacet
  facet normal 0 0 -1
    outer loop
      vertex 2.75 0 -12
      vertex 15 0 -12
      vertex 14.8817 -1.88 -12
    endloop
  endfacet
  facet normal 0 0 -1
    outer loop
      vertex 2.72832 -0.344666 -12
      vertex 14.8817 -1.88 -12
      vertex 14.5287 -3.73035 -12
    endloop
  endfacet
  facet normal 0 0 -1
    outer loop
      vertex 15 0 -12
      vertex 2.75 0 -12
      vertex 14.8817 1.88 -12
    endloop
  endfacet
  facet normal 0 0 -1
    outer loop
      vertex 2.6636 -0.683897 -12
      vertex 14.5287 -3.73035 -12
      vertex 13.9466 -5.52187 -12
    endloop
  endfacet
  facet normal 0 0 -1
    outer loop
      vertex 2.72832 0.344666 -12
      vertex 14.8817 1.88 -12
      vertex 2.75 0 -12
    endloop
  endfacet
  facet normal 0 0 -1
    outer loop
      vertex 2.55688 -1.01234 -12
      vertex 13.9466 -5.52187 -12
      vertex 13.1446 -7.22631 -12
    endloop
  endfacet
  facet normal -0 0 -1
    outer loop
      vertex 14.8817 1.88 -12
      vertex 2.72832 0.344666 -12
      vertex 14.5287 3.73035 -12
    endloop
  endfacet
  facet normal 0 0 -1
    outer loop
      vertex 2.40984 -1.32482 -12
      vertex 13.1446 -7.22631 -12
      vertex 12.1353 -8.81678 -12
    endloop
  endfacet
  facet normal 0 0 -1
    outer loop
      vertex 2.6636 0.683897 -12
      vertex 14.5287 3.73035 -12
      vertex 2.72832 0.344666 -12
    endloop
  endfacet
  facet normal 0 0 -1
    outer loop
      vertex 2.2248 -1.61641 -12
      vertex 12.1353 -8.81678 -12
      vertex 10.9345 -10.2682 -12
    endloop
  endfacet
  facet normal -0 0 -1
    outer loop
      vertex 14.5287 3.73035 -12
      vertex 2.6636 0.683897 -12
      vertex 13.9466 5.52187 -12
    endloop
  endfacet
  facet normal 0 0 -1
    outer loop
      vertex 2.00466 -1.8825 -12
      vertex 10.9345 -10.2682 -12
      vertex 9.56136 -11.5577 -12
    endloop
  endfacet
  facet normal 0 0 -1
    outer loop
      vertex 2.55688 1.01234 -12
      vertex 13.9466 5.52187 -12
      vertex 2.6636 0.683897 -12
    endloop
  endfacet
  facet normal 0 0 -1
    outer loop
      vertex 1.75292 -2.11891 -12
      vertex 9.56136 -11.5577 -12
      vertex 8.0374 -12.6649 -12
    endloop
  endfacet
  facet normal -0 0 -1
    outer loop
      vertex 13.9466 5.52187 -12
      vertex 2.55688 1.01234 -12
      vertex 13.1446 7.22631 -12
    endloop
  endfacet
  facet normal 0 0 -1
    outer loop
      vertex 1.47352 -2.3219 -12
      vertex 8.0374 -12.6649 -12
      vertex 6.38669 -13.5724 -12
    endloop
  endfacet
  facet normal 0 0 -1
    outer loop
      vertex 2.40984 1.32482 -12
      vertex 13.1446 7.22631 -12
      vertex 2.55688 1.01234 -12
    endloop
  endfacet
  facet normal 0 0 -1
    outer loop
      vertex 1.17089 -2.48827 -12
      vertex 6.38669 -13.5724 -12
      vertex 4.63525 -14.2658 -12
    endloop
  endfacet
  facet normal -0 0 -1
    outer loop
      vertex 13.1446 7.22631 -12
      vertex 2.40984 1.32482 -12
      vertex 12.1353 8.81678 -12
    endloop
  endfacet
  facet normal 0 0 -1
    outer loop
      vertex 0.849796 -2.61541 -12
      vertex 4.63525 -14.2658 -12
      vertex 2.81072 -14.7343 -12
    endloop
  endfacet
  facet normal 0 0 -1
    outer loop
      vertex 2.2248 1.61641 -12
      vertex 12.1353 8.81678 -12
      vertex 2.40984 1.32482 -12
    endloop
  endfacet
  facet normal -0 0 -1
    outer loop
      vertex 12.1353 8.81678 -12
      vertex 2.2248 1.61641 -12
      vertex 10.9345 10.2682 -12
    endloop
  endfacet
  facet normal 0 0 -1
    outer loop
      vertex 14.8817 -1.88 -12
      vertex 2.72832 -0.344666 -12
      vertex 2.75 0 -12
    endloop
  endfacet
  facet normal 0 0 -1
    outer loop
      vertex 14.5287 -3.73035 -12
      vertex 2.6636 -0.683897 -12
      vertex 2.72832 -0.344666 -12
    endloop
  endfacet
  facet normal 0 0 -1
    outer loop
      vertex 13.9466 -5.52187 -12
      vertex 2.55688 -1.01234 -12
      vertex 2.6636 -0.683897 -12
    endloop
  endfacet
  facet normal 0 0 -1
    outer loop
      vertex 13.1446 -7.22631 -12
      vertex 2.40984 -1.32482 -12
      vertex 2.55688 -1.01234 -12
    endloop
  endfacet
  facet normal 0 0 -1
    outer loop
      vertex 12.1353 -8.81678 -12
      vertex 2.2248 -1.61641 -12
      vertex 2.40984 -1.32482 -12
    endloop
  endfacet
  facet normal 0 0 -1
    outer loop
      vertex 10.9345 -10.2682 -12
      vertex 2.00466 -1.8825 -12
      vertex 2.2248 -1.61641 -12
    endloop
  endfacet
  facet normal 0 0 -1
    outer loop
      vertex 9.56136 -11.5577 -12
      vertex 1.75292 -2.11891 -12
      vertex 2.00466 -1.8825 -12
    endloop
  endfacet
  facet normal 0 0 -1
    outer loop
      vertex 8.0374 -12.6649 -12
      vertex 1.47352 -2.3219 -12
      vertex 1.75292 -2.11891 -12
    endloop
  endfacet
  facet normal 0 0 -1
    outer loop
      vertex 6.38669 -13.5724 -12
      vertex 1.17089 -2.48827 -12
      vertex 1.47352 -2.3219 -12
    endloop
  endfacet
  facet normal 0 0 -1
    outer loop
      vertex 0.515298 -2.70129 -12
      vertex 2.81072 -14.7343 -12
      vertex 0.941857 -14.9704 -12
    endloop
  endfacet
  facet normal 0 0 -1
    outer loop
      vertex 4.63525 -14.2658 -12
      vertex 0.849796 -2.61541 -12
      vertex 1.17089 -2.48827 -12
    endloop
  endfacet
  facet normal 0 0 -1
    outer loop
      vertex 2.81072 -14.7343 -12
      vertex 0.515298 -2.70129 -12
      vertex 0.849796 -2.61541 -12
    endloop
  endfacet
  facet normal 0 0 -1
    outer loop
      vertex 0.941857 -14.9704 -12
      vertex 0.172673 -2.74457 -12
      vertex 0.515298 -2.70129 -12
    endloop
  endfacet
  facet normal 0 0 -1
    outer loop
      vertex 0.941857 -14.9704 -12
      vertex -0.172673 -2.74457 -12
      vertex 0.172673 -2.74457 -12
    endloop
  endfacet
  facet normal 0 0 -1
    outer loop
      vertex -0.941857 -14.9704 -12
      vertex -0.172673 -2.74457 -12
      vertex 0.941857 -14.9704 -12
    endloop
  endfacet
  facet normal -0 0 -1
    outer loop
      vertex -0.172673 -2.74457 -12
      vertex -0.941857 -14.9704 -12
      vertex -0.515298 -2.70129 -12
    endloop
  endfacet
  facet normal 0 0 -1
    outer loop
      vertex -2.81072 -14.7343 -12
      vertex -0.515298 -2.70129 -12
      vertex -0.941857 -14.9704 -12
    endloop
  endfacet
  facet normal -0 0 -1
    outer loop
      vertex -0.515298 -2.70129 -12
      vertex -2.81072 -14.7343 -12
      vertex -0.849796 -2.61541 -12
    endloop
  endfacet
  facet normal 0 0 -1
    outer loop
      vertex -4.63525 -14.2658 -12
      vertex -0.849796 -2.61541 -12
      vertex -2.81072 -14.7343 -12
    endloop
  endfacet
  facet normal -0 0 -1
    outer loop
      vertex -0.849796 -2.61541 -12
      vertex -4.63525 -14.2658 -12
      vertex -1.17089 -2.48827 -12
    endloop
  endfacet
  facet normal 0 0 -1
    outer loop
      vertex -6.38669 -13.5724 -12
      vertex -1.17089 -2.48827 -12
      vertex -4.63525 -14.2658 -12
    endloop
  endfacet
  facet normal -0 0 -1
    outer loop
      vertex -1.17089 -2.48827 -12
      vertex -6.38669 -13.5724 -12
      vertex -1.47352 -2.3219 -12
    endloop
  endfacet
  facet normal 0 0 -1
    outer loop
      vertex -8.0374 -12.6649 -12
      vertex -1.47352 -2.3219 -12
      vertex -6.38669 -13.5724 -12
    endloop
  endfacet
  facet normal -0 0 -1
    outer loop
      vertex -1.47352 -2.3219 -12
      vertex -8.0374 -12.6649 -12
      vertex -1.75292 -2.11891 -12
    endloop
  endfacet
  facet normal 0 0 -1
    outer loop
      vertex -9.56136 -11.5577 -12
      vertex -1.75292 -2.11891 -12
      vertex -8.0374 -12.6649 -12
    endloop
  endfacet
  facet normal -0 0 -1
    outer loop
      vertex -1.75292 -2.11891 -12
      vertex -9.56136 -11.5577 -12
      vertex -2.00466 -1.8825 -12
    endloop
  endfacet
  facet normal -0 0 -1
    outer loop
      vertex -2.00466 -1.8825 -12
      vertex -10.9345 -10.2682 -12
      vertex -2.2248 -1.61641 -12
    endloop
  endfacet
  facet normal 0 0 -1
    outer loop
      vertex -10.9345 -10.2682 -12
      vertex -2.00466 -1.8825 -12
      vertex -9.56136 -11.5577 -12
    endloop
  endfacet
  facet normal 0 0 -1
    outer loop
      vertex 2.00466 1.8825 -12
      vertex 10.9345 10.2682 -12
      vertex 2.2248 1.61641 -12
    endloop
  endfacet
  facet normal -0 0 -1
    outer loop
      vertex 10.9345 10.2682 -12
      vertex 2.00466 1.8825 -12
      vertex 9.56136 11.5577 -12
    endloop
  endfacet
  facet normal 0 0 -1
    outer loop
      vertex 1.75292 2.11891 -12
      vertex 9.56136 11.5577 -12
      vertex 2.00466 1.8825 -12
    endloop
  endfacet
  facet normal -0 0 -1
    outer loop
      vertex 9.56136 11.5577 -12
      vertex 1.75292 2.11891 -12
      vertex 8.0374 12.6649 -12
    endloop
  endfacet
  facet normal 0 0 -1
    outer loop
      vertex 1.47352 2.3219 -12
      vertex 8.0374 12.6649 -12
      vertex 1.75292 2.11891 -12
    endloop
  endfacet
  facet normal -0 0 -1
    outer loop
      vertex 8.0374 12.6649 -12
      vertex 1.47352 2.3219 -12
      vertex 6.38669 13.5724 -12
    endloop
  endfacet
  facet normal 0 0 -1
    outer loop
      vertex 1.17089 2.48827 -12
      vertex 6.38669 13.5724 -12
      vertex 1.47352 2.3219 -12
    endloop
  endfacet
  facet normal -0 0 -1
    outer loop
      vertex 6.38669 13.5724 -12
      vertex 1.17089 2.48827 -12
      vertex 4.63525 14.2658 -12
    endloop
  endfacet
  facet normal 0 0 -1
    outer loop
      vertex 0.849796 2.61541 -12
      vertex 4.63525 14.2658 -12
      vertex 1.17089 2.48827 -12
    endloop
  endfacet
  facet normal -0 0 -1
    outer loop
      vertex 4.63525 14.2658 -12
      vertex 0.849796 2.61541 -12
      vertex 2.81072 14.7343 -12
    endloop
  endfacet
  facet normal 0 0 -1
    outer loop
      vertex 0.515298 2.70129 -12
      vertex 2.81072 14.7343 -12
      vertex 0.849796 2.61541 -12
    endloop
  endfacet
  facet normal -0 0 -1
    outer loop
      vertex 2.81072 14.7343 -12
      vertex 0.515298 2.70129 -12
      vertex 0.941857 14.9704 -12
    endloop
  endfacet
  facet normal 0 0 -1
    outer loop
      vertex 0.172673 2.74457 -12
      vertex 0.941857 14.9704 -12
      vertex 0.515298 2.70129 -12
    endloop
  endfacet
  facet normal 0 0 -1
    outer loop
      vertex -0.172673 2.74457 -12
      vertex 0.941857 14.9704 -12
      vertex 0.172673 2.74457 -12
    endloop
  endfacet
  facet normal 0 0 -1
    outer loop
      vertex -0.941857 14.9704 -12
      vertex -0.172673 2.74457 -12
      vertex -0.515298 2.70129 -12
    endloop
  endfacet
  facet normal 0 0 -1
    outer loop
      vertex -2.81072 14.7343 -12
      vertex -0.515298 2.70129 -12
      vertex -0.849796 2.61541 -12
    endloop
  endfacet
  facet normal 0 0 -1
    outer loop
      vertex -0.172673 2.74457 -12
      vertex -0.941857 14.9704 -12
      vertex 0.941857 14.9704 -12
    endloop
  endfacet
  facet normal 0 0 -1
    outer loop
      vertex -4.63525 14.2658 -12
      vertex -0.849796 2.61541 -12
      vertex -1.17089 2.48827 -12
    endloop
  endfacet
  facet normal 0 0 -1
    outer loop
      vertex -6.38669 13.5724 -12
      vertex -1.17089 2.48827 -12
      vertex -1.47352 2.3219 -12
    endloop
  endfacet
  facet normal 0 0 -1
    outer loop
      vertex -8.0374 12.6649 -12
      vertex -1.47352 2.3219 -12
      vertex -1.75292 2.11891 -12
    endloop
  endfacet
  facet normal 0 0 -1
    outer loop
      vertex -9.56136 11.5577 -12
      vertex -1.75292 2.11891 -12
      vertex -2.00466 1.8825 -12
    endloop
  endfacet
  facet normal 0 0 -1
    outer loop
      vertex -10.9345 10.2682 -12
      vertex -2.00466 1.8825 -12
      vertex -2.2248 1.61641 -12
    endloop
  endfacet
  facet normal 0 0 -1
    outer loop
      vertex -12.1353 8.81678 -12
      vertex -2.2248 1.61641 -12
      vertex -2.40984 1.32482 -12
    endloop
  endfacet
  facet normal 0 0 -1
    outer loop
      vertex -13.1446 7.22631 -12
      vertex -2.40984 1.32482 -12
      vertex -2.55688 1.01234 -12
    endloop
  endfacet
  facet normal 0 0 -1
    outer loop
      vertex -13.9466 5.52187 -12
      vertex -2.55688 1.01234 -12
      vertex -2.6636 0.683897 -12
    endloop
  endfacet
  facet normal 0 0 -1
    outer loop
      vertex -14.5287 3.73035 -12
      vertex -2.6636 0.683897 -12
      vertex -2.72832 0.344666 -12
    endloop
  endfacet
  facet normal 0 0 -1
    outer loop
      vertex -0.515298 2.70129 -12
      vertex -2.81072 14.7343 -12
      vertex -0.941857 14.9704 -12
    endloop
  endfacet
  facet normal 0 0 -1
    outer loop
      vertex -14.8817 1.88 -12
      vertex -2.72832 0.344666 -12
      vertex -2.75 0 -12
    endloop
  endfacet
  facet normal 0 0 -1
    outer loop
      vertex -12.1353 -8.81678 -12
      vertex -2.2248 -1.61641 -12
      vertex -10.9345 -10.2682 -12
    endloop
  endfacet
  facet normal -0 0 -1
    outer loop
      vertex -2.2248 -1.61641 -12
      vertex -12.1353 -8.81678 -12
      vertex -2.40984 -1.32482 -12
    endloop
  endfacet
  facet normal 0 0 -1
    outer loop
      vertex -0.849796 2.61541 -12
      vertex -4.63525 14.2658 -12
      vertex -2.81072 14.7343 -12
    endloop
  endfacet
  facet normal 0 0 -1
    outer loop
      vertex -13.1446 -7.22631 -12
      vertex -2.40984 -1.32482 -12
      vertex -12.1353 -8.81678 -12
    endloop
  endfacet
  facet normal 0 0 -1
    outer loop
      vertex -1.17089 2.48827 -12
      vertex -6.38669 13.5724 -12
      vertex -4.63525 14.2658 -12
    endloop
  endfacet
  facet normal -0 0 -1
    outer loop
      vertex -2.40984 -1.32482 -12
      vertex -13.1446 -7.22631 -12
      vertex -2.55688 -1.01234 -12
    endloop
  endfacet
  facet normal 0 0 -1
    outer loop
      vertex -1.47352 2.3219 -12
      vertex -8.0374 12.6649 -12
      vertex -6.38669 13.5724 -12
    endloop
  endfacet
  facet normal 0 0 -1
    outer loop
      vertex -13.9466 -5.52187 -12
      vertex -2.55688 -1.01234 -12
      vertex -13.1446 -7.22631 -12
    endloop
  endfacet
  facet normal 0 0 -1
    outer loop
      vertex -1.75292 2.11891 -12
      vertex -9.56136 11.5577 -12
      vertex -8.0374 12.6649 -12
    endloop
  endfacet
  facet normal -0 0 -1
    outer loop
      vertex -2.55688 -1.01234 -12
      vertex -13.9466 -5.52187 -12
      vertex -2.6636 -0.683897 -12
    endloop
  endfacet
  facet normal 0 0 -1
    outer loop
      vertex -2.00466 1.8825 -12
      vertex -10.9345 10.2682 -12
      vertex -9.56136 11.5577 -12
    endloop
  endfacet
  facet normal 0 0 -1
    outer loop
      vertex -14.5287 -3.73035 -12
      vertex -2.6636 -0.683897 -12
      vertex -13.9466 -5.52187 -12
    endloop
  endfacet
  facet normal 0 0 -1
    outer loop
      vertex -2.2248 1.61641 -12
      vertex -12.1353 8.81678 -12
      vertex -10.9345 10.2682 -12
    endloop
  endfacet
  facet normal -0 0 -1
    outer loop
      vertex -2.6636 -0.683897 -12
      vertex -14.5287 -3.73035 -12
      vertex -2.72832 -0.344666 -12
    endloop
  endfacet
  facet normal 0 0 -1
    outer loop
      vertex -2.40984 1.32482 -12
      vertex -13.1446 7.22631 -12
      vertex -12.1353 8.81678 -12
    endloop
  endfacet
  facet normal 0 0 -1
    outer loop
      vertex -14.8817 -1.88 -12
      vertex -2.72832 -0.344666 -12
      vertex -14.5287 -3.73035 -12
    endloop
  endfacet
  facet normal 0 0 -1
    outer loop
      vertex -2.55688 1.01234 -12
      vertex -13.9466 5.52187 -12
      vertex -13.1446 7.22631 -12
    endloop
  endfacet
  facet normal -0 0 -1
    outer loop
      vertex -2.72832 -0.344666 -12
      vertex -14.8817 -1.88 -12
      vertex -2.75 0 -12
    endloop
  endfacet
  facet normal 0 0 -1
    outer loop
      vertex -2.6636 0.683897 -12
      vertex -14.5287 3.73035 -12
      vertex -13.9466 5.52187 -12
    endloop
  endfacet
  facet normal 0 0 -1
    outer loop
      vertex -15 0 -12
      vertex -2.75 0 -12
      vertex -14.8817 -1.88 -12
    endloop
  endfacet
  facet normal 0 0 -1
    outer loop
      vertex -2.72832 0.344666 -12
      vertex -14.8817 1.88 -12
      vertex -14.5287 3.73035 -12
    endloop
  endfacet
  facet normal 0 0 -1
    outer loop
      vertex -2.75 0 -12
      vertex -15 0 -12
      vertex -14.8817 1.88 -12
    endloop
  endfacet
  facet normal 0.48176 -0.876303 0
    outer loop
      vertex 6.38669 -13.5724 -12
      vertex 8.0374 -12.6649 0
      vertex 6.38669 -13.5724 0
    endloop
  endfacet
  facet normal 0.48176 -0.876303 0
    outer loop
      vertex 8.0374 -12.6649 0
      vertex 6.38669 -13.5724 -12
      vertex 8.0374 -12.6649 -12
    endloop
  endfacet
  facet normal 0.684557 -0.728959 0
    outer loop
      vertex 9.56136 -11.5577 -12
      vertex 10.9345 -10.2682 0
      vertex 9.56136 -11.5577 0
    endloop
  endfacet
  facet normal 0.684557 -0.728959 0
    outer loop
      vertex 10.9345 -10.2682 0
      vertex 9.56136 -11.5577 -12
      vertex 10.9345 -10.2682 -12
    endloop
  endfacet
  facet normal 0.844338 -0.535811 0
    outer loop
      vertex 12.1353 -8.81678 0
      vertex 13.1446 -7.22631 -12
      vertex 13.1446 -7.22631 0
    endloop
  endfacet
  facet normal 0.844338 -0.535811 0
    outer loop
      vertex 13.1446 -7.22631 -12
      vertex 12.1353 -8.81678 0
      vertex 12.1353 -8.81678 -12
    endloop
  endfacet
  facet normal -0.770492 -0.63745 0
    outer loop
      vertex -10.9345 -10.2682 -12
      vertex -12.1353 -8.81678 0
      vertex -12.1353 -8.81678 -12
    endloop
  endfacet
  facet normal -0.770492 -0.63745 0
    outer loop
      vertex -12.1353 -8.81678 0
      vertex -10.9345 -10.2682 -12
      vertex -10.9345 -10.2682 0
    endloop
  endfacet
  facet normal -0.844338 -0.535811 0
    outer loop
      vertex -12.1353 -8.81678 -12
      vertex -13.1446 -7.22631 0
      vertex -13.1446 -7.22631 -12
    endloop
  endfacet
  facet normal -0.844338 -0.535811 0
    outer loop
      vertex -13.1446 -7.22631 0
      vertex -12.1353 -8.81678 -12
      vertex -12.1353 -8.81678 0
    endloop
  endfacet
  facet normal -0.951057 -0.309017 0
    outer loop
      vertex -13.9466 -5.52187 -12
      vertex -14.5287 -3.73035 0
      vertex -14.5287 -3.73035 -12
    endloop
  endfacet
  facet normal -0.951057 -0.309017 0
    outer loop
      vertex -14.5287 -3.73035 0
      vertex -13.9466 -5.52187 -12
      vertex -13.9466 -5.52187 0
    endloop
  endfacet
  facet normal 0.368104 -0.929785 0
    outer loop
      vertex 4.63525 -14.2658 -12
      vertex 6.38669 -13.5724 0
      vertex 4.63525 -14.2658 0
    endloop
  endfacet
  facet normal 0.368104 -0.929785 0
    outer loop
      vertex 6.38669 -13.5724 0
      vertex 4.63525 -14.2658 -12
      vertex 6.38669 -13.5724 -12
    endloop
  endfacet
  facet normal 0.24871 -0.968578 0
    outer loop
      vertex 2.81072 -14.7343 -12
      vertex 4.63525 -14.2658 0
      vertex 2.81072 -14.7343 0
    endloop
  endfacet
  facet normal 0.24871 -0.968578 0
    outer loop
      vertex 4.63525 -14.2658 0
      vertex 2.81072 -14.7343 -12
      vertex 4.63525 -14.2658 -12
    endloop
  endfacet
  facet normal 0.125337 -0.992114 0
    outer loop
      vertex 0.941857 -14.9704 -12
      vertex 2.81072 -14.7343 0
      vertex 0.941857 -14.9704 0
    endloop
  endfacet
  facet normal 0.125337 -0.992114 0
    outer loop
      vertex 2.81072 -14.7343 0
      vertex 0.941857 -14.9704 -12
      vertex 2.81072 -14.7343 -12
    endloop
  endfacet
  facet normal -0.125337 -0.992114 0
    outer loop
      vertex -2.81072 -14.7343 -12
      vertex -0.941857 -14.9704 0
      vertex -2.81072 -14.7343 0
    endloop
  endfacet
  facet normal -0.125337 -0.992114 -0
    outer loop
      vertex -0.941857 -14.9704 0
      vertex -2.81072 -14.7343 -12
      vertex -0.941857 -14.9704 -12
    endloop
  endfacet
  facet normal -0.368104 -0.929785 0
    outer loop
      vertex -6.38669 -13.5724 -12
      vertex -4.63525 -14.2658 0
      vertex -6.38669 -13.5724 0
    endloop
  endfacet
  facet normal -0.368104 -0.929785 -0
    outer loop
      vertex -4.63525 -14.2658 0
      vertex -6.38669 -13.5724 -12
      vertex -4.63525 -14.2658 -12
    endloop
  endfacet
  facet normal -0.24871 -0.968578 0
    outer loop
      vertex -4.63525 -14.2658 -12
      vertex -2.81072 -14.7343 0
      vertex -4.63525 -14.2658 0
    endloop
  endfacet
  facet normal -0.24871 -0.968578 -0
    outer loop
      vertex -2.81072 -14.7343 0
      vertex -4.63525 -14.2658 -12
      vertex -2.81072 -14.7343 -12
    endloop
  endfacet
  facet normal -0.684557 -0.728959 0
    outer loop
      vertex -10.9345 -10.2682 -12
      vertex -9.56136 -11.5577 0
      vertex -10.9345 -10.2682 0
    endloop
  endfacet
  facet normal -0.684557 -0.728959 -0
    outer loop
      vertex -9.56136 -11.5577 0
      vertex -10.9345 -10.2682 -12
      vertex -9.56136 -11.5577 -12
    endloop
  endfacet
  facet normal -0.904837 -0.425758 0
    outer loop
      vertex -13.1446 -7.22631 -12
      vertex -13.9466 -5.52187 0
      vertex -13.9466 -5.52187 -12
    endloop
  endfacet
  facet normal -0.904837 -0.425758 0
    outer loop
      vertex -13.9466 -5.52187 0
      vertex -13.1446 -7.22631 -12
      vertex -13.1446 -7.22631 0
    endloop
  endfacet
  facet normal -0.982285 -0.187395 0
    outer loop
      vertex -14.5287 -3.73035 -12
      vertex -14.8817 -1.88 0
      vertex -14.8817 -1.88 -12
    endloop
  endfacet
  facet normal -0.982285 -0.187395 0
    outer loop
      vertex -14.8817 -1.88 0
      vertex -14.5287 -3.73035 -12
      vertex -14.5287 -3.73035 0
    endloop
  endfacet
  facet normal -0.998026 -0.0628013 0
    outer loop
      vertex -14.8817 -1.88 -12
      vertex -15 0 0
      vertex -15 0 -12
    endloop
  endfacet
  facet normal -0.998026 -0.0628013 0
    outer loop
      vertex -15 0 0
      vertex -14.8817 -1.88 -12
      vertex -14.8817 -1.88 0
    endloop
  endfacet
  facet normal 0.587778 -0.809022 0
    outer loop
      vertex 8.0374 -12.6649 -12
      vertex 9.56136 -11.5577 0
      vertex 8.0374 -12.6649 0
    endloop
  endfacet
  facet normal 0.587778 -0.809022 0
    outer loop
      vertex 9.56136 -11.5577 0
      vertex 8.0374 -12.6649 -12
      vertex 9.56136 -11.5577 -12
    endloop
  endfacet
  facet normal -0.48176 -0.876303 0
    outer loop
      vertex -8.0374 -12.6649 -12
      vertex -6.38669 -13.5724 0
      vertex -8.0374 -12.6649 0
    endloop
  endfacet
  facet normal -0.48176 -0.876303 -0
    outer loop
      vertex -6.38669 -13.5724 0
      vertex -8.0374 -12.6649 -12
      vertex -6.38669 -13.5724 -12
    endloop
  endfacet
  facet normal -0.587778 -0.809022 0
    outer loop
      vertex -9.56136 -11.5577 -12
      vertex -8.0374 -12.6649 0
      vertex -9.56136 -11.5577 0
    endloop
  endfacet
  facet normal -0.587778 -0.809022 -0
    outer loop
      vertex -8.0374 -12.6649 0
      vertex -9.56136 -11.5577 -12
      vertex -8.0374 -12.6649 -12
    endloop
  endfacet
endsolid OpenSCAD_Model
