solid OpenSCAD_Model
  facet normal 0.8076950598642657 0.3800724452837149 0.4507478525815933
    outer loop
      vertex -4.183994186497132 -1.6565604870810504 0
      vertex -2.6132717065593787 -1.4366582781247583 -3
      vertex -2.7727263061310357 -1.0978000053275216 -3
    endloop
  endfacet
  facet normal 0.6877996607792317 0.5689973638120444 0.4507478525815931
    outer loop
      vertex -2.1738885853459955 -2.041417262323053 -3
      vertex -2.4126042510824326 -1.752859591657911 -3
      vertex -3.6405764746872635 -2.6450336353161292 0
    endloop
  endfacet
  facet normal 0.7536904345143155 0.47830649411721815 0.4507478525815932
    outer loop
      vertex -2.4126042510824326 -1.752859591657911 -3
      vertex -2.6132717065593787 -1.4366582781247583 -3
      vertex -3.9433800601973856 -2.1678915334577193 0
    endloop
  endfacet
  facet normal 0.8489618516265155 0.2758444269438131 0.45074785258159317
    outer loop
      vertex -2.7727263061310357 -1.0978000053275216 -3
      vertex -2.8884533555085965 -0.741628770652335 -3
      vertex -4.35862422507884 -1.119104492241847 0
    endloop
  endfacet
  facet normal 0.8908898733377371 0.05605003994068916 0.45074785258159317
    outer loop
      vertex -2.9586277699913897 -0.3737616072364068 -3
      vertex -2.982142857142857 0 -3
      vertex -4.5 0 0
    endloop
  endfacet
  facet normal 0.8768400078433869 0.1672661772095345 0.4507478525815932
    outer loop
      vertex -2.8884533555085965 -0.741628770652335 -3
      vertex -2.9586277699913897 -0.3737616072364068 -3
      vertex -4.464516155915151 -0.5639995510393683 0
    endloop
  endfacet
  facet normal 0.6110618755220592 0.6507148051770036 0.4507478525815932
    outer loop
      vertex -2.1738885853459955 -2.041417262323053 -3
      vertex -2.868407953869103 -3.467309592491052 0
      vertex -1.9008893980005566 -2.2977805632778003 -3
    endloop
  endfacet
  facet normal 0.5246872794572316 0.7221700853461401 0.4507478525815932
    outer loop
      vertex -1.5979120493123653 -2.5179064921220804 -3
      vertex -1.9008893980005566 -2.2977805632778003 -3
      vertex -2.4112205774054853 -3.7994756647590675 0
    endloop
  endfacet
  facet normal 0.43003805156237673 0.782236311865869 0.45074785258159317
    outer loop
      vertex -1.5979120493123653 -2.5179064921220804 -3
      vertex -1.916006812042826 -4.071721736097088 0
      vertex -1.2697346730601267 -2.698323531461166 -3
    endloop
  endfacet
  facet normal 0.32860686670210104 0.8299662044621515 0.45074785258159306
    outer loop
      vertex -1.2697346730601267 -2.698323531461166 -3
      vertex -1.3905764746872633 -4.2797543233281905 0
      vertex -0.9215328225110039 -2.8361863968087615 -3
    endloop
  endfacet
  facet normal 0.22199335525370903 0.8646070342162866 0.45074785258159317
    outer loop
      vertex -0.9215328225110039 -2.8361863968087615 -3
      vertex -0.8432159156357617 -4.420292628279099 0
      vertex -0.558797848853858 -2.929320908423054 -3
    endloop
  endfacet
  facet normal 0.11187887598056236 0.8856124945496242 0.45074785258159317
    outer loop
      vertex -0.8432159156357617 -4.420292628279099 0
      vertex -0.18725029931063214 -2.9762582794200245 -3
      vertex -0.558797848853858 -2.929320908423054 -3
    endloop
  endfacet
  facet normal 0 0.8926513168046537 0.4507478525815931
    outer loop
      vertex -0.28255733788191195 -4.491120277927222 0
      vertex 0.18725029931063214 -2.9762582794200245 -3
      vertex -0.18725029931063214 -2.9762582794200245 -3
    endloop
  endfacet
  facet normal 0.6877996607792319 0.5689973638120442 0.4507478525815933
    outer loop
      vertex -3.6405764746872635 -2.6450336353161292 0
      vertex -3.2803588233963525 -3.080461976679098 0
      vertex -2.1738885853459955 -2.041417262323053 -3
    endloop
  endfacet
  facet normal 0.6110618755220588 0.6507148051770039 0.4507478525815932
    outer loop
      vertex -3.2803588233963525 -3.080461976679098 0
      vertex -2.868407953869103 -3.467309592491052 0
      vertex -2.1738885853459955 -2.041417262323053 -3
    endloop
  endfacet
  facet normal 0.8489618516265157 0.2758444269438126 0.4507478525815932
    outer loop
      vertex -4.35862422507884 -1.119104492241847 0
      vertex -4.183994186497132 -1.6565604870810504 0
      vertex -2.7727263061310357 -1.0978000053275216 -3
    endloop
  endfacet
  facet normal 0.876840007843387 0.16726617720953485 0.45074785258159317
    outer loop
      vertex -2.8884533555085965 -0.741628770652335 -3
      vertex -4.464516155915151 -0.5639995510393683 0
      vertex -4.35862422507884 -1.119104492241847 0
    endloop
  endfacet
  facet normal 0.8908898733377372 0.05605003994068924 0.4507478525815932
    outer loop
      vertex -2.9586277699913897 -0.3737616072364068 -3
      vertex -4.5 0 0
      vertex -4.464516155915151 -0.5639995510393683 0
    endloop
  endfacet
  facet normal 0.7536904345143156 0.4783064941172182 0.4507478525815933
    outer loop
      vertex -2.4126042510824326 -1.752859591657911 -3
      vertex -3.9433800601973856 -2.1678915334577193 0
      vertex -3.6405764746872635 -2.6450336353161292 0
    endloop
  endfacet
  facet normal 0.8076950598642656 0.3800724452837153 0.45074785258159317
    outer loop
      vertex -4.183994186497132 -1.6565604870810504 0
      vertex -3.9433800601973856 -2.1678915334577193 0
      vertex -2.6132717065593787 -1.4366582781247583 -3
    endloop
  endfacet
  facet normal 0.5246872794572318 0.72217008534614 0.45074785258159317
    outer loop
      vertex -2.4112205774054853 -3.7994756647590675 0
      vertex -1.9008893980005566 -2.2977805632778003 -3
      vertex -2.868407953869103 -3.467309592491052 0
    endloop
  endfacet
  facet normal 0.43003805156237607 0.7822363118658692 0.45074785258159317
    outer loop
      vertex -2.4112205774054853 -3.7994756647590675 0
      vertex -1.916006812042826 -4.071721736097088 0
      vertex -1.5979120493123653 -2.5179064921220804 -3
    endloop
  endfacet
  facet normal 0.328606866702101 0.8299662044621515 0.4507478525815931
    outer loop
      vertex -1.916006812042826 -4.071721736097088 0
      vertex -1.3905764746872633 -4.2797543233281905 0
      vertex -1.2697346730601267 -2.698323531461166 -3
    endloop
  endfacet
  facet normal 0.2219933552537093 0.8646070342162865 0.45074785258159317
    outer loop
      vertex -1.3905764746872633 -4.2797543233281905 0
      vertex -0.8432159156357617 -4.420292628279099 0
      vertex -0.9215328225110039 -2.8361863968087615 -3
    endloop
  endfacet
  facet normal 0.11187887598056208 0.8856124945496244 0.45074785258159317
    outer loop
      vertex -0.8432159156357617 -4.420292628279099 0
      vertex -0.28255733788191195 -4.491120277927222 0
      vertex -0.18725029931063214 -2.9762582794200245 -3
    endloop
  endfacet
  facet normal 0.8908898733377371 -0.05605003994068916 0.45074785258159317
    outer loop
      vertex -2.9586277699913897 0.37376160723640683 -3
      vertex -4.464516155915151 0.5639995510393683 0
      vertex -2.982142857142857 0 -3
    endloop
  endfacet
  facet normal 0.876840007843387 -0.16726617720953454 0.4507478525815932
    outer loop
      vertex -2.8884533555085965 0.741628770652335 -3
      vertex -4.35862422507884 1.119104492241847 0
      vertex -2.9586277699913897 0.37376160723640683 -3
    endloop
  endfacet
  facet normal 0.8489618516265158 -0.27584442694381217 0.45074785258159317
    outer loop
      vertex -2.772726306131036 1.0978000053275216 -3
      vertex -4.35862422507884 1.119104492241847 0
      vertex -2.8884533555085965 0.741628770652335 -3
    endloop
  endfacet
  facet normal 0.8076950598642652 -0.38007244528371614 0.45074785258159333
    outer loop
      vertex -3.9433800601973856 2.1678915334577193 0
      vertex -2.772726306131036 1.0978000053275216 -3
      vertex -2.6132717065593787 1.4366582781247583 -3
    endloop
  endfacet
  facet normal 0.7536904345143162 -0.47830649411721715 0.4507478525815933
    outer loop
      vertex -2.412604251082433 1.7528595916579113 -3
      vertex -3.9433800601973856 2.1678915334577193 0
      vertex -2.6132717065593787 1.4366582781247583 -3
    endloop
  endfacet
  facet normal 0.6877996607792315 -0.5689973638120448 0.45074785258159317
    outer loop
      vertex -2.412604251082433 1.7528595916579113 -3
      vertex -2.1738885853459955 2.0414172623230535 -3
      vertex -3.2803588233963525 3.080461976679098 0
    endloop
  endfacet
  facet normal 0.6110618755220584 -0.6507148051770044 0.4507478525815933
    outer loop
      vertex -1.9008893980005563 2.2977805632778003 -3
      vertex -2.868407953869103 3.467309592491052 0
      vertex -2.1738885853459955 2.0414172623230535 -3
    endloop
  endfacet
  facet normal 0.5246872794572318 -0.7221700853461399 0.45074785258159317
    outer loop
      vertex -1.9008893980005563 2.2977805632778003 -3
      vertex -1.5979120493123653 2.5179064921220804 -3
      vertex -2.4112205774054853 3.7994756647590675 0
    endloop
  endfacet
  facet normal 0.43003805156237596 -0.7822363118658693 0.4507478525815933
    outer loop
      vertex -1.5979120493123653 2.5179064921220804 -3
      vertex -1.2697346730601275 2.698323531461165 -3
      vertex -1.9160068120428273 4.071721736097087 0
    endloop
  endfacet
  facet normal 0.32860686670210126 -0.8299662044621514 0.45074785258159317
    outer loop
      vertex -1.2697346730601275 2.698323531461165 -3
      vertex -0.9215328225110039 2.836186396808761 -3
      vertex -1.3905764746872633 4.2797543233281905 0
    endloop
  endfacet
  facet normal 0.22199335525370856 -0.8646070342162867 0.4507478525815933
    outer loop
      vertex -0.9215328225110039 2.836186396808761 -3
      vertex -0.5587978488538572 2.9293209084230534 -3
      vertex -0.8432159156357606 4.420292628279099 0
    endloop
  endfacet
  facet normal 0.11187887598056354 -0.8856124945496241 0.450747852581593
    outer loop
      vertex -0.28255733788190834 4.491120277927222 0
      vertex -0.5587978488538572 2.9293209084230534 -3
      vertex -0.18725029931063064 2.9762582794200245 -3
    endloop
  endfacet
  facet normal 0.8908898733377372 -0.05605003994068924 0.4507478525815932
    outer loop
      vertex -4.464516155915151 0.5639995510393683 0
      vertex -4.5 0 0
      vertex -2.982142857142857 0 -3
    endloop
  endfacet
  facet normal 0.876840007843387 -0.16726617720953485 0.4507478525815932
    outer loop
      vertex -4.35862422507884 1.119104492241847 0
      vertex -4.464516155915151 0.5639995510393683 0
      vertex -2.9586277699913897 0.37376160723640683 -3
    endloop
  endfacet
  facet normal 0.8489618516265157 -0.2758444269438126 0.4507478525815931
    outer loop
      vertex -4.183994186497132 1.6565604870810504 0
      vertex -4.35862422507884 1.119104492241847 0
      vertex -2.772726306131036 1.0978000053275216 -3
    endloop
  endfacet
  facet normal 0.8076950598642656 -0.3800724452837153 0.4507478525815931
    outer loop
      vertex -3.9433800601973856 2.1678915334577193 0
      vertex -4.183994186497132 1.6565604870810504 0
      vertex -2.772726306131036 1.0978000053275216 -3
    endloop
  endfacet
  facet normal 0.7536904345143157 -0.47830649411721826 0.4507478525815931
    outer loop
      vertex -3.6405764746872635 2.6450336353161292 0
      vertex -3.9433800601973856 2.1678915334577193 0
      vertex -2.412604251082433 1.7528595916579113 -3
    endloop
  endfacet
  facet normal 0.6877996607792319 -0.5689973638120442 0.4507478525815931
    outer loop
      vertex -2.412604251082433 1.7528595916579113 -3
      vertex -3.2803588233963525 3.080461976679098 0
      vertex -3.6405764746872635 2.6450336353161292 0
    endloop
  endfacet
  facet normal 0.6110618755220589 -0.6507148051770039 0.45074785258159317
    outer loop
      vertex -2.868407953869103 3.467309592491052 0
      vertex -3.2803588233963525 3.080461976679098 0
      vertex -2.1738885853459955 2.0414172623230535 -3
    endloop
  endfacet
  facet normal 0.5246872794572318 -0.72217008534614 0.4507478525815932
    outer loop
      vertex -2.4112205774054853 3.7994756647590675 0
      vertex -2.868407953869103 3.467309592491052 0
      vertex -1.9008893980005563 2.2977805632778003 -3
    endloop
  endfacet
  facet normal 0.4300380515623757 -0.7822363118658694 0.4507478525815933
    outer loop
      vertex -1.5979120493123653 2.5179064921220804 -3
      vertex -1.9160068120428273 4.071721736097087 0
      vertex -2.4112205774054853 3.7994756647590675 0
    endloop
  endfacet
  facet normal 0.3286068667021015 -0.8299662044621513 0.45074785258159317
    outer loop
      vertex -1.3905764746872633 4.2797543233281905 0
      vertex -1.9160068120428273 4.071721736097087 0
      vertex -1.2697346730601275 2.698323531461165 -3
    endloop
  endfacet
  facet normal 0.22199335525370886 -0.8646070342162866 0.4507478525815932
    outer loop
      vertex -0.9215328225110039 2.836186396808761 -3
      vertex -0.8432159156357606 4.420292628279099 0
      vertex -1.3905764746872633 4.2797543233281905 0
    endloop
  endfacet
  facet normal 0.11187887598056158 -0.8856124945496243 0.4507478525815932
    outer loop
      vertex -0.28255733788190834 4.491120277927222 0
      vertex -0.8432159156357606 4.420292628279099 0
      vertex -0.5587978488538572 2.9293209084230534 -3
    endloop
  endfacet
  facet normal 0 -0.8926513168046538 0.45074785258159317
    outer loop
      vertex -0.28255733788190834 4.491120277927222 0
      vertex -0.18725029931063064 2.9762582794200245 -3
      vertex 0.28255733788190973 4.491120277927222 0
    endloop
  endfacet
  facet normal -0.11187887598056236 0.8856124945496242 0.45074785258159317
    outer loop
      vertex 0.18725029931063214 -2.9762582794200245 -3
      vertex 0.28255733788191195 -4.491120277927222 0
      vertex 0.558797848853858 -2.929320908423054 -3
    endloop
  endfacet
  facet normal -0.22199335525371 0.8646070342162863 0.45074785258159306
    outer loop
      vertex 0.9215328225110039 -2.836186396808761 -3
      vertex 0.558797848853858 -2.929320908423054 -3
      vertex 0.8432159156357617 -4.420292628279099 0
    endloop
  endfacet
  facet normal -0.32860686670210104 0.8299662044621515 0.4507478525815931
    outer loop
      vertex 1.2697346730601267 -2.6983235314611655 -3
      vertex 0.9215328225110039 -2.836186396808761 -3
      vertex 1.3905764746872633 -4.2797543233281905 0
    endloop
  endfacet
  facet normal -0.430038051562375 0.7822363118658698 0.4507478525815933
    outer loop
      vertex 1.5979120493123637 -2.5179064921220817 -3
      vertex 1.2697346730601267 -2.6983235314611655 -3
      vertex 1.916006812042826 -4.071721736097088 0
    endloop
  endfacet
  facet normal -0.5246872794572318 0.72217008534614 0.45074785258159317
    outer loop
      vertex 1.900889398000558 -2.2977805632777994 -3
      vertex 1.5979120493123637 -2.5179064921220817 -3
      vertex 2.411220577405483 -3.799475664759069 0
    endloop
  endfacet
  facet normal -0.6110618755220596 0.6507148051770033 0.45074785258159317
    outer loop
      vertex 2.1738885853459955 -2.041417262323053 -3
      vertex 1.900889398000558 -2.2977805632777994 -3
      vertex 2.868407953869105 -3.4673095924910506 0
    endloop
  endfacet
  facet normal -0.6877996607792317 0.5689973638120444 0.4507478525815932
    outer loop
      vertex 3.2803588233963525 -3.080461976679098 0
      vertex 2.4126042510824326 -1.752859591657911 -3
      vertex 2.1738885853459955 -2.041417262323053 -3
    endloop
  endfacet
  facet normal -0.7536904345143155 0.47830649411721815 0.4507478525815932
    outer loop
      vertex 2.4126042510824326 -1.752859591657911 -3
      vertex 3.9433800601973856 -2.1678915334577193 0
      vertex 2.6132717065593787 -1.4366582781247583 -3
    endloop
  endfacet
  facet normal -0.8076950598642655 0.3800724452837156 0.4507478525815932
    outer loop
      vertex 2.6132717065593787 -1.4366582781247583 -3
      vertex 3.9433800601973856 -2.1678915334577193 0
      vertex 2.772726306131035 -1.097800005327523 -3
    endloop
  endfacet
  facet normal -0.8489618516265154 0.27584442694381317 0.4507478525815932
    outer loop
      vertex 2.772726306131035 -1.097800005327523 -3
      vertex 4.358624225078841 -1.119104492241845 0
      vertex 2.888453355508597 -0.7416287706523337 -3
    endloop
  endfacet
  facet normal -0.8768400078433871 0.1672661772095341 0.4507478525815932
    outer loop
      vertex 2.888453355508597 -0.7416287706523337 -3
      vertex 4.358624225078841 -1.119104492241845 0
      vertex 2.9586277699913897 -0.3737616072364068 -3
    endloop
  endfacet
  facet normal -0.8908898733377371 0.05605003994068916 0.45074785258159317
    outer loop
      vertex 2.9586277699913897 -0.3737616072364068 -3
      vertex 4.464516155915151 -0.5639995510393683 0
      vertex 2.982142857142857 0 -3
    endloop
  endfacet
  facet normal 0 0.8926513168046537 0.4507478525815931
    outer loop
      vertex -0.28255733788191195 -4.491120277927222 0
      vertex 0.28255733788191195 -4.491120277927222 0
      vertex 0.18725029931063214 -2.9762582794200245 -3
    endloop
  endfacet
  facet normal -0.11187887598056206 0.8856124945496243 0.45074785258159317
    outer loop
      vertex 0.28255733788191195 -4.491120277927222 0
      vertex 0.8432159156357617 -4.420292628279099 0
      vertex 0.558797848853858 -2.929320908423054 -3
    endloop
  endfacet
  facet normal -0.22199335525370928 0.8646070342162865 0.4507478525815932
    outer loop
      vertex 0.8432159156357617 -4.420292628279099 0
      vertex 1.3905764746872633 -4.2797543233281905 0
      vertex 0.9215328225110039 -2.836186396808761 -3
    endloop
  endfacet
  facet normal -0.328606866702101 0.8299662044621515 0.4507478525815933
    outer loop
      vertex 1.3905764746872633 -4.2797543233281905 0
      vertex 1.916006812042826 -4.071721736097088 0
      vertex 1.2697346730601267 -2.6983235314611655 -3
    endloop
  endfacet
  facet normal -0.430038051562376 0.7822363118658693 0.45074785258159317
    outer loop
      vertex 1.5979120493123637 -2.5179064921220817 -3
      vertex 1.916006812042826 -4.071721736097088 0
      vertex 2.411220577405483 -3.799475664759069 0
    endloop
  endfacet
  facet normal -0.5246872794572315 0.7221700853461401 0.45074785258159317
    outer loop
      vertex 2.411220577405483 -3.799475664759069 0
      vertex 2.868407953869105 -3.4673095924910506 0
      vertex 1.900889398000558 -2.2977805632777994 -3
    endloop
  endfacet
  facet normal -0.6110618755220592 0.6507148051770035 0.4507478525815932
    outer loop
      vertex 2.868407953869105 -3.4673095924910506 0
      vertex 3.2803588233963525 -3.080461976679098 0
      vertex 2.1738885853459955 -2.041417262323053 -3
    endloop
  endfacet
  facet normal -0.6877996607792319 0.5689973638120442 0.4507478525815933
    outer loop
      vertex 3.2803588233963525 -3.080461976679098 0
      vertex 3.6405764746872635 -2.6450336353161292 0
      vertex 2.4126042510824326 -1.752859591657911 -3
    endloop
  endfacet
  facet normal -0.7536904345143156 0.4783064941172182 0.4507478525815933
    outer loop
      vertex 3.6405764746872635 -2.6450336353161292 0
      vertex 3.9433800601973856 -2.1678915334577193 0
      vertex 2.4126042510824326 -1.752859591657911 -3
    endloop
  endfacet
  facet normal -0.8076950598642655 0.3800724452837155 0.4507478525815932
    outer loop
      vertex 3.9433800601973856 -2.1678915334577193 0
      vertex 4.183994186497131 -1.6565604870810526 0
      vertex 2.772726306131035 -1.097800005327523 -3
    endloop
  endfacet
  facet normal -0.8489618516265155 0.27584442694381317 0.4507478525815933
    outer loop
      vertex 4.183994186497131 -1.6565604870810526 0
      vertex 4.358624225078841 -1.119104492241845 0
      vertex 2.772726306131035 -1.097800005327523 -3
    endloop
  endfacet
  facet normal -0.8768400078433871 0.16726617720953407 0.4507478525815932
    outer loop
      vertex 4.358624225078841 -1.119104492241845 0
      vertex 4.464516155915151 -0.5639995510393683 0
      vertex 2.9586277699913897 -0.3737616072364068 -3
    endloop
  endfacet
  facet normal -0.8908898733377372 0.05605003994068924 0.4507478525815932
    outer loop
      vertex 4.464516155915151 -0.5639995510393683 0
      vertex 4.5 0 0
      vertex 2.982142857142857 0 -3
    endloop
  endfacet
  facet normal -1.0585211863767978e-15 -0.8926513168046537 0.4507478525815933
    outer loop
      vertex -0.18725029931063064 2.9762582794200245 -3
      vertex 0.1872502993106289 2.976258279420024 -3
      vertex 0.28255733788190973 4.491120277927222 0
    endloop
  endfacet
  facet normal -0.11187887598056231 -0.8856124945496243 0.4507478525815931
    outer loop
      vertex 0.8432159156357606 4.420292628279099 0
      vertex 0.1872502993106289 2.976258279420024 -3
      vertex 0.5587978488538572 2.9293209084230534 -3
    endloop
  endfacet
  facet normal -0.22199335525370756 -0.864607034216287 0.4507478525815932
    outer loop
      vertex 0.9215328225110039 2.8361863968087615 -3
      vertex 0.8432159156357606 4.420292628279099 0
      vertex 0.5587978488538572 2.9293209084230534 -3
    endloop
  endfacet
  facet normal -0.3286068667021022 -0.8299662044621511 0.450747852581593
    outer loop
      vertex 1.2697346730601275 2.698323531461165 -3
      vertex 1.3905764746872633 4.2797543233281905 0
      vertex 0.9215328225110039 2.8361863968087615 -3
    endloop
  endfacet
  facet normal -0.4300380515623745 -0.7822363118658701 0.4507478525815933
    outer loop
      vertex 1.597912049312365 2.5179064921220813 -3
      vertex 1.9160068120428273 4.071721736097087 0
      vertex 1.2697346730601275 2.698323531461165 -3
    endloop
  endfacet
  facet normal -0.5246872794572331 -0.722170085346139 0.4507478525815931
    outer loop
      vertex 1.597912049312365 2.5179064921220813 -3
      vertex 1.9008893980005568 2.2977805632778 -3
      vertex 2.411220577405485 3.799475664759068 0
    endloop
  endfacet
  facet normal -0.6110618755220583 -0.6507148051770044 0.4507478525815933
    outer loop
      vertex 1.9008893980005568 2.2977805632778 -3
      vertex 2.1738885853459955 2.0414172623230535 -3
      vertex 2.868407953869104 3.467309592491051 0
    endloop
  endfacet
  facet normal -0.876840007843387 -0.16726617720953482 0.4507478525815932
    outer loop
      vertex 2.8884533555085965 0.7416287706523349 -3
      vertex 2.9586277699913897 0.37376160723640733 -3
      vertex 4.464516155915151 0.5639995510393692 0
    endloop
  endfacet
  facet normal -0.8908898733377373 -0.05605003994068909 0.4507478525815932
    outer loop
      vertex 2.982142857142857 0 -3
      vertex 4.5 0 0
      vertex 2.9586277699913897 0.37376160723640733 -3
    endloop
  endfacet
  facet normal -0.848961851626515 -0.27584442694381484 0.45074785258159306
    outer loop
      vertex 2.7727263061310348 1.0978000053275219 -3
      vertex 2.8884533555085965 0.7416287706523349 -3
      vertex 4.35862422507884 1.1191044922418465 0
    endloop
  endfacet
  facet normal -0.7536904345143155 -0.47830649411721815 0.4507478525815932
    outer loop
      vertex 2.4126042510824326 1.752859591657911 -3
      vertex 2.6132717065593787 1.4366582781247583 -3
      vertex 3.943380060197386 2.167891533457719 0
    endloop
  endfacet
  facet normal -0.6877996607792322 -0.5689973638120438 0.45074785258159317
    outer loop
      vertex 2.1738885853459955 2.0414172623230535 -3
      vertex 2.4126042510824326 1.752859591657911 -3
      vertex 3.6405764746872635 2.6450336353161292 0
    endloop
  endfacet
  facet normal -0.8076950598642664 -0.3800724452837137 0.45074785258159333
    outer loop
      vertex 2.6132717065593787 1.4366582781247583 -3
      vertex 2.7727263061310348 1.0978000053275219 -3
      vertex 4.183994186497131 1.6565604870810509 0
    endloop
  endfacet
  facet normal -0.11187887598056184 -0.8856124945496243 0.4507478525815933
    outer loop
      vertex 0.8432159156357606 4.420292628279099 0
      vertex 0.28255733788190973 4.491120277927222 0
      vertex 0.1872502993106289 2.976258279420024 -3
    endloop
  endfacet
  facet normal -0.22199335525370886 -0.8646070342162866 0.45074785258159306
    outer loop
      vertex 1.3905764746872633 4.2797543233281905 0
      vertex 0.8432159156357606 4.420292628279099 0
      vertex 0.9215328225110039 2.8361863968087615 -3
    endloop
  endfacet
  facet normal -0.3286068667021015 -0.8299662044621513 0.45074785258159317
    outer loop
      vertex 1.9160068120428273 4.071721736097087 0
      vertex 1.3905764746872633 4.2797543233281905 0
      vertex 1.2697346730601275 2.698323531461165 -3
    endloop
  endfacet
  facet normal -0.43003805156237573 -0.7822363118658696 0.45074785258159306
    outer loop
      vertex 2.411220577405485 3.799475664759068 0
      vertex 1.9160068120428273 4.071721736097087 0
      vertex 1.597912049312365 2.5179064921220813 -3
    endloop
  endfacet
  facet normal -0.5246872794572323 -0.7221700853461396 0.45074785258159317
    outer loop
      vertex 1.9008893980005568 2.2977805632778 -3
      vertex 2.868407953869104 3.467309592491051 0
      vertex 2.411220577405485 3.799475664759068 0
    endloop
  endfacet
  facet normal -0.8076950598642662 -0.3800724452837143 0.45074785258159317
    outer loop
      vertex 2.6132717065593787 1.4366582781247583 -3
      vertex 4.183994186497131 1.6565604870810509 0
      vertex 3.943380060197386 2.167891533457719 0
    endloop
  endfacet
  facet normal -0.7536904345143154 -0.47830649411721854 0.4507478525815931
    outer loop
      vertex 2.4126042510824326 1.752859591657911 -3
      vertex 3.943380060197386 2.167891533457719 0
      vertex 3.6405764746872635 2.6450336353161292 0
    endloop
  endfacet
  facet normal -0.8908898733377372 -0.056050039940689154 0.4507478525815932
    outer loop
      vertex 2.9586277699913897 0.37376160723640733 -3
      vertex 4.5 0 0
      vertex 4.464516155915151 0.5639995510393692 0
    endloop
  endfacet
  facet normal -0.8768400078433869 -0.16726617720953524 0.45074785258159317
    outer loop
      vertex 2.8884533555085965 0.7416287706523349 -3
      vertex 4.464516155915151 0.5639995510393692 0
      vertex 4.35862422507884 1.1191044922418465 0
    endloop
  endfacet
  facet normal -0.8489618516265153 -0.27584442694381345 0.4507478525815932
    outer loop
      vertex 4.35862422507884 1.1191044922418465 0
      vertex 4.183994186497131 1.6565604870810509 0
      vertex 2.7727263061310348 1.0978000053275219 -3
    endloop
  endfacet
  facet normal -0.6110618755220584 -0.6507148051770042 0.4507478525815932
    outer loop
      vertex 3.280358823396352 3.080461976679099 0
      vertex 2.868407953869104 3.467309592491051 0
      vertex 2.1738885853459955 2.0414172623230535 -3
    endloop
  endfacet
  facet normal -0.6877996607792322 -0.5689973638120439 0.4507478525815932
    outer loop
      vertex 3.6405764746872635 2.6450336353161292 0
      vertex 3.280358823396352 3.080461976679099 0
      vertex 2.1738885853459955 2.0414172623230535 -3
    endloop
  endfacet
  facet normal -0.8443279255020154 -0.535826794978996 0
    outer loop
      vertex -8.090169943749475 -5.877852522924732 -3
      vertex -8.763066800438635 -4.817536741017154 0
      vertex -8.763066800438635 -4.817536741017154 -3
    endloop
  endfacet
  facet normal -0.7705132427757889 -0.6374239897486902 0
    outer loop
      vertex -8.090169943749475 -5.877852522924732 -3
      vertex -7.289686274214117 -6.845471059286885 -3
      vertex -8.090169943749475 -5.877852522924732 0
    endloop
  endfacet
  facet normal -0.5877852522924722 -0.8090169943749481 0
    outer loop
      vertex -6.374239897486897 -7.705132427757894 -3
      vertex -5.358267949789967 -8.44327925502015 -3
      vertex -5.358267949789967 -8.44327925502015 0
    endloop
  endfacet
  facet normal -0.6845471059286894 -0.7289686274214109 0
    outer loop
      vertex -6.374239897486897 -7.705132427757894 -3
      vertex -6.374239897486897 -7.705132427757894 0
      vertex -7.289686274214117 -6.845471059286885 -3
    endloop
  endfacet
  facet normal 0 0 -1
    outer loop
      vertex -9.297764858882514 -3.6812455268467787 -3
      vertex -9.68583161128631 -2.4868988716485485 -3
      vertex -9.297764858882514 3.6812455268467787 -3
    endloop
  endfacet
  facet normal 0 0 -1
    outer loop
      vertex -9.68583161128631 -2.4868988716485485 -3
      vertex -9.921147013144779 -1.2533323356430406 -3
      vertex -9.68583161128631 2.4868988716485485 -3
    endloop
  endfacet
  facet normal 0 0 -1
    outer loop
      vertex -8.763066800438635 -4.817536741017154 -3
      vertex -9.297764858882514 -3.6812455268467787 -3
      vertex -8.763066800438635 4.817536741017154 -3
    endloop
  endfacet
  facet normal 0 0 -1
    outer loop
      vertex -8.090169943749475 -5.877852522924732 -3
      vertex -8.763066800438635 -4.817536741017154 -3
      vertex -8.090169943749475 5.877852522924732 -3
    endloop
  endfacet
  facet normal 0 0 -1
    outer loop
      vertex -8.090169943749475 -5.877852522924732 -3
      vertex -7.289686274214117 6.845471059286885 -3
      vertex -7.289686274214117 -6.845471059286885 -3
    endloop
  endfacet
  facet normal 0 0 -1
    outer loop
      vertex -6.374239897486897 -7.705132427757894 -3
      vertex -5.358267949789967 8.44327925502015 -3
      vertex -5.358267949789967 -8.44327925502015 -3
    endloop
  endfacet
  facet normal 0 0 -1
    outer loop
      vertex -6.374239897486897 -7.705132427757894 -3
      vertex -7.289686274214117 -6.845471059286885 -3
      vertex -6.374239897486897 7.705132427757894 -3
    endloop
  endfacet
  facet normal -0.9048270524660195 -0.42577929156507305 0
    outer loop
      vertex -8.763066800438635 -4.817536741017154 -3
      vertex -9.297764858882514 -3.6812455268467787 0
      vertex -9.297764858882514 -3.6812455268467787 -3
    endloop
  endfacet
  facet normal -0.9510565162951536 -0.30901699437494723 0
    outer loop
      vertex -9.297764858882514 -3.6812455268467787 -3
      vertex -9.68583161128631 -2.4868988716485485 0
      vertex -9.68583161128631 -2.4868988716485485 -3
    endloop
  endfacet
  facet normal -0.9822872507286885 -0.18738131458572513 0
    outer loop
      vertex -9.68583161128631 -2.4868988716485485 -3
      vertex -9.921147013144779 -1.2533323356430406 0
      vertex -9.921147013144779 -1.2533323356430406 -3
    endloop
  endfacet
  facet normal -0.9980267284282717 -0.06279051952931294 0
    outer loop
      vertex -9.921147013144779 -1.2533323356430406 -3
      vertex -10 0 0
      vertex -10 0 -3
    endloop
  endfacet
  facet normal 0 0 -1
    outer loop
      vertex -1.8738131458572482 -9.822872507286887 -3
      vertex -0.558797848853858 -2.929320908423054 -3
      vertex -0.6279051952931376 -9.980267284282716 -3
    endloop
  endfacet
  facet normal 0 0 -1
    outer loop
      vertex -0.6279051952931376 -9.980267284282716 -3
      vertex -0.18725029931063214 -2.9762582794200245 -3
      vertex 0.6279051952931376 -9.980267284282716 -3
    endloop
  endfacet
  facet normal 0 0 -1
    outer loop
      vertex -3.090169943749474 -9.510565162951535 -3
      vertex -1.5979120493123653 -2.5179064921220804 -3
      vertex -1.8738131458572482 -9.822872507286887 -3
    endloop
  endfacet
  facet normal 0 0 -1
    outer loop
      vertex -1.8738131458572482 -9.822872507286887 -3
      vertex -1.5979120493123653 -2.5179064921220804 -3
      vertex -1.2697346730601267 -2.698323531461166 -3
    endloop
  endfacet
  facet normal 0 0 -1
    outer loop
      vertex -1.8738131458572482 -9.822872507286887 -3
      vertex -1.2697346730601267 -2.698323531461166 -3
      vertex -0.9215328225110039 -2.8361863968087615 -3
    endloop
  endfacet
  facet normal 0 0 -1
    outer loop
      vertex -1.8738131458572482 -9.822872507286887 -3
      vertex -0.9215328225110039 -2.8361863968087615 -3
      vertex -0.558797848853858 -2.929320908423054 -3
    endloop
  endfacet
  facet normal 0 0 -1
    outer loop
      vertex -0.6279051952931376 -9.980267284282716 -3
      vertex -0.558797848853858 -2.929320908423054 -3
      vertex -0.18725029931063214 -2.9762582794200245 -3
    endloop
  endfacet
  facet normal -0.4817536741017159 -0.8763066800438633 0
    outer loop
      vertex -5.358267949789967 -8.44327925502015 -3
      vertex -4.257792915650724 -9.048270524660197 -3
      vertex -4.257792915650724 -9.048270524660197 0
    endloop
  endfacet
  facet normal -0.3681245526846768 -0.9297764858882519 0
    outer loop
      vertex -4.257792915650724 -9.048270524660197 -3
      vertex -3.090169943749474 -9.510565162951535 -3
      vertex -3.090169943749474 -9.510565162951535 0
    endloop
  endfacet
  facet normal -0.24868988716485582 -0.968583161128631 0
    outer loop
      vertex -3.090169943749474 -9.510565162951535 -3
      vertex -1.8738131458572482 -9.822872507286887 -3
      vertex -1.8738131458572482 -9.822872507286887 0
    endloop
  endfacet
  facet normal -0.12533323356430498 -0.9921147013144778 0
    outer loop
      vertex -1.8738131458572482 -9.822872507286887 -3
      vertex -0.6279051952931376 -9.980267284282716 -3
      vertex -0.6279051952931376 -9.980267284282716 0
    endloop
  endfacet
  facet normal 0 0 -1
    outer loop
      vertex -5.358267949789967 -8.44327925502015 -3
      vertex -4.257792915650727 9.048270524660195 -3
      vertex -4.257792915650724 -9.048270524660197 -3
    endloop
  endfacet
  facet normal 0 0 -1
    outer loop
      vertex -3.090169943749474 -9.510565162951535 -3
      vertex -2.4126042510824326 -1.752859591657911 -3
      vertex -2.1738885853459955 -2.041417262323053 -3
    endloop
  endfacet
  facet normal 0 0 -1
    outer loop
      vertex -3.090169943749474 -9.510565162951535 -3
      vertex -2.7727263061310357 -1.0978000053275216 -3
      vertex -2.6132717065593787 -1.4366582781247583 -3
    endloop
  endfacet
  facet normal 0 0 -1
    outer loop
      vertex -3.090169943749474 -9.510565162951535 -3
      vertex -2.8884533555085965 -0.741628770652335 -3
      vertex -2.7727263061310357 -1.0978000053275216 -3
    endloop
  endfacet
  facet normal 0 0 -1
    outer loop
      vertex -3.090169943749474 -9.510565162951535 -3
      vertex -2.6132717065593787 -1.4366582781247583 -3
      vertex -2.4126042510824326 -1.752859591657911 -3
    endloop
  endfacet
  facet normal 0 0 -1
    outer loop
      vertex -4.257792915650724 -9.048270524660197 -3
      vertex -3.090169943749474 9.510565162951535 -3
      vertex -3.090169943749474 -9.510565162951535 -3
    endloop
  endfacet
  facet normal 0 0 -1
    outer loop
      vertex -3.090169943749474 -9.510565162951535 -3
      vertex -2.9586277699913897 -0.3737616072364068 -3
      vertex -2.8884533555085965 -0.741628770652335 -3
    endloop
  endfacet
  facet normal 0 0 -1
    outer loop
      vertex -3.090169943749474 -9.510565162951535 -3
      vertex -2.982142857142857 0 -3
      vertex -2.9586277699913897 -0.3737616072364068 -3
    endloop
  endfacet
  facet normal 0 0 -1
    outer loop
      vertex -3.090169943749474 -9.510565162951535 -3
      vertex -1.9008893980005566 -2.2977805632778003 -3
      vertex -1.5979120493123653 -2.5179064921220804 -3
    endloop
  endfacet
  facet normal 0 0 -1
    outer loop
      vertex -3.090169943749474 -9.510565162951535 -3
      vertex -2.1738885853459955 -2.041417262323053 -3
      vertex -1.9008893980005566 -2.2977805632778003 -3
    endloop
  endfacet
  facet normal -0.7705132427757889 -0.6374239897486902 0
    outer loop
      vertex -7.289686274214117 -6.845471059286885 -3
      vertex -7.289686274214117 -6.845471059286885 0
      vertex -8.090169943749475 -5.877852522924732 0
    endloop
  endfacet
  facet normal -0.8443279255020154 -0.535826794978996 0
    outer loop
      vertex -8.090169943749475 -5.877852522924732 -3
      vertex -8.090169943749475 -5.877852522924732 0
      vertex -8.763066800438635 -4.817536741017154 0
    endloop
  endfacet
  facet normal -0.5877852522924722 -0.8090169943749481 0
    outer loop
      vertex -6.374239897486897 -7.705132427757894 -3
      vertex -5.358267949789967 -8.44327925502015 0
      vertex -6.374239897486897 -7.705132427757894 0
    endloop
  endfacet
  facet normal -0.6845471059286894 -0.7289686274214109 0
    outer loop
      vertex -7.289686274214117 -6.845471059286885 -3
      vertex -6.374239897486897 -7.705132427757894 0
      vertex -7.289686274214117 -6.845471059286885 0
    endloop
  endfacet
  facet normal -0.9048270524660195 -0.42577929156507305 0
    outer loop
      vertex -8.763066800438635 -4.817536741017154 -3
      vertex -8.763066800438635 -4.817536741017154 0
      vertex -9.297764858882514 -3.6812455268467787 0
    endloop
  endfacet
  facet normal -0.9510565162951536 -0.30901699437494723 0
    outer loop
      vertex -9.297764858882514 -3.6812455268467787 -3
      vertex -9.297764858882514 -3.6812455268467787 0
      vertex -9.68583161128631 -2.4868988716485485 0
    endloop
  endfacet
  facet normal -0.9822872507286885 -0.18738131458572513 0
    outer loop
      vertex -9.68583161128631 -2.4868988716485485 -3
      vertex -9.68583161128631 -2.4868988716485485 0
      vertex -9.921147013144779 -1.2533323356430406 0
    endloop
  endfacet
  facet normal -0.9980267284282717 -0.06279051952931294 0
    outer loop
      vertex -9.921147013144779 -1.2533323356430406 -3
      vertex -9.921147013144779 -1.2533323356430406 0
      vertex -10 0 0
    endloop
  endfacet
  facet normal 0 0 1
    outer loop
      vertex -8.763066800438635 -4.817536741017154 0
      vertex -9.297764858882514 3.6812455268467787 0
      vertex -9.297764858882514 -3.6812455268467787 0
    endloop
  endfacet
  facet normal 0 0 1
    outer loop
      vertex -9.68583161128631 -2.4868988716485485 0
      vertex -9.921147013144779 1.2533323356430406 0
      vertex -9.921147013144779 -1.2533323356430406 0
    endloop
  endfacet
  facet normal 0 0 1
    outer loop
      vertex -9.297764858882514 -3.6812455268467787 0
      vertex -9.68583161128631 2.4868988716485485 0
      vertex -9.68583161128631 -2.4868988716485485 0
    endloop
  endfacet
  facet normal 0 0 1
    outer loop
      vertex -8.090169943749475 -5.877852522924732 0
      vertex -8.763066800438635 4.817536741017154 0
      vertex -8.763066800438635 -4.817536741017154 0
    endloop
  endfacet
  facet normal 0 0 1
    outer loop
      vertex -8.090169943749475 -5.877852522924732 0
      vertex -7.289686274214117 -6.845471059286885 0
      vertex -8.090169943749475 5.877852522924732 0
    endloop
  endfacet
  facet normal 0 0 1
    outer loop
      vertex -6.374239897486897 -7.705132427757894 0
      vertex -7.289686274214117 6.845471059286885 0
      vertex -7.289686274214117 -6.845471059286885 0
    endloop
  endfacet
  facet normal 0 0 1
    outer loop
      vertex -6.374239897486897 -7.705132427757894 0
      vertex -5.358267949789967 -8.44327925502015 0
      vertex -6.374239897486897 7.705132427757894 0
    endloop
  endfacet
  facet normal -0.3681245526846768 -0.9297764858882519 0
    outer loop
      vertex -4.257792915650724 -9.048270524660197 -3
      vertex -3.090169943749474 -9.510565162951535 0
      vertex -4.257792915650724 -9.048270524660197 0
    endloop
  endfacet
  facet normal -0.4817536741017159 -0.8763066800438633 0
    outer loop
      vertex -5.358267949789967 -8.44327925502015 -3
      vertex -4.257792915650724 -9.048270524660197 0
      vertex -5.358267949789967 -8.44327925502015 0
    endloop
  endfacet
  facet normal -0.24868988716485582 -0.968583161128631 0
    outer loop
      vertex -3.090169943749474 -9.510565162951535 -3
      vertex -1.8738131458572482 -9.822872507286887 0
      vertex -3.090169943749474 -9.510565162951535 0
    endloop
  endfacet
  facet normal -0.12533323356430498 -0.9921147013144778 0
    outer loop
      vertex -1.8738131458572482 -9.822872507286887 -3
      vertex -0.6279051952931376 -9.980267284282716 0
      vertex -1.8738131458572482 -9.822872507286887 0
    endloop
  endfacet
  facet normal 0 -1 0
    outer loop
      vertex -0.6279051952931376 -9.980267284282716 -3
      vertex 0.6279051952931376 -9.980267284282716 0
      vertex -0.6279051952931376 -9.980267284282716 0
    endloop
  endfacet
  facet normal 0 0 1
    outer loop
      vertex -4.257792915650724 -9.048270524660197 0
      vertex -3.090169943749474 -9.510565162951535 0
      vertex -3.6405764746872635 -2.6450336353161292 0
    endloop
  endfacet
  facet normal 0 0 1
    outer loop
      vertex -3.090169943749474 -9.510565162951535 0
      vertex -3.2803588233963525 -3.080461976679098 0
      vertex -3.6405764746872635 -2.6450336353161292 0
    endloop
  endfacet
  facet normal 0 0 1
    outer loop
      vertex -3.090169943749474 -9.510565162951535 0
      vertex -2.868407953869103 -3.467309592491052 0
      vertex -3.2803588233963525 -3.080461976679098 0
    endloop
  endfacet
  facet normal 0 0 1
    outer loop
      vertex -3.090169943749474 -9.510565162951535 0
      vertex -2.4112205774054853 -3.7994756647590675 0
      vertex -2.868407953869103 -3.467309592491052 0
    endloop
  endfacet
  facet normal 0 0 1
    outer loop
      vertex -3.090169943749474 -9.510565162951535 0
      vertex -1.8738131458572482 -9.822872507286887 0
      vertex -2.4112205774054853 -3.7994756647590675 0
    endloop
  endfacet
  facet normal 0 0 1
    outer loop
      vertex -1.8738131458572482 -9.822872507286887 0
      vertex -0.6279051952931376 -9.980267284282716 0
      vertex -1.3905764746872633 -4.2797543233281905 0
    endloop
  endfacet
  facet normal 0 0 1
    outer loop
      vertex -1.8738131458572482 -9.822872507286887 0
      vertex -1.916006812042826 -4.071721736097088 0
      vertex -2.4112205774054853 -3.7994756647590675 0
    endloop
  endfacet
  facet normal 0 0 1
    outer loop
      vertex -1.8738131458572482 -9.822872507286887 0
      vertex -1.3905764746872633 -4.2797543233281905 0
      vertex -1.916006812042826 -4.071721736097088 0
    endloop
  endfacet
  facet normal 0 0 1
    outer loop
      vertex -0.6279051952931376 -9.980267284282716 0
      vertex -0.28255733788191195 -4.491120277927222 0
      vertex -0.8432159156357617 -4.420292628279099 0
    endloop
  endfacet
  facet normal 0 0 1
    outer loop
      vertex -0.6279051952931376 -9.980267284282716 0
      vertex 0.28255733788191195 -4.491120277927222 0
      vertex -0.28255733788191195 -4.491120277927222 0
    endloop
  endfacet
  facet normal 0 0 1
    outer loop
      vertex -0.6279051952931376 -9.980267284282716 0
      vertex -0.8432159156357617 -4.420292628279099 0
      vertex -1.3905764746872633 -4.2797543233281905 0
    endloop
  endfacet
  facet normal 0 0 1
    outer loop
      vertex -4.257792915650724 -9.048270524660197 0
      vertex -3.6405764746872635 -2.6450336353161292 0
      vertex -3.9433800601973856 -2.1678915334577193 0
    endloop
  endfacet
  facet normal 0 0 1
    outer loop
      vertex -4.257792915650724 -9.048270524660197 0
      vertex -3.9433800601973856 -2.1678915334577193 0
      vertex -4.183994186497132 -1.6565604870810504 0
    endloop
  endfacet
  facet normal 0 0 1
    outer loop
      vertex -4.257792915650724 -9.048270524660197 0
      vertex -4.183994186497132 -1.6565604870810504 0
      vertex -4.35862422507884 -1.119104492241847 0
    endloop
  endfacet
  facet normal 0 0 1
    outer loop
      vertex -5.358267949789967 -8.44327925502015 0
      vertex -4.257792915650724 -9.048270524660197 0
      vertex -5.358267949789967 8.44327925502015 0
    endloop
  endfacet
  facet normal 0 0 1
    outer loop
      vertex -4.257792915650724 -9.048270524660197 0
      vertex -4.35862422507884 -1.119104492241847 0
      vertex -4.464516155915151 -0.5639995510393683 0
    endloop
  endfacet
  facet normal 0 0 1
    outer loop
      vertex -4.257792915650724 -9.048270524660197 0
      vertex -4.464516155915151 -0.5639995510393683 0
      vertex -5.358267949789967 8.44327925502015 0
    endloop
  endfacet
  facet normal 0 0 -1
    outer loop
      vertex -9.921147013144779 -1.2533323356430406 -3
      vertex -10 0 -3
      vertex -9.921147013144779 1.2533323356430406 -3
    endloop
  endfacet
  facet normal 0 0 -1
    outer loop
      vertex -9.921147013144779 -1.2533323356430406 -3
      vertex -9.921147013144779 1.2533323356430406 -3
      vertex -9.68583161128631 2.4868988716485485 -3
    endloop
  endfacet
  facet normal 0 0 -1
    outer loop
      vertex -9.68583161128631 -2.4868988716485485 -3
      vertex -9.68583161128631 2.4868988716485485 -3
      vertex -9.297764858882514 3.6812455268467787 -3
    endloop
  endfacet
  facet normal 0 0 -1
    outer loop
      vertex -9.297764858882514 -3.6812455268467787 -3
      vertex -9.297764858882514 3.6812455268467787 -3
      vertex -8.763066800438635 4.817536741017154 -3
    endloop
  endfacet
  facet normal 0 0 -1
    outer loop
      vertex -8.763066800438635 -4.817536741017154 -3
      vertex -8.763066800438635 4.817536741017154 -3
      vertex -8.090169943749475 5.877852522924732 -3
    endloop
  endfacet
  facet normal 0 0 -1
    outer loop
      vertex -8.090169943749475 -5.877852522924732 -3
      vertex -8.090169943749475 5.877852522924732 -3
      vertex -7.289686274214117 6.845471059286885 -3
    endloop
  endfacet
  facet normal 0 0 -1
    outer loop
      vertex -7.289686274214117 -6.845471059286885 -3
      vertex -7.289686274214117 6.845471059286885 -3
      vertex -6.374239897486897 7.705132427757894 -3
    endloop
  endfacet
  facet normal 0 0 -1
    outer loop
      vertex -6.374239897486897 -7.705132427757894 -3
      vertex -6.374239897486897 7.705132427757894 -3
      vertex -5.358267949789967 8.44327925502015 -3
    endloop
  endfacet
  facet normal -0.9980267284282717 0.06279051952931294 0
    outer loop
      vertex -10 0 -3
      vertex -9.921147013144779 1.2533323356430406 0
      vertex -9.921147013144779 1.2533323356430406 -3
    endloop
  endfacet
  facet normal -0.9822872507286885 0.18738131458572513 0
    outer loop
      vertex -9.921147013144779 1.2533323356430406 -3
      vertex -9.68583161128631 2.4868988716485485 0
      vertex -9.68583161128631 2.4868988716485485 -3
    endloop
  endfacet
  facet normal -0.9510565162951536 0.30901699437494723 0
    outer loop
      vertex -9.68583161128631 2.4868988716485485 -3
      vertex -9.297764858882514 3.6812455268467787 0
      vertex -9.297764858882514 3.6812455268467787 -3
    endloop
  endfacet
  facet normal -0.9048270524660195 0.42577929156507305 0
    outer loop
      vertex -9.297764858882514 3.6812455268467787 -3
      vertex -8.763066800438635 4.817536741017154 0
      vertex -8.763066800438635 4.817536741017154 -3
    endloop
  endfacet
  facet normal -0.8443279255020154 0.535826794978996 0
    outer loop
      vertex -8.763066800438635 4.817536741017154 -3
      vertex -8.090169943749475 5.877852522924732 0
      vertex -8.090169943749475 5.877852522924732 -3
    endloop
  endfacet
  facet normal -0.7705132427757889 0.6374239897486902 0
    outer loop
      vertex -8.090169943749475 5.877852522924732 -3
      vertex -7.289686274214117 6.845471059286885 0
      vertex -7.289686274214117 6.845471059286885 -3
    endloop
  endfacet
  facet normal -0.6845471059286894 0.7289686274214109 0
    outer loop
      vertex -7.289686274214117 6.845471059286885 -3
      vertex -7.289686274214117 6.845471059286885 0
      vertex -6.374239897486897 7.705132427757894 -3
    endloop
  endfacet
  facet normal -0.5877852522924722 0.8090169943749481 0
    outer loop
      vertex -6.374239897486897 7.705132427757894 -3
      vertex -6.374239897486897 7.705132427757894 0
      vertex -5.358267949789967 8.44327925502015 -3
    endloop
  endfacet
  facet normal 0 0 -1
    outer loop
      vertex -3.090169943749474 -9.510565162951535 -3
      vertex -3.090169943749474 9.510565162951535 -3
      vertex -2.982142857142857 0 -3
    endloop
  endfacet
  facet normal 0 0 -1
    outer loop
      vertex -5.358267949789967 -8.44327925502015 -3
      vertex -5.358267949789967 8.44327925502015 -3
      vertex -4.257792915650727 9.048270524660195 -3
    endloop
  endfacet
  facet normal 0 0 -1
    outer loop
      vertex -4.257792915650724 -9.048270524660197 -3
      vertex -4.257792915650727 9.048270524660195 -3
      vertex -3.090169943749474 9.510565162951535 -3
    endloop
  endfacet
  facet normal 0 0 -1
    outer loop
      vertex -3.090169943749474 9.510565162951535 -3
      vertex -2.9586277699913897 0.37376160723640683 -3
      vertex -2.982142857142857 0 -3
    endloop
  endfacet
  facet normal 0 0 -1
    outer loop
      vertex -3.090169943749474 9.510565162951535 -3
      vertex -2.8884533555085965 0.741628770652335 -3
      vertex -2.9586277699913897 0.37376160723640683 -3
    endloop
  endfacet
  facet normal 0 0 -1
    outer loop
      vertex -3.090169943749474 9.510565162951535 -3
      vertex -2.772726306131036 1.0978000053275216 -3
      vertex -2.8884533555085965 0.741628770652335 -3
    endloop
  endfacet
  facet normal 0 0 -1
    outer loop
      vertex -3.090169943749474 9.510565162951535 -3
      vertex -2.6132717065593787 1.4366582781247583 -3
      vertex -2.772726306131036 1.0978000053275216 -3
    endloop
  endfacet
  facet normal 0 0 -1
    outer loop
      vertex -3.090169943749474 9.510565162951535 -3
      vertex -2.412604251082433 1.7528595916579113 -3
      vertex -2.6132717065593787 1.4366582781247583 -3
    endloop
  endfacet
  facet normal 0 0 -1
    outer loop
      vertex -1.8738131458572458 9.822872507286887 -3
      vertex -2.1738885853459955 2.0414172623230535 -3
      vertex -2.412604251082433 1.7528595916579113 -3
    endloop
  endfacet
  facet normal 0 0 -1
    outer loop
      vertex -1.8738131458572458 9.822872507286887 -3
      vertex -1.9008893980005563 2.2977805632778003 -3
      vertex -2.1738885853459955 2.0414172623230535 -3
    endloop
  endfacet
  facet normal 0 0 -1
    outer loop
      vertex -1.8738131458572458 9.822872507286887 -3
      vertex -1.5979120493123653 2.5179064921220804 -3
      vertex -1.9008893980005563 2.2977805632778003 -3
    endloop
  endfacet
  facet normal 0 0 -1
    outer loop
      vertex -1.8738131458572458 9.822872507286887 -3
      vertex -1.2697346730601275 2.698323531461165 -3
      vertex -1.5979120493123653 2.5179064921220804 -3
    endloop
  endfacet
  facet normal 0 0 -1
    outer loop
      vertex -3.090169943749474 9.510565162951535 -3
      vertex -1.8738131458572458 9.822872507286887 -3
      vertex -2.412604251082433 1.7528595916579113 -3
    endloop
  endfacet
  facet normal 0 0 -1
    outer loop
      vertex -0.6279051952931327 9.980267284282716 -3
      vertex -0.9215328225110039 2.836186396808761 -3
      vertex -1.2697346730601275 2.698323531461165 -3
    endloop
  endfacet
  facet normal 0 0 -1
    outer loop
      vertex -0.6279051952931327 9.980267284282716 -3
      vertex -0.5587978488538572 2.9293209084230534 -3
      vertex -0.9215328225110039 2.836186396808761 -3
    endloop
  endfacet
  facet normal 0 0 -1
    outer loop
      vertex -0.6279051952931327 9.980267284282716 -3
      vertex -0.18725029931063064 2.9762582794200245 -3
      vertex -0.5587978488538572 2.9293209084230534 -3
    endloop
  endfacet
  facet normal 0 0 -1
    outer loop
      vertex -0.6279051952931327 9.980267284282716 -3
      vertex 0.1872502993106289 2.976258279420024 -3
      vertex -0.18725029931063064 2.9762582794200245 -3
    endloop
  endfacet
  facet normal 0 0 -1
    outer loop
      vertex -1.8738131458572458 9.822872507286887 -3
      vertex -0.6279051952931327 9.980267284282716 -3
      vertex -1.2697346730601275 2.698323531461165 -3
    endloop
  endfacet
  facet normal -0.48175367410171566 0.8763066800438633 0
    outer loop
      vertex -5.358267949789967 8.44327925502015 -3
      vertex -5.358267949789967 8.44327925502015 0
      vertex -4.257792915650727 9.048270524660195 -3
    endloop
  endfacet
  facet normal -0.3681245526846773 0.9297764858882517 0
    outer loop
      vertex -4.257792915650727 9.048270524660195 -3
      vertex -4.257792915650727 9.048270524660195 0
      vertex -3.090169943749474 9.510565162951535 -3
    endloop
  endfacet
  facet normal -0.24868988716485532 0.968583161128631 0
    outer loop
      vertex -3.090169943749474 9.510565162951535 -3
      vertex -3.090169943749474 9.510565162951535 0
      vertex -1.8738131458572458 9.822872507286887 -3
    endloop
  endfacet
  facet normal -0.12533323356430473 0.9921147013144778 0
    outer loop
      vertex -1.8738131458572458 9.822872507286887 -3
      vertex -1.8738131458572458 9.822872507286887 0
      vertex -0.6279051952931327 9.980267284282716 -3
    endloop
  endfacet
  facet normal 0 1 0
    outer loop
      vertex -0.6279051952931327 9.980267284282716 -3
      vertex -0.6279051952931327 9.980267284282716 0
      vertex 0.6279051952931327 9.980267284282716 -3
    endloop
  endfacet
  facet normal -0.9980267284282717 0.06279051952931294 0
    outer loop
      vertex -10 0 -3
      vertex -10 0 0
      vertex -9.921147013144779 1.2533323356430406 0
    endloop
  endfacet
  facet normal -0.9822872507286885 0.18738131458572513 0
    outer loop
      vertex -9.921147013144779 1.2533323356430406 -3
      vertex -9.921147013144779 1.2533323356430406 0
      vertex -9.68583161128631 2.4868988716485485 0
    endloop
  endfacet
  facet normal -0.9510565162951536 0.30901699437494723 0
    outer loop
      vertex -9.68583161128631 2.4868988716485485 -3
      vertex -9.68583161128631 2.4868988716485485 0
      vertex -9.297764858882514 3.6812455268467787 0
    endloop
  endfacet
  facet normal -0.9048270524660195 0.42577929156507305 0
    outer loop
      vertex -9.297764858882514 3.6812455268467787 -3
      vertex -9.297764858882514 3.6812455268467787 0
      vertex -8.763066800438635 4.817536741017154 0
    endloop
  endfacet
  facet normal 0 0 1
    outer loop
      vertex -9.921147013144779 -1.2533323356430406 0
      vertex -9.921147013144779 1.2533323356430406 0
      vertex -10 0 0
    endloop
  endfacet
  facet normal 0 0 1
    outer loop
      vertex -9.68583161128631 -2.4868988716485485 0
      vertex -9.68583161128631 2.4868988716485485 0
      vertex -9.921147013144779 1.2533323356430406 0
    endloop
  endfacet
  facet normal 0 0 1
    outer loop
      vertex -9.297764858882514 -3.6812455268467787 0
      vertex -9.297764858882514 3.6812455268467787 0
      vertex -9.68583161128631 2.4868988716485485 0
    endloop
  endfacet
  facet normal 0 0 1
    outer loop
      vertex -8.763066800438635 -4.817536741017154 0
      vertex -8.763066800438635 4.817536741017154 0
      vertex -9.297764858882514 3.6812455268467787 0
    endloop
  endfacet
  facet normal 0 0 1
    outer loop
      vertex -8.090169943749475 -5.877852522924732 0
      vertex -8.090169943749475 5.877852522924732 0
      vertex -8.763066800438635 4.817536741017154 0
    endloop
  endfacet
  facet normal 0 0 1
    outer loop
      vertex -7.289686274214117 -6.845471059286885 0
      vertex -7.289686274214117 6.845471059286885 0
      vertex -8.090169943749475 5.877852522924732 0
    endloop
  endfacet
  facet normal 0 0 1
    outer loop
      vertex -6.374239897486897 -7.705132427757894 0
      vertex -6.374239897486897 7.705132427757894 0
      vertex -7.289686274214117 6.845471059286885 0
    endloop
  endfacet
  facet normal 0 0 1
    outer loop
      vertex -5.358267949789967 -8.44327925502015 0
      vertex -5.358267949789967 8.44327925502015 0
      vertex -6.374239897486897 7.705132427757894 0
    endloop
  endfacet
  facet normal -0.8443279255020154 0.535826794978996 0
    outer loop
      vertex -8.763066800438635 4.817536741017154 -3
      vertex -8.763066800438635 4.817536741017154 0
      vertex -8.090169943749475 5.877852522924732 0
    endloop
  endfacet
  facet normal -0.7705132427757889 0.6374239897486902 0
    outer loop
      vertex -8.090169943749475 5.877852522924732 -3
      vertex -8.090169943749475 5.877852522924732 0
      vertex -7.289686274214117 6.845471059286885 0
    endloop
  endfacet
  facet normal -0.6845471059286894 0.7289686274214109 0
    outer loop
      vertex -6.374239897486897 7.705132427757894 -3
      vertex -7.289686274214117 6.845471059286885 0
      vertex -6.374239897486897 7.705132427757894 0
    endloop
  endfacet
  facet normal -0.5877852522924722 0.8090169943749481 0
    outer loop
      vertex -5.358267949789967 8.44327925502015 -3
      vertex -6.374239897486897 7.705132427757894 0
      vertex -5.358267949789967 8.44327925502015 0
    endloop
  endfacet
  facet normal 0 0 1
    outer loop
      vertex -5.358267949789967 8.44327925502015 0
      vertex -4.464516155915151 -0.5639995510393683 0
      vertex -4.5 0 0
    endloop
  endfacet
  facet normal 0 0 1
    outer loop
      vertex -5.358267949789967 8.44327925502015 0
      vertex -4.5 0 0
      vertex -4.464516155915151 0.5639995510393683 0
    endloop
  endfacet
  facet normal 0 0 1
    outer loop
      vertex -5.358267949789967 8.44327925502015 0
      vertex -4.464516155915151 0.5639995510393683 0
      vertex -4.35862422507884 1.119104492241847 0
    endloop
  endfacet
  facet normal 0 0 1
    outer loop
      vertex -5.358267949789967 8.44327925502015 0
      vertex -4.35862422507884 1.119104492241847 0
      vertex -4.183994186497132 1.6565604870810504 0
    endloop
  endfacet
  facet normal 0 0 1
    outer loop
      vertex -4.257792915650727 9.048270524660195 0
      vertex -4.183994186497132 1.6565604870810504 0
      vertex -3.9433800601973856 2.1678915334577193 0
    endloop
  endfacet
  facet normal 0 0 1
    outer loop
      vertex -4.257792915650727 9.048270524660195 0
      vertex -3.9433800601973856 2.1678915334577193 0
      vertex -3.6405764746872635 2.6450336353161292 0
    endloop
  endfacet
  facet normal 0 0 1
    outer loop
      vertex -4.257792915650727 9.048270524660195 0
      vertex -3.6405764746872635 2.6450336353161292 0
      vertex -3.2803588233963525 3.080461976679098 0
    endloop
  endfacet
  facet normal -0.48175367410171566 0.8763066800438633 0
    outer loop
      vertex -4.257792915650727 9.048270524660195 -3
      vertex -5.358267949789967 8.44327925502015 0
      vertex -4.257792915650727 9.048270524660195 0
    endloop
  endfacet
  facet normal -0.3681245526846773 0.9297764858882517 0
    outer loop
      vertex -3.090169943749474 9.510565162951535 -3
      vertex -4.257792915650727 9.048270524660195 0
      vertex -3.090169943749474 9.510565162951535 0
    endloop
  endfacet
  facet normal -0.24868988716485532 0.968583161128631 0
    outer loop
      vertex -1.8738131458572458 9.822872507286887 -3
      vertex -3.090169943749474 9.510565162951535 0
      vertex -1.8738131458572458 9.822872507286887 0
    endloop
  endfacet
  facet normal -0.12533323356430473 0.9921147013144778 0
    outer loop
      vertex -0.6279051952931327 9.980267284282716 -3
      vertex -1.8738131458572458 9.822872507286887 0
      vertex -0.6279051952931327 9.980267284282716 0
    endloop
  endfacet
  facet normal 0 0 1
    outer loop
      vertex -5.358267949789967 8.44327925502015 0
      vertex -4.183994186497132 1.6565604870810504 0
      vertex -4.257792915650727 9.048270524660195 0
    endloop
  endfacet
  facet normal 0 0 1
    outer loop
      vertex -4.257792915650727 9.048270524660195 0
      vertex -3.2803588233963525 3.080461976679098 0
      vertex -2.868407953869103 3.467309592491052 0
    endloop
  endfacet
  facet normal 0 0 1
    outer loop
      vertex -3.090169943749474 9.510565162951535 0
      vertex -2.868407953869103 3.467309592491052 0
      vertex -2.4112205774054853 3.7994756647590675 0
    endloop
  endfacet
  facet normal 0 0 1
    outer loop
      vertex -4.257792915650727 9.048270524660195 0
      vertex -2.868407953869103 3.467309592491052 0
      vertex -3.090169943749474 9.510565162951535 0
    endloop
  endfacet
  facet normal 0 0 1
    outer loop
      vertex -3.090169943749474 9.510565162951535 0
      vertex -2.4112205774054853 3.7994756647590675 0
      vertex -1.9160068120428273 4.071721736097087 0
    endloop
  endfacet
  facet normal 0 0 1
    outer loop
      vertex -3.090169943749474 9.510565162951535 0
      vertex -1.9160068120428273 4.071721736097087 0
      vertex -1.3905764746872633 4.2797543233281905 0
    endloop
  endfacet
  facet normal 0 0 1
    outer loop
      vertex -1.8738131458572458 9.822872507286887 0
      vertex -1.3905764746872633 4.2797543233281905 0
      vertex -0.8432159156357606 4.420292628279099 0
    endloop
  endfacet
  facet normal 0 0 1
    outer loop
      vertex -1.8738131458572458 9.822872507286887 0
      vertex -0.8432159156357606 4.420292628279099 0
      vertex -0.28255733788190834 4.491120277927222 0
    endloop
  endfacet
  facet normal 0 0 1
    outer loop
      vertex -3.090169943749474 9.510565162951535 0
      vertex -1.3905764746872633 4.2797543233281905 0
      vertex -1.8738131458572458 9.822872507286887 0
    endloop
  endfacet
  facet normal 0 0 1
    outer loop
      vertex -1.8738131458572458 9.822872507286887 0
      vertex -0.28255733788190834 4.491120277927222 0
      vertex -0.6279051952931327 9.980267284282716 0
    endloop
  endfacet
  facet normal 0 0 1
    outer loop
      vertex -0.6279051952931327 9.980267284282716 0
      vertex -0.28255733788190834 4.491120277927222 0
      vertex 0.6279051952931327 9.980267284282716 0
    endloop
  endfacet
  facet normal 0 0 -1
    outer loop
      vertex 0.6279051952931376 -9.980267284282716 -3
      vertex 1.2697346730601267 -2.6983235314611655 -3
      vertex 1.8738131458572482 -9.822872507286887 -3
    endloop
  endfacet
  facet normal 0 0 -1
    outer loop
      vertex 0.6279051952931376 -9.980267284282716 -3
      vertex -0.18725029931063214 -2.9762582794200245 -3
      vertex 0.18725029931063214 -2.9762582794200245 -3
    endloop
  endfacet
  facet normal 0 0 -1
    outer loop
      vertex 0.6279051952931376 -9.980267284282716 -3
      vertex 0.18725029931063214 -2.9762582794200245 -3
      vertex 0.558797848853858 -2.929320908423054 -3
    endloop
  endfacet
  facet normal 0 0 -1
    outer loop
      vertex 0.6279051952931376 -9.980267284282716 -3
      vertex 0.558797848853858 -2.929320908423054 -3
      vertex 0.9215328225110039 -2.836186396808761 -3
    endloop
  endfacet
  facet normal 0 0 -1
    outer loop
      vertex 0.6279051952931376 -9.980267284282716 -3
      vertex 0.9215328225110039 -2.836186396808761 -3
      vertex 1.2697346730601267 -2.6983235314611655 -3
    endloop
  endfacet
  facet normal 0 0 -1
    outer loop
      vertex 1.8738131458572482 -9.822872507286887 -3
      vertex 2.4126042510824326 -1.752859591657911 -3
      vertex 3.090169943749474 -9.510565162951535 -3
    endloop
  endfacet
  facet normal 0 0 -1
    outer loop
      vertex 1.8738131458572482 -9.822872507286887 -3
      vertex 1.2697346730601267 -2.6983235314611655 -3
      vertex 1.5979120493123637 -2.5179064921220817 -3
    endloop
  endfacet
  facet normal 0 -1 0
    outer loop
      vertex -0.6279051952931376 -9.980267284282716 -3
      vertex 0.6279051952931376 -9.980267284282716 -3
      vertex 0.6279051952931376 -9.980267284282716 0
    endloop
  endfacet
  facet normal 0.12533323356430498 -0.9921147013144778 0
    outer loop
      vertex 0.6279051952931376 -9.980267284282716 -3
      vertex 1.8738131458572482 -9.822872507286887 -3
      vertex 1.8738131458572482 -9.822872507286887 0
    endloop
  endfacet
  facet normal 0.24868988716485582 -0.968583161128631 0
    outer loop
      vertex 1.8738131458572482 -9.822872507286887 -3
      vertex 3.090169943749474 -9.510565162951535 -3
      vertex 3.090169943749474 -9.510565162951535 0
    endloop
  endfacet
  facet normal 0.3681245526846768 -0.9297764858882519 0
    outer loop
      vertex 3.090169943749474 -9.510565162951535 -3
      vertex 4.257792915650724 -9.048270524660197 -3
      vertex 4.257792915650724 -9.048270524660197 0
    endloop
  endfacet
  facet normal 0.4817536741017155 -0.8763066800438635 0
    outer loop
      vertex 4.257792915650724 -9.048270524660197 -3
      vertex 5.358267949789962 -8.443279255020153 -3
      vertex 5.358267949789962 -8.443279255020153 0
    endloop
  endfacet
  facet normal 0 0 -1
    outer loop
      vertex 1.8738131458572482 -9.822872507286887 -3
      vertex 1.5979120493123637 -2.5179064921220817 -3
      vertex 1.900889398000558 -2.2977805632777994 -3
    endloop
  endfacet
  facet normal 0 0 -1
    outer loop
      vertex 1.8738131458572482 -9.822872507286887 -3
      vertex 1.900889398000558 -2.2977805632777994 -3
      vertex 2.1738885853459955 -2.041417262323053 -3
    endloop
  endfacet
  facet normal 0 0 -1
    outer loop
      vertex 1.8738131458572482 -9.822872507286887 -3
      vertex 2.1738885853459955 -2.041417262323053 -3
      vertex 2.4126042510824326 -1.752859591657911 -3
    endloop
  endfacet
  facet normal 0 0 -1
    outer loop
      vertex 3.090169943749474 -9.510565162951535 -3
      vertex 2.4126042510824326 -1.752859591657911 -3
      vertex 2.6132717065593787 -1.4366582781247583 -3
    endloop
  endfacet
  facet normal 0 0 -1
    outer loop
      vertex 3.090169943749474 -9.510565162951535 -3
      vertex 2.6132717065593787 -1.4366582781247583 -3
      vertex 2.772726306131035 -1.097800005327523 -3
    endloop
  endfacet
  facet normal 0 0 -1
    outer loop
      vertex 3.090169943749474 -9.510565162951535 -3
      vertex 2.772726306131035 -1.097800005327523 -3
      vertex 2.888453355508597 -0.7416287706523337 -3
    endloop
  endfacet
  facet normal 0 0 -1
    outer loop
      vertex 3.090169943749474 -9.510565162951535 -3
      vertex 2.888453355508597 -0.7416287706523337 -3
      vertex 2.9586277699913897 -0.3737616072364068 -3
    endloop
  endfacet
  facet normal 0 0 -1
    outer loop
      vertex 3.090169943749474 -9.510565162951535 -3
      vertex 2.9586277699913897 -0.3737616072364068 -3
      vertex 2.982142857142857 0 -3
    endloop
  endfacet
  facet normal 0 0 -1
    outer loop
      vertex 3.090169943749474 -9.510565162951535 -3
      vertex 4.257792915650727 9.048270524660195 -3
      vertex 4.257792915650724 -9.048270524660197 -3
    endloop
  endfacet
  facet normal 0 0 -1
    outer loop
      vertex 4.257792915650724 -9.048270524660197 -3
      vertex 5.358267949789966 8.443279255020151 -3
      vertex 5.358267949789962 -8.443279255020153 -3
    endloop
  endfacet
  facet normal 0.5877852522924726 -0.8090169943749479 0
    outer loop
      vertex 5.358267949789962 -8.443279255020153 -3
      vertex 6.3742398974869 -7.70513242775789 -3
      vertex 6.3742398974869 -7.70513242775789 0
    endloop
  endfacet
  facet normal 0.6845471059286893 -0.728968627421411 0
    outer loop
      vertex 6.3742398974869 -7.70513242775789 -3
      vertex 7.289686274214117 -6.845471059286885 -3
      vertex 7.289686274214117 -6.845471059286885 0
    endloop
  endfacet
  facet normal 0.7705132427757889 -0.6374239897486902 0
    outer loop
      vertex 7.289686274214117 -6.845471059286885 -3
      vertex 8.090169943749475 -5.877852522924732 -3
      vertex 7.289686274214117 -6.845471059286885 0
    endloop
  endfacet
  facet normal 0.8443279255020154 -0.535826794978996 0
    outer loop
      vertex 8.090169943749475 -5.877852522924732 -3
      vertex 8.763066800438635 -4.817536741017154 -3
      vertex 8.090169943749475 -5.877852522924732 0
    endloop
  endfacet
  facet normal 0 0 -1
    outer loop
      vertex 5.358267949789962 -8.443279255020153 -3
      vertex 6.3742398974868975 7.705132427757891 -3
      vertex 6.3742398974869 -7.70513242775789 -3
    endloop
  endfacet
  facet normal 0 0 -1
    outer loop
      vertex 6.3742398974869 -7.70513242775789 -3
      vertex 7.289686274214116 6.845471059286887 -3
      vertex 7.289686274214117 -6.845471059286885 -3
    endloop
  endfacet
  facet normal 0 0 -1
    outer loop
      vertex 7.289686274214117 -6.845471059286885 -3
      vertex 8.090169943749475 5.877852522924732 -3
      vertex 8.090169943749475 -5.877852522924732 -3
    endloop
  endfacet
  facet normal 0 0 -1
    outer loop
      vertex 8.090169943749475 -5.877852522924732 -3
      vertex 8.763066800438637 4.817536741017153 -3
      vertex 8.763066800438635 -4.817536741017154 -3
    endloop
  endfacet
  facet normal 0 0 -1
    outer loop
      vertex 8.763066800438635 -4.817536741017154 -3
      vertex 9.297764858882513 3.6812455268467796 -3
      vertex 9.297764858882513 -3.6812455268467836 -3
    endloop
  endfacet
  facet normal 0 0 -1
    outer loop
      vertex 9.297764858882513 -3.6812455268467836 -3
      vertex 9.68583161128631 2.486898871648548 -3
      vertex 9.685831611286313 -2.4868988716485445 -3
    endloop
  endfacet
  facet normal 0 0 -1
    outer loop
      vertex 9.685831611286313 -2.4868988716485445 -3
      vertex 9.921147013144779 1.2533323356430426 -3
      vertex 9.921147013144779 -1.2533323356430406 -3
    endloop
  endfacet
  facet normal 0.9048270524660191 -0.4257792915650733 0
    outer loop
      vertex 8.763066800438635 -4.817536741017154 -3
      vertex 9.297764858882513 -3.6812455268467836 -3
      vertex 8.763066800438635 -4.817536741017154 0
    endloop
  endfacet
  facet normal 0.9510565162951534 -0.3090169943749477 0
    outer loop
      vertex 9.297764858882513 -3.6812455268467836 -3
      vertex 9.685831611286313 -2.4868988716485445 -3
      vertex 9.297764858882513 -3.6812455268467836 0
    endloop
  endfacet
  facet normal 0.9822872507286887 -0.18738131458572432 0
    outer loop
      vertex 9.685831611286313 -2.4868988716485445 -3
      vertex 9.921147013144779 -1.2533323356430406 -3
      vertex 9.685831611286313 -2.4868988716485445 0
    endloop
  endfacet
  facet normal 0.9980267284282717 -0.06279051952931294 0
    outer loop
      vertex 9.921147013144779 -1.2533323356430406 -3
      vertex 10 0 -3
      vertex 9.921147013144779 -1.2533323356430406 0
    endloop
  endfacet
  facet normal 0.12533323356430498 -0.9921147013144778 0
    outer loop
      vertex 0.6279051952931376 -9.980267284282716 -3
      vertex 1.8738131458572482 -9.822872507286887 0
      vertex 0.6279051952931376 -9.980267284282716 0
    endloop
  endfacet
  facet normal 0.24868988716485582 -0.968583161128631 0
    outer loop
      vertex 1.8738131458572482 -9.822872507286887 -3
      vertex 3.090169943749474 -9.510565162951535 0
      vertex 1.8738131458572482 -9.822872507286887 0
    endloop
  endfacet
  facet normal 0.3681245526846768 -0.9297764858882519 0
    outer loop
      vertex 3.090169943749474 -9.510565162951535 -3
      vertex 4.257792915650724 -9.048270524660197 0
      vertex 3.090169943749474 -9.510565162951535 0
    endloop
  endfacet
  facet normal 0.4817536741017155 -0.8763066800438635 0
    outer loop
      vertex 4.257792915650724 -9.048270524660197 -3
      vertex 5.358267949789962 -8.443279255020153 0
      vertex 4.257792915650724 -9.048270524660197 0
    endloop
  endfacet
  facet normal 0 0 1
    outer loop
      vertex -0.6279051952931376 -9.980267284282716 0
      vertex 0.6279051952931376 -9.980267284282716 0
      vertex 0.28255733788191195 -4.491120277927222 0
    endloop
  endfacet
  facet normal 0 0 1
    outer loop
      vertex 0.6279051952931376 -9.980267284282716 0
      vertex 1.8738131458572482 -9.822872507286887 0
      vertex 0.28255733788191195 -4.491120277927222 0
    endloop
  endfacet
  facet normal 0 0 1
    outer loop
      vertex 1.8738131458572482 -9.822872507286887 0
      vertex 3.090169943749474 -9.510565162951535 0
      vertex 1.3905764746872633 -4.2797543233281905 0
    endloop
  endfacet
  facet normal 0 0 1
    outer loop
      vertex 1.8738131458572482 -9.822872507286887 0
      vertex 0.8432159156357617 -4.420292628279099 0
      vertex 0.28255733788191195 -4.491120277927222 0
    endloop
  endfacet
  facet normal 0 0 1
    outer loop
      vertex 1.8738131458572482 -9.822872507286887 0
      vertex 1.3905764746872633 -4.2797543233281905 0
      vertex 0.8432159156357617 -4.420292628279099 0
    endloop
  endfacet
  facet normal 0 0 1
    outer loop
      vertex 3.090169943749474 -9.510565162951535 0
      vertex 1.916006812042826 -4.071721736097088 0
      vertex 1.3905764746872633 -4.2797543233281905 0
    endloop
  endfacet
  facet normal 0 0 1
    outer loop
      vertex 3.090169943749474 -9.510565162951535 0
      vertex 2.411220577405483 -3.799475664759069 0
      vertex 1.916006812042826 -4.071721736097088 0
    endloop
  endfacet
  facet normal 0 0 1
    outer loop
      vertex 3.090169943749474 -9.510565162951535 0
      vertex 4.257792915650724 -9.048270524660197 0
      vertex 2.868407953869105 -3.4673095924910506 0
    endloop
  endfacet
  facet normal 0 0 1
    outer loop
      vertex 3.090169943749474 -9.510565162951535 0
      vertex 2.868407953869105 -3.4673095924910506 0
      vertex 2.411220577405483 -3.799475664759069 0
    endloop
  endfacet
  facet normal 0 0 1
    outer loop
      vertex 4.257792915650724 -9.048270524660197 0
      vertex 3.2803588233963525 -3.080461976679098 0
      vertex 2.868407953869105 -3.4673095924910506 0
    endloop
  endfacet
  facet normal 0 0 1
    outer loop
      vertex 4.257792915650724 -9.048270524660197 0
      vertex 5.358267949789962 -8.443279255020153 0
      vertex 4.183994186497131 -1.6565604870810526 0
    endloop
  endfacet
  facet normal 0 0 1
    outer loop
      vertex 4.257792915650724 -9.048270524660197 0
      vertex 3.6405764746872635 -2.6450336353161292 0
      vertex 3.2803588233963525 -3.080461976679098 0
    endloop
  endfacet
  facet normal 0 0 1
    outer loop
      vertex 4.257792915650724 -9.048270524660197 0
      vertex 3.9433800601973856 -2.1678915334577193 0
      vertex 3.6405764746872635 -2.6450336353161292 0
    endloop
  endfacet
  facet normal 0 0 1
    outer loop
      vertex 4.257792915650724 -9.048270524660197 0
      vertex 4.183994186497131 -1.6565604870810526 0
      vertex 3.9433800601973856 -2.1678915334577193 0
    endloop
  endfacet
  facet normal 0 0 1
    outer loop
      vertex 5.358267949789962 -8.443279255020153 0
      vertex 4.358624225078841 -1.119104492241845 0
      vertex 4.183994186497131 -1.6565604870810526 0
    endloop
  endfacet
  facet normal 0 0 1
    outer loop
      vertex 5.358267949789962 -8.443279255020153 0
      vertex 4.464516155915151 -0.5639995510393683 0
      vertex 4.358624225078841 -1.119104492241845 0
    endloop
  endfacet
  facet normal 0 0 1
    outer loop
      vertex 5.358267949789962 -8.443279255020153 0
      vertex 4.5 0 0
      vertex 4.464516155915151 -0.5639995510393683 0
    endloop
  endfacet
  facet normal 0 0 1
    outer loop
      vertex 5.358267949789962 -8.443279255020153 0
      vertex 4.464516155915151 0.5639995510393692 0
      vertex 4.5 0 0
    endloop
  endfacet
  facet normal 0.5877852522924726 -0.8090169943749479 0
    outer loop
      vertex 5.358267949789962 -8.443279255020153 -3
      vertex 6.3742398974869 -7.70513242775789 0
      vertex 5.358267949789962 -8.443279255020153 0
    endloop
  endfacet
  facet normal 0.6845471059286893 -0.728968627421411 0
    outer loop
      vertex 6.3742398974869 -7.70513242775789 -3
      vertex 7.289686274214117 -6.845471059286885 0
      vertex 6.3742398974869 -7.70513242775789 0
    endloop
  endfacet
  facet normal 0.7705132427757889 -0.6374239897486902 0
    outer loop
      vertex 8.090169943749475 -5.877852522924732 -3
      vertex 8.090169943749475 -5.877852522924732 0
      vertex 7.289686274214117 -6.845471059286885 0
    endloop
  endfacet
  facet normal 0.8443279255020154 -0.535826794978996 0
    outer loop
      vertex 8.763066800438635 -4.817536741017154 -3
      vertex 8.763066800438635 -4.817536741017154 0
      vertex 8.090169943749475 -5.877852522924732 0
    endloop
  endfacet
  facet normal 0.9048270524660191 -0.4257792915650733 0
    outer loop
      vertex 9.297764858882513 -3.6812455268467836 -3
      vertex 9.297764858882513 -3.6812455268467836 0
      vertex 8.763066800438635 -4.817536741017154 0
    endloop
  endfacet
  facet normal 0.9510565162951534 -0.3090169943749477 0
    outer loop
      vertex 9.685831611286313 -2.4868988716485445 -3
      vertex 9.685831611286313 -2.4868988716485445 0
      vertex 9.297764858882513 -3.6812455268467836 0
    endloop
  endfacet
  facet normal 0.9822872507286887 -0.18738131458572432 0
    outer loop
      vertex 9.921147013144779 -1.2533323356430406 -3
      vertex 9.921147013144779 -1.2533323356430406 0
      vertex 9.685831611286313 -2.4868988716485445 0
    endloop
  endfacet
  facet normal 0.9980267284282717 -0.06279051952931294 0
    outer loop
      vertex 9.921147013144779 -1.2533323356430406 0
      vertex 10 0 -3
      vertex 10 0 0
    endloop
  endfacet
  facet normal 0 0 1
    outer loop
      vertex 5.358267949789962 -8.443279255020153 0
      vertex 6.3742398974869 -7.70513242775789 0
      vertex 5.358267949789966 8.443279255020151 0
    endloop
  endfacet
  facet normal 0 0 1
    outer loop
      vertex 6.3742398974869 -7.70513242775789 0
      vertex 7.289686274214117 -6.845471059286885 0
      vertex 6.3742398974868975 7.705132427757891 0
    endloop
  endfacet
  facet normal 0 0 1
    outer loop
      vertex 7.289686274214117 -6.845471059286885 0
      vertex 8.090169943749475 -5.877852522924732 0
      vertex 7.289686274214116 6.845471059286887 0
    endloop
  endfacet
  facet normal 0 0 1
    outer loop
      vertex 8.090169943749475 -5.877852522924732 0
      vertex 8.763066800438635 -4.817536741017154 0
      vertex 8.090169943749475 5.877852522924732 0
    endloop
  endfacet
  facet normal 0 0 1
    outer loop
      vertex 8.763066800438635 -4.817536741017154 0
      vertex 9.297764858882513 -3.6812455268467836 0
      vertex 8.763066800438637 4.817536741017153 0
    endloop
  endfacet
  facet normal 0 0 1
    outer loop
      vertex 9.297764858882513 -3.6812455268467836 0
      vertex 9.685831611286313 -2.4868988716485445 0
      vertex 9.297764858882513 3.6812455268467796 0
    endloop
  endfacet
  facet normal 0 0 1
    outer loop
      vertex 9.685831611286313 -2.4868988716485445 0
      vertex 9.921147013144779 -1.2533323356430406 0
      vertex 9.68583161128631 2.486898871648548 0
    endloop
  endfacet
  facet normal 0 0 -1
    outer loop
      vertex 3.090169943749474 9.510565162951535 -3
      vertex 2.1738885853459955 2.0414172623230535 -3
      vertex 1.9008893980005568 2.2977805632778 -3
    endloop
  endfacet
  facet normal 0 0 -1
    outer loop
      vertex 3.090169943749474 9.510565162951535 -3
      vertex 1.9008893980005568 2.2977805632778 -3
      vertex 1.597912049312365 2.5179064921220813 -3
    endloop
  endfacet
  facet normal 0 0 -1
    outer loop
      vertex 3.090169943749474 -9.510565162951535 -3
      vertex 2.982142857142857 0 -3
      vertex 3.090169943749474 9.510565162951535 -3
    endloop
  endfacet
  facet normal 0 0 -1
    outer loop
      vertex 3.090169943749474 9.510565162951535 -3
      vertex 2.982142857142857 0 -3
      vertex 2.9586277699913897 0.37376160723640733 -3
    endloop
  endfacet
  facet normal 0 0 -1
    outer loop
      vertex 3.090169943749474 9.510565162951535 -3
      vertex 2.9586277699913897 0.37376160723640733 -3
      vertex 2.8884533555085965 0.7416287706523349 -3
    endloop
  endfacet
  facet normal 0 0 -1
    outer loop
      vertex 3.090169943749474 -9.510565162951535 -3
      vertex 3.090169943749474 9.510565162951535 -3
      vertex 4.257792915650727 9.048270524660195 -3
    endloop
  endfacet
  facet normal 0 0 -1
    outer loop
      vertex 3.090169943749474 9.510565162951535 -3
      vertex 2.6132717065593787 1.4366582781247583 -3
      vertex 2.4126042510824326 1.752859591657911 -3
    endloop
  endfacet
  facet normal 0 0 -1
    outer loop
      vertex 3.090169943749474 9.510565162951535 -3
      vertex 2.8884533555085965 0.7416287706523349 -3
      vertex 2.7727263061310348 1.0978000053275219 -3
    endloop
  endfacet
  facet normal 0 0 -1
    outer loop
      vertex 3.090169943749474 9.510565162951535 -3
      vertex 2.7727263061310348 1.0978000053275219 -3
      vertex 2.6132717065593787 1.4366582781247583 -3
    endloop
  endfacet
  facet normal 0 0 -1
    outer loop
      vertex 3.090169943749474 9.510565162951535 -3
      vertex 2.4126042510824326 1.752859591657911 -3
      vertex 2.1738885853459955 2.0414172623230535 -3
    endloop
  endfacet
  facet normal 0 0 -1
    outer loop
      vertex 4.257792915650724 -9.048270524660197 -3
      vertex 4.257792915650727 9.048270524660195 -3
      vertex 5.358267949789966 8.443279255020151 -3
    endloop
  endfacet
  facet normal 0 0 -1
    outer loop
      vertex 0.6279051952931327 9.980267284282716 -3
      vertex 0.5587978488538572 2.9293209084230534 -3
      vertex 0.1872502993106289 2.976258279420024 -3
    endloop
  endfacet
  facet normal 0 0 -1
    outer loop
      vertex 1.8738131458572458 9.822872507286887 -3
      vertex 0.9215328225110039 2.8361863968087615 -3
      vertex 0.5587978488538572 2.9293209084230534 -3
    endloop
  endfacet
  facet normal 0 0 -1
    outer loop
      vertex 1.8738131458572458 9.822872507286887 -3
      vertex 1.2697346730601275 2.698323531461165 -3
      vertex 0.9215328225110039 2.8361863968087615 -3
    endloop
  endfacet
  facet normal 0 0 -1
    outer loop
      vertex 1.8738131458572458 9.822872507286887 -3
      vertex 1.597912049312365 2.5179064921220813 -3
      vertex 1.2697346730601275 2.698323531461165 -3
    endloop
  endfacet
  facet normal 0 0 -1
    outer loop
      vertex 1.8738131458572458 9.822872507286887 -3
      vertex 3.090169943749474 9.510565162951535 -3
      vertex 1.597912049312365 2.5179064921220813 -3
    endloop
  endfacet
  facet normal 0 0 -1
    outer loop
      vertex -0.6279051952931327 9.980267284282716 -3
      vertex 0.6279051952931327 9.980267284282716 -3
      vertex 0.1872502993106289 2.976258279420024 -3
    endloop
  endfacet
  facet normal 0 0 -1
    outer loop
      vertex 0.6279051952931327 9.980267284282716 -3
      vertex 1.8738131458572458 9.822872507286887 -3
      vertex 0.5587978488538572 2.9293209084230534 -3
    endloop
  endfacet
  facet normal 0.12533323356430473 0.9921147013144778 0
    outer loop
      vertex 0.6279051952931327 9.980267284282716 -3
      vertex 0.6279051952931327 9.980267284282716 0
      vertex 1.8738131458572458 9.822872507286887 -3
    endloop
  endfacet
  facet normal 0.24868988716485532 0.968583161128631 0
    outer loop
      vertex 1.8738131458572458 9.822872507286887 -3
      vertex 1.8738131458572458 9.822872507286887 0
      vertex 3.090169943749474 9.510565162951535 -3
    endloop
  endfacet
  facet normal 0.3681245526846773 0.9297764858882517 0
    outer loop
      vertex 3.090169943749474 9.510565162951535 -3
      vertex 3.090169943749474 9.510565162951535 0
      vertex 4.257792915650727 9.048270524660195 -3
    endloop
  endfacet
  facet normal 0.48175367410171493 0.8763066800438638 0
    outer loop
      vertex 4.257792915650727 9.048270524660195 -3
      vertex 4.257792915650727 9.048270524660195 0
      vertex 5.358267949789966 8.443279255020151 -3
    endloop
  endfacet
  facet normal 0 0 -1
    outer loop
      vertex 6.3742398974869 -7.70513242775789 -3
      vertex 6.3742398974868975 7.705132427757891 -3
      vertex 7.289686274214116 6.845471059286887 -3
    endloop
  endfacet
  facet normal 0 0 -1
    outer loop
      vertex 5.358267949789962 -8.443279255020153 -3
      vertex 5.358267949789966 8.443279255020151 -3
      vertex 6.3742398974868975 7.705132427757891 -3
    endloop
  endfacet
  facet normal 0 0 -1
    outer loop
      vertex 7.289686274214117 -6.845471059286885 -3
      vertex 7.289686274214116 6.845471059286887 -3
      vertex 8.090169943749475 5.877852522924732 -3
    endloop
  endfacet
  facet normal 0 0 -1
    outer loop
      vertex 8.090169943749475 -5.877852522924732 -3
      vertex 8.090169943749475 5.877852522924732 -3
      vertex 8.763066800438637 4.817536741017153 -3
    endloop
  endfacet
  facet normal 0 0 -1
    outer loop
      vertex 8.763066800438635 -4.817536741017154 -3
      vertex 8.763066800438637 4.817536741017153 -3
      vertex 9.297764858882513 3.6812455268467796 -3
    endloop
  endfacet
  facet normal 0 0 -1
    outer loop
      vertex 9.921147013144779 -1.2533323356430406 -3
      vertex 9.921147013144779 1.2533323356430426 -3
      vertex 10 0 -3
    endloop
  endfacet
  facet normal 0 0 -1
    outer loop
      vertex 9.685831611286313 -2.4868988716485445 -3
      vertex 9.68583161128631 2.486898871648548 -3
      vertex 9.921147013144779 1.2533323356430426 -3
    endloop
  endfacet
  facet normal 0 0 -1
    outer loop
      vertex 9.297764858882513 -3.6812455268467836 -3
      vertex 9.297764858882513 3.6812455268467796 -3
      vertex 9.68583161128631 2.486898871648548 -3
    endloop
  endfacet
  facet normal 0.9980267284282716 0.06279051952931283 0
    outer loop
      vertex 10 0 -3
      vertex 9.921147013144779 1.2533323356430426 -3
      vertex 10 0 0
    endloop
  endfacet
  facet normal 0.9822872507286885 0.18738131458572546 0
    outer loop
      vertex 9.921147013144779 1.2533323356430426 -3
      vertex 9.68583161128631 2.486898871648548 -3
      vertex 9.921147013144779 1.2533323356430426 0
    endloop
  endfacet
  facet normal 0.9510565162951534 0.30901699437494823 0
    outer loop
      vertex 9.68583161128631 2.486898871648548 -3
      vertex 9.297764858882513 3.6812455268467796 -3
      vertex 9.68583161128631 2.486898871648548 0
    endloop
  endfacet
  facet normal 0.9048270524660202 0.42577929156507127 0
    outer loop
      vertex 9.297764858882513 3.6812455268467796 -3
      vertex 8.763066800438637 4.817536741017153 -3
      vertex 9.297764858882513 3.6812455268467796 0
    endloop
  endfacet
  facet normal 0.6845471059286878 0.7289686274214123 0
    outer loop
      vertex 7.289686274214116 6.845471059286887 -3
      vertex 6.3742398974868975 7.705132427757891 -3
      vertex 6.3742398974868975 7.705132427757891 0
    endloop
  endfacet
  facet normal 0.5877852522924738 0.8090169943749468 0
    outer loop
      vertex 5.358267949789966 8.443279255020151 -3
      vertex 5.358267949789966 8.443279255020151 0
      vertex 6.3742398974868975 7.705132427757891 -3
    endloop
  endfacet
  facet normal 0.7705132427757895 0.6374239897486895 0
    outer loop
      vertex 7.289686274214116 6.845471059286887 -3
      vertex 8.090169943749475 5.877852522924732 0
      vertex 8.090169943749475 5.877852522924732 -3
    endloop
  endfacet
  facet normal 0.844327925502015 0.5358267949789968 0
    outer loop
      vertex 8.763066800438637 4.817536741017153 -3
      vertex 8.090169943749475 5.877852522924732 -3
      vertex 8.763066800438637 4.817536741017153 0
    endloop
  endfacet
  facet normal 0 0 1
    outer loop
      vertex 5.358267949789962 -8.443279255020153 0
      vertex 4.257792915650727 9.048270524660195 0
      vertex 4.464516155915151 0.5639995510393692 0
    endloop
  endfacet
  facet normal 0 0 1
    outer loop
      vertex 4.257792915650727 9.048270524660195 0
      vertex 4.35862422507884 1.1191044922418465 0
      vertex 4.464516155915151 0.5639995510393692 0
    endloop
  endfacet
  facet normal 0 0 1
    outer loop
      vertex 5.358267949789962 -8.443279255020153 0
      vertex 5.358267949789966 8.443279255020151 0
      vertex 4.257792915650727 9.048270524660195 0
    endloop
  endfacet
  facet normal 0 0 1
    outer loop
      vertex 4.257792915650727 9.048270524660195 0
      vertex 4.183994186497131 1.6565604870810509 0
      vertex 4.35862422507884 1.1191044922418465 0
    endloop
  endfacet
  facet normal 0 0 1
    outer loop
      vertex 4.257792915650727 9.048270524660195 0
      vertex 3.943380060197386 2.167891533457719 0
      vertex 4.183994186497131 1.6565604870810509 0
    endloop
  endfacet
  facet normal 0 0 1
    outer loop
      vertex 4.257792915650727 9.048270524660195 0
      vertex 3.6405764746872635 2.6450336353161292 0
      vertex 3.943380060197386 2.167891533457719 0
    endloop
  endfacet
  facet normal 0 1 0
    outer loop
      vertex -0.6279051952931327 9.980267284282716 0
      vertex 0.6279051952931327 9.980267284282716 0
      vertex 0.6279051952931327 9.980267284282716 -3
    endloop
  endfacet
  facet normal 0.12533323356430473 0.9921147013144778 0
    outer loop
      vertex 1.8738131458572458 9.822872507286887 -3
      vertex 0.6279051952931327 9.980267284282716 0
      vertex 1.8738131458572458 9.822872507286887 0
    endloop
  endfacet
  facet normal 0.24868988716485532 0.968583161128631 0
    outer loop
      vertex 3.090169943749474 9.510565162951535 -3
      vertex 1.8738131458572458 9.822872507286887 0
      vertex 3.090169943749474 9.510565162951535 0
    endloop
  endfacet
  facet normal 0.48175367410171493 0.8763066800438638 0
    outer loop
      vertex 5.358267949789966 8.443279255020151 -3
      vertex 4.257792915650727 9.048270524660195 0
      vertex 5.358267949789966 8.443279255020151 0
    endloop
  endfacet
  facet normal 0.3681245526846773 0.9297764858882517 0
    outer loop
      vertex 4.257792915650727 9.048270524660195 -3
      vertex 3.090169943749474 9.510565162951535 0
      vertex 4.257792915650727 9.048270524660195 0
    endloop
  endfacet
  facet normal 0 0 1
    outer loop
      vertex 0.6279051952931327 9.980267284282716 0
      vertex 0.8432159156357606 4.420292628279099 0
      vertex 1.3905764746872633 4.2797543233281905 0
    endloop
  endfacet
  facet normal 0 0 1
    outer loop
      vertex 0.6279051952931327 9.980267284282716 0
      vertex -0.28255733788190834 4.491120277927222 0
      vertex 0.28255733788190973 4.491120277927222 0
    endloop
  endfacet
  facet normal 0 0 1
    outer loop
      vertex 0.6279051952931327 9.980267284282716 0
      vertex 0.28255733788190973 4.491120277927222 0
      vertex 0.8432159156357606 4.420292628279099 0
    endloop
  endfacet
  facet normal 0 0 1
    outer loop
      vertex 1.8738131458572458 9.822872507286887 0
      vertex 1.3905764746872633 4.2797543233281905 0
      vertex 1.9160068120428273 4.071721736097087 0
    endloop
  endfacet
  facet normal 0 0 1
    outer loop
      vertex 1.8738131458572458 9.822872507286887 0
      vertex 1.9160068120428273 4.071721736097087 0
      vertex 2.411220577405485 3.799475664759068 0
    endloop
  endfacet
  facet normal 0 0 1
    outer loop
      vertex 0.6279051952931327 9.980267284282716 0
      vertex 1.3905764746872633 4.2797543233281905 0
      vertex 1.8738131458572458 9.822872507286887 0
    endloop
  endfacet
  facet normal 0 0 1
    outer loop
      vertex 1.8738131458572458 9.822872507286887 0
      vertex 2.411220577405485 3.799475664759068 0
      vertex 3.090169943749474 9.510565162951535 0
    endloop
  endfacet
  facet normal 0 0 1
    outer loop
      vertex 3.090169943749474 9.510565162951535 0
      vertex 2.411220577405485 3.799475664759068 0
      vertex 2.868407953869104 3.467309592491051 0
    endloop
  endfacet
  facet normal 0 0 1
    outer loop
      vertex 3.090169943749474 9.510565162951535 0
      vertex 2.868407953869104 3.467309592491051 0
      vertex 3.280358823396352 3.080461976679099 0
    endloop
  endfacet
  facet normal 0 0 1
    outer loop
      vertex 3.090169943749474 9.510565162951535 0
      vertex 3.280358823396352 3.080461976679099 0
      vertex 3.6405764746872635 2.6450336353161292 0
    endloop
  endfacet
  facet normal 0 0 1
    outer loop
      vertex 3.090169943749474 9.510565162951535 0
      vertex 3.6405764746872635 2.6450336353161292 0
      vertex 4.257792915650727 9.048270524660195 0
    endloop
  endfacet
  facet normal 0.9980267284282716 0.06279051952931283 0
    outer loop
      vertex 9.921147013144779 1.2533323356430426 -3
      vertex 9.921147013144779 1.2533323356430426 0
      vertex 10 0 0
    endloop
  endfacet
  facet normal 0.9822872507286885 0.18738131458572546 0
    outer loop
      vertex 9.68583161128631 2.486898871648548 -3
      vertex 9.68583161128631 2.486898871648548 0
      vertex 9.921147013144779 1.2533323356430426 0
    endloop
  endfacet
  facet normal 0.9510565162951534 0.30901699437494823 0
    outer loop
      vertex 9.297764858882513 3.6812455268467796 -3
      vertex 9.297764858882513 3.6812455268467796 0
      vertex 9.68583161128631 2.486898871648548 0
    endloop
  endfacet
  facet normal 0.9048270524660202 0.42577929156507127 0
    outer loop
      vertex 8.763066800438637 4.817536741017153 -3
      vertex 8.763066800438637 4.817536741017153 0
      vertex 9.297764858882513 3.6812455268467796 0
    endloop
  endfacet
  facet normal 0 0 1
    outer loop
      vertex 6.3742398974869 -7.70513242775789 0
      vertex 6.3742398974868975 7.705132427757891 0
      vertex 5.358267949789966 8.443279255020151 0
    endloop
  endfacet
  facet normal 0 0 1
    outer loop
      vertex 7.289686274214117 -6.845471059286885 0
      vertex 7.289686274214116 6.845471059286887 0
      vertex 6.3742398974868975 7.705132427757891 0
    endloop
  endfacet
  facet normal 0 0 1
    outer loop
      vertex 8.090169943749475 -5.877852522924732 0
      vertex 8.090169943749475 5.877852522924732 0
      vertex 7.289686274214116 6.845471059286887 0
    endloop
  endfacet
  facet normal 0 0 1
    outer loop
      vertex 8.763066800438635 -4.817536741017154 0
      vertex 8.763066800438637 4.817536741017153 0
      vertex 8.090169943749475 5.877852522924732 0
    endloop
  endfacet
  facet normal 0 0 1
    outer loop
      vertex 9.921147013144779 -1.2533323356430406 0
      vertex 10 0 0
      vertex 9.921147013144779 1.2533323356430426 0
    endloop
  endfacet
  facet normal 0 0 1
    outer loop
      vertex 9.685831611286313 -2.4868988716485445 0
      vertex 9.68583161128631 2.486898871648548 0
      vertex 9.297764858882513 3.6812455268467796 0
    endloop
  endfacet
  facet normal 0 0 1
    outer loop
      vertex 9.921147013144779 -1.2533323356430406 0
      vertex 9.921147013144779 1.2533323356430426 0
      vertex 9.68583161128631 2.486898871648548 0
    endloop
  endfacet
  facet normal 0 0 1
    outer loop
      vertex 9.297764858882513 -3.6812455268467836 0
      vertex 9.297764858882513 3.6812455268467796 0
      vertex 8.763066800438637 4.817536741017153 0
    endloop
  endfacet
  facet normal 0.6845471059286878 0.7289686274214123 0
    outer loop
      vertex 7.289686274214116 6.845471059286887 -3
      vertex 6.3742398974868975 7.705132427757891 0
      vertex 7.289686274214116 6.845471059286887 0
    endloop
  endfacet
  facet normal 0.5877852522924738 0.8090169943749468 0
    outer loop
      vertex 6.3742398974868975 7.705132427757891 -3
      vertex 5.358267949789966 8.443279255020151 0
      vertex 6.3742398974868975 7.705132427757891 0
    endloop
  endfacet
  facet normal 0.844327925502015 0.5358267949789968 0
    outer loop
      vertex 8.090169943749475 5.877852522924732 -3
      vertex 8.090169943749475 5.877852522924732 0
      vertex 8.763066800438637 4.817536741017153 0
    endloop
  endfacet
  facet normal 0.7705132427757895 0.6374239897486895 0
    outer loop
      vertex 7.289686274214116 6.845471059286887 -3
      vertex 7.289686274214116 6.845471059286887 0
      vertex 8.090169943749475 5.877852522924732 0
    endloop
  endfacet
endsolid OpenSCAD_Model
