solid OpenSCAD_Model
  facet normal -0.8443279255020154 -0.535826794978996 0
    outer loop
      vertex -8.090169943749475 -5.877852522924732 -3
      vertex -8.763066800438635 -4.817536741017154 0
      vertex -8.763066800438635 -4.817536741017154 -3
    endloop
  endfacet
  facet normal -0.7705132427757889 -0.6374239897486902 0
    outer loop
      vertex -8.090169943749475 -5.877852522924732 -3
      vertex -7.289686274214117 -6.845471059286885 -3
      vertex -8.090169943749475 -5.877852522924732 0
    endloop
  endfacet
  facet normal -0.5877852522924722 -0.8090169943749481 0
    outer loop
      vertex -6.374239897486897 -7.705132427757894 -3
      vertex -5.358267949789967 -8.44327925502015 -3
      vertex -5.358267949789967 -8.44327925502015 0
    endloop
  endfacet
  facet normal -0.6845471059286894 -0.7289686274214109 0
    outer loop
      vertex -6.374239897486897 -7.705132427757894 -3
      vertex -6.374239897486897 -7.705132427757894 0
      vertex -7.289686274214117 -6.845471059286885 -3
    endloop
  endfacet
  facet normal 0 0 -1
    outer loop
      vertex -9.297764858882514 -3.6812455268467787 -3
      vertex -9.68583161128631 -2.4868988716485485 -3
      vertex -9.297764858882514 3.6812455268467787 -3
    endloop
  endfacet
  facet normal 0 0 -1
    outer loop
      vertex -9.68583161128631 -2.4868988716485485 -3
      vertex -9.921147013144779 -1.2533323356430406 -3
      vertex -9.68583161128631 2.4868988716485485 -3
    endloop
  endfacet
  facet normal 0 0 -1
    outer loop
      vertex -8.763066800438635 -4.817536741017154 -3
      vertex -9.297764858882514 -3.6812455268467787 -3
      vertex -8.763066800438635 4.817536741017154 -3
    endloop
  endfacet
  facet normal 0 0 -1
    outer loop
      vertex -8.090169943749475 -5.877852522924732 -3
      vertex -8.763066800438635 -4.817536741017154 -3
      vertex -8.090169943749475 5.877852522924732 -3
    endloop
  endfacet
  facet normal 0 0 -1
    outer loop
      vertex -8.090169943749475 -5.877852522924732 -3
      vertex -7.289686274214117 6.845471059286885 -3
      vertex -7.289686274214117 -6.845471059286885 -3
    endloop
  endfacet
  facet normal 0 0 -1
    outer loop
      vertex -6.374239897486897 -7.705132427757894 -3
      vertex -5.358267949789967 8.44327925502015 -3
      vertex -5.358267949789967 -8.44327925502015 -3
    endloop
  endfacet
  facet normal 0 0 -1
    outer loop
      vertex -6.374239897486897 -7.705132427757894 -3
      vertex -7.289686274214117 -6.845471059286885 -3
      vertex -6.374239897486897 7.705132427757894 -3
    endloop
  endfacet
  facet normal -0.9048270524660195 -0.42577929156507305 0
    outer loop
      vertex -8.763066800438635 -4.817536741017154 -3
      vertex -9.297764858882514 -3.6812455268467787 0
      vertex -9.297764858882514 -3.6812455268467787 -3
    endloop
  endfacet
  facet normal -0.9510565162951536 -0.30901699437494723 0
    outer loop
      vertex -9.297764858882514 -3.6812455268467787 -3
      vertex -9.68583161128631 -2.4868988716485485 0
      vertex -9.68583161128631 -2.4868988716485485 -3
    endloop
  endfacet
  facet normal -0.9822872507286885 -0.18738131458572513 0
    outer loop
      vertex -9.68583161128631 -2.4868988716485485 -3
      vertex -9.921147013144779 -1.2533323356430406 0
      vertex -9.921147013144779 -1.2533323356430406 -3
    endloop
  endfacet
  facet normal -0.9980267284282717 -0.06279051952931294 0
    outer loop
      vertex -9.921147013144779 -1.2533323356430406 -3
      vertex -10 0 0
      vertex -10 0 -3
    endloop
  endfacet
  facet normal 0 0 -1
    outer loop
      vertex -4.257792915650724 -9.048270524660197 -3
      vertex -3.029998866767051 -1.6657559731440081 -3
      vertex -3.090169943749474 -9.510565162951535 -3
    endloop
  endfacet
  facet normal 0 0 -1
    outer loop
      vertex -3.090169943749474 -9.510565162951535 -3
      vertex -1.4722137812192313 -3.12861353910366 -3
      vertex -1.8738131458572482 -9.822872507286887 -3
    endloop
  endfacet
  facet normal 0 0 -1
    outer loop
      vertex -1.8738131458572482 -9.822872507286887 -3
      vertex -0.2171102963725118 -3.4508693417577545 -3
      vertex -0.6279051952931376 -9.980267284282716 -3
    endloop
  endfacet
  facet normal 0 0 -1
    outer loop
      vertex -3.090169943749474 -9.510565162951535 -3
      vertex -2.2040160260925847 -2.6641977125209024 -3
      vertex -1.8527241872543003 -2.919426173178121 -3
    endloop
  endfacet
  facet normal 0 0 -1
    outer loop
      vertex -3.090169943749474 -9.510565162951535 -3
      vertex -1.8527241872543003 -2.919426173178121 -3
      vertex -1.4722137812192313 -3.12861353910366 -3
    endloop
  endfacet
  facet normal 0 0 -1
    outer loop
      vertex -1.8738131458572482 -9.822872507286887 -3
      vertex -1.4722137812192313 -3.12861353910366 -3
      vertex -1.0684856843964528 -3.2884608005743963 -3
    endloop
  endfacet
  facet normal 0 0 -1
    outer loop
      vertex -1.8738131458572482 -9.822872507286887 -3
      vertex -1.0684856843964528 -3.2884608005743963 -3
      vertex -0.6479069300483331 -3.396447070788812 -3
    endloop
  endfacet
  facet normal 0 0 -1
    outer loop
      vertex -1.8738131458572482 -9.822872507286887 -3
      vertex -0.6479069300483331 -3.396447070788812 -3
      vertex -0.2171102963725118 -3.4508693417577545 -3
    endloop
  endfacet
  facet normal 0 0 -1
    outer loop
      vertex -0.6279051952931376 -9.980267284282716 -3
      vertex -0.2171102963725118 -3.4508693417577545 -3
      vertex 0.2171102963725118 -3.4508693417577545 -3
    endloop
  endfacet
  facet normal -0.4817536741017159 -0.8763066800438633 0
    outer loop
      vertex -5.358267949789967 -8.44327925502015 -3
      vertex -4.257792915650724 -9.048270524660197 -3
      vertex -4.257792915650724 -9.048270524660197 0
    endloop
  endfacet
  facet normal -0.3681245526846768 -0.9297764858882519 0
    outer loop
      vertex -4.257792915650724 -9.048270524660197 -3
      vertex -3.090169943749474 -9.510565162951535 -3
      vertex -3.090169943749474 -9.510565162951535 0
    endloop
  endfacet
  facet normal -0.24868988716485582 -0.968583161128631 0
    outer loop
      vertex -3.090169943749474 -9.510565162951535 -3
      vertex -1.8738131458572482 -9.822872507286887 -3
      vertex -1.8738131458572482 -9.822872507286887 0
    endloop
  endfacet
  facet normal -0.12533323356430498 -0.9921147013144778 0
    outer loop
      vertex -1.8738131458572482 -9.822872507286887 -3
      vertex -0.6279051952931376 -9.980267284282716 -3
      vertex -0.6279051952931376 -9.980267284282716 0
    endloop
  endfacet
  facet normal 0 0 -1
    outer loop
      vertex -5.358267949789967 -8.44327925502015 -3
      vertex -4.257792915650727 9.048270524660195 -3
      vertex -4.257792915650724 -9.048270524660197 -3
    endloop
  endfacet
  facet normal 0 0 -1
    outer loop
      vertex -4.257792915650724 -9.048270524660197 -3
      vertex -3.2148810031289927 -1.2728614340904822 -3
      vertex -3.029998866767051 -1.6657559731440081 -3
    endloop
  endfacet
  facet normal 0 0 -1
    outer loop
      vertex -3.090169943749474 -9.510565162951535 -3
      vertex -3.029998866767051 -1.6657559731440081 -3
      vertex -2.797331838242607 -2.032380545426667 -3
    endloop
  endfacet
  facet normal 0 0 -1
    outer loop
      vertex -3.090169943749474 -9.510565162951535 -3
      vertex -2.520549215584035 -2.3669532624226575 -3
      vertex -2.2040160260925847 -2.6641977125209024 -3
    endloop
  endfacet
  facet normal 0 0 -1
    outer loop
      vertex -3.090169943749474 -9.510565162951535 -3
      vertex -2.797331838242607 -2.032380545426667 -3
      vertex -2.520549215584035 -2.3669532624226575 -3
    endloop
  endfacet
  facet normal 0 0 -1
    outer loop
      vertex -4.257792915650724 -9.048270524660197 -3
      vertex -3.3490625455947667 -0.8598931098507866 -3
      vertex -3.2148810031289927 -1.2728614340904822 -3
    endloop
  endfacet
  facet normal 0 0 -1
    outer loop
      vertex -4.257792915650724 -9.048270524660197 -3
      vertex -3.4304273710835216 -0.43336375759349754 -3
      vertex -3.3490625455947667 -0.8598931098507866 -3
    endloop
  endfacet
  facet normal 0 0 -1
    outer loop
      vertex -4.257792915650724 -9.048270524660197 -3
      vertex -3.457692307692308 0 -3
      vertex -3.4304273710835216 -0.43336375759349754 -3
    endloop
  endfacet
  facet normal 0 0 -1
    outer loop
      vertex -4.257792915650724 -9.048270524660197 -3
      vertex -3.4304273710835216 0.43336375759349754 -3
      vertex -3.457692307692308 0 -3
    endloop
  endfacet
  facet normal -0.7705132427757889 -0.6374239897486902 0
    outer loop
      vertex -7.289686274214117 -6.845471059286885 -3
      vertex -7.289686274214117 -6.845471059286885 0
      vertex -8.090169943749475 -5.877852522924732 0
    endloop
  endfacet
  facet normal -0.8443279255020154 -0.535826794978996 0
    outer loop
      vertex -8.090169943749475 -5.877852522924732 -3
      vertex -8.090169943749475 -5.877852522924732 0
      vertex -8.763066800438635 -4.817536741017154 0
    endloop
  endfacet
  facet normal -0.5877852522924722 -0.8090169943749481 0
    outer loop
      vertex -6.374239897486897 -7.705132427757894 -3
      vertex -5.358267949789967 -8.44327925502015 0
      vertex -6.374239897486897 -7.705132427757894 0
    endloop
  endfacet
  facet normal -0.6845471059286894 -0.7289686274214109 0
    outer loop
      vertex -7.289686274214117 -6.845471059286885 -3
      vertex -6.374239897486897 -7.705132427757894 0
      vertex -7.289686274214117 -6.845471059286885 0
    endloop
  endfacet
  facet normal -0.9048270524660195 -0.42577929156507305 0
    outer loop
      vertex -8.763066800438635 -4.817536741017154 -3
      vertex -8.763066800438635 -4.817536741017154 0
      vertex -9.297764858882514 -3.6812455268467787 0
    endloop
  endfacet
  facet normal -0.9510565162951536 -0.30901699437494723 0
    outer loop
      vertex -9.297764858882514 -3.6812455268467787 -3
      vertex -9.297764858882514 -3.6812455268467787 0
      vertex -9.68583161128631 -2.4868988716485485 0
    endloop
  endfacet
  facet normal -0.9822872507286885 -0.18738131458572513 0
    outer loop
      vertex -9.68583161128631 -2.4868988716485485 -3
      vertex -9.68583161128631 -2.4868988716485485 0
      vertex -9.921147013144779 -1.2533323356430406 0
    endloop
  endfacet
  facet normal -0.9980267284282717 -0.06279051952931294 0
    outer loop
      vertex -9.921147013144779 -1.2533323356430406 -3
      vertex -9.921147013144779 -1.2533323356430406 0
      vertex -10 0 0
    endloop
  endfacet
  facet normal 0 0 1
    outer loop
      vertex -8.763066800438635 -4.817536741017154 0
      vertex -9.297764858882514 3.6812455268467787 0
      vertex -9.297764858882514 -3.6812455268467787 0
    endloop
  endfacet
  facet normal 0 0 1
    outer loop
      vertex -9.68583161128631 -2.4868988716485485 0
      vertex -9.921147013144779 1.2533323356430406 0
      vertex -9.921147013144779 -1.2533323356430406 0
    endloop
  endfacet
  facet normal 0 0 1
    outer loop
      vertex -9.297764858882514 -3.6812455268467787 0
      vertex -9.68583161128631 2.4868988716485485 0
      vertex -9.68583161128631 -2.4868988716485485 0
    endloop
  endfacet
  facet normal 0 0 1
    outer loop
      vertex -8.090169943749475 -5.877852522924732 0
      vertex -8.763066800438635 4.817536741017154 0
      vertex -8.763066800438635 -4.817536741017154 0
    endloop
  endfacet
  facet normal 0 0 1
    outer loop
      vertex -8.090169943749475 -5.877852522924732 0
      vertex -7.289686274214117 -6.845471059286885 0
      vertex -8.090169943749475 5.877852522924732 0
    endloop
  endfacet
  facet normal 0 0 1
    outer loop
      vertex -6.374239897486897 -7.705132427757894 0
      vertex -7.289686274214117 6.845471059286885 0
      vertex -7.289686274214117 -6.845471059286885 0
    endloop
  endfacet
  facet normal 0 0 1
    outer loop
      vertex -5.358267949789967 -8.44327925502015 0
      vertex -4.732056072236863 -2.6014698401492633 0
      vertex -5.020793023796558 -1.9878725844972607 0
    endloop
  endfacet
  facet normal 0 0 1
    outer loop
      vertex -5.358267949789967 -8.44327925502015 0
      vertex -5.020793023796558 -1.9878725844972607 0
      vertex -5.230349070094608 -1.3429253906902163 0
    endloop
  endfacet
  facet normal 0 0 1
    outer loop
      vertex -6.374239897486897 -7.705132427757894 0
      vertex -5.358267949789967 -8.44327925502015 0
      vertex -6.374239897486897 7.705132427757894 0
    endloop
  endfacet
  facet normal 0 0 1
    outer loop
      vertex -5.358267949789967 -8.44327925502015 0
      vertex -5.230349070094608 -1.3429253906902163 0
      vertex -5.357419387098181 -0.676799461247242 0
    endloop
  endfacet
  facet normal 0 0 1
    outer loop
      vertex -5.358267949789967 -8.44327925502015 0
      vertex -5.357419387098181 -0.676799461247242 0
      vertex -5.4 0 0
    endloop
  endfacet
  facet normal 0 0 1
    outer loop
      vertex -5.358267949789967 -8.44327925502015 0
      vertex -5.4 0 0
      vertex -6.374239897486897 7.705132427757894 0
    endloop
  endfacet
  facet normal -0.3681245526846768 -0.9297764858882519 0
    outer loop
      vertex -4.257792915650724 -9.048270524660197 -3
      vertex -3.090169943749474 -9.510565162951535 0
      vertex -4.257792915650724 -9.048270524660197 0
    endloop
  endfacet
  facet normal -0.4817536741017159 -0.8763066800438633 0
    outer loop
      vertex -5.358267949789967 -8.44327925502015 -3
      vertex -4.257792915650724 -9.048270524660197 0
      vertex -5.358267949789967 -8.44327925502015 0
    endloop
  endfacet
  facet normal -0.24868988716485582 -0.968583161128631 0
    outer loop
      vertex -3.090169943749474 -9.510565162951535 -3
      vertex -1.8738131458572482 -9.822872507286887 0
      vertex -3.090169943749474 -9.510565162951535 0
    endloop
  endfacet
  facet normal -0.12533323356430498 -0.9921147013144778 0
    outer loop
      vertex -1.8738131458572482 -9.822872507286887 -3
      vertex -0.6279051952931376 -9.980267284282716 0
      vertex -1.8738131458572482 -9.822872507286887 0
    endloop
  endfacet
  facet normal 0 -1 0
    outer loop
      vertex -0.6279051952931376 -9.980267284282716 -3
      vertex 0.6279051952931376 -9.980267284282716 0
      vertex -0.6279051952931376 -9.980267284282716 0
    endloop
  endfacet
  facet normal 0 0 1
    outer loop
      vertex -4.257792915650724 -9.048270524660197 0
      vertex -3.090169943749474 -9.510565162951535 0
      vertex -3.4420895446429243 -4.160771510989263 0
    endloop
  endfacet
  facet normal 0 0 1
    outer loop
      vertex -5.358267949789967 -8.44327925502015 0
      vertex -4.257792915650724 -9.048270524660197 0
      vertex -4.732056072236863 -2.6014698401492633 0
    endloop
  endfacet
  facet normal 0 0 1
    outer loop
      vertex -4.257792915650724 -9.048270524660197 0
      vertex -3.4420895446429243 -4.160771510989263 0
      vertex -3.9364305880756234 -3.6965543720149183 0
    endloop
  endfacet
  facet normal 0 0 1
    outer loop
      vertex -4.257792915650724 -9.048270524660197 0
      vertex -3.9364305880756234 -3.6965543720149183 0
      vertex -4.368691769624717 -3.174040362379355 0
    endloop
  endfacet
  facet normal 0 0 1
    outer loop
      vertex -3.090169943749474 -9.510565162951535 0
      vertex -2.2992081744513913 -4.886066083316506 0
      vertex -2.8934646928865826 -4.559370797710881 0
    endloop
  endfacet
  facet normal 0 0 1
    outer loop
      vertex -3.090169943749474 -9.510565162951535 0
      vertex -2.8934646928865826 -4.559370797710881 0
      vertex -3.4420895446429243 -4.160771510989263 0
    endloop
  endfacet
  facet normal 0 0 1
    outer loop
      vertex -3.090169943749474 -9.510565162951535 0
      vertex -1.8738131458572482 -9.822872507286887 0
      vertex -2.2992081744513913 -4.886066083316506 0
    endloop
  endfacet
  facet normal 0 0 1
    outer loop
      vertex -1.8738131458572482 -9.822872507286887 0
      vertex -0.6279051952931376 -9.980267284282716 0
      vertex -1.0118590987629141 -5.304351153934919 0
    endloop
  endfacet
  facet normal 0 0 1
    outer loop
      vertex -1.8738131458572482 -9.822872507286887 0
      vertex -1.668691769624716 -5.135705187993829 0
      vertex -2.2992081744513913 -4.886066083316506 0
    endloop
  endfacet
  facet normal 0 0 1
    outer loop
      vertex -1.8738131458572482 -9.822872507286887 0
      vertex -1.0118590987629141 -5.304351153934919 0
      vertex -1.668691769624716 -5.135705187993829 0
    endloop
  endfacet
  facet normal 0 0 1
    outer loop
      vertex -0.6279051952931376 -9.980267284282716 0
      vertex -0.3390688054582943 -5.389344333512667 0
      vertex -1.0118590987629141 -5.304351153934919 0
    endloop
  endfacet
  facet normal 0 0 1
    outer loop
      vertex -0.6279051952931376 -9.980267284282716 0
      vertex 0.3390688054582943 -5.389344333512667 0
      vertex -0.3390688054582943 -5.389344333512667 0
    endloop
  endfacet
  facet normal 0 0 1
    outer loop
      vertex -4.257792915650724 -9.048270524660197 0
      vertex -4.368691769624717 -3.174040362379355 0
      vertex -4.732056072236863 -2.6014698401492633 0
    endloop
  endfacet
  facet normal 0 0 -1
    outer loop
      vertex -9.921147013144779 -1.2533323356430406 -3
      vertex -10 0 -3
      vertex -9.921147013144779 1.2533323356430406 -3
    endloop
  endfacet
  facet normal 0 0 -1
    outer loop
      vertex -9.921147013144779 -1.2533323356430406 -3
      vertex -9.921147013144779 1.2533323356430406 -3
      vertex -9.68583161128631 2.4868988716485485 -3
    endloop
  endfacet
  facet normal 0 0 -1
    outer loop
      vertex -9.68583161128631 -2.4868988716485485 -3
      vertex -9.68583161128631 2.4868988716485485 -3
      vertex -9.297764858882514 3.6812455268467787 -3
    endloop
  endfacet
  facet normal 0 0 -1
    outer loop
      vertex -9.297764858882514 -3.6812455268467787 -3
      vertex -9.297764858882514 3.6812455268467787 -3
      vertex -8.763066800438635 4.817536741017154 -3
    endloop
  endfacet
  facet normal 0 0 -1
    outer loop
      vertex -8.763066800438635 -4.817536741017154 -3
      vertex -8.763066800438635 4.817536741017154 -3
      vertex -8.090169943749475 5.877852522924732 -3
    endloop
  endfacet
  facet normal 0 0 -1
    outer loop
      vertex -8.090169943749475 -5.877852522924732 -3
      vertex -8.090169943749475 5.877852522924732 -3
      vertex -7.289686274214117 6.845471059286885 -3
    endloop
  endfacet
  facet normal 0 0 -1
    outer loop
      vertex -7.289686274214117 -6.845471059286885 -3
      vertex -7.289686274214117 6.845471059286885 -3
      vertex -6.374239897486897 7.705132427757894 -3
    endloop
  endfacet
  facet normal 0 0 -1
    outer loop
      vertex -6.374239897486897 -7.705132427757894 -3
      vertex -6.374239897486897 7.705132427757894 -3
      vertex -5.358267949789967 8.44327925502015 -3
    endloop
  endfacet
  facet normal -0.9980267284282717 0.06279051952931294 0
    outer loop
      vertex -10 0 -3
      vertex -9.921147013144779 1.2533323356430406 0
      vertex -9.921147013144779 1.2533323356430406 -3
    endloop
  endfacet
  facet normal -0.9822872507286885 0.18738131458572513 0
    outer loop
      vertex -9.921147013144779 1.2533323356430406 -3
      vertex -9.68583161128631 2.4868988716485485 0
      vertex -9.68583161128631 2.4868988716485485 -3
    endloop
  endfacet
  facet normal -0.9510565162951536 0.30901699437494723 0
    outer loop
      vertex -9.68583161128631 2.4868988716485485 -3
      vertex -9.297764858882514 3.6812455268467787 0
      vertex -9.297764858882514 3.6812455268467787 -3
    endloop
  endfacet
  facet normal -0.9048270524660195 0.42577929156507305 0
    outer loop
      vertex -9.297764858882514 3.6812455268467787 -3
      vertex -8.763066800438635 4.817536741017154 0
      vertex -8.763066800438635 4.817536741017154 -3
    endloop
  endfacet
  facet normal -0.8443279255020154 0.535826794978996 0
    outer loop
      vertex -8.763066800438635 4.817536741017154 -3
      vertex -8.090169943749475 5.877852522924732 0
      vertex -8.090169943749475 5.877852522924732 -3
    endloop
  endfacet
  facet normal -0.7705132427757889 0.6374239897486902 0
    outer loop
      vertex -8.090169943749475 5.877852522924732 -3
      vertex -7.289686274214117 6.845471059286885 0
      vertex -7.289686274214117 6.845471059286885 -3
    endloop
  endfacet
  facet normal -0.6845471059286894 0.7289686274214109 0
    outer loop
      vertex -7.289686274214117 6.845471059286885 -3
      vertex -7.289686274214117 6.845471059286885 0
      vertex -6.374239897486897 7.705132427757894 -3
    endloop
  endfacet
  facet normal -0.5877852522924722 0.8090169943749481 0
    outer loop
      vertex -6.374239897486897 7.705132427757894 -3
      vertex -6.374239897486897 7.705132427757894 0
      vertex -5.358267949789967 8.44327925502015 -3
    endloop
  endfacet
  facet normal 0 0 -1
    outer loop
      vertex -4.257792915650724 -9.048270524660197 -3
      vertex -3.090169943749474 9.510565162951535 -3
      vertex -3.4304273710835216 0.43336375759349754 -3
    endloop
  endfacet
  facet normal 0 0 -1
    outer loop
      vertex -5.358267949789967 -8.44327925502015 -3
      vertex -5.358267949789967 8.44327925502015 -3
      vertex -4.257792915650727 9.048270524660195 -3
    endloop
  endfacet
  facet normal 0 0 -1
    outer loop
      vertex -4.257792915650724 -9.048270524660197 -3
      vertex -4.257792915650727 9.048270524660195 -3
      vertex -3.090169943749474 9.510565162951535 -3
    endloop
  endfacet
  facet normal 0 0 -1
    outer loop
      vertex -3.090169943749474 9.510565162951535 -3
      vertex -3.3490625455947667 0.8598931098507866 -3
      vertex -3.4304273710835216 0.43336375759349754 -3
    endloop
  endfacet
  facet normal 0 0 -1
    outer loop
      vertex -3.090169943749474 9.510565162951535 -3
      vertex -3.2148810031289927 1.2728614340904822 -3
      vertex -3.3490625455947667 0.8598931098507866 -3
    endloop
  endfacet
  facet normal 0 0 -1
    outer loop
      vertex -3.090169943749474 9.510565162951535 -3
      vertex -3.029998866767051 1.6657559731440081 -3
      vertex -3.2148810031289927 1.2728614340904822 -3
    endloop
  endfacet
  facet normal 0 0 -1
    outer loop
      vertex -3.090169943749474 9.510565162951535 -3
      vertex -2.797331838242607 2.032380545426667 -3
      vertex -3.029998866767051 1.6657559731440081 -3
    endloop
  endfacet
  facet normal 0 0 -1
    outer loop
      vertex -3.090169943749474 9.510565162951535 -3
      vertex -2.520549215584035 2.3669532624226575 -3
      vertex -2.797331838242607 2.032380545426667 -3
    endloop
  endfacet
  facet normal 0 0 -1
    outer loop
      vertex -1.8738131458572458 9.822872507286887 -3
      vertex -2.2040160260925847 2.6641977125209024 -3
      vertex -2.520549215584035 2.3669532624226575 -3
    endloop
  endfacet
  facet normal 0 0 -1
    outer loop
      vertex -1.8738131458572458 9.822872507286887 -3
      vertex -1.8527241872543005 2.919426173178121 -3
      vertex -2.2040160260925847 2.6641977125209024 -3
    endloop
  endfacet
  facet normal 0 0 -1
    outer loop
      vertex -1.8738131458572458 9.822872507286887 -3
      vertex -1.4722137812192322 3.1286135391036596 -3
      vertex -1.8527241872543005 2.919426173178121 -3
    endloop
  endfacet
  facet normal 0 0 -1
    outer loop
      vertex -3.090169943749474 9.510565162951535 -3
      vertex -1.8738131458572458 9.822872507286887 -3
      vertex -2.520549215584035 2.3669532624226575 -3
    endloop
  endfacet
  facet normal 0 0 -1
    outer loop
      vertex -0.6279051952931327 9.980267284282716 -3
      vertex -1.0684856843964528 3.2884608005743963 -3
      vertex -1.4722137812192322 3.1286135391036596 -3
    endloop
  endfacet
  facet normal 0 0 -1
    outer loop
      vertex -0.6279051952931327 9.980267284282716 -3
      vertex -0.6479069300483323 3.3964470707888124 -3
      vertex -1.0684856843964528 3.2884608005743963 -3
    endloop
  endfacet
  facet normal 0 0 -1
    outer loop
      vertex -0.6279051952931327 9.980267284282716 -3
      vertex -0.21711029637251014 3.4508693417577545 -3
      vertex -0.6479069300483323 3.3964470707888124 -3
    endloop
  endfacet
  facet normal 0 0 -1
    outer loop
      vertex -1.8738131458572458 9.822872507286887 -3
      vertex -0.6279051952931327 9.980267284282716 -3
      vertex -1.4722137812192322 3.1286135391036596 -3
    endloop
  endfacet
  facet normal 0 0 -1
    outer loop
      vertex -0.6279051952931327 9.980267284282716 -3
      vertex 0.6279051952931327 9.980267284282716 -3
      vertex -0.21711029637251014 3.4508693417577545 -3
    endloop
  endfacet
  facet normal -0.48175367410171566 0.8763066800438633 0
    outer loop
      vertex -5.358267949789967 8.44327925502015 -3
      vertex -5.358267949789967 8.44327925502015 0
      vertex -4.257792915650727 9.048270524660195 -3
    endloop
  endfacet
  facet normal -0.3681245526846773 0.9297764858882517 0
    outer loop
      vertex -4.257792915650727 9.048270524660195 -3
      vertex -4.257792915650727 9.048270524660195 0
      vertex -3.090169943749474 9.510565162951535 -3
    endloop
  endfacet
  facet normal -0.24868988716485532 0.968583161128631 0
    outer loop
      vertex -3.090169943749474 9.510565162951535 -3
      vertex -3.090169943749474 9.510565162951535 0
      vertex -1.8738131458572458 9.822872507286887 -3
    endloop
  endfacet
  facet normal -0.12533323356430473 0.9921147013144778 0
    outer loop
      vertex -1.8738131458572458 9.822872507286887 -3
      vertex -1.8738131458572458 9.822872507286887 0
      vertex -0.6279051952931327 9.980267284282716 -3
    endloop
  endfacet
  facet normal 0 1 0
    outer loop
      vertex -0.6279051952931327 9.980267284282716 -3
      vertex -0.6279051952931327 9.980267284282716 0
      vertex 0.6279051952931327 9.980267284282716 -3
    endloop
  endfacet
  facet normal -0.9980267284282717 0.06279051952931294 0
    outer loop
      vertex -10 0 -3
      vertex -10 0 0
      vertex -9.921147013144779 1.2533323356430406 0
    endloop
  endfacet
  facet normal -0.9822872507286885 0.18738131458572513 0
    outer loop
      vertex -9.921147013144779 1.2533323356430406 -3
      vertex -9.921147013144779 1.2533323356430406 0
      vertex -9.68583161128631 2.4868988716485485 0
    endloop
  endfacet
  facet normal -0.9510565162951536 0.30901699437494723 0
    outer loop
      vertex -9.68583161128631 2.4868988716485485 -3
      vertex -9.68583161128631 2.4868988716485485 0
      vertex -9.297764858882514 3.6812455268467787 0
    endloop
  endfacet
  facet normal -0.9048270524660195 0.42577929156507305 0
    outer loop
      vertex -9.297764858882514 3.6812455268467787 -3
      vertex -9.297764858882514 3.6812455268467787 0
      vertex -8.763066800438635 4.817536741017154 0
    endloop
  endfacet
  facet normal 0 0 1
    outer loop
      vertex -9.921147013144779 -1.2533323356430406 0
      vertex -9.921147013144779 1.2533323356430406 0
      vertex -10 0 0
    endloop
  endfacet
  facet normal 0 0 1
    outer loop
      vertex -9.68583161128631 -2.4868988716485485 0
      vertex -9.68583161128631 2.4868988716485485 0
      vertex -9.921147013144779 1.2533323356430406 0
    endloop
  endfacet
  facet normal 0 0 1
    outer loop
      vertex -9.297764858882514 -3.6812455268467787 0
      vertex -9.297764858882514 3.6812455268467787 0
      vertex -9.68583161128631 2.4868988716485485 0
    endloop
  endfacet
  facet normal 0 0 1
    outer loop
      vertex -8.763066800438635 -4.817536741017154 0
      vertex -8.763066800438635 4.817536741017154 0
      vertex -9.297764858882514 3.6812455268467787 0
    endloop
  endfacet
  facet normal 0 0 1
    outer loop
      vertex -8.090169943749475 -5.877852522924732 0
      vertex -8.090169943749475 5.877852522924732 0
      vertex -8.763066800438635 4.817536741017154 0
    endloop
  endfacet
  facet normal 0 0 1
    outer loop
      vertex -7.289686274214117 -6.845471059286885 0
      vertex -7.289686274214117 6.845471059286885 0
      vertex -8.090169943749475 5.877852522924732 0
    endloop
  endfacet
  facet normal 0 0 1
    outer loop
      vertex -6.374239897486897 -7.705132427757894 0
      vertex -6.374239897486897 7.705132427757894 0
      vertex -7.289686274214117 6.845471059286885 0
    endloop
  endfacet
  facet normal 0 0 1
    outer loop
      vertex -6.374239897486897 7.705132427757894 0
      vertex -5.4 0 0
      vertex -5.357419387098181 0.676799461247242 0
    endloop
  endfacet
  facet normal 0 0 1
    outer loop
      vertex -5.358267949789967 8.44327925502015 0
      vertex -5.357419387098181 0.676799461247242 0
      vertex -5.230349070094608 1.3429253906902163 0
    endloop
  endfacet
  facet normal 0 0 1
    outer loop
      vertex -5.358267949789967 8.44327925502015 0
      vertex -5.230349070094608 1.3429253906902163 0
      vertex -5.020793023796558 1.9878725844972607 0
    endloop
  endfacet
  facet normal 0 0 1
    outer loop
      vertex -5.358267949789967 8.44327925502015 0
      vertex -5.020793023796558 1.9878725844972607 0
      vertex -4.732056072236863 2.6014698401492633 0
    endloop
  endfacet
  facet normal -0.8443279255020154 0.535826794978996 0
    outer loop
      vertex -8.763066800438635 4.817536741017154 -3
      vertex -8.763066800438635 4.817536741017154 0
      vertex -8.090169943749475 5.877852522924732 0
    endloop
  endfacet
  facet normal -0.7705132427757889 0.6374239897486902 0
    outer loop
      vertex -8.090169943749475 5.877852522924732 -3
      vertex -8.090169943749475 5.877852522924732 0
      vertex -7.289686274214117 6.845471059286885 0
    endloop
  endfacet
  facet normal -0.6845471059286894 0.7289686274214109 0
    outer loop
      vertex -6.374239897486897 7.705132427757894 -3
      vertex -7.289686274214117 6.845471059286885 0
      vertex -6.374239897486897 7.705132427757894 0
    endloop
  endfacet
  facet normal -0.5877852522924722 0.8090169943749481 0
    outer loop
      vertex -5.358267949789967 8.44327925502015 -3
      vertex -6.374239897486897 7.705132427757894 0
      vertex -5.358267949789967 8.44327925502015 0
    endloop
  endfacet
  facet normal 0 0 1
    outer loop
      vertex -6.374239897486897 7.705132427757894 0
      vertex -5.357419387098181 0.676799461247242 0
      vertex -5.358267949789967 8.44327925502015 0
    endloop
  endfacet
  facet normal 0 0 1
    outer loop
      vertex -5.358267949789967 8.44327925502015 0
      vertex -4.732056072236863 2.6014698401492633 0
      vertex -4.368691769624717 3.174040362379355 0
    endloop
  endfacet
  facet normal -0.48175367410171566 0.8763066800438633 0
    outer loop
      vertex -5.358267949789967 8.44327925502015 0
      vertex -4.257792915650727 9.048270524660195 0
      vertex -4.257792915650727 9.048270524660195 -3
    endloop
  endfacet
  facet normal -0.3681245526846773 0.9297764858882517 0
    outer loop
      vertex -3.090169943749474 9.510565162951535 -3
      vertex -4.257792915650727 9.048270524660195 0
      vertex -3.090169943749474 9.510565162951535 0
    endloop
  endfacet
  facet normal -0.24868988716485532 0.968583161128631 0
    outer loop
      vertex -1.8738131458572458 9.822872507286887 -3
      vertex -3.090169943749474 9.510565162951535 0
      vertex -1.8738131458572458 9.822872507286887 0
    endloop
  endfacet
  facet normal -0.12533323356430473 0.9921147013144778 0
    outer loop
      vertex -0.6279051952931327 9.980267284282716 -3
      vertex -1.8738131458572458 9.822872507286887 0
      vertex -0.6279051952931327 9.980267284282716 0
    endloop
  endfacet
  facet normal 0 0 1
    outer loop
      vertex -5.358267949789967 8.44327925502015 0
      vertex -4.368691769624717 3.174040362379355 0
      vertex -3.9364305880756234 3.6965543720149183 0
    endloop
  endfacet
  facet normal 0 0 1
    outer loop
      vertex -4.257792915650727 9.048270524660195 0
      vertex -3.9364305880756234 3.6965543720149183 0
      vertex -3.4420895446429243 4.160771510989263 0
    endloop
  endfacet
  facet normal 0 0 1
    outer loop
      vertex -5.358267949789967 8.44327925502015 0
      vertex -3.9364305880756234 3.6965543720149183 0
      vertex -4.257792915650727 9.048270524660195 0
    endloop
  endfacet
  facet normal 0 0 1
    outer loop
      vertex -4.257792915650727 9.048270524660195 0
      vertex -3.4420895446429243 4.160771510989263 0
      vertex -2.8934646928865826 4.559370797710881 0
    endloop
  endfacet
  facet normal 0 0 1
    outer loop
      vertex -3.090169943749474 9.510565162951535 0
      vertex -2.8934646928865826 4.559370797710881 0
      vertex -2.299208174451393 4.886066083316505 0
    endloop
  endfacet
  facet normal 0 0 1
    outer loop
      vertex -4.257792915650727 9.048270524660195 0
      vertex -2.8934646928865826 4.559370797710881 0
      vertex -3.090169943749474 9.510565162951535 0
    endloop
  endfacet
  facet normal 0 0 1
    outer loop
      vertex -3.090169943749474 9.510565162951535 0
      vertex -2.299208174451393 4.886066083316505 0
      vertex -1.668691769624716 5.135705187993829 0
    endloop
  endfacet
  facet normal 0 0 1
    outer loop
      vertex -1.8738131458572458 9.822872507286887 0
      vertex -1.668691769624716 5.135705187993829 0
      vertex -1.0118590987629128 5.3043511539349195 0
    endloop
  endfacet
  facet normal 0 0 1
    outer loop
      vertex -1.8738131458572458 9.822872507286887 0
      vertex -1.0118590987629128 5.3043511539349195 0
      vertex -0.33906880545829055 5.389344333512667 0
    endloop
  endfacet
  facet normal 0 0 1
    outer loop
      vertex -3.090169943749474 9.510565162951535 0
      vertex -1.668691769624716 5.135705187993829 0
      vertex -1.8738131458572458 9.822872507286887 0
    endloop
  endfacet
  facet normal 0 0 1
    outer loop
      vertex -1.8738131458572458 9.822872507286887 0
      vertex -0.33906880545829055 5.389344333512667 0
      vertex -0.6279051952931327 9.980267284282716 0
    endloop
  endfacet
  facet normal 0 0 1
    outer loop
      vertex -0.6279051952931327 9.980267284282716 0
      vertex -0.33906880545829055 5.389344333512667 0
      vertex 0.6279051952931327 9.980267284282716 0
    endloop
  endfacet
  facet normal 0 0 -1
    outer loop
      vertex -0.6279051952931376 -9.980267284282716 -3
      vertex 0.2171102963725118 -3.4508693417577545 -3
      vertex 0.6279051952931376 -9.980267284282716 -3
    endloop
  endfacet
  facet normal 0 0 -1
    outer loop
      vertex 0.6279051952931376 -9.980267284282716 -3
      vertex 1.472213781219231 -3.12861353910366 -3
      vertex 1.8738131458572482 -9.822872507286887 -3
    endloop
  endfacet
  facet normal 0 0 -1
    outer loop
      vertex 0.6279051952931376 -9.980267284282716 -3
      vertex 0.2171102963725118 -3.4508693417577545 -3
      vertex 0.6479069300483331 -3.396447070788812 -3
    endloop
  endfacet
  facet normal 0 0 -1
    outer loop
      vertex 0.6279051952931376 -9.980267284282716 -3
      vertex 0.6479069300483331 -3.396447070788812 -3
      vertex 1.0684856843964528 -3.2884608005743963 -3
    endloop
  endfacet
  facet normal 0 0 -1
    outer loop
      vertex 0.6279051952931376 -9.980267284282716 -3
      vertex 1.0684856843964528 -3.2884608005743963 -3
      vertex 1.472213781219231 -3.12861353910366 -3
    endloop
  endfacet
  facet normal 0 0 -1
    outer loop
      vertex 1.8738131458572482 -9.822872507286887 -3
      vertex 2.5205492155840354 -2.3669532624226575 -3
      vertex 3.090169943749474 -9.510565162951535 -3
    endloop
  endfacet
  facet normal 0 0 -1
    outer loop
      vertex 1.8738131458572482 -9.822872507286887 -3
      vertex 1.472213781219231 -3.12861353910366 -3
      vertex 1.8527241872542985 -2.919426173178122 -3
    endloop
  endfacet
  facet normal 0 0 -1
    outer loop
      vertex 1.8738131458572482 -9.822872507286887 -3
      vertex 1.8527241872542985 -2.919426173178122 -3
      vertex 2.2040160260925856 -2.6641977125209015 -3
    endloop
  endfacet
  facet normal 0 -1 0
    outer loop
      vertex -0.6279051952931376 -9.980267284282716 -3
      vertex 0.6279051952931376 -9.980267284282716 -3
      vertex 0.6279051952931376 -9.980267284282716 0
    endloop
  endfacet
  facet normal 0.12533323356430498 -0.9921147013144778 0
    outer loop
      vertex 0.6279051952931376 -9.980267284282716 -3
      vertex 1.8738131458572482 -9.822872507286887 -3
      vertex 1.8738131458572482 -9.822872507286887 0
    endloop
  endfacet
  facet normal 0.24868988716485582 -0.968583161128631 0
    outer loop
      vertex 1.8738131458572482 -9.822872507286887 -3
      vertex 3.090169943749474 -9.510565162951535 -3
      vertex 3.090169943749474 -9.510565162951535 0
    endloop
  endfacet
  facet normal 0.3681245526846768 -0.9297764858882519 0
    outer loop
      vertex 3.090169943749474 -9.510565162951535 -3
      vertex 4.257792915650724 -9.048270524660197 -3
      vertex 4.257792915650724 -9.048270524660197 0
    endloop
  endfacet
  facet normal 0.4817536741017155 -0.8763066800438635 0
    outer loop
      vertex 4.257792915650724 -9.048270524660197 -3
      vertex 5.358267949789962 -8.443279255020153 -3
      vertex 5.358267949789962 -8.443279255020153 0
    endloop
  endfacet
  facet normal 0 0 -1
    outer loop
      vertex 1.8738131458572482 -9.822872507286887 -3
      vertex 2.2040160260925856 -2.6641977125209015 -3
      vertex 2.5205492155840354 -2.3669532624226575 -3
    endloop
  endfacet
  facet normal 0 0 -1
    outer loop
      vertex 3.090169943749474 -9.510565162951535 -3
      vertex 2.5205492155840354 -2.3669532624226575 -3
      vertex 2.797331838242607 -2.032380545426667 -3
    endloop
  endfacet
  facet normal 0 0 -1
    outer loop
      vertex 3.090169943749474 -9.510565162951535 -3
      vertex 2.797331838242607 -2.032380545426667 -3
      vertex 3.029998866767051 -1.6657559731440081 -3
    endloop
  endfacet
  facet normal 0 0 -1
    outer loop
      vertex 3.090169943749474 -9.510565162951535 -3
      vertex 3.029998866767051 -1.6657559731440081 -3
      vertex 3.214881003128992 -1.272861434090484 -3
    endloop
  endfacet
  facet normal 0 0 -1
    outer loop
      vertex 3.090169943749474 -9.510565162951535 -3
      vertex 3.214881003128992 -1.272861434090484 -3
      vertex 3.3490625455947676 -0.8598931098507852 -3
    endloop
  endfacet
  facet normal 0 0 -1
    outer loop
      vertex 3.090169943749474 -9.510565162951535 -3
      vertex 3.3490625455947676 -0.8598931098507852 -3
      vertex 3.430427371083522 -0.43336375759349754 -3
    endloop
  endfacet
  facet normal 0 0 -1
    outer loop
      vertex 3.090169943749474 -9.510565162951535 -3
      vertex 4.257792915650727 9.048270524660195 -3
      vertex 4.257792915650724 -9.048270524660197 -3
    endloop
  endfacet
  facet normal 0 0 -1
    outer loop
      vertex 4.257792915650724 -9.048270524660197 -3
      vertex 5.358267949789966 8.443279255020151 -3
      vertex 5.358267949789962 -8.443279255020153 -3
    endloop
  endfacet
  facet normal 0 0 -1
    outer loop
      vertex 3.090169943749474 -9.510565162951535 -3
      vertex 3.430427371083522 -0.43336375759349754 -3
      vertex 4.257792915650727 9.048270524660195 -3
    endloop
  endfacet
  facet normal 0.5877852522924726 -0.8090169943749479 0
    outer loop
      vertex 5.358267949789962 -8.443279255020153 -3
      vertex 6.3742398974869 -7.70513242775789 -3
      vertex 6.3742398974869 -7.70513242775789 0
    endloop
  endfacet
  facet normal 0.6845471059286893 -0.728968627421411 0
    outer loop
      vertex 6.3742398974869 -7.70513242775789 -3
      vertex 7.289686274214117 -6.845471059286885 -3
      vertex 7.289686274214117 -6.845471059286885 0
    endloop
  endfacet
  facet normal 0.7705132427757889 -0.6374239897486902 0
    outer loop
      vertex 7.289686274214117 -6.845471059286885 -3
      vertex 8.090169943749475 -5.877852522924732 -3
      vertex 7.289686274214117 -6.845471059286885 0
    endloop
  endfacet
  facet normal 0.8443279255020154 -0.535826794978996 0
    outer loop
      vertex 8.090169943749475 -5.877852522924732 -3
      vertex 8.763066800438635 -4.817536741017154 -3
      vertex 8.090169943749475 -5.877852522924732 0
    endloop
  endfacet
  facet normal 0 0 -1
    outer loop
      vertex 5.358267949789962 -8.443279255020153 -3
      vertex 6.3742398974868975 7.705132427757891 -3
      vertex 6.3742398974869 -7.70513242775789 -3
    endloop
  endfacet
  facet normal 0 0 -1
    outer loop
      vertex 6.3742398974869 -7.70513242775789 -3
      vertex 7.289686274214116 6.845471059286887 -3
      vertex 7.289686274214117 -6.845471059286885 -3
    endloop
  endfacet
  facet normal 0 0 -1
    outer loop
      vertex 7.289686274214117 -6.845471059286885 -3
      vertex 8.090169943749475 5.877852522924732 -3
      vertex 8.090169943749475 -5.877852522924732 -3
    endloop
  endfacet
  facet normal 0 0 -1
    outer loop
      vertex 8.090169943749475 -5.877852522924732 -3
      vertex 8.763066800438637 4.817536741017153 -3
      vertex 8.763066800438635 -4.817536741017154 -3
    endloop
  endfacet
  facet normal 0 0 -1
    outer loop
      vertex 8.763066800438635 -4.817536741017154 -3
      vertex 9.297764858882513 3.6812455268467796 -3
      vertex 9.297764858882513 -3.6812455268467836 -3
    endloop
  endfacet
  facet normal 0 0 -1
    outer loop
      vertex 9.297764858882513 -3.6812455268467836 -3
      vertex 9.68583161128631 2.486898871648548 -3
      vertex 9.685831611286313 -2.4868988716485445 -3
    endloop
  endfacet
  facet normal 0 0 -1
    outer loop
      vertex 9.685831611286313 -2.4868988716485445 -3
      vertex 9.921147013144779 1.2533323356430426 -3
      vertex 9.921147013144779 -1.2533323356430406 -3
    endloop
  endfacet
  facet normal 0.9048270524660191 -0.4257792915650733 0
    outer loop
      vertex 8.763066800438635 -4.817536741017154 -3
      vertex 9.297764858882513 -3.6812455268467836 -3
      vertex 8.763066800438635 -4.817536741017154 0
    endloop
  endfacet
  facet normal 0.9510565162951534 -0.3090169943749477 0
    outer loop
      vertex 9.297764858882513 -3.6812455268467836 -3
      vertex 9.685831611286313 -2.4868988716485445 -3
      vertex 9.297764858882513 -3.6812455268467836 0
    endloop
  endfacet
  facet normal 0.9822872507286887 -0.18738131458572432 0
    outer loop
      vertex 9.685831611286313 -2.4868988716485445 -3
      vertex 9.921147013144779 -1.2533323356430406 -3
      vertex 9.685831611286313 -2.4868988716485445 0
    endloop
  endfacet
  facet normal 0.9980267284282717 -0.06279051952931294 0
    outer loop
      vertex 9.921147013144779 -1.2533323356430406 -3
      vertex 10 0 -3
      vertex 9.921147013144779 -1.2533323356430406 0
    endloop
  endfacet
  facet normal 0.12533323356430498 -0.9921147013144778 0
    outer loop
      vertex 0.6279051952931376 -9.980267284282716 -3
      vertex 1.8738131458572482 -9.822872507286887 0
      vertex 0.6279051952931376 -9.980267284282716 0
    endloop
  endfacet
  facet normal 0.24868988716485582 -0.968583161128631 0
    outer loop
      vertex 1.8738131458572482 -9.822872507286887 -3
      vertex 3.090169943749474 -9.510565162951535 0
      vertex 1.8738131458572482 -9.822872507286887 0
    endloop
  endfacet
  facet normal 0.3681245526846768 -0.9297764858882519 0
    outer loop
      vertex 3.090169943749474 -9.510565162951535 -3
      vertex 4.257792915650724 -9.048270524660197 0
      vertex 3.090169943749474 -9.510565162951535 0
    endloop
  endfacet
  facet normal 0.4817536741017155 -0.8763066800438635 0
    outer loop
      vertex 4.257792915650724 -9.048270524660197 -3
      vertex 5.358267949789962 -8.443279255020153 0
      vertex 4.257792915650724 -9.048270524660197 0
    endloop
  endfacet
  facet normal 0 0 1
    outer loop
      vertex -0.6279051952931376 -9.980267284282716 0
      vertex 0.6279051952931376 -9.980267284282716 0
      vertex 0.3390688054582943 -5.389344333512667 0
    endloop
  endfacet
  facet normal 0 0 1
    outer loop
      vertex 0.6279051952931376 -9.980267284282716 0
      vertex 1.8738131458572482 -9.822872507286887 0
      vertex 0.3390688054582943 -5.389344333512667 0
    endloop
  endfacet
  facet normal 0 0 1
    outer loop
      vertex 1.8738131458572482 -9.822872507286887 0
      vertex 3.090169943749474 -9.510565162951535 0
      vertex 1.668691769624716 -5.135705187993829 0
    endloop
  endfacet
  facet normal 0 0 1
    outer loop
      vertex 1.8738131458572482 -9.822872507286887 0
      vertex 1.0118590987629141 -5.304351153934919 0
      vertex 0.3390688054582943 -5.389344333512667 0
    endloop
  endfacet
  facet normal 0 0 1
    outer loop
      vertex 1.8738131458572482 -9.822872507286887 0
      vertex 1.668691769624716 -5.135705187993829 0
      vertex 1.0118590987629141 -5.304351153934919 0
    endloop
  endfacet
  facet normal 0 0 1
    outer loop
      vertex 3.090169943749474 -9.510565162951535 0
      vertex 2.2992081744513913 -4.886066083316506 0
      vertex 1.668691769624716 -5.135705187993829 0
    endloop
  endfacet
  facet normal 0 0 1
    outer loop
      vertex 3.090169943749474 -9.510565162951535 0
      vertex 4.257792915650724 -9.048270524660197 0
      vertex 2.89346469288658 -4.559370797710883 0
    endloop
  endfacet
  facet normal 0 0 1
    outer loop
      vertex 3.090169943749474 -9.510565162951535 0
      vertex 2.89346469288658 -4.559370797710883 0
      vertex 2.2992081744513913 -4.886066083316506 0
    endloop
  endfacet
  facet normal 0 0 1
    outer loop
      vertex 4.257792915650724 -9.048270524660197 0
      vertex 3.442089544642926 -4.160771510989261 0
      vertex 2.89346469288658 -4.559370797710883 0
    endloop
  endfacet
  facet normal 0 0 1
    outer loop
      vertex 4.257792915650724 -9.048270524660197 0
      vertex 5.358267949789962 -8.443279255020153 0
      vertex 3.9364305880756234 -3.6965543720149183 0
    endloop
  endfacet
  facet normal 0 0 1
    outer loop
      vertex 4.257792915650724 -9.048270524660197 0
      vertex 3.9364305880756234 -3.6965543720149183 0
      vertex 3.442089544642926 -4.160771510989261 0
    endloop
  endfacet
  facet normal 0 0 1
    outer loop
      vertex 5.358267949789962 -8.443279255020153 0
      vertex 4.368691769624717 -3.174040362379355 0
      vertex 3.9364305880756234 -3.6965543720149183 0
    endloop
  endfacet
  facet normal 0 0 1
    outer loop
      vertex 5.358267949789962 -8.443279255020153 0
      vertex 4.732056072236863 -2.6014698401492633 0
      vertex 4.368691769624717 -3.174040362379355 0
    endloop
  endfacet
  facet normal 0.5877852522924726 -0.8090169943749479 0
    outer loop
      vertex 5.358267949789962 -8.443279255020153 -3
      vertex 6.3742398974869 -7.70513242775789 0
      vertex 5.358267949789962 -8.443279255020153 0
    endloop
  endfacet
  facet normal 0.6845471059286893 -0.728968627421411 0
    outer loop
      vertex 6.3742398974869 -7.70513242775789 -3
      vertex 7.289686274214117 -6.845471059286885 0
      vertex 6.3742398974869 -7.70513242775789 0
    endloop
  endfacet
  facet normal 0.7705132427757889 -0.6374239897486902 0
    outer loop
      vertex 8.090169943749475 -5.877852522924732 -3
      vertex 8.090169943749475 -5.877852522924732 0
      vertex 7.289686274214117 -6.845471059286885 0
    endloop
  endfacet
  facet normal 0.8443279255020154 -0.535826794978996 0
    outer loop
      vertex 8.090169943749475 -5.877852522924732 0
      vertex 8.763066800438635 -4.817536741017154 -3
      vertex 8.763066800438635 -4.817536741017154 0
    endloop
  endfacet
  facet normal 0 0 1
    outer loop
      vertex 5.358267949789962 -8.443279255020153 0
      vertex 6.3742398974869 -7.70513242775789 0
      vertex 5.357419387098181 -0.676799461247242 0
    endloop
  endfacet
  facet normal 0.9048270524660191 -0.4257792915650733 0
    outer loop
      vertex 9.297764858882513 -3.6812455268467836 -3
      vertex 9.297764858882513 -3.6812455268467836 0
      vertex 8.763066800438635 -4.817536741017154 0
    endloop
  endfacet
  facet normal 0.9510565162951534 -0.3090169943749477 0
    outer loop
      vertex 9.685831611286313 -2.4868988716485445 -3
      vertex 9.685831611286313 -2.4868988716485445 0
      vertex 9.297764858882513 -3.6812455268467836 0
    endloop
  endfacet
  facet normal 0.9822872507286887 -0.18738131458572432 0
    outer loop
      vertex 9.921147013144779 -1.2533323356430406 -3
      vertex 9.921147013144779 -1.2533323356430406 0
      vertex 9.685831611286313 -2.4868988716485445 0
    endloop
  endfacet
  facet normal 0.9980267284282717 -0.06279051952931294 0
    outer loop
      vertex 9.921147013144779 -1.2533323356430406 0
      vertex 10 0 -3
      vertex 10 0 0
    endloop
  endfacet
  facet normal 0 0 1
    outer loop
      vertex 5.358267949789962 -8.443279255020153 0
      vertex 5.020793023796557 -1.9878725844972633 0
      vertex 4.732056072236863 -2.6014698401492633 0
    endloop
  endfacet
  facet normal 0 0 1
    outer loop
      vertex 5.358267949789962 -8.443279255020153 0
      vertex 5.230349070094609 -1.342925390690214 0
      vertex 5.020793023796557 -1.9878725844972633 0
    endloop
  endfacet
  facet normal 0 0 1
    outer loop
      vertex 5.358267949789962 -8.443279255020153 0
      vertex 5.357419387098181 -0.676799461247242 0
      vertex 5.230349070094609 -1.342925390690214 0
    endloop
  endfacet
  facet normal 0 0 1
    outer loop
      vertex 6.3742398974869 -7.70513242775789 0
      vertex 5.4 0 0
      vertex 5.357419387098181 -0.676799461247242 0
    endloop
  endfacet
  facet normal 0 0 1
    outer loop
      vertex 6.3742398974869 -7.70513242775789 0
      vertex 7.289686274214117 -6.845471059286885 0
      vertex 6.3742398974868975 7.705132427757891 0
    endloop
  endfacet
  facet normal 0 0 1
    outer loop
      vertex 7.289686274214117 -6.845471059286885 0
      vertex 8.090169943749475 -5.877852522924732 0
      vertex 7.289686274214116 6.845471059286887 0
    endloop
  endfacet
  facet normal 0 0 1
    outer loop
      vertex 8.090169943749475 -5.877852522924732 0
      vertex 8.763066800438635 -4.817536741017154 0
      vertex 8.090169943749475 5.877852522924732 0
    endloop
  endfacet
  facet normal 0 0 1
    outer loop
      vertex 8.763066800438635 -4.817536741017154 0
      vertex 9.297764858882513 -3.6812455268467836 0
      vertex 8.763066800438637 4.817536741017153 0
    endloop
  endfacet
  facet normal 0 0 1
    outer loop
      vertex 9.297764858882513 -3.6812455268467836 0
      vertex 9.685831611286313 -2.4868988716485445 0
      vertex 9.297764858882513 3.6812455268467796 0
    endloop
  endfacet
  facet normal 0 0 1
    outer loop
      vertex 9.685831611286313 -2.4868988716485445 0
      vertex 9.921147013144779 -1.2533323356430406 0
      vertex 9.68583161128631 2.486898871648548 0
    endloop
  endfacet
  facet normal 0 0 -1
    outer loop
      vertex 4.257792915650727 9.048270524660195 -3
      vertex 3.430427371083522 -0.43336375759349754 -3
      vertex 3.457692307692308 0 -3
    endloop
  endfacet
  facet normal 0 0 -1
    outer loop
      vertex 4.257792915650727 9.048270524660195 -3
      vertex 3.457692307692308 0 -3
      vertex 3.4304273710835216 0.4333637575934982 -3
    endloop
  endfacet
  facet normal 0 0 -1
    outer loop
      vertex 4.257792915650727 9.048270524660195 -3
      vertex 3.4304273710835216 0.4333637575934982 -3
      vertex 3.3490625455947667 0.8598931098507864 -3
    endloop
  endfacet
  facet normal 0 0 -1
    outer loop
      vertex 4.257792915650727 9.048270524660195 -3
      vertex 3.3490625455947667 0.8598931098507864 -3
      vertex 3.2148810031289923 1.2728614340904827 -3
    endloop
  endfacet
  facet normal 0 0 -1
    outer loop
      vertex 3.090169943749474 9.510565162951535 -3
      vertex 2.797331838242607 2.032380545426667 -3
      vertex 2.5205492155840346 2.3669532624226584 -3
    endloop
  endfacet
  facet normal 0 0 -1
    outer loop
      vertex 3.090169943749474 9.510565162951535 -3
      vertex 2.5205492155840346 2.3669532624226584 -3
      vertex 2.2040160260925847 2.6641977125209015 -3
    endloop
  endfacet
  facet normal 0 0 -1
    outer loop
      vertex 3.090169943749474 9.510565162951535 -3
      vertex 3.0299988667670514 1.665755973144008 -3
      vertex 2.797331838242607 2.032380545426667 -3
    endloop
  endfacet
  facet normal 0 0 -1
    outer loop
      vertex 4.257792915650727 9.048270524660195 -3
      vertex 3.2148810031289923 1.2728614340904827 -3
      vertex 3.0299988667670514 1.665755973144008 -3
    endloop
  endfacet
  facet normal 0 0 -1
    outer loop
      vertex 4.257792915650724 -9.048270524660197 -3
      vertex 4.257792915650727 9.048270524660195 -3
      vertex 5.358267949789966 8.443279255020151 -3
    endloop
  endfacet
  facet normal 0 0 -1
    outer loop
      vertex 0.6279051952931327 9.980267284282716 -3
      vertex 0.21711029637250856 3.4508693417577545 -3
      vertex -0.21711029637251014 3.4508693417577545 -3
    endloop
  endfacet
  facet normal 0 0 -1
    outer loop
      vertex 1.8738131458572458 9.822872507286887 -3
      vertex 0.6479069300483323 3.3964470707888124 -3
      vertex 0.21711029637250856 3.4508693417577545 -3
    endloop
  endfacet
  facet normal 0 0 -1
    outer loop
      vertex 1.8738131458572458 9.822872507286887 -3
      vertex 1.0684856843964528 3.2884608005743963 -3
      vertex 0.6479069300483323 3.3964470707888124 -3
    endloop
  endfacet
  facet normal 0 0 -1
    outer loop
      vertex 1.8738131458572458 9.822872507286887 -3
      vertex 1.4722137812192324 3.1286135391036596 -3
      vertex 1.0684856843964528 3.2884608005743963 -3
    endloop
  endfacet
  facet normal 0 0 -1
    outer loop
      vertex 3.090169943749474 9.510565162951535 -3
      vertex 1.8527241872543 2.9194261731781213 -3
      vertex 1.4722137812192324 3.1286135391036596 -3
    endloop
  endfacet
  facet normal 0 0 -1
    outer loop
      vertex 3.090169943749474 9.510565162951535 -3
      vertex 2.2040160260925847 2.6641977125209015 -3
      vertex 1.8527241872543 2.9194261731781213 -3
    endloop
  endfacet
  facet normal 0 0 -1
    outer loop
      vertex 0.6279051952931327 9.980267284282716 -3
      vertex 1.8738131458572458 9.822872507286887 -3
      vertex 0.21711029637250856 3.4508693417577545 -3
    endloop
  endfacet
  facet normal 0 0 -1
    outer loop
      vertex 1.8738131458572458 9.822872507286887 -3
      vertex 3.090169943749474 9.510565162951535 -3
      vertex 1.4722137812192324 3.1286135391036596 -3
    endloop
  endfacet
  facet normal 0 0 -1
    outer loop
      vertex 3.090169943749474 9.510565162951535 -3
      vertex 4.257792915650727 9.048270524660195 -3
      vertex 3.0299988667670514 1.665755973144008 -3
    endloop
  endfacet
  facet normal 0.12533323356430473 0.9921147013144778 0
    outer loop
      vertex 0.6279051952931327 9.980267284282716 -3
      vertex 0.6279051952931327 9.980267284282716 0
      vertex 1.8738131458572458 9.822872507286887 -3
    endloop
  endfacet
  facet normal 0.24868988716485532 0.968583161128631 0
    outer loop
      vertex 1.8738131458572458 9.822872507286887 -3
      vertex 1.8738131458572458 9.822872507286887 0
      vertex 3.090169943749474 9.510565162951535 -3
    endloop
  endfacet
  facet normal 0.3681245526846773 0.9297764858882517 0
    outer loop
      vertex 3.090169943749474 9.510565162951535 -3
      vertex 3.090169943749474 9.510565162951535 0
      vertex 4.257792915650727 9.048270524660195 -3
    endloop
  endfacet
  facet normal 0.48175367410171493 0.8763066800438638 0
    outer loop
      vertex 4.257792915650727 9.048270524660195 -3
      vertex 4.257792915650727 9.048270524660195 0
      vertex 5.358267949789966 8.443279255020151 -3
    endloop
  endfacet
  facet normal 0 0 -1
    outer loop
      vertex 6.3742398974869 -7.70513242775789 -3
      vertex 6.3742398974868975 7.705132427757891 -3
      vertex 7.289686274214116 6.845471059286887 -3
    endloop
  endfacet
  facet normal 0 0 -1
    outer loop
      vertex 5.358267949789962 -8.443279255020153 -3
      vertex 5.358267949789966 8.443279255020151 -3
      vertex 6.3742398974868975 7.705132427757891 -3
    endloop
  endfacet
  facet normal 0 0 -1
    outer loop
      vertex 7.289686274214117 -6.845471059286885 -3
      vertex 7.289686274214116 6.845471059286887 -3
      vertex 8.090169943749475 5.877852522924732 -3
    endloop
  endfacet
  facet normal 0 0 -1
    outer loop
      vertex 8.090169943749475 -5.877852522924732 -3
      vertex 8.090169943749475 5.877852522924732 -3
      vertex 8.763066800438637 4.817536741017153 -3
    endloop
  endfacet
  facet normal 0 0 -1
    outer loop
      vertex 8.763066800438635 -4.817536741017154 -3
      vertex 8.763066800438637 4.817536741017153 -3
      vertex 9.297764858882513 3.6812455268467796 -3
    endloop
  endfacet
  facet normal 0 0 -1
    outer loop
      vertex 9.921147013144779 -1.2533323356430406 -3
      vertex 9.921147013144779 1.2533323356430426 -3
      vertex 10 0 -3
    endloop
  endfacet
  facet normal 0 0 -1
    outer loop
      vertex 9.685831611286313 -2.4868988716485445 -3
      vertex 9.68583161128631 2.486898871648548 -3
      vertex 9.921147013144779 1.2533323356430426 -3
    endloop
  endfacet
  facet normal 0 0 -1
    outer loop
      vertex 9.297764858882513 -3.6812455268467836 -3
      vertex 9.297764858882513 3.6812455268467796 -3
      vertex 9.68583161128631 2.486898871648548 -3
    endloop
  endfacet
  facet normal 0.9980267284282716 0.06279051952931283 0
    outer loop
      vertex 10 0 -3
      vertex 9.921147013144779 1.2533323356430426 -3
      vertex 10 0 0
    endloop
  endfacet
  facet normal 0.9822872507286885 0.18738131458572546 0
    outer loop
      vertex 9.921147013144779 1.2533323356430426 -3
      vertex 9.68583161128631 2.486898871648548 -3
      vertex 9.921147013144779 1.2533323356430426 0
    endloop
  endfacet
  facet normal 0.9510565162951534 0.30901699437494823 0
    outer loop
      vertex 9.68583161128631 2.486898871648548 -3
      vertex 9.297764858882513 3.6812455268467796 -3
      vertex 9.68583161128631 2.486898871648548 0
    endloop
  endfacet
  facet normal 0.9048270524660202 0.42577929156507127 0
    outer loop
      vertex 9.297764858882513 3.6812455268467796 -3
      vertex 8.763066800438637 4.817536741017153 -3
      vertex 9.297764858882513 3.6812455268467796 0
    endloop
  endfacet
  facet normal 0.6845471059286878 0.7289686274214123 0
    outer loop
      vertex 7.289686274214116 6.845471059286887 -3
      vertex 6.3742398974868975 7.705132427757891 -3
      vertex 6.3742398974868975 7.705132427757891 0
    endloop
  endfacet
  facet normal 0.5877852522924738 0.8090169943749468 0
    outer loop
      vertex 5.358267949789966 8.443279255020151 -3
      vertex 5.358267949789966 8.443279255020151 0
      vertex 6.3742398974868975 7.705132427757891 -3
    endloop
  endfacet
  facet normal 0.7705132427757895 0.6374239897486895 0
    outer loop
      vertex 7.289686274214116 6.845471059286887 -3
      vertex 8.090169943749475 5.877852522924732 0
      vertex 8.090169943749475 5.877852522924732 -3
    endloop
  endfacet
  facet normal 0.844327925502015 0.5358267949789968 0
    outer loop
      vertex 8.763066800438637 4.817536741017153 -3
      vertex 8.090169943749475 5.877852522924732 -3
      vertex 8.763066800438637 4.817536741017153 0
    endloop
  endfacet
  facet normal 0 0 1
    outer loop
      vertex 4.257792915650727 9.048270524660195 0
      vertex 4.368691769624717 3.174040362379355 0
      vertex 4.732056072236864 2.601469840149263 0
    endloop
  endfacet
  facet normal 0 1 0
    outer loop
      vertex -0.6279051952931327 9.980267284282716 0
      vertex 0.6279051952931327 9.980267284282716 0
      vertex 0.6279051952931327 9.980267284282716 -3
    endloop
  endfacet
  facet normal 0.12533323356430473 0.9921147013144778 0
    outer loop
      vertex 1.8738131458572458 9.822872507286887 -3
      vertex 0.6279051952931327 9.980267284282716 0
      vertex 1.8738131458572458 9.822872507286887 0
    endloop
  endfacet
  facet normal 0.24868988716485532 0.968583161128631 0
    outer loop
      vertex 3.090169943749474 9.510565162951535 -3
      vertex 1.8738131458572458 9.822872507286887 0
      vertex 3.090169943749474 9.510565162951535 0
    endloop
  endfacet
  facet normal 0.48175367410171493 0.8763066800438638 0
    outer loop
      vertex 4.257792915650727 9.048270524660195 0
      vertex 5.358267949789966 8.443279255020151 0
      vertex 5.358267949789966 8.443279255020151 -3
    endloop
  endfacet
  facet normal 0.3681245526846773 0.9297764858882517 0
    outer loop
      vertex 4.257792915650727 9.048270524660195 -3
      vertex 3.090169943749474 9.510565162951535 0
      vertex 4.257792915650727 9.048270524660195 0
    endloop
  endfacet
  facet normal 0 0 1
    outer loop
      vertex 0.6279051952931327 9.980267284282716 0
      vertex -0.33906880545829055 5.389344333512667 0
      vertex 0.3390688054582917 5.389344333512667 0
    endloop
  endfacet
  facet normal 0 0 1
    outer loop
      vertex 0.6279051952931327 9.980267284282716 0
      vertex 0.3390688054582917 5.389344333512667 0
      vertex 1.0118590987629128 5.3043511539349195 0
    endloop
  endfacet
  facet normal 0 0 1
    outer loop
      vertex 1.8738131458572458 9.822872507286887 0
      vertex 1.0118590987629128 5.3043511539349195 0
      vertex 1.668691769624716 5.135705187993829 0
    endloop
  endfacet
  facet normal 0 0 1
    outer loop
      vertex 1.8738131458572458 9.822872507286887 0
      vertex 1.668691769624716 5.135705187993829 0
      vertex 2.299208174451393 4.886066083316505 0
    endloop
  endfacet
  facet normal 0 0 1
    outer loop
      vertex 0.6279051952931327 9.980267284282716 0
      vertex 1.0118590987629128 5.3043511539349195 0
      vertex 1.8738131458572458 9.822872507286887 0
    endloop
  endfacet
  facet normal 0 0 1
    outer loop
      vertex 1.8738131458572458 9.822872507286887 0
      vertex 2.299208174451393 4.886066083316505 0
      vertex 3.090169943749474 9.510565162951535 0
    endloop
  endfacet
  facet normal 0 0 1
    outer loop
      vertex 3.090169943749474 9.510565162951535 0
      vertex 2.893464692886582 4.559370797710882 0
      vertex 3.4420895446429247 4.160771510989262 0
    endloop
  endfacet
  facet normal 0 0 1
    outer loop
      vertex 3.090169943749474 9.510565162951535 0
      vertex 2.299208174451393 4.886066083316505 0
      vertex 2.893464692886582 4.559370797710882 0
    endloop
  endfacet
  facet normal 0 0 1
    outer loop
      vertex 4.257792915650727 9.048270524660195 0
      vertex 3.9364305880756225 3.696554372014919 0
      vertex 4.368691769624717 3.174040362379355 0
    endloop
  endfacet
  facet normal 0 0 1
    outer loop
      vertex 4.257792915650727 9.048270524660195 0
      vertex 3.4420895446429247 4.160771510989262 0
      vertex 3.9364305880756225 3.696554372014919 0
    endloop
  endfacet
  facet normal 0 0 1
    outer loop
      vertex 4.257792915650727 9.048270524660195 0
      vertex 4.732056072236864 2.601469840149263 0
      vertex 5.358267949789966 8.443279255020151 0
    endloop
  endfacet
  facet normal 0 0 1
    outer loop
      vertex 3.090169943749474 9.510565162951535 0
      vertex 3.4420895446429247 4.160771510989262 0
      vertex 4.257792915650727 9.048270524660195 0
    endloop
  endfacet
  facet normal 0.9980267284282716 0.06279051952931283 0
    outer loop
      vertex 9.921147013144779 1.2533323356430426 -3
      vertex 9.921147013144779 1.2533323356430426 0
      vertex 10 0 0
    endloop
  endfacet
  facet normal 0.9822872507286885 0.18738131458572546 0
    outer loop
      vertex 9.68583161128631 2.486898871648548 -3
      vertex 9.68583161128631 2.486898871648548 0
      vertex 9.921147013144779 1.2533323356430426 0
    endloop
  endfacet
  facet normal 0.9510565162951534 0.30901699437494823 0
    outer loop
      vertex 9.297764858882513 3.6812455268467796 -3
      vertex 9.297764858882513 3.6812455268467796 0
      vertex 9.68583161128631 2.486898871648548 0
    endloop
  endfacet
  facet normal 0.9048270524660202 0.42577929156507127 0
    outer loop
      vertex 8.763066800438637 4.817536741017153 -3
      vertex 8.763066800438637 4.817536741017153 0
      vertex 9.297764858882513 3.6812455268467796 0
    endloop
  endfacet
  facet normal 0 0 1
    outer loop
      vertex 6.3742398974869 -7.70513242775789 0
      vertex 5.358267949789966 8.443279255020151 0
      vertex 5.4 0 0
    endloop
  endfacet
  facet normal 0 0 1
    outer loop
      vertex 5.358267949789966 8.443279255020151 0
      vertex 5.357419387098181 0.676799461247243 0
      vertex 5.4 0 0
    endloop
  endfacet
  facet normal 0 0 1
    outer loop
      vertex 5.358267949789966 8.443279255020151 0
      vertex 5.230349070094608 1.3429253906902159 0
      vertex 5.357419387098181 0.676799461247243 0
    endloop
  endfacet
  facet normal 0 0 1
    outer loop
      vertex 6.3742398974869 -7.70513242775789 0
      vertex 6.3742398974868975 7.705132427757891 0
      vertex 5.358267949789966 8.443279255020151 0
    endloop
  endfacet
  facet normal 0 0 1
    outer loop
      vertex 5.358267949789966 8.443279255020151 0
      vertex 5.020793023796558 1.9878725844972611 0
      vertex 5.230349070094608 1.3429253906902159 0
    endloop
  endfacet
  facet normal 0 0 1
    outer loop
      vertex 5.358267949789966 8.443279255020151 0
      vertex 4.732056072236864 2.601469840149263 0
      vertex 5.020793023796558 1.9878725844972611 0
    endloop
  endfacet
  facet normal 0 0 1
    outer loop
      vertex 7.289686274214117 -6.845471059286885 0
      vertex 7.289686274214116 6.845471059286887 0
      vertex 6.3742398974868975 7.705132427757891 0
    endloop
  endfacet
  facet normal 0 0 1
    outer loop
      vertex 8.090169943749475 -5.877852522924732 0
      vertex 8.090169943749475 5.877852522924732 0
      vertex 7.289686274214116 6.845471059286887 0
    endloop
  endfacet
  facet normal 0 0 1
    outer loop
      vertex 8.763066800438635 -4.817536741017154 0
      vertex 8.763066800438637 4.817536741017153 0
      vertex 8.090169943749475 5.877852522924732 0
    endloop
  endfacet
  facet normal 0 0 1
    outer loop
      vertex 9.921147013144779 -1.2533323356430406 0
      vertex 10 0 0
      vertex 9.921147013144779 1.2533323356430426 0
    endloop
  endfacet
  facet normal 0 0 1
    outer loop
      vertex 9.685831611286313 -2.4868988716485445 0
      vertex 9.68583161128631 2.486898871648548 0
      vertex 9.297764858882513 3.6812455268467796 0
    endloop
  endfacet
  facet normal 0 0 1
    outer loop
      vertex 9.921147013144779 -1.2533323356430406 0
      vertex 9.921147013144779 1.2533323356430426 0
      vertex 9.68583161128631 2.486898871648548 0
    endloop
  endfacet
  facet normal 0 0 1
    outer loop
      vertex 9.297764858882513 -3.6812455268467836 0
      vertex 9.297764858882513 3.6812455268467796 0
      vertex 8.763066800438637 4.817536741017153 0
    endloop
  endfacet
  facet normal 0.6845471059286878 0.7289686274214123 0
    outer loop
      vertex 7.289686274214116 6.845471059286887 -3
      vertex 6.3742398974868975 7.705132427757891 0
      vertex 7.289686274214116 6.845471059286887 0
    endloop
  endfacet
  facet normal 0.5877852522924738 0.8090169943749468 0
    outer loop
      vertex 6.3742398974868975 7.705132427757891 -3
      vertex 5.358267949789966 8.443279255020151 0
      vertex 6.3742398974868975 7.705132427757891 0
    endloop
  endfacet
  facet normal 0.844327925502015 0.5358267949789968 0
    outer loop
      vertex 8.763066800438637 4.817536741017153 0
      vertex 8.090169943749475 5.877852522924732 -3
      vertex 8.090169943749475 5.877852522924732 0
    endloop
  endfacet
  facet normal 0.7705132427757895 0.6374239897486895 0
    outer loop
      vertex 7.289686274214116 6.845471059286887 -3
      vertex 7.289686274214116 6.845471059286887 0
      vertex 8.090169943749475 5.877852522924732 0
    endloop
  endfacet
  facet normal 0.6471655929890113 0.5353819394784516 0.5427180429389399
    outer loop
      vertex -2.520549215584035 -2.3669532624226575 -3
      vertex -2.797331838242607 -2.032380545426667 -3
      vertex -4.368691769624717 -3.174040362379355 0
    endloop
  endfacet
  facet normal 0.574961349322538 0.6122716493957019 0.5427180429389399
    outer loop
      vertex -2.520549215584035 -2.3669532624226575 -3
      vertex -3.9364305880756234 -3.6965543720149183 0
      vertex -2.2040160260925847 -2.6641977125209024 -3
    endloop
  endfacet
  facet normal 0.7599777699499789 0.35761839305380255 0.5427180429389398
    outer loop
      vertex -3.029998866767051 -1.6657559731440081 -3
      vertex -3.2148810031289927 -1.2728614340904822 -3
      vertex -5.020793023796558 -1.9878725844972607 0
    endloop
  endfacet
  facet normal 0.7988065878230701 0.25954799386431576 0.5427180429389399
    outer loop
      vertex -3.2148810031289927 -1.2728614340904822 -3
      vertex -3.3490625455947667 -0.8598931098507866 -3
      vertex -5.230349070094608 -1.3429253906902163 0
    endloop
  endfacet
  facet normal 0.825037748622265 0.1573843677651346 0.5427180429389399
    outer loop
      vertex -3.3490625455947667 -0.8598931098507866 -3
      vertex -3.4304273710835216 -0.43336375759349754 -3
      vertex -5.357419387098181 -0.676799461247242 0
    endloop
  endfacet
  facet normal 0.8382575712720258 0.052738696169432164 0.5427180429389399
    outer loop
      vertex -3.4304273710835216 -0.43336375759349754 -3
      vertex -3.457692307692308 0 -3
      vertex -5.4 0 0
    endloop
  endfacet
  facet normal 0.709163648656064 0.45004893655395495 0.5427180429389398
    outer loop
      vertex -2.797331838242607 -2.032380545426667 -3
      vertex -3.029998866767051 -1.6657559731440081 -3
      vertex -4.732056072236863 -2.6014698401492633 0
    endloop
  endfacet
  facet normal 0.3091933158393732 0.7809331721144778 0.5427180429389398
    outer loop
      vertex -1.4722137812192313 -3.12861353910366 -3
      vertex -1.668691769624716 -5.135705187993829 0
      vertex -1.0684856843964528 -3.2884608005743963 -3
    endloop
  endfacet
  facet normal 0.49368962171198433 0.6795054696486298 0.5427180429389399
    outer loop
      vertex -1.8527241872543003 -2.919426173178121 -3
      vertex -2.2040160260925847 -2.6641977125209024 -3
      vertex -2.8934646928865826 -4.559370797710881 0
    endloop
  endfacet
  facet normal 0.4046321138511499 0.7360230827283049 0.5427180429389398
    outer loop
      vertex -1.4722137812192313 -3.12861353910366 -3
      vertex -1.8527241872543003 -2.919426173178121 -3
      vertex -2.2992081744513913 -4.886066083316506 0
    endloop
  endfacet
  facet normal 0.2088783545336764 0.8135274788695406 0.5427180429389398
    outer loop
      vertex -0.6479069300483331 -3.396447070788812 -3
      vertex -1.0684856843964528 -3.2884608005743963 -3
      vertex -1.0118590987629141 -5.304351153934919 0
    endloop
  endfacet
  facet normal 0.1052692567991025 0.8332919713050713 0.5427180429389398
    outer loop
      vertex -0.2171102963725118 -3.4508693417577545 -3
      vertex -0.6479069300483331 -3.396447070788812 -3
      vertex -1.0118590987629141 -5.304351153934919 0
    endloop
  endfacet
  facet normal 0 0.8399149515686257 0.5427180429389398
    outer loop
      vertex 0.2171102963725118 -3.4508693417577545 -3
      vertex -0.2171102963725118 -3.4508693417577545 -3
      vertex -0.3390688054582943 -5.389344333512667 0
    endloop
  endfacet
  facet normal 0.709163648656064 0.45004893655395495 0.5427180429389398
    outer loop
      vertex -4.732056072236863 -2.6014698401492633 0
      vertex -4.368691769624717 -3.174040362379355 0
      vertex -2.797331838242607 -2.032380545426667 -3
    endloop
  endfacet
  facet normal 0.49368962171198433 0.6795054696486297 0.5427180429389399
    outer loop
      vertex -3.4420895446429243 -4.160771510989263 0
      vertex -2.8934646928865826 -4.559370797710881 0
      vertex -2.2040160260925847 -2.6641977125209024 -3
    endloop
  endfacet
  facet normal 0.5749613493225377 0.6122716493957022 0.5427180429389398
    outer loop
      vertex -3.9364305880756234 -3.6965543720149183 0
      vertex -3.4420895446429243 -4.160771510989263 0
      vertex -2.2040160260925847 -2.6641977125209024 -3
    endloop
  endfacet
  facet normal 0.6471655929890116 0.5353819394784511 0.5427180429389399
    outer loop
      vertex -4.368691769624717 -3.174040362379355 0
      vertex -3.9364305880756234 -3.6965543720149183 0
      vertex -2.520549215584035 -2.3669532624226575 -3
    endloop
  endfacet
  facet normal 0.7988065878230702 0.2595479938643156 0.5427180429389398
    outer loop
      vertex -3.2148810031289927 -1.2728614340904822 -3
      vertex -5.230349070094608 -1.3429253906902163 0
      vertex -5.020793023796558 -1.9878725844972607 0
    endloop
  endfacet
  facet normal 0.7599777699499791 0.3576183930538022 0.5427180429389399
    outer loop
      vertex -5.020793023796558 -1.9878725844972607 0
      vertex -4.732056072236863 -2.6014698401492633 0
      vertex -3.029998866767051 -1.6657559731440081 -3
    endloop
  endfacet
  facet normal 0.825037748622265 0.15738436776513542 0.5427180429389399
    outer loop
      vertex -3.3490625455947667 -0.8598931098507866 -3
      vertex -5.357419387098181 -0.676799461247242 0
      vertex -5.230349070094608 -1.3429253906902163 0
    endloop
  endfacet
  facet normal 0.8382575712720258 0.052738696169431463 0.54271804293894
    outer loop
      vertex -5.4 0 0
      vertex -5.357419387098181 -0.676799461247242 0
      vertex -3.4304273710835216 -0.43336375759349754 -3
    endloop
  endfacet
  facet normal 0.40463211385115 0.7360230827283049 0.5427180429389398
    outer loop
      vertex -1.8527241872543003 -2.919426173178121 -3
      vertex -2.8934646928865826 -4.559370797710881 0
      vertex -2.2992081744513913 -4.886066083316506 0
    endloop
  endfacet
  facet normal 0.3091933158393729 0.7809331721144781 0.5427180429389399
    outer loop
      vertex -2.2992081744513913 -4.886066083316506 0
      vertex -1.668691769624716 -5.135705187993829 0
      vertex -1.4722137812192313 -3.12861353910366 -3
    endloop
  endfacet
  facet normal 0.20887835453367662 0.8135274788695407 0.5427180429389398
    outer loop
      vertex -1.0684856843964528 -3.2884608005743963 -3
      vertex -1.668691769624716 -5.135705187993829 0
      vertex -1.0118590987629141 -5.304351153934919 0
    endloop
  endfacet
  facet normal 0.10526925679910268 0.8332919713050713 0.5427180429389398
    outer loop
      vertex -1.0118590987629141 -5.304351153934919 0
      vertex -0.3390688054582943 -5.389344333512667 0
      vertex -0.2171102963725118 -3.4508693417577545 -3
    endloop
  endfacet
  facet normal 0.8382575712720257 -0.052738696169431866 0.54271804293894
    outer loop
      vertex -5.357419387098181 0.676799461247242 0
      vertex -3.457692307692308 0 -3
      vertex -3.4304273710835216 0.43336375759349754 -3
    endloop
  endfacet
  facet normal 0.8250377486222652 -0.15738436776513465 0.5427180429389398
    outer loop
      vertex -3.3490625455947667 0.8598931098507866 -3
      vertex -5.230349070094608 1.3429253906902163 0
      vertex -3.4304273710835216 0.43336375759349754 -3
    endloop
  endfacet
  facet normal 0.7988065878230701 -0.25954799386431576 0.5427180429389398
    outer loop
      vertex -3.2148810031289927 1.2728614340904822 -3
      vertex -5.020793023796558 1.9878725844972607 0
      vertex -3.3490625455947667 0.8598931098507866 -3
    endloop
  endfacet
  facet normal 0.7599777699499789 -0.35761839305380255 0.5427180429389398
    outer loop
      vertex -3.2148810031289927 1.2728614340904822 -3
      vertex -3.029998866767051 1.6657559731440081 -3
      vertex -5.020793023796558 1.9878725844972607 0
    endloop
  endfacet
  facet normal 0.709163648656064 -0.45004893655395495 0.5427180429389399
    outer loop
      vertex -3.029998866767051 1.6657559731440081 -3
      vertex -2.797331838242607 2.032380545426667 -3
      vertex -4.732056072236863 2.6014698401492633 0
    endloop
  endfacet
  facet normal 0.6471655929890113 -0.5353819394784516 0.5427180429389399
    outer loop
      vertex -2.797331838242607 2.032380545426667 -3
      vertex -2.520549215584035 2.3669532624226575 -3
      vertex -4.368691769624717 3.174040362379355 0
    endloop
  endfacet
  facet normal 0.5749613493225381 -0.612271649395702 0.5427180429389399
    outer loop
      vertex -2.520549215584035 2.3669532624226575 -3
      vertex -2.2040160260925847 2.6641977125209024 -3
      vertex -3.4420895446429243 4.160771510989263 0
    endloop
  endfacet
  facet normal 0.49368962171198455 -0.6795054696486296 0.5427180429389398
    outer loop
      vertex -2.2040160260925847 2.6641977125209024 -3
      vertex -1.8527241872543005 2.919426173178121 -3
      vertex -2.8934646928865826 4.559370797710881 0
    endloop
  endfacet
  facet normal 0.4046321138511498 -0.7360230827283049 0.5427180429389399
    outer loop
      vertex -1.8527241872543005 2.919426173178121 -3
      vertex -1.4722137812192322 3.1286135391036596 -3
      vertex -2.299208174451393 4.886066083316505 0
    endloop
  endfacet
  facet normal 0.3091933158393734 -0.7809331721144779 0.5427180429389399
    outer loop
      vertex -1.4722137812192322 3.1286135391036596 -3
      vertex -1.0684856843964528 3.2884608005743963 -3
      vertex -1.668691769624716 5.135705187993829 0
    endloop
  endfacet
  facet normal 0.20887835453367687 -0.8135274788695407 0.5427180429389398
    outer loop
      vertex -1.0684856843964528 3.2884608005743963 -3
      vertex -0.6479069300483323 3.3964470707888124 -3
      vertex -1.0118590987629128 5.3043511539349195 0
    endloop
  endfacet
  facet normal 0.10526925679910144 -0.8332919713050714 0.5427180429389398
    outer loop
      vertex -0.33906880545829055 5.389344333512667 0
      vertex -0.6479069300483323 3.3964470707888124 -3
      vertex -0.21711029637251014 3.4508693417577545 -3
    endloop
  endfacet
  facet normal 0.8382575712720258 -0.052738696169431463 0.5427180429389399
    outer loop
      vertex -5.357419387098181 0.676799461247242 0
      vertex -5.4 0 0
      vertex -3.457692307692308 0 -3
    endloop
  endfacet
  facet normal 0.825037748622265 -0.15738436776513542 0.5427180429389399
    outer loop
      vertex -5.230349070094608 1.3429253906902163 0
      vertex -5.357419387098181 0.676799461247242 0
      vertex -3.4304273710835216 0.43336375759349754 -3
    endloop
  endfacet
  facet normal 0.79880658782307 -0.25954799386431593 0.5427180429389398
    outer loop
      vertex -5.020793023796558 1.9878725844972607 0
      vertex -5.230349070094608 1.3429253906902163 0
      vertex -3.3490625455947667 0.8598931098507866 -3
    endloop
  endfacet
  facet normal 0.7599777699499791 -0.3576183930538022 0.5427180429389399
    outer loop
      vertex -4.732056072236863 2.6014698401492633 0
      vertex -5.020793023796558 1.9878725844972607 0
      vertex -3.029998866767051 1.6657559731440081 -3
    endloop
  endfacet
  facet normal 0.709163648656064 -0.45004893655395495 0.5427180429389398
    outer loop
      vertex -2.797331838242607 2.032380545426667 -3
      vertex -4.368691769624717 3.174040362379355 0
      vertex -4.732056072236863 2.6014698401492633 0
    endloop
  endfacet
  facet normal 0.6471655929890116 -0.5353819394784511 0.5427180429389399
    outer loop
      vertex -3.9364305880756234 3.6965543720149183 0
      vertex -4.368691769624717 3.174040362379355 0
      vertex -2.520549215584035 2.3669532624226575 -3
    endloop
  endfacet
  facet normal 0.5749613493225377 -0.6122716493957022 0.5427180429389399
    outer loop
      vertex -3.4420895446429243 4.160771510989263 0
      vertex -3.9364305880756234 3.6965543720149183 0
      vertex -2.520549215584035 2.3669532624226575 -3
    endloop
  endfacet
  facet normal 0.49368962171198433 -0.6795054696486297 0.5427180429389399
    outer loop
      vertex -2.8934646928865826 4.559370797710881 0
      vertex -3.4420895446429243 4.160771510989263 0
      vertex -2.2040160260925847 2.6641977125209024 -3
    endloop
  endfacet
  facet normal 0.40463211385115005 -0.7360230827283047 0.5427180429389398
    outer loop
      vertex -2.299208174451393 4.886066083316505 0
      vertex -2.8934646928865826 4.559370797710881 0
      vertex -1.8527241872543005 2.919426173178121 -3
    endloop
  endfacet
  facet normal 0.3091933158393731 -0.780933172114478 0.5427180429389399
    outer loop
      vertex -1.668691769624716 5.135705187993829 0
      vertex -2.299208174451393 4.886066083316505 0
      vertex -1.4722137812192322 3.1286135391036596 -3
    endloop
  endfacet
  facet normal 0.2088783545336769 -0.8135274788695406 0.5427180429389399
    outer loop
      vertex -1.0118590987629128 5.3043511539349195 0
      vertex -1.668691769624716 5.135705187993829 0
      vertex -1.0684856843964528 3.2884608005743963 -3
    endloop
  endfacet
  facet normal 0.10526925679910124 -0.8332919713050715 0.5427180429389399
    outer loop
      vertex -0.33906880545829055 5.389344333512667 0
      vertex -1.0118590987629128 5.3043511539349195 0
      vertex -0.6479069300483323 3.3964470707888124 -3
    endloop
  endfacet
  facet normal 0 -0.8399149515686258 0.5427180429389398
    outer loop
      vertex -0.33906880545829055 5.389344333512667 0
      vertex -0.21711029637251014 3.4508693417577545 -3
      vertex 0.3390688054582917 5.389344333512667 0
    endloop
  endfacet
  facet normal -0.1052692567991025 0.8332919713050713 0.5427180429389398
    outer loop
      vertex 0.2171102963725118 -3.4508693417577545 -3
      vertex 0.3390688054582943 -5.389344333512667 0
      vertex 0.6479069300483331 -3.396447070788812 -3
    endloop
  endfacet
  facet normal -0.2088783545336764 0.8135274788695406 0.5427180429389398
    outer loop
      vertex 1.0684856843964528 -3.2884608005743963 -3
      vertex 0.6479069300483331 -3.396447070788812 -3
      vertex 1.0118590987629141 -5.304351153934919 0
    endloop
  endfacet
  facet normal -0.3091933158393733 0.7809331721144778 0.5427180429389398
    outer loop
      vertex 1.472213781219231 -3.12861353910366 -3
      vertex 1.0684856843964528 -3.2884608005743963 -3
      vertex 1.668691769624716 -5.135705187993829 0
    endloop
  endfacet
  facet normal -0.4046321138511492 0.7360230827283053 0.5427180429389399
    outer loop
      vertex 1.8527241872542985 -2.919426173178122 -3
      vertex 1.472213781219231 -3.12861353910366 -3
      vertex 2.2992081744513913 -4.886066083316506 0
    endloop
  endfacet
  facet normal -0.4936896217119847 0.6795054696486296 0.5427180429389398
    outer loop
      vertex 2.2040160260925856 -2.6641977125209015 -3
      vertex 1.8527241872542985 -2.919426173178122 -3
      vertex 2.89346469288658 -4.559370797710883 0
    endloop
  endfacet
  facet normal -0.5749613493225376 0.6122716493957024 0.5427180429389399
    outer loop
      vertex 2.5205492155840354 -2.3669532624226575 -3
      vertex 2.2040160260925856 -2.6641977125209015 -3
      vertex 3.442089544642926 -4.160771510989261 0
    endloop
  endfacet
  facet normal -0.6471655929890117 0.535381939478451 0.5427180429389399
    outer loop
      vertex 2.797331838242607 -2.032380545426667 -3
      vertex 2.5205492155840354 -2.3669532624226575 -3
      vertex 4.368691769624717 -3.174040362379355 0
    endloop
  endfacet
  facet normal -0.709163648656064 0.45004893655395495 0.5427180429389399
    outer loop
      vertex 3.029998866767051 -1.6657559731440081 -3
      vertex 2.797331838242607 -2.032380545426667 -3
      vertex 4.732056072236863 -2.6014698401492633 0
    endloop
  endfacet
  facet normal -0.7599777699499789 0.3576183930538024 0.5427180429389398
    outer loop
      vertex 3.214881003128992 -1.272861434090484 -3
      vertex 3.029998866767051 -1.6657559731440081 -3
      vertex 5.020793023796557 -1.9878725844972633 0
    endloop
  endfacet
  facet normal -0.7988065878230697 0.259547993864317 0.5427180429389399
    outer loop
      vertex 3.214881003128992 -1.272861434090484 -3
      vertex 5.020793023796557 -1.9878725844972633 0
      vertex 3.3490625455947676 -0.8598931098507852 -3
    endloop
  endfacet
  facet normal -0.8250377486222652 0.15738436776513431 0.5427180429389398
    outer loop
      vertex 3.3490625455947676 -0.8598931098507852 -3
      vertex 5.230349070094609 -1.342925390690214 0
      vertex 3.430427371083522 -0.43336375759349754 -3
    endloop
  endfacet
  facet normal -0.8382575712720258 0.052738696169431304 0.5427180429389399
    outer loop
      vertex 5.357419387098181 -0.676799461247242 0
      vertex 3.457692307692308 0 -3
      vertex 3.430427371083522 -0.43336375759349754 -3
    endloop
  endfacet
  facet normal 0 0.8399149515686258 0.5427180429389399
    outer loop
      vertex -0.3390688054582943 -5.389344333512667 0
      vertex 0.3390688054582943 -5.389344333512667 0
      vertex 0.2171102963725118 -3.4508693417577545 -3
    endloop
  endfacet
  facet normal -0.10526925679910268 0.8332919713050713 0.5427180429389398
    outer loop
      vertex 0.3390688054582943 -5.389344333512667 0
      vertex 1.0118590987629141 -5.304351153934919 0
      vertex 0.6479069300483331 -3.396447070788812 -3
    endloop
  endfacet
  facet normal -0.20887835453367626 0.8135274788695407 0.5427180429389398
    outer loop
      vertex 1.0118590987629141 -5.304351153934919 0
      vertex 1.668691769624716 -5.135705187993829 0
      vertex 1.0684856843964528 -3.2884608005743963 -3
    endloop
  endfacet
  facet normal -0.3091933158393729 0.7809331721144781 0.5427180429389399
    outer loop
      vertex 1.668691769624716 -5.135705187993829 0
      vertex 2.2992081744513913 -4.886066083316506 0
      vertex 1.472213781219231 -3.12861353910366 -3
    endloop
  endfacet
  facet normal -0.40463211385114967 0.736023082728305 0.5427180429389398
    outer loop
      vertex 2.2992081744513913 -4.886066083316506 0
      vertex 2.89346469288658 -4.559370797710883 0
      vertex 1.8527241872542985 -2.919426173178122 -3
    endloop
  endfacet
  facet normal -0.49368962171198466 0.6795054696486296 0.5427180429389398
    outer loop
      vertex 2.89346469288658 -4.559370797710883 0
      vertex 3.442089544642926 -4.160771510989261 0
      vertex 2.2040160260925856 -2.6641977125209015 -3
    endloop
  endfacet
  facet normal -0.5749613493225377 0.6122716493957024 0.5427180429389399
    outer loop
      vertex 3.442089544642926 -4.160771510989261 0
      vertex 3.9364305880756234 -3.6965543720149183 0
      vertex 2.5205492155840354 -2.3669532624226575 -3
    endloop
  endfacet
  facet normal -0.6471655929890116 0.5353819394784511 0.5427180429389399
    outer loop
      vertex 3.9364305880756234 -3.6965543720149183 0
      vertex 4.368691769624717 -3.174040362379355 0
      vertex 2.5205492155840354 -2.3669532624226575 -3
    endloop
  endfacet
  facet normal -0.709163648656064 0.45004893655395495 0.5427180429389398
    outer loop
      vertex 2.797331838242607 -2.032380545426667 -3
      vertex 4.368691769624717 -3.174040362379355 0
      vertex 4.732056072236863 -2.6014698401492633 0
    endloop
  endfacet
  facet normal -0.7599777699499789 0.3576183930538026 0.5427180429389399
    outer loop
      vertex 4.732056072236863 -2.6014698401492633 0
      vertex 5.020793023796557 -1.9878725844972633 0
      vertex 3.029998866767051 -1.6657559731440081 -3
    endloop
  endfacet
  facet normal -0.79880658782307 0.2595479938643162 0.5427180429389398
    outer loop
      vertex 5.020793023796557 -1.9878725844972633 0
      vertex 5.230349070094609 -1.342925390690214 0
      vertex 3.3490625455947676 -0.8598931098507852 -3
    endloop
  endfacet
  facet normal -0.8250377486222651 0.15738436776513487 0.5427180429389398
    outer loop
      vertex 5.230349070094609 -1.342925390690214 0
      vertex 5.357419387098181 -0.676799461247242 0
      vertex 3.430427371083522 -0.43336375759349754 -3
    endloop
  endfacet
  facet normal -0.8382575712720258 0.052738696169431463 0.5427180429389399
    outer loop
      vertex 5.357419387098181 -0.676799461247242 0
      vertex 5.4 0 0
      vertex 3.457692307692308 0 -3
    endloop
  endfacet
  facet normal 0 -0.839914951568626 0.5427180429389399
    outer loop
      vertex -0.21711029637251014 3.4508693417577545 -3
      vertex 0.21711029637250856 3.4508693417577545 -3
      vertex 0.3390688054582917 5.389344333512667 0
    endloop
  endfacet
  facet normal -0.10526925679910105 -0.8332919713050714 0.5427180429389398
    outer loop
      vertex 1.0118590987629128 5.3043511539349195 0
      vertex 0.21711029637250856 3.4508693417577545 -3
      vertex 0.6479069300483323 3.3964470707888124 -3
    endloop
  endfacet
  facet normal -0.2088783545336768 -0.8135274788695405 0.5427180429389398
    outer loop
      vertex 0.6479069300483323 3.3964470707888124 -3
      vertex 1.0684856843964528 3.2884608005743963 -3
      vertex 1.0118590987629128 5.3043511539349195 0
    endloop
  endfacet
  facet normal -0.40463211385114967 -0.736023082728305 0.5427180429389399
    outer loop
      vertex 1.4722137812192324 3.1286135391036596 -3
      vertex 1.8527241872543 2.9194261731781213 -3
      vertex 2.299208174451393 4.886066083316505 0
    endloop
  endfacet
  facet normal -0.4936896217119858 -0.6795054696486287 0.5427180429389399
    outer loop
      vertex 1.8527241872543 2.9194261731781213 -3
      vertex 2.2040160260925847 2.6641977125209015 -3
      vertex 2.893464692886582 4.559370797710882 0
    endloop
  endfacet
  facet normal -0.3091933158393732 -0.7809331721144779 0.5427180429389399
    outer loop
      vertex 1.4722137812192324 3.1286135391036596 -3
      vertex 1.668691769624716 5.135705187993829 0
      vertex 1.0684856843964528 3.2884608005743963 -3
    endloop
  endfacet
  facet normal -0.7091636486560635 -0.4500489365539553 0.5427180429389399
    outer loop
      vertex 2.797331838242607 2.032380545426667 -3
      vertex 3.0299988667670514 1.665755973144008 -3
      vertex 4.732056072236864 2.601469840149263 0
    endloop
  endfacet
  facet normal -0.8382575712720258 -0.052738696169432074 0.5427180429389398
    outer loop
      vertex 3.457692307692308 0 -3
      vertex 5.4 0 0
      vertex 3.4304273710835216 0.4333637575934982 -3
    endloop
  endfacet
  facet normal -0.825037748622265 -0.15738436776513492 0.54271804293894
    outer loop
      vertex 3.3490625455947667 0.8598931098507864 -3
      vertex 3.4304273710835216 0.4333637575934982 -3
      vertex 5.357419387098181 0.676799461247243 0
    endloop
  endfacet
  facet normal -0.79880658782307 -0.25954799386431615 0.5427180429389398
    outer loop
      vertex 3.2148810031289923 1.2728614340904827 -3
      vertex 3.3490625455947667 0.8598931098507864 -3
      vertex 5.230349070094608 1.3429253906902159 0
    endloop
  endfacet
  facet normal -0.7599777699499793 -0.35761839305380155 0.5427180429389399
    outer loop
      vertex 3.0299988667670514 1.665755973144008 -3
      vertex 3.2148810031289923 1.2728614340904827 -3
      vertex 5.020793023796558 1.9878725844972611 0
    endloop
  endfacet
  facet normal -0.5749613493225367 -0.6122716493957033 0.5427180429389398
    outer loop
      vertex 2.2040160260925847 2.6641977125209015 -3
      vertex 2.5205492155840346 2.3669532624226584 -3
      vertex 3.9364305880756225 3.696554372014919 0
    endloop
  endfacet
  facet normal -0.6471655929890116 -0.5353819394784513 0.5427180429389399
    outer loop
      vertex 2.5205492155840346 2.3669532624226584 -3
      vertex 2.797331838242607 2.032380545426667 -3
      vertex 4.368691769624717 3.174040362379355 0
    endloop
  endfacet
  facet normal -0.1052692567991014 -0.8332919713050714 0.5427180429389398
    outer loop
      vertex 1.0118590987629128 5.3043511539349195 0
      vertex 0.3390688054582917 5.389344333512667 0
      vertex 0.21711029637250856 3.4508693417577545 -3
    endloop
  endfacet
  facet normal -0.2088783545336769 -0.8135274788695406 0.5427180429389398
    outer loop
      vertex 1.668691769624716 5.135705187993829 0
      vertex 1.0118590987629128 5.3043511539349195 0
      vertex 1.0684856843964528 3.2884608005743963 -3
    endloop
  endfacet
  facet normal -0.3091933158393731 -0.780933172114478 0.5427180429389398
    outer loop
      vertex 2.299208174451393 4.886066083316505 0
      vertex 1.668691769624716 5.135705187993829 0
      vertex 1.4722137812192324 3.1286135391036596 -3
    endloop
  endfacet
  facet normal -0.40463211385114944 -0.7360230827283051 0.5427180429389399
    outer loop
      vertex 2.893464692886582 4.559370797710882 0
      vertex 2.299208174451393 4.886066083316505 0
      vertex 1.8527241872543 2.9194261731781213 -3
    endloop
  endfacet
  facet normal -0.8382575712720257 -0.05273869616943137 0.5427180429389399
    outer loop
      vertex 5.4 0 0
      vertex 5.357419387098181 0.676799461247243 0
      vertex 3.4304273710835216 0.4333637575934982 -3
    endloop
  endfacet
  facet normal -0.825037748622265 -0.15738436776513576 0.5427180429389399
    outer loop
      vertex 3.3490625455947667 0.8598931098507864 -3
      vertex 5.357419387098181 0.676799461247243 0
      vertex 5.230349070094608 1.3429253906902159 0
    endloop
  endfacet
  facet normal -0.7599777699499792 -0.3576183930538017 0.5427180429389399
    outer loop
      vertex 5.020793023796558 1.9878725844972611 0
      vertex 4.732056072236864 2.601469840149263 0
      vertex 3.0299988667670514 1.665755973144008 -3
    endloop
  endfacet
  facet normal -0.7988065878230701 -0.2595479938643156 0.5427180429389399
    outer loop
      vertex 3.2148810031289923 1.2728614340904827 -3
      vertex 5.230349070094608 1.3429253906902159 0
      vertex 5.020793023796558 1.9878725844972611 0
    endloop
  endfacet
  facet normal -0.6471655929890116 -0.5353819394784513 0.5427180429389398
    outer loop
      vertex 4.368691769624717 3.174040362379355 0
      vertex 3.9364305880756225 3.696554372014919 0
      vertex 2.5205492155840346 2.3669532624226584 -3
    endloop
  endfacet
  facet normal -0.5749613493225374 -0.6122716493957024 0.5427180429389399
    outer loop
      vertex 2.2040160260925847 2.6641977125209015 -3
      vertex 3.9364305880756225 3.696554372014919 0
      vertex 3.4420895446429247 4.160771510989262 0
    endloop
  endfacet
  facet normal -0.4936896217119852 -0.679505469648629 0.54271804293894
    outer loop
      vertex 3.4420895446429247 4.160771510989262 0
      vertex 2.893464692886582 4.559370797710882 0
      vertex 2.2040160260925847 2.6641977125209015 -3
    endloop
  endfacet
  facet normal -0.7091636486560635 -0.45004893655395545 0.5427180429389399
    outer loop
      vertex 4.732056072236864 2.601469840149263 0
      vertex 4.368691769624717 3.174040362379355 0
      vertex 2.797331838242607 2.032380545426667 -3
    endloop
  endfacet
endsolid OpenSCAD_Model
