solid OpenSCAD_Model
  facet normal 0.6135144450384414 0.3893481061434828 0.6870284404387176
    outer loop
      vertex -1.4562305898749055 -1.0580134541264516 -1.9
      vertex -1.5773520240789543 -0.8671566133830877 -1.9
      vertex -2.912461179749811 -2.1160269082529033 0
    endloop
  endfacet
  facet normal 0.55987844326633 0.46317172926897693 0.6870284404387177
    outer loop
      vertex -1.312143529358541 -1.2321847906716394 -1.9
      vertex -1.4562305898749055 -1.0580134541264516 -1.9
      vertex -2.624287058717082 -2.464369581343279 0
    endloop
  endfacet
  facet normal 0.6574749575165312 0.3093842307988223 0.6870284404387176
    outer loop
      vertex -1.6735976745988526 -0.6626241948324202 -1.9
      vertex -3.1547040481579085 -1.7343132267661754 0
      vertex -1.5773520240789543 -0.8671566133830877 -1.9
    endloop
  endfacet
  facet normal 0.6910666971580839 0.22454118131728237 0.6870284404387176
    outer loop
      vertex -1.743449690031536 -0.4476417968967387 -1.9
      vertex -3.486899380063072 -0.8952835937934774 0
      vertex -1.6735976745988526 -0.6626241948324202 -1.9
    endloop
  endfacet
  facet normal 0.7137599021622189 0.13615698327196932 0.6870284404387176
    outer loop
      vertex -1.743449690031536 -0.4476417968967387 -1.9
      vertex -1.78580646236606 -0.22559982041574733 -1.9
      vertex -3.57161292473212 -0.45119964083149466 0
    endloop
  endfacet
  facet normal 0.7251966871297574 0.04562550826421804 0.6870284404387176
    outer loop
      vertex -3.6 0 0
      vertex -1.78580646236606 -0.22559982041574733 -1.9
      vertex -1.8 0 -1.9
    endloop
  endfacet
  facet normal 0.4974128239887383 0.5296908575385192 0.6870284404387176
    outer loop
      vertex -1.1473631815476413 -1.386923836996421 -1.9
      vertex -1.312143529358541 -1.2321847906716394 -1.9
      vertex -2.2947263630952826 -2.773847673992842 0
    endloop
  endfacet
  facet normal 0.42710270733682554 0.5878564445626989 0.6870284404387176
    outer loop
      vertex -0.9644882309621942 -1.5197902659036269 -1.9
      vertex -1.1473631815476413 -1.386923836996421 -1.9
      vertex -1.9289764619243883 -3.0395805318072537 0
    endloop
  endfacet
  facet normal 0.3500569258514221 0.6367511842877055 0.6870284404387176
    outer loop
      vertex -0.9644882309621942 -1.5197902659036269 -1.9
      vertex -1.532805449634261 -3.2573773888776705 0
      vertex -0.7664027248171305 -1.6286886944388352 -1.9
    endloop
  endfacet
  facet normal 0.26749053753146945 0.6756039774597756 0.6870284404387176
    outer loop
      vertex -0.7664027248171305 -1.6286886944388352 -1.9
      vertex -1.1124611797498107 -3.4238034586625528 0
      vertex -0.5562305898749054 -1.7119017293312764 -1.9
    endloop
  endfacet
  facet normal 0.18070566364354418 0.7038020923210514 0.6870284404387176
    outer loop
      vertex -0.3372863662543047 -1.7681170513116395 -1.9
      vertex -0.5562305898749054 -1.7119017293312764 -1.9
      vertex -0.6745727325086094 -3.536234102623279 0
    endloop
  endfacet
  facet normal 0.09107095349162904 0.7209008277554334 0.6870284404387176
    outer loop
      vertex -0.11302293515276478 -1.7964481111708888 -1.9
      vertex -0.3372863662543047 -1.7681170513116395 -1.9
      vertex -0.22604587030552956 -3.5928962223417775 0
    endloop
  endfacet
  facet normal 0.55987844326633 0.46317172926897693 0.6870284404387177
    outer loop
      vertex -2.912461179749811 -2.1160269082529033 0
      vertex -2.624287058717082 -2.464369581343279 0
      vertex -1.4562305898749055 -1.0580134541264516 -1.9
    endloop
  endfacet
  facet normal 0.42710270733682554 0.5878564445626989 0.6870284404387176
    outer loop
      vertex -2.2947263630952826 -2.773847673992842 0
      vertex -1.9289764619243883 -3.0395805318072537 0
      vertex -1.1473631815476413 -1.386923836996421 -1.9
    endloop
  endfacet
  facet normal 0.4974128239887383 0.5296908575385192 0.6870284404387176
    outer loop
      vertex -2.624287058717082 -2.464369581343279 0
      vertex -2.2947263630952826 -2.773847673992842 0
      vertex -1.312143529358541 -1.2321847906716394 -1.9
    endloop
  endfacet
  facet normal 0.6574749575165312 0.3093842307988223 0.6870284404387176
    outer loop
      vertex -3.347195349197705 -1.3252483896648404 0
      vertex -3.1547040481579085 -1.7343132267661754 0
      vertex -1.6735976745988526 -0.6626241948324202 -1.9
    endloop
  endfacet
  facet normal 0.6910666971580839 0.22454118131728237 0.6870284404387176
    outer loop
      vertex -3.347195349197705 -1.3252483896648404 0
      vertex -1.6735976745988526 -0.6626241948324202 -1.9
      vertex -3.486899380063072 -0.8952835937934774 0
    endloop
  endfacet
  facet normal 0.7137599021622189 0.13615698327196932 0.6870284404387176
    outer loop
      vertex -3.486899380063072 -0.8952835937934774 0
      vertex -1.743449690031536 -0.4476417968967387 -1.9
      vertex -3.57161292473212 -0.45119964083149466 0
    endloop
  endfacet
  facet normal 0.7251966871297574 0.045625508264218 0.6870284404387176
    outer loop
      vertex -3.57161292473212 -0.45119964083149466 0
      vertex -1.78580646236606 -0.22559982041574733 -1.9
      vertex -3.6 0 0
    endloop
  endfacet
  facet normal 0.6135144450384414 0.3893481061434828 0.6870284404387176
    outer loop
      vertex -3.1547040481579085 -1.7343132267661754 0
      vertex -2.912461179749811 -2.1160269082529033 0
      vertex -1.5773520240789543 -0.8671566133830877 -1.9
    endloop
  endfacet
  facet normal 0.26749053753146945 0.6756039774597756 0.6870284404387177
    outer loop
      vertex -1.532805449634261 -3.2573773888776705 0
      vertex -1.1124611797498107 -3.4238034586625528 0
      vertex -0.7664027248171305 -1.6286886944388352 -1.9
    endloop
  endfacet
  facet normal 0.3500569258514221 0.6367511842877055 0.6870284404387176
    outer loop
      vertex -1.9289764619243883 -3.0395805318072537 0
      vertex -1.532805449634261 -3.2573773888776705 0
      vertex -0.9644882309621942 -1.5197902659036269 -1.9
    endloop
  endfacet
  facet normal 0.1807056636435444 0.7038020923210513 0.6870284404387177
    outer loop
      vertex -0.5562305898749054 -1.7119017293312764 -1.9
      vertex -1.1124611797498107 -3.4238034586625528 0
      vertex -0.6745727325086094 -3.536234102623279 0
    endloop
  endfacet
  facet normal 0.09107095349162904 0.7209008277554334 0.6870284404387177
    outer loop
      vertex -0.6745727325086094 -3.536234102623279 0
      vertex -0.22604587030552956 -3.5928962223417775 0
      vertex -0.3372863662543047 -1.7681170513116395 -1.9
    endloop
  endfacet
  facet normal 0 0.7266305264908319 0.6870284404387176
    outer loop
      vertex -0.22604587030552956 -3.5928962223417775 0
      vertex 0.22604587030552956 -3.5928962223417775 0
      vertex -0.11302293515276478 -1.7964481111708888 -1.9
    endloop
  endfacet
  facet normal 0.7251966871297574 -0.045625508264218 0.6870284404387176
    outer loop
      vertex -1.8 0 -1.9
      vertex -1.78580646236606 0.22559982041574733 -1.9
      vertex -3.6 0 0
    endloop
  endfacet
  facet normal 0.7137599021622189 -0.13615698327196932 0.6870284404387176
    outer loop
      vertex -3.57161292473212 0.45119964083149466 0
      vertex -1.78580646236606 0.22559982041574733 -1.9
      vertex -1.743449690031536 0.4476417968967387 -1.9
    endloop
  endfacet
  facet normal 0.6910666971580839 -0.22454118131728237 0.6870284404387176
    outer loop
      vertex -1.743449690031536 0.4476417968967387 -1.9
      vertex -1.6735976745988526 0.6626241948324202 -1.9
      vertex -3.486899380063072 0.8952835937934774 0
    endloop
  endfacet
  facet normal 0.6574749575165312 -0.3093842307988223 0.6870284404387175
    outer loop
      vertex -1.5773520240789543 0.8671566133830877 -1.9
      vertex -3.1547040481579085 1.7343132267661754 0
      vertex -1.6735976745988526 0.6626241948324202 -1.9
    endloop
  endfacet
  facet normal 0.6135144450384414 -0.3893481061434828 0.6870284404387176
    outer loop
      vertex -1.4562305898749055 1.0580134541264516 -1.9
      vertex -2.912461179749811 2.1160269082529033 0
      vertex -1.5773520240789543 0.8671566133830877 -1.9
    endloop
  endfacet
  facet normal 0.55987844326633 -0.46317172926897693 0.6870284404387177
    outer loop
      vertex -1.4562305898749055 1.0580134541264516 -1.9
      vertex -1.312143529358541 1.2321847906716394 -1.9
      vertex -2.624287058717082 2.464369581343279 0
    endloop
  endfacet
  facet normal 0.4974128239887383 -0.5296908575385192 0.6870284404387176
    outer loop
      vertex -1.312143529358541 1.2321847906716394 -1.9
      vertex -1.1473631815476413 1.386923836996421 -1.9
      vertex -2.2947263630952826 2.773847673992842 0
    endloop
  endfacet
  facet normal 0.42710270733682554 -0.5878564445626989 0.6870284404387176
    outer loop
      vertex -0.9644882309621942 1.5197902659036269 -1.9
      vertex -1.9289764619243883 3.0395805318072537 0
      vertex -1.1473631815476413 1.386923836996421 -1.9
    endloop
  endfacet
  facet normal 0.3500569258514222 -0.6367511842877054 0.6870284404387176
    outer loop
      vertex -0.9644882309621942 1.5197902659036269 -1.9
      vertex -0.7664027248171309 1.628688694438835 -1.9
      vertex -1.5328054496342618 3.25737738887767 0
    endloop
  endfacet
  facet normal 0.2674905375314696 -0.6756039774597756 0.6870284404387177
    outer loop
      vertex -0.7664027248171309 1.628688694438835 -1.9
      vertex -0.5562305898749054 1.7119017293312764 -1.9
      vertex -1.1124611797498107 3.4238034586625528 0
    endloop
  endfacet
  facet normal 0.1807056636435445 -0.7038020923210514 0.6870284404387177
    outer loop
      vertex -0.5562305898749054 1.7119017293312764 -1.9
      vertex -0.33728636625430425 1.7681170513116398 -1.9
      vertex -0.6745727325086085 3.5362341026232795 0
    endloop
  endfacet
  facet normal 0.09107095349162835 -0.7209008277554335 0.6870284404387175
    outer loop
      vertex -0.226045870305527 3.5928962223417775 0
      vertex -0.33728636625430425 1.7681170513116398 -1.9
      vertex -0.1130229351527639 1.7964481111708888 -1.9
    endloop
  endfacet
  facet normal 0 -0.7266305264908318 0.6870284404387176
    outer loop
      vertex -0.226045870305527 3.5928962223417775 0
      vertex -0.1130229351527639 1.7964481111708888 -1.9
      vertex 0.11302293515276264 1.7964481111708888 -1.9
    endloop
  endfacet
  facet normal 0.7251966871297574 -0.045625508264218 0.6870284404387176
    outer loop
      vertex -3.6 0 0
      vertex -1.78580646236606 0.22559982041574733 -1.9
      vertex -3.57161292473212 0.45119964083149466 0
    endloop
  endfacet
  facet normal 0.7137599021622189 -0.13615698327196932 0.6870284404387176
    outer loop
      vertex -3.57161292473212 0.45119964083149466 0
      vertex -1.743449690031536 0.4476417968967387 -1.9
      vertex -3.486899380063072 0.8952835937934774 0
    endloop
  endfacet
  facet normal 0.6910666971580839 -0.22454118131728237 0.6870284404387176
    outer loop
      vertex -3.347195349197705 1.3252483896648404 0
      vertex -3.486899380063072 0.8952835937934774 0
      vertex -1.6735976745988526 0.6626241948324202 -1.9
    endloop
  endfacet
  facet normal 0.6574749575165312 -0.3093842307988223 0.6870284404387176
    outer loop
      vertex -3.347195349197705 1.3252483896648404 0
      vertex -1.6735976745988526 0.6626241948324202 -1.9
      vertex -3.1547040481579085 1.7343132267661754 0
    endloop
  endfacet
  facet normal 0.6135144450384414 -0.3893481061434828 0.6870284404387176
    outer loop
      vertex -2.912461179749811 2.1160269082529033 0
      vertex -3.1547040481579085 1.7343132267661754 0
      vertex -1.5773520240789543 0.8671566133830877 -1.9
    endloop
  endfacet
  facet normal 0.55987844326633 -0.46317172926897693 0.6870284404387177
    outer loop
      vertex -2.624287058717082 2.464369581343279 0
      vertex -2.912461179749811 2.1160269082529033 0
      vertex -1.4562305898749055 1.0580134541264516 -1.9
    endloop
  endfacet
  facet normal 0.49741282398873843 -0.5296908575385192 0.6870284404387176
    outer loop
      vertex -1.312143529358541 1.2321847906716394 -1.9
      vertex -2.2947263630952826 2.773847673992842 0
      vertex -2.624287058717082 2.464369581343279 0
    endloop
  endfacet
  facet normal 0.42710270733682554 -0.5878564445626989 0.6870284404387176
    outer loop
      vertex -1.9289764619243883 3.0395805318072537 0
      vertex -2.2947263630952826 2.773847673992842 0
      vertex -1.1473631815476413 1.386923836996421 -1.9
    endloop
  endfacet
  facet normal 0.3500569258514222 -0.6367511842877054 0.6870284404387175
    outer loop
      vertex -1.9289764619243883 3.0395805318072537 0
      vertex -0.9644882309621942 1.5197902659036269 -1.9
      vertex -1.5328054496342618 3.25737738887767 0
    endloop
  endfacet
  facet normal 0.2674905375314696 -0.6756039774597756 0.6870284404387177
    outer loop
      vertex -1.1124611797498107 3.4238034586625528 0
      vertex -1.5328054496342618 3.25737738887767 0
      vertex -0.7664027248171309 1.628688694438835 -1.9
    endloop
  endfacet
  facet normal 0.1807056636435445 -0.7038020923210514 0.6870284404387177
    outer loop
      vertex -0.6745727325086085 3.5362341026232795 0
      vertex -1.1124611797498107 3.4238034586625528 0
      vertex -0.5562305898749054 1.7119017293312764 -1.9
    endloop
  endfacet
  facet normal 0.091070953491628 -0.7209008277554335 0.6870284404387177
    outer loop
      vertex -0.226045870305527 3.5928962223417775 0
      vertex -0.6745727325086085 3.5362341026232795 0
      vertex -0.33728636625430425 1.7681170513116398 -1.9
    endloop
  endfacet
  facet normal 0 0.7266305264908318 0.6870284404387176
    outer loop
      vertex 0.22604587030552956 -3.5928962223417775 0
      vertex 0.11302293515276478 -1.7964481111708888 -1.9
      vertex -0.11302293515276478 -1.7964481111708888 -1.9
    endloop
  endfacet
  facet normal -0.09107095349162904 0.7209008277554334 0.6870284404387176
    outer loop
      vertex 0.11302293515276478 -1.7964481111708888 -1.9
      vertex 0.22604587030552956 -3.5928962223417775 0
      vertex 0.3372863662543047 -1.7681170513116395 -1.9
    endloop
  endfacet
  facet normal -0.18070566364354418 0.7038020923210514 0.6870284404387176
    outer loop
      vertex 0.5562305898749054 -1.7119017293312764 -1.9
      vertex 0.3372863662543047 -1.7681170513116395 -1.9
      vertex 0.6745727325086094 -3.536234102623279 0
    endloop
  endfacet
  facet normal -0.26749053753146945 0.6756039774597756 0.6870284404387176
    outer loop
      vertex 0.5562305898749054 -1.7119017293312764 -1.9
      vertex 1.1124611797498107 -3.4238034586625528 0
      vertex 0.7664027248171305 -1.6286886944388352 -1.9
    endloop
  endfacet
  facet normal -0.35005692585142184 0.6367511842877056 0.6870284404387177
    outer loop
      vertex 0.9644882309621932 -1.5197902659036275 -1.9
      vertex 0.7664027248171305 -1.6286886944388352 -1.9
      vertex 1.532805449634261 -3.2573773888776705 0
    endloop
  endfacet
  facet normal -0.4271027073368258 0.5878564445626987 0.6870284404387176
    outer loop
      vertex 1.147363181547642 -1.3869238369964203 -1.9
      vertex 0.9644882309621932 -1.5197902659036275 -1.9
      vertex 1.9289764619243863 -3.039580531807255 0
    endloop
  endfacet
  facet normal -0.4974128239887382 0.5296908575385192 0.6870284404387176
    outer loop
      vertex 1.312143529358541 -1.2321847906716394 -1.9
      vertex 1.147363181547642 -1.3869238369964203 -1.9
      vertex 2.294726363095284 -2.7738476739928406 0
    endloop
  endfacet
  facet normal -0.5598784432663303 0.4631717292689766 0.6870284404387175
    outer loop
      vertex 2.624287058717082 -2.464369581343279 0
      vertex 1.4562305898749055 -1.0580134541264516 -1.9
      vertex 1.312143529358541 -1.2321847906716394 -1.9
    endloop
  endfacet
  facet normal -0.6135144450384414 0.3893481061434828 0.6870284404387176
    outer loop
      vertex 1.4562305898749055 -1.0580134541264516 -1.9
      vertex 2.912461179749811 -2.1160269082529033 0
      vertex 1.5773520240789543 -0.8671566133830877 -1.9
    endloop
  endfacet
  facet normal -0.6574749575165313 0.3093842307988228 0.6870284404387174
    outer loop
      vertex 3.1547040481579085 -1.7343132267661754 0
      vertex 1.6735976745988523 -0.6626241948324211 -1.9
      vertex 1.5773520240789543 -0.8671566133830877 -1.9
    endloop
  endfacet
  facet normal -0.691066697158084 0.22454118131728215 0.6870284404387176
    outer loop
      vertex 1.7434496900315362 -0.447641796896738 -1.9
      vertex 1.6735976745988523 -0.6626241948324211 -1.9
      vertex 3.4868993800630723 -0.895283593793476 0
    endloop
  endfacet
  facet normal -0.7137599021622189 0.13615698327196907 0.6870284404387176
    outer loop
      vertex 1.78580646236606 -0.22559982041574733 -1.9
      vertex 1.7434496900315362 -0.447641796896738 -1.9
      vertex 3.57161292473212 -0.45119964083149466 0
    endloop
  endfacet
  facet normal -0.7251966871297574 0.045625508264218 0.6870284404387176
    outer loop
      vertex 1.8 0 -1.9
      vertex 1.78580646236606 -0.22559982041574733 -1.9
      vertex 3.6 0 0
    endloop
  endfacet
  facet normal -0.09107095349162904 0.7209008277554334 0.6870284404387176
    outer loop
      vertex 0.22604587030552956 -3.5928962223417775 0
      vertex 0.6745727325086094 -3.536234102623279 0
      vertex 0.3372863662543047 -1.7681170513116395 -1.9
    endloop
  endfacet
  facet normal -0.18070566364354418 0.7038020923210514 0.6870284404387176
    outer loop
      vertex 0.6745727325086094 -3.536234102623279 0
      vertex 1.1124611797498107 -3.4238034586625528 0
      vertex 0.5562305898749054 -1.7119017293312764 -1.9
    endloop
  endfacet
  facet normal -0.26749053753146945 0.6756039774597756 0.6870284404387176
    outer loop
      vertex 1.1124611797498107 -3.4238034586625528 0
      vertex 1.532805449634261 -3.2573773888776705 0
      vertex 0.7664027248171305 -1.6286886944388352 -1.9
    endloop
  endfacet
  facet normal -0.350056925851422 0.6367511842877055 0.6870284404387176
    outer loop
      vertex 0.9644882309621932 -1.5197902659036275 -1.9
      vertex 1.532805449634261 -3.2573773888776705 0
      vertex 1.9289764619243863 -3.039580531807255 0
    endloop
  endfacet
  facet normal -0.4271027073368258 0.5878564445626987 0.6870284404387176
    outer loop
      vertex 1.9289764619243863 -3.039580531807255 0
      vertex 2.294726363095284 -2.7738476739928406 0
      vertex 1.147363181547642 -1.3869238369964203 -1.9
    endloop
  endfacet
  facet normal -0.4974128239887382 0.5296908575385192 0.6870284404387176
    outer loop
      vertex 2.294726363095284 -2.7738476739928406 0
      vertex 2.624287058717082 -2.464369581343279 0
      vertex 1.312143529358541 -1.2321847906716394 -1.9
    endloop
  endfacet
  facet normal -0.55987844326633 0.46317172926897693 0.6870284404387177
    outer loop
      vertex 2.624287058717082 -2.464369581343279 0
      vertex 2.912461179749811 -2.1160269082529033 0
      vertex 1.4562305898749055 -1.0580134541264516 -1.9
    endloop
  endfacet
  facet normal -0.6135144450384414 0.3893481061434828 0.6870284404387176
    outer loop
      vertex 2.912461179749811 -2.1160269082529033 0
      vertex 3.1547040481579085 -1.7343132267661754 0
      vertex 1.5773520240789543 -0.8671566133830877 -1.9
    endloop
  endfacet
  facet normal -0.6574749575165308 0.3093842307988228 0.6870284404387176
    outer loop
      vertex 3.1547040481579085 -1.7343132267661754 0
      vertex 3.3471953491977047 -1.3252483896648422 0
      vertex 1.6735976745988523 -0.6626241948324211 -1.9
    endloop
  endfacet
  facet normal -0.691066697158084 0.22454118131728215 0.6870284404387176
    outer loop
      vertex 3.3471953491977047 -1.3252483896648422 0
      vertex 3.4868993800630723 -0.895283593793476 0
      vertex 1.6735976745988523 -0.6626241948324211 -1.9
    endloop
  endfacet
  facet normal -0.7137599021622189 0.13615698327196907 0.6870284404387177
    outer loop
      vertex 3.4868993800630723 -0.895283593793476 0
      vertex 3.57161292473212 -0.45119964083149466 0
      vertex 1.7434496900315362 -0.447641796896738 -1.9
    endloop
  endfacet
  facet normal -0.7251966871297574 0.045625508264218 0.6870284404387176
    outer loop
      vertex 3.57161292473212 -0.45119964083149466 0
      vertex 3.6 0 0
      vertex 1.78580646236606 -0.22559982041574733 -1.9
    endloop
  endfacet
  facet normal -0.09107095349162765 -0.7209008277554335 0.6870284404387177
    outer loop
      vertex 0.11302293515276264 1.7964481111708888 -1.9
      vertex 0.33728636625430425 1.7681170513116398 -1.9
      vertex 0.2260458703055278 3.5928962223417775 0
    endloop
  endfacet
  facet normal -0.1807056636435445 -0.7038020923210514 0.6870284404387177
    outer loop
      vertex 0.33728636625430425 1.7681170513116398 -1.9
      vertex 0.5562305898749054 1.7119017293312764 -1.9
      vertex 0.6745727325086085 3.5362341026232795 0
    endloop
  endfacet
  facet normal -0.2674905375314696 -0.6756039774597756 0.6870284404387177
    outer loop
      vertex 0.5562305898749054 1.7119017293312764 -1.9
      vertex 0.7664027248171309 1.628688694438835 -1.9
      vertex 1.1124611797498107 3.4238034586625528 0
    endloop
  endfacet
  facet normal -0.35005692585142184 -0.6367511842877057 0.6870284404387176
    outer loop
      vertex 0.7664027248171309 1.628688694438835 -1.9
      vertex 0.964488230962194 1.519790265903627 -1.9
      vertex 1.5328054496342618 3.25737738887767 0
    endloop
  endfacet
  facet normal -0.42710270733682637 -0.5878564445626981 0.6870284404387175
    outer loop
      vertex 0.964488230962194 1.519790265903627 -1.9
      vertex 1.1473631815476415 1.3869238369964205 -1.9
      vertex 1.928976461924388 3.039580531807254 0
    endloop
  endfacet
  facet normal -0.49741282398873793 -0.5296908575385196 0.6870284404387176
    outer loop
      vertex 1.1473631815476415 1.3869238369964205 -1.9
      vertex 1.3121435293585408 1.2321847906716397 -1.9
      vertex 2.294726363095283 2.773847673992841 0
    endloop
  endfacet
  facet normal -0.7251966871297574 -0.04562550826421793 0.6870284404387176
    outer loop
      vertex 1.8 0 -1.9
      vertex 3.6 0 0
      vertex 1.78580646236606 0.22559982041574766 -1.9
    endloop
  endfacet
  facet normal -0.7137599021622187 -0.13615698327196957 0.6870284404387176
    outer loop
      vertex 1.743449690031536 0.44764179689673866 -1.9
      vertex 1.78580646236606 0.22559982041574766 -1.9
      vertex 3.57161292473212 0.45119964083149533 0
    endloop
  endfacet
  facet normal -0.691066697158084 -0.22454118131728212 0.6870284404387177
    outer loop
      vertex 1.6735976745988526 0.6626241948324204 -1.9
      vertex 1.743449690031536 0.44764179689673866 -1.9
      vertex 3.486899380063072 0.8952835937934773 0
    endloop
  endfacet
  facet normal -0.6574749575165313 -0.30938423079882216 0.6870284404387177
    outer loop
      vertex 1.5773520240789545 0.8671566133830876 -1.9
      vertex 1.6735976745988526 0.6626241948324204 -1.9
      vertex 3.154704048157909 1.7343132267661752 0
    endloop
  endfacet
  facet normal -0.5598784432663299 -0.463171729268977 0.6870284404387176
    outer loop
      vertex 1.3121435293585408 1.2321847906716397 -1.9
      vertex 1.4562305898749055 1.0580134541264516 -1.9
      vertex 2.6242870587170817 2.4643695813432793 0
    endloop
  endfacet
  facet normal -0.6135144450384412 -0.3893481061434832 0.6870284404387177
    outer loop
      vertex 1.4562305898749055 1.0580134541264516 -1.9
      vertex 1.5773520240789545 0.8671566133830876 -1.9
      vertex 2.912461179749811 2.1160269082529033 0
    endloop
  endfacet
  facet normal 0 -0.7266305264908317 0.6870284404387175
    outer loop
      vertex -0.226045870305527 3.5928962223417775 0
      vertex 0.11302293515276264 1.7964481111708888 -1.9
      vertex 0.2260458703055278 3.5928962223417775 0
    endloop
  endfacet
  facet normal -0.09107095349162816 -0.7209008277554334 0.6870284404387176
    outer loop
      vertex 0.6745727325086085 3.5362341026232795 0
      vertex 0.2260458703055278 3.5928962223417775 0
      vertex 0.33728636625430425 1.7681170513116398 -1.9
    endloop
  endfacet
  facet normal -0.1807056636435445 -0.7038020923210514 0.6870284404387177
    outer loop
      vertex 1.1124611797498107 3.4238034586625528 0
      vertex 0.6745727325086085 3.5362341026232795 0
      vertex 0.5562305898749054 1.7119017293312764 -1.9
    endloop
  endfacet
  facet normal -0.35005692585142184 -0.6367511842877057 0.6870284404387176
    outer loop
      vertex 1.928976461924388 3.039580531807254 0
      vertex 1.5328054496342618 3.25737738887767 0
      vertex 0.964488230962194 1.519790265903627 -1.9
    endloop
  endfacet
  facet normal -0.2674905375314696 -0.6756039774597756 0.6870284404387177
    outer loop
      vertex 1.5328054496342618 3.25737738887767 0
      vertex 1.1124611797498107 3.4238034586625528 0
      vertex 0.7664027248171309 1.628688694438835 -1.9
    endloop
  endfacet
  facet normal -0.6135144450384412 -0.3893481061434832 0.6870284404387177
    outer loop
      vertex 3.154704048157909 1.7343132267661752 0
      vertex 2.912461179749811 2.1160269082529033 0
      vertex 1.5773520240789545 0.8671566133830876 -1.9
    endloop
  endfacet
  facet normal -0.7251966871297574 -0.04562550826421797 0.6870284404387175
    outer loop
      vertex 1.78580646236606 0.22559982041574766 -1.9
      vertex 3.6 0 0
      vertex 3.57161292473212 0.45119964083149533 0
    endloop
  endfacet
  facet normal -0.7137599021622187 -0.13615698327196957 0.6870284404387176
    outer loop
      vertex 1.743449690031536 0.44764179689673866 -1.9
      vertex 3.57161292473212 0.45119964083149533 0
      vertex 3.486899380063072 0.8952835937934773 0
    endloop
  endfacet
  facet normal -0.6910666971580839 -0.2245411813172818 0.6870284404387177
    outer loop
      vertex 1.6735976745988526 0.6626241948324204 -1.9
      vertex 3.486899380063072 0.8952835937934773 0
      vertex 3.347195349197705 1.3252483896648408 0
    endloop
  endfacet
  facet normal -0.6574749575165313 -0.30938423079882216 0.6870284404387177
    outer loop
      vertex 3.347195349197705 1.3252483896648408 0
      vertex 3.154704048157909 1.7343132267661752 0
      vertex 1.6735976745988526 0.6626241948324204 -1.9
    endloop
  endfacet
  facet normal -0.49741282398873793 -0.5296908575385196 0.6870284404387176
    outer loop
      vertex 2.6242870587170817 2.4643695813432793 0
      vertex 2.294726363095283 2.773847673992841 0
      vertex 1.3121435293585408 1.2321847906716397 -1.9
    endloop
  endfacet
  facet normal -0.42710270733682637 -0.5878564445626981 0.6870284404387176
    outer loop
      vertex 2.294726363095283 2.773847673992841 0
      vertex 1.928976461924388 3.039580531807254 0
      vertex 1.1473631815476415 1.3869238369964205 -1.9
    endloop
  endfacet
  facet normal -0.5598784432663299 -0.463171729268977 0.6870284404387176
    outer loop
      vertex 2.912461179749811 2.1160269082529033 0
      vertex 2.6242870587170817 2.4643695813432793 0
      vertex 1.4562305898749055 1.0580134541264516 -1.9
    endloop
  endfacet
  facet normal -0.8443279255020153 -0.5358267949789964 0
    outer loop
      vertex -5.663118960624632 -4.114496766047312 -1.9
      vertex -6.134146760307044 -3.372275718712008 0
      vertex -6.134146760307044 -3.372275718712008 -1.9
    endloop
  endfacet
  facet normal -0.7705132427757893 -0.6374239897486896 0
    outer loop
      vertex -5.663118960624632 -4.114496766047312 -1.9
      vertex -5.1027803919498815 -4.79182974150082 -1.9
      vertex -5.663118960624632 -4.114496766047312 0
    endloop
  endfacet
  facet normal -0.5877852522924721 -0.8090169943749481 0
    outer loop
      vertex -4.461967928240828 -5.393592699430526 -1.9
      vertex -3.7507875648529776 -5.910295478514104 -1.9
      vertex -3.7507875648529776 -5.910295478514104 0
    endloop
  endfacet
  facet normal -0.6845471059286894 -0.7289686274214108 0
    outer loop
      vertex -4.461967928240828 -5.393592699430526 -1.9
      vertex -4.461967928240828 -5.393592699430526 0
      vertex -5.1027803919498815 -4.79182974150082 -1.9
    endloop
  endfacet
  facet normal 0 0 -1
    outer loop
      vertex -6.50843540121776 -2.576871868792745 -1.9
      vertex -6.7800821279004175 -1.740829210153984 -1.9
      vertex -6.50843540121776 2.576871868792745 -1.9
    endloop
  endfacet
  facet normal 0 0 -1
    outer loop
      vertex -6.7800821279004175 -1.740829210153984 -1.9
      vertex -6.9448029092013455 -0.8773326349501285 -1.9
      vertex -6.7800821279004175 1.740829210153984 -1.9
    endloop
  endfacet
  facet normal 0 0 -1
    outer loop
      vertex -6.134146760307044 -3.372275718712008 -1.9
      vertex -6.50843540121776 -2.576871868792745 -1.9
      vertex -6.134146760307044 3.372275718712008 -1.9
    endloop
  endfacet
  facet normal 0 0 -1
    outer loop
      vertex -5.663118960624632 -4.114496766047312 -1.9
      vertex -6.134146760307044 -3.372275718712008 -1.9
      vertex -5.663118960624632 4.114496766047312 -1.9
    endloop
  endfacet
  facet normal 0 0 -1
    outer loop
      vertex -5.663118960624632 -4.114496766047312 -1.9
      vertex -5.1027803919498815 4.79182974150082 -1.9
      vertex -5.1027803919498815 -4.79182974150082 -1.9
    endloop
  endfacet
  facet normal 0 0 -1
    outer loop
      vertex -4.461967928240828 -5.393592699430526 -1.9
      vertex -3.7507875648529776 5.910295478514104 -1.9
      vertex -3.7507875648529776 -5.910295478514104 -1.9
    endloop
  endfacet
  facet normal 0 0 -1
    outer loop
      vertex -4.461967928240828 -5.393592699430526 -1.9
      vertex -5.1027803919498815 -4.79182974150082 -1.9
      vertex -4.461967928240828 5.393592699430526 -1.9
    endloop
  endfacet
  facet normal -0.9048270524660195 -0.4257792915650727 0
    outer loop
      vertex -6.134146760307044 -3.372275718712008 -1.9
      vertex -6.50843540121776 -2.576871868792745 0
      vertex -6.50843540121776 -2.576871868792745 -1.9
    endloop
  endfacet
  facet normal -0.9510565162951535 -0.30901699437494745 0
    outer loop
      vertex -6.50843540121776 -2.576871868792745 -1.9
      vertex -6.7800821279004175 -1.740829210153984 0
      vertex -6.7800821279004175 -1.740829210153984 -1.9
    endloop
  endfacet
  facet normal -0.9822872507286886 -0.18738131458572532 0
    outer loop
      vertex -6.7800821279004175 -1.740829210153984 -1.9
      vertex -6.9448029092013455 -0.8773326349501285 0
      vertex -6.9448029092013455 -0.8773326349501285 -1.9
    endloop
  endfacet
  facet normal -0.9980267284282716 -0.06279051952931274 0
    outer loop
      vertex -6.9448029092013455 -0.8773326349501285 -1.9
      vertex -7 0 0
      vertex -7 0 -1.9
    endloop
  endfacet
  facet normal 0 0 -1
    outer loop
      vertex -0.43953363670519635 -6.986187098997901 -1.9
      vertex -0.11302293515276478 -1.7964481111708888 -1.9
      vertex 0.43953363670519635 -6.986187098997901 -1.9
    endloop
  endfacet
  facet normal 0 0 -1
    outer loop
      vertex -2.1631189606246317 -6.657395614066075 -1.9
      vertex -1.1473631815476413 -1.386923836996421 -1.9
      vertex -1.3116692021000738 -6.87601075510082 -1.9
    endloop
  endfacet
  facet normal 0 0 -1
    outer loop
      vertex -1.3116692021000738 -6.87601075510082 -1.9
      vertex -0.3372863662543047 -1.7681170513116395 -1.9
      vertex -0.43953363670519635 -6.986187098997901 -1.9
    endloop
  endfacet
  facet normal 0 0 -1
    outer loop
      vertex -0.43953363670519635 -6.986187098997901 -1.9
      vertex -0.3372863662543047 -1.7681170513116395 -1.9
      vertex -0.11302293515276478 -1.7964481111708888 -1.9
    endloop
  endfacet
  facet normal -0.48175367410171493 -0.8763066800438638 0
    outer loop
      vertex -3.7507875648529776 -5.910295478514104 -1.9
      vertex -2.980455040955507 -6.333789367262137 -1.9
      vertex -2.980455040955507 -6.333789367262137 0
    endloop
  endfacet
  facet normal -0.3681245526846782 -0.9297764858882512 0
    outer loop
      vertex -2.980455040955507 -6.333789367262137 -1.9
      vertex -2.1631189606246317 -6.657395614066075 -1.9
      vertex -2.1631189606246317 -6.657395614066075 0
    endloop
  endfacet
  facet normal -0.24868988716485488 -0.9685831611286311 0
    outer loop
      vertex -2.1631189606246317 -6.657395614066075 -1.9
      vertex -1.3116692021000738 -6.87601075510082 -1.9
      vertex -1.3116692021000738 -6.87601075510082 0
    endloop
  endfacet
  facet normal -0.12533323356430498 -0.9921147013144778 0
    outer loop
      vertex -1.3116692021000738 -6.87601075510082 -1.9
      vertex -0.43953363670519635 -6.986187098997901 -1.9
      vertex -0.43953363670519635 -6.986187098997901 0
    endloop
  endfacet
  facet normal 0 0 -1
    outer loop
      vertex -3.7507875648529776 -5.910295478514104 -1.9
      vertex -2.980455040955509 6.333789367262137 -1.9
      vertex -2.980455040955507 -6.333789367262137 -1.9
    endloop
  endfacet
  facet normal 0 0 -1
    outer loop
      vertex -2.1631189606246317 -6.657395614066075 -1.9
      vertex -1.6735976745988526 -0.6626241948324202 -1.9
      vertex -1.5773520240789543 -0.8671566133830877 -1.9
    endloop
  endfacet
  facet normal 0 0 -1
    outer loop
      vertex -2.980455040955507 -6.333789367262137 -1.9
      vertex -2.1631189606246317 6.657395614066075 -1.9
      vertex -2.1631189606246317 -6.657395614066075 -1.9
    endloop
  endfacet
  facet normal 0 0 -1
    outer loop
      vertex -2.1631189606246317 -6.657395614066075 -1.9
      vertex -1.743449690031536 -0.4476417968967387 -1.9
      vertex -1.6735976745988526 -0.6626241948324202 -1.9
    endloop
  endfacet
  facet normal 0 0 -1
    outer loop
      vertex -2.1631189606246317 -6.657395614066075 -1.9
      vertex -1.78580646236606 -0.22559982041574733 -1.9
      vertex -1.743449690031536 -0.4476417968967387 -1.9
    endloop
  endfacet
  facet normal 0 0 -1
    outer loop
      vertex -2.1631189606246317 -6.657395614066075 -1.9
      vertex -1.8 0 -1.9
      vertex -1.78580646236606 -0.22559982041574733 -1.9
    endloop
  endfacet
  facet normal 0 0 -1
    outer loop
      vertex -2.1631189606246317 -6.657395614066075 -1.9
      vertex -1.312143529358541 -1.2321847906716394 -1.9
      vertex -1.1473631815476413 -1.386923836996421 -1.9
    endloop
  endfacet
  facet normal 0 0 -1
    outer loop
      vertex -2.1631189606246317 -6.657395614066075 -1.9
      vertex -1.4562305898749055 -1.0580134541264516 -1.9
      vertex -1.312143529358541 -1.2321847906716394 -1.9
    endloop
  endfacet
  facet normal 0 0 -1
    outer loop
      vertex -2.1631189606246317 -6.657395614066075 -1.9
      vertex -1.5773520240789543 -0.8671566133830877 -1.9
      vertex -1.4562305898749055 -1.0580134541264516 -1.9
    endloop
  endfacet
  facet normal 0 0 -1
    outer loop
      vertex -1.3116692021000738 -6.87601075510082 -1.9
      vertex -1.1473631815476413 -1.386923836996421 -1.9
      vertex -0.9644882309621942 -1.5197902659036269 -1.9
    endloop
  endfacet
  facet normal 0 0 -1
    outer loop
      vertex -1.3116692021000738 -6.87601075510082 -1.9
      vertex -0.9644882309621942 -1.5197902659036269 -1.9
      vertex -0.7664027248171305 -1.6286886944388352 -1.9
    endloop
  endfacet
  facet normal 0 0 -1
    outer loop
      vertex -1.3116692021000738 -6.87601075510082 -1.9
      vertex -0.7664027248171305 -1.6286886944388352 -1.9
      vertex -0.5562305898749054 -1.7119017293312764 -1.9
    endloop
  endfacet
  facet normal 0 0 -1
    outer loop
      vertex -1.3116692021000738 -6.87601075510082 -1.9
      vertex -0.5562305898749054 -1.7119017293312764 -1.9
      vertex -0.3372863662543047 -1.7681170513116395 -1.9
    endloop
  endfacet
  facet normal -0.7705132427757893 -0.6374239897486896 0
    outer loop
      vertex -5.1027803919498815 -4.79182974150082 -1.9
      vertex -5.1027803919498815 -4.79182974150082 0
      vertex -5.663118960624632 -4.114496766047312 0
    endloop
  endfacet
  facet normal -0.8443279255020153 -0.5358267949789964 0
    outer loop
      vertex -5.663118960624632 -4.114496766047312 -1.9
      vertex -5.663118960624632 -4.114496766047312 0
      vertex -6.134146760307044 -3.372275718712008 0
    endloop
  endfacet
  facet normal -0.5877852522924721 -0.8090169943749481 0
    outer loop
      vertex -4.461967928240828 -5.393592699430526 -1.9
      vertex -3.7507875648529776 -5.910295478514104 0
      vertex -4.461967928240828 -5.393592699430526 0
    endloop
  endfacet
  facet normal -0.6845471059286894 -0.7289686274214108 0
    outer loop
      vertex -5.1027803919498815 -4.79182974150082 -1.9
      vertex -4.461967928240828 -5.393592699430526 0
      vertex -5.1027803919498815 -4.79182974150082 0
    endloop
  endfacet
  facet normal -0.9048270524660195 -0.4257792915650727 0
    outer loop
      vertex -6.134146760307044 -3.372275718712008 -1.9
      vertex -6.134146760307044 -3.372275718712008 0
      vertex -6.50843540121776 -2.576871868792745 0
    endloop
  endfacet
  facet normal -0.9510565162951535 -0.30901699437494745 0
    outer loop
      vertex -6.50843540121776 -2.576871868792745 -1.9
      vertex -6.50843540121776 -2.576871868792745 0
      vertex -6.7800821279004175 -1.740829210153984 0
    endloop
  endfacet
  facet normal -0.9822872507286886 -0.18738131458572532 0
    outer loop
      vertex -6.7800821279004175 -1.740829210153984 -1.9
      vertex -6.7800821279004175 -1.740829210153984 0
      vertex -6.9448029092013455 -0.8773326349501285 0
    endloop
  endfacet
  facet normal -0.9980267284282716 -0.06279051952931274 0
    outer loop
      vertex -6.9448029092013455 -0.8773326349501285 -1.9
      vertex -6.9448029092013455 -0.8773326349501285 0
      vertex -7 0 0
    endloop
  endfacet
  facet normal 0 0 1
    outer loop
      vertex -6.134146760307044 -3.372275718712008 0
      vertex -6.50843540121776 2.576871868792745 0
      vertex -6.50843540121776 -2.576871868792745 0
    endloop
  endfacet
  facet normal 0 0 1
    outer loop
      vertex -6.7800821279004175 -1.740829210153984 0
      vertex -6.9448029092013455 0.8773326349501285 0
      vertex -6.9448029092013455 -0.8773326349501285 0
    endloop
  endfacet
  facet normal 0 0 1
    outer loop
      vertex -6.50843540121776 -2.576871868792745 0
      vertex -6.7800821279004175 1.740829210153984 0
      vertex -6.7800821279004175 -1.740829210153984 0
    endloop
  endfacet
  facet normal 0 0 1
    outer loop
      vertex -5.663118960624632 -4.114496766047312 0
      vertex -6.134146760307044 3.372275718712008 0
      vertex -6.134146760307044 -3.372275718712008 0
    endloop
  endfacet
  facet normal 0 0 1
    outer loop
      vertex -5.663118960624632 -4.114496766047312 0
      vertex -5.1027803919498815 -4.79182974150082 0
      vertex -5.663118960624632 4.114496766047312 0
    endloop
  endfacet
  facet normal 0 0 1
    outer loop
      vertex -4.461967928240828 -5.393592699430526 0
      vertex -5.1027803919498815 4.79182974150082 0
      vertex -5.1027803919498815 -4.79182974150082 0
    endloop
  endfacet
  facet normal 0 0 1
    outer loop
      vertex -3.7507875648529776 -5.910295478514104 0
      vertex -3.347195349197705 -1.3252483896648404 0
      vertex -3.486899380063072 -0.8952835937934774 0
    endloop
  endfacet
  facet normal 0 0 1
    outer loop
      vertex -4.461967928240828 -5.393592699430526 0
      vertex -3.7507875648529776 -5.910295478514104 0
      vertex -4.461967928240828 5.393592699430526 0
    endloop
  endfacet
  facet normal 0 0 1
    outer loop
      vertex -3.7507875648529776 -5.910295478514104 0
      vertex -3.486899380063072 -0.8952835937934774 0
      vertex -3.57161292473212 -0.45119964083149466 0
    endloop
  endfacet
  facet normal 0 0 1
    outer loop
      vertex -3.7507875648529776 -5.910295478514104 0
      vertex -3.57161292473212 -0.45119964083149466 0
      vertex -3.6 0 0
    endloop
  endfacet
  facet normal -0.3681245526846782 -0.9297764858882512 0
    outer loop
      vertex -2.980455040955507 -6.333789367262137 -1.9
      vertex -2.1631189606246317 -6.657395614066075 0
      vertex -2.980455040955507 -6.333789367262137 0
    endloop
  endfacet
  facet normal -0.48175367410171493 -0.8763066800438638 0
    outer loop
      vertex -3.7507875648529776 -5.910295478514104 -1.9
      vertex -2.980455040955507 -6.333789367262137 0
      vertex -3.7507875648529776 -5.910295478514104 0
    endloop
  endfacet
  facet normal -0.24868988716485488 -0.9685831611286311 0
    outer loop
      vertex -2.1631189606246317 -6.657395614066075 -1.9
      vertex -1.3116692021000738 -6.87601075510082 0
      vertex -2.1631189606246317 -6.657395614066075 0
    endloop
  endfacet
  facet normal -0.12533323356430498 -0.9921147013144778 0
    outer loop
      vertex -1.3116692021000738 -6.87601075510082 -1.9
      vertex -0.43953363670519635 -6.986187098997901 0
      vertex -1.3116692021000738 -6.87601075510082 0
    endloop
  endfacet
  facet normal 0 -1 0
    outer loop
      vertex -0.43953363670519635 -6.986187098997901 -1.9
      vertex 0.43953363670519635 -6.986187098997901 0
      vertex -0.43953363670519635 -6.986187098997901 0
    endloop
  endfacet
  facet normal 0 0 1
    outer loop
      vertex -2.1631189606246317 -6.657395614066075 0
      vertex -1.3116692021000738 -6.87601075510082 0
      vertex -1.9289764619243883 -3.0395805318072537 0
    endloop
  endfacet
  facet normal 0 0 1
    outer loop
      vertex -3.7507875648529776 -5.910295478514104 0
      vertex -2.980455040955507 -6.333789367262137 0
      vertex -3.347195349197705 -1.3252483896648404 0
    endloop
  endfacet
  facet normal 0 0 1
    outer loop
      vertex -2.980455040955507 -6.333789367262137 0
      vertex -2.624287058717082 -2.464369581343279 0
      vertex -2.912461179749811 -2.1160269082529033 0
    endloop
  endfacet
  facet normal 0 0 1
    outer loop
      vertex -2.980455040955507 -6.333789367262137 0
      vertex -2.1631189606246317 -6.657395614066075 0
      vertex -2.624287058717082 -2.464369581343279 0
    endloop
  endfacet
  facet normal 0 0 1
    outer loop
      vertex -2.1631189606246317 -6.657395614066075 0
      vertex -2.2947263630952826 -2.773847673992842 0
      vertex -2.624287058717082 -2.464369581343279 0
    endloop
  endfacet
  facet normal 0 0 1
    outer loop
      vertex -2.1631189606246317 -6.657395614066075 0
      vertex -1.9289764619243883 -3.0395805318072537 0
      vertex -2.2947263630952826 -2.773847673992842 0
    endloop
  endfacet
  facet normal 0 0 1
    outer loop
      vertex -1.3116692021000738 -6.87601075510082 0
      vertex -0.43953363670519635 -6.986187098997901 0
      vertex -0.6745727325086094 -3.536234102623279 0
    endloop
  endfacet
  facet normal 0 0 1
    outer loop
      vertex -1.3116692021000738 -6.87601075510082 0
      vertex -1.532805449634261 -3.2573773888776705 0
      vertex -1.9289764619243883 -3.0395805318072537 0
    endloop
  endfacet
  facet normal 0 0 1
    outer loop
      vertex -1.3116692021000738 -6.87601075510082 0
      vertex -1.1124611797498107 -3.4238034586625528 0
      vertex -1.532805449634261 -3.2573773888776705 0
    endloop
  endfacet
  facet normal 0 0 1
    outer loop
      vertex -1.3116692021000738 -6.87601075510082 0
      vertex -0.6745727325086094 -3.536234102623279 0
      vertex -1.1124611797498107 -3.4238034586625528 0
    endloop
  endfacet
  facet normal 0 0 1
    outer loop
      vertex -0.43953363670519635 -6.986187098997901 0
      vertex -0.22604587030552956 -3.5928962223417775 0
      vertex -0.6745727325086094 -3.536234102623279 0
    endloop
  endfacet
  facet normal 0 0 1
    outer loop
      vertex -0.43953363670519635 -6.986187098997901 0
      vertex 0.22604587030552956 -3.5928962223417775 0
      vertex -0.22604587030552956 -3.5928962223417775 0
    endloop
  endfacet
  facet normal 0 0 1
    outer loop
      vertex -2.980455040955507 -6.333789367262137 0
      vertex -3.1547040481579085 -1.7343132267661754 0
      vertex -3.347195349197705 -1.3252483896648404 0
    endloop
  endfacet
  facet normal 0 0 1
    outer loop
      vertex -2.980455040955507 -6.333789367262137 0
      vertex -2.912461179749811 -2.1160269082529033 0
      vertex -3.1547040481579085 -1.7343132267661754 0
    endloop
  endfacet
  facet normal 0 0 -1
    outer loop
      vertex -6.9448029092013455 -0.8773326349501285 -1.9
      vertex -7 0 -1.9
      vertex -6.9448029092013455 0.8773326349501285 -1.9
    endloop
  endfacet
  facet normal 0 0 -1
    outer loop
      vertex -6.9448029092013455 -0.8773326349501285 -1.9
      vertex -6.9448029092013455 0.8773326349501285 -1.9
      vertex -6.7800821279004175 1.740829210153984 -1.9
    endloop
  endfacet
  facet normal 0 0 -1
    outer loop
      vertex -6.7800821279004175 -1.740829210153984 -1.9
      vertex -6.7800821279004175 1.740829210153984 -1.9
      vertex -6.50843540121776 2.576871868792745 -1.9
    endloop
  endfacet
  facet normal 0 0 -1
    outer loop
      vertex -6.50843540121776 -2.576871868792745 -1.9
      vertex -6.50843540121776 2.576871868792745 -1.9
      vertex -6.134146760307044 3.372275718712008 -1.9
    endloop
  endfacet
  facet normal 0 0 -1
    outer loop
      vertex -6.134146760307044 -3.372275718712008 -1.9
      vertex -6.134146760307044 3.372275718712008 -1.9
      vertex -5.663118960624632 4.114496766047312 -1.9
    endloop
  endfacet
  facet normal 0 0 -1
    outer loop
      vertex -5.663118960624632 -4.114496766047312 -1.9
      vertex -5.663118960624632 4.114496766047312 -1.9
      vertex -5.1027803919498815 4.79182974150082 -1.9
    endloop
  endfacet
  facet normal 0 0 -1
    outer loop
      vertex -5.1027803919498815 -4.79182974150082 -1.9
      vertex -5.1027803919498815 4.79182974150082 -1.9
      vertex -4.461967928240828 5.393592699430526 -1.9
    endloop
  endfacet
  facet normal 0 0 -1
    outer loop
      vertex -4.461967928240828 -5.393592699430526 -1.9
      vertex -4.461967928240828 5.393592699430526 -1.9
      vertex -3.7507875648529776 5.910295478514104 -1.9
    endloop
  endfacet
  facet normal -0.9980267284282716 0.06279051952931274 0
    outer loop
      vertex -7 0 -1.9
      vertex -6.9448029092013455 0.8773326349501285 0
      vertex -6.9448029092013455 0.8773326349501285 -1.9
    endloop
  endfacet
  facet normal -0.9822872507286886 0.18738131458572532 0
    outer loop
      vertex -6.9448029092013455 0.8773326349501285 -1.9
      vertex -6.7800821279004175 1.740829210153984 0
      vertex -6.7800821279004175 1.740829210153984 -1.9
    endloop
  endfacet
  facet normal -0.9510565162951535 0.30901699437494745 0
    outer loop
      vertex -6.7800821279004175 1.740829210153984 -1.9
      vertex -6.50843540121776 2.576871868792745 0
      vertex -6.50843540121776 2.576871868792745 -1.9
    endloop
  endfacet
  facet normal -0.9048270524660195 0.4257792915650727 0
    outer loop
      vertex -6.50843540121776 2.576871868792745 -1.9
      vertex -6.134146760307044 3.372275718712008 0
      vertex -6.134146760307044 3.372275718712008 -1.9
    endloop
  endfacet
  facet normal -0.8443279255020153 0.5358267949789964 0
    outer loop
      vertex -6.134146760307044 3.372275718712008 -1.9
      vertex -5.663118960624632 4.114496766047312 0
      vertex -5.663118960624632 4.114496766047312 -1.9
    endloop
  endfacet
  facet normal -0.7705132427757893 0.6374239897486896 0
    outer loop
      vertex -5.663118960624632 4.114496766047312 -1.9
      vertex -5.1027803919498815 4.79182974150082 0
      vertex -5.1027803919498815 4.79182974150082 -1.9
    endloop
  endfacet
  facet normal -0.6845471059286894 0.7289686274214108 0
    outer loop
      vertex -5.1027803919498815 4.79182974150082 -1.9
      vertex -5.1027803919498815 4.79182974150082 0
      vertex -4.461967928240828 5.393592699430526 -1.9
    endloop
  endfacet
  facet normal -0.5877852522924721 0.8090169943749481 0
    outer loop
      vertex -4.461967928240828 5.393592699430526 -1.9
      vertex -4.461967928240828 5.393592699430526 0
      vertex -3.7507875648529776 5.910295478514104 -1.9
    endloop
  endfacet
  facet normal 0 0 -1
    outer loop
      vertex -2.1631189606246317 -6.657395614066075 -1.9
      vertex -2.1631189606246317 6.657395614066075 -1.9
      vertex -1.8 0 -1.9
    endloop
  endfacet
  facet normal 0 0 -1
    outer loop
      vertex -3.7507875648529776 -5.910295478514104 -1.9
      vertex -3.7507875648529776 5.910295478514104 -1.9
      vertex -2.980455040955509 6.333789367262137 -1.9
    endloop
  endfacet
  facet normal 0 0 -1
    outer loop
      vertex -2.980455040955507 -6.333789367262137 -1.9
      vertex -2.980455040955509 6.333789367262137 -1.9
      vertex -2.1631189606246317 6.657395614066075 -1.9
    endloop
  endfacet
  facet normal 0 0 -1
    outer loop
      vertex -2.1631189606246317 6.657395614066075 -1.9
      vertex -1.78580646236606 0.22559982041574733 -1.9
      vertex -1.8 0 -1.9
    endloop
  endfacet
  facet normal 0 0 -1
    outer loop
      vertex -2.1631189606246317 6.657395614066075 -1.9
      vertex -1.743449690031536 0.4476417968967387 -1.9
      vertex -1.78580646236606 0.22559982041574733 -1.9
    endloop
  endfacet
  facet normal 0 0 -1
    outer loop
      vertex -1.311669202100072 6.876010755100821 -1.9
      vertex -1.6735976745988526 0.6626241948324202 -1.9
      vertex -1.743449690031536 0.4476417968967387 -1.9
    endloop
  endfacet
  facet normal 0 0 -1
    outer loop
      vertex -1.311669202100072 6.876010755100821 -1.9
      vertex -1.5773520240789543 0.8671566133830877 -1.9
      vertex -1.6735976745988526 0.6626241948324202 -1.9
    endloop
  endfacet
  facet normal 0 0 -1
    outer loop
      vertex -1.311669202100072 6.876010755100821 -1.9
      vertex -1.4562305898749055 1.0580134541264516 -1.9
      vertex -1.5773520240789543 0.8671566133830877 -1.9
    endloop
  endfacet
  facet normal 0 0 -1
    outer loop
      vertex -1.311669202100072 6.876010755100821 -1.9
      vertex -1.312143529358541 1.2321847906716394 -1.9
      vertex -1.4562305898749055 1.0580134541264516 -1.9
    endloop
  endfacet
  facet normal 0 0 -1
    outer loop
      vertex -1.311669202100072 6.876010755100821 -1.9
      vertex -1.1473631815476413 1.386923836996421 -1.9
      vertex -1.312143529358541 1.2321847906716394 -1.9
    endloop
  endfacet
  facet normal 0 0 -1
    outer loop
      vertex -1.311669202100072 6.876010755100821 -1.9
      vertex -0.9644882309621942 1.5197902659036269 -1.9
      vertex -1.1473631815476413 1.386923836996421 -1.9
    endloop
  endfacet
  facet normal 0 0 -1
    outer loop
      vertex -0.43953363670519296 6.986187098997901 -1.9
      vertex -0.7664027248171309 1.628688694438835 -1.9
      vertex -0.9644882309621942 1.5197902659036269 -1.9
    endloop
  endfacet
  facet normal 0 0 -1
    outer loop
      vertex -0.43953363670519296 6.986187098997901 -1.9
      vertex -0.5562305898749054 1.7119017293312764 -1.9
      vertex -0.7664027248171309 1.628688694438835 -1.9
    endloop
  endfacet
  facet normal 0 0 -1
    outer loop
      vertex -0.43953363670519296 6.986187098997901 -1.9
      vertex -0.33728636625430425 1.7681170513116398 -1.9
      vertex -0.5562305898749054 1.7119017293312764 -1.9
    endloop
  endfacet
  facet normal 0 0 -1
    outer loop
      vertex -2.1631189606246317 6.657395614066075 -1.9
      vertex -1.311669202100072 6.876010755100821 -1.9
      vertex -1.743449690031536 0.4476417968967387 -1.9
    endloop
  endfacet
  facet normal 0 0 -1
    outer loop
      vertex -1.311669202100072 6.876010755100821 -1.9
      vertex -0.43953363670519296 6.986187098997901 -1.9
      vertex -0.9644882309621942 1.5197902659036269 -1.9
    endloop
  endfacet
  facet normal 0 0 -1
    outer loop
      vertex -0.43953363670519296 6.986187098997901 -1.9
      vertex -0.1130229351527639 1.7964481111708888 -1.9
      vertex -0.33728636625430425 1.7681170513116398 -1.9
    endloop
  endfacet
  facet normal 0 0 -1
    outer loop
      vertex -0.43953363670519296 6.986187098997901 -1.9
      vertex 0.11302293515276264 1.7964481111708888 -1.9
      vertex -0.1130229351527639 1.7964481111708888 -1.9
    endloop
  endfacet
  facet normal -0.48175367410171577 0.8763066800438634 0
    outer loop
      vertex -3.7507875648529776 5.910295478514104 -1.9
      vertex -3.7507875648529776 5.910295478514104 0
      vertex -2.980455040955509 6.333789367262137 -1.9
    endloop
  endfacet
  facet normal -0.3681245526846775 0.9297764858882517 0
    outer loop
      vertex -2.980455040955509 6.333789367262137 -1.9
      vertex -2.980455040955509 6.333789367262137 0
      vertex -2.1631189606246317 6.657395614066075 -1.9
    endloop
  endfacet
  facet normal -0.24868988716485532 0.9685831611286309 0
    outer loop
      vertex -2.1631189606246317 6.657395614066075 -1.9
      vertex -2.1631189606246317 6.657395614066075 0
      vertex -1.311669202100072 6.876010755100821 -1.9
    endloop
  endfacet
  facet normal -0.12533323356430373 0.9921147013144778 0
    outer loop
      vertex -1.311669202100072 6.876010755100821 -1.9
      vertex -1.311669202100072 6.876010755100821 0
      vertex -0.43953363670519296 6.986187098997901 -1.9
    endloop
  endfacet
  facet normal 0 1 0
    outer loop
      vertex -0.43953363670519296 6.986187098997901 -1.9
      vertex -0.43953363670519296 6.986187098997901 0
      vertex 0.43953363670519296 6.986187098997901 -1.9
    endloop
  endfacet
  facet normal -0.9980267284282716 0.06279051952931274 0
    outer loop
      vertex -7 0 -1.9
      vertex -7 0 0
      vertex -6.9448029092013455 0.8773326349501285 0
    endloop
  endfacet
  facet normal -0.9822872507286886 0.18738131458572532 0
    outer loop
      vertex -6.9448029092013455 0.8773326349501285 -1.9
      vertex -6.9448029092013455 0.8773326349501285 0
      vertex -6.7800821279004175 1.740829210153984 0
    endloop
  endfacet
  facet normal -0.9510565162951535 0.30901699437494745 0
    outer loop
      vertex -6.7800821279004175 1.740829210153984 -1.9
      vertex -6.7800821279004175 1.740829210153984 0
      vertex -6.50843540121776 2.576871868792745 0
    endloop
  endfacet
  facet normal -0.9048270524660195 0.4257792915650727 0
    outer loop
      vertex -6.50843540121776 2.576871868792745 -1.9
      vertex -6.50843540121776 2.576871868792745 0
      vertex -6.134146760307044 3.372275718712008 0
    endloop
  endfacet
  facet normal 0 0 1
    outer loop
      vertex -6.9448029092013455 -0.8773326349501285 0
      vertex -6.9448029092013455 0.8773326349501285 0
      vertex -7 0 0
    endloop
  endfacet
  facet normal 0 0 1
    outer loop
      vertex -6.7800821279004175 -1.740829210153984 0
      vertex -6.7800821279004175 1.740829210153984 0
      vertex -6.9448029092013455 0.8773326349501285 0
    endloop
  endfacet
  facet normal 0 0 1
    outer loop
      vertex -6.50843540121776 -2.576871868792745 0
      vertex -6.50843540121776 2.576871868792745 0
      vertex -6.7800821279004175 1.740829210153984 0
    endloop
  endfacet
  facet normal 0 0 1
    outer loop
      vertex -6.134146760307044 -3.372275718712008 0
      vertex -6.134146760307044 3.372275718712008 0
      vertex -6.50843540121776 2.576871868792745 0
    endloop
  endfacet
  facet normal 0 0 1
    outer loop
      vertex -5.663118960624632 -4.114496766047312 0
      vertex -5.663118960624632 4.114496766047312 0
      vertex -6.134146760307044 3.372275718712008 0
    endloop
  endfacet
  facet normal 0 0 1
    outer loop
      vertex -5.1027803919498815 -4.79182974150082 0
      vertex -5.1027803919498815 4.79182974150082 0
      vertex -5.663118960624632 4.114496766047312 0
    endloop
  endfacet
  facet normal 0 0 1
    outer loop
      vertex -4.461967928240828 -5.393592699430526 0
      vertex -4.461967928240828 5.393592699430526 0
      vertex -5.1027803919498815 4.79182974150082 0
    endloop
  endfacet
  facet normal 0 0 1
    outer loop
      vertex -3.7507875648529776 -5.910295478514104 0
      vertex -3.6 0 0
      vertex -3.7507875648529776 5.910295478514104 0
    endloop
  endfacet
  facet normal 0 0 1
    outer loop
      vertex -3.7507875648529776 -5.910295478514104 0
      vertex -3.7507875648529776 5.910295478514104 0
      vertex -4.461967928240828 5.393592699430526 0
    endloop
  endfacet
  facet normal 0 0 1
    outer loop
      vertex -3.7507875648529776 5.910295478514104 0
      vertex -3.6 0 0
      vertex -3.57161292473212 0.45119964083149466 0
    endloop
  endfacet
  facet normal 0 0 1
    outer loop
      vertex -3.7507875648529776 5.910295478514104 0
      vertex -3.57161292473212 0.45119964083149466 0
      vertex -3.486899380063072 0.8952835937934774 0
    endloop
  endfacet
  facet normal 0 0 1
    outer loop
      vertex -3.7507875648529776 5.910295478514104 0
      vertex -3.486899380063072 0.8952835937934774 0
      vertex -3.347195349197705 1.3252483896648404 0
    endloop
  endfacet
  facet normal -0.8443279255020153 0.5358267949789964 0
    outer loop
      vertex -6.134146760307044 3.372275718712008 -1.9
      vertex -6.134146760307044 3.372275718712008 0
      vertex -5.663118960624632 4.114496766047312 0
    endloop
  endfacet
  facet normal -0.7705132427757893 0.6374239897486896 0
    outer loop
      vertex -5.663118960624632 4.114496766047312 -1.9
      vertex -5.663118960624632 4.114496766047312 0
      vertex -5.1027803919498815 4.79182974150082 0
    endloop
  endfacet
  facet normal -0.6845471059286894 0.7289686274214108 0
    outer loop
      vertex -4.461967928240828 5.393592699430526 -1.9
      vertex -5.1027803919498815 4.79182974150082 0
      vertex -4.461967928240828 5.393592699430526 0
    endloop
  endfacet
  facet normal -0.5877852522924721 0.8090169943749481 0
    outer loop
      vertex -3.7507875648529776 5.910295478514104 -1.9
      vertex -4.461967928240828 5.393592699430526 0
      vertex -3.7507875648529776 5.910295478514104 0
    endloop
  endfacet
  facet normal 0 0 1
    outer loop
      vertex -3.7507875648529776 5.910295478514104 0
      vertex -3.347195349197705 1.3252483896648404 0
      vertex -3.1547040481579085 1.7343132267661754 0
    endloop
  endfacet
  facet normal 0 0 1
    outer loop
      vertex -3.7507875648529776 5.910295478514104 0
      vertex -3.1547040481579085 1.7343132267661754 0
      vertex -2.912461179749811 2.1160269082529033 0
    endloop
  endfacet
  facet normal -0.48175367410171577 0.8763066800438634 0
    outer loop
      vertex -2.980455040955509 6.333789367262137 -1.9
      vertex -3.7507875648529776 5.910295478514104 0
      vertex -2.980455040955509 6.333789367262137 0
    endloop
  endfacet
  facet normal -0.3681245526846775 0.9297764858882517 0
    outer loop
      vertex -2.1631189606246317 6.657395614066075 -1.9
      vertex -2.980455040955509 6.333789367262137 0
      vertex -2.1631189606246317 6.657395614066075 0
    endloop
  endfacet
  facet normal -0.24868988716485532 0.9685831611286309 0
    outer loop
      vertex -1.311669202100072 6.876010755100821 -1.9
      vertex -2.1631189606246317 6.657395614066075 0
      vertex -1.311669202100072 6.876010755100821 0
    endloop
  endfacet
  facet normal -0.12533323356430373 0.9921147013144778 0
    outer loop
      vertex -0.43953363670519296 6.986187098997901 -1.9
      vertex -1.311669202100072 6.876010755100821 0
      vertex -0.43953363670519296 6.986187098997901 0
    endloop
  endfacet
  facet normal 0 0 1
    outer loop
      vertex -2.980455040955509 6.333789367262137 0
      vertex -2.912461179749811 2.1160269082529033 0
      vertex -2.624287058717082 2.464369581343279 0
    endloop
  endfacet
  facet normal 0 0 1
    outer loop
      vertex -2.980455040955509 6.333789367262137 0
      vertex -2.624287058717082 2.464369581343279 0
      vertex -2.2947263630952826 2.773847673992842 0
    endloop
  endfacet
  facet normal 0 0 1
    outer loop
      vertex -3.7507875648529776 5.910295478514104 0
      vertex -2.912461179749811 2.1160269082529033 0
      vertex -2.980455040955509 6.333789367262137 0
    endloop
  endfacet
  facet normal 0 0 1
    outer loop
      vertex -2.980455040955509 6.333789367262137 0
      vertex -2.2947263630952826 2.773847673992842 0
      vertex -1.9289764619243883 3.0395805318072537 0
    endloop
  endfacet
  facet normal 0 0 1
    outer loop
      vertex -2.1631189606246317 6.657395614066075 0
      vertex -1.9289764619243883 3.0395805318072537 0
      vertex -1.5328054496342618 3.25737738887767 0
    endloop
  endfacet
  facet normal 0 0 1
    outer loop
      vertex -2.980455040955509 6.333789367262137 0
      vertex -1.9289764619243883 3.0395805318072537 0
      vertex -2.1631189606246317 6.657395614066075 0
    endloop
  endfacet
  facet normal 0 0 1
    outer loop
      vertex -2.1631189606246317 6.657395614066075 0
      vertex -1.5328054496342618 3.25737738887767 0
      vertex -1.1124611797498107 3.4238034586625528 0
    endloop
  endfacet
  facet normal 0 0 1
    outer loop
      vertex -1.311669202100072 6.876010755100821 0
      vertex -1.1124611797498107 3.4238034586625528 0
      vertex -0.6745727325086085 3.5362341026232795 0
    endloop
  endfacet
  facet normal 0 0 1
    outer loop
      vertex -1.311669202100072 6.876010755100821 0
      vertex -0.6745727325086085 3.5362341026232795 0
      vertex -0.226045870305527 3.5928962223417775 0
    endloop
  endfacet
  facet normal 0 0 1
    outer loop
      vertex -2.1631189606246317 6.657395614066075 0
      vertex -1.1124611797498107 3.4238034586625528 0
      vertex -1.311669202100072 6.876010755100821 0
    endloop
  endfacet
  facet normal 0 0 1
    outer loop
      vertex -1.311669202100072 6.876010755100821 0
      vertex -0.226045870305527 3.5928962223417775 0
      vertex -0.43953363670519296 6.986187098997901 0
    endloop
  endfacet
  facet normal 0 0 1
    outer loop
      vertex -0.43953363670519296 6.986187098997901 0
      vertex -0.226045870305527 3.5928962223417775 0
      vertex 0.43953363670519296 6.986187098997901 0
    endloop
  endfacet
  facet normal 0 0 -1
    outer loop
      vertex 0.43953363670519635 -6.986187098997901 -1.9
      vertex -0.11302293515276478 -1.7964481111708888 -1.9
      vertex 0.11302293515276478 -1.7964481111708888 -1.9
    endloop
  endfacet
  facet normal 0 0 -1
    outer loop
      vertex 0.43953363670519635 -6.986187098997901 -1.9
      vertex 0.11302293515276478 -1.7964481111708888 -1.9
      vertex 0.3372863662543047 -1.7681170513116395 -1.9
    endloop
  endfacet
  facet normal 0 0 -1
    outer loop
      vertex 0.43953363670519635 -6.986187098997901 -1.9
      vertex 0.9644882309621932 -1.5197902659036275 -1.9
      vertex 1.3116692021000738 -6.87601075510082 -1.9
    endloop
  endfacet
  facet normal 0 0 -1
    outer loop
      vertex 1.3116692021000738 -6.87601075510082 -1.9
      vertex 1.7434496900315362 -0.447641796896738 -1.9
      vertex 2.1631189606246317 -6.657395614066075 -1.9
    endloop
  endfacet
  facet normal 0 -1 0
    outer loop
      vertex -0.43953363670519635 -6.986187098997901 -1.9
      vertex 0.43953363670519635 -6.986187098997901 -1.9
      vertex 0.43953363670519635 -6.986187098997901 0
    endloop
  endfacet
  facet normal 0.12533323356430498 -0.9921147013144778 0
    outer loop
      vertex 0.43953363670519635 -6.986187098997901 -1.9
      vertex 1.3116692021000738 -6.87601075510082 -1.9
      vertex 1.3116692021000738 -6.87601075510082 0
    endloop
  endfacet
  facet normal 0.24868988716485488 -0.9685831611286311 0
    outer loop
      vertex 1.3116692021000738 -6.87601075510082 -1.9
      vertex 2.1631189606246317 -6.657395614066075 -1.9
      vertex 2.1631189606246317 -6.657395614066075 0
    endloop
  endfacet
  facet normal 0.3681245526846782 -0.9297764858882512 0
    outer loop
      vertex 2.1631189606246317 -6.657395614066075 -1.9
      vertex 2.980455040955507 -6.333789367262137 -1.9
      vertex 2.980455040955507 -6.333789367262137 0
    endloop
  endfacet
  facet normal 0.48175367410171444 -0.876306680043864 0
    outer loop
      vertex 2.980455040955507 -6.333789367262137 -1.9
      vertex 3.7507875648529736 -5.910295478514107 -1.9
      vertex 3.7507875648529736 -5.910295478514107 0
    endloop
  endfacet
  facet normal 0 0 -1
    outer loop
      vertex 0.43953363670519635 -6.986187098997901 -1.9
      vertex 0.3372863662543047 -1.7681170513116395 -1.9
      vertex 0.5562305898749054 -1.7119017293312764 -1.9
    endloop
  endfacet
  facet normal 0 0 -1
    outer loop
      vertex 0.43953363670519635 -6.986187098997901 -1.9
      vertex 0.5562305898749054 -1.7119017293312764 -1.9
      vertex 0.7664027248171305 -1.6286886944388352 -1.9
    endloop
  endfacet
  facet normal 0 0 -1
    outer loop
      vertex 0.43953363670519635 -6.986187098997901 -1.9
      vertex 0.7664027248171305 -1.6286886944388352 -1.9
      vertex 0.9644882309621932 -1.5197902659036275 -1.9
    endloop
  endfacet
  facet normal 0 0 -1
    outer loop
      vertex 1.3116692021000738 -6.87601075510082 -1.9
      vertex 0.9644882309621932 -1.5197902659036275 -1.9
      vertex 1.147363181547642 -1.3869238369964203 -1.9
    endloop
  endfacet
  facet normal 0 0 -1
    outer loop
      vertex 1.3116692021000738 -6.87601075510082 -1.9
      vertex 1.147363181547642 -1.3869238369964203 -1.9
      vertex 1.312143529358541 -1.2321847906716394 -1.9
    endloop
  endfacet
  facet normal 0 0 -1
    outer loop
      vertex 1.3116692021000738 -6.87601075510082 -1.9
      vertex 1.312143529358541 -1.2321847906716394 -1.9
      vertex 1.4562305898749055 -1.0580134541264516 -1.9
    endloop
  endfacet
  facet normal 0 0 -1
    outer loop
      vertex 1.3116692021000738 -6.87601075510082 -1.9
      vertex 1.4562305898749055 -1.0580134541264516 -1.9
      vertex 1.5773520240789543 -0.8671566133830877 -1.9
    endloop
  endfacet
  facet normal 0 0 -1
    outer loop
      vertex 1.3116692021000738 -6.87601075510082 -1.9
      vertex 1.5773520240789543 -0.8671566133830877 -1.9
      vertex 1.6735976745988523 -0.6626241948324211 -1.9
    endloop
  endfacet
  facet normal 0 0 -1
    outer loop
      vertex 1.3116692021000738 -6.87601075510082 -1.9
      vertex 1.6735976745988523 -0.6626241948324211 -1.9
      vertex 1.7434496900315362 -0.447641796896738 -1.9
    endloop
  endfacet
  facet normal 0 0 -1
    outer loop
      vertex 2.1631189606246317 -6.657395614066075 -1.9
      vertex 1.7434496900315362 -0.447641796896738 -1.9
      vertex 1.78580646236606 -0.22559982041574733 -1.9
    endloop
  endfacet
  facet normal 0 0 -1
    outer loop
      vertex 2.1631189606246317 -6.657395614066075 -1.9
      vertex 1.78580646236606 -0.22559982041574733 -1.9
      vertex 1.8 0 -1.9
    endloop
  endfacet
  facet normal 0 0 -1
    outer loop
      vertex 2.1631189606246317 -6.657395614066075 -1.9
      vertex 2.980455040955509 6.333789367262137 -1.9
      vertex 2.980455040955507 -6.333789367262137 -1.9
    endloop
  endfacet
  facet normal 0 0 -1
    outer loop
      vertex 2.980455040955507 -6.333789367262137 -1.9
      vertex 3.7507875648529767 5.910295478514105 -1.9
      vertex 3.7507875648529736 -5.910295478514107 -1.9
    endloop
  endfacet
  facet normal 0.5877852522924729 -0.8090169943749476 0
    outer loop
      vertex 3.7507875648529736 -5.910295478514107 -1.9
      vertex 4.4619679282408296 -5.393592699430523 -1.9
      vertex 4.4619679282408296 -5.393592699430523 0
    endloop
  endfacet
  facet normal 0.6845471059286888 -0.7289686274214113 0
    outer loop
      vertex 4.4619679282408296 -5.393592699430523 -1.9
      vertex 5.1027803919498815 -4.79182974150082 -1.9
      vertex 5.1027803919498815 -4.79182974150082 0
    endloop
  endfacet
  facet normal 0.7705132427757893 -0.6374239897486896 0
    outer loop
      vertex 5.1027803919498815 -4.79182974150082 -1.9
      vertex 5.663118960624632 -4.114496766047312 -1.9
      vertex 5.1027803919498815 -4.79182974150082 0
    endloop
  endfacet
  facet normal 0.8443279255020153 -0.5358267949789964 0
    outer loop
      vertex 5.663118960624632 -4.114496766047312 -1.9
      vertex 6.134146760307044 -3.372275718712008 -1.9
      vertex 5.663118960624632 -4.114496766047312 0
    endloop
  endfacet
  facet normal 0 0 -1
    outer loop
      vertex 3.7507875648529736 -5.910295478514107 -1.9
      vertex 4.461967928240828 5.393592699430524 -1.9
      vertex 4.4619679282408296 -5.393592699430523 -1.9
    endloop
  endfacet
  facet normal 0 0 -1
    outer loop
      vertex 4.4619679282408296 -5.393592699430523 -1.9
      vertex 5.102780391949881 4.7918297415008215 -1.9
      vertex 5.1027803919498815 -4.79182974150082 -1.9
    endloop
  endfacet
  facet normal 0 0 -1
    outer loop
      vertex 5.1027803919498815 -4.79182974150082 -1.9
      vertex 5.663118960624632 4.114496766047312 -1.9
      vertex 5.663118960624632 -4.114496766047312 -1.9
    endloop
  endfacet
  facet normal 0 0 -1
    outer loop
      vertex 5.663118960624632 -4.114496766047312 -1.9
      vertex 6.134146760307045 3.3722757187120074 -1.9
      vertex 6.134146760307044 -3.372275718712008 -1.9
    endloop
  endfacet
  facet normal 0 0 -1
    outer loop
      vertex 6.134146760307044 -3.372275718712008 -1.9
      vertex 6.50843540121776 2.576871868792746 -1.9
      vertex 6.508435401217759 -2.5768718687927485 -1.9
    endloop
  endfacet
  facet normal 0 0 -1
    outer loop
      vertex 6.508435401217759 -2.5768718687927485 -1.9
      vertex 6.7800821279004175 1.7408292101539835 -1.9
      vertex 6.780082127900418 -1.740829210153981 -1.9
    endloop
  endfacet
  facet normal 0 0 -1
    outer loop
      vertex 6.780082127900418 -1.740829210153981 -1.9
      vertex 6.9448029092013455 0.8773326349501298 -1.9
      vertex 6.9448029092013455 -0.8773326349501285 -1.9
    endloop
  endfacet
  facet normal 0.9048270524660192 -0.4257792915650735 0
    outer loop
      vertex 6.134146760307044 -3.372275718712008 -1.9
      vertex 6.508435401217759 -2.5768718687927485 -1.9
      vertex 6.134146760307044 -3.372275718712008 0
    endloop
  endfacet
  facet normal 0.9510565162951536 -0.3090169943749472 0
    outer loop
      vertex 6.508435401217759 -2.5768718687927485 -1.9
      vertex 6.780082127900418 -1.740829210153981 -1.9
      vertex 6.508435401217759 -2.5768718687927485 0
    endloop
  endfacet
  facet normal 0.9822872507286886 -0.18738131458572496 0
    outer loop
      vertex 6.780082127900418 -1.740829210153981 -1.9
      vertex 6.9448029092013455 -0.8773326349501285 -1.9
      vertex 6.780082127900418 -1.740829210153981 0
    endloop
  endfacet
  facet normal 0.9980267284282716 -0.06279051952931274 0
    outer loop
      vertex 6.9448029092013455 -0.8773326349501285 -1.9
      vertex 7 0 -1.9
      vertex 6.9448029092013455 -0.8773326349501285 0
    endloop
  endfacet
  facet normal 0.12533323356430498 -0.9921147013144778 0
    outer loop
      vertex 0.43953363670519635 -6.986187098997901 -1.9
      vertex 1.3116692021000738 -6.87601075510082 0
      vertex 0.43953363670519635 -6.986187098997901 0
    endloop
  endfacet
  facet normal 0.24868988716485488 -0.9685831611286311 0
    outer loop
      vertex 1.3116692021000738 -6.87601075510082 -1.9
      vertex 2.1631189606246317 -6.657395614066075 0
      vertex 1.3116692021000738 -6.87601075510082 0
    endloop
  endfacet
  facet normal 0.3681245526846782 -0.9297764858882512 0
    outer loop
      vertex 2.1631189606246317 -6.657395614066075 -1.9
      vertex 2.980455040955507 -6.333789367262137 0
      vertex 2.1631189606246317 -6.657395614066075 0
    endloop
  endfacet
  facet normal 0.48175367410171444 -0.876306680043864 0
    outer loop
      vertex 2.980455040955507 -6.333789367262137 -1.9
      vertex 3.7507875648529736 -5.910295478514107 0
      vertex 2.980455040955507 -6.333789367262137 0
    endloop
  endfacet
  facet normal 0 0 1
    outer loop
      vertex -0.43953363670519635 -6.986187098997901 0
      vertex 0.43953363670519635 -6.986187098997901 0
      vertex 0.22604587030552956 -3.5928962223417775 0
    endloop
  endfacet
  facet normal 0 0 1
    outer loop
      vertex 0.43953363670519635 -6.986187098997901 0
      vertex 1.3116692021000738 -6.87601075510082 0
      vertex 0.22604587030552956 -3.5928962223417775 0
    endloop
  endfacet
  facet normal 0 0 1
    outer loop
      vertex 1.3116692021000738 -6.87601075510082 0
      vertex 2.1631189606246317 -6.657395614066075 0
      vertex 1.1124611797498107 -3.4238034586625528 0
    endloop
  endfacet
  facet normal 0 0 1
    outer loop
      vertex 1.3116692021000738 -6.87601075510082 0
      vertex 0.6745727325086094 -3.536234102623279 0
      vertex 0.22604587030552956 -3.5928962223417775 0
    endloop
  endfacet
  facet normal 0 0 1
    outer loop
      vertex 1.3116692021000738 -6.87601075510082 0
      vertex 1.1124611797498107 -3.4238034586625528 0
      vertex 0.6745727325086094 -3.536234102623279 0
    endloop
  endfacet
  facet normal 0 0 1
    outer loop
      vertex 2.1631189606246317 -6.657395614066075 0
      vertex 1.532805449634261 -3.2573773888776705 0
      vertex 1.1124611797498107 -3.4238034586625528 0
    endloop
  endfacet
  facet normal 0 0 1
    outer loop
      vertex 2.1631189606246317 -6.657395614066075 0
      vertex 2.980455040955507 -6.333789367262137 0
      vertex 1.9289764619243863 -3.039580531807255 0
    endloop
  endfacet
  facet normal 0 0 1
    outer loop
      vertex 2.1631189606246317 -6.657395614066075 0
      vertex 1.9289764619243863 -3.039580531807255 0
      vertex 1.532805449634261 -3.2573773888776705 0
    endloop
  endfacet
  facet normal 0 0 1
    outer loop
      vertex 2.980455040955507 -6.333789367262137 0
      vertex 2.294726363095284 -2.7738476739928406 0
      vertex 1.9289764619243863 -3.039580531807255 0
    endloop
  endfacet
  facet normal 0 0 1
    outer loop
      vertex 2.980455040955507 -6.333789367262137 0
      vertex 3.7507875648529736 -5.910295478514107 0
      vertex 2.912461179749811 -2.1160269082529033 0
    endloop
  endfacet
  facet normal 0 0 1
    outer loop
      vertex 2.980455040955507 -6.333789367262137 0
      vertex 2.624287058717082 -2.464369581343279 0
      vertex 2.294726363095284 -2.7738476739928406 0
    endloop
  endfacet
  facet normal 0 0 1
    outer loop
      vertex 2.980455040955507 -6.333789367262137 0
      vertex 2.912461179749811 -2.1160269082529033 0
      vertex 2.624287058717082 -2.464369581343279 0
    endloop
  endfacet
  facet normal 0 0 1
    outer loop
      vertex 3.7507875648529736 -5.910295478514107 0
      vertex 3.1547040481579085 -1.7343132267661754 0
      vertex 2.912461179749811 -2.1160269082529033 0
    endloop
  endfacet
  facet normal 0 0 1
    outer loop
      vertex 3.7507875648529736 -5.910295478514107 0
      vertex 3.3471953491977047 -1.3252483896648422 0
      vertex 3.1547040481579085 -1.7343132267661754 0
    endloop
  endfacet
  facet normal 0.5877852522924729 -0.8090169943749476 0
    outer loop
      vertex 3.7507875648529736 -5.910295478514107 -1.9
      vertex 4.4619679282408296 -5.393592699430523 0
      vertex 3.7507875648529736 -5.910295478514107 0
    endloop
  endfacet
  facet normal 0.6845471059286888 -0.7289686274214113 0
    outer loop
      vertex 4.4619679282408296 -5.393592699430523 -1.9
      vertex 5.1027803919498815 -4.79182974150082 0
      vertex 4.4619679282408296 -5.393592699430523 0
    endloop
  endfacet
  facet normal 0.7705132427757893 -0.6374239897486896 0
    outer loop
      vertex 5.663118960624632 -4.114496766047312 -1.9
      vertex 5.663118960624632 -4.114496766047312 0
      vertex 5.1027803919498815 -4.79182974150082 0
    endloop
  endfacet
  facet normal 0.8443279255020153 -0.5358267949789964 0
    outer loop
      vertex 6.134146760307044 -3.372275718712008 -1.9
      vertex 6.134146760307044 -3.372275718712008 0
      vertex 5.663118960624632 -4.114496766047312 0
    endloop
  endfacet
  facet normal 0.9048270524660192 -0.4257792915650735 0
    outer loop
      vertex 6.508435401217759 -2.5768718687927485 -1.9
      vertex 6.508435401217759 -2.5768718687927485 0
      vertex 6.134146760307044 -3.372275718712008 0
    endloop
  endfacet
  facet normal 0.9510565162951536 -0.3090169943749472 0
    outer loop
      vertex 6.780082127900418 -1.740829210153981 -1.9
      vertex 6.780082127900418 -1.740829210153981 0
      vertex 6.508435401217759 -2.5768718687927485 0
    endloop
  endfacet
  facet normal 0.9822872507286886 -0.18738131458572496 0
    outer loop
      vertex 6.9448029092013455 -0.8773326349501285 -1.9
      vertex 6.9448029092013455 -0.8773326349501285 0
      vertex 6.780082127900418 -1.740829210153981 0
    endloop
  endfacet
  facet normal 0.9980267284282716 -0.06279051952931274 0
    outer loop
      vertex 6.9448029092013455 -0.8773326349501285 0
      vertex 7 0 -1.9
      vertex 7 0 0
    endloop
  endfacet
  facet normal 0 0 1
    outer loop
      vertex 3.7507875648529736 -5.910295478514107 0
      vertex 3.4868993800630723 -0.895283593793476 0
      vertex 3.3471953491977047 -1.3252483896648422 0
    endloop
  endfacet
  facet normal 0 0 1
    outer loop
      vertex 3.7507875648529736 -5.910295478514107 0
      vertex 3.57161292473212 -0.45119964083149466 0
      vertex 3.4868993800630723 -0.895283593793476 0
    endloop
  endfacet
  facet normal 0 0 1
    outer loop
      vertex 3.7507875648529736 -5.910295478514107 0
      vertex 3.6 0 0
      vertex 3.57161292473212 -0.45119964083149466 0
    endloop
  endfacet
  facet normal 0 0 1
    outer loop
      vertex 3.7507875648529736 -5.910295478514107 0
      vertex 4.4619679282408296 -5.393592699430523 0
      vertex 3.7507875648529767 5.910295478514105 0
    endloop
  endfacet
  facet normal 0 0 1
    outer loop
      vertex 3.7507875648529736 -5.910295478514107 0
      vertex 3.7507875648529767 5.910295478514105 0
      vertex 3.6 0 0
    endloop
  endfacet
  facet normal 0 0 1
    outer loop
      vertex 4.4619679282408296 -5.393592699430523 0
      vertex 5.1027803919498815 -4.79182974150082 0
      vertex 4.461967928240828 5.393592699430524 0
    endloop
  endfacet
  facet normal 0 0 1
    outer loop
      vertex 5.1027803919498815 -4.79182974150082 0
      vertex 5.663118960624632 -4.114496766047312 0
      vertex 5.102780391949881 4.7918297415008215 0
    endloop
  endfacet
  facet normal 0 0 1
    outer loop
      vertex 5.663118960624632 -4.114496766047312 0
      vertex 6.134146760307044 -3.372275718712008 0
      vertex 5.663118960624632 4.114496766047312 0
    endloop
  endfacet
  facet normal 0 0 1
    outer loop
      vertex 6.134146760307044 -3.372275718712008 0
      vertex 6.508435401217759 -2.5768718687927485 0
      vertex 6.134146760307045 3.3722757187120074 0
    endloop
  endfacet
  facet normal 0 0 1
    outer loop
      vertex 6.508435401217759 -2.5768718687927485 0
      vertex 6.780082127900418 -1.740829210153981 0
      vertex 6.50843540121776 2.576871868792746 0
    endloop
  endfacet
  facet normal 0 0 1
    outer loop
      vertex 6.780082127900418 -1.740829210153981 0
      vertex 6.9448029092013455 -0.8773326349501285 0
      vertex 6.7800821279004175 1.7408292101539835 0
    endloop
  endfacet
  facet normal 0 0 -1
    outer loop
      vertex 1.311669202100072 6.876010755100821 -1.9
      vertex 0.5562305898749054 1.7119017293312764 -1.9
      vertex 0.33728636625430425 1.7681170513116398 -1.9
    endloop
  endfacet
  facet normal 0 0 -1
    outer loop
      vertex 1.311669202100072 6.876010755100821 -1.9
      vertex 0.7664027248171309 1.628688694438835 -1.9
      vertex 0.5562305898749054 1.7119017293312764 -1.9
    endloop
  endfacet
  facet normal 0 0 -1
    outer loop
      vertex 1.311669202100072 6.876010755100821 -1.9
      vertex 0.964488230962194 1.519790265903627 -1.9
      vertex 0.7664027248171309 1.628688694438835 -1.9
    endloop
  endfacet
  facet normal 0 0 -1
    outer loop
      vertex 1.311669202100072 6.876010755100821 -1.9
      vertex 1.1473631815476415 1.3869238369964205 -1.9
      vertex 0.964488230962194 1.519790265903627 -1.9
    endloop
  endfacet
  facet normal 0 0 -1
    outer loop
      vertex 2.1631189606246317 6.657395614066075 -1.9
      vertex 1.5773520240789545 0.8671566133830876 -1.9
      vertex 1.4562305898749055 1.0580134541264516 -1.9
    endloop
  endfacet
  facet normal 0 0 -1
    outer loop
      vertex 2.1631189606246317 6.657395614066075 -1.9
      vertex 1.4562305898749055 1.0580134541264516 -1.9
      vertex 1.3121435293585408 1.2321847906716397 -1.9
    endloop
  endfacet
  facet normal 0 0 -1
    outer loop
      vertex 2.1631189606246317 6.657395614066075 -1.9
      vertex 1.3121435293585408 1.2321847906716397 -1.9
      vertex 1.1473631815476415 1.3869238369964205 -1.9
    endloop
  endfacet
  facet normal 0 0 -1
    outer loop
      vertex 2.1631189606246317 -6.657395614066075 -1.9
      vertex 1.8 0 -1.9
      vertex 2.1631189606246317 6.657395614066075 -1.9
    endloop
  endfacet
  facet normal 0 0 -1
    outer loop
      vertex 2.1631189606246317 6.657395614066075 -1.9
      vertex 1.8 0 -1.9
      vertex 1.78580646236606 0.22559982041574766 -1.9
    endloop
  endfacet
  facet normal 0 0 -1
    outer loop
      vertex 2.1631189606246317 6.657395614066075 -1.9
      vertex 1.78580646236606 0.22559982041574766 -1.9
      vertex 1.743449690031536 0.44764179689673866 -1.9
    endloop
  endfacet
  facet normal 0 0 -1
    outer loop
      vertex 2.1631189606246317 6.657395614066075 -1.9
      vertex 1.743449690031536 0.44764179689673866 -1.9
      vertex 1.6735976745988526 0.6626241948324204 -1.9
    endloop
  endfacet
  facet normal 0 0 -1
    outer loop
      vertex 2.1631189606246317 -6.657395614066075 -1.9
      vertex 2.1631189606246317 6.657395614066075 -1.9
      vertex 2.980455040955509 6.333789367262137 -1.9
    endloop
  endfacet
  facet normal 0 0 -1
    outer loop
      vertex 2.1631189606246317 6.657395614066075 -1.9
      vertex 1.6735976745988526 0.6626241948324204 -1.9
      vertex 1.5773520240789545 0.8671566133830876 -1.9
    endloop
  endfacet
  facet normal 0 0 -1
    outer loop
      vertex 2.980455040955507 -6.333789367262137 -1.9
      vertex 2.980455040955509 6.333789367262137 -1.9
      vertex 3.7507875648529767 5.910295478514105 -1.9
    endloop
  endfacet
  facet normal 0 0 -1
    outer loop
      vertex 0.43953363670519296 6.986187098997901 -1.9
      vertex 0.33728636625430425 1.7681170513116398 -1.9
      vertex 0.11302293515276264 1.7964481111708888 -1.9
    endloop
  endfacet
  facet normal 0 0 -1
    outer loop
      vertex 0.43953363670519296 6.986187098997901 -1.9
      vertex 1.311669202100072 6.876010755100821 -1.9
      vertex 0.33728636625430425 1.7681170513116398 -1.9
    endloop
  endfacet
  facet normal 0 0 -1
    outer loop
      vertex 1.311669202100072 6.876010755100821 -1.9
      vertex 2.1631189606246317 6.657395614066075 -1.9
      vertex 1.1473631815476415 1.3869238369964205 -1.9
    endloop
  endfacet
  facet normal 0 0 -1
    outer loop
      vertex -0.43953363670519296 6.986187098997901 -1.9
      vertex 0.43953363670519296 6.986187098997901 -1.9
      vertex 0.11302293515276264 1.7964481111708888 -1.9
    endloop
  endfacet
  facet normal 0.12533323356430373 0.9921147013144778 0
    outer loop
      vertex 0.43953363670519296 6.986187098997901 -1.9
      vertex 0.43953363670519296 6.986187098997901 0
      vertex 1.311669202100072 6.876010755100821 -1.9
    endloop
  endfacet
  facet normal 0.24868988716485532 0.9685831611286309 0
    outer loop
      vertex 1.311669202100072 6.876010755100821 -1.9
      vertex 1.311669202100072 6.876010755100821 0
      vertex 2.1631189606246317 6.657395614066075 -1.9
    endloop
  endfacet
  facet normal 0.3681245526846775 0.9297764858882517 0
    outer loop
      vertex 2.1631189606246317 6.657395614066075 -1.9
      vertex 2.1631189606246317 6.657395614066075 0
      vertex 2.980455040955509 6.333789367262137 -1.9
    endloop
  endfacet
  facet normal 0.4817536741017153 0.8763066800438636 0
    outer loop
      vertex 2.980455040955509 6.333789367262137 -1.9
      vertex 2.980455040955509 6.333789367262137 0
      vertex 3.7507875648529767 5.910295478514105 -1.9
    endloop
  endfacet
  facet normal 0 0 -1
    outer loop
      vertex 4.4619679282408296 -5.393592699430523 -1.9
      vertex 4.461967928240828 5.393592699430524 -1.9
      vertex 5.102780391949881 4.7918297415008215 -1.9
    endloop
  endfacet
  facet normal 0 0 -1
    outer loop
      vertex 3.7507875648529736 -5.910295478514107 -1.9
      vertex 3.7507875648529767 5.910295478514105 -1.9
      vertex 4.461967928240828 5.393592699430524 -1.9
    endloop
  endfacet
  facet normal 0 0 -1
    outer loop
      vertex 5.1027803919498815 -4.79182974150082 -1.9
      vertex 5.102780391949881 4.7918297415008215 -1.9
      vertex 5.663118960624632 4.114496766047312 -1.9
    endloop
  endfacet
  facet normal 0 0 -1
    outer loop
      vertex 5.663118960624632 -4.114496766047312 -1.9
      vertex 5.663118960624632 4.114496766047312 -1.9
      vertex 6.134146760307045 3.3722757187120074 -1.9
    endloop
  endfacet
  facet normal 0 0 -1
    outer loop
      vertex 6.134146760307044 -3.372275718712008 -1.9
      vertex 6.134146760307045 3.3722757187120074 -1.9
      vertex 6.50843540121776 2.576871868792746 -1.9
    endloop
  endfacet
  facet normal 0 0 -1
    outer loop
      vertex 6.9448029092013455 -0.8773326349501285 -1.9
      vertex 6.9448029092013455 0.8773326349501298 -1.9
      vertex 7 0 -1.9
    endloop
  endfacet
  facet normal 0 0 -1
    outer loop
      vertex 6.780082127900418 -1.740829210153981 -1.9
      vertex 6.7800821279004175 1.7408292101539835 -1.9
      vertex 6.9448029092013455 0.8773326349501298 -1.9
    endloop
  endfacet
  facet normal 0 0 -1
    outer loop
      vertex 6.508435401217759 -2.5768718687927485 -1.9
      vertex 6.50843540121776 2.576871868792746 -1.9
      vertex 6.7800821279004175 1.7408292101539835 -1.9
    endloop
  endfacet
  facet normal 0.9980267284282716 0.06279051952931262 0
    outer loop
      vertex 7 0 -1.9
      vertex 6.9448029092013455 0.8773326349501298 -1.9
      vertex 7 0 0
    endloop
  endfacet
  facet normal 0.9822872507286885 0.1873813145857257 0
    outer loop
      vertex 6.9448029092013455 0.8773326349501298 -1.9
      vertex 6.7800821279004175 1.7408292101539835 -1.9
      vertex 6.9448029092013455 0.8773326349501298 0
    endloop
  endfacet
  facet normal 0.9510565162951538 0.309016994374947 0
    outer loop
      vertex 6.7800821279004175 1.7408292101539835 -1.9
      vertex 6.50843540121776 2.576871868792746 -1.9
      vertex 6.7800821279004175 1.7408292101539835 0
    endloop
  endfacet
  facet normal 0.9048270524660196 0.4257792915650725 0
    outer loop
      vertex 6.50843540121776 2.576871868792746 -1.9
      vertex 6.134146760307045 3.3722757187120074 -1.9
      vertex 6.50843540121776 2.576871868792746 0
    endloop
  endfacet
  facet normal 0.6845471059286877 0.7289686274214124 0
    outer loop
      vertex 5.102780391949881 4.7918297415008215 -1.9
      vertex 4.461967928240828 5.393592699430524 -1.9
      vertex 4.461967928240828 5.393592699430524 0
    endloop
  endfacet
  facet normal 0.5877852522924736 0.8090169943749471 0
    outer loop
      vertex 3.7507875648529767 5.910295478514105 -1.9
      vertex 3.7507875648529767 5.910295478514105 0
      vertex 4.461967928240828 5.393592699430524 -1.9
    endloop
  endfacet
  facet normal 0.7705132427757895 0.6374239897486893 0
    outer loop
      vertex 5.102780391949881 4.7918297415008215 -1.9
      vertex 5.663118960624632 4.114496766047312 0
      vertex 5.663118960624632 4.114496766047312 -1.9
    endloop
  endfacet
  facet normal 0.844327925502015 0.5358267949789969 0
    outer loop
      vertex 6.134146760307045 3.3722757187120074 -1.9
      vertex 5.663118960624632 4.114496766047312 -1.9
      vertex 6.134146760307045 3.3722757187120074 0
    endloop
  endfacet
  facet normal 0 0 1
    outer loop
      vertex 2.980455040955509 6.333789367262137 0
      vertex 2.912461179749811 2.1160269082529033 0
      vertex 3.154704048157909 1.7343132267661752 0
    endloop
  endfacet
  facet normal 0 0 1
    outer loop
      vertex 2.980455040955509 6.333789367262137 0
      vertex 3.154704048157909 1.7343132267661752 0
      vertex 3.347195349197705 1.3252483896648408 0
    endloop
  endfacet
  facet normal 0 1 0
    outer loop
      vertex -0.43953363670519296 6.986187098997901 0
      vertex 0.43953363670519296 6.986187098997901 0
      vertex 0.43953363670519296 6.986187098997901 -1.9
    endloop
  endfacet
  facet normal 0.12533323356430373 0.9921147013144778 0
    outer loop
      vertex 1.311669202100072 6.876010755100821 -1.9
      vertex 0.43953363670519296 6.986187098997901 0
      vertex 1.311669202100072 6.876010755100821 0
    endloop
  endfacet
  facet normal 0.24868988716485532 0.9685831611286309 0
    outer loop
      vertex 2.1631189606246317 6.657395614066075 -1.9
      vertex 1.311669202100072 6.876010755100821 0
      vertex 2.1631189606246317 6.657395614066075 0
    endloop
  endfacet
  facet normal 0.4817536741017153 0.8763066800438636 0
    outer loop
      vertex 3.7507875648529767 5.910295478514105 -1.9
      vertex 2.980455040955509 6.333789367262137 0
      vertex 3.7507875648529767 5.910295478514105 0
    endloop
  endfacet
  facet normal 0.3681245526846775 0.9297764858882517 0
    outer loop
      vertex 2.980455040955509 6.333789367262137 -1.9
      vertex 2.1631189606246317 6.657395614066075 0
      vertex 2.980455040955509 6.333789367262137 0
    endloop
  endfacet
  facet normal 0 0 1
    outer loop
      vertex 0.43953363670519296 6.986187098997901 0
      vertex -0.226045870305527 3.5928962223417775 0
      vertex 0.2260458703055278 3.5928962223417775 0
    endloop
  endfacet
  facet normal 0 0 1
    outer loop
      vertex 0.43953363670519296 6.986187098997901 0
      vertex 0.2260458703055278 3.5928962223417775 0
      vertex 0.6745727325086085 3.5362341026232795 0
    endloop
  endfacet
  facet normal 0 0 1
    outer loop
      vertex 1.311669202100072 6.876010755100821 0
      vertex 0.6745727325086085 3.5362341026232795 0
      vertex 1.1124611797498107 3.4238034586625528 0
    endloop
  endfacet
  facet normal 0 0 1
    outer loop
      vertex 1.311669202100072 6.876010755100821 0
      vertex 1.1124611797498107 3.4238034586625528 0
      vertex 1.5328054496342618 3.25737738887767 0
    endloop
  endfacet
  facet normal 0 0 1
    outer loop
      vertex 1.311669202100072 6.876010755100821 0
      vertex 1.5328054496342618 3.25737738887767 0
      vertex 1.928976461924388 3.039580531807254 0
    endloop
  endfacet
  facet normal 0 0 1
    outer loop
      vertex 0.43953363670519296 6.986187098997901 0
      vertex 0.6745727325086085 3.5362341026232795 0
      vertex 1.311669202100072 6.876010755100821 0
    endloop
  endfacet
  facet normal 0 0 1
    outer loop
      vertex 2.1631189606246317 6.657395614066075 0
      vertex 1.928976461924388 3.039580531807254 0
      vertex 2.294726363095283 2.773847673992841 0
    endloop
  endfacet
  facet normal 0 0 1
    outer loop
      vertex 2.1631189606246317 6.657395614066075 0
      vertex 2.294726363095283 2.773847673992841 0
      vertex 2.6242870587170817 2.4643695813432793 0
    endloop
  endfacet
  facet normal 0 0 1
    outer loop
      vertex 2.1631189606246317 6.657395614066075 0
      vertex 2.6242870587170817 2.4643695813432793 0
      vertex 2.980455040955509 6.333789367262137 0
    endloop
  endfacet
  facet normal 0 0 1
    outer loop
      vertex 2.980455040955509 6.333789367262137 0
      vertex 2.6242870587170817 2.4643695813432793 0
      vertex 2.912461179749811 2.1160269082529033 0
    endloop
  endfacet
  facet normal 0 0 1
    outer loop
      vertex 2.980455040955509 6.333789367262137 0
      vertex 3.347195349197705 1.3252483896648408 0
      vertex 3.7507875648529767 5.910295478514105 0
    endloop
  endfacet
  facet normal 0 0 1
    outer loop
      vertex 1.311669202100072 6.876010755100821 0
      vertex 1.928976461924388 3.039580531807254 0
      vertex 2.1631189606246317 6.657395614066075 0
    endloop
  endfacet
  facet normal 0.9980267284282716 0.06279051952931262 0
    outer loop
      vertex 6.9448029092013455 0.8773326349501298 -1.9
      vertex 6.9448029092013455 0.8773326349501298 0
      vertex 7 0 0
    endloop
  endfacet
  facet normal 0.9822872507286885 0.1873813145857257 0
    outer loop
      vertex 6.7800821279004175 1.7408292101539835 -1.9
      vertex 6.7800821279004175 1.7408292101539835 0
      vertex 6.9448029092013455 0.8773326349501298 0
    endloop
  endfacet
  facet normal 0.9510565162951538 0.309016994374947 0
    outer loop
      vertex 6.50843540121776 2.576871868792746 -1.9
      vertex 6.50843540121776 2.576871868792746 0
      vertex 6.7800821279004175 1.7408292101539835 0
    endloop
  endfacet
  facet normal 0.9048270524660196 0.4257792915650725 0
    outer loop
      vertex 6.134146760307045 3.3722757187120074 -1.9
      vertex 6.134146760307045 3.3722757187120074 0
      vertex 6.50843540121776 2.576871868792746 0
    endloop
  endfacet
  facet normal 0 0 1
    outer loop
      vertex 3.7507875648529767 5.910295478514105 0
      vertex 3.57161292473212 0.45119964083149533 0
      vertex 3.6 0 0
    endloop
  endfacet
  facet normal 0 0 1
    outer loop
      vertex 3.7507875648529767 5.910295478514105 0
      vertex 3.486899380063072 0.8952835937934773 0
      vertex 3.57161292473212 0.45119964083149533 0
    endloop
  endfacet
  facet normal 0 0 1
    outer loop
      vertex 4.4619679282408296 -5.393592699430523 0
      vertex 4.461967928240828 5.393592699430524 0
      vertex 3.7507875648529767 5.910295478514105 0
    endloop
  endfacet
  facet normal 0 0 1
    outer loop
      vertex 3.7507875648529767 5.910295478514105 0
      vertex 3.347195349197705 1.3252483896648408 0
      vertex 3.486899380063072 0.8952835937934773 0
    endloop
  endfacet
  facet normal 0 0 1
    outer loop
      vertex 5.1027803919498815 -4.79182974150082 0
      vertex 5.102780391949881 4.7918297415008215 0
      vertex 4.461967928240828 5.393592699430524 0
    endloop
  endfacet
  facet normal 0 0 1
    outer loop
      vertex 5.663118960624632 -4.114496766047312 0
      vertex 5.663118960624632 4.114496766047312 0
      vertex 5.102780391949881 4.7918297415008215 0
    endloop
  endfacet
  facet normal 0 0 1
    outer loop
      vertex 6.134146760307044 -3.372275718712008 0
      vertex 6.134146760307045 3.3722757187120074 0
      vertex 5.663118960624632 4.114496766047312 0
    endloop
  endfacet
  facet normal 0 0 1
    outer loop
      vertex 6.9448029092013455 -0.8773326349501285 0
      vertex 7 0 0
      vertex 6.9448029092013455 0.8773326349501298 0
    endloop
  endfacet
  facet normal 0 0 1
    outer loop
      vertex 6.780082127900418 -1.740829210153981 0
      vertex 6.7800821279004175 1.7408292101539835 0
      vertex 6.50843540121776 2.576871868792746 0
    endloop
  endfacet
  facet normal 0 0 1
    outer loop
      vertex 6.9448029092013455 -0.8773326349501285 0
      vertex 6.9448029092013455 0.8773326349501298 0
      vertex 6.7800821279004175 1.7408292101539835 0
    endloop
  endfacet
  facet normal 0 0 1
    outer loop
      vertex 6.508435401217759 -2.5768718687927485 0
      vertex 6.50843540121776 2.576871868792746 0
      vertex 6.134146760307045 3.3722757187120074 0
    endloop
  endfacet
  facet normal 0.6845471059286877 0.7289686274214124 0
    outer loop
      vertex 5.102780391949881 4.7918297415008215 -1.9
      vertex 4.461967928240828 5.393592699430524 0
      vertex 5.102780391949881 4.7918297415008215 0
    endloop
  endfacet
  facet normal 0.5877852522924736 0.8090169943749471 0
    outer loop
      vertex 4.461967928240828 5.393592699430524 -1.9
      vertex 3.7507875648529767 5.910295478514105 0
      vertex 4.461967928240828 5.393592699430524 0
    endloop
  endfacet
  facet normal 0.844327925502015 0.5358267949789969 0
    outer loop
      vertex 5.663118960624632 4.114496766047312 -1.9
      vertex 5.663118960624632 4.114496766047312 0
      vertex 6.134146760307045 3.3722757187120074 0
    endloop
  endfacet
  facet normal 0.7705132427757895 0.6374239897486893 0
    outer loop
      vertex 5.102780391949881 4.7918297415008215 -1.9
      vertex 5.102780391949881 4.7918297415008215 0
      vertex 5.663118960624632 4.114496766047312 0
    endloop
  endfacet
endsolid OpenSCAD_Model
