solid OpenSCAD_Model
  facet normal -0.8443279255020157 -0.5358267949789955 0
    outer loop
      vertex -24.270509831248425 -17.633557568774194 -3
      vertex -26.289200401315902 -14.452610223051462 0
      vertex -26.289200401315902 -14.452610223051462 -3
    endloop
  endfacet
  facet normal -0.7705132427757891 -0.6374239897486899 0
    outer loop
      vertex -24.270509831248425 -17.633557568774194 -3
      vertex -21.86905882264235 -20.536413177860656 -3
      vertex -24.270509831248425 -17.633557568774194 0
    endloop
  endfacet
  facet normal -0.5877852522924732 -0.8090169943749473 0
    outer loop
      vertex -19.122719692460688 -23.11539728327368 -3
      vertex -16.074803849369903 -25.32983776506045 -3
      vertex -16.074803849369903 -25.32983776506045 0
    endloop
  endfacet
  facet normal -0.6845471059286886 -0.7289686274214117 0
    outer loop
      vertex -19.122719692460688 -23.11539728327368 -3
      vertex -19.122719692460688 -23.11539728327368 0
      vertex -21.86905882264235 -20.536413177860656 -3
    endloop
  endfacet
  facet normal 0 0 -1
    outer loop
      vertex -27.893294576647545 -11.043736580540337 -3
      vertex -29.057494833858932 -7.460696614945645 -3
      vertex -27.893294576647545 11.043736580540337 -3
    endloop
  endfacet
  facet normal 0 0 -1
    outer loop
      vertex -29.057494833858932 -7.460696614945645 -3
      vertex -29.763441039434337 -3.759997006929122 -3
      vertex -29.057494833858932 7.460696614945645 -3
    endloop
  endfacet
  facet normal 0 0 -1
    outer loop
      vertex -26.289200401315902 -14.452610223051462 -3
      vertex -27.893294576647545 -11.043736580540337 -3
      vertex -26.289200401315902 14.452610223051462 -3
    endloop
  endfacet
  facet normal 0 0 -1
    outer loop
      vertex -24.270509831248425 -17.633557568774194 -3
      vertex -26.289200401315902 -14.452610223051462 -3
      vertex -24.270509831248425 17.633557568774194 -3
    endloop
  endfacet
  facet normal 0 0 -1
    outer loop
      vertex -24.270509831248425 -17.633557568774194 -3
      vertex -21.86905882264235 20.536413177860656 -3
      vertex -21.86905882264235 -20.536413177860656 -3
    endloop
  endfacet
  facet normal 0 0 -1
    outer loop
      vertex -19.122719692460688 -23.11539728327368 -3
      vertex -16.074803849369903 25.32983776506045 -3
      vertex -16.074803849369903 -25.32983776506045 -3
    endloop
  endfacet
  facet normal 0 0 -1
    outer loop
      vertex -19.122719692460688 -23.11539728327368 -3
      vertex -21.86905882264235 -20.536413177860656 -3
      vertex -19.122719692460688 23.11539728327368 -3
    endloop
  endfacet
  facet normal -0.9048270524660189 -0.42577929156507377 0
    outer loop
      vertex -26.289200401315902 -14.452610223051462 -3
      vertex -27.893294576647545 -11.043736580540337 0
      vertex -27.893294576647545 -11.043736580540337 -3
    endloop
  endfacet
  facet normal -0.9510565162951538 -0.30901699437494673 0
    outer loop
      vertex -27.893294576647545 -11.043736580540337 -3
      vertex -29.057494833858932 -7.460696614945645 0
      vertex -29.057494833858932 -7.460696614945645 -3
    endloop
  endfacet
  facet normal -0.9822872507286886 -0.18738131458572513 0
    outer loop
      vertex -29.057494833858932 -7.460696614945645 -3
      vertex -29.763441039434337 -3.759997006929122 0
      vertex -29.763441039434337 -3.759997006929122 -3
    endloop
  endfacet
  facet normal -0.9980267284282716 -0.06279051952931293 0
    outer loop
      vertex -29.763441039434337 -3.759997006929122 -3
      vertex -30 0 0
      vertex -30 0 -3
    endloop
  endfacet
  facet normal 0 0 -1
    outer loop
      vertex -5.621439437571745 -29.468617521860658 -3
      vertex -1.472213781219231 -3.12861353910366 -3
      vertex -1.8837155858794128 -29.940801852848146 -3
    endloop
  endfacet
  facet normal -0.4817536741017145 -0.876306680043864 0
    outer loop
      vertex -16.074803849369903 -25.32983776506045 -3
      vertex -12.773378746952172 -27.144811573980586 -3
      vertex -12.773378746952172 -27.144811573980586 0
    endloop
  endfacet
  facet normal -0.3681245526846781 -0.9297764858882513 0
    outer loop
      vertex -12.773378746952172 -27.144811573980586 -3
      vertex -9.270509831248422 -28.531695488854606 -3
      vertex -9.270509831248422 -28.531695488854606 0
    endloop
  endfacet
  facet normal -0.24868988716485493 -0.9685831611286311 0
    outer loop
      vertex -9.270509831248422 -28.531695488854606 -3
      vertex -5.621439437571745 -29.468617521860658 -3
      vertex -5.621439437571745 -29.468617521860658 0
    endloop
  endfacet
  facet normal -0.12533323356430498 -0.9921147013144778 0
    outer loop
      vertex -5.621439437571745 -29.468617521860658 -3
      vertex -1.8837155858794128 -29.940801852848146 -3
      vertex -1.8837155858794128 -29.940801852848146 0
    endloop
  endfacet
  facet normal 0 0 -1
    outer loop
      vertex -16.074803849369903 -25.32983776506045 -3
      vertex -12.773378746952181 27.144811573980583 -3
      vertex -12.773378746952172 -27.144811573980586 -3
    endloop
  endfacet
  facet normal 0 0 -1
    outer loop
      vertex -12.773378746952172 -27.144811573980586 -3
      vertex -9.270509831248422 28.531695488854606 -3
      vertex -9.270509831248422 -28.531695488854606 -3
    endloop
  endfacet
  facet normal 0 0 -1
    outer loop
      vertex -9.270509831248422 -28.531695488854606 -3
      vertex -5.621439437571738 29.46861752186066 -3
      vertex -5.621439437571745 -29.468617521860658 -3
    endloop
  endfacet
  facet normal 0 0 -1
    outer loop
      vertex -5.621439437571745 -29.468617521860658 -3
      vertex -3.029998866767051 -1.6657559731440084 -3
      vertex -2.797331838242607 -2.032380545426667 -3
    endloop
  endfacet
  facet normal 0 0 -1
    outer loop
      vertex -5.621439437571745 -29.468617521860658 -3
      vertex -3.2148810031289923 -1.2728614340904822 -3
      vertex -3.029998866767051 -1.6657559731440084 -3
    endloop
  endfacet
  facet normal 0 0 -1
    outer loop
      vertex -5.621439437571745 -29.468617521860658 -3
      vertex -3.3490625455947667 -0.8598931098507866 -3
      vertex -3.2148810031289923 -1.2728614340904822 -3
    endloop
  endfacet
  facet normal 0 0 -1
    outer loop
      vertex -5.621439437571745 -29.468617521860658 -3
      vertex -3.4304273710835216 -0.43336375759349754 -3
      vertex -3.3490625455947667 -0.8598931098507866 -3
    endloop
  endfacet
  facet normal 0 0 -1
    outer loop
      vertex -5.621439437571745 -29.468617521860658 -3
      vertex -3.457692307692308 0 -3
      vertex -3.4304273710835216 -0.43336375759349754 -3
    endloop
  endfacet
  facet normal 0 0 -1
    outer loop
      vertex -5.621439437571745 -29.468617521860658 -3
      vertex -3.4304273710835216 0.43336375759349754 -3
      vertex -3.457692307692308 0 -3
    endloop
  endfacet
  facet normal 0 0 -1
    outer loop
      vertex -5.621439437571745 -29.468617521860658 -3
      vertex -2.797331838242607 -2.032380545426667 -3
      vertex -2.520549215584035 -2.366953262422658 -3
    endloop
  endfacet
  facet normal 0 0 -1
    outer loop
      vertex -5.621439437571745 -29.468617521860658 -3
      vertex -2.520549215584035 -2.366953262422658 -3
      vertex -2.2040160260925843 -2.664197712520903 -3
    endloop
  endfacet
  facet normal 0 0 -1
    outer loop
      vertex -5.621439437571745 -29.468617521860658 -3
      vertex -1.8527241872543003 -2.9194261731781213 -3
      vertex -1.472213781219231 -3.12861353910366 -3
    endloop
  endfacet
  facet normal 0 0 -1
    outer loop
      vertex -5.621439437571745 -29.468617521860658 -3
      vertex -2.2040160260925843 -2.664197712520903 -3
      vertex -1.8527241872543003 -2.9194261731781213 -3
    endloop
  endfacet
  facet normal 0 0 -1
    outer loop
      vertex -1.8837155858794128 -29.940801852848146 -3
      vertex -1.0684856843964528 -3.2884608005743963 -3
      vertex -0.6479069300483331 -3.396447070788812 -3
    endloop
  endfacet
  facet normal 0 0 -1
    outer loop
      vertex -1.8837155858794128 -29.940801852848146 -3
      vertex -1.472213781219231 -3.12861353910366 -3
      vertex -1.0684856843964528 -3.2884608005743963 -3
    endloop
  endfacet
  facet normal 0 0 -1
    outer loop
      vertex -1.8837155858794128 -29.940801852848146 -3
      vertex -0.6479069300483331 -3.396447070788812 -3
      vertex -0.2171102963725118 -3.4508693417577545 -3
    endloop
  endfacet
  facet normal 0 0 -1
    outer loop
      vertex -1.8837155858794128 -29.940801852848146 -3
      vertex -0.2171102963725118 -3.4508693417577545 -3
      vertex 0.2171102963725118 -3.4508693417577545 -3
    endloop
  endfacet
  facet normal -0.7705132427757891 -0.6374239897486899 0
    outer loop
      vertex -21.86905882264235 -20.536413177860656 -3
      vertex -21.86905882264235 -20.536413177860656 0
      vertex -24.270509831248425 -17.633557568774194 0
    endloop
  endfacet
  facet normal -0.8443279255020157 -0.5358267949789955 0
    outer loop
      vertex -24.270509831248425 -17.633557568774194 -3
      vertex -24.270509831248425 -17.633557568774194 0
      vertex -26.289200401315902 -14.452610223051462 0
    endloop
  endfacet
  facet normal -0.5877852522924732 -0.8090169943749473 0
    outer loop
      vertex -19.122719692460688 -23.11539728327368 -3
      vertex -16.074803849369903 -25.32983776506045 0
      vertex -19.122719692460688 -23.11539728327368 0
    endloop
  endfacet
  facet normal -0.6845471059286886 -0.7289686274214117 0
    outer loop
      vertex -21.86905882264235 -20.536413177860656 -3
      vertex -19.122719692460688 -23.11539728327368 0
      vertex -21.86905882264235 -20.536413177860656 0
    endloop
  endfacet
  facet normal -0.9048270524660189 -0.42577929156507377 0
    outer loop
      vertex -26.289200401315902 -14.452610223051462 -3
      vertex -26.289200401315902 -14.452610223051462 0
      vertex -27.893294576647545 -11.043736580540337 0
    endloop
  endfacet
  facet normal -0.9510565162951538 -0.30901699437494673 0
    outer loop
      vertex -27.893294576647545 -11.043736580540337 -3
      vertex -27.893294576647545 -11.043736580540337 0
      vertex -29.057494833858932 -7.460696614945645 0
    endloop
  endfacet
  facet normal -0.9822872507286886 -0.18738131458572513 0
    outer loop
      vertex -29.057494833858932 -7.460696614945645 -3
      vertex -29.057494833858932 -7.460696614945645 0
      vertex -29.763441039434337 -3.759997006929122 0
    endloop
  endfacet
  facet normal -0.9980267284282716 -0.06279051952931293 0
    outer loop
      vertex -29.763441039434337 -3.759997006929122 -3
      vertex -29.763441039434337 -3.759997006929122 0
      vertex -30 0 0
    endloop
  endfacet
  facet normal 0 0 1
    outer loop
      vertex -26.289200401315902 -14.452610223051462 0
      vertex -27.893294576647545 11.043736580540337 0
      vertex -27.893294576647545 -11.043736580540337 0
    endloop
  endfacet
  facet normal 0 0 1
    outer loop
      vertex -29.057494833858932 -7.460696614945645 0
      vertex -29.763441039434337 3.759997006929122 0
      vertex -29.763441039434337 -3.759997006929122 0
    endloop
  endfacet
  facet normal 0 0 1
    outer loop
      vertex -27.893294576647545 -11.043736580540337 0
      vertex -29.057494833858932 7.460696614945645 0
      vertex -29.057494833858932 -7.460696614945645 0
    endloop
  endfacet
  facet normal 0 0 1
    outer loop
      vertex -24.270509831248425 -17.633557568774194 0
      vertex -26.289200401315902 14.452610223051462 0
      vertex -26.289200401315902 -14.452610223051462 0
    endloop
  endfacet
  facet normal 0 0 1
    outer loop
      vertex -24.270509831248425 -17.633557568774194 0
      vertex -21.86905882264235 -20.536413177860656 0
      vertex -24.270509831248425 17.633557568774194 0
    endloop
  endfacet
  facet normal 0 0 1
    outer loop
      vertex -19.122719692460688 -23.11539728327368 0
      vertex -21.86905882264235 20.536413177860656 0
      vertex -21.86905882264235 -20.536413177860656 0
    endloop
  endfacet
  facet normal 0 0 1
    outer loop
      vertex -19.122719692460688 -23.11539728327368 0
      vertex -16.074803849369903 -25.32983776506045 0
      vertex -19.122719692460688 23.11539728327368 0
    endloop
  endfacet
  facet normal -0.3681245526846781 -0.9297764858882513 0
    outer loop
      vertex -12.773378746952172 -27.144811573980586 -3
      vertex -9.270509831248422 -28.531695488854606 0
      vertex -12.773378746952172 -27.144811573980586 0
    endloop
  endfacet
  facet normal -0.4817536741017145 -0.876306680043864 0
    outer loop
      vertex -16.074803849369903 -25.32983776506045 -3
      vertex -12.773378746952172 -27.144811573980586 0
      vertex -16.074803849369903 -25.32983776506045 0
    endloop
  endfacet
  facet normal -0.24868988716485493 -0.9685831611286311 0
    outer loop
      vertex -9.270509831248422 -28.531695488854606 -3
      vertex -5.621439437571745 -29.468617521860658 0
      vertex -9.270509831248422 -28.531695488854606 0
    endloop
  endfacet
  facet normal -0.12533323356430498 -0.9921147013144778 0
    outer loop
      vertex -5.621439437571745 -29.468617521860658 -3
      vertex -1.8837155858794128 -29.940801852848146 0
      vertex -5.621439437571745 -29.468617521860658 0
    endloop
  endfacet
  facet normal 0 -1 0
    outer loop
      vertex -1.8837155858794128 -29.940801852848146 -3
      vertex 1.8837155858794128 -29.940801852848146 0
      vertex -1.8837155858794128 -29.940801852848146 0
    endloop
  endfacet
  facet normal 0 0 1
    outer loop
      vertex -5.621439437571745 -29.468617521860658 0
      vertex -1.8837155858794128 -29.940801852848146 0
      vertex -3.9364305880756234 -3.6965543720149183 0
    endloop
  endfacet
  facet normal 0 0 1
    outer loop
      vertex -16.074803849369903 -25.32983776506045 0
      vertex -12.773378746952172 -27.144811573980586 0
      vertex -16.074803849369903 25.32983776506045 0
    endloop
  endfacet
  facet normal 0 0 1
    outer loop
      vertex -12.773378746952172 -27.144811573980586 0
      vertex -9.270509831248422 -28.531695488854606 0
      vertex -12.773378746952181 27.144811573980583 0
    endloop
  endfacet
  facet normal 0 0 1
    outer loop
      vertex -9.270509831248422 -28.531695488854606 0
      vertex -5.621439437571745 -29.468617521860658 0
      vertex -9.270509831248422 28.531695488854606 0
    endloop
  endfacet
  facet normal 0 0 1
    outer loop
      vertex -5.621439437571745 -29.468617521860658 0
      vertex -4.368691769624717 -3.174040362379355 0
      vertex -4.732056072236863 -2.6014698401492633 0
    endloop
  endfacet
  facet normal 0 0 1
    outer loop
      vertex -5.621439437571745 -29.468617521860658 0
      vertex -4.732056072236863 -2.6014698401492633 0
      vertex -5.020793023796558 -1.9878725844972607 0
    endloop
  endfacet
  facet normal 0 0 1
    outer loop
      vertex -5.621439437571745 -29.468617521860658 0
      vertex -3.9364305880756234 -3.6965543720149183 0
      vertex -4.368691769624717 -3.174040362379355 0
    endloop
  endfacet
  facet normal 0 0 1
    outer loop
      vertex -5.621439437571745 -29.468617521860658 0
      vertex -5.020793023796558 -1.9878725844972607 0
      vertex -5.230349070094608 -1.3429253906902163 0
    endloop
  endfacet
  facet normal 0 0 1
    outer loop
      vertex -5.621439437571745 -29.468617521860658 0
      vertex -5.230349070094608 -1.3429253906902163 0
      vertex -5.357419387098181 -0.676799461247242 0
    endloop
  endfacet
  facet normal 0 0 1
    outer loop
      vertex -5.621439437571745 -29.468617521860658 0
      vertex -5.357419387098181 -0.676799461247242 0
      vertex -5.4 0 0
    endloop
  endfacet
  facet normal 0 0 1
    outer loop
      vertex -1.8837155858794128 -29.940801852848146 0
      vertex -2.2992081744513913 -4.886066083316506 0
      vertex -2.8934646928865826 -4.559370797710881 0
    endloop
  endfacet
  facet normal 0 0 1
    outer loop
      vertex -1.8837155858794128 -29.940801852848146 0
      vertex -1.668691769624716 -5.135705187993829 0
      vertex -2.2992081744513913 -4.886066083316506 0
    endloop
  endfacet
  facet normal 0 0 1
    outer loop
      vertex -1.8837155858794128 -29.940801852848146 0
      vertex -3.4420895446429243 -4.160771510989263 0
      vertex -3.9364305880756234 -3.6965543720149183 0
    endloop
  endfacet
  facet normal 0 0 1
    outer loop
      vertex -1.8837155858794128 -29.940801852848146 0
      vertex -2.8934646928865826 -4.559370797710881 0
      vertex -3.4420895446429243 -4.160771510989263 0
    endloop
  endfacet
  facet normal 0 0 1
    outer loop
      vertex -1.8837155858794128 -29.940801852848146 0
      vertex -1.0118590987629141 -5.304351153934919 0
      vertex -1.668691769624716 -5.135705187993829 0
    endloop
  endfacet
  facet normal 0 0 1
    outer loop
      vertex -1.8837155858794128 -29.940801852848146 0
      vertex -0.3390688054582943 -5.389344333512667 0
      vertex -1.0118590987629141 -5.304351153934919 0
    endloop
  endfacet
  facet normal 0 0 1
    outer loop
      vertex -1.8837155858794128 -29.940801852848146 0
      vertex 0.3390688054582943 -5.389344333512667 0
      vertex -0.3390688054582943 -5.389344333512667 0
    endloop
  endfacet
  facet normal 0 0 -1
    outer loop
      vertex -29.763441039434337 -3.759997006929122 -3
      vertex -30 0 -3
      vertex -29.763441039434337 3.759997006929122 -3
    endloop
  endfacet
  facet normal 0 0 -1
    outer loop
      vertex -29.763441039434337 -3.759997006929122 -3
      vertex -29.763441039434337 3.759997006929122 -3
      vertex -29.057494833858932 7.460696614945645 -3
    endloop
  endfacet
  facet normal 0 0 -1
    outer loop
      vertex -29.057494833858932 -7.460696614945645 -3
      vertex -29.057494833858932 7.460696614945645 -3
      vertex -27.893294576647545 11.043736580540337 -3
    endloop
  endfacet
  facet normal 0 0 -1
    outer loop
      vertex -27.893294576647545 -11.043736580540337 -3
      vertex -27.893294576647545 11.043736580540337 -3
      vertex -26.289200401315902 14.452610223051462 -3
    endloop
  endfacet
  facet normal 0 0 -1
    outer loop
      vertex -26.289200401315902 -14.452610223051462 -3
      vertex -26.289200401315902 14.452610223051462 -3
      vertex -24.270509831248425 17.633557568774194 -3
    endloop
  endfacet
  facet normal 0 0 -1
    outer loop
      vertex -24.270509831248425 -17.633557568774194 -3
      vertex -24.270509831248425 17.633557568774194 -3
      vertex -21.86905882264235 20.536413177860656 -3
    endloop
  endfacet
  facet normal 0 0 -1
    outer loop
      vertex -21.86905882264235 -20.536413177860656 -3
      vertex -21.86905882264235 20.536413177860656 -3
      vertex -19.122719692460688 23.11539728327368 -3
    endloop
  endfacet
  facet normal 0 0 -1
    outer loop
      vertex -19.122719692460688 -23.11539728327368 -3
      vertex -19.122719692460688 23.11539728327368 -3
      vertex -16.074803849369903 25.32983776506045 -3
    endloop
  endfacet
  facet normal -0.9980267284282716 0.06279051952931293 0
    outer loop
      vertex -30 0 -3
      vertex -29.763441039434337 3.759997006929122 0
      vertex -29.763441039434337 3.759997006929122 -3
    endloop
  endfacet
  facet normal -0.9822872507286886 0.18738131458572513 0
    outer loop
      vertex -29.763441039434337 3.759997006929122 -3
      vertex -29.057494833858932 7.460696614945645 0
      vertex -29.057494833858932 7.460696614945645 -3
    endloop
  endfacet
  facet normal -0.9510565162951538 0.30901699437494673 0
    outer loop
      vertex -29.057494833858932 7.460696614945645 -3
      vertex -27.893294576647545 11.043736580540337 0
      vertex -27.893294576647545 11.043736580540337 -3
    endloop
  endfacet
  facet normal -0.9048270524660189 0.42577929156507377 0
    outer loop
      vertex -27.893294576647545 11.043736580540337 -3
      vertex -26.289200401315902 14.452610223051462 0
      vertex -26.289200401315902 14.452610223051462 -3
    endloop
  endfacet
  facet normal -0.8443279255020157 0.5358267949789955 0
    outer loop
      vertex -26.289200401315902 14.452610223051462 -3
      vertex -24.270509831248425 17.633557568774194 0
      vertex -24.270509831248425 17.633557568774194 -3
    endloop
  endfacet
  facet normal -0.7705132427757891 0.6374239897486899 0
    outer loop
      vertex -24.270509831248425 17.633557568774194 -3
      vertex -21.86905882264235 20.536413177860656 0
      vertex -21.86905882264235 20.536413177860656 -3
    endloop
  endfacet
  facet normal -0.6845471059286886 0.7289686274214117 0
    outer loop
      vertex -21.86905882264235 20.536413177860656 -3
      vertex -21.86905882264235 20.536413177860656 0
      vertex -19.122719692460688 23.11539728327368 -3
    endloop
  endfacet
  facet normal -0.5877852522924732 0.8090169943749473 0
    outer loop
      vertex -19.122719692460688 23.11539728327368 -3
      vertex -19.122719692460688 23.11539728327368 0
      vertex -16.074803849369903 25.32983776506045 -3
    endloop
  endfacet
  facet normal 0 0 -1
    outer loop
      vertex -16.074803849369903 -25.32983776506045 -3
      vertex -16.074803849369903 25.32983776506045 -3
      vertex -12.773378746952181 27.144811573980583 -3
    endloop
  endfacet
  facet normal 0 0 -1
    outer loop
      vertex -12.773378746952172 -27.144811573980586 -3
      vertex -12.773378746952181 27.144811573980583 -3
      vertex -9.270509831248422 28.531695488854606 -3
    endloop
  endfacet
  facet normal 0 0 -1
    outer loop
      vertex -9.270509831248422 -28.531695488854606 -3
      vertex -9.270509831248422 28.531695488854606 -3
      vertex -5.621439437571738 29.46861752186066 -3
    endloop
  endfacet
  facet normal 0 0 -1
    outer loop
      vertex -5.621439437571745 -29.468617521860658 -3
      vertex -1.8837155858793984 29.940801852848146 -3
      vertex -3.4304273710835216 0.43336375759349754 -3
    endloop
  endfacet
  facet normal 0 0 -1
    outer loop
      vertex -5.621439437571745 -29.468617521860658 -3
      vertex -5.621439437571738 29.46861752186066 -3
      vertex -1.8837155858793984 29.940801852848146 -3
    endloop
  endfacet
  facet normal 0 0 -1
    outer loop
      vertex -1.8837155858793984 29.940801852848146 -3
      vertex -3.3490625455947667 0.8598931098507866 -3
      vertex -3.4304273710835216 0.43336375759349754 -3
    endloop
  endfacet
  facet normal 0 0 -1
    outer loop
      vertex -1.8837155858793984 29.940801852848146 -3
      vertex -3.2148810031289923 1.2728614340904825 -3
      vertex -3.3490625455947667 0.8598931098507866 -3
    endloop
  endfacet
  facet normal 0 0 -1
    outer loop
      vertex -1.8837155858793984 29.940801852848146 -3
      vertex -3.029998866767051 1.6657559731440084 -3
      vertex -3.2148810031289923 1.2728614340904825 -3
    endloop
  endfacet
  facet normal 0 0 -1
    outer loop
      vertex -1.8837155858793984 29.940801852848146 -3
      vertex -2.797331838242607 2.0323805454266664 -3
      vertex -3.029998866767051 1.6657559731440084 -3
    endloop
  endfacet
  facet normal 0 0 -1
    outer loop
      vertex -1.8837155858793984 29.940801852848146 -3
      vertex -2.520549215584035 2.3669532624226575 -3
      vertex -2.797331838242607 2.0323805454266664 -3
    endloop
  endfacet
  facet normal 0 0 -1
    outer loop
      vertex -1.8837155858793984 29.940801852848146 -3
      vertex -2.2040160260925843 2.6641977125209024 -3
      vertex -2.520549215584035 2.3669532624226575 -3
    endloop
  endfacet
  facet normal 0 0 -1
    outer loop
      vertex -1.8837155858793984 29.940801852848146 -3
      vertex -1.8527241872543003 2.919426173178121 -3
      vertex -2.2040160260925843 2.6641977125209024 -3
    endloop
  endfacet
  facet normal 0 0 -1
    outer loop
      vertex -1.8837155858793984 29.940801852848146 -3
      vertex -1.4722137812192322 3.1286135391036596 -3
      vertex -1.8527241872543003 2.919426173178121 -3
    endloop
  endfacet
  facet normal 0 0 -1
    outer loop
      vertex -1.8837155858793984 29.940801852848146 -3
      vertex -1.0684856843964528 3.2884608005743963 -3
      vertex -1.4722137812192322 3.1286135391036596 -3
    endloop
  endfacet
  facet normal 0 0 -1
    outer loop
      vertex -1.8837155858793984 29.940801852848146 -3
      vertex -0.6479069300483323 3.396447070788812 -3
      vertex -1.0684856843964528 3.2884608005743963 -3
    endloop
  endfacet
  facet normal 0 0 -1
    outer loop
      vertex -1.8837155858793984 29.940801852848146 -3
      vertex -0.21711029637251017 3.4508693417577545 -3
      vertex -0.6479069300483323 3.396447070788812 -3
    endloop
  endfacet
  facet normal 0 0 -1
    outer loop
      vertex -1.8837155858793984 29.940801852848146 -3
      vertex 1.8837155858793984 29.940801852848146 -3
      vertex -0.21711029637251017 3.4508693417577545 -3
    endloop
  endfacet
  facet normal -0.48175367410171477 0.8763066800438638 0
    outer loop
      vertex -16.074803849369903 25.32983776506045 -3
      vertex -16.074803849369903 25.32983776506045 0
      vertex -12.773378746952181 27.144811573980583 -3
    endloop
  endfacet
  facet normal -0.36812455268467803 0.9297764858882512 0
    outer loop
      vertex -12.773378746952181 27.144811573980583 -3
      vertex -12.773378746952181 27.144811573980583 0
      vertex -9.270509831248422 28.531695488854606 -3
    endloop
  endfacet
  facet normal -0.24868988716485538 0.968583161128631 0
    outer loop
      vertex -9.270509831248422 28.531695488854606 -3
      vertex -9.270509831248422 28.531695488854606 0
      vertex -5.621439437571738 29.46861752186066 -3
    endloop
  endfacet
  facet normal -0.1253332335643038 0.9921147013144779 0
    outer loop
      vertex -5.621439437571738 29.46861752186066 -3
      vertex -5.621439437571738 29.46861752186066 0
      vertex -1.8837155858793984 29.940801852848146 -3
    endloop
  endfacet
  facet normal 0 1 0
    outer loop
      vertex -1.8837155858793984 29.940801852848146 -3
      vertex -1.8837155858793984 29.940801852848146 0
      vertex 1.8837155858793984 29.940801852848146 -3
    endloop
  endfacet
  facet normal -0.9980267284282716 0.06279051952931293 0
    outer loop
      vertex -30 0 -3
      vertex -30 0 0
      vertex -29.763441039434337 3.759997006929122 0
    endloop
  endfacet
  facet normal -0.9822872507286886 0.18738131458572513 0
    outer loop
      vertex -29.763441039434337 3.759997006929122 -3
      vertex -29.763441039434337 3.759997006929122 0
      vertex -29.057494833858932 7.460696614945645 0
    endloop
  endfacet
  facet normal -0.9510565162951538 0.30901699437494673 0
    outer loop
      vertex -29.057494833858932 7.460696614945645 -3
      vertex -29.057494833858932 7.460696614945645 0
      vertex -27.893294576647545 11.043736580540337 0
    endloop
  endfacet
  facet normal -0.9048270524660189 0.42577929156507377 0
    outer loop
      vertex -27.893294576647545 11.043736580540337 -3
      vertex -27.893294576647545 11.043736580540337 0
      vertex -26.289200401315902 14.452610223051462 0
    endloop
  endfacet
  facet normal 0 0 1
    outer loop
      vertex -29.763441039434337 -3.759997006929122 0
      vertex -29.763441039434337 3.759997006929122 0
      vertex -30 0 0
    endloop
  endfacet
  facet normal 0 0 1
    outer loop
      vertex -29.057494833858932 -7.460696614945645 0
      vertex -29.057494833858932 7.460696614945645 0
      vertex -29.763441039434337 3.759997006929122 0
    endloop
  endfacet
  facet normal 0 0 1
    outer loop
      vertex -27.893294576647545 -11.043736580540337 0
      vertex -27.893294576647545 11.043736580540337 0
      vertex -29.057494833858932 7.460696614945645 0
    endloop
  endfacet
  facet normal 0 0 1
    outer loop
      vertex -26.289200401315902 -14.452610223051462 0
      vertex -26.289200401315902 14.452610223051462 0
      vertex -27.893294576647545 11.043736580540337 0
    endloop
  endfacet
  facet normal 0 0 1
    outer loop
      vertex -24.270509831248425 -17.633557568774194 0
      vertex -24.270509831248425 17.633557568774194 0
      vertex -26.289200401315902 14.452610223051462 0
    endloop
  endfacet
  facet normal 0 0 1
    outer loop
      vertex -21.86905882264235 -20.536413177860656 0
      vertex -21.86905882264235 20.536413177860656 0
      vertex -24.270509831248425 17.633557568774194 0
    endloop
  endfacet
  facet normal 0 0 1
    outer loop
      vertex -19.122719692460688 -23.11539728327368 0
      vertex -19.122719692460688 23.11539728327368 0
      vertex -21.86905882264235 20.536413177860656 0
    endloop
  endfacet
  facet normal 0 0 1
    outer loop
      vertex -16.074803849369903 -25.32983776506045 0
      vertex -16.074803849369903 25.32983776506045 0
      vertex -19.122719692460688 23.11539728327368 0
    endloop
  endfacet
  facet normal -0.8443279255020157 0.5358267949789955 0
    outer loop
      vertex -26.289200401315902 14.452610223051462 -3
      vertex -26.289200401315902 14.452610223051462 0
      vertex -24.270509831248425 17.633557568774194 0
    endloop
  endfacet
  facet normal -0.7705132427757891 0.6374239897486899 0
    outer loop
      vertex -24.270509831248425 17.633557568774194 -3
      vertex -24.270509831248425 17.633557568774194 0
      vertex -21.86905882264235 20.536413177860656 0
    endloop
  endfacet
  facet normal -0.6845471059286886 0.7289686274214117 0
    outer loop
      vertex -19.122719692460688 23.11539728327368 -3
      vertex -21.86905882264235 20.536413177860656 0
      vertex -19.122719692460688 23.11539728327368 0
    endloop
  endfacet
  facet normal -0.5877852522924732 0.8090169943749473 0
    outer loop
      vertex -16.074803849369903 25.32983776506045 -3
      vertex -19.122719692460688 23.11539728327368 0
      vertex -16.074803849369903 25.32983776506045 0
    endloop
  endfacet
  facet normal 0 0 1
    outer loop
      vertex -12.773378746952172 -27.144811573980586 0
      vertex -12.773378746952181 27.144811573980583 0
      vertex -16.074803849369903 25.32983776506045 0
    endloop
  endfacet
  facet normal 0 0 1
    outer loop
      vertex -9.270509831248422 -28.531695488854606 0
      vertex -9.270509831248422 28.531695488854606 0
      vertex -12.773378746952181 27.144811573980583 0
    endloop
  endfacet
  facet normal 0 0 1
    outer loop
      vertex -5.621439437571745 -29.468617521860658 0
      vertex -5.4 0 0
      vertex -5.621439437571738 29.46861752186066 0
    endloop
  endfacet
  facet normal 0 0 1
    outer loop
      vertex -5.621439437571745 -29.468617521860658 0
      vertex -5.621439437571738 29.46861752186066 0
      vertex -9.270509831248422 28.531695488854606 0
    endloop
  endfacet
  facet normal 0 0 1
    outer loop
      vertex -5.621439437571738 29.46861752186066 0
      vertex -5.4 0 0
      vertex -5.357419387098181 0.676799461247242 0
    endloop
  endfacet
  facet normal 0 0 1
    outer loop
      vertex -5.621439437571738 29.46861752186066 0
      vertex -5.357419387098181 0.676799461247242 0
      vertex -5.230349070094608 1.3429253906902163 0
    endloop
  endfacet
  facet normal 0 0 1
    outer loop
      vertex -5.621439437571738 29.46861752186066 0
      vertex -5.230349070094608 1.3429253906902163 0
      vertex -5.020793023796558 1.9878725844972607 0
    endloop
  endfacet
  facet normal 0 0 1
    outer loop
      vertex -5.621439437571738 29.46861752186066 0
      vertex -5.020793023796558 1.9878725844972607 0
      vertex -4.732056072236863 2.6014698401492633 0
    endloop
  endfacet
  facet normal 0 0 1
    outer loop
      vertex -5.621439437571738 29.46861752186066 0
      vertex -4.732056072236863 2.6014698401492633 0
      vertex -4.368691769624717 3.174040362379355 0
    endloop
  endfacet
  facet normal 0 0 1
    outer loop
      vertex -5.621439437571738 29.46861752186066 0
      vertex -4.368691769624717 3.174040362379355 0
      vertex -3.9364305880756234 3.6965543720149183 0
    endloop
  endfacet
  facet normal 0 0 1
    outer loop
      vertex -5.621439437571738 29.46861752186066 0
      vertex -3.9364305880756234 3.6965543720149183 0
      vertex -3.4420895446429243 4.160771510989263 0
    endloop
  endfacet
  facet normal 0 0 1
    outer loop
      vertex -5.621439437571738 29.46861752186066 0
      vertex -3.4420895446429243 4.160771510989263 0
      vertex -2.8934646928865826 4.559370797710881 0
    endloop
  endfacet
  facet normal 0 0 1
    outer loop
      vertex -5.621439437571738 29.46861752186066 0
      vertex -2.8934646928865826 4.559370797710881 0
      vertex -2.299208174451393 4.886066083316505 0
    endloop
  endfacet
  facet normal 0 0 1
    outer loop
      vertex -5.621439437571738 29.46861752186066 0
      vertex -2.299208174451393 4.886066083316505 0
      vertex -1.668691769624716 5.135705187993829 0
    endloop
  endfacet
  facet normal 0 0 1
    outer loop
      vertex -1.8837155858793984 29.940801852848146 0
      vertex -1.668691769624716 5.135705187993829 0
      vertex -1.0118590987629128 5.3043511539349195 0
    endloop
  endfacet
  facet normal 0 0 1
    outer loop
      vertex -1.8837155858793984 29.940801852848146 0
      vertex -1.0118590987629128 5.3043511539349195 0
      vertex -0.3390688054582858 5.389344333512667 0
    endloop
  endfacet
  facet normal -0.48175367410171477 0.8763066800438638 0
    outer loop
      vertex -16.074803849369903 25.32983776506045 0
      vertex -12.773378746952181 27.144811573980583 0
      vertex -12.773378746952181 27.144811573980583 -3
    endloop
  endfacet
  facet normal -0.36812455268467803 0.9297764858882512 0
    outer loop
      vertex -9.270509831248422 28.531695488854606 -3
      vertex -12.773378746952181 27.144811573980583 0
      vertex -9.270509831248422 28.531695488854606 0
    endloop
  endfacet
  facet normal -0.24868988716485538 0.968583161128631 0
    outer loop
      vertex -5.621439437571738 29.46861752186066 -3
      vertex -9.270509831248422 28.531695488854606 0
      vertex -5.621439437571738 29.46861752186066 0
    endloop
  endfacet
  facet normal -0.1253332335643038 0.9921147013144779 0
    outer loop
      vertex -1.8837155858793984 29.940801852848146 -3
      vertex -5.621439437571738 29.46861752186066 0
      vertex -1.8837155858793984 29.940801852848146 0
    endloop
  endfacet
  facet normal 0 0 1
    outer loop
      vertex -5.621439437571738 29.46861752186066 0
      vertex -1.668691769624716 5.135705187993829 0
      vertex -1.8837155858793984 29.940801852848146 0
    endloop
  endfacet
  facet normal 0 0 1
    outer loop
      vertex -1.8837155858793984 29.940801852848146 0
      vertex -0.3390688054582858 5.389344333512667 0
      vertex 1.8837155858793984 29.940801852848146 0
    endloop
  endfacet
  facet normal 0 0 -1
    outer loop
      vertex -1.8837155858794128 -29.940801852848146 -3
      vertex 0.2171102963725118 -3.4508693417577545 -3
      vertex 1.8837155858794128 -29.940801852848146 -3
    endloop
  endfacet
  facet normal 0 -1 0
    outer loop
      vertex -1.8837155858794128 -29.940801852848146 -3
      vertex 1.8837155858794128 -29.940801852848146 -3
      vertex 1.8837155858794128 -29.940801852848146 0
    endloop
  endfacet
  facet normal 0.12533323356430498 -0.9921147013144778 0
    outer loop
      vertex 1.8837155858794128 -29.940801852848146 -3
      vertex 5.621439437571745 -29.468617521860658 -3
      vertex 5.621439437571745 -29.468617521860658 0
    endloop
  endfacet
  facet normal 0.24868988716485493 -0.9685831611286311 0
    outer loop
      vertex 5.621439437571745 -29.468617521860658 -3
      vertex 9.270509831248422 -28.531695488854606 -3
      vertex 9.270509831248422 -28.531695488854606 0
    endloop
  endfacet
  facet normal 0.3681245526846781 -0.9297764858882513 0
    outer loop
      vertex 9.270509831248422 -28.531695488854606 -3
      vertex 12.773378746952172 -27.144811573980586 -3
      vertex 12.773378746952172 -27.144811573980586 0
    endloop
  endfacet
  facet normal 0.4817536741017143 -0.876306680043864 0
    outer loop
      vertex 12.773378746952172 -27.144811573980586 -3
      vertex 16.074803849369886 -25.32983776506046 -3
      vertex 16.074803849369886 -25.32983776506046 0
    endloop
  endfacet
  facet normal 0 0 -1
    outer loop
      vertex 1.8837155858794128 -29.940801852848146 -3
      vertex 0.2171102963725118 -3.4508693417577545 -3
      vertex 0.6479069300483331 -3.396447070788812 -3
    endloop
  endfacet
  facet normal 0 0 -1
    outer loop
      vertex 1.8837155858794128 -29.940801852848146 -3
      vertex 0.6479069300483331 -3.396447070788812 -3
      vertex 1.0684856843964528 -3.2884608005743963 -3
    endloop
  endfacet
  facet normal 0 0 -1
    outer loop
      vertex 1.8837155858794128 -29.940801852848146 -3
      vertex 1.0684856843964528 -3.2884608005743963 -3
      vertex 1.472213781219231 -3.12861353910366 -3
    endloop
  endfacet
  facet normal 0 0 -1
    outer loop
      vertex 1.8837155858794128 -29.940801852848146 -3
      vertex 1.472213781219231 -3.12861353910366 -3
      vertex 1.8527241872542985 -2.9194261731781226 -3
    endloop
  endfacet
  facet normal 0 0 -1
    outer loop
      vertex 1.8837155858794128 -29.940801852848146 -3
      vertex 1.8527241872542985 -2.9194261731781226 -3
      vertex 2.2040160260925856 -2.6641977125209015 -3
    endloop
  endfacet
  facet normal 0 0 -1
    outer loop
      vertex 1.8837155858794128 -29.940801852848146 -3
      vertex 2.2040160260925856 -2.6641977125209015 -3
      vertex 2.5205492155840354 -2.3669532624226575 -3
    endloop
  endfacet
  facet normal 0 0 -1
    outer loop
      vertex 1.8837155858794128 -29.940801852848146 -3
      vertex 2.5205492155840354 -2.3669532624226575 -3
      vertex 2.797331838242607 -2.032380545426667 -3
    endloop
  endfacet
  facet normal 0 0 -1
    outer loop
      vertex 1.8837155858794128 -29.940801852848146 -3
      vertex 2.797331838242607 -2.032380545426667 -3
      vertex 3.029998866767051 -1.6657559731440081 -3
    endloop
  endfacet
  facet normal 0 0 -1
    outer loop
      vertex 1.8837155858794128 -29.940801852848146 -3
      vertex 3.029998866767051 -1.6657559731440081 -3
      vertex 3.214881003128992 -1.272861434090484 -3
    endloop
  endfacet
  facet normal 0 0 -1
    outer loop
      vertex 1.8837155858794128 -29.940801852848146 -3
      vertex 3.214881003128992 -1.272861434090484 -3
      vertex 3.349062545594767 -0.8598931098507852 -3
    endloop
  endfacet
  facet normal 0 0 -1
    outer loop
      vertex 1.8837155858794128 -29.940801852848146 -3
      vertex 3.349062545594767 -0.8598931098507852 -3
      vertex 3.4304273710835216 -0.43336375759349754 -3
    endloop
  endfacet
  facet normal 0 0 -1
    outer loop
      vertex 1.8837155858794128 -29.940801852848146 -3
      vertex 5.621439437571738 29.46861752186066 -3
      vertex 5.621439437571745 -29.468617521860658 -3
    endloop
  endfacet
  facet normal 0 0 -1
    outer loop
      vertex 1.8837155858794128 -29.940801852848146 -3
      vertex 3.4304273710835216 -0.43336375759349754 -3
      vertex 5.621439437571738 29.46861752186066 -3
    endloop
  endfacet
  facet normal 0 0 -1
    outer loop
      vertex 5.621439437571745 -29.468617521860658 -3
      vertex 9.270509831248422 28.531695488854606 -3
      vertex 9.270509831248422 -28.531695488854606 -3
    endloop
  endfacet
  facet normal 0 0 -1
    outer loop
      vertex 9.270509831248422 -28.531695488854606 -3
      vertex 12.773378746952181 27.144811573980583 -3
      vertex 12.773378746952172 -27.144811573980586 -3
    endloop
  endfacet
  facet normal 0 0 -1
    outer loop
      vertex 12.773378746952172 -27.144811573980586 -3
      vertex 16.0748038493699 25.329837765060454 -3
      vertex 16.074803849369886 -25.32983776506046 -3
    endloop
  endfacet
  facet normal 0.5877852522924728 -0.8090169943749477 0
    outer loop
      vertex 16.074803849369886 -25.32983776506046 -3
      vertex 19.1227196924607 -23.115397283273673 -3
      vertex 19.1227196924607 -23.115397283273673 0
    endloop
  endfacet
  facet normal 0.684547105928689 -0.7289686274214113 0
    outer loop
      vertex 19.1227196924607 -23.115397283273673 -3
      vertex 21.86905882264235 -20.536413177860656 -3
      vertex 21.86905882264235 -20.536413177860656 0
    endloop
  endfacet
  facet normal 0.7705132427757891 -0.6374239897486899 0
    outer loop
      vertex 21.86905882264235 -20.536413177860656 -3
      vertex 24.270509831248425 -17.633557568774194 -3
      vertex 21.86905882264235 -20.536413177860656 0
    endloop
  endfacet
  facet normal 0.8443279255020157 -0.5358267949789955 0
    outer loop
      vertex 24.270509831248425 -17.633557568774194 -3
      vertex 26.289200401315902 -14.452610223051462 -3
      vertex 24.270509831248425 -17.633557568774194 0
    endloop
  endfacet
  facet normal 0 0 -1
    outer loop
      vertex 16.074803849369886 -25.32983776506046 -3
      vertex 19.12271969246069 23.115397283273673 -3
      vertex 19.1227196924607 -23.115397283273673 -3
    endloop
  endfacet
  facet normal 0 0 -1
    outer loop
      vertex 19.1227196924607 -23.115397283273673 -3
      vertex 21.869058822642348 20.536413177860663 -3
      vertex 21.86905882264235 -20.536413177860656 -3
    endloop
  endfacet
  facet normal 0 0 -1
    outer loop
      vertex 21.86905882264235 -20.536413177860656 -3
      vertex 24.270509831248425 17.633557568774194 -3
      vertex 24.270509831248425 -17.633557568774194 -3
    endloop
  endfacet
  facet normal 0 0 -1
    outer loop
      vertex 24.270509831248425 -17.633557568774194 -3
      vertex 26.289200401315906 14.45261022305146 -3
      vertex 26.289200401315902 -14.452610223051462 -3
    endloop
  endfacet
  facet normal 0 0 -1
    outer loop
      vertex 26.289200401315902 -14.452610223051462 -3
      vertex 27.89329457664754 11.043736580540338 -3
      vertex 27.893294576647538 -11.043736580540351 -3
    endloop
  endfacet
  facet normal 0 0 -1
    outer loop
      vertex 27.893294576647538 -11.043736580540351 -3
      vertex 29.057494833858932 7.460696614945644 -3
      vertex 29.057494833858936 -7.460696614945633 -3
    endloop
  endfacet
  facet normal 0 0 -1
    outer loop
      vertex 29.057494833858936 -7.460696614945633 -3
      vertex 29.763441039434337 3.7599970069291277 -3
      vertex 29.763441039434337 -3.759997006929122 -3
    endloop
  endfacet
  facet normal 0.904827052466019 -0.4257792915650737 0
    outer loop
      vertex 26.289200401315902 -14.452610223051462 -3
      vertex 27.893294576647538 -11.043736580540351 -3
      vertex 26.289200401315902 -14.452610223051462 0
    endloop
  endfacet
  facet normal 0.9510565162951536 -0.30901699437494723 0
    outer loop
      vertex 27.893294576647538 -11.043736580540351 -3
      vertex 29.057494833858936 -7.460696614945633 -3
      vertex 27.893294576647538 -11.043736580540351 0
    endloop
  endfacet
  facet normal 0.9822872507286887 -0.18738131458572485 0
    outer loop
      vertex 29.057494833858936 -7.460696614945633 -3
      vertex 29.763441039434337 -3.759997006929122 -3
      vertex 29.057494833858936 -7.460696614945633 0
    endloop
  endfacet
  facet normal 0.9980267284282716 -0.06279051952931293 0
    outer loop
      vertex 29.763441039434337 -3.759997006929122 -3
      vertex 30 0 -3
      vertex 29.763441039434337 -3.759997006929122 0
    endloop
  endfacet
  facet normal 0.12533323356430498 -0.9921147013144778 0
    outer loop
      vertex 1.8837155858794128 -29.940801852848146 -3
      vertex 5.621439437571745 -29.468617521860658 0
      vertex 1.8837155858794128 -29.940801852848146 0
    endloop
  endfacet
  facet normal 0.24868988716485493 -0.9685831611286311 0
    outer loop
      vertex 5.621439437571745 -29.468617521860658 -3
      vertex 9.270509831248422 -28.531695488854606 0
      vertex 5.621439437571745 -29.468617521860658 0
    endloop
  endfacet
  facet normal 0.3681245526846781 -0.9297764858882513 0
    outer loop
      vertex 9.270509831248422 -28.531695488854606 -3
      vertex 12.773378746952172 -27.144811573980586 0
      vertex 9.270509831248422 -28.531695488854606 0
    endloop
  endfacet
  facet normal 0.4817536741017143 -0.876306680043864 0
    outer loop
      vertex 12.773378746952172 -27.144811573980586 -3
      vertex 16.074803849369886 -25.32983776506046 0
      vertex 12.773378746952172 -27.144811573980586 0
    endloop
  endfacet
  facet normal 0 0 1
    outer loop
      vertex -1.8837155858794128 -29.940801852848146 0
      vertex 1.8837155858794128 -29.940801852848146 0
      vertex 0.3390688054582943 -5.389344333512667 0
    endloop
  endfacet
  facet normal 0 0 1
    outer loop
      vertex 1.8837155858794128 -29.940801852848146 0
      vertex 5.621439437571745 -29.468617521860658 0
      vertex 1.668691769624716 -5.135705187993829 0
    endloop
  endfacet
  facet normal 0 0 1
    outer loop
      vertex 1.8837155858794128 -29.940801852848146 0
      vertex 1.0118590987629141 -5.304351153934919 0
      vertex 0.3390688054582943 -5.389344333512667 0
    endloop
  endfacet
  facet normal 0 0 1
    outer loop
      vertex 1.8837155858794128 -29.940801852848146 0
      vertex 1.668691769624716 -5.135705187993829 0
      vertex 1.0118590987629141 -5.304351153934919 0
    endloop
  endfacet
  facet normal 0 0 1
    outer loop
      vertex 5.621439437571745 -29.468617521860658 0
      vertex 2.2992081744513913 -4.886066083316506 0
      vertex 1.668691769624716 -5.135705187993829 0
    endloop
  endfacet
  facet normal 0 0 1
    outer loop
      vertex 5.621439437571745 -29.468617521860658 0
      vertex 2.89346469288658 -4.559370797710883 0
      vertex 2.2992081744513913 -4.886066083316506 0
    endloop
  endfacet
  facet normal 0 0 1
    outer loop
      vertex 5.621439437571745 -29.468617521860658 0
      vertex 3.442089544642926 -4.160771510989261 0
      vertex 2.89346469288658 -4.559370797710883 0
    endloop
  endfacet
  facet normal 0 0 1
    outer loop
      vertex 5.621439437571745 -29.468617521860658 0
      vertex 3.9364305880756234 -3.6965543720149183 0
      vertex 3.442089544642926 -4.160771510989261 0
    endloop
  endfacet
  facet normal 0 0 1
    outer loop
      vertex 5.621439437571745 -29.468617521860658 0
      vertex 4.368691769624717 -3.174040362379355 0
      vertex 3.9364305880756234 -3.6965543720149183 0
    endloop
  endfacet
  facet normal 0 0 1
    outer loop
      vertex 5.621439437571745 -29.468617521860658 0
      vertex 4.732056072236863 -2.6014698401492633 0
      vertex 4.368691769624717 -3.174040362379355 0
    endloop
  endfacet
  facet normal 0 0 1
    outer loop
      vertex 5.621439437571745 -29.468617521860658 0
      vertex 5.020793023796557 -1.9878725844972633 0
      vertex 4.732056072236863 -2.6014698401492633 0
    endloop
  endfacet
  facet normal 0 0 1
    outer loop
      vertex 5.621439437571745 -29.468617521860658 0
      vertex 5.230349070094609 -1.342925390690214 0
      vertex 5.020793023796557 -1.9878725844972633 0
    endloop
  endfacet
  facet normal 0 0 1
    outer loop
      vertex 5.621439437571745 -29.468617521860658 0
      vertex 5.357419387098181 -0.676799461247242 0
      vertex 5.230349070094609 -1.342925390690214 0
    endloop
  endfacet
  facet normal 0 0 1
    outer loop
      vertex 5.621439437571745 -29.468617521860658 0
      vertex 5.4 0 0
      vertex 5.357419387098181 -0.676799461247242 0
    endloop
  endfacet
  facet normal 0 0 1
    outer loop
      vertex 5.621439437571745 -29.468617521860658 0
      vertex 9.270509831248422 -28.531695488854606 0
      vertex 5.621439437571738 29.46861752186066 0
    endloop
  endfacet
  facet normal 0 0 1
    outer loop
      vertex 9.270509831248422 -28.531695488854606 0
      vertex 12.773378746952172 -27.144811573980586 0
      vertex 9.270509831248422 28.531695488854606 0
    endloop
  endfacet
  facet normal 0 0 1
    outer loop
      vertex 12.773378746952172 -27.144811573980586 0
      vertex 16.074803849369886 -25.32983776506046 0
      vertex 12.773378746952181 27.144811573980583 0
    endloop
  endfacet
  facet normal 0.5877852522924728 -0.8090169943749477 0
    outer loop
      vertex 16.074803849369886 -25.32983776506046 -3
      vertex 19.1227196924607 -23.115397283273673 0
      vertex 16.074803849369886 -25.32983776506046 0
    endloop
  endfacet
  facet normal 0.684547105928689 -0.7289686274214113 0
    outer loop
      vertex 19.1227196924607 -23.115397283273673 -3
      vertex 21.86905882264235 -20.536413177860656 0
      vertex 19.1227196924607 -23.115397283273673 0
    endloop
  endfacet
  facet normal 0.7705132427757891 -0.6374239897486899 0
    outer loop
      vertex 24.270509831248425 -17.633557568774194 -3
      vertex 24.270509831248425 -17.633557568774194 0
      vertex 21.86905882264235 -20.536413177860656 0
    endloop
  endfacet
  facet normal 0.8443279255020157 -0.5358267949789955 0
    outer loop
      vertex 24.270509831248425 -17.633557568774194 0
      vertex 26.289200401315902 -14.452610223051462 -3
      vertex 26.289200401315902 -14.452610223051462 0
    endloop
  endfacet
  facet normal 0.904827052466019 -0.4257792915650737 0
    outer loop
      vertex 27.893294576647538 -11.043736580540351 -3
      vertex 27.893294576647538 -11.043736580540351 0
      vertex 26.289200401315902 -14.452610223051462 0
    endloop
  endfacet
  facet normal 0.9510565162951536 -0.30901699437494723 0
    outer loop
      vertex 29.057494833858936 -7.460696614945633 -3
      vertex 29.057494833858936 -7.460696614945633 0
      vertex 27.893294576647538 -11.043736580540351 0
    endloop
  endfacet
  facet normal 0.9822872507286887 -0.18738131458572485 0
    outer loop
      vertex 29.763441039434337 -3.759997006929122 -3
      vertex 29.763441039434337 -3.759997006929122 0
      vertex 29.057494833858936 -7.460696614945633 0
    endloop
  endfacet
  facet normal 0.9980267284282716 -0.06279051952931293 0
    outer loop
      vertex 29.763441039434337 -3.759997006929122 0
      vertex 30 0 -3
      vertex 30 0 0
    endloop
  endfacet
  facet normal 0 0 1
    outer loop
      vertex 16.074803849369886 -25.32983776506046 0
      vertex 19.1227196924607 -23.115397283273673 0
      vertex 16.0748038493699 25.329837765060454 0
    endloop
  endfacet
  facet normal 0 0 1
    outer loop
      vertex 19.1227196924607 -23.115397283273673 0
      vertex 21.86905882264235 -20.536413177860656 0
      vertex 19.12271969246069 23.115397283273673 0
    endloop
  endfacet
  facet normal 0 0 1
    outer loop
      vertex 21.86905882264235 -20.536413177860656 0
      vertex 24.270509831248425 -17.633557568774194 0
      vertex 21.869058822642348 20.536413177860663 0
    endloop
  endfacet
  facet normal 0 0 1
    outer loop
      vertex 24.270509831248425 -17.633557568774194 0
      vertex 26.289200401315902 -14.452610223051462 0
      vertex 24.270509831248425 17.633557568774194 0
    endloop
  endfacet
  facet normal 0 0 1
    outer loop
      vertex 26.289200401315902 -14.452610223051462 0
      vertex 27.893294576647538 -11.043736580540351 0
      vertex 26.289200401315906 14.45261022305146 0
    endloop
  endfacet
  facet normal 0 0 1
    outer loop
      vertex 27.893294576647538 -11.043736580540351 0
      vertex 29.057494833858936 -7.460696614945633 0
      vertex 27.89329457664754 11.043736580540338 0
    endloop
  endfacet
  facet normal 0 0 1
    outer loop
      vertex 29.057494833858936 -7.460696614945633 0
      vertex 29.763441039434337 -3.759997006929122 0
      vertex 29.057494833858932 7.460696614945644 0
    endloop
  endfacet
  facet normal 0 0 -1
    outer loop
      vertex 1.8837155858793984 29.940801852848146 -3
      vertex 0.217110296372504 3.4508693417577545 -3
      vertex -0.21711029637251017 3.4508693417577545 -3
    endloop
  endfacet
  facet normal 0 0 -1
    outer loop
      vertex 1.8837155858793984 29.940801852848146 -3
      vertex 0.6479069300483323 3.396447070788812 -3
      vertex 0.217110296372504 3.4508693417577545 -3
    endloop
  endfacet
  facet normal 0 0 -1
    outer loop
      vertex 1.8837155858793984 29.940801852848146 -3
      vertex 1.4722137812192322 3.1286135391036596 -3
      vertex 1.0684856843964528 3.2884608005743963 -3
    endloop
  endfacet
  facet normal 0 0 -1
    outer loop
      vertex 1.8837155858793984 29.940801852848146 -3
      vertex 1.0684856843964528 3.2884608005743963 -3
      vertex 0.6479069300483323 3.396447070788812 -3
    endloop
  endfacet
  facet normal 0 0 -1
    outer loop
      vertex 5.621439437571738 29.46861752186066 -3
      vertex 2.2040160260925847 2.6641977125209015 -3
      vertex 1.8527241872543 2.9194261731781213 -3
    endloop
  endfacet
  facet normal 0 0 -1
    outer loop
      vertex 5.621439437571738 29.46861752186066 -3
      vertex 1.8527241872543 2.9194261731781213 -3
      vertex 1.4722137812192322 3.1286135391036596 -3
    endloop
  endfacet
  facet normal 0 0 -1
    outer loop
      vertex 5.621439437571738 29.46861752186066 -3
      vertex 2.5205492155840346 2.3669532624226584 -3
      vertex 2.2040160260925847 2.6641977125209015 -3
    endloop
  endfacet
  facet normal 0 0 -1
    outer loop
      vertex 5.621439437571738 29.46861752186066 -3
      vertex 2.797331838242607 2.032380545426667 -3
      vertex 2.5205492155840346 2.3669532624226584 -3
    endloop
  endfacet
  facet normal 0 0 -1
    outer loop
      vertex 5.621439437571738 29.46861752186066 -3
      vertex 3.4304273710835216 -0.43336375759349754 -3
      vertex 3.457692307692308 0 -3
    endloop
  endfacet
  facet normal 0 0 -1
    outer loop
      vertex 5.621439437571738 29.46861752186066 -3
      vertex 3.457692307692308 0 -3
      vertex 3.4304273710835216 0.43336375759349816 -3
    endloop
  endfacet
  facet normal 0 0 -1
    outer loop
      vertex 5.621439437571738 29.46861752186066 -3
      vertex 3.4304273710835216 0.43336375759349816 -3
      vertex 3.3490625455947667 0.8598931098507864 -3
    endloop
  endfacet
  facet normal 0 0 -1
    outer loop
      vertex 5.621439437571738 29.46861752186066 -3
      vertex 3.3490625455947667 0.8598931098507864 -3
      vertex 3.2148810031289923 1.2728614340904825 -3
    endloop
  endfacet
  facet normal 0 0 -1
    outer loop
      vertex 5.621439437571738 29.46861752186066 -3
      vertex 3.2148810031289923 1.2728614340904825 -3
      vertex 3.0299988667670514 1.6657559731440081 -3
    endloop
  endfacet
  facet normal 0 0 -1
    outer loop
      vertex 5.621439437571738 29.46861752186066 -3
      vertex 3.0299988667670514 1.6657559731440081 -3
      vertex 2.797331838242607 2.032380545426667 -3
    endloop
  endfacet
  facet normal 0 0 -1
    outer loop
      vertex 5.621439437571745 -29.468617521860658 -3
      vertex 5.621439437571738 29.46861752186066 -3
      vertex 9.270509831248422 28.531695488854606 -3
    endloop
  endfacet
  facet normal 0 0 -1
    outer loop
      vertex 9.270509831248422 -28.531695488854606 -3
      vertex 9.270509831248422 28.531695488854606 -3
      vertex 12.773378746952181 27.144811573980583 -3
    endloop
  endfacet
  facet normal 0 0 -1
    outer loop
      vertex 12.773378746952172 -27.144811573980586 -3
      vertex 12.773378746952181 27.144811573980583 -3
      vertex 16.0748038493699 25.329837765060454 -3
    endloop
  endfacet
  facet normal 0 0 -1
    outer loop
      vertex 1.8837155858793984 29.940801852848146 -3
      vertex 5.621439437571738 29.46861752186066 -3
      vertex 1.4722137812192322 3.1286135391036596 -3
    endloop
  endfacet
  facet normal 0.1253332335643038 0.9921147013144779 0
    outer loop
      vertex 1.8837155858793984 29.940801852848146 -3
      vertex 1.8837155858793984 29.940801852848146 0
      vertex 5.621439437571738 29.46861752186066 -3
    endloop
  endfacet
  facet normal 0.24868988716485538 0.968583161128631 0
    outer loop
      vertex 5.621439437571738 29.46861752186066 -3
      vertex 5.621439437571738 29.46861752186066 0
      vertex 9.270509831248422 28.531695488854606 -3
    endloop
  endfacet
  facet normal 0.36812455268467803 0.9297764858882512 0
    outer loop
      vertex 9.270509831248422 28.531695488854606 -3
      vertex 9.270509831248422 28.531695488854606 0
      vertex 12.773378746952181 27.144811573980583 -3
    endloop
  endfacet
  facet normal 0.4817536741017145 0.8763066800438641 0
    outer loop
      vertex 12.773378746952181 27.144811573980583 -3
      vertex 12.773378746952181 27.144811573980583 0
      vertex 16.0748038493699 25.329837765060454 -3
    endloop
  endfacet
  facet normal 0 0 -1
    outer loop
      vertex 19.1227196924607 -23.115397283273673 -3
      vertex 19.12271969246069 23.115397283273673 -3
      vertex 21.869058822642348 20.536413177860663 -3
    endloop
  endfacet
  facet normal 0 0 -1
    outer loop
      vertex 16.074803849369886 -25.32983776506046 -3
      vertex 16.0748038493699 25.329837765060454 -3
      vertex 19.12271969246069 23.115397283273673 -3
    endloop
  endfacet
  facet normal 0 0 -1
    outer loop
      vertex 21.86905882264235 -20.536413177860656 -3
      vertex 21.869058822642348 20.536413177860663 -3
      vertex 24.270509831248425 17.633557568774194 -3
    endloop
  endfacet
  facet normal 0 0 -1
    outer loop
      vertex 24.270509831248425 -17.633557568774194 -3
      vertex 24.270509831248425 17.633557568774194 -3
      vertex 26.289200401315906 14.45261022305146 -3
    endloop
  endfacet
  facet normal 0 0 -1
    outer loop
      vertex 26.289200401315902 -14.452610223051462 -3
      vertex 26.289200401315906 14.45261022305146 -3
      vertex 27.89329457664754 11.043736580540338 -3
    endloop
  endfacet
  facet normal 0 0 -1
    outer loop
      vertex 29.763441039434337 -3.759997006929122 -3
      vertex 29.763441039434337 3.7599970069291277 -3
      vertex 30 0 -3
    endloop
  endfacet
  facet normal 0 0 -1
    outer loop
      vertex 29.057494833858936 -7.460696614945633 -3
      vertex 29.057494833858932 7.460696614945644 -3
      vertex 29.763441039434337 3.7599970069291277 -3
    endloop
  endfacet
  facet normal 0 0 -1
    outer loop
      vertex 27.893294576647538 -11.043736580540351 -3
      vertex 27.89329457664754 11.043736580540338 -3
      vertex 29.057494833858932 7.460696614945644 -3
    endloop
  endfacet
  facet normal 0.9980267284282716 0.06279051952931283 0
    outer loop
      vertex 30 0 -3
      vertex 29.763441039434337 3.7599970069291277 -3
      vertex 30 0 0
    endloop
  endfacet
  facet normal 0.9822872507286885 0.1873813145857255 0
    outer loop
      vertex 29.763441039434337 3.7599970069291277 -3
      vertex 29.057494833858932 7.460696614945644 -3
      vertex 29.763441039434337 3.7599970069291277 0
    endloop
  endfacet
  facet normal 0.9510565162951536 0.30901699437494734 0
    outer loop
      vertex 29.057494833858932 7.460696614945644 -3
      vertex 27.89329457664754 11.043736580540338 -3
      vertex 29.057494833858932 7.460696614945644 0
    endloop
  endfacet
  facet normal 0.9048270524660196 0.42577929156507266 0
    outer loop
      vertex 27.89329457664754 11.043736580540338 -3
      vertex 26.289200401315906 14.45261022305146 -3
      vertex 27.89329457664754 11.043736580540338 0
    endloop
  endfacet
  facet normal 0.6845471059286875 0.7289686274214127 0
    outer loop
      vertex 21.869058822642348 20.536413177860663 -3
      vertex 19.12271969246069 23.115397283273673 -3
      vertex 19.12271969246069 23.115397283273673 0
    endloop
  endfacet
  facet normal 0.5877852522924742 0.8090169943749467 0
    outer loop
      vertex 16.0748038493699 25.329837765060454 -3
      vertex 16.0748038493699 25.329837765060454 0
      vertex 19.12271969246069 23.115397283273673 -3
    endloop
  endfacet
  facet normal 0.7705132427757895 0.6374239897486894 0
    outer loop
      vertex 21.869058822642348 20.536413177860663 -3
      vertex 24.270509831248425 17.633557568774194 0
      vertex 24.270509831248425 17.633557568774194 -3
    endloop
  endfacet
  facet normal 0.8443279255020154 0.535826794978996 0
    outer loop
      vertex 26.289200401315906 14.45261022305146 -3
      vertex 24.270509831248425 17.633557568774194 -3
      vertex 26.289200401315906 14.45261022305146 0
    endloop
  endfacet
  facet normal 0 0 1
    outer loop
      vertex 5.621439437571745 -29.468617521860658 0
      vertex 5.621439437571738 29.46861752186066 0
      vertex 5.4 0 0
    endloop
  endfacet
  facet normal 0 0 1
    outer loop
      vertex 1.8837155858793984 29.940801852848146 0
      vertex -0.3390688054582858 5.389344333512667 0
      vertex 0.3390688054582917 5.389344333512667 0
    endloop
  endfacet
  facet normal 0 0 1
    outer loop
      vertex 1.8837155858793984 29.940801852848146 0
      vertex 0.3390688054582917 5.389344333512667 0
      vertex 1.0118590987629128 5.3043511539349195 0
    endloop
  endfacet
  facet normal 0 0 1
    outer loop
      vertex 1.8837155858793984 29.940801852848146 0
      vertex 1.0118590987629128 5.3043511539349195 0
      vertex 1.668691769624716 5.135705187993829 0
    endloop
  endfacet
  facet normal 0 0 1
    outer loop
      vertex 1.8837155858793984 29.940801852848146 0
      vertex 2.893464692886582 4.559370797710882 0
      vertex 3.4420895446429247 4.160771510989262 0
    endloop
  endfacet
  facet normal 0 0 1
    outer loop
      vertex 1.8837155858793984 29.940801852848146 0
      vertex 3.4420895446429247 4.160771510989262 0
      vertex 3.9364305880756225 3.696554372014919 0
    endloop
  endfacet
  facet normal 0 0 1
    outer loop
      vertex 1.8837155858793984 29.940801852848146 0
      vertex 1.668691769624716 5.135705187993829 0
      vertex 2.299208174451393 4.886066083316505 0
    endloop
  endfacet
  facet normal 0 0 1
    outer loop
      vertex 1.8837155858793984 29.940801852848146 0
      vertex 2.299208174451393 4.886066083316505 0
      vertex 2.893464692886582 4.559370797710882 0
    endloop
  endfacet
  facet normal 0 0 1
    outer loop
      vertex 5.621439437571738 29.46861752186066 0
      vertex 5.357419387098181 0.676799461247243 0
      vertex 5.4 0 0
    endloop
  endfacet
  facet normal 0 0 1
    outer loop
      vertex 5.621439437571738 29.46861752186066 0
      vertex 5.230349070094608 1.3429253906902159 0
      vertex 5.357419387098181 0.676799461247243 0
    endloop
  endfacet
  facet normal 0 0 1
    outer loop
      vertex 5.621439437571738 29.46861752186066 0
      vertex 5.020793023796558 1.9878725844972611 0
      vertex 5.230349070094608 1.3429253906902159 0
    endloop
  endfacet
  facet normal 0 0 1
    outer loop
      vertex 5.621439437571738 29.46861752186066 0
      vertex 3.9364305880756225 3.696554372014919 0
      vertex 4.368691769624717 3.174040362379355 0
    endloop
  endfacet
  facet normal 0 0 1
    outer loop
      vertex 5.621439437571738 29.46861752186066 0
      vertex 4.732056072236864 2.601469840149263 0
      vertex 5.020793023796558 1.9878725844972611 0
    endloop
  endfacet
  facet normal 0 0 1
    outer loop
      vertex 5.621439437571738 29.46861752186066 0
      vertex 4.368691769624717 3.174040362379355 0
      vertex 4.732056072236864 2.601469840149263 0
    endloop
  endfacet
  facet normal 0 0 1
    outer loop
      vertex 9.270509831248422 -28.531695488854606 0
      vertex 9.270509831248422 28.531695488854606 0
      vertex 5.621439437571738 29.46861752186066 0
    endloop
  endfacet
  facet normal 0 0 1
    outer loop
      vertex 12.773378746952172 -27.144811573980586 0
      vertex 12.773378746952181 27.144811573980583 0
      vertex 9.270509831248422 28.531695488854606 0
    endloop
  endfacet
  facet normal 0 0 1
    outer loop
      vertex 16.074803849369886 -25.32983776506046 0
      vertex 16.0748038493699 25.329837765060454 0
      vertex 12.773378746952181 27.144811573980583 0
    endloop
  endfacet
  facet normal 0 1 0
    outer loop
      vertex -1.8837155858793984 29.940801852848146 0
      vertex 1.8837155858793984 29.940801852848146 0
      vertex 1.8837155858793984 29.940801852848146 -3
    endloop
  endfacet
  facet normal 0.1253332335643038 0.9921147013144779 0
    outer loop
      vertex 5.621439437571738 29.46861752186066 -3
      vertex 1.8837155858793984 29.940801852848146 0
      vertex 5.621439437571738 29.46861752186066 0
    endloop
  endfacet
  facet normal 0.24868988716485538 0.968583161128631 0
    outer loop
      vertex 9.270509831248422 28.531695488854606 -3
      vertex 5.621439437571738 29.46861752186066 0
      vertex 9.270509831248422 28.531695488854606 0
    endloop
  endfacet
  facet normal 0.4817536741017145 0.8763066800438641 0
    outer loop
      vertex 12.773378746952181 27.144811573980583 0
      vertex 16.0748038493699 25.329837765060454 0
      vertex 16.0748038493699 25.329837765060454 -3
    endloop
  endfacet
  facet normal 0.36812455268467803 0.9297764858882512 0
    outer loop
      vertex 12.773378746952181 27.144811573980583 -3
      vertex 9.270509831248422 28.531695488854606 0
      vertex 12.773378746952181 27.144811573980583 0
    endloop
  endfacet
  facet normal 0 0 1
    outer loop
      vertex 1.8837155858793984 29.940801852848146 0
      vertex 3.9364305880756225 3.696554372014919 0
      vertex 5.621439437571738 29.46861752186066 0
    endloop
  endfacet
  facet normal 0.9980267284282716 0.06279051952931283 0
    outer loop
      vertex 29.763441039434337 3.7599970069291277 -3
      vertex 29.763441039434337 3.7599970069291277 0
      vertex 30 0 0
    endloop
  endfacet
  facet normal 0.9822872507286885 0.1873813145857255 0
    outer loop
      vertex 29.057494833858932 7.460696614945644 -3
      vertex 29.057494833858932 7.460696614945644 0
      vertex 29.763441039434337 3.7599970069291277 0
    endloop
  endfacet
  facet normal 0.9510565162951536 0.30901699437494734 0
    outer loop
      vertex 27.89329457664754 11.043736580540338 -3
      vertex 27.89329457664754 11.043736580540338 0
      vertex 29.057494833858932 7.460696614945644 0
    endloop
  endfacet
  facet normal 0.9048270524660196 0.42577929156507266 0
    outer loop
      vertex 26.289200401315906 14.45261022305146 -3
      vertex 26.289200401315906 14.45261022305146 0
      vertex 27.89329457664754 11.043736580540338 0
    endloop
  endfacet
  facet normal 0 0 1
    outer loop
      vertex 19.1227196924607 -23.115397283273673 0
      vertex 19.12271969246069 23.115397283273673 0
      vertex 16.0748038493699 25.329837765060454 0
    endloop
  endfacet
  facet normal 0 0 1
    outer loop
      vertex 21.86905882264235 -20.536413177860656 0
      vertex 21.869058822642348 20.536413177860663 0
      vertex 19.12271969246069 23.115397283273673 0
    endloop
  endfacet
  facet normal 0 0 1
    outer loop
      vertex 24.270509831248425 -17.633557568774194 0
      vertex 24.270509831248425 17.633557568774194 0
      vertex 21.869058822642348 20.536413177860663 0
    endloop
  endfacet
  facet normal 0 0 1
    outer loop
      vertex 26.289200401315902 -14.452610223051462 0
      vertex 26.289200401315906 14.45261022305146 0
      vertex 24.270509831248425 17.633557568774194 0
    endloop
  endfacet
  facet normal 0 0 1
    outer loop
      vertex 29.763441039434337 -3.759997006929122 0
      vertex 30 0 0
      vertex 29.763441039434337 3.7599970069291277 0
    endloop
  endfacet
  facet normal 0 0 1
    outer loop
      vertex 29.057494833858936 -7.460696614945633 0
      vertex 29.057494833858932 7.460696614945644 0
      vertex 27.89329457664754 11.043736580540338 0
    endloop
  endfacet
  facet normal 0 0 1
    outer loop
      vertex 29.763441039434337 -3.759997006929122 0
      vertex 29.763441039434337 3.7599970069291277 0
      vertex 29.057494833858932 7.460696614945644 0
    endloop
  endfacet
  facet normal 0 0 1
    outer loop
      vertex 27.893294576647538 -11.043736580540351 0
      vertex 27.89329457664754 11.043736580540338 0
      vertex 26.289200401315906 14.45261022305146 0
    endloop
  endfacet
  facet normal 0.6845471059286875 0.7289686274214127 0
    outer loop
      vertex 21.869058822642348 20.536413177860663 -3
      vertex 19.12271969246069 23.115397283273673 0
      vertex 21.869058822642348 20.536413177860663 0
    endloop
  endfacet
  facet normal 0.5877852522924742 0.8090169943749467 0
    outer loop
      vertex 19.12271969246069 23.115397283273673 -3
      vertex 16.0748038493699 25.329837765060454 0
      vertex 19.12271969246069 23.115397283273673 0
    endloop
  endfacet
  facet normal 0.8443279255020154 0.535826794978996 0
    outer loop
      vertex 26.289200401315906 14.45261022305146 0
      vertex 24.270509831248425 17.633557568774194 -3
      vertex 24.270509831248425 17.633557568774194 0
    endloop
  endfacet
  facet normal 0.7705132427757895 0.6374239897486894 0
    outer loop
      vertex 21.869058822642348 20.536413177860663 -3
      vertex 21.869058822642348 20.536413177860663 0
      vertex 24.270509831248425 17.633557568774194 0
    endloop
  endfacet
  facet normal 0.7599777699499793 0.35761839305380155 0.5427180429389398
    outer loop
      vertex -5.020793023796558 -1.9878725844972607 0
      vertex -3.029998866767051 -1.6657559731440084 -3
      vertex -3.2148810031289923 -1.2728614340904822 -3
    endloop
  endfacet
  facet normal 0.7988065878230699 0.2595479938643165 0.5427180429389398
    outer loop
      vertex -5.230349070094608 -1.3429253906902163 0
      vertex -3.2148810031289923 -1.2728614340904822 -3
      vertex -3.3490625455947667 -0.8598931098507866 -3
    endloop
  endfacet
  facet normal 0.825037748622265 0.15738436776513487 0.5427180429389399
    outer loop
      vertex -5.357419387098181 -0.676799461247242 0
      vertex -3.3490625455947667 -0.8598931098507866 -3
      vertex -3.4304273710835216 -0.43336375759349754 -3
    endloop
  endfacet
  facet normal 0.8382575712720258 0.05273869616943188 0.5427180429389399
    outer loop
      vertex -5.4 0 0
      vertex -3.4304273710835216 -0.43336375759349754 -3
      vertex -3.457692307692308 0 -3
    endloop
  endfacet
  facet normal 0.3091933158393733 0.7809331721144778 0.5427180429389398
    outer loop
      vertex -1.472213781219231 -3.12861353910366 -3
      vertex -1.668691769624716 -5.135705187993829 0
      vertex -1.0684856843964528 -3.2884608005743963 -3
    endloop
  endfacet
  facet normal 0.2088783545336764 0.8135274788695406 0.5427180429389398
    outer loop
      vertex -1.0684856843964528 -3.2884608005743963 -3
      vertex -1.668691769624716 -5.135705187993829 0
      vertex -0.6479069300483331 -3.396447070788812 -3
    endloop
  endfacet
  facet normal 0.1052692567991025 0.8332919713050713 0.5427180429389398
    outer loop
      vertex -0.2171102963725118 -3.4508693417577545 -3
      vertex -0.6479069300483331 -3.396447070788812 -3
      vertex -0.3390688054582943 -5.389344333512667 0
    endloop
  endfacet
  facet normal 0 0.8399149515686257 0.5427180429389398
    outer loop
      vertex 0.2171102963725118 -3.4508693417577545 -3
      vertex -0.2171102963725118 -3.4508693417577545 -3
      vertex -0.3390688054582943 -5.389344333512667 0
    endloop
  endfacet
  facet normal 0.7091636486560638 0.45004893655395517 0.5427180429389398
    outer loop
      vertex -2.797331838242607 -2.032380545426667 -3
      vertex -3.029998866767051 -1.6657559731440084 -3
      vertex -4.732056072236863 -2.6014698401492633 0
    endloop
  endfacet
  facet normal 0.6471655929890117 0.5353819394784511 0.5427180429389399
    outer loop
      vertex -2.520549215584035 -2.366953262422658 -3
      vertex -2.797331838242607 -2.032380545426667 -3
      vertex -4.368691769624717 -3.174040362379355 0
    endloop
  endfacet
  facet normal 0.5749613493225376 0.6122716493957024 0.5427180429389399
    outer loop
      vertex -2.2040160260925843 -2.664197712520903 -3
      vertex -2.520549215584035 -2.366953262422658 -3
      vertex -3.4420895446429243 -4.160771510989263 0
    endloop
  endfacet
  facet normal 0.49368962171198477 0.6795054696486295 0.5427180429389398
    outer loop
      vertex -1.8527241872543003 -2.9194261731781213 -3
      vertex -2.2040160260925843 -2.664197712520903 -3
      vertex -2.8934646928865826 -4.559370797710881 0
    endloop
  endfacet
  facet normal 0.40463211385114906 0.7360230827283053 0.5427180429389399
    outer loop
      vertex -1.472213781219231 -3.12861353910366 -3
      vertex -1.8527241872543003 -2.9194261731781213 -3
      vertex -2.2992081744513913 -4.886066083316506 0
    endloop
  endfacet
  facet normal 0.7599777699499791 0.3576183930538022 0.5427180429389399
    outer loop
      vertex -5.020793023796558 -1.9878725844972607 0
      vertex -4.732056072236863 -2.6014698401492633 0
      vertex -3.029998866767051 -1.6657559731440084 -3
    endloop
  endfacet
  facet normal 0.709163648656064 0.45004893655395495 0.5427180429389398
    outer loop
      vertex -2.797331838242607 -2.032380545426667 -3
      vertex -4.732056072236863 -2.6014698401492633 0
      vertex -4.368691769624717 -3.174040362379355 0
    endloop
  endfacet
  facet normal 0.8382575712720258 0.052738696169431463 0.54271804293894
    outer loop
      vertex -5.4 0 0
      vertex -5.357419387098181 -0.676799461247242 0
      vertex -3.4304273710835216 -0.43336375759349754 -3
    endloop
  endfacet
  facet normal 0.79880658782307 0.25954799386431593 0.5427180429389398
    outer loop
      vertex -5.230349070094608 -1.3429253906902163 0
      vertex -5.020793023796558 -1.9878725844972607 0
      vertex -3.2148810031289923 -1.2728614340904822 -3
    endloop
  endfacet
  facet normal 0.825037748622265 0.15738436776513542 0.5427180429389399
    outer loop
      vertex -5.357419387098181 -0.676799461247242 0
      vertex -5.230349070094608 -1.3429253906902163 0
      vertex -3.3490625455947667 -0.8598931098507866 -3
    endloop
  endfacet
  facet normal 0.49368962171198433 0.6795054696486297 0.5427180429389398
    outer loop
      vertex -2.8934646928865826 -4.559370797710881 0
      vertex -2.2040160260925843 -2.664197712520903 -3
      vertex -3.4420895446429243 -4.160771510989263 0
    endloop
  endfacet
  facet normal 0.40463211385115 0.7360230827283049 0.5427180429389397
    outer loop
      vertex -1.8527241872543003 -2.9194261731781213 -3
      vertex -2.8934646928865826 -4.559370797710881 0
      vertex -2.2992081744513913 -4.886066083316506 0
    endloop
  endfacet
  facet normal 0.3091933158393729 0.7809331721144781 0.5427180429389399
    outer loop
      vertex -2.2992081744513913 -4.886066083316506 0
      vertex -1.668691769624716 -5.135705187993829 0
      vertex -1.472213781219231 -3.12861353910366 -3
    endloop
  endfacet
  facet normal 0.20887835453367626 0.8135274788695407 0.5427180429389398
    outer loop
      vertex -1.668691769624716 -5.135705187993829 0
      vertex -1.0118590987629141 -5.304351153934919 0
      vertex -0.6479069300483331 -3.396447070788812 -3
    endloop
  endfacet
  facet normal 0.10526925679910304 0.8332919713050713 0.5427180429389398
    outer loop
      vertex -0.6479069300483331 -3.396447070788812 -3
      vertex -1.0118590987629141 -5.304351153934919 0
      vertex -0.3390688054582943 -5.389344333512667 0
    endloop
  endfacet
  facet normal 0.5749613493225377 0.6122716493957022 0.5427180429389398
    outer loop
      vertex -3.9364305880756234 -3.6965543720149183 0
      vertex -3.4420895446429243 -4.160771510989263 0
      vertex -2.520549215584035 -2.366953262422658 -3
    endloop
  endfacet
  facet normal 0.6471655929890116 0.5353819394784511 0.5427180429389398
    outer loop
      vertex -2.520549215584035 -2.366953262422658 -3
      vertex -4.368691769624717 -3.174040362379355 0
      vertex -3.9364305880756234 -3.6965543720149183 0
    endloop
  endfacet
  facet normal 0.8382575712720257 -0.052738696169431866 0.54271804293894
    outer loop
      vertex -5.357419387098181 0.676799461247242 0
      vertex -3.457692307692308 0 -3
      vertex -3.4304273710835216 0.43336375759349754 -3
    endloop
  endfacet
  facet normal 0.8250377486222652 -0.15738436776513492 0.5427180429389398
    outer loop
      vertex -5.230349070094608 1.3429253906902163 0
      vertex -3.4304273710835216 0.43336375759349754 -3
      vertex -3.3490625455947667 0.8598931098507866 -3
    endloop
  endfacet
  facet normal 0.7988065878230699 -0.2595479938643165 0.5427180429389399
    outer loop
      vertex -5.020793023796558 1.9878725844972607 0
      vertex -3.3490625455947667 0.8598931098507866 -3
      vertex -3.2148810031289923 1.2728614340904825 -3
    endloop
  endfacet
  facet normal 0.7599777699499793 -0.3576183930538019 0.5427180429389398
    outer loop
      vertex -4.732056072236863 2.6014698401492633 0
      vertex -3.2148810031289923 1.2728614340904825 -3
      vertex -3.029998866767051 1.6657559731440084 -3
    endloop
  endfacet
  facet normal 0.7091636486560635 -0.45004893655395556 0.5427180429389398
    outer loop
      vertex -3.029998866767051 1.6657559731440084 -3
      vertex -2.797331838242607 2.0323805454266664 -3
      vertex -4.732056072236863 2.6014698401492633 0
    endloop
  endfacet
  facet normal 0.6471655929890116 -0.5353819394784514 0.5427180429389398
    outer loop
      vertex -4.368691769624717 3.174040362379355 0
      vertex -2.797331838242607 2.0323805454266664 -3
      vertex -2.520549215584035 2.3669532624226575 -3
    endloop
  endfacet
  facet normal 0.5749613493225376 -0.6122716493957024 0.5427180429389399
    outer loop
      vertex -2.520549215584035 2.3669532624226575 -3
      vertex -2.2040160260925843 2.6641977125209024 -3
      vertex -3.4420895446429243 4.160771510989263 0
    endloop
  endfacet
  facet normal 0.49368962171198477 -0.6795054696486295 0.5427180429389399
    outer loop
      vertex -2.2040160260925843 2.6641977125209024 -3
      vertex -1.8527241872543003 2.919426173178121 -3
      vertex -2.8934646928865826 4.559370797710881 0
    endloop
  endfacet
  facet normal 0.40463211385114994 -0.7360230827283047 0.5427180429389398
    outer loop
      vertex -1.8527241872543003 2.919426173178121 -3
      vertex -1.4722137812192322 3.1286135391036596 -3
      vertex -2.299208174451393 4.886066083316505 0
    endloop
  endfacet
  facet normal 0.3091933158393734 -0.7809331721144779 0.5427180429389399
    outer loop
      vertex -1.4722137812192322 3.1286135391036596 -3
      vertex -1.0684856843964528 3.2884608005743963 -3
      vertex -1.668691769624716 5.135705187993829 0
    endloop
  endfacet
  facet normal 0.208878354533676 -0.8135274788695407 0.5427180429389399
    outer loop
      vertex -1.0684856843964528 3.2884608005743963 -3
      vertex -0.6479069300483323 3.396447070788812 -3
      vertex -1.0118590987629128 5.3043511539349195 0
    endloop
  endfacet
  facet normal 0.10526925679910258 -0.8332919713050714 0.5427180429389397
    outer loop
      vertex -0.3390688054582858 5.389344333512667 0
      vertex -0.6479069300483323 3.396447070788812 -3
      vertex -0.21711029637251017 3.4508693417577545 -3
    endloop
  endfacet
  facet normal 0.8382575712720258 -0.052738696169431463 0.5427180429389399
    outer loop
      vertex -5.357419387098181 0.676799461247242 0
      vertex -5.4 0 0
      vertex -3.457692307692308 0 -3
    endloop
  endfacet
  facet normal 0.825037748622265 -0.15738436776513542 0.5427180429389399
    outer loop
      vertex -5.230349070094608 1.3429253906902163 0
      vertex -5.357419387098181 0.676799461247242 0
      vertex -3.4304273710835216 0.43336375759349754 -3
    endloop
  endfacet
  facet normal 0.79880658782307 -0.25954799386431593 0.5427180429389398
    outer loop
      vertex -5.020793023796558 1.9878725844972607 0
      vertex -5.230349070094608 1.3429253906902163 0
      vertex -3.3490625455947667 0.8598931098507866 -3
    endloop
  endfacet
  facet normal 0.7599777699499791 -0.3576183930538022 0.5427180429389399
    outer loop
      vertex -4.732056072236863 2.6014698401492633 0
      vertex -5.020793023796558 1.9878725844972607 0
      vertex -3.2148810031289923 1.2728614340904825 -3
    endloop
  endfacet
  facet normal 0.7091636486560638 -0.45004893655395484 0.5427180429389398
    outer loop
      vertex -4.368691769624717 3.174040362379355 0
      vertex -4.732056072236863 2.6014698401492633 0
      vertex -2.797331838242607 2.0323805454266664 -3
    endloop
  endfacet
  facet normal 0.6471655929890116 -0.5353819394784511 0.5427180429389399
    outer loop
      vertex -3.9364305880756234 3.6965543720149183 0
      vertex -4.368691769624717 3.174040362379355 0
      vertex -2.520549215584035 2.3669532624226575 -3
    endloop
  endfacet
  facet normal 0.5749613493225377 -0.6122716493957022 0.5427180429389399
    outer loop
      vertex -2.520549215584035 2.3669532624226575 -3
      vertex -3.4420895446429243 4.160771510989263 0
      vertex -3.9364305880756234 3.6965543720149183 0
    endloop
  endfacet
  facet normal 0.49368962171198433 -0.6795054696486297 0.54271804293894
    outer loop
      vertex -2.2040160260925843 2.6641977125209024 -3
      vertex -2.8934646928865826 4.559370797710881 0
      vertex -3.4420895446429243 4.160771510989263 0
    endloop
  endfacet
  facet normal 0.40463211385115005 -0.7360230827283047 0.5427180429389398
    outer loop
      vertex -2.299208174451393 4.886066083316505 0
      vertex -2.8934646928865826 4.559370797710881 0
      vertex -1.8527241872543003 2.919426173178121 -3
    endloop
  endfacet
  facet normal 0.3091933158393731 -0.780933172114478 0.5427180429389399
    outer loop
      vertex -1.668691769624716 5.135705187993829 0
      vertex -2.299208174451393 4.886066083316505 0
      vertex -1.4722137812192322 3.1286135391036596 -3
    endloop
  endfacet
  facet normal 0.2088783545336769 -0.8135274788695406 0.5427180429389399
    outer loop
      vertex -1.0118590987629128 5.3043511539349195 0
      vertex -1.668691769624716 5.135705187993829 0
      vertex -1.0684856843964528 3.2884608005743963 -3
    endloop
  endfacet
  facet normal 0.10526925679910049 -0.8332919713050715 0.5427180429389399
    outer loop
      vertex -0.3390688054582858 5.389344333512667 0
      vertex -1.0118590987629128 5.3043511539349195 0
      vertex -0.6479069300483323 3.396447070788812 -3
    endloop
  endfacet
  facet normal 0 -0.8399149515686258 0.5427180429389398
    outer loop
      vertex -0.3390688054582858 5.389344333512667 0
      vertex -0.21711029637251017 3.4508693417577545 -3
      vertex 0.3390688054582917 5.389344333512667 0
    endloop
  endfacet
  facet normal -0.1052692567991025 0.8332919713050713 0.5427180429389398
    outer loop
      vertex 0.2171102963725118 -3.4508693417577545 -3
      vertex 0.3390688054582943 -5.389344333512667 0
      vertex 0.6479069300483331 -3.396447070788812 -3
    endloop
  endfacet
  facet normal -0.2088783545336764 0.8135274788695406 0.5427180429389398
    outer loop
      vertex 1.0684856843964528 -3.2884608005743963 -3
      vertex 0.6479069300483331 -3.396447070788812 -3
      vertex 1.0118590987629141 -5.304351153934919 0
    endloop
  endfacet
  facet normal -0.3091933158393733 0.7809331721144778 0.5427180429389398
    outer loop
      vertex 1.472213781219231 -3.12861353910366 -3
      vertex 1.0684856843964528 -3.2884608005743963 -3
      vertex 1.668691769624716 -5.135705187993829 0
    endloop
  endfacet
  facet normal -0.40463211385114856 0.7360230827283056 0.5427180429389399
    outer loop
      vertex 1.8527241872542985 -2.9194261731781226 -3
      vertex 1.472213781219231 -3.12861353910366 -3
      vertex 2.2992081744513913 -4.886066083316506 0
    endloop
  endfacet
  facet normal -0.4936896217119853 0.6795054696486291 0.5427180429389397
    outer loop
      vertex 2.2040160260925856 -2.6641977125209015 -3
      vertex 1.8527241872542985 -2.9194261731781226 -3
      vertex 2.89346469288658 -4.559370797710883 0
    endloop
  endfacet
  facet normal -0.5749613493225376 0.6122716493957024 0.5427180429389399
    outer loop
      vertex 2.5205492155840354 -2.3669532624226575 -3
      vertex 2.2040160260925856 -2.6641977125209015 -3
      vertex 3.442089544642926 -4.160771510989261 0
    endloop
  endfacet
  facet normal -0.6471655929890117 0.535381939478451 0.5427180429389399
    outer loop
      vertex 2.5205492155840354 -2.3669532624226575 -3
      vertex 4.368691769624717 -3.174040362379355 0
      vertex 2.797331838242607 -2.032380545426667 -3
    endloop
  endfacet
  facet normal -0.709163648656064 0.45004893655395495 0.5427180429389399
    outer loop
      vertex 3.029998866767051 -1.6657559731440081 -3
      vertex 2.797331838242607 -2.032380545426667 -3
      vertex 4.732056072236863 -2.6014698401492633 0
    endloop
  endfacet
  facet normal -0.759977769949979 0.35761839305380244 0.5427180429389398
    outer loop
      vertex 3.029998866767051 -1.6657559731440081 -3
      vertex 4.732056072236863 -2.6014698401492633 0
      vertex 3.214881003128992 -1.272861434090484 -3
    endloop
  endfacet
  facet normal -0.7988065878230699 0.2595479938643162 0.5427180429389399
    outer loop
      vertex 3.214881003128992 -1.272861434090484 -3
      vertex 5.020793023796557 -1.9878725844972633 0
      vertex 3.349062545594767 -0.8598931098507852 -3
    endloop
  endfacet
  facet normal -0.8250377486222652 0.15738436776513431 0.5427180429389399
    outer loop
      vertex 3.349062545594767 -0.8598931098507852 -3
      vertex 5.230349070094609 -1.342925390690214 0
      vertex 3.4304273710835216 -0.43336375759349754 -3
    endloop
  endfacet
  facet normal -0.8382575712720257 0.05273869616943216 0.54271804293894
    outer loop
      vertex 3.4304273710835216 -0.43336375759349754 -3
      vertex 5.357419387098181 -0.676799461247242 0
      vertex 3.457692307692308 0 -3
    endloop
  endfacet
  facet normal 0 0.8399149515686258 0.5427180429389399
    outer loop
      vertex -0.3390688054582943 -5.389344333512667 0
      vertex 0.3390688054582943 -5.389344333512667 0
      vertex 0.2171102963725118 -3.4508693417577545 -3
    endloop
  endfacet
  facet normal -0.10526925679910268 0.8332919713050713 0.5427180429389398
    outer loop
      vertex 0.3390688054582943 -5.389344333512667 0
      vertex 1.0118590987629141 -5.304351153934919 0
      vertex 0.6479069300483331 -3.396447070788812 -3
    endloop
  endfacet
  facet normal -0.20887835453367662 0.8135274788695407 0.5427180429389398
    outer loop
      vertex 1.0684856843964528 -3.2884608005743963 -3
      vertex 1.0118590987629141 -5.304351153934919 0
      vertex 1.668691769624716 -5.135705187993829 0
    endloop
  endfacet
  facet normal -0.3091933158393729 0.7809331721144781 0.5427180429389399
    outer loop
      vertex 1.668691769624716 -5.135705187993829 0
      vertex 2.2992081744513913 -4.886066083316506 0
      vertex 1.472213781219231 -3.12861353910366 -3
    endloop
  endfacet
  facet normal -0.40463211385114967 0.736023082728305 0.5427180429389397
    outer loop
      vertex 2.2992081744513913 -4.886066083316506 0
      vertex 2.89346469288658 -4.559370797710883 0
      vertex 1.8527241872542985 -2.9194261731781226 -3
    endloop
  endfacet
  facet normal -0.49368962171198466 0.6795054696486296 0.5427180429389398
    outer loop
      vertex 2.89346469288658 -4.559370797710883 0
      vertex 3.442089544642926 -4.160771510989261 0
      vertex 2.2040160260925856 -2.6641977125209015 -3
    endloop
  endfacet
  facet normal -0.5749613493225377 0.6122716493957024 0.5427180429389399
    outer loop
      vertex 3.442089544642926 -4.160771510989261 0
      vertex 3.9364305880756234 -3.6965543720149183 0
      vertex 2.5205492155840354 -2.3669532624226575 -3
    endloop
  endfacet
  facet normal -0.6471655929890116 0.5353819394784511 0.5427180429389399
    outer loop
      vertex 3.9364305880756234 -3.6965543720149183 0
      vertex 4.368691769624717 -3.174040362379355 0
      vertex 2.5205492155840354 -2.3669532624226575 -3
    endloop
  endfacet
  facet normal -0.709163648656064 0.45004893655395495 0.5427180429389398
    outer loop
      vertex 2.797331838242607 -2.032380545426667 -3
      vertex 4.368691769624717 -3.174040362379355 0
      vertex 4.732056072236863 -2.6014698401492633 0
    endloop
  endfacet
  facet normal -0.7599777699499789 0.3576183930538026 0.5427180429389399
    outer loop
      vertex 4.732056072236863 -2.6014698401492633 0
      vertex 5.020793023796557 -1.9878725844972633 0
      vertex 3.214881003128992 -1.272861434090484 -3
    endloop
  endfacet
  facet normal -0.7988065878230699 0.25954799386431615 0.5427180429389399
    outer loop
      vertex 5.020793023796557 -1.9878725844972633 0
      vertex 5.230349070094609 -1.342925390690214 0
      vertex 3.349062545594767 -0.8598931098507852 -3
    endloop
  endfacet
  facet normal -0.825037748622265 0.15738436776513484 0.5427180429389399
    outer loop
      vertex 5.230349070094609 -1.342925390690214 0
      vertex 5.357419387098181 -0.676799461247242 0
      vertex 3.4304273710835216 -0.43336375759349754 -3
    endloop
  endfacet
  facet normal -0.8382575712720258 0.052738696169431463 0.5427180429389399
    outer loop
      vertex 5.357419387098181 -0.676799461247242 0
      vertex 5.4 0 0
      vertex 3.457692307692308 0 -3
    endloop
  endfacet
  facet normal -0.4046321138511495 -0.7360230827283051 0.5427180429389399
    outer loop
      vertex 1.4722137812192322 3.1286135391036596 -3
      vertex 1.8527241872543 2.9194261731781213 -3
      vertex 2.299208174451393 4.886066083316505 0
    endloop
  endfacet
  facet normal -0.4936896217119858 -0.6795054696486287 0.5427180429389399
    outer loop
      vertex 1.8527241872543 2.9194261731781213 -3
      vertex 2.2040160260925847 2.6641977125209015 -3
      vertex 2.893464692886582 4.559370797710882 0
    endloop
  endfacet
  facet normal -0.5749613493225366 -0.6122716493957032 0.54271804293894
    outer loop
      vertex 2.2040160260925847 2.6641977125209015 -3
      vertex 2.5205492155840346 2.3669532624226584 -3
      vertex 3.4420895446429247 4.160771510989262 0
    endloop
  endfacet
  facet normal -0.6471655929890116 -0.5353819394784513 0.5427180429389399
    outer loop
      vertex 2.5205492155840346 2.3669532624226584 -3
      vertex 2.797331838242607 2.032380545426667 -3
      vertex 4.368691769624717 3.174040362379355 0
    endloop
  endfacet
  facet normal -0.7091636486560635 -0.45004893655395556 0.5427180429389399
    outer loop
      vertex 2.797331838242607 2.032380545426667 -3
      vertex 3.0299988667670514 1.6657559731440081 -3
      vertex 4.732056072236864 2.601469840149263 0
    endloop
  endfacet
  facet normal 0 -0.8399149515686258 0.5427180429389399
    outer loop
      vertex -0.21711029637251017 3.4508693417577545 -3
      vertex 0.217110296372504 3.4508693417577545 -3
      vertex 0.3390688054582917 5.389344333512667 0
    endloop
  endfacet
  facet normal -0.10526925679910079 -0.8332919713050714 0.5427180429389401
    outer loop
      vertex 0.217110296372504 3.4508693417577545 -3
      vertex 0.6479069300483323 3.396447070788812 -3
      vertex 0.3390688054582917 5.389344333512667 0
    endloop
  endfacet
  facet normal -0.20887835453367604 -0.8135274788695408 0.5427180429389398
    outer loop
      vertex 1.0684856843964528 3.2884608005743963 -3
      vertex 1.668691769624716 5.135705187993829 0
      vertex 0.6479069300483323 3.396447070788812 -3
    endloop
  endfacet
  facet normal -0.3091933158393734 -0.7809331721144779 0.5427180429389399
    outer loop
      vertex 1.4722137812192322 3.1286135391036596 -3
      vertex 1.668691769624716 5.135705187993829 0
      vertex 1.0684856843964528 3.2884608005743963 -3
    endloop
  endfacet
  facet normal -0.8382575712720258 -0.05273869616943208 0.5427180429389399
    outer loop
      vertex 3.457692307692308 0 -3
      vertex 5.4 0 0
      vertex 3.4304273710835216 0.43336375759349816 -3
    endloop
  endfacet
  facet normal -0.825037748622265 -0.1573843677651349 0.54271804293894
    outer loop
      vertex 3.3490625455947667 0.8598931098507864 -3
      vertex 3.4304273710835216 0.43336375759349816 -3
      vertex 5.357419387098181 0.676799461247243 0
    endloop
  endfacet
  facet normal -0.7988065878230699 -0.25954799386431626 0.5427180429389398
    outer loop
      vertex 3.2148810031289923 1.2728614340904825 -3
      vertex 3.3490625455947667 0.8598931098507864 -3
      vertex 5.230349070094608 1.3429253906902159 0
    endloop
  endfacet
  facet normal -0.7599777699499793 -0.3576183930538012 0.5427180429389399
    outer loop
      vertex 3.0299988667670514 1.6657559731440081 -3
      vertex 3.2148810031289923 1.2728614340904825 -3
      vertex 5.020793023796558 1.9878725844972611 0
    endloop
  endfacet
  facet normal -0.6471655929890116 -0.5353819394784513 0.5427180429389398
    outer loop
      vertex 4.368691769624717 3.174040362379355 0
      vertex 3.9364305880756225 3.696554372014919 0
      vertex 2.5205492155840346 2.3669532624226584 -3
    endloop
  endfacet
  facet normal -0.5749613493225374 -0.6122716493957027 0.5427180429389399
    outer loop
      vertex 3.9364305880756225 3.696554372014919 0
      vertex 3.4420895446429247 4.160771510989262 0
      vertex 2.5205492155840346 2.3669532624226584 -3
    endloop
  endfacet
  facet normal -0.10526925679910139 -0.8332919713050714 0.5427180429389399
    outer loop
      vertex 0.6479069300483323 3.396447070788812 -3
      vertex 1.0118590987629128 5.3043511539349195 0
      vertex 0.3390688054582917 5.389344333512667 0
    endloop
  endfacet
  facet normal -0.20887835453367687 -0.8135274788695404 0.5427180429389399
    outer loop
      vertex 1.668691769624716 5.135705187993829 0
      vertex 1.0118590987629128 5.3043511539349195 0
      vertex 0.6479069300483323 3.396447070788812 -3
    endloop
  endfacet
  facet normal -0.3091933158393731 -0.780933172114478 0.5427180429389399
    outer loop
      vertex 2.299208174451393 4.886066083316505 0
      vertex 1.668691769624716 5.135705187993829 0
      vertex 1.4722137812192322 3.1286135391036596 -3
    endloop
  endfacet
  facet normal -0.40463211385114944 -0.7360230827283051 0.5427180429389399
    outer loop
      vertex 2.893464692886582 4.559370797710882 0
      vertex 2.299208174451393 4.886066083316505 0
      vertex 1.8527241872543 2.9194261731781213 -3
    endloop
  endfacet
  facet normal -0.4936896217119852 -0.679505469648629 0.54271804293894
    outer loop
      vertex 3.4420895446429247 4.160771510989262 0
      vertex 2.893464692886582 4.559370797710882 0
      vertex 2.2040160260925847 2.6641977125209015 -3
    endloop
  endfacet
  facet normal -0.825037748622265 -0.15738436776513576 0.5427180429389399
    outer loop
      vertex 3.3490625455947667 0.8598931098507864 -3
      vertex 5.357419387098181 0.676799461247243 0
      vertex 5.230349070094608 1.3429253906902159 0
    endloop
  endfacet
  facet normal -0.79880658782307 -0.2595479938643156 0.5427180429389399
    outer loop
      vertex 3.2148810031289923 1.2728614340904825 -3
      vertex 5.230349070094608 1.3429253906902159 0
      vertex 5.020793023796558 1.9878725844972611 0
    endloop
  endfacet
  facet normal -0.8382575712720257 -0.05273869616943137 0.5427180429389399
    outer loop
      vertex 3.4304273710835216 0.43336375759349816 -3
      vertex 5.4 0 0
      vertex 5.357419387098181 0.676799461247243 0
    endloop
  endfacet
  facet normal -0.7091636486560634 -0.4500489365539557 0.5427180429389399
    outer loop
      vertex 2.797331838242607 2.032380545426667 -3
      vertex 4.732056072236864 2.601469840149263 0
      vertex 4.368691769624717 3.174040362379355 0
    endloop
  endfacet
  facet normal -0.7599777699499792 -0.3576183930538017 0.5427180429389398
    outer loop
      vertex 5.020793023796558 1.9878725844972611 0
      vertex 4.732056072236864 2.601469840149263 0
      vertex 3.0299988667670514 1.6657559731440081 -3
    endloop
  endfacet
endsolid OpenSCAD_Model
