solid OpenSCAD_Model
  facet normal 0 1 -0
    outer loop
      vertex 1.73099 -2.99817 -2.5
      vertex -1.73099 -2.99817 0
      vertex 1.73099 -2.99817 0
    endloop
  endfacet
  facet normal 0 1 0
    outer loop
      vertex -1.73099 -2.99817 0
      vertex 1.73099 -2.99817 -2.5
      vertex -1.73099 -2.99817 -2.5
    endloop
  endfacet
  facet normal 0 0 1
    outer loop
      vertex 3.46199 0 -2.5
      vertex 1.78581 0.225599 -2.5
      vertex 1.8 0 -2.5
    endloop
  endfacet
  facet normal 0 0 1
    outer loop
      vertex 3.46199 0 -2.5
      vertex 1.74345 0.447641 -2.5
      vertex 1.78581 0.225599 -2.5
    endloop
  endfacet
  facet normal -0 0 1
    outer loop
      vertex 1.57735 0.867156 -2.5
      vertex 3.46199 0 -2.5
      vertex 1.73099 2.99817 -2.5
    endloop
  endfacet
  facet normal 0 0 1
    outer loop
      vertex 3.46199 0 -2.5
      vertex 1.6736 0.662623 -2.5
      vertex 1.74345 0.447641 -2.5
    endloop
  endfacet
  facet normal 0 0 1
    outer loop
      vertex 3.46199 0 -2.5
      vertex 1.57735 0.867156 -2.5
      vertex 1.6736 0.662623 -2.5
    endloop
  endfacet
  facet normal 0 0 1
    outer loop
      vertex 1.73099 2.99817 -2.5
      vertex 1.45623 1.05801 -2.5
      vertex 1.57735 0.867156 -2.5
    endloop
  endfacet
  facet normal 0 0 1
    outer loop
      vertex 1.73099 2.99817 -2.5
      vertex 1.31214 1.23218 -2.5
      vertex 1.45623 1.05801 -2.5
    endloop
  endfacet
  facet normal 0 0 1
    outer loop
      vertex 1.73099 2.99817 -2.5
      vertex 1.14736 1.38692 -2.5
      vertex 1.31214 1.23218 -2.5
    endloop
  endfacet
  facet normal 0 0 1
    outer loop
      vertex 1.73099 2.99817 -2.5
      vertex 0.964488 1.51979 -2.5
      vertex 1.14736 1.38692 -2.5
    endloop
  endfacet
  facet normal 0 0 1
    outer loop
      vertex 1.73099 2.99817 -2.5
      vertex 0.766402 1.62869 -2.5
      vertex 0.964488 1.51979 -2.5
    endloop
  endfacet
  facet normal 0 0 1
    outer loop
      vertex 1.73099 2.99817 -2.5
      vertex 0.556231 1.7119 -2.5
      vertex 0.766402 1.62869 -2.5
    endloop
  endfacet
  facet normal 0 0 1
    outer loop
      vertex 1.73099 2.99817 -2.5
      vertex 0.337286 1.76812 -2.5
      vertex 0.556231 1.7119 -2.5
    endloop
  endfacet
  facet normal 0 0 1
    outer loop
      vertex 1.73099 2.99817 -2.5
      vertex 0.113023 1.79645 -2.5
      vertex 0.337286 1.76812 -2.5
    endloop
  endfacet
  facet normal 0 0 1
    outer loop
      vertex 1.73099 2.99817 -2.5
      vertex -0.113023 1.79645 -2.5
      vertex 0.113023 1.79645 -2.5
    endloop
  endfacet
  facet normal -0 0 1
    outer loop
      vertex -1.73099 2.99817 -2.5
      vertex -0.113023 1.79645 -2.5
      vertex 1.73099 2.99817 -2.5
    endloop
  endfacet
  facet normal 0 0 1
    outer loop
      vertex -0.113023 1.79645 -2.5
      vertex -1.73099 2.99817 -2.5
      vertex -0.337286 1.76812 -2.5
    endloop
  endfacet
  facet normal 0 0 1
    outer loop
      vertex -0.337286 1.76812 -2.5
      vertex -1.73099 2.99817 -2.5
      vertex -0.556231 1.7119 -2.5
    endloop
  endfacet
  facet normal 0 0 1
    outer loop
      vertex -0.556231 1.7119 -2.5
      vertex -1.73099 2.99817 -2.5
      vertex -0.766402 1.62869 -2.5
    endloop
  endfacet
  facet normal 0 0 1
    outer loop
      vertex -1.73099 2.99817 -2.5
      vertex -0.964488 1.51979 -2.5
      vertex -0.766402 1.62869 -2.5
    endloop
  endfacet
  facet normal 0 0 1
    outer loop
      vertex -1.73099 2.99817 -2.5
      vertex -1.14736 1.38692 -2.5
      vertex -0.964488 1.51979 -2.5
    endloop
  endfacet
  facet normal 0 0 1
    outer loop
      vertex -1.73099 2.99817 -2.5
      vertex -1.31214 1.23218 -2.5
      vertex -1.14736 1.38692 -2.5
    endloop
  endfacet
  facet normal 0 0 1
    outer loop
      vertex -1.73099 2.99817 -2.5
      vertex -1.45623 1.05801 -2.5
      vertex -1.31214 1.23218 -2.5
    endloop
  endfacet
  facet normal 0 0 1
    outer loop
      vertex -1.73099 2.99817 -2.5
      vertex -1.57735 0.867156 -2.5
      vertex -1.45623 1.05801 -2.5
    endloop
  endfacet
  facet normal 0 0 1
    outer loop
      vertex -3.46199 0 -2.5
      vertex -1.57735 0.867156 -2.5
      vertex -1.73099 2.99817 -2.5
    endloop
  endfacet
  facet normal 0 0 1
    outer loop
      vertex -1.57735 0.867156 -2.5
      vertex -3.46199 0 -2.5
      vertex -1.6736 0.662623 -2.5
    endloop
  endfacet
  facet normal 0 0 1
    outer loop
      vertex -1.6736 0.662623 -2.5
      vertex -3.46199 0 -2.5
      vertex -1.74345 0.447641 -2.5
    endloop
  endfacet
  facet normal 0 0 1
    outer loop
      vertex -1.74345 0.447641 -2.5
      vertex -3.46199 0 -2.5
      vertex -1.78581 0.225599 -2.5
    endloop
  endfacet
  facet normal 0 0 1
    outer loop
      vertex -1.78581 0.225599 -2.5
      vertex -3.46199 0 -2.5
      vertex -1.8 0 -2.5
    endloop
  endfacet
  facet normal 0 0 1
    outer loop
      vertex 1.78581 -0.225599 -2.5
      vertex 3.46199 0 -2.5
      vertex 1.8 0 -2.5
    endloop
  endfacet
  facet normal 0 0 1
    outer loop
      vertex 1.74345 -0.447641 -2.5
      vertex 3.46199 0 -2.5
      vertex 1.78581 -0.225599 -2.5
    endloop
  endfacet
  facet normal 0 0 1
    outer loop
      vertex 1.6736 -0.662623 -2.5
      vertex 3.46199 0 -2.5
      vertex 1.74345 -0.447641 -2.5
    endloop
  endfacet
  facet normal 0 0 1
    outer loop
      vertex 1.57735 -0.867156 -2.5
      vertex 3.46199 0 -2.5
      vertex 1.6736 -0.662623 -2.5
    endloop
  endfacet
  facet normal 0 0 1
    outer loop
      vertex 3.46199 0 -2.5
      vertex 1.57735 -0.867156 -2.5
      vertex 1.73099 -2.99817 -2.5
    endloop
  endfacet
  facet normal -0 0 1
    outer loop
      vertex 1.45623 -1.05801 -2.5
      vertex 1.73099 -2.99817 -2.5
      vertex 1.57735 -0.867156 -2.5
    endloop
  endfacet
  facet normal -0 0 1
    outer loop
      vertex 1.31214 -1.23218 -2.5
      vertex 1.73099 -2.99817 -2.5
      vertex 1.45623 -1.05801 -2.5
    endloop
  endfacet
  facet normal -0 0 1
    outer loop
      vertex 1.14736 -1.38692 -2.5
      vertex 1.73099 -2.99817 -2.5
      vertex 1.31214 -1.23218 -2.5
    endloop
  endfacet
  facet normal -0 0 1
    outer loop
      vertex 0.964488 -1.51979 -2.5
      vertex 1.73099 -2.99817 -2.5
      vertex 1.14736 -1.38692 -2.5
    endloop
  endfacet
  facet normal -0 0 1
    outer loop
      vertex 0.766402 -1.62869 -2.5
      vertex 1.73099 -2.99817 -2.5
      vertex 0.964488 -1.51979 -2.5
    endloop
  endfacet
  facet normal -0 0 1
    outer loop
      vertex 0.556231 -1.7119 -2.5
      vertex 1.73099 -2.99817 -2.5
      vertex 0.766402 -1.62869 -2.5
    endloop
  endfacet
  facet normal -0 0 1
    outer loop
      vertex 0.337286 -1.76812 -2.5
      vertex 1.73099 -2.99817 -2.5
      vertex 0.556231 -1.7119 -2.5
    endloop
  endfacet
  facet normal -0 0 1
    outer loop
      vertex 0.113023 -1.79645 -2.5
      vertex 1.73099 -2.99817 -2.5
      vertex 0.337286 -1.76812 -2.5
    endloop
  endfacet
  facet normal -0 0 1
    outer loop
      vertex -0.113023 -1.79645 -2.5
      vertex 1.73099 -2.99817 -2.5
      vertex 0.113023 -1.79645 -2.5
    endloop
  endfacet
  facet normal 0 0 1
    outer loop
      vertex -1.73099 -2.99817 -2.5
      vertex -0.113023 -1.79645 -2.5
      vertex -0.337286 -1.76812 -2.5
    endloop
  endfacet
  facet normal 0 0 1
    outer loop
      vertex -1.73099 -2.99817 -2.5
      vertex -0.337286 -1.76812 -2.5
      vertex -0.556231 -1.7119 -2.5
    endloop
  endfacet
  facet normal 0 0 1
    outer loop
      vertex -1.73099 -2.99817 -2.5
      vertex -0.556231 -1.7119 -2.5
      vertex -0.766402 -1.62869 -2.5
    endloop
  endfacet
  facet normal 0 0 1
    outer loop
      vertex -0.113023 -1.79645 -2.5
      vertex -1.73099 -2.99817 -2.5
      vertex 1.73099 -2.99817 -2.5
    endloop
  endfacet
  facet normal 0 0 1
    outer loop
      vertex -0.964488 -1.51979 -2.5
      vertex -1.73099 -2.99817 -2.5
      vertex -0.766402 -1.62869 -2.5
    endloop
  endfacet
  facet normal 0 0 1
    outer loop
      vertex -1.14736 -1.38692 -2.5
      vertex -1.73099 -2.99817 -2.5
      vertex -0.964488 -1.51979 -2.5
    endloop
  endfacet
  facet normal 0 0 1
    outer loop
      vertex -1.31214 -1.23218 -2.5
      vertex -1.73099 -2.99817 -2.5
      vertex -1.14736 -1.38692 -2.5
    endloop
  endfacet
  facet normal 0 0 1
    outer loop
      vertex -1.45623 -1.05801 -2.5
      vertex -1.73099 -2.99817 -2.5
      vertex -1.31214 -1.23218 -2.5
    endloop
  endfacet
  facet normal 0 0 1
    outer loop
      vertex -1.57735 -0.867156 -2.5
      vertex -1.73099 -2.99817 -2.5
      vertex -1.45623 -1.05801 -2.5
    endloop
  endfacet
  facet normal 0 0 1
    outer loop
      vertex -3.46199 0 -2.5
      vertex -1.57735 -0.867156 -2.5
      vertex -1.6736 -0.662623 -2.5
    endloop
  endfacet
  facet normal 0 0 1
    outer loop
      vertex -3.46199 0 -2.5
      vertex -1.6736 -0.662623 -2.5
      vertex -1.74345 -0.447641 -2.5
    endloop
  endfacet
  facet normal 0 0 1
    outer loop
      vertex -3.46199 0 -2.5
      vertex -1.74345 -0.447641 -2.5
      vertex -1.78581 -0.225599 -2.5
    endloop
  endfacet
  facet normal -0 0 1
    outer loop
      vertex -3.46199 0 -2.5
      vertex -1.78581 -0.225599 -2.5
      vertex -1.8 0 -2.5
    endloop
  endfacet
  facet normal 0 0 1
    outer loop
      vertex -1.57735 -0.867156 -2.5
      vertex -3.46199 0 -2.5
      vertex -1.73099 -2.99817 -2.5
    endloop
  endfacet
  facet normal -0.866025 0.500001 0
    outer loop
      vertex 1.73099 -2.99817 -2.5
      vertex 3.46199 0 0
      vertex 3.46199 0 -2.5
    endloop
  endfacet
  facet normal -0.866025 0.500001 0
    outer loop
      vertex 3.46199 0 0
      vertex 1.73099 -2.99817 -2.5
      vertex 1.73099 -2.99817 0
    endloop
  endfacet
  facet normal -0.866025 -0.500001 0
    outer loop
      vertex 3.46199 0 -2.5
      vertex 1.73099 2.99817 0
      vertex 1.73099 2.99817 -2.5
    endloop
  endfacet
  facet normal -0.866025 -0.500001 0
    outer loop
      vertex 1.73099 2.99817 0
      vertex 3.46199 0 -2.5
      vertex 3.46199 0 0
    endloop
  endfacet
  facet normal 0.866025 0.500001 0
    outer loop
      vertex -1.73099 -2.99817 0
      vertex -3.46199 0 -2.5
      vertex -3.46199 0 0
    endloop
  endfacet
  facet normal 0.866025 0.500001 0
    outer loop
      vertex -3.46199 0 -2.5
      vertex -1.73099 -2.99817 0
      vertex -1.73099 -2.99817 -2.5
    endloop
  endfacet
  facet normal 0.866025 -0.500001 0
    outer loop
      vertex -3.46199 0 0
      vertex -1.73099 2.99817 -2.5
      vertex -1.73099 2.99817 0
    endloop
  endfacet
  facet normal 0.866025 -0.500001 0
    outer loop
      vertex -1.73099 2.99817 -2.5
      vertex -3.46199 0 0
      vertex -3.46199 0 -2.5
    endloop
  endfacet
  facet normal 0 0 1
    outer loop
      vertex 3.46199 0 0
      vertex 12.5 0 0
      vertex 12.4014 1.56666 0
    endloop
  endfacet
  facet normal 0 0 1
    outer loop
      vertex 3.46199 0 0
      vertex 12.4014 1.56666 0
      vertex 12.1073 3.10862 0
    endloop
  endfacet
  facet normal 0 0 1
    outer loop
      vertex 12.5 0 0
      vertex 3.46199 0 0
      vertex 12.4014 -1.56666 0
    endloop
  endfacet
  facet normal 0 0 1
    outer loop
      vertex 3.46199 0 0
      vertex 12.1073 3.10862 0
      vertex 11.6222 4.60156 0
    endloop
  endfacet
  facet normal 0 0 1
    outer loop
      vertex 12.4014 -1.56666 0
      vertex 3.46199 0 0
      vertex 12.1073 -3.10862 0
    endloop
  endfacet
  facet normal 0 0 1
    outer loop
      vertex 3.46199 0 0
      vertex 11.6222 4.60156 0
      vertex 10.9538 6.02192 0
    endloop
  endfacet
  facet normal 0 0 1
    outer loop
      vertex 12.1073 -3.10862 0
      vertex 3.46199 0 0
      vertex 11.6222 -4.60156 0
    endloop
  endfacet
  facet normal 0 0 1
    outer loop
      vertex 1.73099 2.99817 0
      vertex 10.9538 6.02192 0
      vertex 10.1127 7.34731 0
    endloop
  endfacet
  facet normal 0 0 1
    outer loop
      vertex 11.6222 -4.60156 0
      vertex 3.46199 0 0
      vertex 10.9538 -6.02192 0
    endloop
  endfacet
  facet normal 0 0 1
    outer loop
      vertex 1.73099 2.99817 0
      vertex 10.1127 7.34731 0
      vertex 9.11211 8.55684 0
    endloop
  endfacet
  facet normal -0 0 1
    outer loop
      vertex 1.73099 -2.99817 0
      vertex 10.9538 -6.02192 0
      vertex 3.46199 0 0
    endloop
  endfacet
  facet normal 0 0 1
    outer loop
      vertex 1.73099 2.99817 0
      vertex 9.11211 8.55684 0
      vertex 7.9678 9.63142 0
    endloop
  endfacet
  facet normal 0 0 1
    outer loop
      vertex 10.9538 -6.02192 0
      vertex 1.73099 -2.99817 0
      vertex 10.1127 -7.34731 0
    endloop
  endfacet
  facet normal 0 0 1
    outer loop
      vertex 1.73099 2.99817 0
      vertex 7.9678 9.63142 0
      vertex 6.69783 10.5541 0
    endloop
  endfacet
  facet normal 0 0 1
    outer loop
      vertex 10.1127 -7.34731 0
      vertex 1.73099 -2.99817 0
      vertex 9.11211 -8.55684 0
    endloop
  endfacet
  facet normal 0 0 1
    outer loop
      vertex 1.73099 2.99817 0
      vertex 6.69783 10.5541 0
      vertex 5.32224 11.3103 0
    endloop
  endfacet
  facet normal 0 0 1
    outer loop
      vertex 9.11211 -8.55684 0
      vertex 1.73099 -2.99817 0
      vertex 7.9678 -9.63142 0
    endloop
  endfacet
  facet normal 0 0 1
    outer loop
      vertex 1.73099 2.99817 0
      vertex 5.32224 11.3103 0
      vertex 3.86271 11.8882 0
    endloop
  endfacet
  facet normal 0 0 1
    outer loop
      vertex 7.9678 -9.63142 0
      vertex 1.73099 -2.99817 0
      vertex 6.69783 -10.5541 0
    endloop
  endfacet
  facet normal 0 0 1
    outer loop
      vertex 6.69783 -10.5541 0
      vertex 1.73099 -2.99817 0
      vertex 5.32224 -11.3103 0
    endloop
  endfacet
  facet normal 0 0 1
    outer loop
      vertex 1.73099 2.99817 0
      vertex 3.86271 11.8882 0
      vertex 2.34227 12.2786 0
    endloop
  endfacet
  facet normal 0 0 1
    outer loop
      vertex 10.9538 6.02192 0
      vertex 1.73099 2.99817 0
      vertex 3.46199 0 0
    endloop
  endfacet
  facet normal 0 0 1
    outer loop
      vertex 0.784881 12.4753 0
      vertex 1.73099 2.99817 0
      vertex 2.34227 12.2786 0
    endloop
  endfacet
  facet normal -0 0 1
    outer loop
      vertex -0.784881 12.4753 0
      vertex 1.73099 2.99817 0
      vertex 0.784881 12.4753 0
    endloop
  endfacet
  facet normal 0 0 1
    outer loop
      vertex -0.784881 12.4753 0
      vertex -1.73099 2.99817 0
      vertex 1.73099 2.99817 0
    endloop
  endfacet
  facet normal -0 0 1
    outer loop
      vertex -2.34227 12.2786 0
      vertex -1.73099 2.99817 0
      vertex -0.784881 12.4753 0
    endloop
  endfacet
  facet normal -0 0 1
    outer loop
      vertex -3.86271 11.8882 0
      vertex -1.73099 2.99817 0
      vertex -2.34227 12.2786 0
    endloop
  endfacet
  facet normal -0 0 1
    outer loop
      vertex -5.32224 11.3103 0
      vertex -1.73099 2.99817 0
      vertex -3.86271 11.8882 0
    endloop
  endfacet
  facet normal 0 0 1
    outer loop
      vertex 5.32224 -11.3103 0
      vertex 1.73099 -2.99817 0
      vertex 3.86271 -11.8882 0
    endloop
  endfacet
  facet normal 0 0 1
    outer loop
      vertex 3.86271 -11.8882 0
      vertex 1.73099 -2.99817 0
      vertex 2.34227 -12.2786 0
    endloop
  endfacet
  facet normal 0 0 1
    outer loop
      vertex 1.73099 -2.99817 0
      vertex 0.784881 -12.4753 0
      vertex 2.34227 -12.2786 0
    endloop
  endfacet
  facet normal 0 0 1
    outer loop
      vertex 1.73099 -2.99817 0
      vertex -0.784881 -12.4753 0
      vertex 0.784881 -12.4753 0
    endloop
  endfacet
  facet normal -0 0 1
    outer loop
      vertex -1.73099 -2.99817 0
      vertex -0.784881 -12.4753 0
      vertex 1.73099 -2.99817 0
    endloop
  endfacet
  facet normal 0 0 1
    outer loop
      vertex -1.73099 -2.99817 0
      vertex -2.34227 -12.2786 0
      vertex -0.784881 -12.4753 0
    endloop
  endfacet
  facet normal 0 0 1
    outer loop
      vertex -10.9538 -6.02192 0
      vertex -1.73099 -2.99817 0
      vertex -3.46199 0 0
    endloop
  endfacet
  facet normal 0 0 1
    outer loop
      vertex -1.73099 -2.99817 0
      vertex -3.86271 -11.8882 0
      vertex -2.34227 -12.2786 0
    endloop
  endfacet
  facet normal -0 0 1
    outer loop
      vertex -6.69783 10.5541 0
      vertex -1.73099 2.99817 0
      vertex -5.32224 11.3103 0
    endloop
  endfacet
  facet normal -0 0 1
    outer loop
      vertex -7.9678 9.63142 0
      vertex -1.73099 2.99817 0
      vertex -6.69783 10.5541 0
    endloop
  endfacet
  facet normal 0 0 1
    outer loop
      vertex -1.73099 -2.99817 0
      vertex -5.32224 -11.3103 0
      vertex -3.86271 -11.8882 0
    endloop
  endfacet
  facet normal -0 0 1
    outer loop
      vertex -9.11211 8.55684 0
      vertex -1.73099 2.99817 0
      vertex -7.9678 9.63142 0
    endloop
  endfacet
  facet normal 0 0 1
    outer loop
      vertex -1.73099 -2.99817 0
      vertex -6.69783 -10.5541 0
      vertex -5.32224 -11.3103 0
    endloop
  endfacet
  facet normal -0 0 1
    outer loop
      vertex -10.1127 7.34731 0
      vertex -1.73099 2.99817 0
      vertex -9.11211 8.55684 0
    endloop
  endfacet
  facet normal 0 0 1
    outer loop
      vertex -1.73099 -2.99817 0
      vertex -7.9678 -9.63142 0
      vertex -6.69783 -10.5541 0
    endloop
  endfacet
  facet normal -0 0 1
    outer loop
      vertex -10.9538 6.02192 0
      vertex -1.73099 2.99817 0
      vertex -10.1127 7.34731 0
    endloop
  endfacet
  facet normal 0 0 1
    outer loop
      vertex -1.73099 -2.99817 0
      vertex -9.11211 -8.55684 0
      vertex -7.9678 -9.63142 0
    endloop
  endfacet
  facet normal 0 0 1
    outer loop
      vertex -1.73099 2.99817 0
      vertex -10.9538 6.02192 0
      vertex -3.46199 0 0
    endloop
  endfacet
  facet normal 0 0 1
    outer loop
      vertex -1.73099 -2.99817 0
      vertex -10.1127 -7.34731 0
      vertex -9.11211 -8.55684 0
    endloop
  endfacet
  facet normal -0 0 1
    outer loop
      vertex -11.6222 4.60156 0
      vertex -3.46199 0 0
      vertex -10.9538 6.02192 0
    endloop
  endfacet
  facet normal 0 0 1
    outer loop
      vertex -1.73099 -2.99817 0
      vertex -10.9538 -6.02192 0
      vertex -10.1127 -7.34731 0
    endloop
  endfacet
  facet normal -0 0 1
    outer loop
      vertex -12.1073 3.10862 0
      vertex -3.46199 0 0
      vertex -11.6222 4.60156 0
    endloop
  endfacet
  facet normal 0 0 1
    outer loop
      vertex -3.46199 0 0
      vertex -11.6222 -4.60156 0
      vertex -10.9538 -6.02192 0
    endloop
  endfacet
  facet normal -0 0 1
    outer loop
      vertex -12.4014 1.56666 0
      vertex -3.46199 0 0
      vertex -12.1073 3.10862 0
    endloop
  endfacet
  facet normal 0 0 1
    outer loop
      vertex -3.46199 0 0
      vertex -12.1073 -3.10862 0
      vertex -11.6222 -4.60156 0
    endloop
  endfacet
  facet normal 0 0 1
    outer loop
      vertex -12.5 0 0
      vertex -3.46199 0 0
      vertex -12.4014 1.56666 0
    endloop
  endfacet
  facet normal 0 0 1
    outer loop
      vertex -3.46199 0 0
      vertex -12.4014 -1.56666 0
      vertex -12.1073 -3.10862 0
    endloop
  endfacet
  facet normal 0 0 1
    outer loop
      vertex -3.46199 0 0
      vertex -12.5 0 0
      vertex -12.4014 -1.56666 0
    endloop
  endfacet
  facet normal 0 -1 0
    outer loop
      vertex -1.73099 2.99817 -2.5
      vertex 1.73099 2.99817 0
      vertex -1.73099 2.99817 0
    endloop
  endfacet
  facet normal 0 -1 -0
    outer loop
      vertex 1.73099 2.99817 0
      vertex -1.73099 2.99817 -2.5
      vertex 1.73099 2.99817 -2.5
    endloop
  endfacet
  facet normal -0.998028 -0.0627752 0
    outer loop
      vertex 1.8 0 -22.5
      vertex 1.78581 0.225599 -2.5
      vertex 1.78581 0.225599 -22.5
    endloop
  endfacet
  facet normal -0.998028 -0.0627752 0
    outer loop
      vertex 1.78581 0.225599 -2.5
      vertex 1.8 0 -22.5
      vertex 1.8 0 -2.5
    endloop
  endfacet
  facet normal 0.998028 -0.0627752 0
    outer loop
      vertex -1.8 0 -2.5
      vertex -1.78581 0.225599 -22.5
      vertex -1.78581 0.225599 -2.5
    endloop
  endfacet
  facet normal 0.998028 -0.0627752 0
    outer loop
      vertex -1.78581 0.225599 -22.5
      vertex -1.8 0 -2.5
      vertex -1.8 0 -22.5
    endloop
  endfacet
  facet normal 0 -1 0
    outer loop
      vertex -0.113023 1.79645 -22.5
      vertex 0.113023 1.79645 -2.5
      vertex -0.113023 1.79645 -2.5
    endloop
  endfacet
  facet normal 0 -1 -0
    outer loop
      vertex 0.113023 1.79645 -2.5
      vertex -0.113023 1.79645 -22.5
      vertex 0.113023 1.79645 -22.5
    endloop
  endfacet
  facet normal 0 1 -0
    outer loop
      vertex 0.113023 -1.79645 -22.5
      vertex -0.113023 -1.79645 -2.5
      vertex 0.113023 -1.79645 -2.5
    endloop
  endfacet
  facet normal 0 1 0
    outer loop
      vertex -0.113023 -1.79645 -2.5
      vertex 0.113023 -1.79645 -22.5
      vertex -0.113023 -1.79645 -22.5
    endloop
  endfacet
  facet normal -0.68455 -0.728966 0
    outer loop
      vertex 1.14736 1.38692 -22.5
      vertex 1.31214 1.23218 -2.5
      vertex 1.14736 1.38692 -2.5
    endloop
  endfacet
  facet normal -0.68455 -0.728966 -0
    outer loop
      vertex 1.31214 1.23218 -2.5
      vertex 1.14736 1.38692 -22.5
      vertex 1.31214 1.23218 -22.5
    endloop
  endfacet
  facet normal 0.68455 -0.728966 0
    outer loop
      vertex -1.31214 1.23218 -22.5
      vertex -1.14736 1.38692 -2.5
      vertex -1.31214 1.23218 -2.5
    endloop
  endfacet
  facet normal 0.68455 -0.728966 0
    outer loop
      vertex -1.14736 1.38692 -2.5
      vertex -1.31214 1.23218 -22.5
      vertex -1.14736 1.38692 -22.5
    endloop
  endfacet
  facet normal 0.368115 -0.92978 0
    outer loop
      vertex -0.766402 1.62869 -22.5
      vertex -0.556231 1.7119 -2.5
      vertex -0.766402 1.62869 -2.5
    endloop
  endfacet
  facet normal 0.368115 -0.92978 0
    outer loop
      vertex -0.556231 1.7119 -2.5
      vertex -0.766402 1.62869 -22.5
      vertex -0.556231 1.7119 -22.5
    endloop
  endfacet
  facet normal -0.844327 0.535828 0
    outer loop
      vertex 1.45623 -1.05801 -22.5
      vertex 1.57735 -0.867156 -2.5
      vertex 1.57735 -0.867156 -22.5
    endloop
  endfacet
  facet normal -0.844327 0.535828 0
    outer loop
      vertex 1.57735 -0.867156 -2.5
      vertex 1.45623 -1.05801 -22.5
      vertex 1.45623 -1.05801 -2.5
    endloop
  endfacet
  facet normal -0.90482 -0.425794 0
    outer loop
      vertex 1.6736 0.662623 -22.5
      vertex 1.57735 0.867156 -2.5
      vertex 1.57735 0.867156 -22.5
    endloop
  endfacet
  facet normal -0.90482 -0.425794 0
    outer loop
      vertex 1.57735 0.867156 -2.5
      vertex 1.6736 0.662623 -22.5
      vertex 1.6736 0.662623 -2.5
    endloop
  endfacet
  facet normal -0.982285 -0.187395 0
    outer loop
      vertex 1.78581 0.225599 -22.5
      vertex 1.74345 0.447641 -2.5
      vertex 1.74345 0.447641 -22.5
    endloop
  endfacet
  facet normal -0.982285 -0.187395 0
    outer loop
      vertex 1.74345 0.447641 -2.5
      vertex 1.78581 0.225599 -22.5
      vertex 1.78581 0.225599 -2.5
    endloop
  endfacet
  facet normal -0.368115 -0.92978 0
    outer loop
      vertex 0.556231 1.7119 -22.5
      vertex 0.766402 1.62869 -2.5
      vertex 0.556231 1.7119 -2.5
    endloop
  endfacet
  facet normal -0.368115 -0.92978 -0
    outer loop
      vertex 0.766402 1.62869 -2.5
      vertex 0.556231 1.7119 -22.5
      vertex 0.766402 1.62869 -22.5
    endloop
  endfacet
  facet normal -0.248708 -0.968578 0
    outer loop
      vertex 0.337286 1.76812 -22.5
      vertex 0.556231 1.7119 -2.5
      vertex 0.337286 1.76812 -2.5
    endloop
  endfacet
  facet normal -0.248708 -0.968578 -0
    outer loop
      vertex 0.556231 1.7119 -2.5
      vertex 0.337286 1.76812 -22.5
      vertex 0.556231 1.7119 -22.5
    endloop
  endfacet
  facet normal -0.587802 -0.809005 0
    outer loop
      vertex 0.964488 1.51979 -22.5
      vertex 1.14736 1.38692 -2.5
      vertex 0.964488 1.51979 -2.5
    endloop
  endfacet
  facet normal -0.587802 -0.809005 -0
    outer loop
      vertex 1.14736 1.38692 -2.5
      vertex 0.964488 1.51979 -22.5
      vertex 1.14736 1.38692 -22.5
    endloop
  endfacet
  facet normal 0.90482 -0.425794 0
    outer loop
      vertex -1.6736 0.662623 -2.5
      vertex -1.57735 0.867156 -22.5
      vertex -1.57735 0.867156 -2.5
    endloop
  endfacet
  facet normal 0.90482 -0.425794 0
    outer loop
      vertex -1.57735 0.867156 -22.5
      vertex -1.6736 0.662623 -2.5
      vertex -1.6736 0.662623 -22.5
    endloop
  endfacet
  facet normal 0.951059 -0.309009 0
    outer loop
      vertex -1.74345 0.447641 -2.5
      vertex -1.6736 0.662623 -22.5
      vertex -1.6736 0.662623 -2.5
    endloop
  endfacet
  facet normal 0.951059 -0.309009 0
    outer loop
      vertex -1.6736 0.662623 -22.5
      vertex -1.74345 0.447641 -2.5
      vertex -1.74345 0.447641 -22.5
    endloop
  endfacet
  facet normal 0.248708 -0.968578 0
    outer loop
      vertex -0.556231 1.7119 -22.5
      vertex -0.337286 1.76812 -2.5
      vertex -0.556231 1.7119 -2.5
    endloop
  endfacet
  facet normal 0.248708 -0.968578 0
    outer loop
      vertex -0.337286 1.76812 -2.5
      vertex -0.556231 1.7119 -22.5
      vertex -0.337286 1.76812 -22.5
    endloop
  endfacet
  facet normal -0.125329 0.992115 0
    outer loop
      vertex 0.337286 -1.76812 -22.5
      vertex 0.113023 -1.79645 -2.5
      vertex 0.337286 -1.76812 -2.5
    endloop
  endfacet
  facet normal -0.125329 0.992115 0
    outer loop
      vertex 0.113023 -1.79645 -2.5
      vertex 0.337286 -1.76812 -22.5
      vertex 0.113023 -1.79645 -22.5
    endloop
  endfacet
  facet normal -0.368115 0.92978 0
    outer loop
      vertex 0.766402 -1.62869 -22.5
      vertex 0.556231 -1.7119 -2.5
      vertex 0.766402 -1.62869 -2.5
    endloop
  endfacet
  facet normal -0.368115 0.92978 0
    outer loop
      vertex 0.556231 -1.7119 -2.5
      vertex 0.766402 -1.62869 -22.5
      vertex 0.556231 -1.7119 -22.5
    endloop
  endfacet
  facet normal -0.951059 -0.309009 0
    outer loop
      vertex 1.74345 0.447641 -22.5
      vertex 1.6736 0.662623 -2.5
      vertex 1.6736 0.662623 -22.5
    endloop
  endfacet
  facet normal -0.951059 -0.309009 0
    outer loop
      vertex 1.6736 0.662623 -2.5
      vertex 1.74345 0.447641 -22.5
      vertex 1.74345 0.447641 -2.5
    endloop
  endfacet
  facet normal -0.770504 -0.637435 0
    outer loop
      vertex 1.45623 1.05801 -22.5
      vertex 1.31214 1.23218 -2.5
      vertex 1.31214 1.23218 -22.5
    endloop
  endfacet
  facet normal -0.770504 -0.637435 0
    outer loop
      vertex 1.31214 1.23218 -2.5
      vertex 1.45623 1.05801 -22.5
      vertex 1.45623 1.05801 -2.5
    endloop
  endfacet
  facet normal -0.844327 -0.535828 0
    outer loop
      vertex 1.57735 0.867156 -22.5
      vertex 1.45623 1.05801 -2.5
      vertex 1.45623 1.05801 -22.5
    endloop
  endfacet
  facet normal -0.844327 -0.535828 0
    outer loop
      vertex 1.45623 1.05801 -2.5
      vertex 1.57735 0.867156 -22.5
      vertex 1.57735 0.867156 -2.5
    endloop
  endfacet
  facet normal -0.125329 -0.992115 0
    outer loop
      vertex 0.113023 1.79645 -22.5
      vertex 0.337286 1.76812 -2.5
      vertex 0.113023 1.79645 -2.5
    endloop
  endfacet
  facet normal -0.125329 -0.992115 -0
    outer loop
      vertex 0.337286 1.76812 -2.5
      vertex 0.113023 1.79645 -22.5
      vertex 0.337286 1.76812 -22.5
    endloop
  endfacet
  facet normal -0.481758 -0.876304 0
    outer loop
      vertex 0.766402 1.62869 -22.5
      vertex 0.964488 1.51979 -2.5
      vertex 0.766402 1.62869 -2.5
    endloop
  endfacet
  facet normal -0.481758 -0.876304 -0
    outer loop
      vertex 0.964488 1.51979 -2.5
      vertex 0.766402 1.62869 -22.5
      vertex 0.964488 1.51979 -22.5
    endloop
  endfacet
  facet normal 0.844327 -0.535828 0
    outer loop
      vertex -1.57735 0.867156 -2.5
      vertex -1.45623 1.05801 -22.5
      vertex -1.45623 1.05801 -2.5
    endloop
  endfacet
  facet normal 0.844327 -0.535828 0
    outer loop
      vertex -1.45623 1.05801 -22.5
      vertex -1.57735 0.867156 -2.5
      vertex -1.57735 0.867156 -22.5
    endloop
  endfacet
  facet normal 0.770504 -0.637435 0
    outer loop
      vertex -1.45623 1.05801 -2.5
      vertex -1.31214 1.23218 -22.5
      vertex -1.31214 1.23218 -2.5
    endloop
  endfacet
  facet normal 0.770504 -0.637435 0
    outer loop
      vertex -1.31214 1.23218 -22.5
      vertex -1.45623 1.05801 -2.5
      vertex -1.45623 1.05801 -22.5
    endloop
  endfacet
  facet normal 0.982285 -0.187395 0
    outer loop
      vertex -1.78581 0.225599 -2.5
      vertex -1.74345 0.447641 -22.5
      vertex -1.74345 0.447641 -2.5
    endloop
  endfacet
  facet normal 0.982285 -0.187395 0
    outer loop
      vertex -1.74345 0.447641 -22.5
      vertex -1.78581 0.225599 -2.5
      vertex -1.78581 0.225599 -22.5
    endloop
  endfacet
  facet normal 0.481758 -0.876304 0
    outer loop
      vertex -0.964488 1.51979 -22.5
      vertex -0.766402 1.62869 -2.5
      vertex -0.964488 1.51979 -2.5
    endloop
  endfacet
  facet normal 0.481758 -0.876304 0
    outer loop
      vertex -0.766402 1.62869 -2.5
      vertex -0.964488 1.51979 -22.5
      vertex -0.766402 1.62869 -22.5
    endloop
  endfacet
  facet normal 0.587802 -0.809005 0
    outer loop
      vertex -1.14736 1.38692 -22.5
      vertex -0.964488 1.51979 -2.5
      vertex -1.14736 1.38692 -2.5
    endloop
  endfacet
  facet normal 0.587802 -0.809005 0
    outer loop
      vertex -0.964488 1.51979 -2.5
      vertex -1.14736 1.38692 -22.5
      vertex -0.964488 1.51979 -22.5
    endloop
  endfacet
  facet normal 0.125329 -0.992115 0
    outer loop
      vertex -0.337286 1.76812 -22.5
      vertex -0.113023 1.79645 -2.5
      vertex -0.337286 1.76812 -2.5
    endloop
  endfacet
  facet normal 0.125329 -0.992115 0
    outer loop
      vertex -0.113023 1.79645 -2.5
      vertex -0.337286 1.76812 -22.5
      vertex -0.113023 1.79645 -22.5
    endloop
  endfacet
  facet normal -0.481758 0.876304 0
    outer loop
      vertex 0.964488 -1.51979 -22.5
      vertex 0.766402 -1.62869 -2.5
      vertex 0.964488 -1.51979 -2.5
    endloop
  endfacet
  facet normal -0.481758 0.876304 0
    outer loop
      vertex 0.766402 -1.62869 -2.5
      vertex 0.964488 -1.51979 -22.5
      vertex 0.766402 -1.62869 -22.5
    endloop
  endfacet
  facet normal -0.68455 0.728966 0
    outer loop
      vertex 1.31214 -1.23218 -22.5
      vertex 1.14736 -1.38692 -2.5
      vertex 1.31214 -1.23218 -2.5
    endloop
  endfacet
  facet normal -0.68455 0.728966 0
    outer loop
      vertex 1.14736 -1.38692 -2.5
      vertex 1.31214 -1.23218 -22.5
      vertex 1.14736 -1.38692 -22.5
    endloop
  endfacet
  facet normal -0.982285 0.187395 0
    outer loop
      vertex 1.74345 -0.447641 -22.5
      vertex 1.78581 -0.225599 -2.5
      vertex 1.78581 -0.225599 -22.5
    endloop
  endfacet
  facet normal -0.982285 0.187395 0
    outer loop
      vertex 1.78581 -0.225599 -2.5
      vertex 1.74345 -0.447641 -22.5
      vertex 1.74345 -0.447641 -2.5
    endloop
  endfacet
  facet normal 0.90482 0.425794 0
    outer loop
      vertex -1.57735 -0.867156 -2.5
      vertex -1.6736 -0.662623 -22.5
      vertex -1.6736 -0.662623 -2.5
    endloop
  endfacet
  facet normal 0.90482 0.425794 0
    outer loop
      vertex -1.6736 -0.662623 -22.5
      vertex -1.57735 -0.867156 -2.5
      vertex -1.57735 -0.867156 -22.5
    endloop
  endfacet
  facet normal -0.90482 0.425794 0
    outer loop
      vertex 1.57735 -0.867156 -22.5
      vertex 1.6736 -0.662623 -2.5
      vertex 1.6736 -0.662623 -22.5
    endloop
  endfacet
  facet normal -0.90482 0.425794 0
    outer loop
      vertex 1.6736 -0.662623 -2.5
      vertex 1.57735 -0.867156 -22.5
      vertex 1.57735 -0.867156 -2.5
    endloop
  endfacet
  facet normal -0.770504 0.637435 0
    outer loop
      vertex 1.31214 -1.23218 -22.5
      vertex 1.45623 -1.05801 -2.5
      vertex 1.45623 -1.05801 -22.5
    endloop
  endfacet
  facet normal -0.770504 0.637435 0
    outer loop
      vertex 1.45623 -1.05801 -2.5
      vertex 1.31214 -1.23218 -22.5
      vertex 1.31214 -1.23218 -2.5
    endloop
  endfacet
  facet normal -0.998028 0.0627752 0
    outer loop
      vertex 1.78581 -0.225599 -22.5
      vertex 1.8 0 -2.5
      vertex 1.8 0 -22.5
    endloop
  endfacet
  facet normal -0.998028 0.0627752 0
    outer loop
      vertex 1.8 0 -2.5
      vertex 1.78581 -0.225599 -22.5
      vertex 1.78581 -0.225599 -2.5
    endloop
  endfacet
  facet normal 0.587802 0.809005 -0
    outer loop
      vertex -0.964488 -1.51979 -22.5
      vertex -1.14736 -1.38692 -2.5
      vertex -0.964488 -1.51979 -2.5
    endloop
  endfacet
  facet normal 0.587802 0.809005 0
    outer loop
      vertex -1.14736 -1.38692 -2.5
      vertex -0.964488 -1.51979 -22.5
      vertex -1.14736 -1.38692 -22.5
    endloop
  endfacet
  facet normal 0.248708 0.968578 -0
    outer loop
      vertex -0.337286 -1.76812 -22.5
      vertex -0.556231 -1.7119 -2.5
      vertex -0.337286 -1.76812 -2.5
    endloop
  endfacet
  facet normal 0.248708 0.968578 0
    outer loop
      vertex -0.556231 -1.7119 -2.5
      vertex -0.337286 -1.76812 -22.5
      vertex -0.556231 -1.7119 -22.5
    endloop
  endfacet
  facet normal 0.951059 0.309009 0
    outer loop
      vertex -1.6736 -0.662623 -2.5
      vertex -1.74345 -0.447641 -22.5
      vertex -1.74345 -0.447641 -2.5
    endloop
  endfacet
  facet normal 0.951059 0.309009 0
    outer loop
      vertex -1.74345 -0.447641 -22.5
      vertex -1.6736 -0.662623 -2.5
      vertex -1.6736 -0.662623 -22.5
    endloop
  endfacet
  facet normal -0.248708 0.968578 0
    outer loop
      vertex 0.556231 -1.7119 -22.5
      vertex 0.337286 -1.76812 -2.5
      vertex 0.556231 -1.7119 -2.5
    endloop
  endfacet
  facet normal -0.248708 0.968578 0
    outer loop
      vertex 0.337286 -1.76812 -2.5
      vertex 0.556231 -1.7119 -22.5
      vertex 0.337286 -1.76812 -22.5
    endloop
  endfacet
  facet normal -0.587802 0.809005 0
    outer loop
      vertex 1.14736 -1.38692 -22.5
      vertex 0.964488 -1.51979 -2.5
      vertex 1.14736 -1.38692 -2.5
    endloop
  endfacet
  facet normal -0.587802 0.809005 0
    outer loop
      vertex 0.964488 -1.51979 -2.5
      vertex 1.14736 -1.38692 -22.5
      vertex 0.964488 -1.51979 -22.5
    endloop
  endfacet
  facet normal -0.951059 0.309009 0
    outer loop
      vertex 1.6736 -0.662623 -22.5
      vertex 1.74345 -0.447641 -2.5
      vertex 1.74345 -0.447641 -22.5
    endloop
  endfacet
  facet normal -0.951059 0.309009 0
    outer loop
      vertex 1.74345 -0.447641 -2.5
      vertex 1.6736 -0.662623 -22.5
      vertex 1.6736 -0.662623 -2.5
    endloop
  endfacet
  facet normal 0.125329 0.992115 -0
    outer loop
      vertex -0.113023 -1.79645 -22.5
      vertex -0.337286 -1.76812 -2.5
      vertex -0.113023 -1.79645 -2.5
    endloop
  endfacet
  facet normal 0.125329 0.992115 0
    outer loop
      vertex -0.337286 -1.76812 -2.5
      vertex -0.113023 -1.79645 -22.5
      vertex -0.337286 -1.76812 -22.5
    endloop
  endfacet
  facet normal 0.68455 0.728966 -0
    outer loop
      vertex -1.14736 -1.38692 -22.5
      vertex -1.31214 -1.23218 -2.5
      vertex -1.14736 -1.38692 -2.5
    endloop
  endfacet
  facet normal 0.68455 0.728966 0
    outer loop
      vertex -1.31214 -1.23218 -2.5
      vertex -1.14736 -1.38692 -22.5
      vertex -1.31214 -1.23218 -22.5
    endloop
  endfacet
  facet normal 0.982285 0.187395 0
    outer loop
      vertex -1.74345 -0.447641 -2.5
      vertex -1.78581 -0.225599 -22.5
      vertex -1.78581 -0.225599 -2.5
    endloop
  endfacet
  facet normal 0.982285 0.187395 0
    outer loop
      vertex -1.78581 -0.225599 -22.5
      vertex -1.74345 -0.447641 -2.5
      vertex -1.74345 -0.447641 -22.5
    endloop
  endfacet
  facet normal 0.998028 0.0627752 0
    outer loop
      vertex -1.78581 -0.225599 -2.5
      vertex -1.8 0 -22.5
      vertex -1.8 0 -2.5
    endloop
  endfacet
  facet normal 0.998028 0.0627752 0
    outer loop
      vertex -1.8 0 -22.5
      vertex -1.78581 -0.225599 -2.5
      vertex -1.78581 -0.225599 -22.5
    endloop
  endfacet
  facet normal 0.368115 0.92978 -0
    outer loop
      vertex -0.556231 -1.7119 -22.5
      vertex -0.766402 -1.62869 -2.5
      vertex -0.556231 -1.7119 -2.5
    endloop
  endfacet
  facet normal 0.368115 0.92978 0
    outer loop
      vertex -0.766402 -1.62869 -2.5
      vertex -0.556231 -1.7119 -22.5
      vertex -0.766402 -1.62869 -22.5
    endloop
  endfacet
  facet normal 0.481758 0.876304 -0
    outer loop
      vertex -0.766402 -1.62869 -22.5
      vertex -0.964488 -1.51979 -2.5
      vertex -0.766402 -1.62869 -2.5
    endloop
  endfacet
  facet normal 0.481758 0.876304 0
    outer loop
      vertex -0.964488 -1.51979 -2.5
      vertex -0.766402 -1.62869 -22.5
      vertex -0.964488 -1.51979 -22.5
    endloop
  endfacet
  facet normal 0.844327 0.535828 0
    outer loop
      vertex -1.45623 -1.05801 -2.5
      vertex -1.57735 -0.867156 -22.5
      vertex -1.57735 -0.867156 -2.5
    endloop
  endfacet
  facet normal 0.844327 0.535828 0
    outer loop
      vertex -1.57735 -0.867156 -22.5
      vertex -1.45623 -1.05801 -2.5
      vertex -1.45623 -1.05801 -22.5
    endloop
  endfacet
  facet normal 0.770504 0.637435 0
    outer loop
      vertex -1.31214 -1.23218 -2.5
      vertex -1.45623 -1.05801 -22.5
      vertex -1.45623 -1.05801 -2.5
    endloop
  endfacet
  facet normal 0.770504 0.637435 0
    outer loop
      vertex -1.45623 -1.05801 -22.5
      vertex -1.31214 -1.23218 -2.5
      vertex -1.31214 -1.23218 -22.5
    endloop
  endfacet
  facet normal -0.951054 0.309025 0
    outer loop
      vertex -12.1073 3.10862 -22.5
      vertex -11.6222 4.60156 0
      vertex -11.6222 4.60156 -22.5
    endloop
  endfacet
  facet normal -0.951054 0.309025 0
    outer loop
      vertex -11.6222 4.60156 0
      vertex -12.1073 3.10862 -22.5
      vertex -12.1073 3.10862 0
    endloop
  endfacet
  facet normal 0.844333 0.535819 0
    outer loop
      vertex 10.9538 6.02192 0
      vertex 10.1127 7.34731 -22.5
      vertex 10.1127 7.34731 0
    endloop
  endfacet
  facet normal 0.844333 0.535819 0
    outer loop
      vertex 10.1127 7.34731 -22.5
      vertex 10.9538 6.02192 0
      vertex 10.9538 6.02192 -22.5
    endloop
  endfacet
  facet normal 0.368142 0.92977 -0
    outer loop
      vertex 5.32224 11.3103 -22.5
      vertex 3.86271 11.8882 0
      vertex 5.32224 11.3103 0
    endloop
  endfacet
  facet normal 0.368142 0.92977 0
    outer loop
      vertex 3.86271 11.8882 0
      vertex 5.32224 11.3103 -22.5
      vertex 3.86271 11.8882 -22.5
    endloop
  endfacet
  facet normal -0.368142 0.92977 0
    outer loop
      vertex -3.86271 11.8882 -22.5
      vertex -5.32224 11.3103 0
      vertex -3.86271 11.8882 0
    endloop
  endfacet
  facet normal -0.368142 0.92977 0
    outer loop
      vertex -5.32224 11.3103 0
      vertex -3.86271 11.8882 -22.5
      vertex -5.32224 11.3103 -22.5
    endloop
  endfacet
  facet normal -0.90482 0.425795 0
    outer loop
      vertex -11.6222 4.60156 -22.5
      vertex -10.9538 6.02192 0
      vertex -10.9538 6.02192 -22.5
    endloop
  endfacet
  facet normal -0.90482 0.425795 0
    outer loop
      vertex -10.9538 6.02192 0
      vertex -11.6222 4.60156 -22.5
      vertex -11.6222 4.60156 0
    endloop
  endfacet
  facet normal 0.982292 -0.187354 0
    outer loop
      vertex 12.1073 -3.10862 0
      vertex 12.4014 -1.56666 -22.5
      vertex 12.4014 -1.56666 0
    endloop
  endfacet
  facet normal 0.982292 -0.187354 0
    outer loop
      vertex 12.4014 -1.56666 -22.5
      vertex 12.1073 -3.10862 0
      vertex 12.1073 -3.10862 -22.5
    endloop
  endfacet
  facet normal 0.982292 0.187354 0
    outer loop
      vertex 12.4014 1.56666 0
      vertex 12.1073 3.10862 -22.5
      vertex 12.1073 3.10862 0
    endloop
  endfacet
  facet normal 0.982292 0.187354 0
    outer loop
      vertex 12.1073 3.10862 -22.5
      vertex 12.4014 1.56666 0
      vertex 12.4014 1.56666 -22.5
    endloop
  endfacet
  facet normal 0.481736 0.876317 -0
    outer loop
      vertex 6.69783 10.5541 -22.5
      vertex 5.32224 11.3103 0
      vertex 6.69783 10.5541 0
    endloop
  endfacet
  facet normal 0.481736 0.876317 0
    outer loop
      vertex 5.32224 11.3103 0
      vertex 6.69783 10.5541 -22.5
      vertex 5.32224 11.3103 -22.5
    endloop
  endfacet
  facet normal -0.982292 0.187354 0
    outer loop
      vertex -12.4014 1.56666 -22.5
      vertex -12.1073 3.10862 0
      vertex -12.1073 3.10862 -22.5
    endloop
  endfacet
  facet normal -0.982292 0.187354 0
    outer loop
      vertex -12.1073 3.10862 0
      vertex -12.4014 1.56666 -22.5
      vertex -12.4014 1.56666 0
    endloop
  endfacet
  facet normal -0.77052 0.637416 0
    outer loop
      vertex -10.1127 7.34731 -22.5
      vertex -9.11211 8.55684 0
      vertex -9.11211 8.55684 -22.5
    endloop
  endfacet
  facet normal -0.77052 0.637416 0
    outer loop
      vertex -9.11211 8.55684 0
      vertex -10.1127 7.34731 -22.5
      vertex -10.1127 7.34731 0
    endloop
  endfacet
  facet normal -0.125306 0.992118 0
    outer loop
      vertex -0.784881 12.4753 -22.5
      vertex -2.34227 12.2786 0
      vertex -0.784881 12.4753 0
    endloop
  endfacet
  facet normal -0.125306 0.992118 0
    outer loop
      vertex -2.34227 12.2786 0
      vertex -0.784881 12.4753 -22.5
      vertex -2.34227 12.2786 -22.5
    endloop
  endfacet
  facet normal -0.684548 0.728968 0
    outer loop
      vertex -7.9678 9.63142 -22.5
      vertex -9.11211 8.55684 0
      vertex -7.9678 9.63142 0
    endloop
  endfacet
  facet normal -0.684548 0.728968 0
    outer loop
      vertex -9.11211 8.55684 0
      vertex -7.9678 9.63142 -22.5
      vertex -9.11211 8.55684 -22.5
    endloop
  endfacet
  facet normal 0.998025 0.0628122 0
    outer loop
      vertex 12.5 0 0
      vertex 12.4014 1.56666 -22.5
      vertex 12.4014 1.56666 0
    endloop
  endfacet
  facet normal 0.998025 0.0628122 0
    outer loop
      vertex 12.4014 1.56666 -22.5
      vertex 12.5 0 0
      vertex 12.5 0 -22.5
    endloop
  endfacet
  facet normal 0.684548 0.728968 -0
    outer loop
      vertex 9.11211 8.55684 -22.5
      vertex 7.9678 9.63142 0
      vertex 9.11211 8.55684 0
    endloop
  endfacet
  facet normal 0.684548 0.728968 0
    outer loop
      vertex 7.9678 9.63142 0
      vertex 9.11211 8.55684 -22.5
      vertex 7.9678 9.63142 -22.5
    endloop
  endfacet
  facet normal 0.77052 0.637416 0
    outer loop
      vertex 10.1127 7.34731 0
      vertex 9.11211 8.55684 -22.5
      vertex 9.11211 8.55684 0
    endloop
  endfacet
  facet normal 0.77052 0.637416 0
    outer loop
      vertex 9.11211 8.55684 -22.5
      vertex 10.1127 7.34731 0
      vertex 10.1127 7.34731 -22.5
    endloop
  endfacet
  facet normal 0 1 -0
    outer loop
      vertex 0.784881 12.4753 -22.5
      vertex -0.784881 12.4753 0
      vertex 0.784881 12.4753 0
    endloop
  endfacet
  facet normal 0 1 0
    outer loop
      vertex -0.784881 12.4753 0
      vertex 0.784881 12.4753 -22.5
      vertex -0.784881 12.4753 -22.5
    endloop
  endfacet
  facet normal 0.2487 0.96858 -0
    outer loop
      vertex 3.86271 11.8882 -22.5
      vertex 2.34227 12.2786 0
      vertex 3.86271 11.8882 0
    endloop
  endfacet
  facet normal 0.2487 0.96858 0
    outer loop
      vertex 2.34227 12.2786 0
      vertex 3.86271 11.8882 -22.5
      vertex 2.34227 12.2786 -22.5
    endloop
  endfacet
  facet normal 0.587782 0.809019 -0
    outer loop
      vertex 7.9678 9.63142 -22.5
      vertex 6.69783 10.5541 0
      vertex 7.9678 9.63142 0
    endloop
  endfacet
  facet normal 0.587782 0.809019 0
    outer loop
      vertex 6.69783 10.5541 0
      vertex 7.9678 9.63142 -22.5
      vertex 6.69783 10.5541 -22.5
    endloop
  endfacet
  facet normal -0.998025 0.0628122 0
    outer loop
      vertex -12.5 0 -22.5
      vertex -12.4014 1.56666 0
      vertex -12.4014 1.56666 -22.5
    endloop
  endfacet
  facet normal -0.998025 0.0628122 0
    outer loop
      vertex -12.4014 1.56666 0
      vertex -12.5 0 -22.5
      vertex -12.5 0 0
    endloop
  endfacet
  facet normal -0.844333 0.535819 0
    outer loop
      vertex -10.9538 6.02192 -22.5
      vertex -10.1127 7.34731 0
      vertex -10.1127 7.34731 -22.5
    endloop
  endfacet
  facet normal -0.844333 0.535819 0
    outer loop
      vertex -10.1127 7.34731 0
      vertex -10.9538 6.02192 -22.5
      vertex -10.9538 6.02192 0
    endloop
  endfacet
  facet normal -0.2487 0.96858 0
    outer loop
      vertex -2.34227 12.2786 -22.5
      vertex -3.86271 11.8882 0
      vertex -2.34227 12.2786 0
    endloop
  endfacet
  facet normal -0.2487 0.96858 0
    outer loop
      vertex -3.86271 11.8882 0
      vertex -2.34227 12.2786 -22.5
      vertex -3.86271 11.8882 -22.5
    endloop
  endfacet
  facet normal -0.587782 0.809019 0
    outer loop
      vertex -6.69783 10.5541 -22.5
      vertex -7.9678 9.63142 0
      vertex -6.69783 10.5541 0
    endloop
  endfacet
  facet normal -0.587782 0.809019 0
    outer loop
      vertex -7.9678 9.63142 0
      vertex -6.69783 10.5541 -22.5
      vertex -7.9678 9.63142 -22.5
    endloop
  endfacet
  facet normal -0.481736 0.876317 0
    outer loop
      vertex -5.32224 11.3103 -22.5
      vertex -6.69783 10.5541 0
      vertex -5.32224 11.3103 0
    endloop
  endfacet
  facet normal -0.481736 0.876317 0
    outer loop
      vertex -6.69783 10.5541 0
      vertex -5.32224 11.3103 -22.5
      vertex -6.69783 10.5541 -22.5
    endloop
  endfacet
  facet normal 0.998025 -0.0628122 0
    outer loop
      vertex 12.4014 -1.56666 0
      vertex 12.5 0 -22.5
      vertex 12.5 0 0
    endloop
  endfacet
  facet normal 0.998025 -0.0628122 0
    outer loop
      vertex 12.5 0 -22.5
      vertex 12.4014 -1.56666 0
      vertex 12.4014 -1.56666 -22.5
    endloop
  endfacet
  facet normal 0 -1 0
    outer loop
      vertex -0.784881 -12.4753 -22.5
      vertex 0.784881 -12.4753 0
      vertex -0.784881 -12.4753 0
    endloop
  endfacet
  facet normal 0 -1 -0
    outer loop
      vertex 0.784881 -12.4753 0
      vertex -0.784881 -12.4753 -22.5
      vertex 0.784881 -12.4753 -22.5
    endloop
  endfacet
  facet normal -0.951054 -0.309025 0
    outer loop
      vertex -11.6222 -4.60156 -22.5
      vertex -12.1073 -3.10862 0
      vertex -12.1073 -3.10862 -22.5
    endloop
  endfacet
  facet normal -0.951054 -0.309025 0
    outer loop
      vertex -12.1073 -3.10862 0
      vertex -11.6222 -4.60156 -22.5
      vertex -11.6222 -4.60156 0
    endloop
  endfacet
  facet normal -0.90482 -0.425795 0
    outer loop
      vertex -10.9538 -6.02192 -22.5
      vertex -11.6222 -4.60156 0
      vertex -11.6222 -4.60156 -22.5
    endloop
  endfacet
  facet normal -0.90482 -0.425795 0
    outer loop
      vertex -11.6222 -4.60156 0
      vertex -10.9538 -6.02192 -22.5
      vertex -10.9538 -6.02192 0
    endloop
  endfacet
  facet normal 0.125306 -0.992118 0
    outer loop
      vertex 0.784881 -12.4753 -22.5
      vertex 2.34227 -12.2786 0
      vertex 0.784881 -12.4753 0
    endloop
  endfacet
  facet normal 0.125306 -0.992118 0
    outer loop
      vertex 2.34227 -12.2786 0
      vertex 0.784881 -12.4753 -22.5
      vertex 2.34227 -12.2786 -22.5
    endloop
  endfacet
  facet normal 0.90482 0.425795 0
    outer loop
      vertex 11.6222 4.60156 0
      vertex 10.9538 6.02192 -22.5
      vertex 10.9538 6.02192 0
    endloop
  endfacet
  facet normal 0.90482 0.425795 0
    outer loop
      vertex 10.9538 6.02192 -22.5
      vertex 11.6222 4.60156 0
      vertex 11.6222 4.60156 -22.5
    endloop
  endfacet
  facet normal 0.951054 0.309025 0
    outer loop
      vertex 12.1073 3.10862 0
      vertex 11.6222 4.60156 -22.5
      vertex 11.6222 4.60156 0
    endloop
  endfacet
  facet normal 0.951054 0.309025 0
    outer loop
      vertex 11.6222 4.60156 -22.5
      vertex 12.1073 3.10862 0
      vertex 12.1073 3.10862 -22.5
    endloop
  endfacet
  facet normal 0.125306 0.992118 -0
    outer loop
      vertex 2.34227 12.2786 -22.5
      vertex 0.784881 12.4753 0
      vertex 2.34227 12.2786 0
    endloop
  endfacet
  facet normal 0.125306 0.992118 0
    outer loop
      vertex 0.784881 12.4753 0
      vertex 2.34227 12.2786 -22.5
      vertex 0.784881 12.4753 -22.5
    endloop
  endfacet
  facet normal 0.90482 -0.425795 0
    outer loop
      vertex 10.9538 -6.02192 0
      vertex 11.6222 -4.60156 -22.5
      vertex 11.6222 -4.60156 0
    endloop
  endfacet
  facet normal 0.90482 -0.425795 0
    outer loop
      vertex 11.6222 -4.60156 -22.5
      vertex 10.9538 -6.02192 0
      vertex 10.9538 -6.02192 -22.5
    endloop
  endfacet
  facet normal 0.951054 -0.309025 0
    outer loop
      vertex 11.6222 -4.60156 0
      vertex 12.1073 -3.10862 -22.5
      vertex 12.1073 -3.10862 0
    endloop
  endfacet
  facet normal 0.951054 -0.309025 0
    outer loop
      vertex 12.1073 -3.10862 -22.5
      vertex 11.6222 -4.60156 0
      vertex 11.6222 -4.60156 -22.5
    endloop
  endfacet
  facet normal 0.684548 -0.728968 0
    outer loop
      vertex 7.9678 -9.63142 -22.5
      vertex 9.11211 -8.55684 0
      vertex 7.9678 -9.63142 0
    endloop
  endfacet
  facet normal 0.684548 -0.728968 0
    outer loop
      vertex 9.11211 -8.55684 0
      vertex 7.9678 -9.63142 -22.5
      vertex 9.11211 -8.55684 -22.5
    endloop
  endfacet
  facet normal -0.2487 -0.96858 0
    outer loop
      vertex -3.86271 -11.8882 -22.5
      vertex -2.34227 -12.2786 0
      vertex -3.86271 -11.8882 0
    endloop
  endfacet
  facet normal -0.2487 -0.96858 -0
    outer loop
      vertex -2.34227 -12.2786 0
      vertex -3.86271 -11.8882 -22.5
      vertex -2.34227 -12.2786 -22.5
    endloop
  endfacet
  facet normal 0 0 -1
    outer loop
      vertex 1.8 0 -22.5
      vertex 12.5 0 -22.5
      vertex 12.4014 -1.56666 -22.5
    endloop
  endfacet
  facet normal 0 0 -1
    outer loop
      vertex 1.78581 -0.225599 -22.5
      vertex 12.4014 -1.56666 -22.5
      vertex 12.1073 -3.10862 -22.5
    endloop
  endfacet
  facet normal 0 0 -1
    outer loop
      vertex 12.5 0 -22.5
      vertex 1.8 0 -22.5
      vertex 12.4014 1.56666 -22.5
    endloop
  endfacet
  facet normal 0 0 -1
    outer loop
      vertex 1.74345 -0.447641 -22.5
      vertex 12.1073 -3.10862 -22.5
      vertex 11.6222 -4.60156 -22.5
    endloop
  endfacet
  facet normal 0 0 -1
    outer loop
      vertex 1.78581 0.225599 -22.5
      vertex 12.4014 1.56666 -22.5
      vertex 1.8 0 -22.5
    endloop
  endfacet
  facet normal 0 0 -1
    outer loop
      vertex 1.6736 -0.662623 -22.5
      vertex 11.6222 -4.60156 -22.5
      vertex 10.9538 -6.02192 -22.5
    endloop
  endfacet
  facet normal -0 0 -1
    outer loop
      vertex 12.4014 1.56666 -22.5
      vertex 1.78581 0.225599 -22.5
      vertex 12.1073 3.10862 -22.5
    endloop
  endfacet
  facet normal 0 0 -1
    outer loop
      vertex 1.57735 -0.867156 -22.5
      vertex 10.9538 -6.02192 -22.5
      vertex 10.1127 -7.34731 -22.5
    endloop
  endfacet
  facet normal 0 0 -1
    outer loop
      vertex 1.74345 0.447641 -22.5
      vertex 12.1073 3.10862 -22.5
      vertex 1.78581 0.225599 -22.5
    endloop
  endfacet
  facet normal 0 0 -1
    outer loop
      vertex 1.45623 -1.05801 -22.5
      vertex 10.1127 -7.34731 -22.5
      vertex 9.11211 -8.55684 -22.5
    endloop
  endfacet
  facet normal -0 0 -1
    outer loop
      vertex 12.1073 3.10862 -22.5
      vertex 1.74345 0.447641 -22.5
      vertex 11.6222 4.60156 -22.5
    endloop
  endfacet
  facet normal 0 0 -1
    outer loop
      vertex 1.31214 -1.23218 -22.5
      vertex 9.11211 -8.55684 -22.5
      vertex 7.9678 -9.63142 -22.5
    endloop
  endfacet
  facet normal 0 0 -1
    outer loop
      vertex 1.6736 0.662623 -22.5
      vertex 11.6222 4.60156 -22.5
      vertex 1.74345 0.447641 -22.5
    endloop
  endfacet
  facet normal 0 0 -1
    outer loop
      vertex 1.14736 -1.38692 -22.5
      vertex 7.9678 -9.63142 -22.5
      vertex 6.69783 -10.5541 -22.5
    endloop
  endfacet
  facet normal -0 0 -1
    outer loop
      vertex 11.6222 4.60156 -22.5
      vertex 1.6736 0.662623 -22.5
      vertex 10.9538 6.02192 -22.5
    endloop
  endfacet
  facet normal 0 0 -1
    outer loop
      vertex 0.964488 -1.51979 -22.5
      vertex 6.69783 -10.5541 -22.5
      vertex 5.32224 -11.3103 -22.5
    endloop
  endfacet
  facet normal 0 0 -1
    outer loop
      vertex 1.57735 0.867156 -22.5
      vertex 10.9538 6.02192 -22.5
      vertex 1.6736 0.662623 -22.5
    endloop
  endfacet
  facet normal 0 0 -1
    outer loop
      vertex 0.766402 -1.62869 -22.5
      vertex 5.32224 -11.3103 -22.5
      vertex 3.86271 -11.8882 -22.5
    endloop
  endfacet
  facet normal -0 0 -1
    outer loop
      vertex 10.9538 6.02192 -22.5
      vertex 1.57735 0.867156 -22.5
      vertex 10.1127 7.34731 -22.5
    endloop
  endfacet
  facet normal 0 0 -1
    outer loop
      vertex 0.556231 -1.7119 -22.5
      vertex 3.86271 -11.8882 -22.5
      vertex 2.34227 -12.2786 -22.5
    endloop
  endfacet
  facet normal 0 0 -1
    outer loop
      vertex 1.45623 1.05801 -22.5
      vertex 10.1127 7.34731 -22.5
      vertex 1.57735 0.867156 -22.5
    endloop
  endfacet
  facet normal -0 0 -1
    outer loop
      vertex 10.1127 7.34731 -22.5
      vertex 1.45623 1.05801 -22.5
      vertex 9.11211 8.55684 -22.5
    endloop
  endfacet
  facet normal 0 0 -1
    outer loop
      vertex 12.4014 -1.56666 -22.5
      vertex 1.78581 -0.225599 -22.5
      vertex 1.8 0 -22.5
    endloop
  endfacet
  facet normal 0 0 -1
    outer loop
      vertex 12.1073 -3.10862 -22.5
      vertex 1.74345 -0.447641 -22.5
      vertex 1.78581 -0.225599 -22.5
    endloop
  endfacet
  facet normal 0 0 -1
    outer loop
      vertex 11.6222 -4.60156 -22.5
      vertex 1.6736 -0.662623 -22.5
      vertex 1.74345 -0.447641 -22.5
    endloop
  endfacet
  facet normal 0 0 -1
    outer loop
      vertex 10.9538 -6.02192 -22.5
      vertex 1.57735 -0.867156 -22.5
      vertex 1.6736 -0.662623 -22.5
    endloop
  endfacet
  facet normal 0 0 -1
    outer loop
      vertex 10.1127 -7.34731 -22.5
      vertex 1.45623 -1.05801 -22.5
      vertex 1.57735 -0.867156 -22.5
    endloop
  endfacet
  facet normal 0 0 -1
    outer loop
      vertex 9.11211 -8.55684 -22.5
      vertex 1.31214 -1.23218 -22.5
      vertex 1.45623 -1.05801 -22.5
    endloop
  endfacet
  facet normal 0 0 -1
    outer loop
      vertex 7.9678 -9.63142 -22.5
      vertex 1.14736 -1.38692 -22.5
      vertex 1.31214 -1.23218 -22.5
    endloop
  endfacet
  facet normal 0 0 -1
    outer loop
      vertex 6.69783 -10.5541 -22.5
      vertex 0.964488 -1.51979 -22.5
      vertex 1.14736 -1.38692 -22.5
    endloop
  endfacet
  facet normal 0 0 -1
    outer loop
      vertex 0.337286 -1.76812 -22.5
      vertex 2.34227 -12.2786 -22.5
      vertex 0.784881 -12.4753 -22.5
    endloop
  endfacet
  facet normal 0 0 -1
    outer loop
      vertex 5.32224 -11.3103 -22.5
      vertex 0.766402 -1.62869 -22.5
      vertex 0.964488 -1.51979 -22.5
    endloop
  endfacet
  facet normal 0 0 -1
    outer loop
      vertex 3.86271 -11.8882 -22.5
      vertex 0.556231 -1.7119 -22.5
      vertex 0.766402 -1.62869 -22.5
    endloop
  endfacet
  facet normal 0 0 -1
    outer loop
      vertex 2.34227 -12.2786 -22.5
      vertex 0.337286 -1.76812 -22.5
      vertex 0.556231 -1.7119 -22.5
    endloop
  endfacet
  facet normal 0 0 -1
    outer loop
      vertex 0.784881 -12.4753 -22.5
      vertex 0.113023 -1.79645 -22.5
      vertex 0.337286 -1.76812 -22.5
    endloop
  endfacet
  facet normal 0 0 -1
    outer loop
      vertex 0.784881 -12.4753 -22.5
      vertex -0.113023 -1.79645 -22.5
      vertex 0.113023 -1.79645 -22.5
    endloop
  endfacet
  facet normal 0 0 -1
    outer loop
      vertex -0.784881 -12.4753 -22.5
      vertex -0.113023 -1.79645 -22.5
      vertex 0.784881 -12.4753 -22.5
    endloop
  endfacet
  facet normal -0 0 -1
    outer loop
      vertex -0.113023 -1.79645 -22.5
      vertex -0.784881 -12.4753 -22.5
      vertex -0.337286 -1.76812 -22.5
    endloop
  endfacet
  facet normal 0 0 -1
    outer loop
      vertex -2.34227 -12.2786 -22.5
      vertex -0.337286 -1.76812 -22.5
      vertex -0.784881 -12.4753 -22.5
    endloop
  endfacet
  facet normal -0 0 -1
    outer loop
      vertex -0.337286 -1.76812 -22.5
      vertex -2.34227 -12.2786 -22.5
      vertex -0.556231 -1.7119 -22.5
    endloop
  endfacet
  facet normal 0 0 -1
    outer loop
      vertex -3.86271 -11.8882 -22.5
      vertex -0.556231 -1.7119 -22.5
      vertex -2.34227 -12.2786 -22.5
    endloop
  endfacet
  facet normal -0 0 -1
    outer loop
      vertex -0.556231 -1.7119 -22.5
      vertex -3.86271 -11.8882 -22.5
      vertex -0.766402 -1.62869 -22.5
    endloop
  endfacet
  facet normal 0 0 -1
    outer loop
      vertex -5.32224 -11.3103 -22.5
      vertex -0.766402 -1.62869 -22.5
      vertex -3.86271 -11.8882 -22.5
    endloop
  endfacet
  facet normal -0 0 -1
    outer loop
      vertex -0.766402 -1.62869 -22.5
      vertex -5.32224 -11.3103 -22.5
      vertex -0.964488 -1.51979 -22.5
    endloop
  endfacet
  facet normal 0 0 -1
    outer loop
      vertex -6.69783 -10.5541 -22.5
      vertex -0.964488 -1.51979 -22.5
      vertex -5.32224 -11.3103 -22.5
    endloop
  endfacet
  facet normal -0 0 -1
    outer loop
      vertex -0.964488 -1.51979 -22.5
      vertex -6.69783 -10.5541 -22.5
      vertex -1.14736 -1.38692 -22.5
    endloop
  endfacet
  facet normal 0 0 -1
    outer loop
      vertex -7.9678 -9.63142 -22.5
      vertex -1.14736 -1.38692 -22.5
      vertex -6.69783 -10.5541 -22.5
    endloop
  endfacet
  facet normal -0 0 -1
    outer loop
      vertex -1.14736 -1.38692 -22.5
      vertex -7.9678 -9.63142 -22.5
      vertex -1.31214 -1.23218 -22.5
    endloop
  endfacet
  facet normal -0 0 -1
    outer loop
      vertex -1.31214 -1.23218 -22.5
      vertex -9.11211 -8.55684 -22.5
      vertex -1.45623 -1.05801 -22.5
    endloop
  endfacet
  facet normal 0 0 -1
    outer loop
      vertex -9.11211 -8.55684 -22.5
      vertex -1.31214 -1.23218 -22.5
      vertex -7.9678 -9.63142 -22.5
    endloop
  endfacet
  facet normal 0 0 -1
    outer loop
      vertex 1.31214 1.23218 -22.5
      vertex 9.11211 8.55684 -22.5
      vertex 1.45623 1.05801 -22.5
    endloop
  endfacet
  facet normal -0 0 -1
    outer loop
      vertex 9.11211 8.55684 -22.5
      vertex 1.31214 1.23218 -22.5
      vertex 7.9678 9.63142 -22.5
    endloop
  endfacet
  facet normal 0 0 -1
    outer loop
      vertex 1.14736 1.38692 -22.5
      vertex 7.9678 9.63142 -22.5
      vertex 1.31214 1.23218 -22.5
    endloop
  endfacet
  facet normal -0 0 -1
    outer loop
      vertex 7.9678 9.63142 -22.5
      vertex 1.14736 1.38692 -22.5
      vertex 6.69783 10.5541 -22.5
    endloop
  endfacet
  facet normal 0 0 -1
    outer loop
      vertex 0.964488 1.51979 -22.5
      vertex 6.69783 10.5541 -22.5
      vertex 1.14736 1.38692 -22.5
    endloop
  endfacet
  facet normal -0 0 -1
    outer loop
      vertex 6.69783 10.5541 -22.5
      vertex 0.964488 1.51979 -22.5
      vertex 5.32224 11.3103 -22.5
    endloop
  endfacet
  facet normal 0 0 -1
    outer loop
      vertex 0.766402 1.62869 -22.5
      vertex 5.32224 11.3103 -22.5
      vertex 0.964488 1.51979 -22.5
    endloop
  endfacet
  facet normal -0 0 -1
    outer loop
      vertex 5.32224 11.3103 -22.5
      vertex 0.766402 1.62869 -22.5
      vertex 3.86271 11.8882 -22.5
    endloop
  endfacet
  facet normal 0 0 -1
    outer loop
      vertex 0.556231 1.7119 -22.5
      vertex 3.86271 11.8882 -22.5
      vertex 0.766402 1.62869 -22.5
    endloop
  endfacet
  facet normal -0 0 -1
    outer loop
      vertex 3.86271 11.8882 -22.5
      vertex 0.556231 1.7119 -22.5
      vertex 2.34227 12.2786 -22.5
    endloop
  endfacet
  facet normal 0 0 -1
    outer loop
      vertex 0.337286 1.76812 -22.5
      vertex 2.34227 12.2786 -22.5
      vertex 0.556231 1.7119 -22.5
    endloop
  endfacet
  facet normal -0 0 -1
    outer loop
      vertex 2.34227 12.2786 -22.5
      vertex 0.337286 1.76812 -22.5
      vertex 0.784881 12.4753 -22.5
    endloop
  endfacet
  facet normal 0 0 -1
    outer loop
      vertex 0.113023 1.79645 -22.5
      vertex 0.784881 12.4753 -22.5
      vertex 0.337286 1.76812 -22.5
    endloop
  endfacet
  facet normal 0 0 -1
    outer loop
      vertex -0.113023 1.79645 -22.5
      vertex 0.784881 12.4753 -22.5
      vertex 0.113023 1.79645 -22.5
    endloop
  endfacet
  facet normal 0 0 -1
    outer loop
      vertex -0.784881 12.4753 -22.5
      vertex -0.113023 1.79645 -22.5
      vertex -0.337286 1.76812 -22.5
    endloop
  endfacet
  facet normal 0 0 -1
    outer loop
      vertex -2.34227 12.2786 -22.5
      vertex -0.337286 1.76812 -22.5
      vertex -0.556231 1.7119 -22.5
    endloop
  endfacet
  facet normal 0 0 -1
    outer loop
      vertex -3.86271 11.8882 -22.5
      vertex -0.556231 1.7119 -22.5
      vertex -0.766402 1.62869 -22.5
    endloop
  endfacet
  facet normal 0 0 -1
    outer loop
      vertex -0.113023 1.79645 -22.5
      vertex -0.784881 12.4753 -22.5
      vertex 0.784881 12.4753 -22.5
    endloop
  endfacet
  facet normal 0 0 -1
    outer loop
      vertex -5.32224 11.3103 -22.5
      vertex -0.766402 1.62869 -22.5
      vertex -0.964488 1.51979 -22.5
    endloop
  endfacet
  facet normal 0 0 -1
    outer loop
      vertex -6.69783 10.5541 -22.5
      vertex -0.964488 1.51979 -22.5
      vertex -1.14736 1.38692 -22.5
    endloop
  endfacet
  facet normal 0 0 -1
    outer loop
      vertex -7.9678 9.63142 -22.5
      vertex -1.14736 1.38692 -22.5
      vertex -1.31214 1.23218 -22.5
    endloop
  endfacet
  facet normal 0 0 -1
    outer loop
      vertex -9.11211 8.55684 -22.5
      vertex -1.31214 1.23218 -22.5
      vertex -1.45623 1.05801 -22.5
    endloop
  endfacet
  facet normal 0 0 -1
    outer loop
      vertex -10.1127 7.34731 -22.5
      vertex -1.45623 1.05801 -22.5
      vertex -1.57735 0.867156 -22.5
    endloop
  endfacet
  facet normal 0 0 -1
    outer loop
      vertex -10.9538 6.02192 -22.5
      vertex -1.57735 0.867156 -22.5
      vertex -1.6736 0.662623 -22.5
    endloop
  endfacet
  facet normal 0 0 -1
    outer loop
      vertex -11.6222 4.60156 -22.5
      vertex -1.6736 0.662623 -22.5
      vertex -1.74345 0.447641 -22.5
    endloop
  endfacet
  facet normal 0 0 -1
    outer loop
      vertex -12.1073 3.10862 -22.5
      vertex -1.74345 0.447641 -22.5
      vertex -1.78581 0.225599 -22.5
    endloop
  endfacet
  facet normal 0 0 -1
    outer loop
      vertex -0.337286 1.76812 -22.5
      vertex -2.34227 12.2786 -22.5
      vertex -0.784881 12.4753 -22.5
    endloop
  endfacet
  facet normal 0 0 -1
    outer loop
      vertex -12.4014 1.56666 -22.5
      vertex -1.78581 0.225599 -22.5
      vertex -1.8 0 -22.5
    endloop
  endfacet
  facet normal 0 0 -1
    outer loop
      vertex -10.1127 -7.34731 -22.5
      vertex -1.45623 -1.05801 -22.5
      vertex -9.11211 -8.55684 -22.5
    endloop
  endfacet
  facet normal -0 0 -1
    outer loop
      vertex -1.45623 -1.05801 -22.5
      vertex -10.1127 -7.34731 -22.5
      vertex -1.57735 -0.867156 -22.5
    endloop
  endfacet
  facet normal 0 0 -1
    outer loop
      vertex -0.556231 1.7119 -22.5
      vertex -3.86271 11.8882 -22.5
      vertex -2.34227 12.2786 -22.5
    endloop
  endfacet
  facet normal 0 0 -1
    outer loop
      vertex -10.9538 -6.02192 -22.5
      vertex -1.57735 -0.867156 -22.5
      vertex -10.1127 -7.34731 -22.5
    endloop
  endfacet
  facet normal 0 0 -1
    outer loop
      vertex -0.766402 1.62869 -22.5
      vertex -5.32224 11.3103 -22.5
      vertex -3.86271 11.8882 -22.5
    endloop
  endfacet
  facet normal -0 0 -1
    outer loop
      vertex -1.57735 -0.867156 -22.5
      vertex -10.9538 -6.02192 -22.5
      vertex -1.6736 -0.662623 -22.5
    endloop
  endfacet
  facet normal 0 0 -1
    outer loop
      vertex -0.964488 1.51979 -22.5
      vertex -6.69783 10.5541 -22.5
      vertex -5.32224 11.3103 -22.5
    endloop
  endfacet
  facet normal 0 0 -1
    outer loop
      vertex -11.6222 -4.60156 -22.5
      vertex -1.6736 -0.662623 -22.5
      vertex -10.9538 -6.02192 -22.5
    endloop
  endfacet
  facet normal 0 0 -1
    outer loop
      vertex -1.14736 1.38692 -22.5
      vertex -7.9678 9.63142 -22.5
      vertex -6.69783 10.5541 -22.5
    endloop
  endfacet
  facet normal -0 0 -1
    outer loop
      vertex -1.6736 -0.662623 -22.5
      vertex -11.6222 -4.60156 -22.5
      vertex -1.74345 -0.447641 -22.5
    endloop
  endfacet
  facet normal 0 0 -1
    outer loop
      vertex -1.31214 1.23218 -22.5
      vertex -9.11211 8.55684 -22.5
      vertex -7.9678 9.63142 -22.5
    endloop
  endfacet
  facet normal 0 0 -1
    outer loop
      vertex -12.1073 -3.10862 -22.5
      vertex -1.74345 -0.447641 -22.5
      vertex -11.6222 -4.60156 -22.5
    endloop
  endfacet
  facet normal 0 0 -1
    outer loop
      vertex -1.45623 1.05801 -22.5
      vertex -10.1127 7.34731 -22.5
      vertex -9.11211 8.55684 -22.5
    endloop
  endfacet
  facet normal -0 0 -1
    outer loop
      vertex -1.74345 -0.447641 -22.5
      vertex -12.1073 -3.10862 -22.5
      vertex -1.78581 -0.225599 -22.5
    endloop
  endfacet
  facet normal 0 0 -1
    outer loop
      vertex -1.57735 0.867156 -22.5
      vertex -10.9538 6.02192 -22.5
      vertex -10.1127 7.34731 -22.5
    endloop
  endfacet
  facet normal 0 0 -1
    outer loop
      vertex -12.4014 -1.56666 -22.5
      vertex -1.78581 -0.225599 -22.5
      vertex -12.1073 -3.10862 -22.5
    endloop
  endfacet
  facet normal 0 0 -1
    outer loop
      vertex -1.6736 0.662623 -22.5
      vertex -11.6222 4.60156 -22.5
      vertex -10.9538 6.02192 -22.5
    endloop
  endfacet
  facet normal -0 0 -1
    outer loop
      vertex -1.78581 -0.225599 -22.5
      vertex -12.4014 -1.56666 -22.5
      vertex -1.8 0 -22.5
    endloop
  endfacet
  facet normal 0 0 -1
    outer loop
      vertex -1.74345 0.447641 -22.5
      vertex -12.1073 3.10862 -22.5
      vertex -11.6222 4.60156 -22.5
    endloop
  endfacet
  facet normal 0 0 -1
    outer loop
      vertex -12.5 0 -22.5
      vertex -1.8 0 -22.5
      vertex -12.4014 -1.56666 -22.5
    endloop
  endfacet
  facet normal 0 0 -1
    outer loop
      vertex -1.78581 0.225599 -22.5
      vertex -12.4014 1.56666 -22.5
      vertex -12.1073 3.10862 -22.5
    endloop
  endfacet
  facet normal 0 0 -1
    outer loop
      vertex -1.8 0 -22.5
      vertex -12.5 0 -22.5
      vertex -12.4014 1.56666 -22.5
    endloop
  endfacet
  facet normal 0.368142 -0.92977 0
    outer loop
      vertex 3.86271 -11.8882 -22.5
      vertex 5.32224 -11.3103 0
      vertex 3.86271 -11.8882 0
    endloop
  endfacet
  facet normal 0.368142 -0.92977 0
    outer loop
      vertex 5.32224 -11.3103 0
      vertex 3.86271 -11.8882 -22.5
      vertex 5.32224 -11.3103 -22.5
    endloop
  endfacet
  facet normal 0.2487 -0.96858 0
    outer loop
      vertex 2.34227 -12.2786 -22.5
      vertex 3.86271 -11.8882 0
      vertex 2.34227 -12.2786 0
    endloop
  endfacet
  facet normal 0.2487 -0.96858 0
    outer loop
      vertex 3.86271 -11.8882 0
      vertex 2.34227 -12.2786 -22.5
      vertex 3.86271 -11.8882 -22.5
    endloop
  endfacet
  facet normal 0.587782 -0.809019 0
    outer loop
      vertex 6.69783 -10.5541 -22.5
      vertex 7.9678 -9.63142 0
      vertex 6.69783 -10.5541 0
    endloop
  endfacet
  facet normal 0.587782 -0.809019 0
    outer loop
      vertex 7.9678 -9.63142 0
      vertex 6.69783 -10.5541 -22.5
      vertex 7.9678 -9.63142 -22.5
    endloop
  endfacet
  facet normal 0.481736 -0.876317 0
    outer loop
      vertex 5.32224 -11.3103 -22.5
      vertex 6.69783 -10.5541 0
      vertex 5.32224 -11.3103 0
    endloop
  endfacet
  facet normal 0.481736 -0.876317 0
    outer loop
      vertex 6.69783 -10.5541 0
      vertex 5.32224 -11.3103 -22.5
      vertex 6.69783 -10.5541 -22.5
    endloop
  endfacet
  facet normal 0.844333 -0.535819 0
    outer loop
      vertex 10.1127 -7.34731 0
      vertex 10.9538 -6.02192 -22.5
      vertex 10.9538 -6.02192 0
    endloop
  endfacet
  facet normal 0.844333 -0.535819 0
    outer loop
      vertex 10.9538 -6.02192 -22.5
      vertex 10.1127 -7.34731 0
      vertex 10.1127 -7.34731 -22.5
    endloop
  endfacet
  facet normal 0.77052 -0.637416 0
    outer loop
      vertex 9.11211 -8.55684 0
      vertex 10.1127 -7.34731 -22.5
      vertex 10.1127 -7.34731 0
    endloop
  endfacet
  facet normal 0.77052 -0.637416 0
    outer loop
      vertex 10.1127 -7.34731 -22.5
      vertex 9.11211 -8.55684 0
      vertex 9.11211 -8.55684 -22.5
    endloop
  endfacet
  facet normal -0.368142 -0.92977 0
    outer loop
      vertex -5.32224 -11.3103 -22.5
      vertex -3.86271 -11.8882 0
      vertex -5.32224 -11.3103 0
    endloop
  endfacet
  facet normal -0.368142 -0.92977 -0
    outer loop
      vertex -3.86271 -11.8882 0
      vertex -5.32224 -11.3103 -22.5
      vertex -3.86271 -11.8882 -22.5
    endloop
  endfacet
  facet normal -0.125306 -0.992118 0
    outer loop
      vertex -2.34227 -12.2786 -22.5
      vertex -0.784881 -12.4753 0
      vertex -2.34227 -12.2786 0
    endloop
  endfacet
  facet normal -0.125306 -0.992118 -0
    outer loop
      vertex -0.784881 -12.4753 0
      vertex -2.34227 -12.2786 -22.5
      vertex -0.784881 -12.4753 -22.5
    endloop
  endfacet
  facet normal -0.77052 -0.637416 0
    outer loop
      vertex -9.11211 -8.55684 -22.5
      vertex -10.1127 -7.34731 0
      vertex -10.1127 -7.34731 -22.5
    endloop
  endfacet
  facet normal -0.77052 -0.637416 0
    outer loop
      vertex -10.1127 -7.34731 0
      vertex -9.11211 -8.55684 -22.5
      vertex -9.11211 -8.55684 0
    endloop
  endfacet
  facet normal -0.684548 -0.728968 0
    outer loop
      vertex -9.11211 -8.55684 -22.5
      vertex -7.9678 -9.63142 0
      vertex -9.11211 -8.55684 0
    endloop
  endfacet
  facet normal -0.684548 -0.728968 -0
    outer loop
      vertex -7.9678 -9.63142 0
      vertex -9.11211 -8.55684 -22.5
      vertex -7.9678 -9.63142 -22.5
    endloop
  endfacet
  facet normal -0.982292 -0.187354 0
    outer loop
      vertex -12.1073 -3.10862 -22.5
      vertex -12.4014 -1.56666 0
      vertex -12.4014 -1.56666 -22.5
    endloop
  endfacet
  facet normal -0.982292 -0.187354 0
    outer loop
      vertex -12.4014 -1.56666 0
      vertex -12.1073 -3.10862 -22.5
      vertex -12.1073 -3.10862 0
    endloop
  endfacet
  facet normal -0.998025 -0.0628122 0
    outer loop
      vertex -12.4014 -1.56666 -22.5
      vertex -12.5 0 0
      vertex -12.5 0 -22.5
    endloop
  endfacet
  facet normal -0.998025 -0.0628122 0
    outer loop
      vertex -12.5 0 0
      vertex -12.4014 -1.56666 -22.5
      vertex -12.4014 -1.56666 0
    endloop
  endfacet
  facet normal -0.844333 -0.535819 0
    outer loop
      vertex -10.1127 -7.34731 -22.5
      vertex -10.9538 -6.02192 0
      vertex -10.9538 -6.02192 -22.5
    endloop
  endfacet
  facet normal -0.844333 -0.535819 0
    outer loop
      vertex -10.9538 -6.02192 0
      vertex -10.1127 -7.34731 -22.5
      vertex -10.1127 -7.34731 0
    endloop
  endfacet
  facet normal -0.481736 -0.876317 0
    outer loop
      vertex -6.69783 -10.5541 -22.5
      vertex -5.32224 -11.3103 0
      vertex -6.69783 -10.5541 0
    endloop
  endfacet
  facet normal -0.481736 -0.876317 -0
    outer loop
      vertex -5.32224 -11.3103 0
      vertex -6.69783 -10.5541 -22.5
      vertex -5.32224 -11.3103 -22.5
    endloop
  endfacet
  facet normal -0.587782 -0.809019 0
    outer loop
      vertex -7.9678 -9.63142 -22.5
      vertex -6.69783 -10.5541 0
      vertex -7.9678 -9.63142 0
    endloop
  endfacet
  facet normal -0.587782 -0.809019 -0
    outer loop
      vertex -6.69783 -10.5541 0
      vertex -7.9678 -9.63142 -22.5
      vertex -6.69783 -10.5541 -22.5
    endloop
  endfacet
endsolid OpenSCAD_Model
