solid OpenSCAD_Model
  facet normal 0 0 1
    outer loop
      vertex -2.134900003671646 -3.6977552697062492 -3.2
      vertex -2.091997093248566 -0.8282802435405252 -3.2
      vertex -4.269799999892712 0 -3.2
    endloop
  endfacet
  facet normal 0 0 1
    outer loop
      vertex -2.17931211253942 -0.5595522461209235 -3.2
      vertex -4.269799999892712 0 -3.2
      vertex -2.091997093248566 -0.8282802435405252 -3.2
    endloop
  endfacet
  facet normal 0 0 1
    outer loop
      vertex -2.17931211253942 -0.5595522461209235 -3.2
      vertex -2.2322580779575754 -0.28199977551968414 -3.2
      vertex -4.269799999892712 0 -3.2
    endloop
  endfacet
  facet normal 0 0 1
    outer loop
      vertex -2.2322580779575754 -0.28199977551968414 -3.2
      vertex -2.25 0 -3.2
      vertex -4.269799999892712 0 -3.2
    endloop
  endfacet
  facet normal 0 0 1
    outer loop
      vertex -2.134900003671646 -3.6977552697062492 -3.2
      vertex -1.6401794116981763 -1.540230988339549 -3.2
      vertex -1.8202882373436318 -1.3225168176580646 -3.2
    endloop
  endfacet
  facet normal 0 0 1
    outer loop
      vertex -2.134900003671646 -3.6977552697062492 -3.2
      vertex -0.958003406021413 -2.035860868048544 -3.2
      vertex -1.2056102887027427 -1.8997378323795338 -3.2
    endloop
  endfacet
  facet normal 0 0 1
    outer loop
      vertex -2.134900003671646 -3.6977552697062492 -3.2
      vertex -1.4342039769345516 -1.733654796245526 -3.2
      vertex -1.6401794116981763 -1.540230988339549 -3.2
    endloop
  endfacet
  facet normal 0 0 1
    outer loop
      vertex -2.134900003671646 -3.6977552697062492 -3.2
      vertex -1.2056102887027427 -1.8997378323795338 -3.2
      vertex -1.4342039769345516 -1.733654796245526 -3.2
    endloop
  endfacet
  facet normal 0 0 1
    outer loop
      vertex -2.134900003671646 -3.6977552697062492 -3.2
      vertex -1.8202882373436318 -1.3225168176580646 -3.2
      vertex -1.9716900300986928 -1.0839457667288597 -3.2
    endloop
  endfacet
  facet normal 0 0 1
    outer loop
      vertex -2.134900003671646 -3.6977552697062492 -3.2
      vertex -1.9716900300986928 -1.0839457667288597 -3.2
      vertex -2.091997093248566 -0.8282802435405252 -3.2
    endloop
  endfacet
  facet normal 0 0 1
    outer loop
      vertex -2.134900003671646 -3.6977552697062492 -3.2
      vertex -0.6952882373436317 -2.1398771616640953 -3.2
      vertex -0.958003406021413 -2.035860868048544 -3.2
    endloop
  endfacet
  facet normal 0 0 1
    outer loop
      vertex -2.134900003671646 -3.6977552697062492 -3.2
      vertex -0.42160795781788085 -2.2101463141395494 -3.2
      vertex -0.6952882373436317 -2.1398771616640953 -3.2
    endloop
  endfacet
  facet normal 0 0 1
    outer loop
      vertex -2.134900003671646 -3.6977552697062492 -3.2
      vertex -0.14127866894095598 -2.245560138963611 -3.2
      vertex -0.42160795781788085 -2.2101463141395494 -3.2
    endloop
  endfacet
  facet normal 0 0 1
    outer loop
      vertex -2.134900003671646 -3.6977552697062492 -3.2
      vertex 0.14127866894095598 -2.245560138963611 -3.2
      vertex -0.14127866894095598 -2.245560138963611 -3.2
    endloop
  endfacet
  facet normal 0 0 1
    outer loop
      vertex -2.134900003671646 -3.6977552697062492 -3.2
      vertex 0.42160795781788085 -2.2101463141395494 -3.2
      vertex 0.14127866894095598 -2.245560138963611 -3.2
    endloop
  endfacet
  facet normal 0.866025404204409 0.4999999992725898 0
    outer loop
      vertex -2.134900003671646 -3.6977552697062492 -3.2
      vertex -4.269799999892712 0 -3.2
      vertex -4.269799999892712 0 0
    endloop
  endfacet
  facet normal 0 1 0
    outer loop
      vertex -2.134900003671646 -3.6977552697062492 -3.2
      vertex -2.134900003671646 -3.6977552697062492 0
      vertex 2.134900003671646 -3.6977552697062492 -3.2
    endloop
  endfacet
  facet normal 0.866025404204409 0.4999999992725898 0
    outer loop
      vertex -2.134900003671646 -3.6977552697062492 -3.2
      vertex -4.269799999892712 0 0
      vertex -2.134900003671646 -3.6977552697062492 0
    endloop
  endfacet
  facet normal 0 0 1
    outer loop
      vertex -4.269799999892712 0 -3.2
      vertex -2.25 0 -3.2
      vertex -2.2322580779575754 0.28199977551968414 -3.2
    endloop
  endfacet
  facet normal 0 0 1
    outer loop
      vertex -4.269799999892712 0 -3.2
      vertex -2.2322580779575754 0.28199977551968414 -3.2
      vertex -2.17931211253942 0.5595522461209235 -3.2
    endloop
  endfacet
  facet normal 0 0 1
    outer loop
      vertex -4.269799999892712 0 -3.2
      vertex -2.17931211253942 0.5595522461209235 -3.2
      vertex -2.134900003671646 3.6977552697062492 -3.2
    endloop
  endfacet
  facet normal 0 0 1
    outer loop
      vertex -2.17931211253942 0.5595522461209235 -3.2
      vertex -2.091997093248566 0.8282802435405252 -3.2
      vertex -2.134900003671646 3.6977552697062492 -3.2
    endloop
  endfacet
  facet normal 0 0 1
    outer loop
      vertex -2.134900003671646 3.6977552697062492 -3.2
      vertex -2.091997093248566 0.8282802435405252 -3.2
      vertex -1.9716900300986928 1.0839457667288597 -3.2
    endloop
  endfacet
  facet normal 0 0 1
    outer loop
      vertex -2.134900003671646 3.6977552697062492 -3.2
      vertex -1.9716900300986928 1.0839457667288597 -3.2
      vertex -1.8202882373436318 1.3225168176580646 -3.2
    endloop
  endfacet
  facet normal 0 0 1
    outer loop
      vertex -2.134900003671646 3.6977552697062492 -3.2
      vertex -1.8202882373436318 1.3225168176580646 -3.2
      vertex -1.6401794116981763 1.540230988339549 -3.2
    endloop
  endfacet
  facet normal 0 0 1
    outer loop
      vertex -2.134900003671646 3.6977552697062492 -3.2
      vertex -1.6401794116981763 1.540230988339549 -3.2
      vertex -1.4342039769345516 1.733654796245526 -3.2
    endloop
  endfacet
  facet normal 0 0 1
    outer loop
      vertex -2.134900003671646 3.6977552697062492 -3.2
      vertex -1.4342039769345516 1.733654796245526 -3.2
      vertex -1.2056102887027427 1.8997378323795338 -3.2
    endloop
  endfacet
  facet normal 0 0 1
    outer loop
      vertex -2.134900003671646 3.6977552697062492 -3.2
      vertex -1.2056102887027427 1.8997378323795338 -3.2
      vertex -0.9580034060214137 2.0358608680485437 -3.2
    endloop
  endfacet
  facet normal 0 0 1
    outer loop
      vertex -2.134900003671646 3.6977552697062492 -3.2
      vertex -0.9580034060214137 2.0358608680485437 -3.2
      vertex -0.6952882373436317 2.1398771616640953 -3.2
    endloop
  endfacet
  facet normal 0 0 1
    outer loop
      vertex -2.134900003671646 3.6977552697062492 -3.2
      vertex -0.6952882373436317 2.1398771616640953 -3.2
      vertex -0.4216079578178803 2.2101463141395494 -3.2
    endloop
  endfacet
  facet normal 0 0 1
    outer loop
      vertex -2.134900003671646 3.6977552697062492 -3.2
      vertex -0.4216079578178803 2.2101463141395494 -3.2
      vertex 2.134900003671646 3.6977552697062492 -3.2
    endloop
  endfacet
  facet normal 0.866025404204409 -0.4999999992725898 0
    outer loop
      vertex -4.269799999892712 0 -3.2
      vertex -2.134900003671646 3.6977552697062492 -3.2
      vertex -2.134900003671646 3.6977552697062492 0
    endloop
  endfacet
  facet normal 0.866025404204409 -0.4999999992725898 0
    outer loop
      vertex -4.269799999892712 0 -3.2
      vertex -2.134900003671646 3.6977552697062492 0
      vertex -4.269799999892712 0 0
    endloop
  endfacet
  facet normal 0 -1 0
    outer loop
      vertex -2.134900003671646 3.6977552697062492 -3.2
      vertex 2.134900003671646 3.6977552697062492 0
      vertex -2.134900003671646 3.6977552697062492 0
    endloop
  endfacet
  facet normal 0 0 1
    outer loop
      vertex -2.134900003671646 -3.6977552697062492 -3.2
      vertex 2.134900003671646 -3.6977552697062492 -3.2
      vertex 0.42160795781788085 -2.2101463141395494 -3.2
    endloop
  endfacet
  facet normal 0 0 1
    outer loop
      vertex 0.42160795781788085 -2.2101463141395494 -3.2
      vertex 2.134900003671646 -3.6977552697062492 -3.2
      vertex 0.6952882373436317 -2.1398771616640953 -3.2
    endloop
  endfacet
  facet normal 0 0 1
    outer loop
      vertex 0.6952882373436317 -2.1398771616640953 -3.2
      vertex 2.134900003671646 -3.6977552697062492 -3.2
      vertex 0.958003406021413 -2.035860868048544 -3.2
    endloop
  endfacet
  facet normal 0 0 1
    outer loop
      vertex 0.958003406021413 -2.035860868048544 -3.2
      vertex 2.134900003671646 -3.6977552697062492 -3.2
      vertex 1.2056102887027416 -1.8997378323795344 -3.2
    endloop
  endfacet
  facet normal 0 0 1
    outer loop
      vertex 1.2056102887027416 -1.8997378323795344 -3.2
      vertex 2.134900003671646 -3.6977552697062492 -3.2
      vertex 1.4342039769345525 -1.7336547962455253 -3.2
    endloop
  endfacet
  facet normal 0 0 1
    outer loop
      vertex 1.4342039769345525 -1.7336547962455253 -3.2
      vertex 2.134900003671646 -3.6977552697062492 -3.2
      vertex 1.6401794116981763 -1.540230988339549 -3.2
    endloop
  endfacet
  facet normal 0 0 1
    outer loop
      vertex 1.6401794116981763 -1.540230988339549 -3.2
      vertex 2.134900003671646 -3.6977552697062492 -3.2
      vertex 1.8202882373436318 -1.3225168176580646 -3.2
    endloop
  endfacet
  facet normal 0 0 1
    outer loop
      vertex 1.8202882373436318 -1.3225168176580646 -3.2
      vertex 2.134900003671646 -3.6977552697062492 -3.2
      vertex 1.9716900300986928 -1.0839457667288597 -3.2
    endloop
  endfacet
  facet normal 0 0 1
    outer loop
      vertex 1.9716900300986928 -1.0839457667288597 -3.2
      vertex 2.134900003671646 -3.6977552697062492 -3.2
      vertex 2.0919970932485654 -0.8282802435405263 -3.2
    endloop
  endfacet
  facet normal 0 0 1
    outer loop
      vertex 2.0919970932485654 -0.8282802435405263 -3.2
      vertex 2.134900003671646 -3.6977552697062492 -3.2
      vertex 2.1793121125394204 -0.5595522461209225 -3.2
    endloop
  endfacet
  facet normal 0 0 1
    outer loop
      vertex 2.134900003671646 -3.6977552697062492 -3.2
      vertex 4.269799999892712 0 -3.2
      vertex 2.1793121125394204 -0.5595522461209225 -3.2
    endloop
  endfacet
  facet normal 0 0 1
    outer loop
      vertex 2.1793121125394204 -0.5595522461209225 -3.2
      vertex 4.269799999892712 0 -3.2
      vertex 2.2322580779575754 -0.28199977551968414 -3.2
    endloop
  endfacet
  facet normal 0 0 1
    outer loop
      vertex 2.2322580779575754 -0.28199977551968414 -3.2
      vertex 4.269799999892712 0 -3.2
      vertex 2.25 0 -3.2
    endloop
  endfacet
  facet normal -0.866025404204409 0.4999999992725898 0
    outer loop
      vertex 2.134900003671646 -3.6977552697062492 -3.2
      vertex 2.134900003671646 -3.6977552697062492 0
      vertex 4.269799999892712 0 -3.2
    endloop
  endfacet
  facet normal 0 1 0
    outer loop
      vertex 2.134900003671646 -3.6977552697062492 -3.2
      vertex -2.134900003671646 -3.6977552697062492 0
      vertex 2.134900003671646 -3.6977552697062492 0
    endloop
  endfacet
  facet normal -0.866025404204409 0.4999999992725898 0
    outer loop
      vertex 4.269799999892712 0 -3.2
      vertex 2.134900003671646 -3.6977552697062492 0
      vertex 4.269799999892712 0 0
    endloop
  endfacet
  facet normal 0 0 1
    outer loop
      vertex -0.4216079578178803 2.2101463141395494 -3.2
      vertex -0.14127866894095487 2.245560138963611 -3.2
      vertex 2.134900003671646 3.6977552697062492 -3.2
    endloop
  endfacet
  facet normal 0 0 1
    outer loop
      vertex -0.14127866894095487 2.245560138963611 -3.2
      vertex 0.14127866894095487 2.245560138963611 -3.2
      vertex 2.134900003671646 3.6977552697062492 -3.2
    endloop
  endfacet
  facet normal 0 0 1
    outer loop
      vertex 0.14127866894095487 2.245560138963611 -3.2
      vertex 0.4216079578178803 2.2101463141395494 -3.2
      vertex 2.134900003671646 3.6977552697062492 -3.2
    endloop
  endfacet
  facet normal 0 0 1
    outer loop
      vertex 0.4216079578178803 2.2101463141395494 -3.2
      vertex 0.6952882373436317 2.1398771616640953 -3.2
      vertex 2.134900003671646 3.6977552697062492 -3.2
    endloop
  endfacet
  facet normal 0 0 1
    outer loop
      vertex 0.6952882373436317 2.1398771616640953 -3.2
      vertex 0.9580034060214137 2.0358608680485437 -3.2
      vertex 2.134900003671646 3.6977552697062492 -3.2
    endloop
  endfacet
  facet normal 0 0 1
    outer loop
      vertex 2.0919970932485654 0.8282802435405254 -3.2
      vertex 2.134900003671646 3.6977552697062492 -3.2
      vertex 1.971690030098693 1.0839457667288595 -3.2
    endloop
  endfacet
  facet normal 0 0 1
    outer loop
      vertex 1.8202882373436318 1.3225168176580646 -3.2
      vertex 1.971690030098693 1.0839457667288595 -3.2
      vertex 2.134900003671646 3.6977552697062492 -3.2
    endloop
  endfacet
  facet normal 0 0 1
    outer loop
      vertex 1.434203976934552 1.7336547962455255 -3.2
      vertex 2.134900003671646 3.6977552697062492 -3.2
      vertex 1.2056102887027424 1.899737832379534 -3.2
    endloop
  endfacet
  facet normal 0 0 1
    outer loop
      vertex 1.434203976934552 1.7336547962455255 -3.2
      vertex 1.640179411698176 1.5402309883395495 -3.2
      vertex 2.134900003671646 3.6977552697062492 -3.2
    endloop
  endfacet
  facet normal 0 0 1
    outer loop
      vertex 0.9580034060214137 2.0358608680485437 -3.2
      vertex 1.2056102887027424 1.899737832379534 -3.2
      vertex 2.134900003671646 3.6977552697062492 -3.2
    endloop
  endfacet
  facet normal 0 0 1
    outer loop
      vertex 1.8202882373436318 1.3225168176580646 -3.2
      vertex 2.134900003671646 3.6977552697062492 -3.2
      vertex 1.640179411698176 1.5402309883395495 -3.2
    endloop
  endfacet
  facet normal 0 0 1
    outer loop
      vertex 2.25 0 -3.2
      vertex 4.269799999892712 0 -3.2
      vertex 2.2322580779575754 0.2819997755196846 -3.2
    endloop
  endfacet
  facet normal 0 0 1
    outer loop
      vertex 2.2322580779575754 0.2819997755196846 -3.2
      vertex 4.269799999892712 0 -3.2
      vertex 2.17931211253942 0.5595522461209232 -3.2
    endloop
  endfacet
  facet normal 0 0 1
    outer loop
      vertex 2.0919970932485654 0.8282802435405254 -3.2
      vertex 2.17931211253942 0.5595522461209232 -3.2
      vertex 4.269799999892712 0 -3.2
    endloop
  endfacet
  facet normal 0 0 1
    outer loop
      vertex 2.0919970932485654 0.8282802435405254 -3.2
      vertex 4.269799999892712 0 -3.2
      vertex 2.134900003671646 3.6977552697062492 -3.2
    endloop
  endfacet
  facet normal 0 -1 0
    outer loop
      vertex -2.134900003671646 3.6977552697062492 -3.2
      vertex 2.134900003671646 3.6977552697062492 -3.2
      vertex 2.134900003671646 3.6977552697062492 0
    endloop
  endfacet
  facet normal -0.866025404204409 -0.4999999992725898 0
    outer loop
      vertex 4.269799999892712 0 -3.2
      vertex 4.269799999892712 0 0
      vertex 2.134900003671646 3.6977552697062492 -3.2
    endloop
  endfacet
  facet normal -0.866025404204409 -0.4999999992725898 0
    outer loop
      vertex 2.134900003671646 3.6977552697062492 -3.2
      vertex 4.269799999892712 0 0
      vertex 2.134900003671646 3.6977552697062492 0
    endloop
  endfacet
  facet normal 0.6845471059286888 0.7289686274214114 0
    outer loop
      vertex -1.6401794116981763 -1.540230988339549 -3.2
      vertex -1.4342039769345516 -1.733654796245526 -5
      vertex -1.6401794116981763 -1.540230988339549 -5
    endloop
  endfacet
  facet normal 0.9510565162951539 0.3090169943749469 0
    outer loop
      vertex -2.17931211253942 -0.5595522461209235 -3.2
      vertex -2.091997093248566 -0.8282802435405252 -5
      vertex -2.17931211253942 -0.5595522461209235 -5
    endloop
  endfacet
  facet normal 0.9822872507286885 0.18738131458572535 0
    outer loop
      vertex -2.2322580779575754 -0.28199977551968414 -3.2
      vertex -2.17931211253942 -0.5595522461209235 -5
      vertex -2.2322580779575754 -0.28199977551968414 -5
    endloop
  endfacet
  facet normal 0.9980267284282717 0.06279051952931264 0
    outer loop
      vertex -2.25 0 -3.2
      vertex -2.2322580779575754 -0.28199977551968414 -5
      vertex -2.25 0 -5
    endloop
  endfacet
  facet normal 0.770513242775789 0.6374239897486901 0
    outer loop
      vertex -1.8202882373436318 -1.3225168176580646 -3.2
      vertex -1.6401794116981763 -1.540230988339549 -5
      vertex -1.8202882373436318 -1.3225168176580646 -5
    endloop
  endfacet
  facet normal 0.8443279255020153 0.5358267949789962 0
    outer loop
      vertex -1.9716900300986928 -1.0839457667288597 -3.2
      vertex -1.8202882373436318 -1.3225168176580646 -5
      vertex -1.9716900300986928 -1.0839457667288597 -5
    endloop
  endfacet
  facet normal 0.9048270524660192 0.4257792915650733 0
    outer loop
      vertex -2.091997093248566 -0.8282802435405252 -3.2
      vertex -1.9716900300986928 -1.0839457667288597 -5
      vertex -2.091997093248566 -0.8282802435405252 -5
    endloop
  endfacet
  facet normal 0.5877852522924731 0.8090169943749475 0
    outer loop
      vertex -1.4342039769345516 -1.733654796245526 -3.2
      vertex -1.2056102887027427 -1.8997378323795338 -5
      vertex -1.4342039769345516 -1.733654796245526 -5
    endloop
  endfacet
  facet normal 0.4817536741017152 0.8763066800438636 0
    outer loop
      vertex -1.2056102887027427 -1.8997378323795338 -3.2
      vertex -0.958003406021413 -2.035860868048544 -5
      vertex -1.2056102887027427 -1.8997378323795338 -5
    endloop
  endfacet
  facet normal 0.368124552684677 0.9297764858882519 0
    outer loop
      vertex -0.958003406021413 -2.035860868048544 -3.2
      vertex -0.6952882373436317 -2.1398771616640953 -5
      vertex -0.958003406021413 -2.035860868048544 -5
    endloop
  endfacet
  facet normal 0.2486898871648558 0.9685831611286309 0
    outer loop
      vertex -0.6952882373436317 -2.1398771616640953 -3.2
      vertex -0.42160795781788085 -2.2101463141395494 -5
      vertex -0.6952882373436317 -2.1398771616640953 -5
    endloop
  endfacet
  facet normal 0.12533323356430498 0.9921147013144779 0
    outer loop
      vertex -0.42160795781788085 -2.2101463141395494 -3.2
      vertex -0.14127866894095598 -2.245560138963611 -5
      vertex -0.42160795781788085 -2.2101463141395494 -5
    endloop
  endfacet
  facet normal 0 1 0
    outer loop
      vertex -0.14127866894095598 -2.245560138963611 -3.2
      vertex 0.14127866894095598 -2.245560138963611 -5
      vertex -0.14127866894095598 -2.245560138963611 -5
    endloop
  endfacet
  facet normal 0.770513242775789 0.6374239897486901 0
    outer loop
      vertex -1.6401794116981763 -1.540230988339549 -3.2
      vertex -1.6401794116981763 -1.540230988339549 -5
      vertex -1.8202882373436318 -1.3225168176580646 -3.2
    endloop
  endfacet
  facet normal 0.6845471059286888 0.7289686274214114 0
    outer loop
      vertex -1.6401794116981763 -1.540230988339549 -3.2
      vertex -1.4342039769345516 -1.733654796245526 -3.2
      vertex -1.4342039769345516 -1.733654796245526 -5
    endloop
  endfacet
  facet normal 0.9510565162951539 0.3090169943749469 0
    outer loop
      vertex -2.17931211253942 -0.5595522461209235 -3.2
      vertex -2.091997093248566 -0.8282802435405252 -3.2
      vertex -2.091997093248566 -0.8282802435405252 -5
    endloop
  endfacet
  facet normal 0.9822872507286885 0.18738131458572535 0
    outer loop
      vertex -2.17931211253942 -0.5595522461209235 -3.2
      vertex -2.17931211253942 -0.5595522461209235 -5
      vertex -2.2322580779575754 -0.28199977551968414 -3.2
    endloop
  endfacet
  facet normal 0.9980267284282717 0.06279051952931264 0
    outer loop
      vertex -2.2322580779575754 -0.28199977551968414 -3.2
      vertex -2.2322580779575754 -0.28199977551968414 -5
      vertex -2.25 0 -3.2
    endloop
  endfacet
  facet normal 0.8443279255020153 0.5358267949789962 0
    outer loop
      vertex -1.9716900300986928 -1.0839457667288597 -3.2
      vertex -1.8202882373436318 -1.3225168176580646 -3.2
      vertex -1.8202882373436318 -1.3225168176580646 -5
    endloop
  endfacet
  facet normal 0.9048270524660192 0.4257792915650733 0
    outer loop
      vertex -1.9716900300986928 -1.0839457667288597 -3.2
      vertex -1.9716900300986928 -1.0839457667288597 -5
      vertex -2.091997093248566 -0.8282802435405252 -3.2
    endloop
  endfacet
  facet normal 0.5877852522924731 0.8090169943749475 0
    outer loop
      vertex -1.2056102887027427 -1.8997378323795338 -3.2
      vertex -1.2056102887027427 -1.8997378323795338 -5
      vertex -1.4342039769345516 -1.733654796245526 -3.2
    endloop
  endfacet
  facet normal 0.4817536741017152 0.8763066800438636 0
    outer loop
      vertex -1.2056102887027427 -1.8997378323795338 -3.2
      vertex -0.958003406021413 -2.035860868048544 -3.2
      vertex -0.958003406021413 -2.035860868048544 -5
    endloop
  endfacet
  facet normal 0.368124552684677 0.9297764858882519 0
    outer loop
      vertex -0.958003406021413 -2.035860868048544 -3.2
      vertex -0.6952882373436317 -2.1398771616640953 -3.2
      vertex -0.6952882373436317 -2.1398771616640953 -5
    endloop
  endfacet
  facet normal 0.2486898871648558 0.9685831611286309 0
    outer loop
      vertex -0.6952882373436317 -2.1398771616640953 -3.2
      vertex -0.42160795781788085 -2.2101463141395494 -3.2
      vertex -0.42160795781788085 -2.2101463141395494 -5
    endloop
  endfacet
  facet normal 0.12533323356430498 0.9921147013144779 0
    outer loop
      vertex -0.42160795781788085 -2.2101463141395494 -3.2
      vertex -0.14127866894095598 -2.245560138963611 -3.2
      vertex -0.14127866894095598 -2.245560138963611 -5
    endloop
  endfacet
  facet normal 0.9980267284282717 -0.06279051952931264 0
    outer loop
      vertex -2.2322580779575754 0.28199977551968414 -3.2
      vertex -2.25 0 -5
      vertex -2.2322580779575754 0.28199977551968414 -5
    endloop
  endfacet
  facet normal 0.9822872507286885 -0.18738131458572535 0
    outer loop
      vertex -2.17931211253942 0.5595522461209235 -3.2
      vertex -2.2322580779575754 0.28199977551968414 -5
      vertex -2.17931211253942 0.5595522461209235 -5
    endloop
  endfacet
  facet normal 0.9510565162951539 -0.3090169943749469 0
    outer loop
      vertex -2.091997093248566 0.8282802435405252 -3.2
      vertex -2.17931211253942 0.5595522461209235 -5
      vertex -2.091997093248566 0.8282802435405252 -5
    endloop
  endfacet
  facet normal 0.9048270524660192 -0.4257792915650733 0
    outer loop
      vertex -1.9716900300986928 1.0839457667288597 -3.2
      vertex -2.091997093248566 0.8282802435405252 -5
      vertex -1.9716900300986928 1.0839457667288597 -5
    endloop
  endfacet
  facet normal 0.8443279255020153 -0.5358267949789962 0
    outer loop
      vertex -1.8202882373436318 1.3225168176580646 -3.2
      vertex -1.9716900300986928 1.0839457667288597 -5
      vertex -1.8202882373436318 1.3225168176580646 -5
    endloop
  endfacet
  facet normal 0.770513242775789 -0.6374239897486901 0
    outer loop
      vertex -1.6401794116981763 1.540230988339549 -3.2
      vertex -1.8202882373436318 1.3225168176580646 -5
      vertex -1.6401794116981763 1.540230988339549 -5
    endloop
  endfacet
  facet normal 0.6845471059286888 -0.7289686274214114 0
    outer loop
      vertex -1.4342039769345516 1.733654796245526 -3.2
      vertex -1.6401794116981763 1.540230988339549 -5
      vertex -1.4342039769345516 1.733654796245526 -5
    endloop
  endfacet
  facet normal 0.5877852522924731 -0.8090169943749475 0
    outer loop
      vertex -1.2056102887027427 1.8997378323795338 -3.2
      vertex -1.4342039769345516 1.733654796245526 -5
      vertex -1.2056102887027427 1.8997378323795338 -5
    endloop
  endfacet
  facet normal 0.481753674101715 -0.8763066800438636 0
    outer loop
      vertex -0.9580034060214137 2.0358608680485437 -3.2
      vertex -1.2056102887027427 1.8997378323795338 -5
      vertex -0.9580034060214137 2.0358608680485437 -5
    endloop
  endfacet
  facet normal 0.36812455268467753 -0.9297764858882516 0
    outer loop
      vertex -0.6952882373436317 2.1398771616640953 -3.2
      vertex -0.9580034060214137 2.0358608680485437 -5
      vertex -0.6952882373436317 2.1398771616640953 -5
    endloop
  endfacet
  facet normal 0.24868988716485532 -0.968583161128631 0
    outer loop
      vertex -0.4216079578178803 2.2101463141395494 -3.2
      vertex -0.6952882373436317 2.1398771616640953 -5
      vertex -0.4216079578178803 2.2101463141395494 -5
    endloop
  endfacet
  facet normal 0.12533323356430473 -0.9921147013144779 0
    outer loop
      vertex -0.14127866894095487 2.245560138963611 -3.2
      vertex -0.4216079578178803 2.2101463141395494 -5
      vertex -0.14127866894095487 2.245560138963611 -5
    endloop
  endfacet
  facet normal 0.9980267284282717 -0.06279051952931264 0
    outer loop
      vertex -2.25 0 -3.2
      vertex -2.25 0 -5
      vertex -2.2322580779575754 0.28199977551968414 -3.2
    endloop
  endfacet
  facet normal 0.9822872507286885 -0.18738131458572535 0
    outer loop
      vertex -2.2322580779575754 0.28199977551968414 -3.2
      vertex -2.2322580779575754 0.28199977551968414 -5
      vertex -2.17931211253942 0.5595522461209235 -3.2
    endloop
  endfacet
  facet normal 0.9510565162951539 -0.3090169943749469 0
    outer loop
      vertex -2.17931211253942 0.5595522461209235 -3.2
      vertex -2.17931211253942 0.5595522461209235 -5
      vertex -2.091997093248566 0.8282802435405252 -3.2
    endloop
  endfacet
  facet normal 0.9048270524660192 -0.4257792915650733 0
    outer loop
      vertex -2.091997093248566 0.8282802435405252 -3.2
      vertex -2.091997093248566 0.8282802435405252 -5
      vertex -1.9716900300986928 1.0839457667288597 -3.2
    endloop
  endfacet
  facet normal 0.8443279255020153 -0.5358267949789962 0
    outer loop
      vertex -1.9716900300986928 1.0839457667288597 -3.2
      vertex -1.9716900300986928 1.0839457667288597 -5
      vertex -1.8202882373436318 1.3225168176580646 -3.2
    endloop
  endfacet
  facet normal 0.770513242775789 -0.6374239897486901 0
    outer loop
      vertex -1.8202882373436318 1.3225168176580646 -3.2
      vertex -1.8202882373436318 1.3225168176580646 -5
      vertex -1.6401794116981763 1.540230988339549 -3.2
    endloop
  endfacet
  facet normal 0.6845471059286888 -0.7289686274214114 0
    outer loop
      vertex -1.6401794116981763 1.540230988339549 -3.2
      vertex -1.6401794116981763 1.540230988339549 -5
      vertex -1.4342039769345516 1.733654796245526 -3.2
    endloop
  endfacet
  facet normal 0.5877852522924731 -0.8090169943749475 0
    outer loop
      vertex -1.4342039769345516 1.733654796245526 -3.2
      vertex -1.4342039769345516 1.733654796245526 -5
      vertex -1.2056102887027427 1.8997378323795338 -3.2
    endloop
  endfacet
  facet normal 0.481753674101715 -0.8763066800438636 0
    outer loop
      vertex -1.2056102887027427 1.8997378323795338 -3.2
      vertex -1.2056102887027427 1.8997378323795338 -5
      vertex -0.9580034060214137 2.0358608680485437 -3.2
    endloop
  endfacet
  facet normal 0.36812455268467753 -0.9297764858882516 0
    outer loop
      vertex -0.9580034060214137 2.0358608680485437 -3.2
      vertex -0.9580034060214137 2.0358608680485437 -5
      vertex -0.6952882373436317 2.1398771616640953 -3.2
    endloop
  endfacet
  facet normal 0.24868988716485532 -0.968583161128631 0
    outer loop
      vertex -0.6952882373436317 2.1398771616640953 -3.2
      vertex -0.6952882373436317 2.1398771616640953 -5
      vertex -0.4216079578178803 2.2101463141395494 -3.2
    endloop
  endfacet
  facet normal 0.12533323356430473 -0.9921147013144779 0
    outer loop
      vertex -0.4216079578178803 2.2101463141395494 -3.2
      vertex -0.4216079578178803 2.2101463141395494 -5
      vertex -0.14127866894095487 2.245560138963611 -3.2
    endloop
  endfacet
  facet normal 0 -1 0
    outer loop
      vertex -0.14127866894095487 2.245560138963611 -3.2
      vertex -0.14127866894095487 2.245560138963611 -5
      vertex 0.14127866894095487 2.245560138963611 -3.2
    endloop
  endfacet
  facet normal -0.12533323356430498 0.9921147013144779 0
    outer loop
      vertex 0.14127866894095598 -2.245560138963611 -3.2
      vertex 0.42160795781788085 -2.2101463141395494 -5
      vertex 0.14127866894095598 -2.245560138963611 -5
    endloop
  endfacet
  facet normal -0.2486898871648558 0.9685831611286309 0
    outer loop
      vertex 0.42160795781788085 -2.2101463141395494 -3.2
      vertex 0.6952882373436317 -2.1398771616640953 -5
      vertex 0.42160795781788085 -2.2101463141395494 -5
    endloop
  endfacet
  facet normal -0.368124552684677 0.9297764858882519 0
    outer loop
      vertex 0.6952882373436317 -2.1398771616640953 -3.2
      vertex 0.958003406021413 -2.035860868048544 -5
      vertex 0.6952882373436317 -2.1398771616640953 -5
    endloop
  endfacet
  facet normal -0.481753674101715 0.8763066800438636 0
    outer loop
      vertex 0.958003406021413 -2.035860868048544 -3.2
      vertex 1.2056102887027416 -1.8997378323795344 -5
      vertex 0.958003406021413 -2.035860868048544 -5
    endloop
  endfacet
  facet normal -0.5877852522924728 0.8090169943749476 0
    outer loop
      vertex 1.2056102887027416 -1.8997378323795344 -3.2
      vertex 1.4342039769345525 -1.7336547962455253 -5
      vertex 1.2056102887027416 -1.8997378323795344 -5
    endloop
  endfacet
  facet normal -0.6845471059286893 0.7289686274214111 0
    outer loop
      vertex 1.4342039769345525 -1.7336547962455253 -3.2
      vertex 1.6401794116981763 -1.540230988339549 -5
      vertex 1.4342039769345525 -1.7336547962455253 -5
    endloop
  endfacet
  facet normal -0.770513242775789 0.6374239897486901 0
    outer loop
      vertex 1.6401794116981763 -1.540230988339549 -3.2
      vertex 1.8202882373436318 -1.3225168176580646 -5
      vertex 1.6401794116981763 -1.540230988339549 -5
    endloop
  endfacet
  facet normal -0.8443279255020153 0.5358267949789962 0
    outer loop
      vertex 1.8202882373436318 -1.3225168176580646 -3.2
      vertex 1.9716900300986928 -1.0839457667288597 -5
      vertex 1.8202882373436318 -1.3225168176580646 -5
    endloop
  endfacet
  facet normal -0.9048270524660191 0.42577929156507355 0
    outer loop
      vertex 1.9716900300986928 -1.0839457667288597 -3.2
      vertex 2.0919970932485654 -0.8282802435405263 -5
      vertex 1.9716900300986928 -1.0839457667288597 -5
    endloop
  endfacet
  facet normal -0.9510565162951535 0.3090169943749475 0
    outer loop
      vertex 2.0919970932485654 -0.8282802435405263 -3.2
      vertex 2.1793121125394204 -0.5595522461209225 -5
      vertex 2.0919970932485654 -0.8282802435405263 -5
    endloop
  endfacet
  facet normal -0.9822872507286887 0.18738131458572455 0
    outer loop
      vertex 2.1793121125394204 -0.5595522461209225 -3.2
      vertex 2.2322580779575754 -0.28199977551968414 -5
      vertex 2.1793121125394204 -0.5595522461209225 -5
    endloop
  endfacet
  facet normal -0.9980267284282717 0.06279051952931264 0
    outer loop
      vertex 2.2322580779575754 -0.28199977551968414 -3.2
      vertex 2.25 0 -5
      vertex 2.2322580779575754 -0.28199977551968414 -5
    endloop
  endfacet
  facet normal 0 1 0
    outer loop
      vertex -0.14127866894095598 -2.245560138963611 -3.2
      vertex 0.14127866894095598 -2.245560138963611 -3.2
      vertex 0.14127866894095598 -2.245560138963611 -5
    endloop
  endfacet
  facet normal -0.12533323356430498 0.9921147013144779 0
    outer loop
      vertex 0.14127866894095598 -2.245560138963611 -3.2
      vertex 0.42160795781788085 -2.2101463141395494 -3.2
      vertex 0.42160795781788085 -2.2101463141395494 -5
    endloop
  endfacet
  facet normal -0.2486898871648558 0.9685831611286309 0
    outer loop
      vertex 0.42160795781788085 -2.2101463141395494 -3.2
      vertex 0.6952882373436317 -2.1398771616640953 -3.2
      vertex 0.6952882373436317 -2.1398771616640953 -5
    endloop
  endfacet
  facet normal -0.368124552684677 0.9297764858882519 0
    outer loop
      vertex 0.6952882373436317 -2.1398771616640953 -3.2
      vertex 0.958003406021413 -2.035860868048544 -3.2
      vertex 0.958003406021413 -2.035860868048544 -5
    endloop
  endfacet
  facet normal -0.481753674101715 0.8763066800438636 0
    outer loop
      vertex 0.958003406021413 -2.035860868048544 -3.2
      vertex 1.2056102887027416 -1.8997378323795344 -3.2
      vertex 1.2056102887027416 -1.8997378323795344 -5
    endloop
  endfacet
  facet normal -0.5877852522924728 0.8090169943749476 0
    outer loop
      vertex 1.2056102887027416 -1.8997378323795344 -3.2
      vertex 1.4342039769345525 -1.7336547962455253 -3.2
      vertex 1.4342039769345525 -1.7336547962455253 -5
    endloop
  endfacet
  facet normal -0.6845471059286893 0.7289686274214111 0
    outer loop
      vertex 1.4342039769345525 -1.7336547962455253 -3.2
      vertex 1.6401794116981763 -1.540230988339549 -3.2
      vertex 1.6401794116981763 -1.540230988339549 -5
    endloop
  endfacet
  facet normal -0.770513242775789 0.6374239897486901 0
    outer loop
      vertex 1.6401794116981763 -1.540230988339549 -3.2
      vertex 1.8202882373436318 -1.3225168176580646 -3.2
      vertex 1.8202882373436318 -1.3225168176580646 -5
    endloop
  endfacet
  facet normal -0.8443279255020153 0.5358267949789962 0
    outer loop
      vertex 1.8202882373436318 -1.3225168176580646 -3.2
      vertex 1.9716900300986928 -1.0839457667288597 -3.2
      vertex 1.9716900300986928 -1.0839457667288597 -5
    endloop
  endfacet
  facet normal -0.9048270524660191 0.42577929156507355 0
    outer loop
      vertex 1.9716900300986928 -1.0839457667288597 -3.2
      vertex 2.0919970932485654 -0.8282802435405263 -3.2
      vertex 2.0919970932485654 -0.8282802435405263 -5
    endloop
  endfacet
  facet normal -0.9510565162951535 0.3090169943749475 0
    outer loop
      vertex 2.0919970932485654 -0.8282802435405263 -3.2
      vertex 2.1793121125394204 -0.5595522461209225 -3.2
      vertex 2.1793121125394204 -0.5595522461209225 -5
    endloop
  endfacet
  facet normal -0.9822872507286887 0.18738131458572455 0
    outer loop
      vertex 2.1793121125394204 -0.5595522461209225 -3.2
      vertex 2.2322580779575754 -0.28199977551968414 -3.2
      vertex 2.2322580779575754 -0.28199977551968414 -5
    endloop
  endfacet
  facet normal -0.9980267284282717 0.06279051952931264 0
    outer loop
      vertex 2.2322580779575754 -0.28199977551968414 -3.2
      vertex 2.25 0 -3.2
      vertex 2.25 0 -5
    endloop
  endfacet
  facet normal 0 -1 0
    outer loop
      vertex 0.14127866894095487 2.245560138963611 -3.2
      vertex -0.14127866894095487 2.245560138963611 -5
      vertex 0.14127866894094993 2.245560138963611 -5
    endloop
  endfacet
  facet normal -0.12533323356430254 -0.992114701314478 0
    outer loop
      vertex 0.4216079578178803 2.2101463141395494 -3.2
      vertex 0.14127866894094993 2.245560138963611 -5
      vertex 0.4216079578178803 2.2101463141395494 -5
    endloop
  endfacet
  facet normal -0.24868988716485532 -0.968583161128631 0
    outer loop
      vertex 0.6952882373436317 2.1398771616640953 -3.2
      vertex 0.4216079578178803 2.2101463141395494 -5
      vertex 0.6952882373436317 2.1398771616640953 -5
    endloop
  endfacet
  facet normal -0.36812455268467753 -0.9297764858882516 0
    outer loop
      vertex 0.9580034060214137 2.0358608680485437 -3.2
      vertex 0.6952882373436317 2.1398771616640953 -5
      vertex 0.9580034060214137 2.0358608680485437 -5
    endloop
  endfacet
  facet normal -0.4817536741017147 -0.8763066800438638 0
    outer loop
      vertex 1.2056102887027424 1.899737832379534 -3.2
      vertex 0.9580034060214137 2.0358608680485437 -5
      vertex 1.2056102887027424 1.899737832379534 -5
    endloop
  endfacet
  facet normal -0.5877852522924736 -0.8090169943749471 0
    outer loop
      vertex 1.434203976934552 1.7336547962455255 -3.2
      vertex 1.2056102887027424 1.899737832379534 -5
      vertex 1.434203976934552 1.7336547962455255 -5
    endloop
  endfacet
  facet normal -0.9048270524660199 -0.425779291565072 0
    outer loop
      vertex 2.0919970932485654 0.8282802435405254 -3.2
      vertex 1.971690030098693 1.0839457667288595 -5
      vertex 2.0919970932485654 0.8282802435405254 -5
    endloop
  endfacet
  facet normal -0.8443279255020153 -0.5358267949789964 0
    outer loop
      vertex 1.971690030098693 1.0839457667288595 -3.2
      vertex 1.8202882373436318 1.3225168176580646 -5
      vertex 1.971690030098693 1.0839457667288595 -5
    endloop
  endfacet
  facet normal -0.7705132427757891 -0.6374239897486896 0
    outer loop
      vertex 1.8202882373436318 1.3225168176580646 -3.2
      vertex 1.640179411698176 1.5402309883395495 -5
      vertex 1.8202882373436318 1.3225168176580646 -5
    endloop
  endfacet
  facet normal -0.9980267284282716 -0.06279051952931251 0
    outer loop
      vertex 2.25 0 -3.2
      vertex 2.2322580779575754 0.2819997755196846 -5
      vertex 2.25 0 -5
    endloop
  endfacet
  facet normal -0.9822872507286885 -0.18738131458572582 0
    outer loop
      vertex 2.2322580779575754 0.2819997755196846 -3.2
      vertex 2.17931211253942 0.5595522461209232 -5
      vertex 2.2322580779575754 0.2819997755196846 -5
    endloop
  endfacet
  facet normal -0.9510565162951535 -0.30901699437494784 0
    outer loop
      vertex 2.17931211253942 0.5595522461209232 -3.2
      vertex 2.0919970932485654 0.8282802435405254 -5
      vertex 2.17931211253942 0.5595522461209232 -5
    endloop
  endfacet
  facet normal -0.6845471059286883 -0.7289686274214118 0
    outer loop
      vertex 1.640179411698176 1.5402309883395495 -3.2
      vertex 1.434203976934552 1.7336547962455255 -5
      vertex 1.640179411698176 1.5402309883395495 -5
    endloop
  endfacet
  facet normal -0.12533323356430473 -0.9921147013144779 3.4400438631081695e-16
    outer loop
      vertex 0.14127866894095487 2.245560138963611 -3.2
      vertex 0.14127866894094993 2.245560138963611 -5
      vertex 0.4216079578178803 2.2101463141395494 -3.2
    endloop
  endfacet
  facet normal -0.24868988716485532 -0.968583161128631 0
    outer loop
      vertex 0.4216079578178803 2.2101463141395494 -3.2
      vertex 0.4216079578178803 2.2101463141395494 -5
      vertex 0.6952882373436317 2.1398771616640953 -3.2
    endloop
  endfacet
  facet normal -0.36812455268467753 -0.9297764858882516 0
    outer loop
      vertex 0.6952882373436317 2.1398771616640953 -3.2
      vertex 0.6952882373436317 2.1398771616640953 -5
      vertex 0.9580034060214137 2.0358608680485437 -3.2
    endloop
  endfacet
  facet normal -0.4817536741017147 -0.8763066800438638 0
    outer loop
      vertex 0.9580034060214137 2.0358608680485437 -3.2
      vertex 0.9580034060214137 2.0358608680485437 -5
      vertex 1.2056102887027424 1.899737832379534 -3.2
    endloop
  endfacet
  facet normal -0.5877852522924736 -0.8090169943749471 0
    outer loop
      vertex 1.434203976934552 1.7336547962455255 -3.2
      vertex 1.2056102887027424 1.899737832379534 -3.2
      vertex 1.2056102887027424 1.899737832379534 -5
    endloop
  endfacet
  facet normal -0.9048270524660199 -0.425779291565072 0
    outer loop
      vertex 2.0919970932485654 0.8282802435405254 -3.2
      vertex 1.971690030098693 1.0839457667288595 -3.2
      vertex 1.971690030098693 1.0839457667288595 -5
    endloop
  endfacet
  facet normal -0.8443279255020153 -0.5358267949789964 0
    outer loop
      vertex 1.8202882373436318 1.3225168176580646 -3.2
      vertex 1.8202882373436318 1.3225168176580646 -5
      vertex 1.971690030098693 1.0839457667288595 -3.2
    endloop
  endfacet
  facet normal -0.9980267284282716 -0.06279051952931251 0
    outer loop
      vertex 2.25 0 -3.2
      vertex 2.2322580779575754 0.2819997755196846 -3.2
      vertex 2.2322580779575754 0.2819997755196846 -5
    endloop
  endfacet
  facet normal -0.9822872507286885 -0.18738131458572582 0
    outer loop
      vertex 2.2322580779575754 0.2819997755196846 -3.2
      vertex 2.17931211253942 0.5595522461209232 -3.2
      vertex 2.17931211253942 0.5595522461209232 -5
    endloop
  endfacet
  facet normal -0.9510565162951535 -0.30901699437494784 0
    outer loop
      vertex 2.0919970932485654 0.8282802435405254 -3.2
      vertex 2.0919970932485654 0.8282802435405254 -5
      vertex 2.17931211253942 0.5595522461209232 -3.2
    endloop
  endfacet
  facet normal -0.6845471059286883 -0.7289686274214118 0
    outer loop
      vertex 1.434203976934552 1.7336547962455255 -3.2
      vertex 1.434203976934552 1.7336547962455255 -5
      vertex 1.640179411698176 1.5402309883395495 -3.2
    endloop
  endfacet
  facet normal -0.7705132427757891 -0.6374239897486896 0
    outer loop
      vertex 1.8202882373436318 1.3225168176580646 -3.2
      vertex 1.640179411698176 1.5402309883395495 -3.2
      vertex 1.640179411698176 1.5402309883395495 -5
    endloop
  endfacet
  facet normal -0.8443279255020153 -0.5358267949789963 0
    outer loop
      vertex -18.202882373436317 -13.225168176580645 -5
      vertex -19.71690030098693 -10.839457667288595 0
      vertex -19.71690030098693 -10.839457667288595 -5
    endloop
  endfacet
  facet normal -0.7705132427757891 -0.63742398974869 0
    outer loop
      vertex -18.202882373436317 -13.225168176580645 -5
      vertex -16.401794116981762 -15.40230988339549 -5
      vertex -18.202882373436317 -13.225168176580645 0
    endloop
  endfacet
  facet normal -0.5877852522924731 -0.8090169943749473 0
    outer loop
      vertex -14.342039769345517 -17.33654796245526 -5
      vertex -12.056102887027427 -18.99737832379534 -5
      vertex -12.056102887027427 -18.99737832379534 0
    endloop
  endfacet
  facet normal -0.6845471059286892 -0.7289686274214111 0
    outer loop
      vertex -14.342039769345517 -17.33654796245526 -5
      vertex -14.342039769345517 -17.33654796245526 0
      vertex -16.401794116981762 -15.40230988339549 -5
    endloop
  endfacet
  facet normal 0 0 -1
    outer loop
      vertex -20.919970932485658 -8.282802435405252 -5
      vertex -21.7931211253942 -5.595522461209234 -5
      vertex -20.919970932485658 8.282802435405252 -5
    endloop
  endfacet
  facet normal 0 0 -1
    outer loop
      vertex -21.7931211253942 -5.595522461209234 -5
      vertex -22.322580779575752 -2.8199977551968414 -5
      vertex -21.7931211253942 5.595522461209234 -5
    endloop
  endfacet
  facet normal 0 0 -1
    outer loop
      vertex -19.71690030098693 -10.839457667288595 -5
      vertex -20.919970932485658 -8.282802435405252 -5
      vertex -19.71690030098693 10.839457667288595 -5
    endloop
  endfacet
  facet normal 0 0 -1
    outer loop
      vertex -18.202882373436317 -13.225168176580645 -5
      vertex -19.71690030098693 -10.839457667288595 -5
      vertex -18.202882373436317 13.225168176580645 -5
    endloop
  endfacet
  facet normal 0 0 -1
    outer loop
      vertex -18.202882373436317 -13.225168176580645 -5
      vertex -16.401794116981762 15.40230988339549 -5
      vertex -16.401794116981762 -15.40230988339549 -5
    endloop
  endfacet
  facet normal 0 0 -1
    outer loop
      vertex -14.342039769345517 -17.33654796245526 -5
      vertex -12.056102887027427 18.99737832379534 -5
      vertex -12.056102887027427 -18.99737832379534 -5
    endloop
  endfacet
  facet normal 0 0 -1
    outer loop
      vertex -14.342039769345517 -17.33654796245526 -5
      vertex -16.401794116981762 -15.40230988339549 -5
      vertex -14.342039769345517 17.33654796245526 -5
    endloop
  endfacet
  facet normal -0.9048270524660192 -0.425779291565073 0
    outer loop
      vertex -19.71690030098693 -10.839457667288595 -5
      vertex -20.919970932485658 -8.282802435405252 0
      vertex -20.919970932485658 -8.282802435405252 -5
    endloop
  endfacet
  facet normal -0.9510565162951535 -0.3090169943749478 0
    outer loop
      vertex -20.919970932485658 -8.282802435405252 -5
      vertex -21.7931211253942 -5.595522461209234 0
      vertex -21.7931211253942 -5.595522461209234 -5
    endloop
  endfacet
  facet normal -0.9822872507286888 -0.1873813145857242 0
    outer loop
      vertex -21.7931211253942 -5.595522461209234 -5
      vertex -22.322580779575752 -2.8199977551968414 0
      vertex -22.322580779575752 -2.8199977551968414 -5
    endloop
  endfacet
  facet normal -0.9980267284282716 -0.06279051952931325 0
    outer loop
      vertex -22.322580779575752 -2.8199977551968414 -5
      vertex -22.5 0 0
      vertex -22.5 0 -5
    endloop
  endfacet
  facet normal 0 0 -1
    outer loop
      vertex -4.2160795781788085 -22.101463141395495 -5
      vertex -1.2056102887027427 -1.8997378323795338 -5
      vertex -1.4127866894095598 -22.45560138963611 -5
    endloop
  endfacet
  facet normal 0 0 -1
    outer loop
      vertex -1.4127866894095598 -22.45560138963611 -5
      vertex -0.14127866894095598 -2.245560138963611 -5
      vertex 1.4127866894095598 -22.45560138963611 -5
    endloop
  endfacet
  facet normal -0.48175367410171427 -0.8763066800438641 0
    outer loop
      vertex -12.056102887027427 -18.99737832379534 -5
      vertex -9.58003406021413 -20.35860868048544 -5
      vertex -9.58003406021413 -20.35860868048544 0
    endloop
  endfacet
  facet normal -0.3681245526846779 -0.9297764858882513 0
    outer loop
      vertex -9.58003406021413 -20.35860868048544 -5
      vertex -6.952882373436316 -21.398771616640953 -5
      vertex -6.952882373436316 -21.398771616640953 0
    endloop
  endfacet
  facet normal -0.24868988716485585 -0.9685831611286309 0
    outer loop
      vertex -6.952882373436316 -21.398771616640953 -5
      vertex -4.2160795781788085 -22.101463141395495 -5
      vertex -4.2160795781788085 -22.101463141395495 0
    endloop
  endfacet
  facet normal -0.12533323356430498 -0.9921147013144778 0
    outer loop
      vertex -4.2160795781788085 -22.101463141395495 -5
      vertex -1.4127866894095598 -22.45560138963611 -5
      vertex -1.4127866894095598 -22.45560138963611 0
    endloop
  endfacet
  facet normal 0 0 -1
    outer loop
      vertex -12.056102887027427 -18.99737832379534 -5
      vertex -9.580034060214135 20.35860868048544 -5
      vertex -9.58003406021413 -20.35860868048544 -5
    endloop
  endfacet
  facet normal 0 0 -1
    outer loop
      vertex -9.58003406021413 -20.35860868048544 -5
      vertex -6.952882373436316 21.398771616640953 -5
      vertex -6.952882373436316 -21.398771616640953 -5
    endloop
  endfacet
  facet normal 0 0 -1
    outer loop
      vertex -6.952882373436316 -21.398771616640953 -5
      vertex -4.216079578178803 22.101463141395495 -5
      vertex -4.2160795781788085 -22.101463141395495 -5
    endloop
  endfacet
  facet normal 0 0 -1
    outer loop
      vertex -4.2160795781788085 -22.101463141395495 -5
      vertex -2.17931211253942 -0.5595522461209235 -5
      vertex -2.091997093248566 -0.8282802435405252 -5
    endloop
  endfacet
  facet normal 0 0 -1
    outer loop
      vertex -4.2160795781788085 -22.101463141395495 -5
      vertex -2.2322580779575754 -0.28199977551968414 -5
      vertex -2.17931211253942 -0.5595522461209235 -5
    endloop
  endfacet
  facet normal 0 0 -1
    outer loop
      vertex -4.2160795781788085 -22.101463141395495 -5
      vertex -2.25 0 -5
      vertex -2.2322580779575754 -0.28199977551968414 -5
    endloop
  endfacet
  facet normal 0 0 -1
    outer loop
      vertex -4.2160795781788085 -22.101463141395495 -5
      vertex -1.6401794116981763 -1.540230988339549 -5
      vertex -1.4342039769345516 -1.733654796245526 -5
    endloop
  endfacet
  facet normal 0 0 -1
    outer loop
      vertex -4.2160795781788085 -22.101463141395495 -5
      vertex -1.4342039769345516 -1.733654796245526 -5
      vertex -1.2056102887027427 -1.8997378323795338 -5
    endloop
  endfacet
  facet normal 0 0 -1
    outer loop
      vertex -1.4127866894095598 -22.45560138963611 -5
      vertex -1.2056102887027427 -1.8997378323795338 -5
      vertex -0.958003406021413 -2.035860868048544 -5
    endloop
  endfacet
  facet normal 0 0 -1
    outer loop
      vertex -1.4127866894095598 -22.45560138963611 -5
      vertex -0.958003406021413 -2.035860868048544 -5
      vertex -0.6952882373436317 -2.1398771616640953 -5
    endloop
  endfacet
  facet normal 0 0 -1
    outer loop
      vertex -1.4127866894095598 -22.45560138963611 -5
      vertex -0.6952882373436317 -2.1398771616640953 -5
      vertex -0.42160795781788085 -2.2101463141395494 -5
    endloop
  endfacet
  facet normal 0 0 -1
    outer loop
      vertex -1.4127866894095598 -22.45560138963611 -5
      vertex -0.42160795781788085 -2.2101463141395494 -5
      vertex -0.14127866894095598 -2.245560138963611 -5
    endloop
  endfacet
  facet normal 0 0 -1
    outer loop
      vertex -4.2160795781788085 -22.101463141395495 -5
      vertex -1.9716900300986928 -1.0839457667288597 -5
      vertex -1.8202882373436318 -1.3225168176580646 -5
    endloop
  endfacet
  facet normal 0 0 -1
    outer loop
      vertex -4.2160795781788085 -22.101463141395495 -5
      vertex -1.8202882373436318 -1.3225168176580646 -5
      vertex -1.6401794116981763 -1.540230988339549 -5
    endloop
  endfacet
  facet normal 0 0 -1
    outer loop
      vertex -4.2160795781788085 -22.101463141395495 -5
      vertex -2.091997093248566 -0.8282802435405252 -5
      vertex -1.9716900300986928 -1.0839457667288597 -5
    endloop
  endfacet
  facet normal -0.7705132427757891 -0.63742398974869 0
    outer loop
      vertex -16.401794116981762 -15.40230988339549 -5
      vertex -16.401794116981762 -15.40230988339549 0
      vertex -18.202882373436317 -13.225168176580645 0
    endloop
  endfacet
  facet normal -0.8443279255020153 -0.5358267949789963 0
    outer loop
      vertex -18.202882373436317 -13.225168176580645 -5
      vertex -18.202882373436317 -13.225168176580645 0
      vertex -19.71690030098693 -10.839457667288595 0
    endloop
  endfacet
  facet normal -0.5877852522924731 -0.8090169943749473 0
    outer loop
      vertex -14.342039769345517 -17.33654796245526 -5
      vertex -12.056102887027427 -18.99737832379534 0
      vertex -14.342039769345517 -17.33654796245526 0
    endloop
  endfacet
  facet normal -0.6845471059286892 -0.7289686274214111 0
    outer loop
      vertex -16.401794116981762 -15.40230988339549 -5
      vertex -14.342039769345517 -17.33654796245526 0
      vertex -16.401794116981762 -15.40230988339549 0
    endloop
  endfacet
  facet normal -0.9048270524660192 -0.425779291565073 0
    outer loop
      vertex -19.71690030098693 -10.839457667288595 -5
      vertex -19.71690030098693 -10.839457667288595 0
      vertex -20.919970932485658 -8.282802435405252 0
    endloop
  endfacet
  facet normal -0.9510565162951535 -0.3090169943749478 0
    outer loop
      vertex -20.919970932485658 -8.282802435405252 -5
      vertex -20.919970932485658 -8.282802435405252 0
      vertex -21.7931211253942 -5.595522461209234 0
    endloop
  endfacet
  facet normal -0.9822872507286888 -0.1873813145857242 0
    outer loop
      vertex -21.7931211253942 -5.595522461209234 -5
      vertex -21.7931211253942 -5.595522461209234 0
      vertex -22.322580779575752 -2.8199977551968414 0
    endloop
  endfacet
  facet normal -0.9980267284282716 -0.06279051952931325 0
    outer loop
      vertex -22.322580779575752 -2.8199977551968414 -5
      vertex -22.322580779575752 -2.8199977551968414 0
      vertex -22.5 0 0
    endloop
  endfacet
  facet normal 0 0 1
    outer loop
      vertex -19.71690030098693 -10.839457667288595 0
      vertex -20.919970932485658 8.282802435405252 0
      vertex -20.919970932485658 -8.282802435405252 0
    endloop
  endfacet
  facet normal 0 0 1
    outer loop
      vertex -21.7931211253942 -5.595522461209234 0
      vertex -22.322580779575752 2.8199977551968414 0
      vertex -22.322580779575752 -2.8199977551968414 0
    endloop
  endfacet
  facet normal 0 0 1
    outer loop
      vertex -20.919970932485658 -8.282802435405252 0
      vertex -21.7931211253942 5.595522461209234 0
      vertex -21.7931211253942 -5.595522461209234 0
    endloop
  endfacet
  facet normal 0 0 1
    outer loop
      vertex -18.202882373436317 -13.225168176580645 0
      vertex -19.71690030098693 10.839457667288595 0
      vertex -19.71690030098693 -10.839457667288595 0
    endloop
  endfacet
  facet normal 0 0 1
    outer loop
      vertex -18.202882373436317 -13.225168176580645 0
      vertex -16.401794116981762 -15.40230988339549 0
      vertex -18.202882373436317 13.225168176580645 0
    endloop
  endfacet
  facet normal 0 0 1
    outer loop
      vertex -14.342039769345517 -17.33654796245526 0
      vertex -16.401794116981762 15.40230988339549 0
      vertex -16.401794116981762 -15.40230988339549 0
    endloop
  endfacet
  facet normal 0 0 1
    outer loop
      vertex -14.342039769345517 -17.33654796245526 0
      vertex -12.056102887027427 -18.99737832379534 0
      vertex -14.342039769345517 17.33654796245526 0
    endloop
  endfacet
  facet normal -0.3681245526846779 -0.9297764858882513 0
    outer loop
      vertex -9.58003406021413 -20.35860868048544 -5
      vertex -6.952882373436316 -21.398771616640953 0
      vertex -9.58003406021413 -20.35860868048544 0
    endloop
  endfacet
  facet normal -0.48175367410171427 -0.8763066800438641 0
    outer loop
      vertex -12.056102887027427 -18.99737832379534 -5
      vertex -9.58003406021413 -20.35860868048544 0
      vertex -12.056102887027427 -18.99737832379534 0
    endloop
  endfacet
  facet normal -0.24868988716485585 -0.9685831611286309 0
    outer loop
      vertex -6.952882373436316 -21.398771616640953 -5
      vertex -4.2160795781788085 -22.101463141395495 0
      vertex -6.952882373436316 -21.398771616640953 0
    endloop
  endfacet
  facet normal -0.12533323356430498 -0.9921147013144778 0
    outer loop
      vertex -4.2160795781788085 -22.101463141395495 -5
      vertex -1.4127866894095598 -22.45560138963611 0
      vertex -4.2160795781788085 -22.101463141395495 0
    endloop
  endfacet
  facet normal 0 -1 0
    outer loop
      vertex -1.4127866894095598 -22.45560138963611 -5
      vertex 1.4127866894095598 -22.45560138963611 0
      vertex -1.4127866894095598 -22.45560138963611 0
    endloop
  endfacet
  facet normal 0 0 1
    outer loop
      vertex -4.2160795781788085 -22.101463141395495 0
      vertex -1.4127866894095598 -22.45560138963611 0
      vertex -4.269799999892712 0 0
    endloop
  endfacet
  facet normal 0 0 1
    outer loop
      vertex -1.4127866894095598 -22.45560138963611 0
      vertex 1.4127866894095598 -22.45560138963611 0
      vertex -2.134900003671646 -3.6977552697062492 0
    endloop
  endfacet
  facet normal 0 0 1
    outer loop
      vertex -12.056102887027427 -18.99737832379534 0
      vertex -9.58003406021413 -20.35860868048544 0
      vertex -12.056102887027427 18.99737832379534 0
    endloop
  endfacet
  facet normal 0 0 1
    outer loop
      vertex -9.58003406021413 -20.35860868048544 0
      vertex -6.952882373436316 -21.398771616640953 0
      vertex -9.580034060214135 20.35860868048544 0
    endloop
  endfacet
  facet normal 0 0 1
    outer loop
      vertex -6.952882373436316 -21.398771616640953 0
      vertex -4.2160795781788085 -22.101463141395495 0
      vertex -6.952882373436316 21.398771616640953 0
    endloop
  endfacet
  facet normal 0 0 1
    outer loop
      vertex -1.4127866894095598 -22.45560138963611 0
      vertex -2.134900003671646 -3.6977552697062492 0
      vertex -4.269799999892712 0 0
    endloop
  endfacet
  facet normal 0 0 1
    outer loop
      vertex -4.2160795781788085 -22.101463141395495 0
      vertex -4.269799999892712 0 0
      vertex -6.952882373436316 21.398771616640953 0
    endloop
  endfacet
  facet normal 0 0 -1
    outer loop
      vertex -22.322580779575752 -2.8199977551968414 -5
      vertex -22.5 0 -5
      vertex -22.322580779575752 2.8199977551968414 -5
    endloop
  endfacet
  facet normal 0 0 -1
    outer loop
      vertex -22.322580779575752 -2.8199977551968414 -5
      vertex -22.322580779575752 2.8199977551968414 -5
      vertex -21.7931211253942 5.595522461209234 -5
    endloop
  endfacet
  facet normal 0 0 -1
    outer loop
      vertex -21.7931211253942 -5.595522461209234 -5
      vertex -21.7931211253942 5.595522461209234 -5
      vertex -20.919970932485658 8.282802435405252 -5
    endloop
  endfacet
  facet normal 0 0 -1
    outer loop
      vertex -20.919970932485658 -8.282802435405252 -5
      vertex -20.919970932485658 8.282802435405252 -5
      vertex -19.71690030098693 10.839457667288595 -5
    endloop
  endfacet
  facet normal 0 0 -1
    outer loop
      vertex -19.71690030098693 -10.839457667288595 -5
      vertex -19.71690030098693 10.839457667288595 -5
      vertex -18.202882373436317 13.225168176580645 -5
    endloop
  endfacet
  facet normal 0 0 -1
    outer loop
      vertex -18.202882373436317 -13.225168176580645 -5
      vertex -18.202882373436317 13.225168176580645 -5
      vertex -16.401794116981762 15.40230988339549 -5
    endloop
  endfacet
  facet normal 0 0 -1
    outer loop
      vertex -16.401794116981762 -15.40230988339549 -5
      vertex -16.401794116981762 15.40230988339549 -5
      vertex -14.342039769345517 17.33654796245526 -5
    endloop
  endfacet
  facet normal 0 0 -1
    outer loop
      vertex -14.342039769345517 -17.33654796245526 -5
      vertex -14.342039769345517 17.33654796245526 -5
      vertex -12.056102887027427 18.99737832379534 -5
    endloop
  endfacet
  facet normal -0.9980267284282716 0.06279051952931325 0
    outer loop
      vertex -22.5 0 -5
      vertex -22.322580779575752 2.8199977551968414 0
      vertex -22.322580779575752 2.8199977551968414 -5
    endloop
  endfacet
  facet normal -0.9822872507286888 0.1873813145857242 0
    outer loop
      vertex -22.322580779575752 2.8199977551968414 -5
      vertex -21.7931211253942 5.595522461209234 0
      vertex -21.7931211253942 5.595522461209234 -5
    endloop
  endfacet
  facet normal -0.9510565162951535 0.3090169943749478 0
    outer loop
      vertex -21.7931211253942 5.595522461209234 -5
      vertex -20.919970932485658 8.282802435405252 0
      vertex -20.919970932485658 8.282802435405252 -5
    endloop
  endfacet
  facet normal -0.9048270524660192 0.425779291565073 0
    outer loop
      vertex -20.919970932485658 8.282802435405252 -5
      vertex -19.71690030098693 10.839457667288595 0
      vertex -19.71690030098693 10.839457667288595 -5
    endloop
  endfacet
  facet normal -0.8443279255020153 0.5358267949789963 0
    outer loop
      vertex -19.71690030098693 10.839457667288595 -5
      vertex -18.202882373436317 13.225168176580645 0
      vertex -18.202882373436317 13.225168176580645 -5
    endloop
  endfacet
  facet normal -0.7705132427757891 0.63742398974869 0
    outer loop
      vertex -18.202882373436317 13.225168176580645 -5
      vertex -16.401794116981762 15.40230988339549 0
      vertex -16.401794116981762 15.40230988339549 -5
    endloop
  endfacet
  facet normal -0.6845471059286892 0.7289686274214111 0
    outer loop
      vertex -16.401794116981762 15.40230988339549 -5
      vertex -16.401794116981762 15.40230988339549 0
      vertex -14.342039769345517 17.33654796245526 -5
    endloop
  endfacet
  facet normal -0.5877852522924731 0.8090169943749473 0
    outer loop
      vertex -14.342039769345517 17.33654796245526 -5
      vertex -14.342039769345517 17.33654796245526 0
      vertex -12.056102887027427 18.99737832379534 -5
    endloop
  endfacet
  facet normal 0 0 -1
    outer loop
      vertex -12.056102887027427 -18.99737832379534 -5
      vertex -12.056102887027427 18.99737832379534 -5
      vertex -9.580034060214135 20.35860868048544 -5
    endloop
  endfacet
  facet normal 0 0 -1
    outer loop
      vertex -9.58003406021413 -20.35860868048544 -5
      vertex -9.580034060214135 20.35860868048544 -5
      vertex -6.952882373436316 21.398771616640953 -5
    endloop
  endfacet
  facet normal 0 0 -1
    outer loop
      vertex -6.952882373436316 -21.398771616640953 -5
      vertex -6.952882373436316 21.398771616640953 -5
      vertex -4.216079578178803 22.101463141395495 -5
    endloop
  endfacet
  facet normal 0 0 -1
    outer loop
      vertex -4.2160795781788085 -22.101463141395495 -5
      vertex -1.4127866894095487 22.45560138963611 -5
      vertex -2.25 0 -5
    endloop
  endfacet
  facet normal 0 0 -1
    outer loop
      vertex -4.2160795781788085 -22.101463141395495 -5
      vertex -4.216079578178803 22.101463141395495 -5
      vertex -1.4127866894095487 22.45560138963611 -5
    endloop
  endfacet
  facet normal 0 0 -1
    outer loop
      vertex -1.4127866894095487 22.45560138963611 -5
      vertex -2.2322580779575754 0.28199977551968414 -5
      vertex -2.25 0 -5
    endloop
  endfacet
  facet normal 0 0 -1
    outer loop
      vertex -1.4127866894095487 22.45560138963611 -5
      vertex -2.17931211253942 0.5595522461209235 -5
      vertex -2.2322580779575754 0.28199977551968414 -5
    endloop
  endfacet
  facet normal 0 0 -1
    outer loop
      vertex -1.4127866894095487 22.45560138963611 -5
      vertex -2.091997093248566 0.8282802435405252 -5
      vertex -2.17931211253942 0.5595522461209235 -5
    endloop
  endfacet
  facet normal 0 0 -1
    outer loop
      vertex -1.4127866894095487 22.45560138963611 -5
      vertex -1.9716900300986928 1.0839457667288597 -5
      vertex -2.091997093248566 0.8282802435405252 -5
    endloop
  endfacet
  facet normal 0 0 -1
    outer loop
      vertex -1.4127866894095487 22.45560138963611 -5
      vertex -1.8202882373436318 1.3225168176580646 -5
      vertex -1.9716900300986928 1.0839457667288597 -5
    endloop
  endfacet
  facet normal 0 0 -1
    outer loop
      vertex -1.4127866894095487 22.45560138963611 -5
      vertex -1.6401794116981763 1.540230988339549 -5
      vertex -1.8202882373436318 1.3225168176580646 -5
    endloop
  endfacet
  facet normal 0 0 -1
    outer loop
      vertex -1.4127866894095487 22.45560138963611 -5
      vertex -1.4342039769345516 1.733654796245526 -5
      vertex -1.6401794116981763 1.540230988339549 -5
    endloop
  endfacet
  facet normal 0 0 -1
    outer loop
      vertex -1.4127866894095487 22.45560138963611 -5
      vertex -1.2056102887027427 1.8997378323795338 -5
      vertex -1.4342039769345516 1.733654796245526 -5
    endloop
  endfacet
  facet normal 0 0 -1
    outer loop
      vertex -1.4127866894095487 22.45560138963611 -5
      vertex -0.9580034060214137 2.0358608680485437 -5
      vertex -1.2056102887027427 1.8997378323795338 -5
    endloop
  endfacet
  facet normal 0 0 -1
    outer loop
      vertex -1.4127866894095487 22.45560138963611 -5
      vertex -0.6952882373436317 2.1398771616640953 -5
      vertex -0.9580034060214137 2.0358608680485437 -5
    endloop
  endfacet
  facet normal 0 0 -1
    outer loop
      vertex -1.4127866894095487 22.45560138963611 -5
      vertex -0.4216079578178803 2.2101463141395494 -5
      vertex -0.6952882373436317 2.1398771616640953 -5
    endloop
  endfacet
  facet normal 0 0 -1
    outer loop
      vertex -1.4127866894095487 22.45560138963611 -5
      vertex -0.14127866894095487 2.245560138963611 -5
      vertex -0.4216079578178803 2.2101463141395494 -5
    endloop
  endfacet
  facet normal 0 0 -1
    outer loop
      vertex -1.4127866894095487 22.45560138963611 -5
      vertex 0.14127866894094993 2.245560138963611 -5
      vertex -0.14127866894095487 2.245560138963611 -5
    endloop
  endfacet
  facet normal -0.4817536741017151 0.8763066800438637 0
    outer loop
      vertex -12.056102887027427 18.99737832379534 -5
      vertex -12.056102887027427 18.99737832379534 0
      vertex -9.580034060214135 20.35860868048544 -5
    endloop
  endfacet
  facet normal -0.3681245526846773 0.9297764858882517 0
    outer loop
      vertex -9.580034060214135 20.35860868048544 -5
      vertex -9.580034060214135 20.35860868048544 0
      vertex -6.952882373436316 21.398771616640953 -5
    endloop
  endfacet
  facet normal -0.24868988716485538 0.9685831611286311 0
    outer loop
      vertex -6.952882373436316 21.398771616640953 -5
      vertex -6.952882373436316 21.398771616640953 0
      vertex -4.216079578178803 22.101463141395495 -5
    endloop
  endfacet
  facet normal -0.12533323356430473 0.9921147013144778 0
    outer loop
      vertex -4.216079578178803 22.101463141395495 -5
      vertex -4.216079578178803 22.101463141395495 0
      vertex -1.4127866894095487 22.45560138963611 -5
    endloop
  endfacet
  facet normal 0 1 0
    outer loop
      vertex -1.4127866894095487 22.45560138963611 -5
      vertex -1.4127866894095487 22.45560138963611 0
      vertex 1.4127866894095487 22.45560138963611 -5
    endloop
  endfacet
  facet normal -0.9980267284282716 0.06279051952931325 0
    outer loop
      vertex -22.5 0 -5
      vertex -22.5 0 0
      vertex -22.322580779575752 2.8199977551968414 0
    endloop
  endfacet
  facet normal -0.9822872507286888 0.1873813145857242 0
    outer loop
      vertex -22.322580779575752 2.8199977551968414 -5
      vertex -22.322580779575752 2.8199977551968414 0
      vertex -21.7931211253942 5.595522461209234 0
    endloop
  endfacet
  facet normal -0.9510565162951535 0.3090169943749478 0
    outer loop
      vertex -21.7931211253942 5.595522461209234 -5
      vertex -21.7931211253942 5.595522461209234 0
      vertex -20.919970932485658 8.282802435405252 0
    endloop
  endfacet
  facet normal -0.9048270524660192 0.425779291565073 0
    outer loop
      vertex -20.919970932485658 8.282802435405252 -5
      vertex -20.919970932485658 8.282802435405252 0
      vertex -19.71690030098693 10.839457667288595 0
    endloop
  endfacet
  facet normal 0 0 1
    outer loop
      vertex -22.322580779575752 -2.8199977551968414 0
      vertex -22.322580779575752 2.8199977551968414 0
      vertex -22.5 0 0
    endloop
  endfacet
  facet normal 0 0 1
    outer loop
      vertex -21.7931211253942 -5.595522461209234 0
      vertex -21.7931211253942 5.595522461209234 0
      vertex -22.322580779575752 2.8199977551968414 0
    endloop
  endfacet
  facet normal 0 0 1
    outer loop
      vertex -20.919970932485658 -8.282802435405252 0
      vertex -20.919970932485658 8.282802435405252 0
      vertex -21.7931211253942 5.595522461209234 0
    endloop
  endfacet
  facet normal 0 0 1
    outer loop
      vertex -19.71690030098693 -10.839457667288595 0
      vertex -19.71690030098693 10.839457667288595 0
      vertex -20.919970932485658 8.282802435405252 0
    endloop
  endfacet
  facet normal 0 0 1
    outer loop
      vertex -18.202882373436317 -13.225168176580645 0
      vertex -18.202882373436317 13.225168176580645 0
      vertex -19.71690030098693 10.839457667288595 0
    endloop
  endfacet
  facet normal 0 0 1
    outer loop
      vertex -16.401794116981762 -15.40230988339549 0
      vertex -16.401794116981762 15.40230988339549 0
      vertex -18.202882373436317 13.225168176580645 0
    endloop
  endfacet
  facet normal 0 0 1
    outer loop
      vertex -14.342039769345517 -17.33654796245526 0
      vertex -14.342039769345517 17.33654796245526 0
      vertex -16.401794116981762 15.40230988339549 0
    endloop
  endfacet
  facet normal 0 0 1
    outer loop
      vertex -12.056102887027427 -18.99737832379534 0
      vertex -12.056102887027427 18.99737832379534 0
      vertex -14.342039769345517 17.33654796245526 0
    endloop
  endfacet
  facet normal -0.8443279255020153 0.5358267949789963 0
    outer loop
      vertex -19.71690030098693 10.839457667288595 -5
      vertex -19.71690030098693 10.839457667288595 0
      vertex -18.202882373436317 13.225168176580645 0
    endloop
  endfacet
  facet normal -0.7705132427757891 0.63742398974869 0
    outer loop
      vertex -18.202882373436317 13.225168176580645 -5
      vertex -18.202882373436317 13.225168176580645 0
      vertex -16.401794116981762 15.40230988339549 0
    endloop
  endfacet
  facet normal -0.6845471059286892 0.7289686274214111 0
    outer loop
      vertex -14.342039769345517 17.33654796245526 -5
      vertex -16.401794116981762 15.40230988339549 0
      vertex -14.342039769345517 17.33654796245526 0
    endloop
  endfacet
  facet normal -0.5877852522924731 0.8090169943749473 0
    outer loop
      vertex -12.056102887027427 18.99737832379534 -5
      vertex -14.342039769345517 17.33654796245526 0
      vertex -12.056102887027427 18.99737832379534 0
    endloop
  endfacet
  facet normal 0 0 1
    outer loop
      vertex -9.58003406021413 -20.35860868048544 0
      vertex -9.580034060214135 20.35860868048544 0
      vertex -12.056102887027427 18.99737832379534 0
    endloop
  endfacet
  facet normal 0 0 1
    outer loop
      vertex -6.952882373436316 -21.398771616640953 0
      vertex -6.952882373436316 21.398771616640953 0
      vertex -9.580034060214135 20.35860868048544 0
    endloop
  endfacet
  facet normal 0 0 1
    outer loop
      vertex -6.952882373436316 21.398771616640953 0
      vertex -4.269799999892712 0 0
      vertex -2.134900003671646 3.6977552697062492 0
    endloop
  endfacet
  facet normal 0 0 1
    outer loop
      vertex -1.4127866894095487 22.45560138963611 0
      vertex -2.134900003671646 3.6977552697062492 0
      vertex 2.134900003671646 3.6977552697062492 0
    endloop
  endfacet
  facet normal -0.4817536741017151 0.8763066800438637 0
    outer loop
      vertex -9.580034060214135 20.35860868048544 -5
      vertex -12.056102887027427 18.99737832379534 0
      vertex -9.580034060214135 20.35860868048544 0
    endloop
  endfacet
  facet normal -0.3681245526846773 0.9297764858882517 0
    outer loop
      vertex -6.952882373436316 21.398771616640953 -5
      vertex -9.580034060214135 20.35860868048544 0
      vertex -6.952882373436316 21.398771616640953 0
    endloop
  endfacet
  facet normal -0.24868988716485538 0.9685831611286311 0
    outer loop
      vertex -4.216079578178803 22.101463141395495 -5
      vertex -6.952882373436316 21.398771616640953 0
      vertex -4.216079578178803 22.101463141395495 0
    endloop
  endfacet
  facet normal -0.12533323356430473 0.9921147013144778 0
    outer loop
      vertex -1.4127866894095487 22.45560138963611 -5
      vertex -4.216079578178803 22.101463141395495 0
      vertex -1.4127866894095487 22.45560138963611 0
    endloop
  endfacet
  facet normal 0 0 1
    outer loop
      vertex -6.952882373436316 21.398771616640953 0
      vertex -2.134900003671646 3.6977552697062492 0
      vertex -4.216079578178803 22.101463141395495 0
    endloop
  endfacet
  facet normal 0 0 1
    outer loop
      vertex -4.216079578178803 22.101463141395495 0
      vertex -2.134900003671646 3.6977552697062492 0
      vertex -1.4127866894095487 22.45560138963611 0
    endloop
  endfacet
  facet normal 0 -1 0
    outer loop
      vertex -1.4127866894095598 -22.45560138963611 -5
      vertex 1.4127866894095598 -22.45560138963611 -5
      vertex 1.4127866894095598 -22.45560138963611 0
    endloop
  endfacet
  facet normal 0.12533323356430498 -0.9921147013144778 0
    outer loop
      vertex 1.4127866894095598 -22.45560138963611 -5
      vertex 4.2160795781788085 -22.101463141395495 -5
      vertex 4.2160795781788085 -22.101463141395495 0
    endloop
  endfacet
  facet normal 0.24868988716485585 -0.9685831611286309 0
    outer loop
      vertex 4.2160795781788085 -22.101463141395495 -5
      vertex 6.952882373436316 -21.398771616640953 -5
      vertex 6.952882373436316 -21.398771616640953 0
    endloop
  endfacet
  facet normal 0.3681245526846779 -0.9297764858882513 0
    outer loop
      vertex 6.952882373436316 -21.398771616640953 -5
      vertex 9.58003406021413 -20.35860868048544 -5
      vertex 9.58003406021413 -20.35860868048544 0
    endloop
  endfacet
  facet normal 0.4817536741017142 -0.8763066800438643 0
    outer loop
      vertex 9.58003406021413 -20.35860868048544 -5
      vertex 12.056102887027414 -18.997378323795346 -5
      vertex 12.056102887027414 -18.997378323795346 0
    endloop
  endfacet
  facet normal 0 0 -1
    outer loop
      vertex 1.4127866894095598 -22.45560138963611 -5
      vertex -0.14127866894095598 -2.245560138963611 -5
      vertex 0.14127866894095598 -2.245560138963611 -5
    endloop
  endfacet
  facet normal 0 0 -1
    outer loop
      vertex 1.4127866894095598 -22.45560138963611 -5
      vertex 0.14127866894095598 -2.245560138963611 -5
      vertex 0.42160795781788085 -2.2101463141395494 -5
    endloop
  endfacet
  facet normal 0 0 -1
    outer loop
      vertex 1.4127866894095598 -22.45560138963611 -5
      vertex 0.42160795781788085 -2.2101463141395494 -5
      vertex 0.6952882373436317 -2.1398771616640953 -5
    endloop
  endfacet
  facet normal 0 0 -1
    outer loop
      vertex 1.4127866894095598 -22.45560138963611 -5
      vertex 0.6952882373436317 -2.1398771616640953 -5
      vertex 0.958003406021413 -2.035860868048544 -5
    endloop
  endfacet
  facet normal 0 0 -1
    outer loop
      vertex 1.4127866894095598 -22.45560138963611 -5
      vertex 0.958003406021413 -2.035860868048544 -5
      vertex 1.2056102887027416 -1.8997378323795344 -5
    endloop
  endfacet
  facet normal 0 0 -1
    outer loop
      vertex 1.4127866894095598 -22.45560138963611 -5
      vertex 1.2056102887027416 -1.8997378323795344 -5
      vertex 1.4342039769345525 -1.7336547962455253 -5
    endloop
  endfacet
  facet normal 0 0 -1
    outer loop
      vertex 1.4127866894095598 -22.45560138963611 -5
      vertex 1.4342039769345525 -1.7336547962455253 -5
      vertex 1.6401794116981763 -1.540230988339549 -5
    endloop
  endfacet
  facet normal 0 0 -1
    outer loop
      vertex 1.4127866894095598 -22.45560138963611 -5
      vertex 1.6401794116981763 -1.540230988339549 -5
      vertex 1.8202882373436318 -1.3225168176580646 -5
    endloop
  endfacet
  facet normal 0 0 -1
    outer loop
      vertex 1.4127866894095598 -22.45560138963611 -5
      vertex 1.8202882373436318 -1.3225168176580646 -5
      vertex 1.9716900300986928 -1.0839457667288597 -5
    endloop
  endfacet
  facet normal 0 0 -1
    outer loop
      vertex 1.4127866894095598 -22.45560138963611 -5
      vertex 1.9716900300986928 -1.0839457667288597 -5
      vertex 2.0919970932485654 -0.8282802435405263 -5
    endloop
  endfacet
  facet normal 0 0 -1
    outer loop
      vertex 1.4127866894095598 -22.45560138963611 -5
      vertex 2.0919970932485654 -0.8282802435405263 -5
      vertex 2.1793121125394204 -0.5595522461209225 -5
    endloop
  endfacet
  facet normal 0 0 -1
    outer loop
      vertex 1.4127866894095598 -22.45560138963611 -5
      vertex 2.1793121125394204 -0.5595522461209225 -5
      vertex 2.2322580779575754 -0.28199977551968414 -5
    endloop
  endfacet
  facet normal 0 0 -1
    outer loop
      vertex 1.4127866894095598 -22.45560138963611 -5
      vertex 2.2322580779575754 -0.28199977551968414 -5
      vertex 2.25 0 -5
    endloop
  endfacet
  facet normal 0 0 -1
    outer loop
      vertex 1.4127866894095598 -22.45560138963611 -5
      vertex 4.216079578178803 22.101463141395495 -5
      vertex 4.2160795781788085 -22.101463141395495 -5
    endloop
  endfacet
  facet normal 0 0 -1
    outer loop
      vertex 1.4127866894095598 -22.45560138963611 -5
      vertex 2.25 0 -5
      vertex 4.216079578178803 22.101463141395495 -5
    endloop
  endfacet
  facet normal 0 0 -1
    outer loop
      vertex 4.2160795781788085 -22.101463141395495 -5
      vertex 6.952882373436316 21.398771616640953 -5
      vertex 6.952882373436316 -21.398771616640953 -5
    endloop
  endfacet
  facet normal 0 0 -1
    outer loop
      vertex 6.952882373436316 -21.398771616640953 -5
      vertex 9.580034060214135 20.35860868048544 -5
      vertex 9.58003406021413 -20.35860868048544 -5
    endloop
  endfacet
  facet normal 0 0 -1
    outer loop
      vertex 9.58003406021413 -20.35860868048544 -5
      vertex 12.056102887027425 18.99737832379534 -5
      vertex 12.056102887027414 -18.997378323795346 -5
    endloop
  endfacet
  facet normal 0.5877852522924731 -0.8090169943749473 0
    outer loop
      vertex 12.056102887027414 -18.997378323795346 -5
      vertex 14.342039769345524 -17.336547962455253 -5
      vertex 14.342039769345524 -17.336547962455253 0
    endloop
  endfacet
  facet normal 0.6845471059286891 -0.7289686274214111 0
    outer loop
      vertex 14.342039769345524 -17.336547962455253 -5
      vertex 16.401794116981762 -15.40230988339549 -5
      vertex 16.401794116981762 -15.40230988339549 0
    endloop
  endfacet
  facet normal 0.7705132427757891 -0.63742398974869 0
    outer loop
      vertex 16.401794116981762 -15.40230988339549 -5
      vertex 18.202882373436317 -13.225168176580645 -5
      vertex 16.401794116981762 -15.40230988339549 0
    endloop
  endfacet
  facet normal 0.8443279255020153 -0.5358267949789963 0
    outer loop
      vertex 18.202882373436317 -13.225168176580645 -5
      vertex 19.71690030098693 -10.839457667288595 -5
      vertex 18.202882373436317 -13.225168176580645 0
    endloop
  endfacet
  facet normal 0 0 -1
    outer loop
      vertex 12.056102887027414 -18.997378323795346 -5
      vertex 14.342039769345519 17.336547962455256 -5
      vertex 14.342039769345524 -17.336547962455253 -5
    endloop
  endfacet
  facet normal 0 0 -1
    outer loop
      vertex 14.342039769345524 -17.336547962455253 -5
      vertex 16.40179411698176 15.402309883395496 -5
      vertex 16.401794116981762 -15.40230988339549 -5
    endloop
  endfacet
  facet normal 0 0 -1
    outer loop
      vertex 16.401794116981762 -15.40230988339549 -5
      vertex 18.202882373436317 13.225168176580645 -5
      vertex 18.202882373436317 -13.225168176580645 -5
    endloop
  endfacet
  facet normal 0 0 -1
    outer loop
      vertex 18.202882373436317 -13.225168176580645 -5
      vertex 19.716900300986932 10.839457667288595 -5
      vertex 19.71690030098693 -10.839457667288595 -5
    endloop
  endfacet
  facet normal 0 0 -1
    outer loop
      vertex 19.71690030098693 -10.839457667288595 -5
      vertex 20.919970932485654 8.282802435405255 -5
      vertex 20.919970932485654 -8.282802435405262 -5
    endloop
  endfacet
  facet normal 0 0 -1
    outer loop
      vertex 20.919970932485654 -8.282802435405262 -5
      vertex 21.7931211253942 5.5955224612092325 -5
      vertex 21.7931211253942 -5.5955224612092245 -5
    endloop
  endfacet
  facet normal 0 0 -1
    outer loop
      vertex 21.7931211253942 -5.5955224612092245 -5
      vertex 22.322580779575752 2.819997755196846 -5
      vertex 22.322580779575752 -2.8199977551968414 -5
    endloop
  endfacet
  facet normal 0.9048270524660191 -0.4257792915650735 0
    outer loop
      vertex 19.71690030098693 -10.839457667288595 -5
      vertex 20.919970932485654 -8.282802435405262 -5
      vertex 19.71690030098693 -10.839457667288595 0
    endloop
  endfacet
  facet normal 0.9510565162951538 -0.30901699437494673 0
    outer loop
      vertex 20.919970932485654 -8.282802435405262 -5
      vertex 21.7931211253942 -5.5955224612092245 -5
      vertex 20.919970932485654 -8.282802435405262 0
    endloop
  endfacet
  facet normal 0.9822872507286886 -0.18738131458572482 0
    outer loop
      vertex 21.7931211253942 -5.5955224612092245 -5
      vertex 22.322580779575752 -2.8199977551968414 -5
      vertex 21.7931211253942 -5.5955224612092245 0
    endloop
  endfacet
  facet normal 0.9980267284282716 -0.06279051952931325 0
    outer loop
      vertex 22.322580779575752 -2.8199977551968414 -5
      vertex 22.5 0 -5
      vertex 22.322580779575752 -2.8199977551968414 0
    endloop
  endfacet
  facet normal 0.12533323356430498 -0.9921147013144778 0
    outer loop
      vertex 1.4127866894095598 -22.45560138963611 -5
      vertex 4.2160795781788085 -22.101463141395495 0
      vertex 1.4127866894095598 -22.45560138963611 0
    endloop
  endfacet
  facet normal 0.24868988716485585 -0.9685831611286309 0
    outer loop
      vertex 4.2160795781788085 -22.101463141395495 -5
      vertex 6.952882373436316 -21.398771616640953 0
      vertex 4.2160795781788085 -22.101463141395495 0
    endloop
  endfacet
  facet normal 0.3681245526846779 -0.9297764858882513 0
    outer loop
      vertex 6.952882373436316 -21.398771616640953 -5
      vertex 9.58003406021413 -20.35860868048544 0
      vertex 6.952882373436316 -21.398771616640953 0
    endloop
  endfacet
  facet normal 0.4817536741017142 -0.8763066800438643 0
    outer loop
      vertex 9.58003406021413 -20.35860868048544 -5
      vertex 12.056102887027414 -18.997378323795346 0
      vertex 9.58003406021413 -20.35860868048544 0
    endloop
  endfacet
  facet normal 0 0 1
    outer loop
      vertex 1.4127866894095598 -22.45560138963611 0
      vertex 4.2160795781788085 -22.101463141395495 0
      vertex 2.134900003671646 -3.6977552697062492 0
    endloop
  endfacet
  facet normal 0 0 1
    outer loop
      vertex 4.2160795781788085 -22.101463141395495 0
      vertex 6.952882373436316 -21.398771616640953 0
      vertex 2.134900003671646 -3.6977552697062492 0
    endloop
  endfacet
  facet normal 0 0 1
    outer loop
      vertex 1.4127866894095598 -22.45560138963611 0
      vertex 2.134900003671646 -3.6977552697062492 0
      vertex -2.134900003671646 -3.6977552697062492 0
    endloop
  endfacet
  facet normal 0 0 1
    outer loop
      vertex 6.952882373436316 -21.398771616640953 0
      vertex 4.269799999892712 0 0
      vertex 2.134900003671646 -3.6977552697062492 0
    endloop
  endfacet
  facet normal 0 0 1
    outer loop
      vertex 6.952882373436316 -21.398771616640953 0
      vertex 9.58003406021413 -20.35860868048544 0
      vertex 6.952882373436316 21.398771616640953 0
    endloop
  endfacet
  facet normal 0 0 1
    outer loop
      vertex 9.58003406021413 -20.35860868048544 0
      vertex 12.056102887027414 -18.997378323795346 0
      vertex 9.580034060214135 20.35860868048544 0
    endloop
  endfacet
  facet normal 0.5877852522924731 -0.8090169943749473 0
    outer loop
      vertex 12.056102887027414 -18.997378323795346 -5
      vertex 14.342039769345524 -17.336547962455253 0
      vertex 12.056102887027414 -18.997378323795346 0
    endloop
  endfacet
  facet normal 0.6845471059286891 -0.7289686274214111 0
    outer loop
      vertex 14.342039769345524 -17.336547962455253 -5
      vertex 16.401794116981762 -15.40230988339549 0
      vertex 14.342039769345524 -17.336547962455253 0
    endloop
  endfacet
  facet normal 0.7705132427757891 -0.63742398974869 0
    outer loop
      vertex 18.202882373436317 -13.225168176580645 -5
      vertex 18.202882373436317 -13.225168176580645 0
      vertex 16.401794116981762 -15.40230988339549 0
    endloop
  endfacet
  facet normal 0.8443279255020153 -0.5358267949789963 0
    outer loop
      vertex 19.71690030098693 -10.839457667288595 -5
      vertex 19.71690030098693 -10.839457667288595 0
      vertex 18.202882373436317 -13.225168176580645 0
    endloop
  endfacet
  facet normal 0.9048270524660191 -0.4257792915650735 0
    outer loop
      vertex 20.919970932485654 -8.282802435405262 -5
      vertex 20.919970932485654 -8.282802435405262 0
      vertex 19.71690030098693 -10.839457667288595 0
    endloop
  endfacet
  facet normal 0.9510565162951538 -0.30901699437494673 0
    outer loop
      vertex 21.7931211253942 -5.5955224612092245 -5
      vertex 21.7931211253942 -5.5955224612092245 0
      vertex 20.919970932485654 -8.282802435405262 0
    endloop
  endfacet
  facet normal 0.9822872507286886 -0.18738131458572482 0
    outer loop
      vertex 22.322580779575752 -2.8199977551968414 -5
      vertex 22.322580779575752 -2.8199977551968414 0
      vertex 21.7931211253942 -5.5955224612092245 0
    endloop
  endfacet
  facet normal 0.9980267284282716 -0.06279051952931325 0
    outer loop
      vertex 22.322580779575752 -2.8199977551968414 0
      vertex 22.5 0 -5
      vertex 22.5 0 0
    endloop
  endfacet
  facet normal 0 0 1
    outer loop
      vertex 12.056102887027414 -18.997378323795346 0
      vertex 14.342039769345524 -17.336547962455253 0
      vertex 12.056102887027425 18.99737832379534 0
    endloop
  endfacet
  facet normal 0 0 1
    outer loop
      vertex 14.342039769345524 -17.336547962455253 0
      vertex 16.401794116981762 -15.40230988339549 0
      vertex 14.342039769345519 17.336547962455256 0
    endloop
  endfacet
  facet normal 0 0 1
    outer loop
      vertex 16.401794116981762 -15.40230988339549 0
      vertex 18.202882373436317 -13.225168176580645 0
      vertex 16.40179411698176 15.402309883395496 0
    endloop
  endfacet
  facet normal 0 0 1
    outer loop
      vertex 18.202882373436317 -13.225168176580645 0
      vertex 19.71690030098693 -10.839457667288595 0
      vertex 18.202882373436317 13.225168176580645 0
    endloop
  endfacet
  facet normal 0 0 1
    outer loop
      vertex 19.71690030098693 -10.839457667288595 0
      vertex 20.919970932485654 -8.282802435405262 0
      vertex 19.716900300986932 10.839457667288595 0
    endloop
  endfacet
  facet normal 0 0 1
    outer loop
      vertex 20.919970932485654 -8.282802435405262 0
      vertex 21.7931211253942 -5.5955224612092245 0
      vertex 20.919970932485654 8.282802435405255 0
    endloop
  endfacet
  facet normal 0 0 1
    outer loop
      vertex 21.7931211253942 -5.5955224612092245 0
      vertex 22.322580779575752 -2.8199977551968414 0
      vertex 21.7931211253942 5.5955224612092325 0
    endloop
  endfacet
  facet normal 0 0 -1
    outer loop
      vertex 4.216079578178803 22.101463141395495 -5
      vertex 2.0919970932485654 0.8282802435405254 -5
      vertex 1.971690030098693 1.0839457667288595 -5
    endloop
  endfacet
  facet normal 0 0 -1
    outer loop
      vertex 4.216079578178803 22.101463141395495 -5
      vertex 1.8202882373436318 1.3225168176580646 -5
      vertex 1.640179411698176 1.5402309883395495 -5
    endloop
  endfacet
  facet normal 0 0 -1
    outer loop
      vertex 4.216079578178803 22.101463141395495 -5
      vertex 1.971690030098693 1.0839457667288595 -5
      vertex 1.8202882373436318 1.3225168176580646 -5
    endloop
  endfacet
  facet normal 0 0 -1
    outer loop
      vertex 1.4127866894095487 22.45560138963611 -5
      vertex 0.4216079578178803 2.2101463141395494 -5
      vertex 0.14127866894094993 2.245560138963611 -5
    endloop
  endfacet
  facet normal 0 0 -1
    outer loop
      vertex 1.4127866894095487 22.45560138963611 -5
      vertex 0.6952882373436317 2.1398771616640953 -5
      vertex 0.4216079578178803 2.2101463141395494 -5
    endloop
  endfacet
  facet normal 0 0 -1
    outer loop
      vertex 1.4127866894095487 22.45560138963611 -5
      vertex 0.9580034060214137 2.0358608680485437 -5
      vertex 0.6952882373436317 2.1398771616640953 -5
    endloop
  endfacet
  facet normal 0 0 -1
    outer loop
      vertex 1.4127866894095487 22.45560138963611 -5
      vertex 1.2056102887027424 1.899737832379534 -5
      vertex 0.9580034060214137 2.0358608680485437 -5
    endloop
  endfacet
  facet normal 0 0 -1
    outer loop
      vertex 4.216079578178803 22.101463141395495 -5
      vertex 1.434203976934552 1.7336547962455255 -5
      vertex 1.2056102887027424 1.899737832379534 -5
    endloop
  endfacet
  facet normal 0 0 -1
    outer loop
      vertex 4.216079578178803 22.101463141395495 -5
      vertex 1.640179411698176 1.5402309883395495 -5
      vertex 1.434203976934552 1.7336547962455255 -5
    endloop
  endfacet
  facet normal 0 0 -1
    outer loop
      vertex 4.216079578178803 22.101463141395495 -5
      vertex 2.25 0 -5
      vertex 2.2322580779575754 0.2819997755196846 -5
    endloop
  endfacet
  facet normal 0 0 -1
    outer loop
      vertex 4.216079578178803 22.101463141395495 -5
      vertex 2.2322580779575754 0.2819997755196846 -5
      vertex 2.17931211253942 0.5595522461209232 -5
    endloop
  endfacet
  facet normal 0 0 -1
    outer loop
      vertex 4.216079578178803 22.101463141395495 -5
      vertex 2.17931211253942 0.5595522461209232 -5
      vertex 2.0919970932485654 0.8282802435405254 -5
    endloop
  endfacet
  facet normal 0 0 -1
    outer loop
      vertex 4.2160795781788085 -22.101463141395495 -5
      vertex 4.216079578178803 22.101463141395495 -5
      vertex 6.952882373436316 21.398771616640953 -5
    endloop
  endfacet
  facet normal 0 0 -1
    outer loop
      vertex 6.952882373436316 -21.398771616640953 -5
      vertex 6.952882373436316 21.398771616640953 -5
      vertex 9.580034060214135 20.35860868048544 -5
    endloop
  endfacet
  facet normal 0 0 -1
    outer loop
      vertex 9.58003406021413 -20.35860868048544 -5
      vertex 9.580034060214135 20.35860868048544 -5
      vertex 12.056102887027425 18.99737832379534 -5
    endloop
  endfacet
  facet normal 0 0 -1
    outer loop
      vertex -1.4127866894095487 22.45560138963611 -5
      vertex 1.4127866894095487 22.45560138963611 -5
      vertex 0.14127866894094993 2.245560138963611 -5
    endloop
  endfacet
  facet normal 0 0 -1
    outer loop
      vertex 1.4127866894095487 22.45560138963611 -5
      vertex 4.216079578178803 22.101463141395495 -5
      vertex 1.2056102887027424 1.899737832379534 -5
    endloop
  endfacet
  facet normal 0.12533323356430473 0.9921147013144778 0
    outer loop
      vertex 1.4127866894095487 22.45560138963611 -5
      vertex 1.4127866894095487 22.45560138963611 0
      vertex 4.216079578178803 22.101463141395495 -5
    endloop
  endfacet
  facet normal 0.24868988716485538 0.9685831611286311 0
    outer loop
      vertex 4.216079578178803 22.101463141395495 -5
      vertex 4.216079578178803 22.101463141395495 0
      vertex 6.952882373436316 21.398771616640953 -5
    endloop
  endfacet
  facet normal 0.3681245526846773 0.9297764858882517 0
    outer loop
      vertex 6.952882373436316 21.398771616640953 -5
      vertex 6.952882373436316 21.398771616640953 0
      vertex 9.580034060214135 20.35860868048544 -5
    endloop
  endfacet
  facet normal 0.4817536741017154 0.8763066800438636 0
    outer loop
      vertex 9.580034060214135 20.35860868048544 -5
      vertex 9.580034060214135 20.35860868048544 0
      vertex 12.056102887027425 18.99737832379534 -5
    endloop
  endfacet
  facet normal 0 0 -1
    outer loop
      vertex 14.342039769345524 -17.336547962455253 -5
      vertex 14.342039769345519 17.336547962455256 -5
      vertex 16.40179411698176 15.402309883395496 -5
    endloop
  endfacet
  facet normal 0 0 -1
    outer loop
      vertex 12.056102887027414 -18.997378323795346 -5
      vertex 12.056102887027425 18.99737832379534 -5
      vertex 14.342039769345519 17.336547962455256 -5
    endloop
  endfacet
  facet normal 0 0 -1
    outer loop
      vertex 16.401794116981762 -15.40230988339549 -5
      vertex 16.40179411698176 15.402309883395496 -5
      vertex 18.202882373436317 13.225168176580645 -5
    endloop
  endfacet
  facet normal 0 0 -1
    outer loop
      vertex 18.202882373436317 -13.225168176580645 -5
      vertex 18.202882373436317 13.225168176580645 -5
      vertex 19.716900300986932 10.839457667288595 -5
    endloop
  endfacet
  facet normal 0 0 -1
    outer loop
      vertex 19.71690030098693 -10.839457667288595 -5
      vertex 19.716900300986932 10.839457667288595 -5
      vertex 20.919970932485654 8.282802435405255 -5
    endloop
  endfacet
  facet normal 0 0 -1
    outer loop
      vertex 22.322580779575752 -2.8199977551968414 -5
      vertex 22.322580779575752 2.819997755196846 -5
      vertex 22.5 0 -5
    endloop
  endfacet
  facet normal 0 0 -1
    outer loop
      vertex 21.7931211253942 -5.5955224612092245 -5
      vertex 21.7931211253942 5.5955224612092325 -5
      vertex 22.322580779575752 2.819997755196846 -5
    endloop
  endfacet
  facet normal 0 0 -1
    outer loop
      vertex 20.919970932485654 -8.282802435405262 -5
      vertex 20.919970932485654 8.282802435405255 -5
      vertex 21.7931211253942 5.5955224612092325 -5
    endloop
  endfacet
  facet normal 0.9980267284282716 0.06279051952931315 0
    outer loop
      vertex 22.5 0 -5
      vertex 22.322580779575752 2.819997755196846 -5
      vertex 22.5 0 0
    endloop
  endfacet
  facet normal 0.9822872507286887 0.1873813145857246 0
    outer loop
      vertex 22.322580779575752 2.819997755196846 -5
      vertex 21.7931211253942 5.5955224612092325 -5
      vertex 22.322580779575752 2.819997755196846 0
    endloop
  endfacet
  facet normal 0.9510565162951533 0.3090169943749483 0
    outer loop
      vertex 21.7931211253942 5.5955224612092325 -5
      vertex 20.919970932485654 8.282802435405255 -5
      vertex 21.7931211253942 5.5955224612092325 0
    endloop
  endfacet
  facet normal 0.9048270524660201 0.42577929156507144 0
    outer loop
      vertex 20.919970932485654 8.282802435405255 -5
      vertex 19.716900300986932 10.839457667288595 -5
      vertex 20.919970932485654 8.282802435405255 0
    endloop
  endfacet
  facet normal 0.6845471059286884 0.7289686274214118 0
    outer loop
      vertex 16.40179411698176 15.402309883395496 -5
      vertex 14.342039769345519 17.336547962455256 -5
      vertex 14.342039769345519 17.336547962455256 0
    endloop
  endfacet
  facet normal 0.5877852522924734 0.8090169943749472 0
    outer loop
      vertex 12.056102887027425 18.99737832379534 -5
      vertex 12.056102887027425 18.99737832379534 0
      vertex 14.342039769345519 17.336547962455256 -5
    endloop
  endfacet
  facet normal 0.7705132427757893 0.6374239897486899 0
    outer loop
      vertex 16.40179411698176 15.402309883395496 -5
      vertex 18.202882373436317 13.225168176580645 0
      vertex 18.202882373436317 13.225168176580645 -5
    endloop
  endfacet
  facet normal 0.8443279255020147 0.5358267949789972 0
    outer loop
      vertex 19.716900300986932 10.839457667288595 -5
      vertex 18.202882373436317 13.225168176580645 -5
      vertex 19.716900300986932 10.839457667288595 0
    endloop
  endfacet
  facet normal 0 0 1
    outer loop
      vertex 6.952882373436316 -21.398771616640953 0
      vertex 4.216079578178803 22.101463141395495 0
      vertex 4.269799999892712 0 0
    endloop
  endfacet
  facet normal 0 0 1
    outer loop
      vertex 1.4127866894095487 22.45560138963611 0
      vertex 2.134900003671646 3.6977552697062492 0
      vertex 4.269799999892712 0 0
    endloop
  endfacet
  facet normal 0 0 1
    outer loop
      vertex 6.952882373436316 -21.398771616640953 0
      vertex 6.952882373436316 21.398771616640953 0
      vertex 4.216079578178803 22.101463141395495 0
    endloop
  endfacet
  facet normal 0 0 1
    outer loop
      vertex 9.58003406021413 -20.35860868048544 0
      vertex 9.580034060214135 20.35860868048544 0
      vertex 6.952882373436316 21.398771616640953 0
    endloop
  endfacet
  facet normal 0 0 1
    outer loop
      vertex 12.056102887027414 -18.997378323795346 0
      vertex 12.056102887027425 18.99737832379534 0
      vertex 9.580034060214135 20.35860868048544 0
    endloop
  endfacet
  facet normal 0 1 0
    outer loop
      vertex -1.4127866894095487 22.45560138963611 0
      vertex 1.4127866894095487 22.45560138963611 0
      vertex 1.4127866894095487 22.45560138963611 -5
    endloop
  endfacet
  facet normal 0.12533323356430473 0.9921147013144778 0
    outer loop
      vertex 4.216079578178803 22.101463141395495 -5
      vertex 1.4127866894095487 22.45560138963611 0
      vertex 4.216079578178803 22.101463141395495 0
    endloop
  endfacet
  facet normal 0.24868988716485538 0.9685831611286311 0
    outer loop
      vertex 6.952882373436316 21.398771616640953 -5
      vertex 4.216079578178803 22.101463141395495 0
      vertex 6.952882373436316 21.398771616640953 0
    endloop
  endfacet
  facet normal 0.4817536741017154 0.8763066800438636 0
    outer loop
      vertex 12.056102887027425 18.99737832379534 -5
      vertex 9.580034060214135 20.35860868048544 0
      vertex 12.056102887027425 18.99737832379534 0
    endloop
  endfacet
  facet normal 0.3681245526846773 0.9297764858882517 0
    outer loop
      vertex 9.580034060214135 20.35860868048544 -5
      vertex 6.952882373436316 21.398771616640953 0
      vertex 9.580034060214135 20.35860868048544 0
    endloop
  endfacet
  facet normal 0 0 1
    outer loop
      vertex -1.4127866894095487 22.45560138963611 0
      vertex 2.134900003671646 3.6977552697062492 0
      vertex 1.4127866894095487 22.45560138963611 0
    endloop
  endfacet
  facet normal 0 0 1
    outer loop
      vertex 1.4127866894095487 22.45560138963611 0
      vertex 4.269799999892712 0 0
      vertex 4.216079578178803 22.101463141395495 0
    endloop
  endfacet
  facet normal 0.9980267284282716 0.06279051952931315 0
    outer loop
      vertex 22.322580779575752 2.819997755196846 -5
      vertex 22.322580779575752 2.819997755196846 0
      vertex 22.5 0 0
    endloop
  endfacet
  facet normal 0.9822872507286887 0.1873813145857246 0
    outer loop
      vertex 21.7931211253942 5.5955224612092325 -5
      vertex 21.7931211253942 5.5955224612092325 0
      vertex 22.322580779575752 2.819997755196846 0
    endloop
  endfacet
  facet normal 0.9510565162951533 0.3090169943749483 0
    outer loop
      vertex 20.919970932485654 8.282802435405255 -5
      vertex 20.919970932485654 8.282802435405255 0
      vertex 21.7931211253942 5.5955224612092325 0
    endloop
  endfacet
  facet normal 0.9048270524660201 0.42577929156507144 0
    outer loop
      vertex 19.716900300986932 10.839457667288595 -5
      vertex 19.716900300986932 10.839457667288595 0
      vertex 20.919970932485654 8.282802435405255 0
    endloop
  endfacet
  facet normal 0 0 1
    outer loop
      vertex 14.342039769345524 -17.336547962455253 0
      vertex 14.342039769345519 17.336547962455256 0
      vertex 12.056102887027425 18.99737832379534 0
    endloop
  endfacet
  facet normal 0 0 1
    outer loop
      vertex 16.401794116981762 -15.40230988339549 0
      vertex 16.40179411698176 15.402309883395496 0
      vertex 14.342039769345519 17.336547962455256 0
    endloop
  endfacet
  facet normal 0 0 1
    outer loop
      vertex 18.202882373436317 -13.225168176580645 0
      vertex 18.202882373436317 13.225168176580645 0
      vertex 16.40179411698176 15.402309883395496 0
    endloop
  endfacet
  facet normal 0 0 1
    outer loop
      vertex 19.71690030098693 -10.839457667288595 0
      vertex 19.716900300986932 10.839457667288595 0
      vertex 18.202882373436317 13.225168176580645 0
    endloop
  endfacet
  facet normal 0 0 1
    outer loop
      vertex 22.322580779575752 -2.8199977551968414 0
      vertex 22.5 0 0
      vertex 22.322580779575752 2.819997755196846 0
    endloop
  endfacet
  facet normal 0 0 1
    outer loop
      vertex 21.7931211253942 -5.5955224612092245 0
      vertex 21.7931211253942 5.5955224612092325 0
      vertex 20.919970932485654 8.282802435405255 0
    endloop
  endfacet
  facet normal 0 0 1
    outer loop
      vertex 22.322580779575752 -2.8199977551968414 0
      vertex 22.322580779575752 2.819997755196846 0
      vertex 21.7931211253942 5.5955224612092325 0
    endloop
  endfacet
  facet normal 0 0 1
    outer loop
      vertex 20.919970932485654 -8.282802435405262 0
      vertex 20.919970932485654 8.282802435405255 0
      vertex 19.716900300986932 10.839457667288595 0
    endloop
  endfacet
  facet normal 0.6845471059286884 0.7289686274214118 0
    outer loop
      vertex 16.40179411698176 15.402309883395496 -5
      vertex 14.342039769345519 17.336547962455256 0
      vertex 16.40179411698176 15.402309883395496 0
    endloop
  endfacet
  facet normal 0.5877852522924734 0.8090169943749472 0
    outer loop
      vertex 14.342039769345519 17.336547962455256 -5
      vertex 12.056102887027425 18.99737832379534 0
      vertex 14.342039769345519 17.336547962455256 0
    endloop
  endfacet
  facet normal 0.8443279255020147 0.5358267949789972 0
    outer loop
      vertex 18.202882373436317 13.225168176580645 -5
      vertex 18.202882373436317 13.225168176580645 0
      vertex 19.716900300986932 10.839457667288595 0
    endloop
  endfacet
  facet normal 0.7705132427757893 0.6374239897486899 0
    outer loop
      vertex 16.40179411698176 15.402309883395496 -5
      vertex 16.40179411698176 15.402309883395496 0
      vertex 18.202882373436317 13.225168176580645 0
    endloop
  endfacet
endsolid OpenSCAD_Model
