solid OpenSCAD_Model
  facet normal 0.7536904345143154 0.4783064941172184 0.45074785258159317
    outer loop
      vertex -2.4126042510824326 -1.752859591657911 -3
      vertex -2.6132717065593787 -1.4366582781247585 -3
      vertex -3.9433800601973856 -2.1678915334577193 0
    endloop
  endfacet
  facet normal 0.6877996607792317 0.5689973638120444 0.4507478525815931
    outer loop
      vertex -2.1738885853459955 -2.041417262323053 -3
      vertex -2.4126042510824326 -1.752859591657911 -3
      vertex -3.6405764746872635 -2.6450336353161292 0
    endloop
  endfacet
  facet normal 0.5246872794572316 0.7221700853461401 0.4507478525815932
    outer loop
      vertex -1.5979120493123653 -2.5179064921220804 -3
      vertex -1.9008893980005566 -2.2977805632778003 -3
      vertex -2.4112205774054853 -3.7994756647590675 0
    endloop
  endfacet
  facet normal 0.6110618755220592 0.6507148051770036 0.4507478525815932
    outer loop
      vertex -1.9008893980005566 -2.2977805632778003 -3
      vertex -2.1738885853459955 -2.041417262323053 -3
      vertex -2.868407953869103 -3.467309592491052 0
    endloop
  endfacet
  facet normal 0.8076950598642658 0.3800724452837147 0.45074785258159333
    outer loop
      vertex -4.183994186497132 -1.6565604870810504 0
      vertex -2.6132717065593787 -1.4366582781247585 -3
      vertex -2.7727263061310357 -1.0978000053275216 -3
    endloop
  endfacet
  facet normal 0.8489618516265156 0.27584442694381284 0.45074785258159317
    outer loop
      vertex -4.35862422507884 -1.119104492241847 0
      vertex -2.7727263061310357 -1.0978000053275216 -3
      vertex -2.8884533555085965 -0.741628770652335 -3
    endloop
  endfacet
  facet normal 0.8768400078433869 0.16726617720953446 0.4507478525815933
    outer loop
      vertex -2.8884533555085965 -0.741628770652335 -3
      vertex -2.9586277699913897 -0.3737616072364067 -3
      vertex -4.464516155915151 -0.5639995510393683 0
    endloop
  endfacet
  facet normal 0.8908898733377373 0.05605003994068918 0.4507478525815932
    outer loop
      vertex -2.9586277699913897 -0.3737616072364067 -3
      vertex -2.982142857142857 0 -3
      vertex -4.5 0 0
    endloop
  endfacet
  facet normal 0.4300380515623761 0.7822363118658693 0.4507478525815933
    outer loop
      vertex -1.5979120493123653 -2.5179064921220804 -3
      vertex -1.916006812042826 -4.071721736097088 0
      vertex -1.2697346730601269 -2.6983235314611655 -3
    endloop
  endfacet
  facet normal 0.32860686670210093 0.8299662044621515 0.4507478525815932
    outer loop
      vertex -1.2697346730601269 -2.6983235314611655 -3
      vertex -1.3905764746872633 -4.2797543233281905 0
      vertex -0.9215328225110039 -2.836186396808761 -3
    endloop
  endfacet
  facet normal 0.22199335525371 0.8646070342162863 0.45074785258159306
    outer loop
      vertex -0.9215328225110039 -2.836186396808761 -3
      vertex -0.8432159156357617 -4.420292628279099 0
      vertex -0.558797848853858 -2.929320908423054 -3
    endloop
  endfacet
  facet normal 0.11187887598056236 0.8856124945496242 0.45074785258159317
    outer loop
      vertex -0.18725029931063214 -2.9762582794200245 -3
      vertex -0.558797848853858 -2.929320908423054 -3
      vertex -0.8432159156357617 -4.420292628279099 0
    endloop
  endfacet
  facet normal 0 0.8926513168046537 0.4507478525815931
    outer loop
      vertex -0.28255733788191195 -4.491120277927222 0
      vertex 0.18725029931063214 -2.9762582794200245 -3
      vertex -0.18725029931063214 -2.9762582794200245 -3
    endloop
  endfacet
  facet normal 0.8076950598642656 0.3800724452837153 0.45074785258159317
    outer loop
      vertex -4.183994186497132 -1.6565604870810504 0
      vertex -3.9433800601973856 -2.1678915334577193 0
      vertex -2.6132717065593787 -1.4366582781247585 -3
    endloop
  endfacet
  facet normal 0.8489618516265157 0.2758444269438126 0.4507478525815932
    outer loop
      vertex -4.35862422507884 -1.119104492241847 0
      vertex -4.183994186497132 -1.6565604870810504 0
      vertex -2.7727263061310357 -1.0978000053275216 -3
    endloop
  endfacet
  facet normal 0.8908898733377372 0.05605003994068924 0.4507478525815932
    outer loop
      vertex -2.9586277699913897 -0.3737616072364067 -3
      vertex -4.5 0 0
      vertex -4.464516155915151 -0.5639995510393683 0
    endloop
  endfacet
  facet normal 0.876840007843387 0.16726617720953485 0.45074785258159317
    outer loop
      vertex -4.464516155915151 -0.5639995510393683 0
      vertex -4.35862422507884 -1.119104492241847 0
      vertex -2.8884533555085965 -0.741628770652335 -3
    endloop
  endfacet
  facet normal 0.328606866702101 0.8299662044621515 0.4507478525815932
    outer loop
      vertex -1.916006812042826 -4.071721736097088 0
      vertex -1.3905764746872633 -4.2797543233281905 0
      vertex -1.2697346730601269 -2.6983235314611655 -3
    endloop
  endfacet
  facet normal 0.22199335525370928 0.8646070342162865 0.4507478525815932
    outer loop
      vertex -1.3905764746872633 -4.2797543233281905 0
      vertex -0.8432159156357617 -4.420292628279099 0
      vertex -0.9215328225110039 -2.836186396808761 -3
    endloop
  endfacet
  facet normal 0.11187887598056208 0.8856124945496244 0.45074785258159317
    outer loop
      vertex -0.8432159156357617 -4.420292628279099 0
      vertex -0.28255733788191195 -4.491120277927222 0
      vertex -0.18725029931063214 -2.9762582794200245 -3
    endloop
  endfacet
  facet normal 0.6110618755220588 0.6507148051770039 0.4507478525815932
    outer loop
      vertex -3.2803588233963525 -3.080461976679098 0
      vertex -2.868407953869103 -3.467309592491052 0
      vertex -2.1738885853459955 -2.041417262323053 -3
    endloop
  endfacet
  facet normal 0.7536904345143156 0.4783064941172182 0.4507478525815932
    outer loop
      vertex -3.9433800601973856 -2.1678915334577193 0
      vertex -3.6405764746872635 -2.6450336353161292 0
      vertex -2.4126042510824326 -1.752859591657911 -3
    endloop
  endfacet
  facet normal 0.6877996607792319 0.5689973638120442 0.4507478525815933
    outer loop
      vertex -3.2803588233963525 -3.080461976679098 0
      vertex -2.1738885853459955 -2.041417262323053 -3
      vertex -3.6405764746872635 -2.6450336353161292 0
    endloop
  endfacet
  facet normal 0.5246872794572318 0.72217008534614 0.45074785258159317
    outer loop
      vertex -2.4112205774054853 -3.7994756647590675 0
      vertex -1.9008893980005566 -2.2977805632778003 -3
      vertex -2.868407953869103 -3.467309592491052 0
    endloop
  endfacet
  facet normal 0.43003805156237607 0.7822363118658692 0.45074785258159317
    outer loop
      vertex -2.4112205774054853 -3.7994756647590675 0
      vertex -1.916006812042826 -4.071721736097088 0
      vertex -1.5979120493123653 -2.5179064921220804 -3
    endloop
  endfacet
  facet normal 0.8908898733377373 -0.05605003994068918 0.4507478525815932
    outer loop
      vertex -2.9586277699913897 0.3737616072364067 -3
      vertex -4.464516155915151 0.5639995510393683 0
      vertex -2.982142857142857 0 -3
    endloop
  endfacet
  facet normal 0.8768400078433869 -0.16726617720953485 0.45074785258159317
    outer loop
      vertex -4.35862422507884 1.119104492241847 0
      vertex -2.9586277699913897 0.3737616072364067 -3
      vertex -2.8884533555085965 0.741628770652335 -3
    endloop
  endfacet
  facet normal 0.8489618516265154 -0.2758444269438133 0.45074785258159317
    outer loop
      vertex -2.7727263061310357 1.0978000053275214 -3
      vertex -4.35862422507884 1.119104492241847 0
      vertex -2.8884533555085965 0.741628770652335 -3
    endloop
  endfacet
  facet normal 0.8076950598642659 -0.38007244528371487 0.45074785258159317
    outer loop
      vertex -2.6132717065593787 1.4366582781247585 -3
      vertex -3.9433800601973856 2.1678915334577193 0
      vertex -2.7727263061310357 1.0978000053275214 -3
    endloop
  endfacet
  facet normal 0.7536904345143155 -0.47830649411721815 0.4507478525815932
    outer loop
      vertex -2.6132717065593787 1.4366582781247585 -3
      vertex -2.4126042510824326 1.7528595916579113 -3
      vertex -3.9433800601973856 2.1678915334577193 0
    endloop
  endfacet
  facet normal 0.6877996607792316 -0.5689973638120447 0.4507478525815931
    outer loop
      vertex -2.4126042510824326 1.7528595916579113 -3
      vertex -2.1738885853459955 2.041417262323053 -3
      vertex -3.6405764746872635 2.6450336353161292 0
    endloop
  endfacet
  facet normal 0.6110618755220592 -0.6507148051770036 0.4507478525815932
    outer loop
      vertex -1.9008893980005566 2.2977805632778003 -3
      vertex -2.868407953869103 3.467309592491052 0
      vertex -2.1738885853459955 2.041417262323053 -3
    endloop
  endfacet
  facet normal 0.5246872794572316 -0.7221700853461401 0.4507478525815932
    outer loop
      vertex -1.9008893980005566 2.2977805632778003 -3
      vertex -1.5979120493123653 2.5179064921220804 -3
      vertex -2.4112205774054853 3.7994756647590675 0
    endloop
  endfacet
  facet normal 0.4300380515623768 -0.782236311865869 0.4507478525815931
    outer loop
      vertex -1.5979120493123653 2.5179064921220804 -3
      vertex -1.2697346730601275 2.6983235314611655 -3
      vertex -1.9160068120428273 4.071721736097087 0
    endloop
  endfacet
  facet normal 0.3286068667021005 -0.8299662044621517 0.4507478525815932
    outer loop
      vertex -1.2697346730601275 2.6983235314611655 -3
      vertex -0.921532822511004 2.836186396808761 -3
      vertex -1.3905764746872633 4.2797543233281905 0
    endloop
  endfacet
  facet normal 0.2219933552537095 -0.8646070342162864 0.4507478525815931
    outer loop
      vertex -0.921532822511004 2.836186396808761 -3
      vertex -0.5587978488538572 2.929320908423054 -3
      vertex -0.8432159156357606 4.420292628279099 0
    endloop
  endfacet
  facet normal 0.11187887598056216 -0.8856124945496244 0.45074785258159317
    outer loop
      vertex -0.28255733788190923 4.491120277927222 0
      vertex -0.5587978488538572 2.929320908423054 -3
      vertex -0.18725029931063064 2.9762582794200245 -3
    endloop
  endfacet
  facet normal 0.8908898733377372 -0.05605003994068924 0.4507478525815932
    outer loop
      vertex -4.464516155915151 0.5639995510393683 0
      vertex -4.5 0 0
      vertex -2.982142857142857 0 -3
    endloop
  endfacet
  facet normal 0.876840007843387 -0.16726617720953485 0.4507478525815932
    outer loop
      vertex -4.35862422507884 1.119104492241847 0
      vertex -4.464516155915151 0.5639995510393683 0
      vertex -2.9586277699913897 0.3737616072364067 -3
    endloop
  endfacet
  facet normal 0.8489618516265156 -0.27584442694381256 0.4507478525815932
    outer loop
      vertex -4.183994186497132 1.6565604870810504 0
      vertex -4.35862422507884 1.119104492241847 0
      vertex -2.7727263061310357 1.0978000053275214 -3
    endloop
  endfacet
  facet normal 0.8076950598642656 -0.3800724452837153 0.4507478525815933
    outer loop
      vertex -3.9433800601973856 2.1678915334577193 0
      vertex -4.183994186497132 1.6565604870810504 0
      vertex -2.7727263061310357 1.0978000053275214 -3
    endloop
  endfacet
  facet normal 0.7536904345143156 -0.4783064941172182 0.45074785258159317
    outer loop
      vertex -3.6405764746872635 2.6450336353161292 0
      vertex -3.9433800601973856 2.1678915334577193 0
      vertex -2.4126042510824326 1.7528595916579113 -3
    endloop
  endfacet
  facet normal 0.6877996607792319 -0.5689973638120442 0.4507478525815933
    outer loop
      vertex -3.2803588233963525 3.080461976679098 0
      vertex -3.6405764746872635 2.6450336353161292 0
      vertex -2.1738885853459955 2.041417262323053 -3
    endloop
  endfacet
  facet normal 0.6110618755220588 -0.6507148051770039 0.4507478525815932
    outer loop
      vertex -2.868407953869103 3.467309592491052 0
      vertex -3.2803588233963525 3.080461976679098 0
      vertex -2.1738885853459955 2.041417262323053 -3
    endloop
  endfacet
  facet normal 0.5246872794572318 -0.72217008534614 0.45074785258159317
    outer loop
      vertex -2.4112205774054853 3.7994756647590675 0
      vertex -2.868407953869103 3.467309592491052 0
      vertex -1.9008893980005566 2.2977805632778003 -3
    endloop
  endfacet
  facet normal 0.43003805156237596 -0.7822363118658694 0.45074785258159317
    outer loop
      vertex -1.9160068120428273 4.071721736097087 0
      vertex -2.4112205774054853 3.7994756647590675 0
      vertex -1.5979120493123653 2.5179064921220804 -3
    endloop
  endfacet
  facet normal 0.32860686670210193 -0.8299662044621513 0.45074785258159306
    outer loop
      vertex -1.2697346730601275 2.6983235314611655 -3
      vertex -1.3905764746872633 4.2797543233281905 0
      vertex -1.9160068120428273 4.071721736097087 0
    endloop
  endfacet
  facet normal 0.22199335525370886 -0.8646070342162866 0.4507478525815932
    outer loop
      vertex -0.8432159156357606 4.420292628279099 0
      vertex -1.3905764746872633 4.2797543233281905 0
      vertex -0.921532822511004 2.836186396808761 -3
    endloop
  endfacet
  facet normal 0.11187887598056175 -0.8856124945496242 0.4507478525815931
    outer loop
      vertex -0.28255733788190923 4.491120277927222 0
      vertex -0.8432159156357606 4.420292628279099 0
      vertex -0.5587978488538572 2.929320908423054 -3
    endloop
  endfacet
  facet normal 0 -0.8926513168046538 0.45074785258159317
    outer loop
      vertex -0.28255733788190923 4.491120277927222 0
      vertex -0.18725029931063064 2.9762582794200245 -3
      vertex 0.28255733788190973 4.491120277927222 0
    endloop
  endfacet
  facet normal -0.11187887598056236 0.8856124945496242 0.45074785258159317
    outer loop
      vertex 0.18725029931063214 -2.9762582794200245 -3
      vertex 0.28255733788191195 -4.491120277927222 0
      vertex 0.558797848853858 -2.929320908423054 -3
    endloop
  endfacet
  facet normal -0.22199335525370903 0.8646070342162866 0.45074785258159317
    outer loop
      vertex 0.9215328225110039 -2.8361863968087615 -3
      vertex 0.558797848853858 -2.929320908423054 -3
      vertex 0.8432159156357617 -4.420292628279099 0
    endloop
  endfacet
  facet normal -0.3286068667021019 0.8299662044621513 0.45074785258159306
    outer loop
      vertex 1.2697346730601269 -2.6983235314611655 -3
      vertex 0.9215328225110039 -2.8361863968087615 -3
      vertex 1.3905764746872633 -4.2797543233281905 0
    endloop
  endfacet
  facet normal -0.43003805156237607 0.7822363118658693 0.4507478525815932
    outer loop
      vertex 1.5979120493123637 -2.5179064921220813 -3
      vertex 1.2697346730601269 -2.6983235314611655 -3
      vertex 1.916006812042826 -4.071721736097088 0
    endloop
  endfacet
  facet normal -0.5246872794572313 0.7221700853461402 0.45074785258159317
    outer loop
      vertex 1.9008893980005577 -2.2977805632777994 -3
      vertex 1.5979120493123637 -2.5179064921220813 -3
      vertex 2.411220577405483 -3.799475664759069 0
    endloop
  endfacet
  facet normal -0.6110618755220594 0.6507148051770034 0.4507478525815932
    outer loop
      vertex 2.1738885853459955 -2.041417262323053 -3
      vertex 1.9008893980005577 -2.2977805632777994 -3
      vertex 2.868407953869105 -3.4673095924910506 0
    endloop
  endfacet
  facet normal -0.6877996607792317 0.5689973638120444 0.4507478525815931
    outer loop
      vertex 2.1738885853459955 -2.041417262323053 -3
      vertex 3.6405764746872635 -2.6450336353161292 0
      vertex 2.4126042510824326 -1.752859591657911 -3
    endloop
  endfacet
  facet normal -0.7536904345143159 0.47830649411721765 0.45074785258159333
    outer loop
      vertex 2.6132717065593782 -1.4366582781247585 -3
      vertex 2.4126042510824326 -1.752859591657911 -3
      vertex 3.9433800601973856 -2.1678915334577193 0
    endloop
  endfacet
  facet normal -0.807695059864265 0.3800724452837162 0.4507478525815933
    outer loop
      vertex 2.6132717065593782 -1.4366582781247585 -3
      vertex 3.9433800601973856 -2.1678915334577193 0
      vertex 2.772726306131035 -1.097800005327523 -3
    endloop
  endfacet
  facet normal -0.8489618516265154 0.2758444269438132 0.45074785258159317
    outer loop
      vertex 2.772726306131035 -1.097800005327523 -3
      vertex 4.358624225078841 -1.119104492241845 0
      vertex 2.888453355508597 -0.7416287706523338 -3
    endloop
  endfacet
  facet normal -0.876840007843387 0.16726617720953396 0.4507478525815933
    outer loop
      vertex 4.358624225078841 -1.119104492241845 0
      vertex 2.9586277699913897 -0.3737616072364067 -3
      vertex 2.888453355508597 -0.7416287706523338 -3
    endloop
  endfacet
  facet normal -0.8908898733377373 0.05605003994068918 0.4507478525815932
    outer loop
      vertex 2.9586277699913897 -0.3737616072364067 -3
      vertex 4.464516155915151 -0.5639995510393683 0
      vertex 2.982142857142857 0 -3
    endloop
  endfacet
  facet normal 0 0.8926513168046537 0.4507478525815931
    outer loop
      vertex -0.28255733788191195 -4.491120277927222 0
      vertex 0.28255733788191195 -4.491120277927222 0
      vertex 0.18725029931063214 -2.9762582794200245 -3
    endloop
  endfacet
  facet normal -0.11187887598056206 0.8856124945496243 0.45074785258159317
    outer loop
      vertex 0.28255733788191195 -4.491120277927222 0
      vertex 0.8432159156357617 -4.420292628279099 0
      vertex 0.558797848853858 -2.929320908423054 -3
    endloop
  endfacet
  facet normal -0.2219933552537093 0.8646070342162865 0.4507478525815931
    outer loop
      vertex 0.8432159156357617 -4.420292628279099 0
      vertex 1.3905764746872633 -4.2797543233281905 0
      vertex 0.9215328225110039 -2.8361863968087615 -3
    endloop
  endfacet
  facet normal -0.328606866702101 0.8299662044621515 0.4507478525815931
    outer loop
      vertex 1.2697346730601269 -2.6983235314611655 -3
      vertex 1.3905764746872633 -4.2797543233281905 0
      vertex 1.916006812042826 -4.071721736097088 0
    endloop
  endfacet
  facet normal -0.430038051562376 0.7822363118658694 0.4507478525815933
    outer loop
      vertex 1.916006812042826 -4.071721736097088 0
      vertex 2.411220577405483 -3.799475664759069 0
      vertex 1.5979120493123637 -2.5179064921220813 -3
    endloop
  endfacet
  facet normal -0.5246872794572315 0.7221700853461401 0.4507478525815932
    outer loop
      vertex 2.411220577405483 -3.799475664759069 0
      vertex 2.868407953869105 -3.4673095924910506 0
      vertex 1.9008893980005577 -2.2977805632777994 -3
    endloop
  endfacet
  facet normal -0.6110618755220592 0.6507148051770035 0.4507478525815932
    outer loop
      vertex 2.868407953869105 -3.4673095924910506 0
      vertex 3.2803588233963525 -3.080461976679098 0
      vertex 2.1738885853459955 -2.041417262323053 -3
    endloop
  endfacet
  facet normal -0.6877996607792319 0.5689973638120442 0.4507478525815933
    outer loop
      vertex 3.2803588233963525 -3.080461976679098 0
      vertex 3.6405764746872635 -2.6450336353161292 0
      vertex 2.1738885853459955 -2.041417262323053 -3
    endloop
  endfacet
  facet normal -0.7536904345143156 0.4783064941172182 0.4507478525815933
    outer loop
      vertex 3.6405764746872635 -2.6450336353161292 0
      vertex 3.9433800601973856 -2.1678915334577193 0
      vertex 2.4126042510824326 -1.752859591657911 -3
    endloop
  endfacet
  facet normal -0.8076950598642655 0.3800724452837155 0.4507478525815932
    outer loop
      vertex 3.9433800601973856 -2.1678915334577193 0
      vertex 4.183994186497131 -1.6565604870810526 0
      vertex 2.772726306131035 -1.097800005327523 -3
    endloop
  endfacet
  facet normal -0.8489618516265155 0.27584442694381317 0.4507478525815933
    outer loop
      vertex 4.183994186497131 -1.6565604870810526 0
      vertex 4.358624225078841 -1.119104492241845 0
      vertex 2.772726306131035 -1.097800005327523 -3
    endloop
  endfacet
  facet normal -0.8768400078433871 0.16726617720953407 0.4507478525815932
    outer loop
      vertex 4.358624225078841 -1.119104492241845 0
      vertex 4.464516155915151 -0.5639995510393683 0
      vertex 2.9586277699913897 -0.3737616072364067 -3
    endloop
  endfacet
  facet normal -0.8908898733377372 0.05605003994068924 0.4507478525815932
    outer loop
      vertex 4.464516155915151 -0.5639995510393683 0
      vertex 4.5 0 0
      vertex 2.982142857142857 0 -3
    endloop
  endfacet
  facet normal 0 -0.8926513168046537 0.4507478525815931
    outer loop
      vertex -0.18725029931063064 2.9762582794200245 -3
      vertex 0.1872502993106297 2.9762582794200245 -3
      vertex 0.28255733788190973 4.491120277927222 0
    endloop
  endfacet
  facet normal -0.11187887598056187 -0.8856124945496244 0.4507478525815931
    outer loop
      vertex 0.1872502993106297 2.9762582794200245 -3
      vertex 0.5587978488538572 2.929320908423054 -3
      vertex 0.8432159156357606 4.420292628279099 0
    endloop
  endfacet
  facet normal -0.22199335525370864 -0.8646070342162866 0.45074785258159317
    outer loop
      vertex 0.9215328225110038 2.8361863968087615 -3
      vertex 0.8432159156357606 4.420292628279099 0
      vertex 0.5587978488538572 2.929320908423054 -3
    endloop
  endfacet
  facet normal -0.32860686670210126 -0.8299662044621516 0.45074785258159317
    outer loop
      vertex 1.2697346730601275 2.6983235314611655 -3
      vertex 1.3905764746872633 4.2797543233281905 0
      vertex 0.9215328225110038 2.8361863968087615 -3
    endloop
  endfacet
  facet normal -0.4300380515623762 -0.7822363118658692 0.45074785258159306
    outer loop
      vertex 1.597912049312365 2.517906492122081 -3
      vertex 1.9160068120428273 4.071721736097087 0
      vertex 1.2697346730601275 2.6983235314611655 -3
    endloop
  endfacet
  facet normal -0.8908898733377371 -0.05605003994068908 0.4507478525815932
    outer loop
      vertex 2.9586277699913897 0.37376160723640733 -3
      vertex 2.982142857142857 0 -3
      vertex 4.5 0 0
    endloop
  endfacet
  facet normal -0.876840007843387 -0.16726617720953482 0.4507478525815932
    outer loop
      vertex 2.8884533555085965 0.7416287706523349 -3
      vertex 2.9586277699913897 0.37376160723640733 -3
      vertex 4.464516155915151 0.5639995510393692 0
    endloop
  endfacet
  facet normal -0.8489618516265153 -0.2758444269438139 0.45074785258159317
    outer loop
      vertex 2.772726306131035 1.0978000053275219 -3
      vertex 2.8884533555085965 0.7416287706523349 -3
      vertex 4.35862422507884 1.1191044922418465 0
    endloop
  endfacet
  facet normal -0.8076950598642664 -0.3800724452837137 0.4507478525815932
    outer loop
      vertex 2.613271706559379 1.4366582781247583 -3
      vertex 2.772726306131035 1.0978000053275219 -3
      vertex 4.183994186497131 1.6565604870810509 0
    endloop
  endfacet
  facet normal -0.6110618755220579 -0.6507148051770048 0.4507478525815932
    outer loop
      vertex 1.900889398000557 2.2977805632778 -3
      vertex 2.1738885853459955 2.041417262323054 -3
      vertex 2.868407953869104 3.467309592491051 0
    endloop
  endfacet
  facet normal -0.5246872794572323 -0.7221700853461397 0.45074785258159317
    outer loop
      vertex 1.597912049312365 2.517906492122081 -3
      vertex 1.900889398000557 2.2977805632778 -3
      vertex 2.411220577405485 3.799475664759068 0
    endloop
  endfacet
  facet normal -0.6877996607792326 -0.5689973638120434 0.4507478525815932
    outer loop
      vertex 2.1738885853459955 2.041417262323054 -3
      vertex 2.4126042510824326 1.752859591657911 -3
      vertex 3.6405764746872635 2.6450336353161292 0
    endloop
  endfacet
  facet normal -0.753690434514315 -0.4783064941172192 0.45074785258159306
    outer loop
      vertex 3.943380060197386 2.167891533457719 0
      vertex 2.4126042510824326 1.752859591657911 -3
      vertex 2.613271706559379 1.4366582781247583 -3
    endloop
  endfacet
  facet normal -0.4300380515623757 -0.7822363118658695 0.4507478525815931
    outer loop
      vertex 2.411220577405485 3.799475664759068 0
      vertex 1.9160068120428273 4.071721736097087 0
      vertex 1.597912049312365 2.517906492122081 -3
    endloop
  endfacet
  facet normal -0.5246872794572323 -0.7221700853461397 0.45074785258159306
    outer loop
      vertex 1.900889398000557 2.2977805632778 -3
      vertex 2.868407953869104 3.467309592491051 0
      vertex 2.411220577405485 3.799475664759068 0
    endloop
  endfacet
  facet normal -0.687799660779232 -0.5689973638120441 0.4507478525815931
    outer loop
      vertex 2.1738885853459955 2.041417262323054 -3
      vertex 3.6405764746872635 2.6450336353161292 0
      vertex 3.280358823396352 3.080461976679099 0
    endloop
  endfacet
  facet normal -0.7536904345143155 -0.4783064941172184 0.45074785258159317
    outer loop
      vertex 3.943380060197386 2.167891533457719 0
      vertex 3.6405764746872635 2.6450336353161292 0
      vertex 2.4126042510824326 1.752859591657911 -3
    endloop
  endfacet
  facet normal -0.6110618755220585 -0.6507148051770043 0.45074785258159317
    outer loop
      vertex 3.280358823396352 3.080461976679099 0
      vertex 2.868407953869104 3.467309592491051 0
      vertex 2.1738885853459955 2.041417262323054 -3
    endloop
  endfacet
  facet normal -0.11187887598056184 -0.8856124945496243 0.4507478525815931
    outer loop
      vertex 0.8432159156357606 4.420292628279099 0
      vertex 0.28255733788190973 4.491120277927222 0
      vertex 0.1872502993106297 2.9762582794200245 -3
    endloop
  endfacet
  facet normal -0.22199335525370886 -0.8646070342162866 0.45074785258159306
    outer loop
      vertex 1.3905764746872633 4.2797543233281905 0
      vertex 0.8432159156357606 4.420292628279099 0
      vertex 0.9215328225110038 2.8361863968087615 -3
    endloop
  endfacet
  facet normal -0.3286068667021015 -0.8299662044621514 0.4507478525815931
    outer loop
      vertex 1.9160068120428273 4.071721736097087 0
      vertex 1.3905764746872633 4.2797543233281905 0
      vertex 1.2697346730601275 2.6983235314611655 -3
    endloop
  endfacet
  facet normal -0.8768400078433869 -0.16726617720953524 0.45074785258159317
    outer loop
      vertex 4.464516155915151 0.5639995510393692 0
      vertex 4.35862422507884 1.1191044922418465 0
      vertex 2.8884533555085965 0.7416287706523349 -3
    endloop
  endfacet
  facet normal -0.8908898733377372 -0.056050039940689154 0.4507478525815932
    outer loop
      vertex 2.9586277699913897 0.37376160723640733 -3
      vertex 4.5 0 0
      vertex 4.464516155915151 0.5639995510393692 0
    endloop
  endfacet
  facet normal -0.8489618516265154 -0.27584442694381345 0.4507478525815931
    outer loop
      vertex 2.772726306131035 1.0978000053275219 -3
      vertex 4.35862422507884 1.1191044922418465 0
      vertex 4.183994186497131 1.6565604870810509 0
    endloop
  endfacet
  facet normal -0.8076950598642662 -0.38007244528371414 0.45074785258159317
    outer loop
      vertex 4.183994186497131 1.6565604870810509 0
      vertex 3.943380060197386 2.167891533457719 0
      vertex 2.613271706559379 1.4366582781247583 -3
    endloop
  endfacet
  facet normal -0.8443279255020152 -0.5358267949789963 0
    outer loop
      vertex -5.663118960624632 -4.114496766047312 -3
      vertex -6.134146760307044 -3.372275718712008 0
      vertex -6.134146760307044 -3.372275718712008 -3
    endloop
  endfacet
  facet normal -0.7705132427757893 -0.6374239897486896 0
    outer loop
      vertex -5.663118960624632 -4.114496766047312 -3
      vertex -5.1027803919498815 -4.79182974150082 -3
      vertex -5.663118960624632 -4.114496766047312 0
    endloop
  endfacet
  facet normal -0.5877852522924721 -0.8090169943749481 0
    outer loop
      vertex -4.461967928240828 -5.393592699430526 -3
      vertex -3.7507875648529776 -5.910295478514104 -3
      vertex -3.7507875648529776 -5.910295478514104 0
    endloop
  endfacet
  facet normal -0.6845471059286894 -0.7289686274214108 0
    outer loop
      vertex -4.461967928240828 -5.393592699430526 -3
      vertex -4.461967928240828 -5.393592699430526 0
      vertex -5.1027803919498815 -4.79182974150082 -3
    endloop
  endfacet
  facet normal 0 0 -1
    outer loop
      vertex -6.50843540121776 -2.576871868792745 -3
      vertex -6.7800821279004175 -1.740829210153984 -3
      vertex -6.50843540121776 2.576871868792745 -3
    endloop
  endfacet
  facet normal 0 0 -1
    outer loop
      vertex -6.7800821279004175 -1.740829210153984 -3
      vertex -6.9448029092013455 -0.8773326349501285 -3
      vertex -6.7800821279004175 1.740829210153984 -3
    endloop
  endfacet
  facet normal 0 0 -1
    outer loop
      vertex -6.134146760307044 -3.372275718712008 -3
      vertex -6.50843540121776 -2.576871868792745 -3
      vertex -6.134146760307044 3.372275718712008 -3
    endloop
  endfacet
  facet normal 0 0 -1
    outer loop
      vertex -5.663118960624632 -4.114496766047312 -3
      vertex -6.134146760307044 -3.372275718712008 -3
      vertex -5.663118960624632 4.114496766047312 -3
    endloop
  endfacet
  facet normal 0 0 -1
    outer loop
      vertex -5.663118960624632 -4.114496766047312 -3
      vertex -5.1027803919498815 4.79182974150082 -3
      vertex -5.1027803919498815 -4.79182974150082 -3
    endloop
  endfacet
  facet normal 0 0 -1
    outer loop
      vertex -4.461967928240828 -5.393592699430526 -3
      vertex -3.7507875648529776 5.910295478514104 -3
      vertex -3.7507875648529776 -5.910295478514104 -3
    endloop
  endfacet
  facet normal 0 0 -1
    outer loop
      vertex -4.461967928240828 -5.393592699430526 -3
      vertex -5.1027803919498815 -4.79182974150082 -3
      vertex -4.461967928240828 5.393592699430526 -3
    endloop
  endfacet
  facet normal -0.9048270524660196 -0.42577929156507277 0
    outer loop
      vertex -6.134146760307044 -3.372275718712008 -3
      vertex -6.50843540121776 -2.576871868792745 0
      vertex -6.50843540121776 -2.576871868792745 -3
    endloop
  endfacet
  facet normal -0.9510565162951536 -0.3090169943749475 0
    outer loop
      vertex -6.50843540121776 -2.576871868792745 -3
      vertex -6.7800821279004175 -1.740829210153984 0
      vertex -6.7800821279004175 -1.740829210153984 -3
    endloop
  endfacet
  facet normal -0.9822872507286885 -0.18738131458572532 0
    outer loop
      vertex -6.7800821279004175 -1.740829210153984 -3
      vertex -6.9448029092013455 -0.8773326349501285 0
      vertex -6.9448029092013455 -0.8773326349501285 -3
    endloop
  endfacet
  facet normal -0.9980267284282717 -0.06279051952931274 0
    outer loop
      vertex -6.9448029092013455 -0.8773326349501285 -3
      vertex -7 0 0
      vertex -7 0 -3
    endloop
  endfacet
  facet normal 0 0 -1
    outer loop
      vertex -3.7507875648529776 -5.910295478514104 -3
      vertex -2.9586277699913897 -0.3737616072364067 -3
      vertex -2.980455040955507 -6.333789367262137 -3
    endloop
  endfacet
  facet normal 0 0 -1
    outer loop
      vertex -2.980455040955507 -6.333789367262137 -3
      vertex -1.9008893980005566 -2.2977805632778003 -3
      vertex -2.1631189606246317 -6.657395614066075 -3
    endloop
  endfacet
  facet normal 0 0 -1
    outer loop
      vertex -2.980455040955507 -6.333789367262137 -3
      vertex -2.1738885853459955 -2.041417262323053 -3
      vertex -1.9008893980005566 -2.2977805632778003 -3
    endloop
  endfacet
  facet normal 0 0 -1
    outer loop
      vertex -2.1631189606246317 -6.657395614066075 -3
      vertex -1.9008893980005566 -2.2977805632778003 -3
      vertex -1.5979120493123653 -2.5179064921220804 -3
    endloop
  endfacet
  facet normal 0 0 -1
    outer loop
      vertex -2.1631189606246317 -6.657395614066075 -3
      vertex -1.2697346730601269 -2.6983235314611655 -3
      vertex -1.3116692021000738 -6.87601075510082 -3
    endloop
  endfacet
  facet normal 0 0 -1
    outer loop
      vertex -1.3116692021000738 -6.87601075510082 -3
      vertex -0.18725029931063214 -2.9762582794200245 -3
      vertex -0.43953363670519635 -6.986187098997901 -3
    endloop
  endfacet
  facet normal 0 0 -1
    outer loop
      vertex -0.43953363670519635 -6.986187098997901 -3
      vertex -0.18725029931063214 -2.9762582794200245 -3
      vertex 0.43953363670519635 -6.986187098997901 -3
    endloop
  endfacet
  facet normal 0 0 -1
    outer loop
      vertex -2.1631189606246317 -6.657395614066075 -3
      vertex -1.5979120493123653 -2.5179064921220804 -3
      vertex -1.2697346730601269 -2.6983235314611655 -3
    endloop
  endfacet
  facet normal 0 0 -1
    outer loop
      vertex -1.3116692021000738 -6.87601075510082 -3
      vertex -1.2697346730601269 -2.6983235314611655 -3
      vertex -0.9215328225110039 -2.836186396808761 -3
    endloop
  endfacet
  facet normal 0 0 -1
    outer loop
      vertex -1.3116692021000738 -6.87601075510082 -3
      vertex -0.9215328225110039 -2.836186396808761 -3
      vertex -0.558797848853858 -2.929320908423054 -3
    endloop
  endfacet
  facet normal 0 0 -1
    outer loop
      vertex -1.3116692021000738 -6.87601075510082 -3
      vertex -0.558797848853858 -2.929320908423054 -3
      vertex -0.18725029931063214 -2.9762582794200245 -3
    endloop
  endfacet
  facet normal -0.4817536741017148 -0.8763066800438638 0
    outer loop
      vertex -3.7507875648529776 -5.910295478514104 -3
      vertex -2.980455040955507 -6.333789367262137 -3
      vertex -2.980455040955507 -6.333789367262137 0
    endloop
  endfacet
  facet normal -0.36812455268467814 -0.9297764858882512 0
    outer loop
      vertex -2.980455040955507 -6.333789367262137 -3
      vertex -2.1631189606246317 -6.657395614066075 -3
      vertex -2.1631189606246317 -6.657395614066075 0
    endloop
  endfacet
  facet normal -0.24868988716485488 -0.9685831611286311 0
    outer loop
      vertex -2.1631189606246317 -6.657395614066075 -3
      vertex -1.3116692021000738 -6.87601075510082 -3
      vertex -1.3116692021000738 -6.87601075510082 0
    endloop
  endfacet
  facet normal -0.12533323356430498 -0.9921147013144778 0
    outer loop
      vertex -1.3116692021000738 -6.87601075510082 -3
      vertex -0.43953363670519635 -6.986187098997901 -3
      vertex -0.43953363670519635 -6.986187098997901 0
    endloop
  endfacet
  facet normal 0 0 -1
    outer loop
      vertex -2.980455040955507 -6.333789367262137 -3
      vertex -2.6132717065593787 -1.4366582781247585 -3
      vertex -2.4126042510824326 -1.752859591657911 -3
    endloop
  endfacet
  facet normal 0 0 -1
    outer loop
      vertex -2.980455040955507 -6.333789367262137 -3
      vertex -2.8884533555085965 -0.741628770652335 -3
      vertex -2.7727263061310357 -1.0978000053275216 -3
    endloop
  endfacet
  facet normal 0 0 -1
    outer loop
      vertex -2.980455040955507 -6.333789367262137 -3
      vertex -2.7727263061310357 -1.0978000053275216 -3
      vertex -2.6132717065593787 -1.4366582781247585 -3
    endloop
  endfacet
  facet normal 0 0 -1
    outer loop
      vertex -3.7507875648529776 -5.910295478514104 -3
      vertex -2.982142857142857 0 -3
      vertex -2.9586277699913897 -0.3737616072364067 -3
    endloop
  endfacet
  facet normal 0 0 -1
    outer loop
      vertex -2.980455040955507 -6.333789367262137 -3
      vertex -2.9586277699913897 -0.3737616072364067 -3
      vertex -2.8884533555085965 -0.741628770652335 -3
    endloop
  endfacet
  facet normal 0 0 -1
    outer loop
      vertex -2.980455040955507 -6.333789367262137 -3
      vertex -2.4126042510824326 -1.752859591657911 -3
      vertex -2.1738885853459955 -2.041417262323053 -3
    endloop
  endfacet
  facet normal -0.7705132427757893 -0.6374239897486896 0
    outer loop
      vertex -5.1027803919498815 -4.79182974150082 -3
      vertex -5.1027803919498815 -4.79182974150082 0
      vertex -5.663118960624632 -4.114496766047312 0
    endloop
  endfacet
  facet normal -0.8443279255020152 -0.5358267949789963 0
    outer loop
      vertex -5.663118960624632 -4.114496766047312 -3
      vertex -5.663118960624632 -4.114496766047312 0
      vertex -6.134146760307044 -3.372275718712008 0
    endloop
  endfacet
  facet normal -0.5877852522924721 -0.8090169943749481 0
    outer loop
      vertex -4.461967928240828 -5.393592699430526 -3
      vertex -3.7507875648529776 -5.910295478514104 0
      vertex -4.461967928240828 -5.393592699430526 0
    endloop
  endfacet
  facet normal -0.6845471059286894 -0.7289686274214108 0
    outer loop
      vertex -5.1027803919498815 -4.79182974150082 -3
      vertex -4.461967928240828 -5.393592699430526 0
      vertex -5.1027803919498815 -4.79182974150082 0
    endloop
  endfacet
  facet normal 0 0 1
    outer loop
      vertex -4.461967928240828 -5.393592699430526 0
      vertex -3.7507875648529776 -5.910295478514104 0
      vertex -4.183994186497132 -1.6565604870810504 0
    endloop
  endfacet
  facet normal 0 0 1
    outer loop
      vertex -3.7507875648529776 -5.910295478514104 0
      vertex -3.6405764746872635 -2.6450336353161292 0
      vertex -3.9433800601973856 -2.1678915334577193 0
    endloop
  endfacet
  facet normal 0 0 1
    outer loop
      vertex -3.7507875648529776 -5.910295478514104 0
      vertex -3.2803588233963525 -3.080461976679098 0
      vertex -3.6405764746872635 -2.6450336353161292 0
    endloop
  endfacet
  facet normal -0.9048270524660196 -0.42577929156507277 0
    outer loop
      vertex -6.134146760307044 -3.372275718712008 -3
      vertex -6.134146760307044 -3.372275718712008 0
      vertex -6.50843540121776 -2.576871868792745 0
    endloop
  endfacet
  facet normal -0.9510565162951536 -0.3090169943749475 0
    outer loop
      vertex -6.50843540121776 -2.576871868792745 -3
      vertex -6.50843540121776 -2.576871868792745 0
      vertex -6.7800821279004175 -1.740829210153984 0
    endloop
  endfacet
  facet normal -0.9822872507286885 -0.18738131458572532 0
    outer loop
      vertex -6.7800821279004175 -1.740829210153984 -3
      vertex -6.7800821279004175 -1.740829210153984 0
      vertex -6.9448029092013455 -0.8773326349501285 0
    endloop
  endfacet
  facet normal -0.9980267284282717 -0.06279051952931274 0
    outer loop
      vertex -6.9448029092013455 -0.8773326349501285 -3
      vertex -6.9448029092013455 -0.8773326349501285 0
      vertex -7 0 0
    endloop
  endfacet
  facet normal 0 0 1
    outer loop
      vertex -6.134146760307044 -3.372275718712008 0
      vertex -6.50843540121776 2.576871868792745 0
      vertex -6.50843540121776 -2.576871868792745 0
    endloop
  endfacet
  facet normal 0 0 1
    outer loop
      vertex -6.7800821279004175 -1.740829210153984 0
      vertex -6.9448029092013455 0.8773326349501285 0
      vertex -6.9448029092013455 -0.8773326349501285 0
    endloop
  endfacet
  facet normal 0 0 1
    outer loop
      vertex -6.50843540121776 -2.576871868792745 0
      vertex -6.7800821279004175 1.740829210153984 0
      vertex -6.7800821279004175 -1.740829210153984 0
    endloop
  endfacet
  facet normal 0 0 1
    outer loop
      vertex -5.663118960624632 -4.114496766047312 0
      vertex -6.134146760307044 3.372275718712008 0
      vertex -6.134146760307044 -3.372275718712008 0
    endloop
  endfacet
  facet normal 0 0 1
    outer loop
      vertex -5.663118960624632 -4.114496766047312 0
      vertex -5.1027803919498815 -4.79182974150082 0
      vertex -5.663118960624632 4.114496766047312 0
    endloop
  endfacet
  facet normal 0 0 1
    outer loop
      vertex -4.461967928240828 -5.393592699430526 0
      vertex -5.1027803919498815 4.79182974150082 0
      vertex -5.1027803919498815 -4.79182974150082 0
    endloop
  endfacet
  facet normal 0 0 1
    outer loop
      vertex -4.461967928240828 -5.393592699430526 0
      vertex -4.35862422507884 -1.119104492241847 0
      vertex -4.464516155915151 -0.5639995510393683 0
    endloop
  endfacet
  facet normal 0 0 1
    outer loop
      vertex -4.461967928240828 -5.393592699430526 0
      vertex -4.464516155915151 -0.5639995510393683 0
      vertex -4.5 0 0
    endloop
  endfacet
  facet normal 0 0 1
    outer loop
      vertex -3.7507875648529776 -5.910295478514104 0
      vertex -3.9433800601973856 -2.1678915334577193 0
      vertex -4.183994186497132 -1.6565604870810504 0
    endloop
  endfacet
  facet normal 0 0 1
    outer loop
      vertex -4.461967928240828 -5.393592699430526 0
      vertex -4.183994186497132 -1.6565604870810504 0
      vertex -4.35862422507884 -1.119104492241847 0
    endloop
  endfacet
  facet normal 0 0 1
    outer loop
      vertex -4.461967928240828 -5.393592699430526 0
      vertex -4.5 0 0
      vertex -5.1027803919498815 4.79182974150082 0
    endloop
  endfacet
  facet normal -0.36812455268467814 -0.9297764858882512 0
    outer loop
      vertex -2.980455040955507 -6.333789367262137 -3
      vertex -2.1631189606246317 -6.657395614066075 0
      vertex -2.980455040955507 -6.333789367262137 0
    endloop
  endfacet
  facet normal -0.4817536741017148 -0.8763066800438638 0
    outer loop
      vertex -3.7507875648529776 -5.910295478514104 -3
      vertex -2.980455040955507 -6.333789367262137 0
      vertex -3.7507875648529776 -5.910295478514104 0
    endloop
  endfacet
  facet normal -0.24868988716485488 -0.9685831611286311 0
    outer loop
      vertex -2.1631189606246317 -6.657395614066075 -3
      vertex -1.3116692021000738 -6.87601075510082 0
      vertex -2.1631189606246317 -6.657395614066075 0
    endloop
  endfacet
  facet normal -0.12533323356430498 -0.9921147013144778 0
    outer loop
      vertex -1.3116692021000738 -6.87601075510082 -3
      vertex -0.43953363670519635 -6.986187098997901 0
      vertex -1.3116692021000738 -6.87601075510082 0
    endloop
  endfacet
  facet normal 0 -1 0
    outer loop
      vertex -0.43953363670519635 -6.986187098997901 -3
      vertex 0.43953363670519635 -6.986187098997901 0
      vertex -0.43953363670519635 -6.986187098997901 0
    endloop
  endfacet
  facet normal 0 0 1
    outer loop
      vertex -2.980455040955507 -6.333789367262137 0
      vertex -2.1631189606246317 -6.657395614066075 0
      vertex -2.4112205774054853 -3.7994756647590675 0
    endloop
  endfacet
  facet normal 0 0 1
    outer loop
      vertex -2.1631189606246317 -6.657395614066075 0
      vertex -1.3116692021000738 -6.87601075510082 0
      vertex -1.916006812042826 -4.071721736097088 0
    endloop
  endfacet
  facet normal 0 0 1
    outer loop
      vertex -3.7507875648529776 -5.910295478514104 0
      vertex -2.980455040955507 -6.333789367262137 0
      vertex -3.2803588233963525 -3.080461976679098 0
    endloop
  endfacet
  facet normal 0 0 1
    outer loop
      vertex -2.980455040955507 -6.333789367262137 0
      vertex -2.4112205774054853 -3.7994756647590675 0
      vertex -2.868407953869103 -3.467309592491052 0
    endloop
  endfacet
  facet normal 0 0 1
    outer loop
      vertex -2.980455040955507 -6.333789367262137 0
      vertex -2.868407953869103 -3.467309592491052 0
      vertex -3.2803588233963525 -3.080461976679098 0
    endloop
  endfacet
  facet normal 0 0 1
    outer loop
      vertex -2.1631189606246317 -6.657395614066075 0
      vertex -1.916006812042826 -4.071721736097088 0
      vertex -2.4112205774054853 -3.7994756647590675 0
    endloop
  endfacet
  facet normal 0 0 1
    outer loop
      vertex -1.3116692021000738 -6.87601075510082 0
      vertex -0.43953363670519635 -6.986187098997901 0
      vertex -0.8432159156357617 -4.420292628279099 0
    endloop
  endfacet
  facet normal 0 0 1
    outer loop
      vertex -0.43953363670519635 -6.986187098997901 0
      vertex -0.28255733788191195 -4.491120277927222 0
      vertex -0.8432159156357617 -4.420292628279099 0
    endloop
  endfacet
  facet normal 0 0 1
    outer loop
      vertex -0.43953363670519635 -6.986187098997901 0
      vertex 0.28255733788191195 -4.491120277927222 0
      vertex -0.28255733788191195 -4.491120277927222 0
    endloop
  endfacet
  facet normal 0 0 1
    outer loop
      vertex -1.3116692021000738 -6.87601075510082 0
      vertex -1.3905764746872633 -4.2797543233281905 0
      vertex -1.916006812042826 -4.071721736097088 0
    endloop
  endfacet
  facet normal 0 0 1
    outer loop
      vertex -1.3116692021000738 -6.87601075510082 0
      vertex -0.8432159156357617 -4.420292628279099 0
      vertex -1.3905764746872633 -4.2797543233281905 0
    endloop
  endfacet
  facet normal 0 0 -1
    outer loop
      vertex -6.9448029092013455 -0.8773326349501285 -3
      vertex -7 0 -3
      vertex -6.9448029092013455 0.8773326349501285 -3
    endloop
  endfacet
  facet normal 0 0 -1
    outer loop
      vertex -6.9448029092013455 -0.8773326349501285 -3
      vertex -6.9448029092013455 0.8773326349501285 -3
      vertex -6.7800821279004175 1.740829210153984 -3
    endloop
  endfacet
  facet normal 0 0 -1
    outer loop
      vertex -6.7800821279004175 -1.740829210153984 -3
      vertex -6.7800821279004175 1.740829210153984 -3
      vertex -6.50843540121776 2.576871868792745 -3
    endloop
  endfacet
  facet normal 0 0 -1
    outer loop
      vertex -6.50843540121776 -2.576871868792745 -3
      vertex -6.50843540121776 2.576871868792745 -3
      vertex -6.134146760307044 3.372275718712008 -3
    endloop
  endfacet
  facet normal 0 0 -1
    outer loop
      vertex -6.134146760307044 -3.372275718712008 -3
      vertex -6.134146760307044 3.372275718712008 -3
      vertex -5.663118960624632 4.114496766047312 -3
    endloop
  endfacet
  facet normal 0 0 -1
    outer loop
      vertex -5.663118960624632 -4.114496766047312 -3
      vertex -5.663118960624632 4.114496766047312 -3
      vertex -5.1027803919498815 4.79182974150082 -3
    endloop
  endfacet
  facet normal 0 0 -1
    outer loop
      vertex -5.1027803919498815 -4.79182974150082 -3
      vertex -5.1027803919498815 4.79182974150082 -3
      vertex -4.461967928240828 5.393592699430526 -3
    endloop
  endfacet
  facet normal 0 0 -1
    outer loop
      vertex -4.461967928240828 -5.393592699430526 -3
      vertex -4.461967928240828 5.393592699430526 -3
      vertex -3.7507875648529776 5.910295478514104 -3
    endloop
  endfacet
  facet normal -0.9980267284282717 0.06279051952931274 0
    outer loop
      vertex -7 0 -3
      vertex -6.9448029092013455 0.8773326349501285 0
      vertex -6.9448029092013455 0.8773326349501285 -3
    endloop
  endfacet
  facet normal -0.9822872507286885 0.18738131458572532 0
    outer loop
      vertex -6.9448029092013455 0.8773326349501285 -3
      vertex -6.7800821279004175 1.740829210153984 0
      vertex -6.7800821279004175 1.740829210153984 -3
    endloop
  endfacet
  facet normal -0.9510565162951536 0.3090169943749475 0
    outer loop
      vertex -6.7800821279004175 1.740829210153984 -3
      vertex -6.50843540121776 2.576871868792745 0
      vertex -6.50843540121776 2.576871868792745 -3
    endloop
  endfacet
  facet normal -0.9048270524660196 0.42577929156507277 0
    outer loop
      vertex -6.50843540121776 2.576871868792745 -3
      vertex -6.134146760307044 3.372275718712008 0
      vertex -6.134146760307044 3.372275718712008 -3
    endloop
  endfacet
  facet normal -0.8443279255020152 0.5358267949789963 0
    outer loop
      vertex -6.134146760307044 3.372275718712008 -3
      vertex -5.663118960624632 4.114496766047312 0
      vertex -5.663118960624632 4.114496766047312 -3
    endloop
  endfacet
  facet normal -0.7705132427757893 0.6374239897486896 0
    outer loop
      vertex -5.663118960624632 4.114496766047312 -3
      vertex -5.1027803919498815 4.79182974150082 0
      vertex -5.1027803919498815 4.79182974150082 -3
    endloop
  endfacet
  facet normal -0.6845471059286894 0.7289686274214108 0
    outer loop
      vertex -5.1027803919498815 4.79182974150082 -3
      vertex -5.1027803919498815 4.79182974150082 0
      vertex -4.461967928240828 5.393592699430526 -3
    endloop
  endfacet
  facet normal -0.5877852522924721 0.8090169943749481 0
    outer loop
      vertex -4.461967928240828 5.393592699430526 -3
      vertex -4.461967928240828 5.393592699430526 0
      vertex -3.7507875648529776 5.910295478514104 -3
    endloop
  endfacet
  facet normal 0 0 -1
    outer loop
      vertex -3.7507875648529776 -5.910295478514104 -3
      vertex -2.980455040955509 6.333789367262137 -3
      vertex -2.982142857142857 0 -3
    endloop
  endfacet
  facet normal 0 0 -1
    outer loop
      vertex -3.7507875648529776 -5.910295478514104 -3
      vertex -3.7507875648529776 5.910295478514104 -3
      vertex -2.980455040955509 6.333789367262137 -3
    endloop
  endfacet
  facet normal 0 0 -1
    outer loop
      vertex -2.980455040955509 6.333789367262137 -3
      vertex -2.9586277699913897 0.3737616072364067 -3
      vertex -2.982142857142857 0 -3
    endloop
  endfacet
  facet normal 0 0 -1
    outer loop
      vertex -2.980455040955509 6.333789367262137 -3
      vertex -2.8884533555085965 0.741628770652335 -3
      vertex -2.9586277699913897 0.3737616072364067 -3
    endloop
  endfacet
  facet normal 0 0 -1
    outer loop
      vertex -2.980455040955509 6.333789367262137 -3
      vertex -2.7727263061310357 1.0978000053275214 -3
      vertex -2.8884533555085965 0.741628770652335 -3
    endloop
  endfacet
  facet normal 0 0 -1
    outer loop
      vertex -2.980455040955509 6.333789367262137 -3
      vertex -2.6132717065593787 1.4366582781247585 -3
      vertex -2.7727263061310357 1.0978000053275214 -3
    endloop
  endfacet
  facet normal 0 0 -1
    outer loop
      vertex -2.1631189606246317 6.657395614066075 -3
      vertex -2.4126042510824326 1.7528595916579113 -3
      vertex -2.6132717065593787 1.4366582781247585 -3
    endloop
  endfacet
  facet normal 0 0 -1
    outer loop
      vertex -2.1631189606246317 6.657395614066075 -3
      vertex -2.1738885853459955 2.041417262323053 -3
      vertex -2.4126042510824326 1.7528595916579113 -3
    endloop
  endfacet
  facet normal 0 0 -1
    outer loop
      vertex -2.1631189606246317 6.657395614066075 -3
      vertex -1.9008893980005566 2.2977805632778003 -3
      vertex -2.1738885853459955 2.041417262323053 -3
    endloop
  endfacet
  facet normal 0 0 -1
    outer loop
      vertex -2.1631189606246317 6.657395614066075 -3
      vertex -1.5979120493123653 2.5179064921220804 -3
      vertex -1.9008893980005566 2.2977805632778003 -3
    endloop
  endfacet
  facet normal 0 0 -1
    outer loop
      vertex -2.980455040955509 6.333789367262137 -3
      vertex -2.1631189606246317 6.657395614066075 -3
      vertex -2.6132717065593787 1.4366582781247585 -3
    endloop
  endfacet
  facet normal 0 0 -1
    outer loop
      vertex -1.311669202100072 6.876010755100821 -3
      vertex -1.2697346730601275 2.6983235314611655 -3
      vertex -1.5979120493123653 2.5179064921220804 -3
    endloop
  endfacet
  facet normal 0 0 -1
    outer loop
      vertex -1.311669202100072 6.876010755100821 -3
      vertex -0.921532822511004 2.836186396808761 -3
      vertex -1.2697346730601275 2.6983235314611655 -3
    endloop
  endfacet
  facet normal 0 0 -1
    outer loop
      vertex -0.43953363670519296 6.986187098997901 -3
      vertex -0.5587978488538572 2.929320908423054 -3
      vertex -0.921532822511004 2.836186396808761 -3
    endloop
  endfacet
  facet normal 0 0 -1
    outer loop
      vertex -0.43953363670519296 6.986187098997901 -3
      vertex -0.18725029931063064 2.9762582794200245 -3
      vertex -0.5587978488538572 2.929320908423054 -3
    endloop
  endfacet
  facet normal 0 0 -1
    outer loop
      vertex -0.43953363670519296 6.986187098997901 -3
      vertex 0.1872502993106297 2.9762582794200245 -3
      vertex -0.18725029931063064 2.9762582794200245 -3
    endloop
  endfacet
  facet normal 0 0 -1
    outer loop
      vertex -2.1631189606246317 6.657395614066075 -3
      vertex -1.311669202100072 6.876010755100821 -3
      vertex -1.5979120493123653 2.5179064921220804 -3
    endloop
  endfacet
  facet normal 0 0 -1
    outer loop
      vertex -1.311669202100072 6.876010755100821 -3
      vertex -0.43953363670519296 6.986187098997901 -3
      vertex -0.921532822511004 2.836186396808761 -3
    endloop
  endfacet
  facet normal -0.4817536741017157 0.8763066800438634 0
    outer loop
      vertex -3.7507875648529776 5.910295478514104 -3
      vertex -3.7507875648529776 5.910295478514104 0
      vertex -2.980455040955509 6.333789367262137 -3
    endloop
  endfacet
  facet normal -0.3681245526846775 0.9297764858882517 0
    outer loop
      vertex -2.980455040955509 6.333789367262137 -3
      vertex -2.980455040955509 6.333789367262137 0
      vertex -2.1631189606246317 6.657395614066075 -3
    endloop
  endfacet
  facet normal -0.24868988716485535 0.968583161128631 0
    outer loop
      vertex -2.1631189606246317 6.657395614066075 -3
      vertex -2.1631189606246317 6.657395614066075 0
      vertex -1.311669202100072 6.876010755100821 -3
    endloop
  endfacet
  facet normal -0.12533323356430376 0.992114701314478 0
    outer loop
      vertex -1.311669202100072 6.876010755100821 -3
      vertex -1.311669202100072 6.876010755100821 0
      vertex -0.43953363670519296 6.986187098997901 -3
    endloop
  endfacet
  facet normal 0 1 0
    outer loop
      vertex -0.43953363670519296 6.986187098997901 -3
      vertex -0.43953363670519296 6.986187098997901 0
      vertex 0.43953363670519296 6.986187098997901 -3
    endloop
  endfacet
  facet normal -0.9980267284282717 0.06279051952931274 0
    outer loop
      vertex -7 0 -3
      vertex -7 0 0
      vertex -6.9448029092013455 0.8773326349501285 0
    endloop
  endfacet
  facet normal -0.9822872507286885 0.18738131458572532 0
    outer loop
      vertex -6.9448029092013455 0.8773326349501285 -3
      vertex -6.9448029092013455 0.8773326349501285 0
      vertex -6.7800821279004175 1.740829210153984 0
    endloop
  endfacet
  facet normal -0.9510565162951536 0.3090169943749475 0
    outer loop
      vertex -6.7800821279004175 1.740829210153984 -3
      vertex -6.7800821279004175 1.740829210153984 0
      vertex -6.50843540121776 2.576871868792745 0
    endloop
  endfacet
  facet normal -0.9048270524660196 0.42577929156507277 0
    outer loop
      vertex -6.50843540121776 2.576871868792745 -3
      vertex -6.50843540121776 2.576871868792745 0
      vertex -6.134146760307044 3.372275718712008 0
    endloop
  endfacet
  facet normal 0 0 1
    outer loop
      vertex -6.9448029092013455 -0.8773326349501285 0
      vertex -6.9448029092013455 0.8773326349501285 0
      vertex -7 0 0
    endloop
  endfacet
  facet normal 0 0 1
    outer loop
      vertex -6.7800821279004175 -1.740829210153984 0
      vertex -6.7800821279004175 1.740829210153984 0
      vertex -6.9448029092013455 0.8773326349501285 0
    endloop
  endfacet
  facet normal 0 0 1
    outer loop
      vertex -6.50843540121776 -2.576871868792745 0
      vertex -6.50843540121776 2.576871868792745 0
      vertex -6.7800821279004175 1.740829210153984 0
    endloop
  endfacet
  facet normal 0 0 1
    outer loop
      vertex -6.134146760307044 -3.372275718712008 0
      vertex -6.134146760307044 3.372275718712008 0
      vertex -6.50843540121776 2.576871868792745 0
    endloop
  endfacet
  facet normal 0 0 1
    outer loop
      vertex -5.663118960624632 -4.114496766047312 0
      vertex -5.663118960624632 4.114496766047312 0
      vertex -6.134146760307044 3.372275718712008 0
    endloop
  endfacet
  facet normal 0 0 1
    outer loop
      vertex -5.1027803919498815 -4.79182974150082 0
      vertex -5.1027803919498815 4.79182974150082 0
      vertex -5.663118960624632 4.114496766047312 0
    endloop
  endfacet
  facet normal 0 0 1
    outer loop
      vertex -5.1027803919498815 4.79182974150082 0
      vertex -4.5 0 0
      vertex -4.464516155915151 0.5639995510393683 0
    endloop
  endfacet
  facet normal 0 0 1
    outer loop
      vertex -5.1027803919498815 4.79182974150082 0
      vertex -4.464516155915151 0.5639995510393683 0
      vertex -4.35862422507884 1.119104492241847 0
    endloop
  endfacet
  facet normal 0 0 1
    outer loop
      vertex -4.461967928240828 5.393592699430526 0
      vertex -4.35862422507884 1.119104492241847 0
      vertex -4.183994186497132 1.6565604870810504 0
    endloop
  endfacet
  facet normal 0 0 1
    outer loop
      vertex -4.461967928240828 5.393592699430526 0
      vertex -4.183994186497132 1.6565604870810504 0
      vertex -3.9433800601973856 2.1678915334577193 0
    endloop
  endfacet
  facet normal 0 0 1
    outer loop
      vertex -4.461967928240828 5.393592699430526 0
      vertex -3.9433800601973856 2.1678915334577193 0
      vertex -3.6405764746872635 2.6450336353161292 0
    endloop
  endfacet
  facet normal -0.8443279255020152 0.5358267949789963 0
    outer loop
      vertex -6.134146760307044 3.372275718712008 -3
      vertex -6.134146760307044 3.372275718712008 0
      vertex -5.663118960624632 4.114496766047312 0
    endloop
  endfacet
  facet normal -0.7705132427757893 0.6374239897486896 0
    outer loop
      vertex -5.663118960624632 4.114496766047312 -3
      vertex -5.663118960624632 4.114496766047312 0
      vertex -5.1027803919498815 4.79182974150082 0
    endloop
  endfacet
  facet normal -0.6845471059286894 0.7289686274214108 0
    outer loop
      vertex -4.461967928240828 5.393592699430526 -3
      vertex -5.1027803919498815 4.79182974150082 0
      vertex -4.461967928240828 5.393592699430526 0
    endloop
  endfacet
  facet normal -0.5877852522924721 0.8090169943749481 0
    outer loop
      vertex -3.7507875648529776 5.910295478514104 -3
      vertex -4.461967928240828 5.393592699430526 0
      vertex -3.7507875648529776 5.910295478514104 0
    endloop
  endfacet
  facet normal 0 0 1
    outer loop
      vertex -5.1027803919498815 4.79182974150082 0
      vertex -4.35862422507884 1.119104492241847 0
      vertex -4.461967928240828 5.393592699430526 0
    endloop
  endfacet
  facet normal 0 0 1
    outer loop
      vertex -3.7507875648529776 5.910295478514104 0
      vertex -3.6405764746872635 2.6450336353161292 0
      vertex -3.2803588233963525 3.080461976679098 0
    endloop
  endfacet
  facet normal 0 0 1
    outer loop
      vertex -4.461967928240828 5.393592699430526 0
      vertex -3.6405764746872635 2.6450336353161292 0
      vertex -3.7507875648529776 5.910295478514104 0
    endloop
  endfacet
  facet normal -0.4817536741017157 0.8763066800438634 0
    outer loop
      vertex -2.980455040955509 6.333789367262137 -3
      vertex -3.7507875648529776 5.910295478514104 0
      vertex -2.980455040955509 6.333789367262137 0
    endloop
  endfacet
  facet normal -0.3681245526846775 0.9297764858882517 0
    outer loop
      vertex -2.1631189606246317 6.657395614066075 -3
      vertex -2.980455040955509 6.333789367262137 0
      vertex -2.1631189606246317 6.657395614066075 0
    endloop
  endfacet
  facet normal -0.24868988716485535 0.968583161128631 0
    outer loop
      vertex -1.311669202100072 6.876010755100821 -3
      vertex -2.1631189606246317 6.657395614066075 0
      vertex -1.311669202100072 6.876010755100821 0
    endloop
  endfacet
  facet normal -0.12533323356430376 0.992114701314478 0
    outer loop
      vertex -0.43953363670519296 6.986187098997901 -3
      vertex -1.311669202100072 6.876010755100821 0
      vertex -0.43953363670519296 6.986187098997901 0
    endloop
  endfacet
  facet normal 0 0 1
    outer loop
      vertex -3.7507875648529776 5.910295478514104 0
      vertex -3.2803588233963525 3.080461976679098 0
      vertex -2.868407953869103 3.467309592491052 0
    endloop
  endfacet
  facet normal 0 0 1
    outer loop
      vertex -3.7507875648529776 5.910295478514104 0
      vertex -2.868407953869103 3.467309592491052 0
      vertex -2.980455040955509 6.333789367262137 0
    endloop
  endfacet
  facet normal 0 0 1
    outer loop
      vertex -2.980455040955509 6.333789367262137 0
      vertex -2.868407953869103 3.467309592491052 0
      vertex -2.4112205774054853 3.7994756647590675 0
    endloop
  endfacet
  facet normal 0 0 1
    outer loop
      vertex -2.980455040955509 6.333789367262137 0
      vertex -2.4112205774054853 3.7994756647590675 0
      vertex -1.9160068120428273 4.071721736097087 0
    endloop
  endfacet
  facet normal 0 0 1
    outer loop
      vertex -2.1631189606246317 6.657395614066075 0
      vertex -1.9160068120428273 4.071721736097087 0
      vertex -1.3905764746872633 4.2797543233281905 0
    endloop
  endfacet
  facet normal 0 0 1
    outer loop
      vertex -2.980455040955509 6.333789367262137 0
      vertex -1.9160068120428273 4.071721736097087 0
      vertex -2.1631189606246317 6.657395614066075 0
    endloop
  endfacet
  facet normal 0 0 1
    outer loop
      vertex -2.1631189606246317 6.657395614066075 0
      vertex -1.3905764746872633 4.2797543233281905 0
      vertex -0.8432159156357606 4.420292628279099 0
    endloop
  endfacet
  facet normal 0 0 1
    outer loop
      vertex -2.1631189606246317 6.657395614066075 0
      vertex -0.8432159156357606 4.420292628279099 0
      vertex -1.311669202100072 6.876010755100821 0
    endloop
  endfacet
  facet normal 0 0 1
    outer loop
      vertex -1.311669202100072 6.876010755100821 0
      vertex -0.8432159156357606 4.420292628279099 0
      vertex -0.28255733788190923 4.491120277927222 0
    endloop
  endfacet
  facet normal 0 0 1
    outer loop
      vertex -1.311669202100072 6.876010755100821 0
      vertex -0.28255733788190923 4.491120277927222 0
      vertex -0.43953363670519296 6.986187098997901 0
    endloop
  endfacet
  facet normal 0 0 1
    outer loop
      vertex -0.43953363670519296 6.986187098997901 0
      vertex -0.28255733788190923 4.491120277927222 0
      vertex 0.43953363670519296 6.986187098997901 0
    endloop
  endfacet
  facet normal 0 0 -1
    outer loop
      vertex 0.43953363670519635 -6.986187098997901 -3
      vertex 0.9215328225110039 -2.8361863968087615 -3
      vertex 1.3116692021000738 -6.87601075510082 -3
    endloop
  endfacet
  facet normal 0 0 -1
    outer loop
      vertex 1.3116692021000738 -6.87601075510082 -3
      vertex 1.5979120493123637 -2.5179064921220813 -3
      vertex 2.1631189606246317 -6.657395614066075 -3
    endloop
  endfacet
  facet normal 0 0 -1
    outer loop
      vertex 0.43953363670519635 -6.986187098997901 -3
      vertex -0.18725029931063214 -2.9762582794200245 -3
      vertex 0.18725029931063214 -2.9762582794200245 -3
    endloop
  endfacet
  facet normal 0 0 -1
    outer loop
      vertex 0.43953363670519635 -6.986187098997901 -3
      vertex 0.18725029931063214 -2.9762582794200245 -3
      vertex 0.558797848853858 -2.929320908423054 -3
    endloop
  endfacet
  facet normal 0 0 -1
    outer loop
      vertex 0.43953363670519635 -6.986187098997901 -3
      vertex 0.558797848853858 -2.929320908423054 -3
      vertex 0.9215328225110039 -2.8361863968087615 -3
    endloop
  endfacet
  facet normal 0 0 -1
    outer loop
      vertex 1.3116692021000738 -6.87601075510082 -3
      vertex 0.9215328225110039 -2.8361863968087615 -3
      vertex 1.2697346730601269 -2.6983235314611655 -3
    endloop
  endfacet
  facet normal 0 0 -1
    outer loop
      vertex 1.3116692021000738 -6.87601075510082 -3
      vertex 1.2697346730601269 -2.6983235314611655 -3
      vertex 1.5979120493123637 -2.5179064921220813 -3
    endloop
  endfacet
  facet normal 0 0 -1
    outer loop
      vertex 2.1631189606246317 -6.657395614066075 -3
      vertex 2.6132717065593782 -1.4366582781247585 -3
      vertex 2.980455040955507 -6.333789367262137 -3
    endloop
  endfacet
  facet normal 0 0 -1
    outer loop
      vertex 2.1631189606246317 -6.657395614066075 -3
      vertex 1.5979120493123637 -2.5179064921220813 -3
      vertex 1.9008893980005577 -2.2977805632777994 -3
    endloop
  endfacet
  facet normal 0 0 -1
    outer loop
      vertex 2.1631189606246317 -6.657395614066075 -3
      vertex 1.9008893980005577 -2.2977805632777994 -3
      vertex 2.1738885853459955 -2.041417262323053 -3
    endloop
  endfacet
  facet normal 0 -1 0
    outer loop
      vertex -0.43953363670519635 -6.986187098997901 -3
      vertex 0.43953363670519635 -6.986187098997901 -3
      vertex 0.43953363670519635 -6.986187098997901 0
    endloop
  endfacet
  facet normal 0.12533323356430498 -0.9921147013144778 0
    outer loop
      vertex 0.43953363670519635 -6.986187098997901 -3
      vertex 1.3116692021000738 -6.87601075510082 -3
      vertex 1.3116692021000738 -6.87601075510082 0
    endloop
  endfacet
  facet normal 0.24868988716485488 -0.9685831611286311 0
    outer loop
      vertex 1.3116692021000738 -6.87601075510082 -3
      vertex 2.1631189606246317 -6.657395614066075 -3
      vertex 2.1631189606246317 -6.657395614066075 0
    endloop
  endfacet
  facet normal 0.36812455268467814 -0.9297764858882512 0
    outer loop
      vertex 2.1631189606246317 -6.657395614066075 -3
      vertex 2.980455040955507 -6.333789367262137 -3
      vertex 2.980455040955507 -6.333789367262137 0
    endloop
  endfacet
  facet normal 0.4817536741017145 -0.8763066800438641 0
    outer loop
      vertex 2.980455040955507 -6.333789367262137 -3
      vertex 3.7507875648529736 -5.910295478514107 -3
      vertex 3.7507875648529736 -5.910295478514107 0
    endloop
  endfacet
  facet normal 0 0 -1
    outer loop
      vertex 2.1631189606246317 -6.657395614066075 -3
      vertex 2.1738885853459955 -2.041417262323053 -3
      vertex 2.4126042510824326 -1.752859591657911 -3
    endloop
  endfacet
  facet normal 0 0 -1
    outer loop
      vertex 2.1631189606246317 -6.657395614066075 -3
      vertex 2.4126042510824326 -1.752859591657911 -3
      vertex 2.6132717065593782 -1.4366582781247585 -3
    endloop
  endfacet
  facet normal 0 0 -1
    outer loop
      vertex 2.980455040955507 -6.333789367262137 -3
      vertex 2.6132717065593782 -1.4366582781247585 -3
      vertex 2.772726306131035 -1.097800005327523 -3
    endloop
  endfacet
  facet normal 0 0 -1
    outer loop
      vertex 2.980455040955507 -6.333789367262137 -3
      vertex 2.772726306131035 -1.097800005327523 -3
      vertex 2.888453355508597 -0.7416287706523338 -3
    endloop
  endfacet
  facet normal 0 0 -1
    outer loop
      vertex 2.980455040955507 -6.333789367262137 -3
      vertex 2.888453355508597 -0.7416287706523338 -3
      vertex 2.9586277699913897 -0.3737616072364067 -3
    endloop
  endfacet
  facet normal 0 0 -1
    outer loop
      vertex 2.980455040955507 -6.333789367262137 -3
      vertex 2.9586277699913897 -0.3737616072364067 -3
      vertex 2.982142857142857 0 -3
    endloop
  endfacet
  facet normal 0 0 -1
    outer loop
      vertex 2.980455040955507 -6.333789367262137 -3
      vertex 3.7507875648529767 5.910295478514105 -3
      vertex 3.7507875648529736 -5.910295478514107 -3
    endloop
  endfacet
  facet normal 0 0 -1
    outer loop
      vertex 2.980455040955507 -6.333789367262137 -3
      vertex 2.982142857142857 0 -3
      vertex 3.7507875648529767 5.910295478514105 -3
    endloop
  endfacet
  facet normal 0.587785252292473 -0.8090169943749476 0
    outer loop
      vertex 3.7507875648529736 -5.910295478514107 -3
      vertex 4.4619679282408296 -5.393592699430523 -3
      vertex 4.4619679282408296 -5.393592699430523 0
    endloop
  endfacet
  facet normal 0.6845471059286887 -0.7289686274214113 0
    outer loop
      vertex 4.4619679282408296 -5.393592699430523 -3
      vertex 5.1027803919498815 -4.79182974150082 -3
      vertex 5.1027803919498815 -4.79182974150082 0
    endloop
  endfacet
  facet normal 0.7705132427757893 -0.6374239897486896 0
    outer loop
      vertex 5.1027803919498815 -4.79182974150082 -3
      vertex 5.663118960624632 -4.114496766047312 -3
      vertex 5.1027803919498815 -4.79182974150082 0
    endloop
  endfacet
  facet normal 0.8443279255020152 -0.5358267949789963 0
    outer loop
      vertex 5.663118960624632 -4.114496766047312 -3
      vertex 6.134146760307044 -3.372275718712008 -3
      vertex 5.663118960624632 -4.114496766047312 0
    endloop
  endfacet
  facet normal 0 0 -1
    outer loop
      vertex 3.7507875648529736 -5.910295478514107 -3
      vertex 4.461967928240828 5.393592699430524 -3
      vertex 4.4619679282408296 -5.393592699430523 -3
    endloop
  endfacet
  facet normal 0 0 -1
    outer loop
      vertex 4.4619679282408296 -5.393592699430523 -3
      vertex 5.102780391949881 4.7918297415008215 -3
      vertex 5.1027803919498815 -4.79182974150082 -3
    endloop
  endfacet
  facet normal 0 0 -1
    outer loop
      vertex 5.1027803919498815 -4.79182974150082 -3
      vertex 5.663118960624632 4.114496766047312 -3
      vertex 5.663118960624632 -4.114496766047312 -3
    endloop
  endfacet
  facet normal 0 0 -1
    outer loop
      vertex 5.663118960624632 -4.114496766047312 -3
      vertex 6.134146760307045 3.3722757187120074 -3
      vertex 6.134146760307044 -3.372275718712008 -3
    endloop
  endfacet
  facet normal 0 0 -1
    outer loop
      vertex 6.134146760307044 -3.372275718712008 -3
      vertex 6.50843540121776 2.576871868792746 -3
      vertex 6.508435401217759 -2.5768718687927485 -3
    endloop
  endfacet
  facet normal 0 0 -1
    outer loop
      vertex 6.508435401217759 -2.5768718687927485 -3
      vertex 6.7800821279004175 1.7408292101539835 -3
      vertex 6.780082127900418 -1.740829210153981 -3
    endloop
  endfacet
  facet normal 0 0 -1
    outer loop
      vertex 6.780082127900418 -1.740829210153981 -3
      vertex 6.9448029092013455 0.8773326349501298 -3
      vertex 6.9448029092013455 -0.8773326349501285 -3
    endloop
  endfacet
  facet normal 0.9048270524660191 -0.4257792915650735 0
    outer loop
      vertex 6.134146760307044 -3.372275718712008 -3
      vertex 6.508435401217759 -2.5768718687927485 -3
      vertex 6.134146760307044 -3.372275718712008 0
    endloop
  endfacet
  facet normal 0.9510565162951536 -0.3090169943749471 0
    outer loop
      vertex 6.508435401217759 -2.5768718687927485 -3
      vertex 6.780082127900418 -1.740829210153981 -3
      vertex 6.508435401217759 -2.5768718687927485 0
    endloop
  endfacet
  facet normal 0.9822872507286886 -0.18738131458572496 0
    outer loop
      vertex 6.780082127900418 -1.740829210153981 -3
      vertex 6.9448029092013455 -0.8773326349501285 -3
      vertex 6.780082127900418 -1.740829210153981 0
    endloop
  endfacet
  facet normal 0.9980267284282717 -0.06279051952931274 0
    outer loop
      vertex 6.9448029092013455 -0.8773326349501285 -3
      vertex 7 0 -3
      vertex 6.9448029092013455 -0.8773326349501285 0
    endloop
  endfacet
  facet normal 0.12533323356430498 -0.9921147013144778 0
    outer loop
      vertex 0.43953363670519635 -6.986187098997901 -3
      vertex 1.3116692021000738 -6.87601075510082 0
      vertex 0.43953363670519635 -6.986187098997901 0
    endloop
  endfacet
  facet normal 0.24868988716485488 -0.9685831611286311 0
    outer loop
      vertex 1.3116692021000738 -6.87601075510082 -3
      vertex 2.1631189606246317 -6.657395614066075 0
      vertex 1.3116692021000738 -6.87601075510082 0
    endloop
  endfacet
  facet normal 0.36812455268467814 -0.9297764858882512 0
    outer loop
      vertex 2.1631189606246317 -6.657395614066075 -3
      vertex 2.980455040955507 -6.333789367262137 0
      vertex 2.1631189606246317 -6.657395614066075 0
    endloop
  endfacet
  facet normal 0.4817536741017145 -0.8763066800438641 0
    outer loop
      vertex 2.980455040955507 -6.333789367262137 -3
      vertex 3.7507875648529736 -5.910295478514107 0
      vertex 2.980455040955507 -6.333789367262137 0
    endloop
  endfacet
  facet normal 0 0 1
    outer loop
      vertex -0.43953363670519635 -6.986187098997901 0
      vertex 0.43953363670519635 -6.986187098997901 0
      vertex 0.28255733788191195 -4.491120277927222 0
    endloop
  endfacet
  facet normal 0 0 1
    outer loop
      vertex 0.43953363670519635 -6.986187098997901 0
      vertex 1.3116692021000738 -6.87601075510082 0
      vertex 0.28255733788191195 -4.491120277927222 0
    endloop
  endfacet
  facet normal 0 0 1
    outer loop
      vertex 1.3116692021000738 -6.87601075510082 0
      vertex 0.8432159156357617 -4.420292628279099 0
      vertex 0.28255733788191195 -4.491120277927222 0
    endloop
  endfacet
  facet normal 0 0 1
    outer loop
      vertex 1.3116692021000738 -6.87601075510082 0
      vertex 2.1631189606246317 -6.657395614066075 0
      vertex 0.8432159156357617 -4.420292628279099 0
    endloop
  endfacet
  facet normal 0 0 1
    outer loop
      vertex 2.1631189606246317 -6.657395614066075 0
      vertex 1.3905764746872633 -4.2797543233281905 0
      vertex 0.8432159156357617 -4.420292628279099 0
    endloop
  endfacet
  facet normal 0 0 1
    outer loop
      vertex 2.1631189606246317 -6.657395614066075 0
      vertex 2.980455040955507 -6.333789367262137 0
      vertex 1.916006812042826 -4.071721736097088 0
    endloop
  endfacet
  facet normal 0 0 1
    outer loop
      vertex 2.1631189606246317 -6.657395614066075 0
      vertex 1.916006812042826 -4.071721736097088 0
      vertex 1.3905764746872633 -4.2797543233281905 0
    endloop
  endfacet
  facet normal 0 0 1
    outer loop
      vertex 2.980455040955507 -6.333789367262137 0
      vertex 2.411220577405483 -3.799475664759069 0
      vertex 1.916006812042826 -4.071721736097088 0
    endloop
  endfacet
  facet normal 0 0 1
    outer loop
      vertex 2.980455040955507 -6.333789367262137 0
      vertex 2.868407953869105 -3.4673095924910506 0
      vertex 2.411220577405483 -3.799475664759069 0
    endloop
  endfacet
  facet normal 0 0 1
    outer loop
      vertex 2.980455040955507 -6.333789367262137 0
      vertex 3.7507875648529736 -5.910295478514107 0
      vertex 2.868407953869105 -3.4673095924910506 0
    endloop
  endfacet
  facet normal 0 0 1
    outer loop
      vertex 3.7507875648529736 -5.910295478514107 0
      vertex 3.2803588233963525 -3.080461976679098 0
      vertex 2.868407953869105 -3.4673095924910506 0
    endloop
  endfacet
  facet normal 0.587785252292473 -0.8090169943749476 0
    outer loop
      vertex 3.7507875648529736 -5.910295478514107 -3
      vertex 4.4619679282408296 -5.393592699430523 0
      vertex 3.7507875648529736 -5.910295478514107 0
    endloop
  endfacet
  facet normal 0.6845471059286887 -0.7289686274214113 0
    outer loop
      vertex 4.4619679282408296 -5.393592699430523 -3
      vertex 5.1027803919498815 -4.79182974150082 0
      vertex 4.4619679282408296 -5.393592699430523 0
    endloop
  endfacet
  facet normal 0.7705132427757893 -0.6374239897486896 0
    outer loop
      vertex 5.663118960624632 -4.114496766047312 -3
      vertex 5.663118960624632 -4.114496766047312 0
      vertex 5.1027803919498815 -4.79182974150082 0
    endloop
  endfacet
  facet normal 0.8443279255020152 -0.5358267949789963 0
    outer loop
      vertex 6.134146760307044 -3.372275718712008 -3
      vertex 6.134146760307044 -3.372275718712008 0
      vertex 5.663118960624632 -4.114496766047312 0
    endloop
  endfacet
  facet normal 0 0 1
    outer loop
      vertex 3.7507875648529736 -5.910295478514107 0
      vertex 4.4619679282408296 -5.393592699430523 0
      vertex 3.6405764746872635 -2.6450336353161292 0
    endloop
  endfacet
  facet normal 0 0 1
    outer loop
      vertex 3.7507875648529736 -5.910295478514107 0
      vertex 3.6405764746872635 -2.6450336353161292 0
      vertex 3.2803588233963525 -3.080461976679098 0
    endloop
  endfacet
  facet normal 0 0 1
    outer loop
      vertex 4.4619679282408296 -5.393592699430523 0
      vertex 5.1027803919498815 -4.79182974150082 0
      vertex 4.358624225078841 -1.119104492241845 0
    endloop
  endfacet
  facet normal 0.9048270524660191 -0.4257792915650735 0
    outer loop
      vertex 6.508435401217759 -2.5768718687927485 -3
      vertex 6.508435401217759 -2.5768718687927485 0
      vertex 6.134146760307044 -3.372275718712008 0
    endloop
  endfacet
  facet normal 0.9510565162951536 -0.3090169943749471 0
    outer loop
      vertex 6.780082127900418 -1.740829210153981 -3
      vertex 6.780082127900418 -1.740829210153981 0
      vertex 6.508435401217759 -2.5768718687927485 0
    endloop
  endfacet
  facet normal 0.9822872507286886 -0.18738131458572496 0
    outer loop
      vertex 6.9448029092013455 -0.8773326349501285 -3
      vertex 6.9448029092013455 -0.8773326349501285 0
      vertex 6.780082127900418 -1.740829210153981 0
    endloop
  endfacet
  facet normal 0.9980267284282717 -0.06279051952931274 0
    outer loop
      vertex 6.9448029092013455 -0.8773326349501285 0
      vertex 7 0 -3
      vertex 7 0 0
    endloop
  endfacet
  facet normal 0 0 1
    outer loop
      vertex 4.4619679282408296 -5.393592699430523 0
      vertex 3.9433800601973856 -2.1678915334577193 0
      vertex 3.6405764746872635 -2.6450336353161292 0
    endloop
  endfacet
  facet normal 0 0 1
    outer loop
      vertex 4.4619679282408296 -5.393592699430523 0
      vertex 4.183994186497131 -1.6565604870810526 0
      vertex 3.9433800601973856 -2.1678915334577193 0
    endloop
  endfacet
  facet normal 0 0 1
    outer loop
      vertex 4.4619679282408296 -5.393592699430523 0
      vertex 4.358624225078841 -1.119104492241845 0
      vertex 4.183994186497131 -1.6565604870810526 0
    endloop
  endfacet
  facet normal 0 0 1
    outer loop
      vertex 5.1027803919498815 -4.79182974150082 0
      vertex 4.464516155915151 -0.5639995510393683 0
      vertex 4.358624225078841 -1.119104492241845 0
    endloop
  endfacet
  facet normal 0 0 1
    outer loop
      vertex 5.1027803919498815 -4.79182974150082 0
      vertex 4.5 0 0
      vertex 4.464516155915151 -0.5639995510393683 0
    endloop
  endfacet
  facet normal 0 0 1
    outer loop
      vertex 5.1027803919498815 -4.79182974150082 0
      vertex 5.663118960624632 -4.114496766047312 0
      vertex 5.102780391949881 4.7918297415008215 0
    endloop
  endfacet
  facet normal 0 0 1
    outer loop
      vertex 5.663118960624632 -4.114496766047312 0
      vertex 6.134146760307044 -3.372275718712008 0
      vertex 5.663118960624632 4.114496766047312 0
    endloop
  endfacet
  facet normal 0 0 1
    outer loop
      vertex 6.134146760307044 -3.372275718712008 0
      vertex 6.508435401217759 -2.5768718687927485 0
      vertex 6.134146760307045 3.3722757187120074 0
    endloop
  endfacet
  facet normal 0 0 1
    outer loop
      vertex 6.508435401217759 -2.5768718687927485 0
      vertex 6.780082127900418 -1.740829210153981 0
      vertex 6.50843540121776 2.576871868792746 0
    endloop
  endfacet
  facet normal 0 0 1
    outer loop
      vertex 6.780082127900418 -1.740829210153981 0
      vertex 6.9448029092013455 -0.8773326349501285 0
      vertex 6.7800821279004175 1.7408292101539835 0
    endloop
  endfacet
  facet normal 0 0 -1
    outer loop
      vertex 2.980455040955509 6.333789367262137 -3
      vertex 2.4126042510824326 1.752859591657911 -3
      vertex 2.1738885853459955 2.041417262323054 -3
    endloop
  endfacet
  facet normal 0 0 -1
    outer loop
      vertex 2.980455040955509 6.333789367262137 -3
      vertex 2.9586277699913897 0.37376160723640733 -3
      vertex 2.8884533555085965 0.7416287706523349 -3
    endloop
  endfacet
  facet normal 0 0 -1
    outer loop
      vertex 3.7507875648529767 5.910295478514105 -3
      vertex 2.982142857142857 0 -3
      vertex 2.9586277699913897 0.37376160723640733 -3
    endloop
  endfacet
  facet normal 0 0 -1
    outer loop
      vertex 2.980455040955509 6.333789367262137 -3
      vertex 2.772726306131035 1.0978000053275219 -3
      vertex 2.613271706559379 1.4366582781247583 -3
    endloop
  endfacet
  facet normal 0 0 -1
    outer loop
      vertex 2.980455040955509 6.333789367262137 -3
      vertex 2.8884533555085965 0.7416287706523349 -3
      vertex 2.772726306131035 1.0978000053275219 -3
    endloop
  endfacet
  facet normal 0 0 -1
    outer loop
      vertex 2.980455040955509 6.333789367262137 -3
      vertex 2.613271706559379 1.4366582781247583 -3
      vertex 2.4126042510824326 1.752859591657911 -3
    endloop
  endfacet
  facet normal 0 0 -1
    outer loop
      vertex 1.311669202100072 6.876010755100821 -3
      vertex 0.5587978488538572 2.929320908423054 -3
      vertex 0.1872502993106297 2.9762582794200245 -3
    endloop
  endfacet
  facet normal 0 0 -1
    outer loop
      vertex 1.311669202100072 6.876010755100821 -3
      vertex 0.9215328225110038 2.8361863968087615 -3
      vertex 0.5587978488538572 2.929320908423054 -3
    endloop
  endfacet
  facet normal 0 0 -1
    outer loop
      vertex 1.311669202100072 6.876010755100821 -3
      vertex 1.2697346730601275 2.6983235314611655 -3
      vertex 0.9215328225110038 2.8361863968087615 -3
    endloop
  endfacet
  facet normal 0 0 -1
    outer loop
      vertex 2.1631189606246317 6.657395614066075 -3
      vertex 1.597912049312365 2.517906492122081 -3
      vertex 1.2697346730601275 2.6983235314611655 -3
    endloop
  endfacet
  facet normal 0 0 -1
    outer loop
      vertex -0.43953363670519296 6.986187098997901 -3
      vertex 0.43953363670519296 6.986187098997901 -3
      vertex 0.1872502993106297 2.9762582794200245 -3
    endloop
  endfacet
  facet normal 0 0 -1
    outer loop
      vertex 0.43953363670519296 6.986187098997901 -3
      vertex 1.311669202100072 6.876010755100821 -3
      vertex 0.1872502993106297 2.9762582794200245 -3
    endloop
  endfacet
  facet normal 0 0 -1
    outer loop
      vertex 1.311669202100072 6.876010755100821 -3
      vertex 2.1631189606246317 6.657395614066075 -3
      vertex 1.2697346730601275 2.6983235314611655 -3
    endloop
  endfacet
  facet normal 0 0 -1
    outer loop
      vertex 2.1631189606246317 6.657395614066075 -3
      vertex 1.900889398000557 2.2977805632778 -3
      vertex 1.597912049312365 2.517906492122081 -3
    endloop
  endfacet
  facet normal 0 0 -1
    outer loop
      vertex 2.980455040955509 6.333789367262137 -3
      vertex 2.1738885853459955 2.041417262323054 -3
      vertex 1.900889398000557 2.2977805632778 -3
    endloop
  endfacet
  facet normal 0 0 -1
    outer loop
      vertex 2.1631189606246317 6.657395614066075 -3
      vertex 2.980455040955509 6.333789367262137 -3
      vertex 1.900889398000557 2.2977805632778 -3
    endloop
  endfacet
  facet normal 0 0 -1
    outer loop
      vertex 2.980455040955509 6.333789367262137 -3
      vertex 3.7507875648529767 5.910295478514105 -3
      vertex 2.9586277699913897 0.37376160723640733 -3
    endloop
  endfacet
  facet normal 0.12533323356430376 0.992114701314478 0
    outer loop
      vertex 0.43953363670519296 6.986187098997901 -3
      vertex 0.43953363670519296 6.986187098997901 0
      vertex 1.311669202100072 6.876010755100821 -3
    endloop
  endfacet
  facet normal 0.24868988716485535 0.968583161128631 0
    outer loop
      vertex 1.311669202100072 6.876010755100821 -3
      vertex 1.311669202100072 6.876010755100821 0
      vertex 2.1631189606246317 6.657395614066075 -3
    endloop
  endfacet
  facet normal 0.3681245526846775 0.9297764858882517 0
    outer loop
      vertex 2.1631189606246317 6.657395614066075 -3
      vertex 2.1631189606246317 6.657395614066075 0
      vertex 2.980455040955509 6.333789367262137 -3
    endloop
  endfacet
  facet normal 0.4817536741017154 0.8763066800438636 0
    outer loop
      vertex 2.980455040955509 6.333789367262137 -3
      vertex 2.980455040955509 6.333789367262137 0
      vertex 3.7507875648529767 5.910295478514105 -3
    endloop
  endfacet
  facet normal 0 0 -1
    outer loop
      vertex 4.4619679282408296 -5.393592699430523 -3
      vertex 4.461967928240828 5.393592699430524 -3
      vertex 5.102780391949881 4.7918297415008215 -3
    endloop
  endfacet
  facet normal 0 0 -1
    outer loop
      vertex 3.7507875648529736 -5.910295478514107 -3
      vertex 3.7507875648529767 5.910295478514105 -3
      vertex 4.461967928240828 5.393592699430524 -3
    endloop
  endfacet
  facet normal 0 0 -1
    outer loop
      vertex 5.1027803919498815 -4.79182974150082 -3
      vertex 5.102780391949881 4.7918297415008215 -3
      vertex 5.663118960624632 4.114496766047312 -3
    endloop
  endfacet
  facet normal 0 0 -1
    outer loop
      vertex 5.663118960624632 -4.114496766047312 -3
      vertex 5.663118960624632 4.114496766047312 -3
      vertex 6.134146760307045 3.3722757187120074 -3
    endloop
  endfacet
  facet normal 0 0 -1
    outer loop
      vertex 6.134146760307044 -3.372275718712008 -3
      vertex 6.134146760307045 3.3722757187120074 -3
      vertex 6.50843540121776 2.576871868792746 -3
    endloop
  endfacet
  facet normal 0 0 -1
    outer loop
      vertex 6.9448029092013455 -0.8773326349501285 -3
      vertex 6.9448029092013455 0.8773326349501298 -3
      vertex 7 0 -3
    endloop
  endfacet
  facet normal 0 0 -1
    outer loop
      vertex 6.780082127900418 -1.740829210153981 -3
      vertex 6.7800821279004175 1.7408292101539835 -3
      vertex 6.9448029092013455 0.8773326349501298 -3
    endloop
  endfacet
  facet normal 0 0 -1
    outer loop
      vertex 6.508435401217759 -2.5768718687927485 -3
      vertex 6.50843540121776 2.576871868792746 -3
      vertex 6.7800821279004175 1.7408292101539835 -3
    endloop
  endfacet
  facet normal 0.9980267284282717 0.06279051952931264 0
    outer loop
      vertex 7 0 -3
      vertex 6.9448029092013455 0.8773326349501298 -3
      vertex 7 0 0
    endloop
  endfacet
  facet normal 0.9822872507286885 0.1873813145857257 0
    outer loop
      vertex 6.9448029092013455 0.8773326349501298 -3
      vertex 6.7800821279004175 1.7408292101539835 -3
      vertex 6.9448029092013455 0.8773326349501298 0
    endloop
  endfacet
  facet normal 0.9510565162951536 0.30901699437494695 0
    outer loop
      vertex 6.7800821279004175 1.7408292101539835 -3
      vertex 6.50843540121776 2.576871868792746 -3
      vertex 6.7800821279004175 1.7408292101539835 0
    endloop
  endfacet
  facet normal 0.9048270524660196 0.42577929156507244 0
    outer loop
      vertex 6.50843540121776 2.576871868792746 -3
      vertex 6.134146760307045 3.3722757187120074 -3
      vertex 6.50843540121776 2.576871868792746 0
    endloop
  endfacet
  facet normal 0.6845471059286877 0.7289686274214123 0
    outer loop
      vertex 5.102780391949881 4.7918297415008215 -3
      vertex 4.461967928240828 5.393592699430524 -3
      vertex 4.461967928240828 5.393592699430524 0
    endloop
  endfacet
  facet normal 0.5877852522924736 0.809016994374947 0
    outer loop
      vertex 3.7507875648529767 5.910295478514105 -3
      vertex 3.7507875648529767 5.910295478514105 0
      vertex 4.461967928240828 5.393592699430524 -3
    endloop
  endfacet
  facet normal 0.7705132427757896 0.6374239897486893 0
    outer loop
      vertex 5.102780391949881 4.7918297415008215 -3
      vertex 5.663118960624632 4.114496766047312 0
      vertex 5.663118960624632 4.114496766047312 -3
    endloop
  endfacet
  facet normal 0.844327925502015 0.5358267949789969 0
    outer loop
      vertex 6.134146760307045 3.3722757187120074 -3
      vertex 5.663118960624632 4.114496766047312 -3
      vertex 6.134146760307045 3.3722757187120074 0
    endloop
  endfacet
  facet normal 0 1 0
    outer loop
      vertex -0.43953363670519296 6.986187098997901 0
      vertex 0.43953363670519296 6.986187098997901 0
      vertex 0.43953363670519296 6.986187098997901 -3
    endloop
  endfacet
  facet normal 0.12533323356430376 0.992114701314478 0
    outer loop
      vertex 1.311669202100072 6.876010755100821 -3
      vertex 0.43953363670519296 6.986187098997901 0
      vertex 1.311669202100072 6.876010755100821 0
    endloop
  endfacet
  facet normal 0.24868988716485535 0.968583161128631 0
    outer loop
      vertex 2.1631189606246317 6.657395614066075 -3
      vertex 1.311669202100072 6.876010755100821 0
      vertex 2.1631189606246317 6.657395614066075 0
    endloop
  endfacet
  facet normal 0.4817536741017154 0.8763066800438636 0
    outer loop
      vertex 3.7507875648529767 5.910295478514105 -3
      vertex 2.980455040955509 6.333789367262137 0
      vertex 3.7507875648529767 5.910295478514105 0
    endloop
  endfacet
  facet normal 0.3681245526846775 0.9297764858882517 0
    outer loop
      vertex 2.980455040955509 6.333789367262137 -3
      vertex 2.1631189606246317 6.657395614066075 0
      vertex 2.980455040955509 6.333789367262137 0
    endloop
  endfacet
  facet normal 0 0 1
    outer loop
      vertex 1.311669202100072 6.876010755100821 0
      vertex 0.8432159156357606 4.420292628279099 0
      vertex 1.3905764746872633 4.2797543233281905 0
    endloop
  endfacet
  facet normal 0 0 1
    outer loop
      vertex 1.311669202100072 6.876010755100821 0
      vertex 1.3905764746872633 4.2797543233281905 0
      vertex 1.9160068120428273 4.071721736097087 0
    endloop
  endfacet
  facet normal 0 0 1
    outer loop
      vertex 0.43953363670519296 6.986187098997901 0
      vertex -0.28255733788190923 4.491120277927222 0
      vertex 0.28255733788190973 4.491120277927222 0
    endloop
  endfacet
  facet normal 0 0 1
    outer loop
      vertex 0.43953363670519296 6.986187098997901 0
      vertex 0.28255733788190973 4.491120277927222 0
      vertex 0.8432159156357606 4.420292628279099 0
    endloop
  endfacet
  facet normal 0 0 1
    outer loop
      vertex 0.43953363670519296 6.986187098997901 0
      vertex 0.8432159156357606 4.420292628279099 0
      vertex 1.311669202100072 6.876010755100821 0
    endloop
  endfacet
  facet normal 0 0 1
    outer loop
      vertex 2.1631189606246317 6.657395614066075 0
      vertex 1.9160068120428273 4.071721736097087 0
      vertex 2.411220577405485 3.799475664759068 0
    endloop
  endfacet
  facet normal 0 0 1
    outer loop
      vertex 2.980455040955509 6.333789367262137 0
      vertex 2.868407953869104 3.467309592491051 0
      vertex 3.280358823396352 3.080461976679099 0
    endloop
  endfacet
  facet normal 0 0 1
    outer loop
      vertex 2.980455040955509 6.333789367262137 0
      vertex 2.411220577405485 3.799475664759068 0
      vertex 2.868407953869104 3.467309592491051 0
    endloop
  endfacet
  facet normal 0 0 1
    outer loop
      vertex 2.980455040955509 6.333789367262137 0
      vertex 3.280358823396352 3.080461976679099 0
      vertex 3.7507875648529767 5.910295478514105 0
    endloop
  endfacet
  facet normal 0 0 1
    outer loop
      vertex 1.311669202100072 6.876010755100821 0
      vertex 1.9160068120428273 4.071721736097087 0
      vertex 2.1631189606246317 6.657395614066075 0
    endloop
  endfacet
  facet normal 0 0 1
    outer loop
      vertex 2.1631189606246317 6.657395614066075 0
      vertex 2.411220577405485 3.799475664759068 0
      vertex 2.980455040955509 6.333789367262137 0
    endloop
  endfacet
  facet normal 0.9980267284282717 0.06279051952931264 0
    outer loop
      vertex 6.9448029092013455 0.8773326349501298 -3
      vertex 6.9448029092013455 0.8773326349501298 0
      vertex 7 0 0
    endloop
  endfacet
  facet normal 0.9822872507286885 0.1873813145857257 0
    outer loop
      vertex 6.7800821279004175 1.7408292101539835 -3
      vertex 6.7800821279004175 1.7408292101539835 0
      vertex 6.9448029092013455 0.8773326349501298 0
    endloop
  endfacet
  facet normal 0.9510565162951536 0.30901699437494695 0
    outer loop
      vertex 6.50843540121776 2.576871868792746 -3
      vertex 6.50843540121776 2.576871868792746 0
      vertex 6.7800821279004175 1.7408292101539835 0
    endloop
  endfacet
  facet normal 0.9048270524660196 0.42577929156507244 0
    outer loop
      vertex 6.134146760307045 3.3722757187120074 -3
      vertex 6.134146760307045 3.3722757187120074 0
      vertex 6.50843540121776 2.576871868792746 0
    endloop
  endfacet
  facet normal 0 0 1
    outer loop
      vertex 5.1027803919498815 -4.79182974150082 0
      vertex 4.461967928240828 5.393592699430524 0
      vertex 4.5 0 0
    endloop
  endfacet
  facet normal 0 0 1
    outer loop
      vertex 4.461967928240828 5.393592699430524 0
      vertex 4.183994186497131 1.6565604870810509 0
      vertex 4.35862422507884 1.1191044922418465 0
    endloop
  endfacet
  facet normal 0 0 1
    outer loop
      vertex 3.7507875648529767 5.910295478514105 0
      vertex 3.943380060197386 2.167891533457719 0
      vertex 4.183994186497131 1.6565604870810509 0
    endloop
  endfacet
  facet normal 0 0 1
    outer loop
      vertex 4.461967928240828 5.393592699430524 0
      vertex 4.464516155915151 0.5639995510393692 0
      vertex 4.5 0 0
    endloop
  endfacet
  facet normal 0 0 1
    outer loop
      vertex 4.461967928240828 5.393592699430524 0
      vertex 4.35862422507884 1.1191044922418465 0
      vertex 4.464516155915151 0.5639995510393692 0
    endloop
  endfacet
  facet normal 0 0 1
    outer loop
      vertex 5.1027803919498815 -4.79182974150082 0
      vertex 5.102780391949881 4.7918297415008215 0
      vertex 4.461967928240828 5.393592699430524 0
    endloop
  endfacet
  facet normal 0 0 1
    outer loop
      vertex 5.663118960624632 -4.114496766047312 0
      vertex 5.663118960624632 4.114496766047312 0
      vertex 5.102780391949881 4.7918297415008215 0
    endloop
  endfacet
  facet normal 0 0 1
    outer loop
      vertex 6.134146760307044 -3.372275718712008 0
      vertex 6.134146760307045 3.3722757187120074 0
      vertex 5.663118960624632 4.114496766047312 0
    endloop
  endfacet
  facet normal 0 0 1
    outer loop
      vertex 6.9448029092013455 -0.8773326349501285 0
      vertex 7 0 0
      vertex 6.9448029092013455 0.8773326349501298 0
    endloop
  endfacet
  facet normal 0 0 1
    outer loop
      vertex 6.780082127900418 -1.740829210153981 0
      vertex 6.7800821279004175 1.7408292101539835 0
      vertex 6.50843540121776 2.576871868792746 0
    endloop
  endfacet
  facet normal 0 0 1
    outer loop
      vertex 6.9448029092013455 -0.8773326349501285 0
      vertex 6.9448029092013455 0.8773326349501298 0
      vertex 6.7800821279004175 1.7408292101539835 0
    endloop
  endfacet
  facet normal 0 0 1
    outer loop
      vertex 6.508435401217759 -2.5768718687927485 0
      vertex 6.50843540121776 2.576871868792746 0
      vertex 6.134146760307045 3.3722757187120074 0
    endloop
  endfacet
  facet normal 0.6845471059286877 0.7289686274214123 0
    outer loop
      vertex 5.102780391949881 4.7918297415008215 -3
      vertex 4.461967928240828 5.393592699430524 0
      vertex 5.102780391949881 4.7918297415008215 0
    endloop
  endfacet
  facet normal 0.5877852522924736 0.809016994374947 0
    outer loop
      vertex 4.461967928240828 5.393592699430524 -3
      vertex 3.7507875648529767 5.910295478514105 0
      vertex 4.461967928240828 5.393592699430524 0
    endloop
  endfacet
  facet normal 0.844327925502015 0.5358267949789969 0
    outer loop
      vertex 5.663118960624632 4.114496766047312 -3
      vertex 5.663118960624632 4.114496766047312 0
      vertex 6.134146760307045 3.3722757187120074 0
    endloop
  endfacet
  facet normal 0.7705132427757896 0.6374239897486893 0
    outer loop
      vertex 5.102780391949881 4.7918297415008215 -3
      vertex 5.102780391949881 4.7918297415008215 0
      vertex 5.663118960624632 4.114496766047312 0
    endloop
  endfacet
  facet normal 0 0 1
    outer loop
      vertex 3.7507875648529767 5.910295478514105 0
      vertex 3.280358823396352 3.080461976679099 0
      vertex 3.6405764746872635 2.6450336353161292 0
    endloop
  endfacet
  facet normal 0 0 1
    outer loop
      vertex 3.7507875648529767 5.910295478514105 0
      vertex 3.6405764746872635 2.6450336353161292 0
      vertex 3.943380060197386 2.167891533457719 0
    endloop
  endfacet
  facet normal 0 0 1
    outer loop
      vertex 3.7507875648529767 5.910295478514105 0
      vertex 4.183994186497131 1.6565604870810509 0
      vertex 4.461967928240828 5.393592699430524 0
    endloop
  endfacet
endsolid OpenSCAD_Model
