solid OpenSCAD_Model
  facet normal 0.996787 0.0627103 -0.0498393
    outer loop
      vertex 6.175 0 -3
      vertex 6.12631 0.773932 -3
      vertex 6.325 0 0
    endloop
  endfacet
  facet normal 0 -0.998757 -0.0498413
    outer loop
      vertex -0.387731 -6.16281 -3
      vertex 0.0244751 -6.31252 0
      vertex -0.397149 -6.31252 0
    endloop
  endfacet
  facet normal -0 -0.998757 -0.0498413
    outer loop
      vertex 0.387731 -6.16281 -3
      vertex 0.0244751 -6.31252 0
      vertex -0.387731 -6.16281 -3
    endloop
  endfacet
  facet normal 0 -0.998757 -0.0498413
    outer loop
      vertex 0.0244751 -6.31252 0
      vertex 0.387731 -6.16281 -3
      vertex 0.397149 -6.31252 0
    endloop
  endfacet
  facet normal 0.996786 -0.0627194 -0.049837
    outer loop
      vertex 6.27512 -0.792732 0
      vertex 6.12631 -0.773932 -3
      vertex 6.325 0 0
    endloop
  endfacet
  facet normal -0.996787 -0.0627103 -0.0498393
    outer loop
      vertex -6.12631 -0.773932 -3
      vertex -6.325 0 0
      vertex -6.175 0 -3
    endloop
  endfacet
  facet normal 0.125176 0.990882 -0.0498413
    outer loop
      vertex 1.15708 6.06562 -3
      vertex 0.387731 6.16281 -3
      vertex 0.397149 6.31252 0
    endloop
  endfacet
  facet normal 0.9037 0.425256 -0.0498405
    outer loop
      vertex 5.74137 2.27317 -3
      vertex 5.54264 3.04709 0
      vertex 5.88084 2.32839 0
    endloop
  endfacet
  facet normal 0.683699 -0.72806 -0.0498399
    outer loop
      vertex 4.61073 -4.32976 0
      vertex 4.03171 -4.8735 0
      vertex 4.50138 -4.22708 -3
    endloop
  endfacet
  facet normal 0.248381 -0.967379 -0.0498396
    outer loop
      vertex 1.95453 -6.01543 0
      vertex 1.15708 -6.06562 -3
      vertex 1.90818 -5.87277 -3
    endloop
  endfacet
  facet normal -0.996786 0.0627194 -0.049837
    outer loop
      vertex -6.12631 0.773932 -3
      vertex -6.325 0 0
      vertex -6.27512 0.792732 0
    endloop
  endfacet
  facet normal 0.683699 0.72806 -0.0498399
    outer loop
      vertex 4.50138 4.22708 -3
      vertex 4.03171 4.8735 0
      vertex 4.61073 4.32976 0
    endloop
  endfacet
  facet normal 0.981068 0.187141 -0.049837
    outer loop
      vertex 6.12631 0.773932 -3
      vertex 6.12629 1.57296 0
      vertex 6.27512 0.792732 0
    endloop
  endfacet
  facet normal 0.9037 -0.425256 -0.0498405
    outer loop
      vertex 5.88084 -2.32839 0
      vertex 5.54264 -3.04709 0
      vertex 5.74137 -2.27317 -3
    endloop
  endfacet
  facet normal 0.769558 -0.636629 -0.0498401
    outer loop
      vertex 4.61073 -4.32976 0
      vertex 4.50138 -4.22708 -3
      vertex 4.99568 -3.62957 -3
    endloop
  endfacet
  facet normal 0.367666 -0.928621 -0.0498372
    outer loop
      vertex 2.69305 -5.72303 0
      vertex 1.95453 -6.01543 0
      vertex 2.62919 -5.58731 -3
    endloop
  endfacet
  facet normal -0.9037 0.425256 -0.0498405
    outer loop
      vertex -5.74137 2.27317 -3
      vertex -5.88084 2.32839 0
      vertex -5.54264 3.04709 0
    endloop
  endfacet
  facet normal 0 0 1
    outer loop
      vertex 0.0244751 4.48547 0
      vertex 1.11491 2.32091 0
      vertex 1.11491 3.4032 0
    endloop
  endfacet
  facet normal 0 0 1
    outer loop
      vertex 0.0244751 4.48547 0
      vertex 1.11491 3.4032 0
      vertex 1.1106 3.58655 0
    endloop
  endfacet
  facet normal 0 0 1
    outer loop
      vertex 1.11491 2.32091 0
      vertex 0.0244751 4.48547 0
      vertex 0.0244751 1.13292 0
    endloop
  endfacet
  facet normal 0 0 1
    outer loop
      vertex 0.368591 4.46887 0
      vertex 1.1106 3.58655 0
      vertex 1.09764 3.75064 0
    endloop
  endfacet
  facet normal 0 0 1
    outer loop
      vertex 1.11491 2.32091 0
      vertex 0.0244751 1.13292 0
      vertex 1.11118 2.12187 0
    endloop
  endfacet
  facet normal 0 0 1
    outer loop
      vertex 0.512741 4.44812 0
      vertex 1.09764 3.75064 0
      vertex 1.07605 3.89546 0
    endloop
  endfacet
  facet normal 0 -0 1
    outer loop
      vertex 0.065506 1.13075 0
      vertex 1.11118 2.12187 0
      vertex 0.0244751 1.13292 0
    endloop
  endfacet
  facet normal 0 0 1
    outer loop
      vertex 0.638306 4.41905 0
      vertex 1.07605 3.89546 0
      vertex 1.04582 4.02103 0
    endloop
  endfacet
  facet normal 0 -0 1
    outer loop
      vertex 0.104874 1.12892 0
      vertex 1.11118 2.12187 0
      vertex 0.065506 1.13075 0
    endloop
  endfacet
  facet normal 0 0 1
    outer loop
      vertex 0.745255 4.3817 0
      vertex 1.04582 4.02103 0
      vertex 1.00697 4.1273 0
    endloop
  endfacet
  facet normal 0 0 1
    outer loop
      vertex 1.11118 2.12187 0
      vertex 0.104874 1.12892 0
      vertex 1.09996 1.94327 0
    endloop
  endfacet
  facet normal 0 0 1
    outer loop
      vertex 0.745255 4.3817 0
      vertex 1.00697 4.1273 0
      vertex 0.959473 4.21432 0
    endloop
  endfacet
  facet normal 0 -0 1
    outer loop
      vertex 0.142593 1.12741 0
      vertex 1.09996 1.94327 0
      vertex 0.104874 1.12892 0
    endloop
  endfacet
  facet normal 0 0 1
    outer loop
      vertex 0.833603 4.33603 0
      vertex 0.959473 4.21432 0
      vertex 0.903351 4.28207 0
    endloop
  endfacet
  facet normal 0 -0 1
    outer loop
      vertex 0.213028 1.12541 0
      vertex 1.09996 1.94327 0
      vertex 0.178635 1.12625 0
    endloop
  endfacet
  facet normal 0 0 1
    outer loop
      vertex 0.959473 4.21432 0
      vertex 0.833603 4.33603 0
      vertex 0.745255 4.3817 0
    endloop
  endfacet
  facet normal 0 -0 1
    outer loop
      vertex 0.276825 1.12476 0
      vertex 1.08128 1.78508 0
      vertex 0.245758 1.12492 0
    endloop
  endfacet
  facet normal 0 0 1
    outer loop
      vertex 1.04582 4.02103 0
      vertex 0.745255 4.3817 0
      vertex 0.638306 4.41905 0
    endloop
  endfacet
  facet normal 0 0 1
    outer loop
      vertex 1.08128 1.78508 0
      vertex 0.405777 1.12949 0
      vertex 1.05511 1.64732 0
    endloop
  endfacet
  facet normal 0 0 1
    outer loop
      vertex 1.07605 3.89546 0
      vertex 0.638306 4.41905 0
      vertex 0.512741 4.44812 0
    endloop
  endfacet
  facet normal 0 -0 1
    outer loop
      vertex 0.628296 1.16733 0
      vertex 1.02148 1.52998 0
      vertex 0.522934 1.14368 0
    endloop
  endfacet
  facet normal 0 0 1
    outer loop
      vertex 1.02148 1.52998 0
      vertex 0.721863 1.20045 0
      vertex 0.980377 1.43307 0
    endloop
  endfacet
  facet normal 0 0 1
    outer loop
      vertex 1.09764 3.75064 0
      vertex 0.512741 4.44812 0
      vertex 0.368591 4.46887 0
    endloop
  endfacet
  facet normal 0 0 1
    outer loop
      vertex 0.931793 1.3566 0
      vertex 0.803635 1.24304 0
      vertex 0.873611 1.29509 0
    endloop
  endfacet
  facet normal 0 0 1
    outer loop
      vertex 1.1106 3.58655 0
      vertex 0.368591 4.46887 0
      vertex 0.205826 4.48132 0
    endloop
  endfacet
  facet normal 0 0 1
    outer loop
      vertex 0.980377 1.43307 0
      vertex 0.803635 1.24304 0
      vertex 0.931793 1.3566 0
    endloop
  endfacet
  facet normal 0 -0 1
    outer loop
      vertex 0.803635 1.24304 0
      vertex 0.980377 1.43307 0
      vertex 0.721863 1.20045 0
    endloop
  endfacet
  facet normal 0 -0 1
    outer loop
      vertex 0.721863 1.20045 0
      vertex 1.02148 1.52998 0
      vertex 0.628296 1.16733 0
    endloop
  endfacet
  facet normal 0 0 1
    outer loop
      vertex 1.1106 3.58655 0
      vertex 0.205826 4.48132 0
      vertex 0.0244751 4.48547 0
    endloop
  endfacet
  facet normal 0 0 1
    outer loop
      vertex 1.05511 1.64732 0
      vertex 0.522934 1.14368 0
      vertex 1.02148 1.52998 0
    endloop
  endfacet
  facet normal 0 -0 1
    outer loop
      vertex 0.522934 1.14368 0
      vertex 1.05511 1.64732 0
      vertex 0.405777 1.12949 0
    endloop
  endfacet
  facet normal 0 -0 1
    outer loop
      vertex 0.405777 1.12949 0
      vertex 1.08128 1.78508 0
      vertex 0.276825 1.12476 0
    endloop
  endfacet
  facet normal 0 0 1
    outer loop
      vertex 1.09996 1.94327 0
      vertex 0.245758 1.12492 0
      vertex 1.08128 1.78508 0
    endloop
  endfacet
  facet normal 0 -0 1
    outer loop
      vertex 0.178635 1.12625 0
      vertex 1.09996 1.94327 0
      vertex 0.142593 1.12741 0
    endloop
  endfacet
  facet normal 0 -0 1
    outer loop
      vertex 0.245758 1.12492 0
      vertex 1.09996 1.94327 0
      vertex 0.213028 1.12541 0
    endloop
  endfacet
  facet normal -0 0 1
    outer loop
      vertex 3.84645 0.452805 0
      vertex 6.325 0 0
      vertex 6.27512 0.792732 0
    endloop
  endfacet
  facet normal -0 0 1
    outer loop
      vertex 3.93149 0.950363 0
      vertex 6.27512 0.792732 0
      vertex 6.12629 1.57296 0
    endloop
  endfacet
  facet normal 0 0 1
    outer loop
      vertex 3.84645 0.452805 0
      vertex 6.27512 0.792732 0
      vertex 3.89429 0.687637 0
    endloop
  endfacet
  facet normal 0 0 1
    outer loop
      vertex 3.974 1.55952 0
      vertex 6.12629 1.57296 0
      vertex 5.88084 2.32839 0
    endloop
  endfacet
  facet normal -0 0 1
    outer loop
      vertex 3.78799 0.245865 0
      vertex 6.325 0 0
      vertex 3.84645 0.452805 0
    endloop
  endfacet
  facet normal 0 0 1
    outer loop
      vertex 3.97931 1.90594 0
      vertex 5.88084 2.32839 0
      vertex 5.54264 3.04709 0
    endloop
  endfacet
  facet normal 0 0 1
    outer loop
      vertex 6.325 0 0
      vertex 3.78799 0.245865 0
      vertex 6.27512 -0.792732 0
    endloop
  endfacet
  facet normal -0 0 1
    outer loop
      vertex 3.97931 3.05327 0
      vertex 5.54264 3.04709 0
      vertex 5.11703 3.71774 0
    endloop
  endfacet
  facet normal 0 0 1
    outer loop
      vertex 6.27512 0.792732 0
      vertex 3.93149 0.950363 0
      vertex 3.89429 0.687637 0
    endloop
  endfacet
  facet normal 0 0 1
    outer loop
      vertex 3.96835 3.70729 0
      vertex 5.11703 3.71774 0
      vertex 4.61073 4.32976 0
    endloop
  endfacet
  facet normal 0 0 1
    outer loop
      vertex 6.12629 1.57296 0
      vertex 3.95805 1.241 0
      vertex 3.93149 0.950363 0
    endloop
  endfacet
  facet normal -0 0 1
    outer loop
      vertex 3.9108 4.49023 0
      vertex 4.61073 4.32976 0
      vertex 4.03171 4.8735 0
    endloop
  endfacet
  facet normal 0 0 1
    outer loop
      vertex 5.88084 2.32839 0
      vertex 3.97931 1.90594 0
      vertex 3.974 1.55952 0
    endloop
  endfacet
  facet normal 0 0 1
    outer loop
      vertex 5.54264 3.04709 0
      vertex 3.97931 3.05327 0
      vertex 3.97931 1.90594 0
    endloop
  endfacet
  facet normal 0 0 1
    outer loop
      vertex 5.11703 3.71774 0
      vertex 3.97656 3.39348 0
      vertex 3.97931 3.05327 0
    endloop
  endfacet
  facet normal 0 0 1
    outer loop
      vertex 5.11703 3.71774 0
      vertex 3.96835 3.70729 0
      vertex 3.97656 3.39348 0
    endloop
  endfacet
  facet normal 0 0 1
    outer loop
      vertex 4.61073 4.32976 0
      vertex 3.95465 3.99467 0
      vertex 3.96835 3.70729 0
    endloop
  endfacet
  facet normal 0 0 1
    outer loop
      vertex 4.61073 4.32976 0
      vertex 3.93547 4.25566 0
      vertex 3.95465 3.99467 0
    endloop
  endfacet
  facet normal 0 0 1
    outer loop
      vertex 4.61073 4.32976 0
      vertex 3.9108 4.49023 0
      vertex 3.93547 4.25566 0
    endloop
  endfacet
  facet normal 0 0 1
    outer loop
      vertex 4.03171 4.8735 0
      vertex 3.88066 4.69839 0
      vertex 3.9108 4.49023 0
    endloop
  endfacet
  facet normal 0 0 1
    outer loop
      vertex 4.03171 4.8735 0
      vertex 3.84503 4.88016 0
      vertex 3.88066 4.69839 0
    endloop
  endfacet
  facet normal -0 -0 1
    outer loop
      vertex 3.84503 4.88016 0
      vertex 4.03171 4.8735 0
      vertex 3.80316 5.03955 0
    endloop
  endfacet
  facet normal 0 0 1
    outer loop
      vertex 6.12629 1.57296 0
      vertex 3.974 1.55952 0
      vertex 3.95805 1.241 0
    endloop
  endfacet
  facet normal -0 0 1
    outer loop
      vertex 3.71892 0.0668335 0
      vertex 6.27512 -0.792732 0
      vertex 3.78799 0.245865 0
    endloop
  endfacet
  facet normal -0 0 1
    outer loop
      vertex 3.63562 -0.0927277 0
      vertex 6.27512 -0.792732 0
      vertex 3.71892 0.0668335 0
    endloop
  endfacet
  facet normal 0 0 1
    outer loop
      vertex 6.27512 -0.792732 0
      vertex 3.63562 -0.0927277 0
      vertex 6.12629 -1.57296 0
    endloop
  endfacet
  facet normal -0 0 1
    outer loop
      vertex 3.53458 -0.241348 0
      vertex 6.12629 -1.57296 0
      vertex 3.63562 -0.0927277 0
    endloop
  endfacet
  facet normal -0 0 1
    outer loop
      vertex 3.41574 -0.378998 0
      vertex 6.12629 -1.57296 0
      vertex 3.53458 -0.241348 0
    endloop
  endfacet
  facet normal 0 0 1
    outer loop
      vertex 6.12629 -1.57296 0
      vertex 3.41574 -0.378998 0
      vertex 5.88084 -2.32839 0
    endloop
  endfacet
  facet normal -0 0 1
    outer loop
      vertex 3.27916 -0.505707 0
      vertex 5.88084 -2.32839 0
      vertex 3.41574 -0.378998 0
    endloop
  endfacet
  facet normal -0 0 1
    outer loop
      vertex 3.12479 -0.621445 0
      vertex 5.88084 -2.32839 0
      vertex 3.27916 -0.505707 0
    endloop
  endfacet
  facet normal 0 0 1
    outer loop
      vertex 5.88084 -2.32839 0
      vertex 3.12479 -0.621445 0
      vertex 5.54264 -3.04709 0
    endloop
  endfacet
  facet normal -0 0 1
    outer loop
      vertex 2.95265 -0.726242 0
      vertex 5.54264 -3.04709 0
      vertex 3.12479 -0.621445 0
    endloop
  endfacet
  facet normal 0 0 1
    outer loop
      vertex 5.54264 -3.04709 0
      vertex 2.95265 -0.726242 0
      vertex 5.11703 -3.71774 0
    endloop
  endfacet
  facet normal -0 0 1
    outer loop
      vertex 2.76276 -0.820068 0
      vertex 5.11703 -3.71774 0
      vertex 2.95265 -0.726242 0
    endloop
  endfacet
  facet normal -0 0 1
    outer loop
      vertex 2.55524 -0.902115 0
      vertex 5.11703 -3.71774 0
      vertex 2.76276 -0.820068 0
    endloop
  endfacet
  facet normal 0 0 1
    outer loop
      vertex 5.11703 -3.71774 0
      vertex 2.55524 -0.902115 0
      vertex 4.61073 -4.32976 0
    endloop
  endfacet
  facet normal -0 0 1
    outer loop
      vertex 2.33031 -0.971542 0
      vertex 4.61073 -4.32976 0
      vertex 2.55524 -0.902115 0
    endloop
  endfacet
  facet normal 0 0 1
    outer loop
      vertex 4.61073 -4.32976 0
      vertex 2.33031 -0.971542 0
      vertex 4.03171 -4.8735 0
    endloop
  endfacet
  facet normal -0 0 1
    outer loop
      vertex 2.08792 -1.02834 0
      vertex 4.03171 -4.8735 0
      vertex 2.33031 -0.971542 0
    endloop
  endfacet
  facet normal 0 0 1
    outer loop
      vertex 4.03171 -4.8735 0
      vertex 2.08792 -1.02834 0
      vertex 3.3891 -5.34037 0
    endloop
  endfacet
  facet normal -0 0 1
    outer loop
      vertex 1.82811 -1.07251 0
      vertex 3.3891 -5.34037 0
      vertex 2.08792 -1.02834 0
    endloop
  endfacet
  facet normal -0 0 1
    outer loop
      vertex 1.55084 -1.10406 0
      vertex 3.3891 -5.34037 0
      vertex 1.82811 -1.07251 0
    endloop
  endfacet
  facet normal 0 0 1
    outer loop
      vertex 3.3891 -5.34037 0
      vertex 1.55084 -1.10406 0
      vertex 2.69305 -5.72303 0
    endloop
  endfacet
  facet normal -0 0 1
    outer loop
      vertex 1.25616 -1.123 0
      vertex 2.69305 -5.72303 0
      vertex 1.55084 -1.10406 0
    endloop
  endfacet
  facet normal 0 0 1
    outer loop
      vertex 2.69305 -5.72303 0
      vertex 1.25616 -1.123 0
      vertex 1.95453 -6.01543 0
    endloop
  endfacet
  facet normal -0 0 1
    outer loop
      vertex 0.944031 -1.12932 0
      vertex 1.95453 -6.01543 0
      vertex 1.25616 -1.123 0
    endloop
  endfacet
  facet normal 0 0 1
    outer loop
      vertex 1.95453 -6.01543 0
      vertex 0.944031 -1.12932 0
      vertex 1.18519 -6.21297 0
    endloop
  endfacet
  facet normal 0 0 1
    outer loop
      vertex 0.944031 -1.12932 0
      vertex 0.397149 -6.31252 0
      vertex 1.18519 -6.21297 0
    endloop
  endfacet
  facet normal -0 0 1
    outer loop
      vertex 0.0244751 -1.12932 0
      vertex 0.397149 -6.31252 0
      vertex 0.944031 -1.12932 0
    endloop
  endfacet
  facet normal 0 0 1
    outer loop
      vertex 0.397149 -6.31252 0
      vertex 0.0244751 -1.12932 0
      vertex 0.0244751 -6.31252 0
    endloop
  endfacet
  facet normal 0 0 -1
    outer loop
      vertex 3.3891 5.34037 0
      vertex 3.80168 5.04517 0
      vertex 3.80316 5.03955 0
    endloop
  endfacet
  facet normal 0 0 -1
    outer loop
      vertex 3.80168 5.04517 0
      vertex 3.3891 5.34037 0
      vertex 3.74837 5.20303 0
    endloop
  endfacet
  facet normal 0 0 -1
    outer loop
      vertex 3.74837 5.20303 0
      vertex 3.3891 5.34037 0
      vertex 3.6851 5.35374 0
    endloop
  endfacet
  facet normal -0 0 -1
    outer loop
      vertex 3.6851 5.35374 0
      vertex 3.3891 5.34037 0
      vertex 3.61186 5.49731 0
    endloop
  endfacet
  facet normal -0 0 -1
    outer loop
      vertex 3.61186 5.49731 0
      vertex 3.3891 5.34037 0
      vertex 3.52867 5.63374 0
    endloop
  endfacet
  facet normal -0 0 -1
    outer loop
      vertex 3.52867 5.63374 0
      vertex 3.3891 5.34037 0
      vertex 3.43552 5.76302 0
    endloop
  endfacet
  facet normal 0 0 -1
    outer loop
      vertex 3.3891 5.34037 0
      vertex 3.3324 5.88515 0
      vertex 3.43552 5.76302 0
    endloop
  endfacet
  facet normal 0 0 -1
    outer loop
      vertex 2.69305 5.72303 0
      vertex 3.3324 5.88515 0
      vertex 3.3891 5.34037 0
    endloop
  endfacet
  facet normal -0 0 -1
    outer loop
      vertex 3.3324 5.88515 0
      vertex 2.69305 5.72303 0
      vertex 3.21664 5.99976 0
    endloop
  endfacet
  facet normal -0 0 -1
    outer loop
      vertex 3.21664 5.99976 0
      vertex 2.69305 5.72303 0
      vertex 3.08562 6.10638 0
    endloop
  endfacet
  facet normal -0 0 -1
    outer loop
      vertex 3.08562 6.10638 0
      vertex 2.69305 5.72303 0
      vertex 2.93932 6.20503 0
    endloop
  endfacet
  facet normal -0 0 -1
    outer loop
      vertex 2.93932 6.20503 0
      vertex 2.69305 5.72303 0
      vertex 2.77773 6.2957 0
    endloop
  endfacet
  facet normal 0 0 -1
    outer loop
      vertex 2.69305 5.72303 0
      vertex 2.60086 6.37839 0
      vertex 2.77773 6.2957 0
    endloop
  endfacet
  facet normal 0 0 -1
    outer loop
      vertex 1.95453 6.01543 0
      vertex 2.60086 6.37839 0
      vertex 2.69305 5.72303 0
    endloop
  endfacet
  facet normal -0 0 -1
    outer loop
      vertex 2.60086 6.37839 0
      vertex 1.95453 6.01543 0
      vertex 2.40871 6.45309 0
    endloop
  endfacet
  facet normal -0 0 -1
    outer loop
      vertex 2.40871 6.45309 0
      vertex 1.95453 6.01543 0
      vertex 2.20126 6.51984 0
    endloop
  endfacet
  facet normal -0 0 -1
    outer loop
      vertex 2.20126 6.51984 0
      vertex 1.95453 6.01543 0
      vertex 1.97302 6.57812 0
    endloop
  endfacet
  facet normal 0 0 -1
    outer loop
      vertex 1.95453 6.01543 0
      vertex 1.71837 6.62746 0
      vertex 1.97302 6.57812 0
    endloop
  endfacet
  facet normal 0 0 -1
    outer loop
      vertex 1.18519 6.21297 0
      vertex 1.71837 6.62746 0
      vertex 1.95453 6.01543 0
    endloop
  endfacet
  facet normal -0 0 -1
    outer loop
      vertex 1.71837 6.62746 0
      vertex 1.18519 6.21297 0
      vertex 1.4373 6.6678 0
    endloop
  endfacet
  facet normal 0 0 -1
    outer loop
      vertex 1.18519 6.21297 0
      vertex 1.12984 6.69919 0
      vertex 1.4373 6.6678 0
    endloop
  endfacet
  facet normal 0 0 -1
    outer loop
      vertex 1.18519 6.21297 0
      vertex 0.795944 6.72162 0
      vertex 1.12984 6.69919 0
    endloop
  endfacet
  facet normal 0 0 -1
    outer loop
      vertex 0.397149 6.31252 0
      vertex 0.795944 6.72162 0
      vertex 1.18519 6.21297 0
    endloop
  endfacet
  facet normal -0 0 -1
    outer loop
      vertex 0.795944 6.72162 0
      vertex 0.397149 6.31252 0
      vertex 0.435654 6.73506 0
    endloop
  endfacet
  facet normal 0 0 -1
    outer loop
      vertex 0.397149 6.31252 0
      vertex 0.0489502 6.73955 0
      vertex 0.435654 6.73506 0
    endloop
  endfacet
  facet normal 0 0 -1
    outer loop
      vertex -0.397149 6.31252 0
      vertex 0.0489502 6.73955 0
      vertex 0.397149 6.31252 0
    endloop
  endfacet
  facet normal 0 0 -1
    outer loop
      vertex -1.18519 6.21297 0
      vertex 0.0489502 6.73955 0
      vertex -0.397149 6.31252 0
    endloop
  endfacet
  facet normal 0 0 -1
    outer loop
      vertex -3.4014 6.73955 0
      vertex -1.18519 6.21297 0
      vertex -1.95453 6.01543 0
    endloop
  endfacet
  facet normal 0 0 -1
    outer loop
      vertex -1.18519 6.21297 0
      vertex -3.4014 6.73955 0
      vertex 0.0489502 6.73955 0
    endloop
  endfacet
  facet normal 0 0 -1
    outer loop
      vertex -2.69305 5.72303 0
      vertex -3.4014 6.73955 0
      vertex -1.95453 6.01543 0
    endloop
  endfacet
  facet normal 0 0 -1
    outer loop
      vertex -3.3891 5.34037 0
      vertex -3.4014 6.73955 0
      vertex -2.69305 5.72303 0
    endloop
  endfacet
  facet normal 0 0 -1
    outer loop
      vertex -3.4014 6.73955 0
      vertex -3.3891 5.34037 0
      vertex -3.4014 5.33144 0
    endloop
  endfacet
  facet normal 0 0 -1
    outer loop
      vertex 0.0244751 -6.435 0
      vertex -0.397149 -6.31252 0
      vertex 0.0244751 -6.31252 0
    endloop
  endfacet
  facet normal 0 0 -1
    outer loop
      vertex 0.0244751 -6.435 0
      vertex -1.18519 -6.21297 0
      vertex -0.397149 -6.31252 0
    endloop
  endfacet
  facet normal 0 0 -1
    outer loop
      vertex -3.4014 -6.435 0
      vertex -1.18519 -6.21297 0
      vertex 0.0244751 -6.435 0
    endloop
  endfacet
  facet normal 0 0 -1
    outer loop
      vertex -3.4014 -6.435 0
      vertex -1.95453 -6.01543 0
      vertex -1.18519 -6.21297 0
    endloop
  endfacet
  facet normal 0 0 -1
    outer loop
      vertex -3.4014 -6.435 0
      vertex -2.69305 -5.72303 0
      vertex -1.95453 -6.01543 0
    endloop
  endfacet
  facet normal 0 0 -1
    outer loop
      vertex -3.4014 -6.435 0
      vertex -3.3891 -5.34037 0
      vertex -2.69305 -5.72303 0
    endloop
  endfacet
  facet normal -0 0 -1
    outer loop
      vertex -3.3891 -5.34037 0
      vertex -3.4014 -6.435 0
      vertex -3.4014 -5.33144 0
    endloop
  endfacet
  facet normal -0 0 1
    outer loop
      vertex -4.03171 4.8735 0
      vertex -3.4014 -5.33144 0
      vertex -3.4014 5.33144 0
    endloop
  endfacet
  facet normal 0 0 1
    outer loop
      vertex -4.03171 4.8735 0
      vertex -4.03171 -4.8735 0
      vertex -3.4014 -5.33144 0
    endloop
  endfacet
  facet normal -0 0 1
    outer loop
      vertex -4.61073 4.32976 0
      vertex -4.03171 -4.8735 0
      vertex -4.03171 4.8735 0
    endloop
  endfacet
  facet normal 0 0 1
    outer loop
      vertex -4.61073 4.32976 0
      vertex -4.61073 -4.32976 0
      vertex -4.03171 -4.8735 0
    endloop
  endfacet
  facet normal -0 0 1
    outer loop
      vertex -5.11703 3.71774 0
      vertex -4.61073 -4.32976 0
      vertex -4.61073 4.32976 0
    endloop
  endfacet
  facet normal 0 0 1
    outer loop
      vertex -5.11703 3.71774 0
      vertex -5.11703 -3.71774 0
      vertex -4.61073 -4.32976 0
    endloop
  endfacet
  facet normal -0 0 1
    outer loop
      vertex -5.54264 3.04709 0
      vertex -5.11703 -3.71774 0
      vertex -5.11703 3.71774 0
    endloop
  endfacet
  facet normal 0 0 1
    outer loop
      vertex -5.54264 3.04709 0
      vertex -5.54264 -3.04709 0
      vertex -5.11703 -3.71774 0
    endloop
  endfacet
  facet normal -0 0 1
    outer loop
      vertex -5.88084 2.32839 0
      vertex -5.54264 -3.04709 0
      vertex -5.54264 3.04709 0
    endloop
  endfacet
  facet normal 0 0 1
    outer loop
      vertex -5.88084 2.32839 0
      vertex -5.88084 -2.32839 0
      vertex -5.54264 -3.04709 0
    endloop
  endfacet
  facet normal -0 0 1
    outer loop
      vertex -6.12629 1.57296 0
      vertex -5.88084 -2.32839 0
      vertex -5.88084 2.32839 0
    endloop
  endfacet
  facet normal 0 0 1
    outer loop
      vertex -6.12629 1.57296 0
      vertex -6.12629 -1.57296 0
      vertex -5.88084 -2.32839 0
    endloop
  endfacet
  facet normal -0 0 1
    outer loop
      vertex -6.27512 0.792732 0
      vertex -6.12629 -1.57296 0
      vertex -6.12629 1.57296 0
    endloop
  endfacet
  facet normal 0 0 1
    outer loop
      vertex -6.27512 0.792732 0
      vertex -6.27512 -0.792732 0
      vertex -6.12629 -1.57296 0
    endloop
  endfacet
  facet normal 0 -0 1
    outer loop
      vertex -6.27512 -0.792732 0
      vertex -6.27512 0.792732 0
      vertex -6.325 0 0
    endloop
  endfacet
  facet normal 0 0.998757 -0.0498413
    outer loop
      vertex 0.387731 6.16281 -3
      vertex -0.397149 6.31252 0
      vertex 0.397149 6.31252 0
    endloop
  endfacet
  facet normal 0 0.998757 -0.0498413
    outer loop
      vertex -0.397149 6.31252 0
      vertex 0.387731 6.16281 -3
      vertex -0.387731 6.16281 -3
    endloop
  endfacet
  facet normal -0.843277 0.535163 -0.049839
    outer loop
      vertex -4.99568 3.62957 -3
      vertex -5.54264 3.04709 0
      vertex -5.11703 3.71774 0
    endloop
  endfacet
  facet normal -0.683694 0.728064 -0.0498415
    outer loop
      vertex -3.93609 4.75792 -3
      vertex -4.50138 4.22708 -3
      vertex -4.03171 4.8735 0
    endloop
  endfacet
  facet normal 0.248381 0.967379 -0.0498396
    outer loop
      vertex 1.90818 5.87277 -3
      vertex 1.15708 6.06562 -3
      vertex 1.95453 6.01543 0
    endloop
  endfacet
  facet normal 0.367666 0.928621 -0.0498372
    outer loop
      vertex 2.62919 5.58731 -3
      vertex 1.95453 6.01543 0
      vertex 2.69305 5.72303 0
    endloop
  endfacet
  facet normal 0.587052 0.808014 -0.0498414
    outer loop
      vertex 3.30873 5.21372 -3
      vertex 3.80316 5.03955 0
      vertex 4.03171 4.8735 0
    endloop
  endfacet
  facet normal 0.587039 0.808023 -0.0498388
    outer loop
      vertex 3.80316 5.03955 0
      vertex 3.30873 5.21372 -3
      vertex 3.3891 5.34037 0
    endloop
  endfacet
  facet normal 0.76956 0.636627 -0.0498392
    outer loop
      vertex 4.99568 3.62957 -3
      vertex 4.61073 4.32976 0
      vertex 5.11703 3.71774 0
    endloop
  endfacet
  facet normal 0.996786 0.0627194 -0.049837
    outer loop
      vertex 6.325 0 0
      vertex 6.12631 0.773932 -3
      vertex 6.27512 0.792732 0
    endloop
  endfacet
  facet normal 0.981068 -0.187141 -0.049837
    outer loop
      vertex 6.27512 -0.792732 0
      vertex 6.12629 -1.57296 0
      vertex 6.12631 -0.773932 -3
    endloop
  endfacet
  facet normal 0.981066 -0.187152 -0.0498399
    outer loop
      vertex 6.12629 -1.57296 0
      vertex 5.981 -1.53566 -3
      vertex 6.12631 -0.773932 -3
    endloop
  endfacet
  facet normal 0.949875 -0.308631 -0.0498398
    outer loop
      vertex 6.12629 -1.57296 0
      vertex 5.74137 -2.27317 -3
      vertex 5.981 -1.53566 -3
    endloop
  endfacet
  facet normal 0.949876 -0.308628 -0.0498406
    outer loop
      vertex 5.88084 -2.32839 0
      vertex 5.74137 -2.27317 -3
      vertex 6.12629 -1.57296 0
    endloop
  endfacet
  facet normal 0.843279 -0.53516 -0.0498399
    outer loop
      vertex 5.54264 -3.04709 0
      vertex 4.99568 -3.62957 -3
      vertex 5.41119 -2.97483 -3
    endloop
  endfacet
  facet normal 0.587044 -0.80802 -0.0498388
    outer loop
      vertex 3.3891 -5.34037 0
      vertex 3.30873 -5.21372 -3
      vertex 4.03171 -4.8735 0
    endloop
  endfacet
  facet normal 0.481165 -0.875212 -0.0498389
    outer loop
      vertex 3.3891 -5.34037 0
      vertex 2.62919 -5.58731 -3
      vertex 3.30873 -5.21372 -3
    endloop
  endfacet
  facet normal -0.76956 -0.636627 -0.0498392
    outer loop
      vertex -4.61073 -4.32976 0
      vertex -5.11703 -3.71774 0
      vertex -4.99568 -3.62957 -3
    endloop
  endfacet
  facet normal -0.481158 -0.875216 -0.049837
    outer loop
      vertex -2.69305 -5.72303 0
      vertex -3.3891 -5.34037 0
      vertex -2.62919 -5.58731 -3
    endloop
  endfacet
  facet normal -0.843279 -0.53516 -0.0498399
    outer loop
      vertex -4.99568 -3.62957 -3
      vertex -5.54264 -3.04709 0
      vertex -5.41119 -2.97483 -3
    endloop
  endfacet
  facet normal -0.981068 0.187141 -0.049837
    outer loop
      vertex -6.12631 0.773932 -3
      vertex -6.27512 0.792732 0
      vertex -6.12629 1.57296 0
    endloop
  endfacet
  facet normal -0.981066 0.187152 -0.0498399
    outer loop
      vertex -5.981 1.53566 -3
      vertex -6.12631 0.773932 -3
      vertex -6.12629 1.57296 0
    endloop
  endfacet
  facet normal -0.248389 0.967377 -0.0498417
    outer loop
      vertex -1.15708 6.06562 -3
      vertex -1.95453 6.01543 0
      vertex -1.18519 6.21297 0
    endloop
  endfacet
  facet normal -0.949875 0.308631 -0.0498398
    outer loop
      vertex -5.981 1.53566 -3
      vertex -6.12629 1.57296 0
      vertex -5.74137 2.27317 -3
    endloop
  endfacet
  facet normal -0.949876 0.308628 -0.0498406
    outer loop
      vertex -5.74137 2.27317 -3
      vertex -6.12629 1.57296 0
      vertex -5.88084 2.32839 0
    endloop
  endfacet
  facet normal 0.248389 0.967377 -0.0498417
    outer loop
      vertex 1.95453 6.01543 0
      vertex 1.15708 6.06562 -3
      vertex 1.18519 6.21297 0
    endloop
  endfacet
  facet normal 0.125174 0.990882 -0.0498417
    outer loop
      vertex 1.15708 6.06562 -3
      vertex 0.397149 6.31252 0
      vertex 1.18519 6.21297 0
    endloop
  endfacet
  facet normal 0.481158 0.875216 -0.049837
    outer loop
      vertex 3.3891 5.34037 0
      vertex 2.62919 5.58731 -3
      vertex 2.69305 5.72303 0
    endloop
  endfacet
  facet normal 0.367658 0.928625 -0.0498395
    outer loop
      vertex 2.62919 5.58731 -3
      vertex 1.90818 5.87277 -3
      vertex 1.95453 6.01543 0
    endloop
  endfacet
  facet normal 0.949876 0.308628 -0.0498406
    outer loop
      vertex 6.12629 1.57296 0
      vertex 5.74137 2.27317 -3
      vertex 5.88084 2.32839 0
    endloop
  endfacet
  facet normal 0.843277 0.535163 -0.049839
    outer loop
      vertex 5.54264 3.04709 0
      vertex 4.99568 3.62957 -3
      vertex 5.11703 3.71774 0
    endloop
  endfacet
  facet normal 0.996787 -0.0627103 -0.0498393
    outer loop
      vertex 6.325 0 0
      vertex 6.12631 -0.773932 -3
      vertex 6.175 0 -3
    endloop
  endfacet
  facet normal 0.76956 -0.636627 -0.0498392
    outer loop
      vertex 5.11703 -3.71774 0
      vertex 4.61073 -4.32976 0
      vertex 4.99568 -3.62957 -3
    endloop
  endfacet
  facet normal 0.843277 -0.535163 -0.049839
    outer loop
      vertex 5.11703 -3.71774 0
      vertex 4.99568 -3.62957 -3
      vertex 5.54264 -3.04709 0
    endloop
  endfacet
  facet normal 0.903701 -0.425254 -0.0498401
    outer loop
      vertex 5.54264 -3.04709 0
      vertex 5.41119 -2.97483 -3
      vertex 5.74137 -2.27317 -3
    endloop
  endfacet
  facet normal 0.367658 -0.928625 -0.0498395
    outer loop
      vertex 1.95453 -6.01543 0
      vertex 1.90818 -5.87277 -3
      vertex 2.62919 -5.58731 -3
    endloop
  endfacet
  facet normal 0.125174 -0.990882 -0.0498417
    outer loop
      vertex 1.18519 -6.21297 0
      vertex 0.397149 -6.31252 0
      vertex 1.15708 -6.06562 -3
    endloop
  endfacet
  facet normal 0.248389 -0.967377 -0.0498417
    outer loop
      vertex 1.18519 -6.21297 0
      vertex 1.15708 -6.06562 -3
      vertex 1.95453 -6.01543 0
    endloop
  endfacet
  facet normal 0.125176 -0.990882 -0.0498413
    outer loop
      vertex 0.397149 -6.31252 0
      vertex 0.387731 -6.16281 -3
      vertex 1.15708 -6.06562 -3
    endloop
  endfacet
  facet normal 0.481158 -0.875216 -0.049837
    outer loop
      vertex 2.69305 -5.72303 0
      vertex 2.62919 -5.58731 -3
      vertex 3.3891 -5.34037 0
    endloop
  endfacet
  facet normal 0.587052 -0.808014 -0.0498414
    outer loop
      vertex 4.03171 -4.8735 0
      vertex 3.30873 -5.21372 -3
      vertex 3.93609 -4.75792 -3
    endloop
  endfacet
  facet normal 0 0 -1
    outer loop
      vertex 6.12631 -0.773932 -3
      vertex 6.12631 0.773932 -3
      vertex 6.175 0 -3
    endloop
  endfacet
  facet normal 0 0 -1
    outer loop
      vertex 5.981 -1.53566 -3
      vertex 6.12631 0.773932 -3
      vertex 6.12631 -0.773932 -3
    endloop
  endfacet
  facet normal 0 0 -1
    outer loop
      vertex 5.981 -1.53566 -3
      vertex 5.981 1.53566 -3
      vertex 6.12631 0.773932 -3
    endloop
  endfacet
  facet normal 0 0 -1
    outer loop
      vertex 5.74137 -2.27317 -3
      vertex 5.981 1.53566 -3
      vertex 5.981 -1.53566 -3
    endloop
  endfacet
  facet normal 0 0 -1
    outer loop
      vertex 5.74137 -2.27317 -3
      vertex 5.74137 2.27317 -3
      vertex 5.981 1.53566 -3
    endloop
  endfacet
  facet normal 0 0 -1
    outer loop
      vertex 5.41119 -2.97483 -3
      vertex 5.74137 2.27317 -3
      vertex 5.74137 -2.27317 -3
    endloop
  endfacet
  facet normal 0 0 -1
    outer loop
      vertex 5.41119 -2.97483 -3
      vertex 5.41119 2.97483 -3
      vertex 5.74137 2.27317 -3
    endloop
  endfacet
  facet normal 0 0 -1
    outer loop
      vertex 4.99568 -3.62957 -3
      vertex 5.41119 2.97483 -3
      vertex 5.41119 -2.97483 -3
    endloop
  endfacet
  facet normal 0 0 -1
    outer loop
      vertex 4.99568 -3.62957 -3
      vertex 4.99568 3.62957 -3
      vertex 5.41119 2.97483 -3
    endloop
  endfacet
  facet normal 0 0 -1
    outer loop
      vertex 4.50138 -4.22708 -3
      vertex 4.99568 3.62957 -3
      vertex 4.99568 -3.62957 -3
    endloop
  endfacet
  facet normal 0 0 -1
    outer loop
      vertex 4.50138 -4.22708 -3
      vertex 4.50138 4.22708 -3
      vertex 4.99568 3.62957 -3
    endloop
  endfacet
  facet normal 0 0 -1
    outer loop
      vertex 3.93609 -4.75792 -3
      vertex 4.50138 4.22708 -3
      vertex 4.50138 -4.22708 -3
    endloop
  endfacet
  facet normal 0 0 -1
    outer loop
      vertex 3.93609 -4.75792 -3
      vertex 3.93609 4.75792 -3
      vertex 4.50138 4.22708 -3
    endloop
  endfacet
  facet normal 0 0 -1
    outer loop
      vertex 3.30873 -5.21372 -3
      vertex 3.93609 4.75792 -3
      vertex 3.93609 -4.75792 -3
    endloop
  endfacet
  facet normal 0 0 -1
    outer loop
      vertex 3.30873 -5.21372 -3
      vertex 3.30873 5.21372 -3
      vertex 3.93609 4.75792 -3
    endloop
  endfacet
  facet normal 0 0 -1
    outer loop
      vertex 2.62919 -5.58731 -3
      vertex 3.30873 5.21372 -3
      vertex 3.30873 -5.21372 -3
    endloop
  endfacet
  facet normal 0 0 -1
    outer loop
      vertex 2.62919 -5.58731 -3
      vertex 2.62919 5.58731 -3
      vertex 3.30873 5.21372 -3
    endloop
  endfacet
  facet normal 0 0 -1
    outer loop
      vertex 1.90818 -5.87277 -3
      vertex 2.62919 5.58731 -3
      vertex 2.62919 -5.58731 -3
    endloop
  endfacet
  facet normal 0 0 -1
    outer loop
      vertex 1.90818 -5.87277 -3
      vertex 1.90818 5.87277 -3
      vertex 2.62919 5.58731 -3
    endloop
  endfacet
  facet normal 0 0 -1
    outer loop
      vertex 1.15708 -6.06562 -3
      vertex 1.90818 5.87277 -3
      vertex 1.90818 -5.87277 -3
    endloop
  endfacet
  facet normal 0 0 -1
    outer loop
      vertex 1.15708 -6.06562 -3
      vertex 1.15708 6.06562 -3
      vertex 1.90818 5.87277 -3
    endloop
  endfacet
  facet normal 0 0 -1
    outer loop
      vertex 0.387731 -6.16281 -3
      vertex 1.15708 6.06562 -3
      vertex 1.15708 -6.06562 -3
    endloop
  endfacet
  facet normal 0 0 -1
    outer loop
      vertex 0.387731 -6.16281 -3
      vertex 0.387731 6.16281 -3
      vertex 1.15708 6.06562 -3
    endloop
  endfacet
  facet normal 0 0 -1
    outer loop
      vertex -0.387731 -6.16281 -3
      vertex 0.387731 6.16281 -3
      vertex 0.387731 -6.16281 -3
    endloop
  endfacet
  facet normal 0 0 -1
    outer loop
      vertex -0.387731 -6.16281 -3
      vertex -0.387731 6.16281 -3
      vertex 0.387731 6.16281 -3
    endloop
  endfacet
  facet normal 0 0 -1
    outer loop
      vertex -1.15708 -6.06562 -3
      vertex -0.387731 6.16281 -3
      vertex -0.387731 -6.16281 -3
    endloop
  endfacet
  facet normal 0 0 -1
    outer loop
      vertex -1.15708 -6.06562 -3
      vertex -1.15708 6.06562 -3
      vertex -0.387731 6.16281 -3
    endloop
  endfacet
  facet normal 0 0 -1
    outer loop
      vertex -1.90818 -5.87277 -3
      vertex -1.15708 6.06562 -3
      vertex -1.15708 -6.06562 -3
    endloop
  endfacet
  facet normal 0 0 -1
    outer loop
      vertex -1.90818 -5.87277 -3
      vertex -1.90818 5.87277 -3
      vertex -1.15708 6.06562 -3
    endloop
  endfacet
  facet normal 0 0 -1
    outer loop
      vertex -2.62919 -5.58731 -3
      vertex -1.90818 5.87277 -3
      vertex -1.90818 -5.87277 -3
    endloop
  endfacet
  facet normal 0 0 -1
    outer loop
      vertex -2.62919 -5.58731 -3
      vertex -2.62919 5.58731 -3
      vertex -1.90818 5.87277 -3
    endloop
  endfacet
  facet normal 0 0 -1
    outer loop
      vertex -3.30873 -5.21372 -3
      vertex -2.62919 5.58731 -3
      vertex -2.62919 -5.58731 -3
    endloop
  endfacet
  facet normal 0 0 -1
    outer loop
      vertex -3.30873 -5.21372 -3
      vertex -3.30873 5.21372 -3
      vertex -2.62919 5.58731 -3
    endloop
  endfacet
  facet normal 0 0 -1
    outer loop
      vertex -3.93609 -4.75792 -3
      vertex -3.30873 5.21372 -3
      vertex -3.30873 -5.21372 -3
    endloop
  endfacet
  facet normal 0 0 -1
    outer loop
      vertex -3.93609 -4.75792 -3
      vertex -3.93609 4.75792 -3
      vertex -3.30873 5.21372 -3
    endloop
  endfacet
  facet normal 0 0 -1
    outer loop
      vertex -4.50138 -4.22708 -3
      vertex -3.93609 4.75792 -3
      vertex -3.93609 -4.75792 -3
    endloop
  endfacet
  facet normal 0 0 -1
    outer loop
      vertex -4.50138 -4.22708 -3
      vertex -4.50138 4.22708 -3
      vertex -3.93609 4.75792 -3
    endloop
  endfacet
  facet normal 0 0 -1
    outer loop
      vertex -4.99568 -3.62957 -3
      vertex -4.50138 4.22708 -3
      vertex -4.50138 -4.22708 -3
    endloop
  endfacet
  facet normal 0 0 -1
    outer loop
      vertex -4.99568 -3.62957 -3
      vertex -4.99568 3.62957 -3
      vertex -4.50138 4.22708 -3
    endloop
  endfacet
  facet normal 0 0 -1
    outer loop
      vertex -5.41119 -2.97483 -3
      vertex -4.99568 3.62957 -3
      vertex -4.99568 -3.62957 -3
    endloop
  endfacet
  facet normal 0 0 -1
    outer loop
      vertex -5.41119 -2.97483 -3
      vertex -5.41119 2.97483 -3
      vertex -4.99568 3.62957 -3
    endloop
  endfacet
  facet normal 0 0 -1
    outer loop
      vertex -5.74137 -2.27317 -3
      vertex -5.41119 2.97483 -3
      vertex -5.41119 -2.97483 -3
    endloop
  endfacet
  facet normal 0 0 -1
    outer loop
      vertex -5.74137 -2.27317 -3
      vertex -5.74137 2.27317 -3
      vertex -5.41119 2.97483 -3
    endloop
  endfacet
  facet normal 0 0 -1
    outer loop
      vertex -5.981 -1.53566 -3
      vertex -5.74137 2.27317 -3
      vertex -5.74137 -2.27317 -3
    endloop
  endfacet
  facet normal 0 0 -1
    outer loop
      vertex -5.981 -1.53566 -3
      vertex -5.981 1.53566 -3
      vertex -5.74137 2.27317 -3
    endloop
  endfacet
  facet normal 0 0 -1
    outer loop
      vertex -6.12631 -0.773932 -3
      vertex -5.981 1.53566 -3
      vertex -5.981 -1.53566 -3
    endloop
  endfacet
  facet normal 0 0 -1
    outer loop
      vertex -6.12631 -0.773932 -3
      vertex -6.12631 0.773932 -3
      vertex -5.981 1.53566 -3
    endloop
  endfacet
  facet normal 0 -0 -1
    outer loop
      vertex -6.12631 0.773932 -3
      vertex -6.12631 -0.773932 -3
      vertex -6.175 0 -3
    endloop
  endfacet
  facet normal -0.587049 -0.808016 -0.0498405
    outer loop
      vertex -3.30873 -5.21372 -3
      vertex -3.4014 -5.33144 0
      vertex -4.03171 -4.8735 0
    endloop
  endfacet
  facet normal -0.586776 -0.808214 -0.0498398
    outer loop
      vertex -3.4014 -5.33144 0
      vertex -3.30873 -5.21372 -3
      vertex -3.3891 -5.34037 0
    endloop
  endfacet
  facet normal -0.367666 -0.928621 -0.0498372
    outer loop
      vertex -1.95453 -6.01543 0
      vertex -2.69305 -5.72303 0
      vertex -2.62919 -5.58731 -3
    endloop
  endfacet
  facet normal -0.683699 -0.72806 -0.0498399
    outer loop
      vertex -4.03171 -4.8735 0
      vertex -4.61073 -4.32976 0
      vertex -4.50138 -4.22708 -3
    endloop
  endfacet
  facet normal -0.769558 -0.636629 -0.0498401
    outer loop
      vertex -4.61073 -4.32976 0
      vertex -4.99568 -3.62957 -3
      vertex -4.50138 -4.22708 -3
    endloop
  endfacet
  facet normal -0.9037 -0.425256 -0.0498405
    outer loop
      vertex -5.54264 -3.04709 0
      vertex -5.88084 -2.32839 0
      vertex -5.74137 -2.27317 -3
    endloop
  endfacet
  facet normal -0.949876 -0.308628 -0.0498406
    outer loop
      vertex -5.88084 -2.32839 0
      vertex -6.12629 -1.57296 0
      vertex -5.74137 -2.27317 -3
    endloop
  endfacet
  facet normal -0.949875 -0.308631 -0.0498398
    outer loop
      vertex -5.74137 -2.27317 -3
      vertex -6.12629 -1.57296 0
      vertex -5.981 -1.53566 -3
    endloop
  endfacet
  facet normal -0.125176 0.990882 -0.0498413
    outer loop
      vertex -0.387731 6.16281 -3
      vertex -1.15708 6.06562 -3
      vertex -0.397149 6.31252 0
    endloop
  endfacet
  facet normal -0.481158 0.875216 -0.049837
    outer loop
      vertex -2.62919 5.58731 -3
      vertex -3.3891 5.34037 0
      vertex -2.69305 5.72303 0
    endloop
  endfacet
  facet normal -0.996787 0.0627103 -0.0498393
    outer loop
      vertex -6.175 0 -3
      vertex -6.325 0 0
      vertex -6.12631 0.773932 -3
    endloop
  endfacet
  facet normal -0.76956 0.636627 -0.0498392
    outer loop
      vertex -4.99568 3.62957 -3
      vertex -5.11703 3.71774 0
      vertex -4.61073 4.32976 0
    endloop
  endfacet
  facet normal -0.769558 0.636629 -0.0498401
    outer loop
      vertex -4.50138 4.22708 -3
      vertex -4.99568 3.62957 -3
      vertex -4.61073 4.32976 0
    endloop
  endfacet
  facet normal -0.683699 0.72806 -0.0498399
    outer loop
      vertex -4.50138 4.22708 -3
      vertex -4.61073 4.32976 0
      vertex -4.03171 4.8735 0
    endloop
  endfacet
  facet normal -0.903701 0.425254 -0.0498401
    outer loop
      vertex -5.41119 2.97483 -3
      vertex -5.74137 2.27317 -3
      vertex -5.54264 3.04709 0
    endloop
  endfacet
  facet normal -0.843279 0.53516 -0.0498399
    outer loop
      vertex -5.41119 2.97483 -3
      vertex -5.54264 3.04709 0
      vertex -4.99568 3.62957 -3
    endloop
  endfacet
  facet normal 0.683694 0.728064 -0.0498415
    outer loop
      vertex 4.50138 4.22708 -3
      vertex 3.93609 4.75792 -3
      vertex 4.03171 4.8735 0
    endloop
  endfacet
  facet normal 0.481165 0.875212 -0.0498389
    outer loop
      vertex 3.30873 5.21372 -3
      vertex 2.62919 5.58731 -3
      vertex 3.3891 5.34037 0
    endloop
  endfacet
  facet normal 0.769558 0.636629 -0.0498401
    outer loop
      vertex 4.99568 3.62957 -3
      vertex 4.50138 4.22708 -3
      vertex 4.61073 4.32976 0
    endloop
  endfacet
  facet normal 0.949875 0.308631 -0.0498398
    outer loop
      vertex 5.981 1.53566 -3
      vertex 5.74137 2.27317 -3
      vertex 6.12629 1.57296 0
    endloop
  endfacet
  facet normal 0.981066 0.187152 -0.0498399
    outer loop
      vertex 6.12631 0.773932 -3
      vertex 5.981 1.53566 -3
      vertex 6.12629 1.57296 0
    endloop
  endfacet
  facet normal 0.683694 -0.728064 -0.0498415
    outer loop
      vertex 4.03171 -4.8735 0
      vertex 3.93609 -4.75792 -3
      vertex 4.50138 -4.22708 -3
    endloop
  endfacet
  facet normal -0.981068 -0.187141 -0.049837
    outer loop
      vertex -6.12629 -1.57296 0
      vertex -6.27512 -0.792732 0
      vertex -6.12631 -0.773932 -3
    endloop
  endfacet
  facet normal -0.996786 -0.0627194 -0.049837
    outer loop
      vertex -6.27512 -0.792732 0
      vertex -6.325 0 0
      vertex -6.12631 -0.773932 -3
    endloop
  endfacet
  facet normal -0.683694 -0.728064 -0.0498415
    outer loop
      vertex -4.03171 -4.8735 0
      vertex -4.50138 -4.22708 -3
      vertex -3.93609 -4.75792 -3
    endloop
  endfacet
  facet normal -0.587052 -0.808014 -0.0498414
    outer loop
      vertex -3.30873 -5.21372 -3
      vertex -4.03171 -4.8735 0
      vertex -3.93609 -4.75792 -3
    endloop
  endfacet
  facet normal -0.481165 -0.875212 -0.0498389
    outer loop
      vertex -2.62919 -5.58731 -3
      vertex -3.3891 -5.34037 0
      vertex -3.30873 -5.21372 -3
    endloop
  endfacet
  facet normal -0.843277 -0.535163 -0.049839
    outer loop
      vertex -5.11703 -3.71774 0
      vertex -5.54264 -3.04709 0
      vertex -4.99568 -3.62957 -3
    endloop
  endfacet
  facet normal -0.903701 -0.425254 -0.0498401
    outer loop
      vertex -5.54264 -3.04709 0
      vertex -5.74137 -2.27317 -3
      vertex -5.41119 -2.97483 -3
    endloop
  endfacet
  facet normal -0.125174 0.990882 -0.0498417
    outer loop
      vertex -1.15708 6.06562 -3
      vertex -1.18519 6.21297 0
      vertex -0.397149 6.31252 0
    endloop
  endfacet
  facet normal -0.367658 0.928625 -0.0498395
    outer loop
      vertex -1.90818 5.87277 -3
      vertex -2.62919 5.58731 -3
      vertex -1.95453 6.01543 0
    endloop
  endfacet
  facet normal -0.367666 0.928621 -0.0498372
    outer loop
      vertex -2.62919 5.58731 -3
      vertex -2.69305 5.72303 0
      vertex -1.95453 6.01543 0
    endloop
  endfacet
  facet normal -0.586776 0.808214 -0.0498398
    outer loop
      vertex -3.30873 5.21372 -3
      vertex -3.4014 5.33144 0
      vertex -3.3891 5.34037 0
    endloop
  endfacet
  facet normal -0.587049 0.808016 -0.0498405
    outer loop
      vertex -3.4014 5.33144 0
      vertex -3.30873 5.21372 -3
      vertex -4.03171 4.8735 0
    endloop
  endfacet
  facet normal -0.481165 0.875212 -0.0498389
    outer loop
      vertex -3.30873 5.21372 -3
      vertex -3.3891 5.34037 0
      vertex -2.62919 5.58731 -3
    endloop
  endfacet
  facet normal 0.587052 0.808014 -0.0498414
    outer loop
      vertex 3.93609 4.75792 -3
      vertex 3.30873 5.21372 -3
      vertex 4.03171 4.8735 0
    endloop
  endfacet
  facet normal 0.843279 0.53516 -0.0498399
    outer loop
      vertex 5.41119 2.97483 -3
      vertex 4.99568 3.62957 -3
      vertex 5.54264 3.04709 0
    endloop
  endfacet
  facet normal 0.903701 0.425254 -0.0498401
    outer loop
      vertex 5.74137 2.27317 -3
      vertex 5.41119 2.97483 -3
      vertex 5.54264 3.04709 0
    endloop
  endfacet
  facet normal -0.981066 -0.187152 -0.0498399
    outer loop
      vertex -6.12629 -1.57296 0
      vertex -6.12631 -0.773932 -3
      vertex -5.981 -1.53566 -3
    endloop
  endfacet
  facet normal -0.125176 -0.990882 -0.0498413
    outer loop
      vertex -0.397149 -6.31252 0
      vertex -1.15708 -6.06562 -3
      vertex -0.387731 -6.16281 -3
    endloop
  endfacet
  facet normal -0.248381 0.967379 -0.0498396
    outer loop
      vertex -1.90818 5.87277 -3
      vertex -1.95453 6.01543 0
      vertex -1.15708 6.06562 -3
    endloop
  endfacet
  facet normal -0.587052 0.808014 -0.0498414
    outer loop
      vertex -3.93609 4.75792 -3
      vertex -4.03171 4.8735 0
      vertex -3.30873 5.21372 -3
    endloop
  endfacet
  facet normal -0.248389 -0.967377 -0.0498417
    outer loop
      vertex -1.18519 -6.21297 0
      vertex -1.95453 -6.01543 0
      vertex -1.15708 -6.06562 -3
    endloop
  endfacet
  facet normal -0.125174 -0.990882 -0.0498417
    outer loop
      vertex -0.397149 -6.31252 0
      vertex -1.18519 -6.21297 0
      vertex -1.15708 -6.06562 -3
    endloop
  endfacet
  facet normal -0.248381 -0.967379 -0.0498396
    outer loop
      vertex -1.15708 -6.06562 -3
      vertex -1.95453 -6.01543 0
      vertex -1.90818 -5.87277 -3
    endloop
  endfacet
  facet normal -0.367658 -0.928625 -0.0498395
    outer loop
      vertex -1.95453 -6.01543 0
      vertex -2.62919 -5.58731 -3
      vertex -1.90818 -5.87277 -3
    endloop
  endfacet
  facet normal 0 0 1
    outer loop
      vertex 3.96835 3.70729 2
      vertex 1.1106 3.58655 2
      vertex 1.11491 3.4032 2
    endloop
  endfacet
  facet normal 0 0 1
    outer loop
      vertex 1.4373 6.6678 2
      vertex 1.09764 3.75064 2
      vertex 1.1106 3.58655 2
    endloop
  endfacet
  facet normal 0 0 1
    outer loop
      vertex 1.4373 6.6678 2
      vertex 1.07605 3.89546 2
      vertex 1.09764 3.75064 2
    endloop
  endfacet
  facet normal 0 0 1
    outer loop
      vertex 1.4373 6.6678 2
      vertex 1.04582 4.02103 2
      vertex 1.07605 3.89546 2
    endloop
  endfacet
  facet normal 0 0 1
    outer loop
      vertex 1.4373 6.6678 2
      vertex 1.00697 4.1273 2
      vertex 1.04582 4.02103 2
    endloop
  endfacet
  facet normal 0 0 1
    outer loop
      vertex 1.4373 6.6678 2
      vertex 0.959473 4.21432 2
      vertex 1.00697 4.1273 2
    endloop
  endfacet
  facet normal 0 0 1
    outer loop
      vertex 1.4373 6.6678 2
      vertex 0.903351 4.28207 2
      vertex 0.959473 4.21432 2
    endloop
  endfacet
  facet normal 0 0 1
    outer loop
      vertex 1.4373 6.6678 2
      vertex 0.833603 4.33603 2
      vertex 0.903351 4.28207 2
    endloop
  endfacet
  facet normal 0 0 1
    outer loop
      vertex 0.638306 4.41905 2
      vertex 1.12984 6.69919 2
      vertex 0.795944 6.72162 2
    endloop
  endfacet
  facet normal 0 0 1
    outer loop
      vertex 1.4373 6.6678 2
      vertex 0.745255 4.3817 2
      vertex 0.833603 4.33603 2
    endloop
  endfacet
  facet normal 0 0 1
    outer loop
      vertex 1.12984 6.69919 2
      vertex 0.638306 4.41905 2
      vertex 0.745255 4.3817 2
    endloop
  endfacet
  facet normal 0 0 1
    outer loop
      vertex 0.795944 6.72162 2
      vertex 0.512741 4.44812 2
      vertex 0.638306 4.41905 2
    endloop
  endfacet
  facet normal 0 0 1
    outer loop
      vertex 0.368591 4.46887 2
      vertex 0.795944 6.72162 2
      vertex 0.435654 6.73506 2
    endloop
  endfacet
  facet normal 0 0 1
    outer loop
      vertex 0.795944 6.72162 2
      vertex 0.368591 4.46887 2
      vertex 0.512741 4.44812 2
    endloop
  endfacet
  facet normal 0 0 1
    outer loop
      vertex 0.435654 6.73506 2
      vertex 0.205826 4.48132 2
      vertex 0.368591 4.46887 2
    endloop
  endfacet
  facet normal 0 0 1
    outer loop
      vertex 0.0489502 6.73955 2
      vertex 0.205826 4.48132 2
      vertex 0.435654 6.73506 2
    endloop
  endfacet
  facet normal 0 0 1
    outer loop
      vertex 0.0489502 6.73955 2
      vertex 0.0244751 4.48547 2
      vertex 0.205826 4.48132 2
    endloop
  endfacet
  facet normal 0 0 1
    outer loop
      vertex -3.4014 6.73955 2
      vertex 0.0244751 1.13292 2
      vertex 0.0244751 4.48547 2
    endloop
  endfacet
  facet normal 0 0 1
    outer loop
      vertex -3.4014 -6.435 2
      vertex 0.0244751 1.13292 2
      vertex -3.4014 6.73955 2
    endloop
  endfacet
  facet normal -0 0 1
    outer loop
      vertex -3.4014 6.73955 2
      vertex 0.0244751 4.48547 2
      vertex 0.0489502 6.73955 2
    endloop
  endfacet
  facet normal 0 0 1
    outer loop
      vertex 0.0244751 1.13292 2
      vertex -3.4014 -6.435 2
      vertex 0.0244751 -1.12932 2
    endloop
  endfacet
  facet normal 0 0 1
    outer loop
      vertex 0.0244751 -1.12932 2
      vertex -3.4014 -6.435 2
      vertex 0.0244751 -6.435 2
    endloop
  endfacet
  facet normal 0 0 1
    outer loop
      vertex 1.11491 3.4032 2
      vertex 3.97931 3.05327 2
      vertex 3.97656 3.39348 2
    endloop
  endfacet
  facet normal 0 0 1
    outer loop
      vertex 3.97931 3.05327 2
      vertex 1.11491 2.32091 2
      vertex 3.97931 1.90594 2
    endloop
  endfacet
  facet normal -0 0 1
    outer loop
      vertex 1.11491 3.4032 2
      vertex 3.97656 3.39348 2
      vertex 3.96835 3.70729 2
    endloop
  endfacet
  facet normal -0 0 1
    outer loop
      vertex 1.11118 2.12187 2
      vertex 3.97931 1.90594 2
      vertex 1.11491 2.32091 2
    endloop
  endfacet
  facet normal 0 0 1
    outer loop
      vertex 1.1106 3.58655 2
      vertex 3.96835 3.70729 2
      vertex 3.95465 3.99467 2
    endloop
  endfacet
  facet normal 0 0 1
    outer loop
      vertex 1.1106 3.58655 2
      vertex 3.95465 3.99467 2
      vertex 3.93547 4.25566 2
    endloop
  endfacet
  facet normal -0 0 1
    outer loop
      vertex 1.09996 1.94327 2
      vertex 3.97931 1.90594 2
      vertex 1.11118 2.12187 2
    endloop
  endfacet
  facet normal 0 0 1
    outer loop
      vertex 1.1106 3.58655 2
      vertex 3.93547 4.25566 2
      vertex 3.9108 4.49023 2
    endloop
  endfacet
  facet normal 0 0 1
    outer loop
      vertex 3.97931 1.90594 2
      vertex 1.09996 1.94327 2
      vertex 3.974 1.55952 2
    endloop
  endfacet
  facet normal 0 0 1
    outer loop
      vertex 1.1106 3.58655 2
      vertex 3.9108 4.49023 2
      vertex 3.88066 4.69839 2
    endloop
  endfacet
  facet normal -0 0 1
    outer loop
      vertex 1.08128 1.78508 2
      vertex 3.974 1.55952 2
      vertex 1.09996 1.94327 2
    endloop
  endfacet
  facet normal 0 0 1
    outer loop
      vertex 1.1106 3.58655 2
      vertex 3.88066 4.69839 2
      vertex 3.84503 4.88016 2
    endloop
  endfacet
  facet normal 0 0 1
    outer loop
      vertex 1.1106 3.58655 2
      vertex 3.84503 4.88016 2
      vertex 3.80168 5.04517 2
    endloop
  endfacet
  facet normal 0 0 1
    outer loop
      vertex 3.974 1.55952 2
      vertex 1.08128 1.78508 2
      vertex 3.95805 1.241 2
    endloop
  endfacet
  facet normal 0 0 1
    outer loop
      vertex 1.1106 3.58655 2
      vertex 3.80168 5.04517 2
      vertex 3.74837 5.20303 2
    endloop
  endfacet
  facet normal -0 0 1
    outer loop
      vertex 1.05511 1.64732 2
      vertex 3.95805 1.241 2
      vertex 1.08128 1.78508 2
    endloop
  endfacet
  facet normal 0 0 1
    outer loop
      vertex 1.1106 3.58655 2
      vertex 3.74837 5.20303 2
      vertex 3.6851 5.35374 2
    endloop
  endfacet
  facet normal 0 0 1
    outer loop
      vertex 3.95805 1.241 2
      vertex 1.05511 1.64732 2
      vertex 3.93149 0.950363 2
    endloop
  endfacet
  facet normal 0 0 1
    outer loop
      vertex 1.1106 3.58655 2
      vertex 3.6851 5.35374 2
      vertex 3.61186 5.49731 2
    endloop
  endfacet
  facet normal -0 0 1
    outer loop
      vertex 1.02148 1.52998 2
      vertex 3.93149 0.950363 2
      vertex 1.05511 1.64732 2
    endloop
  endfacet
  facet normal 0 0 1
    outer loop
      vertex 1.1106 3.58655 2
      vertex 3.61186 5.49731 2
      vertex 3.52867 5.63374 2
    endloop
  endfacet
  facet normal 0 0 1
    outer loop
      vertex 1.1106 3.58655 2
      vertex 3.52867 5.63374 2
      vertex 3.43552 5.76302 2
    endloop
  endfacet
  facet normal 0 0 1
    outer loop
      vertex 3.93149 0.950363 2
      vertex 1.02148 1.52998 2
      vertex 3.89429 0.687637 2
    endloop
  endfacet
  facet normal 0 0 1
    outer loop
      vertex 1.1106 3.58655 2
      vertex 3.43552 5.76302 2
      vertex 3.3324 5.88515 2
    endloop
  endfacet
  facet normal -0 0 1
    outer loop
      vertex 0.980377 1.43307 2
      vertex 3.89429 0.687637 2
      vertex 1.02148 1.52998 2
    endloop
  endfacet
  facet normal 0 0 1
    outer loop
      vertex 1.1106 3.58655 2
      vertex 3.3324 5.88515 2
      vertex 3.21664 5.99976 2
    endloop
  endfacet
  facet normal 0 0 1
    outer loop
      vertex 3.89429 0.687637 2
      vertex 0.980377 1.43307 2
      vertex 3.84645 0.452805 2
    endloop
  endfacet
  facet normal 0 0 1
    outer loop
      vertex 1.1106 3.58655 2
      vertex 3.21664 5.99976 2
      vertex 3.08562 6.10638 2
    endloop
  endfacet
  facet normal 0 0 1
    outer loop
      vertex 3.84645 0.452805 2
      vertex 0.980377 1.43307 2
      vertex 3.78799 0.245865 2
    endloop
  endfacet
  facet normal 0 0 1
    outer loop
      vertex 1.1106 3.58655 2
      vertex 3.08562 6.10638 2
      vertex 2.93932 6.20503 2
    endloop
  endfacet
  facet normal 0 0 1
    outer loop
      vertex 1.1106 3.58655 2
      vertex 2.93932 6.20503 2
      vertex 2.77773 6.2957 2
    endloop
  endfacet
  facet normal 0 0 1
    outer loop
      vertex 3.78799 0.245865 2
      vertex 0.980377 1.43307 2
      vertex 3.71892 0.0668335 2
    endloop
  endfacet
  facet normal 0 0 1
    outer loop
      vertex 1.1106 3.58655 2
      vertex 2.77773 6.2957 2
      vertex 2.60086 6.37839 2
    endloop
  endfacet
  facet normal 0 0 1
    outer loop
      vertex 3.71892 0.0668335 2
      vertex 0.980377 1.43307 2
      vertex 3.63562 -0.0927277 2
    endloop
  endfacet
  facet normal 0 0 1
    outer loop
      vertex 1.1106 3.58655 2
      vertex 2.60086 6.37839 2
      vertex 2.40871 6.45309 2
    endloop
  endfacet
  facet normal 0 0 1
    outer loop
      vertex 3.63562 -0.0927277 2
      vertex 0.980377 1.43307 2
      vertex 3.53458 -0.241348 2
    endloop
  endfacet
  facet normal 0 0 1
    outer loop
      vertex 1.1106 3.58655 2
      vertex 2.40871 6.45309 2
      vertex 2.20126 6.51984 2
    endloop
  endfacet
  facet normal 0 0 1
    outer loop
      vertex 3.53458 -0.241348 2
      vertex 0.980377 1.43307 2
      vertex 3.41574 -0.378998 2
    endloop
  endfacet
  facet normal 0 0 1
    outer loop
      vertex 1.1106 3.58655 2
      vertex 2.20126 6.51984 2
      vertex 1.97302 6.57812 2
    endloop
  endfacet
  facet normal 0 0 1
    outer loop
      vertex 3.41574 -0.378998 2
      vertex 0.980377 1.43307 2
      vertex 3.27916 -0.505707 2
    endloop
  endfacet
  facet normal 0 0 1
    outer loop
      vertex 1.1106 3.58655 2
      vertex 1.97302 6.57812 2
      vertex 1.71837 6.62746 2
    endloop
  endfacet
  facet normal 0 0 1
    outer loop
      vertex 3.27916 -0.505707 2
      vertex 0.980377 1.43307 2
      vertex 3.12479 -0.621445 2
    endloop
  endfacet
  facet normal 0 0 1
    outer loop
      vertex 1.1106 3.58655 2
      vertex 1.71837 6.62746 2
      vertex 1.4373 6.6678 2
    endloop
  endfacet
  facet normal 0 0 1
    outer loop
      vertex 3.97931 3.05327 2
      vertex 1.11491 3.4032 2
      vertex 1.11491 2.32091 2
    endloop
  endfacet
  facet normal 0 0 1
    outer loop
      vertex 0.745255 4.3817 2
      vertex 1.4373 6.6678 2
      vertex 1.12984 6.69919 2
    endloop
  endfacet
  facet normal 0 0 1
    outer loop
      vertex 3.12479 -0.621445 2
      vertex 0.980377 1.43307 2
      vertex 2.95265 -0.726242 2
    endloop
  endfacet
  facet normal -0 0 1
    outer loop
      vertex 0.931793 1.3566 2
      vertex 2.95265 -0.726242 2
      vertex 0.980377 1.43307 2
    endloop
  endfacet
  facet normal 0 0 1
    outer loop
      vertex 2.95265 -0.726242 2
      vertex 0.931793 1.3566 2
      vertex 2.76276 -0.820068 2
    endloop
  endfacet
  facet normal 0 0 1
    outer loop
      vertex 2.76276 -0.820068 2
      vertex 0.931793 1.3566 2
      vertex 2.55524 -0.902115 2
    endloop
  endfacet
  facet normal 0 0 1
    outer loop
      vertex 2.55524 -0.902115 2
      vertex 0.931793 1.3566 2
      vertex 2.33031 -0.971542 2
    endloop
  endfacet
  facet normal -0 0 1
    outer loop
      vertex 0.873611 1.29509 2
      vertex 2.33031 -0.971542 2
      vertex 0.931793 1.3566 2
    endloop
  endfacet
  facet normal 0 0 1
    outer loop
      vertex 2.33031 -0.971542 2
      vertex 0.873611 1.29509 2
      vertex 2.08792 -1.02834 2
    endloop
  endfacet
  facet normal 0 0 1
    outer loop
      vertex 2.08792 -1.02834 2
      vertex 0.873611 1.29509 2
      vertex 1.82811 -1.07251 2
    endloop
  endfacet
  facet normal -0 0 1
    outer loop
      vertex 0.803635 1.24304 2
      vertex 1.82811 -1.07251 2
      vertex 0.873611 1.29509 2
    endloop
  endfacet
  facet normal 0 0 1
    outer loop
      vertex 1.82811 -1.07251 2
      vertex 0.803635 1.24304 2
      vertex 1.55084 -1.10406 2
    endloop
  endfacet
  facet normal -0 0 1
    outer loop
      vertex 0.721863 1.20045 2
      vertex 1.55084 -1.10406 2
      vertex 0.803635 1.24304 2
    endloop
  endfacet
  facet normal 0 0 1
    outer loop
      vertex 1.55084 -1.10406 2
      vertex 0.721863 1.20045 2
      vertex 1.25616 -1.123 2
    endloop
  endfacet
  facet normal 0 0 1
    outer loop
      vertex 1.25616 -1.123 2
      vertex 0.721863 1.20045 2
      vertex 0.944031 -1.12932 2
    endloop
  endfacet
  facet normal -0 0 1
    outer loop
      vertex 0.628296 1.16733 2
      vertex 0.944031 -1.12932 2
      vertex 0.721863 1.20045 2
    endloop
  endfacet
  facet normal -0 0 1
    outer loop
      vertex 0.522934 1.14368 2
      vertex 0.944031 -1.12932 2
      vertex 0.628296 1.16733 2
    endloop
  endfacet
  facet normal -0 0 1
    outer loop
      vertex 0.405777 1.12949 2
      vertex 0.944031 -1.12932 2
      vertex 0.522934 1.14368 2
    endloop
  endfacet
  facet normal 0 0 1
    outer loop
      vertex 0.0244751 -1.12932 2
      vertex 0.405777 1.12949 2
      vertex 0.276825 1.12476 2
    endloop
  endfacet
  facet normal 0 0 1
    outer loop
      vertex 0.0244751 -1.12932 2
      vertex 0.276825 1.12476 2
      vertex 0.245758 1.12492 2
    endloop
  endfacet
  facet normal 0 0 1
    outer loop
      vertex 0.0244751 -1.12932 2
      vertex 0.245758 1.12492 2
      vertex 0.213028 1.12541 2
    endloop
  endfacet
  facet normal 0 0 1
    outer loop
      vertex 0.0244751 -1.12932 2
      vertex 0.213028 1.12541 2
      vertex 0.178635 1.12625 2
    endloop
  endfacet
  facet normal 0 0 1
    outer loop
      vertex 0.0244751 -1.12932 2
      vertex 0.178635 1.12625 2
      vertex 0.142593 1.12741 2
    endloop
  endfacet
  facet normal 0 0 1
    outer loop
      vertex 0.0244751 -1.12932 2
      vertex 0.142593 1.12741 2
      vertex 0.104874 1.12892 2
    endloop
  endfacet
  facet normal 0 0 1
    outer loop
      vertex 0.0244751 -1.12932 2
      vertex 0.104874 1.12892 2
      vertex 0.065506 1.13075 2
    endloop
  endfacet
  facet normal 0 0 1
    outer loop
      vertex 0.0244751 -1.12932 2
      vertex 0.065506 1.13075 2
      vertex 0.0244751 1.13292 2
    endloop
  endfacet
  facet normal 0 0 1
    outer loop
      vertex 0.405777 1.12949 2
      vertex 0.0244751 -1.12932 2
      vertex 0.944031 -1.12932 2
    endloop
  endfacet
  facet normal 0 -1 0
    outer loop
      vertex 0.0244751 -1.12932 0
      vertex 0.944031 -1.12932 2
      vertex 0.0244751 -1.12932 2
    endloop
  endfacet
  facet normal 0 -1 -0
    outer loop
      vertex 0.944031 -1.12932 2
      vertex 0.0244751 -1.12932 0
      vertex 0.944031 -1.12932 0
    endloop
  endfacet
  facet normal 0.0202439 -0.999795 0
    outer loop
      vertex 0.944031 -1.12932 0
      vertex 1.25616 -1.123 2
      vertex 0.944031 -1.12932 2
    endloop
  endfacet
  facet normal 0.0202439 -0.999795 0
    outer loop
      vertex 1.25616 -1.123 2
      vertex 0.944031 -1.12932 0
      vertex 1.25616 -1.123 0
    endloop
  endfacet
  facet normal 0.0641408 -0.997941 0
    outer loop
      vertex 1.25616 -1.123 0
      vertex 1.55084 -1.10406 2
      vertex 1.25616 -1.123 2
    endloop
  endfacet
  facet normal 0.0641408 -0.997941 0
    outer loop
      vertex 1.55084 -1.10406 2
      vertex 1.25616 -1.123 0
      vertex 1.55084 -1.10406 0
    endloop
  endfacet
  facet normal 0.113058 -0.993588 0
    outer loop
      vertex 1.55084 -1.10406 0
      vertex 1.82811 -1.07251 2
      vertex 1.55084 -1.10406 2
    endloop
  endfacet
  facet normal 0.113058 -0.993588 0
    outer loop
      vertex 1.82811 -1.07251 2
      vertex 1.55084 -1.10406 0
      vertex 1.82811 -1.07251 0
    endloop
  endfacet
  facet normal 0.167604 -0.985854 0
    outer loop
      vertex 1.82811 -1.07251 0
      vertex 2.08792 -1.02834 2
      vertex 1.82811 -1.07251 2
    endloop
  endfacet
  facet normal 0.167604 -0.985854 0
    outer loop
      vertex 2.08792 -1.02834 2
      vertex 1.82811 -1.07251 0
      vertex 2.08792 -1.02834 0
    endloop
  endfacet
  facet normal 0.228145 -0.973627 0
    outer loop
      vertex 2.08792 -1.02834 0
      vertex 2.33031 -0.971542 2
      vertex 2.08792 -1.02834 2
    endloop
  endfacet
  facet normal 0.228145 -0.973627 0
    outer loop
      vertex 2.33031 -0.971542 2
      vertex 2.08792 -1.02834 0
      vertex 2.33031 -0.971542 0
    endloop
  endfacet
  facet normal 0.294931 -0.955519 0
    outer loop
      vertex 2.33031 -0.971542 0
      vertex 2.55524 -0.902115 2
      vertex 2.33031 -0.971542 2
    endloop
  endfacet
  facet normal 0.294931 -0.955519 0
    outer loop
      vertex 2.55524 -0.902115 2
      vertex 2.33031 -0.971542 0
      vertex 2.55524 -0.902115 0
    endloop
  endfacet
  facet normal 0.367675 -0.929954 0
    outer loop
      vertex 2.55524 -0.902115 0
      vertex 2.76276 -0.820068 2
      vertex 2.55524 -0.902115 2
    endloop
  endfacet
  facet normal 0.367675 -0.929954 0
    outer loop
      vertex 2.76276 -0.820068 2
      vertex 2.55524 -0.902115 0
      vertex 2.76276 -0.820068 0
    endloop
  endfacet
  facet normal 0.442982 -0.89653 0
    outer loop
      vertex 2.76276 -0.820068 0
      vertex 2.95265 -0.726242 2
      vertex 2.76276 -0.820068 2
    endloop
  endfacet
  facet normal 0.442982 -0.89653 0
    outer loop
      vertex 2.95265 -0.726242 2
      vertex 2.76276 -0.820068 0
      vertex 2.95265 -0.726242 0
    endloop
  endfacet
  facet normal 0.520005 -0.854163 0
    outer loop
      vertex 2.95265 -0.726242 0
      vertex 3.12479 -0.621445 2
      vertex 2.95265 -0.726242 2
    endloop
  endfacet
  facet normal 0.520005 -0.854163 0
    outer loop
      vertex 3.12479 -0.621445 2
      vertex 2.95265 -0.726242 0
      vertex 3.12479 -0.621445 0
    endloop
  endfacet
  facet normal 0.599869 -0.800098 0
    outer loop
      vertex 3.12479 -0.621445 0
      vertex 3.27916 -0.505707 2
      vertex 3.12479 -0.621445 2
    endloop
  endfacet
  facet normal 0.599869 -0.800098 0
    outer loop
      vertex 3.27916 -0.505707 2
      vertex 3.12479 -0.621445 0
      vertex 3.27916 -0.505707 0
    endloop
  endfacet
  facet normal 0.680119 -0.733102 0
    outer loop
      vertex 3.27916 -0.505707 0
      vertex 3.41574 -0.378998 2
      vertex 3.27916 -0.505707 2
    endloop
  endfacet
  facet normal 0.680119 -0.733102 0
    outer loop
      vertex 3.41574 -0.378998 2
      vertex 3.27916 -0.505707 0
      vertex 3.41574 -0.378998 0
    endloop
  endfacet
  facet normal 0.756931 -0.653495 0
    outer loop
      vertex 3.41574 -0.378998 2
      vertex 3.53458 -0.241348 0
      vertex 3.53458 -0.241348 2
    endloop
  endfacet
  facet normal 0.756931 -0.653495 0
    outer loop
      vertex 3.53458 -0.241348 0
      vertex 3.41574 -0.378998 2
      vertex 3.41574 -0.378998 0
    endloop
  endfacet
  facet normal 0.826983 -0.562227 0
    outer loop
      vertex 3.53458 -0.241348 2
      vertex 3.63562 -0.0927277 0
      vertex 3.63562 -0.0927277 2
    endloop
  endfacet
  facet normal 0.826983 -0.562227 0
    outer loop
      vertex 3.63562 -0.0927277 0
      vertex 3.53458 -0.241348 2
      vertex 3.53458 -0.241348 0
    endloop
  endfacet
  facet normal 0.886469 -0.462787 0
    outer loop
      vertex 3.63562 -0.0927277 2
      vertex 3.71892 0.0668335 0
      vertex 3.71892 0.0668335 2
    endloop
  endfacet
  facet normal 0.886469 -0.462787 0
    outer loop
      vertex 3.71892 0.0668335 0
      vertex 3.63562 -0.0927277 2
      vertex 3.63562 -0.0927277 0
    endloop
  endfacet
  facet normal 0.932975 -0.35994 0
    outer loop
      vertex 3.71892 0.0668335 2
      vertex 3.78799 0.245865 0
      vertex 3.78799 0.245865 2
    endloop
  endfacet
  facet normal 0.932975 -0.35994 0
    outer loop
      vertex 3.78799 0.245865 0
      vertex 3.71892 0.0668335 2
      vertex 3.71892 0.0668335 0
    endloop
  endfacet
  facet normal 0.962337 -0.271858 0
    outer loop
      vertex 3.78799 0.245865 2
      vertex 3.84645 0.452805 0
      vertex 3.84645 0.452805 2
    endloop
  endfacet
  facet normal 0.962337 -0.271858 0
    outer loop
      vertex 3.84645 0.452805 0
      vertex 3.78799 0.245865 2
      vertex 3.78799 0.245865 0
    endloop
  endfacet
  facet normal 0.979873 -0.19962 0
    outer loop
      vertex 3.84645 0.452805 2
      vertex 3.89429 0.687637 0
      vertex 3.89429 0.687637 2
    endloop
  endfacet
  facet normal 0.979873 -0.19962 0
    outer loop
      vertex 3.89429 0.687637 0
      vertex 3.84645 0.452805 2
      vertex 3.84645 0.452805 0
    endloop
  endfacet
  facet normal 0.990124 -0.140194 0
    outer loop
      vertex 3.89429 0.687637 2
      vertex 3.93149 0.950363 0
      vertex 3.93149 0.950363 2
    endloop
  endfacet
  facet normal 0.990124 -0.140194 0
    outer loop
      vertex 3.93149 0.950363 0
      vertex 3.89429 0.687637 2
      vertex 3.89429 0.687637 0
    endloop
  endfacet
  facet normal 0.99585 -0.0910063 0
    outer loop
      vertex 3.93149 0.950363 2
      vertex 3.95805 1.241 0
      vertex 3.95805 1.241 2
    endloop
  endfacet
  facet normal 0.99585 -0.0910063 0
    outer loop
      vertex 3.95805 1.241 0
      vertex 3.93149 0.950363 2
      vertex 3.93149 0.950363 0
    endloop
  endfacet
  facet normal 0.998749 -0.0500127 0
    outer loop
      vertex 3.95805 1.241 2
      vertex 3.974 1.55952 0
      vertex 3.974 1.55952 2
    endloop
  endfacet
  facet normal 0.998749 -0.0500127 0
    outer loop
      vertex 3.974 1.55952 0
      vertex 3.95805 1.241 2
      vertex 3.95805 1.241 0
    endloop
  endfacet
  facet normal 0.999883 -0.0153264 0
    outer loop
      vertex 3.974 1.55952 2
      vertex 3.97931 1.90594 0
      vertex 3.97931 1.90594 2
    endloop
  endfacet
  facet normal 0.999883 -0.0153264 0
    outer loop
      vertex 3.97931 1.90594 0
      vertex 3.974 1.55952 2
      vertex 3.974 1.55952 0
    endloop
  endfacet
  facet normal 1 -0 0
    outer loop
      vertex 3.97931 1.90594 2
      vertex 3.97931 3.05327 0
      vertex 3.97931 3.05327 2
    endloop
  endfacet
  facet normal 1 0 0
    outer loop
      vertex 3.97931 3.05327 0
      vertex 3.97931 1.90594 2
      vertex 3.97931 1.90594 0
    endloop
  endfacet
  facet normal 0.999967 0.00808298 0
    outer loop
      vertex 3.97931 3.05327 2
      vertex 3.97656 3.39348 0
      vertex 3.97656 3.39348 2
    endloop
  endfacet
  facet normal 0.999967 0.00808298 0
    outer loop
      vertex 3.97656 3.39348 0
      vertex 3.97931 3.05327 2
      vertex 3.97931 3.05327 0
    endloop
  endfacet
  facet normal 0.999658 0.0261534 0
    outer loop
      vertex 3.97656 3.39348 2
      vertex 3.96835 3.70729 0
      vertex 3.96835 3.70729 2
    endloop
  endfacet
  facet normal 0.999658 0.0261534 0
    outer loop
      vertex 3.96835 3.70729 0
      vertex 3.97656 3.39348 2
      vertex 3.97656 3.39348 0
    endloop
  endfacet
  facet normal 0.998866 0.047618 0
    outer loop
      vertex 3.96835 3.70729 2
      vertex 3.95465 3.99467 0
      vertex 3.95465 3.99467 2
    endloop
  endfacet
  facet normal 0.998866 0.047618 0
    outer loop
      vertex 3.95465 3.99467 0
      vertex 3.96835 3.70729 2
      vertex 3.96835 3.70729 0
    endloop
  endfacet
  facet normal 0.997311 0.0732918 0
    outer loop
      vertex 3.95465 3.99467 2
      vertex 3.93547 4.25566 0
      vertex 3.93547 4.25566 2
    endloop
  endfacet
  facet normal 0.997311 0.0732918 0
    outer loop
      vertex 3.93547 4.25566 0
      vertex 3.95465 3.99467 2
      vertex 3.95465 3.99467 0
    endloop
  endfacet
  facet normal 0.994515 0.104594 0
    outer loop
      vertex 3.93547 4.25566 2
      vertex 3.9108 4.49023 0
      vertex 3.9108 4.49023 2
    endloop
  endfacet
  facet normal 0.994515 0.104594 0
    outer loop
      vertex 3.9108 4.49023 0
      vertex 3.93547 4.25566 2
      vertex 3.93547 4.25566 0
    endloop
  endfacet
  facet normal 0.98968 0.143298 0
    outer loop
      vertex 3.9108 4.49023 2
      vertex 3.88066 4.69839 0
      vertex 3.88066 4.69839 2
    endloop
  endfacet
  facet normal 0.98968 0.143298 0
    outer loop
      vertex 3.88066 4.69839 0
      vertex 3.9108 4.49023 2
      vertex 3.9108 4.49023 0
    endloop
  endfacet
  facet normal 0.981325 0.192356 0
    outer loop
      vertex 3.88066 4.69839 2
      vertex 3.84503 4.88016 0
      vertex 3.84503 4.88016 2
    endloop
  endfacet
  facet normal 0.981325 0.192356 0
    outer loop
      vertex 3.84503 4.88016 0
      vertex 3.88066 4.69839 2
      vertex 3.88066 4.69839 0
    endloop
  endfacet
  facet normal 0.96703 0.254663 0
    outer loop
      vertex 3.80168 5.04517 2
      vertex 3.80316 5.03955 0
      vertex 3.80168 5.04517 0
    endloop
  endfacet
  facet normal 0.967181 0.254089 1.72265e-06
    outer loop
      vertex 3.84503 4.88016 2
      vertex 3.80316 5.03955 0
      vertex 3.80168 5.04517 2
    endloop
  endfacet
  facet normal 0.967186 0.254069 0
    outer loop
      vertex 3.80316 5.03955 0
      vertex 3.84503 4.88016 2
      vertex 3.84503 4.88016 0
    endloop
  endfacet
  facet normal 0.947434 0.319952 0
    outer loop
      vertex 3.80168 5.04517 2
      vertex 3.74837 5.20303 0
      vertex 3.74837 5.20303 2
    endloop
  endfacet
  facet normal 0.947434 0.319952 0
    outer loop
      vertex 3.74837 5.20303 0
      vertex 3.80168 5.04517 2
      vertex 3.80168 5.04517 0
    endloop
  endfacet
  facet normal 0.922044 0.387086 0
    outer loop
      vertex 3.74837 5.20303 2
      vertex 3.6851 5.35374 0
      vertex 3.6851 5.35374 2
    endloop
  endfacet
  facet normal 0.922044 0.387086 0
    outer loop
      vertex 3.6851 5.35374 0
      vertex 3.74837 5.20303 2
      vertex 3.74837 5.20303 0
    endloop
  endfacet
  facet normal 0.890787 0.454421 0
    outer loop
      vertex 3.6851 5.35374 2
      vertex 3.61186 5.49731 0
      vertex 3.61186 5.49731 2
    endloop
  endfacet
  facet normal 0.890787 0.454421 0
    outer loop
      vertex 3.61186 5.49731 0
      vertex 3.6851 5.35374 2
      vertex 3.6851 5.35374 0
    endloop
  endfacet
  facet normal 0.853793 0.520612 0
    outer loop
      vertex 3.61186 5.49731 2
      vertex 3.52867 5.63374 0
      vertex 3.52867 5.63374 2
    endloop
  endfacet
  facet normal 0.853793 0.520612 0
    outer loop
      vertex 3.52867 5.63374 0
      vertex 3.61186 5.49731 2
      vertex 3.61186 5.49731 0
    endloop
  endfacet
  facet normal 0.811331 0.584587 0
    outer loop
      vertex 3.52867 5.63374 2
      vertex 3.43552 5.76302 0
      vertex 3.43552 5.76302 2
    endloop
  endfacet
  facet normal 0.811331 0.584587 0
    outer loop
      vertex 3.43552 5.76302 0
      vertex 3.52867 5.63374 2
      vertex 3.52867 5.63374 0
    endloop
  endfacet
  facet normal 0.764067 0.645137 0
    outer loop
      vertex 3.43552 5.76302 2
      vertex 3.3324 5.88515 0
      vertex 3.3324 5.88515 2
    endloop
  endfacet
  facet normal 0.764067 0.645137 0
    outer loop
      vertex 3.3324 5.88515 0
      vertex 3.43552 5.76302 2
      vertex 3.43552 5.76302 0
    endloop
  endfacet
  facet normal 0.703568 0.710628 -0
    outer loop
      vertex 3.3324 5.88515 0
      vertex 3.21664 5.99976 2
      vertex 3.3324 5.88515 2
    endloop
  endfacet
  facet normal 0.703568 0.710628 0
    outer loop
      vertex 3.21664 5.99976 2
      vertex 3.3324 5.88515 0
      vertex 3.21664 5.99976 0
    endloop
  endfacet
  facet normal 0.631185 0.775632 -0
    outer loop
      vertex 3.21664 5.99976 0
      vertex 3.08562 6.10638 2
      vertex 3.21664 5.99976 2
    endloop
  endfacet
  facet normal 0.631185 0.775632 0
    outer loop
      vertex 3.08562 6.10638 2
      vertex 3.21664 5.99976 0
      vertex 3.08562 6.10638 0
    endloop
  endfacet
  facet normal 0.559074 0.829118 -0
    outer loop
      vertex 3.08562 6.10638 0
      vertex 2.93932 6.20503 2
      vertex 3.08562 6.10638 2
    endloop
  endfacet
  facet normal 0.559074 0.829118 0
    outer loop
      vertex 2.93932 6.20503 2
      vertex 3.08562 6.10638 0
      vertex 2.93932 6.20503 0
    endloop
  endfacet
  facet normal 0.489341 0.872092 -0
    outer loop
      vertex 2.93932 6.20503 0
      vertex 2.77773 6.2957 2
      vertex 2.93932 6.20503 2
    endloop
  endfacet
  facet normal 0.489341 0.872092 0
    outer loop
      vertex 2.77773 6.2957 2
      vertex 2.93932 6.20503 0
      vertex 2.77773 6.2957 0
    endloop
  endfacet
  facet normal 0.423519 0.905887 -0
    outer loop
      vertex 2.77773 6.2957 0
      vertex 2.60086 6.37839 2
      vertex 2.77773 6.2957 2
    endloop
  endfacet
  facet normal 0.423519 0.905887 0
    outer loop
      vertex 2.60086 6.37839 2
      vertex 2.77773 6.2957 0
      vertex 2.60086 6.37839 0
    endloop
  endfacet
  facet normal 0.362341 0.932046 -0
    outer loop
      vertex 2.60086 6.37839 0
      vertex 2.40871 6.45309 2
      vertex 2.60086 6.37839 2
    endloop
  endfacet
  facet normal 0.362341 0.932046 0
    outer loop
      vertex 2.40871 6.45309 2
      vertex 2.60086 6.37839 0
      vertex 2.40871 6.45309 0
    endloop
  endfacet
  facet normal 0.306299 0.951935 -0
    outer loop
      vertex 2.40871 6.45309 0
      vertex 2.20126 6.51984 2
      vertex 2.40871 6.45309 2
    endloop
  endfacet
  facet normal 0.306299 0.951935 0
    outer loop
      vertex 2.20126 6.51984 2
      vertex 2.40871 6.45309 0
      vertex 2.20126 6.51984 0
    endloop
  endfacet
  facet normal 0.247407 0.968912 -0
    outer loop
      vertex 2.20126 6.51984 0
      vertex 1.97302 6.57812 2
      vertex 2.20126 6.51984 2
    endloop
  endfacet
  facet normal 0.247407 0.968912 0
    outer loop
      vertex 1.97302 6.57812 2
      vertex 2.20126 6.51984 0
      vertex 1.97302 6.57812 0
    endloop
  endfacet
  facet normal 0.190218 0.981742 -0
    outer loop
      vertex 1.97302 6.57812 0
      vertex 1.71837 6.62746 2
      vertex 1.97302 6.57812 2
    endloop
  endfacet
  facet normal 0.190218 0.981742 0
    outer loop
      vertex 1.71837 6.62746 2
      vertex 1.97302 6.57812 0
      vertex 1.71837 6.62746 0
    endloop
  endfacet
  facet normal 0.142067 0.989857 -0
    outer loop
      vertex 1.71837 6.62746 0
      vertex 1.4373 6.6678 2
      vertex 1.71837 6.62746 2
    endloop
  endfacet
  facet normal 0.142067 0.989857 0
    outer loop
      vertex 1.4373 6.6678 2
      vertex 1.71837 6.62746 0
      vertex 1.4373 6.6678 0
    endloop
  endfacet
  facet normal 0.101567 0.994829 -0
    outer loop
      vertex 1.4373 6.6678 0
      vertex 1.12984 6.69919 2
      vertex 1.4373 6.6678 2
    endloop
  endfacet
  facet normal 0.101567 0.994829 0
    outer loop
      vertex 1.12984 6.69919 2
      vertex 1.4373 6.6678 0
      vertex 1.12984 6.69919 0
    endloop
  endfacet
  facet normal 0.0670255 0.997751 -0
    outer loop
      vertex 1.12984 6.69919 0
      vertex 0.795944 6.72162 2
      vertex 1.12984 6.69919 2
    endloop
  endfacet
  facet normal 0.0670255 0.997751 0
    outer loop
      vertex 0.795944 6.72162 2
      vertex 1.12984 6.69919 0
      vertex 0.795944 6.72162 0
    endloop
  endfacet
  facet normal 0.0372774 0.999305 -0
    outer loop
      vertex 0.795944 6.72162 0
      vertex 0.435654 6.73506 2
      vertex 0.795944 6.72162 2
    endloop
  endfacet
  facet normal 0.0372774 0.999305 0
    outer loop
      vertex 0.435654 6.73506 2
      vertex 0.795944 6.72162 0
      vertex 0.435654 6.73506 0
    endloop
  endfacet
  facet normal 0.0116102 0.999933 -0
    outer loop
      vertex 0.435654 6.73506 0
      vertex 0.0489502 6.73955 2
      vertex 0.435654 6.73506 2
    endloop
  endfacet
  facet normal 0.0116102 0.999933 0
    outer loop
      vertex 0.0489502 6.73955 2
      vertex 0.435654 6.73506 0
      vertex 0.0489502 6.73955 0
    endloop
  endfacet
  facet normal 0 1 -0
    outer loop
      vertex 0.0489502 6.73955 0
      vertex -3.4014 6.73955 2
      vertex 0.0489502 6.73955 2
    endloop
  endfacet
  facet normal 0 1 0
    outer loop
      vertex -3.4014 6.73955 2
      vertex 0.0489502 6.73955 0
      vertex -3.4014 6.73955 0
    endloop
  endfacet
  facet normal -1 0 0
    outer loop
      vertex -3.4014 5.33144 0
      vertex -3.4014 6.73955 2
      vertex -3.4014 6.73955 0
    endloop
  endfacet
  facet normal -1 0 0
    outer loop
      vertex -3.4014 -6.435 2
      vertex -3.4014 5.33144 0
      vertex -3.4014 -5.33144 0
    endloop
  endfacet
  facet normal -1 0 0
    outer loop
      vertex -3.4014 -6.435 2
      vertex -3.4014 -5.33144 0
      vertex -3.4014 -6.435 0
    endloop
  endfacet
  facet normal -1 0 0
    outer loop
      vertex -3.4014 5.33144 0
      vertex -3.4014 -6.435 2
      vertex -3.4014 6.73955 2
    endloop
  endfacet
  facet normal 0 -1 0
    outer loop
      vertex -3.4014 -6.435 0
      vertex 0.0244751 -6.435 2
      vertex -3.4014 -6.435 2
    endloop
  endfacet
  facet normal 0 -1 -0
    outer loop
      vertex 0.0244751 -6.435 2
      vertex -3.4014 -6.435 0
      vertex 0.0244751 -6.435 0
    endloop
  endfacet
  facet normal 1 0 0
    outer loop
      vertex 0.0244751 -1.12932 2
      vertex 0.0244751 -6.31252 0
      vertex 0.0244751 -1.12932 0
    endloop
  endfacet
  facet normal 1 -0 0
    outer loop
      vertex 0.0244751 -6.435 2
      vertex 0.0244751 -6.31252 0
      vertex 0.0244751 -1.12932 2
    endloop
  endfacet
  facet normal 1 0 0
    outer loop
      vertex 0.0244751 -6.31252 0
      vertex 0.0244751 -6.435 2
      vertex 0.0244751 -6.435 0
    endloop
  endfacet
  facet normal 0.0149693 0.999888 -0
    outer loop
      vertex 0.245758 1.12492 0
      vertex 0.213028 1.12541 2
      vertex 0.245758 1.12492 2
    endloop
  endfacet
  facet normal 0.0149693 0.999888 0
    outer loop
      vertex 0.213028 1.12541 2
      vertex 0.245758 1.12492 0
      vertex 0.213028 1.12541 0
    endloop
  endfacet
  facet normal 0.0244163 0.999702 -0
    outer loop
      vertex 0.213028 1.12541 0
      vertex 0.178635 1.12625 2
      vertex 0.213028 1.12541 2
    endloop
  endfacet
  facet normal 0.0244163 0.999702 0
    outer loop
      vertex 0.178635 1.12625 2
      vertex 0.213028 1.12541 0
      vertex 0.178635 1.12625 0
    endloop
  endfacet
  facet normal 0.032168 0.999482 -0
    outer loop
      vertex 0.178635 1.12625 0
      vertex 0.142593 1.12741 2
      vertex 0.178635 1.12625 2
    endloop
  endfacet
  facet normal 0.032168 0.999482 0
    outer loop
      vertex 0.142593 1.12741 2
      vertex 0.178635 1.12625 0
      vertex 0.142593 1.12741 0
    endloop
  endfacet
  facet normal 0.0400008 0.9992 -0
    outer loop
      vertex 0.142593 1.12741 0
      vertex 0.104874 1.12892 2
      vertex 0.142593 1.12741 2
    endloop
  endfacet
  facet normal 0.0400008 0.9992 0
    outer loop
      vertex 0.104874 1.12892 2
      vertex 0.142593 1.12741 0
      vertex 0.104874 1.12892 0
    endloop
  endfacet
  facet normal 0.0464343 0.998921 -0
    outer loop
      vertex 0.104874 1.12892 0
      vertex 0.065506 1.13075 2
      vertex 0.104874 1.12892 2
    endloop
  endfacet
  facet normal 0.0464343 0.998921 0
    outer loop
      vertex 0.065506 1.13075 2
      vertex 0.104874 1.12892 0
      vertex 0.065506 1.13075 0
    endloop
  endfacet
  facet normal 0.0528132 0.998604 -0
    outer loop
      vertex 0.065506 1.13075 0
      vertex 0.0244751 1.13292 2
      vertex 0.065506 1.13075 2
    endloop
  endfacet
  facet normal 0.0528132 0.998604 0
    outer loop
      vertex 0.0244751 1.13292 2
      vertex 0.065506 1.13075 0
      vertex 0.0244751 1.13292 0
    endloop
  endfacet
  facet normal 1 -0 0
    outer loop
      vertex 0.0244751 1.13292 2
      vertex 0.0244751 4.48547 0
      vertex 0.0244751 4.48547 2
    endloop
  endfacet
  facet normal 1 0 0
    outer loop
      vertex 0.0244751 4.48547 0
      vertex 0.0244751 1.13292 2
      vertex 0.0244751 1.13292 0
    endloop
  endfacet
  facet normal -0.0228778 -0.999738 0
    outer loop
      vertex 0.0244751 4.48547 0
      vertex 0.205826 4.48132 2
      vertex 0.0244751 4.48547 2
    endloop
  endfacet
  facet normal -0.0228778 -0.999738 -0
    outer loop
      vertex 0.205826 4.48132 2
      vertex 0.0244751 4.48547 0
      vertex 0.205826 4.48132 0
    endloop
  endfacet
  facet normal -0.0762679 -0.997087 0
    outer loop
      vertex 0.205826 4.48132 0
      vertex 0.368591 4.46887 2
      vertex 0.205826 4.48132 2
    endloop
  endfacet
  facet normal -0.0762679 -0.997087 -0
    outer loop
      vertex 0.368591 4.46887 2
      vertex 0.205826 4.48132 0
      vertex 0.368591 4.46887 0
    endloop
  endfacet
  facet normal -0.142479 -0.989798 0
    outer loop
      vertex 0.368591 4.46887 0
      vertex 0.512741 4.44812 2
      vertex 0.368591 4.46887 2
    endloop
  endfacet
  facet normal -0.142479 -0.989798 -0
    outer loop
      vertex 0.512741 4.44812 2
      vertex 0.368591 4.46887 0
      vertex 0.512741 4.44812 0
    endloop
  endfacet
  facet normal -0.225548 -0.974232 0
    outer loop
      vertex 0.512741 4.44812 0
      vertex 0.638306 4.41905 2
      vertex 0.512741 4.44812 2
    endloop
  endfacet
  facet normal -0.225548 -0.974232 -0
    outer loop
      vertex 0.638306 4.41905 2
      vertex 0.512741 4.44812 0
      vertex 0.638306 4.41905 0
    endloop
  endfacet
  facet normal -0.329704 -0.944084 0
    outer loop
      vertex 0.638306 4.41905 0
      vertex 0.745255 4.3817 2
      vertex 0.638306 4.41905 2
    endloop
  endfacet
  facet normal -0.329704 -0.944084 -0
    outer loop
      vertex 0.745255 4.3817 2
      vertex 0.638306 4.41905 0
      vertex 0.745255 4.3817 0
    endloop
  endfacet
  facet normal -0.459207 -0.888329 0
    outer loop
      vertex 0.745255 4.3817 0
      vertex 0.833603 4.33603 2
      vertex 0.745255 4.3817 2
    endloop
  endfacet
  facet normal -0.459207 -0.888329 -0
    outer loop
      vertex 0.833603 4.33603 2
      vertex 0.745255 4.3817 0
      vertex 0.833603 4.33603 0
    endloop
  endfacet
  facet normal -0.611901 -0.790935 0
    outer loop
      vertex 0.833603 4.33603 0
      vertex 0.903351 4.28207 2
      vertex 0.833603 4.33603 2
    endloop
  endfacet
  facet normal -0.611901 -0.790935 -0
    outer loop
      vertex 0.903351 4.28207 2
      vertex 0.833603 4.33603 0
      vertex 0.903351 4.28207 0
    endloop
  endfacet
  facet normal -0.770098 -0.637925 0
    outer loop
      vertex 0.959473 4.21432 0
      vertex 0.903351 4.28207 2
      vertex 0.903351 4.28207 0
    endloop
  endfacet
  facet normal -0.770098 -0.637925 0
    outer loop
      vertex 0.903351 4.28207 2
      vertex 0.959473 4.21432 0
      vertex 0.959473 4.21432 2
    endloop
  endfacet
  facet normal -0.877762 -0.479097 0
    outer loop
      vertex 1.00697 4.1273 0
      vertex 0.959473 4.21432 2
      vertex 0.959473 4.21432 0
    endloop
  endfacet
  facet normal -0.877762 -0.479097 0
    outer loop
      vertex 0.959473 4.21432 2
      vertex 1.00697 4.1273 0
      vertex 1.00697 4.1273 2
    endloop
  endfacet
  facet normal -0.939206 -0.343353 0
    outer loop
      vertex 1.04582 4.02103 0
      vertex 1.00697 4.1273 2
      vertex 1.00697 4.1273 0
    endloop
  endfacet
  facet normal -0.939206 -0.343353 0
    outer loop
      vertex 1.00697 4.1273 2
      vertex 1.04582 4.02103 0
      vertex 1.04582 4.02103 2
    endloop
  endfacet
  facet normal -0.972223 -0.234055 0
    outer loop
      vertex 1.07605 3.89546 0
      vertex 1.04582 4.02103 2
      vertex 1.04582 4.02103 0
    endloop
  endfacet
  facet normal -0.972223 -0.234055 0
    outer loop
      vertex 1.04582 4.02103 2
      vertex 1.07605 3.89546 0
      vertex 1.07605 3.89546 2
    endloop
  endfacet
  facet normal -0.989069 -0.147452 0
    outer loop
      vertex 1.09764 3.75064 0
      vertex 1.07605 3.89546 2
      vertex 1.07605 3.89546 0
    endloop
  endfacet
  facet normal -0.989069 -0.147452 0
    outer loop
      vertex 1.07605 3.89546 2
      vertex 1.09764 3.75064 0
      vertex 1.09764 3.75064 2
    endloop
  endfacet
  facet normal -0.996896 -0.0787359 0
    outer loop
      vertex 1.1106 3.58655 0
      vertex 1.09764 3.75064 2
      vertex 1.09764 3.75064 0
    endloop
  endfacet
  facet normal -0.996896 -0.0787359 0
    outer loop
      vertex 1.09764 3.75064 2
      vertex 1.1106 3.58655 0
      vertex 1.1106 3.58655 2
    endloop
  endfacet
  facet normal -0.999724 -0.0235005 0
    outer loop
      vertex 1.11491 3.4032 0
      vertex 1.1106 3.58655 2
      vertex 1.1106 3.58655 0
    endloop
  endfacet
  facet normal -0.999724 -0.0235005 0
    outer loop
      vertex 1.1106 3.58655 2
      vertex 1.11491 3.4032 0
      vertex 1.11491 3.4032 2
    endloop
  endfacet
  facet normal -1 0 0
    outer loop
      vertex 1.11491 2.32091 0
      vertex 1.11491 3.4032 2
      vertex 1.11491 3.4032 0
    endloop
  endfacet
  facet normal -1 -0 0
    outer loop
      vertex 1.11491 3.4032 2
      vertex 1.11491 2.32091 0
      vertex 1.11491 2.32091 2
    endloop
  endfacet
  facet normal -0.999824 0.0187367 0
    outer loop
      vertex 1.11118 2.12187 0
      vertex 1.11491 2.32091 2
      vertex 1.11491 2.32091 0
    endloop
  endfacet
  facet normal -0.999824 0.0187367 0
    outer loop
      vertex 1.11491 2.32091 2
      vertex 1.11118 2.12187 0
      vertex 1.11118 2.12187 2
    endloop
  endfacet
  facet normal -0.998033 0.0626983 0
    outer loop
      vertex 1.09996 1.94327 0
      vertex 1.11118 2.12187 2
      vertex 1.11118 2.12187 0
    endloop
  endfacet
  facet normal -0.998033 0.0626983 0
    outer loop
      vertex 1.11118 2.12187 2
      vertex 1.09996 1.94327 0
      vertex 1.09996 1.94327 2
    endloop
  endfacet
  facet normal -0.9931 0.117271 0
    outer loop
      vertex 1.08128 1.78508 0
      vertex 1.09996 1.94327 2
      vertex 1.09996 1.94327 0
    endloop
  endfacet
  facet normal -0.9931 0.117271 0
    outer loop
      vertex 1.09996 1.94327 2
      vertex 1.08128 1.78508 0
      vertex 1.08128 1.78508 2
    endloop
  endfacet
  facet normal -0.98243 0.18663 0
    outer loop
      vertex 1.05511 1.64732 0
      vertex 1.08128 1.78508 2
      vertex 1.08128 1.78508 0
    endloop
  endfacet
  facet normal -0.98243 0.18663 0
    outer loop
      vertex 1.08128 1.78508 2
      vertex 1.05511 1.64732 0
      vertex 1.05511 1.64732 2
    endloop
  endfacet
  facet normal -0.961298 0.275511 0
    outer loop
      vertex 1.02148 1.52998 0
      vertex 1.05511 1.64732 2
      vertex 1.05511 1.64732 0
    endloop
  endfacet
  facet normal -0.961298 0.275511 0
    outer loop
      vertex 1.05511 1.64732 2
      vertex 1.02148 1.52998 0
      vertex 1.02148 1.52998 2
    endloop
  endfacet
  facet normal -0.920617 0.390467 0
    outer loop
      vertex 0.980377 1.43307 0
      vertex 1.02148 1.52998 2
      vertex 1.02148 1.52998 0
    endloop
  endfacet
  facet normal -0.920617 0.390467 0
    outer loop
      vertex 1.02148 1.52998 2
      vertex 0.980377 1.43307 0
      vertex 0.980377 1.43307 2
    endloop
  endfacet
  facet normal -0.844055 0.536257 0
    outer loop
      vertex 0.931793 1.3566 0
      vertex 0.980377 1.43307 2
      vertex 0.980377 1.43307 0
    endloop
  endfacet
  facet normal -0.844055 0.536257 0
    outer loop
      vertex 0.980377 1.43307 2
      vertex 0.931793 1.3566 0
      vertex 0.931793 1.3566 2
    endloop
  endfacet
  facet normal -0.726487 0.68718 0
    outer loop
      vertex 0.873611 1.29509 0
      vertex 0.931793 1.3566 2
      vertex 0.931793 1.3566 0
    endloop
  endfacet
  facet normal -0.726487 0.68718 0
    outer loop
      vertex 0.931793 1.3566 2
      vertex 0.873611 1.29509 0
      vertex 0.873611 1.29509 2
    endloop
  endfacet
  facet normal -0.596825 0.802371 0
    outer loop
      vertex 0.873611 1.29509 0
      vertex 0.803635 1.24304 2
      vertex 0.873611 1.29509 2
    endloop
  endfacet
  facet normal -0.596825 0.802371 0
    outer loop
      vertex 0.803635 1.24304 2
      vertex 0.873611 1.29509 0
      vertex 0.803635 1.24304 0
    endloop
  endfacet
  facet normal -0.461938 0.886912 0
    outer loop
      vertex 0.803635 1.24304 0
      vertex 0.721863 1.20045 2
      vertex 0.803635 1.24304 2
    endloop
  endfacet
  facet normal -0.461938 0.886912 0
    outer loop
      vertex 0.721863 1.20045 2
      vertex 0.803635 1.24304 0
      vertex 0.721863 1.20045 0
    endloop
  endfacet
  facet normal -0.333683 0.942685 0
    outer loop
      vertex 0.721863 1.20045 0
      vertex 0.628296 1.16733 2
      vertex 0.721863 1.20045 2
    endloop
  endfacet
  facet normal -0.333683 0.942685 0
    outer loop
      vertex 0.628296 1.16733 2
      vertex 0.721863 1.20045 0
      vertex 0.628296 1.16733 0
    endloop
  endfacet
  facet normal -0.219015 0.975722 0
    outer loop
      vertex 0.628296 1.16733 0
      vertex 0.522934 1.14368 2
      vertex 0.628296 1.16733 2
    endloop
  endfacet
  facet normal -0.219015 0.975722 0
    outer loop
      vertex 0.522934 1.14368 2
      vertex 0.628296 1.16733 0
      vertex 0.522934 1.14368 0
    endloop
  endfacet
  facet normal -0.120241 0.992745 0
    outer loop
      vertex 0.522934 1.14368 0
      vertex 0.405777 1.12949 2
      vertex 0.522934 1.14368 2
    endloop
  endfacet
  facet normal -0.120241 0.992745 0
    outer loop
      vertex 0.405777 1.12949 2
      vertex 0.522934 1.14368 0
      vertex 0.405777 1.12949 0
    endloop
  endfacet
  facet normal -0.0366557 0.999328 0
    outer loop
      vertex 0.405777 1.12949 0
      vertex 0.276825 1.12476 2
      vertex 0.405777 1.12949 2
    endloop
  endfacet
  facet normal -0.0366557 0.999328 0
    outer loop
      vertex 0.276825 1.12476 2
      vertex 0.405777 1.12949 0
      vertex 0.276825 1.12476 0
    endloop
  endfacet
  facet normal 0.00515009 0.999987 -0
    outer loop
      vertex 0.276825 1.12476 0
      vertex 0.245758 1.12492 2
      vertex 0.276825 1.12476 2
    endloop
  endfacet
  facet normal 0.00515009 0.999987 0
    outer loop
      vertex 0.245758 1.12492 2
      vertex 0.276825 1.12476 0
      vertex 0.245758 1.12492 0
    endloop
  endfacet
endsolid OpenSCAD_Model
