solid OpenSCAD_Model
  facet normal 0 0 1
    outer loop
      vertex -2.4098433701206243 -1.3248226037797173 -4
      vertex -3.23606797749979 -2.3511410091698925 -4
      vertex -2.9158745096856467 -2.738188423714754 -4
    endloop
  endfacet
  facet normal 0 0 1
    outer loop
      vertex -2.4098433701206243 -1.3248226037797173 -4
      vertex -2.9158745096856467 -2.738188423714754 -4
      vertex -2.5496959589947585 -3.0820529711031575 -4
    endloop
  endfacet
  facet normal 0 0 1
    outer loop
      vertex -1.4735236861922412 -2.321901795130541 -4
      vertex -2.5496959589947585 -3.0820529711031575 -4
      vertex -2.143307179915987 -3.37731170200806 -4
    endloop
  endfacet
  facet normal 0 0 1
    outer loop
      vertex -2.2247967345311057 -1.616409443804301 -4
      vertex -2.4098433701206243 -1.3248226037797173 -4
      vertex -2.5496959589947585 -3.0820529711031575 -4
    endloop
  endfacet
  facet normal 0 0 1
    outer loop
      vertex -2.2247967345311057 -1.616409443804301 -4
      vertex -2.5496959589947585 -3.0820529711031575 -4
      vertex -2.004663725408882 -1.8825045413038934 -4
    endloop
  endfacet
  facet normal 0 0 1
    outer loop
      vertex -1.7529159718088965 -2.118911417633421 -4
      vertex -2.004663725408882 -1.8825045413038934 -4
      vertex -2.5496959589947585 -3.0820529711031575 -4
    endloop
  endfacet
  facet normal 0 0 1
    outer loop
      vertex -2.4098433701206243 -1.3248226037797173 -4
      vertex -3.505226720175454 -1.9270146964068615 -4
      vertex -3.23606797749979 -2.3511410091698925 -4
    endloop
  endfacet
  facet normal 0 0 1
    outer loop
      vertex -2.4098433701206243 -1.3248226037797173 -4
      vertex -3.719105943553006 -1.4724982107387115 -4
      vertex -3.505226720175454 -1.9270146964068615 -4
    endloop
  endfacet
  facet normal 0 0 1
    outer loop
      vertex -2.4098433701206243 -1.3248226037797173 -4
      vertex -3.8743326445145243 -0.9947595486594194 -4
      vertex -3.719105943553006 -1.4724982107387115 -4
    endloop
  endfacet
  facet normal 0 0 1
    outer loop
      vertex -2.4098433701206243 -1.3248226037797173 -4
      vertex -3.9684588052579115 -0.5013329342572163 -4
      vertex -3.8743326445145243 -0.9947595486594194 -4
    endloop
  endfacet
  facet normal 0 0 1
    outer loop
      vertex -2.4098433701206243 -1.3248226037797173 -4
      vertex -4 0 -4
      vertex -3.9684588052579115 -0.5013329342572163 -4
    endloop
  endfacet
  facet normal 0 0 1
    outer loop
      vertex -2.5568853361926913 -1.0123425198828642 -4
      vertex -2.6636036931037355 -0.6838971897033508 -4
      vertex -4 0 -4
    endloop
  endfacet
  facet normal 0 0 1
    outer loop
      vertex -2.6636036931037355 -0.6838971897033508 -4
      vertex -2.728315428614814 -0.34466639230183616 -4
      vertex -4 0 -4
    endloop
  endfacet
  facet normal 0 0 1
    outer loop
      vertex -2.728315428614814 -0.34466639230183616 -4
      vertex -2.75 0 -4
      vertex -4 0 -4
    endloop
  endfacet
  facet normal 0 0 1
    outer loop
      vertex -2.5568853361926913 -1.0123425198828642 -4
      vertex -4 0 -4
      vertex -2.4098433701206243 -1.3248226037797173 -4
    endloop
  endfacet
  facet normal 0 0 1
    outer loop
      vertex -0.8497967345311054 -2.615405419811672 -4
      vertex -2.143307179915987 -3.37731170200806 -4
      vertex -1.7031171662602897 -3.6193082098640783 -4
    endloop
  endfacet
  facet normal 0 0 1
    outer loop
      vertex -0.17267392870561285 -2.744573503177747 -4
      vertex -1.7031171662602897 -3.6193082098640783 -4
      vertex -1.2360679774997896 -3.804226065180614 -4
    endloop
  endfacet
  facet normal 0 0 1
    outer loop
      vertex -1.7529159718088965 -2.118911417633421 -4
      vertex -2.5496959589947585 -3.0820529711031575 -4
      vertex -1.4735236861922412 -2.321901795130541 -4
    endloop
  endfacet
  facet normal 0 0 1
    outer loop
      vertex -1.4735236861922412 -2.321901795130541 -4
      vertex -2.143307179915987 -3.37731170200806 -4
      vertex -1.170893051803949 -2.4882743942815537 -4
    endloop
  endfacet
  facet normal 0 0 1
    outer loop
      vertex -1.170893051803949 -2.4882743942815537 -4
      vertex -2.143307179915987 -3.37731170200806 -4
      vertex -0.8497967345311054 -2.615405419811672 -4
    endloop
  endfacet
  facet normal 0 0 1
    outer loop
      vertex -0.8497967345311054 -2.615405419811672 -4
      vertex -1.7031171662602897 -3.6193082098640783 -4
      vertex -0.5152986151107433 -2.701289939503894 -4
    endloop
  endfacet
  facet normal 0 0 1
    outer loop
      vertex -0.5152986151107433 -2.701289939503894 -4
      vertex -1.7031171662602897 -3.6193082098640783 -4
      vertex -0.17267392870561285 -2.744573503177747 -4
    endloop
  endfacet
  facet normal 0 0 1
    outer loop
      vertex -0.17267392870561285 -2.744573503177747 -4
      vertex -1.2360679774997896 -3.804226065180614 -4
      vertex -0.7495252583428993 -3.9291490029147544 -4
    endloop
  endfacet
  facet normal 0 0 1
    outer loop
      vertex -0.17267392870561285 -2.744573503177747 -4
      vertex -0.7495252583428993 -3.9291490029147544 -4
      vertex -0.25116207811725505 -3.9921069137130862 -4
    endloop
  endfacet
  facet normal 0 0 1
    outer loop
      vertex -0.17267392870561285 -2.744573503177747 -4
      vertex -0.25116207811725505 -3.9921069137130862 -4
      vertex 0.25116207811725505 -3.9921069137130862 -4
    endloop
  endfacet
  facet normal 0 0 1
    outer loop
      vertex -2.75 0 -4
      vertex -3.9684588052579115 0.5013329342572163 -4
      vertex -4 0 -4
    endloop
  endfacet
  facet normal 0 0 1
    outer loop
      vertex -2.75 0 -4
      vertex -2.728315428614814 0.34466639230183616 -4
      vertex -3.9684588052579115 0.5013329342572163 -4
    endloop
  endfacet
  facet normal 0 0 1
    outer loop
      vertex -2.5568853361926913 1.0123425198828642 -4
      vertex -3.8743326445145243 0.9947595486594194 -4
      vertex -3.9684588052579115 0.5013329342572163 -4
    endloop
  endfacet
  facet normal 0 0 1
    outer loop
      vertex -2.728315428614814 0.34466639230183616 -4
      vertex -2.6636036931037355 0.6838971897033508 -4
      vertex -3.9684588052579115 0.5013329342572163 -4
    endloop
  endfacet
  facet normal 0 0 1
    outer loop
      vertex -2.6636036931037355 0.6838971897033508 -4
      vertex -2.5568853361926913 1.0123425198828642 -4
      vertex -3.9684588052579115 0.5013329342572163 -4
    endloop
  endfacet
  facet normal 0 0 1
    outer loop
      vertex -2.5568853361926913 1.0123425198828642 -4
      vertex -3.719105943553006 1.4724982107387115 -4
      vertex -3.8743326445145243 0.9947595486594194 -4
    endloop
  endfacet
  facet normal 0 0 1
    outer loop
      vertex -2.5568853361926913 1.0123425198828642 -4
      vertex -3.505226720175454 1.9270146964068615 -4
      vertex -3.719105943553006 1.4724982107387115 -4
    endloop
  endfacet
  facet normal 0 0 1
    outer loop
      vertex -2.5568853361926913 1.0123425198828642 -4
      vertex -3.23606797749979 2.3511410091698925 -4
      vertex -3.505226720175454 1.9270146964068615 -4
    endloop
  endfacet
  facet normal 0 0 1
    outer loop
      vertex -2.5568853361926913 1.0123425198828642 -4
      vertex -2.4098433701206243 1.3248226037797173 -4
      vertex -2.143307179915987 3.37731170200806 -4
    endloop
  endfacet
  facet normal 0 0 1
    outer loop
      vertex -2.5568853361926913 1.0123425198828642 -4
      vertex -2.9158745096856467 2.738188423714754 -4
      vertex -3.23606797749979 2.3511410091698925 -4
    endloop
  endfacet
  facet normal 0 0 1
    outer loop
      vertex -2.5568853361926913 1.0123425198828642 -4
      vertex -2.5496959589947585 3.0820529711031575 -4
      vertex -2.9158745096856467 2.738188423714754 -4
    endloop
  endfacet
  facet normal 0 0 1
    outer loop
      vertex -2.4098433701206243 1.3248226037797173 -4
      vertex -2.2247967345311057 1.616409443804301 -4
      vertex -2.143307179915987 3.37731170200806 -4
    endloop
  endfacet
  facet normal 0 0 1
    outer loop
      vertex -2.5568853361926913 1.0123425198828642 -4
      vertex -2.143307179915987 3.37731170200806 -4
      vertex -2.5496959589947585 3.0820529711031575 -4
    endloop
  endfacet
  facet normal 0 0 1
    outer loop
      vertex -2.2247967345311057 1.616409443804301 -4
      vertex -2.004663725408882 1.8825045413038934 -4
      vertex -2.143307179915987 3.37731170200806 -4
    endloop
  endfacet
  facet normal 0 0 1
    outer loop
      vertex -2.004663725408882 1.8825045413038934 -4
      vertex -1.7529159718088965 2.118911417633421 -4
      vertex -2.143307179915987 3.37731170200806 -4
    endloop
  endfacet
  facet normal 0 0 1
    outer loop
      vertex -1.7529159718088965 2.118911417633421 -4
      vertex -1.4735236861922412 2.321901795130541 -4
      vertex -2.143307179915987 3.37731170200806 -4
    endloop
  endfacet
  facet normal 0 0 1
    outer loop
      vertex -1.4735236861922412 2.321901795130541 -4
      vertex -1.17089305180395 2.4882743942815537 -4
      vertex -1.7031171662602909 3.619308209864078 -4
    endloop
  endfacet
  facet normal 0 0 1
    outer loop
      vertex -1.17089305180395 2.4882743942815537 -4
      vertex -0.8497967345311054 2.615405419811672 -4
      vertex -1.7031171662602909 3.619308209864078 -4
    endloop
  endfacet
  facet normal 0 0 1
    outer loop
      vertex -1.4735236861922412 2.321901795130541 -4
      vertex -1.7031171662602909 3.619308209864078 -4
      vertex -2.143307179915987 3.37731170200806 -4
    endloop
  endfacet
  facet normal 0 0 1
    outer loop
      vertex -0.8497967345311054 2.615405419811672 -4
      vertex -1.2360679774997896 3.804226065180614 -4
      vertex -1.7031171662602909 3.619308209864078 -4
    endloop
  endfacet
  facet normal 0 0 1
    outer loop
      vertex -0.8497967345311054 2.615405419811672 -4
      vertex -0.5152986151107426 2.701289939503894 -4
      vertex -1.2360679774997896 3.804226065180614 -4
    endloop
  endfacet
  facet normal 0 0 1
    outer loop
      vertex -0.5152986151107426 2.701289939503894 -4
      vertex -0.17267392870561152 2.744573503177747 -4
      vertex -1.2360679774997896 3.804226065180614 -4
    endloop
  endfacet
  facet normal 0 0 1
    outer loop
      vertex 0.17267392870561152 2.744573503177747 -4
      vertex -0.7495252583428983 3.929149002914755 -4
      vertex -1.2360679774997896 3.804226065180614 -4
    endloop
  endfacet
  facet normal 0 0 1
    outer loop
      vertex -0.17267392870561152 2.744573503177747 -4
      vertex 0.17267392870561152 2.744573503177747 -4
      vertex -1.2360679774997896 3.804226065180614 -4
    endloop
  endfacet
  facet normal 0 0 1
    outer loop
      vertex 0.17267392870561152 2.744573503177747 -4
      vertex -0.2511620781172531 3.9921069137130862 -4
      vertex -0.7495252583428983 3.929149002914755 -4
    endloop
  endfacet
  facet normal 0 0 1
    outer loop
      vertex -0.17267392870561285 -2.744573503177747 -4
      vertex 0.25116207811725505 -3.9921069137130862 -4
      vertex 0.7495252583428993 -3.9291490029147544 -4
    endloop
  endfacet
  facet normal 0 0 1
    outer loop
      vertex -0.17267392870561285 -2.744573503177747 -4
      vertex 1.2360679774997896 -3.804226065180614 -4
      vertex 0.17267392870561285 -2.744573503177747 -4
    endloop
  endfacet
  facet normal 0 0 1
    outer loop
      vertex -0.17267392870561285 -2.744573503177747 -4
      vertex 0.7495252583428993 -3.9291490029147544 -4
      vertex 1.2360679774997896 -3.804226065180614 -4
    endloop
  endfacet
  facet normal 0 0 1
    outer loop
      vertex 0.17267392870561285 -2.744573503177747 -4
      vertex 1.2360679774997896 -3.804226065180614 -4
      vertex 0.5152986151107433 -2.701289939503894 -4
    endloop
  endfacet
  facet normal 0 0 1
    outer loop
      vertex 0.5152986151107433 -2.701289939503894 -4
      vertex 1.2360679774997896 -3.804226065180614 -4
      vertex 0.8497967345311054 -2.615405419811672 -4
    endloop
  endfacet
  facet normal 0 0 1
    outer loop
      vertex 0.8497967345311054 -2.615405419811672 -4
      vertex 1.2360679774997896 -3.804226065180614 -4
      vertex 1.7031171662602897 -3.6193082098640783 -4
    endloop
  endfacet
  facet normal 0 0 1
    outer loop
      vertex 1.4735236861922396 -2.3219017951305423 -4
      vertex 1.7031171662602897 -3.6193082098640783 -4
      vertex 2.143307179915985 -3.377311702008061 -4
    endloop
  endfacet
  facet normal 0 0 1
    outer loop
      vertex 0.8497967345311054 -2.615405419811672 -4
      vertex 1.7031171662602897 -3.6193082098640783 -4
      vertex 1.170893051803949 -2.4882743942815537 -4
    endloop
  endfacet
  facet normal 0 0 1
    outer loop
      vertex 1.170893051803949 -2.4882743942815537 -4
      vertex 1.7031171662602897 -3.6193082098640783 -4
      vertex 1.4735236861922396 -2.3219017951305423 -4
    endloop
  endfacet
  facet normal 0 0 1
    outer loop
      vertex 1.4735236861922396 -2.3219017951305423 -4
      vertex 2.143307179915985 -3.377311702008061 -4
      vertex 1.7529159718088974 -2.11891141763342 -4
    endloop
  endfacet
  facet normal 0 0 1
    outer loop
      vertex 1.7529159718088974 -2.11891141763342 -4
      vertex 2.143307179915985 -3.377311702008061 -4
      vertex 2.004663725408882 -1.8825045413038934 -4
    endloop
  endfacet
  facet normal 0 0 1
    outer loop
      vertex 2.004663725408882 -1.8825045413038934 -4
      vertex 2.143307179915985 -3.377311702008061 -4
      vertex 2.2247967345311057 -1.616409443804301 -4
    endloop
  endfacet
  facet normal 0 0 1
    outer loop
      vertex 2.556885336192691 -1.0123425198828655 -4
      vertex 2.143307179915985 -3.377311702008061 -4
      vertex 2.54969595899476 -3.082052971103156 -4
    endloop
  endfacet
  facet normal 0 0 1
    outer loop
      vertex 2.2247967345311057 -1.616409443804301 -4
      vertex 2.143307179915985 -3.377311702008061 -4
      vertex 2.4098433701206243 -1.3248226037797173 -4
    endloop
  endfacet
  facet normal 0 0 1
    outer loop
      vertex 2.556885336192691 -1.0123425198828655 -4
      vertex 2.54969595899476 -3.082052971103156 -4
      vertex 2.9158745096856467 -2.738188423714754 -4
    endloop
  endfacet
  facet normal 0 0 1
    outer loop
      vertex 2.556885336192691 -1.0123425198828655 -4
      vertex 2.9158745096856467 -2.738188423714754 -4
      vertex 3.23606797749979 -2.3511410091698925 -4
    endloop
  endfacet
  facet normal 0 0 1
    outer loop
      vertex 2.4098433701206243 -1.3248226037797173 -4
      vertex 2.143307179915985 -3.377311702008061 -4
      vertex 2.556885336192691 -1.0123425198828655 -4
    endloop
  endfacet
  facet normal 0 0 1
    outer loop
      vertex 2.556885336192691 -1.0123425198828655 -4
      vertex 3.23606797749979 -2.3511410091698925 -4
      vertex 3.505226720175454 -1.9270146964068615 -4
    endloop
  endfacet
  facet normal 0 0 1
    outer loop
      vertex 2.556885336192691 -1.0123425198828655 -4
      vertex 3.505226720175454 -1.9270146964068615 -4
      vertex 3.719105943553005 -1.4724982107387135 -4
    endloop
  endfacet
  facet normal 0 0 1
    outer loop
      vertex 2.556885336192691 -1.0123425198828655 -4
      vertex 3.719105943553005 -1.4724982107387135 -4
      vertex 3.8743326445145247 -0.9947595486594177 -4
    endloop
  endfacet
  facet normal 0 0 1
    outer loop
      vertex 2.556885336192691 -1.0123425198828655 -4
      vertex 3.9684588052579115 -0.5013329342572163 -4
      vertex 2.663603693103736 -0.6838971897033497 -4
    endloop
  endfacet
  facet normal 0 0 1
    outer loop
      vertex 2.663603693103736 -0.6838971897033497 -4
      vertex 3.9684588052579115 -0.5013329342572163 -4
      vertex 2.728315428614814 -0.34466639230183616 -4
    endloop
  endfacet
  facet normal 0 0 1
    outer loop
      vertex 2.556885336192691 -1.0123425198828655 -4
      vertex 3.8743326445145247 -0.9947595486594177 -4
      vertex 3.9684588052579115 -0.5013329342572163 -4
    endloop
  endfacet
  facet normal 0 0 1
    outer loop
      vertex 2.728315428614814 -0.34466639230183616 -4
      vertex 3.9684588052579115 -0.5013329342572163 -4
      vertex 2.75 0 -4
    endloop
  endfacet
  facet normal 0 0 1
    outer loop
      vertex 2.75 0 -4
      vertex 3.9684588052579115 -0.5013329342572163 -4
      vertex 4 0 -4
    endloop
  endfacet
  facet normal 0 0 1
    outer loop
      vertex 0.17267392870561152 2.744573503177747 -4
      vertex 0.2511620781172531 3.9921069137130862 -4
      vertex -0.2511620781172531 3.9921069137130862 -4
    endloop
  endfacet
  facet normal 0 0 1
    outer loop
      vertex 0.17267392870561152 2.744573503177747 -4
      vertex 0.7495252583428983 3.929149002914755 -4
      vertex 0.2511620781172531 3.9921069137130862 -4
    endloop
  endfacet
  facet normal 0 0 1
    outer loop
      vertex 0.17267392870561152 2.744573503177747 -4
      vertex 1.2360679774997896 3.804226065180614 -4
      vertex 0.7495252583428983 3.929149002914755 -4
    endloop
  endfacet
  facet normal 0 0 1
    outer loop
      vertex 0.17267392870561152 2.744573503177747 -4
      vertex 0.5152986151107426 2.701289939503894 -4
      vertex 1.7031171662602909 3.619308209864078 -4
    endloop
  endfacet
  facet normal 0 0 1
    outer loop
      vertex 0.5152986151107426 2.701289939503894 -4
      vertex 0.8497967345311054 2.615405419811672 -4
      vertex 1.7031171662602909 3.619308209864078 -4
    endloop
  endfacet
  facet normal 0 0 1
    outer loop
      vertex 0.8497967345311054 2.615405419811672 -4
      vertex 1.17089305180395 2.4882743942815537 -4
      vertex 2.1433071799159866 3.3773117020080603 -4
    endloop
  endfacet
  facet normal 0 0 1
    outer loop
      vertex 1.17089305180395 2.4882743942815537 -4
      vertex 1.4735236861922407 2.3219017951305414 -4
      vertex 2.1433071799159866 3.3773117020080603 -4
    endloop
  endfacet
  facet normal 0 0 1
    outer loop
      vertex 1.4735236861922407 2.3219017951305414 -4
      vertex 1.7529159718088967 2.11891141763342 -4
      vertex 2.549695958994759 3.0820529711031566 -4
    endloop
  endfacet
  facet normal 0 0 1
    outer loop
      vertex 0.17267392870561152 2.744573503177747 -4
      vertex 1.7031171662602909 3.619308209864078 -4
      vertex 1.2360679774997896 3.804226065180614 -4
    endloop
  endfacet
  facet normal 0 0 1
    outer loop
      vertex 0.8497967345311054 2.615405419811672 -4
      vertex 2.1433071799159866 3.3773117020080603 -4
      vertex 1.7031171662602909 3.619308209864078 -4
    endloop
  endfacet
  facet normal 0 0 1
    outer loop
      vertex 2.4098433701206248 1.324822603779717 -4
      vertex 2.5568853361926913 1.0123425198828644 -4
      vertex 4 0 -4
    endloop
  endfacet
  facet normal 0 0 1
    outer loop
      vertex 2.75 0 -4
      vertex 4 0 -4
      vertex 2.728315428614814 0.3446663923018367 -4
    endloop
  endfacet
  facet normal 0 0 1
    outer loop
      vertex 2.728315428614814 0.3446663923018367 -4
      vertex 4 0 -4
      vertex 2.6636036931037355 0.6838971897033507 -4
    endloop
  endfacet
  facet normal 0 0 1
    outer loop
      vertex 2.6636036931037355 0.6838971897033507 -4
      vertex 4 0 -4
      vertex 2.5568853361926913 1.0123425198828644 -4
    endloop
  endfacet
  facet normal 0 0 1
    outer loop
      vertex 2.4098433701206248 1.324822603779717 -4
      vertex 4 0 -4
      vertex 3.9684588052579115 0.501332934257217 -4
    endloop
  endfacet
  facet normal 0 0 1
    outer loop
      vertex 2.4098433701206248 1.324822603779717 -4
      vertex 3.9684588052579115 0.501332934257217 -4
      vertex 3.8743326445145243 0.9947595486594192 -4
    endloop
  endfacet
  facet normal 0 0 1
    outer loop
      vertex 2.4098433701206248 1.324822603779717 -4
      vertex 3.8743326445145243 0.9947595486594192 -4
      vertex 3.7191059435530054 1.472498210738712 -4
    endloop
  endfacet
  facet normal 0 0 1
    outer loop
      vertex 2.4098433701206248 1.324822603779717 -4
      vertex 3.7191059435530054 1.472498210738712 -4
      vertex 3.5052267201754543 1.9270146964068613 -4
    endloop
  endfacet
  facet normal 0 0 1
    outer loop
      vertex 2.4098433701206248 1.324822603779717 -4
      vertex 3.5052267201754543 1.9270146964068613 -4
      vertex 3.23606797749979 2.3511410091698925 -4
    endloop
  endfacet
  facet normal 0 0 1
    outer loop
      vertex 2.0046637254088817 1.882504541303894 -4
      vertex 2.549695958994759 3.0820529711031566 -4
      vertex 1.7529159718088967 2.11891141763342 -4
    endloop
  endfacet
  facet normal 0 0 1
    outer loop
      vertex 2.0046637254088817 1.882504541303894 -4
      vertex 2.2247967345311057 1.616409443804301 -4
      vertex 2.549695958994759 3.0820529711031566 -4
    endloop
  endfacet
  facet normal 0 0 1
    outer loop
      vertex 2.4098433701206248 1.324822603779717 -4
      vertex 2.549695958994759 3.0820529711031566 -4
      vertex 2.2247967345311057 1.616409443804301 -4
    endloop
  endfacet
  facet normal 0 0 1
    outer loop
      vertex 1.4735236861922407 2.3219017951305414 -4
      vertex 2.549695958994759 3.0820529711031566 -4
      vertex 2.1433071799159866 3.3773117020080603 -4
    endloop
  endfacet
  facet normal 0 0 1
    outer loop
      vertex 2.4098433701206248 1.324822603779717 -4
      vertex 2.915874509685646 2.738188423714755 -4
      vertex 2.549695958994759 3.0820529711031566 -4
    endloop
  endfacet
  facet normal 0 0 1
    outer loop
      vertex 2.4098433701206248 1.324822603779717 -4
      vertex 3.23606797749979 2.3511410091698925 -4
      vertex 2.915874509685646 2.738188423714755 -4
    endloop
  endfacet
  facet normal 0.9048270524660192 0.42577929156507327 0
    outer loop
      vertex -2.5568853361926913 -1.0123425198828642 -4
      vertex -2.4098433701206243 -1.3248226037797173 -28.5
      vertex -2.5568853361926913 -1.0123425198828642 -28.5
    endloop
  endfacet
  facet normal 0.7705132427757891 0.63742398974869 0
    outer loop
      vertex -2.2247967345311057 -1.616409443804301 -4
      vertex -2.004663725408882 -1.8825045413038934 -28.5
      vertex -2.2247967345311057 -1.616409443804301 -28.5
    endloop
  endfacet
  facet normal 0.844327925502016 0.5358267949789953 0
    outer loop
      vertex -2.4098433701206243 -1.3248226037797173 -4
      vertex -2.2247967345311057 -1.616409443804301 -28.5
      vertex -2.4098433701206243 -1.3248226037797173 -28.5
    endloop
  endfacet
  facet normal 0.9510565162951535 0.3090169943749475 0
    outer loop
      vertex -2.6636036931037355 -0.6838971897033508 -4
      vertex -2.5568853361926913 -1.0123425198828642 -28.5
      vertex -2.6636036931037355 -0.6838971897033508 -28.5
    endloop
  endfacet
  facet normal 0.9822872507286886 0.1873813145857249 0
    outer loop
      vertex -2.728315428614814 -0.34466639230183616 -4
      vertex -2.6636036931037355 -0.6838971897033508 -28.5
      vertex -2.728315428614814 -0.34466639230183616 -28.5
    endloop
  endfacet
  facet normal 0.9980267284282716 0.0627905195293132 0
    outer loop
      vertex -2.75 0 -4
      vertex -2.728315428614814 -0.34466639230183616 -28.5
      vertex -2.75 0 -28.5
    endloop
  endfacet
  facet normal 0.587785252292472 0.8090169943749481 0
    outer loop
      vertex -1.7529159718088965 -2.118911417633421 -4
      vertex -1.4735236861922412 -2.321901795130541 -28.5
      vertex -1.7529159718088965 -2.118911417633421 -28.5
    endloop
  endfacet
  facet normal 0.368124552684678 0.9297764858882515 0
    outer loop
      vertex -1.170893051803949 -2.4882743942815537 -4
      vertex -0.8497967345311054 -2.615405419811672 -28.5
      vertex -1.170893051803949 -2.4882743942815537 -28.5
    endloop
  endfacet
  facet normal 0.481753674101715 0.8763066800438636 0
    outer loop
      vertex -1.4735236861922412 -2.321901795130541 -4
      vertex -1.170893051803949 -2.4882743942815537 -28.5
      vertex -1.4735236861922412 -2.321901795130541 -28.5
    endloop
  endfacet
  facet normal 0.2486898871648558 0.9685831611286309 0
    outer loop
      vertex -0.8497967345311054 -2.615405419811672 -4
      vertex -0.5152986151107433 -2.701289939503894 -28.5
      vertex -0.8497967345311054 -2.615405419811672 -28.5
    endloop
  endfacet
  facet normal 0.12533323356430498 0.9921147013144778 0
    outer loop
      vertex -0.5152986151107433 -2.701289939503894 -4
      vertex -0.17267392870561285 -2.744573503177747 -28.5
      vertex -0.5152986151107433 -2.701289939503894 -28.5
    endloop
  endfacet
  facet normal 0 1 0
    outer loop
      vertex -0.17267392870561285 -2.744573503177747 -4
      vertex 0.17267392870561285 -2.744573503177747 -28.5
      vertex -0.17267392870561285 -2.744573503177747 -28.5
    endloop
  endfacet
  facet normal 0.6845471059286892 0.7289686274214111 0
    outer loop
      vertex -2.004663725408882 -1.8825045413038934 -4
      vertex -1.7529159718088965 -2.118911417633421 -28.5
      vertex -2.004663725408882 -1.8825045413038934 -28.5
    endloop
  endfacet
  facet normal 0.844327925502016 0.5358267949789953 0
    outer loop
      vertex -2.2247967345311057 -1.616409443804301 -4
      vertex -2.2247967345311057 -1.616409443804301 -28.5
      vertex -2.4098433701206243 -1.3248226037797173 -4
    endloop
  endfacet
  facet normal 0.7705132427757891 0.63742398974869 0
    outer loop
      vertex -2.2247967345311057 -1.616409443804301 -4
      vertex -2.004663725408882 -1.8825045413038934 -4
      vertex -2.004663725408882 -1.8825045413038934 -28.5
    endloop
  endfacet
  facet normal 0.9048270524660192 0.42577929156507327 0
    outer loop
      vertex -2.5568853361926913 -1.0123425198828642 -4
      vertex -2.4098433701206243 -1.3248226037797173 -4
      vertex -2.4098433701206243 -1.3248226037797173 -28.5
    endloop
  endfacet
  facet normal 0.9510565162951535 0.3090169943749475 0
    outer loop
      vertex -2.5568853361926913 -1.0123425198828642 -4
      vertex -2.5568853361926913 -1.0123425198828642 -28.5
      vertex -2.6636036931037355 -0.6838971897033508 -4
    endloop
  endfacet
  facet normal 0.9822872507286886 0.1873813145857249 0
    outer loop
      vertex -2.6636036931037355 -0.6838971897033508 -4
      vertex -2.6636036931037355 -0.6838971897033508 -28.5
      vertex -2.728315428614814 -0.34466639230183616 -4
    endloop
  endfacet
  facet normal 0.9980267284282716 0.0627905195293132 0
    outer loop
      vertex -2.728315428614814 -0.34466639230183616 -4
      vertex -2.728315428614814 -0.34466639230183616 -28.5
      vertex -2.75 0 -4
    endloop
  endfacet
  facet normal 0.6845471059286892 0.7289686274214111 0
    outer loop
      vertex -1.7529159718088965 -2.118911417633421 -4
      vertex -1.7529159718088965 -2.118911417633421 -28.5
      vertex -2.004663725408882 -1.8825045413038934 -4
    endloop
  endfacet
  facet normal 0.587785252292472 0.8090169943749481 0
    outer loop
      vertex -1.7529159718088965 -2.118911417633421 -4
      vertex -1.4735236861922412 -2.321901795130541 -4
      vertex -1.4735236861922412 -2.321901795130541 -28.5
    endloop
  endfacet
  facet normal 0.481753674101715 0.8763066800438636 0
    outer loop
      vertex -1.4735236861922412 -2.321901795130541 -4
      vertex -1.170893051803949 -2.4882743942815537 -4
      vertex -1.170893051803949 -2.4882743942815537 -28.5
    endloop
  endfacet
  facet normal 0.368124552684678 0.9297764858882515 0
    outer loop
      vertex -1.170893051803949 -2.4882743942815537 -4
      vertex -0.8497967345311054 -2.615405419811672 -4
      vertex -0.8497967345311054 -2.615405419811672 -28.5
    endloop
  endfacet
  facet normal 0.2486898871648558 0.9685831611286309 0
    outer loop
      vertex -0.8497967345311054 -2.615405419811672 -4
      vertex -0.5152986151107433 -2.701289939503894 -4
      vertex -0.5152986151107433 -2.701289939503894 -28.5
    endloop
  endfacet
  facet normal 0.12533323356430498 0.9921147013144778 0
    outer loop
      vertex -0.5152986151107433 -2.701289939503894 -4
      vertex -0.17267392870561285 -2.744573503177747 -4
      vertex -0.17267392870561285 -2.744573503177747 -28.5
    endloop
  endfacet
  facet normal 0.9980267284282716 -0.0627905195293132 0
    outer loop
      vertex -2.728315428614814 0.34466639230183616 -4
      vertex -2.75 0 -28.5
      vertex -2.728315428614814 0.34466639230183616 -28.5
    endloop
  endfacet
  facet normal 0.9822872507286886 -0.1873813145857249 0
    outer loop
      vertex -2.6636036931037355 0.6838971897033508 -4
      vertex -2.728315428614814 0.34466639230183616 -28.5
      vertex -2.6636036931037355 0.6838971897033508 -28.5
    endloop
  endfacet
  facet normal 0.9510565162951535 -0.3090169943749475 0
    outer loop
      vertex -2.5568853361926913 1.0123425198828642 -4
      vertex -2.6636036931037355 0.6838971897033508 -28.5
      vertex -2.5568853361926913 1.0123425198828642 -28.5
    endloop
  endfacet
  facet normal 0.9048270524660192 -0.42577929156507327 0
    outer loop
      vertex -2.4098433701206243 1.3248226037797173 -4
      vertex -2.5568853361926913 1.0123425198828642 -28.5
      vertex -2.4098433701206243 1.3248226037797173 -28.5
    endloop
  endfacet
  facet normal 0.844327925502016 -0.5358267949789953 0
    outer loop
      vertex -2.2247967345311057 1.616409443804301 -4
      vertex -2.4098433701206243 1.3248226037797173 -28.5
      vertex -2.2247967345311057 1.616409443804301 -28.5
    endloop
  endfacet
  facet normal 0.7705132427757891 -0.63742398974869 0
    outer loop
      vertex -2.004663725408882 1.8825045413038934 -4
      vertex -2.2247967345311057 1.616409443804301 -28.5
      vertex -2.004663725408882 1.8825045413038934 -28.5
    endloop
  endfacet
  facet normal 0.6845471059286892 -0.7289686274214111 0
    outer loop
      vertex -1.7529159718088965 2.118911417633421 -4
      vertex -2.004663725408882 1.8825045413038934 -28.5
      vertex -1.7529159718088965 2.118911417633421 -28.5
    endloop
  endfacet
  facet normal 0.587785252292472 -0.8090169943749481 0
    outer loop
      vertex -1.4735236861922412 2.321901795130541 -4
      vertex -1.7529159718088965 2.118911417633421 -28.5
      vertex -1.4735236861922412 2.321901795130541 -28.5
    endloop
  endfacet
  facet normal 0.4817536741017161 -0.8763066800438631 0
    outer loop
      vertex -1.17089305180395 2.4882743942815537 -4
      vertex -1.4735236861922412 2.321901795130541 -28.5
      vertex -1.17089305180395 2.4882743942815537 -28.5
    endloop
  endfacet
  facet normal 0.36812455268467703 -0.9297764858882517 0
    outer loop
      vertex -0.8497967345311054 2.615405419811672 -4
      vertex -1.17089305180395 2.4882743942815537 -28.5
      vertex -0.8497967345311054 2.615405419811672 -28.5
    endloop
  endfacet
  facet normal 0.24868988716485532 -0.968583161128631 0
    outer loop
      vertex -0.5152986151107426 2.701289939503894 -4
      vertex -0.8497967345311054 2.615405419811672 -28.5
      vertex -0.5152986151107426 2.701289939503894 -28.5
    endloop
  endfacet
  facet normal 0.1253332335643047 -0.9921147013144778 0
    outer loop
      vertex -0.17267392870561152 2.744573503177747 -4
      vertex -0.5152986151107426 2.701289939503894 -28.5
      vertex -0.17267392870561152 2.744573503177747 -28.5
    endloop
  endfacet
  facet normal 0.9980267284282716 -0.0627905195293132 0
    outer loop
      vertex -2.75 0 -4
      vertex -2.75 0 -28.5
      vertex -2.728315428614814 0.34466639230183616 -4
    endloop
  endfacet
  facet normal 0.9822872507286886 -0.1873813145857249 0
    outer loop
      vertex -2.728315428614814 0.34466639230183616 -4
      vertex -2.728315428614814 0.34466639230183616 -28.5
      vertex -2.6636036931037355 0.6838971897033508 -4
    endloop
  endfacet
  facet normal 0.9510565162951535 -0.3090169943749475 0
    outer loop
      vertex -2.6636036931037355 0.6838971897033508 -4
      vertex -2.6636036931037355 0.6838971897033508 -28.5
      vertex -2.5568853361926913 1.0123425198828642 -4
    endloop
  endfacet
  facet normal 0.9048270524660192 -0.42577929156507327 0
    outer loop
      vertex -2.5568853361926913 1.0123425198828642 -4
      vertex -2.5568853361926913 1.0123425198828642 -28.5
      vertex -2.4098433701206243 1.3248226037797173 -4
    endloop
  endfacet
  facet normal 0.844327925502016 -0.5358267949789953 0
    outer loop
      vertex -2.4098433701206243 1.3248226037797173 -4
      vertex -2.4098433701206243 1.3248226037797173 -28.5
      vertex -2.2247967345311057 1.616409443804301 -4
    endloop
  endfacet
  facet normal 0.7705132427757891 -0.63742398974869 0
    outer loop
      vertex -2.2247967345311057 1.616409443804301 -4
      vertex -2.2247967345311057 1.616409443804301 -28.5
      vertex -2.004663725408882 1.8825045413038934 -4
    endloop
  endfacet
  facet normal 0.6845471059286892 -0.7289686274214111 0
    outer loop
      vertex -2.004663725408882 1.8825045413038934 -4
      vertex -2.004663725408882 1.8825045413038934 -28.5
      vertex -1.7529159718088965 2.118911417633421 -4
    endloop
  endfacet
  facet normal 0.587785252292472 -0.8090169943749481 0
    outer loop
      vertex -1.7529159718088965 2.118911417633421 -4
      vertex -1.7529159718088965 2.118911417633421 -28.5
      vertex -1.4735236861922412 2.321901795130541 -4
    endloop
  endfacet
  facet normal 0.4817536741017161 -0.8763066800438631 0
    outer loop
      vertex -1.4735236861922412 2.321901795130541 -4
      vertex -1.4735236861922412 2.321901795130541 -28.5
      vertex -1.17089305180395 2.4882743942815537 -4
    endloop
  endfacet
  facet normal 0.36812455268467703 -0.9297764858882517 0
    outer loop
      vertex -1.17089305180395 2.4882743942815537 -4
      vertex -1.17089305180395 2.4882743942815537 -28.5
      vertex -0.8497967345311054 2.615405419811672 -4
    endloop
  endfacet
  facet normal 0.24868988716485532 -0.968583161128631 0
    outer loop
      vertex -0.8497967345311054 2.615405419811672 -4
      vertex -0.8497967345311054 2.615405419811672 -28.5
      vertex -0.5152986151107426 2.701289939503894 -4
    endloop
  endfacet
  facet normal 0.1253332335643047 -0.9921147013144778 0
    outer loop
      vertex -0.5152986151107426 2.701289939503894 -4
      vertex -0.5152986151107426 2.701289939503894 -28.5
      vertex -0.17267392870561152 2.744573503177747 -4
    endloop
  endfacet
  facet normal 0 -1 0
    outer loop
      vertex -0.17267392870561152 2.744573503177747 -4
      vertex -0.17267392870561152 2.744573503177747 -28.5
      vertex 0.17267392870561152 2.744573503177747 -4
    endloop
  endfacet
  facet normal -0.12533323356430498 0.9921147013144778 0
    outer loop
      vertex 0.17267392870561285 -2.744573503177747 -4
      vertex 0.5152986151107433 -2.701289939503894 -28.5
      vertex 0.17267392870561285 -2.744573503177747 -28.5
    endloop
  endfacet
  facet normal -0.2486898871648558 0.9685831611286309 0
    outer loop
      vertex 0.5152986151107433 -2.701289939503894 -4
      vertex 0.8497967345311054 -2.615405419811672 -28.5
      vertex 0.5152986151107433 -2.701289939503894 -28.5
    endloop
  endfacet
  facet normal -0.368124552684678 0.9297764858882515 0
    outer loop
      vertex 0.8497967345311054 -2.615405419811672 -4
      vertex 1.170893051803949 -2.4882743942815537 -28.5
      vertex 0.8497967345311054 -2.615405419811672 -28.5
    endloop
  endfacet
  facet normal -0.48175367410171394 0.8763066800438643 0
    outer loop
      vertex 1.170893051803949 -2.4882743942815537 -4
      vertex 1.4735236861922396 -2.3219017951305423 -28.5
      vertex 1.170893051803949 -2.4882743942815537 -28.5
    endloop
  endfacet
  facet normal -0.5877852522924729 0.8090169943749475 0
    outer loop
      vertex 1.4735236861922396 -2.3219017951305423 -4
      vertex 1.7529159718088974 -2.11891141763342 -28.5
      vertex 1.4735236861922396 -2.3219017951305423 -28.5
    endloop
  endfacet
  facet normal -0.6845471059286891 0.7289686274214111 0
    outer loop
      vertex 1.7529159718088974 -2.11891141763342 -4
      vertex 2.004663725408882 -1.8825045413038934 -28.5
      vertex 1.7529159718088974 -2.11891141763342 -28.5
    endloop
  endfacet
  facet normal -0.7705132427757891 0.63742398974869 0
    outer loop
      vertex 2.004663725408882 -1.8825045413038934 -4
      vertex 2.2247967345311057 -1.616409443804301 -28.5
      vertex 2.004663725408882 -1.8825045413038934 -28.5
    endloop
  endfacet
  facet normal -0.844327925502016 0.5358267949789953 0
    outer loop
      vertex 2.2247967345311057 -1.616409443804301 -4
      vertex 2.4098433701206243 -1.3248226037797173 -28.5
      vertex 2.2247967345311057 -1.616409443804301 -28.5
    endloop
  endfacet
  facet normal -0.904827052466019 0.4257792915650737 0
    outer loop
      vertex 2.4098433701206243 -1.3248226037797173 -4
      vertex 2.556885336192691 -1.0123425198828655 -28.5
      vertex 2.4098433701206243 -1.3248226037797173 -28.5
    endloop
  endfacet
  facet normal -0.9510565162951535 0.3090169943749478 0
    outer loop
      vertex 2.556885336192691 -1.0123425198828655 -4
      vertex 2.663603693103736 -0.6838971897033497 -28.5
      vertex 2.556885336192691 -1.0123425198828655 -28.5
    endloop
  endfacet
  facet normal -0.9822872507286888 0.18738131458572424 0
    outer loop
      vertex 2.663603693103736 -0.6838971897033497 -4
      vertex 2.728315428614814 -0.34466639230183616 -28.5
      vertex 2.663603693103736 -0.6838971897033497 -28.5
    endloop
  endfacet
  facet normal -0.9980267284282716 0.0627905195293132 0
    outer loop
      vertex 2.728315428614814 -0.34466639230183616 -4
      vertex 2.75 0 -28.5
      vertex 2.728315428614814 -0.34466639230183616 -28.5
    endloop
  endfacet
  facet normal 0 1 0
    outer loop
      vertex -0.17267392870561285 -2.744573503177747 -4
      vertex 0.17267392870561285 -2.744573503177747 -4
      vertex 0.17267392870561285 -2.744573503177747 -28.5
    endloop
  endfacet
  facet normal -0.12533323356430498 0.9921147013144778 0
    outer loop
      vertex 0.17267392870561285 -2.744573503177747 -4
      vertex 0.5152986151107433 -2.701289939503894 -4
      vertex 0.5152986151107433 -2.701289939503894 -28.5
    endloop
  endfacet
  facet normal -0.2486898871648558 0.9685831611286309 0
    outer loop
      vertex 0.5152986151107433 -2.701289939503894 -4
      vertex 0.8497967345311054 -2.615405419811672 -4
      vertex 0.8497967345311054 -2.615405419811672 -28.5
    endloop
  endfacet
  facet normal -0.368124552684678 0.9297764858882515 0
    outer loop
      vertex 0.8497967345311054 -2.615405419811672 -4
      vertex 1.170893051803949 -2.4882743942815537 -4
      vertex 1.170893051803949 -2.4882743942815537 -28.5
    endloop
  endfacet
  facet normal -0.48175367410171394 0.8763066800438643 0
    outer loop
      vertex 1.170893051803949 -2.4882743942815537 -4
      vertex 1.4735236861922396 -2.3219017951305423 -4
      vertex 1.4735236861922396 -2.3219017951305423 -28.5
    endloop
  endfacet
  facet normal -0.5877852522924729 0.8090169943749475 0
    outer loop
      vertex 1.4735236861922396 -2.3219017951305423 -4
      vertex 1.7529159718088974 -2.11891141763342 -4
      vertex 1.7529159718088974 -2.11891141763342 -28.5
    endloop
  endfacet
  facet normal -0.6845471059286891 0.7289686274214111 0
    outer loop
      vertex 1.7529159718088974 -2.11891141763342 -4
      vertex 2.004663725408882 -1.8825045413038934 -4
      vertex 2.004663725408882 -1.8825045413038934 -28.5
    endloop
  endfacet
  facet normal -0.7705132427757891 0.63742398974869 0
    outer loop
      vertex 2.004663725408882 -1.8825045413038934 -4
      vertex 2.2247967345311057 -1.616409443804301 -4
      vertex 2.2247967345311057 -1.616409443804301 -28.5
    endloop
  endfacet
  facet normal -0.844327925502016 0.5358267949789953 0
    outer loop
      vertex 2.2247967345311057 -1.616409443804301 -4
      vertex 2.4098433701206243 -1.3248226037797173 -4
      vertex 2.4098433701206243 -1.3248226037797173 -28.5
    endloop
  endfacet
  facet normal -0.904827052466019 0.4257792915650737 0
    outer loop
      vertex 2.4098433701206243 -1.3248226037797173 -4
      vertex 2.556885336192691 -1.0123425198828655 -4
      vertex 2.556885336192691 -1.0123425198828655 -28.5
    endloop
  endfacet
  facet normal -0.9510565162951535 0.3090169943749478 0
    outer loop
      vertex 2.556885336192691 -1.0123425198828655 -4
      vertex 2.663603693103736 -0.6838971897033497 -4
      vertex 2.663603693103736 -0.6838971897033497 -28.5
    endloop
  endfacet
  facet normal -0.9822872507286888 0.18738131458572424 0
    outer loop
      vertex 2.663603693103736 -0.6838971897033497 -4
      vertex 2.728315428614814 -0.34466639230183616 -4
      vertex 2.728315428614814 -0.34466639230183616 -28.5
    endloop
  endfacet
  facet normal -0.9980267284282716 0.0627905195293132 0
    outer loop
      vertex 2.728315428614814 -0.34466639230183616 -4
      vertex 2.75 0 -4
      vertex 2.75 0 -28.5
    endloop
  endfacet
  facet normal -0.6845471059286876 -0.7289686274214124 0
    outer loop
      vertex 2.0046637254088817 1.882504541303894 -4
      vertex 1.7529159718088967 2.11891141763342 -28.5
      vertex 2.0046637254088817 1.882504541303894 -28.5
    endloop
  endfacet
  facet normal 0 -1 0
    outer loop
      vertex 0.17267392870561152 2.744573503177747 -4
      vertex -0.17267392870561152 2.744573503177747 -28.5
      vertex 0.1726739287056112 2.744573503177747 -28.5
    endloop
  endfacet
  facet normal -0.12533323356430462 -0.9921147013144778 0
    outer loop
      vertex 0.5152986151107426 2.701289939503894 -4
      vertex 0.1726739287056112 2.744573503177747 -28.5
      vertex 0.5152986151107426 2.701289939503894 -28.5
    endloop
  endfacet
  facet normal -0.24868988716485532 -0.968583161128631 0
    outer loop
      vertex 0.8497967345311054 2.615405419811672 -4
      vertex 0.5152986151107426 2.701289939503894 -28.5
      vertex 0.8497967345311054 2.615405419811672 -28.5
    endloop
  endfacet
  facet normal -0.4817536741017157 -0.8763066800438635 0
    outer loop
      vertex 1.4735236861922407 2.3219017951305414 -4
      vertex 1.17089305180395 2.4882743942815537 -28.5
      vertex 1.4735236861922407 2.3219017951305414 -28.5
    endloop
  endfacet
  facet normal -0.36812455268467703 -0.9297764858882517 0
    outer loop
      vertex 1.17089305180395 2.4882743942815537 -4
      vertex 0.8497967345311054 2.615405419811672 -28.5
      vertex 1.17089305180395 2.4882743942815537 -28.5
    endloop
  endfacet
  facet normal -0.5877852522924737 -0.8090169943749469 0
    outer loop
      vertex 1.7529159718088967 2.11891141763342 -4
      vertex 1.4735236861922407 2.3219017951305414 -28.5
      vertex 1.7529159718088967 2.11891141763342 -28.5
    endloop
  endfacet
  facet normal -0.9980267284282716 -0.0627905195293131 0
    outer loop
      vertex 2.75 0 -4
      vertex 2.728315428614814 0.3446663923018367 -28.5
      vertex 2.75 0 -28.5
    endloop
  endfacet
  facet normal -0.9822872507286884 -0.1873813145857252 0
    outer loop
      vertex 2.728315428614814 0.3446663923018367 -4
      vertex 2.6636036931037355 0.6838971897033507 -28.5
      vertex 2.728315428614814 0.3446663923018367 -28.5
    endloop
  endfacet
  facet normal -0.9510565162951536 -0.3090169943749472 0
    outer loop
      vertex 2.6636036931037355 0.6838971897033507 -4
      vertex 2.5568853361926913 1.0123425198828644 -28.5
      vertex 2.6636036931037355 0.6838971897033507 -28.5
    endloop
  endfacet
  facet normal -0.8443279255020155 -0.5358267949789959 0
    outer loop
      vertex 2.4098433701206248 1.324822603779717 -4
      vertex 2.2247967345311057 1.616409443804301 -28.5
      vertex 2.4098433701206248 1.324822603779717 -28.5
    endloop
  endfacet
  facet normal -0.7705132427757893 -0.6374239897486899 0
    outer loop
      vertex 2.2247967345311057 1.616409443804301 -4
      vertex 2.0046637254088817 1.882504541303894 -28.5
      vertex 2.2247967345311057 1.616409443804301 -28.5
    endloop
  endfacet
  facet normal -0.9048270524660195 -0.4257792915650727 0
    outer loop
      vertex 2.5568853361926913 1.0123425198828644 -4
      vertex 2.4098433701206248 1.324822603779717 -28.5
      vertex 2.5568853361926913 1.0123425198828644 -28.5
    endloop
  endfacet
  facet normal -0.1253332335643047 -0.9921147013144778 1.5618635287672952e-18
    outer loop
      vertex 0.17267392870561152 2.744573503177747 -4
      vertex 0.1726739287056112 2.744573503177747 -28.5
      vertex 0.5152986151107426 2.701289939503894 -4
    endloop
  endfacet
  facet normal -0.24868988716485532 -0.968583161128631 0
    outer loop
      vertex 0.5152986151107426 2.701289939503894 -4
      vertex 0.5152986151107426 2.701289939503894 -28.5
      vertex 0.8497967345311054 2.615405419811672 -4
    endloop
  endfacet
  facet normal -0.36812455268467703 -0.9297764858882517 0
    outer loop
      vertex 0.8497967345311054 2.615405419811672 -4
      vertex 0.8497967345311054 2.615405419811672 -28.5
      vertex 1.17089305180395 2.4882743942815537 -4
    endloop
  endfacet
  facet normal -0.4817536741017157 -0.8763066800438635 0
    outer loop
      vertex 1.17089305180395 2.4882743942815537 -4
      vertex 1.17089305180395 2.4882743942815537 -28.5
      vertex 1.4735236861922407 2.3219017951305414 -4
    endloop
  endfacet
  facet normal -0.5877852522924737 -0.8090169943749469 0
    outer loop
      vertex 1.4735236861922407 2.3219017951305414 -4
      vertex 1.4735236861922407 2.3219017951305414 -28.5
      vertex 1.7529159718088967 2.11891141763342 -4
    endloop
  endfacet
  facet normal -0.6845471059286876 -0.7289686274214124 0
    outer loop
      vertex 2.0046637254088817 1.882504541303894 -4
      vertex 1.7529159718088967 2.11891141763342 -4
      vertex 1.7529159718088967 2.11891141763342 -28.5
    endloop
  endfacet
  facet normal -0.9980267284282716 -0.0627905195293131 0
    outer loop
      vertex 2.75 0 -4
      vertex 2.728315428614814 0.3446663923018367 -4
      vertex 2.728315428614814 0.3446663923018367 -28.5
    endloop
  endfacet
  facet normal -0.9822872507286884 -0.1873813145857252 0
    outer loop
      vertex 2.728315428614814 0.3446663923018367 -4
      vertex 2.6636036931037355 0.6838971897033507 -4
      vertex 2.6636036931037355 0.6838971897033507 -28.5
    endloop
  endfacet
  facet normal -0.9510565162951536 -0.3090169943749472 0
    outer loop
      vertex 2.6636036931037355 0.6838971897033507 -4
      vertex 2.5568853361926913 1.0123425198828644 -4
      vertex 2.5568853361926913 1.0123425198828644 -28.5
    endloop
  endfacet
  facet normal -0.9048270524660195 -0.4257792915650727 0
    outer loop
      vertex 2.4098433701206248 1.324822603779717 -4
      vertex 2.4098433701206248 1.324822603779717 -28.5
      vertex 2.5568853361926913 1.0123425198828644 -4
    endloop
  endfacet
  facet normal -0.7705132427757893 -0.6374239897486899 0
    outer loop
      vertex 2.0046637254088817 1.882504541303894 -4
      vertex 2.0046637254088817 1.882504541303894 -28.5
      vertex 2.2247967345311057 1.616409443804301 -4
    endloop
  endfacet
  facet normal -0.8443279255020155 -0.5358267949789959 0
    outer loop
      vertex 2.4098433701206248 1.324822603779717 -4
      vertex 2.2247967345311057 1.616409443804301 -4
      vertex 2.2247967345311057 1.616409443804301 -28.5
    endloop
  endfacet
  facet normal 0 0 -1
    outer loop
      vertex -2.5496959589947585 -3.0820529711031575 -28.5
      vertex -2.9158745096856467 -2.738188423714754 -28.5
      vertex -2.4098433701206243 -1.3248226037797173 -28.5
    endloop
  endfacet
  facet normal 0 0 -1
    outer loop
      vertex -2.5496959589947585 -3.0820529711031575 -28.5
      vertex -2.004663725408882 -1.8825045413038934 -28.5
      vertex -2.143307179915987 -3.37731170200806 -28.5
    endloop
  endfacet
  facet normal 0 0 -1
    outer loop
      vertex -2.5496959589947585 -3.0820529711031575 -28.5
      vertex -2.4098433701206243 -1.3248226037797173 -28.5
      vertex -2.2247967345311057 -1.616409443804301 -28.5
    endloop
  endfacet
  facet normal 0 0 -1
    outer loop
      vertex -2.5496959589947585 -3.0820529711031575 -28.5
      vertex -2.2247967345311057 -1.616409443804301 -28.5
      vertex -2.004663725408882 -1.8825045413038934 -28.5
    endloop
  endfacet
  facet normal -0.8443279255020153 -0.5358267949789961 0
    outer loop
      vertex -3.23606797749979 -2.3511410091698925 -28.5
      vertex -3.505226720175454 -1.9270146964068615 -4
      vertex -3.505226720175454 -1.9270146964068615 -28.5
    endloop
  endfacet
  facet normal -0.770513242775789 -0.6374239897486899 0
    outer loop
      vertex -3.23606797749979 -2.3511410091698925 -28.5
      vertex -2.9158745096856467 -2.738188423714754 -28.5
      vertex -3.23606797749979 -2.3511410091698925 -4
    endloop
  endfacet
  facet normal -0.5877852522924727 -0.8090169943749478 0
    outer loop
      vertex -2.5496959589947585 -3.0820529711031575 -28.5
      vertex -2.143307179915987 -3.37731170200806 -28.5
      vertex -2.5496959589947585 -3.0820529711031575 -4
    endloop
  endfacet
  facet normal -0.6845471059286891 -0.7289686274214111 0
    outer loop
      vertex -2.5496959589947585 -3.0820529711031575 -28.5
      vertex -2.9158745096856467 -2.738188423714754 -4
      vertex -2.9158745096856467 -2.738188423714754 -28.5
    endloop
  endfacet
  facet normal 0 0 -1
    outer loop
      vertex -3.719105943553006 -1.4724982107387115 -28.5
      vertex -3.8743326445145243 -0.9947595486594194 -28.5
      vertex -3.719105943553006 1.4724982107387115 -28.5
    endloop
  endfacet
  facet normal 0 0 -1
    outer loop
      vertex -3.8743326445145243 -0.9947595486594194 -28.5
      vertex -3.9684588052579115 -0.5013329342572163 -28.5
      vertex -3.8743326445145243 0.9947595486594194 -28.5
    endloop
  endfacet
  facet normal 0 0 -1
    outer loop
      vertex -3.505226720175454 -1.9270146964068615 -28.5
      vertex -3.719105943553006 -1.4724982107387115 -28.5
      vertex -3.505226720175454 1.9270146964068615 -28.5
    endloop
  endfacet
  facet normal 0 0 -1
    outer loop
      vertex -3.23606797749979 -2.3511410091698925 -28.5
      vertex -3.505226720175454 -1.9270146964068615 -28.5
      vertex -3.23606797749979 2.3511410091698925 -28.5
    endloop
  endfacet
  facet normal 0 0 -1
    outer loop
      vertex -3.23606797749979 -2.3511410091698925 -28.5
      vertex -2.9158745096856467 2.738188423714754 -28.5
      vertex -2.9158745096856467 -2.738188423714754 -28.5
    endloop
  endfacet
  facet normal 0 0 -1
    outer loop
      vertex -2.9158745096856467 -2.738188423714754 -28.5
      vertex -2.5568853361926913 -1.0123425198828642 -28.5
      vertex -2.4098433701206243 -1.3248226037797173 -28.5
    endloop
  endfacet
  facet normal 0 0 -1
    outer loop
      vertex -2.9158745096856467 -2.738188423714754 -28.5
      vertex -2.728315428614814 -0.34466639230183616 -28.5
      vertex -2.6636036931037355 -0.6838971897033508 -28.5
    endloop
  endfacet
  facet normal 0 0 -1
    outer loop
      vertex -2.9158745096856467 -2.738188423714754 -28.5
      vertex -2.75 0 -28.5
      vertex -2.728315428614814 -0.34466639230183616 -28.5
    endloop
  endfacet
  facet normal 0 0 -1
    outer loop
      vertex -2.9158745096856467 -2.738188423714754 -28.5
      vertex -2.6636036931037355 -0.6838971897033508 -28.5
      vertex -2.5568853361926913 -1.0123425198828642 -28.5
    endloop
  endfacet
  facet normal -0.9048270524660192 -0.4257792915650731 0
    outer loop
      vertex -3.505226720175454 -1.9270146964068615 -28.5
      vertex -3.719105943553006 -1.4724982107387115 -4
      vertex -3.719105943553006 -1.4724982107387115 -28.5
    endloop
  endfacet
  facet normal -0.9510565162951536 -0.30901699437494706 0
    outer loop
      vertex -3.719105943553006 -1.4724982107387115 -28.5
      vertex -3.8743326445145243 -0.9947595486594194 -4
      vertex -3.8743326445145243 -0.9947595486594194 -28.5
    endloop
  endfacet
  facet normal -0.9822872507286885 -0.18738131458572496 0
    outer loop
      vertex -3.8743326445145243 -0.9947595486594194 -28.5
      vertex -3.9684588052579115 -0.5013329342572163 -4
      vertex -3.9684588052579115 -0.5013329342572163 -28.5
    endloop
  endfacet
  facet normal -0.9980267284282716 -0.06279051952931311 0
    outer loop
      vertex -3.9684588052579115 -0.5013329342572163 -28.5
      vertex -4 0 -4
      vertex -4 0 -28.5
    endloop
  endfacet
  facet normal 0 0 -1
    outer loop
      vertex -2.143307179915987 -3.37731170200806 -28.5
      vertex -1.4735236861922412 -2.321901795130541 -28.5
      vertex -1.7031171662602897 -3.6193082098640783 -28.5
    endloop
  endfacet
  facet normal 0 0 -1
    outer loop
      vertex -1.7031171662602897 -3.6193082098640783 -28.5
      vertex -1.170893051803949 -2.4882743942815537 -28.5
      vertex -1.2360679774997896 -3.804226065180614 -28.5
    endloop
  endfacet
  facet normal 0 0 -1
    outer loop
      vertex -2.143307179915987 -3.37731170200806 -28.5
      vertex -1.7529159718088965 -2.118911417633421 -28.5
      vertex -1.4735236861922412 -2.321901795130541 -28.5
    endloop
  endfacet
  facet normal 0 0 -1
    outer loop
      vertex -2.143307179915987 -3.37731170200806 -28.5
      vertex -2.004663725408882 -1.8825045413038934 -28.5
      vertex -1.7529159718088965 -2.118911417633421 -28.5
    endloop
  endfacet
  facet normal 0 0 -1
    outer loop
      vertex -1.7031171662602897 -3.6193082098640783 -28.5
      vertex -1.4735236861922412 -2.321901795130541 -28.5
      vertex -1.170893051803949 -2.4882743942815537 -28.5
    endloop
  endfacet
  facet normal 0 0 -1
    outer loop
      vertex -1.2360679774997896 -3.804226065180614 -28.5
      vertex -1.170893051803949 -2.4882743942815537 -28.5
      vertex -0.8497967345311054 -2.615405419811672 -28.5
    endloop
  endfacet
  facet normal 0 0 -1
    outer loop
      vertex -1.2360679774997896 -3.804226065180614 -28.5
      vertex -0.5152986151107433 -2.701289939503894 -28.5
      vertex -0.7495252583428993 -3.9291490029147544 -28.5
    endloop
  endfacet
  facet normal 0 0 -1
    outer loop
      vertex -1.2360679774997896 -3.804226065180614 -28.5
      vertex -0.8497967345311054 -2.615405419811672 -28.5
      vertex -0.5152986151107433 -2.701289939503894 -28.5
    endloop
  endfacet
  facet normal 0 0 -1
    outer loop
      vertex -0.7495252583428993 -3.9291490029147544 -28.5
      vertex -0.17267392870561285 -2.744573503177747 -28.5
      vertex -0.25116207811725505 -3.9921069137130862 -28.5
    endloop
  endfacet
  facet normal 0 0 -1
    outer loop
      vertex -0.7495252583428993 -3.9291490029147544 -28.5
      vertex -0.5152986151107433 -2.701289939503894 -28.5
      vertex -0.17267392870561285 -2.744573503177747 -28.5
    endloop
  endfacet
  facet normal 0 0 -1
    outer loop
      vertex -0.25116207811725505 -3.9921069137130862 -28.5
      vertex -0.17267392870561285 -2.744573503177747 -28.5
      vertex 0.17267392870561285 -2.744573503177747 -28.5
    endloop
  endfacet
  facet normal -0.3681245526846778 -0.9297764858882515 0
    outer loop
      vertex -1.7031171662602897 -3.6193082098640783 -28.5
      vertex -1.2360679774997896 -3.804226065180614 -28.5
      vertex -1.7031171662602897 -3.6193082098640783 -4
    endloop
  endfacet
  facet normal -0.48175367410171505 -0.8763066800438637 0
    outer loop
      vertex -2.143307179915987 -3.37731170200806 -28.5
      vertex -1.7031171662602897 -3.6193082098640783 -28.5
      vertex -2.143307179915987 -3.37731170200806 -4
    endloop
  endfacet
  facet normal -0.248689887164855 -0.968583161128631 0
    outer loop
      vertex -1.2360679774997896 -3.804226065180614 -28.5
      vertex -0.7495252583428993 -3.9291490029147544 -28.5
      vertex -1.2360679774997896 -3.804226065180614 -4
    endloop
  endfacet
  facet normal -0.12533323356430495 -0.9921147013144777 0
    outer loop
      vertex -0.7495252583428993 -3.9291490029147544 -28.5
      vertex -0.25116207811725505 -3.9921069137130862 -28.5
      vertex -0.7495252583428993 -3.9291490029147544 -4
    endloop
  endfacet
  facet normal 0 -1 0
    outer loop
      vertex -0.25116207811725505 -3.9921069137130862 -28.5
      vertex 0.25116207811725505 -3.9921069137130862 -28.5
      vertex -0.25116207811725505 -3.9921069137130862 -4
    endloop
  endfacet
  facet normal -0.770513242775789 -0.6374239897486899 0
    outer loop
      vertex -2.9158745096856467 -2.738188423714754 -28.5
      vertex -2.9158745096856467 -2.738188423714754 -4
      vertex -3.23606797749979 -2.3511410091698925 -4
    endloop
  endfacet
  facet normal -0.8443279255020153 -0.5358267949789961 0
    outer loop
      vertex -3.23606797749979 -2.3511410091698925 -28.5
      vertex -3.23606797749979 -2.3511410091698925 -4
      vertex -3.505226720175454 -1.9270146964068615 -4
    endloop
  endfacet
  facet normal -0.5877852522924727 -0.8090169943749478 0
    outer loop
      vertex -2.143307179915987 -3.37731170200806 -28.5
      vertex -2.143307179915987 -3.37731170200806 -4
      vertex -2.5496959589947585 -3.0820529711031575 -4
    endloop
  endfacet
  facet normal -0.6845471059286891 -0.7289686274214111 0
    outer loop
      vertex -2.5496959589947585 -3.0820529711031575 -28.5
      vertex -2.5496959589947585 -3.0820529711031575 -4
      vertex -2.9158745096856467 -2.738188423714754 -4
    endloop
  endfacet
  facet normal -0.9048270524660192 -0.4257792915650731 0
    outer loop
      vertex -3.505226720175454 -1.9270146964068615 -28.5
      vertex -3.505226720175454 -1.9270146964068615 -4
      vertex -3.719105943553006 -1.4724982107387115 -4
    endloop
  endfacet
  facet normal -0.9510565162951536 -0.30901699437494706 0
    outer loop
      vertex -3.719105943553006 -1.4724982107387115 -28.5
      vertex -3.719105943553006 -1.4724982107387115 -4
      vertex -3.8743326445145243 -0.9947595486594194 -4
    endloop
  endfacet
  facet normal -0.9822872507286885 -0.18738131458572496 0
    outer loop
      vertex -3.8743326445145243 -0.9947595486594194 -28.5
      vertex -3.8743326445145243 -0.9947595486594194 -4
      vertex -3.9684588052579115 -0.5013329342572163 -4
    endloop
  endfacet
  facet normal -0.9980267284282716 -0.06279051952931311 0
    outer loop
      vertex -3.9684588052579115 -0.5013329342572163 -28.5
      vertex -3.9684588052579115 -0.5013329342572163 -4
      vertex -4 0 -4
    endloop
  endfacet
  facet normal -0.48175367410171505 -0.8763066800438637 0
    outer loop
      vertex -1.7031171662602897 -3.6193082098640783 -28.5
      vertex -1.7031171662602897 -3.6193082098640783 -4
      vertex -2.143307179915987 -3.37731170200806 -4
    endloop
  endfacet
  facet normal -0.3681245526846778 -0.9297764858882515 0
    outer loop
      vertex -1.2360679774997896 -3.804226065180614 -28.5
      vertex -1.2360679774997896 -3.804226065180614 -4
      vertex -1.7031171662602897 -3.6193082098640783 -4
    endloop
  endfacet
  facet normal -0.248689887164855 -0.968583161128631 0
    outer loop
      vertex -0.7495252583428993 -3.9291490029147544 -28.5
      vertex -0.7495252583428993 -3.9291490029147544 -4
      vertex -1.2360679774997896 -3.804226065180614 -4
    endloop
  endfacet
  facet normal -0.12533323356430495 -0.9921147013144777 0
    outer loop
      vertex -0.25116207811725505 -3.9921069137130862 -28.5
      vertex -0.25116207811725505 -3.9921069137130862 -4
      vertex -0.7495252583428993 -3.9291490029147544 -4
    endloop
  endfacet
  facet normal 0 0 -1
    outer loop
      vertex -3.9684588052579115 -0.5013329342572163 -28.5
      vertex -4 0 -28.5
      vertex -3.9684588052579115 0.5013329342572163 -28.5
    endloop
  endfacet
  facet normal 0 0 -1
    outer loop
      vertex -3.9684588052579115 -0.5013329342572163 -28.5
      vertex -3.9684588052579115 0.5013329342572163 -28.5
      vertex -3.8743326445145243 0.9947595486594194 -28.5
    endloop
  endfacet
  facet normal 0 0 -1
    outer loop
      vertex -3.8743326445145243 -0.9947595486594194 -28.5
      vertex -3.8743326445145243 0.9947595486594194 -28.5
      vertex -3.719105943553006 1.4724982107387115 -28.5
    endloop
  endfacet
  facet normal 0 0 -1
    outer loop
      vertex -3.719105943553006 -1.4724982107387115 -28.5
      vertex -3.719105943553006 1.4724982107387115 -28.5
      vertex -3.505226720175454 1.9270146964068615 -28.5
    endloop
  endfacet
  facet normal 0 0 -1
    outer loop
      vertex -3.505226720175454 -1.9270146964068615 -28.5
      vertex -3.505226720175454 1.9270146964068615 -28.5
      vertex -3.23606797749979 2.3511410091698925 -28.5
    endloop
  endfacet
  facet normal 0 0 -1
    outer loop
      vertex -3.23606797749979 -2.3511410091698925 -28.5
      vertex -3.23606797749979 2.3511410091698925 -28.5
      vertex -2.9158745096856467 2.738188423714754 -28.5
    endloop
  endfacet
  facet normal 0 0 -1
    outer loop
      vertex -2.9158745096856467 -2.738188423714754 -28.5
      vertex -2.9158745096856467 2.738188423714754 -28.5
      vertex -2.75 0 -28.5
    endloop
  endfacet
  facet normal 0 0 -1
    outer loop
      vertex -2.9158745096856467 2.738188423714754 -28.5
      vertex -2.728315428614814 0.34466639230183616 -28.5
      vertex -2.75 0 -28.5
    endloop
  endfacet
  facet normal 0 0 -1
    outer loop
      vertex -2.5496959589947585 3.0820529711031575 -28.5
      vertex -2.6636036931037355 0.6838971897033508 -28.5
      vertex -2.728315428614814 0.34466639230183616 -28.5
    endloop
  endfacet
  facet normal 0 0 -1
    outer loop
      vertex -2.5496959589947585 3.0820529711031575 -28.5
      vertex -2.5568853361926913 1.0123425198828642 -28.5
      vertex -2.6636036931037355 0.6838971897033508 -28.5
    endloop
  endfacet
  facet normal 0 0 -1
    outer loop
      vertex -2.5496959589947585 3.0820529711031575 -28.5
      vertex -2.4098433701206243 1.3248226037797173 -28.5
      vertex -2.5568853361926913 1.0123425198828642 -28.5
    endloop
  endfacet
  facet normal -0.9980267284282716 0.06279051952931311 0
    outer loop
      vertex -4 0 -28.5
      vertex -3.9684588052579115 0.5013329342572163 -4
      vertex -3.9684588052579115 0.5013329342572163 -28.5
    endloop
  endfacet
  facet normal -0.9822872507286885 0.18738131458572496 0
    outer loop
      vertex -3.9684588052579115 0.5013329342572163 -28.5
      vertex -3.8743326445145243 0.9947595486594194 -4
      vertex -3.8743326445145243 0.9947595486594194 -28.5
    endloop
  endfacet
  facet normal -0.9510565162951536 0.30901699437494706 0
    outer loop
      vertex -3.8743326445145243 0.9947595486594194 -28.5
      vertex -3.719105943553006 1.4724982107387115 -4
      vertex -3.719105943553006 1.4724982107387115 -28.5
    endloop
  endfacet
  facet normal -0.9048270524660192 0.4257792915650731 0
    outer loop
      vertex -3.719105943553006 1.4724982107387115 -28.5
      vertex -3.505226720175454 1.9270146964068615 -4
      vertex -3.505226720175454 1.9270146964068615 -28.5
    endloop
  endfacet
  facet normal 0 0 -1
    outer loop
      vertex -2.9158745096856467 2.738188423714754 -28.5
      vertex -2.5496959589947585 3.0820529711031575 -28.5
      vertex -2.728315428614814 0.34466639230183616 -28.5
    endloop
  endfacet
  facet normal 0 0 -1
    outer loop
      vertex -2.143307179915987 3.37731170200806 -28.5
      vertex -2.2247967345311057 1.616409443804301 -28.5
      vertex -2.4098433701206243 1.3248226037797173 -28.5
    endloop
  endfacet
  facet normal 0 0 -1
    outer loop
      vertex -2.143307179915987 3.37731170200806 -28.5
      vertex -2.004663725408882 1.8825045413038934 -28.5
      vertex -2.2247967345311057 1.616409443804301 -28.5
    endloop
  endfacet
  facet normal 0 0 -1
    outer loop
      vertex -2.5496959589947585 3.0820529711031575 -28.5
      vertex -2.143307179915987 3.37731170200806 -28.5
      vertex -2.4098433701206243 1.3248226037797173 -28.5
    endloop
  endfacet
  facet normal -0.8443279255020153 0.5358267949789961 0
    outer loop
      vertex -3.505226720175454 1.9270146964068615 -28.5
      vertex -3.23606797749979 2.3511410091698925 -4
      vertex -3.23606797749979 2.3511410091698925 -28.5
    endloop
  endfacet
  facet normal -0.770513242775789 0.6374239897486899 0
    outer loop
      vertex -3.23606797749979 2.3511410091698925 -28.5
      vertex -2.9158745096856467 2.738188423714754 -4
      vertex -2.9158745096856467 2.738188423714754 -28.5
    endloop
  endfacet
  facet normal -0.6845471059286891 0.7289686274214111 0
    outer loop
      vertex -2.9158745096856467 2.738188423714754 -28.5
      vertex -2.5496959589947585 3.0820529711031575 -4
      vertex -2.5496959589947585 3.0820529711031575 -28.5
    endloop
  endfacet
  facet normal -0.5877852522924727 0.8090169943749478 0
    outer loop
      vertex -2.5496959589947585 3.0820529711031575 -28.5
      vertex -2.143307179915987 3.37731170200806 -4
      vertex -2.143307179915987 3.37731170200806 -28.5
    endloop
  endfacet
  facet normal 0 0 -1
    outer loop
      vertex -1.7031171662602909 3.619308209864078 -28.5
      vertex -1.7529159718088965 2.118911417633421 -28.5
      vertex -2.004663725408882 1.8825045413038934 -28.5
    endloop
  endfacet
  facet normal 0 0 -1
    outer loop
      vertex -2.143307179915987 3.37731170200806 -28.5
      vertex -1.7031171662602909 3.619308209864078 -28.5
      vertex -2.004663725408882 1.8825045413038934 -28.5
    endloop
  endfacet
  facet normal 0 0 -1
    outer loop
      vertex -1.7031171662602909 3.619308209864078 -28.5
      vertex -1.4735236861922412 2.321901795130541 -28.5
      vertex -1.7529159718088965 2.118911417633421 -28.5
    endloop
  endfacet
  facet normal 0 0 -1
    outer loop
      vertex -1.2360679774997896 3.804226065180614 -28.5
      vertex -1.17089305180395 2.4882743942815537 -28.5
      vertex -1.4735236861922412 2.321901795130541 -28.5
    endloop
  endfacet
  facet normal 0 0 -1
    outer loop
      vertex -1.2360679774997896 3.804226065180614 -28.5
      vertex -0.8497967345311054 2.615405419811672 -28.5
      vertex -1.17089305180395 2.4882743942815537 -28.5
    endloop
  endfacet
  facet normal 0 0 -1
    outer loop
      vertex -1.7031171662602909 3.619308209864078 -28.5
      vertex -1.2360679774997896 3.804226065180614 -28.5
      vertex -1.4735236861922412 2.321901795130541 -28.5
    endloop
  endfacet
  facet normal 0 0 -1
    outer loop
      vertex -1.2360679774997896 3.804226065180614 -28.5
      vertex -0.7495252583428983 3.929149002914755 -28.5
      vertex -0.8497967345311054 2.615405419811672 -28.5
    endloop
  endfacet
  facet normal 0 0 -1
    outer loop
      vertex -0.7495252583428983 3.929149002914755 -28.5
      vertex -0.5152986151107426 2.701289939503894 -28.5
      vertex -0.8497967345311054 2.615405419811672 -28.5
    endloop
  endfacet
  facet normal 0 0 -1
    outer loop
      vertex -0.7495252583428983 3.929149002914755 -28.5
      vertex -0.2511620781172531 3.9921069137130862 -28.5
      vertex -0.5152986151107426 2.701289939503894 -28.5
    endloop
  endfacet
  facet normal 0 0 -1
    outer loop
      vertex -0.2511620781172531 3.9921069137130862 -28.5
      vertex -0.17267392870561152 2.744573503177747 -28.5
      vertex -0.5152986151107426 2.701289939503894 -28.5
    endloop
  endfacet
  facet normal 0 0 -1
    outer loop
      vertex -0.2511620781172531 3.9921069137130862 -28.5
      vertex 0.2511620781172531 3.9921069137130862 -28.5
      vertex -0.17267392870561152 2.744573503177747 -28.5
    endloop
  endfacet
  facet normal -0.4817536741017153 0.8763066800438635 0
    outer loop
      vertex -2.143307179915987 3.37731170200806 -28.5
      vertex -1.7031171662602909 3.619308209864078 -4
      vertex -1.7031171662602909 3.619308209864078 -28.5
    endloop
  endfacet
  facet normal -0.3681245526846778 0.9297764858882515 0
    outer loop
      vertex -1.7031171662602909 3.619308209864078 -28.5
      vertex -1.2360679774997896 3.804226065180614 -4
      vertex -1.2360679774997896 3.804226065180614 -28.5
    endloop
  endfacet
  facet normal -0.24868988716485535 0.9685831611286311 0
    outer loop
      vertex -1.2360679774997896 3.804226065180614 -28.5
      vertex -0.7495252583428983 3.929149002914755 -4
      vertex -0.7495252583428983 3.929149002914755 -28.5
    endloop
  endfacet
  facet normal -0.12533323356430387 0.992114701314478 0
    outer loop
      vertex -0.7495252583428983 3.929149002914755 -28.5
      vertex -0.2511620781172531 3.9921069137130862 -4
      vertex -0.2511620781172531 3.9921069137130862 -28.5
    endloop
  endfacet
  facet normal -0.9980267284282716 0.06279051952931311 0
    outer loop
      vertex -4 0 -28.5
      vertex -4 0 -4
      vertex -3.9684588052579115 0.5013329342572163 -4
    endloop
  endfacet
  facet normal -0.9822872507286885 0.18738131458572496 0
    outer loop
      vertex -3.9684588052579115 0.5013329342572163 -28.5
      vertex -3.9684588052579115 0.5013329342572163 -4
      vertex -3.8743326445145243 0.9947595486594194 -4
    endloop
  endfacet
  facet normal -0.9510565162951536 0.30901699437494706 0
    outer loop
      vertex -3.8743326445145243 0.9947595486594194 -28.5
      vertex -3.8743326445145243 0.9947595486594194 -4
      vertex -3.719105943553006 1.4724982107387115 -4
    endloop
  endfacet
  facet normal -0.9048270524660192 0.4257792915650731 0
    outer loop
      vertex -3.719105943553006 1.4724982107387115 -28.5
      vertex -3.719105943553006 1.4724982107387115 -4
      vertex -3.505226720175454 1.9270146964068615 -4
    endloop
  endfacet
  facet normal -0.8443279255020153 0.5358267949789961 0
    outer loop
      vertex -3.505226720175454 1.9270146964068615 -28.5
      vertex -3.505226720175454 1.9270146964068615 -4
      vertex -3.23606797749979 2.3511410091698925 -4
    endloop
  endfacet
  facet normal -0.770513242775789 0.6374239897486899 0
    outer loop
      vertex -3.23606797749979 2.3511410091698925 -28.5
      vertex -3.23606797749979 2.3511410091698925 -4
      vertex -2.9158745096856467 2.738188423714754 -4
    endloop
  endfacet
  facet normal -0.6845471059286891 0.7289686274214111 0
    outer loop
      vertex -2.9158745096856467 2.738188423714754 -28.5
      vertex -2.9158745096856467 2.738188423714754 -4
      vertex -2.5496959589947585 3.0820529711031575 -4
    endloop
  endfacet
  facet normal -0.5877852522924727 0.8090169943749478 0
    outer loop
      vertex -2.5496959589947585 3.0820529711031575 -28.5
      vertex -2.5496959589947585 3.0820529711031575 -4
      vertex -2.143307179915987 3.37731170200806 -4
    endloop
  endfacet
  facet normal -0.4817536741017153 0.8763066800438635 0
    outer loop
      vertex -2.143307179915987 3.37731170200806 -28.5
      vertex -2.143307179915987 3.37731170200806 -4
      vertex -1.7031171662602909 3.619308209864078 -4
    endloop
  endfacet
  facet normal -0.3681245526846778 0.9297764858882515 0
    outer loop
      vertex -1.7031171662602909 3.619308209864078 -28.5
      vertex -1.7031171662602909 3.619308209864078 -4
      vertex -1.2360679774997896 3.804226065180614 -4
    endloop
  endfacet
  facet normal -0.24868988716485535 0.9685831611286311 0
    outer loop
      vertex -1.2360679774997896 3.804226065180614 -28.5
      vertex -1.2360679774997896 3.804226065180614 -4
      vertex -0.7495252583428983 3.929149002914755 -4
    endloop
  endfacet
  facet normal -0.12533323356430387 0.992114701314478 0
    outer loop
      vertex -0.7495252583428983 3.929149002914755 -28.5
      vertex -0.7495252583428983 3.929149002914755 -4
      vertex -0.2511620781172531 3.9921069137130862 -4
    endloop
  endfacet
  facet normal 0 1 0
    outer loop
      vertex -0.2511620781172531 3.9921069137130862 -28.5
      vertex -0.2511620781172531 3.9921069137130862 -4
      vertex 0.2511620781172531 3.9921069137130862 -4
    endloop
  endfacet
  facet normal 0 0 -1
    outer loop
      vertex -0.25116207811725505 -3.9921069137130862 -28.5
      vertex 0.17267392870561285 -2.744573503177747 -28.5
      vertex 0.25116207811725505 -3.9921069137130862 -28.5
    endloop
  endfacet
  facet normal 0 0 -1
    outer loop
      vertex 0.25116207811725505 -3.9921069137130862 -28.5
      vertex 0.17267392870561285 -2.744573503177747 -28.5
      vertex 0.5152986151107433 -2.701289939503894 -28.5
    endloop
  endfacet
  facet normal 0 0 -1
    outer loop
      vertex 0.25116207811725505 -3.9921069137130862 -28.5
      vertex 0.5152986151107433 -2.701289939503894 -28.5
      vertex 0.7495252583428993 -3.9291490029147544 -28.5
    endloop
  endfacet
  facet normal 0 0 -1
    outer loop
      vertex 0.7495252583428993 -3.9291490029147544 -28.5
      vertex 0.5152986151107433 -2.701289939503894 -28.5
      vertex 0.8497967345311054 -2.615405419811672 -28.5
    endloop
  endfacet
  facet normal 0 0 -1
    outer loop
      vertex 0.7495252583428993 -3.9291490029147544 -28.5
      vertex 0.8497967345311054 -2.615405419811672 -28.5
      vertex 1.2360679774997896 -3.804226065180614 -28.5
    endloop
  endfacet
  facet normal 0 0 -1
    outer loop
      vertex 1.2360679774997896 -3.804226065180614 -28.5
      vertex 1.4735236861922396 -2.3219017951305423 -28.5
      vertex 1.7031171662602897 -3.6193082098640783 -28.5
    endloop
  endfacet
  facet normal 0 0 -1
    outer loop
      vertex 1.2360679774997896 -3.804226065180614 -28.5
      vertex 0.8497967345311054 -2.615405419811672 -28.5
      vertex 1.170893051803949 -2.4882743942815537 -28.5
    endloop
  endfacet
  facet normal 0 0 -1
    outer loop
      vertex 1.2360679774997896 -3.804226065180614 -28.5
      vertex 1.170893051803949 -2.4882743942815537 -28.5
      vertex 1.4735236861922396 -2.3219017951305423 -28.5
    endloop
  endfacet
  facet normal 0 0 -1
    outer loop
      vertex 1.7031171662602897 -3.6193082098640783 -28.5
      vertex 1.4735236861922396 -2.3219017951305423 -28.5
      vertex 1.7529159718088974 -2.11891141763342 -28.5
    endloop
  endfacet
  facet normal 0 0 -1
    outer loop
      vertex 1.7031171662602897 -3.6193082098640783 -28.5
      vertex 2.004663725408882 -1.8825045413038934 -28.5
      vertex 2.143307179915985 -3.377311702008061 -28.5
    endloop
  endfacet
  facet normal 0 0 -1
    outer loop
      vertex 1.7031171662602897 -3.6193082098640783 -28.5
      vertex 1.7529159718088974 -2.11891141763342 -28.5
      vertex 2.004663725408882 -1.8825045413038934 -28.5
    endloop
  endfacet
  facet normal 0.12533323356430495 -0.9921147013144777 0
    outer loop
      vertex 0.25116207811725505 -3.9921069137130862 -28.5
      vertex 0.7495252583428993 -3.9291490029147544 -28.5
      vertex 0.25116207811725505 -3.9921069137130862 -4
    endloop
  endfacet
  facet normal 0.248689887164855 -0.968583161128631 0
    outer loop
      vertex 0.7495252583428993 -3.9291490029147544 -28.5
      vertex 1.2360679774997896 -3.804226065180614 -28.5
      vertex 0.7495252583428993 -3.9291490029147544 -4
    endloop
  endfacet
  facet normal 0.3681245526846778 -0.9297764858882515 0
    outer loop
      vertex 1.2360679774997896 -3.804226065180614 -28.5
      vertex 1.7031171662602897 -3.6193082098640783 -28.5
      vertex 1.2360679774997896 -3.804226065180614 -4
    endloop
  endfacet
  facet normal 0.4817536741017149 -0.8763066800438637 0
    outer loop
      vertex 1.7031171662602897 -3.6193082098640783 -28.5
      vertex 2.143307179915985 -3.377311702008061 -28.5
      vertex 1.7031171662602897 -3.6193082098640783 -4
    endloop
  endfacet
  facet normal 0 0 -1
    outer loop
      vertex 2.143307179915985 -3.377311702008061 -28.5
      vertex 2.4098433701206243 -1.3248226037797173 -28.5
      vertex 2.54969595899476 -3.082052971103156 -28.5
    endloop
  endfacet
  facet normal 0 0 -1
    outer loop
      vertex 2.143307179915985 -3.377311702008061 -28.5
      vertex 2.004663725408882 -1.8825045413038934 -28.5
      vertex 2.2247967345311057 -1.616409443804301 -28.5
    endloop
  endfacet
  facet normal 0 0 -1
    outer loop
      vertex 2.143307179915985 -3.377311702008061 -28.5
      vertex 2.2247967345311057 -1.616409443804301 -28.5
      vertex 2.4098433701206243 -1.3248226037797173 -28.5
    endloop
  endfacet
  facet normal 0 0 -1
    outer loop
      vertex 2.54969595899476 -3.082052971103156 -28.5
      vertex 2.728315428614814 -0.34466639230183616 -28.5
      vertex 2.9158745096856467 -2.738188423714754 -28.5
    endloop
  endfacet
  facet normal 0.5877852522924728 -0.8090169943749476 0
    outer loop
      vertex 2.143307179915985 -3.377311702008061 -28.5
      vertex 2.54969595899476 -3.082052971103156 -28.5
      vertex 2.143307179915985 -3.377311702008061 -4
    endloop
  endfacet
  facet normal 0.6845471059286891 -0.7289686274214111 0
    outer loop
      vertex 2.54969595899476 -3.082052971103156 -28.5
      vertex 2.9158745096856467 -2.738188423714754 -28.5
      vertex 2.54969595899476 -3.082052971103156 -4
    endloop
  endfacet
  facet normal 0.770513242775789 -0.6374239897486899 0
    outer loop
      vertex 2.9158745096856467 -2.738188423714754 -28.5
      vertex 3.23606797749979 -2.3511410091698925 -28.5
      vertex 2.9158745096856467 -2.738188423714754 -4
    endloop
  endfacet
  facet normal 0.8443279255020153 -0.5358267949789961 0
    outer loop
      vertex 3.23606797749979 -2.3511410091698925 -28.5
      vertex 3.505226720175454 -1.9270146964068615 -28.5
      vertex 3.23606797749979 -2.3511410091698925 -4
    endloop
  endfacet
  facet normal 0 0 -1
    outer loop
      vertex 2.54969595899476 -3.082052971103156 -28.5
      vertex 2.4098433701206243 -1.3248226037797173 -28.5
      vertex 2.556885336192691 -1.0123425198828655 -28.5
    endloop
  endfacet
  facet normal 0 0 -1
    outer loop
      vertex 2.54969595899476 -3.082052971103156 -28.5
      vertex 2.556885336192691 -1.0123425198828655 -28.5
      vertex 2.663603693103736 -0.6838971897033497 -28.5
    endloop
  endfacet
  facet normal 0 0 -1
    outer loop
      vertex 2.54969595899476 -3.082052971103156 -28.5
      vertex 2.663603693103736 -0.6838971897033497 -28.5
      vertex 2.728315428614814 -0.34466639230183616 -28.5
    endloop
  endfacet
  facet normal 0 0 -1
    outer loop
      vertex 2.9158745096856467 -2.738188423714754 -28.5
      vertex 2.728315428614814 -0.34466639230183616 -28.5
      vertex 2.75 0 -28.5
    endloop
  endfacet
  facet normal 0 0 -1
    outer loop
      vertex 2.9158745096856467 -2.738188423714754 -28.5
      vertex 3.23606797749979 2.3511410091698925 -28.5
      vertex 3.23606797749979 -2.3511410091698925 -28.5
    endloop
  endfacet
  facet normal 0 0 -1
    outer loop
      vertex 3.23606797749979 -2.3511410091698925 -28.5
      vertex 3.5052267201754543 1.9270146964068613 -28.5
      vertex 3.505226720175454 -1.9270146964068615 -28.5
    endloop
  endfacet
  facet normal 0 0 -1
    outer loop
      vertex 3.505226720175454 -1.9270146964068615 -28.5
      vertex 3.7191059435530054 1.472498210738712 -28.5
      vertex 3.719105943553005 -1.4724982107387135 -28.5
    endloop
  endfacet
  facet normal 0 0 -1
    outer loop
      vertex 3.719105943553005 -1.4724982107387135 -28.5
      vertex 3.8743326445145243 0.9947595486594192 -28.5
      vertex 3.8743326445145247 -0.9947595486594177 -28.5
    endloop
  endfacet
  facet normal 0 0 -1
    outer loop
      vertex 3.8743326445145247 -0.9947595486594177 -28.5
      vertex 3.9684588052579115 0.501332934257217 -28.5
      vertex 3.9684588052579115 -0.5013329342572163 -28.5
    endloop
  endfacet
  facet normal 0.9048270524660192 -0.42577929156507327 0
    outer loop
      vertex 3.505226720175454 -1.9270146964068615 -28.5
      vertex 3.719105943553005 -1.4724982107387135 -28.5
      vertex 3.505226720175454 -1.9270146964068615 -4
    endloop
  endfacet
  facet normal 0.9510565162951536 -0.30901699437494734 0
    outer loop
      vertex 3.719105943553005 -1.4724982107387135 -28.5
      vertex 3.8743326445145247 -0.9947595486594177 -28.5
      vertex 3.719105943553005 -1.4724982107387135 -4
    endloop
  endfacet
  facet normal 0.9822872507286887 -0.1873813145857247 0
    outer loop
      vertex 3.8743326445145247 -0.9947595486594177 -28.5
      vertex 3.9684588052579115 -0.5013329342572163 -28.5
      vertex 3.8743326445145247 -0.9947595486594177 -4
    endloop
  endfacet
  facet normal 0.9980267284282716 -0.06279051952931311 0
    outer loop
      vertex 3.9684588052579115 -0.5013329342572163 -28.5
      vertex 4 0 -28.5
      vertex 3.9684588052579115 -0.5013329342572163 -4
    endloop
  endfacet
  facet normal 0 -1 0
    outer loop
      vertex 0.25116207811725505 -3.9921069137130862 -28.5
      vertex 0.25116207811725505 -3.9921069137130862 -4
      vertex -0.25116207811725505 -3.9921069137130862 -4
    endloop
  endfacet
  facet normal 0.12533323356430495 -0.9921147013144777 0
    outer loop
      vertex 0.7495252583428993 -3.9291490029147544 -28.5
      vertex 0.7495252583428993 -3.9291490029147544 -4
      vertex 0.25116207811725505 -3.9921069137130862 -4
    endloop
  endfacet
  facet normal 0.248689887164855 -0.968583161128631 0
    outer loop
      vertex 1.2360679774997896 -3.804226065180614 -28.5
      vertex 1.2360679774997896 -3.804226065180614 -4
      vertex 0.7495252583428993 -3.9291490029147544 -4
    endloop
  endfacet
  facet normal 0.3681245526846778 -0.9297764858882515 0
    outer loop
      vertex 1.7031171662602897 -3.6193082098640783 -28.5
      vertex 1.7031171662602897 -3.6193082098640783 -4
      vertex 1.2360679774997896 -3.804226065180614 -4
    endloop
  endfacet
  facet normal 0.4817536741017149 -0.8763066800438637 0
    outer loop
      vertex 2.143307179915985 -3.377311702008061 -28.5
      vertex 2.143307179915985 -3.377311702008061 -4
      vertex 1.7031171662602897 -3.6193082098640783 -4
    endloop
  endfacet
  facet normal 0.5877852522924728 -0.8090169943749476 0
    outer loop
      vertex 2.54969595899476 -3.082052971103156 -28.5
      vertex 2.54969595899476 -3.082052971103156 -4
      vertex 2.143307179915985 -3.377311702008061 -4
    endloop
  endfacet
  facet normal 0.6845471059286891 -0.7289686274214111 0
    outer loop
      vertex 2.9158745096856467 -2.738188423714754 -28.5
      vertex 2.9158745096856467 -2.738188423714754 -4
      vertex 2.54969595899476 -3.082052971103156 -4
    endloop
  endfacet
  facet normal 0.770513242775789 -0.6374239897486899 0
    outer loop
      vertex 3.23606797749979 -2.3511410091698925 -28.5
      vertex 3.23606797749979 -2.3511410091698925 -4
      vertex 2.9158745096856467 -2.738188423714754 -4
    endloop
  endfacet
  facet normal 0.8443279255020153 -0.5358267949789961 0
    outer loop
      vertex 3.505226720175454 -1.9270146964068615 -28.5
      vertex 3.505226720175454 -1.9270146964068615 -4
      vertex 3.23606797749979 -2.3511410091698925 -4
    endloop
  endfacet
  facet normal 0.9048270524660192 -0.42577929156507327 0
    outer loop
      vertex 3.719105943553005 -1.4724982107387135 -28.5
      vertex 3.719105943553005 -1.4724982107387135 -4
      vertex 3.505226720175454 -1.9270146964068615 -4
    endloop
  endfacet
  facet normal 0.9510565162951536 -0.30901699437494734 0
    outer loop
      vertex 3.8743326445145247 -0.9947595486594177 -28.5
      vertex 3.8743326445145247 -0.9947595486594177 -4
      vertex 3.719105943553005 -1.4724982107387135 -4
    endloop
  endfacet
  facet normal 0.9822872507286887 -0.1873813145857247 0
    outer loop
      vertex 3.9684588052579115 -0.5013329342572163 -28.5
      vertex 3.9684588052579115 -0.5013329342572163 -4
      vertex 3.8743326445145247 -0.9947595486594177 -4
    endloop
  endfacet
  facet normal 0.9980267284282716 -0.06279051952931311 0
    outer loop
      vertex 4 0 -28.5
      vertex 4 0 -4
      vertex 3.9684588052579115 -0.5013329342572163 -4
    endloop
  endfacet
  facet normal 0 0 -1
    outer loop
      vertex 0.2511620781172531 3.9921069137130862 -28.5
      vertex 0.1726739287056112 2.744573503177747 -28.5
      vertex -0.17267392870561152 2.744573503177747 -28.5
    endloop
  endfacet
  facet normal 0 0 -1
    outer loop
      vertex 0.7495252583428983 3.929149002914755 -28.5
      vertex 0.5152986151107426 2.701289939503894 -28.5
      vertex 0.1726739287056112 2.744573503177747 -28.5
    endloop
  endfacet
  facet normal 0 0 -1
    outer loop
      vertex 0.2511620781172531 3.9921069137130862 -28.5
      vertex 0.7495252583428983 3.929149002914755 -28.5
      vertex 0.1726739287056112 2.744573503177747 -28.5
    endloop
  endfacet
  facet normal 0 0 -1
    outer loop
      vertex 1.2360679774997896 3.804226065180614 -28.5
      vertex 0.8497967345311054 2.615405419811672 -28.5
      vertex 0.5152986151107426 2.701289939503894 -28.5
    endloop
  endfacet
  facet normal 0 0 -1
    outer loop
      vertex 0.7495252583428983 3.929149002914755 -28.5
      vertex 1.2360679774997896 3.804226065180614 -28.5
      vertex 0.5152986151107426 2.701289939503894 -28.5
    endloop
  endfacet
  facet normal 0 0 -1
    outer loop
      vertex 1.2360679774997896 3.804226065180614 -28.5
      vertex 1.17089305180395 2.4882743942815537 -28.5
      vertex 0.8497967345311054 2.615405419811672 -28.5
    endloop
  endfacet
  facet normal 0 0 -1
    outer loop
      vertex 1.7031171662602909 3.619308209864078 -28.5
      vertex 1.4735236861922407 2.3219017951305414 -28.5
      vertex 1.17089305180395 2.4882743942815537 -28.5
    endloop
  endfacet
  facet normal 0 0 -1
    outer loop
      vertex 2.1433071799159866 3.3773117020080603 -28.5
      vertex 2.0046637254088817 1.882504541303894 -28.5
      vertex 1.7529159718088967 2.11891141763342 -28.5
    endloop
  endfacet
  facet normal 0 0 -1
    outer loop
      vertex 2.1433071799159866 3.3773117020080603 -28.5
      vertex 1.7529159718088967 2.11891141763342 -28.5
      vertex 1.4735236861922407 2.3219017951305414 -28.5
    endloop
  endfacet
  facet normal 0 0 -1
    outer loop
      vertex 1.2360679774997896 3.804226065180614 -28.5
      vertex 1.7031171662602909 3.619308209864078 -28.5
      vertex 1.17089305180395 2.4882743942815537 -28.5
    endloop
  endfacet
  facet normal 0 0 -1
    outer loop
      vertex 1.7031171662602909 3.619308209864078 -28.5
      vertex 2.1433071799159866 3.3773117020080603 -28.5
      vertex 1.4735236861922407 2.3219017951305414 -28.5
    endloop
  endfacet
  facet normal 0 1 0
    outer loop
      vertex -0.2511620781172531 3.9921069137130862 -28.5
      vertex 0.2511620781172531 3.9921069137130862 -4
      vertex 0.2511620781172531 3.9921069137130862 -28.5
    endloop
  endfacet
  facet normal 0.12533323356430387 0.992114701314478 0
    outer loop
      vertex 0.2511620781172531 3.9921069137130862 -28.5
      vertex 0.7495252583428983 3.929149002914755 -4
      vertex 0.7495252583428983 3.929149002914755 -28.5
    endloop
  endfacet
  facet normal 0.24868988716485535 0.9685831611286311 0
    outer loop
      vertex 0.7495252583428983 3.929149002914755 -28.5
      vertex 1.2360679774997896 3.804226065180614 -4
      vertex 1.2360679774997896 3.804226065180614 -28.5
    endloop
  endfacet
  facet normal 0.48175367410171505 0.8763066800438638 0
    outer loop
      vertex 1.7031171662602909 3.619308209864078 -28.5
      vertex 2.1433071799159866 3.3773117020080603 -4
      vertex 2.1433071799159866 3.3773117020080603 -28.5
    endloop
  endfacet
  facet normal 0.3681245526846778 0.9297764858882515 0
    outer loop
      vertex 1.2360679774997896 3.804226065180614 -28.5
      vertex 1.7031171662602909 3.619308209864078 -4
      vertex 1.7031171662602909 3.619308209864078 -28.5
    endloop
  endfacet
  facet normal 0 0 -1
    outer loop
      vertex 2.9158745096856467 -2.738188423714754 -28.5
      vertex 2.75 0 -28.5
      vertex 2.915874509685646 2.738188423714755 -28.5
    endloop
  endfacet
  facet normal 0 0 -1
    outer loop
      vertex 2.915874509685646 2.738188423714755 -28.5
      vertex 2.6636036931037355 0.6838971897033507 -28.5
      vertex 2.5568853361926913 1.0123425198828644 -28.5
    endloop
  endfacet
  facet normal 0 0 -1
    outer loop
      vertex 2.915874509685646 2.738188423714755 -28.5
      vertex 2.75 0 -28.5
      vertex 2.728315428614814 0.3446663923018367 -28.5
    endloop
  endfacet
  facet normal 0 0 -1
    outer loop
      vertex 2.915874509685646 2.738188423714755 -28.5
      vertex 2.728315428614814 0.3446663923018367 -28.5
      vertex 2.6636036931037355 0.6838971897033507 -28.5
    endloop
  endfacet
  facet normal 0 0 -1
    outer loop
      vertex 2.915874509685646 2.738188423714755 -28.5
      vertex 2.5568853361926913 1.0123425198828644 -28.5
      vertex 2.4098433701206248 1.324822603779717 -28.5
    endloop
  endfacet
  facet normal 0 0 -1
    outer loop
      vertex 2.9158745096856467 -2.738188423714754 -28.5
      vertex 2.915874509685646 2.738188423714755 -28.5
      vertex 3.23606797749979 2.3511410091698925 -28.5
    endloop
  endfacet
  facet normal 0 0 -1
    outer loop
      vertex 3.23606797749979 -2.3511410091698925 -28.5
      vertex 3.23606797749979 2.3511410091698925 -28.5
      vertex 3.5052267201754543 1.9270146964068613 -28.5
    endloop
  endfacet
  facet normal 0 0 -1
    outer loop
      vertex 3.505226720175454 -1.9270146964068615 -28.5
      vertex 3.5052267201754543 1.9270146964068613 -28.5
      vertex 3.7191059435530054 1.472498210738712 -28.5
    endloop
  endfacet
  facet normal 0 0 -1
    outer loop
      vertex 3.9684588052579115 -0.5013329342572163 -28.5
      vertex 3.9684588052579115 0.501332934257217 -28.5
      vertex 4 0 -28.5
    endloop
  endfacet
  facet normal 0 0 -1
    outer loop
      vertex 3.8743326445145247 -0.9947595486594177 -28.5
      vertex 3.8743326445145243 0.9947595486594192 -28.5
      vertex 3.9684588052579115 0.501332934257217 -28.5
    endloop
  endfacet
  facet normal 0 0 -1
    outer loop
      vertex 3.719105943553005 -1.4724982107387135 -28.5
      vertex 3.7191059435530054 1.472498210738712 -28.5
      vertex 3.8743326445145243 0.9947595486594192 -28.5
    endloop
  endfacet
  facet normal 0.9980267284282716 0.06279051952931301 0
    outer loop
      vertex 4 0 -28.5
      vertex 3.9684588052579115 0.501332934257217 -28.5
      vertex 4 0 -4
    endloop
  endfacet
  facet normal 0.9822872507286885 0.18738131458572532 0
    outer loop
      vertex 3.9684588052579115 0.501332934257217 -28.5
      vertex 3.8743326445145243 0.9947595486594192 -28.5
      vertex 3.9684588052579115 0.501332934257217 -4
    endloop
  endfacet
  facet normal 0.9510565162951536 0.3090169943749475 0
    outer loop
      vertex 3.8743326445145243 0.9947595486594192 -28.5
      vertex 3.7191059435530054 1.472498210738712 -28.5
      vertex 3.8743326445145243 0.9947595486594192 -4
    endloop
  endfacet
  facet normal 0.9048270524660198 0.4257792915650722 0
    outer loop
      vertex 3.7191059435530054 1.472498210738712 -28.5
      vertex 3.5052267201754543 1.9270146964068613 -28.5
      vertex 3.7191059435530054 1.472498210738712 -4
    endloop
  endfacet
  facet normal 0 0 -1
    outer loop
      vertex 2.549695958994759 3.0820529711031566 -28.5
      vertex 2.2247967345311057 1.616409443804301 -28.5
      vertex 2.0046637254088817 1.882504541303894 -28.5
    endloop
  endfacet
  facet normal 0 0 -1
    outer loop
      vertex 2.549695958994759 3.0820529711031566 -28.5
      vertex 2.4098433701206248 1.324822603779717 -28.5
      vertex 2.2247967345311057 1.616409443804301 -28.5
    endloop
  endfacet
  facet normal 0 0 -1
    outer loop
      vertex 2.1433071799159866 3.3773117020080603 -28.5
      vertex 2.549695958994759 3.0820529711031566 -28.5
      vertex 2.0046637254088817 1.882504541303894 -28.5
    endloop
  endfacet
  facet normal 0 0 -1
    outer loop
      vertex 2.915874509685646 2.738188423714755 -28.5
      vertex 2.4098433701206248 1.324822603779717 -28.5
      vertex 2.549695958994759 3.0820529711031566 -28.5
    endloop
  endfacet
  facet normal 0.6845471059286882 0.728968627421412 0
    outer loop
      vertex 2.915874509685646 2.738188423714755 -28.5
      vertex 2.549695958994759 3.0820529711031566 -28.5
      vertex 2.915874509685646 2.738188423714755 -4
    endloop
  endfacet
  facet normal 0.5877852522924736 0.809016994374947 0
    outer loop
      vertex 2.1433071799159866 3.3773117020080603 -28.5
      vertex 2.549695958994759 3.0820529711031566 -4
      vertex 2.549695958994759 3.0820529711031566 -28.5
    endloop
  endfacet
  facet normal 0.7705132427757895 0.6374239897486895 0
    outer loop
      vertex 2.915874509685646 2.738188423714755 -28.5
      vertex 3.23606797749979 2.3511410091698925 -4
      vertex 3.23606797749979 2.3511410091698925 -28.5
    endloop
  endfacet
  facet normal 0.8443279255020151 0.5358267949789965 0
    outer loop
      vertex 3.5052267201754543 1.9270146964068613 -28.5
      vertex 3.23606797749979 2.3511410091698925 -28.5
      vertex 3.5052267201754543 1.9270146964068613 -4
    endloop
  endfacet
  facet normal 0.12533323356430387 0.992114701314478 0
    outer loop
      vertex 0.2511620781172531 3.9921069137130862 -28.5
      vertex 0.2511620781172531 3.9921069137130862 -4
      vertex 0.7495252583428983 3.929149002914755 -4
    endloop
  endfacet
  facet normal 0.24868988716485535 0.9685831611286311 0
    outer loop
      vertex 0.7495252583428983 3.929149002914755 -28.5
      vertex 0.7495252583428983 3.929149002914755 -4
      vertex 1.2360679774997896 3.804226065180614 -4
    endloop
  endfacet
  facet normal 0.3681245526846778 0.9297764858882515 0
    outer loop
      vertex 1.2360679774997896 3.804226065180614 -28.5
      vertex 1.2360679774997896 3.804226065180614 -4
      vertex 1.7031171662602909 3.619308209864078 -4
    endloop
  endfacet
  facet normal 0.48175367410171505 0.8763066800438638 0
    outer loop
      vertex 1.7031171662602909 3.619308209864078 -28.5
      vertex 1.7031171662602909 3.619308209864078 -4
      vertex 2.1433071799159866 3.3773117020080603 -4
    endloop
  endfacet
  facet normal 0.9980267284282716 0.06279051952931301 0
    outer loop
      vertex 3.9684588052579115 0.501332934257217 -28.5
      vertex 3.9684588052579115 0.501332934257217 -4
      vertex 4 0 -4
    endloop
  endfacet
  facet normal 0.9822872507286885 0.18738131458572532 0
    outer loop
      vertex 3.8743326445145243 0.9947595486594192 -28.5
      vertex 3.8743326445145243 0.9947595486594192 -4
      vertex 3.9684588052579115 0.501332934257217 -4
    endloop
  endfacet
  facet normal 0.9510565162951536 0.3090169943749475 0
    outer loop
      vertex 3.7191059435530054 1.472498210738712 -28.5
      vertex 3.7191059435530054 1.472498210738712 -4
      vertex 3.8743326445145243 0.9947595486594192 -4
    endloop
  endfacet
  facet normal 0.9048270524660198 0.4257792915650722 0
    outer loop
      vertex 3.5052267201754543 1.9270146964068613 -28.5
      vertex 3.5052267201754543 1.9270146964068613 -4
      vertex 3.7191059435530054 1.472498210738712 -4
    endloop
  endfacet
  facet normal 0.6845471059286882 0.728968627421412 0
    outer loop
      vertex 2.549695958994759 3.0820529711031566 -28.5
      vertex 2.549695958994759 3.0820529711031566 -4
      vertex 2.915874509685646 2.738188423714755 -4
    endloop
  endfacet
  facet normal 0.5877852522924736 0.809016994374947 0
    outer loop
      vertex 2.1433071799159866 3.3773117020080603 -28.5
      vertex 2.1433071799159866 3.3773117020080603 -4
      vertex 2.549695958994759 3.0820529711031566 -4
    endloop
  endfacet
  facet normal 0.8443279255020151 0.5358267949789965 0
    outer loop
      vertex 3.23606797749979 2.3511410091698925 -28.5
      vertex 3.23606797749979 2.3511410091698925 -4
      vertex 3.5052267201754543 1.9270146964068613 -4
    endloop
  endfacet
  facet normal 0.7705132427757895 0.6374239897486895 0
    outer loop
      vertex 2.915874509685646 2.738188423714755 -28.5
      vertex 2.915874509685646 2.738188423714755 -4
      vertex 3.23606797749979 2.3511410091698925 -4
    endloop
  endfacet
endsolid OpenSCAD_Model
