solid OpenSCAD_Model
  facet normal 0.8076950598642656 0.3800724452837155 0.4507478525815932
    outer loop
      vertex -2.0812283651041756 -1.144164975991574 -4.2
      vertex -2.2082191539845972 -0.8742958126261099 -4.2
      vertex -4.183994186497132 -1.6565604870810504 0
    endloop
  endfacet
  facet normal 0.8489618516265156 0.2758444269438128 0.4507478525815931
    outer loop
      vertex -2.2082191539845972 -0.8742958126261099 -4.2
      vertex -2.300385007680499 -0.5906384820165302 -4.2
      vertex -4.35862422507884 -1.119104492241847 0
    endloop
  endfacet
  facet normal 0.8768400078433869 0.16726617720953477 0.4507478525815933
    outer loop
      vertex -2.300385007680499 -0.5906384820165302 -4.2
      vertex -2.356272415621885 -0.29766642971522217 -4.2
      vertex -4.464516155915151 -0.5639995510393683 0
    endloop
  endfacet
  facet normal 0.8908898733377372 0.05605003994068938 0.4507478525815932
    outer loop
      vertex -2.356272415621885 -0.29766642971522217 -4.2
      vertex -2.375 0 -4.2
      vertex -4.5 0 0
    endloop
  endfacet
  facet normal 0.32860686670210154 0.8299662044621514 0.45074785258159317
    outer loop
      vertex -0.7339153616405001 -2.2587592262009895 -4.2
      vertex -1.011225817467047 -2.1489642496067964 -4.2
      vertex -1.3905764746872633 -4.2797543233281905 0
    endloop
  endfacet
  facet normal 0.2219933552537093 0.8646070342162865 0.4507478525815931
    outer loop
      vertex -0.44503062214109645 -2.3329322204806355 -4.2
      vertex -0.7339153616405001 -2.2587592262009895 -4.2
      vertex -0.8432159156357617 -4.420292628279099 0
    endloop
  endfacet
  facet normal 0.11187887598056206 0.8856124945496243 0.4507478525815933
    outer loop
      vertex -0.1491274838821202 -2.370313480017145 -4.2
      vertex -0.44503062214109645 -2.3329322204806355 -4.2
      vertex -0.28255733788191195 -4.491120277927222 0
    endloop
  endfacet
  facet normal 0.753690434514316 0.4783064941172175 0.4507478525815932
    outer loop
      vertex -1.9214153616405003 -1.3959899741946238 -4.2
      vertex -2.0812283651041756 -1.144164975991574 -4.2
      vertex -3.9433800601973856 -2.1678915334577193 0
    endloop
  endfacet
  facet normal 0.6877996607792316 0.5689973638120447 0.45074785258159317
    outer loop
      vertex -1.7313004901258526 -1.6257993765806351 -4.2
      vertex -1.9214153616405003 -1.3959899741946238 -4.2
      vertex -3.6405764746872635 -2.6450336353161292 0
    endloop
  endfacet
  facet normal 0.6110618755220594 0.6507148051770035 0.45074785258159317
    outer loop
      vertex -1.7313004901258526 -1.6257993765806351 -4.2
      vertex -2.868407953869103 -3.467309592491052 0
      vertex -1.5138819756531379 -1.8299689515924997 -4.2
    endloop
  endfacet
  facet normal 0.5246872794572313 0.7221700853461402 0.45074785258159317
    outer loop
      vertex -1.2725886380751172 -2.0052788230672856 -4.2
      vertex -1.5138819756531379 -1.8299689515924997 -4.2
      vertex -2.4112205774054853 -3.7994756647590675 0
    endloop
  endfacet
  facet normal 0.43003805156237584 0.7822363118658694 0.45074785258159317
    outer loop
      vertex -1.011225817467047 -2.1489642496067964 -4.2
      vertex -1.2725886380751172 -2.0052788230672856 -4.2
      vertex -1.916006812042826 -4.071721736097088 0
    endloop
  endfacet
  facet normal 0.6877996607792319 0.5689973638120444 0.4507478525815932
    outer loop
      vertex -3.2803588233963525 -3.080461976679098 0
      vertex -1.7313004901258526 -1.6257993765806351 -4.2
      vertex -3.6405764746872635 -2.6450336353161292 0
    endloop
  endfacet
  facet normal 0.7536904345143157 0.478306494117218 0.45074785258159317
    outer loop
      vertex -1.9214153616405003 -1.3959899741946238 -4.2
      vertex -3.9433800601973856 -2.1678915334577193 0
      vertex -3.6405764746872635 -2.6450336353161292 0
    endloop
  endfacet
  facet normal 0.8076950598642654 0.38007244528371553 0.45074785258159306
    outer loop
      vertex -2.0812283651041756 -1.144164975991574 -4.2
      vertex -4.183994186497132 -1.6565604870810504 0
      vertex -3.9433800601973856 -2.1678915334577193 0
    endloop
  endfacet
  facet normal 0.8489618516265156 0.2758444269438126 0.45074785258159317
    outer loop
      vertex -4.35862422507884 -1.119104492241847 0
      vertex -4.183994186497132 -1.6565604870810504 0
      vertex -2.2082191539845972 -0.8742958126261099 -4.2
    endloop
  endfacet
  facet normal 0.8768400078433869 0.167266177209535 0.4507478525815933
    outer loop
      vertex -2.300385007680499 -0.5906384820165302 -4.2
      vertex -4.464516155915151 -0.5639995510393683 0
      vertex -4.35862422507884 -1.119104492241847 0
    endloop
  endfacet
  facet normal 0.8908898733377372 0.056050039940689245 0.45074785258159333
    outer loop
      vertex -2.356272415621885 -0.29766642971522217 -4.2
      vertex -4.5 0 0
      vertex -4.464516155915151 -0.5639995510393683 0
    endloop
  endfacet
  facet normal 0.5246872794572318 0.72217008534614 0.4507478525815932
    outer loop
      vertex -2.868407953869103 -3.467309592491052 0
      vertex -2.4112205774054853 -3.7994756647590675 0
      vertex -1.5138819756531379 -1.8299689515924997 -4.2
    endloop
  endfacet
  facet normal 0.4300380515623761 0.7822363118658692 0.4507478525815932
    outer loop
      vertex -2.4112205774054853 -3.7994756647590675 0
      vertex -1.916006812042826 -4.071721736097088 0
      vertex -1.2725886380751172 -2.0052788230672856 -4.2
    endloop
  endfacet
  facet normal 0.328606866702101 0.8299662044621516 0.4507478525815932
    outer loop
      vertex -1.916006812042826 -4.071721736097088 0
      vertex -1.3905764746872633 -4.2797543233281905 0
      vertex -1.011225817467047 -2.1489642496067964 -4.2
    endloop
  endfacet
  facet normal 0.22199335525370928 0.8646070342162864 0.45074785258159317
    outer loop
      vertex -1.3905764746872633 -4.2797543233281905 0
      vertex -0.8432159156357617 -4.420292628279099 0
      vertex -0.7339153616405001 -2.2587592262009895 -4.2
    endloop
  endfacet
  facet normal 0.11187887598056206 0.8856124945496242 0.45074785258159317
    outer loop
      vertex -0.8432159156357617 -4.420292628279099 0
      vertex -0.28255733788191195 -4.491120277927222 0
      vertex -0.44503062214109645 -2.3329322204806355 -4.2
    endloop
  endfacet
  facet normal 0 0.8926513168046538 0.4507478525815932
    outer loop
      vertex -0.28255733788191195 -4.491120277927222 0
      vertex 0.28255733788191195 -4.491120277927222 0
      vertex -0.1491274838821202 -2.370313480017145 -4.2
    endloop
  endfacet
  facet normal 0.6110618755220588 0.6507148051770039 0.45074785258159317
    outer loop
      vertex -3.2803588233963525 -3.080461976679098 0
      vertex -2.868407953869103 -3.467309592491052 0
      vertex -1.7313004901258526 -1.6257993765806351 -4.2
    endloop
  endfacet
  facet normal 0.8908898733377372 -0.05605003994068938 0.4507478525815932
    outer loop
      vertex -2.375 0 -4.2
      vertex -2.356272415621885 0.29766642971522217 -4.2
      vertex -4.5 0 0
    endloop
  endfacet
  facet normal 0.8768400078433869 -0.16726617720953477 0.4507478525815933
    outer loop
      vertex -2.356272415621885 0.29766642971522217 -4.2
      vertex -2.300385007680499 0.5906384820165302 -4.2
      vertex -4.464516155915151 0.5639995510393683 0
    endloop
  endfacet
  facet normal 0.8489618516265156 -0.2758444269438128 0.4507478525815932
    outer loop
      vertex -2.300385007680499 0.5906384820165302 -4.2
      vertex -2.2082191539845972 0.8742958126261099 -4.2
      vertex -4.35862422507884 1.119104492241847 0
    endloop
  endfacet
  facet normal 0.8076950598642656 -0.3800724452837155 0.4507478525815932
    outer loop
      vertex -2.2082191539845972 0.8742958126261099 -4.2
      vertex -2.0812283651041756 1.144164975991574 -4.2
      vertex -4.183994186497132 1.6565604870810504 0
    endloop
  endfacet
  facet normal 0.753690434514316 -0.4783064941172175 0.4507478525815933
    outer loop
      vertex -2.0812283651041756 1.144164975991574 -4.2
      vertex -1.9214153616405003 1.3959899741946238 -4.2
      vertex -3.9433800601973856 2.1678915334577193 0
    endloop
  endfacet
  facet normal 0.6877996607792316 -0.5689973638120447 0.45074785258159317
    outer loop
      vertex -1.9214153616405003 1.3959899741946238 -4.2
      vertex -1.7313004901258526 1.6257993765806351 -4.2
      vertex -3.6405764746872635 2.6450336353161292 0
    endloop
  endfacet
  facet normal 0.6110618755220594 -0.6507148051770035 0.45074785258159317
    outer loop
      vertex -1.5138819756531379 1.8299689515924997 -4.2
      vertex -2.868407953869103 3.467309592491052 0
      vertex -1.7313004901258526 1.6257993765806351 -4.2
    endloop
  endfacet
  facet normal 0.5246872794572313 -0.7221700853461402 0.45074785258159317
    outer loop
      vertex -1.5138819756531379 1.8299689515924997 -4.2
      vertex -1.2725886380751172 2.0052788230672856 -4.2
      vertex -2.4112205774054853 3.7994756647590675 0
    endloop
  endfacet
  facet normal 0.43003805156237673 -0.782236311865869 0.4507478525815931
    outer loop
      vertex -1.2725886380751172 2.0052788230672856 -4.2
      vertex -1.0112258174670476 2.1489642496067964 -4.2
      vertex -1.9160068120428273 4.071721736097087 0
    endloop
  endfacet
  facet normal 0.3286068667021009 -0.8299662044621515 0.4507478525815932
    outer loop
      vertex -1.3905764746872633 4.2797543233281905 0
      vertex -1.0112258174670476 2.1489642496067964 -4.2
      vertex -0.7339153616405001 2.2587592262009895 -4.2
    endloop
  endfacet
  facet normal 0.2219933552537098 -0.8646070342162863 0.45074785258159306
    outer loop
      vertex -0.8432159156357606 4.420292628279099 0
      vertex -0.7339153616405001 2.2587592262009895 -4.2
      vertex -0.44503062214109584 2.3329322204806355 -4.2
    endloop
  endfacet
  facet normal 0.11187887598056234 -0.8856124945496243 0.45074785258159306
    outer loop
      vertex -0.2825573378819052 4.491120277927222 0
      vertex -0.44503062214109584 2.3329322204806355 -4.2
      vertex -0.14912748388211902 2.370313480017145 -4.2
    endloop
  endfacet
  facet normal 0 -0.8926513168046538 0.45074785258159317
    outer loop
      vertex -0.2825573378819052 4.491120277927222 0
      vertex -0.14912748388211902 2.370313480017145 -4.2
      vertex 0.14912748388211408 2.370313480017145 -4.2
    endloop
  endfacet
  facet normal 0.8908898733377372 -0.05605003994068924 0.45074785258159317
    outer loop
      vertex -4.464516155915151 0.5639995510393683 0
      vertex -4.5 0 0
      vertex -2.356272415621885 0.29766642971522217 -4.2
    endloop
  endfacet
  facet normal 0.8768400078433869 -0.16726617720953482 0.45074785258159317
    outer loop
      vertex -4.35862422507884 1.119104492241847 0
      vertex -4.464516155915151 0.5639995510393683 0
      vertex -2.300385007680499 0.5906384820165302 -4.2
    endloop
  endfacet
  facet normal 0.8489618516265156 -0.2758444269438126 0.45074785258159317
    outer loop
      vertex -4.183994186497132 1.6565604870810504 0
      vertex -4.35862422507884 1.119104492241847 0
      vertex -2.2082191539845972 0.8742958126261099 -4.2
    endloop
  endfacet
  facet normal 0.8076950598642656 -0.3800724452837153 0.4507478525815933
    outer loop
      vertex -3.9433800601973856 2.1678915334577193 0
      vertex -4.183994186497132 1.6565604870810504 0
      vertex -2.0812283651041756 1.144164975991574 -4.2
    endloop
  endfacet
  facet normal 0.7536904345143156 -0.47830649411721815 0.45074785258159317
    outer loop
      vertex -3.6405764746872635 2.6450336353161292 0
      vertex -3.9433800601973856 2.1678915334577193 0
      vertex -1.9214153616405003 1.3959899741946238 -4.2
    endloop
  endfacet
  facet normal 0.6877996607792318 -0.5689973638120441 0.4507478525815932
    outer loop
      vertex -1.7313004901258526 1.6257993765806351 -4.2
      vertex -3.2803588233963525 3.080461976679098 0
      vertex -3.6405764746872635 2.6450336353161292 0
    endloop
  endfacet
  facet normal 0.6110618755220588 -0.6507148051770039 0.45074785258159317
    outer loop
      vertex -2.868407953869103 3.467309592491052 0
      vertex -3.2803588233963525 3.080461976679098 0
      vertex -1.7313004901258526 1.6257993765806351 -4.2
    endloop
  endfacet
  facet normal 0.5246872794572318 -0.72217008534614 0.4507478525815932
    outer loop
      vertex -2.868407953869103 3.467309592491052 0
      vertex -1.5138819756531379 1.8299689515924997 -4.2
      vertex -2.4112205774054853 3.7994756647590675 0
    endloop
  endfacet
  facet normal 0.430038051562376 -0.7822363118658693 0.45074785258159317
    outer loop
      vertex -1.2725886380751172 2.0052788230672856 -4.2
      vertex -1.9160068120428273 4.071721736097087 0
      vertex -2.4112205774054853 3.7994756647590675 0
    endloop
  endfacet
  facet normal 0.3286068667021015 -0.8299662044621513 0.4507478525815931
    outer loop
      vertex -1.3905764746872633 4.2797543233281905 0
      vertex -1.9160068120428273 4.071721736097087 0
      vertex -1.0112258174670476 2.1489642496067964 -4.2
    endloop
  endfacet
  facet normal 0.2219933552537089 -0.8646070342162867 0.4507478525815931
    outer loop
      vertex -0.8432159156357606 4.420292628279099 0
      vertex -1.3905764746872633 4.2797543233281905 0
      vertex -0.7339153616405001 2.2587592262009895 -4.2
    endloop
  endfacet
  facet normal 0.11187887598056095 -0.8856124945496245 0.45074785258159317
    outer loop
      vertex -0.2825573378819052 4.491120277927222 0
      vertex -0.8432159156357606 4.420292628279099 0
      vertex -0.44503062214109584 2.3329322204806355 -4.2
    endloop
  endfacet
  facet normal 0 0.8926513168046538 0.4507478525815933
    outer loop
      vertex 0.28255733788191195 -4.491120277927222 0
      vertex 0.1491274838821202 -2.370313480017145 -4.2
      vertex -0.1491274838821202 -2.370313480017145 -4.2
    endloop
  endfacet
  facet normal -0.11187887598056206 0.8856124945496243 0.4507478525815933
    outer loop
      vertex 0.1491274838821202 -2.370313480017145 -4.2
      vertex 0.28255733788191195 -4.491120277927222 0
      vertex 0.44503062214109645 -2.3329322204806355 -4.2
    endloop
  endfacet
  facet normal -0.2219933552537093 0.8646070342162865 0.4507478525815931
    outer loop
      vertex 0.7339153616405001 -2.2587592262009895 -4.2
      vertex 0.44503062214109645 -2.3329322204806355 -4.2
      vertex 0.8432159156357617 -4.420292628279099 0
    endloop
  endfacet
  facet normal -0.32860686670210154 0.8299662044621514 0.45074785258159317
    outer loop
      vertex 1.011225817467047 -2.1489642496067964 -4.2
      vertex 0.7339153616405001 -2.2587592262009895 -4.2
      vertex 1.3905764746872633 -4.2797543233281905 0
    endloop
  endfacet
  facet normal -0.43003805156237546 0.7822363118658695 0.4507478525815932
    outer loop
      vertex 1.272588638075116 -2.0052788230672864 -4.2
      vertex 1.011225817467047 -2.1489642496067964 -4.2
      vertex 1.916006812042826 -4.071721736097088 0
    endloop
  endfacet
  facet normal -0.5246872794572311 0.7221700853461404 0.4507478525815932
    outer loop
      vertex 1.5138819756531388 -1.829968951592499 -4.2
      vertex 1.272588638075116 -2.0052788230672864 -4.2
      vertex 2.411220577405483 -3.799475664759069 0
    endloop
  endfacet
  facet normal -0.6110618755220595 0.6507148051770032 0.45074785258159317
    outer loop
      vertex 2.868407953869105 -3.4673095924910506 0
      vertex 1.7313004901258526 -1.6257993765806351 -4.2
      vertex 1.5138819756531388 -1.829968951592499 -4.2
    endloop
  endfacet
  facet normal -0.6877996607792316 0.5689973638120447 0.45074785258159317
    outer loop
      vertex 1.7313004901258526 -1.6257993765806351 -4.2
      vertex 3.6405764746872635 -2.6450336353161292 0
      vertex 1.9214153616405003 -1.3959899741946238 -4.2
    endloop
  endfacet
  facet normal -0.753690434514316 0.4783064941172175 0.4507478525815933
    outer loop
      vertex 2.0812283651041756 -1.144164975991574 -4.2
      vertex 1.9214153616405003 -1.3959899741946238 -4.2
      vertex 3.9433800601973856 -2.1678915334577193 0
    endloop
  endfacet
  facet normal -0.8076950598642653 0.38007244528371575 0.45074785258159317
    outer loop
      vertex 2.208219153984597 -0.8742958126261111 -4.2
      vertex 2.0812283651041756 -1.144164975991574 -4.2
      vertex 4.183994186497131 -1.6565604870810526 0
    endloop
  endfacet
  facet normal -0.8489618516265155 0.2758444269438132 0.4507478525815932
    outer loop
      vertex 2.3003850076804992 -0.5906384820165292 -4.2
      vertex 2.208219153984597 -0.8742958126261111 -4.2
      vertex 4.358624225078841 -1.119104492241845 0
    endloop
  endfacet
  facet normal -0.876840007843387 0.16726617720953402 0.4507478525815933
    outer loop
      vertex 2.356272415621885 -0.29766642971522217 -4.2
      vertex 2.3003850076804992 -0.5906384820165292 -4.2
      vertex 4.464516155915151 -0.5639995510393683 0
    endloop
  endfacet
  facet normal -0.8908898733377372 0.05605003994068938 0.4507478525815932
    outer loop
      vertex 2.375 0 -4.2
      vertex 2.356272415621885 -0.29766642971522217 -4.2
      vertex 4.5 0 0
    endloop
  endfacet
  facet normal -0.11187887598056206 0.8856124945496242 0.45074785258159317
    outer loop
      vertex 0.28255733788191195 -4.491120277927222 0
      vertex 0.8432159156357617 -4.420292628279099 0
      vertex 0.44503062214109645 -2.3329322204806355 -4.2
    endloop
  endfacet
  facet normal -0.22199335525370942 0.8646070342162864 0.45074785258159317
    outer loop
      vertex 0.7339153616405001 -2.2587592262009895 -4.2
      vertex 0.8432159156357617 -4.420292628279099 0
      vertex 1.3905764746872633 -4.2797543233281905 0
    endloop
  endfacet
  facet normal -0.328606866702101 0.8299662044621516 0.4507478525815932
    outer loop
      vertex 1.3905764746872633 -4.2797543233281905 0
      vertex 1.916006812042826 -4.071721736097088 0
      vertex 1.011225817467047 -2.1489642496067964 -4.2
    endloop
  endfacet
  facet normal -0.4300380515623761 0.7822363118658693 0.45074785258159317
    outer loop
      vertex 1.272588638075116 -2.0052788230672864 -4.2
      vertex 1.916006812042826 -4.071721736097088 0
      vertex 2.411220577405483 -3.799475664759069 0
    endloop
  endfacet
  facet normal -0.5246872794572316 0.7221700853461402 0.4507478525815932
    outer loop
      vertex 2.411220577405483 -3.799475664759069 0
      vertex 2.868407953869105 -3.4673095924910506 0
      vertex 1.5138819756531388 -1.829968951592499 -4.2
    endloop
  endfacet
  facet normal -0.6110618755220592 0.6507148051770036 0.4507478525815932
    outer loop
      vertex 2.868407953869105 -3.4673095924910506 0
      vertex 3.2803588233963525 -3.080461976679098 0
      vertex 1.7313004901258526 -1.6257993765806351 -4.2
    endloop
  endfacet
  facet normal -0.6877996607792319 0.5689973638120444 0.4507478525815932
    outer loop
      vertex 3.2803588233963525 -3.080461976679098 0
      vertex 3.6405764746872635 -2.6450336353161292 0
      vertex 1.7313004901258526 -1.6257993765806351 -4.2
    endloop
  endfacet
  facet normal -0.7536904345143156 0.47830649411721815 0.45074785258159317
    outer loop
      vertex 3.6405764746872635 -2.6450336353161292 0
      vertex 3.9433800601973856 -2.1678915334577193 0
      vertex 1.9214153616405003 -1.3959899741946238 -4.2
    endloop
  endfacet
  facet normal -0.8076950598642655 0.3800724452837155 0.4507478525815932
    outer loop
      vertex 3.9433800601973856 -2.1678915334577193 0
      vertex 4.183994186497131 -1.6565604870810526 0
      vertex 2.0812283651041756 -1.144164975991574 -4.2
    endloop
  endfacet
  facet normal -0.8489618516265155 0.27584442694381317 0.4507478525815932
    outer loop
      vertex 4.183994186497131 -1.6565604870810526 0
      vertex 4.358624225078841 -1.119104492241845 0
      vertex 2.208219153984597 -0.8742958126261111 -4.2
    endloop
  endfacet
  facet normal -0.8768400078433871 0.16726617720953407 0.4507478525815933
    outer loop
      vertex 4.358624225078841 -1.119104492241845 0
      vertex 4.464516155915151 -0.5639995510393683 0
      vertex 2.3003850076804992 -0.5906384820165292 -4.2
    endloop
  endfacet
  facet normal -0.8908898733377372 0.05605003994068924 0.45074785258159317
    outer loop
      vertex 4.464516155915151 -0.5639995510393683 0
      vertex 4.5 0 0
      vertex 2.356272415621885 -0.29766642971522217 -4.2
    endloop
  endfacet
  facet normal -0.43003805156237596 -0.7822363118658695 0.45074785258159317
    outer loop
      vertex 1.0112258174670476 2.1489642496067964 -4.2
      vertex 1.272588638075117 2.005278823067286 -4.2
      vertex 1.9160068120428273 4.071721736097087 0
    endloop
  endfacet
  facet normal -0.5246872794572325 -0.7221700853461395 0.45074785258159317
    outer loop
      vertex 1.272588638075117 2.005278823067286 -4.2
      vertex 1.513881975653138 1.8299689515924993 -4.2
      vertex 2.411220577405485 3.799475664759068 0
    endloop
  endfacet
  facet normal -0.6110618755220582 -0.6507148051770045 0.4507478525815932
    outer loop
      vertex 1.513881975653138 1.8299689515924993 -4.2
      vertex 1.7313004901258524 1.6257993765806358 -4.2
      vertex 2.868407953869104 3.467309592491051 0
    endloop
  endfacet
  facet normal -0.687799660779232 -0.5689973638120441 0.4507478525815932
    outer loop
      vertex 1.7313004901258524 1.6257993765806358 -4.2
      vertex 1.9214153616405003 1.3959899741946238 -4.2
      vertex 3.6405764746872635 2.6450336353161292 0
    endloop
  endfacet
  facet normal -0.7536904345143154 -0.47830649411721843 0.45074785258159317
    outer loop
      vertex 1.9214153616405003 1.3959899741946238 -4.2
      vertex 2.081228365104176 1.144164975991574 -4.2
      vertex 3.943380060197386 2.167891533457719 0
    endloop
  endfacet
  facet normal -0.11187887598056002 -0.8856124945496244 0.4507478525815934
    outer loop
      vertex 0.14912748388211408 2.370313480017145 -4.2
      vertex 0.44503062214109584 2.3329322204806355 -4.2
      vertex 0.28255733788190973 4.491120277927222 0
    endloop
  endfacet
  facet normal -0.22199335525370886 -0.8646070342162866 0.45074785258159317
    outer loop
      vertex 0.44503062214109584 2.3329322204806355 -4.2
      vertex 0.7339153616405001 2.2587592262009895 -4.2
      vertex 0.8432159156357606 4.420292628279099 0
    endloop
  endfacet
  facet normal -0.3286068667021008 -0.8299662044621516 0.4507478525815931
    outer loop
      vertex 0.7339153616405001 2.2587592262009895 -4.2
      vertex 1.0112258174670476 2.1489642496067964 -4.2
      vertex 1.3905764746872633 4.2797543233281905 0
    endloop
  endfacet
  facet normal -0.8908898733377372 -0.0560500399406893 0.4507478525815932
    outer loop
      vertex 2.375 0 -4.2
      vertex 4.5 0 0
      vertex 2.356272415621885 0.2976664297152226 -4.2
    endloop
  endfacet
  facet normal -0.8768400078433869 -0.16726617720953474 0.4507478525815932
    outer loop
      vertex 4.464516155915151 0.5639995510393692 0
      vertex 2.300385007680499 0.5906384820165301 -4.2
      vertex 2.356272415621885 0.2976664297152226 -4.2
    endloop
  endfacet
  facet normal -0.8489618516265153 -0.27584442694381395 0.45074785258159317
    outer loop
      vertex 4.35862422507884 1.1191044922418465 0
      vertex 2.208219153984597 0.8742958126261102 -4.2
      vertex 2.300385007680499 0.5906384820165301 -4.2
    endloop
  endfacet
  facet normal -0.8076950598642664 -0.3800724452837137 0.4507478525815933
    outer loop
      vertex 2.081228365104176 1.144164975991574 -4.2
      vertex 2.208219153984597 0.8742958126261102 -4.2
      vertex 4.183994186497131 1.6565604870810509 0
    endloop
  endfacet
  facet normal -0.6110618755220585 -0.6507148051770044 0.4507478525815931
    outer loop
      vertex 1.7313004901258524 1.6257993765806358 -4.2
      vertex 3.280358823396352 3.080461976679099 0
      vertex 2.868407953869104 3.467309592491051 0
    endloop
  endfacet
  facet normal 0 -0.8926513168046537 0.45074785258159317
    outer loop
      vertex -0.2825573378819052 4.491120277927222 0
      vertex 0.14912748388211408 2.370313480017145 -4.2
      vertex 0.28255733788190973 4.491120277927222 0
    endloop
  endfacet
  facet normal -0.11187887598056183 -0.8856124945496243 0.4507478525815931
    outer loop
      vertex 0.8432159156357606 4.420292628279099 0
      vertex 0.28255733788190973 4.491120277927222 0
      vertex 0.44503062214109584 2.3329322204806355 -4.2
    endloop
  endfacet
  facet normal -0.2219933552537089 -0.8646070342162867 0.45074785258159317
    outer loop
      vertex 1.3905764746872633 4.2797543233281905 0
      vertex 0.8432159156357606 4.420292628279099 0
      vertex 0.7339153616405001 2.2587592262009895 -4.2
    endloop
  endfacet
  facet normal -0.3286068667021015 -0.8299662044621513 0.4507478525815931
    outer loop
      vertex 1.9160068120428273 4.071721736097087 0
      vertex 1.3905764746872633 4.2797543233281905 0
      vertex 1.0112258174670476 2.1489642496067964 -4.2
    endloop
  endfacet
  facet normal -0.4300380515623757 -0.7822363118658696 0.45074785258159317
    outer loop
      vertex 2.411220577405485 3.799475664759068 0
      vertex 1.9160068120428273 4.071721736097087 0
      vertex 1.272588638075117 2.005278823067286 -4.2
    endloop
  endfacet
  facet normal -0.5246872794572321 -0.7221700853461397 0.4507478525815932
    outer loop
      vertex 2.868407953869104 3.467309592491051 0
      vertex 2.411220577405485 3.799475664759068 0
      vertex 1.513881975653138 1.8299689515924993 -4.2
    endloop
  endfacet
  facet normal -0.8908898733377372 -0.056050039940689154 0.4507478525815932
    outer loop
      vertex 4.5 0 0
      vertex 4.464516155915151 0.5639995510393692 0
      vertex 2.356272415621885 0.2976664297152226 -4.2
    endloop
  endfacet
  facet normal -0.8768400078433868 -0.16726617720953524 0.4507478525815932
    outer loop
      vertex 4.464516155915151 0.5639995510393692 0
      vertex 4.35862422507884 1.1191044922418465 0
      vertex 2.300385007680499 0.5906384820165301 -4.2
    endloop
  endfacet
  facet normal -0.8489618516265154 -0.27584442694381345 0.4507478525815933
    outer loop
      vertex 4.35862422507884 1.1191044922418465 0
      vertex 4.183994186497131 1.6565604870810509 0
      vertex 2.208219153984597 0.8742958126261102 -4.2
    endloop
  endfacet
  facet normal -0.8076950598642662 -0.380072445283714 0.45074785258159317
    outer loop
      vertex 2.081228365104176 1.144164975991574 -4.2
      vertex 4.183994186497131 1.6565604870810509 0
      vertex 3.943380060197386 2.167891533457719 0
    endloop
  endfacet
  facet normal -0.7536904345143156 -0.4783064941172181 0.45074785258159333
    outer loop
      vertex 1.9214153616405003 1.3959899741946238 -4.2
      vertex 3.943380060197386 2.167891533457719 0
      vertex 3.6405764746872635 2.6450336353161292 0
    endloop
  endfacet
  facet normal -0.6877996607792323 -0.5689973638120437 0.4507478525815933
    outer loop
      vertex 1.7313004901258524 1.6257993765806358 -4.2
      vertex 3.6405764746872635 2.6450336353161292 0
      vertex 3.280358823396352 3.080461976679099 0
    endloop
  endfacet
  facet normal -0.8443279255020152 -0.5358267949789963 0
    outer loop
      vertex -18.202882373436317 -13.225168176580645 -4.2
      vertex -19.71690030098693 -10.839457667288595 0
      vertex -19.71690030098693 -10.839457667288595 -4.2
    endloop
  endfacet
  facet normal -0.770513242775789 -0.63742398974869 0
    outer loop
      vertex -18.202882373436317 -13.225168176580645 -4.2
      vertex -16.401794116981762 -15.40230988339549 -4.2
      vertex -18.202882373436317 -13.225168176580645 0
    endloop
  endfacet
  facet normal -0.5877852522924731 -0.8090169943749473 0
    outer loop
      vertex -14.342039769345517 -17.33654796245526 -4.2
      vertex -12.056102887027427 -18.99737832379534 -4.2
      vertex -12.056102887027427 -18.99737832379534 0
    endloop
  endfacet
  facet normal -0.6845471059286892 -0.7289686274214111 0
    outer loop
      vertex -14.342039769345517 -17.33654796245526 -4.2
      vertex -14.342039769345517 -17.33654796245526 0
      vertex -16.401794116981762 -15.40230988339549 -4.2
    endloop
  endfacet
  facet normal 0 0 -1
    outer loop
      vertex -20.919970932485658 -8.282802435405252 -4.2
      vertex -21.7931211253942 -5.595522461209234 -4.2
      vertex -20.919970932485658 8.282802435405252 -4.2
    endloop
  endfacet
  facet normal 0 0 -1
    outer loop
      vertex -21.7931211253942 -5.595522461209234 -4.2
      vertex -22.322580779575752 -2.8199977551968414 -4.2
      vertex -21.7931211253942 5.595522461209234 -4.2
    endloop
  endfacet
  facet normal 0 0 -1
    outer loop
      vertex -19.71690030098693 -10.839457667288595 -4.2
      vertex -20.919970932485658 -8.282802435405252 -4.2
      vertex -19.71690030098693 10.839457667288595 -4.2
    endloop
  endfacet
  facet normal 0 0 -1
    outer loop
      vertex -18.202882373436317 -13.225168176580645 -4.2
      vertex -19.71690030098693 -10.839457667288595 -4.2
      vertex -18.202882373436317 13.225168176580645 -4.2
    endloop
  endfacet
  facet normal 0 0 -1
    outer loop
      vertex -18.202882373436317 -13.225168176580645 -4.2
      vertex -16.401794116981762 15.40230988339549 -4.2
      vertex -16.401794116981762 -15.40230988339549 -4.2
    endloop
  endfacet
  facet normal 0 0 -1
    outer loop
      vertex -14.342039769345517 -17.33654796245526 -4.2
      vertex -12.056102887027427 18.99737832379534 -4.2
      vertex -12.056102887027427 -18.99737832379534 -4.2
    endloop
  endfacet
  facet normal 0 0 -1
    outer loop
      vertex -14.342039769345517 -17.33654796245526 -4.2
      vertex -16.401794116981762 -15.40230988339549 -4.2
      vertex -14.342039769345517 17.33654796245526 -4.2
    endloop
  endfacet
  facet normal -0.9048270524660195 -0.42577929156507305 0
    outer loop
      vertex -19.71690030098693 -10.839457667288595 -4.2
      vertex -20.919970932485658 -8.282802435405252 0
      vertex -20.919970932485658 -8.282802435405252 -4.2
    endloop
  endfacet
  facet normal -0.9510565162951535 -0.30901699437494773 0
    outer loop
      vertex -20.919970932485658 -8.282802435405252 -4.2
      vertex -21.7931211253942 -5.595522461209234 0
      vertex -21.7931211253942 -5.595522461209234 -4.2
    endloop
  endfacet
  facet normal -0.9822872507286887 -0.18738131458572418 0
    outer loop
      vertex -21.7931211253942 -5.595522461209234 -4.2
      vertex -22.322580779575752 -2.8199977551968414 0
      vertex -22.322580779575752 -2.8199977551968414 -4.2
    endloop
  endfacet
  facet normal -0.9980267284282716 -0.06279051952931324 0
    outer loop
      vertex -22.322580779575752 -2.8199977551968414 -4.2
      vertex -22.5 0 0
      vertex -22.5 0 -4.2
    endloop
  endfacet
  facet normal 0 0 -1
    outer loop
      vertex -4.2160795781788085 -22.101463141395495 -4.2
      vertex -1.2725886380751172 -2.0052788230672856 -4.2
      vertex -1.4127866894095598 -22.45560138963611 -4.2
    endloop
  endfacet
  facet normal 0 0 -1
    outer loop
      vertex -1.4127866894095598 -22.45560138963611 -4.2
      vertex -0.1491274838821202 -2.370313480017145 -4.2
      vertex 1.4127866894095598 -22.45560138963611 -4.2
    endloop
  endfacet
  facet normal -0.4817536741017142 -0.8763066800438641 0
    outer loop
      vertex -12.056102887027427 -18.99737832379534 -4.2
      vertex -9.58003406021413 -20.35860868048544 -4.2
      vertex -9.58003406021413 -20.35860868048544 0
    endloop
  endfacet
  facet normal -0.3681245526846779 -0.9297764858882513 0
    outer loop
      vertex -9.58003406021413 -20.35860868048544 -4.2
      vertex -6.952882373436316 -21.398771616640953 -4.2
      vertex -6.952882373436316 -21.398771616640953 0
    endloop
  endfacet
  facet normal -0.24868988716485585 -0.9685831611286309 0
    outer loop
      vertex -6.952882373436316 -21.398771616640953 -4.2
      vertex -4.2160795781788085 -22.101463141395495 -4.2
      vertex -4.2160795781788085 -22.101463141395495 0
    endloop
  endfacet
  facet normal -0.12533323356430498 -0.9921147013144778 0
    outer loop
      vertex -4.2160795781788085 -22.101463141395495 -4.2
      vertex -1.4127866894095598 -22.45560138963611 -4.2
      vertex -1.4127866894095598 -22.45560138963611 0
    endloop
  endfacet
  facet normal 0 0 -1
    outer loop
      vertex -12.056102887027427 -18.99737832379534 -4.2
      vertex -9.580034060214135 20.35860868048544 -4.2
      vertex -9.58003406021413 -20.35860868048544 -4.2
    endloop
  endfacet
  facet normal 0 0 -1
    outer loop
      vertex -9.58003406021413 -20.35860868048544 -4.2
      vertex -6.952882373436316 21.398771616640953 -4.2
      vertex -6.952882373436316 -21.398771616640953 -4.2
    endloop
  endfacet
  facet normal 0 0 -1
    outer loop
      vertex -6.952882373436316 -21.398771616640953 -4.2
      vertex -4.216079578178803 22.101463141395495 -4.2
      vertex -4.2160795781788085 -22.101463141395495 -4.2
    endloop
  endfacet
  facet normal 0 0 -1
    outer loop
      vertex -4.2160795781788085 -22.101463141395495 -4.2
      vertex -2.2082191539845972 -0.8742958126261099 -4.2
      vertex -2.0812283651041756 -1.144164975991574 -4.2
    endloop
  endfacet
  facet normal 0 0 -1
    outer loop
      vertex -4.2160795781788085 -22.101463141395495 -4.2
      vertex -2.300385007680499 -0.5906384820165302 -4.2
      vertex -2.2082191539845972 -0.8742958126261099 -4.2
    endloop
  endfacet
  facet normal 0 0 -1
    outer loop
      vertex -4.2160795781788085 -22.101463141395495 -4.2
      vertex -2.356272415621885 -0.29766642971522217 -4.2
      vertex -2.300385007680499 -0.5906384820165302 -4.2
    endloop
  endfacet
  facet normal 0 0 -1
    outer loop
      vertex -4.2160795781788085 -22.101463141395495 -4.2
      vertex -2.375 0 -4.2
      vertex -2.356272415621885 -0.29766642971522217 -4.2
    endloop
  endfacet
  facet normal 0 0 -1
    outer loop
      vertex -4.2160795781788085 -22.101463141395495 -4.2
      vertex -2.356272415621885 0.29766642971522217 -4.2
      vertex -2.375 0 -4.2
    endloop
  endfacet
  facet normal 0 0 -1
    outer loop
      vertex -4.2160795781788085 -22.101463141395495 -4.2
      vertex -1.7313004901258526 -1.6257993765806351 -4.2
      vertex -1.5138819756531379 -1.8299689515924997 -4.2
    endloop
  endfacet
  facet normal 0 0 -1
    outer loop
      vertex -4.2160795781788085 -22.101463141395495 -4.2
      vertex -1.5138819756531379 -1.8299689515924997 -4.2
      vertex -1.2725886380751172 -2.0052788230672856 -4.2
    endloop
  endfacet
  facet normal 0 0 -1
    outer loop
      vertex -1.4127866894095598 -22.45560138963611 -4.2
      vertex -1.2725886380751172 -2.0052788230672856 -4.2
      vertex -1.011225817467047 -2.1489642496067964 -4.2
    endloop
  endfacet
  facet normal 0 0 -1
    outer loop
      vertex -1.4127866894095598 -22.45560138963611 -4.2
      vertex -1.011225817467047 -2.1489642496067964 -4.2
      vertex -0.7339153616405001 -2.2587592262009895 -4.2
    endloop
  endfacet
  facet normal 0 0 -1
    outer loop
      vertex -1.4127866894095598 -22.45560138963611 -4.2
      vertex -0.7339153616405001 -2.2587592262009895 -4.2
      vertex -0.44503062214109645 -2.3329322204806355 -4.2
    endloop
  endfacet
  facet normal 0 0 -1
    outer loop
      vertex -1.4127866894095598 -22.45560138963611 -4.2
      vertex -0.44503062214109645 -2.3329322204806355 -4.2
      vertex -0.1491274838821202 -2.370313480017145 -4.2
    endloop
  endfacet
  facet normal 0 0 -1
    outer loop
      vertex -4.2160795781788085 -22.101463141395495 -4.2
      vertex -2.0812283651041756 -1.144164975991574 -4.2
      vertex -1.9214153616405003 -1.3959899741946238 -4.2
    endloop
  endfacet
  facet normal 0 0 -1
    outer loop
      vertex -4.2160795781788085 -22.101463141395495 -4.2
      vertex -1.9214153616405003 -1.3959899741946238 -4.2
      vertex -1.7313004901258526 -1.6257993765806351 -4.2
    endloop
  endfacet
  facet normal -0.770513242775789 -0.63742398974869 0
    outer loop
      vertex -16.401794116981762 -15.40230988339549 -4.2
      vertex -16.401794116981762 -15.40230988339549 0
      vertex -18.202882373436317 -13.225168176580645 0
    endloop
  endfacet
  facet normal -0.8443279255020152 -0.5358267949789963 0
    outer loop
      vertex -18.202882373436317 -13.225168176580645 -4.2
      vertex -18.202882373436317 -13.225168176580645 0
      vertex -19.71690030098693 -10.839457667288595 0
    endloop
  endfacet
  facet normal -0.5877852522924731 -0.8090169943749473 0
    outer loop
      vertex -14.342039769345517 -17.33654796245526 -4.2
      vertex -12.056102887027427 -18.99737832379534 0
      vertex -14.342039769345517 -17.33654796245526 0
    endloop
  endfacet
  facet normal -0.6845471059286892 -0.7289686274214111 0
    outer loop
      vertex -16.401794116981762 -15.40230988339549 -4.2
      vertex -14.342039769345517 -17.33654796245526 0
      vertex -16.401794116981762 -15.40230988339549 0
    endloop
  endfacet
  facet normal -0.9048270524660195 -0.42577929156507305 0
    outer loop
      vertex -19.71690030098693 -10.839457667288595 -4.2
      vertex -19.71690030098693 -10.839457667288595 0
      vertex -20.919970932485658 -8.282802435405252 0
    endloop
  endfacet
  facet normal -0.9510565162951535 -0.30901699437494773 0
    outer loop
      vertex -20.919970932485658 -8.282802435405252 -4.2
      vertex -20.919970932485658 -8.282802435405252 0
      vertex -21.7931211253942 -5.595522461209234 0
    endloop
  endfacet
  facet normal -0.9822872507286887 -0.18738131458572418 0
    outer loop
      vertex -21.7931211253942 -5.595522461209234 -4.2
      vertex -21.7931211253942 -5.595522461209234 0
      vertex -22.322580779575752 -2.8199977551968414 0
    endloop
  endfacet
  facet normal -0.9980267284282716 -0.06279051952931324 0
    outer loop
      vertex -22.322580779575752 -2.8199977551968414 -4.2
      vertex -22.322580779575752 -2.8199977551968414 0
      vertex -22.5 0 0
    endloop
  endfacet
  facet normal 0 0 1
    outer loop
      vertex -19.71690030098693 -10.839457667288595 0
      vertex -20.919970932485658 8.282802435405252 0
      vertex -20.919970932485658 -8.282802435405252 0
    endloop
  endfacet
  facet normal 0 0 1
    outer loop
      vertex -21.7931211253942 -5.595522461209234 0
      vertex -22.322580779575752 2.8199977551968414 0
      vertex -22.322580779575752 -2.8199977551968414 0
    endloop
  endfacet
  facet normal 0 0 1
    outer loop
      vertex -20.919970932485658 -8.282802435405252 0
      vertex -21.7931211253942 5.595522461209234 0
      vertex -21.7931211253942 -5.595522461209234 0
    endloop
  endfacet
  facet normal 0 0 1
    outer loop
      vertex -18.202882373436317 -13.225168176580645 0
      vertex -19.71690030098693 10.839457667288595 0
      vertex -19.71690030098693 -10.839457667288595 0
    endloop
  endfacet
  facet normal 0 0 1
    outer loop
      vertex -18.202882373436317 -13.225168176580645 0
      vertex -16.401794116981762 -15.40230988339549 0
      vertex -18.202882373436317 13.225168176580645 0
    endloop
  endfacet
  facet normal 0 0 1
    outer loop
      vertex -14.342039769345517 -17.33654796245526 0
      vertex -16.401794116981762 15.40230988339549 0
      vertex -16.401794116981762 -15.40230988339549 0
    endloop
  endfacet
  facet normal 0 0 1
    outer loop
      vertex -14.342039769345517 -17.33654796245526 0
      vertex -12.056102887027427 -18.99737832379534 0
      vertex -14.342039769345517 17.33654796245526 0
    endloop
  endfacet
  facet normal -0.3681245526846779 -0.9297764858882513 0
    outer loop
      vertex -9.58003406021413 -20.35860868048544 -4.2
      vertex -6.952882373436316 -21.398771616640953 0
      vertex -9.58003406021413 -20.35860868048544 0
    endloop
  endfacet
  facet normal -0.4817536741017142 -0.8763066800438641 0
    outer loop
      vertex -12.056102887027427 -18.99737832379534 -4.2
      vertex -9.58003406021413 -20.35860868048544 0
      vertex -12.056102887027427 -18.99737832379534 0
    endloop
  endfacet
  facet normal -0.24868988716485585 -0.9685831611286309 0
    outer loop
      vertex -6.952882373436316 -21.398771616640953 -4.2
      vertex -4.2160795781788085 -22.101463141395495 0
      vertex -6.952882373436316 -21.398771616640953 0
    endloop
  endfacet
  facet normal -0.12533323356430498 -0.9921147013144778 0
    outer loop
      vertex -4.2160795781788085 -22.101463141395495 -4.2
      vertex -1.4127866894095598 -22.45560138963611 0
      vertex -4.2160795781788085 -22.101463141395495 0
    endloop
  endfacet
  facet normal 0 -1 0
    outer loop
      vertex -1.4127866894095598 -22.45560138963611 -4.2
      vertex 1.4127866894095598 -22.45560138963611 0
      vertex -1.4127866894095598 -22.45560138963611 0
    endloop
  endfacet
  facet normal 0 0 1
    outer loop
      vertex -4.2160795781788085 -22.101463141395495 0
      vertex -1.4127866894095598 -22.45560138963611 0
      vertex -2.868407953869103 -3.467309592491052 0
    endloop
  endfacet
  facet normal 0 0 1
    outer loop
      vertex -12.056102887027427 -18.99737832379534 0
      vertex -9.58003406021413 -20.35860868048544 0
      vertex -12.056102887027427 18.99737832379534 0
    endloop
  endfacet
  facet normal 0 0 1
    outer loop
      vertex -9.58003406021413 -20.35860868048544 0
      vertex -6.952882373436316 -21.398771616640953 0
      vertex -9.580034060214135 20.35860868048544 0
    endloop
  endfacet
  facet normal 0 0 1
    outer loop
      vertex -6.952882373436316 -21.398771616640953 0
      vertex -4.2160795781788085 -22.101463141395495 0
      vertex -6.952882373436316 21.398771616640953 0
    endloop
  endfacet
  facet normal 0 0 1
    outer loop
      vertex -4.2160795781788085 -22.101463141395495 0
      vertex -3.2803588233963525 -3.080461976679098 0
      vertex -3.6405764746872635 -2.6450336353161292 0
    endloop
  endfacet
  facet normal 0 0 1
    outer loop
      vertex -4.2160795781788085 -22.101463141395495 0
      vertex -3.6405764746872635 -2.6450336353161292 0
      vertex -3.9433800601973856 -2.1678915334577193 0
    endloop
  endfacet
  facet normal 0 0 1
    outer loop
      vertex -4.2160795781788085 -22.101463141395495 0
      vertex -3.9433800601973856 -2.1678915334577193 0
      vertex -4.183994186497132 -1.6565604870810504 0
    endloop
  endfacet
  facet normal 0 0 1
    outer loop
      vertex -4.2160795781788085 -22.101463141395495 0
      vertex -2.868407953869103 -3.467309592491052 0
      vertex -3.2803588233963525 -3.080461976679098 0
    endloop
  endfacet
  facet normal 0 0 1
    outer loop
      vertex -4.2160795781788085 -22.101463141395495 0
      vertex -4.183994186497132 -1.6565604870810504 0
      vertex -4.35862422507884 -1.119104492241847 0
    endloop
  endfacet
  facet normal 0 0 1
    outer loop
      vertex -4.2160795781788085 -22.101463141395495 0
      vertex -4.35862422507884 -1.119104492241847 0
      vertex -4.464516155915151 -0.5639995510393683 0
    endloop
  endfacet
  facet normal 0 0 1
    outer loop
      vertex -1.4127866894095598 -22.45560138963611 0
      vertex -2.4112205774054853 -3.7994756647590675 0
      vertex -2.868407953869103 -3.467309592491052 0
    endloop
  endfacet
  facet normal 0 0 1
    outer loop
      vertex -1.4127866894095598 -22.45560138963611 0
      vertex -1.916006812042826 -4.071721736097088 0
      vertex -2.4112205774054853 -3.7994756647590675 0
    endloop
  endfacet
  facet normal 0 0 1
    outer loop
      vertex -1.4127866894095598 -22.45560138963611 0
      vertex -1.3905764746872633 -4.2797543233281905 0
      vertex -1.916006812042826 -4.071721736097088 0
    endloop
  endfacet
  facet normal 0 0 1
    outer loop
      vertex -1.4127866894095598 -22.45560138963611 0
      vertex -0.8432159156357617 -4.420292628279099 0
      vertex -1.3905764746872633 -4.2797543233281905 0
    endloop
  endfacet
  facet normal 0 0 1
    outer loop
      vertex -1.4127866894095598 -22.45560138963611 0
      vertex -0.28255733788191195 -4.491120277927222 0
      vertex -0.8432159156357617 -4.420292628279099 0
    endloop
  endfacet
  facet normal 0 0 1
    outer loop
      vertex -1.4127866894095598 -22.45560138963611 0
      vertex 0.28255733788191195 -4.491120277927222 0
      vertex -0.28255733788191195 -4.491120277927222 0
    endloop
  endfacet
  facet normal 0 0 1
    outer loop
      vertex -4.2160795781788085 -22.101463141395495 0
      vertex -4.464516155915151 -0.5639995510393683 0
      vertex -6.952882373436316 21.398771616640953 0
    endloop
  endfacet
  facet normal 0 0 -1
    outer loop
      vertex -22.322580779575752 -2.8199977551968414 -4.2
      vertex -22.5 0 -4.2
      vertex -22.322580779575752 2.8199977551968414 -4.2
    endloop
  endfacet
  facet normal 0 0 -1
    outer loop
      vertex -22.322580779575752 -2.8199977551968414 -4.2
      vertex -22.322580779575752 2.8199977551968414 -4.2
      vertex -21.7931211253942 5.595522461209234 -4.2
    endloop
  endfacet
  facet normal 0 0 -1
    outer loop
      vertex -21.7931211253942 -5.595522461209234 -4.2
      vertex -21.7931211253942 5.595522461209234 -4.2
      vertex -20.919970932485658 8.282802435405252 -4.2
    endloop
  endfacet
  facet normal 0 0 -1
    outer loop
      vertex -20.919970932485658 -8.282802435405252 -4.2
      vertex -20.919970932485658 8.282802435405252 -4.2
      vertex -19.71690030098693 10.839457667288595 -4.2
    endloop
  endfacet
  facet normal 0 0 -1
    outer loop
      vertex -19.71690030098693 -10.839457667288595 -4.2
      vertex -19.71690030098693 10.839457667288595 -4.2
      vertex -18.202882373436317 13.225168176580645 -4.2
    endloop
  endfacet
  facet normal 0 0 -1
    outer loop
      vertex -18.202882373436317 -13.225168176580645 -4.2
      vertex -18.202882373436317 13.225168176580645 -4.2
      vertex -16.401794116981762 15.40230988339549 -4.2
    endloop
  endfacet
  facet normal 0 0 -1
    outer loop
      vertex -16.401794116981762 -15.40230988339549 -4.2
      vertex -16.401794116981762 15.40230988339549 -4.2
      vertex -14.342039769345517 17.33654796245526 -4.2
    endloop
  endfacet
  facet normal 0 0 -1
    outer loop
      vertex -14.342039769345517 -17.33654796245526 -4.2
      vertex -14.342039769345517 17.33654796245526 -4.2
      vertex -12.056102887027427 18.99737832379534 -4.2
    endloop
  endfacet
  facet normal -0.9980267284282716 0.06279051952931324 0
    outer loop
      vertex -22.5 0 -4.2
      vertex -22.322580779575752 2.8199977551968414 0
      vertex -22.322580779575752 2.8199977551968414 -4.2
    endloop
  endfacet
  facet normal -0.9822872507286887 0.18738131458572418 0
    outer loop
      vertex -22.322580779575752 2.8199977551968414 -4.2
      vertex -21.7931211253942 5.595522461209234 0
      vertex -21.7931211253942 5.595522461209234 -4.2
    endloop
  endfacet
  facet normal -0.9510565162951535 0.30901699437494773 0
    outer loop
      vertex -21.7931211253942 5.595522461209234 -4.2
      vertex -20.919970932485658 8.282802435405252 0
      vertex -20.919970932485658 8.282802435405252 -4.2
    endloop
  endfacet
  facet normal -0.9048270524660195 0.42577929156507305 0
    outer loop
      vertex -20.919970932485658 8.282802435405252 -4.2
      vertex -19.71690030098693 10.839457667288595 0
      vertex -19.71690030098693 10.839457667288595 -4.2
    endloop
  endfacet
  facet normal -0.8443279255020152 0.5358267949789963 0
    outer loop
      vertex -19.71690030098693 10.839457667288595 -4.2
      vertex -18.202882373436317 13.225168176580645 0
      vertex -18.202882373436317 13.225168176580645 -4.2
    endloop
  endfacet
  facet normal -0.770513242775789 0.63742398974869 0
    outer loop
      vertex -18.202882373436317 13.225168176580645 -4.2
      vertex -16.401794116981762 15.40230988339549 0
      vertex -16.401794116981762 15.40230988339549 -4.2
    endloop
  endfacet
  facet normal -0.6845471059286892 0.7289686274214111 0
    outer loop
      vertex -16.401794116981762 15.40230988339549 -4.2
      vertex -16.401794116981762 15.40230988339549 0
      vertex -14.342039769345517 17.33654796245526 -4.2
    endloop
  endfacet
  facet normal -0.5877852522924731 0.8090169943749473 0
    outer loop
      vertex -14.342039769345517 17.33654796245526 -4.2
      vertex -14.342039769345517 17.33654796245526 0
      vertex -12.056102887027427 18.99737832379534 -4.2
    endloop
  endfacet
  facet normal 0 0 -1
    outer loop
      vertex -12.056102887027427 -18.99737832379534 -4.2
      vertex -12.056102887027427 18.99737832379534 -4.2
      vertex -9.580034060214135 20.35860868048544 -4.2
    endloop
  endfacet
  facet normal 0 0 -1
    outer loop
      vertex -9.58003406021413 -20.35860868048544 -4.2
      vertex -9.580034060214135 20.35860868048544 -4.2
      vertex -6.952882373436316 21.398771616640953 -4.2
    endloop
  endfacet
  facet normal 0 0 -1
    outer loop
      vertex -6.952882373436316 -21.398771616640953 -4.2
      vertex -6.952882373436316 21.398771616640953 -4.2
      vertex -4.216079578178803 22.101463141395495 -4.2
    endloop
  endfacet
  facet normal 0 0 -1
    outer loop
      vertex -4.2160795781788085 -22.101463141395495 -4.2
      vertex -1.4127866894095487 22.45560138963611 -4.2
      vertex -2.356272415621885 0.29766642971522217 -4.2
    endloop
  endfacet
  facet normal 0 0 -1
    outer loop
      vertex -4.2160795781788085 -22.101463141395495 -4.2
      vertex -4.216079578178803 22.101463141395495 -4.2
      vertex -1.4127866894095487 22.45560138963611 -4.2
    endloop
  endfacet
  facet normal 0 0 -1
    outer loop
      vertex -1.4127866894095487 22.45560138963611 -4.2
      vertex -2.300385007680499 0.5906384820165302 -4.2
      vertex -2.356272415621885 0.29766642971522217 -4.2
    endloop
  endfacet
  facet normal 0 0 -1
    outer loop
      vertex -1.4127866894095487 22.45560138963611 -4.2
      vertex -2.2082191539845972 0.8742958126261099 -4.2
      vertex -2.300385007680499 0.5906384820165302 -4.2
    endloop
  endfacet
  facet normal 0 0 -1
    outer loop
      vertex -1.4127866894095487 22.45560138963611 -4.2
      vertex -2.0812283651041756 1.144164975991574 -4.2
      vertex -2.2082191539845972 0.8742958126261099 -4.2
    endloop
  endfacet
  facet normal 0 0 -1
    outer loop
      vertex -1.4127866894095487 22.45560138963611 -4.2
      vertex -1.9214153616405003 1.3959899741946238 -4.2
      vertex -2.0812283651041756 1.144164975991574 -4.2
    endloop
  endfacet
  facet normal 0 0 -1
    outer loop
      vertex -1.4127866894095487 22.45560138963611 -4.2
      vertex -1.7313004901258526 1.6257993765806351 -4.2
      vertex -1.9214153616405003 1.3959899741946238 -4.2
    endloop
  endfacet
  facet normal 0 0 -1
    outer loop
      vertex -1.4127866894095487 22.45560138963611 -4.2
      vertex -1.5138819756531379 1.8299689515924997 -4.2
      vertex -1.7313004901258526 1.6257993765806351 -4.2
    endloop
  endfacet
  facet normal 0 0 -1
    outer loop
      vertex -1.4127866894095487 22.45560138963611 -4.2
      vertex -1.2725886380751172 2.0052788230672856 -4.2
      vertex -1.5138819756531379 1.8299689515924997 -4.2
    endloop
  endfacet
  facet normal 0 0 -1
    outer loop
      vertex -1.4127866894095487 22.45560138963611 -4.2
      vertex -1.0112258174670476 2.1489642496067964 -4.2
      vertex -1.2725886380751172 2.0052788230672856 -4.2
    endloop
  endfacet
  facet normal 0 0 -1
    outer loop
      vertex -1.4127866894095487 22.45560138963611 -4.2
      vertex -0.7339153616405001 2.2587592262009895 -4.2
      vertex -1.0112258174670476 2.1489642496067964 -4.2
    endloop
  endfacet
  facet normal 0 0 -1
    outer loop
      vertex -1.4127866894095487 22.45560138963611 -4.2
      vertex -0.44503062214109584 2.3329322204806355 -4.2
      vertex -0.7339153616405001 2.2587592262009895 -4.2
    endloop
  endfacet
  facet normal 0 0 -1
    outer loop
      vertex -1.4127866894095487 22.45560138963611 -4.2
      vertex -0.14912748388211902 2.370313480017145 -4.2
      vertex -0.44503062214109584 2.3329322204806355 -4.2
    endloop
  endfacet
  facet normal 0 0 -1
    outer loop
      vertex -1.4127866894095487 22.45560138963611 -4.2
      vertex 0.14912748388211408 2.370313480017145 -4.2
      vertex -0.14912748388211902 2.370313480017145 -4.2
    endloop
  endfacet
  facet normal -0.4817536741017151 0.8763066800438638 0
    outer loop
      vertex -12.056102887027427 18.99737832379534 -4.2
      vertex -12.056102887027427 18.99737832379534 0
      vertex -9.580034060214135 20.35860868048544 -4.2
    endloop
  endfacet
  facet normal -0.3681245526846773 0.9297764858882517 0
    outer loop
      vertex -9.580034060214135 20.35860868048544 -4.2
      vertex -9.580034060214135 20.35860868048544 0
      vertex -6.952882373436316 21.398771616640953 -4.2
    endloop
  endfacet
  facet normal -0.24868988716485535 0.968583161128631 0
    outer loop
      vertex -6.952882373436316 21.398771616640953 -4.2
      vertex -6.952882373436316 21.398771616640953 0
      vertex -4.216079578178803 22.101463141395495 -4.2
    endloop
  endfacet
  facet normal -0.1253332335643047 0.9921147013144778 0
    outer loop
      vertex -4.216079578178803 22.101463141395495 -4.2
      vertex -4.216079578178803 22.101463141395495 0
      vertex -1.4127866894095487 22.45560138963611 -4.2
    endloop
  endfacet
  facet normal 0 1 0
    outer loop
      vertex -1.4127866894095487 22.45560138963611 -4.2
      vertex -1.4127866894095487 22.45560138963611 0
      vertex 1.4127866894095487 22.45560138963611 -4.2
    endloop
  endfacet
  facet normal -0.9980267284282716 0.06279051952931324 0
    outer loop
      vertex -22.5 0 -4.2
      vertex -22.5 0 0
      vertex -22.322580779575752 2.8199977551968414 0
    endloop
  endfacet
  facet normal -0.9822872507286887 0.18738131458572418 0
    outer loop
      vertex -22.322580779575752 2.8199977551968414 -4.2
      vertex -22.322580779575752 2.8199977551968414 0
      vertex -21.7931211253942 5.595522461209234 0
    endloop
  endfacet
  facet normal -0.9510565162951535 0.30901699437494773 0
    outer loop
      vertex -21.7931211253942 5.595522461209234 -4.2
      vertex -21.7931211253942 5.595522461209234 0
      vertex -20.919970932485658 8.282802435405252 0
    endloop
  endfacet
  facet normal -0.9048270524660195 0.42577929156507305 0
    outer loop
      vertex -20.919970932485658 8.282802435405252 -4.2
      vertex -20.919970932485658 8.282802435405252 0
      vertex -19.71690030098693 10.839457667288595 0
    endloop
  endfacet
  facet normal 0 0 1
    outer loop
      vertex -22.322580779575752 -2.8199977551968414 0
      vertex -22.322580779575752 2.8199977551968414 0
      vertex -22.5 0 0
    endloop
  endfacet
  facet normal 0 0 1
    outer loop
      vertex -21.7931211253942 -5.595522461209234 0
      vertex -21.7931211253942 5.595522461209234 0
      vertex -22.322580779575752 2.8199977551968414 0
    endloop
  endfacet
  facet normal 0 0 1
    outer loop
      vertex -20.919970932485658 -8.282802435405252 0
      vertex -20.919970932485658 8.282802435405252 0
      vertex -21.7931211253942 5.595522461209234 0
    endloop
  endfacet
  facet normal 0 0 1
    outer loop
      vertex -19.71690030098693 -10.839457667288595 0
      vertex -19.71690030098693 10.839457667288595 0
      vertex -20.919970932485658 8.282802435405252 0
    endloop
  endfacet
  facet normal 0 0 1
    outer loop
      vertex -18.202882373436317 -13.225168176580645 0
      vertex -18.202882373436317 13.225168176580645 0
      vertex -19.71690030098693 10.839457667288595 0
    endloop
  endfacet
  facet normal 0 0 1
    outer loop
      vertex -16.401794116981762 -15.40230988339549 0
      vertex -16.401794116981762 15.40230988339549 0
      vertex -18.202882373436317 13.225168176580645 0
    endloop
  endfacet
  facet normal 0 0 1
    outer loop
      vertex -14.342039769345517 -17.33654796245526 0
      vertex -14.342039769345517 17.33654796245526 0
      vertex -16.401794116981762 15.40230988339549 0
    endloop
  endfacet
  facet normal 0 0 1
    outer loop
      vertex -12.056102887027427 -18.99737832379534 0
      vertex -12.056102887027427 18.99737832379534 0
      vertex -14.342039769345517 17.33654796245526 0
    endloop
  endfacet
  facet normal -0.8443279255020152 0.5358267949789963 0
    outer loop
      vertex -19.71690030098693 10.839457667288595 -4.2
      vertex -19.71690030098693 10.839457667288595 0
      vertex -18.202882373436317 13.225168176580645 0
    endloop
  endfacet
  facet normal -0.770513242775789 0.63742398974869 0
    outer loop
      vertex -18.202882373436317 13.225168176580645 -4.2
      vertex -18.202882373436317 13.225168176580645 0
      vertex -16.401794116981762 15.40230988339549 0
    endloop
  endfacet
  facet normal -0.6845471059286892 0.7289686274214111 0
    outer loop
      vertex -14.342039769345517 17.33654796245526 -4.2
      vertex -16.401794116981762 15.40230988339549 0
      vertex -14.342039769345517 17.33654796245526 0
    endloop
  endfacet
  facet normal -0.5877852522924731 0.8090169943749473 0
    outer loop
      vertex -12.056102887027427 18.99737832379534 -4.2
      vertex -14.342039769345517 17.33654796245526 0
      vertex -12.056102887027427 18.99737832379534 0
    endloop
  endfacet
  facet normal 0 0 1
    outer loop
      vertex -9.58003406021413 -20.35860868048544 0
      vertex -9.580034060214135 20.35860868048544 0
      vertex -12.056102887027427 18.99737832379534 0
    endloop
  endfacet
  facet normal 0 0 1
    outer loop
      vertex -6.952882373436316 -21.398771616640953 0
      vertex -6.952882373436316 21.398771616640953 0
      vertex -9.580034060214135 20.35860868048544 0
    endloop
  endfacet
  facet normal 0 0 1
    outer loop
      vertex -6.952882373436316 21.398771616640953 0
      vertex -4.464516155915151 -0.5639995510393683 0
      vertex -4.5 0 0
    endloop
  endfacet
  facet normal 0 0 1
    outer loop
      vertex -6.952882373436316 21.398771616640953 0
      vertex -4.5 0 0
      vertex -4.464516155915151 0.5639995510393683 0
    endloop
  endfacet
  facet normal 0 0 1
    outer loop
      vertex -6.952882373436316 21.398771616640953 0
      vertex -4.464516155915151 0.5639995510393683 0
      vertex -4.35862422507884 1.119104492241847 0
    endloop
  endfacet
  facet normal 0 0 1
    outer loop
      vertex -6.952882373436316 21.398771616640953 0
      vertex -4.35862422507884 1.119104492241847 0
      vertex -4.183994186497132 1.6565604870810504 0
    endloop
  endfacet
  facet normal 0 0 1
    outer loop
      vertex -4.216079578178803 22.101463141395495 0
      vertex -4.183994186497132 1.6565604870810504 0
      vertex -3.9433800601973856 2.1678915334577193 0
    endloop
  endfacet
  facet normal 0 0 1
    outer loop
      vertex -4.216079578178803 22.101463141395495 0
      vertex -3.9433800601973856 2.1678915334577193 0
      vertex -3.6405764746872635 2.6450336353161292 0
    endloop
  endfacet
  facet normal 0 0 1
    outer loop
      vertex -4.216079578178803 22.101463141395495 0
      vertex -3.6405764746872635 2.6450336353161292 0
      vertex -3.2803588233963525 3.080461976679098 0
    endloop
  endfacet
  facet normal 0 0 1
    outer loop
      vertex -4.216079578178803 22.101463141395495 0
      vertex -3.2803588233963525 3.080461976679098 0
      vertex -2.868407953869103 3.467309592491052 0
    endloop
  endfacet
  facet normal 0 0 1
    outer loop
      vertex -4.216079578178803 22.101463141395495 0
      vertex -2.868407953869103 3.467309592491052 0
      vertex -2.4112205774054853 3.7994756647590675 0
    endloop
  endfacet
  facet normal 0 0 1
    outer loop
      vertex -4.216079578178803 22.101463141395495 0
      vertex -2.4112205774054853 3.7994756647590675 0
      vertex -1.9160068120428273 4.071721736097087 0
    endloop
  endfacet
  facet normal 0 0 1
    outer loop
      vertex -4.216079578178803 22.101463141395495 0
      vertex -1.9160068120428273 4.071721736097087 0
      vertex -1.3905764746872633 4.2797543233281905 0
    endloop
  endfacet
  facet normal 0 0 1
    outer loop
      vertex -1.4127866894095487 22.45560138963611 0
      vertex -1.3905764746872633 4.2797543233281905 0
      vertex -0.8432159156357606 4.420292628279099 0
    endloop
  endfacet
  facet normal 0 0 1
    outer loop
      vertex -1.4127866894095487 22.45560138963611 0
      vertex -0.8432159156357606 4.420292628279099 0
      vertex -0.2825573378819052 4.491120277927222 0
    endloop
  endfacet
  facet normal -0.4817536741017151 0.8763066800438638 0
    outer loop
      vertex -9.580034060214135 20.35860868048544 -4.2
      vertex -12.056102887027427 18.99737832379534 0
      vertex -9.580034060214135 20.35860868048544 0
    endloop
  endfacet
  facet normal -0.3681245526846773 0.9297764858882517 0
    outer loop
      vertex -6.952882373436316 21.398771616640953 -4.2
      vertex -9.580034060214135 20.35860868048544 0
      vertex -6.952882373436316 21.398771616640953 0
    endloop
  endfacet
  facet normal -0.24868988716485535 0.968583161128631 0
    outer loop
      vertex -4.216079578178803 22.101463141395495 -4.2
      vertex -6.952882373436316 21.398771616640953 0
      vertex -4.216079578178803 22.101463141395495 0
    endloop
  endfacet
  facet normal -0.1253332335643047 0.9921147013144778 0
    outer loop
      vertex -1.4127866894095487 22.45560138963611 -4.2
      vertex -4.216079578178803 22.101463141395495 0
      vertex -1.4127866894095487 22.45560138963611 0
    endloop
  endfacet
  facet normal 0 0 1
    outer loop
      vertex -6.952882373436316 21.398771616640953 0
      vertex -4.183994186497132 1.6565604870810504 0
      vertex -4.216079578178803 22.101463141395495 0
    endloop
  endfacet
  facet normal 0 0 1
    outer loop
      vertex -4.216079578178803 22.101463141395495 0
      vertex -1.3905764746872633 4.2797543233281905 0
      vertex -1.4127866894095487 22.45560138963611 0
    endloop
  endfacet
  facet normal 0 0 1
    outer loop
      vertex -1.4127866894095487 22.45560138963611 0
      vertex -0.2825573378819052 4.491120277927222 0
      vertex 1.4127866894095487 22.45560138963611 0
    endloop
  endfacet
  facet normal 0 -1 0
    outer loop
      vertex -1.4127866894095598 -22.45560138963611 -4.2
      vertex 1.4127866894095598 -22.45560138963611 -4.2
      vertex 1.4127866894095598 -22.45560138963611 0
    endloop
  endfacet
  facet normal 0.12533323356430498 -0.9921147013144778 0
    outer loop
      vertex 1.4127866894095598 -22.45560138963611 -4.2
      vertex 4.2160795781788085 -22.101463141395495 -4.2
      vertex 4.2160795781788085 -22.101463141395495 0
    endloop
  endfacet
  facet normal 0.24868988716485585 -0.9685831611286309 0
    outer loop
      vertex 4.2160795781788085 -22.101463141395495 -4.2
      vertex 6.952882373436316 -21.398771616640953 -4.2
      vertex 6.952882373436316 -21.398771616640953 0
    endloop
  endfacet
  facet normal 0.3681245526846779 -0.9297764858882513 0
    outer loop
      vertex 6.952882373436316 -21.398771616640953 -4.2
      vertex 9.58003406021413 -20.35860868048544 -4.2
      vertex 9.58003406021413 -20.35860868048544 0
    endloop
  endfacet
  facet normal 0.48175367410171427 -0.8763066800438643 0
    outer loop
      vertex 9.58003406021413 -20.35860868048544 -4.2
      vertex 12.056102887027414 -18.997378323795346 -4.2
      vertex 12.056102887027414 -18.997378323795346 0
    endloop
  endfacet
  facet normal 0 0 -1
    outer loop
      vertex 1.4127866894095598 -22.45560138963611 -4.2
      vertex -0.1491274838821202 -2.370313480017145 -4.2
      vertex 0.1491274838821202 -2.370313480017145 -4.2
    endloop
  endfacet
  facet normal 0 0 -1
    outer loop
      vertex 1.4127866894095598 -22.45560138963611 -4.2
      vertex 0.1491274838821202 -2.370313480017145 -4.2
      vertex 0.44503062214109645 -2.3329322204806355 -4.2
    endloop
  endfacet
  facet normal 0 0 -1
    outer loop
      vertex 1.4127866894095598 -22.45560138963611 -4.2
      vertex 0.44503062214109645 -2.3329322204806355 -4.2
      vertex 0.7339153616405001 -2.2587592262009895 -4.2
    endloop
  endfacet
  facet normal 0 0 -1
    outer loop
      vertex 1.4127866894095598 -22.45560138963611 -4.2
      vertex 0.7339153616405001 -2.2587592262009895 -4.2
      vertex 1.011225817467047 -2.1489642496067964 -4.2
    endloop
  endfacet
  facet normal 0 0 -1
    outer loop
      vertex 1.4127866894095598 -22.45560138963611 -4.2
      vertex 1.011225817467047 -2.1489642496067964 -4.2
      vertex 1.272588638075116 -2.0052788230672864 -4.2
    endloop
  endfacet
  facet normal 0 0 -1
    outer loop
      vertex 1.4127866894095598 -22.45560138963611 -4.2
      vertex 1.272588638075116 -2.0052788230672864 -4.2
      vertex 1.5138819756531388 -1.829968951592499 -4.2
    endloop
  endfacet
  facet normal 0 0 -1
    outer loop
      vertex 1.4127866894095598 -22.45560138963611 -4.2
      vertex 1.5138819756531388 -1.829968951592499 -4.2
      vertex 1.7313004901258526 -1.6257993765806351 -4.2
    endloop
  endfacet
  facet normal 0 0 -1
    outer loop
      vertex 1.4127866894095598 -22.45560138963611 -4.2
      vertex 1.7313004901258526 -1.6257993765806351 -4.2
      vertex 1.9214153616405003 -1.3959899741946238 -4.2
    endloop
  endfacet
  facet normal 0 0 -1
    outer loop
      vertex 1.4127866894095598 -22.45560138963611 -4.2
      vertex 1.9214153616405003 -1.3959899741946238 -4.2
      vertex 2.0812283651041756 -1.144164975991574 -4.2
    endloop
  endfacet
  facet normal 0 0 -1
    outer loop
      vertex 1.4127866894095598 -22.45560138963611 -4.2
      vertex 2.0812283651041756 -1.144164975991574 -4.2
      vertex 2.208219153984597 -0.8742958126261111 -4.2
    endloop
  endfacet
  facet normal 0 0 -1
    outer loop
      vertex 1.4127866894095598 -22.45560138963611 -4.2
      vertex 2.208219153984597 -0.8742958126261111 -4.2
      vertex 2.3003850076804992 -0.5906384820165292 -4.2
    endloop
  endfacet
  facet normal 0 0 -1
    outer loop
      vertex 1.4127866894095598 -22.45560138963611 -4.2
      vertex 2.3003850076804992 -0.5906384820165292 -4.2
      vertex 2.356272415621885 -0.29766642971522217 -4.2
    endloop
  endfacet
  facet normal 0 0 -1
    outer loop
      vertex 1.4127866894095598 -22.45560138963611 -4.2
      vertex 4.216079578178803 22.101463141395495 -4.2
      vertex 4.2160795781788085 -22.101463141395495 -4.2
    endloop
  endfacet
  facet normal 0 0 -1
    outer loop
      vertex 1.4127866894095598 -22.45560138963611 -4.2
      vertex 2.356272415621885 -0.29766642971522217 -4.2
      vertex 4.216079578178803 22.101463141395495 -4.2
    endloop
  endfacet
  facet normal 0 0 -1
    outer loop
      vertex 4.2160795781788085 -22.101463141395495 -4.2
      vertex 6.952882373436316 21.398771616640953 -4.2
      vertex 6.952882373436316 -21.398771616640953 -4.2
    endloop
  endfacet
  facet normal 0 0 -1
    outer loop
      vertex 6.952882373436316 -21.398771616640953 -4.2
      vertex 9.580034060214135 20.35860868048544 -4.2
      vertex 9.58003406021413 -20.35860868048544 -4.2
    endloop
  endfacet
  facet normal 0 0 -1
    outer loop
      vertex 9.58003406021413 -20.35860868048544 -4.2
      vertex 12.056102887027425 18.99737832379534 -4.2
      vertex 12.056102887027414 -18.997378323795346 -4.2
    endloop
  endfacet
  facet normal 0.5877852522924731 -0.8090169943749473 0
    outer loop
      vertex 12.056102887027414 -18.997378323795346 -4.2
      vertex 14.342039769345524 -17.336547962455253 -4.2
      vertex 14.342039769345524 -17.336547962455253 0
    endloop
  endfacet
  facet normal 0.6845471059286891 -0.7289686274214111 0
    outer loop
      vertex 14.342039769345524 -17.336547962455253 -4.2
      vertex 16.401794116981762 -15.40230988339549 -4.2
      vertex 16.401794116981762 -15.40230988339549 0
    endloop
  endfacet
  facet normal 0.770513242775789 -0.63742398974869 0
    outer loop
      vertex 16.401794116981762 -15.40230988339549 -4.2
      vertex 18.202882373436317 -13.225168176580645 -4.2
      vertex 16.401794116981762 -15.40230988339549 0
    endloop
  endfacet
  facet normal 0.8443279255020152 -0.5358267949789963 0
    outer loop
      vertex 18.202882373436317 -13.225168176580645 -4.2
      vertex 19.71690030098693 -10.839457667288595 -4.2
      vertex 18.202882373436317 -13.225168176580645 0
    endloop
  endfacet
  facet normal 0 0 -1
    outer loop
      vertex 12.056102887027414 -18.997378323795346 -4.2
      vertex 14.342039769345519 17.336547962455256 -4.2
      vertex 14.342039769345524 -17.336547962455253 -4.2
    endloop
  endfacet
  facet normal 0 0 -1
    outer loop
      vertex 14.342039769345524 -17.336547962455253 -4.2
      vertex 16.40179411698176 15.402309883395496 -4.2
      vertex 16.401794116981762 -15.40230988339549 -4.2
    endloop
  endfacet
  facet normal 0 0 -1
    outer loop
      vertex 16.401794116981762 -15.40230988339549 -4.2
      vertex 18.202882373436317 13.225168176580645 -4.2
      vertex 18.202882373436317 -13.225168176580645 -4.2
    endloop
  endfacet
  facet normal 0 0 -1
    outer loop
      vertex 18.202882373436317 -13.225168176580645 -4.2
      vertex 19.716900300986932 10.839457667288595 -4.2
      vertex 19.71690030098693 -10.839457667288595 -4.2
    endloop
  endfacet
  facet normal 0 0 -1
    outer loop
      vertex 19.71690030098693 -10.839457667288595 -4.2
      vertex 20.919970932485654 8.282802435405255 -4.2
      vertex 20.919970932485654 -8.282802435405262 -4.2
    endloop
  endfacet
  facet normal 0 0 -1
    outer loop
      vertex 20.919970932485654 -8.282802435405262 -4.2
      vertex 21.7931211253942 5.5955224612092325 -4.2
      vertex 21.7931211253942 -5.5955224612092245 -4.2
    endloop
  endfacet
  facet normal 0 0 -1
    outer loop
      vertex 21.7931211253942 -5.5955224612092245 -4.2
      vertex 22.322580779575752 2.819997755196846 -4.2
      vertex 22.322580779575752 -2.8199977551968414 -4.2
    endloop
  endfacet
  facet normal 0.9048270524660191 -0.4257792915650735 0
    outer loop
      vertex 19.71690030098693 -10.839457667288595 -4.2
      vertex 20.919970932485654 -8.282802435405262 -4.2
      vertex 19.71690030098693 -10.839457667288595 0
    endloop
  endfacet
  facet normal 0.9510565162951539 -0.30901699437494673 0
    outer loop
      vertex 20.919970932485654 -8.282802435405262 -4.2
      vertex 21.7931211253942 -5.5955224612092245 -4.2
      vertex 20.919970932485654 -8.282802435405262 0
    endloop
  endfacet
  facet normal 0.9822872507286886 -0.18738131458572485 0
    outer loop
      vertex 21.7931211253942 -5.5955224612092245 -4.2
      vertex 22.322580779575752 -2.8199977551968414 -4.2
      vertex 21.7931211253942 -5.5955224612092245 0
    endloop
  endfacet
  facet normal 0.9980267284282716 -0.06279051952931324 0
    outer loop
      vertex 22.322580779575752 -2.8199977551968414 -4.2
      vertex 22.5 0 -4.2
      vertex 22.322580779575752 -2.8199977551968414 0
    endloop
  endfacet
  facet normal 0.12533323356430498 -0.9921147013144778 0
    outer loop
      vertex 1.4127866894095598 -22.45560138963611 -4.2
      vertex 4.2160795781788085 -22.101463141395495 0
      vertex 1.4127866894095598 -22.45560138963611 0
    endloop
  endfacet
  facet normal 0.24868988716485585 -0.9685831611286309 0
    outer loop
      vertex 4.2160795781788085 -22.101463141395495 -4.2
      vertex 6.952882373436316 -21.398771616640953 0
      vertex 4.2160795781788085 -22.101463141395495 0
    endloop
  endfacet
  facet normal 0.3681245526846779 -0.9297764858882513 0
    outer loop
      vertex 6.952882373436316 -21.398771616640953 -4.2
      vertex 9.58003406021413 -20.35860868048544 0
      vertex 6.952882373436316 -21.398771616640953 0
    endloop
  endfacet
  facet normal 0.48175367410171427 -0.8763066800438643 0
    outer loop
      vertex 9.58003406021413 -20.35860868048544 -4.2
      vertex 12.056102887027414 -18.997378323795346 0
      vertex 9.58003406021413 -20.35860868048544 0
    endloop
  endfacet
  facet normal 0 0 1
    outer loop
      vertex -1.4127866894095598 -22.45560138963611 0
      vertex 1.4127866894095598 -22.45560138963611 0
      vertex 0.28255733788191195 -4.491120277927222 0
    endloop
  endfacet
  facet normal 0 0 1
    outer loop
      vertex 1.4127866894095598 -22.45560138963611 0
      vertex 4.2160795781788085 -22.101463141395495 0
      vertex 1.3905764746872633 -4.2797543233281905 0
    endloop
  endfacet
  facet normal 0 0 1
    outer loop
      vertex 4.2160795781788085 -22.101463141395495 0
      vertex 6.952882373436316 -21.398771616640953 0
      vertex 4.183994186497131 -1.6565604870810526 0
    endloop
  endfacet
  facet normal 0 0 1
    outer loop
      vertex 1.4127866894095598 -22.45560138963611 0
      vertex 0.8432159156357617 -4.420292628279099 0
      vertex 0.28255733788191195 -4.491120277927222 0
    endloop
  endfacet
  facet normal 0 0 1
    outer loop
      vertex 1.4127866894095598 -22.45560138963611 0
      vertex 1.3905764746872633 -4.2797543233281905 0
      vertex 0.8432159156357617 -4.420292628279099 0
    endloop
  endfacet
  facet normal 0 0 1
    outer loop
      vertex 4.2160795781788085 -22.101463141395495 0
      vertex 1.916006812042826 -4.071721736097088 0
      vertex 1.3905764746872633 -4.2797543233281905 0
    endloop
  endfacet
  facet normal 0 0 1
    outer loop
      vertex 4.2160795781788085 -22.101463141395495 0
      vertex 2.411220577405483 -3.799475664759069 0
      vertex 1.916006812042826 -4.071721736097088 0
    endloop
  endfacet
  facet normal 0 0 1
    outer loop
      vertex 4.2160795781788085 -22.101463141395495 0
      vertex 2.868407953869105 -3.4673095924910506 0
      vertex 2.411220577405483 -3.799475664759069 0
    endloop
  endfacet
  facet normal 0 0 1
    outer loop
      vertex 4.2160795781788085 -22.101463141395495 0
      vertex 3.2803588233963525 -3.080461976679098 0
      vertex 2.868407953869105 -3.4673095924910506 0
    endloop
  endfacet
  facet normal 0 0 1
    outer loop
      vertex 4.2160795781788085 -22.101463141395495 0
      vertex 3.6405764746872635 -2.6450336353161292 0
      vertex 3.2803588233963525 -3.080461976679098 0
    endloop
  endfacet
  facet normal 0 0 1
    outer loop
      vertex 4.2160795781788085 -22.101463141395495 0
      vertex 3.9433800601973856 -2.1678915334577193 0
      vertex 3.6405764746872635 -2.6450336353161292 0
    endloop
  endfacet
  facet normal 0 0 1
    outer loop
      vertex 4.2160795781788085 -22.101463141395495 0
      vertex 4.183994186497131 -1.6565604870810526 0
      vertex 3.9433800601973856 -2.1678915334577193 0
    endloop
  endfacet
  facet normal 0 0 1
    outer loop
      vertex 6.952882373436316 -21.398771616640953 0
      vertex 4.358624225078841 -1.119104492241845 0
      vertex 4.183994186497131 -1.6565604870810526 0
    endloop
  endfacet
  facet normal 0 0 1
    outer loop
      vertex 6.952882373436316 -21.398771616640953 0
      vertex 4.464516155915151 -0.5639995510393683 0
      vertex 4.358624225078841 -1.119104492241845 0
    endloop
  endfacet
  facet normal 0 0 1
    outer loop
      vertex 6.952882373436316 -21.398771616640953 0
      vertex 4.5 0 0
      vertex 4.464516155915151 -0.5639995510393683 0
    endloop
  endfacet
  facet normal 0 0 1
    outer loop
      vertex 6.952882373436316 -21.398771616640953 0
      vertex 4.464516155915151 0.5639995510393692 0
      vertex 4.5 0 0
    endloop
  endfacet
  facet normal 0 0 1
    outer loop
      vertex 6.952882373436316 -21.398771616640953 0
      vertex 9.58003406021413 -20.35860868048544 0
      vertex 6.952882373436316 21.398771616640953 0
    endloop
  endfacet
  facet normal 0 0 1
    outer loop
      vertex 9.58003406021413 -20.35860868048544 0
      vertex 12.056102887027414 -18.997378323795346 0
      vertex 9.580034060214135 20.35860868048544 0
    endloop
  endfacet
  facet normal 0.5877852522924731 -0.8090169943749473 0
    outer loop
      vertex 12.056102887027414 -18.997378323795346 -4.2
      vertex 14.342039769345524 -17.336547962455253 0
      vertex 12.056102887027414 -18.997378323795346 0
    endloop
  endfacet
  facet normal 0.6845471059286891 -0.7289686274214111 0
    outer loop
      vertex 14.342039769345524 -17.336547962455253 -4.2
      vertex 16.401794116981762 -15.40230988339549 0
      vertex 14.342039769345524 -17.336547962455253 0
    endloop
  endfacet
  facet normal 0.770513242775789 -0.63742398974869 0
    outer loop
      vertex 18.202882373436317 -13.225168176580645 -4.2
      vertex 18.202882373436317 -13.225168176580645 0
      vertex 16.401794116981762 -15.40230988339549 0
    endloop
  endfacet
  facet normal 0.8443279255020152 -0.5358267949789963 0
    outer loop
      vertex 19.71690030098693 -10.839457667288595 -4.2
      vertex 19.71690030098693 -10.839457667288595 0
      vertex 18.202882373436317 -13.225168176580645 0
    endloop
  endfacet
  facet normal 0.9048270524660191 -0.4257792915650735 0
    outer loop
      vertex 20.919970932485654 -8.282802435405262 -4.2
      vertex 20.919970932485654 -8.282802435405262 0
      vertex 19.71690030098693 -10.839457667288595 0
    endloop
  endfacet
  facet normal 0.9510565162951539 -0.30901699437494673 0
    outer loop
      vertex 21.7931211253942 -5.5955224612092245 -4.2
      vertex 21.7931211253942 -5.5955224612092245 0
      vertex 20.919970932485654 -8.282802435405262 0
    endloop
  endfacet
  facet normal 0.9822872507286886 -0.18738131458572485 0
    outer loop
      vertex 22.322580779575752 -2.8199977551968414 -4.2
      vertex 22.322580779575752 -2.8199977551968414 0
      vertex 21.7931211253942 -5.5955224612092245 0
    endloop
  endfacet
  facet normal 0.9980267284282716 -0.06279051952931324 0
    outer loop
      vertex 22.322580779575752 -2.8199977551968414 0
      vertex 22.5 0 -4.2
      vertex 22.5 0 0
    endloop
  endfacet
  facet normal 0 0 1
    outer loop
      vertex 12.056102887027414 -18.997378323795346 0
      vertex 14.342039769345524 -17.336547962455253 0
      vertex 12.056102887027425 18.99737832379534 0
    endloop
  endfacet
  facet normal 0 0 1
    outer loop
      vertex 14.342039769345524 -17.336547962455253 0
      vertex 16.401794116981762 -15.40230988339549 0
      vertex 14.342039769345519 17.336547962455256 0
    endloop
  endfacet
  facet normal 0 0 1
    outer loop
      vertex 16.401794116981762 -15.40230988339549 0
      vertex 18.202882373436317 -13.225168176580645 0
      vertex 16.40179411698176 15.402309883395496 0
    endloop
  endfacet
  facet normal 0 0 1
    outer loop
      vertex 18.202882373436317 -13.225168176580645 0
      vertex 19.71690030098693 -10.839457667288595 0
      vertex 18.202882373436317 13.225168176580645 0
    endloop
  endfacet
  facet normal 0 0 1
    outer loop
      vertex 19.71690030098693 -10.839457667288595 0
      vertex 20.919970932485654 -8.282802435405262 0
      vertex 19.716900300986932 10.839457667288595 0
    endloop
  endfacet
  facet normal 0 0 1
    outer loop
      vertex 20.919970932485654 -8.282802435405262 0
      vertex 21.7931211253942 -5.5955224612092245 0
      vertex 20.919970932485654 8.282802435405255 0
    endloop
  endfacet
  facet normal 0 0 1
    outer loop
      vertex 21.7931211253942 -5.5955224612092245 0
      vertex 22.322580779575752 -2.8199977551968414 0
      vertex 21.7931211253942 5.5955224612092325 0
    endloop
  endfacet
  facet normal 0 0 -1
    outer loop
      vertex 4.216079578178803 22.101463141395495 -4.2
      vertex 1.9214153616405003 1.3959899741946238 -4.2
      vertex 1.7313004901258524 1.6257993765806358 -4.2
    endloop
  endfacet
  facet normal 0 0 -1
    outer loop
      vertex 4.216079578178803 22.101463141395495 -4.2
      vertex 2.081228365104176 1.144164975991574 -4.2
      vertex 1.9214153616405003 1.3959899741946238 -4.2
    endloop
  endfacet
  facet normal 0 0 -1
    outer loop
      vertex 1.4127866894095487 22.45560138963611 -4.2
      vertex 0.44503062214109584 2.3329322204806355 -4.2
      vertex 0.14912748388211408 2.370313480017145 -4.2
    endloop
  endfacet
  facet normal 0 0 -1
    outer loop
      vertex 1.4127866894095487 22.45560138963611 -4.2
      vertex 0.7339153616405001 2.2587592262009895 -4.2
      vertex 0.44503062214109584 2.3329322204806355 -4.2
    endloop
  endfacet
  facet normal 0 0 -1
    outer loop
      vertex 1.4127866894095487 22.45560138963611 -4.2
      vertex 1.0112258174670476 2.1489642496067964 -4.2
      vertex 0.7339153616405001 2.2587592262009895 -4.2
    endloop
  endfacet
  facet normal 0 0 -1
    outer loop
      vertex 1.4127866894095487 22.45560138963611 -4.2
      vertex 1.272588638075117 2.005278823067286 -4.2
      vertex 1.0112258174670476 2.1489642496067964 -4.2
    endloop
  endfacet
  facet normal 0 0 -1
    outer loop
      vertex 4.216079578178803 22.101463141395495 -4.2
      vertex 1.513881975653138 1.8299689515924993 -4.2
      vertex 1.272588638075117 2.005278823067286 -4.2
    endloop
  endfacet
  facet normal 0 0 -1
    outer loop
      vertex 4.216079578178803 22.101463141395495 -4.2
      vertex 1.7313004901258524 1.6257993765806358 -4.2
      vertex 1.513881975653138 1.8299689515924993 -4.2
    endloop
  endfacet
  facet normal 0 0 -1
    outer loop
      vertex 4.216079578178803 22.101463141395495 -4.2
      vertex 2.356272415621885 -0.29766642971522217 -4.2
      vertex 2.375 0 -4.2
    endloop
  endfacet
  facet normal 0 0 -1
    outer loop
      vertex 4.216079578178803 22.101463141395495 -4.2
      vertex 2.375 0 -4.2
      vertex 2.356272415621885 0.2976664297152226 -4.2
    endloop
  endfacet
  facet normal 0 0 -1
    outer loop
      vertex 4.216079578178803 22.101463141395495 -4.2
      vertex 2.356272415621885 0.2976664297152226 -4.2
      vertex 2.300385007680499 0.5906384820165301 -4.2
    endloop
  endfacet
  facet normal 0 0 -1
    outer loop
      vertex 4.216079578178803 22.101463141395495 -4.2
      vertex 2.300385007680499 0.5906384820165301 -4.2
      vertex 2.208219153984597 0.8742958126261102 -4.2
    endloop
  endfacet
  facet normal 0 0 -1
    outer loop
      vertex 4.216079578178803 22.101463141395495 -4.2
      vertex 2.208219153984597 0.8742958126261102 -4.2
      vertex 2.081228365104176 1.144164975991574 -4.2
    endloop
  endfacet
  facet normal 0 0 -1
    outer loop
      vertex 4.2160795781788085 -22.101463141395495 -4.2
      vertex 4.216079578178803 22.101463141395495 -4.2
      vertex 6.952882373436316 21.398771616640953 -4.2
    endloop
  endfacet
  facet normal 0 0 -1
    outer loop
      vertex 6.952882373436316 -21.398771616640953 -4.2
      vertex 6.952882373436316 21.398771616640953 -4.2
      vertex 9.580034060214135 20.35860868048544 -4.2
    endloop
  endfacet
  facet normal 0 0 -1
    outer loop
      vertex 9.58003406021413 -20.35860868048544 -4.2
      vertex 9.580034060214135 20.35860868048544 -4.2
      vertex 12.056102887027425 18.99737832379534 -4.2
    endloop
  endfacet
  facet normal 0 0 -1
    outer loop
      vertex -1.4127866894095487 22.45560138963611 -4.2
      vertex 1.4127866894095487 22.45560138963611 -4.2
      vertex 0.14912748388211408 2.370313480017145 -4.2
    endloop
  endfacet
  facet normal 0 0 -1
    outer loop
      vertex 1.4127866894095487 22.45560138963611 -4.2
      vertex 4.216079578178803 22.101463141395495 -4.2
      vertex 1.272588638075117 2.005278823067286 -4.2
    endloop
  endfacet
  facet normal 0.1253332335643047 0.9921147013144778 0
    outer loop
      vertex 1.4127866894095487 22.45560138963611 -4.2
      vertex 1.4127866894095487 22.45560138963611 0
      vertex 4.216079578178803 22.101463141395495 -4.2
    endloop
  endfacet
  facet normal 0.24868988716485535 0.968583161128631 0
    outer loop
      vertex 4.216079578178803 22.101463141395495 -4.2
      vertex 4.216079578178803 22.101463141395495 0
      vertex 6.952882373436316 21.398771616640953 -4.2
    endloop
  endfacet
  facet normal 0.3681245526846773 0.9297764858882517 0
    outer loop
      vertex 6.952882373436316 21.398771616640953 -4.2
      vertex 6.952882373436316 21.398771616640953 0
      vertex 9.580034060214135 20.35860868048544 -4.2
    endloop
  endfacet
  facet normal 0.4817536741017153 0.8763066800438636 0
    outer loop
      vertex 9.580034060214135 20.35860868048544 -4.2
      vertex 9.580034060214135 20.35860868048544 0
      vertex 12.056102887027425 18.99737832379534 -4.2
    endloop
  endfacet
  facet normal 0 0 -1
    outer loop
      vertex 14.342039769345524 -17.336547962455253 -4.2
      vertex 14.342039769345519 17.336547962455256 -4.2
      vertex 16.40179411698176 15.402309883395496 -4.2
    endloop
  endfacet
  facet normal 0 0 -1
    outer loop
      vertex 12.056102887027414 -18.997378323795346 -4.2
      vertex 12.056102887027425 18.99737832379534 -4.2
      vertex 14.342039769345519 17.336547962455256 -4.2
    endloop
  endfacet
  facet normal 0 0 -1
    outer loop
      vertex 16.401794116981762 -15.40230988339549 -4.2
      vertex 16.40179411698176 15.402309883395496 -4.2
      vertex 18.202882373436317 13.225168176580645 -4.2
    endloop
  endfacet
  facet normal 0 0 -1
    outer loop
      vertex 18.202882373436317 -13.225168176580645 -4.2
      vertex 18.202882373436317 13.225168176580645 -4.2
      vertex 19.716900300986932 10.839457667288595 -4.2
    endloop
  endfacet
  facet normal 0 0 -1
    outer loop
      vertex 19.71690030098693 -10.839457667288595 -4.2
      vertex 19.716900300986932 10.839457667288595 -4.2
      vertex 20.919970932485654 8.282802435405255 -4.2
    endloop
  endfacet
  facet normal 0 0 -1
    outer loop
      vertex 22.322580779575752 -2.8199977551968414 -4.2
      vertex 22.322580779575752 2.819997755196846 -4.2
      vertex 22.5 0 -4.2
    endloop
  endfacet
  facet normal 0 0 -1
    outer loop
      vertex 21.7931211253942 -5.5955224612092245 -4.2
      vertex 21.7931211253942 5.5955224612092325 -4.2
      vertex 22.322580779575752 2.819997755196846 -4.2
    endloop
  endfacet
  facet normal 0 0 -1
    outer loop
      vertex 20.919970932485654 -8.282802435405262 -4.2
      vertex 20.919970932485654 8.282802435405255 -4.2
      vertex 21.7931211253942 5.5955224612092325 -4.2
    endloop
  endfacet
  facet normal 0.9980267284282716 0.06279051952931314 0
    outer loop
      vertex 22.5 0 -4.2
      vertex 22.322580779575752 2.819997755196846 -4.2
      vertex 22.5 0 0
    endloop
  endfacet
  facet normal 0.9822872507286886 0.18738131458572463 0
    outer loop
      vertex 22.322580779575752 2.819997755196846 -4.2
      vertex 21.7931211253942 5.5955224612092325 -4.2
      vertex 22.322580779575752 2.819997755196846 0
    endloop
  endfacet
  facet normal 0.9510565162951533 0.30901699437494834 0
    outer loop
      vertex 21.7931211253942 5.5955224612092325 -4.2
      vertex 20.919970932485654 8.282802435405255 -4.2
      vertex 21.7931211253942 5.5955224612092325 0
    endloop
  endfacet
  facet normal 0.90482705246602 0.42577929156507144 0
    outer loop
      vertex 20.919970932485654 8.282802435405255 -4.2
      vertex 19.716900300986932 10.839457667288595 -4.2
      vertex 20.919970932485654 8.282802435405255 0
    endloop
  endfacet
  facet normal 0.6845471059286885 0.7289686274214118 0
    outer loop
      vertex 16.40179411698176 15.402309883395496 -4.2
      vertex 14.342039769345519 17.336547962455256 -4.2
      vertex 14.342039769345519 17.336547962455256 0
    endloop
  endfacet
  facet normal 0.5877852522924734 0.8090169943749472 0
    outer loop
      vertex 12.056102887027425 18.99737832379534 -4.2
      vertex 12.056102887027425 18.99737832379534 0
      vertex 14.342039769345519 17.336547962455256 -4.2
    endloop
  endfacet
  facet normal 0.7705132427757891 0.6374239897486897 0
    outer loop
      vertex 16.40179411698176 15.402309883395496 -4.2
      vertex 18.202882373436317 13.225168176580645 0
      vertex 18.202882373436317 13.225168176580645 -4.2
    endloop
  endfacet
  facet normal 0.8443279255020147 0.5358267949789972 0
    outer loop
      vertex 19.716900300986932 10.839457667288595 -4.2
      vertex 18.202882373436317 13.225168176580645 -4.2
      vertex 19.716900300986932 10.839457667288595 0
    endloop
  endfacet
  facet normal 0 0 1
    outer loop
      vertex 6.952882373436316 -21.398771616640953 0
      vertex 4.216079578178803 22.101463141395495 0
      vertex 4.464516155915151 0.5639995510393692 0
    endloop
  endfacet
  facet normal 0 0 1
    outer loop
      vertex 1.4127866894095487 22.45560138963611 0
      vertex -0.2825573378819052 4.491120277927222 0
      vertex 0.28255733788190973 4.491120277927222 0
    endloop
  endfacet
  facet normal 0 0 1
    outer loop
      vertex 1.4127866894095487 22.45560138963611 0
      vertex 0.28255733788190973 4.491120277927222 0
      vertex 0.8432159156357606 4.420292628279099 0
    endloop
  endfacet
  facet normal 0 0 1
    outer loop
      vertex 1.4127866894095487 22.45560138963611 0
      vertex 0.8432159156357606 4.420292628279099 0
      vertex 1.3905764746872633 4.2797543233281905 0
    endloop
  endfacet
  facet normal 0 0 1
    outer loop
      vertex 1.4127866894095487 22.45560138963611 0
      vertex 1.3905764746872633 4.2797543233281905 0
      vertex 1.9160068120428273 4.071721736097087 0
    endloop
  endfacet
  facet normal 0 0 1
    outer loop
      vertex 1.4127866894095487 22.45560138963611 0
      vertex 1.9160068120428273 4.071721736097087 0
      vertex 2.411220577405485 3.799475664759068 0
    endloop
  endfacet
  facet normal 0 0 1
    outer loop
      vertex 1.4127866894095487 22.45560138963611 0
      vertex 2.411220577405485 3.799475664759068 0
      vertex 2.868407953869104 3.467309592491051 0
    endloop
  endfacet
  facet normal 0 0 1
    outer loop
      vertex 4.216079578178803 22.101463141395495 0
      vertex 4.35862422507884 1.1191044922418465 0
      vertex 4.464516155915151 0.5639995510393692 0
    endloop
  endfacet
  facet normal 0 0 1
    outer loop
      vertex 4.216079578178803 22.101463141395495 0
      vertex 4.183994186497131 1.6565604870810509 0
      vertex 4.35862422507884 1.1191044922418465 0
    endloop
  endfacet
  facet normal 0 0 1
    outer loop
      vertex 4.216079578178803 22.101463141395495 0
      vertex 2.868407953869104 3.467309592491051 0
      vertex 3.280358823396352 3.080461976679099 0
    endloop
  endfacet
  facet normal 0 0 1
    outer loop
      vertex 4.216079578178803 22.101463141395495 0
      vertex 3.943380060197386 2.167891533457719 0
      vertex 4.183994186497131 1.6565604870810509 0
    endloop
  endfacet
  facet normal 0 0 1
    outer loop
      vertex 4.216079578178803 22.101463141395495 0
      vertex 3.6405764746872635 2.6450336353161292 0
      vertex 3.943380060197386 2.167891533457719 0
    endloop
  endfacet
  facet normal 0 0 1
    outer loop
      vertex 4.216079578178803 22.101463141395495 0
      vertex 3.280358823396352 3.080461976679099 0
      vertex 3.6405764746872635 2.6450336353161292 0
    endloop
  endfacet
  facet normal 0 0 1
    outer loop
      vertex 6.952882373436316 -21.398771616640953 0
      vertex 6.952882373436316 21.398771616640953 0
      vertex 4.216079578178803 22.101463141395495 0
    endloop
  endfacet
  facet normal 0 0 1
    outer loop
      vertex 9.58003406021413 -20.35860868048544 0
      vertex 9.580034060214135 20.35860868048544 0
      vertex 6.952882373436316 21.398771616640953 0
    endloop
  endfacet
  facet normal 0 0 1
    outer loop
      vertex 12.056102887027414 -18.997378323795346 0
      vertex 12.056102887027425 18.99737832379534 0
      vertex 9.580034060214135 20.35860868048544 0
    endloop
  endfacet
  facet normal 0 1 0
    outer loop
      vertex -1.4127866894095487 22.45560138963611 0
      vertex 1.4127866894095487 22.45560138963611 0
      vertex 1.4127866894095487 22.45560138963611 -4.2
    endloop
  endfacet
  facet normal 0.1253332335643047 0.9921147013144778 0
    outer loop
      vertex 4.216079578178803 22.101463141395495 -4.2
      vertex 1.4127866894095487 22.45560138963611 0
      vertex 4.216079578178803 22.101463141395495 0
    endloop
  endfacet
  facet normal 0.24868988716485535 0.968583161128631 0
    outer loop
      vertex 6.952882373436316 21.398771616640953 -4.2
      vertex 4.216079578178803 22.101463141395495 0
      vertex 6.952882373436316 21.398771616640953 0
    endloop
  endfacet
  facet normal 0.4817536741017153 0.8763066800438636 0
    outer loop
      vertex 12.056102887027425 18.99737832379534 -4.2
      vertex 9.580034060214135 20.35860868048544 0
      vertex 12.056102887027425 18.99737832379534 0
    endloop
  endfacet
  facet normal 0.3681245526846773 0.9297764858882517 0
    outer loop
      vertex 9.580034060214135 20.35860868048544 -4.2
      vertex 6.952882373436316 21.398771616640953 0
      vertex 9.580034060214135 20.35860868048544 0
    endloop
  endfacet
  facet normal 0 0 1
    outer loop
      vertex 1.4127866894095487 22.45560138963611 0
      vertex 2.868407953869104 3.467309592491051 0
      vertex 4.216079578178803 22.101463141395495 0
    endloop
  endfacet
  facet normal 0.9980267284282716 0.06279051952931314 0
    outer loop
      vertex 22.322580779575752 2.819997755196846 -4.2
      vertex 22.322580779575752 2.819997755196846 0
      vertex 22.5 0 0
    endloop
  endfacet
  facet normal 0.9822872507286886 0.18738131458572463 0
    outer loop
      vertex 21.7931211253942 5.5955224612092325 -4.2
      vertex 21.7931211253942 5.5955224612092325 0
      vertex 22.322580779575752 2.819997755196846 0
    endloop
  endfacet
  facet normal 0.9510565162951533 0.30901699437494834 0
    outer loop
      vertex 20.919970932485654 8.282802435405255 -4.2
      vertex 20.919970932485654 8.282802435405255 0
      vertex 21.7931211253942 5.5955224612092325 0
    endloop
  endfacet
  facet normal 0.90482705246602 0.42577929156507144 0
    outer loop
      vertex 19.716900300986932 10.839457667288595 -4.2
      vertex 19.716900300986932 10.839457667288595 0
      vertex 20.919970932485654 8.282802435405255 0
    endloop
  endfacet
  facet normal 0 0 1
    outer loop
      vertex 14.342039769345524 -17.336547962455253 0
      vertex 14.342039769345519 17.336547962455256 0
      vertex 12.056102887027425 18.99737832379534 0
    endloop
  endfacet
  facet normal 0 0 1
    outer loop
      vertex 16.401794116981762 -15.40230988339549 0
      vertex 16.40179411698176 15.402309883395496 0
      vertex 14.342039769345519 17.336547962455256 0
    endloop
  endfacet
  facet normal 0 0 1
    outer loop
      vertex 18.202882373436317 -13.225168176580645 0
      vertex 18.202882373436317 13.225168176580645 0
      vertex 16.40179411698176 15.402309883395496 0
    endloop
  endfacet
  facet normal 0 0 1
    outer loop
      vertex 19.71690030098693 -10.839457667288595 0
      vertex 19.716900300986932 10.839457667288595 0
      vertex 18.202882373436317 13.225168176580645 0
    endloop
  endfacet
  facet normal 0 0 1
    outer loop
      vertex 22.322580779575752 -2.8199977551968414 0
      vertex 22.5 0 0
      vertex 22.322580779575752 2.819997755196846 0
    endloop
  endfacet
  facet normal 0 0 1
    outer loop
      vertex 21.7931211253942 -5.5955224612092245 0
      vertex 21.7931211253942 5.5955224612092325 0
      vertex 20.919970932485654 8.282802435405255 0
    endloop
  endfacet
  facet normal 0 0 1
    outer loop
      vertex 22.322580779575752 -2.8199977551968414 0
      vertex 22.322580779575752 2.819997755196846 0
      vertex 21.7931211253942 5.5955224612092325 0
    endloop
  endfacet
  facet normal 0 0 1
    outer loop
      vertex 20.919970932485654 -8.282802435405262 0
      vertex 20.919970932485654 8.282802435405255 0
      vertex 19.716900300986932 10.839457667288595 0
    endloop
  endfacet
  facet normal 0.6845471059286885 0.7289686274214118 0
    outer loop
      vertex 16.40179411698176 15.402309883395496 -4.2
      vertex 14.342039769345519 17.336547962455256 0
      vertex 16.40179411698176 15.402309883395496 0
    endloop
  endfacet
  facet normal 0.5877852522924734 0.8090169943749472 0
    outer loop
      vertex 14.342039769345519 17.336547962455256 -4.2
      vertex 12.056102887027425 18.99737832379534 0
      vertex 14.342039769345519 17.336547962455256 0
    endloop
  endfacet
  facet normal 0.8443279255020147 0.5358267949789972 0
    outer loop
      vertex 18.202882373436317 13.225168176580645 -4.2
      vertex 18.202882373436317 13.225168176580645 0
      vertex 19.716900300986932 10.839457667288595 0
    endloop
  endfacet
  facet normal 0.7705132427757891 0.6374239897486897 0
    outer loop
      vertex 16.40179411698176 15.402309883395496 -4.2
      vertex 16.40179411698176 15.402309883395496 0
      vertex 18.202882373436317 13.225168176580645 0
    endloop
  endfacet
endsolid OpenSCAD_Model
