solid OpenSCAD_Model
  facet normal 0.3938511796555829 0.2499455589699596 0.8845385609656032
    outer loop
      vertex -1.2539763412811686 -0.9110671410533334 -1
      vertex -1.3582753540679884 -0.7467181948576589 -1
      vertex -2.791108630593569 -2.0278591204090324 0
    endloop
  endfacet
  facet normal 0.4220720305870955 0.19861202169301242 0.8845385609656033
    outer loop
      vertex -1.4411535531267898 -0.5705930566612507 -1
      vertex -3.023258046151329 -1.662050175650918 0
      vertex -1.3582753540679884 -0.7467181948576589 -1
    endloop
  endfacet
  facet normal 0.44363655346264064 0.14414625418889432 0.8845385609656031
    outer loop
      vertex -1.4411535531267898 -0.5705930566612507 -1
      vertex -1.5013038997493782 -0.385469325105525 -1
      vertex -3.2077288763144676 -1.2700297067621387 0
    endloop
  endfacet
  facet normal 0.4582046628744483 0.08740721414742016 0.8845385609656032
    outer loop
      vertex -1.5013038997493782 -0.385469325105525 -1
      vertex -1.5377777870374407 -0.1942665120246713 -1
      vertex -3.341611905893777 -0.8579801107187492 0
    endloop
  endfacet
  facet normal 0.465546611034528 0.02928971012430158 0.8845385609656033
    outer loop
      vertex -1.5377777870374407 -0.1942665120246713 -1
      vertex -1.55 0 -1
      vertex -3.4227957195349488 -0.432399655796849 0
    endloop
  endfacet
  facet normal 0.2741824686917717 0.37737979281750816 0.8845385609656033
    outer loop
      vertex -0.830531532217445 -1.3087082845281233 -1
      vertex -0.988007184110469 -1.1942955263024735 -1
      vertex -1.848602442677539 -2.9129313429819517 0
    endloop
  endfacet
  facet normal 0.22472222831615782 0.40876821582104506 0.8845385609656032
    outer loop
      vertex -0.6599579019258623 -1.4024819313223305 -1
      vertex -0.830531532217445 -1.3087082845281233 -1
      vertex -1.4689385558995 -3.1216533310077677 0
    endloop
  endfacet
  facet normal 0.1717179841574454 0.4337101198747881 0.8845385609656031
    outer loop
      vertex -0.47897634128116845 -1.474137600257488 -1
      vertex -0.6599579019258623 -1.4024819313223305 -1
      vertex -1.0661086305935685 -3.28114498121828 0
    endloop
  endfacet
  facet normal 0.11600564480921949 0.4518121562522383 0.8845385609656033
    outer loop
      vertex -0.2904410376078735 -1.5225452386294673 -1
      vertex -0.47897634128116845 -1.474137600257488 -1
      vertex -0.6464655353207507 -3.388891015013976 0
    endloop
  endfacet
  facet normal 0.05846382714393903 0.4627888450260911 0.8845385609656033
    outer loop
      vertex -0.09732530527043634 -1.546941429063821 -1
      vertex -0.2904410376078735 -1.5225452386294673 -1
      vertex -0.21662729237613249 -3.443192213077537 0
    endloop
  endfacet
  facet normal 0.35941906034561033 0.2973373054717121 0.8845385609656032
    outer loop
      vertex -1.1299013725031881 -1.0610480141894671 -1
      vertex -1.2539763412811686 -0.9110671410533334 -1
      vertex -2.5149417646038703 -2.3616875154539754 0
    endloop
  endfacet
  facet normal 0.31931868774744887 0.34003986504547806 0.8845385609656033
    outer loop
      vertex -0.988007184110469 -1.1942955263024735 -1
      vertex -1.1299013725031881 -1.0610480141894671 -1
      vertex -2.1991127646329796 -2.6582706875764734 0
    endloop
  endfacet
  facet normal 0.3594190603456105 0.29733730547171205 0.8845385609656032
    outer loop
      vertex -2.791108630593569 -2.0278591204090324 0
      vertex -2.5149417646038703 -2.3616875154539754 0
      vertex -1.2539763412811686 -0.9110671410533334 -1
    endloop
  endfacet
  facet normal 0.31931868774744915 0.3400398650454779 0.8845385609656032
    outer loop
      vertex -2.5149417646038703 -2.3616875154539754 0
      vertex -2.1991127646329796 -2.6582706875764734 0
      vertex -1.1299013725031881 -1.0610480141894671 -1
    endloop
  endfacet
  facet normal 0.44363655346264064 0.14414625418889448 0.8845385609656032
    outer loop
      vertex -3.341611905893777 -0.8579801107187492 0
      vertex -3.2077288763144676 -1.2700297067621387 0
      vertex -1.5013038997493782 -0.385469325105525 -1
    endloop
  endfacet
  facet normal 0.4582046628744482 0.08740721414742021 0.8845385609656033
    outer loop
      vertex -3.4227957195349488 -0.432399655796849 0
      vertex -3.341611905893777 -0.8579801107187492 0
      vertex -1.5377777870374407 -0.1942665120246713 -1
    endloop
  endfacet
  facet normal 0.465546611034528 0.029289710124301604 0.8845385609656032
    outer loop
      vertex -3.45 0 0
      vertex -3.4227957195349488 -0.432399655796849 0
      vertex -1.55 0 -1
    endloop
  endfacet
  facet normal 0.39385117965558275 0.24994555896995976 0.8845385609656033
    outer loop
      vertex -3.023258046151329 -1.662050175650918 0
      vertex -2.791108630593569 -2.0278591204090324 0
      vertex -1.3582753540679884 -0.7467181948576589 -1
    endloop
  endfacet
  facet normal 0.42207203058709564 0.19861202169301218 0.8845385609656032
    outer loop
      vertex -1.4411535531267898 -0.5705930566612507 -1
      vertex -3.2077288763144676 -1.2700297067621387 0
      vertex -3.023258046151329 -1.662050175650918 0
    endloop
  endfacet
  facet normal 0.27418246869177126 0.3773797928175084 0.8845385609656033
    outer loop
      vertex -2.1991127646329796 -2.6582706875764734 0
      vertex -1.848602442677539 -2.9129313429819517 0
      vertex -0.988007184110469 -1.1942955263024735 -1
    endloop
  endfacet
  facet normal 0.22472222831615782 0.40876821582104506 0.8845385609656032
    outer loop
      vertex -1.848602442677539 -2.9129313429819517 0
      vertex -1.4689385558995 -3.1216533310077677 0
      vertex -0.830531532217445 -1.3087082845281233 -1
    endloop
  endfacet
  facet normal 0.17171798415744569 0.433710119874788 0.8845385609656032
    outer loop
      vertex -1.4689385558995 -3.1216533310077677 0
      vertex -1.0661086305935685 -3.28114498121828 0
      vertex -0.6599579019258623 -1.4024819313223305 -1
    endloop
  endfacet
  facet normal 0.11600564480921959 0.4518121562522382 0.8845385609656032
    outer loop
      vertex -1.0661086305935685 -3.28114498121828 0
      vertex -0.6464655353207507 -3.388891015013976 0
      vertex -0.47897634128116845 -1.474137600257488 -1
    endloop
  endfacet
  facet normal 0.05846382714393881 0.46278884502609113 0.8845385609656032
    outer loop
      vertex -0.6464655353207507 -3.388891015013976 0
      vertex -0.21662729237613249 -3.443192213077537 0
      vertex -0.2904410376078735 -1.5225452386294673 -1
    endloop
  endfacet
  facet normal 0 0.46646707725722697 0.8845385609656033
    outer loop
      vertex -0.21662729237613249 -3.443192213077537 0
      vertex 0.21662729237613249 -3.443192213077537 0
      vertex -0.09732530527043634 -1.546941429063821 -1
    endloop
  endfacet
  facet normal 0.46554661103452805 -0.029289710124301583 0.8845385609656032
    outer loop
      vertex -1.55 0 -1
      vertex -1.5377777870374407 0.1942665120246713 -1
      vertex -3.4227957195349488 0.432399655796849 0
    endloop
  endfacet
  facet normal 0.4582046628744483 -0.08740721414742016 0.8845385609656032
    outer loop
      vertex -1.5377777870374407 0.1942665120246713 -1
      vertex -1.5013038997493782 0.385469325105525 -1
      vertex -3.341611905893777 0.8579801107187492 0
    endloop
  endfacet
  facet normal 0.44363655346264064 -0.14414625418889432 0.8845385609656031
    outer loop
      vertex -1.5013038997493782 0.385469325105525 -1
      vertex -1.4411535531267898 0.5705930566612507 -1
      vertex -3.2077288763144676 1.2700297067621387 0
    endloop
  endfacet
  facet normal 0.4220720305870955 -0.19861202169301242 0.8845385609656032
    outer loop
      vertex -1.3582753540679884 0.7467181948576589 -1
      vertex -3.023258046151329 1.662050175650918 0
      vertex -1.4411535531267898 0.5705930566612507 -1
    endloop
  endfacet
  facet normal 0.3938511796555829 -0.2499455589699596 0.8845385609656032
    outer loop
      vertex -1.3582753540679884 0.7467181948576589 -1
      vertex -1.2539763412811686 0.9110671410533334 -1
      vertex -2.791108630593569 2.0278591204090324 0
    endloop
  endfacet
  facet normal 0.3594190603456104 -0.29733730547171217 0.8845385609656033
    outer loop
      vertex -1.2539763412811686 0.9110671410533334 -1
      vertex -1.1299013725031881 1.0610480141894671 -1
      vertex -2.5149417646038703 2.3616875154539754 0
    endloop
  endfacet
  facet normal 0.31931868774744887 -0.34003986504547806 0.8845385609656033
    outer loop
      vertex -1.1299013725031881 1.0610480141894671 -1
      vertex -0.988007184110469 1.1942955263024735 -1
      vertex -2.1991127646329796 2.6582706875764734 0
    endloop
  endfacet
  facet normal 0.2741824686917717 -0.37737979281750816 0.8845385609656033
    outer loop
      vertex -0.830531532217445 1.3087082845281233 -1
      vertex -1.848602442677539 2.9129313429819517 0
      vertex -0.988007184110469 1.1942955263024735 -1
    endloop
  endfacet
  facet normal 0.22472222831615773 -0.40876821582104506 0.8845385609656033
    outer loop
      vertex -0.830531532217445 1.3087082845281233 -1
      vertex -0.6599579019258627 1.4024819313223302 -1
      vertex -1.468938555899501 3.121653331007767 0
    endloop
  endfacet
  facet normal 0.17171798415744563 -0.433710119874788 0.8845385609656033
    outer loop
      vertex -0.6599579019258627 1.4024819313223302 -1
      vertex -0.47897634128116845 1.474137600257488 -1
      vertex -1.0661086305935685 3.28114498121828 0
    endloop
  endfacet
  facet normal 0.11600564480921975 -0.45181215625223825 0.8845385609656033
    outer loop
      vertex -0.47897634128116845 1.474137600257488 -1
      vertex -0.2904410376078731 1.5225452386294676 -1
      vertex -0.6464655353207498 3.3888910150139764 0
    endloop
  endfacet
  facet normal 0.0584638271439384 -0.46278884502609113 0.8845385609656033
    outer loop
      vertex -0.21662729237613002 3.443192213077537 0
      vertex -0.2904410376078731 1.5225452386294676 -1
      vertex -0.09732530527043558 1.546941429063821 -1
    endloop
  endfacet
  facet normal 0.465546611034528 -0.029289710124301604 0.8845385609656032
    outer loop
      vertex -3.45 0 0
      vertex -1.55 0 -1
      vertex -3.4227957195349488 0.432399655796849 0
    endloop
  endfacet
  facet normal 0.4582046628744482 -0.08740721414742021 0.8845385609656032
    outer loop
      vertex -3.341611905893777 0.8579801107187492 0
      vertex -3.4227957195349488 0.432399655796849 0
      vertex -1.5377777870374407 0.1942665120246713 -1
    endloop
  endfacet
  facet normal 0.4436365534626406 -0.14414625418889446 0.8845385609656032
    outer loop
      vertex -1.5013038997493782 0.385469325105525 -1
      vertex -3.2077288763144676 1.2700297067621387 0
      vertex -3.341611905893777 0.8579801107187492 0
    endloop
  endfacet
  facet normal 0.42207203058709564 -0.19861202169301218 0.8845385609656032
    outer loop
      vertex -3.2077288763144676 1.2700297067621387 0
      vertex -1.4411535531267898 0.5705930566612507 -1
      vertex -3.023258046151329 1.662050175650918 0
    endloop
  endfacet
  facet normal 0.3938511796555827 -0.2499455589699597 0.8845385609656032
    outer loop
      vertex -2.791108630593569 2.0278591204090324 0
      vertex -3.023258046151329 1.662050175650918 0
      vertex -1.3582753540679884 0.7467181948576589 -1
    endloop
  endfacet
  facet normal 0.3594190603456105 -0.29733730547171205 0.8845385609656032
    outer loop
      vertex -2.5149417646038703 2.3616875154539754 0
      vertex -2.791108630593569 2.0278591204090324 0
      vertex -1.2539763412811686 0.9110671410533334 -1
    endloop
  endfacet
  facet normal 0.31931868774744915 -0.3400398650454779 0.8845385609656032
    outer loop
      vertex -1.1299013725031881 1.0610480141894671 -1
      vertex -2.1991127646329796 2.6582706875764734 0
      vertex -2.5149417646038703 2.3616875154539754 0
    endloop
  endfacet
  facet normal 0.2741824686917713 -0.37737979281750844 0.8845385609656033
    outer loop
      vertex -1.848602442677539 2.9129313429819517 0
      vertex -2.1991127646329796 2.6582706875764734 0
      vertex -0.988007184110469 1.1942955263024735 -1
    endloop
  endfacet
  facet normal 0.2247222283161578 -0.40876821582104494 0.8845385609656031
    outer loop
      vertex -1.848602442677539 2.9129313429819517 0
      vertex -0.830531532217445 1.3087082845281233 -1
      vertex -1.468938555899501 3.121653331007767 0
    endloop
  endfacet
  facet normal 0.17171798415744577 -0.43371011987478797 0.8845385609656033
    outer loop
      vertex -1.0661086305935685 3.28114498121828 0
      vertex -1.468938555899501 3.121653331007767 0
      vertex -0.6599579019258627 1.4024819313223302 -1
    endloop
  endfacet
  facet normal 0.11600564480921982 -0.45181215625223814 0.8845385609656032
    outer loop
      vertex -0.47897634128116845 1.474137600257488 -1
      vertex -0.6464655353207498 3.3888910150139764 0
      vertex -1.0661086305935685 3.28114498121828 0
    endloop
  endfacet
  facet normal 0.05846382714393812 -0.4627888450260912 0.8845385609656033
    outer loop
      vertex -0.21662729237613002 3.443192213077537 0
      vertex -0.6464655353207498 3.3888910150139764 0
      vertex -0.2904410376078731 1.5225452386294676 -1
    endloop
  endfacet
  facet normal 0 -0.46646707725722697 0.8845385609656033
    outer loop
      vertex -0.21662729237613002 3.443192213077537 0
      vertex -0.09732530527043558 1.546941429063821 -1
      vertex 0.21662729237613082 3.443192213077537 0
    endloop
  endfacet
  facet normal 0 0.46646707725722697 0.8845385609656033
    outer loop
      vertex 0.21662729237613249 -3.443192213077537 0
      vertex 0.09732530527043634 -1.546941429063821 -1
      vertex -0.09732530527043634 -1.546941429063821 -1
    endloop
  endfacet
  facet normal -0.05846382714393903 0.4627888450260911 0.8845385609656033
    outer loop
      vertex 0.21662729237613249 -3.443192213077537 0
      vertex 0.2904410376078735 -1.5225452386294673 -1
      vertex 0.09732530527043634 -1.546941429063821 -1
    endloop
  endfacet
  facet normal -0.11600564480921949 0.4518121562522383 0.8845385609656033
    outer loop
      vertex 0.47897634128116845 -1.474137600257488 -1
      vertex 0.2904410376078735 -1.5225452386294673 -1
      vertex 0.6464655353207507 -3.388891015013976 0
    endloop
  endfacet
  facet normal -0.1717179841574454 0.4337101198747881 0.8845385609656031
    outer loop
      vertex 0.47897634128116845 -1.474137600257488 -1
      vertex 1.0661086305935685 -3.28114498121828 0
      vertex 0.6599579019258623 -1.4024819313223305 -1
    endloop
  endfacet
  facet normal -0.22472222831615785 0.40876821582104494 0.8845385609656032
    outer loop
      vertex 0.8305315322174441 -1.3087082845281237 -1
      vertex 0.6599579019258623 -1.4024819313223305 -1
      vertex 1.4689385558995 -3.1216533310077677 0
    endloop
  endfacet
  facet normal -0.27418246869177143 0.37737979281750833 0.8845385609656032
    outer loop
      vertex 0.9880071841104695 -1.194295526302473 -1
      vertex 0.8305315322174441 -1.3087082845281237 -1
      vertex 1.848602442677537 -2.912931342981953 0
    endloop
  endfacet
  facet normal -0.31931868774744904 0.340039865045478 0.8845385609656032
    outer loop
      vertex 0.9880071841104695 -1.194295526302473 -1
      vertex 2.1991127646329804 -2.658270687576472 0
      vertex 1.1299013725031881 -1.0610480141894671 -1
    endloop
  endfacet
  facet normal -0.3594190603456104 0.29733730547171217 0.8845385609656033
    outer loop
      vertex 1.2539763412811686 -0.9110671410533334 -1
      vertex 1.1299013725031881 -1.0610480141894671 -1
      vertex 2.5149417646038703 -2.3616875154539754 0
    endloop
  endfacet
  facet normal -0.3938511796555829 0.2499455589699596 0.8845385609656032
    outer loop
      vertex 1.3582753540679884 -0.7467181948576589 -1
      vertex 1.2539763412811686 -0.9110671410533334 -1
      vertex 2.791108630593569 -2.0278591204090324 0
    endloop
  endfacet
  facet normal -0.42207203058709547 0.19861202169301212 0.8845385609656033
    outer loop
      vertex 3.023258046151329 -1.662050175650918 0
      vertex 1.4411535531267894 -0.5705930566612515 -1
      vertex 1.3582753540679884 -0.7467181948576589 -1
    endloop
  endfacet
  facet normal -0.44363655346264047 0.1441462541888948 0.8845385609656032
    outer loop
      vertex 1.4411535531267894 -0.5705930566612515 -1
      vertex 3.207728876314467 -1.2700297067621404 0
      vertex 1.5013038997493784 -0.3854693251055244 -1
    endloop
  endfacet
  facet normal -0.4582046628744482 0.08740721414741988 0.8845385609656032
    outer loop
      vertex 3.3416119058937777 -0.8579801107187478 0
      vertex 1.5377777870374407 -0.1942665120246713 -1
      vertex 1.5013038997493784 -0.3854693251055244 -1
    endloop
  endfacet
  facet normal -0.465546611034528 0.02928971012430158 0.8845385609656033
    outer loop
      vertex 1.5377777870374407 -0.1942665120246713 -1
      vertex 3.4227957195349488 -0.432399655796849 0
      vertex 1.55 0 -1
    endloop
  endfacet
  facet normal -0.0584638271439388 0.4627888450260911 0.8845385609656033
    outer loop
      vertex 0.21662729237613249 -3.443192213077537 0
      vertex 0.6464655353207507 -3.388891015013976 0
      vertex 0.2904410376078735 -1.5225452386294673 -1
    endloop
  endfacet
  facet normal -0.11600564480921959 0.4518121562522382 0.8845385609656032
    outer loop
      vertex 0.6464655353207507 -3.388891015013976 0
      vertex 1.0661086305935685 -3.28114498121828 0
      vertex 0.47897634128116845 -1.474137600257488 -1
    endloop
  endfacet
  facet normal -0.1717179841574457 0.4337101198747881 0.8845385609656032
    outer loop
      vertex 1.0661086305935685 -3.28114498121828 0
      vertex 1.4689385558995 -3.1216533310077677 0
      vertex 0.6599579019258623 -1.4024819313223305 -1
    endloop
  endfacet
  facet normal -0.22472222831615754 0.40876821582104517 0.8845385609656033
    outer loop
      vertex 0.8305315322174441 -1.3087082845281237 -1
      vertex 1.4689385558995 -3.1216533310077677 0
      vertex 1.848602442677537 -2.912931342981953 0
    endloop
  endfacet
  facet normal -0.2741824686917717 0.37737979281750816 0.8845385609656032
    outer loop
      vertex 1.848602442677537 -2.912931342981953 0
      vertex 2.1991127646329804 -2.658270687576472 0
      vertex 0.9880071841104695 -1.194295526302473 -1
    endloop
  endfacet
  facet normal -0.3193186877474488 0.3400398650454782 0.8845385609656032
    outer loop
      vertex 1.1299013725031881 -1.0610480141894671 -1
      vertex 2.1991127646329804 -2.658270687576472 0
      vertex 2.5149417646038703 -2.3616875154539754 0
    endloop
  endfacet
  facet normal -0.3594190603456105 0.29733730547171205 0.8845385609656032
    outer loop
      vertex 2.5149417646038703 -2.3616875154539754 0
      vertex 2.791108630593569 -2.0278591204090324 0
      vertex 1.2539763412811686 -0.9110671410533334 -1
    endloop
  endfacet
  facet normal -0.3938511796555827 0.2499455589699597 0.8845385609656032
    outer loop
      vertex 2.791108630593569 -2.0278591204090324 0
      vertex 3.023258046151329 -1.662050175650918 0
      vertex 1.3582753540679884 -0.7467181948576589 -1
    endloop
  endfacet
  facet normal -0.4220720305870954 0.19861202169301248 0.8845385609656033
    outer loop
      vertex 3.023258046151329 -1.662050175650918 0
      vertex 3.207728876314467 -1.2700297067621404 0
      vertex 1.4411535531267894 -0.5705930566612515 -1
    endloop
  endfacet
  facet normal -0.44363655346264064 0.14414625418889432 0.8845385609656033
    outer loop
      vertex 3.207728876314467 -1.2700297067621404 0
      vertex 3.3416119058937777 -0.8579801107187478 0
      vertex 1.5013038997493784 -0.3854693251055244 -1
    endloop
  endfacet
  facet normal -0.45820466287444833 0.08740721414742005 0.8845385609656032
    outer loop
      vertex 3.3416119058937777 -0.8579801107187478 0
      vertex 3.4227957195349488 -0.432399655796849 0
      vertex 1.5377777870374407 -0.1942665120246713 -1
    endloop
  endfacet
  facet normal -0.465546611034528 0.029289710124301604 0.8845385609656032
    outer loop
      vertex 1.55 0 -1
      vertex 3.4227957195349488 -0.432399655796849 0
      vertex 3.45 0 0
    endloop
  endfacet
  facet normal -0.31931868774744865 -0.34003986504547845 0.8845385609656032
    outer loop
      vertex 0.9880071841104692 1.1942955263024733 -1
      vertex 1.129901372503188 1.0610480141894676 -1
      vertex 2.1991127646329796 2.6582706875764726 0
    endloop
  endfacet
  facet normal -0.35941906034561044 -0.2973373054717119 0.8845385609656032
    outer loop
      vertex 1.129901372503188 1.0610480141894676 -1
      vertex 1.2539763412811686 0.9110671410533334 -1
      vertex 2.51494176460387 2.3616875154539763 0
    endloop
  endfacet
  facet normal 0 -0.46646707725722697 0.8845385609656033
    outer loop
      vertex -0.09732530527043558 1.546941429063821 -1
      vertex 0.09732530527043427 1.546941429063821 -1
      vertex 0.21662729237613082 3.443192213077537 0
    endloop
  endfacet
  facet normal -0.058463827143938 -0.4627888450260912 0.8845385609656033
    outer loop
      vertex 0.09732530527043427 1.546941429063821 -1
      vertex 0.2904410376078731 1.5225452386294676 -1
      vertex 0.21662729237613082 3.443192213077537 0
    endloop
  endfacet
  facet normal -0.11600564480921975 -0.45181215625223825 0.8845385609656033
    outer loop
      vertex 0.2904410376078731 1.5225452386294676 -1
      vertex 0.47897634128116845 1.474137600257488 -1
      vertex 0.6464655353207498 3.3888910150139764 0
    endloop
  endfacet
  facet normal -0.17171798415744563 -0.433710119874788 0.8845385609656032
    outer loop
      vertex 0.47897634128116845 1.474137600257488 -1
      vertex 0.6599579019258627 1.4024819313223302 -1
      vertex 1.0661086305935685 3.28114498121828 0
    endloop
  endfacet
  facet normal -0.2247222283161575 -0.40876821582104517 0.8845385609656032
    outer loop
      vertex 0.6599579019258627 1.4024819313223302 -1
      vertex 0.8305315322174448 1.3087082845281235 -1
      vertex 1.468938555899501 3.121653331007767 0
    endloop
  endfacet
  facet normal -0.2741824686917719 -0.37737979281750805 0.8845385609656032
    outer loop
      vertex 0.8305315322174448 1.3087082845281235 -1
      vertex 0.9880071841104692 1.1942955263024733 -1
      vertex 1.8486024426775385 2.912931342981952 0
    endloop
  endfacet
  facet normal -0.46554661103452794 -0.029289710124301534 0.8845385609656032
    outer loop
      vertex 1.5377777870374407 0.1942665120246716 -1
      vertex 1.55 0 -1
      vertex 3.4227957195349488 0.4323996557968497 0
    endloop
  endfacet
  facet normal -0.4582046628744482 -0.08740721414742031 0.8845385609656032
    outer loop
      vertex 1.5013038997493782 0.38546932510552495 -1
      vertex 1.5377777870374407 0.1942665120246716 -1
      vertex 3.341611905893777 0.8579801107187491 0
    endloop
  endfacet
  facet normal -0.4436365534626406 -0.14414625418889462 0.8845385609656032
    outer loop
      vertex 1.4411535531267896 0.5705930566612509 -1
      vertex 1.5013038997493782 0.38546932510552495 -1
      vertex 3.207728876314467 1.270029706762139 0
    endloop
  endfacet
  facet normal -0.42207203058709575 -0.19861202169301187 0.8845385609656033
    outer loop
      vertex 1.3582753540679886 0.7467181948576588 -1
      vertex 1.4411535531267896 0.5705930566612509 -1
      vertex 3.0232580461513296 1.662050175650918 0
    endloop
  endfacet
  facet normal -0.3938511796555827 -0.24994555896995982 0.8845385609656032
    outer loop
      vertex 1.2539763412811686 0.9110671410533334 -1
      vertex 1.3582753540679886 0.7467181948576588 -1
      vertex 2.791108630593569 2.0278591204090324 0
    endloop
  endfacet
  facet normal -0.058463827143938225 -0.46278884502609113 0.8845385609656032
    outer loop
      vertex 0.6464655353207498 3.3888910150139764 0
      vertex 0.21662729237613082 3.443192213077537 0
      vertex 0.2904410376078731 1.5225452386294676 -1
    endloop
  endfacet
  facet normal -0.11600564480921982 -0.4518121562522382 0.8845385609656033
    outer loop
      vertex 1.0661086305935685 3.28114498121828 0
      vertex 0.6464655353207498 3.3888910150139764 0
      vertex 0.47897634128116845 1.474137600257488 -1
    endloop
  endfacet
  facet normal -0.17171798415744577 -0.43371011987478797 0.8845385609656033
    outer loop
      vertex 1.468938555899501 3.121653331007767 0
      vertex 1.0661086305935685 3.28114498121828 0
      vertex 0.6599579019258627 1.4024819313223302 -1
    endloop
  endfacet
  facet normal -0.22472222831615762 -0.40876821582104506 0.8845385609656032
    outer loop
      vertex 1.8486024426775385 2.912931342981952 0
      vertex 1.468938555899501 3.121653331007767 0
      vertex 0.8305315322174448 1.3087082845281235 -1
    endloop
  endfacet
  facet normal -0.27418246869177204 -0.37737979281750794 0.8845385609656032
    outer loop
      vertex 2.1991127646329796 2.6582706875764726 0
      vertex 1.8486024426775385 2.912931342981952 0
      vertex 0.9880071841104692 1.1942955263024733 -1
    endloop
  endfacet
  facet normal -0.42207203058709597 -0.19861202169301162 0.8845385609656033
    outer loop
      vertex 3.207728876314467 1.270029706762139 0
      vertex 3.0232580461513296 1.662050175650918 0
      vertex 1.4411535531267896 0.5705930566612509 -1
    endloop
  endfacet
  facet normal -0.3938511796555825 -0.24994555896996007 0.8845385609656032
    outer loop
      vertex 3.0232580461513296 1.662050175650918 0
      vertex 2.791108630593569 2.0278591204090324 0
      vertex 1.3582753540679886 0.7467181948576588 -1
    endloop
  endfacet
  facet normal -0.465546611034528 -0.02928971012430156 0.8845385609656032
    outer loop
      vertex 3.45 0 0
      vertex 3.4227957195349488 0.4323996557968497 0
      vertex 1.55 0 -1
    endloop
  endfacet
  facet normal -0.4582046628744482 -0.08740721414742036 0.8845385609656032
    outer loop
      vertex 3.4227957195349488 0.4323996557968497 0
      vertex 3.341611905893777 0.8579801107187491 0
      vertex 1.5377777870374407 0.1942665120246716 -1
    endloop
  endfacet
  facet normal -0.4436365534626405 -0.14414625418889473 0.8845385609656032
    outer loop
      vertex 3.341611905893777 0.8579801107187491 0
      vertex 3.207728876314467 1.270029706762139 0
      vertex 1.5013038997493782 0.38546932510552495 -1
    endloop
  endfacet
  facet normal -0.31931868774744837 -0.3400398650454786 0.8845385609656032
    outer loop
      vertex 2.51494176460387 2.3616875154539763 0
      vertex 2.1991127646329796 2.6582706875764726 0
      vertex 1.129901372503188 1.0610480141894676 -1
    endloop
  endfacet
  facet normal -0.3594190603456106 -0.29733730547171183 0.8845385609656032
    outer loop
      vertex 2.791108630593569 2.0278591204090324 0
      vertex 2.51494176460387 2.3616875154539763 0
      vertex 1.2539763412811686 0.9110671410533334 -1
    endloop
  endfacet
  facet normal -0.8443279255020153 -0.5358267949789963 0
    outer loop
      vertex -5.663118960624632 -4.114496766047312 -1
      vertex -6.134146760307044 -3.372275718712008 0
      vertex -6.134146760307044 -3.372275718712008 -1
    endloop
  endfacet
  facet normal -0.7705132427757893 -0.6374239897486896 0
    outer loop
      vertex -5.663118960624632 -4.114496766047312 -1
      vertex -5.1027803919498815 -4.79182974150082 -1
      vertex -5.663118960624632 -4.114496766047312 0
    endloop
  endfacet
  facet normal -0.5877852522924721 -0.8090169943749482 0
    outer loop
      vertex -4.461967928240828 -5.393592699430526 -1
      vertex -3.7507875648529776 -5.910295478514104 -1
      vertex -3.7507875648529776 -5.910295478514104 0
    endloop
  endfacet
  facet normal -0.6845471059286894 -0.7289686274214108 0
    outer loop
      vertex -4.461967928240828 -5.393592699430526 -1
      vertex -4.461967928240828 -5.393592699430526 0
      vertex -5.1027803919498815 -4.79182974150082 -1
    endloop
  endfacet
  facet normal 0 0 -1
    outer loop
      vertex -6.50843540121776 -2.576871868792745 -1
      vertex -6.7800821279004175 -1.740829210153984 -1
      vertex -6.50843540121776 2.576871868792745 -1
    endloop
  endfacet
  facet normal 0 0 -1
    outer loop
      vertex -6.7800821279004175 -1.740829210153984 -1
      vertex -6.9448029092013455 -0.8773326349501285 -1
      vertex -6.7800821279004175 1.740829210153984 -1
    endloop
  endfacet
  facet normal 0 0 -1
    outer loop
      vertex -6.134146760307044 -3.372275718712008 -1
      vertex -6.50843540121776 -2.576871868792745 -1
      vertex -6.134146760307044 3.372275718712008 -1
    endloop
  endfacet
  facet normal 0 0 -1
    outer loop
      vertex -5.663118960624632 -4.114496766047312 -1
      vertex -6.134146760307044 -3.372275718712008 -1
      vertex -5.663118960624632 4.114496766047312 -1
    endloop
  endfacet
  facet normal 0 0 -1
    outer loop
      vertex -5.663118960624632 -4.114496766047312 -1
      vertex -5.1027803919498815 4.79182974150082 -1
      vertex -5.1027803919498815 -4.79182974150082 -1
    endloop
  endfacet
  facet normal 0 0 -1
    outer loop
      vertex -4.461967928240828 -5.393592699430526 -1
      vertex -3.7507875648529776 5.910295478514104 -1
      vertex -3.7507875648529776 -5.910295478514104 -1
    endloop
  endfacet
  facet normal 0 0 -1
    outer loop
      vertex -4.461967928240828 -5.393592699430526 -1
      vertex -5.1027803919498815 -4.79182974150082 -1
      vertex -4.461967928240828 5.393592699430526 -1
    endloop
  endfacet
  facet normal -0.9048270524660195 -0.4257792915650727 0
    outer loop
      vertex -6.134146760307044 -3.372275718712008 -1
      vertex -6.50843540121776 -2.576871868792745 0
      vertex -6.50843540121776 -2.576871868792745 -1
    endloop
  endfacet
  facet normal -0.9510565162951535 -0.30901699437494745 0
    outer loop
      vertex -6.50843540121776 -2.576871868792745 -1
      vertex -6.7800821279004175 -1.740829210153984 0
      vertex -6.7800821279004175 -1.740829210153984 -1
    endloop
  endfacet
  facet normal -0.9822872507286885 -0.18738131458572532 0
    outer loop
      vertex -6.7800821279004175 -1.740829210153984 -1
      vertex -6.9448029092013455 -0.8773326349501285 0
      vertex -6.9448029092013455 -0.8773326349501285 -1
    endloop
  endfacet
  facet normal -0.9980267284282716 -0.06279051952931272 0
    outer loop
      vertex -6.9448029092013455 -0.8773326349501285 -1
      vertex -7 0 0
      vertex -7 0 -1
    endloop
  endfacet
  facet normal 0 0 -1
    outer loop
      vertex -2.1631189606246317 -6.657395614066075 -1
      vertex -1.2539763412811686 -0.9110671410533334 -1
      vertex -1.3116692021000738 -6.87601075510082 -1
    endloop
  endfacet
  facet normal 0 0 -1
    outer loop
      vertex -1.3116692021000738 -6.87601075510082 -1
      vertex -0.2904410376078735 -1.5225452386294673 -1
      vertex -0.43953363670519635 -6.986187098997901 -1
    endloop
  endfacet
  facet normal 0 0 -1
    outer loop
      vertex -0.43953363670519635 -6.986187098997901 -1
      vertex -0.09732530527043634 -1.546941429063821 -1
      vertex 0.43953363670519635 -6.986187098997901 -1
    endloop
  endfacet
  facet normal -0.4817536741017149 -0.8763066800438638 0
    outer loop
      vertex -3.7507875648529776 -5.910295478514104 -1
      vertex -2.980455040955507 -6.333789367262137 -1
      vertex -2.980455040955507 -6.333789367262137 0
    endloop
  endfacet
  facet normal -0.36812455268467814 -0.9297764858882513 0
    outer loop
      vertex -2.980455040955507 -6.333789367262137 -1
      vertex -2.1631189606246317 -6.657395614066075 -1
      vertex -2.1631189606246317 -6.657395614066075 0
    endloop
  endfacet
  facet normal -0.2486898871648549 -0.9685831611286312 0
    outer loop
      vertex -2.1631189606246317 -6.657395614066075 -1
      vertex -1.3116692021000738 -6.87601075510082 -1
      vertex -1.3116692021000738 -6.87601075510082 0
    endloop
  endfacet
  facet normal -0.12533323356430495 -0.9921147013144778 0
    outer loop
      vertex -1.3116692021000738 -6.87601075510082 -1
      vertex -0.43953363670519635 -6.986187098997901 -1
      vertex -0.43953363670519635 -6.986187098997901 0
    endloop
  endfacet
  facet normal 0 0 -1
    outer loop
      vertex -3.7507875648529776 -5.910295478514104 -1
      vertex -2.980455040955509 6.333789367262137 -1
      vertex -2.980455040955507 -6.333789367262137 -1
    endloop
  endfacet
  facet normal 0 0 -1
    outer loop
      vertex -2.980455040955507 -6.333789367262137 -1
      vertex -2.1631189606246317 6.657395614066075 -1
      vertex -2.1631189606246317 -6.657395614066075 -1
    endloop
  endfacet
  facet normal 0 0 -1
    outer loop
      vertex -2.1631189606246317 -6.657395614066075 -1
      vertex -1.55 0 -1
      vertex -1.5377777870374407 -0.1942665120246713 -1
    endloop
  endfacet
  facet normal 0 0 -1
    outer loop
      vertex -2.1631189606246317 -6.657395614066075 -1
      vertex -1.4411535531267898 -0.5705930566612507 -1
      vertex -1.3582753540679884 -0.7467181948576589 -1
    endloop
  endfacet
  facet normal 0 0 -1
    outer loop
      vertex -2.1631189606246317 -6.657395614066075 -1
      vertex -1.3582753540679884 -0.7467181948576589 -1
      vertex -1.2539763412811686 -0.9110671410533334 -1
    endloop
  endfacet
  facet normal 0 0 -1
    outer loop
      vertex -1.3116692021000738 -6.87601075510082 -1
      vertex -0.988007184110469 -1.1942955263024735 -1
      vertex -0.830531532217445 -1.3087082845281233 -1
    endloop
  endfacet
  facet normal 0 0 -1
    outer loop
      vertex -1.3116692021000738 -6.87601075510082 -1
      vertex -0.830531532217445 -1.3087082845281233 -1
      vertex -0.6599579019258623 -1.4024819313223305 -1
    endloop
  endfacet
  facet normal 0 0 -1
    outer loop
      vertex -1.3116692021000738 -6.87601075510082 -1
      vertex -1.2539763412811686 -0.9110671410533334 -1
      vertex -1.1299013725031881 -1.0610480141894671 -1
    endloop
  endfacet
  facet normal 0 0 -1
    outer loop
      vertex -1.3116692021000738 -6.87601075510082 -1
      vertex -1.1299013725031881 -1.0610480141894671 -1
      vertex -0.988007184110469 -1.1942955263024735 -1
    endloop
  endfacet
  facet normal 0 0 -1
    outer loop
      vertex -2.1631189606246317 -6.657395614066075 -1
      vertex -1.5013038997493782 -0.385469325105525 -1
      vertex -1.4411535531267898 -0.5705930566612507 -1
    endloop
  endfacet
  facet normal 0 0 -1
    outer loop
      vertex -2.1631189606246317 -6.657395614066075 -1
      vertex -1.5377777870374407 -0.1942665120246713 -1
      vertex -1.5013038997493782 -0.385469325105525 -1
    endloop
  endfacet
  facet normal 0 0 -1
    outer loop
      vertex -1.3116692021000738 -6.87601075510082 -1
      vertex -0.47897634128116845 -1.474137600257488 -1
      vertex -0.2904410376078735 -1.5225452386294673 -1
    endloop
  endfacet
  facet normal 0 0 -1
    outer loop
      vertex -1.3116692021000738 -6.87601075510082 -1
      vertex -0.6599579019258623 -1.4024819313223305 -1
      vertex -0.47897634128116845 -1.474137600257488 -1
    endloop
  endfacet
  facet normal 0 0 -1
    outer loop
      vertex -0.43953363670519635 -6.986187098997901 -1
      vertex -0.2904410376078735 -1.5225452386294673 -1
      vertex -0.09732530527043634 -1.546941429063821 -1
    endloop
  endfacet
  facet normal -0.7705132427757893 -0.6374239897486896 0
    outer loop
      vertex -5.1027803919498815 -4.79182974150082 -1
      vertex -5.1027803919498815 -4.79182974150082 0
      vertex -5.663118960624632 -4.114496766047312 0
    endloop
  endfacet
  facet normal -0.8443279255020153 -0.5358267949789963 0
    outer loop
      vertex -5.663118960624632 -4.114496766047312 -1
      vertex -5.663118960624632 -4.114496766047312 0
      vertex -6.134146760307044 -3.372275718712008 0
    endloop
  endfacet
  facet normal -0.5877852522924721 -0.8090169943749482 0
    outer loop
      vertex -4.461967928240828 -5.393592699430526 -1
      vertex -3.7507875648529776 -5.910295478514104 0
      vertex -4.461967928240828 -5.393592699430526 0
    endloop
  endfacet
  facet normal -0.6845471059286894 -0.7289686274214108 0
    outer loop
      vertex -5.1027803919498815 -4.79182974150082 -1
      vertex -4.461967928240828 -5.393592699430526 0
      vertex -5.1027803919498815 -4.79182974150082 0
    endloop
  endfacet
  facet normal -0.9048270524660195 -0.4257792915650727 0
    outer loop
      vertex -6.134146760307044 -3.372275718712008 -1
      vertex -6.134146760307044 -3.372275718712008 0
      vertex -6.50843540121776 -2.576871868792745 0
    endloop
  endfacet
  facet normal -0.9510565162951535 -0.30901699437494745 0
    outer loop
      vertex -6.50843540121776 -2.576871868792745 -1
      vertex -6.50843540121776 -2.576871868792745 0
      vertex -6.7800821279004175 -1.740829210153984 0
    endloop
  endfacet
  facet normal -0.9822872507286885 -0.18738131458572532 0
    outer loop
      vertex -6.7800821279004175 -1.740829210153984 -1
      vertex -6.7800821279004175 -1.740829210153984 0
      vertex -6.9448029092013455 -0.8773326349501285 0
    endloop
  endfacet
  facet normal -0.9980267284282716 -0.06279051952931272 0
    outer loop
      vertex -6.9448029092013455 -0.8773326349501285 -1
      vertex -6.9448029092013455 -0.8773326349501285 0
      vertex -7 0 0
    endloop
  endfacet
  facet normal 0 0 1
    outer loop
      vertex -6.134146760307044 -3.372275718712008 0
      vertex -6.50843540121776 2.576871868792745 0
      vertex -6.50843540121776 -2.576871868792745 0
    endloop
  endfacet
  facet normal 0 0 1
    outer loop
      vertex -6.7800821279004175 -1.740829210153984 0
      vertex -6.9448029092013455 0.8773326349501285 0
      vertex -6.9448029092013455 -0.8773326349501285 0
    endloop
  endfacet
  facet normal 0 0 1
    outer loop
      vertex -6.50843540121776 -2.576871868792745 0
      vertex -6.7800821279004175 1.740829210153984 0
      vertex -6.7800821279004175 -1.740829210153984 0
    endloop
  endfacet
  facet normal 0 0 1
    outer loop
      vertex -5.663118960624632 -4.114496766047312 0
      vertex -6.134146760307044 3.372275718712008 0
      vertex -6.134146760307044 -3.372275718712008 0
    endloop
  endfacet
  facet normal 0 0 1
    outer loop
      vertex -5.663118960624632 -4.114496766047312 0
      vertex -5.1027803919498815 -4.79182974150082 0
      vertex -5.663118960624632 4.114496766047312 0
    endloop
  endfacet
  facet normal 0 0 1
    outer loop
      vertex -4.461967928240828 -5.393592699430526 0
      vertex -5.1027803919498815 4.79182974150082 0
      vertex -5.1027803919498815 -4.79182974150082 0
    endloop
  endfacet
  facet normal 0 0 1
    outer loop
      vertex -4.461967928240828 -5.393592699430526 0
      vertex -3.7507875648529776 -5.910295478514104 0
      vertex -4.461967928240828 5.393592699430526 0
    endloop
  endfacet
  facet normal 0 0 1
    outer loop
      vertex -3.7507875648529776 -5.910295478514104 0
      vertex -3.341611905893777 -0.8579801107187492 0
      vertex -3.4227957195349488 -0.432399655796849 0
    endloop
  endfacet
  facet normal 0 0 1
    outer loop
      vertex -3.7507875648529776 -5.910295478514104 0
      vertex -3.4227957195349488 -0.432399655796849 0
      vertex -3.45 0 0
    endloop
  endfacet
  facet normal -0.36812455268467814 -0.9297764858882513 0
    outer loop
      vertex -2.980455040955507 -6.333789367262137 -1
      vertex -2.1631189606246317 -6.657395614066075 0
      vertex -2.980455040955507 -6.333789367262137 0
    endloop
  endfacet
  facet normal -0.4817536741017149 -0.8763066800438638 0
    outer loop
      vertex -3.7507875648529776 -5.910295478514104 -1
      vertex -2.980455040955507 -6.333789367262137 0
      vertex -3.7507875648529776 -5.910295478514104 0
    endloop
  endfacet
  facet normal -0.2486898871648549 -0.9685831611286312 0
    outer loop
      vertex -2.1631189606246317 -6.657395614066075 -1
      vertex -1.3116692021000738 -6.87601075510082 0
      vertex -2.1631189606246317 -6.657395614066075 0
    endloop
  endfacet
  facet normal -0.12533323356430495 -0.9921147013144778 0
    outer loop
      vertex -1.3116692021000738 -6.87601075510082 -1
      vertex -0.43953363670519635 -6.986187098997901 0
      vertex -1.3116692021000738 -6.87601075510082 0
    endloop
  endfacet
  facet normal 0 -1 0
    outer loop
      vertex -0.43953363670519635 -6.986187098997901 -1
      vertex 0.43953363670519635 -6.986187098997901 0
      vertex -0.43953363670519635 -6.986187098997901 0
    endloop
  endfacet
  facet normal 0 0 1
    outer loop
      vertex -2.1631189606246317 -6.657395614066075 0
      vertex -1.3116692021000738 -6.87601075510082 0
      vertex -1.848602442677539 -2.9129313429819517 0
    endloop
  endfacet
  facet normal 0 0 1
    outer loop
      vertex -3.7507875648529776 -5.910295478514104 0
      vertex -2.980455040955507 -6.333789367262137 0
      vertex -3.341611905893777 -0.8579801107187492 0
    endloop
  endfacet
  facet normal 0 0 1
    outer loop
      vertex -2.980455040955507 -6.333789367262137 0
      vertex -2.5149417646038703 -2.3616875154539754 0
      vertex -2.791108630593569 -2.0278591204090324 0
    endloop
  endfacet
  facet normal 0 0 1
    outer loop
      vertex -2.980455040955507 -6.333789367262137 0
      vertex -2.1631189606246317 -6.657395614066075 0
      vertex -2.5149417646038703 -2.3616875154539754 0
    endloop
  endfacet
  facet normal 0 0 1
    outer loop
      vertex -2.1631189606246317 -6.657395614066075 0
      vertex -2.1991127646329796 -2.6582706875764734 0
      vertex -2.5149417646038703 -2.3616875154539754 0
    endloop
  endfacet
  facet normal 0 0 1
    outer loop
      vertex -2.1631189606246317 -6.657395614066075 0
      vertex -1.848602442677539 -2.9129313429819517 0
      vertex -2.1991127646329796 -2.6582706875764734 0
    endloop
  endfacet
  facet normal 0 0 1
    outer loop
      vertex -1.3116692021000738 -6.87601075510082 0
      vertex -0.43953363670519635 -6.986187098997901 0
      vertex -1.0661086305935685 -3.28114498121828 0
    endloop
  endfacet
  facet normal 0 0 1
    outer loop
      vertex -1.3116692021000738 -6.87601075510082 0
      vertex -1.0661086305935685 -3.28114498121828 0
      vertex -1.4689385558995 -3.1216533310077677 0
    endloop
  endfacet
  facet normal 0 0 1
    outer loop
      vertex -1.3116692021000738 -6.87601075510082 0
      vertex -1.4689385558995 -3.1216533310077677 0
      vertex -1.848602442677539 -2.9129313429819517 0
    endloop
  endfacet
  facet normal 0 0 1
    outer loop
      vertex -0.43953363670519635 -6.986187098997901 0
      vertex -0.6464655353207507 -3.388891015013976 0
      vertex -1.0661086305935685 -3.28114498121828 0
    endloop
  endfacet
  facet normal 0 0 1
    outer loop
      vertex -0.43953363670519635 -6.986187098997901 0
      vertex -0.21662729237613249 -3.443192213077537 0
      vertex -0.6464655353207507 -3.388891015013976 0
    endloop
  endfacet
  facet normal 0 0 1
    outer loop
      vertex -0.43953363670519635 -6.986187098997901 0
      vertex 0.21662729237613249 -3.443192213077537 0
      vertex -0.21662729237613249 -3.443192213077537 0
    endloop
  endfacet
  facet normal 0 0 1
    outer loop
      vertex -2.980455040955507 -6.333789367262137 0
      vertex -3.023258046151329 -1.662050175650918 0
      vertex -3.2077288763144676 -1.2700297067621387 0
    endloop
  endfacet
  facet normal 0 0 1
    outer loop
      vertex -2.980455040955507 -6.333789367262137 0
      vertex -3.2077288763144676 -1.2700297067621387 0
      vertex -3.341611905893777 -0.8579801107187492 0
    endloop
  endfacet
  facet normal 0 0 1
    outer loop
      vertex -2.980455040955507 -6.333789367262137 0
      vertex -2.791108630593569 -2.0278591204090324 0
      vertex -3.023258046151329 -1.662050175650918 0
    endloop
  endfacet
  facet normal 0 0 -1
    outer loop
      vertex -6.9448029092013455 -0.8773326349501285 -1
      vertex -7 0 -1
      vertex -6.9448029092013455 0.8773326349501285 -1
    endloop
  endfacet
  facet normal 0 0 -1
    outer loop
      vertex -6.9448029092013455 -0.8773326349501285 -1
      vertex -6.9448029092013455 0.8773326349501285 -1
      vertex -6.7800821279004175 1.740829210153984 -1
    endloop
  endfacet
  facet normal 0 0 -1
    outer loop
      vertex -6.7800821279004175 -1.740829210153984 -1
      vertex -6.7800821279004175 1.740829210153984 -1
      vertex -6.50843540121776 2.576871868792745 -1
    endloop
  endfacet
  facet normal 0 0 -1
    outer loop
      vertex -6.50843540121776 -2.576871868792745 -1
      vertex -6.50843540121776 2.576871868792745 -1
      vertex -6.134146760307044 3.372275718712008 -1
    endloop
  endfacet
  facet normal 0 0 -1
    outer loop
      vertex -6.134146760307044 -3.372275718712008 -1
      vertex -6.134146760307044 3.372275718712008 -1
      vertex -5.663118960624632 4.114496766047312 -1
    endloop
  endfacet
  facet normal 0 0 -1
    outer loop
      vertex -5.663118960624632 -4.114496766047312 -1
      vertex -5.663118960624632 4.114496766047312 -1
      vertex -5.1027803919498815 4.79182974150082 -1
    endloop
  endfacet
  facet normal 0 0 -1
    outer loop
      vertex -5.1027803919498815 -4.79182974150082 -1
      vertex -5.1027803919498815 4.79182974150082 -1
      vertex -4.461967928240828 5.393592699430526 -1
    endloop
  endfacet
  facet normal 0 0 -1
    outer loop
      vertex -4.461967928240828 -5.393592699430526 -1
      vertex -4.461967928240828 5.393592699430526 -1
      vertex -3.7507875648529776 5.910295478514104 -1
    endloop
  endfacet
  facet normal -0.9980267284282716 0.06279051952931272 0
    outer loop
      vertex -7 0 -1
      vertex -6.9448029092013455 0.8773326349501285 0
      vertex -6.9448029092013455 0.8773326349501285 -1
    endloop
  endfacet
  facet normal -0.9822872507286885 0.18738131458572532 0
    outer loop
      vertex -6.9448029092013455 0.8773326349501285 -1
      vertex -6.7800821279004175 1.740829210153984 0
      vertex -6.7800821279004175 1.740829210153984 -1
    endloop
  endfacet
  facet normal -0.9510565162951535 0.30901699437494745 0
    outer loop
      vertex -6.7800821279004175 1.740829210153984 -1
      vertex -6.50843540121776 2.576871868792745 0
      vertex -6.50843540121776 2.576871868792745 -1
    endloop
  endfacet
  facet normal -0.9048270524660195 0.4257792915650727 0
    outer loop
      vertex -6.50843540121776 2.576871868792745 -1
      vertex -6.134146760307044 3.372275718712008 0
      vertex -6.134146760307044 3.372275718712008 -1
    endloop
  endfacet
  facet normal -0.8443279255020153 0.5358267949789963 0
    outer loop
      vertex -6.134146760307044 3.372275718712008 -1
      vertex -5.663118960624632 4.114496766047312 0
      vertex -5.663118960624632 4.114496766047312 -1
    endloop
  endfacet
  facet normal -0.7705132427757893 0.6374239897486896 0
    outer loop
      vertex -5.663118960624632 4.114496766047312 -1
      vertex -5.1027803919498815 4.79182974150082 0
      vertex -5.1027803919498815 4.79182974150082 -1
    endloop
  endfacet
  facet normal -0.6845471059286894 0.7289686274214108 0
    outer loop
      vertex -5.1027803919498815 4.79182974150082 -1
      vertex -5.1027803919498815 4.79182974150082 0
      vertex -4.461967928240828 5.393592699430526 -1
    endloop
  endfacet
  facet normal -0.5877852522924721 0.8090169943749482 0
    outer loop
      vertex -4.461967928240828 5.393592699430526 -1
      vertex -4.461967928240828 5.393592699430526 0
      vertex -3.7507875648529776 5.910295478514104 -1
    endloop
  endfacet
  facet normal 0 0 -1
    outer loop
      vertex -3.7507875648529776 -5.910295478514104 -1
      vertex -3.7507875648529776 5.910295478514104 -1
      vertex -2.980455040955509 6.333789367262137 -1
    endloop
  endfacet
  facet normal 0 0 -1
    outer loop
      vertex -2.980455040955507 -6.333789367262137 -1
      vertex -2.980455040955509 6.333789367262137 -1
      vertex -2.1631189606246317 6.657395614066075 -1
    endloop
  endfacet
  facet normal 0 0 -1
    outer loop
      vertex -2.1631189606246317 -6.657395614066075 -1
      vertex -2.1631189606246317 6.657395614066075 -1
      vertex -1.311669202100072 6.876010755100821 -1
    endloop
  endfacet
  facet normal 0 0 -1
    outer loop
      vertex -2.1631189606246317 -6.657395614066075 -1
      vertex -1.311669202100072 6.876010755100821 -1
      vertex -1.55 0 -1
    endloop
  endfacet
  facet normal 0 0 -1
    outer loop
      vertex -1.311669202100072 6.876010755100821 -1
      vertex -1.5377777870374407 0.1942665120246713 -1
      vertex -1.55 0 -1
    endloop
  endfacet
  facet normal 0 0 -1
    outer loop
      vertex -1.311669202100072 6.876010755100821 -1
      vertex -1.5013038997493782 0.385469325105525 -1
      vertex -1.5377777870374407 0.1942665120246713 -1
    endloop
  endfacet
  facet normal 0 0 -1
    outer loop
      vertex -1.311669202100072 6.876010755100821 -1
      vertex -1.4411535531267898 0.5705930566612507 -1
      vertex -1.5013038997493782 0.385469325105525 -1
    endloop
  endfacet
  facet normal 0 0 -1
    outer loop
      vertex -1.311669202100072 6.876010755100821 -1
      vertex -1.3582753540679884 0.7467181948576589 -1
      vertex -1.4411535531267898 0.5705930566612507 -1
    endloop
  endfacet
  facet normal 0 0 -1
    outer loop
      vertex -1.311669202100072 6.876010755100821 -1
      vertex -1.2539763412811686 0.9110671410533334 -1
      vertex -1.3582753540679884 0.7467181948576589 -1
    endloop
  endfacet
  facet normal 0 0 -1
    outer loop
      vertex -1.311669202100072 6.876010755100821 -1
      vertex -1.1299013725031881 1.0610480141894671 -1
      vertex -1.2539763412811686 0.9110671410533334 -1
    endloop
  endfacet
  facet normal 0 0 -1
    outer loop
      vertex -1.311669202100072 6.876010755100821 -1
      vertex -0.988007184110469 1.1942955263024735 -1
      vertex -1.1299013725031881 1.0610480141894671 -1
    endloop
  endfacet
  facet normal 0 0 -1
    outer loop
      vertex -1.311669202100072 6.876010755100821 -1
      vertex -0.830531532217445 1.3087082845281233 -1
      vertex -0.988007184110469 1.1942955263024735 -1
    endloop
  endfacet
  facet normal 0 0 -1
    outer loop
      vertex -0.43953363670519296 6.986187098997901 -1
      vertex -0.6599579019258627 1.4024819313223302 -1
      vertex -0.830531532217445 1.3087082845281233 -1
    endloop
  endfacet
  facet normal 0 0 -1
    outer loop
      vertex -0.43953363670519296 6.986187098997901 -1
      vertex -0.47897634128116845 1.474137600257488 -1
      vertex -0.6599579019258627 1.4024819313223302 -1
    endloop
  endfacet
  facet normal 0 0 -1
    outer loop
      vertex -0.43953363670519296 6.986187098997901 -1
      vertex -0.2904410376078731 1.5225452386294676 -1
      vertex -0.47897634128116845 1.474137600257488 -1
    endloop
  endfacet
  facet normal 0 0 -1
    outer loop
      vertex -0.43953363670519296 6.986187098997901 -1
      vertex -0.09732530527043558 1.546941429063821 -1
      vertex -0.2904410376078731 1.5225452386294676 -1
    endloop
  endfacet
  facet normal 0 0 -1
    outer loop
      vertex -0.43953363670519296 6.986187098997901 -1
      vertex 0.09732530527043427 1.546941429063821 -1
      vertex -0.09732530527043558 1.546941429063821 -1
    endloop
  endfacet
  facet normal 0 0 -1
    outer loop
      vertex -1.311669202100072 6.876010755100821 -1
      vertex -0.43953363670519296 6.986187098997901 -1
      vertex -0.830531532217445 1.3087082845281233 -1
    endloop
  endfacet
  facet normal -0.4817536741017157 0.8763066800438634 0
    outer loop
      vertex -3.7507875648529776 5.910295478514104 -1
      vertex -3.7507875648529776 5.910295478514104 0
      vertex -2.980455040955509 6.333789367262137 -1
    endloop
  endfacet
  facet normal -0.3681245526846774 0.9297764858882516 0
    outer loop
      vertex -2.980455040955509 6.333789367262137 -1
      vertex -2.980455040955509 6.333789367262137 0
      vertex -2.1631189606246317 6.657395614066075 -1
    endloop
  endfacet
  facet normal -0.24868988716485535 0.968583161128631 0
    outer loop
      vertex -2.1631189606246317 6.657395614066075 -1
      vertex -2.1631189606246317 6.657395614066075 0
      vertex -1.311669202100072 6.876010755100821 -1
    endloop
  endfacet
  facet normal -0.12533323356430376 0.9921147013144779 0
    outer loop
      vertex -1.311669202100072 6.876010755100821 -1
      vertex -1.311669202100072 6.876010755100821 0
      vertex -0.43953363670519296 6.986187098997901 -1
    endloop
  endfacet
  facet normal 0 1 0
    outer loop
      vertex -0.43953363670519296 6.986187098997901 -1
      vertex -0.43953363670519296 6.986187098997901 0
      vertex 0.43953363670519296 6.986187098997901 -1
    endloop
  endfacet
  facet normal -0.9980267284282716 0.06279051952931272 0
    outer loop
      vertex -7 0 -1
      vertex -7 0 0
      vertex -6.9448029092013455 0.8773326349501285 0
    endloop
  endfacet
  facet normal -0.9822872507286885 0.18738131458572532 0
    outer loop
      vertex -6.9448029092013455 0.8773326349501285 -1
      vertex -6.9448029092013455 0.8773326349501285 0
      vertex -6.7800821279004175 1.740829210153984 0
    endloop
  endfacet
  facet normal -0.9510565162951535 0.30901699437494745 0
    outer loop
      vertex -6.7800821279004175 1.740829210153984 -1
      vertex -6.7800821279004175 1.740829210153984 0
      vertex -6.50843540121776 2.576871868792745 0
    endloop
  endfacet
  facet normal -0.9048270524660195 0.4257792915650727 0
    outer loop
      vertex -6.50843540121776 2.576871868792745 -1
      vertex -6.50843540121776 2.576871868792745 0
      vertex -6.134146760307044 3.372275718712008 0
    endloop
  endfacet
  facet normal 0 0 1
    outer loop
      vertex -6.9448029092013455 -0.8773326349501285 0
      vertex -6.9448029092013455 0.8773326349501285 0
      vertex -7 0 0
    endloop
  endfacet
  facet normal 0 0 1
    outer loop
      vertex -6.7800821279004175 -1.740829210153984 0
      vertex -6.7800821279004175 1.740829210153984 0
      vertex -6.9448029092013455 0.8773326349501285 0
    endloop
  endfacet
  facet normal 0 0 1
    outer loop
      vertex -6.50843540121776 -2.576871868792745 0
      vertex -6.50843540121776 2.576871868792745 0
      vertex -6.7800821279004175 1.740829210153984 0
    endloop
  endfacet
  facet normal 0 0 1
    outer loop
      vertex -6.134146760307044 -3.372275718712008 0
      vertex -6.134146760307044 3.372275718712008 0
      vertex -6.50843540121776 2.576871868792745 0
    endloop
  endfacet
  facet normal 0 0 1
    outer loop
      vertex -5.663118960624632 -4.114496766047312 0
      vertex -5.663118960624632 4.114496766047312 0
      vertex -6.134146760307044 3.372275718712008 0
    endloop
  endfacet
  facet normal 0 0 1
    outer loop
      vertex -5.1027803919498815 -4.79182974150082 0
      vertex -5.1027803919498815 4.79182974150082 0
      vertex -5.663118960624632 4.114496766047312 0
    endloop
  endfacet
  facet normal 0 0 1
    outer loop
      vertex -4.461967928240828 -5.393592699430526 0
      vertex -4.461967928240828 5.393592699430526 0
      vertex -5.1027803919498815 4.79182974150082 0
    endloop
  endfacet
  facet normal 0 0 1
    outer loop
      vertex -3.7507875648529776 -5.910295478514104 0
      vertex -3.45 0 0
      vertex -3.7507875648529776 5.910295478514104 0
    endloop
  endfacet
  facet normal 0 0 1
    outer loop
      vertex -3.7507875648529776 -5.910295478514104 0
      vertex -3.7507875648529776 5.910295478514104 0
      vertex -4.461967928240828 5.393592699430526 0
    endloop
  endfacet
  facet normal 0 0 1
    outer loop
      vertex -3.7507875648529776 5.910295478514104 0
      vertex -3.45 0 0
      vertex -3.4227957195349488 0.432399655796849 0
    endloop
  endfacet
  facet normal 0 0 1
    outer loop
      vertex -3.7507875648529776 5.910295478514104 0
      vertex -3.4227957195349488 0.432399655796849 0
      vertex -3.341611905893777 0.8579801107187492 0
    endloop
  endfacet
  facet normal -0.8443279255020153 0.5358267949789963 0
    outer loop
      vertex -6.134146760307044 3.372275718712008 -1
      vertex -6.134146760307044 3.372275718712008 0
      vertex -5.663118960624632 4.114496766047312 0
    endloop
  endfacet
  facet normal -0.7705132427757893 0.6374239897486896 0
    outer loop
      vertex -5.663118960624632 4.114496766047312 -1
      vertex -5.663118960624632 4.114496766047312 0
      vertex -5.1027803919498815 4.79182974150082 0
    endloop
  endfacet
  facet normal -0.6845471059286894 0.7289686274214108 0
    outer loop
      vertex -4.461967928240828 5.393592699430526 -1
      vertex -5.1027803919498815 4.79182974150082 0
      vertex -4.461967928240828 5.393592699430526 0
    endloop
  endfacet
  facet normal -0.5877852522924721 0.8090169943749482 0
    outer loop
      vertex -3.7507875648529776 5.910295478514104 -1
      vertex -4.461967928240828 5.393592699430526 0
      vertex -3.7507875648529776 5.910295478514104 0
    endloop
  endfacet
  facet normal 0 0 1
    outer loop
      vertex -3.7507875648529776 5.910295478514104 0
      vertex -3.341611905893777 0.8579801107187492 0
      vertex -3.2077288763144676 1.2700297067621387 0
    endloop
  endfacet
  facet normal 0 0 1
    outer loop
      vertex -3.7507875648529776 5.910295478514104 0
      vertex -3.2077288763144676 1.2700297067621387 0
      vertex -3.023258046151329 1.662050175650918 0
    endloop
  endfacet
  facet normal 0 0 1
    outer loop
      vertex -3.7507875648529776 5.910295478514104 0
      vertex -3.023258046151329 1.662050175650918 0
      vertex -2.791108630593569 2.0278591204090324 0
    endloop
  endfacet
  facet normal -0.4817536741017157 0.8763066800438634 0
    outer loop
      vertex -2.980455040955509 6.333789367262137 -1
      vertex -3.7507875648529776 5.910295478514104 0
      vertex -2.980455040955509 6.333789367262137 0
    endloop
  endfacet
  facet normal -0.3681245526846774 0.9297764858882516 0
    outer loop
      vertex -2.1631189606246317 6.657395614066075 -1
      vertex -2.980455040955509 6.333789367262137 0
      vertex -2.1631189606246317 6.657395614066075 0
    endloop
  endfacet
  facet normal -0.24868988716485535 0.968583161128631 0
    outer loop
      vertex -1.311669202100072 6.876010755100821 -1
      vertex -2.1631189606246317 6.657395614066075 0
      vertex -1.311669202100072 6.876010755100821 0
    endloop
  endfacet
  facet normal -0.12533323356430376 0.9921147013144779 0
    outer loop
      vertex -0.43953363670519296 6.986187098997901 -1
      vertex -1.311669202100072 6.876010755100821 0
      vertex -0.43953363670519296 6.986187098997901 0
    endloop
  endfacet
  facet normal 0 0 1
    outer loop
      vertex -2.980455040955509 6.333789367262137 0
      vertex -2.791108630593569 2.0278591204090324 0
      vertex -2.5149417646038703 2.3616875154539754 0
    endloop
  endfacet
  facet normal 0 0 1
    outer loop
      vertex -3.7507875648529776 5.910295478514104 0
      vertex -2.791108630593569 2.0278591204090324 0
      vertex -2.980455040955509 6.333789367262137 0
    endloop
  endfacet
  facet normal 0 0 1
    outer loop
      vertex -2.980455040955509 6.333789367262137 0
      vertex -2.5149417646038703 2.3616875154539754 0
      vertex -2.1991127646329796 2.6582706875764734 0
    endloop
  endfacet
  facet normal 0 0 1
    outer loop
      vertex -2.980455040955509 6.333789367262137 0
      vertex -2.1991127646329796 2.6582706875764734 0
      vertex -1.848602442677539 2.9129313429819517 0
    endloop
  endfacet
  facet normal 0 0 1
    outer loop
      vertex -2.1631189606246317 6.657395614066075 0
      vertex -1.848602442677539 2.9129313429819517 0
      vertex -1.468938555899501 3.121653331007767 0
    endloop
  endfacet
  facet normal 0 0 1
    outer loop
      vertex -2.980455040955509 6.333789367262137 0
      vertex -1.848602442677539 2.9129313429819517 0
      vertex -2.1631189606246317 6.657395614066075 0
    endloop
  endfacet
  facet normal 0 0 1
    outer loop
      vertex -2.1631189606246317 6.657395614066075 0
      vertex -1.468938555899501 3.121653331007767 0
      vertex -1.0661086305935685 3.28114498121828 0
    endloop
  endfacet
  facet normal 0 0 1
    outer loop
      vertex -1.311669202100072 6.876010755100821 0
      vertex -1.0661086305935685 3.28114498121828 0
      vertex -0.6464655353207498 3.3888910150139764 0
    endloop
  endfacet
  facet normal 0 0 1
    outer loop
      vertex -1.311669202100072 6.876010755100821 0
      vertex -0.6464655353207498 3.3888910150139764 0
      vertex -0.21662729237613002 3.443192213077537 0
    endloop
  endfacet
  facet normal 0 0 1
    outer loop
      vertex -2.1631189606246317 6.657395614066075 0
      vertex -1.0661086305935685 3.28114498121828 0
      vertex -1.311669202100072 6.876010755100821 0
    endloop
  endfacet
  facet normal 0 0 1
    outer loop
      vertex -1.311669202100072 6.876010755100821 0
      vertex -0.21662729237613002 3.443192213077537 0
      vertex -0.43953363670519296 6.986187098997901 0
    endloop
  endfacet
  facet normal 0 0 1
    outer loop
      vertex -0.43953363670519296 6.986187098997901 0
      vertex -0.21662729237613002 3.443192213077537 0
      vertex 0.43953363670519296 6.986187098997901 0
    endloop
  endfacet
  facet normal 0 0 -1
    outer loop
      vertex 0.43953363670519635 -6.986187098997901 -1
      vertex 0.8305315322174441 -1.3087082845281237 -1
      vertex 1.3116692021000738 -6.87601075510082 -1
    endloop
  endfacet
  facet normal 0 -1 0
    outer loop
      vertex -0.43953363670519635 -6.986187098997901 -1
      vertex 0.43953363670519635 -6.986187098997901 -1
      vertex 0.43953363670519635 -6.986187098997901 0
    endloop
  endfacet
  facet normal 0.12533323356430495 -0.9921147013144778 0
    outer loop
      vertex 0.43953363670519635 -6.986187098997901 -1
      vertex 1.3116692021000738 -6.87601075510082 -1
      vertex 1.3116692021000738 -6.87601075510082 0
    endloop
  endfacet
  facet normal 0.2486898871648549 -0.9685831611286312 0
    outer loop
      vertex 1.3116692021000738 -6.87601075510082 -1
      vertex 2.1631189606246317 -6.657395614066075 -1
      vertex 2.1631189606246317 -6.657395614066075 0
    endloop
  endfacet
  facet normal 0.36812455268467814 -0.9297764858882513 0
    outer loop
      vertex 2.1631189606246317 -6.657395614066075 -1
      vertex 2.980455040955507 -6.333789367262137 -1
      vertex 2.980455040955507 -6.333789367262137 0
    endloop
  endfacet
  facet normal 0.48175367410171444 -0.876306680043864 0
    outer loop
      vertex 2.980455040955507 -6.333789367262137 -1
      vertex 3.7507875648529736 -5.910295478514107 -1
      vertex 3.7507875648529736 -5.910295478514107 0
    endloop
  endfacet
  facet normal 0 0 -1
    outer loop
      vertex 0.43953363670519635 -6.986187098997901 -1
      vertex -0.09732530527043634 -1.546941429063821 -1
      vertex 0.09732530527043634 -1.546941429063821 -1
    endloop
  endfacet
  facet normal 0 0 -1
    outer loop
      vertex 0.43953363670519635 -6.986187098997901 -1
      vertex 0.09732530527043634 -1.546941429063821 -1
      vertex 0.2904410376078735 -1.5225452386294673 -1
    endloop
  endfacet
  facet normal 0 0 -1
    outer loop
      vertex 0.43953363670519635 -6.986187098997901 -1
      vertex 0.2904410376078735 -1.5225452386294673 -1
      vertex 0.47897634128116845 -1.474137600257488 -1
    endloop
  endfacet
  facet normal 0 0 -1
    outer loop
      vertex 0.43953363670519635 -6.986187098997901 -1
      vertex 0.47897634128116845 -1.474137600257488 -1
      vertex 0.6599579019258623 -1.4024819313223305 -1
    endloop
  endfacet
  facet normal 0 0 -1
    outer loop
      vertex 0.43953363670519635 -6.986187098997901 -1
      vertex 0.6599579019258623 -1.4024819313223305 -1
      vertex 0.8305315322174441 -1.3087082845281237 -1
    endloop
  endfacet
  facet normal 0 0 -1
    outer loop
      vertex 1.3116692021000738 -6.87601075510082 -1
      vertex 0.8305315322174441 -1.3087082845281237 -1
      vertex 0.9880071841104695 -1.194295526302473 -1
    endloop
  endfacet
  facet normal 0 0 -1
    outer loop
      vertex 1.3116692021000738 -6.87601075510082 -1
      vertex 0.9880071841104695 -1.194295526302473 -1
      vertex 1.1299013725031881 -1.0610480141894671 -1
    endloop
  endfacet
  facet normal 0 0 -1
    outer loop
      vertex 1.3116692021000738 -6.87601075510082 -1
      vertex 1.1299013725031881 -1.0610480141894671 -1
      vertex 1.2539763412811686 -0.9110671410533334 -1
    endloop
  endfacet
  facet normal 0 0 -1
    outer loop
      vertex 1.3116692021000738 -6.87601075510082 -1
      vertex 1.2539763412811686 -0.9110671410533334 -1
      vertex 1.3582753540679884 -0.7467181948576589 -1
    endloop
  endfacet
  facet normal 0 0 -1
    outer loop
      vertex 1.3116692021000738 -6.87601075510082 -1
      vertex 1.3582753540679884 -0.7467181948576589 -1
      vertex 1.4411535531267894 -0.5705930566612515 -1
    endloop
  endfacet
  facet normal 0 0 -1
    outer loop
      vertex 1.3116692021000738 -6.87601075510082 -1
      vertex 1.4411535531267894 -0.5705930566612515 -1
      vertex 1.5013038997493784 -0.3854693251055244 -1
    endloop
  endfacet
  facet normal 0 0 -1
    outer loop
      vertex 1.3116692021000738 -6.87601075510082 -1
      vertex 1.5013038997493784 -0.3854693251055244 -1
      vertex 1.5377777870374407 -0.1942665120246713 -1
    endloop
  endfacet
  facet normal 0 0 -1
    outer loop
      vertex 1.3116692021000738 -6.87601075510082 -1
      vertex 1.5377777870374407 -0.1942665120246713 -1
      vertex 2.1631189606246317 6.657395614066075 -1
    endloop
  endfacet
  facet normal 0 0 -1
    outer loop
      vertex 1.3116692021000738 -6.87601075510082 -1
      vertex 2.1631189606246317 6.657395614066075 -1
      vertex 2.1631189606246317 -6.657395614066075 -1
    endloop
  endfacet
  facet normal 0 0 -1
    outer loop
      vertex 2.1631189606246317 -6.657395614066075 -1
      vertex 2.980455040955509 6.333789367262137 -1
      vertex 2.980455040955507 -6.333789367262137 -1
    endloop
  endfacet
  facet normal 0 0 -1
    outer loop
      vertex 2.980455040955507 -6.333789367262137 -1
      vertex 3.7507875648529767 5.910295478514105 -1
      vertex 3.7507875648529736 -5.910295478514107 -1
    endloop
  endfacet
  facet normal 0.587785252292473 -0.8090169943749476 0
    outer loop
      vertex 3.7507875648529736 -5.910295478514107 -1
      vertex 4.4619679282408296 -5.393592699430523 -1
      vertex 4.4619679282408296 -5.393592699430523 0
    endloop
  endfacet
  facet normal 0.6845471059286888 -0.7289686274214114 0
    outer loop
      vertex 4.4619679282408296 -5.393592699430523 -1
      vertex 5.1027803919498815 -4.79182974150082 -1
      vertex 5.1027803919498815 -4.79182974150082 0
    endloop
  endfacet
  facet normal 0.7705132427757893 -0.6374239897486896 0
    outer loop
      vertex 5.1027803919498815 -4.79182974150082 -1
      vertex 5.663118960624632 -4.114496766047312 -1
      vertex 5.1027803919498815 -4.79182974150082 0
    endloop
  endfacet
  facet normal 0.8443279255020153 -0.5358267949789963 0
    outer loop
      vertex 5.663118960624632 -4.114496766047312 -1
      vertex 6.134146760307044 -3.372275718712008 -1
      vertex 5.663118960624632 -4.114496766047312 0
    endloop
  endfacet
  facet normal 0 0 -1
    outer loop
      vertex 3.7507875648529736 -5.910295478514107 -1
      vertex 4.461967928240828 5.393592699430524 -1
      vertex 4.4619679282408296 -5.393592699430523 -1
    endloop
  endfacet
  facet normal 0 0 -1
    outer loop
      vertex 4.4619679282408296 -5.393592699430523 -1
      vertex 5.102780391949881 4.7918297415008215 -1
      vertex 5.1027803919498815 -4.79182974150082 -1
    endloop
  endfacet
  facet normal 0 0 -1
    outer loop
      vertex 5.1027803919498815 -4.79182974150082 -1
      vertex 5.663118960624632 4.114496766047312 -1
      vertex 5.663118960624632 -4.114496766047312 -1
    endloop
  endfacet
  facet normal 0 0 -1
    outer loop
      vertex 5.663118960624632 -4.114496766047312 -1
      vertex 6.134146760307045 3.3722757187120074 -1
      vertex 6.134146760307044 -3.372275718712008 -1
    endloop
  endfacet
  facet normal 0 0 -1
    outer loop
      vertex 6.134146760307044 -3.372275718712008 -1
      vertex 6.50843540121776 2.576871868792746 -1
      vertex 6.508435401217759 -2.5768718687927485 -1
    endloop
  endfacet
  facet normal 0 0 -1
    outer loop
      vertex 6.508435401217759 -2.5768718687927485 -1
      vertex 6.7800821279004175 1.7408292101539835 -1
      vertex 6.780082127900418 -1.740829210153981 -1
    endloop
  endfacet
  facet normal 0 0 -1
    outer loop
      vertex 6.780082127900418 -1.740829210153981 -1
      vertex 6.9448029092013455 0.8773326349501298 -1
      vertex 6.9448029092013455 -0.8773326349501285 -1
    endloop
  endfacet
  facet normal 0.9048270524660191 -0.4257792915650735 0
    outer loop
      vertex 6.134146760307044 -3.372275718712008 -1
      vertex 6.508435401217759 -2.5768718687927485 -1
      vertex 6.134146760307044 -3.372275718712008 0
    endloop
  endfacet
  facet normal 0.9510565162951536 -0.3090169943749471 0
    outer loop
      vertex 6.508435401217759 -2.5768718687927485 -1
      vertex 6.780082127900418 -1.740829210153981 -1
      vertex 6.508435401217759 -2.5768718687927485 0
    endloop
  endfacet
  facet normal 0.9822872507286887 -0.18738131458572496 0
    outer loop
      vertex 6.780082127900418 -1.740829210153981 -1
      vertex 6.9448029092013455 -0.8773326349501285 -1
      vertex 6.780082127900418 -1.740829210153981 0
    endloop
  endfacet
  facet normal 0.9980267284282716 -0.06279051952931272 0
    outer loop
      vertex 6.9448029092013455 -0.8773326349501285 -1
      vertex 7 0 -1
      vertex 6.9448029092013455 -0.8773326349501285 0
    endloop
  endfacet
  facet normal 0.12533323356430495 -0.9921147013144778 0
    outer loop
      vertex 0.43953363670519635 -6.986187098997901 -1
      vertex 1.3116692021000738 -6.87601075510082 0
      vertex 0.43953363670519635 -6.986187098997901 0
    endloop
  endfacet
  facet normal 0.2486898871648549 -0.9685831611286312 0
    outer loop
      vertex 1.3116692021000738 -6.87601075510082 -1
      vertex 2.1631189606246317 -6.657395614066075 0
      vertex 1.3116692021000738 -6.87601075510082 0
    endloop
  endfacet
  facet normal 0.36812455268467814 -0.9297764858882513 0
    outer loop
      vertex 2.1631189606246317 -6.657395614066075 -1
      vertex 2.980455040955507 -6.333789367262137 0
      vertex 2.1631189606246317 -6.657395614066075 0
    endloop
  endfacet
  facet normal 0.48175367410171444 -0.876306680043864 0
    outer loop
      vertex 2.980455040955507 -6.333789367262137 -1
      vertex 3.7507875648529736 -5.910295478514107 0
      vertex 2.980455040955507 -6.333789367262137 0
    endloop
  endfacet
  facet normal 0 0 1
    outer loop
      vertex -0.43953363670519635 -6.986187098997901 0
      vertex 0.43953363670519635 -6.986187098997901 0
      vertex 0.21662729237613249 -3.443192213077537 0
    endloop
  endfacet
  facet normal 0 0 1
    outer loop
      vertex 0.43953363670519635 -6.986187098997901 0
      vertex 1.3116692021000738 -6.87601075510082 0
      vertex 0.21662729237613249 -3.443192213077537 0
    endloop
  endfacet
  facet normal 0 0 1
    outer loop
      vertex 1.3116692021000738 -6.87601075510082 0
      vertex 2.1631189606246317 -6.657395614066075 0
      vertex 1.0661086305935685 -3.28114498121828 0
    endloop
  endfacet
  facet normal 0 0 1
    outer loop
      vertex 1.3116692021000738 -6.87601075510082 0
      vertex 0.6464655353207507 -3.388891015013976 0
      vertex 0.21662729237613249 -3.443192213077537 0
    endloop
  endfacet
  facet normal 0 0 1
    outer loop
      vertex 1.3116692021000738 -6.87601075510082 0
      vertex 1.0661086305935685 -3.28114498121828 0
      vertex 0.6464655353207507 -3.388891015013976 0
    endloop
  endfacet
  facet normal 0 0 1
    outer loop
      vertex 2.1631189606246317 -6.657395614066075 0
      vertex 1.4689385558995 -3.1216533310077677 0
      vertex 1.0661086305935685 -3.28114498121828 0
    endloop
  endfacet
  facet normal 0 0 1
    outer loop
      vertex 2.1631189606246317 -6.657395614066075 0
      vertex 2.980455040955507 -6.333789367262137 0
      vertex 1.848602442677537 -2.912931342981953 0
    endloop
  endfacet
  facet normal 0 0 1
    outer loop
      vertex 2.1631189606246317 -6.657395614066075 0
      vertex 1.848602442677537 -2.912931342981953 0
      vertex 1.4689385558995 -3.1216533310077677 0
    endloop
  endfacet
  facet normal 0 0 1
    outer loop
      vertex 2.980455040955507 -6.333789367262137 0
      vertex 2.1991127646329804 -2.658270687576472 0
      vertex 1.848602442677537 -2.912931342981953 0
    endloop
  endfacet
  facet normal 0 0 1
    outer loop
      vertex 2.980455040955507 -6.333789367262137 0
      vertex 2.5149417646038703 -2.3616875154539754 0
      vertex 2.1991127646329804 -2.658270687576472 0
    endloop
  endfacet
  facet normal 0 0 1
    outer loop
      vertex 2.980455040955507 -6.333789367262137 0
      vertex 3.7507875648529736 -5.910295478514107 0
      vertex 2.791108630593569 -2.0278591204090324 0
    endloop
  endfacet
  facet normal 0 0 1
    outer loop
      vertex 2.980455040955507 -6.333789367262137 0
      vertex 2.791108630593569 -2.0278591204090324 0
      vertex 2.5149417646038703 -2.3616875154539754 0
    endloop
  endfacet
  facet normal 0 0 1
    outer loop
      vertex 3.7507875648529736 -5.910295478514107 0
      vertex 3.023258046151329 -1.662050175650918 0
      vertex 2.791108630593569 -2.0278591204090324 0
    endloop
  endfacet
  facet normal 0 0 1
    outer loop
      vertex 3.7507875648529736 -5.910295478514107 0
      vertex 3.207728876314467 -1.2700297067621404 0
      vertex 3.023258046151329 -1.662050175650918 0
    endloop
  endfacet
  facet normal 0 0 1
    outer loop
      vertex 3.7507875648529736 -5.910295478514107 0
      vertex 3.3416119058937777 -0.8579801107187478 0
      vertex 3.207728876314467 -1.2700297067621404 0
    endloop
  endfacet
  facet normal 0.587785252292473 -0.8090169943749476 0
    outer loop
      vertex 3.7507875648529736 -5.910295478514107 -1
      vertex 4.4619679282408296 -5.393592699430523 0
      vertex 3.7507875648529736 -5.910295478514107 0
    endloop
  endfacet
  facet normal 0.6845471059286888 -0.7289686274214114 0
    outer loop
      vertex 4.4619679282408296 -5.393592699430523 -1
      vertex 5.1027803919498815 -4.79182974150082 0
      vertex 4.4619679282408296 -5.393592699430523 0
    endloop
  endfacet
  facet normal 0.7705132427757893 -0.6374239897486896 0
    outer loop
      vertex 5.663118960624632 -4.114496766047312 -1
      vertex 5.663118960624632 -4.114496766047312 0
      vertex 5.1027803919498815 -4.79182974150082 0
    endloop
  endfacet
  facet normal 0.8443279255020153 -0.5358267949789963 0
    outer loop
      vertex 6.134146760307044 -3.372275718712008 -1
      vertex 6.134146760307044 -3.372275718712008 0
      vertex 5.663118960624632 -4.114496766047312 0
    endloop
  endfacet
  facet normal 0.9048270524660191 -0.4257792915650735 0
    outer loop
      vertex 6.508435401217759 -2.5768718687927485 -1
      vertex 6.508435401217759 -2.5768718687927485 0
      vertex 6.134146760307044 -3.372275718712008 0
    endloop
  endfacet
  facet normal 0.9510565162951536 -0.3090169943749471 0
    outer loop
      vertex 6.780082127900418 -1.740829210153981 -1
      vertex 6.780082127900418 -1.740829210153981 0
      vertex 6.508435401217759 -2.5768718687927485 0
    endloop
  endfacet
  facet normal 0.9822872507286887 -0.18738131458572496 0
    outer loop
      vertex 6.9448029092013455 -0.8773326349501285 -1
      vertex 6.9448029092013455 -0.8773326349501285 0
      vertex 6.780082127900418 -1.740829210153981 0
    endloop
  endfacet
  facet normal 0.9980267284282716 -0.06279051952931272 0
    outer loop
      vertex 6.9448029092013455 -0.8773326349501285 0
      vertex 7 0 -1
      vertex 7 0 0
    endloop
  endfacet
  facet normal 0 0 1
    outer loop
      vertex 3.7507875648529736 -5.910295478514107 0
      vertex 3.4227957195349488 -0.432399655796849 0
      vertex 3.3416119058937777 -0.8579801107187478 0
    endloop
  endfacet
  facet normal 0 0 1
    outer loop
      vertex 3.7507875648529736 -5.910295478514107 0
      vertex 3.45 0 0
      vertex 3.4227957195349488 -0.432399655796849 0
    endloop
  endfacet
  facet normal 0 0 1
    outer loop
      vertex 3.7507875648529736 -5.910295478514107 0
      vertex 4.4619679282408296 -5.393592699430523 0
      vertex 3.7507875648529767 5.910295478514105 0
    endloop
  endfacet
  facet normal 0 0 1
    outer loop
      vertex 3.7507875648529736 -5.910295478514107 0
      vertex 3.7507875648529767 5.910295478514105 0
      vertex 3.45 0 0
    endloop
  endfacet
  facet normal 0 0 1
    outer loop
      vertex 4.4619679282408296 -5.393592699430523 0
      vertex 5.1027803919498815 -4.79182974150082 0
      vertex 4.461967928240828 5.393592699430524 0
    endloop
  endfacet
  facet normal 0 0 1
    outer loop
      vertex 5.1027803919498815 -4.79182974150082 0
      vertex 5.663118960624632 -4.114496766047312 0
      vertex 5.102780391949881 4.7918297415008215 0
    endloop
  endfacet
  facet normal 0 0 1
    outer loop
      vertex 5.663118960624632 -4.114496766047312 0
      vertex 6.134146760307044 -3.372275718712008 0
      vertex 5.663118960624632 4.114496766047312 0
    endloop
  endfacet
  facet normal 0 0 1
    outer loop
      vertex 6.134146760307044 -3.372275718712008 0
      vertex 6.508435401217759 -2.5768718687927485 0
      vertex 6.134146760307045 3.3722757187120074 0
    endloop
  endfacet
  facet normal 0 0 1
    outer loop
      vertex 6.508435401217759 -2.5768718687927485 0
      vertex 6.780082127900418 -1.740829210153981 0
      vertex 6.50843540121776 2.576871868792746 0
    endloop
  endfacet
  facet normal 0 0 1
    outer loop
      vertex 6.780082127900418 -1.740829210153981 0
      vertex 6.9448029092013455 -0.8773326349501285 0
      vertex 6.7800821279004175 1.7408292101539835 0
    endloop
  endfacet
  facet normal 0 0 -1
    outer loop
      vertex 0.43953363670519296 6.986187098997901 -1
      vertex 0.2904410376078731 1.5225452386294676 -1
      vertex 0.09732530527043427 1.546941429063821 -1
    endloop
  endfacet
  facet normal 0 0 -1
    outer loop
      vertex 1.311669202100072 6.876010755100821 -1
      vertex 0.6599579019258627 1.4024819313223302 -1
      vertex 0.47897634128116845 1.474137600257488 -1
    endloop
  endfacet
  facet normal 0 0 -1
    outer loop
      vertex 1.311669202100072 6.876010755100821 -1
      vertex 0.47897634128116845 1.474137600257488 -1
      vertex 0.2904410376078731 1.5225452386294676 -1
    endloop
  endfacet
  facet normal 0 0 -1
    outer loop
      vertex 2.1631189606246317 6.657395614066075 -1
      vertex 1.5377777870374407 0.1942665120246716 -1
      vertex 1.5013038997493782 0.38546932510552495 -1
    endloop
  endfacet
  facet normal 0 0 -1
    outer loop
      vertex 2.1631189606246317 6.657395614066075 -1
      vertex 1.5013038997493782 0.38546932510552495 -1
      vertex 1.4411535531267896 0.5705930566612509 -1
    endloop
  endfacet
  facet normal 0 0 -1
    outer loop
      vertex 1.311669202100072 6.876010755100821 -1
      vertex 1.129901372503188 1.0610480141894676 -1
      vertex 0.9880071841104692 1.1942955263024733 -1
    endloop
  endfacet
  facet normal 0 0 -1
    outer loop
      vertex 1.311669202100072 6.876010755100821 -1
      vertex 1.2539763412811686 0.9110671410533334 -1
      vertex 1.129901372503188 1.0610480141894676 -1
    endloop
  endfacet
  facet normal 0 0 -1
    outer loop
      vertex 1.311669202100072 6.876010755100821 -1
      vertex 0.8305315322174448 1.3087082845281235 -1
      vertex 0.6599579019258627 1.4024819313223302 -1
    endloop
  endfacet
  facet normal 0 0 -1
    outer loop
      vertex 1.311669202100072 6.876010755100821 -1
      vertex 0.9880071841104692 1.1942955263024733 -1
      vertex 0.8305315322174448 1.3087082845281235 -1
    endloop
  endfacet
  facet normal 0 0 -1
    outer loop
      vertex 2.1631189606246317 6.657395614066075 -1
      vertex 1.3582753540679886 0.7467181948576588 -1
      vertex 1.2539763412811686 0.9110671410533334 -1
    endloop
  endfacet
  facet normal 0 0 -1
    outer loop
      vertex 2.1631189606246317 6.657395614066075 -1
      vertex 1.4411535531267896 0.5705930566612509 -1
      vertex 1.3582753540679886 0.7467181948576588 -1
    endloop
  endfacet
  facet normal 0 0 -1
    outer loop
      vertex 2.1631189606246317 6.657395614066075 -1
      vertex 1.5377777870374407 -0.1942665120246713 -1
      vertex 1.55 0 -1
    endloop
  endfacet
  facet normal 0 0 -1
    outer loop
      vertex 2.1631189606246317 6.657395614066075 -1
      vertex 1.55 0 -1
      vertex 1.5377777870374407 0.1942665120246716 -1
    endloop
  endfacet
  facet normal 0 0 -1
    outer loop
      vertex 2.1631189606246317 -6.657395614066075 -1
      vertex 2.1631189606246317 6.657395614066075 -1
      vertex 2.980455040955509 6.333789367262137 -1
    endloop
  endfacet
  facet normal 0 0 -1
    outer loop
      vertex 2.980455040955507 -6.333789367262137 -1
      vertex 2.980455040955509 6.333789367262137 -1
      vertex 3.7507875648529767 5.910295478514105 -1
    endloop
  endfacet
  facet normal 0 0 -1
    outer loop
      vertex -0.43953363670519296 6.986187098997901 -1
      vertex 0.43953363670519296 6.986187098997901 -1
      vertex 0.09732530527043427 1.546941429063821 -1
    endloop
  endfacet
  facet normal 0 0 -1
    outer loop
      vertex 0.43953363670519296 6.986187098997901 -1
      vertex 1.311669202100072 6.876010755100821 -1
      vertex 0.2904410376078731 1.5225452386294676 -1
    endloop
  endfacet
  facet normal 0 0 -1
    outer loop
      vertex 1.311669202100072 6.876010755100821 -1
      vertex 2.1631189606246317 6.657395614066075 -1
      vertex 1.2539763412811686 0.9110671410533334 -1
    endloop
  endfacet
  facet normal 0.12533323356430376 0.9921147013144779 0
    outer loop
      vertex 0.43953363670519296 6.986187098997901 -1
      vertex 0.43953363670519296 6.986187098997901 0
      vertex 1.311669202100072 6.876010755100821 -1
    endloop
  endfacet
  facet normal 0.24868988716485535 0.968583161128631 0
    outer loop
      vertex 1.311669202100072 6.876010755100821 -1
      vertex 1.311669202100072 6.876010755100821 0
      vertex 2.1631189606246317 6.657395614066075 -1
    endloop
  endfacet
  facet normal 0.3681245526846774 0.9297764858882516 0
    outer loop
      vertex 2.1631189606246317 6.657395614066075 -1
      vertex 2.1631189606246317 6.657395614066075 0
      vertex 2.980455040955509 6.333789367262137 -1
    endloop
  endfacet
  facet normal 0.4817536741017154 0.8763066800438636 0
    outer loop
      vertex 2.980455040955509 6.333789367262137 -1
      vertex 2.980455040955509 6.333789367262137 0
      vertex 3.7507875648529767 5.910295478514105 -1
    endloop
  endfacet
  facet normal 0 0 -1
    outer loop
      vertex 4.4619679282408296 -5.393592699430523 -1
      vertex 4.461967928240828 5.393592699430524 -1
      vertex 5.102780391949881 4.7918297415008215 -1
    endloop
  endfacet
  facet normal 0 0 -1
    outer loop
      vertex 3.7507875648529736 -5.910295478514107 -1
      vertex 3.7507875648529767 5.910295478514105 -1
      vertex 4.461967928240828 5.393592699430524 -1
    endloop
  endfacet
  facet normal 0 0 -1
    outer loop
      vertex 5.1027803919498815 -4.79182974150082 -1
      vertex 5.102780391949881 4.7918297415008215 -1
      vertex 5.663118960624632 4.114496766047312 -1
    endloop
  endfacet
  facet normal 0 0 -1
    outer loop
      vertex 5.663118960624632 -4.114496766047312 -1
      vertex 5.663118960624632 4.114496766047312 -1
      vertex 6.134146760307045 3.3722757187120074 -1
    endloop
  endfacet
  facet normal 0 0 -1
    outer loop
      vertex 6.134146760307044 -3.372275718712008 -1
      vertex 6.134146760307045 3.3722757187120074 -1
      vertex 6.50843540121776 2.576871868792746 -1
    endloop
  endfacet
  facet normal 0 0 -1
    outer loop
      vertex 6.9448029092013455 -0.8773326349501285 -1
      vertex 6.9448029092013455 0.8773326349501298 -1
      vertex 7 0 -1
    endloop
  endfacet
  facet normal 0 0 -1
    outer loop
      vertex 6.780082127900418 -1.740829210153981 -1
      vertex 6.7800821279004175 1.7408292101539835 -1
      vertex 6.9448029092013455 0.8773326349501298 -1
    endloop
  endfacet
  facet normal 0 0 -1
    outer loop
      vertex 6.508435401217759 -2.5768718687927485 -1
      vertex 6.50843540121776 2.576871868792746 -1
      vertex 6.7800821279004175 1.7408292101539835 -1
    endloop
  endfacet
  facet normal 0.9980267284282716 0.06279051952931264 0
    outer loop
      vertex 7 0 -1
      vertex 6.9448029092013455 0.8773326349501298 -1
      vertex 7 0 0
    endloop
  endfacet
  facet normal 0.9822872507286885 0.18738131458572568 0
    outer loop
      vertex 6.9448029092013455 0.8773326349501298 -1
      vertex 6.7800821279004175 1.7408292101539835 -1
      vertex 6.9448029092013455 0.8773326349501298 0
    endloop
  endfacet
  facet normal 0.9510565162951536 0.309016994374947 0
    outer loop
      vertex 6.7800821279004175 1.7408292101539835 -1
      vertex 6.50843540121776 2.576871868792746 -1
      vertex 6.7800821279004175 1.7408292101539835 0
    endloop
  endfacet
  facet normal 0.9048270524660195 0.42577929156507244 0
    outer loop
      vertex 6.50843540121776 2.576871868792746 -1
      vertex 6.134146760307045 3.3722757187120074 -1
      vertex 6.50843540121776 2.576871868792746 0
    endloop
  endfacet
  facet normal 0.6845471059286877 0.7289686274214123 0
    outer loop
      vertex 5.102780391949881 4.7918297415008215 -1
      vertex 4.461967928240828 5.393592699430524 -1
      vertex 4.461967928240828 5.393592699430524 0
    endloop
  endfacet
  facet normal 0.5877852522924737 0.8090169943749471 0
    outer loop
      vertex 3.7507875648529767 5.910295478514105 -1
      vertex 3.7507875648529767 5.910295478514105 0
      vertex 4.461967928240828 5.393592699430524 -1
    endloop
  endfacet
  facet normal 0.7705132427757896 0.6374239897486893 0
    outer loop
      vertex 5.102780391949881 4.7918297415008215 -1
      vertex 5.663118960624632 4.114496766047312 0
      vertex 5.663118960624632 4.114496766047312 -1
    endloop
  endfacet
  facet normal 0.844327925502015 0.5358267949789969 0
    outer loop
      vertex 6.134146760307045 3.3722757187120074 -1
      vertex 5.663118960624632 4.114496766047312 -1
      vertex 6.134146760307045 3.3722757187120074 0
    endloop
  endfacet
  facet normal 0 0 1
    outer loop
      vertex 2.980455040955509 6.333789367262137 0
      vertex 2.791108630593569 2.0278591204090324 0
      vertex 3.0232580461513296 1.662050175650918 0
    endloop
  endfacet
  facet normal 0 0 1
    outer loop
      vertex 2.980455040955509 6.333789367262137 0
      vertex 3.207728876314467 1.270029706762139 0
      vertex 3.341611905893777 0.8579801107187491 0
    endloop
  endfacet
  facet normal 0 0 1
    outer loop
      vertex 2.980455040955509 6.333789367262137 0
      vertex 3.0232580461513296 1.662050175650918 0
      vertex 3.207728876314467 1.270029706762139 0
    endloop
  endfacet
  facet normal 0 1 0
    outer loop
      vertex -0.43953363670519296 6.986187098997901 0
      vertex 0.43953363670519296 6.986187098997901 0
      vertex 0.43953363670519296 6.986187098997901 -1
    endloop
  endfacet
  facet normal 0.12533323356430376 0.9921147013144779 0
    outer loop
      vertex 1.311669202100072 6.876010755100821 -1
      vertex 0.43953363670519296 6.986187098997901 0
      vertex 1.311669202100072 6.876010755100821 0
    endloop
  endfacet
  facet normal 0.24868988716485535 0.968583161128631 0
    outer loop
      vertex 2.1631189606246317 6.657395614066075 -1
      vertex 1.311669202100072 6.876010755100821 0
      vertex 2.1631189606246317 6.657395614066075 0
    endloop
  endfacet
  facet normal 0.4817536741017154 0.8763066800438636 0
    outer loop
      vertex 3.7507875648529767 5.910295478514105 -1
      vertex 2.980455040955509 6.333789367262137 0
      vertex 3.7507875648529767 5.910295478514105 0
    endloop
  endfacet
  facet normal 0.3681245526846774 0.9297764858882516 0
    outer loop
      vertex 2.980455040955509 6.333789367262137 -1
      vertex 2.1631189606246317 6.657395614066075 0
      vertex 2.980455040955509 6.333789367262137 0
    endloop
  endfacet
  facet normal 0 0 1
    outer loop
      vertex 0.43953363670519296 6.986187098997901 0
      vertex -0.21662729237613002 3.443192213077537 0
      vertex 0.21662729237613082 3.443192213077537 0
    endloop
  endfacet
  facet normal 0 0 1
    outer loop
      vertex 0.43953363670519296 6.986187098997901 0
      vertex 0.21662729237613082 3.443192213077537 0
      vertex 0.6464655353207498 3.3888910150139764 0
    endloop
  endfacet
  facet normal 0 0 1
    outer loop
      vertex 0.43953363670519296 6.986187098997901 0
      vertex 0.6464655353207498 3.3888910150139764 0
      vertex 1.0661086305935685 3.28114498121828 0
    endloop
  endfacet
  facet normal 0 0 1
    outer loop
      vertex 1.311669202100072 6.876010755100821 0
      vertex 1.468938555899501 3.121653331007767 0
      vertex 1.8486024426775385 2.912931342981952 0
    endloop
  endfacet
  facet normal 0 0 1
    outer loop
      vertex 1.311669202100072 6.876010755100821 0
      vertex 1.0661086305935685 3.28114498121828 0
      vertex 1.468938555899501 3.121653331007767 0
    endloop
  endfacet
  facet normal 0 0 1
    outer loop
      vertex 0.43953363670519296 6.986187098997901 0
      vertex 1.0661086305935685 3.28114498121828 0
      vertex 1.311669202100072 6.876010755100821 0
    endloop
  endfacet
  facet normal 0 0 1
    outer loop
      vertex 2.1631189606246317 6.657395614066075 0
      vertex 1.8486024426775385 2.912931342981952 0
      vertex 2.1991127646329796 2.6582706875764726 0
    endloop
  endfacet
  facet normal 0 0 1
    outer loop
      vertex 2.1631189606246317 6.657395614066075 0
      vertex 2.1991127646329796 2.6582706875764726 0
      vertex 2.51494176460387 2.3616875154539763 0
    endloop
  endfacet
  facet normal 0 0 1
    outer loop
      vertex 2.1631189606246317 6.657395614066075 0
      vertex 2.51494176460387 2.3616875154539763 0
      vertex 2.980455040955509 6.333789367262137 0
    endloop
  endfacet
  facet normal 0 0 1
    outer loop
      vertex 2.980455040955509 6.333789367262137 0
      vertex 2.51494176460387 2.3616875154539763 0
      vertex 2.791108630593569 2.0278591204090324 0
    endloop
  endfacet
  facet normal 0 0 1
    outer loop
      vertex 2.980455040955509 6.333789367262137 0
      vertex 3.341611905893777 0.8579801107187491 0
      vertex 3.7507875648529767 5.910295478514105 0
    endloop
  endfacet
  facet normal 0 0 1
    outer loop
      vertex 1.311669202100072 6.876010755100821 0
      vertex 1.8486024426775385 2.912931342981952 0
      vertex 2.1631189606246317 6.657395614066075 0
    endloop
  endfacet
  facet normal 0.9980267284282716 0.06279051952931264 0
    outer loop
      vertex 6.9448029092013455 0.8773326349501298 -1
      vertex 6.9448029092013455 0.8773326349501298 0
      vertex 7 0 0
    endloop
  endfacet
  facet normal 0.9822872507286885 0.18738131458572568 0
    outer loop
      vertex 6.7800821279004175 1.7408292101539835 -1
      vertex 6.7800821279004175 1.7408292101539835 0
      vertex 6.9448029092013455 0.8773326349501298 0
    endloop
  endfacet
  facet normal 0.9510565162951536 0.309016994374947 0
    outer loop
      vertex 6.50843540121776 2.576871868792746 -1
      vertex 6.50843540121776 2.576871868792746 0
      vertex 6.7800821279004175 1.7408292101539835 0
    endloop
  endfacet
  facet normal 0.9048270524660195 0.42577929156507244 0
    outer loop
      vertex 6.134146760307045 3.3722757187120074 -1
      vertex 6.134146760307045 3.3722757187120074 0
      vertex 6.50843540121776 2.576871868792746 0
    endloop
  endfacet
  facet normal 0 0 1
    outer loop
      vertex 3.7507875648529767 5.910295478514105 0
      vertex 3.4227957195349488 0.4323996557968497 0
      vertex 3.45 0 0
    endloop
  endfacet
  facet normal 0 0 1
    outer loop
      vertex 3.7507875648529767 5.910295478514105 0
      vertex 3.341611905893777 0.8579801107187491 0
      vertex 3.4227957195349488 0.4323996557968497 0
    endloop
  endfacet
  facet normal 0 0 1
    outer loop
      vertex 4.4619679282408296 -5.393592699430523 0
      vertex 4.461967928240828 5.393592699430524 0
      vertex 3.7507875648529767 5.910295478514105 0
    endloop
  endfacet
  facet normal 0 0 1
    outer loop
      vertex 5.1027803919498815 -4.79182974150082 0
      vertex 5.102780391949881 4.7918297415008215 0
      vertex 4.461967928240828 5.393592699430524 0
    endloop
  endfacet
  facet normal 0 0 1
    outer loop
      vertex 5.663118960624632 -4.114496766047312 0
      vertex 5.663118960624632 4.114496766047312 0
      vertex 5.102780391949881 4.7918297415008215 0
    endloop
  endfacet
  facet normal 0 0 1
    outer loop
      vertex 6.134146760307044 -3.372275718712008 0
      vertex 6.134146760307045 3.3722757187120074 0
      vertex 5.663118960624632 4.114496766047312 0
    endloop
  endfacet
  facet normal 0 0 1
    outer loop
      vertex 6.9448029092013455 -0.8773326349501285 0
      vertex 7 0 0
      vertex 6.9448029092013455 0.8773326349501298 0
    endloop
  endfacet
  facet normal 0 0 1
    outer loop
      vertex 6.780082127900418 -1.740829210153981 0
      vertex 6.7800821279004175 1.7408292101539835 0
      vertex 6.50843540121776 2.576871868792746 0
    endloop
  endfacet
  facet normal 0 0 1
    outer loop
      vertex 6.9448029092013455 -0.8773326349501285 0
      vertex 6.9448029092013455 0.8773326349501298 0
      vertex 6.7800821279004175 1.7408292101539835 0
    endloop
  endfacet
  facet normal 0 0 1
    outer loop
      vertex 6.508435401217759 -2.5768718687927485 0
      vertex 6.50843540121776 2.576871868792746 0
      vertex 6.134146760307045 3.3722757187120074 0
    endloop
  endfacet
  facet normal 0.6845471059286877 0.7289686274214123 0
    outer loop
      vertex 5.102780391949881 4.7918297415008215 -1
      vertex 4.461967928240828 5.393592699430524 0
      vertex 5.102780391949881 4.7918297415008215 0
    endloop
  endfacet
  facet normal 0.5877852522924737 0.8090169943749471 0
    outer loop
      vertex 4.461967928240828 5.393592699430524 -1
      vertex 3.7507875648529767 5.910295478514105 0
      vertex 4.461967928240828 5.393592699430524 0
    endloop
  endfacet
  facet normal 0.844327925502015 0.5358267949789969 0
    outer loop
      vertex 5.663118960624632 4.114496766047312 -1
      vertex 5.663118960624632 4.114496766047312 0
      vertex 6.134146760307045 3.3722757187120074 0
    endloop
  endfacet
  facet normal 0.7705132427757896 0.6374239897486893 0
    outer loop
      vertex 5.102780391949881 4.7918297415008215 -1
      vertex 5.102780391949881 4.7918297415008215 0
      vertex 5.663118960624632 4.114496766047312 0
    endloop
  endfacet
endsolid OpenSCAD_Model
