solid OpenSCAD_Model
  facet normal 0.5730438679507945 0.6102297391289578 0.5470286929280734
    outer loop
      vertex -1.7529159718088965 -2.118911417633421 -4.2
      vertex -2.004663725408882 -1.8825045413038934 -4.2
      vertex -2.5496959589947585 -3.0820529711031575 -2.2909090909090915
    endloop
  endfacet
  facet normal 0.7961425883149612 0.2586824079533775 0.5470286929280733
    outer loop
      vertex -3.8743326445145243 -0.9947595486594193 -2.290909090909091
      vertex -2.5568853361926913 -1.0123425198828642 -4.2
      vertex -2.6636036931037355 -0.6838971897033508 -4.2
    endloop
  endfacet
  facet normal 0.8222862688648304 0.15685949493020604 0.5470286929280734
    outer loop
      vertex -2.6636036931037355 -0.6838971897033508 -4.2
      vertex -2.728315428614814 -0.34466639230183616 -4.2
      vertex -3.9684588052579115 -0.5013329342572163 -2.290909090909091
    endloop
  endfacet
  facet normal 0.835462003744694 0.05256281396866475 0.5470286929280734
    outer loop
      vertex -2.728315428614814 -0.34466639230183616 -4.2
      vertex -2.75 0 -4.2
      vertex -4 0 -2.290909090909091
    endloop
  endfacet
  facet normal 0.7067986060537781 0.44854803487903044 0.5470286929280732
    outer loop
      vertex -3.505226720175454 -1.9270146964068615 -2.29090909090909
      vertex -2.2247967345311057 -1.616409443804301 -4.2
      vertex -2.4098433701206243 -1.3248226037797173 -4.2
    endloop
  endfacet
  facet normal 0.7574432635548358 0.3564257448737439 0.5470286929280733
    outer loop
      vertex -2.4098433701206243 -1.3248226037797173 -4.2
      vertex -2.5568853361926913 -1.0123425198828642 -4.2
      vertex -3.719105943553006 -1.4724982107387115 -2.2909090909090906
    endloop
  endfacet
  facet normal 0.6450073123142293 0.5335964544246692 0.5470286929280733
    outer loop
      vertex -3.23606797749979 -2.351141009169892 -2.290909090909091
      vertex -2.004663725408882 -1.8825045413038934 -4.2
      vertex -2.2247967345311057 -1.616409443804301 -4.2
    endloop
  endfacet
  facet normal 0.4920431794699602 0.6772393363136079 0.5470286929280733
    outer loop
      vertex -1.4735236861922412 -2.321901795130541 -4.2
      vertex -1.7529159718088965 -2.118911417633421 -4.2
      vertex -2.143307179915987 -3.37731170200806 -2.2909090909090906
    endloop
  endfacet
  facet normal 0.4032826761165385 0.7335684646014213 0.5470286929280733
    outer loop
      vertex -1.170893051803949 -2.4882743942815537 -4.2
      vertex -1.4735236861922412 -2.321901795130541 -4.2
      vertex -1.7031171662602897 -3.6193082098640783 -2.29090909090909
    endloop
  endfacet
  facet normal 0.30816216405136504 0.778328779989911 0.5470286929280733
    outer loop
      vertex -0.8497967345311054 -2.615405419811672 -4.2
      vertex -1.170893051803949 -2.4882743942815537 -4.2
      vertex -1.2360679774997898 -3.804226065180614 -2.2909090909090906
    endloop
  endfacet
  facet normal 0.20818175057194854 0.8108143855668833 0.5470286929280733
    outer loop
      vertex -0.5152986151107433 -2.701289939503894 -4.2
      vertex -0.8497967345311054 -2.615405419811672 -4.2
      vertex -0.7495252583428993 -3.9291490029147544 -2.290909090909091
    endloop
  endfacet
  facet normal 0.10491818652426159 0.8305129639264301 0.5470286929280733
    outer loop
      vertex -0.17267392870561285 -2.744573503177747 -4.2
      vertex -0.5152986151107433 -2.701289939503894 -4.2
      vertex -0.7495252583428993 -3.9291490029147544 -2.290909090909091
    endloop
  endfacet
  facet normal 0 0.8371138567204605 0.5470286929280733
    outer loop
      vertex -0.25116207811725516 -3.9921069137130862 -2.290909090909091
      vertex 0.17267392870561285 -2.744573503177747 -4.2
      vertex -0.17267392870561285 -2.744573503177747 -4.2
    endloop
  endfacet
  facet normal 0.6450073123142296 0.5335964544246686 0.5470286929280733
    outer loop
      vertex -3.23606797749979 -2.351141009169892 -2.290909090909091
      vertex -2.9158745096856467 -2.738188423714754 -2.290909090909091
      vertex -2.004663725408882 -1.8825045413038934 -4.2
    endloop
  endfacet
  facet normal 0.5730438679507948 0.6102297391289575 0.5470286929280734
    outer loop
      vertex -2.5496959589947585 -3.0820529711031575 -2.2909090909090915
      vertex -2.004663725408882 -1.8825045413038934 -4.2
      vertex -2.9158745096856467 -2.738188423714754 -2.290909090909091
    endloop
  endfacet
  facet normal 0.4920431794699598 0.677239336313608 0.5470286929280733
    outer loop
      vertex -2.143307179915987 -3.37731170200806 -2.2909090909090906
      vertex -1.7529159718088965 -2.118911417633421 -4.2
      vertex -2.5496959589947585 -3.0820529711031575 -2.2909090909090915
    endloop
  endfacet
  facet normal 0.7574432635548357 0.3564257448737443 0.5470286929280733
    outer loop
      vertex -3.719105943553006 -1.4724982107387115 -2.2909090909090906
      vertex -3.505226720175454 -1.9270146964068615 -2.29090909090909
      vertex -2.4098433701206243 -1.3248226037797173 -4.2
    endloop
  endfacet
  facet normal 0.7961425883149614 0.2586824079533772 0.5470286929280734
    outer loop
      vertex -3.8743326445145243 -0.9947595486594193 -2.290909090909091
      vertex -3.719105943553006 -1.4724982107387115 -2.2909090909090906
      vertex -2.5568853361926913 -1.0123425198828642 -4.2
    endloop
  endfacet
  facet normal 0.8222862688648304 0.15685949493020612 0.5470286929280733
    outer loop
      vertex -3.9684588052579115 -0.5013329342572163 -2.290909090909091
      vertex -3.8743326445145243 -0.9947595486594193 -2.290909090909091
      vertex -2.6636036931037355 -0.6838971897033508 -4.2
    endloop
  endfacet
  facet normal 0.835462003744694 0.05256281396866469 0.5470286929280734
    outer loop
      vertex -4 0 -2.290909090909091
      vertex -3.9684588052579115 -0.5013329342572163 -2.290909090909091
      vertex -2.728315428614814 -0.34466639230183616 -4.2
    endloop
  endfacet
  facet normal 0.7067986060537781 0.4485480348790305 0.5470286929280733
    outer loop
      vertex -3.505226720175454 -1.9270146964068615 -2.29090909090909
      vertex -3.23606797749979 -2.351141009169892 -2.290909090909091
      vertex -2.2247967345311057 -1.616409443804301 -4.2
    endloop
  endfacet
  facet normal 0.4032826761165381 0.7335684646014216 0.5470286929280734
    outer loop
      vertex -1.7031171662602897 -3.6193082098640783 -2.29090909090909
      vertex -1.4735236861922412 -2.321901795130541 -4.2
      vertex -2.143307179915987 -3.37731170200806 -2.2909090909090906
    endloop
  endfacet
  facet normal 0.3081621640513656 0.7783287799899108 0.5470286929280733
    outer loop
      vertex -1.2360679774997898 -3.804226065180614 -2.2909090909090906
      vertex -1.170893051803949 -2.4882743942815537 -4.2
      vertex -1.7031171662602897 -3.6193082098640783 -2.29090909090909
    endloop
  endfacet
  facet normal 0.2081817505719483 0.8108143855668835 0.5470286929280735
    outer loop
      vertex -0.7495252583428993 -3.9291490029147544 -2.290909090909091
      vertex -0.8497967345311054 -2.615405419811672 -4.2
      vertex -1.2360679774997898 -3.804226065180614 -2.2909090909090906
    endloop
  endfacet
  facet normal 0.10491818652426185 0.8305129639264303 0.5470286929280733
    outer loop
      vertex -0.17267392870561285 -2.744573503177747 -4.2
      vertex -0.7495252583428993 -3.9291490029147544 -2.290909090909091
      vertex -0.25116207811725516 -3.9921069137130862 -2.290909090909091
    endloop
  endfacet
  facet normal 0.835462003744694 -0.05256281396866475 0.5470286929280733
    outer loop
      vertex -2.75 0 -4.2
      vertex -2.728315428614814 0.34466639230183616 -4.2
      vertex -3.9684588052579115 0.5013329342572163 -2.290909090909091
    endloop
  endfacet
  facet normal 0.8222862688648304 -0.15685949493020604 0.5470286929280734
    outer loop
      vertex -2.728315428614814 0.34466639230183616 -4.2
      vertex -2.6636036931037355 0.6838971897033508 -4.2
      vertex -3.9684588052579115 0.5013329342572163 -2.290909090909091
    endloop
  endfacet
  facet normal 0.7961425883149613 -0.2586824079533771 0.5470286929280733
    outer loop
      vertex -2.6636036931037355 0.6838971897033508 -4.2
      vertex -2.5568853361926913 1.0123425198828642 -4.2
      vertex -3.8743326445145243 0.9947595486594194 -2.290909090909091
    endloop
  endfacet
  facet normal 0.7574432635548358 -0.3564257448737439 0.5470286929280734
    outer loop
      vertex -2.5568853361926913 1.0123425198828642 -4.2
      vertex -2.4098433701206243 1.3248226037797173 -4.2
      vertex -3.719105943553006 1.4724982107387117 -2.2909090909090906
    endloop
  endfacet
  facet normal 0.7067986060537781 -0.4485480348790302 0.5470286929280733
    outer loop
      vertex -2.4098433701206243 1.3248226037797173 -4.2
      vertex -2.2247967345311057 1.616409443804301 -4.2
      vertex -3.505226720175454 1.9270146964068617 -2.29090909090909
    endloop
  endfacet
  facet normal 0.6450073123142291 -0.5335964544246691 0.5470286929280733
    outer loop
      vertex -2.2247967345311057 1.616409443804301 -4.2
      vertex -2.004663725408882 1.8825045413038934 -4.2
      vertex -3.23606797749979 2.3511410091698925 -2.290909090909091
    endloop
  endfacet
  facet normal 0.5730438679507945 -0.6102297391289578 0.5470286929280733
    outer loop
      vertex -2.004663725408882 1.8825045413038934 -4.2
      vertex -1.7529159718088965 2.118911417633421 -4.2
      vertex -2.549695958994758 3.0820529711031575 -2.2909090909090915
    endloop
  endfacet
  facet normal 0.4920431794699602 -0.6772393363136079 0.5470286929280733
    outer loop
      vertex -1.7529159718088965 2.118911417633421 -4.2
      vertex -1.4735236861922412 2.321901795130541 -4.2
      vertex -2.143307179915987 3.37731170200806 -2.2909090909090906
    endloop
  endfacet
  facet normal 0.40328267611653934 -0.7335684646014208 0.5470286929280733
    outer loop
      vertex -1.4735236861922412 2.321901795130541 -4.2
      vertex -1.17089305180395 2.4882743942815537 -4.2
      vertex -1.7031171662602906 3.619308209864078 -2.2909090909090915
    endloop
  endfacet
  facet normal 0.3081621640513643 -0.7783287799899112 0.5470286929280734
    outer loop
      vertex -1.17089305180395 2.4882743942815537 -4.2
      vertex -0.8497967345311054 2.615405419811672 -4.2
      vertex -1.2360679774997896 3.804226065180614 -2.2909090909090906
    endloop
  endfacet
  facet normal 0.20818175057194818 -0.8108143855668835 0.5470286929280733
    outer loop
      vertex -0.8497967345311054 2.615405419811672 -4.2
      vertex -0.5152986151107426 2.701289939503894 -4.2
      vertex -0.7495252583428983 3.929149002914755 -2.29090909090909
    endloop
  endfacet
  facet normal 0.1049181865242614 -0.8305129639264301 0.5470286929280734
    outer loop
      vertex -0.5152986151107426 2.701289939503894 -4.2
      vertex -0.17267392870561152 2.744573503177747 -4.2
      vertex -0.2511620781172531 3.9921069137130862 -2.290909090909091
    endloop
  endfacet
  facet normal 0.835462003744694 -0.05256281396866469 0.5470286929280735
    outer loop
      vertex -3.9684588052579115 0.5013329342572163 -2.290909090909091
      vertex -4 0 -2.290909090909091
      vertex -2.75 0 -4.2
    endloop
  endfacet
  facet normal 0.8222862688648305 -0.1568594949302061 0.5470286929280734
    outer loop
      vertex -3.8743326445145243 0.9947595486594194 -2.290909090909091
      vertex -3.9684588052579115 0.5013329342572163 -2.290909090909091
      vertex -2.6636036931037355 0.6838971897033508 -4.2
    endloop
  endfacet
  facet normal 0.7961425883149613 -0.2586824079533771 0.5470286929280734
    outer loop
      vertex -3.719105943553006 1.4724982107387117 -2.2909090909090906
      vertex -3.8743326445145243 0.9947595486594194 -2.290909090909091
      vertex -2.5568853361926913 1.0123425198828642 -4.2
    endloop
  endfacet
  facet normal 0.7574432635548357 -0.35642574487374423 0.5470286929280733
    outer loop
      vertex -3.505226720175454 1.9270146964068617 -2.29090909090909
      vertex -3.719105943553006 1.4724982107387117 -2.2909090909090906
      vertex -2.4098433701206243 1.3248226037797173 -4.2
    endloop
  endfacet
  facet normal 0.7067986060537781 -0.4485480348790303 0.5470286929280733
    outer loop
      vertex -3.23606797749979 2.3511410091698925 -2.290909090909091
      vertex -3.505226720175454 1.9270146964068617 -2.29090909090909
      vertex -2.2247967345311057 1.616409443804301 -4.2
    endloop
  endfacet
  facet normal 0.6450073123142293 -0.5335964544246691 0.5470286929280734
    outer loop
      vertex -2.9158745096856467 2.738188423714754 -2.290909090909091
      vertex -3.23606797749979 2.3511410091698925 -2.290909090909091
      vertex -2.004663725408882 1.8825045413038934 -4.2
    endloop
  endfacet
  facet normal 0.5730438679507945 -0.610229739128958 0.5470286929280734
    outer loop
      vertex -2.549695958994758 3.0820529711031575 -2.2909090909090915
      vertex -2.9158745096856467 2.738188423714754 -2.290909090909091
      vertex -2.004663725408882 1.8825045413038934 -4.2
    endloop
  endfacet
  facet normal 0.4920431794699603 -0.6772393363136078 0.5470286929280733
    outer loop
      vertex -1.7529159718088965 2.118911417633421 -4.2
      vertex -2.143307179915987 3.37731170200806 -2.2909090909090906
      vertex -2.549695958994758 3.0820529711031575 -2.2909090909090915
    endloop
  endfacet
  facet normal 0.40328267611653956 -0.7335684646014208 0.5470286929280734
    outer loop
      vertex -1.4735236861922412 2.321901795130541 -4.2
      vertex -1.7031171662602906 3.619308209864078 -2.2909090909090915
      vertex -2.143307179915987 3.37731170200806 -2.2909090909090906
    endloop
  endfacet
  facet normal 0.3081621640513644 -0.7783287799899112 0.5470286929280734
    outer loop
      vertex -1.17089305180395 2.4882743942815537 -4.2
      vertex -1.2360679774997896 3.804226065180614 -2.2909090909090906
      vertex -1.7031171662602906 3.619308209864078 -2.2909090909090915
    endloop
  endfacet
  facet normal 0.20818175057194777 -0.8108143855668836 0.5470286929280733
    outer loop
      vertex -0.8497967345311054 2.615405419811672 -4.2
      vertex -0.7495252583428983 3.929149002914755 -2.29090909090909
      vertex -1.2360679774997896 3.804226065180614 -2.2909090909090906
    endloop
  endfacet
  facet normal 0.10491818652426162 -0.8305129639264301 0.5470286929280733
    outer loop
      vertex -0.5152986151107426 2.701289939503894 -4.2
      vertex -0.2511620781172531 3.9921069137130862 -2.290909090909091
      vertex -0.7495252583428983 3.929149002914755 -2.29090909090909
    endloop
  endfacet
  facet normal 0 -0.8371138567204605 0.5470286929280733
    outer loop
      vertex -0.17267392870561152 2.744573503177747 -4.2
      vertex 0.2511620781172531 3.9921069137130862 -2.290909090909091
      vertex -0.2511620781172531 3.9921069137130862 -2.290909090909091
    endloop
  endfacet
  facet normal -0.1049181865242616 0.8305129639264301 0.5470286929280734
    outer loop
      vertex 0.25116207811725505 -3.9921069137130862 -2.290909090909091
      vertex 0.5152986151107433 -2.701289939503894 -4.2
      vertex 0.17267392870561285 -2.744573503177747 -4.2
    endloop
  endfacet
  facet normal -0.20818175057194854 0.8108143855668833 0.5470286929280733
    outer loop
      vertex 0.7495252583428993 -3.9291490029147544 -2.290909090909091
      vertex 0.8497967345311054 -2.615405419811672 -4.2
      vertex 0.5152986151107433 -2.701289939503894 -4.2
    endloop
  endfacet
  facet normal -0.30816216405136504 0.778328779989911 0.5470286929280733
    outer loop
      vertex 1.170893051803949 -2.4882743942815537 -4.2
      vertex 0.8497967345311054 -2.615405419811672 -4.2
      vertex 1.2360679774997896 -3.804226065180614 -2.2909090909090906
    endloop
  endfacet
  facet normal -0.40328267611653756 0.7335684646014219 0.5470286929280733
    outer loop
      vertex 1.7031171662602897 -3.6193082098640783 -2.29090909090909
      vertex 1.4735236861922396 -2.3219017951305423 -4.2
      vertex 1.170893051803949 -2.4882743942815537 -4.2
    endloop
  endfacet
  facet normal -0.4920431794699609 0.6772393363136076 0.5470286929280733
    outer loop
      vertex 2.143307179915985 -3.377311702008061 -2.290909090909091
      vertex 1.7529159718088974 -2.11891141763342 -4.2
      vertex 1.4735236861922396 -2.3219017951305423 -4.2
    endloop
  endfacet
  facet normal -0.5730438679507944 0.610229739128958 0.5470286929280734
    outer loop
      vertex 2.004663725408882 -1.8825045413038934 -4.2
      vertex 1.7529159718088974 -2.11891141763342 -4.2
      vertex 2.5496959589947594 -3.082052971103156 -2.2909090909090915
    endloop
  endfacet
  facet normal -0.6450073123142291 0.5335964544246691 0.5470286929280733
    outer loop
      vertex 2.2247967345311057 -1.616409443804301 -4.2
      vertex 2.004663725408882 -1.8825045413038934 -4.2
      vertex 3.23606797749979 -2.3511410091698925 -2.290909090909091
    endloop
  endfacet
  facet normal -0.7067986060537781 0.4485480348790302 0.5470286929280733
    outer loop
      vertex 2.4098433701206243 -1.3248226037797173 -4.2
      vertex 2.2247967345311057 -1.616409443804301 -4.2
      vertex 3.505226720175454 -1.9270146964068617 -2.29090909090909
    endloop
  endfacet
  facet normal -0.7574432635548356 0.35642574487374423 0.5470286929280734
    outer loop
      vertex 2.556885336192691 -1.0123425198828655 -4.2
      vertex 2.4098433701206243 -1.3248226037797173 -4.2
      vertex 3.719105943553005 -1.4724982107387135 -2.290909090909091
    endloop
  endfacet
  facet normal -0.7961425883149614 0.2586824079533773 0.5470286929280733
    outer loop
      vertex 3.8743326445145247 -0.9947595486594177 -2.290909090909091
      vertex 2.663603693103736 -0.6838971897033497 -4.2
      vertex 2.556885336192691 -1.0123425198828655 -4.2
    endloop
  endfacet
  facet normal -0.8222862688648305 0.15685949493020548 0.5470286929280734
    outer loop
      vertex 2.728315428614814 -0.34466639230183616 -4.2
      vertex 2.663603693103736 -0.6838971897033497 -4.2
      vertex 3.9684588052579115 -0.5013329342572163 -2.290909090909091
    endloop
  endfacet
  facet normal -0.835462003744694 0.05256281396866475 0.5470286929280733
    outer loop
      vertex 2.75 0 -4.2
      vertex 2.728315428614814 -0.34466639230183616 -4.2
      vertex 3.9684588052579115 -0.5013329342572163 -2.290909090909091
    endloop
  endfacet
  facet normal 0 0.8371138567204605 0.5470286929280734
    outer loop
      vertex -0.25116207811725516 -3.9921069137130862 -2.290909090909091
      vertex 0.25116207811725505 -3.9921069137130862 -2.290909090909091
      vertex 0.17267392870561285 -2.744573503177747 -4.2
    endloop
  endfacet
  facet normal -0.10491818652426159 0.8305129639264301 0.5470286929280733
    outer loop
      vertex 0.25116207811725505 -3.9921069137130862 -2.290909090909091
      vertex 0.7495252583428993 -3.9291490029147544 -2.290909090909091
      vertex 0.5152986151107433 -2.701289939503894 -4.2
    endloop
  endfacet
  facet normal -0.20818175057194838 0.8108143855668833 0.5470286929280734
    outer loop
      vertex 0.7495252583428993 -3.9291490029147544 -2.290909090909091
      vertex 1.2360679774997896 -3.804226065180614 -2.2909090909090906
      vertex 0.8497967345311054 -2.615405419811672 -4.2
    endloop
  endfacet
  facet normal -0.3081621640513655 0.7783287799899109 0.5470286929280733
    outer loop
      vertex 1.2360679774997896 -3.804226065180614 -2.2909090909090906
      vertex 1.7031171662602897 -3.6193082098640783 -2.29090909090909
      vertex 1.170893051803949 -2.4882743942815537 -4.2
    endloop
  endfacet
  facet normal -0.40328267611653745 0.7335684646014218 0.5470286929280732
    outer loop
      vertex 1.7031171662602897 -3.6193082098640783 -2.29090909090909
      vertex 2.143307179915985 -3.377311702008061 -2.290909090909091
      vertex 1.4735236861922396 -2.3219017951305423 -4.2
    endloop
  endfacet
  facet normal -0.49204317946996073 0.6772393363136076 0.5470286929280734
    outer loop
      vertex 2.143307179915985 -3.377311702008061 -2.290909090909091
      vertex 2.5496959589947594 -3.082052971103156 -2.2909090909090915
      vertex 1.7529159718088974 -2.11891141763342 -4.2
    endloop
  endfacet
  facet normal -0.5730438679507944 0.610229739128958 0.5470286929280733
    outer loop
      vertex 2.004663725408882 -1.8825045413038934 -4.2
      vertex 2.5496959589947594 -3.082052971103156 -2.2909090909090915
      vertex 2.9158745096856467 -2.738188423714754 -2.290909090909091
    endloop
  endfacet
  facet normal -0.6450073123142293 0.5335964544246691 0.5470286929280734
    outer loop
      vertex 2.9158745096856467 -2.738188423714754 -2.290909090909091
      vertex 3.23606797749979 -2.3511410091698925 -2.290909090909091
      vertex 2.004663725408882 -1.8825045413038934 -4.2
    endloop
  endfacet
  facet normal -0.7067986060537781 0.4485480348790303 0.5470286929280733
    outer loop
      vertex 3.23606797749979 -2.3511410091698925 -2.290909090909091
      vertex 3.505226720175454 -1.9270146964068617 -2.29090909090909
      vertex 2.2247967345311057 -1.616409443804301 -4.2
    endloop
  endfacet
  facet normal -0.7574432635548354 0.35642574487374457 0.5470286929280733
    outer loop
      vertex 3.505226720175454 -1.9270146964068617 -2.29090909090909
      vertex 3.719105943553005 -1.4724982107387135 -2.290909090909091
      vertex 2.4098433701206243 -1.3248226037797173 -4.2
    endloop
  endfacet
  facet normal -0.7961425883149615 0.258682407953377 0.5470286929280734
    outer loop
      vertex 3.719105943553005 -1.4724982107387135 -2.290909090909091
      vertex 3.8743326445145247 -0.9947595486594177 -2.290909090909091
      vertex 2.556885336192691 -1.0123425198828655 -4.2
    endloop
  endfacet
  facet normal -0.8222862688648305 0.15685949493020587 0.5470286929280733
    outer loop
      vertex 3.8743326445145247 -0.9947595486594177 -2.290909090909091
      vertex 3.9684588052579115 -0.5013329342572163 -2.290909090909091
      vertex 2.663603693103736 -0.6838971897033497 -4.2
    endloop
  endfacet
  facet normal -0.835462003744694 0.05256281396866469 0.5470286929280735
    outer loop
      vertex 3.9684588052579115 -0.5013329342572163 -2.290909090909091
      vertex 4 0 -2.290909090909091
      vertex 2.75 0 -4.2
    endloop
  endfacet
  facet normal 0 -0.8371138567204605 0.5470286929280734
    outer loop
      vertex -0.17267392870561152 2.744573503177747 -4.2
      vertex 0.1726739287056112 2.744573503177747 -4.2
      vertex 0.2511620781172531 3.9921069137130862 -2.290909090909091
    endloop
  endfacet
  facet normal -0.10491818652426131 -0.8305129639264301 0.5470286929280734
    outer loop
      vertex 0.1726739287056112 2.744573503177747 -4.2
      vertex 0.5152986151107426 2.701289939503894 -4.2
      vertex 0.7495252583428984 3.929149002914755 -2.2909090909090906
    endloop
  endfacet
  facet normal -0.20818175057194818 -0.8108143855668835 0.5470286929280733
    outer loop
      vertex 0.5152986151107426 2.701289939503894 -4.2
      vertex 0.8497967345311054 2.615405419811672 -4.2
      vertex 0.7495252583428984 3.929149002914755 -2.2909090909090906
    endloop
  endfacet
  facet normal -0.3081621640513643 -0.7783287799899112 0.5470286929280734
    outer loop
      vertex 0.8497967345311054 2.615405419811672 -4.2
      vertex 1.17089305180395 2.4882743942815537 -4.2
      vertex 1.2360679774997898 3.804226065180614 -2.2909090909090906
    endloop
  endfacet
  facet normal -0.403282676116539 -0.733568464601421 0.5470286929280734
    outer loop
      vertex 1.17089305180395 2.4882743942815537 -4.2
      vertex 1.4735236861922407 2.3219017951305414 -4.2
      vertex 1.7031171662602909 3.619308209864078 -2.2909090909090915
    endloop
  endfacet
  facet normal -0.4920431794699615 -0.677239336313607 0.5470286929280734
    outer loop
      vertex 1.4735236861922407 2.3219017951305414 -4.2
      vertex 1.7529159718088967 2.11891141763342 -4.2
      vertex 2.1433071799159866 3.3773117020080603 -2.2909090909090906
    endloop
  endfacet
  facet normal -0.6450073123142295 -0.533596454424669 0.5470286929280733
    outer loop
      vertex 2.0046637254088817 1.882504541303894 -4.2
      vertex 2.2247967345311057 1.616409443804301 -4.2
      vertex 3.23606797749979 2.351141009169892 -2.290909090909091
    endloop
  endfacet
  facet normal -0.757443263554836 -0.3564257448737434 0.5470286929280733
    outer loop
      vertex 2.4098433701206248 1.324822603779717 -4.2
      vertex 2.5568853361926913 1.0123425198828644 -4.2
      vertex 3.7191059435530054 1.4724982107387117 -2.290909090909091
    endloop
  endfacet
  facet normal -0.7067986060537778 -0.44854803487903067 0.5470286929280735
    outer loop
      vertex 2.2247967345311057 1.616409443804301 -4.2
      vertex 2.4098433701206248 1.324822603779717 -4.2
      vertex 3.5052267201754543 1.9270146964068613 -2.290909090909091
    endloop
  endfacet
  facet normal -0.8354620037446939 -0.052562813968664676 0.5470286929280734
    outer loop
      vertex 2.728315428614814 0.3446663923018367 -4.2
      vertex 2.75 0 -4.2
      vertex 4 0 -2.290909090909091
    endloop
  endfacet
  facet normal -0.8222862688648304 -0.15685949493020632 0.5470286929280734
    outer loop
      vertex 2.6636036931037355 0.6838971897033507 -4.2
      vertex 2.728315428614814 0.3446663923018367 -4.2
      vertex 3.9684588052579115 0.501332934257217 -2.290909090909091
    endloop
  endfacet
  facet normal -0.7961425883149615 -0.2586824079533769 0.5470286929280734
    outer loop
      vertex 2.5568853361926913 1.0123425198828644 -4.2
      vertex 2.6636036931037355 0.6838971897033507 -4.2
      vertex 3.8743326445145243 0.9947595486594192 -2.290909090909091
    endloop
  endfacet
  facet normal -0.5730438679507933 -0.610229739128959 0.5470286929280734
    outer loop
      vertex 1.7529159718088967 2.11891141763342 -4.2
      vertex 2.0046637254088817 1.882504541303894 -4.2
      vertex 2.549695958994759 3.0820529711031566 -2.2909090909090906
    endloop
  endfacet
  facet normal -0.10491818652426123 -0.8305129639264301 0.5470286929280733
    outer loop
      vertex 0.1726739287056112 2.744573503177747 -4.2
      vertex 0.7495252583428984 3.929149002914755 -2.2909090909090906
      vertex 0.2511620781172531 3.9921069137130862 -2.290909090909091
    endloop
  endfacet
  facet normal -0.20818175057194818 -0.8108143855668836 0.5470286929280734
    outer loop
      vertex 0.7495252583428984 3.929149002914755 -2.2909090909090906
      vertex 0.8497967345311054 2.615405419811672 -4.2
      vertex 1.2360679774997898 3.804226065180614 -2.2909090909090906
    endloop
  endfacet
  facet normal -0.3081621640513642 -0.7783287799899112 0.5470286929280733
    outer loop
      vertex 1.2360679774997898 3.804226065180614 -2.2909090909090906
      vertex 1.17089305180395 2.4882743942815537 -4.2
      vertex 1.7031171662602909 3.619308209864078 -2.2909090909090915
    endloop
  endfacet
  facet normal -0.40328267611653934 -0.7335684646014209 0.5470286929280733
    outer loop
      vertex 1.7031171662602909 3.619308209864078 -2.2909090909090915
      vertex 1.4735236861922407 2.3219017951305414 -4.2
      vertex 2.1433071799159866 3.3773117020080603 -2.2909090909090906
    endloop
  endfacet
  facet normal -0.7067986060537773 -0.4485480348790317 0.5470286929280734
    outer loop
      vertex 3.5052267201754543 1.9270146964068613 -2.290909090909091
      vertex 3.23606797749979 2.351141009169892 -2.290909090909091
      vertex 2.2247967345311057 1.616409443804301 -4.2
    endloop
  endfacet
  facet normal -0.8354620037446939 -0.05256281396866461 0.5470286929280734
    outer loop
      vertex 4 0 -2.290909090909091
      vertex 3.9684588052579115 0.501332934257217 -2.290909090909091
      vertex 2.728315428614814 0.3446663923018367 -4.2
    endloop
  endfacet
  facet normal -0.8222862688648304 -0.15685949493020637 0.5470286929280734
    outer loop
      vertex 3.9684588052579115 0.501332934257217 -2.290909090909091
      vertex 3.8743326445145243 0.9947595486594192 -2.290909090909091
      vertex 2.6636036931037355 0.6838971897033507 -4.2
    endloop
  endfacet
  facet normal -0.7961425883149614 -0.25868240795337727 0.5470286929280733
    outer loop
      vertex 3.8743326445145243 0.9947595486594192 -2.290909090909091
      vertex 3.7191059435530054 1.4724982107387117 -2.290909090909091
      vertex 2.5568853361926913 1.0123425198828644 -4.2
    endloop
  endfacet
  facet normal -0.7574432635548362 -0.35642574487374284 0.5470286929280734
    outer loop
      vertex 3.7191059435530054 1.4724982107387117 -2.290909090909091
      vertex 3.5052267201754543 1.9270146964068613 -2.290909090909091
      vertex 2.4098433701206248 1.324822603779717 -4.2
    endloop
  endfacet
  facet normal -0.4920431794699614 -0.677239336313607 0.5470286929280733
    outer loop
      vertex 2.1433071799159866 3.3773117020080603 -2.2909090909090906
      vertex 1.7529159718088967 2.11891141763342 -4.2
      vertex 2.549695958994759 3.0820529711031566 -2.2909090909090906
    endloop
  endfacet
  facet normal -0.5730438679507933 -0.610229739128959 0.5470286929280734
    outer loop
      vertex 2.549695958994759 3.0820529711031566 -2.2909090909090906
      vertex 2.0046637254088817 1.882504541303894 -4.2
      vertex 2.915874509685646 2.738188423714755 -2.290909090909091
    endloop
  endfacet
  facet normal -0.6450073123142297 -0.5335964544246684 0.5470286929280734
    outer loop
      vertex 3.23606797749979 2.351141009169892 -2.290909090909091
      vertex 2.915874509685646 2.738188423714755 -2.290909090909091
      vertex 2.0046637254088817 1.882504541303894 -4.2
    endloop
  endfacet
  facet normal 0 0 -1
    outer loop
      vertex -2.5496959589947585 -3.0820529711031575 -4.2
      vertex -2.9158745096856467 -2.738188423714754 -4.2
      vertex -2.4098433701206243 -1.3248226037797173 -4.2
    endloop
  endfacet
  facet normal 0 0 -1
    outer loop
      vertex -2.5496959589947585 -3.0820529711031575 -4.2
      vertex -2.004663725408882 -1.8825045413038934 -4.2
      vertex -2.143307179915987 -3.37731170200806 -4.2
    endloop
  endfacet
  facet normal 0 0 -1
    outer loop
      vertex -2.5496959589947585 -3.0820529711031575 -4.2
      vertex -2.4098433701206243 -1.3248226037797173 -4.2
      vertex -2.2247967345311057 -1.616409443804301 -4.2
    endloop
  endfacet
  facet normal 0 0 -1
    outer loop
      vertex -2.5496959589947585 -3.0820529711031575 -4.2
      vertex -2.2247967345311057 -1.616409443804301 -4.2
      vertex -2.004663725408882 -1.8825045413038934 -4.2
    endloop
  endfacet
  facet normal -0.8443279255020154 -0.5358267949789962 0
    outer loop
      vertex -3.23606797749979 -2.3511410091698925 -4.2
      vertex -3.505226720175454 -1.9270146964068615 -2.29090909090909
      vertex -3.505226720175454 -1.9270146964068615 -4.2
    endloop
  endfacet
  facet normal -0.7705132427757891 -0.6374239897486899 1.4827639406746053e-16
    outer loop
      vertex -3.23606797749979 -2.3511410091698925 -4.2
      vertex -2.9158745096856467 -2.738188423714754 -4.2
      vertex -3.23606797749979 -2.351141009169892 -2.290909090909091
    endloop
  endfacet
  facet normal -0.5877852522924727 -0.8090169943749477 0
    outer loop
      vertex -2.5496959589947585 -3.0820529711031575 -4.2
      vertex -2.143307179915987 -3.37731170200806 -4.2
      vertex -2.5496959589947585 -3.0820529711031575 -2.2909090909090915
    endloop
  endfacet
  facet normal -0.6845471059286891 -0.728968627421411 0
    outer loop
      vertex -2.5496959589947585 -3.0820529711031575 -4.2
      vertex -2.9158745096856467 -2.738188423714754 -2.290909090909091
      vertex -2.9158745096856467 -2.738188423714754 -4.2
    endloop
  endfacet
  facet normal 0 0 -1
    outer loop
      vertex -3.719105943553006 -1.4724982107387115 -4.2
      vertex -3.8743326445145243 -0.9947595486594194 -4.2
      vertex -3.719105943553006 1.4724982107387115 -4.2
    endloop
  endfacet
  facet normal 0 0 -1
    outer loop
      vertex -3.8743326445145243 -0.9947595486594194 -4.2
      vertex -3.9684588052579115 -0.5013329342572163 -4.2
      vertex -3.8743326445145243 0.9947595486594194 -4.2
    endloop
  endfacet
  facet normal 0 0 -1
    outer loop
      vertex -3.505226720175454 -1.9270146964068615 -4.2
      vertex -3.719105943553006 -1.4724982107387115 -4.2
      vertex -3.505226720175454 1.9270146964068615 -4.2
    endloop
  endfacet
  facet normal 0 0 -1
    outer loop
      vertex -3.23606797749979 -2.3511410091698925 -4.2
      vertex -3.505226720175454 -1.9270146964068615 -4.2
      vertex -3.23606797749979 2.3511410091698925 -4.2
    endloop
  endfacet
  facet normal 0 0 -1
    outer loop
      vertex -3.23606797749979 -2.3511410091698925 -4.2
      vertex -2.9158745096856467 2.738188423714754 -4.2
      vertex -2.9158745096856467 -2.738188423714754 -4.2
    endloop
  endfacet
  facet normal 0 0 -1
    outer loop
      vertex -2.9158745096856467 -2.738188423714754 -4.2
      vertex -2.5568853361926913 -1.0123425198828642 -4.2
      vertex -2.4098433701206243 -1.3248226037797173 -4.2
    endloop
  endfacet
  facet normal 0 0 -1
    outer loop
      vertex -2.9158745096856467 -2.738188423714754 -4.2
      vertex -2.728315428614814 -0.34466639230183616 -4.2
      vertex -2.6636036931037355 -0.6838971897033508 -4.2
    endloop
  endfacet
  facet normal 0 0 -1
    outer loop
      vertex -2.9158745096856467 -2.738188423714754 -4.2
      vertex -2.75 0 -4.2
      vertex -2.728315428614814 -0.34466639230183616 -4.2
    endloop
  endfacet
  facet normal 0 0 -1
    outer loop
      vertex -2.9158745096856467 -2.738188423714754 -4.2
      vertex -2.6636036931037355 -0.6838971897033508 -4.2
      vertex -2.5568853361926913 -1.0123425198828642 -4.2
    endloop
  endfacet
  facet normal -0.9048270524660192 -0.42577929156507316 0
    outer loop
      vertex -3.505226720175454 -1.9270146964068615 -4.2
      vertex -3.719105943553006 -1.4724982107387115 -2.2909090909090906
      vertex -3.719105943553006 -1.4724982107387115 -4.2
    endloop
  endfacet
  facet normal -0.9510565162951536 -0.30901699437494706 2.894273481742446e-17
    outer loop
      vertex -3.719105943553006 -1.4724982107387115 -4.2
      vertex -3.8743326445145243 -0.9947595486594193 -2.290909090909091
      vertex -3.8743326445145243 -0.9947595486594194 -4.2
    endloop
  endfacet
  facet normal -0.9822872507286886 -0.18738131458572493 0
    outer loop
      vertex -3.8743326445145243 -0.9947595486594194 -4.2
      vertex -3.9684588052579115 -0.5013329342572163 -2.290909090909091
      vertex -3.9684588052579115 -0.5013329342572163 -4.2
    endloop
  endfacet
  facet normal -0.9980267284282716 -0.06279051952931311 0
    outer loop
      vertex -3.9684588052579115 -0.5013329342572163 -4.2
      vertex -4 0 -2.290909090909091
      vertex -4 0 -4.2
    endloop
  endfacet
  facet normal 0 0 -1
    outer loop
      vertex -2.143307179915987 -3.37731170200806 -4.2
      vertex -1.4735236861922412 -2.321901795130541 -4.2
      vertex -1.7031171662602897 -3.6193082098640783 -4.2
    endloop
  endfacet
  facet normal 0 0 -1
    outer loop
      vertex -1.7031171662602897 -3.6193082098640783 -4.2
      vertex -1.170893051803949 -2.4882743942815537 -4.2
      vertex -1.2360679774997896 -3.804226065180614 -4.2
    endloop
  endfacet
  facet normal 0 0 -1
    outer loop
      vertex -2.143307179915987 -3.37731170200806 -4.2
      vertex -1.7529159718088965 -2.118911417633421 -4.2
      vertex -1.4735236861922412 -2.321901795130541 -4.2
    endloop
  endfacet
  facet normal 0 0 -1
    outer loop
      vertex -2.143307179915987 -3.37731170200806 -4.2
      vertex -2.004663725408882 -1.8825045413038934 -4.2
      vertex -1.7529159718088965 -2.118911417633421 -4.2
    endloop
  endfacet
  facet normal 0 0 -1
    outer loop
      vertex -1.7031171662602897 -3.6193082098640783 -4.2
      vertex -1.4735236861922412 -2.321901795130541 -4.2
      vertex -1.170893051803949 -2.4882743942815537 -4.2
    endloop
  endfacet
  facet normal 0 0 -1
    outer loop
      vertex -1.2360679774997896 -3.804226065180614 -4.2
      vertex -1.170893051803949 -2.4882743942815537 -4.2
      vertex -0.8497967345311054 -2.615405419811672 -4.2
    endloop
  endfacet
  facet normal 0 0 -1
    outer loop
      vertex -1.2360679774997896 -3.804226065180614 -4.2
      vertex -0.5152986151107433 -2.701289939503894 -4.2
      vertex -0.7495252583428993 -3.9291490029147544 -4.2
    endloop
  endfacet
  facet normal 0 0 -1
    outer loop
      vertex -1.2360679774997896 -3.804226065180614 -4.2
      vertex -0.8497967345311054 -2.615405419811672 -4.2
      vertex -0.5152986151107433 -2.701289939503894 -4.2
    endloop
  endfacet
  facet normal 0 0 -1
    outer loop
      vertex -0.7495252583428993 -3.9291490029147544 -4.2
      vertex -0.17267392870561285 -2.744573503177747 -4.2
      vertex -0.25116207811725505 -3.9921069137130862 -4.2
    endloop
  endfacet
  facet normal 0 0 -1
    outer loop
      vertex -0.25116207811725505 -3.9921069137130862 -4.2
      vertex -0.17267392870561285 -2.744573503177747 -4.2
      vertex 0.25116207811725505 -3.9921069137130862 -4.2
    endloop
  endfacet
  facet normal 0 0 -1
    outer loop
      vertex -0.7495252583428993 -3.9291490029147544 -4.2
      vertex -0.5152986151107433 -2.701289939503894 -4.2
      vertex -0.17267392870561285 -2.744573503177747 -4.2
    endloop
  endfacet
  facet normal -0.3681245526846778 -0.9297764858882515 0
    outer loop
      vertex -1.7031171662602897 -3.6193082098640783 -4.2
      vertex -1.2360679774997896 -3.804226065180614 -4.2
      vertex -1.7031171662602897 -3.6193082098640783 -2.29090909090909
    endloop
  endfacet
  facet normal -0.48175367410171505 -0.8763066800438637 0
    outer loop
      vertex -2.143307179915987 -3.37731170200806 -4.2
      vertex -1.7031171662602897 -3.6193082098640783 -4.2
      vertex -2.143307179915987 -3.37731170200806 -2.2909090909090906
    endloop
  endfacet
  facet normal -0.248689887164855 -0.9685831611286311 -2.892489167562281e-17
    outer loop
      vertex -1.2360679774997896 -3.804226065180614 -4.2
      vertex -0.7495252583428993 -3.9291490029147544 -4.2
      vertex -1.2360679774997898 -3.804226065180614 -2.2909090909090906
    endloop
  endfacet
  facet normal -0.12533323356430495 -0.9921147013144778 0
    outer loop
      vertex -0.7495252583428993 -3.9291490029147544 -4.2
      vertex -0.25116207811725505 -3.9921069137130862 -4.2
      vertex -0.7495252583428993 -3.9291490029147544 -2.290909090909091
    endloop
  endfacet
  facet normal 0 -1 0
    outer loop
      vertex -0.25116207811725505 -3.9921069137130862 -4.2
      vertex 0.25116207811725505 -3.9921069137130862 -4.2
      vertex -0.25116207811725516 -3.9921069137130862 -2.290909090909091
    endloop
  endfacet
  facet normal -0.7705132427757895 -0.6374239897486894 0
    outer loop
      vertex -2.9158745096856467 -2.738188423714754 -4.2
      vertex -2.9158745096856467 -2.738188423714754 -2.290909090909091
      vertex -3.23606797749979 -2.351141009169892 -2.290909090909091
    endloop
  endfacet
  facet normal -0.8443279255020151 -0.5358267949789965 1.2464304180885023e-16
    outer loop
      vertex -3.23606797749979 -2.3511410091698925 -4.2
      vertex -3.23606797749979 -2.351141009169892 -2.290909090909091
      vertex -3.505226720175454 -1.9270146964068615 -2.29090909090909
    endloop
  endfacet
  facet normal -0.5877852522924727 -0.8090169943749478 0
    outer loop
      vertex -2.143307179915987 -3.37731170200806 -4.2
      vertex -2.143307179915987 -3.37731170200806 -2.2909090909090906
      vertex -2.5496959589947585 -3.0820529711031575 -2.2909090909090915
    endloop
  endfacet
  facet normal -0.6845471059286891 -0.7289686274214111 0
    outer loop
      vertex -2.5496959589947585 -3.0820529711031575 -4.2
      vertex -2.5496959589947585 -3.0820529711031575 -2.2909090909090915
      vertex -2.9158745096856467 -2.738188423714754 -2.290909090909091
    endloop
  endfacet
  facet normal -0.9048270524660194 -0.42577929156507316 0
    outer loop
      vertex -3.505226720175454 -1.9270146964068615 -4.2
      vertex -3.505226720175454 -1.9270146964068615 -2.29090909090909
      vertex -3.719105943553006 -1.4724982107387115 -2.2909090909090906
    endloop
  endfacet
  facet normal -0.9510565162951538 -0.309016994374947 0
    outer loop
      vertex -3.719105943553006 -1.4724982107387115 -4.2
      vertex -3.719105943553006 -1.4724982107387115 -2.2909090909090906
      vertex -3.8743326445145243 -0.9947595486594193 -2.290909090909091
    endloop
  endfacet
  facet normal -0.9822872507286886 -0.187381314585725 1.0897074039112462e-17
    outer loop
      vertex -3.8743326445145243 -0.9947595486594194 -4.2
      vertex -3.8743326445145243 -0.9947595486594193 -2.290909090909091
      vertex -3.9684588052579115 -0.5013329342572163 -2.290909090909091
    endloop
  endfacet
  facet normal -0.9980267284282716 -0.06279051952931311 0
    outer loop
      vertex -3.9684588052579115 -0.5013329342572163 -4.2
      vertex -3.9684588052579115 -0.5013329342572163 -2.290909090909091
      vertex -4 0 -2.290909090909091
    endloop
  endfacet
  facet normal -0.4817536741017151 -0.8763066800438637 0
    outer loop
      vertex -1.7031171662602897 -3.6193082098640783 -4.2
      vertex -1.7031171662602897 -3.6193082098640783 -2.29090909090909
      vertex -2.143307179915987 -3.37731170200806 -2.2909090909090906
    endloop
  endfacet
  facet normal -0.36812455268467803 -0.9297764858882515 -4.2816227595466905e-17
    outer loop
      vertex -1.2360679774997896 -3.804226065180614 -4.2
      vertex -1.2360679774997898 -3.804226065180614 -2.2909090909090906
      vertex -1.7031171662602897 -3.6193082098640783 -2.29090909090909
    endloop
  endfacet
  facet normal -0.24868988716485485 -0.9685831611286311 0
    outer loop
      vertex -0.7495252583428993 -3.9291490029147544 -4.2
      vertex -0.7495252583428993 -3.9291490029147544 -2.290909090909091
      vertex -1.2360679774997898 -3.804226065180614 -2.2909090909090906
    endloop
  endfacet
  facet normal -0.125333233564305 -0.9921147013144778 -7.288696467580727e-18
    outer loop
      vertex -0.25116207811725505 -3.9921069137130862 -4.2
      vertex -0.25116207811725516 -3.9921069137130862 -2.290909090909091
      vertex -0.7495252583428993 -3.9291490029147544 -2.290909090909091
    endloop
  endfacet
  facet normal 0 0 -1
    outer loop
      vertex -3.9684588052579115 -0.5013329342572163 -4.2
      vertex -4 0 -4.2
      vertex -3.9684588052579115 0.5013329342572163 -4.2
    endloop
  endfacet
  facet normal 0 0 -1
    outer loop
      vertex -3.9684588052579115 -0.5013329342572163 -4.2
      vertex -3.9684588052579115 0.5013329342572163 -4.2
      vertex -3.8743326445145243 0.9947595486594194 -4.2
    endloop
  endfacet
  facet normal 0 0 -1
    outer loop
      vertex -3.8743326445145243 -0.9947595486594194 -4.2
      vertex -3.8743326445145243 0.9947595486594194 -4.2
      vertex -3.719105943553006 1.4724982107387115 -4.2
    endloop
  endfacet
  facet normal 0 0 -1
    outer loop
      vertex -3.719105943553006 -1.4724982107387115 -4.2
      vertex -3.719105943553006 1.4724982107387115 -4.2
      vertex -3.505226720175454 1.9270146964068615 -4.2
    endloop
  endfacet
  facet normal 0 0 -1
    outer loop
      vertex -3.505226720175454 -1.9270146964068615 -4.2
      vertex -3.505226720175454 1.9270146964068615 -4.2
      vertex -3.23606797749979 2.3511410091698925 -4.2
    endloop
  endfacet
  facet normal 0 0 -1
    outer loop
      vertex -3.23606797749979 -2.3511410091698925 -4.2
      vertex -3.23606797749979 2.3511410091698925 -4.2
      vertex -2.9158745096856467 2.738188423714754 -4.2
    endloop
  endfacet
  facet normal 0 0 -1
    outer loop
      vertex -2.9158745096856467 -2.738188423714754 -4.2
      vertex -2.9158745096856467 2.738188423714754 -4.2
      vertex -2.75 0 -4.2
    endloop
  endfacet
  facet normal 0 0 -1
    outer loop
      vertex -2.9158745096856467 2.738188423714754 -4.2
      vertex -2.728315428614814 0.34466639230183616 -4.2
      vertex -2.75 0 -4.2
    endloop
  endfacet
  facet normal 0 0 -1
    outer loop
      vertex -2.5496959589947585 3.0820529711031575 -4.2
      vertex -2.6636036931037355 0.6838971897033508 -4.2
      vertex -2.728315428614814 0.34466639230183616 -4.2
    endloop
  endfacet
  facet normal 0 0 -1
    outer loop
      vertex -2.5496959589947585 3.0820529711031575 -4.2
      vertex -2.5568853361926913 1.0123425198828642 -4.2
      vertex -2.6636036931037355 0.6838971897033508 -4.2
    endloop
  endfacet
  facet normal 0 0 -1
    outer loop
      vertex -2.5496959589947585 3.0820529711031575 -4.2
      vertex -2.4098433701206243 1.3248226037797173 -4.2
      vertex -2.5568853361926913 1.0123425198828642 -4.2
    endloop
  endfacet
  facet normal -0.9980267284282716 0.06279051952931311 0
    outer loop
      vertex -4 0 -4.2
      vertex -3.9684588052579115 0.5013329342572163 -2.290909090909091
      vertex -3.9684588052579115 0.5013329342572163 -4.2
    endloop
  endfacet
  facet normal -0.9822872507286886 0.18738131458572493 0
    outer loop
      vertex -3.9684588052579115 0.5013329342572163 -4.2
      vertex -3.8743326445145243 0.9947595486594194 -2.290909090909091
      vertex -3.8743326445145243 0.9947595486594194 -4.2
    endloop
  endfacet
  facet normal -0.9510565162951536 0.3090169943749471 -4.341410222613669e-17
    outer loop
      vertex -3.8743326445145243 0.9947595486594194 -4.2
      vertex -3.719105943553006 1.4724982107387117 -2.2909090909090906
      vertex -3.719105943553006 1.4724982107387115 -4.2
    endloop
  endfacet
  facet normal -0.9048270524660194 0.42577929156507316 -4.341410222613653e-17
    outer loop
      vertex -3.719105943553006 1.4724982107387115 -4.2
      vertex -3.505226720175454 1.9270146964068617 -2.29090909090909
      vertex -3.505226720175454 1.9270146964068615 -4.2
    endloop
  endfacet
  facet normal 0 0 -1
    outer loop
      vertex -2.9158745096856467 2.738188423714754 -4.2
      vertex -2.5496959589947585 3.0820529711031575 -4.2
      vertex -2.728315428614814 0.34466639230183616 -4.2
    endloop
  endfacet
  facet normal 0 0 -1
    outer loop
      vertex -2.143307179915987 3.37731170200806 -4.2
      vertex -2.2247967345311057 1.616409443804301 -4.2
      vertex -2.4098433701206243 1.3248226037797173 -4.2
    endloop
  endfacet
  facet normal 0 0 -1
    outer loop
      vertex -2.143307179915987 3.37731170200806 -4.2
      vertex -2.004663725408882 1.8825045413038934 -4.2
      vertex -2.2247967345311057 1.616409443804301 -4.2
    endloop
  endfacet
  facet normal 0 0 -1
    outer loop
      vertex -2.5496959589947585 3.0820529711031575 -4.2
      vertex -2.143307179915987 3.37731170200806 -4.2
      vertex -2.4098433701206243 1.3248226037797173 -4.2
    endloop
  endfacet
  facet normal -0.8443279255020153 0.5358267949789961 0
    outer loop
      vertex -3.505226720175454 1.9270146964068615 -4.2
      vertex -3.23606797749979 2.3511410091698925 -2.290909090909091
      vertex -3.23606797749979 2.3511410091698925 -4.2
    endloop
  endfacet
  facet normal -0.7705132427757891 0.6374239897486899 0
    outer loop
      vertex -3.23606797749979 2.3511410091698925 -4.2
      vertex -2.9158745096856467 2.738188423714754 -2.290909090909091
      vertex -2.9158745096856467 2.738188423714754 -4.2
    endloop
  endfacet
  facet normal -0.6845471059286891 0.7289686274214111 1.7365640890454606e-16
    outer loop
      vertex -2.9158745096856467 2.738188423714754 -4.2
      vertex -2.549695958994758 3.0820529711031575 -2.2909090909090915
      vertex -2.5496959589947585 3.0820529711031575 -4.2
    endloop
  endfacet
  facet normal -0.5877852522924727 0.8090169943749478 0
    outer loop
      vertex -2.5496959589947585 3.0820529711031575 -4.2
      vertex -2.143307179915987 3.37731170200806 -2.2909090909090906
      vertex -2.143307179915987 3.37731170200806 -4.2
    endloop
  endfacet
  facet normal 0 0 -1
    outer loop
      vertex -1.7031171662602909 3.619308209864078 -4.2
      vertex -1.7529159718088965 2.118911417633421 -4.2
      vertex -2.004663725408882 1.8825045413038934 -4.2
    endloop
  endfacet
  facet normal 0 0 -1
    outer loop
      vertex -2.143307179915987 3.37731170200806 -4.2
      vertex -1.7031171662602909 3.619308209864078 -4.2
      vertex -2.004663725408882 1.8825045413038934 -4.2
    endloop
  endfacet
  facet normal 0 0 -1
    outer loop
      vertex -1.7031171662602909 3.619308209864078 -4.2
      vertex -1.4735236861922412 2.321901795130541 -4.2
      vertex -1.7529159718088965 2.118911417633421 -4.2
    endloop
  endfacet
  facet normal 0 0 -1
    outer loop
      vertex -1.2360679774997896 3.804226065180614 -4.2
      vertex -1.17089305180395 2.4882743942815537 -4.2
      vertex -1.4735236861922412 2.321901795130541 -4.2
    endloop
  endfacet
  facet normal 0 0 -1
    outer loop
      vertex -1.2360679774997896 3.804226065180614 -4.2
      vertex -0.8497967345311054 2.615405419811672 -4.2
      vertex -1.17089305180395 2.4882743942815537 -4.2
    endloop
  endfacet
  facet normal 0 0 -1
    outer loop
      vertex -1.7031171662602909 3.619308209864078 -4.2
      vertex -1.2360679774997896 3.804226065180614 -4.2
      vertex -1.4735236861922412 2.321901795130541 -4.2
    endloop
  endfacet
  facet normal 0 0 -1
    outer loop
      vertex -1.2360679774997896 3.804226065180614 -4.2
      vertex -0.7495252583428983 3.929149002914755 -4.2
      vertex -0.8497967345311054 2.615405419811672 -4.2
    endloop
  endfacet
  facet normal 0 0 -1
    outer loop
      vertex -0.7495252583428983 3.929149002914755 -4.2
      vertex -0.5152986151107426 2.701289939503894 -4.2
      vertex -0.8497967345311054 2.615405419811672 -4.2
    endloop
  endfacet
  facet normal 0 0 -1
    outer loop
      vertex -0.7495252583428983 3.929149002914755 -4.2
      vertex -0.2511620781172531 3.9921069137130862 -4.2
      vertex -0.5152986151107426 2.701289939503894 -4.2
    endloop
  endfacet
  facet normal 0 0 -1
    outer loop
      vertex -0.2511620781172531 3.9921069137130862 -4.2
      vertex -0.17267392870561152 2.744573503177747 -4.2
      vertex -0.5152986151107426 2.701289939503894 -4.2
    endloop
  endfacet
  facet normal 0 0 -1
    outer loop
      vertex -0.2511620781172531 3.9921069137130862 -4.2
      vertex 0.1726739287056112 2.744573503177747 -4.2
      vertex -0.17267392870561152 2.744573503177747 -4.2
    endloop
  endfacet
  facet normal -0.4817536741017153 0.8763066800438636 5.788546963484881e-17
    outer loop
      vertex -2.143307179915987 3.37731170200806 -4.2
      vertex -1.7031171662602906 3.619308209864078 -2.2909090909090915
      vertex -1.7031171662602909 3.619308209864078 -4.2
    endloop
  endfacet
  facet normal -0.36812455268467775 0.9297764858882513 0
    outer loop
      vertex -1.7031171662602909 3.619308209864078 -4.2
      vertex -1.2360679774997896 3.804226065180614 -2.2909090909090906
      vertex -1.2360679774997896 3.804226065180614 -4.2
    endloop
  endfacet
  facet normal -0.24868988716485532 0.968583161128631 0
    outer loop
      vertex -1.2360679774997896 3.804226065180614 -4.2
      vertex -0.7495252583428983 3.929149002914755 -2.29090909090909
      vertex -0.7495252583428983 3.929149002914755 -4.2
    endloop
  endfacet
  facet normal -0.12533323356430387 0.9921147013144779 0
    outer loop
      vertex -0.7495252583428983 3.929149002914755 -4.2
      vertex -0.2511620781172531 3.9921069137130862 -2.290909090909091
      vertex -0.2511620781172531 3.9921069137130862 -4.2
    endloop
  endfacet
  facet normal -0.9980267284282716 0.06279051952931311 0
    outer loop
      vertex -4 0 -4.2
      vertex -4 0 -2.290909090909091
      vertex -3.9684588052579115 0.5013329342572163 -2.290909090909091
    endloop
  endfacet
  facet normal -0.9822872507286886 0.18738131458572493 0
    outer loop
      vertex -3.9684588052579115 0.5013329342572163 -4.2
      vertex -3.9684588052579115 0.5013329342572163 -2.290909090909091
      vertex -3.8743326445145243 0.9947595486594194 -2.290909090909091
    endloop
  endfacet
  facet normal -0.9510565162951538 0.3090169943749469 0
    outer loop
      vertex -3.8743326445145243 0.9947595486594194 -4.2
      vertex -3.8743326445145243 0.9947595486594194 -2.290909090909091
      vertex -3.719105943553006 1.4724982107387117 -2.2909090909090906
    endloop
  endfacet
  facet normal -0.9048270524660192 0.42577929156507316 -4.9521997161385234e-17
    outer loop
      vertex -3.719105943553006 1.4724982107387115 -4.2
      vertex -3.719105943553006 1.4724982107387117 -2.2909090909090906
      vertex -3.505226720175454 1.9270146964068617 -2.29090909090909
    endloop
  endfacet
  facet normal -0.8443279255020152 0.5358267949789963 -6.232152090442506e-17
    outer loop
      vertex -3.505226720175454 1.9270146964068615 -4.2
      vertex -3.505226720175454 1.9270146964068617 -2.29090909090909
      vertex -3.23606797749979 2.3511410091698925 -2.290909090909091
    endloop
  endfacet
  facet normal -0.7705132427757891 0.6374239897486899 0
    outer loop
      vertex -3.23606797749979 2.3511410091698925 -4.2
      vertex -3.23606797749979 2.3511410091698925 -2.290909090909091
      vertex -2.9158745096856467 2.738188423714754 -2.290909090909091
    endloop
  endfacet
  facet normal -0.6845471059286887 0.7289686274214116 0
    outer loop
      vertex -2.9158745096856467 2.738188423714754 -4.2
      vertex -2.9158745096856467 2.738188423714754 -2.290909090909091
      vertex -2.549695958994758 3.0820529711031575 -2.2909090909090915
    endloop
  endfacet
  facet normal -0.5877852522924731 0.8090169943749473 1.3672952241775836e-16
    outer loop
      vertex -2.5496959589947585 3.0820529711031575 -4.2
      vertex -2.549695958994758 3.0820529711031575 -2.2909090909090915
      vertex -2.143307179915987 3.37731170200806 -2.2909090909090906
    endloop
  endfacet
  facet normal -0.4817536741017151 0.8763066800438637 0
    outer loop
      vertex -2.143307179915987 3.37731170200806 -4.2
      vertex -2.143307179915987 3.37731170200806 -2.2909090909090906
      vertex -1.7031171662602906 3.619308209864078 -2.2909090909090915
    endloop
  endfacet
  facet normal -0.36812455268467803 0.9297764858882513 4.2816227595466924e-17
    outer loop
      vertex -1.7031171662602909 3.619308209864078 -4.2
      vertex -1.7031171662602906 3.619308209864078 -2.2909090909090915
      vertex -1.2360679774997896 3.804226065180614 -2.2909090909090906
    endloop
  endfacet
  facet normal -0.24868988716485532 0.968583161128631 0
    outer loop
      vertex -1.2360679774997896 3.804226065180614 -4.2
      vertex -1.2360679774997896 3.804226065180614 -2.2909090909090906
      vertex -0.7495252583428983 3.929149002914755 -2.29090909090909
    endloop
  endfacet
  facet normal -0.12533323356430387 0.9921147013144779 0
    outer loop
      vertex -0.7495252583428983 3.929149002914755 -4.2
      vertex -0.7495252583428983 3.929149002914755 -2.29090909090909
      vertex -0.2511620781172531 3.9921069137130862 -2.290909090909091
    endloop
  endfacet
  facet normal 0 1 0
    outer loop
      vertex -0.2511620781172531 3.9921069137130862 -4.2
      vertex -0.2511620781172531 3.9921069137130862 -2.290909090909091
      vertex 0.2511620781172531 3.9921069137130862 -2.290909090909091
    endloop
  endfacet
  facet normal 0 0 -1
    outer loop
      vertex 0.25116207811725505 -3.9921069137130862 -4.2
      vertex -0.17267392870561285 -2.744573503177747 -4.2
      vertex 0.17267392870561285 -2.744573503177747 -4.2
    endloop
  endfacet
  facet normal 0 0 -1
    outer loop
      vertex 0.25116207811725505 -3.9921069137130862 -4.2
      vertex 0.17267392870561285 -2.744573503177747 -4.2
      vertex 0.5152986151107433 -2.701289939503894 -4.2
    endloop
  endfacet
  facet normal 0 0 -1
    outer loop
      vertex 0.25116207811725505 -3.9921069137130862 -4.2
      vertex 0.5152986151107433 -2.701289939503894 -4.2
      vertex 0.7495252583428993 -3.9291490029147544 -4.2
    endloop
  endfacet
  facet normal 0 0 -1
    outer loop
      vertex 0.7495252583428993 -3.9291490029147544 -4.2
      vertex 0.5152986151107433 -2.701289939503894 -4.2
      vertex 0.8497967345311054 -2.615405419811672 -4.2
    endloop
  endfacet
  facet normal 0 0 -1
    outer loop
      vertex 0.7495252583428993 -3.9291490029147544 -4.2
      vertex 0.8497967345311054 -2.615405419811672 -4.2
      vertex 1.2360679774997896 -3.804226065180614 -4.2
    endloop
  endfacet
  facet normal 0 0 -1
    outer loop
      vertex 1.2360679774997896 -3.804226065180614 -4.2
      vertex 1.4735236861922396 -2.3219017951305423 -4.2
      vertex 1.7031171662602897 -3.6193082098640783 -4.2
    endloop
  endfacet
  facet normal 0 0 -1
    outer loop
      vertex 1.2360679774997896 -3.804226065180614 -4.2
      vertex 0.8497967345311054 -2.615405419811672 -4.2
      vertex 1.170893051803949 -2.4882743942815537 -4.2
    endloop
  endfacet
  facet normal 0 0 -1
    outer loop
      vertex 1.2360679774997896 -3.804226065180614 -4.2
      vertex 1.170893051803949 -2.4882743942815537 -4.2
      vertex 1.4735236861922396 -2.3219017951305423 -4.2
    endloop
  endfacet
  facet normal 0 0 -1
    outer loop
      vertex 1.7031171662602897 -3.6193082098640783 -4.2
      vertex 1.4735236861922396 -2.3219017951305423 -4.2
      vertex 1.7529159718088974 -2.11891141763342 -4.2
    endloop
  endfacet
  facet normal 0 0 -1
    outer loop
      vertex 1.7031171662602897 -3.6193082098640783 -4.2
      vertex 2.004663725408882 -1.8825045413038934 -4.2
      vertex 2.143307179915985 -3.377311702008061 -4.2
    endloop
  endfacet
  facet normal 0 0 -1
    outer loop
      vertex 1.7031171662602897 -3.6193082098640783 -4.2
      vertex 1.7529159718088974 -2.11891141763342 -4.2
      vertex 2.004663725408882 -1.8825045413038934 -4.2
    endloop
  endfacet
  facet normal 0.12533323356430495 -0.9921147013144778 0
    outer loop
      vertex 0.25116207811725505 -3.9921069137130862 -4.2
      vertex 0.7495252583428993 -3.9291490029147544 -4.2
      vertex 0.25116207811725505 -3.9921069137130862 -2.290909090909091
    endloop
  endfacet
  facet normal 0.24868988716485502 -0.9685831611286312 0
    outer loop
      vertex 0.7495252583428993 -3.9291490029147544 -4.2
      vertex 1.2360679774997896 -3.804226065180614 -4.2
      vertex 0.7495252583428993 -3.9291490029147544 -2.290909090909091
    endloop
  endfacet
  facet normal 0.3681245526846778 -0.9297764858882515 0
    outer loop
      vertex 1.2360679774997896 -3.804226065180614 -4.2
      vertex 1.7031171662602897 -3.6193082098640783 -4.2
      vertex 1.2360679774997896 -3.804226065180614 -2.2909090909090906
    endloop
  endfacet
  facet normal 0.4817536741017149 -0.8763066800438638 0
    outer loop
      vertex 1.7031171662602897 -3.6193082098640783 -4.2
      vertex 2.143307179915985 -3.377311702008061 -4.2
      vertex 1.7031171662602897 -3.6193082098640783 -2.29090909090909
    endloop
  endfacet
  facet normal 0 0 -1
    outer loop
      vertex 2.143307179915985 -3.377311702008061 -4.2
      vertex 2.4098433701206243 -1.3248226037797173 -4.2
      vertex 2.54969595899476 -3.082052971103156 -4.2
    endloop
  endfacet
  facet normal 0 0 -1
    outer loop
      vertex 2.143307179915985 -3.377311702008061 -4.2
      vertex 2.004663725408882 -1.8825045413038934 -4.2
      vertex 2.2247967345311057 -1.616409443804301 -4.2
    endloop
  endfacet
  facet normal 0 0 -1
    outer loop
      vertex 2.143307179915985 -3.377311702008061 -4.2
      vertex 2.2247967345311057 -1.616409443804301 -4.2
      vertex 2.4098433701206243 -1.3248226037797173 -4.2
    endloop
  endfacet
  facet normal 0 0 -1
    outer loop
      vertex 2.54969595899476 -3.082052971103156 -4.2
      vertex 2.728315428614814 -0.34466639230183616 -4.2
      vertex 2.9158745096856467 -2.738188423714754 -4.2
    endloop
  endfacet
  facet normal 0.5877852522924728 -0.8090169943749477 0
    outer loop
      vertex 2.143307179915985 -3.377311702008061 -4.2
      vertex 2.54969595899476 -3.082052971103156 -4.2
      vertex 2.143307179915985 -3.377311702008061 -2.290909090909091
    endloop
  endfacet
  facet normal 0.684547105928689 -0.7289686274214112 1.592380865308193e-16
    outer loop
      vertex 2.54969595899476 -3.082052971103156 -4.2
      vertex 2.9158745096856467 -2.738188423714754 -4.2
      vertex 2.5496959589947594 -3.082052971103156 -2.2909090909090915
    endloop
  endfacet
  facet normal 0.7705132427757891 -0.6374239897486899 0
    outer loop
      vertex 2.9158745096856467 -2.738188423714754 -4.2
      vertex 3.23606797749979 -2.3511410091698925 -4.2
      vertex 2.9158745096856467 -2.738188423714754 -2.290909090909091
    endloop
  endfacet
  facet normal 0.8443279255020153 -0.5358267949789961 0
    outer loop
      vertex 3.23606797749979 -2.3511410091698925 -4.2
      vertex 3.505226720175454 -1.9270146964068615 -4.2
      vertex 3.23606797749979 -2.3511410091698925 -2.290909090909091
    endloop
  endfacet
  facet normal 0 0 -1
    outer loop
      vertex 2.54969595899476 -3.082052971103156 -4.2
      vertex 2.4098433701206243 -1.3248226037797173 -4.2
      vertex 2.556885336192691 -1.0123425198828655 -4.2
    endloop
  endfacet
  facet normal 0 0 -1
    outer loop
      vertex 2.54969595899476 -3.082052971103156 -4.2
      vertex 2.556885336192691 -1.0123425198828655 -4.2
      vertex 2.663603693103736 -0.6838971897033497 -4.2
    endloop
  endfacet
  facet normal 0 0 -1
    outer loop
      vertex 2.54969595899476 -3.082052971103156 -4.2
      vertex 2.663603693103736 -0.6838971897033497 -4.2
      vertex 2.728315428614814 -0.34466639230183616 -4.2
    endloop
  endfacet
  facet normal 0 0 -1
    outer loop
      vertex 2.9158745096856467 -2.738188423714754 -4.2
      vertex 2.728315428614814 -0.34466639230183616 -4.2
      vertex 2.75 0 -4.2
    endloop
  endfacet
  facet normal 0 0 -1
    outer loop
      vertex 2.9158745096856467 -2.738188423714754 -4.2
      vertex 3.23606797749979 2.3511410091698925 -4.2
      vertex 3.23606797749979 -2.3511410091698925 -4.2
    endloop
  endfacet
  facet normal 0 0 -1
    outer loop
      vertex 3.23606797749979 -2.3511410091698925 -4.2
      vertex 3.5052267201754543 1.9270146964068613 -4.2
      vertex 3.505226720175454 -1.9270146964068615 -4.2
    endloop
  endfacet
  facet normal 0 0 -1
    outer loop
      vertex 3.505226720175454 -1.9270146964068615 -4.2
      vertex 3.7191059435530054 1.472498210738712 -4.2
      vertex 3.719105943553005 -1.4724982107387135 -4.2
    endloop
  endfacet
  facet normal 0 0 -1
    outer loop
      vertex 3.719105943553005 -1.4724982107387135 -4.2
      vertex 3.8743326445145243 0.9947595486594192 -4.2
      vertex 3.8743326445145247 -0.9947595486594177 -4.2
    endloop
  endfacet
  facet normal 0 0 -1
    outer loop
      vertex 3.8743326445145247 -0.9947595486594177 -4.2
      vertex 3.9684588052579115 0.501332934257217 -4.2
      vertex 3.9684588052579115 -0.5013329342572163 -4.2
    endloop
  endfacet
  facet normal 0.9048270524660194 -0.42577929156507327 -4.952199716138524e-17
    outer loop
      vertex 3.505226720175454 -1.9270146964068615 -4.2
      vertex 3.719105943553005 -1.4724982107387135 -4.2
      vertex 3.505226720175454 -1.9270146964068617 -2.29090909090909
    endloop
  endfacet
  facet normal 0.9510565162951536 -0.30901699437494734 0
    outer loop
      vertex 3.719105943553005 -1.4724982107387135 -4.2
      vertex 3.8743326445145247 -0.9947595486594177 -4.2
      vertex 3.719105943553005 -1.4724982107387135 -2.290909090909091
    endloop
  endfacet
  facet normal 0.9822872507286886 -0.1873813145857247 0
    outer loop
      vertex 3.8743326445145247 -0.9947595486594177 -4.2
      vertex 3.9684588052579115 -0.5013329342572163 -4.2
      vertex 3.8743326445145247 -0.9947595486594177 -2.290909090909091
    endloop
  endfacet
  facet normal 0.9980267284282716 -0.06279051952931311 0
    outer loop
      vertex 3.9684588052579115 -0.5013329342572163 -4.2
      vertex 4 0 -4.2
      vertex 3.9684588052579115 -0.5013329342572163 -2.290909090909091
    endloop
  endfacet
  facet normal 0 -1 0
    outer loop
      vertex 0.25116207811725505 -3.9921069137130862 -4.2
      vertex 0.25116207811725505 -3.9921069137130862 -2.290909090909091
      vertex -0.25116207811725516 -3.9921069137130862 -2.290909090909091
    endloop
  endfacet
  facet normal 0.12533323356430495 -0.9921147013144778 0
    outer loop
      vertex 0.7495252583428993 -3.9291490029147544 -4.2
      vertex 0.7495252583428993 -3.9291490029147544 -2.290909090909091
      vertex 0.25116207811725505 -3.9921069137130862 -2.290909090909091
    endloop
  endfacet
  facet normal 0.248689887164855 -0.9685831611286311 0
    outer loop
      vertex 1.2360679774997896 -3.804226065180614 -4.2
      vertex 1.2360679774997896 -3.804226065180614 -2.2909090909090906
      vertex 0.7495252583428993 -3.9291490029147544 -2.290909090909091
    endloop
  endfacet
  facet normal 0.3681245526846778 -0.9297764858882515 0
    outer loop
      vertex 1.7031171662602897 -3.6193082098640783 -4.2
      vertex 1.7031171662602897 -3.6193082098640783 -2.29090909090909
      vertex 1.2360679774997896 -3.804226065180614 -2.2909090909090906
    endloop
  endfacet
  facet normal 0.4817536741017149 -0.8763066800438638 0
    outer loop
      vertex 2.143307179915985 -3.377311702008061 -4.2
      vertex 2.143307179915985 -3.377311702008061 -2.290909090909091
      vertex 1.7031171662602897 -3.6193082098640783 -2.29090909090909
    endloop
  endfacet
  facet normal 0.5877852522924731 -0.8090169943749472 1.3672952241775836e-16
    outer loop
      vertex 2.54969595899476 -3.082052971103156 -4.2
      vertex 2.5496959589947594 -3.082052971103156 -2.2909090909090915
      vertex 2.143307179915985 -3.377311702008061 -2.290909090909091
    endloop
  endfacet
  facet normal 0.6845471059286886 -0.7289686274214116 0
    outer loop
      vertex 2.9158745096856467 -2.738188423714754 -4.2
      vertex 2.9158745096856467 -2.738188423714754 -2.290909090909091
      vertex 2.5496959589947594 -3.082052971103156 -2.2909090909090915
    endloop
  endfacet
  facet normal 0.7705132427757891 -0.6374239897486899 0
    outer loop
      vertex 3.23606797749979 -2.3511410091698925 -4.2
      vertex 3.23606797749979 -2.3511410091698925 -2.290909090909091
      vertex 2.9158745096856467 -2.738188423714754 -2.290909090909091
    endloop
  endfacet
  facet normal 0.8443279255020152 -0.5358267949789963 -6.232152090442506e-17
    outer loop
      vertex 3.505226720175454 -1.9270146964068615 -4.2
      vertex 3.505226720175454 -1.9270146964068617 -2.29090909090909
      vertex 3.23606797749979 -2.3511410091698925 -2.290909090909091
    endloop
  endfacet
  facet normal 0.9048270524660194 -0.425779291565073 0
    outer loop
      vertex 3.719105943553005 -1.4724982107387135 -4.2
      vertex 3.719105943553005 -1.4724982107387135 -2.290909090909091
      vertex 3.505226720175454 -1.9270146964068617 -2.29090909090909
    endloop
  endfacet
  facet normal 0.9510565162951536 -0.30901699437494734 0
    outer loop
      vertex 3.8743326445145247 -0.9947595486594177 -4.2
      vertex 3.8743326445145247 -0.9947595486594177 -2.290909090909091
      vertex 3.719105943553005 -1.4724982107387135 -2.290909090909091
    endloop
  endfacet
  facet normal 0.9822872507286886 -0.1873813145857247 0
    outer loop
      vertex 3.9684588052579115 -0.5013329342572163 -4.2
      vertex 3.9684588052579115 -0.5013329342572163 -2.290909090909091
      vertex 3.8743326445145247 -0.9947595486594177 -2.290909090909091
    endloop
  endfacet
  facet normal 0.9980267284282716 -0.06279051952931311 0
    outer loop
      vertex 4 0 -4.2
      vertex 4 0 -2.290909090909091
      vertex 3.9684588052579115 -0.5013329342572163 -2.290909090909091
    endloop
  endfacet
  facet normal 0 0 -1
    outer loop
      vertex 0.7495252583428983 3.929149002914755 -4.2
      vertex 0.5152986151107426 2.701289939503894 -4.2
      vertex 0.1726739287056112 2.744573503177747 -4.2
    endloop
  endfacet
  facet normal 0 0 -1
    outer loop
      vertex -0.2511620781172531 3.9921069137130862 -4.2
      vertex 0.2511620781172531 3.9921069137130862 -4.2
      vertex 0.1726739287056112 2.744573503177747 -4.2
    endloop
  endfacet
  facet normal 0 0 -1
    outer loop
      vertex 0.2511620781172531 3.9921069137130862 -4.2
      vertex 0.7495252583428983 3.929149002914755 -4.2
      vertex 0.1726739287056112 2.744573503177747 -4.2
    endloop
  endfacet
  facet normal 0 0 -1
    outer loop
      vertex 1.2360679774997896 3.804226065180614 -4.2
      vertex 0.8497967345311054 2.615405419811672 -4.2
      vertex 0.5152986151107426 2.701289939503894 -4.2
    endloop
  endfacet
  facet normal 0 0 -1
    outer loop
      vertex 0.7495252583428983 3.929149002914755 -4.2
      vertex 1.2360679774997896 3.804226065180614 -4.2
      vertex 0.5152986151107426 2.701289939503894 -4.2
    endloop
  endfacet
  facet normal 0 0 -1
    outer loop
      vertex 1.2360679774997896 3.804226065180614 -4.2
      vertex 1.17089305180395 2.4882743942815537 -4.2
      vertex 0.8497967345311054 2.615405419811672 -4.2
    endloop
  endfacet
  facet normal 0 0 -1
    outer loop
      vertex 1.7031171662602909 3.619308209864078 -4.2
      vertex 1.4735236861922407 2.3219017951305414 -4.2
      vertex 1.17089305180395 2.4882743942815537 -4.2
    endloop
  endfacet
  facet normal 0 0 -1
    outer loop
      vertex 2.1433071799159866 3.3773117020080603 -4.2
      vertex 2.0046637254088817 1.882504541303894 -4.2
      vertex 1.7529159718088967 2.11891141763342 -4.2
    endloop
  endfacet
  facet normal 0 0 -1
    outer loop
      vertex 2.1433071799159866 3.3773117020080603 -4.2
      vertex 1.7529159718088967 2.11891141763342 -4.2
      vertex 1.4735236861922407 2.3219017951305414 -4.2
    endloop
  endfacet
  facet normal 0 0 -1
    outer loop
      vertex 1.2360679774997896 3.804226065180614 -4.2
      vertex 1.7031171662602909 3.619308209864078 -4.2
      vertex 1.17089305180395 2.4882743942815537 -4.2
    endloop
  endfacet
  facet normal 0 0 -1
    outer loop
      vertex 1.7031171662602909 3.619308209864078 -4.2
      vertex 2.1433071799159866 3.3773117020080603 -4.2
      vertex 1.4735236861922407 2.3219017951305414 -4.2
    endloop
  endfacet
  facet normal 0 1 0
    outer loop
      vertex -0.2511620781172531 3.9921069137130862 -4.2
      vertex 0.2511620781172531 3.9921069137130862 -2.290909090909091
      vertex 0.2511620781172531 3.9921069137130862 -4.2
    endloop
  endfacet
  facet normal 0.12533323356430387 0.9921147013144779 -7.235683704356102e-18
    outer loop
      vertex 0.2511620781172531 3.9921069137130862 -4.2
      vertex 0.7495252583428984 3.929149002914755 -2.2909090909090906
      vertex 0.7495252583428983 3.929149002914755 -4.2
    endloop
  endfacet
  facet normal 0.24868988716485532 0.968583161128631 -2.89427348174244e-17
    outer loop
      vertex 0.7495252583428983 3.929149002914755 -4.2
      vertex 1.2360679774997898 3.804226065180614 -2.2909090909090906
      vertex 1.2360679774997896 3.804226065180614 -4.2
    endloop
  endfacet
  facet normal 0.481753674101715 0.8763066800438637 0
    outer loop
      vertex 1.7031171662602909 3.619308209864078 -4.2
      vertex 2.1433071799159866 3.3773117020080603 -2.2909090909090906
      vertex 2.1433071799159866 3.3773117020080603 -4.2
    endloop
  endfacet
  facet normal 0.36812455268467786 0.9297764858882515 0
    outer loop
      vertex 1.2360679774997896 3.804226065180614 -4.2
      vertex 1.7031171662602909 3.619308209864078 -2.2909090909090915
      vertex 1.7031171662602909 3.619308209864078 -4.2
    endloop
  endfacet
  facet normal 0 0 -1
    outer loop
      vertex 2.9158745096856467 -2.738188423714754 -4.2
      vertex 2.75 0 -4.2
      vertex 2.915874509685646 2.738188423714755 -4.2
    endloop
  endfacet
  facet normal 0 0 -1
    outer loop
      vertex 2.915874509685646 2.738188423714755 -4.2
      vertex 2.6636036931037355 0.6838971897033507 -4.2
      vertex 2.5568853361926913 1.0123425198828644 -4.2
    endloop
  endfacet
  facet normal 0 0 -1
    outer loop
      vertex 2.915874509685646 2.738188423714755 -4.2
      vertex 2.75 0 -4.2
      vertex 2.728315428614814 0.3446663923018367 -4.2
    endloop
  endfacet
  facet normal 0 0 -1
    outer loop
      vertex 2.915874509685646 2.738188423714755 -4.2
      vertex 2.728315428614814 0.3446663923018367 -4.2
      vertex 2.6636036931037355 0.6838971897033507 -4.2
    endloop
  endfacet
  facet normal 0 0 -1
    outer loop
      vertex 2.915874509685646 2.738188423714755 -4.2
      vertex 2.5568853361926913 1.0123425198828644 -4.2
      vertex 2.4098433701206248 1.324822603779717 -4.2
    endloop
  endfacet
  facet normal 0 0 -1
    outer loop
      vertex 2.9158745096856467 -2.738188423714754 -4.2
      vertex 2.915874509685646 2.738188423714755 -4.2
      vertex 3.23606797749979 2.3511410091698925 -4.2
    endloop
  endfacet
  facet normal 0 0 -1
    outer loop
      vertex 3.23606797749979 -2.3511410091698925 -4.2
      vertex 3.23606797749979 2.3511410091698925 -4.2
      vertex 3.5052267201754543 1.9270146964068613 -4.2
    endloop
  endfacet
  facet normal 0 0 -1
    outer loop
      vertex 3.505226720175454 -1.9270146964068615 -4.2
      vertex 3.5052267201754543 1.9270146964068613 -4.2
      vertex 3.7191059435530054 1.472498210738712 -4.2
    endloop
  endfacet
  facet normal 0 0 -1
    outer loop
      vertex 3.9684588052579115 -0.5013329342572163 -4.2
      vertex 3.9684588052579115 0.501332934257217 -4.2
      vertex 4 0 -4.2
    endloop
  endfacet
  facet normal 0 0 -1
    outer loop
      vertex 3.8743326445145247 -0.9947595486594177 -4.2
      vertex 3.8743326445145243 0.9947595486594192 -4.2
      vertex 3.9684588052579115 0.501332934257217 -4.2
    endloop
  endfacet
  facet normal 0 0 -1
    outer loop
      vertex 3.719105943553005 -1.4724982107387135 -4.2
      vertex 3.7191059435530054 1.472498210738712 -4.2
      vertex 3.8743326445145243 0.9947595486594192 -4.2
    endloop
  endfacet
  facet normal 0.9980267284282716 0.06279051952931301 0
    outer loop
      vertex 4 0 -4.2
      vertex 3.9684588052579115 0.501332934257217 -4.2
      vertex 4 0 -2.290909090909091
    endloop
  endfacet
  facet normal 0.9822872507286885 0.18738131458572532 0
    outer loop
      vertex 3.9684588052579115 0.501332934257217 -4.2
      vertex 3.8743326445145243 0.9947595486594192 -4.2
      vertex 3.9684588052579115 0.501332934257217 -2.290909090909091
    endloop
  endfacet
  facet normal 0.9510565162951535 0.3090169943749475 0
    outer loop
      vertex 3.8743326445145243 0.9947595486594192 -4.2
      vertex 3.7191059435530054 1.472498210738712 -4.2
      vertex 3.8743326445145243 0.9947595486594192 -2.290909090909091
    endloop
  endfacet
  facet normal 0.9048270524660198 0.42577929156507216 4.9521997161385135e-17
    outer loop
      vertex 3.7191059435530054 1.472498210738712 -4.2
      vertex 3.5052267201754543 1.9270146964068613 -4.2
      vertex 3.7191059435530054 1.4724982107387117 -2.290909090909091
    endloop
  endfacet
  facet normal 0 0 -1
    outer loop
      vertex 2.549695958994759 3.0820529711031566 -4.2
      vertex 2.2247967345311057 1.616409443804301 -4.2
      vertex 2.0046637254088817 1.882504541303894 -4.2
    endloop
  endfacet
  facet normal 0 0 -1
    outer loop
      vertex 2.549695958994759 3.0820529711031566 -4.2
      vertex 2.4098433701206248 1.324822603779717 -4.2
      vertex 2.2247967345311057 1.616409443804301 -4.2
    endloop
  endfacet
  facet normal 0 0 -1
    outer loop
      vertex 2.1433071799159866 3.3773117020080603 -4.2
      vertex 2.549695958994759 3.0820529711031566 -4.2
      vertex 2.0046637254088817 1.882504541303894 -4.2
    endloop
  endfacet
  facet normal 0 0 -1
    outer loop
      vertex 2.915874509685646 2.738188423714755 -4.2
      vertex 2.4098433701206248 1.324822603779717 -4.2
      vertex 2.549695958994759 3.0820529711031566 -4.2
    endloop
  endfacet
  facet normal 0.6845471059286882 0.7289686274214121 0
    outer loop
      vertex 2.915874509685646 2.738188423714755 -4.2
      vertex 2.549695958994759 3.0820529711031566 -4.2
      vertex 2.915874509685646 2.738188423714755 -2.290909090909091
    endloop
  endfacet
  facet normal 0.5877852522924736 0.8090169943749471 0
    outer loop
      vertex 2.1433071799159866 3.3773117020080603 -4.2
      vertex 2.549695958994759 3.0820529711031566 -2.2909090909090906
      vertex 2.549695958994759 3.0820529711031566 -4.2
    endloop
  endfacet
  facet normal 0.7705132427757894 0.6374239897486895 1.5918504149583426e-16
    outer loop
      vertex 2.915874509685646 2.738188423714755 -4.2
      vertex 3.23606797749979 2.351141009169892 -2.290909090909091
      vertex 3.23606797749979 2.3511410091698925 -4.2
    endloop
  endfacet
  facet normal 0.844327925502015 0.5358267949789965 0
    outer loop
      vertex 3.5052267201754543 1.9270146964068613 -4.2
      vertex 3.23606797749979 2.3511410091698925 -4.2
      vertex 3.5052267201754543 1.9270146964068613 -2.290909090909091
    endloop
  endfacet
  facet normal 0.12533323356430384 0.9921147013144779 0
    outer loop
      vertex 0.2511620781172531 3.9921069137130862 -4.2
      vertex 0.2511620781172531 3.9921069137130862 -2.290909090909091
      vertex 0.7495252583428984 3.929149002914755 -2.2909090909090906
    endloop
  endfacet
  facet normal 0.2486898871648553 0.968583161128631 -1.4462445837811424e-17
    outer loop
      vertex 0.7495252583428983 3.929149002914755 -4.2
      vertex 0.7495252583428984 3.929149002914755 -2.2909090909090906
      vertex 1.2360679774997898 3.804226065180614 -2.2909090909090906
    endloop
  endfacet
  facet normal 0.368124552684678 0.9297764858882515 -4.2816227595466905e-17
    outer loop
      vertex 1.2360679774997896 3.804226065180614 -4.2
      vertex 1.2360679774997898 3.804226065180614 -2.2909090909090906
      vertex 1.7031171662602909 3.619308209864078 -2.2909090909090915
    endloop
  endfacet
  facet normal 0.48175367410171505 0.8763066800438638 0
    outer loop
      vertex 1.7031171662602909 3.619308209864078 -4.2
      vertex 1.7031171662602909 3.619308209864078 -2.2909090909090915
      vertex 2.1433071799159866 3.3773117020080603 -2.2909090909090906
    endloop
  endfacet
  facet normal 0.9980267284282716 0.06279051952931301 0
    outer loop
      vertex 3.9684588052579115 0.501332934257217 -4.2
      vertex 3.9684588052579115 0.501332934257217 -2.290909090909091
      vertex 4 0 -2.290909090909091
    endloop
  endfacet
  facet normal 0.9822872507286885 0.18738131458572532 0
    outer loop
      vertex 3.8743326445145243 0.9947595486594192 -4.2
      vertex 3.8743326445145243 0.9947595486594192 -2.290909090909091
      vertex 3.9684588052579115 0.501332934257217 -2.290909090909091
    endloop
  endfacet
  facet normal 0.9510565162951535 0.3090169943749477 3.594148194010307e-17
    outer loop
      vertex 3.7191059435530054 1.472498210738712 -4.2
      vertex 3.7191059435530054 1.4724982107387117 -2.290909090909091
      vertex 3.8743326445145243 0.9947595486594192 -2.290909090909091
    endloop
  endfacet
  facet normal 0.9048270524660198 0.425779291565072 0
    outer loop
      vertex 3.5052267201754543 1.9270146964068613 -4.2
      vertex 3.5052267201754543 1.9270146964068613 -2.290909090909091
      vertex 3.7191059435530054 1.4724982107387117 -2.290909090909091
    endloop
  endfacet
  facet normal 0.6845471059286882 0.7289686274214121 0
    outer loop
      vertex 2.549695958994759 3.0820529711031566 -4.2
      vertex 2.549695958994759 3.0820529711031566 -2.2909090909090906
      vertex 2.915874509685646 2.738188423714755 -2.290909090909091
    endloop
  endfacet
  facet normal 0.5877852522924736 0.8090169943749471 0
    outer loop
      vertex 2.1433071799159866 3.3773117020080603 -4.2
      vertex 2.1433071799159866 3.3773117020080603 -2.2909090909090906
      vertex 2.549695958994759 3.0820529711031566 -2.2909090909090906
    endloop
  endfacet
  facet normal 0.8443279255020149 0.5358267949789971 1.2464304180885032e-16
    outer loop
      vertex 3.23606797749979 2.3511410091698925 -4.2
      vertex 3.23606797749979 2.351141009169892 -2.290909090909091
      vertex 3.5052267201754543 1.9270146964068613 -2.290909090909091
    endloop
  endfacet
  facet normal 0.7705132427757897 0.6374239897486891 0
    outer loop
      vertex 2.915874509685646 2.738188423714755 -4.2
      vertex 2.915874509685646 2.738188423714755 -2.290909090909091
      vertex 3.23606797749979 2.351141009169892 -2.290909090909091
    endloop
  endfacet
endsolid OpenSCAD_Model
