solid OpenSCAD_Model
  facet normal 0.8660254038093487 0.49999999995685457 0
    outer loop
      vertex -2.957125000655651 -5.1218907460570335 -4.5
      vertex -5.914250001311302 0 -4.5
      vertex -5.914250001311302 0 0
    endloop
  endfacet
  facet normal 0 1 0
    outer loop
      vertex 2.957125000655651 -5.1218907460570335 -4.5
      vertex -2.957125000655651 -5.1218907460570335 -4.5
      vertex -2.957125000655651 -5.1218907460570335 0
    endloop
  endfacet
  facet normal 0.8660254038093487 0.49999999995685457 0
    outer loop
      vertex -5.914250001311302 0 0
      vertex -2.957125000655651 -5.1218907460570335 0
      vertex -2.957125000655651 -5.1218907460570335 -4.5
    endloop
  endfacet
  facet normal 0.8660254038093487 -0.49999999995685457 0
    outer loop
      vertex -5.914250001311302 0 -4.5
      vertex -2.957125000655651 5.1218907460570335 -4.5
      vertex -2.957125000655651 5.1218907460570335 0
    endloop
  endfacet
  facet normal 0.8660254038093487 -0.49999999995685457 0
    outer loop
      vertex -2.957125000655651 5.1218907460570335 0
      vertex -5.914250001311302 0 0
      vertex -5.914250001311302 0 -4.5
    endloop
  endfacet
  facet normal 0 -1 0
    outer loop
      vertex 2.957125000655651 5.1218907460570335 0
      vertex -2.957125000655651 5.1218907460570335 0
      vertex -2.957125000655651 5.1218907460570335 -4.5
    endloop
  endfacet
  facet normal -0.8660254038093487 0.49999999995685457 0
    outer loop
      vertex 5.914250001311302 0 -4.5
      vertex 2.957125000655651 -5.1218907460570335 -4.5
      vertex 2.957125000655651 -5.1218907460570335 0
    endloop
  endfacet
  facet normal 0 1 0
    outer loop
      vertex -2.957125000655651 -5.1218907460570335 0
      vertex 2.957125000655651 -5.1218907460570335 0
      vertex 2.957125000655651 -5.1218907460570335 -4.5
    endloop
  endfacet
  facet normal -0.8660254038093487 0.49999999995685457 0
    outer loop
      vertex 2.957125000655651 -5.1218907460570335 0
      vertex 5.914250001311302 0 0
      vertex 5.914250001311302 0 -4.5
    endloop
  endfacet
  facet normal 0 -1 0
    outer loop
      vertex -2.957125000655651 5.1218907460570335 -4.5
      vertex 2.957125000655651 5.1218907460570335 -4.5
      vertex 2.957125000655651 5.1218907460570335 0
    endloop
  endfacet
  facet normal -0.8660254038093487 -0.49999999995685457 0
    outer loop
      vertex 2.957125000655651 5.1218907460570335 -4.5
      vertex 5.914250001311302 0 -4.5
      vertex 5.914250001311302 0 0
    endloop
  endfacet
  facet normal -0.8660254038093487 -0.49999999995685457 0
    outer loop
      vertex 5.914250001311302 0 0
      vertex 2.957125000655651 5.1218907460570335 0
      vertex 2.957125000655651 5.1218907460570335 -4.5
    endloop
  endfacet
  facet normal 0 0 -1
    outer loop
      vertex -4.461967928240828 -5.393592699430526 -4.5
      vertex -2.957125000655651 -5.1218907460570335 -4.5
      vertex -3.7507875648529776 -5.910295478514104 -4.5
    endloop
  endfacet
  facet normal 0 0 -1
    outer loop
      vertex -5.663118960624632 -4.114496766047312 -4.5
      vertex -2.957125000655651 -5.1218907460570335 -4.5
      vertex -5.1027803919498815 -4.79182974150082 -4.5
    endloop
  endfacet
  facet normal 0 0 -1
    outer loop
      vertex -5.663118960624632 -4.114496766047312 -4.5
      vertex -6.134146760307044 -3.372275718712008 -4.5
      vertex -2.957125000655651 -5.1218907460570335 -4.5
    endloop
  endfacet
  facet normal 0 0 -1
    outer loop
      vertex -4.461967928240828 -5.393592699430526 -4.5
      vertex -5.1027803919498815 -4.79182974150082 -4.5
      vertex -2.957125000655651 -5.1218907460570335 -4.5
    endloop
  endfacet
  facet normal -0.8443279255020153 -0.5358267949789963 0
    outer loop
      vertex -5.663118960624632 -4.114496766047312 -4.5
      vertex -6.134146760307044 -3.372275718712008 0
      vertex -6.134146760307044 -3.372275718712008 -4.5
    endloop
  endfacet
  facet normal -0.7705132427757893 -0.6374239897486896 0
    outer loop
      vertex -5.663118960624632 -4.114496766047312 -4.5
      vertex -5.1027803919498815 -4.79182974150082 -4.5
      vertex -5.663118960624632 -4.114496766047312 0
    endloop
  endfacet
  facet normal -0.5877852522924721 -0.8090169943749481 0
    outer loop
      vertex -4.461967928240828 -5.393592699430526 -4.5
      vertex -3.7507875648529776 -5.910295478514104 -4.5
      vertex -3.7507875648529776 -5.910295478514104 0
    endloop
  endfacet
  facet normal -0.6845471059286894 -0.7289686274214108 0
    outer loop
      vertex -4.461967928240828 -5.393592699430526 -4.5
      vertex -4.461967928240828 -5.393592699430526 0
      vertex -5.1027803919498815 -4.79182974150082 -4.5
    endloop
  endfacet
  facet normal 0 0 -1
    outer loop
      vertex -6.50843540121776 -2.576871868792745 -4.5
      vertex -6.7800821279004175 -1.740829210153984 -4.5
      vertex -6.50843540121776 2.576871868792745 -4.5
    endloop
  endfacet
  facet normal 0 0 -1
    outer loop
      vertex -6.7800821279004175 -1.740829210153984 -4.5
      vertex -6.9448029092013455 -0.8773326349501285 -4.5
      vertex -6.7800821279004175 1.740829210153984 -4.5
    endloop
  endfacet
  facet normal 0 0 -1
    outer loop
      vertex -6.134146760307044 -3.372275718712008 -4.5
      vertex -6.50843540121776 -2.576871868792745 -4.5
      vertex -6.134146760307044 3.372275718712008 -4.5
    endloop
  endfacet
  facet normal 0 0 -1
    outer loop
      vertex -6.134146760307044 -3.372275718712008 -4.5
      vertex -5.914250001311302 0 -4.5
      vertex -2.957125000655651 -5.1218907460570335 -4.5
    endloop
  endfacet
  facet normal -0.9048270524660195 -0.4257792915650727 0
    outer loop
      vertex -6.134146760307044 -3.372275718712008 -4.5
      vertex -6.50843540121776 -2.576871868792745 0
      vertex -6.50843540121776 -2.576871868792745 -4.5
    endloop
  endfacet
  facet normal -0.9510565162951536 -0.30901699437494745 0
    outer loop
      vertex -6.50843540121776 -2.576871868792745 -4.5
      vertex -6.7800821279004175 -1.740829210153984 0
      vertex -6.7800821279004175 -1.740829210153984 -4.5
    endloop
  endfacet
  facet normal -0.9822872507286886 -0.18738131458572532 0
    outer loop
      vertex -6.7800821279004175 -1.740829210153984 -4.5
      vertex -6.9448029092013455 -0.8773326349501285 0
      vertex -6.9448029092013455 -0.8773326349501285 -4.5
    endloop
  endfacet
  facet normal -0.9980267284282716 -0.06279051952931272 0
    outer loop
      vertex -6.9448029092013455 -0.8773326349501285 -4.5
      vertex -7 0 0
      vertex -7 0 -4.5
    endloop
  endfacet
  facet normal 0 0 -1
    outer loop
      vertex -3.7507875648529776 -5.910295478514104 -4.5
      vertex -2.957125000655651 -5.1218907460570335 -4.5
      vertex -2.980455040955507 -6.333789367262137 -4.5
    endloop
  endfacet
  facet normal 0 0 -1
    outer loop
      vertex -2.980455040955507 -6.333789367262137 -4.5
      vertex -2.957125000655651 -5.1218907460570335 -4.5
      vertex 2.957125000655651 -5.1218907460570335 -4.5
    endloop
  endfacet
  facet normal 0 0 -1
    outer loop
      vertex -2.1631189606246317 -6.657395614066075 -4.5
      vertex 2.957125000655651 -5.1218907460570335 -4.5
      vertex -1.3116692021000738 -6.87601075510082 -4.5
    endloop
  endfacet
  facet normal 0 0 -1
    outer loop
      vertex -2.980455040955507 -6.333789367262137 -4.5
      vertex 2.957125000655651 -5.1218907460570335 -4.5
      vertex -2.1631189606246317 -6.657395614066075 -4.5
    endloop
  endfacet
  facet normal -0.4817536741017148 -0.8763066800438638 0
    outer loop
      vertex -3.7507875648529776 -5.910295478514104 -4.5
      vertex -2.980455040955507 -6.333789367262137 -4.5
      vertex -2.980455040955507 -6.333789367262137 0
    endloop
  endfacet
  facet normal -0.36812455268467814 -0.9297764858882513 0
    outer loop
      vertex -2.980455040955507 -6.333789367262137 -4.5
      vertex -2.1631189606246317 -6.657395614066075 -4.5
      vertex -2.1631189606246317 -6.657395614066075 0
    endloop
  endfacet
  facet normal -0.2486898871648549 -0.9685831611286312 0
    outer loop
      vertex -2.1631189606246317 -6.657395614066075 -4.5
      vertex -1.3116692021000738 -6.87601075510082 -4.5
      vertex -1.3116692021000738 -6.87601075510082 0
    endloop
  endfacet
  facet normal -0.12533323356430495 -0.9921147013144778 0
    outer loop
      vertex -1.3116692021000738 -6.87601075510082 -4.5
      vertex -0.43953363670519635 -6.986187098997901 -4.5
      vertex -0.43953363670519635 -6.986187098997901 0
    endloop
  endfacet
  facet normal -0.7705132427757893 -0.6374239897486896 0
    outer loop
      vertex -5.1027803919498815 -4.79182974150082 -4.5
      vertex -5.1027803919498815 -4.79182974150082 0
      vertex -5.663118960624632 -4.114496766047312 0
    endloop
  endfacet
  facet normal -0.8443279255020153 -0.5358267949789963 0
    outer loop
      vertex -5.663118960624632 -4.114496766047312 -4.5
      vertex -5.663118960624632 -4.114496766047312 0
      vertex -6.134146760307044 -3.372275718712008 0
    endloop
  endfacet
  facet normal -0.5877852522924721 -0.8090169943749481 0
    outer loop
      vertex -4.461967928240828 -5.393592699430526 -4.5
      vertex -3.7507875648529776 -5.910295478514104 0
      vertex -4.461967928240828 -5.393592699430526 0
    endloop
  endfacet
  facet normal -0.6845471059286894 -0.7289686274214108 0
    outer loop
      vertex -5.1027803919498815 -4.79182974150082 -4.5
      vertex -4.461967928240828 -5.393592699430526 0
      vertex -5.1027803919498815 -4.79182974150082 0
    endloop
  endfacet
  facet normal 0 0 1
    outer loop
      vertex -4.461967928240828 -5.393592699430526 0
      vertex -3.7507875648529776 -5.910295478514104 0
      vertex -5.914250001311302 0 0
    endloop
  endfacet
  facet normal 0 0 1
    outer loop
      vertex -3.7507875648529776 -5.910295478514104 0
      vertex -2.980455040955507 -6.333789367262137 0
      vertex -5.914250001311302 0 0
    endloop
  endfacet
  facet normal 0 0 1
    outer loop
      vertex -2.980455040955507 -6.333789367262137 0
      vertex -2.957125000655651 -5.1218907460570335 0
      vertex -5.914250001311302 0 0
    endloop
  endfacet
  facet normal -0.9048270524660195 -0.4257792915650727 0
    outer loop
      vertex -6.134146760307044 -3.372275718712008 -4.5
      vertex -6.134146760307044 -3.372275718712008 0
      vertex -6.50843540121776 -2.576871868792745 0
    endloop
  endfacet
  facet normal -0.9510565162951536 -0.30901699437494745 0
    outer loop
      vertex -6.50843540121776 -2.576871868792745 -4.5
      vertex -6.50843540121776 -2.576871868792745 0
      vertex -6.7800821279004175 -1.740829210153984 0
    endloop
  endfacet
  facet normal -0.9822872507286886 -0.18738131458572532 0
    outer loop
      vertex -6.7800821279004175 -1.740829210153984 -4.5
      vertex -6.7800821279004175 -1.740829210153984 0
      vertex -6.9448029092013455 -0.8773326349501285 0
    endloop
  endfacet
  facet normal -0.9980267284282716 -0.06279051952931272 0
    outer loop
      vertex -6.9448029092013455 -0.8773326349501285 -4.5
      vertex -6.9448029092013455 -0.8773326349501285 0
      vertex -7 0 0
    endloop
  endfacet
  facet normal 0 0 1
    outer loop
      vertex -5.663118960624632 -4.114496766047312 0
      vertex -5.1027803919498815 -4.79182974150082 0
      vertex -5.914250001311302 0 0
    endloop
  endfacet
  facet normal 0 0 1
    outer loop
      vertex -6.134146760307044 -3.372275718712008 0
      vertex -6.50843540121776 2.576871868792745 0
      vertex -6.50843540121776 -2.576871868792745 0
    endloop
  endfacet
  facet normal 0 0 1
    outer loop
      vertex -6.7800821279004175 -1.740829210153984 0
      vertex -6.9448029092013455 0.8773326349501285 0
      vertex -6.9448029092013455 -0.8773326349501285 0
    endloop
  endfacet
  facet normal 0 0 1
    outer loop
      vertex -6.50843540121776 -2.576871868792745 0
      vertex -6.7800821279004175 1.740829210153984 0
      vertex -6.7800821279004175 -1.740829210153984 0
    endloop
  endfacet
  facet normal 0 0 1
    outer loop
      vertex -5.663118960624632 -4.114496766047312 0
      vertex -6.134146760307044 3.372275718712008 0
      vertex -6.134146760307044 -3.372275718712008 0
    endloop
  endfacet
  facet normal 0 0 1
    outer loop
      vertex -5.663118960624632 -4.114496766047312 0
      vertex -5.914250001311302 0 0
      vertex -6.134146760307044 3.372275718712008 0
    endloop
  endfacet
  facet normal 0 0 1
    outer loop
      vertex -4.461967928240828 -5.393592699430526 0
      vertex -5.914250001311302 0 0
      vertex -5.1027803919498815 -4.79182974150082 0
    endloop
  endfacet
  facet normal -0.36812455268467814 -0.9297764858882513 0
    outer loop
      vertex -2.980455040955507 -6.333789367262137 -4.5
      vertex -2.1631189606246317 -6.657395614066075 0
      vertex -2.980455040955507 -6.333789367262137 0
    endloop
  endfacet
  facet normal -0.4817536741017148 -0.8763066800438638 0
    outer loop
      vertex -3.7507875648529776 -5.910295478514104 -4.5
      vertex -2.980455040955507 -6.333789367262137 0
      vertex -3.7507875648529776 -5.910295478514104 0
    endloop
  endfacet
  facet normal -0.2486898871648549 -0.9685831611286312 0
    outer loop
      vertex -2.1631189606246317 -6.657395614066075 -4.5
      vertex -1.3116692021000738 -6.87601075510082 0
      vertex -2.1631189606246317 -6.657395614066075 0
    endloop
  endfacet
  facet normal -0.12533323356430495 -0.9921147013144778 0
    outer loop
      vertex -1.3116692021000738 -6.87601075510082 -4.5
      vertex -0.43953363670519635 -6.986187098997901 0
      vertex -1.3116692021000738 -6.87601075510082 0
    endloop
  endfacet
  facet normal 0 -1 0
    outer loop
      vertex -0.43953363670519635 -6.986187098997901 -4.5
      vertex 0.43953363670519635 -6.986187098997901 0
      vertex -0.43953363670519635 -6.986187098997901 0
    endloop
  endfacet
  facet normal 0 0 1
    outer loop
      vertex -2.980455040955507 -6.333789367262137 0
      vertex -2.1631189606246317 -6.657395614066075 0
      vertex -2.957125000655651 -5.1218907460570335 0
    endloop
  endfacet
  facet normal 0 0 1
    outer loop
      vertex -2.1631189606246317 -6.657395614066075 0
      vertex -1.3116692021000738 -6.87601075510082 0
      vertex -2.957125000655651 -5.1218907460570335 0
    endloop
  endfacet
  facet normal 0 0 1
    outer loop
      vertex -1.3116692021000738 -6.87601075510082 0
      vertex -0.43953363670519635 -6.986187098997901 0
      vertex -2.957125000655651 -5.1218907460570335 0
    endloop
  endfacet
  facet normal 0 0 1
    outer loop
      vertex -0.43953363670519635 -6.986187098997901 0
      vertex 0.43953363670519635 -6.986187098997901 0
      vertex -2.957125000655651 -5.1218907460570335 0
    endloop
  endfacet
  facet normal 0 0 1
    outer loop
      vertex 0.43953363670519635 -6.986187098997901 0
      vertex 1.3116692021000738 -6.87601075510082 0
      vertex -2.957125000655651 -5.1218907460570335 0
    endloop
  endfacet
  facet normal 0 0 -1
    outer loop
      vertex -6.9448029092013455 -0.8773326349501285 -4.5
      vertex -7 0 -4.5
      vertex -6.9448029092013455 0.8773326349501285 -4.5
    endloop
  endfacet
  facet normal 0 0 -1
    outer loop
      vertex -6.9448029092013455 -0.8773326349501285 -4.5
      vertex -6.9448029092013455 0.8773326349501285 -4.5
      vertex -6.7800821279004175 1.740829210153984 -4.5
    endloop
  endfacet
  facet normal 0 0 -1
    outer loop
      vertex -6.7800821279004175 -1.740829210153984 -4.5
      vertex -6.7800821279004175 1.740829210153984 -4.5
      vertex -6.50843540121776 2.576871868792745 -4.5
    endloop
  endfacet
  facet normal 0 0 -1
    outer loop
      vertex -6.50843540121776 -2.576871868792745 -4.5
      vertex -6.50843540121776 2.576871868792745 -4.5
      vertex -6.134146760307044 3.372275718712008 -4.5
    endloop
  endfacet
  facet normal 0 0 -1
    outer loop
      vertex -6.134146760307044 -3.372275718712008 -4.5
      vertex -5.663118960624632 4.114496766047312 -4.5
      vertex -5.914250001311302 0 -4.5
    endloop
  endfacet
  facet normal 0 0 -1
    outer loop
      vertex -6.134146760307044 -3.372275718712008 -4.5
      vertex -6.134146760307044 3.372275718712008 -4.5
      vertex -5.663118960624632 4.114496766047312 -4.5
    endloop
  endfacet
  facet normal 0 0 -1
    outer loop
      vertex -5.663118960624632 4.114496766047312 -4.5
      vertex -5.1027803919498815 4.79182974150082 -4.5
      vertex -5.914250001311302 0 -4.5
    endloop
  endfacet
  facet normal 0 0 -1
    outer loop
      vertex -5.1027803919498815 4.79182974150082 -4.5
      vertex -4.461967928240828 5.393592699430526 -4.5
      vertex -5.914250001311302 0 -4.5
    endloop
  endfacet
  facet normal -0.9980267284282716 0.06279051952931272 0
    outer loop
      vertex -7 0 -4.5
      vertex -6.9448029092013455 0.8773326349501285 0
      vertex -6.9448029092013455 0.8773326349501285 -4.5
    endloop
  endfacet
  facet normal -0.9822872507286886 0.18738131458572532 0
    outer loop
      vertex -6.9448029092013455 0.8773326349501285 -4.5
      vertex -6.7800821279004175 1.740829210153984 0
      vertex -6.7800821279004175 1.740829210153984 -4.5
    endloop
  endfacet
  facet normal -0.9510565162951536 0.30901699437494745 0
    outer loop
      vertex -6.7800821279004175 1.740829210153984 -4.5
      vertex -6.50843540121776 2.576871868792745 0
      vertex -6.50843540121776 2.576871868792745 -4.5
    endloop
  endfacet
  facet normal -0.9048270524660195 0.4257792915650727 0
    outer loop
      vertex -6.50843540121776 2.576871868792745 -4.5
      vertex -6.134146760307044 3.372275718712008 0
      vertex -6.134146760307044 3.372275718712008 -4.5
    endloop
  endfacet
  facet normal 0 0 -1
    outer loop
      vertex -4.461967928240828 5.393592699430526 -4.5
      vertex -3.7507875648529776 5.910295478514104 -4.5
      vertex -5.914250001311302 0 -4.5
    endloop
  endfacet
  facet normal 0 0 -1
    outer loop
      vertex -2.980455040955509 6.333789367262137 -4.5
      vertex -2.957125000655651 5.1218907460570335 -4.5
      vertex -5.914250001311302 0 -4.5
    endloop
  endfacet
  facet normal 0 0 -1
    outer loop
      vertex -3.7507875648529776 5.910295478514104 -4.5
      vertex -2.980455040955509 6.333789367262137 -4.5
      vertex -5.914250001311302 0 -4.5
    endloop
  endfacet
  facet normal -0.8443279255020153 0.5358267949789963 0
    outer loop
      vertex -6.134146760307044 3.372275718712008 -4.5
      vertex -5.663118960624632 4.114496766047312 0
      vertex -5.663118960624632 4.114496766047312 -4.5
    endloop
  endfacet
  facet normal -0.7705132427757893 0.6374239897486896 0
    outer loop
      vertex -5.663118960624632 4.114496766047312 -4.5
      vertex -5.1027803919498815 4.79182974150082 0
      vertex -5.1027803919498815 4.79182974150082 -4.5
    endloop
  endfacet
  facet normal -0.6845471059286894 0.7289686274214108 0
    outer loop
      vertex -5.1027803919498815 4.79182974150082 -4.5
      vertex -5.1027803919498815 4.79182974150082 0
      vertex -4.461967928240828 5.393592699430526 -4.5
    endloop
  endfacet
  facet normal -0.5877852522924721 0.8090169943749481 0
    outer loop
      vertex -4.461967928240828 5.393592699430526 -4.5
      vertex -4.461967928240828 5.393592699430526 0
      vertex -3.7507875648529776 5.910295478514104 -4.5
    endloop
  endfacet
  facet normal 0 0 -1
    outer loop
      vertex -2.980455040955509 6.333789367262137 -4.5
      vertex -2.1631189606246317 6.657395614066075 -4.5
      vertex -2.957125000655651 5.1218907460570335 -4.5
    endloop
  endfacet
  facet normal 0 0 -1
    outer loop
      vertex -2.1631189606246317 6.657395614066075 -4.5
      vertex -1.311669202100072 6.876010755100821 -4.5
      vertex -2.957125000655651 5.1218907460570335 -4.5
    endloop
  endfacet
  facet normal 0 0 -1
    outer loop
      vertex -1.311669202100072 6.876010755100821 -4.5
      vertex -0.43953363670519296 6.986187098997901 -4.5
      vertex -2.957125000655651 5.1218907460570335 -4.5
    endloop
  endfacet
  facet normal 0 0 -1
    outer loop
      vertex -0.43953363670519296 6.986187098997901 -4.5
      vertex 0.43953363670519296 6.986187098997901 -4.5
      vertex -2.957125000655651 5.1218907460570335 -4.5
    endloop
  endfacet
  facet normal 0 0 -1
    outer loop
      vertex 0.43953363670519296 6.986187098997901 -4.5
      vertex 1.311669202100072 6.876010755100821 -4.5
      vertex -2.957125000655651 5.1218907460570335 -4.5
    endloop
  endfacet
  facet normal -0.48175367410171566 0.8763066800438634 0
    outer loop
      vertex -3.7507875648529776 5.910295478514104 -4.5
      vertex -3.7507875648529776 5.910295478514104 0
      vertex -2.980455040955509 6.333789367262137 -4.5
    endloop
  endfacet
  facet normal -0.3681245526846774 0.9297764858882516 0
    outer loop
      vertex -2.980455040955509 6.333789367262137 -4.5
      vertex -2.980455040955509 6.333789367262137 0
      vertex -2.1631189606246317 6.657395614066075 -4.5
    endloop
  endfacet
  facet normal -0.24868988716485538 0.968583161128631 0
    outer loop
      vertex -2.1631189606246317 6.657395614066075 -4.5
      vertex -2.1631189606246317 6.657395614066075 0
      vertex -1.311669202100072 6.876010755100821 -4.5
    endloop
  endfacet
  facet normal -0.12533323356430373 0.9921147013144779 0
    outer loop
      vertex -1.311669202100072 6.876010755100821 -4.5
      vertex -1.311669202100072 6.876010755100821 0
      vertex -0.43953363670519296 6.986187098997901 -4.5
    endloop
  endfacet
  facet normal 0 1 0
    outer loop
      vertex -0.43953363670519296 6.986187098997901 -4.5
      vertex -0.43953363670519296 6.986187098997901 0
      vertex 0.43953363670519296 6.986187098997901 -4.5
    endloop
  endfacet
  facet normal -0.9980267284282716 0.06279051952931272 0
    outer loop
      vertex -7 0 -4.5
      vertex -7 0 0
      vertex -6.9448029092013455 0.8773326349501285 0
    endloop
  endfacet
  facet normal -0.9822872507286886 0.18738131458572532 0
    outer loop
      vertex -6.9448029092013455 0.8773326349501285 -4.5
      vertex -6.9448029092013455 0.8773326349501285 0
      vertex -6.7800821279004175 1.740829210153984 0
    endloop
  endfacet
  facet normal -0.9510565162951536 0.30901699437494745 0
    outer loop
      vertex -6.7800821279004175 1.740829210153984 -4.5
      vertex -6.7800821279004175 1.740829210153984 0
      vertex -6.50843540121776 2.576871868792745 0
    endloop
  endfacet
  facet normal -0.9048270524660195 0.4257792915650727 0
    outer loop
      vertex -6.50843540121776 2.576871868792745 -4.5
      vertex -6.50843540121776 2.576871868792745 0
      vertex -6.134146760307044 3.372275718712008 0
    endloop
  endfacet
  facet normal 0 0 1
    outer loop
      vertex -6.9448029092013455 -0.8773326349501285 0
      vertex -6.9448029092013455 0.8773326349501285 0
      vertex -7 0 0
    endloop
  endfacet
  facet normal 0 0 1
    outer loop
      vertex -6.7800821279004175 -1.740829210153984 0
      vertex -6.7800821279004175 1.740829210153984 0
      vertex -6.9448029092013455 0.8773326349501285 0
    endloop
  endfacet
  facet normal 0 0 1
    outer loop
      vertex -6.50843540121776 -2.576871868792745 0
      vertex -6.50843540121776 2.576871868792745 0
      vertex -6.7800821279004175 1.740829210153984 0
    endloop
  endfacet
  facet normal 0 0 1
    outer loop
      vertex -6.134146760307044 -3.372275718712008 0
      vertex -6.134146760307044 3.372275718712008 0
      vertex -6.50843540121776 2.576871868792745 0
    endloop
  endfacet
  facet normal 0 0 1
    outer loop
      vertex -6.134146760307044 3.372275718712008 0
      vertex -5.914250001311302 0 0
      vertex -2.957125000655651 5.1218907460570335 0
    endloop
  endfacet
  facet normal -0.8443279255020153 0.5358267949789963 0
    outer loop
      vertex -6.134146760307044 3.372275718712008 -4.5
      vertex -6.134146760307044 3.372275718712008 0
      vertex -5.663118960624632 4.114496766047312 0
    endloop
  endfacet
  facet normal -0.7705132427757893 0.6374239897486896 0
    outer loop
      vertex -5.663118960624632 4.114496766047312 -4.5
      vertex -5.663118960624632 4.114496766047312 0
      vertex -5.1027803919498815 4.79182974150082 0
    endloop
  endfacet
  facet normal -0.6845471059286894 0.7289686274214108 0
    outer loop
      vertex -4.461967928240828 5.393592699430526 -4.5
      vertex -5.1027803919498815 4.79182974150082 0
      vertex -4.461967928240828 5.393592699430526 0
    endloop
  endfacet
  facet normal -0.5877852522924721 0.8090169943749481 0
    outer loop
      vertex -3.7507875648529776 5.910295478514104 -4.5
      vertex -4.461967928240828 5.393592699430526 0
      vertex -3.7507875648529776 5.910295478514104 0
    endloop
  endfacet
  facet normal 0 0 1
    outer loop
      vertex -6.134146760307044 3.372275718712008 0
      vertex -2.957125000655651 5.1218907460570335 0
      vertex -5.663118960624632 4.114496766047312 0
    endloop
  endfacet
  facet normal 0 0 1
    outer loop
      vertex -5.663118960624632 4.114496766047312 0
      vertex -2.957125000655651 5.1218907460570335 0
      vertex -5.1027803919498815 4.79182974150082 0
    endloop
  endfacet
  facet normal 0 0 1
    outer loop
      vertex -5.1027803919498815 4.79182974150082 0
      vertex -2.957125000655651 5.1218907460570335 0
      vertex -4.461967928240828 5.393592699430526 0
    endloop
  endfacet
  facet normal 0 0 1
    outer loop
      vertex -4.461967928240828 5.393592699430526 0
      vertex -2.957125000655651 5.1218907460570335 0
      vertex -3.7507875648529776 5.910295478514104 0
    endloop
  endfacet
  facet normal -0.48175367410171566 0.8763066800438634 0
    outer loop
      vertex -2.980455040955509 6.333789367262137 -4.5
      vertex -3.7507875648529776 5.910295478514104 0
      vertex -2.980455040955509 6.333789367262137 0
    endloop
  endfacet
  facet normal -0.3681245526846774 0.9297764858882516 0
    outer loop
      vertex -2.1631189606246317 6.657395614066075 -4.5
      vertex -2.980455040955509 6.333789367262137 0
      vertex -2.1631189606246317 6.657395614066075 0
    endloop
  endfacet
  facet normal -0.24868988716485538 0.968583161128631 0
    outer loop
      vertex -1.311669202100072 6.876010755100821 -4.5
      vertex -2.1631189606246317 6.657395614066075 0
      vertex -1.311669202100072 6.876010755100821 0
    endloop
  endfacet
  facet normal -0.12533323356430373 0.9921147013144779 0
    outer loop
      vertex -0.43953363670519296 6.986187098997901 -4.5
      vertex -1.311669202100072 6.876010755100821 0
      vertex -0.43953363670519296 6.986187098997901 0
    endloop
  endfacet
  facet normal 0 0 1
    outer loop
      vertex -3.7507875648529776 5.910295478514104 0
      vertex -2.957125000655651 5.1218907460570335 0
      vertex -2.980455040955509 6.333789367262137 0
    endloop
  endfacet
  facet normal 0 0 1
    outer loop
      vertex -2.980455040955509 6.333789367262137 0
      vertex -2.957125000655651 5.1218907460570335 0
      vertex 2.957125000655651 5.1218907460570335 0
    endloop
  endfacet
  facet normal 0 0 1
    outer loop
      vertex -2.980455040955509 6.333789367262137 0
      vertex 2.957125000655651 5.1218907460570335 0
      vertex -2.1631189606246317 6.657395614066075 0
    endloop
  endfacet
  facet normal 0 0 1
    outer loop
      vertex -2.1631189606246317 6.657395614066075 0
      vertex 2.957125000655651 5.1218907460570335 0
      vertex -1.311669202100072 6.876010755100821 0
    endloop
  endfacet
  facet normal 0 0 -1
    outer loop
      vertex -1.3116692021000738 -6.87601075510082 -4.5
      vertex 2.957125000655651 -5.1218907460570335 -4.5
      vertex -0.43953363670519635 -6.986187098997901 -4.5
    endloop
  endfacet
  facet normal 0 0 -1
    outer loop
      vertex -0.43953363670519635 -6.986187098997901 -4.5
      vertex 2.957125000655651 -5.1218907460570335 -4.5
      vertex 0.43953363670519635 -6.986187098997901 -4.5
    endloop
  endfacet
  facet normal 0 0 -1
    outer loop
      vertex 0.43953363670519635 -6.986187098997901 -4.5
      vertex 2.957125000655651 -5.1218907460570335 -4.5
      vertex 1.3116692021000738 -6.87601075510082 -4.5
    endloop
  endfacet
  facet normal 0 0 -1
    outer loop
      vertex 1.3116692021000738 -6.87601075510082 -4.5
      vertex 2.957125000655651 -5.1218907460570335 -4.5
      vertex 2.1631189606246317 -6.657395614066075 -4.5
    endloop
  endfacet
  facet normal 0 0 -1
    outer loop
      vertex 2.1631189606246317 -6.657395614066075 -4.5
      vertex 2.957125000655651 -5.1218907460570335 -4.5
      vertex 2.980455040955507 -6.333789367262137 -4.5
    endloop
  endfacet
  facet normal 0 -1 0
    outer loop
      vertex -0.43953363670519635 -6.986187098997901 -4.5
      vertex 0.43953363670519635 -6.986187098997901 -4.5
      vertex 0.43953363670519635 -6.986187098997901 0
    endloop
  endfacet
  facet normal 0.12533323356430495 -0.9921147013144778 0
    outer loop
      vertex 0.43953363670519635 -6.986187098997901 -4.5
      vertex 1.3116692021000738 -6.87601075510082 -4.5
      vertex 1.3116692021000738 -6.87601075510082 0
    endloop
  endfacet
  facet normal 0.2486898871648549 -0.9685831611286312 0
    outer loop
      vertex 1.3116692021000738 -6.87601075510082 -4.5
      vertex 2.1631189606246317 -6.657395614066075 -4.5
      vertex 2.1631189606246317 -6.657395614066075 0
    endloop
  endfacet
  facet normal 0.36812455268467814 -0.9297764858882513 0
    outer loop
      vertex 2.1631189606246317 -6.657395614066075 -4.5
      vertex 2.980455040955507 -6.333789367262137 -4.5
      vertex 2.980455040955507 -6.333789367262137 0
    endloop
  endfacet
  facet normal 0.48175367410171444 -0.876306680043864 0
    outer loop
      vertex 2.980455040955507 -6.333789367262137 -4.5
      vertex 3.7507875648529736 -5.910295478514107 -4.5
      vertex 3.7507875648529736 -5.910295478514107 0
    endloop
  endfacet
  facet normal 0 0 -1
    outer loop
      vertex 2.980455040955507 -6.333789367262137 -4.5
      vertex 5.914250001311302 0 -4.5
      vertex 3.7507875648529736 -5.910295478514107 -4.5
    endloop
  endfacet
  facet normal 0 0 -1
    outer loop
      vertex 2.980455040955507 -6.333789367262137 -4.5
      vertex 2.957125000655651 -5.1218907460570335 -4.5
      vertex 5.914250001311302 0 -4.5
    endloop
  endfacet
  facet normal 0 0 -1
    outer loop
      vertex 3.7507875648529736 -5.910295478514107 -4.5
      vertex 5.914250001311302 0 -4.5
      vertex 4.4619679282408296 -5.393592699430523 -4.5
    endloop
  endfacet
  facet normal 0.587785252292473 -0.8090169943749475 0
    outer loop
      vertex 3.7507875648529736 -5.910295478514107 -4.5
      vertex 4.4619679282408296 -5.393592699430523 -4.5
      vertex 4.4619679282408296 -5.393592699430523 0
    endloop
  endfacet
  facet normal 0.6845471059286888 -0.7289686274214114 0
    outer loop
      vertex 4.4619679282408296 -5.393592699430523 -4.5
      vertex 5.1027803919498815 -4.79182974150082 -4.5
      vertex 5.1027803919498815 -4.79182974150082 0
    endloop
  endfacet
  facet normal 0.7705132427757893 -0.6374239897486896 0
    outer loop
      vertex 5.1027803919498815 -4.79182974150082 -4.5
      vertex 5.663118960624632 -4.114496766047312 -4.5
      vertex 5.1027803919498815 -4.79182974150082 0
    endloop
  endfacet
  facet normal 0.8443279255020153 -0.5358267949789963 0
    outer loop
      vertex 5.663118960624632 -4.114496766047312 -4.5
      vertex 6.134146760307044 -3.372275718712008 -4.5
      vertex 5.663118960624632 -4.114496766047312 0
    endloop
  endfacet
  facet normal 0 0 -1
    outer loop
      vertex 4.4619679282408296 -5.393592699430523 -4.5
      vertex 5.914250001311302 0 -4.5
      vertex 5.1027803919498815 -4.79182974150082 -4.5
    endloop
  endfacet
  facet normal 0 0 -1
    outer loop
      vertex 5.1027803919498815 -4.79182974150082 -4.5
      vertex 5.914250001311302 0 -4.5
      vertex 5.663118960624632 -4.114496766047312 -4.5
    endloop
  endfacet
  facet normal 0 0 -1
    outer loop
      vertex 5.663118960624632 -4.114496766047312 -4.5
      vertex 6.134146760307045 3.3722757187120074 -4.5
      vertex 6.134146760307044 -3.372275718712008 -4.5
    endloop
  endfacet
  facet normal 0 0 -1
    outer loop
      vertex 5.663118960624632 -4.114496766047312 -4.5
      vertex 5.914250001311302 0 -4.5
      vertex 6.134146760307045 3.3722757187120074 -4.5
    endloop
  endfacet
  facet normal 0 0 -1
    outer loop
      vertex 6.134146760307044 -3.372275718712008 -4.5
      vertex 6.50843540121776 2.576871868792746 -4.5
      vertex 6.508435401217759 -2.5768718687927485 -4.5
    endloop
  endfacet
  facet normal 0 0 -1
    outer loop
      vertex 6.508435401217759 -2.5768718687927485 -4.5
      vertex 6.7800821279004175 1.7408292101539835 -4.5
      vertex 6.780082127900418 -1.740829210153981 -4.5
    endloop
  endfacet
  facet normal 0 0 -1
    outer loop
      vertex 6.780082127900418 -1.740829210153981 -4.5
      vertex 6.9448029092013455 0.8773326349501298 -4.5
      vertex 6.9448029092013455 -0.8773326349501285 -4.5
    endloop
  endfacet
  facet normal 0.9048270524660191 -0.4257792915650735 0
    outer loop
      vertex 6.134146760307044 -3.372275718712008 -4.5
      vertex 6.508435401217759 -2.5768718687927485 -4.5
      vertex 6.134146760307044 -3.372275718712008 0
    endloop
  endfacet
  facet normal 0.9510565162951536 -0.3090169943749471 0
    outer loop
      vertex 6.508435401217759 -2.5768718687927485 -4.5
      vertex 6.780082127900418 -1.740829210153981 -4.5
      vertex 6.508435401217759 -2.5768718687927485 0
    endloop
  endfacet
  facet normal 0.9822872507286886 -0.18738131458572496 0
    outer loop
      vertex 6.780082127900418 -1.740829210153981 -4.5
      vertex 6.9448029092013455 -0.8773326349501285 -4.5
      vertex 6.780082127900418 -1.740829210153981 0
    endloop
  endfacet
  facet normal 0.9980267284282716 -0.06279051952931272 0
    outer loop
      vertex 6.9448029092013455 -0.8773326349501285 -4.5
      vertex 7 0 -4.5
      vertex 6.9448029092013455 -0.8773326349501285 0
    endloop
  endfacet
  facet normal 0.12533323356430495 -0.9921147013144778 0
    outer loop
      vertex 0.43953363670519635 -6.986187098997901 -4.5
      vertex 1.3116692021000738 -6.87601075510082 0
      vertex 0.43953363670519635 -6.986187098997901 0
    endloop
  endfacet
  facet normal 0.2486898871648549 -0.9685831611286312 0
    outer loop
      vertex 1.3116692021000738 -6.87601075510082 -4.5
      vertex 2.1631189606246317 -6.657395614066075 0
      vertex 1.3116692021000738 -6.87601075510082 0
    endloop
  endfacet
  facet normal 0.36812455268467814 -0.9297764858882513 0
    outer loop
      vertex 2.1631189606246317 -6.657395614066075 -4.5
      vertex 2.980455040955507 -6.333789367262137 0
      vertex 2.1631189606246317 -6.657395614066075 0
    endloop
  endfacet
  facet normal 0.48175367410171444 -0.876306680043864 0
    outer loop
      vertex 2.980455040955507 -6.333789367262137 -4.5
      vertex 3.7507875648529736 -5.910295478514107 0
      vertex 2.980455040955507 -6.333789367262137 0
    endloop
  endfacet
  facet normal 0 0 1
    outer loop
      vertex 1.3116692021000738 -6.87601075510082 0
      vertex 2.1631189606246317 -6.657395614066075 0
      vertex -2.957125000655651 -5.1218907460570335 0
    endloop
  endfacet
  facet normal 0 0 1
    outer loop
      vertex 2.1631189606246317 -6.657395614066075 0
      vertex 2.980455040955507 -6.333789367262137 0
      vertex -2.957125000655651 -5.1218907460570335 0
    endloop
  endfacet
  facet normal 0 0 1
    outer loop
      vertex 2.980455040955507 -6.333789367262137 0
      vertex 2.957125000655651 -5.1218907460570335 0
      vertex -2.957125000655651 -5.1218907460570335 0
    endloop
  endfacet
  facet normal 0 0 1
    outer loop
      vertex 2.980455040955507 -6.333789367262137 0
      vertex 3.7507875648529736 -5.910295478514107 0
      vertex 2.957125000655651 -5.1218907460570335 0
    endloop
  endfacet
  facet normal 0.587785252292473 -0.8090169943749475 0
    outer loop
      vertex 3.7507875648529736 -5.910295478514107 -4.5
      vertex 4.4619679282408296 -5.393592699430523 0
      vertex 3.7507875648529736 -5.910295478514107 0
    endloop
  endfacet
  facet normal 0.6845471059286888 -0.7289686274214114 0
    outer loop
      vertex 4.4619679282408296 -5.393592699430523 -4.5
      vertex 5.1027803919498815 -4.79182974150082 0
      vertex 4.4619679282408296 -5.393592699430523 0
    endloop
  endfacet
  facet normal 0.7705132427757893 -0.6374239897486896 0
    outer loop
      vertex 5.663118960624632 -4.114496766047312 -4.5
      vertex 5.663118960624632 -4.114496766047312 0
      vertex 5.1027803919498815 -4.79182974150082 0
    endloop
  endfacet
  facet normal 0.8443279255020153 -0.5358267949789963 0
    outer loop
      vertex 6.134146760307044 -3.372275718712008 -4.5
      vertex 6.134146760307044 -3.372275718712008 0
      vertex 5.663118960624632 -4.114496766047312 0
    endloop
  endfacet
  facet normal 0 0 1
    outer loop
      vertex 3.7507875648529736 -5.910295478514107 0
      vertex 4.4619679282408296 -5.393592699430523 0
      vertex 2.957125000655651 -5.1218907460570335 0
    endloop
  endfacet
  facet normal 0 0 1
    outer loop
      vertex 4.4619679282408296 -5.393592699430523 0
      vertex 5.1027803919498815 -4.79182974150082 0
      vertex 2.957125000655651 -5.1218907460570335 0
    endloop
  endfacet
  facet normal 0 0 1
    outer loop
      vertex 5.1027803919498815 -4.79182974150082 0
      vertex 5.663118960624632 -4.114496766047312 0
      vertex 2.957125000655651 -5.1218907460570335 0
    endloop
  endfacet
  facet normal 0 0 1
    outer loop
      vertex 5.663118960624632 -4.114496766047312 0
      vertex 6.134146760307044 -3.372275718712008 0
      vertex 2.957125000655651 -5.1218907460570335 0
    endloop
  endfacet
  facet normal 0.9048270524660191 -0.4257792915650735 0
    outer loop
      vertex 6.508435401217759 -2.5768718687927485 -4.5
      vertex 6.508435401217759 -2.5768718687927485 0
      vertex 6.134146760307044 -3.372275718712008 0
    endloop
  endfacet
  facet normal 0.9510565162951536 -0.3090169943749471 0
    outer loop
      vertex 6.780082127900418 -1.740829210153981 -4.5
      vertex 6.780082127900418 -1.740829210153981 0
      vertex 6.508435401217759 -2.5768718687927485 0
    endloop
  endfacet
  facet normal 0.9822872507286886 -0.18738131458572496 0
    outer loop
      vertex 6.9448029092013455 -0.8773326349501285 -4.5
      vertex 6.9448029092013455 -0.8773326349501285 0
      vertex 6.780082127900418 -1.740829210153981 0
    endloop
  endfacet
  facet normal 0.9980267284282716 -0.06279051952931272 0
    outer loop
      vertex 6.9448029092013455 -0.8773326349501285 0
      vertex 7 0 -4.5
      vertex 7 0 0
    endloop
  endfacet
  facet normal 0 0 1
    outer loop
      vertex 6.134146760307044 -3.372275718712008 0
      vertex 5.914250001311302 0 0
      vertex 2.957125000655651 -5.1218907460570335 0
    endloop
  endfacet
  facet normal 0 0 1
    outer loop
      vertex 6.134146760307044 -3.372275718712008 0
      vertex 6.508435401217759 -2.5768718687927485 0
      vertex 6.134146760307045 3.3722757187120074 0
    endloop
  endfacet
  facet normal 0 0 1
    outer loop
      vertex 6.508435401217759 -2.5768718687927485 0
      vertex 6.780082127900418 -1.740829210153981 0
      vertex 6.50843540121776 2.576871868792746 0
    endloop
  endfacet
  facet normal 0 0 1
    outer loop
      vertex 6.780082127900418 -1.740829210153981 0
      vertex 6.9448029092013455 -0.8773326349501285 0
      vertex 6.7800821279004175 1.7408292101539835 0
    endloop
  endfacet
  facet normal 0 0 -1
    outer loop
      vertex 2.1631189606246317 6.657395614066075 -4.5
      vertex 2.980455040955509 6.333789367262137 -4.5
      vertex -2.957125000655651 5.1218907460570335 -4.5
    endloop
  endfacet
  facet normal 0 0 -1
    outer loop
      vertex 1.311669202100072 6.876010755100821 -4.5
      vertex 2.1631189606246317 6.657395614066075 -4.5
      vertex -2.957125000655651 5.1218907460570335 -4.5
    endloop
  endfacet
  facet normal 0 0 -1
    outer loop
      vertex 2.980455040955509 6.333789367262137 -4.5
      vertex 2.957125000655651 5.1218907460570335 -4.5
      vertex -2.957125000655651 5.1218907460570335 -4.5
    endloop
  endfacet
  facet normal 0 0 -1
    outer loop
      vertex 2.980455040955509 6.333789367262137 -4.5
      vertex 3.7507875648529767 5.910295478514105 -4.5
      vertex 2.957125000655651 5.1218907460570335 -4.5
    endloop
  endfacet
  facet normal 0.12533323356430373 0.9921147013144779 0
    outer loop
      vertex 0.43953363670519296 6.986187098997901 -4.5
      vertex 0.43953363670519296 6.986187098997901 0
      vertex 1.311669202100072 6.876010755100821 -4.5
    endloop
  endfacet
  facet normal 0.24868988716485538 0.968583161128631 0
    outer loop
      vertex 1.311669202100072 6.876010755100821 -4.5
      vertex 1.311669202100072 6.876010755100821 0
      vertex 2.1631189606246317 6.657395614066075 -4.5
    endloop
  endfacet
  facet normal 0.3681245526846774 0.9297764858882516 0
    outer loop
      vertex 2.1631189606246317 6.657395614066075 -4.5
      vertex 2.1631189606246317 6.657395614066075 0
      vertex 2.980455040955509 6.333789367262137 -4.5
    endloop
  endfacet
  facet normal 0.4817536741017154 0.8763066800438635 0
    outer loop
      vertex 2.980455040955509 6.333789367262137 -4.5
      vertex 2.980455040955509 6.333789367262137 0
      vertex 3.7507875648529767 5.910295478514105 -4.5
    endloop
  endfacet
  facet normal 0 0 -1
    outer loop
      vertex 6.134146760307045 3.3722757187120074 -4.5
      vertex 5.914250001311302 0 -4.5
      vertex 2.957125000655651 5.1218907460570335 -4.5
    endloop
  endfacet
  facet normal 0 0 -1
    outer loop
      vertex 6.134146760307044 -3.372275718712008 -4.5
      vertex 6.134146760307045 3.3722757187120074 -4.5
      vertex 6.50843540121776 2.576871868792746 -4.5
    endloop
  endfacet
  facet normal 0 0 -1
    outer loop
      vertex 6.9448029092013455 -0.8773326349501285 -4.5
      vertex 6.9448029092013455 0.8773326349501298 -4.5
      vertex 7 0 -4.5
    endloop
  endfacet
  facet normal 0 0 -1
    outer loop
      vertex 6.780082127900418 -1.740829210153981 -4.5
      vertex 6.7800821279004175 1.7408292101539835 -4.5
      vertex 6.9448029092013455 0.8773326349501298 -4.5
    endloop
  endfacet
  facet normal 0 0 -1
    outer loop
      vertex 6.508435401217759 -2.5768718687927485 -4.5
      vertex 6.50843540121776 2.576871868792746 -4.5
      vertex 6.7800821279004175 1.7408292101539835 -4.5
    endloop
  endfacet
  facet normal 0.9980267284282716 0.06279051952931264 0
    outer loop
      vertex 7 0 -4.5
      vertex 6.9448029092013455 0.8773326349501298 -4.5
      vertex 7 0 0
    endloop
  endfacet
  facet normal 0.9822872507286884 0.18738131458572568 0
    outer loop
      vertex 6.9448029092013455 0.8773326349501298 -4.5
      vertex 6.7800821279004175 1.7408292101539835 -4.5
      vertex 6.9448029092013455 0.8773326349501298 0
    endloop
  endfacet
  facet normal 0.9510565162951536 0.309016994374947 0
    outer loop
      vertex 6.7800821279004175 1.7408292101539835 -4.5
      vertex 6.50843540121776 2.576871868792746 -4.5
      vertex 6.7800821279004175 1.7408292101539835 0
    endloop
  endfacet
  facet normal 0.9048270524660196 0.4257792915650725 0
    outer loop
      vertex 6.50843540121776 2.576871868792746 -4.5
      vertex 6.134146760307045 3.3722757187120074 -4.5
      vertex 6.50843540121776 2.576871868792746 0
    endloop
  endfacet
  facet normal 0 0 -1
    outer loop
      vertex 5.102780391949881 4.7918297415008215 -4.5
      vertex 2.957125000655651 5.1218907460570335 -4.5
      vertex 4.461967928240828 5.393592699430524 -4.5
    endloop
  endfacet
  facet normal 0 0 -1
    outer loop
      vertex 6.134146760307045 3.3722757187120074 -4.5
      vertex 2.957125000655651 5.1218907460570335 -4.5
      vertex 5.663118960624632 4.114496766047312 -4.5
    endloop
  endfacet
  facet normal 0 0 -1
    outer loop
      vertex 5.102780391949881 4.7918297415008215 -4.5
      vertex 5.663118960624632 4.114496766047312 -4.5
      vertex 2.957125000655651 5.1218907460570335 -4.5
    endloop
  endfacet
  facet normal 0 0 -1
    outer loop
      vertex 3.7507875648529767 5.910295478514105 -4.5
      vertex 4.461967928240828 5.393592699430524 -4.5
      vertex 2.957125000655651 5.1218907460570335 -4.5
    endloop
  endfacet
  facet normal 0.6845471059286878 0.7289686274214124 0
    outer loop
      vertex 5.102780391949881 4.7918297415008215 -4.5
      vertex 4.461967928240828 5.393592699430524 -4.5
      vertex 4.461967928240828 5.393592699430524 0
    endloop
  endfacet
  facet normal 0.5877852522924737 0.8090169943749471 0
    outer loop
      vertex 3.7507875648529767 5.910295478514105 -4.5
      vertex 3.7507875648529767 5.910295478514105 0
      vertex 4.461967928240828 5.393592699430524 -4.5
    endloop
  endfacet
  facet normal 0.7705132427757895 0.6374239897486893 0
    outer loop
      vertex 5.102780391949881 4.7918297415008215 -4.5
      vertex 5.663118960624632 4.114496766047312 0
      vertex 5.663118960624632 4.114496766047312 -4.5
    endloop
  endfacet
  facet normal 0.844327925502015 0.5358267949789969 0
    outer loop
      vertex 6.134146760307045 3.3722757187120074 -4.5
      vertex 5.663118960624632 4.114496766047312 -4.5
      vertex 6.134146760307045 3.3722757187120074 0
    endloop
  endfacet
  facet normal 0 1 0
    outer loop
      vertex -0.43953363670519296 6.986187098997901 0
      vertex 0.43953363670519296 6.986187098997901 0
      vertex 0.43953363670519296 6.986187098997901 -4.5
    endloop
  endfacet
  facet normal 0.12533323356430373 0.9921147013144779 0
    outer loop
      vertex 1.311669202100072 6.876010755100821 -4.5
      vertex 0.43953363670519296 6.986187098997901 0
      vertex 1.311669202100072 6.876010755100821 0
    endloop
  endfacet
  facet normal 0.24868988716485538 0.968583161128631 0
    outer loop
      vertex 2.1631189606246317 6.657395614066075 -4.5
      vertex 1.311669202100072 6.876010755100821 0
      vertex 2.1631189606246317 6.657395614066075 0
    endloop
  endfacet
  facet normal 0.4817536741017154 0.8763066800438635 0
    outer loop
      vertex 3.7507875648529767 5.910295478514105 -4.5
      vertex 2.980455040955509 6.333789367262137 0
      vertex 3.7507875648529767 5.910295478514105 0
    endloop
  endfacet
  facet normal 0.3681245526846774 0.9297764858882516 0
    outer loop
      vertex 2.980455040955509 6.333789367262137 -4.5
      vertex 2.1631189606246317 6.657395614066075 0
      vertex 2.980455040955509 6.333789367262137 0
    endloop
  endfacet
  facet normal 0 0 1
    outer loop
      vertex -1.311669202100072 6.876010755100821 0
      vertex 2.957125000655651 5.1218907460570335 0
      vertex -0.43953363670519296 6.986187098997901 0
    endloop
  endfacet
  facet normal 0 0 1
    outer loop
      vertex -0.43953363670519296 6.986187098997901 0
      vertex 2.957125000655651 5.1218907460570335 0
      vertex 0.43953363670519296 6.986187098997901 0
    endloop
  endfacet
  facet normal 0 0 1
    outer loop
      vertex 0.43953363670519296 6.986187098997901 0
      vertex 2.957125000655651 5.1218907460570335 0
      vertex 1.311669202100072 6.876010755100821 0
    endloop
  endfacet
  facet normal 0 0 1
    outer loop
      vertex 1.311669202100072 6.876010755100821 0
      vertex 2.957125000655651 5.1218907460570335 0
      vertex 2.1631189606246317 6.657395614066075 0
    endloop
  endfacet
  facet normal 0 0 1
    outer loop
      vertex 2.1631189606246317 6.657395614066075 0
      vertex 2.957125000655651 5.1218907460570335 0
      vertex 2.980455040955509 6.333789367262137 0
    endloop
  endfacet
  facet normal 0.9980267284282716 0.06279051952931264 0
    outer loop
      vertex 6.9448029092013455 0.8773326349501298 -4.5
      vertex 6.9448029092013455 0.8773326349501298 0
      vertex 7 0 0
    endloop
  endfacet
  facet normal 0.9822872507286884 0.18738131458572568 0
    outer loop
      vertex 6.7800821279004175 1.7408292101539835 -4.5
      vertex 6.7800821279004175 1.7408292101539835 0
      vertex 6.9448029092013455 0.8773326349501298 0
    endloop
  endfacet
  facet normal 0.9510565162951536 0.309016994374947 0
    outer loop
      vertex 6.50843540121776 2.576871868792746 -4.5
      vertex 6.50843540121776 2.576871868792746 0
      vertex 6.7800821279004175 1.7408292101539835 0
    endloop
  endfacet
  facet normal 0.9048270524660196 0.4257792915650725 0
    outer loop
      vertex 6.134146760307045 3.3722757187120074 -4.5
      vertex 6.134146760307045 3.3722757187120074 0
      vertex 6.50843540121776 2.576871868792746 0
    endloop
  endfacet
  facet normal 0 0 1
    outer loop
      vertex 5.102780391949881 4.7918297415008215 0
      vertex 4.461967928240828 5.393592699430524 0
      vertex 5.914250001311302 0 0
    endloop
  endfacet
  facet normal 0 0 1
    outer loop
      vertex 6.134146760307044 -3.372275718712008 0
      vertex 5.663118960624632 4.114496766047312 0
      vertex 5.914250001311302 0 0
    endloop
  endfacet
  facet normal 0 0 1
    outer loop
      vertex 6.134146760307044 -3.372275718712008 0
      vertex 6.134146760307045 3.3722757187120074 0
      vertex 5.663118960624632 4.114496766047312 0
    endloop
  endfacet
  facet normal 0 0 1
    outer loop
      vertex 6.9448029092013455 -0.8773326349501285 0
      vertex 7 0 0
      vertex 6.9448029092013455 0.8773326349501298 0
    endloop
  endfacet
  facet normal 0 0 1
    outer loop
      vertex 6.780082127900418 -1.740829210153981 0
      vertex 6.7800821279004175 1.7408292101539835 0
      vertex 6.50843540121776 2.576871868792746 0
    endloop
  endfacet
  facet normal 0 0 1
    outer loop
      vertex 6.9448029092013455 -0.8773326349501285 0
      vertex 6.9448029092013455 0.8773326349501298 0
      vertex 6.7800821279004175 1.7408292101539835 0
    endloop
  endfacet
  facet normal 0 0 1
    outer loop
      vertex 6.508435401217759 -2.5768718687927485 0
      vertex 6.50843540121776 2.576871868792746 0
      vertex 6.134146760307045 3.3722757187120074 0
    endloop
  endfacet
  facet normal 0 0 1
    outer loop
      vertex 5.102780391949881 4.7918297415008215 0
      vertex 5.914250001311302 0 0
      vertex 5.663118960624632 4.114496766047312 0
    endloop
  endfacet
  facet normal 0.6845471059286878 0.7289686274214124 0
    outer loop
      vertex 5.102780391949881 4.7918297415008215 -4.5
      vertex 4.461967928240828 5.393592699430524 0
      vertex 5.102780391949881 4.7918297415008215 0
    endloop
  endfacet
  facet normal 0.5877852522924737 0.8090169943749471 0
    outer loop
      vertex 4.461967928240828 5.393592699430524 -4.5
      vertex 3.7507875648529767 5.910295478514105 0
      vertex 4.461967928240828 5.393592699430524 0
    endloop
  endfacet
  facet normal 0.844327925502015 0.5358267949789969 0
    outer loop
      vertex 5.663118960624632 4.114496766047312 -4.5
      vertex 5.663118960624632 4.114496766047312 0
      vertex 6.134146760307045 3.3722757187120074 0
    endloop
  endfacet
  facet normal 0.7705132427757895 0.6374239897486893 0
    outer loop
      vertex 5.102780391949881 4.7918297415008215 -4.5
      vertex 5.102780391949881 4.7918297415008215 0
      vertex 5.663118960624632 4.114496766047312 0
    endloop
  endfacet
  facet normal 0 0 1
    outer loop
      vertex 2.980455040955509 6.333789367262137 0
      vertex 2.957125000655651 5.1218907460570335 0
      vertex 5.914250001311302 0 0
    endloop
  endfacet
  facet normal 0 0 1
    outer loop
      vertex 2.980455040955509 6.333789367262137 0
      vertex 5.914250001311302 0 0
      vertex 3.7507875648529767 5.910295478514105 0
    endloop
  endfacet
  facet normal 0 0 1
    outer loop
      vertex 3.7507875648529767 5.910295478514105 0
      vertex 5.914250001311302 0 0
      vertex 4.461967928240828 5.393592699430524 0
    endloop
  endfacet
endsolid OpenSCAD_Model
