solid OpenSCAD_Model
  facet normal 0.866025 -0.500001 0
    outer loop
      vertex -5.91425 0 0
      vertex -2.95712 5.12189 -5
      vertex -2.95712 5.12189 0
    endloop
  endfacet
  facet normal 0.866025 -0.500001 0
    outer loop
      vertex -2.95712 5.12189 -5
      vertex -5.91425 0 0
      vertex -5.91425 0 -5
    endloop
  endfacet
  facet normal 0 -1 0
    outer loop
      vertex -2.95712 5.12189 -5
      vertex 2.95712 5.12189 0
      vertex -2.95712 5.12189 0
    endloop
  endfacet
  facet normal 0 -1 -0
    outer loop
      vertex 2.95712 5.12189 0
      vertex -2.95712 5.12189 -5
      vertex 2.95712 5.12189 -5
    endloop
  endfacet
  facet normal -0.866025 -0.500001 0
    outer loop
      vertex 5.91425 0 -5
      vertex 2.95712 5.12189 0
      vertex 2.95712 5.12189 -5
    endloop
  endfacet
  facet normal -0.866025 -0.500001 0
    outer loop
      vertex 2.95712 5.12189 0
      vertex 5.91425 0 -5
      vertex 5.91425 0 0
    endloop
  endfacet
  facet normal 0 0 1
    outer loop
      vertex 5.91425 0 0
      vertex 12.5 0 0
      vertex 12.4014 1.56666 0
    endloop
  endfacet
  facet normal 0 0 1
    outer loop
      vertex 5.91425 0 0
      vertex 12.4014 1.56666 0
      vertex 12.1073 3.10862 0
    endloop
  endfacet
  facet normal 0 0 1
    outer loop
      vertex 12.5 0 0
      vertex 5.91425 0 0
      vertex 12.4014 -1.56666 0
    endloop
  endfacet
  facet normal 0 0 1
    outer loop
      vertex 5.91425 0 0
      vertex 12.1073 3.10862 0
      vertex 11.6222 4.60156 0
    endloop
  endfacet
  facet normal 0 0 1
    outer loop
      vertex 12.4014 -1.56666 0
      vertex 5.91425 0 0
      vertex 12.1073 -3.10862 0
    endloop
  endfacet
  facet normal 0 0 1
    outer loop
      vertex 5.91425 0 0
      vertex 11.6222 4.60156 0
      vertex 10.9538 6.02192 0
    endloop
  endfacet
  facet normal 0 0 1
    outer loop
      vertex 12.1073 -3.10862 0
      vertex 5.91425 0 0
      vertex 11.6222 -4.60156 0
    endloop
  endfacet
  facet normal 0 0 1
    outer loop
      vertex 2.95712 5.12189 0
      vertex 10.9538 6.02192 0
      vertex 10.1127 7.34731 0
    endloop
  endfacet
  facet normal 0 0 1
    outer loop
      vertex 11.6222 -4.60156 0
      vertex 5.91425 0 0
      vertex 10.9538 -6.02192 0
    endloop
  endfacet
  facet normal 0 0 1
    outer loop
      vertex 2.95712 5.12189 0
      vertex 10.1127 7.34731 0
      vertex 9.11211 8.55684 0
    endloop
  endfacet
  facet normal -0 0 1
    outer loop
      vertex 2.95712 -5.12189 0
      vertex 10.9538 -6.02192 0
      vertex 5.91425 0 0
    endloop
  endfacet
  facet normal 0 0 1
    outer loop
      vertex 2.95712 5.12189 0
      vertex 9.11211 8.55684 0
      vertex 7.9678 9.63142 0
    endloop
  endfacet
  facet normal 0 0 1
    outer loop
      vertex 10.9538 -6.02192 0
      vertex 2.95712 -5.12189 0
      vertex 10.1127 -7.34731 0
    endloop
  endfacet
  facet normal 0 0 1
    outer loop
      vertex 2.95712 5.12189 0
      vertex 7.9678 9.63142 0
      vertex 6.69783 10.5541 0
    endloop
  endfacet
  facet normal 0 0 1
    outer loop
      vertex 10.1127 -7.34731 0
      vertex 2.95712 -5.12189 0
      vertex 9.11211 -8.55684 0
    endloop
  endfacet
  facet normal 0 0 1
    outer loop
      vertex 9.11211 -8.55684 0
      vertex 2.95712 -5.12189 0
      vertex 7.9678 -9.63142 0
    endloop
  endfacet
  facet normal 0 0 1
    outer loop
      vertex 2.95712 5.12189 0
      vertex 6.69783 10.5541 0
      vertex 5.32224 11.3103 0
    endloop
  endfacet
  facet normal 0 0 1
    outer loop
      vertex 2.95712 5.12189 0
      vertex 5.32224 11.3103 0
      vertex 3.86271 11.8882 0
    endloop
  endfacet
  facet normal 0 0 1
    outer loop
      vertex 10.9538 6.02192 0
      vertex 2.95712 5.12189 0
      vertex 5.91425 0 0
    endloop
  endfacet
  facet normal 0 0 1
    outer loop
      vertex 2.34227 12.2786 0
      vertex 2.95712 5.12189 0
      vertex 3.86271 11.8882 0
    endloop
  endfacet
  facet normal 0 0 1
    outer loop
      vertex 0.784881 12.4753 0
      vertex 2.95712 5.12189 0
      vertex 2.34227 12.2786 0
    endloop
  endfacet
  facet normal -0 0 1
    outer loop
      vertex -0.784881 12.4753 0
      vertex 2.95712 5.12189 0
      vertex 0.784881 12.4753 0
    endloop
  endfacet
  facet normal 0 0 1
    outer loop
      vertex -2.95712 5.12189 0
      vertex -0.784881 12.4753 0
      vertex -2.34227 12.2786 0
    endloop
  endfacet
  facet normal 0 0 1
    outer loop
      vertex -0.784881 12.4753 0
      vertex -2.95712 5.12189 0
      vertex 2.95712 5.12189 0
    endloop
  endfacet
  facet normal -0 0 1
    outer loop
      vertex -3.86271 11.8882 0
      vertex -2.95712 5.12189 0
      vertex -2.34227 12.2786 0
    endloop
  endfacet
  facet normal -0 0 1
    outer loop
      vertex -5.32224 11.3103 0
      vertex -2.95712 5.12189 0
      vertex -3.86271 11.8882 0
    endloop
  endfacet
  facet normal -0 0 1
    outer loop
      vertex -6.69783 10.5541 0
      vertex -2.95712 5.12189 0
      vertex -5.32224 11.3103 0
    endloop
  endfacet
  facet normal -0 0 1
    outer loop
      vertex -7.9678 9.63142 0
      vertex -2.95712 5.12189 0
      vertex -6.69783 10.5541 0
    endloop
  endfacet
  facet normal 0 0 1
    outer loop
      vertex 7.9678 -9.63142 0
      vertex 2.95712 -5.12189 0
      vertex 6.69783 -10.5541 0
    endloop
  endfacet
  facet normal 0 0 1
    outer loop
      vertex 6.69783 -10.5541 0
      vertex 2.95712 -5.12189 0
      vertex 5.32224 -11.3103 0
    endloop
  endfacet
  facet normal 0 0 1
    outer loop
      vertex 5.32224 -11.3103 0
      vertex 2.95712 -5.12189 0
      vertex 3.86271 -11.8882 0
    endloop
  endfacet
  facet normal 0 0 1
    outer loop
      vertex 2.95712 -5.12189 0
      vertex 2.34227 -12.2786 0
      vertex 3.86271 -11.8882 0
    endloop
  endfacet
  facet normal 0 0 1
    outer loop
      vertex 2.95712 -5.12189 0
      vertex 0.784881 -12.4753 0
      vertex 2.34227 -12.2786 0
    endloop
  endfacet
  facet normal 0 0 1
    outer loop
      vertex 2.95712 -5.12189 0
      vertex -0.784881 -12.4753 0
      vertex 0.784881 -12.4753 0
    endloop
  endfacet
  facet normal -0 0 1
    outer loop
      vertex -2.95712 -5.12189 0
      vertex -0.784881 -12.4753 0
      vertex 2.95712 -5.12189 0
    endloop
  endfacet
  facet normal 0 0 1
    outer loop
      vertex -0.784881 -12.4753 0
      vertex -2.95712 -5.12189 0
      vertex -2.34227 -12.2786 0
    endloop
  endfacet
  facet normal 0 0 1
    outer loop
      vertex -2.95712 -5.12189 0
      vertex -3.86271 -11.8882 0
      vertex -2.34227 -12.2786 0
    endloop
  endfacet
  facet normal 0 0 1
    outer loop
      vertex -2.95712 -5.12189 0
      vertex -5.32224 -11.3103 0
      vertex -3.86271 -11.8882 0
    endloop
  endfacet
  facet normal 0 0 1
    outer loop
      vertex -10.9538 -6.02192 0
      vertex -2.95712 -5.12189 0
      vertex -5.91425 0 0
    endloop
  endfacet
  facet normal -0 0 1
    outer loop
      vertex -9.11211 8.55684 0
      vertex -2.95712 5.12189 0
      vertex -7.9678 9.63142 0
    endloop
  endfacet
  facet normal 0 0 1
    outer loop
      vertex -2.95712 -5.12189 0
      vertex -6.69783 -10.5541 0
      vertex -5.32224 -11.3103 0
    endloop
  endfacet
  facet normal -0 0 1
    outer loop
      vertex -10.1127 7.34731 0
      vertex -2.95712 5.12189 0
      vertex -9.11211 8.55684 0
    endloop
  endfacet
  facet normal 0 0 1
    outer loop
      vertex -2.95712 -5.12189 0
      vertex -7.9678 -9.63142 0
      vertex -6.69783 -10.5541 0
    endloop
  endfacet
  facet normal -0 0 1
    outer loop
      vertex -10.9538 6.02192 0
      vertex -2.95712 5.12189 0
      vertex -10.1127 7.34731 0
    endloop
  endfacet
  facet normal 0 0 1
    outer loop
      vertex -2.95712 -5.12189 0
      vertex -9.11211 -8.55684 0
      vertex -7.9678 -9.63142 0
    endloop
  endfacet
  facet normal 0 0 1
    outer loop
      vertex -2.95712 5.12189 0
      vertex -10.9538 6.02192 0
      vertex -5.91425 0 0
    endloop
  endfacet
  facet normal 0 0 1
    outer loop
      vertex -2.95712 -5.12189 0
      vertex -10.1127 -7.34731 0
      vertex -9.11211 -8.55684 0
    endloop
  endfacet
  facet normal -0 0 1
    outer loop
      vertex -11.6222 4.60156 0
      vertex -5.91425 0 0
      vertex -10.9538 6.02192 0
    endloop
  endfacet
  facet normal 0 0 1
    outer loop
      vertex -2.95712 -5.12189 0
      vertex -10.9538 -6.02192 0
      vertex -10.1127 -7.34731 0
    endloop
  endfacet
  facet normal -0 0 1
    outer loop
      vertex -12.1073 3.10862 0
      vertex -5.91425 0 0
      vertex -11.6222 4.60156 0
    endloop
  endfacet
  facet normal 0 0 1
    outer loop
      vertex -5.91425 0 0
      vertex -11.6222 -4.60156 0
      vertex -10.9538 -6.02192 0
    endloop
  endfacet
  facet normal -0 0 1
    outer loop
      vertex -12.4014 1.56666 0
      vertex -5.91425 0 0
      vertex -12.1073 3.10862 0
    endloop
  endfacet
  facet normal 0 0 1
    outer loop
      vertex -5.91425 0 0
      vertex -12.1073 -3.10862 0
      vertex -11.6222 -4.60156 0
    endloop
  endfacet
  facet normal 0 0 1
    outer loop
      vertex -12.5 0 0
      vertex -5.91425 0 0
      vertex -12.4014 1.56666 0
    endloop
  endfacet
  facet normal 0 0 1
    outer loop
      vertex -5.91425 0 0
      vertex -12.4014 -1.56666 0
      vertex -12.1073 -3.10862 0
    endloop
  endfacet
  facet normal 0 0 1
    outer loop
      vertex -5.91425 0 0
      vertex -12.5 0 0
      vertex -12.4014 -1.56666 0
    endloop
  endfacet
  facet normal 0 1 -0
    outer loop
      vertex 2.95712 -5.12189 -5
      vertex -2.95712 -5.12189 0
      vertex 2.95712 -5.12189 0
    endloop
  endfacet
  facet normal 0 1 0
    outer loop
      vertex -2.95712 -5.12189 0
      vertex 2.95712 -5.12189 -5
      vertex -2.95712 -5.12189 -5
    endloop
  endfacet
  facet normal 0 0 1
    outer loop
      vertex 5.91425 0 -5
      vertex 3.22437 0.407332 -5
      vertex 3.25 0 -5
    endloop
  endfacet
  facet normal 0 0 1
    outer loop
      vertex 5.91425 0 -5
      vertex 3.14789 0.808242 -5
      vertex 3.22437 0.407332 -5
    endloop
  endfacet
  facet normal 0 0 1
    outer loop
      vertex 5.91425 0 -5
      vertex 3.02177 1.1964 -5
      vertex 3.14789 0.808242 -5
    endloop
  endfacet
  facet normal -0 0 1
    outer loop
      vertex 2.848 1.5657 -5
      vertex 5.91425 0 -5
      vertex 2.95712 5.12189 -5
    endloop
  endfacet
  facet normal 0 0 1
    outer loop
      vertex 5.91425 0 -5
      vertex 2.848 1.5657 -5
      vertex 3.02177 1.1964 -5
    endloop
  endfacet
  facet normal 0 0 1
    outer loop
      vertex 2.95712 5.12189 -5
      vertex 2.6293 1.9103 -5
      vertex 2.848 1.5657 -5
    endloop
  endfacet
  facet normal 0 0 1
    outer loop
      vertex 2.95712 5.12189 -5
      vertex 2.36915 2.22478 -5
      vertex 2.6293 1.9103 -5
    endloop
  endfacet
  facet normal 0 0 1
    outer loop
      vertex 2.95712 5.12189 -5
      vertex 2.07163 2.50417 -5
      vertex 2.36915 2.22478 -5
    endloop
  endfacet
  facet normal 0 0 1
    outer loop
      vertex 2.95712 5.12189 -5
      vertex 1.74144 2.74407 -5
      vertex 2.07163 2.50417 -5
    endloop
  endfacet
  facet normal 0 0 1
    outer loop
      vertex 2.95712 5.12189 -5
      vertex 1.38378 2.94069 -5
      vertex 1.74144 2.74407 -5
    endloop
  endfacet
  facet normal 0 0 1
    outer loop
      vertex 2.95712 5.12189 -5
      vertex 1.0043 3.09093 -5
      vertex 1.38378 2.94069 -5
    endloop
  endfacet
  facet normal 0 0 1
    outer loop
      vertex 2.95712 5.12189 -5
      vertex 0.608989 3.19243 -5
      vertex 1.0043 3.09093 -5
    endloop
  endfacet
  facet normal 0 0 1
    outer loop
      vertex 2.95712 5.12189 -5
      vertex 0.204069 3.24359 -5
      vertex 0.608989 3.19243 -5
    endloop
  endfacet
  facet normal 0 0 1
    outer loop
      vertex 2.95712 5.12189 -5
      vertex -0.204069 3.24359 -5
      vertex 0.204069 3.24359 -5
    endloop
  endfacet
  facet normal -0 0 1
    outer loop
      vertex -2.95712 5.12189 -5
      vertex -0.204069 3.24359 -5
      vertex 2.95712 5.12189 -5
    endloop
  endfacet
  facet normal 0 0 1
    outer loop
      vertex -0.204069 3.24359 -5
      vertex -2.95712 5.12189 -5
      vertex -0.608989 3.19243 -5
    endloop
  endfacet
  facet normal 0 0 1
    outer loop
      vertex -0.608989 3.19243 -5
      vertex -2.95712 5.12189 -5
      vertex -1.0043 3.09093 -5
    endloop
  endfacet
  facet normal 0 0 1
    outer loop
      vertex -1.0043 3.09093 -5
      vertex -2.95712 5.12189 -5
      vertex -1.38378 2.94069 -5
    endloop
  endfacet
  facet normal 0 0 1
    outer loop
      vertex -2.95712 5.12189 -5
      vertex -1.74144 2.74407 -5
      vertex -1.38378 2.94069 -5
    endloop
  endfacet
  facet normal 0 0 1
    outer loop
      vertex -2.95712 5.12189 -5
      vertex -2.07163 2.50417 -5
      vertex -1.74144 2.74407 -5
    endloop
  endfacet
  facet normal 0 0 1
    outer loop
      vertex -2.95712 5.12189 -5
      vertex -2.36915 2.22478 -5
      vertex -2.07163 2.50417 -5
    endloop
  endfacet
  facet normal 0 0 1
    outer loop
      vertex -2.95712 5.12189 -5
      vertex -2.6293 1.9103 -5
      vertex -2.36915 2.22478 -5
    endloop
  endfacet
  facet normal 0 0 1
    outer loop
      vertex -2.95712 5.12189 -5
      vertex -2.848 1.5657 -5
      vertex -2.6293 1.9103 -5
    endloop
  endfacet
  facet normal 0 0 1
    outer loop
      vertex -5.91425 0 -5
      vertex -2.848 1.5657 -5
      vertex -2.95712 5.12189 -5
    endloop
  endfacet
  facet normal 0 0 1
    outer loop
      vertex -2.848 1.5657 -5
      vertex -5.91425 0 -5
      vertex -3.02177 1.1964 -5
    endloop
  endfacet
  facet normal 0 0 1
    outer loop
      vertex -3.02177 1.1964 -5
      vertex -5.91425 0 -5
      vertex -3.14789 0.808242 -5
    endloop
  endfacet
  facet normal 0 0 1
    outer loop
      vertex -3.14789 0.808242 -5
      vertex -5.91425 0 -5
      vertex -3.22437 0.407332 -5
    endloop
  endfacet
  facet normal 0 0 1
    outer loop
      vertex -3.22437 0.407332 -5
      vertex -5.91425 0 -5
      vertex -3.25 0 -5
    endloop
  endfacet
  facet normal 0 0 1
    outer loop
      vertex 3.22437 -0.407332 -5
      vertex 5.91425 0 -5
      vertex 3.25 0 -5
    endloop
  endfacet
  facet normal 0 0 1
    outer loop
      vertex 3.14789 -0.808242 -5
      vertex 5.91425 0 -5
      vertex 3.22437 -0.407332 -5
    endloop
  endfacet
  facet normal 0 0 1
    outer loop
      vertex 3.02177 -1.1964 -5
      vertex 5.91425 0 -5
      vertex 3.14789 -0.808242 -5
    endloop
  endfacet
  facet normal 0 0 1
    outer loop
      vertex 2.848 -1.5657 -5
      vertex 5.91425 0 -5
      vertex 3.02177 -1.1964 -5
    endloop
  endfacet
  facet normal 0 0 1
    outer loop
      vertex 5.91425 0 -5
      vertex 2.848 -1.5657 -5
      vertex 2.95712 -5.12189 -5
    endloop
  endfacet
  facet normal -0 0 1
    outer loop
      vertex 2.6293 -1.9103 -5
      vertex 2.95712 -5.12189 -5
      vertex 2.848 -1.5657 -5
    endloop
  endfacet
  facet normal -0 0 1
    outer loop
      vertex 2.36915 -2.22478 -5
      vertex 2.95712 -5.12189 -5
      vertex 2.6293 -1.9103 -5
    endloop
  endfacet
  facet normal -0 0 1
    outer loop
      vertex 2.07163 -2.50417 -5
      vertex 2.95712 -5.12189 -5
      vertex 2.36915 -2.22478 -5
    endloop
  endfacet
  facet normal -0 0 1
    outer loop
      vertex 1.74144 -2.74407 -5
      vertex 2.95712 -5.12189 -5
      vertex 2.07163 -2.50417 -5
    endloop
  endfacet
  facet normal -0 0 1
    outer loop
      vertex 1.38378 -2.94069 -5
      vertex 2.95712 -5.12189 -5
      vertex 1.74144 -2.74407 -5
    endloop
  endfacet
  facet normal -0 0 1
    outer loop
      vertex 1.0043 -3.09093 -5
      vertex 2.95712 -5.12189 -5
      vertex 1.38378 -2.94069 -5
    endloop
  endfacet
  facet normal -0 0 1
    outer loop
      vertex 0.608989 -3.19243 -5
      vertex 2.95712 -5.12189 -5
      vertex 1.0043 -3.09093 -5
    endloop
  endfacet
  facet normal -0 0 1
    outer loop
      vertex 0.204069 -3.24359 -5
      vertex 2.95712 -5.12189 -5
      vertex 0.608989 -3.19243 -5
    endloop
  endfacet
  facet normal -0 0 1
    outer loop
      vertex -0.204069 -3.24359 -5
      vertex 2.95712 -5.12189 -5
      vertex 0.204069 -3.24359 -5
    endloop
  endfacet
  facet normal 0 0 1
    outer loop
      vertex -2.95712 -5.12189 -5
      vertex -0.204069 -3.24359 -5
      vertex -0.608989 -3.19243 -5
    endloop
  endfacet
  facet normal 0 0 1
    outer loop
      vertex -2.95712 -5.12189 -5
      vertex -0.608989 -3.19243 -5
      vertex -1.0043 -3.09093 -5
    endloop
  endfacet
  facet normal 0 0 1
    outer loop
      vertex -2.95712 -5.12189 -5
      vertex -1.0043 -3.09093 -5
      vertex -1.38378 -2.94069 -5
    endloop
  endfacet
  facet normal 0 0 1
    outer loop
      vertex -0.204069 -3.24359 -5
      vertex -2.95712 -5.12189 -5
      vertex 2.95712 -5.12189 -5
    endloop
  endfacet
  facet normal 0 0 1
    outer loop
      vertex -1.74144 -2.74407 -5
      vertex -2.95712 -5.12189 -5
      vertex -1.38378 -2.94069 -5
    endloop
  endfacet
  facet normal 0 0 1
    outer loop
      vertex -2.07163 -2.50417 -5
      vertex -2.95712 -5.12189 -5
      vertex -1.74144 -2.74407 -5
    endloop
  endfacet
  facet normal 0 0 1
    outer loop
      vertex -2.36915 -2.22478 -5
      vertex -2.95712 -5.12189 -5
      vertex -2.07163 -2.50417 -5
    endloop
  endfacet
  facet normal 0 0 1
    outer loop
      vertex -2.6293 -1.9103 -5
      vertex -2.95712 -5.12189 -5
      vertex -2.36915 -2.22478 -5
    endloop
  endfacet
  facet normal 0 0 1
    outer loop
      vertex -2.848 -1.5657 -5
      vertex -2.95712 -5.12189 -5
      vertex -2.6293 -1.9103 -5
    endloop
  endfacet
  facet normal 0 0 1
    outer loop
      vertex -5.91425 0 -5
      vertex -2.848 -1.5657 -5
      vertex -3.02177 -1.1964 -5
    endloop
  endfacet
  facet normal 0 0 1
    outer loop
      vertex -5.91425 0 -5
      vertex -3.02177 -1.1964 -5
      vertex -3.14789 -0.808242 -5
    endloop
  endfacet
  facet normal 0 0 1
    outer loop
      vertex -5.91425 0 -5
      vertex -3.14789 -0.808242 -5
      vertex -3.22437 -0.407332 -5
    endloop
  endfacet
  facet normal -0 0 1
    outer loop
      vertex -5.91425 0 -5
      vertex -3.22437 -0.407332 -5
      vertex -3.25 0 -5
    endloop
  endfacet
  facet normal 0 0 1
    outer loop
      vertex -2.848 -1.5657 -5
      vertex -5.91425 0 -5
      vertex -2.95712 -5.12189 -5
    endloop
  endfacet
  facet normal -0.866025 0.500001 0
    outer loop
      vertex 2.95712 -5.12189 -5
      vertex 5.91425 0 0
      vertex 5.91425 0 -5
    endloop
  endfacet
  facet normal -0.866025 0.500001 0
    outer loop
      vertex 5.91425 0 0
      vertex 2.95712 -5.12189 -5
      vertex 2.95712 -5.12189 0
    endloop
  endfacet
  facet normal 0.866025 0.500001 0
    outer loop
      vertex -2.95712 -5.12189 0
      vertex -5.91425 0 -5
      vertex -5.91425 0 0
    endloop
  endfacet
  facet normal 0.866025 0.500001 0
    outer loop
      vertex -5.91425 0 -5
      vertex -2.95712 -5.12189 0
      vertex -2.95712 -5.12189 -5
    endloop
  endfacet
  facet normal -0.998026 -0.0627975 0
    outer loop
      vertex 3.25 0 -22.5
      vertex 3.22437 0.407332 -5
      vertex 3.22437 0.407332 -22.5
    endloop
  endfacet
  facet normal -0.998026 -0.0627975 0
    outer loop
      vertex 3.22437 0.407332 -5
      vertex 3.25 0 -22.5
      vertex 3.25 0 -5
    endloop
  endfacet
  facet normal 0.998026 -0.0627975 0
    outer loop
      vertex -3.25 0 -5
      vertex -3.22437 0.407332 -22.5
      vertex -3.22437 0.407332 -5
    endloop
  endfacet
  facet normal 0.998026 -0.0627975 0
    outer loop
      vertex -3.22437 0.407332 -22.5
      vertex -3.25 0 -5
      vertex -3.25 0 -22.5
    endloop
  endfacet
  facet normal 0 -1 0
    outer loop
      vertex -0.204069 3.24359 -22.5
      vertex 0.204069 3.24359 -5
      vertex -0.204069 3.24359 -5
    endloop
  endfacet
  facet normal 0 -1 -0
    outer loop
      vertex 0.204069 3.24359 -5
      vertex -0.204069 3.24359 -22.5
      vertex 0.204069 3.24359 -22.5
    endloop
  endfacet
  facet normal 0 1 -0
    outer loop
      vertex 0.204069 -3.24359 -22.5
      vertex -0.204069 -3.24359 -5
      vertex 0.204069 -3.24359 -5
    endloop
  endfacet
  facet normal 0 1 0
    outer loop
      vertex -0.204069 -3.24359 -5
      vertex 0.204069 -3.24359 -22.5
      vertex -0.204069 -3.24359 -22.5
    endloop
  endfacet
  facet normal -0.770526 0.637409 0
    outer loop
      vertex 2.36915 -2.22478 -22.5
      vertex 2.6293 -1.9103 -5
      vertex 2.6293 -1.9103 -22.5
    endloop
  endfacet
  facet normal -0.770526 0.637409 0
    outer loop
      vertex 2.6293 -1.9103 -5
      vertex 2.36915 -2.22478 -22.5
      vertex 2.36915 -2.22478 -5
    endloop
  endfacet
  facet normal -0.684547 -0.728968 0
    outer loop
      vertex 2.07163 2.50417 -22.5
      vertex 2.36915 2.22478 -5
      vertex 2.07163 2.50417 -5
    endloop
  endfacet
  facet normal -0.684547 -0.728968 -0
    outer loop
      vertex 2.36915 2.22478 -5
      vertex 2.07163 2.50417 -22.5
      vertex 2.36915 2.22478 -22.5
    endloop
  endfacet
  facet normal 0.684547 -0.728968 0
    outer loop
      vertex -2.36915 2.22478 -22.5
      vertex -2.07163 2.50417 -5
      vertex -2.36915 2.22478 -5
    endloop
  endfacet
  facet normal 0.684547 -0.728968 0
    outer loop
      vertex -2.07163 2.50417 -5
      vertex -2.36915 2.22478 -22.5
      vertex -2.07163 2.50417 -22.5
    endloop
  endfacet
  facet normal 0.36811 -0.929782 0
    outer loop
      vertex -1.38378 2.94069 -22.5
      vertex -1.0043 3.09093 -5
      vertex -1.38378 2.94069 -5
    endloop
  endfacet
  facet normal 0.36811 -0.929782 0
    outer loop
      vertex -1.0043 3.09093 -5
      vertex -1.38378 2.94069 -22.5
      vertex -1.0043 3.09093 -22.5
    endloop
  endfacet
  facet normal -0.904836 -0.42576 0
    outer loop
      vertex 3.02177 1.1964 -22.5
      vertex 2.848 1.5657 -5
      vertex 2.848 1.5657 -22.5
    endloop
  endfacet
  facet normal -0.904836 -0.42576 0
    outer loop
      vertex 2.848 1.5657 -5
      vertex 3.02177 1.1964 -22.5
      vertex 3.02177 1.1964 -5
    endloop
  endfacet
  facet normal -0.844317 -0.535845 0
    outer loop
      vertex 2.848 1.5657 -22.5
      vertex 2.6293 1.9103 -5
      vertex 2.6293 1.9103 -22.5
    endloop
  endfacet
  facet normal -0.844317 -0.535845 0
    outer loop
      vertex 2.6293 1.9103 -5
      vertex 2.848 1.5657 -22.5
      vertex 2.848 1.5657 -5
    endloop
  endfacet
  facet normal -0.36811 -0.929782 0
    outer loop
      vertex 1.0043 3.09093 -22.5
      vertex 1.38378 2.94069 -5
      vertex 1.0043 3.09093 -5
    endloop
  endfacet
  facet normal -0.36811 -0.929782 -0
    outer loop
      vertex 1.38378 2.94069 -5
      vertex 1.0043 3.09093 -22.5
      vertex 1.38378 2.94069 -22.5
    endloop
  endfacet
  facet normal -0.248693 -0.968582 0
    outer loop
      vertex 0.608989 3.19243 -22.5
      vertex 1.0043 3.09093 -5
      vertex 0.608989 3.19243 -5
    endloop
  endfacet
  facet normal -0.248693 -0.968582 -0
    outer loop
      vertex 1.0043 3.09093 -5
      vertex 0.608989 3.19243 -22.5
      vertex 1.0043 3.09093 -22.5
    endloop
  endfacet
  facet normal -0.58779 -0.809014 0
    outer loop
      vertex 1.74144 2.74407 -22.5
      vertex 2.07163 2.50417 -5
      vertex 1.74144 2.74407 -5
    endloop
  endfacet
  facet normal -0.58779 -0.809014 -0
    outer loop
      vertex 2.07163 2.50417 -5
      vertex 1.74144 2.74407 -22.5
      vertex 2.07163 2.50417 -22.5
    endloop
  endfacet
  facet normal 0.904836 -0.42576 0
    outer loop
      vertex -3.02177 1.1964 -5
      vertex -2.848 1.5657 -22.5
      vertex -2.848 1.5657 -5
    endloop
  endfacet
  facet normal 0.904836 -0.42576 0
    outer loop
      vertex -2.848 1.5657 -22.5
      vertex -3.02177 1.1964 -5
      vertex -3.02177 1.1964 -22.5
    endloop
  endfacet
  facet normal 0.770526 -0.637409 0
    outer loop
      vertex -2.6293 1.9103 -5
      vertex -2.36915 2.22478 -22.5
      vertex -2.36915 2.22478 -5
    endloop
  endfacet
  facet normal 0.770526 -0.637409 0
    outer loop
      vertex -2.36915 2.22478 -22.5
      vertex -2.6293 1.9103 -5
      vertex -2.6293 1.9103 -22.5
    endloop
  endfacet
  facet normal 0.951057 -0.309017 0
    outer loop
      vertex -3.14789 0.808242 -5
      vertex -3.02177 1.1964 -22.5
      vertex -3.02177 1.1964 -5
    endloop
  endfacet
  facet normal 0.951057 -0.309017 0
    outer loop
      vertex -3.02177 1.1964 -22.5
      vertex -3.14789 0.808242 -5
      vertex -3.14789 0.808242 -22.5
    endloop
  endfacet
  facet normal 0.481744 -0.876312 0
    outer loop
      vertex -1.74144 2.74407 -22.5
      vertex -1.38378 2.94069 -5
      vertex -1.74144 2.74407 -5
    endloop
  endfacet
  facet normal 0.481744 -0.876312 0
    outer loop
      vertex -1.38378 2.94069 -5
      vertex -1.74144 2.74407 -22.5
      vertex -1.38378 2.94069 -22.5
    endloop
  endfacet
  facet normal 0.125349 -0.992113 0
    outer loop
      vertex -0.608989 3.19243 -22.5
      vertex -0.204069 3.24359 -5
      vertex -0.608989 3.19243 -5
    endloop
  endfacet
  facet normal 0.125349 -0.992113 0
    outer loop
      vertex -0.204069 3.24359 -5
      vertex -0.608989 3.19243 -22.5
      vertex -0.204069 3.24359 -22.5
    endloop
  endfacet
  facet normal -0.125349 0.992113 0
    outer loop
      vertex 0.608989 -3.19243 -22.5
      vertex 0.204069 -3.24359 -5
      vertex 0.608989 -3.19243 -5
    endloop
  endfacet
  facet normal -0.125349 0.992113 0
    outer loop
      vertex 0.204069 -3.24359 -5
      vertex 0.608989 -3.19243 -22.5
      vertex 0.204069 -3.24359 -22.5
    endloop
  endfacet
  facet normal -0.481744 0.876312 0
    outer loop
      vertex 1.74144 -2.74407 -22.5
      vertex 1.38378 -2.94069 -5
      vertex 1.74144 -2.74407 -5
    endloop
  endfacet
  facet normal -0.481744 0.876312 0
    outer loop
      vertex 1.38378 -2.94069 -5
      vertex 1.74144 -2.74407 -22.5
      vertex 1.38378 -2.94069 -22.5
    endloop
  endfacet
  facet normal -0.951057 -0.309017 0
    outer loop
      vertex 3.14789 0.808242 -22.5
      vertex 3.02177 1.1964 -5
      vertex 3.02177 1.1964 -22.5
    endloop
  endfacet
  facet normal -0.951057 -0.309017 0
    outer loop
      vertex 3.02177 1.1964 -5
      vertex 3.14789 0.808242 -22.5
      vertex 3.14789 0.808242 -5
    endloop
  endfacet
  facet normal -0.982286 -0.187387 0
    outer loop
      vertex 3.22437 0.407332 -22.5
      vertex 3.14789 0.808242 -5
      vertex 3.14789 0.808242 -22.5
    endloop
  endfacet
  facet normal -0.982286 -0.187387 0
    outer loop
      vertex 3.14789 0.808242 -5
      vertex 3.22437 0.407332 -22.5
      vertex 3.22437 0.407332 -5
    endloop
  endfacet
  facet normal -0.770526 -0.637409 0
    outer loop
      vertex 2.6293 1.9103 -22.5
      vertex 2.36915 2.22478 -5
      vertex 2.36915 2.22478 -22.5
    endloop
  endfacet
  facet normal -0.770526 -0.637409 0
    outer loop
      vertex 2.36915 2.22478 -5
      vertex 2.6293 1.9103 -22.5
      vertex 2.6293 1.9103 -5
    endloop
  endfacet
  facet normal -0.125349 -0.992113 0
    outer loop
      vertex 0.204069 3.24359 -22.5
      vertex 0.608989 3.19243 -5
      vertex 0.204069 3.24359 -5
    endloop
  endfacet
  facet normal -0.125349 -0.992113 -0
    outer loop
      vertex 0.608989 3.19243 -5
      vertex 0.204069 3.24359 -22.5
      vertex 0.608989 3.19243 -22.5
    endloop
  endfacet
  facet normal -0.481744 -0.876312 0
    outer loop
      vertex 1.38378 2.94069 -22.5
      vertex 1.74144 2.74407 -5
      vertex 1.38378 2.94069 -5
    endloop
  endfacet
  facet normal -0.481744 -0.876312 -0
    outer loop
      vertex 1.74144 2.74407 -5
      vertex 1.38378 2.94069 -22.5
      vertex 1.74144 2.74407 -22.5
    endloop
  endfacet
  facet normal 0.844317 -0.535845 0
    outer loop
      vertex -2.848 1.5657 -5
      vertex -2.6293 1.9103 -22.5
      vertex -2.6293 1.9103 -5
    endloop
  endfacet
  facet normal 0.844317 -0.535845 0
    outer loop
      vertex -2.6293 1.9103 -22.5
      vertex -2.848 1.5657 -5
      vertex -2.848 1.5657 -22.5
    endloop
  endfacet
  facet normal 0.982286 -0.187387 0
    outer loop
      vertex -3.22437 0.407332 -5
      vertex -3.14789 0.808242 -22.5
      vertex -3.14789 0.808242 -5
    endloop
  endfacet
  facet normal 0.982286 -0.187387 0
    outer loop
      vertex -3.14789 0.808242 -22.5
      vertex -3.22437 0.407332 -5
      vertex -3.22437 0.407332 -22.5
    endloop
  endfacet
  facet normal 0.58779 -0.809014 0
    outer loop
      vertex -2.07163 2.50417 -22.5
      vertex -1.74144 2.74407 -5
      vertex -2.07163 2.50417 -5
    endloop
  endfacet
  facet normal 0.58779 -0.809014 0
    outer loop
      vertex -1.74144 2.74407 -5
      vertex -2.07163 2.50417 -22.5
      vertex -1.74144 2.74407 -22.5
    endloop
  endfacet
  facet normal 0.248693 -0.968582 0
    outer loop
      vertex -1.0043 3.09093 -22.5
      vertex -0.608989 3.19243 -5
      vertex -1.0043 3.09093 -5
    endloop
  endfacet
  facet normal 0.248693 -0.968582 0
    outer loop
      vertex -0.608989 3.19243 -5
      vertex -1.0043 3.09093 -22.5
      vertex -0.608989 3.19243 -22.5
    endloop
  endfacet
  facet normal -0.998026 0.0627975 0
    outer loop
      vertex 3.22437 -0.407332 -22.5
      vertex 3.25 0 -5
      vertex 3.25 0 -22.5
    endloop
  endfacet
  facet normal -0.998026 0.0627975 0
    outer loop
      vertex 3.25 0 -5
      vertex 3.22437 -0.407332 -22.5
      vertex 3.22437 -0.407332 -5
    endloop
  endfacet
  facet normal -0.951057 0.309017 0
    outer loop
      vertex 3.02177 -1.1964 -22.5
      vertex 3.14789 -0.808242 -5
      vertex 3.14789 -0.808242 -22.5
    endloop
  endfacet
  facet normal -0.951057 0.309017 0
    outer loop
      vertex 3.14789 -0.808242 -5
      vertex 3.02177 -1.1964 -22.5
      vertex 3.02177 -1.1964 -5
    endloop
  endfacet
  facet normal -0.982286 0.187387 0
    outer loop
      vertex 3.14789 -0.808242 -22.5
      vertex 3.22437 -0.407332 -5
      vertex 3.22437 -0.407332 -22.5
    endloop
  endfacet
  facet normal -0.982286 0.187387 0
    outer loop
      vertex 3.22437 -0.407332 -5
      vertex 3.14789 -0.808242 -22.5
      vertex 3.14789 -0.808242 -5
    endloop
  endfacet
  facet normal 0.904836 0.42576 0
    outer loop
      vertex -2.848 -1.5657 -5
      vertex -3.02177 -1.1964 -22.5
      vertex -3.02177 -1.1964 -5
    endloop
  endfacet
  facet normal 0.904836 0.42576 0
    outer loop
      vertex -3.02177 -1.1964 -22.5
      vertex -2.848 -1.5657 -5
      vertex -2.848 -1.5657 -22.5
    endloop
  endfacet
  facet normal -0.58779 0.809014 0
    outer loop
      vertex 2.07163 -2.50417 -22.5
      vertex 1.74144 -2.74407 -5
      vertex 2.07163 -2.50417 -5
    endloop
  endfacet
  facet normal -0.58779 0.809014 0
    outer loop
      vertex 1.74144 -2.74407 -5
      vertex 2.07163 -2.50417 -22.5
      vertex 1.74144 -2.74407 -22.5
    endloop
  endfacet
  facet normal 0.951057 0.309017 0
    outer loop
      vertex -3.02177 -1.1964 -5
      vertex -3.14789 -0.808242 -22.5
      vertex -3.14789 -0.808242 -5
    endloop
  endfacet
  facet normal 0.951057 0.309017 0
    outer loop
      vertex -3.14789 -0.808242 -22.5
      vertex -3.02177 -1.1964 -5
      vertex -3.02177 -1.1964 -22.5
    endloop
  endfacet
  facet normal -0.684547 0.728968 0
    outer loop
      vertex 2.36915 -2.22478 -22.5
      vertex 2.07163 -2.50417 -5
      vertex 2.36915 -2.22478 -5
    endloop
  endfacet
  facet normal -0.684547 0.728968 0
    outer loop
      vertex 2.07163 -2.50417 -5
      vertex 2.36915 -2.22478 -22.5
      vertex 2.07163 -2.50417 -22.5
    endloop
  endfacet
  facet normal -0.248693 0.968582 0
    outer loop
      vertex 1.0043 -3.09093 -22.5
      vertex 0.608989 -3.19243 -5
      vertex 1.0043 -3.09093 -5
    endloop
  endfacet
  facet normal -0.248693 0.968582 0
    outer loop
      vertex 0.608989 -3.19243 -5
      vertex 1.0043 -3.09093 -22.5
      vertex 0.608989 -3.19243 -22.5
    endloop
  endfacet
  facet normal -0.36811 0.929782 0
    outer loop
      vertex 1.38378 -2.94069 -22.5
      vertex 1.0043 -3.09093 -5
      vertex 1.38378 -2.94069 -5
    endloop
  endfacet
  facet normal -0.36811 0.929782 0
    outer loop
      vertex 1.0043 -3.09093 -5
      vertex 1.38378 -2.94069 -22.5
      vertex 1.0043 -3.09093 -22.5
    endloop
  endfacet
  facet normal -0.904836 0.42576 0
    outer loop
      vertex 2.848 -1.5657 -22.5
      vertex 3.02177 -1.1964 -5
      vertex 3.02177 -1.1964 -22.5
    endloop
  endfacet
  facet normal -0.904836 0.42576 0
    outer loop
      vertex 3.02177 -1.1964 -5
      vertex 2.848 -1.5657 -22.5
      vertex 2.848 -1.5657 -5
    endloop
  endfacet
  facet normal -0.844317 0.535845 0
    outer loop
      vertex 2.6293 -1.9103 -22.5
      vertex 2.848 -1.5657 -5
      vertex 2.848 -1.5657 -22.5
    endloop
  endfacet
  facet normal -0.844317 0.535845 0
    outer loop
      vertex 2.848 -1.5657 -5
      vertex 2.6293 -1.9103 -22.5
      vertex 2.6293 -1.9103 -5
    endloop
  endfacet
  facet normal 0.36811 0.929782 -0
    outer loop
      vertex -1.0043 -3.09093 -22.5
      vertex -1.38378 -2.94069 -5
      vertex -1.0043 -3.09093 -5
    endloop
  endfacet
  facet normal 0.36811 0.929782 0
    outer loop
      vertex -1.38378 -2.94069 -5
      vertex -1.0043 -3.09093 -22.5
      vertex -1.38378 -2.94069 -22.5
    endloop
  endfacet
  facet normal 0.248693 0.968582 -0
    outer loop
      vertex -0.608989 -3.19243 -22.5
      vertex -1.0043 -3.09093 -5
      vertex -0.608989 -3.19243 -5
    endloop
  endfacet
  facet normal 0.248693 0.968582 0
    outer loop
      vertex -1.0043 -3.09093 -5
      vertex -0.608989 -3.19243 -22.5
      vertex -1.0043 -3.09093 -22.5
    endloop
  endfacet
  facet normal 0.770526 0.637409 0
    outer loop
      vertex -2.36915 -2.22478 -5
      vertex -2.6293 -1.9103 -22.5
      vertex -2.6293 -1.9103 -5
    endloop
  endfacet
  facet normal 0.770526 0.637409 0
    outer loop
      vertex -2.6293 -1.9103 -22.5
      vertex -2.36915 -2.22478 -5
      vertex -2.36915 -2.22478 -22.5
    endloop
  endfacet
  facet normal 0.684547 0.728968 -0
    outer loop
      vertex -2.07163 -2.50417 -22.5
      vertex -2.36915 -2.22478 -5
      vertex -2.07163 -2.50417 -5
    endloop
  endfacet
  facet normal 0.684547 0.728968 0
    outer loop
      vertex -2.36915 -2.22478 -5
      vertex -2.07163 -2.50417 -22.5
      vertex -2.36915 -2.22478 -22.5
    endloop
  endfacet
  facet normal 0.982286 0.187387 0
    outer loop
      vertex -3.14789 -0.808242 -5
      vertex -3.22437 -0.407332 -22.5
      vertex -3.22437 -0.407332 -5
    endloop
  endfacet
  facet normal 0.982286 0.187387 0
    outer loop
      vertex -3.22437 -0.407332 -22.5
      vertex -3.14789 -0.808242 -5
      vertex -3.14789 -0.808242 -22.5
    endloop
  endfacet
  facet normal 0.998026 0.0627975 0
    outer loop
      vertex -3.22437 -0.407332 -5
      vertex -3.25 0 -22.5
      vertex -3.25 0 -5
    endloop
  endfacet
  facet normal 0.998026 0.0627975 0
    outer loop
      vertex -3.25 0 -22.5
      vertex -3.22437 -0.407332 -5
      vertex -3.22437 -0.407332 -22.5
    endloop
  endfacet
  facet normal 0.481744 0.876312 -0
    outer loop
      vertex -1.38378 -2.94069 -22.5
      vertex -1.74144 -2.74407 -5
      vertex -1.38378 -2.94069 -5
    endloop
  endfacet
  facet normal 0.481744 0.876312 0
    outer loop
      vertex -1.74144 -2.74407 -5
      vertex -1.38378 -2.94069 -22.5
      vertex -1.74144 -2.74407 -22.5
    endloop
  endfacet
  facet normal 0.58779 0.809014 -0
    outer loop
      vertex -1.74144 -2.74407 -22.5
      vertex -2.07163 -2.50417 -5
      vertex -1.74144 -2.74407 -5
    endloop
  endfacet
  facet normal 0.58779 0.809014 0
    outer loop
      vertex -2.07163 -2.50417 -5
      vertex -1.74144 -2.74407 -22.5
      vertex -2.07163 -2.50417 -22.5
    endloop
  endfacet
  facet normal 0.125349 0.992113 -0
    outer loop
      vertex -0.204069 -3.24359 -22.5
      vertex -0.608989 -3.19243 -5
      vertex -0.204069 -3.24359 -5
    endloop
  endfacet
  facet normal 0.125349 0.992113 0
    outer loop
      vertex -0.608989 -3.19243 -5
      vertex -0.204069 -3.24359 -22.5
      vertex -0.608989 -3.19243 -22.5
    endloop
  endfacet
  facet normal 0.844317 0.535845 0
    outer loop
      vertex -2.6293 -1.9103 -5
      vertex -2.848 -1.5657 -22.5
      vertex -2.848 -1.5657 -5
    endloop
  endfacet
  facet normal 0.844317 0.535845 0
    outer loop
      vertex -2.848 -1.5657 -22.5
      vertex -2.6293 -1.9103 -5
      vertex -2.6293 -1.9103 -22.5
    endloop
  endfacet
  facet normal -0.951054 0.309025 0
    outer loop
      vertex -12.1073 3.10862 -22.5
      vertex -11.6222 4.60156 0
      vertex -11.6222 4.60156 -22.5
    endloop
  endfacet
  facet normal -0.951054 0.309025 0
    outer loop
      vertex -11.6222 4.60156 0
      vertex -12.1073 3.10862 -22.5
      vertex -12.1073 3.10862 0
    endloop
  endfacet
  facet normal 0.844333 0.535819 0
    outer loop
      vertex 10.9538 6.02192 0
      vertex 10.1127 7.34731 -22.5
      vertex 10.1127 7.34731 0
    endloop
  endfacet
  facet normal 0.844333 0.535819 0
    outer loop
      vertex 10.1127 7.34731 -22.5
      vertex 10.9538 6.02192 0
      vertex 10.9538 6.02192 -22.5
    endloop
  endfacet
  facet normal 0.2487 0.96858 -0
    outer loop
      vertex 3.86271 11.8882 -22.5
      vertex 2.34227 12.2786 0
      vertex 3.86271 11.8882 0
    endloop
  endfacet
  facet normal 0.2487 0.96858 0
    outer loop
      vertex 2.34227 12.2786 0
      vertex 3.86271 11.8882 -22.5
      vertex 2.34227 12.2786 -22.5
    endloop
  endfacet
  facet normal 0.368142 0.92977 -0
    outer loop
      vertex 5.32224 11.3103 -22.5
      vertex 3.86271 11.8882 0
      vertex 5.32224 11.3103 0
    endloop
  endfacet
  facet normal 0.368142 0.92977 0
    outer loop
      vertex 3.86271 11.8882 0
      vertex 5.32224 11.3103 -22.5
      vertex 3.86271 11.8882 -22.5
    endloop
  endfacet
  facet normal -0.368142 0.92977 0
    outer loop
      vertex -3.86271 11.8882 -22.5
      vertex -5.32224 11.3103 0
      vertex -3.86271 11.8882 0
    endloop
  endfacet
  facet normal -0.368142 0.92977 0
    outer loop
      vertex -5.32224 11.3103 0
      vertex -3.86271 11.8882 -22.5
      vertex -5.32224 11.3103 -22.5
    endloop
  endfacet
  facet normal -0.90482 0.425795 0
    outer loop
      vertex -11.6222 4.60156 -22.5
      vertex -10.9538 6.02192 0
      vertex -10.9538 6.02192 -22.5
    endloop
  endfacet
  facet normal -0.90482 0.425795 0
    outer loop
      vertex -10.9538 6.02192 0
      vertex -11.6222 4.60156 -22.5
      vertex -11.6222 4.60156 0
    endloop
  endfacet
  facet normal 0.998025 -0.0628122 0
    outer loop
      vertex 12.4014 -1.56666 0
      vertex 12.5 0 -22.5
      vertex 12.5 0 0
    endloop
  endfacet
  facet normal 0.998025 -0.0628122 0
    outer loop
      vertex 12.5 0 -22.5
      vertex 12.4014 -1.56666 0
      vertex 12.4014 -1.56666 -22.5
    endloop
  endfacet
  facet normal 0.368142 -0.92977 0
    outer loop
      vertex 3.86271 -11.8882 -22.5
      vertex 5.32224 -11.3103 0
      vertex 3.86271 -11.8882 0
    endloop
  endfacet
  facet normal 0.368142 -0.92977 0
    outer loop
      vertex 5.32224 -11.3103 0
      vertex 3.86271 -11.8882 -22.5
      vertex 5.32224 -11.3103 -22.5
    endloop
  endfacet
  facet normal 0.982292 0.187354 0
    outer loop
      vertex 12.4014 1.56666 0
      vertex 12.1073 3.10862 -22.5
      vertex 12.1073 3.10862 0
    endloop
  endfacet
  facet normal 0.982292 0.187354 0
    outer loop
      vertex 12.1073 3.10862 -22.5
      vertex 12.4014 1.56666 0
      vertex 12.4014 1.56666 -22.5
    endloop
  endfacet
  facet normal -0.77052 0.637416 0
    outer loop
      vertex -10.1127 7.34731 -22.5
      vertex -9.11211 8.55684 0
      vertex -9.11211 8.55684 -22.5
    endloop
  endfacet
  facet normal -0.77052 0.637416 0
    outer loop
      vertex -9.11211 8.55684 0
      vertex -10.1127 7.34731 -22.5
      vertex -10.1127 7.34731 0
    endloop
  endfacet
  facet normal -0.125306 0.992118 0
    outer loop
      vertex -0.784881 12.4753 -22.5
      vertex -2.34227 12.2786 0
      vertex -0.784881 12.4753 0
    endloop
  endfacet
  facet normal -0.125306 0.992118 0
    outer loop
      vertex -2.34227 12.2786 0
      vertex -0.784881 12.4753 -22.5
      vertex -2.34227 12.2786 -22.5
    endloop
  endfacet
  facet normal -0.684548 0.728968 0
    outer loop
      vertex -7.9678 9.63142 -22.5
      vertex -9.11211 8.55684 0
      vertex -7.9678 9.63142 0
    endloop
  endfacet
  facet normal -0.684548 0.728968 0
    outer loop
      vertex -9.11211 8.55684 0
      vertex -7.9678 9.63142 -22.5
      vertex -9.11211 8.55684 -22.5
    endloop
  endfacet
  facet normal 0.998025 0.0628122 0
    outer loop
      vertex 12.5 0 0
      vertex 12.4014 1.56666 -22.5
      vertex 12.4014 1.56666 0
    endloop
  endfacet
  facet normal 0.998025 0.0628122 0
    outer loop
      vertex 12.4014 1.56666 -22.5
      vertex 12.5 0 0
      vertex 12.5 0 -22.5
    endloop
  endfacet
  facet normal 0.90482 -0.425795 0
    outer loop
      vertex 10.9538 -6.02192 0
      vertex 11.6222 -4.60156 -22.5
      vertex 11.6222 -4.60156 0
    endloop
  endfacet
  facet normal 0.90482 -0.425795 0
    outer loop
      vertex 11.6222 -4.60156 -22.5
      vertex 10.9538 -6.02192 0
      vertex 10.9538 -6.02192 -22.5
    endloop
  endfacet
  facet normal 0.2487 -0.96858 0
    outer loop
      vertex 2.34227 -12.2786 -22.5
      vertex 3.86271 -11.8882 0
      vertex 2.34227 -12.2786 0
    endloop
  endfacet
  facet normal 0.2487 -0.96858 0
    outer loop
      vertex 3.86271 -11.8882 0
      vertex 2.34227 -12.2786 -22.5
      vertex 3.86271 -11.8882 -22.5
    endloop
  endfacet
  facet normal 0.684548 0.728968 -0
    outer loop
      vertex 9.11211 8.55684 -22.5
      vertex 7.9678 9.63142 0
      vertex 9.11211 8.55684 0
    endloop
  endfacet
  facet normal 0.684548 0.728968 0
    outer loop
      vertex 7.9678 9.63142 0
      vertex 9.11211 8.55684 -22.5
      vertex 7.9678 9.63142 -22.5
    endloop
  endfacet
  facet normal 0.77052 0.637416 0
    outer loop
      vertex 10.1127 7.34731 0
      vertex 9.11211 8.55684 -22.5
      vertex 9.11211 8.55684 0
    endloop
  endfacet
  facet normal 0.77052 0.637416 0
    outer loop
      vertex 9.11211 8.55684 -22.5
      vertex 10.1127 7.34731 0
      vertex 10.1127 7.34731 -22.5
    endloop
  endfacet
  facet normal 0 1 -0
    outer loop
      vertex 0.784881 12.4753 -22.5
      vertex -0.784881 12.4753 0
      vertex 0.784881 12.4753 0
    endloop
  endfacet
  facet normal 0 1 0
    outer loop
      vertex -0.784881 12.4753 0
      vertex 0.784881 12.4753 -22.5
      vertex -0.784881 12.4753 -22.5
    endloop
  endfacet
  facet normal 0.587782 0.809019 -0
    outer loop
      vertex 7.9678 9.63142 -22.5
      vertex 6.69783 10.5541 0
      vertex 7.9678 9.63142 0
    endloop
  endfacet
  facet normal 0.587782 0.809019 0
    outer loop
      vertex 6.69783 10.5541 0
      vertex 7.9678 9.63142 -22.5
      vertex 6.69783 10.5541 -22.5
    endloop
  endfacet
  facet normal 0.481736 0.876317 -0
    outer loop
      vertex 6.69783 10.5541 -22.5
      vertex 5.32224 11.3103 0
      vertex 6.69783 10.5541 0
    endloop
  endfacet
  facet normal 0.481736 0.876317 0
    outer loop
      vertex 5.32224 11.3103 0
      vertex 6.69783 10.5541 -22.5
      vertex 5.32224 11.3103 -22.5
    endloop
  endfacet
  facet normal -0.998025 0.0628122 0
    outer loop
      vertex -12.5 0 -22.5
      vertex -12.4014 1.56666 0
      vertex -12.4014 1.56666 -22.5
    endloop
  endfacet
  facet normal -0.998025 0.0628122 0
    outer loop
      vertex -12.4014 1.56666 0
      vertex -12.5 0 -22.5
      vertex -12.5 0 0
    endloop
  endfacet
  facet normal -0.982292 0.187354 0
    outer loop
      vertex -12.4014 1.56666 -22.5
      vertex -12.1073 3.10862 0
      vertex -12.1073 3.10862 -22.5
    endloop
  endfacet
  facet normal -0.982292 0.187354 0
    outer loop
      vertex -12.1073 3.10862 0
      vertex -12.4014 1.56666 -22.5
      vertex -12.4014 1.56666 0
    endloop
  endfacet
  facet normal -0.844333 0.535819 0
    outer loop
      vertex -10.9538 6.02192 -22.5
      vertex -10.1127 7.34731 0
      vertex -10.1127 7.34731 -22.5
    endloop
  endfacet
  facet normal -0.844333 0.535819 0
    outer loop
      vertex -10.1127 7.34731 0
      vertex -10.9538 6.02192 -22.5
      vertex -10.9538 6.02192 0
    endloop
  endfacet
  facet normal -0.2487 0.96858 0
    outer loop
      vertex -2.34227 12.2786 -22.5
      vertex -3.86271 11.8882 0
      vertex -2.34227 12.2786 0
    endloop
  endfacet
  facet normal -0.2487 0.96858 0
    outer loop
      vertex -3.86271 11.8882 0
      vertex -2.34227 12.2786 -22.5
      vertex -3.86271 11.8882 -22.5
    endloop
  endfacet
  facet normal -0.481736 0.876317 0
    outer loop
      vertex -5.32224 11.3103 -22.5
      vertex -6.69783 10.5541 0
      vertex -5.32224 11.3103 0
    endloop
  endfacet
  facet normal -0.481736 0.876317 0
    outer loop
      vertex -6.69783 10.5541 0
      vertex -5.32224 11.3103 -22.5
      vertex -6.69783 10.5541 -22.5
    endloop
  endfacet
  facet normal -0.587782 0.809019 0
    outer loop
      vertex -6.69783 10.5541 -22.5
      vertex -7.9678 9.63142 0
      vertex -6.69783 10.5541 0
    endloop
  endfacet
  facet normal -0.587782 0.809019 0
    outer loop
      vertex -7.9678 9.63142 0
      vertex -6.69783 10.5541 -22.5
      vertex -7.9678 9.63142 -22.5
    endloop
  endfacet
  facet normal 0.982292 -0.187354 0
    outer loop
      vertex 12.1073 -3.10862 0
      vertex 12.4014 -1.56666 -22.5
      vertex 12.4014 -1.56666 0
    endloop
  endfacet
  facet normal 0.982292 -0.187354 0
    outer loop
      vertex 12.4014 -1.56666 -22.5
      vertex 12.1073 -3.10862 0
      vertex 12.1073 -3.10862 -22.5
    endloop
  endfacet
  facet normal 0.844333 -0.535819 0
    outer loop
      vertex 10.1127 -7.34731 0
      vertex 10.9538 -6.02192 -22.5
      vertex 10.9538 -6.02192 0
    endloop
  endfacet
  facet normal 0.844333 -0.535819 0
    outer loop
      vertex 10.9538 -6.02192 -22.5
      vertex 10.1127 -7.34731 0
      vertex 10.1127 -7.34731 -22.5
    endloop
  endfacet
  facet normal 0.125306 -0.992118 0
    outer loop
      vertex 0.784881 -12.4753 -22.5
      vertex 2.34227 -12.2786 0
      vertex 0.784881 -12.4753 0
    endloop
  endfacet
  facet normal 0.125306 -0.992118 0
    outer loop
      vertex 2.34227 -12.2786 0
      vertex 0.784881 -12.4753 -22.5
      vertex 2.34227 -12.2786 -22.5
    endloop
  endfacet
  facet normal 0.90482 0.425795 0
    outer loop
      vertex 11.6222 4.60156 0
      vertex 10.9538 6.02192 -22.5
      vertex 10.9538 6.02192 0
    endloop
  endfacet
  facet normal 0.90482 0.425795 0
    outer loop
      vertex 10.9538 6.02192 -22.5
      vertex 11.6222 4.60156 0
      vertex 11.6222 4.60156 -22.5
    endloop
  endfacet
  facet normal 0.951054 0.309025 0
    outer loop
      vertex 12.1073 3.10862 0
      vertex 11.6222 4.60156 -22.5
      vertex 11.6222 4.60156 0
    endloop
  endfacet
  facet normal 0.951054 0.309025 0
    outer loop
      vertex 11.6222 4.60156 -22.5
      vertex 12.1073 3.10862 0
      vertex 12.1073 3.10862 -22.5
    endloop
  endfacet
  facet normal 0.125306 0.992118 -0
    outer loop
      vertex 2.34227 12.2786 -22.5
      vertex 0.784881 12.4753 0
      vertex 2.34227 12.2786 0
    endloop
  endfacet
  facet normal 0.125306 0.992118 0
    outer loop
      vertex 0.784881 12.4753 0
      vertex 2.34227 12.2786 -22.5
      vertex 0.784881 12.4753 -22.5
    endloop
  endfacet
  facet normal 0.481736 -0.876317 0
    outer loop
      vertex 5.32224 -11.3103 -22.5
      vertex 6.69783 -10.5541 0
      vertex 5.32224 -11.3103 0
    endloop
  endfacet
  facet normal 0.481736 -0.876317 0
    outer loop
      vertex 6.69783 -10.5541 0
      vertex 5.32224 -11.3103 -22.5
      vertex 6.69783 -10.5541 -22.5
    endloop
  endfacet
  facet normal 0.684548 -0.728968 0
    outer loop
      vertex 7.9678 -9.63142 -22.5
      vertex 9.11211 -8.55684 0
      vertex 7.9678 -9.63142 0
    endloop
  endfacet
  facet normal 0.684548 -0.728968 0
    outer loop
      vertex 9.11211 -8.55684 0
      vertex 7.9678 -9.63142 -22.5
      vertex 9.11211 -8.55684 -22.5
    endloop
  endfacet
  facet normal -0.368142 -0.92977 0
    outer loop
      vertex -5.32224 -11.3103 -22.5
      vertex -3.86271 -11.8882 0
      vertex -5.32224 -11.3103 0
    endloop
  endfacet
  facet normal -0.368142 -0.92977 -0
    outer loop
      vertex -3.86271 -11.8882 0
      vertex -5.32224 -11.3103 -22.5
      vertex -3.86271 -11.8882 -22.5
    endloop
  endfacet
  facet normal -0.125306 -0.992118 0
    outer loop
      vertex -2.34227 -12.2786 -22.5
      vertex -0.784881 -12.4753 0
      vertex -2.34227 -12.2786 0
    endloop
  endfacet
  facet normal -0.125306 -0.992118 -0
    outer loop
      vertex -0.784881 -12.4753 0
      vertex -2.34227 -12.2786 -22.5
      vertex -0.784881 -12.4753 -22.5
    endloop
  endfacet
  facet normal -0.998025 -0.0628122 0
    outer loop
      vertex -12.4014 -1.56666 -22.5
      vertex -12.5 0 0
      vertex -12.5 0 -22.5
    endloop
  endfacet
  facet normal -0.998025 -0.0628122 0
    outer loop
      vertex -12.5 0 0
      vertex -12.4014 -1.56666 -22.5
      vertex -12.4014 -1.56666 0
    endloop
  endfacet
  facet normal -0.951054 -0.309025 0
    outer loop
      vertex -11.6222 -4.60156 -22.5
      vertex -12.1073 -3.10862 0
      vertex -12.1073 -3.10862 -22.5
    endloop
  endfacet
  facet normal -0.951054 -0.309025 0
    outer loop
      vertex -12.1073 -3.10862 0
      vertex -11.6222 -4.60156 -22.5
      vertex -11.6222 -4.60156 0
    endloop
  endfacet
  facet normal -0.77052 -0.637416 0
    outer loop
      vertex -9.11211 -8.55684 -22.5
      vertex -10.1127 -7.34731 0
      vertex -10.1127 -7.34731 -22.5
    endloop
  endfacet
  facet normal -0.77052 -0.637416 0
    outer loop
      vertex -10.1127 -7.34731 0
      vertex -9.11211 -8.55684 -22.5
      vertex -9.11211 -8.55684 0
    endloop
  endfacet
  facet normal 0.951054 -0.309025 0
    outer loop
      vertex 11.6222 -4.60156 0
      vertex 12.1073 -3.10862 -22.5
      vertex 12.1073 -3.10862 0
    endloop
  endfacet
  facet normal 0.951054 -0.309025 0
    outer loop
      vertex 12.1073 -3.10862 -22.5
      vertex 11.6222 -4.60156 0
      vertex 11.6222 -4.60156 -22.5
    endloop
  endfacet
  facet normal 0.587782 -0.809019 0
    outer loop
      vertex 6.69783 -10.5541 -22.5
      vertex 7.9678 -9.63142 0
      vertex 6.69783 -10.5541 0
    endloop
  endfacet
  facet normal 0.587782 -0.809019 0
    outer loop
      vertex 7.9678 -9.63142 0
      vertex 6.69783 -10.5541 -22.5
      vertex 7.9678 -9.63142 -22.5
    endloop
  endfacet
  facet normal 0.77052 -0.637416 0
    outer loop
      vertex 9.11211 -8.55684 0
      vertex 10.1127 -7.34731 -22.5
      vertex 10.1127 -7.34731 0
    endloop
  endfacet
  facet normal 0.77052 -0.637416 0
    outer loop
      vertex 10.1127 -7.34731 -22.5
      vertex 9.11211 -8.55684 0
      vertex 9.11211 -8.55684 -22.5
    endloop
  endfacet
  facet normal -0.587782 -0.809019 0
    outer loop
      vertex -7.9678 -9.63142 -22.5
      vertex -6.69783 -10.5541 0
      vertex -7.9678 -9.63142 0
    endloop
  endfacet
  facet normal -0.587782 -0.809019 -0
    outer loop
      vertex -6.69783 -10.5541 0
      vertex -7.9678 -9.63142 -22.5
      vertex -6.69783 -10.5541 -22.5
    endloop
  endfacet
  facet normal 0 -1 0
    outer loop
      vertex -0.784881 -12.4753 -22.5
      vertex 0.784881 -12.4753 0
      vertex -0.784881 -12.4753 0
    endloop
  endfacet
  facet normal 0 -1 -0
    outer loop
      vertex 0.784881 -12.4753 0
      vertex -0.784881 -12.4753 -22.5
      vertex 0.784881 -12.4753 -22.5
    endloop
  endfacet
  facet normal -0.2487 -0.96858 0
    outer loop
      vertex -3.86271 -11.8882 -22.5
      vertex -2.34227 -12.2786 0
      vertex -3.86271 -11.8882 0
    endloop
  endfacet
  facet normal -0.2487 -0.96858 -0
    outer loop
      vertex -2.34227 -12.2786 0
      vertex -3.86271 -11.8882 -22.5
      vertex -2.34227 -12.2786 -22.5
    endloop
  endfacet
  facet normal 0 0 -1
    outer loop
      vertex 3.25 0 -22.5
      vertex 12.5 0 -22.5
      vertex 12.4014 -1.56666 -22.5
    endloop
  endfacet
  facet normal 0 0 -1
    outer loop
      vertex 3.22437 -0.407332 -22.5
      vertex 12.4014 -1.56666 -22.5
      vertex 12.1073 -3.10862 -22.5
    endloop
  endfacet
  facet normal 0 0 -1
    outer loop
      vertex 12.5 0 -22.5
      vertex 3.25 0 -22.5
      vertex 12.4014 1.56666 -22.5
    endloop
  endfacet
  facet normal 0 0 -1
    outer loop
      vertex 3.14789 -0.808242 -22.5
      vertex 12.1073 -3.10862 -22.5
      vertex 11.6222 -4.60156 -22.5
    endloop
  endfacet
  facet normal 0 0 -1
    outer loop
      vertex 3.22437 0.407332 -22.5
      vertex 12.4014 1.56666 -22.5
      vertex 3.25 0 -22.5
    endloop
  endfacet
  facet normal 0 0 -1
    outer loop
      vertex 3.02177 -1.1964 -22.5
      vertex 11.6222 -4.60156 -22.5
      vertex 10.9538 -6.02192 -22.5
    endloop
  endfacet
  facet normal -0 0 -1
    outer loop
      vertex 12.4014 1.56666 -22.5
      vertex 3.22437 0.407332 -22.5
      vertex 12.1073 3.10862 -22.5
    endloop
  endfacet
  facet normal 0 0 -1
    outer loop
      vertex 2.848 -1.5657 -22.5
      vertex 10.9538 -6.02192 -22.5
      vertex 10.1127 -7.34731 -22.5
    endloop
  endfacet
  facet normal 0 0 -1
    outer loop
      vertex 3.14789 0.808242 -22.5
      vertex 12.1073 3.10862 -22.5
      vertex 3.22437 0.407332 -22.5
    endloop
  endfacet
  facet normal 0 0 -1
    outer loop
      vertex 2.6293 -1.9103 -22.5
      vertex 10.1127 -7.34731 -22.5
      vertex 9.11211 -8.55684 -22.5
    endloop
  endfacet
  facet normal -0 0 -1
    outer loop
      vertex 12.1073 3.10862 -22.5
      vertex 3.14789 0.808242 -22.5
      vertex 11.6222 4.60156 -22.5
    endloop
  endfacet
  facet normal 0 0 -1
    outer loop
      vertex 2.36915 -2.22478 -22.5
      vertex 9.11211 -8.55684 -22.5
      vertex 7.9678 -9.63142 -22.5
    endloop
  endfacet
  facet normal 0 0 -1
    outer loop
      vertex 3.02177 1.1964 -22.5
      vertex 11.6222 4.60156 -22.5
      vertex 3.14789 0.808242 -22.5
    endloop
  endfacet
  facet normal 0 0 -1
    outer loop
      vertex 2.07163 -2.50417 -22.5
      vertex 7.9678 -9.63142 -22.5
      vertex 6.69783 -10.5541 -22.5
    endloop
  endfacet
  facet normal -0 0 -1
    outer loop
      vertex 11.6222 4.60156 -22.5
      vertex 3.02177 1.1964 -22.5
      vertex 10.9538 6.02192 -22.5
    endloop
  endfacet
  facet normal 0 0 -1
    outer loop
      vertex 1.74144 -2.74407 -22.5
      vertex 6.69783 -10.5541 -22.5
      vertex 5.32224 -11.3103 -22.5
    endloop
  endfacet
  facet normal 0 0 -1
    outer loop
      vertex 2.848 1.5657 -22.5
      vertex 10.9538 6.02192 -22.5
      vertex 3.02177 1.1964 -22.5
    endloop
  endfacet
  facet normal 0 0 -1
    outer loop
      vertex 1.38378 -2.94069 -22.5
      vertex 5.32224 -11.3103 -22.5
      vertex 3.86271 -11.8882 -22.5
    endloop
  endfacet
  facet normal -0 0 -1
    outer loop
      vertex 10.9538 6.02192 -22.5
      vertex 2.848 1.5657 -22.5
      vertex 10.1127 7.34731 -22.5
    endloop
  endfacet
  facet normal 0 0 -1
    outer loop
      vertex 2.6293 1.9103 -22.5
      vertex 10.1127 7.34731 -22.5
      vertex 2.848 1.5657 -22.5
    endloop
  endfacet
  facet normal 0 0 -1
    outer loop
      vertex 12.4014 -1.56666 -22.5
      vertex 3.22437 -0.407332 -22.5
      vertex 3.25 0 -22.5
    endloop
  endfacet
  facet normal 0 0 -1
    outer loop
      vertex 12.1073 -3.10862 -22.5
      vertex 3.14789 -0.808242 -22.5
      vertex 3.22437 -0.407332 -22.5
    endloop
  endfacet
  facet normal 0 0 -1
    outer loop
      vertex 11.6222 -4.60156 -22.5
      vertex 3.02177 -1.1964 -22.5
      vertex 3.14789 -0.808242 -22.5
    endloop
  endfacet
  facet normal 0 0 -1
    outer loop
      vertex 10.9538 -6.02192 -22.5
      vertex 2.848 -1.5657 -22.5
      vertex 3.02177 -1.1964 -22.5
    endloop
  endfacet
  facet normal 0 0 -1
    outer loop
      vertex 10.1127 -7.34731 -22.5
      vertex 2.6293 -1.9103 -22.5
      vertex 2.848 -1.5657 -22.5
    endloop
  endfacet
  facet normal 0 0 -1
    outer loop
      vertex 9.11211 -8.55684 -22.5
      vertex 2.36915 -2.22478 -22.5
      vertex 2.6293 -1.9103 -22.5
    endloop
  endfacet
  facet normal 0 0 -1
    outer loop
      vertex 1.0043 -3.09093 -22.5
      vertex 3.86271 -11.8882 -22.5
      vertex 2.34227 -12.2786 -22.5
    endloop
  endfacet
  facet normal 0 0 -1
    outer loop
      vertex 7.9678 -9.63142 -22.5
      vertex 2.07163 -2.50417 -22.5
      vertex 2.36915 -2.22478 -22.5
    endloop
  endfacet
  facet normal 0 0 -1
    outer loop
      vertex 6.69783 -10.5541 -22.5
      vertex 1.74144 -2.74407 -22.5
      vertex 2.07163 -2.50417 -22.5
    endloop
  endfacet
  facet normal 0 0 -1
    outer loop
      vertex 5.32224 -11.3103 -22.5
      vertex 1.38378 -2.94069 -22.5
      vertex 1.74144 -2.74407 -22.5
    endloop
  endfacet
  facet normal 0 0 -1
    outer loop
      vertex 3.86271 -11.8882 -22.5
      vertex 1.0043 -3.09093 -22.5
      vertex 1.38378 -2.94069 -22.5
    endloop
  endfacet
  facet normal 0 0 -1
    outer loop
      vertex 0.608989 -3.19243 -22.5
      vertex 2.34227 -12.2786 -22.5
      vertex 0.784881 -12.4753 -22.5
    endloop
  endfacet
  facet normal 0 0 -1
    outer loop
      vertex 2.34227 -12.2786 -22.5
      vertex 0.608989 -3.19243 -22.5
      vertex 1.0043 -3.09093 -22.5
    endloop
  endfacet
  facet normal 0 0 -1
    outer loop
      vertex 0.784881 -12.4753 -22.5
      vertex 0.204069 -3.24359 -22.5
      vertex 0.608989 -3.19243 -22.5
    endloop
  endfacet
  facet normal 0 0 -1
    outer loop
      vertex 0.784881 -12.4753 -22.5
      vertex -0.204069 -3.24359 -22.5
      vertex 0.204069 -3.24359 -22.5
    endloop
  endfacet
  facet normal 0 0 -1
    outer loop
      vertex -0.784881 -12.4753 -22.5
      vertex -0.204069 -3.24359 -22.5
      vertex 0.784881 -12.4753 -22.5
    endloop
  endfacet
  facet normal -0 0 -1
    outer loop
      vertex -0.204069 -3.24359 -22.5
      vertex -0.784881 -12.4753 -22.5
      vertex -0.608989 -3.19243 -22.5
    endloop
  endfacet
  facet normal 0 0 -1
    outer loop
      vertex -2.34227 -12.2786 -22.5
      vertex -0.608989 -3.19243 -22.5
      vertex -0.784881 -12.4753 -22.5
    endloop
  endfacet
  facet normal -0 0 -1
    outer loop
      vertex -0.608989 -3.19243 -22.5
      vertex -2.34227 -12.2786 -22.5
      vertex -1.0043 -3.09093 -22.5
    endloop
  endfacet
  facet normal 0 0 -1
    outer loop
      vertex -3.86271 -11.8882 -22.5
      vertex -1.0043 -3.09093 -22.5
      vertex -2.34227 -12.2786 -22.5
    endloop
  endfacet
  facet normal -0 0 -1
    outer loop
      vertex -1.0043 -3.09093 -22.5
      vertex -3.86271 -11.8882 -22.5
      vertex -1.38378 -2.94069 -22.5
    endloop
  endfacet
  facet normal 0 0 -1
    outer loop
      vertex -5.32224 -11.3103 -22.5
      vertex -1.38378 -2.94069 -22.5
      vertex -3.86271 -11.8882 -22.5
    endloop
  endfacet
  facet normal -0 0 -1
    outer loop
      vertex -1.38378 -2.94069 -22.5
      vertex -5.32224 -11.3103 -22.5
      vertex -1.74144 -2.74407 -22.5
    endloop
  endfacet
  facet normal 0 0 -1
    outer loop
      vertex -6.69783 -10.5541 -22.5
      vertex -1.74144 -2.74407 -22.5
      vertex -5.32224 -11.3103 -22.5
    endloop
  endfacet
  facet normal -0 0 -1
    outer loop
      vertex -1.74144 -2.74407 -22.5
      vertex -6.69783 -10.5541 -22.5
      vertex -2.07163 -2.50417 -22.5
    endloop
  endfacet
  facet normal 0 0 -1
    outer loop
      vertex -7.9678 -9.63142 -22.5
      vertex -2.07163 -2.50417 -22.5
      vertex -6.69783 -10.5541 -22.5
    endloop
  endfacet
  facet normal -0 0 -1
    outer loop
      vertex -2.07163 -2.50417 -22.5
      vertex -7.9678 -9.63142 -22.5
      vertex -2.36915 -2.22478 -22.5
    endloop
  endfacet
  facet normal 0 0 -1
    outer loop
      vertex -9.11211 -8.55684 -22.5
      vertex -2.36915 -2.22478 -22.5
      vertex -7.9678 -9.63142 -22.5
    endloop
  endfacet
  facet normal 0 0 -1
    outer loop
      vertex -10.1127 -7.34731 -22.5
      vertex -2.6293 -1.9103 -22.5
      vertex -9.11211 -8.55684 -22.5
    endloop
  endfacet
  facet normal -0 0 -1
    outer loop
      vertex -2.36915 -2.22478 -22.5
      vertex -9.11211 -8.55684 -22.5
      vertex -2.6293 -1.9103 -22.5
    endloop
  endfacet
  facet normal -0 0 -1
    outer loop
      vertex 10.1127 7.34731 -22.5
      vertex 2.6293 1.9103 -22.5
      vertex 9.11211 8.55684 -22.5
    endloop
  endfacet
  facet normal 0 0 -1
    outer loop
      vertex 2.36915 2.22478 -22.5
      vertex 9.11211 8.55684 -22.5
      vertex 2.6293 1.9103 -22.5
    endloop
  endfacet
  facet normal -0 0 -1
    outer loop
      vertex 9.11211 8.55684 -22.5
      vertex 2.36915 2.22478 -22.5
      vertex 7.9678 9.63142 -22.5
    endloop
  endfacet
  facet normal 0 0 -1
    outer loop
      vertex 2.07163 2.50417 -22.5
      vertex 7.9678 9.63142 -22.5
      vertex 2.36915 2.22478 -22.5
    endloop
  endfacet
  facet normal -0 0 -1
    outer loop
      vertex 7.9678 9.63142 -22.5
      vertex 2.07163 2.50417 -22.5
      vertex 6.69783 10.5541 -22.5
    endloop
  endfacet
  facet normal 0 0 -1
    outer loop
      vertex 1.74144 2.74407 -22.5
      vertex 6.69783 10.5541 -22.5
      vertex 2.07163 2.50417 -22.5
    endloop
  endfacet
  facet normal -0 0 -1
    outer loop
      vertex 6.69783 10.5541 -22.5
      vertex 1.74144 2.74407 -22.5
      vertex 5.32224 11.3103 -22.5
    endloop
  endfacet
  facet normal 0 0 -1
    outer loop
      vertex 1.38378 2.94069 -22.5
      vertex 5.32224 11.3103 -22.5
      vertex 1.74144 2.74407 -22.5
    endloop
  endfacet
  facet normal -0 0 -1
    outer loop
      vertex 5.32224 11.3103 -22.5
      vertex 1.38378 2.94069 -22.5
      vertex 3.86271 11.8882 -22.5
    endloop
  endfacet
  facet normal 0 0 -1
    outer loop
      vertex 1.0043 3.09093 -22.5
      vertex 3.86271 11.8882 -22.5
      vertex 1.38378 2.94069 -22.5
    endloop
  endfacet
  facet normal -0 0 -1
    outer loop
      vertex 3.86271 11.8882 -22.5
      vertex 1.0043 3.09093 -22.5
      vertex 2.34227 12.2786 -22.5
    endloop
  endfacet
  facet normal 0 0 -1
    outer loop
      vertex 0.608989 3.19243 -22.5
      vertex 2.34227 12.2786 -22.5
      vertex 1.0043 3.09093 -22.5
    endloop
  endfacet
  facet normal -0 0 -1
    outer loop
      vertex 2.34227 12.2786 -22.5
      vertex 0.608989 3.19243 -22.5
      vertex 0.784881 12.4753 -22.5
    endloop
  endfacet
  facet normal 0 0 -1
    outer loop
      vertex 0.204069 3.24359 -22.5
      vertex 0.784881 12.4753 -22.5
      vertex 0.608989 3.19243 -22.5
    endloop
  endfacet
  facet normal 0 0 -1
    outer loop
      vertex -0.204069 3.24359 -22.5
      vertex 0.784881 12.4753 -22.5
      vertex 0.204069 3.24359 -22.5
    endloop
  endfacet
  facet normal 0 0 -1
    outer loop
      vertex -0.784881 12.4753 -22.5
      vertex -0.204069 3.24359 -22.5
      vertex -0.608989 3.19243 -22.5
    endloop
  endfacet
  facet normal 0 0 -1
    outer loop
      vertex -0.204069 3.24359 -22.5
      vertex -0.784881 12.4753 -22.5
      vertex 0.784881 12.4753 -22.5
    endloop
  endfacet
  facet normal 0 0 -1
    outer loop
      vertex -2.34227 12.2786 -22.5
      vertex -0.608989 3.19243 -22.5
      vertex -1.0043 3.09093 -22.5
    endloop
  endfacet
  facet normal 0 0 -1
    outer loop
      vertex -3.86271 11.8882 -22.5
      vertex -1.0043 3.09093 -22.5
      vertex -1.38378 2.94069 -22.5
    endloop
  endfacet
  facet normal 0 0 -1
    outer loop
      vertex -5.32224 11.3103 -22.5
      vertex -1.38378 2.94069 -22.5
      vertex -1.74144 2.74407 -22.5
    endloop
  endfacet
  facet normal 0 0 -1
    outer loop
      vertex -6.69783 10.5541 -22.5
      vertex -1.74144 2.74407 -22.5
      vertex -2.07163 2.50417 -22.5
    endloop
  endfacet
  facet normal 0 0 -1
    outer loop
      vertex -0.608989 3.19243 -22.5
      vertex -2.34227 12.2786 -22.5
      vertex -0.784881 12.4753 -22.5
    endloop
  endfacet
  facet normal 0 0 -1
    outer loop
      vertex -7.9678 9.63142 -22.5
      vertex -2.07163 2.50417 -22.5
      vertex -2.36915 2.22478 -22.5
    endloop
  endfacet
  facet normal 0 0 -1
    outer loop
      vertex -9.11211 8.55684 -22.5
      vertex -2.36915 2.22478 -22.5
      vertex -2.6293 1.9103 -22.5
    endloop
  endfacet
  facet normal 0 0 -1
    outer loop
      vertex -10.1127 7.34731 -22.5
      vertex -2.6293 1.9103 -22.5
      vertex -2.848 1.5657 -22.5
    endloop
  endfacet
  facet normal 0 0 -1
    outer loop
      vertex -10.9538 6.02192 -22.5
      vertex -2.848 1.5657 -22.5
      vertex -3.02177 1.1964 -22.5
    endloop
  endfacet
  facet normal 0 0 -1
    outer loop
      vertex -11.6222 4.60156 -22.5
      vertex -3.02177 1.1964 -22.5
      vertex -3.14789 0.808242 -22.5
    endloop
  endfacet
  facet normal 0 0 -1
    outer loop
      vertex -12.1073 3.10862 -22.5
      vertex -3.14789 0.808242 -22.5
      vertex -3.22437 0.407332 -22.5
    endloop
  endfacet
  facet normal 0 0 -1
    outer loop
      vertex -1.0043 3.09093 -22.5
      vertex -3.86271 11.8882 -22.5
      vertex -2.34227 12.2786 -22.5
    endloop
  endfacet
  facet normal 0 0 -1
    outer loop
      vertex -12.4014 1.56666 -22.5
      vertex -3.22437 0.407332 -22.5
      vertex -3.25 0 -22.5
    endloop
  endfacet
  facet normal -0 0 -1
    outer loop
      vertex -2.6293 -1.9103 -22.5
      vertex -10.1127 -7.34731 -22.5
      vertex -2.848 -1.5657 -22.5
    endloop
  endfacet
  facet normal 0 0 -1
    outer loop
      vertex -10.9538 -6.02192 -22.5
      vertex -2.848 -1.5657 -22.5
      vertex -10.1127 -7.34731 -22.5
    endloop
  endfacet
  facet normal 0 0 -1
    outer loop
      vertex -1.38378 2.94069 -22.5
      vertex -5.32224 11.3103 -22.5
      vertex -3.86271 11.8882 -22.5
    endloop
  endfacet
  facet normal -0 0 -1
    outer loop
      vertex -2.848 -1.5657 -22.5
      vertex -10.9538 -6.02192 -22.5
      vertex -3.02177 -1.1964 -22.5
    endloop
  endfacet
  facet normal 0 0 -1
    outer loop
      vertex -1.74144 2.74407 -22.5
      vertex -6.69783 10.5541 -22.5
      vertex -5.32224 11.3103 -22.5
    endloop
  endfacet
  facet normal 0 0 -1
    outer loop
      vertex -11.6222 -4.60156 -22.5
      vertex -3.02177 -1.1964 -22.5
      vertex -10.9538 -6.02192 -22.5
    endloop
  endfacet
  facet normal 0 0 -1
    outer loop
      vertex -2.07163 2.50417 -22.5
      vertex -7.9678 9.63142 -22.5
      vertex -6.69783 10.5541 -22.5
    endloop
  endfacet
  facet normal -0 0 -1
    outer loop
      vertex -3.02177 -1.1964 -22.5
      vertex -11.6222 -4.60156 -22.5
      vertex -3.14789 -0.808242 -22.5
    endloop
  endfacet
  facet normal 0 0 -1
    outer loop
      vertex -2.36915 2.22478 -22.5
      vertex -9.11211 8.55684 -22.5
      vertex -7.9678 9.63142 -22.5
    endloop
  endfacet
  facet normal 0 0 -1
    outer loop
      vertex -12.1073 -3.10862 -22.5
      vertex -3.14789 -0.808242 -22.5
      vertex -11.6222 -4.60156 -22.5
    endloop
  endfacet
  facet normal 0 0 -1
    outer loop
      vertex -2.6293 1.9103 -22.5
      vertex -10.1127 7.34731 -22.5
      vertex -9.11211 8.55684 -22.5
    endloop
  endfacet
  facet normal -0 0 -1
    outer loop
      vertex -3.14789 -0.808242 -22.5
      vertex -12.1073 -3.10862 -22.5
      vertex -3.22437 -0.407332 -22.5
    endloop
  endfacet
  facet normal 0 0 -1
    outer loop
      vertex -2.848 1.5657 -22.5
      vertex -10.9538 6.02192 -22.5
      vertex -10.1127 7.34731 -22.5
    endloop
  endfacet
  facet normal 0 0 -1
    outer loop
      vertex -12.4014 -1.56666 -22.5
      vertex -3.22437 -0.407332 -22.5
      vertex -12.1073 -3.10862 -22.5
    endloop
  endfacet
  facet normal 0 0 -1
    outer loop
      vertex -3.02177 1.1964 -22.5
      vertex -11.6222 4.60156 -22.5
      vertex -10.9538 6.02192 -22.5
    endloop
  endfacet
  facet normal -0 0 -1
    outer loop
      vertex -3.22437 -0.407332 -22.5
      vertex -12.4014 -1.56666 -22.5
      vertex -3.25 0 -22.5
    endloop
  endfacet
  facet normal 0 0 -1
    outer loop
      vertex -3.14789 0.808242 -22.5
      vertex -12.1073 3.10862 -22.5
      vertex -11.6222 4.60156 -22.5
    endloop
  endfacet
  facet normal 0 0 -1
    outer loop
      vertex -12.5 0 -22.5
      vertex -3.25 0 -22.5
      vertex -12.4014 -1.56666 -22.5
    endloop
  endfacet
  facet normal 0 0 -1
    outer loop
      vertex -3.22437 0.407332 -22.5
      vertex -12.4014 1.56666 -22.5
      vertex -12.1073 3.10862 -22.5
    endloop
  endfacet
  facet normal 0 0 -1
    outer loop
      vertex -3.25 0 -22.5
      vertex -12.5 0 -22.5
      vertex -12.4014 1.56666 -22.5
    endloop
  endfacet
  facet normal -0.982292 -0.187354 0
    outer loop
      vertex -12.1073 -3.10862 -22.5
      vertex -12.4014 -1.56666 0
      vertex -12.4014 -1.56666 -22.5
    endloop
  endfacet
  facet normal -0.982292 -0.187354 0
    outer loop
      vertex -12.4014 -1.56666 0
      vertex -12.1073 -3.10862 -22.5
      vertex -12.1073 -3.10862 0
    endloop
  endfacet
  facet normal -0.684548 -0.728968 0
    outer loop
      vertex -9.11211 -8.55684 -22.5
      vertex -7.9678 -9.63142 0
      vertex -9.11211 -8.55684 0
    endloop
  endfacet
  facet normal -0.684548 -0.728968 -0
    outer loop
      vertex -7.9678 -9.63142 0
      vertex -9.11211 -8.55684 -22.5
      vertex -7.9678 -9.63142 -22.5
    endloop
  endfacet
  facet normal -0.90482 -0.425795 0
    outer loop
      vertex -10.9538 -6.02192 -22.5
      vertex -11.6222 -4.60156 0
      vertex -11.6222 -4.60156 -22.5
    endloop
  endfacet
  facet normal -0.90482 -0.425795 0
    outer loop
      vertex -11.6222 -4.60156 0
      vertex -10.9538 -6.02192 -22.5
      vertex -10.9538 -6.02192 0
    endloop
  endfacet
  facet normal -0.481736 -0.876317 0
    outer loop
      vertex -6.69783 -10.5541 -22.5
      vertex -5.32224 -11.3103 0
      vertex -6.69783 -10.5541 0
    endloop
  endfacet
  facet normal -0.481736 -0.876317 -0
    outer loop
      vertex -5.32224 -11.3103 0
      vertex -6.69783 -10.5541 -22.5
      vertex -5.32224 -11.3103 -22.5
    endloop
  endfacet
  facet normal -0.844333 -0.535819 0
    outer loop
      vertex -10.1127 -7.34731 -22.5
      vertex -10.9538 -6.02192 0
      vertex -10.9538 -6.02192 -22.5
    endloop
  endfacet
  facet normal -0.844333 -0.535819 0
    outer loop
      vertex -10.9538 -6.02192 0
      vertex -10.1127 -7.34731 -22.5
      vertex -10.1127 -7.34731 0
    endloop
  endfacet
endsolid OpenSCAD_Model
