solid OpenSCAD_Model
  facet normal 0.5749613493225381 0.6122716493957019 0.5427180429389401
    outer loop
      vertex -2.2040160260925847 -2.6641977125209024 -3
      vertex -2.520549215584035 -2.3669532624226575 -3
      vertex -2.9158745096856467 -2.738188423714754 -2.162376237623763
    endloop
  endfacet
  facet normal 0.6471655929890113 0.5353819394784517 0.5427180429389399
    outer loop
      vertex -3.23606797749979 -2.3511410091698925 -2.162376237623763
      vertex -2.520549215584035 -2.3669532624226575 -3
      vertex -2.797331838242607 -2.032380545426667 -3
    endloop
  endfacet
  facet normal 0.4936896217119851 0.6795054696486291 0.5427180429389399
    outer loop
      vertex -1.8527241872543005 -2.9194261731781213 -3
      vertex -2.2040160260925847 -2.6641977125209024 -3
      vertex -2.5496959589947585 -3.0820529711031575 -2.1623762376237625
    endloop
  endfacet
  facet normal 0.7091636486560638 0.45004893655395517 0.5427180429389398
    outer loop
      vertex -2.797331838242607 -2.032380545426667 -3
      vertex -3.029998866767051 -1.6657559731440084 -3
      vertex -3.505226720175454 -1.9270146964068615 -2.1623762376237625
    endloop
  endfacet
  facet normal 0.759977769949979 0.35761839305380255 0.5427180429389397
    outer loop
      vertex -3.029998866767051 -1.6657559731440084 -3
      vertex -3.2148810031289927 -1.2728614340904825 -3
      vertex -3.719105943553006 -1.4724982107387115 -2.1623762376237625
    endloop
  endfacet
  facet normal 0.7988065878230701 0.2595479938643156 0.5427180429389399
    outer loop
      vertex -3.2148810031289927 -1.2728614340904825 -3
      vertex -3.3490625455947667 -0.8598931098507866 -3
      vertex -3.8743326445145243 -0.9947595486594194 -2.1623762376237625
    endloop
  endfacet
  facet normal 0.8250377486222651 0.15738436776513462 0.5427180429389398
    outer loop
      vertex -3.3490625455947667 -0.8598931098507866 -3
      vertex -3.4304273710835216 -0.43336375759349754 -3
      vertex -3.9684588052579115 -0.5013329342572163 -2.1623762376237625
    endloop
  endfacet
  facet normal 0.8382575712720258 0.05273869616943215 0.5427180429389398
    outer loop
      vertex -4 0 -2.1623762376237625
      vertex -3.4304273710835216 -0.43336375759349754 -3
      vertex -3.457692307692308 0 -3
    endloop
  endfacet
  facet normal 0.40463211385114917 0.7360230827283054 0.5427180429389395
    outer loop
      vertex -1.8527241872543005 -2.9194261731781213 -3
      vertex -2.143307179915987 -3.37731170200806 -2.1623762376237625
      vertex -1.4722137812192313 -3.12861353910366 -3
    endloop
  endfacet
  facet normal 0.30919331583937243 0.7809331721144781 0.5427180429389398
    outer loop
      vertex -1.4722137812192313 -3.12861353910366 -3
      vertex -1.7031171662602897 -3.6193082098640783 -2.1623762376237625
      vertex -1.0684856843964528 -3.288460800574396 -3
    endloop
  endfacet
  facet normal 0.20887835453367717 0.8135274788695404 0.54271804293894
    outer loop
      vertex -1.0684856843964528 -3.288460800574396 -3
      vertex -1.2360679774997898 -3.804226065180614 -2.162376237623762
      vertex -0.6479069300483331 -3.396447070788812 -3
    endloop
  endfacet
  facet normal 0.10526925679910247 0.8332919713050714 0.5427180429389397
    outer loop
      vertex -0.7495252583428993 -3.9291490029147544 -2.1623762376237625
      vertex -0.2171102963725118 -3.4508693417577545 -3
      vertex -0.6479069300483331 -3.396447070788812 -3
    endloop
  endfacet
  facet normal 0 0.839914951568626 0.5427180429389398
    outer loop
      vertex -0.25116207811725505 -3.9921069137130862 -2.1623762376237625
      vertex 0.2171102963725118 -3.4508693417577545 -3
      vertex -0.2171102963725118 -3.4508693417577545 -3
    endloop
  endfacet
  facet normal 0.7091636486560638 0.45004893655395517 0.5427180429389398
    outer loop
      vertex -3.505226720175454 -1.9270146964068615 -2.1623762376237625
      vertex -3.23606797749979 -2.3511410091698925 -2.162376237623763
      vertex -2.797331838242607 -2.032380545426667 -3
    endloop
  endfacet
  facet normal 0.4936896217119847 0.6795054696486295 0.5427180429389395
    outer loop
      vertex -2.143307179915987 -3.37731170200806 -2.1623762376237625
      vertex -1.8527241872543005 -2.9194261731781213 -3
      vertex -2.5496959589947585 -3.0820529711031575 -2.1623762376237625
    endloop
  endfacet
  facet normal 0.5749613493225375 0.6122716493957026 0.5427180429389398
    outer loop
      vertex -2.5496959589947585 -3.0820529711031575 -2.1623762376237625
      vertex -2.2040160260925847 -2.6641977125209024 -3
      vertex -2.9158745096856467 -2.738188423714754 -2.162376237623763
    endloop
  endfacet
  facet normal 0.6471655929890117 0.535381939478451 0.5427180429389401
    outer loop
      vertex -3.23606797749979 -2.3511410091698925 -2.162376237623763
      vertex -2.9158745096856467 -2.738188423714754 -2.162376237623763
      vertex -2.520549215584035 -2.3669532624226575 -3
    endloop
  endfacet
  facet normal 0.7988065878230701 0.259547993864316 0.5427180429389398
    outer loop
      vertex -3.8743326445145243 -0.9947595486594194 -2.1623762376237625
      vertex -3.719105943553006 -1.4724982107387115 -2.1623762376237625
      vertex -3.2148810031289927 -1.2728614340904825 -3
    endloop
  endfacet
  facet normal 0.7599777699499791 0.3576183930538022 0.5427180429389398
    outer loop
      vertex -3.719105943553006 -1.4724982107387115 -2.1623762376237625
      vertex -3.505226720175454 -1.9270146964068615 -2.1623762376237625
      vertex -3.029998866767051 -1.6657559731440084 -3
    endloop
  endfacet
  facet normal 0.8250377486222651 0.15738436776513462 0.5427180429389399
    outer loop
      vertex -3.9684588052579115 -0.5013329342572163 -2.1623762376237625
      vertex -3.8743326445145243 -0.9947595486594194 -2.1623762376237625
      vertex -3.3490625455947667 -0.8598931098507866 -3
    endloop
  endfacet
  facet normal 0.8382575712720257 0.052738696169431866 0.5427180429389398
    outer loop
      vertex -4 0 -2.1623762376237625
      vertex -3.9684588052579115 -0.5013329342572163 -2.1623762376237625
      vertex -3.4304273710835216 -0.43336375759349754 -3
    endloop
  endfacet
  facet normal 0.40463211385114956 0.7360230827283051 0.5427180429389398
    outer loop
      vertex -1.7031171662602897 -3.6193082098640783 -2.1623762376237625
      vertex -1.4722137812192313 -3.12861353910366 -3
      vertex -2.143307179915987 -3.37731170200806 -2.1623762376237625
    endloop
  endfacet
  facet normal 0.30919331583937293 0.7809331721144779 0.54271804293894
    outer loop
      vertex -1.2360679774997898 -3.804226065180614 -2.162376237623762
      vertex -1.0684856843964528 -3.288460800574396 -3
      vertex -1.7031171662602897 -3.6193082098640783 -2.1623762376237625
    endloop
  endfacet
  facet normal 0.20887835453367656 0.8135274788695406 0.5427180429389398
    outer loop
      vertex -0.7495252583428993 -3.9291490029147544 -2.1623762376237625
      vertex -0.6479069300483331 -3.396447070788812 -3
      vertex -1.2360679774997898 -3.804226065180614 -2.162376237623762
    endloop
  endfacet
  facet normal 0.10526925679910247 0.8332919713050713 0.5427180429389397
    outer loop
      vertex -0.2171102963725118 -3.4508693417577545 -3
      vertex -0.7495252583428993 -3.9291490029147544 -2.1623762376237625
      vertex -0.25116207811725505 -3.9921069137130862 -2.1623762376237625
    endloop
  endfacet
  facet normal 0.8382575712720258 -0.05273869616943215 0.5427180429389399
    outer loop
      vertex -3.9684588052579115 0.5013329342572163 -2.1623762376237625
      vertex -3.457692307692308 0 -3
      vertex -3.4304273710835216 0.4333637575934975 -3
    endloop
  endfacet
  facet normal 0.8250377486222651 -0.15738436776513462 0.5427180429389399
    outer loop
      vertex -3.3490625455947667 0.8598931098507866 -3
      vertex -3.8743326445145243 0.9947595486594194 -2.1623762376237625
      vertex -3.4304273710835216 0.4333637575934975 -3
    endloop
  endfacet
  facet normal 0.7988065878230702 -0.25954799386431565 0.5427180429389397
    outer loop
      vertex -3.3490625455947667 0.8598931098507866 -3
      vertex -3.2148810031289927 1.2728614340904825 -3
      vertex -3.719105943553006 1.4724982107387117 -2.1623762376237625
    endloop
  endfacet
  facet normal 0.7599777699499783 -0.3576183930538031 0.5427180429389401
    outer loop
      vertex -3.0299988667670505 1.6657559731440084 -3
      vertex -3.505226720175454 1.9270146964068617 -2.1623762376237625
      vertex -3.2148810031289927 1.2728614340904825 -3
    endloop
  endfacet
  facet normal 0.7091636486560642 -0.4500489365539545 0.5427180429389398
    outer loop
      vertex -2.797331838242607 2.032380545426667 -3
      vertex -3.23606797749979 2.3511410091698925 -2.162376237623763
      vertex -3.0299988667670505 1.6657559731440084 -3
    endloop
  endfacet
  facet normal 0.6471655929890112 -0.5353819394784515 0.5427180429389401
    outer loop
      vertex -2.797331838242607 2.032380545426667 -3
      vertex -2.520549215584035 2.3669532624226575 -3
      vertex -2.9158745096856467 2.738188423714754 -2.162376237623763
    endloop
  endfacet
  facet normal 0.5749613493225382 -0.6122716493957019 0.5427180429389399
    outer loop
      vertex -2.5496959589947585 3.0820529711031575 -2.1623762376237625
      vertex -2.520549215584035 2.3669532624226575 -3
      vertex -2.2040160260925847 2.6641977125209024 -3
    endloop
  endfacet
  facet normal 0.4936896217119849 -0.6795054696486295 0.5427180429389397
    outer loop
      vertex -2.143307179915987 3.37731170200806 -2.1623762376237625
      vertex -2.2040160260925847 2.6641977125209024 -3
      vertex -1.8527241872543003 2.9194261731781213 -3
    endloop
  endfacet
  facet normal 0.4046321138511495 -0.7360230827283052 0.5427180429389398
    outer loop
      vertex -1.8527241872543003 2.9194261731781213 -3
      vertex -1.4722137812192324 3.1286135391036596 -3
      vertex -1.7031171662602909 3.619308209864078 -2.1623762376237625
    endloop
  endfacet
  facet normal 0.30919331583937243 -0.7809331721144781 0.5427180429389399
    outer loop
      vertex -1.4722137812192324 3.1286135391036596 -3
      vertex -1.0684856843964528 3.288460800574396 -3
      vertex -1.2360679774997896 3.804226065180614 -2.162376237623762
    endloop
  endfacet
  facet normal 0.20887835453367684 -0.8135274788695405 0.5427180429389398
    outer loop
      vertex -1.0684856843964528 3.288460800574396 -3
      vertex -0.6479069300483323 3.396447070788812 -3
      vertex -0.7495252583428983 3.929149002914755 -2.162376237623762
    endloop
  endfacet
  facet normal 0.10526925679910229 -0.8332919713050714 0.5427180429389398
    outer loop
      vertex -0.6479069300483323 3.396447070788812 -3
      vertex -0.21711029637251014 3.4508693417577545 -3
      vertex -0.2511620781172531 3.9921069137130862 -2.1623762376237625
    endloop
  endfacet
  facet normal 0.8382575712720259 -0.05273869616943187 0.5427180429389398
    outer loop
      vertex -3.9684588052579115 0.5013329342572163 -2.1623762376237625
      vertex -4 0 -2.1623762376237625
      vertex -3.457692307692308 0 -3
    endloop
  endfacet
  facet normal 0.8250377486222651 -0.15738436776513462 0.54271804293894
    outer loop
      vertex -3.8743326445145243 0.9947595486594194 -2.1623762376237625
      vertex -3.9684588052579115 0.5013329342572163 -2.1623762376237625
      vertex -3.4304273710835216 0.4333637575934975 -3
    endloop
  endfacet
  facet normal 0.7988065878230699 -0.2595479938643159 0.5427180429389399
    outer loop
      vertex -3.3490625455947667 0.8598931098507866 -3
      vertex -3.719105943553006 1.4724982107387117 -2.1623762376237625
      vertex -3.8743326445145243 0.9947595486594194 -2.1623762376237625
    endloop
  endfacet
  facet normal 0.7599777699499791 -0.3576183930538022 0.5427180429389398
    outer loop
      vertex -3.505226720175454 1.9270146964068617 -2.1623762376237625
      vertex -3.719105943553006 1.4724982107387117 -2.1623762376237625
      vertex -3.2148810031289927 1.2728614340904825 -3
    endloop
  endfacet
  facet normal 0.7091636486560635 -0.4500489365539553 0.5427180429389402
    outer loop
      vertex -3.23606797749979 2.3511410091698925 -2.162376237623763
      vertex -3.505226720175454 1.9270146964068617 -2.1623762376237625
      vertex -3.0299988667670505 1.6657559731440084 -3
    endloop
  endfacet
  facet normal 0.6471655929890118 -0.5353819394784511 0.5427180429389398
    outer loop
      vertex -2.9158745096856467 2.738188423714754 -2.162376237623763
      vertex -3.23606797749979 2.3511410091698925 -2.162376237623763
      vertex -2.797331838242607 2.032380545426667 -3
    endloop
  endfacet
  facet normal 0.5749613493225374 -0.6122716493957023 0.54271804293894
    outer loop
      vertex -2.520549215584035 2.3669532624226575 -3
      vertex -2.5496959589947585 3.0820529711031575 -2.1623762376237625
      vertex -2.9158745096856467 2.738188423714754 -2.162376237623763
    endloop
  endfacet
  facet normal 0.4936896217119847 -0.6795054696486295 0.5427180429389398
    outer loop
      vertex -2.143307179915987 3.37731170200806 -2.1623762376237625
      vertex -2.5496959589947585 3.0820529711031575 -2.1623762376237625
      vertex -2.2040160260925847 2.6641977125209024 -3
    endloop
  endfacet
  facet normal 0.4046321138511498 -0.736023082728305 0.5427180429389397
    outer loop
      vertex -1.7031171662602909 3.619308209864078 -2.1623762376237625
      vertex -2.143307179915987 3.37731170200806 -2.1623762376237625
      vertex -1.8527241872543003 2.9194261731781213 -3
    endloop
  endfacet
  facet normal 0.3091933158393728 -0.7809331721144781 0.5427180429389399
    outer loop
      vertex -1.2360679774997896 3.804226065180614 -2.162376237623762
      vertex -1.7031171662602909 3.619308209864078 -2.1623762376237625
      vertex -1.4722137812192324 3.1286135391036596 -3
    endloop
  endfacet
  facet normal 0.2088783545336765 -0.8135274788695406 0.5427180429389399
    outer loop
      vertex -0.7495252583428983 3.929149002914755 -2.162376237623762
      vertex -1.2360679774997896 3.804226065180614 -2.162376237623762
      vertex -1.0684856843964528 3.288460800574396 -3
    endloop
  endfacet
  facet normal 0.10526925679910204 -0.8332919713050714 0.5427180429389399
    outer loop
      vertex -0.2511620781172531 3.9921069137130862 -2.1623762376237625
      vertex -0.7495252583428983 3.929149002914755 -2.162376237623762
      vertex -0.6479069300483323 3.396447070788812 -3
    endloop
  endfacet
  facet normal 0 -0.839914951568626 0.5427180429389398
    outer loop
      vertex -0.21711029637251014 3.4508693417577545 -3
      vertex 0.2511620781172531 3.9921069137130862 -2.1623762376237625
      vertex -0.2511620781172531 3.9921069137130862 -2.1623762376237625
    endloop
  endfacet
  facet normal -0.1052692567991025 0.8332919713050713 0.5427180429389399
    outer loop
      vertex 0.25116207811725505 -3.9921069137130862 -2.1623762376237625
      vertex 0.6479069300483331 -3.396447070788812 -3
      vertex 0.2171102963725118 -3.4508693417577545 -3
    endloop
  endfacet
  facet normal -0.20887835453367737 0.8135274788695405 0.5427180429389398
    outer loop
      vertex 0.7495252583428993 -3.9291490029147544 -2.1623762376237625
      vertex 1.0684856843964528 -3.288460800574396 -3
      vertex 0.6479069300483331 -3.396447070788812 -3
    endloop
  endfacet
  facet normal -0.30919331583937243 0.7809331721144781 0.54271804293894
    outer loop
      vertex 1.4722137812192313 -3.12861353910366 -3
      vertex 1.0684856843964528 -3.288460800574396 -3
      vertex 1.2360679774997896 -3.804226065180614 -2.162376237623762
    endloop
  endfacet
  facet normal -0.4046321138511493 0.7360230827283051 0.5427180429389398
    outer loop
      vertex 1.7031171662602897 -3.6193082098640783 -2.1623762376237625
      vertex 1.8527241872542985 -2.919426173178122 -3
      vertex 1.4722137812192313 -3.12861353910366 -3
    endloop
  endfacet
  facet normal -0.4936896217119852 0.679505469648629 0.5427180429389397
    outer loop
      vertex 2.2040160260925856 -2.664197712520901 -3
      vertex 1.8527241872542985 -2.919426173178122 -3
      vertex 2.143307179915985 -3.377311702008061 -2.1623762376237625
    endloop
  endfacet
  facet normal -0.5749613493225371 0.6122716493957027 0.54271804293894
    outer loop
      vertex 2.54969595899476 -3.082052971103156 -2.1623762376237625
      vertex 2.520549215584035 -2.366953262422658 -3
      vertex 2.2040160260925856 -2.664197712520901 -3
    endloop
  endfacet
  facet normal -0.6471655929890117 0.5353819394784511 0.5427180429389399
    outer loop
      vertex 2.797331838242607 -2.032380545426667 -3
      vertex 2.520549215584035 -2.366953262422658 -3
      vertex 2.9158745096856467 -2.738188423714754 -2.162376237623763
    endloop
  endfacet
  facet normal -0.7091636486560642 0.4500489365539545 0.5427180429389398
    outer loop
      vertex 2.797331838242607 -2.032380545426667 -3
      vertex 3.23606797749979 -2.3511410091698925 -2.162376237623763
      vertex 3.0299988667670505 -1.6657559731440084 -3
    endloop
  endfacet
  facet normal -0.7599777699499785 0.35761839305380305 0.5427180429389402
    outer loop
      vertex 3.0299988667670505 -1.6657559731440084 -3
      vertex 3.505226720175454 -1.9270146964068617 -2.1623762376237625
      vertex 3.214881003128992 -1.2728614340904842 -3
    endloop
  endfacet
  facet normal -0.7988065878230699 0.2595479938643161 0.5427180429389397
    outer loop
      vertex 3.349062545594767 -0.8598931098507852 -3
      vertex 3.214881003128992 -1.2728614340904842 -3
      vertex 3.719105943553005 -1.4724982107387135 -2.1623762376237625
    endloop
  endfacet
  facet normal -0.8250377486222651 0.15738436776513431 0.5427180429389398
    outer loop
      vertex 3.349062545594767 -0.8598931098507852 -3
      vertex 3.8743326445145247 -0.9947595486594177 -2.1623762376237625
      vertex 3.4304273710835216 -0.43336375759349754 -3
    endloop
  endfacet
  facet normal -0.8382575712720258 0.052738696169432144 0.5427180429389399
    outer loop
      vertex 3.9684588052579115 -0.5013329342572163 -2.1623762376237625
      vertex 3.457692307692308 0 -3
      vertex 3.4304273710835216 -0.43336375759349754 -3
    endloop
  endfacet
  facet normal 0 0.8399149515686257 0.5427180429389397
    outer loop
      vertex -0.25116207811725505 -3.9921069137130862 -2.1623762376237625
      vertex 0.25116207811725505 -3.9921069137130862 -2.1623762376237625
      vertex 0.2171102963725118 -3.4508693417577545 -3
    endloop
  endfacet
  facet normal -0.10526925679910248 0.8332919713050714 0.5427180429389398
    outer loop
      vertex 0.25116207811725505 -3.9921069137130862 -2.1623762376237625
      vertex 0.7495252583428993 -3.9291490029147544 -2.1623762376237625
      vertex 0.6479069300483331 -3.396447070788812 -3
    endloop
  endfacet
  facet normal -0.20887835453367665 0.8135274788695404 0.5427180429389399
    outer loop
      vertex 0.7495252583428993 -3.9291490029147544 -2.1623762376237625
      vertex 1.2360679774997896 -3.804226065180614 -2.162376237623762
      vertex 1.0684856843964528 -3.288460800574396 -3
    endloop
  endfacet
  facet normal -0.3091933158393728 0.7809331721144782 0.5427180429389398
    outer loop
      vertex 1.2360679774997896 -3.804226065180614 -2.162376237623762
      vertex 1.7031171662602897 -3.6193082098640783 -2.1623762376237625
      vertex 1.4722137812192313 -3.12861353910366 -3
    endloop
  endfacet
  facet normal -0.40463211385114944 0.7360230827283052 0.5427180429389398
    outer loop
      vertex 1.7031171662602897 -3.6193082098640783 -2.1623762376237625
      vertex 2.143307179915985 -3.377311702008061 -2.1623762376237625
      vertex 1.8527241872542985 -2.919426173178122 -3
    endloop
  endfacet
  facet normal -0.4936896217119847 0.6795054696486292 0.5427180429389399
    outer loop
      vertex 2.143307179915985 -3.377311702008061 -2.1623762376237625
      vertex 2.54969595899476 -3.082052971103156 -2.1623762376237625
      vertex 2.2040160260925856 -2.664197712520901 -3
    endloop
  endfacet
  facet normal -0.5749613493225374 0.6122716493957026 0.5427180429389398
    outer loop
      vertex 2.54969595899476 -3.082052971103156 -2.1623762376237625
      vertex 2.9158745096856467 -2.738188423714754 -2.162376237623763
      vertex 2.520549215584035 -2.366953262422658 -3
    endloop
  endfacet
  facet normal -0.6471655929890118 0.5353819394784511 0.5427180429389398
    outer loop
      vertex 2.9158745096856467 -2.738188423714754 -2.162376237623763
      vertex 3.23606797749979 -2.3511410091698925 -2.162376237623763
      vertex 2.797331838242607 -2.032380545426667 -3
    endloop
  endfacet
  facet normal -0.7091636486560635 0.4500489365539553 0.5427180429389402
    outer loop
      vertex 3.23606797749979 -2.3511410091698925 -2.162376237623763
      vertex 3.505226720175454 -1.9270146964068617 -2.1623762376237625
      vertex 3.0299988667670505 -1.6657559731440084 -3
    endloop
  endfacet
  facet normal -0.7599777699499791 0.35761839305380216 0.5427180429389397
    outer loop
      vertex 3.505226720175454 -1.9270146964068617 -2.1623762376237625
      vertex 3.719105943553005 -1.4724982107387135 -2.1623762376237625
      vertex 3.214881003128992 -1.2728614340904842 -3
    endloop
  endfacet
  facet normal -0.7988065878230699 0.25954799386431626 0.5427180429389398
    outer loop
      vertex 3.349062545594767 -0.8598931098507852 -3
      vertex 3.719105943553005 -1.4724982107387135 -2.1623762376237625
      vertex 3.8743326445145247 -0.9947595486594177 -2.1623762376237625
    endloop
  endfacet
  facet normal -0.8250377486222651 0.1573843677651344 0.5427180429389398
    outer loop
      vertex 3.8743326445145247 -0.9947595486594177 -2.1623762376237625
      vertex 3.9684588052579115 -0.5013329342572163 -2.1623762376237625
      vertex 3.4304273710835216 -0.43336375759349754 -3
    endloop
  endfacet
  facet normal -0.8382575712720259 0.05273869616943187 0.5427180429389398
    outer loop
      vertex 3.9684588052579115 -0.5013329342572163 -2.1623762376237625
      vertex 4 0 -2.1623762376237625
      vertex 3.457692307692308 0 -3
    endloop
  endfacet
  facet normal 0 -0.839914951568626 0.5427180429389398
    outer loop
      vertex 0.2511620781172531 3.9921069137130862 -2.1623762376237625
      vertex -0.21711029637251014 3.4508693417577545 -3
      vertex 0.21711029637251003 3.4508693417577545 -3
    endloop
  endfacet
  facet normal -0.10526925679910136 -0.8332919713050715 0.5427180429389398
    outer loop
      vertex 0.7495252583428984 3.929149002914755 -2.1623762376237625
      vertex 0.21711029637251003 3.4508693417577545 -3
      vertex 0.6479069300483323 3.3964470707888124 -3
    endloop
  endfacet
  facet normal -0.20887835453367762 -0.8135274788695402 0.54271804293894
    outer loop
      vertex 1.0684856843964528 3.288460800574396 -3
      vertex 1.2360679774997898 3.804226065180614 -2.162376237623762
      vertex 0.6479069300483323 3.3964470707888124 -3
    endloop
  endfacet
  facet normal -0.3091933158393726 -0.780933172114478 0.5427180429389399
    outer loop
      vertex 1.4722137812192322 3.1286135391036596 -3
      vertex 1.703117166260291 3.619308209864078 -2.1623762376237625
      vertex 1.0684856843964528 3.288460800574396 -3
    endloop
  endfacet
  facet normal -0.4046321138511496 -0.736023082728305 0.54271804293894
    outer loop
      vertex 1.8527241872542999 2.9194261731781213 -3
      vertex 2.1433071799159866 3.3773117020080603 -2.1623762376237625
      vertex 1.4722137812192322 3.1286135391036596 -3
    endloop
  endfacet
  facet normal -0.8382575712720258 -0.052738696169432074 0.5427180429389397
    outer loop
      vertex 3.457692307692308 0 -3
      vertex 4 0 -2.1623762376237625
      vertex 3.4304273710835216 0.43336375759349816 -3
    endloop
  endfacet
  facet normal -0.825037748622265 -0.1573843677651349 0.5427180429389398
    outer loop
      vertex 3.3490625455947667 0.8598931098507864 -3
      vertex 3.4304273710835216 0.43336375759349816 -3
      vertex 3.9684588052579115 0.501332934257217 -2.1623762376237625
    endloop
  endfacet
  facet normal -0.7988065878230699 -0.25954799386431626 0.5427180429389399
    outer loop
      vertex 3.2148810031289923 1.2728614340904825 -3
      vertex 3.3490625455947667 0.8598931098507864 -3
      vertex 3.8743326445145243 0.9947595486594192 -2.1623762376237625
    endloop
  endfacet
  facet normal -0.7599777699499795 -0.3576183930538014 0.5427180429389398
    outer loop
      vertex 3.0299988667670514 1.665755973144008 -3
      vertex 3.2148810031289923 1.2728614340904825 -3
      vertex 3.7191059435530054 1.472498210738712 -2.1623762376237625
    endloop
  endfacet
  facet normal -0.7091636486560636 -0.45004893655395534 0.5427180429389399
    outer loop
      vertex 2.797331838242607 2.032380545426667 -3
      vertex 3.0299988667670514 1.665755973144008 -3
      vertex 3.5052267201754543 1.9270146964068613 -2.1623762376237625
    endloop
  endfacet
  facet normal -0.49368962171198516 -0.679505469648629 0.54271804293894
    outer loop
      vertex 1.8527241872542999 2.9194261731781213 -3
      vertex 2.204016026092585 2.6641977125209015 -3
      vertex 2.549695958994759 3.0820529711031566 -2.162376237623763
    endloop
  endfacet
  facet normal -0.6471655929890117 -0.5353819394784513 0.5427180429389398
    outer loop
      vertex 2.5205492155840346 2.3669532624226584 -3
      vertex 2.797331838242607 2.032380545426667 -3
      vertex 3.23606797749979 2.3511410091698925 -2.162376237623763
    endloop
  endfacet
  facet normal -0.5749613493225371 -0.6122716493957029 0.5427180429389399
    outer loop
      vertex 2.204016026092585 2.6641977125209015 -3
      vertex 2.5205492155840346 2.3669532624226584 -3
      vertex 2.915874509685646 2.738188423714755 -2.1623762376237625
    endloop
  endfacet
  facet normal -0.10526925679910151 -0.8332919713050715 0.5427180429389398
    outer loop
      vertex 0.21711029637251003 3.4508693417577545 -3
      vertex 0.7495252583428984 3.929149002914755 -2.1623762376237625
      vertex 0.2511620781172531 3.9921069137130862 -2.1623762376237625
    endloop
  endfacet
  facet normal -0.20887835453367695 -0.8135274788695406 0.5427180429389397
    outer loop
      vertex 0.7495252583428984 3.929149002914755 -2.1623762376237625
      vertex 0.6479069300483323 3.3964470707888124 -3
      vertex 1.2360679774997898 3.804226065180614 -2.162376237623762
    endloop
  endfacet
  facet normal -0.30919331583937276 -0.7809331721144779 0.54271804293894
    outer loop
      vertex 1.2360679774997898 3.804226065180614 -2.162376237623762
      vertex 1.0684856843964528 3.288460800574396 -3
      vertex 1.703117166260291 3.619308209864078 -2.1623762376237625
    endloop
  endfacet
  facet normal -0.4046321138511497 -0.7360230827283051 0.54271804293894
    outer loop
      vertex 1.703117166260291 3.619308209864078 -2.1623762376237625
      vertex 1.4722137812192322 3.1286135391036596 -3
      vertex 2.1433071799159866 3.3773117020080603 -2.1623762376237625
    endloop
  endfacet
  facet normal -0.8382575712720258 -0.0527386961694318 0.5427180429389399
    outer loop
      vertex 4 0 -2.1623762376237625
      vertex 3.9684588052579115 0.501332934257217 -2.1623762376237625
      vertex 3.4304273710835216 0.43336375759349816 -3
    endloop
  endfacet
  facet normal -0.8250377486222651 -0.15738436776513495 0.5427180429389399
    outer loop
      vertex 3.9684588052579115 0.501332934257217 -2.1623762376237625
      vertex 3.8743326445145243 0.9947595486594192 -2.1623762376237625
      vertex 3.3490625455947667 0.8598931098507864 -3
    endloop
  endfacet
  facet normal -0.7599777699499795 -0.35761839305380144 0.5427180429389399
    outer loop
      vertex 3.7191059435530054 1.472498210738712 -2.1623762376237625
      vertex 3.5052267201754543 1.9270146964068613 -2.1623762376237625
      vertex 3.0299988667670514 1.665755973144008 -3
    endloop
  endfacet
  facet normal -0.79880658782307 -0.2595479938643164 0.5427180429389398
    outer loop
      vertex 3.8743326445145243 0.9947595486594192 -2.1623762376237625
      vertex 3.7191059435530054 1.472498210738712 -2.1623762376237625
      vertex 3.2148810031289923 1.2728614340904825 -3
    endloop
  endfacet
  facet normal -0.6471655929890117 -0.5353819394784513 0.5427180429389399
    outer loop
      vertex 3.23606797749979 2.3511410091698925 -2.162376237623763
      vertex 2.915874509685646 2.738188423714755 -2.1623762376237625
      vertex 2.5205492155840346 2.3669532624226584 -3
    endloop
  endfacet
  facet normal -0.5749613493225373 -0.6122716493957026 0.5427180429389401
    outer loop
      vertex 2.549695958994759 3.0820529711031566 -2.162376237623763
      vertex 2.204016026092585 2.6641977125209015 -3
      vertex 2.915874509685646 2.738188423714755 -2.1623762376237625
    endloop
  endfacet
  facet normal -0.493689621711985 -0.6795054696486291 0.5427180429389399
    outer loop
      vertex 2.1433071799159866 3.3773117020080603 -2.1623762376237625
      vertex 1.8527241872542999 2.9194261731781213 -3
      vertex 2.549695958994759 3.0820529711031566 -2.162376237623763
    endloop
  endfacet
  facet normal -0.7091636486560635 -0.45004893655395556 0.5427180429389398
    outer loop
      vertex 3.5052267201754543 1.9270146964068613 -2.1623762376237625
      vertex 3.23606797749979 2.3511410091698925 -2.162376237623763
      vertex 2.797331838242607 2.032380545426667 -3
    endloop
  endfacet
  facet normal 0 0 -1
    outer loop
      vertex -3.23606797749979 -2.3511410091698925 -3
      vertex -3.029998866767051 -1.6657559731440084 -3
      vertex -2.797331838242607 -2.032380545426667 -3
    endloop
  endfacet
  facet normal 0 0 -1
    outer loop
      vertex -2.5496959589947585 -3.0820529711031575 -3
      vertex -1.8527241872543005 -2.9194261731781213 -3
      vertex -2.143307179915987 -3.37731170200806 -3
    endloop
  endfacet
  facet normal 0 0 -1
    outer loop
      vertex -2.5496959589947585 -3.0820529711031575 -3
      vertex -2.9158745096856467 -2.738188423714754 -3
      vertex -2.520549215584035 -2.3669532624226575 -3
    endloop
  endfacet
  facet normal 0 0 -1
    outer loop
      vertex -3.23606797749979 -2.3511410091698925 -3
      vertex -2.797331838242607 -2.032380545426667 -3
      vertex -2.9158745096856467 -2.738188423714754 -3
    endloop
  endfacet
  facet normal 0 0 -1
    outer loop
      vertex -2.9158745096856467 -2.738188423714754 -3
      vertex -2.797331838242607 -2.032380545426667 -3
      vertex -2.520549215584035 -2.3669532624226575 -3
    endloop
  endfacet
  facet normal 0 0 -1
    outer loop
      vertex -2.5496959589947585 -3.0820529711031575 -3
      vertex -2.520549215584035 -2.3669532624226575 -3
      vertex -2.2040160260925847 -2.6641977125209024 -3
    endloop
  endfacet
  facet normal 0 0 -1
    outer loop
      vertex -2.5496959589947585 -3.0820529711031575 -3
      vertex -2.2040160260925847 -2.6641977125209024 -3
      vertex -1.8527241872543005 -2.9194261731781213 -3
    endloop
  endfacet
  facet normal -0.8443279255020154 -0.5358267949789961 0
    outer loop
      vertex -3.23606797749979 -2.3511410091698925 -3
      vertex -3.505226720175454 -1.9270146964068615 -2.1623762376237625
      vertex -3.505226720175454 -1.9270146964068615 -3
    endloop
  endfacet
  facet normal -0.7705132427757891 -0.6374239897486899 0
    outer loop
      vertex -3.23606797749979 -2.3511410091698925 -3
      vertex -2.9158745096856467 -2.738188423714754 -3
      vertex -3.23606797749979 -2.3511410091698925 -2.162376237623763
    endloop
  endfacet
  facet normal -0.5877852522924727 -0.8090169943749477 0
    outer loop
      vertex -2.5496959589947585 -3.0820529711031575 -3
      vertex -2.143307179915987 -3.37731170200806 -3
      vertex -2.5496959589947585 -3.0820529711031575 -2.1623762376237625
    endloop
  endfacet
  facet normal -0.6845471059286891 -0.7289686274214111 0
    outer loop
      vertex -2.5496959589947585 -3.0820529711031575 -3
      vertex -2.9158745096856467 -2.738188423714754 -2.162376237623763
      vertex -2.9158745096856467 -2.738188423714754 -3
    endloop
  endfacet
  facet normal 0 0 -1
    outer loop
      vertex -3.23606797749979 -2.3511410091698925 -3
      vertex -3.505226720175454 -1.9270146964068615 -3
      vertex -3.2148810031289927 -1.2728614340904825 -3
    endloop
  endfacet
  facet normal 0 0 -1
    outer loop
      vertex -3.23606797749979 -2.3511410091698925 -3
      vertex -3.2148810031289927 -1.2728614340904825 -3
      vertex -3.029998866767051 -1.6657559731440084 -3
    endloop
  endfacet
  facet normal 0 0 -1
    outer loop
      vertex -3.505226720175454 -1.9270146964068615 -3
      vertex -3.3490625455947667 -0.8598931098507866 -3
      vertex -3.2148810031289927 -1.2728614340904825 -3
    endloop
  endfacet
  facet normal 0 0 -1
    outer loop
      vertex -3.505226720175454 -1.9270146964068615 -3
      vertex -3.4304273710835216 -0.43336375759349754 -3
      vertex -3.3490625455947667 -0.8598931098507866 -3
    endloop
  endfacet
  facet normal 0 0 -1
    outer loop
      vertex -3.719105943553006 -1.4724982107387115 -3
      vertex -3.8743326445145243 -0.9947595486594194 -3
      vertex -3.719105943553006 1.4724982107387115 -3
    endloop
  endfacet
  facet normal 0 0 -1
    outer loop
      vertex -3.8743326445145243 -0.9947595486594194 -3
      vertex -3.9684588052579115 -0.5013329342572163 -3
      vertex -3.8743326445145243 0.9947595486594194 -3
    endloop
  endfacet
  facet normal 0 0 -1
    outer loop
      vertex -3.505226720175454 -1.9270146964068615 -3
      vertex -3.719105943553006 -1.4724982107387115 -3
      vertex -3.505226720175454 1.9270146964068615 -3
    endloop
  endfacet
  facet normal 0 0 -1
    outer loop
      vertex -3.505226720175454 -1.9270146964068615 -3
      vertex -3.457692307692308 0 -3
      vertex -3.4304273710835216 -0.43336375759349754 -3
    endloop
  endfacet
  facet normal -0.9048270524660192 -0.42577929156507316 0
    outer loop
      vertex -3.505226720175454 -1.9270146964068615 -3
      vertex -3.719105943553006 -1.4724982107387115 -2.1623762376237625
      vertex -3.719105943553006 -1.4724982107387115 -3
    endloop
  endfacet
  facet normal -0.9510565162951536 -0.309016994374947 0
    outer loop
      vertex -3.719105943553006 -1.4724982107387115 -3
      vertex -3.8743326445145243 -0.9947595486594194 -2.1623762376237625
      vertex -3.8743326445145243 -0.9947595486594194 -3
    endloop
  endfacet
  facet normal -0.9822872507286886 -0.18738131458572496 0
    outer loop
      vertex -3.8743326445145243 -0.9947595486594194 -3
      vertex -3.9684588052579115 -0.5013329342572163 -2.1623762376237625
      vertex -3.9684588052579115 -0.5013329342572163 -3
    endloop
  endfacet
  facet normal -0.9980267284282716 -0.0627905195293131 0
    outer loop
      vertex -3.9684588052579115 -0.5013329342572163 -3
      vertex -4 0 -2.1623762376237625
      vertex -4 0 -3
    endloop
  endfacet
  facet normal 0 0 -1
    outer loop
      vertex -2.143307179915987 -3.37731170200806 -3
      vertex -1.4722137812192313 -3.12861353910366 -3
      vertex -1.7031171662602897 -3.6193082098640783 -3
    endloop
  endfacet
  facet normal 0 0 -1
    outer loop
      vertex -2.143307179915987 -3.37731170200806 -3
      vertex -1.8527241872543005 -2.9194261731781213 -3
      vertex -1.4722137812192313 -3.12861353910366 -3
    endloop
  endfacet
  facet normal 0 0 -1
    outer loop
      vertex -1.7031171662602897 -3.6193082098640783 -3
      vertex -1.0684856843964528 -3.288460800574396 -3
      vertex -1.2360679774997896 -3.804226065180614 -3
    endloop
  endfacet
  facet normal 0 0 -1
    outer loop
      vertex -1.7031171662602897 -3.6193082098640783 -3
      vertex -1.4722137812192313 -3.12861353910366 -3
      vertex -1.0684856843964528 -3.288460800574396 -3
    endloop
  endfacet
  facet normal 0 0 -1
    outer loop
      vertex -1.2360679774997896 -3.804226065180614 -3
      vertex -0.6479069300483331 -3.396447070788812 -3
      vertex -0.7495252583428993 -3.9291490029147544 -3
    endloop
  endfacet
  facet normal 0 0 -1
    outer loop
      vertex -1.2360679774997896 -3.804226065180614 -3
      vertex -1.0684856843964528 -3.288460800574396 -3
      vertex -0.6479069300483331 -3.396447070788812 -3
    endloop
  endfacet
  facet normal 0 0 -1
    outer loop
      vertex -0.7495252583428993 -3.9291490029147544 -3
      vertex -0.6479069300483331 -3.396447070788812 -3
      vertex -0.2171102963725118 -3.4508693417577545 -3
    endloop
  endfacet
  facet normal 0 0 -1
    outer loop
      vertex -0.7495252583428993 -3.9291490029147544 -3
      vertex -0.2171102963725118 -3.4508693417577545 -3
      vertex -0.25116207811725505 -3.9921069137130862 -3
    endloop
  endfacet
  facet normal 0 0 -1
    outer loop
      vertex -0.25116207811725505 -3.9921069137130862 -3
      vertex -0.2171102963725118 -3.4508693417577545 -3
      vertex 0.2171102963725118 -3.4508693417577545 -3
    endloop
  endfacet
  facet normal -0.3681245526846778 -0.9297764858882515 0
    outer loop
      vertex -1.7031171662602897 -3.6193082098640783 -3
      vertex -1.2360679774997896 -3.804226065180614 -3
      vertex -1.7031171662602897 -3.6193082098640783 -2.1623762376237625
    endloop
  endfacet
  facet normal -0.4817536741017151 -0.8763066800438637 0
    outer loop
      vertex -2.143307179915987 -3.37731170200806 -3
      vertex -1.7031171662602897 -3.6193082098640783 -3
      vertex -2.143307179915987 -3.37731170200806 -2.1623762376237625
    endloop
  endfacet
  facet normal -0.24868988716485502 -0.9685831611286312 -6.592488205888243e-17
    outer loop
      vertex -1.2360679774997896 -3.804226065180614 -3
      vertex -0.7495252583428993 -3.9291490029147544 -3
      vertex -1.2360679774997898 -3.804226065180614 -2.162376237623762
    endloop
  endfacet
  facet normal -0.12533323356430495 -0.9921147013144777 0
    outer loop
      vertex -0.7495252583428993 -3.9291490029147544 -3
      vertex -0.25116207811725505 -3.9921069137130862 -3
      vertex -0.7495252583428993 -3.9291490029147544 -2.1623762376237625
    endloop
  endfacet
  facet normal 0 -1 0
    outer loop
      vertex -0.25116207811725505 -3.9921069137130862 -3
      vertex 0.25116207811725505 -3.9921069137130862 -3
      vertex -0.25116207811725505 -3.9921069137130862 -2.1623762376237625
    endloop
  endfacet
  facet normal -0.7705132427757891 -0.6374239897486899 0
    outer loop
      vertex -2.9158745096856467 -2.738188423714754 -3
      vertex -2.9158745096856467 -2.738188423714754 -2.162376237623763
      vertex -3.23606797749979 -2.3511410091698925 -2.162376237623763
    endloop
  endfacet
  facet normal -0.8443279255020153 -0.5358267949789961 0
    outer loop
      vertex -3.23606797749979 -2.3511410091698925 -3
      vertex -3.23606797749979 -2.3511410091698925 -2.162376237623763
      vertex -3.505226720175454 -1.9270146964068615 -2.1623762376237625
    endloop
  endfacet
  facet normal -0.5877852522924727 -0.8090169943749477 0
    outer loop
      vertex -2.143307179915987 -3.37731170200806 -3
      vertex -2.143307179915987 -3.37731170200806 -2.1623762376237625
      vertex -2.5496959589947585 -3.0820529711031575 -2.1623762376237625
    endloop
  endfacet
  facet normal -0.6845471059286892 -0.7289686274214112 0
    outer loop
      vertex -2.5496959589947585 -3.0820529711031575 -3
      vertex -2.5496959589947585 -3.0820529711031575 -2.1623762376237625
      vertex -2.9158745096856467 -2.738188423714754 -2.162376237623763
    endloop
  endfacet
  facet normal -0.9048270524660192 -0.42577929156507316 0
    outer loop
      vertex -3.505226720175454 -1.9270146964068615 -3
      vertex -3.505226720175454 -1.9270146964068615 -2.1623762376237625
      vertex -3.719105943553006 -1.4724982107387115 -2.1623762376237625
    endloop
  endfacet
  facet normal -0.9510565162951536 -0.309016994374947 0
    outer loop
      vertex -3.719105943553006 -1.4724982107387115 -3
      vertex -3.719105943553006 -1.4724982107387115 -2.1623762376237625
      vertex -3.8743326445145243 -0.9947595486594194 -2.1623762376237625
    endloop
  endfacet
  facet normal -0.9822872507286886 -0.18738131458572496 0
    outer loop
      vertex -3.8743326445145243 -0.9947595486594194 -3
      vertex -3.8743326445145243 -0.9947595486594194 -2.1623762376237625
      vertex -3.9684588052579115 -0.5013329342572163 -2.1623762376237625
    endloop
  endfacet
  facet normal -0.9980267284282716 -0.0627905195293131 0
    outer loop
      vertex -3.9684588052579115 -0.5013329342572163 -3
      vertex -3.9684588052579115 -0.5013329342572163 -2.1623762376237625
      vertex -4 0 -2.1623762376237625
    endloop
  endfacet
  facet normal -0.4817536741017151 -0.8763066800438637 0
    outer loop
      vertex -1.7031171662602897 -3.6193082098640783 -3
      vertex -1.7031171662602897 -3.6193082098640783 -2.1623762376237625
      vertex -2.143307179915987 -3.37731170200806 -2.1623762376237625
    endloop
  endfacet
  facet normal -0.3681245526846779 -0.9297764858882513 -9.758566379753415e-17
    outer loop
      vertex -1.2360679774997896 -3.804226065180614 -3
      vertex -1.2360679774997898 -3.804226065180614 -2.162376237623762
      vertex -1.7031171662602897 -3.6193082098640783 -2.1623762376237625
    endloop
  endfacet
  facet normal -0.24868988716485488 -0.9685831611286312 0
    outer loop
      vertex -0.7495252583428993 -3.9291490029147544 -3
      vertex -0.7495252583428993 -3.9291490029147544 -2.1623762376237625
      vertex -1.2360679774997898 -3.804226065180614 -2.162376237623762
    endloop
  endfacet
  facet normal -0.12533323356430495 -0.9921147013144777 0
    outer loop
      vertex -0.25116207811725505 -3.9921069137130862 -3
      vertex -0.25116207811725505 -3.9921069137130862 -2.1623762376237625
      vertex -0.7495252583428993 -3.9291490029147544 -2.1623762376237625
    endloop
  endfacet
  facet normal 0 0 -1
    outer loop
      vertex -3.9684588052579115 -0.5013329342572163 -3
      vertex -4 0 -3
      vertex -3.9684588052579115 0.5013329342572163 -3
    endloop
  endfacet
  facet normal 0 0 -1
    outer loop
      vertex -3.9684588052579115 -0.5013329342572163 -3
      vertex -3.9684588052579115 0.5013329342572163 -3
      vertex -3.8743326445145243 0.9947595486594194 -3
    endloop
  endfacet
  facet normal 0 0 -1
    outer loop
      vertex -3.8743326445145243 -0.9947595486594194 -3
      vertex -3.8743326445145243 0.9947595486594194 -3
      vertex -3.719105943553006 1.4724982107387115 -3
    endloop
  endfacet
  facet normal 0 0 -1
    outer loop
      vertex -3.719105943553006 -1.4724982107387115 -3
      vertex -3.719105943553006 1.4724982107387115 -3
      vertex -3.505226720175454 1.9270146964068615 -3
    endloop
  endfacet
  facet normal 0 0 -1
    outer loop
      vertex -3.505226720175454 -1.9270146964068615 -3
      vertex -3.505226720175454 1.9270146964068615 -3
      vertex -3.457692307692308 0 -3
    endloop
  endfacet
  facet normal 0 0 -1
    outer loop
      vertex -3.505226720175454 1.9270146964068615 -3
      vertex -3.4304273710835216 0.4333637575934975 -3
      vertex -3.457692307692308 0 -3
    endloop
  endfacet
  facet normal 0 0 -1
    outer loop
      vertex -3.505226720175454 1.9270146964068615 -3
      vertex -3.3490625455947667 0.8598931098507866 -3
      vertex -3.4304273710835216 0.4333637575934975 -3
    endloop
  endfacet
  facet normal 0 0 -1
    outer loop
      vertex -3.23606797749979 2.3511410091698925 -3
      vertex -3.2148810031289927 1.2728614340904825 -3
      vertex -3.3490625455947667 0.8598931098507866 -3
    endloop
  endfacet
  facet normal 0 0 -1
    outer loop
      vertex -3.505226720175454 1.9270146964068615 -3
      vertex -3.23606797749979 2.3511410091698925 -3
      vertex -3.3490625455947667 0.8598931098507866 -3
    endloop
  endfacet
  facet normal 0 0 -1
    outer loop
      vertex -3.23606797749979 2.3511410091698925 -3
      vertex -3.0299988667670505 1.6657559731440084 -3
      vertex -3.2148810031289927 1.2728614340904825 -3
    endloop
  endfacet
  facet normal -0.9980267284282716 0.0627905195293131 0
    outer loop
      vertex -4 0 -3
      vertex -3.9684588052579115 0.5013329342572163 -2.1623762376237625
      vertex -3.9684588052579115 0.5013329342572163 -3
    endloop
  endfacet
  facet normal -0.9822872507286886 0.18738131458572496 0
    outer loop
      vertex -3.9684588052579115 0.5013329342572163 -3
      vertex -3.8743326445145243 0.9947595486594194 -2.1623762376237625
      vertex -3.8743326445145243 0.9947595486594194 -3
    endloop
  endfacet
  facet normal -0.9510565162951536 0.309016994374947 -9.894832454506334e-17
    outer loop
      vertex -3.8743326445145243 0.9947595486594194 -3
      vertex -3.719105943553006 1.4724982107387117 -2.1623762376237625
      vertex -3.719105943553006 1.4724982107387115 -3
    endloop
  endfacet
  facet normal -0.9048270524660192 0.42577929156507316 -9.894832454506301e-17
    outer loop
      vertex -3.719105943553006 1.4724982107387115 -3
      vertex -3.505226720175454 1.9270146964068617 -2.1623762376237625
      vertex -3.505226720175454 1.9270146964068615 -3
    endloop
  endfacet
  facet normal 0 0 -1
    outer loop
      vertex -3.23606797749979 2.3511410091698925 -3
      vertex -2.9158745096856467 2.738188423714754 -3
      vertex -3.0299988667670505 1.6657559731440084 -3
    endloop
  endfacet
  facet normal 0 0 -1
    outer loop
      vertex -2.9158745096856467 2.738188423714754 -3
      vertex -2.797331838242607 2.032380545426667 -3
      vertex -3.0299988667670505 1.6657559731440084 -3
    endloop
  endfacet
  facet normal 0 0 -1
    outer loop
      vertex -2.5496959589947585 3.0820529711031575 -3
      vertex -2.520549215584035 2.3669532624226575 -3
      vertex -2.797331838242607 2.032380545426667 -3
    endloop
  endfacet
  facet normal 0 0 -1
    outer loop
      vertex -2.9158745096856467 2.738188423714754 -3
      vertex -2.5496959589947585 3.0820529711031575 -3
      vertex -2.797331838242607 2.032380545426667 -3
    endloop
  endfacet
  facet normal 0 0 -1
    outer loop
      vertex -2.5496959589947585 3.0820529711031575 -3
      vertex -2.2040160260925847 2.6641977125209024 -3
      vertex -2.520549215584035 2.3669532624226575 -3
    endloop
  endfacet
  facet normal 0 0 -1
    outer loop
      vertex -2.143307179915987 3.37731170200806 -3
      vertex -1.8527241872543003 2.9194261731781213 -3
      vertex -2.2040160260925847 2.6641977125209024 -3
    endloop
  endfacet
  facet normal 0 0 -1
    outer loop
      vertex -2.5496959589947585 3.0820529711031575 -3
      vertex -2.143307179915987 3.37731170200806 -3
      vertex -2.2040160260925847 2.6641977125209024 -3
    endloop
  endfacet
  facet normal -0.8443279255020153 0.5358267949789961 0
    outer loop
      vertex -3.505226720175454 1.9270146964068615 -3
      vertex -3.23606797749979 2.3511410091698925 -2.162376237623763
      vertex -3.23606797749979 2.3511410091698925 -3
    endloop
  endfacet
  facet normal -0.7705132427757891 0.6374239897486899 0
    outer loop
      vertex -3.23606797749979 2.3511410091698925 -3
      vertex -2.9158745096856467 2.738188423714754 -2.162376237623763
      vertex -2.9158745096856467 2.738188423714754 -3
    endloop
  endfacet
  facet normal -0.6845471059286892 0.7289686274214112 0
    outer loop
      vertex -2.9158745096856467 2.738188423714754 -3
      vertex -2.5496959589947585 3.0820529711031575 -2.1623762376237625
      vertex -2.5496959589947585 3.0820529711031575 -3
    endloop
  endfacet
  facet normal -0.5877852522924727 0.8090169943749477 0
    outer loop
      vertex -2.5496959589947585 3.0820529711031575 -3
      vertex -2.143307179915987 3.37731170200806 -2.1623762376237625
      vertex -2.143307179915987 3.37731170200806 -3
    endloop
  endfacet
  facet normal 0 0 -1
    outer loop
      vertex -2.143307179915987 3.37731170200806 -3
      vertex -1.7031171662602909 3.619308209864078 -3
      vertex -1.8527241872543003 2.9194261731781213 -3
    endloop
  endfacet
  facet normal 0 0 -1
    outer loop
      vertex -1.7031171662602909 3.619308209864078 -3
      vertex -1.4722137812192324 3.1286135391036596 -3
      vertex -1.8527241872543003 2.9194261731781213 -3
    endloop
  endfacet
  facet normal 0 0 -1
    outer loop
      vertex -1.2360679774997896 3.804226065180614 -3
      vertex -1.0684856843964528 3.288460800574396 -3
      vertex -1.4722137812192324 3.1286135391036596 -3
    endloop
  endfacet
  facet normal 0 0 -1
    outer loop
      vertex -1.7031171662602909 3.619308209864078 -3
      vertex -1.2360679774997896 3.804226065180614 -3
      vertex -1.4722137812192324 3.1286135391036596 -3
    endloop
  endfacet
  facet normal 0 0 -1
    outer loop
      vertex -1.2360679774997896 3.804226065180614 -3
      vertex -0.7495252583428983 3.929149002914755 -3
      vertex -1.0684856843964528 3.288460800574396 -3
    endloop
  endfacet
  facet normal 0 0 -1
    outer loop
      vertex -0.7495252583428983 3.929149002914755 -3
      vertex -0.6479069300483323 3.396447070788812 -3
      vertex -1.0684856843964528 3.288460800574396 -3
    endloop
  endfacet
  facet normal 0 0 -1
    outer loop
      vertex -0.7495252583428983 3.929149002914755 -3
      vertex -0.2511620781172531 3.9921069137130862 -3
      vertex -0.6479069300483323 3.396447070788812 -3
    endloop
  endfacet
  facet normal 0 0 -1
    outer loop
      vertex -0.2511620781172531 3.9921069137130862 -3
      vertex -0.21711029637251014 3.4508693417577545 -3
      vertex -0.6479069300483323 3.396447070788812 -3
    endloop
  endfacet
  facet normal 0 0 -1
    outer loop
      vertex -0.2511620781172531 3.9921069137130862 -3
      vertex 0.2511620781172531 3.9921069137130862 -3
      vertex -0.21711029637251014 3.4508693417577545 -3
    endloop
  endfacet
  facet normal -0.4817536741017153 0.8763066800438636 0
    outer loop
      vertex -2.143307179915987 3.37731170200806 -3
      vertex -1.7031171662602909 3.619308209864078 -2.1623762376237625
      vertex -1.7031171662602909 3.619308209864078 -3
    endloop
  endfacet
  facet normal -0.3681245526846778 0.9297764858882515 0
    outer loop
      vertex -1.7031171662602909 3.619308209864078 -3
      vertex -1.2360679774997896 3.804226065180614 -2.162376237623762
      vertex -1.2360679774997896 3.804226065180614 -3
    endloop
  endfacet
  facet normal -0.24868988716485535 0.968583161128631 0
    outer loop
      vertex -1.2360679774997896 3.804226065180614 -3
      vertex -0.7495252583428983 3.929149002914755 -2.162376237623762
      vertex -0.7495252583428983 3.929149002914755 -3
    endloop
  endfacet
  facet normal -0.12533323356430387 0.992114701314478 0
    outer loop
      vertex -0.7495252583428983 3.929149002914755 -3
      vertex -0.2511620781172531 3.9921069137130862 -2.1623762376237625
      vertex -0.2511620781172531 3.9921069137130862 -3
    endloop
  endfacet
  facet normal -0.9980267284282716 0.0627905195293131 0
    outer loop
      vertex -4 0 -3
      vertex -4 0 -2.1623762376237625
      vertex -3.9684588052579115 0.5013329342572163 -2.1623762376237625
    endloop
  endfacet
  facet normal -0.9822872507286886 0.18738131458572496 0
    outer loop
      vertex -3.9684588052579115 0.5013329342572163 -3
      vertex -3.9684588052579115 0.5013329342572163 -2.1623762376237625
      vertex -3.8743326445145243 0.9947595486594194 -2.1623762376237625
    endloop
  endfacet
  facet normal -0.9510565162951536 0.3090169943749469 0
    outer loop
      vertex -3.8743326445145243 0.9947595486594194 -3
      vertex -3.8743326445145243 0.9947595486594194 -2.1623762376237625
      vertex -3.719105943553006 1.4724982107387117 -2.1623762376237625
    endloop
  endfacet
  facet normal -0.9048270524660192 0.42577929156507316 -1.1286928431044286e-16
    outer loop
      vertex -3.719105943553006 1.4724982107387115 -3
      vertex -3.719105943553006 1.4724982107387117 -2.1623762376237625
      vertex -3.505226720175454 1.9270146964068617 -2.1623762376237625
    endloop
  endfacet
  facet normal -0.8443279255020153 0.5358267949789963 -1.4204163533020163e-16
    outer loop
      vertex -3.505226720175454 1.9270146964068615 -3
      vertex -3.505226720175454 1.9270146964068617 -2.1623762376237625
      vertex -3.23606797749979 2.3511410091698925 -2.162376237623763
    endloop
  endfacet
  facet normal -0.7705132427757891 0.6374239897486899 0
    outer loop
      vertex -3.23606797749979 2.3511410091698925 -3
      vertex -3.23606797749979 2.3511410091698925 -2.162376237623763
      vertex -2.9158745096856467 2.738188423714754 -2.162376237623763
    endloop
  endfacet
  facet normal -0.6845471059286891 0.7289686274214111 0
    outer loop
      vertex -2.9158745096856467 2.738188423714754 -3
      vertex -2.9158745096856467 2.738188423714754 -2.162376237623763
      vertex -2.5496959589947585 3.0820529711031575 -2.1623762376237625
    endloop
  endfacet
  facet normal -0.5877852522924727 0.8090169943749477 0
    outer loop
      vertex -2.5496959589947585 3.0820529711031575 -3
      vertex -2.5496959589947585 3.0820529711031575 -2.1623762376237625
      vertex -2.143307179915987 3.37731170200806 -2.1623762376237625
    endloop
  endfacet
  facet normal -0.4817536741017153 0.8763066800438636 0
    outer loop
      vertex -2.143307179915987 3.37731170200806 -3
      vertex -2.143307179915987 3.37731170200806 -2.1623762376237625
      vertex -1.7031171662602909 3.619308209864078 -2.1623762376237625
    endloop
  endfacet
  facet normal -0.3681245526846778 0.9297764858882513 0
    outer loop
      vertex -1.7031171662602909 3.619308209864078 -3
      vertex -1.7031171662602909 3.619308209864078 -2.1623762376237625
      vertex -1.2360679774997896 3.804226065180614 -2.162376237623762
    endloop
  endfacet
  facet normal -0.24868988716485535 0.968583161128631 0
    outer loop
      vertex -1.2360679774997896 3.804226065180614 -3
      vertex -1.2360679774997896 3.804226065180614 -2.162376237623762
      vertex -0.7495252583428983 3.929149002914755 -2.162376237623762
    endloop
  endfacet
  facet normal -0.12533323356430387 0.992114701314478 0
    outer loop
      vertex -0.7495252583428983 3.929149002914755 -3
      vertex -0.7495252583428983 3.929149002914755 -2.162376237623762
      vertex -0.2511620781172531 3.9921069137130862 -2.1623762376237625
    endloop
  endfacet
  facet normal 0 1 0
    outer loop
      vertex -0.2511620781172531 3.9921069137130862 -3
      vertex -0.2511620781172531 3.9921069137130862 -2.1623762376237625
      vertex 0.2511620781172531 3.9921069137130862 -2.1623762376237625
    endloop
  endfacet
  facet normal 0 0 -1
    outer loop
      vertex -0.25116207811725505 -3.9921069137130862 -3
      vertex 0.2171102963725118 -3.4508693417577545 -3
      vertex 0.25116207811725505 -3.9921069137130862 -3
    endloop
  endfacet
  facet normal 0 0 -1
    outer loop
      vertex 0.25116207811725505 -3.9921069137130862 -3
      vertex 0.2171102963725118 -3.4508693417577545 -3
      vertex 0.6479069300483331 -3.396447070788812 -3
    endloop
  endfacet
  facet normal 0 0 -1
    outer loop
      vertex 0.25116207811725505 -3.9921069137130862 -3
      vertex 0.6479069300483331 -3.396447070788812 -3
      vertex 0.7495252583428993 -3.9291490029147544 -3
    endloop
  endfacet
  facet normal 0 0 -1
    outer loop
      vertex 0.7495252583428993 -3.9291490029147544 -3
      vertex 0.6479069300483331 -3.396447070788812 -3
      vertex 1.0684856843964528 -3.288460800574396 -3
    endloop
  endfacet
  facet normal 0 0 -1
    outer loop
      vertex 0.7495252583428993 -3.9291490029147544 -3
      vertex 1.0684856843964528 -3.288460800574396 -3
      vertex 1.2360679774997896 -3.804226065180614 -3
    endloop
  endfacet
  facet normal 0 0 -1
    outer loop
      vertex 1.2360679774997896 -3.804226065180614 -3
      vertex 1.4722137812192313 -3.12861353910366 -3
      vertex 1.7031171662602897 -3.6193082098640783 -3
    endloop
  endfacet
  facet normal 0 0 -1
    outer loop
      vertex 1.2360679774997896 -3.804226065180614 -3
      vertex 1.0684856843964528 -3.288460800574396 -3
      vertex 1.4722137812192313 -3.12861353910366 -3
    endloop
  endfacet
  facet normal 0 0 -1
    outer loop
      vertex 1.7031171662602897 -3.6193082098640783 -3
      vertex 1.4722137812192313 -3.12861353910366 -3
      vertex 1.8527241872542985 -2.919426173178122 -3
    endloop
  endfacet
  facet normal 0 0 -1
    outer loop
      vertex 1.7031171662602897 -3.6193082098640783 -3
      vertex 1.8527241872542985 -2.919426173178122 -3
      vertex 2.143307179915985 -3.377311702008061 -3
    endloop
  endfacet
  facet normal 0.12533323356430495 -0.9921147013144777 0
    outer loop
      vertex 0.25116207811725505 -3.9921069137130862 -3
      vertex 0.7495252583428993 -3.9291490029147544 -3
      vertex 0.25116207811725505 -3.9921069137130862 -2.1623762376237625
    endloop
  endfacet
  facet normal 0.248689887164855 -0.968583161128631 0
    outer loop
      vertex 0.7495252583428993 -3.9291490029147544 -3
      vertex 1.2360679774997896 -3.804226065180614 -3
      vertex 0.7495252583428993 -3.9291490029147544 -2.1623762376237625
    endloop
  endfacet
  facet normal 0.3681245526846778 -0.9297764858882515 0
    outer loop
      vertex 1.2360679774997896 -3.804226065180614 -3
      vertex 1.7031171662602897 -3.6193082098640783 -3
      vertex 1.2360679774997896 -3.804226065180614 -2.162376237623762
    endloop
  endfacet
  facet normal 0.48175367410171493 -0.8763066800438639 0
    outer loop
      vertex 1.7031171662602897 -3.6193082098640783 -3
      vertex 2.143307179915985 -3.377311702008061 -3
      vertex 1.7031171662602897 -3.6193082098640783 -2.1623762376237625
    endloop
  endfacet
  facet normal 0 0 -1
    outer loop
      vertex 2.143307179915985 -3.377311702008061 -3
      vertex 2.2040160260925856 -2.664197712520901 -3
      vertex 2.54969595899476 -3.082052971103156 -3
    endloop
  endfacet
  facet normal 0 0 -1
    outer loop
      vertex 2.143307179915985 -3.377311702008061 -3
      vertex 1.8527241872542985 -2.919426173178122 -3
      vertex 2.2040160260925856 -2.664197712520901 -3
    endloop
  endfacet
  facet normal 0 0 -1
    outer loop
      vertex 2.54969595899476 -3.082052971103156 -3
      vertex 2.2040160260925856 -2.664197712520901 -3
      vertex 2.520549215584035 -2.366953262422658 -3
    endloop
  endfacet
  facet normal 0 0 -1
    outer loop
      vertex 2.54969595899476 -3.082052971103156 -3
      vertex 2.797331838242607 -2.032380545426667 -3
      vertex 2.9158745096856467 -2.738188423714754 -3
    endloop
  endfacet
  facet normal 0 0 -1
    outer loop
      vertex 2.54969595899476 -3.082052971103156 -3
      vertex 2.520549215584035 -2.366953262422658 -3
      vertex 2.797331838242607 -2.032380545426667 -3
    endloop
  endfacet
  facet normal 0 0 -1
    outer loop
      vertex 2.9158745096856467 -2.738188423714754 -3
      vertex 2.797331838242607 -2.032380545426667 -3
      vertex 3.0299988667670505 -1.6657559731440084 -3
    endloop
  endfacet
  facet normal 0 0 -1
    outer loop
      vertex 2.9158745096856467 -2.738188423714754 -3
      vertex 3.0299988667670505 -1.6657559731440084 -3
      vertex 3.23606797749979 -2.3511410091698925 -3
    endloop
  endfacet
  facet normal 0.5877852522924728 -0.8090169943749477 0
    outer loop
      vertex 2.143307179915985 -3.377311702008061 -3
      vertex 2.54969595899476 -3.082052971103156 -3
      vertex 2.143307179915985 -3.377311702008061 -2.1623762376237625
    endloop
  endfacet
  facet normal 0.6845471059286891 -0.7289686274214112 0
    outer loop
      vertex 2.54969595899476 -3.082052971103156 -3
      vertex 2.9158745096856467 -2.738188423714754 -3
      vertex 2.54969595899476 -3.082052971103156 -2.1623762376237625
    endloop
  endfacet
  facet normal 0.7705132427757891 -0.6374239897486899 0
    outer loop
      vertex 2.9158745096856467 -2.738188423714754 -3
      vertex 3.23606797749979 -2.3511410091698925 -3
      vertex 2.9158745096856467 -2.738188423714754 -2.162376237623763
    endloop
  endfacet
  facet normal 0.8443279255020153 -0.5358267949789961 0
    outer loop
      vertex 3.23606797749979 -2.3511410091698925 -3
      vertex 3.505226720175454 -1.9270146964068615 -3
      vertex 3.23606797749979 -2.3511410091698925 -2.162376237623763
    endloop
  endfacet
  facet normal 0 0 -1
    outer loop
      vertex 3.23606797749979 -2.3511410091698925 -3
      vertex 3.0299988667670505 -1.6657559731440084 -3
      vertex 3.214881003128992 -1.2728614340904842 -3
    endloop
  endfacet
  facet normal 0 0 -1
    outer loop
      vertex 3.23606797749979 -2.3511410091698925 -3
      vertex 3.349062545594767 -0.8598931098507852 -3
      vertex 3.505226720175454 -1.9270146964068615 -3
    endloop
  endfacet
  facet normal 0 0 -1
    outer loop
      vertex 3.23606797749979 -2.3511410091698925 -3
      vertex 3.214881003128992 -1.2728614340904842 -3
      vertex 3.349062545594767 -0.8598931098507852 -3
    endloop
  endfacet
  facet normal 0 0 -1
    outer loop
      vertex 3.505226720175454 -1.9270146964068615 -3
      vertex 3.349062545594767 -0.8598931098507852 -3
      vertex 3.4304273710835216 -0.43336375759349754 -3
    endloop
  endfacet
  facet normal 0 0 -1
    outer loop
      vertex 3.505226720175454 -1.9270146964068615 -3
      vertex 3.4304273710835216 -0.43336375759349754 -3
      vertex 3.457692307692308 0 -3
    endloop
  endfacet
  facet normal 0 0 -1
    outer loop
      vertex 3.505226720175454 -1.9270146964068615 -3
      vertex 3.7191059435530054 1.472498210738712 -3
      vertex 3.719105943553005 -1.4724982107387135 -3
    endloop
  endfacet
  facet normal 0 0 -1
    outer loop
      vertex 3.719105943553005 -1.4724982107387135 -3
      vertex 3.8743326445145243 0.9947595486594192 -3
      vertex 3.8743326445145247 -0.9947595486594177 -3
    endloop
  endfacet
  facet normal 0 0 -1
    outer loop
      vertex 3.8743326445145247 -0.9947595486594177 -3
      vertex 3.9684588052579115 0.501332934257217 -3
      vertex 3.9684588052579115 -0.5013329342572163 -3
    endloop
  endfacet
  facet normal 0.9048270524660192 -0.4257792915650732 -1.1286928431044288e-16
    outer loop
      vertex 3.505226720175454 -1.9270146964068615 -3
      vertex 3.719105943553005 -1.4724982107387135 -3
      vertex 3.505226720175454 -1.9270146964068617 -2.1623762376237625
    endloop
  endfacet
  facet normal 0.9510565162951536 -0.3090169943749474 0
    outer loop
      vertex 3.719105943553005 -1.4724982107387135 -3
      vertex 3.8743326445145247 -0.9947595486594177 -3
      vertex 3.719105943553005 -1.4724982107387135 -2.1623762376237625
    endloop
  endfacet
  facet normal 0.9822872507286886 -0.1873813145857247 0
    outer loop
      vertex 3.8743326445145247 -0.9947595486594177 -3
      vertex 3.9684588052579115 -0.5013329342572163 -3
      vertex 3.8743326445145247 -0.9947595486594177 -2.1623762376237625
    endloop
  endfacet
  facet normal 0.9980267284282716 -0.0627905195293131 0
    outer loop
      vertex 3.9684588052579115 -0.5013329342572163 -3
      vertex 4 0 -3
      vertex 3.9684588052579115 -0.5013329342572163 -2.1623762376237625
    endloop
  endfacet
  facet normal 0 -1 0
    outer loop
      vertex 0.25116207811725505 -3.9921069137130862 -3
      vertex 0.25116207811725505 -3.9921069137130862 -2.1623762376237625
      vertex -0.25116207811725505 -3.9921069137130862 -2.1623762376237625
    endloop
  endfacet
  facet normal 0.12533323356430495 -0.9921147013144777 0
    outer loop
      vertex 0.7495252583428993 -3.9291490029147544 -3
      vertex 0.7495252583428993 -3.9291490029147544 -2.1623762376237625
      vertex 0.25116207811725505 -3.9921069137130862 -2.1623762376237625
    endloop
  endfacet
  facet normal 0.24868988716485502 -0.9685831611286312 0
    outer loop
      vertex 1.2360679774997896 -3.804226065180614 -3
      vertex 1.2360679774997896 -3.804226065180614 -2.162376237623762
      vertex 0.7495252583428993 -3.9291490029147544 -2.1623762376237625
    endloop
  endfacet
  facet normal 0.3681245526846778 -0.9297764858882515 0
    outer loop
      vertex 1.7031171662602897 -3.6193082098640783 -3
      vertex 1.7031171662602897 -3.6193082098640783 -2.1623762376237625
      vertex 1.2360679774997896 -3.804226065180614 -2.162376237623762
    endloop
  endfacet
  facet normal 0.48175367410171493 -0.8763066800438639 0
    outer loop
      vertex 2.143307179915985 -3.377311702008061 -3
      vertex 2.143307179915985 -3.377311702008061 -2.1623762376237625
      vertex 1.7031171662602897 -3.6193082098640783 -2.1623762376237625
    endloop
  endfacet
  facet normal 0.5877852522924728 -0.8090169943749477 0
    outer loop
      vertex 2.54969595899476 -3.082052971103156 -3
      vertex 2.54969595899476 -3.082052971103156 -2.1623762376237625
      vertex 2.143307179915985 -3.377311702008061 -2.1623762376237625
    endloop
  endfacet
  facet normal 0.6845471059286891 -0.7289686274214112 0
    outer loop
      vertex 2.9158745096856467 -2.738188423714754 -3
      vertex 2.9158745096856467 -2.738188423714754 -2.162376237623763
      vertex 2.54969595899476 -3.082052971103156 -2.1623762376237625
    endloop
  endfacet
  facet normal 0.7705132427757891 -0.6374239897486899 0
    outer loop
      vertex 3.23606797749979 -2.3511410091698925 -3
      vertex 3.23606797749979 -2.3511410091698925 -2.162376237623763
      vertex 2.9158745096856467 -2.738188423714754 -2.162376237623763
    endloop
  endfacet
  facet normal 0.8443279255020153 -0.5358267949789963 -1.4204163533020163e-16
    outer loop
      vertex 3.505226720175454 -1.9270146964068615 -3
      vertex 3.505226720175454 -1.9270146964068617 -2.1623762376237625
      vertex 3.23606797749979 -2.3511410091698925 -2.162376237623763
    endloop
  endfacet
  facet normal 0.9048270524660194 -0.42577929156507305 0
    outer loop
      vertex 3.719105943553005 -1.4724982107387135 -3
      vertex 3.719105943553005 -1.4724982107387135 -2.1623762376237625
      vertex 3.505226720175454 -1.9270146964068617 -2.1623762376237625
    endloop
  endfacet
  facet normal 0.9510565162951536 -0.3090169943749474 0
    outer loop
      vertex 3.8743326445145247 -0.9947595486594177 -3
      vertex 3.8743326445145247 -0.9947595486594177 -2.1623762376237625
      vertex 3.719105943553005 -1.4724982107387135 -2.1623762376237625
    endloop
  endfacet
  facet normal 0.9822872507286886 -0.1873813145857247 0
    outer loop
      vertex 3.9684588052579115 -0.5013329342572163 -3
      vertex 3.9684588052579115 -0.5013329342572163 -2.1623762376237625
      vertex 3.8743326445145247 -0.9947595486594177 -2.1623762376237625
    endloop
  endfacet
  facet normal 0.9980267284282716 -0.0627905195293131 0
    outer loop
      vertex 4 0 -3
      vertex 4 0 -2.1623762376237625
      vertex 3.9684588052579115 -0.5013329342572163 -2.1623762376237625
    endloop
  endfacet
  facet normal 0 0 -1
    outer loop
      vertex 0.2511620781172531 3.9921069137130862 -3
      vertex 0.21711029637251003 3.4508693417577545 -3
      vertex -0.21711029637251014 3.4508693417577545 -3
    endloop
  endfacet
  facet normal 0 0 -1
    outer loop
      vertex 0.2511620781172531 3.9921069137130862 -3
      vertex 0.7495252583428983 3.929149002914755 -3
      vertex 0.21711029637251003 3.4508693417577545 -3
    endloop
  endfacet
  facet normal 0 0 -1
    outer loop
      vertex 0.7495252583428983 3.929149002914755 -3
      vertex 0.6479069300483323 3.3964470707888124 -3
      vertex 0.21711029637251003 3.4508693417577545 -3
    endloop
  endfacet
  facet normal 0 0 -1
    outer loop
      vertex 1.2360679774997896 3.804226065180614 -3
      vertex 1.0684856843964528 3.288460800574396 -3
      vertex 0.6479069300483323 3.3964470707888124 -3
    endloop
  endfacet
  facet normal 0 0 -1
    outer loop
      vertex 0.7495252583428983 3.929149002914755 -3
      vertex 1.2360679774997896 3.804226065180614 -3
      vertex 0.6479069300483323 3.3964470707888124 -3
    endloop
  endfacet
  facet normal 0 0 -1
    outer loop
      vertex 1.7031171662602909 3.619308209864078 -3
      vertex 1.4722137812192322 3.1286135391036596 -3
      vertex 1.0684856843964528 3.288460800574396 -3
    endloop
  endfacet
  facet normal 0 0 -1
    outer loop
      vertex 1.2360679774997896 3.804226065180614 -3
      vertex 1.7031171662602909 3.619308209864078 -3
      vertex 1.0684856843964528 3.288460800574396 -3
    endloop
  endfacet
  facet normal 0 0 -1
    outer loop
      vertex 2.1433071799159866 3.3773117020080603 -3
      vertex 1.8527241872542999 2.9194261731781213 -3
      vertex 1.4722137812192322 3.1286135391036596 -3
    endloop
  endfacet
  facet normal 0 0 -1
    outer loop
      vertex 1.7031171662602909 3.619308209864078 -3
      vertex 2.1433071799159866 3.3773117020080603 -3
      vertex 1.4722137812192322 3.1286135391036596 -3
    endloop
  endfacet
  facet normal 0 1 0
    outer loop
      vertex -0.2511620781172531 3.9921069137130862 -3
      vertex 0.2511620781172531 3.9921069137130862 -2.1623762376237625
      vertex 0.2511620781172531 3.9921069137130862 -3
    endloop
  endfacet
  facet normal 0.12533323356430387 0.992114701314478 -1.64913874241772e-17
    outer loop
      vertex 0.2511620781172531 3.9921069137130862 -3
      vertex 0.7495252583428984 3.929149002914755 -2.1623762376237625
      vertex 0.7495252583428983 3.929149002914755 -3
    endloop
  endfacet
  facet normal 0.24868988716485535 0.968583161128631 -6.596554969670875e-17
    outer loop
      vertex 0.7495252583428983 3.929149002914755 -3
      vertex 1.2360679774997898 3.804226065180614 -2.162376237623762
      vertex 1.2360679774997896 3.804226065180614 -3
    endloop
  endfacet
  facet normal 0.48175367410171505 0.8763066800438638 0
    outer loop
      vertex 1.7031171662602909 3.619308209864078 -3
      vertex 2.1433071799159866 3.3773117020080603 -2.1623762376237625
      vertex 2.1433071799159866 3.3773117020080603 -3
    endloop
  endfacet
  facet normal 0.3681245526846778 0.9297764858882513 -9.894832454506312e-17
    outer loop
      vertex 1.2360679774997896 3.804226065180614 -3
      vertex 1.703117166260291 3.619308209864078 -2.1623762376237625
      vertex 1.7031171662602909 3.619308209864078 -3
    endloop
  endfacet
  facet normal 0 0 -1
    outer loop
      vertex 3.505226720175454 -1.9270146964068615 -3
      vertex 3.457692307692308 0 -3
      vertex 3.5052267201754543 1.9270146964068613 -3
    endloop
  endfacet
  facet normal 0 0 -1
    outer loop
      vertex 3.5052267201754543 1.9270146964068613 -3
      vertex 3.457692307692308 0 -3
      vertex 3.4304273710835216 0.43336375759349816 -3
    endloop
  endfacet
  facet normal 0 0 -1
    outer loop
      vertex 3.505226720175454 -1.9270146964068615 -3
      vertex 3.5052267201754543 1.9270146964068613 -3
      vertex 3.7191059435530054 1.472498210738712 -3
    endloop
  endfacet
  facet normal 0 0 -1
    outer loop
      vertex 3.9684588052579115 -0.5013329342572163 -3
      vertex 3.9684588052579115 0.501332934257217 -3
      vertex 4 0 -3
    endloop
  endfacet
  facet normal 0 0 -1
    outer loop
      vertex 3.8743326445145247 -0.9947595486594177 -3
      vertex 3.8743326445145243 0.9947595486594192 -3
      vertex 3.9684588052579115 0.501332934257217 -3
    endloop
  endfacet
  facet normal 0 0 -1
    outer loop
      vertex 3.719105943553005 -1.4724982107387135 -3
      vertex 3.7191059435530054 1.472498210738712 -3
      vertex 3.8743326445145243 0.9947595486594192 -3
    endloop
  endfacet
  facet normal 0 0 -1
    outer loop
      vertex 3.5052267201754543 1.9270146964068613 -3
      vertex 3.4304273710835216 0.43336375759349816 -3
      vertex 3.3490625455947667 0.8598931098507864 -3
    endloop
  endfacet
  facet normal 0 0 -1
    outer loop
      vertex 3.5052267201754543 1.9270146964068613 -3
      vertex 3.3490625455947667 0.8598931098507864 -3
      vertex 3.2148810031289923 1.2728614340904825 -3
    endloop
  endfacet
  facet normal 0 0 -1
    outer loop
      vertex 3.23606797749979 2.3511410091698925 -3
      vertex 3.2148810031289923 1.2728614340904825 -3
      vertex 3.0299988667670514 1.665755973144008 -3
    endloop
  endfacet
  facet normal 0 0 -1
    outer loop
      vertex 3.5052267201754543 1.9270146964068613 -3
      vertex 3.2148810031289923 1.2728614340904825 -3
      vertex 3.23606797749979 2.3511410091698925 -3
    endloop
  endfacet
  facet normal 0.9980267284282717 0.06279051952931301 0
    outer loop
      vertex 4 0 -3
      vertex 3.9684588052579115 0.501332934257217 -3
      vertex 4 0 -2.1623762376237625
    endloop
  endfacet
  facet normal 0.9822872507286885 0.18738131458572532 0
    outer loop
      vertex 3.9684588052579115 0.501332934257217 -3
      vertex 3.8743326445145243 0.9947595486594192 -3
      vertex 3.9684588052579115 0.501332934257217 -2.1623762376237625
    endloop
  endfacet
  facet normal 0.9510565162951535 0.30901699437494745 0
    outer loop
      vertex 3.8743326445145243 0.9947595486594192 -3
      vertex 3.7191059435530054 1.472498210738712 -3
      vertex 3.8743326445145243 0.9947595486594192 -2.1623762376237625
    endloop
  endfacet
  facet normal 0.9048270524660198 0.4257792915650722 0
    outer loop
      vertex 3.7191059435530054 1.472498210738712 -3
      vertex 3.5052267201754543 1.9270146964068613 -3
      vertex 3.7191059435530054 1.472498210738712 -2.1623762376237625
    endloop
  endfacet
  facet normal 0 0 -1
    outer loop
      vertex 2.549695958994759 3.0820529711031566 -3
      vertex 2.204016026092585 2.6641977125209015 -3
      vertex 1.8527241872542999 2.9194261731781213 -3
    endloop
  endfacet
  facet normal 0 0 -1
    outer loop
      vertex 2.549695958994759 3.0820529711031566 -3
      vertex 2.5205492155840346 2.3669532624226584 -3
      vertex 2.204016026092585 2.6641977125209015 -3
    endloop
  endfacet
  facet normal 0 0 -1
    outer loop
      vertex 2.915874509685646 2.738188423714755 -3
      vertex 2.797331838242607 2.032380545426667 -3
      vertex 2.5205492155840346 2.3669532624226584 -3
    endloop
  endfacet
  facet normal 0 0 -1
    outer loop
      vertex 2.915874509685646 2.738188423714755 -3
      vertex 3.23606797749979 2.3511410091698925 -3
      vertex 2.797331838242607 2.032380545426667 -3
    endloop
  endfacet
  facet normal 0 0 -1
    outer loop
      vertex 2.915874509685646 2.738188423714755 -3
      vertex 2.5205492155840346 2.3669532624226584 -3
      vertex 2.549695958994759 3.0820529711031566 -3
    endloop
  endfacet
  facet normal 0 0 -1
    outer loop
      vertex 2.1433071799159866 3.3773117020080603 -3
      vertex 2.549695958994759 3.0820529711031566 -3
      vertex 1.8527241872542999 2.9194261731781213 -3
    endloop
  endfacet
  facet normal 0 0 -1
    outer loop
      vertex 3.23606797749979 2.3511410091698925 -3
      vertex 3.0299988667670514 1.665755973144008 -3
      vertex 2.797331838242607 2.032380545426667 -3
    endloop
  endfacet
  facet normal 0.6845471059286881 0.728968627421412 0
    outer loop
      vertex 2.915874509685646 2.738188423714755 -3
      vertex 2.549695958994759 3.0820529711031566 -3
      vertex 2.915874509685646 2.738188423714755 -2.1623762376237625
    endloop
  endfacet
  facet normal 0.5877852522924736 0.8090169943749471 0
    outer loop
      vertex 2.1433071799159866 3.3773117020080603 -3
      vertex 2.549695958994759 3.0820529711031566 -2.162376237623763
      vertex 2.549695958994759 3.0820529711031566 -3
    endloop
  endfacet
  facet normal 0.7705132427757894 0.6374239897486895 0
    outer loop
      vertex 2.915874509685646 2.738188423714755 -3
      vertex 3.23606797749979 2.3511410091698925 -2.162376237623763
      vertex 3.23606797749979 2.3511410091698925 -3
    endloop
  endfacet
  facet normal 0.8443279255020151 0.5358267949789967 0
    outer loop
      vertex 3.5052267201754543 1.9270146964068613 -3
      vertex 3.23606797749979 2.3511410091698925 -3
      vertex 3.5052267201754543 1.9270146964068613 -2.1623762376237625
    endloop
  endfacet
  facet normal 0.12533323356430384 0.992114701314478 0
    outer loop
      vertex 0.2511620781172531 3.9921069137130862 -3
      vertex 0.2511620781172531 3.9921069137130862 -2.1623762376237625
      vertex 0.7495252583428984 3.929149002914755 -2.1623762376237625
    endloop
  endfacet
  facet normal 0.24868988716485532 0.9685831611286311 -3.296244102944127e-17
    outer loop
      vertex 0.7495252583428983 3.929149002914755 -3
      vertex 0.7495252583428984 3.929149002914755 -2.1623762376237625
      vertex 1.2360679774997898 3.804226065180614 -2.162376237623762
    endloop
  endfacet
  facet normal 0.36812455268467775 0.9297764858882515 -9.758566379753411e-17
    outer loop
      vertex 1.2360679774997896 3.804226065180614 -3
      vertex 1.2360679774997898 3.804226065180614 -2.162376237623762
      vertex 1.703117166260291 3.619308209864078 -2.1623762376237625
    endloop
  endfacet
  facet normal 0.48175367410171516 0.8763066800438637 -1.2770746132324896e-16
    outer loop
      vertex 1.7031171662602909 3.619308209864078 -3
      vertex 1.703117166260291 3.619308209864078 -2.1623762376237625
      vertex 2.1433071799159866 3.3773117020080603 -2.1623762376237625
    endloop
  endfacet
  facet normal 0.9980267284282717 0.06279051952931301 0
    outer loop
      vertex 3.9684588052579115 0.501332934257217 -3
      vertex 3.9684588052579115 0.501332934257217 -2.1623762376237625
      vertex 4 0 -2.1623762376237625
    endloop
  endfacet
  facet normal 0.9822872507286885 0.18738131458572532 0
    outer loop
      vertex 3.8743326445145243 0.9947595486594192 -3
      vertex 3.8743326445145243 0.9947595486594192 -2.1623762376237625
      vertex 3.9684588052579115 0.501332934257217 -2.1623762376237625
    endloop
  endfacet
  facet normal 0.9510565162951535 0.30901699437494745 0
    outer loop
      vertex 3.7191059435530054 1.472498210738712 -3
      vertex 3.7191059435530054 1.472498210738712 -2.1623762376237625
      vertex 3.8743326445145243 0.9947595486594192 -2.1623762376237625
    endloop
  endfacet
  facet normal 0.9048270524660198 0.4257792915650722 0
    outer loop
      vertex 3.5052267201754543 1.9270146964068613 -3
      vertex 3.5052267201754543 1.9270146964068613 -2.1623762376237625
      vertex 3.7191059435530054 1.472498210738712 -2.1623762376237625
    endloop
  endfacet
  facet normal 0.6845471059286881 0.728968627421412 0
    outer loop
      vertex 2.549695958994759 3.0820529711031566 -3
      vertex 2.549695958994759 3.0820529711031566 -2.162376237623763
      vertex 2.915874509685646 2.738188423714755 -2.1623762376237625
    endloop
  endfacet
  facet normal 0.5877852522924736 0.8090169943749471 0
    outer loop
      vertex 2.1433071799159866 3.3773117020080603 -3
      vertex 2.1433071799159866 3.3773117020080603 -2.1623762376237625
      vertex 2.549695958994759 3.0820529711031566 -2.162376237623763
    endloop
  endfacet
  facet normal 0.8443279255020151 0.5358267949789965 0
    outer loop
      vertex 3.23606797749979 2.3511410091698925 -3
      vertex 3.23606797749979 2.3511410091698925 -2.162376237623763
      vertex 3.5052267201754543 1.9270146964068613 -2.1623762376237625
    endloop
  endfacet
  facet normal 0.7705132427757894 0.6374239897486895 0
    outer loop
      vertex 2.915874509685646 2.738188423714755 -3
      vertex 2.915874509685646 2.738188423714755 -2.1623762376237625
      vertex 3.23606797749979 2.3511410091698925 -2.162376237623763
    endloop
  endfacet
endsolid OpenSCAD_Model
