solid OpenSCAD_Model
  facet normal 0.998026 0.0628013 0
    outer loop
      vertex 15 0 0
      vertex 14.8817 1.88 -3
      vertex 14.8817 1.88 0
    endloop
  endfacet
  facet normal 0.998026 0.0628013 0
    outer loop
      vertex 14.8817 1.88 -3
      vertex 15 0 0
      vertex 15 0 -3
    endloop
  endfacet
  facet normal -0.998026 0.0628013 0
    outer loop
      vertex -15 0 -3
      vertex -14.8817 1.88 0
      vertex -14.8817 1.88 -3
    endloop
  endfacet
  facet normal -0.998026 0.0628013 0
    outer loop
      vertex -14.8817 1.88 0
      vertex -15 0 -3
      vertex -15 0 0
    endloop
  endfacet
  facet normal 0 1 -0
    outer loop
      vertex 0.941857 14.9704 -3
      vertex -0.941857 14.9704 0
      vertex 0.941857 14.9704 0
    endloop
  endfacet
  facet normal 0 1 0
    outer loop
      vertex -0.941857 14.9704 0
      vertex 0.941857 14.9704 -3
      vertex -0.941857 14.9704 -3
    endloop
  endfacet
  facet normal 0 -1 0
    outer loop
      vertex -0.941857 -14.9704 -3
      vertex 0.941857 -14.9704 0
      vertex -0.941857 -14.9704 0
    endloop
  endfacet
  facet normal 0 -1 -0
    outer loop
      vertex 0.941857 -14.9704 0
      vertex -0.941857 -14.9704 -3
      vertex 0.941857 -14.9704 -3
    endloop
  endfacet
  facet normal 0.684557 0.728959 -0
    outer loop
      vertex 10.9345 10.2682 -3
      vertex 9.56136 11.5577 0
      vertex 10.9345 10.2682 0
    endloop
  endfacet
  facet normal 0.684557 0.728959 0
    outer loop
      vertex 9.56136 11.5577 0
      vertex 10.9345 10.2682 -3
      vertex 9.56136 11.5577 -3
    endloop
  endfacet
  facet normal -0.684557 0.728959 0
    outer loop
      vertex -9.56136 11.5577 -3
      vertex -10.9345 10.2682 0
      vertex -9.56136 11.5577 0
    endloop
  endfacet
  facet normal -0.684557 0.728959 0
    outer loop
      vertex -10.9345 10.2682 0
      vertex -9.56136 11.5577 -3
      vertex -10.9345 10.2682 -3
    endloop
  endfacet
  facet normal -0.368104 0.929785 0
    outer loop
      vertex -4.63525 14.2658 -3
      vertex -6.38669 13.5724 0
      vertex -4.63525 14.2658 0
    endloop
  endfacet
  facet normal -0.368104 0.929785 0
    outer loop
      vertex -6.38669 13.5724 0
      vertex -4.63525 14.2658 -3
      vertex -6.38669 13.5724 -3
    endloop
  endfacet
  facet normal 0.951057 -0.309017 0
    outer loop
      vertex 13.9466 -5.52187 0
      vertex 14.5287 -3.73035 -3
      vertex 14.5287 -3.73035 0
    endloop
  endfacet
  facet normal 0.951057 -0.309017 0
    outer loop
      vertex 14.5287 -3.73035 -3
      vertex 13.9466 -5.52187 0
      vertex 13.9466 -5.52187 -3
    endloop
  endfacet
  facet normal 0.904837 0.425758 0
    outer loop
      vertex 13.9466 5.52187 0
      vertex 13.1446 7.22631 -3
      vertex 13.1446 7.22631 0
    endloop
  endfacet
  facet normal 0.904837 0.425758 0
    outer loop
      vertex 13.1446 7.22631 -3
      vertex 13.9466 5.52187 0
      vertex 13.9466 5.52187 -3
    endloop
  endfacet
  facet normal 0.844338 0.535811 0
    outer loop
      vertex 13.1446 7.22631 0
      vertex 12.1353 8.81678 -3
      vertex 12.1353 8.81678 0
    endloop
  endfacet
  facet normal 0.844338 0.535811 0
    outer loop
      vertex 12.1353 8.81678 -3
      vertex 13.1446 7.22631 0
      vertex 13.1446 7.22631 -3
    endloop
  endfacet
  facet normal 0.368104 0.929785 -0
    outer loop
      vertex 6.38669 13.5724 -3
      vertex 4.63525 14.2658 0
      vertex 6.38669 13.5724 0
    endloop
  endfacet
  facet normal 0.368104 0.929785 0
    outer loop
      vertex 4.63525 14.2658 0
      vertex 6.38669 13.5724 -3
      vertex 4.63525 14.2658 -3
    endloop
  endfacet
  facet normal 0.48176 0.876303 -0
    outer loop
      vertex 8.0374 12.6649 -3
      vertex 6.38669 13.5724 0
      vertex 8.0374 12.6649 0
    endloop
  endfacet
  facet normal 0.48176 0.876303 0
    outer loop
      vertex 6.38669 13.5724 0
      vertex 8.0374 12.6649 -3
      vertex 6.38669 13.5724 -3
    endloop
  endfacet
  facet normal -0.904837 0.425758 0
    outer loop
      vertex -13.9466 5.52187 -3
      vertex -13.1446 7.22631 0
      vertex -13.1446 7.22631 -3
    endloop
  endfacet
  facet normal -0.904837 0.425758 0
    outer loop
      vertex -13.1446 7.22631 0
      vertex -13.9466 5.52187 -3
      vertex -13.9466 5.52187 0
    endloop
  endfacet
  facet normal -0.951057 0.309017 0
    outer loop
      vertex -14.5287 3.73035 -3
      vertex -13.9466 5.52187 0
      vertex -13.9466 5.52187 -3
    endloop
  endfacet
  facet normal -0.951057 0.309017 0
    outer loop
      vertex -13.9466 5.52187 0
      vertex -14.5287 3.73035 -3
      vertex -14.5287 3.73035 0
    endloop
  endfacet
  facet normal -0.24871 0.968578 0
    outer loop
      vertex -2.81072 14.7343 -3
      vertex -4.63525 14.2658 0
      vertex -2.81072 14.7343 0
    endloop
  endfacet
  facet normal -0.24871 0.968578 0
    outer loop
      vertex -4.63525 14.2658 0
      vertex -2.81072 14.7343 -3
      vertex -4.63525 14.2658 -3
    endloop
  endfacet
  facet normal 0.951057 0.309017 0
    outer loop
      vertex 14.5287 3.73035 0
      vertex 13.9466 5.52187 -3
      vertex 13.9466 5.52187 0
    endloop
  endfacet
  facet normal 0.951057 0.309017 0
    outer loop
      vertex 13.9466 5.52187 -3
      vertex 14.5287 3.73035 0
      vertex 14.5287 3.73035 -3
    endloop
  endfacet
  facet normal 0.982285 0.187395 0
    outer loop
      vertex 14.8817 1.88 0
      vertex 14.5287 3.73035 -3
      vertex 14.5287 3.73035 0
    endloop
  endfacet
  facet normal 0.982285 0.187395 0
    outer loop
      vertex 14.5287 3.73035 -3
      vertex 14.8817 1.88 0
      vertex 14.8817 1.88 -3
    endloop
  endfacet
  facet normal 0.770492 0.63745 0
    outer loop
      vertex 12.1353 8.81678 0
      vertex 10.9345 10.2682 -3
      vertex 10.9345 10.2682 0
    endloop
  endfacet
  facet normal 0.770492 0.63745 0
    outer loop
      vertex 10.9345 10.2682 -3
      vertex 12.1353 8.81678 0
      vertex 12.1353 8.81678 -3
    endloop
  endfacet
  facet normal 0.24871 0.968578 -0
    outer loop
      vertex 4.63525 14.2658 -3
      vertex 2.81072 14.7343 0
      vertex 4.63525 14.2658 0
    endloop
  endfacet
  facet normal 0.24871 0.968578 0
    outer loop
      vertex 2.81072 14.7343 0
      vertex 4.63525 14.2658 -3
      vertex 2.81072 14.7343 -3
    endloop
  endfacet
  facet normal 0.125337 0.992114 -0
    outer loop
      vertex 2.81072 14.7343 -3
      vertex 0.941857 14.9704 0
      vertex 2.81072 14.7343 0
    endloop
  endfacet
  facet normal 0.125337 0.992114 0
    outer loop
      vertex 0.941857 14.9704 0
      vertex 2.81072 14.7343 -3
      vertex 0.941857 14.9704 -3
    endloop
  endfacet
  facet normal 0.587778 0.809022 -0
    outer loop
      vertex 9.56136 11.5577 -3
      vertex 8.0374 12.6649 0
      vertex 9.56136 11.5577 0
    endloop
  endfacet
  facet normal 0.587778 0.809022 0
    outer loop
      vertex 8.0374 12.6649 0
      vertex 9.56136 11.5577 -3
      vertex 8.0374 12.6649 -3
    endloop
  endfacet
  facet normal -0.844338 0.535811 0
    outer loop
      vertex -13.1446 7.22631 -3
      vertex -12.1353 8.81678 0
      vertex -12.1353 8.81678 -3
    endloop
  endfacet
  facet normal -0.844338 0.535811 0
    outer loop
      vertex -12.1353 8.81678 0
      vertex -13.1446 7.22631 -3
      vertex -13.1446 7.22631 0
    endloop
  endfacet
  facet normal -0.770492 0.63745 0
    outer loop
      vertex -12.1353 8.81678 -3
      vertex -10.9345 10.2682 0
      vertex -10.9345 10.2682 -3
    endloop
  endfacet
  facet normal -0.770492 0.63745 0
    outer loop
      vertex -10.9345 10.2682 0
      vertex -12.1353 8.81678 -3
      vertex -12.1353 8.81678 0
    endloop
  endfacet
  facet normal -0.982285 0.187395 0
    outer loop
      vertex -14.8817 1.88 -3
      vertex -14.5287 3.73035 0
      vertex -14.5287 3.73035 -3
    endloop
  endfacet
  facet normal -0.982285 0.187395 0
    outer loop
      vertex -14.5287 3.73035 0
      vertex -14.8817 1.88 -3
      vertex -14.8817 1.88 0
    endloop
  endfacet
  facet normal 0 0 1
    outer loop
      vertex 4.375 0 0
      vertex 15 0 0
      vertex 14.8817 1.88 0
    endloop
  endfacet
  facet normal 0 0 1
    outer loop
      vertex 4.3405 0.548332 0
      vertex 14.8817 1.88 0
      vertex 14.5287 3.73035 0
    endloop
  endfacet
  facet normal 0 0 1
    outer loop
      vertex 15 0 0
      vertex 4.375 0 0
      vertex 14.8817 -1.88 0
    endloop
  endfacet
  facet normal 0 0 1
    outer loop
      vertex 4.23755 1.08802 0
      vertex 14.5287 3.73035 0
      vertex 13.9466 5.52187 0
    endloop
  endfacet
  facet normal -0 0 1
    outer loop
      vertex 4.3405 -0.548332 0
      vertex 14.8817 -1.88 0
      vertex 4.375 0 0
    endloop
  endfacet
  facet normal 0 0 1
    outer loop
      vertex 4.06777 1.61054 0
      vertex 13.9466 5.52187 0
      vertex 13.1446 7.22631 0
    endloop
  endfacet
  facet normal 0 0 1
    outer loop
      vertex 14.8817 -1.88 0
      vertex 4.3405 -0.548332 0
      vertex 14.5287 -3.73035 0
    endloop
  endfacet
  facet normal 0 0 1
    outer loop
      vertex 3.83384 2.10767 0
      vertex 13.1446 7.22631 0
      vertex 12.1353 8.81678 0
    endloop
  endfacet
  facet normal -0 0 1
    outer loop
      vertex 4.23755 -1.08802 0
      vertex 14.5287 -3.73035 0
      vertex 4.3405 -0.548332 0
    endloop
  endfacet
  facet normal 0 0 1
    outer loop
      vertex 3.53945 2.57156 0
      vertex 12.1353 8.81678 0
      vertex 10.9345 10.2682 0
    endloop
  endfacet
  facet normal 0 0 1
    outer loop
      vertex 14.5287 -3.73035 0
      vertex 4.23755 -1.08802 0
      vertex 13.9466 -5.52187 0
    endloop
  endfacet
  facet normal 0 0 1
    outer loop
      vertex 3.18924 2.99489 0
      vertex 10.9345 10.2682 0
      vertex 9.56136 11.5577 0
    endloop
  endfacet
  facet normal -0 0 1
    outer loop
      vertex 4.06777 -1.61054 0
      vertex 13.9466 -5.52187 0
      vertex 4.23755 -1.08802 0
    endloop
  endfacet
  facet normal 0 0 1
    outer loop
      vertex 2.78873 3.37099 0
      vertex 9.56136 11.5577 0
      vertex 8.0374 12.6649 0
    endloop
  endfacet
  facet normal 0 0 1
    outer loop
      vertex 13.9466 -5.52187 0
      vertex 4.06777 -1.61054 0
      vertex 13.1446 -7.22631 0
    endloop
  endfacet
  facet normal 0 0 1
    outer loop
      vertex 2.34424 3.69393 0
      vertex 8.0374 12.6649 0
      vertex 6.38669 13.5724 0
    endloop
  endfacet
  facet normal -0 0 1
    outer loop
      vertex 3.83384 -2.10767 0
      vertex 13.1446 -7.22631 0
      vertex 4.06777 -1.61054 0
    endloop
  endfacet
  facet normal 0 0 1
    outer loop
      vertex 1.86278 3.95862 0
      vertex 6.38669 13.5724 0
      vertex 4.63525 14.2658 0
    endloop
  endfacet
  facet normal 0 0 1
    outer loop
      vertex 13.1446 -7.22631 0
      vertex 3.83384 -2.10767 0
      vertex 12.1353 -8.81678 0
    endloop
  endfacet
  facet normal -0 0 1
    outer loop
      vertex 3.53945 -2.57156 0
      vertex 12.1353 -8.81678 0
      vertex 3.83384 -2.10767 0
    endloop
  endfacet
  facet normal 0 0 1
    outer loop
      vertex 14.8817 1.88 0
      vertex 4.3405 0.548332 0
      vertex 4.375 0 0
    endloop
  endfacet
  facet normal 0 0 1
    outer loop
      vertex 14.5287 3.73035 0
      vertex 4.23755 1.08802 0
      vertex 4.3405 0.548332 0
    endloop
  endfacet
  facet normal 0 0 1
    outer loop
      vertex 13.9466 5.52187 0
      vertex 4.06777 1.61054 0
      vertex 4.23755 1.08802 0
    endloop
  endfacet
  facet normal 0 0 1
    outer loop
      vertex 13.1446 7.22631 0
      vertex 3.83384 2.10767 0
      vertex 4.06777 1.61054 0
    endloop
  endfacet
  facet normal 0 0 1
    outer loop
      vertex 12.1353 8.81678 0
      vertex 3.53945 2.57156 0
      vertex 3.83384 2.10767 0
    endloop
  endfacet
  facet normal 0 0 1
    outer loop
      vertex 10.9345 10.2682 0
      vertex 3.18924 2.99489 0
      vertex 3.53945 2.57156 0
    endloop
  endfacet
  facet normal 0 0 1
    outer loop
      vertex 1.35195 4.16087 0
      vertex 4.63525 14.2658 0
      vertex 2.81072 14.7343 0
    endloop
  endfacet
  facet normal 0 0 1
    outer loop
      vertex 9.56136 11.5577 0
      vertex 2.78873 3.37099 0
      vertex 3.18924 2.99489 0
    endloop
  endfacet
  facet normal 0 0 1
    outer loop
      vertex 8.0374 12.6649 0
      vertex 2.34424 3.69393 0
      vertex 2.78873 3.37099 0
    endloop
  endfacet
  facet normal 0 0 1
    outer loop
      vertex 6.38669 13.5724 0
      vertex 1.86278 3.95862 0
      vertex 2.34424 3.69393 0
    endloop
  endfacet
  facet normal 0 0 1
    outer loop
      vertex 4.63525 14.2658 0
      vertex 1.35195 4.16087 0
      vertex 1.86278 3.95862 0
    endloop
  endfacet
  facet normal 0 0 1
    outer loop
      vertex 0.819793 4.29751 0
      vertex 2.81072 14.7343 0
      vertex 0.941857 14.9704 0
    endloop
  endfacet
  facet normal 0 0 1
    outer loop
      vertex 2.81072 14.7343 0
      vertex 0.819793 4.29751 0
      vertex 1.35195 4.16087 0
    endloop
  endfacet
  facet normal 0 0 1
    outer loop
      vertex 0.941857 14.9704 0
      vertex 0.274708 4.36637 0
      vertex 0.819793 4.29751 0
    endloop
  endfacet
  facet normal 0 0 1
    outer loop
      vertex 0.941857 14.9704 0
      vertex -0.274708 4.36637 0
      vertex 0.274708 4.36637 0
    endloop
  endfacet
  facet normal -0 0 1
    outer loop
      vertex -0.941857 14.9704 0
      vertex -0.274708 4.36637 0
      vertex 0.941857 14.9704 0
    endloop
  endfacet
  facet normal 0 0 1
    outer loop
      vertex -0.274708 4.36637 0
      vertex -0.941857 14.9704 0
      vertex -0.819793 4.29751 0
    endloop
  endfacet
  facet normal -0 0 1
    outer loop
      vertex -2.81072 14.7343 0
      vertex -0.819793 4.29751 0
      vertex -0.941857 14.9704 0
    endloop
  endfacet
  facet normal 0 0 1
    outer loop
      vertex -0.819793 4.29751 0
      vertex -2.81072 14.7343 0
      vertex -1.35195 4.16087 0
    endloop
  endfacet
  facet normal -0 0 1
    outer loop
      vertex -4.63525 14.2658 0
      vertex -1.35195 4.16087 0
      vertex -2.81072 14.7343 0
    endloop
  endfacet
  facet normal 0 0 1
    outer loop
      vertex -1.35195 4.16087 0
      vertex -4.63525 14.2658 0
      vertex -1.86278 3.95862 0
    endloop
  endfacet
  facet normal -0 0 1
    outer loop
      vertex -6.38669 13.5724 0
      vertex -1.86278 3.95862 0
      vertex -4.63525 14.2658 0
    endloop
  endfacet
  facet normal 0 0 1
    outer loop
      vertex -1.86278 3.95862 0
      vertex -6.38669 13.5724 0
      vertex -2.34424 3.69393 0
    endloop
  endfacet
  facet normal -0 0 1
    outer loop
      vertex -8.0374 12.6649 0
      vertex -2.34424 3.69393 0
      vertex -6.38669 13.5724 0
    endloop
  endfacet
  facet normal 0 0 1
    outer loop
      vertex -2.34424 3.69393 0
      vertex -8.0374 12.6649 0
      vertex -2.78873 3.37099 0
    endloop
  endfacet
  facet normal -0 0 1
    outer loop
      vertex -9.56136 11.5577 0
      vertex -2.78873 3.37099 0
      vertex -8.0374 12.6649 0
    endloop
  endfacet
  facet normal 0 0 1
    outer loop
      vertex -2.78873 3.37099 0
      vertex -9.56136 11.5577 0
      vertex -3.18924 2.99489 0
    endloop
  endfacet
  facet normal -0 0 1
    outer loop
      vertex -10.9345 10.2682 0
      vertex -3.18924 2.99489 0
      vertex -9.56136 11.5577 0
    endloop
  endfacet
  facet normal -0 0 1
    outer loop
      vertex -12.1353 8.81678 0
      vertex -3.53945 2.57156 0
      vertex -10.9345 10.2682 0
    endloop
  endfacet
  facet normal 0 0 1
    outer loop
      vertex -3.18924 2.99489 0
      vertex -10.9345 10.2682 0
      vertex -3.53945 2.57156 0
    endloop
  endfacet
  facet normal 0 0 1
    outer loop
      vertex 12.1353 -8.81678 0
      vertex 3.53945 -2.57156 0
      vertex 10.9345 -10.2682 0
    endloop
  endfacet
  facet normal -0 0 1
    outer loop
      vertex 3.18924 -2.99489 0
      vertex 10.9345 -10.2682 0
      vertex 3.53945 -2.57156 0
    endloop
  endfacet
  facet normal 0 0 1
    outer loop
      vertex 10.9345 -10.2682 0
      vertex 3.18924 -2.99489 0
      vertex 9.56136 -11.5577 0
    endloop
  endfacet
  facet normal -0 0 1
    outer loop
      vertex 2.78873 -3.37099 0
      vertex 9.56136 -11.5577 0
      vertex 3.18924 -2.99489 0
    endloop
  endfacet
  facet normal 0 0 1
    outer loop
      vertex 9.56136 -11.5577 0
      vertex 2.78873 -3.37099 0
      vertex 8.0374 -12.6649 0
    endloop
  endfacet
  facet normal -0 0 1
    outer loop
      vertex 2.34424 -3.69393 0
      vertex 8.0374 -12.6649 0
      vertex 2.78873 -3.37099 0
    endloop
  endfacet
  facet normal 0 0 1
    outer loop
      vertex 8.0374 -12.6649 0
      vertex 2.34424 -3.69393 0
      vertex 6.38669 -13.5724 0
    endloop
  endfacet
  facet normal -0 0 1
    outer loop
      vertex 1.86278 -3.95862 0
      vertex 6.38669 -13.5724 0
      vertex 2.34424 -3.69393 0
    endloop
  endfacet
  facet normal 0 0 1
    outer loop
      vertex 6.38669 -13.5724 0
      vertex 1.86278 -3.95862 0
      vertex 4.63525 -14.2658 0
    endloop
  endfacet
  facet normal -0 0 1
    outer loop
      vertex 1.35195 -4.16087 0
      vertex 4.63525 -14.2658 0
      vertex 1.86278 -3.95862 0
    endloop
  endfacet
  facet normal 0 0 1
    outer loop
      vertex 4.63525 -14.2658 0
      vertex 1.35195 -4.16087 0
      vertex 2.81072 -14.7343 0
    endloop
  endfacet
  facet normal -0 0 1
    outer loop
      vertex 0.819793 -4.29751 0
      vertex 2.81072 -14.7343 0
      vertex 1.35195 -4.16087 0
    endloop
  endfacet
  facet normal 0 0 1
    outer loop
      vertex 2.81072 -14.7343 0
      vertex 0.819793 -4.29751 0
      vertex 0.941857 -14.9704 0
    endloop
  endfacet
  facet normal -0 0 1
    outer loop
      vertex 0.274708 -4.36637 0
      vertex 0.941857 -14.9704 0
      vertex 0.819793 -4.29751 0
    endloop
  endfacet
  facet normal -0 0 1
    outer loop
      vertex -0.274708 -4.36637 0
      vertex 0.941857 -14.9704 0
      vertex 0.274708 -4.36637 0
    endloop
  endfacet
  facet normal 0 0 1
    outer loop
      vertex -0.941857 -14.9704 0
      vertex -0.274708 -4.36637 0
      vertex -0.819793 -4.29751 0
    endloop
  endfacet
  facet normal 0 0 1
    outer loop
      vertex -0.274708 -4.36637 0
      vertex -0.941857 -14.9704 0
      vertex 0.941857 -14.9704 0
    endloop
  endfacet
  facet normal 0 0 1
    outer loop
      vertex -2.81072 -14.7343 0
      vertex -0.819793 -4.29751 0
      vertex -1.35195 -4.16087 0
    endloop
  endfacet
  facet normal 0 0 1
    outer loop
      vertex -4.63525 -14.2658 0
      vertex -1.35195 -4.16087 0
      vertex -1.86278 -3.95862 0
    endloop
  endfacet
  facet normal 0 0 1
    outer loop
      vertex -6.38669 -13.5724 0
      vertex -1.86278 -3.95862 0
      vertex -2.34424 -3.69393 0
    endloop
  endfacet
  facet normal 0 0 1
    outer loop
      vertex -8.0374 -12.6649 0
      vertex -2.34424 -3.69393 0
      vertex -2.78873 -3.37099 0
    endloop
  endfacet
  facet normal 0 0 1
    outer loop
      vertex -0.819793 -4.29751 0
      vertex -2.81072 -14.7343 0
      vertex -0.941857 -14.9704 0
    endloop
  endfacet
  facet normal 0 0 1
    outer loop
      vertex -9.56136 -11.5577 0
      vertex -2.78873 -3.37099 0
      vertex -3.18924 -2.99489 0
    endloop
  endfacet
  facet normal 0 0 1
    outer loop
      vertex -10.9345 -10.2682 0
      vertex -3.18924 -2.99489 0
      vertex -3.53945 -2.57156 0
    endloop
  endfacet
  facet normal 0 0 1
    outer loop
      vertex -12.1353 -8.81678 0
      vertex -3.53945 -2.57156 0
      vertex -3.83384 -2.10767 0
    endloop
  endfacet
  facet normal 0 0 1
    outer loop
      vertex -13.1446 -7.22631 0
      vertex -3.83384 -2.10767 0
      vertex -4.06777 -1.61054 0
    endloop
  endfacet
  facet normal 0 0 1
    outer loop
      vertex -13.9466 -5.52187 0
      vertex -4.06777 -1.61054 0
      vertex -4.23755 -1.08802 0
    endloop
  endfacet
  facet normal 0 0 1
    outer loop
      vertex -14.5287 -3.73035 0
      vertex -4.23755 -1.08802 0
      vertex -4.3405 -0.548332 0
    endloop
  endfacet
  facet normal 0 0 1
    outer loop
      vertex -1.35195 -4.16087 0
      vertex -4.63525 -14.2658 0
      vertex -2.81072 -14.7343 0
    endloop
  endfacet
  facet normal 0 0 1
    outer loop
      vertex -14.8817 -1.88 0
      vertex -4.3405 -0.548332 0
      vertex -4.375 0 0
    endloop
  endfacet
  facet normal 0 0 1
    outer loop
      vertex -3.53945 2.57156 0
      vertex -12.1353 8.81678 0
      vertex -3.83384 2.10767 0
    endloop
  endfacet
  facet normal -0 0 1
    outer loop
      vertex -13.1446 7.22631 0
      vertex -3.83384 2.10767 0
      vertex -12.1353 8.81678 0
    endloop
  endfacet
  facet normal 0 0 1
    outer loop
      vertex -1.86278 -3.95862 0
      vertex -6.38669 -13.5724 0
      vertex -4.63525 -14.2658 0
    endloop
  endfacet
  facet normal 0 0 1
    outer loop
      vertex -3.83384 2.10767 0
      vertex -13.1446 7.22631 0
      vertex -4.06777 1.61054 0
    endloop
  endfacet
  facet normal 0 0 1
    outer loop
      vertex -2.34424 -3.69393 0
      vertex -8.0374 -12.6649 0
      vertex -6.38669 -13.5724 0
    endloop
  endfacet
  facet normal -0 0 1
    outer loop
      vertex -13.9466 5.52187 0
      vertex -4.06777 1.61054 0
      vertex -13.1446 7.22631 0
    endloop
  endfacet
  facet normal 0 0 1
    outer loop
      vertex -2.78873 -3.37099 0
      vertex -9.56136 -11.5577 0
      vertex -8.0374 -12.6649 0
    endloop
  endfacet
  facet normal 0 0 1
    outer loop
      vertex -4.06777 1.61054 0
      vertex -13.9466 5.52187 0
      vertex -4.23755 1.08802 0
    endloop
  endfacet
  facet normal 0 0 1
    outer loop
      vertex -3.18924 -2.99489 0
      vertex -10.9345 -10.2682 0
      vertex -9.56136 -11.5577 0
    endloop
  endfacet
  facet normal -0 0 1
    outer loop
      vertex -14.5287 3.73035 0
      vertex -4.23755 1.08802 0
      vertex -13.9466 5.52187 0
    endloop
  endfacet
  facet normal 0 0 1
    outer loop
      vertex -3.53945 -2.57156 0
      vertex -12.1353 -8.81678 0
      vertex -10.9345 -10.2682 0
    endloop
  endfacet
  facet normal 0 0 1
    outer loop
      vertex -4.23755 1.08802 0
      vertex -14.5287 3.73035 0
      vertex -4.3405 0.548332 0
    endloop
  endfacet
  facet normal 0 0 1
    outer loop
      vertex -3.83384 -2.10767 0
      vertex -13.1446 -7.22631 0
      vertex -12.1353 -8.81678 0
    endloop
  endfacet
  facet normal -0 0 1
    outer loop
      vertex -14.8817 1.88 0
      vertex -4.3405 0.548332 0
      vertex -14.5287 3.73035 0
    endloop
  endfacet
  facet normal 0 0 1
    outer loop
      vertex -4.06777 -1.61054 0
      vertex -13.9466 -5.52187 0
      vertex -13.1446 -7.22631 0
    endloop
  endfacet
  facet normal 0 0 1
    outer loop
      vertex -4.3405 0.548332 0
      vertex -14.8817 1.88 0
      vertex -4.375 0 0
    endloop
  endfacet
  facet normal 0 0 1
    outer loop
      vertex -4.23755 -1.08802 0
      vertex -14.5287 -3.73035 0
      vertex -13.9466 -5.52187 0
    endloop
  endfacet
  facet normal 0 0 1
    outer loop
      vertex -15 0 0
      vertex -4.375 0 0
      vertex -14.8817 1.88 0
    endloop
  endfacet
  facet normal 0 0 1
    outer loop
      vertex -4.3405 -0.548332 0
      vertex -14.8817 -1.88 0
      vertex -14.5287 -3.73035 0
    endloop
  endfacet
  facet normal 0 0 1
    outer loop
      vertex -4.375 0 0
      vertex -15 0 0
      vertex -14.8817 -1.88 0
    endloop
  endfacet
  facet normal -0.48176 0.876303 0
    outer loop
      vertex -6.38669 13.5724 -3
      vertex -8.0374 12.6649 0
      vertex -6.38669 13.5724 0
    endloop
  endfacet
  facet normal -0.48176 0.876303 0
    outer loop
      vertex -8.0374 12.6649 0
      vertex -6.38669 13.5724 -3
      vertex -8.0374 12.6649 -3
    endloop
  endfacet
  facet normal -0.587778 0.809022 0
    outer loop
      vertex -8.0374 12.6649 -3
      vertex -9.56136 11.5577 0
      vertex -8.0374 12.6649 0
    endloop
  endfacet
  facet normal -0.587778 0.809022 0
    outer loop
      vertex -9.56136 11.5577 0
      vertex -8.0374 12.6649 -3
      vertex -9.56136 11.5577 -3
    endloop
  endfacet
  facet normal -0.125337 0.992114 0
    outer loop
      vertex -0.941857 14.9704 -3
      vertex -2.81072 14.7343 0
      vertex -0.941857 14.9704 0
    endloop
  endfacet
  facet normal -0.125337 0.992114 0
    outer loop
      vertex -2.81072 14.7343 0
      vertex -0.941857 14.9704 -3
      vertex -2.81072 14.7343 -3
    endloop
  endfacet
  facet normal 0.998026 -0.0628013 0
    outer loop
      vertex 14.8817 -1.88 0
      vertex 15 0 -3
      vertex 15 0 0
    endloop
  endfacet
  facet normal 0.998026 -0.0628013 0
    outer loop
      vertex 15 0 -3
      vertex 14.8817 -1.88 0
      vertex 14.8817 -1.88 -3
    endloop
  endfacet
  facet normal 0.770492 -0.63745 0
    outer loop
      vertex 10.9345 -10.2682 0
      vertex 12.1353 -8.81678 -3
      vertex 12.1353 -8.81678 0
    endloop
  endfacet
  facet normal 0.770492 -0.63745 0
    outer loop
      vertex 12.1353 -8.81678 -3
      vertex 10.9345 -10.2682 0
      vertex 10.9345 -10.2682 -3
    endloop
  endfacet
  facet normal 0.904837 -0.425758 0
    outer loop
      vertex 13.1446 -7.22631 0
      vertex 13.9466 -5.52187 -3
      vertex 13.9466 -5.52187 0
    endloop
  endfacet
  facet normal 0.904837 -0.425758 0
    outer loop
      vertex 13.9466 -5.52187 -3
      vertex 13.1446 -7.22631 0
      vertex 13.1446 -7.22631 -3
    endloop
  endfacet
  facet normal 0.982285 -0.187395 0
    outer loop
      vertex 14.5287 -3.73035 0
      vertex 14.8817 -1.88 -3
      vertex 14.8817 -1.88 0
    endloop
  endfacet
  facet normal 0.982285 -0.187395 0
    outer loop
      vertex 14.8817 -1.88 -3
      vertex 14.5287 -3.73035 0
      vertex 14.5287 -3.73035 -3
    endloop
  endfacet
  facet normal 0 0 -1
    outer loop
      vertex 2.54415 -0.103739 -3
      vertex 15 0 -3
      vertex 14.8817 -1.88 -3
    endloop
  endfacet
  facet normal 0 0 -1
    outer loop
      vertex 2.53056 -0.319684 -3
      vertex 14.8817 -1.88 -3
      vertex 14.5287 -3.73035 -3
    endloop
  endfacet
  facet normal -0 0 -1
    outer loop
      vertex 15 0 -3
      vertex 2.54415 -0.103739 -3
      vertex 2.55068 0 -3
    endloop
  endfacet
  facet normal 0 0 -1
    outer loop
      vertex 2.43842 -0.733183 -3
      vertex 14.5287 -3.73035 -3
      vertex 13.9466 -5.52187 -3
    endloop
  endfacet
  facet normal 0 0 -1
    outer loop
      vertex 2.54415 0.103739 -3
      vertex 15 0 -3
      vertex 2.55068 0 -3
    endloop
  endfacet
  facet normal 0 0 -1
    outer loop
      vertex 2.37156 -0.938965 -3
      vertex 13.9466 -5.52187 -3
      vertex 13.1446 -7.22631 -3
    endloop
  endfacet
  facet normal 0 0 -1
    outer loop
      vertex 15 0 -3
      vertex 2.54415 0.103739 -3
      vertex 14.8817 1.88 -3
    endloop
  endfacet
  facet normal 0 0 -1
    outer loop
      vertex 2.23517 -1.2288 -3
      vertex 13.1446 -7.22631 -3
      vertex 12.1353 -8.81678 -3
    endloop
  endfacet
  facet normal 0 0 -1
    outer loop
      vertex 2.53056 0.319684 -3
      vertex 14.8817 1.88 -3
      vertex 2.54415 0.103739 -3
    endloop
  endfacet
  facet normal 0 0 -1
    outer loop
      vertex 1.99728 -1.57934 -3
      vertex 12.1353 -8.81678 -3
      vertex 10.9345 -10.2682 -3
    endloop
  endfacet
  facet normal -0 0 -1
    outer loop
      vertex 14.8817 1.88 -3
      vertex 2.53056 0.319684 -3
      vertex 14.5287 3.73035 -3
    endloop
  endfacet
  facet normal 0 0 -1
    outer loop
      vertex 1.85936 -1.74606 -3
      vertex 10.9345 -10.2682 -3
      vertex 9.56136 -11.5577 -3
    endloop
  endfacet
  facet normal 0 0 -1
    outer loop
      vertex 2.47054 0.634326 -3
      vertex 14.5287 3.73035 -3
      vertex 2.49002 0.532224 -3
    endloop
  endfacet
  facet normal 0 0 -1
    outer loop
      vertex 1.54177 -2.02643 -3
      vertex 9.56136 -11.5577 -3
      vertex 8.0374 -12.6649 -3
    endloop
  endfacet
  facet normal 0 0 -1
    outer loop
      vertex 2.43842 0.733183 -3
      vertex 14.5287 3.73035 -3
      vertex 2.47054 0.634326 -3
    endloop
  endfacet
  facet normal 0 0 -1
    outer loop
      vertex 1.36672 -2.15361 -3
      vertex 8.0374 -12.6649 -3
      vertex 6.38669 -13.5724 -3
    endloop
  endfacet
  facet normal -0 0 -1
    outer loop
      vertex 14.5287 3.73035 -3
      vertex 2.43842 0.733183 -3
      vertex 13.9466 5.52187 -3
    endloop
  endfacet
  facet normal 0 0 -1
    outer loop
      vertex 1.08602 -2.30792 -3
      vertex 6.38669 -13.5724 -3
      vertex 4.63525 -14.2658 -3
    endloop
  endfacet
  facet normal 0 0 -1
    outer loop
      vertex 2.37156 0.938965 -3
      vertex 13.9466 5.52187 -3
      vertex 2.43842 0.733183 -3
    endloop
  endfacet
  facet normal 0 0 -1
    outer loop
      vertex 0.788202 -2.42584 -3
      vertex 4.63525 -14.2658 -3
      vertex 2.81072 -14.7343 -3
    endloop
  endfacet
  facet normal -0 0 -1
    outer loop
      vertex 13.9466 5.52187 -3
      vertex 2.37156 0.938965 -3
      vertex 13.1446 7.22631 -3
    endloop
  endfacet
  facet normal 0 0 -1
    outer loop
      vertex 2.27943 1.13475 -3
      vertex 13.1446 7.22631 -3
      vertex 2.37156 0.938965 -3
    endloop
  endfacet
  facet normal 0 0 -1
    outer loop
      vertex 2.49002 0.532224 -3
      vertex 14.5287 3.73035 -3
      vertex 2.53056 0.319684 -3
    endloop
  endfacet
  facet normal 0 0 -1
    outer loop
      vertex 14.8817 -1.88 -3
      vertex 2.53056 -0.319684 -3
      vertex 2.54415 -0.103739 -3
    endloop
  endfacet
  facet normal 0 0 -1
    outer loop
      vertex 14.5287 -3.73035 -3
      vertex 2.49002 -0.532224 -3
      vertex 2.53056 -0.319684 -3
    endloop
  endfacet
  facet normal 0 0 -1
    outer loop
      vertex 14.5287 -3.73035 -3
      vertex 2.47054 -0.634326 -3
      vertex 2.49002 -0.532224 -3
    endloop
  endfacet
  facet normal 0 0 -1
    outer loop
      vertex 14.5287 -3.73035 -3
      vertex 2.43842 -0.733183 -3
      vertex 2.47054 -0.634326 -3
    endloop
  endfacet
  facet normal 0 0 -1
    outer loop
      vertex 13.9466 -5.52187 -3
      vertex 2.37156 -0.938965 -3
      vertex 2.43842 -0.733183 -3
    endloop
  endfacet
  facet normal 0 0 -1
    outer loop
      vertex 13.1446 -7.22631 -3
      vertex 2.27943 -1.13475 -3
      vertex 2.37156 -0.938965 -3
    endloop
  endfacet
  facet normal 0 0 -1
    outer loop
      vertex 13.1446 -7.22631 -3
      vertex 2.23517 -1.2288 -3
      vertex 2.27943 -1.13475 -3
    endloop
  endfacet
  facet normal 0 0 -1
    outer loop
      vertex 12.1353 -8.81678 -3
      vertex 2.11924 -1.41149 -3
      vertex 2.23517 -1.2288 -3
    endloop
  endfacet
  facet normal 0 0 -1
    outer loop
      vertex 12.1353 -8.81678 -3
      vertex 2.06354 -1.49925 -3
      vertex 2.11924 -1.41149 -3
    endloop
  endfacet
  facet normal 0 0 -1
    outer loop
      vertex 12.1353 -8.81678 -3
      vertex 1.99728 -1.57934 -3
      vertex 2.06354 -1.49925 -3
    endloop
  endfacet
  facet normal 0 0 -1
    outer loop
      vertex 10.9345 -10.2682 -3
      vertex 1.85936 -1.74606 -3
      vertex 1.99728 -1.57934 -3
    endloop
  endfacet
  facet normal 0 0 -1
    outer loop
      vertex 9.56136 -11.5577 -3
      vertex 1.70163 -1.89417 -3
      vertex 1.85936 -1.74606 -3
    endloop
  endfacet
  facet normal 0 0 -1
    outer loop
      vertex 9.56136 -11.5577 -3
      vertex 1.62586 -1.96533 -3
      vertex 1.70163 -1.89417 -3
    endloop
  endfacet
  facet normal 0 0 -1
    outer loop
      vertex 9.56136 -11.5577 -3
      vertex 1.54177 -2.02643 -3
      vertex 1.62586 -1.96533 -3
    endloop
  endfacet
  facet normal 0 0 -1
    outer loop
      vertex 8.0374 -12.6649 -3
      vertex 1.36672 -2.15361 -3
      vertex 1.54177 -2.02643 -3
    endloop
  endfacet
  facet normal 0 0 -1
    outer loop
      vertex 6.38669 -13.5724 -3
      vertex 1.17711 -2.25784 -3
      vertex 1.36672 -2.15361 -3
    endloop
  endfacet
  facet normal 0 0 -1
    outer loop
      vertex 6.38669 -13.5724 -3
      vertex 1.08602 -2.30792 -3
      vertex 1.17711 -2.25784 -3
    endloop
  endfacet
  facet normal 0 0 -1
    outer loop
      vertex 0.477948 -2.5055 -3
      vertex 2.81072 -14.7343 -3
      vertex 0.941857 -14.9704 -3
    endloop
  endfacet
  facet normal 0 0 -1
    outer loop
      vertex 4.63525 -14.2658 -3
      vertex 0.884847 -2.38757 -3
      vertex 1.08602 -2.30792 -3
    endloop
  endfacet
  facet normal 0 0 -1
    outer loop
      vertex 4.63525 -14.2658 -3
      vertex 0.788202 -2.42584 -3
      vertex 0.884847 -2.38757 -3
    endloop
  endfacet
  facet normal 0 0 -1
    outer loop
      vertex 2.81072 -14.7343 -3
      vertex 0.578627 -2.47965 -3
      vertex 0.788202 -2.42584 -3
    endloop
  endfacet
  facet normal 0 0 -1
    outer loop
      vertex 2.81072 -14.7343 -3
      vertex 0.477948 -2.5055 -3
      vertex 0.578627 -2.47965 -3
    endloop
  endfacet
  facet normal 0 0 -1
    outer loop
      vertex 0.941857 -14.9704 -3
      vertex 0.263282 -2.53261 -3
      vertex 0.477948 -2.5055 -3
    endloop
  endfacet
  facet normal 0 0 -1
    outer loop
      vertex 0.941857 -14.9704 -3
      vertex 0.160158 -2.54564 -3
      vertex 0.263282 -2.53261 -3
    endloop
  endfacet
  facet normal 0 0 -1
    outer loop
      vertex 0.941857 -14.9704 -3
      vertex -0.160158 -2.54564 -3
      vertex 0.160158 -2.54564 -3
    endloop
  endfacet
  facet normal 0 0 -1
    outer loop
      vertex -0.941857 -14.9704 -3
      vertex -0.160158 -2.54564 -3
      vertex 0.941857 -14.9704 -3
    endloop
  endfacet
  facet normal -0 0 -1
    outer loop
      vertex -0.160158 -2.54564 -3
      vertex -0.941857 -14.9704 -3
      vertex -0.263282 -2.53261 -3
    endloop
  endfacet
  facet normal -0 0 -1
    outer loop
      vertex -0.263282 -2.53261 -3
      vertex -0.941857 -14.9704 -3
      vertex -0.477948 -2.5055 -3
    endloop
  endfacet
  facet normal 0 0 -1
    outer loop
      vertex -2.81072 -14.7343 -3
      vertex -0.477948 -2.5055 -3
      vertex -0.941857 -14.9704 -3
    endloop
  endfacet
  facet normal -0 0 -1
    outer loop
      vertex -0.477948 -2.5055 -3
      vertex -2.81072 -14.7343 -3
      vertex -0.578627 -2.47965 -3
    endloop
  endfacet
  facet normal -0 0 -1
    outer loop
      vertex -0.578627 -2.47965 -3
      vertex -2.81072 -14.7343 -3
      vertex -0.788202 -2.42584 -3
    endloop
  endfacet
  facet normal 0 0 -1
    outer loop
      vertex -4.63525 -14.2658 -3
      vertex -0.788202 -2.42584 -3
      vertex -2.81072 -14.7343 -3
    endloop
  endfacet
  facet normal -0 0 -1
    outer loop
      vertex -0.788202 -2.42584 -3
      vertex -4.63525 -14.2658 -3
      vertex -0.884847 -2.38757 -3
    endloop
  endfacet
  facet normal -0 0 -1
    outer loop
      vertex -0.884847 -2.38757 -3
      vertex -4.63525 -14.2658 -3
      vertex -1.08602 -2.30792 -3
    endloop
  endfacet
  facet normal 0 0 -1
    outer loop
      vertex -6.38669 -13.5724 -3
      vertex -1.08602 -2.30792 -3
      vertex -4.63525 -14.2658 -3
    endloop
  endfacet
  facet normal -0 0 -1
    outer loop
      vertex -1.08602 -2.30792 -3
      vertex -6.38669 -13.5724 -3
      vertex -1.17711 -2.25784 -3
    endloop
  endfacet
  facet normal -0 0 -1
    outer loop
      vertex -1.17711 -2.25784 -3
      vertex -6.38669 -13.5724 -3
      vertex -1.36672 -2.15361 -3
    endloop
  endfacet
  facet normal 0 0 -1
    outer loop
      vertex -8.0374 -12.6649 -3
      vertex -1.36672 -2.15361 -3
      vertex -6.38669 -13.5724 -3
    endloop
  endfacet
  facet normal -0 0 -1
    outer loop
      vertex -1.36672 -2.15361 -3
      vertex -8.0374 -12.6649 -3
      vertex -1.54177 -2.02643 -3
    endloop
  endfacet
  facet normal 0 0 -1
    outer loop
      vertex -9.56136 -11.5577 -3
      vertex -1.54177 -2.02643 -3
      vertex -8.0374 -12.6649 -3
    endloop
  endfacet
  facet normal -0 0 -1
    outer loop
      vertex -1.54177 -2.02643 -3
      vertex -9.56136 -11.5577 -3
      vertex -1.62586 -1.96533 -3
    endloop
  endfacet
  facet normal -0 0 -1
    outer loop
      vertex -1.62586 -1.96533 -3
      vertex -9.56136 -11.5577 -3
      vertex -1.70163 -1.89417 -3
    endloop
  endfacet
  facet normal -0 0 -1
    outer loop
      vertex -1.70163 -1.89417 -3
      vertex -9.56136 -11.5577 -3
      vertex -1.85936 -1.74606 -3
    endloop
  endfacet
  facet normal 0 0 -1
    outer loop
      vertex -10.9345 -10.2682 -3
      vertex -1.85936 -1.74606 -3
      vertex -9.56136 -11.5577 -3
    endloop
  endfacet
  facet normal -0 0 -1
    outer loop
      vertex -1.85936 -1.74606 -3
      vertex -10.9345 -10.2682 -3
      vertex -1.99728 -1.57934 -3
    endloop
  endfacet
  facet normal 0 0 -1
    outer loop
      vertex -12.1353 -8.81678 -3
      vertex -1.99728 -1.57934 -3
      vertex -10.9345 -10.2682 -3
    endloop
  endfacet
  facet normal -0 0 -1
    outer loop
      vertex -1.99728 -1.57934 -3
      vertex -12.1353 -8.81678 -3
      vertex -2.06354 -1.49925 -3
    endloop
  endfacet
  facet normal -0 0 -1
    outer loop
      vertex -2.06354 -1.49925 -3
      vertex -12.1353 -8.81678 -3
      vertex -2.11924 -1.41149 -3
    endloop
  endfacet
  facet normal -0 0 -1
    outer loop
      vertex -2.23517 -1.2288 -3
      vertex -13.1446 -7.22631 -3
      vertex -2.27943 -1.13475 -3
    endloop
  endfacet
  facet normal 0 0 -1
    outer loop
      vertex -13.1446 -7.22631 -3
      vertex -2.23517 -1.2288 -3
      vertex -12.1353 -8.81678 -3
    endloop
  endfacet
  facet normal -0 0 -1
    outer loop
      vertex -2.11924 -1.41149 -3
      vertex -12.1353 -8.81678 -3
      vertex -2.23517 -1.2288 -3
    endloop
  endfacet
  facet normal 0 0 -1
    outer loop
      vertex 2.23517 1.2288 -3
      vertex 13.1446 7.22631 -3
      vertex 2.27943 1.13475 -3
    endloop
  endfacet
  facet normal -0 0 -1
    outer loop
      vertex 13.1446 7.22631 -3
      vertex 2.23517 1.2288 -3
      vertex 12.1353 8.81678 -3
    endloop
  endfacet
  facet normal 0 0 -1
    outer loop
      vertex 2.11924 1.41149 -3
      vertex 12.1353 8.81678 -3
      vertex 2.23517 1.2288 -3
    endloop
  endfacet
  facet normal 0 0 -1
    outer loop
      vertex 2.06354 1.49925 -3
      vertex 12.1353 8.81678 -3
      vertex 2.11924 1.41149 -3
    endloop
  endfacet
  facet normal 0 0 -1
    outer loop
      vertex 1.99728 1.57934 -3
      vertex 12.1353 8.81678 -3
      vertex 2.06354 1.49925 -3
    endloop
  endfacet
  facet normal -0 0 -1
    outer loop
      vertex 12.1353 8.81678 -3
      vertex 1.99728 1.57934 -3
      vertex 10.9345 10.2682 -3
    endloop
  endfacet
  facet normal 0 0 -1
    outer loop
      vertex 1.85936 1.74606 -3
      vertex 10.9345 10.2682 -3
      vertex 1.99728 1.57934 -3
    endloop
  endfacet
  facet normal -0 0 -1
    outer loop
      vertex 10.9345 10.2682 -3
      vertex 1.85936 1.74606 -3
      vertex 9.56136 11.5577 -3
    endloop
  endfacet
  facet normal 0 0 -1
    outer loop
      vertex 1.70163 1.89417 -3
      vertex 9.56136 11.5577 -3
      vertex 1.85936 1.74606 -3
    endloop
  endfacet
  facet normal 0 0 -1
    outer loop
      vertex 1.62586 1.96533 -3
      vertex 9.56136 11.5577 -3
      vertex 1.70163 1.89417 -3
    endloop
  endfacet
  facet normal 0 0 -1
    outer loop
      vertex 1.54177 2.02643 -3
      vertex 9.56136 11.5577 -3
      vertex 1.62586 1.96533 -3
    endloop
  endfacet
  facet normal -0 0 -1
    outer loop
      vertex 9.56136 11.5577 -3
      vertex 1.54177 2.02643 -3
      vertex 8.0374 12.6649 -3
    endloop
  endfacet
  facet normal 0 0 -1
    outer loop
      vertex 1.36672 2.15361 -3
      vertex 8.0374 12.6649 -3
      vertex 1.54177 2.02643 -3
    endloop
  endfacet
  facet normal -0 0 -1
    outer loop
      vertex 8.0374 12.6649 -3
      vertex 1.36672 2.15361 -3
      vertex 6.38669 13.5724 -3
    endloop
  endfacet
  facet normal 0 0 -1
    outer loop
      vertex 1.17711 2.25784 -3
      vertex 6.38669 13.5724 -3
      vertex 1.36672 2.15361 -3
    endloop
  endfacet
  facet normal 0 0 -1
    outer loop
      vertex 1.08602 2.30792 -3
      vertex 6.38669 13.5724 -3
      vertex 1.17711 2.25784 -3
    endloop
  endfacet
  facet normal -0 0 -1
    outer loop
      vertex 6.38669 13.5724 -3
      vertex 1.08602 2.30792 -3
      vertex 4.63525 14.2658 -3
    endloop
  endfacet
  facet normal 0 0 -1
    outer loop
      vertex 0.884847 2.38757 -3
      vertex 4.63525 14.2658 -3
      vertex 1.08602 2.30792 -3
    endloop
  endfacet
  facet normal 0 0 -1
    outer loop
      vertex 0.788202 2.42584 -3
      vertex 4.63525 14.2658 -3
      vertex 0.884847 2.38757 -3
    endloop
  endfacet
  facet normal -0 0 -1
    outer loop
      vertex 4.63525 14.2658 -3
      vertex 0.788202 2.42584 -3
      vertex 2.81072 14.7343 -3
    endloop
  endfacet
  facet normal 0 0 -1
    outer loop
      vertex 0.578627 2.47965 -3
      vertex 2.81072 14.7343 -3
      vertex 0.788202 2.42584 -3
    endloop
  endfacet
  facet normal 0 0 -1
    outer loop
      vertex 0.477948 2.5055 -3
      vertex 2.81072 14.7343 -3
      vertex 0.578627 2.47965 -3
    endloop
  endfacet
  facet normal -0 0 -1
    outer loop
      vertex 2.81072 14.7343 -3
      vertex 0.477948 2.5055 -3
      vertex 0.941857 14.9704 -3
    endloop
  endfacet
  facet normal 0 0 -1
    outer loop
      vertex 0.263282 2.53261 -3
      vertex 0.941857 14.9704 -3
      vertex 0.477948 2.5055 -3
    endloop
  endfacet
  facet normal 0 0 -1
    outer loop
      vertex 0.160158 2.54564 -3
      vertex 0.941857 14.9704 -3
      vertex 0.263282 2.53261 -3
    endloop
  endfacet
  facet normal 0 0 -1
    outer loop
      vertex -0.160158 2.54564 -3
      vertex 0.941857 14.9704 -3
      vertex 0.160158 2.54564 -3
    endloop
  endfacet
  facet normal 0 0 -1
    outer loop
      vertex -0.941857 14.9704 -3
      vertex -0.160158 2.54564 -3
      vertex -0.263282 2.53261 -3
    endloop
  endfacet
  facet normal 0 0 -1
    outer loop
      vertex -0.941857 14.9704 -3
      vertex -0.263282 2.53261 -3
      vertex -0.477948 2.5055 -3
    endloop
  endfacet
  facet normal 0 0 -1
    outer loop
      vertex -2.81072 14.7343 -3
      vertex -0.477948 2.5055 -3
      vertex -0.578627 2.47965 -3
    endloop
  endfacet
  facet normal 0 0 -1
    outer loop
      vertex -2.81072 14.7343 -3
      vertex -0.578627 2.47965 -3
      vertex -0.788202 2.42584 -3
    endloop
  endfacet
  facet normal 0 0 -1
    outer loop
      vertex -4.63525 14.2658 -3
      vertex -0.788202 2.42584 -3
      vertex -0.884847 2.38757 -3
    endloop
  endfacet
  facet normal 0 0 -1
    outer loop
      vertex -0.160158 2.54564 -3
      vertex -0.941857 14.9704 -3
      vertex 0.941857 14.9704 -3
    endloop
  endfacet
  facet normal 0 0 -1
    outer loop
      vertex -4.63525 14.2658 -3
      vertex -0.884847 2.38757 -3
      vertex -1.08602 2.30792 -3
    endloop
  endfacet
  facet normal 0 0 -1
    outer loop
      vertex -6.38669 13.5724 -3
      vertex -1.08602 2.30792 -3
      vertex -1.17711 2.25784 -3
    endloop
  endfacet
  facet normal 0 0 -1
    outer loop
      vertex -6.38669 13.5724 -3
      vertex -1.17711 2.25784 -3
      vertex -1.36672 2.15361 -3
    endloop
  endfacet
  facet normal 0 0 -1
    outer loop
      vertex -8.0374 12.6649 -3
      vertex -1.36672 2.15361 -3
      vertex -1.54177 2.02643 -3
    endloop
  endfacet
  facet normal 0 0 -1
    outer loop
      vertex -9.56136 11.5577 -3
      vertex -1.54177 2.02643 -3
      vertex -1.62586 1.96533 -3
    endloop
  endfacet
  facet normal 0 0 -1
    outer loop
      vertex -9.56136 11.5577 -3
      vertex -1.62586 1.96533 -3
      vertex -1.70163 1.89417 -3
    endloop
  endfacet
  facet normal 0 0 -1
    outer loop
      vertex -9.56136 11.5577 -3
      vertex -1.70163 1.89417 -3
      vertex -1.85936 1.74606 -3
    endloop
  endfacet
  facet normal 0 0 -1
    outer loop
      vertex -10.9345 10.2682 -3
      vertex -1.85936 1.74606 -3
      vertex -1.99728 1.57934 -3
    endloop
  endfacet
  facet normal 0 0 -1
    outer loop
      vertex -12.1353 8.81678 -3
      vertex -1.99728 1.57934 -3
      vertex -2.06354 1.49925 -3
    endloop
  endfacet
  facet normal 0 0 -1
    outer loop
      vertex -12.1353 8.81678 -3
      vertex -2.06354 1.49925 -3
      vertex -2.11924 1.41149 -3
    endloop
  endfacet
  facet normal 0 0 -1
    outer loop
      vertex -12.1353 8.81678 -3
      vertex -2.11924 1.41149 -3
      vertex -2.23517 1.2288 -3
    endloop
  endfacet
  facet normal 0 0 -1
    outer loop
      vertex -13.1446 7.22631 -3
      vertex -2.23517 1.2288 -3
      vertex -2.27943 1.13475 -3
    endloop
  endfacet
  facet normal 0 0 -1
    outer loop
      vertex -13.1446 7.22631 -3
      vertex -2.27943 1.13475 -3
      vertex -2.37156 0.938965 -3
    endloop
  endfacet
  facet normal 0 0 -1
    outer loop
      vertex -13.9466 5.52187 -3
      vertex -2.37156 0.938965 -3
      vertex -2.43842 0.733183 -3
    endloop
  endfacet
  facet normal 0 0 -1
    outer loop
      vertex -14.5287 3.73035 -3
      vertex -2.43842 0.733183 -3
      vertex -2.47054 0.634326 -3
    endloop
  endfacet
  facet normal 0 0 -1
    outer loop
      vertex -14.5287 3.73035 -3
      vertex -2.47054 0.634326 -3
      vertex -2.49002 0.532224 -3
    endloop
  endfacet
  facet normal 0 0 -1
    outer loop
      vertex -14.5287 3.73035 -3
      vertex -2.49002 0.532224 -3
      vertex -2.53056 0.319684 -3
    endloop
  endfacet
  facet normal 0 0 -1
    outer loop
      vertex -0.477948 2.5055 -3
      vertex -2.81072 14.7343 -3
      vertex -0.941857 14.9704 -3
    endloop
  endfacet
  facet normal 0 0 -1
    outer loop
      vertex -14.8817 1.88 -3
      vertex -2.53056 0.319684 -3
      vertex -2.54415 0.103739 -3
    endloop
  endfacet
  facet normal 0 0 -1
    outer loop
      vertex -15 0 -3
      vertex -2.54415 0.103739 -3
      vertex -2.55068 0 -3
    endloop
  endfacet
  facet normal -0 0 -1
    outer loop
      vertex -2.27943 -1.13475 -3
      vertex -13.1446 -7.22631 -3
      vertex -2.37156 -0.938965 -3
    endloop
  endfacet
  facet normal 0 0 -1
    outer loop
      vertex -13.9466 -5.52187 -3
      vertex -2.37156 -0.938965 -3
      vertex -13.1446 -7.22631 -3
    endloop
  endfacet
  facet normal 0 0 -1
    outer loop
      vertex -0.788202 2.42584 -3
      vertex -4.63525 14.2658 -3
      vertex -2.81072 14.7343 -3
    endloop
  endfacet
  facet normal -0 0 -1
    outer loop
      vertex -2.37156 -0.938965 -3
      vertex -13.9466 -5.52187 -3
      vertex -2.43842 -0.733183 -3
    endloop
  endfacet
  facet normal 0 0 -1
    outer loop
      vertex -1.08602 2.30792 -3
      vertex -6.38669 13.5724 -3
      vertex -4.63525 14.2658 -3
    endloop
  endfacet
  facet normal 0 0 -1
    outer loop
      vertex -14.5287 -3.73035 -3
      vertex -2.43842 -0.733183 -3
      vertex -13.9466 -5.52187 -3
    endloop
  endfacet
  facet normal 0 0 -1
    outer loop
      vertex -1.36672 2.15361 -3
      vertex -8.0374 12.6649 -3
      vertex -6.38669 13.5724 -3
    endloop
  endfacet
  facet normal -0 0 -1
    outer loop
      vertex -2.43842 -0.733183 -3
      vertex -14.5287 -3.73035 -3
      vertex -2.47054 -0.634326 -3
    endloop
  endfacet
  facet normal 0 0 -1
    outer loop
      vertex -1.54177 2.02643 -3
      vertex -9.56136 11.5577 -3
      vertex -8.0374 12.6649 -3
    endloop
  endfacet
  facet normal -0 0 -1
    outer loop
      vertex -2.47054 -0.634326 -3
      vertex -14.5287 -3.73035 -3
      vertex -2.49002 -0.532224 -3
    endloop
  endfacet
  facet normal 0 0 -1
    outer loop
      vertex -1.85936 1.74606 -3
      vertex -10.9345 10.2682 -3
      vertex -9.56136 11.5577 -3
    endloop
  endfacet
  facet normal -0 0 -1
    outer loop
      vertex -2.49002 -0.532224 -3
      vertex -14.5287 -3.73035 -3
      vertex -2.53056 -0.319684 -3
    endloop
  endfacet
  facet normal 0 0 -1
    outer loop
      vertex -1.99728 1.57934 -3
      vertex -12.1353 8.81678 -3
      vertex -10.9345 10.2682 -3
    endloop
  endfacet
  facet normal 0 0 -1
    outer loop
      vertex -14.8817 -1.88 -3
      vertex -2.53056 -0.319684 -3
      vertex -14.5287 -3.73035 -3
    endloop
  endfacet
  facet normal 0 0 -1
    outer loop
      vertex -2.23517 1.2288 -3
      vertex -13.1446 7.22631 -3
      vertex -12.1353 8.81678 -3
    endloop
  endfacet
  facet normal -0 0 -1
    outer loop
      vertex -2.53056 -0.319684 -3
      vertex -14.8817 -1.88 -3
      vertex -2.54415 -0.103739 -3
    endloop
  endfacet
  facet normal 0 0 -1
    outer loop
      vertex -2.37156 0.938965 -3
      vertex -13.9466 5.52187 -3
      vertex -13.1446 7.22631 -3
    endloop
  endfacet
  facet normal 0 0 -1
    outer loop
      vertex -15 0 -3
      vertex -2.54415 -0.103739 -3
      vertex -14.8817 -1.88 -3
    endloop
  endfacet
  facet normal 0 0 -1
    outer loop
      vertex -2.43842 0.733183 -3
      vertex -14.5287 3.73035 -3
      vertex -13.9466 5.52187 -3
    endloop
  endfacet
  facet normal 0 0 -1
    outer loop
      vertex -2.54415 -0.103739 -3
      vertex -15 0 -3
      vertex -2.55068 0 -3
    endloop
  endfacet
  facet normal 0 0 -1
    outer loop
      vertex -2.53056 0.319684 -3
      vertex -14.8817 1.88 -3
      vertex -14.5287 3.73035 -3
    endloop
  endfacet
  facet normal -0 0 -1
    outer loop
      vertex -2.54415 0.103739 -3
      vertex -15 0 -3
      vertex -14.8817 1.88 -3
    endloop
  endfacet
  facet normal 0.48176 -0.876303 0
    outer loop
      vertex 6.38669 -13.5724 -3
      vertex 8.0374 -12.6649 0
      vertex 6.38669 -13.5724 0
    endloop
  endfacet
  facet normal 0.48176 -0.876303 0
    outer loop
      vertex 8.0374 -12.6649 0
      vertex 6.38669 -13.5724 -3
      vertex 8.0374 -12.6649 -3
    endloop
  endfacet
  facet normal 0.684557 -0.728959 0
    outer loop
      vertex 9.56136 -11.5577 -3
      vertex 10.9345 -10.2682 0
      vertex 9.56136 -11.5577 0
    endloop
  endfacet
  facet normal 0.684557 -0.728959 0
    outer loop
      vertex 10.9345 -10.2682 0
      vertex 9.56136 -11.5577 -3
      vertex 10.9345 -10.2682 -3
    endloop
  endfacet
  facet normal 0.844338 -0.535811 0
    outer loop
      vertex 12.1353 -8.81678 0
      vertex 13.1446 -7.22631 -3
      vertex 13.1446 -7.22631 0
    endloop
  endfacet
  facet normal 0.844338 -0.535811 0
    outer loop
      vertex 13.1446 -7.22631 -3
      vertex 12.1353 -8.81678 0
      vertex 12.1353 -8.81678 -3
    endloop
  endfacet
  facet normal -0.770492 -0.63745 0
    outer loop
      vertex -10.9345 -10.2682 -3
      vertex -12.1353 -8.81678 0
      vertex -12.1353 -8.81678 -3
    endloop
  endfacet
  facet normal -0.770492 -0.63745 0
    outer loop
      vertex -12.1353 -8.81678 0
      vertex -10.9345 -10.2682 -3
      vertex -10.9345 -10.2682 0
    endloop
  endfacet
  facet normal -0.844338 -0.535811 0
    outer loop
      vertex -12.1353 -8.81678 -3
      vertex -13.1446 -7.22631 0
      vertex -13.1446 -7.22631 -3
    endloop
  endfacet
  facet normal -0.844338 -0.535811 0
    outer loop
      vertex -13.1446 -7.22631 0
      vertex -12.1353 -8.81678 -3
      vertex -12.1353 -8.81678 0
    endloop
  endfacet
  facet normal -0.951057 -0.309017 0
    outer loop
      vertex -13.9466 -5.52187 -3
      vertex -14.5287 -3.73035 0
      vertex -14.5287 -3.73035 -3
    endloop
  endfacet
  facet normal -0.951057 -0.309017 0
    outer loop
      vertex -14.5287 -3.73035 0
      vertex -13.9466 -5.52187 -3
      vertex -13.9466 -5.52187 0
    endloop
  endfacet
  facet normal 0.368104 -0.929785 0
    outer loop
      vertex 4.63525 -14.2658 -3
      vertex 6.38669 -13.5724 0
      vertex 4.63525 -14.2658 0
    endloop
  endfacet
  facet normal 0.368104 -0.929785 0
    outer loop
      vertex 6.38669 -13.5724 0
      vertex 4.63525 -14.2658 -3
      vertex 6.38669 -13.5724 -3
    endloop
  endfacet
  facet normal 0.24871 -0.968578 0
    outer loop
      vertex 2.81072 -14.7343 -3
      vertex 4.63525 -14.2658 0
      vertex 2.81072 -14.7343 0
    endloop
  endfacet
  facet normal 0.24871 -0.968578 0
    outer loop
      vertex 4.63525 -14.2658 0
      vertex 2.81072 -14.7343 -3
      vertex 4.63525 -14.2658 -3
    endloop
  endfacet
  facet normal 0.125337 -0.992114 0
    outer loop
      vertex 0.941857 -14.9704 -3
      vertex 2.81072 -14.7343 0
      vertex 0.941857 -14.9704 0
    endloop
  endfacet
  facet normal 0.125337 -0.992114 0
    outer loop
      vertex 2.81072 -14.7343 0
      vertex 0.941857 -14.9704 -3
      vertex 2.81072 -14.7343 -3
    endloop
  endfacet
  facet normal -0.125337 -0.992114 0
    outer loop
      vertex -2.81072 -14.7343 -3
      vertex -0.941857 -14.9704 0
      vertex -2.81072 -14.7343 0
    endloop
  endfacet
  facet normal -0.125337 -0.992114 -0
    outer loop
      vertex -0.941857 -14.9704 0
      vertex -2.81072 -14.7343 -3
      vertex -0.941857 -14.9704 -3
    endloop
  endfacet
  facet normal -0.368104 -0.929785 0
    outer loop
      vertex -6.38669 -13.5724 -3
      vertex -4.63525 -14.2658 0
      vertex -6.38669 -13.5724 0
    endloop
  endfacet
  facet normal -0.368104 -0.929785 -0
    outer loop
      vertex -4.63525 -14.2658 0
      vertex -6.38669 -13.5724 -3
      vertex -4.63525 -14.2658 -3
    endloop
  endfacet
  facet normal -0.24871 -0.968578 0
    outer loop
      vertex -4.63525 -14.2658 -3
      vertex -2.81072 -14.7343 0
      vertex -4.63525 -14.2658 0
    endloop
  endfacet
  facet normal -0.24871 -0.968578 -0
    outer loop
      vertex -2.81072 -14.7343 0
      vertex -4.63525 -14.2658 -3
      vertex -2.81072 -14.7343 -3
    endloop
  endfacet
  facet normal -0.684557 -0.728959 0
    outer loop
      vertex -10.9345 -10.2682 -3
      vertex -9.56136 -11.5577 0
      vertex -10.9345 -10.2682 0
    endloop
  endfacet
  facet normal -0.684557 -0.728959 -0
    outer loop
      vertex -9.56136 -11.5577 0
      vertex -10.9345 -10.2682 -3
      vertex -9.56136 -11.5577 -3
    endloop
  endfacet
  facet normal -0.904837 -0.425758 0
    outer loop
      vertex -13.1446 -7.22631 -3
      vertex -13.9466 -5.52187 0
      vertex -13.9466 -5.52187 -3
    endloop
  endfacet
  facet normal -0.904837 -0.425758 0
    outer loop
      vertex -13.9466 -5.52187 0
      vertex -13.1446 -7.22631 -3
      vertex -13.1446 -7.22631 0
    endloop
  endfacet
  facet normal -0.982285 -0.187395 0
    outer loop
      vertex -14.5287 -3.73035 -3
      vertex -14.8817 -1.88 0
      vertex -14.8817 -1.88 -3
    endloop
  endfacet
  facet normal -0.982285 -0.187395 0
    outer loop
      vertex -14.8817 -1.88 0
      vertex -14.5287 -3.73035 -3
      vertex -14.5287 -3.73035 0
    endloop
  endfacet
  facet normal -0.998026 -0.0628013 0
    outer loop
      vertex -14.8817 -1.88 -3
      vertex -15 0 0
      vertex -15 0 -3
    endloop
  endfacet
  facet normal -0.998026 -0.0628013 0
    outer loop
      vertex -15 0 0
      vertex -14.8817 -1.88 -3
      vertex -14.8817 -1.88 0
    endloop
  endfacet
  facet normal 0.587778 -0.809022 0
    outer loop
      vertex 8.0374 -12.6649 -3
      vertex 9.56136 -11.5577 0
      vertex 8.0374 -12.6649 0
    endloop
  endfacet
  facet normal 0.587778 -0.809022 0
    outer loop
      vertex 9.56136 -11.5577 0
      vertex 8.0374 -12.6649 -3
      vertex 9.56136 -11.5577 -3
    endloop
  endfacet
  facet normal -0.48176 -0.876303 0
    outer loop
      vertex -8.0374 -12.6649 -3
      vertex -6.38669 -13.5724 0
      vertex -8.0374 -12.6649 0
    endloop
  endfacet
  facet normal -0.48176 -0.876303 -0
    outer loop
      vertex -6.38669 -13.5724 0
      vertex -8.0374 -12.6649 -3
      vertex -6.38669 -13.5724 -3
    endloop
  endfacet
  facet normal -0.587778 -0.809022 0
    outer loop
      vertex -9.56136 -11.5577 -3
      vertex -8.0374 -12.6649 0
      vertex -9.56136 -11.5577 0
    endloop
  endfacet
  facet normal -0.587778 -0.809022 -0
    outer loop
      vertex -8.0374 -12.6649 0
      vertex -9.56136 -11.5577 -3
      vertex -8.0374 -12.6649 -3
    endloop
  endfacet
  facet normal -0.107144 0.848135 0.518833
    outer loop
      vertex 0.263282 -2.53261 -3
      vertex 0.274708 -4.36637 0
      vertex 0.819793 -4.29751 0
    endloop
  endfacet
  facet normal -0.107164 0.848133 0.518832
    outer loop
      vertex 0.274708 -4.36637 0
      vertex 0.263282 -2.53261 -3
      vertex 0.160158 -2.54564 -3
    endloop
  endfacet
  facet normal -0.853189 -0.0537052 0.51883
    outer loop
      vertex 4.375 0 0
      vertex 2.54415 0.103739 -3
      vertex 2.55068 0 -3
    endloop
  endfacet
  facet normal -0.85319 -0.0536811 0.518831
    outer loop
      vertex 2.54415 0.103739 -3
      vertex 4.375 0 0
      vertex 4.3405 0.548332 0
    endloop
  endfacet
  facet normal -0.853188 -0.0536934 0.518832
    outer loop
      vertex 2.54415 0.103739 -3
      vertex 4.3405 0.548332 0
      vertex 2.53056 0.319684 -3
    endloop
  endfacet
  facet normal -0.853188 0.0536934 0.518832
    outer loop
      vertex 4.3405 -0.548332 0
      vertex 2.54415 -0.103739 -3
      vertex 2.53056 -0.319684 -3
    endloop
  endfacet
  facet normal 0.839737 0.160172 0.518832
    outer loop
      vertex -2.49002 -0.532224 -3
      vertex -2.53056 -0.319684 -3
      vertex -4.3405 -0.548332 0
    endloop
  endfacet
  facet normal 0.212607 -0.828017 0.518831
    outer loop
      vertex -0.578627 2.47965 -3
      vertex -0.819793 4.29751 0
      vertex -1.35195 4.16087 0
    endloop
  endfacet
  facet normal 0.212599 -0.828019 0.518831
    outer loop
      vertex -0.819793 4.29751 0
      vertex -0.578627 2.47965 -3
      vertex -0.477948 2.5055 -3
    endloop
  endfacet
  facet normal -0.658699 0.544912 0.518831
    outer loop
      vertex 3.18924 -2.99489 0
      vertex 1.99728 -1.57934 -3
      vertex 1.85936 -1.74606 -3
    endloop
  endfacet
  facet normal -0.813037 0.264167 0.518832
    outer loop
      vertex 2.43842 -0.733183 -3
      vertex 4.23755 -1.08802 0
      vertex 2.47054 -0.634326 -3
    endloop
  endfacet
  facet normal -0.813035 0.264176 0.518831
    outer loop
      vertex 4.23755 -1.08802 0
      vertex 2.43842 -0.733183 -3
      vertex 4.06777 -1.61054 0
    endloop
  endfacet
  facet normal -0.853189 0.0537052 0.51883
    outer loop
      vertex 2.54415 -0.103739 -3
      vertex 4.375 0 0
      vertex 2.55068 0 -3
    endloop
  endfacet
  facet normal -0.85319 0.0536811 0.518831
    outer loop
      vertex 4.375 0 0
      vertex 2.54415 -0.103739 -3
      vertex 4.3405 -0.548332 0
    endloop
  endfacet
  facet normal -0.773506 0.364013 0.518829
    outer loop
      vertex 2.23517 -1.2288 -3
      vertex 4.06777 -1.61054 0
      vertex 2.27943 -1.13475 -3
    endloop
  endfacet
  facet normal -0.773516 0.363987 0.518831
    outer loop
      vertex 4.06777 -1.61054 0
      vertex 2.23517 -1.2288 -3
      vertex 3.83384 -2.10767 0
    endloop
  endfacet
  facet normal -0.721811 0.458041 0.518832
    outer loop
      vertex 3.83384 -2.10767 0
      vertex 2.23517 -1.2288 -3
      vertex 2.11924 -1.41149 -3
    endloop
  endfacet
  facet normal -0.411846 0.74913 0.518832
    outer loop
      vertex 1.17711 -2.25784 -3
      vertex 1.86278 -3.95862 0
      vertex 2.34424 -3.69393 0
    endloop
  endfacet
  facet normal -0.411858 0.749124 0.518831
    outer loop
      vertex 1.86278 -3.95862 0
      vertex 1.17711 -2.25784 -3
      vertex 1.08602 -2.30792 -3
    endloop
  endfacet
  facet normal -0.314698 0.794845 0.518832
    outer loop
      vertex 0.884847 -2.38757 -3
      vertex 1.35195 -4.16087 0
      vertex 1.86278 -3.95862 0
    endloop
  endfacet
  facet normal -0.314741 0.79483 0.518829
    outer loop
      vertex 1.35195 -4.16087 0
      vertex 0.884847 -2.38757 -3
      vertex 0.788202 -2.42584 -3
    endloop
  endfacet
  facet normal 0.502513 0.691592 0.518827
    outer loop
      vertex -1.62586 -1.96533 -3
      vertex -2.34424 -3.69393 0
      vertex -1.54177 -2.02643 -3
    endloop
  endfacet
  facet normal 0.502483 0.691611 0.518831
    outer loop
      vertex -2.34424 -3.69393 0
      vertex -1.62586 -1.96533 -3
      vertex -2.78873 -3.37099 0
    endloop
  endfacet
  facet normal 0.107144 -0.848135 0.518833
    outer loop
      vertex -0.263282 2.53261 -3
      vertex -0.274708 4.36637 0
      vertex -0.819793 4.29751 0
    endloop
  endfacet
  facet normal 0.107164 -0.848133 0.518832
    outer loop
      vertex -0.274708 4.36637 0
      vertex -0.263282 2.53261 -3
      vertex -0.160158 2.54564 -3
    endloop
  endfacet
  facet normal -0.81304 0.264162 0.51883
    outer loop
      vertex 4.06777 -1.61054 0
      vertex 2.43842 -0.733183 -3
      vertex 2.37156 -0.938965 -3
    endloop
  endfacet
  facet normal -0.2126 0.828019 0.51883
    outer loop
      vertex 1.35195 -4.16087 0
      vertex 0.788202 -2.42584 -3
      vertex 0.578627 -2.47965 -3
    endloop
  endfacet
  facet normal -0.585186 0.623195 0.518831
    outer loop
      vertex 3.18924 -2.99489 0
      vertex 1.85936 -1.74606 -3
      vertex 1.70163 -1.89417 -3
    endloop
  endfacet
  facet normal 0.721811 0.458041 0.518832
    outer loop
      vertex -2.11924 -1.41149 -3
      vertex -2.23517 -1.2288 -3
      vertex -3.83384 -2.10767 0
    endloop
  endfacet
  facet normal 0.502483 -0.691611 0.518831
    outer loop
      vertex -1.62586 1.96533 -3
      vertex -2.34424 3.69393 0
      vertex -2.78873 3.37099 0
    endloop
  endfacet
  facet normal 0.502513 -0.691592 0.518827
    outer loop
      vertex -2.34424 3.69393 0
      vertex -1.62586 1.96533 -3
      vertex -1.54177 2.02643 -3
    endloop
  endfacet
  facet normal 0.721799 -0.458062 0.518831
    outer loop
      vertex -3.83384 2.10767 0
      vertex -2.06354 1.49925 -3
      vertex -3.53945 2.57156 0
    endloop
  endfacet
  facet normal 0.721777 -0.458101 0.518827
    outer loop
      vertex -2.06354 1.49925 -3
      vertex -3.83384 2.10767 0
      vertex -2.11924 1.41149 -3
    endloop
  endfacet
  facet normal -0.411858 -0.749124 0.518831
    outer loop
      vertex 1.17711 2.25784 -3
      vertex 1.86278 3.95862 0
      vertex 1.08602 2.30792 -3
    endloop
  endfacet
  facet normal -0.411846 -0.74913 0.518832
    outer loop
      vertex 1.86278 3.95862 0
      vertex 1.17711 2.25784 -3
      vertex 2.34424 3.69393 0
    endloop
  endfacet
  facet normal -0.839737 0.160172 0.518832
    outer loop
      vertex 4.3405 -0.548332 0
      vertex 2.53056 -0.319684 -3
      vertex 2.49002 -0.532224 -3
    endloop
  endfacet
  facet normal -0.839731 0.160212 0.518829
    outer loop
      vertex 2.47054 -0.634326 -3
      vertex 4.3405 -0.548332 0
      vertex 2.49002 -0.532224 -3
    endloop
  endfacet
  facet normal -0.839735 0.160186 0.518832
    outer loop
      vertex 4.3405 -0.548332 0
      vertex 2.47054 -0.634326 -3
      vertex 4.23755 -1.08802 0
    endloop
  endfacet
  facet normal -0.721777 0.458101 0.518827
    outer loop
      vertex 2.06354 -1.49925 -3
      vertex 3.83384 -2.10767 0
      vertex 2.11924 -1.41149 -3
    endloop
  endfacet
  facet normal -0.721799 0.458062 0.518831
    outer loop
      vertex 3.83384 -2.10767 0
      vertex 2.06354 -1.49925 -3
      vertex 3.53945 -2.57156 0
    endloop
  endfacet
  facet normal -0.658679 0.544938 0.518831
    outer loop
      vertex 1.99728 -1.57934 -3
      vertex 3.53945 -2.57156 0
      vertex 2.06354 -1.49925 -3
    endloop
  endfacet
  facet normal -0.658693 0.544919 0.518832
    outer loop
      vertex 3.53945 -2.57156 0
      vertex 1.99728 -1.57934 -3
      vertex 3.18924 -2.99489 0
    endloop
  endfacet
  facet normal -0.212607 0.828017 0.518831
    outer loop
      vertex 0.578627 -2.47965 -3
      vertex 0.819793 -4.29751 0
      vertex 1.35195 -4.16087 0
    endloop
  endfacet
  facet normal -0.212599 0.828019 0.518831
    outer loop
      vertex 0.819793 -4.29751 0
      vertex 0.578627 -2.47965 -3
      vertex 0.477948 -2.5055 -3
    endloop
  endfacet
  facet normal -0.107111 0.84814 0.51883
    outer loop
      vertex 0.819793 -4.29751 0
      vertex 0.477948 -2.5055 -3
      vertex 0.263282 -2.53261 -3
    endloop
  endfacet
  facet normal -0.502483 0.691611 0.518831
    outer loop
      vertex 1.62586 -1.96533 -3
      vertex 2.34424 -3.69393 0
      vertex 2.78873 -3.37099 0
    endloop
  endfacet
  facet normal -0.502513 0.691592 0.518827
    outer loop
      vertex 2.34424 -3.69393 0
      vertex 1.62586 -1.96533 -3
      vertex 1.54177 -2.02643 -3
    endloop
  endfacet
  facet normal -0.5852 0.623181 0.518832
    outer loop
      vertex 1.70163 -1.89417 -3
      vertex 2.78873 -3.37099 0
      vertex 3.18924 -2.99489 0
    endloop
  endfacet
  facet normal -0.585236 0.623149 0.51883
    outer loop
      vertex 2.78873 -3.37099 0
      vertex 1.70163 -1.89417 -3
      vertex 1.62586 -1.96533 -3
    endloop
  endfacet
  facet normal -0.502481 0.691613 0.51883
    outer loop
      vertex 2.34424 -3.69393 0
      vertex 1.54177 -2.02643 -3
      vertex 1.36672 -2.15361 -3
    endloop
  endfacet
  facet normal -0.411813 0.74915 0.518829
    outer loop
      vertex 2.34424 -3.69393 0
      vertex 1.36672 -2.15361 -3
      vertex 1.17711 -2.25784 -3
    endloop
  endfacet
  facet normal 0.2126 0.828019 0.51883
    outer loop
      vertex -0.578627 -2.47965 -3
      vertex -0.788202 -2.42584 -3
      vertex -1.35195 -4.16087 0
    endloop
  endfacet
  facet normal 0.212599 0.828019 0.518831
    outer loop
      vertex -0.578627 -2.47965 -3
      vertex -0.819793 -4.29751 0
      vertex -0.477948 -2.5055 -3
    endloop
  endfacet
  facet normal 0.212607 0.828017 0.518831
    outer loop
      vertex -0.819793 -4.29751 0
      vertex -0.578627 -2.47965 -3
      vertex -1.35195 -4.16087 0
    endloop
  endfacet
  facet normal 0.502481 0.691613 0.51883
    outer loop
      vertex -1.36672 -2.15361 -3
      vertex -1.54177 -2.02643 -3
      vertex -2.34424 -3.69393 0
    endloop
  endfacet
  facet normal 0.721777 0.458101 0.518827
    outer loop
      vertex -3.83384 -2.10767 0
      vertex -2.06354 -1.49925 -3
      vertex -2.11924 -1.41149 -3
    endloop
  endfacet
  facet normal 0.721799 0.458062 0.518831
    outer loop
      vertex -2.06354 -1.49925 -3
      vertex -3.83384 -2.10767 0
      vertex -3.53945 -2.57156 0
    endloop
  endfacet
  facet normal 0.658679 0.544938 0.518831
    outer loop
      vertex -3.53945 -2.57156 0
      vertex -1.99728 -1.57934 -3
      vertex -2.06354 -1.49925 -3
    endloop
  endfacet
  facet normal 0.658693 0.544919 0.518832
    outer loop
      vertex -1.99728 -1.57934 -3
      vertex -3.53945 -2.57156 0
      vertex -3.18924 -2.99489 0
    endloop
  endfacet
  facet normal 0.773506 0.364013 0.518829
    outer loop
      vertex -4.06777 -1.61054 0
      vertex -2.23517 -1.2288 -3
      vertex -2.27943 -1.13475 -3
    endloop
  endfacet
  facet normal 0.773516 0.363987 0.518831
    outer loop
      vertex -2.23517 -1.2288 -3
      vertex -4.06777 -1.61054 0
      vertex -3.83384 -2.10767 0
    endloop
  endfacet
  facet normal 0.81304 0.264162 0.51883
    outer loop
      vertex -2.37156 -0.938965 -3
      vertex -2.43842 -0.733183 -3
      vertex -4.06777 -1.61054 0
    endloop
  endfacet
  facet normal 0.813035 -0.264176 0.518831
    outer loop
      vertex -4.23755 1.08802 0
      vertex -2.43842 0.733183 -3
      vertex -4.06777 1.61054 0
    endloop
  endfacet
  facet normal 0.813037 -0.264167 0.518832
    outer loop
      vertex -2.43842 0.733183 -3
      vertex -4.23755 1.08802 0
      vertex -2.47054 0.634326 -3
    endloop
  endfacet
  facet normal 0.411813 -0.74915 0.518829
    outer loop
      vertex -1.36672 2.15361 -3
      vertex -1.17711 2.25784 -3
      vertex -2.34424 3.69393 0
    endloop
  endfacet
  facet normal -0.721811 -0.458041 0.518832
    outer loop
      vertex 2.23517 1.2288 -3
      vertex 3.83384 2.10767 0
      vertex 2.11924 1.41149 -3
    endloop
  endfacet
  facet normal -0.502481 -0.691613 0.51883
    outer loop
      vertex 1.54177 2.02643 -3
      vertex 2.34424 3.69393 0
      vertex 1.36672 2.15361 -3
    endloop
  endfacet
  facet normal -0.773515 0.363991 0.51883
    outer loop
      vertex 4.06777 -1.61054 0
      vertex 2.37156 -0.938965 -3
      vertex 2.27943 -1.13475 -3
    endloop
  endfacet
  facet normal -0.314701 0.794844 0.518832
    outer loop
      vertex 1.86278 -3.95862 0
      vertex 1.08602 -2.30792 -3
      vertex 0.884847 -2.38757 -3
    endloop
  endfacet
  facet normal 0.813037 0.264167 0.518832
    outer loop
      vertex -4.23755 -1.08802 0
      vertex -2.43842 -0.733183 -3
      vertex -2.47054 -0.634326 -3
    endloop
  endfacet
  facet normal 0.813035 0.264176 0.518831
    outer loop
      vertex -2.43842 -0.733183 -3
      vertex -4.23755 -1.08802 0
      vertex -4.06777 -1.61054 0
    endloop
  endfacet
  facet normal 0.839731 0.160212 0.518829
    outer loop
      vertex -4.3405 -0.548332 0
      vertex -2.47054 -0.634326 -3
      vertex -2.49002 -0.532224 -3
    endloop
  endfacet
  facet normal 0.839735 0.160186 0.518832
    outer loop
      vertex -2.47054 -0.634326 -3
      vertex -4.3405 -0.548332 0
      vertex -4.23755 -1.08802 0
    endloop
  endfacet
  facet normal 0.314701 0.794844 0.518832
    outer loop
      vertex -0.884847 -2.38757 -3
      vertex -1.08602 -2.30792 -3
      vertex -1.86278 -3.95862 0
    endloop
  endfacet
  facet normal 0.314741 0.79483 0.518829
    outer loop
      vertex -0.884847 -2.38757 -3
      vertex -1.35195 -4.16087 0
      vertex -0.788202 -2.42584 -3
    endloop
  endfacet
  facet normal 0.314698 0.794845 0.518832
    outer loop
      vertex -1.35195 -4.16087 0
      vertex -0.884847 -2.38757 -3
      vertex -1.86278 -3.95862 0
    endloop
  endfacet
  facet normal 0.585236 0.623149 0.51883
    outer loop
      vertex -1.70163 -1.89417 -3
      vertex -2.78873 -3.37099 0
      vertex -1.62586 -1.96533 -3
    endloop
  endfacet
  facet normal 0.5852 0.623181 0.518832
    outer loop
      vertex -2.78873 -3.37099 0
      vertex -1.70163 -1.89417 -3
      vertex -3.18924 -2.99489 0
    endloop
  endfacet
  facet normal 0.411846 -0.74913 0.518832
    outer loop
      vertex -1.17711 2.25784 -3
      vertex -1.86278 3.95862 0
      vertex -2.34424 3.69393 0
    endloop
  endfacet
  facet normal 0.411858 -0.749124 0.518831
    outer loop
      vertex -1.86278 3.95862 0
      vertex -1.17711 2.25784 -3
      vertex -1.08602 2.30792 -3
    endloop
  endfacet
  facet normal 0.839735 -0.160186 0.518832
    outer loop
      vertex -4.3405 0.548332 0
      vertex -2.47054 0.634326 -3
      vertex -4.23755 1.08802 0
    endloop
  endfacet
  facet normal 0.839731 -0.160212 0.518829
    outer loop
      vertex -2.47054 0.634326 -3
      vertex -4.3405 0.548332 0
      vertex -2.49002 0.532224 -3
    endloop
  endfacet
  facet normal 0.721811 -0.458041 0.518832
    outer loop
      vertex -2.23517 1.2288 -3
      vertex -2.11924 1.41149 -3
      vertex -3.83384 2.10767 0
    endloop
  endfacet
  facet normal 0.5852 -0.623181 0.518832
    outer loop
      vertex -1.70163 1.89417 -3
      vertex -2.78873 3.37099 0
      vertex -3.18924 2.99489 0
    endloop
  endfacet
  facet normal 0.585236 -0.623149 0.51883
    outer loop
      vertex -2.78873 3.37099 0
      vertex -1.70163 1.89417 -3
      vertex -1.62586 1.96533 -3
    endloop
  endfacet
  facet normal 0.314701 -0.794844 0.518832
    outer loop
      vertex -1.08602 2.30792 -3
      vertex -0.884847 2.38757 -3
      vertex -1.86278 3.95862 0
    endloop
  endfacet
  facet normal -0.773516 -0.363987 0.518831
    outer loop
      vertex 2.23517 1.2288 -3
      vertex 4.06777 1.61054 0
      vertex 3.83384 2.10767 0
    endloop
  endfacet
  facet normal -0.773506 -0.364013 0.518829
    outer loop
      vertex 4.06777 1.61054 0
      vertex 2.23517 1.2288 -3
      vertex 2.27943 1.13475 -3
    endloop
  endfacet
  facet normal -0.585186 -0.623195 0.518831
    outer loop
      vertex 1.85936 1.74606 -3
      vertex 3.18924 2.99489 0
      vertex 1.70163 1.89417 -3
    endloop
  endfacet
  facet normal -0.411813 -0.74915 0.518829
    outer loop
      vertex 1.36672 2.15361 -3
      vertex 2.34424 3.69393 0
      vertex 1.17711 2.25784 -3
    endloop
  endfacet
  facet normal -0.107164 -0.848133 0.518832
    outer loop
      vertex 0.263282 2.53261 -3
      vertex 0.274708 4.36637 0
      vertex 0.160158 2.54564 -3
    endloop
  endfacet
  facet normal -0.107144 -0.848135 0.518833
    outer loop
      vertex 0.274708 4.36637 0
      vertex 0.263282 2.53261 -3
      vertex 0.819793 4.29751 0
    endloop
  endfacet
  facet normal 0 -0.854876 0.518833
    outer loop
      vertex -0.160158 2.54564 -3
      vertex 0.274708 4.36637 0
      vertex -0.274708 4.36637 0
    endloop
  endfacet
  facet normal 0 -0.854876 0.518833
    outer loop
      vertex 0.274708 4.36637 0
      vertex -0.160158 2.54564 -3
      vertex 0.160158 2.54564 -3
    endloop
  endfacet
  facet normal 0.773515 0.363991 0.51883
    outer loop
      vertex -2.27943 -1.13475 -3
      vertex -2.37156 -0.938965 -3
      vertex -4.06777 -1.61054 0
    endloop
  endfacet
  facet normal 0.107164 0.848133 0.518832
    outer loop
      vertex -0.263282 -2.53261 -3
      vertex -0.274708 -4.36637 0
      vertex -0.160158 -2.54564 -3
    endloop
  endfacet
  facet normal 0.107144 0.848135 0.518833
    outer loop
      vertex -0.274708 -4.36637 0
      vertex -0.263282 -2.53261 -3
      vertex -0.819793 -4.29751 0
    endloop
  endfacet
  facet normal 0 0.854876 0.518833
    outer loop
      vertex 0.160158 -2.54564 -3
      vertex -0.274708 -4.36637 0
      vertex 0.274708 -4.36637 0
    endloop
  endfacet
  facet normal 0 0.854876 0.518833
    outer loop
      vertex -0.274708 -4.36637 0
      vertex 0.160158 -2.54564 -3
      vertex -0.160158 -2.54564 -3
    endloop
  endfacet
  facet normal 0.411858 0.749124 0.518831
    outer loop
      vertex -1.17711 -2.25784 -3
      vertex -1.86278 -3.95862 0
      vertex -1.08602 -2.30792 -3
    endloop
  endfacet
  facet normal 0.411846 0.74913 0.518832
    outer loop
      vertex -1.86278 -3.95862 0
      vertex -1.17711 -2.25784 -3
      vertex -2.34424 -3.69393 0
    endloop
  endfacet
  facet normal 0.411813 0.74915 0.518829
    outer loop
      vertex -1.17711 -2.25784 -3
      vertex -1.36672 -2.15361 -3
      vertex -2.34424 -3.69393 0
    endloop
  endfacet
  facet normal 0.585186 0.623195 0.518831
    outer loop
      vertex -1.70163 -1.89417 -3
      vertex -1.85936 -1.74606 -3
      vertex -3.18924 -2.99489 0
    endloop
  endfacet
  facet normal 0.658699 0.544912 0.518831
    outer loop
      vertex -1.85936 -1.74606 -3
      vertex -1.99728 -1.57934 -3
      vertex -3.18924 -2.99489 0
    endloop
  endfacet
  facet normal 0.773516 -0.363987 0.518831
    outer loop
      vertex -4.06777 1.61054 0
      vertex -2.23517 1.2288 -3
      vertex -3.83384 2.10767 0
    endloop
  endfacet
  facet normal 0.773506 -0.364013 0.518829
    outer loop
      vertex -2.23517 1.2288 -3
      vertex -4.06777 1.61054 0
      vertex -2.27943 1.13475 -3
    endloop
  endfacet
  facet normal 0.853188 -0.0536934 0.518832
    outer loop
      vertex -2.54415 0.103739 -3
      vertex -2.53056 0.319684 -3
      vertex -4.3405 0.548332 0
    endloop
  endfacet
  facet normal 0.81304 -0.264162 0.51883
    outer loop
      vertex -2.43842 0.733183 -3
      vertex -2.37156 0.938965 -3
      vertex -4.06777 1.61054 0
    endloop
  endfacet
  facet normal 0.773515 -0.363991 0.51883
    outer loop
      vertex -2.37156 0.938965 -3
      vertex -2.27943 1.13475 -3
      vertex -4.06777 1.61054 0
    endloop
  endfacet
  facet normal 0.658693 -0.544919 0.518832
    outer loop
      vertex -3.53945 2.57156 0
      vertex -1.99728 1.57934 -3
      vertex -3.18924 2.99489 0
    endloop
  endfacet
  facet normal 0.658679 -0.544938 0.518831
    outer loop
      vertex -1.99728 1.57934 -3
      vertex -3.53945 2.57156 0
      vertex -2.06354 1.49925 -3
    endloop
  endfacet
  facet normal 0.502481 -0.691613 0.51883
    outer loop
      vertex -1.54177 2.02643 -3
      vertex -1.36672 2.15361 -3
      vertex -2.34424 3.69393 0
    endloop
  endfacet
  facet normal 0.314698 -0.794845 0.518832
    outer loop
      vertex -0.884847 2.38757 -3
      vertex -1.35195 4.16087 0
      vertex -1.86278 3.95862 0
    endloop
  endfacet
  facet normal 0.314741 -0.79483 0.518829
    outer loop
      vertex -1.35195 4.16087 0
      vertex -0.884847 2.38757 -3
      vertex -0.788202 2.42584 -3
    endloop
  endfacet
  facet normal 0.2126 -0.828019 0.51883
    outer loop
      vertex -0.788202 2.42584 -3
      vertex -0.578627 2.47965 -3
      vertex -1.35195 4.16087 0
    endloop
  endfacet
  facet normal -0.658699 -0.544912 0.518831
    outer loop
      vertex 1.99728 1.57934 -3
      vertex 3.18924 2.99489 0
      vertex 1.85936 1.74606 -3
    endloop
  endfacet
  facet normal -0.585236 -0.623149 0.51883
    outer loop
      vertex 1.70163 1.89417 -3
      vertex 2.78873 3.37099 0
      vertex 1.62586 1.96533 -3
    endloop
  endfacet
  facet normal -0.5852 -0.623181 0.518832
    outer loop
      vertex 2.78873 3.37099 0
      vertex 1.70163 1.89417 -3
      vertex 3.18924 2.99489 0
    endloop
  endfacet
  facet normal -0.502513 -0.691592 0.518827
    outer loop
      vertex 1.62586 1.96533 -3
      vertex 2.34424 3.69393 0
      vertex 1.54177 2.02643 -3
    endloop
  endfacet
  facet normal -0.502483 -0.691611 0.518831
    outer loop
      vertex 2.34424 3.69393 0
      vertex 1.62586 1.96533 -3
      vertex 2.78873 3.37099 0
    endloop
  endfacet
  facet normal -0.107111 -0.84814 0.51883
    outer loop
      vertex 0.477948 2.5055 -3
      vertex 0.819793 4.29751 0
      vertex 0.263282 2.53261 -3
    endloop
  endfacet
  facet normal -0.2126 -0.828019 0.51883
    outer loop
      vertex 0.788202 2.42584 -3
      vertex 1.35195 4.16087 0
      vertex 0.578627 2.47965 -3
    endloop
  endfacet
  facet normal -0.212599 -0.828019 0.518831
    outer loop
      vertex 0.578627 2.47965 -3
      vertex 0.819793 4.29751 0
      vertex 0.477948 2.5055 -3
    endloop
  endfacet
  facet normal -0.212607 -0.828017 0.518831
    outer loop
      vertex 0.819793 4.29751 0
      vertex 0.578627 2.47965 -3
      vertex 1.35195 4.16087 0
    endloop
  endfacet
  facet normal 0.107111 0.84814 0.51883
    outer loop
      vertex -0.263282 -2.53261 -3
      vertex -0.477948 -2.5055 -3
      vertex -0.819793 -4.29751 0
    endloop
  endfacet
  facet normal 0.853188 0.0536934 0.518832
    outer loop
      vertex -2.53056 -0.319684 -3
      vertex -2.54415 -0.103739 -3
      vertex -4.3405 -0.548332 0
    endloop
  endfacet
  facet normal 0.658699 -0.544912 0.518831
    outer loop
      vertex -1.99728 1.57934 -3
      vertex -1.85936 1.74606 -3
      vertex -3.18924 2.99489 0
    endloop
  endfacet
  facet normal 0.585186 -0.623195 0.518831
    outer loop
      vertex -1.85936 1.74606 -3
      vertex -1.70163 1.89417 -3
      vertex -3.18924 2.99489 0
    endloop
  endfacet
  facet normal -0.839735 -0.160186 0.518832
    outer loop
      vertex 2.47054 0.634326 -3
      vertex 4.3405 0.548332 0
      vertex 4.23755 1.08802 0
    endloop
  endfacet
  facet normal -0.839731 -0.160212 0.518829
    outer loop
      vertex 4.3405 0.548332 0
      vertex 2.47054 0.634326 -3
      vertex 2.49002 0.532224 -3
    endloop
  endfacet
  facet normal -0.839737 -0.160172 0.518832
    outer loop
      vertex 2.53056 0.319684 -3
      vertex 4.3405 0.548332 0
      vertex 2.49002 0.532224 -3
    endloop
  endfacet
  facet normal -0.658693 -0.544919 0.518832
    outer loop
      vertex 1.99728 1.57934 -3
      vertex 3.53945 2.57156 0
      vertex 3.18924 2.99489 0
    endloop
  endfacet
  facet normal -0.658679 -0.544938 0.518831
    outer loop
      vertex 3.53945 2.57156 0
      vertex 1.99728 1.57934 -3
      vertex 2.06354 1.49925 -3
    endloop
  endfacet
  facet normal -0.721799 -0.458062 0.518831
    outer loop
      vertex 2.06354 1.49925 -3
      vertex 3.83384 2.10767 0
      vertex 3.53945 2.57156 0
    endloop
  endfacet
  facet normal -0.721777 -0.458101 0.518827
    outer loop
      vertex 3.83384 2.10767 0
      vertex 2.06354 1.49925 -3
      vertex 2.11924 1.41149 -3
    endloop
  endfacet
  facet normal 0.107111 -0.84814 0.51883
    outer loop
      vertex -0.477948 2.5055 -3
      vertex -0.263282 2.53261 -3
      vertex -0.819793 4.29751 0
    endloop
  endfacet
  facet normal -0.314741 -0.79483 0.518829
    outer loop
      vertex 0.884847 2.38757 -3
      vertex 1.35195 4.16087 0
      vertex 0.788202 2.42584 -3
    endloop
  endfacet
  facet normal -0.314698 -0.794845 0.518832
    outer loop
      vertex 1.35195 4.16087 0
      vertex 0.884847 2.38757 -3
      vertex 1.86278 3.95862 0
    endloop
  endfacet
  facet normal -0.314701 -0.794844 0.518832
    outer loop
      vertex 1.08602 2.30792 -3
      vertex 1.86278 3.95862 0
      vertex 0.884847 2.38757 -3
    endloop
  endfacet
  facet normal 0.85319 -0.0536811 0.518831
    outer loop
      vertex -4.375 0 0
      vertex -2.54415 0.103739 -3
      vertex -4.3405 0.548332 0
    endloop
  endfacet
  facet normal 0.853189 -0.0537052 0.51883
    outer loop
      vertex -2.54415 0.103739 -3
      vertex -4.375 0 0
      vertex -2.55068 0 -3
    endloop
  endfacet
  facet normal 0.853189 0.0537052 0.51883
    outer loop
      vertex -4.375 0 0
      vertex -2.54415 -0.103739 -3
      vertex -2.55068 0 -3
    endloop
  endfacet
  facet normal 0.85319 0.0536811 0.518831
    outer loop
      vertex -2.54415 -0.103739 -3
      vertex -4.375 0 0
      vertex -4.3405 -0.548332 0
    endloop
  endfacet
  facet normal 0.839737 -0.160172 0.518832
    outer loop
      vertex -2.53056 0.319684 -3
      vertex -2.49002 0.532224 -3
      vertex -4.3405 0.548332 0
    endloop
  endfacet
  facet normal -0.773515 -0.363991 0.51883
    outer loop
      vertex 2.37156 0.938965 -3
      vertex 4.06777 1.61054 0
      vertex 2.27943 1.13475 -3
    endloop
  endfacet
  facet normal -0.81304 -0.264162 0.51883
    outer loop
      vertex 2.43842 0.733183 -3
      vertex 4.06777 1.61054 0
      vertex 2.37156 0.938965 -3
    endloop
  endfacet
  facet normal -0.813035 -0.264176 0.518831
    outer loop
      vertex 2.43842 0.733183 -3
      vertex 4.23755 1.08802 0
      vertex 4.06777 1.61054 0
    endloop
  endfacet
  facet normal -0.813037 -0.264167 0.518832
    outer loop
      vertex 4.23755 1.08802 0
      vertex 2.43842 0.733183 -3
      vertex 2.47054 0.634326 -3
    endloop
  endfacet
endsolid OpenSCAD_Model
