solid OpenSCAD_Model
  facet normal 0 -1 0
    outer loop
      vertex -2.95712 5.12189 -4.5
      vertex 2.95712 5.12189 0
      vertex -2.95712 5.12189 0
    endloop
  endfacet
  facet normal 0 -1 -0
    outer loop
      vertex 2.95712 5.12189 0
      vertex -2.95712 5.12189 -4.5
      vertex 2.95712 5.12189 -4.5
    endloop
  endfacet
  facet normal 0.866025 -0.500001 0
    outer loop
      vertex -5.91425 0 0
      vertex -2.95712 5.12189 -4.5
      vertex -2.95712 5.12189 0
    endloop
  endfacet
  facet normal 0.866025 -0.500001 0
    outer loop
      vertex -2.95712 5.12189 -4.5
      vertex -5.91425 0 0
      vertex -5.91425 0 -4.5
    endloop
  endfacet
  facet normal 0 0 1
    outer loop
      vertex 5.91425 0 0
      vertex 22.5 0 0
      vertex 22.3226 2.82 0
    endloop
  endfacet
  facet normal 0 0 1
    outer loop
      vertex 5.91425 0 0
      vertex 22.3226 2.82 0
      vertex 21.7931 5.59552 0
    endloop
  endfacet
  facet normal 0 0 1
    outer loop
      vertex 22.5 0 0
      vertex 5.91425 0 0
      vertex 22.3226 -2.82 0
    endloop
  endfacet
  facet normal 0 0 1
    outer loop
      vertex 5.91425 0 0
      vertex 21.7931 5.59552 0
      vertex 20.92 8.2828 0
    endloop
  endfacet
  facet normal 0 0 1
    outer loop
      vertex 22.3226 -2.82 0
      vertex 5.91425 0 0
      vertex 21.7931 -5.59552 0
    endloop
  endfacet
  facet normal 0 0 1
    outer loop
      vertex 5.91425 0 0
      vertex 20.92 8.2828 0
      vertex 19.7169 10.8395 0
    endloop
  endfacet
  facet normal 0 0 1
    outer loop
      vertex 21.7931 -5.59552 0
      vertex 5.91425 0 0
      vertex 20.92 -8.2828 0
    endloop
  endfacet
  facet normal 0 0 1
    outer loop
      vertex 2.95712 5.12189 0
      vertex 19.7169 10.8395 0
      vertex 18.2029 13.2252 0
    endloop
  endfacet
  facet normal 0 0 1
    outer loop
      vertex 20.92 -8.2828 0
      vertex 5.91425 0 0
      vertex 19.7169 -10.8395 0
    endloop
  endfacet
  facet normal 0 0 1
    outer loop
      vertex 2.95712 5.12189 0
      vertex 18.2029 13.2252 0
      vertex 16.4018 15.4023 0
    endloop
  endfacet
  facet normal -0 0 1
    outer loop
      vertex 2.95712 -5.12189 0
      vertex 19.7169 -10.8395 0
      vertex 5.91425 0 0
    endloop
  endfacet
  facet normal 0 0 1
    outer loop
      vertex 2.95712 5.12189 0
      vertex 16.4018 15.4023 0
      vertex 14.342 17.3365 0
    endloop
  endfacet
  facet normal 0 0 1
    outer loop
      vertex 19.7169 -10.8395 0
      vertex 2.95712 -5.12189 0
      vertex 18.2029 -13.2252 0
    endloop
  endfacet
  facet normal 0 0 1
    outer loop
      vertex 2.95712 5.12189 0
      vertex 14.342 17.3365 0
      vertex 12.0561 18.9974 0
    endloop
  endfacet
  facet normal 0 0 1
    outer loop
      vertex 18.2029 -13.2252 0
      vertex 2.95712 -5.12189 0
      vertex 16.4018 -15.4023 0
    endloop
  endfacet
  facet normal 0 0 1
    outer loop
      vertex 2.95712 5.12189 0
      vertex 12.0561 18.9974 0
      vertex 9.58003 20.3586 0
    endloop
  endfacet
  facet normal 0 0 1
    outer loop
      vertex 16.4018 -15.4023 0
      vertex 2.95712 -5.12189 0
      vertex 14.342 -17.3365 0
    endloop
  endfacet
  facet normal 0 0 1
    outer loop
      vertex 2.95712 5.12189 0
      vertex 9.58003 20.3586 0
      vertex 6.95288 21.3988 0
    endloop
  endfacet
  facet normal 0 0 1
    outer loop
      vertex 14.342 -17.3365 0
      vertex 2.95712 -5.12189 0
      vertex 12.0561 -18.9974 0
    endloop
  endfacet
  facet normal 0 0 1
    outer loop
      vertex 12.0561 -18.9974 0
      vertex 2.95712 -5.12189 0
      vertex 9.58003 -20.3586 0
    endloop
  endfacet
  facet normal 0 0 1
    outer loop
      vertex 2.95712 5.12189 0
      vertex 6.95288 21.3988 0
      vertex 4.21608 22.1015 0
    endloop
  endfacet
  facet normal 0 0 1
    outer loop
      vertex 19.7169 10.8395 0
      vertex 2.95712 5.12189 0
      vertex 5.91425 0 0
    endloop
  endfacet
  facet normal 0 0 1
    outer loop
      vertex 1.41279 22.4556 0
      vertex 2.95712 5.12189 0
      vertex 4.21608 22.1015 0
    endloop
  endfacet
  facet normal -0 0 1
    outer loop
      vertex -1.41279 22.4556 0
      vertex 2.95712 5.12189 0
      vertex 1.41279 22.4556 0
    endloop
  endfacet
  facet normal 0 0 1
    outer loop
      vertex -1.41279 22.4556 0
      vertex -2.95712 5.12189 0
      vertex 2.95712 5.12189 0
    endloop
  endfacet
  facet normal -0 0 1
    outer loop
      vertex -4.21608 22.1015 0
      vertex -2.95712 5.12189 0
      vertex -1.41279 22.4556 0
    endloop
  endfacet
  facet normal -0 0 1
    outer loop
      vertex -6.95288 21.3988 0
      vertex -2.95712 5.12189 0
      vertex -4.21608 22.1015 0
    endloop
  endfacet
  facet normal -0 0 1
    outer loop
      vertex -9.58003 20.3586 0
      vertex -2.95712 5.12189 0
      vertex -6.95288 21.3988 0
    endloop
  endfacet
  facet normal 0 0 1
    outer loop
      vertex 9.58003 -20.3586 0
      vertex 2.95712 -5.12189 0
      vertex 6.95288 -21.3988 0
    endloop
  endfacet
  facet normal 0 0 1
    outer loop
      vertex 6.95288 -21.3988 0
      vertex 2.95712 -5.12189 0
      vertex 4.21608 -22.1015 0
    endloop
  endfacet
  facet normal 0 0 1
    outer loop
      vertex 2.95712 -5.12189 0
      vertex 1.41279 -22.4556 0
      vertex 4.21608 -22.1015 0
    endloop
  endfacet
  facet normal 0 0 1
    outer loop
      vertex 2.95712 -5.12189 0
      vertex -1.41279 -22.4556 0
      vertex 1.41279 -22.4556 0
    endloop
  endfacet
  facet normal -0 0 1
    outer loop
      vertex -2.95712 -5.12189 0
      vertex -1.41279 -22.4556 0
      vertex 2.95712 -5.12189 0
    endloop
  endfacet
  facet normal 0 0 1
    outer loop
      vertex -2.95712 -5.12189 0
      vertex -4.21608 -22.1015 0
      vertex -1.41279 -22.4556 0
    endloop
  endfacet
  facet normal 0 0 1
    outer loop
      vertex -19.7169 -10.8395 0
      vertex -2.95712 -5.12189 0
      vertex -5.91425 0 0
    endloop
  endfacet
  facet normal 0 0 1
    outer loop
      vertex -2.95712 -5.12189 0
      vertex -6.95288 -21.3988 0
      vertex -4.21608 -22.1015 0
    endloop
  endfacet
  facet normal -0 0 1
    outer loop
      vertex -12.0561 18.9974 0
      vertex -2.95712 5.12189 0
      vertex -9.58003 20.3586 0
    endloop
  endfacet
  facet normal -0 0 1
    outer loop
      vertex -14.342 17.3365 0
      vertex -2.95712 5.12189 0
      vertex -12.0561 18.9974 0
    endloop
  endfacet
  facet normal 0 0 1
    outer loop
      vertex -2.95712 -5.12189 0
      vertex -9.58003 -20.3586 0
      vertex -6.95288 -21.3988 0
    endloop
  endfacet
  facet normal -0 0 1
    outer loop
      vertex -16.4018 15.4023 0
      vertex -2.95712 5.12189 0
      vertex -14.342 17.3365 0
    endloop
  endfacet
  facet normal 0 0 1
    outer loop
      vertex -2.95712 -5.12189 0
      vertex -12.0561 -18.9974 0
      vertex -9.58003 -20.3586 0
    endloop
  endfacet
  facet normal -0 0 1
    outer loop
      vertex -18.2029 13.2252 0
      vertex -2.95712 5.12189 0
      vertex -16.4018 15.4023 0
    endloop
  endfacet
  facet normal 0 0 1
    outer loop
      vertex -2.95712 -5.12189 0
      vertex -14.342 -17.3365 0
      vertex -12.0561 -18.9974 0
    endloop
  endfacet
  facet normal -0 0 1
    outer loop
      vertex -19.7169 10.8395 0
      vertex -2.95712 5.12189 0
      vertex -18.2029 13.2252 0
    endloop
  endfacet
  facet normal 0 0 1
    outer loop
      vertex -2.95712 -5.12189 0
      vertex -16.4018 -15.4023 0
      vertex -14.342 -17.3365 0
    endloop
  endfacet
  facet normal 0 0 1
    outer loop
      vertex -2.95712 5.12189 0
      vertex -19.7169 10.8395 0
      vertex -5.91425 0 0
    endloop
  endfacet
  facet normal 0 0 1
    outer loop
      vertex -2.95712 -5.12189 0
      vertex -18.2029 -13.2252 0
      vertex -16.4018 -15.4023 0
    endloop
  endfacet
  facet normal -0 0 1
    outer loop
      vertex -20.92 8.2828 0
      vertex -5.91425 0 0
      vertex -19.7169 10.8395 0
    endloop
  endfacet
  facet normal 0 0 1
    outer loop
      vertex -2.95712 -5.12189 0
      vertex -19.7169 -10.8395 0
      vertex -18.2029 -13.2252 0
    endloop
  endfacet
  facet normal -0 0 1
    outer loop
      vertex -21.7931 5.59552 0
      vertex -5.91425 0 0
      vertex -20.92 8.2828 0
    endloop
  endfacet
  facet normal 0 0 1
    outer loop
      vertex -5.91425 0 0
      vertex -20.92 -8.2828 0
      vertex -19.7169 -10.8395 0
    endloop
  endfacet
  facet normal -0 0 1
    outer loop
      vertex -22.3226 2.82 0
      vertex -5.91425 0 0
      vertex -21.7931 5.59552 0
    endloop
  endfacet
  facet normal 0 0 1
    outer loop
      vertex -5.91425 0 0
      vertex -21.7931 -5.59552 0
      vertex -20.92 -8.2828 0
    endloop
  endfacet
  facet normal 0 0 1
    outer loop
      vertex -22.5 0 0
      vertex -5.91425 0 0
      vertex -22.3226 2.82 0
    endloop
  endfacet
  facet normal 0 0 1
    outer loop
      vertex -5.91425 0 0
      vertex -22.3226 -2.82 0
      vertex -21.7931 -5.59552 0
    endloop
  endfacet
  facet normal 0 0 1
    outer loop
      vertex -5.91425 0 0
      vertex -22.5 0 0
      vertex -22.3226 -2.82 0
    endloop
  endfacet
  facet normal 0 1 -0
    outer loop
      vertex 2.95712 -5.12189 -4.5
      vertex -2.95712 -5.12189 0
      vertex 2.95712 -5.12189 0
    endloop
  endfacet
  facet normal 0 1 0
    outer loop
      vertex -2.95712 -5.12189 0
      vertex 2.95712 -5.12189 -4.5
      vertex -2.95712 -5.12189 -4.5
    endloop
  endfacet
  facet normal -0.866025 -0.500001 0
    outer loop
      vertex 5.91425 0 -4.5
      vertex 2.95712 5.12189 0
      vertex 2.95712 5.12189 -4.5
    endloop
  endfacet
  facet normal -0.866025 -0.500001 0
    outer loop
      vertex 2.95712 5.12189 0
      vertex 5.91425 0 -4.5
      vertex 5.91425 0 0
    endloop
  endfacet
  facet normal 0.866025 0.500001 0
    outer loop
      vertex -2.95712 -5.12189 0
      vertex -5.91425 0 -4.5
      vertex -5.91425 0 0
    endloop
  endfacet
  facet normal 0.866025 0.500001 0
    outer loop
      vertex -5.91425 0 -4.5
      vertex -2.95712 -5.12189 0
      vertex -2.95712 -5.12189 -4.5
    endloop
  endfacet
  facet normal -0.866025 0.500001 0
    outer loop
      vertex 2.95712 -5.12189 -4.5
      vertex 5.91425 0 0
      vertex 5.91425 0 -4.5
    endloop
  endfacet
  facet normal -0.866025 0.500001 0
    outer loop
      vertex 5.91425 0 0
      vertex 2.95712 -5.12189 -4.5
      vertex 2.95712 -5.12189 0
    endloop
  endfacet
  facet normal 0.998027 0.0627837 0
    outer loop
      vertex 22.5 0 0
      vertex 22.3226 2.82 -4.5
      vertex 22.3226 2.82 0
    endloop
  endfacet
  facet normal 0.998027 0.0627837 0
    outer loop
      vertex 22.3226 2.82 -4.5
      vertex 22.5 0 0
      vertex 22.5 0 -4.5
    endloop
  endfacet
  facet normal -0.998027 0.0627837 0
    outer loop
      vertex -22.5 0 -4.5
      vertex -22.3226 2.82 0
      vertex -22.3226 2.82 -4.5
    endloop
  endfacet
  facet normal -0.998027 0.0627837 0
    outer loop
      vertex -22.3226 2.82 0
      vertex -22.5 0 -4.5
      vertex -22.5 0 0
    endloop
  endfacet
  facet normal 0 1 -0
    outer loop
      vertex 1.41279 22.4556 -4.5
      vertex -1.41279 22.4556 0
      vertex 1.41279 22.4556 0
    endloop
  endfacet
  facet normal 0 1 0
    outer loop
      vertex -1.41279 22.4556 0
      vertex 1.41279 22.4556 -4.5
      vertex -1.41279 22.4556 -4.5
    endloop
  endfacet
  facet normal 0 -1 0
    outer loop
      vertex -1.41279 -22.4556 -4.5
      vertex 1.41279 -22.4556 0
      vertex -1.41279 -22.4556 0
    endloop
  endfacet
  facet normal 0 -1 -0
    outer loop
      vertex 1.41279 -22.4556 0
      vertex -1.41279 -22.4556 -4.5
      vertex 1.41279 -22.4556 -4.5
    endloop
  endfacet
  facet normal 0.684532 0.728983 -0
    outer loop
      vertex 16.4018 15.4023 -4.5
      vertex 14.342 17.3365 0
      vertex 16.4018 15.4023 0
    endloop
  endfacet
  facet normal 0.684532 0.728983 0
    outer loop
      vertex 14.342 17.3365 0
      vertex 16.4018 15.4023 -4.5
      vertex 14.342 17.3365 -4.5
    endloop
  endfacet
  facet normal -0.684532 0.728983 0
    outer loop
      vertex -14.342 17.3365 -4.5
      vertex -16.4018 15.4023 0
      vertex -14.342 17.3365 0
    endloop
  endfacet
  facet normal -0.684532 0.728983 0
    outer loop
      vertex -16.4018 15.4023 0
      vertex -14.342 17.3365 -4.5
      vertex -16.4018 15.4023 -4.5
    endloop
  endfacet
  facet normal -0.368136 0.929772 0
    outer loop
      vertex -6.95288 21.3988 -4.5
      vertex -9.58003 20.3586 0
      vertex -6.95288 21.3988 0
    endloop
  endfacet
  facet normal -0.368136 0.929772 0
    outer loop
      vertex -9.58003 20.3586 0
      vertex -6.95288 21.3988 -4.5
      vertex -9.58003 20.3586 -4.5
    endloop
  endfacet
  facet normal 0.904826 0.425782 0
    outer loop
      vertex 20.92 8.2828 0
      vertex 19.7169 10.8395 -4.5
      vertex 19.7169 10.8395 0
    endloop
  endfacet
  facet normal 0.904826 0.425782 0
    outer loop
      vertex 19.7169 10.8395 -4.5
      vertex 20.92 8.2828 0
      vertex 20.92 8.2828 -4.5
    endloop
  endfacet
  facet normal 0.368136 0.929772 -0
    outer loop
      vertex 9.58003 20.3586 -4.5
      vertex 6.95288 21.3988 0
      vertex 9.58003 20.3586 0
    endloop
  endfacet
  facet normal 0.368136 0.929772 0
    outer loop
      vertex 6.95288 21.3988 0
      vertex 9.58003 20.3586 -4.5
      vertex 6.95288 21.3988 -4.5
    endloop
  endfacet
  facet normal 0.481745 0.876311 -0
    outer loop
      vertex 12.0561 18.9974 -4.5
      vertex 9.58003 20.3586 0
      vertex 12.0561 18.9974 0
    endloop
  endfacet
  facet normal 0.481745 0.876311 0
    outer loop
      vertex 9.58003 20.3586 0
      vertex 12.0561 18.9974 -4.5
      vertex 9.58003 20.3586 -4.5
    endloop
  endfacet
  facet normal -0.904826 0.425782 0
    outer loop
      vertex -20.92 8.2828 -4.5
      vertex -19.7169 10.8395 0
      vertex -19.7169 10.8395 -4.5
    endloop
  endfacet
  facet normal -0.904826 0.425782 0
    outer loop
      vertex -19.7169 10.8395 0
      vertex -20.92 8.2828 -4.5
      vertex -20.92 8.2828 0
    endloop
  endfacet
  facet normal -0.84433 0.535824 0
    outer loop
      vertex -19.7169 10.8395 -4.5
      vertex -18.2029 13.2252 0
      vertex -18.2029 13.2252 -4.5
    endloop
  endfacet
  facet normal -0.84433 0.535824 0
    outer loop
      vertex -18.2029 13.2252 0
      vertex -19.7169 10.8395 -4.5
      vertex -19.7169 10.8395 0
    endloop
  endfacet
  facet normal -0.587808 0.809001 0
    outer loop
      vertex -12.0561 18.9974 -4.5
      vertex -14.342 17.3365 0
      vertex -12.0561 18.9974 0
    endloop
  endfacet
  facet normal -0.587808 0.809001 0
    outer loop
      vertex -14.342 17.3365 0
      vertex -12.0561 18.9974 -4.5
      vertex -14.342 17.3365 -4.5
    endloop
  endfacet
  facet normal -0.248693 0.968582 0
    outer loop
      vertex -4.21608 22.1015 -4.5
      vertex -6.95288 21.3988 0
      vertex -4.21608 22.1015 0
    endloop
  endfacet
  facet normal -0.248693 0.968582 0
    outer loop
      vertex -6.95288 21.3988 0
      vertex -4.21608 22.1015 -4.5
      vertex -6.95288 21.3988 -4.5
    endloop
  endfacet
  facet normal -0.904826 -0.425782 0
    outer loop
      vertex -19.7169 -10.8395 -4.5
      vertex -20.92 -8.2828 0
      vertex -20.92 -8.2828 -4.5
    endloop
  endfacet
  facet normal -0.904826 -0.425782 0
    outer loop
      vertex -20.92 -8.2828 0
      vertex -19.7169 -10.8395 -4.5
      vertex -19.7169 -10.8395 0
    endloop
  endfacet
  facet normal 0.12532 -0.992116 0
    outer loop
      vertex 1.41279 -22.4556 -4.5
      vertex 4.21608 -22.1015 0
      vertex 1.41279 -22.4556 0
    endloop
  endfacet
  facet normal 0.12532 -0.992116 0
    outer loop
      vertex 4.21608 -22.1015 0
      vertex 1.41279 -22.4556 -4.5
      vertex 4.21608 -22.1015 -4.5
    endloop
  endfacet
  facet normal 0.951062 0.309001 0
    outer loop
      vertex 21.7931 5.59552 0
      vertex 20.92 8.2828 -4.5
      vertex 20.92 8.2828 0
    endloop
  endfacet
  facet normal 0.951062 0.309001 0
    outer loop
      vertex 20.92 8.2828 -4.5
      vertex 21.7931 5.59552 0
      vertex 21.7931 5.59552 -4.5
    endloop
  endfacet
  facet normal 0.982285 0.187395 0
    outer loop
      vertex 22.3226 2.82 0
      vertex 21.7931 5.59552 -4.5
      vertex 21.7931 5.59552 0
    endloop
  endfacet
  facet normal 0.982285 0.187395 0
    outer loop
      vertex 21.7931 5.59552 -4.5
      vertex 22.3226 2.82 0
      vertex 22.3226 2.82 -4.5
    endloop
  endfacet
  facet normal 0.770505 0.637434 0
    outer loop
      vertex 18.2029 13.2252 0
      vertex 16.4018 15.4023 -4.5
      vertex 16.4018 15.4023 0
    endloop
  endfacet
  facet normal 0.770505 0.637434 0
    outer loop
      vertex 16.4018 15.4023 -4.5
      vertex 18.2029 13.2252 0
      vertex 18.2029 13.2252 -4.5
    endloop
  endfacet
  facet normal 0.84433 0.535824 0
    outer loop
      vertex 19.7169 10.8395 0
      vertex 18.2029 13.2252 -4.5
      vertex 18.2029 13.2252 0
    endloop
  endfacet
  facet normal 0.84433 0.535824 0
    outer loop
      vertex 18.2029 13.2252 -4.5
      vertex 19.7169 10.8395 0
      vertex 19.7169 10.8395 -4.5
    endloop
  endfacet
  facet normal 0.248693 0.968582 -0
    outer loop
      vertex 6.95288 21.3988 -4.5
      vertex 4.21608 22.1015 0
      vertex 6.95288 21.3988 0
    endloop
  endfacet
  facet normal 0.248693 0.968582 0
    outer loop
      vertex 4.21608 22.1015 0
      vertex 6.95288 21.3988 -4.5
      vertex 4.21608 22.1015 -4.5
    endloop
  endfacet
  facet normal 0.12532 0.992116 -0
    outer loop
      vertex 4.21608 22.1015 -4.5
      vertex 1.41279 22.4556 0
      vertex 4.21608 22.1015 0
    endloop
  endfacet
  facet normal 0.12532 0.992116 0
    outer loop
      vertex 1.41279 22.4556 0
      vertex 4.21608 22.1015 -4.5
      vertex 1.41279 22.4556 -4.5
    endloop
  endfacet
  facet normal 0.587808 0.809001 -0
    outer loop
      vertex 14.342 17.3365 -4.5
      vertex 12.0561 18.9974 0
      vertex 14.342 17.3365 0
    endloop
  endfacet
  facet normal 0.587808 0.809001 0
    outer loop
      vertex 12.0561 18.9974 0
      vertex 14.342 17.3365 -4.5
      vertex 12.0561 18.9974 -4.5
    endloop
  endfacet
  facet normal -0.770505 0.637434 0
    outer loop
      vertex -18.2029 13.2252 -4.5
      vertex -16.4018 15.4023 0
      vertex -16.4018 15.4023 -4.5
    endloop
  endfacet
  facet normal -0.770505 0.637434 0
    outer loop
      vertex -16.4018 15.4023 0
      vertex -18.2029 13.2252 -4.5
      vertex -18.2029 13.2252 0
    endloop
  endfacet
  facet normal -0.982285 0.187395 0
    outer loop
      vertex -22.3226 2.82 -4.5
      vertex -21.7931 5.59552 0
      vertex -21.7931 5.59552 -4.5
    endloop
  endfacet
  facet normal -0.982285 0.187395 0
    outer loop
      vertex -21.7931 5.59552 0
      vertex -22.3226 2.82 -4.5
      vertex -22.3226 2.82 0
    endloop
  endfacet
  facet normal -0.481745 0.876311 0
    outer loop
      vertex -9.58003 20.3586 -4.5
      vertex -12.0561 18.9974 0
      vertex -9.58003 20.3586 0
    endloop
  endfacet
  facet normal -0.481745 0.876311 0
    outer loop
      vertex -12.0561 18.9974 0
      vertex -9.58003 20.3586 -4.5
      vertex -12.0561 18.9974 -4.5
    endloop
  endfacet
  facet normal -0.12532 0.992116 0
    outer loop
      vertex -1.41279 22.4556 -4.5
      vertex -4.21608 22.1015 0
      vertex -1.41279 22.4556 0
    endloop
  endfacet
  facet normal -0.12532 0.992116 0
    outer loop
      vertex -4.21608 22.1015 0
      vertex -1.41279 22.4556 -4.5
      vertex -4.21608 22.1015 -4.5
    endloop
  endfacet
  facet normal 0.998027 -0.0627837 0
    outer loop
      vertex 22.3226 -2.82 0
      vertex 22.5 0 -4.5
      vertex 22.5 0 0
    endloop
  endfacet
  facet normal 0.998027 -0.0627837 0
    outer loop
      vertex 22.5 0 -4.5
      vertex 22.3226 -2.82 0
      vertex 22.3226 -2.82 -4.5
    endloop
  endfacet
  facet normal 0.684532 -0.728983 0
    outer loop
      vertex 14.342 -17.3365 -4.5
      vertex 16.4018 -15.4023 0
      vertex 14.342 -17.3365 0
    endloop
  endfacet
  facet normal 0.684532 -0.728983 0
    outer loop
      vertex 16.4018 -15.4023 0
      vertex 14.342 -17.3365 -4.5
      vertex 16.4018 -15.4023 -4.5
    endloop
  endfacet
  facet normal 0.904826 -0.425782 0
    outer loop
      vertex 19.7169 -10.8395 0
      vertex 20.92 -8.2828 -4.5
      vertex 20.92 -8.2828 0
    endloop
  endfacet
  facet normal 0.904826 -0.425782 0
    outer loop
      vertex 20.92 -8.2828 -4.5
      vertex 19.7169 -10.8395 0
      vertex 19.7169 -10.8395 -4.5
    endloop
  endfacet
  facet normal 0.368136 -0.929772 0
    outer loop
      vertex 6.95288 -21.3988 -4.5
      vertex 9.58003 -20.3586 0
      vertex 6.95288 -21.3988 0
    endloop
  endfacet
  facet normal 0.368136 -0.929772 0
    outer loop
      vertex 9.58003 -20.3586 0
      vertex 6.95288 -21.3988 -4.5
      vertex 9.58003 -20.3586 -4.5
    endloop
  endfacet
  facet normal -0.951062 0.309001 0
    outer loop
      vertex -21.7931 5.59552 -4.5
      vertex -20.92 8.2828 0
      vertex -20.92 8.2828 -4.5
    endloop
  endfacet
  facet normal -0.951062 0.309001 0
    outer loop
      vertex -20.92 8.2828 0
      vertex -21.7931 5.59552 -4.5
      vertex -21.7931 5.59552 0
    endloop
  endfacet
  facet normal 0.951062 -0.309001 0
    outer loop
      vertex 20.92 -8.2828 0
      vertex 21.7931 -5.59552 -4.5
      vertex 21.7931 -5.59552 0
    endloop
  endfacet
  facet normal 0.951062 -0.309001 0
    outer loop
      vertex 21.7931 -5.59552 -4.5
      vertex 20.92 -8.2828 0
      vertex 20.92 -8.2828 -4.5
    endloop
  endfacet
  facet normal 0.481745 -0.876311 0
    outer loop
      vertex 9.58003 -20.3586 -4.5
      vertex 12.0561 -18.9974 0
      vertex 9.58003 -20.3586 0
    endloop
  endfacet
  facet normal 0.481745 -0.876311 0
    outer loop
      vertex 12.0561 -18.9974 0
      vertex 9.58003 -20.3586 -4.5
      vertex 12.0561 -18.9974 -4.5
    endloop
  endfacet
  facet normal 0.770505 -0.637434 0
    outer loop
      vertex 16.4018 -15.4023 0
      vertex 18.2029 -13.2252 -4.5
      vertex 18.2029 -13.2252 0
    endloop
  endfacet
  facet normal 0.770505 -0.637434 0
    outer loop
      vertex 18.2029 -13.2252 -4.5
      vertex 16.4018 -15.4023 0
      vertex 16.4018 -15.4023 -4.5
    endloop
  endfacet
  facet normal -0.368136 -0.929772 0
    outer loop
      vertex -9.58003 -20.3586 -4.5
      vertex -6.95288 -21.3988 0
      vertex -9.58003 -20.3586 0
    endloop
  endfacet
  facet normal -0.368136 -0.929772 -0
    outer loop
      vertex -6.95288 -21.3988 0
      vertex -9.58003 -20.3586 -4.5
      vertex -6.95288 -21.3988 -4.5
    endloop
  endfacet
  facet normal -0.684532 -0.728983 0
    outer loop
      vertex -16.4018 -15.4023 -4.5
      vertex -14.342 -17.3365 0
      vertex -16.4018 -15.4023 0
    endloop
  endfacet
  facet normal -0.684532 -0.728983 -0
    outer loop
      vertex -14.342 -17.3365 0
      vertex -16.4018 -15.4023 -4.5
      vertex -14.342 -17.3365 -4.5
    endloop
  endfacet
  facet normal 0 0 -1
    outer loop
      vertex 5.91425 0 -4.5
      vertex 22.5 0 -4.5
      vertex 22.3226 -2.82 -4.5
    endloop
  endfacet
  facet normal 0 0 -1
    outer loop
      vertex 5.91425 0 -4.5
      vertex 22.3226 -2.82 -4.5
      vertex 21.7931 -5.59552 -4.5
    endloop
  endfacet
  facet normal 0 0 -1
    outer loop
      vertex 22.5 0 -4.5
      vertex 5.91425 0 -4.5
      vertex 22.3226 2.82 -4.5
    endloop
  endfacet
  facet normal 0 0 -1
    outer loop
      vertex 5.91425 0 -4.5
      vertex 21.7931 -5.59552 -4.5
      vertex 20.92 -8.2828 -4.5
    endloop
  endfacet
  facet normal -0 0 -1
    outer loop
      vertex 22.3226 2.82 -4.5
      vertex 5.91425 0 -4.5
      vertex 21.7931 5.59552 -4.5
    endloop
  endfacet
  facet normal 0 0 -1
    outer loop
      vertex 5.91425 0 -4.5
      vertex 20.92 -8.2828 -4.5
      vertex 19.7169 -10.8395 -4.5
    endloop
  endfacet
  facet normal -0 0 -1
    outer loop
      vertex 21.7931 5.59552 -4.5
      vertex 5.91425 0 -4.5
      vertex 20.92 8.2828 -4.5
    endloop
  endfacet
  facet normal 0 0 -1
    outer loop
      vertex 2.95712 -5.12189 -4.5
      vertex 19.7169 -10.8395 -4.5
      vertex 18.2029 -13.2252 -4.5
    endloop
  endfacet
  facet normal -0 0 -1
    outer loop
      vertex 20.92 8.2828 -4.5
      vertex 5.91425 0 -4.5
      vertex 19.7169 10.8395 -4.5
    endloop
  endfacet
  facet normal 0 0 -1
    outer loop
      vertex 2.95712 -5.12189 -4.5
      vertex 18.2029 -13.2252 -4.5
      vertex 16.4018 -15.4023 -4.5
    endloop
  endfacet
  facet normal 0 0 -1
    outer loop
      vertex 2.95712 5.12189 -4.5
      vertex 19.7169 10.8395 -4.5
      vertex 5.91425 0 -4.5
    endloop
  endfacet
  facet normal 0 0 -1
    outer loop
      vertex 2.95712 -5.12189 -4.5
      vertex 16.4018 -15.4023 -4.5
      vertex 14.342 -17.3365 -4.5
    endloop
  endfacet
  facet normal -0 0 -1
    outer loop
      vertex 19.7169 10.8395 -4.5
      vertex 2.95712 5.12189 -4.5
      vertex 18.2029 13.2252 -4.5
    endloop
  endfacet
  facet normal 0 0 -1
    outer loop
      vertex 2.95712 -5.12189 -4.5
      vertex 14.342 -17.3365 -4.5
      vertex 12.0561 -18.9974 -4.5
    endloop
  endfacet
  facet normal -0 0 -1
    outer loop
      vertex 18.2029 13.2252 -4.5
      vertex 2.95712 5.12189 -4.5
      vertex 16.4018 15.4023 -4.5
    endloop
  endfacet
  facet normal 0 0 -1
    outer loop
      vertex 2.95712 -5.12189 -4.5
      vertex 12.0561 -18.9974 -4.5
      vertex 9.58003 -20.3586 -4.5
    endloop
  endfacet
  facet normal -0 0 -1
    outer loop
      vertex 16.4018 15.4023 -4.5
      vertex 2.95712 5.12189 -4.5
      vertex 14.342 17.3365 -4.5
    endloop
  endfacet
  facet normal 0 0 -1
    outer loop
      vertex 2.95712 -5.12189 -4.5
      vertex 9.58003 -20.3586 -4.5
      vertex 6.95288 -21.3988 -4.5
    endloop
  endfacet
  facet normal -0 0 -1
    outer loop
      vertex 14.342 17.3365 -4.5
      vertex 2.95712 5.12189 -4.5
      vertex 12.0561 18.9974 -4.5
    endloop
  endfacet
  facet normal -0 0 -1
    outer loop
      vertex 12.0561 18.9974 -4.5
      vertex 2.95712 5.12189 -4.5
      vertex 9.58003 20.3586 -4.5
    endloop
  endfacet
  facet normal 0 0 -1
    outer loop
      vertex 2.95712 -5.12189 -4.5
      vertex 6.95288 -21.3988 -4.5
      vertex 4.21608 -22.1015 -4.5
    endloop
  endfacet
  facet normal 0 0 -1
    outer loop
      vertex 19.7169 -10.8395 -4.5
      vertex 2.95712 -5.12189 -4.5
      vertex 5.91425 0 -4.5
    endloop
  endfacet
  facet normal 0 0 -1
    outer loop
      vertex 1.41279 -22.4556 -4.5
      vertex 2.95712 -5.12189 -4.5
      vertex 4.21608 -22.1015 -4.5
    endloop
  endfacet
  facet normal 0 0 -1
    outer loop
      vertex -1.41279 -22.4556 -4.5
      vertex 2.95712 -5.12189 -4.5
      vertex 1.41279 -22.4556 -4.5
    endloop
  endfacet
  facet normal 0 0 -1
    outer loop
      vertex -1.41279 -22.4556 -4.5
      vertex -2.95712 -5.12189 -4.5
      vertex 2.95712 -5.12189 -4.5
    endloop
  endfacet
  facet normal 0 0 -1
    outer loop
      vertex -4.21608 -22.1015 -4.5
      vertex -2.95712 -5.12189 -4.5
      vertex -1.41279 -22.4556 -4.5
    endloop
  endfacet
  facet normal 0 0 -1
    outer loop
      vertex -6.95288 -21.3988 -4.5
      vertex -2.95712 -5.12189 -4.5
      vertex -4.21608 -22.1015 -4.5
    endloop
  endfacet
  facet normal 0 0 -1
    outer loop
      vertex -9.58003 -20.3586 -4.5
      vertex -2.95712 -5.12189 -4.5
      vertex -6.95288 -21.3988 -4.5
    endloop
  endfacet
  facet normal -0 0 -1
    outer loop
      vertex 9.58003 20.3586 -4.5
      vertex 2.95712 5.12189 -4.5
      vertex 6.95288 21.3988 -4.5
    endloop
  endfacet
  facet normal -0 0 -1
    outer loop
      vertex 6.95288 21.3988 -4.5
      vertex 2.95712 5.12189 -4.5
      vertex 4.21608 22.1015 -4.5
    endloop
  endfacet
  facet normal 0 0 -1
    outer loop
      vertex 2.95712 5.12189 -4.5
      vertex 1.41279 22.4556 -4.5
      vertex 4.21608 22.1015 -4.5
    endloop
  endfacet
  facet normal 0 0 -1
    outer loop
      vertex 2.95712 5.12189 -4.5
      vertex -1.41279 22.4556 -4.5
      vertex 1.41279 22.4556 -4.5
    endloop
  endfacet
  facet normal 0 0 -1
    outer loop
      vertex -2.95712 5.12189 -4.5
      vertex -1.41279 22.4556 -4.5
      vertex 2.95712 5.12189 -4.5
    endloop
  endfacet
  facet normal 0 0 -1
    outer loop
      vertex -2.95712 5.12189 -4.5
      vertex -4.21608 22.1015 -4.5
      vertex -1.41279 22.4556 -4.5
    endloop
  endfacet
  facet normal 0 0 -1
    outer loop
      vertex -19.7169 10.8395 -4.5
      vertex -2.95712 5.12189 -4.5
      vertex -5.91425 0 -4.5
    endloop
  endfacet
  facet normal 0 0 -1
    outer loop
      vertex -2.95712 5.12189 -4.5
      vertex -6.95288 21.3988 -4.5
      vertex -4.21608 22.1015 -4.5
    endloop
  endfacet
  facet normal 0 0 -1
    outer loop
      vertex -12.0561 -18.9974 -4.5
      vertex -2.95712 -5.12189 -4.5
      vertex -9.58003 -20.3586 -4.5
    endloop
  endfacet
  facet normal 0 0 -1
    outer loop
      vertex -14.342 -17.3365 -4.5
      vertex -2.95712 -5.12189 -4.5
      vertex -12.0561 -18.9974 -4.5
    endloop
  endfacet
  facet normal 0 0 -1
    outer loop
      vertex -2.95712 5.12189 -4.5
      vertex -9.58003 20.3586 -4.5
      vertex -6.95288 21.3988 -4.5
    endloop
  endfacet
  facet normal 0 0 -1
    outer loop
      vertex -16.4018 -15.4023 -4.5
      vertex -2.95712 -5.12189 -4.5
      vertex -14.342 -17.3365 -4.5
    endloop
  endfacet
  facet normal 0 0 -1
    outer loop
      vertex -2.95712 5.12189 -4.5
      vertex -12.0561 18.9974 -4.5
      vertex -9.58003 20.3586 -4.5
    endloop
  endfacet
  facet normal 0 0 -1
    outer loop
      vertex -18.2029 -13.2252 -4.5
      vertex -2.95712 -5.12189 -4.5
      vertex -16.4018 -15.4023 -4.5
    endloop
  endfacet
  facet normal 0 0 -1
    outer loop
      vertex -2.95712 5.12189 -4.5
      vertex -14.342 17.3365 -4.5
      vertex -12.0561 18.9974 -4.5
    endloop
  endfacet
  facet normal 0 0 -1
    outer loop
      vertex -19.7169 -10.8395 -4.5
      vertex -2.95712 -5.12189 -4.5
      vertex -18.2029 -13.2252 -4.5
    endloop
  endfacet
  facet normal 0 0 -1
    outer loop
      vertex -2.95712 5.12189 -4.5
      vertex -16.4018 15.4023 -4.5
      vertex -14.342 17.3365 -4.5
    endloop
  endfacet
  facet normal -0 0 -1
    outer loop
      vertex -2.95712 -5.12189 -4.5
      vertex -19.7169 -10.8395 -4.5
      vertex -5.91425 0 -4.5
    endloop
  endfacet
  facet normal 0 0 -1
    outer loop
      vertex -2.95712 5.12189 -4.5
      vertex -18.2029 13.2252 -4.5
      vertex -16.4018 15.4023 -4.5
    endloop
  endfacet
  facet normal 0 0 -1
    outer loop
      vertex -20.92 -8.2828 -4.5
      vertex -5.91425 0 -4.5
      vertex -19.7169 -10.8395 -4.5
    endloop
  endfacet
  facet normal 0 0 -1
    outer loop
      vertex -2.95712 5.12189 -4.5
      vertex -19.7169 10.8395 -4.5
      vertex -18.2029 13.2252 -4.5
    endloop
  endfacet
  facet normal 0 0 -1
    outer loop
      vertex -21.7931 -5.59552 -4.5
      vertex -5.91425 0 -4.5
      vertex -20.92 -8.2828 -4.5
    endloop
  endfacet
  facet normal 0 0 -1
    outer loop
      vertex -5.91425 0 -4.5
      vertex -20.92 8.2828 -4.5
      vertex -19.7169 10.8395 -4.5
    endloop
  endfacet
  facet normal 0 0 -1
    outer loop
      vertex -22.3226 -2.82 -4.5
      vertex -5.91425 0 -4.5
      vertex -21.7931 -5.59552 -4.5
    endloop
  endfacet
  facet normal 0 0 -1
    outer loop
      vertex -5.91425 0 -4.5
      vertex -21.7931 5.59552 -4.5
      vertex -20.92 8.2828 -4.5
    endloop
  endfacet
  facet normal 0 0 -1
    outer loop
      vertex -22.5 0 -4.5
      vertex -5.91425 0 -4.5
      vertex -22.3226 -2.82 -4.5
    endloop
  endfacet
  facet normal 0 0 -1
    outer loop
      vertex -5.91425 0 -4.5
      vertex -22.3226 2.82 -4.5
      vertex -21.7931 5.59552 -4.5
    endloop
  endfacet
  facet normal 0 0 -1
    outer loop
      vertex -5.91425 0 -4.5
      vertex -22.5 0 -4.5
      vertex -22.3226 2.82 -4.5
    endloop
  endfacet
  facet normal 0.248693 -0.968582 0
    outer loop
      vertex 4.21608 -22.1015 -4.5
      vertex 6.95288 -21.3988 0
      vertex 4.21608 -22.1015 0
    endloop
  endfacet
  facet normal 0.248693 -0.968582 0
    outer loop
      vertex 6.95288 -21.3988 0
      vertex 4.21608 -22.1015 -4.5
      vertex 6.95288 -21.3988 -4.5
    endloop
  endfacet
  facet normal 0.982285 -0.187395 0
    outer loop
      vertex 21.7931 -5.59552 0
      vertex 22.3226 -2.82 -4.5
      vertex 22.3226 -2.82 0
    endloop
  endfacet
  facet normal 0.982285 -0.187395 0
    outer loop
      vertex 22.3226 -2.82 -4.5
      vertex 21.7931 -5.59552 0
      vertex 21.7931 -5.59552 -4.5
    endloop
  endfacet
  facet normal 0.587808 -0.809001 0
    outer loop
      vertex 12.0561 -18.9974 -4.5
      vertex 14.342 -17.3365 0
      vertex 12.0561 -18.9974 0
    endloop
  endfacet
  facet normal 0.587808 -0.809001 0
    outer loop
      vertex 14.342 -17.3365 0
      vertex 12.0561 -18.9974 -4.5
      vertex 14.342 -17.3365 -4.5
    endloop
  endfacet
  facet normal 0.84433 -0.535824 0
    outer loop
      vertex 18.2029 -13.2252 0
      vertex 19.7169 -10.8395 -4.5
      vertex 19.7169 -10.8395 0
    endloop
  endfacet
  facet normal 0.84433 -0.535824 0
    outer loop
      vertex 19.7169 -10.8395 -4.5
      vertex 18.2029 -13.2252 0
      vertex 18.2029 -13.2252 -4.5
    endloop
  endfacet
  facet normal -0.12532 -0.992116 0
    outer loop
      vertex -4.21608 -22.1015 -4.5
      vertex -1.41279 -22.4556 0
      vertex -4.21608 -22.1015 0
    endloop
  endfacet
  facet normal -0.12532 -0.992116 -0
    outer loop
      vertex -1.41279 -22.4556 0
      vertex -4.21608 -22.1015 -4.5
      vertex -1.41279 -22.4556 -4.5
    endloop
  endfacet
  facet normal -0.248693 -0.968582 0
    outer loop
      vertex -6.95288 -21.3988 -4.5
      vertex -4.21608 -22.1015 0
      vertex -6.95288 -21.3988 0
    endloop
  endfacet
  facet normal -0.248693 -0.968582 -0
    outer loop
      vertex -4.21608 -22.1015 0
      vertex -6.95288 -21.3988 -4.5
      vertex -4.21608 -22.1015 -4.5
    endloop
  endfacet
  facet normal -0.84433 -0.535824 0
    outer loop
      vertex -18.2029 -13.2252 -4.5
      vertex -19.7169 -10.8395 0
      vertex -19.7169 -10.8395 -4.5
    endloop
  endfacet
  facet normal -0.84433 -0.535824 0
    outer loop
      vertex -19.7169 -10.8395 0
      vertex -18.2029 -13.2252 -4.5
      vertex -18.2029 -13.2252 0
    endloop
  endfacet
  facet normal -0.951062 -0.309001 0
    outer loop
      vertex -20.92 -8.2828 -4.5
      vertex -21.7931 -5.59552 0
      vertex -21.7931 -5.59552 -4.5
    endloop
  endfacet
  facet normal -0.951062 -0.309001 0
    outer loop
      vertex -21.7931 -5.59552 0
      vertex -20.92 -8.2828 -4.5
      vertex -20.92 -8.2828 0
    endloop
  endfacet
  facet normal -0.982285 -0.187395 0
    outer loop
      vertex -21.7931 -5.59552 -4.5
      vertex -22.3226 -2.82 0
      vertex -22.3226 -2.82 -4.5
    endloop
  endfacet
  facet normal -0.982285 -0.187395 0
    outer loop
      vertex -22.3226 -2.82 0
      vertex -21.7931 -5.59552 -4.5
      vertex -21.7931 -5.59552 0
    endloop
  endfacet
  facet normal -0.998027 -0.0627837 0
    outer loop
      vertex -22.3226 -2.82 -4.5
      vertex -22.5 0 0
      vertex -22.5 0 -4.5
    endloop
  endfacet
  facet normal -0.998027 -0.0627837 0
    outer loop
      vertex -22.5 0 0
      vertex -22.3226 -2.82 -4.5
      vertex -22.3226 -2.82 0
    endloop
  endfacet
  facet normal -0.770505 -0.637434 0
    outer loop
      vertex -16.4018 -15.4023 -4.5
      vertex -18.2029 -13.2252 0
      vertex -18.2029 -13.2252 -4.5
    endloop
  endfacet
  facet normal -0.770505 -0.637434 0
    outer loop
      vertex -18.2029 -13.2252 0
      vertex -16.4018 -15.4023 -4.5
      vertex -16.4018 -15.4023 0
    endloop
  endfacet
  facet normal -0.481745 -0.876311 0
    outer loop
      vertex -12.0561 -18.9974 -4.5
      vertex -9.58003 -20.3586 0
      vertex -12.0561 -18.9974 0
    endloop
  endfacet
  facet normal -0.481745 -0.876311 -0
    outer loop
      vertex -9.58003 -20.3586 0
      vertex -12.0561 -18.9974 -4.5
      vertex -9.58003 -20.3586 -4.5
    endloop
  endfacet
  facet normal -0.587808 -0.809001 0
    outer loop
      vertex -14.342 -17.3365 -4.5
      vertex -12.0561 -18.9974 0
      vertex -14.342 -17.3365 0
    endloop
  endfacet
  facet normal -0.587808 -0.809001 -0
    outer loop
      vertex -12.0561 -18.9974 0
      vertex -14.342 -17.3365 -4.5
      vertex -12.0561 -18.9974 -4.5
    endloop
  endfacet
endsolid OpenSCAD_Model
