solid OpenSCAD_Model
  facet normal 0.866025 -0.500001 0
    outer loop
      vertex -4.26979 0 0
      vertex -2.13489 3.69775 -3.2
      vertex -2.13489 3.69775 0
    endloop
  endfacet
  facet normal 0.866025 -0.500001 0
    outer loop
      vertex -2.13489 3.69775 -3.2
      vertex -4.26979 0 0
      vertex -4.26979 0 -3.2
    endloop
  endfacet
  facet normal 0 -1 0
    outer loop
      vertex -2.13489 3.69775 -3.2
      vertex 2.13489 3.69775 0
      vertex -2.13489 3.69775 0
    endloop
  endfacet
  facet normal 0 -1 -0
    outer loop
      vertex 2.13489 3.69775 0
      vertex -2.13489 3.69775 -3.2
      vertex 2.13489 3.69775 -3.2
    endloop
  endfacet
  facet normal -0.866025 -0.500001 0
    outer loop
      vertex 4.26979 0 -3.2
      vertex 2.13489 3.69775 0
      vertex 2.13489 3.69775 -3.2
    endloop
  endfacet
  facet normal -0.866025 -0.500001 0
    outer loop
      vertex 2.13489 3.69775 0
      vertex 4.26979 0 -3.2
      vertex 4.26979 0 0
    endloop
  endfacet
  facet normal 0 0 1
    outer loop
      vertex 4.26979 0 0
      vertex 12.5 0 0
      vertex 12.4014 1.56666 0
    endloop
  endfacet
  facet normal 0 0 1
    outer loop
      vertex 4.26979 0 0
      vertex 12.4014 1.56666 0
      vertex 12.1073 3.10862 0
    endloop
  endfacet
  facet normal 0 0 1
    outer loop
      vertex 12.5 0 0
      vertex 4.26979 0 0
      vertex 12.4014 -1.56666 0
    endloop
  endfacet
  facet normal 0 0 1
    outer loop
      vertex 4.26979 0 0
      vertex 12.1073 3.10862 0
      vertex 11.6222 4.60156 0
    endloop
  endfacet
  facet normal 0 0 1
    outer loop
      vertex 12.4014 -1.56666 0
      vertex 4.26979 0 0
      vertex 12.1073 -3.10862 0
    endloop
  endfacet
  facet normal 0 0 1
    outer loop
      vertex 4.26979 0 0
      vertex 11.6222 4.60156 0
      vertex 10.9538 6.02192 0
    endloop
  endfacet
  facet normal 0 0 1
    outer loop
      vertex 12.1073 -3.10862 0
      vertex 4.26979 0 0
      vertex 11.6222 -4.60156 0
    endloop
  endfacet
  facet normal 0 0 1
    outer loop
      vertex 2.13489 3.69775 0
      vertex 10.9538 6.02192 0
      vertex 10.1127 7.34731 0
    endloop
  endfacet
  facet normal 0 0 1
    outer loop
      vertex 11.6222 -4.60156 0
      vertex 4.26979 0 0
      vertex 10.9538 -6.02192 0
    endloop
  endfacet
  facet normal 0 0 1
    outer loop
      vertex 2.13489 3.69775 0
      vertex 10.1127 7.34731 0
      vertex 9.11211 8.55684 0
    endloop
  endfacet
  facet normal -0 0 1
    outer loop
      vertex 2.13489 -3.69775 0
      vertex 10.9538 -6.02192 0
      vertex 4.26979 0 0
    endloop
  endfacet
  facet normal 0 0 1
    outer loop
      vertex 2.13489 3.69775 0
      vertex 9.11211 8.55684 0
      vertex 7.9678 9.63142 0
    endloop
  endfacet
  facet normal 0 0 1
    outer loop
      vertex 10.9538 -6.02192 0
      vertex 2.13489 -3.69775 0
      vertex 10.1127 -7.34731 0
    endloop
  endfacet
  facet normal 0 0 1
    outer loop
      vertex 2.13489 3.69775 0
      vertex 7.9678 9.63142 0
      vertex 6.69783 10.5541 0
    endloop
  endfacet
  facet normal 0 0 1
    outer loop
      vertex 10.1127 -7.34731 0
      vertex 2.13489 -3.69775 0
      vertex 9.11211 -8.55684 0
    endloop
  endfacet
  facet normal 0 0 1
    outer loop
      vertex 2.13489 3.69775 0
      vertex 6.69783 10.5541 0
      vertex 5.32224 11.3103 0
    endloop
  endfacet
  facet normal 0 0 1
    outer loop
      vertex 9.11211 -8.55684 0
      vertex 2.13489 -3.69775 0
      vertex 7.9678 -9.63142 0
    endloop
  endfacet
  facet normal 0 0 1
    outer loop
      vertex 7.9678 -9.63142 0
      vertex 2.13489 -3.69775 0
      vertex 6.69783 -10.5541 0
    endloop
  endfacet
  facet normal 0 0 1
    outer loop
      vertex 2.13489 3.69775 0
      vertex 5.32224 11.3103 0
      vertex 3.86271 11.8882 0
    endloop
  endfacet
  facet normal 0 0 1
    outer loop
      vertex 2.13489 3.69775 0
      vertex 3.86271 11.8882 0
      vertex 2.34227 12.2786 0
    endloop
  endfacet
  facet normal 0 0 1
    outer loop
      vertex 10.9538 6.02192 0
      vertex 2.13489 3.69775 0
      vertex 4.26979 0 0
    endloop
  endfacet
  facet normal 0 0 1
    outer loop
      vertex 0.784881 12.4753 0
      vertex 2.13489 3.69775 0
      vertex 2.34227 12.2786 0
    endloop
  endfacet
  facet normal -0 0 1
    outer loop
      vertex -0.784881 12.4753 0
      vertex 2.13489 3.69775 0
      vertex 0.784881 12.4753 0
    endloop
  endfacet
  facet normal 0 0 1
    outer loop
      vertex -0.784881 12.4753 0
      vertex -2.13489 3.69775 0
      vertex 2.13489 3.69775 0
    endloop
  endfacet
  facet normal -0 0 1
    outer loop
      vertex -2.34227 12.2786 0
      vertex -2.13489 3.69775 0
      vertex -0.784881 12.4753 0
    endloop
  endfacet
  facet normal -0 0 1
    outer loop
      vertex -3.86271 11.8882 0
      vertex -2.13489 3.69775 0
      vertex -2.34227 12.2786 0
    endloop
  endfacet
  facet normal -0 0 1
    outer loop
      vertex -5.32224 11.3103 0
      vertex -2.13489 3.69775 0
      vertex -3.86271 11.8882 0
    endloop
  endfacet
  facet normal -0 0 1
    outer loop
      vertex -6.69783 10.5541 0
      vertex -2.13489 3.69775 0
      vertex -5.32224 11.3103 0
    endloop
  endfacet
  facet normal 0 0 1
    outer loop
      vertex 6.69783 -10.5541 0
      vertex 2.13489 -3.69775 0
      vertex 5.32224 -11.3103 0
    endloop
  endfacet
  facet normal 0 0 1
    outer loop
      vertex 5.32224 -11.3103 0
      vertex 2.13489 -3.69775 0
      vertex 3.86271 -11.8882 0
    endloop
  endfacet
  facet normal 0 0 1
    outer loop
      vertex 3.86271 -11.8882 0
      vertex 2.13489 -3.69775 0
      vertex 2.34227 -12.2786 0
    endloop
  endfacet
  facet normal 0 0 1
    outer loop
      vertex 2.13489 -3.69775 0
      vertex 0.784881 -12.4753 0
      vertex 2.34227 -12.2786 0
    endloop
  endfacet
  facet normal 0 0 1
    outer loop
      vertex 2.13489 -3.69775 0
      vertex -0.784881 -12.4753 0
      vertex 0.784881 -12.4753 0
    endloop
  endfacet
  facet normal -0 0 1
    outer loop
      vertex -2.13489 -3.69775 0
      vertex -0.784881 -12.4753 0
      vertex 2.13489 -3.69775 0
    endloop
  endfacet
  facet normal 0 0 1
    outer loop
      vertex -2.13489 -3.69775 0
      vertex -2.34227 -12.2786 0
      vertex -0.784881 -12.4753 0
    endloop
  endfacet
  facet normal 0 0 1
    outer loop
      vertex -2.13489 -3.69775 0
      vertex -3.86271 -11.8882 0
      vertex -2.34227 -12.2786 0
    endloop
  endfacet
  facet normal 0 0 1
    outer loop
      vertex -10.9538 -6.02192 0
      vertex -2.13489 -3.69775 0
      vertex -4.26979 0 0
    endloop
  endfacet
  facet normal -0 0 1
    outer loop
      vertex -7.9678 9.63142 0
      vertex -2.13489 3.69775 0
      vertex -6.69783 10.5541 0
    endloop
  endfacet
  facet normal 0 0 1
    outer loop
      vertex -2.13489 -3.69775 0
      vertex -5.32224 -11.3103 0
      vertex -3.86271 -11.8882 0
    endloop
  endfacet
  facet normal -0 0 1
    outer loop
      vertex -9.11211 8.55684 0
      vertex -2.13489 3.69775 0
      vertex -7.9678 9.63142 0
    endloop
  endfacet
  facet normal 0 0 1
    outer loop
      vertex -2.13489 -3.69775 0
      vertex -6.69783 -10.5541 0
      vertex -5.32224 -11.3103 0
    endloop
  endfacet
  facet normal -0 0 1
    outer loop
      vertex -10.1127 7.34731 0
      vertex -2.13489 3.69775 0
      vertex -9.11211 8.55684 0
    endloop
  endfacet
  facet normal 0 0 1
    outer loop
      vertex -2.13489 -3.69775 0
      vertex -7.9678 -9.63142 0
      vertex -6.69783 -10.5541 0
    endloop
  endfacet
  facet normal -0 0 1
    outer loop
      vertex -10.9538 6.02192 0
      vertex -2.13489 3.69775 0
      vertex -10.1127 7.34731 0
    endloop
  endfacet
  facet normal 0 0 1
    outer loop
      vertex -2.13489 -3.69775 0
      vertex -9.11211 -8.55684 0
      vertex -7.9678 -9.63142 0
    endloop
  endfacet
  facet normal 0 0 1
    outer loop
      vertex -2.13489 3.69775 0
      vertex -10.9538 6.02192 0
      vertex -4.26979 0 0
    endloop
  endfacet
  facet normal 0 0 1
    outer loop
      vertex -2.13489 -3.69775 0
      vertex -10.1127 -7.34731 0
      vertex -9.11211 -8.55684 0
    endloop
  endfacet
  facet normal -0 0 1
    outer loop
      vertex -11.6222 4.60156 0
      vertex -4.26979 0 0
      vertex -10.9538 6.02192 0
    endloop
  endfacet
  facet normal 0 0 1
    outer loop
      vertex -2.13489 -3.69775 0
      vertex -10.9538 -6.02192 0
      vertex -10.1127 -7.34731 0
    endloop
  endfacet
  facet normal -0 0 1
    outer loop
      vertex -12.1073 3.10862 0
      vertex -4.26979 0 0
      vertex -11.6222 4.60156 0
    endloop
  endfacet
  facet normal 0 0 1
    outer loop
      vertex -4.26979 0 0
      vertex -11.6222 -4.60156 0
      vertex -10.9538 -6.02192 0
    endloop
  endfacet
  facet normal -0 0 1
    outer loop
      vertex -12.4014 1.56666 0
      vertex -4.26979 0 0
      vertex -12.1073 3.10862 0
    endloop
  endfacet
  facet normal 0 0 1
    outer loop
      vertex -4.26979 0 0
      vertex -12.1073 -3.10862 0
      vertex -11.6222 -4.60156 0
    endloop
  endfacet
  facet normal 0 0 1
    outer loop
      vertex -12.5 0 0
      vertex -4.26979 0 0
      vertex -12.4014 1.56666 0
    endloop
  endfacet
  facet normal 0 0 1
    outer loop
      vertex -4.26979 0 0
      vertex -12.4014 -1.56666 0
      vertex -12.1073 -3.10862 0
    endloop
  endfacet
  facet normal 0 0 1
    outer loop
      vertex -4.26979 0 0
      vertex -12.5 0 0
      vertex -12.4014 -1.56666 0
    endloop
  endfacet
  facet normal -0.866025 0.500001 0
    outer loop
      vertex 2.13489 -3.69775 -3.2
      vertex 4.26979 0 0
      vertex 4.26979 0 -3.2
    endloop
  endfacet
  facet normal -0.866025 0.500001 0
    outer loop
      vertex 4.26979 0 0
      vertex 2.13489 -3.69775 -3.2
      vertex 2.13489 -3.69775 0
    endloop
  endfacet
  facet normal 0 0 1
    outer loop
      vertex 4.26979 0 -3.2
      vertex 2.23226 0.282 -3.2
      vertex 2.25 0 -3.2
    endloop
  endfacet
  facet normal 0 0 1
    outer loop
      vertex 4.26979 0 -3.2
      vertex 2.17931 0.559552 -3.2
      vertex 2.23226 0.282 -3.2
    endloop
  endfacet
  facet normal -0 0 1
    outer loop
      vertex 1.97169 1.08395 -3.2
      vertex 4.26979 0 -3.2
      vertex 2.13489 3.69775 -3.2
    endloop
  endfacet
  facet normal 0 0 1
    outer loop
      vertex 4.26979 0 -3.2
      vertex 2.092 0.828279 -3.2
      vertex 2.17931 0.559552 -3.2
    endloop
  endfacet
  facet normal 0 0 1
    outer loop
      vertex 4.26979 0 -3.2
      vertex 1.97169 1.08395 -3.2
      vertex 2.092 0.828279 -3.2
    endloop
  endfacet
  facet normal 0 0 1
    outer loop
      vertex 2.13489 3.69775 -3.2
      vertex 1.82029 1.32252 -3.2
      vertex 1.97169 1.08395 -3.2
    endloop
  endfacet
  facet normal 0 0 1
    outer loop
      vertex 2.13489 3.69775 -3.2
      vertex 1.64018 1.54023 -3.2
      vertex 1.82029 1.32252 -3.2
    endloop
  endfacet
  facet normal 0 0 1
    outer loop
      vertex 2.13489 3.69775 -3.2
      vertex 1.4342 1.73365 -3.2
      vertex 1.64018 1.54023 -3.2
    endloop
  endfacet
  facet normal 0 0 1
    outer loop
      vertex 2.13489 3.69775 -3.2
      vertex 1.20561 1.89974 -3.2
      vertex 1.4342 1.73365 -3.2
    endloop
  endfacet
  facet normal 0 0 1
    outer loop
      vertex 2.13489 3.69775 -3.2
      vertex 0.958003 2.03586 -3.2
      vertex 1.20561 1.89974 -3.2
    endloop
  endfacet
  facet normal 0 0 1
    outer loop
      vertex 2.13489 3.69775 -3.2
      vertex 0.695288 2.13988 -3.2
      vertex 0.958003 2.03586 -3.2
    endloop
  endfacet
  facet normal 0 0 1
    outer loop
      vertex 2.13489 3.69775 -3.2
      vertex 0.421607 2.21015 -3.2
      vertex 0.695288 2.13988 -3.2
    endloop
  endfacet
  facet normal 0 0 1
    outer loop
      vertex 2.13489 3.69775 -3.2
      vertex 0.141278 2.24556 -3.2
      vertex 0.421607 2.21015 -3.2
    endloop
  endfacet
  facet normal 0 0 1
    outer loop
      vertex 2.13489 3.69775 -3.2
      vertex -0.141278 2.24556 -3.2
      vertex 0.141278 2.24556 -3.2
    endloop
  endfacet
  facet normal -0 0 1
    outer loop
      vertex -2.13489 3.69775 -3.2
      vertex -0.141278 2.24556 -3.2
      vertex 2.13489 3.69775 -3.2
    endloop
  endfacet
  facet normal 0 0 1
    outer loop
      vertex -0.141278 2.24556 -3.2
      vertex -2.13489 3.69775 -3.2
      vertex -0.421607 2.21015 -3.2
    endloop
  endfacet
  facet normal 0 0 1
    outer loop
      vertex -0.421607 2.21015 -3.2
      vertex -2.13489 3.69775 -3.2
      vertex -0.695288 2.13988 -3.2
    endloop
  endfacet
  facet normal 0 0 1
    outer loop
      vertex -0.695288 2.13988 -3.2
      vertex -2.13489 3.69775 -3.2
      vertex -0.958003 2.03586 -3.2
    endloop
  endfacet
  facet normal 0 0 1
    outer loop
      vertex -2.13489 3.69775 -3.2
      vertex -1.20561 1.89974 -3.2
      vertex -0.958003 2.03586 -3.2
    endloop
  endfacet
  facet normal 0 0 1
    outer loop
      vertex -2.13489 3.69775 -3.2
      vertex -1.4342 1.73365 -3.2
      vertex -1.20561 1.89974 -3.2
    endloop
  endfacet
  facet normal 0 0 1
    outer loop
      vertex -2.13489 3.69775 -3.2
      vertex -1.64018 1.54023 -3.2
      vertex -1.4342 1.73365 -3.2
    endloop
  endfacet
  facet normal 0 0 1
    outer loop
      vertex -2.13489 3.69775 -3.2
      vertex -1.82029 1.32252 -3.2
      vertex -1.64018 1.54023 -3.2
    endloop
  endfacet
  facet normal 0 0 1
    outer loop
      vertex -2.13489 3.69775 -3.2
      vertex -1.97169 1.08395 -3.2
      vertex -1.82029 1.32252 -3.2
    endloop
  endfacet
  facet normal 0 0 1
    outer loop
      vertex -4.26979 0 -3.2
      vertex -1.97169 1.08395 -3.2
      vertex -2.13489 3.69775 -3.2
    endloop
  endfacet
  facet normal 0 0 1
    outer loop
      vertex -1.97169 1.08395 -3.2
      vertex -4.26979 0 -3.2
      vertex -2.092 0.828279 -3.2
    endloop
  endfacet
  facet normal 0 0 1
    outer loop
      vertex -2.092 0.828279 -3.2
      vertex -4.26979 0 -3.2
      vertex -2.17931 0.559552 -3.2
    endloop
  endfacet
  facet normal 0 0 1
    outer loop
      vertex -2.17931 0.559552 -3.2
      vertex -4.26979 0 -3.2
      vertex -2.23226 0.282 -3.2
    endloop
  endfacet
  facet normal 0 0 1
    outer loop
      vertex -2.23226 0.282 -3.2
      vertex -4.26979 0 -3.2
      vertex -2.25 0 -3.2
    endloop
  endfacet
  facet normal 0 0 1
    outer loop
      vertex 2.23226 -0.282 -3.2
      vertex 4.26979 0 -3.2
      vertex 2.25 0 -3.2
    endloop
  endfacet
  facet normal 0 0 1
    outer loop
      vertex 2.17931 -0.559552 -3.2
      vertex 4.26979 0 -3.2
      vertex 2.23226 -0.282 -3.2
    endloop
  endfacet
  facet normal 0 0 1
    outer loop
      vertex 2.092 -0.828279 -3.2
      vertex 4.26979 0 -3.2
      vertex 2.17931 -0.559552 -3.2
    endloop
  endfacet
  facet normal 0 0 1
    outer loop
      vertex 1.97169 -1.08395 -3.2
      vertex 4.26979 0 -3.2
      vertex 2.092 -0.828279 -3.2
    endloop
  endfacet
  facet normal 0 0 1
    outer loop
      vertex 4.26979 0 -3.2
      vertex 1.97169 -1.08395 -3.2
      vertex 2.13489 -3.69775 -3.2
    endloop
  endfacet
  facet normal -0 0 1
    outer loop
      vertex 1.82029 -1.32252 -3.2
      vertex 2.13489 -3.69775 -3.2
      vertex 1.97169 -1.08395 -3.2
    endloop
  endfacet
  facet normal -0 0 1
    outer loop
      vertex 1.64018 -1.54023 -3.2
      vertex 2.13489 -3.69775 -3.2
      vertex 1.82029 -1.32252 -3.2
    endloop
  endfacet
  facet normal -0 0 1
    outer loop
      vertex 1.4342 -1.73365 -3.2
      vertex 2.13489 -3.69775 -3.2
      vertex 1.64018 -1.54023 -3.2
    endloop
  endfacet
  facet normal -0 0 1
    outer loop
      vertex 1.20561 -1.89974 -3.2
      vertex 2.13489 -3.69775 -3.2
      vertex 1.4342 -1.73365 -3.2
    endloop
  endfacet
  facet normal -0 0 1
    outer loop
      vertex 0.958003 -2.03586 -3.2
      vertex 2.13489 -3.69775 -3.2
      vertex 1.20561 -1.89974 -3.2
    endloop
  endfacet
  facet normal -0 0 1
    outer loop
      vertex 0.695288 -2.13988 -3.2
      vertex 2.13489 -3.69775 -3.2
      vertex 0.958003 -2.03586 -3.2
    endloop
  endfacet
  facet normal -0 0 1
    outer loop
      vertex 0.421607 -2.21015 -3.2
      vertex 2.13489 -3.69775 -3.2
      vertex 0.695288 -2.13988 -3.2
    endloop
  endfacet
  facet normal -0 0 1
    outer loop
      vertex 0.141278 -2.24556 -3.2
      vertex 2.13489 -3.69775 -3.2
      vertex 0.421607 -2.21015 -3.2
    endloop
  endfacet
  facet normal -0 0 1
    outer loop
      vertex -0.141278 -2.24556 -3.2
      vertex 2.13489 -3.69775 -3.2
      vertex 0.141278 -2.24556 -3.2
    endloop
  endfacet
  facet normal 0 0 1
    outer loop
      vertex -2.13489 -3.69775 -3.2
      vertex -0.141278 -2.24556 -3.2
      vertex -0.421607 -2.21015 -3.2
    endloop
  endfacet
  facet normal 0 0 1
    outer loop
      vertex -2.13489 -3.69775 -3.2
      vertex -0.421607 -2.21015 -3.2
      vertex -0.695288 -2.13988 -3.2
    endloop
  endfacet
  facet normal 0 0 1
    outer loop
      vertex -2.13489 -3.69775 -3.2
      vertex -0.695288 -2.13988 -3.2
      vertex -0.958003 -2.03586 -3.2
    endloop
  endfacet
  facet normal 0 0 1
    outer loop
      vertex -0.141278 -2.24556 -3.2
      vertex -2.13489 -3.69775 -3.2
      vertex 2.13489 -3.69775 -3.2
    endloop
  endfacet
  facet normal 0 0 1
    outer loop
      vertex -1.20561 -1.89974 -3.2
      vertex -2.13489 -3.69775 -3.2
      vertex -0.958003 -2.03586 -3.2
    endloop
  endfacet
  facet normal 0 0 1
    outer loop
      vertex -1.4342 -1.73365 -3.2
      vertex -2.13489 -3.69775 -3.2
      vertex -1.20561 -1.89974 -3.2
    endloop
  endfacet
  facet normal 0 0 1
    outer loop
      vertex -1.64018 -1.54023 -3.2
      vertex -2.13489 -3.69775 -3.2
      vertex -1.4342 -1.73365 -3.2
    endloop
  endfacet
  facet normal 0 0 1
    outer loop
      vertex -1.82029 -1.32252 -3.2
      vertex -2.13489 -3.69775 -3.2
      vertex -1.64018 -1.54023 -3.2
    endloop
  endfacet
  facet normal 0 0 1
    outer loop
      vertex -1.97169 -1.08395 -3.2
      vertex -2.13489 -3.69775 -3.2
      vertex -1.82029 -1.32252 -3.2
    endloop
  endfacet
  facet normal 0 0 1
    outer loop
      vertex -4.26979 0 -3.2
      vertex -1.97169 -1.08395 -3.2
      vertex -2.092 -0.828279 -3.2
    endloop
  endfacet
  facet normal 0 0 1
    outer loop
      vertex -4.26979 0 -3.2
      vertex -2.092 -0.828279 -3.2
      vertex -2.17931 -0.559552 -3.2
    endloop
  endfacet
  facet normal 0 0 1
    outer loop
      vertex -4.26979 0 -3.2
      vertex -2.17931 -0.559552 -3.2
      vertex -2.23226 -0.282 -3.2
    endloop
  endfacet
  facet normal -0 0 1
    outer loop
      vertex -4.26979 0 -3.2
      vertex -2.23226 -0.282 -3.2
      vertex -2.25 0 -3.2
    endloop
  endfacet
  facet normal 0 0 1
    outer loop
      vertex -1.97169 -1.08395 -3.2
      vertex -4.26979 0 -3.2
      vertex -2.13489 -3.69775 -3.2
    endloop
  endfacet
  facet normal 0.866025 0.500001 0
    outer loop
      vertex -2.13489 -3.69775 0
      vertex -4.26979 0 -3.2
      vertex -4.26979 0 0
    endloop
  endfacet
  facet normal 0.866025 0.500001 0
    outer loop
      vertex -4.26979 0 -3.2
      vertex -2.13489 -3.69775 0
      vertex -2.13489 -3.69775 -3.2
    endloop
  endfacet
  facet normal 0 1 -0
    outer loop
      vertex 2.13489 -3.69775 -3.2
      vertex -2.13489 -3.69775 0
      vertex 2.13489 -3.69775 0
    endloop
  endfacet
  facet normal 0 1 0
    outer loop
      vertex -2.13489 -3.69775 0
      vertex 2.13489 -3.69775 -3.2
      vertex -2.13489 -3.69775 -3.2
    endloop
  endfacet
  facet normal -0.998027 -0.0627837 0
    outer loop
      vertex 2.25 0 -31.5
      vertex 2.23226 0.282 -3.2
      vertex 2.23226 0.282 -31.5
    endloop
  endfacet
  facet normal -0.998027 -0.0627837 0
    outer loop
      vertex 2.23226 0.282 -3.2
      vertex 2.25 0 -31.5
      vertex 2.25 0 -3.2
    endloop
  endfacet
  facet normal 0.998027 -0.0627837 0
    outer loop
      vertex -2.25 0 -3.2
      vertex -2.23226 0.282 -31.5
      vertex -2.23226 0.282 -3.2
    endloop
  endfacet
  facet normal 0.998027 -0.0627837 0
    outer loop
      vertex -2.23226 0.282 -31.5
      vertex -2.25 0 -3.2
      vertex -2.25 0 -31.5
    endloop
  endfacet
  facet normal 0 -1 0
    outer loop
      vertex -0.141278 2.24556 -31.5
      vertex 0.141278 2.24556 -3.2
      vertex -0.141278 2.24556 -3.2
    endloop
  endfacet
  facet normal 0 -1 -0
    outer loop
      vertex 0.141278 2.24556 -3.2
      vertex -0.141278 2.24556 -31.5
      vertex 0.141278 2.24556 -31.5
    endloop
  endfacet
  facet normal 0 1 -0
    outer loop
      vertex 0.141278 -2.24556 -31.5
      vertex -0.141278 -2.24556 -3.2
      vertex 0.141278 -2.24556 -3.2
    endloop
  endfacet
  facet normal 0 1 0
    outer loop
      vertex -0.141278 -2.24556 -3.2
      vertex 0.141278 -2.24556 -31.5
      vertex -0.141278 -2.24556 -31.5
    endloop
  endfacet
  facet normal -0.770505 0.637434 0
    outer loop
      vertex 1.64018 -1.54023 -31.5
      vertex 1.82029 -1.32252 -3.2
      vertex 1.82029 -1.32252 -31.5
    endloop
  endfacet
  facet normal -0.770505 0.637434 0
    outer loop
      vertex 1.82029 -1.32252 -3.2
      vertex 1.64018 -1.54023 -31.5
      vertex 1.64018 -1.54023 -3.2
    endloop
  endfacet
  facet normal -0.684532 -0.728983 0
    outer loop
      vertex 1.4342 1.73365 -31.5
      vertex 1.64018 1.54023 -3.2
      vertex 1.4342 1.73365 -3.2
    endloop
  endfacet
  facet normal -0.684532 -0.728983 -0
    outer loop
      vertex 1.64018 1.54023 -3.2
      vertex 1.4342 1.73365 -31.5
      vertex 1.64018 1.54023 -31.5
    endloop
  endfacet
  facet normal 0.684532 -0.728983 0
    outer loop
      vertex -1.64018 1.54023 -31.5
      vertex -1.4342 1.73365 -3.2
      vertex -1.64018 1.54023 -3.2
    endloop
  endfacet
  facet normal 0.684532 -0.728983 0
    outer loop
      vertex -1.4342 1.73365 -3.2
      vertex -1.64018 1.54023 -31.5
      vertex -1.4342 1.73365 -31.5
    endloop
  endfacet
  facet normal 0.368136 -0.929772 0
    outer loop
      vertex -0.958003 2.03586 -31.5
      vertex -0.695288 2.13988 -3.2
      vertex -0.958003 2.03586 -3.2
    endloop
  endfacet
  facet normal 0.368136 -0.929772 0
    outer loop
      vertex -0.695288 2.13988 -3.2
      vertex -0.958003 2.03586 -31.5
      vertex -0.695288 2.13988 -31.5
    endloop
  endfacet
  facet normal -0.904827 -0.42578 0
    outer loop
      vertex 2.092 0.828279 -31.5
      vertex 1.97169 1.08395 -3.2
      vertex 1.97169 1.08395 -31.5
    endloop
  endfacet
  facet normal -0.904827 -0.42578 0
    outer loop
      vertex 1.97169 1.08395 -3.2
      vertex 2.092 0.828279 -31.5
      vertex 2.092 0.828279 -3.2
    endloop
  endfacet
  facet normal -0.982285 -0.187395 0
    outer loop
      vertex 2.23226 0.282 -31.5
      vertex 2.17931 0.559552 -3.2
      vertex 2.17931 0.559552 -31.5
    endloop
  endfacet
  facet normal -0.982285 -0.187395 0
    outer loop
      vertex 2.17931 0.559552 -3.2
      vertex 2.23226 0.282 -31.5
      vertex 2.23226 0.282 -3.2
    endloop
  endfacet
  facet normal -0.368136 -0.929772 0
    outer loop
      vertex 0.695288 2.13988 -31.5
      vertex 0.958003 2.03586 -3.2
      vertex 0.695288 2.13988 -3.2
    endloop
  endfacet
  facet normal -0.368136 -0.929772 -0
    outer loop
      vertex 0.958003 2.03586 -3.2
      vertex 0.695288 2.13988 -31.5
      vertex 0.958003 2.03586 -31.5
    endloop
  endfacet
  facet normal -0.248692 -0.968583 0
    outer loop
      vertex 0.421607 2.21015 -31.5
      vertex 0.695288 2.13988 -3.2
      vertex 0.421607 2.21015 -3.2
    endloop
  endfacet
  facet normal -0.248692 -0.968583 -0
    outer loop
      vertex 0.695288 2.13988 -3.2
      vertex 0.421607 2.21015 -31.5
      vertex 0.695288 2.13988 -31.5
    endloop
  endfacet
  facet normal -0.587808 -0.809001 0
    outer loop
      vertex 1.20561 1.89974 -31.5
      vertex 1.4342 1.73365 -3.2
      vertex 1.20561 1.89974 -3.2
    endloop
  endfacet
  facet normal -0.587808 -0.809001 -0
    outer loop
      vertex 1.4342 1.73365 -3.2
      vertex 1.20561 1.89974 -31.5
      vertex 1.4342 1.73365 -31.5
    endloop
  endfacet
  facet normal 0.84433 -0.535824 0
    outer loop
      vertex -1.97169 1.08395 -3.2
      vertex -1.82029 1.32252 -31.5
      vertex -1.82029 1.32252 -3.2
    endloop
  endfacet
  facet normal 0.84433 -0.535824 0
    outer loop
      vertex -1.82029 1.32252 -31.5
      vertex -1.97169 1.08395 -3.2
      vertex -1.97169 1.08395 -31.5
    endloop
  endfacet
  facet normal 0.770505 -0.637434 0
    outer loop
      vertex -1.82029 1.32252 -3.2
      vertex -1.64018 1.54023 -31.5
      vertex -1.64018 1.54023 -3.2
    endloop
  endfacet
  facet normal 0.770505 -0.637434 0
    outer loop
      vertex -1.64018 1.54023 -31.5
      vertex -1.82029 1.32252 -3.2
      vertex -1.82029 1.32252 -31.5
    endloop
  endfacet
  facet normal 0.951061 -0.309002 0
    outer loop
      vertex -2.17931 0.559552 -3.2
      vertex -2.092 0.828279 -31.5
      vertex -2.092 0.828279 -3.2
    endloop
  endfacet
  facet normal 0.951061 -0.309002 0
    outer loop
      vertex -2.092 0.828279 -31.5
      vertex -2.17931 0.559552 -3.2
      vertex -2.17931 0.559552 -31.5
    endloop
  endfacet
  facet normal 0.481745 -0.876311 0
    outer loop
      vertex -1.20561 1.89974 -31.5
      vertex -0.958003 2.03586 -3.2
      vertex -1.20561 1.89974 -3.2
    endloop
  endfacet
  facet normal 0.481745 -0.876311 0
    outer loop
      vertex -0.958003 2.03586 -3.2
      vertex -1.20561 1.89974 -31.5
      vertex -0.958003 2.03586 -31.5
    endloop
  endfacet
  facet normal 0.12532 -0.992116 0
    outer loop
      vertex -0.421607 2.21015 -31.5
      vertex -0.141278 2.24556 -3.2
      vertex -0.421607 2.21015 -3.2
    endloop
  endfacet
  facet normal 0.12532 -0.992116 0
    outer loop
      vertex -0.141278 2.24556 -3.2
      vertex -0.421607 2.21015 -31.5
      vertex -0.141278 2.24556 -31.5
    endloop
  endfacet
  facet normal -0.12532 0.992116 0
    outer loop
      vertex 0.421607 -2.21015 -31.5
      vertex 0.141278 -2.24556 -3.2
      vertex 0.421607 -2.21015 -3.2
    endloop
  endfacet
  facet normal -0.12532 0.992116 0
    outer loop
      vertex 0.141278 -2.24556 -3.2
      vertex 0.421607 -2.21015 -31.5
      vertex 0.141278 -2.24556 -31.5
    endloop
  endfacet
  facet normal -0.951061 -0.309002 0
    outer loop
      vertex 2.17931 0.559552 -31.5
      vertex 2.092 0.828279 -3.2
      vertex 2.092 0.828279 -31.5
    endloop
  endfacet
  facet normal -0.951061 -0.309002 0
    outer loop
      vertex 2.092 0.828279 -3.2
      vertex 2.17931 0.559552 -31.5
      vertex 2.17931 0.559552 -3.2
    endloop
  endfacet
  facet normal -0.770505 -0.637434 0
    outer loop
      vertex 1.82029 1.32252 -31.5
      vertex 1.64018 1.54023 -3.2
      vertex 1.64018 1.54023 -31.5
    endloop
  endfacet
  facet normal -0.770505 -0.637434 0
    outer loop
      vertex 1.64018 1.54023 -3.2
      vertex 1.82029 1.32252 -31.5
      vertex 1.82029 1.32252 -3.2
    endloop
  endfacet
  facet normal -0.84433 -0.535824 0
    outer loop
      vertex 1.97169 1.08395 -31.5
      vertex 1.82029 1.32252 -3.2
      vertex 1.82029 1.32252 -31.5
    endloop
  endfacet
  facet normal -0.84433 -0.535824 0
    outer loop
      vertex 1.82029 1.32252 -3.2
      vertex 1.97169 1.08395 -31.5
      vertex 1.97169 1.08395 -3.2
    endloop
  endfacet
  facet normal -0.12532 -0.992116 0
    outer loop
      vertex 0.141278 2.24556 -31.5
      vertex 0.421607 2.21015 -3.2
      vertex 0.141278 2.24556 -3.2
    endloop
  endfacet
  facet normal -0.12532 -0.992116 -0
    outer loop
      vertex 0.421607 2.21015 -3.2
      vertex 0.141278 2.24556 -31.5
      vertex 0.421607 2.21015 -31.5
    endloop
  endfacet
  facet normal 0.904827 -0.42578 0
    outer loop
      vertex -2.092 0.828279 -3.2
      vertex -1.97169 1.08395 -31.5
      vertex -1.97169 1.08395 -3.2
    endloop
  endfacet
  facet normal 0.904827 -0.42578 0
    outer loop
      vertex -1.97169 1.08395 -31.5
      vertex -2.092 0.828279 -3.2
      vertex -2.092 0.828279 -31.5
    endloop
  endfacet
  facet normal 0.982285 -0.187395 0
    outer loop
      vertex -2.23226 0.282 -3.2
      vertex -2.17931 0.559552 -31.5
      vertex -2.17931 0.559552 -3.2
    endloop
  endfacet
  facet normal 0.982285 -0.187395 0
    outer loop
      vertex -2.17931 0.559552 -31.5
      vertex -2.23226 0.282 -3.2
      vertex -2.23226 0.282 -31.5
    endloop
  endfacet
  facet normal 0.248692 -0.968583 0
    outer loop
      vertex -0.695288 2.13988 -31.5
      vertex -0.421607 2.21015 -3.2
      vertex -0.695288 2.13988 -3.2
    endloop
  endfacet
  facet normal 0.248692 -0.968583 0
    outer loop
      vertex -0.421607 2.21015 -3.2
      vertex -0.695288 2.13988 -31.5
      vertex -0.421607 2.21015 -31.5
    endloop
  endfacet
  facet normal -0.998027 0.0627837 0
    outer loop
      vertex 2.23226 -0.282 -31.5
      vertex 2.25 0 -3.2
      vertex 2.25 0 -31.5
    endloop
  endfacet
  facet normal -0.998027 0.0627837 0
    outer loop
      vertex 2.25 0 -3.2
      vertex 2.23226 -0.282 -31.5
      vertex 2.23226 -0.282 -3.2
    endloop
  endfacet
  facet normal -0.84433 0.535824 0
    outer loop
      vertex 1.82029 -1.32252 -31.5
      vertex 1.97169 -1.08395 -3.2
      vertex 1.97169 -1.08395 -31.5
    endloop
  endfacet
  facet normal -0.84433 0.535824 0
    outer loop
      vertex 1.97169 -1.08395 -3.2
      vertex 1.82029 -1.32252 -31.5
      vertex 1.82029 -1.32252 -3.2
    endloop
  endfacet
  facet normal -0.982285 0.187395 0
    outer loop
      vertex 2.17931 -0.559552 -31.5
      vertex 2.23226 -0.282 -3.2
      vertex 2.23226 -0.282 -31.5
    endloop
  endfacet
  facet normal -0.982285 0.187395 0
    outer loop
      vertex 2.23226 -0.282 -3.2
      vertex 2.17931 -0.559552 -31.5
      vertex 2.17931 -0.559552 -3.2
    endloop
  endfacet
  facet normal 0.481745 0.876311 -0
    outer loop
      vertex -0.958003 -2.03586 -31.5
      vertex -1.20561 -1.89974 -3.2
      vertex -0.958003 -2.03586 -3.2
    endloop
  endfacet
  facet normal 0.481745 0.876311 0
    outer loop
      vertex -1.20561 -1.89974 -3.2
      vertex -0.958003 -2.03586 -31.5
      vertex -1.20561 -1.89974 -31.5
    endloop
  endfacet
  facet normal -0.684532 0.728983 0
    outer loop
      vertex 1.64018 -1.54023 -31.5
      vertex 1.4342 -1.73365 -3.2
      vertex 1.64018 -1.54023 -3.2
    endloop
  endfacet
  facet normal -0.684532 0.728983 0
    outer loop
      vertex 1.4342 -1.73365 -3.2
      vertex 1.64018 -1.54023 -31.5
      vertex 1.4342 -1.73365 -31.5
    endloop
  endfacet
  facet normal -0.368136 0.929772 0
    outer loop
      vertex 0.958003 -2.03586 -31.5
      vertex 0.695288 -2.13988 -3.2
      vertex 0.958003 -2.03586 -3.2
    endloop
  endfacet
  facet normal -0.368136 0.929772 0
    outer loop
      vertex 0.695288 -2.13988 -3.2
      vertex 0.958003 -2.03586 -31.5
      vertex 0.695288 -2.13988 -31.5
    endloop
  endfacet
  facet normal -0.481745 -0.876311 0
    outer loop
      vertex 0.958003 2.03586 -31.5
      vertex 1.20561 1.89974 -3.2
      vertex 0.958003 2.03586 -3.2
    endloop
  endfacet
  facet normal -0.481745 -0.876311 -0
    outer loop
      vertex 1.20561 1.89974 -3.2
      vertex 0.958003 2.03586 -31.5
      vertex 1.20561 1.89974 -31.5
    endloop
  endfacet
  facet normal 0.587808 -0.809001 0
    outer loop
      vertex -1.4342 1.73365 -31.5
      vertex -1.20561 1.89974 -3.2
      vertex -1.4342 1.73365 -3.2
    endloop
  endfacet
  facet normal 0.587808 -0.809001 0
    outer loop
      vertex -1.20561 1.89974 -3.2
      vertex -1.4342 1.73365 -31.5
      vertex -1.20561 1.89974 -31.5
    endloop
  endfacet
  facet normal -0.951061 0.309002 0
    outer loop
      vertex 2.092 -0.828279 -31.5
      vertex 2.17931 -0.559552 -3.2
      vertex 2.17931 -0.559552 -31.5
    endloop
  endfacet
  facet normal -0.951061 0.309002 0
    outer loop
      vertex 2.17931 -0.559552 -3.2
      vertex 2.092 -0.828279 -31.5
      vertex 2.092 -0.828279 -3.2
    endloop
  endfacet
  facet normal -0.904827 0.42578 0
    outer loop
      vertex 1.97169 -1.08395 -31.5
      vertex 2.092 -0.828279 -3.2
      vertex 2.092 -0.828279 -31.5
    endloop
  endfacet
  facet normal -0.904827 0.42578 0
    outer loop
      vertex 2.092 -0.828279 -3.2
      vertex 1.97169 -1.08395 -31.5
      vertex 1.97169 -1.08395 -3.2
    endloop
  endfacet
  facet normal 0.368136 0.929772 -0
    outer loop
      vertex -0.695288 -2.13988 -31.5
      vertex -0.958003 -2.03586 -3.2
      vertex -0.695288 -2.13988 -3.2
    endloop
  endfacet
  facet normal 0.368136 0.929772 0
    outer loop
      vertex -0.958003 -2.03586 -3.2
      vertex -0.695288 -2.13988 -31.5
      vertex -0.958003 -2.03586 -31.5
    endloop
  endfacet
  facet normal 0.770505 0.637434 0
    outer loop
      vertex -1.64018 -1.54023 -3.2
      vertex -1.82029 -1.32252 -31.5
      vertex -1.82029 -1.32252 -3.2
    endloop
  endfacet
  facet normal 0.770505 0.637434 0
    outer loop
      vertex -1.82029 -1.32252 -31.5
      vertex -1.64018 -1.54023 -3.2
      vertex -1.64018 -1.54023 -31.5
    endloop
  endfacet
  facet normal 0.951061 0.309002 0
    outer loop
      vertex -2.092 -0.828279 -3.2
      vertex -2.17931 -0.559552 -31.5
      vertex -2.17931 -0.559552 -3.2
    endloop
  endfacet
  facet normal 0.951061 0.309002 0
    outer loop
      vertex -2.17931 -0.559552 -31.5
      vertex -2.092 -0.828279 -3.2
      vertex -2.092 -0.828279 -31.5
    endloop
  endfacet
  facet normal -0.587808 0.809001 0
    outer loop
      vertex 1.4342 -1.73365 -31.5
      vertex 1.20561 -1.89974 -3.2
      vertex 1.4342 -1.73365 -3.2
    endloop
  endfacet
  facet normal -0.587808 0.809001 0
    outer loop
      vertex 1.20561 -1.89974 -3.2
      vertex 1.4342 -1.73365 -31.5
      vertex 1.20561 -1.89974 -31.5
    endloop
  endfacet
  facet normal -0.481745 0.876311 0
    outer loop
      vertex 1.20561 -1.89974 -31.5
      vertex 0.958003 -2.03586 -3.2
      vertex 1.20561 -1.89974 -3.2
    endloop
  endfacet
  facet normal -0.481745 0.876311 0
    outer loop
      vertex 0.958003 -2.03586 -3.2
      vertex 1.20561 -1.89974 -31.5
      vertex 0.958003 -2.03586 -31.5
    endloop
  endfacet
  facet normal -0.248692 0.968583 0
    outer loop
      vertex 0.695288 -2.13988 -31.5
      vertex 0.421607 -2.21015 -3.2
      vertex 0.695288 -2.13988 -3.2
    endloop
  endfacet
  facet normal -0.248692 0.968583 0
    outer loop
      vertex 0.421607 -2.21015 -3.2
      vertex 0.695288 -2.13988 -31.5
      vertex 0.421607 -2.21015 -31.5
    endloop
  endfacet
  facet normal 0.12532 0.992116 -0
    outer loop
      vertex -0.141278 -2.24556 -31.5
      vertex -0.421607 -2.21015 -3.2
      vertex -0.141278 -2.24556 -3.2
    endloop
  endfacet
  facet normal 0.12532 0.992116 0
    outer loop
      vertex -0.421607 -2.21015 -3.2
      vertex -0.141278 -2.24556 -31.5
      vertex -0.421607 -2.21015 -31.5
    endloop
  endfacet
  facet normal 0.684532 0.728983 -0
    outer loop
      vertex -1.4342 -1.73365 -31.5
      vertex -1.64018 -1.54023 -3.2
      vertex -1.4342 -1.73365 -3.2
    endloop
  endfacet
  facet normal 0.684532 0.728983 0
    outer loop
      vertex -1.64018 -1.54023 -3.2
      vertex -1.4342 -1.73365 -31.5
      vertex -1.64018 -1.54023 -31.5
    endloop
  endfacet
  facet normal 0.587808 0.809001 -0
    outer loop
      vertex -1.20561 -1.89974 -31.5
      vertex -1.4342 -1.73365 -3.2
      vertex -1.20561 -1.89974 -3.2
    endloop
  endfacet
  facet normal 0.587808 0.809001 0
    outer loop
      vertex -1.4342 -1.73365 -3.2
      vertex -1.20561 -1.89974 -31.5
      vertex -1.4342 -1.73365 -31.5
    endloop
  endfacet
  facet normal 0.84433 0.535824 0
    outer loop
      vertex -1.82029 -1.32252 -3.2
      vertex -1.97169 -1.08395 -31.5
      vertex -1.97169 -1.08395 -3.2
    endloop
  endfacet
  facet normal 0.84433 0.535824 0
    outer loop
      vertex -1.97169 -1.08395 -31.5
      vertex -1.82029 -1.32252 -3.2
      vertex -1.82029 -1.32252 -31.5
    endloop
  endfacet
  facet normal 0.904827 0.42578 0
    outer loop
      vertex -1.97169 -1.08395 -3.2
      vertex -2.092 -0.828279 -31.5
      vertex -2.092 -0.828279 -3.2
    endloop
  endfacet
  facet normal 0.904827 0.42578 0
    outer loop
      vertex -2.092 -0.828279 -31.5
      vertex -1.97169 -1.08395 -3.2
      vertex -1.97169 -1.08395 -31.5
    endloop
  endfacet
  facet normal 0.982285 0.187395 0
    outer loop
      vertex -2.17931 -0.559552 -3.2
      vertex -2.23226 -0.282 -31.5
      vertex -2.23226 -0.282 -3.2
    endloop
  endfacet
  facet normal 0.982285 0.187395 0
    outer loop
      vertex -2.23226 -0.282 -31.5
      vertex -2.17931 -0.559552 -3.2
      vertex -2.17931 -0.559552 -31.5
    endloop
  endfacet
  facet normal 0.998027 0.0627837 0
    outer loop
      vertex -2.23226 -0.282 -3.2
      vertex -2.25 0 -31.5
      vertex -2.25 0 -3.2
    endloop
  endfacet
  facet normal 0.998027 0.0627837 0
    outer loop
      vertex -2.25 0 -31.5
      vertex -2.23226 -0.282 -3.2
      vertex -2.23226 -0.282 -31.5
    endloop
  endfacet
  facet normal 0.248692 0.968583 -0
    outer loop
      vertex -0.421607 -2.21015 -31.5
      vertex -0.695288 -2.13988 -3.2
      vertex -0.421607 -2.21015 -3.2
    endloop
  endfacet
  facet normal 0.248692 0.968583 0
    outer loop
      vertex -0.695288 -2.13988 -3.2
      vertex -0.421607 -2.21015 -31.5
      vertex -0.695288 -2.13988 -31.5
    endloop
  endfacet
  facet normal 0.844333 0.535819 0
    outer loop
      vertex 10.9538 6.02192 0
      vertex 10.1127 7.34731 -31.5
      vertex 10.1127 7.34731 0
    endloop
  endfacet
  facet normal 0.844333 0.535819 0
    outer loop
      vertex 10.1127 7.34731 -31.5
      vertex 10.9538 6.02192 0
      vertex 10.9538 6.02192 -31.5
    endloop
  endfacet
  facet normal 0.2487 0.96858 -0
    outer loop
      vertex 3.86271 11.8882 -31.5
      vertex 2.34227 12.2786 0
      vertex 3.86271 11.8882 0
    endloop
  endfacet
  facet normal 0.2487 0.96858 0
    outer loop
      vertex 2.34227 12.2786 0
      vertex 3.86271 11.8882 -31.5
      vertex 2.34227 12.2786 -31.5
    endloop
  endfacet
  facet normal 0.368142 0.92977 -0
    outer loop
      vertex 5.32224 11.3103 -31.5
      vertex 3.86271 11.8882 0
      vertex 5.32224 11.3103 0
    endloop
  endfacet
  facet normal 0.368142 0.92977 0
    outer loop
      vertex 3.86271 11.8882 0
      vertex 5.32224 11.3103 -31.5
      vertex 3.86271 11.8882 -31.5
    endloop
  endfacet
  facet normal -0.368142 0.92977 0
    outer loop
      vertex -3.86271 11.8882 -31.5
      vertex -5.32224 11.3103 0
      vertex -3.86271 11.8882 0
    endloop
  endfacet
  facet normal -0.368142 0.92977 0
    outer loop
      vertex -5.32224 11.3103 0
      vertex -3.86271 11.8882 -31.5
      vertex -5.32224 11.3103 -31.5
    endloop
  endfacet
  facet normal -0.90482 0.425795 0
    outer loop
      vertex -11.6222 4.60156 -31.5
      vertex -10.9538 6.02192 0
      vertex -10.9538 6.02192 -31.5
    endloop
  endfacet
  facet normal -0.90482 0.425795 0
    outer loop
      vertex -10.9538 6.02192 0
      vertex -11.6222 4.60156 -31.5
      vertex -11.6222 4.60156 0
    endloop
  endfacet
  facet normal 0.982292 -0.187354 0
    outer loop
      vertex 12.1073 -3.10862 0
      vertex 12.4014 -1.56666 -31.5
      vertex 12.4014 -1.56666 0
    endloop
  endfacet
  facet normal 0.982292 -0.187354 0
    outer loop
      vertex 12.4014 -1.56666 -31.5
      vertex 12.1073 -3.10862 0
      vertex 12.1073 -3.10862 -31.5
    endloop
  endfacet
  facet normal 0.982292 0.187354 0
    outer loop
      vertex 12.4014 1.56666 0
      vertex 12.1073 3.10862 -31.5
      vertex 12.1073 3.10862 0
    endloop
  endfacet
  facet normal 0.982292 0.187354 0
    outer loop
      vertex 12.1073 3.10862 -31.5
      vertex 12.4014 1.56666 0
      vertex 12.4014 1.56666 -31.5
    endloop
  endfacet
  facet normal 0.125306 0.992118 -0
    outer loop
      vertex 2.34227 12.2786 -31.5
      vertex 0.784881 12.4753 0
      vertex 2.34227 12.2786 0
    endloop
  endfacet
  facet normal 0.125306 0.992118 0
    outer loop
      vertex 0.784881 12.4753 0
      vertex 2.34227 12.2786 -31.5
      vertex 0.784881 12.4753 -31.5
    endloop
  endfacet
  facet normal 0.481736 0.876317 -0
    outer loop
      vertex 6.69783 10.5541 -31.5
      vertex 5.32224 11.3103 0
      vertex 6.69783 10.5541 0
    endloop
  endfacet
  facet normal 0.481736 0.876317 0
    outer loop
      vertex 5.32224 11.3103 0
      vertex 6.69783 10.5541 -31.5
      vertex 5.32224 11.3103 -31.5
    endloop
  endfacet
  facet normal -0.77052 0.637416 0
    outer loop
      vertex -10.1127 7.34731 -31.5
      vertex -9.11211 8.55684 0
      vertex -9.11211 8.55684 -31.5
    endloop
  endfacet
  facet normal -0.77052 0.637416 0
    outer loop
      vertex -9.11211 8.55684 0
      vertex -10.1127 7.34731 -31.5
      vertex -10.1127 7.34731 0
    endloop
  endfacet
  facet normal -0.125306 0.992118 0
    outer loop
      vertex -0.784881 12.4753 -31.5
      vertex -2.34227 12.2786 0
      vertex -0.784881 12.4753 0
    endloop
  endfacet
  facet normal -0.125306 0.992118 0
    outer loop
      vertex -2.34227 12.2786 0
      vertex -0.784881 12.4753 -31.5
      vertex -2.34227 12.2786 -31.5
    endloop
  endfacet
  facet normal -0.684548 0.728968 0
    outer loop
      vertex -7.9678 9.63142 -31.5
      vertex -9.11211 8.55684 0
      vertex -7.9678 9.63142 0
    endloop
  endfacet
  facet normal -0.684548 0.728968 0
    outer loop
      vertex -9.11211 8.55684 0
      vertex -7.9678 9.63142 -31.5
      vertex -9.11211 8.55684 -31.5
    endloop
  endfacet
  facet normal 0.998025 0.0628122 0
    outer loop
      vertex 12.5 0 0
      vertex 12.4014 1.56666 -31.5
      vertex 12.4014 1.56666 0
    endloop
  endfacet
  facet normal 0.998025 0.0628122 0
    outer loop
      vertex 12.4014 1.56666 -31.5
      vertex 12.5 0 0
      vertex 12.5 0 -31.5
    endloop
  endfacet
  facet normal 0.481736 -0.876317 0
    outer loop
      vertex 5.32224 -11.3103 -31.5
      vertex 6.69783 -10.5541 0
      vertex 5.32224 -11.3103 0
    endloop
  endfacet
  facet normal 0.481736 -0.876317 0
    outer loop
      vertex 6.69783 -10.5541 0
      vertex 5.32224 -11.3103 -31.5
      vertex 6.69783 -10.5541 -31.5
    endloop
  endfacet
  facet normal 0.684548 0.728968 -0
    outer loop
      vertex 9.11211 8.55684 -31.5
      vertex 7.9678 9.63142 0
      vertex 9.11211 8.55684 0
    endloop
  endfacet
  facet normal 0.684548 0.728968 0
    outer loop
      vertex 7.9678 9.63142 0
      vertex 9.11211 8.55684 -31.5
      vertex 7.9678 9.63142 -31.5
    endloop
  endfacet
  facet normal 0.77052 0.637416 0
    outer loop
      vertex 10.1127 7.34731 0
      vertex 9.11211 8.55684 -31.5
      vertex 9.11211 8.55684 0
    endloop
  endfacet
  facet normal 0.77052 0.637416 0
    outer loop
      vertex 9.11211 8.55684 -31.5
      vertex 10.1127 7.34731 0
      vertex 10.1127 7.34731 -31.5
    endloop
  endfacet
  facet normal 0 1 -0
    outer loop
      vertex 0.784881 12.4753 -31.5
      vertex -0.784881 12.4753 0
      vertex 0.784881 12.4753 0
    endloop
  endfacet
  facet normal 0 1 0
    outer loop
      vertex -0.784881 12.4753 0
      vertex 0.784881 12.4753 -31.5
      vertex -0.784881 12.4753 -31.5
    endloop
  endfacet
  facet normal 0.587782 0.809019 -0
    outer loop
      vertex 7.9678 9.63142 -31.5
      vertex 6.69783 10.5541 0
      vertex 7.9678 9.63142 0
    endloop
  endfacet
  facet normal 0.587782 0.809019 0
    outer loop
      vertex 6.69783 10.5541 0
      vertex 7.9678 9.63142 -31.5
      vertex 6.69783 10.5541 -31.5
    endloop
  endfacet
  facet normal -0.998025 0.0628122 0
    outer loop
      vertex -12.5 0 -31.5
      vertex -12.4014 1.56666 0
      vertex -12.4014 1.56666 -31.5
    endloop
  endfacet
  facet normal -0.998025 0.0628122 0
    outer loop
      vertex -12.4014 1.56666 0
      vertex -12.5 0 -31.5
      vertex -12.5 0 0
    endloop
  endfacet
  facet normal -0.951054 0.309025 0
    outer loop
      vertex -12.1073 3.10862 -31.5
      vertex -11.6222 4.60156 0
      vertex -11.6222 4.60156 -31.5
    endloop
  endfacet
  facet normal -0.951054 0.309025 0
    outer loop
      vertex -11.6222 4.60156 0
      vertex -12.1073 3.10862 -31.5
      vertex -12.1073 3.10862 0
    endloop
  endfacet
  facet normal -0.844333 0.535819 0
    outer loop
      vertex -10.9538 6.02192 -31.5
      vertex -10.1127 7.34731 0
      vertex -10.1127 7.34731 -31.5
    endloop
  endfacet
  facet normal -0.844333 0.535819 0
    outer loop
      vertex -10.1127 7.34731 0
      vertex -10.9538 6.02192 -31.5
      vertex -10.9538 6.02192 0
    endloop
  endfacet
  facet normal -0.2487 0.96858 0
    outer loop
      vertex -2.34227 12.2786 -31.5
      vertex -3.86271 11.8882 0
      vertex -2.34227 12.2786 0
    endloop
  endfacet
  facet normal -0.2487 0.96858 0
    outer loop
      vertex -3.86271 11.8882 0
      vertex -2.34227 12.2786 -31.5
      vertex -3.86271 11.8882 -31.5
    endloop
  endfacet
  facet normal -0.587782 0.809019 0
    outer loop
      vertex -6.69783 10.5541 -31.5
      vertex -7.9678 9.63142 0
      vertex -6.69783 10.5541 0
    endloop
  endfacet
  facet normal -0.587782 0.809019 0
    outer loop
      vertex -7.9678 9.63142 0
      vertex -6.69783 10.5541 -31.5
      vertex -7.9678 9.63142 -31.5
    endloop
  endfacet
  facet normal -0.481736 0.876317 0
    outer loop
      vertex -5.32224 11.3103 -31.5
      vertex -6.69783 10.5541 0
      vertex -5.32224 11.3103 0
    endloop
  endfacet
  facet normal -0.481736 0.876317 0
    outer loop
      vertex -6.69783 10.5541 0
      vertex -5.32224 11.3103 -31.5
      vertex -6.69783 10.5541 -31.5
    endloop
  endfacet
  facet normal 0.998025 -0.0628122 0
    outer loop
      vertex 12.4014 -1.56666 0
      vertex 12.5 0 -31.5
      vertex 12.5 0 0
    endloop
  endfacet
  facet normal 0.998025 -0.0628122 0
    outer loop
      vertex 12.5 0 -31.5
      vertex 12.4014 -1.56666 0
      vertex 12.4014 -1.56666 -31.5
    endloop
  endfacet
  facet normal -0.90482 -0.425795 0
    outer loop
      vertex -10.9538 -6.02192 -31.5
      vertex -11.6222 -4.60156 0
      vertex -11.6222 -4.60156 -31.5
    endloop
  endfacet
  facet normal -0.90482 -0.425795 0
    outer loop
      vertex -11.6222 -4.60156 0
      vertex -10.9538 -6.02192 -31.5
      vertex -10.9538 -6.02192 0
    endloop
  endfacet
  facet normal 0.125306 -0.992118 0
    outer loop
      vertex 0.784881 -12.4753 -31.5
      vertex 2.34227 -12.2786 0
      vertex 0.784881 -12.4753 0
    endloop
  endfacet
  facet normal 0.125306 -0.992118 0
    outer loop
      vertex 2.34227 -12.2786 0
      vertex 0.784881 -12.4753 -31.5
      vertex 2.34227 -12.2786 -31.5
    endloop
  endfacet
  facet normal 0.368142 -0.92977 0
    outer loop
      vertex 3.86271 -11.8882 -31.5
      vertex 5.32224 -11.3103 0
      vertex 3.86271 -11.8882 0
    endloop
  endfacet
  facet normal 0.368142 -0.92977 0
    outer loop
      vertex 5.32224 -11.3103 0
      vertex 3.86271 -11.8882 -31.5
      vertex 5.32224 -11.3103 -31.5
    endloop
  endfacet
  facet normal 0.90482 0.425795 0
    outer loop
      vertex 11.6222 4.60156 0
      vertex 10.9538 6.02192 -31.5
      vertex 10.9538 6.02192 0
    endloop
  endfacet
  facet normal 0.90482 0.425795 0
    outer loop
      vertex 10.9538 6.02192 -31.5
      vertex 11.6222 4.60156 0
      vertex 11.6222 4.60156 -31.5
    endloop
  endfacet
  facet normal 0.951054 0.309025 0
    outer loop
      vertex 12.1073 3.10862 0
      vertex 11.6222 4.60156 -31.5
      vertex 11.6222 4.60156 0
    endloop
  endfacet
  facet normal 0.951054 0.309025 0
    outer loop
      vertex 11.6222 4.60156 -31.5
      vertex 12.1073 3.10862 0
      vertex 12.1073 3.10862 -31.5
    endloop
  endfacet
  facet normal -0.982292 0.187354 0
    outer loop
      vertex -12.4014 1.56666 -31.5
      vertex -12.1073 3.10862 0
      vertex -12.1073 3.10862 -31.5
    endloop
  endfacet
  facet normal -0.982292 0.187354 0
    outer loop
      vertex -12.1073 3.10862 0
      vertex -12.4014 1.56666 -31.5
      vertex -12.4014 1.56666 0
    endloop
  endfacet
  facet normal 0.90482 -0.425795 0
    outer loop
      vertex 10.9538 -6.02192 0
      vertex 11.6222 -4.60156 -31.5
      vertex 11.6222 -4.60156 0
    endloop
  endfacet
  facet normal 0.90482 -0.425795 0
    outer loop
      vertex 11.6222 -4.60156 -31.5
      vertex 10.9538 -6.02192 0
      vertex 10.9538 -6.02192 -31.5
    endloop
  endfacet
  facet normal 0.951054 -0.309025 0
    outer loop
      vertex 11.6222 -4.60156 0
      vertex 12.1073 -3.10862 -31.5
      vertex 12.1073 -3.10862 0
    endloop
  endfacet
  facet normal 0.951054 -0.309025 0
    outer loop
      vertex 12.1073 -3.10862 -31.5
      vertex 11.6222 -4.60156 0
      vertex 11.6222 -4.60156 -31.5
    endloop
  endfacet
  facet normal 0.684548 -0.728968 0
    outer loop
      vertex 7.9678 -9.63142 -31.5
      vertex 9.11211 -8.55684 0
      vertex 7.9678 -9.63142 0
    endloop
  endfacet
  facet normal 0.684548 -0.728968 0
    outer loop
      vertex 9.11211 -8.55684 0
      vertex 7.9678 -9.63142 -31.5
      vertex 9.11211 -8.55684 -31.5
    endloop
  endfacet
  facet normal 0.844333 -0.535819 0
    outer loop
      vertex 10.1127 -7.34731 0
      vertex 10.9538 -6.02192 -31.5
      vertex 10.9538 -6.02192 0
    endloop
  endfacet
  facet normal 0.844333 -0.535819 0
    outer loop
      vertex 10.9538 -6.02192 -31.5
      vertex 10.1127 -7.34731 0
      vertex 10.1127 -7.34731 -31.5
    endloop
  endfacet
  facet normal -0.998025 -0.0628122 0
    outer loop
      vertex -12.4014 -1.56666 -31.5
      vertex -12.5 0 0
      vertex -12.5 0 -31.5
    endloop
  endfacet
  facet normal -0.998025 -0.0628122 0
    outer loop
      vertex -12.5 0 0
      vertex -12.4014 -1.56666 -31.5
      vertex -12.4014 -1.56666 0
    endloop
  endfacet
  facet normal -0.951054 -0.309025 0
    outer loop
      vertex -11.6222 -4.60156 -31.5
      vertex -12.1073 -3.10862 0
      vertex -12.1073 -3.10862 -31.5
    endloop
  endfacet
  facet normal -0.951054 -0.309025 0
    outer loop
      vertex -12.1073 -3.10862 0
      vertex -11.6222 -4.60156 -31.5
      vertex -11.6222 -4.60156 0
    endloop
  endfacet
  facet normal 0.2487 -0.96858 0
    outer loop
      vertex 2.34227 -12.2786 -31.5
      vertex 3.86271 -11.8882 0
      vertex 2.34227 -12.2786 0
    endloop
  endfacet
  facet normal 0.2487 -0.96858 0
    outer loop
      vertex 3.86271 -11.8882 0
      vertex 2.34227 -12.2786 -31.5
      vertex 3.86271 -11.8882 -31.5
    endloop
  endfacet
  facet normal 0.587782 -0.809019 0
    outer loop
      vertex 6.69783 -10.5541 -31.5
      vertex 7.9678 -9.63142 0
      vertex 6.69783 -10.5541 0
    endloop
  endfacet
  facet normal 0.587782 -0.809019 0
    outer loop
      vertex 7.9678 -9.63142 0
      vertex 6.69783 -10.5541 -31.5
      vertex 7.9678 -9.63142 -31.5
    endloop
  endfacet
  facet normal 0.77052 -0.637416 0
    outer loop
      vertex 9.11211 -8.55684 0
      vertex 10.1127 -7.34731 -31.5
      vertex 10.1127 -7.34731 0
    endloop
  endfacet
  facet normal 0.77052 -0.637416 0
    outer loop
      vertex 10.1127 -7.34731 -31.5
      vertex 9.11211 -8.55684 0
      vertex 9.11211 -8.55684 -31.5
    endloop
  endfacet
  facet normal -0.368142 -0.92977 0
    outer loop
      vertex -5.32224 -11.3103 -31.5
      vertex -3.86271 -11.8882 0
      vertex -5.32224 -11.3103 0
    endloop
  endfacet
  facet normal -0.368142 -0.92977 -0
    outer loop
      vertex -3.86271 -11.8882 0
      vertex -5.32224 -11.3103 -31.5
      vertex -3.86271 -11.8882 -31.5
    endloop
  endfacet
  facet normal 0 -1 0
    outer loop
      vertex -0.784881 -12.4753 -31.5
      vertex 0.784881 -12.4753 0
      vertex -0.784881 -12.4753 0
    endloop
  endfacet
  facet normal 0 -1 -0
    outer loop
      vertex 0.784881 -12.4753 0
      vertex -0.784881 -12.4753 -31.5
      vertex 0.784881 -12.4753 -31.5
    endloop
  endfacet
  facet normal -0.125306 -0.992118 0
    outer loop
      vertex -2.34227 -12.2786 -31.5
      vertex -0.784881 -12.4753 0
      vertex -2.34227 -12.2786 0
    endloop
  endfacet
  facet normal -0.125306 -0.992118 -0
    outer loop
      vertex -0.784881 -12.4753 0
      vertex -2.34227 -12.2786 -31.5
      vertex -0.784881 -12.4753 -31.5
    endloop
  endfacet
  facet normal -0.77052 -0.637416 0
    outer loop
      vertex -9.11211 -8.55684 -31.5
      vertex -10.1127 -7.34731 0
      vertex -10.1127 -7.34731 -31.5
    endloop
  endfacet
  facet normal -0.77052 -0.637416 0
    outer loop
      vertex -10.1127 -7.34731 0
      vertex -9.11211 -8.55684 -31.5
      vertex -9.11211 -8.55684 0
    endloop
  endfacet
  facet normal -0.684548 -0.728968 0
    outer loop
      vertex -9.11211 -8.55684 -31.5
      vertex -7.9678 -9.63142 0
      vertex -9.11211 -8.55684 0
    endloop
  endfacet
  facet normal -0.684548 -0.728968 -0
    outer loop
      vertex -7.9678 -9.63142 0
      vertex -9.11211 -8.55684 -31.5
      vertex -7.9678 -9.63142 -31.5
    endloop
  endfacet
  facet normal 0 0 -1
    outer loop
      vertex 2.25 0 -31.5
      vertex 12.5 0 -31.5
      vertex 12.4014 -1.56666 -31.5
    endloop
  endfacet
  facet normal 0 0 -1
    outer loop
      vertex 2.23226 -0.282 -31.5
      vertex 12.4014 -1.56666 -31.5
      vertex 12.1073 -3.10862 -31.5
    endloop
  endfacet
  facet normal 0 0 -1
    outer loop
      vertex 12.5 0 -31.5
      vertex 2.25 0 -31.5
      vertex 12.4014 1.56666 -31.5
    endloop
  endfacet
  facet normal 0 0 -1
    outer loop
      vertex 2.17931 -0.559552 -31.5
      vertex 12.1073 -3.10862 -31.5
      vertex 11.6222 -4.60156 -31.5
    endloop
  endfacet
  facet normal 0 0 -1
    outer loop
      vertex 2.23226 0.282 -31.5
      vertex 12.4014 1.56666 -31.5
      vertex 2.25 0 -31.5
    endloop
  endfacet
  facet normal 0 0 -1
    outer loop
      vertex 2.092 -0.828279 -31.5
      vertex 11.6222 -4.60156 -31.5
      vertex 10.9538 -6.02192 -31.5
    endloop
  endfacet
  facet normal -0 0 -1
    outer loop
      vertex 12.4014 1.56666 -31.5
      vertex 2.23226 0.282 -31.5
      vertex 12.1073 3.10862 -31.5
    endloop
  endfacet
  facet normal 0 0 -1
    outer loop
      vertex 1.97169 -1.08395 -31.5
      vertex 10.9538 -6.02192 -31.5
      vertex 10.1127 -7.34731 -31.5
    endloop
  endfacet
  facet normal 0 0 -1
    outer loop
      vertex 2.17931 0.559552 -31.5
      vertex 12.1073 3.10862 -31.5
      vertex 2.23226 0.282 -31.5
    endloop
  endfacet
  facet normal 0 0 -1
    outer loop
      vertex 1.82029 -1.32252 -31.5
      vertex 10.1127 -7.34731 -31.5
      vertex 9.11211 -8.55684 -31.5
    endloop
  endfacet
  facet normal -0 0 -1
    outer loop
      vertex 12.1073 3.10862 -31.5
      vertex 2.17931 0.559552 -31.5
      vertex 11.6222 4.60156 -31.5
    endloop
  endfacet
  facet normal 0 0 -1
    outer loop
      vertex 1.64018 -1.54023 -31.5
      vertex 9.11211 -8.55684 -31.5
      vertex 7.9678 -9.63142 -31.5
    endloop
  endfacet
  facet normal 0 0 -1
    outer loop
      vertex 2.092 0.828279 -31.5
      vertex 11.6222 4.60156 -31.5
      vertex 2.17931 0.559552 -31.5
    endloop
  endfacet
  facet normal 0 0 -1
    outer loop
      vertex 1.4342 -1.73365 -31.5
      vertex 7.9678 -9.63142 -31.5
      vertex 6.69783 -10.5541 -31.5
    endloop
  endfacet
  facet normal -0 0 -1
    outer loop
      vertex 11.6222 4.60156 -31.5
      vertex 2.092 0.828279 -31.5
      vertex 10.9538 6.02192 -31.5
    endloop
  endfacet
  facet normal 0 0 -1
    outer loop
      vertex 1.20561 -1.89974 -31.5
      vertex 6.69783 -10.5541 -31.5
      vertex 5.32224 -11.3103 -31.5
    endloop
  endfacet
  facet normal 0 0 -1
    outer loop
      vertex 1.97169 1.08395 -31.5
      vertex 10.9538 6.02192 -31.5
      vertex 2.092 0.828279 -31.5
    endloop
  endfacet
  facet normal 0 0 -1
    outer loop
      vertex 0.958003 -2.03586 -31.5
      vertex 5.32224 -11.3103 -31.5
      vertex 3.86271 -11.8882 -31.5
    endloop
  endfacet
  facet normal -0 0 -1
    outer loop
      vertex 10.9538 6.02192 -31.5
      vertex 1.97169 1.08395 -31.5
      vertex 10.1127 7.34731 -31.5
    endloop
  endfacet
  facet normal 0 0 -1
    outer loop
      vertex 0.695288 -2.13988 -31.5
      vertex 3.86271 -11.8882 -31.5
      vertex 2.34227 -12.2786 -31.5
    endloop
  endfacet
  facet normal 0 0 -1
    outer loop
      vertex 1.82029 1.32252 -31.5
      vertex 10.1127 7.34731 -31.5
      vertex 1.97169 1.08395 -31.5
    endloop
  endfacet
  facet normal -0 0 -1
    outer loop
      vertex 10.1127 7.34731 -31.5
      vertex 1.82029 1.32252 -31.5
      vertex 9.11211 8.55684 -31.5
    endloop
  endfacet
  facet normal 0 0 -1
    outer loop
      vertex 12.4014 -1.56666 -31.5
      vertex 2.23226 -0.282 -31.5
      vertex 2.25 0 -31.5
    endloop
  endfacet
  facet normal 0 0 -1
    outer loop
      vertex 12.1073 -3.10862 -31.5
      vertex 2.17931 -0.559552 -31.5
      vertex 2.23226 -0.282 -31.5
    endloop
  endfacet
  facet normal 0 0 -1
    outer loop
      vertex 11.6222 -4.60156 -31.5
      vertex 2.092 -0.828279 -31.5
      vertex 2.17931 -0.559552 -31.5
    endloop
  endfacet
  facet normal 0 0 -1
    outer loop
      vertex 10.9538 -6.02192 -31.5
      vertex 1.97169 -1.08395 -31.5
      vertex 2.092 -0.828279 -31.5
    endloop
  endfacet
  facet normal 0 0 -1
    outer loop
      vertex 10.1127 -7.34731 -31.5
      vertex 1.82029 -1.32252 -31.5
      vertex 1.97169 -1.08395 -31.5
    endloop
  endfacet
  facet normal 0 0 -1
    outer loop
      vertex 9.11211 -8.55684 -31.5
      vertex 1.64018 -1.54023 -31.5
      vertex 1.82029 -1.32252 -31.5
    endloop
  endfacet
  facet normal 0 0 -1
    outer loop
      vertex 7.9678 -9.63142 -31.5
      vertex 1.4342 -1.73365 -31.5
      vertex 1.64018 -1.54023 -31.5
    endloop
  endfacet
  facet normal 0 0 -1
    outer loop
      vertex 6.69783 -10.5541 -31.5
      vertex 1.20561 -1.89974 -31.5
      vertex 1.4342 -1.73365 -31.5
    endloop
  endfacet
  facet normal 0 0 -1
    outer loop
      vertex 5.32224 -11.3103 -31.5
      vertex 0.958003 -2.03586 -31.5
      vertex 1.20561 -1.89974 -31.5
    endloop
  endfacet
  facet normal 0 0 -1
    outer loop
      vertex 0.421607 -2.21015 -31.5
      vertex 2.34227 -12.2786 -31.5
      vertex 0.784881 -12.4753 -31.5
    endloop
  endfacet
  facet normal 0 0 -1
    outer loop
      vertex 3.86271 -11.8882 -31.5
      vertex 0.695288 -2.13988 -31.5
      vertex 0.958003 -2.03586 -31.5
    endloop
  endfacet
  facet normal 0 0 -1
    outer loop
      vertex 2.34227 -12.2786 -31.5
      vertex 0.421607 -2.21015 -31.5
      vertex 0.695288 -2.13988 -31.5
    endloop
  endfacet
  facet normal 0 0 -1
    outer loop
      vertex 0.784881 -12.4753 -31.5
      vertex 0.141278 -2.24556 -31.5
      vertex 0.421607 -2.21015 -31.5
    endloop
  endfacet
  facet normal 0 0 -1
    outer loop
      vertex 0.784881 -12.4753 -31.5
      vertex -0.141278 -2.24556 -31.5
      vertex 0.141278 -2.24556 -31.5
    endloop
  endfacet
  facet normal 0 0 -1
    outer loop
      vertex -0.784881 -12.4753 -31.5
      vertex -0.141278 -2.24556 -31.5
      vertex 0.784881 -12.4753 -31.5
    endloop
  endfacet
  facet normal -0 0 -1
    outer loop
      vertex -0.141278 -2.24556 -31.5
      vertex -0.784881 -12.4753 -31.5
      vertex -0.421607 -2.21015 -31.5
    endloop
  endfacet
  facet normal 0 0 -1
    outer loop
      vertex -2.34227 -12.2786 -31.5
      vertex -0.421607 -2.21015 -31.5
      vertex -0.784881 -12.4753 -31.5
    endloop
  endfacet
  facet normal -0 0 -1
    outer loop
      vertex -0.421607 -2.21015 -31.5
      vertex -2.34227 -12.2786 -31.5
      vertex -0.695288 -2.13988 -31.5
    endloop
  endfacet
  facet normal 0 0 -1
    outer loop
      vertex -3.86271 -11.8882 -31.5
      vertex -0.695288 -2.13988 -31.5
      vertex -2.34227 -12.2786 -31.5
    endloop
  endfacet
  facet normal -0 0 -1
    outer loop
      vertex -0.695288 -2.13988 -31.5
      vertex -3.86271 -11.8882 -31.5
      vertex -0.958003 -2.03586 -31.5
    endloop
  endfacet
  facet normal 0 0 -1
    outer loop
      vertex -5.32224 -11.3103 -31.5
      vertex -0.958003 -2.03586 -31.5
      vertex -3.86271 -11.8882 -31.5
    endloop
  endfacet
  facet normal -0 0 -1
    outer loop
      vertex -0.958003 -2.03586 -31.5
      vertex -5.32224 -11.3103 -31.5
      vertex -1.20561 -1.89974 -31.5
    endloop
  endfacet
  facet normal 0 0 -1
    outer loop
      vertex -6.69783 -10.5541 -31.5
      vertex -1.20561 -1.89974 -31.5
      vertex -5.32224 -11.3103 -31.5
    endloop
  endfacet
  facet normal -0 0 -1
    outer loop
      vertex -1.20561 -1.89974 -31.5
      vertex -6.69783 -10.5541 -31.5
      vertex -1.4342 -1.73365 -31.5
    endloop
  endfacet
  facet normal 0 0 -1
    outer loop
      vertex -7.9678 -9.63142 -31.5
      vertex -1.4342 -1.73365 -31.5
      vertex -6.69783 -10.5541 -31.5
    endloop
  endfacet
  facet normal -0 0 -1
    outer loop
      vertex -1.4342 -1.73365 -31.5
      vertex -7.9678 -9.63142 -31.5
      vertex -1.64018 -1.54023 -31.5
    endloop
  endfacet
  facet normal -0 0 -1
    outer loop
      vertex -1.64018 -1.54023 -31.5
      vertex -9.11211 -8.55684 -31.5
      vertex -1.82029 -1.32252 -31.5
    endloop
  endfacet
  facet normal 0 0 -1
    outer loop
      vertex -9.11211 -8.55684 -31.5
      vertex -1.64018 -1.54023 -31.5
      vertex -7.9678 -9.63142 -31.5
    endloop
  endfacet
  facet normal 0 0 -1
    outer loop
      vertex 1.64018 1.54023 -31.5
      vertex 9.11211 8.55684 -31.5
      vertex 1.82029 1.32252 -31.5
    endloop
  endfacet
  facet normal -0 0 -1
    outer loop
      vertex 9.11211 8.55684 -31.5
      vertex 1.64018 1.54023 -31.5
      vertex 7.9678 9.63142 -31.5
    endloop
  endfacet
  facet normal 0 0 -1
    outer loop
      vertex 1.4342 1.73365 -31.5
      vertex 7.9678 9.63142 -31.5
      vertex 1.64018 1.54023 -31.5
    endloop
  endfacet
  facet normal -0 0 -1
    outer loop
      vertex 7.9678 9.63142 -31.5
      vertex 1.4342 1.73365 -31.5
      vertex 6.69783 10.5541 -31.5
    endloop
  endfacet
  facet normal 0 0 -1
    outer loop
      vertex 1.20561 1.89974 -31.5
      vertex 6.69783 10.5541 -31.5
      vertex 1.4342 1.73365 -31.5
    endloop
  endfacet
  facet normal -0 0 -1
    outer loop
      vertex 6.69783 10.5541 -31.5
      vertex 1.20561 1.89974 -31.5
      vertex 5.32224 11.3103 -31.5
    endloop
  endfacet
  facet normal 0 0 -1
    outer loop
      vertex 0.958003 2.03586 -31.5
      vertex 5.32224 11.3103 -31.5
      vertex 1.20561 1.89974 -31.5
    endloop
  endfacet
  facet normal -0 0 -1
    outer loop
      vertex 5.32224 11.3103 -31.5
      vertex 0.958003 2.03586 -31.5
      vertex 3.86271 11.8882 -31.5
    endloop
  endfacet
  facet normal 0 0 -1
    outer loop
      vertex 0.695288 2.13988 -31.5
      vertex 3.86271 11.8882 -31.5
      vertex 0.958003 2.03586 -31.5
    endloop
  endfacet
  facet normal -0 0 -1
    outer loop
      vertex 3.86271 11.8882 -31.5
      vertex 0.695288 2.13988 -31.5
      vertex 2.34227 12.2786 -31.5
    endloop
  endfacet
  facet normal 0 0 -1
    outer loop
      vertex 0.421607 2.21015 -31.5
      vertex 2.34227 12.2786 -31.5
      vertex 0.695288 2.13988 -31.5
    endloop
  endfacet
  facet normal -0 0 -1
    outer loop
      vertex 2.34227 12.2786 -31.5
      vertex 0.421607 2.21015 -31.5
      vertex 0.784881 12.4753 -31.5
    endloop
  endfacet
  facet normal 0 0 -1
    outer loop
      vertex 0.141278 2.24556 -31.5
      vertex 0.784881 12.4753 -31.5
      vertex 0.421607 2.21015 -31.5
    endloop
  endfacet
  facet normal 0 0 -1
    outer loop
      vertex -0.141278 2.24556 -31.5
      vertex 0.784881 12.4753 -31.5
      vertex 0.141278 2.24556 -31.5
    endloop
  endfacet
  facet normal 0 0 -1
    outer loop
      vertex -0.784881 12.4753 -31.5
      vertex -0.141278 2.24556 -31.5
      vertex -0.421607 2.21015 -31.5
    endloop
  endfacet
  facet normal 0 0 -1
    outer loop
      vertex -2.34227 12.2786 -31.5
      vertex -0.421607 2.21015 -31.5
      vertex -0.695288 2.13988 -31.5
    endloop
  endfacet
  facet normal 0 0 -1
    outer loop
      vertex -0.141278 2.24556 -31.5
      vertex -0.784881 12.4753 -31.5
      vertex 0.784881 12.4753 -31.5
    endloop
  endfacet
  facet normal 0 0 -1
    outer loop
      vertex -3.86271 11.8882 -31.5
      vertex -0.695288 2.13988 -31.5
      vertex -0.958003 2.03586 -31.5
    endloop
  endfacet
  facet normal 0 0 -1
    outer loop
      vertex -5.32224 11.3103 -31.5
      vertex -0.958003 2.03586 -31.5
      vertex -1.20561 1.89974 -31.5
    endloop
  endfacet
  facet normal 0 0 -1
    outer loop
      vertex -6.69783 10.5541 -31.5
      vertex -1.20561 1.89974 -31.5
      vertex -1.4342 1.73365 -31.5
    endloop
  endfacet
  facet normal 0 0 -1
    outer loop
      vertex -7.9678 9.63142 -31.5
      vertex -1.4342 1.73365 -31.5
      vertex -1.64018 1.54023 -31.5
    endloop
  endfacet
  facet normal 0 0 -1
    outer loop
      vertex -9.11211 8.55684 -31.5
      vertex -1.64018 1.54023 -31.5
      vertex -1.82029 1.32252 -31.5
    endloop
  endfacet
  facet normal 0 0 -1
    outer loop
      vertex -10.1127 7.34731 -31.5
      vertex -1.82029 1.32252 -31.5
      vertex -1.97169 1.08395 -31.5
    endloop
  endfacet
  facet normal 0 0 -1
    outer loop
      vertex -10.9538 6.02192 -31.5
      vertex -1.97169 1.08395 -31.5
      vertex -2.092 0.828279 -31.5
    endloop
  endfacet
  facet normal 0 0 -1
    outer loop
      vertex -11.6222 4.60156 -31.5
      vertex -2.092 0.828279 -31.5
      vertex -2.17931 0.559552 -31.5
    endloop
  endfacet
  facet normal 0 0 -1
    outer loop
      vertex -12.1073 3.10862 -31.5
      vertex -2.17931 0.559552 -31.5
      vertex -2.23226 0.282 -31.5
    endloop
  endfacet
  facet normal 0 0 -1
    outer loop
      vertex -0.421607 2.21015 -31.5
      vertex -2.34227 12.2786 -31.5
      vertex -0.784881 12.4753 -31.5
    endloop
  endfacet
  facet normal 0 0 -1
    outer loop
      vertex -12.4014 1.56666 -31.5
      vertex -2.23226 0.282 -31.5
      vertex -2.25 0 -31.5
    endloop
  endfacet
  facet normal 0 0 -1
    outer loop
      vertex -10.1127 -7.34731 -31.5
      vertex -1.82029 -1.32252 -31.5
      vertex -9.11211 -8.55684 -31.5
    endloop
  endfacet
  facet normal -0 0 -1
    outer loop
      vertex -1.82029 -1.32252 -31.5
      vertex -10.1127 -7.34731 -31.5
      vertex -1.97169 -1.08395 -31.5
    endloop
  endfacet
  facet normal 0 0 -1
    outer loop
      vertex -0.695288 2.13988 -31.5
      vertex -3.86271 11.8882 -31.5
      vertex -2.34227 12.2786 -31.5
    endloop
  endfacet
  facet normal 0 0 -1
    outer loop
      vertex -10.9538 -6.02192 -31.5
      vertex -1.97169 -1.08395 -31.5
      vertex -10.1127 -7.34731 -31.5
    endloop
  endfacet
  facet normal 0 0 -1
    outer loop
      vertex -0.958003 2.03586 -31.5
      vertex -5.32224 11.3103 -31.5
      vertex -3.86271 11.8882 -31.5
    endloop
  endfacet
  facet normal -0 0 -1
    outer loop
      vertex -1.97169 -1.08395 -31.5
      vertex -10.9538 -6.02192 -31.5
      vertex -2.092 -0.828279 -31.5
    endloop
  endfacet
  facet normal 0 0 -1
    outer loop
      vertex -1.20561 1.89974 -31.5
      vertex -6.69783 10.5541 -31.5
      vertex -5.32224 11.3103 -31.5
    endloop
  endfacet
  facet normal 0 0 -1
    outer loop
      vertex -11.6222 -4.60156 -31.5
      vertex -2.092 -0.828279 -31.5
      vertex -10.9538 -6.02192 -31.5
    endloop
  endfacet
  facet normal 0 0 -1
    outer loop
      vertex -1.4342 1.73365 -31.5
      vertex -7.9678 9.63142 -31.5
      vertex -6.69783 10.5541 -31.5
    endloop
  endfacet
  facet normal -0 0 -1
    outer loop
      vertex -2.092 -0.828279 -31.5
      vertex -11.6222 -4.60156 -31.5
      vertex -2.17931 -0.559552 -31.5
    endloop
  endfacet
  facet normal 0 0 -1
    outer loop
      vertex -1.64018 1.54023 -31.5
      vertex -9.11211 8.55684 -31.5
      vertex -7.9678 9.63142 -31.5
    endloop
  endfacet
  facet normal 0 0 -1
    outer loop
      vertex -12.1073 -3.10862 -31.5
      vertex -2.17931 -0.559552 -31.5
      vertex -11.6222 -4.60156 -31.5
    endloop
  endfacet
  facet normal 0 0 -1
    outer loop
      vertex -1.82029 1.32252 -31.5
      vertex -10.1127 7.34731 -31.5
      vertex -9.11211 8.55684 -31.5
    endloop
  endfacet
  facet normal -0 0 -1
    outer loop
      vertex -2.17931 -0.559552 -31.5
      vertex -12.1073 -3.10862 -31.5
      vertex -2.23226 -0.282 -31.5
    endloop
  endfacet
  facet normal 0 0 -1
    outer loop
      vertex -1.97169 1.08395 -31.5
      vertex -10.9538 6.02192 -31.5
      vertex -10.1127 7.34731 -31.5
    endloop
  endfacet
  facet normal 0 0 -1
    outer loop
      vertex -12.4014 -1.56666 -31.5
      vertex -2.23226 -0.282 -31.5
      vertex -12.1073 -3.10862 -31.5
    endloop
  endfacet
  facet normal 0 0 -1
    outer loop
      vertex -2.092 0.828279 -31.5
      vertex -11.6222 4.60156 -31.5
      vertex -10.9538 6.02192 -31.5
    endloop
  endfacet
  facet normal -0 0 -1
    outer loop
      vertex -2.23226 -0.282 -31.5
      vertex -12.4014 -1.56666 -31.5
      vertex -2.25 0 -31.5
    endloop
  endfacet
  facet normal 0 0 -1
    outer loop
      vertex -2.17931 0.559552 -31.5
      vertex -12.1073 3.10862 -31.5
      vertex -11.6222 4.60156 -31.5
    endloop
  endfacet
  facet normal 0 0 -1
    outer loop
      vertex -12.5 0 -31.5
      vertex -2.25 0 -31.5
      vertex -12.4014 -1.56666 -31.5
    endloop
  endfacet
  facet normal 0 0 -1
    outer loop
      vertex -2.23226 0.282 -31.5
      vertex -12.4014 1.56666 -31.5
      vertex -12.1073 3.10862 -31.5
    endloop
  endfacet
  facet normal 0 0 -1
    outer loop
      vertex -2.25 0 -31.5
      vertex -12.5 0 -31.5
      vertex -12.4014 1.56666 -31.5
    endloop
  endfacet
  facet normal -0.982292 -0.187354 0
    outer loop
      vertex -12.1073 -3.10862 -31.5
      vertex -12.4014 -1.56666 0
      vertex -12.4014 -1.56666 -31.5
    endloop
  endfacet
  facet normal -0.982292 -0.187354 0
    outer loop
      vertex -12.4014 -1.56666 0
      vertex -12.1073 -3.10862 -31.5
      vertex -12.1073 -3.10862 0
    endloop
  endfacet
  facet normal -0.2487 -0.96858 0
    outer loop
      vertex -3.86271 -11.8882 -31.5
      vertex -2.34227 -12.2786 0
      vertex -3.86271 -11.8882 0
    endloop
  endfacet
  facet normal -0.2487 -0.96858 -0
    outer loop
      vertex -2.34227 -12.2786 0
      vertex -3.86271 -11.8882 -31.5
      vertex -2.34227 -12.2786 -31.5
    endloop
  endfacet
  facet normal -0.844333 -0.535819 0
    outer loop
      vertex -10.1127 -7.34731 -31.5
      vertex -10.9538 -6.02192 0
      vertex -10.9538 -6.02192 -31.5
    endloop
  endfacet
  facet normal -0.844333 -0.535819 0
    outer loop
      vertex -10.9538 -6.02192 0
      vertex -10.1127 -7.34731 -31.5
      vertex -10.1127 -7.34731 0
    endloop
  endfacet
  facet normal -0.481736 -0.876317 0
    outer loop
      vertex -6.69783 -10.5541 -31.5
      vertex -5.32224 -11.3103 0
      vertex -6.69783 -10.5541 0
    endloop
  endfacet
  facet normal -0.481736 -0.876317 -0
    outer loop
      vertex -5.32224 -11.3103 0
      vertex -6.69783 -10.5541 -31.5
      vertex -5.32224 -11.3103 -31.5
    endloop
  endfacet
  facet normal -0.587782 -0.809019 0
    outer loop
      vertex -7.9678 -9.63142 -31.5
      vertex -6.69783 -10.5541 0
      vertex -7.9678 -9.63142 0
    endloop
  endfacet
  facet normal -0.587782 -0.809019 -0
    outer loop
      vertex -6.69783 -10.5541 0
      vertex -7.9678 -9.63142 -31.5
      vertex -6.69783 -10.5541 -31.5
    endloop
  endfacet
endsolid OpenSCAD_Model
