solid OpenSCAD_Model
  facet normal 0.4577666234205006 0.028800234792327243 0.8886057984045009
    outer loop
      vertex -1.3393548467745453 -0.1691998653118105 -0.85
      vertex -1.35 0 -0.85
      vertex -2.9763441039434335 -0.3759997006929122 0
    endloop
  endfacet
  facet normal 0.057486808215506 0.4550549438508422 0.8886057984045008
    outer loop
      vertex -0.08476720136457358 -1.3473360833781667 -0.85
      vertex -0.25296477469072853 -1.3260877884837297 -0.85
      vertex -0.1883715585879413 -2.9940801852848145 0
    endloop
  endfacet
  facet normal 0.35341262453133093 0.29236834962727426 0.8886057984045009
    outer loop
      vertex -0.9841076470189059 -0.9241385930037296 -0.85
      vertex -1.0921729424061792 -0.7935100905948388 -0.85
      vertex -2.186905882264235 -2.0536413177860657 0
    endloop
  endfacet
  facet normal 0.3872693310783129 0.2457685908493103 0.8886057984045009
    outer loop
      vertex -1.0921729424061792 -0.7935100905948388 -0.85
      vertex -1.1830140180592157 -0.6503674600373158 -0.85
      vertex -2.4270509831248424 -1.7633557568774194 0
    endloop
  endfacet
  facet normal 0.3139823897770219 0.3343572848792288 0.8886057984045009
    outer loop
      vertex -0.8605223861607311 -1.0401928777473157 -0.85
      vertex -0.9841076470189059 -0.9241385930037296 -0.85
      vertex -1.9122719692460688 -2.311539728327368 0
    endloop
  endfacet
  facet normal 0.26960046517194053 0.3710732060132782 0.8886057984045008
    outer loop
      vertex -1.6074803849369903 -2.532983776506045 0
      vertex -0.7233661732216456 -1.1398426994277202 -0.85
      vertex -0.8605223861607311 -1.0401928777473157 -0.85
    endloop
  endfacet
  facet normal 0.41501856893070405 0.1952929145786143 0.8886057984045009
    outer loop
      vertex -1.2551982559491395 -0.49696814612431517 -0.85
      vertex -2.6289200401315904 -1.445261022305146 0
      vertex -1.1830140180592157 -0.6503674600373158 -0.85
    endloop
  endfacet
  facet normal 0.4362227160309828 0.1417373523826801 0.8886057984045009
    outer loop
      vertex -1.2551982559491395 -0.49696814612431517 -0.85
      vertex -1.307587267523652 -0.3357313476725541 -0.85
      vertex -2.7893294576647545 -1.1043736580540335 0
    endloop
  endfacet
  facet normal 0.45054737031263326 0.08594650746988199 0.8886057984045008
    outer loop
      vertex -1.307587267523652 -0.3357313476725541 -0.85
      vertex -1.3393548467745453 -0.1691998653118105 -0.85
      vertex -2.9057494833858932 -0.7460696614945646 0
    endloop
  endfacet
  facet normal 0.2209667801795873 0.4019370810201087 0.8886057984045008
    outer loop
      vertex -0.5748020436128478 -1.2215165208291265 -0.85
      vertex -0.7233661732216456 -1.1398426994277202 -0.85
      vertex -1.2773378746952173 -2.7144811573980587 0
    endloop
  endfacet
  facet normal 0.1688483170646448 0.42646216815367893 0.8886057984045009
    outer loop
      vertex -0.417172942406179 -1.2839262969984573 -0.85
      vertex -0.5748020436128478 -1.2215165208291265 -0.85
      vertex -0.9270509831248421 -2.8531695488854605 0
    endloop
  endfacet
  facet normal 0.11406701512449806 0.4442616921393145 0.8886057984045007
    outer loop
      vertex -0.25296477469072853 -1.3260877884837297 -0.85
      vertex -0.417172942406179 -1.2839262969984573 -0.85
      vertex -0.5621439437571745 -2.9468617521860656 0
    endloop
  endfacet
  facet normal 0.353412624531331 0.29236834962727404 0.8886057984045008
    outer loop
      vertex -2.4270509831248424 -1.7633557568774194 0
      vertex -2.186905882264235 -2.0536413177860657 0
      vertex -1.0921729424061792 -0.7935100905948388 -0.85
    endloop
  endfacet
  facet normal 0.41501856893070405 0.19529291457861453 0.8886057984045008
    outer loop
      vertex -1.2551982559491395 -0.49696814612431517 -0.85
      vertex -2.7893294576647545 -1.1043736580540335 0
      vertex -2.6289200401315904 -1.445261022305146 0
    endloop
  endfacet
  facet normal 0.3872693310783127 0.24576859084931033 0.888605798404501
    outer loop
      vertex -1.1830140180592157 -0.6503674600373158 -0.85
      vertex -2.6289200401315904 -1.445261022305146 0
      vertex -2.4270509831248424 -1.7633557568774194 0
    endloop
  endfacet
  facet normal 0.4505473703126334 0.08594650746988144 0.8886057984045009
    outer loop
      vertex -2.9763441039434335 -0.3759997006929122 0
      vertex -2.9057494833858932 -0.7460696614945646 0
      vertex -1.3393548467745453 -0.1691998653118105 -0.85
    endloop
  endfacet
  facet normal 0.4577666234205005 0.028800234792327597 0.8886057984045009
    outer loop
      vertex -3 0 0
      vertex -2.9763441039434335 -0.3759997006929122 0
      vertex -1.35 0 -0.85
    endloop
  endfacet
  facet normal 0.4362227160309828 0.14173735238268 0.8886057984045009
    outer loop
      vertex -2.9057494833858932 -0.7460696614945646 0
      vertex -2.7893294576647545 -1.1043736580540335 0
      vertex -1.307587267523652 -0.3357313476725541 -0.85
    endloop
  endfacet
  facet normal 0.269600465171941 0.37107320601327776 0.8886057984045008
    outer loop
      vertex -1.9122719692460688 -2.311539728327368 0
      vertex -1.6074803849369903 -2.532983776506045 0
      vertex -0.8605223861607311 -1.0401928777473157 -0.85
    endloop
  endfacet
  facet normal 0.22096678017958696 0.4019370810201089 0.8886057984045009
    outer loop
      vertex -1.2773378746952173 -2.7144811573980587 0
      vertex -0.7233661732216456 -1.1398426994277202 -0.85
      vertex -1.6074803849369903 -2.532983776506045 0
    endloop
  endfacet
  facet normal 0.11406701512449792 0.44426169213931455 0.8886057984045008
    outer loop
      vertex -0.9270509831248421 -2.8531695488854605 0
      vertex -0.5621439437571745 -2.9468617521860656 0
      vertex -0.417172942406179 -1.2839262969984573 -0.85
    endloop
  endfacet
  facet normal 0.16884831706464484 0.42646216815367893 0.8886057984045009
    outer loop
      vertex -1.2773378746952173 -2.7144811573980587 0
      vertex -0.9270509831248421 -2.8531695488854605 0
      vertex -0.5748020436128478 -1.2215165208291265 -0.85
    endloop
  endfacet
  facet normal 0.0574868082155059 0.4550549438508423 0.8886057984045009
    outer loop
      vertex -0.5621439437571745 -2.9468617521860656 0
      vertex -0.1883715585879413 -2.9940801852848145 0
      vertex -0.25296477469072853 -1.3260877884837297 -0.85
    endloop
  endfacet
  facet normal 0 0.4586717072611952 0.8886057984045009
    outer loop
      vertex -0.1883715585879413 -2.9940801852848145 0
      vertex 0.1883715585879413 -2.9940801852848145 0
      vertex -0.08476720136457358 -1.3473360833781667 -0.85
    endloop
  endfacet
  facet normal 0.3139823897770218 0.3343572848792289 0.8886057984045009
    outer loop
      vertex -2.186905882264235 -2.0536413177860657 0
      vertex -1.9122719692460688 -2.311539728327368 0
      vertex -0.9841076470189059 -0.9241385930037296 -0.85
    endloop
  endfacet
  facet normal 0.4577666234205005 -0.02880023479232724 0.8886057984045009
    outer loop
      vertex -1.35 0 -0.85
      vertex -1.3393548467745453 0.1691998653118105 -0.85
      vertex -2.9763441039434335 0.3759997006929122 0
    endloop
  endfacet
  facet normal 0.45054737031263314 -0.08594650746988197 0.8886057984045008
    outer loop
      vertex -1.3393548467745453 0.1691998653118105 -0.85
      vertex -1.307587267523652 0.3357313476725541 -0.85
      vertex -2.9057494833858932 0.7460696614945646 0
    endloop
  endfacet
  facet normal 0.4362227160309827 -0.14173735238268007 0.8886057984045009
    outer loop
      vertex -1.307587267523652 0.3357313476725541 -0.85
      vertex -1.2551982559491395 0.49696814612431517 -0.85
      vertex -2.7893294576647545 1.1043736580540335 0
    endloop
  endfacet
  facet normal 0.41501856893070405 -0.1952929145786143 0.8886057984045009
    outer loop
      vertex -1.1830140180592157 0.6503674600373158 -0.85
      vertex -2.6289200401315904 1.445261022305146 0
      vertex -1.2551982559491395 0.49696814612431517 -0.85
    endloop
  endfacet
  facet normal 0.3872693310783129 -0.2457685908493103 0.8886057984045009
    outer loop
      vertex -1.0921729424061792 0.7935100905948388 -0.85
      vertex -2.4270509831248424 1.7633557568774194 0
      vertex -1.1830140180592157 0.6503674600373158 -0.85
    endloop
  endfacet
  facet normal 0.3534126245313309 -0.2923683496272742 0.8886057984045009
    outer loop
      vertex -1.0921729424061792 0.7935100905948388 -0.85
      vertex -0.9841076470189059 0.9241385930037296 -0.85
      vertex -2.186905882264235 2.0536413177860657 0
    endloop
  endfacet
  facet normal 0.313982389777022 -0.33435728487922883 0.8886057984045009
    outer loop
      vertex -0.9841076470189059 0.9241385930037296 -0.85
      vertex -0.8605223861607311 1.0401928777473157 -0.85
      vertex -1.9122719692460688 2.311539728327368 0
    endloop
  endfacet
  facet normal 0.26960046517194053 -0.3710732060132781 0.888605798404501
    outer loop
      vertex -0.7233661732216456 1.1398426994277202 -0.85
      vertex -1.6074803849369903 2.532983776506045 0
      vertex -0.8605223861607311 1.0401928777473157 -0.85
    endloop
  endfacet
  facet normal 0.22096678017958768 -0.4019370810201086 0.8886057984045008
    outer loop
      vertex -1.2773378746952182 2.7144811573980583 0
      vertex -0.7233661732216456 1.1398426994277202 -0.85
      vertex -0.5748020436128483 1.2215165208291263 -0.85
    endloop
  endfacet
  facet normal 0.16884831706464498 -0.4264621681536788 0.8886057984045009
    outer loop
      vertex -0.9270509831248421 2.8531695488854605 0
      vertex -0.5748020436128483 1.2215165208291263 -0.85
      vertex -0.417172942406179 1.2839262969984573 -0.85
    endloop
  endfacet
  facet normal 0.11406701512449888 -0.4442616921393144 0.8886057984045008
    outer loop
      vertex -0.5621439437571737 2.946861752186066 0
      vertex -0.417172942406179 1.2839262969984573 -0.85
      vertex -0.2529647746907282 1.3260877884837299 -0.85
    endloop
  endfacet
  facet normal 0.05748680821550504 -0.45505494385084244 0.8886057984045007
    outer loop
      vertex -0.18837155858793353 2.9940801852848145 0
      vertex -0.2529647746907282 1.3260877884837299 -0.85
      vertex -0.08476720136457293 1.3473360833781667 -0.85
    endloop
  endfacet
  facet normal 0.4577666234205005 -0.028800234792327597 0.8886057984045009
    outer loop
      vertex -3 0 0
      vertex -1.35 0 -0.85
      vertex -2.9763441039434335 0.3759997006929122 0
    endloop
  endfacet
  facet normal 0.4505473703126333 -0.08594650746988144 0.8886057984045009
    outer loop
      vertex -1.3393548467745453 0.1691998653118105 -0.85
      vertex -2.9057494833858932 0.7460696614945646 0
      vertex -2.9763441039434335 0.3759997006929122 0
    endloop
  endfacet
  facet normal 0.4362227160309827 -0.14173735238267987 0.8886057984045009
    outer loop
      vertex -1.307587267523652 0.3357313476725541 -0.85
      vertex -2.7893294576647545 1.1043736580540335 0
      vertex -2.9057494833858932 0.7460696614945646 0
    endloop
  endfacet
  facet normal 0.41501856893070405 -0.19529291457861442 0.888605798404501
    outer loop
      vertex -2.7893294576647545 1.1043736580540335 0
      vertex -1.2551982559491395 0.49696814612431517 -0.85
      vertex -2.6289200401315904 1.445261022305146 0
    endloop
  endfacet
  facet normal 0.3872693310783126 -0.2457685908493105 0.8886057984045008
    outer loop
      vertex -2.6289200401315904 1.445261022305146 0
      vertex -1.1830140180592157 0.6503674600373158 -0.85
      vertex -2.4270509831248424 1.7633557568774194 0
    endloop
  endfacet
  facet normal 0.353412624531331 -0.29236834962727404 0.8886057984045008
    outer loop
      vertex -2.4270509831248424 1.7633557568774194 0
      vertex -1.0921729424061792 0.7935100905948388 -0.85
      vertex -2.186905882264235 2.0536413177860657 0
    endloop
  endfacet
  facet normal 0.3139823897770219 -0.33435728487922894 0.8886057984045009
    outer loop
      vertex -0.9841076470189059 0.9241385930037296 -0.85
      vertex -1.9122719692460688 2.311539728327368 0
      vertex -2.186905882264235 2.0536413177860657 0
    endloop
  endfacet
  facet normal 0.269600465171941 -0.37107320601327776 0.8886057984045008
    outer loop
      vertex -1.6074803849369903 2.532983776506045 0
      vertex -1.9122719692460688 2.311539728327368 0
      vertex -0.8605223861607311 1.0401928777473157 -0.85
    endloop
  endfacet
  facet normal 0.22096678017958696 -0.4019370810201089 0.8886057984045008
    outer loop
      vertex -1.6074803849369903 2.532983776506045 0
      vertex -0.7233661732216456 1.1398426994277202 -0.85
      vertex -1.2773378746952182 2.7144811573980583 0
    endloop
  endfacet
  facet normal 0.16884831706464493 -0.4264621681536788 0.8886057984045009
    outer loop
      vertex -1.2773378746952182 2.7144811573980583 0
      vertex -0.5748020436128483 1.2215165208291263 -0.85
      vertex -0.9270509831248421 2.8531695488854605 0
    endloop
  endfacet
  facet normal 0.11406701512449818 -0.4442616921393144 0.8886057984045008
    outer loop
      vertex -0.5621439437571737 2.946861752186066 0
      vertex -0.9270509831248421 2.8531695488854605 0
      vertex -0.417172942406179 1.2839262969984573 -0.85
    endloop
  endfacet
  facet normal 0.0574868082155043 -0.45505494385084244 0.8886057984045009
    outer loop
      vertex -0.18837155858793353 2.9940801852848145 0
      vertex -0.5621439437571737 2.946861752186066 0
      vertex -0.2529647746907282 1.3260877884837299 -0.85
    endloop
  endfacet
  facet normal 0 -0.45867170726119516 0.8886057984045009
    outer loop
      vertex -0.18837155858793353 2.9940801852848145 0
      vertex -0.08476720136457293 1.3473360833781667 -0.85
      vertex 0.18837155858793983 2.9940801852848145 0
    endloop
  endfacet
  facet normal 0 0.45867170726119516 0.8886057984045009
    outer loop
      vertex 0.1883715585879413 -2.9940801852848145 0
      vertex 0.08476720136457358 -1.3473360833781667 -0.85
      vertex -0.08476720136457358 -1.3473360833781667 -0.85
    endloop
  endfacet
  facet normal -0.05748680821550583 0.4550549438508422 0.8886057984045008
    outer loop
      vertex 0.1883715585879413 -2.9940801852848145 0
      vertex 0.25296477469072853 -1.3260877884837297 -0.85
      vertex 0.08476720136457358 -1.3473360833781667 -0.85
    endloop
  endfacet
  facet normal -0.11406701512449806 0.4442616921393145 0.8886057984045009
    outer loop
      vertex 0.417172942406179 -1.2839262969984573 -0.85
      vertex 0.25296477469072853 -1.3260877884837297 -0.85
      vertex 0.5621439437571745 -2.9468617521860656 0
    endloop
  endfacet
  facet normal -0.1688483170646448 0.42646216815367893 0.8886057984045009
    outer loop
      vertex 0.417172942406179 -1.2839262969984573 -0.85
      vertex 0.9270509831248421 -2.8531695488854605 0
      vertex 0.5748020436128478 -1.2215165208291265 -0.85
    endloop
  endfacet
  facet normal -0.22096678017958712 0.4019370810201089 0.8886057984045009
    outer loop
      vertex 0.5748020436128478 -1.2215165208291265 -0.85
      vertex 1.2773378746952173 -2.7144811573980587 0
      vertex 0.723366173221645 -1.1398426994277207 -0.85
    endloop
  endfacet
  facet normal -0.2696004651719407 0.371073206013278 0.8886057984045009
    outer loop
      vertex 0.8605223861607315 -1.0401928777473153 -0.85
      vertex 0.723366173221645 -1.1398426994277207 -0.85
      vertex 1.6074803849369887 -2.532983776506046 0
    endloop
  endfacet
  facet normal -0.3139823897770219 0.33435728487922883 0.8886057984045008
    outer loop
      vertex 0.8605223861607315 -1.0401928777473153 -0.85
      vertex 1.91227196924607 -2.311539728327367 0
      vertex 0.9841076470189059 -0.9241385930037296 -0.85
    endloop
  endfacet
  facet normal -0.3534126245313309 0.2923683496272742 0.8886057984045009
    outer loop
      vertex 1.0921729424061792 -0.7935100905948388 -0.85
      vertex 0.9841076470189059 -0.9241385930037296 -0.85
      vertex 2.186905882264235 -2.0536413177860657 0
    endloop
  endfacet
  facet normal -0.3872693310783129 0.2457685908493103 0.8886057984045009
    outer loop
      vertex 1.0921729424061792 -0.7935100905948388 -0.85
      vertex 2.4270509831248424 -1.7633557568774194 0
      vertex 1.1830140180592157 -0.6503674600373158 -0.85
    endloop
  endfacet
  facet normal -0.415018568930704 0.19529291457861447 0.8886057984045009
    outer loop
      vertex 1.2551982559491393 -0.49696814612431583 -0.85
      vertex 1.1830140180592157 -0.6503674600373158 -0.85
      vertex 2.6289200401315904 -1.445261022305146 0
    endloop
  endfacet
  facet normal -0.43622271603098284 0.14173735238268023 0.8886057984045009
    outer loop
      vertex 1.2551982559491393 -0.49696814612431583 -0.85
      vertex 2.7893294576647536 -1.104373658054035 0
      vertex 1.3075872675236522 -0.3357313476725535 -0.85
    endloop
  endfacet
  facet normal -0.45054737031263314 0.08594650746988167 0.8886057984045008
    outer loop
      vertex 1.3393548467745453 -0.1691998653118105 -0.85
      vertex 1.3075872675236522 -0.3357313476725535 -0.85
      vertex 2.9057494833858937 -0.7460696614945633 0
    endloop
  endfacet
  facet normal -0.4577666234205006 0.028800234792327243 0.8886057984045009
    outer loop
      vertex 1.3393548467745453 -0.1691998653118105 -0.85
      vertex 2.9763441039434335 -0.3759997006929122 0
      vertex 1.35 0 -0.85
    endloop
  endfacet
  facet normal -0.05748680821550589 0.4550549438508422 0.8886057984045009
    outer loop
      vertex 0.1883715585879413 -2.9940801852848145 0
      vertex 0.5621439437571745 -2.9468617521860656 0
      vertex 0.25296477469072853 -1.3260877884837297 -0.85
    endloop
  endfacet
  facet normal -0.11406701512449788 0.4442616921393146 0.8886057984045009
    outer loop
      vertex 0.417172942406179 -1.2839262969984573 -0.85
      vertex 0.5621439437571745 -2.9468617521860656 0
      vertex 0.9270509831248421 -2.8531695488854605 0
    endloop
  endfacet
  facet normal -0.16884831706464495 0.42646216815367893 0.8886057984045007
    outer loop
      vertex 0.5748020436128478 -1.2215165208291265 -0.85
      vertex 0.9270509831248421 -2.8531695488854605 0
      vertex 1.2773378746952173 -2.7144811573980587 0
    endloop
  endfacet
  facet normal -0.22096678017958707 0.40193708102010883 0.8886057984045009
    outer loop
      vertex 0.723366173221645 -1.1398426994277207 -0.85
      vertex 1.2773378746952173 -2.7144811573980587 0
      vertex 1.6074803849369887 -2.532983776506046 0
    endloop
  endfacet
  facet normal -0.26960046517194086 0.37107320601327787 0.8886057984045008
    outer loop
      vertex 1.6074803849369887 -2.532983776506046 0
      vertex 1.91227196924607 -2.311539728327367 0
      vertex 0.8605223861607315 -1.0401928777473153 -0.85
    endloop
  endfacet
  facet normal -0.31398238977702186 0.334357284879229 0.8886057984045009
    outer loop
      vertex 0.9841076470189059 -0.9241385930037296 -0.85
      vertex 1.91227196924607 -2.311539728327367 0
      vertex 2.186905882264235 -2.0536413177860657 0
    endloop
  endfacet
  facet normal -0.3534126245313309 0.2923683496272742 0.8886057984045009
    outer loop
      vertex 1.0921729424061792 -0.7935100905948388 -0.85
      vertex 2.186905882264235 -2.0536413177860657 0
      vertex 2.4270509831248424 -1.7633557568774194 0
    endloop
  endfacet
  facet normal -0.3872693310783127 0.24576859084931033 0.888605798404501
    outer loop
      vertex 1.1830140180592157 -0.6503674600373158 -0.85
      vertex 2.4270509831248424 -1.7633557568774194 0
      vertex 2.6289200401315904 -1.445261022305146 0
    endloop
  endfacet
  facet normal -0.41501856893070405 0.19529291457861414 0.8886057984045008
    outer loop
      vertex 1.2551982559491393 -0.49696814612431583 -0.85
      vertex 2.6289200401315904 -1.445261022305146 0
      vertex 2.7893294576647536 -1.104373658054035 0
    endloop
  endfacet
  facet normal -0.43622271603098267 0.14173735238268031 0.8886057984045009
    outer loop
      vertex 1.3075872675236522 -0.3357313476725535 -0.85
      vertex 2.7893294576647536 -1.104373658054035 0
      vertex 2.9057494833858937 -0.7460696614945633 0
    endloop
  endfacet
  facet normal -0.4505473703126334 0.0859465074698811 0.8886057984045009
    outer loop
      vertex 1.3393548467745453 -0.1691998653118105 -0.85
      vertex 2.9057494833858937 -0.7460696614945633 0
      vertex 2.9763441039434335 -0.3759997006929122 0
    endloop
  endfacet
  facet normal -0.4577666234205005 0.02880023479232766 0.8886057984045009
    outer loop
      vertex 1.35 0 -0.85
      vertex 2.9763441039434335 -0.3759997006929122 0
      vertex 3 0 0
    endloop
  endfacet
  facet normal -0.1140670151244984 -0.44426169213931443 0.8886057984045009
    outer loop
      vertex 0.2529647746907282 1.3260877884837299 -0.85
      vertex 0.417172942406179 1.2839262969984573 -0.85
      vertex 0.5621439437571737 2.946861752186066 0
    endloop
  endfacet
  facet normal -0.16884831706464484 -0.4264621681536788 0.8886057984045009
    outer loop
      vertex 0.417172942406179 1.2839262969984573 -0.85
      vertex 0.5748020436128483 1.2215165208291263 -0.85
      vertex 0.9270509831248421 2.8531695488854605 0
    endloop
  endfacet
  facet normal -0.22096678017958696 -0.40193708102010883 0.8886057984045008
    outer loop
      vertex 0.5748020436128483 1.2215165208291263 -0.85
      vertex 0.7233661732216455 1.1398426994277204 -0.85
      vertex 1.2773378746952182 2.7144811573980583 0
    endloop
  endfacet
  facet normal -0.45054737031263314 -0.08594650746988217 0.8886057984045009
    outer loop
      vertex 1.307587267523652 0.33573134767255397 -0.85
      vertex 1.3393548467745453 0.16919986531181075 -0.85
      vertex 2.9057494833858932 0.7460696614945643 0
    endloop
  endfacet
  facet normal -0.4362227160309829 -0.1417373523826799 0.8886057984045009
    outer loop
      vertex 1.2551982559491395 0.4969681461243153 -0.85
      vertex 1.307587267523652 0.33573134767255397 -0.85
      vertex 2.789329457664754 1.104373658054034 0
    endloop
  endfacet
  facet normal -0.4150185689307042 -0.195292914578614 0.8886057984045009
    outer loop
      vertex 1.183014018059216 0.6503674600373157 -0.85
      vertex 1.2551982559491395 0.4969681461243153 -0.85
      vertex 2.628920040131591 1.445261022305146 0
    endloop
  endfacet
  facet normal -0.2696004651719411 -0.37107320601327776 0.8886057984045007
    outer loop
      vertex 0.7233661732216455 1.1398426994277204 -0.85
      vertex 0.8605223861607312 1.0401928777473155 -0.85
      vertex 1.60748038493699 2.532983776506045 0
    endloop
  endfacet
  facet normal -0.31398238977702175 -0.33435728487922894 0.8886057984045009
    outer loop
      vertex 0.8605223861607312 1.0401928777473155 -0.85
      vertex 0.9841076470189056 0.9241385930037298 -0.85
      vertex 1.9122719692460692 2.3115397283273675 0
    endloop
  endfacet
  facet normal -0.3872693310783125 -0.24576859084931046 0.8886057984045009
    outer loop
      vertex 1.0921729424061792 0.7935100905948388 -0.85
      vertex 1.183014018059216 0.6503674600373157 -0.85
      vertex 2.4270509831248424 1.7633557568774194 0
    endloop
  endfacet
  facet normal -0.3534126245313308 -0.29236834962727426 0.8886057984045008
    outer loop
      vertex 0.9841076470189056 0.9241385930037298 -0.85
      vertex 1.0921729424061792 0.7935100905948388 -0.85
      vertex 2.1869058822642344 2.053641317786066 0
    endloop
  endfacet
  facet normal 0 -0.4586717072611952 0.8886057984045009
    outer loop
      vertex -0.08476720136457293 1.3473360833781667 -0.85
      vertex 0.08476720136456621 1.3473360833781667 -0.85
      vertex 0.18837155858793983 2.9940801852848145 0
    endloop
  endfacet
  facet normal -0.05748680821550301 -0.4550549438508423 0.888605798404501
    outer loop
      vertex 0.08476720136456621 1.3473360833781667 -0.85
      vertex 0.2529647746907282 1.3260877884837299 -0.85
      vertex 0.18837155858793983 2.9940801852848145 0
    endloop
  endfacet
  facet normal -0.4577666234205005 -0.02880023479232719 0.8886057984045007
    outer loop
      vertex 1.3393548467745453 0.16919986531181075 -0.85
      vertex 1.35 0 -0.85
      vertex 2.9763441039434335 0.3759997006929128 0
    endloop
  endfacet
  facet normal -0.31398238977702175 -0.33435728487922894 0.8886057984045009
    outer loop
      vertex 2.1869058822642344 2.053641317786066 0
      vertex 1.9122719692460692 2.3115397283273675 0
      vertex 0.9841076470189056 0.9241385930037298 -0.85
    endloop
  endfacet
  facet normal -0.05748680821550526 -0.45505494385084233 0.8886057984045009
    outer loop
      vertex 0.5621439437571737 2.946861752186066 0
      vertex 0.18837155858793983 2.9940801852848145 0
      vertex 0.2529647746907282 1.3260877884837299 -0.85
    endloop
  endfacet
  facet normal -0.16884831706464493 -0.4264621681536788 0.8886057984045009
    outer loop
      vertex 1.2773378746952182 2.7144811573980583 0
      vertex 0.9270509831248421 2.8531695488854605 0
      vertex 0.5748020436128483 1.2215165208291263 -0.85
    endloop
  endfacet
  facet normal -0.11406701512449821 -0.4442616921393145 0.8886057984045009
    outer loop
      vertex 0.9270509831248421 2.8531695488854605 0
      vertex 0.5621439437571737 2.946861752186066 0
      vertex 0.417172942406179 1.2839262969984573 -0.85
    endloop
  endfacet
  facet normal -0.2209667801795871 -0.40193708102010883 0.8886057984045009
    outer loop
      vertex 1.60748038493699 2.532983776506045 0
      vertex 1.2773378746952182 2.7144811573980583 0
      vertex 0.7233661732216455 1.1398426994277204 -0.85
    endloop
  endfacet
  facet normal -0.269600465171941 -0.37107320601327787 0.8886057984045009
    outer loop
      vertex 1.9122719692460692 2.3115397283273675 0
      vertex 1.60748038493699 2.532983776506045 0
      vertex 0.8605223861607312 1.0401928777473155 -0.85
    endloop
  endfacet
  facet normal -0.4362227160309828 -0.14173735238268026 0.8886057984045009
    outer loop
      vertex 2.9057494833858932 0.7460696614945643 0
      vertex 2.789329457664754 1.104373658054034 0
      vertex 1.307587267523652 0.33573134767255397 -0.85
    endloop
  endfacet
  facet normal -0.4577666234205005 -0.02880023479232755 0.8886057984045009
    outer loop
      vertex 3 0 0
      vertex 2.9763441039434335 0.3759997006929128 0
      vertex 1.35 0 -0.85
    endloop
  endfacet
  facet normal -0.4505473703126333 -0.08594650746988161 0.8886057984045007
    outer loop
      vertex 2.9763441039434335 0.3759997006929128 0
      vertex 2.9057494833858932 0.7460696614945643 0
      vertex 1.3393548467745453 0.16919986531181075 -0.85
    endloop
  endfacet
  facet normal -0.38726933107831235 -0.24576859084931088 0.8886057984045009
    outer loop
      vertex 2.628920040131591 1.445261022305146 0
      vertex 2.4270509831248424 1.7633557568774194 0
      vertex 1.183014018059216 0.6503674600373157 -0.85
    endloop
  endfacet
  facet normal -0.41501856893070427 -0.1952929145786137 0.8886057984045009
    outer loop
      vertex 2.789329457664754 1.104373658054034 0
      vertex 2.628920040131591 1.445261022305146 0
      vertex 1.2551982559491395 0.4969681461243153 -0.85
    endloop
  endfacet
  facet normal -0.35341262453133093 -0.29236834962727415 0.8886057984045008
    outer loop
      vertex 2.4270509831248424 1.7633557568774194 0
      vertex 2.1869058822642344 2.053641317786066 0
      vertex 1.0921729424061792 0.7935100905948388 -0.85
    endloop
  endfacet
  facet normal -0.8443279255020157 -0.5358267949789955 0
    outer loop
      vertex -24.270509831248425 -17.633557568774194 -0.85
      vertex -26.289200401315902 -14.452610223051462 0
      vertex -26.289200401315902 -14.452610223051462 -0.85
    endloop
  endfacet
  facet normal -0.7705132427757893 -0.6374239897486899 0
    outer loop
      vertex -24.270509831248425 -17.633557568774194 -0.85
      vertex -21.86905882264235 -20.536413177860656 -0.85
      vertex -24.270509831248425 -17.633557568774194 0
    endloop
  endfacet
  facet normal -0.5877852522924732 -0.8090169943749473 0
    outer loop
      vertex -19.122719692460688 -23.11539728327368 -0.85
      vertex -16.074803849369903 -25.32983776506045 -0.85
      vertex -16.074803849369903 -25.32983776506045 0
    endloop
  endfacet
  facet normal -0.6845471059286885 -0.7289686274214117 0
    outer loop
      vertex -19.122719692460688 -23.11539728327368 -0.85
      vertex -19.122719692460688 -23.11539728327368 0
      vertex -21.86905882264235 -20.536413177860656 -0.85
    endloop
  endfacet
  facet normal 0 0 -1
    outer loop
      vertex -27.893294576647545 -11.043736580540337 -0.85
      vertex -29.057494833858932 -7.460696614945645 -0.85
      vertex -27.893294576647545 11.043736580540337 -0.85
    endloop
  endfacet
  facet normal 0 0 -1
    outer loop
      vertex -29.057494833858932 -7.460696614945645 -0.85
      vertex -29.763441039434337 -3.759997006929122 -0.85
      vertex -29.057494833858932 7.460696614945645 -0.85
    endloop
  endfacet
  facet normal 0 0 -1
    outer loop
      vertex -26.289200401315902 -14.452610223051462 -0.85
      vertex -27.893294576647545 -11.043736580540337 -0.85
      vertex -26.289200401315902 14.452610223051462 -0.85
    endloop
  endfacet
  facet normal 0 0 -1
    outer loop
      vertex -24.270509831248425 -17.633557568774194 -0.85
      vertex -26.289200401315902 -14.452610223051462 -0.85
      vertex -24.270509831248425 17.633557568774194 -0.85
    endloop
  endfacet
  facet normal 0 0 -1
    outer loop
      vertex -24.270509831248425 -17.633557568774194 -0.85
      vertex -21.86905882264235 20.536413177860656 -0.85
      vertex -21.86905882264235 -20.536413177860656 -0.85
    endloop
  endfacet
  facet normal 0 0 -1
    outer loop
      vertex -19.122719692460688 -23.11539728327368 -0.85
      vertex -16.074803849369903 25.32983776506045 -0.85
      vertex -16.074803849369903 -25.32983776506045 -0.85
    endloop
  endfacet
  facet normal 0 0 -1
    outer loop
      vertex -19.122719692460688 -23.11539728327368 -0.85
      vertex -21.86905882264235 -20.536413177860656 -0.85
      vertex -19.122719692460688 23.11539728327368 -0.85
    endloop
  endfacet
  facet normal -0.9048270524660189 -0.4257792915650738 0
    outer loop
      vertex -26.289200401315902 -14.452610223051462 -0.85
      vertex -27.893294576647545 -11.043736580540337 0
      vertex -27.893294576647545 -11.043736580540337 -0.85
    endloop
  endfacet
  facet normal -0.9510565162951538 -0.30901699437494673 0
    outer loop
      vertex -27.893294576647545 -11.043736580540337 -0.85
      vertex -29.057494833858932 -7.460696614945645 0
      vertex -29.057494833858932 -7.460696614945645 -0.85
    endloop
  endfacet
  facet normal -0.9822872507286887 -0.18738131458572516 0
    outer loop
      vertex -29.057494833858932 -7.460696614945645 -0.85
      vertex -29.763441039434337 -3.759997006929122 0
      vertex -29.763441039434337 -3.759997006929122 -0.85
    endloop
  endfacet
  facet normal -0.9980267284282717 -0.06279051952931293 0
    outer loop
      vertex -29.763441039434337 -3.759997006929122 -0.85
      vertex -30 0 0
      vertex -30 0 -0.85
    endloop
  endfacet
  facet normal 0 0 -1
    outer loop
      vertex -1.8837155858794128 -29.940801852848146 -0.85
      vertex -0.08476720136457358 -1.3473360833781667 -0.85
      vertex 1.8837155858794128 -29.940801852848146 -0.85
    endloop
  endfacet
  facet normal -0.4817536741017145 -0.876306680043864 0
    outer loop
      vertex -16.074803849369903 -25.32983776506045 -0.85
      vertex -12.773378746952172 -27.144811573980586 -0.85
      vertex -12.773378746952172 -27.144811573980586 0
    endloop
  endfacet
  facet normal -0.3681245526846781 -0.9297764858882513 0
    outer loop
      vertex -12.773378746952172 -27.144811573980586 -0.85
      vertex -9.270509831248422 -28.531695488854606 -0.85
      vertex -9.270509831248422 -28.531695488854606 0
    endloop
  endfacet
  facet normal -0.24868988716485496 -0.968583161128631 0
    outer loop
      vertex -9.270509831248422 -28.531695488854606 -0.85
      vertex -5.621439437571745 -29.468617521860658 -0.85
      vertex -5.621439437571745 -29.468617521860658 0
    endloop
  endfacet
  facet normal -0.12533323356430498 -0.9921147013144778 0
    outer loop
      vertex -5.621439437571745 -29.468617521860658 -0.85
      vertex -1.8837155858794128 -29.940801852848146 -0.85
      vertex -1.8837155858794128 -29.940801852848146 0
    endloop
  endfacet
  facet normal 0 0 -1
    outer loop
      vertex -16.074803849369903 -25.32983776506045 -0.85
      vertex -12.773378746952181 27.144811573980583 -0.85
      vertex -12.773378746952172 -27.144811573980586 -0.85
    endloop
  endfacet
  facet normal 0 0 -1
    outer loop
      vertex -12.773378746952172 -27.144811573980586 -0.85
      vertex -9.270509831248422 28.531695488854606 -0.85
      vertex -9.270509831248422 -28.531695488854606 -0.85
    endloop
  endfacet
  facet normal 0 0 -1
    outer loop
      vertex -9.270509831248422 -28.531695488854606 -0.85
      vertex -5.621439437571738 29.46861752186066 -0.85
      vertex -5.621439437571745 -29.468617521860658 -0.85
    endloop
  endfacet
  facet normal 0 0 -1
    outer loop
      vertex -5.621439437571745 -29.468617521860658 -0.85
      vertex -1.8837155858793984 29.940801852848146 -0.85
      vertex -1.8837155858794128 -29.940801852848146 -0.85
    endloop
  endfacet
  facet normal 0 0 -1
    outer loop
      vertex -1.8837155858794128 -29.940801852848146 -0.85
      vertex -1.2551982559491395 -0.49696814612431517 -0.85
      vertex -1.1830140180592157 -0.6503674600373158 -0.85
    endloop
  endfacet
  facet normal 0 0 -1
    outer loop
      vertex -1.8837155858794128 -29.940801852848146 -0.85
      vertex -0.7233661732216456 -1.1398426994277202 -0.85
      vertex -0.5748020436128478 -1.2215165208291265 -0.85
    endloop
  endfacet
  facet normal 0 0 -1
    outer loop
      vertex -1.8837155858794128 -29.940801852848146 -0.85
      vertex -0.5748020436128478 -1.2215165208291265 -0.85
      vertex -0.417172942406179 -1.2839262969984573 -0.85
    endloop
  endfacet
  facet normal 0 0 -1
    outer loop
      vertex -1.8837155858794128 -29.940801852848146 -0.85
      vertex -1.0921729424061792 -0.7935100905948388 -0.85
      vertex -0.9841076470189059 -0.9241385930037296 -0.85
    endloop
  endfacet
  facet normal 0 0 -1
    outer loop
      vertex -1.8837155858794128 -29.940801852848146 -0.85
      vertex -0.9841076470189059 -0.9241385930037296 -0.85
      vertex -0.8605223861607311 -1.0401928777473157 -0.85
    endloop
  endfacet
  facet normal 0 0 -1
    outer loop
      vertex -1.8837155858794128 -29.940801852848146 -0.85
      vertex -1.1830140180592157 -0.6503674600373158 -0.85
      vertex -1.0921729424061792 -0.7935100905948388 -0.85
    endloop
  endfacet
  facet normal 0 0 -1
    outer loop
      vertex -1.8837155858794128 -29.940801852848146 -0.85
      vertex -0.8605223861607311 -1.0401928777473157 -0.85
      vertex -0.7233661732216456 -1.1398426994277202 -0.85
    endloop
  endfacet
  facet normal 0 0 -1
    outer loop
      vertex -1.8837155858794128 -29.940801852848146 -0.85
      vertex -1.307587267523652 -0.3357313476725541 -0.85
      vertex -1.2551982559491395 -0.49696814612431517 -0.85
    endloop
  endfacet
  facet normal 0 0 -1
    outer loop
      vertex -1.8837155858794128 -29.940801852848146 -0.85
      vertex -1.3393548467745453 -0.1691998653118105 -0.85
      vertex -1.307587267523652 -0.3357313476725541 -0.85
    endloop
  endfacet
  facet normal 0 0 -1
    outer loop
      vertex -1.8837155858794128 -29.940801852848146 -0.85
      vertex -1.35 0 -0.85
      vertex -1.3393548467745453 -0.1691998653118105 -0.85
    endloop
  endfacet
  facet normal 0 0 -1
    outer loop
      vertex -1.8837155858794128 -29.940801852848146 -0.85
      vertex -0.417172942406179 -1.2839262969984573 -0.85
      vertex -0.25296477469072853 -1.3260877884837297 -0.85
    endloop
  endfacet
  facet normal 0 0 -1
    outer loop
      vertex -1.8837155858794128 -29.940801852848146 -0.85
      vertex -0.25296477469072853 -1.3260877884837297 -0.85
      vertex -0.08476720136457358 -1.3473360833781667 -0.85
    endloop
  endfacet
  facet normal -0.7705132427757893 -0.6374239897486899 0
    outer loop
      vertex -21.86905882264235 -20.536413177860656 -0.85
      vertex -21.86905882264235 -20.536413177860656 0
      vertex -24.270509831248425 -17.633557568774194 0
    endloop
  endfacet
  facet normal -0.8443279255020157 -0.5358267949789955 0
    outer loop
      vertex -24.270509831248425 -17.633557568774194 -0.85
      vertex -24.270509831248425 -17.633557568774194 0
      vertex -26.289200401315902 -14.452610223051462 0
    endloop
  endfacet
  facet normal -0.5877852522924732 -0.8090169943749473 0
    outer loop
      vertex -19.122719692460688 -23.11539728327368 -0.85
      vertex -16.074803849369903 -25.32983776506045 0
      vertex -19.122719692460688 -23.11539728327368 0
    endloop
  endfacet
  facet normal -0.6845471059286885 -0.7289686274214117 0
    outer loop
      vertex -21.86905882264235 -20.536413177860656 -0.85
      vertex -19.122719692460688 -23.11539728327368 0
      vertex -21.86905882264235 -20.536413177860656 0
    endloop
  endfacet
  facet normal -0.9048270524660189 -0.4257792915650738 0
    outer loop
      vertex -26.289200401315902 -14.452610223051462 -0.85
      vertex -26.289200401315902 -14.452610223051462 0
      vertex -27.893294576647545 -11.043736580540337 0
    endloop
  endfacet
  facet normal -0.9510565162951538 -0.30901699437494673 0
    outer loop
      vertex -27.893294576647545 -11.043736580540337 -0.85
      vertex -27.893294576647545 -11.043736580540337 0
      vertex -29.057494833858932 -7.460696614945645 0
    endloop
  endfacet
  facet normal -0.9822872507286887 -0.18738131458572516 0
    outer loop
      vertex -29.057494833858932 -7.460696614945645 -0.85
      vertex -29.057494833858932 -7.460696614945645 0
      vertex -29.763441039434337 -3.759997006929122 0
    endloop
  endfacet
  facet normal -0.9980267284282717 -0.06279051952931293 0
    outer loop
      vertex -29.763441039434337 -3.759997006929122 -0.85
      vertex -29.763441039434337 -3.759997006929122 0
      vertex -30 0 0
    endloop
  endfacet
  facet normal 0 0 1
    outer loop
      vertex -26.289200401315902 -14.452610223051462 0
      vertex -27.893294576647545 11.043736580540337 0
      vertex -27.893294576647545 -11.043736580540337 0
    endloop
  endfacet
  facet normal 0 0 1
    outer loop
      vertex -29.057494833858932 -7.460696614945645 0
      vertex -29.763441039434337 3.759997006929122 0
      vertex -29.763441039434337 -3.759997006929122 0
    endloop
  endfacet
  facet normal 0 0 1
    outer loop
      vertex -27.893294576647545 -11.043736580540337 0
      vertex -29.057494833858932 7.460696614945645 0
      vertex -29.057494833858932 -7.460696614945645 0
    endloop
  endfacet
  facet normal 0 0 1
    outer loop
      vertex -24.270509831248425 -17.633557568774194 0
      vertex -26.289200401315902 14.452610223051462 0
      vertex -26.289200401315902 -14.452610223051462 0
    endloop
  endfacet
  facet normal 0 0 1
    outer loop
      vertex -24.270509831248425 -17.633557568774194 0
      vertex -21.86905882264235 -20.536413177860656 0
      vertex -24.270509831248425 17.633557568774194 0
    endloop
  endfacet
  facet normal 0 0 1
    outer loop
      vertex -19.122719692460688 -23.11539728327368 0
      vertex -21.86905882264235 20.536413177860656 0
      vertex -21.86905882264235 -20.536413177860656 0
    endloop
  endfacet
  facet normal 0 0 1
    outer loop
      vertex -19.122719692460688 -23.11539728327368 0
      vertex -16.074803849369903 -25.32983776506045 0
      vertex -19.122719692460688 23.11539728327368 0
    endloop
  endfacet
  facet normal -0.3681245526846781 -0.9297764858882513 0
    outer loop
      vertex -12.773378746952172 -27.144811573980586 -0.85
      vertex -9.270509831248422 -28.531695488854606 0
      vertex -12.773378746952172 -27.144811573980586 0
    endloop
  endfacet
  facet normal -0.4817536741017145 -0.876306680043864 0
    outer loop
      vertex -16.074803849369903 -25.32983776506045 -0.85
      vertex -12.773378746952172 -27.144811573980586 0
      vertex -16.074803849369903 -25.32983776506045 0
    endloop
  endfacet
  facet normal -0.24868988716485496 -0.968583161128631 0
    outer loop
      vertex -9.270509831248422 -28.531695488854606 -0.85
      vertex -5.621439437571745 -29.468617521860658 0
      vertex -9.270509831248422 -28.531695488854606 0
    endloop
  endfacet
  facet normal -0.12533323356430498 -0.9921147013144778 0
    outer loop
      vertex -5.621439437571745 -29.468617521860658 -0.85
      vertex -1.8837155858794128 -29.940801852848146 0
      vertex -5.621439437571745 -29.468617521860658 0
    endloop
  endfacet
  facet normal 0 -1 0
    outer loop
      vertex -1.8837155858794128 -29.940801852848146 -0.85
      vertex 1.8837155858794128 -29.940801852848146 0
      vertex -1.8837155858794128 -29.940801852848146 0
    endloop
  endfacet
  facet normal 0 0 1
    outer loop
      vertex -16.074803849369903 -25.32983776506045 0
      vertex -12.773378746952172 -27.144811573980586 0
      vertex -16.074803849369903 25.32983776506045 0
    endloop
  endfacet
  facet normal 0 0 1
    outer loop
      vertex -12.773378746952172 -27.144811573980586 0
      vertex -9.270509831248422 -28.531695488854606 0
      vertex -12.773378746952181 27.144811573980583 0
    endloop
  endfacet
  facet normal 0 0 1
    outer loop
      vertex -9.270509831248422 -28.531695488854606 0
      vertex -5.621439437571745 -29.468617521860658 0
      vertex -9.270509831248422 28.531695488854606 0
    endloop
  endfacet
  facet normal 0 0 1
    outer loop
      vertex -5.621439437571745 -29.468617521860658 0
      vertex -1.8837155858794128 -29.940801852848146 0
      vertex -5.621439437571738 29.46861752186066 0
    endloop
  endfacet
  facet normal 0 0 1
    outer loop
      vertex -1.8837155858794128 -29.940801852848146 0
      vertex -2.186905882264235 -2.0536413177860657 0
      vertex -2.4270509831248424 -1.7633557568774194 0
    endloop
  endfacet
  facet normal 0 0 1
    outer loop
      vertex -1.8837155858794128 -29.940801852848146 0
      vertex -1.9122719692460688 -2.311539728327368 0
      vertex -2.186905882264235 -2.0536413177860657 0
    endloop
  endfacet
  facet normal 0 0 1
    outer loop
      vertex -1.8837155858794128 -29.940801852848146 0
      vertex -1.2773378746952173 -2.7144811573980587 0
      vertex -1.6074803849369903 -2.532983776506045 0
    endloop
  endfacet
  facet normal 0 0 1
    outer loop
      vertex -1.8837155858794128 -29.940801852848146 0
      vertex -1.6074803849369903 -2.532983776506045 0
      vertex -1.9122719692460688 -2.311539728327368 0
    endloop
  endfacet
  facet normal 0 0 1
    outer loop
      vertex -1.8837155858794128 -29.940801852848146 0
      vertex -0.9270509831248421 -2.8531695488854605 0
      vertex -1.2773378746952173 -2.7144811573980587 0
    endloop
  endfacet
  facet normal 0 0 1
    outer loop
      vertex -1.8837155858794128 -29.940801852848146 0
      vertex -0.5621439437571745 -2.9468617521860656 0
      vertex -0.9270509831248421 -2.8531695488854605 0
    endloop
  endfacet
  facet normal 0 0 1
    outer loop
      vertex -1.8837155858794128 -29.940801852848146 0
      vertex -0.1883715585879413 -2.9940801852848145 0
      vertex -0.5621439437571745 -2.9468617521860656 0
    endloop
  endfacet
  facet normal 0 0 1
    outer loop
      vertex -1.8837155858794128 -29.940801852848146 0
      vertex 0.1883715585879413 -2.9940801852848145 0
      vertex -0.1883715585879413 -2.9940801852848145 0
    endloop
  endfacet
  facet normal 0 0 1
    outer loop
      vertex -1.8837155858794128 -29.940801852848146 0
      vertex -2.6289200401315904 -1.445261022305146 0
      vertex -2.7893294576647545 -1.1043736580540335 0
    endloop
  endfacet
  facet normal 0 0 1
    outer loop
      vertex -1.8837155858794128 -29.940801852848146 0
      vertex -2.9057494833858932 -0.7460696614945646 0
      vertex -2.9763441039434335 -0.3759997006929122 0
    endloop
  endfacet
  facet normal 0 0 1
    outer loop
      vertex -1.8837155858794128 -29.940801852848146 0
      vertex -2.7893294576647545 -1.1043736580540335 0
      vertex -2.9057494833858932 -0.7460696614945646 0
    endloop
  endfacet
  facet normal 0 0 1
    outer loop
      vertex -1.8837155858794128 -29.940801852848146 0
      vertex -2.4270509831248424 -1.7633557568774194 0
      vertex -2.6289200401315904 -1.445261022305146 0
    endloop
  endfacet
  facet normal 0 0 1
    outer loop
      vertex -1.8837155858794128 -29.940801852848146 0
      vertex -2.9763441039434335 -0.3759997006929122 0
      vertex -5.621439437571738 29.46861752186066 0
    endloop
  endfacet
  facet normal 0 0 -1
    outer loop
      vertex -29.763441039434337 -3.759997006929122 -0.85
      vertex -30 0 -0.85
      vertex -29.763441039434337 3.759997006929122 -0.85
    endloop
  endfacet
  facet normal 0 0 -1
    outer loop
      vertex -29.763441039434337 -3.759997006929122 -0.85
      vertex -29.763441039434337 3.759997006929122 -0.85
      vertex -29.057494833858932 7.460696614945645 -0.85
    endloop
  endfacet
  facet normal 0 0 -1
    outer loop
      vertex -29.057494833858932 -7.460696614945645 -0.85
      vertex -29.057494833858932 7.460696614945645 -0.85
      vertex -27.893294576647545 11.043736580540337 -0.85
    endloop
  endfacet
  facet normal 0 0 -1
    outer loop
      vertex -27.893294576647545 -11.043736580540337 -0.85
      vertex -27.893294576647545 11.043736580540337 -0.85
      vertex -26.289200401315902 14.452610223051462 -0.85
    endloop
  endfacet
  facet normal 0 0 -1
    outer loop
      vertex -26.289200401315902 -14.452610223051462 -0.85
      vertex -26.289200401315902 14.452610223051462 -0.85
      vertex -24.270509831248425 17.633557568774194 -0.85
    endloop
  endfacet
  facet normal 0 0 -1
    outer loop
      vertex -24.270509831248425 -17.633557568774194 -0.85
      vertex -24.270509831248425 17.633557568774194 -0.85
      vertex -21.86905882264235 20.536413177860656 -0.85
    endloop
  endfacet
  facet normal 0 0 -1
    outer loop
      vertex -21.86905882264235 -20.536413177860656 -0.85
      vertex -21.86905882264235 20.536413177860656 -0.85
      vertex -19.122719692460688 23.11539728327368 -0.85
    endloop
  endfacet
  facet normal 0 0 -1
    outer loop
      vertex -19.122719692460688 -23.11539728327368 -0.85
      vertex -19.122719692460688 23.11539728327368 -0.85
      vertex -16.074803849369903 25.32983776506045 -0.85
    endloop
  endfacet
  facet normal -0.9980267284282717 0.06279051952931293 0
    outer loop
      vertex -30 0 -0.85
      vertex -29.763441039434337 3.759997006929122 0
      vertex -29.763441039434337 3.759997006929122 -0.85
    endloop
  endfacet
  facet normal -0.9822872507286887 0.18738131458572516 0
    outer loop
      vertex -29.763441039434337 3.759997006929122 -0.85
      vertex -29.057494833858932 7.460696614945645 0
      vertex -29.057494833858932 7.460696614945645 -0.85
    endloop
  endfacet
  facet normal -0.9510565162951538 0.30901699437494673 0
    outer loop
      vertex -29.057494833858932 7.460696614945645 -0.85
      vertex -27.893294576647545 11.043736580540337 0
      vertex -27.893294576647545 11.043736580540337 -0.85
    endloop
  endfacet
  facet normal -0.9048270524660189 0.4257792915650738 0
    outer loop
      vertex -27.893294576647545 11.043736580540337 -0.85
      vertex -26.289200401315902 14.452610223051462 0
      vertex -26.289200401315902 14.452610223051462 -0.85
    endloop
  endfacet
  facet normal -0.8443279255020157 0.5358267949789955 0
    outer loop
      vertex -26.289200401315902 14.452610223051462 -0.85
      vertex -24.270509831248425 17.633557568774194 0
      vertex -24.270509831248425 17.633557568774194 -0.85
    endloop
  endfacet
  facet normal -0.7705132427757893 0.6374239897486899 0
    outer loop
      vertex -24.270509831248425 17.633557568774194 -0.85
      vertex -21.86905882264235 20.536413177860656 0
      vertex -21.86905882264235 20.536413177860656 -0.85
    endloop
  endfacet
  facet normal -0.6845471059286885 0.7289686274214117 0
    outer loop
      vertex -21.86905882264235 20.536413177860656 -0.85
      vertex -21.86905882264235 20.536413177860656 0
      vertex -19.122719692460688 23.11539728327368 -0.85
    endloop
  endfacet
  facet normal -0.5877852522924732 0.8090169943749473 0
    outer loop
      vertex -19.122719692460688 23.11539728327368 -0.85
      vertex -19.122719692460688 23.11539728327368 0
      vertex -16.074803849369903 25.32983776506045 -0.85
    endloop
  endfacet
  facet normal 0 0 -1
    outer loop
      vertex -16.074803849369903 -25.32983776506045 -0.85
      vertex -16.074803849369903 25.32983776506045 -0.85
      vertex -12.773378746952181 27.144811573980583 -0.85
    endloop
  endfacet
  facet normal 0 0 -1
    outer loop
      vertex -12.773378746952172 -27.144811573980586 -0.85
      vertex -12.773378746952181 27.144811573980583 -0.85
      vertex -9.270509831248422 28.531695488854606 -0.85
    endloop
  endfacet
  facet normal 0 0 -1
    outer loop
      vertex -9.270509831248422 -28.531695488854606 -0.85
      vertex -9.270509831248422 28.531695488854606 -0.85
      vertex -5.621439437571738 29.46861752186066 -0.85
    endloop
  endfacet
  facet normal 0 0 -1
    outer loop
      vertex -1.8837155858794128 -29.940801852848146 -0.85
      vertex -1.8837155858793984 29.940801852848146 -0.85
      vertex -1.35 0 -0.85
    endloop
  endfacet
  facet normal 0 0 -1
    outer loop
      vertex -5.621439437571745 -29.468617521860658 -0.85
      vertex -5.621439437571738 29.46861752186066 -0.85
      vertex -1.8837155858793984 29.940801852848146 -0.85
    endloop
  endfacet
  facet normal 0 0 -1
    outer loop
      vertex -1.8837155858793984 29.940801852848146 -0.85
      vertex -1.3393548467745453 0.1691998653118105 -0.85
      vertex -1.35 0 -0.85
    endloop
  endfacet
  facet normal 0 0 -1
    outer loop
      vertex -1.8837155858793984 29.940801852848146 -0.85
      vertex -1.307587267523652 0.3357313476725541 -0.85
      vertex -1.3393548467745453 0.1691998653118105 -0.85
    endloop
  endfacet
  facet normal 0 0 -1
    outer loop
      vertex -1.8837155858793984 29.940801852848146 -0.85
      vertex -1.2551982559491395 0.49696814612431517 -0.85
      vertex -1.307587267523652 0.3357313476725541 -0.85
    endloop
  endfacet
  facet normal 0 0 -1
    outer loop
      vertex -1.8837155858793984 29.940801852848146 -0.85
      vertex -1.1830140180592157 0.6503674600373158 -0.85
      vertex -1.2551982559491395 0.49696814612431517 -0.85
    endloop
  endfacet
  facet normal 0 0 -1
    outer loop
      vertex -1.8837155858793984 29.940801852848146 -0.85
      vertex -1.0921729424061792 0.7935100905948388 -0.85
      vertex -1.1830140180592157 0.6503674600373158 -0.85
    endloop
  endfacet
  facet normal 0 0 -1
    outer loop
      vertex -1.8837155858793984 29.940801852848146 -0.85
      vertex -0.9841076470189059 0.9241385930037296 -0.85
      vertex -1.0921729424061792 0.7935100905948388 -0.85
    endloop
  endfacet
  facet normal 0 0 -1
    outer loop
      vertex -1.8837155858793984 29.940801852848146 -0.85
      vertex -0.8605223861607311 1.0401928777473157 -0.85
      vertex -0.9841076470189059 0.9241385930037296 -0.85
    endloop
  endfacet
  facet normal 0 0 -1
    outer loop
      vertex -1.8837155858793984 29.940801852848146 -0.85
      vertex -0.7233661732216456 1.1398426994277202 -0.85
      vertex -0.8605223861607311 1.0401928777473157 -0.85
    endloop
  endfacet
  facet normal 0 0 -1
    outer loop
      vertex -1.8837155858793984 29.940801852848146 -0.85
      vertex -0.5748020436128483 1.2215165208291263 -0.85
      vertex -0.7233661732216456 1.1398426994277202 -0.85
    endloop
  endfacet
  facet normal 0 0 -1
    outer loop
      vertex -1.8837155858793984 29.940801852848146 -0.85
      vertex -0.417172942406179 1.2839262969984573 -0.85
      vertex -0.5748020436128483 1.2215165208291263 -0.85
    endloop
  endfacet
  facet normal 0 0 -1
    outer loop
      vertex -1.8837155858793984 29.940801852848146 -0.85
      vertex -0.2529647746907282 1.3260877884837299 -0.85
      vertex -0.417172942406179 1.2839262969984573 -0.85
    endloop
  endfacet
  facet normal 0 0 -1
    outer loop
      vertex -1.8837155858793984 29.940801852848146 -0.85
      vertex -0.08476720136457293 1.3473360833781667 -0.85
      vertex -0.2529647746907282 1.3260877884837299 -0.85
    endloop
  endfacet
  facet normal 0 0 -1
    outer loop
      vertex -1.8837155858793984 29.940801852848146 -0.85
      vertex 0.08476720136456621 1.3473360833781667 -0.85
      vertex -0.08476720136457293 1.3473360833781667 -0.85
    endloop
  endfacet
  facet normal -0.48175367410171477 0.8763066800438639 0
    outer loop
      vertex -16.074803849369903 25.32983776506045 -0.85
      vertex -16.074803849369903 25.32983776506045 0
      vertex -12.773378746952181 27.144811573980583 -0.85
    endloop
  endfacet
  facet normal -0.3681245526846781 0.9297764858882515 0
    outer loop
      vertex -12.773378746952181 27.144811573980583 -0.85
      vertex -12.773378746952181 27.144811573980583 0
      vertex -9.270509831248422 28.531695488854606 -0.85
    endloop
  endfacet
  facet normal -0.2486898871648554 0.9685831611286311 0
    outer loop
      vertex -9.270509831248422 28.531695488854606 -0.85
      vertex -9.270509831248422 28.531695488854606 0
      vertex -5.621439437571738 29.46861752186066 -0.85
    endloop
  endfacet
  facet normal -0.1253332335643038 0.9921147013144778 0
    outer loop
      vertex -5.621439437571738 29.46861752186066 -0.85
      vertex -5.621439437571738 29.46861752186066 0
      vertex -1.8837155858793984 29.940801852848146 -0.85
    endloop
  endfacet
  facet normal 0 1 0
    outer loop
      vertex -1.8837155858793984 29.940801852848146 -0.85
      vertex -1.8837155858793984 29.940801852848146 0
      vertex 1.8837155858793984 29.940801852848146 -0.85
    endloop
  endfacet
  facet normal -0.9980267284282717 0.06279051952931293 0
    outer loop
      vertex -30 0 -0.85
      vertex -30 0 0
      vertex -29.763441039434337 3.759997006929122 0
    endloop
  endfacet
  facet normal -0.9822872507286887 0.18738131458572516 0
    outer loop
      vertex -29.763441039434337 3.759997006929122 -0.85
      vertex -29.763441039434337 3.759997006929122 0
      vertex -29.057494833858932 7.460696614945645 0
    endloop
  endfacet
  facet normal -0.9510565162951538 0.30901699437494673 0
    outer loop
      vertex -29.057494833858932 7.460696614945645 -0.85
      vertex -29.057494833858932 7.460696614945645 0
      vertex -27.893294576647545 11.043736580540337 0
    endloop
  endfacet
  facet normal -0.9048270524660189 0.4257792915650738 0
    outer loop
      vertex -27.893294576647545 11.043736580540337 -0.85
      vertex -27.893294576647545 11.043736580540337 0
      vertex -26.289200401315902 14.452610223051462 0
    endloop
  endfacet
  facet normal 0 0 1
    outer loop
      vertex -29.763441039434337 -3.759997006929122 0
      vertex -29.763441039434337 3.759997006929122 0
      vertex -30 0 0
    endloop
  endfacet
  facet normal 0 0 1
    outer loop
      vertex -29.057494833858932 -7.460696614945645 0
      vertex -29.057494833858932 7.460696614945645 0
      vertex -29.763441039434337 3.759997006929122 0
    endloop
  endfacet
  facet normal 0 0 1
    outer loop
      vertex -27.893294576647545 -11.043736580540337 0
      vertex -27.893294576647545 11.043736580540337 0
      vertex -29.057494833858932 7.460696614945645 0
    endloop
  endfacet
  facet normal 0 0 1
    outer loop
      vertex -26.289200401315902 -14.452610223051462 0
      vertex -26.289200401315902 14.452610223051462 0
      vertex -27.893294576647545 11.043736580540337 0
    endloop
  endfacet
  facet normal 0 0 1
    outer loop
      vertex -24.270509831248425 -17.633557568774194 0
      vertex -24.270509831248425 17.633557568774194 0
      vertex -26.289200401315902 14.452610223051462 0
    endloop
  endfacet
  facet normal 0 0 1
    outer loop
      vertex -21.86905882264235 -20.536413177860656 0
      vertex -21.86905882264235 20.536413177860656 0
      vertex -24.270509831248425 17.633557568774194 0
    endloop
  endfacet
  facet normal 0 0 1
    outer loop
      vertex -19.122719692460688 -23.11539728327368 0
      vertex -19.122719692460688 23.11539728327368 0
      vertex -21.86905882264235 20.536413177860656 0
    endloop
  endfacet
  facet normal 0 0 1
    outer loop
      vertex -16.074803849369903 -25.32983776506045 0
      vertex -16.074803849369903 25.32983776506045 0
      vertex -19.122719692460688 23.11539728327368 0
    endloop
  endfacet
  facet normal -0.8443279255020157 0.5358267949789955 0
    outer loop
      vertex -26.289200401315902 14.452610223051462 -0.85
      vertex -26.289200401315902 14.452610223051462 0
      vertex -24.270509831248425 17.633557568774194 0
    endloop
  endfacet
  facet normal -0.7705132427757893 0.6374239897486899 0
    outer loop
      vertex -24.270509831248425 17.633557568774194 -0.85
      vertex -24.270509831248425 17.633557568774194 0
      vertex -21.86905882264235 20.536413177860656 0
    endloop
  endfacet
  facet normal -0.6845471059286885 0.7289686274214117 0
    outer loop
      vertex -19.122719692460688 23.11539728327368 -0.85
      vertex -21.86905882264235 20.536413177860656 0
      vertex -19.122719692460688 23.11539728327368 0
    endloop
  endfacet
  facet normal -0.5877852522924732 0.8090169943749473 0
    outer loop
      vertex -16.074803849369903 25.32983776506045 -0.85
      vertex -19.122719692460688 23.11539728327368 0
      vertex -16.074803849369903 25.32983776506045 0
    endloop
  endfacet
  facet normal 0 0 1
    outer loop
      vertex -12.773378746952172 -27.144811573980586 0
      vertex -12.773378746952181 27.144811573980583 0
      vertex -16.074803849369903 25.32983776506045 0
    endloop
  endfacet
  facet normal 0 0 1
    outer loop
      vertex -9.270509831248422 -28.531695488854606 0
      vertex -9.270509831248422 28.531695488854606 0
      vertex -12.773378746952181 27.144811573980583 0
    endloop
  endfacet
  facet normal 0 0 1
    outer loop
      vertex -5.621439437571745 -29.468617521860658 0
      vertex -5.621439437571738 29.46861752186066 0
      vertex -9.270509831248422 28.531695488854606 0
    endloop
  endfacet
  facet normal 0 0 1
    outer loop
      vertex -5.621439437571738 29.46861752186066 0
      vertex -2.9763441039434335 -0.3759997006929122 0
      vertex -3 0 0
    endloop
  endfacet
  facet normal 0 0 1
    outer loop
      vertex -5.621439437571738 29.46861752186066 0
      vertex -3 0 0
      vertex -2.9763441039434335 0.3759997006929122 0
    endloop
  endfacet
  facet normal 0 0 1
    outer loop
      vertex -5.621439437571738 29.46861752186066 0
      vertex -2.9763441039434335 0.3759997006929122 0
      vertex -2.9057494833858932 0.7460696614945646 0
    endloop
  endfacet
  facet normal 0 0 1
    outer loop
      vertex -5.621439437571738 29.46861752186066 0
      vertex -2.9057494833858932 0.7460696614945646 0
      vertex -2.7893294576647545 1.1043736580540335 0
    endloop
  endfacet
  facet normal 0 0 1
    outer loop
      vertex -5.621439437571738 29.46861752186066 0
      vertex -2.7893294576647545 1.1043736580540335 0
      vertex -2.6289200401315904 1.445261022305146 0
    endloop
  endfacet
  facet normal 0 0 1
    outer loop
      vertex -5.621439437571738 29.46861752186066 0
      vertex -2.6289200401315904 1.445261022305146 0
      vertex -2.4270509831248424 1.7633557568774194 0
    endloop
  endfacet
  facet normal 0 0 1
    outer loop
      vertex -5.621439437571738 29.46861752186066 0
      vertex -2.4270509831248424 1.7633557568774194 0
      vertex -2.186905882264235 2.0536413177860657 0
    endloop
  endfacet
  facet normal 0 0 1
    outer loop
      vertex -5.621439437571738 29.46861752186066 0
      vertex -2.186905882264235 2.0536413177860657 0
      vertex -1.9122719692460688 2.311539728327368 0
    endloop
  endfacet
  facet normal 0 0 1
    outer loop
      vertex -5.621439437571738 29.46861752186066 0
      vertex -1.9122719692460688 2.311539728327368 0
      vertex -1.6074803849369903 2.532983776506045 0
    endloop
  endfacet
  facet normal 0 0 1
    outer loop
      vertex -1.8837155858793984 29.940801852848146 0
      vertex -1.6074803849369903 2.532983776506045 0
      vertex -1.2773378746952182 2.7144811573980583 0
    endloop
  endfacet
  facet normal 0 0 1
    outer loop
      vertex -1.8837155858793984 29.940801852848146 0
      vertex -1.2773378746952182 2.7144811573980583 0
      vertex -0.9270509831248421 2.8531695488854605 0
    endloop
  endfacet
  facet normal 0 0 1
    outer loop
      vertex -1.8837155858793984 29.940801852848146 0
      vertex -0.9270509831248421 2.8531695488854605 0
      vertex -0.5621439437571737 2.946861752186066 0
    endloop
  endfacet
  facet normal 0 0 1
    outer loop
      vertex -1.8837155858793984 29.940801852848146 0
      vertex -0.5621439437571737 2.946861752186066 0
      vertex -0.18837155858793353 2.9940801852848145 0
    endloop
  endfacet
  facet normal -0.48175367410171477 0.8763066800438639 0
    outer loop
      vertex -12.773378746952181 27.144811573980583 -0.85
      vertex -16.074803849369903 25.32983776506045 0
      vertex -12.773378746952181 27.144811573980583 0
    endloop
  endfacet
  facet normal -0.3681245526846781 0.9297764858882515 0
    outer loop
      vertex -9.270509831248422 28.531695488854606 -0.85
      vertex -12.773378746952181 27.144811573980583 0
      vertex -9.270509831248422 28.531695488854606 0
    endloop
  endfacet
  facet normal -0.2486898871648554 0.9685831611286311 0
    outer loop
      vertex -5.621439437571738 29.46861752186066 -0.85
      vertex -9.270509831248422 28.531695488854606 0
      vertex -5.621439437571738 29.46861752186066 0
    endloop
  endfacet
  facet normal -0.1253332335643038 0.9921147013144778 0
    outer loop
      vertex -1.8837155858793984 29.940801852848146 -0.85
      vertex -5.621439437571738 29.46861752186066 0
      vertex -1.8837155858793984 29.940801852848146 0
    endloop
  endfacet
  facet normal 0 0 1
    outer loop
      vertex -5.621439437571738 29.46861752186066 0
      vertex -1.6074803849369903 2.532983776506045 0
      vertex -1.8837155858793984 29.940801852848146 0
    endloop
  endfacet
  facet normal 0 0 1
    outer loop
      vertex -1.8837155858793984 29.940801852848146 0
      vertex -0.18837155858793353 2.9940801852848145 0
      vertex 1.8837155858793984 29.940801852848146 0
    endloop
  endfacet
  facet normal 0 -1 0
    outer loop
      vertex -1.8837155858794128 -29.940801852848146 -0.85
      vertex 1.8837155858794128 -29.940801852848146 -0.85
      vertex 1.8837155858794128 -29.940801852848146 0
    endloop
  endfacet
  facet normal 0.12533323356430498 -0.9921147013144778 0
    outer loop
      vertex 1.8837155858794128 -29.940801852848146 -0.85
      vertex 5.621439437571745 -29.468617521860658 -0.85
      vertex 5.621439437571745 -29.468617521860658 0
    endloop
  endfacet
  facet normal 0.24868988716485496 -0.968583161128631 0
    outer loop
      vertex 5.621439437571745 -29.468617521860658 -0.85
      vertex 9.270509831248422 -28.531695488854606 -0.85
      vertex 9.270509831248422 -28.531695488854606 0
    endloop
  endfacet
  facet normal 0.3681245526846781 -0.9297764858882513 0
    outer loop
      vertex 9.270509831248422 -28.531695488854606 -0.85
      vertex 12.773378746952172 -27.144811573980586 -0.85
      vertex 12.773378746952172 -27.144811573980586 0
    endloop
  endfacet
  facet normal 0.4817536741017143 -0.876306680043864 0
    outer loop
      vertex 12.773378746952172 -27.144811573980586 -0.85
      vertex 16.074803849369886 -25.32983776506046 -0.85
      vertex 16.074803849369886 -25.32983776506046 0
    endloop
  endfacet
  facet normal 0 0 -1
    outer loop
      vertex 1.8837155858794128 -29.940801852848146 -0.85
      vertex -0.08476720136457358 -1.3473360833781667 -0.85
      vertex 0.08476720136457358 -1.3473360833781667 -0.85
    endloop
  endfacet
  facet normal 0 0 -1
    outer loop
      vertex 1.8837155858794128 -29.940801852848146 -0.85
      vertex 0.08476720136457358 -1.3473360833781667 -0.85
      vertex 0.25296477469072853 -1.3260877884837297 -0.85
    endloop
  endfacet
  facet normal 0 0 -1
    outer loop
      vertex 1.8837155858794128 -29.940801852848146 -0.85
      vertex 0.25296477469072853 -1.3260877884837297 -0.85
      vertex 0.417172942406179 -1.2839262969984573 -0.85
    endloop
  endfacet
  facet normal 0 0 -1
    outer loop
      vertex 1.8837155858794128 -29.940801852848146 -0.85
      vertex 0.417172942406179 -1.2839262969984573 -0.85
      vertex 0.5748020436128478 -1.2215165208291265 -0.85
    endloop
  endfacet
  facet normal 0 0 -1
    outer loop
      vertex 1.8837155858794128 -29.940801852848146 -0.85
      vertex 0.5748020436128478 -1.2215165208291265 -0.85
      vertex 0.723366173221645 -1.1398426994277207 -0.85
    endloop
  endfacet
  facet normal 0 0 -1
    outer loop
      vertex 1.8837155858794128 -29.940801852848146 -0.85
      vertex 0.723366173221645 -1.1398426994277207 -0.85
      vertex 0.8605223861607315 -1.0401928777473153 -0.85
    endloop
  endfacet
  facet normal 0 0 -1
    outer loop
      vertex 1.8837155858794128 -29.940801852848146 -0.85
      vertex 0.8605223861607315 -1.0401928777473153 -0.85
      vertex 0.9841076470189059 -0.9241385930037296 -0.85
    endloop
  endfacet
  facet normal 0 0 -1
    outer loop
      vertex 1.8837155858794128 -29.940801852848146 -0.85
      vertex 0.9841076470189059 -0.9241385930037296 -0.85
      vertex 1.0921729424061792 -0.7935100905948388 -0.85
    endloop
  endfacet
  facet normal 0 0 -1
    outer loop
      vertex 1.8837155858794128 -29.940801852848146 -0.85
      vertex 1.0921729424061792 -0.7935100905948388 -0.85
      vertex 1.1830140180592157 -0.6503674600373158 -0.85
    endloop
  endfacet
  facet normal 0 0 -1
    outer loop
      vertex 1.8837155858794128 -29.940801852848146 -0.85
      vertex 1.1830140180592157 -0.6503674600373158 -0.85
      vertex 1.2551982559491393 -0.49696814612431583 -0.85
    endloop
  endfacet
  facet normal 0 0 -1
    outer loop
      vertex 1.8837155858794128 -29.940801852848146 -0.85
      vertex 1.2551982559491393 -0.49696814612431583 -0.85
      vertex 1.3075872675236522 -0.3357313476725535 -0.85
    endloop
  endfacet
  facet normal 0 0 -1
    outer loop
      vertex 1.8837155858794128 -29.940801852848146 -0.85
      vertex 1.3075872675236522 -0.3357313476725535 -0.85
      vertex 1.3393548467745453 -0.1691998653118105 -0.85
    endloop
  endfacet
  facet normal 0 0 -1
    outer loop
      vertex 1.8837155858794128 -29.940801852848146 -0.85
      vertex 1.3393548467745453 -0.1691998653118105 -0.85
      vertex 1.35 0 -0.85
    endloop
  endfacet
  facet normal 0 0 -1
    outer loop
      vertex 1.8837155858794128 -29.940801852848146 -0.85
      vertex 5.621439437571738 29.46861752186066 -0.85
      vertex 5.621439437571745 -29.468617521860658 -0.85
    endloop
  endfacet
  facet normal 0 0 -1
    outer loop
      vertex 5.621439437571745 -29.468617521860658 -0.85
      vertex 9.270509831248422 28.531695488854606 -0.85
      vertex 9.270509831248422 -28.531695488854606 -0.85
    endloop
  endfacet
  facet normal 0 0 -1
    outer loop
      vertex 9.270509831248422 -28.531695488854606 -0.85
      vertex 12.773378746952181 27.144811573980583 -0.85
      vertex 12.773378746952172 -27.144811573980586 -0.85
    endloop
  endfacet
  facet normal 0 0 -1
    outer loop
      vertex 12.773378746952172 -27.144811573980586 -0.85
      vertex 16.0748038493699 25.329837765060454 -0.85
      vertex 16.074803849369886 -25.32983776506046 -0.85
    endloop
  endfacet
  facet normal 0.5877852522924727 -0.8090169943749477 0
    outer loop
      vertex 16.074803849369886 -25.32983776506046 -0.85
      vertex 19.1227196924607 -23.115397283273673 -0.85
      vertex 19.1227196924607 -23.115397283273673 0
    endloop
  endfacet
  facet normal 0.6845471059286891 -0.7289686274214113 0
    outer loop
      vertex 19.1227196924607 -23.115397283273673 -0.85
      vertex 21.86905882264235 -20.536413177860656 -0.85
      vertex 21.86905882264235 -20.536413177860656 0
    endloop
  endfacet
  facet normal 0.7705132427757893 -0.6374239897486899 0
    outer loop
      vertex 21.86905882264235 -20.536413177860656 -0.85
      vertex 24.270509831248425 -17.633557568774194 -0.85
      vertex 21.86905882264235 -20.536413177860656 0
    endloop
  endfacet
  facet normal 0.8443279255020157 -0.5358267949789955 0
    outer loop
      vertex 24.270509831248425 -17.633557568774194 -0.85
      vertex 26.289200401315902 -14.452610223051462 -0.85
      vertex 24.270509831248425 -17.633557568774194 0
    endloop
  endfacet
  facet normal 0 0 -1
    outer loop
      vertex 16.074803849369886 -25.32983776506046 -0.85
      vertex 19.12271969246069 23.115397283273673 -0.85
      vertex 19.1227196924607 -23.115397283273673 -0.85
    endloop
  endfacet
  facet normal 0 0 -1
    outer loop
      vertex 19.1227196924607 -23.115397283273673 -0.85
      vertex 21.869058822642348 20.536413177860663 -0.85
      vertex 21.86905882264235 -20.536413177860656 -0.85
    endloop
  endfacet
  facet normal 0 0 -1
    outer loop
      vertex 21.86905882264235 -20.536413177860656 -0.85
      vertex 24.270509831248425 17.633557568774194 -0.85
      vertex 24.270509831248425 -17.633557568774194 -0.85
    endloop
  endfacet
  facet normal 0 0 -1
    outer loop
      vertex 24.270509831248425 -17.633557568774194 -0.85
      vertex 26.289200401315906 14.45261022305146 -0.85
      vertex 26.289200401315902 -14.452610223051462 -0.85
    endloop
  endfacet
  facet normal 0 0 -1
    outer loop
      vertex 26.289200401315902 -14.452610223051462 -0.85
      vertex 27.89329457664754 11.043736580540338 -0.85
      vertex 27.893294576647538 -11.043736580540351 -0.85
    endloop
  endfacet
  facet normal 0 0 -1
    outer loop
      vertex 27.893294576647538 -11.043736580540351 -0.85
      vertex 29.057494833858932 7.460696614945644 -0.85
      vertex 29.057494833858936 -7.460696614945633 -0.85
    endloop
  endfacet
  facet normal 0 0 -1
    outer loop
      vertex 29.057494833858936 -7.460696614945633 -0.85
      vertex 29.763441039434337 3.7599970069291277 -0.85
      vertex 29.763441039434337 -3.759997006929122 -0.85
    endloop
  endfacet
  facet normal 0.904827052466019 -0.42577929156507366 0
    outer loop
      vertex 26.289200401315902 -14.452610223051462 -0.85
      vertex 27.893294576647538 -11.043736580540351 -0.85
      vertex 26.289200401315902 -14.452610223051462 0
    endloop
  endfacet
  facet normal 0.9510565162951536 -0.3090169943749472 0
    outer loop
      vertex 27.893294576647538 -11.043736580540351 -0.85
      vertex 29.057494833858936 -7.460696614945633 -0.85
      vertex 27.893294576647538 -11.043736580540351 0
    endloop
  endfacet
  facet normal 0.9822872507286887 -0.18738131458572488 0
    outer loop
      vertex 29.057494833858936 -7.460696614945633 -0.85
      vertex 29.763441039434337 -3.759997006929122 -0.85
      vertex 29.057494833858936 -7.460696614945633 0
    endloop
  endfacet
  facet normal 0.9980267284282717 -0.06279051952931293 0
    outer loop
      vertex 29.763441039434337 -3.759997006929122 -0.85
      vertex 30 0 -0.85
      vertex 29.763441039434337 -3.759997006929122 0
    endloop
  endfacet
  facet normal 0.12533323356430498 -0.9921147013144778 0
    outer loop
      vertex 1.8837155858794128 -29.940801852848146 -0.85
      vertex 5.621439437571745 -29.468617521860658 0
      vertex 1.8837155858794128 -29.940801852848146 0
    endloop
  endfacet
  facet normal 0.24868988716485496 -0.968583161128631 0
    outer loop
      vertex 5.621439437571745 -29.468617521860658 -0.85
      vertex 9.270509831248422 -28.531695488854606 0
      vertex 5.621439437571745 -29.468617521860658 0
    endloop
  endfacet
  facet normal 0.3681245526846781 -0.9297764858882513 0
    outer loop
      vertex 9.270509831248422 -28.531695488854606 -0.85
      vertex 12.773378746952172 -27.144811573980586 0
      vertex 9.270509831248422 -28.531695488854606 0
    endloop
  endfacet
  facet normal 0.4817536741017143 -0.876306680043864 0
    outer loop
      vertex 12.773378746952172 -27.144811573980586 -0.85
      vertex 16.074803849369886 -25.32983776506046 0
      vertex 12.773378746952172 -27.144811573980586 0
    endloop
  endfacet
  facet normal 0 0 1
    outer loop
      vertex -1.8837155858794128 -29.940801852848146 0
      vertex 1.8837155858794128 -29.940801852848146 0
      vertex 0.1883715585879413 -2.9940801852848145 0
    endloop
  endfacet
  facet normal 0 0 1
    outer loop
      vertex 1.8837155858794128 -29.940801852848146 0
      vertex 5.621439437571745 -29.468617521860658 0
      vertex 1.6074803849369887 -2.532983776506046 0
    endloop
  endfacet
  facet normal 0 0 1
    outer loop
      vertex 1.8837155858794128 -29.940801852848146 0
      vertex 0.5621439437571745 -2.9468617521860656 0
      vertex 0.1883715585879413 -2.9940801852848145 0
    endloop
  endfacet
  facet normal 0 0 1
    outer loop
      vertex 1.8837155858794128 -29.940801852848146 0
      vertex 0.9270509831248421 -2.8531695488854605 0
      vertex 0.5621439437571745 -2.9468617521860656 0
    endloop
  endfacet
  facet normal 0 0 1
    outer loop
      vertex 1.8837155858794128 -29.940801852848146 0
      vertex 1.2773378746952173 -2.7144811573980587 0
      vertex 0.9270509831248421 -2.8531695488854605 0
    endloop
  endfacet
  facet normal 0 0 1
    outer loop
      vertex 1.8837155858794128 -29.940801852848146 0
      vertex 1.6074803849369887 -2.532983776506046 0
      vertex 1.2773378746952173 -2.7144811573980587 0
    endloop
  endfacet
  facet normal 0 0 1
    outer loop
      vertex 5.621439437571745 -29.468617521860658 0
      vertex 1.91227196924607 -2.311539728327367 0
      vertex 1.6074803849369887 -2.532983776506046 0
    endloop
  endfacet
  facet normal 0 0 1
    outer loop
      vertex 5.621439437571745 -29.468617521860658 0
      vertex 2.186905882264235 -2.0536413177860657 0
      vertex 1.91227196924607 -2.311539728327367 0
    endloop
  endfacet
  facet normal 0 0 1
    outer loop
      vertex 5.621439437571745 -29.468617521860658 0
      vertex 2.4270509831248424 -1.7633557568774194 0
      vertex 2.186905882264235 -2.0536413177860657 0
    endloop
  endfacet
  facet normal 0 0 1
    outer loop
      vertex 5.621439437571745 -29.468617521860658 0
      vertex 2.6289200401315904 -1.445261022305146 0
      vertex 2.4270509831248424 -1.7633557568774194 0
    endloop
  endfacet
  facet normal 0 0 1
    outer loop
      vertex 5.621439437571745 -29.468617521860658 0
      vertex 2.7893294576647536 -1.104373658054035 0
      vertex 2.6289200401315904 -1.445261022305146 0
    endloop
  endfacet
  facet normal 0 0 1
    outer loop
      vertex 5.621439437571745 -29.468617521860658 0
      vertex 2.9057494833858937 -0.7460696614945633 0
      vertex 2.7893294576647536 -1.104373658054035 0
    endloop
  endfacet
  facet normal 0 0 1
    outer loop
      vertex 5.621439437571745 -29.468617521860658 0
      vertex 2.9763441039434335 -0.3759997006929122 0
      vertex 2.9057494833858937 -0.7460696614945633 0
    endloop
  endfacet
  facet normal 0 0 1
    outer loop
      vertex 5.621439437571745 -29.468617521860658 0
      vertex 3 0 0
      vertex 2.9763441039434335 -0.3759997006929122 0
    endloop
  endfacet
  facet normal 0 0 1
    outer loop
      vertex 5.621439437571745 -29.468617521860658 0
      vertex 2.9763441039434335 0.3759997006929128 0
      vertex 3 0 0
    endloop
  endfacet
  facet normal 0 0 1
    outer loop
      vertex 5.621439437571745 -29.468617521860658 0
      vertex 9.270509831248422 -28.531695488854606 0
      vertex 5.621439437571738 29.46861752186066 0
    endloop
  endfacet
  facet normal 0 0 1
    outer loop
      vertex 9.270509831248422 -28.531695488854606 0
      vertex 12.773378746952172 -27.144811573980586 0
      vertex 9.270509831248422 28.531695488854606 0
    endloop
  endfacet
  facet normal 0 0 1
    outer loop
      vertex 12.773378746952172 -27.144811573980586 0
      vertex 16.074803849369886 -25.32983776506046 0
      vertex 12.773378746952181 27.144811573980583 0
    endloop
  endfacet
  facet normal 0.5877852522924727 -0.8090169943749477 0
    outer loop
      vertex 16.074803849369886 -25.32983776506046 -0.85
      vertex 19.1227196924607 -23.115397283273673 0
      vertex 16.074803849369886 -25.32983776506046 0
    endloop
  endfacet
  facet normal 0.6845471059286891 -0.7289686274214113 0
    outer loop
      vertex 19.1227196924607 -23.115397283273673 -0.85
      vertex 21.86905882264235 -20.536413177860656 0
      vertex 19.1227196924607 -23.115397283273673 0
    endloop
  endfacet
  facet normal 0.7705132427757893 -0.6374239897486899 0
    outer loop
      vertex 24.270509831248425 -17.633557568774194 -0.85
      vertex 24.270509831248425 -17.633557568774194 0
      vertex 21.86905882264235 -20.536413177860656 0
    endloop
  endfacet
  facet normal 0.8443279255020157 -0.5358267949789955 0
    outer loop
      vertex 26.289200401315902 -14.452610223051462 -0.85
      vertex 26.289200401315902 -14.452610223051462 0
      vertex 24.270509831248425 -17.633557568774194 0
    endloop
  endfacet
  facet normal 0.904827052466019 -0.42577929156507366 0
    outer loop
      vertex 27.893294576647538 -11.043736580540351 -0.85
      vertex 27.893294576647538 -11.043736580540351 0
      vertex 26.289200401315902 -14.452610223051462 0
    endloop
  endfacet
  facet normal 0.9510565162951536 -0.3090169943749472 0
    outer loop
      vertex 29.057494833858936 -7.460696614945633 -0.85
      vertex 29.057494833858936 -7.460696614945633 0
      vertex 27.893294576647538 -11.043736580540351 0
    endloop
  endfacet
  facet normal 0.9822872507286887 -0.18738131458572488 0
    outer loop
      vertex 29.763441039434337 -3.759997006929122 -0.85
      vertex 29.763441039434337 -3.759997006929122 0
      vertex 29.057494833858936 -7.460696614945633 0
    endloop
  endfacet
  facet normal 0.9980267284282717 -0.06279051952931293 0
    outer loop
      vertex 29.763441039434337 -3.759997006929122 0
      vertex 30 0 -0.85
      vertex 30 0 0
    endloop
  endfacet
  facet normal 0 0 1
    outer loop
      vertex 16.074803849369886 -25.32983776506046 0
      vertex 19.1227196924607 -23.115397283273673 0
      vertex 16.0748038493699 25.329837765060454 0
    endloop
  endfacet
  facet normal 0 0 1
    outer loop
      vertex 19.1227196924607 -23.115397283273673 0
      vertex 21.86905882264235 -20.536413177860656 0
      vertex 19.12271969246069 23.115397283273673 0
    endloop
  endfacet
  facet normal 0 0 1
    outer loop
      vertex 21.86905882264235 -20.536413177860656 0
      vertex 24.270509831248425 -17.633557568774194 0
      vertex 21.869058822642348 20.536413177860663 0
    endloop
  endfacet
  facet normal 0 0 1
    outer loop
      vertex 24.270509831248425 -17.633557568774194 0
      vertex 26.289200401315902 -14.452610223051462 0
      vertex 24.270509831248425 17.633557568774194 0
    endloop
  endfacet
  facet normal 0 0 1
    outer loop
      vertex 26.289200401315902 -14.452610223051462 0
      vertex 27.893294576647538 -11.043736580540351 0
      vertex 26.289200401315906 14.45261022305146 0
    endloop
  endfacet
  facet normal 0 0 1
    outer loop
      vertex 27.893294576647538 -11.043736580540351 0
      vertex 29.057494833858936 -7.460696614945633 0
      vertex 27.89329457664754 11.043736580540338 0
    endloop
  endfacet
  facet normal 0 0 1
    outer loop
      vertex 29.057494833858936 -7.460696614945633 0
      vertex 29.763441039434337 -3.759997006929122 0
      vertex 29.057494833858932 7.460696614945644 0
    endloop
  endfacet
  facet normal 0 0 -1
    outer loop
      vertex 1.8837155858794128 -29.940801852848146 -0.85
      vertex 1.35 0 -0.85
      vertex 1.8837155858793984 29.940801852848146 -0.85
    endloop
  endfacet
  facet normal 0 0 -1
    outer loop
      vertex 1.8837155858793984 29.940801852848146 -0.85
      vertex 0.2529647746907282 1.3260877884837299 -0.85
      vertex 0.08476720136456621 1.3473360833781667 -0.85
    endloop
  endfacet
  facet normal 0 0 -1
    outer loop
      vertex 1.8837155858793984 29.940801852848146 -0.85
      vertex 0.417172942406179 1.2839262969984573 -0.85
      vertex 0.2529647746907282 1.3260877884837299 -0.85
    endloop
  endfacet
  facet normal 0 0 -1
    outer loop
      vertex 1.8837155858793984 29.940801852848146 -0.85
      vertex 1.35 0 -0.85
      vertex 1.3393548467745453 0.16919986531181075 -0.85
    endloop
  endfacet
  facet normal 0 0 -1
    outer loop
      vertex 1.8837155858793984 29.940801852848146 -0.85
      vertex 1.3393548467745453 0.16919986531181075 -0.85
      vertex 1.307587267523652 0.33573134767255397 -0.85
    endloop
  endfacet
  facet normal 0 0 -1
    outer loop
      vertex 1.8837155858793984 29.940801852848146 -0.85
      vertex 1.307587267523652 0.33573134767255397 -0.85
      vertex 1.2551982559491395 0.4969681461243153 -0.85
    endloop
  endfacet
  facet normal 0 0 -1
    outer loop
      vertex 1.8837155858793984 29.940801852848146 -0.85
      vertex 0.8605223861607312 1.0401928777473155 -0.85
      vertex 0.7233661732216455 1.1398426994277204 -0.85
    endloop
  endfacet
  facet normal 0 0 -1
    outer loop
      vertex 1.8837155858793984 29.940801852848146 -0.85
      vertex 1.183014018059216 0.6503674600373157 -0.85
      vertex 1.0921729424061792 0.7935100905948388 -0.85
    endloop
  endfacet
  facet normal 0 0 -1
    outer loop
      vertex 1.8837155858793984 29.940801852848146 -0.85
      vertex 0.9841076470189056 0.9241385930037298 -0.85
      vertex 0.8605223861607312 1.0401928777473155 -0.85
    endloop
  endfacet
  facet normal 0 0 -1
    outer loop
      vertex 1.8837155858793984 29.940801852848146 -0.85
      vertex 1.0921729424061792 0.7935100905948388 -0.85
      vertex 0.9841076470189056 0.9241385930037298 -0.85
    endloop
  endfacet
  facet normal 0 0 -1
    outer loop
      vertex 1.8837155858793984 29.940801852848146 -0.85
      vertex 0.5748020436128483 1.2215165208291263 -0.85
      vertex 0.417172942406179 1.2839262969984573 -0.85
    endloop
  endfacet
  facet normal 0 0 -1
    outer loop
      vertex 1.8837155858793984 29.940801852848146 -0.85
      vertex 0.7233661732216455 1.1398426994277204 -0.85
      vertex 0.5748020436128483 1.2215165208291263 -0.85
    endloop
  endfacet
  facet normal 0 0 -1
    outer loop
      vertex 1.8837155858793984 29.940801852848146 -0.85
      vertex 1.2551982559491395 0.4969681461243153 -0.85
      vertex 1.183014018059216 0.6503674600373157 -0.85
    endloop
  endfacet
  facet normal 0 0 -1
    outer loop
      vertex 1.8837155858794128 -29.940801852848146 -0.85
      vertex 1.8837155858793984 29.940801852848146 -0.85
      vertex 5.621439437571738 29.46861752186066 -0.85
    endloop
  endfacet
  facet normal 0 0 -1
    outer loop
      vertex 5.621439437571745 -29.468617521860658 -0.85
      vertex 5.621439437571738 29.46861752186066 -0.85
      vertex 9.270509831248422 28.531695488854606 -0.85
    endloop
  endfacet
  facet normal 0 0 -1
    outer loop
      vertex 9.270509831248422 -28.531695488854606 -0.85
      vertex 9.270509831248422 28.531695488854606 -0.85
      vertex 12.773378746952181 27.144811573980583 -0.85
    endloop
  endfacet
  facet normal 0 0 -1
    outer loop
      vertex 12.773378746952172 -27.144811573980586 -0.85
      vertex 12.773378746952181 27.144811573980583 -0.85
      vertex 16.0748038493699 25.329837765060454 -0.85
    endloop
  endfacet
  facet normal 0 0 -1
    outer loop
      vertex -1.8837155858793984 29.940801852848146 -0.85
      vertex 1.8837155858793984 29.940801852848146 -0.85
      vertex 0.08476720136456621 1.3473360833781667 -0.85
    endloop
  endfacet
  facet normal 0.1253332335643038 0.9921147013144778 0
    outer loop
      vertex 1.8837155858793984 29.940801852848146 -0.85
      vertex 1.8837155858793984 29.940801852848146 0
      vertex 5.621439437571738 29.46861752186066 -0.85
    endloop
  endfacet
  facet normal 0.2486898871648554 0.9685831611286311 0
    outer loop
      vertex 5.621439437571738 29.46861752186066 -0.85
      vertex 5.621439437571738 29.46861752186066 0
      vertex 9.270509831248422 28.531695488854606 -0.85
    endloop
  endfacet
  facet normal 0.3681245526846781 0.9297764858882515 0
    outer loop
      vertex 9.270509831248422 28.531695488854606 -0.85
      vertex 9.270509831248422 28.531695488854606 0
      vertex 12.773378746952181 27.144811573980583 -0.85
    endloop
  endfacet
  facet normal 0.4817536741017144 0.876306680043864 0
    outer loop
      vertex 12.773378746952181 27.144811573980583 -0.85
      vertex 12.773378746952181 27.144811573980583 0
      vertex 16.0748038493699 25.329837765060454 -0.85
    endloop
  endfacet
  facet normal 0 0 -1
    outer loop
      vertex 19.1227196924607 -23.115397283273673 -0.85
      vertex 19.12271969246069 23.115397283273673 -0.85
      vertex 21.869058822642348 20.536413177860663 -0.85
    endloop
  endfacet
  facet normal 0 0 -1
    outer loop
      vertex 16.074803849369886 -25.32983776506046 -0.85
      vertex 16.0748038493699 25.329837765060454 -0.85
      vertex 19.12271969246069 23.115397283273673 -0.85
    endloop
  endfacet
  facet normal 0 0 -1
    outer loop
      vertex 21.86905882264235 -20.536413177860656 -0.85
      vertex 21.869058822642348 20.536413177860663 -0.85
      vertex 24.270509831248425 17.633557568774194 -0.85
    endloop
  endfacet
  facet normal 0 0 -1
    outer loop
      vertex 24.270509831248425 -17.633557568774194 -0.85
      vertex 24.270509831248425 17.633557568774194 -0.85
      vertex 26.289200401315906 14.45261022305146 -0.85
    endloop
  endfacet
  facet normal 0 0 -1
    outer loop
      vertex 26.289200401315902 -14.452610223051462 -0.85
      vertex 26.289200401315906 14.45261022305146 -0.85
      vertex 27.89329457664754 11.043736580540338 -0.85
    endloop
  endfacet
  facet normal 0 0 -1
    outer loop
      vertex 29.763441039434337 -3.759997006929122 -0.85
      vertex 29.763441039434337 3.7599970069291277 -0.85
      vertex 30 0 -0.85
    endloop
  endfacet
  facet normal 0 0 -1
    outer loop
      vertex 29.057494833858936 -7.460696614945633 -0.85
      vertex 29.057494833858932 7.460696614945644 -0.85
      vertex 29.763441039434337 3.7599970069291277 -0.85
    endloop
  endfacet
  facet normal 0 0 -1
    outer loop
      vertex 27.893294576647538 -11.043736580540351 -0.85
      vertex 27.89329457664754 11.043736580540338 -0.85
      vertex 29.057494833858932 7.460696614945644 -0.85
    endloop
  endfacet
  facet normal 0.9980267284282717 0.06279051952931283 0
    outer loop
      vertex 30 0 -0.85
      vertex 29.763441039434337 3.7599970069291277 -0.85
      vertex 30 0 0
    endloop
  endfacet
  facet normal 0.9822872507286886 0.18738131458572546 0
    outer loop
      vertex 29.763441039434337 3.7599970069291277 -0.85
      vertex 29.057494833858932 7.460696614945644 -0.85
      vertex 29.763441039434337 3.7599970069291277 0
    endloop
  endfacet
  facet normal 0.9510565162951535 0.3090169943749474 0
    outer loop
      vertex 29.057494833858932 7.460696614945644 -0.85
      vertex 27.89329457664754 11.043736580540338 -0.85
      vertex 29.057494833858932 7.460696614945644 0
    endloop
  endfacet
  facet normal 0.9048270524660196 0.42577929156507266 0
    outer loop
      vertex 27.89329457664754 11.043736580540338 -0.85
      vertex 26.289200401315906 14.45261022305146 -0.85
      vertex 27.89329457664754 11.043736580540338 0
    endloop
  endfacet
  facet normal 0.6845471059286875 0.7289686274214127 0
    outer loop
      vertex 21.869058822642348 20.536413177860663 -0.85
      vertex 19.12271969246069 23.115397283273673 -0.85
      vertex 19.12271969246069 23.115397283273673 0
    endloop
  endfacet
  facet normal 0.5877852522924742 0.8090169943749467 0
    outer loop
      vertex 16.0748038493699 25.329837765060454 -0.85
      vertex 16.0748038493699 25.329837765060454 0
      vertex 19.12271969246069 23.115397283273673 -0.85
    endloop
  endfacet
  facet normal 0.7705132427757896 0.6374239897486894 0
    outer loop
      vertex 21.869058822642348 20.536413177860663 -0.85
      vertex 24.270509831248425 17.633557568774194 0
      vertex 24.270509831248425 17.633557568774194 -0.85
    endloop
  endfacet
  facet normal 0.8443279255020154 0.5358267949789961 0
    outer loop
      vertex 26.289200401315906 14.45261022305146 -0.85
      vertex 24.270509831248425 17.633557568774194 -0.85
      vertex 26.289200401315906 14.45261022305146 0
    endloop
  endfacet
  facet normal 0 0 1
    outer loop
      vertex 5.621439437571745 -29.468617521860658 0
      vertex 1.8837155858793984 29.940801852848146 0
      vertex 2.9763441039434335 0.3759997006929128 0
    endloop
  endfacet
  facet normal 0 0 1
    outer loop
      vertex 1.8837155858793984 29.940801852848146 0
      vertex 2.4270509831248424 1.7633557568774194 0
      vertex 2.628920040131591 1.445261022305146 0
    endloop
  endfacet
  facet normal 0 0 1
    outer loop
      vertex 1.8837155858793984 29.940801852848146 0
      vertex 2.789329457664754 1.104373658054034 0
      vertex 2.9057494833858932 0.7460696614945643 0
    endloop
  endfacet
  facet normal 0 0 1
    outer loop
      vertex 1.8837155858793984 29.940801852848146 0
      vertex 2.9057494833858932 0.7460696614945643 0
      vertex 2.9763441039434335 0.3759997006929128 0
    endloop
  endfacet
  facet normal 0 0 1
    outer loop
      vertex 1.8837155858793984 29.940801852848146 0
      vertex 2.628920040131591 1.445261022305146 0
      vertex 2.789329457664754 1.104373658054034 0
    endloop
  endfacet
  facet normal 0 0 1
    outer loop
      vertex 1.8837155858793984 29.940801852848146 0
      vertex -0.18837155858793353 2.9940801852848145 0
      vertex 0.18837155858793983 2.9940801852848145 0
    endloop
  endfacet
  facet normal 0 0 1
    outer loop
      vertex 1.8837155858793984 29.940801852848146 0
      vertex 0.18837155858793983 2.9940801852848145 0
      vertex 0.5621439437571737 2.946861752186066 0
    endloop
  endfacet
  facet normal 0 0 1
    outer loop
      vertex 1.8837155858793984 29.940801852848146 0
      vertex 0.5621439437571737 2.946861752186066 0
      vertex 0.9270509831248421 2.8531695488854605 0
    endloop
  endfacet
  facet normal 0 0 1
    outer loop
      vertex 1.8837155858793984 29.940801852848146 0
      vertex 0.9270509831248421 2.8531695488854605 0
      vertex 1.2773378746952182 2.7144811573980583 0
    endloop
  endfacet
  facet normal 0 0 1
    outer loop
      vertex 1.8837155858793984 29.940801852848146 0
      vertex 1.60748038493699 2.532983776506045 0
      vertex 1.9122719692460692 2.3115397283273675 0
    endloop
  endfacet
  facet normal 0 0 1
    outer loop
      vertex 1.8837155858793984 29.940801852848146 0
      vertex 1.2773378746952182 2.7144811573980583 0
      vertex 1.60748038493699 2.532983776506045 0
    endloop
  endfacet
  facet normal 0 0 1
    outer loop
      vertex 1.8837155858793984 29.940801852848146 0
      vertex 1.9122719692460692 2.3115397283273675 0
      vertex 2.1869058822642344 2.053641317786066 0
    endloop
  endfacet
  facet normal 0 0 1
    outer loop
      vertex 1.8837155858793984 29.940801852848146 0
      vertex 2.1869058822642344 2.053641317786066 0
      vertex 2.4270509831248424 1.7633557568774194 0
    endloop
  endfacet
  facet normal 0 0 1
    outer loop
      vertex 5.621439437571745 -29.468617521860658 0
      vertex 5.621439437571738 29.46861752186066 0
      vertex 1.8837155858793984 29.940801852848146 0
    endloop
  endfacet
  facet normal 0 0 1
    outer loop
      vertex 9.270509831248422 -28.531695488854606 0
      vertex 9.270509831248422 28.531695488854606 0
      vertex 5.621439437571738 29.46861752186066 0
    endloop
  endfacet
  facet normal 0 0 1
    outer loop
      vertex 12.773378746952172 -27.144811573980586 0
      vertex 12.773378746952181 27.144811573980583 0
      vertex 9.270509831248422 28.531695488854606 0
    endloop
  endfacet
  facet normal 0 0 1
    outer loop
      vertex 16.074803849369886 -25.32983776506046 0
      vertex 16.0748038493699 25.329837765060454 0
      vertex 12.773378746952181 27.144811573980583 0
    endloop
  endfacet
  facet normal 0 1 0
    outer loop
      vertex -1.8837155858793984 29.940801852848146 0
      vertex 1.8837155858793984 29.940801852848146 0
      vertex 1.8837155858793984 29.940801852848146 -0.85
    endloop
  endfacet
  facet normal 0.1253332335643038 0.9921147013144778 0
    outer loop
      vertex 5.621439437571738 29.46861752186066 -0.85
      vertex 1.8837155858793984 29.940801852848146 0
      vertex 5.621439437571738 29.46861752186066 0
    endloop
  endfacet
  facet normal 0.2486898871648554 0.9685831611286311 0
    outer loop
      vertex 9.270509831248422 28.531695488854606 -0.85
      vertex 5.621439437571738 29.46861752186066 0
      vertex 9.270509831248422 28.531695488854606 0
    endloop
  endfacet
  facet normal 0.4817536741017144 0.876306680043864 0
    outer loop
      vertex 16.0748038493699 25.329837765060454 -0.85
      vertex 12.773378746952181 27.144811573980583 0
      vertex 16.0748038493699 25.329837765060454 0
    endloop
  endfacet
  facet normal 0.3681245526846781 0.9297764858882515 0
    outer loop
      vertex 12.773378746952181 27.144811573980583 -0.85
      vertex 9.270509831248422 28.531695488854606 0
      vertex 12.773378746952181 27.144811573980583 0
    endloop
  endfacet
  facet normal 0.9980267284282717 0.06279051952931283 0
    outer loop
      vertex 29.763441039434337 3.7599970069291277 -0.85
      vertex 29.763441039434337 3.7599970069291277 0
      vertex 30 0 0
    endloop
  endfacet
  facet normal 0.9822872507286886 0.18738131458572546 0
    outer loop
      vertex 29.057494833858932 7.460696614945644 -0.85
      vertex 29.057494833858932 7.460696614945644 0
      vertex 29.763441039434337 3.7599970069291277 0
    endloop
  endfacet
  facet normal 0.9510565162951535 0.3090169943749474 0
    outer loop
      vertex 27.89329457664754 11.043736580540338 -0.85
      vertex 27.89329457664754 11.043736580540338 0
      vertex 29.057494833858932 7.460696614945644 0
    endloop
  endfacet
  facet normal 0.9048270524660196 0.42577929156507266 0
    outer loop
      vertex 26.289200401315906 14.45261022305146 -0.85
      vertex 26.289200401315906 14.45261022305146 0
      vertex 27.89329457664754 11.043736580540338 0
    endloop
  endfacet
  facet normal 0 0 1
    outer loop
      vertex 19.1227196924607 -23.115397283273673 0
      vertex 19.12271969246069 23.115397283273673 0
      vertex 16.0748038493699 25.329837765060454 0
    endloop
  endfacet
  facet normal 0 0 1
    outer loop
      vertex 21.86905882264235 -20.536413177860656 0
      vertex 21.869058822642348 20.536413177860663 0
      vertex 19.12271969246069 23.115397283273673 0
    endloop
  endfacet
  facet normal 0 0 1
    outer loop
      vertex 24.270509831248425 -17.633557568774194 0
      vertex 24.270509831248425 17.633557568774194 0
      vertex 21.869058822642348 20.536413177860663 0
    endloop
  endfacet
  facet normal 0 0 1
    outer loop
      vertex 26.289200401315902 -14.452610223051462 0
      vertex 26.289200401315906 14.45261022305146 0
      vertex 24.270509831248425 17.633557568774194 0
    endloop
  endfacet
  facet normal 0 0 1
    outer loop
      vertex 29.763441039434337 -3.759997006929122 0
      vertex 30 0 0
      vertex 29.763441039434337 3.7599970069291277 0
    endloop
  endfacet
  facet normal 0 0 1
    outer loop
      vertex 29.057494833858936 -7.460696614945633 0
      vertex 29.057494833858932 7.460696614945644 0
      vertex 27.89329457664754 11.043736580540338 0
    endloop
  endfacet
  facet normal 0 0 1
    outer loop
      vertex 29.763441039434337 -3.759997006929122 0
      vertex 29.763441039434337 3.7599970069291277 0
      vertex 29.057494833858932 7.460696614945644 0
    endloop
  endfacet
  facet normal 0 0 1
    outer loop
      vertex 27.893294576647538 -11.043736580540351 0
      vertex 27.89329457664754 11.043736580540338 0
      vertex 26.289200401315906 14.45261022305146 0
    endloop
  endfacet
  facet normal 0.6845471059286875 0.7289686274214127 0
    outer loop
      vertex 21.869058822642348 20.536413177860663 -0.85
      vertex 19.12271969246069 23.115397283273673 0
      vertex 21.869058822642348 20.536413177860663 0
    endloop
  endfacet
  facet normal 0.5877852522924742 0.8090169943749467 0
    outer loop
      vertex 19.12271969246069 23.115397283273673 -0.85
      vertex 16.0748038493699 25.329837765060454 0
      vertex 19.12271969246069 23.115397283273673 0
    endloop
  endfacet
  facet normal 0.8443279255020154 0.5358267949789961 0
    outer loop
      vertex 24.270509831248425 17.633557568774194 -0.85
      vertex 24.270509831248425 17.633557568774194 0
      vertex 26.289200401315906 14.45261022305146 0
    endloop
  endfacet
  facet normal 0.7705132427757896 0.6374239897486894 0
    outer loop
      vertex 21.869058822642348 20.536413177860663 -0.85
      vertex 21.869058822642348 20.536413177860663 0
      vertex 24.270509831248425 17.633557568774194 0
    endloop
  endfacet
endsolid OpenSCAD_Model
