solid OpenSCAD_Model
  facet normal 0.5730438679507941 0.6102297391289583 0.5470286929280734
    outer loop
      vertex -2.57742478981142 -2.4203629816764347 -3
      vertex -4.009327450817764 -3.765009082607787 0
      vertex -2.2537491066114383 -2.7243146798143982 -3
    endloop
  endfacet
  facet normal 0.7067986060537782 0.44854803487902994 0.5470286929280733
    outer loop
      vertex -2.860452944397136 -2.078240713462673 -3
      vertex -3.0983700472979456 -1.7033433477167794 -3
      vertex -4.819686740241249 -2.6496452075594346 0
    endloop
  endfacet
  facet normal 0.7574432635548358 0.356425744873744 0.5470286929280734
    outer loop
      vertex -3.0983700472979456 -1.7033433477167794 -3
      vertex -3.2874240036763176 -1.3015832398493967 -3
      vertex -5.113770672385383 -2.0246850397657283 0
    endloop
  endfacet
  facet normal 0.6450073123142291 0.5335964544246691 0.5470286929280734
    outer loop
      vertex -2.57742478981142 -2.4203629816764347 -3
      vertex -2.860452944397136 -2.078240713462673 -3
      vertex -4.449593469062211 -3.232818887608602 0
    endloop
  endfacet
  facet normal 0.7961425883149614 0.25868240795337677 0.5470286929280735
    outer loop
      vertex -3.2874240036763176 -1.3015832398493967 -3
      vertex -3.4246333197048027 -0.879296386761451 -3
      vertex -5.327207386207471 -1.3677943794067016 0
    endloop
  endfacet
  facet normal 0.8222862688648305 0.1568594949302059 0.5470286929280734
    outer loop
      vertex -3.4246333197048027 -0.879296386761451 -3
      vertex -3.507834122504761 -0.44314250438807506 -3
      vertex -5.456630857229628 -0.6893327846036723 0
    endloop
  endfacet
  facet normal 0.835462003744694 0.05256281396866475 0.5470286929280735
    outer loop
      vertex -3.507834122504761 -0.44314250438807506 -3
      vertex -3.5357142857142856 0 -3
      vertex -5.5 0 0
    endloop
  endfacet
  facet normal 0.49204317946996057 0.6772393363136074 0.5470286929280735
    outer loop
      vertex -2.2537491066114383 -2.7243146798143982 -3
      vertex -3.505831943617793 -4.237822835266842 0
      vertex -1.8945304536757388 -2.9853023080249814 -3
    endloop
  endfacet
  facet normal 0.4032826761165386 0.7335684646014213 0.5470286929280734
    outer loop
      vertex -1.8945304536757388 -2.9853023080249814 -3
      vertex -2.341786103607898 -4.9765487885631075 0
      vertex -1.5054339237479346 -3.199209935504855 -3
    endloop
  endfacet
  facet normal 0.30816216405136493 0.778328779989911 0.5470286929280733
    outer loop
      vertex -1.0925958015399928 -3.3626641111864357 -3
      vertex -1.5054339237479346 -3.199209935504855 -3
      vertex -1.6995934690622108 -5.230810839623344 0
    endloop
  endfacet
  facet normal 0.20818175057194813 0.8108143855668833 0.5470286929280734
    outer loop
      vertex -1.0925958015399928 -3.3626641111864357 -3
      vertex -1.0305972302214865 -5.402579879007788 0
      vertex -0.6625267908566699 -3.473087065076435 -3
    endloop
  endfacet
  facet normal 0.1049181865242622 0.83051296392643 0.5470286929280734
    outer loop
      vertex -1.0305972302214865 -5.402579879007788 0
      vertex -0.22200933690721653 -3.528737361228532 -3
      vertex -0.6625267908566699 -3.473087065076435 -3
    endloop
  endfacet
  facet normal 0 0.8371138567204605 0.5470286929280734
    outer loop
      vertex -0.3453478574112257 -5.489147006355494 0
      vertex 0.22200933690721653 -3.528737361228532 -3
      vertex -0.22200933690721653 -3.528737361228532 -3
    endloop
  endfacet
  facet normal 0.6450073123142293 0.5335964544246691 0.5470286929280734
    outer loop
      vertex -4.449593469062211 -3.232818887608602 0
      vertex -4.009327450817764 -3.765009082607787 0
      vertex -2.57742478981142 -2.4203629816764347 -3
    endloop
  endfacet
  facet normal 0.5730438679507945 0.6102297391289577 0.5470286929280734
    outer loop
      vertex -4.009327450817764 -3.765009082607787 0
      vertex -3.505831943617793 -4.237822835266842 0
      vertex -2.2537491066114383 -2.7243146798143982 -3
    endloop
  endfacet
  facet normal 0.7574432635548359 0.35642574487374357 0.5470286929280734
    outer loop
      vertex -3.0983700472979456 -1.7033433477167794 -3
      vertex -5.113770672385383 -2.0246850397657283 0
      vertex -4.819686740241249 -2.6496452075594346 0
    endloop
  endfacet
  facet normal 0.7961425883149614 0.25868240795337716 0.5470286929280733
    outer loop
      vertex -3.2874240036763176 -1.3015832398493967 -3
      vertex -5.327207386207471 -1.3677943794067016 0
      vertex -5.113770672385383 -2.0246850397657283 0
    endloop
  endfacet
  facet normal 0.8222862688648304 0.15685949493020604 0.5470286929280735
    outer loop
      vertex -3.4246333197048027 -0.879296386761451 -3
      vertex -5.456630857229628 -0.6893327846036723 0
      vertex -5.327207386207471 -1.3677943794067016 0
    endloop
  endfacet
  facet normal 0.8354620037446939 0.05256281396866475 0.5470286929280734
    outer loop
      vertex -3.507834122504761 -0.44314250438807506 -3
      vertex -5.5 0 0
      vertex -5.456630857229628 -0.6893327846036723 0
    endloop
  endfacet
  facet normal 0.7067986060537781 0.44854803487903017 0.5470286929280733
    outer loop
      vertex -4.819686740241249 -2.6496452075594346 0
      vertex -4.449593469062211 -3.232818887608602 0
      vertex -2.860452944397136 -2.078240713462673 -3
    endloop
  endfacet
  facet normal 0.30816216405136476 0.778328779989911 0.5470286929280734
    outer loop
      vertex -1.5054339237479346 -3.199209935504855 -3
      vertex -2.341786103607898 -4.9765487885631075 0
      vertex -1.6995934690622108 -5.230810839623344 0
    endloop
  endfacet
  facet normal 0.4920431794699602 0.677239336313608 0.5470286929280734
    outer loop
      vertex -3.505831943617793 -4.237822835266842 0
      vertex -2.9470473723844823 -4.643803590261082 0
      vertex -1.8945304536757388 -2.9853023080249814 -3
    endloop
  endfacet
  facet normal 0.4032826761165385 0.7335684646014213 0.5470286929280733
    outer loop
      vertex -2.9470473723844823 -4.643803590261082 0
      vertex -2.341786103607898 -4.9765487885631075 0
      vertex -1.8945304536757388 -2.9853023080249814 -3
    endloop
  endfacet
  facet normal 0.20818175057194854 0.8108143855668833 0.5470286929280733
    outer loop
      vertex -1.6995934690622108 -5.230810839623344 0
      vertex -1.0305972302214865 -5.402579879007788 0
      vertex -1.0925958015399928 -3.3626641111864357 -3
    endloop
  endfacet
  facet normal 0.10491818652426159 0.8305129639264301 0.5470286929280734
    outer loop
      vertex -1.0305972302214865 -5.402579879007788 0
      vertex -0.3453478574112257 -5.489147006355494 0
      vertex -0.22200933690721653 -3.528737361228532 -3
    endloop
  endfacet
  facet normal 0.8354620037446939 -0.05256281396866476 0.5470286929280734
    outer loop
      vertex -3.507834122504761 0.443142504388075 -3
      vertex -5.456630857229628 0.6893327846036723 0
      vertex -3.5357142857142856 0 -3
    endloop
  endfacet
  facet normal 0.8222862688648307 -0.1568594949302051 0.5470286929280733
    outer loop
      vertex -3.424633319704803 0.879296386761451 -3
      vertex -5.327207386207471 1.3677943794067016 0
      vertex -3.507834122504761 0.443142504388075 -3
    endloop
  endfacet
  facet normal 0.7961425883149612 -0.25868240795337755 0.5470286929280734
    outer loop
      vertex -3.2874240036763176 1.3015832398493967 -3
      vertex -5.113770672385383 2.0246850397657283 0
      vertex -3.424633319704803 0.879296386761451 -3
    endloop
  endfacet
  facet normal 0.7574432635548358 -0.356425744873744 0.5470286929280734
    outer loop
      vertex -3.0983700472979456 1.7033433477167794 -3
      vertex -4.819686740241249 2.6496452075594346 0
      vertex -3.2874240036763176 1.3015832398493967 -3
    endloop
  endfacet
  facet normal 0.7067986060537783 -0.44854803487903 0.5470286929280733
    outer loop
      vertex -2.860452944397136 2.078240713462673 -3
      vertex -4.449593469062211 3.232818887608602 0
      vertex -3.0983700472979456 1.7033433477167794 -3
    endloop
  endfacet
  facet normal 0.6450073123142291 -0.5335964544246691 0.5470286929280734
    outer loop
      vertex -2.860452944397136 2.078240713462673 -3
      vertex -2.57742478981142 2.4203629816764347 -3
      vertex -4.449593469062211 3.232818887608602 0
    endloop
  endfacet
  facet normal 0.5730438679507945 -0.6102297391289578 0.5470286929280734
    outer loop
      vertex -2.57742478981142 2.4203629816764347 -3
      vertex -2.2537491066114383 2.7243146798143987 -3
      vertex -3.505831943617793 4.237822835266842 0
    endloop
  endfacet
  facet normal 0.49204317946995985 -0.677239336313608 0.5470286929280734
    outer loop
      vertex -2.2537491066114383 2.7243146798143987 -3
      vertex -1.8945304536757386 2.9853023080249814 -3
      vertex -2.9470473723844823 4.643803590261082 0
    endloop
  endfacet
  facet normal 0.4032826761165397 -0.7335684646014207 0.5470286929280733
    outer loop
      vertex -1.8945304536757386 2.9853023080249814 -3
      vertex -1.5054339237479357 3.199209935504855 -3
      vertex -2.3417861036079 4.9765487885631075 0
    endloop
  endfacet
  facet normal 0.3081621640513641 -0.7783287799899113 0.5470286929280734
    outer loop
      vertex -1.5054339237479357 3.199209935504855 -3
      vertex -1.0925958015399926 3.3626641111864357 -3
      vertex -1.6995934690622108 5.230810839623344 0
    endloop
  endfacet
  facet normal 0.2081817505719476 -0.8108143855668836 0.5470286929280734
    outer loop
      vertex -1.0305972302214852 5.402579879007788 0
      vertex -1.0925958015399926 3.3626641111864357 -3
      vertex -0.6625267908566691 3.473087065076435 -3
    endloop
  endfacet
  facet normal 0.10491818652426202 -0.8305129639264301 0.5470286929280732
    outer loop
      vertex -0.345347857411219 5.489147006355494 0
      vertex -0.6625267908566691 3.473087065076435 -3
      vertex -0.2220093369072148 3.528737361228532 -3
    endloop
  endfacet
  facet normal 0.8354620037446939 -0.05256281396866475 0.5470286929280734
    outer loop
      vertex -5.456630857229628 0.6893327846036723 0
      vertex -5.5 0 0
      vertex -3.5357142857142856 0 -3
    endloop
  endfacet
  facet normal 0.8222862688648304 -0.15685949493020604 0.5470286929280735
    outer loop
      vertex -5.327207386207471 1.3677943794067016 0
      vertex -5.456630857229628 0.6893327846036723 0
      vertex -3.507834122504761 0.443142504388075 -3
    endloop
  endfacet
  facet normal 0.7961425883149614 -0.25868240795337716 0.5470286929280733
    outer loop
      vertex -5.113770672385383 2.0246850397657283 0
      vertex -5.327207386207471 1.3677943794067016 0
      vertex -3.424633319704803 0.879296386761451 -3
    endloop
  endfacet
  facet normal 0.7574432635548358 -0.3564257448737439 0.5470286929280734
    outer loop
      vertex -4.819686740241249 2.6496452075594346 0
      vertex -5.113770672385383 2.0246850397657283 0
      vertex -3.2874240036763176 1.3015832398493967 -3
    endloop
  endfacet
  facet normal 0.7067986060537781 -0.44854803487903017 0.5470286929280733
    outer loop
      vertex -4.449593469062211 3.232818887608602 0
      vertex -4.819686740241249 2.6496452075594346 0
      vertex -3.0983700472979456 1.7033433477167794 -3
    endloop
  endfacet
  facet normal 0.6450073123142293 -0.5335964544246691 0.5470286929280734
    outer loop
      vertex -4.009327450817764 3.765009082607787 0
      vertex -4.449593469062211 3.232818887608602 0
      vertex -2.57742478981142 2.4203629816764347 -3
    endloop
  endfacet
  facet normal 0.5730438679507946 -0.6102297391289578 0.5470286929280734
    outer loop
      vertex -4.009327450817764 3.765009082607787 0
      vertex -2.57742478981142 2.4203629816764347 -3
      vertex -3.505831943617793 4.237822835266842 0
    endloop
  endfacet
  facet normal 0.4920431794699602 -0.677239336313608 0.5470286929280735
    outer loop
      vertex -2.9470473723844823 4.643803590261082 0
      vertex -3.505831943617793 4.237822835266842 0
      vertex -2.2537491066114383 2.7243146798143987 -3
    endloop
  endfacet
  facet normal 0.40328267611653934 -0.7335684646014209 0.5470286929280732
    outer loop
      vertex -1.8945304536757386 2.9853023080249814 -3
      vertex -2.3417861036079 4.9765487885631075 0
      vertex -2.9470473723844823 4.643803590261082 0
    endloop
  endfacet
  facet normal 0.3081621640513644 -0.7783287799899112 0.5470286929280734
    outer loop
      vertex -1.6995934690622108 5.230810839623344 0
      vertex -2.3417861036079 4.9765487885631075 0
      vertex -1.5054339237479357 3.199209935504855 -3
    endloop
  endfacet
  facet normal 0.20818175057194818 -0.8108143855668833 0.5470286929280734
    outer loop
      vertex -1.0305972302214852 5.402579879007788 0
      vertex -1.6995934690622108 5.230810839623344 0
      vertex -1.0925958015399926 3.3626641111864357 -3
    endloop
  endfacet
  facet normal 0.10491818652426077 -0.8305129639264303 0.5470286929280734
    outer loop
      vertex -0.345347857411219 5.489147006355494 0
      vertex -1.0305972302214852 5.402579879007788 0
      vertex -0.6625267908566691 3.473087065076435 -3
    endloop
  endfacet
  facet normal 0 -0.8371138567204605 0.5470286929280734
    outer loop
      vertex -0.345347857411219 5.489147006355494 0
      vertex -0.2220093369072148 3.528737361228532 -3
      vertex 0.34534785741122304 5.489147006355494 0
    endloop
  endfacet
  facet normal -0.10491818652426196 0.8305129639264301 0.5470286929280735
    outer loop
      vertex 0.22200933690721653 -3.528737361228532 -3
      vertex 0.3453478574112257 -5.489147006355494 0
      vertex 0.6625267908566699 -3.473087065076435 -3
    endloop
  endfacet
  facet normal -0.20818175057194813 0.8108143855668833 0.5470286929280734
    outer loop
      vertex 1.0925958015399928 -3.3626641111864357 -3
      vertex 0.6625267908566699 -3.473087065076435 -3
      vertex 1.0305972302214865 -5.402579879007788 0
    endloop
  endfacet
  facet normal -0.30816216405136493 0.778328779989911 0.5470286929280734
    outer loop
      vertex 1.5054339237479346 -3.199209935504855 -3
      vertex 1.0925958015399928 -3.3626641111864357 -3
      vertex 1.6995934690622108 -5.230810839623344 0
    endloop
  endfacet
  facet normal -0.40328267611653756 0.7335684646014218 0.5470286929280734
    outer loop
      vertex 2.341786103607898 -4.9765487885631075 0
      vertex 1.8945304536757366 -2.985302308024983 -3
      vertex 1.5054339237479346 -3.199209935504855 -3
    endloop
  endfacet
  facet normal -0.4920431794699608 0.6772393363136076 0.5470286929280733
    outer loop
      vertex 2.9470473723844792 -4.643803590261085 0
      vertex 2.2537491066114397 -2.7243146798143973 -3
      vertex 1.8945304536757366 -2.985302308024983 -3
    endloop
  endfacet
  facet normal -0.5730438679507949 0.6102297391289575 0.5470286929280733
    outer loop
      vertex 2.57742478981142 -2.4203629816764343 -3
      vertex 2.2537491066114397 -2.7243146798143973 -3
      vertex 3.5058319436177947 -4.23782283526684 0
    endloop
  endfacet
  facet normal -0.6450073123142293 0.533596454424669 0.5470286929280734
    outer loop
      vertex 2.8604529443971356 -2.078240713462673 -3
      vertex 2.57742478981142 -2.4203629816764343 -3
      vertex 4.449593469062211 -3.232818887608602 0
    endloop
  endfacet
  facet normal -0.7067986060537779 0.44854803487903055 0.5470286929280734
    outer loop
      vertex 2.8604529443971356 -2.078240713462673 -3
      vertex 4.449593469062211 -3.232818887608602 0
      vertex 3.0983700472979456 -1.7033433477167794 -3
    endloop
  endfacet
  facet normal -0.7574432635548358 0.35642574487374395 0.5470286929280734
    outer loop
      vertex 3.0983700472979456 -1.7033433477167794 -3
      vertex 4.819686740241249 -2.6496452075594346 0
      vertex 3.2874240036763167 -1.3015832398493985 -3
    endloop
  endfacet
  facet normal -0.7961425883149614 0.25868240795337727 0.5470286929280734
    outer loop
      vertex 3.2874240036763167 -1.3015832398493985 -3
      vertex 5.113770672385382 -2.024685039765731 0
      vertex 3.424633319704803 -0.8792963867614496 -3
    endloop
  endfacet
  facet normal -0.8222862688648304 0.15685949493020557 0.5470286929280734
    outer loop
      vertex 3.424633319704803 -0.8792963867614496 -3
      vertex 5.327207386207472 -1.3677943794066993 0
      vertex 3.507834122504761 -0.44314250438807506 -3
    endloop
  endfacet
  facet normal -0.8354620037446941 0.05256281396866476 0.5470286929280735
    outer loop
      vertex 3.507834122504761 -0.44314250438807506 -3
      vertex 5.456630857229628 -0.6893327846036723 0
      vertex 3.5357142857142856 0 -3
    endloop
  endfacet
  facet normal 0 0.8371138567204603 0.5470286929280733
    outer loop
      vertex -0.3453478574112257 -5.489147006355494 0
      vertex 0.3453478574112257 -5.489147006355494 0
      vertex 0.22200933690721653 -3.528737361228532 -3
    endloop
  endfacet
  facet normal -0.10491818652426159 0.8305129639264301 0.5470286929280734
    outer loop
      vertex 0.3453478574112257 -5.489147006355494 0
      vertex 1.0305972302214865 -5.402579879007788 0
      vertex 0.6625267908566699 -3.473087065076435 -3
    endloop
  endfacet
  facet normal -0.20818175057194854 0.8108143855668833 0.5470286929280733
    outer loop
      vertex 1.0305972302214865 -5.402579879007788 0
      vertex 1.6995934690622108 -5.230810839623344 0
      vertex 1.0925958015399928 -3.3626641111864357 -3
    endloop
  endfacet
  facet normal -0.3081621640513651 0.7783287799899109 0.5470286929280733
    outer loop
      vertex 1.6995934690622108 -5.230810839623344 0
      vertex 2.341786103607898 -4.9765487885631075 0
      vertex 1.5054339237479346 -3.199209935504855 -3
    endloop
  endfacet
  facet normal -0.40328267611653756 0.7335684646014218 0.5470286929280733
    outer loop
      vertex 2.341786103607898 -4.9765487885631075 0
      vertex 2.9470473723844792 -4.643803590261085 0
      vertex 1.8945304536757366 -2.985302308024983 -3
    endloop
  endfacet
  facet normal -0.4920431794699609 0.6772393363136074 0.5470286929280734
    outer loop
      vertex 2.9470473723844792 -4.643803590261085 0
      vertex 3.5058319436177947 -4.23782283526684 0
      vertex 2.2537491066114397 -2.7243146798143973 -3
    endloop
  endfacet
  facet normal -0.5730438679507945 0.6102297391289578 0.5470286929280734
    outer loop
      vertex 2.57742478981142 -2.4203629816764343 -3
      vertex 3.5058319436177947 -4.23782283526684 0
      vertex 4.009327450817764 -3.765009082607787 0
    endloop
  endfacet
  facet normal -0.6450073123142293 0.5335964544246691 0.5470286929280734
    outer loop
      vertex 4.009327450817764 -3.765009082607787 0
      vertex 4.449593469062211 -3.232818887608602 0
      vertex 2.57742478981142 -2.4203629816764343 -3
    endloop
  endfacet
  facet normal -0.7067986060537781 0.44854803487903017 0.5470286929280733
    outer loop
      vertex 4.449593469062211 -3.232818887608602 0
      vertex 4.819686740241249 -2.6496452075594346 0
      vertex 3.0983700472979456 -1.7033433477167794 -3
    endloop
  endfacet
  facet normal -0.7574432635548356 0.35642574487374423 0.5470286929280734
    outer loop
      vertex 4.819686740241249 -2.6496452075594346 0
      vertex 5.113770672385382 -2.024685039765731 0
      vertex 3.2874240036763167 -1.3015832398493985 -3
    endloop
  endfacet
  facet normal -0.7961425883149613 0.2586824079533773 0.5470286929280734
    outer loop
      vertex 5.113770672385382 -2.024685039765731 0
      vertex 5.327207386207472 -1.3677943794066993 0
      vertex 3.424633319704803 -0.8792963867614496 -3
    endloop
  endfacet
  facet normal -0.8222862688648306 0.15685949493020548 0.5470286929280734
    outer loop
      vertex 5.327207386207472 -1.3677943794066993 0
      vertex 5.456630857229628 -0.6893327846036723 0
      vertex 3.507834122504761 -0.44314250438807506 -3
    endloop
  endfacet
  facet normal -0.8354620037446939 0.05256281396866475 0.5470286929280734
    outer loop
      vertex 5.456630857229628 -0.6893327846036723 0
      vertex 5.5 0 0
      vertex 3.5357142857142856 0 -3
    endloop
  endfacet
  facet normal -8.37246839174381e-16 -0.8371138567204603 0.5470286929280735
    outer loop
      vertex -0.2220093369072148 3.528737361228532 -3
      vertex 0.22200933690721011 3.5287373612285315 -3
      vertex 0.34534785741122304 5.489147006355494 0
    endloop
  endfacet
  facet normal -0.10491818652425983 -0.8305129639264304 0.5470286929280734
    outer loop
      vertex 0.6625267908566691 3.473087065076435 -3
      vertex 1.0305972302214852 5.402579879007788 0
      vertex 0.22200933690721011 3.5287373612285315 -3
    endloop
  endfacet
  facet normal -0.20818175057194788 -0.8108143855668835 0.5470286929280735
    outer loop
      vertex 1.0925958015399926 3.3626641111864357 -3
      vertex 1.0305972302214852 5.402579879007788 0
      vertex 0.6625267908566691 3.473087065076435 -3
    endloop
  endfacet
  facet normal -0.3081621640513641 -0.7783287799899113 0.5470286929280734
    outer loop
      vertex 1.0925958015399926 3.3626641111864357 -3
      vertex 1.5054339237479357 3.199209935504855 -3
      vertex 1.6995934690622108 5.230810839623344 0
    endloop
  endfacet
  facet normal -0.4032826761165394 -0.7335684646014209 0.5470286929280734
    outer loop
      vertex 1.8945304536757381 2.985302308024982 -3
      vertex 2.3417861036079 4.9765487885631075 0
      vertex 1.5054339237479357 3.199209935504855 -3
    endloop
  endfacet
  facet normal -0.4920431794699613 -0.6772393363136071 0.5470286929280733
    outer loop
      vertex 2.253749106611439 2.7243146798143973 -3
      vertex 3.5058319436177934 4.23782283526684 0
      vertex 1.8945304536757381 2.985302308024982 -3
    endloop
  endfacet
  facet normal -0.8354620037446941 -0.052562813968664676 0.5470286929280735
    outer loop
      vertex 3.5357142857142856 0 -3
      vertex 5.5 0 0
      vertex 3.507834122504761 0.4431425043880758 -3
    endloop
  endfacet
  facet normal -0.8222862688648305 -0.15685949493020537 0.5470286929280735
    outer loop
      vertex 3.424633319704803 0.8792963867614509 -3
      vertex 3.507834122504761 0.4431425043880758 -3
      vertex 5.456630857229628 0.6893327846036734 0
    endloop
  endfacet
  facet normal -0.7961425883149614 -0.25868240795337727 0.5470286929280733
    outer loop
      vertex 3.2874240036763176 1.3015832398493972 -3
      vertex 3.424633319704803 0.8792963867614509 -3
      vertex 5.327207386207471 1.3677943794067013 0
    endloop
  endfacet
  facet normal -0.6450073123142291 -0.5335964544246692 0.5470286929280733
    outer loop
      vertex 4.449593469062211 3.232818887608602 0
      vertex 2.5774247898114195 2.420362981676435 -3
      vertex 2.860452944397136 2.078240713462673 -3
    endloop
  endfacet
  facet normal -0.7574432635548362 -0.3564257448737431 0.5470286929280733
    outer loop
      vertex 3.0983700472979465 1.7033433477167792 -3
      vertex 3.2874240036763176 1.3015832398493972 -3
      vertex 5.113770672385383 2.0246850397657288 0
    endloop
  endfacet
  facet normal -0.7067986060537776 -0.448548034879031 0.5470286929280733
    outer loop
      vertex 2.860452944397136 2.078240713462673 -3
      vertex 3.0983700472979465 1.7033433477167792 -3
      vertex 4.8196867402412495 2.649645207559434 0
    endloop
  endfacet
  facet normal -0.5730438679507937 -0.6102297391289587 0.5470286929280734
    outer loop
      vertex 2.253749106611439 2.7243146798143973 -3
      vertex 2.5774247898114195 2.420362981676435 -3
      vertex 4.009327450817763 3.765009082607788 0
    endloop
  endfacet
  facet normal -0.10491818652426138 -0.83051296392643 0.5470286929280737
    outer loop
      vertex 1.0305972302214852 5.402579879007788 0
      vertex 0.34534785741122304 5.489147006355494 0
      vertex 0.22200933690721011 3.5287373612285315 -3
    endloop
  endfacet
  facet normal -0.20818175057194818 -0.8108143855668833 0.5470286929280734
    outer loop
      vertex 1.6995934690622108 5.230810839623344 0
      vertex 1.0305972302214852 5.402579879007788 0
      vertex 1.0925958015399926 3.3626641111864357 -3
    endloop
  endfacet
  facet normal -0.403282676116539 -0.733568464601421 0.5470286929280734
    outer loop
      vertex 2.9470473723844814 4.643803590261083 0
      vertex 2.3417861036079 4.9765487885631075 0
      vertex 1.8945304536757381 2.985302308024982 -3
    endloop
  endfacet
  facet normal -0.49204317946996157 -0.677239336313607 0.5470286929280734
    outer loop
      vertex 3.5058319436177934 4.23782283526684 0
      vertex 2.9470473723844814 4.643803590261083 0
      vertex 1.8945304536757381 2.985302308024982 -3
    endloop
  endfacet
  facet normal -0.3081621640513644 -0.7783287799899112 0.5470286929280734
    outer loop
      vertex 2.3417861036079 4.9765487885631075 0
      vertex 1.6995934690622108 5.230810839623344 0
      vertex 1.5054339237479357 3.199209935504855 -3
    endloop
  endfacet
  facet normal -0.7067986060537779 -0.4485480348790307 0.5470286929280734
    outer loop
      vertex 4.8196867402412495 2.649645207559434 0
      vertex 4.449593469062211 3.232818887608602 0
      vertex 2.860452944397136 2.078240713462673 -3
    endloop
  endfacet
  facet normal -0.835462003744694 -0.052562813968664676 0.5470286929280735
    outer loop
      vertex 3.507834122504761 0.4431425043880758 -3
      vertex 5.5 0 0
      vertex 5.456630857229628 0.6893327846036734 0
    endloop
  endfacet
  facet normal -0.8222862688648305 -0.15685949493020632 0.5470286929280733
    outer loop
      vertex 3.424633319704803 0.8792963867614509 -3
      vertex 5.456630857229628 0.6893327846036734 0
      vertex 5.327207386207471 1.3677943794067013 0
    endloop
  endfacet
  facet normal -0.7961425883149615 -0.25868240795337694 0.5470286929280734
    outer loop
      vertex 3.2874240036763176 1.3015832398493972 -3
      vertex 5.327207386207471 1.3677943794067013 0
      vertex 5.113770672385383 2.0246850397657288 0
    endloop
  endfacet
  facet normal -0.7574432635548359 -0.3564257448737434 0.5470286929280734
    outer loop
      vertex 3.0983700472979465 1.7033433477167792 -3
      vertex 5.113770672385383 2.0246850397657288 0
      vertex 4.8196867402412495 2.649645207559434 0
    endloop
  endfacet
  facet normal -0.5730438679507934 -0.6102297391289591 0.5470286929280734
    outer loop
      vertex 2.253749106611439 2.7243146798143973 -3
      vertex 4.009327450817763 3.765009082607788 0
      vertex 3.5058319436177934 4.23782283526684 0
    endloop
  endfacet
  facet normal -0.6450073123142294 -0.533596454424669 0.5470286929280734
    outer loop
      vertex 4.449593469062211 3.232818887608602 0
      vertex 4.009327450817763 3.765009082607788 0
      vertex 2.5774247898114195 2.420362981676435 -3
    endloop
  endfacet
  facet normal -0.8443279255020153 -0.5358267949789963 0
    outer loop
      vertex -18.202882373436317 -13.225168176580645 -3
      vertex -19.71690030098693 -10.839457667288595 0
      vertex -19.71690030098693 -10.839457667288595 -3
    endloop
  endfacet
  facet normal -0.770513242775789 -0.6374239897486899 0
    outer loop
      vertex -18.202882373436317 -13.225168176580645 -3
      vertex -16.401794116981762 -15.40230988339549 -3
      vertex -18.202882373436317 -13.225168176580645 0
    endloop
  endfacet
  facet normal -0.5877852522924731 -0.8090169943749473 0
    outer loop
      vertex -14.342039769345517 -17.33654796245526 -3
      vertex -12.056102887027427 -18.99737832379534 -3
      vertex -12.056102887027427 -18.99737832379534 0
    endloop
  endfacet
  facet normal -0.6845471059286893 -0.7289686274214111 0
    outer loop
      vertex -14.342039769345517 -17.33654796245526 -3
      vertex -14.342039769345517 -17.33654796245526 0
      vertex -16.401794116981762 -15.40230988339549 -3
    endloop
  endfacet
  facet normal 0 0 -1
    outer loop
      vertex -20.919970932485658 -8.282802435405252 -3
      vertex -21.7931211253942 -5.595522461209234 -3
      vertex -20.919970932485658 8.282802435405252 -3
    endloop
  endfacet
  facet normal 0 0 -1
    outer loop
      vertex -21.7931211253942 -5.595522461209234 -3
      vertex -22.322580779575752 -2.8199977551968414 -3
      vertex -21.7931211253942 5.595522461209234 -3
    endloop
  endfacet
  facet normal 0 0 -1
    outer loop
      vertex -19.71690030098693 -10.839457667288595 -3
      vertex -20.919970932485658 -8.282802435405252 -3
      vertex -19.71690030098693 10.839457667288595 -3
    endloop
  endfacet
  facet normal 0 0 -1
    outer loop
      vertex -18.202882373436317 -13.225168176580645 -3
      vertex -19.71690030098693 -10.839457667288595 -3
      vertex -18.202882373436317 13.225168176580645 -3
    endloop
  endfacet
  facet normal 0 0 -1
    outer loop
      vertex -18.202882373436317 -13.225168176580645 -3
      vertex -16.401794116981762 15.40230988339549 -3
      vertex -16.401794116981762 -15.40230988339549 -3
    endloop
  endfacet
  facet normal 0 0 -1
    outer loop
      vertex -14.342039769345517 -17.33654796245526 -3
      vertex -12.056102887027427 18.99737832379534 -3
      vertex -12.056102887027427 -18.99737832379534 -3
    endloop
  endfacet
  facet normal 0 0 -1
    outer loop
      vertex -14.342039769345517 -17.33654796245526 -3
      vertex -16.401794116981762 -15.40230988339549 -3
      vertex -14.342039769345517 17.33654796245526 -3
    endloop
  endfacet
  facet normal -0.9048270524660195 -0.4257792915650731 0
    outer loop
      vertex -19.71690030098693 -10.839457667288595 -3
      vertex -20.919970932485658 -8.282802435405252 0
      vertex -20.919970932485658 -8.282802435405252 -3
    endloop
  endfacet
  facet normal -0.9510565162951534 -0.3090169943749477 0
    outer loop
      vertex -20.919970932485658 -8.282802435405252 -3
      vertex -21.7931211253942 -5.595522461209234 0
      vertex -21.7931211253942 -5.595522461209234 -3
    endloop
  endfacet
  facet normal -0.9822872507286886 -0.18738131458572416 0
    outer loop
      vertex -21.7931211253942 -5.595522461209234 -3
      vertex -22.322580779575752 -2.8199977551968414 0
      vertex -22.322580779575752 -2.8199977551968414 -3
    endloop
  endfacet
  facet normal -0.9980267284282716 -0.06279051952931325 0
    outer loop
      vertex -22.322580779575752 -2.8199977551968414 -3
      vertex -22.5 0 0
      vertex -22.5 0 -3
    endloop
  endfacet
  facet normal 0 0 -1
    outer loop
      vertex -4.2160795781788085 -22.101463141395495 -3
      vertex -1.0925958015399928 -3.3626641111864357 -3
      vertex -1.4127866894095598 -22.45560138963611 -3
    endloop
  endfacet
  facet normal 0 0 -1
    outer loop
      vertex -1.4127866894095598 -22.45560138963611 -3
      vertex -0.22200933690721653 -3.528737361228532 -3
      vertex 1.4127866894095598 -22.45560138963611 -3
    endloop
  endfacet
  facet normal -0.48175367410171427 -0.8763066800438641 0
    outer loop
      vertex -12.056102887027427 -18.99737832379534 -3
      vertex -9.58003406021413 -20.35860868048544 -3
      vertex -9.58003406021413 -20.35860868048544 0
    endloop
  endfacet
  facet normal -0.3681245526846779 -0.9297764858882513 0
    outer loop
      vertex -9.58003406021413 -20.35860868048544 -3
      vertex -6.952882373436316 -21.398771616640953 -3
      vertex -6.952882373436316 -21.398771616640953 0
    endloop
  endfacet
  facet normal -0.2486898871648558 -0.9685831611286309 0
    outer loop
      vertex -6.952882373436316 -21.398771616640953 -3
      vertex -4.2160795781788085 -22.101463141395495 -3
      vertex -4.2160795781788085 -22.101463141395495 0
    endloop
  endfacet
  facet normal -0.12533323356430498 -0.9921147013144778 0
    outer loop
      vertex -4.2160795781788085 -22.101463141395495 -3
      vertex -1.4127866894095598 -22.45560138963611 -3
      vertex -1.4127866894095598 -22.45560138963611 0
    endloop
  endfacet
  facet normal 0 0 -1
    outer loop
      vertex -12.056102887027427 -18.99737832379534 -3
      vertex -9.580034060214135 20.35860868048544 -3
      vertex -9.58003406021413 -20.35860868048544 -3
    endloop
  endfacet
  facet normal 0 0 -1
    outer loop
      vertex -9.58003406021413 -20.35860868048544 -3
      vertex -6.952882373436316 21.398771616640953 -3
      vertex -6.952882373436316 -21.398771616640953 -3
    endloop
  endfacet
  facet normal 0 0 -1
    outer loop
      vertex -4.2160795781788085 -22.101463141395495 -3
      vertex -2.860452944397136 -2.078240713462673 -3
      vertex -2.57742478981142 -2.4203629816764347 -3
    endloop
  endfacet
  facet normal 0 0 -1
    outer loop
      vertex -4.2160795781788085 -22.101463141395495 -3
      vertex -3.0983700472979456 -1.7033433477167794 -3
      vertex -2.860452944397136 -2.078240713462673 -3
    endloop
  endfacet
  facet normal 0 0 -1
    outer loop
      vertex -4.2160795781788085 -22.101463141395495 -3
      vertex -2.57742478981142 -2.4203629816764347 -3
      vertex -2.2537491066114383 -2.7243146798143982 -3
    endloop
  endfacet
  facet normal 0 0 -1
    outer loop
      vertex -6.952882373436316 -21.398771616640953 -3
      vertex -4.216079578178803 22.101463141395495 -3
      vertex -4.2160795781788085 -22.101463141395495 -3
    endloop
  endfacet
  facet normal 0 0 -1
    outer loop
      vertex -4.2160795781788085 -22.101463141395495 -3
      vertex -3.2874240036763176 -1.3015832398493967 -3
      vertex -3.0983700472979456 -1.7033433477167794 -3
    endloop
  endfacet
  facet normal 0 0 -1
    outer loop
      vertex -4.2160795781788085 -22.101463141395495 -3
      vertex -3.4246333197048027 -0.879296386761451 -3
      vertex -3.2874240036763176 -1.3015832398493967 -3
    endloop
  endfacet
  facet normal 0 0 -1
    outer loop
      vertex -4.2160795781788085 -22.101463141395495 -3
      vertex -3.507834122504761 -0.44314250438807506 -3
      vertex -3.4246333197048027 -0.879296386761451 -3
    endloop
  endfacet
  facet normal 0 0 -1
    outer loop
      vertex -4.2160795781788085 -22.101463141395495 -3
      vertex -3.5357142857142856 0 -3
      vertex -3.507834122504761 -0.44314250438807506 -3
    endloop
  endfacet
  facet normal 0 0 -1
    outer loop
      vertex -4.2160795781788085 -22.101463141395495 -3
      vertex -2.2537491066114383 -2.7243146798143982 -3
      vertex -1.8945304536757388 -2.9853023080249814 -3
    endloop
  endfacet
  facet normal 0 0 -1
    outer loop
      vertex -4.2160795781788085 -22.101463141395495 -3
      vertex -1.8945304536757388 -2.9853023080249814 -3
      vertex -1.5054339237479346 -3.199209935504855 -3
    endloop
  endfacet
  facet normal 0 0 -1
    outer loop
      vertex -4.2160795781788085 -22.101463141395495 -3
      vertex -1.5054339237479346 -3.199209935504855 -3
      vertex -1.0925958015399928 -3.3626641111864357 -3
    endloop
  endfacet
  facet normal 0 0 -1
    outer loop
      vertex -1.4127866894095598 -22.45560138963611 -3
      vertex -1.0925958015399928 -3.3626641111864357 -3
      vertex -0.6625267908566699 -3.473087065076435 -3
    endloop
  endfacet
  facet normal 0 0 -1
    outer loop
      vertex -1.4127866894095598 -22.45560138963611 -3
      vertex -0.6625267908566699 -3.473087065076435 -3
      vertex -0.22200933690721653 -3.528737361228532 -3
    endloop
  endfacet
  facet normal -0.770513242775789 -0.6374239897486899 0
    outer loop
      vertex -16.401794116981762 -15.40230988339549 -3
      vertex -16.401794116981762 -15.40230988339549 0
      vertex -18.202882373436317 -13.225168176580645 0
    endloop
  endfacet
  facet normal -0.8443279255020153 -0.5358267949789963 0
    outer loop
      vertex -18.202882373436317 -13.225168176580645 -3
      vertex -18.202882373436317 -13.225168176580645 0
      vertex -19.71690030098693 -10.839457667288595 0
    endloop
  endfacet
  facet normal -0.5877852522924731 -0.8090169943749473 0
    outer loop
      vertex -14.342039769345517 -17.33654796245526 -3
      vertex -12.056102887027427 -18.99737832379534 0
      vertex -14.342039769345517 -17.33654796245526 0
    endloop
  endfacet
  facet normal -0.6845471059286893 -0.7289686274214111 0
    outer loop
      vertex -16.401794116981762 -15.40230988339549 -3
      vertex -14.342039769345517 -17.33654796245526 0
      vertex -16.401794116981762 -15.40230988339549 0
    endloop
  endfacet
  facet normal -0.9048270524660195 -0.4257792915650731 0
    outer loop
      vertex -19.71690030098693 -10.839457667288595 -3
      vertex -19.71690030098693 -10.839457667288595 0
      vertex -20.919970932485658 -8.282802435405252 0
    endloop
  endfacet
  facet normal -0.9510565162951534 -0.3090169943749477 0
    outer loop
      vertex -20.919970932485658 -8.282802435405252 -3
      vertex -20.919970932485658 -8.282802435405252 0
      vertex -21.7931211253942 -5.595522461209234 0
    endloop
  endfacet
  facet normal -0.9822872507286886 -0.18738131458572416 0
    outer loop
      vertex -21.7931211253942 -5.595522461209234 -3
      vertex -21.7931211253942 -5.595522461209234 0
      vertex -22.322580779575752 -2.8199977551968414 0
    endloop
  endfacet
  facet normal -0.9980267284282716 -0.06279051952931325 0
    outer loop
      vertex -22.322580779575752 -2.8199977551968414 -3
      vertex -22.322580779575752 -2.8199977551968414 0
      vertex -22.5 0 0
    endloop
  endfacet
  facet normal 0 0 1
    outer loop
      vertex -19.71690030098693 -10.839457667288595 0
      vertex -20.919970932485658 8.282802435405252 0
      vertex -20.919970932485658 -8.282802435405252 0
    endloop
  endfacet
  facet normal 0 0 1
    outer loop
      vertex -21.7931211253942 -5.595522461209234 0
      vertex -22.322580779575752 2.8199977551968414 0
      vertex -22.322580779575752 -2.8199977551968414 0
    endloop
  endfacet
  facet normal 0 0 1
    outer loop
      vertex -20.919970932485658 -8.282802435405252 0
      vertex -21.7931211253942 5.595522461209234 0
      vertex -21.7931211253942 -5.595522461209234 0
    endloop
  endfacet
  facet normal 0 0 1
    outer loop
      vertex -18.202882373436317 -13.225168176580645 0
      vertex -19.71690030098693 10.839457667288595 0
      vertex -19.71690030098693 -10.839457667288595 0
    endloop
  endfacet
  facet normal 0 0 1
    outer loop
      vertex -18.202882373436317 -13.225168176580645 0
      vertex -16.401794116981762 -15.40230988339549 0
      vertex -18.202882373436317 13.225168176580645 0
    endloop
  endfacet
  facet normal 0 0 1
    outer loop
      vertex -14.342039769345517 -17.33654796245526 0
      vertex -16.401794116981762 15.40230988339549 0
      vertex -16.401794116981762 -15.40230988339549 0
    endloop
  endfacet
  facet normal 0 0 1
    outer loop
      vertex -14.342039769345517 -17.33654796245526 0
      vertex -12.056102887027427 -18.99737832379534 0
      vertex -14.342039769345517 17.33654796245526 0
    endloop
  endfacet
  facet normal -0.3681245526846779 -0.9297764858882513 0
    outer loop
      vertex -9.58003406021413 -20.35860868048544 -3
      vertex -6.952882373436316 -21.398771616640953 0
      vertex -9.58003406021413 -20.35860868048544 0
    endloop
  endfacet
  facet normal -0.48175367410171427 -0.8763066800438641 0
    outer loop
      vertex -12.056102887027427 -18.99737832379534 -3
      vertex -9.58003406021413 -20.35860868048544 0
      vertex -12.056102887027427 -18.99737832379534 0
    endloop
  endfacet
  facet normal -0.2486898871648558 -0.9685831611286309 0
    outer loop
      vertex -6.952882373436316 -21.398771616640953 -3
      vertex -4.2160795781788085 -22.101463141395495 0
      vertex -6.952882373436316 -21.398771616640953 0
    endloop
  endfacet
  facet normal -0.12533323356430498 -0.9921147013144778 0
    outer loop
      vertex -4.2160795781788085 -22.101463141395495 -3
      vertex -1.4127866894095598 -22.45560138963611 0
      vertex -4.2160795781788085 -22.101463141395495 0
    endloop
  endfacet
  facet normal 0 -1 0
    outer loop
      vertex -1.4127866894095598 -22.45560138963611 -3
      vertex 1.4127866894095598 -22.45560138963611 0
      vertex -1.4127866894095598 -22.45560138963611 0
    endloop
  endfacet
  facet normal 0 0 1
    outer loop
      vertex -4.2160795781788085 -22.101463141395495 0
      vertex -1.4127866894095598 -22.45560138963611 0
      vertex -2.9470473723844823 -4.643803590261082 0
    endloop
  endfacet
  facet normal 0 0 1
    outer loop
      vertex -12.056102887027427 -18.99737832379534 0
      vertex -9.58003406021413 -20.35860868048544 0
      vertex -12.056102887027427 18.99737832379534 0
    endloop
  endfacet
  facet normal 0 0 1
    outer loop
      vertex -9.58003406021413 -20.35860868048544 0
      vertex -6.952882373436316 -21.398771616640953 0
      vertex -9.580034060214135 20.35860868048544 0
    endloop
  endfacet
  facet normal 0 0 1
    outer loop
      vertex -6.952882373436316 -21.398771616640953 0
      vertex -4.2160795781788085 -22.101463141395495 0
      vertex -6.952882373436316 21.398771616640953 0
    endloop
  endfacet
  facet normal 0 0 1
    outer loop
      vertex -4.2160795781788085 -22.101463141395495 0
      vertex -4.009327450817764 -3.765009082607787 0
      vertex -4.449593469062211 -3.232818887608602 0
    endloop
  endfacet
  facet normal 0 0 1
    outer loop
      vertex -4.2160795781788085 -22.101463141395495 0
      vertex -4.449593469062211 -3.232818887608602 0
      vertex -4.819686740241249 -2.6496452075594346 0
    endloop
  endfacet
  facet normal 0 0 1
    outer loop
      vertex -4.2160795781788085 -22.101463141395495 0
      vertex -4.819686740241249 -2.6496452075594346 0
      vertex -5.113770672385383 -2.0246850397657283 0
    endloop
  endfacet
  facet normal 0 0 1
    outer loop
      vertex -4.2160795781788085 -22.101463141395495 0
      vertex -5.113770672385383 -2.0246850397657283 0
      vertex -5.327207386207471 -1.3677943794067016 0
    endloop
  endfacet
  facet normal 0 0 1
    outer loop
      vertex -4.2160795781788085 -22.101463141395495 0
      vertex -3.505831943617793 -4.237822835266842 0
      vertex -4.009327450817764 -3.765009082607787 0
    endloop
  endfacet
  facet normal 0 0 1
    outer loop
      vertex -4.2160795781788085 -22.101463141395495 0
      vertex -2.9470473723844823 -4.643803590261082 0
      vertex -3.505831943617793 -4.237822835266842 0
    endloop
  endfacet
  facet normal 0 0 1
    outer loop
      vertex -4.2160795781788085 -22.101463141395495 0
      vertex -5.327207386207471 -1.3677943794067016 0
      vertex -5.456630857229628 -0.6893327846036723 0
    endloop
  endfacet
  facet normal 0 0 1
    outer loop
      vertex -1.4127866894095598 -22.45560138963611 0
      vertex -2.341786103607898 -4.9765487885631075 0
      vertex -2.9470473723844823 -4.643803590261082 0
    endloop
  endfacet
  facet normal 0 0 1
    outer loop
      vertex -1.4127866894095598 -22.45560138963611 0
      vertex -1.6995934690622108 -5.230810839623344 0
      vertex -2.341786103607898 -4.9765487885631075 0
    endloop
  endfacet
  facet normal 0 0 1
    outer loop
      vertex -1.4127866894095598 -22.45560138963611 0
      vertex -1.0305972302214865 -5.402579879007788 0
      vertex -1.6995934690622108 -5.230810839623344 0
    endloop
  endfacet
  facet normal 0 0 1
    outer loop
      vertex -1.4127866894095598 -22.45560138963611 0
      vertex -0.3453478574112257 -5.489147006355494 0
      vertex -1.0305972302214865 -5.402579879007788 0
    endloop
  endfacet
  facet normal 0 0 1
    outer loop
      vertex -1.4127866894095598 -22.45560138963611 0
      vertex 0.3453478574112257 -5.489147006355494 0
      vertex -0.3453478574112257 -5.489147006355494 0
    endloop
  endfacet
  facet normal 0 0 1
    outer loop
      vertex -4.2160795781788085 -22.101463141395495 0
      vertex -5.456630857229628 -0.6893327846036723 0
      vertex -6.952882373436316 21.398771616640953 0
    endloop
  endfacet
  facet normal 0 0 -1
    outer loop
      vertex -22.322580779575752 -2.8199977551968414 -3
      vertex -22.5 0 -3
      vertex -22.322580779575752 2.8199977551968414 -3
    endloop
  endfacet
  facet normal 0 0 -1
    outer loop
      vertex -22.322580779575752 -2.8199977551968414 -3
      vertex -22.322580779575752 2.8199977551968414 -3
      vertex -21.7931211253942 5.595522461209234 -3
    endloop
  endfacet
  facet normal 0 0 -1
    outer loop
      vertex -21.7931211253942 -5.595522461209234 -3
      vertex -21.7931211253942 5.595522461209234 -3
      vertex -20.919970932485658 8.282802435405252 -3
    endloop
  endfacet
  facet normal 0 0 -1
    outer loop
      vertex -20.919970932485658 -8.282802435405252 -3
      vertex -20.919970932485658 8.282802435405252 -3
      vertex -19.71690030098693 10.839457667288595 -3
    endloop
  endfacet
  facet normal 0 0 -1
    outer loop
      vertex -19.71690030098693 -10.839457667288595 -3
      vertex -19.71690030098693 10.839457667288595 -3
      vertex -18.202882373436317 13.225168176580645 -3
    endloop
  endfacet
  facet normal 0 0 -1
    outer loop
      vertex -18.202882373436317 -13.225168176580645 -3
      vertex -18.202882373436317 13.225168176580645 -3
      vertex -16.401794116981762 15.40230988339549 -3
    endloop
  endfacet
  facet normal 0 0 -1
    outer loop
      vertex -16.401794116981762 -15.40230988339549 -3
      vertex -16.401794116981762 15.40230988339549 -3
      vertex -14.342039769345517 17.33654796245526 -3
    endloop
  endfacet
  facet normal 0 0 -1
    outer loop
      vertex -14.342039769345517 -17.33654796245526 -3
      vertex -14.342039769345517 17.33654796245526 -3
      vertex -12.056102887027427 18.99737832379534 -3
    endloop
  endfacet
  facet normal -0.9980267284282716 0.06279051952931325 0
    outer loop
      vertex -22.5 0 -3
      vertex -22.322580779575752 2.8199977551968414 0
      vertex -22.322580779575752 2.8199977551968414 -3
    endloop
  endfacet
  facet normal -0.9822872507286886 0.18738131458572416 0
    outer loop
      vertex -22.322580779575752 2.8199977551968414 -3
      vertex -21.7931211253942 5.595522461209234 0
      vertex -21.7931211253942 5.595522461209234 -3
    endloop
  endfacet
  facet normal -0.9510565162951534 0.3090169943749477 0
    outer loop
      vertex -21.7931211253942 5.595522461209234 -3
      vertex -20.919970932485658 8.282802435405252 0
      vertex -20.919970932485658 8.282802435405252 -3
    endloop
  endfacet
  facet normal -0.9048270524660195 0.4257792915650731 0
    outer loop
      vertex -20.919970932485658 8.282802435405252 -3
      vertex -19.71690030098693 10.839457667288595 0
      vertex -19.71690030098693 10.839457667288595 -3
    endloop
  endfacet
  facet normal -0.8443279255020153 0.5358267949789963 0
    outer loop
      vertex -19.71690030098693 10.839457667288595 -3
      vertex -18.202882373436317 13.225168176580645 0
      vertex -18.202882373436317 13.225168176580645 -3
    endloop
  endfacet
  facet normal -0.770513242775789 0.6374239897486899 0
    outer loop
      vertex -18.202882373436317 13.225168176580645 -3
      vertex -16.401794116981762 15.40230988339549 0
      vertex -16.401794116981762 15.40230988339549 -3
    endloop
  endfacet
  facet normal -0.6845471059286893 0.7289686274214111 0
    outer loop
      vertex -16.401794116981762 15.40230988339549 -3
      vertex -16.401794116981762 15.40230988339549 0
      vertex -14.342039769345517 17.33654796245526 -3
    endloop
  endfacet
  facet normal -0.5877852522924731 0.8090169943749473 0
    outer loop
      vertex -14.342039769345517 17.33654796245526 -3
      vertex -14.342039769345517 17.33654796245526 0
      vertex -12.056102887027427 18.99737832379534 -3
    endloop
  endfacet
  facet normal 0 0 -1
    outer loop
      vertex -12.056102887027427 -18.99737832379534 -3
      vertex -12.056102887027427 18.99737832379534 -3
      vertex -9.580034060214135 20.35860868048544 -3
    endloop
  endfacet
  facet normal 0 0 -1
    outer loop
      vertex -9.58003406021413 -20.35860868048544 -3
      vertex -9.580034060214135 20.35860868048544 -3
      vertex -6.952882373436316 21.398771616640953 -3
    endloop
  endfacet
  facet normal 0 0 -1
    outer loop
      vertex -6.952882373436316 -21.398771616640953 -3
      vertex -6.952882373436316 21.398771616640953 -3
      vertex -4.216079578178803 22.101463141395495 -3
    endloop
  endfacet
  facet normal 0 0 -1
    outer loop
      vertex -4.2160795781788085 -22.101463141395495 -3
      vertex -4.216079578178803 22.101463141395495 -3
      vertex -3.5357142857142856 0 -3
    endloop
  endfacet
  facet normal 0 0 -1
    outer loop
      vertex -4.216079578178803 22.101463141395495 -3
      vertex -3.507834122504761 0.443142504388075 -3
      vertex -3.5357142857142856 0 -3
    endloop
  endfacet
  facet normal 0 0 -1
    outer loop
      vertex -4.216079578178803 22.101463141395495 -3
      vertex -3.424633319704803 0.879296386761451 -3
      vertex -3.507834122504761 0.443142504388075 -3
    endloop
  endfacet
  facet normal 0 0 -1
    outer loop
      vertex -4.216079578178803 22.101463141395495 -3
      vertex -3.2874240036763176 1.3015832398493967 -3
      vertex -3.424633319704803 0.879296386761451 -3
    endloop
  endfacet
  facet normal 0 0 -1
    outer loop
      vertex -4.216079578178803 22.101463141395495 -3
      vertex -3.0983700472979456 1.7033433477167794 -3
      vertex -3.2874240036763176 1.3015832398493967 -3
    endloop
  endfacet
  facet normal 0 0 -1
    outer loop
      vertex -4.216079578178803 22.101463141395495 -3
      vertex -2.860452944397136 2.078240713462673 -3
      vertex -3.0983700472979456 1.7033433477167794 -3
    endloop
  endfacet
  facet normal 0 0 -1
    outer loop
      vertex -1.4127866894095487 22.45560138963611 -3
      vertex -2.57742478981142 2.4203629816764347 -3
      vertex -2.860452944397136 2.078240713462673 -3
    endloop
  endfacet
  facet normal 0 0 -1
    outer loop
      vertex -1.4127866894095487 22.45560138963611 -3
      vertex -2.2537491066114383 2.7243146798143987 -3
      vertex -2.57742478981142 2.4203629816764347 -3
    endloop
  endfacet
  facet normal 0 0 -1
    outer loop
      vertex -1.4127866894095487 22.45560138963611 -3
      vertex -1.8945304536757386 2.9853023080249814 -3
      vertex -2.2537491066114383 2.7243146798143987 -3
    endloop
  endfacet
  facet normal 0 0 -1
    outer loop
      vertex -1.4127866894095487 22.45560138963611 -3
      vertex -1.5054339237479357 3.199209935504855 -3
      vertex -1.8945304536757386 2.9853023080249814 -3
    endloop
  endfacet
  facet normal 0 0 -1
    outer loop
      vertex -1.4127866894095487 22.45560138963611 -3
      vertex -1.0925958015399926 3.3626641111864357 -3
      vertex -1.5054339237479357 3.199209935504855 -3
    endloop
  endfacet
  facet normal 0 0 -1
    outer loop
      vertex -1.4127866894095487 22.45560138963611 -3
      vertex -0.6625267908566691 3.473087065076435 -3
      vertex -1.0925958015399926 3.3626641111864357 -3
    endloop
  endfacet
  facet normal 0 0 -1
    outer loop
      vertex -1.4127866894095487 22.45560138963611 -3
      vertex -0.2220093369072148 3.528737361228532 -3
      vertex -0.6625267908566691 3.473087065076435 -3
    endloop
  endfacet
  facet normal 0 0 -1
    outer loop
      vertex -1.4127866894095487 22.45560138963611 -3
      vertex 0.22200933690721011 3.5287373612285315 -3
      vertex -0.2220093369072148 3.528737361228532 -3
    endloop
  endfacet
  facet normal 0 0 -1
    outer loop
      vertex -4.216079578178803 22.101463141395495 -3
      vertex -1.4127866894095487 22.45560138963611 -3
      vertex -2.860452944397136 2.078240713462673 -3
    endloop
  endfacet
  facet normal -0.4817536741017151 0.8763066800438637 0
    outer loop
      vertex -12.056102887027427 18.99737832379534 -3
      vertex -12.056102887027427 18.99737832379534 0
      vertex -9.580034060214135 20.35860868048544 -3
    endloop
  endfacet
  facet normal -0.3681245526846773 0.9297764858882517 0
    outer loop
      vertex -9.580034060214135 20.35860868048544 -3
      vertex -9.580034060214135 20.35860868048544 0
      vertex -6.952882373436316 21.398771616640953 -3
    endloop
  endfacet
  facet normal -0.24868988716485538 0.9685831611286309 0
    outer loop
      vertex -6.952882373436316 21.398771616640953 -3
      vertex -6.952882373436316 21.398771616640953 0
      vertex -4.216079578178803 22.101463141395495 -3
    endloop
  endfacet
  facet normal -0.12533323356430473 0.9921147013144779 0
    outer loop
      vertex -4.216079578178803 22.101463141395495 -3
      vertex -4.216079578178803 22.101463141395495 0
      vertex -1.4127866894095487 22.45560138963611 -3
    endloop
  endfacet
  facet normal 0 1 0
    outer loop
      vertex -1.4127866894095487 22.45560138963611 -3
      vertex -1.4127866894095487 22.45560138963611 0
      vertex 1.4127866894095487 22.45560138963611 -3
    endloop
  endfacet
  facet normal -0.9980267284282716 0.06279051952931325 0
    outer loop
      vertex -22.5 0 -3
      vertex -22.5 0 0
      vertex -22.322580779575752 2.8199977551968414 0
    endloop
  endfacet
  facet normal -0.9822872507286886 0.18738131458572416 0
    outer loop
      vertex -22.322580779575752 2.8199977551968414 -3
      vertex -22.322580779575752 2.8199977551968414 0
      vertex -21.7931211253942 5.595522461209234 0
    endloop
  endfacet
  facet normal -0.9510565162951534 0.3090169943749477 0
    outer loop
      vertex -21.7931211253942 5.595522461209234 -3
      vertex -21.7931211253942 5.595522461209234 0
      vertex -20.919970932485658 8.282802435405252 0
    endloop
  endfacet
  facet normal -0.9048270524660195 0.4257792915650731 0
    outer loop
      vertex -20.919970932485658 8.282802435405252 -3
      vertex -20.919970932485658 8.282802435405252 0
      vertex -19.71690030098693 10.839457667288595 0
    endloop
  endfacet
  facet normal 0 0 1
    outer loop
      vertex -22.322580779575752 -2.8199977551968414 0
      vertex -22.322580779575752 2.8199977551968414 0
      vertex -22.5 0 0
    endloop
  endfacet
  facet normal 0 0 1
    outer loop
      vertex -21.7931211253942 -5.595522461209234 0
      vertex -21.7931211253942 5.595522461209234 0
      vertex -22.322580779575752 2.8199977551968414 0
    endloop
  endfacet
  facet normal 0 0 1
    outer loop
      vertex -20.919970932485658 -8.282802435405252 0
      vertex -20.919970932485658 8.282802435405252 0
      vertex -21.7931211253942 5.595522461209234 0
    endloop
  endfacet
  facet normal 0 0 1
    outer loop
      vertex -19.71690030098693 -10.839457667288595 0
      vertex -19.71690030098693 10.839457667288595 0
      vertex -20.919970932485658 8.282802435405252 0
    endloop
  endfacet
  facet normal 0 0 1
    outer loop
      vertex -18.202882373436317 -13.225168176580645 0
      vertex -18.202882373436317 13.225168176580645 0
      vertex -19.71690030098693 10.839457667288595 0
    endloop
  endfacet
  facet normal 0 0 1
    outer loop
      vertex -16.401794116981762 -15.40230988339549 0
      vertex -16.401794116981762 15.40230988339549 0
      vertex -18.202882373436317 13.225168176580645 0
    endloop
  endfacet
  facet normal 0 0 1
    outer loop
      vertex -14.342039769345517 -17.33654796245526 0
      vertex -14.342039769345517 17.33654796245526 0
      vertex -16.401794116981762 15.40230988339549 0
    endloop
  endfacet
  facet normal 0 0 1
    outer loop
      vertex -12.056102887027427 -18.99737832379534 0
      vertex -12.056102887027427 18.99737832379534 0
      vertex -14.342039769345517 17.33654796245526 0
    endloop
  endfacet
  facet normal -0.8443279255020153 0.5358267949789963 0
    outer loop
      vertex -19.71690030098693 10.839457667288595 -3
      vertex -19.71690030098693 10.839457667288595 0
      vertex -18.202882373436317 13.225168176580645 0
    endloop
  endfacet
  facet normal -0.770513242775789 0.6374239897486899 0
    outer loop
      vertex -18.202882373436317 13.225168176580645 -3
      vertex -18.202882373436317 13.225168176580645 0
      vertex -16.401794116981762 15.40230988339549 0
    endloop
  endfacet
  facet normal -0.6845471059286893 0.7289686274214111 0
    outer loop
      vertex -14.342039769345517 17.33654796245526 -3
      vertex -16.401794116981762 15.40230988339549 0
      vertex -14.342039769345517 17.33654796245526 0
    endloop
  endfacet
  facet normal -0.5877852522924731 0.8090169943749473 0
    outer loop
      vertex -12.056102887027427 18.99737832379534 -3
      vertex -14.342039769345517 17.33654796245526 0
      vertex -12.056102887027427 18.99737832379534 0
    endloop
  endfacet
  facet normal 0 0 1
    outer loop
      vertex -9.58003406021413 -20.35860868048544 0
      vertex -9.580034060214135 20.35860868048544 0
      vertex -12.056102887027427 18.99737832379534 0
    endloop
  endfacet
  facet normal 0 0 1
    outer loop
      vertex -6.952882373436316 -21.398771616640953 0
      vertex -6.952882373436316 21.398771616640953 0
      vertex -9.580034060214135 20.35860868048544 0
    endloop
  endfacet
  facet normal 0 0 1
    outer loop
      vertex -6.952882373436316 21.398771616640953 0
      vertex -5.456630857229628 -0.6893327846036723 0
      vertex -5.5 0 0
    endloop
  endfacet
  facet normal 0 0 1
    outer loop
      vertex -6.952882373436316 21.398771616640953 0
      vertex -5.5 0 0
      vertex -5.456630857229628 0.6893327846036723 0
    endloop
  endfacet
  facet normal 0 0 1
    outer loop
      vertex -6.952882373436316 21.398771616640953 0
      vertex -5.456630857229628 0.6893327846036723 0
      vertex -5.327207386207471 1.3677943794067016 0
    endloop
  endfacet
  facet normal 0 0 1
    outer loop
      vertex -6.952882373436316 21.398771616640953 0
      vertex -5.327207386207471 1.3677943794067016 0
      vertex -5.113770672385383 2.0246850397657283 0
    endloop
  endfacet
  facet normal 0 0 1
    outer loop
      vertex -6.952882373436316 21.398771616640953 0
      vertex -5.113770672385383 2.0246850397657283 0
      vertex -4.819686740241249 2.6496452075594346 0
    endloop
  endfacet
  facet normal 0 0 1
    outer loop
      vertex -6.952882373436316 21.398771616640953 0
      vertex -4.819686740241249 2.6496452075594346 0
      vertex -4.449593469062211 3.232818887608602 0
    endloop
  endfacet
  facet normal 0 0 1
    outer loop
      vertex -6.952882373436316 21.398771616640953 0
      vertex -4.449593469062211 3.232818887608602 0
      vertex -4.009327450817764 3.765009082607787 0
    endloop
  endfacet
  facet normal 0 0 1
    outer loop
      vertex -4.216079578178803 22.101463141395495 0
      vertex -4.009327450817764 3.765009082607787 0
      vertex -3.505831943617793 4.237822835266842 0
    endloop
  endfacet
  facet normal 0 0 1
    outer loop
      vertex -4.216079578178803 22.101463141395495 0
      vertex -3.505831943617793 4.237822835266842 0
      vertex -2.9470473723844823 4.643803590261082 0
    endloop
  endfacet
  facet normal 0 0 1
    outer loop
      vertex -4.216079578178803 22.101463141395495 0
      vertex -2.9470473723844823 4.643803590261082 0
      vertex -2.3417861036079 4.9765487885631075 0
    endloop
  endfacet
  facet normal 0 0 1
    outer loop
      vertex -4.216079578178803 22.101463141395495 0
      vertex -2.3417861036079 4.9765487885631075 0
      vertex -1.6995934690622108 5.230810839623344 0
    endloop
  endfacet
  facet normal 0 0 1
    outer loop
      vertex -4.216079578178803 22.101463141395495 0
      vertex -1.6995934690622108 5.230810839623344 0
      vertex -1.0305972302214852 5.402579879007788 0
    endloop
  endfacet
  facet normal 0 0 1
    outer loop
      vertex -1.4127866894095487 22.45560138963611 0
      vertex -1.0305972302214852 5.402579879007788 0
      vertex -0.345347857411219 5.489147006355494 0
    endloop
  endfacet
  facet normal -0.4817536741017151 0.8763066800438637 0
    outer loop
      vertex -9.580034060214135 20.35860868048544 -3
      vertex -12.056102887027427 18.99737832379534 0
      vertex -9.580034060214135 20.35860868048544 0
    endloop
  endfacet
  facet normal -0.3681245526846773 0.9297764858882517 0
    outer loop
      vertex -6.952882373436316 21.398771616640953 -3
      vertex -9.580034060214135 20.35860868048544 0
      vertex -6.952882373436316 21.398771616640953 0
    endloop
  endfacet
  facet normal -0.24868988716485538 0.9685831611286309 0
    outer loop
      vertex -4.216079578178803 22.101463141395495 -3
      vertex -6.952882373436316 21.398771616640953 0
      vertex -4.216079578178803 22.101463141395495 0
    endloop
  endfacet
  facet normal -0.12533323356430473 0.9921147013144779 0
    outer loop
      vertex -1.4127866894095487 22.45560138963611 -3
      vertex -4.216079578178803 22.101463141395495 0
      vertex -1.4127866894095487 22.45560138963611 0
    endloop
  endfacet
  facet normal 0 0 1
    outer loop
      vertex -6.952882373436316 21.398771616640953 0
      vertex -4.009327450817764 3.765009082607787 0
      vertex -4.216079578178803 22.101463141395495 0
    endloop
  endfacet
  facet normal 0 0 1
    outer loop
      vertex -4.216079578178803 22.101463141395495 0
      vertex -1.0305972302214852 5.402579879007788 0
      vertex -1.4127866894095487 22.45560138963611 0
    endloop
  endfacet
  facet normal 0 0 1
    outer loop
      vertex -1.4127866894095487 22.45560138963611 0
      vertex -0.345347857411219 5.489147006355494 0
      vertex 1.4127866894095487 22.45560138963611 0
    endloop
  endfacet
  facet normal 0 0 -1
    outer loop
      vertex 1.4127866894095598 -22.45560138963611 -3
      vertex 2.8604529443971356 -2.078240713462673 -3
      vertex 4.2160795781788085 -22.101463141395495 -3
    endloop
  endfacet
  facet normal 0 -1 0
    outer loop
      vertex -1.4127866894095598 -22.45560138963611 -3
      vertex 1.4127866894095598 -22.45560138963611 -3
      vertex 1.4127866894095598 -22.45560138963611 0
    endloop
  endfacet
  facet normal 0.12533323356430498 -0.9921147013144778 0
    outer loop
      vertex 1.4127866894095598 -22.45560138963611 -3
      vertex 4.2160795781788085 -22.101463141395495 -3
      vertex 4.2160795781788085 -22.101463141395495 0
    endloop
  endfacet
  facet normal 0.2486898871648558 -0.9685831611286309 0
    outer loop
      vertex 4.2160795781788085 -22.101463141395495 -3
      vertex 6.952882373436316 -21.398771616640953 -3
      vertex 6.952882373436316 -21.398771616640953 0
    endloop
  endfacet
  facet normal 0.3681245526846779 -0.9297764858882513 0
    outer loop
      vertex 6.952882373436316 -21.398771616640953 -3
      vertex 9.58003406021413 -20.35860868048544 -3
      vertex 9.58003406021413 -20.35860868048544 0
    endloop
  endfacet
  facet normal 0.4817536741017142 -0.8763066800438641 0
    outer loop
      vertex 9.58003406021413 -20.35860868048544 -3
      vertex 12.056102887027414 -18.997378323795346 -3
      vertex 12.056102887027414 -18.997378323795346 0
    endloop
  endfacet
  facet normal 0 0 -1
    outer loop
      vertex 1.4127866894095598 -22.45560138963611 -3
      vertex -0.22200933690721653 -3.528737361228532 -3
      vertex 0.22200933690721653 -3.528737361228532 -3
    endloop
  endfacet
  facet normal 0 0 -1
    outer loop
      vertex 1.4127866894095598 -22.45560138963611 -3
      vertex 0.22200933690721653 -3.528737361228532 -3
      vertex 0.6625267908566699 -3.473087065076435 -3
    endloop
  endfacet
  facet normal 0 0 -1
    outer loop
      vertex 1.4127866894095598 -22.45560138963611 -3
      vertex 0.6625267908566699 -3.473087065076435 -3
      vertex 1.0925958015399928 -3.3626641111864357 -3
    endloop
  endfacet
  facet normal 0 0 -1
    outer loop
      vertex 1.4127866894095598 -22.45560138963611 -3
      vertex 1.0925958015399928 -3.3626641111864357 -3
      vertex 1.5054339237479346 -3.199209935504855 -3
    endloop
  endfacet
  facet normal 0 0 -1
    outer loop
      vertex 1.4127866894095598 -22.45560138963611 -3
      vertex 1.5054339237479346 -3.199209935504855 -3
      vertex 1.8945304536757366 -2.985302308024983 -3
    endloop
  endfacet
  facet normal 0 0 -1
    outer loop
      vertex 1.4127866894095598 -22.45560138963611 -3
      vertex 1.8945304536757366 -2.985302308024983 -3
      vertex 2.2537491066114397 -2.7243146798143973 -3
    endloop
  endfacet
  facet normal 0 0 -1
    outer loop
      vertex 1.4127866894095598 -22.45560138963611 -3
      vertex 2.2537491066114397 -2.7243146798143973 -3
      vertex 2.57742478981142 -2.4203629816764343 -3
    endloop
  endfacet
  facet normal 0 0 -1
    outer loop
      vertex 1.4127866894095598 -22.45560138963611 -3
      vertex 2.57742478981142 -2.4203629816764343 -3
      vertex 2.8604529443971356 -2.078240713462673 -3
    endloop
  endfacet
  facet normal 0 0 -1
    outer loop
      vertex 4.2160795781788085 -22.101463141395495 -3
      vertex 2.8604529443971356 -2.078240713462673 -3
      vertex 3.0983700472979456 -1.7033433477167794 -3
    endloop
  endfacet
  facet normal 0 0 -1
    outer loop
      vertex 4.2160795781788085 -22.101463141395495 -3
      vertex 3.0983700472979456 -1.7033433477167794 -3
      vertex 3.2874240036763167 -1.3015832398493985 -3
    endloop
  endfacet
  facet normal 0 0 -1
    outer loop
      vertex 4.2160795781788085 -22.101463141395495 -3
      vertex 3.2874240036763167 -1.3015832398493985 -3
      vertex 3.424633319704803 -0.8792963867614496 -3
    endloop
  endfacet
  facet normal 0 0 -1
    outer loop
      vertex 4.2160795781788085 -22.101463141395495 -3
      vertex 3.424633319704803 -0.8792963867614496 -3
      vertex 3.507834122504761 -0.44314250438807506 -3
    endloop
  endfacet
  facet normal 0 0 -1
    outer loop
      vertex 4.2160795781788085 -22.101463141395495 -3
      vertex 3.507834122504761 -0.44314250438807506 -3
      vertex 3.5357142857142856 0 -3
    endloop
  endfacet
  facet normal 0 0 -1
    outer loop
      vertex 4.2160795781788085 -22.101463141395495 -3
      vertex 6.952882373436316 21.398771616640953 -3
      vertex 6.952882373436316 -21.398771616640953 -3
    endloop
  endfacet
  facet normal 0 0 -1
    outer loop
      vertex 6.952882373436316 -21.398771616640953 -3
      vertex 9.580034060214135 20.35860868048544 -3
      vertex 9.58003406021413 -20.35860868048544 -3
    endloop
  endfacet
  facet normal 0 0 -1
    outer loop
      vertex 9.58003406021413 -20.35860868048544 -3
      vertex 12.056102887027425 18.99737832379534 -3
      vertex 12.056102887027414 -18.997378323795346 -3
    endloop
  endfacet
  facet normal 0.5877852522924732 -0.8090169943749475 0
    outer loop
      vertex 12.056102887027414 -18.997378323795346 -3
      vertex 14.342039769345524 -17.336547962455253 -3
      vertex 14.342039769345524 -17.336547962455253 0
    endloop
  endfacet
  facet normal 0.6845471059286892 -0.7289686274214112 0
    outer loop
      vertex 14.342039769345524 -17.336547962455253 -3
      vertex 16.401794116981762 -15.40230988339549 -3
      vertex 16.401794116981762 -15.40230988339549 0
    endloop
  endfacet
  facet normal 0.770513242775789 -0.6374239897486899 0
    outer loop
      vertex 16.401794116981762 -15.40230988339549 -3
      vertex 18.202882373436317 -13.225168176580645 -3
      vertex 16.401794116981762 -15.40230988339549 0
    endloop
  endfacet
  facet normal 0.8443279255020153 -0.5358267949789963 0
    outer loop
      vertex 18.202882373436317 -13.225168176580645 -3
      vertex 19.71690030098693 -10.839457667288595 -3
      vertex 18.202882373436317 -13.225168176580645 0
    endloop
  endfacet
  facet normal 0 0 -1
    outer loop
      vertex 12.056102887027414 -18.997378323795346 -3
      vertex 14.342039769345519 17.336547962455256 -3
      vertex 14.342039769345524 -17.336547962455253 -3
    endloop
  endfacet
  facet normal 0 0 -1
    outer loop
      vertex 14.342039769345524 -17.336547962455253 -3
      vertex 16.40179411698176 15.402309883395496 -3
      vertex 16.401794116981762 -15.40230988339549 -3
    endloop
  endfacet
  facet normal 0 0 -1
    outer loop
      vertex 16.401794116981762 -15.40230988339549 -3
      vertex 18.202882373436317 13.225168176580645 -3
      vertex 18.202882373436317 -13.225168176580645 -3
    endloop
  endfacet
  facet normal 0 0 -1
    outer loop
      vertex 18.202882373436317 -13.225168176580645 -3
      vertex 19.716900300986932 10.839457667288595 -3
      vertex 19.71690030098693 -10.839457667288595 -3
    endloop
  endfacet
  facet normal 0 0 -1
    outer loop
      vertex 19.71690030098693 -10.839457667288595 -3
      vertex 20.919970932485654 8.282802435405255 -3
      vertex 20.919970932485654 -8.282802435405262 -3
    endloop
  endfacet
  facet normal 0 0 -1
    outer loop
      vertex 20.919970932485654 -8.282802435405262 -3
      vertex 21.7931211253942 5.5955224612092325 -3
      vertex 21.7931211253942 -5.5955224612092245 -3
    endloop
  endfacet
  facet normal 0 0 -1
    outer loop
      vertex 21.7931211253942 -5.5955224612092245 -3
      vertex 22.322580779575752 2.819997755196846 -3
      vertex 22.322580779575752 -2.8199977551968414 -3
    endloop
  endfacet
  facet normal 0.9048270524660191 -0.42577929156507344 0
    outer loop
      vertex 19.71690030098693 -10.839457667288595 -3
      vertex 20.919970932485654 -8.282802435405262 -3
      vertex 19.71690030098693 -10.839457667288595 0
    endloop
  endfacet
  facet normal 0.9510565162951538 -0.30901699437494673 0
    outer loop
      vertex 20.919970932485654 -8.282802435405262 -3
      vertex 21.7931211253942 -5.5955224612092245 -3
      vertex 20.919970932485654 -8.282802435405262 0
    endloop
  endfacet
  facet normal 0.9822872507286886 -0.18738131458572482 0
    outer loop
      vertex 21.7931211253942 -5.5955224612092245 -3
      vertex 22.322580779575752 -2.8199977551968414 -3
      vertex 21.7931211253942 -5.5955224612092245 0
    endloop
  endfacet
  facet normal 0.9980267284282716 -0.06279051952931325 0
    outer loop
      vertex 22.322580779575752 -2.8199977551968414 -3
      vertex 22.5 0 -3
      vertex 22.322580779575752 -2.8199977551968414 0
    endloop
  endfacet
  facet normal 0.12533323356430498 -0.9921147013144778 0
    outer loop
      vertex 1.4127866894095598 -22.45560138963611 -3
      vertex 4.2160795781788085 -22.101463141395495 0
      vertex 1.4127866894095598 -22.45560138963611 0
    endloop
  endfacet
  facet normal 0.2486898871648558 -0.9685831611286309 0
    outer loop
      vertex 4.2160795781788085 -22.101463141395495 -3
      vertex 6.952882373436316 -21.398771616640953 0
      vertex 4.2160795781788085 -22.101463141395495 0
    endloop
  endfacet
  facet normal 0.3681245526846779 -0.9297764858882513 0
    outer loop
      vertex 6.952882373436316 -21.398771616640953 -3
      vertex 9.58003406021413 -20.35860868048544 0
      vertex 6.952882373436316 -21.398771616640953 0
    endloop
  endfacet
  facet normal 0.4817536741017142 -0.8763066800438641 0
    outer loop
      vertex 9.58003406021413 -20.35860868048544 -3
      vertex 12.056102887027414 -18.997378323795346 0
      vertex 9.58003406021413 -20.35860868048544 0
    endloop
  endfacet
  facet normal 0 0 1
    outer loop
      vertex -1.4127866894095598 -22.45560138963611 0
      vertex 1.4127866894095598 -22.45560138963611 0
      vertex 0.3453478574112257 -5.489147006355494 0
    endloop
  endfacet
  facet normal 0 0 1
    outer loop
      vertex 1.4127866894095598 -22.45560138963611 0
      vertex 4.2160795781788085 -22.101463141395495 0
      vertex 1.0305972302214865 -5.402579879007788 0
    endloop
  endfacet
  facet normal 0 0 1
    outer loop
      vertex 4.2160795781788085 -22.101463141395495 0
      vertex 6.952882373436316 -21.398771616640953 0
      vertex 4.009327450817764 -3.765009082607787 0
    endloop
  endfacet
  facet normal 0 0 1
    outer loop
      vertex 1.4127866894095598 -22.45560138963611 0
      vertex 1.0305972302214865 -5.402579879007788 0
      vertex 0.3453478574112257 -5.489147006355494 0
    endloop
  endfacet
  facet normal 0 0 1
    outer loop
      vertex 4.2160795781788085 -22.101463141395495 0
      vertex 1.6995934690622108 -5.230810839623344 0
      vertex 1.0305972302214865 -5.402579879007788 0
    endloop
  endfacet
  facet normal 0 0 1
    outer loop
      vertex 4.2160795781788085 -22.101463141395495 0
      vertex 2.341786103607898 -4.9765487885631075 0
      vertex 1.6995934690622108 -5.230810839623344 0
    endloop
  endfacet
  facet normal 0 0 1
    outer loop
      vertex 4.2160795781788085 -22.101463141395495 0
      vertex 2.9470473723844792 -4.643803590261085 0
      vertex 2.341786103607898 -4.9765487885631075 0
    endloop
  endfacet
  facet normal 0 0 1
    outer loop
      vertex 4.2160795781788085 -22.101463141395495 0
      vertex 3.5058319436177947 -4.23782283526684 0
      vertex 2.9470473723844792 -4.643803590261085 0
    endloop
  endfacet
  facet normal 0 0 1
    outer loop
      vertex 4.2160795781788085 -22.101463141395495 0
      vertex 4.009327450817764 -3.765009082607787 0
      vertex 3.5058319436177947 -4.23782283526684 0
    endloop
  endfacet
  facet normal 0 0 1
    outer loop
      vertex 6.952882373436316 -21.398771616640953 0
      vertex 4.449593469062211 -3.232818887608602 0
      vertex 4.009327450817764 -3.765009082607787 0
    endloop
  endfacet
  facet normal 0 0 1
    outer loop
      vertex 6.952882373436316 -21.398771616640953 0
      vertex 4.819686740241249 -2.6496452075594346 0
      vertex 4.449593469062211 -3.232818887608602 0
    endloop
  endfacet
  facet normal 0 0 1
    outer loop
      vertex 6.952882373436316 -21.398771616640953 0
      vertex 5.113770672385382 -2.024685039765731 0
      vertex 4.819686740241249 -2.6496452075594346 0
    endloop
  endfacet
  facet normal 0 0 1
    outer loop
      vertex 6.952882373436316 -21.398771616640953 0
      vertex 5.327207386207472 -1.3677943794066993 0
      vertex 5.113770672385382 -2.024685039765731 0
    endloop
  endfacet
  facet normal 0 0 1
    outer loop
      vertex 6.952882373436316 -21.398771616640953 0
      vertex 5.456630857229628 -0.6893327846036723 0
      vertex 5.327207386207472 -1.3677943794066993 0
    endloop
  endfacet
  facet normal 0 0 1
    outer loop
      vertex 6.952882373436316 -21.398771616640953 0
      vertex 5.5 0 0
      vertex 5.456630857229628 -0.6893327846036723 0
    endloop
  endfacet
  facet normal 0 0 1
    outer loop
      vertex 6.952882373436316 -21.398771616640953 0
      vertex 5.456630857229628 0.6893327846036734 0
      vertex 5.5 0 0
    endloop
  endfacet
  facet normal 0 0 1
    outer loop
      vertex 6.952882373436316 -21.398771616640953 0
      vertex 9.58003406021413 -20.35860868048544 0
      vertex 6.952882373436316 21.398771616640953 0
    endloop
  endfacet
  facet normal 0 0 1
    outer loop
      vertex 9.58003406021413 -20.35860868048544 0
      vertex 12.056102887027414 -18.997378323795346 0
      vertex 9.580034060214135 20.35860868048544 0
    endloop
  endfacet
  facet normal 0.5877852522924732 -0.8090169943749475 0
    outer loop
      vertex 12.056102887027414 -18.997378323795346 -3
      vertex 14.342039769345524 -17.336547962455253 0
      vertex 12.056102887027414 -18.997378323795346 0
    endloop
  endfacet
  facet normal 0.6845471059286892 -0.7289686274214112 0
    outer loop
      vertex 14.342039769345524 -17.336547962455253 -3
      vertex 16.401794116981762 -15.40230988339549 0
      vertex 14.342039769345524 -17.336547962455253 0
    endloop
  endfacet
  facet normal 0.770513242775789 -0.6374239897486899 0
    outer loop
      vertex 18.202882373436317 -13.225168176580645 -3
      vertex 18.202882373436317 -13.225168176580645 0
      vertex 16.401794116981762 -15.40230988339549 0
    endloop
  endfacet
  facet normal 0.8443279255020153 -0.5358267949789963 0
    outer loop
      vertex 19.71690030098693 -10.839457667288595 -3
      vertex 19.71690030098693 -10.839457667288595 0
      vertex 18.202882373436317 -13.225168176580645 0
    endloop
  endfacet
  facet normal 0.9048270524660191 -0.42577929156507344 0
    outer loop
      vertex 20.919970932485654 -8.282802435405262 -3
      vertex 20.919970932485654 -8.282802435405262 0
      vertex 19.71690030098693 -10.839457667288595 0
    endloop
  endfacet
  facet normal 0.9510565162951538 -0.30901699437494673 0
    outer loop
      vertex 21.7931211253942 -5.5955224612092245 -3
      vertex 21.7931211253942 -5.5955224612092245 0
      vertex 20.919970932485654 -8.282802435405262 0
    endloop
  endfacet
  facet normal 0.9822872507286886 -0.18738131458572482 0
    outer loop
      vertex 22.322580779575752 -2.8199977551968414 -3
      vertex 22.322580779575752 -2.8199977551968414 0
      vertex 21.7931211253942 -5.5955224612092245 0
    endloop
  endfacet
  facet normal 0.9980267284282716 -0.06279051952931325 0
    outer loop
      vertex 22.322580779575752 -2.8199977551968414 0
      vertex 22.5 0 -3
      vertex 22.5 0 0
    endloop
  endfacet
  facet normal 0 0 1
    outer loop
      vertex 12.056102887027414 -18.997378323795346 0
      vertex 14.342039769345524 -17.336547962455253 0
      vertex 12.056102887027425 18.99737832379534 0
    endloop
  endfacet
  facet normal 0 0 1
    outer loop
      vertex 14.342039769345524 -17.336547962455253 0
      vertex 16.401794116981762 -15.40230988339549 0
      vertex 14.342039769345519 17.336547962455256 0
    endloop
  endfacet
  facet normal 0 0 1
    outer loop
      vertex 16.401794116981762 -15.40230988339549 0
      vertex 18.202882373436317 -13.225168176580645 0
      vertex 16.40179411698176 15.402309883395496 0
    endloop
  endfacet
  facet normal 0 0 1
    outer loop
      vertex 18.202882373436317 -13.225168176580645 0
      vertex 19.71690030098693 -10.839457667288595 0
      vertex 18.202882373436317 13.225168176580645 0
    endloop
  endfacet
  facet normal 0 0 1
    outer loop
      vertex 19.71690030098693 -10.839457667288595 0
      vertex 20.919970932485654 -8.282802435405262 0
      vertex 19.716900300986932 10.839457667288595 0
    endloop
  endfacet
  facet normal 0 0 1
    outer loop
      vertex 20.919970932485654 -8.282802435405262 0
      vertex 21.7931211253942 -5.5955224612092245 0
      vertex 20.919970932485654 8.282802435405255 0
    endloop
  endfacet
  facet normal 0 0 1
    outer loop
      vertex 21.7931211253942 -5.5955224612092245 0
      vertex 22.322580779575752 -2.8199977551968414 0
      vertex 21.7931211253942 5.5955224612092325 0
    endloop
  endfacet
  facet normal 0 0 -1
    outer loop
      vertex 4.2160795781788085 -22.101463141395495 -3
      vertex 3.5357142857142856 0 -3
      vertex 4.216079578178803 22.101463141395495 -3
    endloop
  endfacet
  facet normal 0 0 -1
    outer loop
      vertex 1.4127866894095487 22.45560138963611 -3
      vertex 0.6625267908566691 3.473087065076435 -3
      vertex 0.22200933690721011 3.5287373612285315 -3
    endloop
  endfacet
  facet normal 0 0 -1
    outer loop
      vertex 1.4127866894095487 22.45560138963611 -3
      vertex 1.0925958015399926 3.3626641111864357 -3
      vertex 0.6625267908566691 3.473087065076435 -3
    endloop
  endfacet
  facet normal 0 0 -1
    outer loop
      vertex 4.216079578178803 22.101463141395495 -3
      vertex 1.5054339237479357 3.199209935504855 -3
      vertex 1.0925958015399926 3.3626641111864357 -3
    endloop
  endfacet
  facet normal 0 0 -1
    outer loop
      vertex 4.216079578178803 22.101463141395495 -3
      vertex 1.8945304536757381 2.985302308024982 -3
      vertex 1.5054339237479357 3.199209935504855 -3
    endloop
  endfacet
  facet normal 0 0 -1
    outer loop
      vertex 4.216079578178803 22.101463141395495 -3
      vertex 2.253749106611439 2.7243146798143973 -3
      vertex 1.8945304536757381 2.985302308024982 -3
    endloop
  endfacet
  facet normal 0 0 -1
    outer loop
      vertex 4.216079578178803 22.101463141395495 -3
      vertex 3.5357142857142856 0 -3
      vertex 3.507834122504761 0.4431425043880758 -3
    endloop
  endfacet
  facet normal 0 0 -1
    outer loop
      vertex 4.216079578178803 22.101463141395495 -3
      vertex 3.507834122504761 0.4431425043880758 -3
      vertex 3.424633319704803 0.8792963867614509 -3
    endloop
  endfacet
  facet normal 0 0 -1
    outer loop
      vertex 4.216079578178803 22.101463141395495 -3
      vertex 3.424633319704803 0.8792963867614509 -3
      vertex 3.2874240036763176 1.3015832398493972 -3
    endloop
  endfacet
  facet normal 0 0 -1
    outer loop
      vertex 4.216079578178803 22.101463141395495 -3
      vertex 3.2874240036763176 1.3015832398493972 -3
      vertex 3.0983700472979465 1.7033433477167792 -3
    endloop
  endfacet
  facet normal 0 0 -1
    outer loop
      vertex 4.2160795781788085 -22.101463141395495 -3
      vertex 4.216079578178803 22.101463141395495 -3
      vertex 6.952882373436316 21.398771616640953 -3
    endloop
  endfacet
  facet normal 0 0 -1
    outer loop
      vertex 4.216079578178803 22.101463141395495 -3
      vertex 2.5774247898114195 2.420362981676435 -3
      vertex 2.253749106611439 2.7243146798143973 -3
    endloop
  endfacet
  facet normal 0 0 -1
    outer loop
      vertex 4.216079578178803 22.101463141395495 -3
      vertex 3.0983700472979465 1.7033433477167792 -3
      vertex 2.860452944397136 2.078240713462673 -3
    endloop
  endfacet
  facet normal 0 0 -1
    outer loop
      vertex 4.216079578178803 22.101463141395495 -3
      vertex 2.860452944397136 2.078240713462673 -3
      vertex 2.5774247898114195 2.420362981676435 -3
    endloop
  endfacet
  facet normal 0 0 -1
    outer loop
      vertex 6.952882373436316 -21.398771616640953 -3
      vertex 6.952882373436316 21.398771616640953 -3
      vertex 9.580034060214135 20.35860868048544 -3
    endloop
  endfacet
  facet normal 0 0 -1
    outer loop
      vertex 9.58003406021413 -20.35860868048544 -3
      vertex 9.580034060214135 20.35860868048544 -3
      vertex 12.056102887027425 18.99737832379534 -3
    endloop
  endfacet
  facet normal 0 0 -1
    outer loop
      vertex -1.4127866894095487 22.45560138963611 -3
      vertex 1.4127866894095487 22.45560138963611 -3
      vertex 0.22200933690721011 3.5287373612285315 -3
    endloop
  endfacet
  facet normal 0 0 -1
    outer loop
      vertex 1.4127866894095487 22.45560138963611 -3
      vertex 4.216079578178803 22.101463141395495 -3
      vertex 1.0925958015399926 3.3626641111864357 -3
    endloop
  endfacet
  facet normal 0.12533323356430473 0.9921147013144779 0
    outer loop
      vertex 1.4127866894095487 22.45560138963611 -3
      vertex 1.4127866894095487 22.45560138963611 0
      vertex 4.216079578178803 22.101463141395495 -3
    endloop
  endfacet
  facet normal 0.24868988716485538 0.9685831611286309 0
    outer loop
      vertex 4.216079578178803 22.101463141395495 -3
      vertex 4.216079578178803 22.101463141395495 0
      vertex 6.952882373436316 21.398771616640953 -3
    endloop
  endfacet
  facet normal 0.3681245526846773 0.9297764858882517 0
    outer loop
      vertex 6.952882373436316 21.398771616640953 -3
      vertex 6.952882373436316 21.398771616640953 0
      vertex 9.580034060214135 20.35860868048544 -3
    endloop
  endfacet
  facet normal 0.48175367410171527 0.8763066800438635 0
    outer loop
      vertex 9.580034060214135 20.35860868048544 -3
      vertex 9.580034060214135 20.35860868048544 0
      vertex 12.056102887027425 18.99737832379534 -3
    endloop
  endfacet
  facet normal 0 0 -1
    outer loop
      vertex 14.342039769345524 -17.336547962455253 -3
      vertex 14.342039769345519 17.336547962455256 -3
      vertex 16.40179411698176 15.402309883395496 -3
    endloop
  endfacet
  facet normal 0 0 -1
    outer loop
      vertex 12.056102887027414 -18.997378323795346 -3
      vertex 12.056102887027425 18.99737832379534 -3
      vertex 14.342039769345519 17.336547962455256 -3
    endloop
  endfacet
  facet normal 0 0 -1
    outer loop
      vertex 16.401794116981762 -15.40230988339549 -3
      vertex 16.40179411698176 15.402309883395496 -3
      vertex 18.202882373436317 13.225168176580645 -3
    endloop
  endfacet
  facet normal 0 0 -1
    outer loop
      vertex 18.202882373436317 -13.225168176580645 -3
      vertex 18.202882373436317 13.225168176580645 -3
      vertex 19.716900300986932 10.839457667288595 -3
    endloop
  endfacet
  facet normal 0 0 -1
    outer loop
      vertex 19.71690030098693 -10.839457667288595 -3
      vertex 19.716900300986932 10.839457667288595 -3
      vertex 20.919970932485654 8.282802435405255 -3
    endloop
  endfacet
  facet normal 0 0 -1
    outer loop
      vertex 22.322580779575752 -2.8199977551968414 -3
      vertex 22.322580779575752 2.819997755196846 -3
      vertex 22.5 0 -3
    endloop
  endfacet
  facet normal 0 0 -1
    outer loop
      vertex 21.7931211253942 -5.5955224612092245 -3
      vertex 21.7931211253942 5.5955224612092325 -3
      vertex 22.322580779575752 2.819997755196846 -3
    endloop
  endfacet
  facet normal 0 0 -1
    outer loop
      vertex 20.919970932485654 -8.282802435405262 -3
      vertex 20.919970932485654 8.282802435405255 -3
      vertex 21.7931211253942 5.5955224612092325 -3
    endloop
  endfacet
  facet normal 0.9980267284282716 0.06279051952931315 0
    outer loop
      vertex 22.5 0 -3
      vertex 22.322580779575752 2.819997755196846 -3
      vertex 22.5 0 0
    endloop
  endfacet
  facet normal 0.9822872507286886 0.1873813145857246 0
    outer loop
      vertex 22.322580779575752 2.819997755196846 -3
      vertex 21.7931211253942 5.5955224612092325 -3
      vertex 22.322580779575752 2.819997755196846 0
    endloop
  endfacet
  facet normal 0.9510565162951533 0.30901699437494834 0
    outer loop
      vertex 21.7931211253942 5.5955224612092325 -3
      vertex 20.919970932485654 8.282802435405255 -3
      vertex 21.7931211253942 5.5955224612092325 0
    endloop
  endfacet
  facet normal 0.9048270524660201 0.42577929156507144 0
    outer loop
      vertex 20.919970932485654 8.282802435405255 -3
      vertex 19.716900300986932 10.839457667288595 -3
      vertex 20.919970932485654 8.282802435405255 0
    endloop
  endfacet
  facet normal 0.6845471059286884 0.7289686274214117 0
    outer loop
      vertex 16.40179411698176 15.402309883395496 -3
      vertex 14.342039769345519 17.336547962455256 -3
      vertex 14.342039769345519 17.336547962455256 0
    endloop
  endfacet
  facet normal 0.5877852522924734 0.8090169943749472 0
    outer loop
      vertex 12.056102887027425 18.99737832379534 -3
      vertex 12.056102887027425 18.99737832379534 0
      vertex 14.342039769345519 17.336547962455256 -3
    endloop
  endfacet
  facet normal 0.7705132427757891 0.6374239897486897 0
    outer loop
      vertex 16.40179411698176 15.402309883395496 -3
      vertex 18.202882373436317 13.225168176580645 0
      vertex 18.202882373436317 13.225168176580645 -3
    endloop
  endfacet
  facet normal 0.8443279255020147 0.5358267949789972 0
    outer loop
      vertex 19.716900300986932 10.839457667288595 -3
      vertex 18.202882373436317 13.225168176580645 -3
      vertex 19.716900300986932 10.839457667288595 0
    endloop
  endfacet
  facet normal 0 0 1
    outer loop
      vertex 6.952882373436316 -21.398771616640953 0
      vertex 4.216079578178803 22.101463141395495 0
      vertex 5.456630857229628 0.6893327846036734 0
    endloop
  endfacet
  facet normal 0 0 1
    outer loop
      vertex 1.4127866894095487 22.45560138963611 0
      vertex -0.345347857411219 5.489147006355494 0
      vertex 0.34534785741122304 5.489147006355494 0
    endloop
  endfacet
  facet normal 0 0 1
    outer loop
      vertex 1.4127866894095487 22.45560138963611 0
      vertex 0.34534785741122304 5.489147006355494 0
      vertex 1.0305972302214852 5.402579879007788 0
    endloop
  endfacet
  facet normal 0 0 1
    outer loop
      vertex 1.4127866894095487 22.45560138963611 0
      vertex 1.0305972302214852 5.402579879007788 0
      vertex 1.6995934690622108 5.230810839623344 0
    endloop
  endfacet
  facet normal 0 0 1
    outer loop
      vertex 1.4127866894095487 22.45560138963611 0
      vertex 1.6995934690622108 5.230810839623344 0
      vertex 2.3417861036079 4.9765487885631075 0
    endloop
  endfacet
  facet normal 0 0 1
    outer loop
      vertex 1.4127866894095487 22.45560138963611 0
      vertex 2.3417861036079 4.9765487885631075 0
      vertex 2.9470473723844814 4.643803590261083 0
    endloop
  endfacet
  facet normal 0 0 1
    outer loop
      vertex 4.216079578178803 22.101463141395495 0
      vertex 5.327207386207471 1.3677943794067013 0
      vertex 5.456630857229628 0.6893327846036734 0
    endloop
  endfacet
  facet normal 0 0 1
    outer loop
      vertex 4.216079578178803 22.101463141395495 0
      vertex 2.9470473723844814 4.643803590261083 0
      vertex 3.5058319436177934 4.23782283526684 0
    endloop
  endfacet
  facet normal 0 0 1
    outer loop
      vertex 4.216079578178803 22.101463141395495 0
      vertex 3.5058319436177934 4.23782283526684 0
      vertex 4.009327450817763 3.765009082607788 0
    endloop
  endfacet
  facet normal 0 0 1
    outer loop
      vertex 4.216079578178803 22.101463141395495 0
      vertex 5.113770672385383 2.0246850397657288 0
      vertex 5.327207386207471 1.3677943794067013 0
    endloop
  endfacet
  facet normal 0 0 1
    outer loop
      vertex 4.216079578178803 22.101463141395495 0
      vertex 4.8196867402412495 2.649645207559434 0
      vertex 5.113770672385383 2.0246850397657288 0
    endloop
  endfacet
  facet normal 0 0 1
    outer loop
      vertex 4.216079578178803 22.101463141395495 0
      vertex 4.449593469062211 3.232818887608602 0
      vertex 4.8196867402412495 2.649645207559434 0
    endloop
  endfacet
  facet normal 0 0 1
    outer loop
      vertex 4.216079578178803 22.101463141395495 0
      vertex 4.009327450817763 3.765009082607788 0
      vertex 4.449593469062211 3.232818887608602 0
    endloop
  endfacet
  facet normal 0 0 1
    outer loop
      vertex 6.952882373436316 -21.398771616640953 0
      vertex 6.952882373436316 21.398771616640953 0
      vertex 4.216079578178803 22.101463141395495 0
    endloop
  endfacet
  facet normal 0 0 1
    outer loop
      vertex 9.58003406021413 -20.35860868048544 0
      vertex 9.580034060214135 20.35860868048544 0
      vertex 6.952882373436316 21.398771616640953 0
    endloop
  endfacet
  facet normal 0 0 1
    outer loop
      vertex 12.056102887027414 -18.997378323795346 0
      vertex 12.056102887027425 18.99737832379534 0
      vertex 9.580034060214135 20.35860868048544 0
    endloop
  endfacet
  facet normal 0 1 0
    outer loop
      vertex -1.4127866894095487 22.45560138963611 0
      vertex 1.4127866894095487 22.45560138963611 0
      vertex 1.4127866894095487 22.45560138963611 -3
    endloop
  endfacet
  facet normal 0.12533323356430473 0.9921147013144779 0
    outer loop
      vertex 4.216079578178803 22.101463141395495 -3
      vertex 1.4127866894095487 22.45560138963611 0
      vertex 4.216079578178803 22.101463141395495 0
    endloop
  endfacet
  facet normal 0.24868988716485538 0.9685831611286309 0
    outer loop
      vertex 6.952882373436316 21.398771616640953 -3
      vertex 4.216079578178803 22.101463141395495 0
      vertex 6.952882373436316 21.398771616640953 0
    endloop
  endfacet
  facet normal 0.48175367410171527 0.8763066800438635 0
    outer loop
      vertex 12.056102887027425 18.99737832379534 -3
      vertex 9.580034060214135 20.35860868048544 0
      vertex 12.056102887027425 18.99737832379534 0
    endloop
  endfacet
  facet normal 0.3681245526846773 0.9297764858882517 0
    outer loop
      vertex 9.580034060214135 20.35860868048544 -3
      vertex 6.952882373436316 21.398771616640953 0
      vertex 9.580034060214135 20.35860868048544 0
    endloop
  endfacet
  facet normal 0 0 1
    outer loop
      vertex 1.4127866894095487 22.45560138963611 0
      vertex 2.9470473723844814 4.643803590261083 0
      vertex 4.216079578178803 22.101463141395495 0
    endloop
  endfacet
  facet normal 0.9980267284282716 0.06279051952931315 0
    outer loop
      vertex 22.322580779575752 2.819997755196846 -3
      vertex 22.322580779575752 2.819997755196846 0
      vertex 22.5 0 0
    endloop
  endfacet
  facet normal 0.9822872507286886 0.1873813145857246 0
    outer loop
      vertex 21.7931211253942 5.5955224612092325 -3
      vertex 21.7931211253942 5.5955224612092325 0
      vertex 22.322580779575752 2.819997755196846 0
    endloop
  endfacet
  facet normal 0.9510565162951533 0.30901699437494834 0
    outer loop
      vertex 20.919970932485654 8.282802435405255 -3
      vertex 20.919970932485654 8.282802435405255 0
      vertex 21.7931211253942 5.5955224612092325 0
    endloop
  endfacet
  facet normal 0.9048270524660201 0.42577929156507144 0
    outer loop
      vertex 19.716900300986932 10.839457667288595 -3
      vertex 19.716900300986932 10.839457667288595 0
      vertex 20.919970932485654 8.282802435405255 0
    endloop
  endfacet
  facet normal 0 0 1
    outer loop
      vertex 14.342039769345524 -17.336547962455253 0
      vertex 14.342039769345519 17.336547962455256 0
      vertex 12.056102887027425 18.99737832379534 0
    endloop
  endfacet
  facet normal 0 0 1
    outer loop
      vertex 16.401794116981762 -15.40230988339549 0
      vertex 16.40179411698176 15.402309883395496 0
      vertex 14.342039769345519 17.336547962455256 0
    endloop
  endfacet
  facet normal 0 0 1
    outer loop
      vertex 18.202882373436317 -13.225168176580645 0
      vertex 18.202882373436317 13.225168176580645 0
      vertex 16.40179411698176 15.402309883395496 0
    endloop
  endfacet
  facet normal 0 0 1
    outer loop
      vertex 19.71690030098693 -10.839457667288595 0
      vertex 19.716900300986932 10.839457667288595 0
      vertex 18.202882373436317 13.225168176580645 0
    endloop
  endfacet
  facet normal 0 0 1
    outer loop
      vertex 22.322580779575752 -2.8199977551968414 0
      vertex 22.5 0 0
      vertex 22.322580779575752 2.819997755196846 0
    endloop
  endfacet
  facet normal 0 0 1
    outer loop
      vertex 21.7931211253942 -5.5955224612092245 0
      vertex 21.7931211253942 5.5955224612092325 0
      vertex 20.919970932485654 8.282802435405255 0
    endloop
  endfacet
  facet normal 0 0 1
    outer loop
      vertex 22.322580779575752 -2.8199977551968414 0
      vertex 22.322580779575752 2.819997755196846 0
      vertex 21.7931211253942 5.5955224612092325 0
    endloop
  endfacet
  facet normal 0 0 1
    outer loop
      vertex 20.919970932485654 -8.282802435405262 0
      vertex 20.919970932485654 8.282802435405255 0
      vertex 19.716900300986932 10.839457667288595 0
    endloop
  endfacet
  facet normal 0.6845471059286884 0.7289686274214117 0
    outer loop
      vertex 16.40179411698176 15.402309883395496 -3
      vertex 14.342039769345519 17.336547962455256 0
      vertex 16.40179411698176 15.402309883395496 0
    endloop
  endfacet
  facet normal 0.5877852522924734 0.8090169943749472 0
    outer loop
      vertex 14.342039769345519 17.336547962455256 -3
      vertex 12.056102887027425 18.99737832379534 0
      vertex 14.342039769345519 17.336547962455256 0
    endloop
  endfacet
  facet normal 0.8443279255020147 0.5358267949789972 0
    outer loop
      vertex 18.202882373436317 13.225168176580645 -3
      vertex 18.202882373436317 13.225168176580645 0
      vertex 19.716900300986932 10.839457667288595 0
    endloop
  endfacet
  facet normal 0.7705132427757891 0.6374239897486897 0
    outer loop
      vertex 16.40179411698176 15.402309883395496 -3
      vertex 16.40179411698176 15.402309883395496 0
      vertex 18.202882373436317 13.225168176580645 0
    endloop
  endfacet
endsolid OpenSCAD_Model
