solid OpenSCAD_Model
  facet normal 0 0 1
    outer loop
      vertex 5.5 0 0
      vertex 12.5 0 0
      vertex 12.4014 1.56666 0
    endloop
  endfacet
  facet normal 0 0 1
    outer loop
      vertex 5.45663 0.689332 0
      vertex 12.4014 1.56666 0
      vertex 12.1073 3.10862 0
    endloop
  endfacet
  facet normal 0 0 1
    outer loop
      vertex 12.5 0 0
      vertex 5.5 0 0
      vertex 12.4014 -1.56666 0
    endloop
  endfacet
  facet normal 0 0 1
    outer loop
      vertex 5.32721 1.36779 0
      vertex 12.1073 3.10862 0
      vertex 11.6222 4.60156 0
    endloop
  endfacet
  facet normal -0 0 1
    outer loop
      vertex 5.45663 -0.689332 0
      vertex 12.4014 -1.56666 0
      vertex 5.5 0 0
    endloop
  endfacet
  facet normal 0 0 1
    outer loop
      vertex 5.11377 2.02468 0
      vertex 11.6222 4.60156 0
      vertex 10.9538 6.02192 0
    endloop
  endfacet
  facet normal 0 0 1
    outer loop
      vertex 12.4014 -1.56666 0
      vertex 5.45663 -0.689332 0
      vertex 12.1073 -3.10862 0
    endloop
  endfacet
  facet normal 0 0 1
    outer loop
      vertex 4.81969 2.64964 0
      vertex 10.9538 6.02192 0
      vertex 10.1127 7.34731 0
    endloop
  endfacet
  facet normal -0 0 1
    outer loop
      vertex 5.32721 -1.36779 0
      vertex 12.1073 -3.10862 0
      vertex 5.45663 -0.689332 0
    endloop
  endfacet
  facet normal 0 0 1
    outer loop
      vertex 4.44959 3.23282 0
      vertex 10.1127 7.34731 0
      vertex 9.11211 8.55684 0
    endloop
  endfacet
  facet normal 0 0 1
    outer loop
      vertex 12.1073 -3.10862 0
      vertex 5.32721 -1.36779 0
      vertex 11.6222 -4.60156 0
    endloop
  endfacet
  facet normal 0 0 1
    outer loop
      vertex 4.00933 3.76501 0
      vertex 9.11211 8.55684 0
      vertex 7.9678 9.63142 0
    endloop
  endfacet
  facet normal -0 0 1
    outer loop
      vertex 5.11377 -2.02468 0
      vertex 11.6222 -4.60156 0
      vertex 5.32721 -1.36779 0
    endloop
  endfacet
  facet normal 0 0 1
    outer loop
      vertex 3.50583 4.23782 0
      vertex 7.9678 9.63142 0
      vertex 6.69783 10.5541 0
    endloop
  endfacet
  facet normal 0 0 1
    outer loop
      vertex 11.6222 -4.60156 0
      vertex 5.11377 -2.02468 0
      vertex 10.9538 -6.02192 0
    endloop
  endfacet
  facet normal -0 0 1
    outer loop
      vertex 4.81969 -2.64964 0
      vertex 10.9538 -6.02192 0
      vertex 5.11377 -2.02468 0
    endloop
  endfacet
  facet normal 0 0 1
    outer loop
      vertex 12.4014 1.56666 0
      vertex 5.45663 0.689332 0
      vertex 5.5 0 0
    endloop
  endfacet
  facet normal 0 0 1
    outer loop
      vertex 12.1073 3.10862 0
      vertex 5.32721 1.36779 0
      vertex 5.45663 0.689332 0
    endloop
  endfacet
  facet normal 0 0 1
    outer loop
      vertex 2.94705 4.6438 0
      vertex 6.69783 10.5541 0
      vertex 5.32224 11.3103 0
    endloop
  endfacet
  facet normal 0 0 1
    outer loop
      vertex 11.6222 4.60156 0
      vertex 5.11377 2.02468 0
      vertex 5.32721 1.36779 0
    endloop
  endfacet
  facet normal 0 0 1
    outer loop
      vertex 10.9538 6.02192 0
      vertex 4.81969 2.64964 0
      vertex 5.11377 2.02468 0
    endloop
  endfacet
  facet normal 0 0 1
    outer loop
      vertex 10.1127 7.34731 0
      vertex 4.44959 3.23282 0
      vertex 4.81969 2.64964 0
    endloop
  endfacet
  facet normal 0 0 1
    outer loop
      vertex 9.11211 8.55684 0
      vertex 4.00933 3.76501 0
      vertex 4.44959 3.23282 0
    endloop
  endfacet
  facet normal 0 0 1
    outer loop
      vertex 2.34179 4.97655 0
      vertex 5.32224 11.3103 0
      vertex 3.86271 11.8882 0
    endloop
  endfacet
  facet normal 0 0 1
    outer loop
      vertex 7.9678 9.63142 0
      vertex 3.50583 4.23782 0
      vertex 4.00933 3.76501 0
    endloop
  endfacet
  facet normal 0 0 1
    outer loop
      vertex 6.69783 10.5541 0
      vertex 2.94705 4.6438 0
      vertex 3.50583 4.23782 0
    endloop
  endfacet
  facet normal 0 0 1
    outer loop
      vertex 1.69959 5.23081 0
      vertex 3.86271 11.8882 0
      vertex 2.34227 12.2786 0
    endloop
  endfacet
  facet normal 0 0 1
    outer loop
      vertex 5.32224 11.3103 0
      vertex 2.34179 4.97655 0
      vertex 2.94705 4.6438 0
    endloop
  endfacet
  facet normal 0 0 1
    outer loop
      vertex 3.86271 11.8882 0
      vertex 1.69959 5.23081 0
      vertex 2.34179 4.97655 0
    endloop
  endfacet
  facet normal 0 0 1
    outer loop
      vertex 2.34227 12.2786 0
      vertex 1.0306 5.40258 0
      vertex 1.69959 5.23081 0
    endloop
  endfacet
  facet normal 0 0 1
    outer loop
      vertex 0.784881 12.4753 0
      vertex 1.0306 5.40258 0
      vertex 2.34227 12.2786 0
    endloop
  endfacet
  facet normal 0 0 1
    outer loop
      vertex 0.784881 12.4753 0
      vertex 0.345347 5.48915 0
      vertex 1.0306 5.40258 0
    endloop
  endfacet
  facet normal 0 0 1
    outer loop
      vertex 0.784881 12.4753 0
      vertex -0.345347 5.48915 0
      vertex 0.345347 5.48915 0
    endloop
  endfacet
  facet normal -0 0 1
    outer loop
      vertex -0.784881 12.4753 0
      vertex -0.345347 5.48915 0
      vertex 0.784881 12.4753 0
    endloop
  endfacet
  facet normal 0 0 1
    outer loop
      vertex -0.784881 12.4753 0
      vertex -1.0306 5.40258 0
      vertex -0.345347 5.48915 0
    endloop
  endfacet
  facet normal -0 0 1
    outer loop
      vertex -2.34227 12.2786 0
      vertex -1.0306 5.40258 0
      vertex -0.784881 12.4753 0
    endloop
  endfacet
  facet normal 0 0 1
    outer loop
      vertex -1.0306 5.40258 0
      vertex -2.34227 12.2786 0
      vertex -1.69959 5.23081 0
    endloop
  endfacet
  facet normal -0 0 1
    outer loop
      vertex -3.86271 11.8882 0
      vertex -1.69959 5.23081 0
      vertex -2.34227 12.2786 0
    endloop
  endfacet
  facet normal 0 0 1
    outer loop
      vertex -1.69959 5.23081 0
      vertex -3.86271 11.8882 0
      vertex -2.34179 4.97655 0
    endloop
  endfacet
  facet normal -0 0 1
    outer loop
      vertex -5.32224 11.3103 0
      vertex -2.34179 4.97655 0
      vertex -3.86271 11.8882 0
    endloop
  endfacet
  facet normal 0 0 1
    outer loop
      vertex -2.34179 4.97655 0
      vertex -5.32224 11.3103 0
      vertex -2.94705 4.6438 0
    endloop
  endfacet
  facet normal -0 0 1
    outer loop
      vertex -6.69783 10.5541 0
      vertex -2.94705 4.6438 0
      vertex -5.32224 11.3103 0
    endloop
  endfacet
  facet normal 0 0 1
    outer loop
      vertex -2.94705 4.6438 0
      vertex -6.69783 10.5541 0
      vertex -3.50583 4.23782 0
    endloop
  endfacet
  facet normal -0 0 1
    outer loop
      vertex -7.9678 9.63142 0
      vertex -3.50583 4.23782 0
      vertex -6.69783 10.5541 0
    endloop
  endfacet
  facet normal 0 0 1
    outer loop
      vertex -3.50583 4.23782 0
      vertex -7.9678 9.63142 0
      vertex -4.00933 3.76501 0
    endloop
  endfacet
  facet normal -0 0 1
    outer loop
      vertex -9.11211 8.55684 0
      vertex -4.00933 3.76501 0
      vertex -7.9678 9.63142 0
    endloop
  endfacet
  facet normal 0 0 1
    outer loop
      vertex -4.00933 3.76501 0
      vertex -9.11211 8.55684 0
      vertex -4.44959 3.23282 0
    endloop
  endfacet
  facet normal -0 0 1
    outer loop
      vertex -10.1127 7.34731 0
      vertex -4.44959 3.23282 0
      vertex -9.11211 8.55684 0
    endloop
  endfacet
  facet normal 0 0 1
    outer loop
      vertex -4.44959 3.23282 0
      vertex -10.1127 7.34731 0
      vertex -4.81969 2.64964 0
    endloop
  endfacet
  facet normal -0 0 1
    outer loop
      vertex -10.9538 6.02192 0
      vertex -4.81969 2.64964 0
      vertex -10.1127 7.34731 0
    endloop
  endfacet
  facet normal 0 0 1
    outer loop
      vertex 10.9538 -6.02192 0
      vertex 4.81969 -2.64964 0
      vertex 10.1127 -7.34731 0
    endloop
  endfacet
  facet normal -0 0 1
    outer loop
      vertex 4.44959 -3.23282 0
      vertex 10.1127 -7.34731 0
      vertex 4.81969 -2.64964 0
    endloop
  endfacet
  facet normal 0 0 1
    outer loop
      vertex 10.1127 -7.34731 0
      vertex 4.44959 -3.23282 0
      vertex 9.11211 -8.55684 0
    endloop
  endfacet
  facet normal -0 0 1
    outer loop
      vertex 4.00933 -3.76501 0
      vertex 9.11211 -8.55684 0
      vertex 4.44959 -3.23282 0
    endloop
  endfacet
  facet normal 0 0 1
    outer loop
      vertex 9.11211 -8.55684 0
      vertex 4.00933 -3.76501 0
      vertex 7.9678 -9.63142 0
    endloop
  endfacet
  facet normal -0 0 1
    outer loop
      vertex 3.50583 -4.23782 0
      vertex 7.9678 -9.63142 0
      vertex 4.00933 -3.76501 0
    endloop
  endfacet
  facet normal 0 0 1
    outer loop
      vertex 7.9678 -9.63142 0
      vertex 3.50583 -4.23782 0
      vertex 6.69783 -10.5541 0
    endloop
  endfacet
  facet normal -0 0 1
    outer loop
      vertex 2.94705 -4.6438 0
      vertex 6.69783 -10.5541 0
      vertex 3.50583 -4.23782 0
    endloop
  endfacet
  facet normal 0 0 1
    outer loop
      vertex 6.69783 -10.5541 0
      vertex 2.94705 -4.6438 0
      vertex 5.32224 -11.3103 0
    endloop
  endfacet
  facet normal -0 0 1
    outer loop
      vertex 2.34179 -4.97655 0
      vertex 5.32224 -11.3103 0
      vertex 2.94705 -4.6438 0
    endloop
  endfacet
  facet normal 0 0 1
    outer loop
      vertex 5.32224 -11.3103 0
      vertex 2.34179 -4.97655 0
      vertex 3.86271 -11.8882 0
    endloop
  endfacet
  facet normal -0 0 1
    outer loop
      vertex 1.69959 -5.23081 0
      vertex 3.86271 -11.8882 0
      vertex 2.34179 -4.97655 0
    endloop
  endfacet
  facet normal 0 0 1
    outer loop
      vertex 3.86271 -11.8882 0
      vertex 1.69959 -5.23081 0
      vertex 2.34227 -12.2786 0
    endloop
  endfacet
  facet normal -0 0 1
    outer loop
      vertex 1.0306 -5.40258 0
      vertex 2.34227 -12.2786 0
      vertex 1.69959 -5.23081 0
    endloop
  endfacet
  facet normal 0 0 1
    outer loop
      vertex 1.0306 -5.40258 0
      vertex 0.784881 -12.4753 0
      vertex 2.34227 -12.2786 0
    endloop
  endfacet
  facet normal -0 0 1
    outer loop
      vertex 0.345347 -5.48915 0
      vertex 0.784881 -12.4753 0
      vertex 1.0306 -5.40258 0
    endloop
  endfacet
  facet normal -0 0 1
    outer loop
      vertex -0.345347 -5.48915 0
      vertex 0.784881 -12.4753 0
      vertex 0.345347 -5.48915 0
    endloop
  endfacet
  facet normal 0 0 1
    outer loop
      vertex -0.345347 -5.48915 0
      vertex -0.784881 -12.4753 0
      vertex 0.784881 -12.4753 0
    endloop
  endfacet
  facet normal 0 0 1
    outer loop
      vertex -1.0306 -5.40258 0
      vertex -0.784881 -12.4753 0
      vertex -0.345347 -5.48915 0
    endloop
  endfacet
  facet normal 0 0 1
    outer loop
      vertex -2.34227 -12.2786 0
      vertex -1.0306 -5.40258 0
      vertex -1.69959 -5.23081 0
    endloop
  endfacet
  facet normal 0 0 1
    outer loop
      vertex -3.86271 -11.8882 0
      vertex -1.69959 -5.23081 0
      vertex -2.34179 -4.97655 0
    endloop
  endfacet
  facet normal 0 0 1
    outer loop
      vertex -1.0306 -5.40258 0
      vertex -2.34227 -12.2786 0
      vertex -0.784881 -12.4753 0
    endloop
  endfacet
  facet normal 0 0 1
    outer loop
      vertex -5.32224 -11.3103 0
      vertex -2.34179 -4.97655 0
      vertex -2.94705 -4.6438 0
    endloop
  endfacet
  facet normal 0 0 1
    outer loop
      vertex -6.69783 -10.5541 0
      vertex -2.94705 -4.6438 0
      vertex -3.50583 -4.23782 0
    endloop
  endfacet
  facet normal 0 0 1
    outer loop
      vertex -1.69959 -5.23081 0
      vertex -3.86271 -11.8882 0
      vertex -2.34227 -12.2786 0
    endloop
  endfacet
  facet normal 0 0 1
    outer loop
      vertex -7.9678 -9.63142 0
      vertex -3.50583 -4.23782 0
      vertex -4.00933 -3.76501 0
    endloop
  endfacet
  facet normal 0 0 1
    outer loop
      vertex -9.11211 -8.55684 0
      vertex -4.00933 -3.76501 0
      vertex -4.44959 -3.23282 0
    endloop
  endfacet
  facet normal 0 0 1
    outer loop
      vertex -10.1127 -7.34731 0
      vertex -4.44959 -3.23282 0
      vertex -4.81969 -2.64964 0
    endloop
  endfacet
  facet normal 0 0 1
    outer loop
      vertex -10.9538 -6.02192 0
      vertex -4.81969 -2.64964 0
      vertex -5.11377 -2.02468 0
    endloop
  endfacet
  facet normal 0 0 1
    outer loop
      vertex -2.34179 -4.97655 0
      vertex -5.32224 -11.3103 0
      vertex -3.86271 -11.8882 0
    endloop
  endfacet
  facet normal 0 0 1
    outer loop
      vertex -11.6222 -4.60156 0
      vertex -5.11377 -2.02468 0
      vertex -5.32721 -1.36779 0
    endloop
  endfacet
  facet normal 0 0 1
    outer loop
      vertex -12.1073 -3.10862 0
      vertex -5.32721 -1.36779 0
      vertex -5.45663 -0.689332 0
    endloop
  endfacet
  facet normal 0 0 1
    outer loop
      vertex -12.4014 -1.56666 0
      vertex -5.45663 -0.689332 0
      vertex -5.5 0 0
    endloop
  endfacet
  facet normal 0 0 1
    outer loop
      vertex -4.81969 2.64964 0
      vertex -10.9538 6.02192 0
      vertex -5.11377 2.02468 0
    endloop
  endfacet
  facet normal 0 0 1
    outer loop
      vertex -2.94705 -4.6438 0
      vertex -6.69783 -10.5541 0
      vertex -5.32224 -11.3103 0
    endloop
  endfacet
  facet normal -0 0 1
    outer loop
      vertex -11.6222 4.60156 0
      vertex -5.11377 2.02468 0
      vertex -10.9538 6.02192 0
    endloop
  endfacet
  facet normal 0 0 1
    outer loop
      vertex -3.50583 -4.23782 0
      vertex -7.9678 -9.63142 0
      vertex -6.69783 -10.5541 0
    endloop
  endfacet
  facet normal 0 0 1
    outer loop
      vertex -5.11377 2.02468 0
      vertex -11.6222 4.60156 0
      vertex -5.32721 1.36779 0
    endloop
  endfacet
  facet normal 0 0 1
    outer loop
      vertex -4.00933 -3.76501 0
      vertex -9.11211 -8.55684 0
      vertex -7.9678 -9.63142 0
    endloop
  endfacet
  facet normal -0 0 1
    outer loop
      vertex -12.1073 3.10862 0
      vertex -5.32721 1.36779 0
      vertex -11.6222 4.60156 0
    endloop
  endfacet
  facet normal 0 0 1
    outer loop
      vertex -4.44959 -3.23282 0
      vertex -10.1127 -7.34731 0
      vertex -9.11211 -8.55684 0
    endloop
  endfacet
  facet normal 0 0 1
    outer loop
      vertex -5.32721 1.36779 0
      vertex -12.1073 3.10862 0
      vertex -5.45663 0.689332 0
    endloop
  endfacet
  facet normal 0 0 1
    outer loop
      vertex -4.81969 -2.64964 0
      vertex -10.9538 -6.02192 0
      vertex -10.1127 -7.34731 0
    endloop
  endfacet
  facet normal -0 0 1
    outer loop
      vertex -12.4014 1.56666 0
      vertex -5.45663 0.689332 0
      vertex -12.1073 3.10862 0
    endloop
  endfacet
  facet normal 0 0 1
    outer loop
      vertex -5.11377 -2.02468 0
      vertex -11.6222 -4.60156 0
      vertex -10.9538 -6.02192 0
    endloop
  endfacet
  facet normal 0 0 1
    outer loop
      vertex -5.45663 0.689332 0
      vertex -12.4014 1.56666 0
      vertex -5.5 0 0
    endloop
  endfacet
  facet normal 0 0 1
    outer loop
      vertex -5.32721 -1.36779 0
      vertex -12.1073 -3.10862 0
      vertex -11.6222 -4.60156 0
    endloop
  endfacet
  facet normal 0 0 1
    outer loop
      vertex -12.5 0 0
      vertex -5.5 0 0
      vertex -12.4014 1.56666 0
    endloop
  endfacet
  facet normal 0 0 1
    outer loop
      vertex -5.45663 -0.689332 0
      vertex -12.4014 -1.56666 0
      vertex -12.1073 -3.10862 0
    endloop
  endfacet
  facet normal 0 0 1
    outer loop
      vertex -5.5 0 0
      vertex -12.5 0 0
      vertex -12.4014 -1.56666 0
    endloop
  endfacet
  facet normal -0.644995 0.533613 0.547027
    outer loop
      vertex 2.00466 -1.8825 -4.2
      vertex 4.44959 -3.23282 0
      vertex 2.2248 -1.61641 -4.2
    endloop
  endfacet
  facet normal -0.64501 0.533592 0.54703
    outer loop
      vertex 4.44959 -3.23282 0
      vertex 2.00466 -1.8825 -4.2
      vertex 4.00933 -3.76501 0
    endloop
  endfacet
  facet normal -0.835462 -0.0525639 0.547029
    outer loop
      vertex 5.5 0 0
      vertex 5.45663 0.689332 0
      vertex 2.75 0 -4.2
    endloop
  endfacet
  facet normal -0.835463 -0.0525519 0.547028
    outer loop
      vertex 2.75 0 -4.2
      vertex 5.45663 0.689332 0
      vertex 2.72832 0.344666 -4.2
    endloop
  endfacet
  facet normal -0.835463 0.0525519 0.547028
    outer loop
      vertex 5.45663 -0.689332 0
      vertex 2.75 0 -4.2
      vertex 2.72832 -0.344666 -4.2
    endloop
  endfacet
  facet normal 0.822287 0.156856 0.547028
    outer loop
      vertex -5.32721 -1.36779 0
      vertex -2.72832 -0.344666 -4.2
      vertex -5.45663 -0.689332 0
    endloop
  endfacet
  facet normal 0.104921 -0.830513 0.547029
    outer loop
      vertex -0.515298 2.70129 -4.2
      vertex -0.345347 5.48915 0
      vertex -1.0306 5.40258 0
    endloop
  endfacet
  facet normal 0.104909 -0.830513 0.54703
    outer loop
      vertex -0.345347 5.48915 0
      vertex -0.515298 2.70129 -4.2
      vertex -0.172673 2.74457 -4.2
    endloop
  endfacet
  facet normal -0.104921 0.830513 0.547029
    outer loop
      vertex 0.515298 -2.70129 -4.2
      vertex 0.345347 -5.48915 0
      vertex 1.0306 -5.40258 0
    endloop
  endfacet
  facet normal -0.104909 0.830513 0.54703
    outer loop
      vertex 0.345347 -5.48915 0
      vertex 0.515298 -2.70129 -4.2
      vertex 0.172673 -2.74457 -4.2
    endloop
  endfacet
  facet normal -0.796141 0.258688 0.547029
    outer loop
      vertex 2.55688 -1.01234 -4.2
      vertex 5.32721 -1.36779 0
      vertex 2.6636 -0.683897 -4.2
    endloop
  endfacet
  facet normal -0.796141 0.258686 0.547029
    outer loop
      vertex 5.32721 -1.36779 0
      vertex 2.55688 -1.01234 -4.2
      vertex 5.11377 -2.02468 0
    endloop
  endfacet
  facet normal -0.835462 0.0525639 0.547029
    outer loop
      vertex 5.45663 -0.689332 0
      vertex 5.5 0 0
      vertex 2.75 0 -4.2
    endloop
  endfacet
  facet normal 0.492034 0.677247 0.547028
    outer loop
      vertex -1.47352 -2.3219 -4.2
      vertex -1.75292 -2.11891 -4.2
      vertex -3.50583 -4.23782 0
    endloop
  endfacet
  facet normal -0.706797 0.448551 0.547028
    outer loop
      vertex 4.44959 -3.23282 0
      vertex 4.81969 -2.64964 0
      vertex 2.2248 -1.61641 -4.2
    endloop
  endfacet
  facet normal -0.308182 0.77832 0.54703
    outer loop
      vertex 2.34179 -4.97655 0
      vertex 1.17089 -2.48827 -4.2
      vertex 0.849796 -2.61541 -4.2
    endloop
  endfacet
  facet normal -0.403288 0.733565 0.547029
    outer loop
      vertex 2.34179 -4.97655 0
      vertex 2.94705 -4.6438 0
      vertex 1.47352 -2.3219 -4.2
    endloop
  endfacet
  facet normal 0.757445 0.356422 0.547029
    outer loop
      vertex -5.11377 -2.02468 0
      vertex -2.40984 -1.32482 -4.2
      vertex -2.55688 -1.01234 -4.2
    endloop
  endfacet
  facet normal 0.757445 0.356422 0.547029
    outer loop
      vertex -2.40984 -1.32482 -4.2
      vertex -5.11377 -2.02468 0
      vertex -4.81969 -2.64964 0
    endloop
  endfacet
  facet normal 0.208171 0.810817 0.547029
    outer loop
      vertex -0.515298 -2.70129 -4.2
      vertex -0.849796 -2.61541 -4.2
      vertex -1.0306 -5.40258 0
    endloop
  endfacet
  facet normal 0.208185 0.810814 0.547028
    outer loop
      vertex -1.0306 -5.40258 0
      vertex -0.849796 -2.61541 -4.2
      vertex -1.69959 -5.23081 0
    endloop
  endfacet
  facet normal 0.403288 -0.733565 0.547029
    outer loop
      vertex -1.47352 2.3219 -4.2
      vertex -2.34179 4.97655 0
      vertex -2.94705 4.6438 0
    endloop
  endfacet
  facet normal 0.208185 -0.810814 0.547028
    outer loop
      vertex -0.849796 2.61541 -4.2
      vertex -1.0306 5.40258 0
      vertex -1.69959 5.23081 0
    endloop
  endfacet
  facet normal 0.64501 -0.533592 0.54703
    outer loop
      vertex -4.44959 3.23282 0
      vertex -2.00466 1.8825 -4.2
      vertex -4.00933 3.76501 0
    endloop
  endfacet
  facet normal 0.644995 -0.533613 0.547027
    outer loop
      vertex -2.00466 1.8825 -4.2
      vertex -4.44959 3.23282 0
      vertex -2.2248 1.61641 -4.2
    endloop
  endfacet
  facet normal -0.822287 0.156856 0.547028
    outer loop
      vertex 5.32721 -1.36779 0
      vertex 5.45663 -0.689332 0
      vertex 2.72832 -0.344666 -4.2
    endloop
  endfacet
  facet normal -0.757445 0.356422 0.547029
    outer loop
      vertex 2.40984 -1.32482 -4.2
      vertex 5.11377 -2.02468 0
      vertex 2.55688 -1.01234 -4.2
    endloop
  endfacet
  facet normal -0.757445 0.356422 0.547029
    outer loop
      vertex 5.11377 -2.02468 0
      vertex 2.40984 -1.32482 -4.2
      vertex 4.81969 -2.64964 0
    endloop
  endfacet
  facet normal -0.573058 0.610218 0.547027
    outer loop
      vertex 3.50583 -4.23782 0
      vertex 2.00466 -1.8825 -4.2
      vertex 1.75292 -2.11891 -4.2
    endloop
  endfacet
  facet normal -0.573038 0.610234 0.54703
    outer loop
      vertex 3.50583 -4.23782 0
      vertex 4.00933 -3.76501 0
      vertex 2.00466 -1.8825 -4.2
    endloop
  endfacet
  facet normal 0.796141 0.258688 0.547029
    outer loop
      vertex -5.32721 -1.36779 0
      vertex -2.55688 -1.01234 -4.2
      vertex -2.6636 -0.683897 -4.2
    endloop
  endfacet
  facet normal 0.796141 0.258686 0.547029
    outer loop
      vertex -2.55688 -1.01234 -4.2
      vertex -5.32721 -1.36779 0
      vertex -5.11377 -2.02468 0
    endloop
  endfacet
  facet normal 0.308157 0.778331 0.547028
    outer loop
      vertex -1.69959 -5.23081 0
      vertex -0.849796 -2.61541 -4.2
      vertex -2.34179 -4.97655 0
    endloop
  endfacet
  facet normal 0.104909 0.830513 0.54703
    outer loop
      vertex -0.515298 -2.70129 -4.2
      vertex -0.345347 -5.48915 0
      vertex -0.172673 -2.74457 -4.2
    endloop
  endfacet
  facet normal 0.104921 0.830513 0.547029
    outer loop
      vertex -0.345347 -5.48915 0
      vertex -0.515298 -2.70129 -4.2
      vertex -1.0306 -5.40258 0
    endloop
  endfacet
  facet normal 0.403278 0.73357 0.54703
    outer loop
      vertex -1.17089 -2.48827 -4.2
      vertex -1.47352 -2.3219 -4.2
      vertex -2.34179 -4.97655 0
    endloop
  endfacet
  facet normal -0.492034 -0.677247 0.547028
    outer loop
      vertex 1.75292 2.11891 -4.2
      vertex 3.50583 4.23782 0
      vertex 1.47352 2.3219 -4.2
    endloop
  endfacet
  facet normal 0 -0.837113 0.54703
    outer loop
      vertex -0.172673 2.74457 -4.2
      vertex 0.345347 5.48915 0
      vertex -0.345347 5.48915 0
    endloop
  endfacet
  facet normal 0 -0.837113 0.54703
    outer loop
      vertex 0.345347 5.48915 0
      vertex -0.172673 2.74457 -4.2
      vertex 0.172673 2.74457 -4.2
    endloop
  endfacet
  facet normal -0.573038 -0.610234 0.54703
    outer loop
      vertex 4.00933 3.76501 0
      vertex 3.50583 4.23782 0
      vertex 2.00466 1.8825 -4.2
    endloop
  endfacet
  facet normal 0.208171 -0.810817 0.547029
    outer loop
      vertex -0.849796 2.61541 -4.2
      vertex -0.515298 2.70129 -4.2
      vertex -1.0306 5.40258 0
    endloop
  endfacet
  facet normal 0.835462 0.0525639 0.547029
    outer loop
      vertex -5.45663 -0.689332 0
      vertex -2.75 0 -4.2
      vertex -5.5 0 0
    endloop
  endfacet
  facet normal 0.573058 -0.610218 0.547027
    outer loop
      vertex -2.00466 1.8825 -4.2
      vertex -1.75292 2.11891 -4.2
      vertex -3.50583 4.23782 0
    endloop
  endfacet
  facet normal 0.492045 -0.677238 0.547029
    outer loop
      vertex -1.47352 2.3219 -4.2
      vertex -2.94705 4.6438 0
      vertex -3.50583 4.23782 0
    endloop
  endfacet
  facet normal 0.706797 -0.448551 0.547028
    outer loop
      vertex -2.2248 1.61641 -4.2
      vertex -4.44959 3.23282 0
      vertex -4.81969 2.64964 0
    endloop
  endfacet
  facet normal -0.822282 0.156879 0.54703
    outer loop
      vertex 5.32721 -1.36779 0
      vertex 2.72832 -0.344666 -4.2
      vertex 2.6636 -0.683897 -4.2
    endloop
  endfacet
  facet normal -0.706807 0.448533 0.54703
    outer loop
      vertex 4.81969 -2.64964 0
      vertex 2.40984 -1.32482 -4.2
      vertex 2.2248 -1.61641 -4.2
    endloop
  endfacet
  facet normal -0.492045 0.677238 0.547029
    outer loop
      vertex 2.94705 -4.6438 0
      vertex 3.50583 -4.23782 0
      vertex 1.47352 -2.3219 -4.2
    endloop
  endfacet
  facet normal -0.492034 0.677247 0.547028
    outer loop
      vertex 3.50583 -4.23782 0
      vertex 1.75292 -2.11891 -4.2
      vertex 1.47352 -2.3219 -4.2
    endloop
  endfacet
  facet normal -0.403278 0.73357 0.54703
    outer loop
      vertex 2.34179 -4.97655 0
      vertex 1.47352 -2.3219 -4.2
      vertex 1.17089 -2.48827 -4.2
    endloop
  endfacet
  facet normal -0.208185 0.810814 0.547028
    outer loop
      vertex 1.0306 -5.40258 0
      vertex 1.69959 -5.23081 0
      vertex 0.849796 -2.61541 -4.2
    endloop
  endfacet
  facet normal -0.308157 0.778331 0.547028
    outer loop
      vertex 1.69959 -5.23081 0
      vertex 2.34179 -4.97655 0
      vertex 0.849796 -2.61541 -4.2
    endloop
  endfacet
  facet normal -0.208171 0.810817 0.547029
    outer loop
      vertex 1.0306 -5.40258 0
      vertex 0.849796 -2.61541 -4.2
      vertex 0.515298 -2.70129 -4.2
    endloop
  endfacet
  facet normal 0.573038 0.610234 0.54703
    outer loop
      vertex -3.50583 -4.23782 0
      vertex -2.00466 -1.8825 -4.2
      vertex -4.00933 -3.76501 0
    endloop
  endfacet
  facet normal 0.706797 0.448551 0.547028
    outer loop
      vertex -4.44959 -3.23282 0
      vertex -2.2248 -1.61641 -4.2
      vertex -4.81969 -2.64964 0
    endloop
  endfacet
  facet normal 0.822282 0.156879 0.54703
    outer loop
      vertex -2.6636 -0.683897 -4.2
      vertex -2.72832 -0.344666 -4.2
      vertex -5.32721 -1.36779 0
    endloop
  endfacet
  facet normal 0.403288 0.733565 0.547029
    outer loop
      vertex -2.34179 -4.97655 0
      vertex -1.47352 -2.3219 -4.2
      vertex -2.94705 -4.6438 0
    endloop
  endfacet
  facet normal 0.492045 0.677238 0.547029
    outer loop
      vertex -2.94705 -4.6438 0
      vertex -1.47352 -2.3219 -4.2
      vertex -3.50583 -4.23782 0
    endloop
  endfacet
  facet normal 0 0.837113 0.54703
    outer loop
      vertex 0.172673 -2.74457 -4.2
      vertex -0.345347 -5.48915 0
      vertex 0.345347 -5.48915 0
    endloop
  endfacet
  facet normal 0 0.837113 0.54703
    outer loop
      vertex -0.345347 -5.48915 0
      vertex 0.172673 -2.74457 -4.2
      vertex -0.172673 -2.74457 -4.2
    endloop
  endfacet
  facet normal -0.403278 -0.73357 0.54703
    outer loop
      vertex 1.47352 2.3219 -4.2
      vertex 2.34179 4.97655 0
      vertex 1.17089 2.48827 -4.2
    endloop
  endfacet
  facet normal -0.706797 -0.448551 0.547028
    outer loop
      vertex 4.81969 2.64964 0
      vertex 4.44959 3.23282 0
      vertex 2.2248 1.61641 -4.2
    endloop
  endfacet
  facet normal -0.64501 -0.533592 0.54703
    outer loop
      vertex 2.00466 1.8825 -4.2
      vertex 4.44959 3.23282 0
      vertex 4.00933 3.76501 0
    endloop
  endfacet
  facet normal -0.644995 -0.533613 0.547027
    outer loop
      vertex 4.44959 3.23282 0
      vertex 2.00466 1.8825 -4.2
      vertex 2.2248 1.61641 -4.2
    endloop
  endfacet
  facet normal -0.757445 -0.356422 0.547029
    outer loop
      vertex 2.40984 1.32482 -4.2
      vertex 5.11377 2.02468 0
      vertex 4.81969 2.64964 0
    endloop
  endfacet
  facet normal -0.757445 -0.356422 0.547029
    outer loop
      vertex 5.11377 2.02468 0
      vertex 2.40984 1.32482 -4.2
      vertex 2.55688 1.01234 -4.2
    endloop
  endfacet
  facet normal -0.822287 -0.156856 0.547028
    outer loop
      vertex 5.45663 0.689332 0
      vertex 5.32721 1.36779 0
      vertex 2.72832 0.344666 -4.2
    endloop
  endfacet
  facet normal 0.308157 -0.778331 0.547028
    outer loop
      vertex -0.849796 2.61541 -4.2
      vertex -1.69959 5.23081 0
      vertex -2.34179 4.97655 0
    endloop
  endfacet
  facet normal 0.822287 -0.156856 0.547028
    outer loop
      vertex -2.72832 0.344666 -4.2
      vertex -5.32721 1.36779 0
      vertex -5.45663 0.689332 0
    endloop
  endfacet
  facet normal 0.822282 -0.156879 0.54703
    outer loop
      vertex -2.72832 0.344666 -4.2
      vertex -2.6636 0.683897 -4.2
      vertex -5.32721 1.36779 0
    endloop
  endfacet
  facet normal 0.796141 -0.258686 0.547029
    outer loop
      vertex -5.32721 1.36779 0
      vertex -2.55688 1.01234 -4.2
      vertex -5.11377 2.02468 0
    endloop
  endfacet
  facet normal 0.796141 -0.258688 0.547029
    outer loop
      vertex -2.55688 1.01234 -4.2
      vertex -5.32721 1.36779 0
      vertex -2.6636 0.683897 -4.2
    endloop
  endfacet
  facet normal 0.573038 -0.610234 0.54703
    outer loop
      vertex -2.00466 1.8825 -4.2
      vertex -3.50583 4.23782 0
      vertex -4.00933 3.76501 0
    endloop
  endfacet
  facet normal 0.403278 -0.73357 0.54703
    outer loop
      vertex -1.47352 2.3219 -4.2
      vertex -1.17089 2.48827 -4.2
      vertex -2.34179 4.97655 0
    endloop
  endfacet
  facet normal 0.308182 -0.77832 0.54703
    outer loop
      vertex -1.17089 2.48827 -4.2
      vertex -0.849796 2.61541 -4.2
      vertex -2.34179 4.97655 0
    endloop
  endfacet
  facet normal 0.492034 -0.677247 0.547028
    outer loop
      vertex -1.75292 2.11891 -4.2
      vertex -1.47352 2.3219 -4.2
      vertex -3.50583 4.23782 0
    endloop
  endfacet
  facet normal 0.757445 -0.356422 0.547029
    outer loop
      vertex -5.11377 2.02468 0
      vertex -2.40984 1.32482 -4.2
      vertex -4.81969 2.64964 0
    endloop
  endfacet
  facet normal 0.757445 -0.356422 0.547029
    outer loop
      vertex -2.40984 1.32482 -4.2
      vertex -5.11377 2.02468 0
      vertex -2.55688 1.01234 -4.2
    endloop
  endfacet
  facet normal 0.706807 0.448533 0.54703
    outer loop
      vertex -2.2248 -1.61641 -4.2
      vertex -2.40984 -1.32482 -4.2
      vertex -4.81969 -2.64964 0
    endloop
  endfacet
  facet normal 0.573058 0.610218 0.547027
    outer loop
      vertex -1.75292 -2.11891 -4.2
      vertex -2.00466 -1.8825 -4.2
      vertex -3.50583 -4.23782 0
    endloop
  endfacet
  facet normal 0.644995 0.533613 0.547027
    outer loop
      vertex -4.44959 -3.23282 0
      vertex -2.00466 -1.8825 -4.2
      vertex -2.2248 -1.61641 -4.2
    endloop
  endfacet
  facet normal 0.64501 0.533592 0.54703
    outer loop
      vertex -2.00466 -1.8825 -4.2
      vertex -4.44959 -3.23282 0
      vertex -4.00933 -3.76501 0
    endloop
  endfacet
  facet normal 0.308182 0.77832 0.54703
    outer loop
      vertex -0.849796 -2.61541 -4.2
      vertex -1.17089 -2.48827 -4.2
      vertex -2.34179 -4.97655 0
    endloop
  endfacet
  facet normal -0.308157 -0.778331 0.547028
    outer loop
      vertex 2.34179 4.97655 0
      vertex 1.69959 5.23081 0
      vertex 0.849796 2.61541 -4.2
    endloop
  endfacet
  facet normal -0.208185 -0.810814 0.547028
    outer loop
      vertex 1.69959 5.23081 0
      vertex 1.0306 5.40258 0
      vertex 0.849796 2.61541 -4.2
    endloop
  endfacet
  facet normal -0.403288 -0.733565 0.547029
    outer loop
      vertex 2.94705 4.6438 0
      vertex 2.34179 4.97655 0
      vertex 1.47352 2.3219 -4.2
    endloop
  endfacet
  facet normal -0.492045 -0.677238 0.547029
    outer loop
      vertex 3.50583 4.23782 0
      vertex 2.94705 4.6438 0
      vertex 1.47352 2.3219 -4.2
    endloop
  endfacet
  facet normal -0.208171 -0.810817 0.547029
    outer loop
      vertex 0.849796 2.61541 -4.2
      vertex 1.0306 5.40258 0
      vertex 0.515298 2.70129 -4.2
    endloop
  endfacet
  facet normal -0.796141 -0.258686 0.547029
    outer loop
      vertex 2.55688 1.01234 -4.2
      vertex 5.32721 1.36779 0
      vertex 5.11377 2.02468 0
    endloop
  endfacet
  facet normal -0.796141 -0.258688 0.547029
    outer loop
      vertex 5.32721 1.36779 0
      vertex 2.55688 1.01234 -4.2
      vertex 2.6636 0.683897 -4.2
    endloop
  endfacet
  facet normal -0.822282 -0.156879 0.54703
    outer loop
      vertex 2.72832 0.344666 -4.2
      vertex 5.32721 1.36779 0
      vertex 2.6636 0.683897 -4.2
    endloop
  endfacet
  facet normal 0.835462 -0.0525639 0.547029
    outer loop
      vertex -2.75 0 -4.2
      vertex -5.45663 0.689332 0
      vertex -5.5 0 0
    endloop
  endfacet
  facet normal 0.835463 -0.0525519 0.547028
    outer loop
      vertex -2.75 0 -4.2
      vertex -2.72832 0.344666 -4.2
      vertex -5.45663 0.689332 0
    endloop
  endfacet
  facet normal 0.706807 -0.448533 0.54703
    outer loop
      vertex -2.40984 1.32482 -4.2
      vertex -2.2248 1.61641 -4.2
      vertex -4.81969 2.64964 0
    endloop
  endfacet
  facet normal -0.308182 -0.77832 0.54703
    outer loop
      vertex 1.17089 2.48827 -4.2
      vertex 2.34179 4.97655 0
      vertex 0.849796 2.61541 -4.2
    endloop
  endfacet
  facet normal -0.104909 -0.830513 0.54703
    outer loop
      vertex 0.515298 2.70129 -4.2
      vertex 0.345347 5.48915 0
      vertex 0.172673 2.74457 -4.2
    endloop
  endfacet
  facet normal -0.104921 -0.830513 0.547029
    outer loop
      vertex 0.345347 5.48915 0
      vertex 0.515298 2.70129 -4.2
      vertex 1.0306 5.40258 0
    endloop
  endfacet
  facet normal -0.706807 -0.448533 0.54703
    outer loop
      vertex 2.40984 1.32482 -4.2
      vertex 4.81969 2.64964 0
      vertex 2.2248 1.61641 -4.2
    endloop
  endfacet
  facet normal 0.835463 0.0525519 0.547028
    outer loop
      vertex -2.72832 -0.344666 -4.2
      vertex -2.75 0 -4.2
      vertex -5.45663 -0.689332 0
    endloop
  endfacet
  facet normal -0.573058 -0.610218 0.547027
    outer loop
      vertex 2.00466 1.8825 -4.2
      vertex 3.50583 4.23782 0
      vertex 1.75292 2.11891 -4.2
    endloop
  endfacet
  facet normal -0.904829 -0.425775 0
    outer loop
      vertex 2.55688 1.01234 -24
      vertex 2.40984 1.32482 -4.2
      vertex 2.40984 1.32482 -24
    endloop
  endfacet
  facet normal -0.904829 -0.425775 0
    outer loop
      vertex 2.40984 1.32482 -4.2
      vertex 2.55688 1.01234 -24
      vertex 2.55688 1.01234 -4.2
    endloop
  endfacet
  facet normal -0.844339 -0.535809 0
    outer loop
      vertex 2.40984 1.32482 -24
      vertex 2.2248 1.61641 -4.2
      vertex 2.2248 1.61641 -24
    endloop
  endfacet
  facet normal -0.844339 -0.535809 0
    outer loop
      vertex 2.2248 1.61641 -4.2
      vertex 2.40984 1.32482 -24
      vertex 2.40984 1.32482 -4.2
    endloop
  endfacet
  facet normal -0.368149 -0.929767 0
    outer loop
      vertex 0.849796 2.61541 -24
      vertex 1.17089 2.48827 -4.2
      vertex 0.849796 2.61541 -4.2
    endloop
  endfacet
  facet normal -0.368149 -0.929767 -0
    outer loop
      vertex 1.17089 2.48827 -4.2
      vertex 0.849796 2.61541 -24
      vertex 1.17089 2.48827 -24
    endloop
  endfacet
  facet normal 0.368149 -0.929767 0
    outer loop
      vertex -1.17089 2.48827 -24
      vertex -0.849796 2.61541 -4.2
      vertex -1.17089 2.48827 -4.2
    endloop
  endfacet
  facet normal 0.368149 -0.929767 0
    outer loop
      vertex -0.849796 2.61541 -4.2
      vertex -1.17089 2.48827 -24
      vertex -0.849796 2.61541 -24
    endloop
  endfacet
  facet normal 0.904829 -0.425775 0
    outer loop
      vertex -2.55688 1.01234 -4.2
      vertex -2.40984 1.32482 -24
      vertex -2.40984 1.32482 -4.2
    endloop
  endfacet
  facet normal 0.904829 -0.425775 0
    outer loop
      vertex -2.40984 1.32482 -24
      vertex -2.55688 1.01234 -4.2
      vertex -2.55688 1.01234 -24
    endloop
  endfacet
  facet normal -0.998028 0.0627774 0
    outer loop
      vertex 2.72832 -0.344666 -24
      vertex 2.75 0 -4.2
      vertex 2.75 0 -24
    endloop
  endfacet
  facet normal -0.998028 0.0627774 0
    outer loop
      vertex 2.75 0 -4.2
      vertex 2.72832 -0.344666 -24
      vertex 2.72832 -0.344666 -4.2
    endloop
  endfacet
  facet normal -0.684563 -0.728954 0
    outer loop
      vertex 1.75292 2.11891 -24
      vertex 2.00466 1.8825 -4.2
      vertex 1.75292 2.11891 -4.2
    endloop
  endfacet
  facet normal -0.684563 -0.728954 -0
    outer loop
      vertex 2.00466 1.8825 -4.2
      vertex 1.75292 2.11891 -24
      vertex 2.00466 1.8825 -24
    endloop
  endfacet
  facet normal 0 -1 0
    outer loop
      vertex -0.172673 2.74457 -24
      vertex 0.172673 2.74457 -4.2
      vertex -0.172673 2.74457 -4.2
    endloop
  endfacet
  facet normal 0 -1 -0
    outer loop
      vertex 0.172673 2.74457 -4.2
      vertex -0.172673 2.74457 -24
      vertex 0.172673 2.74457 -24
    endloop
  endfacet
  facet normal -0.587774 -0.809025 0
    outer loop
      vertex 1.47352 2.3219 -24
      vertex 1.75292 2.11891 -4.2
      vertex 1.47352 2.3219 -4.2
    endloop
  endfacet
  facet normal -0.587774 -0.809025 -0
    outer loop
      vertex 1.75292 2.11891 -4.2
      vertex 1.47352 2.3219 -24
      vertex 1.75292 2.11891 -24
    endloop
  endfacet
  facet normal 0.998028 -0.0627774 0
    outer loop
      vertex -2.75 0 -4.2
      vertex -2.72832 0.344666 -24
      vertex -2.72832 0.344666 -4.2
    endloop
  endfacet
  facet normal 0.998028 -0.0627774 0
    outer loop
      vertex -2.72832 0.344666 -24
      vertex -2.75 0 -4.2
      vertex -2.75 0 -24
    endloop
  endfacet
  facet normal 0.770497 -0.637443 0
    outer loop
      vertex -2.2248 1.61641 -4.2
      vertex -2.00466 1.8825 -24
      vertex -2.00466 1.8825 -4.2
    endloop
  endfacet
  facet normal 0.770497 -0.637443 0
    outer loop
      vertex -2.00466 1.8825 -24
      vertex -2.2248 1.61641 -4.2
      vertex -2.2248 1.61641 -24
    endloop
  endfacet
  facet normal 0.481749 -0.876309 0
    outer loop
      vertex -1.47352 2.3219 -24
      vertex -1.17089 2.48827 -4.2
      vertex -1.47352 2.3219 -4.2
    endloop
  endfacet
  facet normal 0.481749 -0.876309 0
    outer loop
      vertex -1.17089 2.48827 -4.2
      vertex -1.47352 2.3219 -24
      vertex -1.17089 2.48827 -24
    endloop
  endfacet
  facet normal 0.248678 -0.968586 0
    outer loop
      vertex -0.849796 2.61541 -24
      vertex -0.515298 2.70129 -4.2
      vertex -0.849796 2.61541 -4.2
    endloop
  endfacet
  facet normal 0.248678 -0.968586 0
    outer loop
      vertex -0.515298 2.70129 -4.2
      vertex -0.849796 2.61541 -24
      vertex -0.515298 2.70129 -24
    endloop
  endfacet
  facet normal -0.904829 0.425775 0
    outer loop
      vertex 2.40984 -1.32482 -24
      vertex 2.55688 -1.01234 -4.2
      vertex 2.55688 -1.01234 -24
    endloop
  endfacet
  facet normal -0.904829 0.425775 0
    outer loop
      vertex 2.55688 -1.01234 -4.2
      vertex 2.40984 -1.32482 -24
      vertex 2.40984 -1.32482 -4.2
    endloop
  endfacet
  facet normal 0.684563 0.728954 -0
    outer loop
      vertex -1.75292 -2.11891 -24
      vertex -2.00466 -1.8825 -4.2
      vertex -1.75292 -2.11891 -4.2
    endloop
  endfacet
  facet normal 0.684563 0.728954 0
    outer loop
      vertex -2.00466 -1.8825 -4.2
      vertex -1.75292 -2.11891 -24
      vertex -2.00466 -1.8825 -24
    endloop
  endfacet
  facet normal 0.904829 0.425775 0
    outer loop
      vertex -2.40984 -1.32482 -4.2
      vertex -2.55688 -1.01234 -24
      vertex -2.55688 -1.01234 -4.2
    endloop
  endfacet
  facet normal 0.904829 0.425775 0
    outer loop
      vertex -2.55688 -1.01234 -24
      vertex -2.40984 -1.32482 -4.2
      vertex -2.40984 -1.32482 -24
    endloop
  endfacet
  facet normal -0.481749 0.876309 0
    outer loop
      vertex 1.47352 -2.3219 -24
      vertex 1.17089 -2.48827 -4.2
      vertex 1.47352 -2.3219 -4.2
    endloop
  endfacet
  facet normal -0.481749 0.876309 0
    outer loop
      vertex 1.17089 -2.48827 -4.2
      vertex 1.47352 -2.3219 -24
      vertex 1.17089 -2.48827 -24
    endloop
  endfacet
  facet normal -0.951054 -0.309023 0
    outer loop
      vertex 2.6636 0.683897 -24
      vertex 2.55688 1.01234 -4.2
      vertex 2.55688 1.01234 -24
    endloop
  endfacet
  facet normal -0.951054 -0.309023 0
    outer loop
      vertex 2.55688 1.01234 -4.2
      vertex 2.6636 0.683897 -24
      vertex 2.6636 0.683897 -4.2
    endloop
  endfacet
  facet normal -0.770497 -0.637443 0
    outer loop
      vertex 2.2248 1.61641 -24
      vertex 2.00466 1.8825 -4.2
      vertex 2.00466 1.8825 -24
    endloop
  endfacet
  facet normal -0.770497 -0.637443 0
    outer loop
      vertex 2.00466 1.8825 -4.2
      vertex 2.2248 1.61641 -24
      vertex 2.2248 1.61641 -4.2
    endloop
  endfacet
  facet normal -0.248678 -0.968586 0
    outer loop
      vertex 0.515298 2.70129 -24
      vertex 0.849796 2.61541 -4.2
      vertex 0.515298 2.70129 -4.2
    endloop
  endfacet
  facet normal -0.248678 -0.968586 -0
    outer loop
      vertex 0.849796 2.61541 -4.2
      vertex 0.515298 2.70129 -24
      vertex 0.849796 2.61541 -24
    endloop
  endfacet
  facet normal -0.125323 -0.992116 0
    outer loop
      vertex 0.172673 2.74457 -24
      vertex 0.515298 2.70129 -4.2
      vertex 0.172673 2.74457 -4.2
    endloop
  endfacet
  facet normal -0.125323 -0.992116 -0
    outer loop
      vertex 0.515298 2.70129 -4.2
      vertex 0.172673 2.74457 -24
      vertex 0.515298 2.70129 -24
    endloop
  endfacet
  facet normal -0.481749 -0.876309 0
    outer loop
      vertex 1.17089 2.48827 -24
      vertex 1.47352 2.3219 -4.2
      vertex 1.17089 2.48827 -4.2
    endloop
  endfacet
  facet normal -0.481749 -0.876309 -0
    outer loop
      vertex 1.47352 2.3219 -4.2
      vertex 1.17089 2.48827 -24
      vertex 1.47352 2.3219 -24
    endloop
  endfacet
  facet normal 0.951054 -0.309023 0
    outer loop
      vertex -2.6636 0.683897 -4.2
      vertex -2.55688 1.01234 -24
      vertex -2.55688 1.01234 -4.2
    endloop
  endfacet
  facet normal 0.951054 -0.309023 0
    outer loop
      vertex -2.55688 1.01234 -24
      vertex -2.6636 0.683897 -4.2
      vertex -2.6636 0.683897 -24
    endloop
  endfacet
  facet normal 0.982283 -0.187404 0
    outer loop
      vertex -2.72832 0.344666 -4.2
      vertex -2.6636 0.683897 -24
      vertex -2.6636 0.683897 -4.2
    endloop
  endfacet
  facet normal 0.982283 -0.187404 0
    outer loop
      vertex -2.6636 0.683897 -24
      vertex -2.72832 0.344666 -4.2
      vertex -2.72832 0.344666 -24
    endloop
  endfacet
  facet normal 0.844339 -0.535809 0
    outer loop
      vertex -2.40984 1.32482 -4.2
      vertex -2.2248 1.61641 -24
      vertex -2.2248 1.61641 -4.2
    endloop
  endfacet
  facet normal 0.844339 -0.535809 0
    outer loop
      vertex -2.2248 1.61641 -24
      vertex -2.40984 1.32482 -4.2
      vertex -2.40984 1.32482 -24
    endloop
  endfacet
  facet normal 0.125323 -0.992116 0
    outer loop
      vertex -0.515298 2.70129 -24
      vertex -0.172673 2.74457 -4.2
      vertex -0.515298 2.70129 -4.2
    endloop
  endfacet
  facet normal 0.125323 -0.992116 0
    outer loop
      vertex -0.172673 2.74457 -4.2
      vertex -0.515298 2.70129 -24
      vertex -0.172673 2.74457 -24
    endloop
  endfacet
  facet normal 0.587774 -0.809025 0
    outer loop
      vertex -1.75292 2.11891 -24
      vertex -1.47352 2.3219 -4.2
      vertex -1.75292 2.11891 -4.2
    endloop
  endfacet
  facet normal 0.587774 -0.809025 0
    outer loop
      vertex -1.47352 2.3219 -4.2
      vertex -1.75292 2.11891 -24
      vertex -1.47352 2.3219 -24
    endloop
  endfacet
  facet normal 0.684563 -0.728954 0
    outer loop
      vertex -2.00466 1.8825 -24
      vertex -1.75292 2.11891 -4.2
      vertex -2.00466 1.8825 -4.2
    endloop
  endfacet
  facet normal 0.684563 -0.728954 0
    outer loop
      vertex -1.75292 2.11891 -4.2
      vertex -2.00466 1.8825 -24
      vertex -1.75292 2.11891 -24
    endloop
  endfacet
  facet normal -0.998028 -0.0627774 0
    outer loop
      vertex 2.75 0 -24
      vertex 2.72832 0.344666 -4.2
      vertex 2.72832 0.344666 -24
    endloop
  endfacet
  facet normal -0.998028 -0.0627774 0
    outer loop
      vertex 2.72832 0.344666 -4.2
      vertex 2.75 0 -24
      vertex 2.75 0 -4.2
    endloop
  endfacet
  facet normal -0.951054 0.309023 0
    outer loop
      vertex 2.55688 -1.01234 -24
      vertex 2.6636 -0.683897 -4.2
      vertex 2.6636 -0.683897 -24
    endloop
  endfacet
  facet normal -0.951054 0.309023 0
    outer loop
      vertex 2.6636 -0.683897 -4.2
      vertex 2.55688 -1.01234 -24
      vertex 2.55688 -1.01234 -4.2
    endloop
  endfacet
  facet normal -0.770497 0.637443 0
    outer loop
      vertex 2.00466 -1.8825 -24
      vertex 2.2248 -1.61641 -4.2
      vertex 2.2248 -1.61641 -24
    endloop
  endfacet
  facet normal -0.770497 0.637443 0
    outer loop
      vertex 2.2248 -1.61641 -4.2
      vertex 2.00466 -1.8825 -24
      vertex 2.00466 -1.8825 -4.2
    endloop
  endfacet
  facet normal 0.998028 0.0627774 0
    outer loop
      vertex -2.72832 -0.344666 -4.2
      vertex -2.75 0 -24
      vertex -2.75 0 -4.2
    endloop
  endfacet
  facet normal 0.998028 0.0627774 0
    outer loop
      vertex -2.75 0 -24
      vertex -2.72832 -0.344666 -4.2
      vertex -2.72832 -0.344666 -24
    endloop
  endfacet
  facet normal 0.770497 0.637443 0
    outer loop
      vertex -2.00466 -1.8825 -4.2
      vertex -2.2248 -1.61641 -24
      vertex -2.2248 -1.61641 -4.2
    endloop
  endfacet
  facet normal 0.770497 0.637443 0
    outer loop
      vertex -2.2248 -1.61641 -24
      vertex -2.00466 -1.8825 -4.2
      vertex -2.00466 -1.8825 -24
    endloop
  endfacet
  facet normal -0.125323 0.992116 0
    outer loop
      vertex 0.515298 -2.70129 -24
      vertex 0.172673 -2.74457 -4.2
      vertex 0.515298 -2.70129 -4.2
    endloop
  endfacet
  facet normal -0.125323 0.992116 0
    outer loop
      vertex 0.172673 -2.74457 -4.2
      vertex 0.515298 -2.70129 -24
      vertex 0.172673 -2.74457 -24
    endloop
  endfacet
  facet normal -0.587774 0.809025 0
    outer loop
      vertex 1.75292 -2.11891 -24
      vertex 1.47352 -2.3219 -4.2
      vertex 1.75292 -2.11891 -4.2
    endloop
  endfacet
  facet normal -0.587774 0.809025 0
    outer loop
      vertex 1.47352 -2.3219 -4.2
      vertex 1.75292 -2.11891 -24
      vertex 1.47352 -2.3219 -24
    endloop
  endfacet
  facet normal -0.982283 -0.187404 0
    outer loop
      vertex 2.72832 0.344666 -24
      vertex 2.6636 0.683897 -4.2
      vertex 2.6636 0.683897 -24
    endloop
  endfacet
  facet normal -0.982283 -0.187404 0
    outer loop
      vertex 2.6636 0.683897 -4.2
      vertex 2.72832 0.344666 -24
      vertex 2.72832 0.344666 -4.2
    endloop
  endfacet
  facet normal -0.982283 0.187404 0
    outer loop
      vertex 2.6636 -0.683897 -24
      vertex 2.72832 -0.344666 -4.2
      vertex 2.72832 -0.344666 -24
    endloop
  endfacet
  facet normal -0.982283 0.187404 0
    outer loop
      vertex 2.72832 -0.344666 -4.2
      vertex 2.6636 -0.683897 -24
      vertex 2.6636 -0.683897 -4.2
    endloop
  endfacet
  facet normal -0.844339 0.535809 0
    outer loop
      vertex 2.2248 -1.61641 -24
      vertex 2.40984 -1.32482 -4.2
      vertex 2.40984 -1.32482 -24
    endloop
  endfacet
  facet normal -0.844339 0.535809 0
    outer loop
      vertex 2.40984 -1.32482 -4.2
      vertex 2.2248 -1.61641 -24
      vertex 2.2248 -1.61641 -4.2
    endloop
  endfacet
  facet normal 0 1 -0
    outer loop
      vertex 0.172673 -2.74457 -24
      vertex -0.172673 -2.74457 -4.2
      vertex 0.172673 -2.74457 -4.2
    endloop
  endfacet
  facet normal 0 1 0
    outer loop
      vertex -0.172673 -2.74457 -4.2
      vertex 0.172673 -2.74457 -24
      vertex -0.172673 -2.74457 -24
    endloop
  endfacet
  facet normal 0.951054 0.309023 0
    outer loop
      vertex -2.55688 -1.01234 -4.2
      vertex -2.6636 -0.683897 -24
      vertex -2.6636 -0.683897 -4.2
    endloop
  endfacet
  facet normal 0.951054 0.309023 0
    outer loop
      vertex -2.6636 -0.683897 -24
      vertex -2.55688 -1.01234 -4.2
      vertex -2.55688 -1.01234 -24
    endloop
  endfacet
  facet normal 0.982283 0.187404 0
    outer loop
      vertex -2.6636 -0.683897 -4.2
      vertex -2.72832 -0.344666 -24
      vertex -2.72832 -0.344666 -4.2
    endloop
  endfacet
  facet normal 0.982283 0.187404 0
    outer loop
      vertex -2.72832 -0.344666 -24
      vertex -2.6636 -0.683897 -4.2
      vertex -2.6636 -0.683897 -24
    endloop
  endfacet
  facet normal -0.368149 0.929767 0
    outer loop
      vertex 1.17089 -2.48827 -24
      vertex 0.849796 -2.61541 -4.2
      vertex 1.17089 -2.48827 -4.2
    endloop
  endfacet
  facet normal -0.368149 0.929767 0
    outer loop
      vertex 0.849796 -2.61541 -4.2
      vertex 1.17089 -2.48827 -24
      vertex 0.849796 -2.61541 -24
    endloop
  endfacet
  facet normal -0.248678 0.968586 0
    outer loop
      vertex 0.849796 -2.61541 -24
      vertex 0.515298 -2.70129 -4.2
      vertex 0.849796 -2.61541 -4.2
    endloop
  endfacet
  facet normal -0.248678 0.968586 0
    outer loop
      vertex 0.515298 -2.70129 -4.2
      vertex 0.849796 -2.61541 -24
      vertex 0.515298 -2.70129 -24
    endloop
  endfacet
  facet normal 0.248678 0.968586 -0
    outer loop
      vertex -0.515298 -2.70129 -24
      vertex -0.849796 -2.61541 -4.2
      vertex -0.515298 -2.70129 -4.2
    endloop
  endfacet
  facet normal 0.248678 0.968586 0
    outer loop
      vertex -0.849796 -2.61541 -4.2
      vertex -0.515298 -2.70129 -24
      vertex -0.849796 -2.61541 -24
    endloop
  endfacet
  facet normal 0.481749 0.876309 -0
    outer loop
      vertex -1.17089 -2.48827 -24
      vertex -1.47352 -2.3219 -4.2
      vertex -1.17089 -2.48827 -4.2
    endloop
  endfacet
  facet normal 0.481749 0.876309 0
    outer loop
      vertex -1.47352 -2.3219 -4.2
      vertex -1.17089 -2.48827 -24
      vertex -1.47352 -2.3219 -24
    endloop
  endfacet
  facet normal 0.844339 0.535809 0
    outer loop
      vertex -2.2248 -1.61641 -4.2
      vertex -2.40984 -1.32482 -24
      vertex -2.40984 -1.32482 -4.2
    endloop
  endfacet
  facet normal 0.844339 0.535809 0
    outer loop
      vertex -2.40984 -1.32482 -24
      vertex -2.2248 -1.61641 -4.2
      vertex -2.2248 -1.61641 -24
    endloop
  endfacet
  facet normal -0.684563 0.728954 0
    outer loop
      vertex 2.00466 -1.8825 -24
      vertex 1.75292 -2.11891 -4.2
      vertex 2.00466 -1.8825 -4.2
    endloop
  endfacet
  facet normal -0.684563 0.728954 0
    outer loop
      vertex 1.75292 -2.11891 -4.2
      vertex 2.00466 -1.8825 -24
      vertex 1.75292 -2.11891 -24
    endloop
  endfacet
  facet normal 0.125323 0.992116 -0
    outer loop
      vertex -0.172673 -2.74457 -24
      vertex -0.515298 -2.70129 -4.2
      vertex -0.172673 -2.74457 -4.2
    endloop
  endfacet
  facet normal 0.125323 0.992116 0
    outer loop
      vertex -0.515298 -2.70129 -4.2
      vertex -0.172673 -2.74457 -24
      vertex -0.515298 -2.70129 -24
    endloop
  endfacet
  facet normal 0.587774 0.809025 -0
    outer loop
      vertex -1.47352 -2.3219 -24
      vertex -1.75292 -2.11891 -4.2
      vertex -1.47352 -2.3219 -4.2
    endloop
  endfacet
  facet normal 0.587774 0.809025 0
    outer loop
      vertex -1.75292 -2.11891 -4.2
      vertex -1.47352 -2.3219 -24
      vertex -1.75292 -2.11891 -24
    endloop
  endfacet
  facet normal 0.368149 0.929767 -0
    outer loop
      vertex -0.849796 -2.61541 -24
      vertex -1.17089 -2.48827 -4.2
      vertex -0.849796 -2.61541 -4.2
    endloop
  endfacet
  facet normal 0.368149 0.929767 0
    outer loop
      vertex -1.17089 -2.48827 -4.2
      vertex -0.849796 -2.61541 -24
      vertex -1.17089 -2.48827 -24
    endloop
  endfacet
  facet normal -0.951054 0.309025 0
    outer loop
      vertex -12.1073 3.10862 -24
      vertex -11.6222 4.60156 0
      vertex -11.6222 4.60156 -24
    endloop
  endfacet
  facet normal -0.951054 0.309025 0
    outer loop
      vertex -11.6222 4.60156 0
      vertex -12.1073 3.10862 -24
      vertex -12.1073 3.10862 0
    endloop
  endfacet
  facet normal 0.844333 0.535819 0
    outer loop
      vertex 10.9538 6.02192 0
      vertex 10.1127 7.34731 -24
      vertex 10.1127 7.34731 0
    endloop
  endfacet
  facet normal 0.844333 0.535819 0
    outer loop
      vertex 10.1127 7.34731 -24
      vertex 10.9538 6.02192 0
      vertex 10.9538 6.02192 -24
    endloop
  endfacet
  facet normal 0.2487 0.96858 -0
    outer loop
      vertex 3.86271 11.8882 -24
      vertex 2.34227 12.2786 0
      vertex 3.86271 11.8882 0
    endloop
  endfacet
  facet normal 0.2487 0.96858 0
    outer loop
      vertex 2.34227 12.2786 0
      vertex 3.86271 11.8882 -24
      vertex 2.34227 12.2786 -24
    endloop
  endfacet
  facet normal 0.368142 0.92977 -0
    outer loop
      vertex 5.32224 11.3103 -24
      vertex 3.86271 11.8882 0
      vertex 5.32224 11.3103 0
    endloop
  endfacet
  facet normal 0.368142 0.92977 0
    outer loop
      vertex 3.86271 11.8882 0
      vertex 5.32224 11.3103 -24
      vertex 3.86271 11.8882 -24
    endloop
  endfacet
  facet normal -0.368142 0.92977 0
    outer loop
      vertex -3.86271 11.8882 -24
      vertex -5.32224 11.3103 0
      vertex -3.86271 11.8882 0
    endloop
  endfacet
  facet normal -0.368142 0.92977 0
    outer loop
      vertex -5.32224 11.3103 0
      vertex -3.86271 11.8882 -24
      vertex -5.32224 11.3103 -24
    endloop
  endfacet
  facet normal -0.90482 0.425795 0
    outer loop
      vertex -11.6222 4.60156 -24
      vertex -10.9538 6.02192 0
      vertex -10.9538 6.02192 -24
    endloop
  endfacet
  facet normal -0.90482 0.425795 0
    outer loop
      vertex -10.9538 6.02192 0
      vertex -11.6222 4.60156 -24
      vertex -11.6222 4.60156 0
    endloop
  endfacet
  facet normal 0.998025 -0.0628122 0
    outer loop
      vertex 12.4014 -1.56666 0
      vertex 12.5 0 -24
      vertex 12.5 0 0
    endloop
  endfacet
  facet normal 0.998025 -0.0628122 0
    outer loop
      vertex 12.5 0 -24
      vertex 12.4014 -1.56666 0
      vertex 12.4014 -1.56666 -24
    endloop
  endfacet
  facet normal 0.368142 -0.92977 0
    outer loop
      vertex 3.86271 -11.8882 -24
      vertex 5.32224 -11.3103 0
      vertex 3.86271 -11.8882 0
    endloop
  endfacet
  facet normal 0.368142 -0.92977 0
    outer loop
      vertex 5.32224 -11.3103 0
      vertex 3.86271 -11.8882 -24
      vertex 5.32224 -11.3103 -24
    endloop
  endfacet
  facet normal 0.125306 0.992118 -0
    outer loop
      vertex 2.34227 12.2786 -24
      vertex 0.784881 12.4753 0
      vertex 2.34227 12.2786 0
    endloop
  endfacet
  facet normal 0.125306 0.992118 0
    outer loop
      vertex 0.784881 12.4753 0
      vertex 2.34227 12.2786 -24
      vertex 0.784881 12.4753 -24
    endloop
  endfacet
  facet normal -0.77052 0.637416 0
    outer loop
      vertex -10.1127 7.34731 -24
      vertex -9.11211 8.55684 0
      vertex -9.11211 8.55684 -24
    endloop
  endfacet
  facet normal -0.77052 0.637416 0
    outer loop
      vertex -9.11211 8.55684 0
      vertex -10.1127 7.34731 -24
      vertex -10.1127 7.34731 0
    endloop
  endfacet
  facet normal -0.125306 0.992118 0
    outer loop
      vertex -0.784881 12.4753 -24
      vertex -2.34227 12.2786 0
      vertex -0.784881 12.4753 0
    endloop
  endfacet
  facet normal -0.125306 0.992118 0
    outer loop
      vertex -2.34227 12.2786 0
      vertex -0.784881 12.4753 -24
      vertex -2.34227 12.2786 -24
    endloop
  endfacet
  facet normal -0.684548 0.728968 0
    outer loop
      vertex -7.9678 9.63142 -24
      vertex -9.11211 8.55684 0
      vertex -7.9678 9.63142 0
    endloop
  endfacet
  facet normal -0.684548 0.728968 0
    outer loop
      vertex -9.11211 8.55684 0
      vertex -7.9678 9.63142 -24
      vertex -9.11211 8.55684 -24
    endloop
  endfacet
  facet normal 0.998025 0.0628122 0
    outer loop
      vertex 12.5 0 0
      vertex 12.4014 1.56666 -24
      vertex 12.4014 1.56666 0
    endloop
  endfacet
  facet normal 0.998025 0.0628122 0
    outer loop
      vertex 12.4014 1.56666 -24
      vertex 12.5 0 0
      vertex 12.5 0 -24
    endloop
  endfacet
  facet normal 0.90482 -0.425795 0
    outer loop
      vertex 10.9538 -6.02192 0
      vertex 11.6222 -4.60156 -24
      vertex 11.6222 -4.60156 0
    endloop
  endfacet
  facet normal 0.90482 -0.425795 0
    outer loop
      vertex 11.6222 -4.60156 -24
      vertex 10.9538 -6.02192 0
      vertex 10.9538 -6.02192 -24
    endloop
  endfacet
  facet normal 0.2487 -0.96858 0
    outer loop
      vertex 2.34227 -12.2786 -24
      vertex 3.86271 -11.8882 0
      vertex 2.34227 -12.2786 0
    endloop
  endfacet
  facet normal 0.2487 -0.96858 0
    outer loop
      vertex 3.86271 -11.8882 0
      vertex 2.34227 -12.2786 -24
      vertex 3.86271 -11.8882 -24
    endloop
  endfacet
  facet normal 0.684548 0.728968 -0
    outer loop
      vertex 9.11211 8.55684 -24
      vertex 7.9678 9.63142 0
      vertex 9.11211 8.55684 0
    endloop
  endfacet
  facet normal 0.684548 0.728968 0
    outer loop
      vertex 7.9678 9.63142 0
      vertex 9.11211 8.55684 -24
      vertex 7.9678 9.63142 -24
    endloop
  endfacet
  facet normal 0.77052 0.637416 0
    outer loop
      vertex 10.1127 7.34731 0
      vertex 9.11211 8.55684 -24
      vertex 9.11211 8.55684 0
    endloop
  endfacet
  facet normal 0.77052 0.637416 0
    outer loop
      vertex 9.11211 8.55684 -24
      vertex 10.1127 7.34731 0
      vertex 10.1127 7.34731 -24
    endloop
  endfacet
  facet normal 0 1 -0
    outer loop
      vertex 0.784881 12.4753 -24
      vertex -0.784881 12.4753 0
      vertex 0.784881 12.4753 0
    endloop
  endfacet
  facet normal 0 1 0
    outer loop
      vertex -0.784881 12.4753 0
      vertex 0.784881 12.4753 -24
      vertex -0.784881 12.4753 -24
    endloop
  endfacet
  facet normal 0.587782 0.809019 -0
    outer loop
      vertex 7.9678 9.63142 -24
      vertex 6.69783 10.5541 0
      vertex 7.9678 9.63142 0
    endloop
  endfacet
  facet normal 0.587782 0.809019 0
    outer loop
      vertex 6.69783 10.5541 0
      vertex 7.9678 9.63142 -24
      vertex 6.69783 10.5541 -24
    endloop
  endfacet
  facet normal 0.481736 0.876317 -0
    outer loop
      vertex 6.69783 10.5541 -24
      vertex 5.32224 11.3103 0
      vertex 6.69783 10.5541 0
    endloop
  endfacet
  facet normal 0.481736 0.876317 0
    outer loop
      vertex 5.32224 11.3103 0
      vertex 6.69783 10.5541 -24
      vertex 5.32224 11.3103 -24
    endloop
  endfacet
  facet normal -0.998025 0.0628122 0
    outer loop
      vertex -12.5 0 -24
      vertex -12.4014 1.56666 0
      vertex -12.4014 1.56666 -24
    endloop
  endfacet
  facet normal -0.998025 0.0628122 0
    outer loop
      vertex -12.4014 1.56666 0
      vertex -12.5 0 -24
      vertex -12.5 0 0
    endloop
  endfacet
  facet normal -0.844333 0.535819 0
    outer loop
      vertex -10.9538 6.02192 -24
      vertex -10.1127 7.34731 0
      vertex -10.1127 7.34731 -24
    endloop
  endfacet
  facet normal -0.844333 0.535819 0
    outer loop
      vertex -10.1127 7.34731 0
      vertex -10.9538 6.02192 -24
      vertex -10.9538 6.02192 0
    endloop
  endfacet
  facet normal -0.2487 0.96858 0
    outer loop
      vertex -2.34227 12.2786 -24
      vertex -3.86271 11.8882 0
      vertex -2.34227 12.2786 0
    endloop
  endfacet
  facet normal -0.2487 0.96858 0
    outer loop
      vertex -3.86271 11.8882 0
      vertex -2.34227 12.2786 -24
      vertex -3.86271 11.8882 -24
    endloop
  endfacet
  facet normal -0.481736 0.876317 0
    outer loop
      vertex -5.32224 11.3103 -24
      vertex -6.69783 10.5541 0
      vertex -5.32224 11.3103 0
    endloop
  endfacet
  facet normal -0.481736 0.876317 0
    outer loop
      vertex -6.69783 10.5541 0
      vertex -5.32224 11.3103 -24
      vertex -6.69783 10.5541 -24
    endloop
  endfacet
  facet normal -0.587782 0.809019 0
    outer loop
      vertex -6.69783 10.5541 -24
      vertex -7.9678 9.63142 0
      vertex -6.69783 10.5541 0
    endloop
  endfacet
  facet normal -0.587782 0.809019 0
    outer loop
      vertex -7.9678 9.63142 0
      vertex -6.69783 10.5541 -24
      vertex -7.9678 9.63142 -24
    endloop
  endfacet
  facet normal 0.982292 -0.187354 0
    outer loop
      vertex 12.1073 -3.10862 0
      vertex 12.4014 -1.56666 -24
      vertex 12.4014 -1.56666 0
    endloop
  endfacet
  facet normal 0.982292 -0.187354 0
    outer loop
      vertex 12.4014 -1.56666 -24
      vertex 12.1073 -3.10862 0
      vertex 12.1073 -3.10862 -24
    endloop
  endfacet
  facet normal 0.844333 -0.535819 0
    outer loop
      vertex 10.1127 -7.34731 0
      vertex 10.9538 -6.02192 -24
      vertex 10.9538 -6.02192 0
    endloop
  endfacet
  facet normal 0.844333 -0.535819 0
    outer loop
      vertex 10.9538 -6.02192 -24
      vertex 10.1127 -7.34731 0
      vertex 10.1127 -7.34731 -24
    endloop
  endfacet
  facet normal 0.125306 -0.992118 0
    outer loop
      vertex 0.784881 -12.4753 -24
      vertex 2.34227 -12.2786 0
      vertex 0.784881 -12.4753 0
    endloop
  endfacet
  facet normal 0.125306 -0.992118 0
    outer loop
      vertex 2.34227 -12.2786 0
      vertex 0.784881 -12.4753 -24
      vertex 2.34227 -12.2786 -24
    endloop
  endfacet
  facet normal 0.90482 0.425795 0
    outer loop
      vertex 11.6222 4.60156 0
      vertex 10.9538 6.02192 -24
      vertex 10.9538 6.02192 0
    endloop
  endfacet
  facet normal 0.90482 0.425795 0
    outer loop
      vertex 10.9538 6.02192 -24
      vertex 11.6222 4.60156 0
      vertex 11.6222 4.60156 -24
    endloop
  endfacet
  facet normal 0.951054 0.309025 0
    outer loop
      vertex 12.1073 3.10862 0
      vertex 11.6222 4.60156 -24
      vertex 11.6222 4.60156 0
    endloop
  endfacet
  facet normal 0.951054 0.309025 0
    outer loop
      vertex 11.6222 4.60156 -24
      vertex 12.1073 3.10862 0
      vertex 12.1073 3.10862 -24
    endloop
  endfacet
  facet normal 0.982292 0.187354 0
    outer loop
      vertex 12.4014 1.56666 0
      vertex 12.1073 3.10862 -24
      vertex 12.1073 3.10862 0
    endloop
  endfacet
  facet normal 0.982292 0.187354 0
    outer loop
      vertex 12.1073 3.10862 -24
      vertex 12.4014 1.56666 0
      vertex 12.4014 1.56666 -24
    endloop
  endfacet
  facet normal -0.982292 0.187354 0
    outer loop
      vertex -12.4014 1.56666 -24
      vertex -12.1073 3.10862 0
      vertex -12.1073 3.10862 -24
    endloop
  endfacet
  facet normal -0.982292 0.187354 0
    outer loop
      vertex -12.1073 3.10862 0
      vertex -12.4014 1.56666 -24
      vertex -12.4014 1.56666 0
    endloop
  endfacet
  facet normal 0.481736 -0.876317 0
    outer loop
      vertex 5.32224 -11.3103 -24
      vertex 6.69783 -10.5541 0
      vertex 5.32224 -11.3103 0
    endloop
  endfacet
  facet normal 0.481736 -0.876317 0
    outer loop
      vertex 6.69783 -10.5541 0
      vertex 5.32224 -11.3103 -24
      vertex 6.69783 -10.5541 -24
    endloop
  endfacet
  facet normal 0.684548 -0.728968 0
    outer loop
      vertex 7.9678 -9.63142 -24
      vertex 9.11211 -8.55684 0
      vertex 7.9678 -9.63142 0
    endloop
  endfacet
  facet normal 0.684548 -0.728968 0
    outer loop
      vertex 9.11211 -8.55684 0
      vertex 7.9678 -9.63142 -24
      vertex 9.11211 -8.55684 -24
    endloop
  endfacet
  facet normal -0.368142 -0.92977 0
    outer loop
      vertex -5.32224 -11.3103 -24
      vertex -3.86271 -11.8882 0
      vertex -5.32224 -11.3103 0
    endloop
  endfacet
  facet normal -0.368142 -0.92977 -0
    outer loop
      vertex -3.86271 -11.8882 0
      vertex -5.32224 -11.3103 -24
      vertex -3.86271 -11.8882 -24
    endloop
  endfacet
  facet normal -0.998025 -0.0628122 0
    outer loop
      vertex -12.4014 -1.56666 -24
      vertex -12.5 0 0
      vertex -12.5 0 -24
    endloop
  endfacet
  facet normal -0.998025 -0.0628122 0
    outer loop
      vertex -12.5 0 0
      vertex -12.4014 -1.56666 -24
      vertex -12.4014 -1.56666 0
    endloop
  endfacet
  facet normal -0.951054 -0.309025 0
    outer loop
      vertex -11.6222 -4.60156 -24
      vertex -12.1073 -3.10862 0
      vertex -12.1073 -3.10862 -24
    endloop
  endfacet
  facet normal -0.951054 -0.309025 0
    outer loop
      vertex -12.1073 -3.10862 0
      vertex -11.6222 -4.60156 -24
      vertex -11.6222 -4.60156 0
    endloop
  endfacet
  facet normal -0.77052 -0.637416 0
    outer loop
      vertex -9.11211 -8.55684 -24
      vertex -10.1127 -7.34731 0
      vertex -10.1127 -7.34731 -24
    endloop
  endfacet
  facet normal -0.77052 -0.637416 0
    outer loop
      vertex -10.1127 -7.34731 0
      vertex -9.11211 -8.55684 -24
      vertex -9.11211 -8.55684 0
    endloop
  endfacet
  facet normal 0.951054 -0.309025 0
    outer loop
      vertex 11.6222 -4.60156 0
      vertex 12.1073 -3.10862 -24
      vertex 12.1073 -3.10862 0
    endloop
  endfacet
  facet normal 0.951054 -0.309025 0
    outer loop
      vertex 12.1073 -3.10862 -24
      vertex 11.6222 -4.60156 0
      vertex 11.6222 -4.60156 -24
    endloop
  endfacet
  facet normal 0.587782 -0.809019 0
    outer loop
      vertex 6.69783 -10.5541 -24
      vertex 7.9678 -9.63142 0
      vertex 6.69783 -10.5541 0
    endloop
  endfacet
  facet normal 0.587782 -0.809019 0
    outer loop
      vertex 7.9678 -9.63142 0
      vertex 6.69783 -10.5541 -24
      vertex 7.9678 -9.63142 -24
    endloop
  endfacet
  facet normal 0.77052 -0.637416 0
    outer loop
      vertex 9.11211 -8.55684 0
      vertex 10.1127 -7.34731 -24
      vertex 10.1127 -7.34731 0
    endloop
  endfacet
  facet normal 0.77052 -0.637416 0
    outer loop
      vertex 10.1127 -7.34731 -24
      vertex 9.11211 -8.55684 0
      vertex 9.11211 -8.55684 -24
    endloop
  endfacet
  facet normal -0.587782 -0.809019 0
    outer loop
      vertex -7.9678 -9.63142 -24
      vertex -6.69783 -10.5541 0
      vertex -7.9678 -9.63142 0
    endloop
  endfacet
  facet normal -0.587782 -0.809019 -0
    outer loop
      vertex -6.69783 -10.5541 0
      vertex -7.9678 -9.63142 -24
      vertex -6.69783 -10.5541 -24
    endloop
  endfacet
  facet normal 0 -1 0
    outer loop
      vertex -0.784881 -12.4753 -24
      vertex 0.784881 -12.4753 0
      vertex -0.784881 -12.4753 0
    endloop
  endfacet
  facet normal 0 -1 -0
    outer loop
      vertex 0.784881 -12.4753 0
      vertex -0.784881 -12.4753 -24
      vertex 0.784881 -12.4753 -24
    endloop
  endfacet
  facet normal -0.125306 -0.992118 0
    outer loop
      vertex -2.34227 -12.2786 -24
      vertex -0.784881 -12.4753 0
      vertex -2.34227 -12.2786 0
    endloop
  endfacet
  facet normal -0.125306 -0.992118 -0
    outer loop
      vertex -0.784881 -12.4753 0
      vertex -2.34227 -12.2786 -24
      vertex -0.784881 -12.4753 -24
    endloop
  endfacet
  facet normal -0.2487 -0.96858 0
    outer loop
      vertex -3.86271 -11.8882 -24
      vertex -2.34227 -12.2786 0
      vertex -3.86271 -11.8882 0
    endloop
  endfacet
  facet normal -0.2487 -0.96858 -0
    outer loop
      vertex -2.34227 -12.2786 0
      vertex -3.86271 -11.8882 -24
      vertex -2.34227 -12.2786 -24
    endloop
  endfacet
  facet normal 0 0 -1
    outer loop
      vertex 2.75 0 -24
      vertex 12.5 0 -24
      vertex 12.4014 -1.56666 -24
    endloop
  endfacet
  facet normal 0 0 -1
    outer loop
      vertex 2.72832 -0.344666 -24
      vertex 12.4014 -1.56666 -24
      vertex 12.1073 -3.10862 -24
    endloop
  endfacet
  facet normal 0 0 -1
    outer loop
      vertex 12.5 0 -24
      vertex 2.75 0 -24
      vertex 12.4014 1.56666 -24
    endloop
  endfacet
  facet normal 0 0 -1
    outer loop
      vertex 2.6636 -0.683897 -24
      vertex 12.1073 -3.10862 -24
      vertex 11.6222 -4.60156 -24
    endloop
  endfacet
  facet normal 0 0 -1
    outer loop
      vertex 2.72832 0.344666 -24
      vertex 12.4014 1.56666 -24
      vertex 2.75 0 -24
    endloop
  endfacet
  facet normal 0 0 -1
    outer loop
      vertex 2.55688 -1.01234 -24
      vertex 11.6222 -4.60156 -24
      vertex 10.9538 -6.02192 -24
    endloop
  endfacet
  facet normal -0 0 -1
    outer loop
      vertex 12.4014 1.56666 -24
      vertex 2.72832 0.344666 -24
      vertex 12.1073 3.10862 -24
    endloop
  endfacet
  facet normal 0 0 -1
    outer loop
      vertex 2.40984 -1.32482 -24
      vertex 10.9538 -6.02192 -24
      vertex 10.1127 -7.34731 -24
    endloop
  endfacet
  facet normal 0 0 -1
    outer loop
      vertex 2.6636 0.683897 -24
      vertex 12.1073 3.10862 -24
      vertex 2.72832 0.344666 -24
    endloop
  endfacet
  facet normal 0 0 -1
    outer loop
      vertex 2.2248 -1.61641 -24
      vertex 10.1127 -7.34731 -24
      vertex 9.11211 -8.55684 -24
    endloop
  endfacet
  facet normal -0 0 -1
    outer loop
      vertex 12.1073 3.10862 -24
      vertex 2.6636 0.683897 -24
      vertex 11.6222 4.60156 -24
    endloop
  endfacet
  facet normal 0 0 -1
    outer loop
      vertex 2.00466 -1.8825 -24
      vertex 9.11211 -8.55684 -24
      vertex 7.9678 -9.63142 -24
    endloop
  endfacet
  facet normal 0 0 -1
    outer loop
      vertex 2.55688 1.01234 -24
      vertex 11.6222 4.60156 -24
      vertex 2.6636 0.683897 -24
    endloop
  endfacet
  facet normal 0 0 -1
    outer loop
      vertex 1.75292 -2.11891 -24
      vertex 7.9678 -9.63142 -24
      vertex 6.69783 -10.5541 -24
    endloop
  endfacet
  facet normal -0 0 -1
    outer loop
      vertex 11.6222 4.60156 -24
      vertex 2.55688 1.01234 -24
      vertex 10.9538 6.02192 -24
    endloop
  endfacet
  facet normal 0 0 -1
    outer loop
      vertex 1.47352 -2.3219 -24
      vertex 6.69783 -10.5541 -24
      vertex 5.32224 -11.3103 -24
    endloop
  endfacet
  facet normal 0 0 -1
    outer loop
      vertex 2.40984 1.32482 -24
      vertex 10.9538 6.02192 -24
      vertex 2.55688 1.01234 -24
    endloop
  endfacet
  facet normal 0 0 -1
    outer loop
      vertex 1.17089 -2.48827 -24
      vertex 5.32224 -11.3103 -24
      vertex 3.86271 -11.8882 -24
    endloop
  endfacet
  facet normal -0 0 -1
    outer loop
      vertex 10.9538 6.02192 -24
      vertex 2.40984 1.32482 -24
      vertex 10.1127 7.34731 -24
    endloop
  endfacet
  facet normal 0 0 -1
    outer loop
      vertex 2.2248 1.61641 -24
      vertex 10.1127 7.34731 -24
      vertex 2.40984 1.32482 -24
    endloop
  endfacet
  facet normal 0 0 -1
    outer loop
      vertex 12.4014 -1.56666 -24
      vertex 2.72832 -0.344666 -24
      vertex 2.75 0 -24
    endloop
  endfacet
  facet normal 0 0 -1
    outer loop
      vertex 12.1073 -3.10862 -24
      vertex 2.6636 -0.683897 -24
      vertex 2.72832 -0.344666 -24
    endloop
  endfacet
  facet normal 0 0 -1
    outer loop
      vertex 11.6222 -4.60156 -24
      vertex 2.55688 -1.01234 -24
      vertex 2.6636 -0.683897 -24
    endloop
  endfacet
  facet normal 0 0 -1
    outer loop
      vertex 10.9538 -6.02192 -24
      vertex 2.40984 -1.32482 -24
      vertex 2.55688 -1.01234 -24
    endloop
  endfacet
  facet normal 0 0 -1
    outer loop
      vertex 0.849796 -2.61541 -24
      vertex 3.86271 -11.8882 -24
      vertex 2.34227 -12.2786 -24
    endloop
  endfacet
  facet normal 0 0 -1
    outer loop
      vertex 10.1127 -7.34731 -24
      vertex 2.2248 -1.61641 -24
      vertex 2.40984 -1.32482 -24
    endloop
  endfacet
  facet normal 0 0 -1
    outer loop
      vertex 9.11211 -8.55684 -24
      vertex 2.00466 -1.8825 -24
      vertex 2.2248 -1.61641 -24
    endloop
  endfacet
  facet normal 0 0 -1
    outer loop
      vertex 7.9678 -9.63142 -24
      vertex 1.75292 -2.11891 -24
      vertex 2.00466 -1.8825 -24
    endloop
  endfacet
  facet normal 0 0 -1
    outer loop
      vertex 6.69783 -10.5541 -24
      vertex 1.47352 -2.3219 -24
      vertex 1.75292 -2.11891 -24
    endloop
  endfacet
  facet normal 0 0 -1
    outer loop
      vertex 5.32224 -11.3103 -24
      vertex 1.17089 -2.48827 -24
      vertex 1.47352 -2.3219 -24
    endloop
  endfacet
  facet normal 0 0 -1
    outer loop
      vertex 3.86271 -11.8882 -24
      vertex 0.849796 -2.61541 -24
      vertex 1.17089 -2.48827 -24
    endloop
  endfacet
  facet normal 0 0 -1
    outer loop
      vertex 0.515298 -2.70129 -24
      vertex 2.34227 -12.2786 -24
      vertex 0.784881 -12.4753 -24
    endloop
  endfacet
  facet normal 0 0 -1
    outer loop
      vertex 2.34227 -12.2786 -24
      vertex 0.515298 -2.70129 -24
      vertex 0.849796 -2.61541 -24
    endloop
  endfacet
  facet normal 0 0 -1
    outer loop
      vertex 0.784881 -12.4753 -24
      vertex 0.172673 -2.74457 -24
      vertex 0.515298 -2.70129 -24
    endloop
  endfacet
  facet normal 0 0 -1
    outer loop
      vertex 0.784881 -12.4753 -24
      vertex -0.172673 -2.74457 -24
      vertex 0.172673 -2.74457 -24
    endloop
  endfacet
  facet normal 0 0 -1
    outer loop
      vertex -0.784881 -12.4753 -24
      vertex -0.172673 -2.74457 -24
      vertex 0.784881 -12.4753 -24
    endloop
  endfacet
  facet normal -0 0 -1
    outer loop
      vertex -0.172673 -2.74457 -24
      vertex -0.784881 -12.4753 -24
      vertex -0.515298 -2.70129 -24
    endloop
  endfacet
  facet normal 0 0 -1
    outer loop
      vertex -2.34227 -12.2786 -24
      vertex -0.515298 -2.70129 -24
      vertex -0.784881 -12.4753 -24
    endloop
  endfacet
  facet normal -0 0 -1
    outer loop
      vertex -0.515298 -2.70129 -24
      vertex -2.34227 -12.2786 -24
      vertex -0.849796 -2.61541 -24
    endloop
  endfacet
  facet normal 0 0 -1
    outer loop
      vertex -3.86271 -11.8882 -24
      vertex -0.849796 -2.61541 -24
      vertex -2.34227 -12.2786 -24
    endloop
  endfacet
  facet normal -0 0 -1
    outer loop
      vertex -0.849796 -2.61541 -24
      vertex -3.86271 -11.8882 -24
      vertex -1.17089 -2.48827 -24
    endloop
  endfacet
  facet normal 0 0 -1
    outer loop
      vertex -5.32224 -11.3103 -24
      vertex -1.17089 -2.48827 -24
      vertex -3.86271 -11.8882 -24
    endloop
  endfacet
  facet normal -0 0 -1
    outer loop
      vertex -1.17089 -2.48827 -24
      vertex -5.32224 -11.3103 -24
      vertex -1.47352 -2.3219 -24
    endloop
  endfacet
  facet normal 0 0 -1
    outer loop
      vertex -6.69783 -10.5541 -24
      vertex -1.47352 -2.3219 -24
      vertex -5.32224 -11.3103 -24
    endloop
  endfacet
  facet normal -0 0 -1
    outer loop
      vertex -1.47352 -2.3219 -24
      vertex -6.69783 -10.5541 -24
      vertex -1.75292 -2.11891 -24
    endloop
  endfacet
  facet normal 0 0 -1
    outer loop
      vertex -7.9678 -9.63142 -24
      vertex -1.75292 -2.11891 -24
      vertex -6.69783 -10.5541 -24
    endloop
  endfacet
  facet normal -0 0 -1
    outer loop
      vertex -1.75292 -2.11891 -24
      vertex -7.9678 -9.63142 -24
      vertex -2.00466 -1.8825 -24
    endloop
  endfacet
  facet normal 0 0 -1
    outer loop
      vertex -9.11211 -8.55684 -24
      vertex -2.00466 -1.8825 -24
      vertex -7.9678 -9.63142 -24
    endloop
  endfacet
  facet normal -0 0 -1
    outer loop
      vertex -2.00466 -1.8825 -24
      vertex -9.11211 -8.55684 -24
      vertex -2.2248 -1.61641 -24
    endloop
  endfacet
  facet normal 0 0 -1
    outer loop
      vertex -10.1127 -7.34731 -24
      vertex -2.2248 -1.61641 -24
      vertex -9.11211 -8.55684 -24
    endloop
  endfacet
  facet normal -0 0 -1
    outer loop
      vertex 10.1127 7.34731 -24
      vertex 2.2248 1.61641 -24
      vertex 9.11211 8.55684 -24
    endloop
  endfacet
  facet normal 0 0 -1
    outer loop
      vertex 2.00466 1.8825 -24
      vertex 9.11211 8.55684 -24
      vertex 2.2248 1.61641 -24
    endloop
  endfacet
  facet normal -0 0 -1
    outer loop
      vertex 9.11211 8.55684 -24
      vertex 2.00466 1.8825 -24
      vertex 7.9678 9.63142 -24
    endloop
  endfacet
  facet normal 0 0 -1
    outer loop
      vertex 1.75292 2.11891 -24
      vertex 7.9678 9.63142 -24
      vertex 2.00466 1.8825 -24
    endloop
  endfacet
  facet normal -0 0 -1
    outer loop
      vertex 7.9678 9.63142 -24
      vertex 1.75292 2.11891 -24
      vertex 6.69783 10.5541 -24
    endloop
  endfacet
  facet normal 0 0 -1
    outer loop
      vertex 1.47352 2.3219 -24
      vertex 6.69783 10.5541 -24
      vertex 1.75292 2.11891 -24
    endloop
  endfacet
  facet normal -0 0 -1
    outer loop
      vertex 6.69783 10.5541 -24
      vertex 1.47352 2.3219 -24
      vertex 5.32224 11.3103 -24
    endloop
  endfacet
  facet normal 0 0 -1
    outer loop
      vertex 1.17089 2.48827 -24
      vertex 5.32224 11.3103 -24
      vertex 1.47352 2.3219 -24
    endloop
  endfacet
  facet normal -0 0 -1
    outer loop
      vertex 5.32224 11.3103 -24
      vertex 1.17089 2.48827 -24
      vertex 3.86271 11.8882 -24
    endloop
  endfacet
  facet normal 0 0 -1
    outer loop
      vertex 0.849796 2.61541 -24
      vertex 3.86271 11.8882 -24
      vertex 1.17089 2.48827 -24
    endloop
  endfacet
  facet normal -0 0 -1
    outer loop
      vertex 3.86271 11.8882 -24
      vertex 0.849796 2.61541 -24
      vertex 2.34227 12.2786 -24
    endloop
  endfacet
  facet normal 0 0 -1
    outer loop
      vertex 0.515298 2.70129 -24
      vertex 2.34227 12.2786 -24
      vertex 0.849796 2.61541 -24
    endloop
  endfacet
  facet normal -0 0 -1
    outer loop
      vertex 2.34227 12.2786 -24
      vertex 0.515298 2.70129 -24
      vertex 0.784881 12.4753 -24
    endloop
  endfacet
  facet normal 0 0 -1
    outer loop
      vertex 0.172673 2.74457 -24
      vertex 0.784881 12.4753 -24
      vertex 0.515298 2.70129 -24
    endloop
  endfacet
  facet normal 0 0 -1
    outer loop
      vertex -0.172673 2.74457 -24
      vertex 0.784881 12.4753 -24
      vertex 0.172673 2.74457 -24
    endloop
  endfacet
  facet normal 0 0 -1
    outer loop
      vertex -0.784881 12.4753 -24
      vertex -0.172673 2.74457 -24
      vertex -0.515298 2.70129 -24
    endloop
  endfacet
  facet normal 0 0 -1
    outer loop
      vertex -0.172673 2.74457 -24
      vertex -0.784881 12.4753 -24
      vertex 0.784881 12.4753 -24
    endloop
  endfacet
  facet normal 0 0 -1
    outer loop
      vertex -2.34227 12.2786 -24
      vertex -0.515298 2.70129 -24
      vertex -0.849796 2.61541 -24
    endloop
  endfacet
  facet normal 0 0 -1
    outer loop
      vertex -3.86271 11.8882 -24
      vertex -0.849796 2.61541 -24
      vertex -1.17089 2.48827 -24
    endloop
  endfacet
  facet normal 0 0 -1
    outer loop
      vertex -5.32224 11.3103 -24
      vertex -1.17089 2.48827 -24
      vertex -1.47352 2.3219 -24
    endloop
  endfacet
  facet normal 0 0 -1
    outer loop
      vertex -6.69783 10.5541 -24
      vertex -1.47352 2.3219 -24
      vertex -1.75292 2.11891 -24
    endloop
  endfacet
  facet normal 0 0 -1
    outer loop
      vertex -7.9678 9.63142 -24
      vertex -1.75292 2.11891 -24
      vertex -2.00466 1.8825 -24
    endloop
  endfacet
  facet normal 0 0 -1
    outer loop
      vertex -9.11211 8.55684 -24
      vertex -2.00466 1.8825 -24
      vertex -2.2248 1.61641 -24
    endloop
  endfacet
  facet normal 0 0 -1
    outer loop
      vertex -0.515298 2.70129 -24
      vertex -2.34227 12.2786 -24
      vertex -0.784881 12.4753 -24
    endloop
  endfacet
  facet normal 0 0 -1
    outer loop
      vertex -10.1127 7.34731 -24
      vertex -2.2248 1.61641 -24
      vertex -2.40984 1.32482 -24
    endloop
  endfacet
  facet normal 0 0 -1
    outer loop
      vertex -10.9538 6.02192 -24
      vertex -2.40984 1.32482 -24
      vertex -2.55688 1.01234 -24
    endloop
  endfacet
  facet normal 0 0 -1
    outer loop
      vertex -11.6222 4.60156 -24
      vertex -2.55688 1.01234 -24
      vertex -2.6636 0.683897 -24
    endloop
  endfacet
  facet normal 0 0 -1
    outer loop
      vertex -12.1073 3.10862 -24
      vertex -2.6636 0.683897 -24
      vertex -2.72832 0.344666 -24
    endloop
  endfacet
  facet normal 0 0 -1
    outer loop
      vertex -12.4014 1.56666 -24
      vertex -2.72832 0.344666 -24
      vertex -2.75 0 -24
    endloop
  endfacet
  facet normal -0 0 -1
    outer loop
      vertex -2.2248 -1.61641 -24
      vertex -10.1127 -7.34731 -24
      vertex -2.40984 -1.32482 -24
    endloop
  endfacet
  facet normal 0 0 -1
    outer loop
      vertex -0.849796 2.61541 -24
      vertex -3.86271 11.8882 -24
      vertex -2.34227 12.2786 -24
    endloop
  endfacet
  facet normal 0 0 -1
    outer loop
      vertex -10.9538 -6.02192 -24
      vertex -2.40984 -1.32482 -24
      vertex -10.1127 -7.34731 -24
    endloop
  endfacet
  facet normal 0 0 -1
    outer loop
      vertex -1.17089 2.48827 -24
      vertex -5.32224 11.3103 -24
      vertex -3.86271 11.8882 -24
    endloop
  endfacet
  facet normal -0 0 -1
    outer loop
      vertex -2.40984 -1.32482 -24
      vertex -10.9538 -6.02192 -24
      vertex -2.55688 -1.01234 -24
    endloop
  endfacet
  facet normal 0 0 -1
    outer loop
      vertex -1.47352 2.3219 -24
      vertex -6.69783 10.5541 -24
      vertex -5.32224 11.3103 -24
    endloop
  endfacet
  facet normal 0 0 -1
    outer loop
      vertex -11.6222 -4.60156 -24
      vertex -2.55688 -1.01234 -24
      vertex -10.9538 -6.02192 -24
    endloop
  endfacet
  facet normal 0 0 -1
    outer loop
      vertex -1.75292 2.11891 -24
      vertex -7.9678 9.63142 -24
      vertex -6.69783 10.5541 -24
    endloop
  endfacet
  facet normal -0 0 -1
    outer loop
      vertex -2.55688 -1.01234 -24
      vertex -11.6222 -4.60156 -24
      vertex -2.6636 -0.683897 -24
    endloop
  endfacet
  facet normal 0 0 -1
    outer loop
      vertex -2.00466 1.8825 -24
      vertex -9.11211 8.55684 -24
      vertex -7.9678 9.63142 -24
    endloop
  endfacet
  facet normal 0 0 -1
    outer loop
      vertex -12.1073 -3.10862 -24
      vertex -2.6636 -0.683897 -24
      vertex -11.6222 -4.60156 -24
    endloop
  endfacet
  facet normal 0 0 -1
    outer loop
      vertex -2.2248 1.61641 -24
      vertex -10.1127 7.34731 -24
      vertex -9.11211 8.55684 -24
    endloop
  endfacet
  facet normal -0 0 -1
    outer loop
      vertex -2.6636 -0.683897 -24
      vertex -12.1073 -3.10862 -24
      vertex -2.72832 -0.344666 -24
    endloop
  endfacet
  facet normal 0 0 -1
    outer loop
      vertex -2.40984 1.32482 -24
      vertex -10.9538 6.02192 -24
      vertex -10.1127 7.34731 -24
    endloop
  endfacet
  facet normal 0 0 -1
    outer loop
      vertex -12.4014 -1.56666 -24
      vertex -2.72832 -0.344666 -24
      vertex -12.1073 -3.10862 -24
    endloop
  endfacet
  facet normal 0 0 -1
    outer loop
      vertex -2.55688 1.01234 -24
      vertex -11.6222 4.60156 -24
      vertex -10.9538 6.02192 -24
    endloop
  endfacet
  facet normal -0 0 -1
    outer loop
      vertex -2.72832 -0.344666 -24
      vertex -12.4014 -1.56666 -24
      vertex -2.75 0 -24
    endloop
  endfacet
  facet normal 0 0 -1
    outer loop
      vertex -2.6636 0.683897 -24
      vertex -12.1073 3.10862 -24
      vertex -11.6222 4.60156 -24
    endloop
  endfacet
  facet normal 0 0 -1
    outer loop
      vertex -12.5 0 -24
      vertex -2.75 0 -24
      vertex -12.4014 -1.56666 -24
    endloop
  endfacet
  facet normal 0 0 -1
    outer loop
      vertex -2.72832 0.344666 -24
      vertex -12.4014 1.56666 -24
      vertex -12.1073 3.10862 -24
    endloop
  endfacet
  facet normal 0 0 -1
    outer loop
      vertex -2.75 0 -24
      vertex -12.5 0 -24
      vertex -12.4014 1.56666 -24
    endloop
  endfacet
  facet normal -0.982292 -0.187354 0
    outer loop
      vertex -12.1073 -3.10862 -24
      vertex -12.4014 -1.56666 0
      vertex -12.4014 -1.56666 -24
    endloop
  endfacet
  facet normal -0.982292 -0.187354 0
    outer loop
      vertex -12.4014 -1.56666 0
      vertex -12.1073 -3.10862 -24
      vertex -12.1073 -3.10862 0
    endloop
  endfacet
  facet normal -0.684548 -0.728968 0
    outer loop
      vertex -9.11211 -8.55684 -24
      vertex -7.9678 -9.63142 0
      vertex -9.11211 -8.55684 0
    endloop
  endfacet
  facet normal -0.684548 -0.728968 -0
    outer loop
      vertex -7.9678 -9.63142 0
      vertex -9.11211 -8.55684 -24
      vertex -7.9678 -9.63142 -24
    endloop
  endfacet
  facet normal -0.90482 -0.425795 0
    outer loop
      vertex -10.9538 -6.02192 -24
      vertex -11.6222 -4.60156 0
      vertex -11.6222 -4.60156 -24
    endloop
  endfacet
  facet normal -0.90482 -0.425795 0
    outer loop
      vertex -11.6222 -4.60156 0
      vertex -10.9538 -6.02192 -24
      vertex -10.9538 -6.02192 0
    endloop
  endfacet
  facet normal -0.481736 -0.876317 0
    outer loop
      vertex -6.69783 -10.5541 -24
      vertex -5.32224 -11.3103 0
      vertex -6.69783 -10.5541 0
    endloop
  endfacet
  facet normal -0.481736 -0.876317 -0
    outer loop
      vertex -5.32224 -11.3103 0
      vertex -6.69783 -10.5541 -24
      vertex -5.32224 -11.3103 -24
    endloop
  endfacet
  facet normal -0.844333 -0.535819 0
    outer loop
      vertex -10.1127 -7.34731 -24
      vertex -10.9538 -6.02192 0
      vertex -10.9538 -6.02192 -24
    endloop
  endfacet
  facet normal -0.844333 -0.535819 0
    outer loop
      vertex -10.9538 -6.02192 0
      vertex -10.1127 -7.34731 -24
      vertex -10.1127 -7.34731 0
    endloop
  endfacet
endsolid OpenSCAD_Model
