solid OpenSCAD_Model
  facet normal 0 0 1
    outer loop
      vertex 5.9 0 0
      vertex 7 0 0
      vertex 6.9448 0.877332 0
    endloop
  endfacet
  facet normal 0 0 1
    outer loop
      vertex 5.85348 0.739466 0
      vertex 6.9448 0.877332 0
      vertex 6.78008 1.74083 0
    endloop
  endfacet
  facet normal 0 0 1
    outer loop
      vertex 7 0 0
      vertex 5.9 0 0
      vertex 6.9448 -0.877332 0
    endloop
  endfacet
  facet normal 0 0 1
    outer loop
      vertex 5.71464 1.46727 0
      vertex 6.78008 1.74083 0
      vertex 6.50844 2.57687 0
    endloop
  endfacet
  facet normal -0 0 1
    outer loop
      vertex 5.85348 -0.739466 0
      vertex 6.9448 -0.877332 0
      vertex 5.9 0 0
    endloop
  endfacet
  facet normal 0 0 1
    outer loop
      vertex 5.48568 2.17193 0
      vertex 6.50844 2.57687 0
      vertex 6.13415 3.37228 0
    endloop
  endfacet
  facet normal 0 0 1
    outer loop
      vertex 6.9448 -0.877332 0
      vertex 5.85348 -0.739466 0
      vertex 6.78008 -1.74083 0
    endloop
  endfacet
  facet normal -0 0 1
    outer loop
      vertex 5.71464 -1.46727 0
      vertex 6.78008 -1.74083 0
      vertex 5.85348 -0.739466 0
    endloop
  endfacet
  facet normal 0 0 1
    outer loop
      vertex 6.9448 0.877332 0
      vertex 5.85348 0.739466 0
      vertex 5.9 0 0
    endloop
  endfacet
  facet normal 0 0 1
    outer loop
      vertex 6.78008 1.74083 0
      vertex 5.71464 1.46727 0
      vertex 5.85348 0.739466 0
    endloop
  endfacet
  facet normal 0 0 1
    outer loop
      vertex 5.17021 2.84235 0
      vertex 6.13415 3.37228 0
      vertex 5.66312 4.1145 0
    endloop
  endfacet
  facet normal 0 0 1
    outer loop
      vertex 6.50844 2.57687 0
      vertex 5.48568 2.17193 0
      vertex 5.71464 1.46727 0
    endloop
  endfacet
  facet normal 0 0 1
    outer loop
      vertex 6.13415 3.37228 0
      vertex 5.17021 2.84235 0
      vertex 5.48568 2.17193 0
    endloop
  endfacet
  facet normal 0 0 1
    outer loop
      vertex 4.7732 3.46793 0
      vertex 5.66312 4.1145 0
      vertex 5.10278 4.79183 0
    endloop
  endfacet
  facet normal 0 0 1
    outer loop
      vertex 5.66312 4.1145 0
      vertex 4.7732 3.46793 0
      vertex 5.17021 2.84235 0
    endloop
  endfacet
  facet normal 0 0 1
    outer loop
      vertex 4.30091 4.03883 0
      vertex 5.10278 4.79183 0
      vertex 4.46197 5.39359 0
    endloop
  endfacet
  facet normal 0 0 1
    outer loop
      vertex 5.10278 4.79183 0
      vertex 4.30091 4.03883 0
      vertex 4.7732 3.46793 0
    endloop
  endfacet
  facet normal 0 0 1
    outer loop
      vertex 4.46197 5.39359 0
      vertex 3.7608 4.54603 0
      vertex 4.30091 4.03883 0
    endloop
  endfacet
  facet normal 0 0 1
    outer loop
      vertex 3.75079 5.91029 0
      vertex 3.7608 4.54603 0
      vertex 4.46197 5.39359 0
    endloop
  endfacet
  facet normal 0 0 1
    outer loop
      vertex 3.75079 5.91029 0
      vertex 3.16138 4.98153 0
      vertex 3.7608 4.54603 0
    endloop
  endfacet
  facet normal 0 0 1
    outer loop
      vertex 2.98045 6.33379 0
      vertex 3.16138 4.98153 0
      vertex 3.75079 5.91029 0
    endloop
  endfacet
  facet normal 0 0 1
    outer loop
      vertex 2.98045 6.33379 0
      vertex 2.5121 5.33848 0
      vertex 3.16138 4.98153 0
    endloop
  endfacet
  facet normal 0 0 1
    outer loop
      vertex 2.16312 6.6574 0
      vertex 2.5121 5.33848 0
      vertex 2.98045 6.33379 0
    endloop
  endfacet
  facet normal 0 0 1
    outer loop
      vertex 2.16312 6.6574 0
      vertex 1.8232 5.61123 0
      vertex 2.5121 5.33848 0
    endloop
  endfacet
  facet normal 0 0 1
    outer loop
      vertex 1.31167 6.87601 0
      vertex 1.8232 5.61123 0
      vertex 2.16312 6.6574 0
    endloop
  endfacet
  facet normal 0 0 1
    outer loop
      vertex 1.31167 6.87601 0
      vertex 1.10555 5.79549 0
      vertex 1.8232 5.61123 0
    endloop
  endfacet
  facet normal 0 0 1
    outer loop
      vertex 0.439533 6.98619 0
      vertex 1.10555 5.79549 0
      vertex 1.31167 6.87601 0
    endloop
  endfacet
  facet normal 0 0 1
    outer loop
      vertex 0.439533 6.98619 0
      vertex 0.370463 5.88836 0
      vertex 1.10555 5.79549 0
    endloop
  endfacet
  facet normal 0 0 1
    outer loop
      vertex 0.439533 6.98619 0
      vertex -0.370463 5.88836 0
      vertex 0.370463 5.88836 0
    endloop
  endfacet
  facet normal -0 0 1
    outer loop
      vertex -0.439533 6.98619 0
      vertex -0.370463 5.88836 0
      vertex 0.439533 6.98619 0
    endloop
  endfacet
  facet normal 0 0 1
    outer loop
      vertex -0.439533 6.98619 0
      vertex -1.10555 5.79549 0
      vertex -0.370463 5.88836 0
    endloop
  endfacet
  facet normal -0 0 1
    outer loop
      vertex -1.31167 6.87601 0
      vertex -1.10555 5.79549 0
      vertex -0.439533 6.98619 0
    endloop
  endfacet
  facet normal 0 0 1
    outer loop
      vertex -1.31167 6.87601 0
      vertex -1.8232 5.61123 0
      vertex -1.10555 5.79549 0
    endloop
  endfacet
  facet normal -0 0 1
    outer loop
      vertex -2.16312 6.6574 0
      vertex -1.8232 5.61123 0
      vertex -1.31167 6.87601 0
    endloop
  endfacet
  facet normal 0 0 1
    outer loop
      vertex -2.16312 6.6574 0
      vertex -2.5121 5.33848 0
      vertex -1.8232 5.61123 0
    endloop
  endfacet
  facet normal -0 0 1
    outer loop
      vertex -2.98045 6.33379 0
      vertex -2.5121 5.33848 0
      vertex -2.16312 6.6574 0
    endloop
  endfacet
  facet normal 0 0 1
    outer loop
      vertex -2.98045 6.33379 0
      vertex -3.16138 4.98153 0
      vertex -2.5121 5.33848 0
    endloop
  endfacet
  facet normal -0 0 1
    outer loop
      vertex -3.75079 5.91029 0
      vertex -3.16138 4.98153 0
      vertex -2.98045 6.33379 0
    endloop
  endfacet
  facet normal 0 0 1
    outer loop
      vertex -3.75079 5.91029 0
      vertex -3.7608 4.54603 0
      vertex -3.16138 4.98153 0
    endloop
  endfacet
  facet normal -0 0 1
    outer loop
      vertex -4.46197 5.39359 0
      vertex -3.7608 4.54603 0
      vertex -3.75079 5.91029 0
    endloop
  endfacet
  facet normal 0 0 1
    outer loop
      vertex -3.7608 4.54603 0
      vertex -4.46197 5.39359 0
      vertex -4.30091 4.03883 0
    endloop
  endfacet
  facet normal -0 0 1
    outer loop
      vertex -5.10278 4.79183 0
      vertex -4.30091 4.03883 0
      vertex -4.46197 5.39359 0
    endloop
  endfacet
  facet normal 0 0 1
    outer loop
      vertex -4.30091 4.03883 0
      vertex -5.10278 4.79183 0
      vertex -4.7732 3.46793 0
    endloop
  endfacet
  facet normal -0 0 1
    outer loop
      vertex -5.66312 4.1145 0
      vertex -4.7732 3.46793 0
      vertex -5.10278 4.79183 0
    endloop
  endfacet
  facet normal 0 0 1
    outer loop
      vertex -4.7732 3.46793 0
      vertex -5.66312 4.1145 0
      vertex -5.17021 2.84235 0
    endloop
  endfacet
  facet normal -0 0 1
    outer loop
      vertex -6.13415 3.37228 0
      vertex -5.17021 2.84235 0
      vertex -5.66312 4.1145 0
    endloop
  endfacet
  facet normal 0 0 1
    outer loop
      vertex -5.17021 2.84235 0
      vertex -6.13415 3.37228 0
      vertex -5.48568 2.17193 0
    endloop
  endfacet
  facet normal -0 0 1
    outer loop
      vertex -6.50844 2.57687 0
      vertex -5.48568 2.17193 0
      vertex -6.13415 3.37228 0
    endloop
  endfacet
  facet normal 0 0 1
    outer loop
      vertex -5.48568 2.17193 0
      vertex -6.50844 2.57687 0
      vertex -5.71464 1.46727 0
    endloop
  endfacet
  facet normal -0 0 1
    outer loop
      vertex -6.78008 1.74083 0
      vertex -5.71464 1.46727 0
      vertex -6.50844 2.57687 0
    endloop
  endfacet
  facet normal 0 0 1
    outer loop
      vertex 6.78008 -1.74083 0
      vertex 5.71464 -1.46727 0
      vertex 6.50844 -2.57687 0
    endloop
  endfacet
  facet normal -0 0 1
    outer loop
      vertex 5.48568 -2.17193 0
      vertex 6.50844 -2.57687 0
      vertex 5.71464 -1.46727 0
    endloop
  endfacet
  facet normal 0 0 1
    outer loop
      vertex 6.50844 -2.57687 0
      vertex 5.48568 -2.17193 0
      vertex 6.13415 -3.37228 0
    endloop
  endfacet
  facet normal -0 0 1
    outer loop
      vertex 5.17021 -2.84235 0
      vertex 6.13415 -3.37228 0
      vertex 5.48568 -2.17193 0
    endloop
  endfacet
  facet normal 0 0 1
    outer loop
      vertex 6.13415 -3.37228 0
      vertex 5.17021 -2.84235 0
      vertex 5.66312 -4.1145 0
    endloop
  endfacet
  facet normal -0 0 1
    outer loop
      vertex 4.7732 -3.46793 0
      vertex 5.66312 -4.1145 0
      vertex 5.17021 -2.84235 0
    endloop
  endfacet
  facet normal 0 0 1
    outer loop
      vertex 5.66312 -4.1145 0
      vertex 4.7732 -3.46793 0
      vertex 5.10278 -4.79183 0
    endloop
  endfacet
  facet normal -0 0 1
    outer loop
      vertex 4.30091 -4.03883 0
      vertex 5.10278 -4.79183 0
      vertex 4.7732 -3.46793 0
    endloop
  endfacet
  facet normal 0 0 1
    outer loop
      vertex 5.10278 -4.79183 0
      vertex 4.30091 -4.03883 0
      vertex 4.46197 -5.39359 0
    endloop
  endfacet
  facet normal -0 0 1
    outer loop
      vertex 3.7608 -4.54603 0
      vertex 4.46197 -5.39359 0
      vertex 4.30091 -4.03883 0
    endloop
  endfacet
  facet normal 0 0 1
    outer loop
      vertex 3.7608 -4.54603 0
      vertex 3.75079 -5.91029 0
      vertex 4.46197 -5.39359 0
    endloop
  endfacet
  facet normal -0 0 1
    outer loop
      vertex 3.16138 -4.98153 0
      vertex 3.75079 -5.91029 0
      vertex 3.7608 -4.54603 0
    endloop
  endfacet
  facet normal 0 0 1
    outer loop
      vertex 3.16138 -4.98153 0
      vertex 2.98045 -6.33379 0
      vertex 3.75079 -5.91029 0
    endloop
  endfacet
  facet normal -0 0 1
    outer loop
      vertex 2.5121 -5.33848 0
      vertex 2.98045 -6.33379 0
      vertex 3.16138 -4.98153 0
    endloop
  endfacet
  facet normal 0 0 1
    outer loop
      vertex 2.5121 -5.33848 0
      vertex 2.16312 -6.6574 0
      vertex 2.98045 -6.33379 0
    endloop
  endfacet
  facet normal -0 0 1
    outer loop
      vertex 1.8232 -5.61123 0
      vertex 2.16312 -6.6574 0
      vertex 2.5121 -5.33848 0
    endloop
  endfacet
  facet normal 0 0 1
    outer loop
      vertex 1.8232 -5.61123 0
      vertex 1.31167 -6.87601 0
      vertex 2.16312 -6.6574 0
    endloop
  endfacet
  facet normal -0 0 1
    outer loop
      vertex 1.10555 -5.79549 0
      vertex 1.31167 -6.87601 0
      vertex 1.8232 -5.61123 0
    endloop
  endfacet
  facet normal 0 0 1
    outer loop
      vertex 1.10555 -5.79549 0
      vertex 0.439533 -6.98619 0
      vertex 1.31167 -6.87601 0
    endloop
  endfacet
  facet normal -0 0 1
    outer loop
      vertex 0.370463 -5.88836 0
      vertex 0.439533 -6.98619 0
      vertex 1.10555 -5.79549 0
    endloop
  endfacet
  facet normal -0 0 1
    outer loop
      vertex -0.370463 -5.88836 0
      vertex 0.439533 -6.98619 0
      vertex 0.370463 -5.88836 0
    endloop
  endfacet
  facet normal 0 0 1
    outer loop
      vertex -0.370463 -5.88836 0
      vertex -0.439533 -6.98619 0
      vertex 0.439533 -6.98619 0
    endloop
  endfacet
  facet normal 0 0 1
    outer loop
      vertex -1.10555 -5.79549 0
      vertex -0.439533 -6.98619 0
      vertex -0.370463 -5.88836 0
    endloop
  endfacet
  facet normal 0 0 1
    outer loop
      vertex -1.10555 -5.79549 0
      vertex -1.31167 -6.87601 0
      vertex -0.439533 -6.98619 0
    endloop
  endfacet
  facet normal 0 0 1
    outer loop
      vertex -1.8232 -5.61123 0
      vertex -1.31167 -6.87601 0
      vertex -1.10555 -5.79549 0
    endloop
  endfacet
  facet normal 0 0 1
    outer loop
      vertex -1.8232 -5.61123 0
      vertex -2.16312 -6.6574 0
      vertex -1.31167 -6.87601 0
    endloop
  endfacet
  facet normal 0 0 1
    outer loop
      vertex -2.5121 -5.33848 0
      vertex -2.16312 -6.6574 0
      vertex -1.8232 -5.61123 0
    endloop
  endfacet
  facet normal 0 0 1
    outer loop
      vertex -2.5121 -5.33848 0
      vertex -2.98045 -6.33379 0
      vertex -2.16312 -6.6574 0
    endloop
  endfacet
  facet normal 0 0 1
    outer loop
      vertex -3.16138 -4.98153 0
      vertex -2.98045 -6.33379 0
      vertex -2.5121 -5.33848 0
    endloop
  endfacet
  facet normal 0 0 1
    outer loop
      vertex -3.16138 -4.98153 0
      vertex -3.75079 -5.91029 0
      vertex -2.98045 -6.33379 0
    endloop
  endfacet
  facet normal 0 0 1
    outer loop
      vertex -3.7608 -4.54603 0
      vertex -3.75079 -5.91029 0
      vertex -3.16138 -4.98153 0
    endloop
  endfacet
  facet normal 0 0 1
    outer loop
      vertex -4.46197 -5.39359 0
      vertex -3.7608 -4.54603 0
      vertex -4.30091 -4.03883 0
    endloop
  endfacet
  facet normal 0 0 1
    outer loop
      vertex -3.7608 -4.54603 0
      vertex -4.46197 -5.39359 0
      vertex -3.75079 -5.91029 0
    endloop
  endfacet
  facet normal 0 0 1
    outer loop
      vertex -5.10278 -4.79183 0
      vertex -4.30091 -4.03883 0
      vertex -4.7732 -3.46793 0
    endloop
  endfacet
  facet normal 0 0 1
    outer loop
      vertex -4.30091 -4.03883 0
      vertex -5.10278 -4.79183 0
      vertex -4.46197 -5.39359 0
    endloop
  endfacet
  facet normal 0 0 1
    outer loop
      vertex -5.66312 -4.1145 0
      vertex -4.7732 -3.46793 0
      vertex -5.17021 -2.84235 0
    endloop
  endfacet
  facet normal 0 0 1
    outer loop
      vertex -6.13415 -3.37228 0
      vertex -5.17021 -2.84235 0
      vertex -5.48568 -2.17193 0
    endloop
  endfacet
  facet normal 0 0 1
    outer loop
      vertex -4.7732 -3.46793 0
      vertex -5.66312 -4.1145 0
      vertex -5.10278 -4.79183 0
    endloop
  endfacet
  facet normal 0 0 1
    outer loop
      vertex -6.50844 -2.57687 0
      vertex -5.48568 -2.17193 0
      vertex -5.71464 -1.46727 0
    endloop
  endfacet
  facet normal 0 0 1
    outer loop
      vertex -6.78008 -1.74083 0
      vertex -5.71464 -1.46727 0
      vertex -5.85348 -0.739466 0
    endloop
  endfacet
  facet normal 0 0 1
    outer loop
      vertex -6.9448 -0.877332 0
      vertex -5.85348 -0.739466 0
      vertex -5.9 0 0
    endloop
  endfacet
  facet normal 0 0 1
    outer loop
      vertex -5.71464 1.46727 0
      vertex -6.78008 1.74083 0
      vertex -5.85348 0.739466 0
    endloop
  endfacet
  facet normal 0 0 1
    outer loop
      vertex -5.17021 -2.84235 0
      vertex -6.13415 -3.37228 0
      vertex -5.66312 -4.1145 0
    endloop
  endfacet
  facet normal -0 0 1
    outer loop
      vertex -6.9448 0.877332 0
      vertex -5.85348 0.739466 0
      vertex -6.78008 1.74083 0
    endloop
  endfacet
  facet normal 0 0 1
    outer loop
      vertex -5.48568 -2.17193 0
      vertex -6.50844 -2.57687 0
      vertex -6.13415 -3.37228 0
    endloop
  endfacet
  facet normal 0 0 1
    outer loop
      vertex -5.85348 0.739466 0
      vertex -6.9448 0.877332 0
      vertex -5.9 0 0
    endloop
  endfacet
  facet normal 0 0 1
    outer loop
      vertex -5.71464 -1.46727 0
      vertex -6.78008 -1.74083 0
      vertex -6.50844 -2.57687 0
    endloop
  endfacet
  facet normal 0 0 1
    outer loop
      vertex -7 0 0
      vertex -5.9 0 0
      vertex -6.9448 0.877332 0
    endloop
  endfacet
  facet normal 0 0 1
    outer loop
      vertex -5.85348 -0.739466 0
      vertex -6.9448 -0.877332 0
      vertex -6.78008 -1.74083 0
    endloop
  endfacet
  facet normal 0 0 1
    outer loop
      vertex -5.9 0 0
      vertex -7 0 0
      vertex -6.9448 -0.877332 0
    endloop
  endfacet
  facet normal -0.865146 -0.0544265 0.498559
    outer loop
      vertex 5.9 0 0
      vertex 5.85348 0.739466 0
      vertex 2.5 0 -5.9
    endloop
  endfacet
  facet normal -0.865146 -0.0544214 0.498558
    outer loop
      vertex 2.5 0 -5.9
      vertex 5.85348 0.739466 0
      vertex 2.48029 0.313333 -5.9
    endloop
  endfacet
  facet normal -0.824428 0.267875 0.498558
    outer loop
      vertex 5.48568 -2.17193 0
      vertex 5.71464 -1.46727 0
      vertex 2.32444 -0.920311 -5.9
    endloop
  endfacet
  facet normal 0.667924 -0.552555 0.498558
    outer loop
      vertex -1.82242 1.71137 -5.9
      vertex -4.30091 4.03883 0
      vertex -4.7732 3.46793 0
    endloop
  endfacet
  facet normal -0.784357 0.369084 0.498558
    outer loop
      vertex 5.17021 -2.84235 0
      vertex 5.48568 -2.17193 0
      vertex 2.32444 -0.920311 -5.9
    endloop
  endfacet
  facet normal -0.10865 0.86002 0.498558
    outer loop
      vertex 0.370463 -5.88836 0
      vertex 0.468452 -2.45572 -5.9
      vertex 0.156976 -2.49507 -5.9
    endloop
  endfacet
  facet normal 0 -0.866856 0.498558
    outer loop
      vertex -0.156976 2.49507 -5.9
      vertex 0.370463 5.88836 0
      vertex -0.370463 5.88836 0
    endloop
  endfacet
  facet normal 0 -0.866856 0.498558
    outer loop
      vertex 0.370463 5.88836 0
      vertex -0.156976 2.49507 -5.9
      vertex 0.156976 2.49507 -5.9
    endloop
  endfacet
  facet normal -0.824427 0.267881 0.498558
    outer loop
      vertex 5.71464 -1.46727 0
      vertex 2.42146 -0.621724 -5.9
      vertex 2.32444 -0.920311 -5.9
    endloop
  endfacet
  facet normal -0.593398 0.631916 0.498558
    outer loop
      vertex 4.30091 -4.03883 0
      vertex 1.82242 -1.71137 -5.9
      vertex 1.59356 -1.92628 -5.9
    endloop
  endfacet
  facet normal -0.108654 0.86002 0.498558
    outer loop
      vertex 1.10555 -5.79549 0
      vertex 0.468452 -2.45572 -5.9
      vertex 0.370463 -5.88836 0
    endloop
  endfacet
  facet normal -0.417616 0.759629 0.498558
    outer loop
      vertex 2.5121 -5.33848 0
      vertex 3.16138 -4.98153 0
      vertex 1.06445 -2.26207 -5.9
    endloop
  endfacet
  facet normal 0.215577 0.839623 0.498558
    outer loop
      vertex -1.10555 -5.79549 0
      vertex -0.468452 -2.45572 -5.9
      vertex -1.8232 -5.61123 0
    endloop
  endfacet
  facet normal 0.824428 0.267875 0.498558
    outer loop
      vertex -5.48568 -2.17193 0
      vertex -2.32444 -0.920311 -5.9
      vertex -5.71464 -1.46727 0
    endloop
  endfacet
  facet normal 0.851501 -0.162437 0.498558
    outer loop
      vertex -2.48029 0.313333 -5.9
      vertex -5.71464 1.46727 0
      vertex -5.85348 0.739466 0
    endloop
  endfacet
  facet normal 0.3191 -0.805987 0.498558
    outer loop
      vertex -1.06445 2.26207 -5.9
      vertex -0.772542 2.37764 -5.9
      vertex -2.5121 5.33848 0
    endloop
  endfacet
  facet normal -0.865146 0.0544265 0.498559
    outer loop
      vertex 5.85348 -0.739466 0
      vertex 5.9 0 0
      vertex 2.5 0 -5.9
    endloop
  endfacet
  facet normal -0.667924 0.552555 0.498558
    outer loop
      vertex 4.30091 -4.03883 0
      vertex 4.7732 -3.46793 0
      vertex 1.82242 -1.71137 -5.9
    endloop
  endfacet
  facet normal -0.731908 0.464489 0.498559
    outer loop
      vertex 4.7732 -3.46793 0
      vertex 5.17021 -2.84235 0
      vertex 2.19077 -1.20438 -5.9
    endloop
  endfacet
  facet normal -0.865146 0.0544214 0.498558
    outer loop
      vertex 5.85348 -0.739466 0
      vertex 2.5 0 -5.9
      vertex 2.48029 -0.313333 -5.9
    endloop
  endfacet
  facet normal -0.851501 0.162437 0.498558
    outer loop
      vertex 5.71464 -1.46727 0
      vertex 5.85348 -0.739466 0
      vertex 2.48029 -0.313333 -5.9
    endloop
  endfacet
  facet normal -0.215577 0.839623 0.498558
    outer loop
      vertex 1.10555 -5.79549 0
      vertex 1.8232 -5.61123 0
      vertex 0.468452 -2.45572 -5.9
    endloop
  endfacet
  facet normal -0.3191 0.805987 0.498558
    outer loop
      vertex 2.5121 -5.33848 0
      vertex 1.06445 -2.26207 -5.9
      vertex 0.772542 -2.37764 -5.9
    endloop
  endfacet
  facet normal -0.319106 0.805984 0.498558
    outer loop
      vertex 1.8232 -5.61123 0
      vertex 2.5121 -5.33848 0
      vertex 0.772542 -2.37764 -5.9
    endloop
  endfacet
  facet normal -0.509522 0.701303 0.498559
    outer loop
      vertex 3.16138 -4.98153 0
      vertex 3.7608 -4.54603 0
      vertex 1.59356 -1.92628 -5.9
    endloop
  endfacet
  facet normal 0.851501 0.162437 0.498558
    outer loop
      vertex -5.71464 -1.46727 0
      vertex -2.48029 -0.313333 -5.9
      vertex -5.85348 -0.739466 0
    endloop
  endfacet
  facet normal 0.667924 0.552555 0.498558
    outer loop
      vertex -4.30091 -4.03883 0
      vertex -1.82242 -1.71137 -5.9
      vertex -4.7732 -3.46793 0
    endloop
  endfacet
  facet normal 0.215586 0.83962 0.498558
    outer loop
      vertex -0.468452 -2.45572 -5.9
      vertex -0.772542 -2.37764 -5.9
      vertex -1.8232 -5.61123 0
    endloop
  endfacet
  facet normal 0.3191 0.805987 0.498558
    outer loop
      vertex -0.772542 -2.37764 -5.9
      vertex -1.06445 -2.26207 -5.9
      vertex -2.5121 -5.33848 0
    endloop
  endfacet
  facet normal 0 0.866856 0.498558
    outer loop
      vertex 0.156976 -2.49507 -5.9
      vertex -0.370463 -5.88836 0
      vertex 0.370463 -5.88836 0
    endloop
  endfacet
  facet normal 0 0.866856 0.498558
    outer loop
      vertex -0.370463 -5.88836 0
      vertex 0.156976 -2.49507 -5.9
      vertex -0.156976 -2.49507 -5.9
    endloop
  endfacet
  facet normal 0.509522 0.701303 0.498559
    outer loop
      vertex -3.16138 -4.98153 0
      vertex -1.59356 -1.92628 -5.9
      vertex -3.7608 -4.54603 0
    endloop
  endfacet
  facet normal -0.319106 -0.805984 0.498558
    outer loop
      vertex 2.5121 5.33848 0
      vertex 1.8232 5.61123 0
      vertex 0.772542 2.37764 -5.9
    endloop
  endfacet
  facet normal 0.851501 -0.162436 0.498558
    outer loop
      vertex -2.48029 0.313333 -5.9
      vertex -2.42146 0.621724 -5.9
      vertex -5.71464 1.46727 0
    endloop
  endfacet
  facet normal 0.865146 -0.0544214 0.498558
    outer loop
      vertex -2.5 0 -5.9
      vertex -2.48029 0.313333 -5.9
      vertex -5.85348 0.739466 0
    endloop
  endfacet
  facet normal 0.593398 -0.631916 0.498558
    outer loop
      vertex -1.82242 1.71137 -5.9
      vertex -1.59356 1.92628 -5.9
      vertex -4.30091 4.03883 0
    endloop
  endfacet
  facet normal 0.417616 -0.759629 0.498558
    outer loop
      vertex -1.06445 2.26207 -5.9
      vertex -2.5121 5.33848 0
      vertex -3.16138 4.98153 0
    endloop
  endfacet
  facet normal 0.319106 -0.805984 0.498558
    outer loop
      vertex -0.772542 2.37764 -5.9
      vertex -1.8232 5.61123 0
      vertex -2.5121 5.33848 0
    endloop
  endfacet
  facet normal -0.667931 0.552546 0.498559
    outer loop
      vertex 4.7732 -3.46793 0
      vertex 2.02254 -1.46946 -5.9
      vertex 1.82242 -1.71137 -5.9
    endloop
  endfacet
  facet normal -0.731904 0.464495 0.498559
    outer loop
      vertex 4.7732 -3.46793 0
      vertex 2.19077 -1.20438 -5.9
      vertex 2.02254 -1.46946 -5.9
    endloop
  endfacet
  facet normal -0.851501 0.162436 0.498558
    outer loop
      vertex 5.71464 -1.46727 0
      vertex 2.48029 -0.313333 -5.9
      vertex 2.42146 -0.621724 -5.9
    endloop
  endfacet
  facet normal -0.215586 0.83962 0.498558
    outer loop
      vertex 1.8232 -5.61123 0
      vertex 0.772542 -2.37764 -5.9
      vertex 0.468452 -2.45572 -5.9
    endloop
  endfacet
  facet normal -0.593406 0.631909 0.498559
    outer loop
      vertex 3.7608 -4.54603 0
      vertex 4.30091 -4.03883 0
      vertex 1.59356 -1.92628 -5.9
    endloop
  endfacet
  facet normal -0.509535 0.701295 0.498558
    outer loop
      vertex 3.16138 -4.98153 0
      vertex 1.59356 -1.92628 -5.9
      vertex 1.33957 -2.11082 -5.9
    endloop
  endfacet
  facet normal -0.417614 0.75963 0.498558
    outer loop
      vertex 3.16138 -4.98153 0
      vertex 1.33957 -2.11082 -5.9
      vertex 1.06445 -2.26207 -5.9
    endloop
  endfacet
  facet normal 0.851501 0.162436 0.498558
    outer loop
      vertex -2.42146 -0.621724 -5.9
      vertex -2.48029 -0.313333 -5.9
      vertex -5.71464 -1.46727 0
    endloop
  endfacet
  facet normal 0.824427 0.267881 0.498558
    outer loop
      vertex -2.32444 -0.920311 -5.9
      vertex -2.42146 -0.621724 -5.9
      vertex -5.71464 -1.46727 0
    endloop
  endfacet
  facet normal 0.593406 0.631909 0.498559
    outer loop
      vertex -3.7608 -4.54603 0
      vertex -1.59356 -1.92628 -5.9
      vertex -4.30091 -4.03883 0
    endloop
  endfacet
  facet normal 0.319106 0.805984 0.498558
    outer loop
      vertex -1.8232 -5.61123 0
      vertex -0.772542 -2.37764 -5.9
      vertex -2.5121 -5.33848 0
    endloop
  endfacet
  facet normal 0.417614 0.75963 0.498558
    outer loop
      vertex -1.06445 -2.26207 -5.9
      vertex -1.33957 -2.11082 -5.9
      vertex -3.16138 -4.98153 0
    endloop
  endfacet
  facet normal -0.851501 -0.162437 0.498558
    outer loop
      vertex 5.85348 0.739466 0
      vertex 5.71464 1.46727 0
      vertex 2.48029 0.313333 -5.9
    endloop
  endfacet
  facet normal -0.851501 -0.162436 0.498558
    outer loop
      vertex 2.48029 0.313333 -5.9
      vertex 5.71464 1.46727 0
      vertex 2.42146 0.621724 -5.9
    endloop
  endfacet
  facet normal -0.108654 -0.86002 0.498558
    outer loop
      vertex 0.468452 2.45572 -5.9
      vertex 1.10555 5.79549 0
      vertex 0.370463 5.88836 0
    endloop
  endfacet
  facet normal -0.509522 -0.701303 0.498559
    outer loop
      vertex 3.7608 4.54603 0
      vertex 3.16138 4.98153 0
      vertex 1.59356 1.92628 -5.9
    endloop
  endfacet
  facet normal -0.593406 -0.631909 0.498559
    outer loop
      vertex 4.30091 4.03883 0
      vertex 3.7608 4.54603 0
      vertex 1.59356 1.92628 -5.9
    endloop
  endfacet
  facet normal 0.667931 -0.552546 0.498559
    outer loop
      vertex -2.02254 1.46946 -5.9
      vertex -1.82242 1.71137 -5.9
      vertex -4.7732 3.46793 0
    endloop
  endfacet
  facet normal 0.784357 -0.369084 0.498558
    outer loop
      vertex -2.32444 0.920311 -5.9
      vertex -5.17021 2.84235 0
      vertex -5.48568 2.17193 0
    endloop
  endfacet
  facet normal 0.865146 0.0544214 0.498558
    outer loop
      vertex -2.48029 -0.313333 -5.9
      vertex -2.5 0 -5.9
      vertex -5.85348 -0.739466 0
    endloop
  endfacet
  facet normal 0.509522 -0.701303 0.498559
    outer loop
      vertex -1.59356 1.92628 -5.9
      vertex -3.16138 4.98153 0
      vertex -3.7608 4.54603 0
    endloop
  endfacet
  facet normal 0.215577 -0.839623 0.498558
    outer loop
      vertex -0.468452 2.45572 -5.9
      vertex -1.10555 5.79549 0
      vertex -1.8232 5.61123 0
    endloop
  endfacet
  facet normal 0.108654 -0.86002 0.498558
    outer loop
      vertex -0.468452 2.45572 -5.9
      vertex -0.370463 5.88836 0
      vertex -1.10555 5.79549 0
    endloop
  endfacet
  facet normal 0.10865 -0.86002 0.498558
    outer loop
      vertex -0.156976 2.49507 -5.9
      vertex -0.370463 5.88836 0
      vertex -0.468452 2.45572 -5.9
    endloop
  endfacet
  facet normal -0.784358 0.369083 0.498558
    outer loop
      vertex 5.17021 -2.84235 0
      vertex 2.32444 -0.920311 -5.9
      vertex 2.19077 -1.20438 -5.9
    endloop
  endfacet
  facet normal 0.784358 0.369083 0.498558
    outer loop
      vertex -2.19077 -1.20438 -5.9
      vertex -2.32444 -0.920311 -5.9
      vertex -5.17021 -2.84235 0
    endloop
  endfacet
  facet normal 0.784357 0.369084 0.498558
    outer loop
      vertex -5.17021 -2.84235 0
      vertex -2.32444 -0.920311 -5.9
      vertex -5.48568 -2.17193 0
    endloop
  endfacet
  facet normal 0.731908 0.464489 0.498559
    outer loop
      vertex -4.7732 -3.46793 0
      vertex -2.19077 -1.20438 -5.9
      vertex -5.17021 -2.84235 0
    endloop
  endfacet
  facet normal 0.731904 0.464495 0.498559
    outer loop
      vertex -2.02254 -1.46946 -5.9
      vertex -2.19077 -1.20438 -5.9
      vertex -4.7732 -3.46793 0
    endloop
  endfacet
  facet normal 0.593398 0.631916 0.498558
    outer loop
      vertex -1.59356 -1.92628 -5.9
      vertex -1.82242 -1.71137 -5.9
      vertex -4.30091 -4.03883 0
    endloop
  endfacet
  facet normal 0.108654 0.86002 0.498558
    outer loop
      vertex -0.370463 -5.88836 0
      vertex -0.468452 -2.45572 -5.9
      vertex -1.10555 -5.79549 0
    endloop
  endfacet
  facet normal 0.417616 0.759629 0.498558
    outer loop
      vertex -2.5121 -5.33848 0
      vertex -1.06445 -2.26207 -5.9
      vertex -3.16138 -4.98153 0
    endloop
  endfacet
  facet normal 0.509535 0.701295 0.498558
    outer loop
      vertex -1.33957 -2.11082 -5.9
      vertex -1.59356 -1.92628 -5.9
      vertex -3.16138 -4.98153 0
    endloop
  endfacet
  facet normal -0.824428 -0.267875 0.498558
    outer loop
      vertex 5.71464 1.46727 0
      vertex 5.48568 2.17193 0
      vertex 2.32444 0.920311 -5.9
    endloop
  endfacet
  facet normal -0.215577 -0.839623 0.498558
    outer loop
      vertex 1.8232 5.61123 0
      vertex 1.10555 5.79549 0
      vertex 0.468452 2.45572 -5.9
    endloop
  endfacet
  facet normal -0.215586 -0.83962 0.498558
    outer loop
      vertex 0.772542 2.37764 -5.9
      vertex 1.8232 5.61123 0
      vertex 0.468452 2.45572 -5.9
    endloop
  endfacet
  facet normal -0.3191 -0.805987 0.498558
    outer loop
      vertex 1.06445 2.26207 -5.9
      vertex 2.5121 5.33848 0
      vertex 0.772542 2.37764 -5.9
    endloop
  endfacet
  facet normal -0.417616 -0.759629 0.498558
    outer loop
      vertex 3.16138 4.98153 0
      vertex 2.5121 5.33848 0
      vertex 1.06445 2.26207 -5.9
    endloop
  endfacet
  facet normal 0.784358 -0.369083 0.498558
    outer loop
      vertex -2.32444 0.920311 -5.9
      vertex -2.19077 1.20438 -5.9
      vertex -5.17021 2.84235 0
    endloop
  endfacet
  facet normal 0.731908 -0.464489 0.498559
    outer loop
      vertex -2.19077 1.20438 -5.9
      vertex -4.7732 3.46793 0
      vertex -5.17021 2.84235 0
    endloop
  endfacet
  facet normal 0.865146 0.0544265 0.498559
    outer loop
      vertex -5.85348 -0.739466 0
      vertex -2.5 0 -5.9
      vertex -5.9 0 0
    endloop
  endfacet
  facet normal 0.865146 -0.0544265 0.498559
    outer loop
      vertex -2.5 0 -5.9
      vertex -5.85348 0.739466 0
      vertex -5.9 0 0
    endloop
  endfacet
  facet normal 0.593406 -0.631909 0.498559
    outer loop
      vertex -1.59356 1.92628 -5.9
      vertex -3.7608 4.54603 0
      vertex -4.30091 4.03883 0
    endloop
  endfacet
  facet normal 0.509535 -0.701295 0.498558
    outer loop
      vertex -1.59356 1.92628 -5.9
      vertex -1.33957 2.11082 -5.9
      vertex -3.16138 4.98153 0
    endloop
  endfacet
  facet normal 0.417614 -0.75963 0.498558
    outer loop
      vertex -1.33957 2.11082 -5.9
      vertex -1.06445 2.26207 -5.9
      vertex -3.16138 4.98153 0
    endloop
  endfacet
  facet normal 0.215586 -0.83962 0.498558
    outer loop
      vertex -0.772542 2.37764 -5.9
      vertex -0.468452 2.45572 -5.9
      vertex -1.8232 5.61123 0
    endloop
  endfacet
  facet normal 0.667931 0.552546 0.498559
    outer loop
      vertex -1.82242 -1.71137 -5.9
      vertex -2.02254 -1.46946 -5.9
      vertex -4.7732 -3.46793 0
    endloop
  endfacet
  facet normal 0.10865 0.86002 0.498558
    outer loop
      vertex -0.370463 -5.88836 0
      vertex -0.156976 -2.49507 -5.9
      vertex -0.468452 -2.45572 -5.9
    endloop
  endfacet
  facet normal -0.824427 -0.267881 0.498558
    outer loop
      vertex 2.42146 0.621724 -5.9
      vertex 5.71464 1.46727 0
      vertex 2.32444 0.920311 -5.9
    endloop
  endfacet
  facet normal -0.667924 -0.552555 0.498558
    outer loop
      vertex 4.7732 3.46793 0
      vertex 4.30091 4.03883 0
      vertex 1.82242 1.71137 -5.9
    endloop
  endfacet
  facet normal -0.784357 -0.369084 0.498558
    outer loop
      vertex 5.48568 2.17193 0
      vertex 5.17021 2.84235 0
      vertex 2.32444 0.920311 -5.9
    endloop
  endfacet
  facet normal -0.10865 -0.86002 0.498558
    outer loop
      vertex 0.468452 2.45572 -5.9
      vertex 0.370463 5.88836 0
      vertex 0.156976 2.49507 -5.9
    endloop
  endfacet
  facet normal -0.509535 -0.701295 0.498558
    outer loop
      vertex 1.59356 1.92628 -5.9
      vertex 3.16138 4.98153 0
      vertex 1.33957 2.11082 -5.9
    endloop
  endfacet
  facet normal 0.731904 -0.464495 0.498559
    outer loop
      vertex -2.19077 1.20438 -5.9
      vertex -2.02254 1.46946 -5.9
      vertex -4.7732 3.46793 0
    endloop
  endfacet
  facet normal 0.824427 -0.267881 0.498558
    outer loop
      vertex -2.42146 0.621724 -5.9
      vertex -2.32444 0.920311 -5.9
      vertex -5.71464 1.46727 0
    endloop
  endfacet
  facet normal 0.824428 -0.267875 0.498558
    outer loop
      vertex -2.32444 0.920311 -5.9
      vertex -5.48568 2.17193 0
      vertex -5.71464 1.46727 0
    endloop
  endfacet
  facet normal -0.731904 -0.464495 0.498559
    outer loop
      vertex 2.19077 1.20438 -5.9
      vertex 4.7732 3.46793 0
      vertex 2.02254 1.46946 -5.9
    endloop
  endfacet
  facet normal -0.667931 -0.552546 0.498559
    outer loop
      vertex 2.02254 1.46946 -5.9
      vertex 4.7732 3.46793 0
      vertex 1.82242 1.71137 -5.9
    endloop
  endfacet
  facet normal -0.731908 -0.464489 0.498559
    outer loop
      vertex 5.17021 2.84235 0
      vertex 4.7732 3.46793 0
      vertex 2.19077 1.20438 -5.9
    endloop
  endfacet
  facet normal -0.784358 -0.369083 0.498558
    outer loop
      vertex 2.32444 0.920311 -5.9
      vertex 5.17021 2.84235 0
      vertex 2.19077 1.20438 -5.9
    endloop
  endfacet
  facet normal -0.593398 -0.631916 0.498558
    outer loop
      vertex 1.82242 1.71137 -5.9
      vertex 4.30091 4.03883 0
      vertex 1.59356 1.92628 -5.9
    endloop
  endfacet
  facet normal -0.417614 -0.75963 0.498558
    outer loop
      vertex 1.33957 2.11082 -5.9
      vertex 3.16138 4.98153 0
      vertex 1.06445 2.26207 -5.9
    endloop
  endfacet
  facet normal -0.998027 -0.0627802 0
    outer loop
      vertex 2.5 0 -7
      vertex 2.48029 0.313333 -5.9
      vertex 2.48029 0.313333 -7
    endloop
  endfacet
  facet normal -0.998027 -0.0627802 0
    outer loop
      vertex 2.48029 0.313333 -5.9
      vertex 2.5 0 -7
      vertex 2.5 0 -5.9
    endloop
  endfacet
  facet normal 0.998027 -0.0627802 0
    outer loop
      vertex -2.5 0 -5.9
      vertex -2.48029 0.313333 -7
      vertex -2.48029 0.313333 -5.9
    endloop
  endfacet
  facet normal 0.998027 -0.0627802 0
    outer loop
      vertex -2.48029 0.313333 -7
      vertex -2.5 0 -5.9
      vertex -2.5 0 -7
    endloop
  endfacet
  facet normal 0 -1 0
    outer loop
      vertex -0.156976 2.49507 -7
      vertex 0.156976 2.49507 -5.9
      vertex -0.156976 2.49507 -5.9
    endloop
  endfacet
  facet normal 0 -1 -0
    outer loop
      vertex 0.156976 2.49507 -5.9
      vertex -0.156976 2.49507 -7
      vertex 0.156976 2.49507 -7
    endloop
  endfacet
  facet normal 0 1 -0
    outer loop
      vertex 0.156976 -2.49507 -7
      vertex -0.156976 -2.49507 -5.9
      vertex 0.156976 -2.49507 -5.9
    endloop
  endfacet
  facet normal 0 1 0
    outer loop
      vertex -0.156976 -2.49507 -5.9
      vertex 0.156976 -2.49507 -7
      vertex -0.156976 -2.49507 -7
    endloop
  endfacet
  facet normal -0.684541 0.728975 0
    outer loop
      vertex 1.82242 -1.71137 -7
      vertex 1.59356 -1.92628 -5.9
      vertex 1.82242 -1.71137 -5.9
    endloop
  endfacet
  facet normal -0.684541 0.728975 0
    outer loop
      vertex 1.59356 -1.92628 -5.9
      vertex 1.82242 -1.71137 -7
      vertex 1.59356 -1.92628 -7
    endloop
  endfacet
  facet normal -0.684541 -0.728975 0
    outer loop
      vertex 1.59356 1.92628 -7
      vertex 1.82242 1.71137 -5.9
      vertex 1.59356 1.92628 -5.9
    endloop
  endfacet
  facet normal -0.684541 -0.728975 -0
    outer loop
      vertex 1.82242 1.71137 -5.9
      vertex 1.59356 1.92628 -7
      vertex 1.82242 1.71137 -7
    endloop
  endfacet
  facet normal 0.684541 -0.728975 0
    outer loop
      vertex -1.82242 1.71137 -7
      vertex -1.59356 1.92628 -5.9
      vertex -1.82242 1.71137 -5.9
    endloop
  endfacet
  facet normal 0.684541 -0.728975 0
    outer loop
      vertex -1.59356 1.92628 -5.9
      vertex -1.82242 1.71137 -7
      vertex -1.59356 1.92628 -7
    endloop
  endfacet
  facet normal 0.368112 -0.929781 0
    outer loop
      vertex -1.06445 2.26207 -7
      vertex -0.772542 2.37764 -5.9
      vertex -1.06445 2.26207 -5.9
    endloop
  endfacet
  facet normal 0.368112 -0.929781 0
    outer loop
      vertex -0.772542 2.37764 -5.9
      vertex -1.06445 2.26207 -7
      vertex -0.772542 2.37764 -7
    endloop
  endfacet
  facet normal -0.90483 -0.425772 0
    outer loop
      vertex 2.32444 0.920311 -7
      vertex 2.19077 1.20438 -5.9
      vertex 2.19077 1.20438 -7
    endloop
  endfacet
  facet normal -0.90483 -0.425772 0
    outer loop
      vertex 2.19077 1.20438 -5.9
      vertex 2.32444 0.920311 -7
      vertex 2.32444 0.920311 -5.9
    endloop
  endfacet
  facet normal -0.368112 -0.929781 0
    outer loop
      vertex 0.772542 2.37764 -7
      vertex 1.06445 2.26207 -5.9
      vertex 0.772542 2.37764 -5.9
    endloop
  endfacet
  facet normal -0.368112 -0.929781 -0
    outer loop
      vertex 1.06445 2.26207 -5.9
      vertex 0.772542 2.37764 -7
      vertex 1.06445 2.26207 -7
    endloop
  endfacet
  facet normal -0.248699 -0.968581 0
    outer loop
      vertex 0.468452 2.45572 -7
      vertex 0.772542 2.37764 -5.9
      vertex 0.468452 2.45572 -5.9
    endloop
  endfacet
  facet normal -0.248699 -0.968581 -0
    outer loop
      vertex 0.772542 2.37764 -5.9
      vertex 0.468452 2.45572 -7
      vertex 0.772542 2.37764 -7
    endloop
  endfacet
  facet normal -0.481757 -0.876305 0
    outer loop
      vertex 1.06445 2.26207 -7
      vertex 1.33957 2.11082 -5.9
      vertex 1.06445 2.26207 -5.9
    endloop
  endfacet
  facet normal -0.481757 -0.876305 -0
    outer loop
      vertex 1.33957 2.11082 -5.9
      vertex 1.06445 2.26207 -7
      vertex 1.33957 2.11082 -7
    endloop
  endfacet
  facet normal 0.90483 -0.425772 0
    outer loop
      vertex -2.32444 0.920311 -5.9
      vertex -2.19077 1.20438 -7
      vertex -2.19077 1.20438 -5.9
    endloop
  endfacet
  facet normal 0.90483 -0.425772 0
    outer loop
      vertex -2.19077 1.20438 -7
      vertex -2.32444 0.920311 -5.9
      vertex -2.32444 0.920311 -7
    endloop
  endfacet
  facet normal 0.844321 -0.535838 0
    outer loop
      vertex -2.19077 1.20438 -5.9
      vertex -2.02254 1.46946 -7
      vertex -2.02254 1.46946 -5.9
    endloop
  endfacet
  facet normal 0.844321 -0.535838 0
    outer loop
      vertex -2.02254 1.46946 -7
      vertex -2.19077 1.20438 -5.9
      vertex -2.19077 1.20438 -7
    endloop
  endfacet
  facet normal 0.587797 -0.809009 0
    outer loop
      vertex -1.59356 1.92628 -7
      vertex -1.33957 2.11082 -5.9
      vertex -1.59356 1.92628 -5.9
    endloop
  endfacet
  facet normal 0.587797 -0.809009 0
    outer loop
      vertex -1.33957 2.11082 -5.9
      vertex -1.59356 1.92628 -7
      vertex -1.33957 2.11082 -7
    endloop
  endfacet
  facet normal 0.125338 -0.992114 0
    outer loop
      vertex -0.468452 2.45572 -7
      vertex -0.156976 2.49507 -5.9
      vertex -0.468452 2.45572 -5.9
    endloop
  endfacet
  facet normal 0.125338 -0.992114 0
    outer loop
      vertex -0.156976 2.49507 -5.9
      vertex -0.468452 2.45572 -7
      vertex -0.156976 2.49507 -7
    endloop
  endfacet
  facet normal -0.125338 0.992114 0
    outer loop
      vertex 0.468452 -2.45572 -7
      vertex 0.156976 -2.49507 -5.9
      vertex 0.468452 -2.45572 -5.9
    endloop
  endfacet
  facet normal -0.125338 0.992114 0
    outer loop
      vertex 0.156976 -2.49507 -5.9
      vertex 0.468452 -2.45572 -7
      vertex 0.156976 -2.49507 -7
    endloop
  endfacet
  facet normal -0.951054 -0.309026 0
    outer loop
      vertex 2.42146 0.621724 -7
      vertex 2.32444 0.920311 -5.9
      vertex 2.32444 0.920311 -7
    endloop
  endfacet
  facet normal -0.951054 -0.309026 0
    outer loop
      vertex 2.32444 0.920311 -5.9
      vertex 2.42146 0.621724 -7
      vertex 2.42146 0.621724 -5.9
    endloop
  endfacet
  facet normal -0.982287 -0.187385 0
    outer loop
      vertex 2.48029 0.313333 -7
      vertex 2.42146 0.621724 -5.9
      vertex 2.42146 0.621724 -7
    endloop
  endfacet
  facet normal -0.982287 -0.187385 0
    outer loop
      vertex 2.42146 0.621724 -5.9
      vertex 2.48029 0.313333 -7
      vertex 2.48029 0.313333 -5.9
    endloop
  endfacet
  facet normal -0.770522 -0.637414 0
    outer loop
      vertex 2.02254 1.46946 -7
      vertex 1.82242 1.71137 -5.9
      vertex 1.82242 1.71137 -7
    endloop
  endfacet
  facet normal -0.770522 -0.637414 0
    outer loop
      vertex 1.82242 1.71137 -5.9
      vertex 2.02254 1.46946 -7
      vertex 2.02254 1.46946 -5.9
    endloop
  endfacet
  facet normal -0.844321 -0.535838 0
    outer loop
      vertex 2.19077 1.20438 -7
      vertex 2.02254 1.46946 -5.9
      vertex 2.02254 1.46946 -7
    endloop
  endfacet
  facet normal -0.844321 -0.535838 0
    outer loop
      vertex 2.02254 1.46946 -5.9
      vertex 2.19077 1.20438 -7
      vertex 2.19077 1.20438 -5.9
    endloop
  endfacet
  facet normal -0.125338 -0.992114 0
    outer loop
      vertex 0.156976 2.49507 -7
      vertex 0.468452 2.45572 -5.9
      vertex 0.156976 2.49507 -5.9
    endloop
  endfacet
  facet normal -0.125338 -0.992114 -0
    outer loop
      vertex 0.468452 2.45572 -5.9
      vertex 0.156976 2.49507 -7
      vertex 0.468452 2.45572 -7
    endloop
  endfacet
  facet normal -0.587797 -0.809009 0
    outer loop
      vertex 1.33957 2.11082 -7
      vertex 1.59356 1.92628 -5.9
      vertex 1.33957 2.11082 -5.9
    endloop
  endfacet
  facet normal -0.587797 -0.809009 -0
    outer loop
      vertex 1.59356 1.92628 -5.9
      vertex 1.33957 2.11082 -7
      vertex 1.59356 1.92628 -7
    endloop
  endfacet
  facet normal 0.770522 -0.637414 0
    outer loop
      vertex -2.02254 1.46946 -5.9
      vertex -1.82242 1.71137 -7
      vertex -1.82242 1.71137 -5.9
    endloop
  endfacet
  facet normal 0.770522 -0.637414 0
    outer loop
      vertex -1.82242 1.71137 -7
      vertex -2.02254 1.46946 -5.9
      vertex -2.02254 1.46946 -7
    endloop
  endfacet
  facet normal 0.951054 -0.309026 0
    outer loop
      vertex -2.42146 0.621724 -5.9
      vertex -2.32444 0.920311 -7
      vertex -2.32444 0.920311 -5.9
    endloop
  endfacet
  facet normal 0.951054 -0.309026 0
    outer loop
      vertex -2.32444 0.920311 -7
      vertex -2.42146 0.621724 -5.9
      vertex -2.42146 0.621724 -7
    endloop
  endfacet
  facet normal 0.982287 -0.187385 0
    outer loop
      vertex -2.48029 0.313333 -5.9
      vertex -2.42146 0.621724 -7
      vertex -2.42146 0.621724 -5.9
    endloop
  endfacet
  facet normal 0.982287 -0.187385 0
    outer loop
      vertex -2.42146 0.621724 -7
      vertex -2.48029 0.313333 -5.9
      vertex -2.48029 0.313333 -7
    endloop
  endfacet
  facet normal 0.481757 -0.876305 0
    outer loop
      vertex -1.33957 2.11082 -7
      vertex -1.06445 2.26207 -5.9
      vertex -1.33957 2.11082 -5.9
    endloop
  endfacet
  facet normal 0.481757 -0.876305 0
    outer loop
      vertex -1.06445 2.26207 -5.9
      vertex -1.33957 2.11082 -7
      vertex -1.06445 2.26207 -7
    endloop
  endfacet
  facet normal -0.998027 0.0627802 0
    outer loop
      vertex 2.48029 -0.313333 -7
      vertex 2.5 0 -5.9
      vertex 2.5 0 -7
    endloop
  endfacet
  facet normal -0.998027 0.0627802 0
    outer loop
      vertex 2.5 0 -5.9
      vertex 2.48029 -0.313333 -7
      vertex 2.48029 -0.313333 -5.9
    endloop
  endfacet
  facet normal -0.90483 0.425772 0
    outer loop
      vertex 2.19077 -1.20438 -7
      vertex 2.32444 -0.920311 -5.9
      vertex 2.32444 -0.920311 -7
    endloop
  endfacet
  facet normal -0.90483 0.425772 0
    outer loop
      vertex 2.32444 -0.920311 -5.9
      vertex 2.19077 -1.20438 -7
      vertex 2.19077 -1.20438 -5.9
    endloop
  endfacet
  facet normal 0.368112 0.929781 -0
    outer loop
      vertex -0.772542 -2.37764 -7
      vertex -1.06445 -2.26207 -5.9
      vertex -0.772542 -2.37764 -5.9
    endloop
  endfacet
  facet normal 0.368112 0.929781 0
    outer loop
      vertex -1.06445 -2.26207 -5.9
      vertex -0.772542 -2.37764 -7
      vertex -1.06445 -2.26207 -7
    endloop
  endfacet
  facet normal 0.844321 0.535838 0
    outer loop
      vertex -2.02254 -1.46946 -5.9
      vertex -2.19077 -1.20438 -7
      vertex -2.19077 -1.20438 -5.9
    endloop
  endfacet
  facet normal 0.844321 0.535838 0
    outer loop
      vertex -2.19077 -1.20438 -7
      vertex -2.02254 -1.46946 -5.9
      vertex -2.02254 -1.46946 -7
    endloop
  endfacet
  facet normal 0.90483 0.425772 0
    outer loop
      vertex -2.19077 -1.20438 -5.9
      vertex -2.32444 -0.920311 -7
      vertex -2.32444 -0.920311 -5.9
    endloop
  endfacet
  facet normal 0.90483 0.425772 0
    outer loop
      vertex -2.32444 -0.920311 -7
      vertex -2.19077 -1.20438 -5.9
      vertex -2.19077 -1.20438 -7
    endloop
  endfacet
  facet normal -0.587797 0.809009 0
    outer loop
      vertex 1.59356 -1.92628 -7
      vertex 1.33957 -2.11082 -5.9
      vertex 1.59356 -1.92628 -5.9
    endloop
  endfacet
  facet normal -0.587797 0.809009 0
    outer loop
      vertex 1.33957 -2.11082 -5.9
      vertex 1.59356 -1.92628 -7
      vertex 1.33957 -2.11082 -7
    endloop
  endfacet
  facet normal -0.368112 0.929781 0
    outer loop
      vertex 1.06445 -2.26207 -7
      vertex 0.772542 -2.37764 -5.9
      vertex 1.06445 -2.26207 -5.9
    endloop
  endfacet
  facet normal -0.368112 0.929781 0
    outer loop
      vertex 0.772542 -2.37764 -5.9
      vertex 1.06445 -2.26207 -7
      vertex 0.772542 -2.37764 -7
    endloop
  endfacet
  facet normal 0.248699 -0.968581 0
    outer loop
      vertex -0.772542 2.37764 -7
      vertex -0.468452 2.45572 -5.9
      vertex -0.772542 2.37764 -5.9
    endloop
  endfacet
  facet normal 0.248699 -0.968581 0
    outer loop
      vertex -0.468452 2.45572 -5.9
      vertex -0.772542 2.37764 -7
      vertex -0.468452 2.45572 -7
    endloop
  endfacet
  facet normal -0.951054 0.309026 0
    outer loop
      vertex 2.32444 -0.920311 -7
      vertex 2.42146 -0.621724 -5.9
      vertex 2.42146 -0.621724 -7
    endloop
  endfacet
  facet normal -0.951054 0.309026 0
    outer loop
      vertex 2.42146 -0.621724 -5.9
      vertex 2.32444 -0.920311 -7
      vertex 2.32444 -0.920311 -5.9
    endloop
  endfacet
  facet normal -0.982287 0.187385 0
    outer loop
      vertex 2.42146 -0.621724 -7
      vertex 2.48029 -0.313333 -5.9
      vertex 2.48029 -0.313333 -7
    endloop
  endfacet
  facet normal -0.982287 0.187385 0
    outer loop
      vertex 2.48029 -0.313333 -5.9
      vertex 2.42146 -0.621724 -7
      vertex 2.42146 -0.621724 -5.9
    endloop
  endfacet
  facet normal 0.998027 0.0627802 0
    outer loop
      vertex -2.48029 -0.313333 -5.9
      vertex -2.5 0 -7
      vertex -2.5 0 -5.9
    endloop
  endfacet
  facet normal 0.998027 0.0627802 0
    outer loop
      vertex -2.5 0 -7
      vertex -2.48029 -0.313333 -5.9
      vertex -2.48029 -0.313333 -7
    endloop
  endfacet
  facet normal 0.982287 0.187385 0
    outer loop
      vertex -2.42146 -0.621724 -5.9
      vertex -2.48029 -0.313333 -7
      vertex -2.48029 -0.313333 -5.9
    endloop
  endfacet
  facet normal 0.982287 0.187385 0
    outer loop
      vertex -2.48029 -0.313333 -7
      vertex -2.42146 -0.621724 -5.9
      vertex -2.42146 -0.621724 -7
    endloop
  endfacet
  facet normal 0.951054 0.309026 0
    outer loop
      vertex -2.32444 -0.920311 -5.9
      vertex -2.42146 -0.621724 -7
      vertex -2.42146 -0.621724 -5.9
    endloop
  endfacet
  facet normal 0.951054 0.309026 0
    outer loop
      vertex -2.42146 -0.621724 -7
      vertex -2.32444 -0.920311 -5.9
      vertex -2.32444 -0.920311 -7
    endloop
  endfacet
  facet normal -0.481757 0.876305 0
    outer loop
      vertex 1.33957 -2.11082 -7
      vertex 1.06445 -2.26207 -5.9
      vertex 1.33957 -2.11082 -5.9
    endloop
  endfacet
  facet normal -0.481757 0.876305 0
    outer loop
      vertex 1.06445 -2.26207 -5.9
      vertex 1.33957 -2.11082 -7
      vertex 1.06445 -2.26207 -7
    endloop
  endfacet
  facet normal -0.248699 0.968581 0
    outer loop
      vertex 0.772542 -2.37764 -7
      vertex 0.468452 -2.45572 -5.9
      vertex 0.772542 -2.37764 -5.9
    endloop
  endfacet
  facet normal -0.248699 0.968581 0
    outer loop
      vertex 0.468452 -2.45572 -5.9
      vertex 0.772542 -2.37764 -7
      vertex 0.468452 -2.45572 -7
    endloop
  endfacet
  facet normal -0.844321 0.535838 0
    outer loop
      vertex 2.02254 -1.46946 -7
      vertex 2.19077 -1.20438 -5.9
      vertex 2.19077 -1.20438 -7
    endloop
  endfacet
  facet normal -0.844321 0.535838 0
    outer loop
      vertex 2.19077 -1.20438 -5.9
      vertex 2.02254 -1.46946 -7
      vertex 2.02254 -1.46946 -5.9
    endloop
  endfacet
  facet normal -0.770522 0.637414 0
    outer loop
      vertex 1.82242 -1.71137 -7
      vertex 2.02254 -1.46946 -5.9
      vertex 2.02254 -1.46946 -7
    endloop
  endfacet
  facet normal -0.770522 0.637414 0
    outer loop
      vertex 2.02254 -1.46946 -5.9
      vertex 1.82242 -1.71137 -7
      vertex 1.82242 -1.71137 -5.9
    endloop
  endfacet
  facet normal 0.125338 0.992114 -0
    outer loop
      vertex -0.156976 -2.49507 -7
      vertex -0.468452 -2.45572 -5.9
      vertex -0.156976 -2.49507 -5.9
    endloop
  endfacet
  facet normal 0.125338 0.992114 0
    outer loop
      vertex -0.468452 -2.45572 -5.9
      vertex -0.156976 -2.49507 -7
      vertex -0.468452 -2.45572 -7
    endloop
  endfacet
  facet normal 0.684541 0.728975 -0
    outer loop
      vertex -1.59356 -1.92628 -7
      vertex -1.82242 -1.71137 -5.9
      vertex -1.59356 -1.92628 -5.9
    endloop
  endfacet
  facet normal 0.684541 0.728975 0
    outer loop
      vertex -1.82242 -1.71137 -5.9
      vertex -1.59356 -1.92628 -7
      vertex -1.82242 -1.71137 -7
    endloop
  endfacet
  facet normal 0.248699 0.968581 -0
    outer loop
      vertex -0.468452 -2.45572 -7
      vertex -0.772542 -2.37764 -5.9
      vertex -0.468452 -2.45572 -5.9
    endloop
  endfacet
  facet normal 0.248699 0.968581 0
    outer loop
      vertex -0.772542 -2.37764 -5.9
      vertex -0.468452 -2.45572 -7
      vertex -0.772542 -2.37764 -7
    endloop
  endfacet
  facet normal 0.770522 0.637414 0
    outer loop
      vertex -1.82242 -1.71137 -5.9
      vertex -2.02254 -1.46946 -7
      vertex -2.02254 -1.46946 -5.9
    endloop
  endfacet
  facet normal 0.770522 0.637414 0
    outer loop
      vertex -2.02254 -1.46946 -7
      vertex -1.82242 -1.71137 -5.9
      vertex -1.82242 -1.71137 -7
    endloop
  endfacet
  facet normal 0.481757 0.876305 -0
    outer loop
      vertex -1.06445 -2.26207 -7
      vertex -1.33957 -2.11082 -5.9
      vertex -1.06445 -2.26207 -5.9
    endloop
  endfacet
  facet normal 0.481757 0.876305 0
    outer loop
      vertex -1.33957 -2.11082 -5.9
      vertex -1.06445 -2.26207 -7
      vertex -1.33957 -2.11082 -7
    endloop
  endfacet
  facet normal 0.587797 0.809009 -0
    outer loop
      vertex -1.33957 -2.11082 -7
      vertex -1.59356 -1.92628 -5.9
      vertex -1.33957 -2.11082 -5.9
    endloop
  endfacet
  facet normal 0.587797 0.809009 0
    outer loop
      vertex -1.59356 -1.92628 -5.9
      vertex -1.33957 -2.11082 -7
      vertex -1.59356 -1.92628 -7
    endloop
  endfacet
  facet normal -0.951058 0.309011 0
    outer loop
      vertex -6.78008 1.74083 -7
      vertex -6.50844 2.57687 0
      vertex -6.50844 2.57687 -7
    endloop
  endfacet
  facet normal -0.951058 0.309011 0
    outer loop
      vertex -6.50844 2.57687 0
      vertex -6.78008 1.74083 -7
      vertex -6.78008 1.74083 0
    endloop
  endfacet
  facet normal 0.844326 0.535829 0
    outer loop
      vertex 6.13415 3.37228 0
      vertex 5.66312 4.1145 -7
      vertex 5.66312 4.1145 0
    endloop
  endfacet
  facet normal 0.844326 0.535829 0
    outer loop
      vertex 5.66312 4.1145 -7
      vertex 6.13415 3.37228 0
      vertex 6.13415 3.37228 -7
    endloop
  endfacet
  facet normal 0.368131 0.929774 -0
    outer loop
      vertex 2.98045 6.33379 -7
      vertex 2.16312 6.6574 0
      vertex 2.98045 6.33379 0
    endloop
  endfacet
  facet normal 0.368131 0.929774 0
    outer loop
      vertex 2.16312 6.6574 0
      vertex 2.98045 6.33379 -7
      vertex 2.16312 6.6574 -7
    endloop
  endfacet
  facet normal -0.368131 0.929774 0
    outer loop
      vertex -2.16312 6.6574 -7
      vertex -2.98045 6.33379 0
      vertex -2.16312 6.6574 0
    endloop
  endfacet
  facet normal -0.368131 0.929774 0
    outer loop
      vertex -2.98045 6.33379 0
      vertex -2.16312 6.6574 -7
      vertex -2.98045 6.33379 -7
    endloop
  endfacet
  facet normal -0.904828 0.425778 0
    outer loop
      vertex -6.50844 2.57687 -7
      vertex -6.13415 3.37228 0
      vertex -6.13415 3.37228 -7
    endloop
  endfacet
  facet normal -0.904828 0.425778 0
    outer loop
      vertex -6.13415 3.37228 0
      vertex -6.50844 2.57687 -7
      vertex -6.50844 2.57687 0
    endloop
  endfacet
  facet normal 0.998027 -0.0627939 0
    outer loop
      vertex 6.9448 -0.877332 0
      vertex 7 0 -7
      vertex 7 0 0
    endloop
  endfacet
  facet normal 0.998027 -0.0627939 0
    outer loop
      vertex 7 0 -7
      vertex 6.9448 -0.877332 0
      vertex 6.9448 -0.877332 -7
    endloop
  endfacet
  facet normal 0.368131 -0.929774 0
    outer loop
      vertex 2.16312 -6.6574 -7
      vertex 2.98045 -6.33379 0
      vertex 2.16312 -6.6574 0
    endloop
  endfacet
  facet normal 0.368131 -0.929774 0
    outer loop
      vertex 2.98045 -6.33379 0
      vertex 2.16312 -6.6574 -7
      vertex 2.98045 -6.33379 -7
    endloop
  endfacet
  facet normal 0.684547 0.728969 -0
    outer loop
      vertex 5.10278 4.79183 -7
      vertex 4.46197 5.39359 0
      vertex 5.10278 4.79183 0
    endloop
  endfacet
  facet normal 0.684547 0.728969 0
    outer loop
      vertex 4.46197 5.39359 0
      vertex 5.10278 4.79183 -7
      vertex 4.46197 5.39359 -7
    endloop
  endfacet
  facet normal 0 1 -0
    outer loop
      vertex 0.439533 6.98619 -7
      vertex -0.439533 6.98619 0
      vertex 0.439533 6.98619 0
    endloop
  endfacet
  facet normal 0 1 0
    outer loop
      vertex -0.439533 6.98619 0
      vertex 0.439533 6.98619 -7
      vertex -0.439533 6.98619 -7
    endloop
  endfacet
  facet normal -0.770511 0.637427 0
    outer loop
      vertex -5.66312 4.1145 -7
      vertex -5.10278 4.79183 0
      vertex -5.10278 4.79183 -7
    endloop
  endfacet
  facet normal -0.770511 0.637427 0
    outer loop
      vertex -5.10278 4.79183 0
      vertex -5.66312 4.1145 -7
      vertex -5.66312 4.1145 0
    endloop
  endfacet
  facet normal -0.684547 0.728969 0
    outer loop
      vertex -4.46197 5.39359 -7
      vertex -5.10278 4.79183 0
      vertex -4.46197 5.39359 0
    endloop
  endfacet
  facet normal -0.684547 0.728969 0
    outer loop
      vertex -5.10278 4.79183 0
      vertex -4.46197 5.39359 -7
      vertex -5.10278 4.79183 -7
    endloop
  endfacet
  facet normal 0.904828 -0.425778 0
    outer loop
      vertex 6.13415 -3.37228 0
      vertex 6.50844 -2.57687 -7
      vertex 6.50844 -2.57687 0
    endloop
  endfacet
  facet normal 0.904828 -0.425778 0
    outer loop
      vertex 6.50844 -2.57687 -7
      vertex 6.13415 -3.37228 0
      vertex 6.13415 -3.37228 -7
    endloop
  endfacet
  facet normal 0.248684 -0.968585 0
    outer loop
      vertex 1.31167 -6.87601 -7
      vertex 2.16312 -6.6574 0
      vertex 1.31167 -6.87601 0
    endloop
  endfacet
  facet normal 0.248684 -0.968585 0
    outer loop
      vertex 2.16312 -6.6574 0
      vertex 1.31167 -6.87601 -7
      vertex 2.16312 -6.6574 -7
    endloop
  endfacet
  facet normal 0.770511 0.637427 0
    outer loop
      vertex 5.66312 4.1145 0
      vertex 5.10278 4.79183 -7
      vertex 5.10278 4.79183 0
    endloop
  endfacet
  facet normal 0.770511 0.637427 0
    outer loop
      vertex 5.10278 4.79183 -7
      vertex 5.66312 4.1145 0
      vertex 5.66312 4.1145 -7
    endloop
  endfacet
  facet normal 0.248684 0.968585 -0
    outer loop
      vertex 2.16312 6.6574 -7
      vertex 1.31167 6.87601 0
      vertex 2.16312 6.6574 0
    endloop
  endfacet
  facet normal 0.248684 0.968585 0
    outer loop
      vertex 1.31167 6.87601 0
      vertex 2.16312 6.6574 -7
      vertex 1.31167 6.87601 -7
    endloop
  endfacet
  facet normal 0.125337 0.992114 -0
    outer loop
      vertex 1.31167 6.87601 -7
      vertex 0.439533 6.98619 0
      vertex 1.31167 6.87601 0
    endloop
  endfacet
  facet normal 0.125337 0.992114 0
    outer loop
      vertex 0.439533 6.98619 0
      vertex 1.31167 6.87601 -7
      vertex 0.439533 6.98619 -7
    endloop
  endfacet
  facet normal 0.587783 0.809018 -0
    outer loop
      vertex 4.46197 5.39359 -7
      vertex 3.75079 5.91029 0
      vertex 4.46197 5.39359 0
    endloop
  endfacet
  facet normal 0.587783 0.809018 0
    outer loop
      vertex 3.75079 5.91029 0
      vertex 4.46197 5.39359 -7
      vertex 3.75079 5.91029 -7
    endloop
  endfacet
  facet normal 0.481755 0.876306 -0
    outer loop
      vertex 3.75079 5.91029 -7
      vertex 2.98045 6.33379 0
      vertex 3.75079 5.91029 0
    endloop
  endfacet
  facet normal 0.481755 0.876306 0
    outer loop
      vertex 2.98045 6.33379 0
      vertex 3.75079 5.91029 -7
      vertex 2.98045 6.33379 -7
    endloop
  endfacet
  facet normal -0.998027 0.0627939 0
    outer loop
      vertex -7 0 -7
      vertex -6.9448 0.877332 0
      vertex -6.9448 0.877332 -7
    endloop
  endfacet
  facet normal -0.998027 0.0627939 0
    outer loop
      vertex -6.9448 0.877332 0
      vertex -7 0 -7
      vertex -7 0 0
    endloop
  endfacet
  facet normal -0.844326 0.535829 0
    outer loop
      vertex -6.13415 3.37228 -7
      vertex -5.66312 4.1145 0
      vertex -5.66312 4.1145 -7
    endloop
  endfacet
  facet normal -0.844326 0.535829 0
    outer loop
      vertex -5.66312 4.1145 0
      vertex -6.13415 3.37228 -7
      vertex -6.13415 3.37228 0
    endloop
  endfacet
  facet normal -0.125337 0.992114 0
    outer loop
      vertex -0.439533 6.98619 -7
      vertex -1.31167 6.87601 0
      vertex -0.439533 6.98619 0
    endloop
  endfacet
  facet normal -0.125337 0.992114 0
    outer loop
      vertex -1.31167 6.87601 0
      vertex -0.439533 6.98619 -7
      vertex -1.31167 6.87601 -7
    endloop
  endfacet
  facet normal -0.248684 0.968585 0
    outer loop
      vertex -1.31167 6.87601 -7
      vertex -2.16312 6.6574 0
      vertex -1.31167 6.87601 0
    endloop
  endfacet
  facet normal -0.248684 0.968585 0
    outer loop
      vertex -2.16312 6.6574 0
      vertex -1.31167 6.87601 -7
      vertex -2.16312 6.6574 -7
    endloop
  endfacet
  facet normal -0.481755 0.876306 0
    outer loop
      vertex -2.98045 6.33379 -7
      vertex -3.75079 5.91029 0
      vertex -2.98045 6.33379 0
    endloop
  endfacet
  facet normal -0.481755 0.876306 0
    outer loop
      vertex -3.75079 5.91029 0
      vertex -2.98045 6.33379 -7
      vertex -3.75079 5.91029 -7
    endloop
  endfacet
  facet normal -0.587783 0.809018 0
    outer loop
      vertex -3.75079 5.91029 -7
      vertex -4.46197 5.39359 0
      vertex -3.75079 5.91029 0
    endloop
  endfacet
  facet normal -0.587783 0.809018 0
    outer loop
      vertex -4.46197 5.39359 0
      vertex -3.75079 5.91029 -7
      vertex -4.46197 5.39359 -7
    endloop
  endfacet
  facet normal 0.998027 0.0627939 0
    outer loop
      vertex 7 0 0
      vertex 6.9448 0.877332 -7
      vertex 6.9448 0.877332 0
    endloop
  endfacet
  facet normal 0.998027 0.0627939 0
    outer loop
      vertex 6.9448 0.877332 -7
      vertex 7 0 0
      vertex 7 0 -7
    endloop
  endfacet
  facet normal 0.770511 -0.637427 0
    outer loop
      vertex 5.10278 -4.79183 0
      vertex 5.66312 -4.1145 -7
      vertex 5.66312 -4.1145 0
    endloop
  endfacet
  facet normal 0.770511 -0.637427 0
    outer loop
      vertex 5.66312 -4.1145 -7
      vertex 5.10278 -4.79183 0
      vertex 5.10278 -4.79183 -7
    endloop
  endfacet
  facet normal 0.844326 -0.535829 0
    outer loop
      vertex 5.66312 -4.1145 0
      vertex 6.13415 -3.37228 -7
      vertex 6.13415 -3.37228 0
    endloop
  endfacet
  facet normal 0.844326 -0.535829 0
    outer loop
      vertex 6.13415 -3.37228 -7
      vertex 5.66312 -4.1145 0
      vertex 5.66312 -4.1145 -7
    endloop
  endfacet
  facet normal 0.125337 -0.992114 0
    outer loop
      vertex 0.439533 -6.98619 -7
      vertex 1.31167 -6.87601 0
      vertex 0.439533 -6.98619 0
    endloop
  endfacet
  facet normal 0.125337 -0.992114 0
    outer loop
      vertex 1.31167 -6.87601 0
      vertex 0.439533 -6.98619 -7
      vertex 1.31167 -6.87601 -7
    endloop
  endfacet
  facet normal 0.904828 0.425778 0
    outer loop
      vertex 6.50844 2.57687 0
      vertex 6.13415 3.37228 -7
      vertex 6.13415 3.37228 0
    endloop
  endfacet
  facet normal 0.904828 0.425778 0
    outer loop
      vertex 6.13415 3.37228 -7
      vertex 6.50844 2.57687 0
      vertex 6.50844 2.57687 -7
    endloop
  endfacet
  facet normal 0.951058 0.309011 0
    outer loop
      vertex 6.78008 1.74083 0
      vertex 6.50844 2.57687 -7
      vertex 6.50844 2.57687 0
    endloop
  endfacet
  facet normal 0.951058 0.309011 0
    outer loop
      vertex 6.50844 2.57687 -7
      vertex 6.78008 1.74083 0
      vertex 6.78008 1.74083 -7
    endloop
  endfacet
  facet normal 0.982287 0.18738 0
    outer loop
      vertex 6.9448 0.877332 0
      vertex 6.78008 1.74083 -7
      vertex 6.78008 1.74083 0
    endloop
  endfacet
  facet normal 0.982287 0.18738 0
    outer loop
      vertex 6.78008 1.74083 -7
      vertex 6.9448 0.877332 0
      vertex 6.9448 0.877332 -7
    endloop
  endfacet
  facet normal -0.982287 0.18738 0
    outer loop
      vertex -6.9448 0.877332 -7
      vertex -6.78008 1.74083 0
      vertex -6.78008 1.74083 -7
    endloop
  endfacet
  facet normal -0.982287 0.18738 0
    outer loop
      vertex -6.78008 1.74083 0
      vertex -6.9448 0.877332 -7
      vertex -6.9448 0.877332 0
    endloop
  endfacet
  facet normal 0.982287 -0.18738 0
    outer loop
      vertex 6.78008 -1.74083 0
      vertex 6.9448 -0.877332 -7
      vertex 6.9448 -0.877332 0
    endloop
  endfacet
  facet normal 0.982287 -0.18738 0
    outer loop
      vertex 6.9448 -0.877332 -7
      vertex 6.78008 -1.74083 0
      vertex 6.78008 -1.74083 -7
    endloop
  endfacet
  facet normal 0 -1 0
    outer loop
      vertex -0.439533 -6.98619 -7
      vertex 0.439533 -6.98619 0
      vertex -0.439533 -6.98619 0
    endloop
  endfacet
  facet normal 0 -1 -0
    outer loop
      vertex 0.439533 -6.98619 0
      vertex -0.439533 -6.98619 -7
      vertex 0.439533 -6.98619 -7
    endloop
  endfacet
  facet normal -0.368131 -0.929774 0
    outer loop
      vertex -2.98045 -6.33379 -7
      vertex -2.16312 -6.6574 0
      vertex -2.98045 -6.33379 0
    endloop
  endfacet
  facet normal -0.368131 -0.929774 -0
    outer loop
      vertex -2.16312 -6.6574 0
      vertex -2.98045 -6.33379 -7
      vertex -2.16312 -6.6574 -7
    endloop
  endfacet
  facet normal -0.998027 -0.0627939 0
    outer loop
      vertex -6.9448 -0.877332 -7
      vertex -7 0 0
      vertex -7 0 -7
    endloop
  endfacet
  facet normal -0.998027 -0.0627939 0
    outer loop
      vertex -7 0 0
      vertex -6.9448 -0.877332 -7
      vertex -6.9448 -0.877332 0
    endloop
  endfacet
  facet normal -0.951058 -0.309011 0
    outer loop
      vertex -6.50844 -2.57687 -7
      vertex -6.78008 -1.74083 0
      vertex -6.78008 -1.74083 -7
    endloop
  endfacet
  facet normal -0.951058 -0.309011 0
    outer loop
      vertex -6.78008 -1.74083 0
      vertex -6.50844 -2.57687 -7
      vertex -6.50844 -2.57687 0
    endloop
  endfacet
  facet normal -0.904828 -0.425778 0
    outer loop
      vertex -6.13415 -3.37228 -7
      vertex -6.50844 -2.57687 0
      vertex -6.50844 -2.57687 -7
    endloop
  endfacet
  facet normal -0.904828 -0.425778 0
    outer loop
      vertex -6.50844 -2.57687 0
      vertex -6.13415 -3.37228 -7
      vertex -6.13415 -3.37228 0
    endloop
  endfacet
  facet normal 0.684547 -0.728969 0
    outer loop
      vertex 4.46197 -5.39359 -7
      vertex 5.10278 -4.79183 0
      vertex 4.46197 -5.39359 0
    endloop
  endfacet
  facet normal 0.684547 -0.728969 0
    outer loop
      vertex 5.10278 -4.79183 0
      vertex 4.46197 -5.39359 -7
      vertex 5.10278 -4.79183 -7
    endloop
  endfacet
  facet normal 0.481755 -0.876306 0
    outer loop
      vertex 2.98045 -6.33379 -7
      vertex 3.75079 -5.91029 0
      vertex 2.98045 -6.33379 0
    endloop
  endfacet
  facet normal 0.481755 -0.876306 0
    outer loop
      vertex 3.75079 -5.91029 0
      vertex 2.98045 -6.33379 -7
      vertex 3.75079 -5.91029 -7
    endloop
  endfacet
  facet normal 0.951058 -0.309011 0
    outer loop
      vertex 6.50844 -2.57687 0
      vertex 6.78008 -1.74083 -7
      vertex 6.78008 -1.74083 0
    endloop
  endfacet
  facet normal 0.951058 -0.309011 0
    outer loop
      vertex 6.78008 -1.74083 -7
      vertex 6.50844 -2.57687 0
      vertex 6.50844 -2.57687 -7
    endloop
  endfacet
  facet normal -0.684547 -0.728969 0
    outer loop
      vertex -5.10278 -4.79183 -7
      vertex -4.46197 -5.39359 0
      vertex -5.10278 -4.79183 0
    endloop
  endfacet
  facet normal -0.684547 -0.728969 -0
    outer loop
      vertex -4.46197 -5.39359 0
      vertex -5.10278 -4.79183 -7
      vertex -4.46197 -5.39359 -7
    endloop
  endfacet
  facet normal -0.248684 -0.968585 0
    outer loop
      vertex -2.16312 -6.6574 -7
      vertex -1.31167 -6.87601 0
      vertex -2.16312 -6.6574 0
    endloop
  endfacet
  facet normal -0.248684 -0.968585 -0
    outer loop
      vertex -1.31167 -6.87601 0
      vertex -2.16312 -6.6574 -7
      vertex -1.31167 -6.87601 -7
    endloop
  endfacet
  facet normal -0.587783 -0.809018 0
    outer loop
      vertex -4.46197 -5.39359 -7
      vertex -3.75079 -5.91029 0
      vertex -4.46197 -5.39359 0
    endloop
  endfacet
  facet normal -0.587783 -0.809018 -0
    outer loop
      vertex -3.75079 -5.91029 0
      vertex -4.46197 -5.39359 -7
      vertex -3.75079 -5.91029 -7
    endloop
  endfacet
  facet normal -0.481755 -0.876306 0
    outer loop
      vertex -3.75079 -5.91029 -7
      vertex -2.98045 -6.33379 0
      vertex -3.75079 -5.91029 0
    endloop
  endfacet
  facet normal -0.481755 -0.876306 -0
    outer loop
      vertex -2.98045 -6.33379 0
      vertex -3.75079 -5.91029 -7
      vertex -2.98045 -6.33379 -7
    endloop
  endfacet
  facet normal 0 0 -1
    outer loop
      vertex 2.5 0 -7
      vertex 7 0 -7
      vertex 6.9448 -0.877332 -7
    endloop
  endfacet
  facet normal 0 0 -1
    outer loop
      vertex 2.48029 -0.313333 -7
      vertex 6.9448 -0.877332 -7
      vertex 6.78008 -1.74083 -7
    endloop
  endfacet
  facet normal 0 0 -1
    outer loop
      vertex 7 0 -7
      vertex 2.5 0 -7
      vertex 6.9448 0.877332 -7
    endloop
  endfacet
  facet normal 0 0 -1
    outer loop
      vertex 2.42146 -0.621724 -7
      vertex 6.78008 -1.74083 -7
      vertex 6.50844 -2.57687 -7
    endloop
  endfacet
  facet normal 0 0 -1
    outer loop
      vertex 2.48029 0.313333 -7
      vertex 6.9448 0.877332 -7
      vertex 2.5 0 -7
    endloop
  endfacet
  facet normal 0 0 -1
    outer loop
      vertex 2.32444 -0.920311 -7
      vertex 6.50844 -2.57687 -7
      vertex 6.13415 -3.37228 -7
    endloop
  endfacet
  facet normal -0 0 -1
    outer loop
      vertex 6.9448 0.877332 -7
      vertex 2.48029 0.313333 -7
      vertex 6.78008 1.74083 -7
    endloop
  endfacet
  facet normal 0 0 -1
    outer loop
      vertex 2.19077 -1.20438 -7
      vertex 6.13415 -3.37228 -7
      vertex 5.66312 -4.1145 -7
    endloop
  endfacet
  facet normal 0 0 -1
    outer loop
      vertex 2.42146 0.621724 -7
      vertex 6.78008 1.74083 -7
      vertex 2.48029 0.313333 -7
    endloop
  endfacet
  facet normal 0 0 -1
    outer loop
      vertex 2.02254 -1.46946 -7
      vertex 5.66312 -4.1145 -7
      vertex 5.10278 -4.79183 -7
    endloop
  endfacet
  facet normal -0 0 -1
    outer loop
      vertex 6.78008 1.74083 -7
      vertex 2.42146 0.621724 -7
      vertex 6.50844 2.57687 -7
    endloop
  endfacet
  facet normal 0 0 -1
    outer loop
      vertex 1.82242 -1.71137 -7
      vertex 5.10278 -4.79183 -7
      vertex 4.46197 -5.39359 -7
    endloop
  endfacet
  facet normal 0 0 -1
    outer loop
      vertex 2.32444 0.920311 -7
      vertex 6.50844 2.57687 -7
      vertex 2.42146 0.621724 -7
    endloop
  endfacet
  facet normal 0 0 -1
    outer loop
      vertex 1.59356 -1.92628 -7
      vertex 4.46197 -5.39359 -7
      vertex 3.75079 -5.91029 -7
    endloop
  endfacet
  facet normal -0 0 -1
    outer loop
      vertex 6.50844 2.57687 -7
      vertex 2.32444 0.920311 -7
      vertex 6.13415 3.37228 -7
    endloop
  endfacet
  facet normal 0 0 -1
    outer loop
      vertex 1.33957 -2.11082 -7
      vertex 3.75079 -5.91029 -7
      vertex 2.98045 -6.33379 -7
    endloop
  endfacet
  facet normal 0 0 -1
    outer loop
      vertex 2.19077 1.20438 -7
      vertex 6.13415 3.37228 -7
      vertex 2.32444 0.920311 -7
    endloop
  endfacet
  facet normal -0 0 -1
    outer loop
      vertex 6.13415 3.37228 -7
      vertex 2.19077 1.20438 -7
      vertex 5.66312 4.1145 -7
    endloop
  endfacet
  facet normal 0 0 -1
    outer loop
      vertex 6.9448 -0.877332 -7
      vertex 2.48029 -0.313333 -7
      vertex 2.5 0 -7
    endloop
  endfacet
  facet normal 0 0 -1
    outer loop
      vertex 6.78008 -1.74083 -7
      vertex 2.42146 -0.621724 -7
      vertex 2.48029 -0.313333 -7
    endloop
  endfacet
  facet normal 0 0 -1
    outer loop
      vertex 6.50844 -2.57687 -7
      vertex 2.32444 -0.920311 -7
      vertex 2.42146 -0.621724 -7
    endloop
  endfacet
  facet normal 0 0 -1
    outer loop
      vertex 6.13415 -3.37228 -7
      vertex 2.19077 -1.20438 -7
      vertex 2.32444 -0.920311 -7
    endloop
  endfacet
  facet normal 0 0 -1
    outer loop
      vertex 1.06445 -2.26207 -7
      vertex 2.98045 -6.33379 -7
      vertex 2.16312 -6.6574 -7
    endloop
  endfacet
  facet normal 0 0 -1
    outer loop
      vertex 5.66312 -4.1145 -7
      vertex 2.02254 -1.46946 -7
      vertex 2.19077 -1.20438 -7
    endloop
  endfacet
  facet normal 0 0 -1
    outer loop
      vertex 5.10278 -4.79183 -7
      vertex 1.82242 -1.71137 -7
      vertex 2.02254 -1.46946 -7
    endloop
  endfacet
  facet normal 0 0 -1
    outer loop
      vertex 4.46197 -5.39359 -7
      vertex 1.59356 -1.92628 -7
      vertex 1.82242 -1.71137 -7
    endloop
  endfacet
  facet normal 0 0 -1
    outer loop
      vertex 3.75079 -5.91029 -7
      vertex 1.33957 -2.11082 -7
      vertex 1.59356 -1.92628 -7
    endloop
  endfacet
  facet normal 0 0 -1
    outer loop
      vertex 0.772542 -2.37764 -7
      vertex 2.16312 -6.6574 -7
      vertex 1.31167 -6.87601 -7
    endloop
  endfacet
  facet normal 0 0 -1
    outer loop
      vertex 2.98045 -6.33379 -7
      vertex 1.06445 -2.26207 -7
      vertex 1.33957 -2.11082 -7
    endloop
  endfacet
  facet normal 0 0 -1
    outer loop
      vertex 2.16312 -6.6574 -7
      vertex 0.772542 -2.37764 -7
      vertex 1.06445 -2.26207 -7
    endloop
  endfacet
  facet normal 0 0 -1
    outer loop
      vertex 1.31167 -6.87601 -7
      vertex 0.468452 -2.45572 -7
      vertex 0.772542 -2.37764 -7
    endloop
  endfacet
  facet normal 0 0 -1
    outer loop
      vertex 0.439533 -6.98619 -7
      vertex 0.468452 -2.45572 -7
      vertex 1.31167 -6.87601 -7
    endloop
  endfacet
  facet normal 0 0 -1
    outer loop
      vertex 0.439533 -6.98619 -7
      vertex 0.156976 -2.49507 -7
      vertex 0.468452 -2.45572 -7
    endloop
  endfacet
  facet normal 0 0 -1
    outer loop
      vertex 0.439533 -6.98619 -7
      vertex -0.156976 -2.49507 -7
      vertex 0.156976 -2.49507 -7
    endloop
  endfacet
  facet normal 0 0 -1
    outer loop
      vertex -0.439533 -6.98619 -7
      vertex -0.156976 -2.49507 -7
      vertex 0.439533 -6.98619 -7
    endloop
  endfacet
  facet normal 0 0 -1
    outer loop
      vertex -0.439533 -6.98619 -7
      vertex -0.468452 -2.45572 -7
      vertex -0.156976 -2.49507 -7
    endloop
  endfacet
  facet normal 0 0 -1
    outer loop
      vertex -1.31167 -6.87601 -7
      vertex -0.468452 -2.45572 -7
      vertex -0.439533 -6.98619 -7
    endloop
  endfacet
  facet normal -0 0 -1
    outer loop
      vertex -0.468452 -2.45572 -7
      vertex -1.31167 -6.87601 -7
      vertex -0.772542 -2.37764 -7
    endloop
  endfacet
  facet normal 0 0 -1
    outer loop
      vertex -2.16312 -6.6574 -7
      vertex -0.772542 -2.37764 -7
      vertex -1.31167 -6.87601 -7
    endloop
  endfacet
  facet normal -0 0 -1
    outer loop
      vertex -0.772542 -2.37764 -7
      vertex -2.16312 -6.6574 -7
      vertex -1.06445 -2.26207 -7
    endloop
  endfacet
  facet normal 0 0 -1
    outer loop
      vertex -2.98045 -6.33379 -7
      vertex -1.06445 -2.26207 -7
      vertex -2.16312 -6.6574 -7
    endloop
  endfacet
  facet normal -0 0 -1
    outer loop
      vertex -1.06445 -2.26207 -7
      vertex -2.98045 -6.33379 -7
      vertex -1.33957 -2.11082 -7
    endloop
  endfacet
  facet normal 0 0 -1
    outer loop
      vertex -3.75079 -5.91029 -7
      vertex -1.33957 -2.11082 -7
      vertex -2.98045 -6.33379 -7
    endloop
  endfacet
  facet normal -0 0 -1
    outer loop
      vertex -1.33957 -2.11082 -7
      vertex -3.75079 -5.91029 -7
      vertex -1.59356 -1.92628 -7
    endloop
  endfacet
  facet normal 0 0 -1
    outer loop
      vertex -4.46197 -5.39359 -7
      vertex -1.59356 -1.92628 -7
      vertex -3.75079 -5.91029 -7
    endloop
  endfacet
  facet normal -0 0 -1
    outer loop
      vertex -1.59356 -1.92628 -7
      vertex -4.46197 -5.39359 -7
      vertex -1.82242 -1.71137 -7
    endloop
  endfacet
  facet normal 0 0 -1
    outer loop
      vertex -5.10278 -4.79183 -7
      vertex -1.82242 -1.71137 -7
      vertex -4.46197 -5.39359 -7
    endloop
  endfacet
  facet normal -0 0 -1
    outer loop
      vertex -1.82242 -1.71137 -7
      vertex -5.10278 -4.79183 -7
      vertex -2.02254 -1.46946 -7
    endloop
  endfacet
  facet normal 0 0 -1
    outer loop
      vertex -5.66312 -4.1145 -7
      vertex -2.02254 -1.46946 -7
      vertex -5.10278 -4.79183 -7
    endloop
  endfacet
  facet normal -0 0 -1
    outer loop
      vertex -2.02254 -1.46946 -7
      vertex -5.66312 -4.1145 -7
      vertex -2.19077 -1.20438 -7
    endloop
  endfacet
  facet normal 0 0 -1
    outer loop
      vertex 2.02254 1.46946 -7
      vertex 5.66312 4.1145 -7
      vertex 2.19077 1.20438 -7
    endloop
  endfacet
  facet normal -0 0 -1
    outer loop
      vertex 5.66312 4.1145 -7
      vertex 2.02254 1.46946 -7
      vertex 5.10278 4.79183 -7
    endloop
  endfacet
  facet normal 0 0 -1
    outer loop
      vertex 1.82242 1.71137 -7
      vertex 5.10278 4.79183 -7
      vertex 2.02254 1.46946 -7
    endloop
  endfacet
  facet normal -0 0 -1
    outer loop
      vertex 5.10278 4.79183 -7
      vertex 1.82242 1.71137 -7
      vertex 4.46197 5.39359 -7
    endloop
  endfacet
  facet normal 0 0 -1
    outer loop
      vertex 1.59356 1.92628 -7
      vertex 4.46197 5.39359 -7
      vertex 1.82242 1.71137 -7
    endloop
  endfacet
  facet normal -0 0 -1
    outer loop
      vertex 4.46197 5.39359 -7
      vertex 1.59356 1.92628 -7
      vertex 3.75079 5.91029 -7
    endloop
  endfacet
  facet normal 0 0 -1
    outer loop
      vertex 1.33957 2.11082 -7
      vertex 3.75079 5.91029 -7
      vertex 1.59356 1.92628 -7
    endloop
  endfacet
  facet normal -0 0 -1
    outer loop
      vertex 3.75079 5.91029 -7
      vertex 1.33957 2.11082 -7
      vertex 2.98045 6.33379 -7
    endloop
  endfacet
  facet normal 0 0 -1
    outer loop
      vertex 1.06445 2.26207 -7
      vertex 2.98045 6.33379 -7
      vertex 1.33957 2.11082 -7
    endloop
  endfacet
  facet normal -0 0 -1
    outer loop
      vertex 2.98045 6.33379 -7
      vertex 1.06445 2.26207 -7
      vertex 2.16312 6.6574 -7
    endloop
  endfacet
  facet normal 0 0 -1
    outer loop
      vertex 0.772542 2.37764 -7
      vertex 2.16312 6.6574 -7
      vertex 1.06445 2.26207 -7
    endloop
  endfacet
  facet normal -0 0 -1
    outer loop
      vertex 2.16312 6.6574 -7
      vertex 0.772542 2.37764 -7
      vertex 1.31167 6.87601 -7
    endloop
  endfacet
  facet normal 0 0 -1
    outer loop
      vertex 0.468452 2.45572 -7
      vertex 1.31167 6.87601 -7
      vertex 0.772542 2.37764 -7
    endloop
  endfacet
  facet normal 0 0 -1
    outer loop
      vertex 0.468452 2.45572 -7
      vertex 0.439533 6.98619 -7
      vertex 1.31167 6.87601 -7
    endloop
  endfacet
  facet normal 0 0 -1
    outer loop
      vertex 0.156976 2.49507 -7
      vertex 0.439533 6.98619 -7
      vertex 0.468452 2.45572 -7
    endloop
  endfacet
  facet normal 0 0 -1
    outer loop
      vertex -0.156976 2.49507 -7
      vertex 0.439533 6.98619 -7
      vertex 0.156976 2.49507 -7
    endloop
  endfacet
  facet normal 0 0 -1
    outer loop
      vertex -0.156976 2.49507 -7
      vertex -0.439533 6.98619 -7
      vertex 0.439533 6.98619 -7
    endloop
  endfacet
  facet normal 0 0 -1
    outer loop
      vertex -0.468452 2.45572 -7
      vertex -0.439533 6.98619 -7
      vertex -0.156976 2.49507 -7
    endloop
  endfacet
  facet normal 0 0 -1
    outer loop
      vertex -1.31167 6.87601 -7
      vertex -0.468452 2.45572 -7
      vertex -0.772542 2.37764 -7
    endloop
  endfacet
  facet normal 0 0 -1
    outer loop
      vertex -2.16312 6.6574 -7
      vertex -0.772542 2.37764 -7
      vertex -1.06445 2.26207 -7
    endloop
  endfacet
  facet normal 0 0 -1
    outer loop
      vertex -0.468452 2.45572 -7
      vertex -1.31167 6.87601 -7
      vertex -0.439533 6.98619 -7
    endloop
  endfacet
  facet normal 0 0 -1
    outer loop
      vertex -2.98045 6.33379 -7
      vertex -1.06445 2.26207 -7
      vertex -1.33957 2.11082 -7
    endloop
  endfacet
  facet normal 0 0 -1
    outer loop
      vertex -3.75079 5.91029 -7
      vertex -1.33957 2.11082 -7
      vertex -1.59356 1.92628 -7
    endloop
  endfacet
  facet normal 0 0 -1
    outer loop
      vertex -4.46197 5.39359 -7
      vertex -1.59356 1.92628 -7
      vertex -1.82242 1.71137 -7
    endloop
  endfacet
  facet normal 0 0 -1
    outer loop
      vertex -5.10278 4.79183 -7
      vertex -1.82242 1.71137 -7
      vertex -2.02254 1.46946 -7
    endloop
  endfacet
  facet normal 0 0 -1
    outer loop
      vertex -0.772542 2.37764 -7
      vertex -2.16312 6.6574 -7
      vertex -1.31167 6.87601 -7
    endloop
  endfacet
  facet normal 0 0 -1
    outer loop
      vertex -5.66312 4.1145 -7
      vertex -2.02254 1.46946 -7
      vertex -2.19077 1.20438 -7
    endloop
  endfacet
  facet normal 0 0 -1
    outer loop
      vertex -6.13415 3.37228 -7
      vertex -2.19077 1.20438 -7
      vertex -2.32444 0.920311 -7
    endloop
  endfacet
  facet normal 0 0 -1
    outer loop
      vertex -6.50844 2.57687 -7
      vertex -2.32444 0.920311 -7
      vertex -2.42146 0.621724 -7
    endloop
  endfacet
  facet normal 0 0 -1
    outer loop
      vertex -6.78008 1.74083 -7
      vertex -2.42146 0.621724 -7
      vertex -2.48029 0.313333 -7
    endloop
  endfacet
  facet normal 0 0 -1
    outer loop
      vertex -6.9448 0.877332 -7
      vertex -2.48029 0.313333 -7
      vertex -2.5 0 -7
    endloop
  endfacet
  facet normal 0 0 -1
    outer loop
      vertex -6.13415 -3.37228 -7
      vertex -2.19077 -1.20438 -7
      vertex -5.66312 -4.1145 -7
    endloop
  endfacet
  facet normal 0 0 -1
    outer loop
      vertex -1.06445 2.26207 -7
      vertex -2.98045 6.33379 -7
      vertex -2.16312 6.6574 -7
    endloop
  endfacet
  facet normal -0 0 -1
    outer loop
      vertex -2.19077 -1.20438 -7
      vertex -6.13415 -3.37228 -7
      vertex -2.32444 -0.920311 -7
    endloop
  endfacet
  facet normal 0 0 -1
    outer loop
      vertex -1.33957 2.11082 -7
      vertex -3.75079 5.91029 -7
      vertex -2.98045 6.33379 -7
    endloop
  endfacet
  facet normal 0 0 -1
    outer loop
      vertex -6.50844 -2.57687 -7
      vertex -2.32444 -0.920311 -7
      vertex -6.13415 -3.37228 -7
    endloop
  endfacet
  facet normal 0 0 -1
    outer loop
      vertex -1.59356 1.92628 -7
      vertex -4.46197 5.39359 -7
      vertex -3.75079 5.91029 -7
    endloop
  endfacet
  facet normal -0 0 -1
    outer loop
      vertex -2.32444 -0.920311 -7
      vertex -6.50844 -2.57687 -7
      vertex -2.42146 -0.621724 -7
    endloop
  endfacet
  facet normal 0 0 -1
    outer loop
      vertex -1.82242 1.71137 -7
      vertex -5.10278 4.79183 -7
      vertex -4.46197 5.39359 -7
    endloop
  endfacet
  facet normal 0 0 -1
    outer loop
      vertex -6.78008 -1.74083 -7
      vertex -2.42146 -0.621724 -7
      vertex -6.50844 -2.57687 -7
    endloop
  endfacet
  facet normal 0 0 -1
    outer loop
      vertex -2.02254 1.46946 -7
      vertex -5.66312 4.1145 -7
      vertex -5.10278 4.79183 -7
    endloop
  endfacet
  facet normal -0 0 -1
    outer loop
      vertex -2.42146 -0.621724 -7
      vertex -6.78008 -1.74083 -7
      vertex -2.48029 -0.313333 -7
    endloop
  endfacet
  facet normal 0 0 -1
    outer loop
      vertex -2.19077 1.20438 -7
      vertex -6.13415 3.37228 -7
      vertex -5.66312 4.1145 -7
    endloop
  endfacet
  facet normal 0 0 -1
    outer loop
      vertex -6.9448 -0.877332 -7
      vertex -2.48029 -0.313333 -7
      vertex -6.78008 -1.74083 -7
    endloop
  endfacet
  facet normal 0 0 -1
    outer loop
      vertex -2.32444 0.920311 -7
      vertex -6.50844 2.57687 -7
      vertex -6.13415 3.37228 -7
    endloop
  endfacet
  facet normal -0 0 -1
    outer loop
      vertex -2.48029 -0.313333 -7
      vertex -6.9448 -0.877332 -7
      vertex -2.5 0 -7
    endloop
  endfacet
  facet normal 0 0 -1
    outer loop
      vertex -2.42146 0.621724 -7
      vertex -6.78008 1.74083 -7
      vertex -6.50844 2.57687 -7
    endloop
  endfacet
  facet normal 0 0 -1
    outer loop
      vertex -7 0 -7
      vertex -2.5 0 -7
      vertex -6.9448 -0.877332 -7
    endloop
  endfacet
  facet normal 0 0 -1
    outer loop
      vertex -2.48029 0.313333 -7
      vertex -6.9448 0.877332 -7
      vertex -6.78008 1.74083 -7
    endloop
  endfacet
  facet normal 0 0 -1
    outer loop
      vertex -2.5 0 -7
      vertex -7 0 -7
      vertex -6.9448 0.877332 -7
    endloop
  endfacet
  facet normal -0.982287 -0.18738 0
    outer loop
      vertex -6.78008 -1.74083 -7
      vertex -6.9448 -0.877332 0
      vertex -6.9448 -0.877332 -7
    endloop
  endfacet
  facet normal -0.982287 -0.18738 0
    outer loop
      vertex -6.9448 -0.877332 0
      vertex -6.78008 -1.74083 -7
      vertex -6.78008 -1.74083 0
    endloop
  endfacet
  facet normal -0.770511 -0.637427 0
    outer loop
      vertex -5.10278 -4.79183 -7
      vertex -5.66312 -4.1145 0
      vertex -5.66312 -4.1145 -7
    endloop
  endfacet
  facet normal -0.770511 -0.637427 0
    outer loop
      vertex -5.66312 -4.1145 0
      vertex -5.10278 -4.79183 -7
      vertex -5.10278 -4.79183 0
    endloop
  endfacet
  facet normal -0.844326 -0.535829 0
    outer loop
      vertex -5.66312 -4.1145 -7
      vertex -6.13415 -3.37228 0
      vertex -6.13415 -3.37228 -7
    endloop
  endfacet
  facet normal -0.844326 -0.535829 0
    outer loop
      vertex -6.13415 -3.37228 0
      vertex -5.66312 -4.1145 -7
      vertex -5.66312 -4.1145 0
    endloop
  endfacet
  facet normal 0.587783 -0.809018 0
    outer loop
      vertex 3.75079 -5.91029 -7
      vertex 4.46197 -5.39359 0
      vertex 3.75079 -5.91029 0
    endloop
  endfacet
  facet normal 0.587783 -0.809018 0
    outer loop
      vertex 4.46197 -5.39359 0
      vertex 3.75079 -5.91029 -7
      vertex 4.46197 -5.39359 -7
    endloop
  endfacet
  facet normal -0.125337 -0.992114 0
    outer loop
      vertex -1.31167 -6.87601 -7
      vertex -0.439533 -6.98619 0
      vertex -1.31167 -6.87601 0
    endloop
  endfacet
  facet normal -0.125337 -0.992114 -0
    outer loop
      vertex -0.439533 -6.98619 0
      vertex -1.31167 -6.87601 -7
      vertex -0.439533 -6.98619 -7
    endloop
  endfacet
endsolid OpenSCAD_Model
