solid OpenSCAD_Model
  facet normal 0.998026 0.0628013 0
    outer loop
      vertex 30 0 0
      vertex 29.7634 3.76 -7
      vertex 29.7634 3.76 0
    endloop
  endfacet
  facet normal 0.998026 0.0628013 0
    outer loop
      vertex 29.7634 3.76 -7
      vertex 30 0 0
      vertex 30 0 -7
    endloop
  endfacet
  facet normal -0.998026 0.0628013 0
    outer loop
      vertex -30 0 -7
      vertex -29.7634 3.76 0
      vertex -29.7634 3.76 -7
    endloop
  endfacet
  facet normal -0.998026 0.0628013 0
    outer loop
      vertex -29.7634 3.76 0
      vertex -30 0 -7
      vertex -30 0 0
    endloop
  endfacet
  facet normal 0 1 -0
    outer loop
      vertex 1.88371 29.9408 -7
      vertex -1.88371 29.9408 0
      vertex 1.88371 29.9408 0
    endloop
  endfacet
  facet normal 0 1 0
    outer loop
      vertex -1.88371 29.9408 0
      vertex 1.88371 29.9408 -7
      vertex -1.88371 29.9408 -7
    endloop
  endfacet
  facet normal 0 -1 0
    outer loop
      vertex -1.88371 -29.9408 -7
      vertex 1.88371 -29.9408 0
      vertex -1.88371 -29.9408 0
    endloop
  endfacet
  facet normal 0 -1 -0
    outer loop
      vertex 1.88371 -29.9408 0
      vertex -1.88371 -29.9408 -7
      vertex 1.88371 -29.9408 -7
    endloop
  endfacet
  facet normal 0.684541 0.728974 -0
    outer loop
      vertex 21.8691 20.5364 -7
      vertex 19.1227 23.1154 0
      vertex 21.8691 20.5364 0
    endloop
  endfacet
  facet normal 0.684541 0.728974 0
    outer loop
      vertex 19.1227 23.1154 0
      vertex 21.8691 20.5364 -7
      vertex 19.1227 23.1154 -7
    endloop
  endfacet
  facet normal -0.684541 0.728974 0
    outer loop
      vertex -19.1227 23.1154 -7
      vertex -21.8691 20.5364 0
      vertex -19.1227 23.1154 0
    endloop
  endfacet
  facet normal -0.684541 0.728974 0
    outer loop
      vertex -21.8691 20.5364 0
      vertex -19.1227 23.1154 -7
      vertex -21.8691 20.5364 -7
    endloop
  endfacet
  facet normal -0.368126 0.929776 0
    outer loop
      vertex -9.27051 28.5317 -7
      vertex -12.7734 27.1448 0
      vertex -9.27051 28.5317 0
    endloop
  endfacet
  facet normal -0.368126 0.929776 0
    outer loop
      vertex -12.7734 27.1448 0
      vertex -9.27051 28.5317 -7
      vertex -12.7734 27.1448 -7
    endloop
  endfacet
  facet normal 0.904828 0.425778 0
    outer loop
      vertex 27.8933 11.0437 0
      vertex 26.2892 14.4526 -7
      vertex 26.2892 14.4526 0
    endloop
  endfacet
  facet normal 0.904828 0.425778 0
    outer loop
      vertex 26.2892 14.4526 -7
      vertex 27.8933 11.0437 0
      vertex 27.8933 11.0437 -7
    endloop
  endfacet
  facet normal 0.844331 0.535822 0
    outer loop
      vertex 26.2892 14.4526 0
      vertex 24.2705 17.6336 -7
      vertex 24.2705 17.6336 0
    endloop
  endfacet
  facet normal 0.844331 0.535822 0
    outer loop
      vertex 24.2705 17.6336 -7
      vertex 26.2892 14.4526 0
      vertex 26.2892 14.4526 -7
    endloop
  endfacet
  facet normal 0.368126 0.929776 -0
    outer loop
      vertex 12.7734 27.1448 -7
      vertex 9.27051 28.5317 0
      vertex 12.7734 27.1448 0
    endloop
  endfacet
  facet normal 0.368126 0.929776 0
    outer loop
      vertex 9.27051 28.5317 0
      vertex 12.7734 27.1448 -7
      vertex 9.27051 28.5317 -7
    endloop
  endfacet
  facet normal 0.248684 0.968585 -0
    outer loop
      vertex 9.27051 28.5317 -7
      vertex 5.62144 29.4686 0
      vertex 9.27051 28.5317 0
    endloop
  endfacet
  facet normal 0.248684 0.968585 0
    outer loop
      vertex 5.62144 29.4686 0
      vertex 9.27051 28.5317 -7
      vertex 5.62144 29.4686 -7
    endloop
  endfacet
  facet normal 0.58778 0.809021 -0
    outer loop
      vertex 19.1227 23.1154 -7
      vertex 16.0748 25.3298 0
      vertex 19.1227 23.1154 0
    endloop
  endfacet
  facet normal 0.58778 0.809021 0
    outer loop
      vertex 16.0748 25.3298 0
      vertex 19.1227 23.1154 -7
      vertex 16.0748 25.3298 -7
    endloop
  endfacet
  facet normal -0.844331 0.535822 0
    outer loop
      vertex -26.2892 14.4526 -7
      vertex -24.2705 17.6336 0
      vertex -24.2705 17.6336 -7
    endloop
  endfacet
  facet normal -0.844331 0.535822 0
    outer loop
      vertex -24.2705 17.6336 0
      vertex -26.2892 14.4526 -7
      vertex -26.2892 14.4526 0
    endloop
  endfacet
  facet normal -0.770514 0.637423 0
    outer loop
      vertex -24.2705 17.6336 -7
      vertex -21.8691 20.5364 0
      vertex -21.8691 20.5364 -7
    endloop
  endfacet
  facet normal -0.770514 0.637423 0
    outer loop
      vertex -21.8691 20.5364 0
      vertex -24.2705 17.6336 -7
      vertex -24.2705 17.6336 0
    endloop
  endfacet
  facet normal -0.951056 0.30902 0
    outer loop
      vertex -29.0575 7.4607 -7
      vertex -27.8933 11.0437 0
      vertex -27.8933 11.0437 -7
    endloop
  endfacet
  facet normal -0.951056 0.30902 0
    outer loop
      vertex -27.8933 11.0437 0
      vertex -29.0575 7.4607 -7
      vertex -29.0575 7.4607 0
    endloop
  endfacet
  facet normal -0.481762 0.876302 0
    outer loop
      vertex -12.7734 27.1448 -7
      vertex -16.0748 25.3298 0
      vertex -12.7734 27.1448 0
    endloop
  endfacet
  facet normal -0.481762 0.876302 0
    outer loop
      vertex -16.0748 25.3298 0
      vertex -12.7734 27.1448 -7
      vertex -16.0748 25.3298 -7
    endloop
  endfacet
  facet normal -0.248684 0.968585 0
    outer loop
      vertex -5.62144 29.4686 -7
      vertex -9.27051 28.5317 0
      vertex -5.62144 29.4686 0
    endloop
  endfacet
  facet normal -0.248684 0.968585 0
    outer loop
      vertex -9.27051 28.5317 0
      vertex -5.62144 29.4686 -7
      vertex -9.27051 28.5317 -7
    endloop
  endfacet
  facet normal 0.125337 -0.992114 0
    outer loop
      vertex 1.88371 -29.9408 -7
      vertex 5.62144 -29.4686 0
      vertex 1.88371 -29.9408 0
    endloop
  endfacet
  facet normal 0.125337 -0.992114 0
    outer loop
      vertex 5.62144 -29.4686 0
      vertex 1.88371 -29.9408 -7
      vertex 5.62144 -29.4686 -7
    endloop
  endfacet
  facet normal 0.951056 0.30902 0
    outer loop
      vertex 29.0575 7.4607 0
      vertex 27.8933 11.0437 -7
      vertex 27.8933 11.0437 0
    endloop
  endfacet
  facet normal 0.951056 0.30902 0
    outer loop
      vertex 27.8933 11.0437 -7
      vertex 29.0575 7.4607 0
      vertex 29.0575 7.4607 -7
    endloop
  endfacet
  facet normal 0.98229 0.187369 0
    outer loop
      vertex 29.7634 3.76 0
      vertex 29.0575 7.4607 -7
      vertex 29.0575 7.4607 0
    endloop
  endfacet
  facet normal 0.98229 0.187369 0
    outer loop
      vertex 29.0575 7.4607 -7
      vertex 29.7634 3.76 0
      vertex 29.7634 3.76 -7
    endloop
  endfacet
  facet normal 0.770514 0.637423 0
    outer loop
      vertex 24.2705 17.6336 0
      vertex 21.8691 20.5364 -7
      vertex 21.8691 20.5364 0
    endloop
  endfacet
  facet normal 0.770514 0.637423 0
    outer loop
      vertex 21.8691 20.5364 -7
      vertex 24.2705 17.6336 0
      vertex 24.2705 17.6336 -7
    endloop
  endfacet
  facet normal 0.125337 0.992114 -0
    outer loop
      vertex 5.62144 29.4686 -7
      vertex 1.88371 29.9408 0
      vertex 5.62144 29.4686 0
    endloop
  endfacet
  facet normal 0.125337 0.992114 0
    outer loop
      vertex 1.88371 29.9408 0
      vertex 5.62144 29.4686 -7
      vertex 1.88371 29.9408 -7
    endloop
  endfacet
  facet normal -0.904828 0.425778 0
    outer loop
      vertex -27.8933 11.0437 -7
      vertex -26.2892 14.4526 0
      vertex -26.2892 14.4526 -7
    endloop
  endfacet
  facet normal -0.904828 0.425778 0
    outer loop
      vertex -26.2892 14.4526 0
      vertex -27.8933 11.0437 -7
      vertex -27.8933 11.0437 0
    endloop
  endfacet
  facet normal -0.98229 0.187369 0
    outer loop
      vertex -29.7634 3.76 -7
      vertex -29.0575 7.4607 0
      vertex -29.0575 7.4607 -7
    endloop
  endfacet
  facet normal -0.98229 0.187369 0
    outer loop
      vertex -29.0575 7.4607 0
      vertex -29.7634 3.76 -7
      vertex -29.7634 3.76 0
    endloop
  endfacet
  facet normal 0 0 1
    outer loop
      vertex 5.91425 0 0
      vertex 30 0 0
      vertex 29.7634 3.76 0
    endloop
  endfacet
  facet normal 0 0 1
    outer loop
      vertex 5.91425 0 0
      vertex 29.7634 3.76 0
      vertex 29.0575 7.4607 0
    endloop
  endfacet
  facet normal 0 0 1
    outer loop
      vertex 30 0 0
      vertex 5.91425 0 0
      vertex 29.7634 -3.76 0
    endloop
  endfacet
  facet normal 0 0 1
    outer loop
      vertex 5.91425 0 0
      vertex 29.0575 7.4607 0
      vertex 27.8933 11.0437 0
    endloop
  endfacet
  facet normal 0 0 1
    outer loop
      vertex 29.7634 -3.76 0
      vertex 5.91425 0 0
      vertex 29.0575 -7.4607 0
    endloop
  endfacet
  facet normal 0 0 1
    outer loop
      vertex 5.91425 0 0
      vertex 27.8933 11.0437 0
      vertex 26.2892 14.4526 0
    endloop
  endfacet
  facet normal 0 0 1
    outer loop
      vertex 29.0575 -7.4607 0
      vertex 5.91425 0 0
      vertex 27.8933 -11.0437 0
    endloop
  endfacet
  facet normal 0 0 1
    outer loop
      vertex 2.95712 5.12189 0
      vertex 26.2892 14.4526 0
      vertex 24.2705 17.6336 0
    endloop
  endfacet
  facet normal 0 0 1
    outer loop
      vertex 27.8933 -11.0437 0
      vertex 5.91425 0 0
      vertex 26.2892 -14.4526 0
    endloop
  endfacet
  facet normal 0 0 1
    outer loop
      vertex 2.95712 5.12189 0
      vertex 24.2705 17.6336 0
      vertex 21.8691 20.5364 0
    endloop
  endfacet
  facet normal -0 0 1
    outer loop
      vertex 2.95712 -5.12189 0
      vertex 26.2892 -14.4526 0
      vertex 5.91425 0 0
    endloop
  endfacet
  facet normal 0 0 1
    outer loop
      vertex 2.95712 5.12189 0
      vertex 21.8691 20.5364 0
      vertex 19.1227 23.1154 0
    endloop
  endfacet
  facet normal 0 0 1
    outer loop
      vertex 26.2892 -14.4526 0
      vertex 2.95712 -5.12189 0
      vertex 24.2705 -17.6336 0
    endloop
  endfacet
  facet normal 0 0 1
    outer loop
      vertex 2.95712 5.12189 0
      vertex 19.1227 23.1154 0
      vertex 16.0748 25.3298 0
    endloop
  endfacet
  facet normal 0 0 1
    outer loop
      vertex 24.2705 -17.6336 0
      vertex 2.95712 -5.12189 0
      vertex 21.8691 -20.5364 0
    endloop
  endfacet
  facet normal 0 0 1
    outer loop
      vertex 2.95712 5.12189 0
      vertex 16.0748 25.3298 0
      vertex 12.7734 27.1448 0
    endloop
  endfacet
  facet normal 0 0 1
    outer loop
      vertex 21.8691 -20.5364 0
      vertex 2.95712 -5.12189 0
      vertex 19.1227 -23.1154 0
    endloop
  endfacet
  facet normal 0 0 1
    outer loop
      vertex 2.95712 5.12189 0
      vertex 12.7734 27.1448 0
      vertex 9.27051 28.5317 0
    endloop
  endfacet
  facet normal 0 0 1
    outer loop
      vertex 19.1227 -23.1154 0
      vertex 2.95712 -5.12189 0
      vertex 16.0748 -25.3298 0
    endloop
  endfacet
  facet normal 0 0 1
    outer loop
      vertex 16.0748 -25.3298 0
      vertex 2.95712 -5.12189 0
      vertex 12.7734 -27.1448 0
    endloop
  endfacet
  facet normal 0 0 1
    outer loop
      vertex 2.95712 5.12189 0
      vertex 9.27051 28.5317 0
      vertex 5.62144 29.4686 0
    endloop
  endfacet
  facet normal 0 0 1
    outer loop
      vertex 26.2892 14.4526 0
      vertex 2.95712 5.12189 0
      vertex 5.91425 0 0
    endloop
  endfacet
  facet normal 0 0 1
    outer loop
      vertex 1.88371 29.9408 0
      vertex 2.95712 5.12189 0
      vertex 5.62144 29.4686 0
    endloop
  endfacet
  facet normal -0 0 1
    outer loop
      vertex -1.88371 29.9408 0
      vertex 2.95712 5.12189 0
      vertex 1.88371 29.9408 0
    endloop
  endfacet
  facet normal 0 0 1
    outer loop
      vertex -1.88371 29.9408 0
      vertex -2.95712 5.12189 0
      vertex 2.95712 5.12189 0
    endloop
  endfacet
  facet normal -0 0 1
    outer loop
      vertex -5.62144 29.4686 0
      vertex -2.95712 5.12189 0
      vertex -1.88371 29.9408 0
    endloop
  endfacet
  facet normal -0 0 1
    outer loop
      vertex -9.27051 28.5317 0
      vertex -2.95712 5.12189 0
      vertex -5.62144 29.4686 0
    endloop
  endfacet
  facet normal -0 0 1
    outer loop
      vertex -12.7734 27.1448 0
      vertex -2.95712 5.12189 0
      vertex -9.27051 28.5317 0
    endloop
  endfacet
  facet normal 0 0 1
    outer loop
      vertex 12.7734 -27.1448 0
      vertex 2.95712 -5.12189 0
      vertex 9.27051 -28.5317 0
    endloop
  endfacet
  facet normal 0 0 1
    outer loop
      vertex 9.27051 -28.5317 0
      vertex 2.95712 -5.12189 0
      vertex 5.62144 -29.4686 0
    endloop
  endfacet
  facet normal 0 0 1
    outer loop
      vertex 2.95712 -5.12189 0
      vertex 1.88371 -29.9408 0
      vertex 5.62144 -29.4686 0
    endloop
  endfacet
  facet normal 0 0 1
    outer loop
      vertex 2.95712 -5.12189 0
      vertex -1.88371 -29.9408 0
      vertex 1.88371 -29.9408 0
    endloop
  endfacet
  facet normal -0 0 1
    outer loop
      vertex -2.95712 -5.12189 0
      vertex -1.88371 -29.9408 0
      vertex 2.95712 -5.12189 0
    endloop
  endfacet
  facet normal 0 0 1
    outer loop
      vertex -2.95712 -5.12189 0
      vertex -5.62144 -29.4686 0
      vertex -1.88371 -29.9408 0
    endloop
  endfacet
  facet normal 0 0 1
    outer loop
      vertex -26.2892 -14.4526 0
      vertex -2.95712 -5.12189 0
      vertex -5.91425 0 0
    endloop
  endfacet
  facet normal -0 0 1
    outer loop
      vertex -16.0748 25.3298 0
      vertex -2.95712 5.12189 0
      vertex -12.7734 27.1448 0
    endloop
  endfacet
  facet normal 0 0 1
    outer loop
      vertex -2.95712 -5.12189 0
      vertex -9.27051 -28.5317 0
      vertex -5.62144 -29.4686 0
    endloop
  endfacet
  facet normal -0 0 1
    outer loop
      vertex -19.1227 23.1154 0
      vertex -2.95712 5.12189 0
      vertex -16.0748 25.3298 0
    endloop
  endfacet
  facet normal 0 0 1
    outer loop
      vertex -2.95712 -5.12189 0
      vertex -12.7734 -27.1448 0
      vertex -9.27051 -28.5317 0
    endloop
  endfacet
  facet normal -0 0 1
    outer loop
      vertex -21.8691 20.5364 0
      vertex -2.95712 5.12189 0
      vertex -19.1227 23.1154 0
    endloop
  endfacet
  facet normal 0 0 1
    outer loop
      vertex -2.95712 -5.12189 0
      vertex -16.0748 -25.3298 0
      vertex -12.7734 -27.1448 0
    endloop
  endfacet
  facet normal -0 0 1
    outer loop
      vertex -24.2705 17.6336 0
      vertex -2.95712 5.12189 0
      vertex -21.8691 20.5364 0
    endloop
  endfacet
  facet normal 0 0 1
    outer loop
      vertex -2.95712 -5.12189 0
      vertex -19.1227 -23.1154 0
      vertex -16.0748 -25.3298 0
    endloop
  endfacet
  facet normal -0 0 1
    outer loop
      vertex -26.2892 14.4526 0
      vertex -2.95712 5.12189 0
      vertex -24.2705 17.6336 0
    endloop
  endfacet
  facet normal 0 0 1
    outer loop
      vertex -2.95712 -5.12189 0
      vertex -21.8691 -20.5364 0
      vertex -19.1227 -23.1154 0
    endloop
  endfacet
  facet normal 0 0 1
    outer loop
      vertex -2.95712 5.12189 0
      vertex -26.2892 14.4526 0
      vertex -5.91425 0 0
    endloop
  endfacet
  facet normal 0 0 1
    outer loop
      vertex -2.95712 -5.12189 0
      vertex -24.2705 -17.6336 0
      vertex -21.8691 -20.5364 0
    endloop
  endfacet
  facet normal -0 0 1
    outer loop
      vertex -27.8933 11.0437 0
      vertex -5.91425 0 0
      vertex -26.2892 14.4526 0
    endloop
  endfacet
  facet normal 0 0 1
    outer loop
      vertex -2.95712 -5.12189 0
      vertex -26.2892 -14.4526 0
      vertex -24.2705 -17.6336 0
    endloop
  endfacet
  facet normal -0 0 1
    outer loop
      vertex -29.0575 7.4607 0
      vertex -5.91425 0 0
      vertex -27.8933 11.0437 0
    endloop
  endfacet
  facet normal 0 0 1
    outer loop
      vertex -5.91425 0 0
      vertex -27.8933 -11.0437 0
      vertex -26.2892 -14.4526 0
    endloop
  endfacet
  facet normal -0 0 1
    outer loop
      vertex -29.7634 3.76 0
      vertex -5.91425 0 0
      vertex -29.0575 7.4607 0
    endloop
  endfacet
  facet normal 0 0 1
    outer loop
      vertex -5.91425 0 0
      vertex -29.0575 -7.4607 0
      vertex -27.8933 -11.0437 0
    endloop
  endfacet
  facet normal 0 0 1
    outer loop
      vertex -30 0 0
      vertex -5.91425 0 0
      vertex -29.7634 3.76 0
    endloop
  endfacet
  facet normal 0 0 1
    outer loop
      vertex -5.91425 0 0
      vertex -29.7634 -3.76 0
      vertex -29.0575 -7.4607 0
    endloop
  endfacet
  facet normal 0 0 1
    outer loop
      vertex -5.91425 0 0
      vertex -30 0 0
      vertex -29.7634 -3.76 0
    endloop
  endfacet
  facet normal -0.125337 0.992114 0
    outer loop
      vertex -1.88371 29.9408 -7
      vertex -5.62144 29.4686 0
      vertex -1.88371 29.9408 0
    endloop
  endfacet
  facet normal -0.125337 0.992114 0
    outer loop
      vertex -5.62144 29.4686 0
      vertex -1.88371 29.9408 -7
      vertex -5.62144 29.4686 -7
    endloop
  endfacet
  facet normal 0.998026 -0.0628013 0
    outer loop
      vertex 29.7634 -3.76 0
      vertex 30 0 -7
      vertex 30 0 0
    endloop
  endfacet
  facet normal 0.998026 -0.0628013 0
    outer loop
      vertex 30 0 -7
      vertex 29.7634 -3.76 0
      vertex 29.7634 -3.76 -7
    endloop
  endfacet
  facet normal 0.770514 -0.637423 0
    outer loop
      vertex 21.8691 -20.5364 0
      vertex 24.2705 -17.6336 -7
      vertex 24.2705 -17.6336 0
    endloop
  endfacet
  facet normal 0.770514 -0.637423 0
    outer loop
      vertex 24.2705 -17.6336 -7
      vertex 21.8691 -20.5364 0
      vertex 21.8691 -20.5364 -7
    endloop
  endfacet
  facet normal 0.951056 -0.30902 0
    outer loop
      vertex 27.8933 -11.0437 0
      vertex 29.0575 -7.4607 -7
      vertex 29.0575 -7.4607 0
    endloop
  endfacet
  facet normal 0.951056 -0.30902 0
    outer loop
      vertex 29.0575 -7.4607 -7
      vertex 27.8933 -11.0437 0
      vertex 27.8933 -11.0437 -7
    endloop
  endfacet
  facet normal 0.98229 -0.187369 0
    outer loop
      vertex 29.0575 -7.4607 0
      vertex 29.7634 -3.76 -7
      vertex 29.7634 -3.76 0
    endloop
  endfacet
  facet normal 0.98229 -0.187369 0
    outer loop
      vertex 29.7634 -3.76 -7
      vertex 29.0575 -7.4607 0
      vertex 29.0575 -7.4607 -7
    endloop
  endfacet
  facet normal -0.368126 -0.929776 0
    outer loop
      vertex -12.7734 -27.1448 -7
      vertex -9.27051 -28.5317 0
      vertex -12.7734 -27.1448 0
    endloop
  endfacet
  facet normal -0.368126 -0.929776 -0
    outer loop
      vertex -9.27051 -28.5317 0
      vertex -12.7734 -27.1448 -7
      vertex -9.27051 -28.5317 -7
    endloop
  endfacet
  facet normal 0 0 -1
    outer loop
      vertex 3.25 0 -7
      vertex 30 0 -7
      vertex 29.7634 -3.76 -7
    endloop
  endfacet
  facet normal 0 0 -1
    outer loop
      vertex 3.22437 -0.407332 -7
      vertex 29.7634 -3.76 -7
      vertex 29.0575 -7.4607 -7
    endloop
  endfacet
  facet normal 0 0 -1
    outer loop
      vertex 30 0 -7
      vertex 3.25 0 -7
      vertex 29.7634 3.76 -7
    endloop
  endfacet
  facet normal 0 0 -1
    outer loop
      vertex 3.14789 -0.808242 -7
      vertex 29.0575 -7.4607 -7
      vertex 27.8933 -11.0437 -7
    endloop
  endfacet
  facet normal 0 0 -1
    outer loop
      vertex 3.22437 0.407332 -7
      vertex 29.7634 3.76 -7
      vertex 3.25 0 -7
    endloop
  endfacet
  facet normal 0 0 -1
    outer loop
      vertex 3.02177 -1.1964 -7
      vertex 27.8933 -11.0437 -7
      vertex 26.2892 -14.4526 -7
    endloop
  endfacet
  facet normal -0 0 -1
    outer loop
      vertex 29.7634 3.76 -7
      vertex 3.22437 0.407332 -7
      vertex 29.0575 7.4607 -7
    endloop
  endfacet
  facet normal 0 0 -1
    outer loop
      vertex 2.848 -1.5657 -7
      vertex 26.2892 -14.4526 -7
      vertex 24.2705 -17.6336 -7
    endloop
  endfacet
  facet normal 0 0 -1
    outer loop
      vertex 3.14789 0.808242 -7
      vertex 29.0575 7.4607 -7
      vertex 3.22437 0.407332 -7
    endloop
  endfacet
  facet normal 0 0 -1
    outer loop
      vertex 2.6293 -1.9103 -7
      vertex 24.2705 -17.6336 -7
      vertex 21.8691 -20.5364 -7
    endloop
  endfacet
  facet normal -0 0 -1
    outer loop
      vertex 29.0575 7.4607 -7
      vertex 3.14789 0.808242 -7
      vertex 27.8933 11.0437 -7
    endloop
  endfacet
  facet normal 0 0 -1
    outer loop
      vertex 2.36915 -2.22478 -7
      vertex 21.8691 -20.5364 -7
      vertex 19.1227 -23.1154 -7
    endloop
  endfacet
  facet normal 0 0 -1
    outer loop
      vertex 3.02177 1.1964 -7
      vertex 27.8933 11.0437 -7
      vertex 3.14789 0.808242 -7
    endloop
  endfacet
  facet normal 0 0 -1
    outer loop
      vertex 2.07163 -2.50417 -7
      vertex 19.1227 -23.1154 -7
      vertex 16.0748 -25.3298 -7
    endloop
  endfacet
  facet normal -0 0 -1
    outer loop
      vertex 27.8933 11.0437 -7
      vertex 3.02177 1.1964 -7
      vertex 26.2892 14.4526 -7
    endloop
  endfacet
  facet normal 0 0 -1
    outer loop
      vertex 1.74144 -2.74407 -7
      vertex 16.0748 -25.3298 -7
      vertex 12.7734 -27.1448 -7
    endloop
  endfacet
  facet normal 0 0 -1
    outer loop
      vertex 2.848 1.5657 -7
      vertex 26.2892 14.4526 -7
      vertex 3.02177 1.1964 -7
    endloop
  endfacet
  facet normal 0 0 -1
    outer loop
      vertex 1.38378 -2.94069 -7
      vertex 12.7734 -27.1448 -7
      vertex 9.27051 -28.5317 -7
    endloop
  endfacet
  facet normal -0 0 -1
    outer loop
      vertex 26.2892 14.4526 -7
      vertex 2.848 1.5657 -7
      vertex 24.2705 17.6336 -7
    endloop
  endfacet
  facet normal 0 0 -1
    outer loop
      vertex 1.0043 -3.09093 -7
      vertex 9.27051 -28.5317 -7
      vertex 5.62144 -29.4686 -7
    endloop
  endfacet
  facet normal 0 0 -1
    outer loop
      vertex 2.6293 1.9103 -7
      vertex 24.2705 17.6336 -7
      vertex 2.848 1.5657 -7
    endloop
  endfacet
  facet normal -0 0 -1
    outer loop
      vertex 24.2705 17.6336 -7
      vertex 2.6293 1.9103 -7
      vertex 21.8691 20.5364 -7
    endloop
  endfacet
  facet normal 0 0 -1
    outer loop
      vertex 29.7634 -3.76 -7
      vertex 3.22437 -0.407332 -7
      vertex 3.25 0 -7
    endloop
  endfacet
  facet normal 0 0 -1
    outer loop
      vertex 29.0575 -7.4607 -7
      vertex 3.14789 -0.808242 -7
      vertex 3.22437 -0.407332 -7
    endloop
  endfacet
  facet normal 0 0 -1
    outer loop
      vertex 27.8933 -11.0437 -7
      vertex 3.02177 -1.1964 -7
      vertex 3.14789 -0.808242 -7
    endloop
  endfacet
  facet normal 0 0 -1
    outer loop
      vertex 26.2892 -14.4526 -7
      vertex 2.848 -1.5657 -7
      vertex 3.02177 -1.1964 -7
    endloop
  endfacet
  facet normal 0 0 -1
    outer loop
      vertex 24.2705 -17.6336 -7
      vertex 2.6293 -1.9103 -7
      vertex 2.848 -1.5657 -7
    endloop
  endfacet
  facet normal 0 0 -1
    outer loop
      vertex 21.8691 -20.5364 -7
      vertex 2.36915 -2.22478 -7
      vertex 2.6293 -1.9103 -7
    endloop
  endfacet
  facet normal 0 0 -1
    outer loop
      vertex 19.1227 -23.1154 -7
      vertex 2.07163 -2.50417 -7
      vertex 2.36915 -2.22478 -7
    endloop
  endfacet
  facet normal 0 0 -1
    outer loop
      vertex 0.608989 -3.19243 -7
      vertex 5.62144 -29.4686 -7
      vertex 1.88371 -29.9408 -7
    endloop
  endfacet
  facet normal 0 0 -1
    outer loop
      vertex 16.0748 -25.3298 -7
      vertex 1.74144 -2.74407 -7
      vertex 2.07163 -2.50417 -7
    endloop
  endfacet
  facet normal 0 0 -1
    outer loop
      vertex 12.7734 -27.1448 -7
      vertex 1.38378 -2.94069 -7
      vertex 1.74144 -2.74407 -7
    endloop
  endfacet
  facet normal 0 0 -1
    outer loop
      vertex 9.27051 -28.5317 -7
      vertex 1.0043 -3.09093 -7
      vertex 1.38378 -2.94069 -7
    endloop
  endfacet
  facet normal 0 0 -1
    outer loop
      vertex 5.62144 -29.4686 -7
      vertex 0.608989 -3.19243 -7
      vertex 1.0043 -3.09093 -7
    endloop
  endfacet
  facet normal 0 0 -1
    outer loop
      vertex 1.88371 -29.9408 -7
      vertex 0.204069 -3.24359 -7
      vertex 0.608989 -3.19243 -7
    endloop
  endfacet
  facet normal 0 0 -1
    outer loop
      vertex 1.88371 -29.9408 -7
      vertex -0.204069 -3.24359 -7
      vertex 0.204069 -3.24359 -7
    endloop
  endfacet
  facet normal 0 0 -1
    outer loop
      vertex -1.88371 -29.9408 -7
      vertex -0.204069 -3.24359 -7
      vertex 1.88371 -29.9408 -7
    endloop
  endfacet
  facet normal -0 0 -1
    outer loop
      vertex -0.204069 -3.24359 -7
      vertex -1.88371 -29.9408 -7
      vertex -0.608989 -3.19243 -7
    endloop
  endfacet
  facet normal 0 0 -1
    outer loop
      vertex -5.62144 -29.4686 -7
      vertex -0.608989 -3.19243 -7
      vertex -1.88371 -29.9408 -7
    endloop
  endfacet
  facet normal -0 0 -1
    outer loop
      vertex -0.608989 -3.19243 -7
      vertex -5.62144 -29.4686 -7
      vertex -1.0043 -3.09093 -7
    endloop
  endfacet
  facet normal 0 0 -1
    outer loop
      vertex -9.27051 -28.5317 -7
      vertex -1.0043 -3.09093 -7
      vertex -5.62144 -29.4686 -7
    endloop
  endfacet
  facet normal -0 0 -1
    outer loop
      vertex -1.0043 -3.09093 -7
      vertex -9.27051 -28.5317 -7
      vertex -1.38378 -2.94069 -7
    endloop
  endfacet
  facet normal 0 0 -1
    outer loop
      vertex -12.7734 -27.1448 -7
      vertex -1.38378 -2.94069 -7
      vertex -9.27051 -28.5317 -7
    endloop
  endfacet
  facet normal -0 0 -1
    outer loop
      vertex -1.38378 -2.94069 -7
      vertex -12.7734 -27.1448 -7
      vertex -1.74144 -2.74407 -7
    endloop
  endfacet
  facet normal 0 0 -1
    outer loop
      vertex -16.0748 -25.3298 -7
      vertex -1.74144 -2.74407 -7
      vertex -12.7734 -27.1448 -7
    endloop
  endfacet
  facet normal -0 0 -1
    outer loop
      vertex -1.74144 -2.74407 -7
      vertex -16.0748 -25.3298 -7
      vertex -2.07163 -2.50417 -7
    endloop
  endfacet
  facet normal 0 0 -1
    outer loop
      vertex -19.1227 -23.1154 -7
      vertex -2.07163 -2.50417 -7
      vertex -16.0748 -25.3298 -7
    endloop
  endfacet
  facet normal -0 0 -1
    outer loop
      vertex -2.07163 -2.50417 -7
      vertex -19.1227 -23.1154 -7
      vertex -2.36915 -2.22478 -7
    endloop
  endfacet
  facet normal 0 0 -1
    outer loop
      vertex -21.8691 -20.5364 -7
      vertex -2.36915 -2.22478 -7
      vertex -19.1227 -23.1154 -7
    endloop
  endfacet
  facet normal -0 0 -1
    outer loop
      vertex -2.36915 -2.22478 -7
      vertex -21.8691 -20.5364 -7
      vertex -2.6293 -1.9103 -7
    endloop
  endfacet
  facet normal 0 0 -1
    outer loop
      vertex 2.36915 2.22478 -7
      vertex 21.8691 20.5364 -7
      vertex 2.6293 1.9103 -7
    endloop
  endfacet
  facet normal -0 0 -1
    outer loop
      vertex 21.8691 20.5364 -7
      vertex 2.36915 2.22478 -7
      vertex 19.1227 23.1154 -7
    endloop
  endfacet
  facet normal 0 0 -1
    outer loop
      vertex 2.07163 2.50417 -7
      vertex 19.1227 23.1154 -7
      vertex 2.36915 2.22478 -7
    endloop
  endfacet
  facet normal -0 0 -1
    outer loop
      vertex 19.1227 23.1154 -7
      vertex 2.07163 2.50417 -7
      vertex 16.0748 25.3298 -7
    endloop
  endfacet
  facet normal 0 0 -1
    outer loop
      vertex 1.74144 2.74407 -7
      vertex 16.0748 25.3298 -7
      vertex 2.07163 2.50417 -7
    endloop
  endfacet
  facet normal -0 0 -1
    outer loop
      vertex 16.0748 25.3298 -7
      vertex 1.74144 2.74407 -7
      vertex 12.7734 27.1448 -7
    endloop
  endfacet
  facet normal 0 0 -1
    outer loop
      vertex 1.38378 2.94069 -7
      vertex 12.7734 27.1448 -7
      vertex 1.74144 2.74407 -7
    endloop
  endfacet
  facet normal -0 0 -1
    outer loop
      vertex 12.7734 27.1448 -7
      vertex 1.38378 2.94069 -7
      vertex 9.27051 28.5317 -7
    endloop
  endfacet
  facet normal 0 0 -1
    outer loop
      vertex 1.0043 3.09093 -7
      vertex 9.27051 28.5317 -7
      vertex 1.38378 2.94069 -7
    endloop
  endfacet
  facet normal -0 0 -1
    outer loop
      vertex 9.27051 28.5317 -7
      vertex 1.0043 3.09093 -7
      vertex 5.62144 29.4686 -7
    endloop
  endfacet
  facet normal 0 0 -1
    outer loop
      vertex 0.608989 3.19243 -7
      vertex 5.62144 29.4686 -7
      vertex 1.0043 3.09093 -7
    endloop
  endfacet
  facet normal -0 0 -1
    outer loop
      vertex 5.62144 29.4686 -7
      vertex 0.608989 3.19243 -7
      vertex 1.88371 29.9408 -7
    endloop
  endfacet
  facet normal 0 0 -1
    outer loop
      vertex 0.204069 3.24359 -7
      vertex 1.88371 29.9408 -7
      vertex 0.608989 3.19243 -7
    endloop
  endfacet
  facet normal 0 0 -1
    outer loop
      vertex -0.204069 3.24359 -7
      vertex 1.88371 29.9408 -7
      vertex 0.204069 3.24359 -7
    endloop
  endfacet
  facet normal 0 0 -1
    outer loop
      vertex -1.88371 29.9408 -7
      vertex -0.204069 3.24359 -7
      vertex -0.608989 3.19243 -7
    endloop
  endfacet
  facet normal 0 0 -1
    outer loop
      vertex -5.62144 29.4686 -7
      vertex -0.608989 3.19243 -7
      vertex -1.0043 3.09093 -7
    endloop
  endfacet
  facet normal 0 0 -1
    outer loop
      vertex -9.27051 28.5317 -7
      vertex -1.0043 3.09093 -7
      vertex -1.38378 2.94069 -7
    endloop
  endfacet
  facet normal 0 0 -1
    outer loop
      vertex -12.7734 27.1448 -7
      vertex -1.38378 2.94069 -7
      vertex -1.74144 2.74407 -7
    endloop
  endfacet
  facet normal 0 0 -1
    outer loop
      vertex -0.204069 3.24359 -7
      vertex -1.88371 29.9408 -7
      vertex 1.88371 29.9408 -7
    endloop
  endfacet
  facet normal 0 0 -1
    outer loop
      vertex -16.0748 25.3298 -7
      vertex -1.74144 2.74407 -7
      vertex -2.07163 2.50417 -7
    endloop
  endfacet
  facet normal 0 0 -1
    outer loop
      vertex -19.1227 23.1154 -7
      vertex -2.07163 2.50417 -7
      vertex -2.36915 2.22478 -7
    endloop
  endfacet
  facet normal 0 0 -1
    outer loop
      vertex -21.8691 20.5364 -7
      vertex -2.36915 2.22478 -7
      vertex -2.6293 1.9103 -7
    endloop
  endfacet
  facet normal 0 0 -1
    outer loop
      vertex -24.2705 17.6336 -7
      vertex -2.6293 1.9103 -7
      vertex -2.848 1.5657 -7
    endloop
  endfacet
  facet normal 0 0 -1
    outer loop
      vertex -26.2892 14.4526 -7
      vertex -2.848 1.5657 -7
      vertex -3.02177 1.1964 -7
    endloop
  endfacet
  facet normal 0 0 -1
    outer loop
      vertex -27.8933 11.0437 -7
      vertex -3.02177 1.1964 -7
      vertex -3.14789 0.808242 -7
    endloop
  endfacet
  facet normal 0 0 -1
    outer loop
      vertex -29.0575 7.4607 -7
      vertex -3.14789 0.808242 -7
      vertex -3.22437 0.407332 -7
    endloop
  endfacet
  facet normal 0 0 -1
    outer loop
      vertex -29.7634 3.76 -7
      vertex -3.22437 0.407332 -7
      vertex -3.25 0 -7
    endloop
  endfacet
  facet normal 0 0 -1
    outer loop
      vertex -24.2705 -17.6336 -7
      vertex -2.6293 -1.9103 -7
      vertex -21.8691 -20.5364 -7
    endloop
  endfacet
  facet normal 0 0 -1
    outer loop
      vertex -0.608989 3.19243 -7
      vertex -5.62144 29.4686 -7
      vertex -1.88371 29.9408 -7
    endloop
  endfacet
  facet normal -0 0 -1
    outer loop
      vertex -2.6293 -1.9103 -7
      vertex -24.2705 -17.6336 -7
      vertex -2.848 -1.5657 -7
    endloop
  endfacet
  facet normal 0 0 -1
    outer loop
      vertex -1.0043 3.09093 -7
      vertex -9.27051 28.5317 -7
      vertex -5.62144 29.4686 -7
    endloop
  endfacet
  facet normal 0 0 -1
    outer loop
      vertex -26.2892 -14.4526 -7
      vertex -2.848 -1.5657 -7
      vertex -24.2705 -17.6336 -7
    endloop
  endfacet
  facet normal 0 0 -1
    outer loop
      vertex -1.38378 2.94069 -7
      vertex -12.7734 27.1448 -7
      vertex -9.27051 28.5317 -7
    endloop
  endfacet
  facet normal -0 0 -1
    outer loop
      vertex -2.848 -1.5657 -7
      vertex -26.2892 -14.4526 -7
      vertex -3.02177 -1.1964 -7
    endloop
  endfacet
  facet normal 0 0 -1
    outer loop
      vertex -1.74144 2.74407 -7
      vertex -16.0748 25.3298 -7
      vertex -12.7734 27.1448 -7
    endloop
  endfacet
  facet normal 0 0 -1
    outer loop
      vertex -27.8933 -11.0437 -7
      vertex -3.02177 -1.1964 -7
      vertex -26.2892 -14.4526 -7
    endloop
  endfacet
  facet normal 0 0 -1
    outer loop
      vertex -2.07163 2.50417 -7
      vertex -19.1227 23.1154 -7
      vertex -16.0748 25.3298 -7
    endloop
  endfacet
  facet normal -0 0 -1
    outer loop
      vertex -3.02177 -1.1964 -7
      vertex -27.8933 -11.0437 -7
      vertex -3.14789 -0.808242 -7
    endloop
  endfacet
  facet normal 0 0 -1
    outer loop
      vertex -2.36915 2.22478 -7
      vertex -21.8691 20.5364 -7
      vertex -19.1227 23.1154 -7
    endloop
  endfacet
  facet normal 0 0 -1
    outer loop
      vertex -29.0575 -7.4607 -7
      vertex -3.14789 -0.808242 -7
      vertex -27.8933 -11.0437 -7
    endloop
  endfacet
  facet normal 0 0 -1
    outer loop
      vertex -2.6293 1.9103 -7
      vertex -24.2705 17.6336 -7
      vertex -21.8691 20.5364 -7
    endloop
  endfacet
  facet normal -0 0 -1
    outer loop
      vertex -3.14789 -0.808242 -7
      vertex -29.0575 -7.4607 -7
      vertex -3.22437 -0.407332 -7
    endloop
  endfacet
  facet normal 0 0 -1
    outer loop
      vertex -2.848 1.5657 -7
      vertex -26.2892 14.4526 -7
      vertex -24.2705 17.6336 -7
    endloop
  endfacet
  facet normal 0 0 -1
    outer loop
      vertex -29.7634 -3.76 -7
      vertex -3.22437 -0.407332 -7
      vertex -29.0575 -7.4607 -7
    endloop
  endfacet
  facet normal 0 0 -1
    outer loop
      vertex -3.02177 1.1964 -7
      vertex -27.8933 11.0437 -7
      vertex -26.2892 14.4526 -7
    endloop
  endfacet
  facet normal -0 0 -1
    outer loop
      vertex -3.22437 -0.407332 -7
      vertex -29.7634 -3.76 -7
      vertex -3.25 0 -7
    endloop
  endfacet
  facet normal 0 0 -1
    outer loop
      vertex -3.14789 0.808242 -7
      vertex -29.0575 7.4607 -7
      vertex -27.8933 11.0437 -7
    endloop
  endfacet
  facet normal 0 0 -1
    outer loop
      vertex -30 0 -7
      vertex -3.25 0 -7
      vertex -29.7634 -3.76 -7
    endloop
  endfacet
  facet normal 0 0 -1
    outer loop
      vertex -3.22437 0.407332 -7
      vertex -29.7634 3.76 -7
      vertex -29.0575 7.4607 -7
    endloop
  endfacet
  facet normal 0 0 -1
    outer loop
      vertex -3.25 0 -7
      vertex -30 0 -7
      vertex -29.7634 3.76 -7
    endloop
  endfacet
  facet normal 0.368126 -0.929776 0
    outer loop
      vertex 9.27051 -28.5317 -7
      vertex 12.7734 -27.1448 0
      vertex 9.27051 -28.5317 0
    endloop
  endfacet
  facet normal 0.368126 -0.929776 0
    outer loop
      vertex 12.7734 -27.1448 0
      vertex 9.27051 -28.5317 -7
      vertex 12.7734 -27.1448 -7
    endloop
  endfacet
  facet normal 0.481762 0.876302 -0
    outer loop
      vertex 16.0748 25.3298 -7
      vertex 12.7734 27.1448 0
      vertex 16.0748 25.3298 0
    endloop
  endfacet
  facet normal 0.481762 0.876302 0
    outer loop
      vertex 12.7734 27.1448 0
      vertex 16.0748 25.3298 -7
      vertex 12.7734 27.1448 -7
    endloop
  endfacet
  facet normal -0.58778 0.809021 0
    outer loop
      vertex -16.0748 25.3298 -7
      vertex -19.1227 23.1154 0
      vertex -16.0748 25.3298 0
    endloop
  endfacet
  facet normal -0.58778 0.809021 0
    outer loop
      vertex -19.1227 23.1154 0
      vertex -16.0748 25.3298 -7
      vertex -19.1227 23.1154 -7
    endloop
  endfacet
  facet normal 0.481762 -0.876302 0
    outer loop
      vertex 12.7734 -27.1448 -7
      vertex 16.0748 -25.3298 0
      vertex 12.7734 -27.1448 0
    endloop
  endfacet
  facet normal 0.481762 -0.876302 0
    outer loop
      vertex 16.0748 -25.3298 0
      vertex 12.7734 -27.1448 -7
      vertex 16.0748 -25.3298 -7
    endloop
  endfacet
  facet normal 0.844331 -0.535822 0
    outer loop
      vertex 24.2705 -17.6336 0
      vertex 26.2892 -14.4526 -7
      vertex 26.2892 -14.4526 0
    endloop
  endfacet
  facet normal 0.844331 -0.535822 0
    outer loop
      vertex 26.2892 -14.4526 -7
      vertex 24.2705 -17.6336 0
      vertex 24.2705 -17.6336 -7
    endloop
  endfacet
  facet normal -0.248684 -0.968585 0
    outer loop
      vertex -9.27051 -28.5317 -7
      vertex -5.62144 -29.4686 0
      vertex -9.27051 -28.5317 0
    endloop
  endfacet
  facet normal -0.248684 -0.968585 -0
    outer loop
      vertex -5.62144 -29.4686 0
      vertex -9.27051 -28.5317 -7
      vertex -5.62144 -29.4686 -7
    endloop
  endfacet
  facet normal -0.770514 -0.637423 0
    outer loop
      vertex -21.8691 -20.5364 -7
      vertex -24.2705 -17.6336 0
      vertex -24.2705 -17.6336 -7
    endloop
  endfacet
  facet normal -0.770514 -0.637423 0
    outer loop
      vertex -24.2705 -17.6336 0
      vertex -21.8691 -20.5364 -7
      vertex -21.8691 -20.5364 0
    endloop
  endfacet
  facet normal -0.951056 -0.30902 0
    outer loop
      vertex -27.8933 -11.0437 -7
      vertex -29.0575 -7.4607 0
      vertex -29.0575 -7.4607 -7
    endloop
  endfacet
  facet normal -0.951056 -0.30902 0
    outer loop
      vertex -29.0575 -7.4607 0
      vertex -27.8933 -11.0437 -7
      vertex -27.8933 -11.0437 0
    endloop
  endfacet
  facet normal 0.248684 -0.968585 0
    outer loop
      vertex 5.62144 -29.4686 -7
      vertex 9.27051 -28.5317 0
      vertex 5.62144 -29.4686 0
    endloop
  endfacet
  facet normal 0.248684 -0.968585 0
    outer loop
      vertex 9.27051 -28.5317 0
      vertex 5.62144 -29.4686 -7
      vertex 9.27051 -28.5317 -7
    endloop
  endfacet
  facet normal 0.904828 -0.425778 0
    outer loop
      vertex 26.2892 -14.4526 0
      vertex 27.8933 -11.0437 -7
      vertex 27.8933 -11.0437 0
    endloop
  endfacet
  facet normal 0.904828 -0.425778 0
    outer loop
      vertex 27.8933 -11.0437 -7
      vertex 26.2892 -14.4526 0
      vertex 26.2892 -14.4526 -7
    endloop
  endfacet
  facet normal -0.125337 -0.992114 0
    outer loop
      vertex -5.62144 -29.4686 -7
      vertex -1.88371 -29.9408 0
      vertex -5.62144 -29.4686 0
    endloop
  endfacet
  facet normal -0.125337 -0.992114 -0
    outer loop
      vertex -1.88371 -29.9408 0
      vertex -5.62144 -29.4686 -7
      vertex -1.88371 -29.9408 -7
    endloop
  endfacet
  facet normal -0.481762 -0.876302 0
    outer loop
      vertex -16.0748 -25.3298 -7
      vertex -12.7734 -27.1448 0
      vertex -16.0748 -25.3298 0
    endloop
  endfacet
  facet normal -0.481762 -0.876302 -0
    outer loop
      vertex -12.7734 -27.1448 0
      vertex -16.0748 -25.3298 -7
      vertex -12.7734 -27.1448 -7
    endloop
  endfacet
  facet normal -0.844331 -0.535822 0
    outer loop
      vertex -24.2705 -17.6336 -7
      vertex -26.2892 -14.4526 0
      vertex -26.2892 -14.4526 -7
    endloop
  endfacet
  facet normal -0.844331 -0.535822 0
    outer loop
      vertex -26.2892 -14.4526 0
      vertex -24.2705 -17.6336 -7
      vertex -24.2705 -17.6336 0
    endloop
  endfacet
  facet normal -0.904828 -0.425778 0
    outer loop
      vertex -26.2892 -14.4526 -7
      vertex -27.8933 -11.0437 0
      vertex -27.8933 -11.0437 -7
    endloop
  endfacet
  facet normal -0.904828 -0.425778 0
    outer loop
      vertex -27.8933 -11.0437 0
      vertex -26.2892 -14.4526 -7
      vertex -26.2892 -14.4526 0
    endloop
  endfacet
  facet normal -0.98229 -0.187369 0
    outer loop
      vertex -29.0575 -7.4607 -7
      vertex -29.7634 -3.76 0
      vertex -29.7634 -3.76 -7
    endloop
  endfacet
  facet normal -0.98229 -0.187369 0
    outer loop
      vertex -29.7634 -3.76 0
      vertex -29.0575 -7.4607 -7
      vertex -29.0575 -7.4607 0
    endloop
  endfacet
  facet normal -0.998026 -0.0628013 0
    outer loop
      vertex -29.7634 -3.76 -7
      vertex -30 0 0
      vertex -30 0 -7
    endloop
  endfacet
  facet normal -0.998026 -0.0628013 0
    outer loop
      vertex -30 0 0
      vertex -29.7634 -3.76 -7
      vertex -29.7634 -3.76 0
    endloop
  endfacet
  facet normal 0.684541 -0.728974 0
    outer loop
      vertex 19.1227 -23.1154 -7
      vertex 21.8691 -20.5364 0
      vertex 19.1227 -23.1154 0
    endloop
  endfacet
  facet normal 0.684541 -0.728974 0
    outer loop
      vertex 21.8691 -20.5364 0
      vertex 19.1227 -23.1154 -7
      vertex 21.8691 -20.5364 -7
    endloop
  endfacet
  facet normal 0.58778 -0.809021 0
    outer loop
      vertex 16.0748 -25.3298 -7
      vertex 19.1227 -23.1154 0
      vertex 16.0748 -25.3298 0
    endloop
  endfacet
  facet normal 0.58778 -0.809021 0
    outer loop
      vertex 19.1227 -23.1154 0
      vertex 16.0748 -25.3298 -7
      vertex 19.1227 -23.1154 -7
    endloop
  endfacet
  facet normal -0.684541 -0.728974 0
    outer loop
      vertex -21.8691 -20.5364 -7
      vertex -19.1227 -23.1154 0
      vertex -21.8691 -20.5364 0
    endloop
  endfacet
  facet normal -0.684541 -0.728974 -0
    outer loop
      vertex -19.1227 -23.1154 0
      vertex -21.8691 -20.5364 -7
      vertex -19.1227 -23.1154 -7
    endloop
  endfacet
  facet normal -0.58778 -0.809021 0
    outer loop
      vertex -19.1227 -23.1154 -7
      vertex -16.0748 -25.3298 0
      vertex -19.1227 -23.1154 0
    endloop
  endfacet
  facet normal -0.58778 -0.809021 -0
    outer loop
      vertex -16.0748 -25.3298 0
      vertex -19.1227 -23.1154 -7
      vertex -16.0748 -25.3298 -7
    endloop
  endfacet
  facet normal 0 0 1
    outer loop
      vertex 5.91425 0 -5
      vertex 3.22437 0.407332 -5
      vertex 3.25 0 -5
    endloop
  endfacet
  facet normal 0 0 1
    outer loop
      vertex 5.91425 0 -5
      vertex 3.14789 0.808242 -5
      vertex 3.22437 0.407332 -5
    endloop
  endfacet
  facet normal 0 0 1
    outer loop
      vertex 5.91425 0 -5
      vertex 3.02177 1.1964 -5
      vertex 3.14789 0.808242 -5
    endloop
  endfacet
  facet normal -0 0 1
    outer loop
      vertex 2.848 1.5657 -5
      vertex 5.91425 0 -5
      vertex 2.95712 5.12189 -5
    endloop
  endfacet
  facet normal 0 0 1
    outer loop
      vertex 5.91425 0 -5
      vertex 2.848 1.5657 -5
      vertex 3.02177 1.1964 -5
    endloop
  endfacet
  facet normal 0 0 1
    outer loop
      vertex 2.95712 5.12189 -5
      vertex 2.6293 1.9103 -5
      vertex 2.848 1.5657 -5
    endloop
  endfacet
  facet normal 0 0 1
    outer loop
      vertex 2.95712 5.12189 -5
      vertex 2.36915 2.22478 -5
      vertex 2.6293 1.9103 -5
    endloop
  endfacet
  facet normal 0 0 1
    outer loop
      vertex 2.95712 5.12189 -5
      vertex 2.07163 2.50417 -5
      vertex 2.36915 2.22478 -5
    endloop
  endfacet
  facet normal 0 0 1
    outer loop
      vertex 2.95712 5.12189 -5
      vertex 1.74144 2.74407 -5
      vertex 2.07163 2.50417 -5
    endloop
  endfacet
  facet normal 0 0 1
    outer loop
      vertex 2.95712 5.12189 -5
      vertex 1.38378 2.94069 -5
      vertex 1.74144 2.74407 -5
    endloop
  endfacet
  facet normal 0 0 1
    outer loop
      vertex 2.95712 5.12189 -5
      vertex 1.0043 3.09093 -5
      vertex 1.38378 2.94069 -5
    endloop
  endfacet
  facet normal 0 0 1
    outer loop
      vertex 2.95712 5.12189 -5
      vertex 0.608989 3.19243 -5
      vertex 1.0043 3.09093 -5
    endloop
  endfacet
  facet normal 0 0 1
    outer loop
      vertex 2.95712 5.12189 -5
      vertex 0.204069 3.24359 -5
      vertex 0.608989 3.19243 -5
    endloop
  endfacet
  facet normal 0 0 1
    outer loop
      vertex 2.95712 5.12189 -5
      vertex -0.204069 3.24359 -5
      vertex 0.204069 3.24359 -5
    endloop
  endfacet
  facet normal -0 0 1
    outer loop
      vertex -2.95712 5.12189 -5
      vertex -0.204069 3.24359 -5
      vertex 2.95712 5.12189 -5
    endloop
  endfacet
  facet normal 0 0 1
    outer loop
      vertex -0.204069 3.24359 -5
      vertex -2.95712 5.12189 -5
      vertex -0.608989 3.19243 -5
    endloop
  endfacet
  facet normal 0 0 1
    outer loop
      vertex -0.608989 3.19243 -5
      vertex -2.95712 5.12189 -5
      vertex -1.0043 3.09093 -5
    endloop
  endfacet
  facet normal 0 0 1
    outer loop
      vertex -1.0043 3.09093 -5
      vertex -2.95712 5.12189 -5
      vertex -1.38378 2.94069 -5
    endloop
  endfacet
  facet normal 0 0 1
    outer loop
      vertex -2.95712 5.12189 -5
      vertex -1.74144 2.74407 -5
      vertex -1.38378 2.94069 -5
    endloop
  endfacet
  facet normal 0 0 1
    outer loop
      vertex -2.95712 5.12189 -5
      vertex -2.07163 2.50417 -5
      vertex -1.74144 2.74407 -5
    endloop
  endfacet
  facet normal 0 0 1
    outer loop
      vertex -2.95712 5.12189 -5
      vertex -2.36915 2.22478 -5
      vertex -2.07163 2.50417 -5
    endloop
  endfacet
  facet normal 0 0 1
    outer loop
      vertex -2.95712 5.12189 -5
      vertex -2.6293 1.9103 -5
      vertex -2.36915 2.22478 -5
    endloop
  endfacet
  facet normal 0 0 1
    outer loop
      vertex -2.95712 5.12189 -5
      vertex -2.848 1.5657 -5
      vertex -2.6293 1.9103 -5
    endloop
  endfacet
  facet normal 0 0 1
    outer loop
      vertex -5.91425 0 -5
      vertex -2.848 1.5657 -5
      vertex -2.95712 5.12189 -5
    endloop
  endfacet
  facet normal 0 0 1
    outer loop
      vertex -2.848 1.5657 -5
      vertex -5.91425 0 -5
      vertex -3.02177 1.1964 -5
    endloop
  endfacet
  facet normal 0 0 1
    outer loop
      vertex -3.02177 1.1964 -5
      vertex -5.91425 0 -5
      vertex -3.14789 0.808242 -5
    endloop
  endfacet
  facet normal 0 0 1
    outer loop
      vertex -3.14789 0.808242 -5
      vertex -5.91425 0 -5
      vertex -3.22437 0.407332 -5
    endloop
  endfacet
  facet normal 0 0 1
    outer loop
      vertex -3.22437 0.407332 -5
      vertex -5.91425 0 -5
      vertex -3.25 0 -5
    endloop
  endfacet
  facet normal 0 0 1
    outer loop
      vertex 3.22437 -0.407332 -5
      vertex 5.91425 0 -5
      vertex 3.25 0 -5
    endloop
  endfacet
  facet normal 0 0 1
    outer loop
      vertex 3.14789 -0.808242 -5
      vertex 5.91425 0 -5
      vertex 3.22437 -0.407332 -5
    endloop
  endfacet
  facet normal 0 0 1
    outer loop
      vertex 3.02177 -1.1964 -5
      vertex 5.91425 0 -5
      vertex 3.14789 -0.808242 -5
    endloop
  endfacet
  facet normal 0 0 1
    outer loop
      vertex 2.848 -1.5657 -5
      vertex 5.91425 0 -5
      vertex 3.02177 -1.1964 -5
    endloop
  endfacet
  facet normal 0 0 1
    outer loop
      vertex 5.91425 0 -5
      vertex 2.848 -1.5657 -5
      vertex 2.95712 -5.12189 -5
    endloop
  endfacet
  facet normal -0 0 1
    outer loop
      vertex 2.6293 -1.9103 -5
      vertex 2.95712 -5.12189 -5
      vertex 2.848 -1.5657 -5
    endloop
  endfacet
  facet normal -0 0 1
    outer loop
      vertex 2.36915 -2.22478 -5
      vertex 2.95712 -5.12189 -5
      vertex 2.6293 -1.9103 -5
    endloop
  endfacet
  facet normal -0 0 1
    outer loop
      vertex 2.07163 -2.50417 -5
      vertex 2.95712 -5.12189 -5
      vertex 2.36915 -2.22478 -5
    endloop
  endfacet
  facet normal -0 0 1
    outer loop
      vertex 1.74144 -2.74407 -5
      vertex 2.95712 -5.12189 -5
      vertex 2.07163 -2.50417 -5
    endloop
  endfacet
  facet normal -0 0 1
    outer loop
      vertex 1.38378 -2.94069 -5
      vertex 2.95712 -5.12189 -5
      vertex 1.74144 -2.74407 -5
    endloop
  endfacet
  facet normal -0 0 1
    outer loop
      vertex 1.0043 -3.09093 -5
      vertex 2.95712 -5.12189 -5
      vertex 1.38378 -2.94069 -5
    endloop
  endfacet
  facet normal -0 0 1
    outer loop
      vertex 0.608989 -3.19243 -5
      vertex 2.95712 -5.12189 -5
      vertex 1.0043 -3.09093 -5
    endloop
  endfacet
  facet normal -0 0 1
    outer loop
      vertex 0.204069 -3.24359 -5
      vertex 2.95712 -5.12189 -5
      vertex 0.608989 -3.19243 -5
    endloop
  endfacet
  facet normal -0 0 1
    outer loop
      vertex -0.204069 -3.24359 -5
      vertex 2.95712 -5.12189 -5
      vertex 0.204069 -3.24359 -5
    endloop
  endfacet
  facet normal 0 0 1
    outer loop
      vertex -2.95712 -5.12189 -5
      vertex -0.204069 -3.24359 -5
      vertex -0.608989 -3.19243 -5
    endloop
  endfacet
  facet normal 0 0 1
    outer loop
      vertex -2.95712 -5.12189 -5
      vertex -0.608989 -3.19243 -5
      vertex -1.0043 -3.09093 -5
    endloop
  endfacet
  facet normal 0 0 1
    outer loop
      vertex -2.95712 -5.12189 -5
      vertex -1.0043 -3.09093 -5
      vertex -1.38378 -2.94069 -5
    endloop
  endfacet
  facet normal 0 0 1
    outer loop
      vertex -0.204069 -3.24359 -5
      vertex -2.95712 -5.12189 -5
      vertex 2.95712 -5.12189 -5
    endloop
  endfacet
  facet normal 0 0 1
    outer loop
      vertex -1.74144 -2.74407 -5
      vertex -2.95712 -5.12189 -5
      vertex -1.38378 -2.94069 -5
    endloop
  endfacet
  facet normal 0 0 1
    outer loop
      vertex -2.07163 -2.50417 -5
      vertex -2.95712 -5.12189 -5
      vertex -1.74144 -2.74407 -5
    endloop
  endfacet
  facet normal 0 0 1
    outer loop
      vertex -2.36915 -2.22478 -5
      vertex -2.95712 -5.12189 -5
      vertex -2.07163 -2.50417 -5
    endloop
  endfacet
  facet normal 0 0 1
    outer loop
      vertex -2.6293 -1.9103 -5
      vertex -2.95712 -5.12189 -5
      vertex -2.36915 -2.22478 -5
    endloop
  endfacet
  facet normal 0 0 1
    outer loop
      vertex -2.848 -1.5657 -5
      vertex -2.95712 -5.12189 -5
      vertex -2.6293 -1.9103 -5
    endloop
  endfacet
  facet normal 0 0 1
    outer loop
      vertex -5.91425 0 -5
      vertex -2.848 -1.5657 -5
      vertex -3.02177 -1.1964 -5
    endloop
  endfacet
  facet normal 0 0 1
    outer loop
      vertex -5.91425 0 -5
      vertex -3.02177 -1.1964 -5
      vertex -3.14789 -0.808242 -5
    endloop
  endfacet
  facet normal 0 0 1
    outer loop
      vertex -5.91425 0 -5
      vertex -3.14789 -0.808242 -5
      vertex -3.22437 -0.407332 -5
    endloop
  endfacet
  facet normal -0 0 1
    outer loop
      vertex -5.91425 0 -5
      vertex -3.22437 -0.407332 -5
      vertex -3.25 0 -5
    endloop
  endfacet
  facet normal 0 0 1
    outer loop
      vertex -2.848 -1.5657 -5
      vertex -5.91425 0 -5
      vertex -2.95712 -5.12189 -5
    endloop
  endfacet
  facet normal 0 -1 0
    outer loop
      vertex -2.95712 5.12189 -5
      vertex 2.95712 5.12189 0
      vertex -2.95712 5.12189 0
    endloop
  endfacet
  facet normal 0 -1 -0
    outer loop
      vertex 2.95712 5.12189 0
      vertex -2.95712 5.12189 -5
      vertex 2.95712 5.12189 -5
    endloop
  endfacet
  facet normal -0.866025 -0.500001 0
    outer loop
      vertex 5.91425 0 -5
      vertex 2.95712 5.12189 0
      vertex 2.95712 5.12189 -5
    endloop
  endfacet
  facet normal -0.866025 -0.500001 0
    outer loop
      vertex 2.95712 5.12189 0
      vertex 5.91425 0 -5
      vertex 5.91425 0 0
    endloop
  endfacet
  facet normal 0.866025 -0.500001 0
    outer loop
      vertex -5.91425 0 0
      vertex -2.95712 5.12189 -5
      vertex -2.95712 5.12189 0
    endloop
  endfacet
  facet normal 0.866025 -0.500001 0
    outer loop
      vertex -2.95712 5.12189 -5
      vertex -5.91425 0 0
      vertex -5.91425 0 -5
    endloop
  endfacet
  facet normal -0.866025 0.500001 0
    outer loop
      vertex 2.95712 -5.12189 -5
      vertex 5.91425 0 0
      vertex 5.91425 0 -5
    endloop
  endfacet
  facet normal -0.866025 0.500001 0
    outer loop
      vertex 5.91425 0 0
      vertex 2.95712 -5.12189 -5
      vertex 2.95712 -5.12189 0
    endloop
  endfacet
  facet normal 0.866025 0.500001 0
    outer loop
      vertex -2.95712 -5.12189 0
      vertex -5.91425 0 -5
      vertex -5.91425 0 0
    endloop
  endfacet
  facet normal 0.866025 0.500001 0
    outer loop
      vertex -5.91425 0 -5
      vertex -2.95712 -5.12189 0
      vertex -2.95712 -5.12189 -5
    endloop
  endfacet
  facet normal 0 1 -0
    outer loop
      vertex 2.95712 -5.12189 -5
      vertex -2.95712 -5.12189 0
      vertex 2.95712 -5.12189 0
    endloop
  endfacet
  facet normal 0 1 0
    outer loop
      vertex -2.95712 -5.12189 0
      vertex 2.95712 -5.12189 -5
      vertex -2.95712 -5.12189 -5
    endloop
  endfacet
  facet normal -0.998026 -0.0627975 0
    outer loop
      vertex 3.25 0 -7
      vertex 3.22437 0.407332 -5
      vertex 3.22437 0.407332 -7
    endloop
  endfacet
  facet normal -0.998026 -0.0627975 0
    outer loop
      vertex 3.22437 0.407332 -5
      vertex 3.25 0 -7
      vertex 3.25 0 -5
    endloop
  endfacet
  facet normal 0.998026 -0.0627975 0
    outer loop
      vertex -3.25 0 -5
      vertex -3.22437 0.407332 -7
      vertex -3.22437 0.407332 -5
    endloop
  endfacet
  facet normal 0.998026 -0.0627975 0
    outer loop
      vertex -3.22437 0.407332 -7
      vertex -3.25 0 -5
      vertex -3.25 0 -7
    endloop
  endfacet
  facet normal 0 -1 0
    outer loop
      vertex -0.204069 3.24359 -7
      vertex 0.204069 3.24359 -5
      vertex -0.204069 3.24359 -5
    endloop
  endfacet
  facet normal 0 -1 -0
    outer loop
      vertex 0.204069 3.24359 -5
      vertex -0.204069 3.24359 -7
      vertex 0.204069 3.24359 -7
    endloop
  endfacet
  facet normal 0 1 -0
    outer loop
      vertex 0.204069 -3.24359 -7
      vertex -0.204069 -3.24359 -5
      vertex 0.204069 -3.24359 -5
    endloop
  endfacet
  facet normal 0 1 0
    outer loop
      vertex -0.204069 -3.24359 -5
      vertex 0.204069 -3.24359 -7
      vertex -0.204069 -3.24359 -7
    endloop
  endfacet
  facet normal -0.684547 -0.728968 0
    outer loop
      vertex 2.07163 2.50417 -7
      vertex 2.36915 2.22478 -5
      vertex 2.07163 2.50417 -5
    endloop
  endfacet
  facet normal -0.684547 -0.728968 -0
    outer loop
      vertex 2.36915 2.22478 -5
      vertex 2.07163 2.50417 -7
      vertex 2.36915 2.22478 -7
    endloop
  endfacet
  facet normal 0.684547 -0.728968 0
    outer loop
      vertex -2.36915 2.22478 -7
      vertex -2.07163 2.50417 -5
      vertex -2.36915 2.22478 -5
    endloop
  endfacet
  facet normal 0.684547 -0.728968 0
    outer loop
      vertex -2.07163 2.50417 -5
      vertex -2.36915 2.22478 -7
      vertex -2.07163 2.50417 -7
    endloop
  endfacet
  facet normal 0.36811 -0.929782 0
    outer loop
      vertex -1.38378 2.94069 -7
      vertex -1.0043 3.09093 -5
      vertex -1.38378 2.94069 -5
    endloop
  endfacet
  facet normal 0.36811 -0.929782 0
    outer loop
      vertex -1.0043 3.09093 -5
      vertex -1.38378 2.94069 -7
      vertex -1.0043 3.09093 -7
    endloop
  endfacet
  facet normal -0.904836 -0.42576 0
    outer loop
      vertex 3.02177 1.1964 -7
      vertex 2.848 1.5657 -5
      vertex 2.848 1.5657 -7
    endloop
  endfacet
  facet normal -0.904836 -0.42576 0
    outer loop
      vertex 2.848 1.5657 -5
      vertex 3.02177 1.1964 -7
      vertex 3.02177 1.1964 -5
    endloop
  endfacet
  facet normal -0.844317 -0.535845 0
    outer loop
      vertex 2.848 1.5657 -7
      vertex 2.6293 1.9103 -5
      vertex 2.6293 1.9103 -7
    endloop
  endfacet
  facet normal -0.844317 -0.535845 0
    outer loop
      vertex 2.6293 1.9103 -5
      vertex 2.848 1.5657 -7
      vertex 2.848 1.5657 -5
    endloop
  endfacet
  facet normal -0.36811 -0.929782 0
    outer loop
      vertex 1.0043 3.09093 -7
      vertex 1.38378 2.94069 -5
      vertex 1.0043 3.09093 -5
    endloop
  endfacet
  facet normal -0.36811 -0.929782 -0
    outer loop
      vertex 1.38378 2.94069 -5
      vertex 1.0043 3.09093 -7
      vertex 1.38378 2.94069 -7
    endloop
  endfacet
  facet normal -0.248693 -0.968582 0
    outer loop
      vertex 0.608989 3.19243 -7
      vertex 1.0043 3.09093 -5
      vertex 0.608989 3.19243 -5
    endloop
  endfacet
  facet normal -0.248693 -0.968582 -0
    outer loop
      vertex 1.0043 3.09093 -5
      vertex 0.608989 3.19243 -7
      vertex 1.0043 3.09093 -7
    endloop
  endfacet
  facet normal -0.58779 -0.809014 0
    outer loop
      vertex 1.74144 2.74407 -7
      vertex 2.07163 2.50417 -5
      vertex 1.74144 2.74407 -5
    endloop
  endfacet
  facet normal -0.58779 -0.809014 -0
    outer loop
      vertex 2.07163 2.50417 -5
      vertex 1.74144 2.74407 -7
      vertex 2.07163 2.50417 -7
    endloop
  endfacet
  facet normal 0.904836 -0.42576 0
    outer loop
      vertex -3.02177 1.1964 -5
      vertex -2.848 1.5657 -7
      vertex -2.848 1.5657 -5
    endloop
  endfacet
  facet normal 0.904836 -0.42576 0
    outer loop
      vertex -2.848 1.5657 -7
      vertex -3.02177 1.1964 -5
      vertex -3.02177 1.1964 -7
    endloop
  endfacet
  facet normal 0.770526 -0.637409 0
    outer loop
      vertex -2.6293 1.9103 -5
      vertex -2.36915 2.22478 -7
      vertex -2.36915 2.22478 -5
    endloop
  endfacet
  facet normal 0.770526 -0.637409 0
    outer loop
      vertex -2.36915 2.22478 -7
      vertex -2.6293 1.9103 -5
      vertex -2.6293 1.9103 -7
    endloop
  endfacet
  facet normal 0.951057 -0.309017 0
    outer loop
      vertex -3.14789 0.808242 -5
      vertex -3.02177 1.1964 -7
      vertex -3.02177 1.1964 -5
    endloop
  endfacet
  facet normal 0.951057 -0.309017 0
    outer loop
      vertex -3.02177 1.1964 -7
      vertex -3.14789 0.808242 -5
      vertex -3.14789 0.808242 -7
    endloop
  endfacet
  facet normal 0.481744 -0.876312 0
    outer loop
      vertex -1.74144 2.74407 -7
      vertex -1.38378 2.94069 -5
      vertex -1.74144 2.74407 -5
    endloop
  endfacet
  facet normal 0.481744 -0.876312 0
    outer loop
      vertex -1.38378 2.94069 -5
      vertex -1.74144 2.74407 -7
      vertex -1.38378 2.94069 -7
    endloop
  endfacet
  facet normal 0.125349 -0.992113 0
    outer loop
      vertex -0.608989 3.19243 -7
      vertex -0.204069 3.24359 -5
      vertex -0.608989 3.19243 -5
    endloop
  endfacet
  facet normal 0.125349 -0.992113 0
    outer loop
      vertex -0.204069 3.24359 -5
      vertex -0.608989 3.19243 -7
      vertex -0.204069 3.24359 -7
    endloop
  endfacet
  facet normal -0.125349 0.992113 0
    outer loop
      vertex 0.608989 -3.19243 -7
      vertex 0.204069 -3.24359 -5
      vertex 0.608989 -3.19243 -5
    endloop
  endfacet
  facet normal -0.125349 0.992113 0
    outer loop
      vertex 0.204069 -3.24359 -5
      vertex 0.608989 -3.19243 -7
      vertex 0.204069 -3.24359 -7
    endloop
  endfacet
  facet normal -0.951057 -0.309017 0
    outer loop
      vertex 3.14789 0.808242 -7
      vertex 3.02177 1.1964 -5
      vertex 3.02177 1.1964 -7
    endloop
  endfacet
  facet normal -0.951057 -0.309017 0
    outer loop
      vertex 3.02177 1.1964 -5
      vertex 3.14789 0.808242 -7
      vertex 3.14789 0.808242 -5
    endloop
  endfacet
  facet normal -0.982286 -0.187387 0
    outer loop
      vertex 3.22437 0.407332 -7
      vertex 3.14789 0.808242 -5
      vertex 3.14789 0.808242 -7
    endloop
  endfacet
  facet normal -0.982286 -0.187387 0
    outer loop
      vertex 3.14789 0.808242 -5
      vertex 3.22437 0.407332 -7
      vertex 3.22437 0.407332 -5
    endloop
  endfacet
  facet normal -0.770526 -0.637409 0
    outer loop
      vertex 2.6293 1.9103 -7
      vertex 2.36915 2.22478 -5
      vertex 2.36915 2.22478 -7
    endloop
  endfacet
  facet normal -0.770526 -0.637409 0
    outer loop
      vertex 2.36915 2.22478 -5
      vertex 2.6293 1.9103 -7
      vertex 2.6293 1.9103 -5
    endloop
  endfacet
  facet normal -0.125349 -0.992113 0
    outer loop
      vertex 0.204069 3.24359 -7
      vertex 0.608989 3.19243 -5
      vertex 0.204069 3.24359 -5
    endloop
  endfacet
  facet normal -0.125349 -0.992113 -0
    outer loop
      vertex 0.608989 3.19243 -5
      vertex 0.204069 3.24359 -7
      vertex 0.608989 3.19243 -7
    endloop
  endfacet
  facet normal -0.481744 -0.876312 0
    outer loop
      vertex 1.38378 2.94069 -7
      vertex 1.74144 2.74407 -5
      vertex 1.38378 2.94069 -5
    endloop
  endfacet
  facet normal -0.481744 -0.876312 -0
    outer loop
      vertex 1.74144 2.74407 -5
      vertex 1.38378 2.94069 -7
      vertex 1.74144 2.74407 -7
    endloop
  endfacet
  facet normal 0.844317 -0.535845 0
    outer loop
      vertex -2.848 1.5657 -5
      vertex -2.6293 1.9103 -7
      vertex -2.6293 1.9103 -5
    endloop
  endfacet
  facet normal 0.844317 -0.535845 0
    outer loop
      vertex -2.6293 1.9103 -7
      vertex -2.848 1.5657 -5
      vertex -2.848 1.5657 -7
    endloop
  endfacet
  facet normal 0.982286 -0.187387 0
    outer loop
      vertex -3.22437 0.407332 -5
      vertex -3.14789 0.808242 -7
      vertex -3.14789 0.808242 -5
    endloop
  endfacet
  facet normal 0.982286 -0.187387 0
    outer loop
      vertex -3.14789 0.808242 -7
      vertex -3.22437 0.407332 -5
      vertex -3.22437 0.407332 -7
    endloop
  endfacet
  facet normal 0.58779 -0.809014 0
    outer loop
      vertex -2.07163 2.50417 -7
      vertex -1.74144 2.74407 -5
      vertex -2.07163 2.50417 -5
    endloop
  endfacet
  facet normal 0.58779 -0.809014 0
    outer loop
      vertex -1.74144 2.74407 -5
      vertex -2.07163 2.50417 -7
      vertex -1.74144 2.74407 -7
    endloop
  endfacet
  facet normal 0.248693 -0.968582 0
    outer loop
      vertex -1.0043 3.09093 -7
      vertex -0.608989 3.19243 -5
      vertex -1.0043 3.09093 -5
    endloop
  endfacet
  facet normal 0.248693 -0.968582 0
    outer loop
      vertex -0.608989 3.19243 -5
      vertex -1.0043 3.09093 -7
      vertex -0.608989 3.19243 -7
    endloop
  endfacet
  facet normal -0.951057 0.309017 0
    outer loop
      vertex 3.02177 -1.1964 -7
      vertex 3.14789 -0.808242 -5
      vertex 3.14789 -0.808242 -7
    endloop
  endfacet
  facet normal -0.951057 0.309017 0
    outer loop
      vertex 3.14789 -0.808242 -5
      vertex 3.02177 -1.1964 -7
      vertex 3.02177 -1.1964 -5
    endloop
  endfacet
  facet normal -0.982286 0.187387 0
    outer loop
      vertex 3.14789 -0.808242 -7
      vertex 3.22437 -0.407332 -5
      vertex 3.22437 -0.407332 -7
    endloop
  endfacet
  facet normal -0.982286 0.187387 0
    outer loop
      vertex 3.22437 -0.407332 -5
      vertex 3.14789 -0.808242 -7
      vertex 3.14789 -0.808242 -5
    endloop
  endfacet
  facet normal 0.904836 0.42576 0
    outer loop
      vertex -2.848 -1.5657 -5
      vertex -3.02177 -1.1964 -7
      vertex -3.02177 -1.1964 -5
    endloop
  endfacet
  facet normal 0.904836 0.42576 0
    outer loop
      vertex -3.02177 -1.1964 -7
      vertex -2.848 -1.5657 -5
      vertex -2.848 -1.5657 -7
    endloop
  endfacet
  facet normal -0.58779 0.809014 0
    outer loop
      vertex 2.07163 -2.50417 -7
      vertex 1.74144 -2.74407 -5
      vertex 2.07163 -2.50417 -5
    endloop
  endfacet
  facet normal -0.58779 0.809014 0
    outer loop
      vertex 1.74144 -2.74407 -5
      vertex 2.07163 -2.50417 -7
      vertex 1.74144 -2.74407 -7
    endloop
  endfacet
  facet normal -0.844317 0.535845 0
    outer loop
      vertex 2.6293 -1.9103 -7
      vertex 2.848 -1.5657 -5
      vertex 2.848 -1.5657 -7
    endloop
  endfacet
  facet normal -0.844317 0.535845 0
    outer loop
      vertex 2.848 -1.5657 -5
      vertex 2.6293 -1.9103 -7
      vertex 2.6293 -1.9103 -5
    endloop
  endfacet
  facet normal -0.998026 0.0627975 0
    outer loop
      vertex 3.22437 -0.407332 -7
      vertex 3.25 0 -5
      vertex 3.25 0 -7
    endloop
  endfacet
  facet normal -0.998026 0.0627975 0
    outer loop
      vertex 3.25 0 -5
      vertex 3.22437 -0.407332 -7
      vertex 3.22437 -0.407332 -5
    endloop
  endfacet
  facet normal 0.951057 0.309017 0
    outer loop
      vertex -3.02177 -1.1964 -5
      vertex -3.14789 -0.808242 -7
      vertex -3.14789 -0.808242 -5
    endloop
  endfacet
  facet normal 0.951057 0.309017 0
    outer loop
      vertex -3.14789 -0.808242 -7
      vertex -3.02177 -1.1964 -5
      vertex -3.02177 -1.1964 -7
    endloop
  endfacet
  facet normal 0.998026 0.0627975 0
    outer loop
      vertex -3.22437 -0.407332 -5
      vertex -3.25 0 -7
      vertex -3.25 0 -5
    endloop
  endfacet
  facet normal 0.998026 0.0627975 0
    outer loop
      vertex -3.25 0 -7
      vertex -3.22437 -0.407332 -5
      vertex -3.22437 -0.407332 -7
    endloop
  endfacet
  facet normal -0.684547 0.728968 0
    outer loop
      vertex 2.36915 -2.22478 -7
      vertex 2.07163 -2.50417 -5
      vertex 2.36915 -2.22478 -5
    endloop
  endfacet
  facet normal -0.684547 0.728968 0
    outer loop
      vertex 2.07163 -2.50417 -5
      vertex 2.36915 -2.22478 -7
      vertex 2.07163 -2.50417 -7
    endloop
  endfacet
  facet normal -0.248693 0.968582 0
    outer loop
      vertex 1.0043 -3.09093 -7
      vertex 0.608989 -3.19243 -5
      vertex 1.0043 -3.09093 -5
    endloop
  endfacet
  facet normal -0.248693 0.968582 0
    outer loop
      vertex 0.608989 -3.19243 -5
      vertex 1.0043 -3.09093 -7
      vertex 0.608989 -3.19243 -7
    endloop
  endfacet
  facet normal -0.481744 0.876312 0
    outer loop
      vertex 1.74144 -2.74407 -7
      vertex 1.38378 -2.94069 -5
      vertex 1.74144 -2.74407 -5
    endloop
  endfacet
  facet normal -0.481744 0.876312 0
    outer loop
      vertex 1.38378 -2.94069 -5
      vertex 1.74144 -2.74407 -7
      vertex 1.38378 -2.94069 -7
    endloop
  endfacet
  facet normal -0.904836 0.42576 0
    outer loop
      vertex 2.848 -1.5657 -7
      vertex 3.02177 -1.1964 -5
      vertex 3.02177 -1.1964 -7
    endloop
  endfacet
  facet normal -0.904836 0.42576 0
    outer loop
      vertex 3.02177 -1.1964 -5
      vertex 2.848 -1.5657 -7
      vertex 2.848 -1.5657 -5
    endloop
  endfacet
  facet normal 0.248693 0.968582 -0
    outer loop
      vertex -0.608989 -3.19243 -7
      vertex -1.0043 -3.09093 -5
      vertex -0.608989 -3.19243 -5
    endloop
  endfacet
  facet normal 0.248693 0.968582 0
    outer loop
      vertex -1.0043 -3.09093 -5
      vertex -0.608989 -3.19243 -7
      vertex -1.0043 -3.09093 -7
    endloop
  endfacet
  facet normal 0.770526 0.637409 0
    outer loop
      vertex -2.36915 -2.22478 -5
      vertex -2.6293 -1.9103 -7
      vertex -2.6293 -1.9103 -5
    endloop
  endfacet
  facet normal 0.770526 0.637409 0
    outer loop
      vertex -2.6293 -1.9103 -7
      vertex -2.36915 -2.22478 -5
      vertex -2.36915 -2.22478 -7
    endloop
  endfacet
  facet normal 0.684547 0.728968 -0
    outer loop
      vertex -2.07163 -2.50417 -7
      vertex -2.36915 -2.22478 -5
      vertex -2.07163 -2.50417 -5
    endloop
  endfacet
  facet normal 0.684547 0.728968 0
    outer loop
      vertex -2.36915 -2.22478 -5
      vertex -2.07163 -2.50417 -7
      vertex -2.36915 -2.22478 -7
    endloop
  endfacet
  facet normal 0.982286 0.187387 0
    outer loop
      vertex -3.14789 -0.808242 -5
      vertex -3.22437 -0.407332 -7
      vertex -3.22437 -0.407332 -5
    endloop
  endfacet
  facet normal 0.982286 0.187387 0
    outer loop
      vertex -3.22437 -0.407332 -7
      vertex -3.14789 -0.808242 -5
      vertex -3.14789 -0.808242 -7
    endloop
  endfacet
  facet normal -0.770526 0.637409 0
    outer loop
      vertex 2.36915 -2.22478 -7
      vertex 2.6293 -1.9103 -5
      vertex 2.6293 -1.9103 -7
    endloop
  endfacet
  facet normal -0.770526 0.637409 0
    outer loop
      vertex 2.6293 -1.9103 -5
      vertex 2.36915 -2.22478 -7
      vertex 2.36915 -2.22478 -5
    endloop
  endfacet
  facet normal 0.58779 0.809014 -0
    outer loop
      vertex -1.74144 -2.74407 -7
      vertex -2.07163 -2.50417 -5
      vertex -1.74144 -2.74407 -5
    endloop
  endfacet
  facet normal 0.58779 0.809014 0
    outer loop
      vertex -2.07163 -2.50417 -5
      vertex -1.74144 -2.74407 -7
      vertex -2.07163 -2.50417 -7
    endloop
  endfacet
  facet normal 0.481744 0.876312 -0
    outer loop
      vertex -1.38378 -2.94069 -7
      vertex -1.74144 -2.74407 -5
      vertex -1.38378 -2.94069 -5
    endloop
  endfacet
  facet normal 0.481744 0.876312 0
    outer loop
      vertex -1.74144 -2.74407 -5
      vertex -1.38378 -2.94069 -7
      vertex -1.74144 -2.74407 -7
    endloop
  endfacet
  facet normal 0.125349 0.992113 -0
    outer loop
      vertex -0.204069 -3.24359 -7
      vertex -0.608989 -3.19243 -5
      vertex -0.204069 -3.24359 -5
    endloop
  endfacet
  facet normal 0.125349 0.992113 0
    outer loop
      vertex -0.608989 -3.19243 -5
      vertex -0.204069 -3.24359 -7
      vertex -0.608989 -3.19243 -7
    endloop
  endfacet
  facet normal 0.844317 0.535845 0
    outer loop
      vertex -2.6293 -1.9103 -5
      vertex -2.848 -1.5657 -7
      vertex -2.848 -1.5657 -5
    endloop
  endfacet
  facet normal 0.844317 0.535845 0
    outer loop
      vertex -2.848 -1.5657 -7
      vertex -2.6293 -1.9103 -5
      vertex -2.6293 -1.9103 -7
    endloop
  endfacet
  facet normal -0.36811 0.929782 0
    outer loop
      vertex 1.38378 -2.94069 -7
      vertex 1.0043 -3.09093 -5
      vertex 1.38378 -2.94069 -5
    endloop
  endfacet
  facet normal -0.36811 0.929782 0
    outer loop
      vertex 1.0043 -3.09093 -5
      vertex 1.38378 -2.94069 -7
      vertex 1.0043 -3.09093 -7
    endloop
  endfacet
  facet normal 0.36811 0.929782 -0
    outer loop
      vertex -1.0043 -3.09093 -7
      vertex -1.38378 -2.94069 -5
      vertex -1.0043 -3.09093 -5
    endloop
  endfacet
  facet normal 0.36811 0.929782 0
    outer loop
      vertex -1.38378 -2.94069 -5
      vertex -1.0043 -3.09093 -7
      vertex -1.38378 -2.94069 -7
    endloop
  endfacet
endsolid OpenSCAD_Model
