solid OpenSCAD_Model
  facet normal 0 -1 0
    outer loop
      vertex -2.42339 4.19745 -4
      vertex 2.42339 4.19745 0
      vertex -2.42339 4.19745 0
    endloop
  endfacet
  facet normal 0 -1 -0
    outer loop
      vertex 2.42339 4.19745 0
      vertex -2.42339 4.19745 -4
      vertex 2.42339 4.19745 -4
    endloop
  endfacet
  facet normal 0.866025 -0.5 0
    outer loop
      vertex -4.84679 0 0
      vertex -2.42339 4.19745 -4
      vertex -2.42339 4.19745 0
    endloop
  endfacet
  facet normal 0.866025 -0.5 0
    outer loop
      vertex -2.42339 4.19745 -4
      vertex -4.84679 0 0
      vertex -4.84679 0 -4
    endloop
  endfacet
  facet normal -0.866025 -0.5 0
    outer loop
      vertex 4.84679 0 -4
      vertex 2.42339 4.19745 0
      vertex 2.42339 4.19745 -4
    endloop
  endfacet
  facet normal -0.866025 -0.5 0
    outer loop
      vertex 2.42339 4.19745 0
      vertex 4.84679 0 -4
      vertex 4.84679 0 0
    endloop
  endfacet
  facet normal 0 0 1
    outer loop
      vertex 4.84679 0 0
      vertex 22.5 0 0
      vertex 22.3226 2.82 0
    endloop
  endfacet
  facet normal 0 0 1
    outer loop
      vertex 4.84679 0 0
      vertex 22.3226 2.82 0
      vertex 21.7931 5.59552 0
    endloop
  endfacet
  facet normal 0 0 1
    outer loop
      vertex 22.5 0 0
      vertex 4.84679 0 0
      vertex 22.3226 -2.82 0
    endloop
  endfacet
  facet normal 0 0 1
    outer loop
      vertex 4.84679 0 0
      vertex 21.7931 5.59552 0
      vertex 20.92 8.2828 0
    endloop
  endfacet
  facet normal 0 0 1
    outer loop
      vertex 22.3226 -2.82 0
      vertex 4.84679 0 0
      vertex 21.7931 -5.59552 0
    endloop
  endfacet
  facet normal 0 0 1
    outer loop
      vertex 4.84679 0 0
      vertex 20.92 8.2828 0
      vertex 19.7169 10.8395 0
    endloop
  endfacet
  facet normal 0 0 1
    outer loop
      vertex 21.7931 -5.59552 0
      vertex 4.84679 0 0
      vertex 20.92 -8.2828 0
    endloop
  endfacet
  facet normal 0 0 1
    outer loop
      vertex 2.42339 4.19745 0
      vertex 19.7169 10.8395 0
      vertex 18.2029 13.2252 0
    endloop
  endfacet
  facet normal 0 0 1
    outer loop
      vertex 20.92 -8.2828 0
      vertex 4.84679 0 0
      vertex 19.7169 -10.8395 0
    endloop
  endfacet
  facet normal 0 0 1
    outer loop
      vertex 2.42339 4.19745 0
      vertex 18.2029 13.2252 0
      vertex 16.4018 15.4023 0
    endloop
  endfacet
  facet normal -0 0 1
    outer loop
      vertex 2.42339 -4.19745 0
      vertex 19.7169 -10.8395 0
      vertex 4.84679 0 0
    endloop
  endfacet
  facet normal 0 0 1
    outer loop
      vertex 2.42339 4.19745 0
      vertex 16.4018 15.4023 0
      vertex 14.342 17.3365 0
    endloop
  endfacet
  facet normal 0 0 1
    outer loop
      vertex 19.7169 -10.8395 0
      vertex 2.42339 -4.19745 0
      vertex 18.2029 -13.2252 0
    endloop
  endfacet
  facet normal 0 0 1
    outer loop
      vertex 2.42339 4.19745 0
      vertex 14.342 17.3365 0
      vertex 12.0561 18.9974 0
    endloop
  endfacet
  facet normal 0 0 1
    outer loop
      vertex 18.2029 -13.2252 0
      vertex 2.42339 -4.19745 0
      vertex 16.4018 -15.4023 0
    endloop
  endfacet
  facet normal 0 0 1
    outer loop
      vertex 2.42339 4.19745 0
      vertex 12.0561 18.9974 0
      vertex 9.58003 20.3586 0
    endloop
  endfacet
  facet normal 0 0 1
    outer loop
      vertex 16.4018 -15.4023 0
      vertex 2.42339 -4.19745 0
      vertex 14.342 -17.3365 0
    endloop
  endfacet
  facet normal 0 0 1
    outer loop
      vertex 2.42339 4.19745 0
      vertex 9.58003 20.3586 0
      vertex 6.95288 21.3988 0
    endloop
  endfacet
  facet normal 0 0 1
    outer loop
      vertex 14.342 -17.3365 0
      vertex 2.42339 -4.19745 0
      vertex 12.0561 -18.9974 0
    endloop
  endfacet
  facet normal 0 0 1
    outer loop
      vertex 12.0561 -18.9974 0
      vertex 2.42339 -4.19745 0
      vertex 9.58003 -20.3586 0
    endloop
  endfacet
  facet normal 0 0 1
    outer loop
      vertex 2.42339 4.19745 0
      vertex 6.95288 21.3988 0
      vertex 4.21608 22.1015 0
    endloop
  endfacet
  facet normal 0 0 1
    outer loop
      vertex 19.7169 10.8395 0
      vertex 2.42339 4.19745 0
      vertex 4.84679 0 0
    endloop
  endfacet
  facet normal 0 0 1
    outer loop
      vertex 1.41279 22.4556 0
      vertex 2.42339 4.19745 0
      vertex 4.21608 22.1015 0
    endloop
  endfacet
  facet normal -0 0 1
    outer loop
      vertex -1.41279 22.4556 0
      vertex 2.42339 4.19745 0
      vertex 1.41279 22.4556 0
    endloop
  endfacet
  facet normal 0 0 1
    outer loop
      vertex -1.41279 22.4556 0
      vertex -2.42339 4.19745 0
      vertex 2.42339 4.19745 0
    endloop
  endfacet
  facet normal -0 0 1
    outer loop
      vertex -4.21608 22.1015 0
      vertex -2.42339 4.19745 0
      vertex -1.41279 22.4556 0
    endloop
  endfacet
  facet normal -0 0 1
    outer loop
      vertex -6.95288 21.3988 0
      vertex -2.42339 4.19745 0
      vertex -4.21608 22.1015 0
    endloop
  endfacet
  facet normal -0 0 1
    outer loop
      vertex -9.58003 20.3586 0
      vertex -2.42339 4.19745 0
      vertex -6.95288 21.3988 0
    endloop
  endfacet
  facet normal 0 0 1
    outer loop
      vertex 9.58003 -20.3586 0
      vertex 2.42339 -4.19745 0
      vertex 6.95288 -21.3988 0
    endloop
  endfacet
  facet normal 0 0 1
    outer loop
      vertex 6.95288 -21.3988 0
      vertex 2.42339 -4.19745 0
      vertex 4.21608 -22.1015 0
    endloop
  endfacet
  facet normal 0 0 1
    outer loop
      vertex 2.42339 -4.19745 0
      vertex 1.41279 -22.4556 0
      vertex 4.21608 -22.1015 0
    endloop
  endfacet
  facet normal 0 0 1
    outer loop
      vertex 2.42339 -4.19745 0
      vertex -1.41279 -22.4556 0
      vertex 1.41279 -22.4556 0
    endloop
  endfacet
  facet normal -0 0 1
    outer loop
      vertex -2.42339 -4.19745 0
      vertex -1.41279 -22.4556 0
      vertex 2.42339 -4.19745 0
    endloop
  endfacet
  facet normal 0 0 1
    outer loop
      vertex -2.42339 -4.19745 0
      vertex -4.21608 -22.1015 0
      vertex -1.41279 -22.4556 0
    endloop
  endfacet
  facet normal 0 0 1
    outer loop
      vertex -19.7169 -10.8395 0
      vertex -2.42339 -4.19745 0
      vertex -4.84679 0 0
    endloop
  endfacet
  facet normal -0 0 1
    outer loop
      vertex -12.0561 18.9974 0
      vertex -2.42339 4.19745 0
      vertex -9.58003 20.3586 0
    endloop
  endfacet
  facet normal 0 0 1
    outer loop
      vertex -2.42339 -4.19745 0
      vertex -6.95288 -21.3988 0
      vertex -4.21608 -22.1015 0
    endloop
  endfacet
  facet normal -0 0 1
    outer loop
      vertex -14.342 17.3365 0
      vertex -2.42339 4.19745 0
      vertex -12.0561 18.9974 0
    endloop
  endfacet
  facet normal 0 0 1
    outer loop
      vertex -2.42339 -4.19745 0
      vertex -9.58003 -20.3586 0
      vertex -6.95288 -21.3988 0
    endloop
  endfacet
  facet normal -0 0 1
    outer loop
      vertex -16.4018 15.4023 0
      vertex -2.42339 4.19745 0
      vertex -14.342 17.3365 0
    endloop
  endfacet
  facet normal 0 0 1
    outer loop
      vertex -2.42339 -4.19745 0
      vertex -12.0561 -18.9974 0
      vertex -9.58003 -20.3586 0
    endloop
  endfacet
  facet normal -0 0 1
    outer loop
      vertex -18.2029 13.2252 0
      vertex -2.42339 4.19745 0
      vertex -16.4018 15.4023 0
    endloop
  endfacet
  facet normal 0 0 1
    outer loop
      vertex -2.42339 -4.19745 0
      vertex -14.342 -17.3365 0
      vertex -12.0561 -18.9974 0
    endloop
  endfacet
  facet normal -0 0 1
    outer loop
      vertex -19.7169 10.8395 0
      vertex -2.42339 4.19745 0
      vertex -18.2029 13.2252 0
    endloop
  endfacet
  facet normal 0 0 1
    outer loop
      vertex -2.42339 -4.19745 0
      vertex -16.4018 -15.4023 0
      vertex -14.342 -17.3365 0
    endloop
  endfacet
  facet normal 0 0 1
    outer loop
      vertex -2.42339 4.19745 0
      vertex -19.7169 10.8395 0
      vertex -4.84679 0 0
    endloop
  endfacet
  facet normal 0 0 1
    outer loop
      vertex -2.42339 -4.19745 0
      vertex -18.2029 -13.2252 0
      vertex -16.4018 -15.4023 0
    endloop
  endfacet
  facet normal -0 0 1
    outer loop
      vertex -20.92 8.2828 0
      vertex -4.84679 0 0
      vertex -19.7169 10.8395 0
    endloop
  endfacet
  facet normal 0 0 1
    outer loop
      vertex -2.42339 -4.19745 0
      vertex -19.7169 -10.8395 0
      vertex -18.2029 -13.2252 0
    endloop
  endfacet
  facet normal -0 0 1
    outer loop
      vertex -21.7931 5.59552 0
      vertex -4.84679 0 0
      vertex -20.92 8.2828 0
    endloop
  endfacet
  facet normal 0 0 1
    outer loop
      vertex -4.84679 0 0
      vertex -20.92 -8.2828 0
      vertex -19.7169 -10.8395 0
    endloop
  endfacet
  facet normal -0 0 1
    outer loop
      vertex -22.3226 2.82 0
      vertex -4.84679 0 0
      vertex -21.7931 5.59552 0
    endloop
  endfacet
  facet normal 0 0 1
    outer loop
      vertex -4.84679 0 0
      vertex -21.7931 -5.59552 0
      vertex -20.92 -8.2828 0
    endloop
  endfacet
  facet normal 0 0 1
    outer loop
      vertex -22.5 0 0
      vertex -4.84679 0 0
      vertex -22.3226 2.82 0
    endloop
  endfacet
  facet normal 0 0 1
    outer loop
      vertex -4.84679 0 0
      vertex -22.3226 -2.82 0
      vertex -21.7931 -5.59552 0
    endloop
  endfacet
  facet normal 0 0 1
    outer loop
      vertex -4.84679 0 0
      vertex -22.5 0 0
      vertex -22.3226 -2.82 0
    endloop
  endfacet
  facet normal -0.866025 0.5 0
    outer loop
      vertex 2.42339 -4.19745 -4
      vertex 4.84679 0 0
      vertex 4.84679 0 -4
    endloop
  endfacet
  facet normal -0.866025 0.5 0
    outer loop
      vertex 4.84679 0 0
      vertex 2.42339 -4.19745 -4
      vertex 2.42339 -4.19745 0
    endloop
  endfacet
  facet normal 0 0 1
    outer loop
      vertex 4.84679 0 -4
      vertex 2.72832 0.344666 -4
      vertex 2.75 0 -4
    endloop
  endfacet
  facet normal 0 0 1
    outer loop
      vertex 4.84679 0 -4
      vertex 2.6636 0.683897 -4
      vertex 2.72832 0.344666 -4
    endloop
  endfacet
  facet normal 0 0 1
    outer loop
      vertex 4.84679 0 -4
      vertex 2.55688 1.01234 -4
      vertex 2.6636 0.683897 -4
    endloop
  endfacet
  facet normal -0 0 1
    outer loop
      vertex 2.40984 1.32482 -4
      vertex 4.84679 0 -4
      vertex 2.42339 4.19745 -4
    endloop
  endfacet
  facet normal 0 0 1
    outer loop
      vertex 4.84679 0 -4
      vertex 2.40984 1.32482 -4
      vertex 2.55688 1.01234 -4
    endloop
  endfacet
  facet normal 0 0 1
    outer loop
      vertex 2.42339 4.19745 -4
      vertex 2.2248 1.61641 -4
      vertex 2.40984 1.32482 -4
    endloop
  endfacet
  facet normal 0 0 1
    outer loop
      vertex 2.42339 4.19745 -4
      vertex 2.00466 1.8825 -4
      vertex 2.2248 1.61641 -4
    endloop
  endfacet
  facet normal 0 0 1
    outer loop
      vertex 2.42339 4.19745 -4
      vertex 1.75292 2.11891 -4
      vertex 2.00466 1.8825 -4
    endloop
  endfacet
  facet normal 0 0 1
    outer loop
      vertex 2.42339 4.19745 -4
      vertex 1.47352 2.3219 -4
      vertex 1.75292 2.11891 -4
    endloop
  endfacet
  facet normal 0 0 1
    outer loop
      vertex 2.42339 4.19745 -4
      vertex 1.17089 2.48827 -4
      vertex 1.47352 2.3219 -4
    endloop
  endfacet
  facet normal 0 0 1
    outer loop
      vertex 2.42339 4.19745 -4
      vertex 0.849796 2.61541 -4
      vertex 1.17089 2.48827 -4
    endloop
  endfacet
  facet normal 0 0 1
    outer loop
      vertex 2.42339 4.19745 -4
      vertex 0.515298 2.70129 -4
      vertex 0.849796 2.61541 -4
    endloop
  endfacet
  facet normal 0 0 1
    outer loop
      vertex 2.42339 4.19745 -4
      vertex 0.172673 2.74457 -4
      vertex 0.515298 2.70129 -4
    endloop
  endfacet
  facet normal 0 0 1
    outer loop
      vertex 2.42339 4.19745 -4
      vertex -0.172673 2.74457 -4
      vertex 0.172673 2.74457 -4
    endloop
  endfacet
  facet normal -0 0 1
    outer loop
      vertex -2.42339 4.19745 -4
      vertex -0.172673 2.74457 -4
      vertex 2.42339 4.19745 -4
    endloop
  endfacet
  facet normal 0 0 1
    outer loop
      vertex -0.172673 2.74457 -4
      vertex -2.42339 4.19745 -4
      vertex -0.515298 2.70129 -4
    endloop
  endfacet
  facet normal 0 0 1
    outer loop
      vertex -0.515298 2.70129 -4
      vertex -2.42339 4.19745 -4
      vertex -0.849796 2.61541 -4
    endloop
  endfacet
  facet normal 0 0 1
    outer loop
      vertex -0.849796 2.61541 -4
      vertex -2.42339 4.19745 -4
      vertex -1.17089 2.48827 -4
    endloop
  endfacet
  facet normal 0 0 1
    outer loop
      vertex -2.42339 4.19745 -4
      vertex -1.47352 2.3219 -4
      vertex -1.17089 2.48827 -4
    endloop
  endfacet
  facet normal 0 0 1
    outer loop
      vertex -2.42339 4.19745 -4
      vertex -1.75292 2.11891 -4
      vertex -1.47352 2.3219 -4
    endloop
  endfacet
  facet normal 0 0 1
    outer loop
      vertex -2.42339 4.19745 -4
      vertex -2.00466 1.8825 -4
      vertex -1.75292 2.11891 -4
    endloop
  endfacet
  facet normal 0 0 1
    outer loop
      vertex -2.42339 4.19745 -4
      vertex -2.2248 1.61641 -4
      vertex -2.00466 1.8825 -4
    endloop
  endfacet
  facet normal 0 0 1
    outer loop
      vertex -2.42339 4.19745 -4
      vertex -2.40984 1.32482 -4
      vertex -2.2248 1.61641 -4
    endloop
  endfacet
  facet normal 0 0 1
    outer loop
      vertex -4.84679 0 -4
      vertex -2.40984 1.32482 -4
      vertex -2.42339 4.19745 -4
    endloop
  endfacet
  facet normal 0 0 1
    outer loop
      vertex -2.40984 1.32482 -4
      vertex -4.84679 0 -4
      vertex -2.55688 1.01234 -4
    endloop
  endfacet
  facet normal 0 0 1
    outer loop
      vertex -2.55688 1.01234 -4
      vertex -4.84679 0 -4
      vertex -2.6636 0.683897 -4
    endloop
  endfacet
  facet normal 0 0 1
    outer loop
      vertex -2.72832 0.344666 -4
      vertex -4.84679 0 -4
      vertex -2.75 0 -4
    endloop
  endfacet
  facet normal 0 0 1
    outer loop
      vertex -2.6636 0.683897 -4
      vertex -4.84679 0 -4
      vertex -2.72832 0.344666 -4
    endloop
  endfacet
  facet normal 0 0 1
    outer loop
      vertex 2.72832 -0.344666 -4
      vertex 4.84679 0 -4
      vertex 2.75 0 -4
    endloop
  endfacet
  facet normal 0 0 1
    outer loop
      vertex 2.6636 -0.683897 -4
      vertex 4.84679 0 -4
      vertex 2.72832 -0.344666 -4
    endloop
  endfacet
  facet normal 0 0 1
    outer loop
      vertex 2.55688 -1.01234 -4
      vertex 4.84679 0 -4
      vertex 2.6636 -0.683897 -4
    endloop
  endfacet
  facet normal 0 0 1
    outer loop
      vertex 2.40984 -1.32482 -4
      vertex 4.84679 0 -4
      vertex 2.55688 -1.01234 -4
    endloop
  endfacet
  facet normal 0 0 1
    outer loop
      vertex 4.84679 0 -4
      vertex 2.40984 -1.32482 -4
      vertex 2.42339 -4.19745 -4
    endloop
  endfacet
  facet normal -0 0 1
    outer loop
      vertex 2.2248 -1.61641 -4
      vertex 2.42339 -4.19745 -4
      vertex 2.40984 -1.32482 -4
    endloop
  endfacet
  facet normal -0 0 1
    outer loop
      vertex 2.00466 -1.8825 -4
      vertex 2.42339 -4.19745 -4
      vertex 2.2248 -1.61641 -4
    endloop
  endfacet
  facet normal -0 0 1
    outer loop
      vertex 1.75292 -2.11891 -4
      vertex 2.42339 -4.19745 -4
      vertex 2.00466 -1.8825 -4
    endloop
  endfacet
  facet normal -0 0 1
    outer loop
      vertex 1.47352 -2.3219 -4
      vertex 2.42339 -4.19745 -4
      vertex 1.75292 -2.11891 -4
    endloop
  endfacet
  facet normal -0 0 1
    outer loop
      vertex 1.17089 -2.48827 -4
      vertex 2.42339 -4.19745 -4
      vertex 1.47352 -2.3219 -4
    endloop
  endfacet
  facet normal -0 0 1
    outer loop
      vertex 0.849796 -2.61541 -4
      vertex 2.42339 -4.19745 -4
      vertex 1.17089 -2.48827 -4
    endloop
  endfacet
  facet normal -0 0 1
    outer loop
      vertex 0.515298 -2.70129 -4
      vertex 2.42339 -4.19745 -4
      vertex 0.849796 -2.61541 -4
    endloop
  endfacet
  facet normal -0 0 1
    outer loop
      vertex 0.172673 -2.74457 -4
      vertex 2.42339 -4.19745 -4
      vertex 0.515298 -2.70129 -4
    endloop
  endfacet
  facet normal -0 0 1
    outer loop
      vertex -0.172673 -2.74457 -4
      vertex 2.42339 -4.19745 -4
      vertex 0.172673 -2.74457 -4
    endloop
  endfacet
  facet normal 0 0 1
    outer loop
      vertex -2.42339 -4.19745 -4
      vertex -0.172673 -2.74457 -4
      vertex -0.515298 -2.70129 -4
    endloop
  endfacet
  facet normal 0 0 1
    outer loop
      vertex -2.42339 -4.19745 -4
      vertex -0.515298 -2.70129 -4
      vertex -0.849796 -2.61541 -4
    endloop
  endfacet
  facet normal 0 0 1
    outer loop
      vertex -2.42339 -4.19745 -4
      vertex -0.849796 -2.61541 -4
      vertex -1.17089 -2.48827 -4
    endloop
  endfacet
  facet normal 0 0 1
    outer loop
      vertex -0.172673 -2.74457 -4
      vertex -2.42339 -4.19745 -4
      vertex 2.42339 -4.19745 -4
    endloop
  endfacet
  facet normal 0 0 1
    outer loop
      vertex -1.47352 -2.3219 -4
      vertex -2.42339 -4.19745 -4
      vertex -1.17089 -2.48827 -4
    endloop
  endfacet
  facet normal 0 0 1
    outer loop
      vertex -1.75292 -2.11891 -4
      vertex -2.42339 -4.19745 -4
      vertex -1.47352 -2.3219 -4
    endloop
  endfacet
  facet normal 0 0 1
    outer loop
      vertex -2.00466 -1.8825 -4
      vertex -2.42339 -4.19745 -4
      vertex -1.75292 -2.11891 -4
    endloop
  endfacet
  facet normal 0 0 1
    outer loop
      vertex -2.2248 -1.61641 -4
      vertex -2.42339 -4.19745 -4
      vertex -2.00466 -1.8825 -4
    endloop
  endfacet
  facet normal 0 0 1
    outer loop
      vertex -2.40984 -1.32482 -4
      vertex -2.42339 -4.19745 -4
      vertex -2.2248 -1.61641 -4
    endloop
  endfacet
  facet normal 0 0 1
    outer loop
      vertex -4.84679 0 -4
      vertex -2.40984 -1.32482 -4
      vertex -2.55688 -1.01234 -4
    endloop
  endfacet
  facet normal 0 0 1
    outer loop
      vertex -4.84679 0 -4
      vertex -2.55688 -1.01234 -4
      vertex -2.6636 -0.683897 -4
    endloop
  endfacet
  facet normal 0 0 1
    outer loop
      vertex -4.84679 0 -4
      vertex -2.6636 -0.683897 -4
      vertex -2.72832 -0.344666 -4
    endloop
  endfacet
  facet normal 0 0 1
    outer loop
      vertex -2.40984 -1.32482 -4
      vertex -4.84679 0 -4
      vertex -2.42339 -4.19745 -4
    endloop
  endfacet
  facet normal -0 0 1
    outer loop
      vertex -4.84679 0 -4
      vertex -2.72832 -0.344666 -4
      vertex -2.75 0 -4
    endloop
  endfacet
  facet normal 0.866025 0.5 0
    outer loop
      vertex -2.42339 -4.19745 0
      vertex -4.84679 0 -4
      vertex -4.84679 0 0
    endloop
  endfacet
  facet normal 0.866025 0.5 0
    outer loop
      vertex -4.84679 0 -4
      vertex -2.42339 -4.19745 0
      vertex -2.42339 -4.19745 -4
    endloop
  endfacet
  facet normal 0 1 -0
    outer loop
      vertex 2.42339 -4.19745 -4
      vertex -2.42339 -4.19745 0
      vertex 2.42339 -4.19745 0
    endloop
  endfacet
  facet normal 0 1 0
    outer loop
      vertex -2.42339 -4.19745 0
      vertex 2.42339 -4.19745 -4
      vertex -2.42339 -4.19745 -4
    endloop
  endfacet
  facet normal -0.998028 -0.0627774 0
    outer loop
      vertex 2.75 0 -16.5
      vertex 2.72832 0.344666 -4
      vertex 2.72832 0.344666 -16.5
    endloop
  endfacet
  facet normal -0.998028 -0.0627774 0
    outer loop
      vertex 2.72832 0.344666 -4
      vertex 2.75 0 -16.5
      vertex 2.75 0 -4
    endloop
  endfacet
  facet normal 0.998028 -0.0627774 0
    outer loop
      vertex -2.75 0 -4
      vertex -2.72832 0.344666 -16.5
      vertex -2.72832 0.344666 -4
    endloop
  endfacet
  facet normal 0.998028 -0.0627774 0
    outer loop
      vertex -2.72832 0.344666 -16.5
      vertex -2.75 0 -4
      vertex -2.75 0 -16.5
    endloop
  endfacet
  facet normal 0 -1 0
    outer loop
      vertex -0.172673 2.74457 -16.5
      vertex 0.172673 2.74457 -4
      vertex -0.172673 2.74457 -4
    endloop
  endfacet
  facet normal 0 -1 -0
    outer loop
      vertex 0.172673 2.74457 -4
      vertex -0.172673 2.74457 -16.5
      vertex 0.172673 2.74457 -16.5
    endloop
  endfacet
  facet normal 0 1 -0
    outer loop
      vertex 0.172673 -2.74457 -16.5
      vertex -0.172673 -2.74457 -4
      vertex 0.172673 -2.74457 -4
    endloop
  endfacet
  facet normal 0 1 0
    outer loop
      vertex -0.172673 -2.74457 -4
      vertex 0.172673 -2.74457 -16.5
      vertex -0.172673 -2.74457 -16.5
    endloop
  endfacet
  facet normal -0.684563 -0.728954 0
    outer loop
      vertex 1.75292 2.11891 -16.5
      vertex 2.00466 1.8825 -4
      vertex 1.75292 2.11891 -4
    endloop
  endfacet
  facet normal -0.684563 -0.728954 -0
    outer loop
      vertex 2.00466 1.8825 -4
      vertex 1.75292 2.11891 -16.5
      vertex 2.00466 1.8825 -16.5
    endloop
  endfacet
  facet normal 0.684563 -0.728954 0
    outer loop
      vertex -2.00466 1.8825 -16.5
      vertex -1.75292 2.11891 -4
      vertex -2.00466 1.8825 -4
    endloop
  endfacet
  facet normal 0.684563 -0.728954 0
    outer loop
      vertex -1.75292 2.11891 -4
      vertex -2.00466 1.8825 -16.5
      vertex -1.75292 2.11891 -16.5
    endloop
  endfacet
  facet normal 0.368149 -0.929767 0
    outer loop
      vertex -1.17089 2.48827 -16.5
      vertex -0.849796 2.61541 -4
      vertex -1.17089 2.48827 -4
    endloop
  endfacet
  facet normal 0.368149 -0.929767 0
    outer loop
      vertex -0.849796 2.61541 -4
      vertex -1.17089 2.48827 -16.5
      vertex -0.849796 2.61541 -16.5
    endloop
  endfacet
  facet normal -0.904829 0.425775 0
    outer loop
      vertex 2.40984 -1.32482 -16.5
      vertex 2.55688 -1.01234 -4
      vertex 2.55688 -1.01234 -16.5
    endloop
  endfacet
  facet normal -0.904829 0.425775 0
    outer loop
      vertex 2.55688 -1.01234 -4
      vertex 2.40984 -1.32482 -16.5
      vertex 2.40984 -1.32482 -4
    endloop
  endfacet
  facet normal -0.904829 -0.425775 0
    outer loop
      vertex 2.55688 1.01234 -16.5
      vertex 2.40984 1.32482 -4
      vertex 2.40984 1.32482 -16.5
    endloop
  endfacet
  facet normal -0.904829 -0.425775 0
    outer loop
      vertex 2.40984 1.32482 -4
      vertex 2.55688 1.01234 -16.5
      vertex 2.55688 1.01234 -4
    endloop
  endfacet
  facet normal -0.368149 -0.929767 0
    outer loop
      vertex 0.849796 2.61541 -16.5
      vertex 1.17089 2.48827 -4
      vertex 0.849796 2.61541 -4
    endloop
  endfacet
  facet normal -0.368149 -0.929767 -0
    outer loop
      vertex 1.17089 2.48827 -4
      vertex 0.849796 2.61541 -16.5
      vertex 1.17089 2.48827 -16.5
    endloop
  endfacet
  facet normal -0.587774 -0.809025 0
    outer loop
      vertex 1.47352 2.3219 -16.5
      vertex 1.75292 2.11891 -4
      vertex 1.47352 2.3219 -4
    endloop
  endfacet
  facet normal -0.587774 -0.809025 -0
    outer loop
      vertex 1.75292 2.11891 -4
      vertex 1.47352 2.3219 -16.5
      vertex 1.75292 2.11891 -16.5
    endloop
  endfacet
  facet normal 0.904829 -0.425775 0
    outer loop
      vertex -2.55688 1.01234 -4
      vertex -2.40984 1.32482 -16.5
      vertex -2.40984 1.32482 -4
    endloop
  endfacet
  facet normal 0.904829 -0.425775 0
    outer loop
      vertex -2.40984 1.32482 -16.5
      vertex -2.55688 1.01234 -4
      vertex -2.55688 1.01234 -16.5
    endloop
  endfacet
  facet normal 0.770497 -0.637443 0
    outer loop
      vertex -2.2248 1.61641 -4
      vertex -2.00466 1.8825 -16.5
      vertex -2.00466 1.8825 -4
    endloop
  endfacet
  facet normal 0.770497 -0.637443 0
    outer loop
      vertex -2.00466 1.8825 -16.5
      vertex -2.2248 1.61641 -4
      vertex -2.2248 1.61641 -16.5
    endloop
  endfacet
  facet normal 0.481749 -0.876309 0
    outer loop
      vertex -1.47352 2.3219 -16.5
      vertex -1.17089 2.48827 -4
      vertex -1.47352 2.3219 -4
    endloop
  endfacet
  facet normal 0.481749 -0.876309 0
    outer loop
      vertex -1.17089 2.48827 -4
      vertex -1.47352 2.3219 -16.5
      vertex -1.17089 2.48827 -16.5
    endloop
  endfacet
  facet normal 0.248678 -0.968586 0
    outer loop
      vertex -0.849796 2.61541 -16.5
      vertex -0.515298 2.70129 -4
      vertex -0.849796 2.61541 -4
    endloop
  endfacet
  facet normal 0.248678 -0.968586 0
    outer loop
      vertex -0.515298 2.70129 -4
      vertex -0.849796 2.61541 -16.5
      vertex -0.515298 2.70129 -16.5
    endloop
  endfacet
  facet normal -0.125323 0.992116 0
    outer loop
      vertex 0.515298 -2.70129 -16.5
      vertex 0.172673 -2.74457 -4
      vertex 0.515298 -2.70129 -4
    endloop
  endfacet
  facet normal -0.125323 0.992116 0
    outer loop
      vertex 0.172673 -2.74457 -4
      vertex 0.515298 -2.70129 -16.5
      vertex 0.172673 -2.74457 -16.5
    endloop
  endfacet
  facet normal -0.368149 0.929767 0
    outer loop
      vertex 1.17089 -2.48827 -16.5
      vertex 0.849796 -2.61541 -4
      vertex 1.17089 -2.48827 -4
    endloop
  endfacet
  facet normal -0.368149 0.929767 0
    outer loop
      vertex 0.849796 -2.61541 -4
      vertex 1.17089 -2.48827 -16.5
      vertex 0.849796 -2.61541 -16.5
    endloop
  endfacet
  facet normal -0.951054 -0.309023 0
    outer loop
      vertex 2.6636 0.683897 -16.5
      vertex 2.55688 1.01234 -4
      vertex 2.55688 1.01234 -16.5
    endloop
  endfacet
  facet normal -0.951054 -0.309023 0
    outer loop
      vertex 2.55688 1.01234 -4
      vertex 2.6636 0.683897 -16.5
      vertex 2.6636 0.683897 -4
    endloop
  endfacet
  facet normal -0.982283 -0.187404 0
    outer loop
      vertex 2.72832 0.344666 -16.5
      vertex 2.6636 0.683897 -4
      vertex 2.6636 0.683897 -16.5
    endloop
  endfacet
  facet normal -0.982283 -0.187404 0
    outer loop
      vertex 2.6636 0.683897 -4
      vertex 2.72832 0.344666 -16.5
      vertex 2.72832 0.344666 -4
    endloop
  endfacet
  facet normal -0.770497 -0.637443 0
    outer loop
      vertex 2.2248 1.61641 -16.5
      vertex 2.00466 1.8825 -4
      vertex 2.00466 1.8825 -16.5
    endloop
  endfacet
  facet normal -0.770497 -0.637443 0
    outer loop
      vertex 2.00466 1.8825 -4
      vertex 2.2248 1.61641 -16.5
      vertex 2.2248 1.61641 -4
    endloop
  endfacet
  facet normal -0.844339 -0.535809 0
    outer loop
      vertex 2.40984 1.32482 -16.5
      vertex 2.2248 1.61641 -4
      vertex 2.2248 1.61641 -16.5
    endloop
  endfacet
  facet normal -0.844339 -0.535809 0
    outer loop
      vertex 2.2248 1.61641 -4
      vertex 2.40984 1.32482 -16.5
      vertex 2.40984 1.32482 -4
    endloop
  endfacet
  facet normal -0.248678 -0.968586 0
    outer loop
      vertex 0.515298 2.70129 -16.5
      vertex 0.849796 2.61541 -4
      vertex 0.515298 2.70129 -4
    endloop
  endfacet
  facet normal -0.248678 -0.968586 -0
    outer loop
      vertex 0.849796 2.61541 -4
      vertex 0.515298 2.70129 -16.5
      vertex 0.849796 2.61541 -16.5
    endloop
  endfacet
  facet normal -0.125323 -0.992116 0
    outer loop
      vertex 0.172673 2.74457 -16.5
      vertex 0.515298 2.70129 -4
      vertex 0.172673 2.74457 -4
    endloop
  endfacet
  facet normal -0.125323 -0.992116 -0
    outer loop
      vertex 0.515298 2.70129 -4
      vertex 0.172673 2.74457 -16.5
      vertex 0.515298 2.70129 -16.5
    endloop
  endfacet
  facet normal -0.481749 -0.876309 0
    outer loop
      vertex 1.17089 2.48827 -16.5
      vertex 1.47352 2.3219 -4
      vertex 1.17089 2.48827 -4
    endloop
  endfacet
  facet normal -0.481749 -0.876309 -0
    outer loop
      vertex 1.47352 2.3219 -4
      vertex 1.17089 2.48827 -16.5
      vertex 1.47352 2.3219 -16.5
    endloop
  endfacet
  facet normal 0.844339 -0.535809 0
    outer loop
      vertex -2.40984 1.32482 -4
      vertex -2.2248 1.61641 -16.5
      vertex -2.2248 1.61641 -4
    endloop
  endfacet
  facet normal 0.844339 -0.535809 0
    outer loop
      vertex -2.2248 1.61641 -16.5
      vertex -2.40984 1.32482 -4
      vertex -2.40984 1.32482 -16.5
    endloop
  endfacet
  facet normal 0.951054 -0.309023 0
    outer loop
      vertex -2.6636 0.683897 -4
      vertex -2.55688 1.01234 -16.5
      vertex -2.55688 1.01234 -4
    endloop
  endfacet
  facet normal 0.951054 -0.309023 0
    outer loop
      vertex -2.55688 1.01234 -16.5
      vertex -2.6636 0.683897 -4
      vertex -2.6636 0.683897 -16.5
    endloop
  endfacet
  facet normal 0.982283 -0.187404 0
    outer loop
      vertex -2.72832 0.344666 -4
      vertex -2.6636 0.683897 -16.5
      vertex -2.6636 0.683897 -4
    endloop
  endfacet
  facet normal 0.982283 -0.187404 0
    outer loop
      vertex -2.6636 0.683897 -16.5
      vertex -2.72832 0.344666 -4
      vertex -2.72832 0.344666 -16.5
    endloop
  endfacet
  facet normal 0.587774 -0.809025 0
    outer loop
      vertex -1.75292 2.11891 -16.5
      vertex -1.47352 2.3219 -4
      vertex -1.75292 2.11891 -4
    endloop
  endfacet
  facet normal 0.587774 -0.809025 0
    outer loop
      vertex -1.47352 2.3219 -4
      vertex -1.75292 2.11891 -16.5
      vertex -1.47352 2.3219 -16.5
    endloop
  endfacet
  facet normal 0.125323 -0.992116 0
    outer loop
      vertex -0.515298 2.70129 -16.5
      vertex -0.172673 2.74457 -4
      vertex -0.515298 2.70129 -4
    endloop
  endfacet
  facet normal 0.125323 -0.992116 0
    outer loop
      vertex -0.172673 2.74457 -4
      vertex -0.515298 2.70129 -16.5
      vertex -0.172673 2.74457 -16.5
    endloop
  endfacet
  facet normal -0.998028 0.0627774 0
    outer loop
      vertex 2.72832 -0.344666 -16.5
      vertex 2.75 0 -4
      vertex 2.75 0 -16.5
    endloop
  endfacet
  facet normal -0.998028 0.0627774 0
    outer loop
      vertex 2.75 0 -4
      vertex 2.72832 -0.344666 -16.5
      vertex 2.72832 -0.344666 -4
    endloop
  endfacet
  facet normal -0.770497 0.637443 0
    outer loop
      vertex 2.00466 -1.8825 -16.5
      vertex 2.2248 -1.61641 -4
      vertex 2.2248 -1.61641 -16.5
    endloop
  endfacet
  facet normal -0.770497 0.637443 0
    outer loop
      vertex 2.2248 -1.61641 -4
      vertex 2.00466 -1.8825 -16.5
      vertex 2.00466 -1.8825 -4
    endloop
  endfacet
  facet normal 0.684563 0.728954 -0
    outer loop
      vertex -1.75292 -2.11891 -16.5
      vertex -2.00466 -1.8825 -4
      vertex -1.75292 -2.11891 -4
    endloop
  endfacet
  facet normal 0.684563 0.728954 0
    outer loop
      vertex -2.00466 -1.8825 -4
      vertex -1.75292 -2.11891 -16.5
      vertex -2.00466 -1.8825 -16.5
    endloop
  endfacet
  facet normal 0.904829 0.425775 0
    outer loop
      vertex -2.40984 -1.32482 -4
      vertex -2.55688 -1.01234 -16.5
      vertex -2.55688 -1.01234 -4
    endloop
  endfacet
  facet normal 0.904829 0.425775 0
    outer loop
      vertex -2.55688 -1.01234 -16.5
      vertex -2.40984 -1.32482 -4
      vertex -2.40984 -1.32482 -16.5
    endloop
  endfacet
  facet normal 0.770497 0.637443 0
    outer loop
      vertex -2.00466 -1.8825 -4
      vertex -2.2248 -1.61641 -16.5
      vertex -2.2248 -1.61641 -4
    endloop
  endfacet
  facet normal 0.770497 0.637443 0
    outer loop
      vertex -2.2248 -1.61641 -16.5
      vertex -2.00466 -1.8825 -4
      vertex -2.00466 -1.8825 -16.5
    endloop
  endfacet
  facet normal -0.481749 0.876309 0
    outer loop
      vertex 1.47352 -2.3219 -16.5
      vertex 1.17089 -2.48827 -4
      vertex 1.47352 -2.3219 -4
    endloop
  endfacet
  facet normal -0.481749 0.876309 0
    outer loop
      vertex 1.17089 -2.48827 -4
      vertex 1.47352 -2.3219 -16.5
      vertex 1.17089 -2.48827 -16.5
    endloop
  endfacet
  facet normal -0.951054 0.309023 0
    outer loop
      vertex 2.55688 -1.01234 -16.5
      vertex 2.6636 -0.683897 -4
      vertex 2.6636 -0.683897 -16.5
    endloop
  endfacet
  facet normal -0.951054 0.309023 0
    outer loop
      vertex 2.6636 -0.683897 -4
      vertex 2.55688 -1.01234 -16.5
      vertex 2.55688 -1.01234 -4
    endloop
  endfacet
  facet normal -0.844339 0.535809 0
    outer loop
      vertex 2.2248 -1.61641 -16.5
      vertex 2.40984 -1.32482 -4
      vertex 2.40984 -1.32482 -16.5
    endloop
  endfacet
  facet normal -0.844339 0.535809 0
    outer loop
      vertex 2.40984 -1.32482 -4
      vertex 2.2248 -1.61641 -16.5
      vertex 2.2248 -1.61641 -4
    endloop
  endfacet
  facet normal 0.982283 0.187404 0
    outer loop
      vertex -2.6636 -0.683897 -4
      vertex -2.72832 -0.344666 -16.5
      vertex -2.72832 -0.344666 -4
    endloop
  endfacet
  facet normal 0.982283 0.187404 0
    outer loop
      vertex -2.72832 -0.344666 -16.5
      vertex -2.6636 -0.683897 -4
      vertex -2.6636 -0.683897 -16.5
    endloop
  endfacet
  facet normal 0.998028 0.0627774 0
    outer loop
      vertex -2.72832 -0.344666 -4
      vertex -2.75 0 -16.5
      vertex -2.75 0 -4
    endloop
  endfacet
  facet normal 0.998028 0.0627774 0
    outer loop
      vertex -2.75 0 -16.5
      vertex -2.72832 -0.344666 -4
      vertex -2.72832 -0.344666 -16.5
    endloop
  endfacet
  facet normal 0.951054 0.309023 0
    outer loop
      vertex -2.55688 -1.01234 -4
      vertex -2.6636 -0.683897 -16.5
      vertex -2.6636 -0.683897 -4
    endloop
  endfacet
  facet normal 0.951054 0.309023 0
    outer loop
      vertex -2.6636 -0.683897 -16.5
      vertex -2.55688 -1.01234 -4
      vertex -2.55688 -1.01234 -16.5
    endloop
  endfacet
  facet normal -0.587774 0.809025 0
    outer loop
      vertex 1.75292 -2.11891 -16.5
      vertex 1.47352 -2.3219 -4
      vertex 1.75292 -2.11891 -4
    endloop
  endfacet
  facet normal -0.587774 0.809025 0
    outer loop
      vertex 1.47352 -2.3219 -4
      vertex 1.75292 -2.11891 -16.5
      vertex 1.47352 -2.3219 -16.5
    endloop
  endfacet
  facet normal -0.248678 0.968586 0
    outer loop
      vertex 0.849796 -2.61541 -16.5
      vertex 0.515298 -2.70129 -4
      vertex 0.849796 -2.61541 -4
    endloop
  endfacet
  facet normal -0.248678 0.968586 0
    outer loop
      vertex 0.515298 -2.70129 -4
      vertex 0.849796 -2.61541 -16.5
      vertex 0.515298 -2.70129 -16.5
    endloop
  endfacet
  facet normal -0.982283 0.187404 0
    outer loop
      vertex 2.6636 -0.683897 -16.5
      vertex 2.72832 -0.344666 -4
      vertex 2.72832 -0.344666 -16.5
    endloop
  endfacet
  facet normal -0.982283 0.187404 0
    outer loop
      vertex 2.72832 -0.344666 -4
      vertex 2.6636 -0.683897 -16.5
      vertex 2.6636 -0.683897 -4
    endloop
  endfacet
  facet normal 0.125323 0.992116 -0
    outer loop
      vertex -0.172673 -2.74457 -16.5
      vertex -0.515298 -2.70129 -4
      vertex -0.172673 -2.74457 -4
    endloop
  endfacet
  facet normal 0.125323 0.992116 0
    outer loop
      vertex -0.515298 -2.70129 -4
      vertex -0.172673 -2.74457 -16.5
      vertex -0.515298 -2.70129 -16.5
    endloop
  endfacet
  facet normal 0.368149 0.929767 -0
    outer loop
      vertex -0.849796 -2.61541 -16.5
      vertex -1.17089 -2.48827 -4
      vertex -0.849796 -2.61541 -4
    endloop
  endfacet
  facet normal 0.368149 0.929767 0
    outer loop
      vertex -1.17089 -2.48827 -4
      vertex -0.849796 -2.61541 -16.5
      vertex -1.17089 -2.48827 -16.5
    endloop
  endfacet
  facet normal 0.248678 0.968586 -0
    outer loop
      vertex -0.515298 -2.70129 -16.5
      vertex -0.849796 -2.61541 -4
      vertex -0.515298 -2.70129 -4
    endloop
  endfacet
  facet normal 0.248678 0.968586 0
    outer loop
      vertex -0.849796 -2.61541 -4
      vertex -0.515298 -2.70129 -16.5
      vertex -0.849796 -2.61541 -16.5
    endloop
  endfacet
  facet normal 0.844339 0.535809 0
    outer loop
      vertex -2.2248 -1.61641 -4
      vertex -2.40984 -1.32482 -16.5
      vertex -2.40984 -1.32482 -4
    endloop
  endfacet
  facet normal 0.844339 0.535809 0
    outer loop
      vertex -2.40984 -1.32482 -16.5
      vertex -2.2248 -1.61641 -4
      vertex -2.2248 -1.61641 -16.5
    endloop
  endfacet
  facet normal -0.684563 0.728954 0
    outer loop
      vertex 2.00466 -1.8825 -16.5
      vertex 1.75292 -2.11891 -4
      vertex 2.00466 -1.8825 -4
    endloop
  endfacet
  facet normal -0.684563 0.728954 0
    outer loop
      vertex 1.75292 -2.11891 -4
      vertex 2.00466 -1.8825 -16.5
      vertex 1.75292 -2.11891 -16.5
    endloop
  endfacet
  facet normal 0.481749 0.876309 -0
    outer loop
      vertex -1.17089 -2.48827 -16.5
      vertex -1.47352 -2.3219 -4
      vertex -1.17089 -2.48827 -4
    endloop
  endfacet
  facet normal 0.481749 0.876309 0
    outer loop
      vertex -1.47352 -2.3219 -4
      vertex -1.17089 -2.48827 -16.5
      vertex -1.47352 -2.3219 -16.5
    endloop
  endfacet
  facet normal 0.587774 0.809025 -0
    outer loop
      vertex -1.47352 -2.3219 -16.5
      vertex -1.75292 -2.11891 -4
      vertex -1.47352 -2.3219 -4
    endloop
  endfacet
  facet normal 0.587774 0.809025 0
    outer loop
      vertex -1.75292 -2.11891 -4
      vertex -1.47352 -2.3219 -16.5
      vertex -1.75292 -2.11891 -16.5
    endloop
  endfacet
  facet normal 0.904826 0.425782 0
    outer loop
      vertex 20.92 8.2828 0
      vertex 19.7169 10.8395 -16.5
      vertex 19.7169 10.8395 0
    endloop
  endfacet
  facet normal 0.904826 0.425782 0
    outer loop
      vertex 19.7169 10.8395 -16.5
      vertex 20.92 8.2828 0
      vertex 20.92 8.2828 -16.5
    endloop
  endfacet
  facet normal 0.84433 0.535824 0
    outer loop
      vertex 19.7169 10.8395 0
      vertex 18.2029 13.2252 -16.5
      vertex 18.2029 13.2252 0
    endloop
  endfacet
  facet normal 0.84433 0.535824 0
    outer loop
      vertex 18.2029 13.2252 -16.5
      vertex 19.7169 10.8395 0
      vertex 19.7169 10.8395 -16.5
    endloop
  endfacet
  facet normal 0.368136 0.929772 -0
    outer loop
      vertex 9.58003 20.3586 -16.5
      vertex 6.95288 21.3988 0
      vertex 9.58003 20.3586 0
    endloop
  endfacet
  facet normal 0.368136 0.929772 0
    outer loop
      vertex 6.95288 21.3988 0
      vertex 9.58003 20.3586 -16.5
      vertex 6.95288 21.3988 -16.5
    endloop
  endfacet
  facet normal -0.368136 0.929772 0
    outer loop
      vertex -6.95288 21.3988 -16.5
      vertex -9.58003 20.3586 0
      vertex -6.95288 21.3988 0
    endloop
  endfacet
  facet normal -0.368136 0.929772 0
    outer loop
      vertex -9.58003 20.3586 0
      vertex -6.95288 21.3988 -16.5
      vertex -9.58003 20.3586 -16.5
    endloop
  endfacet
  facet normal -0.904826 0.425782 0
    outer loop
      vertex -20.92 8.2828 -16.5
      vertex -19.7169 10.8395 0
      vertex -19.7169 10.8395 -16.5
    endloop
  endfacet
  facet normal -0.904826 0.425782 0
    outer loop
      vertex -19.7169 10.8395 0
      vertex -20.92 8.2828 -16.5
      vertex -20.92 8.2828 0
    endloop
  endfacet
  facet normal 0.998027 -0.0627837 0
    outer loop
      vertex 22.3226 -2.82 0
      vertex 22.5 0 -16.5
      vertex 22.5 0 0
    endloop
  endfacet
  facet normal 0.998027 -0.0627837 0
    outer loop
      vertex 22.5 0 -16.5
      vertex 22.3226 -2.82 0
      vertex 22.3226 -2.82 -16.5
    endloop
  endfacet
  facet normal 0.684532 0.728983 -0
    outer loop
      vertex 16.4018 15.4023 -16.5
      vertex 14.342 17.3365 0
      vertex 16.4018 15.4023 0
    endloop
  endfacet
  facet normal 0.684532 0.728983 0
    outer loop
      vertex 14.342 17.3365 0
      vertex 16.4018 15.4023 -16.5
      vertex 14.342 17.3365 -16.5
    endloop
  endfacet
  facet normal 0 1 -0
    outer loop
      vertex 1.41279 22.4556 -16.5
      vertex -1.41279 22.4556 0
      vertex 1.41279 22.4556 0
    endloop
  endfacet
  facet normal 0 1 0
    outer loop
      vertex -1.41279 22.4556 0
      vertex 1.41279 22.4556 -16.5
      vertex -1.41279 22.4556 -16.5
    endloop
  endfacet
  facet normal 0.481745 0.876311 -0
    outer loop
      vertex 12.0561 18.9974 -16.5
      vertex 9.58003 20.3586 0
      vertex 12.0561 18.9974 0
    endloop
  endfacet
  facet normal 0.481745 0.876311 0
    outer loop
      vertex 9.58003 20.3586 0
      vertex 12.0561 18.9974 -16.5
      vertex 9.58003 20.3586 -16.5
    endloop
  endfacet
  facet normal -0.998027 0.0627837 0
    outer loop
      vertex -22.5 0 -16.5
      vertex -22.3226 2.82 0
      vertex -22.3226 2.82 -16.5
    endloop
  endfacet
  facet normal -0.998027 0.0627837 0
    outer loop
      vertex -22.3226 2.82 0
      vertex -22.5 0 -16.5
      vertex -22.5 0 0
    endloop
  endfacet
  facet normal -0.770505 0.637434 0
    outer loop
      vertex -18.2029 13.2252 -16.5
      vertex -16.4018 15.4023 0
      vertex -16.4018 15.4023 -16.5
    endloop
  endfacet
  facet normal -0.770505 0.637434 0
    outer loop
      vertex -16.4018 15.4023 0
      vertex -18.2029 13.2252 -16.5
      vertex -18.2029 13.2252 0
    endloop
  endfacet
  facet normal -0.248693 0.968582 0
    outer loop
      vertex -4.21608 22.1015 -16.5
      vertex -6.95288 21.3988 0
      vertex -4.21608 22.1015 0
    endloop
  endfacet
  facet normal -0.248693 0.968582 0
    outer loop
      vertex -6.95288 21.3988 0
      vertex -4.21608 22.1015 -16.5
      vertex -6.95288 21.3988 -16.5
    endloop
  endfacet
  facet normal -0.684532 0.728983 0
    outer loop
      vertex -14.342 17.3365 -16.5
      vertex -16.4018 15.4023 0
      vertex -14.342 17.3365 0
    endloop
  endfacet
  facet normal -0.684532 0.728983 0
    outer loop
      vertex -16.4018 15.4023 0
      vertex -14.342 17.3365 -16.5
      vertex -16.4018 15.4023 -16.5
    endloop
  endfacet
  facet normal 0.904826 -0.425782 0
    outer loop
      vertex 19.7169 -10.8395 0
      vertex 20.92 -8.2828 -16.5
      vertex 20.92 -8.2828 0
    endloop
  endfacet
  facet normal 0.904826 -0.425782 0
    outer loop
      vertex 20.92 -8.2828 -16.5
      vertex 19.7169 -10.8395 0
      vertex 19.7169 -10.8395 -16.5
    endloop
  endfacet
  facet normal 0 0 -1
    outer loop
      vertex 2.75 0 -16.5
      vertex 22.5 0 -16.5
      vertex 22.3226 -2.82 -16.5
    endloop
  endfacet
  facet normal 0 0 -1
    outer loop
      vertex 2.72832 -0.344666 -16.5
      vertex 22.3226 -2.82 -16.5
      vertex 21.7931 -5.59552 -16.5
    endloop
  endfacet
  facet normal 0 0 -1
    outer loop
      vertex 22.5 0 -16.5
      vertex 2.75 0 -16.5
      vertex 22.3226 2.82 -16.5
    endloop
  endfacet
  facet normal 0 0 -1
    outer loop
      vertex 2.6636 -0.683897 -16.5
      vertex 21.7931 -5.59552 -16.5
      vertex 20.92 -8.2828 -16.5
    endloop
  endfacet
  facet normal 0 0 -1
    outer loop
      vertex 2.72832 0.344666 -16.5
      vertex 22.3226 2.82 -16.5
      vertex 2.75 0 -16.5
    endloop
  endfacet
  facet normal 0 0 -1
    outer loop
      vertex 2.55688 -1.01234 -16.5
      vertex 20.92 -8.2828 -16.5
      vertex 19.7169 -10.8395 -16.5
    endloop
  endfacet
  facet normal -0 0 -1
    outer loop
      vertex 22.3226 2.82 -16.5
      vertex 2.72832 0.344666 -16.5
      vertex 21.7931 5.59552 -16.5
    endloop
  endfacet
  facet normal 0 0 -1
    outer loop
      vertex 2.40984 -1.32482 -16.5
      vertex 19.7169 -10.8395 -16.5
      vertex 18.2029 -13.2252 -16.5
    endloop
  endfacet
  facet normal 0 0 -1
    outer loop
      vertex 2.6636 0.683897 -16.5
      vertex 21.7931 5.59552 -16.5
      vertex 2.72832 0.344666 -16.5
    endloop
  endfacet
  facet normal 0 0 -1
    outer loop
      vertex 2.2248 -1.61641 -16.5
      vertex 18.2029 -13.2252 -16.5
      vertex 16.4018 -15.4023 -16.5
    endloop
  endfacet
  facet normal -0 0 -1
    outer loop
      vertex 21.7931 5.59552 -16.5
      vertex 2.6636 0.683897 -16.5
      vertex 20.92 8.2828 -16.5
    endloop
  endfacet
  facet normal 0 0 -1
    outer loop
      vertex 2.00466 -1.8825 -16.5
      vertex 16.4018 -15.4023 -16.5
      vertex 14.342 -17.3365 -16.5
    endloop
  endfacet
  facet normal 0 0 -1
    outer loop
      vertex 2.55688 1.01234 -16.5
      vertex 20.92 8.2828 -16.5
      vertex 2.6636 0.683897 -16.5
    endloop
  endfacet
  facet normal 0 0 -1
    outer loop
      vertex 1.75292 -2.11891 -16.5
      vertex 14.342 -17.3365 -16.5
      vertex 12.0561 -18.9974 -16.5
    endloop
  endfacet
  facet normal -0 0 -1
    outer loop
      vertex 20.92 8.2828 -16.5
      vertex 2.55688 1.01234 -16.5
      vertex 19.7169 10.8395 -16.5
    endloop
  endfacet
  facet normal 0 0 -1
    outer loop
      vertex 1.47352 -2.3219 -16.5
      vertex 12.0561 -18.9974 -16.5
      vertex 9.58003 -20.3586 -16.5
    endloop
  endfacet
  facet normal 0 0 -1
    outer loop
      vertex 2.40984 1.32482 -16.5
      vertex 19.7169 10.8395 -16.5
      vertex 2.55688 1.01234 -16.5
    endloop
  endfacet
  facet normal 0 0 -1
    outer loop
      vertex 1.17089 -2.48827 -16.5
      vertex 9.58003 -20.3586 -16.5
      vertex 6.95288 -21.3988 -16.5
    endloop
  endfacet
  facet normal -0 0 -1
    outer loop
      vertex 19.7169 10.8395 -16.5
      vertex 2.40984 1.32482 -16.5
      vertex 18.2029 13.2252 -16.5
    endloop
  endfacet
  facet normal 0 0 -1
    outer loop
      vertex 0.849796 -2.61541 -16.5
      vertex 6.95288 -21.3988 -16.5
      vertex 4.21608 -22.1015 -16.5
    endloop
  endfacet
  facet normal 0 0 -1
    outer loop
      vertex 2.2248 1.61641 -16.5
      vertex 18.2029 13.2252 -16.5
      vertex 2.40984 1.32482 -16.5
    endloop
  endfacet
  facet normal -0 0 -1
    outer loop
      vertex 18.2029 13.2252 -16.5
      vertex 2.2248 1.61641 -16.5
      vertex 16.4018 15.4023 -16.5
    endloop
  endfacet
  facet normal 0 0 -1
    outer loop
      vertex 22.3226 -2.82 -16.5
      vertex 2.72832 -0.344666 -16.5
      vertex 2.75 0 -16.5
    endloop
  endfacet
  facet normal 0 0 -1
    outer loop
      vertex 21.7931 -5.59552 -16.5
      vertex 2.6636 -0.683897 -16.5
      vertex 2.72832 -0.344666 -16.5
    endloop
  endfacet
  facet normal 0 0 -1
    outer loop
      vertex 20.92 -8.2828 -16.5
      vertex 2.55688 -1.01234 -16.5
      vertex 2.6636 -0.683897 -16.5
    endloop
  endfacet
  facet normal 0 0 -1
    outer loop
      vertex 19.7169 -10.8395 -16.5
      vertex 2.40984 -1.32482 -16.5
      vertex 2.55688 -1.01234 -16.5
    endloop
  endfacet
  facet normal 0 0 -1
    outer loop
      vertex 18.2029 -13.2252 -16.5
      vertex 2.2248 -1.61641 -16.5
      vertex 2.40984 -1.32482 -16.5
    endloop
  endfacet
  facet normal 0 0 -1
    outer loop
      vertex 16.4018 -15.4023 -16.5
      vertex 2.00466 -1.8825 -16.5
      vertex 2.2248 -1.61641 -16.5
    endloop
  endfacet
  facet normal 0 0 -1
    outer loop
      vertex 14.342 -17.3365 -16.5
      vertex 1.75292 -2.11891 -16.5
      vertex 2.00466 -1.8825 -16.5
    endloop
  endfacet
  facet normal 0 0 -1
    outer loop
      vertex 12.0561 -18.9974 -16.5
      vertex 1.47352 -2.3219 -16.5
      vertex 1.75292 -2.11891 -16.5
    endloop
  endfacet
  facet normal 0 0 -1
    outer loop
      vertex 0.515298 -2.70129 -16.5
      vertex 4.21608 -22.1015 -16.5
      vertex 1.41279 -22.4556 -16.5
    endloop
  endfacet
  facet normal 0 0 -1
    outer loop
      vertex 9.58003 -20.3586 -16.5
      vertex 1.17089 -2.48827 -16.5
      vertex 1.47352 -2.3219 -16.5
    endloop
  endfacet
  facet normal 0 0 -1
    outer loop
      vertex 6.95288 -21.3988 -16.5
      vertex 0.849796 -2.61541 -16.5
      vertex 1.17089 -2.48827 -16.5
    endloop
  endfacet
  facet normal 0 0 -1
    outer loop
      vertex 4.21608 -22.1015 -16.5
      vertex 0.515298 -2.70129 -16.5
      vertex 0.849796 -2.61541 -16.5
    endloop
  endfacet
  facet normal 0 0 -1
    outer loop
      vertex 1.41279 -22.4556 -16.5
      vertex 0.172673 -2.74457 -16.5
      vertex 0.515298 -2.70129 -16.5
    endloop
  endfacet
  facet normal 0 0 -1
    outer loop
      vertex 1.41279 -22.4556 -16.5
      vertex -0.172673 -2.74457 -16.5
      vertex 0.172673 -2.74457 -16.5
    endloop
  endfacet
  facet normal 0 0 -1
    outer loop
      vertex -1.41279 -22.4556 -16.5
      vertex -0.172673 -2.74457 -16.5
      vertex 1.41279 -22.4556 -16.5
    endloop
  endfacet
  facet normal -0 0 -1
    outer loop
      vertex -0.172673 -2.74457 -16.5
      vertex -1.41279 -22.4556 -16.5
      vertex -0.515298 -2.70129 -16.5
    endloop
  endfacet
  facet normal 0 0 -1
    outer loop
      vertex -4.21608 -22.1015 -16.5
      vertex -0.515298 -2.70129 -16.5
      vertex -1.41279 -22.4556 -16.5
    endloop
  endfacet
  facet normal -0 0 -1
    outer loop
      vertex -0.515298 -2.70129 -16.5
      vertex -4.21608 -22.1015 -16.5
      vertex -0.849796 -2.61541 -16.5
    endloop
  endfacet
  facet normal 0 0 -1
    outer loop
      vertex -6.95288 -21.3988 -16.5
      vertex -0.849796 -2.61541 -16.5
      vertex -4.21608 -22.1015 -16.5
    endloop
  endfacet
  facet normal -0 0 -1
    outer loop
      vertex -0.849796 -2.61541 -16.5
      vertex -6.95288 -21.3988 -16.5
      vertex -1.17089 -2.48827 -16.5
    endloop
  endfacet
  facet normal 0 0 -1
    outer loop
      vertex -9.58003 -20.3586 -16.5
      vertex -1.17089 -2.48827 -16.5
      vertex -6.95288 -21.3988 -16.5
    endloop
  endfacet
  facet normal -0 0 -1
    outer loop
      vertex -1.17089 -2.48827 -16.5
      vertex -9.58003 -20.3586 -16.5
      vertex -1.47352 -2.3219 -16.5
    endloop
  endfacet
  facet normal 0 0 -1
    outer loop
      vertex -12.0561 -18.9974 -16.5
      vertex -1.47352 -2.3219 -16.5
      vertex -9.58003 -20.3586 -16.5
    endloop
  endfacet
  facet normal -0 0 -1
    outer loop
      vertex -1.47352 -2.3219 -16.5
      vertex -12.0561 -18.9974 -16.5
      vertex -1.75292 -2.11891 -16.5
    endloop
  endfacet
  facet normal 0 0 -1
    outer loop
      vertex -14.342 -17.3365 -16.5
      vertex -1.75292 -2.11891 -16.5
      vertex -12.0561 -18.9974 -16.5
    endloop
  endfacet
  facet normal -0 0 -1
    outer loop
      vertex -1.75292 -2.11891 -16.5
      vertex -14.342 -17.3365 -16.5
      vertex -2.00466 -1.8825 -16.5
    endloop
  endfacet
  facet normal 0 0 -1
    outer loop
      vertex -16.4018 -15.4023 -16.5
      vertex -2.00466 -1.8825 -16.5
      vertex -14.342 -17.3365 -16.5
    endloop
  endfacet
  facet normal -0 0 -1
    outer loop
      vertex -2.00466 -1.8825 -16.5
      vertex -16.4018 -15.4023 -16.5
      vertex -2.2248 -1.61641 -16.5
    endloop
  endfacet
  facet normal 0 0 -1
    outer loop
      vertex 2.00466 1.8825 -16.5
      vertex 16.4018 15.4023 -16.5
      vertex 2.2248 1.61641 -16.5
    endloop
  endfacet
  facet normal -0 0 -1
    outer loop
      vertex 16.4018 15.4023 -16.5
      vertex 2.00466 1.8825 -16.5
      vertex 14.342 17.3365 -16.5
    endloop
  endfacet
  facet normal 0 0 -1
    outer loop
      vertex 1.75292 2.11891 -16.5
      vertex 14.342 17.3365 -16.5
      vertex 2.00466 1.8825 -16.5
    endloop
  endfacet
  facet normal -0 0 -1
    outer loop
      vertex 14.342 17.3365 -16.5
      vertex 1.75292 2.11891 -16.5
      vertex 12.0561 18.9974 -16.5
    endloop
  endfacet
  facet normal 0 0 -1
    outer loop
      vertex 1.47352 2.3219 -16.5
      vertex 12.0561 18.9974 -16.5
      vertex 1.75292 2.11891 -16.5
    endloop
  endfacet
  facet normal -0 0 -1
    outer loop
      vertex 12.0561 18.9974 -16.5
      vertex 1.47352 2.3219 -16.5
      vertex 9.58003 20.3586 -16.5
    endloop
  endfacet
  facet normal 0 0 -1
    outer loop
      vertex 1.17089 2.48827 -16.5
      vertex 9.58003 20.3586 -16.5
      vertex 1.47352 2.3219 -16.5
    endloop
  endfacet
  facet normal -0 0 -1
    outer loop
      vertex 9.58003 20.3586 -16.5
      vertex 1.17089 2.48827 -16.5
      vertex 6.95288 21.3988 -16.5
    endloop
  endfacet
  facet normal 0 0 -1
    outer loop
      vertex 0.849796 2.61541 -16.5
      vertex 6.95288 21.3988 -16.5
      vertex 1.17089 2.48827 -16.5
    endloop
  endfacet
  facet normal -0 0 -1
    outer loop
      vertex 6.95288 21.3988 -16.5
      vertex 0.849796 2.61541 -16.5
      vertex 4.21608 22.1015 -16.5
    endloop
  endfacet
  facet normal 0 0 -1
    outer loop
      vertex 0.515298 2.70129 -16.5
      vertex 4.21608 22.1015 -16.5
      vertex 0.849796 2.61541 -16.5
    endloop
  endfacet
  facet normal -0 0 -1
    outer loop
      vertex 4.21608 22.1015 -16.5
      vertex 0.515298 2.70129 -16.5
      vertex 1.41279 22.4556 -16.5
    endloop
  endfacet
  facet normal 0 0 -1
    outer loop
      vertex 0.172673 2.74457 -16.5
      vertex 1.41279 22.4556 -16.5
      vertex 0.515298 2.70129 -16.5
    endloop
  endfacet
  facet normal 0 0 -1
    outer loop
      vertex -0.172673 2.74457 -16.5
      vertex 1.41279 22.4556 -16.5
      vertex 0.172673 2.74457 -16.5
    endloop
  endfacet
  facet normal 0 0 -1
    outer loop
      vertex -1.41279 22.4556 -16.5
      vertex -0.172673 2.74457 -16.5
      vertex -0.515298 2.70129 -16.5
    endloop
  endfacet
  facet normal 0 0 -1
    outer loop
      vertex -4.21608 22.1015 -16.5
      vertex -0.515298 2.70129 -16.5
      vertex -0.849796 2.61541 -16.5
    endloop
  endfacet
  facet normal 0 0 -1
    outer loop
      vertex -6.95288 21.3988 -16.5
      vertex -0.849796 2.61541 -16.5
      vertex -1.17089 2.48827 -16.5
    endloop
  endfacet
  facet normal 0 0 -1
    outer loop
      vertex -0.172673 2.74457 -16.5
      vertex -1.41279 22.4556 -16.5
      vertex 1.41279 22.4556 -16.5
    endloop
  endfacet
  facet normal 0 0 -1
    outer loop
      vertex -9.58003 20.3586 -16.5
      vertex -1.17089 2.48827 -16.5
      vertex -1.47352 2.3219 -16.5
    endloop
  endfacet
  facet normal 0 0 -1
    outer loop
      vertex -12.0561 18.9974 -16.5
      vertex -1.47352 2.3219 -16.5
      vertex -1.75292 2.11891 -16.5
    endloop
  endfacet
  facet normal 0 0 -1
    outer loop
      vertex -14.342 17.3365 -16.5
      vertex -1.75292 2.11891 -16.5
      vertex -2.00466 1.8825 -16.5
    endloop
  endfacet
  facet normal 0 0 -1
    outer loop
      vertex -16.4018 15.4023 -16.5
      vertex -2.00466 1.8825 -16.5
      vertex -2.2248 1.61641 -16.5
    endloop
  endfacet
  facet normal 0 0 -1
    outer loop
      vertex -18.2029 13.2252 -16.5
      vertex -2.2248 1.61641 -16.5
      vertex -2.40984 1.32482 -16.5
    endloop
  endfacet
  facet normal 0 0 -1
    outer loop
      vertex -19.7169 10.8395 -16.5
      vertex -2.40984 1.32482 -16.5
      vertex -2.55688 1.01234 -16.5
    endloop
  endfacet
  facet normal 0 0 -1
    outer loop
      vertex -20.92 8.2828 -16.5
      vertex -2.55688 1.01234 -16.5
      vertex -2.6636 0.683897 -16.5
    endloop
  endfacet
  facet normal 0 0 -1
    outer loop
      vertex -21.7931 5.59552 -16.5
      vertex -2.6636 0.683897 -16.5
      vertex -2.72832 0.344666 -16.5
    endloop
  endfacet
  facet normal 0 0 -1
    outer loop
      vertex -22.3226 2.82 -16.5
      vertex -2.72832 0.344666 -16.5
      vertex -2.75 0 -16.5
    endloop
  endfacet
  facet normal 0 0 -1
    outer loop
      vertex -18.2029 -13.2252 -16.5
      vertex -2.2248 -1.61641 -16.5
      vertex -16.4018 -15.4023 -16.5
    endloop
  endfacet
  facet normal 0 0 -1
    outer loop
      vertex -0.515298 2.70129 -16.5
      vertex -4.21608 22.1015 -16.5
      vertex -1.41279 22.4556 -16.5
    endloop
  endfacet
  facet normal -0 0 -1
    outer loop
      vertex -2.2248 -1.61641 -16.5
      vertex -18.2029 -13.2252 -16.5
      vertex -2.40984 -1.32482 -16.5
    endloop
  endfacet
  facet normal 0 0 -1
    outer loop
      vertex -0.849796 2.61541 -16.5
      vertex -6.95288 21.3988 -16.5
      vertex -4.21608 22.1015 -16.5
    endloop
  endfacet
  facet normal 0 0 -1
    outer loop
      vertex -19.7169 -10.8395 -16.5
      vertex -2.40984 -1.32482 -16.5
      vertex -18.2029 -13.2252 -16.5
    endloop
  endfacet
  facet normal 0 0 -1
    outer loop
      vertex -1.17089 2.48827 -16.5
      vertex -9.58003 20.3586 -16.5
      vertex -6.95288 21.3988 -16.5
    endloop
  endfacet
  facet normal -0 0 -1
    outer loop
      vertex -2.40984 -1.32482 -16.5
      vertex -19.7169 -10.8395 -16.5
      vertex -2.55688 -1.01234 -16.5
    endloop
  endfacet
  facet normal 0 0 -1
    outer loop
      vertex -1.47352 2.3219 -16.5
      vertex -12.0561 18.9974 -16.5
      vertex -9.58003 20.3586 -16.5
    endloop
  endfacet
  facet normal 0 0 -1
    outer loop
      vertex -20.92 -8.2828 -16.5
      vertex -2.55688 -1.01234 -16.5
      vertex -19.7169 -10.8395 -16.5
    endloop
  endfacet
  facet normal 0 0 -1
    outer loop
      vertex -1.75292 2.11891 -16.5
      vertex -14.342 17.3365 -16.5
      vertex -12.0561 18.9974 -16.5
    endloop
  endfacet
  facet normal -0 0 -1
    outer loop
      vertex -2.55688 -1.01234 -16.5
      vertex -20.92 -8.2828 -16.5
      vertex -2.6636 -0.683897 -16.5
    endloop
  endfacet
  facet normal 0 0 -1
    outer loop
      vertex -2.00466 1.8825 -16.5
      vertex -16.4018 15.4023 -16.5
      vertex -14.342 17.3365 -16.5
    endloop
  endfacet
  facet normal 0 0 -1
    outer loop
      vertex -21.7931 -5.59552 -16.5
      vertex -2.6636 -0.683897 -16.5
      vertex -20.92 -8.2828 -16.5
    endloop
  endfacet
  facet normal 0 0 -1
    outer loop
      vertex -2.2248 1.61641 -16.5
      vertex -18.2029 13.2252 -16.5
      vertex -16.4018 15.4023 -16.5
    endloop
  endfacet
  facet normal -0 0 -1
    outer loop
      vertex -2.6636 -0.683897 -16.5
      vertex -21.7931 -5.59552 -16.5
      vertex -2.72832 -0.344666 -16.5
    endloop
  endfacet
  facet normal 0 0 -1
    outer loop
      vertex -2.40984 1.32482 -16.5
      vertex -19.7169 10.8395 -16.5
      vertex -18.2029 13.2252 -16.5
    endloop
  endfacet
  facet normal 0 0 -1
    outer loop
      vertex -22.3226 -2.82 -16.5
      vertex -2.72832 -0.344666 -16.5
      vertex -21.7931 -5.59552 -16.5
    endloop
  endfacet
  facet normal 0 0 -1
    outer loop
      vertex -2.55688 1.01234 -16.5
      vertex -20.92 8.2828 -16.5
      vertex -19.7169 10.8395 -16.5
    endloop
  endfacet
  facet normal -0 0 -1
    outer loop
      vertex -2.72832 -0.344666 -16.5
      vertex -22.3226 -2.82 -16.5
      vertex -2.75 0 -16.5
    endloop
  endfacet
  facet normal 0 0 -1
    outer loop
      vertex -2.6636 0.683897 -16.5
      vertex -21.7931 5.59552 -16.5
      vertex -20.92 8.2828 -16.5
    endloop
  endfacet
  facet normal 0 0 -1
    outer loop
      vertex -22.5 0 -16.5
      vertex -2.75 0 -16.5
      vertex -22.3226 -2.82 -16.5
    endloop
  endfacet
  facet normal 0 0 -1
    outer loop
      vertex -2.72832 0.344666 -16.5
      vertex -22.3226 2.82 -16.5
      vertex -21.7931 5.59552 -16.5
    endloop
  endfacet
  facet normal 0 0 -1
    outer loop
      vertex -2.75 0 -16.5
      vertex -22.5 0 -16.5
      vertex -22.3226 2.82 -16.5
    endloop
  endfacet
  facet normal 0.982285 0.187395 0
    outer loop
      vertex 22.3226 2.82 0
      vertex 21.7931 5.59552 -16.5
      vertex 21.7931 5.59552 0
    endloop
  endfacet
  facet normal 0.982285 0.187395 0
    outer loop
      vertex 21.7931 5.59552 -16.5
      vertex 22.3226 2.82 0
      vertex 22.3226 2.82 -16.5
    endloop
  endfacet
  facet normal 0.951062 0.309001 0
    outer loop
      vertex 21.7931 5.59552 0
      vertex 20.92 8.2828 -16.5
      vertex 20.92 8.2828 0
    endloop
  endfacet
  facet normal 0.951062 0.309001 0
    outer loop
      vertex 20.92 8.2828 -16.5
      vertex 21.7931 5.59552 0
      vertex 21.7931 5.59552 -16.5
    endloop
  endfacet
  facet normal 0.770505 0.637434 0
    outer loop
      vertex 18.2029 13.2252 0
      vertex 16.4018 15.4023 -16.5
      vertex 16.4018 15.4023 0
    endloop
  endfacet
  facet normal 0.770505 0.637434 0
    outer loop
      vertex 16.4018 15.4023 -16.5
      vertex 18.2029 13.2252 0
      vertex 18.2029 13.2252 -16.5
    endloop
  endfacet
  facet normal 0.248693 0.968582 -0
    outer loop
      vertex 6.95288 21.3988 -16.5
      vertex 4.21608 22.1015 0
      vertex 6.95288 21.3988 0
    endloop
  endfacet
  facet normal 0.248693 0.968582 0
    outer loop
      vertex 4.21608 22.1015 0
      vertex 6.95288 21.3988 -16.5
      vertex 4.21608 22.1015 -16.5
    endloop
  endfacet
  facet normal 0.12532 0.992116 -0
    outer loop
      vertex 4.21608 22.1015 -16.5
      vertex 1.41279 22.4556 0
      vertex 4.21608 22.1015 0
    endloop
  endfacet
  facet normal 0.12532 0.992116 0
    outer loop
      vertex 1.41279 22.4556 0
      vertex 4.21608 22.1015 -16.5
      vertex 1.41279 22.4556 -16.5
    endloop
  endfacet
  facet normal 0.587808 0.809001 -0
    outer loop
      vertex 14.342 17.3365 -16.5
      vertex 12.0561 18.9974 0
      vertex 14.342 17.3365 0
    endloop
  endfacet
  facet normal 0.587808 0.809001 0
    outer loop
      vertex 12.0561 18.9974 0
      vertex 14.342 17.3365 -16.5
      vertex 12.0561 18.9974 -16.5
    endloop
  endfacet
  facet normal -0.951062 0.309001 0
    outer loop
      vertex -21.7931 5.59552 -16.5
      vertex -20.92 8.2828 0
      vertex -20.92 8.2828 -16.5
    endloop
  endfacet
  facet normal -0.951062 0.309001 0
    outer loop
      vertex -20.92 8.2828 0
      vertex -21.7931 5.59552 -16.5
      vertex -21.7931 5.59552 0
    endloop
  endfacet
  facet normal -0.982285 0.187395 0
    outer loop
      vertex -22.3226 2.82 -16.5
      vertex -21.7931 5.59552 0
      vertex -21.7931 5.59552 -16.5
    endloop
  endfacet
  facet normal -0.982285 0.187395 0
    outer loop
      vertex -21.7931 5.59552 0
      vertex -22.3226 2.82 -16.5
      vertex -22.3226 2.82 0
    endloop
  endfacet
  facet normal -0.84433 0.535824 0
    outer loop
      vertex -19.7169 10.8395 -16.5
      vertex -18.2029 13.2252 0
      vertex -18.2029 13.2252 -16.5
    endloop
  endfacet
  facet normal -0.84433 0.535824 0
    outer loop
      vertex -18.2029 13.2252 0
      vertex -19.7169 10.8395 -16.5
      vertex -19.7169 10.8395 0
    endloop
  endfacet
  facet normal -0.12532 0.992116 0
    outer loop
      vertex -1.41279 22.4556 -16.5
      vertex -4.21608 22.1015 0
      vertex -1.41279 22.4556 0
    endloop
  endfacet
  facet normal -0.12532 0.992116 0
    outer loop
      vertex -4.21608 22.1015 0
      vertex -1.41279 22.4556 -16.5
      vertex -4.21608 22.1015 -16.5
    endloop
  endfacet
  facet normal -0.587808 0.809001 0
    outer loop
      vertex -12.0561 18.9974 -16.5
      vertex -14.342 17.3365 0
      vertex -12.0561 18.9974 0
    endloop
  endfacet
  facet normal -0.587808 0.809001 0
    outer loop
      vertex -14.342 17.3365 0
      vertex -12.0561 18.9974 -16.5
      vertex -14.342 17.3365 -16.5
    endloop
  endfacet
  facet normal -0.481745 0.876311 0
    outer loop
      vertex -9.58003 20.3586 -16.5
      vertex -12.0561 18.9974 0
      vertex -9.58003 20.3586 0
    endloop
  endfacet
  facet normal -0.481745 0.876311 0
    outer loop
      vertex -12.0561 18.9974 0
      vertex -9.58003 20.3586 -16.5
      vertex -12.0561 18.9974 -16.5
    endloop
  endfacet
  facet normal 0.998027 0.0627837 0
    outer loop
      vertex 22.5 0 0
      vertex 22.3226 2.82 -16.5
      vertex 22.3226 2.82 0
    endloop
  endfacet
  facet normal 0.998027 0.0627837 0
    outer loop
      vertex 22.3226 2.82 -16.5
      vertex 22.5 0 0
      vertex 22.5 0 -16.5
    endloop
  endfacet
  facet normal 0.951062 -0.309001 0
    outer loop
      vertex 20.92 -8.2828 0
      vertex 21.7931 -5.59552 -16.5
      vertex 21.7931 -5.59552 0
    endloop
  endfacet
  facet normal 0.951062 -0.309001 0
    outer loop
      vertex 21.7931 -5.59552 -16.5
      vertex 20.92 -8.2828 0
      vertex 20.92 -8.2828 -16.5
    endloop
  endfacet
  facet normal 0 -1 0
    outer loop
      vertex -1.41279 -22.4556 -16.5
      vertex 1.41279 -22.4556 0
      vertex -1.41279 -22.4556 0
    endloop
  endfacet
  facet normal 0 -1 -0
    outer loop
      vertex 1.41279 -22.4556 0
      vertex -1.41279 -22.4556 -16.5
      vertex 1.41279 -22.4556 -16.5
    endloop
  endfacet
  facet normal -0.84433 -0.535824 0
    outer loop
      vertex -18.2029 -13.2252 -16.5
      vertex -19.7169 -10.8395 0
      vertex -19.7169 -10.8395 -16.5
    endloop
  endfacet
  facet normal -0.84433 -0.535824 0
    outer loop
      vertex -19.7169 -10.8395 0
      vertex -18.2029 -13.2252 -16.5
      vertex -18.2029 -13.2252 0
    endloop
  endfacet
  facet normal 0.12532 -0.992116 0
    outer loop
      vertex 1.41279 -22.4556 -16.5
      vertex 4.21608 -22.1015 0
      vertex 1.41279 -22.4556 0
    endloop
  endfacet
  facet normal 0.12532 -0.992116 0
    outer loop
      vertex 4.21608 -22.1015 0
      vertex 1.41279 -22.4556 -16.5
      vertex 4.21608 -22.1015 -16.5
    endloop
  endfacet
  facet normal 0.368136 -0.929772 0
    outer loop
      vertex 6.95288 -21.3988 -16.5
      vertex 9.58003 -20.3586 0
      vertex 6.95288 -21.3988 0
    endloop
  endfacet
  facet normal 0.368136 -0.929772 0
    outer loop
      vertex 9.58003 -20.3586 0
      vertex 6.95288 -21.3988 -16.5
      vertex 9.58003 -20.3586 -16.5
    endloop
  endfacet
  facet normal 0.982285 -0.187395 0
    outer loop
      vertex 21.7931 -5.59552 0
      vertex 22.3226 -2.82 -16.5
      vertex 22.3226 -2.82 0
    endloop
  endfacet
  facet normal 0.982285 -0.187395 0
    outer loop
      vertex 22.3226 -2.82 -16.5
      vertex 21.7931 -5.59552 0
      vertex 21.7931 -5.59552 -16.5
    endloop
  endfacet
  facet normal 0.684532 -0.728983 0
    outer loop
      vertex 14.342 -17.3365 -16.5
      vertex 16.4018 -15.4023 0
      vertex 14.342 -17.3365 0
    endloop
  endfacet
  facet normal 0.684532 -0.728983 0
    outer loop
      vertex 16.4018 -15.4023 0
      vertex 14.342 -17.3365 -16.5
      vertex 16.4018 -15.4023 -16.5
    endloop
  endfacet
  facet normal 0.770505 -0.637434 0
    outer loop
      vertex 16.4018 -15.4023 0
      vertex 18.2029 -13.2252 -16.5
      vertex 18.2029 -13.2252 0
    endloop
  endfacet
  facet normal 0.770505 -0.637434 0
    outer loop
      vertex 18.2029 -13.2252 -16.5
      vertex 16.4018 -15.4023 0
      vertex 16.4018 -15.4023 -16.5
    endloop
  endfacet
  facet normal 0.84433 -0.535824 0
    outer loop
      vertex 18.2029 -13.2252 0
      vertex 19.7169 -10.8395 -16.5
      vertex 19.7169 -10.8395 0
    endloop
  endfacet
  facet normal 0.84433 -0.535824 0
    outer loop
      vertex 19.7169 -10.8395 -16.5
      vertex 18.2029 -13.2252 0
      vertex 18.2029 -13.2252 -16.5
    endloop
  endfacet
  facet normal -0.684532 -0.728983 0
    outer loop
      vertex -16.4018 -15.4023 -16.5
      vertex -14.342 -17.3365 0
      vertex -16.4018 -15.4023 0
    endloop
  endfacet
  facet normal -0.684532 -0.728983 -0
    outer loop
      vertex -14.342 -17.3365 0
      vertex -16.4018 -15.4023 -16.5
      vertex -14.342 -17.3365 -16.5
    endloop
  endfacet
  facet normal 0.248693 -0.968582 0
    outer loop
      vertex 4.21608 -22.1015 -16.5
      vertex 6.95288 -21.3988 0
      vertex 4.21608 -22.1015 0
    endloop
  endfacet
  facet normal 0.248693 -0.968582 0
    outer loop
      vertex 6.95288 -21.3988 0
      vertex 4.21608 -22.1015 -16.5
      vertex 6.95288 -21.3988 -16.5
    endloop
  endfacet
  facet normal 0.587808 -0.809001 0
    outer loop
      vertex 12.0561 -18.9974 -16.5
      vertex 14.342 -17.3365 0
      vertex 12.0561 -18.9974 0
    endloop
  endfacet
  facet normal 0.587808 -0.809001 0
    outer loop
      vertex 14.342 -17.3365 0
      vertex 12.0561 -18.9974 -16.5
      vertex 14.342 -17.3365 -16.5
    endloop
  endfacet
  facet normal 0.481745 -0.876311 0
    outer loop
      vertex 9.58003 -20.3586 -16.5
      vertex 12.0561 -18.9974 0
      vertex 9.58003 -20.3586 0
    endloop
  endfacet
  facet normal 0.481745 -0.876311 0
    outer loop
      vertex 12.0561 -18.9974 0
      vertex 9.58003 -20.3586 -16.5
      vertex 12.0561 -18.9974 -16.5
    endloop
  endfacet
  facet normal -0.368136 -0.929772 0
    outer loop
      vertex -9.58003 -20.3586 -16.5
      vertex -6.95288 -21.3988 0
      vertex -9.58003 -20.3586 0
    endloop
  endfacet
  facet normal -0.368136 -0.929772 -0
    outer loop
      vertex -6.95288 -21.3988 0
      vertex -9.58003 -20.3586 -16.5
      vertex -6.95288 -21.3988 -16.5
    endloop
  endfacet
  facet normal -0.248693 -0.968582 0
    outer loop
      vertex -6.95288 -21.3988 -16.5
      vertex -4.21608 -22.1015 0
      vertex -6.95288 -21.3988 0
    endloop
  endfacet
  facet normal -0.248693 -0.968582 -0
    outer loop
      vertex -4.21608 -22.1015 0
      vertex -6.95288 -21.3988 -16.5
      vertex -4.21608 -22.1015 -16.5
    endloop
  endfacet
  facet normal -0.951062 -0.309001 0
    outer loop
      vertex -20.92 -8.2828 -16.5
      vertex -21.7931 -5.59552 0
      vertex -21.7931 -5.59552 -16.5
    endloop
  endfacet
  facet normal -0.951062 -0.309001 0
    outer loop
      vertex -21.7931 -5.59552 0
      vertex -20.92 -8.2828 -16.5
      vertex -20.92 -8.2828 0
    endloop
  endfacet
  facet normal -0.982285 -0.187395 0
    outer loop
      vertex -21.7931 -5.59552 -16.5
      vertex -22.3226 -2.82 0
      vertex -22.3226 -2.82 -16.5
    endloop
  endfacet
  facet normal -0.982285 -0.187395 0
    outer loop
      vertex -22.3226 -2.82 0
      vertex -21.7931 -5.59552 -16.5
      vertex -21.7931 -5.59552 0
    endloop
  endfacet
  facet normal -0.998027 -0.0627837 0
    outer loop
      vertex -22.3226 -2.82 -16.5
      vertex -22.5 0 0
      vertex -22.5 0 -16.5
    endloop
  endfacet
  facet normal -0.998027 -0.0627837 0
    outer loop
      vertex -22.5 0 0
      vertex -22.3226 -2.82 -16.5
      vertex -22.3226 -2.82 0
    endloop
  endfacet
  facet normal -0.904826 -0.425782 0
    outer loop
      vertex -19.7169 -10.8395 -16.5
      vertex -20.92 -8.2828 0
      vertex -20.92 -8.2828 -16.5
    endloop
  endfacet
  facet normal -0.904826 -0.425782 0
    outer loop
      vertex -20.92 -8.2828 0
      vertex -19.7169 -10.8395 -16.5
      vertex -19.7169 -10.8395 0
    endloop
  endfacet
  facet normal -0.587808 -0.809001 0
    outer loop
      vertex -14.342 -17.3365 -16.5
      vertex -12.0561 -18.9974 0
      vertex -14.342 -17.3365 0
    endloop
  endfacet
  facet normal -0.587808 -0.809001 -0
    outer loop
      vertex -12.0561 -18.9974 0
      vertex -14.342 -17.3365 -16.5
      vertex -12.0561 -18.9974 -16.5
    endloop
  endfacet
  facet normal -0.12532 -0.992116 0
    outer loop
      vertex -4.21608 -22.1015 -16.5
      vertex -1.41279 -22.4556 0
      vertex -4.21608 -22.1015 0
    endloop
  endfacet
  facet normal -0.12532 -0.992116 -0
    outer loop
      vertex -1.41279 -22.4556 0
      vertex -4.21608 -22.1015 -16.5
      vertex -1.41279 -22.4556 -16.5
    endloop
  endfacet
  facet normal -0.770505 -0.637434 0
    outer loop
      vertex -16.4018 -15.4023 -16.5
      vertex -18.2029 -13.2252 0
      vertex -18.2029 -13.2252 -16.5
    endloop
  endfacet
  facet normal -0.770505 -0.637434 0
    outer loop
      vertex -18.2029 -13.2252 0
      vertex -16.4018 -15.4023 -16.5
      vertex -16.4018 -15.4023 0
    endloop
  endfacet
  facet normal -0.481745 -0.876311 0
    outer loop
      vertex -12.0561 -18.9974 -16.5
      vertex -9.58003 -20.3586 0
      vertex -12.0561 -18.9974 0
    endloop
  endfacet
  facet normal -0.481745 -0.876311 -0
    outer loop
      vertex -9.58003 -20.3586 0
      vertex -12.0561 -18.9974 -16.5
      vertex -9.58003 -20.3586 -16.5
    endloop
  endfacet
endsolid OpenSCAD_Model
