solid OpenSCAD_Model
  facet normal 0.7574432635548358 0.356425744873744 0.5470286929280734
    outer loop
      vertex -3.0983700472979456 -1.7033433477167794 -3
      vertex -3.2874240036763176 -1.3015832398493967 -3
      vertex -5.113770672385383 -2.0246850397657283 0
    endloop
  endfacet
  facet normal 0.7961425883149613 0.2586824079533775 0.5470286929280733
    outer loop
      vertex -3.2874240036763176 -1.3015832398493967 -3
      vertex -3.424633319704803 -0.8792963867614509 -3
      vertex -5.327207386207471 -1.3677943794067016 0
    endloop
  endfacet
  facet normal 0.8222862688648305 0.15685949493020596 0.5470286929280733
    outer loop
      vertex -3.424633319704803 -0.8792963867614509 -3
      vertex -3.5078341225047613 -0.4431425043880751 -3
      vertex -5.456630857229628 -0.6893327846036723 0
    endloop
  endfacet
  facet normal 0.835462003744694 0.05256281396866392 0.5470286929280735
    outer loop
      vertex -3.5078341225047613 -0.4431425043880751 -3
      vertex -3.5357142857142856 0 -3
      vertex -5.5 0 0
    endloop
  endfacet
  facet normal 0.3081621640513648 0.778328779989911 0.5470286929280734
    outer loop
      vertex -1.5054339237479346 -3.1992099355048547 -3
      vertex -2.341786103607898 -4.9765487885631075 0
      vertex -1.0925958015399926 -3.3626641111864353 -3
    endloop
  endfacet
  facet normal 0.20818175057194901 0.8108143855668832 0.5470286929280734
    outer loop
      vertex -0.6625267908566699 -3.473087065076435 -3
      vertex -1.0925958015399926 -3.3626641111864353 -3
      vertex -1.0305972302214865 -5.402579879007788 0
    endloop
  endfacet
  facet normal 0.10491818652426196 0.8305129639264301 0.5470286929280734
    outer loop
      vertex -0.6625267908566699 -3.473087065076435 -3
      vertex -0.3453478574112257 -5.489147006355494 0
      vertex -0.22200933690721653 -3.528737361228532 -3
    endloop
  endfacet
  facet normal 0 0.8371138567204605 0.5470286929280734
    outer loop
      vertex -0.3453478574112257 -5.489147006355494 0
      vertex 0.22200933690721653 -3.528737361228532 -3
      vertex -0.22200933690721653 -3.528737361228532 -3
    endloop
  endfacet
  facet normal 0.5730438679507948 0.6102297391289574 0.5470286929280735
    outer loop
      vertex -4.009327450817764 -3.765009082607787 0
      vertex -2.2537491066114383 -2.7243146798143987 -3
      vertex -2.57742478981142 -2.4203629816764343 -3
    endloop
  endfacet
  facet normal 0.6450073123142288 0.5335964544246695 0.5470286929280733
    outer loop
      vertex -2.57742478981142 -2.4203629816764343 -3
      vertex -2.860452944397136 -2.078240713462673 -3
      vertex -4.449593469062211 -3.232818887608602 0
    endloop
  endfacet
  facet normal 0.7067986060537782 0.44854803487902994 0.5470286929280733
    outer loop
      vertex -2.860452944397136 -2.078240713462673 -3
      vertex -3.0983700472979456 -1.7033433477167794 -3
      vertex -4.819686740241249 -2.6496452075594346 0
    endloop
  endfacet
  facet normal 0.49204317946995985 0.677239336313608 0.5470286929280734
    outer loop
      vertex -2.2537491066114383 -2.7243146798143987 -3
      vertex -2.9470473723844823 -4.643803590261082 0
      vertex -1.8945304536757386 -2.9853023080249814 -3
    endloop
  endfacet
  facet normal 0.40328267611653806 0.7335684646014214 0.5470286929280734
    outer loop
      vertex -1.8945304536757386 -2.9853023080249814 -3
      vertex -2.341786103607898 -4.9765487885631075 0
      vertex -1.5054339237479346 -3.1992099355048547 -3
    endloop
  endfacet
  facet normal 0.7574432635548359 0.35642574487374357 0.5470286929280734
    outer loop
      vertex -3.0983700472979456 -1.7033433477167794 -3
      vertex -5.113770672385383 -2.0246850397657283 0
      vertex -4.819686740241249 -2.6496452075594346 0
    endloop
  endfacet
  facet normal 0.7067986060537781 0.44854803487903017 0.5470286929280733
    outer loop
      vertex -4.819686740241249 -2.6496452075594346 0
      vertex -4.449593469062211 -3.232818887608602 0
      vertex -2.860452944397136 -2.078240713462673 -3
    endloop
  endfacet
  facet normal 0.8222862688648306 0.15685949493020607 0.5470286929280734
    outer loop
      vertex -3.424633319704803 -0.8792963867614509 -3
      vertex -5.456630857229628 -0.6893327846036723 0
      vertex -5.327207386207471 -1.3677943794067016 0
    endloop
  endfacet
  facet normal 0.8354620037446939 0.05256281396866476 0.5470286929280734
    outer loop
      vertex -3.5078341225047613 -0.4431425043880751 -3
      vertex -5.5 0 0
      vertex -5.456630857229628 -0.6893327846036723 0
    endloop
  endfacet
  facet normal 0.7961425883149614 0.25868240795337716 0.5470286929280733
    outer loop
      vertex -3.2874240036763176 -1.3015832398493967 -3
      vertex -5.327207386207471 -1.3677943794067016 0
      vertex -5.113770672385383 -2.0246850397657283 0
    endloop
  endfacet
  facet normal 0.4920431794699602 0.677239336313608 0.5470286929280735
    outer loop
      vertex -3.505831943617793 -4.237822835266842 0
      vertex -2.9470473723844823 -4.643803590261082 0
      vertex -2.2537491066114383 -2.7243146798143987 -3
    endloop
  endfacet
  facet normal 0.4032826761165385 0.7335684646014213 0.5470286929280734
    outer loop
      vertex -2.9470473723844823 -4.643803590261082 0
      vertex -2.341786103607898 -4.9765487885631075 0
      vertex -1.8945304536757386 -2.9853023080249814 -3
    endloop
  endfacet
  facet normal 0.30816216405136504 0.7783287799899108 0.5470286929280733
    outer loop
      vertex -2.341786103607898 -4.9765487885631075 0
      vertex -1.6995934690622108 -5.230810839623344 0
      vertex -1.0925958015399926 -3.3626641111864353 -3
    endloop
  endfacet
  facet normal 0.20818175057194854 0.8108143855668833 0.5470286929280734
    outer loop
      vertex -1.6995934690622108 -5.230810839623344 0
      vertex -1.0305972302214865 -5.402579879007788 0
      vertex -1.0925958015399926 -3.3626641111864353 -3
    endloop
  endfacet
  facet normal 0.10491818652426159 0.8305129639264301 0.5470286929280734
    outer loop
      vertex -1.0305972302214865 -5.402579879007788 0
      vertex -0.3453478574112257 -5.489147006355494 0
      vertex -0.6625267908566699 -3.473087065076435 -3
    endloop
  endfacet
  facet normal 0.6450073123142293 0.5335964544246691 0.5470286929280734
    outer loop
      vertex -4.009327450817764 -3.765009082607787 0
      vertex -2.57742478981142 -2.4203629816764343 -3
      vertex -4.449593469062211 -3.232818887608602 0
    endloop
  endfacet
  facet normal 0.5730438679507946 0.6102297391289578 0.5470286929280734
    outer loop
      vertex -4.009327450817764 -3.765009082607787 0
      vertex -3.505831943617793 -4.237822835266842 0
      vertex -2.2537491066114383 -2.7243146798143987 -3
    endloop
  endfacet
  facet normal 0.8354620037446941 -0.05256281396866393 0.5470286929280733
    outer loop
      vertex -3.5078341225047613 0.4431425043880751 -3
      vertex -5.456630857229628 0.6893327846036723 0
      vertex -3.5357142857142856 0 -3
    endloop
  endfacet
  facet normal 0.8222862688648302 -0.15685949493020676 0.5470286929280734
    outer loop
      vertex -3.4246333197048027 0.8792963867614509 -3
      vertex -5.327207386207471 1.3677943794067016 0
      vertex -3.5078341225047613 0.4431425043880751 -3
    endloop
  endfacet
  facet normal 0.7961425883149615 -0.2586824079533767 0.5470286929280734
    outer loop
      vertex -3.2874240036763176 1.3015832398493967 -3
      vertex -5.113770672385383 2.0246850397657283 0
      vertex -3.4246333197048027 0.8792963867614509 -3
    endloop
  endfacet
  facet normal 0.7574432635548358 -0.356425744873744 0.5470286929280734
    outer loop
      vertex -3.0983700472979456 1.7033433477167794 -3
      vertex -4.819686740241249 2.6496452075594346 0
      vertex -3.2874240036763176 1.3015832398493967 -3
    endloop
  endfacet
  facet normal 0.7067986060537776 -0.44854803487903094 0.5470286929280734
    outer loop
      vertex -2.8604529443971356 2.0782407134626726 -3
      vertex -4.819686740241249 2.6496452075594346 0
      vertex -3.0983700472979456 1.7033433477167794 -3
    endloop
  endfacet
  facet normal 0.6450073123142296 -0.5335964544246686 0.5470286929280735
    outer loop
      vertex -2.8604529443971356 2.0782407134626726 -3
      vertex -2.57742478981142 2.4203629816764343 -3
      vertex -4.009327450817764 3.765009082607787 0
    endloop
  endfacet
  facet normal 0.5730438679507945 -0.6102297391289577 0.5470286929280734
    outer loop
      vertex -2.57742478981142 2.4203629816764343 -3
      vertex -2.2537491066114383 2.7243146798143982 -3
      vertex -3.505831943617793 4.237822835266842 0
    endloop
  endfacet
  facet normal 0.49204317946996007 -0.6772393363136079 0.5470286929280734
    outer loop
      vertex -2.2537491066114383 2.7243146798143982 -3
      vertex -1.8945304536757388 2.985302308024981 -3
      vertex -2.9470473723844823 4.643803590261082 0
    endloop
  endfacet
  facet normal 0.4032826761165402 -0.7335684646014204 0.5470286929280734
    outer loop
      vertex -1.8945304536757388 2.985302308024981 -3
      vertex -1.5054339237479357 3.199209935504855 -3
      vertex -2.3417861036079 4.9765487885631075 0
    endloop
  endfacet
  facet normal 0.3081621640513641 -0.7783287799899113 0.5470286929280734
    outer loop
      vertex -1.5054339237479357 3.199209935504855 -3
      vertex -1.0925958015399926 3.3626641111864357 -3
      vertex -1.6995934690622108 5.230810839623344 0
    endloop
  endfacet
  facet normal 0.20818175057194782 -0.8108143855668836 0.5470286929280734
    outer loop
      vertex -1.0925958015399926 3.3626641111864357 -3
      vertex -0.662526790856669 3.473087065076435 -3
      vertex -1.0305972302214852 5.402579879007788 0
    endloop
  endfacet
  facet normal 0.10491818652426205 -0.8305129639264301 0.5470286929280733
    outer loop
      vertex -0.34534785741122087 5.489147006355494 0
      vertex -0.662526790856669 3.473087065076435 -3
      vertex -0.2220093369072148 3.528737361228532 -3
    endloop
  endfacet
  facet normal 0.8354620037446939 -0.05256281396866475 0.5470286929280734
    outer loop
      vertex -5.456630857229628 0.6893327846036723 0
      vertex -5.5 0 0
      vertex -3.5357142857142856 0 -3
    endloop
  endfacet
  facet normal 0.8222862688648304 -0.15685949493020604 0.5470286929280734
    outer loop
      vertex -5.327207386207471 1.3677943794067016 0
      vertex -5.456630857229628 0.6893327846036723 0
      vertex -3.5078341225047613 0.4431425043880751 -3
    endloop
  endfacet
  facet normal 0.7961425883149614 -0.25868240795337716 0.5470286929280734
    outer loop
      vertex -5.113770672385383 2.0246850397657283 0
      vertex -5.327207386207471 1.3677943794067016 0
      vertex -3.4246333197048027 0.8792963867614509 -3
    endloop
  endfacet
  facet normal 0.7574432635548358 -0.3564257448737439 0.5470286929280734
    outer loop
      vertex -4.819686740241249 2.6496452075594346 0
      vertex -5.113770672385383 2.0246850397657283 0
      vertex -3.2874240036763176 1.3015832398493967 -3
    endloop
  endfacet
  facet normal 0.7067986060537781 -0.44854803487903017 0.5470286929280735
    outer loop
      vertex -4.449593469062211 3.232818887608602 0
      vertex -4.819686740241249 2.6496452075594346 0
      vertex -2.8604529443971356 2.0782407134626726 -3
    endloop
  endfacet
  facet normal 0.6450073123142291 -0.533596454424669 0.5470286929280735
    outer loop
      vertex -4.449593469062211 3.232818887608602 0
      vertex -2.8604529443971356 2.0782407134626726 -3
      vertex -4.009327450817764 3.765009082607787 0
    endloop
  endfacet
  facet normal 0.5730438679507945 -0.6102297391289577 0.5470286929280734
    outer loop
      vertex -3.505831943617793 4.237822835266842 0
      vertex -4.009327450817764 3.765009082607787 0
      vertex -2.57742478981142 2.4203629816764343 -3
    endloop
  endfacet
  facet normal 0.49204317946996007 -0.6772393363136079 0.5470286929280734
    outer loop
      vertex -2.2537491066114383 2.7243146798143982 -3
      vertex -2.9470473723844823 4.643803590261082 0
      vertex -3.505831943617793 4.237822835266842 0
    endloop
  endfacet
  facet normal 0.40328267611653934 -0.7335684646014208 0.5470286929280734
    outer loop
      vertex -2.3417861036079 4.9765487885631075 0
      vertex -2.9470473723844823 4.643803590261082 0
      vertex -1.8945304536757388 2.985302308024981 -3
    endloop
  endfacet
  facet normal 0.3081621640513644 -0.7783287799899112 0.5470286929280734
    outer loop
      vertex -1.6995934690622108 5.230810839623344 0
      vertex -2.3417861036079 4.9765487885631075 0
      vertex -1.5054339237479357 3.199209935504855 -3
    endloop
  endfacet
  facet normal 0.20818175057194818 -0.8108143855668833 0.5470286929280734
    outer loop
      vertex -1.0305972302214852 5.402579879007788 0
      vertex -1.6995934690622108 5.230810839623344 0
      vertex -1.0925958015399926 3.3626641111864357 -3
    endloop
  endfacet
  facet normal 0.10491818652426106 -0.8305129639264301 0.5470286929280734
    outer loop
      vertex -0.34534785741122087 5.489147006355494 0
      vertex -1.0305972302214852 5.402579879007788 0
      vertex -0.662526790856669 3.473087065076435 -3
    endloop
  endfacet
  facet normal 0 -0.8371138567204603 0.5470286929280733
    outer loop
      vertex -0.34534785741122087 5.489147006355494 0
      vertex -0.2220093369072148 3.528737361228532 -3
      vertex 0.34534785741122304 5.489147006355494 0
    endloop
  endfacet
  facet normal -0.10491818652426196 0.8305129639264301 0.5470286929280735
    outer loop
      vertex 0.22200933690721653 -3.528737361228532 -3
      vertex 0.3453478574112257 -5.489147006355494 0
      vertex 0.6625267908566699 -3.473087065076435 -3
    endloop
  endfacet
  facet normal -0.20818175057194901 0.8108143855668832 0.5470286929280734
    outer loop
      vertex 1.0925958015399926 -3.3626641111864353 -3
      vertex 0.6625267908566699 -3.473087065076435 -3
      vertex 1.0305972302214865 -5.402579879007788 0
    endloop
  endfacet
  facet normal -0.30816216405136354 0.7783287799899113 0.5470286929280737
    outer loop
      vertex 1.6995934690622108 -5.230810839623344 0
      vertex 1.5054339237479346 -3.199209935504855 -3
      vertex 1.0925958015399926 -3.3626641111864353 -3
    endloop
  endfacet
  facet normal -0.40328267611653845 0.7335684646014213 0.5470286929280733
    outer loop
      vertex 1.8945304536757366 -2.9853023080249828 -3
      vertex 1.5054339237479346 -3.199209935504855 -3
      vertex 2.341786103607898 -4.9765487885631075 0
    endloop
  endfacet
  facet normal -0.49204317946996023 0.6772393363136079 0.5470286929280735
    outer loop
      vertex 2.2537491066114397 -2.7243146798143973 -3
      vertex 1.8945304536757366 -2.9853023080249828 -3
      vertex 2.9470473723844792 -4.643803590261085 0
    endloop
  endfacet
  facet normal -0.5730438679507949 0.6102297391289575 0.5470286929280733
    outer loop
      vertex 2.57742478981142 -2.4203629816764343 -3
      vertex 2.2537491066114397 -2.7243146798143973 -3
      vertex 3.5058319436177947 -4.23782283526684 0
    endloop
  endfacet
  facet normal -0.6450073123142288 0.5335964544246695 0.5470286929280735
    outer loop
      vertex 2.57742478981142 -2.4203629816764343 -3
      vertex 4.009327450817764 -3.765009082607787 0
      vertex 2.860452944397136 -2.078240713462673 -3
    endloop
  endfacet
  facet normal -0.7067986060537782 0.44854803487902994 0.5470286929280733
    outer loop
      vertex 2.860452944397136 -2.078240713462673 -3
      vertex 4.819686740241249 -2.6496452075594346 0
      vertex 3.0983700472979456 -1.7033433477167794 -3
    endloop
  endfacet
  facet normal -0.7574432635548355 0.3564257448737447 0.5470286929280734
    outer loop
      vertex 4.819686740241249 -2.6496452075594346 0
      vertex 3.287424003676317 -1.3015832398493985 -3
      vertex 3.0983700472979456 -1.7033433477167794 -3
    endloop
  endfacet
  facet normal -0.7961425883149617 0.25868240795337677 0.5470286929280733
    outer loop
      vertex 5.113770672385382 -2.024685039765731 0
      vertex 3.424633319704803 -0.8792963867614496 -3
      vertex 3.287424003676317 -1.3015832398493985 -3
    endloop
  endfacet
  facet normal -0.8222862688648304 0.15685949493020615 0.5470286929280735
    outer loop
      vertex 5.327207386207472 -1.3677943794066993 0
      vertex 3.5078341225047613 -0.4431425043880751 -3
      vertex 3.424633319704803 -0.8792963867614496 -3
    endloop
  endfacet
  facet normal -0.8354620037446941 0.05256281396866363 0.5470286929280733
    outer loop
      vertex 5.456630857229628 -0.6893327846036723 0
      vertex 3.5357142857142856 0 -3
      vertex 3.5078341225047613 -0.4431425043880751 -3
    endloop
  endfacet
  facet normal 0 0.8371138567204603 0.5470286929280733
    outer loop
      vertex -0.3453478574112257 -5.489147006355494 0
      vertex 0.3453478574112257 -5.489147006355494 0
      vertex 0.22200933690721653 -3.528737361228532 -3
    endloop
  endfacet
  facet normal -0.10491818652426159 0.8305129639264301 0.5470286929280734
    outer loop
      vertex 0.3453478574112257 -5.489147006355494 0
      vertex 1.0305972302214865 -5.402579879007788 0
      vertex 0.6625267908566699 -3.473087065076435 -3
    endloop
  endfacet
  facet normal -0.20818175057194854 0.8108143855668833 0.5470286929280734
    outer loop
      vertex 1.0305972302214865 -5.402579879007788 0
      vertex 1.6995934690622108 -5.230810839623344 0
      vertex 1.0925958015399926 -3.3626641111864353 -3
    endloop
  endfacet
  facet normal -0.3081621640513651 0.7783287799899109 0.5470286929280733
    outer loop
      vertex 1.6995934690622108 -5.230810839623344 0
      vertex 2.341786103607898 -4.9765487885631075 0
      vertex 1.5054339237479346 -3.199209935504855 -3
    endloop
  endfacet
  facet normal -0.40328267611653756 0.7335684646014218 0.5470286929280734
    outer loop
      vertex 2.341786103607898 -4.9765487885631075 0
      vertex 2.9470473723844792 -4.643803590261085 0
      vertex 1.8945304536757366 -2.9853023080249828 -3
    endloop
  endfacet
  facet normal -0.4920431794699608 0.6772393363136073 0.5470286929280734
    outer loop
      vertex 2.2537491066114397 -2.7243146798143973 -3
      vertex 2.9470473723844792 -4.643803590261085 0
      vertex 3.5058319436177947 -4.23782283526684 0
    endloop
  endfacet
  facet normal -0.5730438679507944 0.6102297391289578 0.5470286929280734
    outer loop
      vertex 3.5058319436177947 -4.23782283526684 0
      vertex 4.009327450817764 -3.765009082607787 0
      vertex 2.57742478981142 -2.4203629816764343 -3
    endloop
  endfacet
  facet normal -0.6450073123142293 0.5335964544246691 0.5470286929280734
    outer loop
      vertex 4.009327450817764 -3.765009082607787 0
      vertex 4.449593469062211 -3.232818887608602 0
      vertex 2.860452944397136 -2.078240713462673 -3
    endloop
  endfacet
  facet normal -0.7067986060537781 0.44854803487903017 0.5470286929280733
    outer loop
      vertex 4.449593469062211 -3.232818887608602 0
      vertex 4.819686740241249 -2.6496452075594346 0
      vertex 2.860452944397136 -2.078240713462673 -3
    endloop
  endfacet
  facet normal -0.7574432635548357 0.3564257448737443 0.5470286929280733
    outer loop
      vertex 4.819686740241249 -2.6496452075594346 0
      vertex 5.113770672385382 -2.024685039765731 0
      vertex 3.287424003676317 -1.3015832398493985 -3
    endloop
  endfacet
  facet normal -0.7961425883149613 0.2586824079533773 0.5470286929280734
    outer loop
      vertex 5.113770672385382 -2.024685039765731 0
      vertex 5.327207386207472 -1.3677943794066993 0
      vertex 3.424633319704803 -0.8792963867614496 -3
    endloop
  endfacet
  facet normal -0.8222862688648306 0.15685949493020548 0.5470286929280733
    outer loop
      vertex 5.327207386207472 -1.3677943794066993 0
      vertex 5.456630857229628 -0.6893327846036723 0
      vertex 3.5078341225047613 -0.4431425043880751 -3
    endloop
  endfacet
  facet normal -0.8354620037446939 0.05256281396866475 0.5470286929280734
    outer loop
      vertex 5.456630857229628 -0.6893327846036723 0
      vertex 5.5 0 0
      vertex 3.5357142857142856 0 -3
    endloop
  endfacet
  facet normal -0.40328267611653856 -0.7335684646014212 0.5470286929280735
    outer loop
      vertex 1.8945304536757384 2.985302308024982 -3
      vertex 2.3417861036079 4.9765487885631075 0
      vertex 1.5054339237479357 3.1992099355048547 -3
    endloop
  endfacet
  facet normal -0.49204317946996207 -0.6772393363136066 0.5470286929280734
    outer loop
      vertex 2.253749106611439 2.724314679814397 -3
      vertex 2.9470473723844814 4.643803590261083 0
      vertex 1.8945304536757384 2.985302308024982 -3
    endloop
  endfacet
  facet normal -0.7067986060537771 -0.448548034879032 0.5470286929280734
    outer loop
      vertex 4.8196867402412495 2.649645207559434 0
      vertex 2.8604529443971356 2.0782407134626726 -3
      vertex 3.0983700472979465 1.7033433477167792 -3
    endloop
  endfacet
  facet normal -0.6450073123142298 -0.5335964544246682 0.5470286929280737
    outer loop
      vertex 2.5774247898114195 2.420362981676435 -3
      vertex 2.8604529443971356 2.0782407134626726 -3
      vertex 4.449593469062211 3.232818887608602 0
    endloop
  endfacet
  facet normal -0.5730438679507932 -0.6102297391289592 0.5470286929280734
    outer loop
      vertex 2.253749106611439 2.724314679814397 -3
      vertex 2.5774247898114195 2.420362981676435 -3
      vertex 4.009327450817763 3.765009082607788 0
    endloop
  endfacet
  facet normal 0 -0.8371138567204605 0.5470286929280734
    outer loop
      vertex -0.2220093369072148 3.528737361228532 -3
      vertex 0.2220093369072122 3.528737361228532 -3
      vertex 0.34534785741122304 5.489147006355494 0
    endloop
  endfacet
  facet normal -0.10491818652426114 -0.8305129639264301 0.5470286929280734
    outer loop
      vertex 0.662526790856669 3.473087065076435 -3
      vertex 0.34534785741122304 5.489147006355494 0
      vertex 0.2220093369072122 3.528737361228532 -3
    endloop
  endfacet
  facet normal -0.2081817505719486 -0.8108143855668833 0.5470286929280734
    outer loop
      vertex 0.662526790856669 3.473087065076435 -3
      vertex 1.0925958015399926 3.3626641111864353 -3
      vertex 1.0305972302214852 5.402579879007788 0
    endloop
  endfacet
  facet normal -0.30816216405136404 -0.7783287799899112 0.5470286929280734
    outer loop
      vertex 1.5054339237479357 3.1992099355048547 -3
      vertex 2.3417861036079 4.9765487885631075 0
      vertex 1.0925958015399926 3.3626641111864353 -3
    endloop
  endfacet
  facet normal -0.8354620037446941 -0.05256281396866384 0.5470286929280735
    outer loop
      vertex 3.5357142857142856 0 -3
      vertex 5.5 0 0
      vertex 3.5078341225047613 0.4431425043880758 -3
    endloop
  endfacet
  facet normal -0.8222862688648304 -0.15685949493020648 0.5470286929280733
    outer loop
      vertex 5.456630857229628 0.6893327846036734 0
      vertex 3.424633319704803 0.8792963867614509 -3
      vertex 3.5078341225047613 0.4431425043880758 -3
    endloop
  endfacet
  facet normal -0.7961425883149614 -0.25868240795337727 0.5470286929280733
    outer loop
      vertex 5.327207386207471 1.3677943794067013 0
      vertex 3.2874240036763176 1.3015832398493972 -3
      vertex 3.424633319704803 0.8792963867614509 -3
    endloop
  endfacet
  facet normal -0.7574432635548362 -0.3564257448737434 0.5470286929280733
    outer loop
      vertex 5.113770672385383 2.0246850397657288 0
      vertex 3.0983700472979465 1.7033433477167792 -3
      vertex 3.2874240036763176 1.3015832398493972 -3
    endloop
  endfacet
  facet normal -0.5730438679507932 -0.6102297391289591 0.5470286929280734
    outer loop
      vertex 2.253749106611439 2.724314679814397 -3
      vertex 4.009327450817763 3.765009082607788 0
      vertex 3.5058319436177934 4.23782283526684 0
    endloop
  endfacet
  facet normal -0.6450073123142294 -0.533596454424669 0.5470286929280734
    outer loop
      vertex 2.5774247898114195 2.420362981676435 -3
      vertex 4.449593469062211 3.232818887608602 0
      vertex 4.009327450817763 3.765009082607788 0
    endloop
  endfacet
  facet normal -0.1049181865242614 -0.8305129639264301 0.5470286929280734
    outer loop
      vertex 1.0305972302214852 5.402579879007788 0
      vertex 0.34534785741122304 5.489147006355494 0
      vertex 0.662526790856669 3.473087065076435 -3
    endloop
  endfacet
  facet normal -0.20818175057194818 -0.8108143855668833 0.5470286929280734
    outer loop
      vertex 1.6995934690622108 5.230810839623344 0
      vertex 1.0305972302214852 5.402579879007788 0
      vertex 1.0925958015399926 3.3626641111864353 -3
    endloop
  endfacet
  facet normal -0.3081621640513643 -0.7783287799899111 0.5470286929280734
    outer loop
      vertex 2.3417861036079 4.9765487885631075 0
      vertex 1.6995934690622108 5.230810839623344 0
      vertex 1.0925958015399926 3.3626641111864353 -3
    endloop
  endfacet
  facet normal -0.40328267611653906 -0.7335684646014211 0.5470286929280734
    outer loop
      vertex 2.9470473723844814 4.643803590261083 0
      vertex 2.3417861036079 4.9765487885631075 0
      vertex 1.8945304536757384 2.985302308024982 -3
    endloop
  endfacet
  facet normal -0.49204317946996146 -0.6772393363136069 0.5470286929280734
    outer loop
      vertex 3.5058319436177934 4.23782283526684 0
      vertex 2.9470473723844814 4.643803590261083 0
      vertex 2.253749106611439 2.724314679814397 -3
    endloop
  endfacet
  facet normal -0.7961425883149615 -0.25868240795337694 0.5470286929280734
    outer loop
      vertex 5.327207386207471 1.3677943794067013 0
      vertex 5.113770672385383 2.0246850397657288 0
      vertex 3.2874240036763176 1.3015832398493972 -3
    endloop
  endfacet
  facet normal -0.835462003744694 -0.052562813968664676 0.5470286929280734
    outer loop
      vertex 5.5 0 0
      vertex 5.456630857229628 0.6893327846036734 0
      vertex 3.5078341225047613 0.4431425043880758 -3
    endloop
  endfacet
  facet normal -0.8222862688648305 -0.15685949493020632 0.5470286929280733
    outer loop
      vertex 5.456630857229628 0.6893327846036734 0
      vertex 5.327207386207471 1.3677943794067013 0
      vertex 3.424633319704803 0.8792963867614509 -3
    endloop
  endfacet
  facet normal -0.7067986060537778 -0.44854803487903067 0.5470286929280735
    outer loop
      vertex 4.8196867402412495 2.649645207559434 0
      vertex 4.449593469062211 3.232818887608602 0
      vertex 2.8604529443971356 2.0782407134626726 -3
    endloop
  endfacet
  facet normal -0.7574432635548359 -0.3564257448737434 0.5470286929280733
    outer loop
      vertex 5.113770672385383 2.0246850397657288 0
      vertex 4.8196867402412495 2.649645207559434 0
      vertex 3.0983700472979465 1.7033433477167792 -3
    endloop
  endfacet
  facet normal -0.8443279255020157 -0.5358267949789955 0
    outer loop
      vertex -12.135254915624213 -8.816778784387097 -3
      vertex -13.144600200657951 -7.226305111525731 0
      vertex -13.144600200657951 -7.226305111525731 -3
    endloop
  endfacet
  facet normal -0.7705132427757891 -0.6374239897486899 0
    outer loop
      vertex -12.135254915624213 -8.816778784387097 -3
      vertex -10.934529411321176 -10.268206588930328 -3
      vertex -12.135254915624213 -8.816778784387097 0
    endloop
  endfacet
  facet normal -0.5877852522924732 -0.8090169943749473 0
    outer loop
      vertex -9.561359846230344 -11.55769864163684 -3
      vertex -8.037401924684952 -12.664918882530225 -3
      vertex -8.037401924684952 -12.664918882530225 0
    endloop
  endfacet
  facet normal -0.6845471059286886 -0.7289686274214117 0
    outer loop
      vertex -9.561359846230344 -11.55769864163684 -3
      vertex -9.561359846230344 -11.55769864163684 0
      vertex -10.934529411321176 -10.268206588930328 -3
    endloop
  endfacet
  facet normal 0 0 -1
    outer loop
      vertex -13.946647288323772 -5.521868290270168 -3
      vertex -14.528747416929466 -3.7303483074728225 -3
      vertex -13.946647288323772 5.521868290270168 -3
    endloop
  endfacet
  facet normal 0 0 -1
    outer loop
      vertex -14.528747416929466 -3.7303483074728225 -3
      vertex -14.881720519717168 -1.879998503464561 -3
      vertex -14.528747416929466 3.7303483074728225 -3
    endloop
  endfacet
  facet normal 0 0 -1
    outer loop
      vertex -13.144600200657951 -7.226305111525731 -3
      vertex -13.946647288323772 -5.521868290270168 -3
      vertex -13.144600200657951 7.226305111525731 -3
    endloop
  endfacet
  facet normal 0 0 -1
    outer loop
      vertex -12.135254915624213 -8.816778784387097 -3
      vertex -13.144600200657951 -7.226305111525731 -3
      vertex -12.135254915624213 8.816778784387097 -3
    endloop
  endfacet
  facet normal 0 0 -1
    outer loop
      vertex -12.135254915624213 -8.816778784387097 -3
      vertex -10.934529411321176 10.268206588930328 -3
      vertex -10.934529411321176 -10.268206588930328 -3
    endloop
  endfacet
  facet normal 0 0 -1
    outer loop
      vertex -9.561359846230344 -11.55769864163684 -3
      vertex -8.037401924684952 12.664918882530225 -3
      vertex -8.037401924684952 -12.664918882530225 -3
    endloop
  endfacet
  facet normal 0 0 -1
    outer loop
      vertex -9.561359846230344 -11.55769864163684 -3
      vertex -10.934529411321176 -10.268206588930328 -3
      vertex -9.561359846230344 11.55769864163684 -3
    endloop
  endfacet
  facet normal -0.9048270524660189 -0.42577929156507377 0
    outer loop
      vertex -13.144600200657951 -7.226305111525731 -3
      vertex -13.946647288323772 -5.521868290270168 0
      vertex -13.946647288323772 -5.521868290270168 -3
    endloop
  endfacet
  facet normal -0.9510565162951538 -0.30901699437494673 0
    outer loop
      vertex -13.946647288323772 -5.521868290270168 -3
      vertex -14.528747416929466 -3.7303483074728225 0
      vertex -14.528747416929466 -3.7303483074728225 -3
    endloop
  endfacet
  facet normal -0.9822872507286886 -0.18738131458572513 0
    outer loop
      vertex -14.528747416929466 -3.7303483074728225 -3
      vertex -14.881720519717168 -1.879998503464561 0
      vertex -14.881720519717168 -1.879998503464561 -3
    endloop
  endfacet
  facet normal -0.9980267284282716 -0.06279051952931293 0
    outer loop
      vertex -14.881720519717168 -1.879998503464561 -3
      vertex -15 0 0
      vertex -15 0 -3
    endloop
  endfacet
  facet normal 0 0 -1
    outer loop
      vertex -4.635254915624211 -14.265847744427303 -3
      vertex -2.57742478981142 -2.4203629816764343 -3
      vertex -2.8107197187858723 -14.734308760930329 -3
    endloop
  endfacet
  facet normal 0 0 -1
    outer loop
      vertex -2.8107197187858723 -14.734308760930329 -3
      vertex -0.6625267908566699 -3.473087065076435 -3
      vertex -0.9418577929397064 -14.970400926424073 -3
    endloop
  endfacet
  facet normal 0 0 -1
    outer loop
      vertex -0.9418577929397064 -14.970400926424073 -3
      vertex -0.22200933690721653 -3.528737361228532 -3
      vertex 0.9418577929397064 -14.970400926424073 -3
    endloop
  endfacet
  facet normal -0.4817536741017145 -0.876306680043864 0
    outer loop
      vertex -8.037401924684952 -12.664918882530225 -3
      vertex -6.386689373476086 -13.572405786990293 -3
      vertex -6.386689373476086 -13.572405786990293 0
    endloop
  endfacet
  facet normal -0.3681245526846781 -0.9297764858882513 0
    outer loop
      vertex -6.386689373476086 -13.572405786990293 -3
      vertex -4.635254915624211 -14.265847744427303 -3
      vertex -4.635254915624211 -14.265847744427303 0
    endloop
  endfacet
  facet normal -0.24868988716485493 -0.9685831611286311 0
    outer loop
      vertex -4.635254915624211 -14.265847744427303 -3
      vertex -2.8107197187858723 -14.734308760930329 -3
      vertex -2.8107197187858723 -14.734308760930329 0
    endloop
  endfacet
  facet normal -0.12533323356430498 -0.9921147013144778 0
    outer loop
      vertex -2.8107197187858723 -14.734308760930329 -3
      vertex -0.9418577929397064 -14.970400926424073 -3
      vertex -0.9418577929397064 -14.970400926424073 0
    endloop
  endfacet
  facet normal 0 0 -1
    outer loop
      vertex -8.037401924684952 -12.664918882530225 -3
      vertex -6.386689373476091 13.572405786990291 -3
      vertex -6.386689373476086 -13.572405786990293 -3
    endloop
  endfacet
  facet normal 0 0 -1
    outer loop
      vertex -6.386689373476086 -13.572405786990293 -3
      vertex -4.635254915624211 14.265847744427303 -3
      vertex -4.635254915624211 -14.265847744427303 -3
    endloop
  endfacet
  facet normal 0 0 -1
    outer loop
      vertex -4.635254915624211 -14.265847744427303 -3
      vertex -3.424633319704803 -0.8792963867614509 -3
      vertex -3.2874240036763176 -1.3015832398493967 -3
    endloop
  endfacet
  facet normal 0 0 -1
    outer loop
      vertex -4.635254915624211 -14.265847744427303 -3
      vertex -3.5078341225047613 -0.4431425043880751 -3
      vertex -3.424633319704803 -0.8792963867614509 -3
    endloop
  endfacet
  facet normal 0 0 -1
    outer loop
      vertex -4.635254915624211 -14.265847744427303 -3
      vertex -3.5357142857142856 0 -3
      vertex -3.5078341225047613 -0.4431425043880751 -3
    endloop
  endfacet
  facet normal 0 0 -1
    outer loop
      vertex -4.635254915624211 -14.265847744427303 -3
      vertex -3.5078341225047613 0.4431425043880751 -3
      vertex -3.5357142857142856 0 -3
    endloop
  endfacet
  facet normal 0 0 -1
    outer loop
      vertex -4.635254915624211 -14.265847744427303 -3
      vertex -2.860452944397136 -2.078240713462673 -3
      vertex -2.57742478981142 -2.4203629816764343 -3
    endloop
  endfacet
  facet normal 0 0 -1
    outer loop
      vertex -4.635254915624211 -14.265847744427303 -3
      vertex -3.0983700472979456 -1.7033433477167794 -3
      vertex -2.860452944397136 -2.078240713462673 -3
    endloop
  endfacet
  facet normal 0 0 -1
    outer loop
      vertex -4.635254915624211 -14.265847744427303 -3
      vertex -3.2874240036763176 -1.3015832398493967 -3
      vertex -3.0983700472979456 -1.7033433477167794 -3
    endloop
  endfacet
  facet normal 0 0 -1
    outer loop
      vertex -2.8107197187858723 -14.734308760930329 -3
      vertex -2.57742478981142 -2.4203629816764343 -3
      vertex -2.2537491066114383 -2.7243146798143987 -3
    endloop
  endfacet
  facet normal 0 0 -1
    outer loop
      vertex -2.8107197187858723 -14.734308760930329 -3
      vertex -2.2537491066114383 -2.7243146798143987 -3
      vertex -1.8945304536757386 -2.9853023080249814 -3
    endloop
  endfacet
  facet normal 0 0 -1
    outer loop
      vertex -2.8107197187858723 -14.734308760930329 -3
      vertex -1.8945304536757386 -2.9853023080249814 -3
      vertex -1.5054339237479346 -3.1992099355048547 -3
    endloop
  endfacet
  facet normal 0 0 -1
    outer loop
      vertex -2.8107197187858723 -14.734308760930329 -3
      vertex -1.5054339237479346 -3.1992099355048547 -3
      vertex -1.0925958015399926 -3.3626641111864353 -3
    endloop
  endfacet
  facet normal 0 0 -1
    outer loop
      vertex -2.8107197187858723 -14.734308760930329 -3
      vertex -1.0925958015399926 -3.3626641111864353 -3
      vertex -0.6625267908566699 -3.473087065076435 -3
    endloop
  endfacet
  facet normal 0 0 -1
    outer loop
      vertex -0.9418577929397064 -14.970400926424073 -3
      vertex -0.6625267908566699 -3.473087065076435 -3
      vertex -0.22200933690721653 -3.528737361228532 -3
    endloop
  endfacet
  facet normal -0.7705132427757891 -0.6374239897486899 0
    outer loop
      vertex -10.934529411321176 -10.268206588930328 -3
      vertex -10.934529411321176 -10.268206588930328 0
      vertex -12.135254915624213 -8.816778784387097 0
    endloop
  endfacet
  facet normal -0.8443279255020157 -0.5358267949789955 0
    outer loop
      vertex -12.135254915624213 -8.816778784387097 -3
      vertex -12.135254915624213 -8.816778784387097 0
      vertex -13.144600200657951 -7.226305111525731 0
    endloop
  endfacet
  facet normal -0.5877852522924732 -0.8090169943749473 0
    outer loop
      vertex -9.561359846230344 -11.55769864163684 -3
      vertex -8.037401924684952 -12.664918882530225 0
      vertex -9.561359846230344 -11.55769864163684 0
    endloop
  endfacet
  facet normal -0.6845471059286886 -0.7289686274214117 0
    outer loop
      vertex -10.934529411321176 -10.268206588930328 -3
      vertex -9.561359846230344 -11.55769864163684 0
      vertex -10.934529411321176 -10.268206588930328 0
    endloop
  endfacet
  facet normal -0.9048270524660189 -0.42577929156507377 0
    outer loop
      vertex -13.144600200657951 -7.226305111525731 -3
      vertex -13.144600200657951 -7.226305111525731 0
      vertex -13.946647288323772 -5.521868290270168 0
    endloop
  endfacet
  facet normal -0.9510565162951538 -0.30901699437494673 0
    outer loop
      vertex -13.946647288323772 -5.521868290270168 -3
      vertex -13.946647288323772 -5.521868290270168 0
      vertex -14.528747416929466 -3.7303483074728225 0
    endloop
  endfacet
  facet normal -0.9822872507286886 -0.18738131458572513 0
    outer loop
      vertex -14.528747416929466 -3.7303483074728225 -3
      vertex -14.528747416929466 -3.7303483074728225 0
      vertex -14.881720519717168 -1.879998503464561 0
    endloop
  endfacet
  facet normal -0.9980267284282716 -0.06279051952931293 0
    outer loop
      vertex -14.881720519717168 -1.879998503464561 -3
      vertex -14.881720519717168 -1.879998503464561 0
      vertex -15 0 0
    endloop
  endfacet
  facet normal 0 0 1
    outer loop
      vertex -13.144600200657951 -7.226305111525731 0
      vertex -13.946647288323772 5.521868290270168 0
      vertex -13.946647288323772 -5.521868290270168 0
    endloop
  endfacet
  facet normal 0 0 1
    outer loop
      vertex -14.528747416929466 -3.7303483074728225 0
      vertex -14.881720519717168 1.879998503464561 0
      vertex -14.881720519717168 -1.879998503464561 0
    endloop
  endfacet
  facet normal 0 0 1
    outer loop
      vertex -13.946647288323772 -5.521868290270168 0
      vertex -14.528747416929466 3.7303483074728225 0
      vertex -14.528747416929466 -3.7303483074728225 0
    endloop
  endfacet
  facet normal 0 0 1
    outer loop
      vertex -12.135254915624213 -8.816778784387097 0
      vertex -13.144600200657951 7.226305111525731 0
      vertex -13.144600200657951 -7.226305111525731 0
    endloop
  endfacet
  facet normal 0 0 1
    outer loop
      vertex -12.135254915624213 -8.816778784387097 0
      vertex -10.934529411321176 -10.268206588930328 0
      vertex -12.135254915624213 8.816778784387097 0
    endloop
  endfacet
  facet normal 0 0 1
    outer loop
      vertex -9.561359846230344 -11.55769864163684 0
      vertex -10.934529411321176 10.268206588930328 0
      vertex -10.934529411321176 -10.268206588930328 0
    endloop
  endfacet
  facet normal 0 0 1
    outer loop
      vertex -9.561359846230344 -11.55769864163684 0
      vertex -8.037401924684952 -12.664918882530225 0
      vertex -9.561359846230344 11.55769864163684 0
    endloop
  endfacet
  facet normal -0.3681245526846781 -0.9297764858882513 0
    outer loop
      vertex -6.386689373476086 -13.572405786990293 -3
      vertex -4.635254915624211 -14.265847744427303 0
      vertex -6.386689373476086 -13.572405786990293 0
    endloop
  endfacet
  facet normal -0.4817536741017145 -0.876306680043864 0
    outer loop
      vertex -8.037401924684952 -12.664918882530225 -3
      vertex -6.386689373476086 -13.572405786990293 0
      vertex -8.037401924684952 -12.664918882530225 0
    endloop
  endfacet
  facet normal -0.24868988716485493 -0.9685831611286311 0
    outer loop
      vertex -4.635254915624211 -14.265847744427303 -3
      vertex -2.8107197187858723 -14.734308760930329 0
      vertex -4.635254915624211 -14.265847744427303 0
    endloop
  endfacet
  facet normal -0.12533323356430498 -0.9921147013144778 0
    outer loop
      vertex -2.8107197187858723 -14.734308760930329 -3
      vertex -0.9418577929397064 -14.970400926424073 0
      vertex -2.8107197187858723 -14.734308760930329 0
    endloop
  endfacet
  facet normal 0 -1 0
    outer loop
      vertex -0.9418577929397064 -14.970400926424073 -3
      vertex 0.9418577929397064 -14.970400926424073 0
      vertex -0.9418577929397064 -14.970400926424073 0
    endloop
  endfacet
  facet normal 0 0 1
    outer loop
      vertex -2.8107197187858723 -14.734308760930329 0
      vertex -0.9418577929397064 -14.970400926424073 0
      vertex -1.6995934690622108 -5.230810839623344 0
    endloop
  endfacet
  facet normal 0 0 1
    outer loop
      vertex -4.635254915624211 -14.265847744427303 0
      vertex -2.8107197187858723 -14.734308760930329 0
      vertex -3.505831943617793 -4.237822835266842 0
    endloop
  endfacet
  facet normal 0 0 1
    outer loop
      vertex -2.8107197187858723 -14.734308760930329 0
      vertex -2.9470473723844823 -4.643803590261082 0
      vertex -3.505831943617793 -4.237822835266842 0
    endloop
  endfacet
  facet normal 0 0 1
    outer loop
      vertex -2.8107197187858723 -14.734308760930329 0
      vertex -2.341786103607898 -4.9765487885631075 0
      vertex -2.9470473723844823 -4.643803590261082 0
    endloop
  endfacet
  facet normal 0 0 1
    outer loop
      vertex -2.8107197187858723 -14.734308760930329 0
      vertex -1.6995934690622108 -5.230810839623344 0
      vertex -2.341786103607898 -4.9765487885631075 0
    endloop
  endfacet
  facet normal 0 0 1
    outer loop
      vertex -0.9418577929397064 -14.970400926424073 0
      vertex -1.0305972302214865 -5.402579879007788 0
      vertex -1.6995934690622108 -5.230810839623344 0
    endloop
  endfacet
  facet normal 0 0 1
    outer loop
      vertex -0.9418577929397064 -14.970400926424073 0
      vertex -0.3453478574112257 -5.489147006355494 0
      vertex -1.0305972302214865 -5.402579879007788 0
    endloop
  endfacet
  facet normal 0 0 1
    outer loop
      vertex -0.9418577929397064 -14.970400926424073 0
      vertex 0.3453478574112257 -5.489147006355494 0
      vertex -0.3453478574112257 -5.489147006355494 0
    endloop
  endfacet
  facet normal 0 0 1
    outer loop
      vertex -8.037401924684952 -12.664918882530225 0
      vertex -6.386689373476086 -13.572405786990293 0
      vertex -8.037401924684952 12.664918882530225 0
    endloop
  endfacet
  facet normal 0 0 1
    outer loop
      vertex -6.386689373476086 -13.572405786990293 0
      vertex -4.635254915624211 -14.265847744427303 0
      vertex -6.386689373476091 13.572405786990291 0
    endloop
  endfacet
  facet normal 0 0 1
    outer loop
      vertex -4.635254915624211 -14.265847744427303 0
      vertex -4.819686740241249 -2.6496452075594346 0
      vertex -5.113770672385383 -2.0246850397657283 0
    endloop
  endfacet
  facet normal 0 0 1
    outer loop
      vertex -4.635254915624211 -14.265847744427303 0
      vertex -5.113770672385383 -2.0246850397657283 0
      vertex -5.327207386207471 -1.3677943794067016 0
    endloop
  endfacet
  facet normal 0 0 1
    outer loop
      vertex -4.635254915624211 -14.265847744427303 0
      vertex -4.009327450817764 -3.765009082607787 0
      vertex -4.449593469062211 -3.232818887608602 0
    endloop
  endfacet
  facet normal 0 0 1
    outer loop
      vertex -4.635254915624211 -14.265847744427303 0
      vertex -4.449593469062211 -3.232818887608602 0
      vertex -4.819686740241249 -2.6496452075594346 0
    endloop
  endfacet
  facet normal 0 0 1
    outer loop
      vertex -4.635254915624211 -14.265847744427303 0
      vertex -3.505831943617793 -4.237822835266842 0
      vertex -4.009327450817764 -3.765009082607787 0
    endloop
  endfacet
  facet normal 0 0 1
    outer loop
      vertex -4.635254915624211 -14.265847744427303 0
      vertex -5.327207386207471 -1.3677943794067016 0
      vertex -5.456630857229628 -0.6893327846036723 0
    endloop
  endfacet
  facet normal 0 0 1
    outer loop
      vertex -4.635254915624211 -14.265847744427303 0
      vertex -5.456630857229628 -0.6893327846036723 0
      vertex -6.386689373476091 13.572405786990291 0
    endloop
  endfacet
  facet normal 0 0 -1
    outer loop
      vertex -14.881720519717168 -1.879998503464561 -3
      vertex -15 0 -3
      vertex -14.881720519717168 1.879998503464561 -3
    endloop
  endfacet
  facet normal 0 0 -1
    outer loop
      vertex -14.881720519717168 -1.879998503464561 -3
      vertex -14.881720519717168 1.879998503464561 -3
      vertex -14.528747416929466 3.7303483074728225 -3
    endloop
  endfacet
  facet normal 0 0 -1
    outer loop
      vertex -14.528747416929466 -3.7303483074728225 -3
      vertex -14.528747416929466 3.7303483074728225 -3
      vertex -13.946647288323772 5.521868290270168 -3
    endloop
  endfacet
  facet normal 0 0 -1
    outer loop
      vertex -13.946647288323772 -5.521868290270168 -3
      vertex -13.946647288323772 5.521868290270168 -3
      vertex -13.144600200657951 7.226305111525731 -3
    endloop
  endfacet
  facet normal 0 0 -1
    outer loop
      vertex -13.144600200657951 -7.226305111525731 -3
      vertex -13.144600200657951 7.226305111525731 -3
      vertex -12.135254915624213 8.816778784387097 -3
    endloop
  endfacet
  facet normal 0 0 -1
    outer loop
      vertex -12.135254915624213 -8.816778784387097 -3
      vertex -12.135254915624213 8.816778784387097 -3
      vertex -10.934529411321176 10.268206588930328 -3
    endloop
  endfacet
  facet normal 0 0 -1
    outer loop
      vertex -10.934529411321176 -10.268206588930328 -3
      vertex -10.934529411321176 10.268206588930328 -3
      vertex -9.561359846230344 11.55769864163684 -3
    endloop
  endfacet
  facet normal 0 0 -1
    outer loop
      vertex -9.561359846230344 -11.55769864163684 -3
      vertex -9.561359846230344 11.55769864163684 -3
      vertex -8.037401924684952 12.664918882530225 -3
    endloop
  endfacet
  facet normal -0.9980267284282716 0.06279051952931293 0
    outer loop
      vertex -15 0 -3
      vertex -14.881720519717168 1.879998503464561 0
      vertex -14.881720519717168 1.879998503464561 -3
    endloop
  endfacet
  facet normal -0.9822872507286886 0.18738131458572513 0
    outer loop
      vertex -14.881720519717168 1.879998503464561 -3
      vertex -14.528747416929466 3.7303483074728225 0
      vertex -14.528747416929466 3.7303483074728225 -3
    endloop
  endfacet
  facet normal -0.9510565162951538 0.30901699437494673 0
    outer loop
      vertex -14.528747416929466 3.7303483074728225 -3
      vertex -13.946647288323772 5.521868290270168 0
      vertex -13.946647288323772 5.521868290270168 -3
    endloop
  endfacet
  facet normal -0.9048270524660189 0.42577929156507377 0
    outer loop
      vertex -13.946647288323772 5.521868290270168 -3
      vertex -13.144600200657951 7.226305111525731 0
      vertex -13.144600200657951 7.226305111525731 -3
    endloop
  endfacet
  facet normal -0.8443279255020157 0.5358267949789955 0
    outer loop
      vertex -13.144600200657951 7.226305111525731 -3
      vertex -12.135254915624213 8.816778784387097 0
      vertex -12.135254915624213 8.816778784387097 -3
    endloop
  endfacet
  facet normal -0.7705132427757891 0.6374239897486899 0
    outer loop
      vertex -12.135254915624213 8.816778784387097 -3
      vertex -10.934529411321176 10.268206588930328 0
      vertex -10.934529411321176 10.268206588930328 -3
    endloop
  endfacet
  facet normal -0.6845471059286886 0.7289686274214117 0
    outer loop
      vertex -10.934529411321176 10.268206588930328 -3
      vertex -10.934529411321176 10.268206588930328 0
      vertex -9.561359846230344 11.55769864163684 -3
    endloop
  endfacet
  facet normal -0.5877852522924732 0.8090169943749473 0
    outer loop
      vertex -9.561359846230344 11.55769864163684 -3
      vertex -9.561359846230344 11.55769864163684 0
      vertex -8.037401924684952 12.664918882530225 -3
    endloop
  endfacet
  facet normal 0 0 -1
    outer loop
      vertex -8.037401924684952 -12.664918882530225 -3
      vertex -8.037401924684952 12.664918882530225 -3
      vertex -6.386689373476091 13.572405786990291 -3
    endloop
  endfacet
  facet normal 0 0 -1
    outer loop
      vertex -6.386689373476086 -13.572405786990293 -3
      vertex -6.386689373476091 13.572405786990291 -3
      vertex -4.635254915624211 14.265847744427303 -3
    endloop
  endfacet
  facet normal 0 0 -1
    outer loop
      vertex -4.635254915624211 -14.265847744427303 -3
      vertex -4.635254915624211 14.265847744427303 -3
      vertex -2.810719718785869 14.73430876093033 -3
    endloop
  endfacet
  facet normal 0 0 -1
    outer loop
      vertex -4.635254915624211 -14.265847744427303 -3
      vertex -2.810719718785869 14.73430876093033 -3
      vertex -3.5078341225047613 0.4431425043880751 -3
    endloop
  endfacet
  facet normal 0 0 -1
    outer loop
      vertex -2.810719718785869 14.73430876093033 -3
      vertex -3.4246333197048027 0.8792963867614509 -3
      vertex -3.5078341225047613 0.4431425043880751 -3
    endloop
  endfacet
  facet normal 0 0 -1
    outer loop
      vertex -2.810719718785869 14.73430876093033 -3
      vertex -3.2874240036763176 1.3015832398493967 -3
      vertex -3.4246333197048027 0.8792963867614509 -3
    endloop
  endfacet
  facet normal 0 0 -1
    outer loop
      vertex -2.810719718785869 14.73430876093033 -3
      vertex -3.0983700472979456 1.7033433477167794 -3
      vertex -3.2874240036763176 1.3015832398493967 -3
    endloop
  endfacet
  facet normal 0 0 -1
    outer loop
      vertex -2.810719718785869 14.73430876093033 -3
      vertex -2.8604529443971356 2.0782407134626726 -3
      vertex -3.0983700472979456 1.7033433477167794 -3
    endloop
  endfacet
  facet normal 0 0 -1
    outer loop
      vertex -2.810719718785869 14.73430876093033 -3
      vertex -2.57742478981142 2.4203629816764343 -3
      vertex -2.8604529443971356 2.0782407134626726 -3
    endloop
  endfacet
  facet normal 0 0 -1
    outer loop
      vertex -2.810719718785869 14.73430876093033 -3
      vertex -2.2537491066114383 2.7243146798143982 -3
      vertex -2.57742478981142 2.4203629816764343 -3
    endloop
  endfacet
  facet normal 0 0 -1
    outer loop
      vertex -2.810719718785869 14.73430876093033 -3
      vertex -1.8945304536757388 2.985302308024981 -3
      vertex -2.2537491066114383 2.7243146798143982 -3
    endloop
  endfacet
  facet normal 0 0 -1
    outer loop
      vertex -0.9418577929396992 14.970400926424073 -3
      vertex -1.5054339237479357 3.199209935504855 -3
      vertex -1.8945304536757388 2.985302308024981 -3
    endloop
  endfacet
  facet normal 0 0 -1
    outer loop
      vertex -0.9418577929396992 14.970400926424073 -3
      vertex -1.0925958015399926 3.3626641111864357 -3
      vertex -1.5054339237479357 3.199209935504855 -3
    endloop
  endfacet
  facet normal 0 0 -1
    outer loop
      vertex -0.9418577929396992 14.970400926424073 -3
      vertex -0.662526790856669 3.473087065076435 -3
      vertex -1.0925958015399926 3.3626641111864357 -3
    endloop
  endfacet
  facet normal 0 0 -1
    outer loop
      vertex -0.9418577929396992 14.970400926424073 -3
      vertex -0.2220093369072148 3.528737361228532 -3
      vertex -0.662526790856669 3.473087065076435 -3
    endloop
  endfacet
  facet normal 0 0 -1
    outer loop
      vertex -0.9418577929396992 14.970400926424073 -3
      vertex 0.2220093369072122 3.528737361228532 -3
      vertex -0.2220093369072148 3.528737361228532 -3
    endloop
  endfacet
  facet normal 0 0 -1
    outer loop
      vertex -2.810719718785869 14.73430876093033 -3
      vertex -0.9418577929396992 14.970400926424073 -3
      vertex -1.8945304536757388 2.985302308024981 -3
    endloop
  endfacet
  facet normal -0.48175367410171477 0.8763066800438638 0
    outer loop
      vertex -8.037401924684952 12.664918882530225 -3
      vertex -8.037401924684952 12.664918882530225 0
      vertex -6.386689373476091 13.572405786990291 -3
    endloop
  endfacet
  facet normal -0.36812455268467803 0.9297764858882512 0
    outer loop
      vertex -6.386689373476091 13.572405786990291 -3
      vertex -6.386689373476091 13.572405786990291 0
      vertex -4.635254915624211 14.265847744427303 -3
    endloop
  endfacet
  facet normal -0.24868988716485538 0.968583161128631 0
    outer loop
      vertex -4.635254915624211 14.265847744427303 -3
      vertex -4.635254915624211 14.265847744427303 0
      vertex -2.810719718785869 14.73430876093033 -3
    endloop
  endfacet
  facet normal -0.1253332335643038 0.9921147013144779 0
    outer loop
      vertex -2.810719718785869 14.73430876093033 -3
      vertex -2.810719718785869 14.73430876093033 0
      vertex -0.9418577929396992 14.970400926424073 -3
    endloop
  endfacet
  facet normal 0 1 0
    outer loop
      vertex -0.9418577929396992 14.970400926424073 -3
      vertex -0.9418577929396992 14.970400926424073 0
      vertex 0.9418577929396992 14.970400926424073 -3
    endloop
  endfacet
  facet normal -0.9980267284282716 0.06279051952931293 0
    outer loop
      vertex -15 0 -3
      vertex -15 0 0
      vertex -14.881720519717168 1.879998503464561 0
    endloop
  endfacet
  facet normal -0.9822872507286886 0.18738131458572513 0
    outer loop
      vertex -14.881720519717168 1.879998503464561 -3
      vertex -14.881720519717168 1.879998503464561 0
      vertex -14.528747416929466 3.7303483074728225 0
    endloop
  endfacet
  facet normal -0.9510565162951538 0.30901699437494673 0
    outer loop
      vertex -14.528747416929466 3.7303483074728225 -3
      vertex -14.528747416929466 3.7303483074728225 0
      vertex -13.946647288323772 5.521868290270168 0
    endloop
  endfacet
  facet normal -0.9048270524660189 0.42577929156507377 0
    outer loop
      vertex -13.946647288323772 5.521868290270168 -3
      vertex -13.946647288323772 5.521868290270168 0
      vertex -13.144600200657951 7.226305111525731 0
    endloop
  endfacet
  facet normal 0 0 1
    outer loop
      vertex -14.881720519717168 -1.879998503464561 0
      vertex -14.881720519717168 1.879998503464561 0
      vertex -15 0 0
    endloop
  endfacet
  facet normal 0 0 1
    outer loop
      vertex -14.528747416929466 -3.7303483074728225 0
      vertex -14.528747416929466 3.7303483074728225 0
      vertex -14.881720519717168 1.879998503464561 0
    endloop
  endfacet
  facet normal 0 0 1
    outer loop
      vertex -13.946647288323772 -5.521868290270168 0
      vertex -13.946647288323772 5.521868290270168 0
      vertex -14.528747416929466 3.7303483074728225 0
    endloop
  endfacet
  facet normal 0 0 1
    outer loop
      vertex -13.144600200657951 -7.226305111525731 0
      vertex -13.144600200657951 7.226305111525731 0
      vertex -13.946647288323772 5.521868290270168 0
    endloop
  endfacet
  facet normal 0 0 1
    outer loop
      vertex -12.135254915624213 -8.816778784387097 0
      vertex -12.135254915624213 8.816778784387097 0
      vertex -13.144600200657951 7.226305111525731 0
    endloop
  endfacet
  facet normal 0 0 1
    outer loop
      vertex -10.934529411321176 -10.268206588930328 0
      vertex -10.934529411321176 10.268206588930328 0
      vertex -12.135254915624213 8.816778784387097 0
    endloop
  endfacet
  facet normal 0 0 1
    outer loop
      vertex -9.561359846230344 -11.55769864163684 0
      vertex -9.561359846230344 11.55769864163684 0
      vertex -10.934529411321176 10.268206588930328 0
    endloop
  endfacet
  facet normal 0 0 1
    outer loop
      vertex -8.037401924684952 -12.664918882530225 0
      vertex -8.037401924684952 12.664918882530225 0
      vertex -9.561359846230344 11.55769864163684 0
    endloop
  endfacet
  facet normal -0.8443279255020157 0.5358267949789955 0
    outer loop
      vertex -13.144600200657951 7.226305111525731 -3
      vertex -13.144600200657951 7.226305111525731 0
      vertex -12.135254915624213 8.816778784387097 0
    endloop
  endfacet
  facet normal -0.7705132427757891 0.6374239897486899 0
    outer loop
      vertex -12.135254915624213 8.816778784387097 -3
      vertex -12.135254915624213 8.816778784387097 0
      vertex -10.934529411321176 10.268206588930328 0
    endloop
  endfacet
  facet normal -0.6845471059286886 0.7289686274214117 0
    outer loop
      vertex -9.561359846230344 11.55769864163684 -3
      vertex -10.934529411321176 10.268206588930328 0
      vertex -9.561359846230344 11.55769864163684 0
    endloop
  endfacet
  facet normal -0.5877852522924732 0.8090169943749473 0
    outer loop
      vertex -8.037401924684952 12.664918882530225 -3
      vertex -9.561359846230344 11.55769864163684 0
      vertex -8.037401924684952 12.664918882530225 0
    endloop
  endfacet
  facet normal 0 0 1
    outer loop
      vertex -6.386689373476086 -13.572405786990293 0
      vertex -6.386689373476091 13.572405786990291 0
      vertex -8.037401924684952 12.664918882530225 0
    endloop
  endfacet
  facet normal 0 0 1
    outer loop
      vertex -6.386689373476091 13.572405786990291 0
      vertex -5.456630857229628 -0.6893327846036723 0
      vertex -5.5 0 0
    endloop
  endfacet
  facet normal 0 0 1
    outer loop
      vertex -6.386689373476091 13.572405786990291 0
      vertex -5.5 0 0
      vertex -5.456630857229628 0.6893327846036723 0
    endloop
  endfacet
  facet normal 0 0 1
    outer loop
      vertex -6.386689373476091 13.572405786990291 0
      vertex -5.456630857229628 0.6893327846036723 0
      vertex -5.327207386207471 1.3677943794067016 0
    endloop
  endfacet
  facet normal 0 0 1
    outer loop
      vertex -6.386689373476091 13.572405786990291 0
      vertex -5.327207386207471 1.3677943794067016 0
      vertex -5.113770672385383 2.0246850397657283 0
    endloop
  endfacet
  facet normal 0 0 1
    outer loop
      vertex -6.386689373476091 13.572405786990291 0
      vertex -5.113770672385383 2.0246850397657283 0
      vertex -4.819686740241249 2.6496452075594346 0
    endloop
  endfacet
  facet normal 0 0 1
    outer loop
      vertex -6.386689373476091 13.572405786990291 0
      vertex -4.819686740241249 2.6496452075594346 0
      vertex -4.449593469062211 3.232818887608602 0
    endloop
  endfacet
  facet normal 0 0 1
    outer loop
      vertex -4.635254915624211 14.265847744427303 0
      vertex -4.449593469062211 3.232818887608602 0
      vertex -4.009327450817764 3.765009082607787 0
    endloop
  endfacet
  facet normal 0 0 1
    outer loop
      vertex -4.635254915624211 14.265847744427303 0
      vertex -4.009327450817764 3.765009082607787 0
      vertex -3.505831943617793 4.237822835266842 0
    endloop
  endfacet
  facet normal -0.48175367410171477 0.8763066800438638 0
    outer loop
      vertex -6.386689373476091 13.572405786990291 -3
      vertex -8.037401924684952 12.664918882530225 0
      vertex -6.386689373476091 13.572405786990291 0
    endloop
  endfacet
  facet normal -0.36812455268467803 0.9297764858882512 0
    outer loop
      vertex -4.635254915624211 14.265847744427303 -3
      vertex -6.386689373476091 13.572405786990291 0
      vertex -4.635254915624211 14.265847744427303 0
    endloop
  endfacet
  facet normal -0.24868988716485538 0.968583161128631 0
    outer loop
      vertex -2.810719718785869 14.73430876093033 -3
      vertex -4.635254915624211 14.265847744427303 0
      vertex -2.810719718785869 14.73430876093033 0
    endloop
  endfacet
  facet normal -0.1253332335643038 0.9921147013144779 0
    outer loop
      vertex -0.9418577929396992 14.970400926424073 -3
      vertex -2.810719718785869 14.73430876093033 0
      vertex -0.9418577929396992 14.970400926424073 0
    endloop
  endfacet
  facet normal 0 0 1
    outer loop
      vertex -6.386689373476091 13.572405786990291 0
      vertex -4.449593469062211 3.232818887608602 0
      vertex -4.635254915624211 14.265847744427303 0
    endloop
  endfacet
  facet normal 0 0 1
    outer loop
      vertex -4.635254915624211 14.265847744427303 0
      vertex -3.505831943617793 4.237822835266842 0
      vertex -2.9470473723844823 4.643803590261082 0
    endloop
  endfacet
  facet normal 0 0 1
    outer loop
      vertex -4.635254915624211 14.265847744427303 0
      vertex -2.9470473723844823 4.643803590261082 0
      vertex -2.3417861036079 4.9765487885631075 0
    endloop
  endfacet
  facet normal 0 0 1
    outer loop
      vertex -2.810719718785869 14.73430876093033 0
      vertex -2.3417861036079 4.9765487885631075 0
      vertex -1.6995934690622108 5.230810839623344 0
    endloop
  endfacet
  facet normal 0 0 1
    outer loop
      vertex -2.810719718785869 14.73430876093033 0
      vertex -1.6995934690622108 5.230810839623344 0
      vertex -1.0305972302214852 5.402579879007788 0
    endloop
  endfacet
  facet normal 0 0 1
    outer loop
      vertex -2.810719718785869 14.73430876093033 0
      vertex -1.0305972302214852 5.402579879007788 0
      vertex -0.34534785741122087 5.489147006355494 0
    endloop
  endfacet
  facet normal 0 0 1
    outer loop
      vertex -4.635254915624211 14.265847744427303 0
      vertex -2.3417861036079 4.9765487885631075 0
      vertex -2.810719718785869 14.73430876093033 0
    endloop
  endfacet
  facet normal 0 0 1
    outer loop
      vertex -2.810719718785869 14.73430876093033 0
      vertex -0.34534785741122087 5.489147006355494 0
      vertex -0.9418577929396992 14.970400926424073 0
    endloop
  endfacet
  facet normal 0 0 1
    outer loop
      vertex -0.9418577929396992 14.970400926424073 0
      vertex -0.34534785741122087 5.489147006355494 0
      vertex 0.9418577929396992 14.970400926424073 0
    endloop
  endfacet
  facet normal 0 0 -1
    outer loop
      vertex 0.9418577929397064 -14.970400926424073 -3
      vertex 1.8945304536757366 -2.9853023080249828 -3
      vertex 2.8107197187858723 -14.734308760930329 -3
    endloop
  endfacet
  facet normal 0 -1 0
    outer loop
      vertex -0.9418577929397064 -14.970400926424073 -3
      vertex 0.9418577929397064 -14.970400926424073 -3
      vertex 0.9418577929397064 -14.970400926424073 0
    endloop
  endfacet
  facet normal 0.12533323356430498 -0.9921147013144778 0
    outer loop
      vertex 0.9418577929397064 -14.970400926424073 -3
      vertex 2.8107197187858723 -14.734308760930329 -3
      vertex 2.8107197187858723 -14.734308760930329 0
    endloop
  endfacet
  facet normal 0.24868988716485493 -0.9685831611286311 0
    outer loop
      vertex 2.8107197187858723 -14.734308760930329 -3
      vertex 4.635254915624211 -14.265847744427303 -3
      vertex 4.635254915624211 -14.265847744427303 0
    endloop
  endfacet
  facet normal 0.3681245526846781 -0.9297764858882513 0
    outer loop
      vertex 4.635254915624211 -14.265847744427303 -3
      vertex 6.386689373476086 -13.572405786990293 -3
      vertex 6.386689373476086 -13.572405786990293 0
    endloop
  endfacet
  facet normal 0.4817536741017143 -0.876306680043864 0
    outer loop
      vertex 6.386689373476086 -13.572405786990293 -3
      vertex 8.037401924684943 -12.66491888253023 -3
      vertex 8.037401924684943 -12.66491888253023 0
    endloop
  endfacet
  facet normal 0 0 -1
    outer loop
      vertex 0.9418577929397064 -14.970400926424073 -3
      vertex -0.22200933690721653 -3.528737361228532 -3
      vertex 0.22200933690721653 -3.528737361228532 -3
    endloop
  endfacet
  facet normal 0 0 -1
    outer loop
      vertex 0.9418577929397064 -14.970400926424073 -3
      vertex 0.22200933690721653 -3.528737361228532 -3
      vertex 0.6625267908566699 -3.473087065076435 -3
    endloop
  endfacet
  facet normal 0 0 -1
    outer loop
      vertex 0.9418577929397064 -14.970400926424073 -3
      vertex 0.6625267908566699 -3.473087065076435 -3
      vertex 1.0925958015399926 -3.3626641111864353 -3
    endloop
  endfacet
  facet normal 0 0 -1
    outer loop
      vertex 0.9418577929397064 -14.970400926424073 -3
      vertex 1.0925958015399926 -3.3626641111864353 -3
      vertex 1.5054339237479346 -3.199209935504855 -3
    endloop
  endfacet
  facet normal 0 0 -1
    outer loop
      vertex 0.9418577929397064 -14.970400926424073 -3
      vertex 1.5054339237479346 -3.199209935504855 -3
      vertex 1.8945304536757366 -2.9853023080249828 -3
    endloop
  endfacet
  facet normal 0 0 -1
    outer loop
      vertex 2.8107197187858723 -14.734308760930329 -3
      vertex 1.8945304536757366 -2.9853023080249828 -3
      vertex 2.2537491066114397 -2.7243146798143973 -3
    endloop
  endfacet
  facet normal 0 0 -1
    outer loop
      vertex 2.8107197187858723 -14.734308760930329 -3
      vertex 2.2537491066114397 -2.7243146798143973 -3
      vertex 2.57742478981142 -2.4203629816764343 -3
    endloop
  endfacet
  facet normal 0 0 -1
    outer loop
      vertex 2.8107197187858723 -14.734308760930329 -3
      vertex 2.57742478981142 -2.4203629816764343 -3
      vertex 2.860452944397136 -2.078240713462673 -3
    endloop
  endfacet
  facet normal 0 0 -1
    outer loop
      vertex 2.8107197187858723 -14.734308760930329 -3
      vertex 2.860452944397136 -2.078240713462673 -3
      vertex 3.0983700472979456 -1.7033433477167794 -3
    endloop
  endfacet
  facet normal 0 0 -1
    outer loop
      vertex 2.8107197187858723 -14.734308760930329 -3
      vertex 3.0983700472979456 -1.7033433477167794 -3
      vertex 3.287424003676317 -1.3015832398493985 -3
    endloop
  endfacet
  facet normal 0 0 -1
    outer loop
      vertex 2.8107197187858723 -14.734308760930329 -3
      vertex 3.287424003676317 -1.3015832398493985 -3
      vertex 3.424633319704803 -0.8792963867614496 -3
    endloop
  endfacet
  facet normal 0 0 -1
    outer loop
      vertex 2.8107197187858723 -14.734308760930329 -3
      vertex 3.424633319704803 -0.8792963867614496 -3
      vertex 3.5078341225047613 -0.4431425043880751 -3
    endloop
  endfacet
  facet normal 0 0 -1
    outer loop
      vertex 2.8107197187858723 -14.734308760930329 -3
      vertex 3.5078341225047613 -0.4431425043880751 -3
      vertex 4.635254915624211 14.265847744427303 -3
    endloop
  endfacet
  facet normal 0 0 -1
    outer loop
      vertex 2.8107197187858723 -14.734308760930329 -3
      vertex 4.635254915624211 14.265847744427303 -3
      vertex 4.635254915624211 -14.265847744427303 -3
    endloop
  endfacet
  facet normal 0 0 -1
    outer loop
      vertex 4.635254915624211 -14.265847744427303 -3
      vertex 6.386689373476091 13.572405786990291 -3
      vertex 6.386689373476086 -13.572405786990293 -3
    endloop
  endfacet
  facet normal 0 0 -1
    outer loop
      vertex 6.386689373476086 -13.572405786990293 -3
      vertex 8.03740192468495 12.664918882530227 -3
      vertex 8.037401924684943 -12.66491888253023 -3
    endloop
  endfacet
  facet normal 0.5877852522924728 -0.8090169943749477 0
    outer loop
      vertex 8.037401924684943 -12.66491888253023 -3
      vertex 9.56135984623035 -11.557698641636836 -3
      vertex 9.56135984623035 -11.557698641636836 0
    endloop
  endfacet
  facet normal 0.684547105928689 -0.7289686274214113 0
    outer loop
      vertex 9.56135984623035 -11.557698641636836 -3
      vertex 10.934529411321176 -10.268206588930328 -3
      vertex 10.934529411321176 -10.268206588930328 0
    endloop
  endfacet
  facet normal 0.7705132427757891 -0.6374239897486899 0
    outer loop
      vertex 10.934529411321176 -10.268206588930328 -3
      vertex 12.135254915624213 -8.816778784387097 -3
      vertex 10.934529411321176 -10.268206588930328 0
    endloop
  endfacet
  facet normal 0.8443279255020157 -0.5358267949789955 0
    outer loop
      vertex 12.135254915624213 -8.816778784387097 -3
      vertex 13.144600200657951 -7.226305111525731 -3
      vertex 12.135254915624213 -8.816778784387097 0
    endloop
  endfacet
  facet normal 0 0 -1
    outer loop
      vertex 8.037401924684943 -12.66491888253023 -3
      vertex 9.561359846230346 11.557698641636836 -3
      vertex 9.56135984623035 -11.557698641636836 -3
    endloop
  endfacet
  facet normal 0 0 -1
    outer loop
      vertex 9.56135984623035 -11.557698641636836 -3
      vertex 10.934529411321174 10.268206588930331 -3
      vertex 10.934529411321176 -10.268206588930328 -3
    endloop
  endfacet
  facet normal 0 0 -1
    outer loop
      vertex 10.934529411321176 -10.268206588930328 -3
      vertex 12.135254915624213 8.816778784387097 -3
      vertex 12.135254915624213 -8.816778784387097 -3
    endloop
  endfacet
  facet normal 0 0 -1
    outer loop
      vertex 12.135254915624213 -8.816778784387097 -3
      vertex 13.144600200657953 7.22630511152573 -3
      vertex 13.144600200657951 -7.226305111525731 -3
    endloop
  endfacet
  facet normal 0 0 -1
    outer loop
      vertex 13.144600200657951 -7.226305111525731 -3
      vertex 13.94664728832377 5.521868290270169 -3
      vertex 13.946647288323769 -5.5218682902701755 -3
    endloop
  endfacet
  facet normal 0 0 -1
    outer loop
      vertex 13.946647288323769 -5.5218682902701755 -3
      vertex 14.528747416929466 3.730348307472822 -3
      vertex 14.528747416929468 -3.7303483074728163 -3
    endloop
  endfacet
  facet normal 0 0 -1
    outer loop
      vertex 14.528747416929468 -3.7303483074728163 -3
      vertex 14.881720519717168 1.8799985034645639 -3
      vertex 14.881720519717168 -1.879998503464561 -3
    endloop
  endfacet
  facet normal 0.904827052466019 -0.4257792915650737 0
    outer loop
      vertex 13.144600200657951 -7.226305111525731 -3
      vertex 13.946647288323769 -5.5218682902701755 -3
      vertex 13.144600200657951 -7.226305111525731 0
    endloop
  endfacet
  facet normal 0.9510565162951536 -0.30901699437494723 0
    outer loop
      vertex 13.946647288323769 -5.5218682902701755 -3
      vertex 14.528747416929468 -3.7303483074728163 -3
      vertex 13.946647288323769 -5.5218682902701755 0
    endloop
  endfacet
  facet normal 0.9822872507286887 -0.18738131458572485 0
    outer loop
      vertex 14.528747416929468 -3.7303483074728163 -3
      vertex 14.881720519717168 -1.879998503464561 -3
      vertex 14.528747416929468 -3.7303483074728163 0
    endloop
  endfacet
  facet normal 0.9980267284282716 -0.06279051952931293 0
    outer loop
      vertex 14.881720519717168 -1.879998503464561 -3
      vertex 15 0 -3
      vertex 14.881720519717168 -1.879998503464561 0
    endloop
  endfacet
  facet normal 0.12533323356430498 -0.9921147013144778 0
    outer loop
      vertex 0.9418577929397064 -14.970400926424073 -3
      vertex 2.8107197187858723 -14.734308760930329 0
      vertex 0.9418577929397064 -14.970400926424073 0
    endloop
  endfacet
  facet normal 0.24868988716485493 -0.9685831611286311 0
    outer loop
      vertex 2.8107197187858723 -14.734308760930329 -3
      vertex 4.635254915624211 -14.265847744427303 0
      vertex 2.8107197187858723 -14.734308760930329 0
    endloop
  endfacet
  facet normal 0.3681245526846781 -0.9297764858882513 0
    outer loop
      vertex 4.635254915624211 -14.265847744427303 -3
      vertex 6.386689373476086 -13.572405786990293 0
      vertex 4.635254915624211 -14.265847744427303 0
    endloop
  endfacet
  facet normal 0.4817536741017143 -0.876306680043864 0
    outer loop
      vertex 6.386689373476086 -13.572405786990293 -3
      vertex 8.037401924684943 -12.66491888253023 0
      vertex 6.386689373476086 -13.572405786990293 0
    endloop
  endfacet
  facet normal 0 0 1
    outer loop
      vertex -0.9418577929397064 -14.970400926424073 0
      vertex 0.9418577929397064 -14.970400926424073 0
      vertex 0.3453478574112257 -5.489147006355494 0
    endloop
  endfacet
  facet normal 0 0 1
    outer loop
      vertex 0.9418577929397064 -14.970400926424073 0
      vertex 2.8107197187858723 -14.734308760930329 0
      vertex 0.3453478574112257 -5.489147006355494 0
    endloop
  endfacet
  facet normal 0 0 1
    outer loop
      vertex 2.8107197187858723 -14.734308760930329 0
      vertex 4.635254915624211 -14.265847744427303 0
      vertex 2.341786103607898 -4.9765487885631075 0
    endloop
  endfacet
  facet normal 0 0 1
    outer loop
      vertex 2.8107197187858723 -14.734308760930329 0
      vertex 1.0305972302214865 -5.402579879007788 0
      vertex 0.3453478574112257 -5.489147006355494 0
    endloop
  endfacet
  facet normal 0 0 1
    outer loop
      vertex 2.8107197187858723 -14.734308760930329 0
      vertex 1.6995934690622108 -5.230810839623344 0
      vertex 1.0305972302214865 -5.402579879007788 0
    endloop
  endfacet
  facet normal 0 0 1
    outer loop
      vertex 2.8107197187858723 -14.734308760930329 0
      vertex 2.341786103607898 -4.9765487885631075 0
      vertex 1.6995934690622108 -5.230810839623344 0
    endloop
  endfacet
  facet normal 0 0 1
    outer loop
      vertex 4.635254915624211 -14.265847744427303 0
      vertex 2.9470473723844792 -4.643803590261085 0
      vertex 2.341786103607898 -4.9765487885631075 0
    endloop
  endfacet
  facet normal 0 0 1
    outer loop
      vertex 4.635254915624211 -14.265847744427303 0
      vertex 3.5058319436177947 -4.23782283526684 0
      vertex 2.9470473723844792 -4.643803590261085 0
    endloop
  endfacet
  facet normal 0 0 1
    outer loop
      vertex 4.635254915624211 -14.265847744427303 0
      vertex 6.386689373476086 -13.572405786990293 0
      vertex 4.449593469062211 -3.232818887608602 0
    endloop
  endfacet
  facet normal 0 0 1
    outer loop
      vertex 4.635254915624211 -14.265847744427303 0
      vertex 4.009327450817764 -3.765009082607787 0
      vertex 3.5058319436177947 -4.23782283526684 0
    endloop
  endfacet
  facet normal 0 0 1
    outer loop
      vertex 4.635254915624211 -14.265847744427303 0
      vertex 4.449593469062211 -3.232818887608602 0
      vertex 4.009327450817764 -3.765009082607787 0
    endloop
  endfacet
  facet normal 0 0 1
    outer loop
      vertex 6.386689373476086 -13.572405786990293 0
      vertex 4.819686740241249 -2.6496452075594346 0
      vertex 4.449593469062211 -3.232818887608602 0
    endloop
  endfacet
  facet normal 0 0 1
    outer loop
      vertex 6.386689373476086 -13.572405786990293 0
      vertex 5.113770672385382 -2.024685039765731 0
      vertex 4.819686740241249 -2.6496452075594346 0
    endloop
  endfacet
  facet normal 0 0 1
    outer loop
      vertex 6.386689373476086 -13.572405786990293 0
      vertex 5.327207386207472 -1.3677943794066993 0
      vertex 5.113770672385382 -2.024685039765731 0
    endloop
  endfacet
  facet normal 0 0 1
    outer loop
      vertex 6.386689373476086 -13.572405786990293 0
      vertex 5.456630857229628 -0.6893327846036723 0
      vertex 5.327207386207472 -1.3677943794066993 0
    endloop
  endfacet
  facet normal 0 0 1
    outer loop
      vertex 6.386689373476086 -13.572405786990293 0
      vertex 5.5 0 0
      vertex 5.456630857229628 -0.6893327846036723 0
    endloop
  endfacet
  facet normal 0 0 1
    outer loop
      vertex 6.386689373476086 -13.572405786990293 0
      vertex 5.456630857229628 0.6893327846036734 0
      vertex 5.5 0 0
    endloop
  endfacet
  facet normal 0 0 1
    outer loop
      vertex 6.386689373476086 -13.572405786990293 0
      vertex 8.037401924684943 -12.66491888253023 0
      vertex 6.386689373476091 13.572405786990291 0
    endloop
  endfacet
  facet normal 0.5877852522924728 -0.8090169943749477 0
    outer loop
      vertex 8.037401924684943 -12.66491888253023 -3
      vertex 9.56135984623035 -11.557698641636836 0
      vertex 8.037401924684943 -12.66491888253023 0
    endloop
  endfacet
  facet normal 0.684547105928689 -0.7289686274214113 0
    outer loop
      vertex 9.56135984623035 -11.557698641636836 -3
      vertex 10.934529411321176 -10.268206588930328 0
      vertex 9.56135984623035 -11.557698641636836 0
    endloop
  endfacet
  facet normal 0.7705132427757891 -0.6374239897486899 0
    outer loop
      vertex 12.135254915624213 -8.816778784387097 -3
      vertex 12.135254915624213 -8.816778784387097 0
      vertex 10.934529411321176 -10.268206588930328 0
    endloop
  endfacet
  facet normal 0.8443279255020157 -0.5358267949789955 0
    outer loop
      vertex 13.144600200657951 -7.226305111525731 -3
      vertex 13.144600200657951 -7.226305111525731 0
      vertex 12.135254915624213 -8.816778784387097 0
    endloop
  endfacet
  facet normal 0.904827052466019 -0.4257792915650737 0
    outer loop
      vertex 13.946647288323769 -5.5218682902701755 -3
      vertex 13.946647288323769 -5.5218682902701755 0
      vertex 13.144600200657951 -7.226305111525731 0
    endloop
  endfacet
  facet normal 0.9510565162951536 -0.30901699437494723 0
    outer loop
      vertex 14.528747416929468 -3.7303483074728163 -3
      vertex 14.528747416929468 -3.7303483074728163 0
      vertex 13.946647288323769 -5.5218682902701755 0
    endloop
  endfacet
  facet normal 0.9822872507286887 -0.18738131458572485 0
    outer loop
      vertex 14.881720519717168 -1.879998503464561 -3
      vertex 14.881720519717168 -1.879998503464561 0
      vertex 14.528747416929468 -3.7303483074728163 0
    endloop
  endfacet
  facet normal 0.9980267284282716 -0.06279051952931293 0
    outer loop
      vertex 14.881720519717168 -1.879998503464561 0
      vertex 15 0 -3
      vertex 15 0 0
    endloop
  endfacet
  facet normal 0 0 1
    outer loop
      vertex 8.037401924684943 -12.66491888253023 0
      vertex 9.56135984623035 -11.557698641636836 0
      vertex 8.03740192468495 12.664918882530227 0
    endloop
  endfacet
  facet normal 0 0 1
    outer loop
      vertex 9.56135984623035 -11.557698641636836 0
      vertex 10.934529411321176 -10.268206588930328 0
      vertex 9.561359846230346 11.557698641636836 0
    endloop
  endfacet
  facet normal 0 0 1
    outer loop
      vertex 10.934529411321176 -10.268206588930328 0
      vertex 12.135254915624213 -8.816778784387097 0
      vertex 10.934529411321174 10.268206588930331 0
    endloop
  endfacet
  facet normal 0 0 1
    outer loop
      vertex 12.135254915624213 -8.816778784387097 0
      vertex 13.144600200657951 -7.226305111525731 0
      vertex 12.135254915624213 8.816778784387097 0
    endloop
  endfacet
  facet normal 0 0 1
    outer loop
      vertex 13.144600200657951 -7.226305111525731 0
      vertex 13.946647288323769 -5.5218682902701755 0
      vertex 13.144600200657953 7.22630511152573 0
    endloop
  endfacet
  facet normal 0 0 1
    outer loop
      vertex 13.946647288323769 -5.5218682902701755 0
      vertex 14.528747416929468 -3.7303483074728163 0
      vertex 13.94664728832377 5.521868290270169 0
    endloop
  endfacet
  facet normal 0 0 1
    outer loop
      vertex 14.528747416929468 -3.7303483074728163 0
      vertex 14.881720519717168 -1.879998503464561 0
      vertex 14.528747416929466 3.730348307472822 0
    endloop
  endfacet
  facet normal 0 0 -1
    outer loop
      vertex 0.9418577929396992 14.970400926424073 -3
      vertex 0.662526790856669 3.473087065076435 -3
      vertex 0.2220093369072122 3.528737361228532 -3
    endloop
  endfacet
  facet normal 0 0 -1
    outer loop
      vertex 2.810719718785869 14.73430876093033 -3
      vertex 1.0925958015399926 3.3626641111864353 -3
      vertex 0.662526790856669 3.473087065076435 -3
    endloop
  endfacet
  facet normal 0 0 -1
    outer loop
      vertex 2.810719718785869 14.73430876093033 -3
      vertex 1.5054339237479357 3.1992099355048547 -3
      vertex 1.0925958015399926 3.3626641111864353 -3
    endloop
  endfacet
  facet normal 0 0 -1
    outer loop
      vertex 2.810719718785869 14.73430876093033 -3
      vertex 1.8945304536757384 2.985302308024982 -3
      vertex 1.5054339237479357 3.1992099355048547 -3
    endloop
  endfacet
  facet normal 0 0 -1
    outer loop
      vertex 2.810719718785869 14.73430876093033 -3
      vertex 2.253749106611439 2.724314679814397 -3
      vertex 1.8945304536757384 2.985302308024982 -3
    endloop
  endfacet
  facet normal 0 0 -1
    outer loop
      vertex 2.810719718785869 14.73430876093033 -3
      vertex 2.5774247898114195 2.420362981676435 -3
      vertex 2.253749106611439 2.724314679814397 -3
    endloop
  endfacet
  facet normal 0 0 -1
    outer loop
      vertex 4.635254915624211 14.265847744427303 -3
      vertex 3.2874240036763176 1.3015832398493972 -3
      vertex 3.0983700472979465 1.7033433477167792 -3
    endloop
  endfacet
  facet normal 0 0 -1
    outer loop
      vertex 4.635254915624211 14.265847744427303 -3
      vertex 3.0983700472979465 1.7033433477167792 -3
      vertex 2.8604529443971356 2.0782407134626726 -3
    endloop
  endfacet
  facet normal 0 0 -1
    outer loop
      vertex 4.635254915624211 14.265847744427303 -3
      vertex 2.8604529443971356 2.0782407134626726 -3
      vertex 2.5774247898114195 2.420362981676435 -3
    endloop
  endfacet
  facet normal 0 0 -1
    outer loop
      vertex 4.635254915624211 14.265847744427303 -3
      vertex 3.5078341225047613 -0.4431425043880751 -3
      vertex 3.5357142857142856 0 -3
    endloop
  endfacet
  facet normal 0 0 -1
    outer loop
      vertex 4.635254915624211 14.265847744427303 -3
      vertex 3.5357142857142856 0 -3
      vertex 3.5078341225047613 0.4431425043880758 -3
    endloop
  endfacet
  facet normal 0 0 -1
    outer loop
      vertex 4.635254915624211 14.265847744427303 -3
      vertex 3.5078341225047613 0.4431425043880758 -3
      vertex 3.424633319704803 0.8792963867614509 -3
    endloop
  endfacet
  facet normal 0 0 -1
    outer loop
      vertex 4.635254915624211 14.265847744427303 -3
      vertex 3.424633319704803 0.8792963867614509 -3
      vertex 3.2874240036763176 1.3015832398493972 -3
    endloop
  endfacet
  facet normal 0 0 -1
    outer loop
      vertex 4.635254915624211 -14.265847744427303 -3
      vertex 4.635254915624211 14.265847744427303 -3
      vertex 6.386689373476091 13.572405786990291 -3
    endloop
  endfacet
  facet normal 0 0 -1
    outer loop
      vertex 6.386689373476086 -13.572405786990293 -3
      vertex 6.386689373476091 13.572405786990291 -3
      vertex 8.03740192468495 12.664918882530227 -3
    endloop
  endfacet
  facet normal 0 0 -1
    outer loop
      vertex -0.9418577929396992 14.970400926424073 -3
      vertex 0.9418577929396992 14.970400926424073 -3
      vertex 0.2220093369072122 3.528737361228532 -3
    endloop
  endfacet
  facet normal 0 0 -1
    outer loop
      vertex 0.9418577929396992 14.970400926424073 -3
      vertex 2.810719718785869 14.73430876093033 -3
      vertex 0.662526790856669 3.473087065076435 -3
    endloop
  endfacet
  facet normal 0 0 -1
    outer loop
      vertex 2.810719718785869 14.73430876093033 -3
      vertex 4.635254915624211 14.265847744427303 -3
      vertex 2.5774247898114195 2.420362981676435 -3
    endloop
  endfacet
  facet normal 0.1253332335643038 0.9921147013144779 0
    outer loop
      vertex 0.9418577929396992 14.970400926424073 -3
      vertex 0.9418577929396992 14.970400926424073 0
      vertex 2.810719718785869 14.73430876093033 -3
    endloop
  endfacet
  facet normal 0.24868988716485538 0.968583161128631 0
    outer loop
      vertex 2.810719718785869 14.73430876093033 -3
      vertex 2.810719718785869 14.73430876093033 0
      vertex 4.635254915624211 14.265847744427303 -3
    endloop
  endfacet
  facet normal 0.36812455268467803 0.9297764858882512 0
    outer loop
      vertex 4.635254915624211 14.265847744427303 -3
      vertex 4.635254915624211 14.265847744427303 0
      vertex 6.386689373476091 13.572405786990291 -3
    endloop
  endfacet
  facet normal 0.4817536741017145 0.8763066800438641 0
    outer loop
      vertex 6.386689373476091 13.572405786990291 -3
      vertex 6.386689373476091 13.572405786990291 0
      vertex 8.03740192468495 12.664918882530227 -3
    endloop
  endfacet
  facet normal 0 0 -1
    outer loop
      vertex 9.56135984623035 -11.557698641636836 -3
      vertex 9.561359846230346 11.557698641636836 -3
      vertex 10.934529411321174 10.268206588930331 -3
    endloop
  endfacet
  facet normal 0 0 -1
    outer loop
      vertex 8.037401924684943 -12.66491888253023 -3
      vertex 8.03740192468495 12.664918882530227 -3
      vertex 9.561359846230346 11.557698641636836 -3
    endloop
  endfacet
  facet normal 0 0 -1
    outer loop
      vertex 10.934529411321176 -10.268206588930328 -3
      vertex 10.934529411321174 10.268206588930331 -3
      vertex 12.135254915624213 8.816778784387097 -3
    endloop
  endfacet
  facet normal 0 0 -1
    outer loop
      vertex 12.135254915624213 -8.816778784387097 -3
      vertex 12.135254915624213 8.816778784387097 -3
      vertex 13.144600200657953 7.22630511152573 -3
    endloop
  endfacet
  facet normal 0 0 -1
    outer loop
      vertex 13.144600200657951 -7.226305111525731 -3
      vertex 13.144600200657953 7.22630511152573 -3
      vertex 13.94664728832377 5.521868290270169 -3
    endloop
  endfacet
  facet normal 0 0 -1
    outer loop
      vertex 14.881720519717168 -1.879998503464561 -3
      vertex 14.881720519717168 1.8799985034645639 -3
      vertex 15 0 -3
    endloop
  endfacet
  facet normal 0 0 -1
    outer loop
      vertex 14.528747416929468 -3.7303483074728163 -3
      vertex 14.528747416929466 3.730348307472822 -3
      vertex 14.881720519717168 1.8799985034645639 -3
    endloop
  endfacet
  facet normal 0 0 -1
    outer loop
      vertex 13.946647288323769 -5.5218682902701755 -3
      vertex 13.94664728832377 5.521868290270169 -3
      vertex 14.528747416929466 3.730348307472822 -3
    endloop
  endfacet
  facet normal 0.9980267284282716 0.06279051952931283 0
    outer loop
      vertex 15 0 -3
      vertex 14.881720519717168 1.8799985034645639 -3
      vertex 15 0 0
    endloop
  endfacet
  facet normal 0.9822872507286885 0.1873813145857255 0
    outer loop
      vertex 14.881720519717168 1.8799985034645639 -3
      vertex 14.528747416929466 3.730348307472822 -3
      vertex 14.881720519717168 1.8799985034645639 0
    endloop
  endfacet
  facet normal 0.9510565162951536 0.30901699437494734 0
    outer loop
      vertex 14.528747416929466 3.730348307472822 -3
      vertex 13.94664728832377 5.521868290270169 -3
      vertex 14.528747416929466 3.730348307472822 0
    endloop
  endfacet
  facet normal 0.9048270524660196 0.42577929156507266 0
    outer loop
      vertex 13.94664728832377 5.521868290270169 -3
      vertex 13.144600200657953 7.22630511152573 -3
      vertex 13.94664728832377 5.521868290270169 0
    endloop
  endfacet
  facet normal 0.6845471059286875 0.7289686274214127 0
    outer loop
      vertex 10.934529411321174 10.268206588930331 -3
      vertex 9.561359846230346 11.557698641636836 -3
      vertex 9.561359846230346 11.557698641636836 0
    endloop
  endfacet
  facet normal 0.5877852522924742 0.8090169943749467 0
    outer loop
      vertex 8.03740192468495 12.664918882530227 -3
      vertex 8.03740192468495 12.664918882530227 0
      vertex 9.561359846230346 11.557698641636836 -3
    endloop
  endfacet
  facet normal 0.7705132427757895 0.6374239897486894 0
    outer loop
      vertex 10.934529411321174 10.268206588930331 -3
      vertex 12.135254915624213 8.816778784387097 0
      vertex 12.135254915624213 8.816778784387097 -3
    endloop
  endfacet
  facet normal 0.8443279255020154 0.535826794978996 0
    outer loop
      vertex 13.144600200657953 7.22630511152573 -3
      vertex 12.135254915624213 8.816778784387097 -3
      vertex 13.144600200657953 7.22630511152573 0
    endloop
  endfacet
  facet normal 0 0 1
    outer loop
      vertex 6.386689373476086 -13.572405786990293 0
      vertex 4.635254915624211 14.265847744427303 0
      vertex 5.456630857229628 0.6893327846036734 0
    endloop
  endfacet
  facet normal 0 0 1
    outer loop
      vertex 4.635254915624211 14.265847744427303 0
      vertex 5.327207386207471 1.3677943794067013 0
      vertex 5.456630857229628 0.6893327846036734 0
    endloop
  endfacet
  facet normal 0 0 1
    outer loop
      vertex 4.635254915624211 14.265847744427303 0
      vertex 3.5058319436177934 4.23782283526684 0
      vertex 4.009327450817763 3.765009082607788 0
    endloop
  endfacet
  facet normal 0 0 1
    outer loop
      vertex 4.635254915624211 14.265847744427303 0
      vertex 4.449593469062211 3.232818887608602 0
      vertex 4.8196867402412495 2.649645207559434 0
    endloop
  endfacet
  facet normal 0 0 1
    outer loop
      vertex 4.635254915624211 14.265847744427303 0
      vertex 4.009327450817763 3.765009082607788 0
      vertex 4.449593469062211 3.232818887608602 0
    endloop
  endfacet
  facet normal 0 0 1
    outer loop
      vertex 4.635254915624211 14.265847744427303 0
      vertex 5.113770672385383 2.0246850397657288 0
      vertex 5.327207386207471 1.3677943794067013 0
    endloop
  endfacet
  facet normal 0 0 1
    outer loop
      vertex 4.635254915624211 14.265847744427303 0
      vertex 4.8196867402412495 2.649645207559434 0
      vertex 5.113770672385383 2.0246850397657288 0
    endloop
  endfacet
  facet normal 0 0 1
    outer loop
      vertex 6.386689373476086 -13.572405786990293 0
      vertex 6.386689373476091 13.572405786990291 0
      vertex 4.635254915624211 14.265847744427303 0
    endloop
  endfacet
  facet normal 0 0 1
    outer loop
      vertex 8.037401924684943 -12.66491888253023 0
      vertex 8.03740192468495 12.664918882530227 0
      vertex 6.386689373476091 13.572405786990291 0
    endloop
  endfacet
  facet normal 0 1 0
    outer loop
      vertex -0.9418577929396992 14.970400926424073 0
      vertex 0.9418577929396992 14.970400926424073 0
      vertex 0.9418577929396992 14.970400926424073 -3
    endloop
  endfacet
  facet normal 0.1253332335643038 0.9921147013144779 0
    outer loop
      vertex 2.810719718785869 14.73430876093033 -3
      vertex 0.9418577929396992 14.970400926424073 0
      vertex 2.810719718785869 14.73430876093033 0
    endloop
  endfacet
  facet normal 0.24868988716485538 0.968583161128631 0
    outer loop
      vertex 4.635254915624211 14.265847744427303 -3
      vertex 2.810719718785869 14.73430876093033 0
      vertex 4.635254915624211 14.265847744427303 0
    endloop
  endfacet
  facet normal 0.4817536741017145 0.8763066800438641 0
    outer loop
      vertex 8.03740192468495 12.664918882530227 -3
      vertex 6.386689373476091 13.572405786990291 0
      vertex 8.03740192468495 12.664918882530227 0
    endloop
  endfacet
  facet normal 0.36812455268467803 0.9297764858882512 0
    outer loop
      vertex 6.386689373476091 13.572405786990291 -3
      vertex 4.635254915624211 14.265847744427303 0
      vertex 6.386689373476091 13.572405786990291 0
    endloop
  endfacet
  facet normal 0 0 1
    outer loop
      vertex 0.9418577929396992 14.970400926424073 0
      vertex -0.34534785741122087 5.489147006355494 0
      vertex 0.34534785741122304 5.489147006355494 0
    endloop
  endfacet
  facet normal 0 0 1
    outer loop
      vertex 0.9418577929396992 14.970400926424073 0
      vertex 0.34534785741122304 5.489147006355494 0
      vertex 1.0305972302214852 5.402579879007788 0
    endloop
  endfacet
  facet normal 0 0 1
    outer loop
      vertex 0.9418577929396992 14.970400926424073 0
      vertex 1.0305972302214852 5.402579879007788 0
      vertex 1.6995934690622108 5.230810839623344 0
    endloop
  endfacet
  facet normal 0 0 1
    outer loop
      vertex 2.810719718785869 14.73430876093033 0
      vertex 1.6995934690622108 5.230810839623344 0
      vertex 2.3417861036079 4.9765487885631075 0
    endloop
  endfacet
  facet normal 0 0 1
    outer loop
      vertex 2.810719718785869 14.73430876093033 0
      vertex 2.3417861036079 4.9765487885631075 0
      vertex 2.9470473723844814 4.643803590261083 0
    endloop
  endfacet
  facet normal 0 0 1
    outer loop
      vertex 2.810719718785869 14.73430876093033 0
      vertex 2.9470473723844814 4.643803590261083 0
      vertex 3.5058319436177934 4.23782283526684 0
    endloop
  endfacet
  facet normal 0 0 1
    outer loop
      vertex 2.810719718785869 14.73430876093033 0
      vertex 3.5058319436177934 4.23782283526684 0
      vertex 4.635254915624211 14.265847744427303 0
    endloop
  endfacet
  facet normal 0 0 1
    outer loop
      vertex 0.9418577929396992 14.970400926424073 0
      vertex 1.6995934690622108 5.230810839623344 0
      vertex 2.810719718785869 14.73430876093033 0
    endloop
  endfacet
  facet normal 0.9980267284282716 0.06279051952931283 0
    outer loop
      vertex 14.881720519717168 1.8799985034645639 -3
      vertex 14.881720519717168 1.8799985034645639 0
      vertex 15 0 0
    endloop
  endfacet
  facet normal 0.9822872507286885 0.1873813145857255 0
    outer loop
      vertex 14.528747416929466 3.730348307472822 -3
      vertex 14.528747416929466 3.730348307472822 0
      vertex 14.881720519717168 1.8799985034645639 0
    endloop
  endfacet
  facet normal 0.9510565162951536 0.30901699437494734 0
    outer loop
      vertex 13.94664728832377 5.521868290270169 -3
      vertex 13.94664728832377 5.521868290270169 0
      vertex 14.528747416929466 3.730348307472822 0
    endloop
  endfacet
  facet normal 0.9048270524660196 0.42577929156507266 0
    outer loop
      vertex 13.144600200657953 7.22630511152573 -3
      vertex 13.144600200657953 7.22630511152573 0
      vertex 13.94664728832377 5.521868290270169 0
    endloop
  endfacet
  facet normal 0 0 1
    outer loop
      vertex 9.56135984623035 -11.557698641636836 0
      vertex 9.561359846230346 11.557698641636836 0
      vertex 8.03740192468495 12.664918882530227 0
    endloop
  endfacet
  facet normal 0 0 1
    outer loop
      vertex 10.934529411321176 -10.268206588930328 0
      vertex 10.934529411321174 10.268206588930331 0
      vertex 9.561359846230346 11.557698641636836 0
    endloop
  endfacet
  facet normal 0 0 1
    outer loop
      vertex 12.135254915624213 -8.816778784387097 0
      vertex 12.135254915624213 8.816778784387097 0
      vertex 10.934529411321174 10.268206588930331 0
    endloop
  endfacet
  facet normal 0 0 1
    outer loop
      vertex 13.144600200657951 -7.226305111525731 0
      vertex 13.144600200657953 7.22630511152573 0
      vertex 12.135254915624213 8.816778784387097 0
    endloop
  endfacet
  facet normal 0 0 1
    outer loop
      vertex 14.881720519717168 -1.879998503464561 0
      vertex 15 0 0
      vertex 14.881720519717168 1.8799985034645639 0
    endloop
  endfacet
  facet normal 0 0 1
    outer loop
      vertex 14.528747416929468 -3.7303483074728163 0
      vertex 14.528747416929466 3.730348307472822 0
      vertex 13.94664728832377 5.521868290270169 0
    endloop
  endfacet
  facet normal 0 0 1
    outer loop
      vertex 14.881720519717168 -1.879998503464561 0
      vertex 14.881720519717168 1.8799985034645639 0
      vertex 14.528747416929466 3.730348307472822 0
    endloop
  endfacet
  facet normal 0 0 1
    outer loop
      vertex 13.946647288323769 -5.5218682902701755 0
      vertex 13.94664728832377 5.521868290270169 0
      vertex 13.144600200657953 7.22630511152573 0
    endloop
  endfacet
  facet normal 0.6845471059286875 0.7289686274214127 0
    outer loop
      vertex 10.934529411321174 10.268206588930331 -3
      vertex 9.561359846230346 11.557698641636836 0
      vertex 10.934529411321174 10.268206588930331 0
    endloop
  endfacet
  facet normal 0.5877852522924742 0.8090169943749467 0
    outer loop
      vertex 9.561359846230346 11.557698641636836 -3
      vertex 8.03740192468495 12.664918882530227 0
      vertex 9.561359846230346 11.557698641636836 0
    endloop
  endfacet
  facet normal 0.8443279255020154 0.535826794978996 0
    outer loop
      vertex 12.135254915624213 8.816778784387097 -3
      vertex 12.135254915624213 8.816778784387097 0
      vertex 13.144600200657953 7.22630511152573 0
    endloop
  endfacet
  facet normal 0.7705132427757895 0.6374239897486894 0
    outer loop
      vertex 10.934529411321174 10.268206588930331 -3
      vertex 10.934529411321174 10.268206588930331 0
      vertex 12.135254915624213 8.816778784387097 0
    endloop
  endfacet
endsolid OpenSCAD_Model
