solid OpenSCAD_Model
  facet normal 0 -1 0
    outer loop
      vertex -2.95712 5.12189 -4.5
      vertex 2.95712 5.12189 0
      vertex -2.95712 5.12189 0
    endloop
  endfacet
  facet normal 0 -1 -0
    outer loop
      vertex 2.95712 5.12189 0
      vertex -2.95712 5.12189 -4.5
      vertex 2.95712 5.12189 -4.5
    endloop
  endfacet
  facet normal 0.866025 -0.500001 0
    outer loop
      vertex -5.91425 0 0
      vertex -2.95712 5.12189 -4.5
      vertex -2.95712 5.12189 0
    endloop
  endfacet
  facet normal 0.866025 -0.500001 0
    outer loop
      vertex -2.95712 5.12189 -4.5
      vertex -5.91425 0 0
      vertex -5.91425 0 -4.5
    endloop
  endfacet
  facet normal 0 0 1
    outer loop
      vertex 5.91425 0 0
      vertex 6.25 0 0
      vertex 6.20072 0.783332 0
    endloop
  endfacet
  facet normal 0 0 1
    outer loop
      vertex 5.91425 0 0
      vertex 6.20072 0.783332 0
      vertex 6.05364 1.55431 0
    endloop
  endfacet
  facet normal 0 0 1
    outer loop
      vertex 6.25 0 0
      vertex 5.91425 0 0
      vertex 6.20072 -0.783332 0
    endloop
  endfacet
  facet normal 0 0 1
    outer loop
      vertex 6.20072 -0.783332 0
      vertex 5.91425 0 0
      vertex 6.05364 -1.55431 0
    endloop
  endfacet
  facet normal 0 0 1
    outer loop
      vertex 5.8111 2.30078 0
      vertex 5.91425 0 0
      vertex 6.05364 1.55431 0
    endloop
  endfacet
  facet normal 0 0 1
    outer loop
      vertex 5.47692 3.01096 0
      vertex 5.91425 0 0
      vertex 5.8111 2.30078 0
    endloop
  endfacet
  facet normal 0 0 1
    outer loop
      vertex 2.95712 5.12189 0
      vertex 5.47692 3.01096 0
      vertex 5.05636 3.67366 0
    endloop
  endfacet
  facet normal 0 0 1
    outer loop
      vertex 2.95712 5.12189 0
      vertex 5.05636 3.67366 0
      vertex 4.55605 4.27842 0
    endloop
  endfacet
  facet normal 0 0 1
    outer loop
      vertex 2.95712 5.12189 0
      vertex 4.55605 4.27842 0
      vertex 3.9839 4.81571 0
    endloop
  endfacet
  facet normal -0 0 1
    outer loop
      vertex 2.95712 5.12189 0
      vertex 3.9839 4.81571 0
      vertex 3.34892 5.27705 0
    endloop
  endfacet
  facet normal 0 0 1
    outer loop
      vertex 5.47692 3.01096 0
      vertex 2.95712 5.12189 0
      vertex 5.91425 0 0
    endloop
  endfacet
  facet normal 0 0 1
    outer loop
      vertex 2.66112 5.65517 0
      vertex 2.95712 5.12189 0
      vertex 3.34892 5.27705 0
    endloop
  endfacet
  facet normal 0 0 1
    outer loop
      vertex 1.93136 5.9441 0
      vertex 2.95712 5.12189 0
      vertex 2.66112 5.65517 0
    endloop
  endfacet
  facet normal 0 0 1
    outer loop
      vertex 1.17113 6.13929 0
      vertex 2.95712 5.12189 0
      vertex 1.93136 5.9441 0
    endloop
  endfacet
  facet normal 0 0 1
    outer loop
      vertex 0.39244 6.23767 0
      vertex 2.95712 5.12189 0
      vertex 1.17113 6.13929 0
    endloop
  endfacet
  facet normal -0 0 1
    outer loop
      vertex -0.39244 6.23767 0
      vertex 2.95712 5.12189 0
      vertex 0.39244 6.23767 0
    endloop
  endfacet
  facet normal 0 0 1
    outer loop
      vertex -2.95712 5.12189 0
      vertex -0.39244 6.23767 0
      vertex -1.17113 6.13929 0
    endloop
  endfacet
  facet normal 0 0 1
    outer loop
      vertex -2.95712 5.12189 0
      vertex -1.17113 6.13929 0
      vertex -1.93136 5.9441 0
    endloop
  endfacet
  facet normal 0 0 1
    outer loop
      vertex -2.95712 5.12189 0
      vertex -1.93136 5.9441 0
      vertex -2.66112 5.65517 0
    endloop
  endfacet
  facet normal 0 0 1
    outer loop
      vertex -0.39244 6.23767 0
      vertex -2.95712 5.12189 0
      vertex 2.95712 5.12189 0
    endloop
  endfacet
  facet normal -0 0 1
    outer loop
      vertex -3.34892 5.27705 0
      vertex -2.95712 5.12189 0
      vertex -2.66112 5.65517 0
    endloop
  endfacet
  facet normal 0 0 1
    outer loop
      vertex -3.9839 4.81571 0
      vertex -2.95712 5.12189 0
      vertex -3.34892 5.27705 0
    endloop
  endfacet
  facet normal 0 0 1
    outer loop
      vertex -4.55605 4.27842 0
      vertex -2.95712 5.12189 0
      vertex -3.9839 4.81571 0
    endloop
  endfacet
  facet normal 0 0 1
    outer loop
      vertex -5.05636 3.67366 0
      vertex -2.95712 5.12189 0
      vertex -4.55605 4.27842 0
    endloop
  endfacet
  facet normal 0 0 1
    outer loop
      vertex -5.47692 3.01096 0
      vertex -2.95712 5.12189 0
      vertex -5.05636 3.67366 0
    endloop
  endfacet
  facet normal 0 0 1
    outer loop
      vertex -5.91425 0 0
      vertex -5.47692 3.01096 0
      vertex -5.8111 2.30078 0
    endloop
  endfacet
  facet normal -0 0 1
    outer loop
      vertex -5.47692 3.01096 0
      vertex -5.91425 0 0
      vertex -2.95712 5.12189 0
    endloop
  endfacet
  facet normal 0 -0 1
    outer loop
      vertex -5.91425 0 0
      vertex -5.8111 2.30078 0
      vertex -6.05364 1.55431 0
    endloop
  endfacet
  facet normal 0 0 1
    outer loop
      vertex 5.91425 0 0
      vertex 5.8111 -2.30078 0
      vertex 6.05364 -1.55431 0
    endloop
  endfacet
  facet normal 0 0 1
    outer loop
      vertex 5.91425 0 0
      vertex 5.47692 -3.01096 0
      vertex 5.8111 -2.30078 0
    endloop
  endfacet
  facet normal 0 0 1
    outer loop
      vertex 2.95712 -5.12189 0
      vertex 5.47692 -3.01096 0
      vertex 5.91425 0 0
    endloop
  endfacet
  facet normal 0 0 1
    outer loop
      vertex 5.47692 -3.01096 0
      vertex 2.95712 -5.12189 0
      vertex 5.05636 -3.67366 0
    endloop
  endfacet
  facet normal 0 0 1
    outer loop
      vertex 5.05636 -3.67366 0
      vertex 2.95712 -5.12189 0
      vertex 4.55605 -4.27842 0
    endloop
  endfacet
  facet normal 0 0 1
    outer loop
      vertex 4.55605 -4.27842 0
      vertex 2.95712 -5.12189 0
      vertex 3.9839 -4.81571 0
    endloop
  endfacet
  facet normal 0 0 1
    outer loop
      vertex 3.9839 -4.81571 0
      vertex 2.95712 -5.12189 0
      vertex 3.34892 -5.27705 0
    endloop
  endfacet
  facet normal 0 0 1
    outer loop
      vertex 2.95712 -5.12189 0
      vertex 2.66112 -5.65517 0
      vertex 3.34892 -5.27705 0
    endloop
  endfacet
  facet normal 0 0 1
    outer loop
      vertex 2.95712 -5.12189 0
      vertex 1.93136 -5.9441 0
      vertex 2.66112 -5.65517 0
    endloop
  endfacet
  facet normal 0 0 1
    outer loop
      vertex 2.95712 -5.12189 0
      vertex 1.17113 -6.13929 0
      vertex 1.93136 -5.9441 0
    endloop
  endfacet
  facet normal 0 0 1
    outer loop
      vertex 2.95712 -5.12189 0
      vertex 0.39244 -6.23767 0
      vertex 1.17113 -6.13929 0
    endloop
  endfacet
  facet normal 0 0 1
    outer loop
      vertex 2.95712 -5.12189 0
      vertex -0.39244 -6.23767 0
      vertex 0.39244 -6.23767 0
    endloop
  endfacet
  facet normal -0 0 1
    outer loop
      vertex -2.95712 -5.12189 0
      vertex -0.39244 -6.23767 0
      vertex 2.95712 -5.12189 0
    endloop
  endfacet
  facet normal 0 0 1
    outer loop
      vertex -0.39244 -6.23767 0
      vertex -2.95712 -5.12189 0
      vertex -1.17113 -6.13929 0
    endloop
  endfacet
  facet normal 0 0 1
    outer loop
      vertex -1.17113 -6.13929 0
      vertex -2.95712 -5.12189 0
      vertex -1.93136 -5.9441 0
    endloop
  endfacet
  facet normal 0 0 1
    outer loop
      vertex -1.93136 -5.9441 0
      vertex -2.95712 -5.12189 0
      vertex -2.66112 -5.65517 0
    endloop
  endfacet
  facet normal 0 0 1
    outer loop
      vertex -2.95712 -5.12189 0
      vertex -3.34892 -5.27705 0
      vertex -2.66112 -5.65517 0
    endloop
  endfacet
  facet normal 0 0 1
    outer loop
      vertex -2.95712 -5.12189 0
      vertex -3.9839 -4.81571 0
      vertex -3.34892 -5.27705 0
    endloop
  endfacet
  facet normal 0 0 1
    outer loop
      vertex -2.95712 -5.12189 0
      vertex -4.55605 -4.27842 0
      vertex -3.9839 -4.81571 0
    endloop
  endfacet
  facet normal 0 0 1
    outer loop
      vertex -2.95712 -5.12189 0
      vertex -5.05636 -3.67366 0
      vertex -4.55605 -4.27842 0
    endloop
  endfacet
  facet normal 0 0 1
    outer loop
      vertex -2.95712 -5.12189 0
      vertex -5.47692 -3.01096 0
      vertex -5.05636 -3.67366 0
    endloop
  endfacet
  facet normal 0 0 1
    outer loop
      vertex -5.91425 0 0
      vertex -5.47692 -3.01096 0
      vertex -2.95712 -5.12189 0
    endloop
  endfacet
  facet normal 0 0 1
    outer loop
      vertex -5.47692 -3.01096 0
      vertex -5.91425 0 0
      vertex -5.8111 -2.30078 0
    endloop
  endfacet
  facet normal -0 0 1
    outer loop
      vertex -6.20072 0.783332 0
      vertex -5.91425 0 0
      vertex -6.05364 1.55431 0
    endloop
  endfacet
  facet normal 0 0 1
    outer loop
      vertex -5.91425 0 0
      vertex -6.05364 -1.55431 0
      vertex -5.8111 -2.30078 0
    endloop
  endfacet
  facet normal 0 0 1
    outer loop
      vertex -6.25 0 0
      vertex -5.91425 0 0
      vertex -6.20072 0.783332 0
    endloop
  endfacet
  facet normal 0 0 1
    outer loop
      vertex -5.91425 0 0
      vertex -6.20072 -0.783332 0
      vertex -6.05364 -1.55431 0
    endloop
  endfacet
  facet normal 0 0 1
    outer loop
      vertex -5.91425 0 0
      vertex -6.25 0 0
      vertex -6.20072 -0.783332 0
    endloop
  endfacet
  facet normal -0.866025 -0.500001 0
    outer loop
      vertex 5.91425 0 -4.5
      vertex 2.95712 5.12189 0
      vertex 2.95712 5.12189 -4.5
    endloop
  endfacet
  facet normal -0.866025 -0.500001 0
    outer loop
      vertex 2.95712 5.12189 0
      vertex 5.91425 0 -4.5
      vertex 5.91425 0 0
    endloop
  endfacet
  facet normal 0 1 -0
    outer loop
      vertex 2.95712 -5.12189 -4.5
      vertex -2.95712 -5.12189 0
      vertex 2.95712 -5.12189 0
    endloop
  endfacet
  facet normal 0 1 0
    outer loop
      vertex -2.95712 -5.12189 0
      vertex 2.95712 -5.12189 -4.5
      vertex -2.95712 -5.12189 -4.5
    endloop
  endfacet
  facet normal -0.866025 0.500001 0
    outer loop
      vertex 2.95712 -5.12189 -4.5
      vertex 5.91425 0 0
      vertex 5.91425 0 -4.5
    endloop
  endfacet
  facet normal -0.866025 0.500001 0
    outer loop
      vertex 5.91425 0 0
      vertex 2.95712 -5.12189 -4.5
      vertex 2.95712 -5.12189 0
    endloop
  endfacet
  facet normal 0.866025 0.500001 0
    outer loop
      vertex -2.95712 -5.12189 0
      vertex -5.91425 0 -4.5
      vertex -5.91425 0 0
    endloop
  endfacet
  facet normal 0.866025 0.500001 0
    outer loop
      vertex -5.91425 0 -4.5
      vertex -2.95712 -5.12189 0
      vertex -2.95712 -5.12189 -4.5
    endloop
  endfacet
  facet normal -0.998027 -0.0627866 0
    outer loop
      vertex 6.25 0 0
      vertex 6.20072 0.783332 3
      vertex 6.20072 0.783332 0
    endloop
  endfacet
  facet normal -0.998027 -0.0627866 0
    outer loop
      vertex 6.20072 0.783332 3
      vertex 6.25 0 0
      vertex 6.25 0 3
    endloop
  endfacet
  facet normal 0.998027 -0.0627866 0
    outer loop
      vertex -6.25 0 3
      vertex -6.20072 0.783332 0
      vertex -6.20072 0.783332 3
    endloop
  endfacet
  facet normal 0.998027 -0.0627866 0
    outer loop
      vertex -6.20072 0.783332 0
      vertex -6.25 0 3
      vertex -6.25 0 0
    endloop
  endfacet
  facet normal 0 -1 0
    outer loop
      vertex -0.39244 6.23767 0
      vertex 0.39244 6.23767 3
      vertex -0.39244 6.23767 3
    endloop
  endfacet
  facet normal 0 -1 -0
    outer loop
      vertex 0.39244 6.23767 3
      vertex -0.39244 6.23767 0
      vertex 0.39244 6.23767 0
    endloop
  endfacet
  facet normal 0 1 -0
    outer loop
      vertex 0.39244 -6.23767 0
      vertex -0.39244 -6.23767 3
      vertex 0.39244 -6.23767 3
    endloop
  endfacet
  facet normal 0 1 0
    outer loop
      vertex -0.39244 -6.23767 3
      vertex 0.39244 -6.23767 0
      vertex -0.39244 -6.23767 0
    endloop
  endfacet
  facet normal -0.684551 -0.728965 0
    outer loop
      vertex 3.9839 4.81571 0
      vertex 4.55605 4.27842 3
      vertex 3.9839 4.81571 3
    endloop
  endfacet
  facet normal -0.684551 -0.728965 -0
    outer loop
      vertex 4.55605 4.27842 3
      vertex 3.9839 4.81571 0
      vertex 4.55605 4.27842 0
    endloop
  endfacet
  facet normal 0.684551 -0.728965 0
    outer loop
      vertex -4.55605 4.27842 0
      vertex -3.9839 4.81571 3
      vertex -4.55605 4.27842 3
    endloop
  endfacet
  facet normal 0.684551 -0.728965 0
    outer loop
      vertex -3.9839 4.81571 3
      vertex -4.55605 4.27842 0
      vertex -3.9839 4.81571 0
    endloop
  endfacet
  facet normal 0.368122 -0.929778 0
    outer loop
      vertex -2.66112 5.65517 0
      vertex -1.93136 5.9441 3
      vertex -2.66112 5.65517 3
    endloop
  endfacet
  facet normal 0.368122 -0.929778 0
    outer loop
      vertex -1.93136 5.9441 3
      vertex -2.66112 5.65517 0
      vertex -1.93136 5.9441 0
    endloop
  endfacet
  facet normal -0.90483 -0.425774 0
    outer loop
      vertex 5.8111 2.30078 0
      vertex 5.47692 3.01096 3
      vertex 5.47692 3.01096 0
    endloop
  endfacet
  facet normal -0.90483 -0.425774 0
    outer loop
      vertex 5.47692 3.01096 3
      vertex 5.8111 2.30078 0
      vertex 5.8111 2.30078 3
    endloop
  endfacet
  facet normal -0.844329 -0.535825 0
    outer loop
      vertex 5.47692 3.01096 0
      vertex 5.05636 3.67366 3
      vertex 5.05636 3.67366 0
    endloop
  endfacet
  facet normal -0.844329 -0.535825 0
    outer loop
      vertex 5.05636 3.67366 3
      vertex 5.47692 3.01096 0
      vertex 5.47692 3.01096 3
    endloop
  endfacet
  facet normal -0.368122 -0.929778 0
    outer loop
      vertex 1.93136 5.9441 0
      vertex 2.66112 5.65517 3
      vertex 1.93136 5.9441 3
    endloop
  endfacet
  facet normal -0.368122 -0.929778 -0
    outer loop
      vertex 2.66112 5.65517 3
      vertex 1.93136 5.9441 0
      vertex 2.66112 5.65517 0
    endloop
  endfacet
  facet normal -0.248685 -0.968584 0
    outer loop
      vertex 1.17113 6.13929 0
      vertex 1.93136 5.9441 3
      vertex 1.17113 6.13929 3
    endloop
  endfacet
  facet normal -0.248685 -0.968584 -0
    outer loop
      vertex 1.93136 5.9441 3
      vertex 1.17113 6.13929 0
      vertex 1.93136 5.9441 0
    endloop
  endfacet
  facet normal -0.481752 -0.876307 0
    outer loop
      vertex 2.66112 5.65517 0
      vertex 3.34892 5.27705 3
      vertex 2.66112 5.65517 3
    endloop
  endfacet
  facet normal -0.481752 -0.876307 -0
    outer loop
      vertex 3.34892 5.27705 3
      vertex 2.66112 5.65517 0
      vertex 3.34892 5.27705 0
    endloop
  endfacet
  facet normal 0.844329 -0.535825 0
    outer loop
      vertex -5.47692 3.01096 3
      vertex -5.05636 3.67366 0
      vertex -5.05636 3.67366 3
    endloop
  endfacet
  facet normal 0.844329 -0.535825 0
    outer loop
      vertex -5.05636 3.67366 0
      vertex -5.47692 3.01096 3
      vertex -5.47692 3.01096 0
    endloop
  endfacet
  facet normal 0.770508 -0.637431 0
    outer loop
      vertex -5.05636 3.67366 3
      vertex -4.55605 4.27842 0
      vertex -4.55605 4.27842 3
    endloop
  endfacet
  facet normal 0.770508 -0.637431 0
    outer loop
      vertex -4.55605 4.27842 0
      vertex -5.05636 3.67366 3
      vertex -5.05636 3.67366 0
    endloop
  endfacet
  facet normal 0.951058 -0.309014 0
    outer loop
      vertex -6.05364 1.55431 3
      vertex -5.8111 2.30078 0
      vertex -5.8111 2.30078 3
    endloop
  endfacet
  facet normal 0.951058 -0.309014 0
    outer loop
      vertex -5.8111 2.30078 0
      vertex -6.05364 1.55431 3
      vertex -6.05364 1.55431 0
    endloop
  endfacet
  facet normal 0.481752 -0.876307 0
    outer loop
      vertex -3.34892 5.27705 0
      vertex -2.66112 5.65517 3
      vertex -3.34892 5.27705 3
    endloop
  endfacet
  facet normal 0.481752 -0.876307 0
    outer loop
      vertex -2.66112 5.65517 3
      vertex -3.34892 5.27705 0
      vertex -2.66112 5.65517 0
    endloop
  endfacet
  facet normal 0.125344 -0.992113 0
    outer loop
      vertex -1.17113 6.13929 0
      vertex -0.39244 6.23767 3
      vertex -1.17113 6.13929 3
    endloop
  endfacet
  facet normal 0.125344 -0.992113 0
    outer loop
      vertex -0.39244 6.23767 3
      vertex -1.17113 6.13929 0
      vertex -0.39244 6.23767 0
    endloop
  endfacet
  facet normal -0.125344 0.992113 0
    outer loop
      vertex 1.17113 -6.13929 0
      vertex 0.39244 -6.23767 3
      vertex 1.17113 -6.13929 3
    endloop
  endfacet
  facet normal -0.125344 0.992113 0
    outer loop
      vertex 0.39244 -6.23767 3
      vertex 1.17113 -6.13929 0
      vertex 0.39244 -6.23767 0
    endloop
  endfacet
  facet normal -0.951058 -0.309014 0
    outer loop
      vertex 6.05364 1.55431 0
      vertex 5.8111 2.30078 3
      vertex 5.8111 2.30078 0
    endloop
  endfacet
  facet normal -0.951058 -0.309014 0
    outer loop
      vertex 5.8111 2.30078 3
      vertex 6.05364 1.55431 0
      vertex 6.05364 1.55431 3
    endloop
  endfacet
  facet normal -0.982285 -0.187391 0
    outer loop
      vertex 6.20072 0.783332 0
      vertex 6.05364 1.55431 3
      vertex 6.05364 1.55431 0
    endloop
  endfacet
  facet normal -0.982285 -0.187391 0
    outer loop
      vertex 6.05364 1.55431 3
      vertex 6.20072 0.783332 0
      vertex 6.20072 0.783332 3
    endloop
  endfacet
  facet normal -0.770508 -0.637431 0
    outer loop
      vertex 5.05636 3.67366 0
      vertex 4.55605 4.27842 3
      vertex 4.55605 4.27842 0
    endloop
  endfacet
  facet normal -0.770508 -0.637431 0
    outer loop
      vertex 4.55605 4.27842 3
      vertex 5.05636 3.67366 0
      vertex 5.05636 3.67366 3
    endloop
  endfacet
  facet normal -0.125344 -0.992113 0
    outer loop
      vertex 0.39244 6.23767 0
      vertex 1.17113 6.13929 3
      vertex 0.39244 6.23767 3
    endloop
  endfacet
  facet normal -0.125344 -0.992113 -0
    outer loop
      vertex 1.17113 6.13929 3
      vertex 0.39244 6.23767 0
      vertex 1.17113 6.13929 0
    endloop
  endfacet
  facet normal -0.587785 -0.809017 0
    outer loop
      vertex 3.34892 5.27705 0
      vertex 3.9839 4.81571 3
      vertex 3.34892 5.27705 3
    endloop
  endfacet
  facet normal -0.587785 -0.809017 -0
    outer loop
      vertex 3.9839 4.81571 3
      vertex 3.34892 5.27705 0
      vertex 3.9839 4.81571 0
    endloop
  endfacet
  facet normal 0.90483 -0.425774 0
    outer loop
      vertex -5.8111 2.30078 3
      vertex -5.47692 3.01096 0
      vertex -5.47692 3.01096 3
    endloop
  endfacet
  facet normal 0.90483 -0.425774 0
    outer loop
      vertex -5.47692 3.01096 0
      vertex -5.8111 2.30078 3
      vertex -5.8111 2.30078 0
    endloop
  endfacet
  facet normal 0.982285 -0.187391 0
    outer loop
      vertex -6.20072 0.783332 3
      vertex -6.05364 1.55431 0
      vertex -6.05364 1.55431 3
    endloop
  endfacet
  facet normal 0.982285 -0.187391 0
    outer loop
      vertex -6.05364 1.55431 0
      vertex -6.20072 0.783332 3
      vertex -6.20072 0.783332 0
    endloop
  endfacet
  facet normal 0 0 1
    outer loop
      vertex 6.25 0 3
      vertex 22.5 0 3
      vertex 22.3226 2.82 3
    endloop
  endfacet
  facet normal 0 0 1
    outer loop
      vertex 6.20072 0.783332 3
      vertex 22.3226 2.82 3
      vertex 21.7931 5.59552 3
    endloop
  endfacet
  facet normal 0 0 1
    outer loop
      vertex 22.5 0 3
      vertex 6.25 0 3
      vertex 22.3226 -2.82 3
    endloop
  endfacet
  facet normal 0 0 1
    outer loop
      vertex 6.05364 1.55431 3
      vertex 21.7931 5.59552 3
      vertex 20.92 8.2828 3
    endloop
  endfacet
  facet normal -0 0 1
    outer loop
      vertex 6.20072 -0.783332 3
      vertex 22.3226 -2.82 3
      vertex 6.25 0 3
    endloop
  endfacet
  facet normal 0 0 1
    outer loop
      vertex 5.8111 2.30078 3
      vertex 20.92 8.2828 3
      vertex 19.7169 10.8395 3
    endloop
  endfacet
  facet normal 0 0 1
    outer loop
      vertex 22.3226 -2.82 3
      vertex 6.20072 -0.783332 3
      vertex 21.7931 -5.59552 3
    endloop
  endfacet
  facet normal 0 0 1
    outer loop
      vertex 5.47692 3.01096 3
      vertex 19.7169 10.8395 3
      vertex 18.2029 13.2252 3
    endloop
  endfacet
  facet normal -0 0 1
    outer loop
      vertex 6.05364 -1.55431 3
      vertex 21.7931 -5.59552 3
      vertex 6.20072 -0.783332 3
    endloop
  endfacet
  facet normal 0 0 1
    outer loop
      vertex 5.05636 3.67366 3
      vertex 18.2029 13.2252 3
      vertex 16.4018 15.4023 3
    endloop
  endfacet
  facet normal 0 0 1
    outer loop
      vertex 21.7931 -5.59552 3
      vertex 6.05364 -1.55431 3
      vertex 20.92 -8.2828 3
    endloop
  endfacet
  facet normal 0 0 1
    outer loop
      vertex 4.55605 4.27842 3
      vertex 16.4018 15.4023 3
      vertex 14.342 17.3365 3
    endloop
  endfacet
  facet normal -0 0 1
    outer loop
      vertex 5.8111 -2.30078 3
      vertex 20.92 -8.2828 3
      vertex 6.05364 -1.55431 3
    endloop
  endfacet
  facet normal 0 0 1
    outer loop
      vertex 3.9839 4.81571 3
      vertex 14.342 17.3365 3
      vertex 12.0561 18.9974 3
    endloop
  endfacet
  facet normal 0 0 1
    outer loop
      vertex 20.92 -8.2828 3
      vertex 5.8111 -2.30078 3
      vertex 19.7169 -10.8395 3
    endloop
  endfacet
  facet normal 0 0 1
    outer loop
      vertex 3.34892 5.27705 3
      vertex 12.0561 18.9974 3
      vertex 9.58003 20.3586 3
    endloop
  endfacet
  facet normal -0 0 1
    outer loop
      vertex 5.47692 -3.01096 3
      vertex 19.7169 -10.8395 3
      vertex 5.8111 -2.30078 3
    endloop
  endfacet
  facet normal 0 0 1
    outer loop
      vertex 2.66112 5.65517 3
      vertex 9.58003 20.3586 3
      vertex 6.95288 21.3988 3
    endloop
  endfacet
  facet normal 0 0 1
    outer loop
      vertex 19.7169 -10.8395 3
      vertex 5.47692 -3.01096 3
      vertex 18.2029 -13.2252 3
    endloop
  endfacet
  facet normal -0 0 1
    outer loop
      vertex 5.05636 -3.67366 3
      vertex 18.2029 -13.2252 3
      vertex 5.47692 -3.01096 3
    endloop
  endfacet
  facet normal 0 0 1
    outer loop
      vertex 22.3226 2.82 3
      vertex 6.20072 0.783332 3
      vertex 6.25 0 3
    endloop
  endfacet
  facet normal 0 0 1
    outer loop
      vertex 21.7931 5.59552 3
      vertex 6.05364 1.55431 3
      vertex 6.20072 0.783332 3
    endloop
  endfacet
  facet normal 0 0 1
    outer loop
      vertex 20.92 8.2828 3
      vertex 5.8111 2.30078 3
      vertex 6.05364 1.55431 3
    endloop
  endfacet
  facet normal 0 0 1
    outer loop
      vertex 19.7169 10.8395 3
      vertex 5.47692 3.01096 3
      vertex 5.8111 2.30078 3
    endloop
  endfacet
  facet normal 0 0 1
    outer loop
      vertex 18.2029 13.2252 3
      vertex 5.05636 3.67366 3
      vertex 5.47692 3.01096 3
    endloop
  endfacet
  facet normal 0 0 1
    outer loop
      vertex 16.4018 15.4023 3
      vertex 4.55605 4.27842 3
      vertex 5.05636 3.67366 3
    endloop
  endfacet
  facet normal 0 0 1
    outer loop
      vertex 1.93136 5.9441 3
      vertex 6.95288 21.3988 3
      vertex 4.21608 22.1015 3
    endloop
  endfacet
  facet normal 0 0 1
    outer loop
      vertex 14.342 17.3365 3
      vertex 3.9839 4.81571 3
      vertex 4.55605 4.27842 3
    endloop
  endfacet
  facet normal 0 0 1
    outer loop
      vertex 12.0561 18.9974 3
      vertex 3.34892 5.27705 3
      vertex 3.9839 4.81571 3
    endloop
  endfacet
  facet normal 0 0 1
    outer loop
      vertex 9.58003 20.3586 3
      vertex 2.66112 5.65517 3
      vertex 3.34892 5.27705 3
    endloop
  endfacet
  facet normal 0 0 1
    outer loop
      vertex 6.95288 21.3988 3
      vertex 1.93136 5.9441 3
      vertex 2.66112 5.65517 3
    endloop
  endfacet
  facet normal 0 0 1
    outer loop
      vertex 1.17113 6.13929 3
      vertex 4.21608 22.1015 3
      vertex 1.41279 22.4556 3
    endloop
  endfacet
  facet normal 0 0 1
    outer loop
      vertex 4.21608 22.1015 3
      vertex 1.17113 6.13929 3
      vertex 1.93136 5.9441 3
    endloop
  endfacet
  facet normal 0 0 1
    outer loop
      vertex 1.41279 22.4556 3
      vertex 0.39244 6.23767 3
      vertex 1.17113 6.13929 3
    endloop
  endfacet
  facet normal 0 0 1
    outer loop
      vertex 1.41279 22.4556 3
      vertex -0.39244 6.23767 3
      vertex 0.39244 6.23767 3
    endloop
  endfacet
  facet normal -0 0 1
    outer loop
      vertex -1.41279 22.4556 3
      vertex -0.39244 6.23767 3
      vertex 1.41279 22.4556 3
    endloop
  endfacet
  facet normal 0 0 1
    outer loop
      vertex -0.39244 6.23767 3
      vertex -1.41279 22.4556 3
      vertex -1.17113 6.13929 3
    endloop
  endfacet
  facet normal -0 0 1
    outer loop
      vertex -4.21608 22.1015 3
      vertex -1.17113 6.13929 3
      vertex -1.41279 22.4556 3
    endloop
  endfacet
  facet normal 0 0 1
    outer loop
      vertex -1.17113 6.13929 3
      vertex -4.21608 22.1015 3
      vertex -1.93136 5.9441 3
    endloop
  endfacet
  facet normal -0 0 1
    outer loop
      vertex -6.95288 21.3988 3
      vertex -1.93136 5.9441 3
      vertex -4.21608 22.1015 3
    endloop
  endfacet
  facet normal 0 0 1
    outer loop
      vertex -1.93136 5.9441 3
      vertex -6.95288 21.3988 3
      vertex -2.66112 5.65517 3
    endloop
  endfacet
  facet normal -0 0 1
    outer loop
      vertex -9.58003 20.3586 3
      vertex -2.66112 5.65517 3
      vertex -6.95288 21.3988 3
    endloop
  endfacet
  facet normal 0 0 1
    outer loop
      vertex -2.66112 5.65517 3
      vertex -9.58003 20.3586 3
      vertex -3.34892 5.27705 3
    endloop
  endfacet
  facet normal -0 0 1
    outer loop
      vertex -12.0561 18.9974 3
      vertex -3.34892 5.27705 3
      vertex -9.58003 20.3586 3
    endloop
  endfacet
  facet normal 0 0 1
    outer loop
      vertex -3.34892 5.27705 3
      vertex -12.0561 18.9974 3
      vertex -3.9839 4.81571 3
    endloop
  endfacet
  facet normal -0 0 1
    outer loop
      vertex -14.342 17.3365 3
      vertex -3.9839 4.81571 3
      vertex -12.0561 18.9974 3
    endloop
  endfacet
  facet normal 0 0 1
    outer loop
      vertex -3.9839 4.81571 3
      vertex -14.342 17.3365 3
      vertex -4.55605 4.27842 3
    endloop
  endfacet
  facet normal -0 0 1
    outer loop
      vertex -16.4018 15.4023 3
      vertex -4.55605 4.27842 3
      vertex -14.342 17.3365 3
    endloop
  endfacet
  facet normal -0 0 1
    outer loop
      vertex -18.2029 13.2252 3
      vertex -5.05636 3.67366 3
      vertex -16.4018 15.4023 3
    endloop
  endfacet
  facet normal 0 0 1
    outer loop
      vertex -4.55605 4.27842 3
      vertex -16.4018 15.4023 3
      vertex -5.05636 3.67366 3
    endloop
  endfacet
  facet normal 0 0 1
    outer loop
      vertex 18.2029 -13.2252 3
      vertex 5.05636 -3.67366 3
      vertex 16.4018 -15.4023 3
    endloop
  endfacet
  facet normal -0 0 1
    outer loop
      vertex 4.55605 -4.27842 3
      vertex 16.4018 -15.4023 3
      vertex 5.05636 -3.67366 3
    endloop
  endfacet
  facet normal 0 0 1
    outer loop
      vertex 16.4018 -15.4023 3
      vertex 4.55605 -4.27842 3
      vertex 14.342 -17.3365 3
    endloop
  endfacet
  facet normal -0 0 1
    outer loop
      vertex 3.9839 -4.81571 3
      vertex 14.342 -17.3365 3
      vertex 4.55605 -4.27842 3
    endloop
  endfacet
  facet normal 0 0 1
    outer loop
      vertex 14.342 -17.3365 3
      vertex 3.9839 -4.81571 3
      vertex 12.0561 -18.9974 3
    endloop
  endfacet
  facet normal -0 0 1
    outer loop
      vertex 3.34892 -5.27705 3
      vertex 12.0561 -18.9974 3
      vertex 3.9839 -4.81571 3
    endloop
  endfacet
  facet normal 0 0 1
    outer loop
      vertex 12.0561 -18.9974 3
      vertex 3.34892 -5.27705 3
      vertex 9.58003 -20.3586 3
    endloop
  endfacet
  facet normal -0 0 1
    outer loop
      vertex 2.66112 -5.65517 3
      vertex 9.58003 -20.3586 3
      vertex 3.34892 -5.27705 3
    endloop
  endfacet
  facet normal 0 0 1
    outer loop
      vertex 9.58003 -20.3586 3
      vertex 2.66112 -5.65517 3
      vertex 6.95288 -21.3988 3
    endloop
  endfacet
  facet normal -0 0 1
    outer loop
      vertex 1.93136 -5.9441 3
      vertex 6.95288 -21.3988 3
      vertex 2.66112 -5.65517 3
    endloop
  endfacet
  facet normal 0 0 1
    outer loop
      vertex 6.95288 -21.3988 3
      vertex 1.93136 -5.9441 3
      vertex 4.21608 -22.1015 3
    endloop
  endfacet
  facet normal -0 0 1
    outer loop
      vertex 1.17113 -6.13929 3
      vertex 4.21608 -22.1015 3
      vertex 1.93136 -5.9441 3
    endloop
  endfacet
  facet normal 0 0 1
    outer loop
      vertex 4.21608 -22.1015 3
      vertex 1.17113 -6.13929 3
      vertex 1.41279 -22.4556 3
    endloop
  endfacet
  facet normal -0 0 1
    outer loop
      vertex 0.39244 -6.23767 3
      vertex 1.41279 -22.4556 3
      vertex 1.17113 -6.13929 3
    endloop
  endfacet
  facet normal -0 0 1
    outer loop
      vertex -0.39244 -6.23767 3
      vertex 1.41279 -22.4556 3
      vertex 0.39244 -6.23767 3
    endloop
  endfacet
  facet normal 0 0 1
    outer loop
      vertex -1.41279 -22.4556 3
      vertex -0.39244 -6.23767 3
      vertex -1.17113 -6.13929 3
    endloop
  endfacet
  facet normal 0 0 1
    outer loop
      vertex -0.39244 -6.23767 3
      vertex -1.41279 -22.4556 3
      vertex 1.41279 -22.4556 3
    endloop
  endfacet
  facet normal 0 0 1
    outer loop
      vertex -4.21608 -22.1015 3
      vertex -1.17113 -6.13929 3
      vertex -1.93136 -5.9441 3
    endloop
  endfacet
  facet normal 0 0 1
    outer loop
      vertex -6.95288 -21.3988 3
      vertex -1.93136 -5.9441 3
      vertex -2.66112 -5.65517 3
    endloop
  endfacet
  facet normal 0 0 1
    outer loop
      vertex -9.58003 -20.3586 3
      vertex -2.66112 -5.65517 3
      vertex -3.34892 -5.27705 3
    endloop
  endfacet
  facet normal 0 0 1
    outer loop
      vertex -12.0561 -18.9974 3
      vertex -3.34892 -5.27705 3
      vertex -3.9839 -4.81571 3
    endloop
  endfacet
  facet normal 0 0 1
    outer loop
      vertex -1.17113 -6.13929 3
      vertex -4.21608 -22.1015 3
      vertex -1.41279 -22.4556 3
    endloop
  endfacet
  facet normal 0 0 1
    outer loop
      vertex -14.342 -17.3365 3
      vertex -3.9839 -4.81571 3
      vertex -4.55605 -4.27842 3
    endloop
  endfacet
  facet normal 0 0 1
    outer loop
      vertex -16.4018 -15.4023 3
      vertex -4.55605 -4.27842 3
      vertex -5.05636 -3.67366 3
    endloop
  endfacet
  facet normal 0 0 1
    outer loop
      vertex -18.2029 -13.2252 3
      vertex -5.05636 -3.67366 3
      vertex -5.47692 -3.01096 3
    endloop
  endfacet
  facet normal 0 0 1
    outer loop
      vertex -19.7169 -10.8395 3
      vertex -5.47692 -3.01096 3
      vertex -5.8111 -2.30078 3
    endloop
  endfacet
  facet normal 0 0 1
    outer loop
      vertex -20.92 -8.2828 3
      vertex -5.8111 -2.30078 3
      vertex -6.05364 -1.55431 3
    endloop
  endfacet
  facet normal 0 0 1
    outer loop
      vertex -21.7931 -5.59552 3
      vertex -6.05364 -1.55431 3
      vertex -6.20072 -0.783332 3
    endloop
  endfacet
  facet normal 0 0 1
    outer loop
      vertex -1.93136 -5.9441 3
      vertex -6.95288 -21.3988 3
      vertex -4.21608 -22.1015 3
    endloop
  endfacet
  facet normal 0 0 1
    outer loop
      vertex -22.3226 -2.82 3
      vertex -6.20072 -0.783332 3
      vertex -6.25 0 3
    endloop
  endfacet
  facet normal 0 0 1
    outer loop
      vertex -5.05636 3.67366 3
      vertex -18.2029 13.2252 3
      vertex -5.47692 3.01096 3
    endloop
  endfacet
  facet normal -0 0 1
    outer loop
      vertex -19.7169 10.8395 3
      vertex -5.47692 3.01096 3
      vertex -18.2029 13.2252 3
    endloop
  endfacet
  facet normal 0 0 1
    outer loop
      vertex -2.66112 -5.65517 3
      vertex -9.58003 -20.3586 3
      vertex -6.95288 -21.3988 3
    endloop
  endfacet
  facet normal 0 0 1
    outer loop
      vertex -5.47692 3.01096 3
      vertex -19.7169 10.8395 3
      vertex -5.8111 2.30078 3
    endloop
  endfacet
  facet normal 0 0 1
    outer loop
      vertex -3.34892 -5.27705 3
      vertex -12.0561 -18.9974 3
      vertex -9.58003 -20.3586 3
    endloop
  endfacet
  facet normal -0 0 1
    outer loop
      vertex -20.92 8.2828 3
      vertex -5.8111 2.30078 3
      vertex -19.7169 10.8395 3
    endloop
  endfacet
  facet normal 0 0 1
    outer loop
      vertex -3.9839 -4.81571 3
      vertex -14.342 -17.3365 3
      vertex -12.0561 -18.9974 3
    endloop
  endfacet
  facet normal 0 0 1
    outer loop
      vertex -5.8111 2.30078 3
      vertex -20.92 8.2828 3
      vertex -6.05364 1.55431 3
    endloop
  endfacet
  facet normal 0 0 1
    outer loop
      vertex -4.55605 -4.27842 3
      vertex -16.4018 -15.4023 3
      vertex -14.342 -17.3365 3
    endloop
  endfacet
  facet normal -0 0 1
    outer loop
      vertex -21.7931 5.59552 3
      vertex -6.05364 1.55431 3
      vertex -20.92 8.2828 3
    endloop
  endfacet
  facet normal 0 0 1
    outer loop
      vertex -5.05636 -3.67366 3
      vertex -18.2029 -13.2252 3
      vertex -16.4018 -15.4023 3
    endloop
  endfacet
  facet normal 0 0 1
    outer loop
      vertex -6.05364 1.55431 3
      vertex -21.7931 5.59552 3
      vertex -6.20072 0.783332 3
    endloop
  endfacet
  facet normal 0 0 1
    outer loop
      vertex -5.47692 -3.01096 3
      vertex -19.7169 -10.8395 3
      vertex -18.2029 -13.2252 3
    endloop
  endfacet
  facet normal -0 0 1
    outer loop
      vertex -22.3226 2.82 3
      vertex -6.20072 0.783332 3
      vertex -21.7931 5.59552 3
    endloop
  endfacet
  facet normal 0 0 1
    outer loop
      vertex -5.8111 -2.30078 3
      vertex -20.92 -8.2828 3
      vertex -19.7169 -10.8395 3
    endloop
  endfacet
  facet normal 0 0 1
    outer loop
      vertex -6.20072 0.783332 3
      vertex -22.3226 2.82 3
      vertex -6.25 0 3
    endloop
  endfacet
  facet normal 0 0 1
    outer loop
      vertex -6.05364 -1.55431 3
      vertex -21.7931 -5.59552 3
      vertex -20.92 -8.2828 3
    endloop
  endfacet
  facet normal 0 0 1
    outer loop
      vertex -22.5 0 3
      vertex -6.25 0 3
      vertex -22.3226 2.82 3
    endloop
  endfacet
  facet normal 0 0 1
    outer loop
      vertex -6.20072 -0.783332 3
      vertex -22.3226 -2.82 3
      vertex -21.7931 -5.59552 3
    endloop
  endfacet
  facet normal 0 0 1
    outer loop
      vertex -6.25 0 3
      vertex -22.5 0 3
      vertex -22.3226 -2.82 3
    endloop
  endfacet
  facet normal -0.998027 0.0627866 0
    outer loop
      vertex 6.20072 -0.783332 0
      vertex 6.25 0 3
      vertex 6.25 0 0
    endloop
  endfacet
  facet normal -0.998027 0.0627866 0
    outer loop
      vertex 6.25 0 3
      vertex 6.20072 -0.783332 0
      vertex 6.20072 -0.783332 3
    endloop
  endfacet
  facet normal -0.770508 0.637431 0
    outer loop
      vertex 4.55605 -4.27842 0
      vertex 5.05636 -3.67366 3
      vertex 5.05636 -3.67366 0
    endloop
  endfacet
  facet normal -0.770508 0.637431 0
    outer loop
      vertex 5.05636 -3.67366 3
      vertex 4.55605 -4.27842 0
      vertex 4.55605 -4.27842 3
    endloop
  endfacet
  facet normal -0.951058 0.309014 0
    outer loop
      vertex 5.8111 -2.30078 0
      vertex 6.05364 -1.55431 3
      vertex 6.05364 -1.55431 0
    endloop
  endfacet
  facet normal -0.951058 0.309014 0
    outer loop
      vertex 6.05364 -1.55431 3
      vertex 5.8111 -2.30078 0
      vertex 5.8111 -2.30078 3
    endloop
  endfacet
  facet normal -0.982285 0.187391 0
    outer loop
      vertex 6.05364 -1.55431 0
      vertex 6.20072 -0.783332 3
      vertex 6.20072 -0.783332 0
    endloop
  endfacet
  facet normal -0.982285 0.187391 0
    outer loop
      vertex 6.20072 -0.783332 3
      vertex 6.05364 -1.55431 0
      vertex 6.05364 -1.55431 3
    endloop
  endfacet
  facet normal -0.368122 0.929778 0
    outer loop
      vertex 2.66112 -5.65517 0
      vertex 1.93136 -5.9441 3
      vertex 2.66112 -5.65517 3
    endloop
  endfacet
  facet normal -0.368122 0.929778 0
    outer loop
      vertex 1.93136 -5.9441 3
      vertex 2.66112 -5.65517 0
      vertex 1.93136 -5.9441 0
    endloop
  endfacet
  facet normal 0.587785 -0.809017 0
    outer loop
      vertex -3.9839 4.81571 0
      vertex -3.34892 5.27705 3
      vertex -3.9839 4.81571 3
    endloop
  endfacet
  facet normal 0.587785 -0.809017 0
    outer loop
      vertex -3.34892 5.27705 3
      vertex -3.9839 4.81571 0
      vertex -3.34892 5.27705 0
    endloop
  endfacet
  facet normal 0.248685 -0.968584 0
    outer loop
      vertex -1.93136 5.9441 0
      vertex -1.17113 6.13929 3
      vertex -1.93136 5.9441 3
    endloop
  endfacet
  facet normal 0.248685 -0.968584 0
    outer loop
      vertex -1.17113 6.13929 3
      vertex -1.93136 5.9441 0
      vertex -1.17113 6.13929 0
    endloop
  endfacet
  facet normal -0.481752 0.876307 0
    outer loop
      vertex 3.34892 -5.27705 0
      vertex 2.66112 -5.65517 3
      vertex 3.34892 -5.27705 3
    endloop
  endfacet
  facet normal -0.481752 0.876307 0
    outer loop
      vertex 2.66112 -5.65517 3
      vertex 3.34892 -5.27705 0
      vertex 2.66112 -5.65517 0
    endloop
  endfacet
  facet normal -0.844329 0.535825 0
    outer loop
      vertex 5.05636 -3.67366 0
      vertex 5.47692 -3.01096 3
      vertex 5.47692 -3.01096 0
    endloop
  endfacet
  facet normal -0.844329 0.535825 0
    outer loop
      vertex 5.47692 -3.01096 3
      vertex 5.05636 -3.67366 0
      vertex 5.05636 -3.67366 3
    endloop
  endfacet
  facet normal 0.368122 0.929778 -0
    outer loop
      vertex -1.93136 -5.9441 0
      vertex -2.66112 -5.65517 3
      vertex -1.93136 -5.9441 3
    endloop
  endfacet
  facet normal 0.368122 0.929778 0
    outer loop
      vertex -2.66112 -5.65517 3
      vertex -1.93136 -5.9441 0
      vertex -2.66112 -5.65517 0
    endloop
  endfacet
  facet normal 0.770508 0.637431 0
    outer loop
      vertex -4.55605 -4.27842 3
      vertex -5.05636 -3.67366 0
      vertex -5.05636 -3.67366 3
    endloop
  endfacet
  facet normal 0.770508 0.637431 0
    outer loop
      vertex -5.05636 -3.67366 0
      vertex -4.55605 -4.27842 3
      vertex -4.55605 -4.27842 0
    endloop
  endfacet
  facet normal 0.951058 0.309014 0
    outer loop
      vertex -5.8111 -2.30078 3
      vertex -6.05364 -1.55431 0
      vertex -6.05364 -1.55431 3
    endloop
  endfacet
  facet normal 0.951058 0.309014 0
    outer loop
      vertex -6.05364 -1.55431 0
      vertex -5.8111 -2.30078 3
      vertex -5.8111 -2.30078 0
    endloop
  endfacet
  facet normal -0.248685 0.968584 0
    outer loop
      vertex 1.93136 -5.9441 0
      vertex 1.17113 -6.13929 3
      vertex 1.93136 -5.9441 3
    endloop
  endfacet
  facet normal -0.248685 0.968584 0
    outer loop
      vertex 1.17113 -6.13929 3
      vertex 1.93136 -5.9441 0
      vertex 1.17113 -6.13929 0
    endloop
  endfacet
  facet normal -0.90483 0.425774 0
    outer loop
      vertex 5.47692 -3.01096 0
      vertex 5.8111 -2.30078 3
      vertex 5.8111 -2.30078 0
    endloop
  endfacet
  facet normal -0.90483 0.425774 0
    outer loop
      vertex 5.8111 -2.30078 3
      vertex 5.47692 -3.01096 0
      vertex 5.47692 -3.01096 3
    endloop
  endfacet
  facet normal 0.125344 0.992113 -0
    outer loop
      vertex -0.39244 -6.23767 0
      vertex -1.17113 -6.13929 3
      vertex -0.39244 -6.23767 3
    endloop
  endfacet
  facet normal 0.125344 0.992113 0
    outer loop
      vertex -1.17113 -6.13929 3
      vertex -0.39244 -6.23767 0
      vertex -1.17113 -6.13929 0
    endloop
  endfacet
  facet normal 0.248685 0.968584 -0
    outer loop
      vertex -1.17113 -6.13929 0
      vertex -1.93136 -5.9441 3
      vertex -1.17113 -6.13929 3
    endloop
  endfacet
  facet normal 0.248685 0.968584 0
    outer loop
      vertex -1.93136 -5.9441 3
      vertex -1.17113 -6.13929 0
      vertex -1.93136 -5.9441 0
    endloop
  endfacet
  facet normal 0.684551 0.728965 -0
    outer loop
      vertex -3.9839 -4.81571 0
      vertex -4.55605 -4.27842 3
      vertex -3.9839 -4.81571 3
    endloop
  endfacet
  facet normal 0.684551 0.728965 0
    outer loop
      vertex -4.55605 -4.27842 3
      vertex -3.9839 -4.81571 0
      vertex -4.55605 -4.27842 0
    endloop
  endfacet
  facet normal 0.90483 0.425774 0
    outer loop
      vertex -5.47692 -3.01096 3
      vertex -5.8111 -2.30078 0
      vertex -5.8111 -2.30078 3
    endloop
  endfacet
  facet normal 0.90483 0.425774 0
    outer loop
      vertex -5.8111 -2.30078 0
      vertex -5.47692 -3.01096 3
      vertex -5.47692 -3.01096 0
    endloop
  endfacet
  facet normal 0.982285 0.187391 0
    outer loop
      vertex -6.05364 -1.55431 3
      vertex -6.20072 -0.783332 0
      vertex -6.20072 -0.783332 3
    endloop
  endfacet
  facet normal 0.982285 0.187391 0
    outer loop
      vertex -6.20072 -0.783332 0
      vertex -6.05364 -1.55431 3
      vertex -6.05364 -1.55431 0
    endloop
  endfacet
  facet normal 0.998027 0.0627866 0
    outer loop
      vertex -6.20072 -0.783332 3
      vertex -6.25 0 0
      vertex -6.25 0 3
    endloop
  endfacet
  facet normal 0.998027 0.0627866 0
    outer loop
      vertex -6.25 0 0
      vertex -6.20072 -0.783332 3
      vertex -6.20072 -0.783332 0
    endloop
  endfacet
  facet normal -0.684551 0.728965 0
    outer loop
      vertex 4.55605 -4.27842 0
      vertex 3.9839 -4.81571 3
      vertex 4.55605 -4.27842 3
    endloop
  endfacet
  facet normal -0.684551 0.728965 0
    outer loop
      vertex 3.9839 -4.81571 3
      vertex 4.55605 -4.27842 0
      vertex 3.9839 -4.81571 0
    endloop
  endfacet
  facet normal -0.587785 0.809017 0
    outer loop
      vertex 3.9839 -4.81571 0
      vertex 3.34892 -5.27705 3
      vertex 3.9839 -4.81571 3
    endloop
  endfacet
  facet normal -0.587785 0.809017 0
    outer loop
      vertex 3.34892 -5.27705 3
      vertex 3.9839 -4.81571 0
      vertex 3.34892 -5.27705 0
    endloop
  endfacet
  facet normal 0.587785 0.809017 -0
    outer loop
      vertex -3.34892 -5.27705 0
      vertex -3.9839 -4.81571 3
      vertex -3.34892 -5.27705 3
    endloop
  endfacet
  facet normal 0.587785 0.809017 0
    outer loop
      vertex -3.9839 -4.81571 3
      vertex -3.34892 -5.27705 0
      vertex -3.9839 -4.81571 0
    endloop
  endfacet
  facet normal 0.481752 0.876307 -0
    outer loop
      vertex -2.66112 -5.65517 0
      vertex -3.34892 -5.27705 3
      vertex -2.66112 -5.65517 3
    endloop
  endfacet
  facet normal 0.481752 0.876307 0
    outer loop
      vertex -3.34892 -5.27705 3
      vertex -2.66112 -5.65517 0
      vertex -3.34892 -5.27705 0
    endloop
  endfacet
  facet normal 0.844329 0.535825 0
    outer loop
      vertex -5.05636 -3.67366 3
      vertex -5.47692 -3.01096 0
      vertex -5.47692 -3.01096 3
    endloop
  endfacet
  facet normal 0.844329 0.535825 0
    outer loop
      vertex -5.47692 -3.01096 0
      vertex -5.05636 -3.67366 3
      vertex -5.05636 -3.67366 0
    endloop
  endfacet
  facet normal 0.998027 0.0627837 0
    outer loop
      vertex 22.5 0 3
      vertex 22.3226 2.82 -4.5
      vertex 22.3226 2.82 3
    endloop
  endfacet
  facet normal 0.998027 0.0627837 0
    outer loop
      vertex 22.3226 2.82 -4.5
      vertex 22.5 0 3
      vertex 22.5 0 -4.5
    endloop
  endfacet
  facet normal -0.998027 0.0627837 0
    outer loop
      vertex -22.5 0 -4.5
      vertex -22.3226 2.82 3
      vertex -22.3226 2.82 -4.5
    endloop
  endfacet
  facet normal -0.998027 0.0627837 0
    outer loop
      vertex -22.3226 2.82 3
      vertex -22.5 0 -4.5
      vertex -22.5 0 3
    endloop
  endfacet
  facet normal 0 1 -0
    outer loop
      vertex 1.41279 22.4556 -4.5
      vertex -1.41279 22.4556 3
      vertex 1.41279 22.4556 3
    endloop
  endfacet
  facet normal 0 1 0
    outer loop
      vertex -1.41279 22.4556 3
      vertex 1.41279 22.4556 -4.5
      vertex -1.41279 22.4556 -4.5
    endloop
  endfacet
  facet normal 0 -1 0
    outer loop
      vertex -1.41279 -22.4556 -4.5
      vertex 1.41279 -22.4556 3
      vertex -1.41279 -22.4556 3
    endloop
  endfacet
  facet normal 0 -1 -0
    outer loop
      vertex 1.41279 -22.4556 3
      vertex -1.41279 -22.4556 -4.5
      vertex 1.41279 -22.4556 -4.5
    endloop
  endfacet
  facet normal 0.684532 0.728983 -0
    outer loop
      vertex 16.4018 15.4023 -4.5
      vertex 14.342 17.3365 3
      vertex 16.4018 15.4023 3
    endloop
  endfacet
  facet normal 0.684532 0.728983 0
    outer loop
      vertex 14.342 17.3365 3
      vertex 16.4018 15.4023 -4.5
      vertex 14.342 17.3365 -4.5
    endloop
  endfacet
  facet normal -0.684532 0.728983 0
    outer loop
      vertex -14.342 17.3365 -4.5
      vertex -16.4018 15.4023 3
      vertex -14.342 17.3365 3
    endloop
  endfacet
  facet normal -0.684532 0.728983 0
    outer loop
      vertex -16.4018 15.4023 3
      vertex -14.342 17.3365 -4.5
      vertex -16.4018 15.4023 -4.5
    endloop
  endfacet
  facet normal -0.368136 0.929772 0
    outer loop
      vertex -6.95288 21.3988 -4.5
      vertex -9.58003 20.3586 3
      vertex -6.95288 21.3988 3
    endloop
  endfacet
  facet normal -0.368136 0.929772 0
    outer loop
      vertex -9.58003 20.3586 3
      vertex -6.95288 21.3988 -4.5
      vertex -9.58003 20.3586 -4.5
    endloop
  endfacet
  facet normal 0.904826 0.425782 0
    outer loop
      vertex 20.92 8.2828 3
      vertex 19.7169 10.8395 -4.5
      vertex 19.7169 10.8395 3
    endloop
  endfacet
  facet normal 0.904826 0.425782 0
    outer loop
      vertex 19.7169 10.8395 -4.5
      vertex 20.92 8.2828 3
      vertex 20.92 8.2828 -4.5
    endloop
  endfacet
  facet normal 0.368136 0.929772 -0
    outer loop
      vertex 9.58003 20.3586 -4.5
      vertex 6.95288 21.3988 3
      vertex 9.58003 20.3586 3
    endloop
  endfacet
  facet normal 0.368136 0.929772 0
    outer loop
      vertex 6.95288 21.3988 3
      vertex 9.58003 20.3586 -4.5
      vertex 6.95288 21.3988 -4.5
    endloop
  endfacet
  facet normal 0.481745 0.876311 -0
    outer loop
      vertex 12.0561 18.9974 -4.5
      vertex 9.58003 20.3586 3
      vertex 12.0561 18.9974 3
    endloop
  endfacet
  facet normal 0.481745 0.876311 0
    outer loop
      vertex 9.58003 20.3586 3
      vertex 12.0561 18.9974 -4.5
      vertex 9.58003 20.3586 -4.5
    endloop
  endfacet
  facet normal -0.904826 0.425782 0
    outer loop
      vertex -20.92 8.2828 -4.5
      vertex -19.7169 10.8395 3
      vertex -19.7169 10.8395 -4.5
    endloop
  endfacet
  facet normal -0.904826 0.425782 0
    outer loop
      vertex -19.7169 10.8395 3
      vertex -20.92 8.2828 -4.5
      vertex -20.92 8.2828 3
    endloop
  endfacet
  facet normal -0.248693 0.968582 0
    outer loop
      vertex -4.21608 22.1015 -4.5
      vertex -6.95288 21.3988 3
      vertex -4.21608 22.1015 3
    endloop
  endfacet
  facet normal -0.248693 0.968582 0
    outer loop
      vertex -6.95288 21.3988 3
      vertex -4.21608 22.1015 -4.5
      vertex -6.95288 21.3988 -4.5
    endloop
  endfacet
  facet normal 0.12532 -0.992116 0
    outer loop
      vertex 1.41279 -22.4556 -4.5
      vertex 4.21608 -22.1015 3
      vertex 1.41279 -22.4556 3
    endloop
  endfacet
  facet normal 0.12532 -0.992116 0
    outer loop
      vertex 4.21608 -22.1015 3
      vertex 1.41279 -22.4556 -4.5
      vertex 4.21608 -22.1015 -4.5
    endloop
  endfacet
  facet normal 0.951062 0.309001 0
    outer loop
      vertex 21.7931 5.59552 3
      vertex 20.92 8.2828 -4.5
      vertex 20.92 8.2828 3
    endloop
  endfacet
  facet normal 0.951062 0.309001 0
    outer loop
      vertex 20.92 8.2828 -4.5
      vertex 21.7931 5.59552 3
      vertex 21.7931 5.59552 -4.5
    endloop
  endfacet
  facet normal 0.982285 0.187395 0
    outer loop
      vertex 22.3226 2.82 3
      vertex 21.7931 5.59552 -4.5
      vertex 21.7931 5.59552 3
    endloop
  endfacet
  facet normal 0.982285 0.187395 0
    outer loop
      vertex 21.7931 5.59552 -4.5
      vertex 22.3226 2.82 3
      vertex 22.3226 2.82 -4.5
    endloop
  endfacet
  facet normal 0.770505 0.637434 0
    outer loop
      vertex 18.2029 13.2252 3
      vertex 16.4018 15.4023 -4.5
      vertex 16.4018 15.4023 3
    endloop
  endfacet
  facet normal 0.770505 0.637434 0
    outer loop
      vertex 16.4018 15.4023 -4.5
      vertex 18.2029 13.2252 3
      vertex 18.2029 13.2252 -4.5
    endloop
  endfacet
  facet normal 0.84433 0.535824 0
    outer loop
      vertex 19.7169 10.8395 3
      vertex 18.2029 13.2252 -4.5
      vertex 18.2029 13.2252 3
    endloop
  endfacet
  facet normal 0.84433 0.535824 0
    outer loop
      vertex 18.2029 13.2252 -4.5
      vertex 19.7169 10.8395 3
      vertex 19.7169 10.8395 -4.5
    endloop
  endfacet
  facet normal 0.248693 0.968582 -0
    outer loop
      vertex 6.95288 21.3988 -4.5
      vertex 4.21608 22.1015 3
      vertex 6.95288 21.3988 3
    endloop
  endfacet
  facet normal 0.248693 0.968582 0
    outer loop
      vertex 4.21608 22.1015 3
      vertex 6.95288 21.3988 -4.5
      vertex 4.21608 22.1015 -4.5
    endloop
  endfacet
  facet normal 0.12532 0.992116 -0
    outer loop
      vertex 4.21608 22.1015 -4.5
      vertex 1.41279 22.4556 3
      vertex 4.21608 22.1015 3
    endloop
  endfacet
  facet normal 0.12532 0.992116 0
    outer loop
      vertex 1.41279 22.4556 3
      vertex 4.21608 22.1015 -4.5
      vertex 1.41279 22.4556 -4.5
    endloop
  endfacet
  facet normal 0.587808 0.809001 -0
    outer loop
      vertex 14.342 17.3365 -4.5
      vertex 12.0561 18.9974 3
      vertex 14.342 17.3365 3
    endloop
  endfacet
  facet normal 0.587808 0.809001 0
    outer loop
      vertex 12.0561 18.9974 3
      vertex 14.342 17.3365 -4.5
      vertex 12.0561 18.9974 -4.5
    endloop
  endfacet
  facet normal -0.84433 0.535824 0
    outer loop
      vertex -19.7169 10.8395 -4.5
      vertex -18.2029 13.2252 3
      vertex -18.2029 13.2252 -4.5
    endloop
  endfacet
  facet normal -0.84433 0.535824 0
    outer loop
      vertex -18.2029 13.2252 3
      vertex -19.7169 10.8395 -4.5
      vertex -19.7169 10.8395 3
    endloop
  endfacet
  facet normal -0.770505 0.637434 0
    outer loop
      vertex -18.2029 13.2252 -4.5
      vertex -16.4018 15.4023 3
      vertex -16.4018 15.4023 -4.5
    endloop
  endfacet
  facet normal -0.770505 0.637434 0
    outer loop
      vertex -16.4018 15.4023 3
      vertex -18.2029 13.2252 -4.5
      vertex -18.2029 13.2252 3
    endloop
  endfacet
  facet normal -0.951062 0.309001 0
    outer loop
      vertex -21.7931 5.59552 -4.5
      vertex -20.92 8.2828 3
      vertex -20.92 8.2828 -4.5
    endloop
  endfacet
  facet normal -0.951062 0.309001 0
    outer loop
      vertex -20.92 8.2828 3
      vertex -21.7931 5.59552 -4.5
      vertex -21.7931 5.59552 3
    endloop
  endfacet
  facet normal -0.982285 0.187395 0
    outer loop
      vertex -22.3226 2.82 -4.5
      vertex -21.7931 5.59552 3
      vertex -21.7931 5.59552 -4.5
    endloop
  endfacet
  facet normal -0.982285 0.187395 0
    outer loop
      vertex -21.7931 5.59552 3
      vertex -22.3226 2.82 -4.5
      vertex -22.3226 2.82 3
    endloop
  endfacet
  facet normal -0.481745 0.876311 0
    outer loop
      vertex -9.58003 20.3586 -4.5
      vertex -12.0561 18.9974 3
      vertex -9.58003 20.3586 3
    endloop
  endfacet
  facet normal -0.481745 0.876311 0
    outer loop
      vertex -12.0561 18.9974 3
      vertex -9.58003 20.3586 -4.5
      vertex -12.0561 18.9974 -4.5
    endloop
  endfacet
  facet normal -0.587808 0.809001 0
    outer loop
      vertex -12.0561 18.9974 -4.5
      vertex -14.342 17.3365 3
      vertex -12.0561 18.9974 3
    endloop
  endfacet
  facet normal -0.587808 0.809001 0
    outer loop
      vertex -14.342 17.3365 3
      vertex -12.0561 18.9974 -4.5
      vertex -14.342 17.3365 -4.5
    endloop
  endfacet
  facet normal -0.12532 0.992116 0
    outer loop
      vertex -1.41279 22.4556 -4.5
      vertex -4.21608 22.1015 3
      vertex -1.41279 22.4556 3
    endloop
  endfacet
  facet normal -0.12532 0.992116 0
    outer loop
      vertex -4.21608 22.1015 3
      vertex -1.41279 22.4556 -4.5
      vertex -4.21608 22.1015 -4.5
    endloop
  endfacet
  facet normal 0.998027 -0.0627837 0
    outer loop
      vertex 22.3226 -2.82 3
      vertex 22.5 0 -4.5
      vertex 22.5 0 3
    endloop
  endfacet
  facet normal 0.998027 -0.0627837 0
    outer loop
      vertex 22.5 0 -4.5
      vertex 22.3226 -2.82 3
      vertex 22.3226 -2.82 -4.5
    endloop
  endfacet
  facet normal 0.481745 -0.876311 0
    outer loop
      vertex 9.58003 -20.3586 -4.5
      vertex 12.0561 -18.9974 3
      vertex 9.58003 -20.3586 3
    endloop
  endfacet
  facet normal 0.481745 -0.876311 0
    outer loop
      vertex 12.0561 -18.9974 3
      vertex 9.58003 -20.3586 -4.5
      vertex 12.0561 -18.9974 -4.5
    endloop
  endfacet
  facet normal 0.684532 -0.728983 0
    outer loop
      vertex 14.342 -17.3365 -4.5
      vertex 16.4018 -15.4023 3
      vertex 14.342 -17.3365 3
    endloop
  endfacet
  facet normal 0.684532 -0.728983 0
    outer loop
      vertex 16.4018 -15.4023 3
      vertex 14.342 -17.3365 -4.5
      vertex 16.4018 -15.4023 -4.5
    endloop
  endfacet
  facet normal 0.904826 -0.425782 0
    outer loop
      vertex 19.7169 -10.8395 3
      vertex 20.92 -8.2828 -4.5
      vertex 20.92 -8.2828 3
    endloop
  endfacet
  facet normal 0.904826 -0.425782 0
    outer loop
      vertex 20.92 -8.2828 -4.5
      vertex 19.7169 -10.8395 3
      vertex 19.7169 -10.8395 -4.5
    endloop
  endfacet
  facet normal -0.998027 -0.0627837 0
    outer loop
      vertex -22.3226 -2.82 -4.5
      vertex -22.5 0 3
      vertex -22.5 0 -4.5
    endloop
  endfacet
  facet normal -0.998027 -0.0627837 0
    outer loop
      vertex -22.5 0 3
      vertex -22.3226 -2.82 -4.5
      vertex -22.3226 -2.82 3
    endloop
  endfacet
  facet normal 0.951062 -0.309001 0
    outer loop
      vertex 20.92 -8.2828 3
      vertex 21.7931 -5.59552 -4.5
      vertex 21.7931 -5.59552 3
    endloop
  endfacet
  facet normal 0.951062 -0.309001 0
    outer loop
      vertex 21.7931 -5.59552 -4.5
      vertex 20.92 -8.2828 3
      vertex 20.92 -8.2828 -4.5
    endloop
  endfacet
  facet normal 0.770505 -0.637434 0
    outer loop
      vertex 16.4018 -15.4023 3
      vertex 18.2029 -13.2252 -4.5
      vertex 18.2029 -13.2252 3
    endloop
  endfacet
  facet normal 0.770505 -0.637434 0
    outer loop
      vertex 18.2029 -13.2252 -4.5
      vertex 16.4018 -15.4023 3
      vertex 16.4018 -15.4023 -4.5
    endloop
  endfacet
  facet normal -0.684532 -0.728983 0
    outer loop
      vertex -16.4018 -15.4023 -4.5
      vertex -14.342 -17.3365 3
      vertex -16.4018 -15.4023 3
    endloop
  endfacet
  facet normal -0.684532 -0.728983 -0
    outer loop
      vertex -14.342 -17.3365 3
      vertex -16.4018 -15.4023 -4.5
      vertex -14.342 -17.3365 -4.5
    endloop
  endfacet
  facet normal -0.84433 -0.535824 0
    outer loop
      vertex -18.2029 -13.2252 -4.5
      vertex -19.7169 -10.8395 3
      vertex -19.7169 -10.8395 -4.5
    endloop
  endfacet
  facet normal -0.84433 -0.535824 0
    outer loop
      vertex -19.7169 -10.8395 3
      vertex -18.2029 -13.2252 -4.5
      vertex -18.2029 -13.2252 3
    endloop
  endfacet
  facet normal 0 0 -1
    outer loop
      vertex 5.91425 0 -4.5
      vertex 22.5 0 -4.5
      vertex 22.3226 -2.82 -4.5
    endloop
  endfacet
  facet normal 0 0 -1
    outer loop
      vertex 5.91425 0 -4.5
      vertex 22.3226 -2.82 -4.5
      vertex 21.7931 -5.59552 -4.5
    endloop
  endfacet
  facet normal 0 0 -1
    outer loop
      vertex 22.5 0 -4.5
      vertex 5.91425 0 -4.5
      vertex 22.3226 2.82 -4.5
    endloop
  endfacet
  facet normal 0 0 -1
    outer loop
      vertex 5.91425 0 -4.5
      vertex 21.7931 -5.59552 -4.5
      vertex 20.92 -8.2828 -4.5
    endloop
  endfacet
  facet normal -0 0 -1
    outer loop
      vertex 22.3226 2.82 -4.5
      vertex 5.91425 0 -4.5
      vertex 21.7931 5.59552 -4.5
    endloop
  endfacet
  facet normal 0 0 -1
    outer loop
      vertex 5.91425 0 -4.5
      vertex 20.92 -8.2828 -4.5
      vertex 19.7169 -10.8395 -4.5
    endloop
  endfacet
  facet normal -0 0 -1
    outer loop
      vertex 21.7931 5.59552 -4.5
      vertex 5.91425 0 -4.5
      vertex 20.92 8.2828 -4.5
    endloop
  endfacet
  facet normal 0 0 -1
    outer loop
      vertex 2.95712 -5.12189 -4.5
      vertex 19.7169 -10.8395 -4.5
      vertex 18.2029 -13.2252 -4.5
    endloop
  endfacet
  facet normal -0 0 -1
    outer loop
      vertex 20.92 8.2828 -4.5
      vertex 5.91425 0 -4.5
      vertex 19.7169 10.8395 -4.5
    endloop
  endfacet
  facet normal 0 0 -1
    outer loop
      vertex 2.95712 -5.12189 -4.5
      vertex 18.2029 -13.2252 -4.5
      vertex 16.4018 -15.4023 -4.5
    endloop
  endfacet
  facet normal 0 0 -1
    outer loop
      vertex 2.95712 5.12189 -4.5
      vertex 19.7169 10.8395 -4.5
      vertex 5.91425 0 -4.5
    endloop
  endfacet
  facet normal 0 0 -1
    outer loop
      vertex 2.95712 -5.12189 -4.5
      vertex 16.4018 -15.4023 -4.5
      vertex 14.342 -17.3365 -4.5
    endloop
  endfacet
  facet normal -0 0 -1
    outer loop
      vertex 19.7169 10.8395 -4.5
      vertex 2.95712 5.12189 -4.5
      vertex 18.2029 13.2252 -4.5
    endloop
  endfacet
  facet normal 0 0 -1
    outer loop
      vertex 2.95712 -5.12189 -4.5
      vertex 14.342 -17.3365 -4.5
      vertex 12.0561 -18.9974 -4.5
    endloop
  endfacet
  facet normal -0 0 -1
    outer loop
      vertex 18.2029 13.2252 -4.5
      vertex 2.95712 5.12189 -4.5
      vertex 16.4018 15.4023 -4.5
    endloop
  endfacet
  facet normal 0 0 -1
    outer loop
      vertex 2.95712 -5.12189 -4.5
      vertex 12.0561 -18.9974 -4.5
      vertex 9.58003 -20.3586 -4.5
    endloop
  endfacet
  facet normal -0 0 -1
    outer loop
      vertex 16.4018 15.4023 -4.5
      vertex 2.95712 5.12189 -4.5
      vertex 14.342 17.3365 -4.5
    endloop
  endfacet
  facet normal 0 0 -1
    outer loop
      vertex 2.95712 -5.12189 -4.5
      vertex 9.58003 -20.3586 -4.5
      vertex 6.95288 -21.3988 -4.5
    endloop
  endfacet
  facet normal -0 0 -1
    outer loop
      vertex 14.342 17.3365 -4.5
      vertex 2.95712 5.12189 -4.5
      vertex 12.0561 18.9974 -4.5
    endloop
  endfacet
  facet normal -0 0 -1
    outer loop
      vertex 12.0561 18.9974 -4.5
      vertex 2.95712 5.12189 -4.5
      vertex 9.58003 20.3586 -4.5
    endloop
  endfacet
  facet normal 0 0 -1
    outer loop
      vertex 2.95712 -5.12189 -4.5
      vertex 6.95288 -21.3988 -4.5
      vertex 4.21608 -22.1015 -4.5
    endloop
  endfacet
  facet normal 0 0 -1
    outer loop
      vertex 19.7169 -10.8395 -4.5
      vertex 2.95712 -5.12189 -4.5
      vertex 5.91425 0 -4.5
    endloop
  endfacet
  facet normal 0 0 -1
    outer loop
      vertex 1.41279 -22.4556 -4.5
      vertex 2.95712 -5.12189 -4.5
      vertex 4.21608 -22.1015 -4.5
    endloop
  endfacet
  facet normal 0 0 -1
    outer loop
      vertex -1.41279 -22.4556 -4.5
      vertex 2.95712 -5.12189 -4.5
      vertex 1.41279 -22.4556 -4.5
    endloop
  endfacet
  facet normal 0 0 -1
    outer loop
      vertex -1.41279 -22.4556 -4.5
      vertex -2.95712 -5.12189 -4.5
      vertex 2.95712 -5.12189 -4.5
    endloop
  endfacet
  facet normal 0 0 -1
    outer loop
      vertex -4.21608 -22.1015 -4.5
      vertex -2.95712 -5.12189 -4.5
      vertex -1.41279 -22.4556 -4.5
    endloop
  endfacet
  facet normal 0 0 -1
    outer loop
      vertex -6.95288 -21.3988 -4.5
      vertex -2.95712 -5.12189 -4.5
      vertex -4.21608 -22.1015 -4.5
    endloop
  endfacet
  facet normal 0 0 -1
    outer loop
      vertex -9.58003 -20.3586 -4.5
      vertex -2.95712 -5.12189 -4.5
      vertex -6.95288 -21.3988 -4.5
    endloop
  endfacet
  facet normal -0 0 -1
    outer loop
      vertex 9.58003 20.3586 -4.5
      vertex 2.95712 5.12189 -4.5
      vertex 6.95288 21.3988 -4.5
    endloop
  endfacet
  facet normal -0 0 -1
    outer loop
      vertex 6.95288 21.3988 -4.5
      vertex 2.95712 5.12189 -4.5
      vertex 4.21608 22.1015 -4.5
    endloop
  endfacet
  facet normal 0 0 -1
    outer loop
      vertex 2.95712 5.12189 -4.5
      vertex 1.41279 22.4556 -4.5
      vertex 4.21608 22.1015 -4.5
    endloop
  endfacet
  facet normal 0 0 -1
    outer loop
      vertex 2.95712 5.12189 -4.5
      vertex -1.41279 22.4556 -4.5
      vertex 1.41279 22.4556 -4.5
    endloop
  endfacet
  facet normal 0 0 -1
    outer loop
      vertex -2.95712 5.12189 -4.5
      vertex -1.41279 22.4556 -4.5
      vertex 2.95712 5.12189 -4.5
    endloop
  endfacet
  facet normal 0 0 -1
    outer loop
      vertex -2.95712 5.12189 -4.5
      vertex -4.21608 22.1015 -4.5
      vertex -1.41279 22.4556 -4.5
    endloop
  endfacet
  facet normal 0 0 -1
    outer loop
      vertex -19.7169 10.8395 -4.5
      vertex -2.95712 5.12189 -4.5
      vertex -5.91425 0 -4.5
    endloop
  endfacet
  facet normal 0 0 -1
    outer loop
      vertex -2.95712 5.12189 -4.5
      vertex -6.95288 21.3988 -4.5
      vertex -4.21608 22.1015 -4.5
    endloop
  endfacet
  facet normal 0 0 -1
    outer loop
      vertex -12.0561 -18.9974 -4.5
      vertex -2.95712 -5.12189 -4.5
      vertex -9.58003 -20.3586 -4.5
    endloop
  endfacet
  facet normal 0 0 -1
    outer loop
      vertex -14.342 -17.3365 -4.5
      vertex -2.95712 -5.12189 -4.5
      vertex -12.0561 -18.9974 -4.5
    endloop
  endfacet
  facet normal 0 0 -1
    outer loop
      vertex -2.95712 5.12189 -4.5
      vertex -9.58003 20.3586 -4.5
      vertex -6.95288 21.3988 -4.5
    endloop
  endfacet
  facet normal 0 0 -1
    outer loop
      vertex -16.4018 -15.4023 -4.5
      vertex -2.95712 -5.12189 -4.5
      vertex -14.342 -17.3365 -4.5
    endloop
  endfacet
  facet normal 0 0 -1
    outer loop
      vertex -2.95712 5.12189 -4.5
      vertex -12.0561 18.9974 -4.5
      vertex -9.58003 20.3586 -4.5
    endloop
  endfacet
  facet normal 0 0 -1
    outer loop
      vertex -18.2029 -13.2252 -4.5
      vertex -2.95712 -5.12189 -4.5
      vertex -16.4018 -15.4023 -4.5
    endloop
  endfacet
  facet normal 0 0 -1
    outer loop
      vertex -2.95712 5.12189 -4.5
      vertex -14.342 17.3365 -4.5
      vertex -12.0561 18.9974 -4.5
    endloop
  endfacet
  facet normal 0 0 -1
    outer loop
      vertex -19.7169 -10.8395 -4.5
      vertex -2.95712 -5.12189 -4.5
      vertex -18.2029 -13.2252 -4.5
    endloop
  endfacet
  facet normal 0 0 -1
    outer loop
      vertex -2.95712 5.12189 -4.5
      vertex -16.4018 15.4023 -4.5
      vertex -14.342 17.3365 -4.5
    endloop
  endfacet
  facet normal -0 0 -1
    outer loop
      vertex -2.95712 -5.12189 -4.5
      vertex -19.7169 -10.8395 -4.5
      vertex -5.91425 0 -4.5
    endloop
  endfacet
  facet normal 0 0 -1
    outer loop
      vertex -2.95712 5.12189 -4.5
      vertex -18.2029 13.2252 -4.5
      vertex -16.4018 15.4023 -4.5
    endloop
  endfacet
  facet normal 0 0 -1
    outer loop
      vertex -20.92 -8.2828 -4.5
      vertex -5.91425 0 -4.5
      vertex -19.7169 -10.8395 -4.5
    endloop
  endfacet
  facet normal 0 0 -1
    outer loop
      vertex -2.95712 5.12189 -4.5
      vertex -19.7169 10.8395 -4.5
      vertex -18.2029 13.2252 -4.5
    endloop
  endfacet
  facet normal 0 0 -1
    outer loop
      vertex -21.7931 -5.59552 -4.5
      vertex -5.91425 0 -4.5
      vertex -20.92 -8.2828 -4.5
    endloop
  endfacet
  facet normal 0 0 -1
    outer loop
      vertex -5.91425 0 -4.5
      vertex -20.92 8.2828 -4.5
      vertex -19.7169 10.8395 -4.5
    endloop
  endfacet
  facet normal 0 0 -1
    outer loop
      vertex -22.3226 -2.82 -4.5
      vertex -5.91425 0 -4.5
      vertex -21.7931 -5.59552 -4.5
    endloop
  endfacet
  facet normal 0 0 -1
    outer loop
      vertex -5.91425 0 -4.5
      vertex -21.7931 5.59552 -4.5
      vertex -20.92 8.2828 -4.5
    endloop
  endfacet
  facet normal 0 0 -1
    outer loop
      vertex -22.5 0 -4.5
      vertex -5.91425 0 -4.5
      vertex -22.3226 -2.82 -4.5
    endloop
  endfacet
  facet normal 0 0 -1
    outer loop
      vertex -5.91425 0 -4.5
      vertex -22.3226 2.82 -4.5
      vertex -21.7931 5.59552 -4.5
    endloop
  endfacet
  facet normal 0 0 -1
    outer loop
      vertex -5.91425 0 -4.5
      vertex -22.5 0 -4.5
      vertex -22.3226 2.82 -4.5
    endloop
  endfacet
  facet normal 0.368136 -0.929772 0
    outer loop
      vertex 6.95288 -21.3988 -4.5
      vertex 9.58003 -20.3586 3
      vertex 6.95288 -21.3988 3
    endloop
  endfacet
  facet normal 0.368136 -0.929772 0
    outer loop
      vertex 9.58003 -20.3586 3
      vertex 6.95288 -21.3988 -4.5
      vertex 9.58003 -20.3586 -4.5
    endloop
  endfacet
  facet normal 0.248693 -0.968582 0
    outer loop
      vertex 4.21608 -22.1015 -4.5
      vertex 6.95288 -21.3988 3
      vertex 4.21608 -22.1015 3
    endloop
  endfacet
  facet normal 0.248693 -0.968582 0
    outer loop
      vertex 6.95288 -21.3988 3
      vertex 4.21608 -22.1015 -4.5
      vertex 6.95288 -21.3988 -4.5
    endloop
  endfacet
  facet normal 0.982285 -0.187395 0
    outer loop
      vertex 21.7931 -5.59552 3
      vertex 22.3226 -2.82 -4.5
      vertex 22.3226 -2.82 3
    endloop
  endfacet
  facet normal 0.982285 -0.187395 0
    outer loop
      vertex 22.3226 -2.82 -4.5
      vertex 21.7931 -5.59552 3
      vertex 21.7931 -5.59552 -4.5
    endloop
  endfacet
  facet normal 0.587808 -0.809001 0
    outer loop
      vertex 12.0561 -18.9974 -4.5
      vertex 14.342 -17.3365 3
      vertex 12.0561 -18.9974 3
    endloop
  endfacet
  facet normal 0.587808 -0.809001 0
    outer loop
      vertex 14.342 -17.3365 3
      vertex 12.0561 -18.9974 -4.5
      vertex 14.342 -17.3365 -4.5
    endloop
  endfacet
  facet normal 0.84433 -0.535824 0
    outer loop
      vertex 18.2029 -13.2252 3
      vertex 19.7169 -10.8395 -4.5
      vertex 19.7169 -10.8395 3
    endloop
  endfacet
  facet normal 0.84433 -0.535824 0
    outer loop
      vertex 19.7169 -10.8395 -4.5
      vertex 18.2029 -13.2252 3
      vertex 18.2029 -13.2252 -4.5
    endloop
  endfacet
  facet normal -0.368136 -0.929772 0
    outer loop
      vertex -9.58003 -20.3586 -4.5
      vertex -6.95288 -21.3988 3
      vertex -9.58003 -20.3586 3
    endloop
  endfacet
  facet normal -0.368136 -0.929772 -0
    outer loop
      vertex -6.95288 -21.3988 3
      vertex -9.58003 -20.3586 -4.5
      vertex -6.95288 -21.3988 -4.5
    endloop
  endfacet
  facet normal -0.248693 -0.968582 0
    outer loop
      vertex -6.95288 -21.3988 -4.5
      vertex -4.21608 -22.1015 3
      vertex -6.95288 -21.3988 3
    endloop
  endfacet
  facet normal -0.248693 -0.968582 -0
    outer loop
      vertex -4.21608 -22.1015 3
      vertex -6.95288 -21.3988 -4.5
      vertex -4.21608 -22.1015 -4.5
    endloop
  endfacet
  facet normal -0.904826 -0.425782 0
    outer loop
      vertex -19.7169 -10.8395 -4.5
      vertex -20.92 -8.2828 3
      vertex -20.92 -8.2828 -4.5
    endloop
  endfacet
  facet normal -0.904826 -0.425782 0
    outer loop
      vertex -20.92 -8.2828 3
      vertex -19.7169 -10.8395 -4.5
      vertex -19.7169 -10.8395 3
    endloop
  endfacet
  facet normal -0.951062 -0.309001 0
    outer loop
      vertex -20.92 -8.2828 -4.5
      vertex -21.7931 -5.59552 3
      vertex -21.7931 -5.59552 -4.5
    endloop
  endfacet
  facet normal -0.951062 -0.309001 0
    outer loop
      vertex -21.7931 -5.59552 3
      vertex -20.92 -8.2828 -4.5
      vertex -20.92 -8.2828 3
    endloop
  endfacet
  facet normal -0.982285 -0.187395 0
    outer loop
      vertex -21.7931 -5.59552 -4.5
      vertex -22.3226 -2.82 3
      vertex -22.3226 -2.82 -4.5
    endloop
  endfacet
  facet normal -0.982285 -0.187395 0
    outer loop
      vertex -22.3226 -2.82 3
      vertex -21.7931 -5.59552 -4.5
      vertex -21.7931 -5.59552 3
    endloop
  endfacet
  facet normal -0.587808 -0.809001 0
    outer loop
      vertex -14.342 -17.3365 -4.5
      vertex -12.0561 -18.9974 3
      vertex -14.342 -17.3365 3
    endloop
  endfacet
  facet normal -0.587808 -0.809001 -0
    outer loop
      vertex -12.0561 -18.9974 3
      vertex -14.342 -17.3365 -4.5
      vertex -12.0561 -18.9974 -4.5
    endloop
  endfacet
  facet normal -0.12532 -0.992116 0
    outer loop
      vertex -4.21608 -22.1015 -4.5
      vertex -1.41279 -22.4556 3
      vertex -4.21608 -22.1015 3
    endloop
  endfacet
  facet normal -0.12532 -0.992116 -0
    outer loop
      vertex -1.41279 -22.4556 3
      vertex -4.21608 -22.1015 -4.5
      vertex -1.41279 -22.4556 -4.5
    endloop
  endfacet
  facet normal -0.770505 -0.637434 0
    outer loop
      vertex -16.4018 -15.4023 -4.5
      vertex -18.2029 -13.2252 3
      vertex -18.2029 -13.2252 -4.5
    endloop
  endfacet
  facet normal -0.770505 -0.637434 0
    outer loop
      vertex -18.2029 -13.2252 3
      vertex -16.4018 -15.4023 -4.5
      vertex -16.4018 -15.4023 3
    endloop
  endfacet
  facet normal -0.481745 -0.876311 0
    outer loop
      vertex -12.0561 -18.9974 -4.5
      vertex -9.58003 -20.3586 3
      vertex -12.0561 -18.9974 3
    endloop
  endfacet
  facet normal -0.481745 -0.876311 -0
    outer loop
      vertex -9.58003 -20.3586 3
      vertex -12.0561 -18.9974 -4.5
      vertex -9.58003 -20.3586 -4.5
    endloop
  endfacet
endsolid OpenSCAD_Model
