solid OpenSCAD_Model
  facet normal 0 0 1
    outer loop
      vertex 5.4 0 0
      vertex 22.5 0 0
      vertex 22.3226 2.82 0
    endloop
  endfacet
  facet normal 0 0 1
    outer loop
      vertex 5.35742 0.676799 0
      vertex 22.3226 2.82 0
      vertex 21.7931 5.59552 0
    endloop
  endfacet
  facet normal 0 0 1
    outer loop
      vertex 22.5 0 0
      vertex 5.4 0 0
      vertex 22.3226 -2.82 0
    endloop
  endfacet
  facet normal 0 0 1
    outer loop
      vertex 5.23035 1.34293 0
      vertex 21.7931 5.59552 0
      vertex 20.92 8.2828 0
    endloop
  endfacet
  facet normal -0 0 1
    outer loop
      vertex 5.35742 -0.676799 0
      vertex 22.3226 -2.82 0
      vertex 5.4 0 0
    endloop
  endfacet
  facet normal 0 0 1
    outer loop
      vertex 5.02079 1.98787 0
      vertex 20.92 8.2828 0
      vertex 19.7169 10.8395 0
    endloop
  endfacet
  facet normal 0 0 1
    outer loop
      vertex 22.3226 -2.82 0
      vertex 5.35742 -0.676799 0
      vertex 21.7931 -5.59552 0
    endloop
  endfacet
  facet normal 0 0 1
    outer loop
      vertex 4.73206 2.60147 0
      vertex 19.7169 10.8395 0
      vertex 18.2029 13.2252 0
    endloop
  endfacet
  facet normal -0 0 1
    outer loop
      vertex 5.23035 -1.34293 0
      vertex 21.7931 -5.59552 0
      vertex 5.35742 -0.676799 0
    endloop
  endfacet
  facet normal 0 0 1
    outer loop
      vertex 4.36869 3.17404 0
      vertex 18.2029 13.2252 0
      vertex 16.4018 15.4023 0
    endloop
  endfacet
  facet normal 0 0 1
    outer loop
      vertex 21.7931 -5.59552 0
      vertex 5.23035 -1.34293 0
      vertex 20.92 -8.2828 0
    endloop
  endfacet
  facet normal 0 0 1
    outer loop
      vertex 3.93643 3.69655 0
      vertex 16.4018 15.4023 0
      vertex 14.342 17.3365 0
    endloop
  endfacet
  facet normal -0 0 1
    outer loop
      vertex 5.02079 -1.98787 0
      vertex 20.92 -8.2828 0
      vertex 5.23035 -1.34293 0
    endloop
  endfacet
  facet normal 0 0 1
    outer loop
      vertex 3.44209 4.16077 0
      vertex 14.342 17.3365 0
      vertex 12.0561 18.9974 0
    endloop
  endfacet
  facet normal 0 0 1
    outer loop
      vertex 20.92 -8.2828 0
      vertex 5.02079 -1.98787 0
      vertex 19.7169 -10.8395 0
    endloop
  endfacet
  facet normal 0 0 1
    outer loop
      vertex 2.89346 4.55937 0
      vertex 12.0561 18.9974 0
      vertex 9.58003 20.3586 0
    endloop
  endfacet
  facet normal -0 0 1
    outer loop
      vertex 4.73206 -2.60147 0
      vertex 19.7169 -10.8395 0
      vertex 5.02079 -1.98787 0
    endloop
  endfacet
  facet normal 0 0 1
    outer loop
      vertex 2.29921 4.88607 0
      vertex 9.58003 20.3586 0
      vertex 6.95288 21.3988 0
    endloop
  endfacet
  facet normal 0 0 1
    outer loop
      vertex 19.7169 -10.8395 0
      vertex 4.73206 -2.60147 0
      vertex 18.2029 -13.2252 0
    endloop
  endfacet
  facet normal -0 0 1
    outer loop
      vertex 4.36869 -3.17404 0
      vertex 18.2029 -13.2252 0
      vertex 4.73206 -2.60147 0
    endloop
  endfacet
  facet normal 0 0 1
    outer loop
      vertex 22.3226 2.82 0
      vertex 5.35742 0.676799 0
      vertex 5.4 0 0
    endloop
  endfacet
  facet normal 0 0 1
    outer loop
      vertex 21.7931 5.59552 0
      vertex 5.23035 1.34293 0
      vertex 5.35742 0.676799 0
    endloop
  endfacet
  facet normal 0 0 1
    outer loop
      vertex 20.92 8.2828 0
      vertex 5.02079 1.98787 0
      vertex 5.23035 1.34293 0
    endloop
  endfacet
  facet normal 0 0 1
    outer loop
      vertex 19.7169 10.8395 0
      vertex 4.73206 2.60147 0
      vertex 5.02079 1.98787 0
    endloop
  endfacet
  facet normal 0 0 1
    outer loop
      vertex 18.2029 13.2252 0
      vertex 4.36869 3.17404 0
      vertex 4.73206 2.60147 0
    endloop
  endfacet
  facet normal 0 0 1
    outer loop
      vertex 1.66869 5.1357 0
      vertex 6.95288 21.3988 0
      vertex 4.21608 22.1015 0
    endloop
  endfacet
  facet normal 0 0 1
    outer loop
      vertex 16.4018 15.4023 0
      vertex 3.93643 3.69655 0
      vertex 4.36869 3.17404 0
    endloop
  endfacet
  facet normal 0 0 1
    outer loop
      vertex 14.342 17.3365 0
      vertex 3.44209 4.16077 0
      vertex 3.93643 3.69655 0
    endloop
  endfacet
  facet normal 0 0 1
    outer loop
      vertex 12.0561 18.9974 0
      vertex 2.89346 4.55937 0
      vertex 3.44209 4.16077 0
    endloop
  endfacet
  facet normal 0 0 1
    outer loop
      vertex 9.58003 20.3586 0
      vertex 2.29921 4.88607 0
      vertex 2.89346 4.55937 0
    endloop
  endfacet
  facet normal 0 0 1
    outer loop
      vertex 6.95288 21.3988 0
      vertex 1.66869 5.1357 0
      vertex 2.29921 4.88607 0
    endloop
  endfacet
  facet normal 0 0 1
    outer loop
      vertex 1.01186 5.30435 0
      vertex 4.21608 22.1015 0
      vertex 1.41279 22.4556 0
    endloop
  endfacet
  facet normal 0 0 1
    outer loop
      vertex 4.21608 22.1015 0
      vertex 1.01186 5.30435 0
      vertex 1.66869 5.1357 0
    endloop
  endfacet
  facet normal 0 0 1
    outer loop
      vertex 1.41279 22.4556 0
      vertex 0.339068 5.38934 0
      vertex 1.01186 5.30435 0
    endloop
  endfacet
  facet normal 0 0 1
    outer loop
      vertex 1.41279 22.4556 0
      vertex -0.339068 5.38934 0
      vertex 0.339068 5.38934 0
    endloop
  endfacet
  facet normal -0 0 1
    outer loop
      vertex -1.41279 22.4556 0
      vertex -0.339068 5.38934 0
      vertex 1.41279 22.4556 0
    endloop
  endfacet
  facet normal 0 0 1
    outer loop
      vertex -0.339068 5.38934 0
      vertex -1.41279 22.4556 0
      vertex -1.01186 5.30435 0
    endloop
  endfacet
  facet normal -0 0 1
    outer loop
      vertex -4.21608 22.1015 0
      vertex -1.01186 5.30435 0
      vertex -1.41279 22.4556 0
    endloop
  endfacet
  facet normal 0 0 1
    outer loop
      vertex -1.01186 5.30435 0
      vertex -4.21608 22.1015 0
      vertex -1.66869 5.1357 0
    endloop
  endfacet
  facet normal -0 0 1
    outer loop
      vertex -6.95288 21.3988 0
      vertex -1.66869 5.1357 0
      vertex -4.21608 22.1015 0
    endloop
  endfacet
  facet normal 0 0 1
    outer loop
      vertex -1.66869 5.1357 0
      vertex -6.95288 21.3988 0
      vertex -2.29921 4.88607 0
    endloop
  endfacet
  facet normal -0 0 1
    outer loop
      vertex -9.58003 20.3586 0
      vertex -2.29921 4.88607 0
      vertex -6.95288 21.3988 0
    endloop
  endfacet
  facet normal 0 0 1
    outer loop
      vertex -2.29921 4.88607 0
      vertex -9.58003 20.3586 0
      vertex -2.89346 4.55937 0
    endloop
  endfacet
  facet normal -0 0 1
    outer loop
      vertex -12.0561 18.9974 0
      vertex -2.89346 4.55937 0
      vertex -9.58003 20.3586 0
    endloop
  endfacet
  facet normal 0 0 1
    outer loop
      vertex -2.89346 4.55937 0
      vertex -12.0561 18.9974 0
      vertex -3.44209 4.16077 0
    endloop
  endfacet
  facet normal -0 0 1
    outer loop
      vertex -14.342 17.3365 0
      vertex -3.44209 4.16077 0
      vertex -12.0561 18.9974 0
    endloop
  endfacet
  facet normal 0 0 1
    outer loop
      vertex -3.44209 4.16077 0
      vertex -14.342 17.3365 0
      vertex -3.93643 3.69655 0
    endloop
  endfacet
  facet normal -0 0 1
    outer loop
      vertex -16.4018 15.4023 0
      vertex -3.93643 3.69655 0
      vertex -14.342 17.3365 0
    endloop
  endfacet
  facet normal 0 0 1
    outer loop
      vertex -3.93643 3.69655 0
      vertex -16.4018 15.4023 0
      vertex -4.36869 3.17404 0
    endloop
  endfacet
  facet normal -0 0 1
    outer loop
      vertex -18.2029 13.2252 0
      vertex -4.36869 3.17404 0
      vertex -16.4018 15.4023 0
    endloop
  endfacet
  facet normal 0 0 1
    outer loop
      vertex 18.2029 -13.2252 0
      vertex 4.36869 -3.17404 0
      vertex 16.4018 -15.4023 0
    endloop
  endfacet
  facet normal -0 0 1
    outer loop
      vertex 3.93643 -3.69655 0
      vertex 16.4018 -15.4023 0
      vertex 4.36869 -3.17404 0
    endloop
  endfacet
  facet normal 0 0 1
    outer loop
      vertex 16.4018 -15.4023 0
      vertex 3.93643 -3.69655 0
      vertex 14.342 -17.3365 0
    endloop
  endfacet
  facet normal -0 0 1
    outer loop
      vertex 3.44209 -4.16077 0
      vertex 14.342 -17.3365 0
      vertex 3.93643 -3.69655 0
    endloop
  endfacet
  facet normal 0 0 1
    outer loop
      vertex 14.342 -17.3365 0
      vertex 3.44209 -4.16077 0
      vertex 12.0561 -18.9974 0
    endloop
  endfacet
  facet normal -0 0 1
    outer loop
      vertex 2.89346 -4.55937 0
      vertex 12.0561 -18.9974 0
      vertex 3.44209 -4.16077 0
    endloop
  endfacet
  facet normal 0 0 1
    outer loop
      vertex 12.0561 -18.9974 0
      vertex 2.89346 -4.55937 0
      vertex 9.58003 -20.3586 0
    endloop
  endfacet
  facet normal -0 0 1
    outer loop
      vertex 2.29921 -4.88607 0
      vertex 9.58003 -20.3586 0
      vertex 2.89346 -4.55937 0
    endloop
  endfacet
  facet normal 0 0 1
    outer loop
      vertex 9.58003 -20.3586 0
      vertex 2.29921 -4.88607 0
      vertex 6.95288 -21.3988 0
    endloop
  endfacet
  facet normal -0 0 1
    outer loop
      vertex 1.66869 -5.1357 0
      vertex 6.95288 -21.3988 0
      vertex 2.29921 -4.88607 0
    endloop
  endfacet
  facet normal 0 0 1
    outer loop
      vertex 6.95288 -21.3988 0
      vertex 1.66869 -5.1357 0
      vertex 4.21608 -22.1015 0
    endloop
  endfacet
  facet normal -0 0 1
    outer loop
      vertex 1.01186 -5.30435 0
      vertex 4.21608 -22.1015 0
      vertex 1.66869 -5.1357 0
    endloop
  endfacet
  facet normal 0 0 1
    outer loop
      vertex 4.21608 -22.1015 0
      vertex 1.01186 -5.30435 0
      vertex 1.41279 -22.4556 0
    endloop
  endfacet
  facet normal -0 0 1
    outer loop
      vertex 0.339068 -5.38934 0
      vertex 1.41279 -22.4556 0
      vertex 1.01186 -5.30435 0
    endloop
  endfacet
  facet normal -0 0 1
    outer loop
      vertex -0.339068 -5.38934 0
      vertex 1.41279 -22.4556 0
      vertex 0.339068 -5.38934 0
    endloop
  endfacet
  facet normal 0 0 1
    outer loop
      vertex -1.41279 -22.4556 0
      vertex -0.339068 -5.38934 0
      vertex -1.01186 -5.30435 0
    endloop
  endfacet
  facet normal 0 0 1
    outer loop
      vertex -0.339068 -5.38934 0
      vertex -1.41279 -22.4556 0
      vertex 1.41279 -22.4556 0
    endloop
  endfacet
  facet normal 0 0 1
    outer loop
      vertex -4.21608 -22.1015 0
      vertex -1.01186 -5.30435 0
      vertex -1.66869 -5.1357 0
    endloop
  endfacet
  facet normal 0 0 1
    outer loop
      vertex -6.95288 -21.3988 0
      vertex -1.66869 -5.1357 0
      vertex -2.29921 -4.88607 0
    endloop
  endfacet
  facet normal 0 0 1
    outer loop
      vertex -9.58003 -20.3586 0
      vertex -2.29921 -4.88607 0
      vertex -2.89346 -4.55937 0
    endloop
  endfacet
  facet normal 0 0 1
    outer loop
      vertex -12.0561 -18.9974 0
      vertex -2.89346 -4.55937 0
      vertex -3.44209 -4.16077 0
    endloop
  endfacet
  facet normal 0 0 1
    outer loop
      vertex -14.342 -17.3365 0
      vertex -3.44209 -4.16077 0
      vertex -3.93643 -3.69655 0
    endloop
  endfacet
  facet normal 0 0 1
    outer loop
      vertex -1.01186 -5.30435 0
      vertex -4.21608 -22.1015 0
      vertex -1.41279 -22.4556 0
    endloop
  endfacet
  facet normal 0 0 1
    outer loop
      vertex -16.4018 -15.4023 0
      vertex -3.93643 -3.69655 0
      vertex -4.36869 -3.17404 0
    endloop
  endfacet
  facet normal 0 0 1
    outer loop
      vertex -18.2029 -13.2252 0
      vertex -4.36869 -3.17404 0
      vertex -4.73206 -2.60147 0
    endloop
  endfacet
  facet normal 0 0 1
    outer loop
      vertex -19.7169 -10.8395 0
      vertex -4.73206 -2.60147 0
      vertex -5.02079 -1.98787 0
    endloop
  endfacet
  facet normal 0 0 1
    outer loop
      vertex -20.92 -8.2828 0
      vertex -5.02079 -1.98787 0
      vertex -5.23035 -1.34293 0
    endloop
  endfacet
  facet normal 0 0 1
    outer loop
      vertex -21.7931 -5.59552 0
      vertex -5.23035 -1.34293 0
      vertex -5.35742 -0.676799 0
    endloop
  endfacet
  facet normal 0 0 1
    outer loop
      vertex -22.3226 -2.82 0
      vertex -5.35742 -0.676799 0
      vertex -5.4 0 0
    endloop
  endfacet
  facet normal 0 0 1
    outer loop
      vertex -4.36869 3.17404 0
      vertex -18.2029 13.2252 0
      vertex -4.73206 2.60147 0
    endloop
  endfacet
  facet normal 0 0 1
    outer loop
      vertex -1.66869 -5.1357 0
      vertex -6.95288 -21.3988 0
      vertex -4.21608 -22.1015 0
    endloop
  endfacet
  facet normal -0 0 1
    outer loop
      vertex -19.7169 10.8395 0
      vertex -4.73206 2.60147 0
      vertex -18.2029 13.2252 0
    endloop
  endfacet
  facet normal 0 0 1
    outer loop
      vertex -2.29921 -4.88607 0
      vertex -9.58003 -20.3586 0
      vertex -6.95288 -21.3988 0
    endloop
  endfacet
  facet normal 0 0 1
    outer loop
      vertex -4.73206 2.60147 0
      vertex -19.7169 10.8395 0
      vertex -5.02079 1.98787 0
    endloop
  endfacet
  facet normal 0 0 1
    outer loop
      vertex -2.89346 -4.55937 0
      vertex -12.0561 -18.9974 0
      vertex -9.58003 -20.3586 0
    endloop
  endfacet
  facet normal -0 0 1
    outer loop
      vertex -20.92 8.2828 0
      vertex -5.02079 1.98787 0
      vertex -19.7169 10.8395 0
    endloop
  endfacet
  facet normal 0 0 1
    outer loop
      vertex -3.44209 -4.16077 0
      vertex -14.342 -17.3365 0
      vertex -12.0561 -18.9974 0
    endloop
  endfacet
  facet normal 0 0 1
    outer loop
      vertex -5.02079 1.98787 0
      vertex -20.92 8.2828 0
      vertex -5.23035 1.34293 0
    endloop
  endfacet
  facet normal 0 0 1
    outer loop
      vertex -3.93643 -3.69655 0
      vertex -16.4018 -15.4023 0
      vertex -14.342 -17.3365 0
    endloop
  endfacet
  facet normal -0 0 1
    outer loop
      vertex -21.7931 5.59552 0
      vertex -5.23035 1.34293 0
      vertex -20.92 8.2828 0
    endloop
  endfacet
  facet normal 0 0 1
    outer loop
      vertex -4.36869 -3.17404 0
      vertex -18.2029 -13.2252 0
      vertex -16.4018 -15.4023 0
    endloop
  endfacet
  facet normal 0 0 1
    outer loop
      vertex -5.23035 1.34293 0
      vertex -21.7931 5.59552 0
      vertex -5.35742 0.676799 0
    endloop
  endfacet
  facet normal 0 0 1
    outer loop
      vertex -4.73206 -2.60147 0
      vertex -19.7169 -10.8395 0
      vertex -18.2029 -13.2252 0
    endloop
  endfacet
  facet normal -0 0 1
    outer loop
      vertex -22.3226 2.82 0
      vertex -5.35742 0.676799 0
      vertex -21.7931 5.59552 0
    endloop
  endfacet
  facet normal 0 0 1
    outer loop
      vertex -5.02079 -1.98787 0
      vertex -20.92 -8.2828 0
      vertex -19.7169 -10.8395 0
    endloop
  endfacet
  facet normal 0 0 1
    outer loop
      vertex -5.35742 0.676799 0
      vertex -22.3226 2.82 0
      vertex -5.4 0 0
    endloop
  endfacet
  facet normal 0 0 1
    outer loop
      vertex -5.23035 -1.34293 0
      vertex -21.7931 -5.59552 0
      vertex -20.92 -8.2828 0
    endloop
  endfacet
  facet normal 0 0 1
    outer loop
      vertex -22.5 0 0
      vertex -5.4 0 0
      vertex -22.3226 2.82 0
    endloop
  endfacet
  facet normal 0 0 1
    outer loop
      vertex -5.35742 -0.676799 0
      vertex -22.3226 -2.82 0
      vertex -21.7931 -5.59552 0
    endloop
  endfacet
  facet normal 0 0 1
    outer loop
      vertex -5.4 0 0
      vertex -22.5 0 0
      vertex -22.3226 -2.82 0
    endloop
  endfacet
  facet normal 0 0 -1
    outer loop
      vertex 2.875 0 -9
      vertex 22.5 0 -9
      vertex 22.3226 -2.82 -9
    endloop
  endfacet
  facet normal 0 0 -1
    outer loop
      vertex 2.85233 -0.360332 -9
      vertex 22.3226 -2.82 -9
      vertex 21.7931 -5.59552 -9
    endloop
  endfacet
  facet normal 0 0 -1
    outer loop
      vertex 22.5 0 -9
      vertex 2.875 0 -9
      vertex 22.3226 2.82 -9
    endloop
  endfacet
  facet normal 0 0 -1
    outer loop
      vertex 2.78468 -0.714983 -9
      vertex 21.7931 -5.59552 -9
      vertex 20.92 -8.2828 -9
    endloop
  endfacet
  facet normal 0 0 -1
    outer loop
      vertex 2.85233 0.360332 -9
      vertex 22.3226 2.82 -9
      vertex 2.875 0 -9
    endloop
  endfacet
  facet normal 0 0 -1
    outer loop
      vertex 2.67311 -1.05836 -9
      vertex 20.92 -8.2828 -9
      vertex 19.7169 -10.8395 -9
    endloop
  endfacet
  facet normal -0 0 -1
    outer loop
      vertex 22.3226 2.82 -9
      vertex 2.85233 0.360332 -9
      vertex 21.7931 5.59552 -9
    endloop
  endfacet
  facet normal 0 0 -1
    outer loop
      vertex 2.51938 -1.38504 -9
      vertex 19.7169 -10.8395 -9
      vertex 18.2029 -13.2252 -9
    endloop
  endfacet
  facet normal 0 0 -1
    outer loop
      vertex 2.78468 0.714983 -9
      vertex 21.7931 5.59552 -9
      vertex 2.85233 0.360332 -9
    endloop
  endfacet
  facet normal 0 0 -1
    outer loop
      vertex 2.32592 -1.68988 -9
      vertex 18.2029 -13.2252 -9
      vertex 16.4018 -15.4023 -9
    endloop
  endfacet
  facet normal -0 0 -1
    outer loop
      vertex 21.7931 5.59552 -9
      vertex 2.78468 0.714983 -9
      vertex 20.92 8.2828 -9
    endloop
  endfacet
  facet normal 0 0 -1
    outer loop
      vertex 2.09578 -1.96807 -9
      vertex 16.4018 -15.4023 -9
      vertex 14.342 -17.3365 -9
    endloop
  endfacet
  facet normal 0 0 -1
    outer loop
      vertex 2.67311 1.05836 -9
      vertex 20.92 8.2828 -9
      vertex 2.78468 0.714983 -9
    endloop
  endfacet
  facet normal 0 0 -1
    outer loop
      vertex 1.83259 -2.21523 -9
      vertex 14.342 -17.3365 -9
      vertex 12.0561 -18.9974 -9
    endloop
  endfacet
  facet normal -0 0 -1
    outer loop
      vertex 20.92 8.2828 -9
      vertex 2.67311 1.05836 -9
      vertex 19.7169 10.8395 -9
    endloop
  endfacet
  facet normal 0 0 -1
    outer loop
      vertex 1.5405 -2.42744 -9
      vertex 12.0561 -18.9974 -9
      vertex 9.58003 -20.3586 -9
    endloop
  endfacet
  facet normal 0 0 -1
    outer loop
      vertex 2.51938 1.38504 -9
      vertex 19.7169 10.8395 -9
      vertex 2.67311 1.05836 -9
    endloop
  endfacet
  facet normal 0 0 -1
    outer loop
      vertex 1.22412 -2.60138 -9
      vertex 9.58003 -20.3586 -9
      vertex 6.95288 -21.3988 -9
    endloop
  endfacet
  facet normal -0 0 -1
    outer loop
      vertex 19.7169 10.8395 -9
      vertex 2.51938 1.38504 -9
      vertex 18.2029 13.2252 -9
    endloop
  endfacet
  facet normal 0 0 -1
    outer loop
      vertex 0.888423 -2.73429 -9
      vertex 6.95288 -21.3988 -9
      vertex 4.21608 -22.1015 -9
    endloop
  endfacet
  facet normal 0 0 -1
    outer loop
      vertex 2.32592 1.68988 -9
      vertex 18.2029 13.2252 -9
      vertex 2.51938 1.38504 -9
    endloop
  endfacet
  facet normal -0 0 -1
    outer loop
      vertex 18.2029 13.2252 -9
      vertex 2.32592 1.68988 -9
      vertex 16.4018 15.4023 -9
    endloop
  endfacet
  facet normal 0 0 -1
    outer loop
      vertex 22.3226 -2.82 -9
      vertex 2.85233 -0.360332 -9
      vertex 2.875 0 -9
    endloop
  endfacet
  facet normal 0 0 -1
    outer loop
      vertex 21.7931 -5.59552 -9
      vertex 2.78468 -0.714983 -9
      vertex 2.85233 -0.360332 -9
    endloop
  endfacet
  facet normal 0 0 -1
    outer loop
      vertex 20.92 -8.2828 -9
      vertex 2.67311 -1.05836 -9
      vertex 2.78468 -0.714983 -9
    endloop
  endfacet
  facet normal 0 0 -1
    outer loop
      vertex 19.7169 -10.8395 -9
      vertex 2.51938 -1.38504 -9
      vertex 2.67311 -1.05836 -9
    endloop
  endfacet
  facet normal 0 0 -1
    outer loop
      vertex 18.2029 -13.2252 -9
      vertex 2.32592 -1.68988 -9
      vertex 2.51938 -1.38504 -9
    endloop
  endfacet
  facet normal 0 0 -1
    outer loop
      vertex 16.4018 -15.4023 -9
      vertex 2.09578 -1.96807 -9
      vertex 2.32592 -1.68988 -9
    endloop
  endfacet
  facet normal 0 0 -1
    outer loop
      vertex 14.342 -17.3365 -9
      vertex 1.83259 -2.21523 -9
      vertex 2.09578 -1.96807 -9
    endloop
  endfacet
  facet normal 0 0 -1
    outer loop
      vertex 12.0561 -18.9974 -9
      vertex 1.5405 -2.42744 -9
      vertex 1.83259 -2.21523 -9
    endloop
  endfacet
  facet normal 0 0 -1
    outer loop
      vertex 0.538721 -2.82408 -9
      vertex 4.21608 -22.1015 -9
      vertex 1.41279 -22.4556 -9
    endloop
  endfacet
  facet normal 0 0 -1
    outer loop
      vertex 9.58003 -20.3586 -9
      vertex 1.22412 -2.60138 -9
      vertex 1.5405 -2.42744 -9
    endloop
  endfacet
  facet normal 0 0 -1
    outer loop
      vertex 6.95288 -21.3988 -9
      vertex 0.888423 -2.73429 -9
      vertex 1.22412 -2.60138 -9
    endloop
  endfacet
  facet normal 0 0 -1
    outer loop
      vertex 4.21608 -22.1015 -9
      vertex 0.538721 -2.82408 -9
      vertex 0.888423 -2.73429 -9
    endloop
  endfacet
  facet normal 0 0 -1
    outer loop
      vertex 1.41279 -22.4556 -9
      vertex 0.180522 -2.86933 -9
      vertex 0.538721 -2.82408 -9
    endloop
  endfacet
  facet normal 0 0 -1
    outer loop
      vertex 1.41279 -22.4556 -9
      vertex -0.180522 -2.86933 -9
      vertex 0.180522 -2.86933 -9
    endloop
  endfacet
  facet normal 0 0 -1
    outer loop
      vertex -1.41279 -22.4556 -9
      vertex -0.180522 -2.86933 -9
      vertex 1.41279 -22.4556 -9
    endloop
  endfacet
  facet normal -0 0 -1
    outer loop
      vertex -0.180522 -2.86933 -9
      vertex -1.41279 -22.4556 -9
      vertex -0.538721 -2.82408 -9
    endloop
  endfacet
  facet normal 0 0 -1
    outer loop
      vertex -4.21608 -22.1015 -9
      vertex -0.538721 -2.82408 -9
      vertex -1.41279 -22.4556 -9
    endloop
  endfacet
  facet normal -0 0 -1
    outer loop
      vertex -0.538721 -2.82408 -9
      vertex -4.21608 -22.1015 -9
      vertex -0.888423 -2.73429 -9
    endloop
  endfacet
  facet normal 0 0 -1
    outer loop
      vertex -6.95288 -21.3988 -9
      vertex -0.888423 -2.73429 -9
      vertex -4.21608 -22.1015 -9
    endloop
  endfacet
  facet normal -0 0 -1
    outer loop
      vertex -0.888423 -2.73429 -9
      vertex -6.95288 -21.3988 -9
      vertex -1.22412 -2.60138 -9
    endloop
  endfacet
  facet normal 0 0 -1
    outer loop
      vertex -9.58003 -20.3586 -9
      vertex -1.22412 -2.60138 -9
      vertex -6.95288 -21.3988 -9
    endloop
  endfacet
  facet normal -0 0 -1
    outer loop
      vertex -1.22412 -2.60138 -9
      vertex -9.58003 -20.3586 -9
      vertex -1.5405 -2.42744 -9
    endloop
  endfacet
  facet normal 0 0 -1
    outer loop
      vertex -12.0561 -18.9974 -9
      vertex -1.5405 -2.42744 -9
      vertex -9.58003 -20.3586 -9
    endloop
  endfacet
  facet normal -0 0 -1
    outer loop
      vertex -1.5405 -2.42744 -9
      vertex -12.0561 -18.9974 -9
      vertex -1.83259 -2.21523 -9
    endloop
  endfacet
  facet normal 0 0 -1
    outer loop
      vertex -14.342 -17.3365 -9
      vertex -1.83259 -2.21523 -9
      vertex -12.0561 -18.9974 -9
    endloop
  endfacet
  facet normal -0 0 -1
    outer loop
      vertex -1.83259 -2.21523 -9
      vertex -14.342 -17.3365 -9
      vertex -2.09578 -1.96807 -9
    endloop
  endfacet
  facet normal -0 0 -1
    outer loop
      vertex -2.09578 -1.96807 -9
      vertex -16.4018 -15.4023 -9
      vertex -2.32592 -1.68988 -9
    endloop
  endfacet
  facet normal 0 0 -1
    outer loop
      vertex -16.4018 -15.4023 -9
      vertex -2.09578 -1.96807 -9
      vertex -14.342 -17.3365 -9
    endloop
  endfacet
  facet normal 0 0 -1
    outer loop
      vertex 2.09578 1.96807 -9
      vertex 16.4018 15.4023 -9
      vertex 2.32592 1.68988 -9
    endloop
  endfacet
  facet normal -0 0 -1
    outer loop
      vertex 16.4018 15.4023 -9
      vertex 2.09578 1.96807 -9
      vertex 14.342 17.3365 -9
    endloop
  endfacet
  facet normal 0 0 -1
    outer loop
      vertex 1.83259 2.21523 -9
      vertex 14.342 17.3365 -9
      vertex 2.09578 1.96807 -9
    endloop
  endfacet
  facet normal -0 0 -1
    outer loop
      vertex 14.342 17.3365 -9
      vertex 1.83259 2.21523 -9
      vertex 12.0561 18.9974 -9
    endloop
  endfacet
  facet normal 0 0 -1
    outer loop
      vertex 1.5405 2.42744 -9
      vertex 12.0561 18.9974 -9
      vertex 1.83259 2.21523 -9
    endloop
  endfacet
  facet normal -0 0 -1
    outer loop
      vertex 12.0561 18.9974 -9
      vertex 1.5405 2.42744 -9
      vertex 9.58003 20.3586 -9
    endloop
  endfacet
  facet normal 0 0 -1
    outer loop
      vertex 1.22412 2.60138 -9
      vertex 9.58003 20.3586 -9
      vertex 1.5405 2.42744 -9
    endloop
  endfacet
  facet normal -0 0 -1
    outer loop
      vertex 9.58003 20.3586 -9
      vertex 1.22412 2.60138 -9
      vertex 6.95288 21.3988 -9
    endloop
  endfacet
  facet normal 0 0 -1
    outer loop
      vertex 0.888423 2.73429 -9
      vertex 6.95288 21.3988 -9
      vertex 1.22412 2.60138 -9
    endloop
  endfacet
  facet normal -0 0 -1
    outer loop
      vertex 6.95288 21.3988 -9
      vertex 0.888423 2.73429 -9
      vertex 4.21608 22.1015 -9
    endloop
  endfacet
  facet normal 0 0 -1
    outer loop
      vertex 0.538721 2.82408 -9
      vertex 4.21608 22.1015 -9
      vertex 0.888423 2.73429 -9
    endloop
  endfacet
  facet normal -0 0 -1
    outer loop
      vertex 4.21608 22.1015 -9
      vertex 0.538721 2.82408 -9
      vertex 1.41279 22.4556 -9
    endloop
  endfacet
  facet normal 0 0 -1
    outer loop
      vertex 0.180522 2.86933 -9
      vertex 1.41279 22.4556 -9
      vertex 0.538721 2.82408 -9
    endloop
  endfacet
  facet normal 0 0 -1
    outer loop
      vertex -0.180522 2.86933 -9
      vertex 1.41279 22.4556 -9
      vertex 0.180522 2.86933 -9
    endloop
  endfacet
  facet normal 0 0 -1
    outer loop
      vertex -1.41279 22.4556 -9
      vertex -0.180522 2.86933 -9
      vertex -0.538721 2.82408 -9
    endloop
  endfacet
  facet normal 0 0 -1
    outer loop
      vertex -4.21608 22.1015 -9
      vertex -0.538721 2.82408 -9
      vertex -0.888423 2.73429 -9
    endloop
  endfacet
  facet normal 0 0 -1
    outer loop
      vertex -6.95288 21.3988 -9
      vertex -0.888423 2.73429 -9
      vertex -1.22412 2.60138 -9
    endloop
  endfacet
  facet normal 0 0 -1
    outer loop
      vertex -0.180522 2.86933 -9
      vertex -1.41279 22.4556 -9
      vertex 1.41279 22.4556 -9
    endloop
  endfacet
  facet normal 0 0 -1
    outer loop
      vertex -9.58003 20.3586 -9
      vertex -1.22412 2.60138 -9
      vertex -1.5405 2.42744 -9
    endloop
  endfacet
  facet normal 0 0 -1
    outer loop
      vertex -12.0561 18.9974 -9
      vertex -1.5405 2.42744 -9
      vertex -1.83259 2.21523 -9
    endloop
  endfacet
  facet normal 0 0 -1
    outer loop
      vertex -14.342 17.3365 -9
      vertex -1.83259 2.21523 -9
      vertex -2.09578 1.96807 -9
    endloop
  endfacet
  facet normal 0 0 -1
    outer loop
      vertex -16.4018 15.4023 -9
      vertex -2.09578 1.96807 -9
      vertex -2.32592 1.68988 -9
    endloop
  endfacet
  facet normal 0 0 -1
    outer loop
      vertex -18.2029 13.2252 -9
      vertex -2.32592 1.68988 -9
      vertex -2.51938 1.38504 -9
    endloop
  endfacet
  facet normal 0 0 -1
    outer loop
      vertex -19.7169 10.8395 -9
      vertex -2.51938 1.38504 -9
      vertex -2.67311 1.05836 -9
    endloop
  endfacet
  facet normal 0 0 -1
    outer loop
      vertex -20.92 8.2828 -9
      vertex -2.67311 1.05836 -9
      vertex -2.78468 0.714983 -9
    endloop
  endfacet
  facet normal 0 0 -1
    outer loop
      vertex -21.7931 5.59552 -9
      vertex -2.78468 0.714983 -9
      vertex -2.85233 0.360332 -9
    endloop
  endfacet
  facet normal 0 0 -1
    outer loop
      vertex -0.538721 2.82408 -9
      vertex -4.21608 22.1015 -9
      vertex -1.41279 22.4556 -9
    endloop
  endfacet
  facet normal 0 0 -1
    outer loop
      vertex -22.3226 2.82 -9
      vertex -2.85233 0.360332 -9
      vertex -2.875 0 -9
    endloop
  endfacet
  facet normal 0 0 -1
    outer loop
      vertex -18.2029 -13.2252 -9
      vertex -2.32592 -1.68988 -9
      vertex -16.4018 -15.4023 -9
    endloop
  endfacet
  facet normal -0 0 -1
    outer loop
      vertex -2.32592 -1.68988 -9
      vertex -18.2029 -13.2252 -9
      vertex -2.51938 -1.38504 -9
    endloop
  endfacet
  facet normal 0 0 -1
    outer loop
      vertex -0.888423 2.73429 -9
      vertex -6.95288 21.3988 -9
      vertex -4.21608 22.1015 -9
    endloop
  endfacet
  facet normal 0 0 -1
    outer loop
      vertex -19.7169 -10.8395 -9
      vertex -2.51938 -1.38504 -9
      vertex -18.2029 -13.2252 -9
    endloop
  endfacet
  facet normal 0 0 -1
    outer loop
      vertex -1.22412 2.60138 -9
      vertex -9.58003 20.3586 -9
      vertex -6.95288 21.3988 -9
    endloop
  endfacet
  facet normal -0 0 -1
    outer loop
      vertex -2.51938 -1.38504 -9
      vertex -19.7169 -10.8395 -9
      vertex -2.67311 -1.05836 -9
    endloop
  endfacet
  facet normal 0 0 -1
    outer loop
      vertex -1.5405 2.42744 -9
      vertex -12.0561 18.9974 -9
      vertex -9.58003 20.3586 -9
    endloop
  endfacet
  facet normal 0 0 -1
    outer loop
      vertex -20.92 -8.2828 -9
      vertex -2.67311 -1.05836 -9
      vertex -19.7169 -10.8395 -9
    endloop
  endfacet
  facet normal 0 0 -1
    outer loop
      vertex -1.83259 2.21523 -9
      vertex -14.342 17.3365 -9
      vertex -12.0561 18.9974 -9
    endloop
  endfacet
  facet normal -0 0 -1
    outer loop
      vertex -2.67311 -1.05836 -9
      vertex -20.92 -8.2828 -9
      vertex -2.78468 -0.714983 -9
    endloop
  endfacet
  facet normal 0 0 -1
    outer loop
      vertex -2.09578 1.96807 -9
      vertex -16.4018 15.4023 -9
      vertex -14.342 17.3365 -9
    endloop
  endfacet
  facet normal 0 0 -1
    outer loop
      vertex -21.7931 -5.59552 -9
      vertex -2.78468 -0.714983 -9
      vertex -20.92 -8.2828 -9
    endloop
  endfacet
  facet normal 0 0 -1
    outer loop
      vertex -2.32592 1.68988 -9
      vertex -18.2029 13.2252 -9
      vertex -16.4018 15.4023 -9
    endloop
  endfacet
  facet normal -0 0 -1
    outer loop
      vertex -2.78468 -0.714983 -9
      vertex -21.7931 -5.59552 -9
      vertex -2.85233 -0.360332 -9
    endloop
  endfacet
  facet normal 0 0 -1
    outer loop
      vertex -2.51938 1.38504 -9
      vertex -19.7169 10.8395 -9
      vertex -18.2029 13.2252 -9
    endloop
  endfacet
  facet normal 0 0 -1
    outer loop
      vertex -22.3226 -2.82 -9
      vertex -2.85233 -0.360332 -9
      vertex -21.7931 -5.59552 -9
    endloop
  endfacet
  facet normal 0 0 -1
    outer loop
      vertex -2.67311 1.05836 -9
      vertex -20.92 8.2828 -9
      vertex -19.7169 10.8395 -9
    endloop
  endfacet
  facet normal -0 0 -1
    outer loop
      vertex -2.85233 -0.360332 -9
      vertex -22.3226 -2.82 -9
      vertex -2.875 0 -9
    endloop
  endfacet
  facet normal 0 0 -1
    outer loop
      vertex -2.78468 0.714983 -9
      vertex -21.7931 5.59552 -9
      vertex -20.92 8.2828 -9
    endloop
  endfacet
  facet normal 0 0 -1
    outer loop
      vertex -22.5 0 -9
      vertex -2.875 0 -9
      vertex -22.3226 -2.82 -9
    endloop
  endfacet
  facet normal 0 0 -1
    outer loop
      vertex -2.85233 0.360332 -9
      vertex -22.3226 2.82 -9
      vertex -21.7931 5.59552 -9
    endloop
  endfacet
  facet normal 0 0 -1
    outer loop
      vertex -2.875 0 -9
      vertex -22.5 0 -9
      vertex -22.3226 2.82 -9
    endloop
  endfacet
  facet normal -0.647164 0.535383 0.542718
    outer loop
      vertex 3.93643 -3.69655 0
      vertex 4.36869 -3.17404 0
      vertex 2.09578 -1.96807 -3.9
    endloop
  endfacet
  facet normal -0.838258 -0.052738 0.542718
    outer loop
      vertex 5.4 0 0
      vertex 5.35742 0.676799 0
      vertex 2.875 0 -3.9
    endloop
  endfacet
  facet normal -0.838258 -0.0527383 0.542718
    outer loop
      vertex 2.875 0 -3.9
      vertex 5.35742 0.676799 0
      vertex 2.85233 0.360332 -3.9
    endloop
  endfacet
  facet normal -0.838258 0.0527383 0.542718
    outer loop
      vertex 5.35742 -0.676799 0
      vertex 2.875 0 -3.9
      vertex 2.85233 -0.360332 -3.9
    endloop
  endfacet
  facet normal 0.825039 0.157377 0.542718
    outer loop
      vertex -2.78468 -0.714983 -3.9
      vertex -2.85233 -0.360332 -3.9
      vertex -5.35742 -0.676799 0
    endloop
  endfacet
  facet normal -0.105267 0.833293 0.542717
    outer loop
      vertex 0.339068 -5.38934 0
      vertex 0.538721 -2.82408 -3.9
      vertex 0.180522 -2.86933 -3.9
    endloop
  endfacet
  facet normal 0.105265 -0.833293 0.542717
    outer loop
      vertex -0.538721 2.82408 -3.9
      vertex -0.339068 5.38934 0
      vertex -1.01186 5.30435 0
    endloop
  endfacet
  facet normal -0.798805 0.259555 0.542718
    outer loop
      vertex 5.02079 -1.98787 0
      vertex 5.23035 -1.34293 0
      vertex 2.78468 -0.714983 -3.9
    endloop
  endfacet
  facet normal -0.838258 0.052738 0.542718
    outer loop
      vertex 5.35742 -0.676799 0
      vertex 5.4 0 0
      vertex 2.875 0 -3.9
    endloop
  endfacet
  facet normal 0.647164 0.535383 0.542718
    outer loop
      vertex -3.93643 -3.69655 0
      vertex -2.09578 -1.96807 -3.9
      vertex -4.36869 -3.17404 0
    endloop
  endfacet
  facet normal 0.493687 0.679507 0.542718
    outer loop
      vertex -2.89346 -4.55937 0
      vertex -1.5405 -2.42744 -3.9
      vertex -3.44209 -4.16077 0
    endloop
  endfacet
  facet normal -0.798807 0.259548 0.542717
    outer loop
      vertex 5.02079 -1.98787 0
      vertex 2.78468 -0.714983 -3.9
      vertex 2.67311 -1.05836 -3.9
    endloop
  endfacet
  facet normal -0.759973 0.35763 0.542717
    outer loop
      vertex 5.02079 -1.98787 0
      vertex 2.67311 -1.05836 -3.9
      vertex 2.51938 -1.38504 -3.9
    endloop
  endfacet
  facet normal -0.404647 0.736014 0.542719
    outer loop
      vertex 2.89346 -4.55937 0
      vertex 1.5405 -2.42744 -3.9
      vertex 1.22412 -2.60138 -3.9
    endloop
  endfacet
  facet normal -0.40464 0.736019 0.542718
    outer loop
      vertex 2.29921 -4.88607 0
      vertex 2.89346 -4.55937 0
      vertex 1.22412 -2.60138 -3.9
    endloop
  endfacet
  facet normal 0.40464 0.736019 0.542718
    outer loop
      vertex -2.29921 -4.88607 0
      vertex -1.22412 -2.60138 -3.9
      vertex -2.89346 -4.55937 0
    endloop
  endfacet
  facet normal 0.709161 0.450053 0.542719
    outer loop
      vertex -2.32592 -1.68988 -3.9
      vertex -2.51938 -1.38504 -3.9
      vertex -4.36869 -3.17404 0
    endloop
  endfacet
  facet normal 0.493681 -0.679512 0.542717
    outer loop
      vertex -1.83259 2.21523 -3.9
      vertex -1.5405 2.42744 -3.9
      vertex -3.44209 4.16077 0
    endloop
  endfacet
  facet normal 0.709161 -0.450053 0.542719
    outer loop
      vertex -2.51938 1.38504 -3.9
      vertex -2.32592 1.68988 -3.9
      vertex -4.36869 3.17404 0
    endloop
  endfacet
  facet normal -0.208884 -0.813527 0.542717
    outer loop
      vertex 1.66869 5.1357 0
      vertex 1.01186 5.30435 0
      vertex 0.538721 2.82408 -3.9
    endloop
  endfacet
  facet normal -0.647164 -0.535383 0.542718
    outer loop
      vertex 4.36869 3.17404 0
      vertex 3.93643 3.69655 0
      vertex 2.09578 1.96807 -3.9
    endloop
  endfacet
  facet normal -0.825039 0.157377 0.542718
    outer loop
      vertex 5.35742 -0.676799 0
      vertex 2.85233 -0.360332 -3.9
      vertex 2.78468 -0.714983 -3.9
    endloop
  endfacet
  facet normal -0.825038 0.157383 0.542718
    outer loop
      vertex 5.23035 -1.34293 0
      vertex 5.35742 -0.676799 0
      vertex 2.78468 -0.714983 -3.9
    endloop
  endfacet
  facet normal -0.70916 0.450054 0.542719
    outer loop
      vertex 4.36869 -3.17404 0
      vertex 4.73206 -2.60147 0
      vertex 2.51938 -1.38504 -3.9
    endloop
  endfacet
  facet normal -0.759981 0.35761 0.542719
    outer loop
      vertex 4.73206 -2.60147 0
      vertex 5.02079 -1.98787 0
      vertex 2.51938 -1.38504 -3.9
    endloop
  endfacet
  facet normal -0.709161 0.450053 0.542719
    outer loop
      vertex 4.36869 -3.17404 0
      vertex 2.51938 -1.38504 -3.9
      vertex 2.32592 -1.68988 -3.9
    endloop
  endfacet
  facet normal -0.647164 0.535383 0.542718
    outer loop
      vertex 4.36869 -3.17404 0
      vertex 2.32592 -1.68988 -3.9
      vertex 2.09578 -1.96807 -3.9
    endloop
  endfacet
  facet normal -0.574964 0.612269 0.542718
    outer loop
      vertex 3.44209 -4.16077 0
      vertex 3.93643 -3.69655 0
      vertex 1.83259 -2.21523 -3.9
    endloop
  endfacet
  facet normal -0.493681 0.679512 0.542717
    outer loop
      vertex 3.44209 -4.16077 0
      vertex 1.83259 -2.21523 -3.9
      vertex 1.5405 -2.42744 -3.9
    endloop
  endfacet
  facet normal -0.309182 0.780938 0.542718
    outer loop
      vertex 1.66869 -5.1357 0
      vertex 2.29921 -4.88607 0
      vertex 1.22412 -2.60138 -3.9
    endloop
  endfacet
  facet normal 0.208882 0.813527 0.542717
    outer loop
      vertex -0.538721 -2.82408 -3.9
      vertex -0.888423 -2.73429 -3.9
      vertex -1.66869 -5.1357 0
    endloop
  endfacet
  facet normal 0.105265 0.833293 0.542717
    outer loop
      vertex -0.339068 -5.38934 0
      vertex -0.538721 -2.82408 -3.9
      vertex -1.01186 -5.30435 0
    endloop
  endfacet
  facet normal 0.493681 0.679512 0.542717
    outer loop
      vertex -1.5405 -2.42744 -3.9
      vertex -1.83259 -2.21523 -3.9
      vertex -3.44209 -4.16077 0
    endloop
  endfacet
  facet normal 0.70916 0.450054 0.542719
    outer loop
      vertex -4.36869 -3.17404 0
      vertex -2.51938 -1.38504 -3.9
      vertex -4.73206 -2.60147 0
    endloop
  endfacet
  facet normal 0.759981 0.35761 0.542719
    outer loop
      vertex -4.73206 -2.60147 0
      vertex -2.51938 -1.38504 -3.9
      vertex -5.02079 -1.98787 0
    endloop
  endfacet
  facet normal 0.759973 0.35763 0.542717
    outer loop
      vertex -2.51938 -1.38504 -3.9
      vertex -2.67311 -1.05836 -3.9
      vertex -5.02079 -1.98787 0
    endloop
  endfacet
  facet normal 0.838258 0.052738 0.542718
    outer loop
      vertex -5.35742 -0.676799 0
      vertex -2.875 0 -3.9
      vertex -5.4 0 0
    endloop
  endfacet
  facet normal 0 -0.839916 0.542717
    outer loop
      vertex -0.180522 2.86933 -3.9
      vertex 0.339068 5.38934 0
      vertex -0.339068 5.38934 0
    endloop
  endfacet
  facet normal 0 -0.839916 0.542717
    outer loop
      vertex 0.339068 5.38934 0
      vertex -0.180522 2.86933 -3.9
      vertex 0.180522 2.86933 -3.9
    endloop
  endfacet
  facet normal -0.759981 -0.35761 0.542719
    outer loop
      vertex 5.02079 1.98787 0
      vertex 4.73206 2.60147 0
      vertex 2.51938 1.38504 -3.9
    endloop
  endfacet
  facet normal -0.70916 -0.450054 0.542719
    outer loop
      vertex 4.73206 2.60147 0
      vertex 4.36869 3.17404 0
      vertex 2.51938 1.38504 -3.9
    endloop
  endfacet
  facet normal -0.208884 0.813527 0.542717
    outer loop
      vertex 1.01186 -5.30435 0
      vertex 1.66869 -5.1357 0
      vertex 0.538721 -2.82408 -3.9
    endloop
  endfacet
  facet normal -0.105265 0.833293 0.542717
    outer loop
      vertex 1.01186 -5.30435 0
      vertex 0.538721 -2.82408 -3.9
      vertex 0.339068 -5.38934 0
    endloop
  endfacet
  facet normal -0.493687 0.679507 0.542718
    outer loop
      vertex 2.89346 -4.55937 0
      vertex 3.44209 -4.16077 0
      vertex 1.5405 -2.42744 -3.9
    endloop
  endfacet
  facet normal -0.574971 0.612262 0.542719
    outer loop
      vertex 3.93643 -3.69655 0
      vertex 2.09578 -1.96807 -3.9
      vertex 1.83259 -2.21523 -3.9
    endloop
  endfacet
  facet normal 0.798805 0.259555 0.542718
    outer loop
      vertex -5.02079 -1.98787 0
      vertex -2.78468 -0.714983 -3.9
      vertex -5.23035 -1.34293 0
    endloop
  endfacet
  facet normal 0.825038 0.157383 0.542718
    outer loop
      vertex -5.23035 -1.34293 0
      vertex -2.78468 -0.714983 -3.9
      vertex -5.35742 -0.676799 0
    endloop
  endfacet
  facet normal 0.309182 0.780938 0.542718
    outer loop
      vertex -1.66869 -5.1357 0
      vertex -1.22412 -2.60138 -3.9
      vertex -2.29921 -4.88607 0
    endloop
  endfacet
  facet normal 0.404647 0.736014 0.542719
    outer loop
      vertex -1.22412 -2.60138 -3.9
      vertex -1.5405 -2.42744 -3.9
      vertex -2.89346 -4.55937 0
    endloop
  endfacet
  facet normal 0 0.839916 0.542717
    outer loop
      vertex 0.180522 -2.86933 -3.9
      vertex -0.339068 -5.38934 0
      vertex 0.339068 -5.38934 0
    endloop
  endfacet
  facet normal 0 0.839916 0.542717
    outer loop
      vertex -0.339068 -5.38934 0
      vertex 0.180522 -2.86933 -3.9
      vertex -0.180522 -2.86933 -3.9
    endloop
  endfacet
  facet normal 0.574971 0.612262 0.542719
    outer loop
      vertex -1.83259 -2.21523 -3.9
      vertex -2.09578 -1.96807 -3.9
      vertex -3.93643 -3.69655 0
    endloop
  endfacet
  facet normal 0.574964 0.612269 0.542718
    outer loop
      vertex -3.44209 -4.16077 0
      vertex -1.83259 -2.21523 -3.9
      vertex -3.93643 -3.69655 0
    endloop
  endfacet
  facet normal 0.647164 0.535383 0.542718
    outer loop
      vertex -2.09578 -1.96807 -3.9
      vertex -2.32592 -1.68988 -3.9
      vertex -4.36869 -3.17404 0
    endloop
  endfacet
  facet normal 0.208884 -0.813527 0.542717
    outer loop
      vertex -0.538721 2.82408 -3.9
      vertex -1.01186 5.30435 0
      vertex -1.66869 5.1357 0
    endloop
  endfacet
  facet normal 0.404647 -0.736014 0.542719
    outer loop
      vertex -1.5405 2.42744 -3.9
      vertex -1.22412 2.60138 -3.9
      vertex -2.89346 4.55937 0
    endloop
  endfacet
  facet normal 0.759981 -0.35761 0.542719
    outer loop
      vertex -2.51938 1.38504 -3.9
      vertex -4.73206 2.60147 0
      vertex -5.02079 1.98787 0
    endloop
  endfacet
  facet normal 0.70916 -0.450054 0.542719
    outer loop
      vertex -2.51938 1.38504 -3.9
      vertex -4.36869 3.17404 0
      vertex -4.73206 2.60147 0
    endloop
  endfacet
  facet normal 0.825039 -0.157377 0.542718
    outer loop
      vertex -2.85233 0.360332 -3.9
      vertex -2.78468 0.714983 -3.9
      vertex -5.35742 0.676799 0
    endloop
  endfacet
  facet normal 0.825038 -0.157383 0.542718
    outer loop
      vertex -2.78468 0.714983 -3.9
      vertex -5.23035 1.34293 0
      vertex -5.35742 0.676799 0
    endloop
  endfacet
  facet normal 0.798805 -0.259555 0.542718
    outer loop
      vertex -2.78468 0.714983 -3.9
      vertex -5.02079 1.98787 0
      vertex -5.23035 1.34293 0
    endloop
  endfacet
  facet normal -0.404647 -0.736014 0.542719
    outer loop
      vertex 1.5405 2.42744 -3.9
      vertex 2.89346 4.55937 0
      vertex 1.22412 2.60138 -3.9
    endloop
  endfacet
  facet normal -0.493681 -0.679512 0.542717
    outer loop
      vertex 1.83259 2.21523 -3.9
      vertex 3.44209 4.16077 0
      vertex 1.5405 2.42744 -3.9
    endloop
  endfacet
  facet normal -0.105267 -0.833293 0.542717
    outer loop
      vertex 0.538721 2.82408 -3.9
      vertex 0.339068 5.38934 0
      vertex 0.180522 2.86933 -3.9
    endloop
  endfacet
  facet normal 0.105267 -0.833293 0.542717
    outer loop
      vertex -0.180522 2.86933 -3.9
      vertex -0.339068 5.38934 0
      vertex -0.538721 2.82408 -3.9
    endloop
  endfacet
  facet normal -0.759973 -0.35763 0.542717
    outer loop
      vertex 2.67311 1.05836 -3.9
      vertex 5.02079 1.98787 0
      vertex 2.51938 1.38504 -3.9
    endloop
  endfacet
  facet normal -0.574971 -0.612262 0.542719
    outer loop
      vertex 2.09578 1.96807 -3.9
      vertex 3.93643 3.69655 0
      vertex 1.83259 2.21523 -3.9
    endloop
  endfacet
  facet normal -0.30919 0.780935 0.542717
    outer loop
      vertex 1.66869 -5.1357 0
      vertex 1.22412 -2.60138 -3.9
      vertex 0.888423 -2.73429 -3.9
    endloop
  endfacet
  facet normal -0.208882 0.813527 0.542717
    outer loop
      vertex 1.66869 -5.1357 0
      vertex 0.888423 -2.73429 -3.9
      vertex 0.538721 -2.82408 -3.9
    endloop
  endfacet
  facet normal 0.798807 0.259548 0.542717
    outer loop
      vertex -2.67311 -1.05836 -3.9
      vertex -2.78468 -0.714983 -3.9
      vertex -5.02079 -1.98787 0
    endloop
  endfacet
  facet normal 0.30919 0.780935 0.542717
    outer loop
      vertex -0.888423 -2.73429 -3.9
      vertex -1.22412 -2.60138 -3.9
      vertex -1.66869 -5.1357 0
    endloop
  endfacet
  facet normal 0.208884 0.813527 0.542717
    outer loop
      vertex -1.01186 -5.30435 0
      vertex -0.538721 -2.82408 -3.9
      vertex -1.66869 -5.1357 0
    endloop
  endfacet
  facet normal 0.105267 0.833293 0.542717
    outer loop
      vertex -0.339068 -5.38934 0
      vertex -0.180522 -2.86933 -3.9
      vertex -0.538721 -2.82408 -3.9
    endloop
  endfacet
  facet normal 0.40464 -0.736019 0.542718
    outer loop
      vertex -1.22412 2.60138 -3.9
      vertex -2.29921 4.88607 0
      vertex -2.89346 4.55937 0
    endloop
  endfacet
  facet normal 0.493687 -0.679507 0.542718
    outer loop
      vertex -1.5405 2.42744 -3.9
      vertex -2.89346 4.55937 0
      vertex -3.44209 4.16077 0
    endloop
  endfacet
  facet normal 0.309182 -0.780938 0.542718
    outer loop
      vertex -1.22412 2.60138 -3.9
      vertex -1.66869 5.1357 0
      vertex -2.29921 4.88607 0
    endloop
  endfacet
  facet normal 0.574971 -0.612262 0.542719
    outer loop
      vertex -2.09578 1.96807 -3.9
      vertex -1.83259 2.21523 -3.9
      vertex -3.93643 3.69655 0
    endloop
  endfacet
  facet normal 0.574964 -0.612269 0.542718
    outer loop
      vertex -1.83259 2.21523 -3.9
      vertex -3.44209 4.16077 0
      vertex -3.93643 3.69655 0
    endloop
  endfacet
  facet normal 0.759973 -0.35763 0.542717
    outer loop
      vertex -2.67311 1.05836 -3.9
      vertex -2.51938 1.38504 -3.9
      vertex -5.02079 1.98787 0
    endloop
  endfacet
  facet normal 0.838258 -0.052738 0.542718
    outer loop
      vertex -2.875 0 -3.9
      vertex -5.35742 0.676799 0
      vertex -5.4 0 0
    endloop
  endfacet
  facet normal 0.838258 -0.0527383 0.542718
    outer loop
      vertex -2.875 0 -3.9
      vertex -2.85233 0.360332 -3.9
      vertex -5.35742 0.676799 0
    endloop
  endfacet
  facet normal -0.309182 -0.780938 0.542718
    outer loop
      vertex 2.29921 4.88607 0
      vertex 1.66869 5.1357 0
      vertex 1.22412 2.60138 -3.9
    endloop
  endfacet
  facet normal -0.493687 -0.679507 0.542718
    outer loop
      vertex 3.44209 4.16077 0
      vertex 2.89346 4.55937 0
      vertex 1.5405 2.42744 -3.9
    endloop
  endfacet
  facet normal -0.208882 -0.813527 0.542717
    outer loop
      vertex 0.888423 2.73429 -3.9
      vertex 1.66869 5.1357 0
      vertex 0.538721 2.82408 -3.9
    endloop
  endfacet
  facet normal -0.105265 -0.833293 0.542717
    outer loop
      vertex 0.538721 2.82408 -3.9
      vertex 1.01186 5.30435 0
      vertex 0.339068 5.38934 0
    endloop
  endfacet
  facet normal -0.825038 -0.157383 0.542718
    outer loop
      vertex 5.35742 0.676799 0
      vertex 5.23035 1.34293 0
      vertex 2.78468 0.714983 -3.9
    endloop
  endfacet
  facet normal -0.825039 -0.157377 0.542718
    outer loop
      vertex 2.85233 0.360332 -3.9
      vertex 5.35742 0.676799 0
      vertex 2.78468 0.714983 -3.9
    endloop
  endfacet
  facet normal -0.574964 -0.612269 0.542718
    outer loop
      vertex 3.93643 3.69655 0
      vertex 3.44209 4.16077 0
      vertex 1.83259 2.21523 -3.9
    endloop
  endfacet
  facet normal -0.647164 -0.535383 0.542718
    outer loop
      vertex 2.32592 1.68988 -3.9
      vertex 4.36869 3.17404 0
      vertex 2.09578 1.96807 -3.9
    endloop
  endfacet
  facet normal -0.709161 -0.450053 0.542719
    outer loop
      vertex 2.51938 1.38504 -3.9
      vertex 4.36869 3.17404 0
      vertex 2.32592 1.68988 -3.9
    endloop
  endfacet
  facet normal 0.30919 -0.780935 0.542717
    outer loop
      vertex -1.22412 2.60138 -3.9
      vertex -0.888423 2.73429 -3.9
      vertex -1.66869 5.1357 0
    endloop
  endfacet
  facet normal 0.208882 -0.813527 0.542717
    outer loop
      vertex -0.888423 2.73429 -3.9
      vertex -0.538721 2.82408 -3.9
      vertex -1.66869 5.1357 0
    endloop
  endfacet
  facet normal 0.647164 -0.535383 0.542718
    outer loop
      vertex -2.32592 1.68988 -3.9
      vertex -2.09578 1.96807 -3.9
      vertex -4.36869 3.17404 0
    endloop
  endfacet
  facet normal 0.647164 -0.535383 0.542718
    outer loop
      vertex -2.09578 1.96807 -3.9
      vertex -3.93643 3.69655 0
      vertex -4.36869 3.17404 0
    endloop
  endfacet
  facet normal 0.798807 -0.259548 0.542717
    outer loop
      vertex -2.78468 0.714983 -3.9
      vertex -2.67311 1.05836 -3.9
      vertex -5.02079 1.98787 0
    endloop
  endfacet
  facet normal 0.838258 0.0527383 0.542718
    outer loop
      vertex -2.85233 -0.360332 -3.9
      vertex -2.875 0 -3.9
      vertex -5.35742 -0.676799 0
    endloop
  endfacet
  facet normal -0.40464 -0.736019 0.542718
    outer loop
      vertex 2.89346 4.55937 0
      vertex 2.29921 4.88607 0
      vertex 1.22412 2.60138 -3.9
    endloop
  endfacet
  facet normal -0.798807 -0.259548 0.542717
    outer loop
      vertex 2.78468 0.714983 -3.9
      vertex 5.02079 1.98787 0
      vertex 2.67311 1.05836 -3.9
    endloop
  endfacet
  facet normal -0.798805 -0.259555 0.542718
    outer loop
      vertex 5.23035 1.34293 0
      vertex 5.02079 1.98787 0
      vertex 2.78468 0.714983 -3.9
    endloop
  endfacet
  facet normal -0.30919 -0.780935 0.542717
    outer loop
      vertex 1.22412 2.60138 -3.9
      vertex 1.66869 5.1357 0
      vertex 0.888423 2.73429 -3.9
    endloop
  endfacet
  facet normal -0.998027 -0.0627901 0
    outer loop
      vertex 2.875 0 -9
      vertex 2.85233 0.360332 -3.9
      vertex 2.85233 0.360332 -9
    endloop
  endfacet
  facet normal -0.998027 -0.0627901 0
    outer loop
      vertex 2.85233 0.360332 -3.9
      vertex 2.875 0 -9
      vertex 2.875 0 -3.9
    endloop
  endfacet
  facet normal 0.998027 -0.0627901 0
    outer loop
      vertex -2.875 0 -3.9
      vertex -2.85233 0.360332 -9
      vertex -2.85233 0.360332 -3.9
    endloop
  endfacet
  facet normal 0.998027 -0.0627901 0
    outer loop
      vertex -2.85233 0.360332 -9
      vertex -2.875 0 -3.9
      vertex -2.875 0 -9
    endloop
  endfacet
  facet normal 0 -1 0
    outer loop
      vertex -0.180522 2.86933 -9
      vertex 0.180522 2.86933 -3.9
      vertex -0.180522 2.86933 -3.9
    endloop
  endfacet
  facet normal 0 -1 -0
    outer loop
      vertex 0.180522 2.86933 -3.9
      vertex -0.180522 2.86933 -9
      vertex 0.180522 2.86933 -9
    endloop
  endfacet
  facet normal 0 1 -0
    outer loop
      vertex 0.180522 -2.86933 -9
      vertex -0.180522 -2.86933 -3.9
      vertex 0.180522 -2.86933 -3.9
    endloop
  endfacet
  facet normal 0 1 0
    outer loop
      vertex -0.180522 -2.86933 -3.9
      vertex 0.180522 -2.86933 -9
      vertex -0.180522 -2.86933 -9
    endloop
  endfacet
  facet normal -0.684559 -0.728957 0
    outer loop
      vertex 1.83259 2.21523 -9
      vertex 2.09578 1.96807 -3.9
      vertex 1.83259 2.21523 -3.9
    endloop
  endfacet
  facet normal -0.684559 -0.728957 -0
    outer loop
      vertex 2.09578 1.96807 -3.9
      vertex 1.83259 2.21523 -9
      vertex 2.09578 1.96807 -9
    endloop
  endfacet
  facet normal 0.684559 -0.728957 0
    outer loop
      vertex -2.09578 1.96807 -9
      vertex -1.83259 2.21523 -3.9
      vertex -2.09578 1.96807 -3.9
    endloop
  endfacet
  facet normal 0.684559 -0.728957 0
    outer loop
      vertex -1.83259 2.21523 -3.9
      vertex -2.09578 1.96807 -9
      vertex -1.83259 2.21523 -9
    endloop
  endfacet
  facet normal 0.36812 -0.929778 0
    outer loop
      vertex -1.22412 2.60138 -9
      vertex -0.888423 2.73429 -3.9
      vertex -1.22412 2.60138 -3.9
    endloop
  endfacet
  facet normal 0.36812 -0.929778 0
    outer loop
      vertex -0.888423 2.73429 -3.9
      vertex -1.22412 2.60138 -9
      vertex -0.888423 2.73429 -9
    endloop
  endfacet
  facet normal -0.904821 -0.425793 0
    outer loop
      vertex 2.67311 1.05836 -9
      vertex 2.51938 1.38504 -3.9
      vertex 2.51938 1.38504 -9
    endloop
  endfacet
  facet normal -0.904821 -0.425793 0
    outer loop
      vertex 2.51938 1.38504 -3.9
      vertex 2.67311 1.05836 -9
      vertex 2.67311 1.05836 -3.9
    endloop
  endfacet
  facet normal -0.982289 -0.187373 0
    outer loop
      vertex 2.85233 0.360332 -9
      vertex 2.78468 0.714983 -3.9
      vertex 2.78468 0.714983 -9
    endloop
  endfacet
  facet normal -0.982289 -0.187373 0
    outer loop
      vertex 2.78468 0.714983 -3.9
      vertex 2.85233 0.360332 -9
      vertex 2.85233 0.360332 -3.9
    endloop
  endfacet
  facet normal -0.36812 -0.929778 0
    outer loop
      vertex 0.888423 2.73429 -9
      vertex 1.22412 2.60138 -3.9
      vertex 0.888423 2.73429 -3.9
    endloop
  endfacet
  facet normal -0.36812 -0.929778 -0
    outer loop
      vertex 1.22412 2.60138 -3.9
      vertex 0.888423 2.73429 -9
      vertex 1.22412 2.60138 -9
    endloop
  endfacet
  facet normal -0.248695 -0.968582 0
    outer loop
      vertex 0.538721 2.82408 -9
      vertex 0.888423 2.73429 -3.9
      vertex 0.538721 2.82408 -3.9
    endloop
  endfacet
  facet normal -0.248695 -0.968582 -0
    outer loop
      vertex 0.888423 2.73429 -3.9
      vertex 0.538721 2.82408 -9
      vertex 0.888423 2.73429 -9
    endloop
  endfacet
  facet normal -0.481772 -0.876297 0
    outer loop
      vertex 1.22412 2.60138 -9
      vertex 1.5405 2.42744 -3.9
      vertex 1.22412 2.60138 -3.9
    endloop
  endfacet
  facet normal -0.481772 -0.876297 -0
    outer loop
      vertex 1.5405 2.42744 -3.9
      vertex 1.22412 2.60138 -9
      vertex 1.5405 2.42744 -9
    endloop
  endfacet
  facet normal 0.904821 -0.425793 0
    outer loop
      vertex -2.67311 1.05836 -3.9
      vertex -2.51938 1.38504 -9
      vertex -2.51938 1.38504 -3.9
    endloop
  endfacet
  facet normal 0.904821 -0.425793 0
    outer loop
      vertex -2.51938 1.38504 -9
      vertex -2.67311 1.05836 -3.9
      vertex -2.67311 1.05836 -9
    endloop
  endfacet
  facet normal 0.951056 -0.309017 0
    outer loop
      vertex -2.78468 0.714983 -3.9
      vertex -2.67311 1.05836 -9
      vertex -2.67311 1.05836 -3.9
    endloop
  endfacet
  facet normal 0.951056 -0.309017 0
    outer loop
      vertex -2.67311 1.05836 -9
      vertex -2.78468 0.714983 -3.9
      vertex -2.78468 0.714983 -9
    endloop
  endfacet
  facet normal 0.12533 -0.992115 0
    outer loop
      vertex -0.538721 2.82408 -9
      vertex -0.180522 2.86933 -3.9
      vertex -0.538721 2.82408 -3.9
    endloop
  endfacet
  facet normal 0.12533 -0.992115 0
    outer loop
      vertex -0.180522 2.86933 -3.9
      vertex -0.538721 2.82408 -9
      vertex -0.180522 2.86933 -9
    endloop
  endfacet
  facet normal -0.12533 0.992115 0
    outer loop
      vertex 0.538721 -2.82408 -9
      vertex 0.180522 -2.86933 -3.9
      vertex 0.538721 -2.82408 -3.9
    endloop
  endfacet
  facet normal -0.12533 0.992115 0
    outer loop
      vertex 0.180522 -2.86933 -3.9
      vertex 0.538721 -2.82408 -9
      vertex 0.180522 -2.86933 -9
    endloop
  endfacet
  facet normal -0.951056 -0.309017 0
    outer loop
      vertex 2.78468 0.714983 -9
      vertex 2.67311 1.05836 -3.9
      vertex 2.67311 1.05836 -9
    endloop
  endfacet
  facet normal -0.951056 -0.309017 0
    outer loop
      vertex 2.67311 1.05836 -3.9
      vertex 2.78468 0.714983 -9
      vertex 2.78468 0.714983 -3.9
    endloop
  endfacet
  facet normal -0.770512 -0.637426 0
    outer loop
      vertex 2.32592 1.68988 -9
      vertex 2.09578 1.96807 -3.9
      vertex 2.09578 1.96807 -9
    endloop
  endfacet
  facet normal -0.770512 -0.637426 0
    outer loop
      vertex 2.09578 1.96807 -3.9
      vertex 2.32592 1.68988 -9
      vertex 2.32592 1.68988 -3.9
    endloop
  endfacet
  facet normal -0.844325 -0.535832 0
    outer loop
      vertex 2.51938 1.38504 -9
      vertex 2.32592 1.68988 -3.9
      vertex 2.32592 1.68988 -9
    endloop
  endfacet
  facet normal -0.844325 -0.535832 0
    outer loop
      vertex 2.32592 1.68988 -3.9
      vertex 2.51938 1.38504 -9
      vertex 2.51938 1.38504 -3.9
    endloop
  endfacet
  facet normal -0.12533 -0.992115 0
    outer loop
      vertex 0.180522 2.86933 -9
      vertex 0.538721 2.82408 -3.9
      vertex 0.180522 2.86933 -3.9
    endloop
  endfacet
  facet normal -0.12533 -0.992115 -0
    outer loop
      vertex 0.538721 2.82408 -3.9
      vertex 0.180522 2.86933 -9
      vertex 0.538721 2.82408 -9
    endloop
  endfacet
  facet normal -0.587775 -0.809025 0
    outer loop
      vertex 1.5405 2.42744 -9
      vertex 1.83259 2.21523 -3.9
      vertex 1.5405 2.42744 -3.9
    endloop
  endfacet
  facet normal -0.587775 -0.809025 -0
    outer loop
      vertex 1.83259 2.21523 -3.9
      vertex 1.5405 2.42744 -9
      vertex 1.83259 2.21523 -9
    endloop
  endfacet
  facet normal 0.844325 -0.535832 0
    outer loop
      vertex -2.51938 1.38504 -3.9
      vertex -2.32592 1.68988 -9
      vertex -2.32592 1.68988 -3.9
    endloop
  endfacet
  facet normal 0.844325 -0.535832 0
    outer loop
      vertex -2.32592 1.68988 -9
      vertex -2.51938 1.38504 -3.9
      vertex -2.51938 1.38504 -9
    endloop
  endfacet
  facet normal 0.770512 -0.637426 0
    outer loop
      vertex -2.32592 1.68988 -3.9
      vertex -2.09578 1.96807 -9
      vertex -2.09578 1.96807 -3.9
    endloop
  endfacet
  facet normal 0.770512 -0.637426 0
    outer loop
      vertex -2.09578 1.96807 -9
      vertex -2.32592 1.68988 -3.9
      vertex -2.32592 1.68988 -9
    endloop
  endfacet
  facet normal 0.982289 -0.187373 0
    outer loop
      vertex -2.85233 0.360332 -3.9
      vertex -2.78468 0.714983 -9
      vertex -2.78468 0.714983 -3.9
    endloop
  endfacet
  facet normal 0.982289 -0.187373 0
    outer loop
      vertex -2.78468 0.714983 -9
      vertex -2.85233 0.360332 -3.9
      vertex -2.85233 0.360332 -9
    endloop
  endfacet
  facet normal 0.481772 -0.876297 0
    outer loop
      vertex -1.5405 2.42744 -9
      vertex -1.22412 2.60138 -3.9
      vertex -1.5405 2.42744 -3.9
    endloop
  endfacet
  facet normal 0.481772 -0.876297 0
    outer loop
      vertex -1.22412 2.60138 -3.9
      vertex -1.5405 2.42744 -9
      vertex -1.22412 2.60138 -9
    endloop
  endfacet
  facet normal 0.587775 -0.809025 0
    outer loop
      vertex -1.83259 2.21523 -9
      vertex -1.5405 2.42744 -3.9
      vertex -1.83259 2.21523 -3.9
    endloop
  endfacet
  facet normal 0.587775 -0.809025 0
    outer loop
      vertex -1.5405 2.42744 -3.9
      vertex -1.83259 2.21523 -9
      vertex -1.5405 2.42744 -9
    endloop
  endfacet
  facet normal 0.248695 -0.968582 0
    outer loop
      vertex -0.888423 2.73429 -9
      vertex -0.538721 2.82408 -3.9
      vertex -0.888423 2.73429 -3.9
    endloop
  endfacet
  facet normal 0.248695 -0.968582 0
    outer loop
      vertex -0.538721 2.82408 -3.9
      vertex -0.888423 2.73429 -9
      vertex -0.538721 2.82408 -9
    endloop
  endfacet
  facet normal -0.998027 0.0627901 0
    outer loop
      vertex 2.85233 -0.360332 -9
      vertex 2.875 0 -3.9
      vertex 2.875 0 -9
    endloop
  endfacet
  facet normal -0.998027 0.0627901 0
    outer loop
      vertex 2.875 0 -3.9
      vertex 2.85233 -0.360332 -9
      vertex 2.85233 -0.360332 -3.9
    endloop
  endfacet
  facet normal -0.481772 0.876297 0
    outer loop
      vertex 1.5405 -2.42744 -9
      vertex 1.22412 -2.60138 -3.9
      vertex 1.5405 -2.42744 -3.9
    endloop
  endfacet
  facet normal -0.481772 0.876297 0
    outer loop
      vertex 1.22412 -2.60138 -3.9
      vertex 1.5405 -2.42744 -9
      vertex 1.22412 -2.60138 -9
    endloop
  endfacet
  facet normal -0.684559 0.728957 0
    outer loop
      vertex 2.09578 -1.96807 -9
      vertex 1.83259 -2.21523 -3.9
      vertex 2.09578 -1.96807 -3.9
    endloop
  endfacet
  facet normal -0.684559 0.728957 0
    outer loop
      vertex 1.83259 -2.21523 -3.9
      vertex 2.09578 -1.96807 -9
      vertex 1.83259 -2.21523 -9
    endloop
  endfacet
  facet normal -0.982289 0.187373 0
    outer loop
      vertex 2.78468 -0.714983 -9
      vertex 2.85233 -0.360332 -3.9
      vertex 2.85233 -0.360332 -9
    endloop
  endfacet
  facet normal -0.982289 0.187373 0
    outer loop
      vertex 2.85233 -0.360332 -3.9
      vertex 2.78468 -0.714983 -9
      vertex 2.78468 -0.714983 -3.9
    endloop
  endfacet
  facet normal -0.904821 0.425793 0
    outer loop
      vertex 2.51938 -1.38504 -9
      vertex 2.67311 -1.05836 -3.9
      vertex 2.67311 -1.05836 -9
    endloop
  endfacet
  facet normal -0.904821 0.425793 0
    outer loop
      vertex 2.67311 -1.05836 -3.9
      vertex 2.51938 -1.38504 -9
      vertex 2.51938 -1.38504 -3.9
    endloop
  endfacet
  facet normal -0.770512 0.637426 0
    outer loop
      vertex 2.09578 -1.96807 -9
      vertex 2.32592 -1.68988 -3.9
      vertex 2.32592 -1.68988 -9
    endloop
  endfacet
  facet normal -0.770512 0.637426 0
    outer loop
      vertex 2.32592 -1.68988 -3.9
      vertex 2.09578 -1.96807 -9
      vertex 2.09578 -1.96807 -3.9
    endloop
  endfacet
  facet normal 0.684559 0.728957 -0
    outer loop
      vertex -1.83259 -2.21523 -9
      vertex -2.09578 -1.96807 -3.9
      vertex -1.83259 -2.21523 -3.9
    endloop
  endfacet
  facet normal 0.684559 0.728957 0
    outer loop
      vertex -2.09578 -1.96807 -3.9
      vertex -1.83259 -2.21523 -9
      vertex -2.09578 -1.96807 -9
    endloop
  endfacet
  facet normal 0.844325 0.535832 0
    outer loop
      vertex -2.32592 -1.68988 -3.9
      vertex -2.51938 -1.38504 -9
      vertex -2.51938 -1.38504 -3.9
    endloop
  endfacet
  facet normal 0.844325 0.535832 0
    outer loop
      vertex -2.51938 -1.38504 -9
      vertex -2.32592 -1.68988 -3.9
      vertex -2.32592 -1.68988 -9
    endloop
  endfacet
  facet normal 0.951056 0.309017 0
    outer loop
      vertex -2.67311 -1.05836 -3.9
      vertex -2.78468 -0.714983 -9
      vertex -2.78468 -0.714983 -3.9
    endloop
  endfacet
  facet normal 0.951056 0.309017 0
    outer loop
      vertex -2.78468 -0.714983 -9
      vertex -2.67311 -1.05836 -3.9
      vertex -2.67311 -1.05836 -9
    endloop
  endfacet
  facet normal 0.998027 0.0627901 0
    outer loop
      vertex -2.85233 -0.360332 -3.9
      vertex -2.875 0 -9
      vertex -2.875 0 -3.9
    endloop
  endfacet
  facet normal 0.998027 0.0627901 0
    outer loop
      vertex -2.875 0 -9
      vertex -2.85233 -0.360332 -3.9
      vertex -2.85233 -0.360332 -9
    endloop
  endfacet
  facet normal -0.36812 0.929778 0
    outer loop
      vertex 1.22412 -2.60138 -9
      vertex 0.888423 -2.73429 -3.9
      vertex 1.22412 -2.60138 -3.9
    endloop
  endfacet
  facet normal -0.36812 0.929778 0
    outer loop
      vertex 0.888423 -2.73429 -3.9
      vertex 1.22412 -2.60138 -9
      vertex 0.888423 -2.73429 -9
    endloop
  endfacet
  facet normal -0.248695 0.968582 0
    outer loop
      vertex 0.888423 -2.73429 -9
      vertex 0.538721 -2.82408 -3.9
      vertex 0.888423 -2.73429 -3.9
    endloop
  endfacet
  facet normal -0.248695 0.968582 0
    outer loop
      vertex 0.538721 -2.82408 -3.9
      vertex 0.888423 -2.73429 -9
      vertex 0.538721 -2.82408 -9
    endloop
  endfacet
  facet normal -0.587775 0.809025 0
    outer loop
      vertex 1.83259 -2.21523 -9
      vertex 1.5405 -2.42744 -3.9
      vertex 1.83259 -2.21523 -3.9
    endloop
  endfacet
  facet normal -0.587775 0.809025 0
    outer loop
      vertex 1.5405 -2.42744 -3.9
      vertex 1.83259 -2.21523 -9
      vertex 1.5405 -2.42744 -9
    endloop
  endfacet
  facet normal -0.951056 0.309017 0
    outer loop
      vertex 2.67311 -1.05836 -9
      vertex 2.78468 -0.714983 -3.9
      vertex 2.78468 -0.714983 -9
    endloop
  endfacet
  facet normal -0.951056 0.309017 0
    outer loop
      vertex 2.78468 -0.714983 -3.9
      vertex 2.67311 -1.05836 -9
      vertex 2.67311 -1.05836 -3.9
    endloop
  endfacet
  facet normal -0.844325 0.535832 0
    outer loop
      vertex 2.32592 -1.68988 -9
      vertex 2.51938 -1.38504 -3.9
      vertex 2.51938 -1.38504 -9
    endloop
  endfacet
  facet normal -0.844325 0.535832 0
    outer loop
      vertex 2.51938 -1.38504 -3.9
      vertex 2.32592 -1.68988 -9
      vertex 2.32592 -1.68988 -3.9
    endloop
  endfacet
  facet normal 0.36812 0.929778 -0
    outer loop
      vertex -0.888423 -2.73429 -9
      vertex -1.22412 -2.60138 -3.9
      vertex -0.888423 -2.73429 -3.9
    endloop
  endfacet
  facet normal 0.36812 0.929778 0
    outer loop
      vertex -1.22412 -2.60138 -3.9
      vertex -0.888423 -2.73429 -9
      vertex -1.22412 -2.60138 -9
    endloop
  endfacet
  facet normal 0.248695 0.968582 -0
    outer loop
      vertex -0.538721 -2.82408 -9
      vertex -0.888423 -2.73429 -3.9
      vertex -0.538721 -2.82408 -3.9
    endloop
  endfacet
  facet normal 0.248695 0.968582 0
    outer loop
      vertex -0.888423 -2.73429 -3.9
      vertex -0.538721 -2.82408 -9
      vertex -0.888423 -2.73429 -9
    endloop
  endfacet
  facet normal 0.904821 0.425793 0
    outer loop
      vertex -2.51938 -1.38504 -3.9
      vertex -2.67311 -1.05836 -9
      vertex -2.67311 -1.05836 -3.9
    endloop
  endfacet
  facet normal 0.904821 0.425793 0
    outer loop
      vertex -2.67311 -1.05836 -9
      vertex -2.51938 -1.38504 -3.9
      vertex -2.51938 -1.38504 -9
    endloop
  endfacet
  facet normal 0.982289 0.187373 0
    outer loop
      vertex -2.78468 -0.714983 -3.9
      vertex -2.85233 -0.360332 -9
      vertex -2.85233 -0.360332 -3.9
    endloop
  endfacet
  facet normal 0.982289 0.187373 0
    outer loop
      vertex -2.85233 -0.360332 -9
      vertex -2.78468 -0.714983 -3.9
      vertex -2.78468 -0.714983 -9
    endloop
  endfacet
  facet normal 0.587775 0.809025 -0
    outer loop
      vertex -1.5405 -2.42744 -9
      vertex -1.83259 -2.21523 -3.9
      vertex -1.5405 -2.42744 -3.9
    endloop
  endfacet
  facet normal 0.587775 0.809025 0
    outer loop
      vertex -1.83259 -2.21523 -3.9
      vertex -1.5405 -2.42744 -9
      vertex -1.83259 -2.21523 -9
    endloop
  endfacet
  facet normal 0.12533 0.992115 -0
    outer loop
      vertex -0.180522 -2.86933 -9
      vertex -0.538721 -2.82408 -3.9
      vertex -0.180522 -2.86933 -3.9
    endloop
  endfacet
  facet normal 0.12533 0.992115 0
    outer loop
      vertex -0.538721 -2.82408 -3.9
      vertex -0.180522 -2.86933 -9
      vertex -0.538721 -2.82408 -9
    endloop
  endfacet
  facet normal 0.770512 0.637426 0
    outer loop
      vertex -2.09578 -1.96807 -3.9
      vertex -2.32592 -1.68988 -9
      vertex -2.32592 -1.68988 -3.9
    endloop
  endfacet
  facet normal 0.770512 0.637426 0
    outer loop
      vertex -2.32592 -1.68988 -9
      vertex -2.09578 -1.96807 -3.9
      vertex -2.09578 -1.96807 -9
    endloop
  endfacet
  facet normal 0.481772 0.876297 -0
    outer loop
      vertex -1.22412 -2.60138 -9
      vertex -1.5405 -2.42744 -3.9
      vertex -1.22412 -2.60138 -3.9
    endloop
  endfacet
  facet normal 0.481772 0.876297 0
    outer loop
      vertex -1.5405 -2.42744 -3.9
      vertex -1.22412 -2.60138 -9
      vertex -1.5405 -2.42744 -9
    endloop
  endfacet
  facet normal 0.998027 0.0627837 0
    outer loop
      vertex 22.5 0 0
      vertex 22.3226 2.82 -9
      vertex 22.3226 2.82 0
    endloop
  endfacet
  facet normal 0.998027 0.0627837 0
    outer loop
      vertex 22.3226 2.82 -9
      vertex 22.5 0 0
      vertex 22.5 0 -9
    endloop
  endfacet
  facet normal -0.998027 0.0627837 0
    outer loop
      vertex -22.5 0 -9
      vertex -22.3226 2.82 0
      vertex -22.3226 2.82 -9
    endloop
  endfacet
  facet normal -0.998027 0.0627837 0
    outer loop
      vertex -22.3226 2.82 0
      vertex -22.5 0 -9
      vertex -22.5 0 0
    endloop
  endfacet
  facet normal 0 1 -0
    outer loop
      vertex 1.41279 22.4556 -9
      vertex -1.41279 22.4556 0
      vertex 1.41279 22.4556 0
    endloop
  endfacet
  facet normal 0 1 0
    outer loop
      vertex -1.41279 22.4556 0
      vertex 1.41279 22.4556 -9
      vertex -1.41279 22.4556 -9
    endloop
  endfacet
  facet normal 0 -1 0
    outer loop
      vertex -1.41279 -22.4556 -9
      vertex 1.41279 -22.4556 0
      vertex -1.41279 -22.4556 0
    endloop
  endfacet
  facet normal 0 -1 -0
    outer loop
      vertex 1.41279 -22.4556 0
      vertex -1.41279 -22.4556 -9
      vertex 1.41279 -22.4556 -9
    endloop
  endfacet
  facet normal 0.684532 0.728983 -0
    outer loop
      vertex 16.4018 15.4023 -9
      vertex 14.342 17.3365 0
      vertex 16.4018 15.4023 0
    endloop
  endfacet
  facet normal 0.684532 0.728983 0
    outer loop
      vertex 14.342 17.3365 0
      vertex 16.4018 15.4023 -9
      vertex 14.342 17.3365 -9
    endloop
  endfacet
  facet normal -0.684532 0.728983 0
    outer loop
      vertex -14.342 17.3365 -9
      vertex -16.4018 15.4023 0
      vertex -14.342 17.3365 0
    endloop
  endfacet
  facet normal -0.684532 0.728983 0
    outer loop
      vertex -16.4018 15.4023 0
      vertex -14.342 17.3365 -9
      vertex -16.4018 15.4023 -9
    endloop
  endfacet
  facet normal -0.368136 0.929772 0
    outer loop
      vertex -6.95288 21.3988 -9
      vertex -9.58003 20.3586 0
      vertex -6.95288 21.3988 0
    endloop
  endfacet
  facet normal -0.368136 0.929772 0
    outer loop
      vertex -9.58003 20.3586 0
      vertex -6.95288 21.3988 -9
      vertex -9.58003 20.3586 -9
    endloop
  endfacet
  facet normal 0.904826 0.425782 0
    outer loop
      vertex 20.92 8.2828 0
      vertex 19.7169 10.8395 -9
      vertex 19.7169 10.8395 0
    endloop
  endfacet
  facet normal 0.904826 0.425782 0
    outer loop
      vertex 19.7169 10.8395 -9
      vertex 20.92 8.2828 0
      vertex 20.92 8.2828 -9
    endloop
  endfacet
  facet normal 0.368136 0.929772 -0
    outer loop
      vertex 9.58003 20.3586 -9
      vertex 6.95288 21.3988 0
      vertex 9.58003 20.3586 0
    endloop
  endfacet
  facet normal 0.368136 0.929772 0
    outer loop
      vertex 6.95288 21.3988 0
      vertex 9.58003 20.3586 -9
      vertex 6.95288 21.3988 -9
    endloop
  endfacet
  facet normal 0.481745 0.876311 -0
    outer loop
      vertex 12.0561 18.9974 -9
      vertex 9.58003 20.3586 0
      vertex 12.0561 18.9974 0
    endloop
  endfacet
  facet normal 0.481745 0.876311 0
    outer loop
      vertex 9.58003 20.3586 0
      vertex 12.0561 18.9974 -9
      vertex 9.58003 20.3586 -9
    endloop
  endfacet
  facet normal -0.904826 0.425782 0
    outer loop
      vertex -20.92 8.2828 -9
      vertex -19.7169 10.8395 0
      vertex -19.7169 10.8395 -9
    endloop
  endfacet
  facet normal -0.904826 0.425782 0
    outer loop
      vertex -19.7169 10.8395 0
      vertex -20.92 8.2828 -9
      vertex -20.92 8.2828 0
    endloop
  endfacet
  facet normal -0.84433 0.535824 0
    outer loop
      vertex -19.7169 10.8395 -9
      vertex -18.2029 13.2252 0
      vertex -18.2029 13.2252 -9
    endloop
  endfacet
  facet normal -0.84433 0.535824 0
    outer loop
      vertex -18.2029 13.2252 0
      vertex -19.7169 10.8395 -9
      vertex -19.7169 10.8395 0
    endloop
  endfacet
  facet normal -0.587808 0.809001 0
    outer loop
      vertex -12.0561 18.9974 -9
      vertex -14.342 17.3365 0
      vertex -12.0561 18.9974 0
    endloop
  endfacet
  facet normal -0.587808 0.809001 0
    outer loop
      vertex -14.342 17.3365 0
      vertex -12.0561 18.9974 -9
      vertex -14.342 17.3365 -9
    endloop
  endfacet
  facet normal -0.248693 0.968582 0
    outer loop
      vertex -4.21608 22.1015 -9
      vertex -6.95288 21.3988 0
      vertex -4.21608 22.1015 0
    endloop
  endfacet
  facet normal -0.248693 0.968582 0
    outer loop
      vertex -6.95288 21.3988 0
      vertex -4.21608 22.1015 -9
      vertex -6.95288 21.3988 -9
    endloop
  endfacet
  facet normal -0.904826 -0.425782 0
    outer loop
      vertex -19.7169 -10.8395 -9
      vertex -20.92 -8.2828 0
      vertex -20.92 -8.2828 -9
    endloop
  endfacet
  facet normal -0.904826 -0.425782 0
    outer loop
      vertex -20.92 -8.2828 0
      vertex -19.7169 -10.8395 -9
      vertex -19.7169 -10.8395 0
    endloop
  endfacet
  facet normal 0.12532 -0.992116 0
    outer loop
      vertex 1.41279 -22.4556 -9
      vertex 4.21608 -22.1015 0
      vertex 1.41279 -22.4556 0
    endloop
  endfacet
  facet normal 0.12532 -0.992116 0
    outer loop
      vertex 4.21608 -22.1015 0
      vertex 1.41279 -22.4556 -9
      vertex 4.21608 -22.1015 -9
    endloop
  endfacet
  facet normal 0.951062 0.309001 0
    outer loop
      vertex 21.7931 5.59552 0
      vertex 20.92 8.2828 -9
      vertex 20.92 8.2828 0
    endloop
  endfacet
  facet normal 0.951062 0.309001 0
    outer loop
      vertex 20.92 8.2828 -9
      vertex 21.7931 5.59552 0
      vertex 21.7931 5.59552 -9
    endloop
  endfacet
  facet normal 0.982285 0.187395 0
    outer loop
      vertex 22.3226 2.82 0
      vertex 21.7931 5.59552 -9
      vertex 21.7931 5.59552 0
    endloop
  endfacet
  facet normal 0.982285 0.187395 0
    outer loop
      vertex 21.7931 5.59552 -9
      vertex 22.3226 2.82 0
      vertex 22.3226 2.82 -9
    endloop
  endfacet
  facet normal 0.770505 0.637434 0
    outer loop
      vertex 18.2029 13.2252 0
      vertex 16.4018 15.4023 -9
      vertex 16.4018 15.4023 0
    endloop
  endfacet
  facet normal 0.770505 0.637434 0
    outer loop
      vertex 16.4018 15.4023 -9
      vertex 18.2029 13.2252 0
      vertex 18.2029 13.2252 -9
    endloop
  endfacet
  facet normal 0.84433 0.535824 0
    outer loop
      vertex 19.7169 10.8395 0
      vertex 18.2029 13.2252 -9
      vertex 18.2029 13.2252 0
    endloop
  endfacet
  facet normal 0.84433 0.535824 0
    outer loop
      vertex 18.2029 13.2252 -9
      vertex 19.7169 10.8395 0
      vertex 19.7169 10.8395 -9
    endloop
  endfacet
  facet normal 0.248693 0.968582 -0
    outer loop
      vertex 6.95288 21.3988 -9
      vertex 4.21608 22.1015 0
      vertex 6.95288 21.3988 0
    endloop
  endfacet
  facet normal 0.248693 0.968582 0
    outer loop
      vertex 4.21608 22.1015 0
      vertex 6.95288 21.3988 -9
      vertex 4.21608 22.1015 -9
    endloop
  endfacet
  facet normal 0.12532 0.992116 -0
    outer loop
      vertex 4.21608 22.1015 -9
      vertex 1.41279 22.4556 0
      vertex 4.21608 22.1015 0
    endloop
  endfacet
  facet normal 0.12532 0.992116 0
    outer loop
      vertex 1.41279 22.4556 0
      vertex 4.21608 22.1015 -9
      vertex 1.41279 22.4556 -9
    endloop
  endfacet
  facet normal 0.587808 0.809001 -0
    outer loop
      vertex 14.342 17.3365 -9
      vertex 12.0561 18.9974 0
      vertex 14.342 17.3365 0
    endloop
  endfacet
  facet normal 0.587808 0.809001 0
    outer loop
      vertex 12.0561 18.9974 0
      vertex 14.342 17.3365 -9
      vertex 12.0561 18.9974 -9
    endloop
  endfacet
  facet normal -0.770505 0.637434 0
    outer loop
      vertex -18.2029 13.2252 -9
      vertex -16.4018 15.4023 0
      vertex -16.4018 15.4023 -9
    endloop
  endfacet
  facet normal -0.770505 0.637434 0
    outer loop
      vertex -16.4018 15.4023 0
      vertex -18.2029 13.2252 -9
      vertex -18.2029 13.2252 0
    endloop
  endfacet
  facet normal -0.951062 0.309001 0
    outer loop
      vertex -21.7931 5.59552 -9
      vertex -20.92 8.2828 0
      vertex -20.92 8.2828 -9
    endloop
  endfacet
  facet normal -0.951062 0.309001 0
    outer loop
      vertex -20.92 8.2828 0
      vertex -21.7931 5.59552 -9
      vertex -21.7931 5.59552 0
    endloop
  endfacet
  facet normal -0.982285 0.187395 0
    outer loop
      vertex -22.3226 2.82 -9
      vertex -21.7931 5.59552 0
      vertex -21.7931 5.59552 -9
    endloop
  endfacet
  facet normal -0.982285 0.187395 0
    outer loop
      vertex -21.7931 5.59552 0
      vertex -22.3226 2.82 -9
      vertex -22.3226 2.82 0
    endloop
  endfacet
  facet normal -0.12532 0.992116 0
    outer loop
      vertex -1.41279 22.4556 -9
      vertex -4.21608 22.1015 0
      vertex -1.41279 22.4556 0
    endloop
  endfacet
  facet normal -0.12532 0.992116 0
    outer loop
      vertex -4.21608 22.1015 0
      vertex -1.41279 22.4556 -9
      vertex -4.21608 22.1015 -9
    endloop
  endfacet
  facet normal 0.998027 -0.0627837 0
    outer loop
      vertex 22.3226 -2.82 0
      vertex 22.5 0 -9
      vertex 22.5 0 0
    endloop
  endfacet
  facet normal 0.998027 -0.0627837 0
    outer loop
      vertex 22.5 0 -9
      vertex 22.3226 -2.82 0
      vertex 22.3226 -2.82 -9
    endloop
  endfacet
  facet normal 0.684532 -0.728983 0
    outer loop
      vertex 14.342 -17.3365 -9
      vertex 16.4018 -15.4023 0
      vertex 14.342 -17.3365 0
    endloop
  endfacet
  facet normal 0.684532 -0.728983 0
    outer loop
      vertex 16.4018 -15.4023 0
      vertex 14.342 -17.3365 -9
      vertex 16.4018 -15.4023 -9
    endloop
  endfacet
  facet normal 0.904826 -0.425782 0
    outer loop
      vertex 19.7169 -10.8395 0
      vertex 20.92 -8.2828 -9
      vertex 20.92 -8.2828 0
    endloop
  endfacet
  facet normal 0.904826 -0.425782 0
    outer loop
      vertex 20.92 -8.2828 -9
      vertex 19.7169 -10.8395 0
      vertex 19.7169 -10.8395 -9
    endloop
  endfacet
  facet normal 0.368136 -0.929772 0
    outer loop
      vertex 6.95288 -21.3988 -9
      vertex 9.58003 -20.3586 0
      vertex 6.95288 -21.3988 0
    endloop
  endfacet
  facet normal 0.368136 -0.929772 0
    outer loop
      vertex 9.58003 -20.3586 0
      vertex 6.95288 -21.3988 -9
      vertex 9.58003 -20.3586 -9
    endloop
  endfacet
  facet normal -0.481745 0.876311 0
    outer loop
      vertex -9.58003 20.3586 -9
      vertex -12.0561 18.9974 0
      vertex -9.58003 20.3586 0
    endloop
  endfacet
  facet normal -0.481745 0.876311 0
    outer loop
      vertex -12.0561 18.9974 0
      vertex -9.58003 20.3586 -9
      vertex -12.0561 18.9974 -9
    endloop
  endfacet
  facet normal 0.951062 -0.309001 0
    outer loop
      vertex 20.92 -8.2828 0
      vertex 21.7931 -5.59552 -9
      vertex 21.7931 -5.59552 0
    endloop
  endfacet
  facet normal 0.951062 -0.309001 0
    outer loop
      vertex 21.7931 -5.59552 -9
      vertex 20.92 -8.2828 0
      vertex 20.92 -8.2828 -9
    endloop
  endfacet
  facet normal 0.481745 -0.876311 0
    outer loop
      vertex 9.58003 -20.3586 -9
      vertex 12.0561 -18.9974 0
      vertex 9.58003 -20.3586 0
    endloop
  endfacet
  facet normal 0.481745 -0.876311 0
    outer loop
      vertex 12.0561 -18.9974 0
      vertex 9.58003 -20.3586 -9
      vertex 12.0561 -18.9974 -9
    endloop
  endfacet
  facet normal 0.770505 -0.637434 0
    outer loop
      vertex 16.4018 -15.4023 0
      vertex 18.2029 -13.2252 -9
      vertex 18.2029 -13.2252 0
    endloop
  endfacet
  facet normal 0.770505 -0.637434 0
    outer loop
      vertex 18.2029 -13.2252 -9
      vertex 16.4018 -15.4023 0
      vertex 16.4018 -15.4023 -9
    endloop
  endfacet
  facet normal -0.368136 -0.929772 0
    outer loop
      vertex -9.58003 -20.3586 -9
      vertex -6.95288 -21.3988 0
      vertex -9.58003 -20.3586 0
    endloop
  endfacet
  facet normal -0.368136 -0.929772 -0
    outer loop
      vertex -6.95288 -21.3988 0
      vertex -9.58003 -20.3586 -9
      vertex -6.95288 -21.3988 -9
    endloop
  endfacet
  facet normal -0.684532 -0.728983 0
    outer loop
      vertex -16.4018 -15.4023 -9
      vertex -14.342 -17.3365 0
      vertex -16.4018 -15.4023 0
    endloop
  endfacet
  facet normal -0.684532 -0.728983 -0
    outer loop
      vertex -14.342 -17.3365 0
      vertex -16.4018 -15.4023 -9
      vertex -14.342 -17.3365 -9
    endloop
  endfacet
  facet normal 0.248693 -0.968582 0
    outer loop
      vertex 4.21608 -22.1015 -9
      vertex 6.95288 -21.3988 0
      vertex 4.21608 -22.1015 0
    endloop
  endfacet
  facet normal 0.248693 -0.968582 0
    outer loop
      vertex 6.95288 -21.3988 0
      vertex 4.21608 -22.1015 -9
      vertex 6.95288 -21.3988 -9
    endloop
  endfacet
  facet normal 0.982285 -0.187395 0
    outer loop
      vertex 21.7931 -5.59552 0
      vertex 22.3226 -2.82 -9
      vertex 22.3226 -2.82 0
    endloop
  endfacet
  facet normal 0.982285 -0.187395 0
    outer loop
      vertex 22.3226 -2.82 -9
      vertex 21.7931 -5.59552 0
      vertex 21.7931 -5.59552 -9
    endloop
  endfacet
  facet normal 0.587808 -0.809001 0
    outer loop
      vertex 12.0561 -18.9974 -9
      vertex 14.342 -17.3365 0
      vertex 12.0561 -18.9974 0
    endloop
  endfacet
  facet normal 0.587808 -0.809001 0
    outer loop
      vertex 14.342 -17.3365 0
      vertex 12.0561 -18.9974 -9
      vertex 14.342 -17.3365 -9
    endloop
  endfacet
  facet normal 0.84433 -0.535824 0
    outer loop
      vertex 18.2029 -13.2252 0
      vertex 19.7169 -10.8395 -9
      vertex 19.7169 -10.8395 0
    endloop
  endfacet
  facet normal 0.84433 -0.535824 0
    outer loop
      vertex 19.7169 -10.8395 -9
      vertex 18.2029 -13.2252 0
      vertex 18.2029 -13.2252 -9
    endloop
  endfacet
  facet normal -0.12532 -0.992116 0
    outer loop
      vertex -4.21608 -22.1015 -9
      vertex -1.41279 -22.4556 0
      vertex -4.21608 -22.1015 0
    endloop
  endfacet
  facet normal -0.12532 -0.992116 -0
    outer loop
      vertex -1.41279 -22.4556 0
      vertex -4.21608 -22.1015 -9
      vertex -1.41279 -22.4556 -9
    endloop
  endfacet
  facet normal -0.587808 -0.809001 0
    outer loop
      vertex -14.342 -17.3365 -9
      vertex -12.0561 -18.9974 0
      vertex -14.342 -17.3365 0
    endloop
  endfacet
  facet normal -0.587808 -0.809001 -0
    outer loop
      vertex -12.0561 -18.9974 0
      vertex -14.342 -17.3365 -9
      vertex -12.0561 -18.9974 -9
    endloop
  endfacet
  facet normal -0.248693 -0.968582 0
    outer loop
      vertex -6.95288 -21.3988 -9
      vertex -4.21608 -22.1015 0
      vertex -6.95288 -21.3988 0
    endloop
  endfacet
  facet normal -0.248693 -0.968582 -0
    outer loop
      vertex -4.21608 -22.1015 0
      vertex -6.95288 -21.3988 -9
      vertex -4.21608 -22.1015 -9
    endloop
  endfacet
  facet normal -0.84433 -0.535824 0
    outer loop
      vertex -18.2029 -13.2252 -9
      vertex -19.7169 -10.8395 0
      vertex -19.7169 -10.8395 -9
    endloop
  endfacet
  facet normal -0.84433 -0.535824 0
    outer loop
      vertex -19.7169 -10.8395 0
      vertex -18.2029 -13.2252 -9
      vertex -18.2029 -13.2252 0
    endloop
  endfacet
  facet normal -0.951062 -0.309001 0
    outer loop
      vertex -20.92 -8.2828 -9
      vertex -21.7931 -5.59552 0
      vertex -21.7931 -5.59552 -9
    endloop
  endfacet
  facet normal -0.951062 -0.309001 0
    outer loop
      vertex -21.7931 -5.59552 0
      vertex -20.92 -8.2828 -9
      vertex -20.92 -8.2828 0
    endloop
  endfacet
  facet normal -0.982285 -0.187395 0
    outer loop
      vertex -21.7931 -5.59552 -9
      vertex -22.3226 -2.82 0
      vertex -22.3226 -2.82 -9
    endloop
  endfacet
  facet normal -0.982285 -0.187395 0
    outer loop
      vertex -22.3226 -2.82 0
      vertex -21.7931 -5.59552 -9
      vertex -21.7931 -5.59552 0
    endloop
  endfacet
  facet normal -0.998027 -0.0627837 0
    outer loop
      vertex -22.3226 -2.82 -9
      vertex -22.5 0 0
      vertex -22.5 0 -9
    endloop
  endfacet
  facet normal -0.998027 -0.0627837 0
    outer loop
      vertex -22.5 0 0
      vertex -22.3226 -2.82 -9
      vertex -22.3226 -2.82 0
    endloop
  endfacet
  facet normal -0.770505 -0.637434 0
    outer loop
      vertex -16.4018 -15.4023 -9
      vertex -18.2029 -13.2252 0
      vertex -18.2029 -13.2252 -9
    endloop
  endfacet
  facet normal -0.770505 -0.637434 0
    outer loop
      vertex -18.2029 -13.2252 0
      vertex -16.4018 -15.4023 -9
      vertex -16.4018 -15.4023 0
    endloop
  endfacet
  facet normal -0.481745 -0.876311 0
    outer loop
      vertex -12.0561 -18.9974 -9
      vertex -9.58003 -20.3586 0
      vertex -12.0561 -18.9974 0
    endloop
  endfacet
  facet normal -0.481745 -0.876311 -0
    outer loop
      vertex -9.58003 -20.3586 0
      vertex -12.0561 -18.9974 -9
      vertex -9.58003 -20.3586 -9
    endloop
  endfacet
endsolid OpenSCAD_Model
