solid OpenSCAD_Model
  facet normal 0 0 1
    outer loop
      vertex 5.5 0 0
      vertex 30 0 0
      vertex 29.7634 3.76 0
    endloop
  endfacet
  facet normal 0 0 1
    outer loop
      vertex 5.45663 0.689332 0
      vertex 29.7634 3.76 0
      vertex 29.0575 7.4607 0
    endloop
  endfacet
  facet normal 0 0 1
    outer loop
      vertex 30 0 0
      vertex 5.5 0 0
      vertex 29.7634 -3.76 0
    endloop
  endfacet
  facet normal 0 0 1
    outer loop
      vertex 5.32721 1.36779 0
      vertex 29.0575 7.4607 0
      vertex 27.8933 11.0437 0
    endloop
  endfacet
  facet normal -0 0 1
    outer loop
      vertex 5.45663 -0.689332 0
      vertex 29.7634 -3.76 0
      vertex 5.5 0 0
    endloop
  endfacet
  facet normal 0 0 1
    outer loop
      vertex 5.11377 2.02468 0
      vertex 27.8933 11.0437 0
      vertex 26.2892 14.4526 0
    endloop
  endfacet
  facet normal 0 0 1
    outer loop
      vertex 29.7634 -3.76 0
      vertex 5.45663 -0.689332 0
      vertex 29.0575 -7.4607 0
    endloop
  endfacet
  facet normal 0 0 1
    outer loop
      vertex 4.81969 2.64964 0
      vertex 26.2892 14.4526 0
      vertex 24.2705 17.6336 0
    endloop
  endfacet
  facet normal -0 0 1
    outer loop
      vertex 5.32721 -1.36779 0
      vertex 29.0575 -7.4607 0
      vertex 5.45663 -0.689332 0
    endloop
  endfacet
  facet normal 0 0 1
    outer loop
      vertex 4.44959 3.23282 0
      vertex 24.2705 17.6336 0
      vertex 21.8691 20.5364 0
    endloop
  endfacet
  facet normal 0 0 1
    outer loop
      vertex 29.0575 -7.4607 0
      vertex 5.32721 -1.36779 0
      vertex 27.8933 -11.0437 0
    endloop
  endfacet
  facet normal 0 0 1
    outer loop
      vertex 4.00933 3.76501 0
      vertex 21.8691 20.5364 0
      vertex 19.1227 23.1154 0
    endloop
  endfacet
  facet normal -0 0 1
    outer loop
      vertex 5.11377 -2.02468 0
      vertex 27.8933 -11.0437 0
      vertex 5.32721 -1.36779 0
    endloop
  endfacet
  facet normal 0 0 1
    outer loop
      vertex 3.50583 4.23782 0
      vertex 19.1227 23.1154 0
      vertex 16.0748 25.3298 0
    endloop
  endfacet
  facet normal 0 0 1
    outer loop
      vertex 27.8933 -11.0437 0
      vertex 5.11377 -2.02468 0
      vertex 26.2892 -14.4526 0
    endloop
  endfacet
  facet normal 0 0 1
    outer loop
      vertex 2.94705 4.6438 0
      vertex 16.0748 25.3298 0
      vertex 12.7734 27.1448 0
    endloop
  endfacet
  facet normal -0 0 1
    outer loop
      vertex 4.81969 -2.64964 0
      vertex 26.2892 -14.4526 0
      vertex 5.11377 -2.02468 0
    endloop
  endfacet
  facet normal 0 0 1
    outer loop
      vertex 2.34179 4.97655 0
      vertex 12.7734 27.1448 0
      vertex 9.27051 28.5317 0
    endloop
  endfacet
  facet normal 0 0 1
    outer loop
      vertex 26.2892 -14.4526 0
      vertex 4.81969 -2.64964 0
      vertex 24.2705 -17.6336 0
    endloop
  endfacet
  facet normal 0 0 1
    outer loop
      vertex 1.69959 5.23081 0
      vertex 9.27051 28.5317 0
      vertex 5.62144 29.4686 0
    endloop
  endfacet
  facet normal -0 0 1
    outer loop
      vertex 4.44959 -3.23282 0
      vertex 24.2705 -17.6336 0
      vertex 4.81969 -2.64964 0
    endloop
  endfacet
  facet normal 0 0 1
    outer loop
      vertex 24.2705 -17.6336 0
      vertex 4.44959 -3.23282 0
      vertex 21.8691 -20.5364 0
    endloop
  endfacet
  facet normal 0 0 1
    outer loop
      vertex 29.7634 3.76 0
      vertex 5.45663 0.689332 0
      vertex 5.5 0 0
    endloop
  endfacet
  facet normal 0 0 1
    outer loop
      vertex 29.0575 7.4607 0
      vertex 5.32721 1.36779 0
      vertex 5.45663 0.689332 0
    endloop
  endfacet
  facet normal 0 0 1
    outer loop
      vertex 27.8933 11.0437 0
      vertex 5.11377 2.02468 0
      vertex 5.32721 1.36779 0
    endloop
  endfacet
  facet normal 0 0 1
    outer loop
      vertex 26.2892 14.4526 0
      vertex 4.81969 2.64964 0
      vertex 5.11377 2.02468 0
    endloop
  endfacet
  facet normal 0 0 1
    outer loop
      vertex 24.2705 17.6336 0
      vertex 4.44959 3.23282 0
      vertex 4.81969 2.64964 0
    endloop
  endfacet
  facet normal 0 0 1
    outer loop
      vertex 21.8691 20.5364 0
      vertex 4.00933 3.76501 0
      vertex 4.44959 3.23282 0
    endloop
  endfacet
  facet normal 0 0 1
    outer loop
      vertex 19.1227 23.1154 0
      vertex 3.50583 4.23782 0
      vertex 4.00933 3.76501 0
    endloop
  endfacet
  facet normal 0 0 1
    outer loop
      vertex 16.0748 25.3298 0
      vertex 2.94705 4.6438 0
      vertex 3.50583 4.23782 0
    endloop
  endfacet
  facet normal 0 0 1
    outer loop
      vertex 12.7734 27.1448 0
      vertex 2.34179 4.97655 0
      vertex 2.94705 4.6438 0
    endloop
  endfacet
  facet normal 0 0 1
    outer loop
      vertex 1.0306 5.40258 0
      vertex 5.62144 29.4686 0
      vertex 1.88371 29.9408 0
    endloop
  endfacet
  facet normal 0 0 1
    outer loop
      vertex 9.27051 28.5317 0
      vertex 1.69959 5.23081 0
      vertex 2.34179 4.97655 0
    endloop
  endfacet
  facet normal 0 0 1
    outer loop
      vertex 5.62144 29.4686 0
      vertex 1.0306 5.40258 0
      vertex 1.69959 5.23081 0
    endloop
  endfacet
  facet normal 0 0 1
    outer loop
      vertex 1.88371 29.9408 0
      vertex 0.345347 5.48915 0
      vertex 1.0306 5.40258 0
    endloop
  endfacet
  facet normal 0 0 1
    outer loop
      vertex 1.88371 29.9408 0
      vertex -0.345347 5.48915 0
      vertex 0.345347 5.48915 0
    endloop
  endfacet
  facet normal -0 0 1
    outer loop
      vertex -1.88371 29.9408 0
      vertex -0.345347 5.48915 0
      vertex 1.88371 29.9408 0
    endloop
  endfacet
  facet normal 0 0 1
    outer loop
      vertex -0.345347 5.48915 0
      vertex -1.88371 29.9408 0
      vertex -1.0306 5.40258 0
    endloop
  endfacet
  facet normal -0 0 1
    outer loop
      vertex -5.62144 29.4686 0
      vertex -1.0306 5.40258 0
      vertex -1.88371 29.9408 0
    endloop
  endfacet
  facet normal 0 0 1
    outer loop
      vertex -1.0306 5.40258 0
      vertex -5.62144 29.4686 0
      vertex -1.69959 5.23081 0
    endloop
  endfacet
  facet normal -0 0 1
    outer loop
      vertex -9.27051 28.5317 0
      vertex -1.69959 5.23081 0
      vertex -5.62144 29.4686 0
    endloop
  endfacet
  facet normal 0 0 1
    outer loop
      vertex -1.69959 5.23081 0
      vertex -9.27051 28.5317 0
      vertex -2.34179 4.97655 0
    endloop
  endfacet
  facet normal -0 0 1
    outer loop
      vertex -12.7734 27.1448 0
      vertex -2.34179 4.97655 0
      vertex -9.27051 28.5317 0
    endloop
  endfacet
  facet normal 0 0 1
    outer loop
      vertex -2.34179 4.97655 0
      vertex -12.7734 27.1448 0
      vertex -2.94705 4.6438 0
    endloop
  endfacet
  facet normal -0 0 1
    outer loop
      vertex -16.0748 25.3298 0
      vertex -2.94705 4.6438 0
      vertex -12.7734 27.1448 0
    endloop
  endfacet
  facet normal 0 0 1
    outer loop
      vertex -2.94705 4.6438 0
      vertex -16.0748 25.3298 0
      vertex -3.50583 4.23782 0
    endloop
  endfacet
  facet normal -0 0 1
    outer loop
      vertex -19.1227 23.1154 0
      vertex -3.50583 4.23782 0
      vertex -16.0748 25.3298 0
    endloop
  endfacet
  facet normal 0 0 1
    outer loop
      vertex -3.50583 4.23782 0
      vertex -19.1227 23.1154 0
      vertex -4.00933 3.76501 0
    endloop
  endfacet
  facet normal 0 0 1
    outer loop
      vertex -4.00933 3.76501 0
      vertex -21.8691 20.5364 0
      vertex -4.44959 3.23282 0
    endloop
  endfacet
  facet normal -0 0 1
    outer loop
      vertex -21.8691 20.5364 0
      vertex -4.00933 3.76501 0
      vertex -19.1227 23.1154 0
    endloop
  endfacet
  facet normal -0 0 1
    outer loop
      vertex 4.00933 -3.76501 0
      vertex 21.8691 -20.5364 0
      vertex 4.44959 -3.23282 0
    endloop
  endfacet
  facet normal 0 0 1
    outer loop
      vertex 21.8691 -20.5364 0
      vertex 4.00933 -3.76501 0
      vertex 19.1227 -23.1154 0
    endloop
  endfacet
  facet normal -0 0 1
    outer loop
      vertex 3.50583 -4.23782 0
      vertex 19.1227 -23.1154 0
      vertex 4.00933 -3.76501 0
    endloop
  endfacet
  facet normal 0 0 1
    outer loop
      vertex 19.1227 -23.1154 0
      vertex 3.50583 -4.23782 0
      vertex 16.0748 -25.3298 0
    endloop
  endfacet
  facet normal -0 0 1
    outer loop
      vertex 2.94705 -4.6438 0
      vertex 16.0748 -25.3298 0
      vertex 3.50583 -4.23782 0
    endloop
  endfacet
  facet normal 0 0 1
    outer loop
      vertex 16.0748 -25.3298 0
      vertex 2.94705 -4.6438 0
      vertex 12.7734 -27.1448 0
    endloop
  endfacet
  facet normal -0 0 1
    outer loop
      vertex 2.34179 -4.97655 0
      vertex 12.7734 -27.1448 0
      vertex 2.94705 -4.6438 0
    endloop
  endfacet
  facet normal 0 0 1
    outer loop
      vertex 12.7734 -27.1448 0
      vertex 2.34179 -4.97655 0
      vertex 9.27051 -28.5317 0
    endloop
  endfacet
  facet normal -0 0 1
    outer loop
      vertex 1.69959 -5.23081 0
      vertex 9.27051 -28.5317 0
      vertex 2.34179 -4.97655 0
    endloop
  endfacet
  facet normal 0 0 1
    outer loop
      vertex 9.27051 -28.5317 0
      vertex 1.69959 -5.23081 0
      vertex 5.62144 -29.4686 0
    endloop
  endfacet
  facet normal -0 0 1
    outer loop
      vertex 1.0306 -5.40258 0
      vertex 5.62144 -29.4686 0
      vertex 1.69959 -5.23081 0
    endloop
  endfacet
  facet normal 0 0 1
    outer loop
      vertex 5.62144 -29.4686 0
      vertex 1.0306 -5.40258 0
      vertex 1.88371 -29.9408 0
    endloop
  endfacet
  facet normal -0 0 1
    outer loop
      vertex 0.345347 -5.48915 0
      vertex 1.88371 -29.9408 0
      vertex 1.0306 -5.40258 0
    endloop
  endfacet
  facet normal -0 0 1
    outer loop
      vertex -0.345347 -5.48915 0
      vertex 1.88371 -29.9408 0
      vertex 0.345347 -5.48915 0
    endloop
  endfacet
  facet normal 0 0 1
    outer loop
      vertex -1.88371 -29.9408 0
      vertex -0.345347 -5.48915 0
      vertex -1.0306 -5.40258 0
    endloop
  endfacet
  facet normal 0 0 1
    outer loop
      vertex -5.62144 -29.4686 0
      vertex -1.0306 -5.40258 0
      vertex -1.69959 -5.23081 0
    endloop
  endfacet
  facet normal 0 0 1
    outer loop
      vertex -0.345347 -5.48915 0
      vertex -1.88371 -29.9408 0
      vertex 1.88371 -29.9408 0
    endloop
  endfacet
  facet normal 0 0 1
    outer loop
      vertex -9.27051 -28.5317 0
      vertex -1.69959 -5.23081 0
      vertex -2.34179 -4.97655 0
    endloop
  endfacet
  facet normal 0 0 1
    outer loop
      vertex -12.7734 -27.1448 0
      vertex -2.34179 -4.97655 0
      vertex -2.94705 -4.6438 0
    endloop
  endfacet
  facet normal 0 0 1
    outer loop
      vertex -16.0748 -25.3298 0
      vertex -2.94705 -4.6438 0
      vertex -3.50583 -4.23782 0
    endloop
  endfacet
  facet normal 0 0 1
    outer loop
      vertex -19.1227 -23.1154 0
      vertex -3.50583 -4.23782 0
      vertex -4.00933 -3.76501 0
    endloop
  endfacet
  facet normal 0 0 1
    outer loop
      vertex -21.8691 -20.5364 0
      vertex -4.00933 -3.76501 0
      vertex -4.44959 -3.23282 0
    endloop
  endfacet
  facet normal 0 0 1
    outer loop
      vertex -24.2705 -17.6336 0
      vertex -4.44959 -3.23282 0
      vertex -4.81969 -2.64964 0
    endloop
  endfacet
  facet normal 0 0 1
    outer loop
      vertex -26.2892 -14.4526 0
      vertex -4.81969 -2.64964 0
      vertex -5.11377 -2.02468 0
    endloop
  endfacet
  facet normal 0 0 1
    outer loop
      vertex -27.8933 -11.0437 0
      vertex -5.11377 -2.02468 0
      vertex -5.32721 -1.36779 0
    endloop
  endfacet
  facet normal 0 0 1
    outer loop
      vertex -29.0575 -7.4607 0
      vertex -5.32721 -1.36779 0
      vertex -5.45663 -0.689332 0
    endloop
  endfacet
  facet normal 0 0 1
    outer loop
      vertex -1.0306 -5.40258 0
      vertex -5.62144 -29.4686 0
      vertex -1.88371 -29.9408 0
    endloop
  endfacet
  facet normal 0 0 1
    outer loop
      vertex -29.7634 -3.76 0
      vertex -5.45663 -0.689332 0
      vertex -5.5 0 0
    endloop
  endfacet
  facet normal -0 0 1
    outer loop
      vertex -24.2705 17.6336 0
      vertex -4.44959 3.23282 0
      vertex -21.8691 20.5364 0
    endloop
  endfacet
  facet normal 0 0 1
    outer loop
      vertex -4.44959 3.23282 0
      vertex -24.2705 17.6336 0
      vertex -4.81969 2.64964 0
    endloop
  endfacet
  facet normal 0 0 1
    outer loop
      vertex -1.69959 -5.23081 0
      vertex -9.27051 -28.5317 0
      vertex -5.62144 -29.4686 0
    endloop
  endfacet
  facet normal -0 0 1
    outer loop
      vertex -26.2892 14.4526 0
      vertex -4.81969 2.64964 0
      vertex -24.2705 17.6336 0
    endloop
  endfacet
  facet normal 0 0 1
    outer loop
      vertex -2.34179 -4.97655 0
      vertex -12.7734 -27.1448 0
      vertex -9.27051 -28.5317 0
    endloop
  endfacet
  facet normal 0 0 1
    outer loop
      vertex -4.81969 2.64964 0
      vertex -26.2892 14.4526 0
      vertex -5.11377 2.02468 0
    endloop
  endfacet
  facet normal 0 0 1
    outer loop
      vertex -2.94705 -4.6438 0
      vertex -16.0748 -25.3298 0
      vertex -12.7734 -27.1448 0
    endloop
  endfacet
  facet normal -0 0 1
    outer loop
      vertex -27.8933 11.0437 0
      vertex -5.11377 2.02468 0
      vertex -26.2892 14.4526 0
    endloop
  endfacet
  facet normal 0 0 1
    outer loop
      vertex -3.50583 -4.23782 0
      vertex -19.1227 -23.1154 0
      vertex -16.0748 -25.3298 0
    endloop
  endfacet
  facet normal 0 0 1
    outer loop
      vertex -5.11377 2.02468 0
      vertex -27.8933 11.0437 0
      vertex -5.32721 1.36779 0
    endloop
  endfacet
  facet normal 0 0 1
    outer loop
      vertex -4.00933 -3.76501 0
      vertex -21.8691 -20.5364 0
      vertex -19.1227 -23.1154 0
    endloop
  endfacet
  facet normal -0 0 1
    outer loop
      vertex -29.0575 7.4607 0
      vertex -5.32721 1.36779 0
      vertex -27.8933 11.0437 0
    endloop
  endfacet
  facet normal 0 0 1
    outer loop
      vertex -4.44959 -3.23282 0
      vertex -24.2705 -17.6336 0
      vertex -21.8691 -20.5364 0
    endloop
  endfacet
  facet normal 0 0 1
    outer loop
      vertex -5.32721 1.36779 0
      vertex -29.0575 7.4607 0
      vertex -5.45663 0.689332 0
    endloop
  endfacet
  facet normal 0 0 1
    outer loop
      vertex -4.81969 -2.64964 0
      vertex -26.2892 -14.4526 0
      vertex -24.2705 -17.6336 0
    endloop
  endfacet
  facet normal -0 0 1
    outer loop
      vertex -29.7634 3.76 0
      vertex -5.45663 0.689332 0
      vertex -29.0575 7.4607 0
    endloop
  endfacet
  facet normal 0 0 1
    outer loop
      vertex -5.11377 -2.02468 0
      vertex -27.8933 -11.0437 0
      vertex -26.2892 -14.4526 0
    endloop
  endfacet
  facet normal 0 0 1
    outer loop
      vertex -5.45663 0.689332 0
      vertex -29.7634 3.76 0
      vertex -5.5 0 0
    endloop
  endfacet
  facet normal 0 0 1
    outer loop
      vertex -5.32721 -1.36779 0
      vertex -29.0575 -7.4607 0
      vertex -27.8933 -11.0437 0
    endloop
  endfacet
  facet normal 0 0 1
    outer loop
      vertex -30 0 0
      vertex -5.5 0 0
      vertex -29.7634 3.76 0
    endloop
  endfacet
  facet normal 0 0 1
    outer loop
      vertex -5.45663 -0.689332 0
      vertex -29.7634 -3.76 0
      vertex -29.0575 -7.4607 0
    endloop
  endfacet
  facet normal 0 0 1
    outer loop
      vertex -5.5 0 0
      vertex -30 0 0
      vertex -29.7634 -3.76 0
    endloop
  endfacet
  facet normal -0.835462 -0.0525578 0.54703
    outer loop
      vertex 5.5 0 0
      vertex 3.52332 0.196952 -3
      vertex 3.53571 0 -3
    endloop
  endfacet
  facet normal -0.835462 -0.0525639 0.547029
    outer loop
      vertex 3.52332 0.196952 -3
      vertex 5.5 0 0
      vertex 5.45663 0.689332 0
    endloop
  endfacet
  facet normal -0.835461 -0.0525663 0.547029
    outer loop
      vertex 3.52332 0.196952 -3
      vertex 5.45663 0.689332 0
      vertex 3.50783 0.443142 -3
    endloop
  endfacet
  facet normal 0.757446 0.35642 0.547029
    outer loop
      vertex -5.11377 -2.02468 0
      vertex -3.09837 -1.70334 -3
      vertex -3.28742 -1.30158 -3
    endloop
  endfacet
  facet normal 0.757445 0.356422 0.547029
    outer loop
      vertex -3.09837 -1.70334 -3
      vertex -5.11377 -2.02468 0
      vertex -4.81969 -2.64964 0
    endloop
  endfacet
  facet normal -0.492052 -0.677233 0.547029
    outer loop
      vertex 2.25375 2.72431 -3
      vertex 3.50583 4.23782 0
      vertex 2.05418 2.86931 -3
    endloop
  endfacet
  facet normal 0.208194 -0.810812 0.547028
    outer loop
      vertex -0.901454 3.41174 -3
      vertex -0.662526 3.47309 -3
      vertex -1.0306 5.40258 0
    endloop
  endfacet
  facet normal -0.835462 0.0525578 0.54703
    outer loop
      vertex 3.52332 -0.196952 -3
      vertex 5.5 0 0
      vertex 3.53571 0 -3
    endloop
  endfacet
  facet normal -0.835462 0.0525639 0.547029
    outer loop
      vertex 5.5 0 0
      vertex 3.52332 -0.196952 -3
      vertex 5.45663 -0.689332 0
    endloop
  endfacet
  facet normal -0.645004 0.533601 0.547029
    outer loop
      vertex 2.57742 -2.42036 -3
      vertex 4.44959 -3.23282 0
      vertex 2.86045 -2.07824 -3
    endloop
  endfacet
  facet normal -0.64501 0.533592 0.54703
    outer loop
      vertex 4.44959 -3.23282 0
      vertex 2.57742 -2.42036 -3
      vertex 4.00933 -3.76501 0
    endloop
  endfacet
  facet normal 0.20819 0.810813 0.547028
    outer loop
      vertex -1.0926 -3.36266 -3
      vertex -1.0306 -5.40258 0
      vertex -0.901454 -3.41174 -3
    endloop
  endfacet
  facet normal 0.208185 0.810813 0.547029
    outer loop
      vertex -1.0306 -5.40258 0
      vertex -1.0926 -3.36266 -3
      vertex -1.69959 -5.23081 0
    endloop
  endfacet
  facet normal 0.796141 0.258685 0.547029
    outer loop
      vertex -5.32721 -1.36779 0
      vertex -3.28742 -1.30158 -3
      vertex -3.42463 -0.879296 -3
    endloop
  endfacet
  facet normal 0.796141 0.258686 0.547029
    outer loop
      vertex -3.28742 -1.30158 -3
      vertex -5.32721 -1.36779 0
      vertex -5.11377 -2.02468 0
    endloop
  endfacet
  facet normal 0.706797 -0.44855 0.547029
    outer loop
      vertex -4.81969 2.64964 0
      vertex -2.86045 2.07824 -3
      vertex -4.44959 3.23282 0
    endloop
  endfacet
  facet normal 0.706799 -0.448547 0.547029
    outer loop
      vertex -2.86045 2.07824 -3
      vertex -4.81969 2.64964 0
      vertex -2.96619 1.91162 -3
    endloop
  endfacet
  facet normal -0.796141 0.258685 0.547029
    outer loop
      vertex 3.28742 -1.30158 -3
      vertex 5.32721 -1.36779 0
      vertex 3.42463 -0.879296 -3
    endloop
  endfacet
  facet normal -0.796141 0.258686 0.547029
    outer loop
      vertex 5.32721 -1.36779 0
      vertex 3.28742 -1.30158 -3
      vertex 5.11377 -2.02468 0
    endloop
  endfacet
  facet normal -0.822292 0.156826 0.54703
    outer loop
      vertex 3.47086 -0.636988 -3
      vertex 5.45663 -0.689332 0
      vertex 3.50783 -0.443142 -3
    endloop
  endfacet
  facet normal -0.822287 0.156856 0.547028
    outer loop
      vertex 5.45663 -0.689332 0
      vertex 3.47086 -0.636988 -3
      vertex 5.32721 -1.36779 0
    endloop
  endfacet
  facet normal -0.757446 0.35642 0.547029
    outer loop
      vertex 3.09837 -1.70334 -3
      vertex 5.11377 -2.02468 0
      vertex 3.28742 -1.30158 -3
    endloop
  endfacet
  facet normal -0.757445 0.356422 0.547029
    outer loop
      vertex 5.11377 -2.02468 0
      vertex 3.09837 -1.70334 -3
      vertex 4.81969 -2.64964 0
    endloop
  endfacet
  facet normal -0.706799 0.448547 0.547029
    outer loop
      vertex 2.86045 -2.07824 -3
      vertex 4.81969 -2.64964 0
      vertex 2.96619 -1.91162 -3
    endloop
  endfacet
  facet normal -0.706797 0.44855 0.547029
    outer loop
      vertex 4.81969 -2.64964 0
      vertex 2.86045 -2.07824 -3
      vertex 4.44959 -3.23282 0
    endloop
  endfacet
  facet normal -0.104921 0.830513 0.547028
    outer loop
      vertex 0.662526 -3.47309 -3
      vertex 0.345347 -5.48915 0
      vertex 1.0306 -5.40258 0
    endloop
  endfacet
  facet normal -0.104918 0.830513 0.547029
    outer loop
      vertex 0.345347 -5.48915 0
      vertex 0.662526 -3.47309 -3
      vertex 0.222009 -3.52874 -3
    endloop
  endfacet
  facet normal -0.403288 0.733566 0.547029
    outer loop
      vertex 1.89453 -2.9853 -3
      vertex 2.34179 -4.97655 0
      vertex 2.94705 -4.6438 0
    endloop
  endfacet
  facet normal -0.403286 0.733566 0.547029
    outer loop
      vertex 2.34179 -4.97655 0
      vertex 1.89453 -2.9853 -3
      vertex 1.7216 -3.08037 -3
    endloop
  endfacet
  facet normal 0.706796 0.448552 0.547029
    outer loop
      vertex -2.96619 -1.91162 -3
      vertex -3.09837 -1.70334 -3
      vertex -4.81969 -2.64964 0
    endloop
  endfacet
  facet normal 0.57304 0.610233 0.547029
    outer loop
      vertex -2.25375 -2.72431 -3
      vertex -2.43357 -2.55545 -3
      vertex -3.50583 -4.23782 0
    endloop
  endfacet
  facet normal 0.308144 0.778335 0.547029
    outer loop
      vertex -1.27608 -3.29002 -3
      vertex -1.69959 -5.23081 0
      vertex -1.0926 -3.36266 -3
    endloop
  endfacet
  facet normal 0.308157 0.778331 0.547028
    outer loop
      vertex -1.69959 -5.23081 0
      vertex -1.27608 -3.29002 -3
      vertex -2.34179 -4.97655 0
    endloop
  endfacet
  facet normal -0.208194 -0.810812 0.547028
    outer loop
      vertex 0.901454 3.41174 -3
      vertex 1.0306 5.40258 0
      vertex 0.662526 3.47309 -3
    endloop
  endfacet
  facet normal 0.403288 -0.733566 0.547029
    outer loop
      vertex -1.89453 2.9853 -3
      vertex -2.34179 4.97655 0
      vertex -2.94705 4.6438 0
    endloop
  endfacet
  facet normal 0.403286 -0.733566 0.547029
    outer loop
      vertex -2.34179 4.97655 0
      vertex -1.89453 2.9853 -3
      vertex -1.7216 3.08037 -3
    endloop
  endfacet
  facet normal 0.64501 -0.533592 0.54703
    outer loop
      vertex -4.44959 3.23282 0
      vertex -2.57742 2.42036 -3
      vertex -4.00933 3.76501 0
    endloop
  endfacet
  facet normal 0.645004 -0.533601 0.547029
    outer loop
      vertex -2.57742 2.42036 -3
      vertex -4.44959 3.23282 0
      vertex -2.86045 2.07824 -3
    endloop
  endfacet
  facet normal 0.835461 -0.0525663 0.547029
    outer loop
      vertex -3.52332 0.196952 -3
      vertex -3.50783 0.443142 -3
      vertex -5.45663 0.689332 0
    endloop
  endfacet
  facet normal -0.835461 0.0525663 0.547029
    outer loop
      vertex 5.45663 -0.689332 0
      vertex 3.52332 -0.196952 -3
      vertex 3.50783 -0.443142 -3
    endloop
  endfacet
  facet normal -0.308173 0.778324 0.54703
    outer loop
      vertex 2.34179 -4.97655 0
      vertex 1.50543 -3.19921 -3
      vertex 1.27608 -3.29002 -3
    endloop
  endfacet
  facet normal -0.573038 0.610234 0.54703
    outer loop
      vertex 2.57742 -2.42036 -3
      vertex 3.50583 -4.23782 0
      vertex 4.00933 -3.76501 0
    endloop
  endfacet
  facet normal -0.573058 0.610218 0.547027
    outer loop
      vertex 3.50583 -4.23782 0
      vertex 2.57742 -2.42036 -3
      vertex 2.43357 -2.55545 -3
    endloop
  endfacet
  facet normal 0.822292 0.156826 0.54703
    outer loop
      vertex -5.45663 -0.689332 0
      vertex -3.47086 -0.636988 -3
      vertex -3.50783 -0.443142 -3
    endloop
  endfacet
  facet normal 0.822287 0.156856 0.547028
    outer loop
      vertex -3.47086 -0.636988 -3
      vertex -5.45663 -0.689332 0
      vertex -5.32721 -1.36779 0
    endloop
  endfacet
  facet normal 0.822281 0.156883 0.54703
    outer loop
      vertex -3.42463 -0.879296 -3
      vertex -3.47086 -0.636988 -3
      vertex -5.32721 -1.36779 0
    endloop
  endfacet
  facet normal 0.573058 0.610218 0.547027
    outer loop
      vertex -2.57742 -2.42036 -3
      vertex -3.50583 -4.23782 0
      vertex -2.43357 -2.55545 -3
    endloop
  endfacet
  facet normal 0.573038 0.610234 0.54703
    outer loop
      vertex -3.50583 -4.23782 0
      vertex -2.57742 -2.42036 -3
      vertex -4.00933 -3.76501 0
    endloop
  endfacet
  facet normal 0 0.837114 0.547029
    outer loop
      vertex 0.222009 -3.52874 -3
      vertex -0.345347 -5.48915 0
      vertex 0.345347 -5.48915 0
    endloop
  endfacet
  facet normal 0 0.837114 0.547029
    outer loop
      vertex -0.345347 -5.48915 0
      vertex 0.222009 -3.52874 -3
      vertex -0.222009 -3.52874 -3
    endloop
  endfacet
  facet normal 0.308173 0.778324 0.54703
    outer loop
      vertex -1.27608 -3.29002 -3
      vertex -1.50543 -3.19921 -3
      vertex -2.34179 -4.97655 0
    endloop
  endfacet
  facet normal -0.757445 -0.356422 0.547029
    outer loop
      vertex 3.09837 1.70334 -3
      vertex 5.11377 2.02468 0
      vertex 4.81969 2.64964 0
    endloop
  endfacet
  facet normal -0.757446 -0.35642 0.547029
    outer loop
      vertex 5.11377 2.02468 0
      vertex 3.09837 1.70334 -3
      vertex 3.28742 1.30158 -3
    endloop
  endfacet
  facet normal -0.706797 -0.44855 0.547029
    outer loop
      vertex 2.86045 2.07824 -3
      vertex 4.81969 2.64964 0
      vertex 4.44959 3.23282 0
    endloop
  endfacet
  facet normal -0.706799 -0.448547 0.547029
    outer loop
      vertex 4.81969 2.64964 0
      vertex 2.86045 2.07824 -3
      vertex 2.96619 1.91162 -3
    endloop
  endfacet
  facet normal 0.308157 -0.778331 0.547028
    outer loop
      vertex -1.27608 3.29002 -3
      vertex -1.69959 5.23081 0
      vertex -2.34179 4.97655 0
    endloop
  endfacet
  facet normal 0.308144 -0.778335 0.547029
    outer loop
      vertex -1.69959 5.23081 0
      vertex -1.27608 3.29002 -3
      vertex -1.0926 3.36266 -3
    endloop
  endfacet
  facet normal 0.104921 -0.830513 0.547028
    outer loop
      vertex -0.662526 3.47309 -3
      vertex -0.345347 5.48915 0
      vertex -1.0306 5.40258 0
    endloop
  endfacet
  facet normal 0.104918 -0.830513 0.547029
    outer loop
      vertex -0.345347 5.48915 0
      vertex -0.662526 3.47309 -3
      vertex -0.222009 3.52874 -3
    endloop
  endfacet
  facet normal 0.57304 -0.610233 0.547029
    outer loop
      vertex -2.43357 2.55545 -3
      vertex -2.25375 2.72431 -3
      vertex -3.50583 4.23782 0
    endloop
  endfacet
  facet normal 0.492045 -0.677238 0.547028
    outer loop
      vertex -2.05418 2.86931 -3
      vertex -2.94705 4.6438 0
      vertex -3.50583 4.23782 0
    endloop
  endfacet
  facet normal 0.492036 -0.677244 0.547029
    outer loop
      vertex -2.94705 4.6438 0
      vertex -2.05418 2.86931 -3
      vertex -1.89453 2.9853 -3
    endloop
  endfacet
  facet normal 0.822287 -0.156856 0.547028
    outer loop
      vertex -5.45663 0.689332 0
      vertex -3.47086 0.636988 -3
      vertex -5.32721 1.36779 0
    endloop
  endfacet
  facet normal 0.822292 -0.156826 0.54703
    outer loop
      vertex -3.47086 0.636988 -3
      vertex -5.45663 0.689332 0
      vertex -3.50783 0.443142 -3
    endloop
  endfacet
  facet normal 0.835461 0.0525663 0.547029
    outer loop
      vertex -3.50783 -0.443142 -3
      vertex -3.52332 -0.196952 -3
      vertex -5.45663 -0.689332 0
    endloop
  endfacet
  facet normal -0.822281 0.156883 0.54703
    outer loop
      vertex 5.32721 -1.36779 0
      vertex 3.47086 -0.636988 -3
      vertex 3.42463 -0.879296 -3
    endloop
  endfacet
  facet normal -0.706796 0.448552 0.547029
    outer loop
      vertex 4.81969 -2.64964 0
      vertex 3.09837 -1.70334 -3
      vertex 2.96619 -1.91162 -3
    endloop
  endfacet
  facet normal -0.208185 0.810813 0.547029
    outer loop
      vertex 1.0926 -3.36266 -3
      vertex 1.0306 -5.40258 0
      vertex 1.69959 -5.23081 0
    endloop
  endfacet
  facet normal -0.20819 0.810813 0.547028
    outer loop
      vertex 1.0306 -5.40258 0
      vertex 1.0926 -3.36266 -3
      vertex 0.901454 -3.41174 -3
    endloop
  endfacet
  facet normal -0.308157 0.778331 0.547028
    outer loop
      vertex 1.27608 -3.29002 -3
      vertex 1.69959 -5.23081 0
      vertex 2.34179 -4.97655 0
    endloop
  endfacet
  facet normal -0.308144 0.778335 0.547029
    outer loop
      vertex 1.69959 -5.23081 0
      vertex 1.27608 -3.29002 -3
      vertex 1.0926 -3.36266 -3
    endloop
  endfacet
  facet normal -0.208194 0.810812 0.547028
    outer loop
      vertex 1.0306 -5.40258 0
      vertex 0.901454 -3.41174 -3
      vertex 0.662526 -3.47309 -3
    endloop
  endfacet
  facet normal -0.403281 0.733569 0.54703
    outer loop
      vertex 2.34179 -4.97655 0
      vertex 1.7216 -3.08037 -3
      vertex 1.50543 -3.19921 -3
    endloop
  endfacet
  facet normal -0.492045 0.677238 0.547028
    outer loop
      vertex 2.05418 -2.86931 -3
      vertex 2.94705 -4.6438 0
      vertex 3.50583 -4.23782 0
    endloop
  endfacet
  facet normal -0.492036 0.677244 0.547029
    outer loop
      vertex 2.94705 -4.6438 0
      vertex 2.05418 -2.86931 -3
      vertex 1.89453 -2.9853 -3
    endloop
  endfacet
  facet normal -0.57304 0.610233 0.547029
    outer loop
      vertex 3.50583 -4.23782 0
      vertex 2.43357 -2.55545 -3
      vertex 2.25375 -2.72431 -3
    endloop
  endfacet
  facet normal -0.492052 0.677233 0.547029
    outer loop
      vertex 3.50583 -4.23782 0
      vertex 2.25375 -2.72431 -3
      vertex 2.05418 -2.86931 -3
    endloop
  endfacet
  facet normal 0.104918 0.830513 0.547029
    outer loop
      vertex -0.662526 -3.47309 -3
      vertex -0.345347 -5.48915 0
      vertex -0.222009 -3.52874 -3
    endloop
  endfacet
  facet normal 0.104921 0.830513 0.547028
    outer loop
      vertex -0.345347 -5.48915 0
      vertex -0.662526 -3.47309 -3
      vertex -1.0306 -5.40258 0
    endloop
  endfacet
  facet normal 0.492036 0.677244 0.547029
    outer loop
      vertex -2.05418 -2.86931 -3
      vertex -2.94705 -4.6438 0
      vertex -1.89453 -2.9853 -3
    endloop
  endfacet
  facet normal 0.492045 0.677238 0.547028
    outer loop
      vertex -2.94705 -4.6438 0
      vertex -2.05418 -2.86931 -3
      vertex -3.50583 -4.23782 0
    endloop
  endfacet
  facet normal 0.492052 0.677233 0.547029
    outer loop
      vertex -2.05418 -2.86931 -3
      vertex -2.25375 -2.72431 -3
      vertex -3.50583 -4.23782 0
    endloop
  endfacet
  facet normal -0.403281 -0.733569 0.54703
    outer loop
      vertex 1.7216 3.08037 -3
      vertex 2.34179 4.97655 0
      vertex 1.50543 3.19921 -3
    endloop
  endfacet
  facet normal 0 -0.837114 0.547029
    outer loop
      vertex -0.222009 3.52874 -3
      vertex 0.345347 5.48915 0
      vertex -0.345347 5.48915 0
    endloop
  endfacet
  facet normal 0 -0.837114 0.547029
    outer loop
      vertex 0.345347 5.48915 0
      vertex -0.222009 3.52874 -3
      vertex 0.222009 3.52874 -3
    endloop
  endfacet
  facet normal -0.822287 -0.156856 0.547028
    outer loop
      vertex 3.47086 0.636988 -3
      vertex 5.45663 0.689332 0
      vertex 5.32721 1.36779 0
    endloop
  endfacet
  facet normal -0.822292 -0.156826 0.54703
    outer loop
      vertex 5.45663 0.689332 0
      vertex 3.47086 0.636988 -3
      vertex 3.50783 0.443142 -3
    endloop
  endfacet
  facet normal -0.57304 -0.610233 0.547029
    outer loop
      vertex 2.43357 2.55545 -3
      vertex 3.50583 4.23782 0
      vertex 2.25375 2.72431 -3
    endloop
  endfacet
  facet normal 0.208185 -0.810813 0.547029
    outer loop
      vertex -1.0926 3.36266 -3
      vertex -1.0306 5.40258 0
      vertex -1.69959 5.23081 0
    endloop
  endfacet
  facet normal 0.20819 -0.810813 0.547028
    outer loop
      vertex -1.0306 5.40258 0
      vertex -1.0926 3.36266 -3
      vertex -0.901454 3.41174 -3
    endloop
  endfacet
  facet normal 0.573038 -0.610234 0.54703
    outer loop
      vertex -2.57742 2.42036 -3
      vertex -3.50583 4.23782 0
      vertex -4.00933 3.76501 0
    endloop
  endfacet
  facet normal 0.573058 -0.610218 0.547027
    outer loop
      vertex -3.50583 4.23782 0
      vertex -2.57742 2.42036 -3
      vertex -2.43357 2.55545 -3
    endloop
  endfacet
  facet normal 0.403281 -0.733569 0.54703
    outer loop
      vertex -1.7216 3.08037 -3
      vertex -1.50543 3.19921 -3
      vertex -2.34179 4.97655 0
    endloop
  endfacet
  facet normal 0.308173 -0.778324 0.54703
    outer loop
      vertex -1.50543 3.19921 -3
      vertex -1.27608 3.29002 -3
      vertex -2.34179 4.97655 0
    endloop
  endfacet
  facet normal 0.492052 -0.677233 0.547029
    outer loop
      vertex -2.25375 2.72431 -3
      vertex -2.05418 2.86931 -3
      vertex -3.50583 4.23782 0
    endloop
  endfacet
  facet normal 0.757445 -0.356422 0.547029
    outer loop
      vertex -5.11377 2.02468 0
      vertex -3.09837 1.70334 -3
      vertex -4.81969 2.64964 0
    endloop
  endfacet
  facet normal 0.757446 -0.35642 0.547029
    outer loop
      vertex -3.09837 1.70334 -3
      vertex -5.11377 2.02468 0
      vertex -3.28742 1.30158 -3
    endloop
  endfacet
  facet normal 0.835462 0.0525578 0.54703
    outer loop
      vertex -5.5 0 0
      vertex -3.52332 -0.196952 -3
      vertex -3.53571 0 -3
    endloop
  endfacet
  facet normal 0.835462 0.0525639 0.547029
    outer loop
      vertex -3.52332 -0.196952 -3
      vertex -5.5 0 0
      vertex -5.45663 -0.689332 0
    endloop
  endfacet
  facet normal 0.835462 -0.0525639 0.547029
    outer loop
      vertex -5.5 0 0
      vertex -3.52332 0.196952 -3
      vertex -5.45663 0.689332 0
    endloop
  endfacet
  facet normal 0.835462 -0.0525578 0.54703
    outer loop
      vertex -3.52332 0.196952 -3
      vertex -5.5 0 0
      vertex -3.53571 0 -3
    endloop
  endfacet
  facet normal 0.645004 0.533601 0.547029
    outer loop
      vertex -4.44959 -3.23282 0
      vertex -2.57742 -2.42036 -3
      vertex -2.86045 -2.07824 -3
    endloop
  endfacet
  facet normal 0.64501 0.533592 0.54703
    outer loop
      vertex -2.57742 -2.42036 -3
      vertex -4.44959 -3.23282 0
      vertex -4.00933 -3.76501 0
    endloop
  endfacet
  facet normal 0.706799 0.448547 0.547029
    outer loop
      vertex -4.81969 -2.64964 0
      vertex -2.86045 -2.07824 -3
      vertex -2.96619 -1.91162 -3
    endloop
  endfacet
  facet normal 0.706797 0.44855 0.547029
    outer loop
      vertex -2.86045 -2.07824 -3
      vertex -4.81969 -2.64964 0
      vertex -4.44959 -3.23282 0
    endloop
  endfacet
  facet normal 0.208194 0.810812 0.547028
    outer loop
      vertex -0.662526 -3.47309 -3
      vertex -0.901454 -3.41174 -3
      vertex -1.0306 -5.40258 0
    endloop
  endfacet
  facet normal 0.403281 0.733569 0.54703
    outer loop
      vertex -1.50543 -3.19921 -3
      vertex -1.7216 -3.08037 -3
      vertex -2.34179 -4.97655 0
    endloop
  endfacet
  facet normal 0.403286 0.733566 0.547029
    outer loop
      vertex -1.89453 -2.9853 -3
      vertex -2.34179 -4.97655 0
      vertex -1.7216 -3.08037 -3
    endloop
  endfacet
  facet normal 0.403288 0.733566 0.547029
    outer loop
      vertex -2.34179 -4.97655 0
      vertex -1.89453 -2.9853 -3
      vertex -2.94705 -4.6438 0
    endloop
  endfacet
  facet normal -0.403286 -0.733566 0.547029
    outer loop
      vertex 1.89453 2.9853 -3
      vertex 2.34179 4.97655 0
      vertex 1.7216 3.08037 -3
    endloop
  endfacet
  facet normal -0.403288 -0.733566 0.547029
    outer loop
      vertex 2.34179 4.97655 0
      vertex 1.89453 2.9853 -3
      vertex 2.94705 4.6438 0
    endloop
  endfacet
  facet normal -0.492036 -0.677244 0.547029
    outer loop
      vertex 2.05418 2.86931 -3
      vertex 2.94705 4.6438 0
      vertex 1.89453 2.9853 -3
    endloop
  endfacet
  facet normal -0.492045 -0.677238 0.547028
    outer loop
      vertex 2.94705 4.6438 0
      vertex 2.05418 2.86931 -3
      vertex 3.50583 4.23782 0
    endloop
  endfacet
  facet normal -0.308144 -0.778335 0.547029
    outer loop
      vertex 1.27608 3.29002 -3
      vertex 1.69959 5.23081 0
      vertex 1.0926 3.36266 -3
    endloop
  endfacet
  facet normal -0.308157 -0.778331 0.547028
    outer loop
      vertex 1.69959 5.23081 0
      vertex 1.27608 3.29002 -3
      vertex 2.34179 4.97655 0
    endloop
  endfacet
  facet normal -0.20819 -0.810813 0.547028
    outer loop
      vertex 1.0926 3.36266 -3
      vertex 1.0306 5.40258 0
      vertex 0.901454 3.41174 -3
    endloop
  endfacet
  facet normal -0.208185 -0.810813 0.547029
    outer loop
      vertex 1.0306 5.40258 0
      vertex 1.0926 3.36266 -3
      vertex 1.69959 5.23081 0
    endloop
  endfacet
  facet normal -0.706796 -0.448552 0.547029
    outer loop
      vertex 3.09837 1.70334 -3
      vertex 4.81969 2.64964 0
      vertex 2.96619 1.91162 -3
    endloop
  endfacet
  facet normal -0.796141 -0.258686 0.547029
    outer loop
      vertex 3.28742 1.30158 -3
      vertex 5.32721 1.36779 0
      vertex 5.11377 2.02468 0
    endloop
  endfacet
  facet normal -0.796141 -0.258685 0.547029
    outer loop
      vertex 5.32721 1.36779 0
      vertex 3.28742 1.30158 -3
      vertex 3.42463 0.879296 -3
    endloop
  endfacet
  facet normal -0.822281 -0.156883 0.54703
    outer loop
      vertex 3.47086 0.636988 -3
      vertex 5.32721 1.36779 0
      vertex 3.42463 0.879296 -3
    endloop
  endfacet
  facet normal 0.706796 -0.448552 0.547029
    outer loop
      vertex -3.09837 1.70334 -3
      vertex -2.96619 1.91162 -3
      vertex -4.81969 2.64964 0
    endloop
  endfacet
  facet normal 0.822281 -0.156883 0.54703
    outer loop
      vertex -3.47086 0.636988 -3
      vertex -3.42463 0.879296 -3
      vertex -5.32721 1.36779 0
    endloop
  endfacet
  facet normal 0.796141 -0.258686 0.547029
    outer loop
      vertex -5.32721 1.36779 0
      vertex -3.28742 1.30158 -3
      vertex -5.11377 2.02468 0
    endloop
  endfacet
  facet normal 0.796141 -0.258685 0.547029
    outer loop
      vertex -3.28742 1.30158 -3
      vertex -5.32721 1.36779 0
      vertex -3.42463 0.879296 -3
    endloop
  endfacet
  facet normal -0.308173 -0.778324 0.54703
    outer loop
      vertex 1.50543 3.19921 -3
      vertex 2.34179 4.97655 0
      vertex 1.27608 3.29002 -3
    endloop
  endfacet
  facet normal -0.104918 -0.830513 0.547029
    outer loop
      vertex 0.662526 3.47309 -3
      vertex 0.345347 5.48915 0
      vertex 0.222009 3.52874 -3
    endloop
  endfacet
  facet normal -0.104921 -0.830513 0.547028
    outer loop
      vertex 0.345347 5.48915 0
      vertex 0.662526 3.47309 -3
      vertex 1.0306 5.40258 0
    endloop
  endfacet
  facet normal -0.573058 -0.610218 0.547027
    outer loop
      vertex 2.57742 2.42036 -3
      vertex 3.50583 4.23782 0
      vertex 2.43357 2.55545 -3
    endloop
  endfacet
  facet normal -0.573038 -0.610234 0.54703
    outer loop
      vertex 3.50583 4.23782 0
      vertex 2.57742 2.42036 -3
      vertex 4.00933 3.76501 0
    endloop
  endfacet
  facet normal -0.64501 -0.533592 0.54703
    outer loop
      vertex 2.57742 2.42036 -3
      vertex 4.44959 3.23282 0
      vertex 4.00933 3.76501 0
    endloop
  endfacet
  facet normal -0.645004 -0.533601 0.547029
    outer loop
      vertex 4.44959 3.23282 0
      vertex 2.57742 2.42036 -3
      vertex 2.86045 2.07824 -3
    endloop
  endfacet
  facet normal 0.904828 0.425778 0
    outer loop
      vertex 27.8933 11.0437 0
      vertex 26.2892 14.4526 -3
      vertex 26.2892 14.4526 0
    endloop
  endfacet
  facet normal 0.904828 0.425778 0
    outer loop
      vertex 26.2892 14.4526 -3
      vertex 27.8933 11.0437 0
      vertex 27.8933 11.0437 -3
    endloop
  endfacet
  facet normal -0.951056 0.30902 0
    outer loop
      vertex -29.0575 7.4607 -3
      vertex -27.8933 11.0437 0
      vertex -27.8933 11.0437 -3
    endloop
  endfacet
  facet normal -0.951056 0.30902 0
    outer loop
      vertex -27.8933 11.0437 0
      vertex -29.0575 7.4607 -3
      vertex -29.0575 7.4607 0
    endloop
  endfacet
  facet normal 0.844331 0.535822 0
    outer loop
      vertex 26.2892 14.4526 0
      vertex 24.2705 17.6336 -3
      vertex 24.2705 17.6336 0
    endloop
  endfacet
  facet normal 0.844331 0.535822 0
    outer loop
      vertex 24.2705 17.6336 -3
      vertex 26.2892 14.4526 0
      vertex 26.2892 14.4526 -3
    endloop
  endfacet
  facet normal 0.368126 0.929776 -0
    outer loop
      vertex 12.7734 27.1448 -3
      vertex 9.27051 28.5317 0
      vertex 12.7734 27.1448 0
    endloop
  endfacet
  facet normal 0.368126 0.929776 0
    outer loop
      vertex 9.27051 28.5317 0
      vertex 12.7734 27.1448 -3
      vertex 9.27051 28.5317 -3
    endloop
  endfacet
  facet normal -0.368126 0.929776 0
    outer loop
      vertex -9.27051 28.5317 -3
      vertex -12.7734 27.1448 0
      vertex -9.27051 28.5317 0
    endloop
  endfacet
  facet normal -0.368126 0.929776 0
    outer loop
      vertex -12.7734 27.1448 0
      vertex -9.27051 28.5317 -3
      vertex -12.7734 27.1448 -3
    endloop
  endfacet
  facet normal -0.904828 0.425778 0
    outer loop
      vertex -27.8933 11.0437 -3
      vertex -26.2892 14.4526 0
      vertex -26.2892 14.4526 -3
    endloop
  endfacet
  facet normal -0.904828 0.425778 0
    outer loop
      vertex -26.2892 14.4526 0
      vertex -27.8933 11.0437 -3
      vertex -27.8933 11.0437 0
    endloop
  endfacet
  facet normal 0.998026 -0.0628013 0
    outer loop
      vertex 29.7634 -3.76 0
      vertex 30 0 -3
      vertex 30 0 0
    endloop
  endfacet
  facet normal 0.998026 -0.0628013 0
    outer loop
      vertex 30 0 -3
      vertex 29.7634 -3.76 0
      vertex 29.7634 -3.76 -3
    endloop
  endfacet
  facet normal 0.368126 -0.929776 0
    outer loop
      vertex 9.27051 -28.5317 -3
      vertex 12.7734 -27.1448 0
      vertex 9.27051 -28.5317 0
    endloop
  endfacet
  facet normal 0.368126 -0.929776 0
    outer loop
      vertex 12.7734 -27.1448 0
      vertex 9.27051 -28.5317 -3
      vertex 12.7734 -27.1448 -3
    endloop
  endfacet
  facet normal 0.125337 0.992114 -0
    outer loop
      vertex 5.62144 29.4686 -3
      vertex 1.88371 29.9408 0
      vertex 5.62144 29.4686 0
    endloop
  endfacet
  facet normal 0.125337 0.992114 0
    outer loop
      vertex 1.88371 29.9408 0
      vertex 5.62144 29.4686 -3
      vertex 1.88371 29.9408 -3
    endloop
  endfacet
  facet normal 0.58778 0.809021 -0
    outer loop
      vertex 19.1227 23.1154 -3
      vertex 16.0748 25.3298 0
      vertex 19.1227 23.1154 0
    endloop
  endfacet
  facet normal 0.58778 0.809021 0
    outer loop
      vertex 16.0748 25.3298 0
      vertex 19.1227 23.1154 -3
      vertex 16.0748 25.3298 -3
    endloop
  endfacet
  facet normal -0.770514 0.637423 0
    outer loop
      vertex -24.2705 17.6336 -3
      vertex -21.8691 20.5364 0
      vertex -21.8691 20.5364 -3
    endloop
  endfacet
  facet normal -0.770514 0.637423 0
    outer loop
      vertex -21.8691 20.5364 0
      vertex -24.2705 17.6336 -3
      vertex -24.2705 17.6336 0
    endloop
  endfacet
  facet normal -0.481762 0.876302 0
    outer loop
      vertex -12.7734 27.1448 -3
      vertex -16.0748 25.3298 0
      vertex -12.7734 27.1448 0
    endloop
  endfacet
  facet normal -0.481762 0.876302 0
    outer loop
      vertex -16.0748 25.3298 0
      vertex -12.7734 27.1448 -3
      vertex -16.0748 25.3298 -3
    endloop
  endfacet
  facet normal -0.58778 0.809021 0
    outer loop
      vertex -16.0748 25.3298 -3
      vertex -19.1227 23.1154 0
      vertex -16.0748 25.3298 0
    endloop
  endfacet
  facet normal -0.58778 0.809021 0
    outer loop
      vertex -19.1227 23.1154 0
      vertex -16.0748 25.3298 -3
      vertex -19.1227 23.1154 -3
    endloop
  endfacet
  facet normal 0.998026 0.0628013 0
    outer loop
      vertex 30 0 0
      vertex 29.7634 3.76 -3
      vertex 29.7634 3.76 0
    endloop
  endfacet
  facet normal 0.998026 0.0628013 0
    outer loop
      vertex 29.7634 3.76 -3
      vertex 30 0 0
      vertex 30 0 -3
    endloop
  endfacet
  facet normal 0.951056 -0.30902 0
    outer loop
      vertex 27.8933 -11.0437 0
      vertex 29.0575 -7.4607 -3
      vertex 29.0575 -7.4607 0
    endloop
  endfacet
  facet normal 0.951056 -0.30902 0
    outer loop
      vertex 29.0575 -7.4607 -3
      vertex 27.8933 -11.0437 0
      vertex 27.8933 -11.0437 -3
    endloop
  endfacet
  facet normal -0.125337 -0.992114 0
    outer loop
      vertex -5.62144 -29.4686 -3
      vertex -1.88371 -29.9408 0
      vertex -5.62144 -29.4686 0
    endloop
  endfacet
  facet normal -0.125337 -0.992114 -0
    outer loop
      vertex -1.88371 -29.9408 0
      vertex -5.62144 -29.4686 -3
      vertex -1.88371 -29.9408 -3
    endloop
  endfacet
  facet normal 0.248684 -0.968585 0
    outer loop
      vertex 5.62144 -29.4686 -3
      vertex 9.27051 -28.5317 0
      vertex 5.62144 -29.4686 0
    endloop
  endfacet
  facet normal 0.248684 -0.968585 0
    outer loop
      vertex 9.27051 -28.5317 0
      vertex 5.62144 -29.4686 -3
      vertex 9.27051 -28.5317 -3
    endloop
  endfacet
  facet normal 0.481762 -0.876302 0
    outer loop
      vertex 12.7734 -27.1448 -3
      vertex 16.0748 -25.3298 0
      vertex 12.7734 -27.1448 0
    endloop
  endfacet
  facet normal 0.481762 -0.876302 0
    outer loop
      vertex 16.0748 -25.3298 0
      vertex 12.7734 -27.1448 -3
      vertex 16.0748 -25.3298 -3
    endloop
  endfacet
  facet normal 0.951056 0.30902 0
    outer loop
      vertex 29.0575 7.4607 0
      vertex 27.8933 11.0437 -3
      vertex 27.8933 11.0437 0
    endloop
  endfacet
  facet normal 0.951056 0.30902 0
    outer loop
      vertex 27.8933 11.0437 -3
      vertex 29.0575 7.4607 0
      vertex 29.0575 7.4607 -3
    endloop
  endfacet
  facet normal 0.684541 0.728974 -0
    outer loop
      vertex 21.8691 20.5364 -3
      vertex 19.1227 23.1154 0
      vertex 21.8691 20.5364 0
    endloop
  endfacet
  facet normal 0.684541 0.728974 0
    outer loop
      vertex 19.1227 23.1154 0
      vertex 21.8691 20.5364 -3
      vertex 19.1227 23.1154 -3
    endloop
  endfacet
  facet normal 0 1 -0
    outer loop
      vertex 1.88371 29.9408 -3
      vertex -1.88371 29.9408 0
      vertex 1.88371 29.9408 0
    endloop
  endfacet
  facet normal 0 1 0
    outer loop
      vertex -1.88371 29.9408 0
      vertex 1.88371 29.9408 -3
      vertex -1.88371 29.9408 -3
    endloop
  endfacet
  facet normal 0.248684 0.968585 -0
    outer loop
      vertex 9.27051 28.5317 -3
      vertex 5.62144 29.4686 0
      vertex 9.27051 28.5317 0
    endloop
  endfacet
  facet normal 0.248684 0.968585 0
    outer loop
      vertex 5.62144 29.4686 0
      vertex 9.27051 28.5317 -3
      vertex 5.62144 29.4686 -3
    endloop
  endfacet
  facet normal -0.998026 0.0628013 0
    outer loop
      vertex -30 0 -3
      vertex -29.7634 3.76 0
      vertex -29.7634 3.76 -3
    endloop
  endfacet
  facet normal -0.998026 0.0628013 0
    outer loop
      vertex -29.7634 3.76 0
      vertex -30 0 -3
      vertex -30 0 0
    endloop
  endfacet
  facet normal -0.125337 0.992114 0
    outer loop
      vertex -1.88371 29.9408 -3
      vertex -5.62144 29.4686 0
      vertex -1.88371 29.9408 0
    endloop
  endfacet
  facet normal -0.125337 0.992114 0
    outer loop
      vertex -5.62144 29.4686 0
      vertex -1.88371 29.9408 -3
      vertex -5.62144 29.4686 -3
    endloop
  endfacet
  facet normal -0.248684 0.968585 0
    outer loop
      vertex -5.62144 29.4686 -3
      vertex -9.27051 28.5317 0
      vertex -5.62144 29.4686 0
    endloop
  endfacet
  facet normal -0.248684 0.968585 0
    outer loop
      vertex -9.27051 28.5317 0
      vertex -5.62144 29.4686 -3
      vertex -9.27051 28.5317 -3
    endloop
  endfacet
  facet normal -0.684541 0.728974 0
    outer loop
      vertex -19.1227 23.1154 -3
      vertex -21.8691 20.5364 0
      vertex -19.1227 23.1154 0
    endloop
  endfacet
  facet normal -0.684541 0.728974 0
    outer loop
      vertex -21.8691 20.5364 0
      vertex -19.1227 23.1154 -3
      vertex -21.8691 20.5364 -3
    endloop
  endfacet
  facet normal 0.98229 -0.187369 0
    outer loop
      vertex 29.0575 -7.4607 0
      vertex 29.7634 -3.76 -3
      vertex 29.7634 -3.76 0
    endloop
  endfacet
  facet normal 0.98229 -0.187369 0
    outer loop
      vertex 29.7634 -3.76 -3
      vertex 29.0575 -7.4607 0
      vertex 29.0575 -7.4607 -3
    endloop
  endfacet
  facet normal -0.248684 -0.968585 0
    outer loop
      vertex -9.27051 -28.5317 -3
      vertex -5.62144 -29.4686 0
      vertex -9.27051 -28.5317 0
    endloop
  endfacet
  facet normal -0.248684 -0.968585 -0
    outer loop
      vertex -5.62144 -29.4686 0
      vertex -9.27051 -28.5317 -3
      vertex -5.62144 -29.4686 -3
    endloop
  endfacet
  facet normal 0.125337 -0.992114 0
    outer loop
      vertex 1.88371 -29.9408 -3
      vertex 5.62144 -29.4686 0
      vertex 1.88371 -29.9408 0
    endloop
  endfacet
  facet normal 0.125337 -0.992114 0
    outer loop
      vertex 5.62144 -29.4686 0
      vertex 1.88371 -29.9408 -3
      vertex 5.62144 -29.4686 -3
    endloop
  endfacet
  facet normal 0.98229 0.187369 0
    outer loop
      vertex 29.7634 3.76 0
      vertex 29.0575 7.4607 -3
      vertex 29.0575 7.4607 0
    endloop
  endfacet
  facet normal 0.98229 0.187369 0
    outer loop
      vertex 29.0575 7.4607 -3
      vertex 29.7634 3.76 0
      vertex 29.7634 3.76 -3
    endloop
  endfacet
  facet normal 0.770514 0.637423 0
    outer loop
      vertex 24.2705 17.6336 0
      vertex 21.8691 20.5364 -3
      vertex 21.8691 20.5364 0
    endloop
  endfacet
  facet normal 0.770514 0.637423 0
    outer loop
      vertex 21.8691 20.5364 -3
      vertex 24.2705 17.6336 0
      vertex 24.2705 17.6336 -3
    endloop
  endfacet
  facet normal 0.481762 0.876302 -0
    outer loop
      vertex 16.0748 25.3298 -3
      vertex 12.7734 27.1448 0
      vertex 16.0748 25.3298 0
    endloop
  endfacet
  facet normal 0.481762 0.876302 0
    outer loop
      vertex 12.7734 27.1448 0
      vertex 16.0748 25.3298 -3
      vertex 12.7734 27.1448 -3
    endloop
  endfacet
  facet normal -0.98229 0.187369 0
    outer loop
      vertex -29.7634 3.76 -3
      vertex -29.0575 7.4607 0
      vertex -29.0575 7.4607 -3
    endloop
  endfacet
  facet normal -0.98229 0.187369 0
    outer loop
      vertex -29.0575 7.4607 0
      vertex -29.7634 3.76 -3
      vertex -29.7634 3.76 0
    endloop
  endfacet
  facet normal -0.844331 0.535822 0
    outer loop
      vertex -26.2892 14.4526 -3
      vertex -24.2705 17.6336 0
      vertex -24.2705 17.6336 -3
    endloop
  endfacet
  facet normal -0.844331 0.535822 0
    outer loop
      vertex -24.2705 17.6336 0
      vertex -26.2892 14.4526 -3
      vertex -26.2892 14.4526 0
    endloop
  endfacet
  facet normal 0.844331 -0.535822 0
    outer loop
      vertex 24.2705 -17.6336 0
      vertex 26.2892 -14.4526 -3
      vertex 26.2892 -14.4526 0
    endloop
  endfacet
  facet normal 0.844331 -0.535822 0
    outer loop
      vertex 26.2892 -14.4526 -3
      vertex 24.2705 -17.6336 0
      vertex 24.2705 -17.6336 -3
    endloop
  endfacet
  facet normal -0.998026 -0.0628013 0
    outer loop
      vertex -29.7634 -3.76 -3
      vertex -30 0 0
      vertex -30 0 -3
    endloop
  endfacet
  facet normal -0.998026 -0.0628013 0
    outer loop
      vertex -30 0 0
      vertex -29.7634 -3.76 -3
      vertex -29.7634 -3.76 0
    endloop
  endfacet
  facet normal -0.951056 -0.30902 0
    outer loop
      vertex -27.8933 -11.0437 -3
      vertex -29.0575 -7.4607 0
      vertex -29.0575 -7.4607 -3
    endloop
  endfacet
  facet normal -0.951056 -0.30902 0
    outer loop
      vertex -29.0575 -7.4607 0
      vertex -27.8933 -11.0437 -3
      vertex -27.8933 -11.0437 0
    endloop
  endfacet
  facet normal -0.770514 -0.637423 0
    outer loop
      vertex -21.8691 -20.5364 -3
      vertex -24.2705 -17.6336 0
      vertex -24.2705 -17.6336 -3
    endloop
  endfacet
  facet normal -0.770514 -0.637423 0
    outer loop
      vertex -24.2705 -17.6336 0
      vertex -21.8691 -20.5364 -3
      vertex -21.8691 -20.5364 0
    endloop
  endfacet
  facet normal -0.904828 -0.425778 0
    outer loop
      vertex -26.2892 -14.4526 -3
      vertex -27.8933 -11.0437 0
      vertex -27.8933 -11.0437 -3
    endloop
  endfacet
  facet normal -0.904828 -0.425778 0
    outer loop
      vertex -27.8933 -11.0437 0
      vertex -26.2892 -14.4526 -3
      vertex -26.2892 -14.4526 0
    endloop
  endfacet
  facet normal 0.904828 -0.425778 0
    outer loop
      vertex 26.2892 -14.4526 0
      vertex 27.8933 -11.0437 -3
      vertex 27.8933 -11.0437 0
    endloop
  endfacet
  facet normal 0.904828 -0.425778 0
    outer loop
      vertex 27.8933 -11.0437 -3
      vertex 26.2892 -14.4526 0
      vertex 26.2892 -14.4526 -3
    endloop
  endfacet
  facet normal -0.684541 -0.728974 0
    outer loop
      vertex -21.8691 -20.5364 -3
      vertex -19.1227 -23.1154 0
      vertex -21.8691 -20.5364 0
    endloop
  endfacet
  facet normal -0.684541 -0.728974 -0
    outer loop
      vertex -19.1227 -23.1154 0
      vertex -21.8691 -20.5364 -3
      vertex -19.1227 -23.1154 -3
    endloop
  endfacet
  facet normal 0 -1 0
    outer loop
      vertex -1.88371 -29.9408 -3
      vertex 1.88371 -29.9408 0
      vertex -1.88371 -29.9408 0
    endloop
  endfacet
  facet normal 0 -1 -0
    outer loop
      vertex 1.88371 -29.9408 0
      vertex -1.88371 -29.9408 -3
      vertex 1.88371 -29.9408 -3
    endloop
  endfacet
  facet normal -0.58778 -0.809021 0
    outer loop
      vertex -19.1227 -23.1154 -3
      vertex -16.0748 -25.3298 0
      vertex -19.1227 -23.1154 0
    endloop
  endfacet
  facet normal -0.58778 -0.809021 -0
    outer loop
      vertex -16.0748 -25.3298 0
      vertex -19.1227 -23.1154 -3
      vertex -16.0748 -25.3298 -3
    endloop
  endfacet
  facet normal -0.481762 -0.876302 0
    outer loop
      vertex -16.0748 -25.3298 -3
      vertex -12.7734 -27.1448 0
      vertex -16.0748 -25.3298 0
    endloop
  endfacet
  facet normal -0.481762 -0.876302 -0
    outer loop
      vertex -12.7734 -27.1448 0
      vertex -16.0748 -25.3298 -3
      vertex -12.7734 -27.1448 -3
    endloop
  endfacet
  facet normal 0 0 -1
    outer loop
      vertex 3.53571 0 -3
      vertex 30 0 -3
      vertex 29.7634 -3.76 -3
    endloop
  endfacet
  facet normal 0 0 -1
    outer loop
      vertex 3.50783 -0.443142 -3
      vertex 29.7634 -3.76 -3
      vertex 29.0575 -7.4607 -3
    endloop
  endfacet
  facet normal 0 0 -1
    outer loop
      vertex 30 0 -3
      vertex 3.53571 0 -3
      vertex 29.7634 3.76 -3
    endloop
  endfacet
  facet normal 0 0 -1
    outer loop
      vertex 3.42463 -0.879296 -3
      vertex 29.0575 -7.4607 -3
      vertex 27.8933 -11.0437 -3
    endloop
  endfacet
  facet normal 0 0 -1
    outer loop
      vertex 3.52332 0.196952 -3
      vertex 29.7634 3.76 -3
      vertex 3.53571 0 -3
    endloop
  endfacet
  facet normal 0 0 -1
    outer loop
      vertex 3.28742 -1.30158 -3
      vertex 27.8933 -11.0437 -3
      vertex 26.2892 -14.4526 -3
    endloop
  endfacet
  facet normal 0 0 -1
    outer loop
      vertex 3.50783 0.443142 -3
      vertex 29.7634 3.76 -3
      vertex 3.52332 0.196952 -3
    endloop
  endfacet
  facet normal 0 0 -1
    outer loop
      vertex 3.09837 -1.70334 -3
      vertex 26.2892 -14.4526 -3
      vertex 24.2705 -17.6336 -3
    endloop
  endfacet
  facet normal -0 0 -1
    outer loop
      vertex 29.7634 3.76 -3
      vertex 3.50783 0.443142 -3
      vertex 29.0575 7.4607 -3
    endloop
  endfacet
  facet normal 0 0 -1
    outer loop
      vertex 2.86045 -2.07824 -3
      vertex 24.2705 -17.6336 -3
      vertex 21.8691 -20.5364 -3
    endloop
  endfacet
  facet normal 0 0 -1
    outer loop
      vertex 3.47086 0.636988 -3
      vertex 29.0575 7.4607 -3
      vertex 3.50783 0.443142 -3
    endloop
  endfacet
  facet normal 0 0 -1
    outer loop
      vertex 2.57742 -2.42036 -3
      vertex 21.8691 -20.5364 -3
      vertex 19.1227 -23.1154 -3
    endloop
  endfacet
  facet normal 0 0 -1
    outer loop
      vertex 3.42463 0.879296 -3
      vertex 29.0575 7.4607 -3
      vertex 3.47086 0.636988 -3
    endloop
  endfacet
  facet normal 0 0 -1
    outer loop
      vertex 2.25375 -2.72431 -3
      vertex 19.1227 -23.1154 -3
      vertex 16.0748 -25.3298 -3
    endloop
  endfacet
  facet normal -0 0 -1
    outer loop
      vertex 29.0575 7.4607 -3
      vertex 3.42463 0.879296 -3
      vertex 27.8933 11.0437 -3
    endloop
  endfacet
  facet normal 0 0 -1
    outer loop
      vertex 1.89453 -2.9853 -3
      vertex 16.0748 -25.3298 -3
      vertex 12.7734 -27.1448 -3
    endloop
  endfacet
  facet normal 0 0 -1
    outer loop
      vertex 3.28742 1.30158 -3
      vertex 27.8933 11.0437 -3
      vertex 3.42463 0.879296 -3
    endloop
  endfacet
  facet normal 0 0 -1
    outer loop
      vertex 1.50543 -3.19921 -3
      vertex 12.7734 -27.1448 -3
      vertex 9.27051 -28.5317 -3
    endloop
  endfacet
  facet normal -0 0 -1
    outer loop
      vertex 27.8933 11.0437 -3
      vertex 3.28742 1.30158 -3
      vertex 26.2892 14.4526 -3
    endloop
  endfacet
  facet normal 0 0 -1
    outer loop
      vertex 1.0926 -3.36266 -3
      vertex 9.27051 -28.5317 -3
      vertex 5.62144 -29.4686 -3
    endloop
  endfacet
  facet normal 0 0 -1
    outer loop
      vertex 3.09837 1.70334 -3
      vertex 26.2892 14.4526 -3
      vertex 3.28742 1.30158 -3
    endloop
  endfacet
  facet normal -0 0 -1
    outer loop
      vertex 26.2892 14.4526 -3
      vertex 3.09837 1.70334 -3
      vertex 24.2705 17.6336 -3
    endloop
  endfacet
  facet normal 0 0 -1
    outer loop
      vertex 29.7634 -3.76 -3
      vertex 3.52332 -0.196952 -3
      vertex 3.53571 0 -3
    endloop
  endfacet
  facet normal 0 0 -1
    outer loop
      vertex 29.7634 -3.76 -3
      vertex 3.50783 -0.443142 -3
      vertex 3.52332 -0.196952 -3
    endloop
  endfacet
  facet normal 0 0 -1
    outer loop
      vertex 29.0575 -7.4607 -3
      vertex 3.47086 -0.636988 -3
      vertex 3.50783 -0.443142 -3
    endloop
  endfacet
  facet normal 0 0 -1
    outer loop
      vertex 29.0575 -7.4607 -3
      vertex 3.42463 -0.879296 -3
      vertex 3.47086 -0.636988 -3
    endloop
  endfacet
  facet normal 0 0 -1
    outer loop
      vertex 27.8933 -11.0437 -3
      vertex 3.28742 -1.30158 -3
      vertex 3.42463 -0.879296 -3
    endloop
  endfacet
  facet normal 0 0 -1
    outer loop
      vertex 26.2892 -14.4526 -3
      vertex 3.09837 -1.70334 -3
      vertex 3.28742 -1.30158 -3
    endloop
  endfacet
  facet normal 0 0 -1
    outer loop
      vertex 24.2705 -17.6336 -3
      vertex 2.96619 -1.91162 -3
      vertex 3.09837 -1.70334 -3
    endloop
  endfacet
  facet normal 0 0 -1
    outer loop
      vertex 24.2705 -17.6336 -3
      vertex 2.86045 -2.07824 -3
      vertex 2.96619 -1.91162 -3
    endloop
  endfacet
  facet normal 0 0 -1
    outer loop
      vertex 21.8691 -20.5364 -3
      vertex 2.57742 -2.42036 -3
      vertex 2.86045 -2.07824 -3
    endloop
  endfacet
  facet normal 0 0 -1
    outer loop
      vertex 19.1227 -23.1154 -3
      vertex 2.43357 -2.55545 -3
      vertex 2.57742 -2.42036 -3
    endloop
  endfacet
  facet normal 0 0 -1
    outer loop
      vertex 19.1227 -23.1154 -3
      vertex 2.25375 -2.72431 -3
      vertex 2.43357 -2.55545 -3
    endloop
  endfacet
  facet normal 0 0 -1
    outer loop
      vertex 16.0748 -25.3298 -3
      vertex 2.05418 -2.86931 -3
      vertex 2.25375 -2.72431 -3
    endloop
  endfacet
  facet normal 0 0 -1
    outer loop
      vertex 16.0748 -25.3298 -3
      vertex 1.89453 -2.9853 -3
      vertex 2.05418 -2.86931 -3
    endloop
  endfacet
  facet normal 0 0 -1
    outer loop
      vertex 0.662526 -3.47309 -3
      vertex 5.62144 -29.4686 -3
      vertex 1.88371 -29.9408 -3
    endloop
  endfacet
  facet normal 0 0 -1
    outer loop
      vertex 12.7734 -27.1448 -3
      vertex 1.7216 -3.08037 -3
      vertex 1.89453 -2.9853 -3
    endloop
  endfacet
  facet normal 0 0 -1
    outer loop
      vertex 12.7734 -27.1448 -3
      vertex 1.50543 -3.19921 -3
      vertex 1.7216 -3.08037 -3
    endloop
  endfacet
  facet normal 0 0 -1
    outer loop
      vertex 9.27051 -28.5317 -3
      vertex 1.27608 -3.29002 -3
      vertex 1.50543 -3.19921 -3
    endloop
  endfacet
  facet normal 0 0 -1
    outer loop
      vertex 9.27051 -28.5317 -3
      vertex 1.0926 -3.36266 -3
      vertex 1.27608 -3.29002 -3
    endloop
  endfacet
  facet normal 0 0 -1
    outer loop
      vertex 5.62144 -29.4686 -3
      vertex 0.901454 -3.41174 -3
      vertex 1.0926 -3.36266 -3
    endloop
  endfacet
  facet normal 0 0 -1
    outer loop
      vertex 5.62144 -29.4686 -3
      vertex 0.662526 -3.47309 -3
      vertex 0.901454 -3.41174 -3
    endloop
  endfacet
  facet normal 0 0 -1
    outer loop
      vertex 1.88371 -29.9408 -3
      vertex 0.222009 -3.52874 -3
      vertex 0.662526 -3.47309 -3
    endloop
  endfacet
  facet normal 0 0 -1
    outer loop
      vertex 1.88371 -29.9408 -3
      vertex -0.222009 -3.52874 -3
      vertex 0.222009 -3.52874 -3
    endloop
  endfacet
  facet normal 0 0 -1
    outer loop
      vertex -1.88371 -29.9408 -3
      vertex -0.222009 -3.52874 -3
      vertex 1.88371 -29.9408 -3
    endloop
  endfacet
  facet normal -0 0 -1
    outer loop
      vertex -0.222009 -3.52874 -3
      vertex -1.88371 -29.9408 -3
      vertex -0.662526 -3.47309 -3
    endloop
  endfacet
  facet normal 0 0 -1
    outer loop
      vertex -5.62144 -29.4686 -3
      vertex -0.662526 -3.47309 -3
      vertex -1.88371 -29.9408 -3
    endloop
  endfacet
  facet normal -0 0 -1
    outer loop
      vertex -0.662526 -3.47309 -3
      vertex -5.62144 -29.4686 -3
      vertex -0.901454 -3.41174 -3
    endloop
  endfacet
  facet normal -0 0 -1
    outer loop
      vertex -0.901454 -3.41174 -3
      vertex -5.62144 -29.4686 -3
      vertex -1.0926 -3.36266 -3
    endloop
  endfacet
  facet normal 0 0 -1
    outer loop
      vertex -9.27051 -28.5317 -3
      vertex -1.0926 -3.36266 -3
      vertex -5.62144 -29.4686 -3
    endloop
  endfacet
  facet normal -0 0 -1
    outer loop
      vertex -1.0926 -3.36266 -3
      vertex -9.27051 -28.5317 -3
      vertex -1.27608 -3.29002 -3
    endloop
  endfacet
  facet normal -0 0 -1
    outer loop
      vertex -1.27608 -3.29002 -3
      vertex -9.27051 -28.5317 -3
      vertex -1.50543 -3.19921 -3
    endloop
  endfacet
  facet normal 0 0 -1
    outer loop
      vertex -12.7734 -27.1448 -3
      vertex -1.50543 -3.19921 -3
      vertex -9.27051 -28.5317 -3
    endloop
  endfacet
  facet normal -0 0 -1
    outer loop
      vertex -1.50543 -3.19921 -3
      vertex -12.7734 -27.1448 -3
      vertex -1.7216 -3.08037 -3
    endloop
  endfacet
  facet normal -0 0 -1
    outer loop
      vertex -1.7216 -3.08037 -3
      vertex -12.7734 -27.1448 -3
      vertex -1.89453 -2.9853 -3
    endloop
  endfacet
  facet normal 0 0 -1
    outer loop
      vertex -16.0748 -25.3298 -3
      vertex -1.89453 -2.9853 -3
      vertex -12.7734 -27.1448 -3
    endloop
  endfacet
  facet normal -0 0 -1
    outer loop
      vertex -1.89453 -2.9853 -3
      vertex -16.0748 -25.3298 -3
      vertex -2.05418 -2.86931 -3
    endloop
  endfacet
  facet normal -0 0 -1
    outer loop
      vertex -2.05418 -2.86931 -3
      vertex -16.0748 -25.3298 -3
      vertex -2.25375 -2.72431 -3
    endloop
  endfacet
  facet normal 0 0 -1
    outer loop
      vertex -19.1227 -23.1154 -3
      vertex -2.25375 -2.72431 -3
      vertex -16.0748 -25.3298 -3
    endloop
  endfacet
  facet normal -0 0 -1
    outer loop
      vertex -2.25375 -2.72431 -3
      vertex -19.1227 -23.1154 -3
      vertex -2.43357 -2.55545 -3
    endloop
  endfacet
  facet normal -0 0 -1
    outer loop
      vertex -2.43357 -2.55545 -3
      vertex -19.1227 -23.1154 -3
      vertex -2.57742 -2.42036 -3
    endloop
  endfacet
  facet normal 0 0 -1
    outer loop
      vertex -21.8691 -20.5364 -3
      vertex -2.57742 -2.42036 -3
      vertex -19.1227 -23.1154 -3
    endloop
  endfacet
  facet normal -0 0 -1
    outer loop
      vertex -2.57742 -2.42036 -3
      vertex -21.8691 -20.5364 -3
      vertex -2.86045 -2.07824 -3
    endloop
  endfacet
  facet normal 0 0 -1
    outer loop
      vertex -24.2705 -17.6336 -3
      vertex -2.86045 -2.07824 -3
      vertex -21.8691 -20.5364 -3
    endloop
  endfacet
  facet normal -0 0 -1
    outer loop
      vertex -2.86045 -2.07824 -3
      vertex -24.2705 -17.6336 -3
      vertex -2.96619 -1.91162 -3
    endloop
  endfacet
  facet normal -0 0 -1
    outer loop
      vertex -2.96619 -1.91162 -3
      vertex -24.2705 -17.6336 -3
      vertex -3.09837 -1.70334 -3
    endloop
  endfacet
  facet normal 0 0 -1
    outer loop
      vertex 2.96619 1.91162 -3
      vertex 24.2705 17.6336 -3
      vertex 3.09837 1.70334 -3
    endloop
  endfacet
  facet normal 0 0 -1
    outer loop
      vertex 2.86045 2.07824 -3
      vertex 24.2705 17.6336 -3
      vertex 2.96619 1.91162 -3
    endloop
  endfacet
  facet normal -0 0 -1
    outer loop
      vertex 24.2705 17.6336 -3
      vertex 2.86045 2.07824 -3
      vertex 21.8691 20.5364 -3
    endloop
  endfacet
  facet normal 0 0 -1
    outer loop
      vertex 2.57742 2.42036 -3
      vertex 21.8691 20.5364 -3
      vertex 2.86045 2.07824 -3
    endloop
  endfacet
  facet normal -0 0 -1
    outer loop
      vertex 21.8691 20.5364 -3
      vertex 2.57742 2.42036 -3
      vertex 19.1227 23.1154 -3
    endloop
  endfacet
  facet normal 0 0 -1
    outer loop
      vertex 2.43357 2.55545 -3
      vertex 19.1227 23.1154 -3
      vertex 2.57742 2.42036 -3
    endloop
  endfacet
  facet normal 0 0 -1
    outer loop
      vertex 2.25375 2.72431 -3
      vertex 19.1227 23.1154 -3
      vertex 2.43357 2.55545 -3
    endloop
  endfacet
  facet normal -0 0 -1
    outer loop
      vertex 19.1227 23.1154 -3
      vertex 2.25375 2.72431 -3
      vertex 16.0748 25.3298 -3
    endloop
  endfacet
  facet normal 0 0 -1
    outer loop
      vertex 2.05418 2.86931 -3
      vertex 16.0748 25.3298 -3
      vertex 2.25375 2.72431 -3
    endloop
  endfacet
  facet normal 0 0 -1
    outer loop
      vertex 1.89453 2.9853 -3
      vertex 16.0748 25.3298 -3
      vertex 2.05418 2.86931 -3
    endloop
  endfacet
  facet normal -0 0 -1
    outer loop
      vertex 16.0748 25.3298 -3
      vertex 1.89453 2.9853 -3
      vertex 12.7734 27.1448 -3
    endloop
  endfacet
  facet normal 0 0 -1
    outer loop
      vertex 1.7216 3.08037 -3
      vertex 12.7734 27.1448 -3
      vertex 1.89453 2.9853 -3
    endloop
  endfacet
  facet normal 0 0 -1
    outer loop
      vertex 1.50543 3.19921 -3
      vertex 12.7734 27.1448 -3
      vertex 1.7216 3.08037 -3
    endloop
  endfacet
  facet normal -0 0 -1
    outer loop
      vertex 12.7734 27.1448 -3
      vertex 1.50543 3.19921 -3
      vertex 9.27051 28.5317 -3
    endloop
  endfacet
  facet normal 0 0 -1
    outer loop
      vertex 1.27608 3.29002 -3
      vertex 9.27051 28.5317 -3
      vertex 1.50543 3.19921 -3
    endloop
  endfacet
  facet normal 0 0 -1
    outer loop
      vertex 1.0926 3.36266 -3
      vertex 9.27051 28.5317 -3
      vertex 1.27608 3.29002 -3
    endloop
  endfacet
  facet normal -0 0 -1
    outer loop
      vertex 9.27051 28.5317 -3
      vertex 1.0926 3.36266 -3
      vertex 5.62144 29.4686 -3
    endloop
  endfacet
  facet normal 0 0 -1
    outer loop
      vertex 0.901454 3.41174 -3
      vertex 5.62144 29.4686 -3
      vertex 1.0926 3.36266 -3
    endloop
  endfacet
  facet normal 0 0 -1
    outer loop
      vertex 0.662526 3.47309 -3
      vertex 5.62144 29.4686 -3
      vertex 0.901454 3.41174 -3
    endloop
  endfacet
  facet normal -0 0 -1
    outer loop
      vertex 5.62144 29.4686 -3
      vertex 0.662526 3.47309 -3
      vertex 1.88371 29.9408 -3
    endloop
  endfacet
  facet normal 0 0 -1
    outer loop
      vertex 0.222009 3.52874 -3
      vertex 1.88371 29.9408 -3
      vertex 0.662526 3.47309 -3
    endloop
  endfacet
  facet normal 0 0 -1
    outer loop
      vertex -0.222009 3.52874 -3
      vertex 1.88371 29.9408 -3
      vertex 0.222009 3.52874 -3
    endloop
  endfacet
  facet normal 0 0 -1
    outer loop
      vertex -1.88371 29.9408 -3
      vertex -0.222009 3.52874 -3
      vertex -0.662526 3.47309 -3
    endloop
  endfacet
  facet normal 0 0 -1
    outer loop
      vertex -5.62144 29.4686 -3
      vertex -0.662526 3.47309 -3
      vertex -0.901454 3.41174 -3
    endloop
  endfacet
  facet normal 0 0 -1
    outer loop
      vertex -5.62144 29.4686 -3
      vertex -0.901454 3.41174 -3
      vertex -1.0926 3.36266 -3
    endloop
  endfacet
  facet normal 0 0 -1
    outer loop
      vertex -9.27051 28.5317 -3
      vertex -1.0926 3.36266 -3
      vertex -1.27608 3.29002 -3
    endloop
  endfacet
  facet normal 0 0 -1
    outer loop
      vertex -9.27051 28.5317 -3
      vertex -1.27608 3.29002 -3
      vertex -1.50543 3.19921 -3
    endloop
  endfacet
  facet normal 0 0 -1
    outer loop
      vertex -12.7734 27.1448 -3
      vertex -1.50543 3.19921 -3
      vertex -1.7216 3.08037 -3
    endloop
  endfacet
  facet normal 0 0 -1
    outer loop
      vertex -0.222009 3.52874 -3
      vertex -1.88371 29.9408 -3
      vertex 1.88371 29.9408 -3
    endloop
  endfacet
  facet normal 0 0 -1
    outer loop
      vertex -12.7734 27.1448 -3
      vertex -1.7216 3.08037 -3
      vertex -1.89453 2.9853 -3
    endloop
  endfacet
  facet normal 0 0 -1
    outer loop
      vertex -16.0748 25.3298 -3
      vertex -1.89453 2.9853 -3
      vertex -2.05418 2.86931 -3
    endloop
  endfacet
  facet normal 0 0 -1
    outer loop
      vertex -16.0748 25.3298 -3
      vertex -2.05418 2.86931 -3
      vertex -2.25375 2.72431 -3
    endloop
  endfacet
  facet normal 0 0 -1
    outer loop
      vertex -19.1227 23.1154 -3
      vertex -2.25375 2.72431 -3
      vertex -2.43357 2.55545 -3
    endloop
  endfacet
  facet normal 0 0 -1
    outer loop
      vertex -19.1227 23.1154 -3
      vertex -2.43357 2.55545 -3
      vertex -2.57742 2.42036 -3
    endloop
  endfacet
  facet normal 0 0 -1
    outer loop
      vertex -21.8691 20.5364 -3
      vertex -2.57742 2.42036 -3
      vertex -2.86045 2.07824 -3
    endloop
  endfacet
  facet normal 0 0 -1
    outer loop
      vertex -24.2705 17.6336 -3
      vertex -2.86045 2.07824 -3
      vertex -2.96619 1.91162 -3
    endloop
  endfacet
  facet normal 0 0 -1
    outer loop
      vertex -24.2705 17.6336 -3
      vertex -2.96619 1.91162 -3
      vertex -3.09837 1.70334 -3
    endloop
  endfacet
  facet normal 0 0 -1
    outer loop
      vertex -26.2892 14.4526 -3
      vertex -3.09837 1.70334 -3
      vertex -3.28742 1.30158 -3
    endloop
  endfacet
  facet normal 0 0 -1
    outer loop
      vertex -27.8933 11.0437 -3
      vertex -3.28742 1.30158 -3
      vertex -3.42463 0.879296 -3
    endloop
  endfacet
  facet normal 0 0 -1
    outer loop
      vertex -29.0575 7.4607 -3
      vertex -3.42463 0.879296 -3
      vertex -3.47086 0.636988 -3
    endloop
  endfacet
  facet normal 0 0 -1
    outer loop
      vertex -29.0575 7.4607 -3
      vertex -3.47086 0.636988 -3
      vertex -3.50783 0.443142 -3
    endloop
  endfacet
  facet normal 0 0 -1
    outer loop
      vertex -29.7634 3.76 -3
      vertex -3.50783 0.443142 -3
      vertex -3.52332 0.196952 -3
    endloop
  endfacet
  facet normal 0 0 -1
    outer loop
      vertex -29.7634 3.76 -3
      vertex -3.52332 0.196952 -3
      vertex -3.53571 0 -3
    endloop
  endfacet
  facet normal 0 0 -1
    outer loop
      vertex -26.2892 -14.4526 -3
      vertex -3.09837 -1.70334 -3
      vertex -24.2705 -17.6336 -3
    endloop
  endfacet
  facet normal 0 0 -1
    outer loop
      vertex -0.662526 3.47309 -3
      vertex -5.62144 29.4686 -3
      vertex -1.88371 29.9408 -3
    endloop
  endfacet
  facet normal -0 0 -1
    outer loop
      vertex -3.09837 -1.70334 -3
      vertex -26.2892 -14.4526 -3
      vertex -3.28742 -1.30158 -3
    endloop
  endfacet
  facet normal 0 0 -1
    outer loop
      vertex -1.0926 3.36266 -3
      vertex -9.27051 28.5317 -3
      vertex -5.62144 29.4686 -3
    endloop
  endfacet
  facet normal 0 0 -1
    outer loop
      vertex -27.8933 -11.0437 -3
      vertex -3.28742 -1.30158 -3
      vertex -26.2892 -14.4526 -3
    endloop
  endfacet
  facet normal 0 0 -1
    outer loop
      vertex -1.50543 3.19921 -3
      vertex -12.7734 27.1448 -3
      vertex -9.27051 28.5317 -3
    endloop
  endfacet
  facet normal -0 0 -1
    outer loop
      vertex -3.28742 -1.30158 -3
      vertex -27.8933 -11.0437 -3
      vertex -3.42463 -0.879296 -3
    endloop
  endfacet
  facet normal 0 0 -1
    outer loop
      vertex -1.89453 2.9853 -3
      vertex -16.0748 25.3298 -3
      vertex -12.7734 27.1448 -3
    endloop
  endfacet
  facet normal 0 0 -1
    outer loop
      vertex -29.0575 -7.4607 -3
      vertex -3.42463 -0.879296 -3
      vertex -27.8933 -11.0437 -3
    endloop
  endfacet
  facet normal 0 0 -1
    outer loop
      vertex -2.25375 2.72431 -3
      vertex -19.1227 23.1154 -3
      vertex -16.0748 25.3298 -3
    endloop
  endfacet
  facet normal -0 0 -1
    outer loop
      vertex -3.42463 -0.879296 -3
      vertex -29.0575 -7.4607 -3
      vertex -3.47086 -0.636988 -3
    endloop
  endfacet
  facet normal 0 0 -1
    outer loop
      vertex -2.57742 2.42036 -3
      vertex -21.8691 20.5364 -3
      vertex -19.1227 23.1154 -3
    endloop
  endfacet
  facet normal -0 0 -1
    outer loop
      vertex -3.47086 -0.636988 -3
      vertex -29.0575 -7.4607 -3
      vertex -3.50783 -0.443142 -3
    endloop
  endfacet
  facet normal 0 0 -1
    outer loop
      vertex -2.86045 2.07824 -3
      vertex -24.2705 17.6336 -3
      vertex -21.8691 20.5364 -3
    endloop
  endfacet
  facet normal 0 0 -1
    outer loop
      vertex -29.7634 -3.76 -3
      vertex -3.50783 -0.443142 -3
      vertex -29.0575 -7.4607 -3
    endloop
  endfacet
  facet normal 0 0 -1
    outer loop
      vertex -3.09837 1.70334 -3
      vertex -26.2892 14.4526 -3
      vertex -24.2705 17.6336 -3
    endloop
  endfacet
  facet normal -0 0 -1
    outer loop
      vertex -3.50783 -0.443142 -3
      vertex -29.7634 -3.76 -3
      vertex -3.52332 -0.196952 -3
    endloop
  endfacet
  facet normal 0 0 -1
    outer loop
      vertex -3.28742 1.30158 -3
      vertex -27.8933 11.0437 -3
      vertex -26.2892 14.4526 -3
    endloop
  endfacet
  facet normal -0 0 -1
    outer loop
      vertex -3.52332 -0.196952 -3
      vertex -29.7634 -3.76 -3
      vertex -3.53571 0 -3
    endloop
  endfacet
  facet normal 0 0 -1
    outer loop
      vertex -3.42463 0.879296 -3
      vertex -29.0575 7.4607 -3
      vertex -27.8933 11.0437 -3
    endloop
  endfacet
  facet normal 0 0 -1
    outer loop
      vertex -30 0 -3
      vertex -3.53571 0 -3
      vertex -29.7634 -3.76 -3
    endloop
  endfacet
  facet normal 0 0 -1
    outer loop
      vertex -3.50783 0.443142 -3
      vertex -29.7634 3.76 -3
      vertex -29.0575 7.4607 -3
    endloop
  endfacet
  facet normal 0 0 -1
    outer loop
      vertex -3.53571 0 -3
      vertex -30 0 -3
      vertex -29.7634 3.76 -3
    endloop
  endfacet
  facet normal -0.98229 -0.187369 0
    outer loop
      vertex -29.0575 -7.4607 -3
      vertex -29.7634 -3.76 0
      vertex -29.7634 -3.76 -3
    endloop
  endfacet
  facet normal -0.98229 -0.187369 0
    outer loop
      vertex -29.7634 -3.76 0
      vertex -29.0575 -7.4607 -3
      vertex -29.0575 -7.4607 0
    endloop
  endfacet
  facet normal -0.844331 -0.535822 0
    outer loop
      vertex -24.2705 -17.6336 -3
      vertex -26.2892 -14.4526 0
      vertex -26.2892 -14.4526 -3
    endloop
  endfacet
  facet normal -0.844331 -0.535822 0
    outer loop
      vertex -26.2892 -14.4526 0
      vertex -24.2705 -17.6336 -3
      vertex -24.2705 -17.6336 0
    endloop
  endfacet
  facet normal 0.684541 -0.728974 0
    outer loop
      vertex 19.1227 -23.1154 -3
      vertex 21.8691 -20.5364 0
      vertex 19.1227 -23.1154 0
    endloop
  endfacet
  facet normal 0.684541 -0.728974 0
    outer loop
      vertex 21.8691 -20.5364 0
      vertex 19.1227 -23.1154 -3
      vertex 21.8691 -20.5364 -3
    endloop
  endfacet
  facet normal 0.58778 -0.809021 0
    outer loop
      vertex 16.0748 -25.3298 -3
      vertex 19.1227 -23.1154 0
      vertex 16.0748 -25.3298 0
    endloop
  endfacet
  facet normal 0.58778 -0.809021 0
    outer loop
      vertex 19.1227 -23.1154 0
      vertex 16.0748 -25.3298 -3
      vertex 19.1227 -23.1154 -3
    endloop
  endfacet
  facet normal 0.770514 -0.637423 0
    outer loop
      vertex 21.8691 -20.5364 0
      vertex 24.2705 -17.6336 -3
      vertex 24.2705 -17.6336 0
    endloop
  endfacet
  facet normal 0.770514 -0.637423 0
    outer loop
      vertex 24.2705 -17.6336 -3
      vertex 21.8691 -20.5364 0
      vertex 21.8691 -20.5364 -3
    endloop
  endfacet
  facet normal -0.368126 -0.929776 0
    outer loop
      vertex -12.7734 -27.1448 -3
      vertex -9.27051 -28.5317 0
      vertex -12.7734 -27.1448 0
    endloop
  endfacet
  facet normal -0.368126 -0.929776 -0
    outer loop
      vertex -9.27051 -28.5317 0
      vertex -12.7734 -27.1448 -3
      vertex -9.27051 -28.5317 -3
    endloop
  endfacet
endsolid OpenSCAD_Model
