solid OpenSCAD_Model
  facet normal 0.6471655929890119 0.5353819394784508 0.54271804293894
    outer loop
      vertex -2.0957848038365587 -1.9680729295449795 -3.9
      vertex -2.325923858827974 -1.6898826003408602 -3.9
      vertex -3.23606797749979 -2.3511410091698925 -2.162376237623763
    endloop
  endfacet
  facet normal 0.5749613493225376 0.6122716493957023 0.5427180429389398
    outer loop
      vertex -1.8325939705274827 -2.2152255729803945 -3.9
      vertex -2.0957848038365587 -1.9680729295449795 -3.9
      vertex -2.5496959589947585 -3.0820529711031575 -2.1623762376237625
    endloop
  endfacet
  facet normal 0.7988065878230703 0.25954799386431554 0.5427180429389399
    outer loop
      vertex -2.673107396928723 -1.058358088968449 -3.9
      vertex -2.7846765882448143 -0.7149834255989577 -3.9
      vertex -3.8743326445145243 -0.9947595486594194 -2.1623762376237625
    endloop
  endfacet
  facet normal 0.8250377486222651 0.15738436776513448 0.5427180429389399
    outer loop
      vertex -2.7846765882448143 -0.7149834255989577 -3.9
      vertex -2.852329766279124 -0.3603330464973742 -3.9
      vertex -3.9684588052579115 -0.5013329342572163 -2.1623762376237625
    endloop
  endfacet
  facet normal 0.8382575712720258 0.052738696169432 0.5427180429389399
    outer loop
      vertex -4 0 -2.1623762376237625
      vertex -2.852329766279124 -0.3603330464973742 -3.9
      vertex -2.875 0 -3.9
    endloop
  endfacet
  facet normal 0.7091636486560637 0.4500489365539553 0.5427180429389398
    outer loop
      vertex -2.325923858827974 -1.6898826003408602 -3.9
      vertex -2.5193817051261074 -1.3850418130424318 -3.9
      vertex -3.505226720175454 -1.9270146964068615 -2.1623762376237625
    endloop
  endfacet
  facet normal 0.7599777699499789 0.35761839305380283 0.5427180429389397
    outer loop
      vertex -2.5193817051261074 -1.3850418130424318 -3.9
      vertex -2.673107396928723 -1.058358088968449 -3.9
      vertex -3.719105943553006 -1.4724982107387115 -2.1623762376237625
    endloop
  endfacet
  facet normal 0.3091933158393727 0.7809331721144781 0.5427180429389398
    outer loop
      vertex -0.8884238588279738 -2.7342874843485663 -3.9
      vertex -1.2241154632495832 -2.6013777758398064 -3.9
      vertex -1.2360679774997898 -3.804226065180614 -2.162376237623762
    endloop
  endfacet
  facet normal 0.4936896217119849 0.6795054696486293 0.5427180429389399
    outer loop
      vertex -1.5405020355646157 -2.427442785818293 -3.9
      vertex -1.8325939705274827 -2.2152255729803945 -3.9
      vertex -2.143307179915987 -3.37731170200806 -2.1623762376237625
    endloop
  endfacet
  facet normal 0.4046321138511495 0.7360230827283052 0.5427180429389398
    outer loop
      vertex -1.2241154632495832 -2.6013777758398064 -3.9
      vertex -1.5405020355646157 -2.427442785818293 -3.9
      vertex -1.7031171662602897 -3.6193082098640783 -2.1623762376237625
    endloop
  endfacet
  facet normal 0.20887835453367687 0.8135274788695406 0.5427180429389398
    outer loop
      vertex -0.5387212794339589 -2.82407584584498 -3.9
      vertex -0.8884238588279738 -2.7342874843485663 -3.9
      vertex -0.7495252583428993 -3.9291490029147544 -2.1623762376237625
    endloop
  endfacet
  facet normal 0.10526925679910247 0.8332919713050713 0.5427180429389398
    outer loop
      vertex -0.18052274364677706 -2.869326844231281 -3.9
      vertex -0.5387212794339589 -2.82407584584498 -3.9
      vertex -0.7495252583428993 -3.9291490029147544 -2.1623762376237625
    endloop
  endfacet
  facet normal 0 0.839914951568626 0.5427180429389398
    outer loop
      vertex -0.25116207811725505 -3.9921069137130862 -2.1623762376237625
      vertex 0.18052274364677706 -2.869326844231281 -3.9
      vertex -0.18052274364677706 -2.869326844231281 -3.9
    endloop
  endfacet
  facet normal 0.5749613493225375 0.6122716493957024 0.5427180429389399
    outer loop
      vertex -2.9158745096856467 -2.738188423714754 -2.162376237623763
      vertex -2.5496959589947585 -3.0820529711031575 -2.1623762376237625
      vertex -2.0957848038365587 -1.9680729295449795 -3.9
    endloop
  endfacet
  facet normal 0.6471655929890117 0.535381939478451 0.5427180429389398
    outer loop
      vertex -3.23606797749979 -2.3511410091698925 -2.162376237623763
      vertex -2.9158745096856467 -2.738188423714754 -2.162376237623763
      vertex -2.0957848038365587 -1.9680729295449795 -3.9
    endloop
  endfacet
  facet normal 0.4936896217119847 0.6795054696486295 0.5427180429389399
    outer loop
      vertex -2.5496959589947585 -3.0820529711031575 -2.1623762376237625
      vertex -2.143307179915987 -3.37731170200806 -2.1623762376237625
      vertex -1.8325939705274827 -2.2152255729803945 -3.9
    endloop
  endfacet
  facet normal 0.7091636486560637 0.4500489365539551 0.5427180429389399
    outer loop
      vertex -3.505226720175454 -1.9270146964068615 -2.1623762376237625
      vertex -3.23606797749979 -2.3511410091698925 -2.162376237623763
      vertex -2.325923858827974 -1.6898826003408602 -3.9
    endloop
  endfacet
  facet normal 0.759977769949979 0.35761839305380216 0.5427180429389399
    outer loop
      vertex -3.719105943553006 -1.4724982107387115 -2.1623762376237625
      vertex -3.505226720175454 -1.9270146964068615 -2.1623762376237625
      vertex -2.5193817051261074 -1.3850418130424318 -3.9
    endloop
  endfacet
  facet normal 0.7988065878230701 0.25954799386431604 0.5427180429389398
    outer loop
      vertex -3.8743326445145243 -0.9947595486594194 -2.1623762376237625
      vertex -3.719105943553006 -1.4724982107387115 -2.1623762376237625
      vertex -2.673107396928723 -1.058358088968449 -3.9
    endloop
  endfacet
  facet normal 0.8250377486222651 0.15738436776513462 0.5427180429389399
    outer loop
      vertex -3.9684588052579115 -0.5013329342572163 -2.1623762376237625
      vertex -3.8743326445145243 -0.9947595486594194 -2.1623762376237625
      vertex -2.7846765882448143 -0.7149834255989577 -3.9
    endloop
  endfacet
  facet normal 0.8382575712720257 0.05273869616943187 0.5427180429389398
    outer loop
      vertex -4 0 -2.1623762376237625
      vertex -3.9684588052579115 -0.5013329342572163 -2.1623762376237625
      vertex -2.852329766279124 -0.3603330464973742 -3.9
    endloop
  endfacet
  facet normal 0.40463211385114956 0.7360230827283051 0.5427180429389398
    outer loop
      vertex -1.7031171662602897 -3.6193082098640783 -2.1623762376237625
      vertex -1.5405020355646157 -2.427442785818293 -3.9
      vertex -2.143307179915987 -3.37731170200806 -2.1623762376237625
    endloop
  endfacet
  facet normal 0.3091933158393729 0.780933172114478 0.5427180429389397
    outer loop
      vertex -1.2360679774997898 -3.804226065180614 -2.162376237623762
      vertex -1.2241154632495832 -2.6013777758398064 -3.9
      vertex -1.7031171662602897 -3.6193082098640783 -2.1623762376237625
    endloop
  endfacet
  facet normal 0.20887835453367656 0.8135274788695407 0.5427180429389398
    outer loop
      vertex -0.7495252583428993 -3.9291490029147544 -2.1623762376237625
      vertex -0.8884238588279738 -2.7342874843485663 -3.9
      vertex -1.2360679774997898 -3.804226065180614 -2.162376237623762
    endloop
  endfacet
  facet normal 0.10526925679910239 0.8332919713050713 0.5427180429389397
    outer loop
      vertex -0.18052274364677706 -2.869326844231281 -3.9
      vertex -0.7495252583428993 -3.9291490029147544 -2.1623762376237625
      vertex -0.25116207811725505 -3.9921069137130862 -2.1623762376237625
    endloop
  endfacet
  facet normal 0.8382575712720258 -0.05273869616943204 0.54271804293894
    outer loop
      vertex -2.875 0 -3.9
      vertex -2.852329766279124 0.3603330464973742 -3.9
      vertex -3.9684588052579115 0.5013329342572163 -2.1623762376237625
    endloop
  endfacet
  facet normal 0.8250377486222652 -0.1573843677651345 0.5427180429389399
    outer loop
      vertex -2.852329766279124 0.3603330464973742 -3.9
      vertex -2.7846765882448143 0.7149834255989577 -3.9
      vertex -3.8743326445145243 0.9947595486594194 -2.1623762376237625
    endloop
  endfacet
  facet normal 0.7988065878230702 -0.25954799386431554 0.5427180429389399
    outer loop
      vertex -2.7846765882448143 0.7149834255989577 -3.9
      vertex -2.673107396928723 1.058358088968449 -3.9
      vertex -3.8743326445145243 0.9947595486594194 -2.1623762376237625
    endloop
  endfacet
  facet normal 0.7599777699499789 -0.35761839305380283 0.5427180429389397
    outer loop
      vertex -2.673107396928723 1.058358088968449 -3.9
      vertex -2.5193817051261074 1.3850418130424318 -3.9
      vertex -3.719105943553006 1.4724982107387117 -2.1623762376237625
    endloop
  endfacet
  facet normal 0.7091636486560636 -0.4500489365539553 0.5427180429389399
    outer loop
      vertex -2.5193817051261074 1.3850418130424318 -3.9
      vertex -2.325923858827974 1.6898826003408602 -3.9
      vertex -3.23606797749979 2.3511410091698925 -2.162376237623763
    endloop
  endfacet
  facet normal 0.6471655929890119 -0.5353819394784508 0.54271804293894
    outer loop
      vertex -2.325923858827974 1.6898826003408602 -3.9
      vertex -2.0957848038365587 1.9680729295449795 -3.9
      vertex -3.23606797749979 2.3511410091698925 -2.162376237623763
    endloop
  endfacet
  facet normal 0.5749613493225378 -0.6122716493957023 0.5427180429389398
    outer loop
      vertex -2.5496959589947585 3.0820529711031575 -2.1623762376237625
      vertex -2.0957848038365587 1.9680729295449795 -3.9
      vertex -1.8325939705274827 2.2152255729803945 -3.9
    endloop
  endfacet
  facet normal 0.4936896217119849 -0.6795054696486293 0.5427180429389399
    outer loop
      vertex -1.8325939705274827 2.2152255729803945 -3.9
      vertex -1.5405020355646157 2.427442785818293 -3.9
      vertex -2.143307179915987 3.37731170200806 -2.1623762376237625
    endloop
  endfacet
  facet normal 0.4046321138511495 -0.7360230827283051 0.5427180429389398
    outer loop
      vertex -1.5405020355646157 2.427442785818293 -3.9
      vertex -1.224115463249584 2.601377775839806 -3.9
      vertex -1.7031171662602909 3.619308209864078 -2.1623762376237625
    endloop
  endfacet
  facet normal 0.3091933158393729 -0.7809331721144779 0.5427180429389397
    outer loop
      vertex -1.224115463249584 2.601377775839806 -3.9
      vertex -0.8884238588279738 2.7342874843485663 -3.9
      vertex -1.2360679774997896 3.804226065180614 -2.162376237623762
    endloop
  endfacet
  facet normal 0.2088783545336765 -0.8135274788695406 0.5427180429389398
    outer loop
      vertex -0.8884238588279738 2.7342874843485663 -3.9
      vertex -0.5387212794339582 2.82407584584498 -3.9
      vertex -0.7495252583428983 3.929149002914755 -2.162376237623762
    endloop
  endfacet
  facet normal 0.10526925679910226 -0.8332919713050713 0.5427180429389397
    outer loop
      vertex -0.5387212794339582 2.82407584584498 -3.9
      vertex -0.18052274364677567 2.869326844231281 -3.9
      vertex -0.2511620781172531 3.9921069137130862 -2.1623762376237625
    endloop
  endfacet
  facet normal 0.8382575712720257 -0.05273869616943187 0.5427180429389398
    outer loop
      vertex -4 0 -2.1623762376237625
      vertex -2.875 0 -3.9
      vertex -3.9684588052579115 0.5013329342572163 -2.1623762376237625
    endloop
  endfacet
  facet normal 0.8250377486222651 -0.15738436776513456 0.5427180429389398
    outer loop
      vertex -2.852329766279124 0.3603330464973742 -3.9
      vertex -3.8743326445145243 0.9947595486594194 -2.1623762376237625
      vertex -3.9684588052579115 0.5013329342572163 -2.1623762376237625
    endloop
  endfacet
  facet normal 0.79880658782307 -0.2595479938643159 0.5427180429389398
    outer loop
      vertex -3.8743326445145243 0.9947595486594194 -2.1623762376237625
      vertex -2.673107396928723 1.058358088968449 -3.9
      vertex -3.719105943553006 1.4724982107387117 -2.1623762376237625
    endloop
  endfacet
  facet normal 0.759977769949979 -0.35761839305380216 0.5427180429389399
    outer loop
      vertex -3.719105943553006 1.4724982107387117 -2.1623762376237625
      vertex -2.5193817051261074 1.3850418130424318 -3.9
      vertex -3.505226720175454 1.9270146964068617 -2.1623762376237625
    endloop
  endfacet
  facet normal 0.7091636486560636 -0.4500489365539553 0.5427180429389398
    outer loop
      vertex -2.5193817051261074 1.3850418130424318 -3.9
      vertex -3.23606797749979 2.3511410091698925 -2.162376237623763
      vertex -3.505226720175454 1.9270146964068617 -2.1623762376237625
    endloop
  endfacet
  facet normal 0.6471655929890117 -0.535381939478451 0.5427180429389398
    outer loop
      vertex -3.23606797749979 2.3511410091698925 -2.162376237623763
      vertex -2.0957848038365587 1.9680729295449795 -3.9
      vertex -2.9158745096856467 2.738188423714754 -2.162376237623763
    endloop
  endfacet
  facet normal 0.5749613493225376 -0.6122716493957024 0.5427180429389399
    outer loop
      vertex -2.5496959589947585 3.0820529711031575 -2.1623762376237625
      vertex -2.9158745096856467 2.738188423714754 -2.162376237623763
      vertex -2.0957848038365587 1.9680729295449795 -3.9
    endloop
  endfacet
  facet normal 0.4936896217119847 -0.6795054696486295 0.5427180429389399
    outer loop
      vertex -2.143307179915987 3.37731170200806 -2.1623762376237625
      vertex -2.5496959589947585 3.0820529711031575 -2.1623762376237625
      vertex -1.8325939705274827 2.2152255729803945 -3.9
    endloop
  endfacet
  facet normal 0.4046321138511498 -0.7360230827283049 0.5427180429389398
    outer loop
      vertex -1.7031171662602909 3.619308209864078 -2.1623762376237625
      vertex -2.143307179915987 3.37731170200806 -2.1623762376237625
      vertex -1.5405020355646157 2.427442785818293 -3.9
    endloop
  endfacet
  facet normal 0.30919331583937276 -0.7809331721144781 0.5427180429389397
    outer loop
      vertex -1.2360679774997896 3.804226065180614 -2.162376237623762
      vertex -1.7031171662602909 3.619308209864078 -2.1623762376237625
      vertex -1.224115463249584 2.601377775839806 -3.9
    endloop
  endfacet
  facet normal 0.2088783545336765 -0.8135274788695407 0.5427180429389398
    outer loop
      vertex -0.7495252583428983 3.929149002914755 -2.162376237623762
      vertex -1.2360679774997896 3.804226065180614 -2.162376237623762
      vertex -0.8884238588279738 2.7342874843485663 -3.9
    endloop
  endfacet
  facet normal 0.10526925679910201 -0.8332919713050713 0.5427180429389397
    outer loop
      vertex -0.2511620781172531 3.9921069137130862 -2.1623762376237625
      vertex -0.7495252583428983 3.929149002914755 -2.162376237623762
      vertex -0.5387212794339582 2.82407584584498 -3.9
    endloop
  endfacet
  facet normal 0 -0.8399149515686258 0.5427180429389398
    outer loop
      vertex -0.18052274364677567 2.869326844231281 -3.9
      vertex 0.2511620781172531 3.9921069137130862 -2.1623762376237625
      vertex -0.2511620781172531 3.9921069137130862 -2.1623762376237625
    endloop
  endfacet
  facet normal -0.10526925679910284 0.8332919713050713 0.5427180429389398
    outer loop
      vertex 0.25116207811725505 -3.9921069137130862 -2.1623762376237625
      vertex 0.5387212794339589 -2.82407584584498 -3.9
      vertex 0.18052274364677706 -2.869326844231281 -3.9
    endloop
  endfacet
  facet normal -0.20887835453367684 0.8135274788695406 0.5427180429389398
    outer loop
      vertex 0.7495252583428993 -3.9291490029147544 -2.1623762376237625
      vertex 0.8884238588279738 -2.7342874843485663 -3.9
      vertex 0.5387212794339589 -2.82407584584498 -3.9
    endloop
  endfacet
  facet normal -0.3091933158393727 0.7809331721144781 0.5427180429389398
    outer loop
      vertex 1.2241154632495832 -2.6013777758398064 -3.9
      vertex 0.8884238588279738 -2.7342874843485663 -3.9
      vertex 1.2360679774997896 -3.804226065180614 -2.162376237623762
    endloop
  endfacet
  facet normal -0.40463211385114956 0.7360230827283051 0.5427180429389398
    outer loop
      vertex 1.7031171662602897 -3.6193082098640783 -2.1623762376237625
      vertex 1.5405020355646142 -2.427442785818294 -3.9
      vertex 1.2241154632495832 -2.6013777758398064 -3.9
    endloop
  endfacet
  facet normal -0.49368962171198494 0.6795054696486293 0.5427180429389399
    outer loop
      vertex 1.8325939705274836 -2.2152255729803936 -3.9
      vertex 1.5405020355646142 -2.427442785818294 -3.9
      vertex 2.143307179915985 -3.377311702008061 -2.1623762376237625
    endloop
  endfacet
  facet normal -0.5749613493225375 0.6122716493957024 0.5427180429389398
    outer loop
      vertex 2.54969595899476 -3.082052971103156 -2.1623762376237625
      vertex 2.0957848038365587 -1.9680729295449795 -3.9
      vertex 1.8325939705274836 -2.2152255729803936 -3.9
    endloop
  endfacet
  facet normal -0.6471655929890119 0.5353819394784508 0.54271804293894
    outer loop
      vertex 2.325923858827974 -1.6898826003408602 -3.9
      vertex 2.0957848038365587 -1.9680729295449795 -3.9
      vertex 3.23606797749979 -2.3511410091698925 -2.162376237623763
    endloop
  endfacet
  facet normal -0.7091636486560636 0.4500489365539553 0.5427180429389399
    outer loop
      vertex 2.5193817051261074 -1.3850418130424318 -3.9
      vertex 2.325923858827974 -1.6898826003408602 -3.9
      vertex 3.23606797749979 -2.3511410091698925 -2.162376237623763
    endloop
  endfacet
  facet normal -0.7599777699499791 0.35761839305380233 0.5427180429389399
    outer loop
      vertex 2.6731073969287222 -1.0583580889684503 -3.9
      vertex 2.5193817051261074 -1.3850418130424318 -3.9
      vertex 3.719105943553005 -1.4724982107387135 -2.1623762376237625
    endloop
  endfacet
  facet normal -0.7988065878230698 0.2595479938643166 0.5427180429389398
    outer loop
      vertex 2.784676588244815 -0.7149834255989564 -3.9
      vertex 2.6731073969287222 -1.0583580889684503 -3.9
      vertex 3.8743326445145247 -0.9947595486594177 -2.1623762376237625
    endloop
  endfacet
  facet normal -0.8250377486222652 0.157384367765134 0.5427180429389398
    outer loop
      vertex 2.852329766279124 -0.3603330464973742 -3.9
      vertex 2.784676588244815 -0.7149834255989564 -3.9
      vertex 3.8743326445145247 -0.9947595486594177 -2.1623762376237625
    endloop
  endfacet
  facet normal -0.8382575712720258 0.05273869616943204 0.54271804293894
    outer loop
      vertex 2.875 0 -3.9
      vertex 2.852329766279124 -0.3603330464973742 -3.9
      vertex 3.9684588052579115 -0.5013329342572163 -2.1623762376237625
    endloop
  endfacet
  facet normal 0 0.8399149515686258 0.5427180429389398
    outer loop
      vertex -0.25116207811725505 -3.9921069137130862 -2.1623762376237625
      vertex 0.25116207811725505 -3.9921069137130862 -2.1623762376237625
      vertex 0.18052274364677706 -2.869326844231281 -3.9
    endloop
  endfacet
  facet normal -0.10526925679910248 0.8332919713050713 0.5427180429389398
    outer loop
      vertex 0.25116207811725505 -3.9921069137130862 -2.1623762376237625
      vertex 0.7495252583428993 -3.9291490029147544 -2.1623762376237625
      vertex 0.5387212794339589 -2.82407584584498 -3.9
    endloop
  endfacet
  facet normal -0.20887835453367667 0.8135274788695406 0.5427180429389398
    outer loop
      vertex 0.7495252583428993 -3.9291490029147544 -2.1623762376237625
      vertex 1.2360679774997896 -3.804226065180614 -2.162376237623762
      vertex 0.8884238588279738 -2.7342874843485663 -3.9
    endloop
  endfacet
  facet normal -0.30919331583937276 0.780933172114478 0.5427180429389398
    outer loop
      vertex 1.2360679774997896 -3.804226065180614 -2.162376237623762
      vertex 1.7031171662602897 -3.6193082098640783 -2.1623762376237625
      vertex 1.2241154632495832 -2.6013777758398064 -3.9
    endloop
  endfacet
  facet normal -0.40463211385114944 0.7360230827283053 0.5427180429389398
    outer loop
      vertex 1.7031171662602897 -3.6193082098640783 -2.1623762376237625
      vertex 2.143307179915985 -3.377311702008061 -2.1623762376237625
      vertex 1.5405020355646142 -2.427442785818294 -3.9
    endloop
  endfacet
  facet normal -0.49368962171198477 0.6795054696486295 0.5427180429389398
    outer loop
      vertex 2.143307179915985 -3.377311702008061 -2.1623762376237625
      vertex 2.54969595899476 -3.082052971103156 -2.1623762376237625
      vertex 1.8325939705274836 -2.2152255729803936 -3.9
    endloop
  endfacet
  facet normal -0.5749613493225374 0.6122716493957024 0.5427180429389398
    outer loop
      vertex 2.54969595899476 -3.082052971103156 -2.1623762376237625
      vertex 2.9158745096856467 -2.738188423714754 -2.162376237623763
      vertex 2.0957848038365587 -1.9680729295449795 -3.9
    endloop
  endfacet
  facet normal -0.6471655929890117 0.535381939478451 0.5427180429389398
    outer loop
      vertex 2.0957848038365587 -1.9680729295449795 -3.9
      vertex 2.9158745096856467 -2.738188423714754 -2.162376237623763
      vertex 3.23606797749979 -2.3511410091698925 -2.162376237623763
    endloop
  endfacet
  facet normal -0.7091636486560636 0.4500489365539553 0.5427180429389398
    outer loop
      vertex 2.5193817051261074 -1.3850418130424318 -3.9
      vertex 3.23606797749979 -2.3511410091698925 -2.162376237623763
      vertex 3.505226720175454 -1.9270146964068617 -2.1623762376237625
    endloop
  endfacet
  facet normal -0.759977769949979 0.3576183930538021 0.5427180429389398
    outer loop
      vertex 3.719105943553005 -1.4724982107387135 -2.1623762376237625
      vertex 2.5193817051261074 -1.3850418130424318 -3.9
      vertex 3.505226720175454 -1.9270146964068617 -2.1623762376237625
    endloop
  endfacet
  facet normal -0.7988065878230699 0.2595479938643162 0.5427180429389399
    outer loop
      vertex 3.8743326445145247 -0.9947595486594177 -2.1623762376237625
      vertex 2.6731073969287222 -1.0583580889684503 -3.9
      vertex 3.719105943553005 -1.4724982107387135 -2.1623762376237625
    endloop
  endfacet
  facet normal -0.8250377486222653 0.1573843677651345 0.5427180429389398
    outer loop
      vertex 2.852329766279124 -0.3603330464973742 -3.9
      vertex 3.8743326445145247 -0.9947595486594177 -2.1623762376237625
      vertex 3.9684588052579115 -0.5013329342572163 -2.1623762376237625
    endloop
  endfacet
  facet normal -0.8382575712720257 0.05273869616943182 0.5427180429389398
    outer loop
      vertex 2.875 0 -3.9
      vertex 3.9684588052579115 -0.5013329342572163 -2.1623762376237625
      vertex 4 0 -2.1623762376237625
    endloop
  endfacet
  facet normal 0 -0.839914951568626 0.5427180429389398
    outer loop
      vertex -0.18052274364677567 2.869326844231281 -3.9
      vertex 0.18052274364677542 2.869326844231281 -3.9
      vertex 0.2511620781172531 3.9921069137130862 -2.1623762376237625
    endloop
  endfacet
  facet normal -0.10526925679910218 -0.8332919713050712 0.5427180429389398
    outer loop
      vertex 0.18052274364677542 2.869326844231281 -3.9
      vertex 0.5387212794339582 2.82407584584498 -3.9
      vertex 0.7495252583428984 3.929149002914755 -2.1623762376237625
    endloop
  endfacet
  facet normal -0.20887835453367648 -0.8135274788695406 0.5427180429389399
    outer loop
      vertex 0.5387212794339582 2.82407584584498 -3.9
      vertex 0.8884238588279738 2.7342874843485663 -3.9
      vertex 0.7495252583428984 3.929149002914755 -2.1623762376237625
    endloop
  endfacet
  facet normal -0.40463211385114994 -0.7360230827283047 0.5427180429389398
    outer loop
      vertex 1.224115463249584 2.601377775839806 -3.9
      vertex 1.5405020355646153 2.427442785818293 -3.9
      vertex 1.703117166260291 3.619308209864078 -2.1623762376237625
    endloop
  endfacet
  facet normal -0.49368962171198544 -0.6795054696486288 0.5427180429389399
    outer loop
      vertex 1.5405020355646153 2.427442785818293 -3.9
      vertex 1.832593970527483 2.2152255729803936 -3.9
      vertex 2.1433071799159866 3.3773117020080603 -2.1623762376237625
    endloop
  endfacet
  facet normal -0.3091933158393729 -0.7809331721144779 0.5427180429389398
    outer loop
      vertex 0.8884238588279738 2.7342874843485663 -3.9
      vertex 1.224115463249584 2.601377775839806 -3.9
      vertex 1.2360679774997898 3.804226065180614 -2.162376237623762
    endloop
  endfacet
  facet normal -0.7599777699499793 -0.35761839305380144 0.5427180429389398
    outer loop
      vertex 2.519381705126108 1.3850418130424316 -3.9
      vertex 2.6731073969287227 1.0583580889684492 -3.9
      vertex 3.7191059435530054 1.472498210738712 -2.1623762376237625
    endloop
  endfacet
  facet normal -0.7091636486560634 -0.45004893655395584 0.5427180429389399
    outer loop
      vertex 2.325923858827974 1.6898826003408602 -3.9
      vertex 2.519381705126108 1.3850418130424316 -3.9
      vertex 3.5052267201754543 1.9270146964068613 -2.1623762376237625
    endloop
  endfacet
  facet normal -0.8382575712720258 -0.05273869616943195 0.5427180429389398
    outer loop
      vertex 2.875 0 -3.9
      vertex 4 0 -2.1623762376237625
      vertex 2.852329766279124 0.36033304649737474 -3.9
    endloop
  endfacet
  facet normal -0.8250377486222651 -0.15738436776513476 0.5427180429389399
    outer loop
      vertex 2.7846765882448143 0.7149834255989576 -3.9
      vertex 2.852329766279124 0.36033304649737474 -3.9
      vertex 3.9684588052579115 0.501332934257217 -2.1623762376237625
    endloop
  endfacet
  facet normal -0.79880658782307 -0.25954799386431626 0.5427180429389398
    outer loop
      vertex 2.6731073969287227 1.0583580889684492 -3.9
      vertex 2.7846765882448143 0.7149834255989576 -3.9
      vertex 3.8743326445145243 0.9947595486594192 -2.1623762376237625
    endloop
  endfacet
  facet normal -0.5749613493225365 -0.6122716493957033 0.5427180429389401
    outer loop
      vertex 1.832593970527483 2.2152255729803936 -3.9
      vertex 2.0957848038365583 1.9680729295449801 -3.9
      vertex 2.549695958994759 3.0820529711031566 -2.162376237623763
    endloop
  endfacet
  facet normal -0.647165592989012 -0.5353819394784507 0.5427180429389399
    outer loop
      vertex 2.0957848038365583 1.9680729295449801 -3.9
      vertex 2.325923858827974 1.6898826003408602 -3.9
      vertex 3.23606797749979 2.3511410091698925 -2.162376237623763
    endloop
  endfacet
  facet normal -0.10526925679910154 -0.8332919713050714 0.5427180429389398
    outer loop
      vertex 0.18052274364677542 2.869326844231281 -3.9
      vertex 0.7495252583428984 3.929149002914755 -2.1623762376237625
      vertex 0.2511620781172531 3.9921069137130862 -2.1623762376237625
    endloop
  endfacet
  facet normal -0.20887835453367692 -0.8135274788695405 0.5427180429389398
    outer loop
      vertex 0.7495252583428984 3.929149002914755 -2.1623762376237625
      vertex 0.8884238588279738 2.7342874843485663 -3.9
      vertex 1.2360679774997898 3.804226065180614 -2.162376237623762
    endloop
  endfacet
  facet normal -0.30919331583937276 -0.7809331721144781 0.5427180429389398
    outer loop
      vertex 1.2360679774997898 3.804226065180614 -2.162376237623762
      vertex 1.224115463249584 2.601377775839806 -3.9
      vertex 1.703117166260291 3.619308209864078 -2.1623762376237625
    endloop
  endfacet
  facet normal -0.4046321138511496 -0.736023082728305 0.5427180429389399
    outer loop
      vertex 1.703117166260291 3.619308209864078 -2.1623762376237625
      vertex 1.5405020355646153 2.427442785818293 -3.9
      vertex 2.1433071799159866 3.3773117020080603 -2.1623762376237625
    endloop
  endfacet
  facet normal -0.8382575712720257 -0.05273869616943179 0.5427180429389398
    outer loop
      vertex 4 0 -2.1623762376237625
      vertex 3.9684588052579115 0.501332934257217 -2.1623762376237625
      vertex 2.852329766279124 0.36033304649737474 -3.9
    endloop
  endfacet
  facet normal -0.825037748622265 -0.15738436776513492 0.5427180429389398
    outer loop
      vertex 3.9684588052579115 0.501332934257217 -2.1623762376237625
      vertex 3.8743326445145243 0.9947595486594192 -2.1623762376237625
      vertex 2.7846765882448143 0.7149834255989576 -3.9
    endloop
  endfacet
  facet normal -0.7988065878230699 -0.2595479938643163 0.5427180429389398
    outer loop
      vertex 3.8743326445145243 0.9947595486594192 -2.1623762376237625
      vertex 3.7191059435530054 1.472498210738712 -2.1623762376237625
      vertex 2.6731073969287227 1.0583580889684492 -3.9
    endloop
  endfacet
  facet normal -0.7599777699499793 -0.35761839305380144 0.5427180429389398
    outer loop
      vertex 3.7191059435530054 1.472498210738712 -2.1623762376237625
      vertex 3.5052267201754543 1.9270146964068613 -2.1623762376237625
      vertex 2.519381705126108 1.3850418130424316 -3.9
    endloop
  endfacet
  facet normal -0.7091636486560635 -0.4500489365539555 0.54271804293894
    outer loop
      vertex 3.5052267201754543 1.9270146964068613 -2.1623762376237625
      vertex 3.23606797749979 2.3511410091698925 -2.162376237623763
      vertex 2.325923858827974 1.6898826003408602 -3.9
    endloop
  endfacet
  facet normal -0.493689621711985 -0.679505469648629 0.5427180429389399
    outer loop
      vertex 2.1433071799159866 3.3773117020080603 -2.1623762376237625
      vertex 1.832593970527483 2.2152255729803936 -3.9
      vertex 2.549695958994759 3.0820529711031566 -2.162376237623763
    endloop
  endfacet
  facet normal -0.6471655929890117 -0.5353819394784513 0.5427180429389398
    outer loop
      vertex 3.23606797749979 2.3511410091698925 -2.162376237623763
      vertex 2.915874509685646 2.738188423714755 -2.1623762376237625
      vertex 2.0957848038365583 1.9680729295449801 -3.9
    endloop
  endfacet
  facet normal -0.5749613493225374 -0.6122716493957027 0.5427180429389399
    outer loop
      vertex 2.549695958994759 3.0820529711031566 -2.162376237623763
      vertex 2.0957848038365583 1.9680729295449801 -3.9
      vertex 2.915874509685646 2.738188423714755 -2.1623762376237625
    endloop
  endfacet
  facet normal 0 0 -1
    outer loop
      vertex -2.5496959589947585 -3.0820529711031575 -3.9
      vertex -2.9158745096856467 -2.738188423714754 -3.9
      vertex -2.5193817051261074 -1.3850418130424318 -3.9
    endloop
  endfacet
  facet normal 0 0 -1
    outer loop
      vertex -2.5496959589947585 -3.0820529711031575 -3.9
      vertex -2.0957848038365587 -1.9680729295449795 -3.9
      vertex -2.143307179915987 -3.37731170200806 -3.9
    endloop
  endfacet
  facet normal 0 0 -1
    outer loop
      vertex -2.143307179915987 -3.37731170200806 -3.9
      vertex -2.0957848038365587 -1.9680729295449795 -3.9
      vertex -1.8325939705274827 -2.2152255729803945 -3.9
    endloop
  endfacet
  facet normal 0 0 -1
    outer loop
      vertex -2.5496959589947585 -3.0820529711031575 -3.9
      vertex -2.325923858827974 -1.6898826003408602 -3.9
      vertex -2.0957848038365587 -1.9680729295449795 -3.9
    endloop
  endfacet
  facet normal 0 0 -1
    outer loop
      vertex -2.5496959589947585 -3.0820529711031575 -3.9
      vertex -2.5193817051261074 -1.3850418130424318 -3.9
      vertex -2.325923858827974 -1.6898826003408602 -3.9
    endloop
  endfacet
  facet normal -0.8443279255020154 -0.5358267949789962 0
    outer loop
      vertex -3.23606797749979 -2.3511410091698925 -3.9
      vertex -3.505226720175454 -1.9270146964068615 -2.1623762376237625
      vertex -3.505226720175454 -1.9270146964068615 -3.9
    endloop
  endfacet
  facet normal -0.7705132427757891 -0.6374239897486899 0
    outer loop
      vertex -3.23606797749979 -2.3511410091698925 -3.9
      vertex -2.9158745096856467 -2.738188423714754 -3.9
      vertex -3.23606797749979 -2.3511410091698925 -2.162376237623763
    endloop
  endfacet
  facet normal -0.5877852522924727 -0.8090169943749477 0
    outer loop
      vertex -2.5496959589947585 -3.0820529711031575 -3.9
      vertex -2.143307179915987 -3.37731170200806 -3.9
      vertex -2.5496959589947585 -3.0820529711031575 -2.1623762376237625
    endloop
  endfacet
  facet normal -0.6845471059286891 -0.7289686274214111 0
    outer loop
      vertex -2.5496959589947585 -3.0820529711031575 -3.9
      vertex -2.9158745096856467 -2.738188423714754 -2.162376237623763
      vertex -2.9158745096856467 -2.738188423714754 -3.9
    endloop
  endfacet
  facet normal 0 0 -1
    outer loop
      vertex -3.719105943553006 -1.4724982107387115 -3.9
      vertex -3.8743326445145243 -0.9947595486594194 -3.9
      vertex -3.719105943553006 1.4724982107387115 -3.9
    endloop
  endfacet
  facet normal 0 0 -1
    outer loop
      vertex -3.8743326445145243 -0.9947595486594194 -3.9
      vertex -3.9684588052579115 -0.5013329342572163 -3.9
      vertex -3.8743326445145243 0.9947595486594194 -3.9
    endloop
  endfacet
  facet normal 0 0 -1
    outer loop
      vertex -3.505226720175454 -1.9270146964068615 -3.9
      vertex -3.719105943553006 -1.4724982107387115 -3.9
      vertex -3.505226720175454 1.9270146964068615 -3.9
    endloop
  endfacet
  facet normal 0 0 -1
    outer loop
      vertex -3.23606797749979 -2.3511410091698925 -3.9
      vertex -3.505226720175454 -1.9270146964068615 -3.9
      vertex -3.23606797749979 2.3511410091698925 -3.9
    endloop
  endfacet
  facet normal 0 0 -1
    outer loop
      vertex -3.23606797749979 -2.3511410091698925 -3.9
      vertex -2.9158745096856467 2.738188423714754 -3.9
      vertex -2.9158745096856467 -2.738188423714754 -3.9
    endloop
  endfacet
  facet normal 0 0 -1
    outer loop
      vertex -2.9158745096856467 -2.738188423714754 -3.9
      vertex -2.7846765882448143 -0.7149834255989577 -3.9
      vertex -2.673107396928723 -1.058358088968449 -3.9
    endloop
  endfacet
  facet normal 0 0 -1
    outer loop
      vertex -2.9158745096856467 -2.738188423714754 -3.9
      vertex -2.673107396928723 -1.058358088968449 -3.9
      vertex -2.5193817051261074 -1.3850418130424318 -3.9
    endloop
  endfacet
  facet normal 0 0 -1
    outer loop
      vertex -2.9158745096856467 -2.738188423714754 -3.9
      vertex -2.852329766279124 -0.3603330464973742 -3.9
      vertex -2.7846765882448143 -0.7149834255989577 -3.9
    endloop
  endfacet
  facet normal 0 0 -1
    outer loop
      vertex -2.9158745096856467 -2.738188423714754 -3.9
      vertex -2.875 0 -3.9
      vertex -2.852329766279124 -0.3603330464973742 -3.9
    endloop
  endfacet
  facet normal -0.9048270524660192 -0.4257792915650731 0
    outer loop
      vertex -3.505226720175454 -1.9270146964068615 -3.9
      vertex -3.719105943553006 -1.4724982107387115 -2.1623762376237625
      vertex -3.719105943553006 -1.4724982107387115 -3.9
    endloop
  endfacet
  facet normal -0.9510565162951536 -0.30901699437494706 0
    outer loop
      vertex -3.719105943553006 -1.4724982107387115 -3.9
      vertex -3.8743326445145243 -0.9947595486594194 -2.1623762376237625
      vertex -3.8743326445145243 -0.9947595486594194 -3.9
    endloop
  endfacet
  facet normal -0.9822872507286886 -0.18738131458572496 0
    outer loop
      vertex -3.8743326445145243 -0.9947595486594194 -3.9
      vertex -3.9684588052579115 -0.5013329342572163 -2.1623762376237625
      vertex -3.9684588052579115 -0.5013329342572163 -3.9
    endloop
  endfacet
  facet normal -0.9980267284282716 -0.06279051952931311 0
    outer loop
      vertex -3.9684588052579115 -0.5013329342572163 -3.9
      vertex -4 0 -2.1623762376237625
      vertex -4 0 -3.9
    endloop
  endfacet
  facet normal 0 0 -1
    outer loop
      vertex -2.143307179915987 -3.37731170200806 -3.9
      vertex -1.5405020355646157 -2.427442785818293 -3.9
      vertex -1.7031171662602897 -3.6193082098640783 -3.9
    endloop
  endfacet
  facet normal 0 0 -1
    outer loop
      vertex -1.7031171662602897 -3.6193082098640783 -3.9
      vertex -1.2241154632495832 -2.6013777758398064 -3.9
      vertex -1.2360679774997896 -3.804226065180614 -3.9
    endloop
  endfacet
  facet normal 0 0 -1
    outer loop
      vertex -1.2360679774997896 -3.804226065180614 -3.9
      vertex -1.2241154632495832 -2.6013777758398064 -3.9
      vertex -0.8884238588279738 -2.7342874843485663 -3.9
    endloop
  endfacet
  facet normal 0 0 -1
    outer loop
      vertex -2.143307179915987 -3.37731170200806 -3.9
      vertex -1.8325939705274827 -2.2152255729803945 -3.9
      vertex -1.5405020355646157 -2.427442785818293 -3.9
    endloop
  endfacet
  facet normal 0 0 -1
    outer loop
      vertex -1.7031171662602897 -3.6193082098640783 -3.9
      vertex -1.5405020355646157 -2.427442785818293 -3.9
      vertex -1.2241154632495832 -2.6013777758398064 -3.9
    endloop
  endfacet
  facet normal 0 0 -1
    outer loop
      vertex -1.2360679774997896 -3.804226065180614 -3.9
      vertex -0.5387212794339589 -2.82407584584498 -3.9
      vertex -0.7495252583428993 -3.9291490029147544 -3.9
    endloop
  endfacet
  facet normal 0 0 -1
    outer loop
      vertex -1.2360679774997896 -3.804226065180614 -3.9
      vertex -0.8884238588279738 -2.7342874843485663 -3.9
      vertex -0.5387212794339589 -2.82407584584498 -3.9
    endloop
  endfacet
  facet normal 0 0 -1
    outer loop
      vertex -0.7495252583428993 -3.9291490029147544 -3.9
      vertex -0.18052274364677706 -2.869326844231281 -3.9
      vertex -0.25116207811725505 -3.9921069137130862 -3.9
    endloop
  endfacet
  facet normal 0 0 -1
    outer loop
      vertex -0.7495252583428993 -3.9291490029147544 -3.9
      vertex -0.5387212794339589 -2.82407584584498 -3.9
      vertex -0.18052274364677706 -2.869326844231281 -3.9
    endloop
  endfacet
  facet normal 0 0 -1
    outer loop
      vertex -0.25116207811725505 -3.9921069137130862 -3.9
      vertex -0.18052274364677706 -2.869326844231281 -3.9
      vertex 0.18052274364677706 -2.869326844231281 -3.9
    endloop
  endfacet
  facet normal -0.3681245526846778 -0.9297764858882515 0
    outer loop
      vertex -1.7031171662602897 -3.6193082098640783 -3.9
      vertex -1.2360679774997896 -3.804226065180614 -3.9
      vertex -1.7031171662602897 -3.6193082098640783 -2.1623762376237625
    endloop
  endfacet
  facet normal -0.48175367410171505 -0.8763066800438637 0
    outer loop
      vertex -2.143307179915987 -3.37731170200806 -3.9
      vertex -1.7031171662602897 -3.6193082098640783 -3.9
      vertex -2.143307179915987 -3.37731170200806 -2.1623762376237625
    endloop
  endfacet
  facet normal -0.248689887164855 -0.9685831611286311 -3.1779173915563843e-17
    outer loop
      vertex -1.2360679774997896 -3.804226065180614 -3.9
      vertex -0.7495252583428993 -3.9291490029147544 -3.9
      vertex -1.2360679774997898 -3.804226065180614 -2.162376237623762
    endloop
  endfacet
  facet normal -0.12533323356430498 -0.9921147013144778 0
    outer loop
      vertex -0.7495252583428993 -3.9291490029147544 -3.9
      vertex -0.25116207811725505 -3.9921069137130862 -3.9
      vertex -0.7495252583428993 -3.9291490029147544 -2.1623762376237625
    endloop
  endfacet
  facet normal 0 -1 0
    outer loop
      vertex -0.25116207811725505 -3.9921069137130862 -3.9
      vertex 0.25116207811725505 -3.9921069137130862 -3.9
      vertex -0.25116207811725505 -3.9921069137130862 -2.1623762376237625
    endloop
  endfacet
  facet normal -0.7705132427757891 -0.6374239897486899 0
    outer loop
      vertex -2.9158745096856467 -2.738188423714754 -3.9
      vertex -2.9158745096856467 -2.738188423714754 -2.162376237623763
      vertex -3.23606797749979 -2.3511410091698925 -2.162376237623763
    endloop
  endfacet
  facet normal -0.8443279255020154 -0.5358267949789962 0
    outer loop
      vertex -3.23606797749979 -2.3511410091698925 -3.9
      vertex -3.23606797749979 -2.3511410091698925 -2.162376237623763
      vertex -3.505226720175454 -1.9270146964068615 -2.1623762376237625
    endloop
  endfacet
  facet normal -0.5877852522924727 -0.8090169943749477 0
    outer loop
      vertex -2.143307179915987 -3.37731170200806 -3.9
      vertex -2.143307179915987 -3.37731170200806 -2.1623762376237625
      vertex -2.5496959589947585 -3.0820529711031575 -2.1623762376237625
    endloop
  endfacet
  facet normal -0.6845471059286892 -0.7289686274214111 0
    outer loop
      vertex -2.5496959589947585 -3.0820529711031575 -3.9
      vertex -2.5496959589947585 -3.0820529711031575 -2.1623762376237625
      vertex -2.9158745096856467 -2.738188423714754 -2.162376237623763
    endloop
  endfacet
  facet normal -0.9048270524660192 -0.4257792915650731 0
    outer loop
      vertex -3.505226720175454 -1.9270146964068615 -3.9
      vertex -3.505226720175454 -1.9270146964068615 -2.1623762376237625
      vertex -3.719105943553006 -1.4724982107387115 -2.1623762376237625
    endloop
  endfacet
  facet normal -0.9510565162951536 -0.30901699437494706 0
    outer loop
      vertex -3.719105943553006 -1.4724982107387115 -3.9
      vertex -3.719105943553006 -1.4724982107387115 -2.1623762376237625
      vertex -3.8743326445145243 -0.9947595486594194 -2.1623762376237625
    endloop
  endfacet
  facet normal -0.9822872507286886 -0.18738131458572496 0
    outer loop
      vertex -3.8743326445145243 -0.9947595486594194 -3.9
      vertex -3.8743326445145243 -0.9947595486594194 -2.1623762376237625
      vertex -3.9684588052579115 -0.5013329342572163 -2.1623762376237625
    endloop
  endfacet
  facet normal -0.9980267284282716 -0.06279051952931311 0
    outer loop
      vertex -3.9684588052579115 -0.5013329342572163 -3.9
      vertex -3.9684588052579115 -0.5013329342572163 -2.1623762376237625
      vertex -4 0 -2.1623762376237625
    endloop
  endfacet
  facet normal -0.48175367410171505 -0.8763066800438637 0
    outer loop
      vertex -1.7031171662602897 -3.6193082098640783 -3.9
      vertex -1.7031171662602897 -3.6193082098640783 -2.1623762376237625
      vertex -2.143307179915987 -3.37731170200806 -2.1623762376237625
    endloop
  endfacet
  facet normal -0.368124552684678 -0.9297764858882515 -4.7041294343426733e-17
    outer loop
      vertex -1.2360679774997896 -3.804226065180614 -3.9
      vertex -1.2360679774997898 -3.804226065180614 -2.162376237623762
      vertex -1.7031171662602897 -3.6193082098640783 -2.1623762376237625
    endloop
  endfacet
  facet normal -0.24868988716485488 -0.9685831611286311 0
    outer loop
      vertex -0.7495252583428993 -3.9291490029147544 -3.9
      vertex -0.7495252583428993 -3.9291490029147544 -2.1623762376237625
      vertex -1.2360679774997898 -3.804226065180614 -2.162376237623762
    endloop
  endfacet
  facet normal -0.12533323356430498 -0.9921147013144778 0
    outer loop
      vertex -0.25116207811725505 -3.9921069137130862 -3.9
      vertex -0.25116207811725505 -3.9921069137130862 -2.1623762376237625
      vertex -0.7495252583428993 -3.9291490029147544 -2.1623762376237625
    endloop
  endfacet
  facet normal 0 0 -1
    outer loop
      vertex -3.9684588052579115 -0.5013329342572163 -3.9
      vertex -4 0 -3.9
      vertex -3.9684588052579115 0.5013329342572163 -3.9
    endloop
  endfacet
  facet normal 0 0 -1
    outer loop
      vertex -3.9684588052579115 -0.5013329342572163 -3.9
      vertex -3.9684588052579115 0.5013329342572163 -3.9
      vertex -3.8743326445145243 0.9947595486594194 -3.9
    endloop
  endfacet
  facet normal 0 0 -1
    outer loop
      vertex -3.8743326445145243 -0.9947595486594194 -3.9
      vertex -3.8743326445145243 0.9947595486594194 -3.9
      vertex -3.719105943553006 1.4724982107387115 -3.9
    endloop
  endfacet
  facet normal 0 0 -1
    outer loop
      vertex -3.719105943553006 -1.4724982107387115 -3.9
      vertex -3.719105943553006 1.4724982107387115 -3.9
      vertex -3.505226720175454 1.9270146964068615 -3.9
    endloop
  endfacet
  facet normal 0 0 -1
    outer loop
      vertex -3.505226720175454 -1.9270146964068615 -3.9
      vertex -3.505226720175454 1.9270146964068615 -3.9
      vertex -3.23606797749979 2.3511410091698925 -3.9
    endloop
  endfacet
  facet normal 0 0 -1
    outer loop
      vertex -3.23606797749979 -2.3511410091698925 -3.9
      vertex -3.23606797749979 2.3511410091698925 -3.9
      vertex -2.9158745096856467 2.738188423714754 -3.9
    endloop
  endfacet
  facet normal 0 0 -1
    outer loop
      vertex -2.9158745096856467 -2.738188423714754 -3.9
      vertex -2.9158745096856467 2.738188423714754 -3.9
      vertex -2.875 0 -3.9
    endloop
  endfacet
  facet normal 0 0 -1
    outer loop
      vertex -2.9158745096856467 2.738188423714754 -3.9
      vertex -2.852329766279124 0.3603330464973742 -3.9
      vertex -2.875 0 -3.9
    endloop
  endfacet
  facet normal 0 0 -1
    outer loop
      vertex -2.9158745096856467 2.738188423714754 -3.9
      vertex -2.7846765882448143 0.7149834255989577 -3.9
      vertex -2.852329766279124 0.3603330464973742 -3.9
    endloop
  endfacet
  facet normal 0 0 -1
    outer loop
      vertex -2.5496959589947585 3.0820529711031575 -3.9
      vertex -2.673107396928723 1.058358088968449 -3.9
      vertex -2.7846765882448143 0.7149834255989577 -3.9
    endloop
  endfacet
  facet normal 0 0 -1
    outer loop
      vertex -2.5496959589947585 3.0820529711031575 -3.9
      vertex -2.5193817051261074 1.3850418130424318 -3.9
      vertex -2.673107396928723 1.058358088968449 -3.9
    endloop
  endfacet
  facet normal -0.9980267284282716 0.06279051952931311 0
    outer loop
      vertex -4 0 -3.9
      vertex -3.9684588052579115 0.5013329342572163 -2.1623762376237625
      vertex -3.9684588052579115 0.5013329342572163 -3.9
    endloop
  endfacet
  facet normal -0.9822872507286886 0.18738131458572496 0
    outer loop
      vertex -3.9684588052579115 0.5013329342572163 -3.9
      vertex -3.8743326445145243 0.9947595486594194 -2.1623762376237625
      vertex -3.8743326445145243 0.9947595486594194 -3.9
    endloop
  endfacet
  facet normal -0.9510565162951536 0.30901699437494706 -4.7698166703774124e-17
    outer loop
      vertex -3.8743326445145243 0.9947595486594194 -3.9
      vertex -3.719105943553006 1.4724982107387117 -2.1623762376237625
      vertex -3.719105943553006 1.4724982107387115 -3.9
    endloop
  endfacet
  facet normal -0.9048270524660192 0.4257792915650731 -4.769816670377396e-17
    outer loop
      vertex -3.719105943553006 1.4724982107387115 -3.9
      vertex -3.505226720175454 1.9270146964068617 -2.1623762376237625
      vertex -3.505226720175454 1.9270146964068615 -3.9
    endloop
  endfacet
  facet normal 0 0 -1
    outer loop
      vertex -2.9158745096856467 2.738188423714754 -3.9
      vertex -2.5496959589947585 3.0820529711031575 -3.9
      vertex -2.7846765882448143 0.7149834255989577 -3.9
    endloop
  endfacet
  facet normal 0 0 -1
    outer loop
      vertex -2.5496959589947585 3.0820529711031575 -3.9
      vertex -2.325923858827974 1.6898826003408602 -3.9
      vertex -2.5193817051261074 1.3850418130424318 -3.9
    endloop
  endfacet
  facet normal 0 0 -1
    outer loop
      vertex -2.143307179915987 3.37731170200806 -3.9
      vertex -2.0957848038365587 1.9680729295449795 -3.9
      vertex -2.325923858827974 1.6898826003408602 -3.9
    endloop
  endfacet
  facet normal 0 0 -1
    outer loop
      vertex -2.5496959589947585 3.0820529711031575 -3.9
      vertex -2.143307179915987 3.37731170200806 -3.9
      vertex -2.325923858827974 1.6898826003408602 -3.9
    endloop
  endfacet
  facet normal 0 0 -1
    outer loop
      vertex -2.143307179915987 3.37731170200806 -3.9
      vertex -1.8325939705274827 2.2152255729803945 -3.9
      vertex -2.0957848038365587 1.9680729295449795 -3.9
    endloop
  endfacet
  facet normal -0.8443279255020154 0.5358267949789962 0
    outer loop
      vertex -3.505226720175454 1.9270146964068615 -3.9
      vertex -3.23606797749979 2.3511410091698925 -2.162376237623763
      vertex -3.23606797749979 2.3511410091698925 -3.9
    endloop
  endfacet
  facet normal -0.7705132427757891 0.6374239897486899 0
    outer loop
      vertex -3.23606797749979 2.3511410091698925 -3.9
      vertex -2.9158745096856467 2.738188423714754 -2.162376237623763
      vertex -2.9158745096856467 2.738188423714754 -3.9
    endloop
  endfacet
  facet normal -0.6845471059286892 0.7289686274214111 0
    outer loop
      vertex -2.9158745096856467 2.738188423714754 -3.9
      vertex -2.5496959589947585 3.0820529711031575 -2.1623762376237625
      vertex -2.5496959589947585 3.0820529711031575 -3.9
    endloop
  endfacet
  facet normal -0.5877852522924727 0.8090169943749477 0
    outer loop
      vertex -2.5496959589947585 3.0820529711031575 -3.9
      vertex -2.143307179915987 3.37731170200806 -2.1623762376237625
      vertex -2.143307179915987 3.37731170200806 -3.9
    endloop
  endfacet
  facet normal 0 0 -1
    outer loop
      vertex -1.7031171662602909 3.619308209864078 -3.9
      vertex -1.5405020355646157 2.427442785818293 -3.9
      vertex -1.8325939705274827 2.2152255729803945 -3.9
    endloop
  endfacet
  facet normal 0 0 -1
    outer loop
      vertex -1.2360679774997896 3.804226065180614 -3.9
      vertex -1.224115463249584 2.601377775839806 -3.9
      vertex -1.5405020355646157 2.427442785818293 -3.9
    endloop
  endfacet
  facet normal 0 0 -1
    outer loop
      vertex -2.143307179915987 3.37731170200806 -3.9
      vertex -1.7031171662602909 3.619308209864078 -3.9
      vertex -1.8325939705274827 2.2152255729803945 -3.9
    endloop
  endfacet
  facet normal 0 0 -1
    outer loop
      vertex -1.7031171662602909 3.619308209864078 -3.9
      vertex -1.2360679774997896 3.804226065180614 -3.9
      vertex -1.5405020355646157 2.427442785818293 -3.9
    endloop
  endfacet
  facet normal 0 0 -1
    outer loop
      vertex -1.2360679774997896 3.804226065180614 -3.9
      vertex -0.8884238588279738 2.7342874843485663 -3.9
      vertex -1.224115463249584 2.601377775839806 -3.9
    endloop
  endfacet
  facet normal 0 0 -1
    outer loop
      vertex -1.2360679774997896 3.804226065180614 -3.9
      vertex -0.7495252583428983 3.929149002914755 -3.9
      vertex -0.8884238588279738 2.7342874843485663 -3.9
    endloop
  endfacet
  facet normal 0 0 -1
    outer loop
      vertex -0.7495252583428983 3.929149002914755 -3.9
      vertex -0.5387212794339582 2.82407584584498 -3.9
      vertex -0.8884238588279738 2.7342874843485663 -3.9
    endloop
  endfacet
  facet normal 0 0 -1
    outer loop
      vertex -0.7495252583428983 3.929149002914755 -3.9
      vertex -0.2511620781172531 3.9921069137130862 -3.9
      vertex -0.5387212794339582 2.82407584584498 -3.9
    endloop
  endfacet
  facet normal 0 0 -1
    outer loop
      vertex -0.2511620781172531 3.9921069137130862 -3.9
      vertex -0.18052274364677567 2.869326844231281 -3.9
      vertex -0.5387212794339582 2.82407584584498 -3.9
    endloop
  endfacet
  facet normal 0 0 -1
    outer loop
      vertex -0.2511620781172531 3.9921069137130862 -3.9
      vertex 0.18052274364677542 2.869326844231281 -3.9
      vertex -0.18052274364677567 2.869326844231281 -3.9
    endloop
  endfacet
  facet normal -0.4817536741017153 0.8763066800438636 0
    outer loop
      vertex -2.143307179915987 3.37731170200806 -3.9
      vertex -1.7031171662602909 3.619308209864078 -2.1623762376237625
      vertex -1.7031171662602909 3.619308209864078 -3.9
    endloop
  endfacet
  facet normal -0.36812455268467786 0.9297764858882515 0
    outer loop
      vertex -1.7031171662602909 3.619308209864078 -3.9
      vertex -1.2360679774997896 3.804226065180614 -2.162376237623762
      vertex -1.2360679774997896 3.804226065180614 -3.9
    endloop
  endfacet
  facet normal -0.24868988716485535 0.9685831611286311 0
    outer loop
      vertex -1.2360679774997896 3.804226065180614 -3.9
      vertex -0.7495252583428983 3.929149002914755 -2.162376237623762
      vertex -0.7495252583428983 3.929149002914755 -3.9
    endloop
  endfacet
  facet normal -0.12533323356430384 0.9921147013144778 0
    outer loop
      vertex -0.7495252583428983 3.929149002914755 -3.9
      vertex -0.2511620781172531 3.9921069137130862 -2.1623762376237625
      vertex -0.2511620781172531 3.9921069137130862 -3.9
    endloop
  endfacet
  facet normal -0.9980267284282716 0.06279051952931311 0
    outer loop
      vertex -4 0 -3.9
      vertex -4 0 -2.1623762376237625
      vertex -3.9684588052579115 0.5013329342572163 -2.1623762376237625
    endloop
  endfacet
  facet normal -0.9822872507286886 0.18738131458572496 0
    outer loop
      vertex -3.9684588052579115 0.5013329342572163 -3.9
      vertex -3.9684588052579115 0.5013329342572163 -2.1623762376237625
      vertex -3.8743326445145243 0.9947595486594194 -2.1623762376237625
    endloop
  endfacet
  facet normal -0.9510565162951536 0.3090169943749469 0
    outer loop
      vertex -3.8743326445145243 0.9947595486594194 -3.9
      vertex -3.8743326445145243 0.9947595486594194 -2.1623762376237625
      vertex -3.719105943553006 1.4724982107387117 -2.1623762376237625
    endloop
  endfacet
  facet normal -0.9048270524660194 0.4257792915650731 -5.4408783206059633e-17
    outer loop
      vertex -3.719105943553006 1.4724982107387115 -3.9
      vertex -3.719105943553006 1.4724982107387117 -2.1623762376237625
      vertex -3.505226720175454 1.9270146964068617 -2.1623762376237625
    endloop
  endfacet
  facet normal -0.8443279255020153 0.5358267949789964 -6.847135241558437e-17
    outer loop
      vertex -3.505226720175454 1.9270146964068615 -3.9
      vertex -3.505226720175454 1.9270146964068617 -2.1623762376237625
      vertex -3.23606797749979 2.3511410091698925 -2.162376237623763
    endloop
  endfacet
  facet normal -0.7705132427757891 0.6374239897486899 0
    outer loop
      vertex -3.23606797749979 2.3511410091698925 -3.9
      vertex -3.23606797749979 2.3511410091698925 -2.162376237623763
      vertex -2.9158745096856467 2.738188423714754 -2.162376237623763
    endloop
  endfacet
  facet normal -0.6845471059286891 0.7289686274214111 0
    outer loop
      vertex -2.9158745096856467 2.738188423714754 -3.9
      vertex -2.9158745096856467 2.738188423714754 -2.162376237623763
      vertex -2.5496959589947585 3.0820529711031575 -2.1623762376237625
    endloop
  endfacet
  facet normal -0.5877852522924727 0.8090169943749477 0
    outer loop
      vertex -2.5496959589947585 3.0820529711031575 -3.9
      vertex -2.5496959589947585 3.0820529711031575 -2.1623762376237625
      vertex -2.143307179915987 3.37731170200806 -2.1623762376237625
    endloop
  endfacet
  facet normal -0.4817536741017153 0.8763066800438636 0
    outer loop
      vertex -2.143307179915987 3.37731170200806 -3.9
      vertex -2.143307179915987 3.37731170200806 -2.1623762376237625
      vertex -1.7031171662602909 3.619308209864078 -2.1623762376237625
    endloop
  endfacet
  facet normal -0.36812455268467775 0.9297764858882513 0
    outer loop
      vertex -1.7031171662602909 3.619308209864078 -3.9
      vertex -1.7031171662602909 3.619308209864078 -2.1623762376237625
      vertex -1.2360679774997896 3.804226065180614 -2.162376237623762
    endloop
  endfacet
  facet normal -0.24868988716485535 0.9685831611286311 0
    outer loop
      vertex -1.2360679774997896 3.804226065180614 -3.9
      vertex -1.2360679774997896 3.804226065180614 -2.162376237623762
      vertex -0.7495252583428983 3.929149002914755 -2.162376237623762
    endloop
  endfacet
  facet normal -0.12533323356430387 0.9921147013144779 0
    outer loop
      vertex -0.7495252583428983 3.929149002914755 -3.9
      vertex -0.7495252583428983 3.929149002914755 -2.162376237623762
      vertex -0.2511620781172531 3.9921069137130862 -2.1623762376237625
    endloop
  endfacet
  facet normal 0 1 0
    outer loop
      vertex -0.2511620781172531 3.9921069137130862 -3.9
      vertex -0.2511620781172531 3.9921069137130862 -2.1623762376237625
      vertex 0.2511620781172531 3.9921069137130862 -2.1623762376237625
    endloop
  endfacet
  facet normal 0 0 -1
    outer loop
      vertex -0.25116207811725505 -3.9921069137130862 -3.9
      vertex 0.18052274364677706 -2.869326844231281 -3.9
      vertex 0.25116207811725505 -3.9921069137130862 -3.9
    endloop
  endfacet
  facet normal 0 0 -1
    outer loop
      vertex 0.25116207811725505 -3.9921069137130862 -3.9
      vertex 0.18052274364677706 -2.869326844231281 -3.9
      vertex 0.5387212794339589 -2.82407584584498 -3.9
    endloop
  endfacet
  facet normal 0 0 -1
    outer loop
      vertex 0.25116207811725505 -3.9921069137130862 -3.9
      vertex 0.5387212794339589 -2.82407584584498 -3.9
      vertex 0.7495252583428993 -3.9291490029147544 -3.9
    endloop
  endfacet
  facet normal 0 0 -1
    outer loop
      vertex 0.7495252583428993 -3.9291490029147544 -3.9
      vertex 0.5387212794339589 -2.82407584584498 -3.9
      vertex 0.8884238588279738 -2.7342874843485663 -3.9
    endloop
  endfacet
  facet normal 0 0 -1
    outer loop
      vertex 0.7495252583428993 -3.9291490029147544 -3.9
      vertex 0.8884238588279738 -2.7342874843485663 -3.9
      vertex 1.2360679774997896 -3.804226065180614 -3.9
    endloop
  endfacet
  facet normal 0 0 -1
    outer loop
      vertex 1.2360679774997896 -3.804226065180614 -3.9
      vertex 0.8884238588279738 -2.7342874843485663 -3.9
      vertex 1.2241154632495832 -2.6013777758398064 -3.9
    endloop
  endfacet
  facet normal 0 0 -1
    outer loop
      vertex 1.2360679774997896 -3.804226065180614 -3.9
      vertex 1.5405020355646142 -2.427442785818294 -3.9
      vertex 1.7031171662602897 -3.6193082098640783 -3.9
    endloop
  endfacet
  facet normal 0 0 -1
    outer loop
      vertex 1.7031171662602897 -3.6193082098640783 -3.9
      vertex 1.8325939705274836 -2.2152255729803936 -3.9
      vertex 2.143307179915985 -3.377311702008061 -3.9
    endloop
  endfacet
  facet normal 0 0 -1
    outer loop
      vertex 1.2360679774997896 -3.804226065180614 -3.9
      vertex 1.2241154632495832 -2.6013777758398064 -3.9
      vertex 1.5405020355646142 -2.427442785818294 -3.9
    endloop
  endfacet
  facet normal 0 0 -1
    outer loop
      vertex 1.7031171662602897 -3.6193082098640783 -3.9
      vertex 1.5405020355646142 -2.427442785818294 -3.9
      vertex 1.8325939705274836 -2.2152255729803936 -3.9
    endloop
  endfacet
  facet normal 0.12533323356430498 -0.9921147013144778 0
    outer loop
      vertex 0.25116207811725505 -3.9921069137130862 -3.9
      vertex 0.7495252583428993 -3.9291490029147544 -3.9
      vertex 0.25116207811725505 -3.9921069137130862 -2.1623762376237625
    endloop
  endfacet
  facet normal 0.248689887164855 -0.9685831611286311 0
    outer loop
      vertex 0.7495252583428993 -3.9291490029147544 -3.9
      vertex 1.2360679774997896 -3.804226065180614 -3.9
      vertex 0.7495252583428993 -3.9291490029147544 -2.1623762376237625
    endloop
  endfacet
  facet normal 0.36812455268467786 -0.9297764858882515 0
    outer loop
      vertex 1.2360679774997896 -3.804226065180614 -3.9
      vertex 1.7031171662602897 -3.6193082098640783 -3.9
      vertex 1.2360679774997896 -3.804226065180614 -2.162376237623762
    endloop
  endfacet
  facet normal 0.4817536741017149 -0.8763066800438638 0
    outer loop
      vertex 1.7031171662602897 -3.6193082098640783 -3.9
      vertex 2.143307179915985 -3.377311702008061 -3.9
      vertex 1.7031171662602897 -3.6193082098640783 -2.1623762376237625
    endloop
  endfacet
  facet normal 0 0 -1
    outer loop
      vertex 2.143307179915985 -3.377311702008061 -3.9
      vertex 1.8325939705274836 -2.2152255729803936 -3.9
      vertex 2.0957848038365587 -1.9680729295449795 -3.9
    endloop
  endfacet
  facet normal 0 0 -1
    outer loop
      vertex 2.143307179915985 -3.377311702008061 -3.9
      vertex 2.325923858827974 -1.6898826003408602 -3.9
      vertex 2.54969595899476 -3.082052971103156 -3.9
    endloop
  endfacet
  facet normal 0 0 -1
    outer loop
      vertex 2.143307179915985 -3.377311702008061 -3.9
      vertex 2.0957848038365587 -1.9680729295449795 -3.9
      vertex 2.325923858827974 -1.6898826003408602 -3.9
    endloop
  endfacet
  facet normal 0 0 -1
    outer loop
      vertex 2.54969595899476 -3.082052971103156 -3.9
      vertex 2.325923858827974 -1.6898826003408602 -3.9
      vertex 2.5193817051261074 -1.3850418130424318 -3.9
    endloop
  endfacet
  facet normal 0 0 -1
    outer loop
      vertex 2.54969595899476 -3.082052971103156 -3.9
      vertex 2.784676588244815 -0.7149834255989564 -3.9
      vertex 2.9158745096856467 -2.738188423714754 -3.9
    endloop
  endfacet
  facet normal 0.5877852522924727 -0.8090169943749477 0
    outer loop
      vertex 2.143307179915985 -3.377311702008061 -3.9
      vertex 2.54969595899476 -3.082052971103156 -3.9
      vertex 2.143307179915985 -3.377311702008061 -2.1623762376237625
    endloop
  endfacet
  facet normal 0.6845471059286891 -0.7289686274214112 0
    outer loop
      vertex 2.54969595899476 -3.082052971103156 -3.9
      vertex 2.9158745096856467 -2.738188423714754 -3.9
      vertex 2.54969595899476 -3.082052971103156 -2.1623762376237625
    endloop
  endfacet
  facet normal 0.7705132427757891 -0.6374239897486899 0
    outer loop
      vertex 2.9158745096856467 -2.738188423714754 -3.9
      vertex 3.23606797749979 -2.3511410091698925 -3.9
      vertex 2.9158745096856467 -2.738188423714754 -2.162376237623763
    endloop
  endfacet
  facet normal 0.8443279255020154 -0.5358267949789962 0
    outer loop
      vertex 3.23606797749979 -2.3511410091698925 -3.9
      vertex 3.505226720175454 -1.9270146964068615 -3.9
      vertex 3.23606797749979 -2.3511410091698925 -2.162376237623763
    endloop
  endfacet
  facet normal 0 0 -1
    outer loop
      vertex 2.54969595899476 -3.082052971103156 -3.9
      vertex 2.5193817051261074 -1.3850418130424318 -3.9
      vertex 2.6731073969287222 -1.0583580889684503 -3.9
    endloop
  endfacet
  facet normal 0 0 -1
    outer loop
      vertex 2.54969595899476 -3.082052971103156 -3.9
      vertex 2.6731073969287222 -1.0583580889684503 -3.9
      vertex 2.784676588244815 -0.7149834255989564 -3.9
    endloop
  endfacet
  facet normal 0 0 -1
    outer loop
      vertex 2.9158745096856467 -2.738188423714754 -3.9
      vertex 2.784676588244815 -0.7149834255989564 -3.9
      vertex 2.852329766279124 -0.3603330464973742 -3.9
    endloop
  endfacet
  facet normal 0 0 -1
    outer loop
      vertex 2.9158745096856467 -2.738188423714754 -3.9
      vertex 2.852329766279124 -0.3603330464973742 -3.9
      vertex 2.875 0 -3.9
    endloop
  endfacet
  facet normal 0 0 -1
    outer loop
      vertex 2.9158745096856467 -2.738188423714754 -3.9
      vertex 3.23606797749979 2.3511410091698925 -3.9
      vertex 3.23606797749979 -2.3511410091698925 -3.9
    endloop
  endfacet
  facet normal 0 0 -1
    outer loop
      vertex 3.23606797749979 -2.3511410091698925 -3.9
      vertex 3.5052267201754543 1.9270146964068613 -3.9
      vertex 3.505226720175454 -1.9270146964068615 -3.9
    endloop
  endfacet
  facet normal 0 0 -1
    outer loop
      vertex 3.505226720175454 -1.9270146964068615 -3.9
      vertex 3.7191059435530054 1.472498210738712 -3.9
      vertex 3.719105943553005 -1.4724982107387135 -3.9
    endloop
  endfacet
  facet normal 0 0 -1
    outer loop
      vertex 3.719105943553005 -1.4724982107387135 -3.9
      vertex 3.8743326445145243 0.9947595486594192 -3.9
      vertex 3.8743326445145247 -0.9947595486594177 -3.9
    endloop
  endfacet
  facet normal 0 0 -1
    outer loop
      vertex 3.8743326445145247 -0.9947595486594177 -3.9
      vertex 3.9684588052579115 0.501332934257217 -3.9
      vertex 3.9684588052579115 -0.5013329342572163 -3.9
    endloop
  endfacet
  facet normal 0.9048270524660192 -0.4257792915650732 -5.440878320605964e-17
    outer loop
      vertex 3.505226720175454 -1.9270146964068615 -3.9
      vertex 3.719105943553005 -1.4724982107387135 -3.9
      vertex 3.505226720175454 -1.9270146964068617 -2.1623762376237625
    endloop
  endfacet
  facet normal 0.9510565162951535 -0.30901699437494734 0
    outer loop
      vertex 3.719105943553005 -1.4724982107387135 -3.9
      vertex 3.8743326445145247 -0.9947595486594177 -3.9
      vertex 3.719105943553005 -1.4724982107387135 -2.1623762376237625
    endloop
  endfacet
  facet normal 0.9822872507286886 -0.18738131458572468 0
    outer loop
      vertex 3.8743326445145247 -0.9947595486594177 -3.9
      vertex 3.9684588052579115 -0.5013329342572163 -3.9
      vertex 3.8743326445145247 -0.9947595486594177 -2.1623762376237625
    endloop
  endfacet
  facet normal 0.9980267284282716 -0.06279051952931311 0
    outer loop
      vertex 3.9684588052579115 -0.5013329342572163 -3.9
      vertex 4 0 -3.9
      vertex 3.9684588052579115 -0.5013329342572163 -2.1623762376237625
    endloop
  endfacet
  facet normal 0 -1 0
    outer loop
      vertex 0.25116207811725505 -3.9921069137130862 -3.9
      vertex 0.25116207811725505 -3.9921069137130862 -2.1623762376237625
      vertex -0.25116207811725505 -3.9921069137130862 -2.1623762376237625
    endloop
  endfacet
  facet normal 0.12533323356430498 -0.9921147013144778 0
    outer loop
      vertex 0.7495252583428993 -3.9291490029147544 -3.9
      vertex 0.7495252583428993 -3.9291490029147544 -2.1623762376237625
      vertex 0.25116207811725505 -3.9921069137130862 -2.1623762376237625
    endloop
  endfacet
  facet normal 0.248689887164855 -0.9685831611286311 0
    outer loop
      vertex 1.2360679774997896 -3.804226065180614 -3.9
      vertex 1.2360679774997896 -3.804226065180614 -2.162376237623762
      vertex 0.7495252583428993 -3.9291490029147544 -2.1623762376237625
    endloop
  endfacet
  facet normal 0.3681245526846778 -0.9297764858882515 0
    outer loop
      vertex 1.7031171662602897 -3.6193082098640783 -3.9
      vertex 1.7031171662602897 -3.6193082098640783 -2.1623762376237625
      vertex 1.2360679774997896 -3.804226065180614 -2.162376237623762
    endloop
  endfacet
  facet normal 0.4817536741017149 -0.8763066800438638 0
    outer loop
      vertex 2.143307179915985 -3.377311702008061 -3.9
      vertex 2.143307179915985 -3.377311702008061 -2.1623762376237625
      vertex 1.7031171662602897 -3.6193082098640783 -2.1623762376237625
    endloop
  endfacet
  facet normal 0.5877852522924727 -0.8090169943749477 0
    outer loop
      vertex 2.54969595899476 -3.082052971103156 -3.9
      vertex 2.54969595899476 -3.082052971103156 -2.1623762376237625
      vertex 2.143307179915985 -3.377311702008061 -2.1623762376237625
    endloop
  endfacet
  facet normal 0.684547105928689 -0.7289686274214112 0
    outer loop
      vertex 2.9158745096856467 -2.738188423714754 -3.9
      vertex 2.9158745096856467 -2.738188423714754 -2.162376237623763
      vertex 2.54969595899476 -3.082052971103156 -2.1623762376237625
    endloop
  endfacet
  facet normal 0.7705132427757891 -0.6374239897486899 0
    outer loop
      vertex 3.23606797749979 -2.3511410091698925 -3.9
      vertex 3.23606797749979 -2.3511410091698925 -2.162376237623763
      vertex 2.9158745096856467 -2.738188423714754 -2.162376237623763
    endloop
  endfacet
  facet normal 0.8443279255020153 -0.5358267949789964 -6.847135241558437e-17
    outer loop
      vertex 3.505226720175454 -1.9270146964068615 -3.9
      vertex 3.505226720175454 -1.9270146964068617 -2.1623762376237625
      vertex 3.23606797749979 -2.3511410091698925 -2.162376237623763
    endloop
  endfacet
  facet normal 0.9048270524660194 -0.42577929156507305 0
    outer loop
      vertex 3.719105943553005 -1.4724982107387135 -3.9
      vertex 3.719105943553005 -1.4724982107387135 -2.1623762376237625
      vertex 3.505226720175454 -1.9270146964068617 -2.1623762376237625
    endloop
  endfacet
  facet normal 0.9510565162951535 -0.30901699437494734 0
    outer loop
      vertex 3.8743326445145247 -0.9947595486594177 -3.9
      vertex 3.8743326445145247 -0.9947595486594177 -2.1623762376237625
      vertex 3.719105943553005 -1.4724982107387135 -2.1623762376237625
    endloop
  endfacet
  facet normal 0.9822872507286886 -0.18738131458572468 0
    outer loop
      vertex 3.9684588052579115 -0.5013329342572163 -3.9
      vertex 3.9684588052579115 -0.5013329342572163 -2.1623762376237625
      vertex 3.8743326445145247 -0.9947595486594177 -2.1623762376237625
    endloop
  endfacet
  facet normal 0.9980267284282716 -0.06279051952931311 0
    outer loop
      vertex 4 0 -3.9
      vertex 4 0 -2.1623762376237625
      vertex 3.9684588052579115 -0.5013329342572163 -2.1623762376237625
    endloop
  endfacet
  facet normal 0 0 -1
    outer loop
      vertex 0.7495252583428983 3.929149002914755 -3.9
      vertex 0.5387212794339582 2.82407584584498 -3.9
      vertex 0.18052274364677542 2.869326844231281 -3.9
    endloop
  endfacet
  facet normal 0 0 -1
    outer loop
      vertex -0.2511620781172531 3.9921069137130862 -3.9
      vertex 0.2511620781172531 3.9921069137130862 -3.9
      vertex 0.18052274364677542 2.869326844231281 -3.9
    endloop
  endfacet
  facet normal 0 0 -1
    outer loop
      vertex 0.2511620781172531 3.9921069137130862 -3.9
      vertex 0.7495252583428983 3.929149002914755 -3.9
      vertex 0.18052274364677542 2.869326844231281 -3.9
    endloop
  endfacet
  facet normal 0 0 -1
    outer loop
      vertex 1.2360679774997896 3.804226065180614 -3.9
      vertex 0.8884238588279738 2.7342874843485663 -3.9
      vertex 0.5387212794339582 2.82407584584498 -3.9
    endloop
  endfacet
  facet normal 0 0 -1
    outer loop
      vertex 0.7495252583428983 3.929149002914755 -3.9
      vertex 1.2360679774997896 3.804226065180614 -3.9
      vertex 0.5387212794339582 2.82407584584498 -3.9
    endloop
  endfacet
  facet normal 0 0 -1
    outer loop
      vertex 1.7031171662602909 3.619308209864078 -3.9
      vertex 1.5405020355646153 2.427442785818293 -3.9
      vertex 1.224115463249584 2.601377775839806 -3.9
    endloop
  endfacet
  facet normal 0 0 -1
    outer loop
      vertex 2.1433071799159866 3.3773117020080603 -3.9
      vertex 1.832593970527483 2.2152255729803936 -3.9
      vertex 1.5405020355646153 2.427442785818293 -3.9
    endloop
  endfacet
  facet normal 0 0 -1
    outer loop
      vertex 1.2360679774997896 3.804226065180614 -3.9
      vertex 1.224115463249584 2.601377775839806 -3.9
      vertex 0.8884238588279738 2.7342874843485663 -3.9
    endloop
  endfacet
  facet normal 0 0 -1
    outer loop
      vertex 1.2360679774997896 3.804226065180614 -3.9
      vertex 1.7031171662602909 3.619308209864078 -3.9
      vertex 1.224115463249584 2.601377775839806 -3.9
    endloop
  endfacet
  facet normal 0 0 -1
    outer loop
      vertex 1.7031171662602909 3.619308209864078 -3.9
      vertex 2.1433071799159866 3.3773117020080603 -3.9
      vertex 1.5405020355646153 2.427442785818293 -3.9
    endloop
  endfacet
  facet normal 0 1 0
    outer loop
      vertex -0.2511620781172531 3.9921069137130862 -3.9
      vertex 0.2511620781172531 3.9921069137130862 -2.1623762376237625
      vertex 0.2511620781172531 3.9921069137130862 -3.9
    endloop
  endfacet
  facet normal 0.12533323356430384 0.9921147013144778 -7.949694450629007e-18
    outer loop
      vertex 0.2511620781172531 3.9921069137130862 -3.9
      vertex 0.7495252583428984 3.929149002914755 -2.1623762376237625
      vertex 0.7495252583428983 3.929149002914755 -3.9
    endloop
  endfacet
  facet normal 0.24868988716485535 0.9685831611286311 -3.1798777802516015e-17
    outer loop
      vertex 0.7495252583428983 3.929149002914755 -3.9
      vertex 1.2360679774997898 3.804226065180614 -2.162376237623762
      vertex 1.2360679774997896 3.804226065180614 -3.9
    endloop
  endfacet
  facet normal 0.48175367410171505 0.8763066800438638 0
    outer loop
      vertex 1.7031171662602909 3.619308209864078 -3.9
      vertex 2.1433071799159866 3.3773117020080603 -2.1623762376237625
      vertex 2.1433071799159866 3.3773117020080603 -3.9
    endloop
  endfacet
  facet normal 0.36812455268467775 0.9297764858882513 -4.769816670377401e-17
    outer loop
      vertex 1.2360679774997896 3.804226065180614 -3.9
      vertex 1.703117166260291 3.619308209864078 -2.1623762376237625
      vertex 1.7031171662602909 3.619308209864078 -3.9
    endloop
  endfacet
  facet normal 0 0 -1
    outer loop
      vertex 2.9158745096856467 -2.738188423714754 -3.9
      vertex 2.875 0 -3.9
      vertex 2.915874509685646 2.738188423714755 -3.9
    endloop
  endfacet
  facet normal 0 0 -1
    outer loop
      vertex 2.915874509685646 2.738188423714755 -3.9
      vertex 2.875 0 -3.9
      vertex 2.852329766279124 0.36033304649737474 -3.9
    endloop
  endfacet
  facet normal 0 0 -1
    outer loop
      vertex 2.915874509685646 2.738188423714755 -3.9
      vertex 2.852329766279124 0.36033304649737474 -3.9
      vertex 2.7846765882448143 0.7149834255989576 -3.9
    endloop
  endfacet
  facet normal 0 0 -1
    outer loop
      vertex 2.915874509685646 2.738188423714755 -3.9
      vertex 2.6731073969287227 1.0583580889684492 -3.9
      vertex 2.519381705126108 1.3850418130424316 -3.9
    endloop
  endfacet
  facet normal 0 0 -1
    outer loop
      vertex 2.915874509685646 2.738188423714755 -3.9
      vertex 2.7846765882448143 0.7149834255989576 -3.9
      vertex 2.6731073969287227 1.0583580889684492 -3.9
    endloop
  endfacet
  facet normal 0 0 -1
    outer loop
      vertex 2.9158745096856467 -2.738188423714754 -3.9
      vertex 2.915874509685646 2.738188423714755 -3.9
      vertex 3.23606797749979 2.3511410091698925 -3.9
    endloop
  endfacet
  facet normal 0 0 -1
    outer loop
      vertex 3.23606797749979 -2.3511410091698925 -3.9
      vertex 3.23606797749979 2.3511410091698925 -3.9
      vertex 3.5052267201754543 1.9270146964068613 -3.9
    endloop
  endfacet
  facet normal 0 0 -1
    outer loop
      vertex 3.505226720175454 -1.9270146964068615 -3.9
      vertex 3.5052267201754543 1.9270146964068613 -3.9
      vertex 3.7191059435530054 1.472498210738712 -3.9
    endloop
  endfacet
  facet normal 0 0 -1
    outer loop
      vertex 3.9684588052579115 -0.5013329342572163 -3.9
      vertex 3.9684588052579115 0.501332934257217 -3.9
      vertex 4 0 -3.9
    endloop
  endfacet
  facet normal 0 0 -1
    outer loop
      vertex 3.8743326445145247 -0.9947595486594177 -3.9
      vertex 3.8743326445145243 0.9947595486594192 -3.9
      vertex 3.9684588052579115 0.501332934257217 -3.9
    endloop
  endfacet
  facet normal 0 0 -1
    outer loop
      vertex 3.719105943553005 -1.4724982107387135 -3.9
      vertex 3.7191059435530054 1.472498210738712 -3.9
      vertex 3.8743326445145243 0.9947595486594192 -3.9
    endloop
  endfacet
  facet normal 0.9980267284282716 0.06279051952931301 0
    outer loop
      vertex 4 0 -3.9
      vertex 3.9684588052579115 0.501332934257217 -3.9
      vertex 4 0 -2.1623762376237625
    endloop
  endfacet
  facet normal 0.9822872507286885 0.18738131458572532 0
    outer loop
      vertex 3.9684588052579115 0.501332934257217 -3.9
      vertex 3.8743326445145243 0.9947595486594192 -3.9
      vertex 3.9684588052579115 0.501332934257217 -2.1623762376237625
    endloop
  endfacet
  facet normal 0.9510565162951535 0.3090169943749475 0
    outer loop
      vertex 3.8743326445145243 0.9947595486594192 -3.9
      vertex 3.7191059435530054 1.472498210738712 -3.9
      vertex 3.8743326445145243 0.9947595486594192 -2.1623762376237625
    endloop
  endfacet
  facet normal 0.9048270524660197 0.4257792915650722 0
    outer loop
      vertex 3.7191059435530054 1.472498210738712 -3.9
      vertex 3.5052267201754543 1.9270146964068613 -3.9
      vertex 3.7191059435530054 1.472498210738712 -2.1623762376237625
    endloop
  endfacet
  facet normal 0 0 -1
    outer loop
      vertex 2.549695958994759 3.0820529711031566 -3.9
      vertex 2.519381705126108 1.3850418130424316 -3.9
      vertex 2.325923858827974 1.6898826003408602 -3.9
    endloop
  endfacet
  facet normal 0 0 -1
    outer loop
      vertex 2.549695958994759 3.0820529711031566 -3.9
      vertex 2.325923858827974 1.6898826003408602 -3.9
      vertex 2.0957848038365583 1.9680729295449801 -3.9
    endloop
  endfacet
  facet normal 0 0 -1
    outer loop
      vertex 2.1433071799159866 3.3773117020080603 -3.9
      vertex 2.0957848038365583 1.9680729295449801 -3.9
      vertex 1.832593970527483 2.2152255729803936 -3.9
    endloop
  endfacet
  facet normal 0 0 -1
    outer loop
      vertex 2.1433071799159866 3.3773117020080603 -3.9
      vertex 2.549695958994759 3.0820529711031566 -3.9
      vertex 2.0957848038365583 1.9680729295449801 -3.9
    endloop
  endfacet
  facet normal 0 0 -1
    outer loop
      vertex 2.915874509685646 2.738188423714755 -3.9
      vertex 2.519381705126108 1.3850418130424316 -3.9
      vertex 2.549695958994759 3.0820529711031566 -3.9
    endloop
  endfacet
  facet normal 0.6845471059286882 0.7289686274214121 0
    outer loop
      vertex 2.915874509685646 2.738188423714755 -3.9
      vertex 2.549695958994759 3.0820529711031566 -3.9
      vertex 2.915874509685646 2.738188423714755 -2.1623762376237625
    endloop
  endfacet
  facet normal 0.5877852522924736 0.8090169943749471 0
    outer loop
      vertex 2.1433071799159866 3.3773117020080603 -3.9
      vertex 2.549695958994759 3.0820529711031566 -2.162376237623763
      vertex 2.549695958994759 3.0820529711031566 -3.9
    endloop
  endfacet
  facet normal 0.7705132427757894 0.6374239897486895 0
    outer loop
      vertex 2.915874509685646 2.738188423714755 -3.9
      vertex 3.23606797749979 2.3511410091698925 -2.162376237623763
      vertex 3.23606797749979 2.3511410091698925 -3.9
    endloop
  endfacet
  facet normal 0.8443279255020151 0.5358267949789965 0
    outer loop
      vertex 3.5052267201754543 1.9270146964068613 -3.9
      vertex 3.23606797749979 2.3511410091698925 -3.9
      vertex 3.5052267201754543 1.9270146964068613 -2.1623762376237625
    endloop
  endfacet
  facet normal 0.12533323356430384 0.9921147013144779 0
    outer loop
      vertex 0.2511620781172531 3.9921069137130862 -3.9
      vertex 0.2511620781172531 3.9921069137130862 -2.1623762376237625
      vertex 0.7495252583428984 3.929149002914755 -2.1623762376237625
    endloop
  endfacet
  facet normal 0.24868988716485532 0.9685831611286311 -1.5889586957781946e-17
    outer loop
      vertex 0.7495252583428983 3.929149002914755 -3.9
      vertex 0.7495252583428984 3.929149002914755 -2.1623762376237625
      vertex 1.2360679774997898 3.804226065180614 -2.162376237623762
    endloop
  endfacet
  facet normal 0.36812455268467786 0.9297764858882515 -4.7041294343426715e-17
    outer loop
      vertex 1.2360679774997896 3.804226065180614 -3.9
      vertex 1.2360679774997898 3.804226065180614 -2.162376237623762
      vertex 1.703117166260291 3.619308209864078 -2.1623762376237625
    endloop
  endfacet
  facet normal 0.48175367410171516 0.8763066800438636 -6.156154545838669e-17
    outer loop
      vertex 1.7031171662602909 3.619308209864078 -3.9
      vertex 1.703117166260291 3.619308209864078 -2.1623762376237625
      vertex 2.1433071799159866 3.3773117020080603 -2.1623762376237625
    endloop
  endfacet
  facet normal 0.9980267284282716 0.06279051952931301 0
    outer loop
      vertex 3.9684588052579115 0.501332934257217 -3.9
      vertex 3.9684588052579115 0.501332934257217 -2.1623762376237625
      vertex 4 0 -2.1623762376237625
    endloop
  endfacet
  facet normal 0.9822872507286885 0.18738131458572532 0
    outer loop
      vertex 3.8743326445145243 0.9947595486594192 -3.9
      vertex 3.8743326445145243 0.9947595486594192 -2.1623762376237625
      vertex 3.9684588052579115 0.501332934257217 -2.1623762376237625
    endloop
  endfacet
  facet normal 0.9510565162951535 0.3090169943749475 0
    outer loop
      vertex 3.7191059435530054 1.472498210738712 -3.9
      vertex 3.7191059435530054 1.472498210738712 -2.1623762376237625
      vertex 3.8743326445145243 0.9947595486594192 -2.1623762376237625
    endloop
  endfacet
  facet normal 0.9048270524660197 0.4257792915650722 0
    outer loop
      vertex 3.5052267201754543 1.9270146964068613 -3.9
      vertex 3.5052267201754543 1.9270146964068613 -2.1623762376237625
      vertex 3.7191059435530054 1.472498210738712 -2.1623762376237625
    endloop
  endfacet
  facet normal 0.6845471059286881 0.7289686274214121 0
    outer loop
      vertex 2.549695958994759 3.0820529711031566 -3.9
      vertex 2.549695958994759 3.0820529711031566 -2.162376237623763
      vertex 2.915874509685646 2.738188423714755 -2.1623762376237625
    endloop
  endfacet
  facet normal 0.5877852522924736 0.8090169943749471 0
    outer loop
      vertex 2.1433071799159866 3.3773117020080603 -3.9
      vertex 2.1433071799159866 3.3773117020080603 -2.1623762376237625
      vertex 2.549695958994759 3.0820529711031566 -2.162376237623763
    endloop
  endfacet
  facet normal 0.8443279255020151 0.5358267949789965 0
    outer loop
      vertex 3.23606797749979 2.3511410091698925 -3.9
      vertex 3.23606797749979 2.3511410091698925 -2.162376237623763
      vertex 3.5052267201754543 1.9270146964068613 -2.1623762376237625
    endloop
  endfacet
  facet normal 0.7705132427757893 0.6374239897486894 0
    outer loop
      vertex 2.915874509685646 2.738188423714755 -3.9
      vertex 2.915874509685646 2.738188423714755 -2.1623762376237625
      vertex 3.23606797749979 2.3511410091698925 -2.162376237623763
    endloop
  endfacet
endsolid OpenSCAD_Model
