solid OpenSCAD_Model
  facet normal -0.8443279255020153 -0.5358267949789963 0
    outer loop
      vertex -18.202882373436317 -13.225168176580645 -3
      vertex -19.71690030098693 -10.839457667288595 0
      vertex -19.71690030098693 -10.839457667288595 -3
    endloop
  endfacet
  facet normal -0.770513242775789 -0.6374239897486899 0
    outer loop
      vertex -18.202882373436317 -13.225168176580645 -3
      vertex -16.401794116981762 -15.40230988339549 -3
      vertex -18.202882373436317 -13.225168176580645 0
    endloop
  endfacet
  facet normal -0.5877852522924731 -0.8090169943749473 0
    outer loop
      vertex -14.342039769345517 -17.33654796245526 -3
      vertex -12.056102887027427 -18.99737832379534 -3
      vertex -12.056102887027427 -18.99737832379534 0
    endloop
  endfacet
  facet normal -0.6845471059286893 -0.7289686274214111 0
    outer loop
      vertex -14.342039769345517 -17.33654796245526 -3
      vertex -14.342039769345517 -17.33654796245526 0
      vertex -16.401794116981762 -15.40230988339549 -3
    endloop
  endfacet
  facet normal 0 0 -1
    outer loop
      vertex -20.919970932485658 -8.282802435405252 -3
      vertex -21.7931211253942 -5.595522461209234 -3
      vertex -20.919970932485658 8.282802435405252 -3
    endloop
  endfacet
  facet normal 0 0 -1
    outer loop
      vertex -21.7931211253942 -5.595522461209234 -3
      vertex -22.322580779575752 -2.8199977551968414 -3
      vertex -21.7931211253942 5.595522461209234 -3
    endloop
  endfacet
  facet normal 0 0 -1
    outer loop
      vertex -19.71690030098693 -10.839457667288595 -3
      vertex -20.919970932485658 -8.282802435405252 -3
      vertex -19.71690030098693 10.839457667288595 -3
    endloop
  endfacet
  facet normal 0 0 -1
    outer loop
      vertex -18.202882373436317 -13.225168176580645 -3
      vertex -19.71690030098693 -10.839457667288595 -3
      vertex -18.202882373436317 13.225168176580645 -3
    endloop
  endfacet
  facet normal 0 0 -1
    outer loop
      vertex -18.202882373436317 -13.225168176580645 -3
      vertex -16.401794116981762 15.40230988339549 -3
      vertex -16.401794116981762 -15.40230988339549 -3
    endloop
  endfacet
  facet normal 0 0 -1
    outer loop
      vertex -14.342039769345517 -17.33654796245526 -3
      vertex -12.056102887027427 18.99737832379534 -3
      vertex -12.056102887027427 -18.99737832379534 -3
    endloop
  endfacet
  facet normal 0 0 -1
    outer loop
      vertex -14.342039769345517 -17.33654796245526 -3
      vertex -16.401794116981762 -15.40230988339549 -3
      vertex -14.342039769345517 17.33654796245526 -3
    endloop
  endfacet
  facet normal -0.9048270524660195 -0.4257792915650731 0
    outer loop
      vertex -19.71690030098693 -10.839457667288595 -3
      vertex -20.919970932485658 -8.282802435405252 0
      vertex -20.919970932485658 -8.282802435405252 -3
    endloop
  endfacet
  facet normal -0.9510565162951534 -0.3090169943749477 0
    outer loop
      vertex -20.919970932485658 -8.282802435405252 -3
      vertex -21.7931211253942 -5.595522461209234 0
      vertex -21.7931211253942 -5.595522461209234 -3
    endloop
  endfacet
  facet normal -0.9822872507286886 -0.18738131458572416 0
    outer loop
      vertex -21.7931211253942 -5.595522461209234 -3
      vertex -22.322580779575752 -2.8199977551968414 0
      vertex -22.322580779575752 -2.8199977551968414 -3
    endloop
  endfacet
  facet normal -0.9980267284282716 -0.06279051952931325 0
    outer loop
      vertex -22.322580779575752 -2.8199977551968414 -3
      vertex -22.5 0 0
      vertex -22.5 0 -3
    endloop
  endfacet
  facet normal 0 0 -1
    outer loop
      vertex -4.2160795781788085 -22.101463141395495 -3
      vertex -1.0684856843964528 -3.2884608005743963 -3
      vertex -1.4127866894095598 -22.45560138963611 -3
    endloop
  endfacet
  facet normal -0.48175367410171427 -0.8763066800438641 0
    outer loop
      vertex -12.056102887027427 -18.99737832379534 -3
      vertex -9.58003406021413 -20.35860868048544 -3
      vertex -9.58003406021413 -20.35860868048544 0
    endloop
  endfacet
  facet normal -0.3681245526846779 -0.9297764858882513 0
    outer loop
      vertex -9.58003406021413 -20.35860868048544 -3
      vertex -6.952882373436316 -21.398771616640953 -3
      vertex -6.952882373436316 -21.398771616640953 0
    endloop
  endfacet
  facet normal -0.2486898871648558 -0.9685831611286309 0
    outer loop
      vertex -6.952882373436316 -21.398771616640953 -3
      vertex -4.2160795781788085 -22.101463141395495 -3
      vertex -4.2160795781788085 -22.101463141395495 0
    endloop
  endfacet
  facet normal -0.12533323356430498 -0.9921147013144778 0
    outer loop
      vertex -4.2160795781788085 -22.101463141395495 -3
      vertex -1.4127866894095598 -22.45560138963611 -3
      vertex -1.4127866894095598 -22.45560138963611 0
    endloop
  endfacet
  facet normal 0 0 -1
    outer loop
      vertex -12.056102887027427 -18.99737832379534 -3
      vertex -9.580034060214135 20.35860868048544 -3
      vertex -9.58003406021413 -20.35860868048544 -3
    endloop
  endfacet
  facet normal 0 0 -1
    outer loop
      vertex -9.58003406021413 -20.35860868048544 -3
      vertex -6.952882373436316 21.398771616640953 -3
      vertex -6.952882373436316 -21.398771616640953 -3
    endloop
  endfacet
  facet normal 0 0 -1
    outer loop
      vertex -4.2160795781788085 -22.101463141395495 -3
      vertex -2.797331838242607 -2.032380545426667 -3
      vertex -2.520549215584035 -2.366953262422658 -3
    endloop
  endfacet
  facet normal 0 0 -1
    outer loop
      vertex -4.2160795781788085 -22.101463141395495 -3
      vertex -3.029998866767051 -1.6657559731440084 -3
      vertex -2.797331838242607 -2.032380545426667 -3
    endloop
  endfacet
  facet normal 0 0 -1
    outer loop
      vertex -4.2160795781788085 -22.101463141395495 -3
      vertex -2.520549215584035 -2.366953262422658 -3
      vertex -2.2040160260925843 -2.6641977125209024 -3
    endloop
  endfacet
  facet normal 0 0 -1
    outer loop
      vertex -6.952882373436316 -21.398771616640953 -3
      vertex -4.216079578178803 22.101463141395495 -3
      vertex -4.2160795781788085 -22.101463141395495 -3
    endloop
  endfacet
  facet normal 0 0 -1
    outer loop
      vertex -4.2160795781788085 -22.101463141395495 -3
      vertex -3.3490625455947667 -0.8598931098507866 -3
      vertex -3.2148810031289927 -1.2728614340904825 -3
    endloop
  endfacet
  facet normal 0 0 -1
    outer loop
      vertex -4.2160795781788085 -22.101463141395495 -3
      vertex -3.4304273710835216 -0.4333637575934975 -3
      vertex -3.3490625455947667 -0.8598931098507866 -3
    endloop
  endfacet
  facet normal 0 0 -1
    outer loop
      vertex -4.2160795781788085 -22.101463141395495 -3
      vertex -3.457692307692308 0 -3
      vertex -3.4304273710835216 -0.4333637575934975 -3
    endloop
  endfacet
  facet normal 0 0 -1
    outer loop
      vertex -4.2160795781788085 -22.101463141395495 -3
      vertex -3.2148810031289927 -1.2728614340904825 -3
      vertex -3.029998866767051 -1.6657559731440084 -3
    endloop
  endfacet
  facet normal 0 0 -1
    outer loop
      vertex -4.2160795781788085 -22.101463141395495 -3
      vertex -2.2040160260925843 -2.6641977125209024 -3
      vertex -1.8527241872543003 -2.919426173178121 -3
    endloop
  endfacet
  facet normal 0 0 -1
    outer loop
      vertex -4.2160795781788085 -22.101463141395495 -3
      vertex -1.8527241872543003 -2.919426173178121 -3
      vertex -1.472213781219231 -3.12861353910366 -3
    endloop
  endfacet
  facet normal 0 0 -1
    outer loop
      vertex -4.2160795781788085 -22.101463141395495 -3
      vertex -1.472213781219231 -3.12861353910366 -3
      vertex -1.0684856843964528 -3.2884608005743963 -3
    endloop
  endfacet
  facet normal 0 0 -1
    outer loop
      vertex -1.4127866894095598 -22.45560138963611 -3
      vertex -1.0684856843964528 -3.2884608005743963 -3
      vertex -0.6479069300483331 -3.396447070788812 -3
    endloop
  endfacet
  facet normal 0 0 -1
    outer loop
      vertex -1.4127866894095598 -22.45560138963611 -3
      vertex -0.6479069300483331 -3.396447070788812 -3
      vertex -0.2171102963725118 -3.4508693417577545 -3
    endloop
  endfacet
  facet normal 0 0 -1
    outer loop
      vertex -1.4127866894095598 -22.45560138963611 -3
      vertex -0.2171102963725118 -3.4508693417577545 -3
      vertex 0.2171102963725118 -3.4508693417577545 -3
    endloop
  endfacet
  facet normal -0.770513242775789 -0.6374239897486899 0
    outer loop
      vertex -16.401794116981762 -15.40230988339549 -3
      vertex -16.401794116981762 -15.40230988339549 0
      vertex -18.202882373436317 -13.225168176580645 0
    endloop
  endfacet
  facet normal -0.8443279255020153 -0.5358267949789963 0
    outer loop
      vertex -18.202882373436317 -13.225168176580645 -3
      vertex -18.202882373436317 -13.225168176580645 0
      vertex -19.71690030098693 -10.839457667288595 0
    endloop
  endfacet
  facet normal -0.5877852522924731 -0.8090169943749473 0
    outer loop
      vertex -14.342039769345517 -17.33654796245526 -3
      vertex -12.056102887027427 -18.99737832379534 0
      vertex -14.342039769345517 -17.33654796245526 0
    endloop
  endfacet
  facet normal -0.6845471059286893 -0.7289686274214111 0
    outer loop
      vertex -16.401794116981762 -15.40230988339549 -3
      vertex -14.342039769345517 -17.33654796245526 0
      vertex -16.401794116981762 -15.40230988339549 0
    endloop
  endfacet
  facet normal -0.9048270524660195 -0.4257792915650731 0
    outer loop
      vertex -19.71690030098693 -10.839457667288595 -3
      vertex -19.71690030098693 -10.839457667288595 0
      vertex -20.919970932485658 -8.282802435405252 0
    endloop
  endfacet
  facet normal -0.9510565162951534 -0.3090169943749477 0
    outer loop
      vertex -20.919970932485658 -8.282802435405252 -3
      vertex -20.919970932485658 -8.282802435405252 0
      vertex -21.7931211253942 -5.595522461209234 0
    endloop
  endfacet
  facet normal -0.9822872507286886 -0.18738131458572416 0
    outer loop
      vertex -21.7931211253942 -5.595522461209234 -3
      vertex -21.7931211253942 -5.595522461209234 0
      vertex -22.322580779575752 -2.8199977551968414 0
    endloop
  endfacet
  facet normal -0.9980267284282716 -0.06279051952931325 0
    outer loop
      vertex -22.322580779575752 -2.8199977551968414 -3
      vertex -22.322580779575752 -2.8199977551968414 0
      vertex -22.5 0 0
    endloop
  endfacet
  facet normal 0 0 1
    outer loop
      vertex -19.71690030098693 -10.839457667288595 0
      vertex -20.919970932485658 8.282802435405252 0
      vertex -20.919970932485658 -8.282802435405252 0
    endloop
  endfacet
  facet normal 0 0 1
    outer loop
      vertex -21.7931211253942 -5.595522461209234 0
      vertex -22.322580779575752 2.8199977551968414 0
      vertex -22.322580779575752 -2.8199977551968414 0
    endloop
  endfacet
  facet normal 0 0 1
    outer loop
      vertex -20.919970932485658 -8.282802435405252 0
      vertex -21.7931211253942 5.595522461209234 0
      vertex -21.7931211253942 -5.595522461209234 0
    endloop
  endfacet
  facet normal 0 0 1
    outer loop
      vertex -18.202882373436317 -13.225168176580645 0
      vertex -19.71690030098693 10.839457667288595 0
      vertex -19.71690030098693 -10.839457667288595 0
    endloop
  endfacet
  facet normal 0 0 1
    outer loop
      vertex -18.202882373436317 -13.225168176580645 0
      vertex -16.401794116981762 -15.40230988339549 0
      vertex -18.202882373436317 13.225168176580645 0
    endloop
  endfacet
  facet normal 0 0 1
    outer loop
      vertex -14.342039769345517 -17.33654796245526 0
      vertex -16.401794116981762 15.40230988339549 0
      vertex -16.401794116981762 -15.40230988339549 0
    endloop
  endfacet
  facet normal 0 0 1
    outer loop
      vertex -14.342039769345517 -17.33654796245526 0
      vertex -12.056102887027427 -18.99737832379534 0
      vertex -14.342039769345517 17.33654796245526 0
    endloop
  endfacet
  facet normal -0.3681245526846779 -0.9297764858882513 0
    outer loop
      vertex -9.58003406021413 -20.35860868048544 -3
      vertex -6.952882373436316 -21.398771616640953 0
      vertex -9.58003406021413 -20.35860868048544 0
    endloop
  endfacet
  facet normal -0.48175367410171427 -0.8763066800438641 0
    outer loop
      vertex -12.056102887027427 -18.99737832379534 -3
      vertex -9.58003406021413 -20.35860868048544 0
      vertex -12.056102887027427 -18.99737832379534 0
    endloop
  endfacet
  facet normal -0.2486898871648558 -0.9685831611286309 0
    outer loop
      vertex -6.952882373436316 -21.398771616640953 -3
      vertex -4.2160795781788085 -22.101463141395495 0
      vertex -6.952882373436316 -21.398771616640953 0
    endloop
  endfacet
  facet normal -0.12533323356430498 -0.9921147013144778 0
    outer loop
      vertex -4.2160795781788085 -22.101463141395495 -3
      vertex -1.4127866894095598 -22.45560138963611 0
      vertex -4.2160795781788085 -22.101463141395495 0
    endloop
  endfacet
  facet normal 0 -1 0
    outer loop
      vertex -1.4127866894095598 -22.45560138963611 -3
      vertex 1.4127866894095598 -22.45560138963611 0
      vertex -1.4127866894095598 -22.45560138963611 0
    endloop
  endfacet
  facet normal 0 0 1
    outer loop
      vertex -4.2160795781788085 -22.101463141395495 0
      vertex -1.4127866894095598 -22.45560138963611 0
      vertex -2.8934646928865826 -4.559370797710881 0
    endloop
  endfacet
  facet normal 0 0 1
    outer loop
      vertex -12.056102887027427 -18.99737832379534 0
      vertex -9.58003406021413 -20.35860868048544 0
      vertex -12.056102887027427 18.99737832379534 0
    endloop
  endfacet
  facet normal 0 0 1
    outer loop
      vertex -9.58003406021413 -20.35860868048544 0
      vertex -6.952882373436316 -21.398771616640953 0
      vertex -9.580034060214135 20.35860868048544 0
    endloop
  endfacet
  facet normal 0 0 1
    outer loop
      vertex -6.952882373436316 -21.398771616640953 0
      vertex -4.2160795781788085 -22.101463141395495 0
      vertex -6.952882373436316 21.398771616640953 0
    endloop
  endfacet
  facet normal 0 0 1
    outer loop
      vertex -4.2160795781788085 -22.101463141395495 0
      vertex -4.368691769624717 -3.174040362379355 0
      vertex -4.732056072236863 -2.6014698401492633 0
    endloop
  endfacet
  facet normal 0 0 1
    outer loop
      vertex -4.2160795781788085 -22.101463141395495 0
      vertex -4.732056072236863 -2.6014698401492633 0
      vertex -5.020793023796558 -1.9878725844972607 0
    endloop
  endfacet
  facet normal 0 0 1
    outer loop
      vertex -4.2160795781788085 -22.101463141395495 0
      vertex -5.020793023796558 -1.9878725844972607 0
      vertex -5.230349070094608 -1.3429253906902163 0
    endloop
  endfacet
  facet normal 0 0 1
    outer loop
      vertex -4.2160795781788085 -22.101463141395495 0
      vertex -2.8934646928865826 -4.559370797710881 0
      vertex -3.4420895446429243 -4.160771510989263 0
    endloop
  endfacet
  facet normal 0 0 1
    outer loop
      vertex -4.2160795781788085 -22.101463141395495 0
      vertex -3.4420895446429243 -4.160771510989263 0
      vertex -3.9364305880756234 -3.6965543720149183 0
    endloop
  endfacet
  facet normal 0 0 1
    outer loop
      vertex -4.2160795781788085 -22.101463141395495 0
      vertex -3.9364305880756234 -3.6965543720149183 0
      vertex -4.368691769624717 -3.174040362379355 0
    endloop
  endfacet
  facet normal 0 0 1
    outer loop
      vertex -4.2160795781788085 -22.101463141395495 0
      vertex -5.230349070094608 -1.3429253906902163 0
      vertex -5.357419387098181 -0.676799461247242 0
    endloop
  endfacet
  facet normal 0 0 1
    outer loop
      vertex -1.4127866894095598 -22.45560138963611 0
      vertex -2.2992081744513913 -4.886066083316506 0
      vertex -2.8934646928865826 -4.559370797710881 0
    endloop
  endfacet
  facet normal 0 0 1
    outer loop
      vertex -1.4127866894095598 -22.45560138963611 0
      vertex -1.668691769624716 -5.135705187993829 0
      vertex -2.2992081744513913 -4.886066083316506 0
    endloop
  endfacet
  facet normal 0 0 1
    outer loop
      vertex -1.4127866894095598 -22.45560138963611 0
      vertex -1.0118590987629141 -5.304351153934919 0
      vertex -1.668691769624716 -5.135705187993829 0
    endloop
  endfacet
  facet normal 0 0 1
    outer loop
      vertex -1.4127866894095598 -22.45560138963611 0
      vertex -0.3390688054582943 -5.389344333512667 0
      vertex -1.0118590987629141 -5.304351153934919 0
    endloop
  endfacet
  facet normal 0 0 1
    outer loop
      vertex -1.4127866894095598 -22.45560138963611 0
      vertex 0.3390688054582943 -5.389344333512667 0
      vertex -0.3390688054582943 -5.389344333512667 0
    endloop
  endfacet
  facet normal 0 0 1
    outer loop
      vertex -4.2160795781788085 -22.101463141395495 0
      vertex -5.357419387098181 -0.676799461247242 0
      vertex -6.952882373436316 21.398771616640953 0
    endloop
  endfacet
  facet normal 0 0 -1
    outer loop
      vertex -22.322580779575752 -2.8199977551968414 -3
      vertex -22.5 0 -3
      vertex -22.322580779575752 2.8199977551968414 -3
    endloop
  endfacet
  facet normal 0 0 -1
    outer loop
      vertex -22.322580779575752 -2.8199977551968414 -3
      vertex -22.322580779575752 2.8199977551968414 -3
      vertex -21.7931211253942 5.595522461209234 -3
    endloop
  endfacet
  facet normal 0 0 -1
    outer loop
      vertex -21.7931211253942 -5.595522461209234 -3
      vertex -21.7931211253942 5.595522461209234 -3
      vertex -20.919970932485658 8.282802435405252 -3
    endloop
  endfacet
  facet normal 0 0 -1
    outer loop
      vertex -20.919970932485658 -8.282802435405252 -3
      vertex -20.919970932485658 8.282802435405252 -3
      vertex -19.71690030098693 10.839457667288595 -3
    endloop
  endfacet
  facet normal 0 0 -1
    outer loop
      vertex -19.71690030098693 -10.839457667288595 -3
      vertex -19.71690030098693 10.839457667288595 -3
      vertex -18.202882373436317 13.225168176580645 -3
    endloop
  endfacet
  facet normal 0 0 -1
    outer loop
      vertex -18.202882373436317 -13.225168176580645 -3
      vertex -18.202882373436317 13.225168176580645 -3
      vertex -16.401794116981762 15.40230988339549 -3
    endloop
  endfacet
  facet normal 0 0 -1
    outer loop
      vertex -16.401794116981762 -15.40230988339549 -3
      vertex -16.401794116981762 15.40230988339549 -3
      vertex -14.342039769345517 17.33654796245526 -3
    endloop
  endfacet
  facet normal 0 0 -1
    outer loop
      vertex -14.342039769345517 -17.33654796245526 -3
      vertex -14.342039769345517 17.33654796245526 -3
      vertex -12.056102887027427 18.99737832379534 -3
    endloop
  endfacet
  facet normal -0.9980267284282716 0.06279051952931325 0
    outer loop
      vertex -22.5 0 -3
      vertex -22.322580779575752 2.8199977551968414 0
      vertex -22.322580779575752 2.8199977551968414 -3
    endloop
  endfacet
  facet normal -0.9822872507286886 0.18738131458572416 0
    outer loop
      vertex -22.322580779575752 2.8199977551968414 -3
      vertex -21.7931211253942 5.595522461209234 0
      vertex -21.7931211253942 5.595522461209234 -3
    endloop
  endfacet
  facet normal -0.9510565162951534 0.3090169943749477 0
    outer loop
      vertex -21.7931211253942 5.595522461209234 -3
      vertex -20.919970932485658 8.282802435405252 0
      vertex -20.919970932485658 8.282802435405252 -3
    endloop
  endfacet
  facet normal -0.9048270524660195 0.4257792915650731 0
    outer loop
      vertex -20.919970932485658 8.282802435405252 -3
      vertex -19.71690030098693 10.839457667288595 0
      vertex -19.71690030098693 10.839457667288595 -3
    endloop
  endfacet
  facet normal -0.8443279255020153 0.5358267949789963 0
    outer loop
      vertex -19.71690030098693 10.839457667288595 -3
      vertex -18.202882373436317 13.225168176580645 0
      vertex -18.202882373436317 13.225168176580645 -3
    endloop
  endfacet
  facet normal -0.770513242775789 0.6374239897486899 0
    outer loop
      vertex -18.202882373436317 13.225168176580645 -3
      vertex -16.401794116981762 15.40230988339549 0
      vertex -16.401794116981762 15.40230988339549 -3
    endloop
  endfacet
  facet normal -0.6845471059286893 0.7289686274214111 0
    outer loop
      vertex -16.401794116981762 15.40230988339549 -3
      vertex -16.401794116981762 15.40230988339549 0
      vertex -14.342039769345517 17.33654796245526 -3
    endloop
  endfacet
  facet normal -0.5877852522924731 0.8090169943749473 0
    outer loop
      vertex -14.342039769345517 17.33654796245526 -3
      vertex -14.342039769345517 17.33654796245526 0
      vertex -12.056102887027427 18.99737832379534 -3
    endloop
  endfacet
  facet normal 0 0 -1
    outer loop
      vertex -12.056102887027427 -18.99737832379534 -3
      vertex -12.056102887027427 18.99737832379534 -3
      vertex -9.580034060214135 20.35860868048544 -3
    endloop
  endfacet
  facet normal 0 0 -1
    outer loop
      vertex -9.58003406021413 -20.35860868048544 -3
      vertex -9.580034060214135 20.35860868048544 -3
      vertex -6.952882373436316 21.398771616640953 -3
    endloop
  endfacet
  facet normal 0 0 -1
    outer loop
      vertex -6.952882373436316 -21.398771616640953 -3
      vertex -6.952882373436316 21.398771616640953 -3
      vertex -4.216079578178803 22.101463141395495 -3
    endloop
  endfacet
  facet normal 0 0 -1
    outer loop
      vertex -4.2160795781788085 -22.101463141395495 -3
      vertex -4.216079578178803 22.101463141395495 -3
      vertex -3.457692307692308 0 -3
    endloop
  endfacet
  facet normal 0 0 -1
    outer loop
      vertex -4.216079578178803 22.101463141395495 -3
      vertex -3.4304273710835216 0.4333637575934975 -3
      vertex -3.457692307692308 0 -3
    endloop
  endfacet
  facet normal 0 0 -1
    outer loop
      vertex -4.216079578178803 22.101463141395495 -3
      vertex -3.3490625455947667 0.8598931098507866 -3
      vertex -3.4304273710835216 0.4333637575934975 -3
    endloop
  endfacet
  facet normal 0 0 -1
    outer loop
      vertex -4.216079578178803 22.101463141395495 -3
      vertex -3.2148810031289927 1.2728614340904822 -3
      vertex -3.3490625455947667 0.8598931098507866 -3
    endloop
  endfacet
  facet normal 0 0 -1
    outer loop
      vertex -4.216079578178803 22.101463141395495 -3
      vertex -3.029998866767051 1.6657559731440084 -3
      vertex -3.2148810031289927 1.2728614340904822 -3
    endloop
  endfacet
  facet normal 0 0 -1
    outer loop
      vertex -4.216079578178803 22.101463141395495 -3
      vertex -2.797331838242607 2.0323805454266664 -3
      vertex -3.029998866767051 1.6657559731440084 -3
    endloop
  endfacet
  facet normal 0 0 -1
    outer loop
      vertex -1.4127866894095487 22.45560138963611 -3
      vertex -2.5205492155840354 2.366953262422658 -3
      vertex -2.797331838242607 2.0323805454266664 -3
    endloop
  endfacet
  facet normal 0 0 -1
    outer loop
      vertex -1.4127866894095487 22.45560138963611 -3
      vertex -2.2040160260925847 2.6641977125209024 -3
      vertex -2.5205492155840354 2.366953262422658 -3
    endloop
  endfacet
  facet normal 0 0 -1
    outer loop
      vertex -1.4127866894095487 22.45560138963611 -3
      vertex -1.8527241872543003 2.919426173178121 -3
      vertex -2.2040160260925847 2.6641977125209024 -3
    endloop
  endfacet
  facet normal 0 0 -1
    outer loop
      vertex -1.4127866894095487 22.45560138963611 -3
      vertex -1.4722137812192324 3.1286135391036596 -3
      vertex -1.8527241872543003 2.919426173178121 -3
    endloop
  endfacet
  facet normal 0 0 -1
    outer loop
      vertex -1.4127866894095487 22.45560138963611 -3
      vertex -1.0684856843964528 3.2884608005743963 -3
      vertex -1.4722137812192324 3.1286135391036596 -3
    endloop
  endfacet
  facet normal 0 0 -1
    outer loop
      vertex -1.4127866894095487 22.45560138963611 -3
      vertex -0.6479069300483323 3.3964470707888124 -3
      vertex -1.0684856843964528 3.2884608005743963 -3
    endloop
  endfacet
  facet normal 0 0 -1
    outer loop
      vertex -1.4127866894095487 22.45560138963611 -3
      vertex -0.21711029637251014 3.4508693417577545 -3
      vertex -0.6479069300483323 3.3964470707888124 -3
    endloop
  endfacet
  facet normal 0 0 -1
    outer loop
      vertex -4.216079578178803 22.101463141395495 -3
      vertex -1.4127866894095487 22.45560138963611 -3
      vertex -2.797331838242607 2.0323805454266664 -3
    endloop
  endfacet
  facet normal 0 0 -1
    outer loop
      vertex -1.4127866894095487 22.45560138963611 -3
      vertex 1.4127866894095487 22.45560138963611 -3
      vertex -0.21711029637251014 3.4508693417577545 -3
    endloop
  endfacet
  facet normal -0.4817536741017151 0.8763066800438637 0
    outer loop
      vertex -12.056102887027427 18.99737832379534 -3
      vertex -12.056102887027427 18.99737832379534 0
      vertex -9.580034060214135 20.35860868048544 -3
    endloop
  endfacet
  facet normal -0.3681245526846773 0.9297764858882517 0
    outer loop
      vertex -9.580034060214135 20.35860868048544 -3
      vertex -9.580034060214135 20.35860868048544 0
      vertex -6.952882373436316 21.398771616640953 -3
    endloop
  endfacet
  facet normal -0.24868988716485538 0.9685831611286309 0
    outer loop
      vertex -6.952882373436316 21.398771616640953 -3
      vertex -6.952882373436316 21.398771616640953 0
      vertex -4.216079578178803 22.101463141395495 -3
    endloop
  endfacet
  facet normal -0.12533323356430473 0.9921147013144779 0
    outer loop
      vertex -4.216079578178803 22.101463141395495 -3
      vertex -4.216079578178803 22.101463141395495 0
      vertex -1.4127866894095487 22.45560138963611 -3
    endloop
  endfacet
  facet normal 0 1 0
    outer loop
      vertex -1.4127866894095487 22.45560138963611 -3
      vertex -1.4127866894095487 22.45560138963611 0
      vertex 1.4127866894095487 22.45560138963611 -3
    endloop
  endfacet
  facet normal -0.9980267284282716 0.06279051952931325 0
    outer loop
      vertex -22.5 0 -3
      vertex -22.5 0 0
      vertex -22.322580779575752 2.8199977551968414 0
    endloop
  endfacet
  facet normal -0.9822872507286886 0.18738131458572416 0
    outer loop
      vertex -22.322580779575752 2.8199977551968414 -3
      vertex -22.322580779575752 2.8199977551968414 0
      vertex -21.7931211253942 5.595522461209234 0
    endloop
  endfacet
  facet normal -0.9510565162951534 0.3090169943749477 0
    outer loop
      vertex -21.7931211253942 5.595522461209234 -3
      vertex -21.7931211253942 5.595522461209234 0
      vertex -20.919970932485658 8.282802435405252 0
    endloop
  endfacet
  facet normal -0.9048270524660195 0.4257792915650731 0
    outer loop
      vertex -20.919970932485658 8.282802435405252 -3
      vertex -20.919970932485658 8.282802435405252 0
      vertex -19.71690030098693 10.839457667288595 0
    endloop
  endfacet
  facet normal 0 0 1
    outer loop
      vertex -22.322580779575752 -2.8199977551968414 0
      vertex -22.322580779575752 2.8199977551968414 0
      vertex -22.5 0 0
    endloop
  endfacet
  facet normal 0 0 1
    outer loop
      vertex -21.7931211253942 -5.595522461209234 0
      vertex -21.7931211253942 5.595522461209234 0
      vertex -22.322580779575752 2.8199977551968414 0
    endloop
  endfacet
  facet normal 0 0 1
    outer loop
      vertex -20.919970932485658 -8.282802435405252 0
      vertex -20.919970932485658 8.282802435405252 0
      vertex -21.7931211253942 5.595522461209234 0
    endloop
  endfacet
  facet normal 0 0 1
    outer loop
      vertex -19.71690030098693 -10.839457667288595 0
      vertex -19.71690030098693 10.839457667288595 0
      vertex -20.919970932485658 8.282802435405252 0
    endloop
  endfacet
  facet normal 0 0 1
    outer loop
      vertex -18.202882373436317 -13.225168176580645 0
      vertex -18.202882373436317 13.225168176580645 0
      vertex -19.71690030098693 10.839457667288595 0
    endloop
  endfacet
  facet normal 0 0 1
    outer loop
      vertex -16.401794116981762 -15.40230988339549 0
      vertex -16.401794116981762 15.40230988339549 0
      vertex -18.202882373436317 13.225168176580645 0
    endloop
  endfacet
  facet normal 0 0 1
    outer loop
      vertex -14.342039769345517 -17.33654796245526 0
      vertex -14.342039769345517 17.33654796245526 0
      vertex -16.401794116981762 15.40230988339549 0
    endloop
  endfacet
  facet normal 0 0 1
    outer loop
      vertex -12.056102887027427 -18.99737832379534 0
      vertex -12.056102887027427 18.99737832379534 0
      vertex -14.342039769345517 17.33654796245526 0
    endloop
  endfacet
  facet normal -0.8443279255020153 0.5358267949789963 0
    outer loop
      vertex -19.71690030098693 10.839457667288595 -3
      vertex -19.71690030098693 10.839457667288595 0
      vertex -18.202882373436317 13.225168176580645 0
    endloop
  endfacet
  facet normal -0.770513242775789 0.6374239897486899 0
    outer loop
      vertex -18.202882373436317 13.225168176580645 -3
      vertex -18.202882373436317 13.225168176580645 0
      vertex -16.401794116981762 15.40230988339549 0
    endloop
  endfacet
  facet normal -0.6845471059286893 0.7289686274214111 0
    outer loop
      vertex -14.342039769345517 17.33654796245526 -3
      vertex -16.401794116981762 15.40230988339549 0
      vertex -14.342039769345517 17.33654796245526 0
    endloop
  endfacet
  facet normal -0.5877852522924731 0.8090169943749473 0
    outer loop
      vertex -12.056102887027427 18.99737832379534 -3
      vertex -14.342039769345517 17.33654796245526 0
      vertex -12.056102887027427 18.99737832379534 0
    endloop
  endfacet
  facet normal 0 0 1
    outer loop
      vertex -9.58003406021413 -20.35860868048544 0
      vertex -9.580034060214135 20.35860868048544 0
      vertex -12.056102887027427 18.99737832379534 0
    endloop
  endfacet
  facet normal 0 0 1
    outer loop
      vertex -6.952882373436316 -21.398771616640953 0
      vertex -6.952882373436316 21.398771616640953 0
      vertex -9.580034060214135 20.35860868048544 0
    endloop
  endfacet
  facet normal 0 0 1
    outer loop
      vertex -6.952882373436316 21.398771616640953 0
      vertex -5.357419387098181 -0.676799461247242 0
      vertex -5.4 0 0
    endloop
  endfacet
  facet normal 0 0 1
    outer loop
      vertex -6.952882373436316 21.398771616640953 0
      vertex -5.4 0 0
      vertex -5.357419387098181 0.676799461247242 0
    endloop
  endfacet
  facet normal 0 0 1
    outer loop
      vertex -6.952882373436316 21.398771616640953 0
      vertex -5.357419387098181 0.676799461247242 0
      vertex -5.230349070094608 1.3429253906902163 0
    endloop
  endfacet
  facet normal 0 0 1
    outer loop
      vertex -6.952882373436316 21.398771616640953 0
      vertex -5.230349070094608 1.3429253906902163 0
      vertex -5.020793023796558 1.9878725844972607 0
    endloop
  endfacet
  facet normal 0 0 1
    outer loop
      vertex -6.952882373436316 21.398771616640953 0
      vertex -5.020793023796558 1.9878725844972607 0
      vertex -4.732056072236863 2.6014698401492633 0
    endloop
  endfacet
  facet normal 0 0 1
    outer loop
      vertex -6.952882373436316 21.398771616640953 0
      vertex -4.732056072236863 2.6014698401492633 0
      vertex -4.368691769624717 3.174040362379355 0
    endloop
  endfacet
  facet normal 0 0 1
    outer loop
      vertex -6.952882373436316 21.398771616640953 0
      vertex -4.368691769624717 3.174040362379355 0
      vertex -3.9364305880756234 3.6965543720149183 0
    endloop
  endfacet
  facet normal 0 0 1
    outer loop
      vertex -4.216079578178803 22.101463141395495 0
      vertex -3.9364305880756234 3.6965543720149183 0
      vertex -3.4420895446429243 4.160771510989263 0
    endloop
  endfacet
  facet normal 0 0 1
    outer loop
      vertex -4.216079578178803 22.101463141395495 0
      vertex -3.4420895446429243 4.160771510989263 0
      vertex -2.8934646928865826 4.559370797710881 0
    endloop
  endfacet
  facet normal 0 0 1
    outer loop
      vertex -4.216079578178803 22.101463141395495 0
      vertex -2.8934646928865826 4.559370797710881 0
      vertex -2.299208174451393 4.886066083316505 0
    endloop
  endfacet
  facet normal 0 0 1
    outer loop
      vertex -4.216079578178803 22.101463141395495 0
      vertex -2.299208174451393 4.886066083316505 0
      vertex -1.668691769624716 5.135705187993829 0
    endloop
  endfacet
  facet normal 0 0 1
    outer loop
      vertex -4.216079578178803 22.101463141395495 0
      vertex -1.668691769624716 5.135705187993829 0
      vertex -1.0118590987629128 5.3043511539349195 0
    endloop
  endfacet
  facet normal 0 0 1
    outer loop
      vertex -1.4127866894095487 22.45560138963611 0
      vertex -1.0118590987629128 5.3043511539349195 0
      vertex -0.3390688054582874 5.389344333512667 0
    endloop
  endfacet
  facet normal -0.4817536741017151 0.8763066800438637 0
    outer loop
      vertex -12.056102887027427 18.99737832379534 0
      vertex -9.580034060214135 20.35860868048544 0
      vertex -9.580034060214135 20.35860868048544 -3
    endloop
  endfacet
  facet normal -0.3681245526846773 0.9297764858882517 0
    outer loop
      vertex -6.952882373436316 21.398771616640953 -3
      vertex -9.580034060214135 20.35860868048544 0
      vertex -6.952882373436316 21.398771616640953 0
    endloop
  endfacet
  facet normal -0.24868988716485538 0.9685831611286309 0
    outer loop
      vertex -4.216079578178803 22.101463141395495 -3
      vertex -6.952882373436316 21.398771616640953 0
      vertex -4.216079578178803 22.101463141395495 0
    endloop
  endfacet
  facet normal -0.12533323356430473 0.9921147013144779 0
    outer loop
      vertex -1.4127866894095487 22.45560138963611 -3
      vertex -4.216079578178803 22.101463141395495 0
      vertex -1.4127866894095487 22.45560138963611 0
    endloop
  endfacet
  facet normal 0 0 1
    outer loop
      vertex -6.952882373436316 21.398771616640953 0
      vertex -3.9364305880756234 3.6965543720149183 0
      vertex -4.216079578178803 22.101463141395495 0
    endloop
  endfacet
  facet normal 0 0 1
    outer loop
      vertex -4.216079578178803 22.101463141395495 0
      vertex -1.0118590987629128 5.3043511539349195 0
      vertex -1.4127866894095487 22.45560138963611 0
    endloop
  endfacet
  facet normal 0 0 1
    outer loop
      vertex -1.4127866894095487 22.45560138963611 0
      vertex -0.3390688054582874 5.389344333512667 0
      vertex 1.4127866894095487 22.45560138963611 0
    endloop
  endfacet
  facet normal 0 0 -1
    outer loop
      vertex -1.4127866894095598 -22.45560138963611 -3
      vertex 0.2171102963725118 -3.4508693417577545 -3
      vertex 1.4127866894095598 -22.45560138963611 -3
    endloop
  endfacet
  facet normal 0 0 -1
    outer loop
      vertex 1.4127866894095598 -22.45560138963611 -3
      vertex 2.7973318382426067 -2.032380545426667 -3
      vertex 4.2160795781788085 -22.101463141395495 -3
    endloop
  endfacet
  facet normal 0 -1 0
    outer loop
      vertex -1.4127866894095598 -22.45560138963611 -3
      vertex 1.4127866894095598 -22.45560138963611 -3
      vertex 1.4127866894095598 -22.45560138963611 0
    endloop
  endfacet
  facet normal 0.12533323356430498 -0.9921147013144778 0
    outer loop
      vertex 1.4127866894095598 -22.45560138963611 -3
      vertex 4.2160795781788085 -22.101463141395495 -3
      vertex 4.2160795781788085 -22.101463141395495 0
    endloop
  endfacet
  facet normal 0.2486898871648558 -0.9685831611286309 0
    outer loop
      vertex 4.2160795781788085 -22.101463141395495 -3
      vertex 6.952882373436316 -21.398771616640953 -3
      vertex 6.952882373436316 -21.398771616640953 0
    endloop
  endfacet
  facet normal 0.3681245526846779 -0.9297764858882513 0
    outer loop
      vertex 6.952882373436316 -21.398771616640953 -3
      vertex 9.58003406021413 -20.35860868048544 -3
      vertex 9.58003406021413 -20.35860868048544 0
    endloop
  endfacet
  facet normal 0.4817536741017142 -0.8763066800438641 0
    outer loop
      vertex 9.58003406021413 -20.35860868048544 -3
      vertex 12.056102887027414 -18.997378323795346 -3
      vertex 12.056102887027414 -18.997378323795346 0
    endloop
  endfacet
  facet normal 0 0 -1
    outer loop
      vertex 1.4127866894095598 -22.45560138963611 -3
      vertex 0.2171102963725118 -3.4508693417577545 -3
      vertex 0.6479069300483331 -3.396447070788812 -3
    endloop
  endfacet
  facet normal 0 0 -1
    outer loop
      vertex 1.4127866894095598 -22.45560138963611 -3
      vertex 0.6479069300483331 -3.396447070788812 -3
      vertex 1.0684856843964528 -3.2884608005743963 -3
    endloop
  endfacet
  facet normal 0 0 -1
    outer loop
      vertex 1.4127866894095598 -22.45560138963611 -3
      vertex 1.0684856843964528 -3.2884608005743963 -3
      vertex 1.472213781219231 -3.12861353910366 -3
    endloop
  endfacet
  facet normal 0 0 -1
    outer loop
      vertex 1.4127866894095598 -22.45560138963611 -3
      vertex 1.472213781219231 -3.12861353910366 -3
      vertex 1.8527241872542985 -2.919426173178122 -3
    endloop
  endfacet
  facet normal 0 0 -1
    outer loop
      vertex 1.4127866894095598 -22.45560138963611 -3
      vertex 1.8527241872542985 -2.919426173178122 -3
      vertex 2.2040160260925856 -2.6641977125209015 -3
    endloop
  endfacet
  facet normal 0 0 -1
    outer loop
      vertex 1.4127866894095598 -22.45560138963611 -3
      vertex 2.2040160260925856 -2.6641977125209015 -3
      vertex 2.5205492155840354 -2.3669532624226575 -3
    endloop
  endfacet
  facet normal 0 0 -1
    outer loop
      vertex 1.4127866894095598 -22.45560138963611 -3
      vertex 2.5205492155840354 -2.3669532624226575 -3
      vertex 2.7973318382426067 -2.032380545426667 -3
    endloop
  endfacet
  facet normal 0 0 -1
    outer loop
      vertex 4.2160795781788085 -22.101463141395495 -3
      vertex 2.7973318382426067 -2.032380545426667 -3
      vertex 3.029998866767051 -1.6657559731440084 -3
    endloop
  endfacet
  facet normal 0 0 -1
    outer loop
      vertex 4.2160795781788085 -22.101463141395495 -3
      vertex 3.029998866767051 -1.6657559731440084 -3
      vertex 3.214881003128992 -1.272861434090484 -3
    endloop
  endfacet
  facet normal 0 0 -1
    outer loop
      vertex 4.2160795781788085 -22.101463141395495 -3
      vertex 3.214881003128992 -1.272861434090484 -3
      vertex 3.349062545594767 -0.859893109850785 -3
    endloop
  endfacet
  facet normal 0 0 -1
    outer loop
      vertex 4.2160795781788085 -22.101463141395495 -3
      vertex 3.349062545594767 -0.859893109850785 -3
      vertex 3.4304273710835216 -0.4333637575934975 -3
    endloop
  endfacet
  facet normal 0 0 -1
    outer loop
      vertex 4.2160795781788085 -22.101463141395495 -3
      vertex 3.4304273710835216 -0.4333637575934975 -3
      vertex 3.457692307692308 0 -3
    endloop
  endfacet
  facet normal 0 0 -1
    outer loop
      vertex 4.2160795781788085 -22.101463141395495 -3
      vertex 6.952882373436316 21.398771616640953 -3
      vertex 6.952882373436316 -21.398771616640953 -3
    endloop
  endfacet
  facet normal 0 0 -1
    outer loop
      vertex 6.952882373436316 -21.398771616640953 -3
      vertex 9.580034060214135 20.35860868048544 -3
      vertex 9.58003406021413 -20.35860868048544 -3
    endloop
  endfacet
  facet normal 0 0 -1
    outer loop
      vertex 9.58003406021413 -20.35860868048544 -3
      vertex 12.056102887027425 18.99737832379534 -3
      vertex 12.056102887027414 -18.997378323795346 -3
    endloop
  endfacet
  facet normal 0.5877852522924732 -0.8090169943749475 0
    outer loop
      vertex 12.056102887027414 -18.997378323795346 -3
      vertex 14.342039769345524 -17.336547962455253 -3
      vertex 14.342039769345524 -17.336547962455253 0
    endloop
  endfacet
  facet normal 0.6845471059286892 -0.7289686274214112 0
    outer loop
      vertex 14.342039769345524 -17.336547962455253 -3
      vertex 16.401794116981762 -15.40230988339549 -3
      vertex 16.401794116981762 -15.40230988339549 0
    endloop
  endfacet
  facet normal 0.770513242775789 -0.6374239897486899 0
    outer loop
      vertex 16.401794116981762 -15.40230988339549 -3
      vertex 18.202882373436317 -13.225168176580645 -3
      vertex 16.401794116981762 -15.40230988339549 0
    endloop
  endfacet
  facet normal 0.8443279255020153 -0.5358267949789963 0
    outer loop
      vertex 18.202882373436317 -13.225168176580645 -3
      vertex 19.71690030098693 -10.839457667288595 -3
      vertex 18.202882373436317 -13.225168176580645 0
    endloop
  endfacet
  facet normal 0 0 -1
    outer loop
      vertex 12.056102887027414 -18.997378323795346 -3
      vertex 14.342039769345519 17.336547962455256 -3
      vertex 14.342039769345524 -17.336547962455253 -3
    endloop
  endfacet
  facet normal 0 0 -1
    outer loop
      vertex 14.342039769345524 -17.336547962455253 -3
      vertex 16.40179411698176 15.402309883395496 -3
      vertex 16.401794116981762 -15.40230988339549 -3
    endloop
  endfacet
  facet normal 0 0 -1
    outer loop
      vertex 16.401794116981762 -15.40230988339549 -3
      vertex 18.202882373436317 13.225168176580645 -3
      vertex 18.202882373436317 -13.225168176580645 -3
    endloop
  endfacet
  facet normal 0 0 -1
    outer loop
      vertex 18.202882373436317 -13.225168176580645 -3
      vertex 19.716900300986932 10.839457667288595 -3
      vertex 19.71690030098693 -10.839457667288595 -3
    endloop
  endfacet
  facet normal 0 0 -1
    outer loop
      vertex 19.71690030098693 -10.839457667288595 -3
      vertex 20.919970932485654 8.282802435405255 -3
      vertex 20.919970932485654 -8.282802435405262 -3
    endloop
  endfacet
  facet normal 0 0 -1
    outer loop
      vertex 20.919970932485654 -8.282802435405262 -3
      vertex 21.7931211253942 5.5955224612092325 -3
      vertex 21.7931211253942 -5.5955224612092245 -3
    endloop
  endfacet
  facet normal 0 0 -1
    outer loop
      vertex 21.7931211253942 -5.5955224612092245 -3
      vertex 22.322580779575752 2.819997755196846 -3
      vertex 22.322580779575752 -2.8199977551968414 -3
    endloop
  endfacet
  facet normal 0.9048270524660191 -0.42577929156507344 0
    outer loop
      vertex 19.71690030098693 -10.839457667288595 -3
      vertex 20.919970932485654 -8.282802435405262 -3
      vertex 19.71690030098693 -10.839457667288595 0
    endloop
  endfacet
  facet normal 0.9510565162951538 -0.30901699437494673 0
    outer loop
      vertex 20.919970932485654 -8.282802435405262 -3
      vertex 21.7931211253942 -5.5955224612092245 -3
      vertex 20.919970932485654 -8.282802435405262 0
    endloop
  endfacet
  facet normal 0.9822872507286886 -0.18738131458572482 0
    outer loop
      vertex 21.7931211253942 -5.5955224612092245 -3
      vertex 22.322580779575752 -2.8199977551968414 -3
      vertex 21.7931211253942 -5.5955224612092245 0
    endloop
  endfacet
  facet normal 0.9980267284282716 -0.06279051952931325 0
    outer loop
      vertex 22.322580779575752 -2.8199977551968414 -3
      vertex 22.5 0 -3
      vertex 22.322580779575752 -2.8199977551968414 0
    endloop
  endfacet
  facet normal 0.12533323356430498 -0.9921147013144778 0
    outer loop
      vertex 1.4127866894095598 -22.45560138963611 -3
      vertex 4.2160795781788085 -22.101463141395495 0
      vertex 1.4127866894095598 -22.45560138963611 0
    endloop
  endfacet
  facet normal 0.2486898871648558 -0.9685831611286309 0
    outer loop
      vertex 4.2160795781788085 -22.101463141395495 -3
      vertex 6.952882373436316 -21.398771616640953 0
      vertex 4.2160795781788085 -22.101463141395495 0
    endloop
  endfacet
  facet normal 0.3681245526846779 -0.9297764858882513 0
    outer loop
      vertex 6.952882373436316 -21.398771616640953 -3
      vertex 9.58003406021413 -20.35860868048544 0
      vertex 6.952882373436316 -21.398771616640953 0
    endloop
  endfacet
  facet normal 0.4817536741017142 -0.8763066800438641 0
    outer loop
      vertex 9.58003406021413 -20.35860868048544 -3
      vertex 12.056102887027414 -18.997378323795346 0
      vertex 9.58003406021413 -20.35860868048544 0
    endloop
  endfacet
  facet normal 0 0 1
    outer loop
      vertex -1.4127866894095598 -22.45560138963611 0
      vertex 1.4127866894095598 -22.45560138963611 0
      vertex 0.3390688054582943 -5.389344333512667 0
    endloop
  endfacet
  facet normal 0 0 1
    outer loop
      vertex 1.4127866894095598 -22.45560138963611 0
      vertex 4.2160795781788085 -22.101463141395495 0
      vertex 1.0118590987629141 -5.304351153934919 0
    endloop
  endfacet
  facet normal 0 0 1
    outer loop
      vertex 4.2160795781788085 -22.101463141395495 0
      vertex 6.952882373436316 -21.398771616640953 0
      vertex 3.9364305880756234 -3.6965543720149183 0
    endloop
  endfacet
  facet normal 0 0 1
    outer loop
      vertex 1.4127866894095598 -22.45560138963611 0
      vertex 1.0118590987629141 -5.304351153934919 0
      vertex 0.3390688054582943 -5.389344333512667 0
    endloop
  endfacet
  facet normal 0 0 1
    outer loop
      vertex 4.2160795781788085 -22.101463141395495 0
      vertex 1.668691769624716 -5.135705187993829 0
      vertex 1.0118590987629141 -5.304351153934919 0
    endloop
  endfacet
  facet normal 0 0 1
    outer loop
      vertex 4.2160795781788085 -22.101463141395495 0
      vertex 2.2992081744513913 -4.886066083316506 0
      vertex 1.668691769624716 -5.135705187993829 0
    endloop
  endfacet
  facet normal 0 0 1
    outer loop
      vertex 4.2160795781788085 -22.101463141395495 0
      vertex 2.89346469288658 -4.559370797710883 0
      vertex 2.2992081744513913 -4.886066083316506 0
    endloop
  endfacet
  facet normal 0 0 1
    outer loop
      vertex 4.2160795781788085 -22.101463141395495 0
      vertex 3.442089544642926 -4.160771510989261 0
      vertex 2.89346469288658 -4.559370797710883 0
    endloop
  endfacet
  facet normal 0 0 1
    outer loop
      vertex 4.2160795781788085 -22.101463141395495 0
      vertex 3.9364305880756234 -3.6965543720149183 0
      vertex 3.442089544642926 -4.160771510989261 0
    endloop
  endfacet
  facet normal 0 0 1
    outer loop
      vertex 6.952882373436316 -21.398771616640953 0
      vertex 4.368691769624717 -3.174040362379355 0
      vertex 3.9364305880756234 -3.6965543720149183 0
    endloop
  endfacet
  facet normal 0 0 1
    outer loop
      vertex 6.952882373436316 -21.398771616640953 0
      vertex 4.732056072236863 -2.6014698401492633 0
      vertex 4.368691769624717 -3.174040362379355 0
    endloop
  endfacet
  facet normal 0 0 1
    outer loop
      vertex 6.952882373436316 -21.398771616640953 0
      vertex 5.020793023796557 -1.9878725844972633 0
      vertex 4.732056072236863 -2.6014698401492633 0
    endloop
  endfacet
  facet normal 0 0 1
    outer loop
      vertex 6.952882373436316 -21.398771616640953 0
      vertex 5.230349070094609 -1.342925390690214 0
      vertex 5.020793023796557 -1.9878725844972633 0
    endloop
  endfacet
  facet normal 0 0 1
    outer loop
      vertex 6.952882373436316 -21.398771616640953 0
      vertex 5.357419387098181 -0.676799461247242 0
      vertex 5.230349070094609 -1.342925390690214 0
    endloop
  endfacet
  facet normal 0 0 1
    outer loop
      vertex 6.952882373436316 -21.398771616640953 0
      vertex 5.4 0 0
      vertex 5.357419387098181 -0.676799461247242 0
    endloop
  endfacet
  facet normal 0 0 1
    outer loop
      vertex 6.952882373436316 -21.398771616640953 0
      vertex 5.357419387098181 0.676799461247243 0
      vertex 5.4 0 0
    endloop
  endfacet
  facet normal 0 0 1
    outer loop
      vertex 6.952882373436316 -21.398771616640953 0
      vertex 9.58003406021413 -20.35860868048544 0
      vertex 6.952882373436316 21.398771616640953 0
    endloop
  endfacet
  facet normal 0 0 1
    outer loop
      vertex 9.58003406021413 -20.35860868048544 0
      vertex 12.056102887027414 -18.997378323795346 0
      vertex 9.580034060214135 20.35860868048544 0
    endloop
  endfacet
  facet normal 0.5877852522924732 -0.8090169943749475 0
    outer loop
      vertex 12.056102887027414 -18.997378323795346 -3
      vertex 14.342039769345524 -17.336547962455253 0
      vertex 12.056102887027414 -18.997378323795346 0
    endloop
  endfacet
  facet normal 0.6845471059286892 -0.7289686274214112 0
    outer loop
      vertex 14.342039769345524 -17.336547962455253 -3
      vertex 16.401794116981762 -15.40230988339549 0
      vertex 14.342039769345524 -17.336547962455253 0
    endloop
  endfacet
  facet normal 0.770513242775789 -0.6374239897486899 0
    outer loop
      vertex 18.202882373436317 -13.225168176580645 -3
      vertex 18.202882373436317 -13.225168176580645 0
      vertex 16.401794116981762 -15.40230988339549 0
    endloop
  endfacet
  facet normal 0.8443279255020153 -0.5358267949789963 0
    outer loop
      vertex 18.202882373436317 -13.225168176580645 0
      vertex 19.71690030098693 -10.839457667288595 -3
      vertex 19.71690030098693 -10.839457667288595 0
    endloop
  endfacet
  facet normal 0.9048270524660191 -0.42577929156507344 0
    outer loop
      vertex 20.919970932485654 -8.282802435405262 -3
      vertex 20.919970932485654 -8.282802435405262 0
      vertex 19.71690030098693 -10.839457667288595 0
    endloop
  endfacet
  facet normal 0.9510565162951538 -0.30901699437494673 0
    outer loop
      vertex 21.7931211253942 -5.5955224612092245 -3
      vertex 21.7931211253942 -5.5955224612092245 0
      vertex 20.919970932485654 -8.282802435405262 0
    endloop
  endfacet
  facet normal 0.9822872507286886 -0.18738131458572482 0
    outer loop
      vertex 22.322580779575752 -2.8199977551968414 -3
      vertex 22.322580779575752 -2.8199977551968414 0
      vertex 21.7931211253942 -5.5955224612092245 0
    endloop
  endfacet
  facet normal 0.9980267284282716 -0.06279051952931325 0
    outer loop
      vertex 22.322580779575752 -2.8199977551968414 0
      vertex 22.5 0 -3
      vertex 22.5 0 0
    endloop
  endfacet
  facet normal 0 0 1
    outer loop
      vertex 12.056102887027414 -18.997378323795346 0
      vertex 14.342039769345524 -17.336547962455253 0
      vertex 12.056102887027425 18.99737832379534 0
    endloop
  endfacet
  facet normal 0 0 1
    outer loop
      vertex 14.342039769345524 -17.336547962455253 0
      vertex 16.401794116981762 -15.40230988339549 0
      vertex 14.342039769345519 17.336547962455256 0
    endloop
  endfacet
  facet normal 0 0 1
    outer loop
      vertex 16.401794116981762 -15.40230988339549 0
      vertex 18.202882373436317 -13.225168176580645 0
      vertex 16.40179411698176 15.402309883395496 0
    endloop
  endfacet
  facet normal 0 0 1
    outer loop
      vertex 18.202882373436317 -13.225168176580645 0
      vertex 19.71690030098693 -10.839457667288595 0
      vertex 18.202882373436317 13.225168176580645 0
    endloop
  endfacet
  facet normal 0 0 1
    outer loop
      vertex 19.71690030098693 -10.839457667288595 0
      vertex 20.919970932485654 -8.282802435405262 0
      vertex 19.716900300986932 10.839457667288595 0
    endloop
  endfacet
  facet normal 0 0 1
    outer loop
      vertex 20.919970932485654 -8.282802435405262 0
      vertex 21.7931211253942 -5.5955224612092245 0
      vertex 20.919970932485654 8.282802435405255 0
    endloop
  endfacet
  facet normal 0 0 1
    outer loop
      vertex 21.7931211253942 -5.5955224612092245 0
      vertex 22.322580779575752 -2.8199977551968414 0
      vertex 21.7931211253942 5.5955224612092325 0
    endloop
  endfacet
  facet normal 0 0 -1
    outer loop
      vertex 4.2160795781788085 -22.101463141395495 -3
      vertex 3.457692307692308 0 -3
      vertex 4.216079578178803 22.101463141395495 -3
    endloop
  endfacet
  facet normal 0 0 -1
    outer loop
      vertex 1.4127866894095487 22.45560138963611 -3
      vertex 0.21711029637250556 3.4508693417577545 -3
      vertex -0.21711029637251014 3.4508693417577545 -3
    endloop
  endfacet
  facet normal 0 0 -1
    outer loop
      vertex 1.4127866894095487 22.45560138963611 -3
      vertex 0.6479069300483323 3.3964470707888124 -3
      vertex 0.21711029637250556 3.4508693417577545 -3
    endloop
  endfacet
  facet normal 0 0 -1
    outer loop
      vertex 1.4127866894095487 22.45560138963611 -3
      vertex 1.0684856843964528 3.2884608005743963 -3
      vertex 0.6479069300483323 3.3964470707888124 -3
    endloop
  endfacet
  facet normal 0 0 -1
    outer loop
      vertex 4.216079578178803 22.101463141395495 -3
      vertex 1.4722137812192322 3.1286135391036596 -3
      vertex 1.0684856843964528 3.2884608005743963 -3
    endloop
  endfacet
  facet normal 0 0 -1
    outer loop
      vertex 4.216079578178803 22.101463141395495 -3
      vertex 1.8527241872543 2.9194261731781213 -3
      vertex 1.4722137812192322 3.1286135391036596 -3
    endloop
  endfacet
  facet normal 0 0 -1
    outer loop
      vertex 4.216079578178803 22.101463141395495 -3
      vertex 2.2040160260925847 2.6641977125209015 -3
      vertex 1.8527241872543 2.9194261731781213 -3
    endloop
  endfacet
  facet normal 0 0 -1
    outer loop
      vertex 4.216079578178803 22.101463141395495 -3
      vertex 3.2148810031289923 1.2728614340904827 -3
      vertex 3.0299988667670514 1.665755973144008 -3
    endloop
  endfacet
  facet normal 0 0 -1
    outer loop
      vertex 4.216079578178803 22.101463141395495 -3
      vertex 3.457692307692308 0 -3
      vertex 3.4304273710835216 0.4333637575934982 -3
    endloop
  endfacet
  facet normal 0 0 -1
    outer loop
      vertex 4.216079578178803 22.101463141395495 -3
      vertex 3.4304273710835216 0.4333637575934982 -3
      vertex 3.3490625455947667 0.8598931098507864 -3
    endloop
  endfacet
  facet normal 0 0 -1
    outer loop
      vertex 4.216079578178803 22.101463141395495 -3
      vertex 3.3490625455947667 0.8598931098507864 -3
      vertex 3.2148810031289923 1.2728614340904827 -3
    endloop
  endfacet
  facet normal 0 0 -1
    outer loop
      vertex 4.2160795781788085 -22.101463141395495 -3
      vertex 4.216079578178803 22.101463141395495 -3
      vertex 6.952882373436316 21.398771616640953 -3
    endloop
  endfacet
  facet normal 0 0 -1
    outer loop
      vertex 4.216079578178803 22.101463141395495 -3
      vertex 2.5205492155840346 2.3669532624226584 -3
      vertex 2.2040160260925847 2.6641977125209015 -3
    endloop
  endfacet
  facet normal 0 0 -1
    outer loop
      vertex 4.216079578178803 22.101463141395495 -3
      vertex 3.0299988667670514 1.665755973144008 -3
      vertex 2.797331838242607 2.032380545426667 -3
    endloop
  endfacet
  facet normal 0 0 -1
    outer loop
      vertex 4.216079578178803 22.101463141395495 -3
      vertex 2.797331838242607 2.032380545426667 -3
      vertex 2.5205492155840346 2.3669532624226584 -3
    endloop
  endfacet
  facet normal 0 0 -1
    outer loop
      vertex 6.952882373436316 -21.398771616640953 -3
      vertex 6.952882373436316 21.398771616640953 -3
      vertex 9.580034060214135 20.35860868048544 -3
    endloop
  endfacet
  facet normal 0 0 -1
    outer loop
      vertex 9.58003406021413 -20.35860868048544 -3
      vertex 9.580034060214135 20.35860868048544 -3
      vertex 12.056102887027425 18.99737832379534 -3
    endloop
  endfacet
  facet normal 0 0 -1
    outer loop
      vertex 1.4127866894095487 22.45560138963611 -3
      vertex 4.216079578178803 22.101463141395495 -3
      vertex 1.0684856843964528 3.2884608005743963 -3
    endloop
  endfacet
  facet normal 0.12533323356430473 0.9921147013144779 0
    outer loop
      vertex 1.4127866894095487 22.45560138963611 -3
      vertex 1.4127866894095487 22.45560138963611 0
      vertex 4.216079578178803 22.101463141395495 -3
    endloop
  endfacet
  facet normal 0.24868988716485538 0.9685831611286309 0
    outer loop
      vertex 4.216079578178803 22.101463141395495 -3
      vertex 4.216079578178803 22.101463141395495 0
      vertex 6.952882373436316 21.398771616640953 -3
    endloop
  endfacet
  facet normal 0.3681245526846773 0.9297764858882517 0
    outer loop
      vertex 6.952882373436316 21.398771616640953 -3
      vertex 6.952882373436316 21.398771616640953 0
      vertex 9.580034060214135 20.35860868048544 -3
    endloop
  endfacet
  facet normal 0.48175367410171527 0.8763066800438635 0
    outer loop
      vertex 9.580034060214135 20.35860868048544 -3
      vertex 9.580034060214135 20.35860868048544 0
      vertex 12.056102887027425 18.99737832379534 -3
    endloop
  endfacet
  facet normal 0 0 -1
    outer loop
      vertex 14.342039769345524 -17.336547962455253 -3
      vertex 14.342039769345519 17.336547962455256 -3
      vertex 16.40179411698176 15.402309883395496 -3
    endloop
  endfacet
  facet normal 0 0 -1
    outer loop
      vertex 12.056102887027414 -18.997378323795346 -3
      vertex 12.056102887027425 18.99737832379534 -3
      vertex 14.342039769345519 17.336547962455256 -3
    endloop
  endfacet
  facet normal 0 0 -1
    outer loop
      vertex 16.401794116981762 -15.40230988339549 -3
      vertex 16.40179411698176 15.402309883395496 -3
      vertex 18.202882373436317 13.225168176580645 -3
    endloop
  endfacet
  facet normal 0 0 -1
    outer loop
      vertex 18.202882373436317 -13.225168176580645 -3
      vertex 18.202882373436317 13.225168176580645 -3
      vertex 19.716900300986932 10.839457667288595 -3
    endloop
  endfacet
  facet normal 0 0 -1
    outer loop
      vertex 19.71690030098693 -10.839457667288595 -3
      vertex 19.716900300986932 10.839457667288595 -3
      vertex 20.919970932485654 8.282802435405255 -3
    endloop
  endfacet
  facet normal 0 0 -1
    outer loop
      vertex 22.322580779575752 -2.8199977551968414 -3
      vertex 22.322580779575752 2.819997755196846 -3
      vertex 22.5 0 -3
    endloop
  endfacet
  facet normal 0 0 -1
    outer loop
      vertex 21.7931211253942 -5.5955224612092245 -3
      vertex 21.7931211253942 5.5955224612092325 -3
      vertex 22.322580779575752 2.819997755196846 -3
    endloop
  endfacet
  facet normal 0 0 -1
    outer loop
      vertex 20.919970932485654 -8.282802435405262 -3
      vertex 20.919970932485654 8.282802435405255 -3
      vertex 21.7931211253942 5.5955224612092325 -3
    endloop
  endfacet
  facet normal 0.9980267284282716 0.06279051952931315 0
    outer loop
      vertex 22.5 0 -3
      vertex 22.322580779575752 2.819997755196846 -3
      vertex 22.5 0 0
    endloop
  endfacet
  facet normal 0.9822872507286886 0.1873813145857246 0
    outer loop
      vertex 22.322580779575752 2.819997755196846 -3
      vertex 21.7931211253942 5.5955224612092325 -3
      vertex 22.322580779575752 2.819997755196846 0
    endloop
  endfacet
  facet normal 0.9510565162951533 0.30901699437494834 0
    outer loop
      vertex 21.7931211253942 5.5955224612092325 -3
      vertex 20.919970932485654 8.282802435405255 -3
      vertex 21.7931211253942 5.5955224612092325 0
    endloop
  endfacet
  facet normal 0.9048270524660201 0.42577929156507144 0
    outer loop
      vertex 20.919970932485654 8.282802435405255 -3
      vertex 19.716900300986932 10.839457667288595 -3
      vertex 20.919970932485654 8.282802435405255 0
    endloop
  endfacet
  facet normal 0.6845471059286884 0.7289686274214117 0
    outer loop
      vertex 16.40179411698176 15.402309883395496 -3
      vertex 14.342039769345519 17.336547962455256 -3
      vertex 14.342039769345519 17.336547962455256 0
    endloop
  endfacet
  facet normal 0.5877852522924734 0.8090169943749472 0
    outer loop
      vertex 12.056102887027425 18.99737832379534 -3
      vertex 12.056102887027425 18.99737832379534 0
      vertex 14.342039769345519 17.336547962455256 -3
    endloop
  endfacet
  facet normal 0.7705132427757891 0.6374239897486897 0
    outer loop
      vertex 16.40179411698176 15.402309883395496 -3
      vertex 18.202882373436317 13.225168176580645 0
      vertex 18.202882373436317 13.225168176580645 -3
    endloop
  endfacet
  facet normal 0.8443279255020147 0.5358267949789972 0
    outer loop
      vertex 19.716900300986932 10.839457667288595 -3
      vertex 18.202882373436317 13.225168176580645 -3
      vertex 19.716900300986932 10.839457667288595 0
    endloop
  endfacet
  facet normal 0 0 1
    outer loop
      vertex 6.952882373436316 -21.398771616640953 0
      vertex 4.216079578178803 22.101463141395495 0
      vertex 5.357419387098181 0.676799461247243 0
    endloop
  endfacet
  facet normal 0 0 1
    outer loop
      vertex 1.4127866894095487 22.45560138963611 0
      vertex -0.3390688054582874 5.389344333512667 0
      vertex 0.3390688054582917 5.389344333512667 0
    endloop
  endfacet
  facet normal 0 0 1
    outer loop
      vertex 1.4127866894095487 22.45560138963611 0
      vertex 0.3390688054582917 5.389344333512667 0
      vertex 1.0118590987629128 5.3043511539349195 0
    endloop
  endfacet
  facet normal 0 0 1
    outer loop
      vertex 1.4127866894095487 22.45560138963611 0
      vertex 1.0118590987629128 5.3043511539349195 0
      vertex 1.668691769624716 5.135705187993829 0
    endloop
  endfacet
  facet normal 0 0 1
    outer loop
      vertex 1.4127866894095487 22.45560138963611 0
      vertex 1.668691769624716 5.135705187993829 0
      vertex 2.299208174451393 4.886066083316505 0
    endloop
  endfacet
  facet normal 0 0 1
    outer loop
      vertex 1.4127866894095487 22.45560138963611 0
      vertex 2.299208174451393 4.886066083316505 0
      vertex 2.893464692886582 4.559370797710882 0
    endloop
  endfacet
  facet normal 0 0 1
    outer loop
      vertex 4.216079578178803 22.101463141395495 0
      vertex 5.230349070094608 1.3429253906902159 0
      vertex 5.357419387098181 0.676799461247243 0
    endloop
  endfacet
  facet normal 0 0 1
    outer loop
      vertex 4.216079578178803 22.101463141395495 0
      vertex 3.9364305880756225 3.696554372014919 0
      vertex 4.368691769624717 3.174040362379355 0
    endloop
  endfacet
  facet normal 0 0 1
    outer loop
      vertex 4.216079578178803 22.101463141395495 0
      vertex 3.4420895446429247 4.160771510989262 0
      vertex 3.9364305880756225 3.696554372014919 0
    endloop
  endfacet
  facet normal 0 0 1
    outer loop
      vertex 4.216079578178803 22.101463141395495 0
      vertex 2.893464692886582 4.559370797710882 0
      vertex 3.4420895446429247 4.160771510989262 0
    endloop
  endfacet
  facet normal 0 0 1
    outer loop
      vertex 4.216079578178803 22.101463141395495 0
      vertex 5.020793023796558 1.9878725844972611 0
      vertex 5.230349070094608 1.3429253906902159 0
    endloop
  endfacet
  facet normal 0 0 1
    outer loop
      vertex 4.216079578178803 22.101463141395495 0
      vertex 4.732056072236864 2.601469840149263 0
      vertex 5.020793023796558 1.9878725844972611 0
    endloop
  endfacet
  facet normal 0 0 1
    outer loop
      vertex 4.216079578178803 22.101463141395495 0
      vertex 4.368691769624717 3.174040362379355 0
      vertex 4.732056072236864 2.601469840149263 0
    endloop
  endfacet
  facet normal 0 0 1
    outer loop
      vertex 6.952882373436316 -21.398771616640953 0
      vertex 6.952882373436316 21.398771616640953 0
      vertex 4.216079578178803 22.101463141395495 0
    endloop
  endfacet
  facet normal 0 0 1
    outer loop
      vertex 9.58003406021413 -20.35860868048544 0
      vertex 9.580034060214135 20.35860868048544 0
      vertex 6.952882373436316 21.398771616640953 0
    endloop
  endfacet
  facet normal 0 0 1
    outer loop
      vertex 12.056102887027414 -18.997378323795346 0
      vertex 12.056102887027425 18.99737832379534 0
      vertex 9.580034060214135 20.35860868048544 0
    endloop
  endfacet
  facet normal 0 1 0
    outer loop
      vertex -1.4127866894095487 22.45560138963611 0
      vertex 1.4127866894095487 22.45560138963611 0
      vertex 1.4127866894095487 22.45560138963611 -3
    endloop
  endfacet
  facet normal 0.12533323356430473 0.9921147013144779 0
    outer loop
      vertex 4.216079578178803 22.101463141395495 -3
      vertex 1.4127866894095487 22.45560138963611 0
      vertex 4.216079578178803 22.101463141395495 0
    endloop
  endfacet
  facet normal 0.24868988716485538 0.9685831611286309 0
    outer loop
      vertex 6.952882373436316 21.398771616640953 -3
      vertex 4.216079578178803 22.101463141395495 0
      vertex 6.952882373436316 21.398771616640953 0
    endloop
  endfacet
  facet normal 0.48175367410171527 0.8763066800438635 0
    outer loop
      vertex 9.580034060214135 20.35860868048544 0
      vertex 12.056102887027425 18.99737832379534 0
      vertex 12.056102887027425 18.99737832379534 -3
    endloop
  endfacet
  facet normal 0.3681245526846773 0.9297764858882517 0
    outer loop
      vertex 9.580034060214135 20.35860868048544 -3
      vertex 6.952882373436316 21.398771616640953 0
      vertex 9.580034060214135 20.35860868048544 0
    endloop
  endfacet
  facet normal 0 0 1
    outer loop
      vertex 1.4127866894095487 22.45560138963611 0
      vertex 2.893464692886582 4.559370797710882 0
      vertex 4.216079578178803 22.101463141395495 0
    endloop
  endfacet
  facet normal 0.9980267284282716 0.06279051952931315 0
    outer loop
      vertex 22.322580779575752 2.819997755196846 -3
      vertex 22.322580779575752 2.819997755196846 0
      vertex 22.5 0 0
    endloop
  endfacet
  facet normal 0.9822872507286886 0.1873813145857246 0
    outer loop
      vertex 21.7931211253942 5.5955224612092325 -3
      vertex 21.7931211253942 5.5955224612092325 0
      vertex 22.322580779575752 2.819997755196846 0
    endloop
  endfacet
  facet normal 0.9510565162951533 0.30901699437494834 0
    outer loop
      vertex 20.919970932485654 8.282802435405255 -3
      vertex 20.919970932485654 8.282802435405255 0
      vertex 21.7931211253942 5.5955224612092325 0
    endloop
  endfacet
  facet normal 0.9048270524660201 0.42577929156507144 0
    outer loop
      vertex 19.716900300986932 10.839457667288595 -3
      vertex 19.716900300986932 10.839457667288595 0
      vertex 20.919970932485654 8.282802435405255 0
    endloop
  endfacet
  facet normal 0 0 1
    outer loop
      vertex 14.342039769345524 -17.336547962455253 0
      vertex 14.342039769345519 17.336547962455256 0
      vertex 12.056102887027425 18.99737832379534 0
    endloop
  endfacet
  facet normal 0 0 1
    outer loop
      vertex 16.401794116981762 -15.40230988339549 0
      vertex 16.40179411698176 15.402309883395496 0
      vertex 14.342039769345519 17.336547962455256 0
    endloop
  endfacet
  facet normal 0 0 1
    outer loop
      vertex 18.202882373436317 -13.225168176580645 0
      vertex 18.202882373436317 13.225168176580645 0
      vertex 16.40179411698176 15.402309883395496 0
    endloop
  endfacet
  facet normal 0 0 1
    outer loop
      vertex 19.71690030098693 -10.839457667288595 0
      vertex 19.716900300986932 10.839457667288595 0
      vertex 18.202882373436317 13.225168176580645 0
    endloop
  endfacet
  facet normal 0 0 1
    outer loop
      vertex 22.322580779575752 -2.8199977551968414 0
      vertex 22.5 0 0
      vertex 22.322580779575752 2.819997755196846 0
    endloop
  endfacet
  facet normal 0 0 1
    outer loop
      vertex 21.7931211253942 -5.5955224612092245 0
      vertex 21.7931211253942 5.5955224612092325 0
      vertex 20.919970932485654 8.282802435405255 0
    endloop
  endfacet
  facet normal 0 0 1
    outer loop
      vertex 22.322580779575752 -2.8199977551968414 0
      vertex 22.322580779575752 2.819997755196846 0
      vertex 21.7931211253942 5.5955224612092325 0
    endloop
  endfacet
  facet normal 0 0 1
    outer loop
      vertex 20.919970932485654 -8.282802435405262 0
      vertex 20.919970932485654 8.282802435405255 0
      vertex 19.716900300986932 10.839457667288595 0
    endloop
  endfacet
  facet normal 0.6845471059286884 0.7289686274214117 0
    outer loop
      vertex 16.40179411698176 15.402309883395496 -3
      vertex 14.342039769345519 17.336547962455256 0
      vertex 16.40179411698176 15.402309883395496 0
    endloop
  endfacet
  facet normal 0.5877852522924734 0.8090169943749472 0
    outer loop
      vertex 14.342039769345519 17.336547962455256 -3
      vertex 12.056102887027425 18.99737832379534 0
      vertex 14.342039769345519 17.336547962455256 0
    endloop
  endfacet
  facet normal 0.8443279255020147 0.5358267949789972 0
    outer loop
      vertex 19.716900300986932 10.839457667288595 0
      vertex 18.202882373436317 13.225168176580645 -3
      vertex 18.202882373436317 13.225168176580645 0
    endloop
  endfacet
  facet normal 0.7705132427757891 0.6374239897486897 0
    outer loop
      vertex 16.40179411698176 15.402309883395496 -3
      vertex 16.40179411698176 15.402309883395496 0
      vertex 18.202882373436317 13.225168176580645 0
    endloop
  endfacet
  facet normal 0.5749613493225372 0.6122716493957029 0.5427180429389399
    outer loop
      vertex -2.520549215584035 -2.366953262422658 -3
      vertex -3.9364305880756234 -3.6965543720149183 0
      vertex -2.2040160260925843 -2.6641977125209024 -3
    endloop
  endfacet
  facet normal 0.7091636486560638 0.45004893655395517 0.5427180429389398
    outer loop
      vertex -2.797331838242607 -2.032380545426667 -3
      vertex -3.029998866767051 -1.6657559731440084 -3
      vertex -4.732056072236863 -2.6014698401492633 0
    endloop
  endfacet
  facet normal 0.7599777699499789 0.35761839305380255 0.5427180429389398
    outer loop
      vertex -3.029998866767051 -1.6657559731440084 -3
      vertex -3.2148810031289927 -1.2728614340904825 -3
      vertex -5.020793023796558 -1.9878725844972607 0
    endloop
  endfacet
  facet normal 0.6471655929890117 0.5353819394784511 0.5427180429389399
    outer loop
      vertex -2.520549215584035 -2.366953262422658 -3
      vertex -2.797331838242607 -2.032380545426667 -3
      vertex -4.368691769624717 -3.174040362379355 0
    endloop
  endfacet
  facet normal 0.7988065878230702 0.2595479938643156 0.5427180429389398
    outer loop
      vertex -3.2148810031289927 -1.2728614340904825 -3
      vertex -3.3490625455947667 -0.8598931098507866 -3
      vertex -5.230349070094608 -1.3429253906902163 0
    endloop
  endfacet
  facet normal 0.8250377486222651 0.1573843677651346 0.54271804293894
    outer loop
      vertex -3.3490625455947667 -0.8598931098507866 -3
      vertex -3.4304273710835216 -0.4333637575934975 -3
      vertex -5.357419387098181 -0.676799461247242 0
    endloop
  endfacet
  facet normal 0.8382575712720258 0.052738696169432164 0.5427180429389398
    outer loop
      vertex -3.4304273710835216 -0.4333637575934975 -3
      vertex -3.457692307692308 0 -3
      vertex -5.4 0 0
    endloop
  endfacet
  facet normal 0.49368962171198477 0.6795054696486295 0.5427180429389398
    outer loop
      vertex -1.8527241872543003 -2.919426173178121 -3
      vertex -2.2040160260925843 -2.6641977125209024 -3
      vertex -2.8934646928865826 -4.559370797710881 0
    endloop
  endfacet
  facet normal 0.4046321138511497 0.736023082728305 0.5427180429389398
    outer loop
      vertex -1.8527241872543003 -2.919426173178121 -3
      vertex -2.2992081744513913 -4.886066083316506 0
      vertex -1.472213781219231 -3.12861353910366 -3
    endloop
  endfacet
  facet normal 0.3091933158393733 0.7809331721144778 0.5427180429389399
    outer loop
      vertex -1.472213781219231 -3.12861353910366 -3
      vertex -2.2992081744513913 -4.886066083316506 0
      vertex -1.0684856843964528 -3.2884608005743963 -3
    endloop
  endfacet
  facet normal 0.2088783545336764 0.8135274788695406 0.5427180429389398
    outer loop
      vertex -1.0684856843964528 -3.2884608005743963 -3
      vertex -1.0118590987629141 -5.304351153934919 0
      vertex -0.6479069300483331 -3.396447070788812 -3
    endloop
  endfacet
  facet normal 0.1052692567991025 0.8332919713050713 0.5427180429389398
    outer loop
      vertex -0.2171102963725118 -3.4508693417577545 -3
      vertex -0.6479069300483331 -3.396447070788812 -3
      vertex -0.3390688054582943 -5.389344333512667 0
    endloop
  endfacet
  facet normal 0 0.8399149515686257 0.5427180429389398
    outer loop
      vertex 0.2171102963725118 -3.4508693417577545 -3
      vertex -0.2171102963725118 -3.4508693417577545 -3
      vertex -0.3390688054582943 -5.389344333512667 0
    endloop
  endfacet
  facet normal 0.6471655929890116 0.5353819394784511 0.5427180429389399
    outer loop
      vertex -4.368691769624717 -3.174040362379355 0
      vertex -3.9364305880756234 -3.6965543720149183 0
      vertex -2.520549215584035 -2.366953262422658 -3
    endloop
  endfacet
  facet normal 0.49368962171198433 0.6795054696486297 0.54271804293894
    outer loop
      vertex -2.8934646928865826 -4.559370797710881 0
      vertex -2.2040160260925843 -2.6641977125209024 -3
      vertex -3.4420895446429243 -4.160771510989263 0
    endloop
  endfacet
  facet normal 0.5749613493225377 0.6122716493957022 0.5427180429389399
    outer loop
      vertex -3.9364305880756234 -3.6965543720149183 0
      vertex -3.4420895446429243 -4.160771510989263 0
      vertex -2.2040160260925843 -2.6641977125209024 -3
    endloop
  endfacet
  facet normal 0.7599777699499791 0.3576183930538022 0.5427180429389399
    outer loop
      vertex -3.029998866767051 -1.6657559731440084 -3
      vertex -5.020793023796558 -1.9878725844972607 0
      vertex -4.732056072236863 -2.6014698401492633 0
    endloop
  endfacet
  facet normal 0.7988065878230701 0.2595479938643156 0.5427180429389398
    outer loop
      vertex -3.2148810031289927 -1.2728614340904825 -3
      vertex -5.230349070094608 -1.3429253906902163 0
      vertex -5.020793023796558 -1.9878725844972607 0
    endloop
  endfacet
  facet normal 0.825037748622265 0.15738436776513542 0.5427180429389399
    outer loop
      vertex -3.3490625455947667 -0.8598931098507866 -3
      vertex -5.357419387098181 -0.676799461247242 0
      vertex -5.230349070094608 -1.3429253906902163 0
    endloop
  endfacet
  facet normal 0.8382575712720258 0.05273869616943146 0.5427180429389399
    outer loop
      vertex -3.4304273710835216 -0.4333637575934975 -3
      vertex -5.4 0 0
      vertex -5.357419387098181 -0.676799461247242 0
    endloop
  endfacet
  facet normal 0.709163648656064 0.45004893655395495 0.5427180429389398
    outer loop
      vertex -4.732056072236863 -2.6014698401492633 0
      vertex -4.368691769624717 -3.174040362379355 0
      vertex -2.797331838242607 -2.032380545426667 -3
    endloop
  endfacet
  facet normal 0.3091933158393729 0.7809331721144781 0.5427180429389399
    outer loop
      vertex -2.2992081744513913 -4.886066083316506 0
      vertex -1.668691769624716 -5.135705187993829 0
      vertex -1.0684856843964528 -3.2884608005743963 -3
    endloop
  endfacet
  facet normal 0.40463211385115 0.7360230827283049 0.5427180429389399
    outer loop
      vertex -2.8934646928865826 -4.559370797710881 0
      vertex -2.2992081744513913 -4.886066083316506 0
      vertex -1.8527241872543003 -2.919426173178121 -3
    endloop
  endfacet
  facet normal 0.20887835453367626 0.8135274788695407 0.5427180429389398
    outer loop
      vertex -1.668691769624716 -5.135705187993829 0
      vertex -1.0118590987629141 -5.304351153934919 0
      vertex -1.0684856843964528 -3.2884608005743963 -3
    endloop
  endfacet
  facet normal 0.10526925679910304 0.8332919713050713 0.5427180429389398
    outer loop
      vertex -0.6479069300483331 -3.396447070788812 -3
      vertex -1.0118590987629141 -5.304351153934919 0
      vertex -0.3390688054582943 -5.389344333512667 0
    endloop
  endfacet
  facet normal 0.8382575712720258 -0.052738696169432164 0.54271804293894
    outer loop
      vertex -3.4304273710835216 0.4333637575934975 -3
      vertex -5.357419387098181 0.676799461247242 0
      vertex -3.457692307692308 0 -3
    endloop
  endfacet
  facet normal 0.8250377486222651 -0.1573843677651346 0.5427180429389398
    outer loop
      vertex -3.3490625455947667 0.8598931098507866 -3
      vertex -5.230349070094608 1.3429253906902163 0
      vertex -3.4304273710835216 0.4333637575934975 -3
    endloop
  endfacet
  facet normal 0.7988065878230701 -0.25954799386431576 0.5427180429389398
    outer loop
      vertex -3.2148810031289927 1.2728614340904822 -3
      vertex -5.020793023796558 1.9878725844972607 0
      vertex -3.3490625455947667 0.8598931098507866 -3
    endloop
  endfacet
  facet normal 0.759977769949979 -0.3576183930538024 0.5427180429389398
    outer loop
      vertex -3.029998866767051 1.6657559731440084 -3
      vertex -4.732056072236863 2.6014698401492633 0
      vertex -3.2148810031289927 1.2728614340904822 -3
    endloop
  endfacet
  facet normal 0.7091636486560635 -0.45004893655395556 0.5427180429389398
    outer loop
      vertex -3.029998866767051 1.6657559731440084 -3
      vertex -2.797331838242607 2.0323805454266664 -3
      vertex -4.732056072236863 2.6014698401492633 0
    endloop
  endfacet
  facet normal 0.6471655929890123 -0.5353819394784501 0.5427180429389399
    outer loop
      vertex -2.797331838242607 2.0323805454266664 -3
      vertex -2.5205492155840354 2.366953262422658 -3
      vertex -4.368691769624717 3.174040362379355 0
    endloop
  endfacet
  facet normal 0.5749613493225372 -0.6122716493957028 0.5427180429389399
    outer loop
      vertex -2.5205492155840354 2.366953262422658 -3
      vertex -2.2040160260925847 2.6641977125209024 -3
      vertex -3.4420895446429243 4.160771510989263 0
    endloop
  endfacet
  facet normal 0.49368962171198433 -0.6795054696486298 0.5427180429389399
    outer loop
      vertex -2.2040160260925847 2.6641977125209024 -3
      vertex -1.8527241872543003 2.919426173178121 -3
      vertex -2.8934646928865826 4.559370797710881 0
    endloop
  endfacet
  facet normal 0.4046321138511502 -0.7360230827283047 0.5427180429389398
    outer loop
      vertex -1.8527241872543003 2.919426173178121 -3
      vertex -1.4722137812192324 3.1286135391036596 -3
      vertex -2.299208174451393 4.886066083316505 0
    endloop
  endfacet
  facet normal 0.3091933158393732 -0.7809331721144779 0.5427180429389399
    outer loop
      vertex -1.4722137812192324 3.1286135391036596 -3
      vertex -1.0684856843964528 3.2884608005743963 -3
      vertex -1.668691769624716 5.135705187993829 0
    endloop
  endfacet
  facet normal 0.20887835453367687 -0.8135274788695407 0.5427180429389398
    outer loop
      vertex -1.0684856843964528 3.2884608005743963 -3
      vertex -0.6479069300483323 3.3964470707888124 -3
      vertex -1.0118590987629128 5.3043511539349195 0
    endloop
  endfacet
  facet normal 0.10526925679910144 -0.8332919713050715 0.5427180429389398
    outer loop
      vertex -0.3390688054582874 5.389344333512667 0
      vertex -0.6479069300483323 3.3964470707888124 -3
      vertex -0.21711029637251014 3.4508693417577545 -3
    endloop
  endfacet
  facet normal 0.8382575712720258 -0.052738696169431463 0.5427180429389399
    outer loop
      vertex -5.357419387098181 0.676799461247242 0
      vertex -5.4 0 0
      vertex -3.457692307692308 0 -3
    endloop
  endfacet
  facet normal 0.825037748622265 -0.15738436776513542 0.5427180429389399
    outer loop
      vertex -5.230349070094608 1.3429253906902163 0
      vertex -5.357419387098181 0.676799461247242 0
      vertex -3.4304273710835216 0.4333637575934975 -3
    endloop
  endfacet
  facet normal 0.79880658782307 -0.25954799386431593 0.5427180429389398
    outer loop
      vertex -5.020793023796558 1.9878725844972607 0
      vertex -5.230349070094608 1.3429253906902163 0
      vertex -3.3490625455947667 0.8598931098507866 -3
    endloop
  endfacet
  facet normal 0.7599777699499791 -0.3576183930538022 0.5427180429389398
    outer loop
      vertex -4.732056072236863 2.6014698401492633 0
      vertex -5.020793023796558 1.9878725844972607 0
      vertex -3.2148810031289927 1.2728614340904822 -3
    endloop
  endfacet
  facet normal 0.7091636486560638 -0.45004893655395484 0.5427180429389398
    outer loop
      vertex -4.368691769624717 3.174040362379355 0
      vertex -4.732056072236863 2.6014698401492633 0
      vertex -2.797331838242607 2.0323805454266664 -3
    endloop
  endfacet
  facet normal 0.6471655929890117 -0.5353819394784513 0.5427180429389398
    outer loop
      vertex -3.9364305880756234 3.6965543720149183 0
      vertex -4.368691769624717 3.174040362379355 0
      vertex -2.5205492155840354 2.366953262422658 -3
    endloop
  endfacet
  facet normal 0.5749613493225377 -0.6122716493957023 0.5427180429389398
    outer loop
      vertex -3.9364305880756234 3.6965543720149183 0
      vertex -2.5205492155840354 2.366953262422658 -3
      vertex -3.4420895446429243 4.160771510989263 0
    endloop
  endfacet
  facet normal 0.49368962171198433 -0.6795054696486297 0.5427180429389399
    outer loop
      vertex -2.8934646928865826 4.559370797710881 0
      vertex -3.4420895446429243 4.160771510989263 0
      vertex -2.2040160260925847 2.6641977125209024 -3
    endloop
  endfacet
  facet normal 0.40463211385115005 -0.7360230827283047 0.5427180429389398
    outer loop
      vertex -2.299208174451393 4.886066083316505 0
      vertex -2.8934646928865826 4.559370797710881 0
      vertex -1.8527241872543003 2.919426173178121 -3
    endloop
  endfacet
  facet normal 0.3091933158393734 -0.7809331721144778 0.5427180429389398
    outer loop
      vertex -1.4722137812192324 3.1286135391036596 -3
      vertex -1.668691769624716 5.135705187993829 0
      vertex -2.299208174451393 4.886066083316505 0
    endloop
  endfacet
  facet normal 0.2088783545336769 -0.8135274788695406 0.5427180429389399
    outer loop
      vertex -1.0118590987629128 5.3043511539349195 0
      vertex -1.668691769624716 5.135705187993829 0
      vertex -1.0684856843964528 3.2884608005743963 -3
    endloop
  endfacet
  facet normal 0.10526925679910071 -0.8332919713050714 0.5427180429389398
    outer loop
      vertex -0.3390688054582874 5.389344333512667 0
      vertex -1.0118590987629128 5.3043511539349195 0
      vertex -0.6479069300483323 3.3964470707888124 -3
    endloop
  endfacet
  facet normal 0 -0.8399149515686258 0.5427180429389398
    outer loop
      vertex -0.3390688054582874 5.389344333512667 0
      vertex -0.21711029637251014 3.4508693417577545 -3
      vertex 0.3390688054582917 5.389344333512667 0
    endloop
  endfacet
  facet normal -0.1052692567991025 0.8332919713050713 0.5427180429389398
    outer loop
      vertex 0.2171102963725118 -3.4508693417577545 -3
      vertex 0.3390688054582943 -5.389344333512667 0
      vertex 0.6479069300483331 -3.396447070788812 -3
    endloop
  endfacet
  facet normal -0.2088783545336764 0.8135274788695406 0.5427180429389398
    outer loop
      vertex 1.0684856843964528 -3.2884608005743963 -3
      vertex 0.6479069300483331 -3.396447070788812 -3
      vertex 1.0118590987629141 -5.304351153934919 0
    endloop
  endfacet
  facet normal -0.3091933158393733 0.7809331721144778 0.5427180429389398
    outer loop
      vertex 1.472213781219231 -3.12861353910366 -3
      vertex 1.0684856843964528 -3.2884608005743963 -3
      vertex 1.668691769624716 -5.135705187993829 0
    endloop
  endfacet
  facet normal -0.4046321138511492 0.7360230827283053 0.5427180429389399
    outer loop
      vertex 1.8527241872542985 -2.919426173178122 -3
      vertex 1.472213781219231 -3.12861353910366 -3
      vertex 2.2992081744513913 -4.886066083316506 0
    endloop
  endfacet
  facet normal -0.4936896217119847 0.6795054696486296 0.5427180429389398
    outer loop
      vertex 2.2040160260925856 -2.6641977125209015 -3
      vertex 1.8527241872542985 -2.919426173178122 -3
      vertex 2.89346469288658 -4.559370797710883 0
    endloop
  endfacet
  facet normal -0.5749613493225376 0.6122716493957024 0.5427180429389399
    outer loop
      vertex 2.5205492155840354 -2.3669532624226575 -3
      vertex 2.2040160260925856 -2.6641977125209015 -3
      vertex 3.442089544642926 -4.160771510989261 0
    endloop
  endfacet
  facet normal -0.6471655929890121 0.5353819394784505 0.54271804293894
    outer loop
      vertex 2.7973318382426067 -2.032380545426667 -3
      vertex 2.5205492155840354 -2.3669532624226575 -3
      vertex 4.368691769624717 -3.174040362379355 0
    endloop
  endfacet
  facet normal -0.7091636486560634 0.4500489365539558 0.5427180429389398
    outer loop
      vertex 3.029998866767051 -1.6657559731440084 -3
      vertex 2.7973318382426067 -2.032380545426667 -3
      vertex 4.732056072236863 -2.6014698401492633 0
    endloop
  endfacet
  facet normal -0.759977769949979 0.35761839305380255 0.5427180429389397
    outer loop
      vertex 4.732056072236863 -2.6014698401492633 0
      vertex 3.214881003128992 -1.272861434090484 -3
      vertex 3.029998866767051 -1.6657559731440084 -3
    endloop
  endfacet
  facet normal -0.7988065878230699 0.25954799386431615 0.5427180429389399
    outer loop
      vertex 5.020793023796557 -1.9878725844972633 0
      vertex 3.349062545594767 -0.859893109850785 -3
      vertex 3.214881003128992 -1.272861434090484 -3
    endloop
  endfacet
  facet normal -0.8250377486222653 0.15738436776513373 0.5427180429389398
    outer loop
      vertex 5.230349070094609 -1.342925390690214 0
      vertex 3.4304273710835216 -0.4333637575934975 -3
      vertex 3.349062545594767 -0.859893109850785 -3
    endloop
  endfacet
  facet normal -0.8382575712720257 0.05273869616943188 0.54271804293894
    outer loop
      vertex 5.357419387098181 -0.676799461247242 0
      vertex 3.457692307692308 0 -3
      vertex 3.4304273710835216 -0.4333637575934975 -3
    endloop
  endfacet
  facet normal 0 0.8399149515686258 0.5427180429389399
    outer loop
      vertex -0.3390688054582943 -5.389344333512667 0
      vertex 0.3390688054582943 -5.389344333512667 0
      vertex 0.2171102963725118 -3.4508693417577545 -3
    endloop
  endfacet
  facet normal -0.10526925679910268 0.8332919713050713 0.5427180429389398
    outer loop
      vertex 0.3390688054582943 -5.389344333512667 0
      vertex 1.0118590987629141 -5.304351153934919 0
      vertex 0.6479069300483331 -3.396447070788812 -3
    endloop
  endfacet
  facet normal -0.20887835453367626 0.8135274788695407 0.5427180429389398
    outer loop
      vertex 1.0118590987629141 -5.304351153934919 0
      vertex 1.668691769624716 -5.135705187993829 0
      vertex 1.0684856843964528 -3.2884608005743963 -3
    endloop
  endfacet
  facet normal -0.3091933158393728 0.7809331721144779 0.5427180429389398
    outer loop
      vertex 1.472213781219231 -3.12861353910366 -3
      vertex 1.668691769624716 -5.135705187993829 0
      vertex 2.2992081744513913 -4.886066083316506 0
    endloop
  endfacet
  facet normal -0.40463211385114967 0.736023082728305 0.5427180429389398
    outer loop
      vertex 2.2992081744513913 -4.886066083316506 0
      vertex 2.89346469288658 -4.559370797710883 0
      vertex 1.8527241872542985 -2.919426173178122 -3
    endloop
  endfacet
  facet normal -0.49368962171198466 0.6795054696486296 0.5427180429389398
    outer loop
      vertex 2.89346469288658 -4.559370797710883 0
      vertex 3.442089544642926 -4.160771510989261 0
      vertex 2.2040160260925856 -2.6641977125209015 -3
    endloop
  endfacet
  facet normal -0.5749613493225377 0.6122716493957024 0.5427180429389399
    outer loop
      vertex 3.442089544642926 -4.160771510989261 0
      vertex 3.9364305880756234 -3.6965543720149183 0
      vertex 2.5205492155840354 -2.3669532624226575 -3
    endloop
  endfacet
  facet normal -0.6471655929890116 0.5353819394784511 0.5427180429389399
    outer loop
      vertex 3.9364305880756234 -3.6965543720149183 0
      vertex 4.368691769624717 -3.174040362379355 0
      vertex 2.5205492155840354 -2.3669532624226575 -3
    endloop
  endfacet
  facet normal -0.7091636486560638 0.45004893655395484 0.5427180429389398
    outer loop
      vertex 2.7973318382426067 -2.032380545426667 -3
      vertex 4.368691769624717 -3.174040362379355 0
      vertex 4.732056072236863 -2.6014698401492633 0
    endloop
  endfacet
  facet normal -0.7599777699499789 0.3576183930538026 0.5427180429389399
    outer loop
      vertex 4.732056072236863 -2.6014698401492633 0
      vertex 5.020793023796557 -1.9878725844972633 0
      vertex 3.214881003128992 -1.272861434090484 -3
    endloop
  endfacet
  facet normal -0.7988065878230699 0.25954799386431615 0.5427180429389399
    outer loop
      vertex 5.020793023796557 -1.9878725844972633 0
      vertex 5.230349070094609 -1.342925390690214 0
      vertex 3.349062545594767 -0.859893109850785 -3
    endloop
  endfacet
  facet normal -0.825037748622265 0.15738436776513484 0.5427180429389399
    outer loop
      vertex 5.230349070094609 -1.342925390690214 0
      vertex 5.357419387098181 -0.676799461247242 0
      vertex 3.4304273710835216 -0.4333637575934975 -3
    endloop
  endfacet
  facet normal -0.8382575712720258 0.052738696169431463 0.5427180429389399
    outer loop
      vertex 5.357419387098181 -0.676799461247242 0
      vertex 5.4 0 0
      vertex 3.457692307692308 0 -3
    endloop
  endfacet
  facet normal 0 -0.8399149515686258 0.5427180429389398
    outer loop
      vertex -0.21711029637251014 3.4508693417577545 -3
      vertex 0.21711029637250556 3.4508693417577545 -3
      vertex 0.3390688054582917 5.389344333512667 0
    endloop
  endfacet
  facet normal -0.10526925679910032 -0.8332919713050714 0.5427180429389399
    outer loop
      vertex 0.21711029637250556 3.4508693417577545 -3
      vertex 0.6479069300483323 3.3964470707888124 -3
      vertex 0.3390688054582917 5.389344333512667 0
    endloop
  endfacet
  facet normal -0.20887835453367687 -0.8135274788695407 0.5427180429389398
    outer loop
      vertex 1.0684856843964528 3.2884608005743963 -3
      vertex 1.0118590987629128 5.3043511539349195 0
      vertex 0.6479069300483323 3.3964470707888124 -3
    endloop
  endfacet
  facet normal -0.3091933158393729 -0.7809331721144779 0.5427180429389401
    outer loop
      vertex 2.299208174451393 4.886066083316505 0
      vertex 1.0684856843964528 3.2884608005743963 -3
      vertex 1.4722137812192322 3.1286135391036596 -3
    endloop
  endfacet
  facet normal -0.4046321138511495 -0.7360230827283051 0.5427180429389399
    outer loop
      vertex 1.8527241872543 2.9194261731781213 -3
      vertex 2.299208174451393 4.886066083316505 0
      vertex 1.4722137812192322 3.1286135391036596 -3
    endloop
  endfacet
  facet normal -0.4936896217119858 -0.6795054696486287 0.5427180429389399
    outer loop
      vertex 1.8527241872543 2.9194261731781213 -3
      vertex 2.2040160260925847 2.6641977125209015 -3
      vertex 2.893464692886582 4.559370797710882 0
    endloop
  endfacet
  facet normal -0.8382575712720258 -0.052738696169432074 0.5427180429389398
    outer loop
      vertex 3.457692307692308 0 -3
      vertex 5.4 0 0
      vertex 3.4304273710835216 0.4333637575934982 -3
    endloop
  endfacet
  facet normal -0.825037748622265 -0.1573843677651352 0.5427180429389399
    outer loop
      vertex 5.357419387098181 0.676799461247243 0
      vertex 3.3490625455947667 0.8598931098507864 -3
      vertex 3.4304273710835216 0.4333637575934982 -3
    endloop
  endfacet
  facet normal -0.79880658782307 -0.25954799386431615 0.5427180429389399
    outer loop
      vertex 5.230349070094608 1.3429253906902159 0
      vertex 3.2148810031289923 1.2728614340904827 -3
      vertex 3.3490625455947667 0.8598931098507864 -3
    endloop
  endfacet
  facet normal -0.6471655929890116 -0.5353819394784513 0.5427180429389399
    outer loop
      vertex 2.5205492155840346 2.3669532624226584 -3
      vertex 2.797331838242607 2.032380545426667 -3
      vertex 4.368691769624717 3.174040362379355 0
    endloop
  endfacet
  facet normal -0.7599777699499796 -0.35761839305380133 0.5427180429389399
    outer loop
      vertex 5.020793023796558 1.9878725844972611 0
      vertex 3.0299988667670514 1.665755973144008 -3
      vertex 3.2148810031289923 1.2728614340904827 -3
    endloop
  endfacet
  facet normal -0.7091636486560635 -0.4500489365539553 0.5427180429389399
    outer loop
      vertex 2.797331838242607 2.032380545426667 -3
      vertex 3.0299988667670514 1.665755973144008 -3
      vertex 4.732056072236864 2.601469840149263 0
    endloop
  endfacet
  facet normal -0.5749613493225367 -0.6122716493957033 0.5427180429389398
    outer loop
      vertex 2.2040160260925847 2.6641977125209015 -3
      vertex 2.5205492155840346 2.3669532624226584 -3
      vertex 3.9364305880756225 3.696554372014919 0
    endloop
  endfacet
  facet normal -0.10526925679910139 -0.8332919713050714 0.5427180429389398
    outer loop
      vertex 0.6479069300483323 3.3964470707888124 -3
      vertex 1.0118590987629128 5.3043511539349195 0
      vertex 0.3390688054582917 5.389344333512667 0
    endloop
  endfacet
  facet normal -0.2088783545336769 -0.8135274788695406 0.5427180429389398
    outer loop
      vertex 1.668691769624716 5.135705187993829 0
      vertex 1.0118590987629128 5.3043511539349195 0
      vertex 1.0684856843964528 3.2884608005743963 -3
    endloop
  endfacet
  facet normal -0.40463211385114944 -0.7360230827283051 0.5427180429389399
    outer loop
      vertex 2.893464692886582 4.559370797710882 0
      vertex 2.299208174451393 4.886066083316505 0
      vertex 1.8527241872543 2.9194261731781213 -3
    endloop
  endfacet
  facet normal -0.3091933158393731 -0.780933172114478 0.5427180429389399
    outer loop
      vertex 2.299208174451393 4.886066083316505 0
      vertex 1.668691769624716 5.135705187993829 0
      vertex 1.0684856843964528 3.2884608005743963 -3
    endloop
  endfacet
  facet normal -0.7091636486560635 -0.45004893655395545 0.5427180429389399
    outer loop
      vertex 4.732056072236864 2.601469840149263 0
      vertex 4.368691769624717 3.174040362379355 0
      vertex 2.797331838242607 2.032380545426667 -3
    endloop
  endfacet
  facet normal -0.8382575712720257 -0.05273869616943137 0.5427180429389399
    outer loop
      vertex 5.4 0 0
      vertex 5.357419387098181 0.676799461247243 0
      vertex 3.4304273710835216 0.4333637575934982 -3
    endloop
  endfacet
  facet normal -0.825037748622265 -0.15738436776513576 0.5427180429389399
    outer loop
      vertex 5.357419387098181 0.676799461247243 0
      vertex 5.230349070094608 1.3429253906902159 0
      vertex 3.3490625455947667 0.8598931098507864 -3
    endloop
  endfacet
  facet normal -0.79880658782307 -0.2595479938643156 0.5427180429389398
    outer loop
      vertex 5.230349070094608 1.3429253906902159 0
      vertex 5.020793023796558 1.9878725844972611 0
      vertex 3.2148810031289923 1.2728614340904827 -3
    endloop
  endfacet
  facet normal -0.7599777699499792 -0.3576183930538017 0.5427180429389399
    outer loop
      vertex 5.020793023796558 1.9878725844972611 0
      vertex 4.732056072236864 2.601469840149263 0
      vertex 3.0299988667670514 1.665755973144008 -3
    endloop
  endfacet
  facet normal -0.5749613493225374 -0.6122716493957024 0.5427180429389399
    outer loop
      vertex 2.2040160260925847 2.6641977125209015 -3
      vertex 3.9364305880756225 3.696554372014919 0
      vertex 3.4420895446429247 4.160771510989262 0
    endloop
  endfacet
  facet normal -0.4936896217119852 -0.679505469648629 0.54271804293894
    outer loop
      vertex 2.2040160260925847 2.6641977125209015 -3
      vertex 3.4420895446429247 4.160771510989262 0
      vertex 2.893464692886582 4.559370797710882 0
    endloop
  endfacet
  facet normal -0.6471655929890116 -0.5353819394784513 0.5427180429389398
    outer loop
      vertex 4.368691769624717 3.174040362379355 0
      vertex 3.9364305880756225 3.696554372014919 0
      vertex 2.5205492155840346 2.3669532624226584 -3
    endloop
  endfacet
endsolid OpenSCAD_Model
