solid OpenSCAD_Model
  facet normal 0.998025 0.062814 0
    outer loop
      vertex 17 0 0
      vertex 16.8659 2.13066 -5
      vertex 16.8659 2.13066 0
    endloop
  endfacet
  facet normal 0.998025 0.062814 0
    outer loop
      vertex 16.8659 2.13066 -5
      vertex 17 0 0
      vertex 17 0 -5
    endloop
  endfacet
  facet normal -0.998025 0.062814 0
    outer loop
      vertex -17 0 -5
      vertex -16.8659 2.13066 0
      vertex -16.8659 2.13066 -5
    endloop
  endfacet
  facet normal -0.998025 0.062814 0
    outer loop
      vertex -16.8659 2.13066 0
      vertex -17 0 -5
      vertex -17 0 0
    endloop
  endfacet
  facet normal 0 1 -0
    outer loop
      vertex 1.06744 16.9665 -5
      vertex -1.06744 16.9665 0
      vertex 1.06744 16.9665 0
    endloop
  endfacet
  facet normal 0 1 0
    outer loop
      vertex -1.06744 16.9665 0
      vertex 1.06744 16.9665 -5
      vertex -1.06744 16.9665 -5
    endloop
  endfacet
  facet normal 0 -1 0
    outer loop
      vertex -1.06744 -16.9665 -5
      vertex 1.06744 -16.9665 0
      vertex -1.06744 -16.9665 0
    endloop
  endfacet
  facet normal 0 -1 -0
    outer loop
      vertex 1.06744 -16.9665 0
      vertex -1.06744 -16.9665 -5
      vertex 1.06744 -16.9665 -5
    endloop
  endfacet
  facet normal 0.684531 0.728983 -0
    outer loop
      vertex 12.3925 11.6373 -5
      vertex 10.8362 13.0987 0
      vertex 12.3925 11.6373 0
    endloop
  endfacet
  facet normal 0.684531 0.728983 0
    outer loop
      vertex 10.8362 13.0987 0
      vertex 12.3925 11.6373 -5
      vertex 10.8362 13.0987 -5
    endloop
  endfacet
  facet normal -0.684531 0.728983 0
    outer loop
      vertex -10.8362 13.0987 -5
      vertex -12.3925 11.6373 0
      vertex -10.8362 13.0987 0
    endloop
  endfacet
  facet normal -0.684531 0.728983 0
    outer loop
      vertex -12.3925 11.6373 0
      vertex -10.8362 13.0987 -5
      vertex -12.3925 11.6373 -5
    endloop
  endfacet
  facet normal -0.368124 0.929777 0
    outer loop
      vertex -5.25329 16.168 -5
      vertex -7.23825 15.3821 0
      vertex -5.25329 16.168 0
    endloop
  endfacet
  facet normal -0.368124 0.929777 0
    outer loop
      vertex -7.23825 15.3821 0
      vertex -5.25329 16.168 -5
      vertex -7.23825 15.3821 -5
    endloop
  endfacet
  facet normal 0.904824 0.425785 0
    outer loop
      vertex 15.8062 6.25812 0
      vertex 14.8972 8.18981 -5
      vertex 14.8972 8.18981 0
    endloop
  endfacet
  facet normal 0.904824 0.425785 0
    outer loop
      vertex 14.8972 8.18981 -5
      vertex 15.8062 6.25812 0
      vertex 15.8062 6.25812 -5
    endloop
  endfacet
  facet normal 0.368124 0.929777 -0
    outer loop
      vertex 7.23825 15.3821 -5
      vertex 5.25329 16.168 0
      vertex 7.23825 15.3821 0
    endloop
  endfacet
  facet normal 0.368124 0.929777 0
    outer loop
      vertex 5.25329 16.168 0
      vertex 7.23825 15.3821 -5
      vertex 5.25329 16.168 -5
    endloop
  endfacet
  facet normal 0.24868 0.968586 -0
    outer loop
      vertex 5.25329 16.168 -5
      vertex 3.18548 16.6989 0
      vertex 5.25329 16.168 0
    endloop
  endfacet
  facet normal 0.24868 0.968586 0
    outer loop
      vertex 3.18548 16.6989 0
      vertex 5.25329 16.168 -5
      vertex 3.18548 16.6989 -5
    endloop
  endfacet
  facet normal 0.481761 0.876303 -0
    outer loop
      vertex 9.10905 14.3536 -5
      vertex 7.23825 15.3821 0
      vertex 9.10905 14.3536 0
    endloop
  endfacet
  facet normal 0.481761 0.876303 0
    outer loop
      vertex 7.23825 15.3821 0
      vertex 9.10905 14.3536 -5
      vertex 7.23825 15.3821 -5
    endloop
  endfacet
  facet normal -0.904824 0.425785 0
    outer loop
      vertex -15.8062 6.25812 -5
      vertex -14.8972 8.18981 0
      vertex -14.8972 8.18981 -5
    endloop
  endfacet
  facet normal -0.904824 0.425785 0
    outer loop
      vertex -14.8972 8.18981 0
      vertex -15.8062 6.25812 -5
      vertex -15.8062 6.25812 0
    endloop
  endfacet
  facet normal 0 0 1
    outer loop
      vertex 16.8659 2.13066 0
      vertex 16.8659 -2.13066 0
      vertex 17 0 0
    endloop
  endfacet
  facet normal 0 0 1
    outer loop
      vertex 16.4659 4.22773 0
      vertex 16.8659 -2.13066 0
      vertex 16.8659 2.13066 0
    endloop
  endfacet
  facet normal 0 0 1
    outer loop
      vertex 16.4659 4.22773 0
      vertex 16.4659 -4.22773 0
      vertex 16.8659 -2.13066 0
    endloop
  endfacet
  facet normal 0 0 1
    outer loop
      vertex 15.8062 6.25812 0
      vertex 16.4659 -4.22773 0
      vertex 16.4659 4.22773 0
    endloop
  endfacet
  facet normal 0 0 1
    outer loop
      vertex 15.8062 6.25812 0
      vertex 15.8062 -6.25812 0
      vertex 16.4659 -4.22773 0
    endloop
  endfacet
  facet normal 0 0 1
    outer loop
      vertex 14.8972 8.18981 0
      vertex 15.8062 -6.25812 0
      vertex 15.8062 6.25812 0
    endloop
  endfacet
  facet normal 0 0 1
    outer loop
      vertex 14.8972 8.18981 0
      vertex 14.8972 -8.18981 0
      vertex 15.8062 -6.25812 0
    endloop
  endfacet
  facet normal 0 0 1
    outer loop
      vertex 13.7533 9.99235 0
      vertex 14.8972 -8.18981 0
      vertex 14.8972 8.18981 0
    endloop
  endfacet
  facet normal 0 0 1
    outer loop
      vertex 13.7533 9.99235 0
      vertex 13.7533 -9.99235 0
      vertex 14.8972 -8.18981 0
    endloop
  endfacet
  facet normal 0 0 1
    outer loop
      vertex 12.3925 11.6373 0
      vertex 13.7533 -9.99235 0
      vertex 13.7533 9.99235 0
    endloop
  endfacet
  facet normal 0 0 1
    outer loop
      vertex 12.3925 11.6373 0
      vertex 12.3925 -11.6373 0
      vertex 13.7533 -9.99235 0
    endloop
  endfacet
  facet normal 0 0 1
    outer loop
      vertex 10.8362 13.0987 0
      vertex 12.3925 -11.6373 0
      vertex 12.3925 11.6373 0
    endloop
  endfacet
  facet normal 0 0 1
    outer loop
      vertex 10.8362 13.0987 0
      vertex 10.8362 -13.0987 0
      vertex 12.3925 -11.6373 0
    endloop
  endfacet
  facet normal 0 0 1
    outer loop
      vertex 9.10905 14.3536 0
      vertex 10.8362 -13.0987 0
      vertex 10.8362 13.0987 0
    endloop
  endfacet
  facet normal 0 0 1
    outer loop
      vertex 9.10905 14.3536 0
      vertex 9.10905 -14.3536 0
      vertex 10.8362 -13.0987 0
    endloop
  endfacet
  facet normal 0 0 1
    outer loop
      vertex 7.23825 15.3821 0
      vertex 9.10905 -14.3536 0
      vertex 9.10905 14.3536 0
    endloop
  endfacet
  facet normal 0 0 1
    outer loop
      vertex 7.23825 15.3821 0
      vertex 7.23825 -15.3821 0
      vertex 9.10905 -14.3536 0
    endloop
  endfacet
  facet normal 0 0 1
    outer loop
      vertex 5.25329 16.168 0
      vertex 7.23825 -15.3821 0
      vertex 7.23825 15.3821 0
    endloop
  endfacet
  facet normal 0 0 1
    outer loop
      vertex 5.25329 16.168 0
      vertex 5.25329 -16.168 0
      vertex 7.23825 -15.3821 0
    endloop
  endfacet
  facet normal 0 0 1
    outer loop
      vertex 3.18548 16.6989 0
      vertex 5.25329 -16.168 0
      vertex 5.25329 16.168 0
    endloop
  endfacet
  facet normal 0 0 1
    outer loop
      vertex 3.18548 16.6989 0
      vertex 3.18548 -16.6989 0
      vertex 5.25329 -16.168 0
    endloop
  endfacet
  facet normal 0 0 1
    outer loop
      vertex 1.06744 16.9665 0
      vertex 3.18548 -16.6989 0
      vertex 3.18548 16.6989 0
    endloop
  endfacet
  facet normal 0 0 1
    outer loop
      vertex 1.06744 16.9665 0
      vertex 1.06744 -16.9665 0
      vertex 3.18548 -16.6989 0
    endloop
  endfacet
  facet normal -0 0 1
    outer loop
      vertex -1.06744 16.9665 0
      vertex 1.06744 -16.9665 0
      vertex 1.06744 16.9665 0
    endloop
  endfacet
  facet normal 0 0 1
    outer loop
      vertex -1.06744 16.9665 0
      vertex -1.06744 -16.9665 0
      vertex 1.06744 -16.9665 0
    endloop
  endfacet
  facet normal -0 0 1
    outer loop
      vertex -3.18548 16.6989 0
      vertex -1.06744 -16.9665 0
      vertex -1.06744 16.9665 0
    endloop
  endfacet
  facet normal 0 0 1
    outer loop
      vertex -3.18548 16.6989 0
      vertex -3.18548 -16.6989 0
      vertex -1.06744 -16.9665 0
    endloop
  endfacet
  facet normal -0 0 1
    outer loop
      vertex -5.25329 16.168 0
      vertex -3.18548 -16.6989 0
      vertex -3.18548 16.6989 0
    endloop
  endfacet
  facet normal 0 0 1
    outer loop
      vertex -5.25329 16.168 0
      vertex -5.25329 -16.168 0
      vertex -3.18548 -16.6989 0
    endloop
  endfacet
  facet normal -0 0 1
    outer loop
      vertex -7.23825 15.3821 0
      vertex -5.25329 -16.168 0
      vertex -5.25329 16.168 0
    endloop
  endfacet
  facet normal 0 0 1
    outer loop
      vertex -7.23825 15.3821 0
      vertex -7.23825 -15.3821 0
      vertex -5.25329 -16.168 0
    endloop
  endfacet
  facet normal -0 0 1
    outer loop
      vertex -9.10905 14.3536 0
      vertex -7.23825 -15.3821 0
      vertex -7.23825 15.3821 0
    endloop
  endfacet
  facet normal 0 0 1
    outer loop
      vertex -9.10905 14.3536 0
      vertex -9.10905 -14.3536 0
      vertex -7.23825 -15.3821 0
    endloop
  endfacet
  facet normal -0 0 1
    outer loop
      vertex -10.8362 13.0987 0
      vertex -9.10905 -14.3536 0
      vertex -9.10905 14.3536 0
    endloop
  endfacet
  facet normal 0 0 1
    outer loop
      vertex -10.8362 13.0987 0
      vertex -10.8362 -13.0987 0
      vertex -9.10905 -14.3536 0
    endloop
  endfacet
  facet normal -0 0 1
    outer loop
      vertex -12.3925 11.6373 0
      vertex -10.8362 -13.0987 0
      vertex -10.8362 13.0987 0
    endloop
  endfacet
  facet normal 0 0 1
    outer loop
      vertex -12.3925 11.6373 0
      vertex -12.3925 -11.6373 0
      vertex -10.8362 -13.0987 0
    endloop
  endfacet
  facet normal -0 0 1
    outer loop
      vertex -13.7533 9.99235 0
      vertex -12.3925 -11.6373 0
      vertex -12.3925 11.6373 0
    endloop
  endfacet
  facet normal 0 0 1
    outer loop
      vertex -13.7533 9.99235 0
      vertex -13.7533 -9.99235 0
      vertex -12.3925 -11.6373 0
    endloop
  endfacet
  facet normal -0 0 1
    outer loop
      vertex -14.8972 8.18981 0
      vertex -13.7533 -9.99235 0
      vertex -13.7533 9.99235 0
    endloop
  endfacet
  facet normal 0 0 1
    outer loop
      vertex -14.8972 8.18981 0
      vertex -14.8972 -8.18981 0
      vertex -13.7533 -9.99235 0
    endloop
  endfacet
  facet normal -0 0 1
    outer loop
      vertex -15.8062 6.25812 0
      vertex -14.8972 -8.18981 0
      vertex -14.8972 8.18981 0
    endloop
  endfacet
  facet normal 0 0 1
    outer loop
      vertex -15.8062 6.25812 0
      vertex -15.8062 -6.25812 0
      vertex -14.8972 -8.18981 0
    endloop
  endfacet
  facet normal -0 0 1
    outer loop
      vertex -16.4659 4.22773 0
      vertex -15.8062 -6.25812 0
      vertex -15.8062 6.25812 0
    endloop
  endfacet
  facet normal 0 0 1
    outer loop
      vertex -16.4659 4.22773 0
      vertex -16.4659 -4.22773 0
      vertex -15.8062 -6.25812 0
    endloop
  endfacet
  facet normal -0 0 1
    outer loop
      vertex -16.8659 2.13066 0
      vertex -16.4659 -4.22773 0
      vertex -16.4659 4.22773 0
    endloop
  endfacet
  facet normal 0 0 1
    outer loop
      vertex -16.8659 2.13066 0
      vertex -16.8659 -2.13066 0
      vertex -16.4659 -4.22773 0
    endloop
  endfacet
  facet normal 0 -0 1
    outer loop
      vertex -16.8659 -2.13066 0
      vertex -16.8659 2.13066 0
      vertex -17 0 0
    endloop
  endfacet
  facet normal -0.125347 0.992113 0
    outer loop
      vertex -1.06744 16.9665 -5
      vertex -3.18548 16.6989 0
      vertex -1.06744 16.9665 0
    endloop
  endfacet
  facet normal -0.125347 0.992113 0
    outer loop
      vertex -3.18548 16.6989 0
      vertex -1.06744 16.9665 -5
      vertex -3.18548 16.6989 -5
    endloop
  endfacet
  facet normal 0 0 -1
    outer loop
      vertex 15.075 0 -5
      vertex 17 0 -5
      vertex 16.8659 -2.13066 -5
    endloop
  endfacet
  facet normal 0 0 -1
    outer loop
      vertex 14.9561 -1.8894 -5
      vertex 16.8659 -2.13066 -5
      vertex 16.4659 -4.22773 -5
    endloop
  endfacet
  facet normal 0 0 -1
    outer loop
      vertex 17 0 -5
      vertex 15.075 0 -5
      vertex 16.8659 2.13066 -5
    endloop
  endfacet
  facet normal 0 0 -1
    outer loop
      vertex 14.6014 -3.749 -5
      vertex 16.4659 -4.22773 -5
      vertex 15.8062 -6.25812 -5
    endloop
  endfacet
  facet normal 0 0 -1
    outer loop
      vertex 14.9561 1.8894 -5
      vertex 16.8659 2.13066 -5
      vertex 15.075 0 -5
    endloop
  endfacet
  facet normal -0 0 -1
    outer loop
      vertex 16.8659 2.13066 -5
      vertex 14.9561 1.8894 -5
      vertex 16.4659 4.22773 -5
    endloop
  endfacet
  facet normal 0 0 -1
    outer loop
      vertex 16.8659 -2.13066 -5
      vertex 14.9561 -1.8894 -5
      vertex 15.075 0 -5
    endloop
  endfacet
  facet normal 0 0 -1
    outer loop
      vertex 14.0164 -5.54948 -5
      vertex 15.8062 -6.25812 -5
      vertex 14.8972 -8.18981 -5
    endloop
  endfacet
  facet normal 0 0 -1
    outer loop
      vertex 16.4659 -4.22773 -5
      vertex 14.6014 -3.749 -5
      vertex 14.9561 -1.8894 -5
    endloop
  endfacet
  facet normal 0 0 -1
    outer loop
      vertex 15.8062 -6.25812 -5
      vertex 14.0164 -5.54948 -5
      vertex 14.6014 -3.749 -5
    endloop
  endfacet
  facet normal 0 0 -1
    outer loop
      vertex 13.2103 -7.26244 -5
      vertex 14.8972 -8.18981 -5
      vertex 13.7533 -9.99235 -5
    endloop
  endfacet
  facet normal 0 0 -1
    outer loop
      vertex 14.8972 -8.18981 -5
      vertex 13.2103 -7.26244 -5
      vertex 14.0164 -5.54948 -5
    endloop
  endfacet
  facet normal 0 0 -1
    outer loop
      vertex 12.1959 -8.86086 -5
      vertex 13.7533 -9.99235 -5
      vertex 12.3925 -11.6373 -5
    endloop
  endfacet
  facet normal 0 0 -1
    outer loop
      vertex 13.7533 -9.99235 -5
      vertex 12.1959 -8.86086 -5
      vertex 13.2103 -7.26244 -5
    endloop
  endfacet
  facet normal 0 0 -1
    outer loop
      vertex 12.3925 -11.6373 -5
      vertex 10.9892 -10.3195 -5
      vertex 12.1959 -8.86086 -5
    endloop
  endfacet
  facet normal 0 0 -1
    outer loop
      vertex 10.8362 -13.0987 -5
      vertex 10.9892 -10.3195 -5
      vertex 12.3925 -11.6373 -5
    endloop
  endfacet
  facet normal 0 0 -1
    outer loop
      vertex 10.8362 -13.0987 -5
      vertex 9.60917 -11.6155 -5
      vertex 10.9892 -10.3195 -5
    endloop
  endfacet
  facet normal 0 0 -1
    outer loop
      vertex 9.10905 -14.3536 -5
      vertex 9.60917 -11.6155 -5
      vertex 10.8362 -13.0987 -5
    endloop
  endfacet
  facet normal 0 0 -1
    outer loop
      vertex 9.10905 -14.3536 -5
      vertex 8.07759 -12.7282 -5
      vertex 9.60917 -11.6155 -5
    endloop
  endfacet
  facet normal 0 0 -1
    outer loop
      vertex 7.23825 -15.3821 -5
      vertex 8.07759 -12.7282 -5
      vertex 9.10905 -14.3536 -5
    endloop
  endfacet
  facet normal 0 0 -1
    outer loop
      vertex 7.23825 -15.3821 -5
      vertex 6.41862 -13.6403 -5
      vertex 8.07759 -12.7282 -5
    endloop
  endfacet
  facet normal 0 0 -1
    outer loop
      vertex 5.25329 -16.168 -5
      vertex 6.41862 -13.6403 -5
      vertex 7.23825 -15.3821 -5
    endloop
  endfacet
  facet normal 0 0 -1
    outer loop
      vertex 5.25329 -16.168 -5
      vertex 4.65843 -14.3372 -5
      vertex 6.41862 -13.6403 -5
    endloop
  endfacet
  facet normal 0 0 -1
    outer loop
      vertex 3.18548 -16.6989 -5
      vertex 4.65843 -14.3372 -5
      vertex 5.25329 -16.168 -5
    endloop
  endfacet
  facet normal 0 0 -1
    outer loop
      vertex 3.18548 -16.6989 -5
      vertex 2.82477 -14.808 -5
      vertex 4.65843 -14.3372 -5
    endloop
  endfacet
  facet normal 0 0 -1
    outer loop
      vertex 1.06744 -16.9665 -5
      vertex 2.82477 -14.808 -5
      vertex 3.18548 -16.6989 -5
    endloop
  endfacet
  facet normal 0 0 -1
    outer loop
      vertex 1.06744 -16.9665 -5
      vertex 0.946567 -15.0453 -5
      vertex 2.82477 -14.808 -5
    endloop
  endfacet
  facet normal 0 0 -1
    outer loop
      vertex 1.06744 -16.9665 -5
      vertex -0.946567 -15.0453 -5
      vertex 0.946567 -15.0453 -5
    endloop
  endfacet
  facet normal 0 0 -1
    outer loop
      vertex -1.06744 -16.9665 -5
      vertex -0.946567 -15.0453 -5
      vertex 1.06744 -16.9665 -5
    endloop
  endfacet
  facet normal 0 0 -1
    outer loop
      vertex -1.06744 -16.9665 -5
      vertex -2.82477 -14.808 -5
      vertex -0.946567 -15.0453 -5
    endloop
  endfacet
  facet normal 0 0 -1
    outer loop
      vertex -3.18548 -16.6989 -5
      vertex -2.82477 -14.808 -5
      vertex -1.06744 -16.9665 -5
    endloop
  endfacet
  facet normal 0 0 -1
    outer loop
      vertex -3.18548 -16.6989 -5
      vertex -4.65843 -14.3372 -5
      vertex -2.82477 -14.808 -5
    endloop
  endfacet
  facet normal 0 0 -1
    outer loop
      vertex -5.25329 -16.168 -5
      vertex -4.65843 -14.3372 -5
      vertex -3.18548 -16.6989 -5
    endloop
  endfacet
  facet normal 0 0 -1
    outer loop
      vertex -5.25329 -16.168 -5
      vertex -6.41862 -13.6403 -5
      vertex -4.65843 -14.3372 -5
    endloop
  endfacet
  facet normal 0 0 -1
    outer loop
      vertex -7.23825 -15.3821 -5
      vertex -6.41862 -13.6403 -5
      vertex -5.25329 -16.168 -5
    endloop
  endfacet
  facet normal 0 0 -1
    outer loop
      vertex -7.23825 -15.3821 -5
      vertex -8.07759 -12.7282 -5
      vertex -6.41862 -13.6403 -5
    endloop
  endfacet
  facet normal 0 0 -1
    outer loop
      vertex -9.10905 -14.3536 -5
      vertex -8.07759 -12.7282 -5
      vertex -7.23825 -15.3821 -5
    endloop
  endfacet
  facet normal 0 0 -1
    outer loop
      vertex -9.10905 -14.3536 -5
      vertex -9.60917 -11.6155 -5
      vertex -8.07759 -12.7282 -5
    endloop
  endfacet
  facet normal 0 0 -1
    outer loop
      vertex -10.8362 -13.0987 -5
      vertex -9.60917 -11.6155 -5
      vertex -9.10905 -14.3536 -5
    endloop
  endfacet
  facet normal 0 0 -1
    outer loop
      vertex -10.8362 -13.0987 -5
      vertex -10.9892 -10.3195 -5
      vertex -9.60917 -11.6155 -5
    endloop
  endfacet
  facet normal 0 0 -1
    outer loop
      vertex -12.3925 -11.6373 -5
      vertex -10.9892 -10.3195 -5
      vertex -10.8362 -13.0987 -5
    endloop
  endfacet
  facet normal -0 0 -1
    outer loop
      vertex -10.9892 -10.3195 -5
      vertex -12.3925 -11.6373 -5
      vertex -12.1959 -8.86086 -5
    endloop
  endfacet
  facet normal 0 0 -1
    outer loop
      vertex -13.7533 -9.99235 -5
      vertex -12.1959 -8.86086 -5
      vertex -12.3925 -11.6373 -5
    endloop
  endfacet
  facet normal -0 0 -1
    outer loop
      vertex -12.1959 -8.86086 -5
      vertex -13.7533 -9.99235 -5
      vertex -13.2103 -7.26244 -5
    endloop
  endfacet
  facet normal 0 0 -1
    outer loop
      vertex -14.8972 -8.18981 -5
      vertex -13.2103 -7.26244 -5
      vertex -13.7533 -9.99235 -5
    endloop
  endfacet
  facet normal -0 0 -1
    outer loop
      vertex -13.2103 -7.26244 -5
      vertex -14.8972 -8.18981 -5
      vertex -14.0164 -5.54948 -5
    endloop
  endfacet
  facet normal 0 0 -1
    outer loop
      vertex -15.8062 -6.25812 -5
      vertex -14.0164 -5.54948 -5
      vertex -14.8972 -8.18981 -5
    endloop
  endfacet
  facet normal -0 0 -1
    outer loop
      vertex -14.0164 -5.54948 -5
      vertex -15.8062 -6.25812 -5
      vertex -14.6014 -3.749 -5
    endloop
  endfacet
  facet normal 0 0 -1
    outer loop
      vertex -16.4659 -4.22773 -5
      vertex -14.6014 -3.749 -5
      vertex -15.8062 -6.25812 -5
    endloop
  endfacet
  facet normal -0 0 -1
    outer loop
      vertex -14.6014 -3.749 -5
      vertex -16.4659 -4.22773 -5
      vertex -14.9561 -1.8894 -5
    endloop
  endfacet
  facet normal 0 0 -1
    outer loop
      vertex 14.6014 3.749 -5
      vertex 16.4659 4.22773 -5
      vertex 14.9561 1.8894 -5
    endloop
  endfacet
  facet normal -0 0 -1
    outer loop
      vertex 16.4659 4.22773 -5
      vertex 14.6014 3.749 -5
      vertex 15.8062 6.25812 -5
    endloop
  endfacet
  facet normal 0 0 -1
    outer loop
      vertex 14.0164 5.54948 -5
      vertex 15.8062 6.25812 -5
      vertex 14.6014 3.749 -5
    endloop
  endfacet
  facet normal -0 0 -1
    outer loop
      vertex 15.8062 6.25812 -5
      vertex 14.0164 5.54948 -5
      vertex 14.8972 8.18981 -5
    endloop
  endfacet
  facet normal 0 0 -1
    outer loop
      vertex 13.2103 7.26244 -5
      vertex 14.8972 8.18981 -5
      vertex 14.0164 5.54948 -5
    endloop
  endfacet
  facet normal -0 0 -1
    outer loop
      vertex 14.8972 8.18981 -5
      vertex 13.2103 7.26244 -5
      vertex 13.7533 9.99235 -5
    endloop
  endfacet
  facet normal 0 0 -1
    outer loop
      vertex 12.1959 8.86086 -5
      vertex 13.7533 9.99235 -5
      vertex 13.2103 7.26244 -5
    endloop
  endfacet
  facet normal -0 0 -1
    outer loop
      vertex 13.7533 9.99235 -5
      vertex 12.1959 8.86086 -5
      vertex 12.3925 11.6373 -5
    endloop
  endfacet
  facet normal 0 0 -1
    outer loop
      vertex 10.9892 10.3195 -5
      vertex 12.3925 11.6373 -5
      vertex 12.1959 8.86086 -5
    endloop
  endfacet
  facet normal 0 0 -1
    outer loop
      vertex 10.9892 10.3195 -5
      vertex 10.8362 13.0987 -5
      vertex 12.3925 11.6373 -5
    endloop
  endfacet
  facet normal 0 0 -1
    outer loop
      vertex 9.60917 11.6155 -5
      vertex 10.8362 13.0987 -5
      vertex 10.9892 10.3195 -5
    endloop
  endfacet
  facet normal 0 0 -1
    outer loop
      vertex 9.60917 11.6155 -5
      vertex 9.10905 14.3536 -5
      vertex 10.8362 13.0987 -5
    endloop
  endfacet
  facet normal 0 0 -1
    outer loop
      vertex 8.07759 12.7282 -5
      vertex 9.10905 14.3536 -5
      vertex 9.60917 11.6155 -5
    endloop
  endfacet
  facet normal 0 0 -1
    outer loop
      vertex 8.07759 12.7282 -5
      vertex 7.23825 15.3821 -5
      vertex 9.10905 14.3536 -5
    endloop
  endfacet
  facet normal 0 0 -1
    outer loop
      vertex 6.41862 13.6403 -5
      vertex 7.23825 15.3821 -5
      vertex 8.07759 12.7282 -5
    endloop
  endfacet
  facet normal 0 0 -1
    outer loop
      vertex 6.41862 13.6403 -5
      vertex 5.25329 16.168 -5
      vertex 7.23825 15.3821 -5
    endloop
  endfacet
  facet normal 0 0 -1
    outer loop
      vertex 4.65843 14.3372 -5
      vertex 5.25329 16.168 -5
      vertex 6.41862 13.6403 -5
    endloop
  endfacet
  facet normal 0 0 -1
    outer loop
      vertex 4.65843 14.3372 -5
      vertex 3.18548 16.6989 -5
      vertex 5.25329 16.168 -5
    endloop
  endfacet
  facet normal 0 0 -1
    outer loop
      vertex 2.82477 14.808 -5
      vertex 3.18548 16.6989 -5
      vertex 4.65843 14.3372 -5
    endloop
  endfacet
  facet normal 0 0 -1
    outer loop
      vertex 2.82477 14.808 -5
      vertex 1.06744 16.9665 -5
      vertex 3.18548 16.6989 -5
    endloop
  endfacet
  facet normal 0 0 -1
    outer loop
      vertex 0.946567 15.0453 -5
      vertex 1.06744 16.9665 -5
      vertex 2.82477 14.808 -5
    endloop
  endfacet
  facet normal 0 0 -1
    outer loop
      vertex -0.946567 15.0453 -5
      vertex 1.06744 16.9665 -5
      vertex 0.946567 15.0453 -5
    endloop
  endfacet
  facet normal 0 0 -1
    outer loop
      vertex -0.946567 15.0453 -5
      vertex -1.06744 16.9665 -5
      vertex 1.06744 16.9665 -5
    endloop
  endfacet
  facet normal 0 0 -1
    outer loop
      vertex -2.82477 14.808 -5
      vertex -1.06744 16.9665 -5
      vertex -0.946567 15.0453 -5
    endloop
  endfacet
  facet normal 0 0 -1
    outer loop
      vertex -2.82477 14.808 -5
      vertex -3.18548 16.6989 -5
      vertex -1.06744 16.9665 -5
    endloop
  endfacet
  facet normal 0 0 -1
    outer loop
      vertex -4.65843 14.3372 -5
      vertex -3.18548 16.6989 -5
      vertex -2.82477 14.808 -5
    endloop
  endfacet
  facet normal 0 0 -1
    outer loop
      vertex -4.65843 14.3372 -5
      vertex -5.25329 16.168 -5
      vertex -3.18548 16.6989 -5
    endloop
  endfacet
  facet normal 0 0 -1
    outer loop
      vertex -6.41862 13.6403 -5
      vertex -5.25329 16.168 -5
      vertex -4.65843 14.3372 -5
    endloop
  endfacet
  facet normal 0 0 -1
    outer loop
      vertex -6.41862 13.6403 -5
      vertex -7.23825 15.3821 -5
      vertex -5.25329 16.168 -5
    endloop
  endfacet
  facet normal 0 0 -1
    outer loop
      vertex -8.07759 12.7282 -5
      vertex -7.23825 15.3821 -5
      vertex -6.41862 13.6403 -5
    endloop
  endfacet
  facet normal 0 0 -1
    outer loop
      vertex -8.07759 12.7282 -5
      vertex -9.10905 14.3536 -5
      vertex -7.23825 15.3821 -5
    endloop
  endfacet
  facet normal 0 0 -1
    outer loop
      vertex -9.60917 11.6155 -5
      vertex -9.10905 14.3536 -5
      vertex -8.07759 12.7282 -5
    endloop
  endfacet
  facet normal 0 0 -1
    outer loop
      vertex -9.60917 11.6155 -5
      vertex -10.8362 13.0987 -5
      vertex -9.10905 14.3536 -5
    endloop
  endfacet
  facet normal 0 0 -1
    outer loop
      vertex -10.9892 10.3195 -5
      vertex -10.8362 13.0987 -5
      vertex -9.60917 11.6155 -5
    endloop
  endfacet
  facet normal 0 0 -1
    outer loop
      vertex -12.3925 11.6373 -5
      vertex -10.9892 10.3195 -5
      vertex -12.1959 8.86086 -5
    endloop
  endfacet
  facet normal 0 0 -1
    outer loop
      vertex -10.9892 10.3195 -5
      vertex -12.3925 11.6373 -5
      vertex -10.8362 13.0987 -5
    endloop
  endfacet
  facet normal 0 0 -1
    outer loop
      vertex -13.7533 9.99235 -5
      vertex -12.1959 8.86086 -5
      vertex -13.2103 7.26244 -5
    endloop
  endfacet
  facet normal 0 0 -1
    outer loop
      vertex -12.1959 8.86086 -5
      vertex -13.7533 9.99235 -5
      vertex -12.3925 11.6373 -5
    endloop
  endfacet
  facet normal 0 0 -1
    outer loop
      vertex -14.8972 8.18981 -5
      vertex -13.2103 7.26244 -5
      vertex -14.0164 5.54948 -5
    endloop
  endfacet
  facet normal 0 0 -1
    outer loop
      vertex -15.8062 6.25812 -5
      vertex -14.0164 5.54948 -5
      vertex -14.6014 3.749 -5
    endloop
  endfacet
  facet normal 0 0 -1
    outer loop
      vertex -13.2103 7.26244 -5
      vertex -14.8972 8.18981 -5
      vertex -13.7533 9.99235 -5
    endloop
  endfacet
  facet normal 0 0 -1
    outer loop
      vertex -16.4659 4.22773 -5
      vertex -14.6014 3.749 -5
      vertex -14.9561 1.8894 -5
    endloop
  endfacet
  facet normal 0 0 -1
    outer loop
      vertex -16.8659 2.13066 -5
      vertex -14.9561 1.8894 -5
      vertex -15.075 0 -5
    endloop
  endfacet
  facet normal 0 0 -1
    outer loop
      vertex -16.8659 -2.13066 -5
      vertex -14.9561 -1.8894 -5
      vertex -16.4659 -4.22773 -5
    endloop
  endfacet
  facet normal 0 0 -1
    outer loop
      vertex -14.0164 5.54948 -5
      vertex -15.8062 6.25812 -5
      vertex -14.8972 8.18981 -5
    endloop
  endfacet
  facet normal -0 0 -1
    outer loop
      vertex -14.9561 -1.8894 -5
      vertex -16.8659 -2.13066 -5
      vertex -15.075 0 -5
    endloop
  endfacet
  facet normal 0 0 -1
    outer loop
      vertex -14.6014 3.749 -5
      vertex -16.4659 4.22773 -5
      vertex -15.8062 6.25812 -5
    endloop
  endfacet
  facet normal 0 0 -1
    outer loop
      vertex -17 0 -5
      vertex -15.075 0 -5
      vertex -16.8659 -2.13066 -5
    endloop
  endfacet
  facet normal 0 0 -1
    outer loop
      vertex -14.9561 1.8894 -5
      vertex -16.8659 2.13066 -5
      vertex -16.4659 4.22773 -5
    endloop
  endfacet
  facet normal 0 0 -1
    outer loop
      vertex -15.075 0 -5
      vertex -17 0 -5
      vertex -16.8659 2.13066 -5
    endloop
  endfacet
  facet normal 0.125347 -0.992113 0
    outer loop
      vertex 1.06744 -16.9665 -5
      vertex 3.18548 -16.6989 0
      vertex 1.06744 -16.9665 0
    endloop
  endfacet
  facet normal 0.125347 -0.992113 0
    outer loop
      vertex 3.18548 -16.6989 0
      vertex 1.06744 -16.9665 -5
      vertex 3.18548 -16.6989 -5
    endloop
  endfacet
  facet normal 0.951058 0.309011 0
    outer loop
      vertex 16.4659 4.22773 0
      vertex 15.8062 6.25812 -5
      vertex 15.8062 6.25812 0
    endloop
  endfacet
  facet normal 0.951058 0.309011 0
    outer loop
      vertex 15.8062 6.25812 -5
      vertex 16.4659 4.22773 0
      vertex 16.4659 4.22773 -5
    endloop
  endfacet
  facet normal 0.98229 0.187364 0
    outer loop
      vertex 16.8659 2.13066 0
      vertex 16.4659 4.22773 -5
      vertex 16.4659 4.22773 0
    endloop
  endfacet
  facet normal 0.98229 0.187364 0
    outer loop
      vertex 16.4659 4.22773 -5
      vertex 16.8659 2.13066 0
      vertex 16.8659 2.13066 -5
    endloop
  endfacet
  facet normal 0.770518 0.637418 0
    outer loop
      vertex 13.7533 9.99235 0
      vertex 12.3925 11.6373 -5
      vertex 12.3925 11.6373 0
    endloop
  endfacet
  facet normal 0.770518 0.637418 0
    outer loop
      vertex 12.3925 11.6373 -5
      vertex 13.7533 9.99235 0
      vertex 13.7533 9.99235 -5
    endloop
  endfacet
  facet normal 0.844334 0.535818 0
    outer loop
      vertex 14.8972 8.18981 0
      vertex 13.7533 9.99235 -5
      vertex 13.7533 9.99235 0
    endloop
  endfacet
  facet normal 0.844334 0.535818 0
    outer loop
      vertex 13.7533 9.99235 -5
      vertex 14.8972 8.18981 0
      vertex 14.8972 8.18981 -5
    endloop
  endfacet
  facet normal 0.125347 0.992113 -0
    outer loop
      vertex 3.18548 16.6989 -5
      vertex 1.06744 16.9665 0
      vertex 3.18548 16.6989 0
    endloop
  endfacet
  facet normal 0.125347 0.992113 0
    outer loop
      vertex 1.06744 16.9665 0
      vertex 3.18548 16.6989 -5
      vertex 1.06744 16.9665 -5
    endloop
  endfacet
  facet normal 0.587801 0.809005 -0
    outer loop
      vertex 10.8362 13.0987 -5
      vertex 9.10905 14.3536 0
      vertex 10.8362 13.0987 0
    endloop
  endfacet
  facet normal 0.587801 0.809005 0
    outer loop
      vertex 9.10905 14.3536 0
      vertex 10.8362 13.0987 -5
      vertex 9.10905 14.3536 -5
    endloop
  endfacet
  facet normal -0.844334 0.535818 0
    outer loop
      vertex -14.8972 8.18981 -5
      vertex -13.7533 9.99235 0
      vertex -13.7533 9.99235 -5
    endloop
  endfacet
  facet normal -0.844334 0.535818 0
    outer loop
      vertex -13.7533 9.99235 0
      vertex -14.8972 8.18981 -5
      vertex -14.8972 8.18981 0
    endloop
  endfacet
  facet normal -0.770518 0.637418 0
    outer loop
      vertex -13.7533 9.99235 -5
      vertex -12.3925 11.6373 0
      vertex -12.3925 11.6373 -5
    endloop
  endfacet
  facet normal -0.770518 0.637418 0
    outer loop
      vertex -12.3925 11.6373 0
      vertex -13.7533 9.99235 -5
      vertex -13.7533 9.99235 0
    endloop
  endfacet
  facet normal -0.951058 0.309011 0
    outer loop
      vertex -16.4659 4.22773 -5
      vertex -15.8062 6.25812 0
      vertex -15.8062 6.25812 -5
    endloop
  endfacet
  facet normal -0.951058 0.309011 0
    outer loop
      vertex -15.8062 6.25812 0
      vertex -16.4659 4.22773 -5
      vertex -16.4659 4.22773 0
    endloop
  endfacet
  facet normal -0.98229 0.187364 0
    outer loop
      vertex -16.8659 2.13066 -5
      vertex -16.4659 4.22773 0
      vertex -16.4659 4.22773 -5
    endloop
  endfacet
  facet normal -0.98229 0.187364 0
    outer loop
      vertex -16.4659 4.22773 0
      vertex -16.8659 2.13066 -5
      vertex -16.8659 2.13066 0
    endloop
  endfacet
  facet normal -0.481761 0.876303 0
    outer loop
      vertex -7.23825 15.3821 -5
      vertex -9.10905 14.3536 0
      vertex -7.23825 15.3821 0
    endloop
  endfacet
  facet normal -0.481761 0.876303 0
    outer loop
      vertex -9.10905 14.3536 0
      vertex -7.23825 15.3821 -5
      vertex -9.10905 14.3536 -5
    endloop
  endfacet
  facet normal -0.587801 0.809005 0
    outer loop
      vertex -9.10905 14.3536 -5
      vertex -10.8362 13.0987 0
      vertex -9.10905 14.3536 0
    endloop
  endfacet
  facet normal -0.587801 0.809005 0
    outer loop
      vertex -10.8362 13.0987 0
      vertex -9.10905 14.3536 -5
      vertex -10.8362 13.0987 -5
    endloop
  endfacet
  facet normal -0.24868 0.968586 0
    outer loop
      vertex -3.18548 16.6989 -5
      vertex -5.25329 16.168 0
      vertex -3.18548 16.6989 0
    endloop
  endfacet
  facet normal -0.24868 0.968586 0
    outer loop
      vertex -5.25329 16.168 0
      vertex -3.18548 16.6989 -5
      vertex -5.25329 16.168 -5
    endloop
  endfacet
  facet normal 0.998025 -0.062814 0
    outer loop
      vertex 16.8659 -2.13066 0
      vertex 17 0 -5
      vertex 17 0 0
    endloop
  endfacet
  facet normal 0.998025 -0.062814 0
    outer loop
      vertex 17 0 -5
      vertex 16.8659 -2.13066 0
      vertex 16.8659 -2.13066 -5
    endloop
  endfacet
  facet normal 0.904824 -0.425785 0
    outer loop
      vertex 14.8972 -8.18981 0
      vertex 15.8062 -6.25812 -5
      vertex 15.8062 -6.25812 0
    endloop
  endfacet
  facet normal 0.904824 -0.425785 0
    outer loop
      vertex 15.8062 -6.25812 -5
      vertex 14.8972 -8.18981 0
      vertex 14.8972 -8.18981 -5
    endloop
  endfacet
  facet normal -0.684531 -0.728983 0
    outer loop
      vertex -12.3925 -11.6373 -5
      vertex -10.8362 -13.0987 0
      vertex -12.3925 -11.6373 0
    endloop
  endfacet
  facet normal -0.684531 -0.728983 -0
    outer loop
      vertex -10.8362 -13.0987 0
      vertex -12.3925 -11.6373 -5
      vertex -10.8362 -13.0987 -5
    endloop
  endfacet
  facet normal -0.904824 -0.425785 0
    outer loop
      vertex -14.8972 -8.18981 -5
      vertex -15.8062 -6.25812 0
      vertex -15.8062 -6.25812 -5
    endloop
  endfacet
  facet normal -0.904824 -0.425785 0
    outer loop
      vertex -15.8062 -6.25812 0
      vertex -14.8972 -8.18981 -5
      vertex -14.8972 -8.18981 0
    endloop
  endfacet
  facet normal -0.844334 -0.535818 0
    outer loop
      vertex -13.7533 -9.99235 -5
      vertex -14.8972 -8.18981 0
      vertex -14.8972 -8.18981 -5
    endloop
  endfacet
  facet normal -0.844334 -0.535818 0
    outer loop
      vertex -14.8972 -8.18981 0
      vertex -13.7533 -9.99235 -5
      vertex -13.7533 -9.99235 0
    endloop
  endfacet
  facet normal 0.481761 -0.876303 0
    outer loop
      vertex 7.23825 -15.3821 -5
      vertex 9.10905 -14.3536 0
      vertex 7.23825 -15.3821 0
    endloop
  endfacet
  facet normal 0.481761 -0.876303 0
    outer loop
      vertex 9.10905 -14.3536 0
      vertex 7.23825 -15.3821 -5
      vertex 9.10905 -14.3536 -5
    endloop
  endfacet
  facet normal 0.951058 -0.309011 0
    outer loop
      vertex 15.8062 -6.25812 0
      vertex 16.4659 -4.22773 -5
      vertex 16.4659 -4.22773 0
    endloop
  endfacet
  facet normal 0.951058 -0.309011 0
    outer loop
      vertex 16.4659 -4.22773 -5
      vertex 15.8062 -6.25812 0
      vertex 15.8062 -6.25812 -5
    endloop
  endfacet
  facet normal -0.770518 -0.637418 0
    outer loop
      vertex -12.3925 -11.6373 -5
      vertex -13.7533 -9.99235 0
      vertex -13.7533 -9.99235 -5
    endloop
  endfacet
  facet normal -0.770518 -0.637418 0
    outer loop
      vertex -13.7533 -9.99235 0
      vertex -12.3925 -11.6373 -5
      vertex -12.3925 -11.6373 0
    endloop
  endfacet
  facet normal -0.98229 -0.187364 0
    outer loop
      vertex -16.4659 -4.22773 -5
      vertex -16.8659 -2.13066 0
      vertex -16.8659 -2.13066 -5
    endloop
  endfacet
  facet normal -0.98229 -0.187364 0
    outer loop
      vertex -16.8659 -2.13066 0
      vertex -16.4659 -4.22773 -5
      vertex -16.4659 -4.22773 0
    endloop
  endfacet
  facet normal -0.998025 -0.062814 0
    outer loop
      vertex -16.8659 -2.13066 -5
      vertex -17 0 0
      vertex -17 0 -5
    endloop
  endfacet
  facet normal -0.998025 -0.062814 0
    outer loop
      vertex -17 0 0
      vertex -16.8659 -2.13066 -5
      vertex -16.8659 -2.13066 0
    endloop
  endfacet
  facet normal -0.951058 -0.309011 0
    outer loop
      vertex -15.8062 -6.25812 -5
      vertex -16.4659 -4.22773 0
      vertex -16.4659 -4.22773 -5
    endloop
  endfacet
  facet normal -0.951058 -0.309011 0
    outer loop
      vertex -16.4659 -4.22773 0
      vertex -15.8062 -6.25812 -5
      vertex -15.8062 -6.25812 0
    endloop
  endfacet
  facet normal 0.684531 -0.728983 0
    outer loop
      vertex 10.8362 -13.0987 -5
      vertex 12.3925 -11.6373 0
      vertex 10.8362 -13.0987 0
    endloop
  endfacet
  facet normal 0.684531 -0.728983 0
    outer loop
      vertex 12.3925 -11.6373 0
      vertex 10.8362 -13.0987 -5
      vertex 12.3925 -11.6373 -5
    endloop
  endfacet
  facet normal 0.368124 -0.929777 0
    outer loop
      vertex 5.25329 -16.168 -5
      vertex 7.23825 -15.3821 0
      vertex 5.25329 -16.168 0
    endloop
  endfacet
  facet normal 0.368124 -0.929777 0
    outer loop
      vertex 7.23825 -15.3821 0
      vertex 5.25329 -16.168 -5
      vertex 7.23825 -15.3821 -5
    endloop
  endfacet
  facet normal 0.24868 -0.968586 0
    outer loop
      vertex 3.18548 -16.6989 -5
      vertex 5.25329 -16.168 0
      vertex 3.18548 -16.6989 0
    endloop
  endfacet
  facet normal 0.24868 -0.968586 0
    outer loop
      vertex 5.25329 -16.168 0
      vertex 3.18548 -16.6989 -5
      vertex 5.25329 -16.168 -5
    endloop
  endfacet
  facet normal 0.98229 -0.187364 0
    outer loop
      vertex 16.4659 -4.22773 0
      vertex 16.8659 -2.13066 -5
      vertex 16.8659 -2.13066 0
    endloop
  endfacet
  facet normal 0.98229 -0.187364 0
    outer loop
      vertex 16.8659 -2.13066 -5
      vertex 16.4659 -4.22773 0
      vertex 16.4659 -4.22773 -5
    endloop
  endfacet
  facet normal 0.844334 -0.535818 0
    outer loop
      vertex 13.7533 -9.99235 0
      vertex 14.8972 -8.18981 -5
      vertex 14.8972 -8.18981 0
    endloop
  endfacet
  facet normal 0.844334 -0.535818 0
    outer loop
      vertex 14.8972 -8.18981 -5
      vertex 13.7533 -9.99235 0
      vertex 13.7533 -9.99235 -5
    endloop
  endfacet
  facet normal 0.770518 -0.637418 0
    outer loop
      vertex 12.3925 -11.6373 0
      vertex 13.7533 -9.99235 -5
      vertex 13.7533 -9.99235 0
    endloop
  endfacet
  facet normal 0.770518 -0.637418 0
    outer loop
      vertex 13.7533 -9.99235 -5
      vertex 12.3925 -11.6373 0
      vertex 12.3925 -11.6373 -5
    endloop
  endfacet
  facet normal -0.125347 -0.992113 0
    outer loop
      vertex -3.18548 -16.6989 -5
      vertex -1.06744 -16.9665 0
      vertex -3.18548 -16.6989 0
    endloop
  endfacet
  facet normal -0.125347 -0.992113 -0
    outer loop
      vertex -1.06744 -16.9665 0
      vertex -3.18548 -16.6989 -5
      vertex -1.06744 -16.9665 -5
    endloop
  endfacet
  facet normal -0.368124 -0.929777 0
    outer loop
      vertex -7.23825 -15.3821 -5
      vertex -5.25329 -16.168 0
      vertex -7.23825 -15.3821 0
    endloop
  endfacet
  facet normal -0.368124 -0.929777 -0
    outer loop
      vertex -5.25329 -16.168 0
      vertex -7.23825 -15.3821 -5
      vertex -5.25329 -16.168 -5
    endloop
  endfacet
  facet normal -0.587801 -0.809005 0
    outer loop
      vertex -10.8362 -13.0987 -5
      vertex -9.10905 -14.3536 0
      vertex -10.8362 -13.0987 0
    endloop
  endfacet
  facet normal -0.587801 -0.809005 -0
    outer loop
      vertex -9.10905 -14.3536 0
      vertex -10.8362 -13.0987 -5
      vertex -9.10905 -14.3536 -5
    endloop
  endfacet
  facet normal 0.587801 -0.809005 0
    outer loop
      vertex 9.10905 -14.3536 -5
      vertex 10.8362 -13.0987 0
      vertex 9.10905 -14.3536 0
    endloop
  endfacet
  facet normal 0.587801 -0.809005 0
    outer loop
      vertex 10.8362 -13.0987 0
      vertex 9.10905 -14.3536 -5
      vertex 10.8362 -13.0987 -5
    endloop
  endfacet
  facet normal -0.24868 -0.968586 0
    outer loop
      vertex -5.25329 -16.168 -5
      vertex -3.18548 -16.6989 0
      vertex -5.25329 -16.168 0
    endloop
  endfacet
  facet normal -0.24868 -0.968586 -0
    outer loop
      vertex -3.18548 -16.6989 0
      vertex -5.25329 -16.168 -5
      vertex -3.18548 -16.6989 -5
    endloop
  endfacet
  facet normal -0.481761 -0.876303 0
    outer loop
      vertex -9.10905 -14.3536 -5
      vertex -7.23825 -15.3821 0
      vertex -9.10905 -14.3536 0
    endloop
  endfacet
  facet normal -0.481761 -0.876303 -0
    outer loop
      vertex -7.23825 -15.3821 0
      vertex -9.10905 -14.3536 -5
      vertex -7.23825 -15.3821 -5
    endloop
  endfacet
  facet normal -0.996785 -0.0627277 -0.0498393
    outer loop
      vertex 14.9561 1.8894 -5
      vertex 15.075 0 -5
      vertex 14.925 0 -2
    endloop
  endfacet
  facet normal 0.125171 -0.990881 -0.049871
    outer loop
      vertex -0.946567 15.0453 -5
      vertex -0.937148 14.8955 -2
      vertex -2.79667 14.6606 -2
    endloop
  endfacet
  facet normal -0.683671 -0.728086 -0.0498465
    outer loop
      vertex 9.60917 11.6155 -5
      vertex 10.8799 10.2169 -2
      vertex 9.51355 11.4999 -2
    endloop
  endfacet
  facet normal -0.903695 -0.425269 -0.0498265
    outer loop
      vertex 13.2103 7.26244 -5
      vertex 14.0164 5.54948 -5
      vertex 13.0789 7.19017 -2
    endloop
  endfacet
  facet normal 0.996785 -0.0627277 -0.0498393
    outer loop
      vertex -14.9561 1.8894 -5
      vertex -14.925 0 -2
      vertex -15.075 0 -5
    endloop
  endfacet
  facet normal 0.248379 -0.967379 -0.049857
    outer loop
      vertex -2.82477 14.808 -5
      vertex -2.79667 14.6606 -2
      vertex -4.65843 14.3372 -5
    endloop
  endfacet
  facet normal 0.367663 -0.928621 -0.0498619
    outer loop
      vertex -4.65843 14.3372 -5
      vertex -6.35476 13.5045 -2
      vertex -6.41862 13.6403 -5
    endloop
  endfacet
  facet normal -0.903709 -0.425235 -0.0498496
    outer loop
      vertex 14.0164 5.54948 -5
      vertex 13.8769 5.49426 -2
      vertex 13.0789 7.19017 -2
    endloop
  endfacet
  facet normal -0.981068 -0.187144 -0.0498337
    outer loop
      vertex 14.9561 1.8894 -5
      vertex 14.8073 1.8706 -2
      vertex 14.4561 3.7117 -2
    endloop
  endfacet
  facet normal 0.98107 0.187129 -0.0498431
    outer loop
      vertex -14.4561 -3.7117 -2
      vertex -14.6014 -3.749 -5
      vertex -14.9561 -1.8894 -5
    endloop
  endfacet
  facet normal 0.683716 0.728047 -0.0498092
    outer loop
      vertex -10.8799 -10.2169 -2
      vertex -9.60917 -11.6155 -5
      vertex -10.9892 -10.3195 -5
    endloop
  endfacet
  facet normal 0.683671 0.728086 -0.0498465
    outer loop
      vertex -9.51355 -11.4999 -2
      vertex -9.60917 -11.6155 -5
      vertex -10.8799 -10.2169 -2
    endloop
  endfacet
  facet normal 0.125192 0.990879 -0.0498578
    outer loop
      vertex -2.79667 -14.6606 -2
      vertex -0.946567 -15.0453 -5
      vertex -2.82477 -14.808 -5
    endloop
  endfacet
  facet normal -0.58706 0.808008 -0.0498468
    outer loop
      vertex 9.51355 -11.4999 -2
      vertex 9.60917 -11.6155 -5
      vertex 7.99721 -12.6016 -2
    endloop
  endfacet
  facet normal -0.996785 0.0627277 -0.0498393
    outer loop
      vertex 15.075 0 -5
      vertex 14.9561 -1.8894 -5
      vertex 14.925 0 -2
    endloop
  endfacet
  facet normal 0.843276 -0.535166 -0.049825
    outer loop
      vertex -12.1959 8.86086 -5
      vertex -12.0746 8.77269 -2
      vertex -13.2103 7.26244 -5
    endloop
  endfacet
  facet normal 0.769554 -0.636635 -0.0498263
    outer loop
      vertex -10.9892 10.3195 -5
      vertex -12.0746 8.77269 -2
      vertex -12.1959 8.86086 -5
    endloop
  endfacet
  facet normal -0.248372 -0.967381 -0.0498524
    outer loop
      vertex 4.65843 14.3372 -5
      vertex 4.61208 14.1945 -2
      vertex 2.79667 14.6606 -2
    endloop
  endfacet
  facet normal 0 -0.998756 -0.0498712
    outer loop
      vertex -0.946567 15.0453 -5
      vertex 0.937148 14.8955 -2
      vertex -0.937148 14.8955 -2
    endloop
  endfacet
  facet normal 0 -0.998756 -0.0498712
    outer loop
      vertex 0.937148 14.8955 -2
      vertex -0.946567 15.0453 -5
      vertex 0.946567 15.0453 -5
    endloop
  endfacet
  facet normal -0.769571 -0.636616 -0.0498103
    outer loop
      vertex 10.9892 10.3195 -5
      vertex 12.0746 8.77269 -2
      vertex 10.8799 10.2169 -2
    endloop
  endfacet
  facet normal -0.949876 -0.308627 -0.04985
    outer loop
      vertex 14.0164 5.54948 -5
      vertex 14.6014 3.749 -5
      vertex 13.8769 5.49426 -2
    endloop
  endfacet
  facet normal -0.996786 -0.0627188 -0.0498336
    outer loop
      vertex 14.9561 1.8894 -5
      vertex 14.925 0 -2
      vertex 14.8073 1.8706 -2
    endloop
  endfacet
  facet normal 0.949876 -0.308627 -0.04985
    outer loop
      vertex -14.0164 5.54948 -5
      vertex -13.8769 5.49426 -2
      vertex -14.6014 3.749 -5
    endloop
  endfacet
  facet normal 0.481185 0.875202 -0.0498261
    outer loop
      vertex -7.99721 -12.6016 -2
      vertex -6.41862 -13.6403 -5
      vertex -8.07759 -12.7282 -5
    endloop
  endfacet
  facet normal 0 0.998756 -0.0498712
    outer loop
      vertex 0.946567 -15.0453 -5
      vertex -0.937148 -14.8955 -2
      vertex 0.937148 -14.8955 -2
    endloop
  endfacet
  facet normal 0 0.998756 -0.0498712
    outer loop
      vertex -0.937148 -14.8955 -2
      vertex 0.946567 -15.0453 -5
      vertex -0.946567 -15.0453 -5
    endloop
  endfacet
  facet normal 0.367663 0.928621 -0.0498619
    outer loop
      vertex -6.35476 -13.5045 -2
      vertex -4.65843 -14.3372 -5
      vertex -6.41862 -13.6403 -5
    endloop
  endfacet
  facet normal -0.367663 0.928621 -0.0498619
    outer loop
      vertex 6.35476 -13.5045 -2
      vertex 6.41862 -13.6403 -5
      vertex 4.65843 -14.3372 -5
    endloop
  endfacet
  facet normal -0.903709 0.425235 -0.0498496
    outer loop
      vertex 13.8769 -5.49426 -2
      vertex 14.0164 -5.54948 -5
      vertex 13.0789 -7.19017 -2
    endloop
  endfacet
  facet normal -0.769554 0.636635 -0.0498263
    outer loop
      vertex 12.0746 -8.77269 -2
      vertex 12.1959 -8.86086 -5
      vertex 10.9892 -10.3195 -5
    endloop
  endfacet
  facet normal 0.125192 -0.990879 -0.0498578
    outer loop
      vertex -0.946567 15.0453 -5
      vertex -2.79667 14.6606 -2
      vertex -2.82477 14.808 -5
    endloop
  endfacet
  facet normal 0.481136 -0.875227 -0.0498604
    outer loop
      vertex -6.41862 13.6403 -5
      vertex -6.35476 13.5045 -2
      vertex -7.99721 12.6016 -2
    endloop
  endfacet
  facet normal 0.58706 -0.808008 -0.0498468
    outer loop
      vertex -7.99721 12.6016 -2
      vertex -9.51355 11.4999 -2
      vertex -9.60917 11.6155 -5
    endloop
  endfacet
  facet normal 0.683716 -0.728047 -0.0498092
    outer loop
      vertex -9.60917 11.6155 -5
      vertex -10.8799 10.2169 -2
      vertex -10.9892 10.3195 -5
    endloop
  endfacet
  facet normal -0.367663 -0.928621 -0.0498619
    outer loop
      vertex 6.41862 13.6403 -5
      vertex 6.35476 13.5045 -2
      vertex 4.65843 14.3372 -5
    endloop
  endfacet
  facet normal -0.481136 -0.875227 -0.0498604
    outer loop
      vertex 6.41862 13.6403 -5
      vertex 7.99721 12.6016 -2
      vertex 6.35476 13.5045 -2
    endloop
  endfacet
  facet normal -0.843276 -0.535166 -0.049825
    outer loop
      vertex 12.1959 8.86086 -5
      vertex 13.2103 7.26244 -5
      vertex 12.0746 8.77269 -2
    endloop
  endfacet
  facet normal -0.769554 -0.636635 -0.0498263
    outer loop
      vertex 12.1959 8.86086 -5
      vertex 12.0746 8.77269 -2
      vertex 10.9892 10.3195 -5
    endloop
  endfacet
  facet normal -0.683716 -0.728047 -0.0498092
    outer loop
      vertex 10.9892 10.3195 -5
      vertex 10.8799 10.2169 -2
      vertex 9.60917 11.6155 -5
    endloop
  endfacet
  facet normal -0.949873 -0.308638 -0.0498429
    outer loop
      vertex 14.6014 3.749 -5
      vertex 14.4561 3.7117 -2
      vertex 13.8769 5.49426 -2
    endloop
  endfacet
  facet normal -0.98107 -0.187129 -0.0498431
    outer loop
      vertex 14.6014 3.749 -5
      vertex 14.9561 1.8894 -5
      vertex 14.4561 3.7117 -2
    endloop
  endfacet
  facet normal 0.843276 0.535166 -0.049825
    outer loop
      vertex -12.0746 -8.77269 -2
      vertex -12.1959 -8.86086 -5
      vertex -13.2103 -7.26244 -5
    endloop
  endfacet
  facet normal 0.903695 0.425269 -0.0498265
    outer loop
      vertex -13.0789 -7.19017 -2
      vertex -13.2103 -7.26244 -5
      vertex -14.0164 -5.54948 -5
    endloop
  endfacet
  facet normal 0.996785 0.0627277 -0.0498393
    outer loop
      vertex -14.925 0 -2
      vertex -14.9561 -1.8894 -5
      vertex -15.075 0 -5
    endloop
  endfacet
  facet normal 0 0 -1
    outer loop
      vertex 14.8073 -1.8706 -2
      vertex 14.8073 1.8706 -2
      vertex 14.925 0 -2
    endloop
  endfacet
  facet normal 0 0 -1
    outer loop
      vertex 14.4561 -3.7117 -2
      vertex 14.8073 1.8706 -2
      vertex 14.8073 -1.8706 -2
    endloop
  endfacet
  facet normal 0 0 -1
    outer loop
      vertex 14.4561 -3.7117 -2
      vertex 14.4561 3.7117 -2
      vertex 14.8073 1.8706 -2
    endloop
  endfacet
  facet normal 0 0 -1
    outer loop
      vertex 13.8769 -5.49426 -2
      vertex 14.4561 3.7117 -2
      vertex 14.4561 -3.7117 -2
    endloop
  endfacet
  facet normal 0 0 -1
    outer loop
      vertex 13.8769 -5.49426 -2
      vertex 13.8769 5.49426 -2
      vertex 14.4561 3.7117 -2
    endloop
  endfacet
  facet normal 0 0 -1
    outer loop
      vertex 13.0789 -7.19017 -2
      vertex 13.8769 5.49426 -2
      vertex 13.8769 -5.49426 -2
    endloop
  endfacet
  facet normal 0 0 -1
    outer loop
      vertex 13.0789 -7.19017 -2
      vertex 13.0789 7.19017 -2
      vertex 13.8769 5.49426 -2
    endloop
  endfacet
  facet normal 0 0 -1
    outer loop
      vertex 12.0746 -8.77269 -2
      vertex 13.0789 7.19017 -2
      vertex 13.0789 -7.19017 -2
    endloop
  endfacet
  facet normal 0 0 -1
    outer loop
      vertex 12.0746 -8.77269 -2
      vertex 12.0746 8.77269 -2
      vertex 13.0789 7.19017 -2
    endloop
  endfacet
  facet normal 0 0 -1
    outer loop
      vertex 10.8799 -10.2169 -2
      vertex 12.0746 8.77269 -2
      vertex 12.0746 -8.77269 -2
    endloop
  endfacet
  facet normal 0 0 -1
    outer loop
      vertex 10.8799 -10.2169 -2
      vertex 10.8799 10.2169 -2
      vertex 12.0746 8.77269 -2
    endloop
  endfacet
  facet normal 0 0 -1
    outer loop
      vertex 9.51355 -11.4999 -2
      vertex 10.8799 10.2169 -2
      vertex 10.8799 -10.2169 -2
    endloop
  endfacet
  facet normal 0 0 -1
    outer loop
      vertex 9.51355 -11.4999 -2
      vertex 9.51355 11.4999 -2
      vertex 10.8799 10.2169 -2
    endloop
  endfacet
  facet normal 0 0 -1
    outer loop
      vertex 7.99721 -12.6016 -2
      vertex 9.51355 11.4999 -2
      vertex 9.51355 -11.4999 -2
    endloop
  endfacet
  facet normal 0 0 -1
    outer loop
      vertex 7.99721 -12.6016 -2
      vertex 7.99721 12.6016 -2
      vertex 9.51355 11.4999 -2
    endloop
  endfacet
  facet normal 0 0 -1
    outer loop
      vertex 6.35476 -13.5045 -2
      vertex 7.99721 12.6016 -2
      vertex 7.99721 -12.6016 -2
    endloop
  endfacet
  facet normal 0 0 -1
    outer loop
      vertex 6.35476 -13.5045 -2
      vertex 6.35476 13.5045 -2
      vertex 7.99721 12.6016 -2
    endloop
  endfacet
  facet normal 0 0 -1
    outer loop
      vertex 4.61208 -14.1945 -2
      vertex 6.35476 13.5045 -2
      vertex 6.35476 -13.5045 -2
    endloop
  endfacet
  facet normal 0 0 -1
    outer loop
      vertex 4.61208 -14.1945 -2
      vertex 4.61208 14.1945 -2
      vertex 6.35476 13.5045 -2
    endloop
  endfacet
  facet normal 0 0 -1
    outer loop
      vertex 2.79667 -14.6606 -2
      vertex 4.61208 14.1945 -2
      vertex 4.61208 -14.1945 -2
    endloop
  endfacet
  facet normal 0 0 -1
    outer loop
      vertex 2.79667 -14.6606 -2
      vertex 2.79667 14.6606 -2
      vertex 4.61208 14.1945 -2
    endloop
  endfacet
  facet normal 0 0 -1
    outer loop
      vertex 0.937148 -14.8955 -2
      vertex 2.79667 14.6606 -2
      vertex 2.79667 -14.6606 -2
    endloop
  endfacet
  facet normal 0 0 -1
    outer loop
      vertex 0.937148 -14.8955 -2
      vertex 0.937148 14.8955 -2
      vertex 2.79667 14.6606 -2
    endloop
  endfacet
  facet normal 0 0 -1
    outer loop
      vertex -0.937148 -14.8955 -2
      vertex 0.937148 14.8955 -2
      vertex 0.937148 -14.8955 -2
    endloop
  endfacet
  facet normal 0 0 -1
    outer loop
      vertex -0.937148 -14.8955 -2
      vertex -0.937148 14.8955 -2
      vertex 0.937148 14.8955 -2
    endloop
  endfacet
  facet normal 0 0 -1
    outer loop
      vertex -2.79667 -14.6606 -2
      vertex -0.937148 14.8955 -2
      vertex -0.937148 -14.8955 -2
    endloop
  endfacet
  facet normal 0 0 -1
    outer loop
      vertex -2.79667 -14.6606 -2
      vertex -2.79667 14.6606 -2
      vertex -0.937148 14.8955 -2
    endloop
  endfacet
  facet normal 0 0 -1
    outer loop
      vertex -4.61208 -14.1945 -2
      vertex -2.79667 14.6606 -2
      vertex -2.79667 -14.6606 -2
    endloop
  endfacet
  facet normal 0 0 -1
    outer loop
      vertex -4.61208 -14.1945 -2
      vertex -4.61208 14.1945 -2
      vertex -2.79667 14.6606 -2
    endloop
  endfacet
  facet normal 0 0 -1
    outer loop
      vertex -6.35476 -13.5045 -2
      vertex -4.61208 14.1945 -2
      vertex -4.61208 -14.1945 -2
    endloop
  endfacet
  facet normal 0 0 -1
    outer loop
      vertex -6.35476 -13.5045 -2
      vertex -6.35476 13.5045 -2
      vertex -4.61208 14.1945 -2
    endloop
  endfacet
  facet normal 0 0 -1
    outer loop
      vertex -7.99721 -12.6016 -2
      vertex -6.35476 13.5045 -2
      vertex -6.35476 -13.5045 -2
    endloop
  endfacet
  facet normal 0 0 -1
    outer loop
      vertex -7.99721 -12.6016 -2
      vertex -7.99721 12.6016 -2
      vertex -6.35476 13.5045 -2
    endloop
  endfacet
  facet normal 0 0 -1
    outer loop
      vertex -9.51355 -11.4999 -2
      vertex -7.99721 12.6016 -2
      vertex -7.99721 -12.6016 -2
    endloop
  endfacet
  facet normal 0 0 -1
    outer loop
      vertex -9.51355 -11.4999 -2
      vertex -9.51355 11.4999 -2
      vertex -7.99721 12.6016 -2
    endloop
  endfacet
  facet normal 0 0 -1
    outer loop
      vertex -10.8799 -10.2169 -2
      vertex -9.51355 11.4999 -2
      vertex -9.51355 -11.4999 -2
    endloop
  endfacet
  facet normal 0 0 -1
    outer loop
      vertex -10.8799 -10.2169 -2
      vertex -10.8799 10.2169 -2
      vertex -9.51355 11.4999 -2
    endloop
  endfacet
  facet normal 0 0 -1
    outer loop
      vertex -12.0746 -8.77269 -2
      vertex -10.8799 10.2169 -2
      vertex -10.8799 -10.2169 -2
    endloop
  endfacet
  facet normal 0 0 -1
    outer loop
      vertex -12.0746 -8.77269 -2
      vertex -12.0746 8.77269 -2
      vertex -10.8799 10.2169 -2
    endloop
  endfacet
  facet normal 0 0 -1
    outer loop
      vertex -13.0789 -7.19017 -2
      vertex -12.0746 8.77269 -2
      vertex -12.0746 -8.77269 -2
    endloop
  endfacet
  facet normal 0 0 -1
    outer loop
      vertex -13.0789 -7.19017 -2
      vertex -13.0789 7.19017 -2
      vertex -12.0746 8.77269 -2
    endloop
  endfacet
  facet normal 0 0 -1
    outer loop
      vertex -13.8769 -5.49426 -2
      vertex -13.0789 7.19017 -2
      vertex -13.0789 -7.19017 -2
    endloop
  endfacet
  facet normal 0 0 -1
    outer loop
      vertex -13.8769 -5.49426 -2
      vertex -13.8769 5.49426 -2
      vertex -13.0789 7.19017 -2
    endloop
  endfacet
  facet normal 0 0 -1
    outer loop
      vertex -14.4561 -3.7117 -2
      vertex -13.8769 5.49426 -2
      vertex -13.8769 -5.49426 -2
    endloop
  endfacet
  facet normal 0 0 -1
    outer loop
      vertex -14.4561 -3.7117 -2
      vertex -14.4561 3.7117 -2
      vertex -13.8769 5.49426 -2
    endloop
  endfacet
  facet normal 0 0 -1
    outer loop
      vertex -14.8073 -1.8706 -2
      vertex -14.4561 3.7117 -2
      vertex -14.4561 -3.7117 -2
    endloop
  endfacet
  facet normal 0 0 -1
    outer loop
      vertex -14.8073 -1.8706 -2
      vertex -14.8073 1.8706 -2
      vertex -14.4561 3.7117 -2
    endloop
  endfacet
  facet normal 0 -0 -1
    outer loop
      vertex -14.8073 1.8706 -2
      vertex -14.8073 -1.8706 -2
      vertex -14.925 0 -2
    endloop
  endfacet
  facet normal 0.843279 -0.535162 -0.0498277
    outer loop
      vertex -12.0746 8.77269 -2
      vertex -13.0789 7.19017 -2
      vertex -13.2103 7.26244 -5
    endloop
  endfacet
  facet normal -0.248372 0.967381 -0.0498524
    outer loop
      vertex 4.61208 -14.1945 -2
      vertex 4.65843 -14.3372 -5
      vertex 2.79667 -14.6606 -2
    endloop
  endfacet
  facet normal -0.367678 0.928616 -0.0498518
    outer loop
      vertex 6.35476 -13.5045 -2
      vertex 4.65843 -14.3372 -5
      vertex 4.61208 -14.1945 -2
    endloop
  endfacet
  facet normal 0.125171 0.990881 -0.049871
    outer loop
      vertex -0.937148 -14.8955 -2
      vertex -0.946567 -15.0453 -5
      vertex -2.79667 -14.6606 -2
    endloop
  endfacet
  facet normal 0.58706 0.808008 -0.0498468
    outer loop
      vertex -9.51355 -11.4999 -2
      vertex -7.99721 -12.6016 -2
      vertex -9.60917 -11.6155 -5
    endloop
  endfacet
  facet normal 0.587035 0.808027 -0.0498274
    outer loop
      vertex -7.99721 -12.6016 -2
      vertex -8.07759 -12.7282 -5
      vertex -9.60917 -11.6155 -5
    endloop
  endfacet
  facet normal 0.248379 0.967379 -0.049857
    outer loop
      vertex -2.79667 -14.6606 -2
      vertex -2.82477 -14.808 -5
      vertex -4.65843 -14.3372 -5
    endloop
  endfacet
  facet normal 0.481136 0.875227 -0.0498604
    outer loop
      vertex -6.35476 -13.5045 -2
      vertex -6.41862 -13.6403 -5
      vertex -7.99721 -12.6016 -2
    endloop
  endfacet
  facet normal -0.481136 0.875227 -0.0498604
    outer loop
      vertex 7.99721 -12.6016 -2
      vertex 6.41862 -13.6403 -5
      vertex 6.35476 -13.5045 -2
    endloop
  endfacet
  facet normal -0.683671 0.728086 -0.0498465
    outer loop
      vertex 10.8799 -10.2169 -2
      vertex 9.60917 -11.6155 -5
      vertex 9.51355 -11.4999 -2
    endloop
  endfacet
  facet normal -0.843276 0.535166 -0.049825
    outer loop
      vertex 13.2103 -7.26244 -5
      vertex 12.1959 -8.86086 -5
      vertex 12.0746 -8.77269 -2
    endloop
  endfacet
  facet normal -0.981068 0.187144 -0.0498337
    outer loop
      vertex 14.8073 -1.8706 -2
      vertex 14.9561 -1.8894 -5
      vertex 14.4561 -3.7117 -2
    endloop
  endfacet
  facet normal -0.949876 0.308627 -0.04985
    outer loop
      vertex 14.6014 -3.749 -5
      vertex 14.0164 -5.54948 -5
      vertex 13.8769 -5.49426 -2
    endloop
  endfacet
  facet normal -0.996786 0.0627188 -0.0498336
    outer loop
      vertex 14.925 0 -2
      vertex 14.9561 -1.8894 -5
      vertex 14.8073 -1.8706 -2
    endloop
  endfacet
  facet normal 0.367678 -0.928616 -0.0498518
    outer loop
      vertex -4.65843 14.3372 -5
      vertex -4.61208 14.1945 -2
      vertex -6.35476 13.5045 -2
    endloop
  endfacet
  facet normal 0.587035 -0.808027 -0.0498274
    outer loop
      vertex -8.07759 12.7282 -5
      vertex -7.99721 12.6016 -2
      vertex -9.60917 11.6155 -5
    endloop
  endfacet
  facet normal 0.481185 -0.875202 -0.0498261
    outer loop
      vertex -6.41862 13.6403 -5
      vertex -7.99721 12.6016 -2
      vertex -8.07759 12.7282 -5
    endloop
  endfacet
  facet normal 0.769571 -0.636616 -0.0498103
    outer loop
      vertex -10.9892 10.3195 -5
      vertex -10.8799 10.2169 -2
      vertex -12.0746 8.77269 -2
    endloop
  endfacet
  facet normal 0.683671 -0.728086 -0.0498465
    outer loop
      vertex -9.60917 11.6155 -5
      vertex -9.51355 11.4999 -2
      vertex -10.8799 10.2169 -2
    endloop
  endfacet
  facet normal -0.58706 -0.808008 -0.0498468
    outer loop
      vertex 9.60917 11.6155 -5
      vertex 9.51355 11.4999 -2
      vertex 7.99721 12.6016 -2
    endloop
  endfacet
  facet normal -0.481185 -0.875202 -0.0498261
    outer loop
      vertex 8.07759 12.7282 -5
      vertex 7.99721 12.6016 -2
      vertex 6.41862 13.6403 -5
    endloop
  endfacet
  facet normal -0.587035 -0.808027 -0.0498274
    outer loop
      vertex 8.07759 12.7282 -5
      vertex 9.60917 11.6155 -5
      vertex 7.99721 12.6016 -2
    endloop
  endfacet
  facet normal -0.367678 -0.928616 -0.0498518
    outer loop
      vertex 4.65843 14.3372 -5
      vertex 6.35476 13.5045 -2
      vertex 4.61208 14.1945 -2
    endloop
  endfacet
  facet normal -0.125192 -0.990879 -0.0498578
    outer loop
      vertex 2.82477 14.808 -5
      vertex 2.79667 14.6606 -2
      vertex 0.946567 15.0453 -5
    endloop
  endfacet
  facet normal -0.248379 -0.967379 -0.049857
    outer loop
      vertex 2.82477 14.808 -5
      vertex 4.65843 14.3372 -5
      vertex 2.79667 14.6606 -2
    endloop
  endfacet
  facet normal -0.125171 -0.990881 -0.049871
    outer loop
      vertex 0.946567 15.0453 -5
      vertex 2.79667 14.6606 -2
      vertex 0.937148 14.8955 -2
    endloop
  endfacet
  facet normal -0.843279 -0.535162 -0.0498277
    outer loop
      vertex 13.2103 7.26244 -5
      vertex 13.0789 7.19017 -2
      vertex 12.0746 8.77269 -2
    endloop
  endfacet
  facet normal 0.843279 0.535162 -0.0498277
    outer loop
      vertex -13.0789 -7.19017 -2
      vertex -12.0746 -8.77269 -2
      vertex -13.2103 -7.26244 -5
    endloop
  endfacet
  facet normal 0.949876 0.308627 -0.04985
    outer loop
      vertex -13.8769 -5.49426 -2
      vertex -14.0164 -5.54948 -5
      vertex -14.6014 -3.749 -5
    endloop
  endfacet
  facet normal 0.949873 0.308638 -0.0498429
    outer loop
      vertex -14.4561 -3.7117 -2
      vertex -13.8769 -5.49426 -2
      vertex -14.6014 -3.749 -5
    endloop
  endfacet
  facet normal 0.996786 0.0627188 -0.0498336
    outer loop
      vertex -14.925 0 -2
      vertex -14.8073 -1.8706 -2
      vertex -14.9561 -1.8894 -5
    endloop
  endfacet
  facet normal 0.981068 0.187144 -0.0498337
    outer loop
      vertex -14.8073 -1.8706 -2
      vertex -14.4561 -3.7117 -2
      vertex -14.9561 -1.8894 -5
    endloop
  endfacet
  facet normal 0.98107 -0.187129 -0.0498431
    outer loop
      vertex -14.6014 3.749 -5
      vertex -14.4561 3.7117 -2
      vertex -14.9561 1.8894 -5
    endloop
  endfacet
  facet normal 0.949873 -0.308638 -0.0498429
    outer loop
      vertex -13.8769 5.49426 -2
      vertex -14.4561 3.7117 -2
      vertex -14.6014 3.749 -5
    endloop
  endfacet
  facet normal 0.981068 -0.187144 -0.0498337
    outer loop
      vertex -14.4561 3.7117 -2
      vertex -14.8073 1.8706 -2
      vertex -14.9561 1.8894 -5
    endloop
  endfacet
  facet normal 0.996786 -0.0627188 -0.0498336
    outer loop
      vertex -14.8073 1.8706 -2
      vertex -14.925 0 -2
      vertex -14.9561 1.8894 -5
    endloop
  endfacet
  facet normal -0.125171 0.990881 -0.049871
    outer loop
      vertex 2.79667 -14.6606 -2
      vertex 0.946567 -15.0453 -5
      vertex 0.937148 -14.8955 -2
    endloop
  endfacet
  facet normal 0.367678 0.928616 -0.0498518
    outer loop
      vertex -4.61208 -14.1945 -2
      vertex -4.65843 -14.3372 -5
      vertex -6.35476 -13.5045 -2
    endloop
  endfacet
  facet normal 0.248372 0.967381 -0.0498524
    outer loop
      vertex -4.61208 -14.1945 -2
      vertex -2.79667 -14.6606 -2
      vertex -4.65843 -14.3372 -5
    endloop
  endfacet
  facet normal -0.481185 0.875202 -0.0498261
    outer loop
      vertex 7.99721 -12.6016 -2
      vertex 8.07759 -12.7282 -5
      vertex 6.41862 -13.6403 -5
    endloop
  endfacet
  facet normal -0.587035 0.808027 -0.0498274
    outer loop
      vertex 9.60917 -11.6155 -5
      vertex 8.07759 -12.7282 -5
      vertex 7.99721 -12.6016 -2
    endloop
  endfacet
  facet normal -0.769571 0.636616 -0.0498103
    outer loop
      vertex 12.0746 -8.77269 -2
      vertex 10.9892 -10.3195 -5
      vertex 10.8799 -10.2169 -2
    endloop
  endfacet
  facet normal -0.683716 0.728047 -0.0498092
    outer loop
      vertex 10.8799 -10.2169 -2
      vertex 10.9892 -10.3195 -5
      vertex 9.60917 -11.6155 -5
    endloop
  endfacet
  facet normal -0.843279 0.535162 -0.0498277
    outer loop
      vertex 13.0789 -7.19017 -2
      vertex 13.2103 -7.26244 -5
      vertex 12.0746 -8.77269 -2
    endloop
  endfacet
  facet normal -0.903695 0.425269 -0.0498265
    outer loop
      vertex 14.0164 -5.54948 -5
      vertex 13.2103 -7.26244 -5
      vertex 13.0789 -7.19017 -2
    endloop
  endfacet
  facet normal -0.949873 0.308638 -0.0498429
    outer loop
      vertex 14.4561 -3.7117 -2
      vertex 14.6014 -3.749 -5
      vertex 13.8769 -5.49426 -2
    endloop
  endfacet
  facet normal -0.98107 0.187129 -0.0498431
    outer loop
      vertex 14.9561 -1.8894 -5
      vertex 14.6014 -3.749 -5
      vertex 14.4561 -3.7117 -2
    endloop
  endfacet
  facet normal 0.248372 -0.967381 -0.0498524
    outer loop
      vertex -2.79667 14.6606 -2
      vertex -4.61208 14.1945 -2
      vertex -4.65843 14.3372 -5
    endloop
  endfacet
  facet normal 0.903695 -0.425269 -0.0498265
    outer loop
      vertex -13.2103 7.26244 -5
      vertex -13.0789 7.19017 -2
      vertex -14.0164 5.54948 -5
    endloop
  endfacet
  facet normal 0.903709 -0.425235 -0.0498496
    outer loop
      vertex -13.0789 7.19017 -2
      vertex -13.8769 5.49426 -2
      vertex -14.0164 5.54948 -5
    endloop
  endfacet
  facet normal 0.769554 0.636635 -0.0498263
    outer loop
      vertex -12.0746 -8.77269 -2
      vertex -10.9892 -10.3195 -5
      vertex -12.1959 -8.86086 -5
    endloop
  endfacet
  facet normal 0.769571 0.636616 -0.0498103
    outer loop
      vertex -10.8799 -10.2169 -2
      vertex -10.9892 -10.3195 -5
      vertex -12.0746 -8.77269 -2
    endloop
  endfacet
  facet normal -0.125192 0.990879 -0.0498578
    outer loop
      vertex 2.79667 -14.6606 -2
      vertex 2.82477 -14.808 -5
      vertex 0.946567 -15.0453 -5
    endloop
  endfacet
  facet normal -0.248379 0.967379 -0.049857
    outer loop
      vertex 4.65843 -14.3372 -5
      vertex 2.82477 -14.808 -5
      vertex 2.79667 -14.6606 -2
    endloop
  endfacet
  facet normal 0.903709 0.425235 -0.0498496
    outer loop
      vertex -13.8769 -5.49426 -2
      vertex -13.0789 -7.19017 -2
      vertex -14.0164 -5.54948 -5
    endloop
  endfacet
endsolid OpenSCAD_Model
