solid OpenSCAD_Model
  facet normal 0.996787 0.0627103 -0.0498393
    outer loop
      vertex 6.175 0 -3
      vertex 6.12631 0.773932 -3
      vertex 6.325 0 0
    endloop
  endfacet
  facet normal 0 -0.998757 -0.0498413
    outer loop
      vertex -0.387731 -6.16281 -3
      vertex 0.397149 -6.31252 0
      vertex -0.397149 -6.31252 0
    endloop
  endfacet
  facet normal 0 -0.998757 -0.0498413
    outer loop
      vertex 0.397149 -6.31252 0
      vertex -0.387731 -6.16281 -3
      vertex 0.387731 -6.16281 -3
    endloop
  endfacet
  facet normal 0.996786 -0.0627194 -0.049837
    outer loop
      vertex 6.27512 -0.792732 0
      vertex 6.12631 -0.773932 -3
      vertex 6.325 0 0
    endloop
  endfacet
  facet normal -0.996787 -0.0627103 -0.0498393
    outer loop
      vertex -6.12631 -0.773932 -3
      vertex -6.325 0 0
      vertex -6.175 0 -3
    endloop
  endfacet
  facet normal 0.125176 0.990882 -0.0498413
    outer loop
      vertex 1.15708 6.06562 -3
      vertex 0.387731 6.16281 -3
      vertex 0.397149 6.31252 0
    endloop
  endfacet
  facet normal 0.9037 0.425256 -0.0498405
    outer loop
      vertex 5.74137 2.27317 -3
      vertex 5.54264 3.04709 0
      vertex 5.88084 2.32839 0
    endloop
  endfacet
  facet normal 0.683704 -0.728056 -0.0498382
    outer loop
      vertex 4.50138 -4.22708 -3
      vertex 4.17551 -4.73846 0
      vertex 4.03171 -4.8735 0
    endloop
  endfacet
  facet normal 0.683697 -0.728062 -0.0498399
    outer loop
      vertex 4.17551 -4.73846 0
      vertex 4.50138 -4.22708 -3
      vertex 4.61073 -4.32976 0
    endloop
  endfacet
  facet normal 0.248381 -0.967379 -0.0498396
    outer loop
      vertex 1.95453 -6.01543 0
      vertex 1.15708 -6.06562 -3
      vertex 1.90818 -5.87277 -3
    endloop
  endfacet
  facet normal -0.996786 0.0627194 -0.049837
    outer loop
      vertex -6.12631 0.773932 -3
      vertex -6.325 0 0
      vertex -6.27512 0.792732 0
    endloop
  endfacet
  facet normal 0.683699 0.72806 -0.0498399
    outer loop
      vertex 4.50138 4.22708 -3
      vertex 4.03171 4.8735 0
      vertex 4.61073 4.32976 0
    endloop
  endfacet
  facet normal 0.981068 0.187141 -0.049837
    outer loop
      vertex 6.12631 0.773932 -3
      vertex 6.12629 1.57296 0
      vertex 6.27512 0.792732 0
    endloop
  endfacet
  facet normal 0.9037 -0.425256 -0.0498405
    outer loop
      vertex 5.88084 -2.32839 0
      vertex 5.54264 -3.04709 0
      vertex 5.74137 -2.27317 -3
    endloop
  endfacet
  facet normal 0.769558 -0.636629 -0.0498401
    outer loop
      vertex 4.61073 -4.32976 0
      vertex 4.50138 -4.22708 -3
      vertex 4.99568 -3.62957 -3
    endloop
  endfacet
  facet normal 0.367666 -0.928621 -0.0498372
    outer loop
      vertex 2.69305 -5.72303 0
      vertex 1.95453 -6.01543 0
      vertex 2.62919 -5.58731 -3
    endloop
  endfacet
  facet normal -0.769558 -0.636629 -0.0498401
    outer loop
      vertex -4.61073 -4.32976 0
      vertex -4.99568 -3.62957 -3
      vertex -4.50138 -4.22708 -3
    endloop
  endfacet
  facet normal -0.683699 -0.72806 -0.0498399
    outer loop
      vertex -4.03171 -4.8735 0
      vertex -4.61073 -4.32976 0
      vertex -4.50138 -4.22708 -3
    endloop
  endfacet
  facet normal -0.9037 0.425256 -0.0498405
    outer loop
      vertex -5.74137 2.27317 -3
      vertex -5.88084 2.32839 0
      vertex -5.54264 3.04709 0
    endloop
  endfacet
  facet normal 0 0 1
    outer loop
      vertex -0.00935364 2.75635 0
      vertex 0.205856 2.87593 0
      vertex 0.131454 3.79379 0
    endloop
  endfacet
  facet normal -0 0 1
    outer loop
      vertex -0.00935364 2.75635 0
      vertex 0.280258 2.0009 0
      vertex 0.205856 2.87593 0
    endloop
  endfacet
  facet normal 0 0 1
    outer loop
      vertex -0.134247 1.80161 0
      vertex 0.280258 2.0009 0
      vertex -0.00935364 2.75635 0
    endloop
  endfacet
  facet normal 0 0 1
    outer loop
      vertex 0.280258 2.0009 0
      vertex -0.134247 1.80161 0
      vertex 0.35466 1.16873 0
    endloop
  endfacet
  facet normal 0 0 1
    outer loop
      vertex -0.243179 0.929581 0
      vertex 0.35466 1.16873 0
      vertex -0.134247 1.80161 0
    endloop
  endfacet
  facet normal 0 0 1
    outer loop
      vertex 0.35466 1.16873 0
      vertex -0.243179 0.929581 0
      vertex 0.429062 0.37941 0
    endloop
  endfacet
  facet normal 0 0 1
    outer loop
      vertex -0.336182 0.140244 0
      vertex 0.429062 0.37941 0
      vertex -0.243179 0.929581 0
    endloop
  endfacet
  facet normal 0 0 1
    outer loop
      vertex 0.429062 0.37941 0
      vertex -0.336182 0.140244 0
      vertex 0.503448 -0.36705 0
    endloop
  endfacet
  facet normal 0 0 1
    outer loop
      vertex -0.413239 -0.56636 0
      vertex 0.503448 -0.36705 0
      vertex -0.336182 0.140244 0
    endloop
  endfacet
  facet normal 0 0 1
    outer loop
      vertex 0.503448 -0.36705 0
      vertex -0.413239 -0.56636 0
      vertex 0.57785 -1.07069 0
    endloop
  endfacet
  facet normal 0 0 1
    outer loop
      vertex -0.474365 -1.19026 0
      vertex 0.57785 -1.07069 0
      vertex -0.413239 -0.56636 0
    endloop
  endfacet
  facet normal 0 0 1
    outer loop
      vertex 0.57785 -1.07069 0
      vertex -0.474365 -1.19026 0
      vertex 0.652252 -1.73148 0
    endloop
  endfacet
  facet normal 0 0 1
    outer loop
      vertex 0.652252 -1.73148 0
      vertex -0.474365 -1.19026 0
      vertex -0.519531 -1.73148 0
    endloop
  endfacet
  facet normal 0 0 1
    outer loop
      vertex 0.749939 -4.06703 0
      vertex 0.397149 -6.31252 0
      vertex 0.907332 -6.24807 0
    endloop
  endfacet
  facet normal -0 0 1
    outer loop
      vertex -0.478851 -4.06703 0
      vertex 0.397149 -6.31252 0
      vertex 0.749939 -4.06703 0
    endloop
  endfacet
  facet normal 0 0 1
    outer loop
      vertex 0.397149 -6.31252 0
      vertex -0.478851 -4.06703 0
      vertex -0.397149 -6.31252 0
    endloop
  endfacet
  facet normal 0 0 1
    outer loop
      vertex -0.397149 -6.31252 0
      vertex -0.478851 -4.06703 0
      vertex -0.668783 -6.2782 0
    endloop
  endfacet
  facet normal 0 0 -1
    outer loop
      vertex 4.42805 -6.435 0
      vertex 4.03171 -4.8735 0
      vertex 4.17551 -4.73846 0
    endloop
  endfacet
  facet normal 0 0 -1
    outer loop
      vertex 4.42805 -6.435 0
      vertex 3.3891 -5.34037 0
      vertex 4.03171 -4.8735 0
    endloop
  endfacet
  facet normal 0 0 -1
    outer loop
      vertex 4.42805 -6.435 0
      vertex 2.69305 -5.72303 0
      vertex 3.3891 -5.34037 0
    endloop
  endfacet
  facet normal 0 0 -1
    outer loop
      vertex 4.42805 -6.435 0
      vertex 1.95453 -6.01543 0
      vertex 2.69305 -5.72303 0
    endloop
  endfacet
  facet normal 0 0 -1
    outer loop
      vertex 0.920822 -6.435 0
      vertex 1.95453 -6.01543 0
      vertex 4.42805 -6.435 0
    endloop
  endfacet
  facet normal 0 0 -1
    outer loop
      vertex 1.95453 -6.01543 0
      vertex 0.920822 -6.435 0
      vertex 1.18519 -6.21297 0
    endloop
  endfacet
  facet normal 0 0 -1
    outer loop
      vertex 1.18519 -6.21297 0
      vertex 0.920822 -6.435 0
      vertex 0.907332 -6.24807 0
    endloop
  endfacet
  facet normal 0 0 -1
    outer loop
      vertex 1.95453 6.01543 0
      vertex 2.46689 6.73955 0
      vertex 2.61352 5.75452 0
    endloop
  endfacet
  facet normal 0 0 -1
    outer loop
      vertex 1.18519 6.21297 0
      vertex 2.46689 6.73955 0
      vertex 1.95453 6.01543 0
    endloop
  endfacet
  facet normal 0 0 -1
    outer loop
      vertex 0.397149 6.31252 0
      vertex 2.46689 6.73955 0
      vertex 1.18519 6.21297 0
    endloop
  endfacet
  facet normal 0 0 -1
    outer loop
      vertex -0.397149 6.31252 0
      vertex 2.46689 6.73955 0
      vertex 0.397149 6.31252 0
    endloop
  endfacet
  facet normal 0 0 -1
    outer loop
      vertex -2.48885 6.73955 0
      vertex -0.397149 6.31252 0
      vertex -1.18519 6.21297 0
    endloop
  endfacet
  facet normal 0 0 -1
    outer loop
      vertex -0.397149 6.31252 0
      vertex -2.48885 6.73955 0
      vertex 2.46689 6.73955 0
    endloop
  endfacet
  facet normal 0 0 -1
    outer loop
      vertex -1.95453 6.01543 0
      vertex -2.48885 6.73955 0
      vertex -1.18519 6.21297 0
    endloop
  endfacet
  facet normal 0 -0 -1
    outer loop
      vertex -2.48885 6.73955 0
      vertex -1.95453 6.01543 0
      vertex -2.61935 5.75221 0
    endloop
  endfacet
  facet normal 0 0 -1
    outer loop
      vertex -0.682251 -6.435 0
      vertex -1.18519 -6.21297 0
      vertex -0.668783 -6.2782 0
    endloop
  endfacet
  facet normal 0 0 -1
    outer loop
      vertex -4.23029 -6.435 0
      vertex -1.18519 -6.21297 0
      vertex -0.682251 -6.435 0
    endloop
  endfacet
  facet normal -0 0 -1
    outer loop
      vertex -3.3891 -5.34037 0
      vertex -4.23029 -6.435 0
      vertex -4.02457 -4.87868 0
    endloop
  endfacet
  facet normal -0 0 -1
    outer loop
      vertex -2.69305 -5.72303 0
      vertex -4.23029 -6.435 0
      vertex -3.3891 -5.34037 0
    endloop
  endfacet
  facet normal -0 0 -1
    outer loop
      vertex -1.95453 -6.01543 0
      vertex -4.23029 -6.435 0
      vertex -2.69305 -5.72303 0
    endloop
  endfacet
  facet normal -0 0 -1
    outer loop
      vertex -1.18519 -6.21297 0
      vertex -4.23029 -6.435 0
      vertex -1.95453 -6.01543 0
    endloop
  endfacet
  facet normal 0 0 1
    outer loop
      vertex 6.27512 0.792732 0
      vertex 6.27512 -0.792732 0
      vertex 6.325 0 0
    endloop
  endfacet
  facet normal 0 0 1
    outer loop
      vertex 6.12629 1.57296 0
      vertex 6.27512 -0.792732 0
      vertex 6.27512 0.792732 0
    endloop
  endfacet
  facet normal 0 0 1
    outer loop
      vertex 6.12629 1.57296 0
      vertex 6.12629 -1.57296 0
      vertex 6.27512 -0.792732 0
    endloop
  endfacet
  facet normal 0 0 1
    outer loop
      vertex 5.88084 2.32839 0
      vertex 6.12629 -1.57296 0
      vertex 6.12629 1.57296 0
    endloop
  endfacet
  facet normal 0 0 1
    outer loop
      vertex 5.88084 2.32839 0
      vertex 5.88084 -2.32839 0
      vertex 6.12629 -1.57296 0
    endloop
  endfacet
  facet normal 0 0 1
    outer loop
      vertex 5.54264 3.04709 0
      vertex 5.88084 -2.32839 0
      vertex 5.88084 2.32839 0
    endloop
  endfacet
  facet normal 0 0 1
    outer loop
      vertex 5.54264 3.04709 0
      vertex 5.54264 -3.04709 0
      vertex 5.88084 -2.32839 0
    endloop
  endfacet
  facet normal 0 0 1
    outer loop
      vertex 5.11703 3.71774 0
      vertex 5.54264 -3.04709 0
      vertex 5.54264 3.04709 0
    endloop
  endfacet
  facet normal 0 0 1
    outer loop
      vertex 5.11703 3.71774 0
      vertex 5.11703 -3.71774 0
      vertex 5.54264 -3.04709 0
    endloop
  endfacet
  facet normal 0 0 1
    outer loop
      vertex 4.61073 4.32976 0
      vertex 5.11703 -3.71774 0
      vertex 5.11703 3.71774 0
    endloop
  endfacet
  facet normal 0 0 1
    outer loop
      vertex 4.17551 -4.73846 0
      vertex 5.11703 -3.71774 0
      vertex 4.61073 4.32976 0
    endloop
  endfacet
  facet normal 0 0 1
    outer loop
      vertex 5.11703 -3.71774 0
      vertex 4.17551 -4.73846 0
      vertex 4.61073 -4.32976 0
    endloop
  endfacet
  facet normal 0 0 1
    outer loop
      vertex 4.03171 4.8735 0
      vertex 4.17551 -4.73846 0
      vertex 4.61073 4.32976 0
    endloop
  endfacet
  facet normal 0 0 1
    outer loop
      vertex 3.3891 5.34037 0
      vertex 4.17551 -4.73846 0
      vertex 4.03171 4.8735 0
    endloop
  endfacet
  facet normal 0 0 1
    outer loop
      vertex 2.61352 5.75452 0
      vertex 3.3891 5.34037 0
      vertex 2.69305 5.72303 0
    endloop
  endfacet
  facet normal 0 0 1
    outer loop
      vertex 3.3891 5.34037 0
      vertex 2.61352 5.75452 0
      vertex 4.17551 -4.73846 0
    endloop
  endfacet
  facet normal 0 0 1
    outer loop
      vertex -3.3891 5.34037 0
      vertex -2.61935 5.75221 0
      vertex -2.69305 5.72303 0
    endloop
  endfacet
  facet normal -0 0 1
    outer loop
      vertex -3.3891 5.34037 0
      vertex -4.02457 -4.87868 0
      vertex -2.61935 5.75221 0
    endloop
  endfacet
  facet normal -0 0 1
    outer loop
      vertex -4.03171 4.8735 0
      vertex -4.02457 -4.87868 0
      vertex -3.3891 5.34037 0
    endloop
  endfacet
  facet normal -0 0 1
    outer loop
      vertex -4.61073 4.32976 0
      vertex -4.02457 -4.87868 0
      vertex -4.03171 4.8735 0
    endloop
  endfacet
  facet normal -0 0 1
    outer loop
      vertex -4.61073 -4.32976 0
      vertex -4.02457 -4.87868 0
      vertex -4.61073 4.32976 0
    endloop
  endfacet
  facet normal 0 0 1
    outer loop
      vertex -4.02457 -4.87868 0
      vertex -4.61073 -4.32976 0
      vertex -4.03171 -4.8735 0
    endloop
  endfacet
  facet normal -0 0 1
    outer loop
      vertex -5.11703 3.71774 0
      vertex -4.61073 -4.32976 0
      vertex -4.61073 4.32976 0
    endloop
  endfacet
  facet normal 0 0 1
    outer loop
      vertex -5.11703 3.71774 0
      vertex -5.11703 -3.71774 0
      vertex -4.61073 -4.32976 0
    endloop
  endfacet
  facet normal -0 0 1
    outer loop
      vertex -5.54264 3.04709 0
      vertex -5.11703 -3.71774 0
      vertex -5.11703 3.71774 0
    endloop
  endfacet
  facet normal 0 0 1
    outer loop
      vertex -5.54264 3.04709 0
      vertex -5.54264 -3.04709 0
      vertex -5.11703 -3.71774 0
    endloop
  endfacet
  facet normal -0 0 1
    outer loop
      vertex -5.88084 2.32839 0
      vertex -5.54264 -3.04709 0
      vertex -5.54264 3.04709 0
    endloop
  endfacet
  facet normal 0 0 1
    outer loop
      vertex -5.88084 2.32839 0
      vertex -5.88084 -2.32839 0
      vertex -5.54264 -3.04709 0
    endloop
  endfacet
  facet normal -0 0 1
    outer loop
      vertex -6.12629 1.57296 0
      vertex -5.88084 -2.32839 0
      vertex -5.88084 2.32839 0
    endloop
  endfacet
  facet normal 0 0 1
    outer loop
      vertex -6.12629 1.57296 0
      vertex -6.12629 -1.57296 0
      vertex -5.88084 -2.32839 0
    endloop
  endfacet
  facet normal -0 0 1
    outer loop
      vertex -6.27512 0.792732 0
      vertex -6.12629 -1.57296 0
      vertex -6.12629 1.57296 0
    endloop
  endfacet
  facet normal 0 0 1
    outer loop
      vertex -6.27512 0.792732 0
      vertex -6.27512 -0.792732 0
      vertex -6.12629 -1.57296 0
    endloop
  endfacet
  facet normal 0 -0 1
    outer loop
      vertex -6.27512 -0.792732 0
      vertex -6.27512 0.792732 0
      vertex -6.325 0 0
    endloop
  endfacet
  facet normal 0 0.998757 -0.0498413
    outer loop
      vertex 0.387731 6.16281 -3
      vertex -0.397149 6.31252 0
      vertex 0.397149 6.31252 0
    endloop
  endfacet
  facet normal 0 0.998757 -0.0498413
    outer loop
      vertex -0.397149 6.31252 0
      vertex 0.387731 6.16281 -3
      vertex -0.387731 6.16281 -3
    endloop
  endfacet
  facet normal -0.683694 0.728064 -0.0498415
    outer loop
      vertex -3.93609 4.75792 -3
      vertex -4.50138 4.22708 -3
      vertex -4.03171 4.8735 0
    endloop
  endfacet
  facet normal 0.248381 0.967379 -0.0498396
    outer loop
      vertex 1.90818 5.87277 -3
      vertex 1.15708 6.06562 -3
      vertex 1.95453 6.01543 0
    endloop
  endfacet
  facet normal 0.367686 0.928614 -0.0498373
    outer loop
      vertex 2.62919 5.58731 -3
      vertex 2.61352 5.75452 0
      vertex 2.69305 5.72303 0
    endloop
  endfacet
  facet normal 0.367664 0.928622 -0.0498379
    outer loop
      vertex 2.61352 5.75452 0
      vertex 2.62919 5.58731 -3
      vertex 1.95453 6.01543 0
    endloop
  endfacet
  facet normal 0.76956 0.636627 -0.0498392
    outer loop
      vertex 4.99568 3.62957 -3
      vertex 4.61073 4.32976 0
      vertex 5.11703 3.71774 0
    endloop
  endfacet
  facet normal 0.996786 0.0627194 -0.049837
    outer loop
      vertex 6.325 0 0
      vertex 6.12631 0.773932 -3
      vertex 6.27512 0.792732 0
    endloop
  endfacet
  facet normal 0.981068 -0.187141 -0.049837
    outer loop
      vertex 6.27512 -0.792732 0
      vertex 6.12629 -1.57296 0
      vertex 6.12631 -0.773932 -3
    endloop
  endfacet
  facet normal 0.981066 -0.187152 -0.0498399
    outer loop
      vertex 6.12629 -1.57296 0
      vertex 5.981 -1.53566 -3
      vertex 6.12631 -0.773932 -3
    endloop
  endfacet
  facet normal 0.949875 -0.308631 -0.0498398
    outer loop
      vertex 6.12629 -1.57296 0
      vertex 5.74137 -2.27317 -3
      vertex 5.981 -1.53566 -3
    endloop
  endfacet
  facet normal 0.949876 -0.308628 -0.0498406
    outer loop
      vertex 5.88084 -2.32839 0
      vertex 5.74137 -2.27317 -3
      vertex 6.12629 -1.57296 0
    endloop
  endfacet
  facet normal 0.843279 -0.53516 -0.0498399
    outer loop
      vertex 5.54264 -3.04709 0
      vertex 4.99568 -3.62957 -3
      vertex 5.41119 -2.97483 -3
    endloop
  endfacet
  facet normal 0.587044 -0.80802 -0.0498388
    outer loop
      vertex 3.3891 -5.34037 0
      vertex 3.30873 -5.21372 -3
      vertex 4.03171 -4.8735 0
    endloop
  endfacet
  facet normal 0.481165 -0.875212 -0.0498389
    outer loop
      vertex 3.3891 -5.34037 0
      vertex 2.62919 -5.58731 -3
      vertex 3.30873 -5.21372 -3
    endloop
  endfacet
  facet normal -0.481158 -0.875216 -0.049837
    outer loop
      vertex -2.69305 -5.72303 0
      vertex -3.3891 -5.34037 0
      vertex -2.62919 -5.58731 -3
    endloop
  endfacet
  facet normal -0.843279 -0.53516 -0.0498399
    outer loop
      vertex -4.99568 -3.62957 -3
      vertex -5.54264 -3.04709 0
      vertex -5.41119 -2.97483 -3
    endloop
  endfacet
  facet normal -0.981068 0.187141 -0.049837
    outer loop
      vertex -6.12631 0.773932 -3
      vertex -6.27512 0.792732 0
      vertex -6.12629 1.57296 0
    endloop
  endfacet
  facet normal -0.981066 0.187152 -0.0498399
    outer loop
      vertex -5.981 1.53566 -3
      vertex -6.12631 0.773932 -3
      vertex -6.12629 1.57296 0
    endloop
  endfacet
  facet normal -0.367666 0.928622 -0.0498373
    outer loop
      vertex -2.62919 5.58731 -3
      vertex -2.61935 5.75221 0
      vertex -1.95453 6.01543 0
    endloop
  endfacet
  facet normal -0.367668 0.928621 -0.0498372
    outer loop
      vertex -2.61935 5.75221 0
      vertex -2.62919 5.58731 -3
      vertex -2.69305 5.72303 0
    endloop
  endfacet
  facet normal -0.949875 0.308631 -0.0498398
    outer loop
      vertex -5.981 1.53566 -3
      vertex -6.12629 1.57296 0
      vertex -5.74137 2.27317 -3
    endloop
  endfacet
  facet normal -0.949876 0.308628 -0.0498406
    outer loop
      vertex -5.74137 2.27317 -3
      vertex -6.12629 1.57296 0
      vertex -5.88084 2.32839 0
    endloop
  endfacet
  facet normal -0.843279 0.53516 -0.0498399
    outer loop
      vertex -5.41119 2.97483 -3
      vertex -5.54264 3.04709 0
      vertex -4.99568 3.62957 -3
    endloop
  endfacet
  facet normal 0.248389 0.967377 -0.0498417
    outer loop
      vertex 1.95453 6.01543 0
      vertex 1.15708 6.06562 -3
      vertex 1.18519 6.21297 0
    endloop
  endfacet
  facet normal 0.125174 0.990882 -0.0498417
    outer loop
      vertex 1.15708 6.06562 -3
      vertex 0.397149 6.31252 0
      vertex 1.18519 6.21297 0
    endloop
  endfacet
  facet normal 0.481158 0.875216 -0.049837
    outer loop
      vertex 3.3891 5.34037 0
      vertex 2.62919 5.58731 -3
      vertex 2.69305 5.72303 0
    endloop
  endfacet
  facet normal 0.367658 0.928625 -0.0498395
    outer loop
      vertex 2.62919 5.58731 -3
      vertex 1.90818 5.87277 -3
      vertex 1.95453 6.01543 0
    endloop
  endfacet
  facet normal 0.949876 0.308628 -0.0498406
    outer loop
      vertex 6.12629 1.57296 0
      vertex 5.74137 2.27317 -3
      vertex 5.88084 2.32839 0
    endloop
  endfacet
  facet normal 0.843277 0.535163 -0.049839
    outer loop
      vertex 5.54264 3.04709 0
      vertex 4.99568 3.62957 -3
      vertex 5.11703 3.71774 0
    endloop
  endfacet
  facet normal 0.903701 0.425254 -0.0498401
    outer loop
      vertex 5.74137 2.27317 -3
      vertex 5.41119 2.97483 -3
      vertex 5.54264 3.04709 0
    endloop
  endfacet
  facet normal 0.996787 -0.0627103 -0.0498393
    outer loop
      vertex 6.325 0 0
      vertex 6.12631 -0.773932 -3
      vertex 6.175 0 -3
    endloop
  endfacet
  facet normal 0.76956 -0.636627 -0.0498392
    outer loop
      vertex 5.11703 -3.71774 0
      vertex 4.61073 -4.32976 0
      vertex 4.99568 -3.62957 -3
    endloop
  endfacet
  facet normal 0.843277 -0.535163 -0.049839
    outer loop
      vertex 5.11703 -3.71774 0
      vertex 4.99568 -3.62957 -3
      vertex 5.54264 -3.04709 0
    endloop
  endfacet
  facet normal 0.903701 -0.425254 -0.0498401
    outer loop
      vertex 5.54264 -3.04709 0
      vertex 5.41119 -2.97483 -3
      vertex 5.74137 -2.27317 -3
    endloop
  endfacet
  facet normal 0.367658 -0.928625 -0.0498395
    outer loop
      vertex 1.95453 -6.01543 0
      vertex 1.90818 -5.87277 -3
      vertex 2.62919 -5.58731 -3
    endloop
  endfacet
  facet normal 0.125175 -0.990882 -0.0498414
    outer loop
      vertex 1.15708 -6.06562 -3
      vertex 0.907332 -6.24807 0
      vertex 0.397149 -6.31252 0
    endloop
  endfacet
  facet normal 0.125172 -0.990882 -0.0498417
    outer loop
      vertex 0.907332 -6.24807 0
      vertex 1.15708 -6.06562 -3
      vertex 1.18519 -6.21297 0
    endloop
  endfacet
  facet normal 0.248389 -0.967377 -0.0498417
    outer loop
      vertex 1.18519 -6.21297 0
      vertex 1.15708 -6.06562 -3
      vertex 1.95453 -6.01543 0
    endloop
  endfacet
  facet normal 0.125176 -0.990882 -0.0498413
    outer loop
      vertex 0.397149 -6.31252 0
      vertex 0.387731 -6.16281 -3
      vertex 1.15708 -6.06562 -3
    endloop
  endfacet
  facet normal 0.481158 -0.875216 -0.049837
    outer loop
      vertex 2.69305 -5.72303 0
      vertex 2.62919 -5.58731 -3
      vertex 3.3891 -5.34037 0
    endloop
  endfacet
  facet normal 0.587052 -0.808014 -0.0498414
    outer loop
      vertex 4.03171 -4.8735 0
      vertex 3.30873 -5.21372 -3
      vertex 3.93609 -4.75792 -3
    endloop
  endfacet
  facet normal 0 0 -1
    outer loop
      vertex 6.12631 -0.773932 -3
      vertex 6.12631 0.773932 -3
      vertex 6.175 0 -3
    endloop
  endfacet
  facet normal 0 0 -1
    outer loop
      vertex 5.981 -1.53566 -3
      vertex 6.12631 0.773932 -3
      vertex 6.12631 -0.773932 -3
    endloop
  endfacet
  facet normal 0 0 -1
    outer loop
      vertex 5.981 -1.53566 -3
      vertex 5.981 1.53566 -3
      vertex 6.12631 0.773932 -3
    endloop
  endfacet
  facet normal 0 0 -1
    outer loop
      vertex 5.74137 -2.27317 -3
      vertex 5.981 1.53566 -3
      vertex 5.981 -1.53566 -3
    endloop
  endfacet
  facet normal 0 0 -1
    outer loop
      vertex 5.74137 -2.27317 -3
      vertex 5.74137 2.27317 -3
      vertex 5.981 1.53566 -3
    endloop
  endfacet
  facet normal 0 0 -1
    outer loop
      vertex 5.41119 -2.97483 -3
      vertex 5.74137 2.27317 -3
      vertex 5.74137 -2.27317 -3
    endloop
  endfacet
  facet normal 0 0 -1
    outer loop
      vertex 5.41119 -2.97483 -3
      vertex 5.41119 2.97483 -3
      vertex 5.74137 2.27317 -3
    endloop
  endfacet
  facet normal 0 0 -1
    outer loop
      vertex 4.99568 -3.62957 -3
      vertex 5.41119 2.97483 -3
      vertex 5.41119 -2.97483 -3
    endloop
  endfacet
  facet normal 0 0 -1
    outer loop
      vertex 4.99568 -3.62957 -3
      vertex 4.99568 3.62957 -3
      vertex 5.41119 2.97483 -3
    endloop
  endfacet
  facet normal 0 0 -1
    outer loop
      vertex 4.50138 -4.22708 -3
      vertex 4.99568 3.62957 -3
      vertex 4.99568 -3.62957 -3
    endloop
  endfacet
  facet normal 0 0 -1
    outer loop
      vertex 4.50138 -4.22708 -3
      vertex 4.50138 4.22708 -3
      vertex 4.99568 3.62957 -3
    endloop
  endfacet
  facet normal 0 0 -1
    outer loop
      vertex 3.93609 -4.75792 -3
      vertex 4.50138 4.22708 -3
      vertex 4.50138 -4.22708 -3
    endloop
  endfacet
  facet normal 0 0 -1
    outer loop
      vertex 3.93609 -4.75792 -3
      vertex 3.93609 4.75792 -3
      vertex 4.50138 4.22708 -3
    endloop
  endfacet
  facet normal 0 0 -1
    outer loop
      vertex 3.30873 -5.21372 -3
      vertex 3.93609 4.75792 -3
      vertex 3.93609 -4.75792 -3
    endloop
  endfacet
  facet normal 0 0 -1
    outer loop
      vertex 3.30873 -5.21372 -3
      vertex 3.30873 5.21372 -3
      vertex 3.93609 4.75792 -3
    endloop
  endfacet
  facet normal 0 0 -1
    outer loop
      vertex 2.62919 -5.58731 -3
      vertex 3.30873 5.21372 -3
      vertex 3.30873 -5.21372 -3
    endloop
  endfacet
  facet normal 0 0 -1
    outer loop
      vertex 2.62919 -5.58731 -3
      vertex 2.62919 5.58731 -3
      vertex 3.30873 5.21372 -3
    endloop
  endfacet
  facet normal 0 0 -1
    outer loop
      vertex 1.90818 -5.87277 -3
      vertex 2.62919 5.58731 -3
      vertex 2.62919 -5.58731 -3
    endloop
  endfacet
  facet normal 0 0 -1
    outer loop
      vertex 1.90818 -5.87277 -3
      vertex 1.90818 5.87277 -3
      vertex 2.62919 5.58731 -3
    endloop
  endfacet
  facet normal 0 0 -1
    outer loop
      vertex 1.15708 -6.06562 -3
      vertex 1.90818 5.87277 -3
      vertex 1.90818 -5.87277 -3
    endloop
  endfacet
  facet normal 0 0 -1
    outer loop
      vertex 1.15708 -6.06562 -3
      vertex 1.15708 6.06562 -3
      vertex 1.90818 5.87277 -3
    endloop
  endfacet
  facet normal 0 0 -1
    outer loop
      vertex 0.387731 -6.16281 -3
      vertex 1.15708 6.06562 -3
      vertex 1.15708 -6.06562 -3
    endloop
  endfacet
  facet normal 0 0 -1
    outer loop
      vertex 0.387731 -6.16281 -3
      vertex 0.387731 6.16281 -3
      vertex 1.15708 6.06562 -3
    endloop
  endfacet
  facet normal 0 0 -1
    outer loop
      vertex -0.387731 -6.16281 -3
      vertex 0.387731 6.16281 -3
      vertex 0.387731 -6.16281 -3
    endloop
  endfacet
  facet normal 0 0 -1
    outer loop
      vertex -0.387731 -6.16281 -3
      vertex -0.387731 6.16281 -3
      vertex 0.387731 6.16281 -3
    endloop
  endfacet
  facet normal 0 0 -1
    outer loop
      vertex -1.15708 -6.06562 -3
      vertex -0.387731 6.16281 -3
      vertex -0.387731 -6.16281 -3
    endloop
  endfacet
  facet normal 0 0 -1
    outer loop
      vertex -1.15708 -6.06562 -3
      vertex -1.15708 6.06562 -3
      vertex -0.387731 6.16281 -3
    endloop
  endfacet
  facet normal 0 0 -1
    outer loop
      vertex -1.90818 -5.87277 -3
      vertex -1.15708 6.06562 -3
      vertex -1.15708 -6.06562 -3
    endloop
  endfacet
  facet normal 0 0 -1
    outer loop
      vertex -1.90818 -5.87277 -3
      vertex -1.90818 5.87277 -3
      vertex -1.15708 6.06562 -3
    endloop
  endfacet
  facet normal 0 0 -1
    outer loop
      vertex -2.62919 -5.58731 -3
      vertex -1.90818 5.87277 -3
      vertex -1.90818 -5.87277 -3
    endloop
  endfacet
  facet normal 0 0 -1
    outer loop
      vertex -2.62919 -5.58731 -3
      vertex -2.62919 5.58731 -3
      vertex -1.90818 5.87277 -3
    endloop
  endfacet
  facet normal 0 0 -1
    outer loop
      vertex -3.30873 -5.21372 -3
      vertex -2.62919 5.58731 -3
      vertex -2.62919 -5.58731 -3
    endloop
  endfacet
  facet normal 0 0 -1
    outer loop
      vertex -3.30873 -5.21372 -3
      vertex -3.30873 5.21372 -3
      vertex -2.62919 5.58731 -3
    endloop
  endfacet
  facet normal 0 0 -1
    outer loop
      vertex -3.93609 -4.75792 -3
      vertex -3.30873 5.21372 -3
      vertex -3.30873 -5.21372 -3
    endloop
  endfacet
  facet normal 0 0 -1
    outer loop
      vertex -3.93609 -4.75792 -3
      vertex -3.93609 4.75792 -3
      vertex -3.30873 5.21372 -3
    endloop
  endfacet
  facet normal 0 0 -1
    outer loop
      vertex -4.50138 -4.22708 -3
      vertex -3.93609 4.75792 -3
      vertex -3.93609 -4.75792 -3
    endloop
  endfacet
  facet normal 0 0 -1
    outer loop
      vertex -4.50138 -4.22708 -3
      vertex -4.50138 4.22708 -3
      vertex -3.93609 4.75792 -3
    endloop
  endfacet
  facet normal 0 0 -1
    outer loop
      vertex -4.99568 -3.62957 -3
      vertex -4.50138 4.22708 -3
      vertex -4.50138 -4.22708 -3
    endloop
  endfacet
  facet normal 0 0 -1
    outer loop
      vertex -4.99568 -3.62957 -3
      vertex -4.99568 3.62957 -3
      vertex -4.50138 4.22708 -3
    endloop
  endfacet
  facet normal 0 0 -1
    outer loop
      vertex -5.41119 -2.97483 -3
      vertex -4.99568 3.62957 -3
      vertex -4.99568 -3.62957 -3
    endloop
  endfacet
  facet normal 0 0 -1
    outer loop
      vertex -5.41119 -2.97483 -3
      vertex -5.41119 2.97483 -3
      vertex -4.99568 3.62957 -3
    endloop
  endfacet
  facet normal 0 0 -1
    outer loop
      vertex -5.74137 -2.27317 -3
      vertex -5.41119 2.97483 -3
      vertex -5.41119 -2.97483 -3
    endloop
  endfacet
  facet normal 0 0 -1
    outer loop
      vertex -5.74137 -2.27317 -3
      vertex -5.74137 2.27317 -3
      vertex -5.41119 2.97483 -3
    endloop
  endfacet
  facet normal 0 0 -1
    outer loop
      vertex -5.981 -1.53566 -3
      vertex -5.74137 2.27317 -3
      vertex -5.74137 -2.27317 -3
    endloop
  endfacet
  facet normal 0 0 -1
    outer loop
      vertex -5.981 -1.53566 -3
      vertex -5.981 1.53566 -3
      vertex -5.74137 2.27317 -3
    endloop
  endfacet
  facet normal 0 0 -1
    outer loop
      vertex -6.12631 -0.773932 -3
      vertex -5.981 1.53566 -3
      vertex -5.981 -1.53566 -3
    endloop
  endfacet
  facet normal 0 0 -1
    outer loop
      vertex -6.12631 -0.773932 -3
      vertex -6.12631 0.773932 -3
      vertex -5.981 1.53566 -3
    endloop
  endfacet
  facet normal 0 -0 -1
    outer loop
      vertex -6.12631 0.773932 -3
      vertex -6.12631 -0.773932 -3
      vertex -6.175 0 -3
    endloop
  endfacet
  facet normal -0.367666 -0.928621 -0.0498372
    outer loop
      vertex -1.95453 -6.01543 0
      vertex -2.69305 -5.72303 0
      vertex -2.62919 -5.58731 -3
    endloop
  endfacet
  facet normal -0.683694 -0.728064 -0.0498415
    outer loop
      vertex -4.03171 -4.8735 0
      vertex -4.50138 -4.22708 -3
      vertex -3.93609 -4.75792 -3
    endloop
  endfacet
  facet normal -0.9037 -0.425256 -0.0498405
    outer loop
      vertex -5.54264 -3.04709 0
      vertex -5.88084 -2.32839 0
      vertex -5.74137 -2.27317 -3
    endloop
  endfacet
  facet normal -0.949876 -0.308628 -0.0498406
    outer loop
      vertex -5.88084 -2.32839 0
      vertex -6.12629 -1.57296 0
      vertex -5.74137 -2.27317 -3
    endloop
  endfacet
  facet normal -0.981066 -0.187152 -0.0498399
    outer loop
      vertex -6.12629 -1.57296 0
      vertex -6.12631 -0.773932 -3
      vertex -5.981 -1.53566 -3
    endloop
  endfacet
  facet normal -0.125176 0.990882 -0.0498413
    outer loop
      vertex -0.387731 6.16281 -3
      vertex -1.15708 6.06562 -3
      vertex -0.397149 6.31252 0
    endloop
  endfacet
  facet normal -0.481158 0.875216 -0.049837
    outer loop
      vertex -2.62919 5.58731 -3
      vertex -3.3891 5.34037 0
      vertex -2.69305 5.72303 0
    endloop
  endfacet
  facet normal -0.996787 0.0627103 -0.0498393
    outer loop
      vertex -6.175 0 -3
      vertex -6.325 0 0
      vertex -6.12631 0.773932 -3
    endloop
  endfacet
  facet normal -0.76956 0.636627 -0.0498392
    outer loop
      vertex -4.99568 3.62957 -3
      vertex -5.11703 3.71774 0
      vertex -4.61073 4.32976 0
    endloop
  endfacet
  facet normal -0.843277 0.535163 -0.049839
    outer loop
      vertex -4.99568 3.62957 -3
      vertex -5.54264 3.04709 0
      vertex -5.11703 3.71774 0
    endloop
  endfacet
  facet normal -0.769558 0.636629 -0.0498401
    outer loop
      vertex -4.50138 4.22708 -3
      vertex -4.99568 3.62957 -3
      vertex -4.61073 4.32976 0
    endloop
  endfacet
  facet normal -0.683699 0.72806 -0.0498399
    outer loop
      vertex -4.50138 4.22708 -3
      vertex -4.61073 4.32976 0
      vertex -4.03171 4.8735 0
    endloop
  endfacet
  facet normal -0.903701 0.425254 -0.0498401
    outer loop
      vertex -5.41119 2.97483 -3
      vertex -5.74137 2.27317 -3
      vertex -5.54264 3.04709 0
    endloop
  endfacet
  facet normal 0.481165 0.875212 -0.0498389
    outer loop
      vertex 3.30873 5.21372 -3
      vertex 2.62919 5.58731 -3
      vertex 3.3891 5.34037 0
    endloop
  endfacet
  facet normal 0.587044 0.80802 -0.0498388
    outer loop
      vertex 4.03171 4.8735 0
      vertex 3.30873 5.21372 -3
      vertex 3.3891 5.34037 0
    endloop
  endfacet
  facet normal 0.769558 0.636629 -0.0498401
    outer loop
      vertex 4.99568 3.62957 -3
      vertex 4.50138 4.22708 -3
      vertex 4.61073 4.32976 0
    endloop
  endfacet
  facet normal 0.949875 0.308631 -0.0498398
    outer loop
      vertex 5.981 1.53566 -3
      vertex 5.74137 2.27317 -3
      vertex 6.12629 1.57296 0
    endloop
  endfacet
  facet normal 0.981066 0.187152 -0.0498399
    outer loop
      vertex 6.12631 0.773932 -3
      vertex 5.981 1.53566 -3
      vertex 6.12629 1.57296 0
    endloop
  endfacet
  facet normal 0.683694 -0.728064 -0.0498415
    outer loop
      vertex 4.03171 -4.8735 0
      vertex 3.93609 -4.75792 -3
      vertex 4.50138 -4.22708 -3
    endloop
  endfacet
  facet normal -0.981068 -0.187141 -0.049837
    outer loop
      vertex -6.12629 -1.57296 0
      vertex -6.27512 -0.792732 0
      vertex -6.12631 -0.773932 -3
    endloop
  endfacet
  facet normal -0.996786 -0.0627194 -0.049837
    outer loop
      vertex -6.27512 -0.792732 0
      vertex -6.325 0 0
      vertex -6.12631 -0.773932 -3
    endloop
  endfacet
  facet normal -0.481165 -0.875212 -0.0498389
    outer loop
      vertex -2.62919 -5.58731 -3
      vertex -3.3891 -5.34037 0
      vertex -3.30873 -5.21372 -3
    endloop
  endfacet
  facet normal -0.248381 -0.967379 -0.0498396
    outer loop
      vertex -1.15708 -6.06562 -3
      vertex -1.95453 -6.01543 0
      vertex -1.90818 -5.87277 -3
    endloop
  endfacet
  facet normal -0.586503 -0.808423 -0.0496627
    outer loop
      vertex -3.30873 -5.21372 -3
      vertex -4.02457 -4.87868 0
      vertex -4.03171 -4.8735 0
    endloop
  endfacet
  facet normal -0.58705 -0.808015 -0.0498388
    outer loop
      vertex -4.02457 -4.87868 0
      vertex -3.30873 -5.21372 -3
      vertex -3.3891 -5.34037 0
    endloop
  endfacet
  facet normal -0.587052 -0.808014 -0.0498414
    outer loop
      vertex -3.30873 -5.21372 -3
      vertex -4.03171 -4.8735 0
      vertex -3.93609 -4.75792 -3
    endloop
  endfacet
  facet normal -0.843277 -0.535163 -0.049839
    outer loop
      vertex -5.11703 -3.71774 0
      vertex -5.54264 -3.04709 0
      vertex -4.99568 -3.62957 -3
    endloop
  endfacet
  facet normal -0.76956 -0.636627 -0.0498392
    outer loop
      vertex -4.61073 -4.32976 0
      vertex -5.11703 -3.71774 0
      vertex -4.99568 -3.62957 -3
    endloop
  endfacet
  facet normal -0.903701 -0.425254 -0.0498401
    outer loop
      vertex -5.54264 -3.04709 0
      vertex -5.74137 -2.27317 -3
      vertex -5.41119 -2.97483 -3
    endloop
  endfacet
  facet normal -0.125174 0.990882 -0.0498417
    outer loop
      vertex -1.15708 6.06562 -3
      vertex -1.18519 6.21297 0
      vertex -0.397149 6.31252 0
    endloop
  endfacet
  facet normal -0.248389 0.967377 -0.0498417
    outer loop
      vertex -1.15708 6.06562 -3
      vertex -1.95453 6.01543 0
      vertex -1.18519 6.21297 0
    endloop
  endfacet
  facet normal -0.587044 0.80802 -0.0498388
    outer loop
      vertex -3.30873 5.21372 -3
      vertex -4.03171 4.8735 0
      vertex -3.3891 5.34037 0
    endloop
  endfacet
  facet normal -0.481165 0.875212 -0.0498389
    outer loop
      vertex -3.30873 5.21372 -3
      vertex -3.3891 5.34037 0
      vertex -2.62919 5.58731 -3
    endloop
  endfacet
  facet normal 0.587052 0.808014 -0.0498414
    outer loop
      vertex 3.93609 4.75792 -3
      vertex 3.30873 5.21372 -3
      vertex 4.03171 4.8735 0
    endloop
  endfacet
  facet normal 0.683694 0.728064 -0.0498415
    outer loop
      vertex 4.50138 4.22708 -3
      vertex 3.93609 4.75792 -3
      vertex 4.03171 4.8735 0
    endloop
  endfacet
  facet normal 0.843279 0.53516 -0.0498399
    outer loop
      vertex 5.41119 2.97483 -3
      vertex 4.99568 3.62957 -3
      vertex 5.54264 3.04709 0
    endloop
  endfacet
  facet normal -0.949875 -0.308631 -0.0498398
    outer loop
      vertex -5.74137 -2.27317 -3
      vertex -6.12629 -1.57296 0
      vertex -5.981 -1.53566 -3
    endloop
  endfacet
  facet normal -0.125176 -0.990882 -0.0498413
    outer loop
      vertex -0.397149 -6.31252 0
      vertex -1.15708 -6.06562 -3
      vertex -0.387731 -6.16281 -3
    endloop
  endfacet
  facet normal -0.367658 0.928625 -0.0498395
    outer loop
      vertex -1.90818 5.87277 -3
      vertex -2.62919 5.58731 -3
      vertex -1.95453 6.01543 0
    endloop
  endfacet
  facet normal -0.248381 0.967379 -0.0498396
    outer loop
      vertex -1.90818 5.87277 -3
      vertex -1.95453 6.01543 0
      vertex -1.15708 6.06562 -3
    endloop
  endfacet
  facet normal -0.587052 0.808014 -0.0498414
    outer loop
      vertex -3.93609 4.75792 -3
      vertex -4.03171 4.8735 0
      vertex -3.30873 5.21372 -3
    endloop
  endfacet
  facet normal -0.248389 -0.967377 -0.0498417
    outer loop
      vertex -1.18519 -6.21297 0
      vertex -1.95453 -6.01543 0
      vertex -1.15708 -6.06562 -3
    endloop
  endfacet
  facet normal -0.125164 -0.990883 -0.0498417
    outer loop
      vertex -1.15708 -6.06562 -3
      vertex -0.668783 -6.2782 0
      vertex -1.18519 -6.21297 0
    endloop
  endfacet
  facet normal -0.125194 -0.99088 -0.0498364
    outer loop
      vertex -0.668783 -6.2782 0
      vertex -1.15708 -6.06562 -3
      vertex -0.397149 -6.31252 0
    endloop
  endfacet
  facet normal -0.367658 -0.928625 -0.0498395
    outer loop
      vertex -1.95453 -6.01543 0
      vertex -2.62919 -5.58731 -3
      vertex -1.90818 -5.87277 -3
    endloop
  endfacet
  facet normal -0 0 1
    outer loop
      vertex 0.429062 0.37941 2
      vertex 4.42805 -6.435 2
      vertex 2.46689 6.73955 2
    endloop
  endfacet
  facet normal 0 0 1
    outer loop
      vertex 4.42805 -6.435 2
      vertex 0.749939 -4.06703 2
      vertex 0.920822 -6.435 2
    endloop
  endfacet
  facet normal 0 0 1
    outer loop
      vertex 4.42805 -6.435 2
      vertex 0.652252 -1.73148 2
      vertex 0.749939 -4.06703 2
    endloop
  endfacet
  facet normal 0 0 1
    outer loop
      vertex 4.42805 -6.435 2
      vertex 0.57785 -1.07069 2
      vertex 0.652252 -1.73148 2
    endloop
  endfacet
  facet normal 0 0 1
    outer loop
      vertex 4.42805 -6.435 2
      vertex 0.503448 -0.36705 2
      vertex 0.57785 -1.07069 2
    endloop
  endfacet
  facet normal 0 0 1
    outer loop
      vertex 4.42805 -6.435 2
      vertex 0.429062 0.37941 2
      vertex 0.503448 -0.36705 2
    endloop
  endfacet
  facet normal 0 0 1
    outer loop
      vertex 2.46689 6.73955 2
      vertex 0.35466 1.16873 2
      vertex 0.429062 0.37941 2
    endloop
  endfacet
  facet normal 0 0 1
    outer loop
      vertex 2.46689 6.73955 2
      vertex 0.280258 2.0009 2
      vertex 0.35466 1.16873 2
    endloop
  endfacet
  facet normal 0 0 1
    outer loop
      vertex 2.46689 6.73955 2
      vertex 0.205856 2.87593 2
      vertex 0.280258 2.0009 2
    endloop
  endfacet
  facet normal 0 0 1
    outer loop
      vertex 2.46689 6.73955 2
      vertex 0.131454 3.79379 2
      vertex 0.205856 2.87593 2
    endloop
  endfacet
  facet normal -0 0 1
    outer loop
      vertex -2.48885 6.73955 2
      vertex 0.131454 3.79379 2
      vertex 2.46689 6.73955 2
    endloop
  endfacet
  facet normal 0 0 1
    outer loop
      vertex -2.48885 6.73955 2
      vertex -0.00935364 2.75635 2
      vertex 0.131454 3.79379 2
    endloop
  endfacet
  facet normal 0 0 1
    outer loop
      vertex -2.48885 6.73955 2
      vertex -0.134247 1.80161 2
      vertex -0.00935364 2.75635 2
    endloop
  endfacet
  facet normal 0 0 1
    outer loop
      vertex -2.48885 6.73955 2
      vertex -0.243179 0.929581 2
      vertex -0.134247 1.80161 2
    endloop
  endfacet
  facet normal 0 0 1
    outer loop
      vertex -2.48885 6.73955 2
      vertex -0.336182 0.140244 2
      vertex -0.243179 0.929581 2
    endloop
  endfacet
  facet normal 0 0 1
    outer loop
      vertex -4.23029 -6.435 2
      vertex -0.336182 0.140244 2
      vertex -2.48885 6.73955 2
    endloop
  endfacet
  facet normal 0 0 1
    outer loop
      vertex -0.336182 0.140244 2
      vertex -4.23029 -6.435 2
      vertex -0.413239 -0.56636 2
    endloop
  endfacet
  facet normal 0 0 1
    outer loop
      vertex -0.413239 -0.56636 2
      vertex -4.23029 -6.435 2
      vertex -0.474365 -1.19026 2
    endloop
  endfacet
  facet normal 0 0 1
    outer loop
      vertex -0.474365 -1.19026 2
      vertex -4.23029 -6.435 2
      vertex -0.519531 -1.73148 2
    endloop
  endfacet
  facet normal 0 0 1
    outer loop
      vertex -0.519531 -1.73148 2
      vertex -4.23029 -6.435 2
      vertex -0.682251 -6.435 2
    endloop
  endfacet
  facet normal 0 0 1
    outer loop
      vertex 0.652252 -1.73148 2
      vertex -0.478851 -4.06703 2
      vertex 0.749939 -4.06703 2
    endloop
  endfacet
  facet normal -0 0 1
    outer loop
      vertex -0.519531 -1.73148 2
      vertex -0.478851 -4.06703 2
      vertex 0.652252 -1.73148 2
    endloop
  endfacet
  facet normal 0 0 1
    outer loop
      vertex -0.478851 -4.06703 2
      vertex -0.519531 -1.73148 2
      vertex -0.682251 -6.435 2
    endloop
  endfacet
  facet normal 0 -1 0
    outer loop
      vertex -0.478851 -4.06703 0
      vertex 0.749939 -4.06703 2
      vertex -0.478851 -4.06703 2
    endloop
  endfacet
  facet normal 0 -1 -0
    outer loop
      vertex 0.749939 -4.06703 2
      vertex -0.478851 -4.06703 0
      vertex 0.749939 -4.06703 0
    endloop
  endfacet
  facet normal -0.997406 -0.071977 0
    outer loop
      vertex 0.907332 -6.24807 0
      vertex 0.749939 -4.06703 2
      vertex 0.749939 -4.06703 0
    endloop
  endfacet
  facet normal -0.997406 -0.0719789 -0
    outer loop
      vertex 0.920822 -6.435 2
      vertex 0.907332 -6.24807 0
      vertex 0.920822 -6.435 0
    endloop
  endfacet
  facet normal -0.997406 -0.0719772 1.5924e-07
    outer loop
      vertex 0.907332 -6.24807 0
      vertex 0.920822 -6.435 2
      vertex 0.749939 -4.06703 2
    endloop
  endfacet
  facet normal 0 -1 0
    outer loop
      vertex 0.920822 -6.435 0
      vertex 4.42805 -6.435 2
      vertex 0.920822 -6.435 2
    endloop
  endfacet
  facet normal 0 -1 -0
    outer loop
      vertex 4.42805 -6.435 2
      vertex 0.920822 -6.435 0
      vertex 4.42805 -6.435 0
    endloop
  endfacet
  facet normal 0.989101 0.147236 0
    outer loop
      vertex 2.46689 6.73955 2
      vertex 2.61352 5.75452 0
      vertex 2.46689 6.73955 0
    endloop
  endfacet
  facet normal 0.989101 0.147238 -1.00637e-06
    outer loop
      vertex 2.46689 6.73955 2
      vertex 4.17551 -4.73846 0
      vertex 2.61352 5.75452 0
    endloop
  endfacet
  facet normal 0.989101 0.147237 3.21063e-06
    outer loop
      vertex 4.42805 -6.435 2
      vertex 4.17551 -4.73846 0
      vertex 2.46689 6.73955 2
    endloop
  endfacet
  facet normal 0.989102 0.147234 0
    outer loop
      vertex 4.17551 -4.73846 0
      vertex 4.42805 -6.435 2
      vertex 4.42805 -6.435 0
    endloop
  endfacet
  facet normal 0 1 -0
    outer loop
      vertex 2.46689 6.73955 0
      vertex -2.48885 6.73955 2
      vertex 2.46689 6.73955 2
    endloop
  endfacet
  facet normal 0 1 0
    outer loop
      vertex -2.48885 6.73955 2
      vertex 2.46689 6.73955 0
      vertex -2.48885 6.73955 0
    endloop
  endfacet
  facet normal -0.991378 0.131034 0
    outer loop
      vertex -2.61935 5.75221 0
      vertex -2.48885 6.73955 2
      vertex -2.48885 6.73955 0
    endloop
  endfacet
  facet normal -0.991377 0.131043 -4.60536e-06
    outer loop
      vertex -4.02457 -4.87868 0
      vertex -2.48885 6.73955 2
      vertex -2.61935 5.75221 0
    endloop
  endfacet
  facet normal -0.991377 0.131044 0
    outer loop
      vertex -4.23029 -6.435 2
      vertex -4.02457 -4.87868 0
      vertex -4.23029 -6.435 0
    endloop
  endfacet
  facet normal -0.991377 0.131042 -1.1485e-06
    outer loop
      vertex -4.02457 -4.87868 0
      vertex -4.23029 -6.435 2
      vertex -2.48885 6.73955 2
    endloop
  endfacet
  facet normal 0 -1 0
    outer loop
      vertex -4.23029 -6.435 0
      vertex -0.682251 -6.435 2
      vertex -4.23029 -6.435 2
    endloop
  endfacet
  facet normal 0 -1 -0
    outer loop
      vertex -0.682251 -6.435 2
      vertex -4.23029 -6.435 0
      vertex -0.682251 -6.435 0
    endloop
  endfacet
  facet normal 0.996331 -0.0855815 0
    outer loop
      vertex -0.478851 -4.06703 2
      vertex -0.668783 -6.2782 0
      vertex -0.478851 -4.06703 0
    endloop
  endfacet
  facet normal 0.996331 -0.0855812 -2.73498e-07
    outer loop
      vertex -0.682251 -6.435 2
      vertex -0.668783 -6.2782 0
      vertex -0.478851 -4.06703 2
    endloop
  endfacet
  facet normal 0.996331 -0.0855778 0
    outer loop
      vertex -0.668783 -6.2782 0
      vertex -0.682251 -6.435 2
      vertex -0.682251 -6.435 0
    endloop
  endfacet
  facet normal 0.996536 -0.0831631 0
    outer loop
      vertex -0.519531 -1.73148 2
      vertex -0.474365 -1.19026 0
      vertex -0.474365 -1.19026 2
    endloop
  endfacet
  facet normal 0.996536 -0.0831631 0
    outer loop
      vertex -0.474365 -1.19026 0
      vertex -0.519531 -1.73148 2
      vertex -0.519531 -1.73148 0
    endloop
  endfacet
  facet normal 0.995235 -0.0975072 0
    outer loop
      vertex -0.474365 -1.19026 2
      vertex -0.413239 -0.56636 0
      vertex -0.413239 -0.56636 2
    endloop
  endfacet
  facet normal 0.995235 -0.0975072 0
    outer loop
      vertex -0.413239 -0.56636 0
      vertex -0.474365 -1.19026 2
      vertex -0.474365 -1.19026 0
    endloop
  endfacet
  facet normal 0.994106 -0.10841 0
    outer loop
      vertex -0.413239 -0.56636 2
      vertex -0.336182 0.140244 0
      vertex -0.336182 0.140244 2
    endloop
  endfacet
  facet normal 0.994106 -0.10841 0
    outer loop
      vertex -0.336182 0.140244 0
      vertex -0.413239 -0.56636 2
      vertex -0.413239 -0.56636 0
    endloop
  endfacet
  facet normal 0.99313 -0.117015 0
    outer loop
      vertex -0.336182 0.140244 2
      vertex -0.243179 0.929581 0
      vertex -0.243179 0.929581 2
    endloop
  endfacet
  facet normal 0.99313 -0.117015 0
    outer loop
      vertex -0.243179 0.929581 0
      vertex -0.336182 0.140244 2
      vertex -0.336182 0.140244 0
    endloop
  endfacet
  facet normal 0.992288 -0.123954 0
    outer loop
      vertex -0.243179 0.929581 2
      vertex -0.134247 1.80161 0
      vertex -0.134247 1.80161 2
    endloop
  endfacet
  facet normal 0.992288 -0.123954 0
    outer loop
      vertex -0.134247 1.80161 0
      vertex -0.243179 0.929581 2
      vertex -0.243179 0.929581 0
    endloop
  endfacet
  facet normal 0.991552 -0.129709 0
    outer loop
      vertex -0.134247 1.80161 2
      vertex -0.00935364 2.75635 0
      vertex -0.00935364 2.75635 2
    endloop
  endfacet
  facet normal 0.991552 -0.129709 0
    outer loop
      vertex -0.00935364 2.75635 0
      vertex -0.134247 1.80161 2
      vertex -0.134247 1.80161 0
    endloop
  endfacet
  facet normal 0.990915 -0.134493 0
    outer loop
      vertex -0.00935364 2.75635 2
      vertex 0.131454 3.79379 0
      vertex 0.131454 3.79379 2
    endloop
  endfacet
  facet normal 0.990915 -0.134493 0
    outer loop
      vertex 0.131454 3.79379 0
      vertex -0.00935364 2.75635 2
      vertex -0.00935364 2.75635 0
    endloop
  endfacet
  facet normal -0.996731 -0.0807953 0
    outer loop
      vertex 0.205856 2.87593 0
      vertex 0.131454 3.79379 2
      vertex 0.131454 3.79379 0
    endloop
  endfacet
  facet normal -0.996731 -0.0807953 0
    outer loop
      vertex 0.131454 3.79379 2
      vertex 0.205856 2.87593 0
      vertex 0.205856 2.87593 2
    endloop
  endfacet
  facet normal -0.996405 -0.0847222 0
    outer loop
      vertex 0.280258 2.0009 0
      vertex 0.205856 2.87593 2
      vertex 0.205856 2.87593 0
    endloop
  endfacet
  facet normal -0.996405 -0.0847222 0
    outer loop
      vertex 0.205856 2.87593 2
      vertex 0.280258 2.0009 0
      vertex 0.280258 2.0009 2
    endloop
  endfacet
  facet normal -0.996027 -0.089052 0
    outer loop
      vertex 0.35466 1.16873 0
      vertex 0.280258 2.0009 2
      vertex 0.280258 2.0009 0
    endloop
  endfacet
  facet normal -0.996027 -0.089052 0
    outer loop
      vertex 0.280258 2.0009 2
      vertex 0.35466 1.16873 0
      vertex 0.35466 1.16873 2
    endloop
  endfacet
  facet normal -0.995587 -0.0938449 0
    outer loop
      vertex 0.429062 0.37941 0
      vertex 0.35466 1.16873 2
      vertex 0.35466 1.16873 0
    endloop
  endfacet
  facet normal -0.995587 -0.0938449 0
    outer loop
      vertex 0.35466 1.16873 2
      vertex 0.429062 0.37941 0
      vertex 0.429062 0.37941 2
    endloop
  endfacet
  facet normal -0.995071 -0.0991606 0
    outer loop
      vertex 0.503448 -0.36705 0
      vertex 0.429062 0.37941 2
      vertex 0.429062 0.37941 0
    endloop
  endfacet
  facet normal -0.995071 -0.0991606 0
    outer loop
      vertex 0.429062 0.37941 2
      vertex 0.503448 -0.36705 0
      vertex 0.503448 -0.36705 2
    endloop
  endfacet
  facet normal -0.994456 -0.105153 0
    outer loop
      vertex 0.57785 -1.07069 0
      vertex 0.503448 -0.36705 2
      vertex 0.503448 -0.36705 0
    endloop
  endfacet
  facet normal -0.994456 -0.105153 0
    outer loop
      vertex 0.503448 -0.36705 2
      vertex 0.57785 -1.07069 0
      vertex 0.57785 -1.07069 2
    endloop
  endfacet
  facet normal -0.993721 -0.111889 0
    outer loop
      vertex 0.652252 -1.73148 0
      vertex 0.57785 -1.07069 2
      vertex 0.57785 -1.07069 0
    endloop
  endfacet
  facet normal -0.993721 -0.111889 0
    outer loop
      vertex 0.57785 -1.07069 2
      vertex 0.652252 -1.73148 0
      vertex 0.652252 -1.73148 2
    endloop
  endfacet
  facet normal 0 1 -0
    outer loop
      vertex 0.652252 -1.73148 0
      vertex -0.519531 -1.73148 2
      vertex 0.652252 -1.73148 2
    endloop
  endfacet
  facet normal 0 1 0
    outer loop
      vertex -0.519531 -1.73148 2
      vertex 0.652252 -1.73148 0
      vertex -0.519531 -1.73148 0
    endloop
  endfacet
endsolid OpenSCAD_Model
