solid OpenSCAD_Model
  facet normal 0.6877996607792316 0.5689973638120447 0.45074785258159317
    outer loop
      vertex -1.7313004901258526 -1.6257993765806351 -4.2
      vertex -1.9214153616405003 -1.3959899741946238 -4.2
      vertex -3.6405764746872635 -2.6450336353161292 0
    endloop
  endfacet
  facet normal 0.6110618755220594 0.6507148051770035 0.45074785258159317
    outer loop
      vertex -1.7313004901258526 -1.6257993765806351 -4.2
      vertex -2.868407953869103 -3.467309592491052 0
      vertex -1.5138819756531379 -1.8299689515924997 -4.2
    endloop
  endfacet
  facet normal 0.8076950598642655 0.38007244528371564 0.45074785258159317
    outer loop
      vertex -4.183994186497132 -1.6565604870810504 0
      vertex -2.0812283651041756 -1.144164975991574 -4.2
      vertex -2.2082191539845972 -0.8742958126261099 -4.2
    endloop
  endfacet
  facet normal 0.8489618516265155 0.27584442694381317 0.4507478525815931
    outer loop
      vertex -4.35862422507884 -1.119104492241847 0
      vertex -2.2082191539845972 -0.8742958126261099 -4.2
      vertex -2.300385007680499 -0.5906384820165302 -4.2
    endloop
  endfacet
  facet normal 0.8768400078433869 0.16726617720953443 0.4507478525815933
    outer loop
      vertex -4.464516155915151 -0.5639995510393683 0
      vertex -2.300385007680499 -0.5906384820165302 -4.2
      vertex -2.356272415621885 -0.29766642971522217 -4.2
    endloop
  endfacet
  facet normal 0.8908898733377372 0.05605003994068976 0.4507478525815932
    outer loop
      vertex -4.5 0 0
      vertex -2.356272415621885 -0.29766642971522217 -4.2
      vertex -2.375 0 -4.2
    endloop
  endfacet
  facet normal 0.753690434514316 0.4783064941172175 0.4507478525815932
    outer loop
      vertex -1.9214153616405003 -1.3959899741946238 -4.2
      vertex -2.0812283651041756 -1.144164975991574 -4.2
      vertex -3.9433800601973856 -2.1678915334577193 0
    endloop
  endfacet
  facet normal 0.32860686670210154 0.8299662044621514 0.45074785258159317
    outer loop
      vertex -0.7339153616405001 -2.2587592262009895 -4.2
      vertex -1.011225817467047 -2.1489642496067964 -4.2
      vertex -1.3905764746872633 -4.2797543233281905 0
    endloop
  endfacet
  facet normal 0.5246872794572313 0.7221700853461402 0.45074785258159317
    outer loop
      vertex -1.5138819756531379 -1.8299689515924997 -4.2
      vertex -2.4112205774054853 -3.7994756647590675 0
      vertex -1.2725886380751172 -2.0052788230672856 -4.2
    endloop
  endfacet
  facet normal 0.43003805156237584 0.7822363118658694 0.45074785258159317
    outer loop
      vertex -1.011225817467047 -2.1489642496067964 -4.2
      vertex -1.2725886380751172 -2.0052788230672856 -4.2
      vertex -1.916006812042826 -4.071721736097088 0
    endloop
  endfacet
  facet normal 0.2219933552537093 0.8646070342162865 0.4507478525815931
    outer loop
      vertex -0.44503062214109645 -2.3329322204806355 -4.2
      vertex -0.7339153616405001 -2.2587592262009895 -4.2
      vertex -0.8432159156357617 -4.420292628279099 0
    endloop
  endfacet
  facet normal 0.11187887598056206 0.8856124945496243 0.4507478525815933
    outer loop
      vertex -0.1491274838821202 -2.370313480017145 -4.2
      vertex -0.44503062214109645 -2.3329322204806355 -4.2
      vertex -0.28255733788191195 -4.491120277927222 0
    endloop
  endfacet
  facet normal 0.8908898733377372 0.05605003994068924 0.45074785258159317
    outer loop
      vertex -4.5 0 0
      vertex -4.464516155915151 -0.5639995510393683 0
      vertex -2.356272415621885 -0.29766642971522217 -4.2
    endloop
  endfacet
  facet normal 0.11187887598056206 0.8856124945496242 0.45074785258159317
    outer loop
      vertex -0.8432159156357617 -4.420292628279099 0
      vertex -0.28255733788191195 -4.491120277927222 0
      vertex -0.44503062214109645 -2.3329322204806355 -4.2
    endloop
  endfacet
  facet normal 0 0.8926513168046538 0.4507478525815932
    outer loop
      vertex -0.28255733788191195 -4.491120277927222 0
      vertex 0.28255733788191195 -4.491120277927222 0
      vertex -0.1491274838821202 -2.370313480017145 -4.2
    endloop
  endfacet
  facet normal 0.6877996607792319 0.5689973638120444 0.4507478525815932
    outer loop
      vertex -3.6405764746872635 -2.6450336353161292 0
      vertex -3.2803588233963525 -3.080461976679098 0
      vertex -1.7313004901258526 -1.6257993765806351 -4.2
    endloop
  endfacet
  facet normal 0.7536904345143157 0.478306494117218 0.45074785258159317
    outer loop
      vertex -1.9214153616405003 -1.3959899741946238 -4.2
      vertex -3.9433800601973856 -2.1678915334577193 0
      vertex -3.6405764746872635 -2.6450336353161292 0
    endloop
  endfacet
  facet normal 0.5246872794572318 0.72217008534614 0.4507478525815932
    outer loop
      vertex -2.868407953869103 -3.467309592491052 0
      vertex -2.4112205774054853 -3.7994756647590675 0
      vertex -1.5138819756531379 -1.8299689515924997 -4.2
    endloop
  endfacet
  facet normal 0.6110618755220588 0.6507148051770039 0.45074785258159317
    outer loop
      vertex -3.2803588233963525 -3.080461976679098 0
      vertex -2.868407953869103 -3.467309592491052 0
      vertex -1.7313004901258526 -1.6257993765806351 -4.2
    endloop
  endfacet
  facet normal 0.8076950598642656 0.3800724452837153 0.4507478525815933
    outer loop
      vertex -4.183994186497132 -1.6565604870810504 0
      vertex -3.9433800601973856 -2.1678915334577193 0
      vertex -2.0812283651041756 -1.144164975991574 -4.2
    endloop
  endfacet
  facet normal 0.8489618516265156 0.2758444269438126 0.45074785258159317
    outer loop
      vertex -4.35862422507884 -1.119104492241847 0
      vertex -4.183994186497132 -1.6565604870810504 0
      vertex -2.2082191539845972 -0.8742958126261099 -4.2
    endloop
  endfacet
  facet normal 0.8768400078433869 0.16726617720953482 0.45074785258159317
    outer loop
      vertex -4.464516155915151 -0.5639995510393683 0
      vertex -4.35862422507884 -1.119104492241847 0
      vertex -2.300385007680499 -0.5906384820165302 -4.2
    endloop
  endfacet
  facet normal 0.4300380515623761 0.7822363118658692 0.4507478525815932
    outer loop
      vertex -2.4112205774054853 -3.7994756647590675 0
      vertex -1.916006812042826 -4.071721736097088 0
      vertex -1.2725886380751172 -2.0052788230672856 -4.2
    endloop
  endfacet
  facet normal 0.328606866702101 0.8299662044621516 0.4507478525815932
    outer loop
      vertex -1.916006812042826 -4.071721736097088 0
      vertex -1.3905764746872633 -4.2797543233281905 0
      vertex -1.011225817467047 -2.1489642496067964 -4.2
    endloop
  endfacet
  facet normal 0.22199335525370928 0.8646070342162864 0.45074785258159317
    outer loop
      vertex -1.3905764746872633 -4.2797543233281905 0
      vertex -0.8432159156357617 -4.420292628279099 0
      vertex -0.7339153616405001 -2.2587592262009895 -4.2
    endloop
  endfacet
  facet normal 0.8908898733377372 -0.05605003994068938 0.4507478525815932
    outer loop
      vertex -2.375 0 -4.2
      vertex -2.356272415621885 0.29766642971522217 -4.2
      vertex -4.5 0 0
    endloop
  endfacet
  facet normal 0.8768400078433869 -0.16726617720953477 0.4507478525815933
    outer loop
      vertex -2.356272415621885 0.29766642971522217 -4.2
      vertex -2.300385007680499 0.5906384820165302 -4.2
      vertex -4.464516155915151 0.5639995510393683 0
    endloop
  endfacet
  facet normal 0.8489618516265156 -0.2758444269438128 0.4507478525815932
    outer loop
      vertex -2.300385007680499 0.5906384820165302 -4.2
      vertex -2.2082191539845972 0.8742958126261099 -4.2
      vertex -4.35862422507884 1.119104492241847 0
    endloop
  endfacet
  facet normal 0.8076950598642656 -0.3800724452837155 0.4507478525815932
    outer loop
      vertex -2.2082191539845972 0.8742958126261099 -4.2
      vertex -2.0812283651041756 1.144164975991574 -4.2
      vertex -4.183994186497132 1.6565604870810504 0
    endloop
  endfacet
  facet normal 0.753690434514316 -0.4783064941172175 0.4507478525815933
    outer loop
      vertex -2.0812283651041756 1.144164975991574 -4.2
      vertex -1.9214153616405003 1.3959899741946238 -4.2
      vertex -3.9433800601973856 2.1678915334577193 0
    endloop
  endfacet
  facet normal 0.6877996607792316 -0.5689973638120447 0.45074785258159317
    outer loop
      vertex -1.9214153616405003 1.3959899741946238 -4.2
      vertex -1.7313004901258526 1.6257993765806351 -4.2
      vertex -3.6405764746872635 2.6450336353161292 0
    endloop
  endfacet
  facet normal 0.6110618755220594 -0.6507148051770035 0.45074785258159317
    outer loop
      vertex -1.5138819756531379 1.8299689515924997 -4.2
      vertex -2.868407953869103 3.467309592491052 0
      vertex -1.7313004901258526 1.6257993765806351 -4.2
    endloop
  endfacet
  facet normal 0.5246872794572313 -0.7221700853461402 0.45074785258159317
    outer loop
      vertex -1.5138819756531379 1.8299689515924997 -4.2
      vertex -1.2725886380751172 2.0052788230672856 -4.2
      vertex -2.4112205774054853 3.7994756647590675 0
    endloop
  endfacet
  facet normal 0.43003805156237673 -0.782236311865869 0.4507478525815931
    outer loop
      vertex -1.2725886380751172 2.0052788230672856 -4.2
      vertex -1.0112258174670476 2.1489642496067964 -4.2
      vertex -1.9160068120428273 4.071721736097087 0
    endloop
  endfacet
  facet normal 0.3286068667021008 -0.8299662044621516 0.4507478525815931
    outer loop
      vertex -1.0112258174670476 2.1489642496067964 -4.2
      vertex -0.7339153616405001 2.2587592262009895 -4.2
      vertex -1.3905764746872633 4.2797543233281905 0
    endloop
  endfacet
  facet normal 0.2219933552537098 -0.8646070342162863 0.45074785258159306
    outer loop
      vertex -0.8432159156357606 4.420292628279099 0
      vertex -0.7339153616405001 2.2587592262009895 -4.2
      vertex -0.44503062214109584 2.3329322204806355 -4.2
    endloop
  endfacet
  facet normal 0.11187887598056234 -0.8856124945496243 0.45074785258159306
    outer loop
      vertex -0.28255733788190734 4.491120277927222 0
      vertex -0.44503062214109584 2.3329322204806355 -4.2
      vertex -0.14912748388211902 2.370313480017145 -4.2
    endloop
  endfacet
  facet normal 0 -0.8926513168046538 0.4507478525815932
    outer loop
      vertex -0.28255733788190734 4.491120277927222 0
      vertex -0.14912748388211902 2.370313480017145 -4.2
      vertex 0.14912748388211597 2.370313480017145 -4.2
    endloop
  endfacet
  facet normal 0.8908898733377372 -0.05605003994068924 0.45074785258159317
    outer loop
      vertex -4.464516155915151 0.5639995510393683 0
      vertex -4.5 0 0
      vertex -2.356272415621885 0.29766642971522217 -4.2
    endloop
  endfacet
  facet normal 0.8768400078433869 -0.16726617720953482 0.45074785258159317
    outer loop
      vertex -4.35862422507884 1.119104492241847 0
      vertex -4.464516155915151 0.5639995510393683 0
      vertex -2.300385007680499 0.5906384820165302 -4.2
    endloop
  endfacet
  facet normal 0.8489618516265156 -0.2758444269438126 0.45074785258159317
    outer loop
      vertex -4.183994186497132 1.6565604870810504 0
      vertex -4.35862422507884 1.119104492241847 0
      vertex -2.2082191539845972 0.8742958126261099 -4.2
    endloop
  endfacet
  facet normal 0.8076950598642656 -0.3800724452837153 0.4507478525815933
    outer loop
      vertex -3.9433800601973856 2.1678915334577193 0
      vertex -4.183994186497132 1.6565604870810504 0
      vertex -2.0812283651041756 1.144164975991574 -4.2
    endloop
  endfacet
  facet normal 0.7536904345143156 -0.47830649411721815 0.45074785258159317
    outer loop
      vertex -3.6405764746872635 2.6450336353161292 0
      vertex -3.9433800601973856 2.1678915334577193 0
      vertex -1.9214153616405003 1.3959899741946238 -4.2
    endloop
  endfacet
  facet normal 0.6877996607792318 -0.5689973638120441 0.4507478525815932
    outer loop
      vertex -1.7313004901258526 1.6257993765806351 -4.2
      vertex -3.2803588233963525 3.080461976679098 0
      vertex -3.6405764746872635 2.6450336353161292 0
    endloop
  endfacet
  facet normal 0.6110618755220588 -0.6507148051770039 0.45074785258159317
    outer loop
      vertex -3.2803588233963525 3.080461976679098 0
      vertex -1.7313004901258526 1.6257993765806351 -4.2
      vertex -2.868407953869103 3.467309592491052 0
    endloop
  endfacet
  facet normal 0.5246872794572318 -0.72217008534614 0.4507478525815932
    outer loop
      vertex -2.4112205774054853 3.7994756647590675 0
      vertex -2.868407953869103 3.467309592491052 0
      vertex -1.5138819756531379 1.8299689515924997 -4.2
    endloop
  endfacet
  facet normal 0.43003805156237596 -0.7822363118658694 0.45074785258159317
    outer loop
      vertex -1.9160068120428273 4.071721736097087 0
      vertex -2.4112205774054853 3.7994756647590675 0
      vertex -1.2725886380751172 2.0052788230672856 -4.2
    endloop
  endfacet
  facet normal 0.32860686670210154 -0.8299662044621513 0.4507478525815931
    outer loop
      vertex -1.0112258174670476 2.1489642496067964 -4.2
      vertex -1.3905764746872633 4.2797543233281905 0
      vertex -1.9160068120428273 4.071721736097087 0
    endloop
  endfacet
  facet normal 0.2219933552537089 -0.8646070342162867 0.4507478525815931
    outer loop
      vertex -0.8432159156357606 4.420292628279099 0
      vertex -1.3905764746872633 4.2797543233281905 0
      vertex -0.7339153616405001 2.2587592262009895 -4.2
    endloop
  endfacet
  facet normal 0.11187887598056137 -0.8856124945496244 0.4507478525815932
    outer loop
      vertex -0.28255733788190734 4.491120277927222 0
      vertex -0.8432159156357606 4.420292628279099 0
      vertex -0.44503062214109584 2.3329322204806355 -4.2
    endloop
  endfacet
  facet normal 0 0.8926513168046538 0.4507478525815933
    outer loop
      vertex 0.28255733788191195 -4.491120277927222 0
      vertex 0.1491274838821202 -2.370313480017145 -4.2
      vertex -0.1491274838821202 -2.370313480017145 -4.2
    endloop
  endfacet
  facet normal -0.11187887598056206 0.8856124945496243 0.4507478525815933
    outer loop
      vertex 0.1491274838821202 -2.370313480017145 -4.2
      vertex 0.28255733788191195 -4.491120277927222 0
      vertex 0.44503062214109645 -2.3329322204806355 -4.2
    endloop
  endfacet
  facet normal -0.2219933552537093 0.8646070342162865 0.4507478525815931
    outer loop
      vertex 0.7339153616405001 -2.2587592262009895 -4.2
      vertex 0.44503062214109645 -2.3329322204806355 -4.2
      vertex 0.8432159156357617 -4.420292628279099 0
    endloop
  endfacet
  facet normal -0.32860686670210154 0.8299662044621514 0.45074785258159317
    outer loop
      vertex 1.011225817467047 -2.1489642496067964 -4.2
      vertex 0.7339153616405001 -2.2587592262009895 -4.2
      vertex 1.3905764746872633 -4.2797543233281905 0
    endloop
  endfacet
  facet normal -0.4300380515623758 0.7822363118658694 0.45074785258159317
    outer loop
      vertex 1.916006812042826 -4.071721736097088 0
      vertex 1.272588638075116 -2.0052788230672864 -4.2
      vertex 1.011225817467047 -2.1489642496067964 -4.2
    endloop
  endfacet
  facet normal -0.5246872794572311 0.7221700853461404 0.4507478525815932
    outer loop
      vertex 1.5138819756531388 -1.829968951592499 -4.2
      vertex 1.272588638075116 -2.0052788230672864 -4.2
      vertex 2.411220577405483 -3.799475664759069 0
    endloop
  endfacet
  facet normal -0.6110618755220595 0.6507148051770032 0.45074785258159317
    outer loop
      vertex 2.868407953869105 -3.4673095924910506 0
      vertex 1.7313004901258526 -1.6257993765806351 -4.2
      vertex 1.5138819756531388 -1.829968951592499 -4.2
    endloop
  endfacet
  facet normal -0.6877996607792316 0.5689973638120447 0.45074785258159317
    outer loop
      vertex 1.9214153616405003 -1.3959899741946238 -4.2
      vertex 1.7313004901258526 -1.6257993765806351 -4.2
      vertex 3.6405764746872635 -2.6450336353161292 0
    endloop
  endfacet
  facet normal -0.753690434514316 0.4783064941172175 0.4507478525815933
    outer loop
      vertex 2.0812283651041756 -1.144164975991574 -4.2
      vertex 1.9214153616405003 -1.3959899741946238 -4.2
      vertex 3.9433800601973856 -2.1678915334577193 0
    endloop
  endfacet
  facet normal -0.8076950598642653 0.38007244528371575 0.45074785258159317
    outer loop
      vertex 2.208219153984597 -0.8742958126261111 -4.2
      vertex 2.0812283651041756 -1.144164975991574 -4.2
      vertex 4.183994186497131 -1.6565604870810526 0
    endloop
  endfacet
  facet normal -0.8489618516265155 0.2758444269438132 0.4507478525815932
    outer loop
      vertex 2.3003850076804992 -0.5906384820165292 -4.2
      vertex 2.208219153984597 -0.8742958126261111 -4.2
      vertex 4.358624225078841 -1.119104492241845 0
    endloop
  endfacet
  facet normal -0.876840007843387 0.16726617720953402 0.4507478525815933
    outer loop
      vertex 2.356272415621885 -0.29766642971522217 -4.2
      vertex 2.3003850076804992 -0.5906384820165292 -4.2
      vertex 4.464516155915151 -0.5639995510393683 0
    endloop
  endfacet
  facet normal -0.8908898733377372 0.05605003994068938 0.4507478525815932
    outer loop
      vertex 2.375 0 -4.2
      vertex 2.356272415621885 -0.29766642971522217 -4.2
      vertex 4.5 0 0
    endloop
  endfacet
  facet normal -0.11187887598056206 0.8856124945496242 0.45074785258159317
    outer loop
      vertex 0.28255733788191195 -4.491120277927222 0
      vertex 0.8432159156357617 -4.420292628279099 0
      vertex 0.44503062214109645 -2.3329322204806355 -4.2
    endloop
  endfacet
  facet normal -0.22199335525370928 0.8646070342162864 0.45074785258159317
    outer loop
      vertex 0.8432159156357617 -4.420292628279099 0
      vertex 1.3905764746872633 -4.2797543233281905 0
      vertex 0.7339153616405001 -2.2587592262009895 -4.2
    endloop
  endfacet
  facet normal -0.328606866702101 0.8299662044621516 0.4507478525815932
    outer loop
      vertex 1.3905764746872633 -4.2797543233281905 0
      vertex 1.916006812042826 -4.071721736097088 0
      vertex 1.011225817467047 -2.1489642496067964 -4.2
    endloop
  endfacet
  facet normal -0.43003805156237596 0.7822363118658693 0.4507478525815932
    outer loop
      vertex 1.916006812042826 -4.071721736097088 0
      vertex 2.411220577405483 -3.799475664759069 0
      vertex 1.272588638075116 -2.0052788230672864 -4.2
    endloop
  endfacet
  facet normal -0.5246872794572316 0.7221700853461402 0.4507478525815932
    outer loop
      vertex 2.411220577405483 -3.799475664759069 0
      vertex 2.868407953869105 -3.4673095924910506 0
      vertex 1.5138819756531388 -1.829968951592499 -4.2
    endloop
  endfacet
  facet normal -0.6110618755220592 0.6507148051770036 0.4507478525815932
    outer loop
      vertex 2.868407953869105 -3.4673095924910506 0
      vertex 3.2803588233963525 -3.080461976679098 0
      vertex 1.7313004901258526 -1.6257993765806351 -4.2
    endloop
  endfacet
  facet normal -0.6877996607792319 0.5689973638120444 0.4507478525815932
    outer loop
      vertex 3.2803588233963525 -3.080461976679098 0
      vertex 3.6405764746872635 -2.6450336353161292 0
      vertex 1.7313004901258526 -1.6257993765806351 -4.2
    endloop
  endfacet
  facet normal -0.7536904345143156 0.47830649411721815 0.45074785258159317
    outer loop
      vertex 3.6405764746872635 -2.6450336353161292 0
      vertex 3.9433800601973856 -2.1678915334577193 0
      vertex 1.9214153616405003 -1.3959899741946238 -4.2
    endloop
  endfacet
  facet normal -0.8076950598642655 0.3800724452837155 0.4507478525815932
    outer loop
      vertex 3.9433800601973856 -2.1678915334577193 0
      vertex 4.183994186497131 -1.6565604870810526 0
      vertex 2.0812283651041756 -1.144164975991574 -4.2
    endloop
  endfacet
  facet normal -0.8489618516265155 0.27584442694381317 0.4507478525815932
    outer loop
      vertex 4.183994186497131 -1.6565604870810526 0
      vertex 4.358624225078841 -1.119104492241845 0
      vertex 2.208219153984597 -0.8742958126261111 -4.2
    endloop
  endfacet
  facet normal -0.8768400078433871 0.16726617720953407 0.4507478525815933
    outer loop
      vertex 4.358624225078841 -1.119104492241845 0
      vertex 4.464516155915151 -0.5639995510393683 0
      vertex 2.3003850076804992 -0.5906384820165292 -4.2
    endloop
  endfacet
  facet normal -0.8908898733377372 0.05605003994068924 0.45074785258159317
    outer loop
      vertex 4.464516155915151 -0.5639995510393683 0
      vertex 4.5 0 0
      vertex 2.356272415621885 -0.29766642971522217 -4.2
    endloop
  endfacet
  facet normal -0.11187887598056072 -0.8856124945496244 0.4507478525815932
    outer loop
      vertex 0.14912748388211597 2.370313480017145 -4.2
      vertex 0.44503062214109584 2.3329322204806355 -4.2
      vertex 0.28255733788190973 4.491120277927222 0
    endloop
  endfacet
  facet normal -0.22199335525370886 -0.8646070342162866 0.45074785258159317
    outer loop
      vertex 0.44503062214109584 2.3329322204806355 -4.2
      vertex 0.7339153616405001 2.2587592262009895 -4.2
      vertex 0.8432159156357606 4.420292628279099 0
    endloop
  endfacet
  facet normal -0.43003805156237596 -0.7822363118658695 0.45074785258159317
    outer loop
      vertex 1.0112258174670476 2.1489642496067964 -4.2
      vertex 1.272588638075117 2.005278823067286 -4.2
      vertex 1.9160068120428273 4.071721736097087 0
    endloop
  endfacet
  facet normal -0.5246872794572325 -0.7221700853461395 0.45074785258159317
    outer loop
      vertex 1.272588638075117 2.005278823067286 -4.2
      vertex 1.513881975653138 1.8299689515924993 -4.2
      vertex 2.411220577405485 3.799475664759068 0
    endloop
  endfacet
  facet normal -0.3286068667021008 -0.8299662044621516 0.4507478525815931
    outer loop
      vertex 0.7339153616405001 2.2587592262009895 -4.2
      vertex 1.0112258174670476 2.1489642496067964 -4.2
      vertex 1.3905764746872633 4.2797543233281905 0
    endloop
  endfacet
  facet normal -0.7536904345143154 -0.47830649411721843 0.45074785258159317
    outer loop
      vertex 1.9214153616405003 1.3959899741946238 -4.2
      vertex 2.081228365104176 1.144164975991574 -4.2
      vertex 3.943380060197386 2.167891533457719 0
    endloop
  endfacet
  facet normal -0.8908898733377372 -0.0560500399406893 0.4507478525815932
    outer loop
      vertex 2.375 0 -4.2
      vertex 4.5 0 0
      vertex 2.356272415621885 0.2976664297152226 -4.2
    endloop
  endfacet
  facet normal -0.8768400078433869 -0.16726617720953504 0.4507478525815932
    outer loop
      vertex 2.300385007680499 0.5906384820165301 -4.2
      vertex 2.356272415621885 0.2976664297152226 -4.2
      vertex 4.464516155915151 0.5639995510393692 0
    endloop
  endfacet
  facet normal -0.8489618516265154 -0.2758444269438136 0.4507478525815932
    outer loop
      vertex 2.208219153984597 0.8742958126261102 -4.2
      vertex 2.300385007680499 0.5906384820165301 -4.2
      vertex 4.35862422507884 1.1191044922418465 0
    endloop
  endfacet
  facet normal -0.8076950598642664 -0.3800724452837137 0.4507478525815933
    outer loop
      vertex 2.081228365104176 1.144164975991574 -4.2
      vertex 2.208219153984597 0.8742958126261102 -4.2
      vertex 4.183994186497131 1.6565604870810509 0
    endloop
  endfacet
  facet normal -0.6110618755220582 -0.6507148051770045 0.4507478525815932
    outer loop
      vertex 1.513881975653138 1.8299689515924993 -4.2
      vertex 1.7313004901258524 1.6257993765806358 -4.2
      vertex 2.868407953869104 3.467309592491051 0
    endloop
  endfacet
  facet normal -0.687799660779232 -0.5689973638120441 0.4507478525815932
    outer loop
      vertex 1.7313004901258524 1.6257993765806358 -4.2
      vertex 1.9214153616405003 1.3959899741946238 -4.2
      vertex 3.6405764746872635 2.6450336353161292 0
    endloop
  endfacet
  facet normal -0.2219933552537089 -0.8646070342162867 0.45074785258159317
    outer loop
      vertex 1.3905764746872633 4.2797543233281905 0
      vertex 0.8432159156357606 4.420292628279099 0
      vertex 0.7339153616405001 2.2587592262009895 -4.2
    endloop
  endfacet
  facet normal -0.3286068667021015 -0.8299662044621513 0.4507478525815931
    outer loop
      vertex 1.9160068120428273 4.071721736097087 0
      vertex 1.3905764746872633 4.2797543233281905 0
      vertex 1.0112258174670476 2.1489642496067964 -4.2
    endloop
  endfacet
  facet normal -0.4300380515623757 -0.7822363118658696 0.45074785258159317
    outer loop
      vertex 2.411220577405485 3.799475664759068 0
      vertex 1.9160068120428273 4.071721736097087 0
      vertex 1.272588638075117 2.005278823067286 -4.2
    endloop
  endfacet
  facet normal -0.8768400078433868 -0.16726617720953535 0.45074785258159317
    outer loop
      vertex 2.300385007680499 0.5906384820165301 -4.2
      vertex 4.464516155915151 0.5639995510393692 0
      vertex 4.35862422507884 1.1191044922418465 0
    endloop
  endfacet
  facet normal -0.8489618516265154 -0.27584442694381345 0.4507478525815933
    outer loop
      vertex 2.208219153984597 0.8742958126261102 -4.2
      vertex 4.35862422507884 1.1191044922418465 0
      vertex 4.183994186497131 1.6565604870810509 0
    endloop
  endfacet
  facet normal -0.8076950598642662 -0.380072445283714 0.45074785258159317
    outer loop
      vertex 2.081228365104176 1.144164975991574 -4.2
      vertex 4.183994186497131 1.6565604870810509 0
      vertex 3.943380060197386 2.167891533457719 0
    endloop
  endfacet
  facet normal -0.6110618755220584 -0.6507148051770043 0.4507478525815931
    outer loop
      vertex 2.868407953869104 3.467309592491051 0
      vertex 1.7313004901258524 1.6257993765806358 -4.2
      vertex 3.280358823396352 3.080461976679099 0
    endloop
  endfacet
  facet normal -0.5246872794572321 -0.7221700853461397 0.4507478525815932
    outer loop
      vertex 2.868407953869104 3.467309592491051 0
      vertex 2.411220577405485 3.799475664759068 0
      vertex 1.513881975653138 1.8299689515924993 -4.2
    endloop
  endfacet
  facet normal -0.7536904345143156 -0.4783064941172181 0.45074785258159333
    outer loop
      vertex 1.9214153616405003 1.3959899741946238 -4.2
      vertex 3.943380060197386 2.167891533457719 0
      vertex 3.6405764746872635 2.6450336353161292 0
    endloop
  endfacet
  facet normal -0.687799660779232 -0.5689973638120439 0.4507478525815932
    outer loop
      vertex 3.6405764746872635 2.6450336353161292 0
      vertex 3.280358823396352 3.080461976679099 0
      vertex 1.7313004901258524 1.6257993765806358 -4.2
    endloop
  endfacet
  facet normal 0 -0.8926513168046538 0.4507478525815932
    outer loop
      vertex -0.28255733788190734 4.491120277927222 0
      vertex 0.14912748388211597 2.370313480017145 -4.2
      vertex 0.28255733788190973 4.491120277927222 0
    endloop
  endfacet
  facet normal -0.11187887598056183 -0.8856124945496243 0.4507478525815931
    outer loop
      vertex 0.8432159156357606 4.420292628279099 0
      vertex 0.28255733788190973 4.491120277927222 0
      vertex 0.44503062214109584 2.3329322204806355 -4.2
    endloop
  endfacet
  facet normal -0.8908898733377372 -0.05605003994068914 0.45074785258159317
    outer loop
      vertex 2.356272415621885 0.2976664297152226 -4.2
      vertex 4.5 0 0
      vertex 4.464516155915151 0.5639995510393692 0
    endloop
  endfacet
  facet normal -0.8443279255020157 -0.5358267949789955 0
    outer loop
      vertex -12.135254915624213 -8.816778784387097 -4.2
      vertex -13.144600200657951 -7.226305111525731 0
      vertex -13.144600200657951 -7.226305111525731 -4.2
    endloop
  endfacet
  facet normal -0.7705132427757891 -0.6374239897486899 0
    outer loop
      vertex -12.135254915624213 -8.816778784387097 -4.2
      vertex -10.934529411321176 -10.268206588930328 -4.2
      vertex -12.135254915624213 -8.816778784387097 0
    endloop
  endfacet
  facet normal -0.5877852522924732 -0.8090169943749473 0
    outer loop
      vertex -9.561359846230344 -11.55769864163684 -4.2
      vertex -8.037401924684952 -12.664918882530225 -4.2
      vertex -8.037401924684952 -12.664918882530225 0
    endloop
  endfacet
  facet normal -0.6845471059286885 -0.7289686274214117 0
    outer loop
      vertex -9.561359846230344 -11.55769864163684 -4.2
      vertex -9.561359846230344 -11.55769864163684 0
      vertex -10.934529411321176 -10.268206588930328 -4.2
    endloop
  endfacet
  facet normal 0 0 -1
    outer loop
      vertex -13.946647288323772 -5.521868290270168 -4.2
      vertex -14.528747416929466 -3.7303483074728225 -4.2
      vertex -13.946647288323772 5.521868290270168 -4.2
    endloop
  endfacet
  facet normal 0 0 -1
    outer loop
      vertex -14.528747416929466 -3.7303483074728225 -4.2
      vertex -14.881720519717168 -1.879998503464561 -4.2
      vertex -14.528747416929466 3.7303483074728225 -4.2
    endloop
  endfacet
  facet normal 0 0 -1
    outer loop
      vertex -13.144600200657951 -7.226305111525731 -4.2
      vertex -13.946647288323772 -5.521868290270168 -4.2
      vertex -13.144600200657951 7.226305111525731 -4.2
    endloop
  endfacet
  facet normal 0 0 -1
    outer loop
      vertex -12.135254915624213 -8.816778784387097 -4.2
      vertex -13.144600200657951 -7.226305111525731 -4.2
      vertex -12.135254915624213 8.816778784387097 -4.2
    endloop
  endfacet
  facet normal 0 0 -1
    outer loop
      vertex -12.135254915624213 -8.816778784387097 -4.2
      vertex -10.934529411321176 10.268206588930328 -4.2
      vertex -10.934529411321176 -10.268206588930328 -4.2
    endloop
  endfacet
  facet normal 0 0 -1
    outer loop
      vertex -9.561359846230344 -11.55769864163684 -4.2
      vertex -8.037401924684952 12.664918882530225 -4.2
      vertex -8.037401924684952 -12.664918882530225 -4.2
    endloop
  endfacet
  facet normal 0 0 -1
    outer loop
      vertex -9.561359846230344 -11.55769864163684 -4.2
      vertex -10.934529411321176 -10.268206588930328 -4.2
      vertex -9.561359846230344 11.55769864163684 -4.2
    endloop
  endfacet
  facet normal -0.904827052466019 -0.4257792915650738 0
    outer loop
      vertex -13.144600200657951 -7.226305111525731 -4.2
      vertex -13.946647288323772 -5.521868290270168 0
      vertex -13.946647288323772 -5.521868290270168 -4.2
    endloop
  endfacet
  facet normal -0.9510565162951539 -0.30901699437494673 0
    outer loop
      vertex -13.946647288323772 -5.521868290270168 -4.2
      vertex -14.528747416929466 -3.7303483074728225 0
      vertex -14.528747416929466 -3.7303483074728225 -4.2
    endloop
  endfacet
  facet normal -0.9822872507286886 -0.18738131458572516 0
    outer loop
      vertex -14.528747416929466 -3.7303483074728225 -4.2
      vertex -14.881720519717168 -1.879998503464561 0
      vertex -14.881720519717168 -1.879998503464561 -4.2
    endloop
  endfacet
  facet normal -0.9980267284282716 -0.06279051952931293 0
    outer loop
      vertex -14.881720519717168 -1.879998503464561 -4.2
      vertex -15 0 0
      vertex -15 0 -4.2
    endloop
  endfacet
  facet normal 0 0 -1
    outer loop
      vertex -2.8107197187858723 -14.734308760930329 -4.2
      vertex -0.7339153616405001 -2.2587592262009895 -4.2
      vertex -0.9418577929397064 -14.970400926424073 -4.2
    endloop
  endfacet
  facet normal 0 0 -1
    outer loop
      vertex -0.9418577929397064 -14.970400926424073 -4.2
      vertex -0.1491274838821202 -2.370313480017145 -4.2
      vertex 0.9418577929397064 -14.970400926424073 -4.2
    endloop
  endfacet
  facet normal -0.4817536741017145 -0.876306680043864 0
    outer loop
      vertex -8.037401924684952 -12.664918882530225 -4.2
      vertex -6.386689373476086 -13.572405786990293 -4.2
      vertex -6.386689373476086 -13.572405786990293 0
    endloop
  endfacet
  facet normal -0.3681245526846781 -0.9297764858882515 0
    outer loop
      vertex -6.386689373476086 -13.572405786990293 -4.2
      vertex -4.635254915624211 -14.265847744427303 -4.2
      vertex -4.635254915624211 -14.265847744427303 0
    endloop
  endfacet
  facet normal -0.24868988716485493 -0.9685831611286311 0
    outer loop
      vertex -4.635254915624211 -14.265847744427303 -4.2
      vertex -2.8107197187858723 -14.734308760930329 -4.2
      vertex -2.8107197187858723 -14.734308760930329 0
    endloop
  endfacet
  facet normal -0.12533323356430498 -0.9921147013144778 0
    outer loop
      vertex -2.8107197187858723 -14.734308760930329 -4.2
      vertex -0.9418577929397064 -14.970400926424073 -4.2
      vertex -0.9418577929397064 -14.970400926424073 0
    endloop
  endfacet
  facet normal 0 0 -1
    outer loop
      vertex -8.037401924684952 -12.664918882530225 -4.2
      vertex -6.386689373476091 13.572405786990291 -4.2
      vertex -6.386689373476086 -13.572405786990293 -4.2
    endloop
  endfacet
  facet normal 0 0 -1
    outer loop
      vertex -6.386689373476086 -13.572405786990293 -4.2
      vertex -4.635254915624211 14.265847744427303 -4.2
      vertex -4.635254915624211 -14.265847744427303 -4.2
    endloop
  endfacet
  facet normal 0 0 -1
    outer loop
      vertex -2.8107197187858723 -14.734308760930329 -4.2
      vertex -1.9214153616405003 -1.3959899741946238 -4.2
      vertex -1.7313004901258526 -1.6257993765806351 -4.2
    endloop
  endfacet
  facet normal 0 0 -1
    outer loop
      vertex -2.8107197187858723 -14.734308760930329 -4.2
      vertex -2.0812283651041756 -1.144164975991574 -4.2
      vertex -1.9214153616405003 -1.3959899741946238 -4.2
    endloop
  endfacet
  facet normal 0 0 -1
    outer loop
      vertex -2.8107197187858723 -14.734308760930329 -4.2
      vertex -1.7313004901258526 -1.6257993765806351 -4.2
      vertex -1.5138819756531379 -1.8299689515924997 -4.2
    endloop
  endfacet
  facet normal 0 0 -1
    outer loop
      vertex -4.635254915624211 -14.265847744427303 -4.2
      vertex -2.810719718785869 14.73430876093033 -4.2
      vertex -2.8107197187858723 -14.734308760930329 -4.2
    endloop
  endfacet
  facet normal 0 0 -1
    outer loop
      vertex -2.8107197187858723 -14.734308760930329 -4.2
      vertex -2.2082191539845972 -0.8742958126261099 -4.2
      vertex -2.0812283651041756 -1.144164975991574 -4.2
    endloop
  endfacet
  facet normal 0 0 -1
    outer loop
      vertex -2.8107197187858723 -14.734308760930329 -4.2
      vertex -2.300385007680499 -0.5906384820165302 -4.2
      vertex -2.2082191539845972 -0.8742958126261099 -4.2
    endloop
  endfacet
  facet normal 0 0 -1
    outer loop
      vertex -2.8107197187858723 -14.734308760930329 -4.2
      vertex -2.356272415621885 -0.29766642971522217 -4.2
      vertex -2.300385007680499 -0.5906384820165302 -4.2
    endloop
  endfacet
  facet normal 0 0 -1
    outer loop
      vertex -2.8107197187858723 -14.734308760930329 -4.2
      vertex -2.375 0 -4.2
      vertex -2.356272415621885 -0.29766642971522217 -4.2
    endloop
  endfacet
  facet normal 0 0 -1
    outer loop
      vertex -2.8107197187858723 -14.734308760930329 -4.2
      vertex -1.5138819756531379 -1.8299689515924997 -4.2
      vertex -1.2725886380751172 -2.0052788230672856 -4.2
    endloop
  endfacet
  facet normal 0 0 -1
    outer loop
      vertex -2.8107197187858723 -14.734308760930329 -4.2
      vertex -1.2725886380751172 -2.0052788230672856 -4.2
      vertex -1.011225817467047 -2.1489642496067964 -4.2
    endloop
  endfacet
  facet normal 0 0 -1
    outer loop
      vertex -2.8107197187858723 -14.734308760930329 -4.2
      vertex -1.011225817467047 -2.1489642496067964 -4.2
      vertex -0.7339153616405001 -2.2587592262009895 -4.2
    endloop
  endfacet
  facet normal 0 0 -1
    outer loop
      vertex -0.9418577929397064 -14.970400926424073 -4.2
      vertex -0.44503062214109645 -2.3329322204806355 -4.2
      vertex -0.1491274838821202 -2.370313480017145 -4.2
    endloop
  endfacet
  facet normal 0 0 -1
    outer loop
      vertex -0.9418577929397064 -14.970400926424073 -4.2
      vertex -0.7339153616405001 -2.2587592262009895 -4.2
      vertex -0.44503062214109645 -2.3329322204806355 -4.2
    endloop
  endfacet
  facet normal -0.7705132427757891 -0.6374239897486899 0
    outer loop
      vertex -10.934529411321176 -10.268206588930328 -4.2
      vertex -10.934529411321176 -10.268206588930328 0
      vertex -12.135254915624213 -8.816778784387097 0
    endloop
  endfacet
  facet normal -0.8443279255020157 -0.5358267949789955 0
    outer loop
      vertex -12.135254915624213 -8.816778784387097 -4.2
      vertex -12.135254915624213 -8.816778784387097 0
      vertex -13.144600200657951 -7.226305111525731 0
    endloop
  endfacet
  facet normal -0.5877852522924732 -0.8090169943749473 0
    outer loop
      vertex -9.561359846230344 -11.55769864163684 -4.2
      vertex -8.037401924684952 -12.664918882530225 0
      vertex -9.561359846230344 -11.55769864163684 0
    endloop
  endfacet
  facet normal -0.6845471059286885 -0.7289686274214117 0
    outer loop
      vertex -10.934529411321176 -10.268206588930328 -4.2
      vertex -9.561359846230344 -11.55769864163684 0
      vertex -10.934529411321176 -10.268206588930328 0
    endloop
  endfacet
  facet normal -0.904827052466019 -0.4257792915650738 0
    outer loop
      vertex -13.144600200657951 -7.226305111525731 -4.2
      vertex -13.144600200657951 -7.226305111525731 0
      vertex -13.946647288323772 -5.521868290270168 0
    endloop
  endfacet
  facet normal -0.9510565162951539 -0.30901699437494673 0
    outer loop
      vertex -13.946647288323772 -5.521868290270168 -4.2
      vertex -13.946647288323772 -5.521868290270168 0
      vertex -14.528747416929466 -3.7303483074728225 0
    endloop
  endfacet
  facet normal -0.9822872507286886 -0.18738131458572516 0
    outer loop
      vertex -14.528747416929466 -3.7303483074728225 -4.2
      vertex -14.528747416929466 -3.7303483074728225 0
      vertex -14.881720519717168 -1.879998503464561 0
    endloop
  endfacet
  facet normal -0.9980267284282716 -0.06279051952931293 0
    outer loop
      vertex -14.881720519717168 -1.879998503464561 -4.2
      vertex -14.881720519717168 -1.879998503464561 0
      vertex -15 0 0
    endloop
  endfacet
  facet normal 0 0 1
    outer loop
      vertex -13.144600200657951 -7.226305111525731 0
      vertex -13.946647288323772 5.521868290270168 0
      vertex -13.946647288323772 -5.521868290270168 0
    endloop
  endfacet
  facet normal 0 0 1
    outer loop
      vertex -14.528747416929466 -3.7303483074728225 0
      vertex -14.881720519717168 1.879998503464561 0
      vertex -14.881720519717168 -1.879998503464561 0
    endloop
  endfacet
  facet normal 0 0 1
    outer loop
      vertex -13.946647288323772 -5.521868290270168 0
      vertex -14.528747416929466 3.7303483074728225 0
      vertex -14.528747416929466 -3.7303483074728225 0
    endloop
  endfacet
  facet normal 0 0 1
    outer loop
      vertex -12.135254915624213 -8.816778784387097 0
      vertex -13.144600200657951 7.226305111525731 0
      vertex -13.144600200657951 -7.226305111525731 0
    endloop
  endfacet
  facet normal 0 0 1
    outer loop
      vertex -12.135254915624213 -8.816778784387097 0
      vertex -10.934529411321176 -10.268206588930328 0
      vertex -12.135254915624213 8.816778784387097 0
    endloop
  endfacet
  facet normal 0 0 1
    outer loop
      vertex -9.561359846230344 -11.55769864163684 0
      vertex -10.934529411321176 10.268206588930328 0
      vertex -10.934529411321176 -10.268206588930328 0
    endloop
  endfacet
  facet normal 0 0 1
    outer loop
      vertex -9.561359846230344 -11.55769864163684 0
      vertex -8.037401924684952 -12.664918882530225 0
      vertex -9.561359846230344 11.55769864163684 0
    endloop
  endfacet
  facet normal -0.3681245526846781 -0.9297764858882515 0
    outer loop
      vertex -6.386689373476086 -13.572405786990293 -4.2
      vertex -4.635254915624211 -14.265847744427303 0
      vertex -6.386689373476086 -13.572405786990293 0
    endloop
  endfacet
  facet normal -0.4817536741017145 -0.876306680043864 0
    outer loop
      vertex -8.037401924684952 -12.664918882530225 -4.2
      vertex -6.386689373476086 -13.572405786990293 0
      vertex -8.037401924684952 -12.664918882530225 0
    endloop
  endfacet
  facet normal -0.24868988716485493 -0.9685831611286311 0
    outer loop
      vertex -4.635254915624211 -14.265847744427303 -4.2
      vertex -2.8107197187858723 -14.734308760930329 0
      vertex -4.635254915624211 -14.265847744427303 0
    endloop
  endfacet
  facet normal -0.12533323356430498 -0.9921147013144778 0
    outer loop
      vertex -2.8107197187858723 -14.734308760930329 -4.2
      vertex -0.9418577929397064 -14.970400926424073 0
      vertex -2.8107197187858723 -14.734308760930329 0
    endloop
  endfacet
  facet normal 0 -1 0
    outer loop
      vertex -0.9418577929397064 -14.970400926424073 -4.2
      vertex 0.9418577929397064 -14.970400926424073 0
      vertex -0.9418577929397064 -14.970400926424073 0
    endloop
  endfacet
  facet normal 0 0 1
    outer loop
      vertex -2.8107197187858723 -14.734308760930329 0
      vertex -0.9418577929397064 -14.970400926424073 0
      vertex -1.916006812042826 -4.071721736097088 0
    endloop
  endfacet
  facet normal 0 0 1
    outer loop
      vertex -4.635254915624211 -14.265847744427303 0
      vertex -2.8107197187858723 -14.734308760930329 0
      vertex -3.6405764746872635 -2.6450336353161292 0
    endloop
  endfacet
  facet normal 0 0 1
    outer loop
      vertex -2.8107197187858723 -14.734308760930329 0
      vertex -1.916006812042826 -4.071721736097088 0
      vertex -2.4112205774054853 -3.7994756647590675 0
    endloop
  endfacet
  facet normal 0 0 1
    outer loop
      vertex -0.9418577929397064 -14.970400926424073 0
      vertex -1.3905764746872633 -4.2797543233281905 0
      vertex -1.916006812042826 -4.071721736097088 0
    endloop
  endfacet
  facet normal 0 0 1
    outer loop
      vertex -0.9418577929397064 -14.970400926424073 0
      vertex -0.8432159156357617 -4.420292628279099 0
      vertex -1.3905764746872633 -4.2797543233281905 0
    endloop
  endfacet
  facet normal 0 0 1
    outer loop
      vertex -0.9418577929397064 -14.970400926424073 0
      vertex -0.28255733788191195 -4.491120277927222 0
      vertex -0.8432159156357617 -4.420292628279099 0
    endloop
  endfacet
  facet normal 0 0 1
    outer loop
      vertex -0.9418577929397064 -14.970400926424073 0
      vertex 0.28255733788191195 -4.491120277927222 0
      vertex -0.28255733788191195 -4.491120277927222 0
    endloop
  endfacet
  facet normal 0 0 1
    outer loop
      vertex -8.037401924684952 -12.664918882530225 0
      vertex -6.386689373476086 -13.572405786990293 0
      vertex -8.037401924684952 12.664918882530225 0
    endloop
  endfacet
  facet normal 0 0 1
    outer loop
      vertex -6.386689373476086 -13.572405786990293 0
      vertex -4.635254915624211 -14.265847744427303 0
      vertex -6.386689373476091 13.572405786990291 0
    endloop
  endfacet
  facet normal 0 0 1
    outer loop
      vertex -4.635254915624211 -14.265847744427303 0
      vertex -3.9433800601973856 -2.1678915334577193 0
      vertex -4.183994186497132 -1.6565604870810504 0
    endloop
  endfacet
  facet normal 0 0 1
    outer loop
      vertex -4.635254915624211 -14.265847744427303 0
      vertex -4.183994186497132 -1.6565604870810504 0
      vertex -4.35862422507884 -1.119104492241847 0
    endloop
  endfacet
  facet normal 0 0 1
    outer loop
      vertex -4.635254915624211 -14.265847744427303 0
      vertex -3.6405764746872635 -2.6450336353161292 0
      vertex -3.9433800601973856 -2.1678915334577193 0
    endloop
  endfacet
  facet normal 0 0 1
    outer loop
      vertex -4.635254915624211 -14.265847744427303 0
      vertex -4.35862422507884 -1.119104492241847 0
      vertex -4.464516155915151 -0.5639995510393683 0
    endloop
  endfacet
  facet normal 0 0 1
    outer loop
      vertex -4.635254915624211 -14.265847744427303 0
      vertex -4.464516155915151 -0.5639995510393683 0
      vertex -4.5 0 0
    endloop
  endfacet
  facet normal 0 0 1
    outer loop
      vertex -2.8107197187858723 -14.734308760930329 0
      vertex -2.868407953869103 -3.467309592491052 0
      vertex -3.2803588233963525 -3.080461976679098 0
    endloop
  endfacet
  facet normal 0 0 1
    outer loop
      vertex -2.8107197187858723 -14.734308760930329 0
      vertex -3.2803588233963525 -3.080461976679098 0
      vertex -3.6405764746872635 -2.6450336353161292 0
    endloop
  endfacet
  facet normal 0 0 1
    outer loop
      vertex -2.8107197187858723 -14.734308760930329 0
      vertex -2.4112205774054853 -3.7994756647590675 0
      vertex -2.868407953869103 -3.467309592491052 0
    endloop
  endfacet
  facet normal 0 0 -1
    outer loop
      vertex -14.881720519717168 -1.879998503464561 -4.2
      vertex -15 0 -4.2
      vertex -14.881720519717168 1.879998503464561 -4.2
    endloop
  endfacet
  facet normal 0 0 -1
    outer loop
      vertex -14.881720519717168 -1.879998503464561 -4.2
      vertex -14.881720519717168 1.879998503464561 -4.2
      vertex -14.528747416929466 3.7303483074728225 -4.2
    endloop
  endfacet
  facet normal 0 0 -1
    outer loop
      vertex -14.528747416929466 -3.7303483074728225 -4.2
      vertex -14.528747416929466 3.7303483074728225 -4.2
      vertex -13.946647288323772 5.521868290270168 -4.2
    endloop
  endfacet
  facet normal 0 0 -1
    outer loop
      vertex -13.946647288323772 -5.521868290270168 -4.2
      vertex -13.946647288323772 5.521868290270168 -4.2
      vertex -13.144600200657951 7.226305111525731 -4.2
    endloop
  endfacet
  facet normal 0 0 -1
    outer loop
      vertex -13.144600200657951 -7.226305111525731 -4.2
      vertex -13.144600200657951 7.226305111525731 -4.2
      vertex -12.135254915624213 8.816778784387097 -4.2
    endloop
  endfacet
  facet normal 0 0 -1
    outer loop
      vertex -12.135254915624213 -8.816778784387097 -4.2
      vertex -12.135254915624213 8.816778784387097 -4.2
      vertex -10.934529411321176 10.268206588930328 -4.2
    endloop
  endfacet
  facet normal 0 0 -1
    outer loop
      vertex -10.934529411321176 -10.268206588930328 -4.2
      vertex -10.934529411321176 10.268206588930328 -4.2
      vertex -9.561359846230344 11.55769864163684 -4.2
    endloop
  endfacet
  facet normal 0 0 -1
    outer loop
      vertex -9.561359846230344 -11.55769864163684 -4.2
      vertex -9.561359846230344 11.55769864163684 -4.2
      vertex -8.037401924684952 12.664918882530225 -4.2
    endloop
  endfacet
  facet normal -0.9980267284282716 0.06279051952931293 0
    outer loop
      vertex -15 0 -4.2
      vertex -14.881720519717168 1.879998503464561 0
      vertex -14.881720519717168 1.879998503464561 -4.2
    endloop
  endfacet
  facet normal -0.9822872507286886 0.18738131458572516 0
    outer loop
      vertex -14.881720519717168 1.879998503464561 -4.2
      vertex -14.528747416929466 3.7303483074728225 0
      vertex -14.528747416929466 3.7303483074728225 -4.2
    endloop
  endfacet
  facet normal -0.9510565162951539 0.30901699437494673 0
    outer loop
      vertex -14.528747416929466 3.7303483074728225 -4.2
      vertex -13.946647288323772 5.521868290270168 0
      vertex -13.946647288323772 5.521868290270168 -4.2
    endloop
  endfacet
  facet normal -0.904827052466019 0.4257792915650738 0
    outer loop
      vertex -13.946647288323772 5.521868290270168 -4.2
      vertex -13.144600200657951 7.226305111525731 0
      vertex -13.144600200657951 7.226305111525731 -4.2
    endloop
  endfacet
  facet normal -0.8443279255020157 0.5358267949789955 0
    outer loop
      vertex -13.144600200657951 7.226305111525731 -4.2
      vertex -12.135254915624213 8.816778784387097 0
      vertex -12.135254915624213 8.816778784387097 -4.2
    endloop
  endfacet
  facet normal -0.7705132427757891 0.6374239897486899 0
    outer loop
      vertex -12.135254915624213 8.816778784387097 -4.2
      vertex -10.934529411321176 10.268206588930328 0
      vertex -10.934529411321176 10.268206588930328 -4.2
    endloop
  endfacet
  facet normal -0.6845471059286885 0.7289686274214117 0
    outer loop
      vertex -10.934529411321176 10.268206588930328 -4.2
      vertex -10.934529411321176 10.268206588930328 0
      vertex -9.561359846230344 11.55769864163684 -4.2
    endloop
  endfacet
  facet normal -0.5877852522924732 0.8090169943749473 0
    outer loop
      vertex -9.561359846230344 11.55769864163684 -4.2
      vertex -9.561359846230344 11.55769864163684 0
      vertex -8.037401924684952 12.664918882530225 -4.2
    endloop
  endfacet
  facet normal 0 0 -1
    outer loop
      vertex -8.037401924684952 -12.664918882530225 -4.2
      vertex -8.037401924684952 12.664918882530225 -4.2
      vertex -6.386689373476091 13.572405786990291 -4.2
    endloop
  endfacet
  facet normal 0 0 -1
    outer loop
      vertex -6.386689373476086 -13.572405786990293 -4.2
      vertex -6.386689373476091 13.572405786990291 -4.2
      vertex -4.635254915624211 14.265847744427303 -4.2
    endloop
  endfacet
  facet normal 0 0 -1
    outer loop
      vertex -4.635254915624211 -14.265847744427303 -4.2
      vertex -4.635254915624211 14.265847744427303 -4.2
      vertex -2.810719718785869 14.73430876093033 -4.2
    endloop
  endfacet
  facet normal 0 0 -1
    outer loop
      vertex -2.8107197187858723 -14.734308760930329 -4.2
      vertex -2.810719718785869 14.73430876093033 -4.2
      vertex -2.375 0 -4.2
    endloop
  endfacet
  facet normal 0 0 -1
    outer loop
      vertex -2.810719718785869 14.73430876093033 -4.2
      vertex -2.356272415621885 0.29766642971522217 -4.2
      vertex -2.375 0 -4.2
    endloop
  endfacet
  facet normal 0 0 -1
    outer loop
      vertex -2.810719718785869 14.73430876093033 -4.2
      vertex -2.300385007680499 0.5906384820165302 -4.2
      vertex -2.356272415621885 0.29766642971522217 -4.2
    endloop
  endfacet
  facet normal 0 0 -1
    outer loop
      vertex -2.810719718785869 14.73430876093033 -4.2
      vertex -2.2082191539845972 0.8742958126261099 -4.2
      vertex -2.300385007680499 0.5906384820165302 -4.2
    endloop
  endfacet
  facet normal 0 0 -1
    outer loop
      vertex -2.810719718785869 14.73430876093033 -4.2
      vertex -2.0812283651041756 1.144164975991574 -4.2
      vertex -2.2082191539845972 0.8742958126261099 -4.2
    endloop
  endfacet
  facet normal 0 0 -1
    outer loop
      vertex -2.810719718785869 14.73430876093033 -4.2
      vertex -1.9214153616405003 1.3959899741946238 -4.2
      vertex -2.0812283651041756 1.144164975991574 -4.2
    endloop
  endfacet
  facet normal 0 0 -1
    outer loop
      vertex -0.9418577929396992 14.970400926424073 -4.2
      vertex -1.7313004901258526 1.6257993765806351 -4.2
      vertex -1.9214153616405003 1.3959899741946238 -4.2
    endloop
  endfacet
  facet normal 0 0 -1
    outer loop
      vertex -0.9418577929396992 14.970400926424073 -4.2
      vertex -1.5138819756531379 1.8299689515924997 -4.2
      vertex -1.7313004901258526 1.6257993765806351 -4.2
    endloop
  endfacet
  facet normal 0 0 -1
    outer loop
      vertex -0.9418577929396992 14.970400926424073 -4.2
      vertex -1.2725886380751172 2.0052788230672856 -4.2
      vertex -1.5138819756531379 1.8299689515924997 -4.2
    endloop
  endfacet
  facet normal 0 0 -1
    outer loop
      vertex -0.9418577929396992 14.970400926424073 -4.2
      vertex -1.0112258174670476 2.1489642496067964 -4.2
      vertex -1.2725886380751172 2.0052788230672856 -4.2
    endloop
  endfacet
  facet normal 0 0 -1
    outer loop
      vertex -0.9418577929396992 14.970400926424073 -4.2
      vertex -0.7339153616405001 2.2587592262009895 -4.2
      vertex -1.0112258174670476 2.1489642496067964 -4.2
    endloop
  endfacet
  facet normal 0 0 -1
    outer loop
      vertex -0.9418577929396992 14.970400926424073 -4.2
      vertex -0.44503062214109584 2.3329322204806355 -4.2
      vertex -0.7339153616405001 2.2587592262009895 -4.2
    endloop
  endfacet
  facet normal 0 0 -1
    outer loop
      vertex -0.9418577929396992 14.970400926424073 -4.2
      vertex -0.14912748388211902 2.370313480017145 -4.2
      vertex -0.44503062214109584 2.3329322204806355 -4.2
    endloop
  endfacet
  facet normal 0 0 -1
    outer loop
      vertex -0.9418577929396992 14.970400926424073 -4.2
      vertex 0.14912748388211597 2.370313480017145 -4.2
      vertex -0.14912748388211902 2.370313480017145 -4.2
    endloop
  endfacet
  facet normal 0 0 -1
    outer loop
      vertex -2.810719718785869 14.73430876093033 -4.2
      vertex -0.9418577929396992 14.970400926424073 -4.2
      vertex -1.9214153616405003 1.3959899741946238 -4.2
    endloop
  endfacet
  facet normal -0.48175367410171477 0.8763066800438639 0
    outer loop
      vertex -8.037401924684952 12.664918882530225 -4.2
      vertex -8.037401924684952 12.664918882530225 0
      vertex -6.386689373476091 13.572405786990291 -4.2
    endloop
  endfacet
  facet normal -0.36812455268467803 0.9297764858882513 0
    outer loop
      vertex -6.386689373476091 13.572405786990291 -4.2
      vertex -6.386689373476091 13.572405786990291 0
      vertex -4.635254915624211 14.265847744427303 -4.2
    endloop
  endfacet
  facet normal -0.24868988716485538 0.968583161128631 0
    outer loop
      vertex -4.635254915624211 14.265847744427303 -4.2
      vertex -4.635254915624211 14.265847744427303 0
      vertex -2.810719718785869 14.73430876093033 -4.2
    endloop
  endfacet
  facet normal -0.1253332335643038 0.9921147013144779 0
    outer loop
      vertex -2.810719718785869 14.73430876093033 -4.2
      vertex -2.810719718785869 14.73430876093033 0
      vertex -0.9418577929396992 14.970400926424073 -4.2
    endloop
  endfacet
  facet normal 0 1 0
    outer loop
      vertex -0.9418577929396992 14.970400926424073 -4.2
      vertex -0.9418577929396992 14.970400926424073 0
      vertex 0.9418577929396992 14.970400926424073 -4.2
    endloop
  endfacet
  facet normal -0.9980267284282716 0.06279051952931293 0
    outer loop
      vertex -15 0 -4.2
      vertex -15 0 0
      vertex -14.881720519717168 1.879998503464561 0
    endloop
  endfacet
  facet normal -0.9822872507286886 0.18738131458572516 0
    outer loop
      vertex -14.881720519717168 1.879998503464561 -4.2
      vertex -14.881720519717168 1.879998503464561 0
      vertex -14.528747416929466 3.7303483074728225 0
    endloop
  endfacet
  facet normal -0.9510565162951539 0.30901699437494673 0
    outer loop
      vertex -14.528747416929466 3.7303483074728225 -4.2
      vertex -14.528747416929466 3.7303483074728225 0
      vertex -13.946647288323772 5.521868290270168 0
    endloop
  endfacet
  facet normal -0.904827052466019 0.4257792915650738 0
    outer loop
      vertex -13.946647288323772 5.521868290270168 -4.2
      vertex -13.946647288323772 5.521868290270168 0
      vertex -13.144600200657951 7.226305111525731 0
    endloop
  endfacet
  facet normal 0 0 1
    outer loop
      vertex -14.881720519717168 -1.879998503464561 0
      vertex -14.881720519717168 1.879998503464561 0
      vertex -15 0 0
    endloop
  endfacet
  facet normal 0 0 1
    outer loop
      vertex -14.528747416929466 -3.7303483074728225 0
      vertex -14.528747416929466 3.7303483074728225 0
      vertex -14.881720519717168 1.879998503464561 0
    endloop
  endfacet
  facet normal 0 0 1
    outer loop
      vertex -13.946647288323772 -5.521868290270168 0
      vertex -13.946647288323772 5.521868290270168 0
      vertex -14.528747416929466 3.7303483074728225 0
    endloop
  endfacet
  facet normal 0 0 1
    outer loop
      vertex -13.144600200657951 -7.226305111525731 0
      vertex -13.144600200657951 7.226305111525731 0
      vertex -13.946647288323772 5.521868290270168 0
    endloop
  endfacet
  facet normal 0 0 1
    outer loop
      vertex -12.135254915624213 -8.816778784387097 0
      vertex -12.135254915624213 8.816778784387097 0
      vertex -13.144600200657951 7.226305111525731 0
    endloop
  endfacet
  facet normal 0 0 1
    outer loop
      vertex -10.934529411321176 -10.268206588930328 0
      vertex -10.934529411321176 10.268206588930328 0
      vertex -12.135254915624213 8.816778784387097 0
    endloop
  endfacet
  facet normal 0 0 1
    outer loop
      vertex -9.561359846230344 -11.55769864163684 0
      vertex -9.561359846230344 11.55769864163684 0
      vertex -10.934529411321176 10.268206588930328 0
    endloop
  endfacet
  facet normal 0 0 1
    outer loop
      vertex -8.037401924684952 -12.664918882530225 0
      vertex -8.037401924684952 12.664918882530225 0
      vertex -9.561359846230344 11.55769864163684 0
    endloop
  endfacet
  facet normal -0.8443279255020157 0.5358267949789955 0
    outer loop
      vertex -13.144600200657951 7.226305111525731 -4.2
      vertex -13.144600200657951 7.226305111525731 0
      vertex -12.135254915624213 8.816778784387097 0
    endloop
  endfacet
  facet normal -0.7705132427757891 0.6374239897486899 0
    outer loop
      vertex -12.135254915624213 8.816778784387097 -4.2
      vertex -12.135254915624213 8.816778784387097 0
      vertex -10.934529411321176 10.268206588930328 0
    endloop
  endfacet
  facet normal -0.6845471059286885 0.7289686274214117 0
    outer loop
      vertex -9.561359846230344 11.55769864163684 -4.2
      vertex -10.934529411321176 10.268206588930328 0
      vertex -9.561359846230344 11.55769864163684 0
    endloop
  endfacet
  facet normal -0.5877852522924732 0.8090169943749473 0
    outer loop
      vertex -8.037401924684952 12.664918882530225 -4.2
      vertex -9.561359846230344 11.55769864163684 0
      vertex -8.037401924684952 12.664918882530225 0
    endloop
  endfacet
  facet normal 0 0 1
    outer loop
      vertex -4.635254915624211 -14.265847744427303 0
      vertex -4.5 0 0
      vertex -4.635254915624211 14.265847744427303 0
    endloop
  endfacet
  facet normal 0 0 1
    outer loop
      vertex -6.386689373476086 -13.572405786990293 0
      vertex -6.386689373476091 13.572405786990291 0
      vertex -8.037401924684952 12.664918882530225 0
    endloop
  endfacet
  facet normal 0 0 1
    outer loop
      vertex -4.635254915624211 -14.265847744427303 0
      vertex -4.635254915624211 14.265847744427303 0
      vertex -6.386689373476091 13.572405786990291 0
    endloop
  endfacet
  facet normal 0 0 1
    outer loop
      vertex -4.635254915624211 14.265847744427303 0
      vertex -4.5 0 0
      vertex -4.464516155915151 0.5639995510393683 0
    endloop
  endfacet
  facet normal 0 0 1
    outer loop
      vertex -4.635254915624211 14.265847744427303 0
      vertex -4.464516155915151 0.5639995510393683 0
      vertex -4.35862422507884 1.119104492241847 0
    endloop
  endfacet
  facet normal 0 0 1
    outer loop
      vertex -4.635254915624211 14.265847744427303 0
      vertex -4.35862422507884 1.119104492241847 0
      vertex -4.183994186497132 1.6565604870810504 0
    endloop
  endfacet
  facet normal 0 0 1
    outer loop
      vertex -4.635254915624211 14.265847744427303 0
      vertex -4.183994186497132 1.6565604870810504 0
      vertex -3.9433800601973856 2.1678915334577193 0
    endloop
  endfacet
  facet normal 0 0 1
    outer loop
      vertex -4.635254915624211 14.265847744427303 0
      vertex -3.9433800601973856 2.1678915334577193 0
      vertex -3.6405764746872635 2.6450336353161292 0
    endloop
  endfacet
  facet normal 0 0 1
    outer loop
      vertex -4.635254915624211 14.265847744427303 0
      vertex -3.6405764746872635 2.6450336353161292 0
      vertex -3.2803588233963525 3.080461976679098 0
    endloop
  endfacet
  facet normal 0 0 1
    outer loop
      vertex -4.635254915624211 14.265847744427303 0
      vertex -3.2803588233963525 3.080461976679098 0
      vertex -2.868407953869103 3.467309592491052 0
    endloop
  endfacet
  facet normal 0 0 1
    outer loop
      vertex -4.635254915624211 14.265847744427303 0
      vertex -2.868407953869103 3.467309592491052 0
      vertex -2.4112205774054853 3.7994756647590675 0
    endloop
  endfacet
  facet normal -0.48175367410171477 0.8763066800438639 0
    outer loop
      vertex -6.386689373476091 13.572405786990291 -4.2
      vertex -8.037401924684952 12.664918882530225 0
      vertex -6.386689373476091 13.572405786990291 0
    endloop
  endfacet
  facet normal -0.36812455268467803 0.9297764858882513 0
    outer loop
      vertex -4.635254915624211 14.265847744427303 -4.2
      vertex -6.386689373476091 13.572405786990291 0
      vertex -4.635254915624211 14.265847744427303 0
    endloop
  endfacet
  facet normal -0.24868988716485538 0.968583161128631 0
    outer loop
      vertex -2.810719718785869 14.73430876093033 -4.2
      vertex -4.635254915624211 14.265847744427303 0
      vertex -2.810719718785869 14.73430876093033 0
    endloop
  endfacet
  facet normal -0.1253332335643038 0.9921147013144779 0
    outer loop
      vertex -0.9418577929396992 14.970400926424073 -4.2
      vertex -2.810719718785869 14.73430876093033 0
      vertex -0.9418577929396992 14.970400926424073 0
    endloop
  endfacet
  facet normal 0 0 1
    outer loop
      vertex -2.810719718785869 14.73430876093033 0
      vertex -2.4112205774054853 3.7994756647590675 0
      vertex -1.9160068120428273 4.071721736097087 0
    endloop
  endfacet
  facet normal 0 0 1
    outer loop
      vertex -2.810719718785869 14.73430876093033 0
      vertex -1.9160068120428273 4.071721736097087 0
      vertex -1.3905764746872633 4.2797543233281905 0
    endloop
  endfacet
  facet normal 0 0 1
    outer loop
      vertex -4.635254915624211 14.265847744427303 0
      vertex -2.4112205774054853 3.7994756647590675 0
      vertex -2.810719718785869 14.73430876093033 0
    endloop
  endfacet
  facet normal 0 0 1
    outer loop
      vertex -2.810719718785869 14.73430876093033 0
      vertex -1.3905764746872633 4.2797543233281905 0
      vertex -0.8432159156357606 4.420292628279099 0
    endloop
  endfacet
  facet normal 0 0 1
    outer loop
      vertex -0.9418577929396992 14.970400926424073 0
      vertex -0.8432159156357606 4.420292628279099 0
      vertex -0.28255733788190734 4.491120277927222 0
    endloop
  endfacet
  facet normal 0 0 1
    outer loop
      vertex -2.810719718785869 14.73430876093033 0
      vertex -0.8432159156357606 4.420292628279099 0
      vertex -0.9418577929396992 14.970400926424073 0
    endloop
  endfacet
  facet normal 0 0 1
    outer loop
      vertex -0.9418577929396992 14.970400926424073 0
      vertex -0.28255733788190734 4.491120277927222 0
      vertex 0.9418577929396992 14.970400926424073 0
    endloop
  endfacet
  facet normal 0 0 -1
    outer loop
      vertex 0.9418577929397064 -14.970400926424073 -4.2
      vertex 1.9214153616405003 -1.3959899741946238 -4.2
      vertex 2.8107197187858723 -14.734308760930329 -4.2
    endloop
  endfacet
  facet normal 0 -1 0
    outer loop
      vertex -0.9418577929397064 -14.970400926424073 -4.2
      vertex 0.9418577929397064 -14.970400926424073 -4.2
      vertex 0.9418577929397064 -14.970400926424073 0
    endloop
  endfacet
  facet normal 0.12533323356430498 -0.9921147013144778 0
    outer loop
      vertex 0.9418577929397064 -14.970400926424073 -4.2
      vertex 2.8107197187858723 -14.734308760930329 -4.2
      vertex 2.8107197187858723 -14.734308760930329 0
    endloop
  endfacet
  facet normal 0.24868988716485493 -0.9685831611286311 0
    outer loop
      vertex 2.8107197187858723 -14.734308760930329 -4.2
      vertex 4.635254915624211 -14.265847744427303 -4.2
      vertex 4.635254915624211 -14.265847744427303 0
    endloop
  endfacet
  facet normal 0.3681245526846781 -0.9297764858882515 0
    outer loop
      vertex 4.635254915624211 -14.265847744427303 -4.2
      vertex 6.386689373476086 -13.572405786990293 -4.2
      vertex 6.386689373476086 -13.572405786990293 0
    endloop
  endfacet
  facet normal 0.4817536741017143 -0.8763066800438641 0
    outer loop
      vertex 6.386689373476086 -13.572405786990293 -4.2
      vertex 8.037401924684943 -12.66491888253023 -4.2
      vertex 8.037401924684943 -12.66491888253023 0
    endloop
  endfacet
  facet normal 0 0 -1
    outer loop
      vertex 0.9418577929397064 -14.970400926424073 -4.2
      vertex -0.1491274838821202 -2.370313480017145 -4.2
      vertex 0.1491274838821202 -2.370313480017145 -4.2
    endloop
  endfacet
  facet normal 0 0 -1
    outer loop
      vertex 0.9418577929397064 -14.970400926424073 -4.2
      vertex 0.1491274838821202 -2.370313480017145 -4.2
      vertex 0.44503062214109645 -2.3329322204806355 -4.2
    endloop
  endfacet
  facet normal 0 0 -1
    outer loop
      vertex 0.9418577929397064 -14.970400926424073 -4.2
      vertex 0.44503062214109645 -2.3329322204806355 -4.2
      vertex 0.7339153616405001 -2.2587592262009895 -4.2
    endloop
  endfacet
  facet normal 0 0 -1
    outer loop
      vertex 0.9418577929397064 -14.970400926424073 -4.2
      vertex 0.7339153616405001 -2.2587592262009895 -4.2
      vertex 1.011225817467047 -2.1489642496067964 -4.2
    endloop
  endfacet
  facet normal 0 0 -1
    outer loop
      vertex 0.9418577929397064 -14.970400926424073 -4.2
      vertex 1.011225817467047 -2.1489642496067964 -4.2
      vertex 1.272588638075116 -2.0052788230672864 -4.2
    endloop
  endfacet
  facet normal 0 0 -1
    outer loop
      vertex 0.9418577929397064 -14.970400926424073 -4.2
      vertex 1.272588638075116 -2.0052788230672864 -4.2
      vertex 1.5138819756531388 -1.829968951592499 -4.2
    endloop
  endfacet
  facet normal 0 0 -1
    outer loop
      vertex 0.9418577929397064 -14.970400926424073 -4.2
      vertex 1.5138819756531388 -1.829968951592499 -4.2
      vertex 1.7313004901258526 -1.6257993765806351 -4.2
    endloop
  endfacet
  facet normal 0 0 -1
    outer loop
      vertex 0.9418577929397064 -14.970400926424073 -4.2
      vertex 1.7313004901258526 -1.6257993765806351 -4.2
      vertex 1.9214153616405003 -1.3959899741946238 -4.2
    endloop
  endfacet
  facet normal 0 0 -1
    outer loop
      vertex 2.8107197187858723 -14.734308760930329 -4.2
      vertex 1.9214153616405003 -1.3959899741946238 -4.2
      vertex 2.0812283651041756 -1.144164975991574 -4.2
    endloop
  endfacet
  facet normal 0 0 -1
    outer loop
      vertex 2.8107197187858723 -14.734308760930329 -4.2
      vertex 2.0812283651041756 -1.144164975991574 -4.2
      vertex 2.208219153984597 -0.8742958126261111 -4.2
    endloop
  endfacet
  facet normal 0 0 -1
    outer loop
      vertex 2.8107197187858723 -14.734308760930329 -4.2
      vertex 2.208219153984597 -0.8742958126261111 -4.2
      vertex 2.3003850076804992 -0.5906384820165292 -4.2
    endloop
  endfacet
  facet normal 0 0 -1
    outer loop
      vertex 2.8107197187858723 -14.734308760930329 -4.2
      vertex 2.3003850076804992 -0.5906384820165292 -4.2
      vertex 2.356272415621885 -0.29766642971522217 -4.2
    endloop
  endfacet
  facet normal 0 0 -1
    outer loop
      vertex 2.8107197187858723 -14.734308760930329 -4.2
      vertex 2.356272415621885 -0.29766642971522217 -4.2
      vertex 2.375 0 -4.2
    endloop
  endfacet
  facet normal 0 0 -1
    outer loop
      vertex 2.8107197187858723 -14.734308760930329 -4.2
      vertex 4.635254915624211 14.265847744427303 -4.2
      vertex 4.635254915624211 -14.265847744427303 -4.2
    endloop
  endfacet
  facet normal 0 0 -1
    outer loop
      vertex 4.635254915624211 -14.265847744427303 -4.2
      vertex 6.386689373476091 13.572405786990291 -4.2
      vertex 6.386689373476086 -13.572405786990293 -4.2
    endloop
  endfacet
  facet normal 0 0 -1
    outer loop
      vertex 6.386689373476086 -13.572405786990293 -4.2
      vertex 8.03740192468495 12.664918882530227 -4.2
      vertex 8.037401924684943 -12.66491888253023 -4.2
    endloop
  endfacet
  facet normal 0.5877852522924727 -0.8090169943749477 0
    outer loop
      vertex 8.037401924684943 -12.66491888253023 -4.2
      vertex 9.56135984623035 -11.557698641636836 -4.2
      vertex 9.56135984623035 -11.557698641636836 0
    endloop
  endfacet
  facet normal 0.684547105928689 -0.7289686274214112 0
    outer loop
      vertex 9.56135984623035 -11.557698641636836 -4.2
      vertex 10.934529411321176 -10.268206588930328 -4.2
      vertex 10.934529411321176 -10.268206588930328 0
    endloop
  endfacet
  facet normal 0.7705132427757891 -0.6374239897486899 0
    outer loop
      vertex 10.934529411321176 -10.268206588930328 -4.2
      vertex 12.135254915624213 -8.816778784387097 -4.2
      vertex 10.934529411321176 -10.268206588930328 0
    endloop
  endfacet
  facet normal 0.8443279255020157 -0.5358267949789955 0
    outer loop
      vertex 12.135254915624213 -8.816778784387097 -4.2
      vertex 13.144600200657951 -7.226305111525731 -4.2
      vertex 12.135254915624213 -8.816778784387097 0
    endloop
  endfacet
  facet normal 0 0 -1
    outer loop
      vertex 8.037401924684943 -12.66491888253023 -4.2
      vertex 9.561359846230346 11.557698641636836 -4.2
      vertex 9.56135984623035 -11.557698641636836 -4.2
    endloop
  endfacet
  facet normal 0 0 -1
    outer loop
      vertex 9.56135984623035 -11.557698641636836 -4.2
      vertex 10.934529411321174 10.268206588930331 -4.2
      vertex 10.934529411321176 -10.268206588930328 -4.2
    endloop
  endfacet
  facet normal 0 0 -1
    outer loop
      vertex 10.934529411321176 -10.268206588930328 -4.2
      vertex 12.135254915624213 8.816778784387097 -4.2
      vertex 12.135254915624213 -8.816778784387097 -4.2
    endloop
  endfacet
  facet normal 0 0 -1
    outer loop
      vertex 12.135254915624213 -8.816778784387097 -4.2
      vertex 13.144600200657953 7.22630511152573 -4.2
      vertex 13.144600200657951 -7.226305111525731 -4.2
    endloop
  endfacet
  facet normal 0 0 -1
    outer loop
      vertex 13.144600200657951 -7.226305111525731 -4.2
      vertex 13.94664728832377 5.521868290270169 -4.2
      vertex 13.946647288323769 -5.5218682902701755 -4.2
    endloop
  endfacet
  facet normal 0 0 -1
    outer loop
      vertex 13.946647288323769 -5.5218682902701755 -4.2
      vertex 14.528747416929466 3.730348307472822 -4.2
      vertex 14.528747416929468 -3.7303483074728163 -4.2
    endloop
  endfacet
  facet normal 0 0 -1
    outer loop
      vertex 14.528747416929468 -3.7303483074728163 -4.2
      vertex 14.881720519717168 1.8799985034645639 -4.2
      vertex 14.881720519717168 -1.879998503464561 -4.2
    endloop
  endfacet
  facet normal 0.904827052466019 -0.4257792915650737 0
    outer loop
      vertex 13.144600200657951 -7.226305111525731 -4.2
      vertex 13.946647288323769 -5.5218682902701755 -4.2
      vertex 13.144600200657951 -7.226305111525731 0
    endloop
  endfacet
  facet normal 0.9510565162951536 -0.30901699437494723 0
    outer loop
      vertex 13.946647288323769 -5.5218682902701755 -4.2
      vertex 14.528747416929468 -3.7303483074728163 -4.2
      vertex 13.946647288323769 -5.5218682902701755 0
    endloop
  endfacet
  facet normal 0.9822872507286886 -0.18738131458572482 0
    outer loop
      vertex 14.528747416929468 -3.7303483074728163 -4.2
      vertex 14.881720519717168 -1.879998503464561 -4.2
      vertex 14.528747416929468 -3.7303483074728163 0
    endloop
  endfacet
  facet normal 0.9980267284282716 -0.06279051952931293 0
    outer loop
      vertex 14.881720519717168 -1.879998503464561 -4.2
      vertex 15 0 -4.2
      vertex 14.881720519717168 -1.879998503464561 0
    endloop
  endfacet
  facet normal 0.12533323356430498 -0.9921147013144778 0
    outer loop
      vertex 0.9418577929397064 -14.970400926424073 -4.2
      vertex 2.8107197187858723 -14.734308760930329 0
      vertex 0.9418577929397064 -14.970400926424073 0
    endloop
  endfacet
  facet normal 0.24868988716485493 -0.9685831611286311 0
    outer loop
      vertex 2.8107197187858723 -14.734308760930329 -4.2
      vertex 4.635254915624211 -14.265847744427303 0
      vertex 2.8107197187858723 -14.734308760930329 0
    endloop
  endfacet
  facet normal 0.3681245526846781 -0.9297764858882515 0
    outer loop
      vertex 4.635254915624211 -14.265847744427303 -4.2
      vertex 6.386689373476086 -13.572405786990293 0
      vertex 4.635254915624211 -14.265847744427303 0
    endloop
  endfacet
  facet normal 0.4817536741017143 -0.8763066800438641 0
    outer loop
      vertex 6.386689373476086 -13.572405786990293 -4.2
      vertex 8.037401924684943 -12.66491888253023 0
      vertex 6.386689373476086 -13.572405786990293 0
    endloop
  endfacet
  facet normal 0 0 1
    outer loop
      vertex -0.9418577929397064 -14.970400926424073 0
      vertex 0.9418577929397064 -14.970400926424073 0
      vertex 0.28255733788191195 -4.491120277927222 0
    endloop
  endfacet
  facet normal 0 0 1
    outer loop
      vertex 0.9418577929397064 -14.970400926424073 0
      vertex 2.8107197187858723 -14.734308760930329 0
      vertex 0.8432159156357617 -4.420292628279099 0
    endloop
  endfacet
  facet normal 0 0 1
    outer loop
      vertex 0.9418577929397064 -14.970400926424073 0
      vertex 0.8432159156357617 -4.420292628279099 0
      vertex 0.28255733788191195 -4.491120277927222 0
    endloop
  endfacet
  facet normal 0 0 1
    outer loop
      vertex 2.8107197187858723 -14.734308760930329 0
      vertex 1.3905764746872633 -4.2797543233281905 0
      vertex 0.8432159156357617 -4.420292628279099 0
    endloop
  endfacet
  facet normal 0 0 1
    outer loop
      vertex 2.8107197187858723 -14.734308760930329 0
      vertex 4.635254915624211 -14.265847744427303 0
      vertex 2.411220577405483 -3.799475664759069 0
    endloop
  endfacet
  facet normal 0 0 1
    outer loop
      vertex 2.8107197187858723 -14.734308760930329 0
      vertex 1.916006812042826 -4.071721736097088 0
      vertex 1.3905764746872633 -4.2797543233281905 0
    endloop
  endfacet
  facet normal 0 0 1
    outer loop
      vertex 2.8107197187858723 -14.734308760930329 0
      vertex 2.411220577405483 -3.799475664759069 0
      vertex 1.916006812042826 -4.071721736097088 0
    endloop
  endfacet
  facet normal 0 0 1
    outer loop
      vertex 4.635254915624211 -14.265847744427303 0
      vertex 2.868407953869105 -3.4673095924910506 0
      vertex 2.411220577405483 -3.799475664759069 0
    endloop
  endfacet
  facet normal 0 0 1
    outer loop
      vertex 4.635254915624211 -14.265847744427303 0
      vertex 3.2803588233963525 -3.080461976679098 0
      vertex 2.868407953869105 -3.4673095924910506 0
    endloop
  endfacet
  facet normal 0 0 1
    outer loop
      vertex 4.635254915624211 -14.265847744427303 0
      vertex 3.6405764746872635 -2.6450336353161292 0
      vertex 3.2803588233963525 -3.080461976679098 0
    endloop
  endfacet
  facet normal 0 0 1
    outer loop
      vertex 4.635254915624211 -14.265847744427303 0
      vertex 3.9433800601973856 -2.1678915334577193 0
      vertex 3.6405764746872635 -2.6450336353161292 0
    endloop
  endfacet
  facet normal 0 0 1
    outer loop
      vertex 4.635254915624211 -14.265847744427303 0
      vertex 4.183994186497131 -1.6565604870810526 0
      vertex 3.9433800601973856 -2.1678915334577193 0
    endloop
  endfacet
  facet normal 0 0 1
    outer loop
      vertex 4.635254915624211 -14.265847744427303 0
      vertex 4.358624225078841 -1.119104492241845 0
      vertex 4.183994186497131 -1.6565604870810526 0
    endloop
  endfacet
  facet normal 0 0 1
    outer loop
      vertex 4.635254915624211 -14.265847744427303 0
      vertex 4.464516155915151 -0.5639995510393683 0
      vertex 4.358624225078841 -1.119104492241845 0
    endloop
  endfacet
  facet normal 0 0 1
    outer loop
      vertex 4.635254915624211 -14.265847744427303 0
      vertex 4.5 0 0
      vertex 4.464516155915151 -0.5639995510393683 0
    endloop
  endfacet
  facet normal 0 0 1
    outer loop
      vertex 4.635254915624211 -14.265847744427303 0
      vertex 6.386689373476086 -13.572405786990293 0
      vertex 4.635254915624211 14.265847744427303 0
    endloop
  endfacet
  facet normal 0 0 1
    outer loop
      vertex 6.386689373476086 -13.572405786990293 0
      vertex 8.037401924684943 -12.66491888253023 0
      vertex 6.386689373476091 13.572405786990291 0
    endloop
  endfacet
  facet normal 0.5877852522924727 -0.8090169943749477 0
    outer loop
      vertex 8.037401924684943 -12.66491888253023 -4.2
      vertex 9.56135984623035 -11.557698641636836 0
      vertex 8.037401924684943 -12.66491888253023 0
    endloop
  endfacet
  facet normal 0.684547105928689 -0.7289686274214112 0
    outer loop
      vertex 9.56135984623035 -11.557698641636836 -4.2
      vertex 10.934529411321176 -10.268206588930328 0
      vertex 9.56135984623035 -11.557698641636836 0
    endloop
  endfacet
  facet normal 0.7705132427757891 -0.6374239897486899 0
    outer loop
      vertex 12.135254915624213 -8.816778784387097 -4.2
      vertex 12.135254915624213 -8.816778784387097 0
      vertex 10.934529411321176 -10.268206588930328 0
    endloop
  endfacet
  facet normal 0.8443279255020157 -0.5358267949789955 0
    outer loop
      vertex 13.144600200657951 -7.226305111525731 -4.2
      vertex 13.144600200657951 -7.226305111525731 0
      vertex 12.135254915624213 -8.816778784387097 0
    endloop
  endfacet
  facet normal 0.904827052466019 -0.4257792915650737 0
    outer loop
      vertex 13.946647288323769 -5.5218682902701755 -4.2
      vertex 13.946647288323769 -5.5218682902701755 0
      vertex 13.144600200657951 -7.226305111525731 0
    endloop
  endfacet
  facet normal 0.9510565162951536 -0.30901699437494723 0
    outer loop
      vertex 14.528747416929468 -3.7303483074728163 -4.2
      vertex 14.528747416929468 -3.7303483074728163 0
      vertex 13.946647288323769 -5.5218682902701755 0
    endloop
  endfacet
  facet normal 0.9822872507286886 -0.18738131458572482 0
    outer loop
      vertex 14.881720519717168 -1.879998503464561 -4.2
      vertex 14.881720519717168 -1.879998503464561 0
      vertex 14.528747416929468 -3.7303483074728163 0
    endloop
  endfacet
  facet normal 0.9980267284282716 -0.06279051952931293 0
    outer loop
      vertex 14.881720519717168 -1.879998503464561 0
      vertex 15 0 -4.2
      vertex 15 0 0
    endloop
  endfacet
  facet normal 0 0 1
    outer loop
      vertex 8.037401924684943 -12.66491888253023 0
      vertex 9.56135984623035 -11.557698641636836 0
      vertex 8.03740192468495 12.664918882530227 0
    endloop
  endfacet
  facet normal 0 0 1
    outer loop
      vertex 9.56135984623035 -11.557698641636836 0
      vertex 10.934529411321176 -10.268206588930328 0
      vertex 9.561359846230346 11.557698641636836 0
    endloop
  endfacet
  facet normal 0 0 1
    outer loop
      vertex 10.934529411321176 -10.268206588930328 0
      vertex 12.135254915624213 -8.816778784387097 0
      vertex 10.934529411321174 10.268206588930331 0
    endloop
  endfacet
  facet normal 0 0 1
    outer loop
      vertex 12.135254915624213 -8.816778784387097 0
      vertex 13.144600200657951 -7.226305111525731 0
      vertex 12.135254915624213 8.816778784387097 0
    endloop
  endfacet
  facet normal 0 0 1
    outer loop
      vertex 13.144600200657951 -7.226305111525731 0
      vertex 13.946647288323769 -5.5218682902701755 0
      vertex 13.144600200657953 7.22630511152573 0
    endloop
  endfacet
  facet normal 0 0 1
    outer loop
      vertex 13.946647288323769 -5.5218682902701755 0
      vertex 14.528747416929468 -3.7303483074728163 0
      vertex 13.94664728832377 5.521868290270169 0
    endloop
  endfacet
  facet normal 0 0 1
    outer loop
      vertex 14.528747416929468 -3.7303483074728163 0
      vertex 14.881720519717168 -1.879998503464561 0
      vertex 14.528747416929466 3.730348307472822 0
    endloop
  endfacet
  facet normal 0 0 -1
    outer loop
      vertex 2.8107197187858723 -14.734308760930329 -4.2
      vertex 2.375 0 -4.2
      vertex 2.810719718785869 14.73430876093033 -4.2
    endloop
  endfacet
  facet normal 0 0 -1
    outer loop
      vertex 0.9418577929396992 14.970400926424073 -4.2
      vertex 0.7339153616405001 2.2587592262009895 -4.2
      vertex 0.44503062214109584 2.3329322204806355 -4.2
    endloop
  endfacet
  facet normal 0 0 -1
    outer loop
      vertex 0.9418577929396992 14.970400926424073 -4.2
      vertex 0.44503062214109584 2.3329322204806355 -4.2
      vertex 0.14912748388211597 2.370313480017145 -4.2
    endloop
  endfacet
  facet normal 0 0 -1
    outer loop
      vertex 2.810719718785869 14.73430876093033 -4.2
      vertex 1.0112258174670476 2.1489642496067964 -4.2
      vertex 0.7339153616405001 2.2587592262009895 -4.2
    endloop
  endfacet
  facet normal 0 0 -1
    outer loop
      vertex 2.810719718785869 14.73430876093033 -4.2
      vertex 1.272588638075117 2.005278823067286 -4.2
      vertex 1.0112258174670476 2.1489642496067964 -4.2
    endloop
  endfacet
  facet normal 0 0 -1
    outer loop
      vertex 2.810719718785869 14.73430876093033 -4.2
      vertex 1.513881975653138 1.8299689515924993 -4.2
      vertex 1.272588638075117 2.005278823067286 -4.2
    endloop
  endfacet
  facet normal 0 0 -1
    outer loop
      vertex 2.810719718785869 14.73430876093033 -4.2
      vertex 2.375 0 -4.2
      vertex 2.356272415621885 0.2976664297152226 -4.2
    endloop
  endfacet
  facet normal 0 0 -1
    outer loop
      vertex 2.810719718785869 14.73430876093033 -4.2
      vertex 2.356272415621885 0.2976664297152226 -4.2
      vertex 2.300385007680499 0.5906384820165301 -4.2
    endloop
  endfacet
  facet normal 0 0 -1
    outer loop
      vertex 2.810719718785869 14.73430876093033 -4.2
      vertex 2.300385007680499 0.5906384820165301 -4.2
      vertex 2.208219153984597 0.8742958126261102 -4.2
    endloop
  endfacet
  facet normal 0 0 -1
    outer loop
      vertex 2.810719718785869 14.73430876093033 -4.2
      vertex 2.208219153984597 0.8742958126261102 -4.2
      vertex 2.081228365104176 1.144164975991574 -4.2
    endloop
  endfacet
  facet normal 0 0 -1
    outer loop
      vertex 2.8107197187858723 -14.734308760930329 -4.2
      vertex 2.810719718785869 14.73430876093033 -4.2
      vertex 4.635254915624211 14.265847744427303 -4.2
    endloop
  endfacet
  facet normal 0 0 -1
    outer loop
      vertex 2.810719718785869 14.73430876093033 -4.2
      vertex 1.7313004901258524 1.6257993765806358 -4.2
      vertex 1.513881975653138 1.8299689515924993 -4.2
    endloop
  endfacet
  facet normal 0 0 -1
    outer loop
      vertex 2.810719718785869 14.73430876093033 -4.2
      vertex 2.081228365104176 1.144164975991574 -4.2
      vertex 1.9214153616405003 1.3959899741946238 -4.2
    endloop
  endfacet
  facet normal 0 0 -1
    outer loop
      vertex 2.810719718785869 14.73430876093033 -4.2
      vertex 1.9214153616405003 1.3959899741946238 -4.2
      vertex 1.7313004901258524 1.6257993765806358 -4.2
    endloop
  endfacet
  facet normal 0 0 -1
    outer loop
      vertex 4.635254915624211 -14.265847744427303 -4.2
      vertex 4.635254915624211 14.265847744427303 -4.2
      vertex 6.386689373476091 13.572405786990291 -4.2
    endloop
  endfacet
  facet normal 0 0 -1
    outer loop
      vertex 6.386689373476086 -13.572405786990293 -4.2
      vertex 6.386689373476091 13.572405786990291 -4.2
      vertex 8.03740192468495 12.664918882530227 -4.2
    endloop
  endfacet
  facet normal 0 0 -1
    outer loop
      vertex -0.9418577929396992 14.970400926424073 -4.2
      vertex 0.9418577929396992 14.970400926424073 -4.2
      vertex 0.14912748388211597 2.370313480017145 -4.2
    endloop
  endfacet
  facet normal 0 0 -1
    outer loop
      vertex 0.9418577929396992 14.970400926424073 -4.2
      vertex 2.810719718785869 14.73430876093033 -4.2
      vertex 0.7339153616405001 2.2587592262009895 -4.2
    endloop
  endfacet
  facet normal 0.1253332335643038 0.9921147013144779 0
    outer loop
      vertex 0.9418577929396992 14.970400926424073 -4.2
      vertex 0.9418577929396992 14.970400926424073 0
      vertex 2.810719718785869 14.73430876093033 -4.2
    endloop
  endfacet
  facet normal 0.24868988716485538 0.968583161128631 0
    outer loop
      vertex 2.810719718785869 14.73430876093033 -4.2
      vertex 2.810719718785869 14.73430876093033 0
      vertex 4.635254915624211 14.265847744427303 -4.2
    endloop
  endfacet
  facet normal 0.36812455268467803 0.9297764858882513 0
    outer loop
      vertex 4.635254915624211 14.265847744427303 -4.2
      vertex 4.635254915624211 14.265847744427303 0
      vertex 6.386689373476091 13.572405786990291 -4.2
    endloop
  endfacet
  facet normal 0.4817536741017145 0.876306680043864 0
    outer loop
      vertex 6.386689373476091 13.572405786990291 -4.2
      vertex 6.386689373476091 13.572405786990291 0
      vertex 8.03740192468495 12.664918882530227 -4.2
    endloop
  endfacet
  facet normal 0 0 -1
    outer loop
      vertex 9.56135984623035 -11.557698641636836 -4.2
      vertex 9.561359846230346 11.557698641636836 -4.2
      vertex 10.934529411321174 10.268206588930331 -4.2
    endloop
  endfacet
  facet normal 0 0 -1
    outer loop
      vertex 8.037401924684943 -12.66491888253023 -4.2
      vertex 8.03740192468495 12.664918882530227 -4.2
      vertex 9.561359846230346 11.557698641636836 -4.2
    endloop
  endfacet
  facet normal 0 0 -1
    outer loop
      vertex 10.934529411321176 -10.268206588930328 -4.2
      vertex 10.934529411321174 10.268206588930331 -4.2
      vertex 12.135254915624213 8.816778784387097 -4.2
    endloop
  endfacet
  facet normal 0 0 -1
    outer loop
      vertex 12.135254915624213 -8.816778784387097 -4.2
      vertex 12.135254915624213 8.816778784387097 -4.2
      vertex 13.144600200657953 7.22630511152573 -4.2
    endloop
  endfacet
  facet normal 0 0 -1
    outer loop
      vertex 13.144600200657951 -7.226305111525731 -4.2
      vertex 13.144600200657953 7.22630511152573 -4.2
      vertex 13.94664728832377 5.521868290270169 -4.2
    endloop
  endfacet
  facet normal 0 0 -1
    outer loop
      vertex 14.881720519717168 -1.879998503464561 -4.2
      vertex 14.881720519717168 1.8799985034645639 -4.2
      vertex 15 0 -4.2
    endloop
  endfacet
  facet normal 0 0 -1
    outer loop
      vertex 14.528747416929468 -3.7303483074728163 -4.2
      vertex 14.528747416929466 3.730348307472822 -4.2
      vertex 14.881720519717168 1.8799985034645639 -4.2
    endloop
  endfacet
  facet normal 0 0 -1
    outer loop
      vertex 13.946647288323769 -5.5218682902701755 -4.2
      vertex 13.94664728832377 5.521868290270169 -4.2
      vertex 14.528747416929466 3.730348307472822 -4.2
    endloop
  endfacet
  facet normal 0.9980267284282716 0.06279051952931285 0
    outer loop
      vertex 15 0 -4.2
      vertex 14.881720519717168 1.8799985034645639 -4.2
      vertex 15 0 0
    endloop
  endfacet
  facet normal 0.9822872507286885 0.1873813145857255 0
    outer loop
      vertex 14.881720519717168 1.8799985034645639 -4.2
      vertex 14.528747416929466 3.730348307472822 -4.2
      vertex 14.881720519717168 1.8799985034645639 0
    endloop
  endfacet
  facet normal 0.9510565162951536 0.3090169943749474 0
    outer loop
      vertex 14.528747416929466 3.730348307472822 -4.2
      vertex 13.94664728832377 5.521868290270169 -4.2
      vertex 14.528747416929466 3.730348307472822 0
    endloop
  endfacet
  facet normal 0.9048270524660196 0.4257792915650726 0
    outer loop
      vertex 13.94664728832377 5.521868290270169 -4.2
      vertex 13.144600200657953 7.22630511152573 -4.2
      vertex 13.94664728832377 5.521868290270169 0
    endloop
  endfacet
  facet normal 0.6845471059286875 0.7289686274214127 0
    outer loop
      vertex 10.934529411321174 10.268206588930331 -4.2
      vertex 9.561359846230346 11.557698641636836 -4.2
      vertex 9.561359846230346 11.557698641636836 0
    endloop
  endfacet
  facet normal 0.5877852522924741 0.8090169943749466 0
    outer loop
      vertex 8.03740192468495 12.664918882530227 -4.2
      vertex 8.03740192468495 12.664918882530227 0
      vertex 9.561359846230346 11.557698641636836 -4.2
    endloop
  endfacet
  facet normal 0.7705132427757895 0.6374239897486894 0
    outer loop
      vertex 10.934529411321174 10.268206588930331 -4.2
      vertex 12.135254915624213 8.816778784387097 0
      vertex 12.135254915624213 8.816778784387097 -4.2
    endloop
  endfacet
  facet normal 0.8443279255020155 0.5358267949789961 0
    outer loop
      vertex 13.144600200657953 7.22630511152573 -4.2
      vertex 12.135254915624213 8.816778784387097 -4.2
      vertex 13.144600200657953 7.22630511152573 0
    endloop
  endfacet
  facet normal 0 0 1
    outer loop
      vertex 2.810719718785869 14.73430876093033 0
      vertex 2.411220577405485 3.799475664759068 0
      vertex 2.868407953869104 3.467309592491051 0
    endloop
  endfacet
  facet normal 0 0 1
    outer loop
      vertex 2.810719718785869 14.73430876093033 0
      vertex 3.280358823396352 3.080461976679099 0
      vertex 3.6405764746872635 2.6450336353161292 0
    endloop
  endfacet
  facet normal 0 0 1
    outer loop
      vertex 2.810719718785869 14.73430876093033 0
      vertex 2.868407953869104 3.467309592491051 0
      vertex 3.280358823396352 3.080461976679099 0
    endloop
  endfacet
  facet normal 0 0 1
    outer loop
      vertex 4.635254915624211 -14.265847744427303 0
      vertex 4.635254915624211 14.265847744427303 0
      vertex 4.5 0 0
    endloop
  endfacet
  facet normal 0 0 1
    outer loop
      vertex 4.635254915624211 14.265847744427303 0
      vertex 4.464516155915151 0.5639995510393692 0
      vertex 4.5 0 0
    endloop
  endfacet
  facet normal 0 0 1
    outer loop
      vertex 4.635254915624211 14.265847744427303 0
      vertex 4.35862422507884 1.1191044922418465 0
      vertex 4.464516155915151 0.5639995510393692 0
    endloop
  endfacet
  facet normal 0 0 1
    outer loop
      vertex 4.635254915624211 14.265847744427303 0
      vertex 3.6405764746872635 2.6450336353161292 0
      vertex 3.943380060197386 2.167891533457719 0
    endloop
  endfacet
  facet normal 0 0 1
    outer loop
      vertex 4.635254915624211 14.265847744427303 0
      vertex 4.183994186497131 1.6565604870810509 0
      vertex 4.35862422507884 1.1191044922418465 0
    endloop
  endfacet
  facet normal 0 0 1
    outer loop
      vertex 4.635254915624211 14.265847744427303 0
      vertex 3.943380060197386 2.167891533457719 0
      vertex 4.183994186497131 1.6565604870810509 0
    endloop
  endfacet
  facet normal 0 0 1
    outer loop
      vertex 6.386689373476086 -13.572405786990293 0
      vertex 6.386689373476091 13.572405786990291 0
      vertex 4.635254915624211 14.265847744427303 0
    endloop
  endfacet
  facet normal 0 0 1
    outer loop
      vertex 8.037401924684943 -12.66491888253023 0
      vertex 8.03740192468495 12.664918882530227 0
      vertex 6.386689373476091 13.572405786990291 0
    endloop
  endfacet
  facet normal 0 1 0
    outer loop
      vertex -0.9418577929396992 14.970400926424073 0
      vertex 0.9418577929396992 14.970400926424073 0
      vertex 0.9418577929396992 14.970400926424073 -4.2
    endloop
  endfacet
  facet normal 0.1253332335643038 0.9921147013144779 0
    outer loop
      vertex 2.810719718785869 14.73430876093033 -4.2
      vertex 0.9418577929396992 14.970400926424073 0
      vertex 2.810719718785869 14.73430876093033 0
    endloop
  endfacet
  facet normal 0.24868988716485538 0.968583161128631 0
    outer loop
      vertex 4.635254915624211 14.265847744427303 -4.2
      vertex 2.810719718785869 14.73430876093033 0
      vertex 4.635254915624211 14.265847744427303 0
    endloop
  endfacet
  facet normal 0.4817536741017145 0.876306680043864 0
    outer loop
      vertex 8.03740192468495 12.664918882530227 -4.2
      vertex 6.386689373476091 13.572405786990291 0
      vertex 8.03740192468495 12.664918882530227 0
    endloop
  endfacet
  facet normal 0.36812455268467803 0.9297764858882513 0
    outer loop
      vertex 6.386689373476091 13.572405786990291 -4.2
      vertex 4.635254915624211 14.265847744427303 0
      vertex 6.386689373476091 13.572405786990291 0
    endloop
  endfacet
  facet normal 0 0 1
    outer loop
      vertex 0.9418577929396992 14.970400926424073 0
      vertex -0.28255733788190734 4.491120277927222 0
      vertex 0.28255733788190973 4.491120277927222 0
    endloop
  endfacet
  facet normal 0 0 1
    outer loop
      vertex 0.9418577929396992 14.970400926424073 0
      vertex 0.28255733788190973 4.491120277927222 0
      vertex 0.8432159156357606 4.420292628279099 0
    endloop
  endfacet
  facet normal 0 0 1
    outer loop
      vertex 0.9418577929396992 14.970400926424073 0
      vertex 0.8432159156357606 4.420292628279099 0
      vertex 1.3905764746872633 4.2797543233281905 0
    endloop
  endfacet
  facet normal 0 0 1
    outer loop
      vertex 0.9418577929396992 14.970400926424073 0
      vertex 1.3905764746872633 4.2797543233281905 0
      vertex 1.9160068120428273 4.071721736097087 0
    endloop
  endfacet
  facet normal 0 0 1
    outer loop
      vertex 2.810719718785869 14.73430876093033 0
      vertex 1.9160068120428273 4.071721736097087 0
      vertex 2.411220577405485 3.799475664759068 0
    endloop
  endfacet
  facet normal 0 0 1
    outer loop
      vertex 2.810719718785869 14.73430876093033 0
      vertex 3.6405764746872635 2.6450336353161292 0
      vertex 4.635254915624211 14.265847744427303 0
    endloop
  endfacet
  facet normal 0 0 1
    outer loop
      vertex 0.9418577929396992 14.970400926424073 0
      vertex 1.9160068120428273 4.071721736097087 0
      vertex 2.810719718785869 14.73430876093033 0
    endloop
  endfacet
  facet normal 0.9980267284282716 0.06279051952931285 0
    outer loop
      vertex 14.881720519717168 1.8799985034645639 -4.2
      vertex 14.881720519717168 1.8799985034645639 0
      vertex 15 0 0
    endloop
  endfacet
  facet normal 0.9822872507286885 0.1873813145857255 0
    outer loop
      vertex 14.528747416929466 3.730348307472822 -4.2
      vertex 14.528747416929466 3.730348307472822 0
      vertex 14.881720519717168 1.8799985034645639 0
    endloop
  endfacet
  facet normal 0.9510565162951536 0.3090169943749474 0
    outer loop
      vertex 13.94664728832377 5.521868290270169 -4.2
      vertex 13.94664728832377 5.521868290270169 0
      vertex 14.528747416929466 3.730348307472822 0
    endloop
  endfacet
  facet normal 0.9048270524660196 0.4257792915650726 0
    outer loop
      vertex 13.144600200657953 7.22630511152573 -4.2
      vertex 13.144600200657953 7.22630511152573 0
      vertex 13.94664728832377 5.521868290270169 0
    endloop
  endfacet
  facet normal 0 0 1
    outer loop
      vertex 9.56135984623035 -11.557698641636836 0
      vertex 9.561359846230346 11.557698641636836 0
      vertex 8.03740192468495 12.664918882530227 0
    endloop
  endfacet
  facet normal 0 0 1
    outer loop
      vertex 10.934529411321176 -10.268206588930328 0
      vertex 10.934529411321174 10.268206588930331 0
      vertex 9.561359846230346 11.557698641636836 0
    endloop
  endfacet
  facet normal 0 0 1
    outer loop
      vertex 12.135254915624213 -8.816778784387097 0
      vertex 12.135254915624213 8.816778784387097 0
      vertex 10.934529411321174 10.268206588930331 0
    endloop
  endfacet
  facet normal 0 0 1
    outer loop
      vertex 13.144600200657951 -7.226305111525731 0
      vertex 13.144600200657953 7.22630511152573 0
      vertex 12.135254915624213 8.816778784387097 0
    endloop
  endfacet
  facet normal 0 0 1
    outer loop
      vertex 14.881720519717168 -1.879998503464561 0
      vertex 15 0 0
      vertex 14.881720519717168 1.8799985034645639 0
    endloop
  endfacet
  facet normal 0 0 1
    outer loop
      vertex 14.528747416929468 -3.7303483074728163 0
      vertex 14.528747416929466 3.730348307472822 0
      vertex 13.94664728832377 5.521868290270169 0
    endloop
  endfacet
  facet normal 0 0 1
    outer loop
      vertex 14.881720519717168 -1.879998503464561 0
      vertex 14.881720519717168 1.8799985034645639 0
      vertex 14.528747416929466 3.730348307472822 0
    endloop
  endfacet
  facet normal 0 0 1
    outer loop
      vertex 13.946647288323769 -5.5218682902701755 0
      vertex 13.94664728832377 5.521868290270169 0
      vertex 13.144600200657953 7.22630511152573 0
    endloop
  endfacet
  facet normal 0.6845471059286875 0.7289686274214127 0
    outer loop
      vertex 10.934529411321174 10.268206588930331 -4.2
      vertex 9.561359846230346 11.557698641636836 0
      vertex 10.934529411321174 10.268206588930331 0
    endloop
  endfacet
  facet normal 0.5877852522924741 0.8090169943749466 0
    outer loop
      vertex 9.561359846230346 11.557698641636836 -4.2
      vertex 8.03740192468495 12.664918882530227 0
      vertex 9.561359846230346 11.557698641636836 0
    endloop
  endfacet
  facet normal 0.8443279255020155 0.5358267949789961 0
    outer loop
      vertex 12.135254915624213 8.816778784387097 -4.2
      vertex 12.135254915624213 8.816778784387097 0
      vertex 13.144600200657953 7.22630511152573 0
    endloop
  endfacet
  facet normal 0.7705132427757895 0.6374239897486894 0
    outer loop
      vertex 10.934529411321174 10.268206588930331 -4.2
      vertex 10.934529411321174 10.268206588930331 0
      vertex 12.135254915624213 8.816778784387097 0
    endloop
  endfacet
endsolid OpenSCAD_Model
