solid OpenSCAD_Model
  facet normal 0.996786 0.0627204 -0.0498393
    outer loop
      vertex 4.925 0 -3
      vertex 4.88616 0.617266 -3
      vertex 5.075 0 0
    endloop
  endfacet
  facet normal 0 -0.998757 -0.0498413
    outer loop
      vertex -0.309243 -4.91528 -3
      vertex -0.0613708 -5.06499 0
      vertex -0.318662 -5.06499 0
    endloop
  endfacet
  facet normal -0 -0.998757 -0.0498413
    outer loop
      vertex 0.309243 -4.91528 -3
      vertex -0.0613708 -5.06499 0
      vertex -0.309243 -4.91528 -3
    endloop
  endfacet
  facet normal 0 -0.998757 -0.0498413
    outer loop
      vertex -0.0613708 -5.06499 0
      vertex 0.309243 -4.91528 -3
      vertex 0.318662 -5.06499 0
    endloop
  endfacet
  facet normal 0.996786 -0.0627159 -0.0498402
    outer loop
      vertex 5.03498 -0.636065 0
      vertex 4.88616 -0.617266 -3
      vertex 5.075 0 0
    endloop
  endfacet
  facet normal -0.996786 -0.0627204 -0.0498393
    outer loop
      vertex -4.88616 -0.617266 -3
      vertex -5.075 0 0
      vertex -4.925 0 -3
    endloop
  endfacet
  facet normal 0.125181 0.990881 -0.0498413
    outer loop
      vertex 0.95096 4.98511 0
      vertex 0.309243 4.91528 -3
      vertex 0.318662 5.06499 0
    endloop
  endfacet
  facet normal 0.683689 -0.72807 -0.0498423
    outer loop
      vertex 3.69952 -3.47408 0
      vertex 3.23493 -3.91035 0
      vertex 3.59017 -3.37139 -3
    endloop
  endfacet
  facet normal 0 0 1
    outer loop
      vertex 3.22614 -1.86983 0
      vertex 5.075 0 0
      vertex 5.03498 0.636065 0
    endloop
  endfacet
  facet normal 0 0 1
    outer loop
      vertex 3.22614 -1.86983 0
      vertex 5.03498 0.636065 0
      vertex 4.91556 1.2621 0
    endloop
  endfacet
  facet normal 0 0 1
    outer loop
      vertex 5.075 0 0
      vertex 3.22614 -1.86983 0
      vertex 5.03498 -0.636065 0
    endloop
  endfacet
  facet normal 0 0 1
    outer loop
      vertex 3.22614 -1.86983 0
      vertex 4.91556 1.2621 0
      vertex 4.71862 1.86823 0
    endloop
  endfacet
  facet normal 0 -0 1
    outer loop
      vertex 4.1619 -1.86983 0
      vertex 5.03498 -0.636065 0
      vertex 3.22614 -1.86983 0
    endloop
  endfacet
  facet normal 0 0 1
    outer loop
      vertex 3.22614 -1.86983 0
      vertex 4.71862 1.86823 0
      vertex 4.44726 2.4449 0
    endloop
  endfacet
  facet normal 0 0 1
    outer loop
      vertex 4.91556 -1.2621 0
      vertex 4.1619 -1.86983 0
      vertex 4.71862 -1.86823 0
    endloop
  endfacet
  facet normal 0 0 1
    outer loop
      vertex 4.71862 -1.86823 0
      vertex 4.1619 -1.86983 0
      vertex 4.44726 -2.4449 0
    endloop
  endfacet
  facet normal 0 0 1
    outer loop
      vertex 3.22614 -1.86983 0
      vertex 4.44726 2.4449 0
      vertex 4.10576 2.98301 0
    endloop
  endfacet
  facet normal 0 0 1
    outer loop
      vertex 3.22614 -1.86983 0
      vertex 4.10576 2.98301 0
      vertex 3.69952 3.47408 0
    endloop
  endfacet
  facet normal 0 0 1
    outer loop
      vertex 3.22614 3.91674 0
      vertex 3.69952 3.47408 0
      vertex 3.23493 3.91035 0
    endloop
  endfacet
  facet normal 0 0 1
    outer loop
      vertex 3.69952 3.47408 0
      vertex 3.22614 3.91674 0
      vertex 3.22614 -1.86983 0
    endloop
  endfacet
  facet normal 0 0 1
    outer loop
      vertex 5.03498 -0.636065 0
      vertex 4.1619 -1.86983 0
      vertex 4.91556 -1.2621 0
    endloop
  endfacet
  facet normal 0 0 1
    outer loop
      vertex 4.44726 -2.4449 0
      vertex 4.1619 -1.86983 0
      vertex 4.1619 -2.89455 0
    endloop
  endfacet
  facet normal 0 0 -1
    outer loop
      vertex 3.22614 -6.435 0
      vertex 2.71932 -4.28496 0
      vertex 3.22614 -4.11575 0
    endloop
  endfacet
  facet normal 0 0 -1
    outer loop
      vertex 3.22614 -6.435 0
      vertex 2.16083 -4.592 0
      vertex 2.71932 -4.28496 0
    endloop
  endfacet
  facet normal 0 0 -1
    outer loop
      vertex 3.22614 -6.435 0
      vertex 1.56826 -4.82661 0
      vertex 2.16083 -4.592 0
    endloop
  endfacet
  facet normal 0 0 -1
    outer loop
      vertex 3.22614 -6.435 0
      vertex 0.95096 -4.98511 0
      vertex 1.56826 -4.82661 0
    endloop
  endfacet
  facet normal 0 0 -1
    outer loop
      vertex -0.0613708 -6.435 0
      vertex 0.95096 -4.98511 0
      vertex 3.22614 -6.435 0
    endloop
  endfacet
  facet normal 0 0 -1
    outer loop
      vertex 0.95096 -4.98511 0
      vertex -0.0613708 -6.435 0
      vertex 0.318662 -5.06499 0
    endloop
  endfacet
  facet normal -0 0 -1
    outer loop
      vertex 0.318662 -5.06499 0
      vertex -0.0613708 -6.435 0
      vertex -0.0613708 -5.06499 0
    endloop
  endfacet
  facet normal 0 0 -1
    outer loop
      vertex 4.1619 -4.11575 0
      vertex 4.10576 -2.98301 0
      vertex 4.1619 -2.89455 0
    endloop
  endfacet
  facet normal 0 0 -1
    outer loop
      vertex 4.1619 -4.11575 0
      vertex 3.69952 -3.47408 0
      vertex 4.10576 -2.98301 0
    endloop
  endfacet
  facet normal 0 0 -1
    outer loop
      vertex 4.1619 -4.11575 0
      vertex 3.23493 -3.91035 0
      vertex 3.69952 -3.47408 0
    endloop
  endfacet
  facet normal 0 0 -1
    outer loop
      vertex 3.22614 -4.11575 0
      vertex 3.23493 -3.91035 0
      vertex 4.1619 -4.11575 0
    endloop
  endfacet
  facet normal 0 0 -1
    outer loop
      vertex 3.23493 -3.91035 0
      vertex 3.22614 -4.11575 0
      vertex 2.71932 -4.28496 0
    endloop
  endfacet
  facet normal 0 0 1
    outer loop
      vertex -0.0613708 3.73691 0
      vertex -1.50989 -1.86983 0
      vertex -0.0613708 -1.86983 0
    endloop
  endfacet
  facet normal 0 0 1
    outer loop
      vertex -0.0613708 -4.11575 0
      vertex -0.318662 -5.06499 0
      vertex -0.0613708 -5.06499 0
    endloop
  endfacet
  facet normal 0 0 1
    outer loop
      vertex -0.0613708 -4.11575 0
      vertex -0.95096 -4.98511 0
      vertex -0.318662 -5.06499 0
    endloop
  endfacet
  facet normal 0 0 1
    outer loop
      vertex -0.0613708 -4.11575 0
      vertex -1.56826 -4.82661 0
      vertex -0.95096 -4.98511 0
    endloop
  endfacet
  facet normal 0 0 1
    outer loop
      vertex -0.0613708 -4.11575 0
      vertex -2.16083 -4.592 0
      vertex -1.56826 -4.82661 0
    endloop
  endfacet
  facet normal 0 0 1
    outer loop
      vertex -0.0613708 -4.11575 0
      vertex -2.71932 -4.28496 0
      vertex -2.16083 -4.592 0
    endloop
  endfacet
  facet normal 0 -0 1
    outer loop
      vertex -2.71932 -4.28496 0
      vertex -0.0613708 -4.11575 0
      vertex -2.95222 -4.11575 0
    endloop
  endfacet
  facet normal 0 0 1
    outer loop
      vertex -2.71932 4.28496 0
      vertex -1.78704 4.73999 0
      vertex -2.16083 4.592 0
    endloop
  endfacet
  facet normal 0 0 1
    outer loop
      vertex -3.96738 -1.86983 0
      vertex -2.71932 4.28496 0
      vertex -3.23493 3.91035 0
    endloop
  endfacet
  facet normal 0 0 1
    outer loop
      vertex -3.96738 -1.86983 0
      vertex -3.23493 3.91035 0
      vertex -3.69952 3.47408 0
    endloop
  endfacet
  facet normal -0 0 1
    outer loop
      vertex -2.71932 4.28496 0
      vertex -3.96738 -1.86983 0
      vertex -1.78704 4.73999 0
    endloop
  endfacet
  facet normal -0 0 1
    outer loop
      vertex -4.10576 2.98301 0
      vertex -3.96738 -1.86983 0
      vertex -3.69952 3.47408 0
    endloop
  endfacet
  facet normal -0 0 1
    outer loop
      vertex -4.44726 2.4449 0
      vertex -3.96738 -1.86983 0
      vertex -4.10576 2.98301 0
    endloop
  endfacet
  facet normal -0 0 1
    outer loop
      vertex -4.71862 1.86823 0
      vertex -3.96738 -1.86983 0
      vertex -4.44726 2.4449 0
    endloop
  endfacet
  facet normal 0 -0 1
    outer loop
      vertex -4.10576 -2.98301 0
      vertex -3.96738 -1.86983 0
      vertex -4.44726 -2.4449 0
    endloop
  endfacet
  facet normal 0 0 1
    outer loop
      vertex -3.96738 -1.86983 0
      vertex -4.10576 -2.98301 0
      vertex -3.96738 -3.15029 0
    endloop
  endfacet
  facet normal -0 0 1
    outer loop
      vertex -4.91556 1.2621 0
      vertex -3.96738 -1.86983 0
      vertex -4.71862 1.86823 0
    endloop
  endfacet
  facet normal 0 0 1
    outer loop
      vertex -3.96738 -1.86983 0
      vertex -4.71862 -1.86823 0
      vertex -4.44726 -2.4449 0
    endloop
  endfacet
  facet normal -0 0 1
    outer loop
      vertex -5.03498 0.636065 0
      vertex -3.96738 -1.86983 0
      vertex -4.91556 1.2621 0
    endloop
  endfacet
  facet normal 0 0 1
    outer loop
      vertex -3.96738 -1.86983 0
      vertex -4.91556 -1.2621 0
      vertex -4.71862 -1.86823 0
    endloop
  endfacet
  facet normal -0 0 1
    outer loop
      vertex -5.075 0 0
      vertex -3.96738 -1.86983 0
      vertex -5.03498 0.636065 0
    endloop
  endfacet
  facet normal 0 0 1
    outer loop
      vertex -3.96738 -1.86983 0
      vertex -5.03498 -0.636065 0
      vertex -4.91556 -1.2621 0
    endloop
  endfacet
  facet normal 0 0 1
    outer loop
      vertex -3.96738 -1.86983 0
      vertex -5.075 0 0
      vertex -5.03498 -0.636065 0
    endloop
  endfacet
  facet normal 0 0 -1
    outer loop
      vertex -3.96738 -4.11575 0
      vertex -3.23493 -3.91035 0
      vertex -2.95222 -4.11575 0
    endloop
  endfacet
  facet normal 0 0 -1
    outer loop
      vertex -3.96738 -4.11575 0
      vertex -3.69952 -3.47408 0
      vertex -3.23493 -3.91035 0
    endloop
  endfacet
  facet normal -0 0 -1
    outer loop
      vertex -3.69952 -3.47408 0
      vertex -3.96738 -4.11575 0
      vertex -3.96738 -3.15029 0
    endloop
  endfacet
  facet normal 0 0 -1
    outer loop
      vertex 2.71932 4.28496 0
      vertex 3.22614 6.73955 0
      vertex 3.22614 3.91674 0
    endloop
  endfacet
  facet normal 0 0 -1
    outer loop
      vertex 2.16083 4.592 0
      vertex 3.22614 6.73955 0
      vertex 2.71932 4.28496 0
    endloop
  endfacet
  facet normal 0 0 -1
    outer loop
      vertex 1.56826 4.82661 0
      vertex 3.22614 6.73955 0
      vertex 2.16083 4.592 0
    endloop
  endfacet
  facet normal 0 0 -1
    outer loop
      vertex 0.95096 4.98511 0
      vertex 3.22614 6.73955 0
      vertex 1.56826 4.82661 0
    endloop
  endfacet
  facet normal 0 0 -1
    outer loop
      vertex -1.12746 6.73955 0
      vertex 0.95096 4.98511 0
      vertex 0.318662 5.06499 0
    endloop
  endfacet
  facet normal 0 0 -1
    outer loop
      vertex -1.12746 6.73955 0
      vertex 0.318662 5.06499 0
      vertex -0.318662 5.06499 0
    endloop
  endfacet
  facet normal 0 0 -1
    outer loop
      vertex -1.12746 6.73955 0
      vertex -0.318662 5.06499 0
      vertex -0.95096 4.98511 0
    endloop
  endfacet
  facet normal 0 0 -1
    outer loop
      vertex 0.95096 4.98511 0
      vertex -1.12746 6.73955 0
      vertex 3.22614 6.73955 0
    endloop
  endfacet
  facet normal 0 0 -1
    outer loop
      vertex -1.56826 4.82661 0
      vertex -1.12746 6.73955 0
      vertex -0.95096 4.98511 0
    endloop
  endfacet
  facet normal 0 0 -1
    outer loop
      vertex -1.12746 6.73955 0
      vertex -1.56826 4.82661 0
      vertex -1.78704 4.73999 0
    endloop
  endfacet
  facet normal -0.6837 0.728059 -0.0498391
    outer loop
      vertex -3.13931 3.79478 -3
      vertex -3.59017 3.37139 -3
      vertex -3.23493 3.91035 0
    endloop
  endfacet
  facet normal 0.683689 0.72807 -0.0498423
    outer loop
      vertex 3.59017 3.37139 -3
      vertex 3.23493 3.91035 0
      vertex 3.69952 3.47408 0
    endloop
  endfacet
  facet normal 0.996786 0.0627159 -0.0498402
    outer loop
      vertex 5.075 0 0
      vertex 4.88616 0.617266 -3
      vertex 5.03498 0.636065 0
    endloop
  endfacet
  facet normal 0.949875 -0.308631 -0.0498406
    outer loop
      vertex 4.71862 -1.86823 0
      vertex 4.57915 -1.81301 -3
      vertex 4.77027 -1.2248 -3
    endloop
  endfacet
  facet normal 0.367669 -0.92862 -0.0498395
    outer loop
      vertex 1.56826 -4.82661 0
      vertex 1.52191 -4.68395 -3
      vertex 2.09696 -4.45627 -3
    endloop
  endfacet
  facet normal -0.903703 -0.42525 -0.0498401
    outer loop
      vertex -4.44726 -2.4449 0
      vertex -4.71862 -1.86823 0
      vertex -4.31581 -2.37264 -3
    endloop
  endfacet
  facet normal -0.996786 0.0627159 -0.0498402
    outer loop
      vertex -4.88616 0.617266 -3
      vertex -5.075 0 0
      vertex -5.03498 0.636065 0
    endloop
  endfacet
  facet normal -0.903704 0.425248 -0.0498406
    outer loop
      vertex -4.57915 1.81301 -3
      vertex -4.71862 1.86823 0
      vertex -4.31581 2.37264 -3
    endloop
  endfacet
  facet normal -0.367669 0.92862 -0.0498395
    outer loop
      vertex -1.52191 4.68395 -3
      vertex -2.09696 4.45627 -3
      vertex -1.56826 4.82661 0
    endloop
  endfacet
  facet normal 0.248378 0.96738 -0.0498415
    outer loop
      vertex 1.52191 4.68395 -3
      vertex 0.922853 4.83776 -3
      vertex 0.95096 4.98511 0
    endloop
  endfacet
  facet normal 0.125182 0.990881 -0.0498416
    outer loop
      vertex 0.922853 4.83776 -3
      vertex 0.309243 4.91528 -3
      vertex 0.95096 4.98511 0
    endloop
  endfacet
  facet normal 0.903704 0.425248 -0.0498406
    outer loop
      vertex 4.57915 1.81301 -3
      vertex 4.31581 2.37264 -3
      vertex 4.71862 1.86823 0
    endloop
  endfacet
  facet normal 0.949875 0.308631 -0.0498406
    outer loop
      vertex 4.77027 1.2248 -3
      vertex 4.57915 1.81301 -3
      vertex 4.71862 1.86823 0
    endloop
  endfacet
  facet normal 0.981067 0.187145 -0.0498402
    outer loop
      vertex 5.03498 0.636065 0
      vertex 4.88616 0.617266 -3
      vertex 4.91556 1.2621 0
    endloop
  endfacet
  facet normal 0.996786 -0.0627204 -0.0498393
    outer loop
      vertex 5.075 0 0
      vertex 4.88616 -0.617266 -3
      vertex 4.925 0 -3
    endloop
  endfacet
  facet normal 0.843276 -0.535165 -0.0498393
    outer loop
      vertex 4.1619 -2.89455 0
      vertex 3.98441 -2.89484 -3
      vertex 4.44726 -2.4449 0
    endloop
  endfacet
  facet normal 0.843272 -0.535172 -0.049839
    outer loop
      vertex 3.98441 -2.89484 -3
      vertex 4.1619 -2.89455 0
      vertex 4.10576 -2.98301 0
    endloop
  endfacet
  facet normal 0.903704 -0.425248 -0.0498406
    outer loop
      vertex 4.71862 -1.86823 0
      vertex 4.31581 -2.37264 -3
      vertex 4.57915 -1.81301 -3
    endloop
  endfacet
  facet normal 0.248387 -0.967378 -0.0498396
    outer loop
      vertex 1.56826 -4.82661 0
      vertex 0.95096 -4.98511 0
      vertex 1.52191 -4.68395 -3
    endloop
  endfacet
  facet normal 0.36766 -0.928624 -0.0498415
    outer loop
      vertex 2.16083 -4.592 0
      vertex 1.56826 -4.82661 0
      vertex 2.09696 -4.45627 -3
    endloop
  endfacet
  facet normal 0.481153 -0.875219 -0.0498416
    outer loop
      vertex 2.16083 -4.592 0
      vertex 2.09696 -4.45627 -3
      vertex 2.63895 -4.15831 -3
    endloop
  endfacet
  facet normal 0.125182 -0.990881 -0.0498416
    outer loop
      vertex 0.95096 -4.98511 0
      vertex 0.309243 -4.91528 -3
      vertex 0.922853 -4.83776 -3
    endloop
  endfacet
  facet normal 0.587052 -0.808014 -0.0498387
    outer loop
      vertex 3.23493 -3.91035 0
      vertex 2.63895 -4.15831 -3
      vertex 3.13931 -3.79478 -3
    endloop
  endfacet
  facet normal 0 0 -1
    outer loop
      vertex 4.88616 -0.617266 -3
      vertex 4.88616 0.617266 -3
      vertex 4.925 0 -3
    endloop
  endfacet
  facet normal 0 0 -1
    outer loop
      vertex 4.77027 -1.2248 -3
      vertex 4.88616 0.617266 -3
      vertex 4.88616 -0.617266 -3
    endloop
  endfacet
  facet normal 0 0 -1
    outer loop
      vertex 4.77027 -1.2248 -3
      vertex 4.77027 1.2248 -3
      vertex 4.88616 0.617266 -3
    endloop
  endfacet
  facet normal 0 0 -1
    outer loop
      vertex 4.57915 -1.81301 -3
      vertex 4.77027 1.2248 -3
      vertex 4.77027 -1.2248 -3
    endloop
  endfacet
  facet normal 0 0 -1
    outer loop
      vertex 4.57915 -1.81301 -3
      vertex 4.57915 1.81301 -3
      vertex 4.77027 1.2248 -3
    endloop
  endfacet
  facet normal 0 0 -1
    outer loop
      vertex 4.31581 -2.37264 -3
      vertex 4.57915 1.81301 -3
      vertex 4.57915 -1.81301 -3
    endloop
  endfacet
  facet normal 0 0 -1
    outer loop
      vertex 4.31581 -2.37264 -3
      vertex 4.31581 2.37264 -3
      vertex 4.57915 1.81301 -3
    endloop
  endfacet
  facet normal 0 0 -1
    outer loop
      vertex 3.98441 -2.89484 -3
      vertex 4.31581 2.37264 -3
      vertex 4.31581 -2.37264 -3
    endloop
  endfacet
  facet normal 0 0 -1
    outer loop
      vertex 3.98441 -2.89484 -3
      vertex 3.98441 2.89484 -3
      vertex 4.31581 2.37264 -3
    endloop
  endfacet
  facet normal 0 0 -1
    outer loop
      vertex 3.59017 -3.37139 -3
      vertex 3.98441 2.89484 -3
      vertex 3.98441 -2.89484 -3
    endloop
  endfacet
  facet normal 0 0 -1
    outer loop
      vertex 3.59017 -3.37139 -3
      vertex 3.59017 3.37139 -3
      vertex 3.98441 2.89484 -3
    endloop
  endfacet
  facet normal 0 0 -1
    outer loop
      vertex 3.13931 -3.79478 -3
      vertex 3.59017 3.37139 -3
      vertex 3.59017 -3.37139 -3
    endloop
  endfacet
  facet normal 0 0 -1
    outer loop
      vertex 3.13931 -3.79478 -3
      vertex 3.13931 3.79478 -3
      vertex 3.59017 3.37139 -3
    endloop
  endfacet
  facet normal 0 0 -1
    outer loop
      vertex 2.63895 -4.15831 -3
      vertex 3.13931 3.79478 -3
      vertex 3.13931 -3.79478 -3
    endloop
  endfacet
  facet normal 0 0 -1
    outer loop
      vertex 2.63895 -4.15831 -3
      vertex 2.63895 4.15831 -3
      vertex 3.13931 3.79478 -3
    endloop
  endfacet
  facet normal 0 0 -1
    outer loop
      vertex 2.09696 -4.45627 -3
      vertex 2.63895 4.15831 -3
      vertex 2.63895 -4.15831 -3
    endloop
  endfacet
  facet normal 0 0 -1
    outer loop
      vertex 2.09696 -4.45627 -3
      vertex 2.09696 4.45627 -3
      vertex 2.63895 4.15831 -3
    endloop
  endfacet
  facet normal 0 0 -1
    outer loop
      vertex 1.52191 -4.68395 -3
      vertex 2.09696 4.45627 -3
      vertex 2.09696 -4.45627 -3
    endloop
  endfacet
  facet normal 0 0 -1
    outer loop
      vertex 1.52191 -4.68395 -3
      vertex 1.52191 4.68395 -3
      vertex 2.09696 4.45627 -3
    endloop
  endfacet
  facet normal 0 0 -1
    outer loop
      vertex 0.922853 -4.83776 -3
      vertex 1.52191 4.68395 -3
      vertex 1.52191 -4.68395 -3
    endloop
  endfacet
  facet normal 0 0 -1
    outer loop
      vertex 0.922853 -4.83776 -3
      vertex 0.922853 4.83776 -3
      vertex 1.52191 4.68395 -3
    endloop
  endfacet
  facet normal 0 0 -1
    outer loop
      vertex 0.309243 -4.91528 -3
      vertex 0.922853 4.83776 -3
      vertex 0.922853 -4.83776 -3
    endloop
  endfacet
  facet normal 0 0 -1
    outer loop
      vertex 0.309243 -4.91528 -3
      vertex 0.309243 4.91528 -3
      vertex 0.922853 4.83776 -3
    endloop
  endfacet
  facet normal 0 0 -1
    outer loop
      vertex -0.309243 -4.91528 -3
      vertex 0.309243 4.91528 -3
      vertex 0.309243 -4.91528 -3
    endloop
  endfacet
  facet normal 0 0 -1
    outer loop
      vertex -0.309243 -4.91528 -3
      vertex -0.309243 4.91528 -3
      vertex 0.309243 4.91528 -3
    endloop
  endfacet
  facet normal 0 0 -1
    outer loop
      vertex -0.922853 -4.83776 -3
      vertex -0.309243 4.91528 -3
      vertex -0.309243 -4.91528 -3
    endloop
  endfacet
  facet normal 0 0 -1
    outer loop
      vertex -0.922853 -4.83776 -3
      vertex -0.922853 4.83776 -3
      vertex -0.309243 4.91528 -3
    endloop
  endfacet
  facet normal 0 0 -1
    outer loop
      vertex -1.52191 -4.68395 -3
      vertex -0.922853 4.83776 -3
      vertex -0.922853 -4.83776 -3
    endloop
  endfacet
  facet normal 0 0 -1
    outer loop
      vertex -1.52191 -4.68395 -3
      vertex -1.52191 4.68395 -3
      vertex -0.922853 4.83776 -3
    endloop
  endfacet
  facet normal 0 0 -1
    outer loop
      vertex -2.09696 -4.45627 -3
      vertex -1.52191 4.68395 -3
      vertex -1.52191 -4.68395 -3
    endloop
  endfacet
  facet normal 0 0 -1
    outer loop
      vertex -2.09696 -4.45627 -3
      vertex -2.09696 4.45627 -3
      vertex -1.52191 4.68395 -3
    endloop
  endfacet
  facet normal 0 0 -1
    outer loop
      vertex -2.63895 -4.15831 -3
      vertex -2.09696 4.45627 -3
      vertex -2.09696 -4.45627 -3
    endloop
  endfacet
  facet normal 0 0 -1
    outer loop
      vertex -2.63895 -4.15831 -3
      vertex -2.63895 4.15831 -3
      vertex -2.09696 4.45627 -3
    endloop
  endfacet
  facet normal 0 0 -1
    outer loop
      vertex -3.13931 -3.79478 -3
      vertex -2.63895 4.15831 -3
      vertex -2.63895 -4.15831 -3
    endloop
  endfacet
  facet normal 0 0 -1
    outer loop
      vertex -3.13931 -3.79478 -3
      vertex -3.13931 3.79478 -3
      vertex -2.63895 4.15831 -3
    endloop
  endfacet
  facet normal 0 0 -1
    outer loop
      vertex -3.59017 -3.37139 -3
      vertex -3.13931 3.79478 -3
      vertex -3.13931 -3.79478 -3
    endloop
  endfacet
  facet normal 0 0 -1
    outer loop
      vertex -3.59017 -3.37139 -3
      vertex -3.59017 3.37139 -3
      vertex -3.13931 3.79478 -3
    endloop
  endfacet
  facet normal 0 0 -1
    outer loop
      vertex -3.98441 -2.89484 -3
      vertex -3.59017 3.37139 -3
      vertex -3.59017 -3.37139 -3
    endloop
  endfacet
  facet normal 0 0 -1
    outer loop
      vertex -3.98441 -2.89484 -3
      vertex -3.98441 2.89484 -3
      vertex -3.59017 3.37139 -3
    endloop
  endfacet
  facet normal 0 0 -1
    outer loop
      vertex -4.31581 -2.37264 -3
      vertex -3.98441 2.89484 -3
      vertex -3.98441 -2.89484 -3
    endloop
  endfacet
  facet normal 0 0 -1
    outer loop
      vertex -4.31581 -2.37264 -3
      vertex -4.31581 2.37264 -3
      vertex -3.98441 2.89484 -3
    endloop
  endfacet
  facet normal 0 0 -1
    outer loop
      vertex -4.57915 -1.81301 -3
      vertex -4.31581 2.37264 -3
      vertex -4.31581 -2.37264 -3
    endloop
  endfacet
  facet normal 0 0 -1
    outer loop
      vertex -4.57915 -1.81301 -3
      vertex -4.57915 1.81301 -3
      vertex -4.31581 2.37264 -3
    endloop
  endfacet
  facet normal 0 0 -1
    outer loop
      vertex -4.77027 -1.2248 -3
      vertex -4.57915 1.81301 -3
      vertex -4.57915 -1.81301 -3
    endloop
  endfacet
  facet normal 0 0 -1
    outer loop
      vertex -4.77027 -1.2248 -3
      vertex -4.77027 1.2248 -3
      vertex -4.57915 1.81301 -3
    endloop
  endfacet
  facet normal 0 0 -1
    outer loop
      vertex -4.88616 -0.617266 -3
      vertex -4.77027 1.2248 -3
      vertex -4.77027 -1.2248 -3
    endloop
  endfacet
  facet normal 0 0 -1
    outer loop
      vertex -4.88616 -0.617266 -3
      vertex -4.88616 0.617266 -3
      vertex -4.77027 1.2248 -3
    endloop
  endfacet
  facet normal 0 -0 -1
    outer loop
      vertex -4.88616 0.617266 -3
      vertex -4.88616 -0.617266 -3
      vertex -4.925 0 -3
    endloop
  endfacet
  facet normal -0.981067 0.187145 -0.0498402
    outer loop
      vertex -4.88616 0.617266 -3
      vertex -5.03498 0.636065 0
      vertex -4.91556 1.2621 0
    endloop
  endfacet
  facet normal 0 0.998757 -0.0498413
    outer loop
      vertex 0.309243 4.91528 -3
      vertex -0.318662 5.06499 0
      vertex 0.318662 5.06499 0
    endloop
  endfacet
  facet normal 0 0.998757 -0.0498413
    outer loop
      vertex -0.318662 5.06499 0
      vertex 0.309243 4.91528 -3
      vertex -0.309243 4.91528 -3
    endloop
  endfacet
  facet normal -0.367663 0.928623 -0.0498409
    outer loop
      vertex -2.09696 4.45627 -3
      vertex -1.78704 4.73999 0
      vertex -1.56826 4.82661 0
    endloop
  endfacet
  facet normal -0.367659 0.928624 -0.0498415
    outer loop
      vertex -1.78704 4.73999 0
      vertex -2.09696 4.45627 -3
      vertex -2.16083 4.592 0
    endloop
  endfacet
  facet normal 0.36766 0.928624 -0.0498415
    outer loop
      vertex 2.09696 4.45627 -3
      vertex 1.56826 4.82661 0
      vertex 2.16083 4.592 0
    endloop
  endfacet
  facet normal 0.248387 0.967378 -0.0498396
    outer loop
      vertex 1.52191 4.68395 -3
      vertex 0.95096 4.98511 0
      vertex 1.56826 4.82661 0
    endloop
  endfacet
  facet normal 0.769562 0.636624 -0.0498392
    outer loop
      vertex 3.98441 2.89484 -3
      vertex 3.69952 3.47408 0
      vertex 4.10576 2.98301 0
    endloop
  endfacet
  facet normal 0.843277 0.535163 -0.0498399
    outer loop
      vertex 4.31581 2.37264 -3
      vertex 3.98441 2.89484 -3
      vertex 4.44726 2.4449 0
    endloop
  endfacet
  facet normal 0.843275 0.535167 -0.049839
    outer loop
      vertex 4.44726 2.4449 0
      vertex 3.98441 2.89484 -3
      vertex 4.10576 2.98301 0
    endloop
  endfacet
  facet normal 0.903703 0.42525 -0.0498401
    outer loop
      vertex 4.71862 1.86823 0
      vertex 4.31581 2.37264 -3
      vertex 4.44726 2.4449 0
    endloop
  endfacet
  facet normal 0.949876 0.308628 -0.0498398
    outer loop
      vertex 4.77027 1.2248 -3
      vertex 4.71862 1.86823 0
      vertex 4.91556 1.2621 0
    endloop
  endfacet
  facet normal 0.981067 0.187143 -0.0498399
    outer loop
      vertex 4.88616 0.617266 -3
      vertex 4.77027 1.2248 -3
      vertex 4.91556 1.2621 0
    endloop
  endfacet
  facet normal 0.981067 -0.187145 -0.0498402
    outer loop
      vertex 4.91556 -1.2621 0
      vertex 4.88616 -0.617266 -3
      vertex 5.03498 -0.636065 0
    endloop
  endfacet
  facet normal 0.843277 -0.535163 -0.0498399
    outer loop
      vertex 4.44726 -2.4449 0
      vertex 3.98441 -2.89484 -3
      vertex 4.31581 -2.37264 -3
    endloop
  endfacet
  facet normal 0.903703 -0.42525 -0.0498401
    outer loop
      vertex 4.44726 -2.4449 0
      vertex 4.31581 -2.37264 -3
      vertex 4.71862 -1.86823 0
    endloop
  endfacet
  facet normal 0.769562 -0.636624 -0.0498392
    outer loop
      vertex 4.10576 -2.98301 0
      vertex 3.69952 -3.47408 0
      vertex 3.98441 -2.89484 -3
    endloop
  endfacet
  facet normal 0.769553 -0.636635 -0.0498422
    outer loop
      vertex 3.69952 -3.47408 0
      vertex 3.59017 -3.37139 -3
      vertex 3.98441 -2.89484 -3
    endloop
  endfacet
  facet normal 0.125181 -0.990881 -0.0498413
    outer loop
      vertex 0.318662 -5.06499 0
      vertex 0.309243 -4.91528 -3
      vertex 0.95096 -4.98511 0
    endloop
  endfacet
  facet normal 0.481164 -0.875213 -0.0498389
    outer loop
      vertex 2.71932 -4.28496 0
      vertex 2.16083 -4.592 0
      vertex 2.63895 -4.15831 -3
    endloop
  endfacet
  facet normal 0.587052 -0.808014 -0.0498388
    outer loop
      vertex 2.71932 -4.28496 0
      vertex 2.63895 -4.15831 -3
      vertex 3.23493 -3.91035 0
    endloop
  endfacet
  facet normal 0.6837 -0.728059 -0.0498391
    outer loop
      vertex 3.23493 -3.91035 0
      vertex 3.13931 -3.79478 -3
      vertex 3.59017 -3.37139 -3
    endloop
  endfacet
  facet normal -0.981067 -0.187145 -0.0498402
    outer loop
      vertex -4.91556 -1.2621 0
      vertex -5.03498 -0.636065 0
      vertex -4.88616 -0.617266 -3
    endloop
  endfacet
  facet normal -0.996786 -0.0627159 -0.0498402
    outer loop
      vertex -5.03498 -0.636065 0
      vertex -5.075 0 0
      vertex -4.88616 -0.617266 -3
    endloop
  endfacet
  facet normal -0.481153 -0.875219 -0.0498416
    outer loop
      vertex -2.16083 -4.592 0
      vertex -2.63895 -4.15831 -3
      vertex -2.09696 -4.45627 -3
    endloop
  endfacet
  facet normal -0.36766 -0.928624 -0.0498415
    outer loop
      vertex -1.56826 -4.82661 0
      vertex -2.16083 -4.592 0
      vertex -2.09696 -4.45627 -3
    endloop
  endfacet
  facet normal -0.769553 -0.636635 -0.0498422
    outer loop
      vertex -3.69952 -3.47408 0
      vertex -3.98441 -2.89484 -3
      vertex -3.59017 -3.37139 -3
    endloop
  endfacet
  facet normal -0.843277 -0.535163 -0.0498399
    outer loop
      vertex -3.98441 -2.89484 -3
      vertex -4.44726 -2.4449 0
      vertex -4.31581 -2.37264 -3
    endloop
  endfacet
  facet normal -0.996786 0.0627204 -0.0498393
    outer loop
      vertex -4.925 0 -3
      vertex -5.075 0 0
      vertex -4.88616 0.617266 -3
    endloop
  endfacet
  facet normal -0.587052 0.808014 -0.0498388
    outer loop
      vertex -2.63895 4.15831 -3
      vertex -3.23493 3.91035 0
      vertex -2.71932 4.28496 0
    endloop
  endfacet
  facet normal -0.843277 0.535163 -0.0498399
    outer loop
      vertex -4.31581 2.37264 -3
      vertex -4.44726 2.4449 0
      vertex -3.98441 2.89484 -3
    endloop
  endfacet
  facet normal -0.769562 0.636624 -0.0498392
    outer loop
      vertex -3.98441 2.89484 -3
      vertex -4.10576 2.98301 0
      vertex -3.69952 3.47408 0
    endloop
  endfacet
  facet normal -0.903703 0.42525 -0.0498401
    outer loop
      vertex -4.31581 2.37264 -3
      vertex -4.71862 1.86823 0
      vertex -4.44726 2.4449 0
    endloop
  endfacet
  facet normal 0.481153 0.875219 -0.0498416
    outer loop
      vertex 2.63895 4.15831 -3
      vertex 2.09696 4.45627 -3
      vertex 2.16083 4.592 0
    endloop
  endfacet
  facet normal 0.367669 0.92862 -0.0498395
    outer loop
      vertex 2.09696 4.45627 -3
      vertex 1.52191 4.68395 -3
      vertex 1.56826 4.82661 0
    endloop
  endfacet
  facet normal 0.769553 0.636635 -0.0498422
    outer loop
      vertex 3.98441 2.89484 -3
      vertex 3.59017 3.37139 -3
      vertex 3.69952 3.47408 0
    endloop
  endfacet
  facet normal 0.981067 -0.187143 -0.0498399
    outer loop
      vertex 4.91556 -1.2621 0
      vertex 4.77027 -1.2248 -3
      vertex 4.88616 -0.617266 -3
    endloop
  endfacet
  facet normal 0.949876 -0.308628 -0.0498398
    outer loop
      vertex 4.91556 -1.2621 0
      vertex 4.71862 -1.86823 0
      vertex 4.77027 -1.2248 -3
    endloop
  endfacet
  facet normal 0.248378 -0.96738 -0.0498415
    outer loop
      vertex 0.95096 -4.98511 0
      vertex 0.922853 -4.83776 -3
      vertex 1.52191 -4.68395 -3
    endloop
  endfacet
  facet normal -0.949875 -0.308631 -0.0498406
    outer loop
      vertex -4.71862 -1.86823 0
      vertex -4.77027 -1.2248 -3
      vertex -4.57915 -1.81301 -3
    endloop
  endfacet
  facet normal -0.125182 -0.990881 -0.0498416
    outer loop
      vertex -0.309243 -4.91528 -3
      vertex -0.95096 -4.98511 0
      vertex -0.922853 -4.83776 -3
    endloop
  endfacet
  facet normal -0.125181 -0.990881 -0.0498413
    outer loop
      vertex -0.318662 -5.06499 0
      vertex -0.95096 -4.98511 0
      vertex -0.309243 -4.91528 -3
    endloop
  endfacet
  facet normal -0.481164 -0.875213 -0.0498389
    outer loop
      vertex -2.16083 -4.592 0
      vertex -2.71932 -4.28496 0
      vertex -2.63895 -4.15831 -3
    endloop
  endfacet
  facet normal -0.6837 -0.728059 -0.0498391
    outer loop
      vertex -3.23493 -3.91035 0
      vertex -3.59017 -3.37139 -3
      vertex -3.13931 -3.79478 -3
    endloop
  endfacet
  facet normal -0.683689 -0.72807 -0.0498423
    outer loop
      vertex -3.23493 -3.91035 0
      vertex -3.69952 -3.47408 0
      vertex -3.59017 -3.37139 -3
    endloop
  endfacet
  facet normal -0.843275 -0.535167 -0.049839
    outer loop
      vertex -4.10576 -2.98301 0
      vertex -4.44726 -2.4449 0
      vertex -3.98441 -2.89484 -3
    endloop
  endfacet
  facet normal -0.769569 -0.636615 -0.0498392
    outer loop
      vertex -3.98441 -2.89484 -3
      vertex -3.96738 -3.15029 0
      vertex -4.10576 -2.98301 0
    endloop
  endfacet
  facet normal -0.769558 -0.636628 -0.0498404
    outer loop
      vertex -3.96738 -3.15029 0
      vertex -3.98441 -2.89484 -3
      vertex -3.69952 -3.47408 0
    endloop
  endfacet
  facet normal -0.981067 0.187143 -0.0498399
    outer loop
      vertex -4.88616 0.617266 -3
      vertex -4.91556 1.2621 0
      vertex -4.77027 1.2248 -3
    endloop
  endfacet
  facet normal -0.949876 0.308628 -0.0498398
    outer loop
      vertex -4.77027 1.2248 -3
      vertex -4.91556 1.2621 0
      vertex -4.71862 1.86823 0
    endloop
  endfacet
  facet normal -0.125181 0.990881 -0.0498413
    outer loop
      vertex -0.309243 4.91528 -3
      vertex -0.95096 4.98511 0
      vertex -0.318662 5.06499 0
    endloop
  endfacet
  facet normal -0.248378 0.96738 -0.0498415
    outer loop
      vertex -0.922853 4.83776 -3
      vertex -1.52191 4.68395 -3
      vertex -0.95096 4.98511 0
    endloop
  endfacet
  facet normal -0.481164 0.875213 -0.0498389
    outer loop
      vertex -2.63895 4.15831 -3
      vertex -2.71932 4.28496 0
      vertex -2.16083 4.592 0
    endloop
  endfacet
  facet normal -0.481153 0.875219 -0.0498416
    outer loop
      vertex -2.09696 4.45627 -3
      vertex -2.63895 4.15831 -3
      vertex -2.16083 4.592 0
    endloop
  endfacet
  facet normal -0.843275 0.535167 -0.049839
    outer loop
      vertex -3.98441 2.89484 -3
      vertex -4.44726 2.4449 0
      vertex -4.10576 2.98301 0
    endloop
  endfacet
  facet normal -0.683689 0.72807 -0.0498423
    outer loop
      vertex -3.59017 3.37139 -3
      vertex -3.69952 3.47408 0
      vertex -3.23493 3.91035 0
    endloop
  endfacet
  facet normal 0.587275 0.807848 -0.0498967
    outer loop
      vertex 2.63895 4.15831 -3
      vertex 3.22614 3.91674 0
      vertex 3.23493 3.91035 0
    endloop
  endfacet
  facet normal 0.587048 0.808016 -0.0498388
    outer loop
      vertex 3.22614 3.91674 0
      vertex 2.63895 4.15831 -3
      vertex 2.71932 4.28496 0
    endloop
  endfacet
  facet normal 0.481164 0.875213 -0.0498389
    outer loop
      vertex 2.63895 4.15831 -3
      vertex 2.16083 4.592 0
      vertex 2.71932 4.28496 0
    endloop
  endfacet
  facet normal 0.587052 0.808014 -0.0498387
    outer loop
      vertex 3.13931 3.79478 -3
      vertex 2.63895 4.15831 -3
      vertex 3.23493 3.91035 0
    endloop
  endfacet
  facet normal 0.6837 0.728059 -0.0498391
    outer loop
      vertex 3.59017 3.37139 -3
      vertex 3.13931 3.79478 -3
      vertex 3.23493 3.91035 0
    endloop
  endfacet
  facet normal -0.981067 -0.187143 -0.0498399
    outer loop
      vertex -4.77027 -1.2248 -3
      vertex -4.91556 -1.2621 0
      vertex -4.88616 -0.617266 -3
    endloop
  endfacet
  facet normal -0.949876 -0.308628 -0.0498398
    outer loop
      vertex -4.71862 -1.86823 0
      vertex -4.91556 -1.2621 0
      vertex -4.77027 -1.2248 -3
    endloop
  endfacet
  facet normal -0.903704 -0.425248 -0.0498406
    outer loop
      vertex -4.31581 -2.37264 -3
      vertex -4.71862 -1.86823 0
      vertex -4.57915 -1.81301 -3
    endloop
  endfacet
  facet normal -0.367669 -0.92862 -0.0498395
    outer loop
      vertex -1.56826 -4.82661 0
      vertex -2.09696 -4.45627 -3
      vertex -1.52191 -4.68395 -3
    endloop
  endfacet
  facet normal -0.587053 -0.808013 -0.049839
    outer loop
      vertex -2.63895 -4.15831 -3
      vertex -2.95222 -4.11575 0
      vertex -3.23493 -3.91035 0
    endloop
  endfacet
  facet normal -0.587051 -0.808015 -0.0498388
    outer loop
      vertex -2.95222 -4.11575 0
      vertex -2.63895 -4.15831 -3
      vertex -2.71932 -4.28496 0
    endloop
  endfacet
  facet normal -0.587052 -0.808014 -0.0498387
    outer loop
      vertex -2.63895 -4.15831 -3
      vertex -3.23493 -3.91035 0
      vertex -3.13931 -3.79478 -3
    endloop
  endfacet
  facet normal -0.949875 0.308631 -0.0498406
    outer loop
      vertex -4.57915 1.81301 -3
      vertex -4.77027 1.2248 -3
      vertex -4.71862 1.86823 0
    endloop
  endfacet
  facet normal -0.248387 0.967378 -0.0498396
    outer loop
      vertex -1.52191 4.68395 -3
      vertex -1.56826 4.82661 0
      vertex -0.95096 4.98511 0
    endloop
  endfacet
  facet normal -0.125182 0.990881 -0.0498416
    outer loop
      vertex -0.922853 4.83776 -3
      vertex -0.95096 4.98511 0
      vertex -0.309243 4.91528 -3
    endloop
  endfacet
  facet normal -0.587052 0.808014 -0.0498387
    outer loop
      vertex -3.13931 3.79478 -3
      vertex -3.23493 3.91035 0
      vertex -2.63895 4.15831 -3
    endloop
  endfacet
  facet normal -0.769553 0.636635 -0.0498422
    outer loop
      vertex -3.59017 3.37139 -3
      vertex -3.98441 2.89484 -3
      vertex -3.69952 3.47408 0
    endloop
  endfacet
  facet normal -0.248378 -0.96738 -0.0498415
    outer loop
      vertex -0.95096 -4.98511 0
      vertex -1.52191 -4.68395 -3
      vertex -0.922853 -4.83776 -3
    endloop
  endfacet
  facet normal -0.248387 -0.967378 -0.0498396
    outer loop
      vertex -0.95096 -4.98511 0
      vertex -1.56826 -4.82661 0
      vertex -1.52191 -4.68395 -3
    endloop
  endfacet
  facet normal -0 0 1
    outer loop
      vertex -1.50989 -1.86983 2
      vertex -0.0613708 -4.11575 2
      vertex -0.0613708 -1.86983 2
    endloop
  endfacet
  facet normal 0 0 1
    outer loop
      vertex -3.96738 -4.11575 2
      vertex -1.50989 -1.86983 2
      vertex -3.96738 -1.86983 2
    endloop
  endfacet
  facet normal 0 0 1
    outer loop
      vertex -1.50989 -1.86983 2
      vertex -3.96738 -4.11575 2
      vertex -0.0613708 -4.11575 2
    endloop
  endfacet
  facet normal -0 0 1
    outer loop
      vertex -0.0613708 3.73691 2
      vertex 3.22614 -1.86983 2
      vertex 3.22614 6.73955 2
    endloop
  endfacet
  facet normal 0 0 1
    outer loop
      vertex -0.0613708 -1.86983 2
      vertex 3.22614 -1.86983 2
      vertex -0.0613708 3.73691 2
    endloop
  endfacet
  facet normal 0 0 1
    outer loop
      vertex 3.22614 -1.86983 2
      vertex -0.0613708 -1.86983 2
      vertex 3.22614 -4.11575 2
    endloop
  endfacet
  facet normal -0 0 1
    outer loop
      vertex -1.12746 6.73955 2
      vertex -0.0613708 3.73691 2
      vertex 3.22614 6.73955 2
    endloop
  endfacet
  facet normal 0 0 1
    outer loop
      vertex -3.96738 -1.86983 2
      vertex -0.0613708 3.73691 2
      vertex -1.12746 6.73955 2
    endloop
  endfacet
  facet normal 0 0 1
    outer loop
      vertex -0.0613708 3.73691 2
      vertex -3.96738 -1.86983 2
      vertex -1.50989 -1.86983 2
    endloop
  endfacet
  facet normal -0 0 1
    outer loop
      vertex 3.22614 -1.86983 2
      vertex 4.1619 -4.11575 2
      vertex 4.1619 -1.86983 2
    endloop
  endfacet
  facet normal 0 0 1
    outer loop
      vertex 4.1619 -4.11575 2
      vertex 3.22614 -1.86983 2
      vertex 3.22614 -4.11575 2
    endloop
  endfacet
  facet normal 0 0 1
    outer loop
      vertex -0.0613708 -4.11575 2
      vertex 3.22614 -4.11575 2
      vertex -0.0613708 -1.86983 2
    endloop
  endfacet
  facet normal 0 0 1
    outer loop
      vertex 3.22614 -4.11575 2
      vertex -0.0613708 -4.11575 2
      vertex 3.22614 -6.435 2
    endloop
  endfacet
  facet normal 0 0 1
    outer loop
      vertex 3.22614 -6.435 2
      vertex -0.0613708 -4.11575 2
      vertex -0.0613708 -6.435 2
    endloop
  endfacet
  facet normal 0 -1 0
    outer loop
      vertex 3.22614 -4.11575 0
      vertex 4.1619 -4.11575 2
      vertex 3.22614 -4.11575 2
    endloop
  endfacet
  facet normal 0 -1 -0
    outer loop
      vertex 4.1619 -4.11575 2
      vertex 3.22614 -4.11575 0
      vertex 4.1619 -4.11575 0
    endloop
  endfacet
  facet normal 1 0 0
    outer loop
      vertex 4.1619 -1.86983 2
      vertex 4.1619 -2.89455 0
      vertex 4.1619 -1.86983 0
    endloop
  endfacet
  facet normal 1 -0 0
    outer loop
      vertex 4.1619 -4.11575 2
      vertex 4.1619 -2.89455 0
      vertex 4.1619 -1.86983 2
    endloop
  endfacet
  facet normal 1 0 0
    outer loop
      vertex 4.1619 -2.89455 0
      vertex 4.1619 -4.11575 2
      vertex 4.1619 -4.11575 0
    endloop
  endfacet
  facet normal 0 1 -0
    outer loop
      vertex 4.1619 -1.86983 0
      vertex 3.22614 -1.86983 2
      vertex 4.1619 -1.86983 2
    endloop
  endfacet
  facet normal 0 1 0
    outer loop
      vertex 3.22614 -1.86983 2
      vertex 4.1619 -1.86983 0
      vertex 3.22614 -1.86983 0
    endloop
  endfacet
  facet normal 1 0 0
    outer loop
      vertex 3.22614 6.73955 2
      vertex 3.22614 3.91674 0
      vertex 3.22614 6.73955 0
    endloop
  endfacet
  facet normal 1 -0 0
    outer loop
      vertex 3.22614 -1.86983 2
      vertex 3.22614 3.91674 0
      vertex 3.22614 6.73955 2
    endloop
  endfacet
  facet normal 1 0 0
    outer loop
      vertex 3.22614 3.91674 0
      vertex 3.22614 -1.86983 2
      vertex 3.22614 -1.86983 0
    endloop
  endfacet
  facet normal 0 1 -0
    outer loop
      vertex 3.22614 6.73955 0
      vertex -1.12746 6.73955 2
      vertex 3.22614 6.73955 2
    endloop
  endfacet
  facet normal 0 1 0
    outer loop
      vertex -1.12746 6.73955 2
      vertex 3.22614 6.73955 0
      vertex -1.12746 6.73955 0
    endloop
  endfacet
  facet normal -0.949667 0.31326 0
    outer loop
      vertex -1.78704 4.73999 0
      vertex -1.12746 6.73955 2
      vertex -1.12746 6.73955 0
    endloop
  endfacet
  facet normal -0.949667 0.313261 0
    outer loop
      vertex -3.96738 -1.86983 2
      vertex -1.78704 4.73999 0
      vertex -3.96738 -1.86983 0
    endloop
  endfacet
  facet normal -0.949667 0.313261 -8.58998e-07
    outer loop
      vertex -1.78704 4.73999 0
      vertex -3.96738 -1.86983 2
      vertex -1.12746 6.73955 2
    endloop
  endfacet
  facet normal -1 0 0
    outer loop
      vertex -3.96738 -3.15029 0
      vertex -3.96738 -1.86983 2
      vertex -3.96738 -1.86983 0
    endloop
  endfacet
  facet normal -1 0 0
    outer loop
      vertex -3.96738 -4.11575 2
      vertex -3.96738 -3.15029 0
      vertex -3.96738 -4.11575 0
    endloop
  endfacet
  facet normal -1 0 0
    outer loop
      vertex -3.96738 -3.15029 0
      vertex -3.96738 -4.11575 2
      vertex -3.96738 -1.86983 2
    endloop
  endfacet
  facet normal 0 -1 0
    outer loop
      vertex -2.95222 -4.11575 0
      vertex -3.96738 -4.11575 2
      vertex -3.96738 -4.11575 0
    endloop
  endfacet
  facet normal 0 -1 0
    outer loop
      vertex -3.96738 -4.11575 2
      vertex -2.95222 -4.11575 0
      vertex -0.0613708 -4.11575 2
    endloop
  endfacet
  facet normal 0 -1 -0
    outer loop
      vertex -0.0613708 -4.11575 2
      vertex -2.95222 -4.11575 0
      vertex -0.0613708 -4.11575 0
    endloop
  endfacet
  facet normal -1 0 0
    outer loop
      vertex -0.0613708 -5.06499 0
      vertex -0.0613708 -4.11575 2
      vertex -0.0613708 -4.11575 0
    endloop
  endfacet
  facet normal -1 0 0
    outer loop
      vertex -0.0613708 -6.435 2
      vertex -0.0613708 -5.06499 0
      vertex -0.0613708 -6.435 0
    endloop
  endfacet
  facet normal -1 0 0
    outer loop
      vertex -0.0613708 -5.06499 0
      vertex -0.0613708 -6.435 2
      vertex -0.0613708 -4.11575 2
    endloop
  endfacet
  facet normal 0 -1 0
    outer loop
      vertex -0.0613708 -6.435 0
      vertex 3.22614 -6.435 2
      vertex -0.0613708 -6.435 2
    endloop
  endfacet
  facet normal 0 -1 -0
    outer loop
      vertex 3.22614 -6.435 2
      vertex -0.0613708 -6.435 0
      vertex 3.22614 -6.435 0
    endloop
  endfacet
  facet normal 1 -0 0
    outer loop
      vertex 3.22614 -6.435 2
      vertex 3.22614 -4.11575 0
      vertex 3.22614 -4.11575 2
    endloop
  endfacet
  facet normal 1 0 0
    outer loop
      vertex 3.22614 -4.11575 0
      vertex 3.22614 -6.435 2
      vertex 3.22614 -6.435 0
    endloop
  endfacet
  facet normal 0.96821 -0.25014 0
    outer loop
      vertex -1.50989 -1.86983 2
      vertex -0.0613708 3.73691 0
      vertex -0.0613708 3.73691 2
    endloop
  endfacet
  facet normal 0.96821 -0.25014 0
    outer loop
      vertex -0.0613708 3.73691 0
      vertex -1.50989 -1.86983 2
      vertex -1.50989 -1.86983 0
    endloop
  endfacet
  facet normal -1 0 0
    outer loop
      vertex -0.0613708 -1.86983 0
      vertex -0.0613708 3.73691 2
      vertex -0.0613708 3.73691 0
    endloop
  endfacet
  facet normal -1 -0 0
    outer loop
      vertex -0.0613708 3.73691 2
      vertex -0.0613708 -1.86983 0
      vertex -0.0613708 -1.86983 2
    endloop
  endfacet
  facet normal 0 1 -0
    outer loop
      vertex -0.0613708 -1.86983 0
      vertex -1.50989 -1.86983 2
      vertex -0.0613708 -1.86983 2
    endloop
  endfacet
  facet normal 0 1 0
    outer loop
      vertex -1.50989 -1.86983 2
      vertex -0.0613708 -1.86983 0
      vertex -1.50989 -1.86983 0
    endloop
  endfacet
endsolid OpenSCAD_Model
