solid OpenSCAD_Model
  facet normal 0.8660254038093487 0.49999999995685457 0
    outer loop
      vertex -5.914250001311302 0 0
      vertex -2.957125000655651 -5.1218907460570335 -4.5
      vertex -5.914250001311302 0 -4.5
    endloop
  endfacet
  facet normal 0 1 0
    outer loop
      vertex -2.957125000655651 -5.1218907460570335 0
      vertex 2.957125000655651 -5.1218907460570335 -4.5
      vertex -2.957125000655651 -5.1218907460570335 -4.5
    endloop
  endfacet
  facet normal 0.8660254038093487 0.49999999995685457 0
    outer loop
      vertex -2.957125000655651 -5.1218907460570335 0
      vertex -2.957125000655651 -5.1218907460570335 -4.5
      vertex -5.914250001311302 0 0
    endloop
  endfacet
  facet normal 0.8660254038093487 -0.49999999995685457 0
    outer loop
      vertex -2.957125000655651 5.1218907460570335 0
      vertex -5.914250001311302 0 -4.5
      vertex -2.957125000655651 5.1218907460570335 -4.5
    endloop
  endfacet
  facet normal 0.8660254038093487 -0.49999999995685457 0
    outer loop
      vertex -5.914250001311302 0 0
      vertex -5.914250001311302 0 -4.5
      vertex -2.957125000655651 5.1218907460570335 0
    endloop
  endfacet
  facet normal 0 -1 0
    outer loop
      vertex -2.957125000655651 5.1218907460570335 0
      vertex -2.957125000655651 5.1218907460570335 -4.5
      vertex 2.957125000655651 5.1218907460570335 0
    endloop
  endfacet
  facet normal -0.8660254038093487 0.49999999995685457 0
    outer loop
      vertex 2.957125000655651 -5.1218907460570335 0
      vertex 5.914250001311302 0 -4.5
      vertex 2.957125000655651 -5.1218907460570335 -4.5
    endloop
  endfacet
  facet normal 0 1 0
    outer loop
      vertex -2.957125000655651 -5.1218907460570335 0
      vertex 2.957125000655651 -5.1218907460570335 0
      vertex 2.957125000655651 -5.1218907460570335 -4.5
    endloop
  endfacet
  facet normal -0.8660254038093487 0.49999999995685457 0
    outer loop
      vertex 2.957125000655651 -5.1218907460570335 0
      vertex 5.914250001311302 0 0
      vertex 5.914250001311302 0 -4.5
    endloop
  endfacet
  facet normal 0 -1 0
    outer loop
      vertex 2.957125000655651 5.1218907460570335 0
      vertex -2.957125000655651 5.1218907460570335 -4.5
      vertex 2.957125000655651 5.1218907460570335 -4.5
    endloop
  endfacet
  facet normal -0.8660254038093487 -0.49999999995685457 0
    outer loop
      vertex 5.914250001311302 0 0
      vertex 2.957125000655651 5.1218907460570335 -4.5
      vertex 5.914250001311302 0 -4.5
    endloop
  endfacet
  facet normal -0.8660254038093487 -0.49999999995685457 0
    outer loop
      vertex 2.957125000655651 5.1218907460570335 0
      vertex 2.957125000655651 5.1218907460570335 -4.5
      vertex 5.914250001311302 0 0
    endloop
  endfacet
  facet normal 0 0 1
    outer loop
      vertex -5.476916750274147 -3.010960463135721 0
      vertex -2.957125000655651 -5.1218907460570335 0
      vertex -5.811103036801572 -2.3007784542792367 0
    endloop
  endfacet
  facet normal 0 0 1
    outer loop
      vertex -3.98389993592931 -4.815707767348684 0
      vertex -2.957125000655651 -5.1218907460570335 0
      vertex -4.556053921383823 -4.278419412054303 0
    endloop
  endfacet
  facet normal 0 0 1
    outer loop
      vertex -3.98389993592931 -4.815707767348684 0
      vertex -3.3489174686187297 -5.277049534387594 0
      vertex -2.957125000655651 -5.1218907460570335 0
    endloop
  endfacet
  facet normal 0 0 1
    outer loop
      vertex -5.056356214843421 -3.673657826827957 0
      vertex -2.957125000655651 -5.1218907460570335 0
      vertex -5.476916750274147 -3.010960463135721 0
    endloop
  endfacet
  facet normal 0 0 1
    outer loop
      vertex -5.056356214843421 -3.673657826827957 0
      vertex -4.556053921383823 -4.278419412054303 0
      vertex -2.957125000655651 -5.1218907460570335 0
    endloop
  endfacet
  facet normal 0.8443279255020151 0.5358267949789965 0
    outer loop
      vertex -5.056356214843421 -3.673657826827957 0
      vertex -5.476916750274147 -3.010960463135721 0
      vertex -5.476916750274147 -3.010960463135721 3
    endloop
  endfacet
  facet normal 0.7705132427757891 0.6374239897486897 0
    outer loop
      vertex -5.056356214843421 -3.673657826827957 0
      vertex -5.056356214843421 -3.673657826827957 3
      vertex -4.556053921383823 -4.278419412054303 0
    endloop
  endfacet
  facet normal 0.5877852522924725 0.8090169943749479 0
    outer loop
      vertex -3.98389993592931 -4.815707767348684 0
      vertex -3.3489174686187297 -5.277049534387594 3
      vertex -3.3489174686187297 -5.277049534387594 0
    endloop
  endfacet
  facet normal 0.6845471059286893 0.7289686274214109 0
    outer loop
      vertex -3.98389993592931 -4.815707767348684 0
      vertex -4.556053921383823 -4.278419412054303 0
      vertex -3.98389993592931 -4.815707767348684 3
    endloop
  endfacet
  facet normal 0 0 1
    outer loop
      vertex -5.811103036801572 -2.3007784542792367 0
      vertex -2.957125000655651 -5.1218907460570335 0
      vertex -6.053644757053944 -1.5543117947803429 0
    endloop
  endfacet
  facet normal 0 0 1
    outer loop
      vertex -6.053644757053944 -1.5543117947803429 0
      vertex -2.957125000655651 -5.1218907460570335 0
      vertex -5.914250001311302 0 0
    endloop
  endfacet
  facet normal 0 0 1
    outer loop
      vertex -6.053644757053944 -1.5543117947803429 0
      vertex -6.053644757053944 1.5543117947803429 0
      vertex -6.200716883215486 -0.7833327097769004 0
    endloop
  endfacet
  facet normal 0.9048270524660194 0.42577929156507294 0
    outer loop
      vertex -5.476916750274147 -3.010960463135721 0
      vertex -5.811103036801572 -2.3007784542792367 0
      vertex -5.811103036801572 -2.3007784542792367 3
    endloop
  endfacet
  facet normal 0.9510565162951538 0.309016994374947 0
    outer loop
      vertex -5.811103036801572 -2.3007784542792367 0
      vertex -6.053644757053944 -1.5543117947803429 0
      vertex -6.053644757053944 -1.5543117947803429 3
    endloop
  endfacet
  facet normal 0.9822872507286888 0.1873813145857246 0
    outer loop
      vertex -6.053644757053944 -1.5543117947803429 0
      vertex -6.200716883215486 -0.7833327097769004 0
      vertex -6.200716883215486 -0.7833327097769004 3
    endloop
  endfacet
  facet normal 0.9980267284282716 0.0627905195293135 0
    outer loop
      vertex -6.200716883215486 -0.7833327097769004 0
      vertex -6.25 0 0
      vertex -6.25 0 3
    endloop
  endfacet
  facet normal 0 0 1
    outer loop
      vertex -3.3489174686187297 -5.277049534387594 0
      vertex -2.661120572281703 -5.655169077912622 0
      vertex -2.957125000655651 -5.1218907460570335 0
    endloop
  endfacet
  facet normal 0 0 1
    outer loop
      vertex -2.661120572281703 -5.655169077912622 0
      vertex 2.957125000655651 -5.1218907460570335 0
      vertex -2.957125000655651 -5.1218907460570335 0
    endloop
  endfacet
  facet normal 0 0 1
    outer loop
      vertex -2.661120572281703 -5.655169077912622 0
      vertex -1.9313562148434211 -5.944103226844709 0
      vertex 2.957125000655651 -5.1218907460570335 0
    endloop
  endfacet
  facet normal 0 0 1
    outer loop
      vertex -1.9313562148434211 -5.944103226844709 0
      vertex -1.1711332161607801 -6.139295317054303 0
      vertex 2.957125000655651 -5.1218907460570335 0
    endloop
  endfacet
  facet normal 0.48175367410171477 0.8763066800438639 0
    outer loop
      vertex -3.3489174686187297 -5.277049534387594 0
      vertex -2.661120572281703 -5.655169077912622 3
      vertex -2.661120572281703 -5.655169077912622 0
    endloop
  endfacet
  facet normal 0.368124552684678 0.9297764858882516 0
    outer loop
      vertex -2.661120572281703 -5.655169077912622 0
      vertex -1.9313562148434211 -5.944103226844709 3
      vertex -1.9313562148434211 -5.944103226844709 0
    endloop
  endfacet
  facet normal 0.24868988716485482 0.9685831611286312 0
    outer loop
      vertex -1.9313562148434211 -5.944103226844709 0
      vertex -1.1711332161607801 -6.139295317054303 3
      vertex -1.1711332161607801 -6.139295317054303 0
    endloop
  endfacet
  facet normal 0.12533323356430498 0.9921147013144779 0
    outer loop
      vertex -1.1711332161607801 -6.139295317054303 0
      vertex -0.392440747058211 -6.237667052676697 3
      vertex -0.392440747058211 -6.237667052676697 0
    endloop
  endfacet
  facet normal 0.7705132427757891 0.6374239897486897 0
    outer loop
      vertex -4.556053921383823 -4.278419412054303 0
      vertex -5.056356214843421 -3.673657826827957 3
      vertex -4.556053921383823 -4.278419412054303 3
    endloop
  endfacet
  facet normal 0.8443279255020151 0.5358267949789965 0
    outer loop
      vertex -5.056356214843421 -3.673657826827957 0
      vertex -5.476916750274147 -3.010960463135721 3
      vertex -5.056356214843421 -3.673657826827957 3
    endloop
  endfacet
  facet normal 0.5877852522924725 0.8090169943749479 0
    outer loop
      vertex -3.98389993592931 -4.815707767348684 0
      vertex -3.98389993592931 -4.815707767348684 3
      vertex -3.3489174686187297 -5.277049534387594 3
    endloop
  endfacet
  facet normal 0.6845471059286893 0.7289686274214109 0
    outer loop
      vertex -4.556053921383823 -4.278419412054303 0
      vertex -4.556053921383823 -4.278419412054303 3
      vertex -3.98389993592931 -4.815707767348684 3
    endloop
  endfacet
  facet normal 0.9048270524660194 0.42577929156507294 0
    outer loop
      vertex -5.476916750274147 -3.010960463135721 0
      vertex -5.811103036801572 -2.3007784542792367 3
      vertex -5.476916750274147 -3.010960463135721 3
    endloop
  endfacet
  facet normal 0.9510565162951538 0.309016994374947 0
    outer loop
      vertex -5.811103036801572 -2.3007784542792367 0
      vertex -6.053644757053944 -1.5543117947803429 3
      vertex -5.811103036801572 -2.3007784542792367 3
    endloop
  endfacet
  facet normal 0.9822872507286888 0.1873813145857246 0
    outer loop
      vertex -6.053644757053944 -1.5543117947803429 0
      vertex -6.200716883215486 -0.7833327097769004 3
      vertex -6.053644757053944 -1.5543117947803429 3
    endloop
  endfacet
  facet normal 0.9980267284282716 0.0627905195293135 0
    outer loop
      vertex -6.200716883215486 -0.7833327097769004 0
      vertex -6.25 0 3
      vertex -6.200716883215486 -0.7833327097769004 3
    endloop
  endfacet
  facet normal 0.368124552684678 0.9297764858882516 0
    outer loop
      vertex -2.661120572281703 -5.655169077912622 0
      vertex -2.661120572281703 -5.655169077912622 3
      vertex -1.9313562148434211 -5.944103226844709 3
    endloop
  endfacet
  facet normal 0.48175367410171477 0.8763066800438639 0
    outer loop
      vertex -3.3489174686187297 -5.277049534387594 0
      vertex -3.3489174686187297 -5.277049534387594 3
      vertex -2.661120572281703 -5.655169077912622 3
    endloop
  endfacet
  facet normal 0.24868988716485482 0.9685831611286312 0
    outer loop
      vertex -1.9313562148434211 -5.944103226844709 0
      vertex -1.9313562148434211 -5.944103226844709 3
      vertex -1.1711332161607801 -6.139295317054303 3
    endloop
  endfacet
  facet normal 0.12533323356430498 0.9921147013144779 0
    outer loop
      vertex -1.1711332161607801 -6.139295317054303 0
      vertex -1.1711332161607801 -6.139295317054303 3
      vertex -0.392440747058211 -6.237667052676697 3
    endloop
  endfacet
  facet normal 0 1 0
    outer loop
      vertex -0.392440747058211 -6.237667052676697 0
      vertex -0.392440747058211 -6.237667052676697 3
      vertex 0.392440747058211 -6.237667052676697 3
    endloop
  endfacet
  facet normal 0 0 1
    outer loop
      vertex -6.200716883215486 -0.7833327097769004 0
      vertex -6.200716883215486 0.7833327097769004 0
      vertex -6.25 0 0
    endloop
  endfacet
  facet normal 0 0 1
    outer loop
      vertex -6.053644757053944 -1.5543117947803429 0
      vertex -5.914250001311302 0 0
      vertex -5.811103036801572 2.3007784542792367 0
    endloop
  endfacet
  facet normal 0 0 1
    outer loop
      vertex -6.200716883215486 -0.7833327097769004 0
      vertex -6.053644757053944 1.5543117947803429 0
      vertex -6.200716883215486 0.7833327097769004 0
    endloop
  endfacet
  facet normal 0 0 1
    outer loop
      vertex -6.053644757053944 -1.5543117947803429 0
      vertex -5.811103036801572 2.3007784542792367 0
      vertex -6.053644757053944 1.5543117947803429 0
    endloop
  endfacet
  facet normal 0 0 1
    outer loop
      vertex -5.914250001311302 0 0
      vertex -5.476916750274147 3.010960463135721 0
      vertex -5.811103036801572 2.3007784542792367 0
    endloop
  endfacet
  facet normal 0 0 1
    outer loop
      vertex -5.914250001311302 0 0
      vertex -5.056356214843421 3.673657826827957 0
      vertex -5.476916750274147 3.010960463135721 0
    endloop
  endfacet
  facet normal 0 0 1
    outer loop
      vertex -5.914250001311302 0 0
      vertex -4.556053921383823 4.278419412054303 0
      vertex -5.056356214843421 3.673657826827957 0
    endloop
  endfacet
  facet normal 0 0 1
    outer loop
      vertex -5.914250001311302 0 0
      vertex -3.98389993592931 4.815707767348684 0
      vertex -4.556053921383823 4.278419412054303 0
    endloop
  endfacet
  facet normal 0.9980267284282716 -0.0627905195293135 0
    outer loop
      vertex -6.25 0 0
      vertex -6.200716883215486 0.7833327097769004 0
      vertex -6.200716883215486 0.7833327097769004 3
    endloop
  endfacet
  facet normal 0.9822872507286888 -0.1873813145857246 0
    outer loop
      vertex -6.200716883215486 0.7833327097769004 0
      vertex -6.053644757053944 1.5543117947803429 0
      vertex -6.053644757053944 1.5543117947803429 3
    endloop
  endfacet
  facet normal 0.9510565162951538 -0.309016994374947 0
    outer loop
      vertex -6.053644757053944 1.5543117947803429 0
      vertex -5.811103036801572 2.3007784542792367 0
      vertex -5.811103036801572 2.3007784542792367 3
    endloop
  endfacet
  facet normal 0.9048270524660194 -0.42577929156507294 0
    outer loop
      vertex -5.811103036801572 2.3007784542792367 0
      vertex -5.476916750274147 3.010960463135721 0
      vertex -5.476916750274147 3.010960463135721 3
    endloop
  endfacet
  facet normal 0 0 1
    outer loop
      vertex -5.914250001311302 0 0
      vertex -3.3489174686187297 5.277049534387594 0
      vertex -3.98389993592931 4.815707767348684 0
    endloop
  endfacet
  facet normal 0 0 1
    outer loop
      vertex -5.914250001311302 0 0
      vertex -2.957125000655651 5.1218907460570335 0
      vertex -3.3489174686187297 5.277049534387594 0
    endloop
  endfacet
  facet normal 0.8443279255020151 -0.5358267949789965 0
    outer loop
      vertex -5.476916750274147 3.010960463135721 0
      vertex -5.056356214843421 3.673657826827957 0
      vertex -5.056356214843421 3.673657826827957 3
    endloop
  endfacet
  facet normal 0.7705132427757891 -0.6374239897486897 0
    outer loop
      vertex -5.056356214843421 3.673657826827957 0
      vertex -4.556053921383823 4.278419412054303 0
      vertex -4.556053921383823 4.278419412054303 3
    endloop
  endfacet
  facet normal 0.6845471059286893 -0.7289686274214109 0
    outer loop
      vertex -4.556053921383823 4.278419412054303 0
      vertex -3.98389993592931 4.815707767348684 0
      vertex -4.556053921383823 4.278419412054303 3
    endloop
  endfacet
  facet normal 0.5877852522924725 -0.8090169943749479 0
    outer loop
      vertex -3.98389993592931 4.815707767348684 0
      vertex -3.3489174686187297 5.277049534387594 0
      vertex -3.98389993592931 4.815707767348684 3
    endloop
  endfacet
  facet normal 0 0 1
    outer loop
      vertex -3.3489174686187297 5.277049534387594 0
      vertex -2.957125000655651 5.1218907460570335 0
      vertex -2.6611205722817046 5.655169077912622 0
    endloop
  endfacet
  facet normal 0 0 1
    outer loop
      vertex -2.957125000655651 5.1218907460570335 0
      vertex -1.9313562148434211 5.944103226844709 0
      vertex -2.6611205722817046 5.655169077912622 0
    endloop
  endfacet
  facet normal 0 0 1
    outer loop
      vertex -2.957125000655651 5.1218907460570335 0
      vertex -1.1711332161607786 6.139295317054304 0
      vertex -1.9313562148434211 5.944103226844709 0
    endloop
  endfacet
  facet normal 0 0 1
    outer loop
      vertex -2.957125000655651 5.1218907460570335 0
      vertex -0.392440747058208 6.237667052676697 0
      vertex -1.1711332161607786 6.139295317054304 0
    endloop
  endfacet
  facet normal 0 0 1
    outer loop
      vertex -2.957125000655651 5.1218907460570335 0
      vertex 0.392440747058208 6.237667052676697 0
      vertex -0.392440747058208 6.237667052676697 0
    endloop
  endfacet
  facet normal 0 0 1
    outer loop
      vertex -2.957125000655651 5.1218907460570335 0
      vertex 1.1711332161607786 6.139295317054304 0
      vertex 0.392440747058208 6.237667052676697 0
    endloop
  endfacet
  facet normal 0.48175367410171566 -0.8763066800438634 0
    outer loop
      vertex -3.3489174686187297 5.277049534387594 0
      vertex -2.6611205722817046 5.655169077912622 0
      vertex -3.3489174686187297 5.277049534387594 3
    endloop
  endfacet
  facet normal 0.36812455268467714 -0.9297764858882517 0
    outer loop
      vertex -2.6611205722817046 5.655169077912622 0
      vertex -1.9313562148434211 5.944103226844709 0
      vertex -2.6611205722817046 5.655169077912622 3
    endloop
  endfacet
  facet normal 0.24868988716485538 -0.9685831611286311 0
    outer loop
      vertex -1.9313562148434211 5.944103226844709 0
      vertex -1.1711332161607786 6.139295317054304 0
      vertex -1.9313562148434211 5.944103226844709 3
    endloop
  endfacet
  facet normal 0.12533323356430362 -0.9921147013144779 0
    outer loop
      vertex -1.1711332161607786 6.139295317054304 0
      vertex -0.392440747058208 6.237667052676697 0
      vertex -1.1711332161607786 6.139295317054304 3
    endloop
  endfacet
  facet normal 0 -1 0
    outer loop
      vertex -0.392440747058208 6.237667052676697 0
      vertex 0.392440747058208 6.237667052676697 0
      vertex -0.3924407470582064 6.237667052676697 3
    endloop
  endfacet
  facet normal 0.9980267284282716 -0.0627905195293135 0
    outer loop
      vertex -6.25 0 0
      vertex -6.200716883215486 0.7833327097769004 3
      vertex -6.25 0 3
    endloop
  endfacet
  facet normal 0.9822872507286888 -0.1873813145857246 0
    outer loop
      vertex -6.200716883215486 0.7833327097769004 0
      vertex -6.053644757053944 1.5543117947803429 3
      vertex -6.200716883215486 0.7833327097769004 3
    endloop
  endfacet
  facet normal 0.9510565162951538 -0.309016994374947 0
    outer loop
      vertex -6.053644757053944 1.5543117947803429 0
      vertex -5.811103036801572 2.3007784542792367 3
      vertex -6.053644757053944 1.5543117947803429 3
    endloop
  endfacet
  facet normal 0.9048270524660194 -0.42577929156507294 0
    outer loop
      vertex -5.811103036801572 2.3007784542792367 0
      vertex -5.476916750274147 3.010960463135721 3
      vertex -5.811103036801572 2.3007784542792367 3
    endloop
  endfacet
  facet normal 0.8443279255020151 -0.5358267949789965 0
    outer loop
      vertex -5.476916750274147 3.010960463135721 0
      vertex -5.056356214843421 3.673657826827957 3
      vertex -5.476916750274147 3.010960463135721 3
    endloop
  endfacet
  facet normal 0.7705132427757891 -0.6374239897486897 0
    outer loop
      vertex -5.056356214843421 3.673657826827957 0
      vertex -4.556053921383823 4.278419412054303 3
      vertex -5.056356214843421 3.673657826827957 3
    endloop
  endfacet
  facet normal 0.6845471059286893 -0.7289686274214109 0
    outer loop
      vertex -3.98389993592931 4.815707767348684 0
      vertex -3.98389993592931 4.815707767348684 3
      vertex -4.556053921383823 4.278419412054303 3
    endloop
  endfacet
  facet normal 0.5877852522924725 -0.8090169943749479 0
    outer loop
      vertex -3.3489174686187297 5.277049534387594 0
      vertex -3.3489174686187297 5.277049534387594 3
      vertex -3.98389993592931 4.815707767348684 3
    endloop
  endfacet
  facet normal 0.48175367410171566 -0.8763066800438634 0
    outer loop
      vertex -2.6611205722817046 5.655169077912622 0
      vertex -2.6611205722817046 5.655169077912622 3
      vertex -3.3489174686187297 5.277049534387594 3
    endloop
  endfacet
  facet normal 0.36812455268467714 -0.9297764858882517 0
    outer loop
      vertex -1.9313562148434211 5.944103226844709 0
      vertex -1.9313562148434211 5.944103226844709 3
      vertex -2.6611205722817046 5.655169077912622 3
    endloop
  endfacet
  facet normal 0.24868988716485538 -0.9685831611286311 0
    outer loop
      vertex -1.1711332161607786 6.139295317054304 0
      vertex -1.1711332161607786 6.139295317054304 3
      vertex -1.9313562148434211 5.944103226844709 3
    endloop
  endfacet
  facet normal 0.12533323356430334 -0.9921147013144779 -6.493565943844562e-17
    outer loop
      vertex -0.392440747058208 6.237667052676697 0
      vertex -0.3924407470582064 6.237667052676697 3
      vertex -1.1711332161607786 6.139295317054304 3
    endloop
  endfacet
  facet normal 0 0 1
    outer loop
      vertex -1.1711332161607801 -6.139295317054303 0
      vertex -0.392440747058211 -6.237667052676697 0
      vertex 2.957125000655651 -5.1218907460570335 0
    endloop
  endfacet
  facet normal 0 0 1
    outer loop
      vertex -0.392440747058211 -6.237667052676697 0
      vertex 0.392440747058211 -6.237667052676697 0
      vertex 2.957125000655651 -5.1218907460570335 0
    endloop
  endfacet
  facet normal 0 0 1
    outer loop
      vertex 0.392440747058211 -6.237667052676697 0
      vertex 1.1711332161607801 -6.139295317054303 0
      vertex 2.957125000655651 -5.1218907460570335 0
    endloop
  endfacet
  facet normal 0 0 1
    outer loop
      vertex 1.1711332161607801 -6.139295317054303 0
      vertex 1.9313562148434211 -5.944103226844709 0
      vertex 2.957125000655651 -5.1218907460570335 0
    endloop
  endfacet
  facet normal 0 0 1
    outer loop
      vertex 1.9313562148434211 -5.944103226844709 0
      vertex 2.661120572281703 -5.655169077912622 0
      vertex 2.957125000655651 -5.1218907460570335 0
    endloop
  endfacet
  facet normal 0 0 1
    outer loop
      vertex 2.661120572281703 -5.655169077912622 0
      vertex 3.348917468618726 -5.277049534387595 0
      vertex 2.957125000655651 -5.1218907460570335 0
    endloop
  endfacet
  facet normal 0 1 0
    outer loop
      vertex -0.392440747058211 -6.237667052676697 0
      vertex 0.392440747058211 -6.237667052676697 3
      vertex 0.392440747058211 -6.237667052676697 0
    endloop
  endfacet
  facet normal -0.12533323356430498 0.9921147013144779 0
    outer loop
      vertex 0.392440747058211 -6.237667052676697 0
      vertex 1.1711332161607801 -6.139295317054303 3
      vertex 1.1711332161607801 -6.139295317054303 0
    endloop
  endfacet
  facet normal -0.24868988716485482 0.9685831611286312 0
    outer loop
      vertex 1.1711332161607801 -6.139295317054303 0
      vertex 1.9313562148434211 -5.944103226844709 3
      vertex 1.9313562148434211 -5.944103226844709 0
    endloop
  endfacet
  facet normal -0.368124552684678 0.9297764858882516 0
    outer loop
      vertex 1.9313562148434211 -5.944103226844709 0
      vertex 2.661120572281703 -5.655169077912622 3
      vertex 2.661120572281703 -5.655169077912622 0
    endloop
  endfacet
  facet normal -0.4817536741017149 0.8763066800438637 0
    outer loop
      vertex 2.661120572281703 -5.655169077912622 0
      vertex 3.348917468618726 -5.277049534387595 3
      vertex 3.348917468618726 -5.277049534387595 0
    endloop
  endfacet
  facet normal 0 0 1
    outer loop
      vertex 2.957125000655651 -5.1218907460570335 0
      vertex 3.348917468618726 -5.277049534387595 0
      vertex 5.914250001311302 0 0
    endloop
  endfacet
  facet normal 0 0 1
    outer loop
      vertex 3.348917468618726 -5.277049534387595 0
      vertex 3.9838999359293124 -4.815707767348681 0
      vertex 5.914250001311302 0 0
    endloop
  endfacet
  facet normal -0.5877852522924727 0.8090169943749478 0
    outer loop
      vertex 3.348917468618726 -5.277049534387595 0
      vertex 3.9838999359293124 -4.815707767348681 3
      vertex 3.9838999359293124 -4.815707767348681 0
    endloop
  endfacet
  facet normal -0.6845471059286888 0.7289686274214112 0
    outer loop
      vertex 3.9838999359293124 -4.815707767348681 0
      vertex 4.556053921383823 -4.278419412054303 3
      vertex 4.556053921383823 -4.278419412054303 0
    endloop
  endfacet
  facet normal -0.7705132427757891 0.6374239897486897 0
    outer loop
      vertex 4.556053921383823 -4.278419412054303 0
      vertex 4.556053921383823 -4.278419412054303 3
      vertex 5.056356214843421 -3.673657826827957 0
    endloop
  endfacet
  facet normal -0.8443279255020151 0.5358267949789965 0
    outer loop
      vertex 5.056356214843421 -3.673657826827957 0
      vertex 5.056356214843421 -3.673657826827957 3
      vertex 5.476916750274147 -3.010960463135721 0
    endloop
  endfacet
  facet normal 0 0 1
    outer loop
      vertex 3.9838999359293124 -4.815707767348681 0
      vertex 4.556053921383823 -4.278419412054303 0
      vertex 5.914250001311302 0 0
    endloop
  endfacet
  facet normal 0 0 1
    outer loop
      vertex 4.556053921383823 -4.278419412054303 0
      vertex 5.056356214843421 -3.673657826827957 0
      vertex 5.914250001311302 0 0
    endloop
  endfacet
  facet normal 0 0 1
    outer loop
      vertex 5.056356214843421 -3.673657826827957 0
      vertex 5.476916750274147 -3.010960463135721 0
      vertex 5.914250001311302 0 0
    endloop
  endfacet
  facet normal 0 0 1
    outer loop
      vertex 5.476916750274147 -3.010960463135721 0
      vertex 5.81110303680157 -2.3007784542792398 0
      vertex 5.914250001311302 0 0
    endloop
  endfacet
  facet normal 0 0 1
    outer loop
      vertex 5.81110303680157 -2.3007784542792398 0
      vertex 6.053644757053945 -1.5543117947803402 0
      vertex 6.053644757053944 1.5543117947803424 0
    endloop
  endfacet
  facet normal 0 0 1
    outer loop
      vertex 6.053644757053945 -1.5543117947803402 0
      vertex 6.200716883215486 -0.7833327097769004 0
      vertex 6.200716883215486 0.7833327097769016 0
    endloop
  endfacet
  facet normal 0 0 1
    outer loop
      vertex 5.81110303680157 -2.3007784542792398 0
      vertex 6.053644757053944 1.5543117947803424 0
      vertex 5.914250001311302 0 0
    endloop
  endfacet
  facet normal -0.9048270524660196 0.42577929156507266 0
    outer loop
      vertex 5.476916750274147 -3.010960463135721 0
      vertex 5.476916750274147 -3.010960463135721 3
      vertex 5.81110303680157 -2.3007784542792398 0
    endloop
  endfacet
  facet normal -0.9510565162951534 0.30901699437494795 0
    outer loop
      vertex 5.81110303680157 -2.3007784542792398 0
      vertex 5.81110303680157 -2.3007784542792398 3
      vertex 6.053644757053945 -1.5543117947803402 0
    endloop
  endfacet
  facet normal -0.9822872507286887 0.1873813145857241 0
    outer loop
      vertex 6.053644757053945 -1.5543117947803402 0
      vertex 6.053644757053945 -1.5543117947803402 3
      vertex 6.200716883215486 -0.7833327097769004 0
    endloop
  endfacet
  facet normal -0.9980267284282716 0.0627905195293135 0
    outer loop
      vertex 6.200716883215486 -0.7833327097769004 0
      vertex 6.200716883215486 -0.7833327097769004 3
      vertex 6.25 0 0
    endloop
  endfacet
  facet normal -0.12533323356430498 0.9921147013144779 0
    outer loop
      vertex 0.392440747058211 -6.237667052676697 0
      vertex 0.392440747058211 -6.237667052676697 3
      vertex 1.1711332161607801 -6.139295317054303 3
    endloop
  endfacet
  facet normal -0.24868988716485482 0.9685831611286312 0
    outer loop
      vertex 1.1711332161607801 -6.139295317054303 0
      vertex 1.1711332161607801 -6.139295317054303 3
      vertex 1.9313562148434211 -5.944103226844709 3
    endloop
  endfacet
  facet normal -0.368124552684678 0.9297764858882516 0
    outer loop
      vertex 1.9313562148434211 -5.944103226844709 0
      vertex 1.9313562148434211 -5.944103226844709 3
      vertex 2.661120572281703 -5.655169077912622 3
    endloop
  endfacet
  facet normal -0.4817536741017149 0.8763066800438637 0
    outer loop
      vertex 2.661120572281703 -5.655169077912622 0
      vertex 2.661120572281703 -5.655169077912622 3
      vertex 3.348917468618726 -5.277049534387595 3
    endloop
  endfacet
  facet normal -0.5877852522924727 0.8090169943749478 0
    outer loop
      vertex 3.348917468618726 -5.277049534387595 0
      vertex 3.348917468618726 -5.277049534387595 3
      vertex 3.9838999359293124 -4.815707767348681 3
    endloop
  endfacet
  facet normal -0.6845471059286888 0.7289686274214112 0
    outer loop
      vertex 3.9838999359293124 -4.815707767348681 0
      vertex 3.9838999359293124 -4.815707767348681 3
      vertex 4.556053921383823 -4.278419412054303 3
    endloop
  endfacet
  facet normal -0.7705132427757891 0.6374239897486897 0
    outer loop
      vertex 5.056356214843421 -3.673657826827957 0
      vertex 4.556053921383823 -4.278419412054303 3
      vertex 5.056356214843421 -3.673657826827957 3
    endloop
  endfacet
  facet normal -0.8443279255020151 0.5358267949789965 0
    outer loop
      vertex 5.476916750274147 -3.010960463135721 0
      vertex 5.056356214843421 -3.673657826827957 3
      vertex 5.476916750274147 -3.010960463135721 3
    endloop
  endfacet
  facet normal -0.9048270524660196 0.42577929156507266 0
    outer loop
      vertex 5.81110303680157 -2.3007784542792398 0
      vertex 5.476916750274147 -3.010960463135721 3
      vertex 5.81110303680157 -2.3007784542792398 3
    endloop
  endfacet
  facet normal -0.9510565162951534 0.30901699437494795 0
    outer loop
      vertex 6.053644757053945 -1.5543117947803402 0
      vertex 5.81110303680157 -2.3007784542792398 3
      vertex 6.053644757053945 -1.5543117947803402 3
    endloop
  endfacet
  facet normal -0.9822872507286887 0.1873813145857241 0
    outer loop
      vertex 6.200716883215486 -0.7833327097769004 0
      vertex 6.053644757053945 -1.5543117947803402 3
      vertex 6.200716883215486 -0.7833327097769004 3
    endloop
  endfacet
  facet normal -0.9980267284282716 0.0627905195293135 0
    outer loop
      vertex 6.25 0 0
      vertex 6.200716883215486 -0.7833327097769004 3
      vertex 6.25 0 3
    endloop
  endfacet
  facet normal 0 0 1
    outer loop
      vertex -2.957125000655651 5.1218907460570335 0
      vertex 1.9313562148434211 5.944103226844709 0
      vertex 1.1711332161607786 6.139295317054304 0
    endloop
  endfacet
  facet normal 0 0 1
    outer loop
      vertex -2.957125000655651 5.1218907460570335 0
      vertex 2.6611205722817046 5.655169077912622 0
      vertex 1.9313562148434211 5.944103226844709 0
    endloop
  endfacet
  facet normal 0 0 1
    outer loop
      vertex -2.957125000655651 5.1218907460570335 0
      vertex 2.957125000655651 5.1218907460570335 0
      vertex 2.6611205722817046 5.655169077912622 0
    endloop
  endfacet
  facet normal 0 0 1
    outer loop
      vertex 2.957125000655651 5.1218907460570335 0
      vertex 3.3489174686187293 5.2770495343875945 0
      vertex 2.6611205722817046 5.655169077912622 0
    endloop
  endfacet
  facet normal -0.12533323356430362 -0.9921147013144779 0
    outer loop
      vertex 0.392440747058208 6.237667052676697 0
      vertex 1.1711332161607786 6.139295317054304 0
      vertex 0.392440747058208 6.237667052676697 3
    endloop
  endfacet
  facet normal -0.24868988716485538 -0.9685831611286311 0
    outer loop
      vertex 1.1711332161607786 6.139295317054304 0
      vertex 1.9313562148434211 5.944103226844709 0
      vertex 1.1711332161607786 6.139295317054304 3
    endloop
  endfacet
  facet normal -0.36812455268467714 -0.9297764858882517 0
    outer loop
      vertex 1.9313562148434211 5.944103226844709 0
      vertex 2.6611205722817046 5.655169077912622 0
      vertex 1.9313562148434211 5.944103226844709 3
    endloop
  endfacet
  facet normal -0.4817536741017151 -0.8763066800438637 0
    outer loop
      vertex 2.6611205722817046 5.655169077912622 0
      vertex 3.3489174686187293 5.2770495343875945 0
      vertex 2.6611205722817046 5.655169077912622 3
    endloop
  endfacet
  facet normal 0 0 1
    outer loop
      vertex 6.200716883215486 -0.7833327097769004 0
      vertex 6.25 0 0
      vertex 6.200716883215486 0.7833327097769016 0
    endloop
  endfacet
  facet normal 0 0 1
    outer loop
      vertex 6.053644757053945 -1.5543117947803402 0
      vertex 6.200716883215486 0.7833327097769016 0
      vertex 6.053644757053944 1.5543117947803424 0
    endloop
  endfacet
  facet normal 0 0 1
    outer loop
      vertex 2.957125000655651 5.1218907460570335 0
      vertex 5.914250001311302 0 0
      vertex 6.053644757053944 1.5543117947803424 0
    endloop
  endfacet
  facet normal 0 0 1
    outer loop
      vertex 2.957125000655651 5.1218907460570335 0
      vertex 6.053644757053944 1.5543117947803424 0
      vertex 5.811103036801571 2.3007784542792376 0
    endloop
  endfacet
  facet normal -0.9980267284282716 -0.0627905195293134 0
    outer loop
      vertex 6.25 0 0
      vertex 6.25 0 3
      vertex 6.200716883215486 0.7833327097769016 0
    endloop
  endfacet
  facet normal -0.9822872507286886 -0.18738131458572493 0
    outer loop
      vertex 6.200716883215486 0.7833327097769016 0
      vertex 6.200716883215486 0.7833327097769016 3
      vertex 6.053644757053944 1.5543117947803424 0
    endloop
  endfacet
  facet normal -0.9510565162951535 -0.30901699437494756 0
    outer loop
      vertex 6.053644757053944 1.5543117947803424 0
      vertex 6.053644757053944 1.5543117947803424 3
      vertex 5.811103036801571 2.3007784542792376 0
    endloop
  endfacet
  facet normal -0.90482705246602 -0.42577929156507177 0
    outer loop
      vertex 5.811103036801571 2.3007784542792376 0
      vertex 5.811103036801571 2.3007784542792376 3
      vertex 5.476916750274148 3.0109604631357207 0
    endloop
  endfacet
  facet normal 0 0 1
    outer loop
      vertex 2.957125000655651 5.1218907460570335 0
      vertex 5.056356214843421 3.673657826827957 0
      vertex 4.556053921383822 4.278419412054305 0
    endloop
  endfacet
  facet normal 0 0 1
    outer loop
      vertex 2.957125000655651 5.1218907460570335 0
      vertex 5.476916750274148 3.0109604631357207 0
      vertex 5.056356214843421 3.673657826827957 0
    endloop
  endfacet
  facet normal 0 0 1
    outer loop
      vertex 2.957125000655651 5.1218907460570335 0
      vertex 3.983899935929311 4.815707767348682 0
      vertex 3.3489174686187293 5.2770495343875945 0
    endloop
  endfacet
  facet normal 0 0 1
    outer loop
      vertex 2.957125000655651 5.1218907460570335 0
      vertex 4.556053921383822 4.278419412054305 0
      vertex 3.983899935929311 4.815707767348682 0
    endloop
  endfacet
  facet normal 0 0 1
    outer loop
      vertex 2.957125000655651 5.1218907460570335 0
      vertex 5.811103036801571 2.3007784542792376 0
      vertex 5.476916750274148 3.0109604631357207 0
    endloop
  endfacet
  facet normal -0.6845471059286882 -0.7289686274214122 0
    outer loop
      vertex 4.556053921383822 4.278419412054305 0
      vertex 3.983899935929311 4.815707767348682 3
      vertex 3.983899935929311 4.815707767348682 0
    endloop
  endfacet
  facet normal -0.5877852522924739 -0.8090169943749468 0
    outer loop
      vertex 3.3489174686187293 5.2770495343875945 0
      vertex 3.983899935929311 4.815707767348682 0
      vertex 3.3489174686187293 5.2770495343875945 3
    endloop
  endfacet
  facet normal -0.7705132427757895 -0.6374239897486893 0
    outer loop
      vertex 4.556053921383822 4.278419412054305 0
      vertex 5.056356214843421 3.673657826827957 0
      vertex 5.056356214843421 3.673657826827957 3
    endloop
  endfacet
  facet normal -0.8443279255020147 -0.5358267949789971 0
    outer loop
      vertex 5.476916750274148 3.0109604631357207 0
      vertex 5.476916750274148 3.0109604631357207 3
      vertex 5.056356214843421 3.673657826827957 0
    endloop
  endfacet
  facet normal 0 -1 0
    outer loop
      vertex 0.392440747058208 6.237667052676697 0
      vertex 0.392440747058208 6.237667052676697 3
      vertex -0.3924407470582064 6.237667052676697 3
    endloop
  endfacet
  facet normal -0.12533323356430362 -0.9921147013144779 0
    outer loop
      vertex 1.1711332161607786 6.139295317054304 0
      vertex 1.1711332161607786 6.139295317054304 3
      vertex 0.392440747058208 6.237667052676697 3
    endloop
  endfacet
  facet normal -0.24868988716485538 -0.9685831611286311 0
    outer loop
      vertex 1.9313562148434211 5.944103226844709 0
      vertex 1.9313562148434211 5.944103226844709 3
      vertex 1.1711332161607786 6.139295317054304 3
    endloop
  endfacet
  facet normal -0.4817536741017151 -0.8763066800438637 0
    outer loop
      vertex 3.3489174686187293 5.2770495343875945 0
      vertex 3.3489174686187293 5.2770495343875945 3
      vertex 2.6611205722817046 5.655169077912622 3
    endloop
  endfacet
  facet normal -0.36812455268467714 -0.9297764858882517 0
    outer loop
      vertex 2.6611205722817046 5.655169077912622 0
      vertex 2.6611205722817046 5.655169077912622 3
      vertex 1.9313562148434211 5.944103226844709 3
    endloop
  endfacet
  facet normal -0.9980267284282716 -0.0627905195293134 0
    outer loop
      vertex 6.200716883215486 0.7833327097769016 0
      vertex 6.25 0 3
      vertex 6.200716883215486 0.7833327097769016 3
    endloop
  endfacet
  facet normal -0.9822872507286886 -0.18738131458572493 0
    outer loop
      vertex 6.053644757053944 1.5543117947803424 0
      vertex 6.200716883215486 0.7833327097769016 3
      vertex 6.053644757053944 1.5543117947803424 3
    endloop
  endfacet
  facet normal -0.9510565162951535 -0.30901699437494756 0
    outer loop
      vertex 5.811103036801571 2.3007784542792376 0
      vertex 6.053644757053944 1.5543117947803424 3
      vertex 5.811103036801571 2.3007784542792376 3
    endloop
  endfacet
  facet normal -0.90482705246602 -0.42577929156507177 0
    outer loop
      vertex 5.476916750274148 3.0109604631357207 0
      vertex 5.811103036801571 2.3007784542792376 3
      vertex 5.476916750274148 3.0109604631357207 3
    endloop
  endfacet
  facet normal -0.6845471059286882 -0.7289686274214122 0
    outer loop
      vertex 4.556053921383822 4.278419412054305 0
      vertex 4.556053921383822 4.278419412054305 3
      vertex 3.983899935929311 4.815707767348682 3
    endloop
  endfacet
  facet normal -0.5877852522924739 -0.8090169943749468 0
    outer loop
      vertex 3.983899935929311 4.815707767348682 0
      vertex 3.983899935929311 4.815707767348682 3
      vertex 3.3489174686187293 5.2770495343875945 3
    endloop
  endfacet
  facet normal -0.8443279255020147 -0.5358267949789971 0
    outer loop
      vertex 5.056356214843421 3.673657826827957 0
      vertex 5.476916750274148 3.0109604631357207 3
      vertex 5.056356214843421 3.673657826827957 3
    endloop
  endfacet
  facet normal -0.7705132427757895 -0.6374239897486893 0
    outer loop
      vertex 4.556053921383822 4.278419412054305 0
      vertex 5.056356214843421 3.673657826827957 3
      vertex 4.556053921383822 4.278419412054305 3
    endloop
  endfacet
  facet normal -0.8443279255020151 -0.5358267949789965 0
    outer loop
      vertex -10.112712429686843 -7.347315653655914 -4.5
      vertex -10.953833500548294 -6.021920926271442 3
      vertex -10.953833500548294 -6.021920926271442 -4.5
    endloop
  endfacet
  facet normal -0.7705132427757891 -0.6374239897486897 0
    outer loop
      vertex -10.112712429686843 -7.347315653655914 -4.5
      vertex -9.112107842767646 -8.556838824108606 -4.5
      vertex -10.112712429686843 -7.347315653655914 3
    endloop
  endfacet
  facet normal -0.5877852522924725 -0.8090169943749479 0
    outer loop
      vertex -7.96779987185862 -9.631415534697368 -4.5
      vertex -6.6978349372374595 -10.554099068775187 -4.5
      vertex -6.6978349372374595 -10.554099068775187 3
    endloop
  endfacet
  facet normal -0.6845471059286893 -0.7289686274214109 0
    outer loop
      vertex -7.96779987185862 -9.631415534697368 -4.5
      vertex -7.96779987185862 -9.631415534697368 3
      vertex -9.112107842767646 -8.556838824108606 -4.5
    endloop
  endfacet
  facet normal 0 0 -1
    outer loop
      vertex -11.622206073603143 -4.601556908558473 -4.5
      vertex -12.107289514107888 -3.1086235895606857 -4.5
      vertex -11.622206073603143 4.601556908558473 -4.5
    endloop
  endfacet
  facet normal 0 0 -1
    outer loop
      vertex -12.107289514107888 -3.1086235895606857 -4.5
      vertex -12.401433766430973 -1.5666654195538008 -4.5
      vertex -12.107289514107888 3.1086235895606857 -4.5
    endloop
  endfacet
  facet normal 0 0 -1
    outer loop
      vertex -10.953833500548294 -6.021920926271442 -4.5
      vertex -11.622206073603143 -4.601556908558473 -4.5
      vertex -10.953833500548294 6.021920926271442 -4.5
    endloop
  endfacet
  facet normal 0 0 -1
    outer loop
      vertex -10.112712429686843 -7.347315653655914 -4.5
      vertex -10.953833500548294 -6.021920926271442 -4.5
      vertex -10.112712429686843 7.347315653655914 -4.5
    endloop
  endfacet
  facet normal 0 0 -1
    outer loop
      vertex -10.112712429686843 -7.347315653655914 -4.5
      vertex -9.112107842767646 8.556838824108606 -4.5
      vertex -9.112107842767646 -8.556838824108606 -4.5
    endloop
  endfacet
  facet normal 0 0 -1
    outer loop
      vertex -7.96779987185862 -9.631415534697368 -4.5
      vertex -6.6978349372374595 10.554099068775187 -4.5
      vertex -6.6978349372374595 -10.554099068775187 -4.5
    endloop
  endfacet
  facet normal 0 0 -1
    outer loop
      vertex -7.96779987185862 -9.631415534697368 -4.5
      vertex -9.112107842767646 -8.556838824108606 -4.5
      vertex -7.96779987185862 9.631415534697368 -4.5
    endloop
  endfacet
  facet normal -0.9048270524660194 -0.42577929156507294 0
    outer loop
      vertex -10.953833500548294 -6.021920926271442 -4.5
      vertex -11.622206073603143 -4.601556908558473 3
      vertex -11.622206073603143 -4.601556908558473 -4.5
    endloop
  endfacet
  facet normal -0.9510565162951538 -0.309016994374947 0
    outer loop
      vertex -11.622206073603143 -4.601556908558473 -4.5
      vertex -12.107289514107888 -3.1086235895606857 3
      vertex -12.107289514107888 -3.1086235895606857 -4.5
    endloop
  endfacet
  facet normal -0.9822872507286886 -0.18738131458572457 0
    outer loop
      vertex -12.107289514107888 -3.1086235895606857 -4.5
      vertex -12.401433766430973 -1.5666654195538008 3
      vertex -12.401433766430973 -1.5666654195538008 -4.5
    endloop
  endfacet
  facet normal -0.9980267284282716 -0.0627905195293135 0
    outer loop
      vertex -12.401433766430973 -1.5666654195538008 -4.5
      vertex -12.5 0 3
      vertex -12.5 0 -4.5
    endloop
  endfacet
  facet normal 0 0 -1
    outer loop
      vertex -5.322241144563406 -11.310338155825244 -4.5
      vertex -2.957125000655651 -5.1218907460570335 -4.5
      vertex -3.8627124296868423 -11.888206453689419 -4.5
    endloop
  endfacet
  facet normal 0 0 -1
    outer loop
      vertex -6.6978349372374595 -10.554099068775187 -4.5
      vertex -2.957125000655651 -5.1218907460570335 -4.5
      vertex -5.322241144563406 -11.310338155825244 -4.5
    endloop
  endfacet
  facet normal 0 0 -1
    outer loop
      vertex -3.8627124296868423 -11.888206453689419 -4.5
      vertex 2.957125000655651 -5.1218907460570335 -4.5
      vertex -2.3422664323215603 -12.278590634108607 -4.5
    endloop
  endfacet
  facet normal 0 0 -1
    outer loop
      vertex -2.3422664323215603 -12.278590634108607 -4.5
      vertex 2.957125000655651 -5.1218907460570335 -4.5
      vertex -0.784881494116422 -12.475334105353394 -4.5
    endloop
  endfacet
  facet normal 0 0 -1
    outer loop
      vertex -3.8627124296868423 -11.888206453689419 -4.5
      vertex -2.957125000655651 -5.1218907460570335 -4.5
      vertex 2.957125000655651 -5.1218907460570335 -4.5
    endloop
  endfacet
  facet normal -0.48175367410171477 -0.8763066800438639 0
    outer loop
      vertex -6.6978349372374595 -10.554099068775187 -4.5
      vertex -5.322241144563406 -11.310338155825244 -4.5
      vertex -5.322241144563406 -11.310338155825244 3
    endloop
  endfacet
  facet normal -0.36812455268467786 -0.9297764858882515 0
    outer loop
      vertex -5.322241144563406 -11.310338155825244 -4.5
      vertex -3.8627124296868423 -11.888206453689419 -4.5
      vertex -3.8627124296868423 -11.888206453689419 3
    endloop
  endfacet
  facet normal -0.2486898871648548 -0.9685831611286312 0
    outer loop
      vertex -3.8627124296868423 -11.888206453689419 -4.5
      vertex -2.3422664323215603 -12.278590634108607 -4.5
      vertex -2.3422664323215603 -12.278590634108607 3
    endloop
  endfacet
  facet normal -0.12533323356430495 -0.9921147013144778 0
    outer loop
      vertex -2.3422664323215603 -12.278590634108607 -4.5
      vertex -0.784881494116422 -12.475334105353394 -4.5
      vertex -0.784881494116422 -12.475334105353394 3
    endloop
  endfacet
  facet normal 0 0 -1
    outer loop
      vertex -6.6978349372374595 -10.554099068775187 -4.5
      vertex -5.914250001311302 0 -4.5
      vertex -2.957125000655651 -5.1218907460570335 -4.5
    endloop
  endfacet
  facet normal -0.7705132427757891 -0.6374239897486897 0
    outer loop
      vertex -9.112107842767646 -8.556838824108606 -4.5
      vertex -9.112107842767646 -8.556838824108606 3
      vertex -10.112712429686843 -7.347315653655914 3
    endloop
  endfacet
  facet normal -0.8443279255020151 -0.5358267949789965 0
    outer loop
      vertex -10.112712429686843 -7.347315653655914 -4.5
      vertex -10.112712429686843 -7.347315653655914 3
      vertex -10.953833500548294 -6.021920926271442 3
    endloop
  endfacet
  facet normal -0.5877852522924725 -0.8090169943749479 0
    outer loop
      vertex -7.96779987185862 -9.631415534697368 -4.5
      vertex -6.6978349372374595 -10.554099068775187 3
      vertex -7.96779987185862 -9.631415534697368 3
    endloop
  endfacet
  facet normal -0.6845471059286893 -0.7289686274214109 0
    outer loop
      vertex -9.112107842767646 -8.556838824108606 -4.5
      vertex -7.96779987185862 -9.631415534697368 3
      vertex -9.112107842767646 -8.556838824108606 3
    endloop
  endfacet
  facet normal -0.9048270524660194 -0.42577929156507294 0
    outer loop
      vertex -10.953833500548294 -6.021920926271442 -4.5
      vertex -10.953833500548294 -6.021920926271442 3
      vertex -11.622206073603143 -4.601556908558473 3
    endloop
  endfacet
  facet normal -0.9510565162951538 -0.309016994374947 0
    outer loop
      vertex -11.622206073603143 -4.601556908558473 -4.5
      vertex -11.622206073603143 -4.601556908558473 3
      vertex -12.107289514107888 -3.1086235895606857 3
    endloop
  endfacet
  facet normal -0.9822872507286886 -0.18738131458572457 0
    outer loop
      vertex -12.107289514107888 -3.1086235895606857 -4.5
      vertex -12.107289514107888 -3.1086235895606857 3
      vertex -12.401433766430973 -1.5666654195538008 3
    endloop
  endfacet
  facet normal -0.9980267284282716 -0.0627905195293135 0
    outer loop
      vertex -12.401433766430973 -1.5666654195538008 -4.5
      vertex -12.401433766430973 -1.5666654195538008 3
      vertex -12.5 0 3
    endloop
  endfacet
  facet normal 0 0 1
    outer loop
      vertex -10.953833500548294 -6.021920926271442 3
      vertex -11.622206073603143 4.601556908558473 3
      vertex -11.622206073603143 -4.601556908558473 3
    endloop
  endfacet
  facet normal 0 0 1
    outer loop
      vertex -12.107289514107888 -3.1086235895606857 3
      vertex -12.401433766430973 1.5666654195538008 3
      vertex -12.401433766430973 -1.5666654195538008 3
    endloop
  endfacet
  facet normal 0 0 1
    outer loop
      vertex -11.622206073603143 -4.601556908558473 3
      vertex -12.107289514107888 3.1086235895606857 3
      vertex -12.107289514107888 -3.1086235895606857 3
    endloop
  endfacet
  facet normal 0 0 1
    outer loop
      vertex -10.112712429686843 -7.347315653655914 3
      vertex -10.953833500548294 6.021920926271442 3
      vertex -10.953833500548294 -6.021920926271442 3
    endloop
  endfacet
  facet normal 0 0 1
    outer loop
      vertex -10.112712429686843 -7.347315653655914 3
      vertex -9.112107842767646 -8.556838824108606 3
      vertex -10.112712429686843 7.347315653655914 3
    endloop
  endfacet
  facet normal 0 0 1
    outer loop
      vertex -7.96779987185862 -9.631415534697368 3
      vertex -9.112107842767646 8.556838824108606 3
      vertex -9.112107842767646 -8.556838824108606 3
    endloop
  endfacet
  facet normal 0 0 1
    outer loop
      vertex -7.96779987185862 -9.631415534697368 3
      vertex -6.6978349372374595 -10.554099068775187 3
      vertex -7.96779987185862 9.631415534697368 3
    endloop
  endfacet
  facet normal 0 0 1
    outer loop
      vertex -6.6978349372374595 -10.554099068775187 3
      vertex -6.053644757053944 -1.5543117947803429 3
      vertex -6.200716883215486 -0.7833327097769004 3
    endloop
  endfacet
  facet normal 0 0 1
    outer loop
      vertex -6.6978349372374595 -10.554099068775187 3
      vertex -6.200716883215486 -0.7833327097769004 3
      vertex -6.25 0 3
    endloop
  endfacet
  facet normal -0.36812455268467786 -0.9297764858882515 0
    outer loop
      vertex -5.322241144563406 -11.310338155825244 -4.5
      vertex -3.8627124296868423 -11.888206453689419 3
      vertex -5.322241144563406 -11.310338155825244 3
    endloop
  endfacet
  facet normal -0.48175367410171477 -0.8763066800438639 0
    outer loop
      vertex -6.6978349372374595 -10.554099068775187 -4.5
      vertex -5.322241144563406 -11.310338155825244 3
      vertex -6.6978349372374595 -10.554099068775187 3
    endloop
  endfacet
  facet normal -0.2486898871648548 -0.9685831611286312 0
    outer loop
      vertex -3.8627124296868423 -11.888206453689419 -4.5
      vertex -2.3422664323215603 -12.278590634108607 3
      vertex -3.8627124296868423 -11.888206453689419 3
    endloop
  endfacet
  facet normal -0.12533323356430495 -0.9921147013144778 0
    outer loop
      vertex -2.3422664323215603 -12.278590634108607 -4.5
      vertex -0.784881494116422 -12.475334105353394 3
      vertex -2.3422664323215603 -12.278590634108607 3
    endloop
  endfacet
  facet normal 0 -1 0
    outer loop
      vertex -0.784881494116422 -12.475334105353394 -4.5
      vertex 0.784881494116422 -12.475334105353394 3
      vertex -0.784881494116422 -12.475334105353394 3
    endloop
  endfacet
  facet normal 0 0 1
    outer loop
      vertex -3.8627124296868423 -11.888206453689419 3
      vertex -2.3422664323215603 -12.278590634108607 3
      vertex -3.3489174686187297 -5.277049534387594 3
    endloop
  endfacet
  facet normal 0 0 1
    outer loop
      vertex -6.6978349372374595 -10.554099068775187 3
      vertex -5.322241144563406 -11.310338155825244 3
      vertex -6.053644757053944 -1.5543117947803429 3
    endloop
  endfacet
  facet normal 0 0 1
    outer loop
      vertex -5.322241144563406 -11.310338155825244 3
      vertex -4.556053921383823 -4.278419412054303 3
      vertex -5.056356214843421 -3.673657826827957 3
    endloop
  endfacet
  facet normal 0 0 1
    outer loop
      vertex -5.322241144563406 -11.310338155825244 3
      vertex -3.8627124296868423 -11.888206453689419 3
      vertex -4.556053921383823 -4.278419412054303 3
    endloop
  endfacet
  facet normal 0 0 1
    outer loop
      vertex -3.8627124296868423 -11.888206453689419 3
      vertex -3.98389993592931 -4.815707767348684 3
      vertex -4.556053921383823 -4.278419412054303 3
    endloop
  endfacet
  facet normal 0 0 1
    outer loop
      vertex -3.8627124296868423 -11.888206453689419 3
      vertex -3.3489174686187297 -5.277049534387594 3
      vertex -3.98389993592931 -4.815707767348684 3
    endloop
  endfacet
  facet normal 0 0 1
    outer loop
      vertex -2.3422664323215603 -12.278590634108607 3
      vertex -0.784881494116422 -12.475334105353394 3
      vertex -1.9313562148434211 -5.944103226844709 3
    endloop
  endfacet
  facet normal 0 0 1
    outer loop
      vertex -2.3422664323215603 -12.278590634108607 3
      vertex -1.9313562148434211 -5.944103226844709 3
      vertex -2.661120572281703 -5.655169077912622 3
    endloop
  endfacet
  facet normal 0 0 1
    outer loop
      vertex -2.3422664323215603 -12.278590634108607 3
      vertex -2.661120572281703 -5.655169077912622 3
      vertex -3.3489174686187297 -5.277049534387594 3
    endloop
  endfacet
  facet normal 0 0 1
    outer loop
      vertex -0.784881494116422 -12.475334105353394 3
      vertex -1.1711332161607801 -6.139295317054303 3
      vertex -1.9313562148434211 -5.944103226844709 3
    endloop
  endfacet
  facet normal 0 0 1
    outer loop
      vertex -0.784881494116422 -12.475334105353394 3
      vertex -0.392440747058211 -6.237667052676697 3
      vertex -1.1711332161607801 -6.139295317054303 3
    endloop
  endfacet
  facet normal 0 0 1
    outer loop
      vertex -0.784881494116422 -12.475334105353394 3
      vertex 0.392440747058211 -6.237667052676697 3
      vertex -0.392440747058211 -6.237667052676697 3
    endloop
  endfacet
  facet normal 0 0 1
    outer loop
      vertex -5.322241144563406 -11.310338155825244 3
      vertex -5.476916750274147 -3.010960463135721 3
      vertex -5.811103036801572 -2.3007784542792367 3
    endloop
  endfacet
  facet normal 0 0 1
    outer loop
      vertex -5.322241144563406 -11.310338155825244 3
      vertex -5.811103036801572 -2.3007784542792367 3
      vertex -6.053644757053944 -1.5543117947803429 3
    endloop
  endfacet
  facet normal 0 0 1
    outer loop
      vertex -5.322241144563406 -11.310338155825244 3
      vertex -5.056356214843421 -3.673657826827957 3
      vertex -5.476916750274147 -3.010960463135721 3
    endloop
  endfacet
  facet normal 0 0 -1
    outer loop
      vertex -12.401433766430973 -1.5666654195538008 -4.5
      vertex -12.5 0 -4.5
      vertex -12.401433766430973 1.5666654195538008 -4.5
    endloop
  endfacet
  facet normal 0 0 -1
    outer loop
      vertex -12.401433766430973 -1.5666654195538008 -4.5
      vertex -12.401433766430973 1.5666654195538008 -4.5
      vertex -12.107289514107888 3.1086235895606857 -4.5
    endloop
  endfacet
  facet normal 0 0 -1
    outer loop
      vertex -12.107289514107888 -3.1086235895606857 -4.5
      vertex -12.107289514107888 3.1086235895606857 -4.5
      vertex -11.622206073603143 4.601556908558473 -4.5
    endloop
  endfacet
  facet normal 0 0 -1
    outer loop
      vertex -11.622206073603143 -4.601556908558473 -4.5
      vertex -11.622206073603143 4.601556908558473 -4.5
      vertex -10.953833500548294 6.021920926271442 -4.5
    endloop
  endfacet
  facet normal 0 0 -1
    outer loop
      vertex -10.953833500548294 -6.021920926271442 -4.5
      vertex -10.953833500548294 6.021920926271442 -4.5
      vertex -10.112712429686843 7.347315653655914 -4.5
    endloop
  endfacet
  facet normal 0 0 -1
    outer loop
      vertex -10.112712429686843 -7.347315653655914 -4.5
      vertex -10.112712429686843 7.347315653655914 -4.5
      vertex -9.112107842767646 8.556838824108606 -4.5
    endloop
  endfacet
  facet normal 0 0 -1
    outer loop
      vertex -9.112107842767646 -8.556838824108606 -4.5
      vertex -9.112107842767646 8.556838824108606 -4.5
      vertex -7.96779987185862 9.631415534697368 -4.5
    endloop
  endfacet
  facet normal 0 0 -1
    outer loop
      vertex -7.96779987185862 -9.631415534697368 -4.5
      vertex -7.96779987185862 9.631415534697368 -4.5
      vertex -6.6978349372374595 10.554099068775187 -4.5
    endloop
  endfacet
  facet normal -0.9980267284282716 0.0627905195293135 0
    outer loop
      vertex -12.5 0 -4.5
      vertex -12.401433766430973 1.5666654195538008 3
      vertex -12.401433766430973 1.5666654195538008 -4.5
    endloop
  endfacet
  facet normal -0.9822872507286886 0.18738131458572457 0
    outer loop
      vertex -12.401433766430973 1.5666654195538008 -4.5
      vertex -12.107289514107888 3.1086235895606857 3
      vertex -12.107289514107888 3.1086235895606857 -4.5
    endloop
  endfacet
  facet normal -0.9510565162951538 0.309016994374947 0
    outer loop
      vertex -12.107289514107888 3.1086235895606857 -4.5
      vertex -11.622206073603143 4.601556908558473 3
      vertex -11.622206073603143 4.601556908558473 -4.5
    endloop
  endfacet
  facet normal -0.9048270524660194 0.42577929156507294 0
    outer loop
      vertex -11.622206073603143 4.601556908558473 -4.5
      vertex -10.953833500548294 6.021920926271442 3
      vertex -10.953833500548294 6.021920926271442 -4.5
    endloop
  endfacet
  facet normal -0.8443279255020151 0.5358267949789965 0
    outer loop
      vertex -10.953833500548294 6.021920926271442 -4.5
      vertex -10.112712429686843 7.347315653655914 3
      vertex -10.112712429686843 7.347315653655914 -4.5
    endloop
  endfacet
  facet normal -0.7705132427757891 0.6374239897486897 0
    outer loop
      vertex -10.112712429686843 7.347315653655914 -4.5
      vertex -9.112107842767646 8.556838824108606 3
      vertex -9.112107842767646 8.556838824108606 -4.5
    endloop
  endfacet
  facet normal -0.6845471059286893 0.7289686274214109 0
    outer loop
      vertex -9.112107842767646 8.556838824108606 -4.5
      vertex -9.112107842767646 8.556838824108606 3
      vertex -7.96779987185862 9.631415534697368 -4.5
    endloop
  endfacet
  facet normal -0.5877852522924725 0.8090169943749479 0
    outer loop
      vertex -7.96779987185862 9.631415534697368 -4.5
      vertex -7.96779987185862 9.631415534697368 3
      vertex -6.6978349372374595 10.554099068775187 -4.5
    endloop
  endfacet
  facet normal 0 0 -1
    outer loop
      vertex -6.6978349372374595 -10.554099068775187 -4.5
      vertex -5.322241144563409 11.310338155825244 -4.5
      vertex -5.914250001311302 0 -4.5
    endloop
  endfacet
  facet normal 0 0 -1
    outer loop
      vertex -6.6978349372374595 -10.554099068775187 -4.5
      vertex -6.6978349372374595 10.554099068775187 -4.5
      vertex -5.322241144563409 11.310338155825244 -4.5
    endloop
  endfacet
  facet normal 0 0 -1
    outer loop
      vertex -3.8627124296868423 11.888206453689419 -4.5
      vertex -2.957125000655651 5.1218907460570335 -4.5
      vertex -5.914250001311302 0 -4.5
    endloop
  endfacet
  facet normal 0 0 -1
    outer loop
      vertex -5.322241144563409 11.310338155825244 -4.5
      vertex -3.8627124296868423 11.888206453689419 -4.5
      vertex -5.914250001311302 0 -4.5
    endloop
  endfacet
  facet normal 0 0 -1
    outer loop
      vertex -3.8627124296868423 11.888206453689419 -4.5
      vertex -2.342266432321557 12.278590634108609 -4.5
      vertex -2.957125000655651 5.1218907460570335 -4.5
    endloop
  endfacet
  facet normal 0 0 -1
    outer loop
      vertex -2.342266432321557 12.278590634108609 -4.5
      vertex -0.784881494116416 12.475334105353394 -4.5
      vertex -2.957125000655651 5.1218907460570335 -4.5
    endloop
  endfacet
  facet normal 0 0 -1
    outer loop
      vertex -0.784881494116416 12.475334105353394 -4.5
      vertex 0.784881494116416 12.475334105353394 -4.5
      vertex -2.957125000655651 5.1218907460570335 -4.5
    endloop
  endfacet
  facet normal -0.4817536741017157 0.8763066800438635 0
    outer loop
      vertex -6.6978349372374595 10.554099068775187 -4.5
      vertex -6.6978349372374595 10.554099068775187 3
      vertex -5.322241144563409 11.310338155825244 -4.5
    endloop
  endfacet
  facet normal -0.3681245526846771 0.9297764858882518 0
    outer loop
      vertex -5.322241144563409 11.310338155825244 -4.5
      vertex -5.322241144563409 11.310338155825244 3
      vertex -3.8627124296868423 11.888206453689419 -4.5
    endloop
  endfacet
  facet normal -0.24868988716485538 0.968583161128631 0
    outer loop
      vertex -3.8627124296868423 11.888206453689419 -4.5
      vertex -3.8627124296868423 11.888206453689419 3
      vertex -2.342266432321557 12.278590634108609 -4.5
    endloop
  endfacet
  facet normal -0.12533323356430362 0.9921147013144779 0
    outer loop
      vertex -2.342266432321557 12.278590634108609 -4.5
      vertex -2.342266432321557 12.278590634108609 3
      vertex -0.784881494116416 12.475334105353394 -4.5
    endloop
  endfacet
  facet normal 0 1 0
    outer loop
      vertex -0.784881494116416 12.475334105353394 -4.5
      vertex -0.784881494116416 12.475334105353394 3
      vertex 0.784881494116416 12.475334105353394 -4.5
    endloop
  endfacet
  facet normal -0.9980267284282716 0.0627905195293135 0
    outer loop
      vertex -12.5 0 -4.5
      vertex -12.5 0 3
      vertex -12.401433766430973 1.5666654195538008 3
    endloop
  endfacet
  facet normal -0.9822872507286886 0.18738131458572457 0
    outer loop
      vertex -12.401433766430973 1.5666654195538008 -4.5
      vertex -12.401433766430973 1.5666654195538008 3
      vertex -12.107289514107888 3.1086235895606857 3
    endloop
  endfacet
  facet normal -0.9510565162951538 0.309016994374947 0
    outer loop
      vertex -12.107289514107888 3.1086235895606857 -4.5
      vertex -12.107289514107888 3.1086235895606857 3
      vertex -11.622206073603143 4.601556908558473 3
    endloop
  endfacet
  facet normal -0.9048270524660194 0.42577929156507294 0
    outer loop
      vertex -11.622206073603143 4.601556908558473 -4.5
      vertex -11.622206073603143 4.601556908558473 3
      vertex -10.953833500548294 6.021920926271442 3
    endloop
  endfacet
  facet normal 0 0 1
    outer loop
      vertex -12.401433766430973 -1.5666654195538008 3
      vertex -12.401433766430973 1.5666654195538008 3
      vertex -12.5 0 3
    endloop
  endfacet
  facet normal 0 0 1
    outer loop
      vertex -12.107289514107888 -3.1086235895606857 3
      vertex -12.107289514107888 3.1086235895606857 3
      vertex -12.401433766430973 1.5666654195538008 3
    endloop
  endfacet
  facet normal 0 0 1
    outer loop
      vertex -11.622206073603143 -4.601556908558473 3
      vertex -11.622206073603143 4.601556908558473 3
      vertex -12.107289514107888 3.1086235895606857 3
    endloop
  endfacet
  facet normal 0 0 1
    outer loop
      vertex -10.953833500548294 -6.021920926271442 3
      vertex -10.953833500548294 6.021920926271442 3
      vertex -11.622206073603143 4.601556908558473 3
    endloop
  endfacet
  facet normal 0 0 1
    outer loop
      vertex -10.112712429686843 -7.347315653655914 3
      vertex -10.112712429686843 7.347315653655914 3
      vertex -10.953833500548294 6.021920926271442 3
    endloop
  endfacet
  facet normal 0 0 1
    outer loop
      vertex -9.112107842767646 -8.556838824108606 3
      vertex -9.112107842767646 8.556838824108606 3
      vertex -10.112712429686843 7.347315653655914 3
    endloop
  endfacet
  facet normal 0 0 1
    outer loop
      vertex -7.96779987185862 -9.631415534697368 3
      vertex -7.96779987185862 9.631415534697368 3
      vertex -9.112107842767646 8.556838824108606 3
    endloop
  endfacet
  facet normal 0 0 1
    outer loop
      vertex -6.6978349372374595 -10.554099068775187 3
      vertex -6.25 0 3
      vertex -6.6978349372374595 10.554099068775187 3
    endloop
  endfacet
  facet normal 0 0 1
    outer loop
      vertex -6.6978349372374595 -10.554099068775187 3
      vertex -6.6978349372374595 10.554099068775187 3
      vertex -7.96779987185862 9.631415534697368 3
    endloop
  endfacet
  facet normal 0 0 1
    outer loop
      vertex -6.6978349372374595 10.554099068775187 3
      vertex -6.25 0 3
      vertex -6.200716883215486 0.7833327097769004 3
    endloop
  endfacet
  facet normal 0 0 1
    outer loop
      vertex -6.6978349372374595 10.554099068775187 3
      vertex -6.200716883215486 0.7833327097769004 3
      vertex -6.053644757053944 1.5543117947803429 3
    endloop
  endfacet
  facet normal -0.8443279255020151 0.5358267949789965 0
    outer loop
      vertex -10.953833500548294 6.021920926271442 -4.5
      vertex -10.953833500548294 6.021920926271442 3
      vertex -10.112712429686843 7.347315653655914 3
    endloop
  endfacet
  facet normal -0.7705132427757891 0.6374239897486897 0
    outer loop
      vertex -10.112712429686843 7.347315653655914 -4.5
      vertex -10.112712429686843 7.347315653655914 3
      vertex -9.112107842767646 8.556838824108606 3
    endloop
  endfacet
  facet normal -0.6845471059286893 0.7289686274214109 0
    outer loop
      vertex -7.96779987185862 9.631415534697368 -4.5
      vertex -9.112107842767646 8.556838824108606 3
      vertex -7.96779987185862 9.631415534697368 3
    endloop
  endfacet
  facet normal -0.5877852522924725 0.8090169943749479 0
    outer loop
      vertex -6.6978349372374595 10.554099068775187 -4.5
      vertex -7.96779987185862 9.631415534697368 3
      vertex -6.6978349372374595 10.554099068775187 3
    endloop
  endfacet
  facet normal 0 0 1
    outer loop
      vertex -6.6978349372374595 10.554099068775187 3
      vertex -6.053644757053944 1.5543117947803429 3
      vertex -5.811103036801572 2.3007784542792367 3
    endloop
  endfacet
  facet normal 0 0 1
    outer loop
      vertex -6.6978349372374595 10.554099068775187 3
      vertex -5.811103036801572 2.3007784542792367 3
      vertex -5.476916750274147 3.010960463135721 3
    endloop
  endfacet
  facet normal 0 0 1
    outer loop
      vertex -6.6978349372374595 10.554099068775187 3
      vertex -5.476916750274147 3.010960463135721 3
      vertex -5.056356214843421 3.673657826827957 3
    endloop
  endfacet
  facet normal -0.4817536741017157 0.8763066800438635 0
    outer loop
      vertex -5.322241144563409 11.310338155825244 -4.5
      vertex -6.6978349372374595 10.554099068775187 3
      vertex -5.322241144563409 11.310338155825244 3
    endloop
  endfacet
  facet normal -0.3681245526846771 0.9297764858882518 0
    outer loop
      vertex -3.8627124296868423 11.888206453689419 -4.5
      vertex -5.322241144563409 11.310338155825244 3
      vertex -3.8627124296868423 11.888206453689419 3
    endloop
  endfacet
  facet normal -0.24868988716485538 0.968583161128631 0
    outer loop
      vertex -2.342266432321557 12.278590634108609 -4.5
      vertex -3.8627124296868423 11.888206453689419 3
      vertex -2.342266432321557 12.278590634108609 3
    endloop
  endfacet
  facet normal -0.12533323356430362 0.9921147013144779 0
    outer loop
      vertex -0.784881494116416 12.475334105353394 -4.5
      vertex -2.342266432321557 12.278590634108609 3
      vertex -0.784881494116416 12.475334105353394 3
    endloop
  endfacet
  facet normal 0 0 1
    outer loop
      vertex -5.322241144563409 11.310338155825244 3
      vertex -5.056356214843421 3.673657826827957 3
      vertex -4.556053921383823 4.278419412054303 3
    endloop
  endfacet
  facet normal 0 0 1
    outer loop
      vertex -6.6978349372374595 10.554099068775187 3
      vertex -5.056356214843421 3.673657826827957 3
      vertex -5.322241144563409 11.310338155825244 3
    endloop
  endfacet
  facet normal 0 0 1
    outer loop
      vertex -5.322241144563409 11.310338155825244 3
      vertex -4.556053921383823 4.278419412054303 3
      vertex -3.98389993592931 4.815707767348684 3
    endloop
  endfacet
  facet normal 0 0 1
    outer loop
      vertex -5.322241144563409 11.310338155825244 3
      vertex -3.98389993592931 4.815707767348684 3
      vertex -3.3489174686187297 5.277049534387594 3
    endloop
  endfacet
  facet normal 0 0 1
    outer loop
      vertex -3.8627124296868423 11.888206453689419 3
      vertex -3.3489174686187297 5.277049534387594 3
      vertex -2.6611205722817046 5.655169077912622 3
    endloop
  endfacet
  facet normal 0 0 1
    outer loop
      vertex -5.322241144563409 11.310338155825244 3
      vertex -3.3489174686187297 5.277049534387594 3
      vertex -3.8627124296868423 11.888206453689419 3
    endloop
  endfacet
  facet normal 0 0 1
    outer loop
      vertex -3.8627124296868423 11.888206453689419 3
      vertex -2.6611205722817046 5.655169077912622 3
      vertex -1.9313562148434211 5.944103226844709 3
    endloop
  endfacet
  facet normal 0 0 1
    outer loop
      vertex -2.342266432321557 12.278590634108609 3
      vertex -1.9313562148434211 5.944103226844709 3
      vertex -1.1711332161607786 6.139295317054304 3
    endloop
  endfacet
  facet normal 0 0 1
    outer loop
      vertex -2.342266432321557 12.278590634108609 3
      vertex -1.1711332161607786 6.139295317054304 3
      vertex -0.3924407470582064 6.237667052676697 3
    endloop
  endfacet
  facet normal 0 0 1
    outer loop
      vertex -3.8627124296868423 11.888206453689419 3
      vertex -1.9313562148434211 5.944103226844709 3
      vertex -2.342266432321557 12.278590634108609 3
    endloop
  endfacet
  facet normal 0 0 1
    outer loop
      vertex -2.342266432321557 12.278590634108609 3
      vertex -0.3924407470582064 6.237667052676697 3
      vertex -0.784881494116416 12.475334105353394 3
    endloop
  endfacet
  facet normal 0 0 1
    outer loop
      vertex -0.784881494116416 12.475334105353394 3
      vertex -0.3924407470582064 6.237667052676697 3
      vertex 0.784881494116416 12.475334105353394 3
    endloop
  endfacet
  facet normal 0 0 -1
    outer loop
      vertex -0.784881494116422 -12.475334105353394 -4.5
      vertex 2.957125000655651 -5.1218907460570335 -4.5
      vertex 0.784881494116422 -12.475334105353394 -4.5
    endloop
  endfacet
  facet normal 0 0 -1
    outer loop
      vertex 0.784881494116422 -12.475334105353394 -4.5
      vertex 2.957125000655651 -5.1218907460570335 -4.5
      vertex 2.3422664323215603 -12.278590634108607 -4.5
    endloop
  endfacet
  facet normal 0 0 -1
    outer loop
      vertex 2.3422664323215603 -12.278590634108607 -4.5
      vertex 2.957125000655651 -5.1218907460570335 -4.5
      vertex 3.8627124296868423 -11.888206453689419 -4.5
    endloop
  endfacet
  facet normal 0 0 -1
    outer loop
      vertex 3.8627124296868423 -11.888206453689419 -4.5
      vertex 5.914250001311302 0 -4.5
      vertex 5.322241144563406 -11.310338155825244 -4.5
    endloop
  endfacet
  facet normal 0 -1 0
    outer loop
      vertex -0.784881494116422 -12.475334105353394 -4.5
      vertex 0.784881494116422 -12.475334105353394 -4.5
      vertex 0.784881494116422 -12.475334105353394 3
    endloop
  endfacet
  facet normal 0.12533323356430495 -0.9921147013144778 0
    outer loop
      vertex 0.784881494116422 -12.475334105353394 -4.5
      vertex 2.3422664323215603 -12.278590634108607 -4.5
      vertex 2.3422664323215603 -12.278590634108607 3
    endloop
  endfacet
  facet normal 0.2486898871648548 -0.9685831611286312 0
    outer loop
      vertex 2.3422664323215603 -12.278590634108607 -4.5
      vertex 3.8627124296868423 -11.888206453689419 -4.5
      vertex 3.8627124296868423 -11.888206453689419 3
    endloop
  endfacet
  facet normal 0.36812455268467786 -0.9297764858882515 0
    outer loop
      vertex 3.8627124296868423 -11.888206453689419 -4.5
      vertex 5.322241144563406 -11.310338155825244 -4.5
      vertex 5.322241144563406 -11.310338155825244 3
    endloop
  endfacet
  facet normal 0.48175367410171493 -0.8763066800438638 0
    outer loop
      vertex 5.322241144563406 -11.310338155825244 -4.5
      vertex 6.697834937237452 -10.55409906877519 -4.5
      vertex 6.697834937237452 -10.55409906877519 3
    endloop
  endfacet
  facet normal 0 0 -1
    outer loop
      vertex 3.8627124296868423 -11.888206453689419 -4.5
      vertex 2.957125000655651 -5.1218907460570335 -4.5
      vertex 5.914250001311302 0 -4.5
    endloop
  endfacet
  facet normal 0 0 -1
    outer loop
      vertex 5.322241144563406 -11.310338155825244 -4.5
      vertex 6.697834937237459 10.554099068775189 -4.5
      vertex 6.697834937237452 -10.55409906877519 -4.5
    endloop
  endfacet
  facet normal 0 0 -1
    outer loop
      vertex 5.322241144563406 -11.310338155825244 -4.5
      vertex 5.914250001311302 0 -4.5
      vertex 6.697834937237459 10.554099068775189 -4.5
    endloop
  endfacet
  facet normal 0.5877852522924726 -0.8090169943749477 0
    outer loop
      vertex 6.697834937237452 -10.55409906877519 -4.5
      vertex 7.967799871858625 -9.631415534697362 -4.5
      vertex 7.967799871858625 -9.631415534697362 3
    endloop
  endfacet
  facet normal 0.684547105928689 -0.7289686274214113 0
    outer loop
      vertex 7.967799871858625 -9.631415534697362 -4.5
      vertex 9.112107842767646 -8.556838824108606 -4.5
      vertex 9.112107842767646 -8.556838824108606 3
    endloop
  endfacet
  facet normal 0.7705132427757891 -0.6374239897486897 0
    outer loop
      vertex 9.112107842767646 -8.556838824108606 -4.5
      vertex 10.112712429686843 -7.347315653655914 -4.5
      vertex 9.112107842767646 -8.556838824108606 3
    endloop
  endfacet
  facet normal 0.8443279255020151 -0.5358267949789965 0
    outer loop
      vertex 10.112712429686843 -7.347315653655914 -4.5
      vertex 10.953833500548294 -6.021920926271442 -4.5
      vertex 10.112712429686843 -7.347315653655914 3
    endloop
  endfacet
  facet normal 0 0 -1
    outer loop
      vertex 6.697834937237452 -10.55409906877519 -4.5
      vertex 7.967799871858622 9.631415534697364 -4.5
      vertex 7.967799871858625 -9.631415534697362 -4.5
    endloop
  endfacet
  facet normal 0 0 -1
    outer loop
      vertex 7.967799871858625 -9.631415534697362 -4.5
      vertex 9.112107842767644 8.55683882410861 -4.5
      vertex 9.112107842767646 -8.556838824108606 -4.5
    endloop
  endfacet
  facet normal 0 0 -1
    outer loop
      vertex 9.112107842767646 -8.556838824108606 -4.5
      vertex 10.112712429686843 7.347315653655914 -4.5
      vertex 10.112712429686843 -7.347315653655914 -4.5
    endloop
  endfacet
  facet normal 0 0 -1
    outer loop
      vertex 10.112712429686843 -7.347315653655914 -4.5
      vertex 10.953833500548296 6.0219209262714415 -4.5
      vertex 10.953833500548294 -6.021920926271442 -4.5
    endloop
  endfacet
  facet normal 0 0 -1
    outer loop
      vertex 10.953833500548294 -6.021920926271442 -4.5
      vertex 11.622206073603142 4.601556908558475 -4.5
      vertex 11.62220607360314 -4.6015569085584795 -4.5
    endloop
  endfacet
  facet normal 0 0 -1
    outer loop
      vertex 11.62220607360314 -4.6015569085584795 -4.5
      vertex 12.107289514107888 3.108623589560685 -4.5
      vertex 12.10728951410789 -3.1086235895606804 -4.5
    endloop
  endfacet
  facet normal 0 0 -1
    outer loop
      vertex 12.10728951410789 -3.1086235895606804 -4.5
      vertex 12.401433766430973 1.5666654195538032 -4.5
      vertex 12.401433766430973 -1.5666654195538008 -4.5
    endloop
  endfacet
  facet normal 0.9048270524660195 -0.4257792915650726 0
    outer loop
      vertex 10.953833500548294 -6.021920926271442 -4.5
      vertex 11.62220607360314 -4.6015569085584795 -4.5
      vertex 10.953833500548294 -6.021920926271442 3
    endloop
  endfacet
  facet normal 0.9510565162951533 -0.3090169943749479 0
    outer loop
      vertex 11.62220607360314 -4.6015569085584795 -4.5
      vertex 12.10728951410789 -3.1086235895606804 -4.5
      vertex 11.62220607360314 -4.6015569085584795 3
    endloop
  endfacet
  facet normal 0.9822872507286887 -0.18738131458572407 0
    outer loop
      vertex 12.10728951410789 -3.1086235895606804 -4.5
      vertex 12.401433766430973 -1.5666654195538008 -4.5
      vertex 12.10728951410789 -3.1086235895606804 3
    endloop
  endfacet
  facet normal 0.9980267284282716 -0.0627905195293135 0
    outer loop
      vertex 12.401433766430973 -1.5666654195538008 -4.5
      vertex 12.5 0 -4.5
      vertex 12.401433766430973 -1.5666654195538008 3
    endloop
  endfacet
  facet normal 0.12533323356430495 -0.9921147013144778 0
    outer loop
      vertex 0.784881494116422 -12.475334105353394 -4.5
      vertex 2.3422664323215603 -12.278590634108607 3
      vertex 0.784881494116422 -12.475334105353394 3
    endloop
  endfacet
  facet normal 0.2486898871648548 -0.9685831611286312 0
    outer loop
      vertex 2.3422664323215603 -12.278590634108607 -4.5
      vertex 3.8627124296868423 -11.888206453689419 3
      vertex 2.3422664323215603 -12.278590634108607 3
    endloop
  endfacet
  facet normal 0.36812455268467786 -0.9297764858882515 0
    outer loop
      vertex 3.8627124296868423 -11.888206453689419 -4.5
      vertex 5.322241144563406 -11.310338155825244 3
      vertex 3.8627124296868423 -11.888206453689419 3
    endloop
  endfacet
  facet normal 0.48175367410171493 -0.8763066800438638 0
    outer loop
      vertex 5.322241144563406 -11.310338155825244 -4.5
      vertex 6.697834937237452 -10.55409906877519 3
      vertex 5.322241144563406 -11.310338155825244 3
    endloop
  endfacet
  facet normal 0 0 1
    outer loop
      vertex -0.784881494116422 -12.475334105353394 3
      vertex 0.784881494116422 -12.475334105353394 3
      vertex 0.392440747058211 -6.237667052676697 3
    endloop
  endfacet
  facet normal 0 0 1
    outer loop
      vertex 0.784881494116422 -12.475334105353394 3
      vertex 2.3422664323215603 -12.278590634108607 3
      vertex 0.392440747058211 -6.237667052676697 3
    endloop
  endfacet
  facet normal 0 0 1
    outer loop
      vertex 2.3422664323215603 -12.278590634108607 3
      vertex 3.8627124296868423 -11.888206453689419 3
      vertex 1.9313562148434211 -5.944103226844709 3
    endloop
  endfacet
  facet normal 0 0 1
    outer loop
      vertex 2.3422664323215603 -12.278590634108607 3
      vertex 1.1711332161607801 -6.139295317054303 3
      vertex 0.392440747058211 -6.237667052676697 3
    endloop
  endfacet
  facet normal 0 0 1
    outer loop
      vertex 2.3422664323215603 -12.278590634108607 3
      vertex 1.9313562148434211 -5.944103226844709 3
      vertex 1.1711332161607801 -6.139295317054303 3
    endloop
  endfacet
  facet normal 0 0 1
    outer loop
      vertex 3.8627124296868423 -11.888206453689419 3
      vertex 2.661120572281703 -5.655169077912622 3
      vertex 1.9313562148434211 -5.944103226844709 3
    endloop
  endfacet
  facet normal 0 0 1
    outer loop
      vertex 3.8627124296868423 -11.888206453689419 3
      vertex 5.322241144563406 -11.310338155825244 3
      vertex 3.348917468618726 -5.277049534387595 3
    endloop
  endfacet
  facet normal 0 0 1
    outer loop
      vertex 3.8627124296868423 -11.888206453689419 3
      vertex 3.348917468618726 -5.277049534387595 3
      vertex 2.661120572281703 -5.655169077912622 3
    endloop
  endfacet
  facet normal 0 0 1
    outer loop
      vertex 5.322241144563406 -11.310338155825244 3
      vertex 3.9838999359293124 -4.815707767348681 3
      vertex 3.348917468618726 -5.277049534387595 3
    endloop
  endfacet
  facet normal 0 0 1
    outer loop
      vertex 5.322241144563406 -11.310338155825244 3
      vertex 4.556053921383823 -4.278419412054303 3
      vertex 3.9838999359293124 -4.815707767348681 3
    endloop
  endfacet
  facet normal 0 0 1
    outer loop
      vertex 5.322241144563406 -11.310338155825244 3
      vertex 6.697834937237452 -10.55409906877519 3
      vertex 5.056356214843421 -3.673657826827957 3
    endloop
  endfacet
  facet normal 0 0 1
    outer loop
      vertex 5.322241144563406 -11.310338155825244 3
      vertex 5.056356214843421 -3.673657826827957 3
      vertex 4.556053921383823 -4.278419412054303 3
    endloop
  endfacet
  facet normal 0 0 1
    outer loop
      vertex 6.697834937237452 -10.55409906877519 3
      vertex 5.476916750274147 -3.010960463135721 3
      vertex 5.056356214843421 -3.673657826827957 3
    endloop
  endfacet
  facet normal 0 0 1
    outer loop
      vertex 6.697834937237452 -10.55409906877519 3
      vertex 5.81110303680157 -2.3007784542792398 3
      vertex 5.476916750274147 -3.010960463135721 3
    endloop
  endfacet
  facet normal 0 0 1
    outer loop
      vertex 6.697834937237452 -10.55409906877519 3
      vertex 6.053644757053945 -1.5543117947803402 3
      vertex 5.81110303680157 -2.3007784542792398 3
    endloop
  endfacet
  facet normal 0.5877852522924726 -0.8090169943749477 0
    outer loop
      vertex 6.697834937237452 -10.55409906877519 -4.5
      vertex 7.967799871858625 -9.631415534697362 3
      vertex 6.697834937237452 -10.55409906877519 3
    endloop
  endfacet
  facet normal 0.684547105928689 -0.7289686274214113 0
    outer loop
      vertex 7.967799871858625 -9.631415534697362 -4.5
      vertex 9.112107842767646 -8.556838824108606 3
      vertex 7.967799871858625 -9.631415534697362 3
    endloop
  endfacet
  facet normal 0.7705132427757891 -0.6374239897486897 0
    outer loop
      vertex 10.112712429686843 -7.347315653655914 -4.5
      vertex 10.112712429686843 -7.347315653655914 3
      vertex 9.112107842767646 -8.556838824108606 3
    endloop
  endfacet
  facet normal 0.8443279255020151 -0.5358267949789965 0
    outer loop
      vertex 10.953833500548294 -6.021920926271442 -4.5
      vertex 10.953833500548294 -6.021920926271442 3
      vertex 10.112712429686843 -7.347315653655914 3
    endloop
  endfacet
  facet normal 0.9048270524660195 -0.4257792915650726 0
    outer loop
      vertex 11.62220607360314 -4.6015569085584795 -4.5
      vertex 11.62220607360314 -4.6015569085584795 3
      vertex 10.953833500548294 -6.021920926271442 3
    endloop
  endfacet
  facet normal 0.9510565162951533 -0.3090169943749479 0
    outer loop
      vertex 12.10728951410789 -3.1086235895606804 -4.5
      vertex 12.10728951410789 -3.1086235895606804 3
      vertex 11.62220607360314 -4.6015569085584795 3
    endloop
  endfacet
  facet normal 0.9822872507286887 -0.18738131458572407 0
    outer loop
      vertex 12.401433766430973 -1.5666654195538008 -4.5
      vertex 12.401433766430973 -1.5666654195538008 3
      vertex 12.10728951410789 -3.1086235895606804 3
    endloop
  endfacet
  facet normal 0.9980267284282716 -0.0627905195293135 0
    outer loop
      vertex 12.401433766430973 -1.5666654195538008 3
      vertex 12.5 0 -4.5
      vertex 12.5 0 3
    endloop
  endfacet
  facet normal 0 0 1
    outer loop
      vertex 6.697834937237452 -10.55409906877519 3
      vertex 6.200716883215486 -0.7833327097769004 3
      vertex 6.053644757053945 -1.5543117947803402 3
    endloop
  endfacet
  facet normal 0 0 1
    outer loop
      vertex 6.697834937237452 -10.55409906877519 3
      vertex 6.25 0 3
      vertex 6.200716883215486 -0.7833327097769004 3
    endloop
  endfacet
  facet normal 0 0 1
    outer loop
      vertex 6.697834937237452 -10.55409906877519 3
      vertex 7.967799871858625 -9.631415534697362 3
      vertex 6.697834937237459 10.554099068775189 3
    endloop
  endfacet
  facet normal 0 0 1
    outer loop
      vertex 7.967799871858625 -9.631415534697362 3
      vertex 9.112107842767646 -8.556838824108606 3
      vertex 7.967799871858622 9.631415534697364 3
    endloop
  endfacet
  facet normal 0 0 1
    outer loop
      vertex 9.112107842767646 -8.556838824108606 3
      vertex 10.112712429686843 -7.347315653655914 3
      vertex 9.112107842767644 8.55683882410861 3
    endloop
  endfacet
  facet normal 0 0 1
    outer loop
      vertex 10.112712429686843 -7.347315653655914 3
      vertex 10.953833500548294 -6.021920926271442 3
      vertex 10.112712429686843 7.347315653655914 3
    endloop
  endfacet
  facet normal 0 0 1
    outer loop
      vertex 10.953833500548294 -6.021920926271442 3
      vertex 11.62220607360314 -4.6015569085584795 3
      vertex 10.953833500548296 6.0219209262714415 3
    endloop
  endfacet
  facet normal 0 0 1
    outer loop
      vertex 11.62220607360314 -4.6015569085584795 3
      vertex 12.10728951410789 -3.1086235895606804 3
      vertex 11.622206073603142 4.601556908558475 3
    endloop
  endfacet
  facet normal 0 0 1
    outer loop
      vertex 12.10728951410789 -3.1086235895606804 3
      vertex 12.401433766430973 -1.5666654195538008 3
      vertex 12.107289514107888 3.108623589560685 3
    endloop
  endfacet
  facet normal 0 0 -1
    outer loop
      vertex 6.697834937237459 10.554099068775189 -4.5
      vertex 5.914250001311302 0 -4.5
      vertex 2.957125000655651 5.1218907460570335 -4.5
    endloop
  endfacet
  facet normal 0 0 -1
    outer loop
      vertex 3.8627124296868423 11.888206453689419 -4.5
      vertex 2.957125000655651 5.1218907460570335 -4.5
      vertex -2.957125000655651 5.1218907460570335 -4.5
    endloop
  endfacet
  facet normal 0 0 -1
    outer loop
      vertex 0.784881494116416 12.475334105353394 -4.5
      vertex 2.342266432321557 12.278590634108609 -4.5
      vertex -2.957125000655651 5.1218907460570335 -4.5
    endloop
  endfacet
  facet normal 0 0 -1
    outer loop
      vertex 2.342266432321557 12.278590634108609 -4.5
      vertex 3.8627124296868423 11.888206453689419 -4.5
      vertex -2.957125000655651 5.1218907460570335 -4.5
    endloop
  endfacet
  facet normal 0 0 -1
    outer loop
      vertex 5.322241144563409 11.310338155825244 -4.5
      vertex 6.697834937237459 10.554099068775189 -4.5
      vertex 2.957125000655651 5.1218907460570335 -4.5
    endloop
  endfacet
  facet normal 0 0 -1
    outer loop
      vertex 3.8627124296868423 11.888206453689419 -4.5
      vertex 5.322241144563409 11.310338155825244 -4.5
      vertex 2.957125000655651 5.1218907460570335 -4.5
    endloop
  endfacet
  facet normal 0.12533323356430362 0.9921147013144779 0
    outer loop
      vertex 0.784881494116416 12.475334105353394 -4.5
      vertex 0.784881494116416 12.475334105353394 3
      vertex 2.342266432321557 12.278590634108609 -4.5
    endloop
  endfacet
  facet normal 0.24868988716485538 0.968583161128631 0
    outer loop
      vertex 2.342266432321557 12.278590634108609 -4.5
      vertex 2.342266432321557 12.278590634108609 3
      vertex 3.8627124296868423 11.888206453689419 -4.5
    endloop
  endfacet
  facet normal 0.3681245526846771 0.9297764858882518 0
    outer loop
      vertex 3.8627124296868423 11.888206453689419 -4.5
      vertex 3.8627124296868423 11.888206453689419 3
      vertex 5.322241144563409 11.310338155825244 -4.5
    endloop
  endfacet
  facet normal 0.4817536741017151 0.8763066800438637 0
    outer loop
      vertex 5.322241144563409 11.310338155825244 -4.5
      vertex 5.322241144563409 11.310338155825244 3
      vertex 6.697834937237459 10.554099068775189 -4.5
    endloop
  endfacet
  facet normal 0 0 -1
    outer loop
      vertex 7.967799871858625 -9.631415534697362 -4.5
      vertex 7.967799871858622 9.631415534697364 -4.5
      vertex 9.112107842767644 8.55683882410861 -4.5
    endloop
  endfacet
  facet normal 0 0 -1
    outer loop
      vertex 6.697834937237452 -10.55409906877519 -4.5
      vertex 6.697834937237459 10.554099068775189 -4.5
      vertex 7.967799871858622 9.631415534697364 -4.5
    endloop
  endfacet
  facet normal 0 0 -1
    outer loop
      vertex 9.112107842767646 -8.556838824108606 -4.5
      vertex 9.112107842767644 8.55683882410861 -4.5
      vertex 10.112712429686843 7.347315653655914 -4.5
    endloop
  endfacet
  facet normal 0 0 -1
    outer loop
      vertex 10.112712429686843 -7.347315653655914 -4.5
      vertex 10.112712429686843 7.347315653655914 -4.5
      vertex 10.953833500548296 6.0219209262714415 -4.5
    endloop
  endfacet
  facet normal 0 0 -1
    outer loop
      vertex 10.953833500548294 -6.021920926271442 -4.5
      vertex 10.953833500548296 6.0219209262714415 -4.5
      vertex 11.622206073603142 4.601556908558475 -4.5
    endloop
  endfacet
  facet normal 0 0 -1
    outer loop
      vertex 12.401433766430973 -1.5666654195538008 -4.5
      vertex 12.401433766430973 1.5666654195538032 -4.5
      vertex 12.5 0 -4.5
    endloop
  endfacet
  facet normal 0 0 -1
    outer loop
      vertex 12.10728951410789 -3.1086235895606804 -4.5
      vertex 12.107289514107888 3.108623589560685 -4.5
      vertex 12.401433766430973 1.5666654195538032 -4.5
    endloop
  endfacet
  facet normal 0 0 -1
    outer loop
      vertex 11.62220607360314 -4.6015569085584795 -4.5
      vertex 11.622206073603142 4.601556908558475 -4.5
      vertex 12.107289514107888 3.108623589560685 -4.5
    endloop
  endfacet
  facet normal 0.9980267284282716 0.0627905195293134 0
    outer loop
      vertex 12.5 0 -4.5
      vertex 12.401433766430973 1.5666654195538032 -4.5
      vertex 12.5 0 3
    endloop
  endfacet
  facet normal 0.9822872507286886 0.18738131458572496 0
    outer loop
      vertex 12.401433766430973 1.5666654195538032 -4.5
      vertex 12.107289514107888 3.108623589560685 -4.5
      vertex 12.401433766430973 1.5666654195538032 3
    endloop
  endfacet
  facet normal 0.9510565162951535 0.3090169943749475 0
    outer loop
      vertex 12.107289514107888 3.108623589560685 -4.5
      vertex 11.622206073603142 4.601556908558475 -4.5
      vertex 12.107289514107888 3.108623589560685 3
    endloop
  endfacet
  facet normal 0.9048270524660199 0.42577929156507177 0
    outer loop
      vertex 11.622206073603142 4.601556908558475 -4.5
      vertex 10.953833500548296 6.0219209262714415 -4.5
      vertex 11.622206073603142 4.601556908558475 3
    endloop
  endfacet
  facet normal 0.6845471059286881 0.7289686274214122 0
    outer loop
      vertex 9.112107842767644 8.55683882410861 -4.5
      vertex 7.967799871858622 9.631415534697364 -4.5
      vertex 7.967799871858622 9.631415534697364 3
    endloop
  endfacet
  facet normal 0.5877852522924739 0.8090169943749468 0
    outer loop
      vertex 6.697834937237459 10.554099068775189 -4.5
      vertex 6.697834937237459 10.554099068775189 3
      vertex 7.967799871858622 9.631415534697364 -4.5
    endloop
  endfacet
  facet normal 0.7705132427757896 0.6374239897486893 0
    outer loop
      vertex 9.112107842767644 8.55683882410861 -4.5
      vertex 10.112712429686843 7.347315653655914 3
      vertex 10.112712429686843 7.347315653655914 -4.5
    endloop
  endfacet
  facet normal 0.8443279255020147 0.5358267949789971 0
    outer loop
      vertex 10.953833500548296 6.0219209262714415 -4.5
      vertex 10.112712429686843 7.347315653655914 -4.5
      vertex 10.953833500548296 6.0219209262714415 3
    endloop
  endfacet
  facet normal 0 0 1
    outer loop
      vertex 5.322241144563409 11.310338155825244 3
      vertex 5.056356214843421 3.673657826827957 3
      vertex 5.476916750274148 3.0109604631357207 3
    endloop
  endfacet
  facet normal 0 0 1
    outer loop
      vertex 5.322241144563409 11.310338155825244 3
      vertex 5.811103036801571 2.3007784542792376 3
      vertex 6.053644757053944 1.5543117947803424 3
    endloop
  endfacet
  facet normal 0 0 1
    outer loop
      vertex 5.322241144563409 11.310338155825244 3
      vertex 5.476916750274148 3.0109604631357207 3
      vertex 5.811103036801571 2.3007784542792376 3
    endloop
  endfacet
  facet normal 0 1 0
    outer loop
      vertex -0.784881494116416 12.475334105353394 3
      vertex 0.784881494116416 12.475334105353394 3
      vertex 0.784881494116416 12.475334105353394 -4.5
    endloop
  endfacet
  facet normal 0.12533323356430362 0.9921147013144779 0
    outer loop
      vertex 2.342266432321557 12.278590634108609 -4.5
      vertex 0.784881494116416 12.475334105353394 3
      vertex 2.342266432321557 12.278590634108609 3
    endloop
  endfacet
  facet normal 0.24868988716485538 0.968583161128631 0
    outer loop
      vertex 3.8627124296868423 11.888206453689419 -4.5
      vertex 2.342266432321557 12.278590634108609 3
      vertex 3.8627124296868423 11.888206453689419 3
    endloop
  endfacet
  facet normal 0.4817536741017151 0.8763066800438637 0
    outer loop
      vertex 6.697834937237459 10.554099068775189 -4.5
      vertex 5.322241144563409 11.310338155825244 3
      vertex 6.697834937237459 10.554099068775189 3
    endloop
  endfacet
  facet normal 0.3681245526846771 0.9297764858882518 0
    outer loop
      vertex 5.322241144563409 11.310338155825244 -4.5
      vertex 3.8627124296868423 11.888206453689419 3
      vertex 5.322241144563409 11.310338155825244 3
    endloop
  endfacet
  facet normal 0 0 1
    outer loop
      vertex 0.784881494116416 12.475334105353394 3
      vertex -0.3924407470582064 6.237667052676697 3
      vertex 0.392440747058208 6.237667052676697 3
    endloop
  endfacet
  facet normal 0 0 1
    outer loop
      vertex 0.784881494116416 12.475334105353394 3
      vertex 0.392440747058208 6.237667052676697 3
      vertex 1.1711332161607786 6.139295317054304 3
    endloop
  endfacet
  facet normal 0 0 1
    outer loop
      vertex 0.784881494116416 12.475334105353394 3
      vertex 1.1711332161607786 6.139295317054304 3
      vertex 1.9313562148434211 5.944103226844709 3
    endloop
  endfacet
  facet normal 0 0 1
    outer loop
      vertex 2.342266432321557 12.278590634108609 3
      vertex 2.6611205722817046 5.655169077912622 3
      vertex 3.3489174686187293 5.2770495343875945 3
    endloop
  endfacet
  facet normal 0 0 1
    outer loop
      vertex 2.342266432321557 12.278590634108609 3
      vertex 1.9313562148434211 5.944103226844709 3
      vertex 2.6611205722817046 5.655169077912622 3
    endloop
  endfacet
  facet normal 0 0 1
    outer loop
      vertex 0.784881494116416 12.475334105353394 3
      vertex 1.9313562148434211 5.944103226844709 3
      vertex 2.342266432321557 12.278590634108609 3
    endloop
  endfacet
  facet normal 0 0 1
    outer loop
      vertex 3.8627124296868423 11.888206453689419 3
      vertex 3.3489174686187293 5.2770495343875945 3
      vertex 3.983899935929311 4.815707767348682 3
    endloop
  endfacet
  facet normal 0 0 1
    outer loop
      vertex 3.8627124296868423 11.888206453689419 3
      vertex 3.983899935929311 4.815707767348682 3
      vertex 4.556053921383822 4.278419412054305 3
    endloop
  endfacet
  facet normal 0 0 1
    outer loop
      vertex 3.8627124296868423 11.888206453689419 3
      vertex 4.556053921383822 4.278419412054305 3
      vertex 5.322241144563409 11.310338155825244 3
    endloop
  endfacet
  facet normal 0 0 1
    outer loop
      vertex 5.322241144563409 11.310338155825244 3
      vertex 4.556053921383822 4.278419412054305 3
      vertex 5.056356214843421 3.673657826827957 3
    endloop
  endfacet
  facet normal 0 0 1
    outer loop
      vertex 5.322241144563409 11.310338155825244 3
      vertex 6.053644757053944 1.5543117947803424 3
      vertex 6.697834937237459 10.554099068775189 3
    endloop
  endfacet
  facet normal 0 0 1
    outer loop
      vertex 2.342266432321557 12.278590634108609 3
      vertex 3.3489174686187293 5.2770495343875945 3
      vertex 3.8627124296868423 11.888206453689419 3
    endloop
  endfacet
  facet normal 0.9980267284282716 0.0627905195293134 0
    outer loop
      vertex 12.401433766430973 1.5666654195538032 -4.5
      vertex 12.401433766430973 1.5666654195538032 3
      vertex 12.5 0 3
    endloop
  endfacet
  facet normal 0.9822872507286886 0.18738131458572496 0
    outer loop
      vertex 12.107289514107888 3.108623589560685 -4.5
      vertex 12.107289514107888 3.108623589560685 3
      vertex 12.401433766430973 1.5666654195538032 3
    endloop
  endfacet
  facet normal 0.9510565162951535 0.3090169943749475 0
    outer loop
      vertex 11.622206073603142 4.601556908558475 -4.5
      vertex 11.622206073603142 4.601556908558475 3
      vertex 12.107289514107888 3.108623589560685 3
    endloop
  endfacet
  facet normal 0.9048270524660199 0.42577929156507177 0
    outer loop
      vertex 10.953833500548296 6.0219209262714415 -4.5
      vertex 10.953833500548296 6.0219209262714415 3
      vertex 11.622206073603142 4.601556908558475 3
    endloop
  endfacet
  facet normal 0 0 1
    outer loop
      vertex 6.697834937237452 -10.55409906877519 3
      vertex 6.697834937237459 10.554099068775189 3
      vertex 6.25 0 3
    endloop
  endfacet
  facet normal 0 0 1
    outer loop
      vertex 6.697834937237459 10.554099068775189 3
      vertex 6.200716883215486 0.7833327097769016 3
      vertex 6.25 0 3
    endloop
  endfacet
  facet normal 0 0 1
    outer loop
      vertex 6.697834937237459 10.554099068775189 3
      vertex 6.053644757053944 1.5543117947803424 3
      vertex 6.200716883215486 0.7833327097769016 3
    endloop
  endfacet
  facet normal 0 0 1
    outer loop
      vertex 7.967799871858625 -9.631415534697362 3
      vertex 7.967799871858622 9.631415534697364 3
      vertex 6.697834937237459 10.554099068775189 3
    endloop
  endfacet
  facet normal 0 0 1
    outer loop
      vertex 9.112107842767646 -8.556838824108606 3
      vertex 9.112107842767644 8.55683882410861 3
      vertex 7.967799871858622 9.631415534697364 3
    endloop
  endfacet
  facet normal 0 0 1
    outer loop
      vertex 10.112712429686843 -7.347315653655914 3
      vertex 10.112712429686843 7.347315653655914 3
      vertex 9.112107842767644 8.55683882410861 3
    endloop
  endfacet
  facet normal 0 0 1
    outer loop
      vertex 10.953833500548294 -6.021920926271442 3
      vertex 10.953833500548296 6.0219209262714415 3
      vertex 10.112712429686843 7.347315653655914 3
    endloop
  endfacet
  facet normal 0 0 1
    outer loop
      vertex 12.401433766430973 -1.5666654195538008 3
      vertex 12.5 0 3
      vertex 12.401433766430973 1.5666654195538032 3
    endloop
  endfacet
  facet normal 0 0 1
    outer loop
      vertex 12.10728951410789 -3.1086235895606804 3
      vertex 12.107289514107888 3.108623589560685 3
      vertex 11.622206073603142 4.601556908558475 3
    endloop
  endfacet
  facet normal 0 0 1
    outer loop
      vertex 12.401433766430973 -1.5666654195538008 3
      vertex 12.401433766430973 1.5666654195538032 3
      vertex 12.107289514107888 3.108623589560685 3
    endloop
  endfacet
  facet normal 0 0 1
    outer loop
      vertex 11.62220607360314 -4.6015569085584795 3
      vertex 11.622206073603142 4.601556908558475 3
      vertex 10.953833500548296 6.0219209262714415 3
    endloop
  endfacet
  facet normal 0.6845471059286881 0.7289686274214122 0
    outer loop
      vertex 9.112107842767644 8.55683882410861 -4.5
      vertex 7.967799871858622 9.631415534697364 3
      vertex 9.112107842767644 8.55683882410861 3
    endloop
  endfacet
  facet normal 0.5877852522924739 0.8090169943749468 0
    outer loop
      vertex 7.967799871858622 9.631415534697364 -4.5
      vertex 6.697834937237459 10.554099068775189 3
      vertex 7.967799871858622 9.631415534697364 3
    endloop
  endfacet
  facet normal 0.8443279255020147 0.5358267949789971 0
    outer loop
      vertex 10.112712429686843 7.347315653655914 -4.5
      vertex 10.112712429686843 7.347315653655914 3
      vertex 10.953833500548296 6.0219209262714415 3
    endloop
  endfacet
  facet normal 0.7705132427757896 0.6374239897486893 0
    outer loop
      vertex 9.112107842767644 8.55683882410861 -4.5
      vertex 9.112107842767644 8.55683882410861 3
      vertex 10.112712429686843 7.347315653655914 3
    endloop
  endfacet
endsolid OpenSCAD_Model
