solid OpenSCAD_Model
  facet normal 0.5730438679507945 0.6102297391289578 0.5470286929280734
    outer loop
      vertex -2.2537491066114383 -2.7243146798143982 -3
      vertex -2.57742478981142 -2.4203629816764343 -3
      vertex -2.9158745096856467 -2.738188423714754 -2.290909090909091
    endloop
  endfacet
  facet normal 0.6450073123142291 0.5335964544246699 0.5470286929280729
    outer loop
      vertex -3.23606797749979 -2.351141009169892 -2.290909090909091
      vertex -2.57742478981142 -2.4203629816764343 -3
      vertex -2.860452944397136 -2.078240713462673 -3
    endloop
  endfacet
  facet normal 0.4920431794699604 0.6772393363136076 0.5470286929280738
    outer loop
      vertex -1.8945304536757386 -2.9853023080249814 -3
      vertex -2.2537491066114383 -2.7243146798143982 -3
      vertex -2.5496959589947585 -3.0820529711031575 -2.2909090909090915
    endloop
  endfacet
  facet normal 0.7961425883149612 0.2586824079533785 0.5470286929280731
    outer loop
      vertex -3.8743326445145243 -0.9947595486594193 -2.290909090909091
      vertex -3.287424003676317 -1.3015832398493967 -3
      vertex -3.424633319704803 -0.8792963867614512 -3
    endloop
  endfacet
  facet normal 0.7067986060537784 0.44854803487903 0.5470286929280732
    outer loop
      vertex -3.505226720175454 -1.9270146964068615 -2.29090909090909
      vertex -2.860452944397136 -2.078240713462673 -3
      vertex -3.0983700472979456 -1.7033433477167794 -3
    endloop
  endfacet
  facet normal 0.7574432635548358 0.3564257448737433 0.5470286929280737
    outer loop
      vertex -3.0983700472979456 -1.7033433477167794 -3
      vertex -3.287424003676317 -1.3015832398493967 -3
      vertex -3.719105943553006 -1.4724982107387115 -2.2909090909090906
    endloop
  endfacet
  facet normal 0.8222862688648306 0.156859494930205 0.5470286929280737
    outer loop
      vertex -3.424633319704803 -0.8792963867614512 -3
      vertex -3.507834122504761 -0.443142504388075 -3
      vertex -3.9684588052579115 -0.5013329342572163 -2.290909090909091
    endloop
  endfacet
  facet normal 0.8354620037446939 0.05256281396866476 0.5470286929280735
    outer loop
      vertex -3.507834122504761 -0.443142504388075 -3
      vertex -3.5357142857142856 0 -3
      vertex -4 0 -2.290909090909091
    endloop
  endfacet
  facet normal 0.4032826761165382 0.7335684646014216 0.5470286929280732
    outer loop
      vertex -1.8945304536757386 -2.9853023080249814 -3
      vertex -2.143307179915987 -3.37731170200806 -2.2909090909090906
      vertex -1.5054339237479346 -3.1992099355048547 -3
    endloop
  endfacet
  facet normal 0.3081621640513648 0.778328779989911 0.5470286929280732
    outer loop
      vertex -1.5054339237479346 -3.1992099355048547 -3
      vertex -1.7031171662602897 -3.6193082098640783 -2.29090909090909
      vertex -1.0925958015399926 -3.3626641111864353 -3
    endloop
  endfacet
  facet normal 0.20818175057194896 0.810814385566883 0.5470286929280737
    outer loop
      vertex -1.0925958015399926 -3.3626641111864353 -3
      vertex -1.2360679774997898 -3.804226065180614 -2.2909090909090906
      vertex -0.6625267908566699 -3.473087065076435 -3
    endloop
  endfacet
  facet normal 0.1049181865242611 0.8305129639264304 0.5470286929280733
    outer loop
      vertex -0.7495252583428993 -3.9291490029147544 -2.290909090909091
      vertex -0.22200933690721653 -3.5287373612285315 -3
      vertex -0.6625267908566699 -3.473087065076435 -3
    endloop
  endfacet
  facet normal 0 0.8371138567204603 0.5470286929280735
    outer loop
      vertex -0.25116207811725505 -3.9921069137130862 -2.290909090909091
      vertex 0.22200933690721653 -3.5287373612285315 -3
      vertex -0.22200933690721653 -3.5287373612285315 -3
    endloop
  endfacet
  facet normal 0.7067986060537783 0.44854803487903055 0.5470286929280729
    outer loop
      vertex -3.505226720175454 -1.9270146964068615 -2.29090909090909
      vertex -3.23606797749979 -2.351141009169892 -2.290909090909091
      vertex -2.860452944397136 -2.078240713462673 -3
    endloop
  endfacet
  facet normal 0.49204317946995985 0.6772393363136081 0.5470286929280732
    outer loop
      vertex -2.143307179915987 -3.37731170200806 -2.2909090909090906
      vertex -1.8945304536757386 -2.9853023080249814 -3
      vertex -2.5496959589947585 -3.0820529711031575 -2.2909090909090915
    endloop
  endfacet
  facet normal 0.6450073123142296 0.5335964544246686 0.5470286929280734
    outer loop
      vertex -3.23606797749979 -2.351141009169892 -2.290909090909091
      vertex -2.9158745096856467 -2.738188423714754 -2.290909090909091
      vertex -2.57742478981142 -2.4203629816764343 -3
    endloop
  endfacet
  facet normal 0.5730438679507948 0.6102297391289575 0.5470286929280737
    outer loop
      vertex -2.9158745096856467 -2.738188423714754 -2.290909090909091
      vertex -2.5496959589947585 -3.0820529711031575 -2.2909090909090915
      vertex -2.2537491066114383 -2.7243146798143982 -3
    endloop
  endfacet
  facet normal 0.7961425883149612 0.25868240795337716 0.5470286929280737
    outer loop
      vertex -3.8743326445145243 -0.9947595486594193 -2.290909090909091
      vertex -3.719105943553006 -1.4724982107387115 -2.2909090909090906
      vertex -3.287424003676317 -1.3015832398493967 -3
    endloop
  endfacet
  facet normal 0.7574432635548358 0.35642574487374434 0.5470286929280731
    outer loop
      vertex -3.719105943553006 -1.4724982107387115 -2.2909090909090906
      vertex -3.505226720175454 -1.9270146964068615 -2.29090909090909
      vertex -3.0983700472979456 -1.7033433477167794 -3
    endloop
  endfacet
  facet normal 0.8222862688648307 0.15685949493020615 0.5470286929280731
    outer loop
      vertex -3.9684588052579115 -0.5013329342572163 -2.290909090909091
      vertex -3.8743326445145243 -0.9947595486594193 -2.290909090909091
      vertex -3.424633319704803 -0.8792963867614512 -3
    endloop
  endfacet
  facet normal 0.8354620037446939 0.05256281396866468 0.5470286929280737
    outer loop
      vertex -4 0 -2.290909090909091
      vertex -3.9684588052579115 -0.5013329342572163 -2.290909090909091
      vertex -3.507834122504761 -0.443142504388075 -3
    endloop
  endfacet
  facet normal 0.40328267611653806 0.7335684646014217 0.5470286929280732
    outer loop
      vertex -1.7031171662602897 -3.6193082098640783 -2.29090909090909
      vertex -1.5054339237479346 -3.1992099355048547 -3
      vertex -2.143307179915987 -3.37731170200806 -2.2909090909090906
    endloop
  endfacet
  facet normal 0.3081621640513655 0.7783287799899106 0.5470286929280735
    outer loop
      vertex -1.2360679774997898 -3.804226065180614 -2.2909090909090906
      vertex -1.0925958015399926 -3.3626641111864353 -3
      vertex -1.7031171662602897 -3.6193082098640783 -2.29090909090909
    endloop
  endfacet
  facet normal 0.20818175057194832 0.8108143855668835 0.5470286929280733
    outer loop
      vertex -0.7495252583428993 -3.9291490029147544 -2.290909090909091
      vertex -0.6625267908566699 -3.473087065076435 -3
      vertex -1.2360679774997898 -3.804226065180614 -2.2909090909090906
    endloop
  endfacet
  facet normal 0.10491818652426153 0.8305129639264299 0.5470286929280734
    outer loop
      vertex -0.22200933690721653 -3.5287373612285315 -3
      vertex -0.7495252583428993 -3.9291490029147544 -2.290909090909091
      vertex -0.25116207811725505 -3.9921069137130862 -2.290909090909091
    endloop
  endfacet
  facet normal 0.8354620037446938 -0.05256281396866475 0.5470286929280737
    outer loop
      vertex -3.507834122504761 0.443142504388075 -3
      vertex -3.9684588052579115 0.5013329342572163 -2.290909090909091
      vertex -3.5357142857142856 0 -3
    endloop
  endfacet
  facet normal 0.8222862688648307 -0.1568594949302051 0.5470286929280732
    outer loop
      vertex -3.424633319704803 0.879296386761451 -3
      vertex -3.8743326445145243 0.9947595486594194 -2.290909090909091
      vertex -3.507834122504761 0.443142504388075 -3
    endloop
  endfacet
  facet normal 0.7961425883149609 -0.2586824079533781 0.5470286929280737
    outer loop
      vertex -3.424633319704803 0.879296386761451 -3
      vertex -3.287424003676317 1.301583239849397 -3
      vertex -3.719105943553006 1.4724982107387117 -2.2909090909090906
    endloop
  endfacet
  facet normal 0.7574432635548362 -0.35642574487374357 0.5470286929280732
    outer loop
      vertex -3.0983700472979456 1.7033433477167794 -3
      vertex -3.505226720175454 1.9270146964068617 -2.29090909090909
      vertex -3.287424003676317 1.301583239849397 -3
    endloop
  endfacet
  facet normal 0.7067986060537784 -0.44854803487903006 0.5470286929280731
    outer loop
      vertex -3.0983700472979456 1.7033433477167794 -3
      vertex -2.860452944397136 2.078240713462673 -3
      vertex -3.23606797749979 2.3511410091698925 -2.290909090909091
    endloop
  endfacet
  facet normal 0.6450073123142288 -0.5335964544246695 0.5470286929280735
    outer loop
      vertex -2.860452944397136 2.078240713462673 -3
      vertex -2.57742478981142 2.4203629816764343 -3
      vertex -2.9158745096856467 2.738188423714754 -2.290909090909091
    endloop
  endfacet
  facet normal 0.5730438679507946 -0.6102297391289578 0.5470286929280734
    outer loop
      vertex -2.549695958994758 3.0820529711031575 -2.2909090909090915
      vertex -2.57742478981142 2.4203629816764343 -3
      vertex -2.2537491066114383 2.7243146798143982 -3
    endloop
  endfacet
  facet normal 0.4920431794699605 -0.6772393363136077 0.5470286929280733
    outer loop
      vertex -2.2537491066114383 2.7243146798143982 -3
      vertex -1.8945304536757386 2.9853023080249814 -3
      vertex -2.143307179915987 3.37731170200806 -2.2909090909090906
    endloop
  endfacet
  facet normal 0.40328267611653895 -0.7335684646014209 0.5470286929280734
    outer loop
      vertex -1.8945304536757386 2.9853023080249814 -3
      vertex -1.5054339237479357 3.1992099355048547 -3
      vertex -1.7031171662602906 3.619308209864078 -2.2909090909090915
    endloop
  endfacet
  facet normal 0.30816216405136404 -0.7783287799899111 0.5470286929280735
    outer loop
      vertex -1.5054339237479357 3.1992099355048547 -3
      vertex -1.0925958015399926 3.3626641111864353 -3
      vertex -1.2360679774997896 3.804226065180614 -2.2909090909090906
    endloop
  endfacet
  facet normal 0.20818175057194865 -0.8108143855668835 0.5470286929280731
    outer loop
      vertex -1.0925958015399926 3.3626641111864353 -3
      vertex -0.662526790856669 3.473087065076435 -3
      vertex -0.7495252583428983 3.929149002914755 -2.29090909090909
    endloop
  endfacet
  facet normal 0.10491818652426091 -0.83051296392643 0.5470286929280734
    outer loop
      vertex -0.662526790856669 3.473087065076435 -3
      vertex -0.2220093369072148 3.5287373612285315 -3
      vertex -0.2511620781172531 3.9921069137130862 -2.290909090909091
    endloop
  endfacet
  facet normal 0.8354620037446939 -0.05256281396866468 0.5470286929280737
    outer loop
      vertex -3.9684588052579115 0.5013329342572163 -2.290909090909091
      vertex -4 0 -2.290909090909091
      vertex -3.5357142857142856 0 -3
    endloop
  endfacet
  facet normal 0.8222862688648304 -0.15685949493020612 0.5470286929280737
    outer loop
      vertex -3.507834122504761 0.443142504388075 -3
      vertex -3.8743326445145243 0.9947595486594194 -2.290909090909091
      vertex -3.9684588052579115 0.5013329342572163 -2.290909090909091
    endloop
  endfacet
  facet normal 0.7961425883149615 -0.25868240795337716 0.5470286929280732
    outer loop
      vertex -3.719105943553006 1.4724982107387117 -2.2909090909090906
      vertex -3.8743326445145243 0.9947595486594194 -2.290909090909091
      vertex -3.424633319704803 0.879296386761451 -3
    endloop
  endfacet
  facet normal 0.7574432635548355 -0.3564257448737441 0.5470286929280735
    outer loop
      vertex -3.505226720175454 1.9270146964068617 -2.29090909090909
      vertex -3.719105943553006 1.4724982107387117 -2.2909090909090906
      vertex -3.287424003676317 1.301583239849397 -3
    endloop
  endfacet
  facet normal 0.7067986060537781 -0.4485480348790304 0.5470286929280732
    outer loop
      vertex -3.23606797749979 2.3511410091698925 -2.290909090909091
      vertex -3.505226720175454 1.9270146964068617 -2.29090909090909
      vertex -3.0983700472979456 1.7033433477167794 -3
    endloop
  endfacet
  facet normal 0.6450073123142294 -0.5335964544246691 0.5470286929280731
    outer loop
      vertex -2.9158745096856467 2.738188423714754 -2.290909090909091
      vertex -3.23606797749979 2.3511410091698925 -2.290909090909091
      vertex -2.860452944397136 2.078240713462673 -3
    endloop
  endfacet
  facet normal 0.5730438679507944 -0.6102297391289578 0.5470286929280734
    outer loop
      vertex -2.57742478981142 2.4203629816764343 -3
      vertex -2.549695958994758 3.0820529711031575 -2.2909090909090915
      vertex -2.9158745096856467 2.738188423714754 -2.290909090909091
    endloop
  endfacet
  facet normal 0.4920431794699602 -0.6772393363136078 0.5470286929280733
    outer loop
      vertex -2.143307179915987 3.37731170200806 -2.2909090909090906
      vertex -2.549695958994758 3.0820529711031575 -2.2909090909090915
      vertex -2.2537491066114383 2.7243146798143982 -3
    endloop
  endfacet
  facet normal 0.4032826761165394 -0.7335684646014209 0.5470286929280733
    outer loop
      vertex -1.7031171662602906 3.619308209864078 -2.2909090909090915
      vertex -2.143307179915987 3.37731170200806 -2.2909090909090906
      vertex -1.8945304536757386 2.9853023080249814 -3
    endloop
  endfacet
  facet normal 0.3081621640513642 -0.7783287799899111 0.5470286929280735
    outer loop
      vertex -1.5054339237479357 3.1992099355048547 -3
      vertex -1.2360679774997896 3.804226065180614 -2.2909090909090906
      vertex -1.7031171662602906 3.619308209864078 -2.2909090909090915
    endloop
  endfacet
  facet normal 0.20818175057194768 -0.8108143855668835 0.5470286929280735
    outer loop
      vertex -0.7495252583428983 3.929149002914755 -2.29090909090909
      vertex -1.2360679774997896 3.804226065180614 -2.2909090909090906
      vertex -1.0925958015399926 3.3626641111864353 -3
    endloop
  endfacet
  facet normal 0.10491818652426163 -0.8305129639264303 0.5470286929280731
    outer loop
      vertex -0.2511620781172531 3.9921069137130862 -2.290909090909091
      vertex -0.7495252583428983 3.929149002914755 -2.29090909090909
      vertex -0.662526790856669 3.473087065076435 -3
    endloop
  endfacet
  facet normal 0 -0.8371138567204603 0.5470286929280735
    outer loop
      vertex -0.2220093369072148 3.5287373612285315 -3
      vertex 0.2511620781172531 3.9921069137130862 -2.290909090909091
      vertex -0.2511620781172531 3.9921069137130862 -2.290909090909091
    endloop
  endfacet
  facet normal -0.10491818652426124 0.83051296392643 0.5470286929280735
    outer loop
      vertex 0.25116207811725505 -3.9921069137130862 -2.290909090909091
      vertex 0.6625267908566699 -3.473087065076435 -3
      vertex 0.22200933690721653 -3.5287373612285315 -3
    endloop
  endfacet
  facet normal -0.20818175057194904 0.8108143855668833 0.5470286929280732
    outer loop
      vertex 0.7495252583428993 -3.9291490029147544 -2.290909090909091
      vertex 1.0925958015399926 -3.3626641111864353 -3
      vertex 0.6625267908566699 -3.473087065076435 -3
    endloop
  endfacet
  facet normal -0.30816216405136476 0.7783287799899109 0.5470286929280735
    outer loop
      vertex 1.5054339237479346 -3.1992099355048547 -3
      vertex 1.0925958015399926 -3.3626641111864353 -3
      vertex 1.2360679774997896 -3.804226065180614 -2.2909090909090906
    endloop
  endfacet
  facet normal -0.403282676116537 0.7335684646014223 0.5470286929280733
    outer loop
      vertex 1.7031171662602897 -3.6193082098640783 -2.29090909090909
      vertex 1.8945304536757368 -2.985302308024983 -3
      vertex 1.5054339237479346 -3.1992099355048547 -3
    endloop
  endfacet
  facet normal -0.49204317946996146 0.6772393363136074 0.547028692928073
    outer loop
      vertex 2.143307179915985 -3.377311702008061 -2.290909090909091
      vertex 2.2537491066114392 -2.7243146798143973 -3
      vertex 1.8945304536757368 -2.985302308024983 -3
    endloop
  endfacet
  facet normal -0.5730438679507945 0.6102297391289578 0.5470286929280733
    outer loop
      vertex 2.5496959589947594 -3.082052971103156 -2.2909090909090915
      vertex 2.57742478981142 -2.4203629816764343 -3
      vertex 2.2537491066114392 -2.7243146798143973 -3
    endloop
  endfacet
  facet normal -0.6450073123142288 0.5335964544246695 0.5470286929280735
    outer loop
      vertex 2.860452944397136 -2.078240713462673 -3
      vertex 2.57742478981142 -2.4203629816764343 -3
      vertex 2.9158745096856467 -2.738188423714754 -2.290909090909091
    endloop
  endfacet
  facet normal -0.7067986060537784 0.44854803487903006 0.5470286929280731
    outer loop
      vertex 3.0983700472979456 -1.7033433477167794 -3
      vertex 2.860452944397136 -2.078240713462673 -3
      vertex 3.23606797749979 -2.3511410091698925 -2.290909090909091
    endloop
  endfacet
  facet normal -0.7574432635548358 0.3564257448737441 0.5470286929280733
    outer loop
      vertex 3.0983700472979456 -1.7033433477167794 -3
      vertex 3.505226720175454 -1.9270146964068617 -2.29090909090909
      vertex 3.2874240036763167 -1.3015832398493987 -3
    endloop
  endfacet
  facet normal -0.7961425883149611 0.2586824079533779 0.5470286929280735
    outer loop
      vertex 3.4246333197048036 -0.8792963867614496 -3
      vertex 3.2874240036763167 -1.3015832398493987 -3
      vertex 3.719105943553005 -1.4724982107387135 -2.290909090909091
    endloop
  endfacet
  facet normal -0.8222862688648308 0.15685949493020482 0.5470286929280731
    outer loop
      vertex 3.4246333197048036 -0.8792963867614496 -3
      vertex 3.8743326445145247 -0.9947595486594177 -2.290909090909091
      vertex 3.507834122504761 -0.443142504388075 -3
    endloop
  endfacet
  facet normal -0.8354620037446938 0.05256281396866475 0.5470286929280737
    outer loop
      vertex 3.507834122504761 -0.443142504388075 -3
      vertex 3.9684588052579115 -0.5013329342572163 -2.290909090909091
      vertex 3.5357142857142856 0 -3
    endloop
  endfacet
  facet normal 0 0.8371138567204603 0.5470286929280735
    outer loop
      vertex -0.25116207811725505 -3.9921069137130862 -2.290909090909091
      vertex 0.25116207811725505 -3.9921069137130862 -2.290909090909091
      vertex 0.22200933690721653 -3.5287373612285315 -3
    endloop
  endfacet
  facet normal -0.1049181865242616 0.8305129639264301 0.5470286929280733
    outer loop
      vertex 0.25116207811725505 -3.9921069137130862 -2.290909090909091
      vertex 0.7495252583428993 -3.9291490029147544 -2.290909090909091
      vertex 0.6625267908566699 -3.473087065076435 -3
    endloop
  endfacet
  facet normal -0.20818175057194832 0.8108143855668833 0.5470286929280737
    outer loop
      vertex 0.7495252583428993 -3.9291490029147544 -2.290909090909091
      vertex 1.2360679774997896 -3.804226065180614 -2.2909090909090906
      vertex 1.0925958015399926 -3.3626641111864353 -3
    endloop
  endfacet
  facet normal -0.3081621640513655 0.7783287799899108 0.5470286929280733
    outer loop
      vertex 1.2360679774997896 -3.804226065180614 -2.2909090909090906
      vertex 1.7031171662602897 -3.6193082098640783 -2.29090909090909
      vertex 1.5054339237479346 -3.1992099355048547 -3
    endloop
  endfacet
  facet normal -0.4032826761165377 0.7335684646014221 0.5470286929280731
    outer loop
      vertex 1.7031171662602897 -3.6193082098640783 -2.29090909090909
      vertex 2.143307179915985 -3.377311702008061 -2.290909090909091
      vertex 1.8945304536757368 -2.985302308024983 -3
    endloop
  endfacet
  facet normal -0.4920431794699608 0.6772393363136076 0.5470286929280733
    outer loop
      vertex 2.143307179915985 -3.377311702008061 -2.290909090909091
      vertex 2.5496959589947594 -3.082052971103156 -2.2909090909090915
      vertex 2.2537491066114392 -2.7243146798143973 -3
    endloop
  endfacet
  facet normal -0.5730438679507944 0.6102297391289578 0.5470286929280734
    outer loop
      vertex 2.5496959589947594 -3.082052971103156 -2.2909090909090915
      vertex 2.9158745096856467 -2.738188423714754 -2.290909090909091
      vertex 2.57742478981142 -2.4203629816764343 -3
    endloop
  endfacet
  facet normal -0.6450073123142294 0.5335964544246691 0.5470286929280731
    outer loop
      vertex 2.9158745096856467 -2.738188423714754 -2.290909090909091
      vertex 3.23606797749979 -2.3511410091698925 -2.290909090909091
      vertex 2.860452944397136 -2.078240713462673 -3
    endloop
  endfacet
  facet normal -0.7067986060537781 0.4485480348790304 0.5470286929280732
    outer loop
      vertex 3.23606797749979 -2.3511410091698925 -2.290909090909091
      vertex 3.505226720175454 -1.9270146964068617 -2.29090909090909
      vertex 3.0983700472979456 -1.7033433477167794 -3
    endloop
  endfacet
  facet normal -0.7574432635548354 0.35642574487374457 0.5470286929280735
    outer loop
      vertex 3.505226720175454 -1.9270146964068617 -2.29090909090909
      vertex 3.719105943553005 -1.4724982107387135 -2.290909090909091
      vertex 3.2874240036763167 -1.3015832398493987 -3
    endloop
  endfacet
  facet normal -0.7961425883149618 0.2586824079533771 0.5470286929280731
    outer loop
      vertex 3.719105943553005 -1.4724982107387135 -2.290909090909091
      vertex 3.8743326445145247 -0.9947595486594177 -2.290909090909091
      vertex 3.4246333197048036 -0.8792963867614496 -3
    endloop
  endfacet
  facet normal -0.8222862688648304 0.15685949493020582 0.5470286929280737
    outer loop
      vertex 3.8743326445145247 -0.9947595486594177 -2.290909090909091
      vertex 3.9684588052579115 -0.5013329342572163 -2.290909090909091
      vertex 3.507834122504761 -0.443142504388075 -3
    endloop
  endfacet
  facet normal -0.8354620037446939 0.05256281396866468 0.5470286929280737
    outer loop
      vertex 3.9684588052579115 -0.5013329342572163 -2.290909090909091
      vertex 4 0 -2.290909090909091
      vertex 3.5357142857142856 0 -3
    endloop
  endfacet
  facet normal 7.379579511953606e-16 -0.8371138567204607 0.5470286929280731
    outer loop
      vertex 0.2511620781172531 3.9921069137130862 -2.290909090909091
      vertex -0.2220093369072148 3.5287373612285315 -3
      vertex 0.2220093369072147 3.528737361228532 -3
    endloop
  endfacet
  facet normal -0.1049181865242618 -0.8305129639264301 0.5470286929280734
    outer loop
      vertex 0.7495252583428984 3.929149002914755 -2.2909090909090906
      vertex 0.2220093369072147 3.528737361228532 -3
      vertex 0.6625267908566691 3.473087065076435 -3
    endloop
  endfacet
  facet normal -0.20818175057194863 -0.8108143855668831 0.5470286929280737
    outer loop
      vertex 1.0925958015399926 3.3626641111864353 -3
      vertex 1.2360679774997898 3.804226065180614 -2.2909090909090906
      vertex 0.6625267908566691 3.473087065076435 -3
    endloop
  endfacet
  facet normal -0.30816216405136404 -0.7783287799899112 0.5470286929280735
    outer loop
      vertex 1.5054339237479357 3.1992099355048547 -3
      vertex 1.7031171662602909 3.619308209864078 -2.2909090909090915
      vertex 1.0925958015399926 3.3626641111864353 -3
    endloop
  endfacet
  facet normal -0.4032826761165387 -0.7335684646014212 0.5470286929280732
    outer loop
      vertex 1.8945304536757381 2.985302308024982 -3
      vertex 2.1433071799159866 3.3773117020080603 -2.2909090909090906
      vertex 1.5054339237479357 3.1992099355048547 -3
    endloop
  endfacet
  facet normal -0.8354620037446938 -0.05256281396866382 0.5470286929280735
    outer loop
      vertex 3.5357142857142856 0 -3
      vertex 4 0 -2.290909090909091
      vertex 3.5078341225047613 0.4431425043880758 -3
    endloop
  endfacet
  facet normal -0.8222862688648304 -0.15685949493020707 0.5470286929280733
    outer loop
      vertex 3.4246333197048027 0.8792963867614508 -3
      vertex 3.5078341225047613 0.4431425043880758 -3
      vertex 3.9684588052579115 0.501332934257217 -2.290909090909091
    endloop
  endfacet
  facet normal -0.7574432635548362 -0.35642574487374284 0.5470286929280734
    outer loop
      vertex 3.098370047297946 1.7033433477167792 -3
      vertex 3.287424003676317 1.301583239849397 -3
      vertex 3.7191059435530054 1.4724982107387117 -2.290909090909091
    endloop
  endfacet
  facet normal -0.7067986060537775 -0.44854803487903094 0.5470286929280737
    outer loop
      vertex 2.8604529443971356 2.078240713462673 -3
      vertex 3.098370047297946 1.7033433477167792 -3
      vertex 3.5052267201754543 1.9270146964068613 -2.290909090909091
    endloop
  endfacet
  facet normal -0.7961425883149613 -0.25868240795337727 0.5470286929280735
    outer loop
      vertex 3.287424003676317 1.301583239849397 -3
      vertex 3.4246333197048027 0.8792963867614508 -3
      vertex 3.8743326445145243 0.9947595486594192 -2.290909090909091
    endloop
  endfacet
  facet normal -0.49204317946996184 -0.6772393363136067 0.5470286929280735
    outer loop
      vertex 1.8945304536757381 2.985302308024982 -3
      vertex 2.253749106611439 2.724314679814397 -3
      vertex 2.549695958994759 3.0820529711031566 -2.2909090909090906
    endloop
  endfacet
  facet normal -0.6450073123142297 -0.5335964544246687 0.5470286929280732
    outer loop
      vertex 3.23606797749979 2.351141009169892 -2.290909090909091
      vertex 2.5774247898114195 2.420362981676435 -3
      vertex 2.8604529443971356 2.078240713462673 -3
    endloop
  endfacet
  facet normal -0.5730438679507931 -0.6102297391289591 0.5470286929280734
    outer loop
      vertex 2.253749106611439 2.724314679814397 -3
      vertex 2.5774247898114195 2.420362981676435 -3
      vertex 2.915874509685646 2.738188423714755 -2.290909090909091
    endloop
  endfacet
  facet normal -0.10491818652426113 -0.8305129639264304 0.5470286929280732
    outer loop
      vertex 0.2220093369072147 3.528737361228532 -3
      vertex 0.7495252583428984 3.929149002914755 -2.2909090909090906
      vertex 0.2511620781172531 3.9921069137130862 -2.290909090909091
    endloop
  endfacet
  facet normal -0.20818175057194813 -0.8108143855668835 0.5470286929280733
    outer loop
      vertex 0.7495252583428984 3.929149002914755 -2.2909090909090906
      vertex 0.6625267908566691 3.473087065076435 -3
      vertex 1.2360679774997898 3.804226065180614 -2.2909090909090906
    endloop
  endfacet
  facet normal -0.30816216405136415 -0.778328779989911 0.5470286929280737
    outer loop
      vertex 1.2360679774997898 3.804226065180614 -2.2909090909090906
      vertex 1.0925958015399926 3.3626641111864353 -3
      vertex 1.7031171662602909 3.619308209864078 -2.2909090909090915
    endloop
  endfacet
  facet normal -0.40328267611653923 -0.7335684646014208 0.5470286929280737
    outer loop
      vertex 1.7031171662602909 3.619308209864078 -2.2909090909090915
      vertex 1.5054339237479357 3.1992099355048547 -3
      vertex 2.1433071799159866 3.3773117020080603 -2.2909090909090906
    endloop
  endfacet
  facet normal -0.835462003744694 -0.05256281396866461 0.5470286929280733
    outer loop
      vertex 4 0 -2.290909090909091
      vertex 3.9684588052579115 0.501332934257217 -2.290909090909091
      vertex 3.5078341225047613 0.4431425043880758 -3
    endloop
  endfacet
  facet normal -0.8222862688648302 -0.15685949493020637 0.5470286929280737
    outer loop
      vertex 3.9684588052579115 0.501332934257217 -2.290909090909091
      vertex 3.8743326445145243 0.9947595486594192 -2.290909090909091
      vertex 3.4246333197048027 0.8792963867614508 -3
    endloop
  endfacet
  facet normal -0.7574432635548362 -0.3564257448737428 0.5470286929280735
    outer loop
      vertex 3.7191059435530054 1.4724982107387117 -2.290909090909091
      vertex 3.5052267201754543 1.9270146964068613 -2.290909090909091
      vertex 3.098370047297946 1.7033433477167792 -3
    endloop
  endfacet
  facet normal -0.7961425883149613 -0.2586824079533772 0.5470286929280735
    outer loop
      vertex 3.8743326445145243 0.9947595486594192 -2.290909090909091
      vertex 3.7191059435530054 1.4724982107387117 -2.290909090909091
      vertex 3.287424003676317 1.301583239849397 -3
    endloop
  endfacet
  facet normal -0.5730438679507933 -0.6102297391289588 0.5470286929280735
    outer loop
      vertex 2.549695958994759 3.0820529711031566 -2.2909090909090906
      vertex 2.253749106611439 2.724314679814397 -3
      vertex 2.915874509685646 2.738188423714755 -2.290909090909091
    endloop
  endfacet
  facet normal -0.6450073123142298 -0.5335964544246684 0.5470286929280734
    outer loop
      vertex 3.23606797749979 2.351141009169892 -2.290909090909091
      vertex 2.915874509685646 2.738188423714755 -2.290909090909091
      vertex 2.5774247898114195 2.420362981676435 -3
    endloop
  endfacet
  facet normal -0.4920431794699615 -0.6772393363136072 0.5470286929280733
    outer loop
      vertex 2.1433071799159866 3.3773117020080603 -2.2909090909090906
      vertex 1.8945304536757381 2.985302308024982 -3
      vertex 2.549695958994759 3.0820529711031566 -2.2909090909090906
    endloop
  endfacet
  facet normal -0.7067986060537773 -0.44854803487903167 0.5470286929280733
    outer loop
      vertex 3.5052267201754543 1.9270146964068613 -2.290909090909091
      vertex 3.23606797749979 2.351141009169892 -2.290909090909091
      vertex 2.8604529443971356 2.078240713462673 -3
    endloop
  endfacet
  facet normal 0 0 -1
    outer loop
      vertex -3.23606797749979 -2.3511410091698925 -3
      vertex -2.860452944397136 -2.078240713462673 -3
      vertex -2.9158745096856467 -2.738188423714754 -3
    endloop
  endfacet
  facet normal 0 0 -1
    outer loop
      vertex -3.23606797749979 -2.3511410091698925 -3
      vertex -3.0983700472979456 -1.7033433477167794 -3
      vertex -2.860452944397136 -2.078240713462673 -3
    endloop
  endfacet
  facet normal 0 0 -1
    outer loop
      vertex -2.5496959589947585 -3.0820529711031575 -3
      vertex -1.8945304536757386 -2.9853023080249814 -3
      vertex -2.143307179915987 -3.37731170200806 -3
    endloop
  endfacet
  facet normal 0 0 -1
    outer loop
      vertex -2.5496959589947585 -3.0820529711031575 -3
      vertex -2.9158745096856467 -2.738188423714754 -3
      vertex -2.2537491066114383 -2.7243146798143982 -3
    endloop
  endfacet
  facet normal 0 0 -1
    outer loop
      vertex -2.9158745096856467 -2.738188423714754 -3
      vertex -2.57742478981142 -2.4203629816764343 -3
      vertex -2.2537491066114383 -2.7243146798143982 -3
    endloop
  endfacet
  facet normal 0 0 -1
    outer loop
      vertex -2.9158745096856467 -2.738188423714754 -3
      vertex -2.860452944397136 -2.078240713462673 -3
      vertex -2.57742478981142 -2.4203629816764343 -3
    endloop
  endfacet
  facet normal 0 0 -1
    outer loop
      vertex -2.5496959589947585 -3.0820529711031575 -3
      vertex -2.2537491066114383 -2.7243146798143982 -3
      vertex -1.8945304536757386 -2.9853023080249814 -3
    endloop
  endfacet
  facet normal -0.8443279255020154 -0.5358267949789961 0
    outer loop
      vertex -3.23606797749979 -2.3511410091698925 -3
      vertex -3.505226720175454 -1.9270146964068615 -2.29090909090909
      vertex -3.505226720175454 -1.9270146964068615 -3
    endloop
  endfacet
  facet normal -0.7705132427757891 -0.6374239897486899 3.9920567633547073e-16
    outer loop
      vertex -3.23606797749979 -2.3511410091698925 -3
      vertex -2.9158745096856467 -2.738188423714754 -3
      vertex -3.23606797749979 -2.351141009169892 -2.290909090909091
    endloop
  endfacet
  facet normal -0.5877852522924727 -0.8090169943749478 0
    outer loop
      vertex -2.5496959589947585 -3.0820529711031575 -3
      vertex -2.143307179915987 -3.37731170200806 -3
      vertex -2.5496959589947585 -3.0820529711031575 -2.2909090909090915
    endloop
  endfacet
  facet normal -0.6845471059286892 -0.7289686274214112 0
    outer loop
      vertex -2.5496959589947585 -3.0820529711031575 -3
      vertex -2.9158745096856467 -2.738188423714754 -2.290909090909091
      vertex -2.9158745096856467 -2.738188423714754 -3
    endloop
  endfacet
  facet normal 0 0 -1
    outer loop
      vertex -3.505226720175454 -1.9270146964068615 -3
      vertex -3.719105943553006 -1.4724982107387115 -3
      vertex -3.424633319704803 -0.8792963867614512 -3
    endloop
  endfacet
  facet normal 0 0 -1
    outer loop
      vertex -3.23606797749979 -2.3511410091698925 -3
      vertex -3.505226720175454 -1.9270146964068615 -3
      vertex -3.0983700472979456 -1.7033433477167794 -3
    endloop
  endfacet
  facet normal 0 0 -1
    outer loop
      vertex -3.505226720175454 -1.9270146964068615 -3
      vertex -3.287424003676317 -1.3015832398493967 -3
      vertex -3.0983700472979456 -1.7033433477167794 -3
    endloop
  endfacet
  facet normal 0 0 -1
    outer loop
      vertex -3.505226720175454 -1.9270146964068615 -3
      vertex -3.424633319704803 -0.8792963867614512 -3
      vertex -3.287424003676317 -1.3015832398493967 -3
    endloop
  endfacet
  facet normal 0 0 -1
    outer loop
      vertex -3.719105943553006 -1.4724982107387115 -3
      vertex -3.507834122504761 -0.443142504388075 -3
      vertex -3.424633319704803 -0.8792963867614512 -3
    endloop
  endfacet
  facet normal 0 0 -1
    outer loop
      vertex -3.719105943553006 -1.4724982107387115 -3
      vertex -3.5357142857142856 0 -3
      vertex -3.507834122504761 -0.443142504388075 -3
    endloop
  endfacet
  facet normal 0 0 -1
    outer loop
      vertex -3.719105943553006 -1.4724982107387115 -3
      vertex -3.8743326445145243 -0.9947595486594194 -3
      vertex -3.719105943553006 1.4724982107387115 -3
    endloop
  endfacet
  facet normal 0 0 -1
    outer loop
      vertex -3.8743326445145243 -0.9947595486594194 -3
      vertex -3.9684588052579115 -0.5013329342572163 -3
      vertex -3.8743326445145243 0.9947595486594194 -3
    endloop
  endfacet
  facet normal -0.9048270524660194 -0.42577929156507316 0
    outer loop
      vertex -3.505226720175454 -1.9270146964068615 -3
      vertex -3.719105943553006 -1.4724982107387115 -2.2909090909090906
      vertex -3.719105943553006 -1.4724982107387115 -3
    endloop
  endfacet
  facet normal -0.9510565162951536 -0.30901699437494706 7.792274758537356e-17
    outer loop
      vertex -3.719105943553006 -1.4724982107387115 -3
      vertex -3.8743326445145243 -0.9947595486594193 -2.290909090909091
      vertex -3.8743326445145243 -0.9947595486594194 -3
    endloop
  endfacet
  facet normal -0.9822872507286886 -0.18738131458572493 0
    outer loop
      vertex -3.8743326445145243 -0.9947595486594194 -3
      vertex -3.9684588052579115 -0.5013329342572163 -2.290909090909091
      vertex -3.9684588052579115 -0.5013329342572163 -3
    endloop
  endfacet
  facet normal -0.9980267284282717 -0.06279051952931311 0
    outer loop
      vertex -3.9684588052579115 -0.5013329342572163 -3
      vertex -4 0 -2.290909090909091
      vertex -4 0 -3
    endloop
  endfacet
  facet normal 0 0 -1
    outer loop
      vertex -2.143307179915987 -3.37731170200806 -3
      vertex -1.5054339237479346 -3.1992099355048547 -3
      vertex -1.7031171662602897 -3.6193082098640783 -3
    endloop
  endfacet
  facet normal 0 0 -1
    outer loop
      vertex -2.143307179915987 -3.37731170200806 -3
      vertex -1.8945304536757386 -2.9853023080249814 -3
      vertex -1.5054339237479346 -3.1992099355048547 -3
    endloop
  endfacet
  facet normal 0 0 -1
    outer loop
      vertex -1.7031171662602897 -3.6193082098640783 -3
      vertex -1.0925958015399926 -3.3626641111864353 -3
      vertex -1.2360679774997896 -3.804226065180614 -3
    endloop
  endfacet
  facet normal 0 0 -1
    outer loop
      vertex -1.7031171662602897 -3.6193082098640783 -3
      vertex -1.5054339237479346 -3.1992099355048547 -3
      vertex -1.0925958015399926 -3.3626641111864353 -3
    endloop
  endfacet
  facet normal 0 0 -1
    outer loop
      vertex -1.2360679774997896 -3.804226065180614 -3
      vertex -0.6625267908566699 -3.473087065076435 -3
      vertex -0.7495252583428993 -3.9291490029147544 -3
    endloop
  endfacet
  facet normal 0 0 -1
    outer loop
      vertex -1.2360679774997896 -3.804226065180614 -3
      vertex -1.0925958015399926 -3.3626641111864353 -3
      vertex -0.6625267908566699 -3.473087065076435 -3
    endloop
  endfacet
  facet normal 0 0 -1
    outer loop
      vertex -0.7495252583428993 -3.9291490029147544 -3
      vertex -0.6625267908566699 -3.473087065076435 -3
      vertex -0.22200933690721653 -3.5287373612285315 -3
    endloop
  endfacet
  facet normal 0 0 -1
    outer loop
      vertex -0.7495252583428993 -3.9291490029147544 -3
      vertex -0.22200933690721653 -3.5287373612285315 -3
      vertex -0.25116207811725505 -3.9921069137130862 -3
    endloop
  endfacet
  facet normal 0 0 -1
    outer loop
      vertex -0.25116207811725505 -3.9921069137130862 -3
      vertex -0.22200933690721653 -3.5287373612285315 -3
      vertex 0.22200933690721653 -3.5287373612285315 -3
    endloop
  endfacet
  facet normal -0.3681245526846778 -0.9297764858882515 0
    outer loop
      vertex -1.7031171662602897 -3.6193082098640783 -3
      vertex -1.2360679774997896 -3.804226065180614 -3
      vertex -1.7031171662602897 -3.6193082098640783 -2.29090909090909
    endloop
  endfacet
  facet normal -0.48175367410171505 -0.8763066800438637 0
    outer loop
      vertex -2.143307179915987 -3.37731170200806 -3
      vertex -1.7031171662602897 -3.6193082098640783 -3
      vertex -2.143307179915987 -3.37731170200806 -2.2909090909090906
    endloop
  endfacet
  facet normal -0.248689887164855 -0.9685831611286311 -7.787470835744601e-17
    outer loop
      vertex -1.2360679774997896 -3.804226065180614 -3
      vertex -0.7495252583428993 -3.9291490029147544 -3
      vertex -1.2360679774997898 -3.804226065180614 -2.2909090909090906
    endloop
  endfacet
  facet normal -0.12533323356430498 -0.9921147013144778 0
    outer loop
      vertex -0.7495252583428993 -3.9291490029147544 -3
      vertex -0.25116207811725505 -3.9921069137130862 -3
      vertex -0.7495252583428993 -3.9291490029147544 -2.290909090909091
    endloop
  endfacet
  facet normal 0 -1 0
    outer loop
      vertex -0.25116207811725505 -3.9921069137130862 -3
      vertex 0.25116207811725505 -3.9921069137130862 -3
      vertex -0.25116207811725505 -3.9921069137130862 -2.290909090909091
    endloop
  endfacet
  facet normal -0.7705132427757895 -0.6374239897486894 0
    outer loop
      vertex -2.9158745096856467 -2.738188423714754 -3
      vertex -2.9158745096856467 -2.738188423714754 -2.290909090909091
      vertex -3.23606797749979 -2.351141009169892 -2.290909090909091
    endloop
  endfacet
  facet normal -0.8443279255020151 -0.5358267949789965 3.355774202545968e-16
    outer loop
      vertex -3.23606797749979 -2.3511410091698925 -3
      vertex -3.23606797749979 -2.351141009169892 -2.290909090909091
      vertex -3.505226720175454 -1.9270146964068615 -2.29090909090909
    endloop
  endfacet
  facet normal -0.5877852522924727 -0.8090169943749477 0
    outer loop
      vertex -2.143307179915987 -3.37731170200806 -3
      vertex -2.143307179915987 -3.37731170200806 -2.2909090909090906
      vertex -2.5496959589947585 -3.0820529711031575 -2.2909090909090915
    endloop
  endfacet
  facet normal -0.6845471059286891 -0.7289686274214111 0
    outer loop
      vertex -2.5496959589947585 -3.0820529711031575 -3
      vertex -2.5496959589947585 -3.0820529711031575 -2.2909090909090915
      vertex -2.9158745096856467 -2.738188423714754 -2.290909090909091
    endloop
  endfacet
  facet normal -0.9048270524660194 -0.4257792915650731 0
    outer loop
      vertex -3.505226720175454 -1.9270146964068615 -3
      vertex -3.505226720175454 -1.9270146964068615 -2.29090909090909
      vertex -3.719105943553006 -1.4724982107387115 -2.2909090909090906
    endloop
  endfacet
  facet normal -0.9510565162951536 -0.309016994374947 0
    outer loop
      vertex -3.719105943553006 -1.4724982107387115 -3
      vertex -3.719105943553006 -1.4724982107387115 -2.2909090909090906
      vertex -3.8743326445145243 -0.9947595486594193 -2.290909090909091
    endloop
  endfacet
  facet normal -0.9822872507286886 -0.187381314585725 2.933827625914894e-17
    outer loop
      vertex -3.8743326445145243 -0.9947595486594194 -3
      vertex -3.8743326445145243 -0.9947595486594193 -2.290909090909091
      vertex -3.9684588052579115 -0.5013329342572163 -2.290909090909091
    endloop
  endfacet
  facet normal -0.9980267284282717 -0.06279051952931311 0
    outer loop
      vertex -3.9684588052579115 -0.5013329342572163 -3
      vertex -3.9684588052579115 -0.5013329342572163 -2.290909090909091
      vertex -4 0 -2.290909090909091
    endloop
  endfacet
  facet normal -0.481753674101715 -0.8763066800438637 0
    outer loop
      vertex -1.7031171662602897 -3.6193082098640783 -3
      vertex -1.7031171662602897 -3.6193082098640783 -2.29090909090909
      vertex -2.143307179915987 -3.37731170200806 -2.2909090909090906
    endloop
  endfacet
  facet normal -0.368124552684678 -0.9297764858882513 -1.1527445891087241e-16
    outer loop
      vertex -1.2360679774997896 -3.804226065180614 -3
      vertex -1.2360679774997898 -3.804226065180614 -2.2909090909090906
      vertex -1.7031171662602897 -3.6193082098640783 -2.29090909090909
    endloop
  endfacet
  facet normal -0.24868988716485488 -0.968583161128631 0
    outer loop
      vertex -0.7495252583428993 -3.9291490029147544 -3
      vertex -0.7495252583428993 -3.9291490029147544 -2.290909090909091
      vertex -1.2360679774997898 -3.804226065180614 -2.2909090909090906
    endloop
  endfacet
  facet normal -0.12533323356430498 -0.9921147013144778 0
    outer loop
      vertex -0.25116207811725505 -3.9921069137130862 -3
      vertex -0.25116207811725505 -3.9921069137130862 -2.290909090909091
      vertex -0.7495252583428993 -3.9291490029147544 -2.290909090909091
    endloop
  endfacet
  facet normal 0 0 -1
    outer loop
      vertex -3.9684588052579115 -0.5013329342572163 -3
      vertex -4 0 -3
      vertex -3.9684588052579115 0.5013329342572163 -3
    endloop
  endfacet
  facet normal 0 0 -1
    outer loop
      vertex -3.9684588052579115 -0.5013329342572163 -3
      vertex -3.9684588052579115 0.5013329342572163 -3
      vertex -3.8743326445145243 0.9947595486594194 -3
    endloop
  endfacet
  facet normal 0 0 -1
    outer loop
      vertex -3.8743326445145243 -0.9947595486594194 -3
      vertex -3.8743326445145243 0.9947595486594194 -3
      vertex -3.719105943553006 1.4724982107387115 -3
    endloop
  endfacet
  facet normal 0 0 -1
    outer loop
      vertex -3.719105943553006 -1.4724982107387115 -3
      vertex -3.505226720175454 1.9270146964068615 -3
      vertex -3.5357142857142856 0 -3
    endloop
  endfacet
  facet normal 0 0 -1
    outer loop
      vertex -3.719105943553006 -1.4724982107387115 -3
      vertex -3.719105943553006 1.4724982107387115 -3
      vertex -3.505226720175454 1.9270146964068615 -3
    endloop
  endfacet
  facet normal 0 0 -1
    outer loop
      vertex -3.505226720175454 1.9270146964068615 -3
      vertex -3.507834122504761 0.443142504388075 -3
      vertex -3.5357142857142856 0 -3
    endloop
  endfacet
  facet normal 0 0 -1
    outer loop
      vertex -3.505226720175454 1.9270146964068615 -3
      vertex -3.424633319704803 0.879296386761451 -3
      vertex -3.507834122504761 0.443142504388075 -3
    endloop
  endfacet
  facet normal 0 0 -1
    outer loop
      vertex -3.505226720175454 1.9270146964068615 -3
      vertex -3.23606797749979 2.3511410091698925 -3
      vertex -3.424633319704803 0.879296386761451 -3
    endloop
  endfacet
  facet normal 0 0 -1
    outer loop
      vertex -3.23606797749979 2.3511410091698925 -3
      vertex -3.287424003676317 1.301583239849397 -3
      vertex -3.424633319704803 0.879296386761451 -3
    endloop
  endfacet
  facet normal 0 0 -1
    outer loop
      vertex -3.23606797749979 2.3511410091698925 -3
      vertex -3.0983700472979456 1.7033433477167794 -3
      vertex -3.287424003676317 1.301583239849397 -3
    endloop
  endfacet
  facet normal -0.9980267284282717 0.06279051952931311 0
    outer loop
      vertex -4 0 -3
      vertex -3.9684588052579115 0.5013329342572163 -2.290909090909091
      vertex -3.9684588052579115 0.5013329342572163 -3
    endloop
  endfacet
  facet normal -0.9822872507286886 0.18738131458572493 0
    outer loop
      vertex -3.9684588052579115 0.5013329342572163 -3
      vertex -3.8743326445145243 0.9947595486594194 -2.290909090909091
      vertex -3.8743326445145243 0.9947595486594194 -3
    endloop
  endfacet
  facet normal -0.9510565162951536 0.30901699437494706 -1.168841213780603e-16
    outer loop
      vertex -3.8743326445145243 0.9947595486594194 -3
      vertex -3.719105943553006 1.4724982107387117 -2.2909090909090906
      vertex -3.719105943553006 1.4724982107387115 -3
    endloop
  endfacet
  facet normal -0.9048270524660194 0.4257792915650731 -1.168841213780598e-16
    outer loop
      vertex -3.719105943553006 1.4724982107387115 -3
      vertex -3.505226720175454 1.9270146964068617 -2.29090909090909
      vertex -3.505226720175454 1.9270146964068615 -3
    endloop
  endfacet
  facet normal 0 0 -1
    outer loop
      vertex -3.23606797749979 2.3511410091698925 -3
      vertex -2.9158745096856467 2.738188423714754 -3
      vertex -3.0983700472979456 1.7033433477167794 -3
    endloop
  endfacet
  facet normal 0 0 -1
    outer loop
      vertex -2.9158745096856467 2.738188423714754 -3
      vertex -2.860452944397136 2.078240713462673 -3
      vertex -3.0983700472979456 1.7033433477167794 -3
    endloop
  endfacet
  facet normal 0 0 -1
    outer loop
      vertex -2.9158745096856467 2.738188423714754 -3
      vertex -2.5496959589947585 3.0820529711031575 -3
      vertex -2.860452944397136 2.078240713462673 -3
    endloop
  endfacet
  facet normal 0 0 -1
    outer loop
      vertex -2.5496959589947585 3.0820529711031575 -3
      vertex -2.57742478981142 2.4203629816764343 -3
      vertex -2.860452944397136 2.078240713462673 -3
    endloop
  endfacet
  facet normal 0 0 -1
    outer loop
      vertex -2.5496959589947585 3.0820529711031575 -3
      vertex -2.2537491066114383 2.7243146798143982 -3
      vertex -2.57742478981142 2.4203629816764343 -3
    endloop
  endfacet
  facet normal 0 0 -1
    outer loop
      vertex -2.5496959589947585 3.0820529711031575 -3
      vertex -2.143307179915987 3.37731170200806 -3
      vertex -2.2537491066114383 2.7243146798143982 -3
    endloop
  endfacet
  facet normal 0 0 -1
    outer loop
      vertex -2.143307179915987 3.37731170200806 -3
      vertex -1.8945304536757386 2.9853023080249814 -3
      vertex -2.2537491066114383 2.7243146798143982 -3
    endloop
  endfacet
  facet normal -0.8443279255020153 0.5358267949789962 0
    outer loop
      vertex -3.505226720175454 1.9270146964068615 -3
      vertex -3.23606797749979 2.3511410091698925 -2.290909090909091
      vertex -3.23606797749979 2.3511410091698925 -3
    endloop
  endfacet
  facet normal -0.7705132427757891 0.6374239897486899 0
    outer loop
      vertex -3.23606797749979 2.3511410091698925 -3
      vertex -2.9158745096856467 2.738188423714754 -2.290909090909091
      vertex -2.9158745096856467 2.738188423714754 -3
    endloop
  endfacet
  facet normal -0.6845471059286891 0.7289686274214111 4.675364855122397e-16
    outer loop
      vertex -2.9158745096856467 2.738188423714754 -3
      vertex -2.549695958994758 3.0820529711031575 -2.2909090909090915
      vertex -2.5496959589947585 3.0820529711031575 -3
    endloop
  endfacet
  facet normal -0.5877852522924727 0.8090169943749477 0
    outer loop
      vertex -2.5496959589947585 3.0820529711031575 -3
      vertex -2.143307179915987 3.37731170200806 -2.2909090909090906
      vertex -2.143307179915987 3.37731170200806 -3
    endloop
  endfacet
  facet normal 0 0 -1
    outer loop
      vertex -2.143307179915987 3.37731170200806 -3
      vertex -1.7031171662602909 3.619308209864078 -3
      vertex -1.8945304536757386 2.9853023080249814 -3
    endloop
  endfacet
  facet normal 0 0 -1
    outer loop
      vertex -1.7031171662602909 3.619308209864078 -3
      vertex -1.5054339237479357 3.1992099355048547 -3
      vertex -1.8945304536757386 2.9853023080249814 -3
    endloop
  endfacet
  facet normal 0 0 -1
    outer loop
      vertex -1.2360679774997896 3.804226065180614 -3
      vertex -1.0925958015399926 3.3626641111864353 -3
      vertex -1.5054339237479357 3.1992099355048547 -3
    endloop
  endfacet
  facet normal 0 0 -1
    outer loop
      vertex -1.7031171662602909 3.619308209864078 -3
      vertex -1.2360679774997896 3.804226065180614 -3
      vertex -1.5054339237479357 3.1992099355048547 -3
    endloop
  endfacet
  facet normal 0 0 -1
    outer loop
      vertex -1.2360679774997896 3.804226065180614 -3
      vertex -0.7495252583428983 3.929149002914755 -3
      vertex -1.0925958015399926 3.3626641111864353 -3
    endloop
  endfacet
  facet normal 0 0 -1
    outer loop
      vertex -0.7495252583428983 3.929149002914755 -3
      vertex -0.662526790856669 3.473087065076435 -3
      vertex -1.0925958015399926 3.3626641111864353 -3
    endloop
  endfacet
  facet normal 0 0 -1
    outer loop
      vertex -0.7495252583428983 3.929149002914755 -3
      vertex -0.2511620781172531 3.9921069137130862 -3
      vertex -0.662526790856669 3.473087065076435 -3
    endloop
  endfacet
  facet normal 0 0 -1
    outer loop
      vertex -0.2511620781172531 3.9921069137130862 -3
      vertex -0.2220093369072148 3.5287373612285315 -3
      vertex -0.662526790856669 3.473087065076435 -3
    endloop
  endfacet
  facet normal 0 0 -1
    outer loop
      vertex -0.2511620781172531 3.9921069137130862 -3
      vertex 0.2511620781172531 3.9921069137130862 -3
      vertex -0.2220093369072148 3.5287373612285315 -3
    endloop
  endfacet
  facet normal -0.4817536741017153 0.8763066800438636 1.558454951707469e-16
    outer loop
      vertex -2.143307179915987 3.37731170200806 -3
      vertex -1.7031171662602906 3.619308209864078 -2.2909090909090915
      vertex -1.7031171662602909 3.619308209864078 -3
    endloop
  endfacet
  facet normal -0.36812455268467786 0.9297764858882516 0
    outer loop
      vertex -1.7031171662602909 3.619308209864078 -3
      vertex -1.2360679774997896 3.804226065180614 -2.2909090909090906
      vertex -1.2360679774997896 3.804226065180614 -3
    endloop
  endfacet
  facet normal -0.2486898871648553 0.968583161128631 0
    outer loop
      vertex -1.2360679774997896 3.804226065180614 -3
      vertex -0.7495252583428983 3.929149002914755 -2.29090909090909
      vertex -0.7495252583428983 3.929149002914755 -3
    endloop
  endfacet
  facet normal -0.12533323356430387 0.992114701314478 0
    outer loop
      vertex -0.7495252583428983 3.929149002914755 -3
      vertex -0.2511620781172531 3.9921069137130862 -2.290909090909091
      vertex -0.2511620781172531 3.9921069137130862 -3
    endloop
  endfacet
  facet normal -0.9980267284282717 0.06279051952931311 0
    outer loop
      vertex -4 0 -3
      vertex -4 0 -2.290909090909091
      vertex -3.9684588052579115 0.5013329342572163 -2.290909090909091
    endloop
  endfacet
  facet normal -0.9822872507286886 0.18738131458572493 0
    outer loop
      vertex -3.9684588052579115 0.5013329342572163 -3
      vertex -3.9684588052579115 0.5013329342572163 -2.290909090909091
      vertex -3.8743326445145243 0.9947595486594194 -2.290909090909091
    endloop
  endfacet
  facet normal -0.9510565162951536 0.3090169943749469 0
    outer loop
      vertex -3.8743326445145243 0.9947595486594194 -3
      vertex -3.8743326445145243 0.9947595486594194 -2.290909090909091
      vertex -3.719105943553006 1.4724982107387117 -2.2909090909090906
    endloop
  endfacet
  facet normal -0.9048270524660194 0.42577929156507316 -1.3332845389603713e-16
    outer loop
      vertex -3.719105943553006 1.4724982107387115 -3
      vertex -3.719105943553006 1.4724982107387117 -2.2909090909090906
      vertex -3.505226720175454 1.9270146964068617 -2.29090909090909
    endloop
  endfacet
  facet normal -0.8443279255020153 0.5358267949789964 -1.6778871012729816e-16
    outer loop
      vertex -3.505226720175454 1.9270146964068615 -3
      vertex -3.505226720175454 1.9270146964068617 -2.29090909090909
      vertex -3.23606797749979 2.3511410091698925 -2.290909090909091
    endloop
  endfacet
  facet normal -0.7705132427757891 0.6374239897486899 0
    outer loop
      vertex -3.23606797749979 2.3511410091698925 -3
      vertex -3.23606797749979 2.3511410091698925 -2.290909090909091
      vertex -2.9158745096856467 2.738188423714754 -2.290909090909091
    endloop
  endfacet
  facet normal -0.6845471059286887 0.7289686274214116 0
    outer loop
      vertex -2.9158745096856467 2.738188423714754 -3
      vertex -2.9158745096856467 2.738188423714754 -2.290909090909091
      vertex -2.549695958994758 3.0820529711031575 -2.2909090909090915
    endloop
  endfacet
  facet normal -0.587785252292473 0.8090169943749473 3.681179449708881e-16
    outer loop
      vertex -2.5496959589947585 3.0820529711031575 -3
      vertex -2.549695958994758 3.0820529711031575 -2.2909090909090915
      vertex -2.143307179915987 3.37731170200806 -2.2909090909090906
    endloop
  endfacet
  facet normal -0.48175367410171516 0.8763066800438638 0
    outer loop
      vertex -2.143307179915987 3.37731170200806 -3
      vertex -2.143307179915987 3.37731170200806 -2.2909090909090906
      vertex -1.7031171662602906 3.619308209864078 -2.2909090909090915
    endloop
  endfacet
  facet normal -0.3681245526846779 0.9297764858882513 1.1527445891087254e-16
    outer loop
      vertex -1.7031171662602909 3.619308209864078 -3
      vertex -1.7031171662602906 3.619308209864078 -2.2909090909090915
      vertex -1.2360679774997896 3.804226065180614 -2.2909090909090906
    endloop
  endfacet
  facet normal -0.2486898871648553 0.968583161128631 0
    outer loop
      vertex -1.2360679774997896 3.804226065180614 -3
      vertex -1.2360679774997896 3.804226065180614 -2.2909090909090906
      vertex -0.7495252583428983 3.929149002914755 -2.29090909090909
    endloop
  endfacet
  facet normal -0.12533323356430387 0.992114701314478 0
    outer loop
      vertex -0.7495252583428983 3.929149002914755 -3
      vertex -0.7495252583428983 3.929149002914755 -2.29090909090909
      vertex -0.2511620781172531 3.9921069137130862 -2.290909090909091
    endloop
  endfacet
  facet normal 0 1 0
    outer loop
      vertex -0.2511620781172531 3.9921069137130862 -3
      vertex -0.2511620781172531 3.9921069137130862 -2.290909090909091
      vertex 0.2511620781172531 3.9921069137130862 -2.290909090909091
    endloop
  endfacet
  facet normal 0 0 -1
    outer loop
      vertex -0.25116207811725505 -3.9921069137130862 -3
      vertex 0.22200933690721653 -3.5287373612285315 -3
      vertex 0.25116207811725505 -3.9921069137130862 -3
    endloop
  endfacet
  facet normal 0 0 -1
    outer loop
      vertex 0.25116207811725505 -3.9921069137130862 -3
      vertex 0.22200933690721653 -3.5287373612285315 -3
      vertex 0.6625267908566699 -3.473087065076435 -3
    endloop
  endfacet
  facet normal 0 0 -1
    outer loop
      vertex 0.25116207811725505 -3.9921069137130862 -3
      vertex 0.6625267908566699 -3.473087065076435 -3
      vertex 0.7495252583428993 -3.9291490029147544 -3
    endloop
  endfacet
  facet normal 0 0 -1
    outer loop
      vertex 0.7495252583428993 -3.9291490029147544 -3
      vertex 0.6625267908566699 -3.473087065076435 -3
      vertex 1.0925958015399926 -3.3626641111864353 -3
    endloop
  endfacet
  facet normal 0 0 -1
    outer loop
      vertex 0.7495252583428993 -3.9291490029147544 -3
      vertex 1.0925958015399926 -3.3626641111864353 -3
      vertex 1.2360679774997896 -3.804226065180614 -3
    endloop
  endfacet
  facet normal 0 0 -1
    outer loop
      vertex 1.2360679774997896 -3.804226065180614 -3
      vertex 1.5054339237479346 -3.1992099355048547 -3
      vertex 1.7031171662602897 -3.6193082098640783 -3
    endloop
  endfacet
  facet normal 0 0 -1
    outer loop
      vertex 1.2360679774997896 -3.804226065180614 -3
      vertex 1.0925958015399926 -3.3626641111864353 -3
      vertex 1.5054339237479346 -3.1992099355048547 -3
    endloop
  endfacet
  facet normal 0 0 -1
    outer loop
      vertex 1.7031171662602897 -3.6193082098640783 -3
      vertex 1.5054339237479346 -3.1992099355048547 -3
      vertex 1.8945304536757368 -2.985302308024983 -3
    endloop
  endfacet
  facet normal 0 0 -1
    outer loop
      vertex 1.7031171662602897 -3.6193082098640783 -3
      vertex 1.8945304536757368 -2.985302308024983 -3
      vertex 2.143307179915985 -3.377311702008061 -3
    endloop
  endfacet
  facet normal 0.12533323356430498 -0.9921147013144778 0
    outer loop
      vertex 0.25116207811725505 -3.9921069137130862 -3
      vertex 0.7495252583428993 -3.9291490029147544 -3
      vertex 0.25116207811725505 -3.9921069137130862 -2.290909090909091
    endloop
  endfacet
  facet normal 0.248689887164855 -0.968583161128631 0
    outer loop
      vertex 0.7495252583428993 -3.9291490029147544 -3
      vertex 1.2360679774997896 -3.804226065180614 -3
      vertex 0.7495252583428993 -3.9291490029147544 -2.290909090909091
    endloop
  endfacet
  facet normal 0.3681245526846778 -0.9297764858882513 0
    outer loop
      vertex 1.2360679774997896 -3.804226065180614 -3
      vertex 1.7031171662602897 -3.6193082098640783 -3
      vertex 1.2360679774997896 -3.804226065180614 -2.2909090909090906
    endloop
  endfacet
  facet normal 0.4817536741017149 -0.8763066800438638 0
    outer loop
      vertex 1.7031171662602897 -3.6193082098640783 -3
      vertex 2.143307179915985 -3.377311702008061 -3
      vertex 1.7031171662602897 -3.6193082098640783 -2.29090909090909
    endloop
  endfacet
  facet normal 0 0 -1
    outer loop
      vertex 2.143307179915985 -3.377311702008061 -3
      vertex 1.8945304536757368 -2.985302308024983 -3
      vertex 2.2537491066114392 -2.7243146798143973 -3
    endloop
  endfacet
  facet normal 0 0 -1
    outer loop
      vertex 2.143307179915985 -3.377311702008061 -3
      vertex 2.2537491066114392 -2.7243146798143973 -3
      vertex 2.54969595899476 -3.082052971103156 -3
    endloop
  endfacet
  facet normal 0 0 -1
    outer loop
      vertex 2.54969595899476 -3.082052971103156 -3
      vertex 2.2537491066114392 -2.7243146798143973 -3
      vertex 2.57742478981142 -2.4203629816764343 -3
    endloop
  endfacet
  facet normal 0 0 -1
    outer loop
      vertex 2.54969595899476 -3.082052971103156 -3
      vertex 2.57742478981142 -2.4203629816764343 -3
      vertex 2.860452944397136 -2.078240713462673 -3
    endloop
  endfacet
  facet normal 0 0 -1
    outer loop
      vertex 2.54969595899476 -3.082052971103156 -3
      vertex 2.860452944397136 -2.078240713462673 -3
      vertex 2.9158745096856467 -2.738188423714754 -3
    endloop
  endfacet
  facet normal 0 0 -1
    outer loop
      vertex 2.9158745096856467 -2.738188423714754 -3
      vertex 2.860452944397136 -2.078240713462673 -3
      vertex 3.0983700472979456 -1.7033433477167794 -3
    endloop
  endfacet
  facet normal 0 0 -1
    outer loop
      vertex 2.9158745096856467 -2.738188423714754 -3
      vertex 3.0983700472979456 -1.7033433477167794 -3
      vertex 3.23606797749979 -2.3511410091698925 -3
    endloop
  endfacet
  facet normal 0.5877852522924727 -0.8090169943749476 0
    outer loop
      vertex 2.143307179915985 -3.377311702008061 -3
      vertex 2.54969595899476 -3.082052971103156 -3
      vertex 2.143307179915985 -3.377311702008061 -2.290909090909091
    endloop
  endfacet
  facet normal 0.684547105928689 -0.7289686274214112 4.2871792527528294e-16
    outer loop
      vertex 2.54969595899476 -3.082052971103156 -3
      vertex 2.9158745096856467 -2.738188423714754 -3
      vertex 2.5496959589947594 -3.082052971103156 -2.2909090909090915
    endloop
  endfacet
  facet normal 0.7705132427757891 -0.6374239897486899 0
    outer loop
      vertex 2.9158745096856467 -2.738188423714754 -3
      vertex 3.23606797749979 -2.3511410091698925 -3
      vertex 2.9158745096856467 -2.738188423714754 -2.290909090909091
    endloop
  endfacet
  facet normal 0.8443279255020153 -0.5358267949789962 0
    outer loop
      vertex 3.23606797749979 -2.3511410091698925 -3
      vertex 3.505226720175454 -1.9270146964068615 -3
      vertex 3.23606797749979 -2.3511410091698925 -2.290909090909091
    endloop
  endfacet
  facet normal 0 0 -1
    outer loop
      vertex 3.23606797749979 -2.3511410091698925 -3
      vertex 3.0983700472979456 -1.7033433477167794 -3
      vertex 3.2874240036763167 -1.3015832398493987 -3
    endloop
  endfacet
  facet normal 0 0 -1
    outer loop
      vertex 3.23606797749979 -2.3511410091698925 -3
      vertex 3.2874240036763167 -1.3015832398493987 -3
      vertex 3.4246333197048036 -0.8792963867614496 -3
    endloop
  endfacet
  facet normal 0 0 -1
    outer loop
      vertex 3.23606797749979 -2.3511410091698925 -3
      vertex 3.4246333197048036 -0.8792963867614496 -3
      vertex 3.505226720175454 -1.9270146964068615 -3
    endloop
  endfacet
  facet normal 0 0 -1
    outer loop
      vertex 3.505226720175454 -1.9270146964068615 -3
      vertex 3.4246333197048036 -0.8792963867614496 -3
      vertex 3.507834122504761 -0.443142504388075 -3
    endloop
  endfacet
  facet normal 0 0 -1
    outer loop
      vertex 3.505226720175454 -1.9270146964068615 -3
      vertex 3.507834122504761 -0.443142504388075 -3
      vertex 3.5357142857142856 0 -3
    endloop
  endfacet
  facet normal 0 0 -1
    outer loop
      vertex 3.505226720175454 -1.9270146964068615 -3
      vertex 3.7191059435530054 1.472498210738712 -3
      vertex 3.719105943553005 -1.4724982107387135 -3
    endloop
  endfacet
  facet normal 0 0 -1
    outer loop
      vertex 3.505226720175454 -1.9270146964068615 -3
      vertex 3.5357142857142856 0 -3
      vertex 3.7191059435530054 1.472498210738712 -3
    endloop
  endfacet
  facet normal 0 0 -1
    outer loop
      vertex 3.719105943553005 -1.4724982107387135 -3
      vertex 3.8743326445145243 0.9947595486594192 -3
      vertex 3.8743326445145247 -0.9947595486594177 -3
    endloop
  endfacet
  facet normal 0 0 -1
    outer loop
      vertex 3.8743326445145247 -0.9947595486594177 -3
      vertex 3.9684588052579115 0.501332934257217 -3
      vertex 3.9684588052579115 -0.5013329342572163 -3
    endloop
  endfacet
  facet normal 0.9048270524660192 -0.4257792915650732 -1.3332845389603708e-16
    outer loop
      vertex 3.505226720175454 -1.9270146964068615 -3
      vertex 3.719105943553005 -1.4724982107387135 -3
      vertex 3.505226720175454 -1.9270146964068617 -2.29090909090909
    endloop
  endfacet
  facet normal 0.9510565162951535 -0.30901699437494734 0
    outer loop
      vertex 3.719105943553005 -1.4724982107387135 -3
      vertex 3.8743326445145247 -0.9947595486594177 -3
      vertex 3.719105943553005 -1.4724982107387135 -2.290909090909091
    endloop
  endfacet
  facet normal 0.9822872507286887 -0.18738131458572468 0
    outer loop
      vertex 3.8743326445145247 -0.9947595486594177 -3
      vertex 3.9684588052579115 -0.5013329342572163 -3
      vertex 3.8743326445145247 -0.9947595486594177 -2.290909090909091
    endloop
  endfacet
  facet normal 0.9980267284282717 -0.06279051952931311 0
    outer loop
      vertex 3.9684588052579115 -0.5013329342572163 -3
      vertex 4 0 -3
      vertex 3.9684588052579115 -0.5013329342572163 -2.290909090909091
    endloop
  endfacet
  facet normal 0 -1 0
    outer loop
      vertex 0.25116207811725505 -3.9921069137130862 -3
      vertex 0.25116207811725505 -3.9921069137130862 -2.290909090909091
      vertex -0.25116207811725505 -3.9921069137130862 -2.290909090909091
    endloop
  endfacet
  facet normal 0.12533323356430498 -0.9921147013144778 0
    outer loop
      vertex 0.7495252583428993 -3.9291490029147544 -3
      vertex 0.7495252583428993 -3.9291490029147544 -2.290909090909091
      vertex 0.25116207811725505 -3.9921069137130862 -2.290909090909091
    endloop
  endfacet
  facet normal 0.248689887164855 -0.9685831611286311 0
    outer loop
      vertex 1.2360679774997896 -3.804226065180614 -3
      vertex 1.2360679774997896 -3.804226065180614 -2.2909090909090906
      vertex 0.7495252583428993 -3.9291490029147544 -2.290909090909091
    endloop
  endfacet
  facet normal 0.3681245526846778 -0.9297764858882515 0
    outer loop
      vertex 1.7031171662602897 -3.6193082098640783 -3
      vertex 1.7031171662602897 -3.6193082098640783 -2.29090909090909
      vertex 1.2360679774997896 -3.804226065180614 -2.2909090909090906
    endloop
  endfacet
  facet normal 0.4817536741017149 -0.8763066800438638 0
    outer loop
      vertex 2.143307179915985 -3.377311702008061 -3
      vertex 2.143307179915985 -3.377311702008061 -2.290909090909091
      vertex 1.7031171662602897 -3.6193082098640783 -2.29090909090909
    endloop
  endfacet
  facet normal 0.5877852522924732 -0.8090169943749473 3.681179449708882e-16
    outer loop
      vertex 2.54969595899476 -3.082052971103156 -3
      vertex 2.5496959589947594 -3.082052971103156 -2.2909090909090915
      vertex 2.143307179915985 -3.377311702008061 -2.290909090909091
    endloop
  endfacet
  facet normal 0.6845471059286886 -0.7289686274214117 0
    outer loop
      vertex 2.9158745096856467 -2.738188423714754 -3
      vertex 2.9158745096856467 -2.738188423714754 -2.290909090909091
      vertex 2.5496959589947594 -3.082052971103156 -2.2909090909090915
    endloop
  endfacet
  facet normal 0.7705132427757891 -0.6374239897486899 0
    outer loop
      vertex 3.23606797749979 -2.3511410091698925 -3
      vertex 3.23606797749979 -2.3511410091698925 -2.290909090909091
      vertex 2.9158745096856467 -2.738188423714754 -2.290909090909091
    endloop
  endfacet
  facet normal 0.8443279255020153 -0.5358267949789964 -1.6778871012729816e-16
    outer loop
      vertex 3.505226720175454 -1.9270146964068615 -3
      vertex 3.505226720175454 -1.9270146964068617 -2.29090909090909
      vertex 3.23606797749979 -2.3511410091698925 -2.290909090909091
    endloop
  endfacet
  facet normal 0.9048270524660194 -0.42577929156507305 0
    outer loop
      vertex 3.719105943553005 -1.4724982107387135 -3
      vertex 3.719105943553005 -1.4724982107387135 -2.290909090909091
      vertex 3.505226720175454 -1.9270146964068617 -2.29090909090909
    endloop
  endfacet
  facet normal 0.9510565162951535 -0.30901699437494734 0
    outer loop
      vertex 3.8743326445145247 -0.9947595486594177 -3
      vertex 3.8743326445145247 -0.9947595486594177 -2.290909090909091
      vertex 3.719105943553005 -1.4724982107387135 -2.290909090909091
    endloop
  endfacet
  facet normal 0.9822872507286887 -0.18738131458572468 0
    outer loop
      vertex 3.9684588052579115 -0.5013329342572163 -3
      vertex 3.9684588052579115 -0.5013329342572163 -2.290909090909091
      vertex 3.8743326445145247 -0.9947595486594177 -2.290909090909091
    endloop
  endfacet
  facet normal 0.9980267284282717 -0.06279051952931311 0
    outer loop
      vertex 4 0 -3
      vertex 4 0 -2.290909090909091
      vertex 3.9684588052579115 -0.5013329342572163 -2.290909090909091
    endloop
  endfacet
  facet normal 0 0 -1
    outer loop
      vertex 0.2511620781172531 3.9921069137130862 -3
      vertex 0.2220093369072147 3.528737361228532 -3
      vertex -0.2220093369072148 3.5287373612285315 -3
    endloop
  endfacet
  facet normal 0 0 -1
    outer loop
      vertex 0.2511620781172531 3.9921069137130862 -3
      vertex 0.7495252583428983 3.929149002914755 -3
      vertex 0.2220093369072147 3.528737361228532 -3
    endloop
  endfacet
  facet normal 0 0 -1
    outer loop
      vertex 0.7495252583428983 3.929149002914755 -3
      vertex 0.6625267908566691 3.473087065076435 -3
      vertex 0.2220093369072147 3.528737361228532 -3
    endloop
  endfacet
  facet normal 0 0 -1
    outer loop
      vertex 1.2360679774997896 3.804226065180614 -3
      vertex 1.0925958015399926 3.3626641111864353 -3
      vertex 0.6625267908566691 3.473087065076435 -3
    endloop
  endfacet
  facet normal 0 0 -1
    outer loop
      vertex 0.7495252583428983 3.929149002914755 -3
      vertex 1.2360679774997896 3.804226065180614 -3
      vertex 0.6625267908566691 3.473087065076435 -3
    endloop
  endfacet
  facet normal 0 0 -1
    outer loop
      vertex 1.7031171662602909 3.619308209864078 -3
      vertex 1.5054339237479357 3.1992099355048547 -3
      vertex 1.0925958015399926 3.3626641111864353 -3
    endloop
  endfacet
  facet normal 0 0 -1
    outer loop
      vertex 1.2360679774997896 3.804226065180614 -3
      vertex 1.7031171662602909 3.619308209864078 -3
      vertex 1.0925958015399926 3.3626641111864353 -3
    endloop
  endfacet
  facet normal 0 0 -1
    outer loop
      vertex 2.1433071799159866 3.3773117020080603 -3
      vertex 1.8945304536757381 2.985302308024982 -3
      vertex 1.5054339237479357 3.1992099355048547 -3
    endloop
  endfacet
  facet normal 0 0 -1
    outer loop
      vertex 1.7031171662602909 3.619308209864078 -3
      vertex 2.1433071799159866 3.3773117020080603 -3
      vertex 1.5054339237479357 3.1992099355048547 -3
    endloop
  endfacet
  facet normal 0 1 0
    outer loop
      vertex -0.2511620781172531 3.9921069137130862 -3
      vertex 0.2511620781172531 3.9921069137130862 -2.290909090909091
      vertex 0.2511620781172531 3.9921069137130862 -3
    endloop
  endfacet
  facet normal 0.12533323356430387 0.9921147013144778 -1.9480686896343347e-17
    outer loop
      vertex 0.2511620781172531 3.9921069137130862 -3
      vertex 0.7495252583428984 3.929149002914755 -2.2909090909090906
      vertex 0.7495252583428983 3.929149002914755 -3
    endloop
  endfacet
  facet normal 0.2486898871648553 0.968583161128631 -7.792274758537338e-17
    outer loop
      vertex 0.7495252583428983 3.929149002914755 -3
      vertex 1.2360679774997898 3.804226065180614 -2.2909090909090906
      vertex 1.2360679774997896 3.804226065180614 -3
    endloop
  endfacet
  facet normal 0.48175367410171505 0.8763066800438637 0
    outer loop
      vertex 1.7031171662602909 3.619308209864078 -3
      vertex 2.1433071799159866 3.3773117020080603 -2.2909090909090906
      vertex 2.1433071799159866 3.3773117020080603 -3
    endloop
  endfacet
  facet normal 0.3681245526846778 0.9297764858882515 0
    outer loop
      vertex 1.2360679774997896 3.804226065180614 -3
      vertex 1.7031171662602909 3.619308209864078 -2.2909090909090915
      vertex 1.7031171662602909 3.619308209864078 -3
    endloop
  endfacet
  facet normal 0 0 -1
    outer loop
      vertex 3.9684588052579115 -0.5013329342572163 -3
      vertex 3.9684588052579115 0.501332934257217 -3
      vertex 4 0 -3
    endloop
  endfacet
  facet normal 0 0 -1
    outer loop
      vertex 3.8743326445145247 -0.9947595486594177 -3
      vertex 3.8743326445145243 0.9947595486594192 -3
      vertex 3.9684588052579115 0.501332934257217 -3
    endloop
  endfacet
  facet normal 0 0 -1
    outer loop
      vertex 3.719105943553005 -1.4724982107387135 -3
      vertex 3.7191059435530054 1.472498210738712 -3
      vertex 3.8743326445145243 0.9947595486594192 -3
    endloop
  endfacet
  facet normal 0 0 -1
    outer loop
      vertex 3.7191059435530054 1.472498210738712 -3
      vertex 3.5357142857142856 0 -3
      vertex 3.5078341225047613 0.4431425043880758 -3
    endloop
  endfacet
  facet normal 0 0 -1
    outer loop
      vertex 3.7191059435530054 1.472498210738712 -3
      vertex 3.5078341225047613 0.4431425043880758 -3
      vertex 3.4246333197048027 0.8792963867614508 -3
    endloop
  endfacet
  facet normal 0 0 -1
    outer loop
      vertex 3.5052267201754543 1.9270146964068613 -3
      vertex 3.4246333197048027 0.8792963867614508 -3
      vertex 3.287424003676317 1.301583239849397 -3
    endloop
  endfacet
  facet normal 0 0 -1
    outer loop
      vertex 3.5052267201754543 1.9270146964068613 -3
      vertex 3.287424003676317 1.301583239849397 -3
      vertex 3.098370047297946 1.7033433477167792 -3
    endloop
  endfacet
  facet normal 0 0 -1
    outer loop
      vertex 3.5052267201754543 1.9270146964068613 -3
      vertex 3.098370047297946 1.7033433477167792 -3
      vertex 3.23606797749979 2.3511410091698925 -3
    endloop
  endfacet
  facet normal 0 0 -1
    outer loop
      vertex 3.7191059435530054 1.472498210738712 -3
      vertex 3.4246333197048027 0.8792963867614508 -3
      vertex 3.5052267201754543 1.9270146964068613 -3
    endloop
  endfacet
  facet normal 0.9980267284282714 0.062790519529313 0
    outer loop
      vertex 4 0 -3
      vertex 3.9684588052579115 0.501332934257217 -3
      vertex 4 0 -2.290909090909091
    endloop
  endfacet
  facet normal 0.9822872507286886 0.18738131458572532 0
    outer loop
      vertex 3.9684588052579115 0.501332934257217 -3
      vertex 3.8743326445145243 0.9947595486594192 -3
      vertex 3.9684588052579115 0.501332934257217 -2.290909090909091
    endloop
  endfacet
  facet normal 0.9510565162951535 0.30901699437494745 0
    outer loop
      vertex 3.8743326445145243 0.9947595486594192 -3
      vertex 3.7191059435530054 1.472498210738712 -3
      vertex 3.8743326445145243 0.9947595486594192 -2.290909090909091
    endloop
  endfacet
  facet normal 0.9048270524660197 0.4257792915650722 1.333284538960369e-16
    outer loop
      vertex 3.7191059435530054 1.472498210738712 -3
      vertex 3.5052267201754543 1.9270146964068613 -3
      vertex 3.7191059435530054 1.4724982107387117 -2.290909090909091
    endloop
  endfacet
  facet normal 0 0 -1
    outer loop
      vertex 2.549695958994759 3.0820529711031566 -3
      vertex 2.253749106611439 2.724314679814397 -3
      vertex 1.8945304536757381 2.985302308024982 -3
    endloop
  endfacet
  facet normal 0 0 -1
    outer loop
      vertex 2.915874509685646 2.738188423714755 -3
      vertex 2.8604529443971356 2.078240713462673 -3
      vertex 2.5774247898114195 2.420362981676435 -3
    endloop
  endfacet
  facet normal 0 0 -1
    outer loop
      vertex 2.915874509685646 2.738188423714755 -3
      vertex 2.5774247898114195 2.420362981676435 -3
      vertex 2.253749106611439 2.724314679814397 -3
    endloop
  endfacet
  facet normal 0 0 -1
    outer loop
      vertex 2.915874509685646 2.738188423714755 -3
      vertex 2.253749106611439 2.724314679814397 -3
      vertex 2.549695958994759 3.0820529711031566 -3
    endloop
  endfacet
  facet normal 0 0 -1
    outer loop
      vertex 2.1433071799159866 3.3773117020080603 -3
      vertex 2.549695958994759 3.0820529711031566 -3
      vertex 1.8945304536757381 2.985302308024982 -3
    endloop
  endfacet
  facet normal 0 0 -1
    outer loop
      vertex 3.23606797749979 2.3511410091698925 -3
      vertex 3.098370047297946 1.7033433477167792 -3
      vertex 2.8604529443971356 2.078240713462673 -3
    endloop
  endfacet
  facet normal 0 0 -1
    outer loop
      vertex 2.915874509685646 2.738188423714755 -3
      vertex 3.23606797749979 2.3511410091698925 -3
      vertex 2.8604529443971356 2.078240713462673 -3
    endloop
  endfacet
  facet normal 0.6845471059286882 0.7289686274214121 0
    outer loop
      vertex 2.915874509685646 2.738188423714755 -3
      vertex 2.549695958994759 3.0820529711031566 -3
      vertex 2.915874509685646 2.738188423714755 -2.290909090909091
    endloop
  endfacet
  facet normal 0.5877852522924736 0.8090169943749472 0
    outer loop
      vertex 2.1433071799159866 3.3773117020080603 -3
      vertex 2.549695958994759 3.0820529711031566 -2.2909090909090906
      vertex 2.549695958994759 3.0820529711031566 -3
    endloop
  endfacet
  facet normal 0.7705132427757895 0.6374239897486895 4.2857511171955387e-16
    outer loop
      vertex 2.915874509685646 2.738188423714755 -3
      vertex 3.23606797749979 2.351141009169892 -2.290909090909091
      vertex 3.23606797749979 2.3511410091698925 -3
    endloop
  endfacet
  facet normal 0.8443279255020151 0.5358267949789967 0
    outer loop
      vertex 3.5052267201754543 1.9270146964068613 -3
      vertex 3.23606797749979 2.3511410091698925 -3
      vertex 3.5052267201754543 1.9270146964068613 -2.290909090909091
    endloop
  endfacet
  facet normal 0.12533323356430381 0.9921147013144778 0
    outer loop
      vertex 0.2511620781172531 3.9921069137130862 -3
      vertex 0.2511620781172531 3.9921069137130862 -2.290909090909091
      vertex 0.7495252583428984 3.929149002914755 -2.2909090909090906
    endloop
  endfacet
  facet normal 0.24868988716485527 0.9685831611286311 -3.8937354178723055e-17
    outer loop
      vertex 0.7495252583428983 3.929149002914755 -3
      vertex 0.7495252583428984 3.929149002914755 -2.2909090909090906
      vertex 1.2360679774997898 3.804226065180614 -2.2909090909090906
    endloop
  endfacet
  facet normal 0.368124552684678 0.9297764858882513 -1.1527445891087241e-16
    outer loop
      vertex 1.2360679774997896 3.804226065180614 -3
      vertex 1.2360679774997898 3.804226065180614 -2.2909090909090906
      vertex 1.7031171662602909 3.619308209864078 -2.2909090909090915
    endloop
  endfacet
  facet normal 0.48175367410171505 0.8763066800438637 0
    outer loop
      vertex 1.7031171662602909 3.619308209864078 -3
      vertex 1.7031171662602909 3.619308209864078 -2.2909090909090915
      vertex 2.1433071799159866 3.3773117020080603 -2.2909090909090906
    endloop
  endfacet
  facet normal 0.9980267284282714 0.062790519529313 0
    outer loop
      vertex 3.9684588052579115 0.501332934257217 -3
      vertex 3.9684588052579115 0.501332934257217 -2.290909090909091
      vertex 4 0 -2.290909090909091
    endloop
  endfacet
  facet normal 0.9822872507286886 0.18738131458572532 0
    outer loop
      vertex 3.8743326445145243 0.9947595486594192 -3
      vertex 3.8743326445145243 0.9947595486594192 -2.290909090909091
      vertex 3.9684588052579115 0.501332934257217 -2.290909090909091
    endloop
  endfacet
  facet normal 0.9510565162951535 0.3090169943749476 9.676552830027752e-17
    outer loop
      vertex 3.7191059435530054 1.472498210738712 -3
      vertex 3.7191059435530054 1.4724982107387117 -2.290909090909091
      vertex 3.8743326445145243 0.9947595486594192 -2.290909090909091
    endloop
  endfacet
  facet normal 0.9048270524660197 0.425779291565072 0
    outer loop
      vertex 3.5052267201754543 1.9270146964068613 -3
      vertex 3.5052267201754543 1.9270146964068613 -2.290909090909091
      vertex 3.7191059435530054 1.4724982107387117 -2.290909090909091
    endloop
  endfacet
  facet normal 0.6845471059286882 0.728968627421412 0
    outer loop
      vertex 2.549695958994759 3.0820529711031566 -3
      vertex 2.549695958994759 3.0820529711031566 -2.2909090909090906
      vertex 2.915874509685646 2.738188423714755 -2.290909090909091
    endloop
  endfacet
  facet normal 0.5877852522924736 0.8090169943749472 0
    outer loop
      vertex 2.1433071799159866 3.3773117020080603 -3
      vertex 2.1433071799159866 3.3773117020080603 -2.2909090909090906
      vertex 2.549695958994759 3.0820529711031566 -2.2909090909090906
    endloop
  endfacet
  facet normal 0.8443279255020149 0.535826794978997 3.355774202545971e-16
    outer loop
      vertex 3.23606797749979 2.3511410091698925 -3
      vertex 3.23606797749979 2.351141009169892 -2.290909090909091
      vertex 3.5052267201754543 1.9270146964068613 -2.290909090909091
    endloop
  endfacet
  facet normal 0.7705132427757897 0.6374239897486891 0
    outer loop
      vertex 2.915874509685646 2.738188423714755 -3
      vertex 2.915874509685646 2.738188423714755 -2.290909090909091
      vertex 3.23606797749979 2.351141009169892 -2.290909090909091
    endloop
  endfacet
endsolid OpenSCAD_Model
