solid OpenSCAD_Model
  facet normal 0.998026 0.0628013 0
    outer loop
      vertex 30 0 3
      vertex 29.7634 3.76 -3.9
      vertex 29.7634 3.76 3
    endloop
  endfacet
  facet normal 0.998026 0.0628013 0
    outer loop
      vertex 29.7634 3.76 -3.9
      vertex 30 0 3
      vertex 30 0 -3.9
    endloop
  endfacet
  facet normal -0.998026 0.0628013 0
    outer loop
      vertex -30 0 -3.9
      vertex -29.7634 3.76 3
      vertex -29.7634 3.76 -3.9
    endloop
  endfacet
  facet normal -0.998026 0.0628013 0
    outer loop
      vertex -29.7634 3.76 3
      vertex -30 0 -3.9
      vertex -30 0 3
    endloop
  endfacet
  facet normal 0 1 -0
    outer loop
      vertex 1.88371 29.9408 -3.9
      vertex -1.88371 29.9408 3
      vertex 1.88371 29.9408 3
    endloop
  endfacet
  facet normal 0 1 0
    outer loop
      vertex -1.88371 29.9408 3
      vertex 1.88371 29.9408 -3.9
      vertex -1.88371 29.9408 -3.9
    endloop
  endfacet
  facet normal 0 -1 0
    outer loop
      vertex -1.88371 -29.9408 -3.9
      vertex 1.88371 -29.9408 3
      vertex -1.88371 -29.9408 3
    endloop
  endfacet
  facet normal 0 -1 -0
    outer loop
      vertex 1.88371 -29.9408 3
      vertex -1.88371 -29.9408 -3.9
      vertex 1.88371 -29.9408 -3.9
    endloop
  endfacet
  facet normal 0.684541 0.728974 -0
    outer loop
      vertex 21.8691 20.5364 -3.9
      vertex 19.1227 23.1154 3
      vertex 21.8691 20.5364 3
    endloop
  endfacet
  facet normal 0.684541 0.728974 0
    outer loop
      vertex 19.1227 23.1154 3
      vertex 21.8691 20.5364 -3.9
      vertex 19.1227 23.1154 -3.9
    endloop
  endfacet
  facet normal -0.684541 0.728974 0
    outer loop
      vertex -19.1227 23.1154 -3.9
      vertex -21.8691 20.5364 3
      vertex -19.1227 23.1154 3
    endloop
  endfacet
  facet normal -0.684541 0.728974 0
    outer loop
      vertex -21.8691 20.5364 3
      vertex -19.1227 23.1154 -3.9
      vertex -21.8691 20.5364 -3.9
    endloop
  endfacet
  facet normal -0.368126 0.929776 0
    outer loop
      vertex -9.27051 28.5317 -3.9
      vertex -12.7734 27.1448 3
      vertex -9.27051 28.5317 3
    endloop
  endfacet
  facet normal -0.368126 0.929776 0
    outer loop
      vertex -12.7734 27.1448 3
      vertex -9.27051 28.5317 -3.9
      vertex -12.7734 27.1448 -3.9
    endloop
  endfacet
  facet normal 0.904828 0.425778 0
    outer loop
      vertex 27.8933 11.0437 3
      vertex 26.2892 14.4526 -3.9
      vertex 26.2892 14.4526 3
    endloop
  endfacet
  facet normal 0.904828 0.425778 0
    outer loop
      vertex 26.2892 14.4526 -3.9
      vertex 27.8933 11.0437 3
      vertex 27.8933 11.0437 -3.9
    endloop
  endfacet
  facet normal 0.844331 0.535822 0
    outer loop
      vertex 26.2892 14.4526 3
      vertex 24.2705 17.6336 -3.9
      vertex 24.2705 17.6336 3
    endloop
  endfacet
  facet normal 0.844331 0.535822 0
    outer loop
      vertex 24.2705 17.6336 -3.9
      vertex 26.2892 14.4526 3
      vertex 26.2892 14.4526 -3.9
    endloop
  endfacet
  facet normal 0.368126 0.929776 -0
    outer loop
      vertex 12.7734 27.1448 -3.9
      vertex 9.27051 28.5317 3
      vertex 12.7734 27.1448 3
    endloop
  endfacet
  facet normal 0.368126 0.929776 0
    outer loop
      vertex 9.27051 28.5317 3
      vertex 12.7734 27.1448 -3.9
      vertex 9.27051 28.5317 -3.9
    endloop
  endfacet
  facet normal 0.248684 0.968585 -0
    outer loop
      vertex 9.27051 28.5317 -3.9
      vertex 5.62144 29.4686 3
      vertex 9.27051 28.5317 3
    endloop
  endfacet
  facet normal 0.248684 0.968585 0
    outer loop
      vertex 5.62144 29.4686 3
      vertex 9.27051 28.5317 -3.9
      vertex 5.62144 29.4686 -3.9
    endloop
  endfacet
  facet normal 0.58778 0.809021 -0
    outer loop
      vertex 19.1227 23.1154 -3.9
      vertex 16.0748 25.3298 3
      vertex 19.1227 23.1154 3
    endloop
  endfacet
  facet normal 0.58778 0.809021 0
    outer loop
      vertex 16.0748 25.3298 3
      vertex 19.1227 23.1154 -3.9
      vertex 16.0748 25.3298 -3.9
    endloop
  endfacet
  facet normal -0.904828 0.425778 0
    outer loop
      vertex -27.8933 11.0437 -3.9
      vertex -26.2892 14.4526 3
      vertex -26.2892 14.4526 -3.9
    endloop
  endfacet
  facet normal -0.904828 0.425778 0
    outer loop
      vertex -26.2892 14.4526 3
      vertex -27.8933 11.0437 -3.9
      vertex -27.8933 11.0437 3
    endloop
  endfacet
  facet normal -0.770514 0.637423 0
    outer loop
      vertex -24.2705 17.6336 -3.9
      vertex -21.8691 20.5364 3
      vertex -21.8691 20.5364 -3.9
    endloop
  endfacet
  facet normal -0.770514 0.637423 0
    outer loop
      vertex -21.8691 20.5364 3
      vertex -24.2705 17.6336 -3.9
      vertex -24.2705 17.6336 3
    endloop
  endfacet
  facet normal -0.951056 0.30902 0
    outer loop
      vertex -29.0575 7.4607 -3.9
      vertex -27.8933 11.0437 3
      vertex -27.8933 11.0437 -3.9
    endloop
  endfacet
  facet normal -0.951056 0.30902 0
    outer loop
      vertex -27.8933 11.0437 3
      vertex -29.0575 7.4607 -3.9
      vertex -29.0575 7.4607 3
    endloop
  endfacet
  facet normal -0.481762 0.876302 0
    outer loop
      vertex -12.7734 27.1448 -3.9
      vertex -16.0748 25.3298 3
      vertex -12.7734 27.1448 3
    endloop
  endfacet
  facet normal -0.481762 0.876302 0
    outer loop
      vertex -16.0748 25.3298 3
      vertex -12.7734 27.1448 -3.9
      vertex -16.0748 25.3298 -3.9
    endloop
  endfacet
  facet normal -0.248684 0.968585 0
    outer loop
      vertex -5.62144 29.4686 -3.9
      vertex -9.27051 28.5317 3
      vertex -5.62144 29.4686 3
    endloop
  endfacet
  facet normal -0.248684 0.968585 0
    outer loop
      vertex -9.27051 28.5317 3
      vertex -5.62144 29.4686 -3.9
      vertex -9.27051 28.5317 -3.9
    endloop
  endfacet
  facet normal 0.125337 -0.992114 0
    outer loop
      vertex 1.88371 -29.9408 -3.9
      vertex 5.62144 -29.4686 3
      vertex 1.88371 -29.9408 3
    endloop
  endfacet
  facet normal 0.125337 -0.992114 0
    outer loop
      vertex 5.62144 -29.4686 3
      vertex 1.88371 -29.9408 -3.9
      vertex 5.62144 -29.4686 -3.9
    endloop
  endfacet
  facet normal 0.368126 -0.929776 0
    outer loop
      vertex 9.27051 -28.5317 -3.9
      vertex 12.7734 -27.1448 3
      vertex 9.27051 -28.5317 3
    endloop
  endfacet
  facet normal 0.368126 -0.929776 0
    outer loop
      vertex 12.7734 -27.1448 3
      vertex 9.27051 -28.5317 -3.9
      vertex 12.7734 -27.1448 -3.9
    endloop
  endfacet
  facet normal 0.951056 0.30902 0
    outer loop
      vertex 29.0575 7.4607 3
      vertex 27.8933 11.0437 -3.9
      vertex 27.8933 11.0437 3
    endloop
  endfacet
  facet normal 0.951056 0.30902 0
    outer loop
      vertex 27.8933 11.0437 -3.9
      vertex 29.0575 7.4607 3
      vertex 29.0575 7.4607 -3.9
    endloop
  endfacet
  facet normal 0.98229 0.187369 0
    outer loop
      vertex 29.7634 3.76 3
      vertex 29.0575 7.4607 -3.9
      vertex 29.0575 7.4607 3
    endloop
  endfacet
  facet normal 0.98229 0.187369 0
    outer loop
      vertex 29.0575 7.4607 -3.9
      vertex 29.7634 3.76 3
      vertex 29.7634 3.76 -3.9
    endloop
  endfacet
  facet normal 0.770514 0.637423 0
    outer loop
      vertex 24.2705 17.6336 3
      vertex 21.8691 20.5364 -3.9
      vertex 21.8691 20.5364 3
    endloop
  endfacet
  facet normal 0.770514 0.637423 0
    outer loop
      vertex 21.8691 20.5364 -3.9
      vertex 24.2705 17.6336 3
      vertex 24.2705 17.6336 -3.9
    endloop
  endfacet
  facet normal 0.125337 0.992114 -0
    outer loop
      vertex 5.62144 29.4686 -3.9
      vertex 1.88371 29.9408 3
      vertex 5.62144 29.4686 3
    endloop
  endfacet
  facet normal 0.125337 0.992114 0
    outer loop
      vertex 1.88371 29.9408 3
      vertex 5.62144 29.4686 -3.9
      vertex 1.88371 29.9408 -3.9
    endloop
  endfacet
  facet normal 0.481762 0.876302 -0
    outer loop
      vertex 16.0748 25.3298 -3.9
      vertex 12.7734 27.1448 3
      vertex 16.0748 25.3298 3
    endloop
  endfacet
  facet normal 0.481762 0.876302 0
    outer loop
      vertex 12.7734 27.1448 3
      vertex 16.0748 25.3298 -3.9
      vertex 12.7734 27.1448 -3.9
    endloop
  endfacet
  facet normal -0.844331 0.535822 0
    outer loop
      vertex -26.2892 14.4526 -3.9
      vertex -24.2705 17.6336 3
      vertex -24.2705 17.6336 -3.9
    endloop
  endfacet
  facet normal -0.844331 0.535822 0
    outer loop
      vertex -24.2705 17.6336 3
      vertex -26.2892 14.4526 -3.9
      vertex -26.2892 14.4526 3
    endloop
  endfacet
  facet normal -0.98229 0.187369 0
    outer loop
      vertex -29.7634 3.76 -3.9
      vertex -29.0575 7.4607 3
      vertex -29.0575 7.4607 -3.9
    endloop
  endfacet
  facet normal -0.98229 0.187369 0
    outer loop
      vertex -29.0575 7.4607 3
      vertex -29.7634 3.76 -3.9
      vertex -29.7634 3.76 3
    endloop
  endfacet
  facet normal 0 0 1
    outer loop
      vertex 5 0 3
      vertex 30 0 3
      vertex 29.7634 3.76 3
    endloop
  endfacet
  facet normal 0 0 1
    outer loop
      vertex 4.96057 0.626666 3
      vertex 29.7634 3.76 3
      vertex 29.0575 7.4607 3
    endloop
  endfacet
  facet normal 0 0 1
    outer loop
      vertex 30 0 3
      vertex 5 0 3
      vertex 29.7634 -3.76 3
    endloop
  endfacet
  facet normal 0 0 1
    outer loop
      vertex 4.84292 1.24345 3
      vertex 29.0575 7.4607 3
      vertex 27.8933 11.0437 3
    endloop
  endfacet
  facet normal -0 0 1
    outer loop
      vertex 4.96057 -0.626666 3
      vertex 29.7634 -3.76 3
      vertex 5 0 3
    endloop
  endfacet
  facet normal 0 0 1
    outer loop
      vertex 4.64888 1.84062 3
      vertex 27.8933 11.0437 3
      vertex 26.2892 14.4526 3
    endloop
  endfacet
  facet normal 0 0 1
    outer loop
      vertex 29.7634 -3.76 3
      vertex 4.96057 -0.626666 3
      vertex 29.0575 -7.4607 3
    endloop
  endfacet
  facet normal 0 0 1
    outer loop
      vertex 4.38153 2.40877 3
      vertex 26.2892 14.4526 3
      vertex 24.2705 17.6336 3
    endloop
  endfacet
  facet normal -0 0 1
    outer loop
      vertex 4.84292 -1.24345 3
      vertex 29.0575 -7.4607 3
      vertex 4.96057 -0.626666 3
    endloop
  endfacet
  facet normal 0 0 1
    outer loop
      vertex 4.04508 2.93893 3
      vertex 24.2705 17.6336 3
      vertex 21.8691 20.5364 3
    endloop
  endfacet
  facet normal 0 0 1
    outer loop
      vertex 29.0575 -7.4607 3
      vertex 4.84292 -1.24345 3
      vertex 27.8933 -11.0437 3
    endloop
  endfacet
  facet normal 0 0 1
    outer loop
      vertex 3.64484 3.42274 3
      vertex 21.8691 20.5364 3
      vertex 19.1227 23.1154 3
    endloop
  endfacet
  facet normal -0 0 1
    outer loop
      vertex 4.64888 -1.84062 3
      vertex 27.8933 -11.0437 3
      vertex 4.84292 -1.24345 3
    endloop
  endfacet
  facet normal 0 0 1
    outer loop
      vertex 3.18712 3.85257 3
      vertex 19.1227 23.1154 3
      vertex 16.0748 25.3298 3
    endloop
  endfacet
  facet normal 0 0 1
    outer loop
      vertex 27.8933 -11.0437 3
      vertex 4.64888 -1.84062 3
      vertex 26.2892 -14.4526 3
    endloop
  endfacet
  facet normal 0 0 1
    outer loop
      vertex 2.67913 4.22164 3
      vertex 16.0748 25.3298 3
      vertex 12.7734 27.1448 3
    endloop
  endfacet
  facet normal -0 0 1
    outer loop
      vertex 4.38153 -2.40877 3
      vertex 26.2892 -14.4526 3
      vertex 4.64888 -1.84062 3
    endloop
  endfacet
  facet normal 0 0 1
    outer loop
      vertex 2.1289 4.52413 3
      vertex 12.7734 27.1448 3
      vertex 9.27051 28.5317 3
    endloop
  endfacet
  facet normal 0 0 1
    outer loop
      vertex 26.2892 -14.4526 3
      vertex 4.38153 -2.40877 3
      vertex 24.2705 -17.6336 3
    endloop
  endfacet
  facet normal 0 0 1
    outer loop
      vertex 1.54508 4.75528 3
      vertex 9.27051 28.5317 3
      vertex 5.62144 29.4686 3
    endloop
  endfacet
  facet normal -0 0 1
    outer loop
      vertex 4.04508 -2.93893 3
      vertex 24.2705 -17.6336 3
      vertex 4.38153 -2.40877 3
    endloop
  endfacet
  facet normal 0 0 1
    outer loop
      vertex 24.2705 -17.6336 3
      vertex 4.04508 -2.93893 3
      vertex 21.8691 -20.5364 3
    endloop
  endfacet
  facet normal 0 0 1
    outer loop
      vertex 29.7634 3.76 3
      vertex 4.96057 0.626666 3
      vertex 5 0 3
    endloop
  endfacet
  facet normal 0 0 1
    outer loop
      vertex 29.0575 7.4607 3
      vertex 4.84292 1.24345 3
      vertex 4.96057 0.626666 3
    endloop
  endfacet
  facet normal 0 0 1
    outer loop
      vertex 27.8933 11.0437 3
      vertex 4.64888 1.84062 3
      vertex 4.84292 1.24345 3
    endloop
  endfacet
  facet normal 0 0 1
    outer loop
      vertex 26.2892 14.4526 3
      vertex 4.38153 2.40877 3
      vertex 4.64888 1.84062 3
    endloop
  endfacet
  facet normal 0 0 1
    outer loop
      vertex 24.2705 17.6336 3
      vertex 4.04508 2.93893 3
      vertex 4.38153 2.40877 3
    endloop
  endfacet
  facet normal 0 0 1
    outer loop
      vertex 21.8691 20.5364 3
      vertex 3.64484 3.42274 3
      vertex 4.04508 2.93893 3
    endloop
  endfacet
  facet normal 0 0 1
    outer loop
      vertex 19.1227 23.1154 3
      vertex 3.18712 3.85257 3
      vertex 3.64484 3.42274 3
    endloop
  endfacet
  facet normal 0 0 1
    outer loop
      vertex 16.0748 25.3298 3
      vertex 2.67913 4.22164 3
      vertex 3.18712 3.85257 3
    endloop
  endfacet
  facet normal 0 0 1
    outer loop
      vertex 12.7734 27.1448 3
      vertex 2.1289 4.52413 3
      vertex 2.67913 4.22164 3
    endloop
  endfacet
  facet normal 0 0 1
    outer loop
      vertex 0.936906 4.91144 3
      vertex 5.62144 29.4686 3
      vertex 1.88371 29.9408 3
    endloop
  endfacet
  facet normal 0 0 1
    outer loop
      vertex 9.27051 28.5317 3
      vertex 1.54508 4.75528 3
      vertex 2.1289 4.52413 3
    endloop
  endfacet
  facet normal 0 0 1
    outer loop
      vertex 5.62144 29.4686 3
      vertex 0.936906 4.91144 3
      vertex 1.54508 4.75528 3
    endloop
  endfacet
  facet normal 0 0 1
    outer loop
      vertex 1.88371 29.9408 3
      vertex 0.313952 4.99013 3
      vertex 0.936906 4.91144 3
    endloop
  endfacet
  facet normal 0 0 1
    outer loop
      vertex 1.88371 29.9408 3
      vertex -0.313952 4.99013 3
      vertex 0.313952 4.99013 3
    endloop
  endfacet
  facet normal -0 0 1
    outer loop
      vertex -1.88371 29.9408 3
      vertex -0.313952 4.99013 3
      vertex 1.88371 29.9408 3
    endloop
  endfacet
  facet normal 0 0 1
    outer loop
      vertex -0.313952 4.99013 3
      vertex -1.88371 29.9408 3
      vertex -0.936906 4.91144 3
    endloop
  endfacet
  facet normal -0 0 1
    outer loop
      vertex -5.62144 29.4686 3
      vertex -0.936906 4.91144 3
      vertex -1.88371 29.9408 3
    endloop
  endfacet
  facet normal 0 0 1
    outer loop
      vertex -0.936906 4.91144 3
      vertex -5.62144 29.4686 3
      vertex -1.54508 4.75528 3
    endloop
  endfacet
  facet normal -0 0 1
    outer loop
      vertex -9.27051 28.5317 3
      vertex -1.54508 4.75528 3
      vertex -5.62144 29.4686 3
    endloop
  endfacet
  facet normal 0 0 1
    outer loop
      vertex -1.54508 4.75528 3
      vertex -9.27051 28.5317 3
      vertex -2.1289 4.52413 3
    endloop
  endfacet
  facet normal -0 0 1
    outer loop
      vertex -12.7734 27.1448 3
      vertex -2.1289 4.52413 3
      vertex -9.27051 28.5317 3
    endloop
  endfacet
  facet normal 0 0 1
    outer loop
      vertex -2.1289 4.52413 3
      vertex -12.7734 27.1448 3
      vertex -2.67913 4.22164 3
    endloop
  endfacet
  facet normal -0 0 1
    outer loop
      vertex -16.0748 25.3298 3
      vertex -2.67913 4.22164 3
      vertex -12.7734 27.1448 3
    endloop
  endfacet
  facet normal 0 0 1
    outer loop
      vertex -2.67913 4.22164 3
      vertex -16.0748 25.3298 3
      vertex -3.18712 3.85257 3
    endloop
  endfacet
  facet normal -0 0 1
    outer loop
      vertex -19.1227 23.1154 3
      vertex -3.18712 3.85257 3
      vertex -16.0748 25.3298 3
    endloop
  endfacet
  facet normal 0 0 1
    outer loop
      vertex -3.18712 3.85257 3
      vertex -19.1227 23.1154 3
      vertex -3.64484 3.42274 3
    endloop
  endfacet
  facet normal 0 0 1
    outer loop
      vertex -3.64484 3.42274 3
      vertex -21.8691 20.5364 3
      vertex -4.04508 2.93893 3
    endloop
  endfacet
  facet normal -0 0 1
    outer loop
      vertex -21.8691 20.5364 3
      vertex -3.64484 3.42274 3
      vertex -19.1227 23.1154 3
    endloop
  endfacet
  facet normal -0 0 1
    outer loop
      vertex 3.64484 -3.42274 3
      vertex 21.8691 -20.5364 3
      vertex 4.04508 -2.93893 3
    endloop
  endfacet
  facet normal 0 0 1
    outer loop
      vertex 21.8691 -20.5364 3
      vertex 3.64484 -3.42274 3
      vertex 19.1227 -23.1154 3
    endloop
  endfacet
  facet normal -0 0 1
    outer loop
      vertex 3.18712 -3.85257 3
      vertex 19.1227 -23.1154 3
      vertex 3.64484 -3.42274 3
    endloop
  endfacet
  facet normal 0 0 1
    outer loop
      vertex 19.1227 -23.1154 3
      vertex 3.18712 -3.85257 3
      vertex 16.0748 -25.3298 3
    endloop
  endfacet
  facet normal -0 0 1
    outer loop
      vertex 2.67913 -4.22164 3
      vertex 16.0748 -25.3298 3
      vertex 3.18712 -3.85257 3
    endloop
  endfacet
  facet normal 0 0 1
    outer loop
      vertex 16.0748 -25.3298 3
      vertex 2.67913 -4.22164 3
      vertex 12.7734 -27.1448 3
    endloop
  endfacet
  facet normal -0 0 1
    outer loop
      vertex 2.1289 -4.52413 3
      vertex 12.7734 -27.1448 3
      vertex 2.67913 -4.22164 3
    endloop
  endfacet
  facet normal 0 0 1
    outer loop
      vertex 12.7734 -27.1448 3
      vertex 2.1289 -4.52413 3
      vertex 9.27051 -28.5317 3
    endloop
  endfacet
  facet normal -0 0 1
    outer loop
      vertex 1.54508 -4.75528 3
      vertex 9.27051 -28.5317 3
      vertex 2.1289 -4.52413 3
    endloop
  endfacet
  facet normal 0 0 1
    outer loop
      vertex 9.27051 -28.5317 3
      vertex 1.54508 -4.75528 3
      vertex 5.62144 -29.4686 3
    endloop
  endfacet
  facet normal -0 0 1
    outer loop
      vertex 0.936906 -4.91144 3
      vertex 5.62144 -29.4686 3
      vertex 1.54508 -4.75528 3
    endloop
  endfacet
  facet normal 0 0 1
    outer loop
      vertex 5.62144 -29.4686 3
      vertex 0.936906 -4.91144 3
      vertex 1.88371 -29.9408 3
    endloop
  endfacet
  facet normal -0 0 1
    outer loop
      vertex 0.313952 -4.99013 3
      vertex 1.88371 -29.9408 3
      vertex 0.936906 -4.91144 3
    endloop
  endfacet
  facet normal -0 0 1
    outer loop
      vertex -0.313952 -4.99013 3
      vertex 1.88371 -29.9408 3
      vertex 0.313952 -4.99013 3
    endloop
  endfacet
  facet normal 0 0 1
    outer loop
      vertex -1.88371 -29.9408 3
      vertex -0.313952 -4.99013 3
      vertex -0.936906 -4.91144 3
    endloop
  endfacet
  facet normal 0 0 1
    outer loop
      vertex -5.62144 -29.4686 3
      vertex -0.936906 -4.91144 3
      vertex -1.54508 -4.75528 3
    endloop
  endfacet
  facet normal 0 0 1
    outer loop
      vertex -0.313952 -4.99013 3
      vertex -1.88371 -29.9408 3
      vertex 1.88371 -29.9408 3
    endloop
  endfacet
  facet normal 0 0 1
    outer loop
      vertex -9.27051 -28.5317 3
      vertex -1.54508 -4.75528 3
      vertex -2.1289 -4.52413 3
    endloop
  endfacet
  facet normal 0 0 1
    outer loop
      vertex -12.7734 -27.1448 3
      vertex -2.1289 -4.52413 3
      vertex -2.67913 -4.22164 3
    endloop
  endfacet
  facet normal 0 0 1
    outer loop
      vertex -16.0748 -25.3298 3
      vertex -2.67913 -4.22164 3
      vertex -3.18712 -3.85257 3
    endloop
  endfacet
  facet normal 0 0 1
    outer loop
      vertex -19.1227 -23.1154 3
      vertex -3.18712 -3.85257 3
      vertex -3.64484 -3.42274 3
    endloop
  endfacet
  facet normal 0 0 1
    outer loop
      vertex -21.8691 -20.5364 3
      vertex -3.64484 -3.42274 3
      vertex -4.04508 -2.93893 3
    endloop
  endfacet
  facet normal 0 0 1
    outer loop
      vertex -24.2705 -17.6336 3
      vertex -4.04508 -2.93893 3
      vertex -4.38153 -2.40877 3
    endloop
  endfacet
  facet normal 0 0 1
    outer loop
      vertex -26.2892 -14.4526 3
      vertex -4.38153 -2.40877 3
      vertex -4.64888 -1.84062 3
    endloop
  endfacet
  facet normal 0 0 1
    outer loop
      vertex -27.8933 -11.0437 3
      vertex -4.64888 -1.84062 3
      vertex -4.84292 -1.24345 3
    endloop
  endfacet
  facet normal 0 0 1
    outer loop
      vertex -29.0575 -7.4607 3
      vertex -4.84292 -1.24345 3
      vertex -4.96057 -0.626666 3
    endloop
  endfacet
  facet normal 0 0 1
    outer loop
      vertex -0.936906 -4.91144 3
      vertex -5.62144 -29.4686 3
      vertex -1.88371 -29.9408 3
    endloop
  endfacet
  facet normal 0 0 1
    outer loop
      vertex -29.7634 -3.76 3
      vertex -4.96057 -0.626666 3
      vertex -5 0 3
    endloop
  endfacet
  facet normal -0 0 1
    outer loop
      vertex -24.2705 17.6336 3
      vertex -4.04508 2.93893 3
      vertex -21.8691 20.5364 3
    endloop
  endfacet
  facet normal 0 0 1
    outer loop
      vertex -4.04508 2.93893 3
      vertex -24.2705 17.6336 3
      vertex -4.38153 2.40877 3
    endloop
  endfacet
  facet normal 0 0 1
    outer loop
      vertex -1.54508 -4.75528 3
      vertex -9.27051 -28.5317 3
      vertex -5.62144 -29.4686 3
    endloop
  endfacet
  facet normal -0 0 1
    outer loop
      vertex -26.2892 14.4526 3
      vertex -4.38153 2.40877 3
      vertex -24.2705 17.6336 3
    endloop
  endfacet
  facet normal 0 0 1
    outer loop
      vertex -2.1289 -4.52413 3
      vertex -12.7734 -27.1448 3
      vertex -9.27051 -28.5317 3
    endloop
  endfacet
  facet normal 0 0 1
    outer loop
      vertex -4.38153 2.40877 3
      vertex -26.2892 14.4526 3
      vertex -4.64888 1.84062 3
    endloop
  endfacet
  facet normal 0 0 1
    outer loop
      vertex -2.67913 -4.22164 3
      vertex -16.0748 -25.3298 3
      vertex -12.7734 -27.1448 3
    endloop
  endfacet
  facet normal -0 0 1
    outer loop
      vertex -27.8933 11.0437 3
      vertex -4.64888 1.84062 3
      vertex -26.2892 14.4526 3
    endloop
  endfacet
  facet normal 0 0 1
    outer loop
      vertex -3.18712 -3.85257 3
      vertex -19.1227 -23.1154 3
      vertex -16.0748 -25.3298 3
    endloop
  endfacet
  facet normal 0 0 1
    outer loop
      vertex -4.64888 1.84062 3
      vertex -27.8933 11.0437 3
      vertex -4.84292 1.24345 3
    endloop
  endfacet
  facet normal 0 0 1
    outer loop
      vertex -3.64484 -3.42274 3
      vertex -21.8691 -20.5364 3
      vertex -19.1227 -23.1154 3
    endloop
  endfacet
  facet normal -0 0 1
    outer loop
      vertex -29.0575 7.4607 3
      vertex -4.84292 1.24345 3
      vertex -27.8933 11.0437 3
    endloop
  endfacet
  facet normal 0 0 1
    outer loop
      vertex -4.04508 -2.93893 3
      vertex -24.2705 -17.6336 3
      vertex -21.8691 -20.5364 3
    endloop
  endfacet
  facet normal 0 0 1
    outer loop
      vertex -4.84292 1.24345 3
      vertex -29.0575 7.4607 3
      vertex -4.96057 0.626666 3
    endloop
  endfacet
  facet normal 0 0 1
    outer loop
      vertex -4.38153 -2.40877 3
      vertex -26.2892 -14.4526 3
      vertex -24.2705 -17.6336 3
    endloop
  endfacet
  facet normal -0 0 1
    outer loop
      vertex -29.7634 3.76 3
      vertex -4.96057 0.626666 3
      vertex -29.0575 7.4607 3
    endloop
  endfacet
  facet normal 0 0 1
    outer loop
      vertex -4.64888 -1.84062 3
      vertex -27.8933 -11.0437 3
      vertex -26.2892 -14.4526 3
    endloop
  endfacet
  facet normal 0 0 1
    outer loop
      vertex -4.96057 0.626666 3
      vertex -29.7634 3.76 3
      vertex -5 0 3
    endloop
  endfacet
  facet normal 0 0 1
    outer loop
      vertex -4.84292 -1.24345 3
      vertex -29.0575 -7.4607 3
      vertex -27.8933 -11.0437 3
    endloop
  endfacet
  facet normal 0 0 1
    outer loop
      vertex -30 0 3
      vertex -5 0 3
      vertex -29.7634 3.76 3
    endloop
  endfacet
  facet normal 0 0 1
    outer loop
      vertex -4.96057 -0.626666 3
      vertex -29.7634 -3.76 3
      vertex -29.0575 -7.4607 3
    endloop
  endfacet
  facet normal 0 0 1
    outer loop
      vertex -5 0 3
      vertex -30 0 3
      vertex -29.7634 -3.76 3
    endloop
  endfacet
  facet normal -0.58778 0.809021 0
    outer loop
      vertex -16.0748 25.3298 -3.9
      vertex -19.1227 23.1154 3
      vertex -16.0748 25.3298 3
    endloop
  endfacet
  facet normal -0.58778 0.809021 0
    outer loop
      vertex -19.1227 23.1154 3
      vertex -16.0748 25.3298 -3.9
      vertex -19.1227 23.1154 -3.9
    endloop
  endfacet
  facet normal -0.125337 0.992114 0
    outer loop
      vertex -1.88371 29.9408 -3.9
      vertex -5.62144 29.4686 3
      vertex -1.88371 29.9408 3
    endloop
  endfacet
  facet normal -0.125337 0.992114 0
    outer loop
      vertex -5.62144 29.4686 3
      vertex -1.88371 29.9408 -3.9
      vertex -5.62144 29.4686 -3.9
    endloop
  endfacet
  facet normal 0.998026 -0.0628013 0
    outer loop
      vertex 29.7634 -3.76 3
      vertex 30 0 -3.9
      vertex 30 0 3
    endloop
  endfacet
  facet normal 0.998026 -0.0628013 0
    outer loop
      vertex 30 0 -3.9
      vertex 29.7634 -3.76 3
      vertex 29.7634 -3.76 -3.9
    endloop
  endfacet
  facet normal 0.770514 -0.637423 0
    outer loop
      vertex 21.8691 -20.5364 3
      vertex 24.2705 -17.6336 -3.9
      vertex 24.2705 -17.6336 3
    endloop
  endfacet
  facet normal 0.770514 -0.637423 0
    outer loop
      vertex 24.2705 -17.6336 -3.9
      vertex 21.8691 -20.5364 3
      vertex 21.8691 -20.5364 -3.9
    endloop
  endfacet
  facet normal 0.951056 -0.30902 0
    outer loop
      vertex 27.8933 -11.0437 3
      vertex 29.0575 -7.4607 -3.9
      vertex 29.0575 -7.4607 3
    endloop
  endfacet
  facet normal 0.951056 -0.30902 0
    outer loop
      vertex 29.0575 -7.4607 -3.9
      vertex 27.8933 -11.0437 3
      vertex 27.8933 -11.0437 -3.9
    endloop
  endfacet
  facet normal 0.98229 -0.187369 0
    outer loop
      vertex 29.0575 -7.4607 3
      vertex 29.7634 -3.76 -3.9
      vertex 29.7634 -3.76 3
    endloop
  endfacet
  facet normal 0.98229 -0.187369 0
    outer loop
      vertex 29.7634 -3.76 -3.9
      vertex 29.0575 -7.4607 3
      vertex 29.0575 -7.4607 -3.9
    endloop
  endfacet
  facet normal -0.684541 -0.728974 0
    outer loop
      vertex -21.8691 -20.5364 -3.9
      vertex -19.1227 -23.1154 3
      vertex -21.8691 -20.5364 3
    endloop
  endfacet
  facet normal -0.684541 -0.728974 -0
    outer loop
      vertex -19.1227 -23.1154 3
      vertex -21.8691 -20.5364 -3.9
      vertex -19.1227 -23.1154 -3.9
    endloop
  endfacet
  facet normal -0.904828 -0.425778 0
    outer loop
      vertex -26.2892 -14.4526 -3.9
      vertex -27.8933 -11.0437 3
      vertex -27.8933 -11.0437 -3.9
    endloop
  endfacet
  facet normal -0.904828 -0.425778 0
    outer loop
      vertex -27.8933 -11.0437 3
      vertex -26.2892 -14.4526 -3.9
      vertex -26.2892 -14.4526 3
    endloop
  endfacet
  facet normal -0.770514 -0.637423 0
    outer loop
      vertex -21.8691 -20.5364 -3.9
      vertex -24.2705 -17.6336 3
      vertex -24.2705 -17.6336 -3.9
    endloop
  endfacet
  facet normal -0.770514 -0.637423 0
    outer loop
      vertex -24.2705 -17.6336 3
      vertex -21.8691 -20.5364 -3.9
      vertex -21.8691 -20.5364 3
    endloop
  endfacet
  facet normal 0 0 -1
    outer loop
      vertex 2.875 0 -3.9
      vertex 30 0 -3.9
      vertex 29.7634 -3.76 -3.9
    endloop
  endfacet
  facet normal 0 0 -1
    outer loop
      vertex 2.85233 -0.360332 -3.9
      vertex 29.7634 -3.76 -3.9
      vertex 29.0575 -7.4607 -3.9
    endloop
  endfacet
  facet normal 0 0 -1
    outer loop
      vertex 30 0 -3.9
      vertex 2.875 0 -3.9
      vertex 29.7634 3.76 -3.9
    endloop
  endfacet
  facet normal 0 0 -1
    outer loop
      vertex 2.78468 -0.714983 -3.9
      vertex 29.0575 -7.4607 -3.9
      vertex 27.8933 -11.0437 -3.9
    endloop
  endfacet
  facet normal 0 0 -1
    outer loop
      vertex 2.85233 0.360332 -3.9
      vertex 29.7634 3.76 -3.9
      vertex 2.875 0 -3.9
    endloop
  endfacet
  facet normal 0 0 -1
    outer loop
      vertex 2.67311 -1.05836 -3.9
      vertex 27.8933 -11.0437 -3.9
      vertex 26.2892 -14.4526 -3.9
    endloop
  endfacet
  facet normal -0 0 -1
    outer loop
      vertex 29.7634 3.76 -3.9
      vertex 2.85233 0.360332 -3.9
      vertex 29.0575 7.4607 -3.9
    endloop
  endfacet
  facet normal 0 0 -1
    outer loop
      vertex 2.51938 -1.38504 -3.9
      vertex 26.2892 -14.4526 -3.9
      vertex 24.2705 -17.6336 -3.9
    endloop
  endfacet
  facet normal 0 0 -1
    outer loop
      vertex 2.78468 0.714983 -3.9
      vertex 29.0575 7.4607 -3.9
      vertex 2.85233 0.360332 -3.9
    endloop
  endfacet
  facet normal 0 0 -1
    outer loop
      vertex 2.32592 -1.68988 -3.9
      vertex 24.2705 -17.6336 -3.9
      vertex 21.8691 -20.5364 -3.9
    endloop
  endfacet
  facet normal -0 0 -1
    outer loop
      vertex 29.0575 7.4607 -3.9
      vertex 2.78468 0.714983 -3.9
      vertex 27.8933 11.0437 -3.9
    endloop
  endfacet
  facet normal 0 0 -1
    outer loop
      vertex 2.09578 -1.96807 -3.9
      vertex 21.8691 -20.5364 -3.9
      vertex 19.1227 -23.1154 -3.9
    endloop
  endfacet
  facet normal 0 0 -1
    outer loop
      vertex 2.67311 1.05836 -3.9
      vertex 27.8933 11.0437 -3.9
      vertex 2.78468 0.714983 -3.9
    endloop
  endfacet
  facet normal 0 0 -1
    outer loop
      vertex 1.83259 -2.21523 -3.9
      vertex 19.1227 -23.1154 -3.9
      vertex 16.0748 -25.3298 -3.9
    endloop
  endfacet
  facet normal -0 0 -1
    outer loop
      vertex 27.8933 11.0437 -3.9
      vertex 2.67311 1.05836 -3.9
      vertex 26.2892 14.4526 -3.9
    endloop
  endfacet
  facet normal 0 0 -1
    outer loop
      vertex 1.5405 -2.42744 -3.9
      vertex 16.0748 -25.3298 -3.9
      vertex 12.7734 -27.1448 -3.9
    endloop
  endfacet
  facet normal 0 0 -1
    outer loop
      vertex 2.51938 1.38504 -3.9
      vertex 26.2892 14.4526 -3.9
      vertex 2.67311 1.05836 -3.9
    endloop
  endfacet
  facet normal 0 0 -1
    outer loop
      vertex 1.22412 -2.60138 -3.9
      vertex 12.7734 -27.1448 -3.9
      vertex 9.27051 -28.5317 -3.9
    endloop
  endfacet
  facet normal -0 0 -1
    outer loop
      vertex 26.2892 14.4526 -3.9
      vertex 2.51938 1.38504 -3.9
      vertex 24.2705 17.6336 -3.9
    endloop
  endfacet
  facet normal 0 0 -1
    outer loop
      vertex 0.888423 -2.73429 -3.9
      vertex 9.27051 -28.5317 -3.9
      vertex 5.62144 -29.4686 -3.9
    endloop
  endfacet
  facet normal 0 0 -1
    outer loop
      vertex 2.32592 1.68988 -3.9
      vertex 24.2705 17.6336 -3.9
      vertex 2.51938 1.38504 -3.9
    endloop
  endfacet
  facet normal -0 0 -1
    outer loop
      vertex 24.2705 17.6336 -3.9
      vertex 2.32592 1.68988 -3.9
      vertex 21.8691 20.5364 -3.9
    endloop
  endfacet
  facet normal 0 0 -1
    outer loop
      vertex 29.7634 -3.76 -3.9
      vertex 2.85233 -0.360332 -3.9
      vertex 2.875 0 -3.9
    endloop
  endfacet
  facet normal 0 0 -1
    outer loop
      vertex 29.0575 -7.4607 -3.9
      vertex 2.78468 -0.714983 -3.9
      vertex 2.85233 -0.360332 -3.9
    endloop
  endfacet
  facet normal 0 0 -1
    outer loop
      vertex 27.8933 -11.0437 -3.9
      vertex 2.67311 -1.05836 -3.9
      vertex 2.78468 -0.714983 -3.9
    endloop
  endfacet
  facet normal 0 0 -1
    outer loop
      vertex 26.2892 -14.4526 -3.9
      vertex 2.51938 -1.38504 -3.9
      vertex 2.67311 -1.05836 -3.9
    endloop
  endfacet
  facet normal 0 0 -1
    outer loop
      vertex 24.2705 -17.6336 -3.9
      vertex 2.32592 -1.68988 -3.9
      vertex 2.51938 -1.38504 -3.9
    endloop
  endfacet
  facet normal 0 0 -1
    outer loop
      vertex 21.8691 -20.5364 -3.9
      vertex 2.09578 -1.96807 -3.9
      vertex 2.32592 -1.68988 -3.9
    endloop
  endfacet
  facet normal 0 0 -1
    outer loop
      vertex 0.538721 -2.82408 -3.9
      vertex 5.62144 -29.4686 -3.9
      vertex 1.88371 -29.9408 -3.9
    endloop
  endfacet
  facet normal 0 0 -1
    outer loop
      vertex 19.1227 -23.1154 -3.9
      vertex 1.83259 -2.21523 -3.9
      vertex 2.09578 -1.96807 -3.9
    endloop
  endfacet
  facet normal 0 0 -1
    outer loop
      vertex 16.0748 -25.3298 -3.9
      vertex 1.5405 -2.42744 -3.9
      vertex 1.83259 -2.21523 -3.9
    endloop
  endfacet
  facet normal 0 0 -1
    outer loop
      vertex 12.7734 -27.1448 -3.9
      vertex 1.22412 -2.60138 -3.9
      vertex 1.5405 -2.42744 -3.9
    endloop
  endfacet
  facet normal 0 0 -1
    outer loop
      vertex 9.27051 -28.5317 -3.9
      vertex 0.888423 -2.73429 -3.9
      vertex 1.22412 -2.60138 -3.9
    endloop
  endfacet
  facet normal 0 0 -1
    outer loop
      vertex 5.62144 -29.4686 -3.9
      vertex 0.538721 -2.82408 -3.9
      vertex 0.888423 -2.73429 -3.9
    endloop
  endfacet
  facet normal 0 0 -1
    outer loop
      vertex 1.88371 -29.9408 -3.9
      vertex 0.180522 -2.86933 -3.9
      vertex 0.538721 -2.82408 -3.9
    endloop
  endfacet
  facet normal 0 0 -1
    outer loop
      vertex 1.88371 -29.9408 -3.9
      vertex -0.180522 -2.86933 -3.9
      vertex 0.180522 -2.86933 -3.9
    endloop
  endfacet
  facet normal 0 0 -1
    outer loop
      vertex -1.88371 -29.9408 -3.9
      vertex -0.180522 -2.86933 -3.9
      vertex 1.88371 -29.9408 -3.9
    endloop
  endfacet
  facet normal -0 0 -1
    outer loop
      vertex -0.180522 -2.86933 -3.9
      vertex -1.88371 -29.9408 -3.9
      vertex -0.538721 -2.82408 -3.9
    endloop
  endfacet
  facet normal 0 0 -1
    outer loop
      vertex -5.62144 -29.4686 -3.9
      vertex -0.538721 -2.82408 -3.9
      vertex -1.88371 -29.9408 -3.9
    endloop
  endfacet
  facet normal -0 0 -1
    outer loop
      vertex -0.538721 -2.82408 -3.9
      vertex -5.62144 -29.4686 -3.9
      vertex -0.888423 -2.73429 -3.9
    endloop
  endfacet
  facet normal 0 0 -1
    outer loop
      vertex -9.27051 -28.5317 -3.9
      vertex -0.888423 -2.73429 -3.9
      vertex -5.62144 -29.4686 -3.9
    endloop
  endfacet
  facet normal -0 0 -1
    outer loop
      vertex -0.888423 -2.73429 -3.9
      vertex -9.27051 -28.5317 -3.9
      vertex -1.22412 -2.60138 -3.9
    endloop
  endfacet
  facet normal 0 0 -1
    outer loop
      vertex -12.7734 -27.1448 -3.9
      vertex -1.22412 -2.60138 -3.9
      vertex -9.27051 -28.5317 -3.9
    endloop
  endfacet
  facet normal -0 0 -1
    outer loop
      vertex -1.22412 -2.60138 -3.9
      vertex -12.7734 -27.1448 -3.9
      vertex -1.5405 -2.42744 -3.9
    endloop
  endfacet
  facet normal 0 0 -1
    outer loop
      vertex -16.0748 -25.3298 -3.9
      vertex -1.5405 -2.42744 -3.9
      vertex -12.7734 -27.1448 -3.9
    endloop
  endfacet
  facet normal -0 0 -1
    outer loop
      vertex -1.5405 -2.42744 -3.9
      vertex -16.0748 -25.3298 -3.9
      vertex -1.83259 -2.21523 -3.9
    endloop
  endfacet
  facet normal 0 0 -1
    outer loop
      vertex -19.1227 -23.1154 -3.9
      vertex -1.83259 -2.21523 -3.9
      vertex -16.0748 -25.3298 -3.9
    endloop
  endfacet
  facet normal -0 0 -1
    outer loop
      vertex -1.83259 -2.21523 -3.9
      vertex -19.1227 -23.1154 -3.9
      vertex -2.09578 -1.96807 -3.9
    endloop
  endfacet
  facet normal 0 0 -1
    outer loop
      vertex -21.8691 -20.5364 -3.9
      vertex -2.09578 -1.96807 -3.9
      vertex -19.1227 -23.1154 -3.9
    endloop
  endfacet
  facet normal -0 0 -1
    outer loop
      vertex -2.09578 -1.96807 -3.9
      vertex -21.8691 -20.5364 -3.9
      vertex -2.32592 -1.68988 -3.9
    endloop
  endfacet
  facet normal 0 0 -1
    outer loop
      vertex 2.09578 1.96807 -3.9
      vertex 21.8691 20.5364 -3.9
      vertex 2.32592 1.68988 -3.9
    endloop
  endfacet
  facet normal -0 0 -1
    outer loop
      vertex 21.8691 20.5364 -3.9
      vertex 2.09578 1.96807 -3.9
      vertex 19.1227 23.1154 -3.9
    endloop
  endfacet
  facet normal 0 0 -1
    outer loop
      vertex 1.83259 2.21523 -3.9
      vertex 19.1227 23.1154 -3.9
      vertex 2.09578 1.96807 -3.9
    endloop
  endfacet
  facet normal -0 0 -1
    outer loop
      vertex 19.1227 23.1154 -3.9
      vertex 1.83259 2.21523 -3.9
      vertex 16.0748 25.3298 -3.9
    endloop
  endfacet
  facet normal 0 0 -1
    outer loop
      vertex 1.5405 2.42744 -3.9
      vertex 16.0748 25.3298 -3.9
      vertex 1.83259 2.21523 -3.9
    endloop
  endfacet
  facet normal -0 0 -1
    outer loop
      vertex 16.0748 25.3298 -3.9
      vertex 1.5405 2.42744 -3.9
      vertex 12.7734 27.1448 -3.9
    endloop
  endfacet
  facet normal 0 0 -1
    outer loop
      vertex 1.22412 2.60138 -3.9
      vertex 12.7734 27.1448 -3.9
      vertex 1.5405 2.42744 -3.9
    endloop
  endfacet
  facet normal -0 0 -1
    outer loop
      vertex 12.7734 27.1448 -3.9
      vertex 1.22412 2.60138 -3.9
      vertex 9.27051 28.5317 -3.9
    endloop
  endfacet
  facet normal 0 0 -1
    outer loop
      vertex 0.888423 2.73429 -3.9
      vertex 9.27051 28.5317 -3.9
      vertex 1.22412 2.60138 -3.9
    endloop
  endfacet
  facet normal -0 0 -1
    outer loop
      vertex 9.27051 28.5317 -3.9
      vertex 0.888423 2.73429 -3.9
      vertex 5.62144 29.4686 -3.9
    endloop
  endfacet
  facet normal 0 0 -1
    outer loop
      vertex 0.538721 2.82408 -3.9
      vertex 5.62144 29.4686 -3.9
      vertex 0.888423 2.73429 -3.9
    endloop
  endfacet
  facet normal -0 0 -1
    outer loop
      vertex 5.62144 29.4686 -3.9
      vertex 0.538721 2.82408 -3.9
      vertex 1.88371 29.9408 -3.9
    endloop
  endfacet
  facet normal 0 0 -1
    outer loop
      vertex 0.180522 2.86933 -3.9
      vertex 1.88371 29.9408 -3.9
      vertex 0.538721 2.82408 -3.9
    endloop
  endfacet
  facet normal 0 0 -1
    outer loop
      vertex -0.180522 2.86933 -3.9
      vertex 1.88371 29.9408 -3.9
      vertex 0.180522 2.86933 -3.9
    endloop
  endfacet
  facet normal 0 0 -1
    outer loop
      vertex -1.88371 29.9408 -3.9
      vertex -0.180522 2.86933 -3.9
      vertex -0.538721 2.82408 -3.9
    endloop
  endfacet
  facet normal 0 0 -1
    outer loop
      vertex -5.62144 29.4686 -3.9
      vertex -0.538721 2.82408 -3.9
      vertex -0.888423 2.73429 -3.9
    endloop
  endfacet
  facet normal 0 0 -1
    outer loop
      vertex -9.27051 28.5317 -3.9
      vertex -0.888423 2.73429 -3.9
      vertex -1.22412 2.60138 -3.9
    endloop
  endfacet
  facet normal 0 0 -1
    outer loop
      vertex -12.7734 27.1448 -3.9
      vertex -1.22412 2.60138 -3.9
      vertex -1.5405 2.42744 -3.9
    endloop
  endfacet
  facet normal 0 0 -1
    outer loop
      vertex -16.0748 25.3298 -3.9
      vertex -1.5405 2.42744 -3.9
      vertex -1.83259 2.21523 -3.9
    endloop
  endfacet
  facet normal 0 0 -1
    outer loop
      vertex -0.180522 2.86933 -3.9
      vertex -1.88371 29.9408 -3.9
      vertex 1.88371 29.9408 -3.9
    endloop
  endfacet
  facet normal 0 0 -1
    outer loop
      vertex -19.1227 23.1154 -3.9
      vertex -1.83259 2.21523 -3.9
      vertex -2.09578 1.96807 -3.9
    endloop
  endfacet
  facet normal 0 0 -1
    outer loop
      vertex -21.8691 20.5364 -3.9
      vertex -2.09578 1.96807 -3.9
      vertex -2.32592 1.68988 -3.9
    endloop
  endfacet
  facet normal 0 0 -1
    outer loop
      vertex -24.2705 17.6336 -3.9
      vertex -2.32592 1.68988 -3.9
      vertex -2.51938 1.38504 -3.9
    endloop
  endfacet
  facet normal 0 0 -1
    outer loop
      vertex -26.2892 14.4526 -3.9
      vertex -2.51938 1.38504 -3.9
      vertex -2.67311 1.05836 -3.9
    endloop
  endfacet
  facet normal 0 0 -1
    outer loop
      vertex -27.8933 11.0437 -3.9
      vertex -2.67311 1.05836 -3.9
      vertex -2.78468 0.714983 -3.9
    endloop
  endfacet
  facet normal 0 0 -1
    outer loop
      vertex -29.0575 7.4607 -3.9
      vertex -2.78468 0.714983 -3.9
      vertex -2.85233 0.360332 -3.9
    endloop
  endfacet
  facet normal 0 0 -1
    outer loop
      vertex -29.7634 3.76 -3.9
      vertex -2.85233 0.360332 -3.9
      vertex -2.875 0 -3.9
    endloop
  endfacet
  facet normal 0 0 -1
    outer loop
      vertex -24.2705 -17.6336 -3.9
      vertex -2.32592 -1.68988 -3.9
      vertex -21.8691 -20.5364 -3.9
    endloop
  endfacet
  facet normal 0 0 -1
    outer loop
      vertex -0.538721 2.82408 -3.9
      vertex -5.62144 29.4686 -3.9
      vertex -1.88371 29.9408 -3.9
    endloop
  endfacet
  facet normal -0 0 -1
    outer loop
      vertex -2.32592 -1.68988 -3.9
      vertex -24.2705 -17.6336 -3.9
      vertex -2.51938 -1.38504 -3.9
    endloop
  endfacet
  facet normal 0 0 -1
    outer loop
      vertex -0.888423 2.73429 -3.9
      vertex -9.27051 28.5317 -3.9
      vertex -5.62144 29.4686 -3.9
    endloop
  endfacet
  facet normal 0 0 -1
    outer loop
      vertex -26.2892 -14.4526 -3.9
      vertex -2.51938 -1.38504 -3.9
      vertex -24.2705 -17.6336 -3.9
    endloop
  endfacet
  facet normal 0 0 -1
    outer loop
      vertex -1.22412 2.60138 -3.9
      vertex -12.7734 27.1448 -3.9
      vertex -9.27051 28.5317 -3.9
    endloop
  endfacet
  facet normal -0 0 -1
    outer loop
      vertex -2.51938 -1.38504 -3.9
      vertex -26.2892 -14.4526 -3.9
      vertex -2.67311 -1.05836 -3.9
    endloop
  endfacet
  facet normal 0 0 -1
    outer loop
      vertex -1.5405 2.42744 -3.9
      vertex -16.0748 25.3298 -3.9
      vertex -12.7734 27.1448 -3.9
    endloop
  endfacet
  facet normal 0 0 -1
    outer loop
      vertex -27.8933 -11.0437 -3.9
      vertex -2.67311 -1.05836 -3.9
      vertex -26.2892 -14.4526 -3.9
    endloop
  endfacet
  facet normal 0 0 -1
    outer loop
      vertex -1.83259 2.21523 -3.9
      vertex -19.1227 23.1154 -3.9
      vertex -16.0748 25.3298 -3.9
    endloop
  endfacet
  facet normal -0 0 -1
    outer loop
      vertex -2.67311 -1.05836 -3.9
      vertex -27.8933 -11.0437 -3.9
      vertex -2.78468 -0.714983 -3.9
    endloop
  endfacet
  facet normal 0 0 -1
    outer loop
      vertex -2.09578 1.96807 -3.9
      vertex -21.8691 20.5364 -3.9
      vertex -19.1227 23.1154 -3.9
    endloop
  endfacet
  facet normal 0 0 -1
    outer loop
      vertex -29.0575 -7.4607 -3.9
      vertex -2.78468 -0.714983 -3.9
      vertex -27.8933 -11.0437 -3.9
    endloop
  endfacet
  facet normal 0 0 -1
    outer loop
      vertex -2.32592 1.68988 -3.9
      vertex -24.2705 17.6336 -3.9
      vertex -21.8691 20.5364 -3.9
    endloop
  endfacet
  facet normal -0 0 -1
    outer loop
      vertex -2.78468 -0.714983 -3.9
      vertex -29.0575 -7.4607 -3.9
      vertex -2.85233 -0.360332 -3.9
    endloop
  endfacet
  facet normal 0 0 -1
    outer loop
      vertex -2.51938 1.38504 -3.9
      vertex -26.2892 14.4526 -3.9
      vertex -24.2705 17.6336 -3.9
    endloop
  endfacet
  facet normal 0 0 -1
    outer loop
      vertex -29.7634 -3.76 -3.9
      vertex -2.85233 -0.360332 -3.9
      vertex -29.0575 -7.4607 -3.9
    endloop
  endfacet
  facet normal 0 0 -1
    outer loop
      vertex -2.67311 1.05836 -3.9
      vertex -27.8933 11.0437 -3.9
      vertex -26.2892 14.4526 -3.9
    endloop
  endfacet
  facet normal -0 0 -1
    outer loop
      vertex -2.85233 -0.360332 -3.9
      vertex -29.7634 -3.76 -3.9
      vertex -2.875 0 -3.9
    endloop
  endfacet
  facet normal 0 0 -1
    outer loop
      vertex -2.78468 0.714983 -3.9
      vertex -29.0575 7.4607 -3.9
      vertex -27.8933 11.0437 -3.9
    endloop
  endfacet
  facet normal 0 0 -1
    outer loop
      vertex -30 0 -3.9
      vertex -2.875 0 -3.9
      vertex -29.7634 -3.76 -3.9
    endloop
  endfacet
  facet normal 0 0 -1
    outer loop
      vertex -2.85233 0.360332 -3.9
      vertex -29.7634 3.76 -3.9
      vertex -29.0575 7.4607 -3.9
    endloop
  endfacet
  facet normal 0 0 -1
    outer loop
      vertex -2.875 0 -3.9
      vertex -30 0 -3.9
      vertex -29.7634 3.76 -3.9
    endloop
  endfacet
  facet normal 0.481762 -0.876302 0
    outer loop
      vertex 12.7734 -27.1448 -3.9
      vertex 16.0748 -25.3298 3
      vertex 12.7734 -27.1448 3
    endloop
  endfacet
  facet normal 0.481762 -0.876302 0
    outer loop
      vertex 16.0748 -25.3298 3
      vertex 12.7734 -27.1448 -3.9
      vertex 16.0748 -25.3298 -3.9
    endloop
  endfacet
  facet normal 0.844331 -0.535822 0
    outer loop
      vertex 24.2705 -17.6336 3
      vertex 26.2892 -14.4526 -3.9
      vertex 26.2892 -14.4526 3
    endloop
  endfacet
  facet normal 0.844331 -0.535822 0
    outer loop
      vertex 26.2892 -14.4526 -3.9
      vertex 24.2705 -17.6336 3
      vertex 24.2705 -17.6336 -3.9
    endloop
  endfacet
  facet normal -0.248684 -0.968585 0
    outer loop
      vertex -9.27051 -28.5317 -3.9
      vertex -5.62144 -29.4686 3
      vertex -9.27051 -28.5317 3
    endloop
  endfacet
  facet normal -0.248684 -0.968585 -0
    outer loop
      vertex -5.62144 -29.4686 3
      vertex -9.27051 -28.5317 -3.9
      vertex -5.62144 -29.4686 -3.9
    endloop
  endfacet
  facet normal -0.951056 -0.30902 0
    outer loop
      vertex -27.8933 -11.0437 -3.9
      vertex -29.0575 -7.4607 3
      vertex -29.0575 -7.4607 -3.9
    endloop
  endfacet
  facet normal -0.951056 -0.30902 0
    outer loop
      vertex -29.0575 -7.4607 3
      vertex -27.8933 -11.0437 -3.9
      vertex -27.8933 -11.0437 3
    endloop
  endfacet
  facet normal 0.248684 -0.968585 0
    outer loop
      vertex 5.62144 -29.4686 -3.9
      vertex 9.27051 -28.5317 3
      vertex 5.62144 -29.4686 3
    endloop
  endfacet
  facet normal 0.248684 -0.968585 0
    outer loop
      vertex 9.27051 -28.5317 3
      vertex 5.62144 -29.4686 -3.9
      vertex 9.27051 -28.5317 -3.9
    endloop
  endfacet
  facet normal 0.904828 -0.425778 0
    outer loop
      vertex 26.2892 -14.4526 3
      vertex 27.8933 -11.0437 -3.9
      vertex 27.8933 -11.0437 3
    endloop
  endfacet
  facet normal 0.904828 -0.425778 0
    outer loop
      vertex 27.8933 -11.0437 -3.9
      vertex 26.2892 -14.4526 3
      vertex 26.2892 -14.4526 -3.9
    endloop
  endfacet
  facet normal -0.125337 -0.992114 0
    outer loop
      vertex -5.62144 -29.4686 -3.9
      vertex -1.88371 -29.9408 3
      vertex -5.62144 -29.4686 3
    endloop
  endfacet
  facet normal -0.125337 -0.992114 -0
    outer loop
      vertex -1.88371 -29.9408 3
      vertex -5.62144 -29.4686 -3.9
      vertex -1.88371 -29.9408 -3.9
    endloop
  endfacet
  facet normal -0.368126 -0.929776 0
    outer loop
      vertex -12.7734 -27.1448 -3.9
      vertex -9.27051 -28.5317 3
      vertex -12.7734 -27.1448 3
    endloop
  endfacet
  facet normal -0.368126 -0.929776 -0
    outer loop
      vertex -9.27051 -28.5317 3
      vertex -12.7734 -27.1448 -3.9
      vertex -9.27051 -28.5317 -3.9
    endloop
  endfacet
  facet normal -0.844331 -0.535822 0
    outer loop
      vertex -24.2705 -17.6336 -3.9
      vertex -26.2892 -14.4526 3
      vertex -26.2892 -14.4526 -3.9
    endloop
  endfacet
  facet normal -0.844331 -0.535822 0
    outer loop
      vertex -26.2892 -14.4526 3
      vertex -24.2705 -17.6336 -3.9
      vertex -24.2705 -17.6336 3
    endloop
  endfacet
  facet normal -0.98229 -0.187369 0
    outer loop
      vertex -29.0575 -7.4607 -3.9
      vertex -29.7634 -3.76 3
      vertex -29.7634 -3.76 -3.9
    endloop
  endfacet
  facet normal -0.98229 -0.187369 0
    outer loop
      vertex -29.7634 -3.76 3
      vertex -29.0575 -7.4607 -3.9
      vertex -29.0575 -7.4607 3
    endloop
  endfacet
  facet normal -0.998026 -0.0628013 0
    outer loop
      vertex -29.7634 -3.76 -3.9
      vertex -30 0 3
      vertex -30 0 -3.9
    endloop
  endfacet
  facet normal -0.998026 -0.0628013 0
    outer loop
      vertex -30 0 3
      vertex -29.7634 -3.76 -3.9
      vertex -29.7634 -3.76 3
    endloop
  endfacet
  facet normal 0.684541 -0.728974 0
    outer loop
      vertex 19.1227 -23.1154 -3.9
      vertex 21.8691 -20.5364 3
      vertex 19.1227 -23.1154 3
    endloop
  endfacet
  facet normal 0.684541 -0.728974 0
    outer loop
      vertex 21.8691 -20.5364 3
      vertex 19.1227 -23.1154 -3.9
      vertex 21.8691 -20.5364 -3.9
    endloop
  endfacet
  facet normal 0.58778 -0.809021 0
    outer loop
      vertex 16.0748 -25.3298 -3.9
      vertex 19.1227 -23.1154 3
      vertex 16.0748 -25.3298 3
    endloop
  endfacet
  facet normal 0.58778 -0.809021 0
    outer loop
      vertex 19.1227 -23.1154 3
      vertex 16.0748 -25.3298 -3.9
      vertex 19.1227 -23.1154 -3.9
    endloop
  endfacet
  facet normal -0.481762 -0.876302 0
    outer loop
      vertex -16.0748 -25.3298 -3.9
      vertex -12.7734 -27.1448 3
      vertex -16.0748 -25.3298 3
    endloop
  endfacet
  facet normal -0.481762 -0.876302 -0
    outer loop
      vertex -12.7734 -27.1448 3
      vertex -16.0748 -25.3298 -3.9
      vertex -12.7734 -27.1448 -3.9
    endloop
  endfacet
  facet normal -0.58778 -0.809021 0
    outer loop
      vertex -19.1227 -23.1154 -3.9
      vertex -16.0748 -25.3298 3
      vertex -19.1227 -23.1154 3
    endloop
  endfacet
  facet normal -0.58778 -0.809021 -0
    outer loop
      vertex -16.0748 -25.3298 3
      vertex -19.1227 -23.1154 -3.9
      vertex -16.0748 -25.3298 -3.9
    endloop
  endfacet
  facet normal 0 0 -1
    outer loop
      vertex 5 0 0
      vertex 5.4 0 0
      vertex 5.35742 -0.676799 0
    endloop
  endfacet
  facet normal 0 0 -1
    outer loop
      vertex 4.96057 -0.626666 0
      vertex 5.35742 -0.676799 0
      vertex 5.23035 -1.34293 0
    endloop
  endfacet
  facet normal 0 0 -1
    outer loop
      vertex 5.4 0 0
      vertex 5 0 0
      vertex 5.35742 0.676799 0
    endloop
  endfacet
  facet normal 0 0 -1
    outer loop
      vertex 4.84292 -1.24345 0
      vertex 5.23035 -1.34293 0
      vertex 5.02079 -1.98787 0
    endloop
  endfacet
  facet normal 0 0 -1
    outer loop
      vertex 4.96057 0.626666 0
      vertex 5.35742 0.676799 0
      vertex 5 0 0
    endloop
  endfacet
  facet normal -0 0 -1
    outer loop
      vertex 5.35742 0.676799 0
      vertex 4.96057 0.626666 0
      vertex 5.23035 1.34293 0
    endloop
  endfacet
  facet normal 0 0 -1
    outer loop
      vertex 5.35742 -0.676799 0
      vertex 4.96057 -0.626666 0
      vertex 5 0 0
    endloop
  endfacet
  facet normal 0 0 -1
    outer loop
      vertex 5.23035 -1.34293 0
      vertex 4.84292 -1.24345 0
      vertex 4.96057 -0.626666 0
    endloop
  endfacet
  facet normal 0 0 -1
    outer loop
      vertex 4.64888 -1.84062 0
      vertex 5.02079 -1.98787 0
      vertex 4.73206 -2.60147 0
    endloop
  endfacet
  facet normal 0 0 -1
    outer loop
      vertex 5.02079 -1.98787 0
      vertex 4.64888 -1.84062 0
      vertex 4.84292 -1.24345 0
    endloop
  endfacet
  facet normal 0 0 -1
    outer loop
      vertex 4.73206 -2.60147 0
      vertex 4.38153 -2.40877 0
      vertex 4.64888 -1.84062 0
    endloop
  endfacet
  facet normal 0 0 -1
    outer loop
      vertex 4.36869 -3.17404 0
      vertex 4.38153 -2.40877 0
      vertex 4.73206 -2.60147 0
    endloop
  endfacet
  facet normal 0 0 -1
    outer loop
      vertex 4.36869 -3.17404 0
      vertex 4.04508 -2.93893 0
      vertex 4.38153 -2.40877 0
    endloop
  endfacet
  facet normal 0 0 -1
    outer loop
      vertex 3.93643 -3.69655 0
      vertex 4.04508 -2.93893 0
      vertex 4.36869 -3.17404 0
    endloop
  endfacet
  facet normal 0 0 -1
    outer loop
      vertex 3.93643 -3.69655 0
      vertex 3.64484 -3.42274 0
      vertex 4.04508 -2.93893 0
    endloop
  endfacet
  facet normal 0 0 -1
    outer loop
      vertex 3.44209 -4.16077 0
      vertex 3.64484 -3.42274 0
      vertex 3.93643 -3.69655 0
    endloop
  endfacet
  facet normal 0 0 -1
    outer loop
      vertex 3.44209 -4.16077 0
      vertex 3.18712 -3.85257 0
      vertex 3.64484 -3.42274 0
    endloop
  endfacet
  facet normal 0 0 -1
    outer loop
      vertex 2.89346 -4.55937 0
      vertex 3.18712 -3.85257 0
      vertex 3.44209 -4.16077 0
    endloop
  endfacet
  facet normal 0 0 -1
    outer loop
      vertex 2.89346 -4.55937 0
      vertex 2.67913 -4.22164 0
      vertex 3.18712 -3.85257 0
    endloop
  endfacet
  facet normal 0 0 -1
    outer loop
      vertex 2.29921 -4.88607 0
      vertex 2.67913 -4.22164 0
      vertex 2.89346 -4.55937 0
    endloop
  endfacet
  facet normal 0 0 -1
    outer loop
      vertex 2.29921 -4.88607 0
      vertex 2.1289 -4.52413 0
      vertex 2.67913 -4.22164 0
    endloop
  endfacet
  facet normal 0 0 -1
    outer loop
      vertex 1.66869 -5.1357 0
      vertex 2.1289 -4.52413 0
      vertex 2.29921 -4.88607 0
    endloop
  endfacet
  facet normal 0 0 -1
    outer loop
      vertex 1.66869 -5.1357 0
      vertex 1.54508 -4.75528 0
      vertex 2.1289 -4.52413 0
    endloop
  endfacet
  facet normal 0 0 -1
    outer loop
      vertex 1.01186 -5.30435 0
      vertex 1.54508 -4.75528 0
      vertex 1.66869 -5.1357 0
    endloop
  endfacet
  facet normal 0 0 -1
    outer loop
      vertex 1.01186 -5.30435 0
      vertex 0.936906 -4.91144 0
      vertex 1.54508 -4.75528 0
    endloop
  endfacet
  facet normal 0 0 -1
    outer loop
      vertex 0.339068 -5.38934 0
      vertex 0.936906 -4.91144 0
      vertex 1.01186 -5.30435 0
    endloop
  endfacet
  facet normal 0 0 -1
    outer loop
      vertex 0.339068 -5.38934 0
      vertex 0.313952 -4.99013 0
      vertex 0.936906 -4.91144 0
    endloop
  endfacet
  facet normal 0 0 -1
    outer loop
      vertex 0.339068 -5.38934 0
      vertex -0.313952 -4.99013 0
      vertex 0.313952 -4.99013 0
    endloop
  endfacet
  facet normal 0 0 -1
    outer loop
      vertex -0.339068 -5.38934 0
      vertex -0.313952 -4.99013 0
      vertex 0.339068 -5.38934 0
    endloop
  endfacet
  facet normal 0 0 -1
    outer loop
      vertex -0.339068 -5.38934 0
      vertex -0.936906 -4.91144 0
      vertex -0.313952 -4.99013 0
    endloop
  endfacet
  facet normal 0 0 -1
    outer loop
      vertex -1.01186 -5.30435 0
      vertex -0.936906 -4.91144 0
      vertex -0.339068 -5.38934 0
    endloop
  endfacet
  facet normal 0 0 -1
    outer loop
      vertex -1.01186 -5.30435 0
      vertex -1.54508 -4.75528 0
      vertex -0.936906 -4.91144 0
    endloop
  endfacet
  facet normal 0 0 -1
    outer loop
      vertex -1.66869 -5.1357 0
      vertex -1.54508 -4.75528 0
      vertex -1.01186 -5.30435 0
    endloop
  endfacet
  facet normal 0 0 -1
    outer loop
      vertex -1.66869 -5.1357 0
      vertex -2.1289 -4.52413 0
      vertex -1.54508 -4.75528 0
    endloop
  endfacet
  facet normal 0 0 -1
    outer loop
      vertex -2.29921 -4.88607 0
      vertex -2.1289 -4.52413 0
      vertex -1.66869 -5.1357 0
    endloop
  endfacet
  facet normal 0 0 -1
    outer loop
      vertex -2.29921 -4.88607 0
      vertex -2.67913 -4.22164 0
      vertex -2.1289 -4.52413 0
    endloop
  endfacet
  facet normal 0 0 -1
    outer loop
      vertex -2.89346 -4.55937 0
      vertex -2.67913 -4.22164 0
      vertex -2.29921 -4.88607 0
    endloop
  endfacet
  facet normal 0 0 -1
    outer loop
      vertex -2.89346 -4.55937 0
      vertex -3.18712 -3.85257 0
      vertex -2.67913 -4.22164 0
    endloop
  endfacet
  facet normal 0 0 -1
    outer loop
      vertex -3.44209 -4.16077 0
      vertex -3.18712 -3.85257 0
      vertex -2.89346 -4.55937 0
    endloop
  endfacet
  facet normal 0 0 -1
    outer loop
      vertex -3.44209 -4.16077 0
      vertex -3.64484 -3.42274 0
      vertex -3.18712 -3.85257 0
    endloop
  endfacet
  facet normal 0 0 -1
    outer loop
      vertex -3.93643 -3.69655 0
      vertex -3.64484 -3.42274 0
      vertex -3.44209 -4.16077 0
    endloop
  endfacet
  facet normal 0 0 -1
    outer loop
      vertex -3.93643 -3.69655 0
      vertex -4.04508 -2.93893 0
      vertex -3.64484 -3.42274 0
    endloop
  endfacet
  facet normal 0 0 -1
    outer loop
      vertex -4.36869 -3.17404 0
      vertex -4.04508 -2.93893 0
      vertex -3.93643 -3.69655 0
    endloop
  endfacet
  facet normal 0 0 -1
    outer loop
      vertex -4.36869 -3.17404 0
      vertex -4.38153 -2.40877 0
      vertex -4.04508 -2.93893 0
    endloop
  endfacet
  facet normal 0 0 -1
    outer loop
      vertex -4.73206 -2.60147 0
      vertex -4.38153 -2.40877 0
      vertex -4.36869 -3.17404 0
    endloop
  endfacet
  facet normal -0 0 -1
    outer loop
      vertex -4.38153 -2.40877 0
      vertex -4.73206 -2.60147 0
      vertex -4.64888 -1.84062 0
    endloop
  endfacet
  facet normal 0 0 -1
    outer loop
      vertex -5.02079 -1.98787 0
      vertex -4.64888 -1.84062 0
      vertex -4.73206 -2.60147 0
    endloop
  endfacet
  facet normal -0 0 -1
    outer loop
      vertex -4.64888 -1.84062 0
      vertex -5.02079 -1.98787 0
      vertex -4.84292 -1.24345 0
    endloop
  endfacet
  facet normal -0 0 -1
    outer loop
      vertex -4.84292 -1.24345 0
      vertex -5.23035 -1.34293 0
      vertex -4.96057 -0.626666 0
    endloop
  endfacet
  facet normal 0 0 -1
    outer loop
      vertex -5.23035 -1.34293 0
      vertex -4.84292 -1.24345 0
      vertex -5.02079 -1.98787 0
    endloop
  endfacet
  facet normal 0 0 -1
    outer loop
      vertex 4.84292 1.24345 0
      vertex 5.23035 1.34293 0
      vertex 4.96057 0.626666 0
    endloop
  endfacet
  facet normal -0 0 -1
    outer loop
      vertex 5.23035 1.34293 0
      vertex 4.84292 1.24345 0
      vertex 5.02079 1.98787 0
    endloop
  endfacet
  facet normal 0 0 -1
    outer loop
      vertex 4.64888 1.84062 0
      vertex 5.02079 1.98787 0
      vertex 4.84292 1.24345 0
    endloop
  endfacet
  facet normal -0 0 -1
    outer loop
      vertex 5.02079 1.98787 0
      vertex 4.64888 1.84062 0
      vertex 4.73206 2.60147 0
    endloop
  endfacet
  facet normal 0 0 -1
    outer loop
      vertex 4.38153 2.40877 0
      vertex 4.73206 2.60147 0
      vertex 4.64888 1.84062 0
    endloop
  endfacet
  facet normal 0 0 -1
    outer loop
      vertex 4.38153 2.40877 0
      vertex 4.36869 3.17404 0
      vertex 4.73206 2.60147 0
    endloop
  endfacet
  facet normal 0 0 -1
    outer loop
      vertex 4.04508 2.93893 0
      vertex 4.36869 3.17404 0
      vertex 4.38153 2.40877 0
    endloop
  endfacet
  facet normal 0 0 -1
    outer loop
      vertex 4.04508 2.93893 0
      vertex 3.93643 3.69655 0
      vertex 4.36869 3.17404 0
    endloop
  endfacet
  facet normal 0 0 -1
    outer loop
      vertex 3.64484 3.42274 0
      vertex 3.93643 3.69655 0
      vertex 4.04508 2.93893 0
    endloop
  endfacet
  facet normal 0 0 -1
    outer loop
      vertex 3.64484 3.42274 0
      vertex 3.44209 4.16077 0
      vertex 3.93643 3.69655 0
    endloop
  endfacet
  facet normal 0 0 -1
    outer loop
      vertex 3.18712 3.85257 0
      vertex 3.44209 4.16077 0
      vertex 3.64484 3.42274 0
    endloop
  endfacet
  facet normal 0 0 -1
    outer loop
      vertex 3.18712 3.85257 0
      vertex 2.89346 4.55937 0
      vertex 3.44209 4.16077 0
    endloop
  endfacet
  facet normal 0 0 -1
    outer loop
      vertex 2.67913 4.22164 0
      vertex 2.89346 4.55937 0
      vertex 3.18712 3.85257 0
    endloop
  endfacet
  facet normal 0 0 -1
    outer loop
      vertex 2.67913 4.22164 0
      vertex 2.29921 4.88607 0
      vertex 2.89346 4.55937 0
    endloop
  endfacet
  facet normal 0 0 -1
    outer loop
      vertex 2.1289 4.52413 0
      vertex 2.29921 4.88607 0
      vertex 2.67913 4.22164 0
    endloop
  endfacet
  facet normal 0 0 -1
    outer loop
      vertex 2.1289 4.52413 0
      vertex 1.66869 5.1357 0
      vertex 2.29921 4.88607 0
    endloop
  endfacet
  facet normal 0 0 -1
    outer loop
      vertex 1.54508 4.75528 0
      vertex 1.66869 5.1357 0
      vertex 2.1289 4.52413 0
    endloop
  endfacet
  facet normal 0 0 -1
    outer loop
      vertex 1.54508 4.75528 0
      vertex 1.01186 5.30435 0
      vertex 1.66869 5.1357 0
    endloop
  endfacet
  facet normal 0 0 -1
    outer loop
      vertex 0.936906 4.91144 0
      vertex 1.01186 5.30435 0
      vertex 1.54508 4.75528 0
    endloop
  endfacet
  facet normal 0 0 -1
    outer loop
      vertex 0.936906 4.91144 0
      vertex 0.339068 5.38934 0
      vertex 1.01186 5.30435 0
    endloop
  endfacet
  facet normal 0 0 -1
    outer loop
      vertex 0.313952 4.99013 0
      vertex 0.339068 5.38934 0
      vertex 0.936906 4.91144 0
    endloop
  endfacet
  facet normal 0 0 -1
    outer loop
      vertex -0.313952 4.99013 0
      vertex 0.339068 5.38934 0
      vertex 0.313952 4.99013 0
    endloop
  endfacet
  facet normal 0 0 -1
    outer loop
      vertex -0.313952 4.99013 0
      vertex -0.339068 5.38934 0
      vertex 0.339068 5.38934 0
    endloop
  endfacet
  facet normal 0 0 -1
    outer loop
      vertex -0.936906 4.91144 0
      vertex -0.339068 5.38934 0
      vertex -0.313952 4.99013 0
    endloop
  endfacet
  facet normal 0 0 -1
    outer loop
      vertex -0.936906 4.91144 0
      vertex -1.01186 5.30435 0
      vertex -0.339068 5.38934 0
    endloop
  endfacet
  facet normal 0 0 -1
    outer loop
      vertex -1.54508 4.75528 0
      vertex -1.01186 5.30435 0
      vertex -0.936906 4.91144 0
    endloop
  endfacet
  facet normal 0 0 -1
    outer loop
      vertex -1.54508 4.75528 0
      vertex -1.66869 5.1357 0
      vertex -1.01186 5.30435 0
    endloop
  endfacet
  facet normal 0 0 -1
    outer loop
      vertex -2.1289 4.52413 0
      vertex -1.66869 5.1357 0
      vertex -1.54508 4.75528 0
    endloop
  endfacet
  facet normal 0 0 -1
    outer loop
      vertex -2.1289 4.52413 0
      vertex -2.29921 4.88607 0
      vertex -1.66869 5.1357 0
    endloop
  endfacet
  facet normal 0 0 -1
    outer loop
      vertex -2.67913 4.22164 0
      vertex -2.29921 4.88607 0
      vertex -2.1289 4.52413 0
    endloop
  endfacet
  facet normal 0 0 -1
    outer loop
      vertex -2.67913 4.22164 0
      vertex -2.89346 4.55937 0
      vertex -2.29921 4.88607 0
    endloop
  endfacet
  facet normal 0 0 -1
    outer loop
      vertex -3.18712 3.85257 0
      vertex -2.89346 4.55937 0
      vertex -2.67913 4.22164 0
    endloop
  endfacet
  facet normal 0 0 -1
    outer loop
      vertex -3.18712 3.85257 0
      vertex -3.44209 4.16077 0
      vertex -2.89346 4.55937 0
    endloop
  endfacet
  facet normal 0 0 -1
    outer loop
      vertex -3.64484 3.42274 0
      vertex -3.44209 4.16077 0
      vertex -3.18712 3.85257 0
    endloop
  endfacet
  facet normal 0 0 -1
    outer loop
      vertex -3.64484 3.42274 0
      vertex -3.93643 3.69655 0
      vertex -3.44209 4.16077 0
    endloop
  endfacet
  facet normal 0 0 -1
    outer loop
      vertex -4.04508 2.93893 0
      vertex -3.93643 3.69655 0
      vertex -3.64484 3.42274 0
    endloop
  endfacet
  facet normal 0 0 -1
    outer loop
      vertex -4.04508 2.93893 0
      vertex -4.36869 3.17404 0
      vertex -3.93643 3.69655 0
    endloop
  endfacet
  facet normal 0 0 -1
    outer loop
      vertex -4.38153 2.40877 0
      vertex -4.36869 3.17404 0
      vertex -4.04508 2.93893 0
    endloop
  endfacet
  facet normal 0 0 -1
    outer loop
      vertex -4.73206 2.60147 0
      vertex -4.38153 2.40877 0
      vertex -4.64888 1.84062 0
    endloop
  endfacet
  facet normal 0 0 -1
    outer loop
      vertex -4.38153 2.40877 0
      vertex -4.73206 2.60147 0
      vertex -4.36869 3.17404 0
    endloop
  endfacet
  facet normal 0 0 -1
    outer loop
      vertex -5.02079 1.98787 0
      vertex -4.64888 1.84062 0
      vertex -4.84292 1.24345 0
    endloop
  endfacet
  facet normal 0 0 -1
    outer loop
      vertex -5.23035 1.34293 0
      vertex -4.84292 1.24345 0
      vertex -4.96057 0.626666 0
    endloop
  endfacet
  facet normal 0 0 -1
    outer loop
      vertex -4.64888 1.84062 0
      vertex -5.02079 1.98787 0
      vertex -4.73206 2.60147 0
    endloop
  endfacet
  facet normal 0 0 -1
    outer loop
      vertex -5.35742 0.676799 0
      vertex -4.96057 0.626666 0
      vertex -5 0 0
    endloop
  endfacet
  facet normal 0 0 -1
    outer loop
      vertex -5.35742 -0.676799 0
      vertex -4.96057 -0.626666 0
      vertex -5.23035 -1.34293 0
    endloop
  endfacet
  facet normal -0 0 -1
    outer loop
      vertex -4.96057 -0.626666 0
      vertex -5.35742 -0.676799 0
      vertex -5 0 0
    endloop
  endfacet
  facet normal 0 0 -1
    outer loop
      vertex -4.84292 1.24345 0
      vertex -5.23035 1.34293 0
      vertex -5.02079 1.98787 0
    endloop
  endfacet
  facet normal 0 0 -1
    outer loop
      vertex -5.4 0 0
      vertex -5 0 0
      vertex -5.35742 -0.676799 0
    endloop
  endfacet
  facet normal 0 0 -1
    outer loop
      vertex -4.96057 0.626666 0
      vertex -5.35742 0.676799 0
      vertex -5.23035 1.34293 0
    endloop
  endfacet
  facet normal 0 0 -1
    outer loop
      vertex -5 0 0
      vertex -5.4 0 0
      vertex -5.35742 0.676799 0
    endloop
  endfacet
  facet normal -0.647164 0.535383 0.542718
    outer loop
      vertex 3.93643 -3.69655 0
      vertex 4.36869 -3.17404 0
      vertex 2.09578 -1.96807 -3.9
    endloop
  endfacet
  facet normal -0.838258 -0.052738 0.542718
    outer loop
      vertex 5.4 0 0
      vertex 5.35742 0.676799 0
      vertex 2.875 0 -3.9
    endloop
  endfacet
  facet normal -0.838258 -0.0527383 0.542718
    outer loop
      vertex 2.875 0 -3.9
      vertex 5.35742 0.676799 0
      vertex 2.85233 0.360332 -3.9
    endloop
  endfacet
  facet normal -0.838258 0.0527383 0.542718
    outer loop
      vertex 5.35742 -0.676799 0
      vertex 2.875 0 -3.9
      vertex 2.85233 -0.360332 -3.9
    endloop
  endfacet
  facet normal 0.825039 0.157377 0.542718
    outer loop
      vertex -2.78468 -0.714983 -3.9
      vertex -2.85233 -0.360332 -3.9
      vertex -5.35742 -0.676799 0
    endloop
  endfacet
  facet normal -0.105267 0.833293 0.542717
    outer loop
      vertex 0.339068 -5.38934 0
      vertex 0.538721 -2.82408 -3.9
      vertex 0.180522 -2.86933 -3.9
    endloop
  endfacet
  facet normal 0.105265 -0.833293 0.542717
    outer loop
      vertex -0.538721 2.82408 -3.9
      vertex -0.339068 5.38934 0
      vertex -1.01186 5.30435 0
    endloop
  endfacet
  facet normal -0.798805 0.259555 0.542718
    outer loop
      vertex 5.02079 -1.98787 0
      vertex 5.23035 -1.34293 0
      vertex 2.78468 -0.714983 -3.9
    endloop
  endfacet
  facet normal -0.838258 0.052738 0.542718
    outer loop
      vertex 5.35742 -0.676799 0
      vertex 5.4 0 0
      vertex 2.875 0 -3.9
    endloop
  endfacet
  facet normal 0.647164 0.535383 0.542718
    outer loop
      vertex -3.93643 -3.69655 0
      vertex -2.09578 -1.96807 -3.9
      vertex -4.36869 -3.17404 0
    endloop
  endfacet
  facet normal 0.493687 0.679507 0.542718
    outer loop
      vertex -2.89346 -4.55937 0
      vertex -1.5405 -2.42744 -3.9
      vertex -3.44209 -4.16077 0
    endloop
  endfacet
  facet normal -0.798807 0.259548 0.542717
    outer loop
      vertex 5.02079 -1.98787 0
      vertex 2.78468 -0.714983 -3.9
      vertex 2.67311 -1.05836 -3.9
    endloop
  endfacet
  facet normal -0.759973 0.35763 0.542717
    outer loop
      vertex 5.02079 -1.98787 0
      vertex 2.67311 -1.05836 -3.9
      vertex 2.51938 -1.38504 -3.9
    endloop
  endfacet
  facet normal -0.404647 0.736014 0.542719
    outer loop
      vertex 2.89346 -4.55937 0
      vertex 1.5405 -2.42744 -3.9
      vertex 1.22412 -2.60138 -3.9
    endloop
  endfacet
  facet normal -0.40464 0.736019 0.542718
    outer loop
      vertex 2.29921 -4.88607 0
      vertex 2.89346 -4.55937 0
      vertex 1.22412 -2.60138 -3.9
    endloop
  endfacet
  facet normal 0.40464 0.736019 0.542718
    outer loop
      vertex -2.29921 -4.88607 0
      vertex -1.22412 -2.60138 -3.9
      vertex -2.89346 -4.55937 0
    endloop
  endfacet
  facet normal 0.709161 0.450053 0.542719
    outer loop
      vertex -2.32592 -1.68988 -3.9
      vertex -2.51938 -1.38504 -3.9
      vertex -4.36869 -3.17404 0
    endloop
  endfacet
  facet normal 0.493681 -0.679512 0.542717
    outer loop
      vertex -1.83259 2.21523 -3.9
      vertex -1.5405 2.42744 -3.9
      vertex -3.44209 4.16077 0
    endloop
  endfacet
  facet normal 0.709161 -0.450053 0.542719
    outer loop
      vertex -2.51938 1.38504 -3.9
      vertex -2.32592 1.68988 -3.9
      vertex -4.36869 3.17404 0
    endloop
  endfacet
  facet normal -0.208884 -0.813527 0.542717
    outer loop
      vertex 1.66869 5.1357 0
      vertex 1.01186 5.30435 0
      vertex 0.538721 2.82408 -3.9
    endloop
  endfacet
  facet normal -0.647164 -0.535383 0.542718
    outer loop
      vertex 4.36869 3.17404 0
      vertex 3.93643 3.69655 0
      vertex 2.09578 1.96807 -3.9
    endloop
  endfacet
  facet normal -0.825039 0.157377 0.542718
    outer loop
      vertex 5.35742 -0.676799 0
      vertex 2.85233 -0.360332 -3.9
      vertex 2.78468 -0.714983 -3.9
    endloop
  endfacet
  facet normal -0.825038 0.157383 0.542718
    outer loop
      vertex 5.23035 -1.34293 0
      vertex 5.35742 -0.676799 0
      vertex 2.78468 -0.714983 -3.9
    endloop
  endfacet
  facet normal -0.70916 0.450054 0.542719
    outer loop
      vertex 4.36869 -3.17404 0
      vertex 4.73206 -2.60147 0
      vertex 2.51938 -1.38504 -3.9
    endloop
  endfacet
  facet normal -0.759981 0.35761 0.542719
    outer loop
      vertex 4.73206 -2.60147 0
      vertex 5.02079 -1.98787 0
      vertex 2.51938 -1.38504 -3.9
    endloop
  endfacet
  facet normal -0.709161 0.450053 0.542719
    outer loop
      vertex 4.36869 -3.17404 0
      vertex 2.51938 -1.38504 -3.9
      vertex 2.32592 -1.68988 -3.9
    endloop
  endfacet
  facet normal -0.647164 0.535383 0.542718
    outer loop
      vertex 4.36869 -3.17404 0
      vertex 2.32592 -1.68988 -3.9
      vertex 2.09578 -1.96807 -3.9
    endloop
  endfacet
  facet normal -0.574964 0.612269 0.542718
    outer loop
      vertex 3.44209 -4.16077 0
      vertex 3.93643 -3.69655 0
      vertex 1.83259 -2.21523 -3.9
    endloop
  endfacet
  facet normal -0.493681 0.679512 0.542717
    outer loop
      vertex 3.44209 -4.16077 0
      vertex 1.83259 -2.21523 -3.9
      vertex 1.5405 -2.42744 -3.9
    endloop
  endfacet
  facet normal -0.309182 0.780938 0.542718
    outer loop
      vertex 1.66869 -5.1357 0
      vertex 2.29921 -4.88607 0
      vertex 1.22412 -2.60138 -3.9
    endloop
  endfacet
  facet normal 0.208882 0.813527 0.542717
    outer loop
      vertex -0.538721 -2.82408 -3.9
      vertex -0.888423 -2.73429 -3.9
      vertex -1.66869 -5.1357 0
    endloop
  endfacet
  facet normal 0.105265 0.833293 0.542717
    outer loop
      vertex -0.339068 -5.38934 0
      vertex -0.538721 -2.82408 -3.9
      vertex -1.01186 -5.30435 0
    endloop
  endfacet
  facet normal 0.493681 0.679512 0.542717
    outer loop
      vertex -1.5405 -2.42744 -3.9
      vertex -1.83259 -2.21523 -3.9
      vertex -3.44209 -4.16077 0
    endloop
  endfacet
  facet normal 0.70916 0.450054 0.542719
    outer loop
      vertex -4.36869 -3.17404 0
      vertex -2.51938 -1.38504 -3.9
      vertex -4.73206 -2.60147 0
    endloop
  endfacet
  facet normal 0.759981 0.35761 0.542719
    outer loop
      vertex -4.73206 -2.60147 0
      vertex -2.51938 -1.38504 -3.9
      vertex -5.02079 -1.98787 0
    endloop
  endfacet
  facet normal 0.759973 0.35763 0.542717
    outer loop
      vertex -2.51938 -1.38504 -3.9
      vertex -2.67311 -1.05836 -3.9
      vertex -5.02079 -1.98787 0
    endloop
  endfacet
  facet normal 0.838258 0.052738 0.542718
    outer loop
      vertex -5.35742 -0.676799 0
      vertex -2.875 0 -3.9
      vertex -5.4 0 0
    endloop
  endfacet
  facet normal 0 -0.839916 0.542717
    outer loop
      vertex -0.180522 2.86933 -3.9
      vertex 0.339068 5.38934 0
      vertex -0.339068 5.38934 0
    endloop
  endfacet
  facet normal 0 -0.839916 0.542717
    outer loop
      vertex 0.339068 5.38934 0
      vertex -0.180522 2.86933 -3.9
      vertex 0.180522 2.86933 -3.9
    endloop
  endfacet
  facet normal -0.759981 -0.35761 0.542719
    outer loop
      vertex 5.02079 1.98787 0
      vertex 4.73206 2.60147 0
      vertex 2.51938 1.38504 -3.9
    endloop
  endfacet
  facet normal -0.70916 -0.450054 0.542719
    outer loop
      vertex 4.73206 2.60147 0
      vertex 4.36869 3.17404 0
      vertex 2.51938 1.38504 -3.9
    endloop
  endfacet
  facet normal -0.208884 0.813527 0.542717
    outer loop
      vertex 1.01186 -5.30435 0
      vertex 1.66869 -5.1357 0
      vertex 0.538721 -2.82408 -3.9
    endloop
  endfacet
  facet normal -0.105265 0.833293 0.542717
    outer loop
      vertex 1.01186 -5.30435 0
      vertex 0.538721 -2.82408 -3.9
      vertex 0.339068 -5.38934 0
    endloop
  endfacet
  facet normal -0.493687 0.679507 0.542718
    outer loop
      vertex 2.89346 -4.55937 0
      vertex 3.44209 -4.16077 0
      vertex 1.5405 -2.42744 -3.9
    endloop
  endfacet
  facet normal -0.574971 0.612262 0.542719
    outer loop
      vertex 3.93643 -3.69655 0
      vertex 2.09578 -1.96807 -3.9
      vertex 1.83259 -2.21523 -3.9
    endloop
  endfacet
  facet normal 0.798805 0.259555 0.542718
    outer loop
      vertex -5.02079 -1.98787 0
      vertex -2.78468 -0.714983 -3.9
      vertex -5.23035 -1.34293 0
    endloop
  endfacet
  facet normal 0.825038 0.157383 0.542718
    outer loop
      vertex -5.23035 -1.34293 0
      vertex -2.78468 -0.714983 -3.9
      vertex -5.35742 -0.676799 0
    endloop
  endfacet
  facet normal 0.309182 0.780938 0.542718
    outer loop
      vertex -1.66869 -5.1357 0
      vertex -1.22412 -2.60138 -3.9
      vertex -2.29921 -4.88607 0
    endloop
  endfacet
  facet normal 0.404647 0.736014 0.542719
    outer loop
      vertex -1.22412 -2.60138 -3.9
      vertex -1.5405 -2.42744 -3.9
      vertex -2.89346 -4.55937 0
    endloop
  endfacet
  facet normal 0 0.839916 0.542717
    outer loop
      vertex 0.180522 -2.86933 -3.9
      vertex -0.339068 -5.38934 0
      vertex 0.339068 -5.38934 0
    endloop
  endfacet
  facet normal 0 0.839916 0.542717
    outer loop
      vertex -0.339068 -5.38934 0
      vertex 0.180522 -2.86933 -3.9
      vertex -0.180522 -2.86933 -3.9
    endloop
  endfacet
  facet normal 0.574971 0.612262 0.542719
    outer loop
      vertex -1.83259 -2.21523 -3.9
      vertex -2.09578 -1.96807 -3.9
      vertex -3.93643 -3.69655 0
    endloop
  endfacet
  facet normal 0.574964 0.612269 0.542718
    outer loop
      vertex -3.44209 -4.16077 0
      vertex -1.83259 -2.21523 -3.9
      vertex -3.93643 -3.69655 0
    endloop
  endfacet
  facet normal 0.647164 0.535383 0.542718
    outer loop
      vertex -2.09578 -1.96807 -3.9
      vertex -2.32592 -1.68988 -3.9
      vertex -4.36869 -3.17404 0
    endloop
  endfacet
  facet normal 0.208884 -0.813527 0.542717
    outer loop
      vertex -0.538721 2.82408 -3.9
      vertex -1.01186 5.30435 0
      vertex -1.66869 5.1357 0
    endloop
  endfacet
  facet normal 0.404647 -0.736014 0.542719
    outer loop
      vertex -1.5405 2.42744 -3.9
      vertex -1.22412 2.60138 -3.9
      vertex -2.89346 4.55937 0
    endloop
  endfacet
  facet normal 0.759981 -0.35761 0.542719
    outer loop
      vertex -2.51938 1.38504 -3.9
      vertex -4.73206 2.60147 0
      vertex -5.02079 1.98787 0
    endloop
  endfacet
  facet normal 0.70916 -0.450054 0.542719
    outer loop
      vertex -2.51938 1.38504 -3.9
      vertex -4.36869 3.17404 0
      vertex -4.73206 2.60147 0
    endloop
  endfacet
  facet normal 0.825039 -0.157377 0.542718
    outer loop
      vertex -2.85233 0.360332 -3.9
      vertex -2.78468 0.714983 -3.9
      vertex -5.35742 0.676799 0
    endloop
  endfacet
  facet normal 0.825038 -0.157383 0.542718
    outer loop
      vertex -2.78468 0.714983 -3.9
      vertex -5.23035 1.34293 0
      vertex -5.35742 0.676799 0
    endloop
  endfacet
  facet normal 0.798805 -0.259555 0.542718
    outer loop
      vertex -2.78468 0.714983 -3.9
      vertex -5.02079 1.98787 0
      vertex -5.23035 1.34293 0
    endloop
  endfacet
  facet normal -0.404647 -0.736014 0.542719
    outer loop
      vertex 1.5405 2.42744 -3.9
      vertex 2.89346 4.55937 0
      vertex 1.22412 2.60138 -3.9
    endloop
  endfacet
  facet normal -0.493681 -0.679512 0.542717
    outer loop
      vertex 1.83259 2.21523 -3.9
      vertex 3.44209 4.16077 0
      vertex 1.5405 2.42744 -3.9
    endloop
  endfacet
  facet normal -0.105267 -0.833293 0.542717
    outer loop
      vertex 0.538721 2.82408 -3.9
      vertex 0.339068 5.38934 0
      vertex 0.180522 2.86933 -3.9
    endloop
  endfacet
  facet normal 0.105267 -0.833293 0.542717
    outer loop
      vertex -0.180522 2.86933 -3.9
      vertex -0.339068 5.38934 0
      vertex -0.538721 2.82408 -3.9
    endloop
  endfacet
  facet normal -0.759973 -0.35763 0.542717
    outer loop
      vertex 2.67311 1.05836 -3.9
      vertex 5.02079 1.98787 0
      vertex 2.51938 1.38504 -3.9
    endloop
  endfacet
  facet normal -0.574971 -0.612262 0.542719
    outer loop
      vertex 2.09578 1.96807 -3.9
      vertex 3.93643 3.69655 0
      vertex 1.83259 2.21523 -3.9
    endloop
  endfacet
  facet normal -0.30919 0.780935 0.542717
    outer loop
      vertex 1.66869 -5.1357 0
      vertex 1.22412 -2.60138 -3.9
      vertex 0.888423 -2.73429 -3.9
    endloop
  endfacet
  facet normal -0.208882 0.813527 0.542717
    outer loop
      vertex 1.66869 -5.1357 0
      vertex 0.888423 -2.73429 -3.9
      vertex 0.538721 -2.82408 -3.9
    endloop
  endfacet
  facet normal 0.798807 0.259548 0.542717
    outer loop
      vertex -2.67311 -1.05836 -3.9
      vertex -2.78468 -0.714983 -3.9
      vertex -5.02079 -1.98787 0
    endloop
  endfacet
  facet normal 0.30919 0.780935 0.542717
    outer loop
      vertex -0.888423 -2.73429 -3.9
      vertex -1.22412 -2.60138 -3.9
      vertex -1.66869 -5.1357 0
    endloop
  endfacet
  facet normal 0.208884 0.813527 0.542717
    outer loop
      vertex -1.01186 -5.30435 0
      vertex -0.538721 -2.82408 -3.9
      vertex -1.66869 -5.1357 0
    endloop
  endfacet
  facet normal 0.105267 0.833293 0.542717
    outer loop
      vertex -0.339068 -5.38934 0
      vertex -0.180522 -2.86933 -3.9
      vertex -0.538721 -2.82408 -3.9
    endloop
  endfacet
  facet normal 0.40464 -0.736019 0.542718
    outer loop
      vertex -1.22412 2.60138 -3.9
      vertex -2.29921 4.88607 0
      vertex -2.89346 4.55937 0
    endloop
  endfacet
  facet normal 0.493687 -0.679507 0.542718
    outer loop
      vertex -1.5405 2.42744 -3.9
      vertex -2.89346 4.55937 0
      vertex -3.44209 4.16077 0
    endloop
  endfacet
  facet normal 0.309182 -0.780938 0.542718
    outer loop
      vertex -1.22412 2.60138 -3.9
      vertex -1.66869 5.1357 0
      vertex -2.29921 4.88607 0
    endloop
  endfacet
  facet normal 0.574971 -0.612262 0.542719
    outer loop
      vertex -2.09578 1.96807 -3.9
      vertex -1.83259 2.21523 -3.9
      vertex -3.93643 3.69655 0
    endloop
  endfacet
  facet normal 0.574964 -0.612269 0.542718
    outer loop
      vertex -1.83259 2.21523 -3.9
      vertex -3.44209 4.16077 0
      vertex -3.93643 3.69655 0
    endloop
  endfacet
  facet normal 0.759973 -0.35763 0.542717
    outer loop
      vertex -2.67311 1.05836 -3.9
      vertex -2.51938 1.38504 -3.9
      vertex -5.02079 1.98787 0
    endloop
  endfacet
  facet normal 0.838258 -0.052738 0.542718
    outer loop
      vertex -2.875 0 -3.9
      vertex -5.35742 0.676799 0
      vertex -5.4 0 0
    endloop
  endfacet
  facet normal 0.838258 -0.0527383 0.542718
    outer loop
      vertex -2.875 0 -3.9
      vertex -2.85233 0.360332 -3.9
      vertex -5.35742 0.676799 0
    endloop
  endfacet
  facet normal -0.309182 -0.780938 0.542718
    outer loop
      vertex 2.29921 4.88607 0
      vertex 1.66869 5.1357 0
      vertex 1.22412 2.60138 -3.9
    endloop
  endfacet
  facet normal -0.493687 -0.679507 0.542718
    outer loop
      vertex 3.44209 4.16077 0
      vertex 2.89346 4.55937 0
      vertex 1.5405 2.42744 -3.9
    endloop
  endfacet
  facet normal -0.208882 -0.813527 0.542717
    outer loop
      vertex 0.888423 2.73429 -3.9
      vertex 1.66869 5.1357 0
      vertex 0.538721 2.82408 -3.9
    endloop
  endfacet
  facet normal -0.105265 -0.833293 0.542717
    outer loop
      vertex 0.538721 2.82408 -3.9
      vertex 1.01186 5.30435 0
      vertex 0.339068 5.38934 0
    endloop
  endfacet
  facet normal -0.825038 -0.157383 0.542718
    outer loop
      vertex 5.35742 0.676799 0
      vertex 5.23035 1.34293 0
      vertex 2.78468 0.714983 -3.9
    endloop
  endfacet
  facet normal -0.825039 -0.157377 0.542718
    outer loop
      vertex 2.85233 0.360332 -3.9
      vertex 5.35742 0.676799 0
      vertex 2.78468 0.714983 -3.9
    endloop
  endfacet
  facet normal -0.574964 -0.612269 0.542718
    outer loop
      vertex 3.93643 3.69655 0
      vertex 3.44209 4.16077 0
      vertex 1.83259 2.21523 -3.9
    endloop
  endfacet
  facet normal -0.647164 -0.535383 0.542718
    outer loop
      vertex 2.32592 1.68988 -3.9
      vertex 4.36869 3.17404 0
      vertex 2.09578 1.96807 -3.9
    endloop
  endfacet
  facet normal -0.709161 -0.450053 0.542719
    outer loop
      vertex 2.51938 1.38504 -3.9
      vertex 4.36869 3.17404 0
      vertex 2.32592 1.68988 -3.9
    endloop
  endfacet
  facet normal 0.30919 -0.780935 0.542717
    outer loop
      vertex -1.22412 2.60138 -3.9
      vertex -0.888423 2.73429 -3.9
      vertex -1.66869 5.1357 0
    endloop
  endfacet
  facet normal 0.208882 -0.813527 0.542717
    outer loop
      vertex -0.888423 2.73429 -3.9
      vertex -0.538721 2.82408 -3.9
      vertex -1.66869 5.1357 0
    endloop
  endfacet
  facet normal 0.647164 -0.535383 0.542718
    outer loop
      vertex -2.32592 1.68988 -3.9
      vertex -2.09578 1.96807 -3.9
      vertex -4.36869 3.17404 0
    endloop
  endfacet
  facet normal 0.647164 -0.535383 0.542718
    outer loop
      vertex -2.09578 1.96807 -3.9
      vertex -3.93643 3.69655 0
      vertex -4.36869 3.17404 0
    endloop
  endfacet
  facet normal 0.798807 -0.259548 0.542717
    outer loop
      vertex -2.78468 0.714983 -3.9
      vertex -2.67311 1.05836 -3.9
      vertex -5.02079 1.98787 0
    endloop
  endfacet
  facet normal 0.838258 0.0527383 0.542718
    outer loop
      vertex -2.85233 -0.360332 -3.9
      vertex -2.875 0 -3.9
      vertex -5.35742 -0.676799 0
    endloop
  endfacet
  facet normal -0.40464 -0.736019 0.542718
    outer loop
      vertex 2.89346 4.55937 0
      vertex 2.29921 4.88607 0
      vertex 1.22412 2.60138 -3.9
    endloop
  endfacet
  facet normal -0.798807 -0.259548 0.542717
    outer loop
      vertex 2.78468 0.714983 -3.9
      vertex 5.02079 1.98787 0
      vertex 2.67311 1.05836 -3.9
    endloop
  endfacet
  facet normal -0.798805 -0.259555 0.542718
    outer loop
      vertex 5.23035 1.34293 0
      vertex 5.02079 1.98787 0
      vertex 2.78468 0.714983 -3.9
    endloop
  endfacet
  facet normal -0.30919 -0.780935 0.542717
    outer loop
      vertex 1.22412 2.60138 -3.9
      vertex 1.66869 5.1357 0
      vertex 0.888423 2.73429 -3.9
    endloop
  endfacet
  facet normal 0.951053 -0.309028 0
    outer loop
      vertex -4.84292 1.24345 3
      vertex -4.64888 1.84062 0
      vertex -4.64888 1.84062 3
    endloop
  endfacet
  facet normal 0.951053 -0.309028 0
    outer loop
      vertex -4.64888 1.84062 0
      vertex -4.84292 1.24345 3
      vertex -4.84292 1.24345 0
    endloop
  endfacet
  facet normal -0.844328 -0.535827 0
    outer loop
      vertex 4.38153 2.40877 0
      vertex 4.04508 2.93893 3
      vertex 4.04508 2.93893 0
    endloop
  endfacet
  facet normal -0.844328 -0.535827 0
    outer loop
      vertex 4.04508 2.93893 3
      vertex 4.38153 2.40877 0
      vertex 4.38153 2.40877 3
    endloop
  endfacet
  facet normal -0.248701 -0.96858 0
    outer loop
      vertex 0.936906 4.91144 0
      vertex 1.54508 4.75528 3
      vertex 0.936906 4.91144 3
    endloop
  endfacet
  facet normal -0.248701 -0.96858 -0
    outer loop
      vertex 1.54508 4.75528 3
      vertex 0.936906 4.91144 0
      vertex 1.54508 4.75528 0
    endloop
  endfacet
  facet normal -0.368124 -0.929777 0
    outer loop
      vertex 1.54508 4.75528 0
      vertex 2.1289 4.52413 3
      vertex 1.54508 4.75528 3
    endloop
  endfacet
  facet normal -0.368124 -0.929777 -0
    outer loop
      vertex 2.1289 4.52413 3
      vertex 1.54508 4.75528 0
      vertex 2.1289 4.52413 0
    endloop
  endfacet
  facet normal 0.368124 -0.929777 0
    outer loop
      vertex -2.1289 4.52413 0
      vertex -1.54508 4.75528 3
      vertex -2.1289 4.52413 3
    endloop
  endfacet
  facet normal 0.368124 -0.929777 0
    outer loop
      vertex -1.54508 4.75528 3
      vertex -2.1289 4.52413 0
      vertex -1.54508 4.75528 0
    endloop
  endfacet
  facet normal 0.904828 -0.425778 0
    outer loop
      vertex -4.64888 1.84062 3
      vertex -4.38153 2.40877 0
      vertex -4.38153 2.40877 3
    endloop
  endfacet
  facet normal 0.904828 -0.425778 0
    outer loop
      vertex -4.38153 2.40877 0
      vertex -4.64888 1.84062 3
      vertex -4.64888 1.84062 0
    endloop
  endfacet
  facet normal -0.998026 0.0627961 0
    outer loop
      vertex 4.96057 -0.626666 0
      vertex 5 0 3
      vertex 5 0 0
    endloop
  endfacet
  facet normal -0.998026 0.0627961 0
    outer loop
      vertex 5 0 3
      vertex 4.96057 -0.626666 0
      vertex 4.96057 -0.626666 3
    endloop
  endfacet
  facet normal -0.368124 0.929777 0
    outer loop
      vertex 2.1289 -4.52413 0
      vertex 1.54508 -4.75528 3
      vertex 2.1289 -4.52413 3
    endloop
  endfacet
  facet normal -0.368124 0.929777 0
    outer loop
      vertex 1.54508 -4.75528 3
      vertex 2.1289 -4.52413 0
      vertex 1.54508 -4.75528 0
    endloop
  endfacet
  facet normal -0.98229 -0.187369 0
    outer loop
      vertex 4.96057 0.626666 0
      vertex 4.84292 1.24345 3
      vertex 4.84292 1.24345 0
    endloop
  endfacet
  facet normal -0.98229 -0.187369 0
    outer loop
      vertex 4.84292 1.24345 3
      vertex 4.96057 0.626666 0
      vertex 4.96057 0.626666 3
    endloop
  endfacet
  facet normal -0.684549 -0.728967 0
    outer loop
      vertex 3.18712 3.85257 0
      vertex 3.64484 3.42274 3
      vertex 3.18712 3.85257 3
    endloop
  endfacet
  facet normal -0.684549 -0.728967 -0
    outer loop
      vertex 3.64484 3.42274 3
      vertex 3.18712 3.85257 0
      vertex 3.64484 3.42274 0
    endloop
  endfacet
  facet normal 0.770515 -0.637422 0
    outer loop
      vertex -4.04508 2.93893 3
      vertex -3.64484 3.42274 0
      vertex -3.64484 3.42274 3
    endloop
  endfacet
  facet normal 0.770515 -0.637422 0
    outer loop
      vertex -3.64484 3.42274 0
      vertex -4.04508 2.93893 3
      vertex -4.04508 2.93893 0
    endloop
  endfacet
  facet normal 0.684549 -0.728967 0
    outer loop
      vertex -3.64484 3.42274 0
      vertex -3.18712 3.85257 3
      vertex -3.64484 3.42274 3
    endloop
  endfacet
  facet normal 0.684549 -0.728967 0
    outer loop
      vertex -3.18712 3.85257 3
      vertex -3.64484 3.42274 0
      vertex -3.18712 3.85257 0
    endloop
  endfacet
  facet normal -0.998026 -0.0627961 0
    outer loop
      vertex 5 0 0
      vertex 4.96057 0.626666 3
      vertex 4.96057 0.626666 0
    endloop
  endfacet
  facet normal -0.998026 -0.0627961 0
    outer loop
      vertex 4.96057 0.626666 3
      vertex 5 0 0
      vertex 5 0 3
    endloop
  endfacet
  facet normal -0.587779 0.809022 0
    outer loop
      vertex 3.18712 -3.85257 0
      vertex 2.67913 -4.22164 3
      vertex 3.18712 -3.85257 3
    endloop
  endfacet
  facet normal -0.587779 0.809022 0
    outer loop
      vertex 2.67913 -4.22164 3
      vertex 3.18712 -3.85257 0
      vertex 2.67913 -4.22164 0
    endloop
  endfacet
  facet normal -0.904828 0.425778 0
    outer loop
      vertex 4.38153 -2.40877 0
      vertex 4.64888 -1.84062 3
      vertex 4.64888 -1.84062 0
    endloop
  endfacet
  facet normal -0.904828 0.425778 0
    outer loop
      vertex 4.64888 -1.84062 3
      vertex 4.38153 -2.40877 0
      vertex 4.38153 -2.40877 3
    endloop
  endfacet
  facet normal 0.125322 0.992116 -0
    outer loop
      vertex -0.313952 -4.99013 0
      vertex -0.936906 -4.91144 3
      vertex -0.313952 -4.99013 3
    endloop
  endfacet
  facet normal 0.125322 0.992116 0
    outer loop
      vertex -0.936906 -4.91144 3
      vertex -0.313952 -4.99013 0
      vertex -0.936906 -4.91144 0
    endloop
  endfacet
  facet normal -0.248701 0.96858 0
    outer loop
      vertex 1.54508 -4.75528 0
      vertex 0.936906 -4.91144 3
      vertex 1.54508 -4.75528 3
    endloop
  endfacet
  facet normal -0.248701 0.96858 0
    outer loop
      vertex 0.936906 -4.91144 3
      vertex 1.54508 -4.75528 0
      vertex 0.936906 -4.91144 0
    endloop
  endfacet
  facet normal -0.770515 -0.637422 0
    outer loop
      vertex 4.04508 2.93893 0
      vertex 3.64484 3.42274 3
      vertex 3.64484 3.42274 0
    endloop
  endfacet
  facet normal -0.770515 -0.637422 0
    outer loop
      vertex 3.64484 3.42274 3
      vertex 4.04508 2.93893 0
      vertex 4.04508 2.93893 3
    endloop
  endfacet
  facet normal 0 -1 0
    outer loop
      vertex -0.313952 4.99013 0
      vertex 0.313952 4.99013 3
      vertex -0.313952 4.99013 3
    endloop
  endfacet
  facet normal 0 -1 -0
    outer loop
      vertex 0.313952 4.99013 3
      vertex -0.313952 4.99013 0
      vertex 0.313952 4.99013 0
    endloop
  endfacet
  facet normal -0.587779 -0.809022 0
    outer loop
      vertex 2.67913 4.22164 0
      vertex 3.18712 3.85257 3
      vertex 2.67913 4.22164 3
    endloop
  endfacet
  facet normal -0.587779 -0.809022 -0
    outer loop
      vertex 3.18712 3.85257 3
      vertex 2.67913 4.22164 0
      vertex 3.18712 3.85257 0
    endloop
  endfacet
  facet normal -0.481752 -0.876308 0
    outer loop
      vertex 2.1289 4.52413 0
      vertex 2.67913 4.22164 3
      vertex 2.1289 4.52413 3
    endloop
  endfacet
  facet normal -0.481752 -0.876308 -0
    outer loop
      vertex 2.67913 4.22164 3
      vertex 2.1289 4.52413 0
      vertex 2.67913 4.22164 0
    endloop
  endfacet
  facet normal 0.998026 -0.0627961 0
    outer loop
      vertex -5 0 3
      vertex -4.96057 0.626666 0
      vertex -4.96057 0.626666 3
    endloop
  endfacet
  facet normal 0.998026 -0.0627961 0
    outer loop
      vertex -4.96057 0.626666 0
      vertex -5 0 3
      vertex -5 0 0
    endloop
  endfacet
  facet normal 0.125322 -0.992116 0
    outer loop
      vertex -0.936906 4.91144 0
      vertex -0.313952 4.99013 3
      vertex -0.936906 4.91144 3
    endloop
  endfacet
  facet normal 0.125322 -0.992116 0
    outer loop
      vertex -0.313952 4.99013 3
      vertex -0.936906 4.91144 0
      vertex -0.313952 4.99013 0
    endloop
  endfacet
  facet normal 0.248701 -0.96858 0
    outer loop
      vertex -1.54508 4.75528 0
      vertex -0.936906 4.91144 3
      vertex -1.54508 4.75528 3
    endloop
  endfacet
  facet normal 0.248701 -0.96858 0
    outer loop
      vertex -0.936906 4.91144 3
      vertex -1.54508 4.75528 0
      vertex -0.936906 4.91144 0
    endloop
  endfacet
  facet normal 0.481752 -0.876308 0
    outer loop
      vertex -2.67913 4.22164 0
      vertex -2.1289 4.52413 3
      vertex -2.67913 4.22164 3
    endloop
  endfacet
  facet normal 0.481752 -0.876308 0
    outer loop
      vertex -2.1289 4.52413 3
      vertex -2.67913 4.22164 0
      vertex -2.1289 4.52413 0
    endloop
  endfacet
  facet normal 0.587779 -0.809022 0
    outer loop
      vertex -3.18712 3.85257 0
      vertex -2.67913 4.22164 3
      vertex -3.18712 3.85257 3
    endloop
  endfacet
  facet normal 0.587779 -0.809022 0
    outer loop
      vertex -2.67913 4.22164 3
      vertex -3.18712 3.85257 0
      vertex -2.67913 4.22164 0
    endloop
  endfacet
  facet normal -0.98229 0.187369 0
    outer loop
      vertex 4.84292 -1.24345 0
      vertex 4.96057 -0.626666 3
      vertex 4.96057 -0.626666 0
    endloop
  endfacet
  facet normal -0.98229 0.187369 0
    outer loop
      vertex 4.96057 -0.626666 3
      vertex 4.84292 -1.24345 0
      vertex 4.84292 -1.24345 3
    endloop
  endfacet
  facet normal -0.770515 0.637422 0
    outer loop
      vertex 3.64484 -3.42274 0
      vertex 4.04508 -2.93893 3
      vertex 4.04508 -2.93893 0
    endloop
  endfacet
  facet normal -0.770515 0.637422 0
    outer loop
      vertex 4.04508 -2.93893 3
      vertex 3.64484 -3.42274 0
      vertex 3.64484 -3.42274 3
    endloop
  endfacet
  facet normal -0.844328 0.535827 0
    outer loop
      vertex 4.04508 -2.93893 0
      vertex 4.38153 -2.40877 3
      vertex 4.38153 -2.40877 0
    endloop
  endfacet
  facet normal -0.844328 0.535827 0
    outer loop
      vertex 4.38153 -2.40877 3
      vertex 4.04508 -2.93893 0
      vertex 4.04508 -2.93893 3
    endloop
  endfacet
  facet normal 0.248701 0.96858 -0
    outer loop
      vertex -0.936906 -4.91144 0
      vertex -1.54508 -4.75528 3
      vertex -0.936906 -4.91144 3
    endloop
  endfacet
  facet normal 0.248701 0.96858 0
    outer loop
      vertex -1.54508 -4.75528 3
      vertex -0.936906 -4.91144 0
      vertex -1.54508 -4.75528 0
    endloop
  endfacet
  facet normal -0.125322 0.992116 0
    outer loop
      vertex 0.936906 -4.91144 0
      vertex 0.313952 -4.99013 3
      vertex 0.936906 -4.91144 3
    endloop
  endfacet
  facet normal -0.125322 0.992116 0
    outer loop
      vertex 0.313952 -4.99013 3
      vertex 0.936906 -4.91144 0
      vertex 0.313952 -4.99013 0
    endloop
  endfacet
  facet normal -0.684549 0.728967 0
    outer loop
      vertex 3.64484 -3.42274 0
      vertex 3.18712 -3.85257 3
      vertex 3.64484 -3.42274 3
    endloop
  endfacet
  facet normal -0.684549 0.728967 0
    outer loop
      vertex 3.18712 -3.85257 3
      vertex 3.64484 -3.42274 0
      vertex 3.18712 -3.85257 0
    endloop
  endfacet
  facet normal -0.904828 -0.425778 0
    outer loop
      vertex 4.64888 1.84062 0
      vertex 4.38153 2.40877 3
      vertex 4.38153 2.40877 0
    endloop
  endfacet
  facet normal -0.904828 -0.425778 0
    outer loop
      vertex 4.38153 2.40877 3
      vertex 4.64888 1.84062 0
      vertex 4.64888 1.84062 3
    endloop
  endfacet
  facet normal -0.951053 -0.309028 0
    outer loop
      vertex 4.84292 1.24345 0
      vertex 4.64888 1.84062 3
      vertex 4.64888 1.84062 0
    endloop
  endfacet
  facet normal -0.951053 -0.309028 0
    outer loop
      vertex 4.64888 1.84062 3
      vertex 4.84292 1.24345 0
      vertex 4.84292 1.24345 3
    endloop
  endfacet
  facet normal -0.125322 -0.992116 0
    outer loop
      vertex 0.313952 4.99013 0
      vertex 0.936906 4.91144 3
      vertex 0.313952 4.99013 3
    endloop
  endfacet
  facet normal -0.125322 -0.992116 -0
    outer loop
      vertex 0.936906 4.91144 3
      vertex 0.313952 4.99013 0
      vertex 0.936906 4.91144 0
    endloop
  endfacet
  facet normal 0.98229 -0.187369 0
    outer loop
      vertex -4.96057 0.626666 3
      vertex -4.84292 1.24345 0
      vertex -4.84292 1.24345 3
    endloop
  endfacet
  facet normal 0.98229 -0.187369 0
    outer loop
      vertex -4.84292 1.24345 0
      vertex -4.96057 0.626666 3
      vertex -4.96057 0.626666 0
    endloop
  endfacet
  facet normal 0.844328 -0.535827 0
    outer loop
      vertex -4.38153 2.40877 3
      vertex -4.04508 2.93893 0
      vertex -4.04508 2.93893 3
    endloop
  endfacet
  facet normal 0.844328 -0.535827 0
    outer loop
      vertex -4.04508 2.93893 0
      vertex -4.38153 2.40877 3
      vertex -4.38153 2.40877 0
    endloop
  endfacet
  facet normal 0.481752 0.876308 -0
    outer loop
      vertex -2.1289 -4.52413 0
      vertex -2.67913 -4.22164 3
      vertex -2.1289 -4.52413 3
    endloop
  endfacet
  facet normal 0.481752 0.876308 0
    outer loop
      vertex -2.67913 -4.22164 3
      vertex -2.1289 -4.52413 0
      vertex -2.67913 -4.22164 0
    endloop
  endfacet
  facet normal 0.998026 0.0627961 0
    outer loop
      vertex -4.96057 -0.626666 3
      vertex -5 0 0
      vertex -5 0 3
    endloop
  endfacet
  facet normal 0.998026 0.0627961 0
    outer loop
      vertex -5 0 0
      vertex -4.96057 -0.626666 3
      vertex -4.96057 -0.626666 0
    endloop
  endfacet
  facet normal 0.951053 0.309028 0
    outer loop
      vertex -4.64888 -1.84062 3
      vertex -4.84292 -1.24345 0
      vertex -4.84292 -1.24345 3
    endloop
  endfacet
  facet normal 0.951053 0.309028 0
    outer loop
      vertex -4.84292 -1.24345 0
      vertex -4.64888 -1.84062 3
      vertex -4.64888 -1.84062 0
    endloop
  endfacet
  facet normal 0.770515 0.637422 0
    outer loop
      vertex -3.64484 -3.42274 3
      vertex -4.04508 -2.93893 0
      vertex -4.04508 -2.93893 3
    endloop
  endfacet
  facet normal 0.770515 0.637422 0
    outer loop
      vertex -4.04508 -2.93893 0
      vertex -3.64484 -3.42274 3
      vertex -3.64484 -3.42274 0
    endloop
  endfacet
  facet normal -0.481752 0.876308 0
    outer loop
      vertex 2.67913 -4.22164 0
      vertex 2.1289 -4.52413 3
      vertex 2.67913 -4.22164 3
    endloop
  endfacet
  facet normal -0.481752 0.876308 0
    outer loop
      vertex 2.1289 -4.52413 3
      vertex 2.67913 -4.22164 0
      vertex 2.1289 -4.52413 0
    endloop
  endfacet
  facet normal -0.951053 0.309028 0
    outer loop
      vertex 4.64888 -1.84062 0
      vertex 4.84292 -1.24345 3
      vertex 4.84292 -1.24345 0
    endloop
  endfacet
  facet normal -0.951053 0.309028 0
    outer loop
      vertex 4.84292 -1.24345 3
      vertex 4.64888 -1.84062 0
      vertex 4.64888 -1.84062 3
    endloop
  endfacet
  facet normal 0.684549 0.728967 -0
    outer loop
      vertex -3.18712 -3.85257 0
      vertex -3.64484 -3.42274 3
      vertex -3.18712 -3.85257 3
    endloop
  endfacet
  facet normal 0.684549 0.728967 0
    outer loop
      vertex -3.64484 -3.42274 3
      vertex -3.18712 -3.85257 0
      vertex -3.64484 -3.42274 0
    endloop
  endfacet
  facet normal 0 1 -0
    outer loop
      vertex 0.313952 -4.99013 0
      vertex -0.313952 -4.99013 3
      vertex 0.313952 -4.99013 3
    endloop
  endfacet
  facet normal 0 1 0
    outer loop
      vertex -0.313952 -4.99013 3
      vertex 0.313952 -4.99013 0
      vertex -0.313952 -4.99013 0
    endloop
  endfacet
  facet normal 0.587779 0.809022 -0
    outer loop
      vertex -2.67913 -4.22164 0
      vertex -3.18712 -3.85257 3
      vertex -2.67913 -4.22164 3
    endloop
  endfacet
  facet normal 0.587779 0.809022 0
    outer loop
      vertex -3.18712 -3.85257 3
      vertex -2.67913 -4.22164 0
      vertex -3.18712 -3.85257 0
    endloop
  endfacet
  facet normal 0.98229 0.187369 0
    outer loop
      vertex -4.84292 -1.24345 3
      vertex -4.96057 -0.626666 0
      vertex -4.96057 -0.626666 3
    endloop
  endfacet
  facet normal 0.98229 0.187369 0
    outer loop
      vertex -4.96057 -0.626666 0
      vertex -4.84292 -1.24345 3
      vertex -4.84292 -1.24345 0
    endloop
  endfacet
  facet normal 0.844328 0.535827 0
    outer loop
      vertex -4.04508 -2.93893 3
      vertex -4.38153 -2.40877 0
      vertex -4.38153 -2.40877 3
    endloop
  endfacet
  facet normal 0.844328 0.535827 0
    outer loop
      vertex -4.38153 -2.40877 0
      vertex -4.04508 -2.93893 3
      vertex -4.04508 -2.93893 0
    endloop
  endfacet
  facet normal 0.904828 0.425778 0
    outer loop
      vertex -4.38153 -2.40877 3
      vertex -4.64888 -1.84062 0
      vertex -4.64888 -1.84062 3
    endloop
  endfacet
  facet normal 0.904828 0.425778 0
    outer loop
      vertex -4.64888 -1.84062 0
      vertex -4.38153 -2.40877 3
      vertex -4.38153 -2.40877 0
    endloop
  endfacet
  facet normal 0.368124 0.929777 -0
    outer loop
      vertex -1.54508 -4.75528 0
      vertex -2.1289 -4.52413 3
      vertex -1.54508 -4.75528 3
    endloop
  endfacet
  facet normal 0.368124 0.929777 0
    outer loop
      vertex -2.1289 -4.52413 3
      vertex -1.54508 -4.75528 0
      vertex -2.1289 -4.52413 0
    endloop
  endfacet
endsolid OpenSCAD_Model
