solid OpenSCAD_Model
  facet normal 0.795963181872165 0.37455184254909185 0.47555602230128374
    outer loop
      vertex -1.86215169509321 -1.0237265574661452 -3
      vertex -1.9757750325125343 -0.7822646744549404 -3
      vertex -3.486661822080943 -1.380467072567542 0
    endloop
  endfacet
  facet normal 0.6778092793788227 0.5607326015499204 0.4755560223012837
    outer loop
      vertex -1.5490583332704997 -1.454662600098463 -3
      vertex -1.7191611130467632 -1.2490436611215054 -3
      vertex -3.033813728906053 -2.204194696096774 0
    endloop
  endfacet
  facet normal 0.7427429808762785 0.4713590287795506 0.4755560223012836
    outer loop
      vertex -1.86215169509321 -1.0237265574661452 -3
      vertex -3.286150050164488 -1.8065762778814327 0
      vertex -1.7191611130467632 -1.2490436611215054 -3
    endloop
  endfacet
  facet normal 0.8366305680045703 0.2718377500152088 0.4755560223012837
    outer loop
      vertex -1.9757750325125343 -0.7822646744549404 -3
      vertex -2.058239217398341 -0.5284660102253166 -3
      vertex -3.6321868542323665 -0.9325870768682056 0
    endloop
  endfacet
  facet normal 0.864103790300667 0.16483661377558612 0.47555602230128363
    outer loop
      vertex -2.058239217398341 -0.5284660102253166 -3
      vertex -2.1082437402932657 -0.26633312132414616 -3
      vertex -3.720430129929292 -0.46999962586614025 0
    endloop
  endfacet
  facet normal 0.8779495796331391 0.0552359056680998 0.47555602230128374
    outer loop
      vertex -2.1082437402932657 -0.26633312132414616 -3
      vertex -2.125 0 -3
      vertex -3.75 0 0
    endloop
  endfacet
  facet normal 0.6021861206419272 0.6412630862284273 0.4755560223012837
    outer loop
      vertex -1.3545259782159655 -1.6373406408985525 -3
      vertex -1.5490583332704997 -1.454662600098463 -3
      vertex -2.390339961557586 -2.88942466040921 0
    endloop
  endfacet
  facet normal 0.5170661270539538 0.7116804689651145 0.47555602230128374
    outer loop
      vertex -1.3545259782159655 -1.6373406408985525 -3
      vertex -2.009350481171238 -3.1662297206325563 0
      vertex -1.138631939330368 -1.7941968416917817 -3
    endloop
  endfacet
  facet normal 0.42379169176201015 0.7708742255689149 0.4755560223012836
    outer loop
      vertex -0.904780994575779 -1.9227574864902917 -3
      vertex -1.138631939330368 -1.7941968416917817 -3
      vertex -1.5966723433690215 -3.3931014467475733 0
    endloop
  endfacet
  facet normal 0.3238338083300918 0.8179108351375536 0.47555602230128374
    outer loop
      vertex -0.6566611130467632 -2.020995097127201 -3
      vertex -0.904780994575779 -1.9227574864902917 -3
      vertex -1.1588137289060527 -3.5664619361068257 0
    endloop
  endfacet
  facet normal 0.21876887229187061 0.8520485022398222 0.47555602230128363
    outer loop
      vertex -0.39818529349466525 -2.0873604077984633 -3
      vertex -0.6566611130467632 -2.020995097127201 -3
      vertex -0.7026799296964681 -3.6835771902325822 0
    endloop
  endfacet
  facet normal 0.11025382045141481 0.8727488554726659 0.47555602230128363
    outer loop
      vertex -0.13342985399979174 -2.120806797910077 -3
      vertex -0.39818529349466525 -2.0873604077984633 -3
      vertex -0.2354644482349266 -3.7426002316060183 0
    endloop
  endfacet
  facet normal 0.6778092793788227 0.5607326015499204 0.47555602230128385
    outer loop
      vertex -1.5490583332704997 -1.454662600098463 -3
      vertex -3.033813728906053 -2.204194696096774 0
      vertex -2.733632352830294 -2.567051647232582 0
    endloop
  endfacet
  facet normal 0.5170661270539548 0.7116804689651139 0.47555602230128363
    outer loop
      vertex -2.390339961557586 -2.88942466040921 0
      vertex -2.009350481171238 -3.1662297206325563 0
      vertex -1.3545259782159655 -1.6373406408985525 -3
    endloop
  endfacet
  facet normal 0.6021861206419261 0.6412630862284281 0.47555602230128374
    outer loop
      vertex -2.733632352830294 -2.567051647232582 0
      vertex -2.390339961557586 -2.88942466040921 0
      vertex -1.5490583332704997 -1.454662600098463 -3
    endloop
  endfacet
  facet normal 0.7959631818721645 0.37455184254909296 0.47555602230128363
    outer loop
      vertex -3.286150050164488 -1.8065762778814327 0
      vertex -1.86215169509321 -1.0237265574661452 -3
      vertex -3.486661822080943 -1.380467072567542 0
    endloop
  endfacet
  facet normal 0.8366305680045704 0.2718377500152085 0.47555602230128363
    outer loop
      vertex -1.9757750325125343 -0.7822646744549404 -3
      vertex -3.6321868542323665 -0.9325870768682056 0
      vertex -3.486661822080943 -1.380467072567542 0
    endloop
  endfacet
  facet normal 0.8641037903006672 0.164836613775586 0.47555602230128363
    outer loop
      vertex -2.058239217398341 -0.5284660102253166 -3
      vertex -3.720430129929292 -0.46999962586614025 0
      vertex -3.6321868542323665 -0.9325870768682056 0
    endloop
  endfacet
  facet normal 0.8779495796331391 0.055235905668099966 0.4755560223012837
    outer loop
      vertex -2.1082437402932657 -0.26633312132414616 -3
      vertex -3.75 0 0
      vertex -3.720430129929292 -0.46999962586614025 0
    endloop
  endfacet
  facet normal 0.7427429808762791 0.4713590287795496 0.47555602230128374
    outer loop
      vertex -3.033813728906053 -2.204194696096774 0
      vertex -1.7191611130467632 -1.2490436611215054 -3
      vertex -3.286150050164488 -1.8065762778814327 0
    endloop
  endfacet
  facet normal 0.32383380833009284 0.8179108351375532 0.4755560223012836
    outer loop
      vertex -1.5966723433690215 -3.3931014467475733 0
      vertex -1.1588137289060527 -3.5664619361068257 0
      vertex -0.904780994575779 -1.9227574864902917 -3
    endloop
  endfacet
  facet normal 0.4237916917620092 0.7708742255689155 0.47555602230128374
    outer loop
      vertex -2.009350481171238 -3.1662297206325563 0
      vertex -1.5966723433690215 -3.3931014467475733 0
      vertex -1.138631939330368 -1.7941968416917817 -3
    endloop
  endfacet
  facet normal 0.2187688722918698 0.8520485022398223 0.47555602230128374
    outer loop
      vertex -1.1588137289060527 -3.5664619361068257 0
      vertex -0.7026799296964681 -3.6835771902325822 0
      vertex -0.6566611130467632 -2.020995097127201 -3
    endloop
  endfacet
  facet normal 0.11025382045141482 0.8727488554726659 0.4755560223012837
    outer loop
      vertex -0.7026799296964681 -3.6835771902325822 0
      vertex -0.2354644482349266 -3.7426002316060183 0
      vertex -0.39818529349466525 -2.0873604077984633 -3
    endloop
  endfacet
  facet normal 0 0.8796854378998102 0.47555602230128363
    outer loop
      vertex -0.2354644482349266 -3.7426002316060183 0
      vertex 0.2354644482349266 -3.7426002316060183 0
      vertex -0.13342985399979174 -2.120806797910077 -3
    endloop
  endfacet
  facet normal 0.8779495796331391 -0.0552359056680998 0.4755560223012837
    outer loop
      vertex -2.125 0 -3
      vertex -2.1082437402932657 0.26633312132414616 -3
      vertex -3.75 0 0
    endloop
  endfacet
  facet normal 0.864103790300667 -0.16483661377558612 0.47555602230128363
    outer loop
      vertex -2.1082437402932657 0.26633312132414616 -3
      vertex -2.058239217398341 0.5284660102253166 -3
      vertex -3.720430129929292 0.46999962586614025 0
    endloop
  endfacet
  facet normal 0.8366305680045703 -0.2718377500152088 0.4755560223012837
    outer loop
      vertex -2.058239217398341 0.5284660102253166 -3
      vertex -1.9757750325125343 0.7822646744549404 -3
      vertex -3.6321868542323665 0.9325870768682056 0
    endloop
  endfacet
  facet normal 0.795963181872165 -0.37455184254909185 0.47555602230128374
    outer loop
      vertex -1.9757750325125343 0.7822646744549404 -3
      vertex -1.86215169509321 1.0237265574661452 -3
      vertex -3.486661822080943 1.380467072567542 0
    endloop
  endfacet
  facet normal 0.7427429808762785 -0.4713590287795506 0.4755560223012836
    outer loop
      vertex -1.7191611130467632 1.2490436611215054 -3
      vertex -3.286150050164488 1.8065762778814327 0
      vertex -1.86215169509321 1.0237265574661452 -3
    endloop
  endfacet
  facet normal 0.6778092793788227 -0.5607326015499204 0.4755560223012837
    outer loop
      vertex -1.5490583332704997 1.454662600098463 -3
      vertex -3.033813728906053 2.204194696096774 0
      vertex -1.7191611130467632 1.2490436611215054 -3
    endloop
  endfacet
  facet normal 0.6021861206419272 -0.6412630862284273 0.47555602230128363
    outer loop
      vertex -1.5490583332704997 1.454662600098463 -3
      vertex -1.3545259782159655 1.6373406408985525 -3
      vertex -2.390339961557586 2.88942466040921 0
    endloop
  endfacet
  facet normal 0.5170661270539538 -0.7116804689651145 0.47555602230128374
    outer loop
      vertex -1.3545259782159655 1.6373406408985525 -3
      vertex -1.138631939330368 1.7941968416917817 -3
      vertex -2.009350481171238 3.1662297206325563 0
    endloop
  endfacet
  facet normal 0.4237916917620102 -0.7708742255689149 0.47555602230128374
    outer loop
      vertex -1.5966723433690226 3.393101446747573 0
      vertex -1.138631939330368 1.7941968416917817 -3
      vertex -0.9047809945757795 1.9227574864902914 -3
    endloop
  endfacet
  facet normal 0.32383380833009223 -0.8179108351375534 0.47555602230128363
    outer loop
      vertex -1.1588137289060527 3.5664619361068257 0
      vertex -0.9047809945757795 1.9227574864902914 -3
      vertex -0.6566611130467632 2.020995097127201 -3
    endloop
  endfacet
  facet normal 0.21876887229187014 -0.8520485022398222 0.4755560223012837
    outer loop
      vertex -0.7026799296964672 3.6835771902325827 0
      vertex -0.6566611130467632 2.020995097127201 -3
      vertex -0.3981852934946647 2.0873604077984633 -3
    endloop
  endfacet
  facet normal 0.11025382045141464 -0.872748855472666 0.4755560223012835
    outer loop
      vertex -0.2354644482349185 3.7426002316060183 0
      vertex -0.3981852934946647 2.0873604077984633 -3
      vertex -0.1334298539997907 2.120806797910077 -3
    endloop
  endfacet
  facet normal 0 -0.8796854378998101 0.4755560223012837
    outer loop
      vertex -0.2354644482349185 3.7426002316060183 0
      vertex -0.1334298539997907 2.120806797910077 -3
      vertex 0.13342985399978396 2.120806797910077 -3
    endloop
  endfacet
  facet normal 0.8779495796331391 -0.055235905668100244 0.4755560223012837
    outer loop
      vertex -3.720430129929292 0.46999962586614025 0
      vertex -3.75 0 0
      vertex -2.1082437402932657 0.26633312132414616 -3
    endloop
  endfacet
  facet normal 0.8641037903006672 -0.16483661377558573 0.4755560223012837
    outer loop
      vertex -3.6321868542323665 0.9325870768682056 0
      vertex -3.720430129929292 0.46999962586614025 0
      vertex -2.058239217398341 0.5284660102253166 -3
    endloop
  endfacet
  facet normal 0.8366305680045705 -0.2718377500152082 0.47555602230128374
    outer loop
      vertex -3.486661822080943 1.380467072567542 0
      vertex -3.6321868542323665 0.9325870768682056 0
      vertex -1.9757750325125343 0.7822646744549404 -3
    endloop
  endfacet
  facet normal 0.7959631818721645 -0.37455184254909324 0.4755560223012836
    outer loop
      vertex -1.86215169509321 1.0237265574661452 -3
      vertex -3.286150050164488 1.8065762778814327 0
      vertex -3.486661822080943 1.380467072567542 0
    endloop
  endfacet
  facet normal 0.742742980876279 -0.4713590287795498 0.4755560223012837
    outer loop
      vertex -1.7191611130467632 1.2490436611215054 -3
      vertex -3.033813728906053 2.204194696096774 0
      vertex -3.286150050164488 1.8065762778814327 0
    endloop
  endfacet
  facet normal 0.6778092793788227 -0.5607326015499204 0.47555602230128385
    outer loop
      vertex -1.5490583332704997 1.454662600098463 -3
      vertex -2.733632352830294 2.567051647232582 0
      vertex -3.033813728906053 2.204194696096774 0
    endloop
  endfacet
  facet normal 0.6021861206419261 -0.6412630862284281 0.47555602230128374
    outer loop
      vertex -2.733632352830294 2.567051647232582 0
      vertex -1.5490583332704997 1.454662600098463 -3
      vertex -2.390339961557586 2.88942466040921 0
    endloop
  endfacet
  facet normal 0.5170661270539548 -0.7116804689651137 0.47555602230128374
    outer loop
      vertex -1.3545259782159655 1.6373406408985525 -3
      vertex -2.009350481171238 3.1662297206325563 0
      vertex -2.390339961557586 2.88942466040921 0
    endloop
  endfacet
  facet normal 0.4237916917620094 -0.7708742255689153 0.47555602230128363
    outer loop
      vertex -1.5966723433690226 3.393101446747573 0
      vertex -2.009350481171238 3.1662297206325563 0
      vertex -1.138631939330368 1.7941968416917817 -3
    endloop
  endfacet
  facet normal 0.3238338083300928 -0.8179108351375531 0.4755560223012836
    outer loop
      vertex -1.1588137289060527 3.5664619361068257 0
      vertex -1.5966723433690226 3.393101446747573 0
      vertex -0.9047809945757795 1.9227574864902914 -3
    endloop
  endfacet
  facet normal 0.2187688722918702 -0.8520485022398222 0.47555602230128374
    outer loop
      vertex -0.7026799296964672 3.6835771902325827 0
      vertex -1.1588137289060527 3.5664619361068257 0
      vertex -0.6566611130467632 2.020995097127201 -3
    endloop
  endfacet
  facet normal 0.11025382045141233 -0.8727488554726661 0.4755560223012837
    outer loop
      vertex -0.2354644482349185 3.7426002316060183 0
      vertex -0.7026799296964672 3.6835771902325827 0
      vertex -0.3981852934946647 2.0873604077984633 -3
    endloop
  endfacet
  facet normal 0 0.8796854378998104 0.47555602230128363
    outer loop
      vertex 0.2354644482349266 -3.7426002316060183 0
      vertex 0.13342985399979174 -2.120806797910077 -3
      vertex -0.13342985399979174 -2.120806797910077 -3
    endloop
  endfacet
  facet normal -0.11025382045141481 0.8727488554726659 0.47555602230128363
    outer loop
      vertex 0.13342985399979174 -2.120806797910077 -3
      vertex 0.2354644482349266 -3.7426002316060183 0
      vertex 0.39818529349466525 -2.0873604077984633 -3
    endloop
  endfacet
  facet normal -0.21876887229187061 0.8520485022398222 0.47555602230128363
    outer loop
      vertex 0.6566611130467632 -2.020995097127201 -3
      vertex 0.39818529349466525 -2.0873604077984633 -3
      vertex 0.7026799296964681 -3.6835771902325822 0
    endloop
  endfacet
  facet normal -0.3238338083300918 0.8179108351375536 0.47555602230128374
    outer loop
      vertex 0.904780994575779 -1.9227574864902917 -3
      vertex 0.6566611130467632 -2.020995097127201 -3
      vertex 1.1588137289060527 -3.5664619361068257 0
    endloop
  endfacet
  facet normal -0.42379169176201004 0.770874225568915 0.47555602230128363
    outer loop
      vertex 0.904780994575779 -1.9227574864902917 -3
      vertex 1.5966723433690215 -3.3931014467475733 0
      vertex 1.138631939330367 -1.7941968416917824 -3
    endloop
  endfacet
  facet normal -0.5170661270539544 0.7116804689651142 0.4755560223012837
    outer loop
      vertex 1.3545259782159662 -1.6373406408985516 -3
      vertex 1.138631939330367 -1.7941968416917824 -3
      vertex 2.0093504811712357 -3.1662297206325576 0
    endloop
  endfacet
  facet normal -0.6021861206419267 0.6412630862284278 0.47555602230128374
    outer loop
      vertex 1.5490583332704997 -1.454662600098463 -3
      vertex 1.3545259782159662 -1.6373406408985516 -3
      vertex 2.3903399615575873 -2.889424660409209 0
    endloop
  endfacet
  facet normal -0.6778092793788227 0.5607326015499204 0.4755560223012837
    outer loop
      vertex 1.5490583332704997 -1.454662600098463 -3
      vertex 3.033813728906053 -2.204194696096774 0
      vertex 1.7191611130467632 -1.2490436611215054 -3
    endloop
  endfacet
  facet normal -0.7427429808762785 0.4713590287795506 0.4755560223012836
    outer loop
      vertex 1.86215169509321 -1.0237265574661452 -3
      vertex 1.7191611130467632 -1.2490436611215054 -3
      vertex 3.286150050164488 -1.8065762778814327 0
    endloop
  endfacet
  facet normal -0.7959631818721649 0.374551842549092 0.4755560223012837
    outer loop
      vertex 1.9757750325125338 -0.7822646744549415 -3
      vertex 1.86215169509321 -1.0237265574661452 -3
      vertex 3.486661822080942 -1.3804670725675439 0
    endloop
  endfacet
  facet normal -0.83663056800457 0.27183775001520954 0.4755560223012836
    outer loop
      vertex 2.0582392173983415 -0.5284660102253157 -3
      vertex 1.9757750325125338 -0.7822646744549415 -3
      vertex 3.632186854232367 -0.9325870768682041 0
    endloop
  endfacet
  facet normal -0.8641037903006672 0.16483661377558526 0.4755560223012837
    outer loop
      vertex 2.1082437402932657 -0.26633312132414616 -3
      vertex 2.0582392173983415 -0.5284660102253157 -3
      vertex 3.720430129929292 -0.46999962586614025 0
    endloop
  endfacet
  facet normal -0.8779495796331391 0.0552359056680998 0.4755560223012837
    outer loop
      vertex 2.125 0 -3
      vertex 2.1082437402932657 -0.26633312132414616 -3
      vertex 3.75 0 0
    endloop
  endfacet
  facet normal -0.11025382045141482 0.8727488554726659 0.4755560223012837
    outer loop
      vertex 0.2354644482349266 -3.7426002316060183 0
      vertex 0.7026799296964681 -3.6835771902325822 0
      vertex 0.39818529349466525 -2.0873604077984633 -3
    endloop
  endfacet
  facet normal -0.2187688722918696 0.8520485022398224 0.4755560223012838
    outer loop
      vertex 0.6566611130467632 -2.020995097127201 -3
      vertex 0.7026799296964681 -3.6835771902325822 0
      vertex 1.1588137289060527 -3.5664619361068257 0
    endloop
  endfacet
  facet normal -0.3238338083300928 0.8179108351375532 0.4755560223012836
    outer loop
      vertex 0.904780994575779 -1.9227574864902917 -3
      vertex 1.1588137289060527 -3.5664619361068257 0
      vertex 1.5966723433690215 -3.3931014467475733 0
    endloop
  endfacet
  facet normal -0.42379169176200904 0.7708742255689155 0.47555602230128374
    outer loop
      vertex 1.5966723433690215 -3.3931014467475733 0
      vertex 2.0093504811712357 -3.1662297206325576 0
      vertex 1.138631939330367 -1.7941968416917824 -3
    endloop
  endfacet
  facet normal -0.5170661270539545 0.711680468965114 0.4755560223012837
    outer loop
      vertex 1.3545259782159662 -1.6373406408985516 -3
      vertex 2.0093504811712357 -3.1662297206325576 0
      vertex 2.3903399615575873 -2.889424660409209 0
    endloop
  endfacet
  facet normal -0.6021861206419267 0.6412630862284276 0.47555602230128363
    outer loop
      vertex 1.5490583332704997 -1.454662600098463 -3
      vertex 2.3903399615575873 -2.889424660409209 0
      vertex 2.733632352830294 -2.567051647232582 0
    endloop
  endfacet
  facet normal -0.6778092793788228 0.5607326015499203 0.47555602230128374
    outer loop
      vertex 2.733632352830294 -2.567051647232582 0
      vertex 3.033813728906053 -2.204194696096774 0
      vertex 1.5490583332704997 -1.454662600098463 -3
    endloop
  endfacet
  facet normal -0.7427429808762791 0.4713590287795496 0.47555602230128374
    outer loop
      vertex 3.033813728906053 -2.204194696096774 0
      vertex 3.286150050164488 -1.8065762778814327 0
      vertex 1.7191611130467632 -1.2490436611215054 -3
    endloop
  endfacet
  facet normal -0.7959631818721646 0.3745518425490929 0.4755560223012837
    outer loop
      vertex 3.286150050164488 -1.8065762778814327 0
      vertex 3.486661822080942 -1.3804670725675439 0
      vertex 1.86215169509321 -1.0237265574661452 -3
    endloop
  endfacet
  facet normal -0.8366305680045703 0.27183775001520866 0.47555602230128363
    outer loop
      vertex 3.486661822080942 -1.3804670725675439 0
      vertex 3.632186854232367 -0.9325870768682041 0
      vertex 1.9757750325125338 -0.7822646744549415 -3
    endloop
  endfacet
  facet normal -0.8641037903006673 0.16483661377558548 0.4755560223012837
    outer loop
      vertex 3.632186854232367 -0.9325870768682041 0
      vertex 3.720430129929292 -0.46999962586614025 0
      vertex 2.0582392173983415 -0.5284660102253157 -3
    endloop
  endfacet
  facet normal -0.8779495796331391 0.055235905668100244 0.4755560223012837
    outer loop
      vertex 3.720430129929292 -0.46999962586614025 0
      vertex 3.75 0 0
      vertex 2.1082437402932657 -0.26633312132414616 -3
    endloop
  endfacet
  facet normal -0.11025382045141185 -0.8727488554726661 0.47555602230128396
    outer loop
      vertex 0.13342985399978396 2.120806797910077 -3
      vertex 0.3981852934946647 2.0873604077984633 -3
      vertex 0.2354644482349248 3.7426002316060183 0
    endloop
  endfacet
  facet normal -0.21876887229187014 -0.8520485022398222 0.4755560223012837
    outer loop
      vertex 0.3981852934946647 2.0873604077984633 -3
      vertex 0.6566611130467632 2.020995097127201 -3
      vertex 0.7026799296964672 3.6835771902325827 0
    endloop
  endfacet
  facet normal -0.3238338083300918 -0.8179108351375535 0.47555602230128374
    outer loop
      vertex 0.6566611130467632 2.020995097127201 -3
      vertex 0.9047809945757795 1.9227574864902914 -3
      vertex 1.1588137289060527 3.5664619361068257 0
    endloop
  endfacet
  facet normal -0.42379169176201015 -0.770874225568915 0.4755560223012837
    outer loop
      vertex 0.9047809945757795 1.9227574864902914 -3
      vertex 1.1386319393303679 1.794196841691782 -3
      vertex 1.5966723433690226 3.393101446747573 0
    endloop
  endfacet
  facet normal -0.5170661270539546 -0.7116804689651139 0.4755560223012837
    outer loop
      vertex 1.1386319393303679 1.794196841691782 -3
      vertex 1.3545259782159658 1.637340640898552 -3
      vertex 2.0093504811712375 3.1662297206325567 0
    endloop
  endfacet
  facet normal -0.6021861206419263 -0.6412630862284281 0.4755560223012836
    outer loop
      vertex 1.3545259782159658 1.637340640898552 -3
      vertex 1.5490583332704995 1.4546626000984635 -3
      vertex 2.3903399615575864 2.889424660409209 0
    endloop
  endfacet
  facet normal -0.8779495796331391 -0.055235905668099716 0.47555602230128374
    outer loop
      vertex 2.125 0 -3
      vertex 3.75 0 0
      vertex 2.1082437402932657 0.26633312132414655 -3
    endloop
  endfacet
  facet normal -0.8641037903006671 -0.16483661377558595 0.4755560223012837
    outer loop
      vertex 3.720430129929292 0.46999962586614097 0
      vertex 2.058239217398341 0.5284660102253165 -3
      vertex 2.1082437402932657 0.26633312132414655 -3
    endloop
  endfacet
  facet normal -0.8366305680045699 -0.27183775001520993 0.4755560223012835
    outer loop
      vertex 3.6321868542323665 0.9325870768682055 0
      vertex 1.975775032512534 0.7822646744549407 -3
      vertex 2.058239217398341 0.5284660102253165 -3
    endloop
  endfacet
  facet normal -0.7427429808762783 -0.47135902877955116 0.4755560223012837
    outer loop
      vertex 1.7191611130467632 1.2490436611215054 -3
      vertex 1.8621516950932102 1.0237265574661452 -3
      vertex 3.2861500501644882 1.8065762778814325 0
    endloop
  endfacet
  facet normal -0.6778092793788231 -0.5607326015499202 0.47555602230128374
    outer loop
      vertex 1.5490583332704995 1.4546626000984635 -3
      vertex 1.7191611130467632 1.2490436611215054 -3
      vertex 3.033813728906053 2.204194696096774 0
    endloop
  endfacet
  facet normal -0.7959631818721654 -0.3745518425490911 0.47555602230128374
    outer loop
      vertex 1.8621516950932102 1.0237265574661452 -3
      vertex 1.975775032512534 0.7822646744549407 -3
      vertex 3.4866618220809427 1.3804670725675423 0
    endloop
  endfacet
  facet normal 0 -0.8796854378998102 0.47555602230128363
    outer loop
      vertex -0.2354644482349185 3.7426002316060183 0
      vertex 0.13342985399978396 2.120806797910077 -3
      vertex 0.2354644482349248 3.7426002316060183 0
    endloop
  endfacet
  facet normal -0.11025382045141378 -0.872748855472666 0.47555602230128374
    outer loop
      vertex 0.7026799296964672 3.6835771902325827 0
      vertex 0.2354644482349248 3.7426002316060183 0
      vertex 0.3981852934946647 2.0873604077984633 -3
    endloop
  endfacet
  facet normal -0.2187688722918702 -0.8520485022398222 0.47555602230128374
    outer loop
      vertex 1.1588137289060527 3.5664619361068257 0
      vertex 0.7026799296964672 3.6835771902325827 0
      vertex 0.6566611130467632 2.020995097127201 -3
    endloop
  endfacet
  facet normal -0.42379169176200915 -0.7708742255689154 0.47555602230128374
    outer loop
      vertex 2.0093504811712375 3.1662297206325567 0
      vertex 1.5966723433690226 3.393101446747573 0
      vertex 1.1386319393303679 1.794196841691782 -3
    endloop
  endfacet
  facet normal -0.3238338083300928 -0.8179108351375531 0.4755560223012836
    outer loop
      vertex 1.5966723433690226 3.393101446747573 0
      vertex 1.1588137289060527 3.5664619361068257 0
      vertex 0.9047809945757795 1.9227574864902914 -3
    endloop
  endfacet
  facet normal -0.7427429808762788 -0.47135902877955 0.47555602230128374
    outer loop
      vertex 1.7191611130467632 1.2490436611215054 -3
      vertex 3.2861500501644882 1.8065762778814325 0
      vertex 3.033813728906053 2.204194696096774 0
    endloop
  endfacet
  facet normal -0.8779495796331392 -0.05523590566810015 0.47555602230128363
    outer loop
      vertex 3.75 0 0
      vertex 3.720430129929292 0.46999962586614097 0
      vertex 2.1082437402932657 0.26633312132414655 -3
    endloop
  endfacet
  facet normal -0.8641037903006671 -0.16483661377558603 0.4755560223012837
    outer loop
      vertex 3.720430129929292 0.46999962586614097 0
      vertex 3.6321868542323665 0.9325870768682055 0
      vertex 2.058239217398341 0.5284660102253165 -3
    endloop
  endfacet
  facet normal -0.8366305680045704 -0.27183775001520877 0.47555602230128363
    outer loop
      vertex 3.6321868542323665 0.9325870768682055 0
      vertex 3.4866618220809427 1.3804670725675423 0
      vertex 1.975775032512534 0.7822646744549407 -3
    endloop
  endfacet
  facet normal -0.795963181872165 -0.3745518425490921 0.4755560223012835
    outer loop
      vertex 1.8621516950932102 1.0237265574661452 -3
      vertex 3.4866618220809427 1.3804670725675423 0
      vertex 3.2861500501644882 1.8065762778814325 0
    endloop
  endfacet
  facet normal -0.6021861206419252 -0.6412630862284291 0.47555602230128396
    outer loop
      vertex 1.5490583332704995 1.4546626000984635 -3
      vertex 2.7336323528302935 2.567051647232583 0
      vertex 2.3903399615575864 2.889424660409209 0
    endloop
  endfacet
  facet normal -0.5170661270539557 -0.7116804689651133 0.47555602230128363
    outer loop
      vertex 2.3903399615575864 2.889424660409209 0
      vertex 2.0093504811712375 3.1662297206325567 0
      vertex 1.3545259782159658 1.637340640898552 -3
    endloop
  endfacet
  facet normal -0.6778092793788232 -0.56073260154992 0.4755560223012836
    outer loop
      vertex 1.5490583332704995 1.4546626000984635 -3
      vertex 3.033813728906053 2.204194696096774 0
      vertex 2.7336323528302935 2.567051647232583 0
    endloop
  endfacet
  facet normal -0.8443279255020157 -0.5358267949789955 0
    outer loop
      vertex -24.270509831248425 -17.633557568774194 -3
      vertex -26.289200401315902 -14.452610223051462 0
      vertex -26.289200401315902 -14.452610223051462 -3
    endloop
  endfacet
  facet normal -0.7705132427757891 -0.6374239897486899 0
    outer loop
      vertex -24.270509831248425 -17.633557568774194 -3
      vertex -21.86905882264235 -20.536413177860656 -3
      vertex -24.270509831248425 -17.633557568774194 0
    endloop
  endfacet
  facet normal -0.5877852522924732 -0.8090169943749473 0
    outer loop
      vertex -19.122719692460688 -23.11539728327368 -3
      vertex -16.074803849369903 -25.32983776506045 -3
      vertex -16.074803849369903 -25.32983776506045 0
    endloop
  endfacet
  facet normal -0.6845471059286886 -0.7289686274214117 0
    outer loop
      vertex -19.122719692460688 -23.11539728327368 -3
      vertex -19.122719692460688 -23.11539728327368 0
      vertex -21.86905882264235 -20.536413177860656 -3
    endloop
  endfacet
  facet normal 0 0 -1
    outer loop
      vertex -27.893294576647545 -11.043736580540337 -3
      vertex -29.057494833858932 -7.460696614945645 -3
      vertex -27.893294576647545 11.043736580540337 -3
    endloop
  endfacet
  facet normal 0 0 -1
    outer loop
      vertex -29.057494833858932 -7.460696614945645 -3
      vertex -29.763441039434337 -3.759997006929122 -3
      vertex -29.057494833858932 7.460696614945645 -3
    endloop
  endfacet
  facet normal 0 0 -1
    outer loop
      vertex -26.289200401315902 -14.452610223051462 -3
      vertex -27.893294576647545 -11.043736580540337 -3
      vertex -26.289200401315902 14.452610223051462 -3
    endloop
  endfacet
  facet normal 0 0 -1
    outer loop
      vertex -24.270509831248425 -17.633557568774194 -3
      vertex -26.289200401315902 -14.452610223051462 -3
      vertex -24.270509831248425 17.633557568774194 -3
    endloop
  endfacet
  facet normal 0 0 -1
    outer loop
      vertex -24.270509831248425 -17.633557568774194 -3
      vertex -21.86905882264235 20.536413177860656 -3
      vertex -21.86905882264235 -20.536413177860656 -3
    endloop
  endfacet
  facet normal 0 0 -1
    outer loop
      vertex -19.122719692460688 -23.11539728327368 -3
      vertex -16.074803849369903 25.32983776506045 -3
      vertex -16.074803849369903 -25.32983776506045 -3
    endloop
  endfacet
  facet normal 0 0 -1
    outer loop
      vertex -19.122719692460688 -23.11539728327368 -3
      vertex -21.86905882264235 -20.536413177860656 -3
      vertex -19.122719692460688 23.11539728327368 -3
    endloop
  endfacet
  facet normal -0.9048270524660189 -0.42577929156507377 0
    outer loop
      vertex -26.289200401315902 -14.452610223051462 -3
      vertex -27.893294576647545 -11.043736580540337 0
      vertex -27.893294576647545 -11.043736580540337 -3
    endloop
  endfacet
  facet normal -0.9510565162951538 -0.30901699437494673 0
    outer loop
      vertex -27.893294576647545 -11.043736580540337 -3
      vertex -29.057494833858932 -7.460696614945645 0
      vertex -29.057494833858932 -7.460696614945645 -3
    endloop
  endfacet
  facet normal -0.9822872507286886 -0.18738131458572513 0
    outer loop
      vertex -29.057494833858932 -7.460696614945645 -3
      vertex -29.763441039434337 -3.759997006929122 0
      vertex -29.763441039434337 -3.759997006929122 -3
    endloop
  endfacet
  facet normal -0.9980267284282716 -0.06279051952931293 0
    outer loop
      vertex -29.763441039434337 -3.759997006929122 -3
      vertex -30 0 0
      vertex -30 0 -3
    endloop
  endfacet
  facet normal 0 0 -1
    outer loop
      vertex -5.621439437571745 -29.468617521860658 -3
      vertex -1.86215169509321 -1.0237265574661452 -3
      vertex -1.8837155858794128 -29.940801852848146 -3
    endloop
  endfacet
  facet normal 0 0 -1
    outer loop
      vertex -1.8837155858794128 -29.940801852848146 -3
      vertex -0.13342985399979174 -2.120806797910077 -3
      vertex 1.8837155858794128 -29.940801852848146 -3
    endloop
  endfacet
  facet normal -0.4817536741017145 -0.876306680043864 0
    outer loop
      vertex -16.074803849369903 -25.32983776506045 -3
      vertex -12.773378746952172 -27.144811573980586 -3
      vertex -12.773378746952172 -27.144811573980586 0
    endloop
  endfacet
  facet normal -0.3681245526846781 -0.9297764858882513 0
    outer loop
      vertex -12.773378746952172 -27.144811573980586 -3
      vertex -9.270509831248422 -28.531695488854606 -3
      vertex -9.270509831248422 -28.531695488854606 0
    endloop
  endfacet
  facet normal -0.24868988716485493 -0.9685831611286311 0
    outer loop
      vertex -9.270509831248422 -28.531695488854606 -3
      vertex -5.621439437571745 -29.468617521860658 -3
      vertex -5.621439437571745 -29.468617521860658 0
    endloop
  endfacet
  facet normal -0.12533323356430498 -0.9921147013144778 0
    outer loop
      vertex -5.621439437571745 -29.468617521860658 -3
      vertex -1.8837155858794128 -29.940801852848146 -3
      vertex -1.8837155858794128 -29.940801852848146 0
    endloop
  endfacet
  facet normal 0 0 -1
    outer loop
      vertex -16.074803849369903 -25.32983776506045 -3
      vertex -12.773378746952181 27.144811573980583 -3
      vertex -12.773378746952172 -27.144811573980586 -3
    endloop
  endfacet
  facet normal 0 0 -1
    outer loop
      vertex -12.773378746952172 -27.144811573980586 -3
      vertex -9.270509831248422 28.531695488854606 -3
      vertex -9.270509831248422 -28.531695488854606 -3
    endloop
  endfacet
  facet normal 0 0 -1
    outer loop
      vertex -9.270509831248422 -28.531695488854606 -3
      vertex -5.621439437571738 29.46861752186066 -3
      vertex -5.621439437571745 -29.468617521860658 -3
    endloop
  endfacet
  facet normal 0 0 -1
    outer loop
      vertex -1.8837155858794128 -29.940801852848146 -3
      vertex -0.904780994575779 -1.9227574864902917 -3
      vertex -0.6566611130467632 -2.020995097127201 -3
    endloop
  endfacet
  facet normal 0 0 -1
    outer loop
      vertex -1.8837155858794128 -29.940801852848146 -3
      vertex -0.6566611130467632 -2.020995097127201 -3
      vertex -0.39818529349466525 -2.0873604077984633 -3
    endloop
  endfacet
  facet normal 0 0 -1
    outer loop
      vertex -1.8837155858794128 -29.940801852848146 -3
      vertex -0.39818529349466525 -2.0873604077984633 -3
      vertex -0.13342985399979174 -2.120806797910077 -3
    endloop
  endfacet
  facet normal 0 0 -1
    outer loop
      vertex -5.621439437571745 -29.468617521860658 -3
      vertex -1.9757750325125343 -0.7822646744549404 -3
      vertex -1.86215169509321 -1.0237265574661452 -3
    endloop
  endfacet
  facet normal 0 0 -1
    outer loop
      vertex -5.621439437571745 -29.468617521860658 -3
      vertex -2.125 0 -3
      vertex -2.1082437402932657 -0.26633312132414616 -3
    endloop
  endfacet
  facet normal 0 0 -1
    outer loop
      vertex -5.621439437571745 -29.468617521860658 -3
      vertex -2.1082437402932657 0.26633312132414616 -3
      vertex -2.125 0 -3
    endloop
  endfacet
  facet normal 0 0 -1
    outer loop
      vertex -5.621439437571745 -29.468617521860658 -3
      vertex -2.058239217398341 -0.5284660102253166 -3
      vertex -1.9757750325125343 -0.7822646744549404 -3
    endloop
  endfacet
  facet normal 0 0 -1
    outer loop
      vertex -5.621439437571745 -29.468617521860658 -3
      vertex -2.1082437402932657 -0.26633312132414616 -3
      vertex -2.058239217398341 -0.5284660102253166 -3
    endloop
  endfacet
  facet normal 0 0 -1
    outer loop
      vertex -1.8837155858794128 -29.940801852848146 -3
      vertex -1.7191611130467632 -1.2490436611215054 -3
      vertex -1.5490583332704997 -1.454662600098463 -3
    endloop
  endfacet
  facet normal 0 0 -1
    outer loop
      vertex -1.8837155858794128 -29.940801852848146 -3
      vertex -1.5490583332704997 -1.454662600098463 -3
      vertex -1.3545259782159655 -1.6373406408985525 -3
    endloop
  endfacet
  facet normal 0 0 -1
    outer loop
      vertex -1.8837155858794128 -29.940801852848146 -3
      vertex -1.3545259782159655 -1.6373406408985525 -3
      vertex -1.138631939330368 -1.7941968416917817 -3
    endloop
  endfacet
  facet normal 0 0 -1
    outer loop
      vertex -1.8837155858794128 -29.940801852848146 -3
      vertex -1.86215169509321 -1.0237265574661452 -3
      vertex -1.7191611130467632 -1.2490436611215054 -3
    endloop
  endfacet
  facet normal 0 0 -1
    outer loop
      vertex -1.8837155858794128 -29.940801852848146 -3
      vertex -1.138631939330368 -1.7941968416917817 -3
      vertex -0.904780994575779 -1.9227574864902917 -3
    endloop
  endfacet
  facet normal -0.7705132427757891 -0.6374239897486899 0
    outer loop
      vertex -21.86905882264235 -20.536413177860656 -3
      vertex -21.86905882264235 -20.536413177860656 0
      vertex -24.270509831248425 -17.633557568774194 0
    endloop
  endfacet
  facet normal -0.8443279255020157 -0.5358267949789955 0
    outer loop
      vertex -24.270509831248425 -17.633557568774194 -3
      vertex -24.270509831248425 -17.633557568774194 0
      vertex -26.289200401315902 -14.452610223051462 0
    endloop
  endfacet
  facet normal -0.5877852522924732 -0.8090169943749473 0
    outer loop
      vertex -19.122719692460688 -23.11539728327368 -3
      vertex -16.074803849369903 -25.32983776506045 0
      vertex -19.122719692460688 -23.11539728327368 0
    endloop
  endfacet
  facet normal -0.6845471059286886 -0.7289686274214117 0
    outer loop
      vertex -21.86905882264235 -20.536413177860656 -3
      vertex -19.122719692460688 -23.11539728327368 0
      vertex -21.86905882264235 -20.536413177860656 0
    endloop
  endfacet
  facet normal -0.9048270524660189 -0.42577929156507377 0
    outer loop
      vertex -26.289200401315902 -14.452610223051462 -3
      vertex -26.289200401315902 -14.452610223051462 0
      vertex -27.893294576647545 -11.043736580540337 0
    endloop
  endfacet
  facet normal -0.9510565162951538 -0.30901699437494673 0
    outer loop
      vertex -27.893294576647545 -11.043736580540337 -3
      vertex -27.893294576647545 -11.043736580540337 0
      vertex -29.057494833858932 -7.460696614945645 0
    endloop
  endfacet
  facet normal -0.9822872507286886 -0.18738131458572513 0
    outer loop
      vertex -29.057494833858932 -7.460696614945645 -3
      vertex -29.057494833858932 -7.460696614945645 0
      vertex -29.763441039434337 -3.759997006929122 0
    endloop
  endfacet
  facet normal -0.9980267284282716 -0.06279051952931293 0
    outer loop
      vertex -29.763441039434337 -3.759997006929122 -3
      vertex -29.763441039434337 -3.759997006929122 0
      vertex -30 0 0
    endloop
  endfacet
  facet normal 0 0 1
    outer loop
      vertex -26.289200401315902 -14.452610223051462 0
      vertex -27.893294576647545 11.043736580540337 0
      vertex -27.893294576647545 -11.043736580540337 0
    endloop
  endfacet
  facet normal 0 0 1
    outer loop
      vertex -29.057494833858932 -7.460696614945645 0
      vertex -29.763441039434337 3.759997006929122 0
      vertex -29.763441039434337 -3.759997006929122 0
    endloop
  endfacet
  facet normal 0 0 1
    outer loop
      vertex -27.893294576647545 -11.043736580540337 0
      vertex -29.057494833858932 7.460696614945645 0
      vertex -29.057494833858932 -7.460696614945645 0
    endloop
  endfacet
  facet normal 0 0 1
    outer loop
      vertex -24.270509831248425 -17.633557568774194 0
      vertex -26.289200401315902 14.452610223051462 0
      vertex -26.289200401315902 -14.452610223051462 0
    endloop
  endfacet
  facet normal 0 0 1
    outer loop
      vertex -24.270509831248425 -17.633557568774194 0
      vertex -21.86905882264235 -20.536413177860656 0
      vertex -24.270509831248425 17.633557568774194 0
    endloop
  endfacet
  facet normal 0 0 1
    outer loop
      vertex -19.122719692460688 -23.11539728327368 0
      vertex -21.86905882264235 20.536413177860656 0
      vertex -21.86905882264235 -20.536413177860656 0
    endloop
  endfacet
  facet normal 0 0 1
    outer loop
      vertex -19.122719692460688 -23.11539728327368 0
      vertex -16.074803849369903 -25.32983776506045 0
      vertex -19.122719692460688 23.11539728327368 0
    endloop
  endfacet
  facet normal -0.3681245526846781 -0.9297764858882513 0
    outer loop
      vertex -12.773378746952172 -27.144811573980586 -3
      vertex -9.270509831248422 -28.531695488854606 0
      vertex -12.773378746952172 -27.144811573980586 0
    endloop
  endfacet
  facet normal -0.4817536741017145 -0.876306680043864 0
    outer loop
      vertex -16.074803849369903 -25.32983776506045 -3
      vertex -12.773378746952172 -27.144811573980586 0
      vertex -16.074803849369903 -25.32983776506045 0
    endloop
  endfacet
  facet normal -0.24868988716485493 -0.9685831611286311 0
    outer loop
      vertex -9.270509831248422 -28.531695488854606 -3
      vertex -5.621439437571745 -29.468617521860658 0
      vertex -9.270509831248422 -28.531695488854606 0
    endloop
  endfacet
  facet normal -0.12533323356430498 -0.9921147013144778 0
    outer loop
      vertex -5.621439437571745 -29.468617521860658 -3
      vertex -1.8837155858794128 -29.940801852848146 0
      vertex -5.621439437571745 -29.468617521860658 0
    endloop
  endfacet
  facet normal 0 -1 0
    outer loop
      vertex -1.8837155858794128 -29.940801852848146 -3
      vertex 1.8837155858794128 -29.940801852848146 0
      vertex -1.8837155858794128 -29.940801852848146 0
    endloop
  endfacet
  facet normal 0 0 1
    outer loop
      vertex -16.074803849369903 -25.32983776506045 0
      vertex -12.773378746952172 -27.144811573980586 0
      vertex -16.074803849369903 25.32983776506045 0
    endloop
  endfacet
  facet normal 0 0 1
    outer loop
      vertex -12.773378746952172 -27.144811573980586 0
      vertex -9.270509831248422 -28.531695488854606 0
      vertex -12.773378746952181 27.144811573980583 0
    endloop
  endfacet
  facet normal 0 0 1
    outer loop
      vertex -9.270509831248422 -28.531695488854606 0
      vertex -5.621439437571745 -29.468617521860658 0
      vertex -9.270509831248422 28.531695488854606 0
    endloop
  endfacet
  facet normal 0 0 1
    outer loop
      vertex -5.621439437571745 -29.468617521860658 0
      vertex -1.8837155858794128 -29.940801852848146 0
      vertex -5.621439437571738 29.46861752186066 0
    endloop
  endfacet
  facet normal 0 0 1
    outer loop
      vertex -1.8837155858794128 -29.940801852848146 0
      vertex -3.033813728906053 -2.204194696096774 0
      vertex -3.286150050164488 -1.8065762778814327 0
    endloop
  endfacet
  facet normal 0 0 1
    outer loop
      vertex -1.8837155858794128 -29.940801852848146 0
      vertex -2.733632352830294 -2.567051647232582 0
      vertex -3.033813728906053 -2.204194696096774 0
    endloop
  endfacet
  facet normal 0 0 1
    outer loop
      vertex -1.8837155858794128 -29.940801852848146 0
      vertex -2.390339961557586 -2.88942466040921 0
      vertex -2.733632352830294 -2.567051647232582 0
    endloop
  endfacet
  facet normal 0 0 1
    outer loop
      vertex -1.8837155858794128 -29.940801852848146 0
      vertex -2.009350481171238 -3.1662297206325563 0
      vertex -2.390339961557586 -2.88942466040921 0
    endloop
  endfacet
  facet normal 0 0 1
    outer loop
      vertex -1.8837155858794128 -29.940801852848146 0
      vertex -1.5966723433690215 -3.3931014467475733 0
      vertex -2.009350481171238 -3.1662297206325563 0
    endloop
  endfacet
  facet normal 0 0 1
    outer loop
      vertex -1.8837155858794128 -29.940801852848146 0
      vertex -1.1588137289060527 -3.5664619361068257 0
      vertex -1.5966723433690215 -3.3931014467475733 0
    endloop
  endfacet
  facet normal 0 0 1
    outer loop
      vertex -1.8837155858794128 -29.940801852848146 0
      vertex -0.7026799296964681 -3.6835771902325822 0
      vertex -1.1588137289060527 -3.5664619361068257 0
    endloop
  endfacet
  facet normal 0 0 1
    outer loop
      vertex -1.8837155858794128 -29.940801852848146 0
      vertex -0.2354644482349266 -3.7426002316060183 0
      vertex -0.7026799296964681 -3.6835771902325822 0
    endloop
  endfacet
  facet normal 0 0 1
    outer loop
      vertex -1.8837155858794128 -29.940801852848146 0
      vertex 0.2354644482349266 -3.7426002316060183 0
      vertex -0.2354644482349266 -3.7426002316060183 0
    endloop
  endfacet
  facet normal 0 0 1
    outer loop
      vertex -1.8837155858794128 -29.940801852848146 0
      vertex -3.286150050164488 -1.8065762778814327 0
      vertex -3.486661822080943 -1.380467072567542 0
    endloop
  endfacet
  facet normal 0 0 1
    outer loop
      vertex -1.8837155858794128 -29.940801852848146 0
      vertex -3.6321868542323665 -0.9325870768682056 0
      vertex -3.720430129929292 -0.46999962586614025 0
    endloop
  endfacet
  facet normal 0 0 1
    outer loop
      vertex -1.8837155858794128 -29.940801852848146 0
      vertex -3.486661822080943 -1.380467072567542 0
      vertex -3.6321868542323665 -0.9325870768682056 0
    endloop
  endfacet
  facet normal 0 0 1
    outer loop
      vertex -1.8837155858794128 -29.940801852848146 0
      vertex -3.720430129929292 -0.46999962586614025 0
      vertex -5.621439437571738 29.46861752186066 0
    endloop
  endfacet
  facet normal 0 0 -1
    outer loop
      vertex -29.763441039434337 -3.759997006929122 -3
      vertex -30 0 -3
      vertex -29.763441039434337 3.759997006929122 -3
    endloop
  endfacet
  facet normal 0 0 -1
    outer loop
      vertex -29.763441039434337 -3.759997006929122 -3
      vertex -29.763441039434337 3.759997006929122 -3
      vertex -29.057494833858932 7.460696614945645 -3
    endloop
  endfacet
  facet normal 0 0 -1
    outer loop
      vertex -29.057494833858932 -7.460696614945645 -3
      vertex -29.057494833858932 7.460696614945645 -3
      vertex -27.893294576647545 11.043736580540337 -3
    endloop
  endfacet
  facet normal 0 0 -1
    outer loop
      vertex -27.893294576647545 -11.043736580540337 -3
      vertex -27.893294576647545 11.043736580540337 -3
      vertex -26.289200401315902 14.452610223051462 -3
    endloop
  endfacet
  facet normal 0 0 -1
    outer loop
      vertex -26.289200401315902 -14.452610223051462 -3
      vertex -26.289200401315902 14.452610223051462 -3
      vertex -24.270509831248425 17.633557568774194 -3
    endloop
  endfacet
  facet normal 0 0 -1
    outer loop
      vertex -24.270509831248425 -17.633557568774194 -3
      vertex -24.270509831248425 17.633557568774194 -3
      vertex -21.86905882264235 20.536413177860656 -3
    endloop
  endfacet
  facet normal 0 0 -1
    outer loop
      vertex -21.86905882264235 -20.536413177860656 -3
      vertex -21.86905882264235 20.536413177860656 -3
      vertex -19.122719692460688 23.11539728327368 -3
    endloop
  endfacet
  facet normal 0 0 -1
    outer loop
      vertex -19.122719692460688 -23.11539728327368 -3
      vertex -19.122719692460688 23.11539728327368 -3
      vertex -16.074803849369903 25.32983776506045 -3
    endloop
  endfacet
  facet normal -0.9980267284282716 0.06279051952931293 0
    outer loop
      vertex -30 0 -3
      vertex -29.763441039434337 3.759997006929122 0
      vertex -29.763441039434337 3.759997006929122 -3
    endloop
  endfacet
  facet normal -0.9822872507286886 0.18738131458572513 0
    outer loop
      vertex -29.763441039434337 3.759997006929122 -3
      vertex -29.057494833858932 7.460696614945645 0
      vertex -29.057494833858932 7.460696614945645 -3
    endloop
  endfacet
  facet normal -0.9510565162951538 0.30901699437494673 0
    outer loop
      vertex -29.057494833858932 7.460696614945645 -3
      vertex -27.893294576647545 11.043736580540337 0
      vertex -27.893294576647545 11.043736580540337 -3
    endloop
  endfacet
  facet normal -0.9048270524660189 0.42577929156507377 0
    outer loop
      vertex -27.893294576647545 11.043736580540337 -3
      vertex -26.289200401315902 14.452610223051462 0
      vertex -26.289200401315902 14.452610223051462 -3
    endloop
  endfacet
  facet normal -0.8443279255020157 0.5358267949789955 0
    outer loop
      vertex -26.289200401315902 14.452610223051462 -3
      vertex -24.270509831248425 17.633557568774194 0
      vertex -24.270509831248425 17.633557568774194 -3
    endloop
  endfacet
  facet normal -0.7705132427757891 0.6374239897486899 0
    outer loop
      vertex -24.270509831248425 17.633557568774194 -3
      vertex -21.86905882264235 20.536413177860656 0
      vertex -21.86905882264235 20.536413177860656 -3
    endloop
  endfacet
  facet normal -0.6845471059286886 0.7289686274214117 0
    outer loop
      vertex -21.86905882264235 20.536413177860656 -3
      vertex -21.86905882264235 20.536413177860656 0
      vertex -19.122719692460688 23.11539728327368 -3
    endloop
  endfacet
  facet normal -0.5877852522924732 0.8090169943749473 0
    outer loop
      vertex -19.122719692460688 23.11539728327368 -3
      vertex -19.122719692460688 23.11539728327368 0
      vertex -16.074803849369903 25.32983776506045 -3
    endloop
  endfacet
  facet normal 0 0 -1
    outer loop
      vertex -16.074803849369903 -25.32983776506045 -3
      vertex -16.074803849369903 25.32983776506045 -3
      vertex -12.773378746952181 27.144811573980583 -3
    endloop
  endfacet
  facet normal 0 0 -1
    outer loop
      vertex -12.773378746952172 -27.144811573980586 -3
      vertex -12.773378746952181 27.144811573980583 -3
      vertex -9.270509831248422 28.531695488854606 -3
    endloop
  endfacet
  facet normal 0 0 -1
    outer loop
      vertex -9.270509831248422 -28.531695488854606 -3
      vertex -9.270509831248422 28.531695488854606 -3
      vertex -5.621439437571738 29.46861752186066 -3
    endloop
  endfacet
  facet normal 0 0 -1
    outer loop
      vertex -5.621439437571745 -29.468617521860658 -3
      vertex -1.8837155858793984 29.940801852848146 -3
      vertex -2.1082437402932657 0.26633312132414616 -3
    endloop
  endfacet
  facet normal 0 0 -1
    outer loop
      vertex -5.621439437571745 -29.468617521860658 -3
      vertex -5.621439437571738 29.46861752186066 -3
      vertex -1.8837155858793984 29.940801852848146 -3
    endloop
  endfacet
  facet normal 0 0 -1
    outer loop
      vertex -1.8837155858793984 29.940801852848146 -3
      vertex -2.058239217398341 0.5284660102253166 -3
      vertex -2.1082437402932657 0.26633312132414616 -3
    endloop
  endfacet
  facet normal 0 0 -1
    outer loop
      vertex -1.8837155858793984 29.940801852848146 -3
      vertex -1.9757750325125343 0.7822646744549404 -3
      vertex -2.058239217398341 0.5284660102253166 -3
    endloop
  endfacet
  facet normal 0 0 -1
    outer loop
      vertex -1.8837155858793984 29.940801852848146 -3
      vertex -1.86215169509321 1.0237265574661452 -3
      vertex -1.9757750325125343 0.7822646744549404 -3
    endloop
  endfacet
  facet normal 0 0 -1
    outer loop
      vertex -1.8837155858793984 29.940801852848146 -3
      vertex -1.7191611130467632 1.2490436611215054 -3
      vertex -1.86215169509321 1.0237265574661452 -3
    endloop
  endfacet
  facet normal 0 0 -1
    outer loop
      vertex -1.8837155858793984 29.940801852848146 -3
      vertex -1.5490583332704997 1.454662600098463 -3
      vertex -1.7191611130467632 1.2490436611215054 -3
    endloop
  endfacet
  facet normal 0 0 -1
    outer loop
      vertex -1.8837155858793984 29.940801852848146 -3
      vertex -1.3545259782159655 1.6373406408985525 -3
      vertex -1.5490583332704997 1.454662600098463 -3
    endloop
  endfacet
  facet normal 0 0 -1
    outer loop
      vertex -1.8837155858793984 29.940801852848146 -3
      vertex -1.138631939330368 1.7941968416917817 -3
      vertex -1.3545259782159655 1.6373406408985525 -3
    endloop
  endfacet
  facet normal 0 0 -1
    outer loop
      vertex -1.8837155858793984 29.940801852848146 -3
      vertex -0.9047809945757795 1.9227574864902914 -3
      vertex -1.138631939330368 1.7941968416917817 -3
    endloop
  endfacet
  facet normal 0 0 -1
    outer loop
      vertex -1.8837155858793984 29.940801852848146 -3
      vertex -0.6566611130467632 2.020995097127201 -3
      vertex -0.9047809945757795 1.9227574864902914 -3
    endloop
  endfacet
  facet normal 0 0 -1
    outer loop
      vertex -1.8837155858793984 29.940801852848146 -3
      vertex -0.3981852934946647 2.0873604077984633 -3
      vertex -0.6566611130467632 2.020995097127201 -3
    endloop
  endfacet
  facet normal 0 0 -1
    outer loop
      vertex -1.8837155858793984 29.940801852848146 -3
      vertex -0.1334298539997907 2.120806797910077 -3
      vertex -0.3981852934946647 2.0873604077984633 -3
    endloop
  endfacet
  facet normal 0 0 -1
    outer loop
      vertex -1.8837155858793984 29.940801852848146 -3
      vertex 0.13342985399978396 2.120806797910077 -3
      vertex -0.1334298539997907 2.120806797910077 -3
    endloop
  endfacet
  facet normal -0.48175367410171477 0.8763066800438638 0
    outer loop
      vertex -16.074803849369903 25.32983776506045 -3
      vertex -16.074803849369903 25.32983776506045 0
      vertex -12.773378746952181 27.144811573980583 -3
    endloop
  endfacet
  facet normal -0.36812455268467803 0.9297764858882512 0
    outer loop
      vertex -12.773378746952181 27.144811573980583 -3
      vertex -12.773378746952181 27.144811573980583 0
      vertex -9.270509831248422 28.531695488854606 -3
    endloop
  endfacet
  facet normal -0.24868988716485538 0.968583161128631 0
    outer loop
      vertex -9.270509831248422 28.531695488854606 -3
      vertex -9.270509831248422 28.531695488854606 0
      vertex -5.621439437571738 29.46861752186066 -3
    endloop
  endfacet
  facet normal -0.1253332335643038 0.9921147013144779 0
    outer loop
      vertex -5.621439437571738 29.46861752186066 -3
      vertex -5.621439437571738 29.46861752186066 0
      vertex -1.8837155858793984 29.940801852848146 -3
    endloop
  endfacet
  facet normal 0 1 0
    outer loop
      vertex -1.8837155858793984 29.940801852848146 -3
      vertex -1.8837155858793984 29.940801852848146 0
      vertex 1.8837155858793984 29.940801852848146 -3
    endloop
  endfacet
  facet normal -0.9980267284282716 0.06279051952931293 0
    outer loop
      vertex -30 0 -3
      vertex -30 0 0
      vertex -29.763441039434337 3.759997006929122 0
    endloop
  endfacet
  facet normal -0.9822872507286886 0.18738131458572513 0
    outer loop
      vertex -29.763441039434337 3.759997006929122 -3
      vertex -29.763441039434337 3.759997006929122 0
      vertex -29.057494833858932 7.460696614945645 0
    endloop
  endfacet
  facet normal -0.9510565162951538 0.30901699437494673 0
    outer loop
      vertex -29.057494833858932 7.460696614945645 -3
      vertex -29.057494833858932 7.460696614945645 0
      vertex -27.893294576647545 11.043736580540337 0
    endloop
  endfacet
  facet normal -0.9048270524660189 0.42577929156507377 0
    outer loop
      vertex -27.893294576647545 11.043736580540337 -3
      vertex -27.893294576647545 11.043736580540337 0
      vertex -26.289200401315902 14.452610223051462 0
    endloop
  endfacet
  facet normal 0 0 1
    outer loop
      vertex -29.763441039434337 -3.759997006929122 0
      vertex -29.763441039434337 3.759997006929122 0
      vertex -30 0 0
    endloop
  endfacet
  facet normal 0 0 1
    outer loop
      vertex -29.057494833858932 -7.460696614945645 0
      vertex -29.057494833858932 7.460696614945645 0
      vertex -29.763441039434337 3.759997006929122 0
    endloop
  endfacet
  facet normal 0 0 1
    outer loop
      vertex -27.893294576647545 -11.043736580540337 0
      vertex -27.893294576647545 11.043736580540337 0
      vertex -29.057494833858932 7.460696614945645 0
    endloop
  endfacet
  facet normal 0 0 1
    outer loop
      vertex -26.289200401315902 -14.452610223051462 0
      vertex -26.289200401315902 14.452610223051462 0
      vertex -27.893294576647545 11.043736580540337 0
    endloop
  endfacet
  facet normal 0 0 1
    outer loop
      vertex -24.270509831248425 -17.633557568774194 0
      vertex -24.270509831248425 17.633557568774194 0
      vertex -26.289200401315902 14.452610223051462 0
    endloop
  endfacet
  facet normal 0 0 1
    outer loop
      vertex -21.86905882264235 -20.536413177860656 0
      vertex -21.86905882264235 20.536413177860656 0
      vertex -24.270509831248425 17.633557568774194 0
    endloop
  endfacet
  facet normal 0 0 1
    outer loop
      vertex -19.122719692460688 -23.11539728327368 0
      vertex -19.122719692460688 23.11539728327368 0
      vertex -21.86905882264235 20.536413177860656 0
    endloop
  endfacet
  facet normal 0 0 1
    outer loop
      vertex -16.074803849369903 -25.32983776506045 0
      vertex -16.074803849369903 25.32983776506045 0
      vertex -19.122719692460688 23.11539728327368 0
    endloop
  endfacet
  facet normal -0.8443279255020157 0.5358267949789955 0
    outer loop
      vertex -26.289200401315902 14.452610223051462 -3
      vertex -26.289200401315902 14.452610223051462 0
      vertex -24.270509831248425 17.633557568774194 0
    endloop
  endfacet
  facet normal -0.7705132427757891 0.6374239897486899 0
    outer loop
      vertex -24.270509831248425 17.633557568774194 -3
      vertex -24.270509831248425 17.633557568774194 0
      vertex -21.86905882264235 20.536413177860656 0
    endloop
  endfacet
  facet normal -0.6845471059286886 0.7289686274214117 0
    outer loop
      vertex -19.122719692460688 23.11539728327368 -3
      vertex -21.86905882264235 20.536413177860656 0
      vertex -19.122719692460688 23.11539728327368 0
    endloop
  endfacet
  facet normal -0.5877852522924732 0.8090169943749473 0
    outer loop
      vertex -16.074803849369903 25.32983776506045 -3
      vertex -19.122719692460688 23.11539728327368 0
      vertex -16.074803849369903 25.32983776506045 0
    endloop
  endfacet
  facet normal 0 0 1
    outer loop
      vertex -12.773378746952172 -27.144811573980586 0
      vertex -12.773378746952181 27.144811573980583 0
      vertex -16.074803849369903 25.32983776506045 0
    endloop
  endfacet
  facet normal 0 0 1
    outer loop
      vertex -9.270509831248422 -28.531695488854606 0
      vertex -9.270509831248422 28.531695488854606 0
      vertex -12.773378746952181 27.144811573980583 0
    endloop
  endfacet
  facet normal 0 0 1
    outer loop
      vertex -5.621439437571745 -29.468617521860658 0
      vertex -5.621439437571738 29.46861752186066 0
      vertex -9.270509831248422 28.531695488854606 0
    endloop
  endfacet
  facet normal 0 0 1
    outer loop
      vertex -5.621439437571738 29.46861752186066 0
      vertex -3.720430129929292 -0.46999962586614025 0
      vertex -3.75 0 0
    endloop
  endfacet
  facet normal 0 0 1
    outer loop
      vertex -5.621439437571738 29.46861752186066 0
      vertex -3.75 0 0
      vertex -3.720430129929292 0.46999962586614025 0
    endloop
  endfacet
  facet normal 0 0 1
    outer loop
      vertex -5.621439437571738 29.46861752186066 0
      vertex -3.720430129929292 0.46999962586614025 0
      vertex -3.6321868542323665 0.9325870768682056 0
    endloop
  endfacet
  facet normal 0 0 1
    outer loop
      vertex -5.621439437571738 29.46861752186066 0
      vertex -3.6321868542323665 0.9325870768682056 0
      vertex -3.486661822080943 1.380467072567542 0
    endloop
  endfacet
  facet normal 0 0 1
    outer loop
      vertex -5.621439437571738 29.46861752186066 0
      vertex -3.486661822080943 1.380467072567542 0
      vertex -3.286150050164488 1.8065762778814327 0
    endloop
  endfacet
  facet normal 0 0 1
    outer loop
      vertex -5.621439437571738 29.46861752186066 0
      vertex -3.286150050164488 1.8065762778814327 0
      vertex -3.033813728906053 2.204194696096774 0
    endloop
  endfacet
  facet normal 0 0 1
    outer loop
      vertex -5.621439437571738 29.46861752186066 0
      vertex -3.033813728906053 2.204194696096774 0
      vertex -2.733632352830294 2.567051647232582 0
    endloop
  endfacet
  facet normal 0 0 1
    outer loop
      vertex -5.621439437571738 29.46861752186066 0
      vertex -2.733632352830294 2.567051647232582 0
      vertex -2.390339961557586 2.88942466040921 0
    endloop
  endfacet
  facet normal 0 0 1
    outer loop
      vertex -5.621439437571738 29.46861752186066 0
      vertex -2.390339961557586 2.88942466040921 0
      vertex -2.009350481171238 3.1662297206325563 0
    endloop
  endfacet
  facet normal 0 0 1
    outer loop
      vertex -5.621439437571738 29.46861752186066 0
      vertex -2.009350481171238 3.1662297206325563 0
      vertex -1.5966723433690226 3.393101446747573 0
    endloop
  endfacet
  facet normal 0 0 1
    outer loop
      vertex -1.8837155858793984 29.940801852848146 0
      vertex -1.5966723433690226 3.393101446747573 0
      vertex -1.1588137289060527 3.5664619361068257 0
    endloop
  endfacet
  facet normal 0 0 1
    outer loop
      vertex -1.8837155858793984 29.940801852848146 0
      vertex -1.1588137289060527 3.5664619361068257 0
      vertex -0.7026799296964672 3.6835771902325827 0
    endloop
  endfacet
  facet normal 0 0 1
    outer loop
      vertex -1.8837155858793984 29.940801852848146 0
      vertex -0.7026799296964672 3.6835771902325827 0
      vertex -0.2354644482349185 3.7426002316060183 0
    endloop
  endfacet
  facet normal -0.48175367410171477 0.8763066800438638 0
    outer loop
      vertex -12.773378746952181 27.144811573980583 -3
      vertex -16.074803849369903 25.32983776506045 0
      vertex -12.773378746952181 27.144811573980583 0
    endloop
  endfacet
  facet normal -0.36812455268467803 0.9297764858882512 0
    outer loop
      vertex -9.270509831248422 28.531695488854606 -3
      vertex -12.773378746952181 27.144811573980583 0
      vertex -9.270509831248422 28.531695488854606 0
    endloop
  endfacet
  facet normal -0.24868988716485538 0.968583161128631 0
    outer loop
      vertex -5.621439437571738 29.46861752186066 -3
      vertex -9.270509831248422 28.531695488854606 0
      vertex -5.621439437571738 29.46861752186066 0
    endloop
  endfacet
  facet normal -0.1253332335643038 0.9921147013144779 0
    outer loop
      vertex -1.8837155858793984 29.940801852848146 -3
      vertex -5.621439437571738 29.46861752186066 0
      vertex -1.8837155858793984 29.940801852848146 0
    endloop
  endfacet
  facet normal 0 0 1
    outer loop
      vertex -5.621439437571738 29.46861752186066 0
      vertex -1.5966723433690226 3.393101446747573 0
      vertex -1.8837155858793984 29.940801852848146 0
    endloop
  endfacet
  facet normal 0 0 1
    outer loop
      vertex -1.8837155858793984 29.940801852848146 0
      vertex -0.2354644482349185 3.7426002316060183 0
      vertex 1.8837155858793984 29.940801852848146 0
    endloop
  endfacet
  facet normal 0 -1 0
    outer loop
      vertex -1.8837155858794128 -29.940801852848146 -3
      vertex 1.8837155858794128 -29.940801852848146 -3
      vertex 1.8837155858794128 -29.940801852848146 0
    endloop
  endfacet
  facet normal 0.12533323356430498 -0.9921147013144778 0
    outer loop
      vertex 1.8837155858794128 -29.940801852848146 -3
      vertex 5.621439437571745 -29.468617521860658 -3
      vertex 5.621439437571745 -29.468617521860658 0
    endloop
  endfacet
  facet normal 0.24868988716485493 -0.9685831611286311 0
    outer loop
      vertex 5.621439437571745 -29.468617521860658 -3
      vertex 9.270509831248422 -28.531695488854606 -3
      vertex 9.270509831248422 -28.531695488854606 0
    endloop
  endfacet
  facet normal 0.3681245526846781 -0.9297764858882513 0
    outer loop
      vertex 9.270509831248422 -28.531695488854606 -3
      vertex 12.773378746952172 -27.144811573980586 -3
      vertex 12.773378746952172 -27.144811573980586 0
    endloop
  endfacet
  facet normal 0.4817536741017143 -0.876306680043864 0
    outer loop
      vertex 12.773378746952172 -27.144811573980586 -3
      vertex 16.074803849369886 -25.32983776506046 -3
      vertex 16.074803849369886 -25.32983776506046 0
    endloop
  endfacet
  facet normal 0 0 -1
    outer loop
      vertex 1.8837155858794128 -29.940801852848146 -3
      vertex -0.13342985399979174 -2.120806797910077 -3
      vertex 0.13342985399979174 -2.120806797910077 -3
    endloop
  endfacet
  facet normal 0 0 -1
    outer loop
      vertex 1.8837155858794128 -29.940801852848146 -3
      vertex 0.13342985399979174 -2.120806797910077 -3
      vertex 0.39818529349466525 -2.0873604077984633 -3
    endloop
  endfacet
  facet normal 0 0 -1
    outer loop
      vertex 1.8837155858794128 -29.940801852848146 -3
      vertex 0.39818529349466525 -2.0873604077984633 -3
      vertex 0.6566611130467632 -2.020995097127201 -3
    endloop
  endfacet
  facet normal 0 0 -1
    outer loop
      vertex 1.8837155858794128 -29.940801852848146 -3
      vertex 0.6566611130467632 -2.020995097127201 -3
      vertex 0.904780994575779 -1.9227574864902917 -3
    endloop
  endfacet
  facet normal 0 0 -1
    outer loop
      vertex 1.8837155858794128 -29.940801852848146 -3
      vertex 0.904780994575779 -1.9227574864902917 -3
      vertex 1.138631939330367 -1.7941968416917824 -3
    endloop
  endfacet
  facet normal 0 0 -1
    outer loop
      vertex 1.8837155858794128 -29.940801852848146 -3
      vertex 1.138631939330367 -1.7941968416917824 -3
      vertex 1.3545259782159662 -1.6373406408985516 -3
    endloop
  endfacet
  facet normal 0 0 -1
    outer loop
      vertex 1.8837155858794128 -29.940801852848146 -3
      vertex 1.3545259782159662 -1.6373406408985516 -3
      vertex 1.5490583332704997 -1.454662600098463 -3
    endloop
  endfacet
  facet normal 0 0 -1
    outer loop
      vertex 1.8837155858794128 -29.940801852848146 -3
      vertex 1.5490583332704997 -1.454662600098463 -3
      vertex 1.7191611130467632 -1.2490436611215054 -3
    endloop
  endfacet
  facet normal 0 0 -1
    outer loop
      vertex 1.8837155858794128 -29.940801852848146 -3
      vertex 1.7191611130467632 -1.2490436611215054 -3
      vertex 1.86215169509321 -1.0237265574661452 -3
    endloop
  endfacet
  facet normal 0 0 -1
    outer loop
      vertex 1.8837155858794128 -29.940801852848146 -3
      vertex 1.86215169509321 -1.0237265574661452 -3
      vertex 1.9757750325125338 -0.7822646744549415 -3
    endloop
  endfacet
  facet normal 0 0 -1
    outer loop
      vertex 1.8837155858794128 -29.940801852848146 -3
      vertex 1.9757750325125338 -0.7822646744549415 -3
      vertex 2.0582392173983415 -0.5284660102253157 -3
    endloop
  endfacet
  facet normal 0 0 -1
    outer loop
      vertex 1.8837155858794128 -29.940801852848146 -3
      vertex 2.0582392173983415 -0.5284660102253157 -3
      vertex 2.1082437402932657 -0.26633312132414616 -3
    endloop
  endfacet
  facet normal 0 0 -1
    outer loop
      vertex 1.8837155858794128 -29.940801852848146 -3
      vertex 5.621439437571738 29.46861752186066 -3
      vertex 5.621439437571745 -29.468617521860658 -3
    endloop
  endfacet
  facet normal 0 0 -1
    outer loop
      vertex 1.8837155858794128 -29.940801852848146 -3
      vertex 2.1082437402932657 -0.26633312132414616 -3
      vertex 5.621439437571738 29.46861752186066 -3
    endloop
  endfacet
  facet normal 0 0 -1
    outer loop
      vertex 5.621439437571745 -29.468617521860658 -3
      vertex 9.270509831248422 28.531695488854606 -3
      vertex 9.270509831248422 -28.531695488854606 -3
    endloop
  endfacet
  facet normal 0 0 -1
    outer loop
      vertex 9.270509831248422 -28.531695488854606 -3
      vertex 12.773378746952181 27.144811573980583 -3
      vertex 12.773378746952172 -27.144811573980586 -3
    endloop
  endfacet
  facet normal 0 0 -1
    outer loop
      vertex 12.773378746952172 -27.144811573980586 -3
      vertex 16.0748038493699 25.329837765060454 -3
      vertex 16.074803849369886 -25.32983776506046 -3
    endloop
  endfacet
  facet normal 0.5877852522924728 -0.8090169943749477 0
    outer loop
      vertex 16.074803849369886 -25.32983776506046 -3
      vertex 19.1227196924607 -23.115397283273673 -3
      vertex 19.1227196924607 -23.115397283273673 0
    endloop
  endfacet
  facet normal 0.684547105928689 -0.7289686274214113 0
    outer loop
      vertex 19.1227196924607 -23.115397283273673 -3
      vertex 21.86905882264235 -20.536413177860656 -3
      vertex 21.86905882264235 -20.536413177860656 0
    endloop
  endfacet
  facet normal 0.7705132427757891 -0.6374239897486899 0
    outer loop
      vertex 21.86905882264235 -20.536413177860656 -3
      vertex 24.270509831248425 -17.633557568774194 -3
      vertex 21.86905882264235 -20.536413177860656 0
    endloop
  endfacet
  facet normal 0.8443279255020157 -0.5358267949789955 0
    outer loop
      vertex 24.270509831248425 -17.633557568774194 -3
      vertex 26.289200401315902 -14.452610223051462 -3
      vertex 24.270509831248425 -17.633557568774194 0
    endloop
  endfacet
  facet normal 0 0 -1
    outer loop
      vertex 16.074803849369886 -25.32983776506046 -3
      vertex 19.12271969246069 23.115397283273673 -3
      vertex 19.1227196924607 -23.115397283273673 -3
    endloop
  endfacet
  facet normal 0 0 -1
    outer loop
      vertex 19.1227196924607 -23.115397283273673 -3
      vertex 21.869058822642348 20.536413177860663 -3
      vertex 21.86905882264235 -20.536413177860656 -3
    endloop
  endfacet
  facet normal 0 0 -1
    outer loop
      vertex 21.86905882264235 -20.536413177860656 -3
      vertex 24.270509831248425 17.633557568774194 -3
      vertex 24.270509831248425 -17.633557568774194 -3
    endloop
  endfacet
  facet normal 0 0 -1
    outer loop
      vertex 24.270509831248425 -17.633557568774194 -3
      vertex 26.289200401315906 14.45261022305146 -3
      vertex 26.289200401315902 -14.452610223051462 -3
    endloop
  endfacet
  facet normal 0 0 -1
    outer loop
      vertex 26.289200401315902 -14.452610223051462 -3
      vertex 27.89329457664754 11.043736580540338 -3
      vertex 27.893294576647538 -11.043736580540351 -3
    endloop
  endfacet
  facet normal 0 0 -1
    outer loop
      vertex 27.893294576647538 -11.043736580540351 -3
      vertex 29.057494833858932 7.460696614945644 -3
      vertex 29.057494833858936 -7.460696614945633 -3
    endloop
  endfacet
  facet normal 0 0 -1
    outer loop
      vertex 29.057494833858936 -7.460696614945633 -3
      vertex 29.763441039434337 3.7599970069291277 -3
      vertex 29.763441039434337 -3.759997006929122 -3
    endloop
  endfacet
  facet normal 0.904827052466019 -0.4257792915650737 0
    outer loop
      vertex 26.289200401315902 -14.452610223051462 -3
      vertex 27.893294576647538 -11.043736580540351 -3
      vertex 26.289200401315902 -14.452610223051462 0
    endloop
  endfacet
  facet normal 0.9510565162951536 -0.30901699437494723 0
    outer loop
      vertex 27.893294576647538 -11.043736580540351 -3
      vertex 29.057494833858936 -7.460696614945633 -3
      vertex 27.893294576647538 -11.043736580540351 0
    endloop
  endfacet
  facet normal 0.9822872507286887 -0.18738131458572485 0
    outer loop
      vertex 29.057494833858936 -7.460696614945633 -3
      vertex 29.763441039434337 -3.759997006929122 -3
      vertex 29.057494833858936 -7.460696614945633 0
    endloop
  endfacet
  facet normal 0.9980267284282716 -0.06279051952931293 0
    outer loop
      vertex 29.763441039434337 -3.759997006929122 -3
      vertex 30 0 -3
      vertex 29.763441039434337 -3.759997006929122 0
    endloop
  endfacet
  facet normal 0.12533323356430498 -0.9921147013144778 0
    outer loop
      vertex 1.8837155858794128 -29.940801852848146 -3
      vertex 5.621439437571745 -29.468617521860658 0
      vertex 1.8837155858794128 -29.940801852848146 0
    endloop
  endfacet
  facet normal 0.24868988716485493 -0.9685831611286311 0
    outer loop
      vertex 5.621439437571745 -29.468617521860658 -3
      vertex 9.270509831248422 -28.531695488854606 0
      vertex 5.621439437571745 -29.468617521860658 0
    endloop
  endfacet
  facet normal 0.3681245526846781 -0.9297764858882513 0
    outer loop
      vertex 9.270509831248422 -28.531695488854606 -3
      vertex 12.773378746952172 -27.144811573980586 0
      vertex 9.270509831248422 -28.531695488854606 0
    endloop
  endfacet
  facet normal 0.4817536741017143 -0.876306680043864 0
    outer loop
      vertex 12.773378746952172 -27.144811573980586 -3
      vertex 16.074803849369886 -25.32983776506046 0
      vertex 12.773378746952172 -27.144811573980586 0
    endloop
  endfacet
  facet normal 0 0 1
    outer loop
      vertex -1.8837155858794128 -29.940801852848146 0
      vertex 1.8837155858794128 -29.940801852848146 0
      vertex 0.2354644482349266 -3.7426002316060183 0
    endloop
  endfacet
  facet normal 0 0 1
    outer loop
      vertex 1.8837155858794128 -29.940801852848146 0
      vertex 5.621439437571745 -29.468617521860658 0
      vertex 1.5966723433690215 -3.3931014467475733 0
    endloop
  endfacet
  facet normal 0 0 1
    outer loop
      vertex 1.8837155858794128 -29.940801852848146 0
      vertex 0.7026799296964681 -3.6835771902325822 0
      vertex 0.2354644482349266 -3.7426002316060183 0
    endloop
  endfacet
  facet normal 0 0 1
    outer loop
      vertex 1.8837155858794128 -29.940801852848146 0
      vertex 1.1588137289060527 -3.5664619361068257 0
      vertex 0.7026799296964681 -3.6835771902325822 0
    endloop
  endfacet
  facet normal 0 0 1
    outer loop
      vertex 1.8837155858794128 -29.940801852848146 0
      vertex 1.5966723433690215 -3.3931014467475733 0
      vertex 1.1588137289060527 -3.5664619361068257 0
    endloop
  endfacet
  facet normal 0 0 1
    outer loop
      vertex 5.621439437571745 -29.468617521860658 0
      vertex 2.0093504811712357 -3.1662297206325576 0
      vertex 1.5966723433690215 -3.3931014467475733 0
    endloop
  endfacet
  facet normal 0 0 1
    outer loop
      vertex 5.621439437571745 -29.468617521860658 0
      vertex 2.3903399615575873 -2.889424660409209 0
      vertex 2.0093504811712357 -3.1662297206325576 0
    endloop
  endfacet
  facet normal 0 0 1
    outer loop
      vertex 5.621439437571745 -29.468617521860658 0
      vertex 2.733632352830294 -2.567051647232582 0
      vertex 2.3903399615575873 -2.889424660409209 0
    endloop
  endfacet
  facet normal 0 0 1
    outer loop
      vertex 5.621439437571745 -29.468617521860658 0
      vertex 3.033813728906053 -2.204194696096774 0
      vertex 2.733632352830294 -2.567051647232582 0
    endloop
  endfacet
  facet normal 0 0 1
    outer loop
      vertex 5.621439437571745 -29.468617521860658 0
      vertex 3.286150050164488 -1.8065762778814327 0
      vertex 3.033813728906053 -2.204194696096774 0
    endloop
  endfacet
  facet normal 0 0 1
    outer loop
      vertex 5.621439437571745 -29.468617521860658 0
      vertex 3.486661822080942 -1.3804670725675439 0
      vertex 3.286150050164488 -1.8065762778814327 0
    endloop
  endfacet
  facet normal 0 0 1
    outer loop
      vertex 5.621439437571745 -29.468617521860658 0
      vertex 3.632186854232367 -0.9325870768682041 0
      vertex 3.486661822080942 -1.3804670725675439 0
    endloop
  endfacet
  facet normal 0 0 1
    outer loop
      vertex 5.621439437571745 -29.468617521860658 0
      vertex 3.720430129929292 -0.46999962586614025 0
      vertex 3.632186854232367 -0.9325870768682041 0
    endloop
  endfacet
  facet normal 0 0 1
    outer loop
      vertex 5.621439437571745 -29.468617521860658 0
      vertex 3.75 0 0
      vertex 3.720430129929292 -0.46999962586614025 0
    endloop
  endfacet
  facet normal 0 0 1
    outer loop
      vertex 5.621439437571745 -29.468617521860658 0
      vertex 3.720430129929292 0.46999962586614097 0
      vertex 3.75 0 0
    endloop
  endfacet
  facet normal 0 0 1
    outer loop
      vertex 5.621439437571745 -29.468617521860658 0
      vertex 9.270509831248422 -28.531695488854606 0
      vertex 5.621439437571738 29.46861752186066 0
    endloop
  endfacet
  facet normal 0 0 1
    outer loop
      vertex 9.270509831248422 -28.531695488854606 0
      vertex 12.773378746952172 -27.144811573980586 0
      vertex 9.270509831248422 28.531695488854606 0
    endloop
  endfacet
  facet normal 0 0 1
    outer loop
      vertex 12.773378746952172 -27.144811573980586 0
      vertex 16.074803849369886 -25.32983776506046 0
      vertex 12.773378746952181 27.144811573980583 0
    endloop
  endfacet
  facet normal 0.5877852522924728 -0.8090169943749477 0
    outer loop
      vertex 16.074803849369886 -25.32983776506046 -3
      vertex 19.1227196924607 -23.115397283273673 0
      vertex 16.074803849369886 -25.32983776506046 0
    endloop
  endfacet
  facet normal 0.684547105928689 -0.7289686274214113 0
    outer loop
      vertex 19.1227196924607 -23.115397283273673 -3
      vertex 21.86905882264235 -20.536413177860656 0
      vertex 19.1227196924607 -23.115397283273673 0
    endloop
  endfacet
  facet normal 0.7705132427757891 -0.6374239897486899 0
    outer loop
      vertex 24.270509831248425 -17.633557568774194 -3
      vertex 24.270509831248425 -17.633557568774194 0
      vertex 21.86905882264235 -20.536413177860656 0
    endloop
  endfacet
  facet normal 0.8443279255020157 -0.5358267949789955 0
    outer loop
      vertex 26.289200401315902 -14.452610223051462 -3
      vertex 26.289200401315902 -14.452610223051462 0
      vertex 24.270509831248425 -17.633557568774194 0
    endloop
  endfacet
  facet normal 0.904827052466019 -0.4257792915650737 0
    outer loop
      vertex 27.893294576647538 -11.043736580540351 -3
      vertex 27.893294576647538 -11.043736580540351 0
      vertex 26.289200401315902 -14.452610223051462 0
    endloop
  endfacet
  facet normal 0.9510565162951536 -0.30901699437494723 0
    outer loop
      vertex 29.057494833858936 -7.460696614945633 -3
      vertex 29.057494833858936 -7.460696614945633 0
      vertex 27.893294576647538 -11.043736580540351 0
    endloop
  endfacet
  facet normal 0.9822872507286887 -0.18738131458572485 0
    outer loop
      vertex 29.763441039434337 -3.759997006929122 -3
      vertex 29.763441039434337 -3.759997006929122 0
      vertex 29.057494833858936 -7.460696614945633 0
    endloop
  endfacet
  facet normal 0.9980267284282716 -0.06279051952931293 0
    outer loop
      vertex 29.763441039434337 -3.759997006929122 0
      vertex 30 0 -3
      vertex 30 0 0
    endloop
  endfacet
  facet normal 0 0 1
    outer loop
      vertex 16.074803849369886 -25.32983776506046 0
      vertex 19.1227196924607 -23.115397283273673 0
      vertex 16.0748038493699 25.329837765060454 0
    endloop
  endfacet
  facet normal 0 0 1
    outer loop
      vertex 19.1227196924607 -23.115397283273673 0
      vertex 21.86905882264235 -20.536413177860656 0
      vertex 19.12271969246069 23.115397283273673 0
    endloop
  endfacet
  facet normal 0 0 1
    outer loop
      vertex 21.86905882264235 -20.536413177860656 0
      vertex 24.270509831248425 -17.633557568774194 0
      vertex 21.869058822642348 20.536413177860663 0
    endloop
  endfacet
  facet normal 0 0 1
    outer loop
      vertex 24.270509831248425 -17.633557568774194 0
      vertex 26.289200401315902 -14.452610223051462 0
      vertex 24.270509831248425 17.633557568774194 0
    endloop
  endfacet
  facet normal 0 0 1
    outer loop
      vertex 26.289200401315902 -14.452610223051462 0
      vertex 27.893294576647538 -11.043736580540351 0
      vertex 26.289200401315906 14.45261022305146 0
    endloop
  endfacet
  facet normal 0 0 1
    outer loop
      vertex 27.893294576647538 -11.043736580540351 0
      vertex 29.057494833858936 -7.460696614945633 0
      vertex 27.89329457664754 11.043736580540338 0
    endloop
  endfacet
  facet normal 0 0 1
    outer loop
      vertex 29.057494833858936 -7.460696614945633 0
      vertex 29.763441039434337 -3.759997006929122 0
      vertex 29.057494833858932 7.460696614945644 0
    endloop
  endfacet
  facet normal 0 0 -1
    outer loop
      vertex 1.8837155858793984 29.940801852848146 -3
      vertex 1.1386319393303679 1.794196841691782 -3
      vertex 0.9047809945757795 1.9227574864902914 -3
    endloop
  endfacet
  facet normal 0 0 -1
    outer loop
      vertex 1.8837155858793984 29.940801852848146 -3
      vertex 1.8621516950932102 1.0237265574661452 -3
      vertex 1.7191611130467632 1.2490436611215054 -3
    endloop
  endfacet
  facet normal 0 0 -1
    outer loop
      vertex 1.8837155858793984 29.940801852848146 -3
      vertex 1.3545259782159658 1.637340640898552 -3
      vertex 1.1386319393303679 1.794196841691782 -3
    endloop
  endfacet
  facet normal 0 0 -1
    outer loop
      vertex 1.8837155858793984 29.940801852848146 -3
      vertex 1.5490583332704995 1.4546626000984635 -3
      vertex 1.3545259782159658 1.637340640898552 -3
    endloop
  endfacet
  facet normal 0 0 -1
    outer loop
      vertex 1.8837155858793984 29.940801852848146 -3
      vertex 1.7191611130467632 1.2490436611215054 -3
      vertex 1.5490583332704995 1.4546626000984635 -3
    endloop
  endfacet
  facet normal 0 0 -1
    outer loop
      vertex 5.621439437571738 29.46861752186066 -3
      vertex 2.1082437402932657 0.26633312132414655 -3
      vertex 2.058239217398341 0.5284660102253165 -3
    endloop
  endfacet
  facet normal 0 0 -1
    outer loop
      vertex 5.621439437571738 29.46861752186066 -3
      vertex 2.058239217398341 0.5284660102253165 -3
      vertex 1.975775032512534 0.7822646744549407 -3
    endloop
  endfacet
  facet normal 0 0 -1
    outer loop
      vertex 5.621439437571738 29.46861752186066 -3
      vertex 2.1082437402932657 -0.26633312132414616 -3
      vertex 2.125 0 -3
    endloop
  endfacet
  facet normal 0 0 -1
    outer loop
      vertex 5.621439437571738 29.46861752186066 -3
      vertex 2.125 0 -3
      vertex 2.1082437402932657 0.26633312132414655 -3
    endloop
  endfacet
  facet normal 0 0 -1
    outer loop
      vertex 5.621439437571738 29.46861752186066 -3
      vertex 1.975775032512534 0.7822646744549407 -3
      vertex 1.8621516950932102 1.0237265574661452 -3
    endloop
  endfacet
  facet normal 0 0 -1
    outer loop
      vertex 1.8837155858793984 29.940801852848146 -3
      vertex 0.3981852934946647 2.0873604077984633 -3
      vertex 0.13342985399978396 2.120806797910077 -3
    endloop
  endfacet
  facet normal 0 0 -1
    outer loop
      vertex 1.8837155858793984 29.940801852848146 -3
      vertex 0.6566611130467632 2.020995097127201 -3
      vertex 0.3981852934946647 2.0873604077984633 -3
    endloop
  endfacet
  facet normal 0 0 -1
    outer loop
      vertex 1.8837155858793984 29.940801852848146 -3
      vertex 0.9047809945757795 1.9227574864902914 -3
      vertex 0.6566611130467632 2.020995097127201 -3
    endloop
  endfacet
  facet normal 0 0 -1
    outer loop
      vertex 5.621439437571745 -29.468617521860658 -3
      vertex 5.621439437571738 29.46861752186066 -3
      vertex 9.270509831248422 28.531695488854606 -3
    endloop
  endfacet
  facet normal 0 0 -1
    outer loop
      vertex 9.270509831248422 -28.531695488854606 -3
      vertex 9.270509831248422 28.531695488854606 -3
      vertex 12.773378746952181 27.144811573980583 -3
    endloop
  endfacet
  facet normal 0 0 -1
    outer loop
      vertex 12.773378746952172 -27.144811573980586 -3
      vertex 12.773378746952181 27.144811573980583 -3
      vertex 16.0748038493699 25.329837765060454 -3
    endloop
  endfacet
  facet normal 0 0 -1
    outer loop
      vertex -1.8837155858793984 29.940801852848146 -3
      vertex 1.8837155858793984 29.940801852848146 -3
      vertex 0.13342985399978396 2.120806797910077 -3
    endloop
  endfacet
  facet normal 0 0 -1
    outer loop
      vertex 1.8837155858793984 29.940801852848146 -3
      vertex 5.621439437571738 29.46861752186066 -3
      vertex 1.8621516950932102 1.0237265574661452 -3
    endloop
  endfacet
  facet normal 0.1253332335643038 0.9921147013144779 0
    outer loop
      vertex 1.8837155858793984 29.940801852848146 -3
      vertex 1.8837155858793984 29.940801852848146 0
      vertex 5.621439437571738 29.46861752186066 -3
    endloop
  endfacet
  facet normal 0.24868988716485538 0.968583161128631 0
    outer loop
      vertex 5.621439437571738 29.46861752186066 -3
      vertex 5.621439437571738 29.46861752186066 0
      vertex 9.270509831248422 28.531695488854606 -3
    endloop
  endfacet
  facet normal 0.36812455268467803 0.9297764858882512 0
    outer loop
      vertex 9.270509831248422 28.531695488854606 -3
      vertex 9.270509831248422 28.531695488854606 0
      vertex 12.773378746952181 27.144811573980583 -3
    endloop
  endfacet
  facet normal 0.4817536741017145 0.8763066800438641 0
    outer loop
      vertex 12.773378746952181 27.144811573980583 -3
      vertex 12.773378746952181 27.144811573980583 0
      vertex 16.0748038493699 25.329837765060454 -3
    endloop
  endfacet
  facet normal 0 0 -1
    outer loop
      vertex 19.1227196924607 -23.115397283273673 -3
      vertex 19.12271969246069 23.115397283273673 -3
      vertex 21.869058822642348 20.536413177860663 -3
    endloop
  endfacet
  facet normal 0 0 -1
    outer loop
      vertex 16.074803849369886 -25.32983776506046 -3
      vertex 16.0748038493699 25.329837765060454 -3
      vertex 19.12271969246069 23.115397283273673 -3
    endloop
  endfacet
  facet normal 0 0 -1
    outer loop
      vertex 21.86905882264235 -20.536413177860656 -3
      vertex 21.869058822642348 20.536413177860663 -3
      vertex 24.270509831248425 17.633557568774194 -3
    endloop
  endfacet
  facet normal 0 0 -1
    outer loop
      vertex 24.270509831248425 -17.633557568774194 -3
      vertex 24.270509831248425 17.633557568774194 -3
      vertex 26.289200401315906 14.45261022305146 -3
    endloop
  endfacet
  facet normal 0 0 -1
    outer loop
      vertex 26.289200401315902 -14.452610223051462 -3
      vertex 26.289200401315906 14.45261022305146 -3
      vertex 27.89329457664754 11.043736580540338 -3
    endloop
  endfacet
  facet normal 0 0 -1
    outer loop
      vertex 29.763441039434337 -3.759997006929122 -3
      vertex 29.763441039434337 3.7599970069291277 -3
      vertex 30 0 -3
    endloop
  endfacet
  facet normal 0 0 -1
    outer loop
      vertex 29.057494833858936 -7.460696614945633 -3
      vertex 29.057494833858932 7.460696614945644 -3
      vertex 29.763441039434337 3.7599970069291277 -3
    endloop
  endfacet
  facet normal 0 0 -1
    outer loop
      vertex 27.893294576647538 -11.043736580540351 -3
      vertex 27.89329457664754 11.043736580540338 -3
      vertex 29.057494833858932 7.460696614945644 -3
    endloop
  endfacet
  facet normal 0.9980267284282716 0.06279051952931283 0
    outer loop
      vertex 30 0 -3
      vertex 29.763441039434337 3.7599970069291277 -3
      vertex 30 0 0
    endloop
  endfacet
  facet normal 0.9822872507286885 0.1873813145857255 0
    outer loop
      vertex 29.763441039434337 3.7599970069291277 -3
      vertex 29.057494833858932 7.460696614945644 -3
      vertex 29.763441039434337 3.7599970069291277 0
    endloop
  endfacet
  facet normal 0.9510565162951536 0.30901699437494734 0
    outer loop
      vertex 29.057494833858932 7.460696614945644 -3
      vertex 27.89329457664754 11.043736580540338 -3
      vertex 29.057494833858932 7.460696614945644 0
    endloop
  endfacet
  facet normal 0.9048270524660196 0.42577929156507266 0
    outer loop
      vertex 27.89329457664754 11.043736580540338 -3
      vertex 26.289200401315906 14.45261022305146 -3
      vertex 27.89329457664754 11.043736580540338 0
    endloop
  endfacet
  facet normal 0.6845471059286875 0.7289686274214127 0
    outer loop
      vertex 21.869058822642348 20.536413177860663 -3
      vertex 19.12271969246069 23.115397283273673 -3
      vertex 19.12271969246069 23.115397283273673 0
    endloop
  endfacet
  facet normal 0.5877852522924742 0.8090169943749467 0
    outer loop
      vertex 16.0748038493699 25.329837765060454 -3
      vertex 16.0748038493699 25.329837765060454 0
      vertex 19.12271969246069 23.115397283273673 -3
    endloop
  endfacet
  facet normal 0.7705132427757895 0.6374239897486894 0
    outer loop
      vertex 21.869058822642348 20.536413177860663 -3
      vertex 24.270509831248425 17.633557568774194 0
      vertex 24.270509831248425 17.633557568774194 -3
    endloop
  endfacet
  facet normal 0.8443279255020154 0.535826794978996 0
    outer loop
      vertex 26.289200401315906 14.45261022305146 -3
      vertex 24.270509831248425 17.633557568774194 -3
      vertex 26.289200401315906 14.45261022305146 0
    endloop
  endfacet
  facet normal 0 0 1
    outer loop
      vertex 5.621439437571745 -29.468617521860658 0
      vertex 1.8837155858793984 29.940801852848146 0
      vertex 3.720430129929292 0.46999962586614097 0
    endloop
  endfacet
  facet normal 0 0 1
    outer loop
      vertex 1.8837155858793984 29.940801852848146 0
      vertex 3.4866618220809427 1.3804670725675423 0
      vertex 3.6321868542323665 0.9325870768682055 0
    endloop
  endfacet
  facet normal 0 0 1
    outer loop
      vertex 1.8837155858793984 29.940801852848146 0
      vertex 3.6321868542323665 0.9325870768682055 0
      vertex 3.720430129929292 0.46999962586614097 0
    endloop
  endfacet
  facet normal 0 0 1
    outer loop
      vertex 1.8837155858793984 29.940801852848146 0
      vertex 3.2861500501644882 1.8065762778814325 0
      vertex 3.4866618220809427 1.3804670725675423 0
    endloop
  endfacet
  facet normal 0 0 1
    outer loop
      vertex 1.8837155858793984 29.940801852848146 0
      vertex -0.2354644482349185 3.7426002316060183 0
      vertex 0.2354644482349248 3.7426002316060183 0
    endloop
  endfacet
  facet normal 0 0 1
    outer loop
      vertex 1.8837155858793984 29.940801852848146 0
      vertex 0.2354644482349248 3.7426002316060183 0
      vertex 0.7026799296964672 3.6835771902325827 0
    endloop
  endfacet
  facet normal 0 0 1
    outer loop
      vertex 1.8837155858793984 29.940801852848146 0
      vertex 0.7026799296964672 3.6835771902325827 0
      vertex 1.1588137289060527 3.5664619361068257 0
    endloop
  endfacet
  facet normal 0 0 1
    outer loop
      vertex 1.8837155858793984 29.940801852848146 0
      vertex 1.1588137289060527 3.5664619361068257 0
      vertex 1.5966723433690226 3.393101446747573 0
    endloop
  endfacet
  facet normal 0 0 1
    outer loop
      vertex 1.8837155858793984 29.940801852848146 0
      vertex 1.5966723433690226 3.393101446747573 0
      vertex 2.0093504811712375 3.1662297206325567 0
    endloop
  endfacet
  facet normal 0 0 1
    outer loop
      vertex 1.8837155858793984 29.940801852848146 0
      vertex 2.0093504811712375 3.1662297206325567 0
      vertex 2.3903399615575864 2.889424660409209 0
    endloop
  endfacet
  facet normal 0 0 1
    outer loop
      vertex 1.8837155858793984 29.940801852848146 0
      vertex 2.3903399615575864 2.889424660409209 0
      vertex 2.7336323528302935 2.567051647232583 0
    endloop
  endfacet
  facet normal 0 0 1
    outer loop
      vertex 1.8837155858793984 29.940801852848146 0
      vertex 2.7336323528302935 2.567051647232583 0
      vertex 3.033813728906053 2.204194696096774 0
    endloop
  endfacet
  facet normal 0 0 1
    outer loop
      vertex 1.8837155858793984 29.940801852848146 0
      vertex 3.033813728906053 2.204194696096774 0
      vertex 3.2861500501644882 1.8065762778814325 0
    endloop
  endfacet
  facet normal 0 0 1
    outer loop
      vertex 5.621439437571745 -29.468617521860658 0
      vertex 5.621439437571738 29.46861752186066 0
      vertex 1.8837155858793984 29.940801852848146 0
    endloop
  endfacet
  facet normal 0 0 1
    outer loop
      vertex 9.270509831248422 -28.531695488854606 0
      vertex 9.270509831248422 28.531695488854606 0
      vertex 5.621439437571738 29.46861752186066 0
    endloop
  endfacet
  facet normal 0 0 1
    outer loop
      vertex 12.773378746952172 -27.144811573980586 0
      vertex 12.773378746952181 27.144811573980583 0
      vertex 9.270509831248422 28.531695488854606 0
    endloop
  endfacet
  facet normal 0 0 1
    outer loop
      vertex 16.074803849369886 -25.32983776506046 0
      vertex 16.0748038493699 25.329837765060454 0
      vertex 12.773378746952181 27.144811573980583 0
    endloop
  endfacet
  facet normal 0 1 0
    outer loop
      vertex -1.8837155858793984 29.940801852848146 0
      vertex 1.8837155858793984 29.940801852848146 0
      vertex 1.8837155858793984 29.940801852848146 -3
    endloop
  endfacet
  facet normal 0.1253332335643038 0.9921147013144779 0
    outer loop
      vertex 5.621439437571738 29.46861752186066 -3
      vertex 1.8837155858793984 29.940801852848146 0
      vertex 5.621439437571738 29.46861752186066 0
    endloop
  endfacet
  facet normal 0.24868988716485538 0.968583161128631 0
    outer loop
      vertex 9.270509831248422 28.531695488854606 -3
      vertex 5.621439437571738 29.46861752186066 0
      vertex 9.270509831248422 28.531695488854606 0
    endloop
  endfacet
  facet normal 0.4817536741017145 0.8763066800438641 0
    outer loop
      vertex 16.0748038493699 25.329837765060454 -3
      vertex 12.773378746952181 27.144811573980583 0
      vertex 16.0748038493699 25.329837765060454 0
    endloop
  endfacet
  facet normal 0.36812455268467803 0.9297764858882512 0
    outer loop
      vertex 12.773378746952181 27.144811573980583 -3
      vertex 9.270509831248422 28.531695488854606 0
      vertex 12.773378746952181 27.144811573980583 0
    endloop
  endfacet
  facet normal 0.9980267284282716 0.06279051952931283 0
    outer loop
      vertex 29.763441039434337 3.7599970069291277 -3
      vertex 29.763441039434337 3.7599970069291277 0
      vertex 30 0 0
    endloop
  endfacet
  facet normal 0.9822872507286885 0.1873813145857255 0
    outer loop
      vertex 29.057494833858932 7.460696614945644 -3
      vertex 29.057494833858932 7.460696614945644 0
      vertex 29.763441039434337 3.7599970069291277 0
    endloop
  endfacet
  facet normal 0.9510565162951536 0.30901699437494734 0
    outer loop
      vertex 27.89329457664754 11.043736580540338 -3
      vertex 27.89329457664754 11.043736580540338 0
      vertex 29.057494833858932 7.460696614945644 0
    endloop
  endfacet
  facet normal 0.9048270524660196 0.42577929156507266 0
    outer loop
      vertex 26.289200401315906 14.45261022305146 -3
      vertex 26.289200401315906 14.45261022305146 0
      vertex 27.89329457664754 11.043736580540338 0
    endloop
  endfacet
  facet normal 0 0 1
    outer loop
      vertex 19.1227196924607 -23.115397283273673 0
      vertex 19.12271969246069 23.115397283273673 0
      vertex 16.0748038493699 25.329837765060454 0
    endloop
  endfacet
  facet normal 0 0 1
    outer loop
      vertex 21.86905882264235 -20.536413177860656 0
      vertex 21.869058822642348 20.536413177860663 0
      vertex 19.12271969246069 23.115397283273673 0
    endloop
  endfacet
  facet normal 0 0 1
    outer loop
      vertex 24.270509831248425 -17.633557568774194 0
      vertex 24.270509831248425 17.633557568774194 0
      vertex 21.869058822642348 20.536413177860663 0
    endloop
  endfacet
  facet normal 0 0 1
    outer loop
      vertex 26.289200401315902 -14.452610223051462 0
      vertex 26.289200401315906 14.45261022305146 0
      vertex 24.270509831248425 17.633557568774194 0
    endloop
  endfacet
  facet normal 0 0 1
    outer loop
      vertex 29.763441039434337 -3.759997006929122 0
      vertex 30 0 0
      vertex 29.763441039434337 3.7599970069291277 0
    endloop
  endfacet
  facet normal 0 0 1
    outer loop
      vertex 29.057494833858936 -7.460696614945633 0
      vertex 29.057494833858932 7.460696614945644 0
      vertex 27.89329457664754 11.043736580540338 0
    endloop
  endfacet
  facet normal 0 0 1
    outer loop
      vertex 29.763441039434337 -3.759997006929122 0
      vertex 29.763441039434337 3.7599970069291277 0
      vertex 29.057494833858932 7.460696614945644 0
    endloop
  endfacet
  facet normal 0 0 1
    outer loop
      vertex 27.893294576647538 -11.043736580540351 0
      vertex 27.89329457664754 11.043736580540338 0
      vertex 26.289200401315906 14.45261022305146 0
    endloop
  endfacet
  facet normal 0.6845471059286875 0.7289686274214127 0
    outer loop
      vertex 21.869058822642348 20.536413177860663 -3
      vertex 19.12271969246069 23.115397283273673 0
      vertex 21.869058822642348 20.536413177860663 0
    endloop
  endfacet
  facet normal 0.5877852522924742 0.8090169943749467 0
    outer loop
      vertex 19.12271969246069 23.115397283273673 -3
      vertex 16.0748038493699 25.329837765060454 0
      vertex 19.12271969246069 23.115397283273673 0
    endloop
  endfacet
  facet normal 0.8443279255020154 0.535826794978996 0
    outer loop
      vertex 24.270509831248425 17.633557568774194 -3
      vertex 24.270509831248425 17.633557568774194 0
      vertex 26.289200401315906 14.45261022305146 0
    endloop
  endfacet
  facet normal 0.7705132427757895 0.6374239897486894 0
    outer loop
      vertex 21.869058822642348 20.536413177860663 -3
      vertex 21.869058822642348 20.536413177860663 0
      vertex 24.270509831248425 17.633557568774194 0
    endloop
  endfacet
endsolid OpenSCAD_Model
