solid OpenSCAD_Model
  facet normal 0.709163648656064 0.45004893655395495 0.5427180429389399
    outer loop
      vertex -2.7973318382426067 -2.032380545426667 -3
      vertex -3.0299988667670505 -1.6657559731440081 -3
      vertex -4.732056072236863 -2.6014698401492633 0
    endloop
  endfacet
  facet normal 0.7599777699499789 0.35761839305380266 0.5427180429389398
    outer loop
      vertex -3.0299988667670505 -1.6657559731440081 -3
      vertex -3.2148810031289923 -1.2728614340904825 -3
      vertex -5.020793023796558 -1.9878725844972607 0
    endloop
  endfacet
  facet normal 0.79880658782307 0.2595479938643164 0.5427180429389398
    outer loop
      vertex -3.2148810031289923 -1.2728614340904825 -3
      vertex -3.3490625455947667 -0.8598931098507866 -3
      vertex -5.230349070094608 -1.3429253906902163 0
    endloop
  endfacet
  facet normal 0.825037748622265 0.1573843677651346 0.5427180429389399
    outer loop
      vertex -3.3490625455947667 -0.8598931098507866 -3
      vertex -3.4304273710835216 -0.43336375759349754 -3
      vertex -5.357419387098181 -0.676799461247242 0
    endloop
  endfacet
  facet normal 0.8382575712720258 0.052738696169431304 0.54271804293894
    outer loop
      vertex -3.4304273710835216 -0.43336375759349754 -3
      vertex -3.4576923076923074 0 -3
      vertex -5.4 0 0
    endloop
  endfacet
  facet normal 0.40463211385114917 0.7360230827283055 0.5427180429389398
    outer loop
      vertex -1.8527241872543003 -2.9194261731781213 -3
      vertex -2.8934646928865826 -4.559370797710881 0
      vertex -1.472213781219231 -3.12861353910366 -3
    endloop
  endfacet
  facet normal 0.3091933158393733 0.7809331721144778 0.5427180429389398
    outer loop
      vertex -1.472213781219231 -3.12861353910366 -3
      vertex -1.668691769624716 -5.135705187993829 0
      vertex -1.0684856843964528 -3.2884608005743963 -3
    endloop
  endfacet
  facet normal 0.2088783545336764 0.8135274788695406 0.5427180429389398
    outer loop
      vertex -1.0684856843964528 -3.2884608005743963 -3
      vertex -1.0118590987629141 -5.304351153934919 0
      vertex -0.6479069300483331 -3.396447070788812 -3
    endloop
  endfacet
  facet normal 0.1052692567991022 0.8332919713050713 0.5427180429389398
    outer loop
      vertex -1.0118590987629141 -5.304351153934919 0
      vertex -0.2171102963725118 -3.4508693417577545 -3
      vertex -0.6479069300483331 -3.396447070788812 -3
    endloop
  endfacet
  facet normal 0 0.8399149515686257 0.5427180429389398
    outer loop
      vertex -0.3390688054582943 -5.389344333512667 0
      vertex 0.2171102963725118 -3.4508693417577545 -3
      vertex -0.2171102963725118 -3.4508693417577545 -3
    endloop
  endfacet
  facet normal 0.5749613493225372 0.6122716493957028 0.5427180429389399
    outer loop
      vertex -2.5205492155840354 -2.366953262422658 -3
      vertex -3.4420895446429243 -4.160771510989263 0
      vertex -2.2040160260925847 -2.6641977125209024 -3
    endloop
  endfacet
  facet normal 0.6471655929890124 0.5353819394784501 0.54271804293894
    outer loop
      vertex -2.5205492155840354 -2.366953262422658 -3
      vertex -2.7973318382426067 -2.032380545426667 -3
      vertex -4.368691769624717 -3.174040362379355 0
    endloop
  endfacet
  facet normal 0.4936896217119849 0.6795054696486293 0.5427180429389398
    outer loop
      vertex -1.8527241872543003 -2.9194261731781213 -3
      vertex -2.2040160260925847 -2.6641977125209024 -3
      vertex -2.8934646928865826 -4.559370797710881 0
    endloop
  endfacet
  facet normal 0.6471655929890117 0.5353819394784513 0.5427180429389398
    outer loop
      vertex -3.9364305880756234 -3.6965543720149183 0
      vertex -2.5205492155840354 -2.366953262422658 -3
      vertex -4.368691769624717 -3.174040362379355 0
    endloop
  endfacet
  facet normal 0.7091636486560638 0.45004893655395484 0.5427180429389399
    outer loop
      vertex -4.732056072236863 -2.6014698401492633 0
      vertex -4.368691769624717 -3.174040362379355 0
      vertex -2.7973318382426067 -2.032380545426667 -3
    endloop
  endfacet
  facet normal 0.759977769949979 0.35761839305380216 0.5427180429389399
    outer loop
      vertex -3.0299988667670505 -1.6657559731440081 -3
      vertex -5.020793023796558 -1.9878725844972607 0
      vertex -4.732056072236863 -2.6014698401492633 0
    endloop
  endfacet
  facet normal 0.79880658782307 0.25954799386431593 0.5427180429389398
    outer loop
      vertex -5.230349070094608 -1.3429253906902163 0
      vertex -5.020793023796558 -1.9878725844972607 0
      vertex -3.2148810031289923 -1.2728614340904825 -3
    endloop
  endfacet
  facet normal 0.825037748622265 0.15738436776513542 0.5427180429389399
    outer loop
      vertex -3.3490625455947667 -0.8598931098507866 -3
      vertex -5.357419387098181 -0.676799461247242 0
      vertex -5.230349070094608 -1.3429253906902163 0
    endloop
  endfacet
  facet normal 0.8382575712720258 0.052738696169431463 0.54271804293894
    outer loop
      vertex -3.4304273710835216 -0.43336375759349754 -3
      vertex -5.4 0 0
      vertex -5.357419387098181 -0.676799461247242 0
    endloop
  endfacet
  facet normal 0.49368962171198433 0.6795054696486297 0.5427180429389399
    outer loop
      vertex -3.4420895446429243 -4.160771510989263 0
      vertex -2.8934646928865826 -4.559370797710881 0
      vertex -2.2040160260925847 -2.6641977125209024 -3
    endloop
  endfacet
  facet normal 0.3091933158393729 0.7809331721144781 0.5427180429389399
    outer loop
      vertex -2.2992081744513913 -4.886066083316506 0
      vertex -1.668691769624716 -5.135705187993829 0
      vertex -1.472213781219231 -3.12861353910366 -3
    endloop
  endfacet
  facet normal 0.40463211385115 0.7360230827283049 0.5427180429389399
    outer loop
      vertex -2.8934646928865826 -4.559370797710881 0
      vertex -2.2992081744513913 -4.886066083316506 0
      vertex -1.472213781219231 -3.12861353910366 -3
    endloop
  endfacet
  facet normal 0.20887835453367626 0.8135274788695407 0.5427180429389398
    outer loop
      vertex -1.668691769624716 -5.135705187993829 0
      vertex -1.0118590987629141 -5.304351153934919 0
      vertex -1.0684856843964528 -3.2884608005743963 -3
    endloop
  endfacet
  facet normal 0.10526925679910268 0.8332919713050713 0.5427180429389398
    outer loop
      vertex -1.0118590987629141 -5.304351153934919 0
      vertex -0.3390688054582943 -5.389344333512667 0
      vertex -0.2171102963725118 -3.4508693417577545 -3
    endloop
  endfacet
  facet normal 0.5749613493225377 0.6122716493957023 0.5427180429389398
    outer loop
      vertex -3.9364305880756234 -3.6965543720149183 0
      vertex -3.4420895446429243 -4.160771510989263 0
      vertex -2.5205492155840354 -2.366953262422658 -3
    endloop
  endfacet
  facet normal 0.8382575712720258 -0.052738696169431304 0.5427180429389399
    outer loop
      vertex -3.4304273710835216 0.4333637575934975 -3
      vertex -5.357419387098181 0.676799461247242 0
      vertex -3.4576923076923074 0 -3
    endloop
  endfacet
  facet normal 0.8250377486222651 -0.1573843677651346 0.5427180429389398
    outer loop
      vertex -3.3490625455947667 0.8598931098507866 -3
      vertex -5.230349070094608 1.3429253906902163 0
      vertex -3.4304273710835216 0.4333637575934975 -3
    endloop
  endfacet
  facet normal 0.7988065878230702 -0.2595479938643156 0.5427180429389398
    outer loop
      vertex -3.2148810031289927 1.2728614340904825 -3
      vertex -5.230349070094608 1.3429253906902163 0
      vertex -3.3490625455947667 0.8598931098507866 -3
    endloop
  endfacet
  facet normal 0.7599777699499789 -0.35761839305380255 0.5427180429389398
    outer loop
      vertex -3.029998866767051 1.6657559731440084 -3
      vertex -5.020793023796558 1.9878725844972607 0
      vertex -3.2148810031289927 1.2728614340904825 -3
    endloop
  endfacet
  facet normal 0.7091636486560638 -0.45004893655395517 0.5427180429389398
    outer loop
      vertex -2.797331838242607 2.032380545426667 -3
      vertex -4.732056072236863 2.6014698401492633 0
      vertex -3.029998866767051 1.6657559731440084 -3
    endloop
  endfacet
  facet normal 0.6471655929890117 -0.5353819394784515 0.5427180429389397
    outer loop
      vertex -4.368691769624717 3.174040362379355 0
      vertex -2.797331838242607 2.032380545426667 -3
      vertex -2.520549215584035 2.366953262422658 -3
    endloop
  endfacet
  facet normal 0.5749613493225376 -0.6122716493957024 0.5427180429389399
    outer loop
      vertex -2.2040160260925847 2.6641977125209024 -3
      vertex -3.4420895446429243 4.160771510989263 0
      vertex -2.520549215584035 2.366953262422658 -3
    endloop
  endfacet
  facet normal 0.4936896217119849 -0.6795054696486293 0.5427180429389398
    outer loop
      vertex -2.8934646928865826 4.559370797710881 0
      vertex -2.2040160260925847 2.6641977125209024 -3
      vertex -1.8527241872543003 2.9194261731781213 -3
    endloop
  endfacet
  facet normal 0.4046321138511495 -0.7360230827283051 0.5427180429389399
    outer loop
      vertex -1.8527241872543003 2.9194261731781213 -3
      vertex -1.4722137812192324 3.1286135391036596 -3
      vertex -2.299208174451393 4.886066083316505 0
    endloop
  endfacet
  facet normal 0.30919331583937243 -0.7809331721144781 0.5427180429389399
    outer loop
      vertex -1.4722137812192324 3.1286135391036596 -3
      vertex -1.0684856843964528 3.288460800574396 -3
      vertex -1.668691769624716 5.135705187993829 0
    endloop
  endfacet
  facet normal 0.2088783545336768 -0.8135274788695405 0.5427180429389399
    outer loop
      vertex -1.0684856843964528 3.288460800574396 -3
      vertex -0.6479069300483323 3.396447070788812 -3
      vertex -1.0118590987629128 5.3043511539349195 0
    endloop
  endfacet
  facet normal 0.10526925679910228 -0.8332919713050713 0.5427180429389398
    outer loop
      vertex -0.6479069300483323 3.396447070788812 -3
      vertex -0.21711029637251014 3.4508693417577545 -3
      vertex -0.3390688054582914 5.389344333512667 0
    endloop
  endfacet
  facet normal 0.8382575712720258 -0.052738696169431463 0.54271804293894
    outer loop
      vertex -5.357419387098181 0.676799461247242 0
      vertex -5.4 0 0
      vertex -3.4576923076923074 0 -3
    endloop
  endfacet
  facet normal 0.825037748622265 -0.15738436776513542 0.5427180429389399
    outer loop
      vertex -5.230349070094608 1.3429253906902163 0
      vertex -5.357419387098181 0.676799461247242 0
      vertex -3.4304273710835216 0.4333637575934975 -3
    endloop
  endfacet
  facet normal 0.79880658782307 -0.25954799386431593 0.5427180429389397
    outer loop
      vertex -5.020793023796558 1.9878725844972607 0
      vertex -5.230349070094608 1.3429253906902163 0
      vertex -3.2148810031289927 1.2728614340904825 -3
    endloop
  endfacet
  facet normal 0.7599777699499791 -0.3576183930538022 0.5427180429389399
    outer loop
      vertex -4.732056072236863 2.6014698401492633 0
      vertex -5.020793023796558 1.9878725844972607 0
      vertex -3.029998866767051 1.6657559731440084 -3
    endloop
  endfacet
  facet normal 0.7091636486560638 -0.45004893655395484 0.5427180429389398
    outer loop
      vertex -4.368691769624717 3.174040362379355 0
      vertex -4.732056072236863 2.6014698401492633 0
      vertex -2.797331838242607 2.032380545426667 -3
    endloop
  endfacet
  facet normal 0.6471655929890116 -0.5353819394784511 0.5427180429389399
    outer loop
      vertex -3.9364305880756234 3.6965543720149183 0
      vertex -4.368691769624717 3.174040362379355 0
      vertex -2.520549215584035 2.366953262422658 -3
    endloop
  endfacet
  facet normal 0.5749613493225377 -0.6122716493957022 0.5427180429389398
    outer loop
      vertex -3.4420895446429243 4.160771510989263 0
      vertex -3.9364305880756234 3.6965543720149183 0
      vertex -2.520549215584035 2.366953262422658 -3
    endloop
  endfacet
  facet normal 0.49368962171198433 -0.6795054696486297 0.5427180429389399
    outer loop
      vertex -2.8934646928865826 4.559370797710881 0
      vertex -3.4420895446429243 4.160771510989263 0
      vertex -2.2040160260925847 2.6641977125209024 -3
    endloop
  endfacet
  facet normal 0.40463211385115005 -0.7360230827283047 0.5427180429389398
    outer loop
      vertex -2.299208174451393 4.886066083316505 0
      vertex -2.8934646928865826 4.559370797710881 0
      vertex -1.8527241872543003 2.9194261731781213 -3
    endloop
  endfacet
  facet normal 0.3091933158393731 -0.780933172114478 0.5427180429389399
    outer loop
      vertex -1.668691769624716 5.135705187993829 0
      vertex -2.299208174451393 4.886066083316505 0
      vertex -1.4722137812192324 3.1286135391036596 -3
    endloop
  endfacet
  facet normal 0.20887835453367687 -0.8135274788695404 0.5427180429389399
    outer loop
      vertex -1.0118590987629128 5.3043511539349195 0
      vertex -1.668691769624716 5.135705187993829 0
      vertex -1.0684856843964528 3.288460800574396 -3
    endloop
  endfacet
  facet normal 0.10526925679910133 -0.8332919713050713 0.5427180429389399
    outer loop
      vertex -0.3390688054582914 5.389344333512667 0
      vertex -1.0118590987629128 5.3043511539349195 0
      vertex -0.6479069300483323 3.396447070788812 -3
    endloop
  endfacet
  facet normal 0 -0.8399149515686258 0.5427180429389399
    outer loop
      vertex -0.3390688054582914 5.389344333512667 0
      vertex -0.21711029637251014 3.4508693417577545 -3
      vertex 0.3390688054582917 5.389344333512667 0
    endloop
  endfacet
  facet normal -0.10526925679910248 0.8332919713050712 0.5427180429389398
    outer loop
      vertex 0.6479069300483331 -3.396447070788812 -3
      vertex 0.2171102963725118 -3.4508693417577545 -3
      vertex 0.3390688054582943 -5.389344333512667 0
    endloop
  endfacet
  facet normal -0.2088783545336764 0.8135274788695406 0.5427180429389398
    outer loop
      vertex 1.0684856843964528 -3.2884608005743963 -3
      vertex 0.6479069300483331 -3.396447070788812 -3
      vertex 1.0118590987629141 -5.304351153934919 0
    endloop
  endfacet
  facet normal -0.3091933158393733 0.7809331721144778 0.5427180429389398
    outer loop
      vertex 1.472213781219231 -3.12861353910366 -3
      vertex 1.0684856843964528 -3.2884608005743963 -3
      vertex 1.668691769624716 -5.135705187993829 0
    endloop
  endfacet
  facet normal -0.4046321138511492 0.7360230827283053 0.5427180429389399
    outer loop
      vertex 1.8527241872542985 -2.919426173178122 -3
      vertex 1.472213781219231 -3.12861353910366 -3
      vertex 2.2992081744513913 -4.886066083316506 0
    endloop
  endfacet
  facet normal -0.49368962171198527 0.679505469648629 0.5427180429389398
    outer loop
      vertex 2.2040160260925856 -2.664197712520901 -3
      vertex 1.8527241872542985 -2.919426173178122 -3
      vertex 2.89346469288658 -4.559370797710883 0
    endloop
  endfacet
  facet normal -0.5749613493225366 0.612271649395703 0.5427180429389401
    outer loop
      vertex 3.442089544642926 -4.160771510989261 0
      vertex 2.520549215584035 -2.366953262422658 -3
      vertex 2.2040160260925856 -2.664197712520901 -3
    endloop
  endfacet
  facet normal -0.647165592989012 0.5353819394784506 0.5427180429389399
    outer loop
      vertex 2.520549215584035 -2.366953262422658 -3
      vertex 4.368691769624717 -3.174040362379355 0
      vertex 2.7973318382426067 -2.032380545426667 -3
    endloop
  endfacet
  facet normal -0.709163648656064 0.45004893655395495 0.5427180429389399
    outer loop
      vertex 2.7973318382426067 -2.032380545426667 -3
      vertex 4.732056072236863 -2.6014698401492633 0
      vertex 3.0299988667670505 -1.6657559731440081 -3
    endloop
  endfacet
  facet normal -0.7599777699499787 0.35761839305380316 0.5427180429389399
    outer loop
      vertex 3.0299988667670505 -1.6657559731440081 -3
      vertex 5.020793023796557 -1.9878725844972633 0
      vertex 3.214881003128992 -1.272861434090484 -3
    endloop
  endfacet
  facet normal -0.7988065878230699 0.2595479938643162 0.5427180429389398
    outer loop
      vertex 3.214881003128992 -1.272861434090484 -3
      vertex 5.230349070094609 -1.342925390690214 0
      vertex 3.349062545594767 -0.8598931098507852 -3
    endloop
  endfacet
  facet normal -0.8250377486222652 0.15738436776513431 0.5427180429389399
    outer loop
      vertex 3.349062545594767 -0.8598931098507852 -3
      vertex 5.230349070094609 -1.342925390690214 0
      vertex 3.4304273710835216 -0.43336375759349754 -3
    endloop
  endfacet
  facet normal -0.8382575712720258 0.052738696169431304 0.54271804293894
    outer loop
      vertex 3.4304273710835216 -0.43336375759349754 -3
      vertex 5.357419387098181 -0.676799461247242 0
      vertex 3.4576923076923074 0 -3
    endloop
  endfacet
  facet normal 0 0.8399149515686258 0.5427180429389399
    outer loop
      vertex -0.3390688054582943 -5.389344333512667 0
      vertex 0.3390688054582943 -5.389344333512667 0
      vertex 0.2171102963725118 -3.4508693417577545 -3
    endloop
  endfacet
  facet normal -0.10526925679910268 0.8332919713050713 0.5427180429389398
    outer loop
      vertex 0.3390688054582943 -5.389344333512667 0
      vertex 1.0118590987629141 -5.304351153934919 0
      vertex 0.6479069300483331 -3.396447070788812 -3
    endloop
  endfacet
  facet normal -0.20887835453367626 0.8135274788695407 0.5427180429389398
    outer loop
      vertex 1.0118590987629141 -5.304351153934919 0
      vertex 1.668691769624716 -5.135705187993829 0
      vertex 1.0684856843964528 -3.2884608005743963 -3
    endloop
  endfacet
  facet normal -0.3091933158393729 0.7809331721144781 0.5427180429389399
    outer loop
      vertex 1.668691769624716 -5.135705187993829 0
      vertex 2.2992081744513913 -4.886066083316506 0
      vertex 1.472213781219231 -3.12861353910366 -3
    endloop
  endfacet
  facet normal -0.40463211385114967 0.736023082728305 0.5427180429389398
    outer loop
      vertex 2.2992081744513913 -4.886066083316506 0
      vertex 2.89346469288658 -4.559370797710883 0
      vertex 1.8527241872542985 -2.919426173178122 -3
    endloop
  endfacet
  facet normal -0.49368962171198466 0.6795054696486296 0.54271804293894
    outer loop
      vertex 2.89346469288658 -4.559370797710883 0
      vertex 3.442089544642926 -4.160771510989261 0
      vertex 2.2040160260925856 -2.664197712520901 -3
    endloop
  endfacet
  facet normal -0.5749613493225377 0.6122716493957024 0.5427180429389399
    outer loop
      vertex 3.442089544642926 -4.160771510989261 0
      vertex 3.9364305880756234 -3.6965543720149183 0
      vertex 2.520549215584035 -2.366953262422658 -3
    endloop
  endfacet
  facet normal -0.6471655929890116 0.5353819394784511 0.5427180429389399
    outer loop
      vertex 3.9364305880756234 -3.6965543720149183 0
      vertex 4.368691769624717 -3.174040362379355 0
      vertex 2.520549215584035 -2.366953262422658 -3
    endloop
  endfacet
  facet normal -0.7091636486560638 0.45004893655395484 0.5427180429389398
    outer loop
      vertex 4.368691769624717 -3.174040362379355 0
      vertex 4.732056072236863 -2.6014698401492633 0
      vertex 2.7973318382426067 -2.032380545426667 -3
    endloop
  endfacet
  facet normal -0.7599777699499789 0.3576183930538026 0.5427180429389399
    outer loop
      vertex 4.732056072236863 -2.6014698401492633 0
      vertex 5.020793023796557 -1.9878725844972633 0
      vertex 3.0299988667670505 -1.6657559731440081 -3
    endloop
  endfacet
  facet normal -0.7988065878230699 0.25954799386431615 0.5427180429389399
    outer loop
      vertex 5.020793023796557 -1.9878725844972633 0
      vertex 5.230349070094609 -1.342925390690214 0
      vertex 3.214881003128992 -1.272861434090484 -3
    endloop
  endfacet
  facet normal -0.825037748622265 0.15738436776513484 0.5427180429389399
    outer loop
      vertex 5.230349070094609 -1.342925390690214 0
      vertex 5.357419387098181 -0.676799461247242 0
      vertex 3.4304273710835216 -0.43336375759349754 -3
    endloop
  endfacet
  facet normal -0.8382575712720258 0.052738696169431463 0.54271804293894
    outer loop
      vertex 5.357419387098181 -0.676799461247242 0
      vertex 5.4 0 0
      vertex 3.4576923076923074 0 -3
    endloop
  endfacet
  facet normal -0.49368962171198566 -0.6795054696486289 0.5427180429389399
    outer loop
      vertex 1.8527241872542999 2.9194261731781213 -3
      vertex 2.2040160260925847 2.6641977125209015 -3
      vertex 2.893464692886582 4.559370797710882 0
    endloop
  endfacet
  facet normal -0.6471655929890116 -0.5353819394784513 0.5427180429389399
    outer loop
      vertex 2.5205492155840346 2.3669532624226584 -3
      vertex 2.797331838242607 2.032380545426667 -3
      vertex 4.368691769624717 3.174040362379355 0
    endloop
  endfacet
  facet normal -0.5749613493225366 -0.6122716493957032 0.54271804293894
    outer loop
      vertex 2.2040160260925847 2.6641977125209015 -3
      vertex 2.5205492155840346 2.3669532624226584 -3
      vertex 3.4420895446429247 4.160771510989262 0
    endloop
  endfacet
  facet normal 0 -0.8399149515686258 0.5427180429389399
    outer loop
      vertex -0.21711029637251014 3.4508693417577545 -3
      vertex 0.2171102963725093 3.4508693417577545 -3
      vertex 0.3390688054582917 5.389344333512667 0
    endloop
  endfacet
  facet normal -0.10526925679910125 -0.8332919713050715 0.5427180429389398
    outer loop
      vertex 1.0118590987629128 5.3043511539349195 0
      vertex 0.2171102963725093 3.4508693417577545 -3
      vertex 0.6479069300483323 3.3964470707888124 -3
    endloop
  endfacet
  facet normal -0.20887835453367687 -0.8135274788695407 0.5427180429389398
    outer loop
      vertex 1.0684856843964528 3.2884608005743963 -3
      vertex 1.0118590987629128 5.3043511539349195 0
      vertex 0.6479069300483323 3.3964470707888124 -3
    endloop
  endfacet
  facet normal -0.3091933158393734 -0.7809331721144779 0.5427180429389399
    outer loop
      vertex 1.4722137812192322 3.1286135391036596 -3
      vertex 1.668691769624716 5.135705187993829 0
      vertex 1.0684856843964528 3.2884608005743963 -3
    endloop
  endfacet
  facet normal -0.4046321138511496 -0.7360230827283049 0.5427180429389399
    outer loop
      vertex 1.8527241872542999 2.9194261731781213 -3
      vertex 2.893464692886582 4.559370797710882 0
      vertex 1.4722137812192322 3.1286135391036596 -3
    endloop
  endfacet
  facet normal -0.8382575712720258 -0.052738696169431214 0.54271804293894
    outer loop
      vertex 3.4576923076923074 0 -3
      vertex 5.4 0 0
      vertex 3.4304273710835216 0.4333637575934982 -3
    endloop
  endfacet
  facet normal -0.825037748622265 -0.15738436776513498 0.54271804293894
    outer loop
      vertex 3.3490625455947667 0.8598931098507863 -3
      vertex 3.4304273710835216 0.4333637575934982 -3
      vertex 5.357419387098181 0.676799461247243 0
    endloop
  endfacet
  facet normal -0.7988065878230699 -0.25954799386431604 0.5427180429389398
    outer loop
      vertex 5.230349070094608 1.3429253906902159 0
      vertex 3.2148810031289923 1.2728614340904827 -3
      vertex 3.3490625455947667 0.8598931098507863 -3
    endloop
  endfacet
  facet normal -0.7599777699499793 -0.35761839305380155 0.5427180429389399
    outer loop
      vertex 3.0299988667670514 1.665755973144008 -3
      vertex 3.2148810031289923 1.2728614340904827 -3
      vertex 5.020793023796558 1.9878725844972611 0
    endloop
  endfacet
  facet normal -0.7091636486560635 -0.4500489365539553 0.5427180429389399
    outer loop
      vertex 2.797331838242607 2.032380545426667 -3
      vertex 3.0299988667670514 1.665755973144008 -3
      vertex 4.732056072236864 2.601469840149263 0
    endloop
  endfacet
  facet normal -0.5749613493225374 -0.6122716493957027 0.5427180429389399
    outer loop
      vertex 3.9364305880756225 3.696554372014919 0
      vertex 3.4420895446429247 4.160771510989262 0
      vertex 2.5205492155840346 2.3669532624226584 -3
    endloop
  endfacet
  facet normal -0.1052692567991014 -0.8332919713050714 0.5427180429389398
    outer loop
      vertex 1.0118590987629128 5.3043511539349195 0
      vertex 0.3390688054582917 5.389344333512667 0
      vertex 0.2171102963725093 3.4508693417577545 -3
    endloop
  endfacet
  facet normal -0.2088783545336769 -0.8135274788695406 0.5427180429389398
    outer loop
      vertex 1.668691769624716 5.135705187993829 0
      vertex 1.0118590987629128 5.3043511539349195 0
      vertex 1.0684856843964528 3.2884608005743963 -3
    endloop
  endfacet
  facet normal -0.40463211385114944 -0.7360230827283051 0.5427180429389399
    outer loop
      vertex 2.893464692886582 4.559370797710882 0
      vertex 2.299208174451393 4.886066083316505 0
      vertex 1.4722137812192322 3.1286135391036596 -3
    endloop
  endfacet
  facet normal -0.3091933158393731 -0.780933172114478 0.5427180429389399
    outer loop
      vertex 2.299208174451393 4.886066083316505 0
      vertex 1.668691769624716 5.135705187993829 0
      vertex 1.4722137812192322 3.1286135391036596 -3
    endloop
  endfacet
  facet normal -0.4936896217119852 -0.679505469648629 0.54271804293894
    outer loop
      vertex 3.4420895446429247 4.160771510989262 0
      vertex 2.893464692886582 4.559370797710882 0
      vertex 2.2040160260925847 2.6641977125209015 -3
    endloop
  endfacet
  facet normal -0.8382575712720257 -0.05273869616943137 0.5427180429389399
    outer loop
      vertex 3.4304273710835216 0.4333637575934982 -3
      vertex 5.4 0 0
      vertex 5.357419387098181 0.676799461247243 0
    endloop
  endfacet
  facet normal -0.825037748622265 -0.15738436776513576 0.5427180429389399
    outer loop
      vertex 5.357419387098181 0.676799461247243 0
      vertex 5.230349070094608 1.3429253906902159 0
      vertex 3.3490625455947667 0.8598931098507863 -3
    endloop
  endfacet
  facet normal -0.79880658782307 -0.2595479938643156 0.5427180429389398
    outer loop
      vertex 5.230349070094608 1.3429253906902159 0
      vertex 5.020793023796558 1.9878725844972611 0
      vertex 3.2148810031289923 1.2728614340904827 -3
    endloop
  endfacet
  facet normal -0.7599777699499795 -0.35761839305380144 0.5427180429389399
    outer loop
      vertex 3.0299988667670514 1.665755973144008 -3
      vertex 5.020793023796558 1.9878725844972611 0
      vertex 4.732056072236864 2.601469840149263 0
    endloop
  endfacet
  facet normal -0.7091636486560635 -0.45004893655395545 0.5427180429389399
    outer loop
      vertex 4.732056072236864 2.601469840149263 0
      vertex 4.368691769624717 3.174040362379355 0
      vertex 2.797331838242607 2.032380545426667 -3
    endloop
  endfacet
  facet normal -0.6471655929890116 -0.5353819394784513 0.5427180429389399
    outer loop
      vertex 2.5205492155840346 2.3669532624226584 -3
      vertex 4.368691769624717 3.174040362379355 0
      vertex 3.9364305880756225 3.696554372014919 0
    endloop
  endfacet
  facet normal -0.8443279255020152 -0.5358267949789963 0
    outer loop
      vertex -5.663118960624632 -4.114496766047312 -3
      vertex -6.134146760307044 -3.372275718712008 0
      vertex -6.134146760307044 -3.372275718712008 -3
    endloop
  endfacet
  facet normal -0.7705132427757893 -0.6374239897486896 0
    outer loop
      vertex -5.663118960624632 -4.114496766047312 -3
      vertex -5.1027803919498815 -4.79182974150082 -3
      vertex -5.663118960624632 -4.114496766047312 0
    endloop
  endfacet
  facet normal -0.5877852522924721 -0.8090169943749481 0
    outer loop
      vertex -4.461967928240828 -5.393592699430526 -3
      vertex -3.7507875648529776 -5.910295478514104 -3
      vertex -3.7507875648529776 -5.910295478514104 0
    endloop
  endfacet
  facet normal -0.6845471059286894 -0.7289686274214108 0
    outer loop
      vertex -4.461967928240828 -5.393592699430526 -3
      vertex -4.461967928240828 -5.393592699430526 0
      vertex -5.1027803919498815 -4.79182974150082 -3
    endloop
  endfacet
  facet normal 0 0 -1
    outer loop
      vertex -6.50843540121776 -2.576871868792745 -3
      vertex -6.7800821279004175 -1.740829210153984 -3
      vertex -6.50843540121776 2.576871868792745 -3
    endloop
  endfacet
  facet normal 0 0 -1
    outer loop
      vertex -6.7800821279004175 -1.740829210153984 -3
      vertex -6.9448029092013455 -0.8773326349501285 -3
      vertex -6.7800821279004175 1.740829210153984 -3
    endloop
  endfacet
  facet normal 0 0 -1
    outer loop
      vertex -6.134146760307044 -3.372275718712008 -3
      vertex -6.50843540121776 -2.576871868792745 -3
      vertex -6.134146760307044 3.372275718712008 -3
    endloop
  endfacet
  facet normal 0 0 -1
    outer loop
      vertex -5.663118960624632 -4.114496766047312 -3
      vertex -6.134146760307044 -3.372275718712008 -3
      vertex -5.663118960624632 4.114496766047312 -3
    endloop
  endfacet
  facet normal 0 0 -1
    outer loop
      vertex -5.663118960624632 -4.114496766047312 -3
      vertex -5.1027803919498815 4.79182974150082 -3
      vertex -5.1027803919498815 -4.79182974150082 -3
    endloop
  endfacet
  facet normal 0 0 -1
    outer loop
      vertex -4.461967928240828 -5.393592699430526 -3
      vertex -3.7507875648529776 5.910295478514104 -3
      vertex -3.7507875648529776 -5.910295478514104 -3
    endloop
  endfacet
  facet normal 0 0 -1
    outer loop
      vertex -3.7507875648529776 -5.910295478514104 -3
      vertex -3.4304273710835216 -0.43336375759349754 -3
      vertex -3.3490625455947667 -0.8598931098507866 -3
    endloop
  endfacet
  facet normal 0 0 -1
    outer loop
      vertex -3.7507875648529776 -5.910295478514104 -3
      vertex -3.4576923076923074 0 -3
      vertex -3.4304273710835216 -0.43336375759349754 -3
    endloop
  endfacet
  facet normal 0 0 -1
    outer loop
      vertex -4.461967928240828 -5.393592699430526 -3
      vertex -5.1027803919498815 -4.79182974150082 -3
      vertex -4.461967928240828 5.393592699430526 -3
    endloop
  endfacet
  facet normal -0.9048270524660196 -0.42577929156507277 0
    outer loop
      vertex -6.134146760307044 -3.372275718712008 -3
      vertex -6.50843540121776 -2.576871868792745 0
      vertex -6.50843540121776 -2.576871868792745 -3
    endloop
  endfacet
  facet normal -0.9510565162951536 -0.3090169943749475 0
    outer loop
      vertex -6.50843540121776 -2.576871868792745 -3
      vertex -6.7800821279004175 -1.740829210153984 0
      vertex -6.7800821279004175 -1.740829210153984 -3
    endloop
  endfacet
  facet normal -0.9822872507286885 -0.18738131458572532 0
    outer loop
      vertex -6.7800821279004175 -1.740829210153984 -3
      vertex -6.9448029092013455 -0.8773326349501285 0
      vertex -6.9448029092013455 -0.8773326349501285 -3
    endloop
  endfacet
  facet normal -0.9980267284282717 -0.06279051952931274 0
    outer loop
      vertex -6.9448029092013455 -0.8773326349501285 -3
      vertex -7 0 0
      vertex -7 0 -3
    endloop
  endfacet
  facet normal 0 0 -1
    outer loop
      vertex -2.980455040955507 -6.333789367262137 -3
      vertex -1.8527241872543003 -2.9194261731781213 -3
      vertex -2.1631189606246317 -6.657395614066075 -3
    endloop
  endfacet
  facet normal 0 0 -1
    outer loop
      vertex -3.7507875648529776 -5.910295478514104 -3
      vertex -2.7973318382426067 -2.032380545426667 -3
      vertex -2.980455040955507 -6.333789367262137 -3
    endloop
  endfacet
  facet normal 0 0 -1
    outer loop
      vertex -2.980455040955507 -6.333789367262137 -3
      vertex -2.7973318382426067 -2.032380545426667 -3
      vertex -2.5205492155840354 -2.366953262422658 -3
    endloop
  endfacet
  facet normal 0 0 -1
    outer loop
      vertex -2.980455040955507 -6.333789367262137 -3
      vertex -2.2040160260925847 -2.6641977125209024 -3
      vertex -1.8527241872543003 -2.9194261731781213 -3
    endloop
  endfacet
  facet normal 0 0 -1
    outer loop
      vertex -2.980455040955507 -6.333789367262137 -3
      vertex -2.5205492155840354 -2.366953262422658 -3
      vertex -2.2040160260925847 -2.6641977125209024 -3
    endloop
  endfacet
  facet normal 0 0 -1
    outer loop
      vertex -2.1631189606246317 -6.657395614066075 -3
      vertex -1.8527241872543003 -2.9194261731781213 -3
      vertex -1.472213781219231 -3.12861353910366 -3
    endloop
  endfacet
  facet normal 0 0 -1
    outer loop
      vertex -2.1631189606246317 -6.657395614066075 -3
      vertex -1.0684856843964528 -3.2884608005743963 -3
      vertex -1.3116692021000738 -6.87601075510082 -3
    endloop
  endfacet
  facet normal 0 0 -1
    outer loop
      vertex -1.3116692021000738 -6.87601075510082 -3
      vertex -0.2171102963725118 -3.4508693417577545 -3
      vertex -0.43953363670519635 -6.986187098997901 -3
    endloop
  endfacet
  facet normal 0 0 -1
    outer loop
      vertex -0.43953363670519635 -6.986187098997901 -3
      vertex -0.2171102963725118 -3.4508693417577545 -3
      vertex 0.43953363670519635 -6.986187098997901 -3
    endloop
  endfacet
  facet normal 0 0 -1
    outer loop
      vertex -1.3116692021000738 -6.87601075510082 -3
      vertex -1.0684856843964528 -3.2884608005743963 -3
      vertex -0.6479069300483331 -3.396447070788812 -3
    endloop
  endfacet
  facet normal 0 0 -1
    outer loop
      vertex -2.1631189606246317 -6.657395614066075 -3
      vertex -1.472213781219231 -3.12861353910366 -3
      vertex -1.0684856843964528 -3.2884608005743963 -3
    endloop
  endfacet
  facet normal 0 0 -1
    outer loop
      vertex -1.3116692021000738 -6.87601075510082 -3
      vertex -0.6479069300483331 -3.396447070788812 -3
      vertex -0.2171102963725118 -3.4508693417577545 -3
    endloop
  endfacet
  facet normal -0.4817536741017148 -0.8763066800438638 0
    outer loop
      vertex -3.7507875648529776 -5.910295478514104 -3
      vertex -2.980455040955507 -6.333789367262137 -3
      vertex -2.980455040955507 -6.333789367262137 0
    endloop
  endfacet
  facet normal -0.36812455268467814 -0.9297764858882512 0
    outer loop
      vertex -2.980455040955507 -6.333789367262137 -3
      vertex -2.1631189606246317 -6.657395614066075 -3
      vertex -2.1631189606246317 -6.657395614066075 0
    endloop
  endfacet
  facet normal -0.24868988716485488 -0.9685831611286311 0
    outer loop
      vertex -2.1631189606246317 -6.657395614066075 -3
      vertex -1.3116692021000738 -6.87601075510082 -3
      vertex -1.3116692021000738 -6.87601075510082 0
    endloop
  endfacet
  facet normal -0.12533323356430498 -0.9921147013144778 0
    outer loop
      vertex -1.3116692021000738 -6.87601075510082 -3
      vertex -0.43953363670519635 -6.986187098997901 -3
      vertex -0.43953363670519635 -6.986187098997901 0
    endloop
  endfacet
  facet normal 0 0 -1
    outer loop
      vertex -3.7507875648529776 -5.910295478514104 -3
      vertex -3.0299988667670505 -1.6657559731440081 -3
      vertex -2.7973318382426067 -2.032380545426667 -3
    endloop
  endfacet
  facet normal 0 0 -1
    outer loop
      vertex -3.7507875648529776 -5.910295478514104 -3
      vertex -3.2148810031289923 -1.2728614340904825 -3
      vertex -3.0299988667670505 -1.6657559731440081 -3
    endloop
  endfacet
  facet normal 0 0 -1
    outer loop
      vertex -3.7507875648529776 -5.910295478514104 -3
      vertex -3.3490625455947667 -0.8598931098507866 -3
      vertex -3.2148810031289923 -1.2728614340904825 -3
    endloop
  endfacet
  facet normal -0.7705132427757893 -0.6374239897486896 0
    outer loop
      vertex -5.1027803919498815 -4.79182974150082 -3
      vertex -5.1027803919498815 -4.79182974150082 0
      vertex -5.663118960624632 -4.114496766047312 0
    endloop
  endfacet
  facet normal -0.8443279255020152 -0.5358267949789963 0
    outer loop
      vertex -5.663118960624632 -4.114496766047312 -3
      vertex -5.663118960624632 -4.114496766047312 0
      vertex -6.134146760307044 -3.372275718712008 0
    endloop
  endfacet
  facet normal -0.5877852522924721 -0.8090169943749481 0
    outer loop
      vertex -4.461967928240828 -5.393592699430526 -3
      vertex -3.7507875648529776 -5.910295478514104 0
      vertex -4.461967928240828 -5.393592699430526 0
    endloop
  endfacet
  facet normal -0.6845471059286894 -0.7289686274214108 0
    outer loop
      vertex -5.1027803919498815 -4.79182974150082 -3
      vertex -4.461967928240828 -5.393592699430526 0
      vertex -5.1027803919498815 -4.79182974150082 0
    endloop
  endfacet
  facet normal 0 0 1
    outer loop
      vertex -4.461967928240828 -5.393592699430526 0
      vertex -4.732056072236863 -2.6014698401492633 0
      vertex -5.1027803919498815 -4.79182974150082 0
    endloop
  endfacet
  facet normal 0 0 1
    outer loop
      vertex -4.461967928240828 -5.393592699430526 0
      vertex -4.368691769624717 -3.174040362379355 0
      vertex -4.732056072236863 -2.6014698401492633 0
    endloop
  endfacet
  facet normal 0 0 1
    outer loop
      vertex -4.461967928240828 -5.393592699430526 0
      vertex -3.7507875648529776 -5.910295478514104 0
      vertex -3.9364305880756234 -3.6965543720149183 0
    endloop
  endfacet
  facet normal 0 0 1
    outer loop
      vertex -3.7507875648529776 -5.910295478514104 0
      vertex -3.4420895446429243 -4.160771510989263 0
      vertex -3.9364305880756234 -3.6965543720149183 0
    endloop
  endfacet
  facet normal 0 0 1
    outer loop
      vertex -4.461967928240828 -5.393592699430526 0
      vertex -3.9364305880756234 -3.6965543720149183 0
      vertex -4.368691769624717 -3.174040362379355 0
    endloop
  endfacet
  facet normal -0.9048270524660196 -0.42577929156507277 0
    outer loop
      vertex -6.134146760307044 -3.372275718712008 -3
      vertex -6.134146760307044 -3.372275718712008 0
      vertex -6.50843540121776 -2.576871868792745 0
    endloop
  endfacet
  facet normal -0.9510565162951536 -0.3090169943749475 0
    outer loop
      vertex -6.50843540121776 -2.576871868792745 -3
      vertex -6.50843540121776 -2.576871868792745 0
      vertex -6.7800821279004175 -1.740829210153984 0
    endloop
  endfacet
  facet normal -0.9822872507286885 -0.18738131458572532 0
    outer loop
      vertex -6.7800821279004175 -1.740829210153984 -3
      vertex -6.7800821279004175 -1.740829210153984 0
      vertex -6.9448029092013455 -0.8773326349501285 0
    endloop
  endfacet
  facet normal -0.9980267284282717 -0.06279051952931274 0
    outer loop
      vertex -6.9448029092013455 -0.8773326349501285 -3
      vertex -6.9448029092013455 -0.8773326349501285 0
      vertex -7 0 0
    endloop
  endfacet
  facet normal 0 0 1
    outer loop
      vertex -6.134146760307044 -3.372275718712008 0
      vertex -6.50843540121776 2.576871868792745 0
      vertex -6.50843540121776 -2.576871868792745 0
    endloop
  endfacet
  facet normal 0 0 1
    outer loop
      vertex -6.7800821279004175 -1.740829210153984 0
      vertex -6.9448029092013455 0.8773326349501285 0
      vertex -6.9448029092013455 -0.8773326349501285 0
    endloop
  endfacet
  facet normal 0 0 1
    outer loop
      vertex -6.50843540121776 -2.576871868792745 0
      vertex -6.7800821279004175 1.740829210153984 0
      vertex -6.7800821279004175 -1.740829210153984 0
    endloop
  endfacet
  facet normal 0 0 1
    outer loop
      vertex -5.663118960624632 -4.114496766047312 0
      vertex -6.134146760307044 3.372275718712008 0
      vertex -6.134146760307044 -3.372275718712008 0
    endloop
  endfacet
  facet normal 0 0 1
    outer loop
      vertex -5.663118960624632 -4.114496766047312 0
      vertex -5.1027803919498815 -4.79182974150082 0
      vertex -5.663118960624632 4.114496766047312 0
    endloop
  endfacet
  facet normal 0 0 1
    outer loop
      vertex -5.1027803919498815 -4.79182974150082 0
      vertex -5.357419387098181 -0.676799461247242 0
      vertex -5.663118960624632 4.114496766047312 0
    endloop
  endfacet
  facet normal 0 0 1
    outer loop
      vertex -5.1027803919498815 -4.79182974150082 0
      vertex -4.732056072236863 -2.6014698401492633 0
      vertex -5.020793023796558 -1.9878725844972607 0
    endloop
  endfacet
  facet normal 0 0 1
    outer loop
      vertex -5.1027803919498815 -4.79182974150082 0
      vertex -5.020793023796558 -1.9878725844972607 0
      vertex -5.230349070094608 -1.3429253906902163 0
    endloop
  endfacet
  facet normal 0 0 1
    outer loop
      vertex -5.1027803919498815 -4.79182974150082 0
      vertex -5.230349070094608 -1.3429253906902163 0
      vertex -5.357419387098181 -0.676799461247242 0
    endloop
  endfacet
  facet normal -0.36812455268467814 -0.9297764858882512 0
    outer loop
      vertex -2.980455040955507 -6.333789367262137 -3
      vertex -2.1631189606246317 -6.657395614066075 0
      vertex -2.980455040955507 -6.333789367262137 0
    endloop
  endfacet
  facet normal -0.4817536741017148 -0.8763066800438638 0
    outer loop
      vertex -3.7507875648529776 -5.910295478514104 -3
      vertex -2.980455040955507 -6.333789367262137 0
      vertex -3.7507875648529776 -5.910295478514104 0
    endloop
  endfacet
  facet normal -0.24868988716485488 -0.9685831611286311 0
    outer loop
      vertex -2.1631189606246317 -6.657395614066075 -3
      vertex -1.3116692021000738 -6.87601075510082 0
      vertex -2.1631189606246317 -6.657395614066075 0
    endloop
  endfacet
  facet normal -0.12533323356430498 -0.9921147013144778 0
    outer loop
      vertex -1.3116692021000738 -6.87601075510082 -3
      vertex -0.43953363670519635 -6.986187098997901 0
      vertex -1.3116692021000738 -6.87601075510082 0
    endloop
  endfacet
  facet normal 0 -1 0
    outer loop
      vertex -0.43953363670519635 -6.986187098997901 -3
      vertex 0.43953363670519635 -6.986187098997901 0
      vertex -0.43953363670519635 -6.986187098997901 0
    endloop
  endfacet
  facet normal 0 0 1
    outer loop
      vertex -3.7507875648529776 -5.910295478514104 0
      vertex -2.980455040955507 -6.333789367262137 0
      vertex -3.4420895446429243 -4.160771510989263 0
    endloop
  endfacet
  facet normal 0 0 1
    outer loop
      vertex -2.980455040955507 -6.333789367262137 0
      vertex -2.2992081744513913 -4.886066083316506 0
      vertex -2.8934646928865826 -4.559370797710881 0
    endloop
  endfacet
  facet normal 0 0 1
    outer loop
      vertex -2.980455040955507 -6.333789367262137 0
      vertex -2.1631189606246317 -6.657395614066075 0
      vertex -2.2992081744513913 -4.886066083316506 0
    endloop
  endfacet
  facet normal 0 0 1
    outer loop
      vertex -2.1631189606246317 -6.657395614066075 0
      vertex -1.668691769624716 -5.135705187993829 0
      vertex -2.2992081744513913 -4.886066083316506 0
    endloop
  endfacet
  facet normal 0 0 1
    outer loop
      vertex -2.980455040955507 -6.333789367262137 0
      vertex -2.8934646928865826 -4.559370797710881 0
      vertex -3.4420895446429243 -4.160771510989263 0
    endloop
  endfacet
  facet normal 0 0 1
    outer loop
      vertex -2.1631189606246317 -6.657395614066075 0
      vertex -1.3116692021000738 -6.87601075510082 0
      vertex -1.668691769624716 -5.135705187993829 0
    endloop
  endfacet
  facet normal 0 0 1
    outer loop
      vertex -1.3116692021000738 -6.87601075510082 0
      vertex -0.43953363670519635 -6.986187098997901 0
      vertex -1.0118590987629141 -5.304351153934919 0
    endloop
  endfacet
  facet normal 0 0 1
    outer loop
      vertex -1.3116692021000738 -6.87601075510082 0
      vertex -1.0118590987629141 -5.304351153934919 0
      vertex -1.668691769624716 -5.135705187993829 0
    endloop
  endfacet
  facet normal 0 0 1
    outer loop
      vertex -0.43953363670519635 -6.986187098997901 0
      vertex 0.43953363670519635 -6.986187098997901 0
      vertex -0.3390688054582943 -5.389344333512667 0
    endloop
  endfacet
  facet normal 0 0 1
    outer loop
      vertex -0.43953363670519635 -6.986187098997901 0
      vertex -0.3390688054582943 -5.389344333512667 0
      vertex -1.0118590987629141 -5.304351153934919 0
    endloop
  endfacet
  facet normal 0 0 -1
    outer loop
      vertex -6.9448029092013455 -0.8773326349501285 -3
      vertex -7 0 -3
      vertex -6.9448029092013455 0.8773326349501285 -3
    endloop
  endfacet
  facet normal 0 0 -1
    outer loop
      vertex -6.9448029092013455 -0.8773326349501285 -3
      vertex -6.9448029092013455 0.8773326349501285 -3
      vertex -6.7800821279004175 1.740829210153984 -3
    endloop
  endfacet
  facet normal 0 0 -1
    outer loop
      vertex -6.7800821279004175 -1.740829210153984 -3
      vertex -6.7800821279004175 1.740829210153984 -3
      vertex -6.50843540121776 2.576871868792745 -3
    endloop
  endfacet
  facet normal 0 0 -1
    outer loop
      vertex -6.50843540121776 -2.576871868792745 -3
      vertex -6.50843540121776 2.576871868792745 -3
      vertex -6.134146760307044 3.372275718712008 -3
    endloop
  endfacet
  facet normal 0 0 -1
    outer loop
      vertex -6.134146760307044 -3.372275718712008 -3
      vertex -6.134146760307044 3.372275718712008 -3
      vertex -5.663118960624632 4.114496766047312 -3
    endloop
  endfacet
  facet normal 0 0 -1
    outer loop
      vertex -5.663118960624632 -4.114496766047312 -3
      vertex -5.663118960624632 4.114496766047312 -3
      vertex -5.1027803919498815 4.79182974150082 -3
    endloop
  endfacet
  facet normal 0 0 -1
    outer loop
      vertex -3.7507875648529776 -5.910295478514104 -3
      vertex -3.7507875648529776 5.910295478514104 -3
      vertex -3.4576923076923074 0 -3
    endloop
  endfacet
  facet normal 0 0 -1
    outer loop
      vertex -5.1027803919498815 -4.79182974150082 -3
      vertex -5.1027803919498815 4.79182974150082 -3
      vertex -4.461967928240828 5.393592699430526 -3
    endloop
  endfacet
  facet normal 0 0 -1
    outer loop
      vertex -4.461967928240828 -5.393592699430526 -3
      vertex -4.461967928240828 5.393592699430526 -3
      vertex -3.7507875648529776 5.910295478514104 -3
    endloop
  endfacet
  facet normal 0 0 -1
    outer loop
      vertex -3.7507875648529776 5.910295478514104 -3
      vertex -3.4304273710835216 0.4333637575934975 -3
      vertex -3.4576923076923074 0 -3
    endloop
  endfacet
  facet normal 0 0 -1
    outer loop
      vertex -3.7507875648529776 5.910295478514104 -3
      vertex -3.3490625455947667 0.8598931098507866 -3
      vertex -3.4304273710835216 0.4333637575934975 -3
    endloop
  endfacet
  facet normal -0.9980267284282717 0.06279051952931274 0
    outer loop
      vertex -7 0 -3
      vertex -6.9448029092013455 0.8773326349501285 0
      vertex -6.9448029092013455 0.8773326349501285 -3
    endloop
  endfacet
  facet normal -0.9822872507286885 0.18738131458572532 0
    outer loop
      vertex -6.9448029092013455 0.8773326349501285 -3
      vertex -6.7800821279004175 1.740829210153984 0
      vertex -6.7800821279004175 1.740829210153984 -3
    endloop
  endfacet
  facet normal -0.9510565162951536 0.3090169943749475 0
    outer loop
      vertex -6.7800821279004175 1.740829210153984 -3
      vertex -6.50843540121776 2.576871868792745 0
      vertex -6.50843540121776 2.576871868792745 -3
    endloop
  endfacet
  facet normal -0.9048270524660196 0.42577929156507277 0
    outer loop
      vertex -6.50843540121776 2.576871868792745 -3
      vertex -6.134146760307044 3.372275718712008 0
      vertex -6.134146760307044 3.372275718712008 -3
    endloop
  endfacet
  facet normal -0.8443279255020152 0.5358267949789963 0
    outer loop
      vertex -6.134146760307044 3.372275718712008 -3
      vertex -5.663118960624632 4.114496766047312 0
      vertex -5.663118960624632 4.114496766047312 -3
    endloop
  endfacet
  facet normal -0.7705132427757893 0.6374239897486896 0
    outer loop
      vertex -5.663118960624632 4.114496766047312 -3
      vertex -5.1027803919498815 4.79182974150082 0
      vertex -5.1027803919498815 4.79182974150082 -3
    endloop
  endfacet
  facet normal -0.6845471059286894 0.7289686274214108 0
    outer loop
      vertex -5.1027803919498815 4.79182974150082 -3
      vertex -5.1027803919498815 4.79182974150082 0
      vertex -4.461967928240828 5.393592699430526 -3
    endloop
  endfacet
  facet normal -0.5877852522924721 0.8090169943749481 0
    outer loop
      vertex -4.461967928240828 5.393592699430526 -3
      vertex -4.461967928240828 5.393592699430526 0
      vertex -3.7507875648529776 5.910295478514104 -3
    endloop
  endfacet
  facet normal 0 0 -1
    outer loop
      vertex -2.980455040955509 6.333789367262137 -3
      vertex -3.2148810031289927 1.2728614340904825 -3
      vertex -3.3490625455947667 0.8598931098507866 -3
    endloop
  endfacet
  facet normal 0 0 -1
    outer loop
      vertex -2.980455040955509 6.333789367262137 -3
      vertex -3.029998866767051 1.6657559731440084 -3
      vertex -3.2148810031289927 1.2728614340904825 -3
    endloop
  endfacet
  facet normal 0 0 -1
    outer loop
      vertex -2.980455040955509 6.333789367262137 -3
      vertex -2.797331838242607 2.032380545426667 -3
      vertex -3.029998866767051 1.6657559731440084 -3
    endloop
  endfacet
  facet normal 0 0 -1
    outer loop
      vertex -2.980455040955509 6.333789367262137 -3
      vertex -2.520549215584035 2.366953262422658 -3
      vertex -2.797331838242607 2.032380545426667 -3
    endloop
  endfacet
  facet normal 0 0 -1
    outer loop
      vertex -3.7507875648529776 5.910295478514104 -3
      vertex -2.980455040955509 6.333789367262137 -3
      vertex -3.3490625455947667 0.8598931098507866 -3
    endloop
  endfacet
  facet normal 0 0 -1
    outer loop
      vertex -2.1631189606246317 6.657395614066075 -3
      vertex -2.2040160260925847 2.6641977125209024 -3
      vertex -2.520549215584035 2.366953262422658 -3
    endloop
  endfacet
  facet normal 0 0 -1
    outer loop
      vertex -2.1631189606246317 6.657395614066075 -3
      vertex -1.8527241872543003 2.9194261731781213 -3
      vertex -2.2040160260925847 2.6641977125209024 -3
    endloop
  endfacet
  facet normal 0 0 -1
    outer loop
      vertex -2.980455040955509 6.333789367262137 -3
      vertex -2.1631189606246317 6.657395614066075 -3
      vertex -2.520549215584035 2.366953262422658 -3
    endloop
  endfacet
  facet normal 0 0 -1
    outer loop
      vertex -2.1631189606246317 6.657395614066075 -3
      vertex -1.311669202100072 6.876010755100821 -3
      vertex -1.8527241872543003 2.9194261731781213 -3
    endloop
  endfacet
  facet normal 0 0 -1
    outer loop
      vertex -1.311669202100072 6.876010755100821 -3
      vertex -1.4722137812192324 3.1286135391036596 -3
      vertex -1.8527241872543003 2.9194261731781213 -3
    endloop
  endfacet
  facet normal 0 0 -1
    outer loop
      vertex -1.311669202100072 6.876010755100821 -3
      vertex -1.0684856843964528 3.288460800574396 -3
      vertex -1.4722137812192324 3.1286135391036596 -3
    endloop
  endfacet
  facet normal 0 0 -1
    outer loop
      vertex -0.43953363670519296 6.986187098997901 -3
      vertex -0.6479069300483323 3.396447070788812 -3
      vertex -1.0684856843964528 3.288460800574396 -3
    endloop
  endfacet
  facet normal 0 0 -1
    outer loop
      vertex -0.43953363670519296 6.986187098997901 -3
      vertex -0.21711029637251014 3.4508693417577545 -3
      vertex -0.6479069300483323 3.396447070788812 -3
    endloop
  endfacet
  facet normal 0 0 -1
    outer loop
      vertex -0.43953363670519296 6.986187098997901 -3
      vertex 0.2171102963725093 3.4508693417577545 -3
      vertex -0.21711029637251014 3.4508693417577545 -3
    endloop
  endfacet
  facet normal 0 0 -1
    outer loop
      vertex -1.311669202100072 6.876010755100821 -3
      vertex -0.43953363670519296 6.986187098997901 -3
      vertex -1.0684856843964528 3.288460800574396 -3
    endloop
  endfacet
  facet normal -0.4817536741017157 0.8763066800438634 0
    outer loop
      vertex -3.7507875648529776 5.910295478514104 -3
      vertex -3.7507875648529776 5.910295478514104 0
      vertex -2.980455040955509 6.333789367262137 -3
    endloop
  endfacet
  facet normal -0.3681245526846775 0.9297764858882517 0
    outer loop
      vertex -2.980455040955509 6.333789367262137 -3
      vertex -2.980455040955509 6.333789367262137 0
      vertex -2.1631189606246317 6.657395614066075 -3
    endloop
  endfacet
  facet normal -0.24868988716485535 0.968583161128631 0
    outer loop
      vertex -2.1631189606246317 6.657395614066075 -3
      vertex -2.1631189606246317 6.657395614066075 0
      vertex -1.311669202100072 6.876010755100821 -3
    endloop
  endfacet
  facet normal -0.12533323356430376 0.992114701314478 0
    outer loop
      vertex -1.311669202100072 6.876010755100821 -3
      vertex -1.311669202100072 6.876010755100821 0
      vertex -0.43953363670519296 6.986187098997901 -3
    endloop
  endfacet
  facet normal 0 1 0
    outer loop
      vertex -0.43953363670519296 6.986187098997901 -3
      vertex -0.43953363670519296 6.986187098997901 0
      vertex 0.43953363670519296 6.986187098997901 -3
    endloop
  endfacet
  facet normal -0.9980267284282717 0.06279051952931274 0
    outer loop
      vertex -7 0 -3
      vertex -7 0 0
      vertex -6.9448029092013455 0.8773326349501285 0
    endloop
  endfacet
  facet normal -0.9822872507286885 0.18738131458572532 0
    outer loop
      vertex -6.9448029092013455 0.8773326349501285 -3
      vertex -6.9448029092013455 0.8773326349501285 0
      vertex -6.7800821279004175 1.740829210153984 0
    endloop
  endfacet
  facet normal -0.9510565162951536 0.3090169943749475 0
    outer loop
      vertex -6.7800821279004175 1.740829210153984 -3
      vertex -6.7800821279004175 1.740829210153984 0
      vertex -6.50843540121776 2.576871868792745 0
    endloop
  endfacet
  facet normal -0.9048270524660196 0.42577929156507277 0
    outer loop
      vertex -6.50843540121776 2.576871868792745 -3
      vertex -6.50843540121776 2.576871868792745 0
      vertex -6.134146760307044 3.372275718712008 0
    endloop
  endfacet
  facet normal 0 0 1
    outer loop
      vertex -6.9448029092013455 -0.8773326349501285 0
      vertex -6.9448029092013455 0.8773326349501285 0
      vertex -7 0 0
    endloop
  endfacet
  facet normal 0 0 1
    outer loop
      vertex -6.7800821279004175 -1.740829210153984 0
      vertex -6.7800821279004175 1.740829210153984 0
      vertex -6.9448029092013455 0.8773326349501285 0
    endloop
  endfacet
  facet normal 0 0 1
    outer loop
      vertex -6.50843540121776 -2.576871868792745 0
      vertex -6.50843540121776 2.576871868792745 0
      vertex -6.7800821279004175 1.740829210153984 0
    endloop
  endfacet
  facet normal 0 0 1
    outer loop
      vertex -6.134146760307044 -3.372275718712008 0
      vertex -6.134146760307044 3.372275718712008 0
      vertex -6.50843540121776 2.576871868792745 0
    endloop
  endfacet
  facet normal 0 0 1
    outer loop
      vertex -5.663118960624632 -4.114496766047312 0
      vertex -5.663118960624632 4.114496766047312 0
      vertex -6.134146760307044 3.372275718712008 0
    endloop
  endfacet
  facet normal 0 0 1
    outer loop
      vertex -5.663118960624632 4.114496766047312 0
      vertex -5.357419387098181 -0.676799461247242 0
      vertex -5.4 0 0
    endloop
  endfacet
  facet normal 0 0 1
    outer loop
      vertex -5.663118960624632 4.114496766047312 0
      vertex -5.4 0 0
      vertex -5.357419387098181 0.676799461247242 0
    endloop
  endfacet
  facet normal 0 0 1
    outer loop
      vertex -5.663118960624632 4.114496766047312 0
      vertex -5.357419387098181 0.676799461247242 0
      vertex -5.230349070094608 1.3429253906902163 0
    endloop
  endfacet
  facet normal 0 0 1
    outer loop
      vertex -5.663118960624632 4.114496766047312 0
      vertex -5.230349070094608 1.3429253906902163 0
      vertex -5.020793023796558 1.9878725844972607 0
    endloop
  endfacet
  facet normal 0 0 1
    outer loop
      vertex -5.1027803919498815 4.79182974150082 0
      vertex -5.020793023796558 1.9878725844972607 0
      vertex -4.732056072236863 2.6014698401492633 0
    endloop
  endfacet
  facet normal -0.8443279255020152 0.5358267949789963 0
    outer loop
      vertex -6.134146760307044 3.372275718712008 -3
      vertex -6.134146760307044 3.372275718712008 0
      vertex -5.663118960624632 4.114496766047312 0
    endloop
  endfacet
  facet normal -0.7705132427757893 0.6374239897486896 0
    outer loop
      vertex -5.663118960624632 4.114496766047312 -3
      vertex -5.663118960624632 4.114496766047312 0
      vertex -5.1027803919498815 4.79182974150082 0
    endloop
  endfacet
  facet normal -0.6845471059286894 0.7289686274214108 0
    outer loop
      vertex -4.461967928240828 5.393592699430526 -3
      vertex -5.1027803919498815 4.79182974150082 0
      vertex -4.461967928240828 5.393592699430526 0
    endloop
  endfacet
  facet normal -0.5877852522924721 0.8090169943749481 0
    outer loop
      vertex -3.7507875648529776 5.910295478514104 -3
      vertex -4.461967928240828 5.393592699430526 0
      vertex -3.7507875648529776 5.910295478514104 0
    endloop
  endfacet
  facet normal 0 0 1
    outer loop
      vertex -5.663118960624632 4.114496766047312 0
      vertex -5.020793023796558 1.9878725844972607 0
      vertex -5.1027803919498815 4.79182974150082 0
    endloop
  endfacet
  facet normal 0 0 1
    outer loop
      vertex -5.1027803919498815 4.79182974150082 0
      vertex -4.732056072236863 2.6014698401492633 0
      vertex -4.368691769624717 3.174040362379355 0
    endloop
  endfacet
  facet normal 0 0 1
    outer loop
      vertex -5.1027803919498815 4.79182974150082 0
      vertex -4.368691769624717 3.174040362379355 0
      vertex -4.461967928240828 5.393592699430526 0
    endloop
  endfacet
  facet normal 0 0 1
    outer loop
      vertex -4.461967928240828 5.393592699430526 0
      vertex -4.368691769624717 3.174040362379355 0
      vertex -3.9364305880756234 3.6965543720149183 0
    endloop
  endfacet
  facet normal 0 0 1
    outer loop
      vertex -4.461967928240828 5.393592699430526 0
      vertex -3.9364305880756234 3.6965543720149183 0
      vertex -3.4420895446429243 4.160771510989263 0
    endloop
  endfacet
  facet normal 0 0 1
    outer loop
      vertex -4.461967928240828 5.393592699430526 0
      vertex -3.4420895446429243 4.160771510989263 0
      vertex -3.7507875648529776 5.910295478514104 0
    endloop
  endfacet
  facet normal -0.4817536741017157 0.8763066800438634 0
    outer loop
      vertex -2.980455040955509 6.333789367262137 -3
      vertex -3.7507875648529776 5.910295478514104 0
      vertex -2.980455040955509 6.333789367262137 0
    endloop
  endfacet
  facet normal -0.3681245526846775 0.9297764858882517 0
    outer loop
      vertex -2.1631189606246317 6.657395614066075 -3
      vertex -2.980455040955509 6.333789367262137 0
      vertex -2.1631189606246317 6.657395614066075 0
    endloop
  endfacet
  facet normal -0.24868988716485535 0.968583161128631 0
    outer loop
      vertex -1.311669202100072 6.876010755100821 -3
      vertex -2.1631189606246317 6.657395614066075 0
      vertex -1.311669202100072 6.876010755100821 0
    endloop
  endfacet
  facet normal -0.12533323356430376 0.992114701314478 0
    outer loop
      vertex -0.43953363670519296 6.986187098997901 -3
      vertex -1.311669202100072 6.876010755100821 0
      vertex -0.43953363670519296 6.986187098997901 0
    endloop
  endfacet
  facet normal 0 0 1
    outer loop
      vertex -3.7507875648529776 5.910295478514104 0
      vertex -3.4420895446429243 4.160771510989263 0
      vertex -2.8934646928865826 4.559370797710881 0
    endloop
  endfacet
  facet normal 0 0 1
    outer loop
      vertex -3.7507875648529776 5.910295478514104 0
      vertex -2.8934646928865826 4.559370797710881 0
      vertex -2.980455040955509 6.333789367262137 0
    endloop
  endfacet
  facet normal 0 0 1
    outer loop
      vertex -2.980455040955509 6.333789367262137 0
      vertex -2.8934646928865826 4.559370797710881 0
      vertex -2.299208174451393 4.886066083316505 0
    endloop
  endfacet
  facet normal 0 0 1
    outer loop
      vertex -2.980455040955509 6.333789367262137 0
      vertex -2.299208174451393 4.886066083316505 0
      vertex -1.668691769624716 5.135705187993829 0
    endloop
  endfacet
  facet normal 0 0 1
    outer loop
      vertex -2.980455040955509 6.333789367262137 0
      vertex -1.668691769624716 5.135705187993829 0
      vertex -2.1631189606246317 6.657395614066075 0
    endloop
  endfacet
  facet normal 0 0 1
    outer loop
      vertex -2.1631189606246317 6.657395614066075 0
      vertex -1.668691769624716 5.135705187993829 0
      vertex -1.0118590987629128 5.3043511539349195 0
    endloop
  endfacet
  facet normal 0 0 1
    outer loop
      vertex -1.311669202100072 6.876010755100821 0
      vertex -1.0118590987629128 5.3043511539349195 0
      vertex -0.3390688054582914 5.389344333512667 0
    endloop
  endfacet
  facet normal 0 0 1
    outer loop
      vertex -2.1631189606246317 6.657395614066075 0
      vertex -1.0118590987629128 5.3043511539349195 0
      vertex -1.311669202100072 6.876010755100821 0
    endloop
  endfacet
  facet normal 0 0 1
    outer loop
      vertex -1.311669202100072 6.876010755100821 0
      vertex -0.3390688054582914 5.389344333512667 0
      vertex -0.43953363670519296 6.986187098997901 0
    endloop
  endfacet
  facet normal 0 0 1
    outer loop
      vertex -0.43953363670519296 6.986187098997901 0
      vertex -0.3390688054582914 5.389344333512667 0
      vertex 0.43953363670519296 6.986187098997901 0
    endloop
  endfacet
  facet normal 0 0 -1
    outer loop
      vertex 0.43953363670519635 -6.986187098997901 -3
      vertex 1.0684856843964528 -3.2884608005743963 -3
      vertex 1.3116692021000738 -6.87601075510082 -3
    endloop
  endfacet
  facet normal 0 0 -1
    outer loop
      vertex 0.43953363670519635 -6.986187098997901 -3
      vertex -0.2171102963725118 -3.4508693417577545 -3
      vertex 0.2171102963725118 -3.4508693417577545 -3
    endloop
  endfacet
  facet normal 0 0 -1
    outer loop
      vertex 0.43953363670519635 -6.986187098997901 -3
      vertex 0.2171102963725118 -3.4508693417577545 -3
      vertex 0.6479069300483331 -3.396447070788812 -3
    endloop
  endfacet
  facet normal 0 0 -1
    outer loop
      vertex 0.43953363670519635 -6.986187098997901 -3
      vertex 0.6479069300483331 -3.396447070788812 -3
      vertex 1.0684856843964528 -3.2884608005743963 -3
    endloop
  endfacet
  facet normal 0 0 -1
    outer loop
      vertex 1.3116692021000738 -6.87601075510082 -3
      vertex 1.0684856843964528 -3.2884608005743963 -3
      vertex 1.472213781219231 -3.12861353910366 -3
    endloop
  endfacet
  facet normal 0 0 -1
    outer loop
      vertex 1.3116692021000738 -6.87601075510082 -3
      vertex 1.472213781219231 -3.12861353910366 -3
      vertex 1.8527241872542985 -2.919426173178122 -3
    endloop
  endfacet
  facet normal 0 0 -1
    outer loop
      vertex 1.3116692021000738 -6.87601075510082 -3
      vertex 1.8527241872542985 -2.919426173178122 -3
      vertex 2.1631189606246317 -6.657395614066075 -3
    endloop
  endfacet
  facet normal 0 0 -1
    outer loop
      vertex 2.1631189606246317 -6.657395614066075 -3
      vertex 2.520549215584035 -2.366953262422658 -3
      vertex 2.980455040955507 -6.333789367262137 -3
    endloop
  endfacet
  facet normal 0 0 -1
    outer loop
      vertex 2.1631189606246317 -6.657395614066075 -3
      vertex 1.8527241872542985 -2.919426173178122 -3
      vertex 2.2040160260925856 -2.664197712520901 -3
    endloop
  endfacet
  facet normal 0 0 -1
    outer loop
      vertex 2.1631189606246317 -6.657395614066075 -3
      vertex 2.2040160260925856 -2.664197712520901 -3
      vertex 2.520549215584035 -2.366953262422658 -3
    endloop
  endfacet
  facet normal 0 0 -1
    outer loop
      vertex 2.980455040955507 -6.333789367262137 -3
      vertex 3.349062545594767 -0.8598931098507852 -3
      vertex 3.7507875648529736 -5.910295478514107 -3
    endloop
  endfacet
  facet normal 0 0 -1
    outer loop
      vertex 2.980455040955507 -6.333789367262137 -3
      vertex 2.520549215584035 -2.366953262422658 -3
      vertex 2.7973318382426067 -2.032380545426667 -3
    endloop
  endfacet
  facet normal 0 -1 0
    outer loop
      vertex -0.43953363670519635 -6.986187098997901 -3
      vertex 0.43953363670519635 -6.986187098997901 -3
      vertex 0.43953363670519635 -6.986187098997901 0
    endloop
  endfacet
  facet normal 0.12533323356430498 -0.9921147013144778 0
    outer loop
      vertex 0.43953363670519635 -6.986187098997901 -3
      vertex 1.3116692021000738 -6.87601075510082 -3
      vertex 1.3116692021000738 -6.87601075510082 0
    endloop
  endfacet
  facet normal 0.24868988716485488 -0.9685831611286311 0
    outer loop
      vertex 1.3116692021000738 -6.87601075510082 -3
      vertex 2.1631189606246317 -6.657395614066075 -3
      vertex 2.1631189606246317 -6.657395614066075 0
    endloop
  endfacet
  facet normal 0.36812455268467814 -0.9297764858882512 0
    outer loop
      vertex 2.1631189606246317 -6.657395614066075 -3
      vertex 2.980455040955507 -6.333789367262137 -3
      vertex 2.980455040955507 -6.333789367262137 0
    endloop
  endfacet
  facet normal 0.4817536741017145 -0.8763066800438641 0
    outer loop
      vertex 2.980455040955507 -6.333789367262137 -3
      vertex 3.7507875648529736 -5.910295478514107 -3
      vertex 3.7507875648529736 -5.910295478514107 0
    endloop
  endfacet
  facet normal 0 0 -1
    outer loop
      vertex 2.980455040955507 -6.333789367262137 -3
      vertex 2.7973318382426067 -2.032380545426667 -3
      vertex 3.0299988667670505 -1.6657559731440081 -3
    endloop
  endfacet
  facet normal 0 0 -1
    outer loop
      vertex 2.980455040955507 -6.333789367262137 -3
      vertex 3.0299988667670505 -1.6657559731440081 -3
      vertex 3.214881003128992 -1.272861434090484 -3
    endloop
  endfacet
  facet normal 0 0 -1
    outer loop
      vertex 2.980455040955507 -6.333789367262137 -3
      vertex 3.214881003128992 -1.272861434090484 -3
      vertex 3.349062545594767 -0.8598931098507852 -3
    endloop
  endfacet
  facet normal 0.587785252292473 -0.8090169943749476 0
    outer loop
      vertex 3.7507875648529736 -5.910295478514107 -3
      vertex 4.4619679282408296 -5.393592699430523 -3
      vertex 4.4619679282408296 -5.393592699430523 0
    endloop
  endfacet
  facet normal 0.6845471059286887 -0.7289686274214113 0
    outer loop
      vertex 4.4619679282408296 -5.393592699430523 -3
      vertex 5.1027803919498815 -4.79182974150082 -3
      vertex 5.1027803919498815 -4.79182974150082 0
    endloop
  endfacet
  facet normal 0.7705132427757893 -0.6374239897486896 0
    outer loop
      vertex 5.1027803919498815 -4.79182974150082 -3
      vertex 5.663118960624632 -4.114496766047312 -3
      vertex 5.1027803919498815 -4.79182974150082 0
    endloop
  endfacet
  facet normal 0.8443279255020152 -0.5358267949789963 0
    outer loop
      vertex 5.663118960624632 -4.114496766047312 -3
      vertex 6.134146760307044 -3.372275718712008 -3
      vertex 5.663118960624632 -4.114496766047312 0
    endloop
  endfacet
  facet normal 0 0 -1
    outer loop
      vertex 3.7507875648529736 -5.910295478514107 -3
      vertex 3.349062545594767 -0.8598931098507852 -3
      vertex 3.4304273710835216 -0.43336375759349754 -3
    endloop
  endfacet
  facet normal 0 0 -1
    outer loop
      vertex 3.7507875648529736 -5.910295478514107 -3
      vertex 3.4304273710835216 -0.43336375759349754 -3
      vertex 3.4576923076923074 0 -3
    endloop
  endfacet
  facet normal 0 0 -1
    outer loop
      vertex 3.7507875648529736 -5.910295478514107 -3
      vertex 4.461967928240828 5.393592699430524 -3
      vertex 4.4619679282408296 -5.393592699430523 -3
    endloop
  endfacet
  facet normal 0 0 -1
    outer loop
      vertex 4.4619679282408296 -5.393592699430523 -3
      vertex 5.102780391949881 4.7918297415008215 -3
      vertex 5.1027803919498815 -4.79182974150082 -3
    endloop
  endfacet
  facet normal 0 0 -1
    outer loop
      vertex 3.7507875648529736 -5.910295478514107 -3
      vertex 3.4576923076923074 0 -3
      vertex 3.7507875648529767 5.910295478514105 -3
    endloop
  endfacet
  facet normal 0 0 -1
    outer loop
      vertex 5.1027803919498815 -4.79182974150082 -3
      vertex 5.663118960624632 4.114496766047312 -3
      vertex 5.663118960624632 -4.114496766047312 -3
    endloop
  endfacet
  facet normal 0 0 -1
    outer loop
      vertex 5.663118960624632 -4.114496766047312 -3
      vertex 6.134146760307045 3.3722757187120074 -3
      vertex 6.134146760307044 -3.372275718712008 -3
    endloop
  endfacet
  facet normal 0 0 -1
    outer loop
      vertex 6.134146760307044 -3.372275718712008 -3
      vertex 6.50843540121776 2.576871868792746 -3
      vertex 6.508435401217759 -2.5768718687927485 -3
    endloop
  endfacet
  facet normal 0 0 -1
    outer loop
      vertex 6.508435401217759 -2.5768718687927485 -3
      vertex 6.7800821279004175 1.7408292101539835 -3
      vertex 6.780082127900418 -1.740829210153981 -3
    endloop
  endfacet
  facet normal 0 0 -1
    outer loop
      vertex 6.780082127900418 -1.740829210153981 -3
      vertex 6.9448029092013455 0.8773326349501298 -3
      vertex 6.9448029092013455 -0.8773326349501285 -3
    endloop
  endfacet
  facet normal 0.9048270524660191 -0.4257792915650735 0
    outer loop
      vertex 6.134146760307044 -3.372275718712008 -3
      vertex 6.508435401217759 -2.5768718687927485 -3
      vertex 6.134146760307044 -3.372275718712008 0
    endloop
  endfacet
  facet normal 0.9510565162951536 -0.3090169943749471 0
    outer loop
      vertex 6.508435401217759 -2.5768718687927485 -3
      vertex 6.780082127900418 -1.740829210153981 -3
      vertex 6.508435401217759 -2.5768718687927485 0
    endloop
  endfacet
  facet normal 0.9822872507286886 -0.18738131458572496 0
    outer loop
      vertex 6.780082127900418 -1.740829210153981 -3
      vertex 6.9448029092013455 -0.8773326349501285 -3
      vertex 6.780082127900418 -1.740829210153981 0
    endloop
  endfacet
  facet normal 0.9980267284282717 -0.06279051952931274 0
    outer loop
      vertex 6.9448029092013455 -0.8773326349501285 -3
      vertex 7 0 -3
      vertex 6.9448029092013455 -0.8773326349501285 0
    endloop
  endfacet
  facet normal 0.12533323356430498 -0.9921147013144778 0
    outer loop
      vertex 0.43953363670519635 -6.986187098997901 -3
      vertex 1.3116692021000738 -6.87601075510082 0
      vertex 0.43953363670519635 -6.986187098997901 0
    endloop
  endfacet
  facet normal 0.24868988716485488 -0.9685831611286311 0
    outer loop
      vertex 1.3116692021000738 -6.87601075510082 -3
      vertex 2.1631189606246317 -6.657395614066075 0
      vertex 1.3116692021000738 -6.87601075510082 0
    endloop
  endfacet
  facet normal 0.36812455268467814 -0.9297764858882512 0
    outer loop
      vertex 2.1631189606246317 -6.657395614066075 -3
      vertex 2.980455040955507 -6.333789367262137 0
      vertex 2.1631189606246317 -6.657395614066075 0
    endloop
  endfacet
  facet normal 0.4817536741017145 -0.8763066800438641 0
    outer loop
      vertex 2.980455040955507 -6.333789367262137 -3
      vertex 3.7507875648529736 -5.910295478514107 0
      vertex 2.980455040955507 -6.333789367262137 0
    endloop
  endfacet
  facet normal 0 0 1
    outer loop
      vertex 0.43953363670519635 -6.986187098997901 0
      vertex 1.3116692021000738 -6.87601075510082 0
      vertex 0.3390688054582943 -5.389344333512667 0
    endloop
  endfacet
  facet normal 0 0 1
    outer loop
      vertex 0.43953363670519635 -6.986187098997901 0
      vertex 0.3390688054582943 -5.389344333512667 0
      vertex -0.3390688054582943 -5.389344333512667 0
    endloop
  endfacet
  facet normal 0 0 1
    outer loop
      vertex 1.3116692021000738 -6.87601075510082 0
      vertex 2.1631189606246317 -6.657395614066075 0
      vertex 1.0118590987629141 -5.304351153934919 0
    endloop
  endfacet
  facet normal 0 0 1
    outer loop
      vertex 1.3116692021000738 -6.87601075510082 0
      vertex 1.0118590987629141 -5.304351153934919 0
      vertex 0.3390688054582943 -5.389344333512667 0
    endloop
  endfacet
  facet normal 0 0 1
    outer loop
      vertex 2.1631189606246317 -6.657395614066075 0
      vertex 1.668691769624716 -5.135705187993829 0
      vertex 1.0118590987629141 -5.304351153934919 0
    endloop
  endfacet
  facet normal 0 0 1
    outer loop
      vertex 2.1631189606246317 -6.657395614066075 0
      vertex 2.980455040955507 -6.333789367262137 0
      vertex 1.668691769624716 -5.135705187993829 0
    endloop
  endfacet
  facet normal 0 0 1
    outer loop
      vertex 2.980455040955507 -6.333789367262137 0
      vertex 2.2992081744513913 -4.886066083316506 0
      vertex 1.668691769624716 -5.135705187993829 0
    endloop
  endfacet
  facet normal 0 0 1
    outer loop
      vertex 2.980455040955507 -6.333789367262137 0
      vertex 2.89346469288658 -4.559370797710883 0
      vertex 2.2992081744513913 -4.886066083316506 0
    endloop
  endfacet
  facet normal 0 0 1
    outer loop
      vertex 2.980455040955507 -6.333789367262137 0
      vertex 3.7507875648529736 -5.910295478514107 0
      vertex 2.89346469288658 -4.559370797710883 0
    endloop
  endfacet
  facet normal 0 0 1
    outer loop
      vertex 3.7507875648529736 -5.910295478514107 0
      vertex 3.442089544642926 -4.160771510989261 0
      vertex 2.89346469288658 -4.559370797710883 0
    endloop
  endfacet
  facet normal 0.587785252292473 -0.8090169943749476 0
    outer loop
      vertex 3.7507875648529736 -5.910295478514107 -3
      vertex 4.4619679282408296 -5.393592699430523 0
      vertex 3.7507875648529736 -5.910295478514107 0
    endloop
  endfacet
  facet normal 0.6845471059286887 -0.7289686274214113 0
    outer loop
      vertex 4.4619679282408296 -5.393592699430523 -3
      vertex 5.1027803919498815 -4.79182974150082 0
      vertex 4.4619679282408296 -5.393592699430523 0
    endloop
  endfacet
  facet normal 0.7705132427757893 -0.6374239897486896 0
    outer loop
      vertex 5.663118960624632 -4.114496766047312 -3
      vertex 5.663118960624632 -4.114496766047312 0
      vertex 5.1027803919498815 -4.79182974150082 0
    endloop
  endfacet
  facet normal 0.8443279255020152 -0.5358267949789963 0
    outer loop
      vertex 6.134146760307044 -3.372275718712008 -3
      vertex 6.134146760307044 -3.372275718712008 0
      vertex 5.663118960624632 -4.114496766047312 0
    endloop
  endfacet
  facet normal 0 0 1
    outer loop
      vertex 3.7507875648529736 -5.910295478514107 0
      vertex 4.4619679282408296 -5.393592699430523 0
      vertex 3.442089544642926 -4.160771510989261 0
    endloop
  endfacet
  facet normal 0 0 1
    outer loop
      vertex 4.4619679282408296 -5.393592699430523 0
      vertex 3.9364305880756234 -3.6965543720149183 0
      vertex 3.442089544642926 -4.160771510989261 0
    endloop
  endfacet
  facet normal 0 0 1
    outer loop
      vertex 4.4619679282408296 -5.393592699430523 0
      vertex 4.368691769624717 -3.174040362379355 0
      vertex 3.9364305880756234 -3.6965543720149183 0
    endloop
  endfacet
  facet normal 0 0 1
    outer loop
      vertex 4.4619679282408296 -5.393592699430523 0
      vertex 5.1027803919498815 -4.79182974150082 0
      vertex 4.368691769624717 -3.174040362379355 0
    endloop
  endfacet
  facet normal 0 0 1
    outer loop
      vertex 5.1027803919498815 -4.79182974150082 0
      vertex 4.732056072236863 -2.6014698401492633 0
      vertex 4.368691769624717 -3.174040362379355 0
    endloop
  endfacet
  facet normal 0 0 1
    outer loop
      vertex 5.1027803919498815 -4.79182974150082 0
      vertex 5.663118960624632 -4.114496766047312 0
      vertex 5.020793023796557 -1.9878725844972633 0
    endloop
  endfacet
  facet normal 0.9048270524660191 -0.4257792915650735 0
    outer loop
      vertex 6.508435401217759 -2.5768718687927485 -3
      vertex 6.508435401217759 -2.5768718687927485 0
      vertex 6.134146760307044 -3.372275718712008 0
    endloop
  endfacet
  facet normal 0.9510565162951536 -0.3090169943749471 0
    outer loop
      vertex 6.780082127900418 -1.740829210153981 -3
      vertex 6.780082127900418 -1.740829210153981 0
      vertex 6.508435401217759 -2.5768718687927485 0
    endloop
  endfacet
  facet normal 0.9822872507286886 -0.18738131458572496 0
    outer loop
      vertex 6.9448029092013455 -0.8773326349501285 -3
      vertex 6.9448029092013455 -0.8773326349501285 0
      vertex 6.780082127900418 -1.740829210153981 0
    endloop
  endfacet
  facet normal 0.9980267284282717 -0.06279051952931274 0
    outer loop
      vertex 6.9448029092013455 -0.8773326349501285 0
      vertex 7 0 -3
      vertex 7 0 0
    endloop
  endfacet
  facet normal 0 0 1
    outer loop
      vertex 5.1027803919498815 -4.79182974150082 0
      vertex 5.020793023796557 -1.9878725844972633 0
      vertex 4.732056072236863 -2.6014698401492633 0
    endloop
  endfacet
  facet normal 0 0 1
    outer loop
      vertex 5.663118960624632 -4.114496766047312 0
      vertex 5.230349070094609 -1.342925390690214 0
      vertex 5.020793023796557 -1.9878725844972633 0
    endloop
  endfacet
  facet normal 0 0 1
    outer loop
      vertex 5.663118960624632 -4.114496766047312 0
      vertex 5.357419387098181 -0.676799461247242 0
      vertex 5.230349070094609 -1.342925390690214 0
    endloop
  endfacet
  facet normal 0 0 1
    outer loop
      vertex 5.663118960624632 -4.114496766047312 0
      vertex 5.4 0 0
      vertex 5.357419387098181 -0.676799461247242 0
    endloop
  endfacet
  facet normal 0 0 1
    outer loop
      vertex 5.663118960624632 -4.114496766047312 0
      vertex 5.357419387098181 0.676799461247243 0
      vertex 5.4 0 0
    endloop
  endfacet
  facet normal 0 0 1
    outer loop
      vertex 5.663118960624632 -4.114496766047312 0
      vertex 6.134146760307044 -3.372275718712008 0
      vertex 5.663118960624632 4.114496766047312 0
    endloop
  endfacet
  facet normal 0 0 1
    outer loop
      vertex 6.134146760307044 -3.372275718712008 0
      vertex 6.508435401217759 -2.5768718687927485 0
      vertex 6.134146760307045 3.3722757187120074 0
    endloop
  endfacet
  facet normal 0 0 1
    outer loop
      vertex 6.508435401217759 -2.5768718687927485 0
      vertex 6.780082127900418 -1.740829210153981 0
      vertex 6.50843540121776 2.576871868792746 0
    endloop
  endfacet
  facet normal 0 0 1
    outer loop
      vertex 6.780082127900418 -1.740829210153981 0
      vertex 6.9448029092013455 -0.8773326349501285 0
      vertex 6.7800821279004175 1.7408292101539835 0
    endloop
  endfacet
  facet normal 0 0 -1
    outer loop
      vertex 3.7507875648529767 5.910295478514105 -3
      vertex 3.3490625455947667 0.8598931098507863 -3
      vertex 3.2148810031289923 1.2728614340904827 -3
    endloop
  endfacet
  facet normal 0 0 -1
    outer loop
      vertex 3.7507875648529767 5.910295478514105 -3
      vertex 3.2148810031289923 1.2728614340904827 -3
      vertex 3.0299988667670514 1.665755973144008 -3
    endloop
  endfacet
  facet normal 0 0 -1
    outer loop
      vertex 3.7507875648529767 5.910295478514105 -3
      vertex 3.0299988667670514 1.665755973144008 -3
      vertex 2.797331838242607 2.032380545426667 -3
    endloop
  endfacet
  facet normal 0 0 -1
    outer loop
      vertex 1.311669202100072 6.876010755100821 -3
      vertex 0.6479069300483323 3.3964470707888124 -3
      vertex 0.2171102963725093 3.4508693417577545 -3
    endloop
  endfacet
  facet normal 0 0 -1
    outer loop
      vertex 2.1631189606246317 6.657395614066075 -3
      vertex 1.4722137812192322 3.1286135391036596 -3
      vertex 1.0684856843964528 3.2884608005743963 -3
    endloop
  endfacet
  facet normal 0 0 -1
    outer loop
      vertex 1.311669202100072 6.876010755100821 -3
      vertex 1.0684856843964528 3.2884608005743963 -3
      vertex 0.6479069300483323 3.3964470707888124 -3
    endloop
  endfacet
  facet normal 0 0 -1
    outer loop
      vertex -0.43953363670519296 6.986187098997901 -3
      vertex 0.43953363670519296 6.986187098997901 -3
      vertex 0.2171102963725093 3.4508693417577545 -3
    endloop
  endfacet
  facet normal 0 0 -1
    outer loop
      vertex 0.43953363670519296 6.986187098997901 -3
      vertex 1.311669202100072 6.876010755100821 -3
      vertex 0.2171102963725093 3.4508693417577545 -3
    endloop
  endfacet
  facet normal 0 0 -1
    outer loop
      vertex 1.311669202100072 6.876010755100821 -3
      vertex 2.1631189606246317 6.657395614066075 -3
      vertex 1.0684856843964528 3.2884608005743963 -3
    endloop
  endfacet
  facet normal 0 0 -1
    outer loop
      vertex 2.1631189606246317 6.657395614066075 -3
      vertex 1.8527241872542999 2.9194261731781213 -3
      vertex 1.4722137812192322 3.1286135391036596 -3
    endloop
  endfacet
  facet normal 0 0 -1
    outer loop
      vertex 2.980455040955509 6.333789367262137 -3
      vertex 2.5205492155840346 2.3669532624226584 -3
      vertex 2.2040160260925847 2.6641977125209015 -3
    endloop
  endfacet
  facet normal 0 0 -1
    outer loop
      vertex 2.980455040955509 6.333789367262137 -3
      vertex 2.2040160260925847 2.6641977125209015 -3
      vertex 1.8527241872542999 2.9194261731781213 -3
    endloop
  endfacet
  facet normal 0 0 -1
    outer loop
      vertex 2.980455040955509 6.333789367262137 -3
      vertex 2.797331838242607 2.032380545426667 -3
      vertex 2.5205492155840346 2.3669532624226584 -3
    endloop
  endfacet
  facet normal 0 0 -1
    outer loop
      vertex 2.980455040955509 6.333789367262137 -3
      vertex 3.7507875648529767 5.910295478514105 -3
      vertex 2.797331838242607 2.032380545426667 -3
    endloop
  endfacet
  facet normal 0 0 -1
    outer loop
      vertex 2.1631189606246317 6.657395614066075 -3
      vertex 2.980455040955509 6.333789367262137 -3
      vertex 1.8527241872542999 2.9194261731781213 -3
    endloop
  endfacet
  facet normal 0.12533323356430376 0.992114701314478 0
    outer loop
      vertex 0.43953363670519296 6.986187098997901 -3
      vertex 0.43953363670519296 6.986187098997901 0
      vertex 1.311669202100072 6.876010755100821 -3
    endloop
  endfacet
  facet normal 0.24868988716485535 0.968583161128631 0
    outer loop
      vertex 1.311669202100072 6.876010755100821 -3
      vertex 1.311669202100072 6.876010755100821 0
      vertex 2.1631189606246317 6.657395614066075 -3
    endloop
  endfacet
  facet normal 0.3681245526846775 0.9297764858882517 0
    outer loop
      vertex 2.1631189606246317 6.657395614066075 -3
      vertex 2.1631189606246317 6.657395614066075 0
      vertex 2.980455040955509 6.333789367262137 -3
    endloop
  endfacet
  facet normal 0.4817536741017154 0.8763066800438636 0
    outer loop
      vertex 2.980455040955509 6.333789367262137 -3
      vertex 2.980455040955509 6.333789367262137 0
      vertex 3.7507875648529767 5.910295478514105 -3
    endloop
  endfacet
  facet normal 0 0 -1
    outer loop
      vertex 4.4619679282408296 -5.393592699430523 -3
      vertex 4.461967928240828 5.393592699430524 -3
      vertex 5.102780391949881 4.7918297415008215 -3
    endloop
  endfacet
  facet normal 0 0 -1
    outer loop
      vertex 3.7507875648529767 5.910295478514105 -3
      vertex 3.4576923076923074 0 -3
      vertex 3.4304273710835216 0.4333637575934982 -3
    endloop
  endfacet
  facet normal 0 0 -1
    outer loop
      vertex 3.7507875648529767 5.910295478514105 -3
      vertex 3.4304273710835216 0.4333637575934982 -3
      vertex 3.3490625455947667 0.8598931098507863 -3
    endloop
  endfacet
  facet normal 0 0 -1
    outer loop
      vertex 3.7507875648529736 -5.910295478514107 -3
      vertex 3.7507875648529767 5.910295478514105 -3
      vertex 4.461967928240828 5.393592699430524 -3
    endloop
  endfacet
  facet normal 0 0 -1
    outer loop
      vertex 5.1027803919498815 -4.79182974150082 -3
      vertex 5.102780391949881 4.7918297415008215 -3
      vertex 5.663118960624632 4.114496766047312 -3
    endloop
  endfacet
  facet normal 0 0 -1
    outer loop
      vertex 5.663118960624632 -4.114496766047312 -3
      vertex 5.663118960624632 4.114496766047312 -3
      vertex 6.134146760307045 3.3722757187120074 -3
    endloop
  endfacet
  facet normal 0 0 -1
    outer loop
      vertex 6.134146760307044 -3.372275718712008 -3
      vertex 6.134146760307045 3.3722757187120074 -3
      vertex 6.50843540121776 2.576871868792746 -3
    endloop
  endfacet
  facet normal 0 0 -1
    outer loop
      vertex 6.9448029092013455 -0.8773326349501285 -3
      vertex 6.9448029092013455 0.8773326349501298 -3
      vertex 7 0 -3
    endloop
  endfacet
  facet normal 0 0 -1
    outer loop
      vertex 6.780082127900418 -1.740829210153981 -3
      vertex 6.7800821279004175 1.7408292101539835 -3
      vertex 6.9448029092013455 0.8773326349501298 -3
    endloop
  endfacet
  facet normal 0 0 -1
    outer loop
      vertex 6.508435401217759 -2.5768718687927485 -3
      vertex 6.50843540121776 2.576871868792746 -3
      vertex 6.7800821279004175 1.7408292101539835 -3
    endloop
  endfacet
  facet normal 0.9980267284282717 0.06279051952931264 0
    outer loop
      vertex 7 0 -3
      vertex 6.9448029092013455 0.8773326349501298 -3
      vertex 7 0 0
    endloop
  endfacet
  facet normal 0.9822872507286885 0.1873813145857257 0
    outer loop
      vertex 6.9448029092013455 0.8773326349501298 -3
      vertex 6.7800821279004175 1.7408292101539835 -3
      vertex 6.9448029092013455 0.8773326349501298 0
    endloop
  endfacet
  facet normal 0.9510565162951536 0.30901699437494695 0
    outer loop
      vertex 6.7800821279004175 1.7408292101539835 -3
      vertex 6.50843540121776 2.576871868792746 -3
      vertex 6.7800821279004175 1.7408292101539835 0
    endloop
  endfacet
  facet normal 0.9048270524660196 0.42577929156507244 0
    outer loop
      vertex 6.50843540121776 2.576871868792746 -3
      vertex 6.134146760307045 3.3722757187120074 -3
      vertex 6.50843540121776 2.576871868792746 0
    endloop
  endfacet
  facet normal 0.6845471059286877 0.7289686274214123 0
    outer loop
      vertex 5.102780391949881 4.7918297415008215 -3
      vertex 4.461967928240828 5.393592699430524 -3
      vertex 4.461967928240828 5.393592699430524 0
    endloop
  endfacet
  facet normal 0.5877852522924736 0.809016994374947 0
    outer loop
      vertex 3.7507875648529767 5.910295478514105 -3
      vertex 3.7507875648529767 5.910295478514105 0
      vertex 4.461967928240828 5.393592699430524 -3
    endloop
  endfacet
  facet normal 0.7705132427757896 0.6374239897486893 0
    outer loop
      vertex 5.102780391949881 4.7918297415008215 -3
      vertex 5.663118960624632 4.114496766047312 0
      vertex 5.663118960624632 4.114496766047312 -3
    endloop
  endfacet
  facet normal 0.844327925502015 0.5358267949789969 0
    outer loop
      vertex 6.134146760307045 3.3722757187120074 -3
      vertex 5.663118960624632 4.114496766047312 -3
      vertex 6.134146760307045 3.3722757187120074 0
    endloop
  endfacet
  facet normal 0 1 0
    outer loop
      vertex -0.43953363670519296 6.986187098997901 0
      vertex 0.43953363670519296 6.986187098997901 0
      vertex 0.43953363670519296 6.986187098997901 -3
    endloop
  endfacet
  facet normal 0.12533323356430376 0.992114701314478 0
    outer loop
      vertex 1.311669202100072 6.876010755100821 -3
      vertex 0.43953363670519296 6.986187098997901 0
      vertex 1.311669202100072 6.876010755100821 0
    endloop
  endfacet
  facet normal 0.24868988716485535 0.968583161128631 0
    outer loop
      vertex 2.1631189606246317 6.657395614066075 -3
      vertex 1.311669202100072 6.876010755100821 0
      vertex 2.1631189606246317 6.657395614066075 0
    endloop
  endfacet
  facet normal 0.4817536741017154 0.8763066800438636 0
    outer loop
      vertex 3.7507875648529767 5.910295478514105 -3
      vertex 2.980455040955509 6.333789367262137 0
      vertex 3.7507875648529767 5.910295478514105 0
    endloop
  endfacet
  facet normal 0.3681245526846775 0.9297764858882517 0
    outer loop
      vertex 2.980455040955509 6.333789367262137 -3
      vertex 2.1631189606246317 6.657395614066075 0
      vertex 2.980455040955509 6.333789367262137 0
    endloop
  endfacet
  facet normal 0 0 1
    outer loop
      vertex 0.43953363670519296 6.986187098997901 0
      vertex -0.3390688054582914 5.389344333512667 0
      vertex 0.3390688054582917 5.389344333512667 0
    endloop
  endfacet
  facet normal 0 0 1
    outer loop
      vertex 0.43953363670519296 6.986187098997901 0
      vertex 0.3390688054582917 5.389344333512667 0
      vertex 1.0118590987629128 5.3043511539349195 0
    endloop
  endfacet
  facet normal 0 0 1
    outer loop
      vertex 1.311669202100072 6.876010755100821 0
      vertex 1.0118590987629128 5.3043511539349195 0
      vertex 1.668691769624716 5.135705187993829 0
    endloop
  endfacet
  facet normal 0 0 1
    outer loop
      vertex 0.43953363670519296 6.986187098997901 0
      vertex 1.0118590987629128 5.3043511539349195 0
      vertex 1.311669202100072 6.876010755100821 0
    endloop
  endfacet
  facet normal 0 0 1
    outer loop
      vertex 1.311669202100072 6.876010755100821 0
      vertex 1.668691769624716 5.135705187993829 0
      vertex 2.1631189606246317 6.657395614066075 0
    endloop
  endfacet
  facet normal 0 0 1
    outer loop
      vertex 2.980455040955509 6.333789367262137 0
      vertex 2.893464692886582 4.559370797710882 0
      vertex 3.4420895446429247 4.160771510989262 0
    endloop
  endfacet
  facet normal 0 0 1
    outer loop
      vertex 2.1631189606246317 6.657395614066075 0
      vertex 1.668691769624716 5.135705187993829 0
      vertex 2.299208174451393 4.886066083316505 0
    endloop
  endfacet
  facet normal 0 0 1
    outer loop
      vertex 2.1631189606246317 6.657395614066075 0
      vertex 2.299208174451393 4.886066083316505 0
      vertex 2.980455040955509 6.333789367262137 0
    endloop
  endfacet
  facet normal 0 0 1
    outer loop
      vertex 2.980455040955509 6.333789367262137 0
      vertex 2.299208174451393 4.886066083316505 0
      vertex 2.893464692886582 4.559370797710882 0
    endloop
  endfacet
  facet normal 0 0 1
    outer loop
      vertex 2.980455040955509 6.333789367262137 0
      vertex 3.4420895446429247 4.160771510989262 0
      vertex 3.7507875648529767 5.910295478514105 0
    endloop
  endfacet
  facet normal 0.9980267284282717 0.06279051952931264 0
    outer loop
      vertex 6.9448029092013455 0.8773326349501298 -3
      vertex 6.9448029092013455 0.8773326349501298 0
      vertex 7 0 0
    endloop
  endfacet
  facet normal 0.9822872507286885 0.1873813145857257 0
    outer loop
      vertex 6.7800821279004175 1.7408292101539835 -3
      vertex 6.7800821279004175 1.7408292101539835 0
      vertex 6.9448029092013455 0.8773326349501298 0
    endloop
  endfacet
  facet normal 0.9510565162951536 0.30901699437494695 0
    outer loop
      vertex 6.50843540121776 2.576871868792746 -3
      vertex 6.50843540121776 2.576871868792746 0
      vertex 6.7800821279004175 1.7408292101539835 0
    endloop
  endfacet
  facet normal 0.9048270524660196 0.42577929156507244 0
    outer loop
      vertex 6.134146760307045 3.3722757187120074 -3
      vertex 6.134146760307045 3.3722757187120074 0
      vertex 6.50843540121776 2.576871868792746 0
    endloop
  endfacet
  facet normal 0 0 1
    outer loop
      vertex 5.102780391949881 4.7918297415008215 0
      vertex 5.230349070094608 1.3429253906902159 0
      vertex 5.357419387098181 0.676799461247243 0
    endloop
  endfacet
  facet normal 0 0 1
    outer loop
      vertex 5.102780391949881 4.7918297415008215 0
      vertex 5.020793023796558 1.9878725844972611 0
      vertex 5.230349070094608 1.3429253906902159 0
    endloop
  endfacet
  facet normal 0 0 1
    outer loop
      vertex 5.102780391949881 4.7918297415008215 0
      vertex 4.732056072236864 2.601469840149263 0
      vertex 5.020793023796558 1.9878725844972611 0
    endloop
  endfacet
  facet normal 0 0 1
    outer loop
      vertex 5.663118960624632 -4.114496766047312 0
      vertex 5.102780391949881 4.7918297415008215 0
      vertex 5.357419387098181 0.676799461247243 0
    endloop
  endfacet
  facet normal 0 0 1
    outer loop
      vertex 5.663118960624632 -4.114496766047312 0
      vertex 5.663118960624632 4.114496766047312 0
      vertex 5.102780391949881 4.7918297415008215 0
    endloop
  endfacet
  facet normal 0 0 1
    outer loop
      vertex 6.134146760307044 -3.372275718712008 0
      vertex 6.134146760307045 3.3722757187120074 0
      vertex 5.663118960624632 4.114496766047312 0
    endloop
  endfacet
  facet normal 0 0 1
    outer loop
      vertex 6.9448029092013455 -0.8773326349501285 0
      vertex 7 0 0
      vertex 6.9448029092013455 0.8773326349501298 0
    endloop
  endfacet
  facet normal 0 0 1
    outer loop
      vertex 6.780082127900418 -1.740829210153981 0
      vertex 6.7800821279004175 1.7408292101539835 0
      vertex 6.50843540121776 2.576871868792746 0
    endloop
  endfacet
  facet normal 0 0 1
    outer loop
      vertex 6.9448029092013455 -0.8773326349501285 0
      vertex 6.9448029092013455 0.8773326349501298 0
      vertex 6.7800821279004175 1.7408292101539835 0
    endloop
  endfacet
  facet normal 0 0 1
    outer loop
      vertex 6.508435401217759 -2.5768718687927485 0
      vertex 6.50843540121776 2.576871868792746 0
      vertex 6.134146760307045 3.3722757187120074 0
    endloop
  endfacet
  facet normal 0.6845471059286877 0.7289686274214123 0
    outer loop
      vertex 5.102780391949881 4.7918297415008215 -3
      vertex 4.461967928240828 5.393592699430524 0
      vertex 5.102780391949881 4.7918297415008215 0
    endloop
  endfacet
  facet normal 0.5877852522924736 0.809016994374947 0
    outer loop
      vertex 4.461967928240828 5.393592699430524 -3
      vertex 3.7507875648529767 5.910295478514105 0
      vertex 4.461967928240828 5.393592699430524 0
    endloop
  endfacet
  facet normal 0.844327925502015 0.5358267949789969 0
    outer loop
      vertex 5.663118960624632 4.114496766047312 -3
      vertex 5.663118960624632 4.114496766047312 0
      vertex 6.134146760307045 3.3722757187120074 0
    endloop
  endfacet
  facet normal 0.7705132427757896 0.6374239897486893 0
    outer loop
      vertex 5.102780391949881 4.7918297415008215 -3
      vertex 5.102780391949881 4.7918297415008215 0
      vertex 5.663118960624632 4.114496766047312 0
    endloop
  endfacet
  facet normal 0 0 1
    outer loop
      vertex 4.461967928240828 5.393592699430524 0
      vertex 3.9364305880756225 3.696554372014919 0
      vertex 4.368691769624717 3.174040362379355 0
    endloop
  endfacet
  facet normal 0 0 1
    outer loop
      vertex 3.7507875648529767 5.910295478514105 0
      vertex 3.4420895446429247 4.160771510989262 0
      vertex 3.9364305880756225 3.696554372014919 0
    endloop
  endfacet
  facet normal 0 0 1
    outer loop
      vertex 3.7507875648529767 5.910295478514105 0
      vertex 3.9364305880756225 3.696554372014919 0
      vertex 4.461967928240828 5.393592699430524 0
    endloop
  endfacet
  facet normal 0 0 1
    outer loop
      vertex 4.461967928240828 5.393592699430524 0
      vertex 4.368691769624717 3.174040362379355 0
      vertex 4.732056072236864 2.601469840149263 0
    endloop
  endfacet
  facet normal 0 0 1
    outer loop
      vertex 5.102780391949881 4.7918297415008215 0
      vertex 4.461967928240828 5.393592699430524 0
      vertex 4.732056072236864 2.601469840149263 0
    endloop
  endfacet
endsolid OpenSCAD_Model
