solid OpenSCAD_Model
  facet normal 0.6450073123142288 0.5335964544246695 0.5470286929280733
    outer loop
      vertex -2.57742478981142 -2.4203629816764343 -3
      vertex -2.860452944397136 -2.078240713462673 -3
      vertex -4.449593469062211 -3.232818887608602 0
    endloop
  endfacet
  facet normal 0.7067986060537782 0.44854803487903017 0.5470286929280734
    outer loop
      vertex -2.860452944397136 -2.078240713462673 -3
      vertex -3.0983700472979456 -1.7033433477167796 -3
      vertex -4.819686740241249 -2.6496452075594346 0
    endloop
  endfacet
  facet normal 0.7574432635548358 0.356425744873744 0.5470286929280734
    outer loop
      vertex -3.0983700472979456 -1.7033433477167796 -3
      vertex -3.2874240036763176 -1.301583239849397 -3
      vertex -5.113770672385383 -2.0246850397657283 0
    endloop
  endfacet
  facet normal 0.7961425883149613 0.2586824079533774 0.5470286929280733
    outer loop
      vertex -3.2874240036763176 -1.301583239849397 -3
      vertex -3.424633319704803 -0.879296386761451 -3
      vertex -5.327207386207471 -1.3677943794067016 0
    endloop
  endfacet
  facet normal 0.8222862688648306 0.15685949493020507 0.5470286929280734
    outer loop
      vertex -3.424633319704803 -0.879296386761451 -3
      vertex -3.507834122504761 -0.44314250438807506 -3
      vertex -5.456630857229628 -0.6893327846036723 0
    endloop
  endfacet
  facet normal 0.835462003744694 0.05256281396866475 0.5470286929280735
    outer loop
      vertex -3.507834122504761 -0.44314250438807506 -3
      vertex -3.5357142857142856 0 -3
      vertex -5.5 0 0
    endloop
  endfacet
  facet normal 0.5730438679507945 0.6102297391289577 0.5470286929280734
    outer loop
      vertex -2.57742478981142 -2.4203629816764343 -3
      vertex -3.505831943617793 -4.237822835266842 0
      vertex -2.2537491066114383 -2.7243146798143982 -3
    endloop
  endfacet
  facet normal 0.4920431794699598 0.6772393363136081 0.5470286929280734
    outer loop
      vertex -3.505831943617793 -4.237822835266842 0
      vertex -1.8945304536757386 -2.985302308024981 -3
      vertex -2.2537491066114383 -2.7243146798143982 -3
    endloop
  endfacet
  facet normal 0.40328267611653873 0.7335684646014211 0.5470286929280734
    outer loop
      vertex -1.5054339237479346 -3.1992099355048547 -3
      vertex -1.8945304536757386 -2.985302308024981 -3
      vertex -2.341786103607898 -4.9765487885631075 0
    endloop
  endfacet
  facet normal 0.3081621640513655 0.7783287799899107 0.5470286929280735
    outer loop
      vertex -1.5054339237479346 -3.1992099355048547 -3
      vertex -2.341786103607898 -4.9765487885631075 0
      vertex -1.0925958015399926 -3.3626641111864357 -3
    endloop
  endfacet
  facet normal 0.2081817505719491 0.8108143855668832 0.5470286929280733
    outer loop
      vertex -1.0925958015399926 -3.3626641111864357 -3
      vertex -1.0305972302214865 -5.402579879007788 0
      vertex -0.66252679085667 -3.4730870650764354 -3
    endloop
  endfacet
  facet normal 0.10491818652426112 0.8305129639264303 0.5470286929280734
    outer loop
      vertex -0.66252679085667 -3.4730870650764354 -3
      vertex -0.3453478574112257 -5.489147006355494 0
      vertex -0.22200933690721653 -3.528737361228532 -3
    endloop
  endfacet
  facet normal 0 0.8371138567204605 0.5470286929280734
    outer loop
      vertex -0.3453478574112257 -5.489147006355494 0
      vertex 0.22200933690721653 -3.528737361228532 -3
      vertex -0.22200933690721653 -3.528737361228532 -3
    endloop
  endfacet
  facet normal 0.6450073123142293 0.5335964544246691 0.5470286929280735
    outer loop
      vertex -4.449593469062211 -3.232818887608602 0
      vertex -4.009327450817764 -3.765009082607787 0
      vertex -2.57742478981142 -2.4203629816764343 -3
    endloop
  endfacet
  facet normal 0.5730438679507945 0.6102297391289577 0.5470286929280734
    outer loop
      vertex -4.009327450817764 -3.765009082607787 0
      vertex -3.505831943617793 -4.237822835266842 0
      vertex -2.57742478981142 -2.4203629816764343 -3
    endloop
  endfacet
  facet normal 0.8222862688648306 0.15685949493020607 0.5470286929280734
    outer loop
      vertex -3.424633319704803 -0.879296386761451 -3
      vertex -5.456630857229628 -0.6893327846036723 0
      vertex -5.327207386207471 -1.3677943794067016 0
    endloop
  endfacet
  facet normal 0.8354620037446939 0.05256281396866475 0.5470286929280734
    outer loop
      vertex -3.507834122504761 -0.44314250438807506 -3
      vertex -5.5 0 0
      vertex -5.456630857229628 -0.6893327846036723 0
    endloop
  endfacet
  facet normal 0.7067986060537781 0.44854803487903017 0.5470286929280733
    outer loop
      vertex -2.860452944397136 -2.078240713462673 -3
      vertex -4.819686740241249 -2.6496452075594346 0
      vertex -4.449593469062211 -3.232818887608602 0
    endloop
  endfacet
  facet normal 0.7574432635548359 0.3564257448737436 0.5470286929280734
    outer loop
      vertex -3.0983700472979456 -1.7033433477167796 -3
      vertex -5.113770672385383 -2.0246850397657283 0
      vertex -4.819686740241249 -2.6496452075594346 0
    endloop
  endfacet
  facet normal 0.7961425883149614 0.25868240795337716 0.5470286929280733
    outer loop
      vertex -5.327207386207471 -1.3677943794067016 0
      vertex -5.113770672385383 -2.0246850397657283 0
      vertex -3.2874240036763176 -1.301583239849397 -3
    endloop
  endfacet
  facet normal 0.4920431794699602 0.677239336313608 0.5470286929280735
    outer loop
      vertex -3.505831943617793 -4.237822835266842 0
      vertex -2.9470473723844823 -4.643803590261082 0
      vertex -1.8945304536757386 -2.985302308024981 -3
    endloop
  endfacet
  facet normal 0.4032826761165385 0.7335684646014213 0.5470286929280735
    outer loop
      vertex -2.9470473723844823 -4.643803590261082 0
      vertex -2.341786103607898 -4.9765487885631075 0
      vertex -1.8945304536757386 -2.985302308024981 -3
    endloop
  endfacet
  facet normal 0.3081621640513651 0.7783287799899109 0.5470286929280733
    outer loop
      vertex -2.341786103607898 -4.9765487885631075 0
      vertex -1.6995934690622108 -5.230810839623344 0
      vertex -1.0925958015399926 -3.3626641111864357 -3
    endloop
  endfacet
  facet normal 0.10491818652426159 0.8305129639264301 0.5470286929280733
    outer loop
      vertex -1.0305972302214865 -5.402579879007788 0
      vertex -0.3453478574112257 -5.489147006355494 0
      vertex -0.66252679085667 -3.4730870650764354 -3
    endloop
  endfacet
  facet normal 0.20818175057194854 0.8108143855668833 0.5470286929280733
    outer loop
      vertex -1.6995934690622108 -5.230810839623344 0
      vertex -1.0305972302214865 -5.402579879007788 0
      vertex -1.0925958015399926 -3.3626641111864357 -3
    endloop
  endfacet
  facet normal 0.8354620037446941 -0.05256281396866476 0.5470286929280735
    outer loop
      vertex -3.507834122504761 0.44314250438807506 -3
      vertex -5.456630857229628 0.6893327846036723 0
      vertex -3.5357142857142856 0 -3
    endloop
  endfacet
  facet normal 0.8222862688648307 -0.15685949493020515 0.5470286929280733
    outer loop
      vertex -3.424633319704803 0.8792963867614509 -3
      vertex -5.327207386207471 1.3677943794067016 0
      vertex -3.507834122504761 0.44314250438807506 -3
    endloop
  endfacet
  facet normal 0.7961425883149613 -0.2586824079533775 0.5470286929280733
    outer loop
      vertex -3.2874240036763176 1.3015832398493967 -3
      vertex -5.327207386207471 1.3677943794067016 0
      vertex -3.424633319704803 0.8792963867614509 -3
    endloop
  endfacet
  facet normal 0.7574432635548356 -0.3564257448737443 0.5470286929280734
    outer loop
      vertex -4.819686740241249 2.6496452075594346 0
      vertex -3.2874240036763176 1.3015832398493967 -3
      vertex -3.0983700472979456 1.7033433477167794 -3
    endloop
  endfacet
  facet normal 0.7067986060537781 -0.4485480348790304 0.5470286929280734
    outer loop
      vertex -2.860452944397136 2.0782407134626726 -3
      vertex -4.819686740241249 2.6496452075594346 0
      vertex -3.0983700472979456 1.7033433477167794 -3
    endloop
  endfacet
  facet normal 0.6450073123142295 -0.5335964544246686 0.5470286929280733
    outer loop
      vertex -2.860452944397136 2.0782407134626726 -3
      vertex -2.57742478981142 2.4203629816764347 -3
      vertex -4.009327450817764 3.765009082607787 0
    endloop
  endfacet
  facet normal 0.5730438679507941 -0.6102297391289582 0.5470286929280734
    outer loop
      vertex -2.57742478981142 2.4203629816764347 -3
      vertex -2.2537491066114383 2.7243146798143982 -3
      vertex -3.505831943617793 4.237822835266842 0
    endloop
  endfacet
  facet normal 0.4920431794699605 -0.6772393363136078 0.5470286929280735
    outer loop
      vertex -2.2537491066114383 2.7243146798143982 -3
      vertex -1.8945304536757386 2.9853023080249814 -3
      vertex -2.9470473723844823 4.643803590261082 0
    endloop
  endfacet
  facet normal 0.4032826761165394 -0.7335684646014208 0.5470286929280734
    outer loop
      vertex -2.3417861036079 4.9765487885631075 0
      vertex -1.8945304536757386 2.9853023080249814 -3
      vertex -1.5054339237479357 3.199209935504855 -3
    endloop
  endfacet
  facet normal 0.3081621640513633 -0.7783287799899116 0.5470286929280735
    outer loop
      vertex -1.5054339237479357 3.199209935504855 -3
      vertex -1.0925958015399926 3.3626641111864353 -3
      vertex -1.6995934690622108 5.230810839623344 0
    endloop
  endfacet
  facet normal 0.2081817505719486 -0.8108143855668833 0.5470286929280734
    outer loop
      vertex -1.0925958015399926 3.3626641111864353 -3
      vertex -0.662526790856669 3.473087065076435 -3
      vertex -1.0305972302214852 5.402579879007788 0
    endloop
  endfacet
  facet normal 0.10491818652426203 -0.83051296392643 0.5470286929280733
    outer loop
      vertex -0.3453478574112213 5.489147006355494 0
      vertex -0.662526790856669 3.473087065076435 -3
      vertex -0.2220093369072148 3.528737361228532 -3
    endloop
  endfacet
  facet normal 0.8354620037446939 -0.05256281396866475 0.5470286929280734
    outer loop
      vertex -5.456630857229628 0.6893327846036723 0
      vertex -5.5 0 0
      vertex -3.5357142857142856 0 -3
    endloop
  endfacet
  facet normal 0.8222862688648304 -0.15685949493020604 0.5470286929280735
    outer loop
      vertex -5.327207386207471 1.3677943794067016 0
      vertex -5.456630857229628 0.6893327846036723 0
      vertex -3.507834122504761 0.44314250438807506 -3
    endloop
  endfacet
  facet normal 0.7961425883149614 -0.25868240795337716 0.5470286929280733
    outer loop
      vertex -5.113770672385383 2.0246850397657283 0
      vertex -5.327207386207471 1.3677943794067016 0
      vertex -3.2874240036763176 1.3015832398493967 -3
    endloop
  endfacet
  facet normal 0.7574432635548358 -0.3564257448737439 0.5470286929280734
    outer loop
      vertex -4.819686740241249 2.6496452075594346 0
      vertex -5.113770672385383 2.0246850397657283 0
      vertex -3.2874240036763176 1.3015832398493967 -3
    endloop
  endfacet
  facet normal 0.7067986060537781 -0.44854803487903017 0.5470286929280733
    outer loop
      vertex -4.449593469062211 3.232818887608602 0
      vertex -4.819686740241249 2.6496452075594346 0
      vertex -2.860452944397136 2.0782407134626726 -3
    endloop
  endfacet
  facet normal 0.6450073123142293 -0.5335964544246691 0.5470286929280734
    outer loop
      vertex -2.860452944397136 2.0782407134626726 -3
      vertex -4.009327450817764 3.765009082607787 0
      vertex -4.449593469062211 3.232818887608602 0
    endloop
  endfacet
  facet normal 0.5730438679507946 -0.6102297391289578 0.5470286929280734
    outer loop
      vertex -3.505831943617793 4.237822835266842 0
      vertex -4.009327450817764 3.765009082607787 0
      vertex -2.57742478981142 2.4203629816764347 -3
    endloop
  endfacet
  facet normal 0.4920431794699602 -0.677239336313608 0.5470286929280735
    outer loop
      vertex -2.9470473723844823 4.643803590261082 0
      vertex -3.505831943617793 4.237822835266842 0
      vertex -2.2537491066114383 2.7243146798143982 -3
    endloop
  endfacet
  facet normal 0.40328267611653934 -0.7335684646014208 0.5470286929280733
    outer loop
      vertex -2.3417861036079 4.9765487885631075 0
      vertex -2.9470473723844823 4.643803590261082 0
      vertex -1.8945304536757386 2.9853023080249814 -3
    endloop
  endfacet
  facet normal 0.3081621640513644 -0.7783287799899112 0.5470286929280734
    outer loop
      vertex -1.6995934690622108 5.230810839623344 0
      vertex -2.3417861036079 4.9765487885631075 0
      vertex -1.5054339237479357 3.199209935504855 -3
    endloop
  endfacet
  facet normal 0.20818175057194818 -0.8108143855668833 0.5470286929280734
    outer loop
      vertex -1.0925958015399926 3.3626641111864353 -3
      vertex -1.0305972302214852 5.402579879007788 0
      vertex -1.6995934690622108 5.230810839623344 0
    endloop
  endfacet
  facet normal 0.10491818652426113 -0.8305129639264301 0.5470286929280734
    outer loop
      vertex -0.3453478574112213 5.489147006355494 0
      vertex -1.0305972302214852 5.402579879007788 0
      vertex -0.662526790856669 3.473087065076435 -3
    endloop
  endfacet
  facet normal 0 -0.8371138567204605 0.5470286929280735
    outer loop
      vertex -0.3453478574112213 5.489147006355494 0
      vertex -0.2220093369072148 3.528737361228532 -3
      vertex 0.34534785741122304 5.489147006355494 0
    endloop
  endfacet
  facet normal -0.1049181865242611 0.8305129639264301 0.5470286929280734
    outer loop
      vertex 0.22200933690721653 -3.528737361228532 -3
      vertex 0.3453478574112257 -5.489147006355494 0
      vertex 0.66252679085667 -3.4730870650764354 -3
    endloop
  endfacet
  facet normal -0.2081817505719491 0.8108143855668832 0.5470286929280733
    outer loop
      vertex 1.0925958015399926 -3.3626641111864357 -3
      vertex 0.66252679085667 -3.4730870650764354 -3
      vertex 1.0305972302214865 -5.402579879007788 0
    endloop
  endfacet
  facet normal -0.30816216405136454 0.778328779989911 0.5470286929280734
    outer loop
      vertex 1.6995934690622108 -5.230810839623344 0
      vertex 1.5054339237479346 -3.199209935504855 -3
      vertex 1.0925958015399926 -3.3626641111864357 -3
    endloop
  endfacet
  facet normal -0.4032826761165377 0.7335684646014219 0.5470286929280734
    outer loop
      vertex 1.8945304536757368 -2.985302308024983 -3
      vertex 1.5054339237479346 -3.199209935504855 -3
      vertex 2.341786103607898 -4.9765487885631075 0
    endloop
  endfacet
  facet normal -0.49204317946996134 0.677239336313607 0.5470286929280733
    outer loop
      vertex 2.2537491066114392 -2.7243146798143973 -3
      vertex 1.8945304536757368 -2.985302308024983 -3
      vertex 2.9470473723844792 -4.643803590261085 0
    endloop
  endfacet
  facet normal -0.5730438679507944 0.6102297391289578 0.5470286929280734
    outer loop
      vertex 2.57742478981142 -2.4203629816764343 -3
      vertex 2.2537491066114392 -2.7243146798143973 -3
      vertex 3.5058319436177947 -4.23782283526684 0
    endloop
  endfacet
  facet normal -0.6450073123142289 0.5335964544246694 0.5470286929280732
    outer loop
      vertex 4.009327450817764 -3.765009082607787 0
      vertex 2.860452944397136 -2.078240713462673 -3
      vertex 2.57742478981142 -2.4203629816764343 -3
    endloop
  endfacet
  facet normal -0.7067986060537782 0.44854803487902994 0.5470286929280733
    outer loop
      vertex 2.860452944397136 -2.078240713462673 -3
      vertex 4.819686740241249 -2.6496452075594346 0
      vertex 3.0983700472979456 -1.7033433477167794 -3
    endloop
  endfacet
  facet normal -0.7574432635548354 0.35642574487374457 0.5470286929280734
    outer loop
      vertex 3.0983700472979456 -1.7033433477167794 -3
      vertex 4.819686740241249 -2.6496452075594346 0
      vertex 3.287424003676317 -1.3015832398493985 -3
    endloop
  endfacet
  facet normal -0.7961425883149617 0.2586824079533765 0.5470286929280734
    outer loop
      vertex 3.287424003676317 -1.3015832398493985 -3
      vertex 5.327207386207472 -1.3677943794066993 0
      vertex 3.424633319704803 -0.8792963867614496 -3
    endloop
  endfacet
  facet normal -0.8222862688648304 0.15685949493020557 0.5470286929280734
    outer loop
      vertex 3.424633319704803 -0.8792963867614496 -3
      vertex 5.327207386207472 -1.3677943794066993 0
      vertex 3.507834122504761 -0.44314250438807506 -3
    endloop
  endfacet
  facet normal -0.8354620037446941 0.05256281396866476 0.5470286929280735
    outer loop
      vertex 3.507834122504761 -0.44314250438807506 -3
      vertex 5.456630857229628 -0.6893327846036723 0
      vertex 3.5357142857142856 0 -3
    endloop
  endfacet
  facet normal 0 0.8371138567204603 0.5470286929280733
    outer loop
      vertex -0.3453478574112257 -5.489147006355494 0
      vertex 0.3453478574112257 -5.489147006355494 0
      vertex 0.22200933690721653 -3.528737361228532 -3
    endloop
  endfacet
  facet normal -0.10491818652426159 0.8305129639264301 0.5470286929280733
    outer loop
      vertex 0.3453478574112257 -5.489147006355494 0
      vertex 1.0305972302214865 -5.402579879007788 0
      vertex 0.66252679085667 -3.4730870650764354 -3
    endloop
  endfacet
  facet normal -0.20818175057194854 0.8108143855668833 0.5470286929280733
    outer loop
      vertex 1.0305972302214865 -5.402579879007788 0
      vertex 1.6995934690622108 -5.230810839623344 0
      vertex 1.0925958015399926 -3.3626641111864357 -3
    endloop
  endfacet
  facet normal -0.3081621640513651 0.7783287799899109 0.5470286929280733
    outer loop
      vertex 1.6995934690622108 -5.230810839623344 0
      vertex 2.341786103607898 -4.9765487885631075 0
      vertex 1.5054339237479346 -3.199209935504855 -3
    endloop
  endfacet
  facet normal -0.40328267611653756 0.7335684646014218 0.5470286929280733
    outer loop
      vertex 2.341786103607898 -4.9765487885631075 0
      vertex 2.9470473723844792 -4.643803590261085 0
      vertex 1.8945304536757368 -2.985302308024983 -3
    endloop
  endfacet
  facet normal -0.4920431794699608 0.6772393363136073 0.5470286929280734
    outer loop
      vertex 2.9470473723844792 -4.643803590261085 0
      vertex 3.5058319436177947 -4.23782283526684 0
      vertex 2.2537491066114392 -2.7243146798143973 -3
    endloop
  endfacet
  facet normal -0.5730438679507944 0.6102297391289578 0.5470286929280734
    outer loop
      vertex 3.5058319436177947 -4.23782283526684 0
      vertex 4.009327450817764 -3.765009082607787 0
      vertex 2.57742478981142 -2.4203629816764343 -3
    endloop
  endfacet
  facet normal -0.6450073123142293 0.5335964544246691 0.5470286929280734
    outer loop
      vertex 4.009327450817764 -3.765009082607787 0
      vertex 4.449593469062211 -3.232818887608602 0
      vertex 2.860452944397136 -2.078240713462673 -3
    endloop
  endfacet
  facet normal -0.7067986060537781 0.44854803487903017 0.5470286929280733
    outer loop
      vertex 4.449593469062211 -3.232818887608602 0
      vertex 4.819686740241249 -2.6496452075594346 0
      vertex 2.860452944397136 -2.078240713462673 -3
    endloop
  endfacet
  facet normal -0.7574432635548357 0.3564257448737443 0.5470286929280733
    outer loop
      vertex 4.819686740241249 -2.6496452075594346 0
      vertex 5.113770672385382 -2.024685039765731 0
      vertex 3.287424003676317 -1.3015832398493985 -3
    endloop
  endfacet
  facet normal -0.7961425883149613 0.2586824079533773 0.5470286929280734
    outer loop
      vertex 5.113770672385382 -2.024685039765731 0
      vertex 5.327207386207472 -1.3677943794066993 0
      vertex 3.287424003676317 -1.3015832398493985 -3
    endloop
  endfacet
  facet normal -0.8222862688648306 0.15685949493020548 0.5470286929280734
    outer loop
      vertex 5.327207386207472 -1.3677943794066993 0
      vertex 5.456630857229628 -0.6893327846036723 0
      vertex 3.507834122504761 -0.44314250438807506 -3
    endloop
  endfacet
  facet normal -0.8354620037446939 0.05256281396866475 0.5470286929280734
    outer loop
      vertex 5.456630857229628 -0.6893327846036723 0
      vertex 5.5 0 0
      vertex 3.5357142857142856 0 -3
    endloop
  endfacet
  facet normal 0 -0.8371138567204603 0.5470286929280733
    outer loop
      vertex -0.2220093369072148 3.528737361228532 -3
      vertex 0.22200933690721264 3.528737361228532 -3
      vertex 0.34534785741122304 5.489147006355494 0
    endloop
  endfacet
  facet normal -0.10491818652426124 -0.8305129639264301 0.5470286929280734
    outer loop
      vertex 0.662526790856669 3.473087065076435 -3
      vertex 0.34534785741122304 5.489147006355494 0
      vertex 0.22200933690721264 3.528737361228532 -3
    endloop
  endfacet
  facet normal -0.20818175057194782 -0.8108143855668836 0.5470286929280734
    outer loop
      vertex 1.0925958015399926 3.3626641111864357 -3
      vertex 1.0305972302214852 5.402579879007788 0
      vertex 0.662526790856669 3.473087065076435 -3
    endloop
  endfacet
  facet normal -0.30816216405136476 -0.778328779989911 0.5470286929280734
    outer loop
      vertex 1.5054339237479357 3.1992099355048547 -3
      vertex 2.3417861036079 4.9765487885631075 0
      vertex 1.0925958015399926 3.3626641111864357 -3
    endloop
  endfacet
  facet normal -0.40328267611653873 -0.7335684646014211 0.5470286929280734
    outer loop
      vertex 1.5054339237479357 3.1992099355048547 -3
      vertex 1.8945304536757381 2.985302308024982 -3
      vertex 2.3417861036079 4.9765487885631075 0
    endloop
  endfacet
  facet normal -0.4920431794699613 -0.6772393363136071 0.5470286929280733
    outer loop
      vertex 2.253749106611439 2.7243146798143973 -3
      vertex 3.5058319436177934 4.23782283526684 0
      vertex 1.8945304536757381 2.985302308024982 -3
    endloop
  endfacet
  facet normal -0.5730438679507932 -0.6102297391289592 0.5470286929280734
    outer loop
      vertex 2.253749106611439 2.7243146798143973 -3
      vertex 2.5774247898114195 2.4203629816764356 -3
      vertex 3.5058319436177934 4.23782283526684 0
    endloop
  endfacet
  facet normal -0.8354620037446941 -0.052562813968664676 0.5470286929280735
    outer loop
      vertex 3.5357142857142856 0 -3
      vertex 5.5 0 0
      vertex 3.507834122504761 0.4431425043880758 -3
    endloop
  endfacet
  facet normal -0.8222862688648305 -0.15685949493020537 0.5470286929280735
    outer loop
      vertex 3.424633319704803 0.8792963867614509 -3
      vertex 3.507834122504761 0.4431425043880758 -3
      vertex 5.456630857229628 0.6893327846036734 0
    endloop
  endfacet
  facet normal -0.7961425883149614 -0.25868240795337727 0.5470286929280733
    outer loop
      vertex 3.2874240036763176 1.3015832398493972 -3
      vertex 3.424633319704803 0.8792963867614509 -3
      vertex 5.327207386207471 1.3677943794067013 0
    endloop
  endfacet
  facet normal -0.7574432635548357 -0.35642574487374395 0.5470286929280733
    outer loop
      vertex 3.098370047297946 1.703343347716779 -3
      vertex 3.2874240036763176 1.3015832398493972 -3
      vertex 5.113770672385383 2.0246850397657288 0
    endloop
  endfacet
  facet normal -0.7067986060537781 -0.44854803487903017 0.5470286929280735
    outer loop
      vertex 2.860452944397136 2.078240713462673 -3
      vertex 3.098370047297946 1.703343347716779 -3
      vertex 4.8196867402412495 2.649645207559434 0
    endloop
  endfacet
  facet normal -0.6450073123142295 -0.5335964544246687 0.5470286929280734
    outer loop
      vertex 2.5774247898114195 2.4203629816764356 -3
      vertex 2.860452944397136 2.078240713462673 -3
      vertex 4.449593469062211 3.232818887608602 0
    endloop
  endfacet
  facet normal -0.20818175057194818 -0.8108143855668833 0.5470286929280734
    outer loop
      vertex 1.6995934690622108 5.230810839623344 0
      vertex 1.0305972302214852 5.402579879007788 0
      vertex 1.0925958015399926 3.3626641111864357 -3
    endloop
  endfacet
  facet normal -0.1049181865242614 -0.8305129639264301 0.5470286929280734
    outer loop
      vertex 1.0305972302214852 5.402579879007788 0
      vertex 0.34534785741122304 5.489147006355494 0
      vertex 0.662526790856669 3.473087065076435 -3
    endloop
  endfacet
  facet normal -0.3081621640513644 -0.7783287799899112 0.5470286929280734
    outer loop
      vertex 2.3417861036079 4.9765487885631075 0
      vertex 1.6995934690622108 5.230810839623344 0
      vertex 1.0925958015399926 3.3626641111864357 -3
    endloop
  endfacet
  facet normal -0.403282676116539 -0.733568464601421 0.5470286929280734
    outer loop
      vertex 2.9470473723844814 4.643803590261083 0
      vertex 2.3417861036079 4.9765487885631075 0
      vertex 1.8945304536757381 2.985302308024982 -3
    endloop
  endfacet
  facet normal -0.49204317946996157 -0.677239336313607 0.5470286929280734
    outer loop
      vertex 3.5058319436177934 4.23782283526684 0
      vertex 2.9470473723844814 4.643803590261083 0
      vertex 1.8945304536757381 2.985302308024982 -3
    endloop
  endfacet
  facet normal -0.7961425883149615 -0.25868240795337694 0.5470286929280734
    outer loop
      vertex 5.327207386207471 1.3677943794067013 0
      vertex 5.113770672385383 2.0246850397657288 0
      vertex 3.2874240036763176 1.3015832398493972 -3
    endloop
  endfacet
  facet normal -0.757443263554836 -0.3564257448737434 0.5470286929280734
    outer loop
      vertex 3.098370047297946 1.703343347716779 -3
      vertex 5.113770672385383 2.0246850397657288 0
      vertex 4.8196867402412495 2.649645207559434 0
    endloop
  endfacet
  facet normal -0.7067986060537779 -0.4485480348790307 0.5470286929280734
    outer loop
      vertex 2.860452944397136 2.078240713462673 -3
      vertex 4.8196867402412495 2.649645207559434 0
      vertex 4.449593469062211 3.232818887608602 0
    endloop
  endfacet
  facet normal -0.835462003744694 -0.052562813968664676 0.5470286929280735
    outer loop
      vertex 3.507834122504761 0.4431425043880758 -3
      vertex 5.5 0 0
      vertex 5.456630857229628 0.6893327846036734 0
    endloop
  endfacet
  facet normal -0.8222862688648305 -0.15685949493020632 0.5470286929280733
    outer loop
      vertex 3.424633319704803 0.8792963867614509 -3
      vertex 5.456630857229628 0.6893327846036734 0
      vertex 5.327207386207471 1.3677943794067013 0
    endloop
  endfacet
  facet normal -0.5730438679507934 -0.6102297391289591 0.5470286929280734
    outer loop
      vertex 4.009327450817763 3.765009082607788 0
      vertex 3.5058319436177934 4.23782283526684 0
      vertex 2.5774247898114195 2.4203629816764356 -3
    endloop
  endfacet
  facet normal -0.6450073123142295 -0.5335964544246691 0.5470286929280734
    outer loop
      vertex 4.449593469062211 3.232818887608602 0
      vertex 4.009327450817763 3.765009082607788 0
      vertex 2.5774247898114195 2.4203629816764356 -3
    endloop
  endfacet
  facet normal -0.8443279255020151 -0.5358267949789965 0
    outer loop
      vertex -10.112712429686843 -7.347315653655914 -3
      vertex -10.953833500548294 -6.021920926271442 0
      vertex -10.953833500548294 -6.021920926271442 -3
    endloop
  endfacet
  facet normal -0.7705132427757891 -0.6374239897486897 0
    outer loop
      vertex -10.112712429686843 -7.347315653655914 -3
      vertex -9.112107842767646 -8.556838824108606 -3
      vertex -10.112712429686843 -7.347315653655914 0
    endloop
  endfacet
  facet normal -0.5877852522924725 -0.8090169943749479 0
    outer loop
      vertex -7.96779987185862 -9.631415534697368 -3
      vertex -6.6978349372374595 -10.554099068775187 -3
      vertex -6.6978349372374595 -10.554099068775187 0
    endloop
  endfacet
  facet normal -0.6845471059286893 -0.7289686274214109 0
    outer loop
      vertex -7.96779987185862 -9.631415534697368 -3
      vertex -7.96779987185862 -9.631415534697368 0
      vertex -9.112107842767646 -8.556838824108606 -3
    endloop
  endfacet
  facet normal 0 0 -1
    outer loop
      vertex -11.622206073603143 -4.601556908558473 -3
      vertex -12.107289514107888 -3.1086235895606857 -3
      vertex -11.622206073603143 4.601556908558473 -3
    endloop
  endfacet
  facet normal 0 0 -1
    outer loop
      vertex -12.107289514107888 -3.1086235895606857 -3
      vertex -12.401433766430973 -1.5666654195538008 -3
      vertex -12.107289514107888 3.1086235895606857 -3
    endloop
  endfacet
  facet normal 0 0 -1
    outer loop
      vertex -10.953833500548294 -6.021920926271442 -3
      vertex -11.622206073603143 -4.601556908558473 -3
      vertex -10.953833500548294 6.021920926271442 -3
    endloop
  endfacet
  facet normal 0 0 -1
    outer loop
      vertex -10.112712429686843 -7.347315653655914 -3
      vertex -10.953833500548294 -6.021920926271442 -3
      vertex -10.112712429686843 7.347315653655914 -3
    endloop
  endfacet
  facet normal 0 0 -1
    outer loop
      vertex -10.112712429686843 -7.347315653655914 -3
      vertex -9.112107842767646 8.556838824108606 -3
      vertex -9.112107842767646 -8.556838824108606 -3
    endloop
  endfacet
  facet normal 0 0 -1
    outer loop
      vertex -7.96779987185862 -9.631415534697368 -3
      vertex -6.6978349372374595 10.554099068775187 -3
      vertex -6.6978349372374595 -10.554099068775187 -3
    endloop
  endfacet
  facet normal 0 0 -1
    outer loop
      vertex -7.96779987185862 -9.631415534697368 -3
      vertex -9.112107842767646 -8.556838824108606 -3
      vertex -7.96779987185862 9.631415534697368 -3
    endloop
  endfacet
  facet normal -0.9048270524660194 -0.42577929156507294 0
    outer loop
      vertex -10.953833500548294 -6.021920926271442 -3
      vertex -11.622206073603143 -4.601556908558473 0
      vertex -11.622206073603143 -4.601556908558473 -3
    endloop
  endfacet
  facet normal -0.9510565162951538 -0.309016994374947 0
    outer loop
      vertex -11.622206073603143 -4.601556908558473 -3
      vertex -12.107289514107888 -3.1086235895606857 0
      vertex -12.107289514107888 -3.1086235895606857 -3
    endloop
  endfacet
  facet normal -0.9822872507286888 -0.1873813145857246 0
    outer loop
      vertex -12.107289514107888 -3.1086235895606857 -3
      vertex -12.401433766430973 -1.5666654195538008 0
      vertex -12.401433766430973 -1.5666654195538008 -3
    endloop
  endfacet
  facet normal -0.9980267284282716 -0.0627905195293135 0
    outer loop
      vertex -12.401433766430973 -1.5666654195538008 -3
      vertex -12.5 0 0
      vertex -12.5 0 -3
    endloop
  endfacet
  facet normal 0 0 -1
    outer loop
      vertex -2.3422664323215603 -12.278590634108607 -3
      vertex -0.66252679085667 -3.4730870650764354 -3
      vertex -0.784881494116422 -12.475334105353394 -3
    endloop
  endfacet
  facet normal 0 0 -1
    outer loop
      vertex -0.784881494116422 -12.475334105353394 -3
      vertex -0.22200933690721653 -3.528737361228532 -3
      vertex 0.784881494116422 -12.475334105353394 -3
    endloop
  endfacet
  facet normal 0 0 -1
    outer loop
      vertex -3.8627124296868423 -11.888206453689419 -3
      vertex -2.2537491066114383 -2.7243146798143982 -3
      vertex -2.3422664323215603 -12.278590634108607 -3
    endloop
  endfacet
  facet normal 0 0 -1
    outer loop
      vertex -2.3422664323215603 -12.278590634108607 -3
      vertex -1.5054339237479346 -3.1992099355048547 -3
      vertex -1.0925958015399926 -3.3626641111864357 -3
    endloop
  endfacet
  facet normal 0 0 -1
    outer loop
      vertex -2.3422664323215603 -12.278590634108607 -3
      vertex -1.0925958015399926 -3.3626641111864357 -3
      vertex -0.66252679085667 -3.4730870650764354 -3
    endloop
  endfacet
  facet normal 0 0 -1
    outer loop
      vertex -0.784881494116422 -12.475334105353394 -3
      vertex -0.66252679085667 -3.4730870650764354 -3
      vertex -0.22200933690721653 -3.528737361228532 -3
    endloop
  endfacet
  facet normal -0.48175367410171477 -0.8763066800438639 0
    outer loop
      vertex -6.6978349372374595 -10.554099068775187 -3
      vertex -5.322241144563406 -11.310338155825244 -3
      vertex -5.322241144563406 -11.310338155825244 0
    endloop
  endfacet
  facet normal -0.368124552684678 -0.9297764858882516 0
    outer loop
      vertex -5.322241144563406 -11.310338155825244 -3
      vertex -3.8627124296868423 -11.888206453689419 -3
      vertex -3.8627124296868423 -11.888206453689419 0
    endloop
  endfacet
  facet normal -0.24868988716485482 -0.9685831611286312 0
    outer loop
      vertex -3.8627124296868423 -11.888206453689419 -3
      vertex -2.3422664323215603 -12.278590634108607 -3
      vertex -2.3422664323215603 -12.278590634108607 0
    endloop
  endfacet
  facet normal -0.12533323356430498 -0.9921147013144779 0
    outer loop
      vertex -2.3422664323215603 -12.278590634108607 -3
      vertex -0.784881494116422 -12.475334105353394 -3
      vertex -0.784881494116422 -12.475334105353394 0
    endloop
  endfacet
  facet normal 0 0 -1
    outer loop
      vertex -6.6978349372374595 -10.554099068775187 -3
      vertex -5.322241144563409 11.310338155825244 -3
      vertex -5.322241144563406 -11.310338155825244 -3
    endloop
  endfacet
  facet normal 0 0 -1
    outer loop
      vertex -3.8627124296868423 -11.888206453689419 -3
      vertex -3.424633319704803 -0.879296386761451 -3
      vertex -3.2874240036763176 -1.301583239849397 -3
    endloop
  endfacet
  facet normal 0 0 -1
    outer loop
      vertex -3.8627124296868423 -11.888206453689419 -3
      vertex -3.0983700472979456 -1.7033433477167796 -3
      vertex -2.860452944397136 -2.078240713462673 -3
    endloop
  endfacet
  facet normal 0 0 -1
    outer loop
      vertex -3.8627124296868423 -11.888206453689419 -3
      vertex -3.2874240036763176 -1.301583239849397 -3
      vertex -3.0983700472979456 -1.7033433477167796 -3
    endloop
  endfacet
  facet normal 0 0 -1
    outer loop
      vertex -5.322241144563406 -11.310338155825244 -3
      vertex -3.8627124296868423 11.888206453689419 -3
      vertex -3.8627124296868423 -11.888206453689419 -3
    endloop
  endfacet
  facet normal 0 0 -1
    outer loop
      vertex -3.8627124296868423 -11.888206453689419 -3
      vertex -3.507834122504761 -0.44314250438807506 -3
      vertex -3.424633319704803 -0.879296386761451 -3
    endloop
  endfacet
  facet normal 0 0 -1
    outer loop
      vertex -3.8627124296868423 -11.888206453689419 -3
      vertex -3.5357142857142856 0 -3
      vertex -3.507834122504761 -0.44314250438807506 -3
    endloop
  endfacet
  facet normal 0 0 -1
    outer loop
      vertex -3.8627124296868423 -11.888206453689419 -3
      vertex -2.860452944397136 -2.078240713462673 -3
      vertex -2.57742478981142 -2.4203629816764343 -3
    endloop
  endfacet
  facet normal 0 0 -1
    outer loop
      vertex -3.8627124296868423 -11.888206453689419 -3
      vertex -2.57742478981142 -2.4203629816764343 -3
      vertex -2.2537491066114383 -2.7243146798143982 -3
    endloop
  endfacet
  facet normal 0 0 -1
    outer loop
      vertex -2.3422664323215603 -12.278590634108607 -3
      vertex -2.2537491066114383 -2.7243146798143982 -3
      vertex -1.8945304536757386 -2.985302308024981 -3
    endloop
  endfacet
  facet normal 0 0 -1
    outer loop
      vertex -2.3422664323215603 -12.278590634108607 -3
      vertex -1.8945304536757386 -2.985302308024981 -3
      vertex -1.5054339237479346 -3.1992099355048547 -3
    endloop
  endfacet
  facet normal -0.7705132427757891 -0.6374239897486897 0
    outer loop
      vertex -9.112107842767646 -8.556838824108606 -3
      vertex -9.112107842767646 -8.556838824108606 0
      vertex -10.112712429686843 -7.347315653655914 0
    endloop
  endfacet
  facet normal -0.8443279255020151 -0.5358267949789965 0
    outer loop
      vertex -10.112712429686843 -7.347315653655914 -3
      vertex -10.112712429686843 -7.347315653655914 0
      vertex -10.953833500548294 -6.021920926271442 0
    endloop
  endfacet
  facet normal -0.5877852522924725 -0.8090169943749479 0
    outer loop
      vertex -7.96779987185862 -9.631415534697368 -3
      vertex -6.6978349372374595 -10.554099068775187 0
      vertex -7.96779987185862 -9.631415534697368 0
    endloop
  endfacet
  facet normal -0.6845471059286893 -0.7289686274214109 0
    outer loop
      vertex -9.112107842767646 -8.556838824108606 -3
      vertex -7.96779987185862 -9.631415534697368 0
      vertex -9.112107842767646 -8.556838824108606 0
    endloop
  endfacet
  facet normal -0.9048270524660194 -0.42577929156507294 0
    outer loop
      vertex -10.953833500548294 -6.021920926271442 -3
      vertex -10.953833500548294 -6.021920926271442 0
      vertex -11.622206073603143 -4.601556908558473 0
    endloop
  endfacet
  facet normal -0.9510565162951538 -0.309016994374947 0
    outer loop
      vertex -11.622206073603143 -4.601556908558473 -3
      vertex -11.622206073603143 -4.601556908558473 0
      vertex -12.107289514107888 -3.1086235895606857 0
    endloop
  endfacet
  facet normal -0.9822872507286888 -0.1873813145857246 0
    outer loop
      vertex -12.107289514107888 -3.1086235895606857 -3
      vertex -12.107289514107888 -3.1086235895606857 0
      vertex -12.401433766430973 -1.5666654195538008 0
    endloop
  endfacet
  facet normal -0.9980267284282716 -0.0627905195293135 0
    outer loop
      vertex -12.401433766430973 -1.5666654195538008 -3
      vertex -12.401433766430973 -1.5666654195538008 0
      vertex -12.5 0 0
    endloop
  endfacet
  facet normal 0 0 1
    outer loop
      vertex -10.953833500548294 -6.021920926271442 0
      vertex -11.622206073603143 4.601556908558473 0
      vertex -11.622206073603143 -4.601556908558473 0
    endloop
  endfacet
  facet normal 0 0 1
    outer loop
      vertex -12.107289514107888 -3.1086235895606857 0
      vertex -12.401433766430973 1.5666654195538008 0
      vertex -12.401433766430973 -1.5666654195538008 0
    endloop
  endfacet
  facet normal 0 0 1
    outer loop
      vertex -11.622206073603143 -4.601556908558473 0
      vertex -12.107289514107888 3.1086235895606857 0
      vertex -12.107289514107888 -3.1086235895606857 0
    endloop
  endfacet
  facet normal 0 0 1
    outer loop
      vertex -10.112712429686843 -7.347315653655914 0
      vertex -10.953833500548294 6.021920926271442 0
      vertex -10.953833500548294 -6.021920926271442 0
    endloop
  endfacet
  facet normal 0 0 1
    outer loop
      vertex -10.112712429686843 -7.347315653655914 0
      vertex -9.112107842767646 -8.556838824108606 0
      vertex -10.112712429686843 7.347315653655914 0
    endloop
  endfacet
  facet normal 0 0 1
    outer loop
      vertex -7.96779987185862 -9.631415534697368 0
      vertex -9.112107842767646 8.556838824108606 0
      vertex -9.112107842767646 -8.556838824108606 0
    endloop
  endfacet
  facet normal 0 0 1
    outer loop
      vertex -7.96779987185862 -9.631415534697368 0
      vertex -6.6978349372374595 -10.554099068775187 0
      vertex -7.96779987185862 9.631415534697368 0
    endloop
  endfacet
  facet normal -0.368124552684678 -0.9297764858882516 0
    outer loop
      vertex -5.322241144563406 -11.310338155825244 -3
      vertex -3.8627124296868423 -11.888206453689419 0
      vertex -5.322241144563406 -11.310338155825244 0
    endloop
  endfacet
  facet normal -0.48175367410171477 -0.8763066800438639 0
    outer loop
      vertex -6.6978349372374595 -10.554099068775187 -3
      vertex -5.322241144563406 -11.310338155825244 0
      vertex -6.6978349372374595 -10.554099068775187 0
    endloop
  endfacet
  facet normal -0.24868988716485482 -0.9685831611286312 0
    outer loop
      vertex -3.8627124296868423 -11.888206453689419 -3
      vertex -2.3422664323215603 -12.278590634108607 0
      vertex -3.8627124296868423 -11.888206453689419 0
    endloop
  endfacet
  facet normal -0.12533323356430498 -0.9921147013144779 0
    outer loop
      vertex -2.3422664323215603 -12.278590634108607 -3
      vertex -0.784881494116422 -12.475334105353394 0
      vertex -2.3422664323215603 -12.278590634108607 0
    endloop
  endfacet
  facet normal 0 -1 0
    outer loop
      vertex -0.784881494116422 -12.475334105353394 -3
      vertex 0.784881494116422 -12.475334105353394 0
      vertex -0.784881494116422 -12.475334105353394 0
    endloop
  endfacet
  facet normal 0 0 1
    outer loop
      vertex -5.322241144563406 -11.310338155825244 0
      vertex -3.8627124296868423 -11.888206453689419 0
      vertex -4.449593469062211 -3.232818887608602 0
    endloop
  endfacet
  facet normal 0 0 1
    outer loop
      vertex -3.8627124296868423 -11.888206453689419 0
      vertex -4.009327450817764 -3.765009082607787 0
      vertex -4.449593469062211 -3.232818887608602 0
    endloop
  endfacet
  facet normal 0 0 1
    outer loop
      vertex -3.8627124296868423 -11.888206453689419 0
      vertex -3.505831943617793 -4.237822835266842 0
      vertex -4.009327450817764 -3.765009082607787 0
    endloop
  endfacet
  facet normal 0 0 1
    outer loop
      vertex -3.8627124296868423 -11.888206453689419 0
      vertex -2.9470473723844823 -4.643803590261082 0
      vertex -3.505831943617793 -4.237822835266842 0
    endloop
  endfacet
  facet normal 0 0 1
    outer loop
      vertex -3.8627124296868423 -11.888206453689419 0
      vertex -2.3422664323215603 -12.278590634108607 0
      vertex -2.9470473723844823 -4.643803590261082 0
    endloop
  endfacet
  facet normal 0 0 1
    outer loop
      vertex -2.3422664323215603 -12.278590634108607 0
      vertex -0.784881494116422 -12.475334105353394 0
      vertex -1.6995934690622108 -5.230810839623344 0
    endloop
  endfacet
  facet normal 0 0 1
    outer loop
      vertex -2.3422664323215603 -12.278590634108607 0
      vertex -2.341786103607898 -4.9765487885631075 0
      vertex -2.9470473723844823 -4.643803590261082 0
    endloop
  endfacet
  facet normal 0 0 1
    outer loop
      vertex -2.3422664323215603 -12.278590634108607 0
      vertex -1.6995934690622108 -5.230810839623344 0
      vertex -2.341786103607898 -4.9765487885631075 0
    endloop
  endfacet
  facet normal 0 0 1
    outer loop
      vertex -0.784881494116422 -12.475334105353394 0
      vertex 0.3453478574112257 -5.489147006355494 0
      vertex -0.3453478574112257 -5.489147006355494 0
    endloop
  endfacet
  facet normal 0 0 1
    outer loop
      vertex -0.784881494116422 -12.475334105353394 0
      vertex -1.0305972302214865 -5.402579879007788 0
      vertex -1.6995934690622108 -5.230810839623344 0
    endloop
  endfacet
  facet normal 0 0 1
    outer loop
      vertex -0.784881494116422 -12.475334105353394 0
      vertex -0.3453478574112257 -5.489147006355494 0
      vertex -1.0305972302214865 -5.402579879007788 0
    endloop
  endfacet
  facet normal 0 0 1
    outer loop
      vertex -5.322241144563406 -11.310338155825244 0
      vertex -4.449593469062211 -3.232818887608602 0
      vertex -4.819686740241249 -2.6496452075594346 0
    endloop
  endfacet
  facet normal 0 0 1
    outer loop
      vertex -5.322241144563406 -11.310338155825244 0
      vertex -4.819686740241249 -2.6496452075594346 0
      vertex -5.113770672385383 -2.0246850397657283 0
    endloop
  endfacet
  facet normal 0 0 1
    outer loop
      vertex -5.322241144563406 -11.310338155825244 0
      vertex -5.113770672385383 -2.0246850397657283 0
      vertex -5.327207386207471 -1.3677943794067016 0
    endloop
  endfacet
  facet normal 0 0 1
    outer loop
      vertex -6.6978349372374595 -10.554099068775187 0
      vertex -5.322241144563406 -11.310338155825244 0
      vertex -6.6978349372374595 10.554099068775187 0
    endloop
  endfacet
  facet normal 0 0 1
    outer loop
      vertex -5.322241144563406 -11.310338155825244 0
      vertex -5.327207386207471 -1.3677943794067016 0
      vertex -5.456630857229628 -0.6893327846036723 0
    endloop
  endfacet
  facet normal 0 0 1
    outer loop
      vertex -5.322241144563406 -11.310338155825244 0
      vertex -5.456630857229628 -0.6893327846036723 0
      vertex -6.6978349372374595 10.554099068775187 0
    endloop
  endfacet
  facet normal 0 0 -1
    outer loop
      vertex -12.401433766430973 -1.5666654195538008 -3
      vertex -12.5 0 -3
      vertex -12.401433766430973 1.5666654195538008 -3
    endloop
  endfacet
  facet normal 0 0 -1
    outer loop
      vertex -12.401433766430973 -1.5666654195538008 -3
      vertex -12.401433766430973 1.5666654195538008 -3
      vertex -12.107289514107888 3.1086235895606857 -3
    endloop
  endfacet
  facet normal 0 0 -1
    outer loop
      vertex -12.107289514107888 -3.1086235895606857 -3
      vertex -12.107289514107888 3.1086235895606857 -3
      vertex -11.622206073603143 4.601556908558473 -3
    endloop
  endfacet
  facet normal 0 0 -1
    outer loop
      vertex -11.622206073603143 -4.601556908558473 -3
      vertex -11.622206073603143 4.601556908558473 -3
      vertex -10.953833500548294 6.021920926271442 -3
    endloop
  endfacet
  facet normal 0 0 -1
    outer loop
      vertex -10.953833500548294 -6.021920926271442 -3
      vertex -10.953833500548294 6.021920926271442 -3
      vertex -10.112712429686843 7.347315653655914 -3
    endloop
  endfacet
  facet normal 0 0 -1
    outer loop
      vertex -10.112712429686843 -7.347315653655914 -3
      vertex -10.112712429686843 7.347315653655914 -3
      vertex -9.112107842767646 8.556838824108606 -3
    endloop
  endfacet
  facet normal 0 0 -1
    outer loop
      vertex -9.112107842767646 -8.556838824108606 -3
      vertex -9.112107842767646 8.556838824108606 -3
      vertex -7.96779987185862 9.631415534697368 -3
    endloop
  endfacet
  facet normal 0 0 -1
    outer loop
      vertex -7.96779987185862 -9.631415534697368 -3
      vertex -7.96779987185862 9.631415534697368 -3
      vertex -6.6978349372374595 10.554099068775187 -3
    endloop
  endfacet
  facet normal -0.9980267284282716 0.0627905195293135 0
    outer loop
      vertex -12.5 0 -3
      vertex -12.401433766430973 1.5666654195538008 0
      vertex -12.401433766430973 1.5666654195538008 -3
    endloop
  endfacet
  facet normal -0.9822872507286888 0.1873813145857246 0
    outer loop
      vertex -12.401433766430973 1.5666654195538008 -3
      vertex -12.107289514107888 3.1086235895606857 0
      vertex -12.107289514107888 3.1086235895606857 -3
    endloop
  endfacet
  facet normal -0.9510565162951538 0.309016994374947 0
    outer loop
      vertex -12.107289514107888 3.1086235895606857 -3
      vertex -11.622206073603143 4.601556908558473 0
      vertex -11.622206073603143 4.601556908558473 -3
    endloop
  endfacet
  facet normal -0.9048270524660194 0.42577929156507294 0
    outer loop
      vertex -11.622206073603143 4.601556908558473 -3
      vertex -10.953833500548294 6.021920926271442 0
      vertex -10.953833500548294 6.021920926271442 -3
    endloop
  endfacet
  facet normal -0.8443279255020151 0.5358267949789965 0
    outer loop
      vertex -10.953833500548294 6.021920926271442 -3
      vertex -10.112712429686843 7.347315653655914 0
      vertex -10.112712429686843 7.347315653655914 -3
    endloop
  endfacet
  facet normal -0.7705132427757891 0.6374239897486897 0
    outer loop
      vertex -10.112712429686843 7.347315653655914 -3
      vertex -9.112107842767646 8.556838824108606 0
      vertex -9.112107842767646 8.556838824108606 -3
    endloop
  endfacet
  facet normal -0.6845471059286893 0.7289686274214109 0
    outer loop
      vertex -9.112107842767646 8.556838824108606 -3
      vertex -9.112107842767646 8.556838824108606 0
      vertex -7.96779987185862 9.631415534697368 -3
    endloop
  endfacet
  facet normal -0.5877852522924725 0.8090169943749479 0
    outer loop
      vertex -7.96779987185862 9.631415534697368 -3
      vertex -7.96779987185862 9.631415534697368 0
      vertex -6.6978349372374595 10.554099068775187 -3
    endloop
  endfacet
  facet normal 0 0 -1
    outer loop
      vertex -3.8627124296868423 -11.888206453689419 -3
      vertex -3.8627124296868423 11.888206453689419 -3
      vertex -3.5357142857142856 0 -3
    endloop
  endfacet
  facet normal 0 0 -1
    outer loop
      vertex -6.6978349372374595 -10.554099068775187 -3
      vertex -6.6978349372374595 10.554099068775187 -3
      vertex -5.322241144563409 11.310338155825244 -3
    endloop
  endfacet
  facet normal 0 0 -1
    outer loop
      vertex -5.322241144563406 -11.310338155825244 -3
      vertex -5.322241144563409 11.310338155825244 -3
      vertex -3.8627124296868423 11.888206453689419 -3
    endloop
  endfacet
  facet normal 0 0 -1
    outer loop
      vertex -3.8627124296868423 11.888206453689419 -3
      vertex -3.507834122504761 0.44314250438807506 -3
      vertex -3.5357142857142856 0 -3
    endloop
  endfacet
  facet normal 0 0 -1
    outer loop
      vertex -3.8627124296868423 11.888206453689419 -3
      vertex -3.424633319704803 0.8792963867614509 -3
      vertex -3.507834122504761 0.44314250438807506 -3
    endloop
  endfacet
  facet normal 0 0 -1
    outer loop
      vertex -3.8627124296868423 11.888206453689419 -3
      vertex -3.2874240036763176 1.3015832398493967 -3
      vertex -3.424633319704803 0.8792963867614509 -3
    endloop
  endfacet
  facet normal 0 0 -1
    outer loop
      vertex -3.8627124296868423 11.888206453689419 -3
      vertex -3.0983700472979456 1.7033433477167794 -3
      vertex -3.2874240036763176 1.3015832398493967 -3
    endloop
  endfacet
  facet normal 0 0 -1
    outer loop
      vertex -2.342266432321557 12.278590634108609 -3
      vertex -2.860452944397136 2.0782407134626726 -3
      vertex -3.0983700472979456 1.7033433477167794 -3
    endloop
  endfacet
  facet normal 0 0 -1
    outer loop
      vertex -2.342266432321557 12.278590634108609 -3
      vertex -2.57742478981142 2.4203629816764347 -3
      vertex -2.860452944397136 2.0782407134626726 -3
    endloop
  endfacet
  facet normal 0 0 -1
    outer loop
      vertex -2.342266432321557 12.278590634108609 -3
      vertex -2.2537491066114383 2.7243146798143982 -3
      vertex -2.57742478981142 2.4203629816764347 -3
    endloop
  endfacet
  facet normal 0 0 -1
    outer loop
      vertex -2.342266432321557 12.278590634108609 -3
      vertex -1.8945304536757386 2.9853023080249814 -3
      vertex -2.2537491066114383 2.7243146798143982 -3
    endloop
  endfacet
  facet normal 0 0 -1
    outer loop
      vertex -2.342266432321557 12.278590634108609 -3
      vertex -1.5054339237479357 3.199209935504855 -3
      vertex -1.8945304536757386 2.9853023080249814 -3
    endloop
  endfacet
  facet normal 0 0 -1
    outer loop
      vertex -3.8627124296868423 11.888206453689419 -3
      vertex -2.342266432321557 12.278590634108609 -3
      vertex -3.0983700472979456 1.7033433477167794 -3
    endloop
  endfacet
  facet normal 0 0 -1
    outer loop
      vertex -0.784881494116416 12.475334105353394 -3
      vertex -1.0925958015399926 3.3626641111864353 -3
      vertex -1.5054339237479357 3.199209935504855 -3
    endloop
  endfacet
  facet normal 0 0 -1
    outer loop
      vertex -0.784881494116416 12.475334105353394 -3
      vertex -0.662526790856669 3.473087065076435 -3
      vertex -1.0925958015399926 3.3626641111864353 -3
    endloop
  endfacet
  facet normal 0 0 -1
    outer loop
      vertex -0.784881494116416 12.475334105353394 -3
      vertex -0.2220093369072148 3.528737361228532 -3
      vertex -0.662526790856669 3.473087065076435 -3
    endloop
  endfacet
  facet normal 0 0 -1
    outer loop
      vertex -0.784881494116416 12.475334105353394 -3
      vertex 0.22200933690721264 3.528737361228532 -3
      vertex -0.2220093369072148 3.528737361228532 -3
    endloop
  endfacet
  facet normal 0 0 -1
    outer loop
      vertex -2.342266432321557 12.278590634108609 -3
      vertex -0.784881494116416 12.475334105353394 -3
      vertex -1.5054339237479357 3.199209935504855 -3
    endloop
  endfacet
  facet normal -0.48175367410171566 0.8763066800438634 0
    outer loop
      vertex -6.6978349372374595 10.554099068775187 -3
      vertex -6.6978349372374595 10.554099068775187 0
      vertex -5.322241144563409 11.310338155825244 -3
    endloop
  endfacet
  facet normal -0.36812455268467714 0.9297764858882517 0
    outer loop
      vertex -5.322241144563409 11.310338155825244 -3
      vertex -5.322241144563409 11.310338155825244 0
      vertex -3.8627124296868423 11.888206453689419 -3
    endloop
  endfacet
  facet normal -0.24868988716485538 0.9685831611286311 0
    outer loop
      vertex -3.8627124296868423 11.888206453689419 -3
      vertex -3.8627124296868423 11.888206453689419 0
      vertex -2.342266432321557 12.278590634108609 -3
    endloop
  endfacet
  facet normal -0.12533323356430362 0.9921147013144779 0
    outer loop
      vertex -2.342266432321557 12.278590634108609 -3
      vertex -2.342266432321557 12.278590634108609 0
      vertex -0.784881494116416 12.475334105353394 -3
    endloop
  endfacet
  facet normal 0 1 0
    outer loop
      vertex -0.784881494116416 12.475334105353394 -3
      vertex -0.784881494116416 12.475334105353394 0
      vertex 0.784881494116416 12.475334105353394 -3
    endloop
  endfacet
  facet normal -0.9980267284282716 0.0627905195293135 0
    outer loop
      vertex -12.5 0 -3
      vertex -12.5 0 0
      vertex -12.401433766430973 1.5666654195538008 0
    endloop
  endfacet
  facet normal -0.9822872507286888 0.1873813145857246 0
    outer loop
      vertex -12.401433766430973 1.5666654195538008 -3
      vertex -12.401433766430973 1.5666654195538008 0
      vertex -12.107289514107888 3.1086235895606857 0
    endloop
  endfacet
  facet normal -0.9510565162951538 0.309016994374947 0
    outer loop
      vertex -12.107289514107888 3.1086235895606857 -3
      vertex -12.107289514107888 3.1086235895606857 0
      vertex -11.622206073603143 4.601556908558473 0
    endloop
  endfacet
  facet normal -0.9048270524660194 0.42577929156507294 0
    outer loop
      vertex -11.622206073603143 4.601556908558473 -3
      vertex -11.622206073603143 4.601556908558473 0
      vertex -10.953833500548294 6.021920926271442 0
    endloop
  endfacet
  facet normal 0 0 1
    outer loop
      vertex -12.401433766430973 -1.5666654195538008 0
      vertex -12.401433766430973 1.5666654195538008 0
      vertex -12.5 0 0
    endloop
  endfacet
  facet normal 0 0 1
    outer loop
      vertex -12.107289514107888 -3.1086235895606857 0
      vertex -12.107289514107888 3.1086235895606857 0
      vertex -12.401433766430973 1.5666654195538008 0
    endloop
  endfacet
  facet normal 0 0 1
    outer loop
      vertex -11.622206073603143 -4.601556908558473 0
      vertex -11.622206073603143 4.601556908558473 0
      vertex -12.107289514107888 3.1086235895606857 0
    endloop
  endfacet
  facet normal 0 0 1
    outer loop
      vertex -10.953833500548294 -6.021920926271442 0
      vertex -10.953833500548294 6.021920926271442 0
      vertex -11.622206073603143 4.601556908558473 0
    endloop
  endfacet
  facet normal 0 0 1
    outer loop
      vertex -10.112712429686843 -7.347315653655914 0
      vertex -10.112712429686843 7.347315653655914 0
      vertex -10.953833500548294 6.021920926271442 0
    endloop
  endfacet
  facet normal 0 0 1
    outer loop
      vertex -9.112107842767646 -8.556838824108606 0
      vertex -9.112107842767646 8.556838824108606 0
      vertex -10.112712429686843 7.347315653655914 0
    endloop
  endfacet
  facet normal 0 0 1
    outer loop
      vertex -7.96779987185862 -9.631415534697368 0
      vertex -7.96779987185862 9.631415534697368 0
      vertex -9.112107842767646 8.556838824108606 0
    endloop
  endfacet
  facet normal 0 0 1
    outer loop
      vertex -6.6978349372374595 -10.554099068775187 0
      vertex -6.6978349372374595 10.554099068775187 0
      vertex -7.96779987185862 9.631415534697368 0
    endloop
  endfacet
  facet normal -0.8443279255020151 0.5358267949789965 0
    outer loop
      vertex -10.953833500548294 6.021920926271442 -3
      vertex -10.953833500548294 6.021920926271442 0
      vertex -10.112712429686843 7.347315653655914 0
    endloop
  endfacet
  facet normal -0.7705132427757891 0.6374239897486897 0
    outer loop
      vertex -10.112712429686843 7.347315653655914 -3
      vertex -10.112712429686843 7.347315653655914 0
      vertex -9.112107842767646 8.556838824108606 0
    endloop
  endfacet
  facet normal -0.6845471059286893 0.7289686274214109 0
    outer loop
      vertex -7.96779987185862 9.631415534697368 -3
      vertex -9.112107842767646 8.556838824108606 0
      vertex -7.96779987185862 9.631415534697368 0
    endloop
  endfacet
  facet normal -0.5877852522924725 0.8090169943749479 0
    outer loop
      vertex -6.6978349372374595 10.554099068775187 -3
      vertex -7.96779987185862 9.631415534697368 0
      vertex -6.6978349372374595 10.554099068775187 0
    endloop
  endfacet
  facet normal 0 0 1
    outer loop
      vertex -6.6978349372374595 10.554099068775187 0
      vertex -5.456630857229628 -0.6893327846036723 0
      vertex -5.5 0 0
    endloop
  endfacet
  facet normal 0 0 1
    outer loop
      vertex -6.6978349372374595 10.554099068775187 0
      vertex -5.5 0 0
      vertex -5.456630857229628 0.6893327846036723 0
    endloop
  endfacet
  facet normal 0 0 1
    outer loop
      vertex -6.6978349372374595 10.554099068775187 0
      vertex -5.456630857229628 0.6893327846036723 0
      vertex -5.327207386207471 1.3677943794067016 0
    endloop
  endfacet
  facet normal 0 0 1
    outer loop
      vertex -6.6978349372374595 10.554099068775187 0
      vertex -5.327207386207471 1.3677943794067016 0
      vertex -5.113770672385383 2.0246850397657283 0
    endloop
  endfacet
  facet normal 0 0 1
    outer loop
      vertex -5.322241144563409 11.310338155825244 0
      vertex -5.113770672385383 2.0246850397657283 0
      vertex -4.819686740241249 2.6496452075594346 0
    endloop
  endfacet
  facet normal 0 0 1
    outer loop
      vertex -5.322241144563409 11.310338155825244 0
      vertex -4.819686740241249 2.6496452075594346 0
      vertex -4.449593469062211 3.232818887608602 0
    endloop
  endfacet
  facet normal 0 0 1
    outer loop
      vertex -5.322241144563409 11.310338155825244 0
      vertex -4.449593469062211 3.232818887608602 0
      vertex -4.009327450817764 3.765009082607787 0
    endloop
  endfacet
  facet normal -0.48175367410171566 0.8763066800438634 0
    outer loop
      vertex -5.322241144563409 11.310338155825244 -3
      vertex -6.6978349372374595 10.554099068775187 0
      vertex -5.322241144563409 11.310338155825244 0
    endloop
  endfacet
  facet normal -0.36812455268467714 0.9297764858882517 0
    outer loop
      vertex -3.8627124296868423 11.888206453689419 -3
      vertex -5.322241144563409 11.310338155825244 0
      vertex -3.8627124296868423 11.888206453689419 0
    endloop
  endfacet
  facet normal -0.24868988716485538 0.9685831611286311 0
    outer loop
      vertex -2.342266432321557 12.278590634108609 -3
      vertex -3.8627124296868423 11.888206453689419 0
      vertex -2.342266432321557 12.278590634108609 0
    endloop
  endfacet
  facet normal -0.12533323356430362 0.9921147013144779 0
    outer loop
      vertex -0.784881494116416 12.475334105353394 -3
      vertex -2.342266432321557 12.278590634108609 0
      vertex -0.784881494116416 12.475334105353394 0
    endloop
  endfacet
  facet normal 0 0 1
    outer loop
      vertex -6.6978349372374595 10.554099068775187 0
      vertex -5.113770672385383 2.0246850397657283 0
      vertex -5.322241144563409 11.310338155825244 0
    endloop
  endfacet
  facet normal 0 0 1
    outer loop
      vertex -5.322241144563409 11.310338155825244 0
      vertex -4.009327450817764 3.765009082607787 0
      vertex -3.505831943617793 4.237822835266842 0
    endloop
  endfacet
  facet normal 0 0 1
    outer loop
      vertex -3.8627124296868423 11.888206453689419 0
      vertex -3.505831943617793 4.237822835266842 0
      vertex -2.9470473723844823 4.643803590261082 0
    endloop
  endfacet
  facet normal 0 0 1
    outer loop
      vertex -5.322241144563409 11.310338155825244 0
      vertex -3.505831943617793 4.237822835266842 0
      vertex -3.8627124296868423 11.888206453689419 0
    endloop
  endfacet
  facet normal 0 0 1
    outer loop
      vertex -3.8627124296868423 11.888206453689419 0
      vertex -2.9470473723844823 4.643803590261082 0
      vertex -2.3417861036079 4.9765487885631075 0
    endloop
  endfacet
  facet normal 0 0 1
    outer loop
      vertex -2.342266432321557 12.278590634108609 0
      vertex -2.3417861036079 4.9765487885631075 0
      vertex -1.6995934690622108 5.230810839623344 0
    endloop
  endfacet
  facet normal 0 0 1
    outer loop
      vertex -2.342266432321557 12.278590634108609 0
      vertex -1.6995934690622108 5.230810839623344 0
      vertex -1.0305972302214852 5.402579879007788 0
    endloop
  endfacet
  facet normal 0 0 1
    outer loop
      vertex -2.342266432321557 12.278590634108609 0
      vertex -1.0305972302214852 5.402579879007788 0
      vertex -0.3453478574112213 5.489147006355494 0
    endloop
  endfacet
  facet normal 0 0 1
    outer loop
      vertex -3.8627124296868423 11.888206453689419 0
      vertex -2.3417861036079 4.9765487885631075 0
      vertex -2.342266432321557 12.278590634108609 0
    endloop
  endfacet
  facet normal 0 0 1
    outer loop
      vertex -2.342266432321557 12.278590634108609 0
      vertex -0.3453478574112213 5.489147006355494 0
      vertex -0.784881494116416 12.475334105353394 0
    endloop
  endfacet
  facet normal 0 0 1
    outer loop
      vertex -0.784881494116416 12.475334105353394 0
      vertex -0.3453478574112213 5.489147006355494 0
      vertex 0.784881494116416 12.475334105353394 0
    endloop
  endfacet
  facet normal 0 0 -1
    outer loop
      vertex 0.784881494116422 -12.475334105353394 -3
      vertex 1.5054339237479346 -3.199209935504855 -3
      vertex 2.3422664323215603 -12.278590634108607 -3
    endloop
  endfacet
  facet normal 0 0 -1
    outer loop
      vertex 0.784881494116422 -12.475334105353394 -3
      vertex -0.22200933690721653 -3.528737361228532 -3
      vertex 0.22200933690721653 -3.528737361228532 -3
    endloop
  endfacet
  facet normal 0 0 -1
    outer loop
      vertex 0.784881494116422 -12.475334105353394 -3
      vertex 0.22200933690721653 -3.528737361228532 -3
      vertex 0.66252679085667 -3.4730870650764354 -3
    endloop
  endfacet
  facet normal 0 0 -1
    outer loop
      vertex 0.784881494116422 -12.475334105353394 -3
      vertex 0.66252679085667 -3.4730870650764354 -3
      vertex 1.0925958015399926 -3.3626641111864357 -3
    endloop
  endfacet
  facet normal 0 0 -1
    outer loop
      vertex 0.784881494116422 -12.475334105353394 -3
      vertex 1.0925958015399926 -3.3626641111864357 -3
      vertex 1.5054339237479346 -3.199209935504855 -3
    endloop
  endfacet
  facet normal 0 0 -1
    outer loop
      vertex 2.3422664323215603 -12.278590634108607 -3
      vertex 3.0983700472979456 -1.7033433477167794 -3
      vertex 3.8627124296868423 -11.888206453689419 -3
    endloop
  endfacet
  facet normal 0 -1 0
    outer loop
      vertex -0.784881494116422 -12.475334105353394 -3
      vertex 0.784881494116422 -12.475334105353394 -3
      vertex 0.784881494116422 -12.475334105353394 0
    endloop
  endfacet
  facet normal 0.12533323356430498 -0.9921147013144779 0
    outer loop
      vertex 0.784881494116422 -12.475334105353394 -3
      vertex 2.3422664323215603 -12.278590634108607 -3
      vertex 2.3422664323215603 -12.278590634108607 0
    endloop
  endfacet
  facet normal 0.24868988716485482 -0.9685831611286312 0
    outer loop
      vertex 2.3422664323215603 -12.278590634108607 -3
      vertex 3.8627124296868423 -11.888206453689419 -3
      vertex 3.8627124296868423 -11.888206453689419 0
    endloop
  endfacet
  facet normal 0.368124552684678 -0.9297764858882516 0
    outer loop
      vertex 3.8627124296868423 -11.888206453689419 -3
      vertex 5.322241144563406 -11.310338155825244 -3
      vertex 5.322241144563406 -11.310338155825244 0
    endloop
  endfacet
  facet normal 0.4817536741017149 -0.8763066800438637 0
    outer loop
      vertex 5.322241144563406 -11.310338155825244 -3
      vertex 6.697834937237452 -10.55409906877519 -3
      vertex 6.697834937237452 -10.55409906877519 0
    endloop
  endfacet
  facet normal 0 0 -1
    outer loop
      vertex 2.3422664323215603 -12.278590634108607 -3
      vertex 1.5054339237479346 -3.199209935504855 -3
      vertex 1.8945304536757368 -2.985302308024983 -3
    endloop
  endfacet
  facet normal 0 0 -1
    outer loop
      vertex 2.3422664323215603 -12.278590634108607 -3
      vertex 1.8945304536757368 -2.985302308024983 -3
      vertex 2.2537491066114392 -2.7243146798143973 -3
    endloop
  endfacet
  facet normal 0 0 -1
    outer loop
      vertex 2.3422664323215603 -12.278590634108607 -3
      vertex 2.2537491066114392 -2.7243146798143973 -3
      vertex 2.57742478981142 -2.4203629816764343 -3
    endloop
  endfacet
  facet normal 0 0 -1
    outer loop
      vertex 2.3422664323215603 -12.278590634108607 -3
      vertex 2.57742478981142 -2.4203629816764343 -3
      vertex 2.860452944397136 -2.078240713462673 -3
    endloop
  endfacet
  facet normal 0 0 -1
    outer loop
      vertex 2.3422664323215603 -12.278590634108607 -3
      vertex 2.860452944397136 -2.078240713462673 -3
      vertex 3.0983700472979456 -1.7033433477167794 -3
    endloop
  endfacet
  facet normal 0 0 -1
    outer loop
      vertex 3.8627124296868423 -11.888206453689419 -3
      vertex 3.0983700472979456 -1.7033433477167794 -3
      vertex 3.287424003676317 -1.3015832398493985 -3
    endloop
  endfacet
  facet normal 0 0 -1
    outer loop
      vertex 3.8627124296868423 -11.888206453689419 -3
      vertex 3.287424003676317 -1.3015832398493985 -3
      vertex 3.424633319704803 -0.8792963867614496 -3
    endloop
  endfacet
  facet normal 0 0 -1
    outer loop
      vertex 3.8627124296868423 -11.888206453689419 -3
      vertex 3.424633319704803 -0.8792963867614496 -3
      vertex 3.507834122504761 -0.44314250438807506 -3
    endloop
  endfacet
  facet normal 0 0 -1
    outer loop
      vertex 3.8627124296868423 -11.888206453689419 -3
      vertex 3.507834122504761 -0.44314250438807506 -3
      vertex 3.5357142857142856 0 -3
    endloop
  endfacet
  facet normal 0 0 -1
    outer loop
      vertex 3.8627124296868423 -11.888206453689419 -3
      vertex 5.322241144563409 11.310338155825244 -3
      vertex 5.322241144563406 -11.310338155825244 -3
    endloop
  endfacet
  facet normal 0 0 -1
    outer loop
      vertex 5.322241144563406 -11.310338155825244 -3
      vertex 6.697834937237459 10.554099068775189 -3
      vertex 6.697834937237452 -10.55409906877519 -3
    endloop
  endfacet
  facet normal 0.5877852522924727 -0.8090169943749478 0
    outer loop
      vertex 6.697834937237452 -10.55409906877519 -3
      vertex 7.967799871858625 -9.631415534697362 -3
      vertex 7.967799871858625 -9.631415534697362 0
    endloop
  endfacet
  facet normal 0.6845471059286888 -0.7289686274214112 0
    outer loop
      vertex 7.967799871858625 -9.631415534697362 -3
      vertex 9.112107842767646 -8.556838824108606 -3
      vertex 9.112107842767646 -8.556838824108606 0
    endloop
  endfacet
  facet normal 0.7705132427757891 -0.6374239897486897 0
    outer loop
      vertex 9.112107842767646 -8.556838824108606 -3
      vertex 10.112712429686843 -7.347315653655914 -3
      vertex 9.112107842767646 -8.556838824108606 0
    endloop
  endfacet
  facet normal 0.8443279255020151 -0.5358267949789965 0
    outer loop
      vertex 10.112712429686843 -7.347315653655914 -3
      vertex 10.953833500548294 -6.021920926271442 -3
      vertex 10.112712429686843 -7.347315653655914 0
    endloop
  endfacet
  facet normal 0 0 -1
    outer loop
      vertex 6.697834937237452 -10.55409906877519 -3
      vertex 7.967799871858622 9.631415534697364 -3
      vertex 7.967799871858625 -9.631415534697362 -3
    endloop
  endfacet
  facet normal 0 0 -1
    outer loop
      vertex 7.967799871858625 -9.631415534697362 -3
      vertex 9.112107842767644 8.55683882410861 -3
      vertex 9.112107842767646 -8.556838824108606 -3
    endloop
  endfacet
  facet normal 0 0 -1
    outer loop
      vertex 9.112107842767646 -8.556838824108606 -3
      vertex 10.112712429686843 7.347315653655914 -3
      vertex 10.112712429686843 -7.347315653655914 -3
    endloop
  endfacet
  facet normal 0 0 -1
    outer loop
      vertex 10.112712429686843 -7.347315653655914 -3
      vertex 10.953833500548296 6.0219209262714415 -3
      vertex 10.953833500548294 -6.021920926271442 -3
    endloop
  endfacet
  facet normal 0 0 -1
    outer loop
      vertex 10.953833500548294 -6.021920926271442 -3
      vertex 11.622206073603142 4.601556908558475 -3
      vertex 11.62220607360314 -4.6015569085584795 -3
    endloop
  endfacet
  facet normal 0 0 -1
    outer loop
      vertex 11.62220607360314 -4.6015569085584795 -3
      vertex 12.107289514107888 3.108623589560685 -3
      vertex 12.10728951410789 -3.1086235895606804 -3
    endloop
  endfacet
  facet normal 0 0 -1
    outer loop
      vertex 12.10728951410789 -3.1086235895606804 -3
      vertex 12.401433766430973 1.5666654195538032 -3
      vertex 12.401433766430973 -1.5666654195538008 -3
    endloop
  endfacet
  facet normal 0.9048270524660196 -0.42577929156507266 0
    outer loop
      vertex 10.953833500548294 -6.021920926271442 -3
      vertex 11.62220607360314 -4.6015569085584795 -3
      vertex 10.953833500548294 -6.021920926271442 0
    endloop
  endfacet
  facet normal 0.9510565162951534 -0.30901699437494795 0
    outer loop
      vertex 11.62220607360314 -4.6015569085584795 -3
      vertex 12.10728951410789 -3.1086235895606804 -3
      vertex 11.62220607360314 -4.6015569085584795 0
    endloop
  endfacet
  facet normal 0.9822872507286887 -0.1873813145857241 0
    outer loop
      vertex 12.10728951410789 -3.1086235895606804 -3
      vertex 12.401433766430973 -1.5666654195538008 -3
      vertex 12.10728951410789 -3.1086235895606804 0
    endloop
  endfacet
  facet normal 0.9980267284282716 -0.0627905195293135 0
    outer loop
      vertex 12.401433766430973 -1.5666654195538008 -3
      vertex 12.5 0 -3
      vertex 12.401433766430973 -1.5666654195538008 0
    endloop
  endfacet
  facet normal 0.12533323356430498 -0.9921147013144779 0
    outer loop
      vertex 0.784881494116422 -12.475334105353394 -3
      vertex 2.3422664323215603 -12.278590634108607 0
      vertex 0.784881494116422 -12.475334105353394 0
    endloop
  endfacet
  facet normal 0.24868988716485482 -0.9685831611286312 0
    outer loop
      vertex 2.3422664323215603 -12.278590634108607 -3
      vertex 3.8627124296868423 -11.888206453689419 0
      vertex 2.3422664323215603 -12.278590634108607 0
    endloop
  endfacet
  facet normal 0.368124552684678 -0.9297764858882516 0
    outer loop
      vertex 3.8627124296868423 -11.888206453689419 -3
      vertex 5.322241144563406 -11.310338155825244 0
      vertex 3.8627124296868423 -11.888206453689419 0
    endloop
  endfacet
  facet normal 0.4817536741017149 -0.8763066800438637 0
    outer loop
      vertex 5.322241144563406 -11.310338155825244 -3
      vertex 6.697834937237452 -10.55409906877519 0
      vertex 5.322241144563406 -11.310338155825244 0
    endloop
  endfacet
  facet normal 0 0 1
    outer loop
      vertex -0.784881494116422 -12.475334105353394 0
      vertex 0.784881494116422 -12.475334105353394 0
      vertex 0.3453478574112257 -5.489147006355494 0
    endloop
  endfacet
  facet normal 0 0 1
    outer loop
      vertex 0.784881494116422 -12.475334105353394 0
      vertex 2.3422664323215603 -12.278590634108607 0
      vertex 0.3453478574112257 -5.489147006355494 0
    endloop
  endfacet
  facet normal 0 0 1
    outer loop
      vertex 2.3422664323215603 -12.278590634108607 0
      vertex 3.8627124296868423 -11.888206453689419 0
      vertex 2.341786103607898 -4.9765487885631075 0
    endloop
  endfacet
  facet normal 0 0 1
    outer loop
      vertex 2.3422664323215603 -12.278590634108607 0
      vertex 1.0305972302214865 -5.402579879007788 0
      vertex 0.3453478574112257 -5.489147006355494 0
    endloop
  endfacet
  facet normal 0 0 1
    outer loop
      vertex 2.3422664323215603 -12.278590634108607 0
      vertex 1.6995934690622108 -5.230810839623344 0
      vertex 1.0305972302214865 -5.402579879007788 0
    endloop
  endfacet
  facet normal 0 0 1
    outer loop
      vertex 2.3422664323215603 -12.278590634108607 0
      vertex 2.341786103607898 -4.9765487885631075 0
      vertex 1.6995934690622108 -5.230810839623344 0
    endloop
  endfacet
  facet normal 0 0 1
    outer loop
      vertex 3.8627124296868423 -11.888206453689419 0
      vertex 2.9470473723844792 -4.643803590261085 0
      vertex 2.341786103607898 -4.9765487885631075 0
    endloop
  endfacet
  facet normal 0 0 1
    outer loop
      vertex 3.8627124296868423 -11.888206453689419 0
      vertex 5.322241144563406 -11.310338155825244 0
      vertex 3.5058319436177947 -4.23782283526684 0
    endloop
  endfacet
  facet normal 0 0 1
    outer loop
      vertex 3.8627124296868423 -11.888206453689419 0
      vertex 3.5058319436177947 -4.23782283526684 0
      vertex 2.9470473723844792 -4.643803590261085 0
    endloop
  endfacet
  facet normal 0 0 1
    outer loop
      vertex 5.322241144563406 -11.310338155825244 0
      vertex 4.009327450817764 -3.765009082607787 0
      vertex 3.5058319436177947 -4.23782283526684 0
    endloop
  endfacet
  facet normal 0 0 1
    outer loop
      vertex 5.322241144563406 -11.310338155825244 0
      vertex 6.697834937237452 -10.55409906877519 0
      vertex 5.113770672385382 -2.024685039765731 0
    endloop
  endfacet
  facet normal 0 0 1
    outer loop
      vertex 5.322241144563406 -11.310338155825244 0
      vertex 4.449593469062211 -3.232818887608602 0
      vertex 4.009327450817764 -3.765009082607787 0
    endloop
  endfacet
  facet normal 0 0 1
    outer loop
      vertex 5.322241144563406 -11.310338155825244 0
      vertex 4.819686740241249 -2.6496452075594346 0
      vertex 4.449593469062211 -3.232818887608602 0
    endloop
  endfacet
  facet normal 0 0 1
    outer loop
      vertex 5.322241144563406 -11.310338155825244 0
      vertex 5.113770672385382 -2.024685039765731 0
      vertex 4.819686740241249 -2.6496452075594346 0
    endloop
  endfacet
  facet normal 0 0 1
    outer loop
      vertex 6.697834937237452 -10.55409906877519 0
      vertex 5.327207386207472 -1.3677943794066993 0
      vertex 5.113770672385382 -2.024685039765731 0
    endloop
  endfacet
  facet normal 0 0 1
    outer loop
      vertex 6.697834937237452 -10.55409906877519 0
      vertex 5.456630857229628 -0.6893327846036723 0
      vertex 5.327207386207472 -1.3677943794066993 0
    endloop
  endfacet
  facet normal 0 0 1
    outer loop
      vertex 6.697834937237452 -10.55409906877519 0
      vertex 5.5 0 0
      vertex 5.456630857229628 -0.6893327846036723 0
    endloop
  endfacet
  facet normal 0 0 1
    outer loop
      vertex 6.697834937237452 -10.55409906877519 0
      vertex 5.456630857229628 0.6893327846036734 0
      vertex 5.5 0 0
    endloop
  endfacet
  facet normal 0.5877852522924727 -0.8090169943749478 0
    outer loop
      vertex 6.697834937237452 -10.55409906877519 -3
      vertex 7.967799871858625 -9.631415534697362 0
      vertex 6.697834937237452 -10.55409906877519 0
    endloop
  endfacet
  facet normal 0.6845471059286888 -0.7289686274214112 0
    outer loop
      vertex 7.967799871858625 -9.631415534697362 -3
      vertex 9.112107842767646 -8.556838824108606 0
      vertex 7.967799871858625 -9.631415534697362 0
    endloop
  endfacet
  facet normal 0.7705132427757891 -0.6374239897486897 0
    outer loop
      vertex 10.112712429686843 -7.347315653655914 -3
      vertex 10.112712429686843 -7.347315653655914 0
      vertex 9.112107842767646 -8.556838824108606 0
    endloop
  endfacet
  facet normal 0.8443279255020151 -0.5358267949789965 0
    outer loop
      vertex 10.953833500548294 -6.021920926271442 -3
      vertex 10.953833500548294 -6.021920926271442 0
      vertex 10.112712429686843 -7.347315653655914 0
    endloop
  endfacet
  facet normal 0.9048270524660196 -0.42577929156507266 0
    outer loop
      vertex 11.62220607360314 -4.6015569085584795 -3
      vertex 11.62220607360314 -4.6015569085584795 0
      vertex 10.953833500548294 -6.021920926271442 0
    endloop
  endfacet
  facet normal 0.9510565162951534 -0.30901699437494795 0
    outer loop
      vertex 12.10728951410789 -3.1086235895606804 -3
      vertex 12.10728951410789 -3.1086235895606804 0
      vertex 11.62220607360314 -4.6015569085584795 0
    endloop
  endfacet
  facet normal 0.9822872507286887 -0.1873813145857241 0
    outer loop
      vertex 12.401433766430973 -1.5666654195538008 -3
      vertex 12.401433766430973 -1.5666654195538008 0
      vertex 12.10728951410789 -3.1086235895606804 0
    endloop
  endfacet
  facet normal 0.9980267284282716 -0.0627905195293135 0
    outer loop
      vertex 12.401433766430973 -1.5666654195538008 0
      vertex 12.5 0 -3
      vertex 12.5 0 0
    endloop
  endfacet
  facet normal 0 0 1
    outer loop
      vertex 6.697834937237452 -10.55409906877519 0
      vertex 7.967799871858625 -9.631415534697362 0
      vertex 6.697834937237459 10.554099068775189 0
    endloop
  endfacet
  facet normal 0 0 1
    outer loop
      vertex 7.967799871858625 -9.631415534697362 0
      vertex 9.112107842767646 -8.556838824108606 0
      vertex 7.967799871858622 9.631415534697364 0
    endloop
  endfacet
  facet normal 0 0 1
    outer loop
      vertex 9.112107842767646 -8.556838824108606 0
      vertex 10.112712429686843 -7.347315653655914 0
      vertex 9.112107842767644 8.55683882410861 0
    endloop
  endfacet
  facet normal 0 0 1
    outer loop
      vertex 10.112712429686843 -7.347315653655914 0
      vertex 10.953833500548294 -6.021920926271442 0
      vertex 10.112712429686843 7.347315653655914 0
    endloop
  endfacet
  facet normal 0 0 1
    outer loop
      vertex 10.953833500548294 -6.021920926271442 0
      vertex 11.62220607360314 -4.6015569085584795 0
      vertex 10.953833500548296 6.0219209262714415 0
    endloop
  endfacet
  facet normal 0 0 1
    outer loop
      vertex 11.62220607360314 -4.6015569085584795 0
      vertex 12.10728951410789 -3.1086235895606804 0
      vertex 11.622206073603142 4.601556908558475 0
    endloop
  endfacet
  facet normal 0 0 1
    outer loop
      vertex 12.10728951410789 -3.1086235895606804 0
      vertex 12.401433766430973 -1.5666654195538008 0
      vertex 12.107289514107888 3.108623589560685 0
    endloop
  endfacet
  facet normal 0 0 -1
    outer loop
      vertex 2.342266432321557 12.278590634108609 -3
      vertex 1.8945304536757381 2.985302308024982 -3
      vertex 1.5054339237479357 3.1992099355048547 -3
    endloop
  endfacet
  facet normal 0 0 -1
    outer loop
      vertex 2.342266432321557 12.278590634108609 -3
      vertex 2.253749106611439 2.7243146798143973 -3
      vertex 1.8945304536757381 2.985302308024982 -3
    endloop
  endfacet
  facet normal 0 0 -1
    outer loop
      vertex 3.8627124296868423 11.888206453689419 -3
      vertex 2.5774247898114195 2.4203629816764356 -3
      vertex 2.253749106611439 2.7243146798143973 -3
    endloop
  endfacet
  facet normal 0 0 -1
    outer loop
      vertex 3.8627124296868423 11.888206453689419 -3
      vertex 2.860452944397136 2.078240713462673 -3
      vertex 2.5774247898114195 2.4203629816764356 -3
    endloop
  endfacet
  facet normal 0 0 -1
    outer loop
      vertex 3.8627124296868423 -11.888206453689419 -3
      vertex 3.5357142857142856 0 -3
      vertex 3.8627124296868423 11.888206453689419 -3
    endloop
  endfacet
  facet normal 0 0 -1
    outer loop
      vertex 3.8627124296868423 11.888206453689419 -3
      vertex 3.5357142857142856 0 -3
      vertex 3.507834122504761 0.4431425043880758 -3
    endloop
  endfacet
  facet normal 0 0 -1
    outer loop
      vertex 3.8627124296868423 11.888206453689419 -3
      vertex 3.507834122504761 0.4431425043880758 -3
      vertex 3.424633319704803 0.8792963867614509 -3
    endloop
  endfacet
  facet normal 0 0 -1
    outer loop
      vertex 3.8627124296868423 -11.888206453689419 -3
      vertex 3.8627124296868423 11.888206453689419 -3
      vertex 5.322241144563409 11.310338155825244 -3
    endloop
  endfacet
  facet normal 0 0 -1
    outer loop
      vertex 3.8627124296868423 11.888206453689419 -3
      vertex 3.2874240036763176 1.3015832398493972 -3
      vertex 3.098370047297946 1.703343347716779 -3
    endloop
  endfacet
  facet normal 0 0 -1
    outer loop
      vertex 3.8627124296868423 11.888206453689419 -3
      vertex 3.098370047297946 1.703343347716779 -3
      vertex 2.860452944397136 2.078240713462673 -3
    endloop
  endfacet
  facet normal 0 0 -1
    outer loop
      vertex 3.8627124296868423 11.888206453689419 -3
      vertex 3.424633319704803 0.8792963867614509 -3
      vertex 3.2874240036763176 1.3015832398493972 -3
    endloop
  endfacet
  facet normal 0 0 -1
    outer loop
      vertex 5.322241144563406 -11.310338155825244 -3
      vertex 5.322241144563409 11.310338155825244 -3
      vertex 6.697834937237459 10.554099068775189 -3
    endloop
  endfacet
  facet normal 0 0 -1
    outer loop
      vertex 0.784881494116416 12.475334105353394 -3
      vertex 0.662526790856669 3.473087065076435 -3
      vertex 0.22200933690721264 3.528737361228532 -3
    endloop
  endfacet
  facet normal 0 0 -1
    outer loop
      vertex 2.342266432321557 12.278590634108609 -3
      vertex 1.0925958015399926 3.3626641111864357 -3
      vertex 0.662526790856669 3.473087065076435 -3
    endloop
  endfacet
  facet normal 0 0 -1
    outer loop
      vertex 2.342266432321557 12.278590634108609 -3
      vertex 1.5054339237479357 3.1992099355048547 -3
      vertex 1.0925958015399926 3.3626641111864357 -3
    endloop
  endfacet
  facet normal 0 0 -1
    outer loop
      vertex 2.342266432321557 12.278590634108609 -3
      vertex 3.8627124296868423 11.888206453689419 -3
      vertex 2.253749106611439 2.7243146798143973 -3
    endloop
  endfacet
  facet normal 0 0 -1
    outer loop
      vertex -0.784881494116416 12.475334105353394 -3
      vertex 0.784881494116416 12.475334105353394 -3
      vertex 0.22200933690721264 3.528737361228532 -3
    endloop
  endfacet
  facet normal 0 0 -1
    outer loop
      vertex 0.784881494116416 12.475334105353394 -3
      vertex 2.342266432321557 12.278590634108609 -3
      vertex 0.662526790856669 3.473087065076435 -3
    endloop
  endfacet
  facet normal 0.12533323356430362 0.9921147013144779 0
    outer loop
      vertex 0.784881494116416 12.475334105353394 -3
      vertex 0.784881494116416 12.475334105353394 0
      vertex 2.342266432321557 12.278590634108609 -3
    endloop
  endfacet
  facet normal 0.24868988716485538 0.9685831611286311 0
    outer loop
      vertex 2.342266432321557 12.278590634108609 -3
      vertex 2.342266432321557 12.278590634108609 0
      vertex 3.8627124296868423 11.888206453689419 -3
    endloop
  endfacet
  facet normal 0.36812455268467714 0.9297764858882517 0
    outer loop
      vertex 3.8627124296868423 11.888206453689419 -3
      vertex 3.8627124296868423 11.888206453689419 0
      vertex 5.322241144563409 11.310338155825244 -3
    endloop
  endfacet
  facet normal 0.4817536741017151 0.8763066800438637 0
    outer loop
      vertex 5.322241144563409 11.310338155825244 -3
      vertex 5.322241144563409 11.310338155825244 0
      vertex 6.697834937237459 10.554099068775189 -3
    endloop
  endfacet
  facet normal 0 0 -1
    outer loop
      vertex 7.967799871858625 -9.631415534697362 -3
      vertex 7.967799871858622 9.631415534697364 -3
      vertex 9.112107842767644 8.55683882410861 -3
    endloop
  endfacet
  facet normal 0 0 -1
    outer loop
      vertex 6.697834937237452 -10.55409906877519 -3
      vertex 6.697834937237459 10.554099068775189 -3
      vertex 7.967799871858622 9.631415534697364 -3
    endloop
  endfacet
  facet normal 0 0 -1
    outer loop
      vertex 9.112107842767646 -8.556838824108606 -3
      vertex 9.112107842767644 8.55683882410861 -3
      vertex 10.112712429686843 7.347315653655914 -3
    endloop
  endfacet
  facet normal 0 0 -1
    outer loop
      vertex 10.112712429686843 -7.347315653655914 -3
      vertex 10.112712429686843 7.347315653655914 -3
      vertex 10.953833500548296 6.0219209262714415 -3
    endloop
  endfacet
  facet normal 0 0 -1
    outer loop
      vertex 10.953833500548294 -6.021920926271442 -3
      vertex 10.953833500548296 6.0219209262714415 -3
      vertex 11.622206073603142 4.601556908558475 -3
    endloop
  endfacet
  facet normal 0 0 -1
    outer loop
      vertex 12.401433766430973 -1.5666654195538008 -3
      vertex 12.401433766430973 1.5666654195538032 -3
      vertex 12.5 0 -3
    endloop
  endfacet
  facet normal 0 0 -1
    outer loop
      vertex 12.10728951410789 -3.1086235895606804 -3
      vertex 12.107289514107888 3.108623589560685 -3
      vertex 12.401433766430973 1.5666654195538032 -3
    endloop
  endfacet
  facet normal 0 0 -1
    outer loop
      vertex 11.62220607360314 -4.6015569085584795 -3
      vertex 11.622206073603142 4.601556908558475 -3
      vertex 12.107289514107888 3.108623589560685 -3
    endloop
  endfacet
  facet normal 0.9980267284282716 0.0627905195293134 0
    outer loop
      vertex 12.5 0 -3
      vertex 12.401433766430973 1.5666654195538032 -3
      vertex 12.5 0 0
    endloop
  endfacet
  facet normal 0.9822872507286886 0.18738131458572493 0
    outer loop
      vertex 12.401433766430973 1.5666654195538032 -3
      vertex 12.107289514107888 3.108623589560685 -3
      vertex 12.401433766430973 1.5666654195538032 0
    endloop
  endfacet
  facet normal 0.9510565162951535 0.30901699437494756 0
    outer loop
      vertex 12.107289514107888 3.108623589560685 -3
      vertex 11.622206073603142 4.601556908558475 -3
      vertex 12.107289514107888 3.108623589560685 0
    endloop
  endfacet
  facet normal 0.90482705246602 0.42577929156507177 0
    outer loop
      vertex 11.622206073603142 4.601556908558475 -3
      vertex 10.953833500548296 6.0219209262714415 -3
      vertex 11.622206073603142 4.601556908558475 0
    endloop
  endfacet
  facet normal 0.6845471059286882 0.7289686274214122 0
    outer loop
      vertex 9.112107842767644 8.55683882410861 -3
      vertex 7.967799871858622 9.631415534697364 -3
      vertex 7.967799871858622 9.631415534697364 0
    endloop
  endfacet
  facet normal 0.5877852522924739 0.8090169943749468 0
    outer loop
      vertex 6.697834937237459 10.554099068775189 -3
      vertex 6.697834937237459 10.554099068775189 0
      vertex 7.967799871858622 9.631415534697364 -3
    endloop
  endfacet
  facet normal 0.7705132427757895 0.6374239897486893 0
    outer loop
      vertex 9.112107842767644 8.55683882410861 -3
      vertex 10.112712429686843 7.347315653655914 0
      vertex 10.112712429686843 7.347315653655914 -3
    endloop
  endfacet
  facet normal 0.8443279255020147 0.5358267949789971 0
    outer loop
      vertex 10.953833500548296 6.0219209262714415 -3
      vertex 10.112712429686843 7.347315653655914 -3
      vertex 10.953833500548296 6.0219209262714415 0
    endloop
  endfacet
  facet normal 0 0 1
    outer loop
      vertex 6.697834937237452 -10.55409906877519 0
      vertex 5.322241144563409 11.310338155825244 0
      vertex 5.456630857229628 0.6893327846036734 0
    endloop
  endfacet
  facet normal 0 0 1
    outer loop
      vertex 5.322241144563409 11.310338155825244 0
      vertex 5.327207386207471 1.3677943794067013 0
      vertex 5.456630857229628 0.6893327846036734 0
    endloop
  endfacet
  facet normal 0 0 1
    outer loop
      vertex 6.697834937237452 -10.55409906877519 0
      vertex 6.697834937237459 10.554099068775189 0
      vertex 5.322241144563409 11.310338155825244 0
    endloop
  endfacet
  facet normal 0 0 1
    outer loop
      vertex 5.322241144563409 11.310338155825244 0
      vertex 5.113770672385383 2.0246850397657288 0
      vertex 5.327207386207471 1.3677943794067013 0
    endloop
  endfacet
  facet normal 0 0 1
    outer loop
      vertex 5.322241144563409 11.310338155825244 0
      vertex 4.8196867402412495 2.649645207559434 0
      vertex 5.113770672385383 2.0246850397657288 0
    endloop
  endfacet
  facet normal 0 0 1
    outer loop
      vertex 5.322241144563409 11.310338155825244 0
      vertex 4.449593469062211 3.232818887608602 0
      vertex 4.8196867402412495 2.649645207559434 0
    endloop
  endfacet
  facet normal 0 1 0
    outer loop
      vertex -0.784881494116416 12.475334105353394 0
      vertex 0.784881494116416 12.475334105353394 0
      vertex 0.784881494116416 12.475334105353394 -3
    endloop
  endfacet
  facet normal 0.12533323356430362 0.9921147013144779 0
    outer loop
      vertex 2.342266432321557 12.278590634108609 -3
      vertex 0.784881494116416 12.475334105353394 0
      vertex 2.342266432321557 12.278590634108609 0
    endloop
  endfacet
  facet normal 0.24868988716485538 0.9685831611286311 0
    outer loop
      vertex 3.8627124296868423 11.888206453689419 -3
      vertex 2.342266432321557 12.278590634108609 0
      vertex 3.8627124296868423 11.888206453689419 0
    endloop
  endfacet
  facet normal 0.4817536741017151 0.8763066800438637 0
    outer loop
      vertex 6.697834937237459 10.554099068775189 -3
      vertex 5.322241144563409 11.310338155825244 0
      vertex 6.697834937237459 10.554099068775189 0
    endloop
  endfacet
  facet normal 0.36812455268467714 0.9297764858882517 0
    outer loop
      vertex 5.322241144563409 11.310338155825244 -3
      vertex 3.8627124296868423 11.888206453689419 0
      vertex 5.322241144563409 11.310338155825244 0
    endloop
  endfacet
  facet normal 0 0 1
    outer loop
      vertex 0.784881494116416 12.475334105353394 0
      vertex 0.34534785741122304 5.489147006355494 0
      vertex 1.0305972302214852 5.402579879007788 0
    endloop
  endfacet
  facet normal 0 0 1
    outer loop
      vertex 0.784881494116416 12.475334105353394 0
      vertex 1.0305972302214852 5.402579879007788 0
      vertex 1.6995934690622108 5.230810839623344 0
    endloop
  endfacet
  facet normal 0 0 1
    outer loop
      vertex 0.784881494116416 12.475334105353394 0
      vertex -0.3453478574112213 5.489147006355494 0
      vertex 0.34534785741122304 5.489147006355494 0
    endloop
  endfacet
  facet normal 0 0 1
    outer loop
      vertex 2.342266432321557 12.278590634108609 0
      vertex 1.6995934690622108 5.230810839623344 0
      vertex 2.3417861036079 4.9765487885631075 0
    endloop
  endfacet
  facet normal 0 0 1
    outer loop
      vertex 2.342266432321557 12.278590634108609 0
      vertex 2.3417861036079 4.9765487885631075 0
      vertex 2.9470473723844814 4.643803590261083 0
    endloop
  endfacet
  facet normal 0 0 1
    outer loop
      vertex 0.784881494116416 12.475334105353394 0
      vertex 1.6995934690622108 5.230810839623344 0
      vertex 2.342266432321557 12.278590634108609 0
    endloop
  endfacet
  facet normal 0 0 1
    outer loop
      vertex 2.342266432321557 12.278590634108609 0
      vertex 2.9470473723844814 4.643803590261083 0
      vertex 3.8627124296868423 11.888206453689419 0
    endloop
  endfacet
  facet normal 0 0 1
    outer loop
      vertex 3.8627124296868423 11.888206453689419 0
      vertex 2.9470473723844814 4.643803590261083 0
      vertex 3.5058319436177934 4.23782283526684 0
    endloop
  endfacet
  facet normal 0 0 1
    outer loop
      vertex 3.8627124296868423 11.888206453689419 0
      vertex 3.5058319436177934 4.23782283526684 0
      vertex 4.009327450817763 3.765009082607788 0
    endloop
  endfacet
  facet normal 0 0 1
    outer loop
      vertex 3.8627124296868423 11.888206453689419 0
      vertex 4.009327450817763 3.765009082607788 0
      vertex 4.449593469062211 3.232818887608602 0
    endloop
  endfacet
  facet normal 0 0 1
    outer loop
      vertex 3.8627124296868423 11.888206453689419 0
      vertex 4.449593469062211 3.232818887608602 0
      vertex 5.322241144563409 11.310338155825244 0
    endloop
  endfacet
  facet normal 0.9980267284282716 0.0627905195293134 0
    outer loop
      vertex 12.401433766430973 1.5666654195538032 -3
      vertex 12.401433766430973 1.5666654195538032 0
      vertex 12.5 0 0
    endloop
  endfacet
  facet normal 0.9822872507286886 0.18738131458572493 0
    outer loop
      vertex 12.107289514107888 3.108623589560685 -3
      vertex 12.107289514107888 3.108623589560685 0
      vertex 12.401433766430973 1.5666654195538032 0
    endloop
  endfacet
  facet normal 0.9510565162951535 0.30901699437494756 0
    outer loop
      vertex 11.622206073603142 4.601556908558475 -3
      vertex 11.622206073603142 4.601556908558475 0
      vertex 12.107289514107888 3.108623589560685 0
    endloop
  endfacet
  facet normal 0.90482705246602 0.42577929156507177 0
    outer loop
      vertex 10.953833500548296 6.0219209262714415 -3
      vertex 10.953833500548296 6.0219209262714415 0
      vertex 11.622206073603142 4.601556908558475 0
    endloop
  endfacet
  facet normal 0 0 1
    outer loop
      vertex 7.967799871858625 -9.631415534697362 0
      vertex 7.967799871858622 9.631415534697364 0
      vertex 6.697834937237459 10.554099068775189 0
    endloop
  endfacet
  facet normal 0 0 1
    outer loop
      vertex 9.112107842767646 -8.556838824108606 0
      vertex 9.112107842767644 8.55683882410861 0
      vertex 7.967799871858622 9.631415534697364 0
    endloop
  endfacet
  facet normal 0 0 1
    outer loop
      vertex 10.112712429686843 -7.347315653655914 0
      vertex 10.112712429686843 7.347315653655914 0
      vertex 9.112107842767644 8.55683882410861 0
    endloop
  endfacet
  facet normal 0 0 1
    outer loop
      vertex 10.953833500548294 -6.021920926271442 0
      vertex 10.953833500548296 6.0219209262714415 0
      vertex 10.112712429686843 7.347315653655914 0
    endloop
  endfacet
  facet normal 0 0 1
    outer loop
      vertex 12.401433766430973 -1.5666654195538008 0
      vertex 12.5 0 0
      vertex 12.401433766430973 1.5666654195538032 0
    endloop
  endfacet
  facet normal 0 0 1
    outer loop
      vertex 12.10728951410789 -3.1086235895606804 0
      vertex 12.107289514107888 3.108623589560685 0
      vertex 11.622206073603142 4.601556908558475 0
    endloop
  endfacet
  facet normal 0 0 1
    outer loop
      vertex 12.401433766430973 -1.5666654195538008 0
      vertex 12.401433766430973 1.5666654195538032 0
      vertex 12.107289514107888 3.108623589560685 0
    endloop
  endfacet
  facet normal 0 0 1
    outer loop
      vertex 11.62220607360314 -4.6015569085584795 0
      vertex 11.622206073603142 4.601556908558475 0
      vertex 10.953833500548296 6.0219209262714415 0
    endloop
  endfacet
  facet normal 0.6845471059286882 0.7289686274214122 0
    outer loop
      vertex 9.112107842767644 8.55683882410861 -3
      vertex 7.967799871858622 9.631415534697364 0
      vertex 9.112107842767644 8.55683882410861 0
    endloop
  endfacet
  facet normal 0.5877852522924739 0.8090169943749468 0
    outer loop
      vertex 7.967799871858622 9.631415534697364 -3
      vertex 6.697834937237459 10.554099068775189 0
      vertex 7.967799871858622 9.631415534697364 0
    endloop
  endfacet
  facet normal 0.8443279255020147 0.5358267949789971 0
    outer loop
      vertex 10.112712429686843 7.347315653655914 -3
      vertex 10.112712429686843 7.347315653655914 0
      vertex 10.953833500548296 6.0219209262714415 0
    endloop
  endfacet
  facet normal 0.7705132427757895 0.6374239897486893 0
    outer loop
      vertex 9.112107842767644 8.55683882410861 -3
      vertex 9.112107842767644 8.55683882410861 0
      vertex 10.112712429686843 7.347315653655914 0
    endloop
  endfacet
endsolid OpenSCAD_Model
