solid OpenSCAD_Model
  facet normal 0 0 1
    outer loop
      vertex 3 0 0
      vertex 15 0 0
      vertex 14.8817 1.88 0
    endloop
  endfacet
  facet normal 0 0 1
    outer loop
      vertex 2.97634 0.375999 0
      vertex 14.8817 1.88 0
      vertex 14.5287 3.73035 0
    endloop
  endfacet
  facet normal 0 0 1
    outer loop
      vertex 15 0 0
      vertex 3 0 0
      vertex 14.8817 -1.88 0
    endloop
  endfacet
  facet normal 0 0 1
    outer loop
      vertex 2.90575 0.746069 0
      vertex 14.5287 3.73035 0
      vertex 13.9466 5.52187 0
    endloop
  endfacet
  facet normal -0 0 1
    outer loop
      vertex 2.97634 -0.375999 0
      vertex 14.8817 -1.88 0
      vertex 3 0 0
    endloop
  endfacet
  facet normal 0 0 1
    outer loop
      vertex 2.78933 1.10437 0
      vertex 13.9466 5.52187 0
      vertex 13.1446 7.22631 0
    endloop
  endfacet
  facet normal 0 0 1
    outer loop
      vertex 14.8817 -1.88 0
      vertex 2.97634 -0.375999 0
      vertex 14.5287 -3.73035 0
    endloop
  endfacet
  facet normal 0 0 1
    outer loop
      vertex 2.62892 1.44526 0
      vertex 13.1446 7.22631 0
      vertex 12.1353 8.81678 0
    endloop
  endfacet
  facet normal -0 0 1
    outer loop
      vertex 2.90575 -0.746069 0
      vertex 14.5287 -3.73035 0
      vertex 2.97634 -0.375999 0
    endloop
  endfacet
  facet normal 0 0 1
    outer loop
      vertex 2.42705 1.76336 0
      vertex 12.1353 8.81678 0
      vertex 10.9345 10.2682 0
    endloop
  endfacet
  facet normal 0 0 1
    outer loop
      vertex 14.5287 -3.73035 0
      vertex 2.90575 -0.746069 0
      vertex 13.9466 -5.52187 0
    endloop
  endfacet
  facet normal 0 0 1
    outer loop
      vertex 2.18691 2.05364 0
      vertex 10.9345 10.2682 0
      vertex 9.56136 11.5577 0
    endloop
  endfacet
  facet normal -0 0 1
    outer loop
      vertex 2.78933 -1.10437 0
      vertex 13.9466 -5.52187 0
      vertex 2.90575 -0.746069 0
    endloop
  endfacet
  facet normal 0 0 1
    outer loop
      vertex 1.91227 2.31154 0
      vertex 9.56136 11.5577 0
      vertex 8.0374 12.6649 0
    endloop
  endfacet
  facet normal 0 0 1
    outer loop
      vertex 13.9466 -5.52187 0
      vertex 2.78933 -1.10437 0
      vertex 13.1446 -7.22631 0
    endloop
  endfacet
  facet normal 0 0 1
    outer loop
      vertex 1.60748 2.53298 0
      vertex 8.0374 12.6649 0
      vertex 6.38669 13.5724 0
    endloop
  endfacet
  facet normal -0 0 1
    outer loop
      vertex 2.62892 -1.44526 0
      vertex 13.1446 -7.22631 0
      vertex 2.78933 -1.10437 0
    endloop
  endfacet
  facet normal 0 0 1
    outer loop
      vertex 1.27734 2.71448 0
      vertex 6.38669 13.5724 0
      vertex 4.63525 14.2658 0
    endloop
  endfacet
  facet normal 0 0 1
    outer loop
      vertex 13.1446 -7.22631 0
      vertex 2.62892 -1.44526 0
      vertex 12.1353 -8.81678 0
    endloop
  endfacet
  facet normal -0 0 1
    outer loop
      vertex 2.42705 -1.76336 0
      vertex 12.1353 -8.81678 0
      vertex 2.62892 -1.44526 0
    endloop
  endfacet
  facet normal 0 0 1
    outer loop
      vertex 14.8817 1.88 0
      vertex 2.97634 0.375999 0
      vertex 3 0 0
    endloop
  endfacet
  facet normal 0 0 1
    outer loop
      vertex 14.5287 3.73035 0
      vertex 2.90575 0.746069 0
      vertex 2.97634 0.375999 0
    endloop
  endfacet
  facet normal 0 0 1
    outer loop
      vertex 0.927051 2.85317 0
      vertex 4.63525 14.2658 0
      vertex 2.81072 14.7343 0
    endloop
  endfacet
  facet normal 0 0 1
    outer loop
      vertex 13.9466 5.52187 0
      vertex 2.78933 1.10437 0
      vertex 2.90575 0.746069 0
    endloop
  endfacet
  facet normal 0 0 1
    outer loop
      vertex 13.1446 7.22631 0
      vertex 2.62892 1.44526 0
      vertex 2.78933 1.10437 0
    endloop
  endfacet
  facet normal 0 0 1
    outer loop
      vertex 12.1353 8.81678 0
      vertex 2.42705 1.76336 0
      vertex 2.62892 1.44526 0
    endloop
  endfacet
  facet normal 0 0 1
    outer loop
      vertex 10.9345 10.2682 0
      vertex 2.18691 2.05364 0
      vertex 2.42705 1.76336 0
    endloop
  endfacet
  facet normal 0 0 1
    outer loop
      vertex 9.56136 11.5577 0
      vertex 1.91227 2.31154 0
      vertex 2.18691 2.05364 0
    endloop
  endfacet
  facet normal 0 0 1
    outer loop
      vertex 8.0374 12.6649 0
      vertex 1.60748 2.53298 0
      vertex 1.91227 2.31154 0
    endloop
  endfacet
  facet normal 0 0 1
    outer loop
      vertex 6.38669 13.5724 0
      vertex 1.27734 2.71448 0
      vertex 1.60748 2.53298 0
    endloop
  endfacet
  facet normal 0 0 1
    outer loop
      vertex 0.562143 2.94686 0
      vertex 2.81072 14.7343 0
      vertex 0.941857 14.9704 0
    endloop
  endfacet
  facet normal 0 0 1
    outer loop
      vertex 4.63525 14.2658 0
      vertex 0.927051 2.85317 0
      vertex 1.27734 2.71448 0
    endloop
  endfacet
  facet normal 0 0 1
    outer loop
      vertex 2.81072 14.7343 0
      vertex 0.562143 2.94686 0
      vertex 0.927051 2.85317 0
    endloop
  endfacet
  facet normal 0 0 1
    outer loop
      vertex 0.941857 14.9704 0
      vertex 0.188371 2.99408 0
      vertex 0.562143 2.94686 0
    endloop
  endfacet
  facet normal 0 0 1
    outer loop
      vertex 0.941857 14.9704 0
      vertex -0.188371 2.99408 0
      vertex 0.188371 2.99408 0
    endloop
  endfacet
  facet normal -0 0 1
    outer loop
      vertex -0.941857 14.9704 0
      vertex -0.188371 2.99408 0
      vertex 0.941857 14.9704 0
    endloop
  endfacet
  facet normal 0 0 1
    outer loop
      vertex -0.188371 2.99408 0
      vertex -0.941857 14.9704 0
      vertex -0.562143 2.94686 0
    endloop
  endfacet
  facet normal -0 0 1
    outer loop
      vertex -2.81072 14.7343 0
      vertex -0.562143 2.94686 0
      vertex -0.941857 14.9704 0
    endloop
  endfacet
  facet normal 0 0 1
    outer loop
      vertex -0.562143 2.94686 0
      vertex -2.81072 14.7343 0
      vertex -0.927051 2.85317 0
    endloop
  endfacet
  facet normal -0 0 1
    outer loop
      vertex -4.63525 14.2658 0
      vertex -0.927051 2.85317 0
      vertex -2.81072 14.7343 0
    endloop
  endfacet
  facet normal 0 0 1
    outer loop
      vertex -0.927051 2.85317 0
      vertex -4.63525 14.2658 0
      vertex -1.27734 2.71448 0
    endloop
  endfacet
  facet normal -0 0 1
    outer loop
      vertex -6.38669 13.5724 0
      vertex -1.27734 2.71448 0
      vertex -4.63525 14.2658 0
    endloop
  endfacet
  facet normal 0 0 1
    outer loop
      vertex -1.27734 2.71448 0
      vertex -6.38669 13.5724 0
      vertex -1.60748 2.53298 0
    endloop
  endfacet
  facet normal -0 0 1
    outer loop
      vertex -8.0374 12.6649 0
      vertex -1.60748 2.53298 0
      vertex -6.38669 13.5724 0
    endloop
  endfacet
  facet normal 0 0 1
    outer loop
      vertex -1.60748 2.53298 0
      vertex -8.0374 12.6649 0
      vertex -1.91227 2.31154 0
    endloop
  endfacet
  facet normal -0 0 1
    outer loop
      vertex -9.56136 11.5577 0
      vertex -1.91227 2.31154 0
      vertex -8.0374 12.6649 0
    endloop
  endfacet
  facet normal 0 0 1
    outer loop
      vertex -1.91227 2.31154 0
      vertex -9.56136 11.5577 0
      vertex -2.18691 2.05364 0
    endloop
  endfacet
  facet normal -0 0 1
    outer loop
      vertex -10.9345 10.2682 0
      vertex -2.18691 2.05364 0
      vertex -9.56136 11.5577 0
    endloop
  endfacet
  facet normal 0 0 1
    outer loop
      vertex -2.18691 2.05364 0
      vertex -10.9345 10.2682 0
      vertex -2.42705 1.76336 0
    endloop
  endfacet
  facet normal -0 0 1
    outer loop
      vertex -12.1353 8.81678 0
      vertex -2.42705 1.76336 0
      vertex -10.9345 10.2682 0
    endloop
  endfacet
  facet normal 0 0 1
    outer loop
      vertex 12.1353 -8.81678 0
      vertex 2.42705 -1.76336 0
      vertex 10.9345 -10.2682 0
    endloop
  endfacet
  facet normal -0 0 1
    outer loop
      vertex 2.18691 -2.05364 0
      vertex 10.9345 -10.2682 0
      vertex 2.42705 -1.76336 0
    endloop
  endfacet
  facet normal 0 0 1
    outer loop
      vertex 10.9345 -10.2682 0
      vertex 2.18691 -2.05364 0
      vertex 9.56136 -11.5577 0
    endloop
  endfacet
  facet normal -0 0 1
    outer loop
      vertex 1.91227 -2.31154 0
      vertex 9.56136 -11.5577 0
      vertex 2.18691 -2.05364 0
    endloop
  endfacet
  facet normal 0 0 1
    outer loop
      vertex 9.56136 -11.5577 0
      vertex 1.91227 -2.31154 0
      vertex 8.0374 -12.6649 0
    endloop
  endfacet
  facet normal -0 0 1
    outer loop
      vertex 1.60748 -2.53298 0
      vertex 8.0374 -12.6649 0
      vertex 1.91227 -2.31154 0
    endloop
  endfacet
  facet normal 0 0 1
    outer loop
      vertex 8.0374 -12.6649 0
      vertex 1.60748 -2.53298 0
      vertex 6.38669 -13.5724 0
    endloop
  endfacet
  facet normal -0 0 1
    outer loop
      vertex 1.27734 -2.71448 0
      vertex 6.38669 -13.5724 0
      vertex 1.60748 -2.53298 0
    endloop
  endfacet
  facet normal 0 0 1
    outer loop
      vertex 6.38669 -13.5724 0
      vertex 1.27734 -2.71448 0
      vertex 4.63525 -14.2658 0
    endloop
  endfacet
  facet normal -0 0 1
    outer loop
      vertex 0.927051 -2.85317 0
      vertex 4.63525 -14.2658 0
      vertex 1.27734 -2.71448 0
    endloop
  endfacet
  facet normal 0 0 1
    outer loop
      vertex 4.63525 -14.2658 0
      vertex 0.927051 -2.85317 0
      vertex 2.81072 -14.7343 0
    endloop
  endfacet
  facet normal -0 0 1
    outer loop
      vertex 0.562143 -2.94686 0
      vertex 2.81072 -14.7343 0
      vertex 0.927051 -2.85317 0
    endloop
  endfacet
  facet normal 0 0 1
    outer loop
      vertex 2.81072 -14.7343 0
      vertex 0.562143 -2.94686 0
      vertex 0.941857 -14.9704 0
    endloop
  endfacet
  facet normal -0 0 1
    outer loop
      vertex 0.188371 -2.99408 0
      vertex 0.941857 -14.9704 0
      vertex 0.562143 -2.94686 0
    endloop
  endfacet
  facet normal -0 0 1
    outer loop
      vertex -0.188371 -2.99408 0
      vertex 0.941857 -14.9704 0
      vertex 0.188371 -2.99408 0
    endloop
  endfacet
  facet normal 0 0 1
    outer loop
      vertex -0.941857 -14.9704 0
      vertex -0.188371 -2.99408 0
      vertex -0.562143 -2.94686 0
    endloop
  endfacet
  facet normal 0 0 1
    outer loop
      vertex -2.81072 -14.7343 0
      vertex -0.562143 -2.94686 0
      vertex -0.927051 -2.85317 0
    endloop
  endfacet
  facet normal 0 0 1
    outer loop
      vertex -0.188371 -2.99408 0
      vertex -0.941857 -14.9704 0
      vertex 0.941857 -14.9704 0
    endloop
  endfacet
  facet normal 0 0 1
    outer loop
      vertex -4.63525 -14.2658 0
      vertex -0.927051 -2.85317 0
      vertex -1.27734 -2.71448 0
    endloop
  endfacet
  facet normal 0 0 1
    outer loop
      vertex -6.38669 -13.5724 0
      vertex -1.27734 -2.71448 0
      vertex -1.60748 -2.53298 0
    endloop
  endfacet
  facet normal 0 0 1
    outer loop
      vertex -8.0374 -12.6649 0
      vertex -1.60748 -2.53298 0
      vertex -1.91227 -2.31154 0
    endloop
  endfacet
  facet normal 0 0 1
    outer loop
      vertex -9.56136 -11.5577 0
      vertex -1.91227 -2.31154 0
      vertex -2.18691 -2.05364 0
    endloop
  endfacet
  facet normal 0 0 1
    outer loop
      vertex -10.9345 -10.2682 0
      vertex -2.18691 -2.05364 0
      vertex -2.42705 -1.76336 0
    endloop
  endfacet
  facet normal 0 0 1
    outer loop
      vertex -12.1353 -8.81678 0
      vertex -2.42705 -1.76336 0
      vertex -2.62892 -1.44526 0
    endloop
  endfacet
  facet normal 0 0 1
    outer loop
      vertex -13.1446 -7.22631 0
      vertex -2.62892 -1.44526 0
      vertex -2.78933 -1.10437 0
    endloop
  endfacet
  facet normal 0 0 1
    outer loop
      vertex -0.562143 -2.94686 0
      vertex -2.81072 -14.7343 0
      vertex -0.941857 -14.9704 0
    endloop
  endfacet
  facet normal 0 0 1
    outer loop
      vertex -13.9466 -5.52187 0
      vertex -2.78933 -1.10437 0
      vertex -2.90575 -0.746069 0
    endloop
  endfacet
  facet normal 0 0 1
    outer loop
      vertex -14.5287 -3.73035 0
      vertex -2.90575 -0.746069 0
      vertex -2.97634 -0.375999 0
    endloop
  endfacet
  facet normal 0 0 1
    outer loop
      vertex -14.8817 -1.88 0
      vertex -2.97634 -0.375999 0
      vertex -3 0 0
    endloop
  endfacet
  facet normal 0 0 1
    outer loop
      vertex -2.42705 1.76336 0
      vertex -12.1353 8.81678 0
      vertex -2.62892 1.44526 0
    endloop
  endfacet
  facet normal 0 0 1
    outer loop
      vertex -0.927051 -2.85317 0
      vertex -4.63525 -14.2658 0
      vertex -2.81072 -14.7343 0
    endloop
  endfacet
  facet normal -0 0 1
    outer loop
      vertex -13.1446 7.22631 0
      vertex -2.62892 1.44526 0
      vertex -12.1353 8.81678 0
    endloop
  endfacet
  facet normal 0 0 1
    outer loop
      vertex -1.27734 -2.71448 0
      vertex -6.38669 -13.5724 0
      vertex -4.63525 -14.2658 0
    endloop
  endfacet
  facet normal 0 0 1
    outer loop
      vertex -2.62892 1.44526 0
      vertex -13.1446 7.22631 0
      vertex -2.78933 1.10437 0
    endloop
  endfacet
  facet normal 0 0 1
    outer loop
      vertex -1.60748 -2.53298 0
      vertex -8.0374 -12.6649 0
      vertex -6.38669 -13.5724 0
    endloop
  endfacet
  facet normal -0 0 1
    outer loop
      vertex -13.9466 5.52187 0
      vertex -2.78933 1.10437 0
      vertex -13.1446 7.22631 0
    endloop
  endfacet
  facet normal 0 0 1
    outer loop
      vertex -1.91227 -2.31154 0
      vertex -9.56136 -11.5577 0
      vertex -8.0374 -12.6649 0
    endloop
  endfacet
  facet normal 0 0 1
    outer loop
      vertex -2.78933 1.10437 0
      vertex -13.9466 5.52187 0
      vertex -2.90575 0.746069 0
    endloop
  endfacet
  facet normal 0 0 1
    outer loop
      vertex -2.18691 -2.05364 0
      vertex -10.9345 -10.2682 0
      vertex -9.56136 -11.5577 0
    endloop
  endfacet
  facet normal -0 0 1
    outer loop
      vertex -14.5287 3.73035 0
      vertex -2.90575 0.746069 0
      vertex -13.9466 5.52187 0
    endloop
  endfacet
  facet normal 0 0 1
    outer loop
      vertex -2.42705 -1.76336 0
      vertex -12.1353 -8.81678 0
      vertex -10.9345 -10.2682 0
    endloop
  endfacet
  facet normal 0 0 1
    outer loop
      vertex -2.90575 0.746069 0
      vertex -14.5287 3.73035 0
      vertex -2.97634 0.375999 0
    endloop
  endfacet
  facet normal 0 0 1
    outer loop
      vertex -2.62892 -1.44526 0
      vertex -13.1446 -7.22631 0
      vertex -12.1353 -8.81678 0
    endloop
  endfacet
  facet normal -0 0 1
    outer loop
      vertex -14.8817 1.88 0
      vertex -2.97634 0.375999 0
      vertex -14.5287 3.73035 0
    endloop
  endfacet
  facet normal 0 0 1
    outer loop
      vertex -2.78933 -1.10437 0
      vertex -13.9466 -5.52187 0
      vertex -13.1446 -7.22631 0
    endloop
  endfacet
  facet normal 0 0 1
    outer loop
      vertex -2.97634 0.375999 0
      vertex -14.8817 1.88 0
      vertex -3 0 0
    endloop
  endfacet
  facet normal 0 0 1
    outer loop
      vertex -2.90575 -0.746069 0
      vertex -14.5287 -3.73035 0
      vertex -13.9466 -5.52187 0
    endloop
  endfacet
  facet normal 0 0 1
    outer loop
      vertex -15 0 0
      vertex -3 0 0
      vertex -14.8817 1.88 0
    endloop
  endfacet
  facet normal 0 0 1
    outer loop
      vertex -2.97634 -0.375999 0
      vertex -14.8817 -1.88 0
      vertex -14.5287 -3.73035 0
    endloop
  endfacet
  facet normal 0 0 1
    outer loop
      vertex -3 0 0
      vertex -15 0 0
      vertex -14.8817 -1.88 0
    endloop
  endfacet
  facet normal -0.457766 -0.0288135 0.888606
    outer loop
      vertex 1.35 0 -0.849999
      vertex 3 0 0
      vertex 1.33935 0.169199 -0.849999
    endloop
  endfacet
  facet normal -0 0.458672 0.888606
    outer loop
      vertex -0.0847664 -1.34734 -0.849999
      vertex 0.188371 -2.99408 0
      vertex 0.0847664 -1.34734 -0.849999
    endloop
  endfacet
  facet normal 0 0.458672 0.888606
    outer loop
      vertex 0.188371 -2.99408 0
      vertex -0.0847664 -1.34734 -0.849999
      vertex -0.188371 -2.99408 0
    endloop
  endfacet
  facet normal -0.457765 0.0288052 0.888606
    outer loop
      vertex 2.97634 -0.375999 0
      vertex 3 0 0
      vertex 1.33935 -0.169199 -0.849999
    endloop
  endfacet
  facet normal 0.457766 0.0288135 0.888606
    outer loop
      vertex -1.33935 -0.169199 -0.849999
      vertex -1.35 0 -0.849999
      vertex -3 0 0
    endloop
  endfacet
  facet normal -0.0574888 -0.455055 0.888606
    outer loop
      vertex 0.562143 2.94686 0
      vertex 0.188371 2.99408 0
      vertex 0.0847664 1.34734 -0.849999
    endloop
  endfacet
  facet normal -0.415018 -0.195292 0.888606
    outer loop
      vertex 2.78933 1.10437 0
      vertex 2.62892 1.44526 0
      vertex 1.18301 0.650367 -0.849999
    endloop
  endfacet
  facet normal -0.313979 0.334359 0.888606
    outer loop
      vertex 1.91227 -2.31154 0
      vertex 2.18691 -2.05364 0
      vertex 0.860522 -1.04019 -0.849999
    endloop
  endfacet
  facet normal 0.457765 -0.0288052 0.888606
    outer loop
      vertex -1.33935 0.169199 -0.849999
      vertex -2.97634 0.375999 0
      vertex -3 0 0
    endloop
  endfacet
  facet normal 0.313979 -0.334359 0.888606
    outer loop
      vertex -0.860522 1.04019 -0.849999
      vertex -1.91227 2.31154 0
      vertex -2.18691 2.05364 0
    endloop
  endfacet
  facet normal -0.313979 -0.334359 0.888606
    outer loop
      vertex 0.984107 0.924138 -0.849999
      vertex 2.18691 2.05364 0
      vertex 0.860522 1.04019 -0.849999
    endloop
  endfacet
  facet normal -0.450548 -0.0859409 0.888606
    outer loop
      vertex 2.97634 0.375999 0
      vertex 2.90575 0.746069 0
      vertex 1.33935 0.169199 -0.849999
    endloop
  endfacet
  facet normal -0.415018 0.195292 0.888606
    outer loop
      vertex 2.62892 -1.44526 0
      vertex 2.78933 -1.10437 0
      vertex 1.18301 -0.650367 -0.849999
    endloop
  endfacet
  facet normal -0.269601 0.371073 0.888606
    outer loop
      vertex 1.60748 -2.53298 0
      vertex 0.860522 -1.04019 -0.849999
      vertex 0.723366 -1.13984 -0.849999
    endloop
  endfacet
  facet normal -0.114064 0.444263 0.888606
    outer loop
      vertex 0.562143 -2.94686 0
      vertex 0.927051 -2.85317 0
      vertex 0.417172 -1.28393 -0.849999
    endloop
  endfacet
  facet normal -0.269598 0.371074 0.888606
    outer loop
      vertex 1.60748 -2.53298 0
      vertex 1.91227 -2.31154 0
      vertex 0.860522 -1.04019 -0.849999
    endloop
  endfacet
  facet normal 0.313979 0.334359 0.888606
    outer loop
      vertex -0.860522 -1.04019 -0.849999
      vertex -0.984107 -0.924138 -0.849999
      vertex -2.18691 -2.05364 0
    endloop
  endfacet
  facet normal 0.415014 0.195305 0.888605
    outer loop
      vertex -1.18301 -0.650367 -0.849999
      vertex -1.2552 -0.496967 -0.849999
      vertex -2.78933 -1.10437 0
    endloop
  endfacet
  facet normal 0.114064 0.444263 0.888606
    outer loop
      vertex -0.562143 -2.94686 0
      vertex -0.417172 -1.28393 -0.849999
      vertex -0.927051 -2.85317 0
    endloop
  endfacet
  facet normal 0.415018 -0.195292 0.888606
    outer loop
      vertex -1.18301 0.650367 -0.849999
      vertex -2.62892 1.44526 0
      vertex -2.78933 1.10437 0
    endloop
  endfacet
  facet normal -0.114063 -0.444263 0.888606
    outer loop
      vertex 0.417172 1.28393 -0.849999
      vertex 0.562143 2.94686 0
      vertex 0.252964 1.32609 -0.849999
    endloop
  endfacet
  facet normal -0.114064 -0.444263 0.888606
    outer loop
      vertex 0.927051 2.85317 0
      vertex 0.562143 2.94686 0
      vertex 0.417172 1.28393 -0.849999
    endloop
  endfacet
  facet normal -0.38727 -0.245766 0.888606
    outer loop
      vertex 2.62892 1.44526 0
      vertex 2.42705 1.76336 0
      vertex 1.18301 0.650367 -0.849999
    endloop
  endfacet
  facet normal -0.457765 -0.0288052 0.888606
    outer loop
      vertex 3 0 0
      vertex 2.97634 0.375999 0
      vertex 1.33935 0.169199 -0.849999
    endloop
  endfacet
  facet normal -0.450548 0.0859409 0.888606
    outer loop
      vertex 2.90575 -0.746069 0
      vertex 2.97634 -0.375999 0
      vertex 1.33935 -0.169199 -0.849999
    endloop
  endfacet
  facet normal -0.450552 0.0859267 0.888605
    outer loop
      vertex 2.90575 -0.746069 0
      vertex 1.33935 -0.169199 -0.849999
      vertex 1.30759 -0.335731 -0.849999
    endloop
  endfacet
  facet normal -0.436222 0.141738 0.888606
    outer loop
      vertex 2.78933 -1.10437 0
      vertex 2.90575 -0.746069 0
      vertex 1.2552 -0.496967 -0.849999
    endloop
  endfacet
  facet normal -0.415014 0.195305 0.888605
    outer loop
      vertex 2.78933 -1.10437 0
      vertex 1.2552 -0.496967 -0.849999
      vertex 1.18301 -0.650367 -0.849999
    endloop
  endfacet
  facet normal -0.353412 0.292367 0.888607
    outer loop
      vertex 2.18691 -2.05364 0
      vertex 2.42705 -1.76336 0
      vertex 1.09217 -0.793509 -0.849999
    endloop
  endfacet
  facet normal -0.114063 0.444263 0.888606
    outer loop
      vertex 0.562143 -2.94686 0
      vertex 0.417172 -1.28393 -0.849999
      vertex 0.252964 -1.32609 -0.849999
    endloop
  endfacet
  facet normal -0.0574914 0.455055 0.888606
    outer loop
      vertex 0.562143 -2.94686 0
      vertex 0.252964 -1.32609 -0.849999
      vertex 0.0847664 -1.34734 -0.849999
    endloop
  endfacet
  facet normal -0.168849 0.426462 0.888606
    outer loop
      vertex 0.927051 -2.85317 0
      vertex 1.27734 -2.71448 0
      vertex 0.417172 -1.28393 -0.849999
    endloop
  endfacet
  facet normal -0.22097 0.401935 0.888606
    outer loop
      vertex 1.27734 -2.71448 0
      vertex 1.60748 -2.53298 0
      vertex 0.723366 -1.13984 -0.849999
    endloop
  endfacet
  facet normal 0.168849 0.426462 0.888606
    outer loop
      vertex -0.927051 -2.85317 0
      vertex -0.417172 -1.28393 -0.849999
      vertex -1.27734 -2.71448 0
    endloop
  endfacet
  facet normal 0.450548 -0.0859409 0.888606
    outer loop
      vertex -1.33935 0.169199 -0.849999
      vertex -2.90575 0.746069 0
      vertex -2.97634 0.375999 0
    endloop
  endfacet
  facet normal 0.450552 -0.0859267 0.888605
    outer loop
      vertex -1.33935 0.169199 -0.849999
      vertex -1.30759 0.335731 -0.849999
      vertex -2.90575 0.746069 0
    endloop
  endfacet
  facet normal 0.269601 -0.371073 0.888606
    outer loop
      vertex -0.860522 1.04019 -0.849999
      vertex -0.723366 1.13984 -0.849999
      vertex -1.60748 2.53298 0
    endloop
  endfacet
  facet normal 0 -0.458672 0.888606
    outer loop
      vertex 0.188371 2.99408 0
      vertex -0.0847664 1.34734 -0.849999
      vertex 0.0847664 1.34734 -0.849999
    endloop
  endfacet
  facet normal 0 -0.458672 0.888606
    outer loop
      vertex -0.0847664 1.34734 -0.849999
      vertex 0.188371 2.99408 0
      vertex -0.188371 2.99408 0
    endloop
  endfacet
  facet normal 0.22097 -0.401935 0.888606
    outer loop
      vertex -0.723366 1.13984 -0.849999
      vertex -1.27734 2.71448 0
      vertex -1.60748 2.53298 0
    endloop
  endfacet
  facet normal 0.269598 -0.371074 0.888606
    outer loop
      vertex -0.860522 1.04019 -0.849999
      vertex -1.60748 2.53298 0
      vertex -1.91227 2.31154 0
    endloop
  endfacet
  facet normal 0.436222 -0.141738 0.888606
    outer loop
      vertex -1.2552 0.496967 -0.849999
      vertex -2.78933 1.10437 0
      vertex -2.90575 0.746069 0
    endloop
  endfacet
  facet normal 0.415014 -0.195305 0.888605
    outer loop
      vertex -1.2552 0.496967 -0.849999
      vertex -1.18301 0.650367 -0.849999
      vertex -2.78933 1.10437 0
    endloop
  endfacet
  facet normal 0.353412 -0.292367 0.888607
    outer loop
      vertex -1.09217 0.793509 -0.849999
      vertex -2.18691 2.05364 0
      vertex -2.42705 1.76336 0
    endloop
  endfacet
  facet normal -0.168849 -0.426462 0.888606
    outer loop
      vertex 1.27734 2.71448 0
      vertex 0.927051 2.85317 0
      vertex 0.417172 1.28393 -0.849999
    endloop
  endfacet
  facet normal -0.0574914 -0.455055 0.888606
    outer loop
      vertex 0.252964 1.32609 -0.849999
      vertex 0.562143 2.94686 0
      vertex 0.0847664 1.34734 -0.849999
    endloop
  endfacet
  facet normal -0.220979 -0.401931 0.888605
    outer loop
      vertex 0.723366 1.13984 -0.849999
      vertex 1.27734 2.71448 0
      vertex 0.574801 1.22152 -0.849999
    endloop
  endfacet
  facet normal -0.415014 -0.195305 0.888605
    outer loop
      vertex 1.2552 0.496967 -0.849999
      vertex 2.78933 1.10437 0
      vertex 1.18301 0.650367 -0.849999
    endloop
  endfacet
  facet normal -0.457766 0.0288135 0.888606
    outer loop
      vertex 3 0 0
      vertex 1.35 0 -0.849999
      vertex 1.33935 -0.169199 -0.849999
    endloop
  endfacet
  facet normal -0.436222 0.14174 0.888606
    outer loop
      vertex 2.90575 -0.746069 0
      vertex 1.30759 -0.335731 -0.849999
      vertex 1.2552 -0.496967 -0.849999
    endloop
  endfacet
  facet normal -0.387269 0.245767 0.888606
    outer loop
      vertex 2.42705 -1.76336 0
      vertex 1.18301 -0.650367 -0.849999
      vertex 1.09217 -0.793509 -0.849999
    endloop
  endfacet
  facet normal -0.38727 0.245766 0.888606
    outer loop
      vertex 2.42705 -1.76336 0
      vertex 2.62892 -1.44526 0
      vertex 1.18301 -0.650367 -0.849999
    endloop
  endfacet
  facet normal -0.353416 0.292363 0.888606
    outer loop
      vertex 2.18691 -2.05364 0
      vertex 1.09217 -0.793509 -0.849999
      vertex 0.984107 -0.924138 -0.849999
    endloop
  endfacet
  facet normal -0.313979 0.334359 0.888606
    outer loop
      vertex 2.18691 -2.05364 0
      vertex 0.984107 -0.924138 -0.849999
      vertex 0.860522 -1.04019 -0.849999
    endloop
  endfacet
  facet normal -0.0574888 0.455055 0.888606
    outer loop
      vertex 0.188371 -2.99408 0
      vertex 0.562143 -2.94686 0
      vertex 0.0847664 -1.34734 -0.849999
    endloop
  endfacet
  facet normal 0.436222 0.141738 0.888606
    outer loop
      vertex -2.78933 -1.10437 0
      vertex -1.2552 -0.496967 -0.849999
      vertex -2.90575 -0.746069 0
    endloop
  endfacet
  facet normal 0.450552 0.0859267 0.888605
    outer loop
      vertex -1.30759 -0.335731 -0.849999
      vertex -1.33935 -0.169199 -0.849999
      vertex -2.90575 -0.746069 0
    endloop
  endfacet
  facet normal 0.353412 0.292367 0.888607
    outer loop
      vertex -2.18691 -2.05364 0
      vertex -1.09217 -0.793509 -0.849999
      vertex -2.42705 -1.76336 0
    endloop
  endfacet
  facet normal 0.387269 0.245767 0.888606
    outer loop
      vertex -1.09217 -0.793509 -0.849999
      vertex -1.18301 -0.650367 -0.849999
      vertex -2.42705 -1.76336 0
    endloop
  endfacet
  facet normal 0.269598 0.371074 0.888606
    outer loop
      vertex -1.60748 -2.53298 0
      vertex -0.860522 -1.04019 -0.849999
      vertex -1.91227 -2.31154 0
    endloop
  endfacet
  facet normal 0.313979 0.334359 0.888606
    outer loop
      vertex -1.91227 -2.31154 0
      vertex -0.860522 -1.04019 -0.849999
      vertex -2.18691 -2.05364 0
    endloop
  endfacet
  facet normal 0.168849 0.426462 0.888606
    outer loop
      vertex -0.417172 -1.28393 -0.849999
      vertex -0.574801 -1.22152 -0.849999
      vertex -1.27734 -2.71448 0
    endloop
  endfacet
  facet normal 0.0574914 0.455055 0.888606
    outer loop
      vertex -0.0847664 -1.34734 -0.849999
      vertex -0.252964 -1.32609 -0.849999
      vertex -0.562143 -2.94686 0
    endloop
  endfacet
  facet normal 0.0574888 0.455055 0.888606
    outer loop
      vertex -0.188371 -2.99408 0
      vertex -0.0847664 -1.34734 -0.849999
      vertex -0.562143 -2.94686 0
    endloop
  endfacet
  facet normal 0.114064 -0.444263 0.888606
    outer loop
      vertex -0.417172 1.28393 -0.849999
      vertex -0.562143 2.94686 0
      vertex -0.927051 2.85317 0
    endloop
  endfacet
  facet normal 0.457766 -0.0288135 0.888606
    outer loop
      vertex -1.35 0 -0.849999
      vertex -1.33935 0.169199 -0.849999
      vertex -3 0 0
    endloop
  endfacet
  facet normal 0.436222 -0.14174 0.888606
    outer loop
      vertex -1.30759 0.335731 -0.849999
      vertex -1.2552 0.496967 -0.849999
      vertex -2.90575 0.746069 0
    endloop
  endfacet
  facet normal 0.387269 -0.245767 0.888606
    outer loop
      vertex -1.18301 0.650367 -0.849999
      vertex -1.09217 0.793509 -0.849999
      vertex -2.42705 1.76336 0
    endloop
  endfacet
  facet normal 0.38727 -0.245766 0.888606
    outer loop
      vertex -1.18301 0.650367 -0.849999
      vertex -2.42705 1.76336 0
      vertex -2.62892 1.44526 0
    endloop
  endfacet
  facet normal 0.353416 -0.292363 0.888606
    outer loop
      vertex -1.09217 0.793509 -0.849999
      vertex -0.984107 0.924138 -0.849999
      vertex -2.18691 2.05364 0
    endloop
  endfacet
  facet normal 0.313979 -0.334359 0.888606
    outer loop
      vertex -0.984107 0.924138 -0.849999
      vertex -0.860522 1.04019 -0.849999
      vertex -2.18691 2.05364 0
    endloop
  endfacet
  facet normal -0.269598 -0.371074 0.888606
    outer loop
      vertex 1.91227 2.31154 0
      vertex 1.60748 2.53298 0
      vertex 0.860522 1.04019 -0.849999
    endloop
  endfacet
  facet normal -0.313979 -0.334359 0.888606
    outer loop
      vertex 2.18691 2.05364 0
      vertex 1.91227 2.31154 0
      vertex 0.860522 1.04019 -0.849999
    endloop
  endfacet
  facet normal -0.269601 -0.371073 0.888606
    outer loop
      vertex 0.860522 1.04019 -0.849999
      vertex 1.60748 2.53298 0
      vertex 0.723366 1.13984 -0.849999
    endloop
  endfacet
  facet normal -0.22097 -0.401935 0.888606
    outer loop
      vertex 1.60748 2.53298 0
      vertex 1.27734 2.71448 0
      vertex 0.723366 1.13984 -0.849999
    endloop
  endfacet
  facet normal -0.168849 -0.426462 0.888606
    outer loop
      vertex 0.574801 1.22152 -0.849999
      vertex 1.27734 2.71448 0
      vertex 0.417172 1.28393 -0.849999
    endloop
  endfacet
  facet normal -0.353412 -0.292367 0.888607
    outer loop
      vertex 2.42705 1.76336 0
      vertex 2.18691 2.05364 0
      vertex 1.09217 0.793509 -0.849999
    endloop
  endfacet
  facet normal -0.387269 -0.245767 0.888606
    outer loop
      vertex 1.18301 0.650367 -0.849999
      vertex 2.42705 1.76336 0
      vertex 1.09217 0.793509 -0.849999
    endloop
  endfacet
  facet normal -0.436222 -0.141738 0.888606
    outer loop
      vertex 2.90575 0.746069 0
      vertex 2.78933 1.10437 0
      vertex 1.2552 0.496967 -0.849999
    endloop
  endfacet
  facet normal -0.220979 0.401931 0.888605
    outer loop
      vertex 1.27734 -2.71448 0
      vertex 0.723366 -1.13984 -0.849999
      vertex 0.574801 -1.22152 -0.849999
    endloop
  endfacet
  facet normal -0.168849 0.426462 0.888606
    outer loop
      vertex 1.27734 -2.71448 0
      vertex 0.574801 -1.22152 -0.849999
      vertex 0.417172 -1.28393 -0.849999
    endloop
  endfacet
  facet normal 0.450548 0.0859409 0.888606
    outer loop
      vertex -2.90575 -0.746069 0
      vertex -1.33935 -0.169199 -0.849999
      vertex -2.97634 -0.375999 0
    endloop
  endfacet
  facet normal 0.457765 0.0288052 0.888606
    outer loop
      vertex -2.97634 -0.375999 0
      vertex -1.33935 -0.169199 -0.849999
      vertex -3 0 0
    endloop
  endfacet
  facet normal 0.38727 0.245766 0.888606
    outer loop
      vertex -2.42705 -1.76336 0
      vertex -1.18301 -0.650367 -0.849999
      vertex -2.62892 -1.44526 0
    endloop
  endfacet
  facet normal 0.415018 0.195292 0.888606
    outer loop
      vertex -2.62892 -1.44526 0
      vertex -1.18301 -0.650367 -0.849999
      vertex -2.78933 -1.10437 0
    endloop
  endfacet
  facet normal 0.22097 0.401935 0.888606
    outer loop
      vertex -1.27734 -2.71448 0
      vertex -0.723366 -1.13984 -0.849999
      vertex -1.60748 -2.53298 0
    endloop
  endfacet
  facet normal 0.269601 0.371073 0.888606
    outer loop
      vertex -0.723366 -1.13984 -0.849999
      vertex -0.860522 -1.04019 -0.849999
      vertex -1.60748 -2.53298 0
    endloop
  endfacet
  facet normal 0.114063 0.444263 0.888606
    outer loop
      vertex -0.252964 -1.32609 -0.849999
      vertex -0.417172 -1.28393 -0.849999
      vertex -0.562143 -2.94686 0
    endloop
  endfacet
  facet normal 0.0574888 -0.455055 0.888606
    outer loop
      vertex -0.0847664 1.34734 -0.849999
      vertex -0.188371 2.99408 0
      vertex -0.562143 2.94686 0
    endloop
  endfacet
  facet normal 0.114063 -0.444263 0.888606
    outer loop
      vertex -0.417172 1.28393 -0.849999
      vertex -0.252964 1.32609 -0.849999
      vertex -0.562143 2.94686 0
    endloop
  endfacet
  facet normal 0.0574914 -0.455055 0.888606
    outer loop
      vertex -0.252964 1.32609 -0.849999
      vertex -0.0847664 1.34734 -0.849999
      vertex -0.562143 2.94686 0
    endloop
  endfacet
  facet normal -0.353416 -0.292363 0.888606
    outer loop
      vertex 1.09217 0.793509 -0.849999
      vertex 2.18691 2.05364 0
      vertex 0.984107 0.924138 -0.849999
    endloop
  endfacet
  facet normal -0.436222 -0.14174 0.888606
    outer loop
      vertex 1.30759 0.335731 -0.849999
      vertex 2.90575 0.746069 0
      vertex 1.2552 0.496967 -0.849999
    endloop
  endfacet
  facet normal -0.450552 -0.0859267 0.888605
    outer loop
      vertex 1.33935 0.169199 -0.849999
      vertex 2.90575 0.746069 0
      vertex 1.30759 0.335731 -0.849999
    endloop
  endfacet
  facet normal 0.436222 0.14174 0.888606
    outer loop
      vertex -1.2552 -0.496967 -0.849999
      vertex -1.30759 -0.335731 -0.849999
      vertex -2.90575 -0.746069 0
    endloop
  endfacet
  facet normal 0.353416 0.292363 0.888606
    outer loop
      vertex -0.984107 -0.924138 -0.849999
      vertex -1.09217 -0.793509 -0.849999
      vertex -2.18691 -2.05364 0
    endloop
  endfacet
  facet normal 0.220979 0.401931 0.888605
    outer loop
      vertex -0.574801 -1.22152 -0.849999
      vertex -0.723366 -1.13984 -0.849999
      vertex -1.27734 -2.71448 0
    endloop
  endfacet
  facet normal 0.168849 -0.426462 0.888606
    outer loop
      vertex -0.417172 1.28393 -0.849999
      vertex -0.927051 2.85317 0
      vertex -1.27734 2.71448 0
    endloop
  endfacet
  facet normal 0.220979 -0.401931 0.888605
    outer loop
      vertex -0.723366 1.13984 -0.849999
      vertex -0.574801 1.22152 -0.849999
      vertex -1.27734 2.71448 0
    endloop
  endfacet
  facet normal 0.168849 -0.426462 0.888606
    outer loop
      vertex -0.574801 1.22152 -0.849999
      vertex -0.417172 1.28393 -0.849999
      vertex -1.27734 2.71448 0
    endloop
  endfacet
  facet normal 0.904837 0.425758 0
    outer loop
      vertex 13.9466 5.52187 0
      vertex 13.1446 7.22631 -0.849999
      vertex 13.1446 7.22631 0
    endloop
  endfacet
  facet normal 0.904837 0.425758 0
    outer loop
      vertex 13.1446 7.22631 -0.849999
      vertex 13.9466 5.52187 0
      vertex 13.9466 5.52187 -0.849999
    endloop
  endfacet
  facet normal 0.844338 0.535811 0
    outer loop
      vertex 13.1446 7.22631 0
      vertex 12.1353 8.81678 -0.849999
      vertex 12.1353 8.81678 0
    endloop
  endfacet
  facet normal 0.844338 0.535811 0
    outer loop
      vertex 12.1353 8.81678 -0.849999
      vertex 13.1446 7.22631 0
      vertex 13.1446 7.22631 -0.849999
    endloop
  endfacet
  facet normal 0.368104 0.929785 -0
    outer loop
      vertex 6.38669 13.5724 -0.849999
      vertex 4.63525 14.2658 0
      vertex 6.38669 13.5724 0
    endloop
  endfacet
  facet normal 0.368104 0.929785 0
    outer loop
      vertex 4.63525 14.2658 0
      vertex 6.38669 13.5724 -0.849999
      vertex 4.63525 14.2658 -0.849999
    endloop
  endfacet
  facet normal -0.368104 0.929785 0
    outer loop
      vertex -4.63525 14.2658 -0.849999
      vertex -6.38669 13.5724 0
      vertex -4.63525 14.2658 0
    endloop
  endfacet
  facet normal -0.368104 0.929785 0
    outer loop
      vertex -6.38669 13.5724 0
      vertex -4.63525 14.2658 -0.849999
      vertex -6.38669 13.5724 -0.849999
    endloop
  endfacet
  facet normal -0.904837 0.425758 0
    outer loop
      vertex -13.9466 5.52187 -0.849999
      vertex -13.1446 7.22631 0
      vertex -13.1446 7.22631 -0.849999
    endloop
  endfacet
  facet normal -0.904837 0.425758 0
    outer loop
      vertex -13.1446 7.22631 0
      vertex -13.9466 5.52187 -0.849999
      vertex -13.9466 5.52187 0
    endloop
  endfacet
  facet normal 0.982285 -0.187395 0
    outer loop
      vertex 14.5287 -3.73035 0
      vertex 14.8817 -1.88 -0.849999
      vertex 14.8817 -1.88 0
    endloop
  endfacet
  facet normal 0.982285 -0.187395 0
    outer loop
      vertex 14.8817 -1.88 -0.849999
      vertex 14.5287 -3.73035 0
      vertex 14.5287 -3.73035 -0.849999
    endloop
  endfacet
  facet normal 0 1 -0
    outer loop
      vertex 0.941857 14.9704 -0.849999
      vertex -0.941857 14.9704 0
      vertex 0.941857 14.9704 0
    endloop
  endfacet
  facet normal 0 1 0
    outer loop
      vertex -0.941857 14.9704 0
      vertex 0.941857 14.9704 -0.849999
      vertex -0.941857 14.9704 -0.849999
    endloop
  endfacet
  facet normal 0.48176 0.876303 -0
    outer loop
      vertex 8.0374 12.6649 -0.849999
      vertex 6.38669 13.5724 0
      vertex 8.0374 12.6649 0
    endloop
  endfacet
  facet normal 0.48176 0.876303 0
    outer loop
      vertex 6.38669 13.5724 0
      vertex 8.0374 12.6649 -0.849999
      vertex 6.38669 13.5724 -0.849999
    endloop
  endfacet
  facet normal -0.770492 0.63745 0
    outer loop
      vertex -12.1353 8.81678 -0.849999
      vertex -10.9345 10.2682 0
      vertex -10.9345 10.2682 -0.849999
    endloop
  endfacet
  facet normal -0.770492 0.63745 0
    outer loop
      vertex -10.9345 10.2682 0
      vertex -12.1353 8.81678 -0.849999
      vertex -12.1353 8.81678 0
    endloop
  endfacet
  facet normal -0.24871 0.968578 0
    outer loop
      vertex -2.81072 14.7343 -0.849999
      vertex -4.63525 14.2658 0
      vertex -2.81072 14.7343 0
    endloop
  endfacet
  facet normal -0.24871 0.968578 0
    outer loop
      vertex -4.63525 14.2658 0
      vertex -2.81072 14.7343 -0.849999
      vertex -4.63525 14.2658 -0.849999
    endloop
  endfacet
  facet normal -0.684557 0.728959 0
    outer loop
      vertex -9.56136 11.5577 -0.849999
      vertex -10.9345 10.2682 0
      vertex -9.56136 11.5577 0
    endloop
  endfacet
  facet normal -0.684557 0.728959 0
    outer loop
      vertex -10.9345 10.2682 0
      vertex -9.56136 11.5577 -0.849999
      vertex -10.9345 10.2682 -0.849999
    endloop
  endfacet
  facet normal 0.998026 0.0628013 0
    outer loop
      vertex 15 0 0
      vertex 14.8817 1.88 -0.849999
      vertex 14.8817 1.88 0
    endloop
  endfacet
  facet normal 0.998026 0.0628013 0
    outer loop
      vertex 14.8817 1.88 -0.849999
      vertex 15 0 0
      vertex 15 0 -0.849999
    endloop
  endfacet
  facet normal 0.951057 -0.309017 0
    outer loop
      vertex 13.9466 -5.52187 0
      vertex 14.5287 -3.73035 -0.849999
      vertex 14.5287 -3.73035 0
    endloop
  endfacet
  facet normal 0.951057 -0.309017 0
    outer loop
      vertex 14.5287 -3.73035 -0.849999
      vertex 13.9466 -5.52187 0
      vertex 13.9466 -5.52187 -0.849999
    endloop
  endfacet
  facet normal 0.951057 0.309017 0
    outer loop
      vertex 14.5287 3.73035 0
      vertex 13.9466 5.52187 -0.849999
      vertex 13.9466 5.52187 0
    endloop
  endfacet
  facet normal 0.951057 0.309017 0
    outer loop
      vertex 13.9466 5.52187 -0.849999
      vertex 14.5287 3.73035 0
      vertex 14.5287 3.73035 -0.849999
    endloop
  endfacet
  facet normal 0.684557 0.728959 -0
    outer loop
      vertex 10.9345 10.2682 -0.849999
      vertex 9.56136 11.5577 0
      vertex 10.9345 10.2682 0
    endloop
  endfacet
  facet normal 0.684557 0.728959 0
    outer loop
      vertex 9.56136 11.5577 0
      vertex 10.9345 10.2682 -0.849999
      vertex 9.56136 11.5577 -0.849999
    endloop
  endfacet
  facet normal 0.24871 0.968578 -0
    outer loop
      vertex 4.63525 14.2658 -0.849999
      vertex 2.81072 14.7343 0
      vertex 4.63525 14.2658 0
    endloop
  endfacet
  facet normal 0.24871 0.968578 0
    outer loop
      vertex 2.81072 14.7343 0
      vertex 4.63525 14.2658 -0.849999
      vertex 2.81072 14.7343 -0.849999
    endloop
  endfacet
  facet normal 0.125337 0.992114 -0
    outer loop
      vertex 2.81072 14.7343 -0.849999
      vertex 0.941857 14.9704 0
      vertex 2.81072 14.7343 0
    endloop
  endfacet
  facet normal 0.125337 0.992114 0
    outer loop
      vertex 0.941857 14.9704 0
      vertex 2.81072 14.7343 -0.849999
      vertex 0.941857 14.9704 -0.849999
    endloop
  endfacet
  facet normal 0.587778 0.809022 -0
    outer loop
      vertex 9.56136 11.5577 -0.849999
      vertex 8.0374 12.6649 0
      vertex 9.56136 11.5577 0
    endloop
  endfacet
  facet normal 0.587778 0.809022 0
    outer loop
      vertex 8.0374 12.6649 0
      vertex 9.56136 11.5577 -0.849999
      vertex 8.0374 12.6649 -0.849999
    endloop
  endfacet
  facet normal -0.998026 0.0628013 0
    outer loop
      vertex -15 0 -0.849999
      vertex -14.8817 1.88 0
      vertex -14.8817 1.88 -0.849999
    endloop
  endfacet
  facet normal -0.998026 0.0628013 0
    outer loop
      vertex -14.8817 1.88 0
      vertex -15 0 -0.849999
      vertex -15 0 0
    endloop
  endfacet
  facet normal -0.951057 0.309017 0
    outer loop
      vertex -14.5287 3.73035 -0.849999
      vertex -13.9466 5.52187 0
      vertex -13.9466 5.52187 -0.849999
    endloop
  endfacet
  facet normal -0.951057 0.309017 0
    outer loop
      vertex -13.9466 5.52187 0
      vertex -14.5287 3.73035 -0.849999
      vertex -14.5287 3.73035 0
    endloop
  endfacet
  facet normal -0.844338 0.535811 0
    outer loop
      vertex -13.1446 7.22631 -0.849999
      vertex -12.1353 8.81678 0
      vertex -12.1353 8.81678 -0.849999
    endloop
  endfacet
  facet normal -0.844338 0.535811 0
    outer loop
      vertex -12.1353 8.81678 0
      vertex -13.1446 7.22631 -0.849999
      vertex -13.1446 7.22631 0
    endloop
  endfacet
  facet normal -0.125337 0.992114 0
    outer loop
      vertex -0.941857 14.9704 -0.849999
      vertex -2.81072 14.7343 0
      vertex -0.941857 14.9704 0
    endloop
  endfacet
  facet normal -0.125337 0.992114 0
    outer loop
      vertex -2.81072 14.7343 0
      vertex -0.941857 14.9704 -0.849999
      vertex -2.81072 14.7343 -0.849999
    endloop
  endfacet
  facet normal -0.587778 0.809022 0
    outer loop
      vertex -8.0374 12.6649 -0.849999
      vertex -9.56136 11.5577 0
      vertex -8.0374 12.6649 0
    endloop
  endfacet
  facet normal -0.587778 0.809022 0
    outer loop
      vertex -9.56136 11.5577 0
      vertex -8.0374 12.6649 -0.849999
      vertex -9.56136 11.5577 -0.849999
    endloop
  endfacet
  facet normal -0.48176 0.876303 0
    outer loop
      vertex -6.38669 13.5724 -0.849999
      vertex -8.0374 12.6649 0
      vertex -6.38669 13.5724 0
    endloop
  endfacet
  facet normal -0.48176 0.876303 0
    outer loop
      vertex -8.0374 12.6649 0
      vertex -6.38669 13.5724 -0.849999
      vertex -8.0374 12.6649 -0.849999
    endloop
  endfacet
  facet normal 0.998026 -0.0628013 0
    outer loop
      vertex 14.8817 -1.88 0
      vertex 15 0 -0.849999
      vertex 15 0 0
    endloop
  endfacet
  facet normal 0.998026 -0.0628013 0
    outer loop
      vertex 15 0 -0.849999
      vertex 14.8817 -1.88 0
      vertex 14.8817 -1.88 -0.849999
    endloop
  endfacet
  facet normal 0.125337 -0.992114 0
    outer loop
      vertex 0.941857 -14.9704 -0.849999
      vertex 2.81072 -14.7343 0
      vertex 0.941857 -14.9704 0
    endloop
  endfacet
  facet normal 0.125337 -0.992114 0
    outer loop
      vertex 2.81072 -14.7343 0
      vertex 0.941857 -14.9704 -0.849999
      vertex 2.81072 -14.7343 -0.849999
    endloop
  endfacet
  facet normal 0.982285 0.187395 0
    outer loop
      vertex 14.8817 1.88 0
      vertex 14.5287 3.73035 -0.849999
      vertex 14.5287 3.73035 0
    endloop
  endfacet
  facet normal 0.982285 0.187395 0
    outer loop
      vertex 14.5287 3.73035 -0.849999
      vertex 14.8817 1.88 0
      vertex 14.8817 1.88 -0.849999
    endloop
  endfacet
  facet normal 0.770492 0.63745 0
    outer loop
      vertex 12.1353 8.81678 0
      vertex 10.9345 10.2682 -0.849999
      vertex 10.9345 10.2682 0
    endloop
  endfacet
  facet normal 0.770492 0.63745 0
    outer loop
      vertex 10.9345 10.2682 -0.849999
      vertex 12.1353 8.81678 0
      vertex 12.1353 8.81678 -0.849999
    endloop
  endfacet
  facet normal -0.982285 0.187395 0
    outer loop
      vertex -14.8817 1.88 -0.849999
      vertex -14.5287 3.73035 0
      vertex -14.5287 3.73035 -0.849999
    endloop
  endfacet
  facet normal -0.982285 0.187395 0
    outer loop
      vertex -14.5287 3.73035 0
      vertex -14.8817 1.88 -0.849999
      vertex -14.8817 1.88 0
    endloop
  endfacet
  facet normal 0.904837 -0.425758 0
    outer loop
      vertex 13.1446 -7.22631 0
      vertex 13.9466 -5.52187 -0.849999
      vertex 13.9466 -5.52187 0
    endloop
  endfacet
  facet normal 0.904837 -0.425758 0
    outer loop
      vertex 13.9466 -5.52187 -0.849999
      vertex 13.1446 -7.22631 0
      vertex 13.1446 -7.22631 -0.849999
    endloop
  endfacet
  facet normal 0 -1 0
    outer loop
      vertex -0.941857 -14.9704 -0.849999
      vertex 0.941857 -14.9704 0
      vertex -0.941857 -14.9704 0
    endloop
  endfacet
  facet normal 0 -1 -0
    outer loop
      vertex 0.941857 -14.9704 0
      vertex -0.941857 -14.9704 -0.849999
      vertex 0.941857 -14.9704 -0.849999
    endloop
  endfacet
  facet normal -0.998026 -0.0628013 0
    outer loop
      vertex -14.8817 -1.88 -0.849999
      vertex -15 0 0
      vertex -15 0 -0.849999
    endloop
  endfacet
  facet normal -0.998026 -0.0628013 0
    outer loop
      vertex -15 0 0
      vertex -14.8817 -1.88 -0.849999
      vertex -14.8817 -1.88 0
    endloop
  endfacet
  facet normal -0.844338 -0.535811 0
    outer loop
      vertex -12.1353 -8.81678 -0.849999
      vertex -13.1446 -7.22631 0
      vertex -13.1446 -7.22631 -0.849999
    endloop
  endfacet
  facet normal -0.844338 -0.535811 0
    outer loop
      vertex -13.1446 -7.22631 0
      vertex -12.1353 -8.81678 -0.849999
      vertex -12.1353 -8.81678 0
    endloop
  endfacet
  facet normal -0.904837 -0.425758 0
    outer loop
      vertex -13.1446 -7.22631 -0.849999
      vertex -13.9466 -5.52187 0
      vertex -13.9466 -5.52187 -0.849999
    endloop
  endfacet
  facet normal -0.904837 -0.425758 0
    outer loop
      vertex -13.9466 -5.52187 0
      vertex -13.1446 -7.22631 -0.849999
      vertex -13.1446 -7.22631 0
    endloop
  endfacet
  facet normal 0.368104 -0.929785 0
    outer loop
      vertex 4.63525 -14.2658 -0.849999
      vertex 6.38669 -13.5724 0
      vertex 4.63525 -14.2658 0
    endloop
  endfacet
  facet normal 0.368104 -0.929785 0
    outer loop
      vertex 6.38669 -13.5724 0
      vertex 4.63525 -14.2658 -0.849999
      vertex 6.38669 -13.5724 -0.849999
    endloop
  endfacet
  facet normal 0.24871 -0.968578 0
    outer loop
      vertex 2.81072 -14.7343 -0.849999
      vertex 4.63525 -14.2658 0
      vertex 2.81072 -14.7343 0
    endloop
  endfacet
  facet normal 0.24871 -0.968578 0
    outer loop
      vertex 4.63525 -14.2658 0
      vertex 2.81072 -14.7343 -0.849999
      vertex 4.63525 -14.2658 -0.849999
    endloop
  endfacet
  facet normal 0.684557 -0.728959 0
    outer loop
      vertex 9.56136 -11.5577 -0.849999
      vertex 10.9345 -10.2682 0
      vertex 9.56136 -11.5577 0
    endloop
  endfacet
  facet normal 0.684557 -0.728959 0
    outer loop
      vertex 10.9345 -10.2682 0
      vertex 9.56136 -11.5577 -0.849999
      vertex 10.9345 -10.2682 -0.849999
    endloop
  endfacet
  facet normal 0.844338 -0.535811 0
    outer loop
      vertex 12.1353 -8.81678 0
      vertex 13.1446 -7.22631 -0.849999
      vertex 13.1446 -7.22631 0
    endloop
  endfacet
  facet normal 0.844338 -0.535811 0
    outer loop
      vertex 13.1446 -7.22631 -0.849999
      vertex 12.1353 -8.81678 0
      vertex 12.1353 -8.81678 -0.849999
    endloop
  endfacet
  facet normal -0.368104 -0.929785 0
    outer loop
      vertex -6.38669 -13.5724 -0.849999
      vertex -4.63525 -14.2658 0
      vertex -6.38669 -13.5724 0
    endloop
  endfacet
  facet normal -0.368104 -0.929785 -0
    outer loop
      vertex -4.63525 -14.2658 0
      vertex -6.38669 -13.5724 -0.849999
      vertex -4.63525 -14.2658 -0.849999
    endloop
  endfacet
  facet normal -0.125337 -0.992114 0
    outer loop
      vertex -2.81072 -14.7343 -0.849999
      vertex -0.941857 -14.9704 0
      vertex -2.81072 -14.7343 0
    endloop
  endfacet
  facet normal -0.125337 -0.992114 -0
    outer loop
      vertex -0.941857 -14.9704 0
      vertex -2.81072 -14.7343 -0.849999
      vertex -0.941857 -14.9704 -0.849999
    endloop
  endfacet
  facet normal -0.24871 -0.968578 0
    outer loop
      vertex -4.63525 -14.2658 -0.849999
      vertex -2.81072 -14.7343 0
      vertex -4.63525 -14.2658 0
    endloop
  endfacet
  facet normal -0.24871 -0.968578 -0
    outer loop
      vertex -2.81072 -14.7343 0
      vertex -4.63525 -14.2658 -0.849999
      vertex -2.81072 -14.7343 -0.849999
    endloop
  endfacet
  facet normal 0 0 -1
    outer loop
      vertex 1.35 0 -0.849999
      vertex 15 0 -0.849999
      vertex 14.8817 -1.88 -0.849999
    endloop
  endfacet
  facet normal 0 0 -1
    outer loop
      vertex 1.33935 -0.169199 -0.849999
      vertex 14.8817 -1.88 -0.849999
      vertex 14.5287 -3.73035 -0.849999
    endloop
  endfacet
  facet normal 0 0 -1
    outer loop
      vertex 15 0 -0.849999
      vertex 1.35 0 -0.849999
      vertex 14.8817 1.88 -0.849999
    endloop
  endfacet
  facet normal 0 0 -1
    outer loop
      vertex 1.30759 -0.335731 -0.849999
      vertex 14.5287 -3.73035 -0.849999
      vertex 13.9466 -5.52187 -0.849999
    endloop
  endfacet
  facet normal 0 0 -1
    outer loop
      vertex 1.33935 0.169199 -0.849999
      vertex 14.8817 1.88 -0.849999
      vertex 1.35 0 -0.849999
    endloop
  endfacet
  facet normal 0 0 -1
    outer loop
      vertex 1.2552 -0.496967 -0.849999
      vertex 13.9466 -5.52187 -0.849999
      vertex 13.1446 -7.22631 -0.849999
    endloop
  endfacet
  facet normal -0 0 -1
    outer loop
      vertex 14.8817 1.88 -0.849999
      vertex 1.33935 0.169199 -0.849999
      vertex 14.5287 3.73035 -0.849999
    endloop
  endfacet
  facet normal 0 0 -1
    outer loop
      vertex 1.18301 -0.650367 -0.849999
      vertex 13.1446 -7.22631 -0.849999
      vertex 12.1353 -8.81678 -0.849999
    endloop
  endfacet
  facet normal 0 0 -1
    outer loop
      vertex 1.30759 0.335731 -0.849999
      vertex 14.5287 3.73035 -0.849999
      vertex 1.33935 0.169199 -0.849999
    endloop
  endfacet
  facet normal 0 0 -1
    outer loop
      vertex 1.09217 -0.793509 -0.849999
      vertex 12.1353 -8.81678 -0.849999
      vertex 10.9345 -10.2682 -0.849999
    endloop
  endfacet
  facet normal -0 0 -1
    outer loop
      vertex 14.5287 3.73035 -0.849999
      vertex 1.30759 0.335731 -0.849999
      vertex 13.9466 5.52187 -0.849999
    endloop
  endfacet
  facet normal 0 0 -1
    outer loop
      vertex 0.984107 -0.924138 -0.849999
      vertex 10.9345 -10.2682 -0.849999
      vertex 9.56136 -11.5577 -0.849999
    endloop
  endfacet
  facet normal 0 0 -1
    outer loop
      vertex 1.2552 0.496967 -0.849999
      vertex 13.9466 5.52187 -0.849999
      vertex 1.30759 0.335731 -0.849999
    endloop
  endfacet
  facet normal 0 0 -1
    outer loop
      vertex 0.860522 -1.04019 -0.849999
      vertex 9.56136 -11.5577 -0.849999
      vertex 8.0374 -12.6649 -0.849999
    endloop
  endfacet
  facet normal -0 0 -1
    outer loop
      vertex 13.9466 5.52187 -0.849999
      vertex 1.2552 0.496967 -0.849999
      vertex 13.1446 7.22631 -0.849999
    endloop
  endfacet
  facet normal 0 0 -1
    outer loop
      vertex 0.723366 -1.13984 -0.849999
      vertex 8.0374 -12.6649 -0.849999
      vertex 6.38669 -13.5724 -0.849999
    endloop
  endfacet
  facet normal 0 0 -1
    outer loop
      vertex 1.18301 0.650367 -0.849999
      vertex 13.1446 7.22631 -0.849999
      vertex 1.2552 0.496967 -0.849999
    endloop
  endfacet
  facet normal 0 0 -1
    outer loop
      vertex 0.574801 -1.22152 -0.849999
      vertex 6.38669 -13.5724 -0.849999
      vertex 4.63525 -14.2658 -0.849999
    endloop
  endfacet
  facet normal -0 0 -1
    outer loop
      vertex 13.1446 7.22631 -0.849999
      vertex 1.18301 0.650367 -0.849999
      vertex 12.1353 8.81678 -0.849999
    endloop
  endfacet
  facet normal 0 0 -1
    outer loop
      vertex 0.417172 -1.28393 -0.849999
      vertex 4.63525 -14.2658 -0.849999
      vertex 2.81072 -14.7343 -0.849999
    endloop
  endfacet
  facet normal 0 0 -1
    outer loop
      vertex 1.09217 0.793509 -0.849999
      vertex 12.1353 8.81678 -0.849999
      vertex 1.18301 0.650367 -0.849999
    endloop
  endfacet
  facet normal -0 0 -1
    outer loop
      vertex 12.1353 8.81678 -0.849999
      vertex 1.09217 0.793509 -0.849999
      vertex 10.9345 10.2682 -0.849999
    endloop
  endfacet
  facet normal 0 0 -1
    outer loop
      vertex 14.8817 -1.88 -0.849999
      vertex 1.33935 -0.169199 -0.849999
      vertex 1.35 0 -0.849999
    endloop
  endfacet
  facet normal 0 0 -1
    outer loop
      vertex 14.5287 -3.73035 -0.849999
      vertex 1.30759 -0.335731 -0.849999
      vertex 1.33935 -0.169199 -0.849999
    endloop
  endfacet
  facet normal 0 0 -1
    outer loop
      vertex 13.9466 -5.52187 -0.849999
      vertex 1.2552 -0.496967 -0.849999
      vertex 1.30759 -0.335731 -0.849999
    endloop
  endfacet
  facet normal 0 0 -1
    outer loop
      vertex 13.1446 -7.22631 -0.849999
      vertex 1.18301 -0.650367 -0.849999
      vertex 1.2552 -0.496967 -0.849999
    endloop
  endfacet
  facet normal 0 0 -1
    outer loop
      vertex 12.1353 -8.81678 -0.849999
      vertex 1.09217 -0.793509 -0.849999
      vertex 1.18301 -0.650367 -0.849999
    endloop
  endfacet
  facet normal 0 0 -1
    outer loop
      vertex 10.9345 -10.2682 -0.849999
      vertex 0.984107 -0.924138 -0.849999
      vertex 1.09217 -0.793509 -0.849999
    endloop
  endfacet
  facet normal 0 0 -1
    outer loop
      vertex 0.252964 -1.32609 -0.849999
      vertex 2.81072 -14.7343 -0.849999
      vertex 0.941857 -14.9704 -0.849999
    endloop
  endfacet
  facet normal 0 0 -1
    outer loop
      vertex 9.56136 -11.5577 -0.849999
      vertex 0.860522 -1.04019 -0.849999
      vertex 0.984107 -0.924138 -0.849999
    endloop
  endfacet
  facet normal 0 0 -1
    outer loop
      vertex 8.0374 -12.6649 -0.849999
      vertex 0.723366 -1.13984 -0.849999
      vertex 0.860522 -1.04019 -0.849999
    endloop
  endfacet
  facet normal 0 0 -1
    outer loop
      vertex 6.38669 -13.5724 -0.849999
      vertex 0.574801 -1.22152 -0.849999
      vertex 0.723366 -1.13984 -0.849999
    endloop
  endfacet
  facet normal 0 0 -1
    outer loop
      vertex 4.63525 -14.2658 -0.849999
      vertex 0.417172 -1.28393 -0.849999
      vertex 0.574801 -1.22152 -0.849999
    endloop
  endfacet
  facet normal 0 0 -1
    outer loop
      vertex 2.81072 -14.7343 -0.849999
      vertex 0.252964 -1.32609 -0.849999
      vertex 0.417172 -1.28393 -0.849999
    endloop
  endfacet
  facet normal 0 0 -1
    outer loop
      vertex 0.941857 -14.9704 -0.849999
      vertex 0.0847664 -1.34734 -0.849999
      vertex 0.252964 -1.32609 -0.849999
    endloop
  endfacet
  facet normal 0 0 -1
    outer loop
      vertex 0.941857 -14.9704 -0.849999
      vertex -0.0847664 -1.34734 -0.849999
      vertex 0.0847664 -1.34734 -0.849999
    endloop
  endfacet
  facet normal 0 0 -1
    outer loop
      vertex -0.941857 -14.9704 -0.849999
      vertex -0.0847664 -1.34734 -0.849999
      vertex 0.941857 -14.9704 -0.849999
    endloop
  endfacet
  facet normal -0 0 -1
    outer loop
      vertex -0.0847664 -1.34734 -0.849999
      vertex -0.941857 -14.9704 -0.849999
      vertex -0.252964 -1.32609 -0.849999
    endloop
  endfacet
  facet normal 0 0 -1
    outer loop
      vertex -2.81072 -14.7343 -0.849999
      vertex -0.252964 -1.32609 -0.849999
      vertex -0.941857 -14.9704 -0.849999
    endloop
  endfacet
  facet normal -0 0 -1
    outer loop
      vertex -0.252964 -1.32609 -0.849999
      vertex -2.81072 -14.7343 -0.849999
      vertex -0.417172 -1.28393 -0.849999
    endloop
  endfacet
  facet normal 0 0 -1
    outer loop
      vertex -4.63525 -14.2658 -0.849999
      vertex -0.417172 -1.28393 -0.849999
      vertex -2.81072 -14.7343 -0.849999
    endloop
  endfacet
  facet normal -0 0 -1
    outer loop
      vertex -0.417172 -1.28393 -0.849999
      vertex -4.63525 -14.2658 -0.849999
      vertex -0.574801 -1.22152 -0.849999
    endloop
  endfacet
  facet normal 0 0 -1
    outer loop
      vertex -6.38669 -13.5724 -0.849999
      vertex -0.574801 -1.22152 -0.849999
      vertex -4.63525 -14.2658 -0.849999
    endloop
  endfacet
  facet normal -0 0 -1
    outer loop
      vertex -0.574801 -1.22152 -0.849999
      vertex -6.38669 -13.5724 -0.849999
      vertex -0.723366 -1.13984 -0.849999
    endloop
  endfacet
  facet normal 0 0 -1
    outer loop
      vertex -8.0374 -12.6649 -0.849999
      vertex -0.723366 -1.13984 -0.849999
      vertex -6.38669 -13.5724 -0.849999
    endloop
  endfacet
  facet normal -0 0 -1
    outer loop
      vertex -0.723366 -1.13984 -0.849999
      vertex -8.0374 -12.6649 -0.849999
      vertex -0.860522 -1.04019 -0.849999
    endloop
  endfacet
  facet normal 0 0 -1
    outer loop
      vertex -9.56136 -11.5577 -0.849999
      vertex -0.860522 -1.04019 -0.849999
      vertex -8.0374 -12.6649 -0.849999
    endloop
  endfacet
  facet normal -0 0 -1
    outer loop
      vertex -0.860522 -1.04019 -0.849999
      vertex -9.56136 -11.5577 -0.849999
      vertex -0.984107 -0.924138 -0.849999
    endloop
  endfacet
  facet normal 0 0 -1
    outer loop
      vertex -10.9345 -10.2682 -0.849999
      vertex -0.984107 -0.924138 -0.849999
      vertex -9.56136 -11.5577 -0.849999
    endloop
  endfacet
  facet normal -0 0 -1
    outer loop
      vertex -0.984107 -0.924138 -0.849999
      vertex -10.9345 -10.2682 -0.849999
      vertex -1.09217 -0.793509 -0.849999
    endloop
  endfacet
  facet normal 0 0 -1
    outer loop
      vertex 0.984107 0.924138 -0.849999
      vertex 10.9345 10.2682 -0.849999
      vertex 1.09217 0.793509 -0.849999
    endloop
  endfacet
  facet normal -0 0 -1
    outer loop
      vertex 10.9345 10.2682 -0.849999
      vertex 0.984107 0.924138 -0.849999
      vertex 9.56136 11.5577 -0.849999
    endloop
  endfacet
  facet normal 0 0 -1
    outer loop
      vertex 0.860522 1.04019 -0.849999
      vertex 9.56136 11.5577 -0.849999
      vertex 0.984107 0.924138 -0.849999
    endloop
  endfacet
  facet normal -0 0 -1
    outer loop
      vertex 9.56136 11.5577 -0.849999
      vertex 0.860522 1.04019 -0.849999
      vertex 8.0374 12.6649 -0.849999
    endloop
  endfacet
  facet normal 0 0 -1
    outer loop
      vertex 0.723366 1.13984 -0.849999
      vertex 8.0374 12.6649 -0.849999
      vertex 0.860522 1.04019 -0.849999
    endloop
  endfacet
  facet normal -0 0 -1
    outer loop
      vertex 8.0374 12.6649 -0.849999
      vertex 0.723366 1.13984 -0.849999
      vertex 6.38669 13.5724 -0.849999
    endloop
  endfacet
  facet normal 0 0 -1
    outer loop
      vertex 0.574801 1.22152 -0.849999
      vertex 6.38669 13.5724 -0.849999
      vertex 0.723366 1.13984 -0.849999
    endloop
  endfacet
  facet normal -0 0 -1
    outer loop
      vertex 6.38669 13.5724 -0.849999
      vertex 0.574801 1.22152 -0.849999
      vertex 4.63525 14.2658 -0.849999
    endloop
  endfacet
  facet normal 0 0 -1
    outer loop
      vertex 0.417172 1.28393 -0.849999
      vertex 4.63525 14.2658 -0.849999
      vertex 0.574801 1.22152 -0.849999
    endloop
  endfacet
  facet normal -0 0 -1
    outer loop
      vertex 4.63525 14.2658 -0.849999
      vertex 0.417172 1.28393 -0.849999
      vertex 2.81072 14.7343 -0.849999
    endloop
  endfacet
  facet normal 0 0 -1
    outer loop
      vertex 0.252964 1.32609 -0.849999
      vertex 2.81072 14.7343 -0.849999
      vertex 0.417172 1.28393 -0.849999
    endloop
  endfacet
  facet normal -0 0 -1
    outer loop
      vertex 2.81072 14.7343 -0.849999
      vertex 0.252964 1.32609 -0.849999
      vertex 0.941857 14.9704 -0.849999
    endloop
  endfacet
  facet normal 0 0 -1
    outer loop
      vertex 0.0847664 1.34734 -0.849999
      vertex 0.941857 14.9704 -0.849999
      vertex 0.252964 1.32609 -0.849999
    endloop
  endfacet
  facet normal 0 0 -1
    outer loop
      vertex -0.0847664 1.34734 -0.849999
      vertex 0.941857 14.9704 -0.849999
      vertex 0.0847664 1.34734 -0.849999
    endloop
  endfacet
  facet normal 0 0 -1
    outer loop
      vertex -0.941857 14.9704 -0.849999
      vertex -0.0847664 1.34734 -0.849999
      vertex -0.252964 1.32609 -0.849999
    endloop
  endfacet
  facet normal 0 0 -1
    outer loop
      vertex -2.81072 14.7343 -0.849999
      vertex -0.252964 1.32609 -0.849999
      vertex -0.417172 1.28393 -0.849999
    endloop
  endfacet
  facet normal 0 0 -1
    outer loop
      vertex -4.63525 14.2658 -0.849999
      vertex -0.417172 1.28393 -0.849999
      vertex -0.574801 1.22152 -0.849999
    endloop
  endfacet
  facet normal 0 0 -1
    outer loop
      vertex -6.38669 13.5724 -0.849999
      vertex -0.574801 1.22152 -0.849999
      vertex -0.723366 1.13984 -0.849999
    endloop
  endfacet
  facet normal 0 0 -1
    outer loop
      vertex -8.0374 12.6649 -0.849999
      vertex -0.723366 1.13984 -0.849999
      vertex -0.860522 1.04019 -0.849999
    endloop
  endfacet
  facet normal 0 0 -1
    outer loop
      vertex -0.0847664 1.34734 -0.849999
      vertex -0.941857 14.9704 -0.849999
      vertex 0.941857 14.9704 -0.849999
    endloop
  endfacet
  facet normal 0 0 -1
    outer loop
      vertex -9.56136 11.5577 -0.849999
      vertex -0.860522 1.04019 -0.849999
      vertex -0.984107 0.924138 -0.849999
    endloop
  endfacet
  facet normal 0 0 -1
    outer loop
      vertex -10.9345 10.2682 -0.849999
      vertex -0.984107 0.924138 -0.849999
      vertex -1.09217 0.793509 -0.849999
    endloop
  endfacet
  facet normal 0 0 -1
    outer loop
      vertex -12.1353 8.81678 -0.849999
      vertex -1.09217 0.793509 -0.849999
      vertex -1.18301 0.650367 -0.849999
    endloop
  endfacet
  facet normal 0 0 -1
    outer loop
      vertex -13.1446 7.22631 -0.849999
      vertex -1.18301 0.650367 -0.849999
      vertex -1.2552 0.496967 -0.849999
    endloop
  endfacet
  facet normal 0 0 -1
    outer loop
      vertex -13.9466 5.52187 -0.849999
      vertex -1.2552 0.496967 -0.849999
      vertex -1.30759 0.335731 -0.849999
    endloop
  endfacet
  facet normal 0 0 -1
    outer loop
      vertex -14.5287 3.73035 -0.849999
      vertex -1.30759 0.335731 -0.849999
      vertex -1.33935 0.169199 -0.849999
    endloop
  endfacet
  facet normal 0 0 -1
    outer loop
      vertex -14.8817 1.88 -0.849999
      vertex -1.33935 0.169199 -0.849999
      vertex -1.35 0 -0.849999
    endloop
  endfacet
  facet normal 0 0 -1
    outer loop
      vertex -12.1353 -8.81678 -0.849999
      vertex -1.09217 -0.793509 -0.849999
      vertex -10.9345 -10.2682 -0.849999
    endloop
  endfacet
  facet normal 0 0 -1
    outer loop
      vertex -0.252964 1.32609 -0.849999
      vertex -2.81072 14.7343 -0.849999
      vertex -0.941857 14.9704 -0.849999
    endloop
  endfacet
  facet normal -0 0 -1
    outer loop
      vertex -1.09217 -0.793509 -0.849999
      vertex -12.1353 -8.81678 -0.849999
      vertex -1.18301 -0.650367 -0.849999
    endloop
  endfacet
  facet normal 0 0 -1
    outer loop
      vertex -0.417172 1.28393 -0.849999
      vertex -4.63525 14.2658 -0.849999
      vertex -2.81072 14.7343 -0.849999
    endloop
  endfacet
  facet normal 0 0 -1
    outer loop
      vertex -13.1446 -7.22631 -0.849999
      vertex -1.18301 -0.650367 -0.849999
      vertex -12.1353 -8.81678 -0.849999
    endloop
  endfacet
  facet normal 0 0 -1
    outer loop
      vertex -0.574801 1.22152 -0.849999
      vertex -6.38669 13.5724 -0.849999
      vertex -4.63525 14.2658 -0.849999
    endloop
  endfacet
  facet normal -0 0 -1
    outer loop
      vertex -1.18301 -0.650367 -0.849999
      vertex -13.1446 -7.22631 -0.849999
      vertex -1.2552 -0.496967 -0.849999
    endloop
  endfacet
  facet normal 0 0 -1
    outer loop
      vertex -0.723366 1.13984 -0.849999
      vertex -8.0374 12.6649 -0.849999
      vertex -6.38669 13.5724 -0.849999
    endloop
  endfacet
  facet normal 0 0 -1
    outer loop
      vertex -13.9466 -5.52187 -0.849999
      vertex -1.2552 -0.496967 -0.849999
      vertex -13.1446 -7.22631 -0.849999
    endloop
  endfacet
  facet normal 0 0 -1
    outer loop
      vertex -0.860522 1.04019 -0.849999
      vertex -9.56136 11.5577 -0.849999
      vertex -8.0374 12.6649 -0.849999
    endloop
  endfacet
  facet normal -0 0 -1
    outer loop
      vertex -1.2552 -0.496967 -0.849999
      vertex -13.9466 -5.52187 -0.849999
      vertex -1.30759 -0.335731 -0.849999
    endloop
  endfacet
  facet normal 0 0 -1
    outer loop
      vertex -0.984107 0.924138 -0.849999
      vertex -10.9345 10.2682 -0.849999
      vertex -9.56136 11.5577 -0.849999
    endloop
  endfacet
  facet normal 0 0 -1
    outer loop
      vertex -14.5287 -3.73035 -0.849999
      vertex -1.30759 -0.335731 -0.849999
      vertex -13.9466 -5.52187 -0.849999
    endloop
  endfacet
  facet normal 0 0 -1
    outer loop
      vertex -1.09217 0.793509 -0.849999
      vertex -12.1353 8.81678 -0.849999
      vertex -10.9345 10.2682 -0.849999
    endloop
  endfacet
  facet normal -0 0 -1
    outer loop
      vertex -1.30759 -0.335731 -0.849999
      vertex -14.5287 -3.73035 -0.849999
      vertex -1.33935 -0.169199 -0.849999
    endloop
  endfacet
  facet normal 0 0 -1
    outer loop
      vertex -1.18301 0.650367 -0.849999
      vertex -13.1446 7.22631 -0.849999
      vertex -12.1353 8.81678 -0.849999
    endloop
  endfacet
  facet normal 0 0 -1
    outer loop
      vertex -14.8817 -1.88 -0.849999
      vertex -1.33935 -0.169199 -0.849999
      vertex -14.5287 -3.73035 -0.849999
    endloop
  endfacet
  facet normal 0 0 -1
    outer loop
      vertex -1.2552 0.496967 -0.849999
      vertex -13.9466 5.52187 -0.849999
      vertex -13.1446 7.22631 -0.849999
    endloop
  endfacet
  facet normal -0 0 -1
    outer loop
      vertex -1.33935 -0.169199 -0.849999
      vertex -14.8817 -1.88 -0.849999
      vertex -1.35 0 -0.849999
    endloop
  endfacet
  facet normal 0 0 -1
    outer loop
      vertex -1.30759 0.335731 -0.849999
      vertex -14.5287 3.73035 -0.849999
      vertex -13.9466 5.52187 -0.849999
    endloop
  endfacet
  facet normal 0 0 -1
    outer loop
      vertex -15 0 -0.849999
      vertex -1.35 0 -0.849999
      vertex -14.8817 -1.88 -0.849999
    endloop
  endfacet
  facet normal 0 0 -1
    outer loop
      vertex -1.33935 0.169199 -0.849999
      vertex -14.8817 1.88 -0.849999
      vertex -14.5287 3.73035 -0.849999
    endloop
  endfacet
  facet normal 0 0 -1
    outer loop
      vertex -1.35 0 -0.849999
      vertex -15 0 -0.849999
      vertex -14.8817 1.88 -0.849999
    endloop
  endfacet
  facet normal -0.770492 -0.63745 0
    outer loop
      vertex -10.9345 -10.2682 -0.849999
      vertex -12.1353 -8.81678 0
      vertex -12.1353 -8.81678 -0.849999
    endloop
  endfacet
  facet normal -0.770492 -0.63745 0
    outer loop
      vertex -12.1353 -8.81678 0
      vertex -10.9345 -10.2682 -0.849999
      vertex -10.9345 -10.2682 0
    endloop
  endfacet
  facet normal -0.684557 -0.728959 0
    outer loop
      vertex -10.9345 -10.2682 -0.849999
      vertex -9.56136 -11.5577 0
      vertex -10.9345 -10.2682 0
    endloop
  endfacet
  facet normal -0.684557 -0.728959 -0
    outer loop
      vertex -9.56136 -11.5577 0
      vertex -10.9345 -10.2682 -0.849999
      vertex -9.56136 -11.5577 -0.849999
    endloop
  endfacet
  facet normal 0.770492 -0.63745 0
    outer loop
      vertex 10.9345 -10.2682 0
      vertex 12.1353 -8.81678 -0.849999
      vertex 12.1353 -8.81678 0
    endloop
  endfacet
  facet normal 0.770492 -0.63745 0
    outer loop
      vertex 12.1353 -8.81678 -0.849999
      vertex 10.9345 -10.2682 0
      vertex 10.9345 -10.2682 -0.849999
    endloop
  endfacet
  facet normal 0.587778 -0.809022 0
    outer loop
      vertex 8.0374 -12.6649 -0.849999
      vertex 9.56136 -11.5577 0
      vertex 8.0374 -12.6649 0
    endloop
  endfacet
  facet normal 0.587778 -0.809022 0
    outer loop
      vertex 9.56136 -11.5577 0
      vertex 8.0374 -12.6649 -0.849999
      vertex 9.56136 -11.5577 -0.849999
    endloop
  endfacet
  facet normal 0.48176 -0.876303 0
    outer loop
      vertex 6.38669 -13.5724 -0.849999
      vertex 8.0374 -12.6649 0
      vertex 6.38669 -13.5724 0
    endloop
  endfacet
  facet normal 0.48176 -0.876303 0
    outer loop
      vertex 8.0374 -12.6649 0
      vertex 6.38669 -13.5724 -0.849999
      vertex 8.0374 -12.6649 -0.849999
    endloop
  endfacet
  facet normal -0.587778 -0.809022 0
    outer loop
      vertex -9.56136 -11.5577 -0.849999
      vertex -8.0374 -12.6649 0
      vertex -9.56136 -11.5577 0
    endloop
  endfacet
  facet normal -0.587778 -0.809022 -0
    outer loop
      vertex -8.0374 -12.6649 0
      vertex -9.56136 -11.5577 -0.849999
      vertex -8.0374 -12.6649 -0.849999
    endloop
  endfacet
  facet normal -0.951057 -0.309017 0
    outer loop
      vertex -13.9466 -5.52187 -0.849999
      vertex -14.5287 -3.73035 0
      vertex -14.5287 -3.73035 -0.849999
    endloop
  endfacet
  facet normal -0.951057 -0.309017 0
    outer loop
      vertex -14.5287 -3.73035 0
      vertex -13.9466 -5.52187 -0.849999
      vertex -13.9466 -5.52187 0
    endloop
  endfacet
  facet normal -0.982285 -0.187395 0
    outer loop
      vertex -14.5287 -3.73035 -0.849999
      vertex -14.8817 -1.88 0
      vertex -14.8817 -1.88 -0.849999
    endloop
  endfacet
  facet normal -0.982285 -0.187395 0
    outer loop
      vertex -14.8817 -1.88 0
      vertex -14.5287 -3.73035 -0.849999
      vertex -14.5287 -3.73035 0
    endloop
  endfacet
  facet normal -0.48176 -0.876303 0
    outer loop
      vertex -8.0374 -12.6649 -0.849999
      vertex -6.38669 -13.5724 0
      vertex -8.0374 -12.6649 0
    endloop
  endfacet
  facet normal -0.48176 -0.876303 -0
    outer loop
      vertex -6.38669 -13.5724 0
      vertex -8.0374 -12.6649 -0.849999
      vertex -6.38669 -13.5724 -0.849999
    endloop
  endfacet
endsolid OpenSCAD_Model
