solid OpenSCAD_Model
  facet normal 0 0 1
    outer loop
      vertex 3 0 0
      vertex 7 0 0
      vertex 6.9448 0.877332 0
    endloop
  endfacet
  facet normal 0 0 1
    outer loop
      vertex 2.97634 0.375999 0
      vertex 6.9448 0.877332 0
      vertex 6.78008 1.74083 0
    endloop
  endfacet
  facet normal 0 0 1
    outer loop
      vertex 7 0 0
      vertex 3 0 0
      vertex 6.9448 -0.877332 0
    endloop
  endfacet
  facet normal 0 0 1
    outer loop
      vertex 2.90575 0.746069 0
      vertex 6.78008 1.74083 0
      vertex 6.50844 2.57687 0
    endloop
  endfacet
  facet normal -0 0 1
    outer loop
      vertex 2.97634 -0.375999 0
      vertex 6.9448 -0.877332 0
      vertex 3 0 0
    endloop
  endfacet
  facet normal 0 0 1
    outer loop
      vertex 2.78933 1.10437 0
      vertex 6.50844 2.57687 0
      vertex 6.13415 3.37228 0
    endloop
  endfacet
  facet normal 0 0 1
    outer loop
      vertex 6.9448 -0.877332 0
      vertex 2.97634 -0.375999 0
      vertex 6.78008 -1.74083 0
    endloop
  endfacet
  facet normal 0 0 1
    outer loop
      vertex 2.62892 1.44526 0
      vertex 6.13415 3.37228 0
      vertex 5.66312 4.1145 0
    endloop
  endfacet
  facet normal -0 0 1
    outer loop
      vertex 2.90575 -0.746069 0
      vertex 6.78008 -1.74083 0
      vertex 2.97634 -0.375999 0
    endloop
  endfacet
  facet normal 0 0 1
    outer loop
      vertex 2.42705 1.76336 0
      vertex 5.66312 4.1145 0
      vertex 5.10278 4.79183 0
    endloop
  endfacet
  facet normal 0 0 1
    outer loop
      vertex 6.78008 -1.74083 0
      vertex 2.90575 -0.746069 0
      vertex 6.50844 -2.57687 0
    endloop
  endfacet
  facet normal 0 0 1
    outer loop
      vertex 2.18691 2.05364 0
      vertex 5.10278 4.79183 0
      vertex 4.46197 5.39359 0
    endloop
  endfacet
  facet normal -0 0 1
    outer loop
      vertex 2.78933 -1.10437 0
      vertex 6.50844 -2.57687 0
      vertex 2.90575 -0.746069 0
    endloop
  endfacet
  facet normal 0 0 1
    outer loop
      vertex 1.91227 2.31154 0
      vertex 4.46197 5.39359 0
      vertex 3.75079 5.91029 0
    endloop
  endfacet
  facet normal 0 0 1
    outer loop
      vertex 6.50844 -2.57687 0
      vertex 2.78933 -1.10437 0
      vertex 6.13415 -3.37228 0
    endloop
  endfacet
  facet normal -0 0 1
    outer loop
      vertex 2.62892 -1.44526 0
      vertex 6.13415 -3.37228 0
      vertex 2.78933 -1.10437 0
    endloop
  endfacet
  facet normal 0 0 1
    outer loop
      vertex 1.60748 2.53298 0
      vertex 3.75079 5.91029 0
      vertex 2.98045 6.33379 0
    endloop
  endfacet
  facet normal 0 0 1
    outer loop
      vertex 6.9448 0.877332 0
      vertex 2.97634 0.375999 0
      vertex 3 0 0
    endloop
  endfacet
  facet normal 0 0 1
    outer loop
      vertex 6.78008 1.74083 0
      vertex 2.90575 0.746069 0
      vertex 2.97634 0.375999 0
    endloop
  endfacet
  facet normal 0 0 1
    outer loop
      vertex 6.50844 2.57687 0
      vertex 2.78933 1.10437 0
      vertex 2.90575 0.746069 0
    endloop
  endfacet
  facet normal 0 0 1
    outer loop
      vertex 6.13415 3.37228 0
      vertex 2.62892 1.44526 0
      vertex 2.78933 1.10437 0
    endloop
  endfacet
  facet normal 0 0 1
    outer loop
      vertex 5.66312 4.1145 0
      vertex 2.42705 1.76336 0
      vertex 2.62892 1.44526 0
    endloop
  endfacet
  facet normal 0 0 1
    outer loop
      vertex 5.10278 4.79183 0
      vertex 2.18691 2.05364 0
      vertex 2.42705 1.76336 0
    endloop
  endfacet
  facet normal 0 0 1
    outer loop
      vertex 1.27734 2.71448 0
      vertex 2.98045 6.33379 0
      vertex 2.16312 6.6574 0
    endloop
  endfacet
  facet normal 0 0 1
    outer loop
      vertex 4.46197 5.39359 0
      vertex 1.91227 2.31154 0
      vertex 2.18691 2.05364 0
    endloop
  endfacet
  facet normal 0 0 1
    outer loop
      vertex 3.75079 5.91029 0
      vertex 1.60748 2.53298 0
      vertex 1.91227 2.31154 0
    endloop
  endfacet
  facet normal 0 0 1
    outer loop
      vertex 0.927051 2.85317 0
      vertex 2.16312 6.6574 0
      vertex 1.31167 6.87601 0
    endloop
  endfacet
  facet normal 0 0 1
    outer loop
      vertex 2.98045 6.33379 0
      vertex 1.27734 2.71448 0
      vertex 1.60748 2.53298 0
    endloop
  endfacet
  facet normal 0 0 1
    outer loop
      vertex 2.16312 6.6574 0
      vertex 0.927051 2.85317 0
      vertex 1.27734 2.71448 0
    endloop
  endfacet
  facet normal 0 0 1
    outer loop
      vertex 1.31167 6.87601 0
      vertex 0.562143 2.94686 0
      vertex 0.927051 2.85317 0
    endloop
  endfacet
  facet normal 0 0 1
    outer loop
      vertex 0.439533 6.98619 0
      vertex 0.562143 2.94686 0
      vertex 1.31167 6.87601 0
    endloop
  endfacet
  facet normal 0 0 1
    outer loop
      vertex 0.439533 6.98619 0
      vertex 0.188371 2.99408 0
      vertex 0.562143 2.94686 0
    endloop
  endfacet
  facet normal 0 0 1
    outer loop
      vertex 0.439533 6.98619 0
      vertex -0.188371 2.99408 0
      vertex 0.188371 2.99408 0
    endloop
  endfacet
  facet normal -0 0 1
    outer loop
      vertex -0.439533 6.98619 0
      vertex -0.188371 2.99408 0
      vertex 0.439533 6.98619 0
    endloop
  endfacet
  facet normal 0 0 1
    outer loop
      vertex -0.439533 6.98619 0
      vertex -0.562143 2.94686 0
      vertex -0.188371 2.99408 0
    endloop
  endfacet
  facet normal -0 0 1
    outer loop
      vertex -1.31167 6.87601 0
      vertex -0.562143 2.94686 0
      vertex -0.439533 6.98619 0
    endloop
  endfacet
  facet normal 0 0 1
    outer loop
      vertex -0.562143 2.94686 0
      vertex -1.31167 6.87601 0
      vertex -0.927051 2.85317 0
    endloop
  endfacet
  facet normal -0 0 1
    outer loop
      vertex -2.16312 6.6574 0
      vertex -0.927051 2.85317 0
      vertex -1.31167 6.87601 0
    endloop
  endfacet
  facet normal 0 0 1
    outer loop
      vertex -0.927051 2.85317 0
      vertex -2.16312 6.6574 0
      vertex -1.27734 2.71448 0
    endloop
  endfacet
  facet normal -0 0 1
    outer loop
      vertex -2.98045 6.33379 0
      vertex -1.27734 2.71448 0
      vertex -2.16312 6.6574 0
    endloop
  endfacet
  facet normal 0 0 1
    outer loop
      vertex -1.27734 2.71448 0
      vertex -2.98045 6.33379 0
      vertex -1.60748 2.53298 0
    endloop
  endfacet
  facet normal -0 0 1
    outer loop
      vertex -3.75079 5.91029 0
      vertex -1.60748 2.53298 0
      vertex -2.98045 6.33379 0
    endloop
  endfacet
  facet normal 0 0 1
    outer loop
      vertex -1.60748 2.53298 0
      vertex -3.75079 5.91029 0
      vertex -1.91227 2.31154 0
    endloop
  endfacet
  facet normal -0 0 1
    outer loop
      vertex -4.46197 5.39359 0
      vertex -1.91227 2.31154 0
      vertex -3.75079 5.91029 0
    endloop
  endfacet
  facet normal 0 0 1
    outer loop
      vertex -1.91227 2.31154 0
      vertex -4.46197 5.39359 0
      vertex -2.18691 2.05364 0
    endloop
  endfacet
  facet normal -0 0 1
    outer loop
      vertex -5.10278 4.79183 0
      vertex -2.18691 2.05364 0
      vertex -4.46197 5.39359 0
    endloop
  endfacet
  facet normal 0 0 1
    outer loop
      vertex -2.18691 2.05364 0
      vertex -5.10278 4.79183 0
      vertex -2.42705 1.76336 0
    endloop
  endfacet
  facet normal -0 0 1
    outer loop
      vertex -5.66312 4.1145 0
      vertex -2.42705 1.76336 0
      vertex -5.10278 4.79183 0
    endloop
  endfacet
  facet normal 0 0 1
    outer loop
      vertex -2.42705 1.76336 0
      vertex -5.66312 4.1145 0
      vertex -2.62892 1.44526 0
    endloop
  endfacet
  facet normal -0 0 1
    outer loop
      vertex -6.13415 3.37228 0
      vertex -2.62892 1.44526 0
      vertex -5.66312 4.1145 0
    endloop
  endfacet
  facet normal 0 0 1
    outer loop
      vertex 6.13415 -3.37228 0
      vertex 2.62892 -1.44526 0
      vertex 5.66312 -4.1145 0
    endloop
  endfacet
  facet normal -0 0 1
    outer loop
      vertex 2.42705 -1.76336 0
      vertex 5.66312 -4.1145 0
      vertex 2.62892 -1.44526 0
    endloop
  endfacet
  facet normal 0 0 1
    outer loop
      vertex 5.66312 -4.1145 0
      vertex 2.42705 -1.76336 0
      vertex 5.10278 -4.79183 0
    endloop
  endfacet
  facet normal -0 0 1
    outer loop
      vertex 2.18691 -2.05364 0
      vertex 5.10278 -4.79183 0
      vertex 2.42705 -1.76336 0
    endloop
  endfacet
  facet normal 0 0 1
    outer loop
      vertex 5.10278 -4.79183 0
      vertex 2.18691 -2.05364 0
      vertex 4.46197 -5.39359 0
    endloop
  endfacet
  facet normal -0 0 1
    outer loop
      vertex 1.91227 -2.31154 0
      vertex 4.46197 -5.39359 0
      vertex 2.18691 -2.05364 0
    endloop
  endfacet
  facet normal 0 0 1
    outer loop
      vertex 4.46197 -5.39359 0
      vertex 1.91227 -2.31154 0
      vertex 3.75079 -5.91029 0
    endloop
  endfacet
  facet normal -0 0 1
    outer loop
      vertex 1.60748 -2.53298 0
      vertex 3.75079 -5.91029 0
      vertex 1.91227 -2.31154 0
    endloop
  endfacet
  facet normal 0 0 1
    outer loop
      vertex 3.75079 -5.91029 0
      vertex 1.60748 -2.53298 0
      vertex 2.98045 -6.33379 0
    endloop
  endfacet
  facet normal -0 0 1
    outer loop
      vertex 1.27734 -2.71448 0
      vertex 2.98045 -6.33379 0
      vertex 1.60748 -2.53298 0
    endloop
  endfacet
  facet normal 0 0 1
    outer loop
      vertex 2.98045 -6.33379 0
      vertex 1.27734 -2.71448 0
      vertex 2.16312 -6.6574 0
    endloop
  endfacet
  facet normal -0 0 1
    outer loop
      vertex 0.927051 -2.85317 0
      vertex 2.16312 -6.6574 0
      vertex 1.27734 -2.71448 0
    endloop
  endfacet
  facet normal 0 0 1
    outer loop
      vertex 2.16312 -6.6574 0
      vertex 0.927051 -2.85317 0
      vertex 1.31167 -6.87601 0
    endloop
  endfacet
  facet normal -0 0 1
    outer loop
      vertex 0.562143 -2.94686 0
      vertex 1.31167 -6.87601 0
      vertex 0.927051 -2.85317 0
    endloop
  endfacet
  facet normal 0 0 1
    outer loop
      vertex 0.562143 -2.94686 0
      vertex 0.439533 -6.98619 0
      vertex 1.31167 -6.87601 0
    endloop
  endfacet
  facet normal -0 0 1
    outer loop
      vertex 0.188371 -2.99408 0
      vertex 0.439533 -6.98619 0
      vertex 0.562143 -2.94686 0
    endloop
  endfacet
  facet normal -0 0 1
    outer loop
      vertex -0.188371 -2.99408 0
      vertex 0.439533 -6.98619 0
      vertex 0.188371 -2.99408 0
    endloop
  endfacet
  facet normal 0 0 1
    outer loop
      vertex -0.188371 -2.99408 0
      vertex -0.439533 -6.98619 0
      vertex 0.439533 -6.98619 0
    endloop
  endfacet
  facet normal 0 0 1
    outer loop
      vertex -0.562143 -2.94686 0
      vertex -0.439533 -6.98619 0
      vertex -0.188371 -2.99408 0
    endloop
  endfacet
  facet normal 0 0 1
    outer loop
      vertex -1.31167 -6.87601 0
      vertex -0.562143 -2.94686 0
      vertex -0.927051 -2.85317 0
    endloop
  endfacet
  facet normal 0 0 1
    outer loop
      vertex -2.16312 -6.6574 0
      vertex -0.927051 -2.85317 0
      vertex -1.27734 -2.71448 0
    endloop
  endfacet
  facet normal 0 0 1
    outer loop
      vertex -0.562143 -2.94686 0
      vertex -1.31167 -6.87601 0
      vertex -0.439533 -6.98619 0
    endloop
  endfacet
  facet normal 0 0 1
    outer loop
      vertex -2.98045 -6.33379 0
      vertex -1.27734 -2.71448 0
      vertex -1.60748 -2.53298 0
    endloop
  endfacet
  facet normal 0 0 1
    outer loop
      vertex -3.75079 -5.91029 0
      vertex -1.60748 -2.53298 0
      vertex -1.91227 -2.31154 0
    endloop
  endfacet
  facet normal 0 0 1
    outer loop
      vertex -0.927051 -2.85317 0
      vertex -2.16312 -6.6574 0
      vertex -1.31167 -6.87601 0
    endloop
  endfacet
  facet normal 0 0 1
    outer loop
      vertex -4.46197 -5.39359 0
      vertex -1.91227 -2.31154 0
      vertex -2.18691 -2.05364 0
    endloop
  endfacet
  facet normal 0 0 1
    outer loop
      vertex -5.10278 -4.79183 0
      vertex -2.18691 -2.05364 0
      vertex -2.42705 -1.76336 0
    endloop
  endfacet
  facet normal 0 0 1
    outer loop
      vertex -5.66312 -4.1145 0
      vertex -2.42705 -1.76336 0
      vertex -2.62892 -1.44526 0
    endloop
  endfacet
  facet normal 0 0 1
    outer loop
      vertex -6.13415 -3.37228 0
      vertex -2.62892 -1.44526 0
      vertex -2.78933 -1.10437 0
    endloop
  endfacet
  facet normal 0 0 1
    outer loop
      vertex -6.50844 -2.57687 0
      vertex -2.78933 -1.10437 0
      vertex -2.90575 -0.746069 0
    endloop
  endfacet
  facet normal 0 0 1
    outer loop
      vertex -6.78008 -1.74083 0
      vertex -2.90575 -0.746069 0
      vertex -2.97634 -0.375999 0
    endloop
  endfacet
  facet normal 0 0 1
    outer loop
      vertex -1.27734 -2.71448 0
      vertex -2.98045 -6.33379 0
      vertex -2.16312 -6.6574 0
    endloop
  endfacet
  facet normal 0 0 1
    outer loop
      vertex -6.9448 -0.877332 0
      vertex -2.97634 -0.375999 0
      vertex -3 0 0
    endloop
  endfacet
  facet normal 0 0 1
    outer loop
      vertex -2.62892 1.44526 0
      vertex -6.13415 3.37228 0
      vertex -2.78933 1.10437 0
    endloop
  endfacet
  facet normal 0 0 1
    outer loop
      vertex -1.60748 -2.53298 0
      vertex -3.75079 -5.91029 0
      vertex -2.98045 -6.33379 0
    endloop
  endfacet
  facet normal -0 0 1
    outer loop
      vertex -6.50844 2.57687 0
      vertex -2.78933 1.10437 0
      vertex -6.13415 3.37228 0
    endloop
  endfacet
  facet normal 0 0 1
    outer loop
      vertex -1.91227 -2.31154 0
      vertex -4.46197 -5.39359 0
      vertex -3.75079 -5.91029 0
    endloop
  endfacet
  facet normal 0 0 1
    outer loop
      vertex -2.78933 1.10437 0
      vertex -6.50844 2.57687 0
      vertex -2.90575 0.746069 0
    endloop
  endfacet
  facet normal 0 0 1
    outer loop
      vertex -2.18691 -2.05364 0
      vertex -5.10278 -4.79183 0
      vertex -4.46197 -5.39359 0
    endloop
  endfacet
  facet normal -0 0 1
    outer loop
      vertex -6.78008 1.74083 0
      vertex -2.90575 0.746069 0
      vertex -6.50844 2.57687 0
    endloop
  endfacet
  facet normal 0 0 1
    outer loop
      vertex -2.42705 -1.76336 0
      vertex -5.66312 -4.1145 0
      vertex -5.10278 -4.79183 0
    endloop
  endfacet
  facet normal 0 0 1
    outer loop
      vertex -2.90575 0.746069 0
      vertex -6.78008 1.74083 0
      vertex -2.97634 0.375999 0
    endloop
  endfacet
  facet normal 0 0 1
    outer loop
      vertex -2.62892 -1.44526 0
      vertex -6.13415 -3.37228 0
      vertex -5.66312 -4.1145 0
    endloop
  endfacet
  facet normal -0 0 1
    outer loop
      vertex -6.9448 0.877332 0
      vertex -2.97634 0.375999 0
      vertex -6.78008 1.74083 0
    endloop
  endfacet
  facet normal 0 0 1
    outer loop
      vertex -2.78933 -1.10437 0
      vertex -6.50844 -2.57687 0
      vertex -6.13415 -3.37228 0
    endloop
  endfacet
  facet normal 0 0 1
    outer loop
      vertex -2.97634 0.375999 0
      vertex -6.9448 0.877332 0
      vertex -3 0 0
    endloop
  endfacet
  facet normal 0 0 1
    outer loop
      vertex -2.90575 -0.746069 0
      vertex -6.78008 -1.74083 0
      vertex -6.50844 -2.57687 0
    endloop
  endfacet
  facet normal 0 0 1
    outer loop
      vertex -7 0 0
      vertex -3 0 0
      vertex -6.9448 0.877332 0
    endloop
  endfacet
  facet normal 0 0 1
    outer loop
      vertex -2.97634 -0.375999 0
      vertex -6.9448 -0.877332 0
      vertex -6.78008 -1.74083 0
    endloop
  endfacet
  facet normal 0 0 1
    outer loop
      vertex -3 0 0
      vertex -7 0 0
      vertex -6.9448 -0.877332 0
    endloop
  endfacet
  facet normal 0 0 -1
    outer loop
      vertex 1.35 0 -3
      vertex 7 0 -3
      vertex 6.9448 -0.877332 -3
    endloop
  endfacet
  facet normal 0 0 -1
    outer loop
      vertex 1.33935 -0.169199 -3
      vertex 6.9448 -0.877332 -3
      vertex 6.78008 -1.74083 -3
    endloop
  endfacet
  facet normal 0 0 -1
    outer loop
      vertex 7 0 -3
      vertex 1.35 0 -3
      vertex 6.9448 0.877332 -3
    endloop
  endfacet
  facet normal 0 0 -1
    outer loop
      vertex 1.30759 -0.335731 -3
      vertex 6.78008 -1.74083 -3
      vertex 6.50844 -2.57687 -3
    endloop
  endfacet
  facet normal 0 0 -1
    outer loop
      vertex 1.33935 0.169199 -3
      vertex 6.9448 0.877332 -3
      vertex 1.35 0 -3
    endloop
  endfacet
  facet normal 0 0 -1
    outer loop
      vertex 1.2552 -0.496967 -3
      vertex 6.50844 -2.57687 -3
      vertex 6.13415 -3.37228 -3
    endloop
  endfacet
  facet normal -0 0 -1
    outer loop
      vertex 6.9448 0.877332 -3
      vertex 1.33935 0.169199 -3
      vertex 6.78008 1.74083 -3
    endloop
  endfacet
  facet normal 0 0 -1
    outer loop
      vertex 1.18301 -0.650367 -3
      vertex 6.13415 -3.37228 -3
      vertex 5.66312 -4.1145 -3
    endloop
  endfacet
  facet normal 0 0 -1
    outer loop
      vertex 1.30759 0.335731 -3
      vertex 6.78008 1.74083 -3
      vertex 1.33935 0.169199 -3
    endloop
  endfacet
  facet normal 0 0 -1
    outer loop
      vertex 1.09217 -0.793509 -3
      vertex 5.66312 -4.1145 -3
      vertex 5.10278 -4.79183 -3
    endloop
  endfacet
  facet normal -0 0 -1
    outer loop
      vertex 6.78008 1.74083 -3
      vertex 1.30759 0.335731 -3
      vertex 6.50844 2.57687 -3
    endloop
  endfacet
  facet normal 0 0 -1
    outer loop
      vertex 0.984107 -0.924138 -3
      vertex 5.10278 -4.79183 -3
      vertex 4.46197 -5.39359 -3
    endloop
  endfacet
  facet normal 0 0 -1
    outer loop
      vertex 1.2552 0.496967 -3
      vertex 6.50844 2.57687 -3
      vertex 1.30759 0.335731 -3
    endloop
  endfacet
  facet normal 0 0 -1
    outer loop
      vertex 0.860522 -1.04019 -3
      vertex 4.46197 -5.39359 -3
      vertex 3.75079 -5.91029 -3
    endloop
  endfacet
  facet normal -0 0 -1
    outer loop
      vertex 6.50844 2.57687 -3
      vertex 1.2552 0.496967 -3
      vertex 6.13415 3.37228 -3
    endloop
  endfacet
  facet normal 0 0 -1
    outer loop
      vertex 0.723366 -1.13984 -3
      vertex 3.75079 -5.91029 -3
      vertex 2.98045 -6.33379 -3
    endloop
  endfacet
  facet normal 0 0 -1
    outer loop
      vertex 1.18301 0.650367 -3
      vertex 6.13415 3.37228 -3
      vertex 1.2552 0.496967 -3
    endloop
  endfacet
  facet normal 0 0 -1
    outer loop
      vertex 0.574801 -1.22152 -3
      vertex 2.98045 -6.33379 -3
      vertex 2.16312 -6.6574 -3
    endloop
  endfacet
  facet normal -0 0 -1
    outer loop
      vertex 6.13415 3.37228 -3
      vertex 1.18301 0.650367 -3
      vertex 5.66312 4.1145 -3
    endloop
  endfacet
  facet normal 0 0 -1
    outer loop
      vertex 1.09217 0.793509 -3
      vertex 5.66312 4.1145 -3
      vertex 1.18301 0.650367 -3
    endloop
  endfacet
  facet normal 0 0 -1
    outer loop
      vertex 6.9448 -0.877332 -3
      vertex 1.33935 -0.169199 -3
      vertex 1.35 0 -3
    endloop
  endfacet
  facet normal 0 0 -1
    outer loop
      vertex 0.417172 -1.28393 -3
      vertex 2.16312 -6.6574 -3
      vertex 1.31167 -6.87601 -3
    endloop
  endfacet
  facet normal 0 0 -1
    outer loop
      vertex 6.78008 -1.74083 -3
      vertex 1.30759 -0.335731 -3
      vertex 1.33935 -0.169199 -3
    endloop
  endfacet
  facet normal 0 0 -1
    outer loop
      vertex 6.50844 -2.57687 -3
      vertex 1.2552 -0.496967 -3
      vertex 1.30759 -0.335731 -3
    endloop
  endfacet
  facet normal 0 0 -1
    outer loop
      vertex 6.13415 -3.37228 -3
      vertex 1.18301 -0.650367 -3
      vertex 1.2552 -0.496967 -3
    endloop
  endfacet
  facet normal 0 0 -1
    outer loop
      vertex 5.66312 -4.1145 -3
      vertex 1.09217 -0.793509 -3
      vertex 1.18301 -0.650367 -3
    endloop
  endfacet
  facet normal 0 0 -1
    outer loop
      vertex 5.10278 -4.79183 -3
      vertex 0.984107 -0.924138 -3
      vertex 1.09217 -0.793509 -3
    endloop
  endfacet
  facet normal 0 0 -1
    outer loop
      vertex 4.46197 -5.39359 -3
      vertex 0.860522 -1.04019 -3
      vertex 0.984107 -0.924138 -3
    endloop
  endfacet
  facet normal 0 0 -1
    outer loop
      vertex 3.75079 -5.91029 -3
      vertex 0.723366 -1.13984 -3
      vertex 0.860522 -1.04019 -3
    endloop
  endfacet
  facet normal 0 0 -1
    outer loop
      vertex 2.98045 -6.33379 -3
      vertex 0.574801 -1.22152 -3
      vertex 0.723366 -1.13984 -3
    endloop
  endfacet
  facet normal 0 0 -1
    outer loop
      vertex 0.252964 -1.32609 -3
      vertex 1.31167 -6.87601 -3
      vertex 0.439533 -6.98619 -3
    endloop
  endfacet
  facet normal 0 0 -1
    outer loop
      vertex 2.16312 -6.6574 -3
      vertex 0.417172 -1.28393 -3
      vertex 0.574801 -1.22152 -3
    endloop
  endfacet
  facet normal 0 0 -1
    outer loop
      vertex 1.31167 -6.87601 -3
      vertex 0.252964 -1.32609 -3
      vertex 0.417172 -1.28393 -3
    endloop
  endfacet
  facet normal 0 0 -1
    outer loop
      vertex 0.439533 -6.98619 -3
      vertex 0.0847664 -1.34734 -3
      vertex 0.252964 -1.32609 -3
    endloop
  endfacet
  facet normal 0 0 -1
    outer loop
      vertex 0.439533 -6.98619 -3
      vertex -0.0847664 -1.34734 -3
      vertex 0.0847664 -1.34734 -3
    endloop
  endfacet
  facet normal 0 0 -1
    outer loop
      vertex -0.439533 -6.98619 -3
      vertex -0.0847664 -1.34734 -3
      vertex 0.439533 -6.98619 -3
    endloop
  endfacet
  facet normal -0 0 -1
    outer loop
      vertex -0.0847664 -1.34734 -3
      vertex -0.439533 -6.98619 -3
      vertex -0.252964 -1.32609 -3
    endloop
  endfacet
  facet normal 0 0 -1
    outer loop
      vertex -1.31167 -6.87601 -3
      vertex -0.252964 -1.32609 -3
      vertex -0.439533 -6.98619 -3
    endloop
  endfacet
  facet normal -0 0 -1
    outer loop
      vertex -0.252964 -1.32609 -3
      vertex -1.31167 -6.87601 -3
      vertex -0.417172 -1.28393 -3
    endloop
  endfacet
  facet normal 0 0 -1
    outer loop
      vertex -2.16312 -6.6574 -3
      vertex -0.417172 -1.28393 -3
      vertex -1.31167 -6.87601 -3
    endloop
  endfacet
  facet normal -0 0 -1
    outer loop
      vertex -0.417172 -1.28393 -3
      vertex -2.16312 -6.6574 -3
      vertex -0.574801 -1.22152 -3
    endloop
  endfacet
  facet normal 0 0 -1
    outer loop
      vertex -2.98045 -6.33379 -3
      vertex -0.574801 -1.22152 -3
      vertex -2.16312 -6.6574 -3
    endloop
  endfacet
  facet normal -0 0 -1
    outer loop
      vertex -0.574801 -1.22152 -3
      vertex -2.98045 -6.33379 -3
      vertex -0.723366 -1.13984 -3
    endloop
  endfacet
  facet normal 0 0 -1
    outer loop
      vertex -3.75079 -5.91029 -3
      vertex -0.723366 -1.13984 -3
      vertex -2.98045 -6.33379 -3
    endloop
  endfacet
  facet normal -0 0 -1
    outer loop
      vertex -0.723366 -1.13984 -3
      vertex -3.75079 -5.91029 -3
      vertex -0.860522 -1.04019 -3
    endloop
  endfacet
  facet normal 0 0 -1
    outer loop
      vertex -4.46197 -5.39359 -3
      vertex -0.860522 -1.04019 -3
      vertex -3.75079 -5.91029 -3
    endloop
  endfacet
  facet normal -0 0 -1
    outer loop
      vertex -0.860522 -1.04019 -3
      vertex -4.46197 -5.39359 -3
      vertex -0.984107 -0.924138 -3
    endloop
  endfacet
  facet normal 0 0 -1
    outer loop
      vertex -5.10278 -4.79183 -3
      vertex -0.984107 -0.924138 -3
      vertex -4.46197 -5.39359 -3
    endloop
  endfacet
  facet normal -0 0 -1
    outer loop
      vertex -0.984107 -0.924138 -3
      vertex -5.10278 -4.79183 -3
      vertex -1.09217 -0.793509 -3
    endloop
  endfacet
  facet normal 0 0 -1
    outer loop
      vertex -5.66312 -4.1145 -3
      vertex -1.09217 -0.793509 -3
      vertex -5.10278 -4.79183 -3
    endloop
  endfacet
  facet normal -0 0 -1
    outer loop
      vertex 5.66312 4.1145 -3
      vertex 1.09217 0.793509 -3
      vertex 5.10278 4.79183 -3
    endloop
  endfacet
  facet normal 0 0 -1
    outer loop
      vertex 0.984107 0.924138 -3
      vertex 5.10278 4.79183 -3
      vertex 1.09217 0.793509 -3
    endloop
  endfacet
  facet normal -0 0 -1
    outer loop
      vertex 5.10278 4.79183 -3
      vertex 0.984107 0.924138 -3
      vertex 4.46197 5.39359 -3
    endloop
  endfacet
  facet normal 0 0 -1
    outer loop
      vertex 0.860522 1.04019 -3
      vertex 4.46197 5.39359 -3
      vertex 0.984107 0.924138 -3
    endloop
  endfacet
  facet normal -0 0 -1
    outer loop
      vertex 4.46197 5.39359 -3
      vertex 0.860522 1.04019 -3
      vertex 3.75079 5.91029 -3
    endloop
  endfacet
  facet normal 0 0 -1
    outer loop
      vertex 0.723366 1.13984 -3
      vertex 3.75079 5.91029 -3
      vertex 0.860522 1.04019 -3
    endloop
  endfacet
  facet normal -0 0 -1
    outer loop
      vertex 3.75079 5.91029 -3
      vertex 0.723366 1.13984 -3
      vertex 2.98045 6.33379 -3
    endloop
  endfacet
  facet normal 0 0 -1
    outer loop
      vertex 0.574801 1.22152 -3
      vertex 2.98045 6.33379 -3
      vertex 0.723366 1.13984 -3
    endloop
  endfacet
  facet normal -0 0 -1
    outer loop
      vertex 2.98045 6.33379 -3
      vertex 0.574801 1.22152 -3
      vertex 2.16312 6.6574 -3
    endloop
  endfacet
  facet normal 0 0 -1
    outer loop
      vertex 0.417172 1.28393 -3
      vertex 2.16312 6.6574 -3
      vertex 0.574801 1.22152 -3
    endloop
  endfacet
  facet normal -0 0 -1
    outer loop
      vertex 2.16312 6.6574 -3
      vertex 0.417172 1.28393 -3
      vertex 1.31167 6.87601 -3
    endloop
  endfacet
  facet normal 0 0 -1
    outer loop
      vertex 0.252964 1.32609 -3
      vertex 1.31167 6.87601 -3
      vertex 0.417172 1.28393 -3
    endloop
  endfacet
  facet normal -0 0 -1
    outer loop
      vertex 1.31167 6.87601 -3
      vertex 0.252964 1.32609 -3
      vertex 0.439533 6.98619 -3
    endloop
  endfacet
  facet normal 0 0 -1
    outer loop
      vertex 0.0847664 1.34734 -3
      vertex 0.439533 6.98619 -3
      vertex 0.252964 1.32609 -3
    endloop
  endfacet
  facet normal 0 0 -1
    outer loop
      vertex -0.0847664 1.34734 -3
      vertex 0.439533 6.98619 -3
      vertex 0.0847664 1.34734 -3
    endloop
  endfacet
  facet normal 0 0 -1
    outer loop
      vertex -0.439533 6.98619 -3
      vertex -0.0847664 1.34734 -3
      vertex -0.252964 1.32609 -3
    endloop
  endfacet
  facet normal 0 0 -1
    outer loop
      vertex -1.31167 6.87601 -3
      vertex -0.252964 1.32609 -3
      vertex -0.417172 1.28393 -3
    endloop
  endfacet
  facet normal 0 0 -1
    outer loop
      vertex -0.0847664 1.34734 -3
      vertex -0.439533 6.98619 -3
      vertex 0.439533 6.98619 -3
    endloop
  endfacet
  facet normal 0 0 -1
    outer loop
      vertex -2.16312 6.6574 -3
      vertex -0.417172 1.28393 -3
      vertex -0.574801 1.22152 -3
    endloop
  endfacet
  facet normal 0 0 -1
    outer loop
      vertex -2.98045 6.33379 -3
      vertex -0.574801 1.22152 -3
      vertex -0.723366 1.13984 -3
    endloop
  endfacet
  facet normal 0 0 -1
    outer loop
      vertex -3.75079 5.91029 -3
      vertex -0.723366 1.13984 -3
      vertex -0.860522 1.04019 -3
    endloop
  endfacet
  facet normal 0 0 -1
    outer loop
      vertex -4.46197 5.39359 -3
      vertex -0.860522 1.04019 -3
      vertex -0.984107 0.924138 -3
    endloop
  endfacet
  facet normal 0 0 -1
    outer loop
      vertex -5.10278 4.79183 -3
      vertex -0.984107 0.924138 -3
      vertex -1.09217 0.793509 -3
    endloop
  endfacet
  facet normal 0 0 -1
    outer loop
      vertex -5.66312 4.1145 -3
      vertex -1.09217 0.793509 -3
      vertex -1.18301 0.650367 -3
    endloop
  endfacet
  facet normal 0 0 -1
    outer loop
      vertex -6.13415 3.37228 -3
      vertex -1.18301 0.650367 -3
      vertex -1.2552 0.496967 -3
    endloop
  endfacet
  facet normal 0 0 -1
    outer loop
      vertex -6.50844 2.57687 -3
      vertex -1.2552 0.496967 -3
      vertex -1.30759 0.335731 -3
    endloop
  endfacet
  facet normal 0 0 -1
    outer loop
      vertex -0.252964 1.32609 -3
      vertex -1.31167 6.87601 -3
      vertex -0.439533 6.98619 -3
    endloop
  endfacet
  facet normal 0 0 -1
    outer loop
      vertex -6.78008 1.74083 -3
      vertex -1.30759 0.335731 -3
      vertex -1.33935 0.169199 -3
    endloop
  endfacet
  facet normal 0 0 -1
    outer loop
      vertex -6.9448 0.877332 -3
      vertex -1.33935 0.169199 -3
      vertex -1.35 0 -3
    endloop
  endfacet
  facet normal -0 0 -1
    outer loop
      vertex -1.09217 -0.793509 -3
      vertex -5.66312 -4.1145 -3
      vertex -1.18301 -0.650367 -3
    endloop
  endfacet
  facet normal 0 0 -1
    outer loop
      vertex -0.417172 1.28393 -3
      vertex -2.16312 6.6574 -3
      vertex -1.31167 6.87601 -3
    endloop
  endfacet
  facet normal 0 0 -1
    outer loop
      vertex -6.13415 -3.37228 -3
      vertex -1.18301 -0.650367 -3
      vertex -5.66312 -4.1145 -3
    endloop
  endfacet
  facet normal 0 0 -1
    outer loop
      vertex -0.574801 1.22152 -3
      vertex -2.98045 6.33379 -3
      vertex -2.16312 6.6574 -3
    endloop
  endfacet
  facet normal -0 0 -1
    outer loop
      vertex -1.18301 -0.650367 -3
      vertex -6.13415 -3.37228 -3
      vertex -1.2552 -0.496967 -3
    endloop
  endfacet
  facet normal 0 0 -1
    outer loop
      vertex -0.723366 1.13984 -3
      vertex -3.75079 5.91029 -3
      vertex -2.98045 6.33379 -3
    endloop
  endfacet
  facet normal 0 0 -1
    outer loop
      vertex -6.50844 -2.57687 -3
      vertex -1.2552 -0.496967 -3
      vertex -6.13415 -3.37228 -3
    endloop
  endfacet
  facet normal 0 0 -1
    outer loop
      vertex -0.860522 1.04019 -3
      vertex -4.46197 5.39359 -3
      vertex -3.75079 5.91029 -3
    endloop
  endfacet
  facet normal -0 0 -1
    outer loop
      vertex -1.2552 -0.496967 -3
      vertex -6.50844 -2.57687 -3
      vertex -1.30759 -0.335731 -3
    endloop
  endfacet
  facet normal 0 0 -1
    outer loop
      vertex -0.984107 0.924138 -3
      vertex -5.10278 4.79183 -3
      vertex -4.46197 5.39359 -3
    endloop
  endfacet
  facet normal 0 0 -1
    outer loop
      vertex -6.78008 -1.74083 -3
      vertex -1.30759 -0.335731 -3
      vertex -6.50844 -2.57687 -3
    endloop
  endfacet
  facet normal 0 0 -1
    outer loop
      vertex -1.09217 0.793509 -3
      vertex -5.66312 4.1145 -3
      vertex -5.10278 4.79183 -3
    endloop
  endfacet
  facet normal -0 0 -1
    outer loop
      vertex -1.30759 -0.335731 -3
      vertex -6.78008 -1.74083 -3
      vertex -1.33935 -0.169199 -3
    endloop
  endfacet
  facet normal 0 0 -1
    outer loop
      vertex -1.18301 0.650367 -3
      vertex -6.13415 3.37228 -3
      vertex -5.66312 4.1145 -3
    endloop
  endfacet
  facet normal 0 0 -1
    outer loop
      vertex -6.9448 -0.877332 -3
      vertex -1.33935 -0.169199 -3
      vertex -6.78008 -1.74083 -3
    endloop
  endfacet
  facet normal 0 0 -1
    outer loop
      vertex -1.2552 0.496967 -3
      vertex -6.50844 2.57687 -3
      vertex -6.13415 3.37228 -3
    endloop
  endfacet
  facet normal -0 0 -1
    outer loop
      vertex -1.33935 -0.169199 -3
      vertex -6.9448 -0.877332 -3
      vertex -1.35 0 -3
    endloop
  endfacet
  facet normal 0 0 -1
    outer loop
      vertex -1.30759 0.335731 -3
      vertex -6.78008 1.74083 -3
      vertex -6.50844 2.57687 -3
    endloop
  endfacet
  facet normal 0 0 -1
    outer loop
      vertex -7 0 -3
      vertex -1.35 0 -3
      vertex -6.9448 -0.877332 -3
    endloop
  endfacet
  facet normal 0 0 -1
    outer loop
      vertex -1.33935 0.169199 -3
      vertex -6.9448 0.877332 -3
      vertex -6.78008 1.74083 -3
    endloop
  endfacet
  facet normal 0 0 -1
    outer loop
      vertex -1.35 0 -3
      vertex -7 0 -3
      vertex -6.9448 0.877332 -3
    endloop
  endfacet
  facet normal -0.457766 -0.0288135 0.888606
    outer loop
      vertex 1.35 0 -0.849999
      vertex 3 0 0
      vertex 1.33935 0.169199 -0.849999
    endloop
  endfacet
  facet normal -0 0.458672 0.888606
    outer loop
      vertex -0.0847664 -1.34734 -0.849999
      vertex 0.188371 -2.99408 0
      vertex 0.0847664 -1.34734 -0.849999
    endloop
  endfacet
  facet normal 0 0.458672 0.888606
    outer loop
      vertex 0.188371 -2.99408 0
      vertex -0.0847664 -1.34734 -0.849999
      vertex -0.188371 -2.99408 0
    endloop
  endfacet
  facet normal -0.457765 0.0288052 0.888606
    outer loop
      vertex 2.97634 -0.375999 0
      vertex 3 0 0
      vertex 1.33935 -0.169199 -0.849999
    endloop
  endfacet
  facet normal 0.457766 0.0288135 0.888606
    outer loop
      vertex -1.33935 -0.169199 -0.849999
      vertex -1.35 0 -0.849999
      vertex -3 0 0
    endloop
  endfacet
  facet normal -0.0574888 -0.455055 0.888606
    outer loop
      vertex 0.562143 2.94686 0
      vertex 0.188371 2.99408 0
      vertex 0.0847664 1.34734 -0.849999
    endloop
  endfacet
  facet normal -0.415018 -0.195292 0.888606
    outer loop
      vertex 2.78933 1.10437 0
      vertex 2.62892 1.44526 0
      vertex 1.18301 0.650367 -0.849999
    endloop
  endfacet
  facet normal -0.313979 0.334359 0.888606
    outer loop
      vertex 1.91227 -2.31154 0
      vertex 2.18691 -2.05364 0
      vertex 0.860522 -1.04019 -0.849999
    endloop
  endfacet
  facet normal 0.457765 -0.0288052 0.888606
    outer loop
      vertex -1.33935 0.169199 -0.849999
      vertex -2.97634 0.375999 0
      vertex -3 0 0
    endloop
  endfacet
  facet normal 0.313979 -0.334359 0.888606
    outer loop
      vertex -0.860522 1.04019 -0.849999
      vertex -1.91227 2.31154 0
      vertex -2.18691 2.05364 0
    endloop
  endfacet
  facet normal -0.313979 -0.334359 0.888606
    outer loop
      vertex 0.984107 0.924138 -0.849999
      vertex 2.18691 2.05364 0
      vertex 0.860522 1.04019 -0.849999
    endloop
  endfacet
  facet normal -0.450548 -0.0859409 0.888606
    outer loop
      vertex 2.97634 0.375999 0
      vertex 2.90575 0.746069 0
      vertex 1.33935 0.169199 -0.849999
    endloop
  endfacet
  facet normal -0.415018 0.195292 0.888606
    outer loop
      vertex 2.62892 -1.44526 0
      vertex 2.78933 -1.10437 0
      vertex 1.18301 -0.650367 -0.849999
    endloop
  endfacet
  facet normal -0.269601 0.371073 0.888606
    outer loop
      vertex 1.60748 -2.53298 0
      vertex 0.860522 -1.04019 -0.849999
      vertex 0.723366 -1.13984 -0.849999
    endloop
  endfacet
  facet normal -0.114064 0.444263 0.888606
    outer loop
      vertex 0.562143 -2.94686 0
      vertex 0.927051 -2.85317 0
      vertex 0.417172 -1.28393 -0.849999
    endloop
  endfacet
  facet normal -0.269598 0.371074 0.888606
    outer loop
      vertex 1.60748 -2.53298 0
      vertex 1.91227 -2.31154 0
      vertex 0.860522 -1.04019 -0.849999
    endloop
  endfacet
  facet normal 0.313979 0.334359 0.888606
    outer loop
      vertex -0.860522 -1.04019 -0.849999
      vertex -0.984107 -0.924138 -0.849999
      vertex -2.18691 -2.05364 0
    endloop
  endfacet
  facet normal 0.415014 0.195305 0.888605
    outer loop
      vertex -1.18301 -0.650367 -0.849999
      vertex -1.2552 -0.496967 -0.849999
      vertex -2.78933 -1.10437 0
    endloop
  endfacet
  facet normal 0.114064 0.444263 0.888606
    outer loop
      vertex -0.562143 -2.94686 0
      vertex -0.417172 -1.28393 -0.849999
      vertex -0.927051 -2.85317 0
    endloop
  endfacet
  facet normal 0.415018 -0.195292 0.888606
    outer loop
      vertex -1.18301 0.650367 -0.849999
      vertex -2.62892 1.44526 0
      vertex -2.78933 1.10437 0
    endloop
  endfacet
  facet normal -0.114063 -0.444263 0.888606
    outer loop
      vertex 0.417172 1.28393 -0.849999
      vertex 0.562143 2.94686 0
      vertex 0.252964 1.32609 -0.849999
    endloop
  endfacet
  facet normal -0.114064 -0.444263 0.888606
    outer loop
      vertex 0.927051 2.85317 0
      vertex 0.562143 2.94686 0
      vertex 0.417172 1.28393 -0.849999
    endloop
  endfacet
  facet normal -0.38727 -0.245766 0.888606
    outer loop
      vertex 2.62892 1.44526 0
      vertex 2.42705 1.76336 0
      vertex 1.18301 0.650367 -0.849999
    endloop
  endfacet
  facet normal -0.457765 -0.0288052 0.888606
    outer loop
      vertex 3 0 0
      vertex 2.97634 0.375999 0
      vertex 1.33935 0.169199 -0.849999
    endloop
  endfacet
  facet normal -0.450548 0.0859409 0.888606
    outer loop
      vertex 2.90575 -0.746069 0
      vertex 2.97634 -0.375999 0
      vertex 1.33935 -0.169199 -0.849999
    endloop
  endfacet
  facet normal -0.450552 0.0859267 0.888605
    outer loop
      vertex 2.90575 -0.746069 0
      vertex 1.33935 -0.169199 -0.849999
      vertex 1.30759 -0.335731 -0.849999
    endloop
  endfacet
  facet normal -0.436222 0.141738 0.888606
    outer loop
      vertex 2.78933 -1.10437 0
      vertex 2.90575 -0.746069 0
      vertex 1.2552 -0.496967 -0.849999
    endloop
  endfacet
  facet normal -0.415014 0.195305 0.888605
    outer loop
      vertex 2.78933 -1.10437 0
      vertex 1.2552 -0.496967 -0.849999
      vertex 1.18301 -0.650367 -0.849999
    endloop
  endfacet
  facet normal -0.353412 0.292367 0.888607
    outer loop
      vertex 2.18691 -2.05364 0
      vertex 2.42705 -1.76336 0
      vertex 1.09217 -0.793509 -0.849999
    endloop
  endfacet
  facet normal -0.114063 0.444263 0.888606
    outer loop
      vertex 0.562143 -2.94686 0
      vertex 0.417172 -1.28393 -0.849999
      vertex 0.252964 -1.32609 -0.849999
    endloop
  endfacet
  facet normal -0.0574914 0.455055 0.888606
    outer loop
      vertex 0.562143 -2.94686 0
      vertex 0.252964 -1.32609 -0.849999
      vertex 0.0847664 -1.34734 -0.849999
    endloop
  endfacet
  facet normal -0.168849 0.426462 0.888606
    outer loop
      vertex 0.927051 -2.85317 0
      vertex 1.27734 -2.71448 0
      vertex 0.417172 -1.28393 -0.849999
    endloop
  endfacet
  facet normal -0.22097 0.401935 0.888606
    outer loop
      vertex 1.27734 -2.71448 0
      vertex 1.60748 -2.53298 0
      vertex 0.723366 -1.13984 -0.849999
    endloop
  endfacet
  facet normal 0.168849 0.426462 0.888606
    outer loop
      vertex -0.927051 -2.85317 0
      vertex -0.417172 -1.28393 -0.849999
      vertex -1.27734 -2.71448 0
    endloop
  endfacet
  facet normal 0.450548 -0.0859409 0.888606
    outer loop
      vertex -1.33935 0.169199 -0.849999
      vertex -2.90575 0.746069 0
      vertex -2.97634 0.375999 0
    endloop
  endfacet
  facet normal 0.450552 -0.0859267 0.888605
    outer loop
      vertex -1.33935 0.169199 -0.849999
      vertex -1.30759 0.335731 -0.849999
      vertex -2.90575 0.746069 0
    endloop
  endfacet
  facet normal 0.269601 -0.371073 0.888606
    outer loop
      vertex -0.860522 1.04019 -0.849999
      vertex -0.723366 1.13984 -0.849999
      vertex -1.60748 2.53298 0
    endloop
  endfacet
  facet normal 0 -0.458672 0.888606
    outer loop
      vertex 0.188371 2.99408 0
      vertex -0.0847664 1.34734 -0.849999
      vertex 0.0847664 1.34734 -0.849999
    endloop
  endfacet
  facet normal 0 -0.458672 0.888606
    outer loop
      vertex -0.0847664 1.34734 -0.849999
      vertex 0.188371 2.99408 0
      vertex -0.188371 2.99408 0
    endloop
  endfacet
  facet normal 0.22097 -0.401935 0.888606
    outer loop
      vertex -0.723366 1.13984 -0.849999
      vertex -1.27734 2.71448 0
      vertex -1.60748 2.53298 0
    endloop
  endfacet
  facet normal 0.269598 -0.371074 0.888606
    outer loop
      vertex -0.860522 1.04019 -0.849999
      vertex -1.60748 2.53298 0
      vertex -1.91227 2.31154 0
    endloop
  endfacet
  facet normal 0.436222 -0.141738 0.888606
    outer loop
      vertex -1.2552 0.496967 -0.849999
      vertex -2.78933 1.10437 0
      vertex -2.90575 0.746069 0
    endloop
  endfacet
  facet normal 0.415014 -0.195305 0.888605
    outer loop
      vertex -1.2552 0.496967 -0.849999
      vertex -1.18301 0.650367 -0.849999
      vertex -2.78933 1.10437 0
    endloop
  endfacet
  facet normal 0.353412 -0.292367 0.888607
    outer loop
      vertex -1.09217 0.793509 -0.849999
      vertex -2.18691 2.05364 0
      vertex -2.42705 1.76336 0
    endloop
  endfacet
  facet normal -0.168849 -0.426462 0.888606
    outer loop
      vertex 1.27734 2.71448 0
      vertex 0.927051 2.85317 0
      vertex 0.417172 1.28393 -0.849999
    endloop
  endfacet
  facet normal -0.0574914 -0.455055 0.888606
    outer loop
      vertex 0.252964 1.32609 -0.849999
      vertex 0.562143 2.94686 0
      vertex 0.0847664 1.34734 -0.849999
    endloop
  endfacet
  facet normal -0.220979 -0.401931 0.888605
    outer loop
      vertex 0.723366 1.13984 -0.849999
      vertex 1.27734 2.71448 0
      vertex 0.574801 1.22152 -0.849999
    endloop
  endfacet
  facet normal -0.415014 -0.195305 0.888605
    outer loop
      vertex 1.2552 0.496967 -0.849999
      vertex 2.78933 1.10437 0
      vertex 1.18301 0.650367 -0.849999
    endloop
  endfacet
  facet normal -0.457766 0.0288135 0.888606
    outer loop
      vertex 3 0 0
      vertex 1.35 0 -0.849999
      vertex 1.33935 -0.169199 -0.849999
    endloop
  endfacet
  facet normal -0.436222 0.14174 0.888606
    outer loop
      vertex 2.90575 -0.746069 0
      vertex 1.30759 -0.335731 -0.849999
      vertex 1.2552 -0.496967 -0.849999
    endloop
  endfacet
  facet normal -0.387269 0.245767 0.888606
    outer loop
      vertex 2.42705 -1.76336 0
      vertex 1.18301 -0.650367 -0.849999
      vertex 1.09217 -0.793509 -0.849999
    endloop
  endfacet
  facet normal -0.38727 0.245766 0.888606
    outer loop
      vertex 2.42705 -1.76336 0
      vertex 2.62892 -1.44526 0
      vertex 1.18301 -0.650367 -0.849999
    endloop
  endfacet
  facet normal -0.353416 0.292363 0.888606
    outer loop
      vertex 2.18691 -2.05364 0
      vertex 1.09217 -0.793509 -0.849999
      vertex 0.984107 -0.924138 -0.849999
    endloop
  endfacet
  facet normal -0.313979 0.334359 0.888606
    outer loop
      vertex 2.18691 -2.05364 0
      vertex 0.984107 -0.924138 -0.849999
      vertex 0.860522 -1.04019 -0.849999
    endloop
  endfacet
  facet normal -0.0574888 0.455055 0.888606
    outer loop
      vertex 0.188371 -2.99408 0
      vertex 0.562143 -2.94686 0
      vertex 0.0847664 -1.34734 -0.849999
    endloop
  endfacet
  facet normal 0.436222 0.141738 0.888606
    outer loop
      vertex -2.78933 -1.10437 0
      vertex -1.2552 -0.496967 -0.849999
      vertex -2.90575 -0.746069 0
    endloop
  endfacet
  facet normal 0.450552 0.0859267 0.888605
    outer loop
      vertex -1.30759 -0.335731 -0.849999
      vertex -1.33935 -0.169199 -0.849999
      vertex -2.90575 -0.746069 0
    endloop
  endfacet
  facet normal 0.353412 0.292367 0.888607
    outer loop
      vertex -2.18691 -2.05364 0
      vertex -1.09217 -0.793509 -0.849999
      vertex -2.42705 -1.76336 0
    endloop
  endfacet
  facet normal 0.387269 0.245767 0.888606
    outer loop
      vertex -1.09217 -0.793509 -0.849999
      vertex -1.18301 -0.650367 -0.849999
      vertex -2.42705 -1.76336 0
    endloop
  endfacet
  facet normal 0.269598 0.371074 0.888606
    outer loop
      vertex -1.60748 -2.53298 0
      vertex -0.860522 -1.04019 -0.849999
      vertex -1.91227 -2.31154 0
    endloop
  endfacet
  facet normal 0.313979 0.334359 0.888606
    outer loop
      vertex -1.91227 -2.31154 0
      vertex -0.860522 -1.04019 -0.849999
      vertex -2.18691 -2.05364 0
    endloop
  endfacet
  facet normal 0.168849 0.426462 0.888606
    outer loop
      vertex -0.417172 -1.28393 -0.849999
      vertex -0.574801 -1.22152 -0.849999
      vertex -1.27734 -2.71448 0
    endloop
  endfacet
  facet normal 0.0574914 0.455055 0.888606
    outer loop
      vertex -0.0847664 -1.34734 -0.849999
      vertex -0.252964 -1.32609 -0.849999
      vertex -0.562143 -2.94686 0
    endloop
  endfacet
  facet normal 0.0574888 0.455055 0.888606
    outer loop
      vertex -0.188371 -2.99408 0
      vertex -0.0847664 -1.34734 -0.849999
      vertex -0.562143 -2.94686 0
    endloop
  endfacet
  facet normal 0.114064 -0.444263 0.888606
    outer loop
      vertex -0.417172 1.28393 -0.849999
      vertex -0.562143 2.94686 0
      vertex -0.927051 2.85317 0
    endloop
  endfacet
  facet normal 0.457766 -0.0288135 0.888606
    outer loop
      vertex -1.35 0 -0.849999
      vertex -1.33935 0.169199 -0.849999
      vertex -3 0 0
    endloop
  endfacet
  facet normal 0.436222 -0.14174 0.888606
    outer loop
      vertex -1.30759 0.335731 -0.849999
      vertex -1.2552 0.496967 -0.849999
      vertex -2.90575 0.746069 0
    endloop
  endfacet
  facet normal 0.387269 -0.245767 0.888606
    outer loop
      vertex -1.18301 0.650367 -0.849999
      vertex -1.09217 0.793509 -0.849999
      vertex -2.42705 1.76336 0
    endloop
  endfacet
  facet normal 0.38727 -0.245766 0.888606
    outer loop
      vertex -1.18301 0.650367 -0.849999
      vertex -2.42705 1.76336 0
      vertex -2.62892 1.44526 0
    endloop
  endfacet
  facet normal 0.353416 -0.292363 0.888606
    outer loop
      vertex -1.09217 0.793509 -0.849999
      vertex -0.984107 0.924138 -0.849999
      vertex -2.18691 2.05364 0
    endloop
  endfacet
  facet normal 0.313979 -0.334359 0.888606
    outer loop
      vertex -0.984107 0.924138 -0.849999
      vertex -0.860522 1.04019 -0.849999
      vertex -2.18691 2.05364 0
    endloop
  endfacet
  facet normal -0.269598 -0.371074 0.888606
    outer loop
      vertex 1.91227 2.31154 0
      vertex 1.60748 2.53298 0
      vertex 0.860522 1.04019 -0.849999
    endloop
  endfacet
  facet normal -0.313979 -0.334359 0.888606
    outer loop
      vertex 2.18691 2.05364 0
      vertex 1.91227 2.31154 0
      vertex 0.860522 1.04019 -0.849999
    endloop
  endfacet
  facet normal -0.269601 -0.371073 0.888606
    outer loop
      vertex 0.860522 1.04019 -0.849999
      vertex 1.60748 2.53298 0
      vertex 0.723366 1.13984 -0.849999
    endloop
  endfacet
  facet normal -0.22097 -0.401935 0.888606
    outer loop
      vertex 1.60748 2.53298 0
      vertex 1.27734 2.71448 0
      vertex 0.723366 1.13984 -0.849999
    endloop
  endfacet
  facet normal -0.168849 -0.426462 0.888606
    outer loop
      vertex 0.574801 1.22152 -0.849999
      vertex 1.27734 2.71448 0
      vertex 0.417172 1.28393 -0.849999
    endloop
  endfacet
  facet normal -0.353412 -0.292367 0.888607
    outer loop
      vertex 2.42705 1.76336 0
      vertex 2.18691 2.05364 0
      vertex 1.09217 0.793509 -0.849999
    endloop
  endfacet
  facet normal -0.387269 -0.245767 0.888606
    outer loop
      vertex 1.18301 0.650367 -0.849999
      vertex 2.42705 1.76336 0
      vertex 1.09217 0.793509 -0.849999
    endloop
  endfacet
  facet normal -0.436222 -0.141738 0.888606
    outer loop
      vertex 2.90575 0.746069 0
      vertex 2.78933 1.10437 0
      vertex 1.2552 0.496967 -0.849999
    endloop
  endfacet
  facet normal -0.220979 0.401931 0.888605
    outer loop
      vertex 1.27734 -2.71448 0
      vertex 0.723366 -1.13984 -0.849999
      vertex 0.574801 -1.22152 -0.849999
    endloop
  endfacet
  facet normal -0.168849 0.426462 0.888606
    outer loop
      vertex 1.27734 -2.71448 0
      vertex 0.574801 -1.22152 -0.849999
      vertex 0.417172 -1.28393 -0.849999
    endloop
  endfacet
  facet normal 0.450548 0.0859409 0.888606
    outer loop
      vertex -2.90575 -0.746069 0
      vertex -1.33935 -0.169199 -0.849999
      vertex -2.97634 -0.375999 0
    endloop
  endfacet
  facet normal 0.457765 0.0288052 0.888606
    outer loop
      vertex -2.97634 -0.375999 0
      vertex -1.33935 -0.169199 -0.849999
      vertex -3 0 0
    endloop
  endfacet
  facet normal 0.38727 0.245766 0.888606
    outer loop
      vertex -2.42705 -1.76336 0
      vertex -1.18301 -0.650367 -0.849999
      vertex -2.62892 -1.44526 0
    endloop
  endfacet
  facet normal 0.415018 0.195292 0.888606
    outer loop
      vertex -2.62892 -1.44526 0
      vertex -1.18301 -0.650367 -0.849999
      vertex -2.78933 -1.10437 0
    endloop
  endfacet
  facet normal 0.22097 0.401935 0.888606
    outer loop
      vertex -1.27734 -2.71448 0
      vertex -0.723366 -1.13984 -0.849999
      vertex -1.60748 -2.53298 0
    endloop
  endfacet
  facet normal 0.269601 0.371073 0.888606
    outer loop
      vertex -0.723366 -1.13984 -0.849999
      vertex -0.860522 -1.04019 -0.849999
      vertex -1.60748 -2.53298 0
    endloop
  endfacet
  facet normal 0.114063 0.444263 0.888606
    outer loop
      vertex -0.252964 -1.32609 -0.849999
      vertex -0.417172 -1.28393 -0.849999
      vertex -0.562143 -2.94686 0
    endloop
  endfacet
  facet normal 0.0574888 -0.455055 0.888606
    outer loop
      vertex -0.0847664 1.34734 -0.849999
      vertex -0.188371 2.99408 0
      vertex -0.562143 2.94686 0
    endloop
  endfacet
  facet normal 0.114063 -0.444263 0.888606
    outer loop
      vertex -0.417172 1.28393 -0.849999
      vertex -0.252964 1.32609 -0.849999
      vertex -0.562143 2.94686 0
    endloop
  endfacet
  facet normal 0.0574914 -0.455055 0.888606
    outer loop
      vertex -0.252964 1.32609 -0.849999
      vertex -0.0847664 1.34734 -0.849999
      vertex -0.562143 2.94686 0
    endloop
  endfacet
  facet normal -0.353416 -0.292363 0.888606
    outer loop
      vertex 1.09217 0.793509 -0.849999
      vertex 2.18691 2.05364 0
      vertex 0.984107 0.924138 -0.849999
    endloop
  endfacet
  facet normal -0.436222 -0.14174 0.888606
    outer loop
      vertex 1.30759 0.335731 -0.849999
      vertex 2.90575 0.746069 0
      vertex 1.2552 0.496967 -0.849999
    endloop
  endfacet
  facet normal -0.450552 -0.0859267 0.888605
    outer loop
      vertex 1.33935 0.169199 -0.849999
      vertex 2.90575 0.746069 0
      vertex 1.30759 0.335731 -0.849999
    endloop
  endfacet
  facet normal 0.436222 0.14174 0.888606
    outer loop
      vertex -1.2552 -0.496967 -0.849999
      vertex -1.30759 -0.335731 -0.849999
      vertex -2.90575 -0.746069 0
    endloop
  endfacet
  facet normal 0.353416 0.292363 0.888606
    outer loop
      vertex -0.984107 -0.924138 -0.849999
      vertex -1.09217 -0.793509 -0.849999
      vertex -2.18691 -2.05364 0
    endloop
  endfacet
  facet normal 0.220979 0.401931 0.888605
    outer loop
      vertex -0.574801 -1.22152 -0.849999
      vertex -0.723366 -1.13984 -0.849999
      vertex -1.27734 -2.71448 0
    endloop
  endfacet
  facet normal 0.168849 -0.426462 0.888606
    outer loop
      vertex -0.417172 1.28393 -0.849999
      vertex -0.927051 2.85317 0
      vertex -1.27734 2.71448 0
    endloop
  endfacet
  facet normal 0.220979 -0.401931 0.888605
    outer loop
      vertex -0.723366 1.13984 -0.849999
      vertex -0.574801 1.22152 -0.849999
      vertex -1.27734 2.71448 0
    endloop
  endfacet
  facet normal 0.168849 -0.426462 0.888606
    outer loop
      vertex -0.574801 1.22152 -0.849999
      vertex -0.417172 1.28393 -0.849999
      vertex -1.27734 2.71448 0
    endloop
  endfacet
  facet normal -0.998025 -0.0628193 0
    outer loop
      vertex 1.35 0 -3
      vertex 1.33935 0.169199 -0.849999
      vertex 1.33935 0.169199 -3
    endloop
  endfacet
  facet normal -0.998025 -0.0628193 0
    outer loop
      vertex 1.33935 0.169199 -0.849999
      vertex 1.35 0 -3
      vertex 1.35 0 -0.849999
    endloop
  endfacet
  facet normal 0.998025 -0.0628193 0
    outer loop
      vertex -1.35 0 -0.849999
      vertex -1.33935 0.169199 -3
      vertex -1.33935 0.169199 -0.849999
    endloop
  endfacet
  facet normal 0.998025 -0.0628193 0
    outer loop
      vertex -1.33935 0.169199 -3
      vertex -1.35 0 -0.849999
      vertex -1.35 0 -3
    endloop
  endfacet
  facet normal 0 -1 0
    outer loop
      vertex -0.0847664 1.34734 -3
      vertex 0.0847664 1.34734 -0.849999
      vertex -0.0847664 1.34734 -0.849999
    endloop
  endfacet
  facet normal 0 -1 -0
    outer loop
      vertex 0.0847664 1.34734 -0.849999
      vertex -0.0847664 1.34734 -3
      vertex 0.0847664 1.34734 -3
    endloop
  endfacet
  facet normal -0.684541 -0.728975 0
    outer loop
      vertex 0.860522 1.04019 -3
      vertex 0.984107 0.924138 -0.849999
      vertex 0.860522 1.04019 -0.849999
    endloop
  endfacet
  facet normal -0.684541 -0.728975 -0
    outer loop
      vertex 0.984107 0.924138 -0.849999
      vertex 0.860522 1.04019 -3
      vertex 0.984107 0.924138 -3
    endloop
  endfacet
  facet normal 0.684541 -0.728975 0
    outer loop
      vertex -0.984107 0.924138 -3
      vertex -0.860522 1.04019 -0.849999
      vertex -0.984107 0.924138 -0.849999
    endloop
  endfacet
  facet normal 0.684541 -0.728975 0
    outer loop
      vertex -0.860522 1.04019 -0.849999
      vertex -0.984107 0.924138 -3
      vertex -0.860522 1.04019 -3
    endloop
  endfacet
  facet normal 0.368126 -0.929776 0
    outer loop
      vertex -0.574801 1.22152 -3
      vertex -0.417172 1.28393 -0.849999
      vertex -0.574801 1.22152 -0.849999
    endloop
  endfacet
  facet normal 0.368126 -0.929776 0
    outer loop
      vertex -0.417172 1.28393 -0.849999
      vertex -0.574801 1.22152 -3
      vertex -0.417172 1.28393 -3
    endloop
  endfacet
  facet normal -0.904815 -0.425806 0
    outer loop
      vertex 1.2552 0.496967 -3
      vertex 1.18301 0.650367 -0.849999
      vertex 1.18301 0.650367 -3
    endloop
  endfacet
  facet normal -0.904815 -0.425806 0
    outer loop
      vertex 1.18301 0.650367 -0.849999
      vertex 1.2552 0.496967 -3
      vertex 1.2552 0.496967 -0.849999
    endloop
  endfacet
  facet normal -0.982296 -0.187338 0
    outer loop
      vertex 1.33935 0.169199 -3
      vertex 1.30759 0.335731 -0.849999
      vertex 1.30759 0.335731 -3
    endloop
  endfacet
  facet normal -0.982296 -0.187338 0
    outer loop
      vertex 1.30759 0.335731 -0.849999
      vertex 1.33935 0.169199 -3
      vertex 1.33935 0.169199 -0.849999
    endloop
  endfacet
  facet normal -0.84433 -0.535824 0
    outer loop
      vertex 1.18301 0.650367 -3
      vertex 1.09217 0.793509 -0.849999
      vertex 1.09217 0.793509 -3
    endloop
  endfacet
  facet normal -0.84433 -0.535824 0
    outer loop
      vertex 1.09217 0.793509 -0.849999
      vertex 1.18301 0.650367 -3
      vertex 1.18301 0.650367 -0.849999
    endloop
  endfacet
  facet normal -0.368126 -0.929776 0
    outer loop
      vertex 0.417172 1.28393 -3
      vertex 0.574801 1.22152 -0.849999
      vertex 0.417172 1.28393 -0.849999
    endloop
  endfacet
  facet normal -0.368126 -0.929776 -0
    outer loop
      vertex 0.574801 1.22152 -0.849999
      vertex 0.417172 1.28393 -3
      vertex 0.574801 1.22152 -3
    endloop
  endfacet
  facet normal -0.587787 -0.809016 0
    outer loop
      vertex 0.723366 1.13984 -3
      vertex 0.860522 1.04019 -0.849999
      vertex 0.723366 1.13984 -0.849999
    endloop
  endfacet
  facet normal -0.587787 -0.809016 -0
    outer loop
      vertex 0.860522 1.04019 -0.849999
      vertex 0.723366 1.13984 -3
      vertex 0.860522 1.04019 -3
    endloop
  endfacet
  facet normal 0.904815 -0.425806 0
    outer loop
      vertex -1.2552 0.496967 -0.849999
      vertex -1.18301 0.650367 -3
      vertex -1.18301 0.650367 -0.849999
    endloop
  endfacet
  facet normal 0.904815 -0.425806 0
    outer loop
      vertex -1.18301 0.650367 -3
      vertex -1.2552 0.496967 -0.849999
      vertex -1.2552 0.496967 -3
    endloop
  endfacet
  facet normal 0.84433 -0.535824 0
    outer loop
      vertex -1.18301 0.650367 -0.849999
      vertex -1.09217 0.793509 -3
      vertex -1.09217 0.793509 -0.849999
    endloop
  endfacet
  facet normal 0.84433 -0.535824 0
    outer loop
      vertex -1.09217 0.793509 -3
      vertex -1.18301 0.650367 -0.849999
      vertex -1.18301 0.650367 -3
    endloop
  endfacet
  facet normal 0.982296 -0.187338 0
    outer loop
      vertex -1.33935 0.169199 -0.849999
      vertex -1.30759 0.335731 -3
      vertex -1.30759 0.335731 -0.849999
    endloop
  endfacet
  facet normal 0.982296 -0.187338 0
    outer loop
      vertex -1.30759 0.335731 -3
      vertex -1.33935 0.169199 -0.849999
      vertex -1.33935 0.169199 -3
    endloop
  endfacet
  facet normal 0.587787 -0.809016 0
    outer loop
      vertex -0.860522 1.04019 -3
      vertex -0.723366 1.13984 -0.849999
      vertex -0.860522 1.04019 -0.849999
    endloop
  endfacet
  facet normal 0.587787 -0.809016 0
    outer loop
      vertex -0.723366 1.13984 -0.849999
      vertex -0.860522 1.04019 -3
      vertex -0.723366 1.13984 -3
    endloop
  endfacet
  facet normal 0.125343 -0.992113 0
    outer loop
      vertex -0.252964 1.32609 -3
      vertex -0.0847664 1.34734 -0.849999
      vertex -0.252964 1.32609 -0.849999
    endloop
  endfacet
  facet normal 0.125343 -0.992113 0
    outer loop
      vertex -0.0847664 1.34734 -0.849999
      vertex -0.252964 1.32609 -3
      vertex -0.0847664 1.34734 -3
    endloop
  endfacet
  facet normal 0.248682 0.968585 -0
    outer loop
      vertex -0.252964 -1.32609 -3
      vertex -0.417172 -1.28393 -0.849999
      vertex -0.252964 -1.32609 -0.849999
    endloop
  endfacet
  facet normal 0.248682 0.968585 0
    outer loop
      vertex -0.417172 -1.28393 -0.849999
      vertex -0.252964 -1.32609 -3
      vertex -0.417172 -1.28393 -3
    endloop
  endfacet
  facet normal 0.904815 0.425806 0
    outer loop
      vertex -1.18301 -0.650367 -0.849999
      vertex -1.2552 -0.496967 -3
      vertex -1.2552 -0.496967 -0.849999
    endloop
  endfacet
  facet normal 0.904815 0.425806 0
    outer loop
      vertex -1.2552 -0.496967 -3
      vertex -1.18301 -0.650367 -0.849999
      vertex -1.18301 -0.650367 -3
    endloop
  endfacet
  facet normal -0.125343 0.992113 0
    outer loop
      vertex 0.252964 -1.32609 -3
      vertex 0.0847664 -1.34734 -0.849999
      vertex 0.252964 -1.32609 -0.849999
    endloop
  endfacet
  facet normal -0.125343 0.992113 0
    outer loop
      vertex 0.0847664 -1.34734 -0.849999
      vertex 0.252964 -1.32609 -3
      vertex 0.0847664 -1.34734 -3
    endloop
  endfacet
  facet normal -0.951054 -0.309024 0
    outer loop
      vertex 1.30759 0.335731 -3
      vertex 1.2552 0.496967 -0.849999
      vertex 1.2552 0.496967 -3
    endloop
  endfacet
  facet normal -0.951054 -0.309024 0
    outer loop
      vertex 1.2552 0.496967 -0.849999
      vertex 1.30759 0.335731 -3
      vertex 1.30759 0.335731 -0.849999
    endloop
  endfacet
  facet normal -0.770521 -0.637415 0
    outer loop
      vertex 1.09217 0.793509 -3
      vertex 0.984107 0.924138 -0.849999
      vertex 0.984107 0.924138 -3
    endloop
  endfacet
  facet normal -0.770521 -0.637415 0
    outer loop
      vertex 0.984107 0.924138 -0.849999
      vertex 1.09217 0.793509 -3
      vertex 1.09217 0.793509 -0.849999
    endloop
  endfacet
  facet normal -0.248682 -0.968585 0
    outer loop
      vertex 0.252964 1.32609 -3
      vertex 0.417172 1.28393 -0.849999
      vertex 0.252964 1.32609 -0.849999
    endloop
  endfacet
  facet normal -0.248682 -0.968585 -0
    outer loop
      vertex 0.417172 1.28393 -0.849999
      vertex 0.252964 1.32609 -3
      vertex 0.417172 1.28393 -3
    endloop
  endfacet
  facet normal -0.125343 -0.992113 0
    outer loop
      vertex 0.0847664 1.34734 -3
      vertex 0.252964 1.32609 -0.849999
      vertex 0.0847664 1.34734 -0.849999
    endloop
  endfacet
  facet normal -0.125343 -0.992113 -0
    outer loop
      vertex 0.252964 1.32609 -0.849999
      vertex 0.0847664 1.34734 -3
      vertex 0.252964 1.32609 -3
    endloop
  endfacet
  facet normal -0.481779 -0.876292 0
    outer loop
      vertex 0.574801 1.22152 -3
      vertex 0.723366 1.13984 -0.849999
      vertex 0.574801 1.22152 -0.849999
    endloop
  endfacet
  facet normal -0.481779 -0.876292 -0
    outer loop
      vertex 0.723366 1.13984 -0.849999
      vertex 0.574801 1.22152 -3
      vertex 0.723366 1.13984 -3
    endloop
  endfacet
  facet normal 0.770521 -0.637415 0
    outer loop
      vertex -1.09217 0.793509 -0.849999
      vertex -0.984107 0.924138 -3
      vertex -0.984107 0.924138 -0.849999
    endloop
  endfacet
  facet normal 0.770521 -0.637415 0
    outer loop
      vertex -0.984107 0.924138 -3
      vertex -1.09217 0.793509 -0.849999
      vertex -1.09217 0.793509 -3
    endloop
  endfacet
  facet normal 0.951054 -0.309024 0
    outer loop
      vertex -1.30759 0.335731 -0.849999
      vertex -1.2552 0.496967 -3
      vertex -1.2552 0.496967 -0.849999
    endloop
  endfacet
  facet normal 0.951054 -0.309024 0
    outer loop
      vertex -1.2552 0.496967 -3
      vertex -1.30759 0.335731 -0.849999
      vertex -1.30759 0.335731 -3
    endloop
  endfacet
  facet normal 0.481779 -0.876292 0
    outer loop
      vertex -0.723366 1.13984 -3
      vertex -0.574801 1.22152 -0.849999
      vertex -0.723366 1.13984 -0.849999
    endloop
  endfacet
  facet normal 0.481779 -0.876292 0
    outer loop
      vertex -0.574801 1.22152 -0.849999
      vertex -0.723366 1.13984 -3
      vertex -0.574801 1.22152 -3
    endloop
  endfacet
  facet normal 0.248682 -0.968585 0
    outer loop
      vertex -0.417172 1.28393 -3
      vertex -0.252964 1.32609 -0.849999
      vertex -0.417172 1.28393 -0.849999
    endloop
  endfacet
  facet normal 0.248682 -0.968585 0
    outer loop
      vertex -0.252964 1.32609 -0.849999
      vertex -0.417172 1.28393 -3
      vertex -0.252964 1.32609 -3
    endloop
  endfacet
  facet normal -0.998025 0.0628193 0
    outer loop
      vertex 1.33935 -0.169199 -3
      vertex 1.35 0 -0.849999
      vertex 1.35 0 -3
    endloop
  endfacet
  facet normal -0.998025 0.0628193 0
    outer loop
      vertex 1.35 0 -0.849999
      vertex 1.33935 -0.169199 -3
      vertex 1.33935 -0.169199 -0.849999
    endloop
  endfacet
  facet normal -0.587787 0.809016 0
    outer loop
      vertex 0.860522 -1.04019 -3
      vertex 0.723366 -1.13984 -0.849999
      vertex 0.860522 -1.04019 -0.849999
    endloop
  endfacet
  facet normal -0.587787 0.809016 0
    outer loop
      vertex 0.723366 -1.13984 -0.849999
      vertex 0.860522 -1.04019 -3
      vertex 0.723366 -1.13984 -3
    endloop
  endfacet
  facet normal 0.84433 0.535824 0
    outer loop
      vertex -1.09217 -0.793509 -0.849999
      vertex -1.18301 -0.650367 -3
      vertex -1.18301 -0.650367 -0.849999
    endloop
  endfacet
  facet normal 0.84433 0.535824 0
    outer loop
      vertex -1.18301 -0.650367 -3
      vertex -1.09217 -0.793509 -0.849999
      vertex -1.09217 -0.793509 -3
    endloop
  endfacet
  facet normal 0.998025 0.0628193 0
    outer loop
      vertex -1.33935 -0.169199 -0.849999
      vertex -1.35 0 -3
      vertex -1.35 0 -0.849999
    endloop
  endfacet
  facet normal 0.998025 0.0628193 0
    outer loop
      vertex -1.35 0 -3
      vertex -1.33935 -0.169199 -0.849999
      vertex -1.33935 -0.169199 -3
    endloop
  endfacet
  facet normal -0.481779 0.876292 0
    outer loop
      vertex 0.723366 -1.13984 -3
      vertex 0.574801 -1.22152 -0.849999
      vertex 0.723366 -1.13984 -0.849999
    endloop
  endfacet
  facet normal -0.481779 0.876292 0
    outer loop
      vertex 0.574801 -1.22152 -0.849999
      vertex 0.723366 -1.13984 -3
      vertex 0.574801 -1.22152 -3
    endloop
  endfacet
  facet normal -0.368126 0.929776 0
    outer loop
      vertex 0.574801 -1.22152 -3
      vertex 0.417172 -1.28393 -0.849999
      vertex 0.574801 -1.22152 -0.849999
    endloop
  endfacet
  facet normal -0.368126 0.929776 0
    outer loop
      vertex 0.417172 -1.28393 -0.849999
      vertex 0.574801 -1.22152 -3
      vertex 0.417172 -1.28393 -3
    endloop
  endfacet
  facet normal -0.951054 0.309024 0
    outer loop
      vertex 1.2552 -0.496967 -3
      vertex 1.30759 -0.335731 -0.849999
      vertex 1.30759 -0.335731 -3
    endloop
  endfacet
  facet normal -0.951054 0.309024 0
    outer loop
      vertex 1.30759 -0.335731 -0.849999
      vertex 1.2552 -0.496967 -3
      vertex 1.2552 -0.496967 -0.849999
    endloop
  endfacet
  facet normal -0.982296 0.187338 0
    outer loop
      vertex 1.30759 -0.335731 -3
      vertex 1.33935 -0.169199 -0.849999
      vertex 1.33935 -0.169199 -3
    endloop
  endfacet
  facet normal -0.982296 0.187338 0
    outer loop
      vertex 1.33935 -0.169199 -0.849999
      vertex 1.30759 -0.335731 -3
      vertex 1.30759 -0.335731 -0.849999
    endloop
  endfacet
  facet normal -0.84433 0.535824 0
    outer loop
      vertex 1.09217 -0.793509 -3
      vertex 1.18301 -0.650367 -0.849999
      vertex 1.18301 -0.650367 -3
    endloop
  endfacet
  facet normal -0.84433 0.535824 0
    outer loop
      vertex 1.18301 -0.650367 -0.849999
      vertex 1.09217 -0.793509 -3
      vertex 1.09217 -0.793509 -0.849999
    endloop
  endfacet
  facet normal -0.684541 0.728975 0
    outer loop
      vertex 0.984107 -0.924138 -3
      vertex 0.860522 -1.04019 -0.849999
      vertex 0.984107 -0.924138 -0.849999
    endloop
  endfacet
  facet normal -0.684541 0.728975 0
    outer loop
      vertex 0.860522 -1.04019 -0.849999
      vertex 0.984107 -0.924138 -3
      vertex 0.860522 -1.04019 -3
    endloop
  endfacet
  facet normal -0.904815 0.425806 0
    outer loop
      vertex 1.18301 -0.650367 -3
      vertex 1.2552 -0.496967 -0.849999
      vertex 1.2552 -0.496967 -3
    endloop
  endfacet
  facet normal -0.904815 0.425806 0
    outer loop
      vertex 1.2552 -0.496967 -0.849999
      vertex 1.18301 -0.650367 -3
      vertex 1.18301 -0.650367 -0.849999
    endloop
  endfacet
  facet normal 0 1 -0
    outer loop
      vertex 0.0847664 -1.34734 -3
      vertex -0.0847664 -1.34734 -0.849999
      vertex 0.0847664 -1.34734 -0.849999
    endloop
  endfacet
  facet normal 0 1 0
    outer loop
      vertex -0.0847664 -1.34734 -0.849999
      vertex 0.0847664 -1.34734 -3
      vertex -0.0847664 -1.34734 -3
    endloop
  endfacet
  facet normal 0.368126 0.929776 -0
    outer loop
      vertex -0.417172 -1.28393 -3
      vertex -0.574801 -1.22152 -0.849999
      vertex -0.417172 -1.28393 -0.849999
    endloop
  endfacet
  facet normal 0.368126 0.929776 0
    outer loop
      vertex -0.574801 -1.22152 -0.849999
      vertex -0.417172 -1.28393 -3
      vertex -0.574801 -1.22152 -3
    endloop
  endfacet
  facet normal 0.770521 0.637415 0
    outer loop
      vertex -0.984107 -0.924138 -0.849999
      vertex -1.09217 -0.793509 -3
      vertex -1.09217 -0.793509 -0.849999
    endloop
  endfacet
  facet normal 0.770521 0.637415 0
    outer loop
      vertex -1.09217 -0.793509 -3
      vertex -0.984107 -0.924138 -0.849999
      vertex -0.984107 -0.924138 -3
    endloop
  endfacet
  facet normal 0.125343 0.992113 -0
    outer loop
      vertex -0.0847664 -1.34734 -3
      vertex -0.252964 -1.32609 -0.849999
      vertex -0.0847664 -1.34734 -0.849999
    endloop
  endfacet
  facet normal 0.125343 0.992113 0
    outer loop
      vertex -0.252964 -1.32609 -0.849999
      vertex -0.0847664 -1.34734 -3
      vertex -0.252964 -1.32609 -3
    endloop
  endfacet
  facet normal 0.587787 0.809016 -0
    outer loop
      vertex -0.723366 -1.13984 -3
      vertex -0.860522 -1.04019 -0.849999
      vertex -0.723366 -1.13984 -0.849999
    endloop
  endfacet
  facet normal 0.587787 0.809016 0
    outer loop
      vertex -0.860522 -1.04019 -0.849999
      vertex -0.723366 -1.13984 -3
      vertex -0.860522 -1.04019 -3
    endloop
  endfacet
  facet normal 0.684541 0.728975 -0
    outer loop
      vertex -0.860522 -1.04019 -3
      vertex -0.984107 -0.924138 -0.849999
      vertex -0.860522 -1.04019 -0.849999
    endloop
  endfacet
  facet normal 0.684541 0.728975 0
    outer loop
      vertex -0.984107 -0.924138 -0.849999
      vertex -0.860522 -1.04019 -3
      vertex -0.984107 -0.924138 -3
    endloop
  endfacet
  facet normal 0.951054 0.309024 0
    outer loop
      vertex -1.2552 -0.496967 -0.849999
      vertex -1.30759 -0.335731 -3
      vertex -1.30759 -0.335731 -0.849999
    endloop
  endfacet
  facet normal 0.951054 0.309024 0
    outer loop
      vertex -1.30759 -0.335731 -3
      vertex -1.2552 -0.496967 -0.849999
      vertex -1.2552 -0.496967 -3
    endloop
  endfacet
  facet normal 0.982296 0.187338 0
    outer loop
      vertex -1.30759 -0.335731 -0.849999
      vertex -1.33935 -0.169199 -3
      vertex -1.33935 -0.169199 -0.849999
    endloop
  endfacet
  facet normal 0.982296 0.187338 0
    outer loop
      vertex -1.33935 -0.169199 -3
      vertex -1.30759 -0.335731 -0.849999
      vertex -1.30759 -0.335731 -3
    endloop
  endfacet
  facet normal -0.248682 0.968585 0
    outer loop
      vertex 0.417172 -1.28393 -3
      vertex 0.252964 -1.32609 -0.849999
      vertex 0.417172 -1.28393 -0.849999
    endloop
  endfacet
  facet normal -0.248682 0.968585 0
    outer loop
      vertex 0.252964 -1.32609 -0.849999
      vertex 0.417172 -1.28393 -3
      vertex 0.252964 -1.32609 -3
    endloop
  endfacet
  facet normal -0.770521 0.637415 0
    outer loop
      vertex 0.984107 -0.924138 -3
      vertex 1.09217 -0.793509 -0.849999
      vertex 1.09217 -0.793509 -3
    endloop
  endfacet
  facet normal -0.770521 0.637415 0
    outer loop
      vertex 1.09217 -0.793509 -0.849999
      vertex 0.984107 -0.924138 -3
      vertex 0.984107 -0.924138 -0.849999
    endloop
  endfacet
  facet normal 0.481779 0.876292 -0
    outer loop
      vertex -0.574801 -1.22152 -3
      vertex -0.723366 -1.13984 -0.849999
      vertex -0.574801 -1.22152 -0.849999
    endloop
  endfacet
  facet normal 0.481779 0.876292 0
    outer loop
      vertex -0.723366 -1.13984 -0.849999
      vertex -0.574801 -1.22152 -3
      vertex -0.723366 -1.13984 -3
    endloop
  endfacet
  facet normal 0.998027 0.0627939 0
    outer loop
      vertex 7 0 0
      vertex 6.9448 0.877332 -3
      vertex 6.9448 0.877332 0
    endloop
  endfacet
  facet normal 0.998027 0.0627939 0
    outer loop
      vertex 6.9448 0.877332 -3
      vertex 7 0 0
      vertex 7 0 -3
    endloop
  endfacet
  facet normal -0.998027 0.0627939 0
    outer loop
      vertex -7 0 -3
      vertex -6.9448 0.877332 0
      vertex -6.9448 0.877332 -3
    endloop
  endfacet
  facet normal -0.998027 0.0627939 0
    outer loop
      vertex -6.9448 0.877332 0
      vertex -7 0 -3
      vertex -7 0 0
    endloop
  endfacet
  facet normal 0 1 -0
    outer loop
      vertex 0.439533 6.98619 -3
      vertex -0.439533 6.98619 0
      vertex 0.439533 6.98619 0
    endloop
  endfacet
  facet normal 0 1 0
    outer loop
      vertex -0.439533 6.98619 0
      vertex 0.439533 6.98619 -3
      vertex -0.439533 6.98619 -3
    endloop
  endfacet
  facet normal 0.684547 0.728969 -0
    outer loop
      vertex 5.10278 4.79183 -3
      vertex 4.46197 5.39359 0
      vertex 5.10278 4.79183 0
    endloop
  endfacet
  facet normal 0.684547 0.728969 0
    outer loop
      vertex 4.46197 5.39359 0
      vertex 5.10278 4.79183 -3
      vertex 4.46197 5.39359 -3
    endloop
  endfacet
  facet normal -0.684547 0.728969 0
    outer loop
      vertex -4.46197 5.39359 -3
      vertex -5.10278 4.79183 0
      vertex -4.46197 5.39359 0
    endloop
  endfacet
  facet normal -0.684547 0.728969 0
    outer loop
      vertex -5.10278 4.79183 0
      vertex -4.46197 5.39359 -3
      vertex -5.10278 4.79183 -3
    endloop
  endfacet
  facet normal -0.368131 0.929774 0
    outer loop
      vertex -2.16312 6.6574 -3
      vertex -2.98045 6.33379 0
      vertex -2.16312 6.6574 0
    endloop
  endfacet
  facet normal -0.368131 0.929774 0
    outer loop
      vertex -2.98045 6.33379 0
      vertex -2.16312 6.6574 -3
      vertex -2.98045 6.33379 -3
    endloop
  endfacet
  facet normal 0.770511 -0.637427 0
    outer loop
      vertex 5.10278 -4.79183 0
      vertex 5.66312 -4.1145 -3
      vertex 5.66312 -4.1145 0
    endloop
  endfacet
  facet normal 0.770511 -0.637427 0
    outer loop
      vertex 5.66312 -4.1145 -3
      vertex 5.10278 -4.79183 0
      vertex 5.10278 -4.79183 -3
    endloop
  endfacet
  facet normal 0.904828 0.425778 0
    outer loop
      vertex 6.50844 2.57687 0
      vertex 6.13415 3.37228 -3
      vertex 6.13415 3.37228 0
    endloop
  endfacet
  facet normal 0.904828 0.425778 0
    outer loop
      vertex 6.13415 3.37228 -3
      vertex 6.50844 2.57687 0
      vertex 6.50844 2.57687 -3
    endloop
  endfacet
  facet normal 0.982287 0.18738 0
    outer loop
      vertex 6.9448 0.877332 0
      vertex 6.78008 1.74083 -3
      vertex 6.78008 1.74083 0
    endloop
  endfacet
  facet normal 0.982287 0.18738 0
    outer loop
      vertex 6.78008 1.74083 -3
      vertex 6.9448 0.877332 0
      vertex 6.9448 0.877332 -3
    endloop
  endfacet
  facet normal 0.368131 0.929774 -0
    outer loop
      vertex 2.98045 6.33379 -3
      vertex 2.16312 6.6574 0
      vertex 2.98045 6.33379 0
    endloop
  endfacet
  facet normal 0.368131 0.929774 0
    outer loop
      vertex 2.16312 6.6574 0
      vertex 2.98045 6.33379 -3
      vertex 2.16312 6.6574 -3
    endloop
  endfacet
  facet normal 0.587783 0.809018 -0
    outer loop
      vertex 4.46197 5.39359 -3
      vertex 3.75079 5.91029 0
      vertex 4.46197 5.39359 0
    endloop
  endfacet
  facet normal 0.587783 0.809018 0
    outer loop
      vertex 3.75079 5.91029 0
      vertex 4.46197 5.39359 -3
      vertex 3.75079 5.91029 -3
    endloop
  endfacet
  facet normal -0.904828 0.425778 0
    outer loop
      vertex -6.50844 2.57687 -3
      vertex -6.13415 3.37228 0
      vertex -6.13415 3.37228 -3
    endloop
  endfacet
  facet normal -0.904828 0.425778 0
    outer loop
      vertex -6.13415 3.37228 0
      vertex -6.50844 2.57687 -3
      vertex -6.50844 2.57687 0
    endloop
  endfacet
  facet normal -0.844326 0.535829 0
    outer loop
      vertex -6.13415 3.37228 -3
      vertex -5.66312 4.1145 0
      vertex -5.66312 4.1145 -3
    endloop
  endfacet
  facet normal -0.844326 0.535829 0
    outer loop
      vertex -5.66312 4.1145 0
      vertex -6.13415 3.37228 -3
      vertex -6.13415 3.37228 0
    endloop
  endfacet
  facet normal -0.951058 0.309011 0
    outer loop
      vertex -6.78008 1.74083 -3
      vertex -6.50844 2.57687 0
      vertex -6.50844 2.57687 -3
    endloop
  endfacet
  facet normal -0.951058 0.309011 0
    outer loop
      vertex -6.50844 2.57687 0
      vertex -6.78008 1.74083 -3
      vertex -6.78008 1.74083 0
    endloop
  endfacet
  facet normal -0.587783 0.809018 0
    outer loop
      vertex -3.75079 5.91029 -3
      vertex -4.46197 5.39359 0
      vertex -3.75079 5.91029 0
    endloop
  endfacet
  facet normal -0.587783 0.809018 0
    outer loop
      vertex -4.46197 5.39359 0
      vertex -3.75079 5.91029 -3
      vertex -4.46197 5.39359 -3
    endloop
  endfacet
  facet normal -0.125337 0.992114 0
    outer loop
      vertex -0.439533 6.98619 -3
      vertex -1.31167 6.87601 0
      vertex -0.439533 6.98619 0
    endloop
  endfacet
  facet normal -0.125337 0.992114 0
    outer loop
      vertex -1.31167 6.87601 0
      vertex -0.439533 6.98619 -3
      vertex -1.31167 6.87601 -3
    endloop
  endfacet
  facet normal -0.248684 -0.968585 0
    outer loop
      vertex -2.16312 -6.6574 -3
      vertex -1.31167 -6.87601 0
      vertex -2.16312 -6.6574 0
    endloop
  endfacet
  facet normal -0.248684 -0.968585 -0
    outer loop
      vertex -1.31167 -6.87601 0
      vertex -2.16312 -6.6574 -3
      vertex -1.31167 -6.87601 -3
    endloop
  endfacet
  facet normal 0.125337 -0.992114 0
    outer loop
      vertex 0.439533 -6.98619 -3
      vertex 1.31167 -6.87601 0
      vertex 0.439533 -6.98619 0
    endloop
  endfacet
  facet normal 0.125337 -0.992114 0
    outer loop
      vertex 1.31167 -6.87601 0
      vertex 0.439533 -6.98619 -3
      vertex 1.31167 -6.87601 -3
    endloop
  endfacet
  facet normal 0.951058 0.309011 0
    outer loop
      vertex 6.78008 1.74083 0
      vertex 6.50844 2.57687 -3
      vertex 6.50844 2.57687 0
    endloop
  endfacet
  facet normal 0.951058 0.309011 0
    outer loop
      vertex 6.50844 2.57687 -3
      vertex 6.78008 1.74083 0
      vertex 6.78008 1.74083 -3
    endloop
  endfacet
  facet normal 0.770511 0.637427 0
    outer loop
      vertex 5.66312 4.1145 0
      vertex 5.10278 4.79183 -3
      vertex 5.10278 4.79183 0
    endloop
  endfacet
  facet normal 0.770511 0.637427 0
    outer loop
      vertex 5.10278 4.79183 -3
      vertex 5.66312 4.1145 0
      vertex 5.66312 4.1145 -3
    endloop
  endfacet
  facet normal 0.844326 0.535829 0
    outer loop
      vertex 6.13415 3.37228 0
      vertex 5.66312 4.1145 -3
      vertex 5.66312 4.1145 0
    endloop
  endfacet
  facet normal 0.844326 0.535829 0
    outer loop
      vertex 5.66312 4.1145 -3
      vertex 6.13415 3.37228 0
      vertex 6.13415 3.37228 -3
    endloop
  endfacet
  facet normal 0.248684 0.968585 -0
    outer loop
      vertex 2.16312 6.6574 -3
      vertex 1.31167 6.87601 0
      vertex 2.16312 6.6574 0
    endloop
  endfacet
  facet normal 0.248684 0.968585 0
    outer loop
      vertex 1.31167 6.87601 0
      vertex 2.16312 6.6574 -3
      vertex 1.31167 6.87601 -3
    endloop
  endfacet
  facet normal 0.125337 0.992114 -0
    outer loop
      vertex 1.31167 6.87601 -3
      vertex 0.439533 6.98619 0
      vertex 1.31167 6.87601 0
    endloop
  endfacet
  facet normal 0.125337 0.992114 0
    outer loop
      vertex 0.439533 6.98619 0
      vertex 1.31167 6.87601 -3
      vertex 0.439533 6.98619 -3
    endloop
  endfacet
  facet normal 0.481755 0.876306 -0
    outer loop
      vertex 3.75079 5.91029 -3
      vertex 2.98045 6.33379 0
      vertex 3.75079 5.91029 0
    endloop
  endfacet
  facet normal 0.481755 0.876306 0
    outer loop
      vertex 2.98045 6.33379 0
      vertex 3.75079 5.91029 -3
      vertex 2.98045 6.33379 -3
    endloop
  endfacet
  facet normal -0.248684 0.968585 0
    outer loop
      vertex -1.31167 6.87601 -3
      vertex -2.16312 6.6574 0
      vertex -1.31167 6.87601 0
    endloop
  endfacet
  facet normal -0.248684 0.968585 0
    outer loop
      vertex -2.16312 6.6574 0
      vertex -1.31167 6.87601 -3
      vertex -2.16312 6.6574 -3
    endloop
  endfacet
  facet normal 0.998027 -0.0627939 0
    outer loop
      vertex 6.9448 -0.877332 0
      vertex 7 0 -3
      vertex 7 0 0
    endloop
  endfacet
  facet normal 0.998027 -0.0627939 0
    outer loop
      vertex 7 0 -3
      vertex 6.9448 -0.877332 0
      vertex 6.9448 -0.877332 -3
    endloop
  endfacet
  facet normal 0.587783 -0.809018 0
    outer loop
      vertex 3.75079 -5.91029 -3
      vertex 4.46197 -5.39359 0
      vertex 3.75079 -5.91029 0
    endloop
  endfacet
  facet normal 0.587783 -0.809018 0
    outer loop
      vertex 4.46197 -5.39359 0
      vertex 3.75079 -5.91029 -3
      vertex 4.46197 -5.39359 -3
    endloop
  endfacet
  facet normal 0.904828 -0.425778 0
    outer loop
      vertex 6.13415 -3.37228 0
      vertex 6.50844 -2.57687 -3
      vertex 6.50844 -2.57687 0
    endloop
  endfacet
  facet normal 0.904828 -0.425778 0
    outer loop
      vertex 6.50844 -2.57687 -3
      vertex 6.13415 -3.37228 0
      vertex 6.13415 -3.37228 -3
    endloop
  endfacet
  facet normal 0.844326 -0.535829 0
    outer loop
      vertex 5.66312 -4.1145 0
      vertex 6.13415 -3.37228 -3
      vertex 6.13415 -3.37228 0
    endloop
  endfacet
  facet normal 0.844326 -0.535829 0
    outer loop
      vertex 6.13415 -3.37228 -3
      vertex 5.66312 -4.1145 0
      vertex 5.66312 -4.1145 -3
    endloop
  endfacet
  facet normal -0.904828 -0.425778 0
    outer loop
      vertex -6.13415 -3.37228 -3
      vertex -6.50844 -2.57687 0
      vertex -6.50844 -2.57687 -3
    endloop
  endfacet
  facet normal -0.904828 -0.425778 0
    outer loop
      vertex -6.50844 -2.57687 0
      vertex -6.13415 -3.37228 -3
      vertex -6.13415 -3.37228 0
    endloop
  endfacet
  facet normal -0.951058 -0.309011 0
    outer loop
      vertex -6.50844 -2.57687 -3
      vertex -6.78008 -1.74083 0
      vertex -6.78008 -1.74083 -3
    endloop
  endfacet
  facet normal -0.951058 -0.309011 0
    outer loop
      vertex -6.78008 -1.74083 0
      vertex -6.50844 -2.57687 -3
      vertex -6.50844 -2.57687 0
    endloop
  endfacet
  facet normal 0.684547 -0.728969 0
    outer loop
      vertex 4.46197 -5.39359 -3
      vertex 5.10278 -4.79183 0
      vertex 4.46197 -5.39359 0
    endloop
  endfacet
  facet normal 0.684547 -0.728969 0
    outer loop
      vertex 5.10278 -4.79183 0
      vertex 4.46197 -5.39359 -3
      vertex 5.10278 -4.79183 -3
    endloop
  endfacet
  facet normal 0.368131 -0.929774 0
    outer loop
      vertex 2.16312 -6.6574 -3
      vertex 2.98045 -6.33379 0
      vertex 2.16312 -6.6574 0
    endloop
  endfacet
  facet normal 0.368131 -0.929774 0
    outer loop
      vertex 2.98045 -6.33379 0
      vertex 2.16312 -6.6574 -3
      vertex 2.98045 -6.33379 -3
    endloop
  endfacet
  facet normal 0.248684 -0.968585 0
    outer loop
      vertex 1.31167 -6.87601 -3
      vertex 2.16312 -6.6574 0
      vertex 1.31167 -6.87601 0
    endloop
  endfacet
  facet normal 0.248684 -0.968585 0
    outer loop
      vertex 2.16312 -6.6574 0
      vertex 1.31167 -6.87601 -3
      vertex 2.16312 -6.6574 -3
    endloop
  endfacet
  facet normal -0.770511 0.637427 0
    outer loop
      vertex -5.66312 4.1145 -3
      vertex -5.10278 4.79183 0
      vertex -5.10278 4.79183 -3
    endloop
  endfacet
  facet normal -0.770511 0.637427 0
    outer loop
      vertex -5.10278 4.79183 0
      vertex -5.66312 4.1145 -3
      vertex -5.66312 4.1145 0
    endloop
  endfacet
  facet normal -0.982287 0.18738 0
    outer loop
      vertex -6.9448 0.877332 -3
      vertex -6.78008 1.74083 0
      vertex -6.78008 1.74083 -3
    endloop
  endfacet
  facet normal -0.982287 0.18738 0
    outer loop
      vertex -6.78008 1.74083 0
      vertex -6.9448 0.877332 -3
      vertex -6.9448 0.877332 0
    endloop
  endfacet
  facet normal -0.481755 0.876306 0
    outer loop
      vertex -2.98045 6.33379 -3
      vertex -3.75079 5.91029 0
      vertex -2.98045 6.33379 0
    endloop
  endfacet
  facet normal -0.481755 0.876306 0
    outer loop
      vertex -3.75079 5.91029 0
      vertex -2.98045 6.33379 -3
      vertex -3.75079 5.91029 -3
    endloop
  endfacet
  facet normal 0 -1 0
    outer loop
      vertex -0.439533 -6.98619 -3
      vertex 0.439533 -6.98619 0
      vertex -0.439533 -6.98619 0
    endloop
  endfacet
  facet normal 0 -1 -0
    outer loop
      vertex 0.439533 -6.98619 0
      vertex -0.439533 -6.98619 -3
      vertex 0.439533 -6.98619 -3
    endloop
  endfacet
  facet normal -0.998027 -0.0627939 0
    outer loop
      vertex -6.9448 -0.877332 -3
      vertex -7 0 0
      vertex -7 0 -3
    endloop
  endfacet
  facet normal -0.998027 -0.0627939 0
    outer loop
      vertex -7 0 0
      vertex -6.9448 -0.877332 -3
      vertex -6.9448 -0.877332 0
    endloop
  endfacet
  facet normal 0.481755 -0.876306 0
    outer loop
      vertex 2.98045 -6.33379 -3
      vertex 3.75079 -5.91029 0
      vertex 2.98045 -6.33379 0
    endloop
  endfacet
  facet normal 0.481755 -0.876306 0
    outer loop
      vertex 3.75079 -5.91029 0
      vertex 2.98045 -6.33379 -3
      vertex 3.75079 -5.91029 -3
    endloop
  endfacet
  facet normal 0.951058 -0.309011 0
    outer loop
      vertex 6.50844 -2.57687 0
      vertex 6.78008 -1.74083 -3
      vertex 6.78008 -1.74083 0
    endloop
  endfacet
  facet normal 0.951058 -0.309011 0
    outer loop
      vertex 6.78008 -1.74083 -3
      vertex 6.50844 -2.57687 0
      vertex 6.50844 -2.57687 -3
    endloop
  endfacet
  facet normal 0.982287 -0.18738 0
    outer loop
      vertex 6.78008 -1.74083 0
      vertex 6.9448 -0.877332 -3
      vertex 6.9448 -0.877332 0
    endloop
  endfacet
  facet normal 0.982287 -0.18738 0
    outer loop
      vertex 6.9448 -0.877332 -3
      vertex 6.78008 -1.74083 0
      vertex 6.78008 -1.74083 -3
    endloop
  endfacet
  facet normal -0.684547 -0.728969 0
    outer loop
      vertex -5.10278 -4.79183 -3
      vertex -4.46197 -5.39359 0
      vertex -5.10278 -4.79183 0
    endloop
  endfacet
  facet normal -0.684547 -0.728969 -0
    outer loop
      vertex -4.46197 -5.39359 0
      vertex -5.10278 -4.79183 -3
      vertex -4.46197 -5.39359 -3
    endloop
  endfacet
  facet normal -0.368131 -0.929774 0
    outer loop
      vertex -2.98045 -6.33379 -3
      vertex -2.16312 -6.6574 0
      vertex -2.98045 -6.33379 0
    endloop
  endfacet
  facet normal -0.368131 -0.929774 -0
    outer loop
      vertex -2.16312 -6.6574 0
      vertex -2.98045 -6.33379 -3
      vertex -2.16312 -6.6574 -3
    endloop
  endfacet
  facet normal -0.587783 -0.809018 0
    outer loop
      vertex -4.46197 -5.39359 -3
      vertex -3.75079 -5.91029 0
      vertex -4.46197 -5.39359 0
    endloop
  endfacet
  facet normal -0.587783 -0.809018 -0
    outer loop
      vertex -3.75079 -5.91029 0
      vertex -4.46197 -5.39359 -3
      vertex -3.75079 -5.91029 -3
    endloop
  endfacet
  facet normal -0.770511 -0.637427 0
    outer loop
      vertex -5.10278 -4.79183 -3
      vertex -5.66312 -4.1145 0
      vertex -5.66312 -4.1145 -3
    endloop
  endfacet
  facet normal -0.770511 -0.637427 0
    outer loop
      vertex -5.66312 -4.1145 0
      vertex -5.10278 -4.79183 -3
      vertex -5.10278 -4.79183 0
    endloop
  endfacet
  facet normal -0.844326 -0.535829 0
    outer loop
      vertex -5.66312 -4.1145 -3
      vertex -6.13415 -3.37228 0
      vertex -6.13415 -3.37228 -3
    endloop
  endfacet
  facet normal -0.844326 -0.535829 0
    outer loop
      vertex -6.13415 -3.37228 0
      vertex -5.66312 -4.1145 -3
      vertex -5.66312 -4.1145 0
    endloop
  endfacet
  facet normal -0.982287 -0.18738 0
    outer loop
      vertex -6.78008 -1.74083 -3
      vertex -6.9448 -0.877332 0
      vertex -6.9448 -0.877332 -3
    endloop
  endfacet
  facet normal -0.982287 -0.18738 0
    outer loop
      vertex -6.9448 -0.877332 0
      vertex -6.78008 -1.74083 -3
      vertex -6.78008 -1.74083 0
    endloop
  endfacet
  facet normal -0.125337 -0.992114 0
    outer loop
      vertex -1.31167 -6.87601 -3
      vertex -0.439533 -6.98619 0
      vertex -1.31167 -6.87601 0
    endloop
  endfacet
  facet normal -0.125337 -0.992114 -0
    outer loop
      vertex -0.439533 -6.98619 0
      vertex -1.31167 -6.87601 -3
      vertex -0.439533 -6.98619 -3
    endloop
  endfacet
  facet normal -0.481755 -0.876306 0
    outer loop
      vertex -3.75079 -5.91029 -3
      vertex -2.98045 -6.33379 0
      vertex -3.75079 -5.91029 0
    endloop
  endfacet
  facet normal -0.481755 -0.876306 -0
    outer loop
      vertex -2.98045 -6.33379 0
      vertex -3.75079 -5.91029 -3
      vertex -2.98045 -6.33379 -3
    endloop
  endfacet
endsolid OpenSCAD_Model
