solid OpenSCAD_Model
  facet normal 0.7067986060537782 0.44854803487902994 0.5470286929280733
    outer loop
      vertex -2.860452944397136 -2.078240713462673 -3
      vertex -3.0983700472979456 -1.7033433477167794 -3
      vertex -4.819686740241249 -2.6496452075594346 0
    endloop
  endfacet
  facet normal 0.7961425883149613 0.2586824079533773 0.5470286929280733
    outer loop
      vertex -3.2874240036763176 -1.301583239849397 -3
      vertex -3.424633319704803 -0.8792963867614509 -3
      vertex -5.327207386207471 -1.3677943794067016 0
    endloop
  endfacet
  facet normal 0.7574432635548357 0.3564257448737442 0.5470286929280733
    outer loop
      vertex -3.0983700472979456 -1.7033433477167794 -3
      vertex -3.2874240036763176 -1.301583239849397 -3
      vertex -5.113770672385383 -2.0246850397657283 0
    endloop
  endfacet
  facet normal 0.8222862688648306 0.1568594949302051 0.5470286929280734
    outer loop
      vertex -5.456630857229628 -0.6893327846036723 0
      vertex -3.424633319704803 -0.8792963867614509 -3
      vertex -3.507834122504761 -0.443142504388075 -3
    endloop
  endfacet
  facet normal 0.8354620037446939 0.05256281396866476 0.5470286929280734
    outer loop
      vertex -5.5 0 0
      vertex -3.507834122504761 -0.443142504388075 -3
      vertex -3.5357142857142856 0 -3
    endloop
  endfacet
  facet normal 0.4032826761165381 0.7335684646014216 0.5470286929280733
    outer loop
      vertex -1.8945304536757386 -2.9853023080249814 -3
      vertex -2.9470473723844823 -4.643803590261082 0
      vertex -1.5054339237479346 -3.1992099355048547 -3
    endloop
  endfacet
  facet normal 0.3081621640513648 0.778328779989911 0.5470286929280735
    outer loop
      vertex -1.5054339237479346 -3.1992099355048547 -3
      vertex -1.6995934690622108 -5.230810839623344 0
      vertex -1.0925958015399926 -3.3626641111864353 -3
    endloop
  endfacet
  facet normal 0.20818175057194901 0.8108143855668832 0.5470286929280734
    outer loop
      vertex -0.6625267908566699 -3.473087065076435 -3
      vertex -1.0925958015399926 -3.3626641111864353 -3
      vertex -1.6995934690622108 -5.230810839623344 0
    endloop
  endfacet
  facet normal 0.1049181865242622 0.83051296392643 0.5470286929280734
    outer loop
      vertex -1.0305972302214865 -5.402579879007788 0
      vertex -0.22200933690721653 -3.528737361228532 -3
      vertex -0.6625267908566699 -3.473087065076435 -3
    endloop
  endfacet
  facet normal 0 0.8371138567204605 0.5470286929280734
    outer loop
      vertex -0.3453478574112257 -5.489147006355494 0
      vertex 0.22200933690721653 -3.528737361228532 -3
      vertex -0.22200933690721653 -3.528737361228532 -3
    endloop
  endfacet
  facet normal 0.5730438679507945 0.6102297391289577 0.5470286929280734
    outer loop
      vertex -2.57742478981142 -2.4203629816764343 -3
      vertex -3.505831943617793 -4.237822835266842 0
      vertex -2.2537491066114383 -2.7243146798143982 -3
    endloop
  endfacet
  facet normal 0.6450073123142288 0.5335964544246695 0.5470286929280733
    outer loop
      vertex -2.57742478981142 -2.4203629816764343 -3
      vertex -2.860452944397136 -2.078240713462673 -3
      vertex -4.449593469062211 -3.232818887608602 0
    endloop
  endfacet
  facet normal 0.4920431794699605 0.6772393363136078 0.5470286929280735
    outer loop
      vertex -1.8945304536757386 -2.9853023080249814 -3
      vertex -2.2537491066114383 -2.7243146798143982 -3
      vertex -2.9470473723844823 -4.643803590261082 0
    endloop
  endfacet
  facet normal 0.7067986060537781 0.44854803487903017 0.5470286929280733
    outer loop
      vertex -4.819686740241249 -2.6496452075594346 0
      vertex -4.449593469062211 -3.232818887608602 0
      vertex -2.860452944397136 -2.078240713462673 -3
    endloop
  endfacet
  facet normal 0.6450073123142293 0.5335964544246691 0.5470286929280734
    outer loop
      vertex -4.009327450817764 -3.765009082607787 0
      vertex -2.57742478981142 -2.4203629816764343 -3
      vertex -4.449593469062211 -3.232818887608602 0
    endloop
  endfacet
  facet normal 0.7574432635548358 0.3564257448737439 0.5470286929280734
    outer loop
      vertex -5.113770672385383 -2.0246850397657283 0
      vertex -4.819686740241249 -2.6496452075594346 0
      vertex -3.0983700472979456 -1.7033433477167794 -3
    endloop
  endfacet
  facet normal 0.7961425883149614 0.25868240795337716 0.5470286929280733
    outer loop
      vertex -5.327207386207471 -1.3677943794067016 0
      vertex -5.113770672385383 -2.0246850397657283 0
      vertex -3.2874240036763176 -1.301583239849397 -3
    endloop
  endfacet
  facet normal 0.8222862688648304 0.15685949493020604 0.5470286929280734
    outer loop
      vertex -5.456630857229628 -0.6893327846036723 0
      vertex -5.327207386207471 -1.3677943794067016 0
      vertex -3.424633319704803 -0.8792963867614509 -3
    endloop
  endfacet
  facet normal 0.8354620037446939 0.05256281396866475 0.5470286929280734
    outer loop
      vertex -5.5 0 0
      vertex -5.456630857229628 -0.6893327846036723 0
      vertex -3.507834122504761 -0.443142504388075 -3
    endloop
  endfacet
  facet normal 0.4920431794699602 0.677239336313608 0.5470286929280735
    outer loop
      vertex -3.505831943617793 -4.237822835266842 0
      vertex -2.9470473723844823 -4.643803590261082 0
      vertex -2.2537491066114383 -2.7243146798143982 -3
    endloop
  endfacet
  facet normal 0.30816216405136504 0.7783287799899108 0.5470286929280733
    outer loop
      vertex -2.341786103607898 -4.9765487885631075 0
      vertex -1.6995934690622108 -5.230810839623344 0
      vertex -1.5054339237479346 -3.1992099355048547 -3
    endloop
  endfacet
  facet normal 0.4032826761165385 0.7335684646014213 0.5470286929280734
    outer loop
      vertex -2.9470473723844823 -4.643803590261082 0
      vertex -2.341786103607898 -4.9765487885631075 0
      vertex -1.5054339237479346 -3.1992099355048547 -3
    endloop
  endfacet
  facet normal 0.20818175057194854 0.8108143855668833 0.5470286929280734
    outer loop
      vertex -0.6625267908566699 -3.473087065076435 -3
      vertex -1.6995934690622108 -5.230810839623344 0
      vertex -1.0305972302214865 -5.402579879007788 0
    endloop
  endfacet
  facet normal 0.10491818652426159 0.8305129639264301 0.5470286929280734
    outer loop
      vertex -1.0305972302214865 -5.402579879007788 0
      vertex -0.3453478574112257 -5.489147006355494 0
      vertex -0.22200933690721653 -3.528737361228532 -3
    endloop
  endfacet
  facet normal 0.5730438679507945 0.6102297391289577 0.5470286929280734
    outer loop
      vertex -4.009327450817764 -3.765009082607787 0
      vertex -3.505831943617793 -4.237822835266842 0
      vertex -2.57742478981142 -2.4203629816764343 -3
    endloop
  endfacet
  facet normal 0.8354620037446941 -0.05256281396866476 0.5470286929280734
    outer loop
      vertex -5.456630857229628 0.6893327846036723 0
      vertex -3.5357142857142856 0 -3
      vertex -3.507834122504761 0.443142504388075 -3
    endloop
  endfacet
  facet normal 0.8222862688648307 -0.15685949493020504 0.5470286929280732
    outer loop
      vertex -5.327207386207471 1.3677943794067016 0
      vertex -3.507834122504761 0.443142504388075 -3
      vertex -3.424633319704803 0.879296386761451 -3
    endloop
  endfacet
  facet normal 0.7961425883149613 -0.2586824079533774 0.5470286929280733
    outer loop
      vertex -3.424633319704803 0.879296386761451 -3
      vertex -3.2874240036763176 1.301583239849397 -3
      vertex -5.327207386207471 1.3677943794067016 0
    endloop
  endfacet
  facet normal 0.757443263554836 -0.35642574487374334 0.5470286929280734
    outer loop
      vertex -3.098370047297946 1.7033433477167796 -3
      vertex -5.113770672385383 2.0246850397657283 0
      vertex -3.2874240036763176 1.301583239849397 -3
    endloop
  endfacet
  facet normal 0.7067986060537776 -0.4485480348790312 0.5470286929280733
    outer loop
      vertex -2.860452944397136 2.0782407134626726 -3
      vertex -4.819686740241249 2.6496452075594346 0
      vertex -3.098370047297946 1.7033433477167796 -3
    endloop
  endfacet
  facet normal 0.645007312314229 -0.5335964544246693 0.5470286929280733
    outer loop
      vertex -4.449593469062211 3.232818887608602 0
      vertex -2.860452944397136 2.0782407134626726 -3
      vertex -2.57742478981142 2.4203629816764343 -3
    endloop
  endfacet
  facet normal 0.5730438679507945 -0.6102297391289577 0.5470286929280734
    outer loop
      vertex -2.57742478981142 2.4203629816764343 -3
      vertex -2.2537491066114383 2.7243146798143982 -3
      vertex -3.505831943617793 4.237822835266842 0
    endloop
  endfacet
  facet normal 0.4920431794699606 -0.6772393363136076 0.5470286929280734
    outer loop
      vertex -2.9470473723844823 4.643803590261082 0
      vertex -2.2537491066114383 2.7243146798143982 -3
      vertex -1.8945304536757388 2.9853023080249814 -3
    endloop
  endfacet
  facet normal 0.40328267611653884 -0.7335684646014211 0.5470286929280734
    outer loop
      vertex -1.8945304536757388 2.9853023080249814 -3
      vertex -1.5054339237479357 3.1992099355048547 -3
      vertex -2.3417861036079 4.9765487885631075 0
    endloop
  endfacet
  facet normal 0.30816216405136493 -0.7783287799899109 0.5470286929280733
    outer loop
      vertex -1.5054339237479357 3.1992099355048547 -3
      vertex -1.0925958015399928 3.3626641111864357 -3
      vertex -1.6995934690622108 5.230810839623344 0
    endloop
  endfacet
  facet normal 0.20818175057194857 -0.8108143855668835 0.5470286929280733
    outer loop
      vertex -1.0925958015399928 3.3626641111864357 -3
      vertex -0.6625267908566691 3.4730870650764354 -3
      vertex -1.0305972302214852 5.402579879007788 0
    endloop
  endfacet
  facet normal 0.10491818652426092 -0.8305129639264303 0.5470286929280734
    outer loop
      vertex -0.6625267908566691 3.4730870650764354 -3
      vertex -0.2220093369072148 3.528737361228532 -3
      vertex -0.3453478574112227 5.489147006355494 0
    endloop
  endfacet
  facet normal 0.8354620037446939 -0.05256281396866475 0.5470286929280734
    outer loop
      vertex -5.456630857229628 0.6893327846036723 0
      vertex -5.5 0 0
      vertex -3.5357142857142856 0 -3
    endloop
  endfacet
  facet normal 0.8222862688648304 -0.15685949493020604 0.5470286929280735
    outer loop
      vertex -5.327207386207471 1.3677943794067016 0
      vertex -5.456630857229628 0.6893327846036723 0
      vertex -3.507834122504761 0.443142504388075 -3
    endloop
  endfacet
  facet normal 0.7961425883149613 -0.2586824079533771 0.5470286929280733
    outer loop
      vertex -3.2874240036763176 1.301583239849397 -3
      vertex -5.113770672385383 2.0246850397657283 0
      vertex -5.327207386207471 1.3677943794067016 0
    endloop
  endfacet
  facet normal 0.7574432635548358 -0.3564257448737439 0.5470286929280732
    outer loop
      vertex -4.819686740241249 2.6496452075594346 0
      vertex -5.113770672385383 2.0246850397657283 0
      vertex -3.098370047297946 1.7033433477167796 -3
    endloop
  endfacet
  facet normal 0.7067986060537781 -0.44854803487903017 0.5470286929280733
    outer loop
      vertex -4.449593469062211 3.232818887608602 0
      vertex -4.819686740241249 2.6496452075594346 0
      vertex -2.860452944397136 2.0782407134626726 -3
    endloop
  endfacet
  facet normal 0.6450073123142293 -0.5335964544246691 0.5470286929280734
    outer loop
      vertex -4.009327450817764 3.765009082607787 0
      vertex -4.449593469062211 3.232818887608602 0
      vertex -2.57742478981142 2.4203629816764343 -3
    endloop
  endfacet
  facet normal 0.5730438679507945 -0.6102297391289577 0.5470286929280734
    outer loop
      vertex -3.505831943617793 4.237822835266842 0
      vertex -4.009327450817764 3.765009082607787 0
      vertex -2.57742478981142 2.4203629816764343 -3
    endloop
  endfacet
  facet normal 0.4920431794699602 -0.677239336313608 0.5470286929280735
    outer loop
      vertex -2.9470473723844823 4.643803590261082 0
      vertex -3.505831943617793 4.237822835266842 0
      vertex -2.2537491066114383 2.7243146798143982 -3
    endloop
  endfacet
  facet normal 0.40328267611653934 -0.7335684646014208 0.5470286929280733
    outer loop
      vertex -2.3417861036079 4.9765487885631075 0
      vertex -2.9470473723844823 4.643803590261082 0
      vertex -1.8945304536757388 2.9853023080249814 -3
    endloop
  endfacet
  facet normal 0.3081621640513643 -0.7783287799899111 0.5470286929280734
    outer loop
      vertex -1.6995934690622108 5.230810839623344 0
      vertex -2.3417861036079 4.9765487885631075 0
      vertex -1.5054339237479357 3.1992099355048547 -3
    endloop
  endfacet
  facet normal 0.20818175057194818 -0.8108143855668833 0.5470286929280734
    outer loop
      vertex -1.0305972302214852 5.402579879007788 0
      vertex -1.6995934690622108 5.230810839623344 0
      vertex -1.0925958015399928 3.3626641111864357 -3
    endloop
  endfacet
  facet normal 0.10491818652426135 -0.8305129639264301 0.5470286929280734
    outer loop
      vertex -0.3453478574112227 5.489147006355494 0
      vertex -1.0305972302214852 5.402579879007788 0
      vertex -0.6625267908566691 3.4730870650764354 -3
    endloop
  endfacet
  facet normal 0 -0.8371138567204605 0.5470286929280733
    outer loop
      vertex -0.3453478574112227 5.489147006355494 0
      vertex -0.2220093369072148 3.528737361228532 -3
      vertex 0.34534785741122304 5.489147006355494 0
    endloop
  endfacet
  facet normal -0.10491818652426194 0.8305129639264301 0.5470286929280734
    outer loop
      vertex 0.66252679085667 -3.473087065076435 -3
      vertex 0.22200933690721653 -3.528737361228532 -3
      vertex 0.3453478574112257 -5.489147006355494 0
    endloop
  endfacet
  facet normal -0.2081817505719483 0.8108143855668833 0.5470286929280734
    outer loop
      vertex 1.0925958015399926 -3.3626641111864357 -3
      vertex 0.66252679085667 -3.473087065076435 -3
      vertex 1.0305972302214865 -5.402579879007788 0
    endloop
  endfacet
  facet normal -0.3081621640513648 0.778328779989911 0.5470286929280734
    outer loop
      vertex 1.5054339237479346 -3.199209935504855 -3
      vertex 1.0925958015399926 -3.3626641111864357 -3
      vertex 1.6995934690622108 -5.230810839623344 0
    endloop
  endfacet
  facet normal -0.4032826761165377 0.7335684646014219 0.5470286929280734
    outer loop
      vertex 1.8945304536757368 -2.985302308024983 -3
      vertex 1.5054339237479346 -3.199209935504855 -3
      vertex 2.341786103607898 -4.9765487885631075 0
    endloop
  endfacet
  facet normal -0.49204317946996134 0.677239336313607 0.5470286929280733
    outer loop
      vertex 2.2537491066114392 -2.7243146798143973 -3
      vertex 1.8945304536757368 -2.985302308024983 -3
      vertex 2.9470473723844792 -4.643803590261085 0
    endloop
  endfacet
  facet normal -0.573043867950794 0.6102297391289582 0.5470286929280735
    outer loop
      vertex 2.57742478981142 -2.4203629816764347 -3
      vertex 2.2537491066114392 -2.7243146798143973 -3
      vertex 3.5058319436177947 -4.23782283526684 0
    endloop
  endfacet
  facet normal -0.6450073123142291 0.5335964544246691 0.5470286929280734
    outer loop
      vertex 2.57742478981142 -2.4203629816764347 -3
      vertex 4.449593469062211 -3.232818887608602 0
      vertex 2.860452944397136 -2.078240713462673 -3
    endloop
  endfacet
  facet normal -0.7067986060537782 0.44854803487902994 0.5470286929280733
    outer loop
      vertex 2.860452944397136 -2.078240713462673 -3
      vertex 4.819686740241249 -2.6496452075594346 0
      vertex 3.0983700472979456 -1.7033433477167794 -3
    endloop
  endfacet
  facet normal -0.7574432635548354 0.3564257448737448 0.5470286929280733
    outer loop
      vertex 3.0983700472979456 -1.7033433477167794 -3
      vertex 5.113770672385382 -2.024685039765731 0
      vertex 3.287424003676317 -1.3015832398493987 -3
    endloop
  endfacet
  facet normal -0.7961425883149615 0.2586824079533764 0.5470286929280734
    outer loop
      vertex 3.424633319704803 -0.8792963867614496 -3
      vertex 3.287424003676317 -1.3015832398493987 -3
      vertex 5.327207386207472 -1.3677943794066993 0
    endloop
  endfacet
  facet normal -0.8222862688648304 0.15685949493020557 0.5470286929280735
    outer loop
      vertex 5.327207386207472 -1.3677943794066993 0
      vertex 3.507834122504761 -0.44314250438807506 -3
      vertex 3.424633319704803 -0.8792963867614496 -3
    endloop
  endfacet
  facet normal -0.8354620037446941 0.05256281396866476 0.5470286929280735
    outer loop
      vertex 3.507834122504761 -0.44314250438807506 -3
      vertex 5.456630857229628 -0.6893327846036723 0
      vertex 3.5357142857142856 0 -3
    endloop
  endfacet
  facet normal 0 0.8371138567204603 0.5470286929280733
    outer loop
      vertex -0.3453478574112257 -5.489147006355494 0
      vertex 0.3453478574112257 -5.489147006355494 0
      vertex 0.22200933690721653 -3.528737361228532 -3
    endloop
  endfacet
  facet normal -0.10491818652426159 0.8305129639264301 0.5470286929280734
    outer loop
      vertex 0.3453478574112257 -5.489147006355494 0
      vertex 1.0305972302214865 -5.402579879007788 0
      vertex 0.66252679085667 -3.473087065076435 -3
    endloop
  endfacet
  facet normal -0.20818175057194854 0.8108143855668833 0.5470286929280733
    outer loop
      vertex 1.0305972302214865 -5.402579879007788 0
      vertex 1.6995934690622108 -5.230810839623344 0
      vertex 1.0925958015399926 -3.3626641111864357 -3
    endloop
  endfacet
  facet normal -0.3081621640513651 0.7783287799899109 0.5470286929280733
    outer loop
      vertex 1.6995934690622108 -5.230810839623344 0
      vertex 2.341786103607898 -4.9765487885631075 0
      vertex 1.5054339237479346 -3.199209935504855 -3
    endloop
  endfacet
  facet normal -0.40328267611653756 0.7335684646014218 0.5470286929280733
    outer loop
      vertex 2.341786103607898 -4.9765487885631075 0
      vertex 2.9470473723844792 -4.643803590261085 0
      vertex 1.8945304536757368 -2.985302308024983 -3
    endloop
  endfacet
  facet normal -0.4920431794699608 0.6772393363136073 0.5470286929280734
    outer loop
      vertex 2.9470473723844792 -4.643803590261085 0
      vertex 3.5058319436177947 -4.23782283526684 0
      vertex 2.2537491066114392 -2.7243146798143973 -3
    endloop
  endfacet
  facet normal -0.5730438679507945 0.610229739128958 0.5470286929280734
    outer loop
      vertex 3.5058319436177947 -4.23782283526684 0
      vertex 4.009327450817764 -3.765009082607787 0
      vertex 2.57742478981142 -2.4203629816764347 -3
    endloop
  endfacet
  facet normal -0.6450073123142293 0.5335964544246691 0.5470286929280734
    outer loop
      vertex 4.009327450817764 -3.765009082607787 0
      vertex 4.449593469062211 -3.232818887608602 0
      vertex 2.57742478981142 -2.4203629816764347 -3
    endloop
  endfacet
  facet normal -0.7067986060537781 0.44854803487903017 0.5470286929280733
    outer loop
      vertex 4.449593469062211 -3.232818887608602 0
      vertex 4.819686740241249 -2.6496452075594346 0
      vertex 2.860452944397136 -2.078240713462673 -3
    endloop
  endfacet
  facet normal -0.7574432635548356 0.35642574487374423 0.5470286929280734
    outer loop
      vertex 4.819686740241249 -2.6496452075594346 0
      vertex 5.113770672385382 -2.024685039765731 0
      vertex 3.0983700472979456 -1.7033433477167794 -3
    endloop
  endfacet
  facet normal -0.7961425883149613 0.2586824079533773 0.5470286929280734
    outer loop
      vertex 5.113770672385382 -2.024685039765731 0
      vertex 5.327207386207472 -1.3677943794066993 0
      vertex 3.287424003676317 -1.3015832398493987 -3
    endloop
  endfacet
  facet normal -0.8222862688648306 0.15685949493020548 0.5470286929280734
    outer loop
      vertex 5.327207386207472 -1.3677943794066993 0
      vertex 5.456630857229628 -0.6893327846036723 0
      vertex 3.507834122504761 -0.44314250438807506 -3
    endloop
  endfacet
  facet normal -0.8354620037446939 0.05256281396866475 0.5470286929280734
    outer loop
      vertex 5.456630857229628 -0.6893327846036723 0
      vertex 5.5 0 0
      vertex 3.5357142857142856 0 -3
    endloop
  endfacet
  facet normal -0.49204317946996184 -0.6772393363136067 0.5470286929280733
    outer loop
      vertex 1.8945304536757381 2.9853023080249823 -3
      vertex 2.253749106611439 2.7243146798143973 -3
      vertex 2.9470473723844814 4.643803590261083 0
    endloop
  endfacet
  facet normal -0.6450073123142298 -0.5335964544246683 0.5470286929280734
    outer loop
      vertex 2.5774247898114195 2.4203629816764356 -3
      vertex 2.860452944397136 2.0782407134626726 -3
      vertex 4.449593469062211 3.232818887608602 0
    endloop
  endfacet
  facet normal -0.5730438679507932 -0.6102297391289592 0.5470286929280734
    outer loop
      vertex 2.253749106611439 2.7243146798143973 -3
      vertex 2.5774247898114195 2.4203629816764356 -3
      vertex 3.5058319436177934 4.23782283526684 0
    endloop
  endfacet
  facet normal 0 -0.8371138567204605 0.5470286929280734
    outer loop
      vertex -0.2220093369072148 3.528737361228532 -3
      vertex 0.22200933690721403 3.528737361228532 -3
      vertex 0.34534785741122304 5.489147006355494 0
    endloop
  endfacet
  facet normal -0.10491818652426185 -0.8305129639264301 0.5470286929280734
    outer loop
      vertex 1.0305972302214852 5.402579879007788 0
      vertex 0.22200933690721403 3.528737361228532 -3
      vertex 0.6625267908566691 3.473087065076435 -3
    endloop
  endfacet
  facet normal -0.20818175057194788 -0.8108143855668835 0.5470286929280734
    outer loop
      vertex 0.6625267908566691 3.473087065076435 -3
      vertex 1.0925958015399926 3.3626641111864357 -3
      vertex 1.6995934690622108 5.230810839623344 0
    endloop
  endfacet
  facet normal -0.3081621640513641 -0.7783287799899113 0.5470286929280734
    outer loop
      vertex 1.5054339237479357 3.199209935504855 -3
      vertex 1.6995934690622108 5.230810839623344 0
      vertex 1.0925958015399926 3.3626641111864357 -3
    endloop
  endfacet
  facet normal -0.4032826761165388 -0.7335684646014212 0.5470286929280734
    outer loop
      vertex 1.8945304536757381 2.9853023080249823 -3
      vertex 2.9470473723844814 4.643803590261083 0
      vertex 1.5054339237479357 3.199209935504855 -3
    endloop
  endfacet
  facet normal -0.8354620037446941 -0.05256281396866384 0.5470286929280735
    outer loop
      vertex 3.5357142857142856 0 -3
      vertex 5.5 0 0
      vertex 3.5078341225047613 0.4431425043880758 -3
    endloop
  endfacet
  facet normal -0.8222862688648304 -0.15685949493020707 0.5470286929280733
    outer loop
      vertex 3.4246333197048027 0.8792963867614508 -3
      vertex 3.5078341225047613 0.4431425043880758 -3
      vertex 5.456630857229628 0.6893327846036734 0
    endloop
  endfacet
  facet normal -0.7574432635548362 -0.3564257448737434 0.5470286929280733
    outer loop
      vertex 5.113770672385383 2.0246850397657288 0
      vertex 3.0983700472979465 1.7033433477167792 -3
      vertex 3.2874240036763176 1.3015832398493972 -3
    endloop
  endfacet
  facet normal -0.7961425883149617 -0.2586824079533764 0.5470286929280734
    outer loop
      vertex 3.2874240036763176 1.3015832398493972 -3
      vertex 3.4246333197048027 0.8792963867614508 -3
      vertex 5.327207386207471 1.3677943794067013 0
    endloop
  endfacet
  facet normal -0.7067986060537775 -0.44854803487903144 0.5470286929280734
    outer loop
      vertex 2.860452944397136 2.0782407134626726 -3
      vertex 3.0983700472979465 1.7033433477167792 -3
      vertex 4.8196867402412495 2.649645207559434 0
    endloop
  endfacet
  facet normal -0.5730438679507934 -0.6102297391289591 0.5470286929280734
    outer loop
      vertex 4.009327450817763 3.765009082607788 0
      vertex 3.5058319436177934 4.23782283526684 0
      vertex 2.5774247898114195 2.4203629816764356 -3
    endloop
  endfacet
  facet normal -0.1049181865242614 -0.8305129639264301 0.5470286929280734
    outer loop
      vertex 1.0305972302214852 5.402579879007788 0
      vertex 0.34534785741122304 5.489147006355494 0
      vertex 0.22200933690721403 3.528737361228532 -3
    endloop
  endfacet
  facet normal -0.20818175057194813 -0.8108143855668833 0.5470286929280734
    outer loop
      vertex 0.6625267908566691 3.473087065076435 -3
      vertex 1.6995934690622108 5.230810839623344 0
      vertex 1.0305972302214852 5.402579879007788 0
    endloop
  endfacet
  facet normal -0.40328267611653906 -0.7335684646014211 0.5470286929280734
    outer loop
      vertex 2.9470473723844814 4.643803590261083 0
      vertex 2.3417861036079 4.9765487885631075 0
      vertex 1.5054339237479357 3.199209935504855 -3
    endloop
  endfacet
  facet normal -0.3081621640513644 -0.7783287799899112 0.5470286929280734
    outer loop
      vertex 2.3417861036079 4.9765487885631075 0
      vertex 1.6995934690622108 5.230810839623344 0
      vertex 1.5054339237479357 3.199209935504855 -3
    endloop
  endfacet
  facet normal -0.49204317946996157 -0.677239336313607 0.5470286929280734
    outer loop
      vertex 3.5058319436177934 4.23782283526684 0
      vertex 2.9470473723844814 4.643803590261083 0
      vertex 2.253749106611439 2.7243146798143973 -3
    endloop
  endfacet
  facet normal -0.835462003744694 -0.052562813968664676 0.5470286929280734
    outer loop
      vertex 3.5078341225047613 0.4431425043880758 -3
      vertex 5.5 0 0
      vertex 5.456630857229628 0.6893327846036734 0
    endloop
  endfacet
  facet normal -0.8222862688648305 -0.15685949493020632 0.5470286929280735
    outer loop
      vertex 5.456630857229628 0.6893327846036734 0
      vertex 5.327207386207471 1.3677943794067013 0
      vertex 3.4246333197048027 0.8792963867614508 -3
    endloop
  endfacet
  facet normal -0.7961425883149615 -0.25868240795337694 0.5470286929280734
    outer loop
      vertex 5.327207386207471 1.3677943794067013 0
      vertex 5.113770672385383 2.0246850397657288 0
      vertex 3.2874240036763176 1.3015832398493972 -3
    endloop
  endfacet
  facet normal -0.7574432635548359 -0.3564257448737434 0.5470286929280733
    outer loop
      vertex 5.113770672385383 2.0246850397657288 0
      vertex 4.8196867402412495 2.649645207559434 0
      vertex 3.0983700472979465 1.7033433477167792 -3
    endloop
  endfacet
  facet normal -0.6450073123142293 -0.5335964544246691 0.5470286929280734
    outer loop
      vertex 2.5774247898114195 2.4203629816764356 -3
      vertex 4.449593469062211 3.232818887608602 0
      vertex 4.009327450817763 3.765009082607788 0
    endloop
  endfacet
  facet normal -0.7067986060537778 -0.44854803487903067 0.5470286929280734
    outer loop
      vertex 4.8196867402412495 2.649645207559434 0
      vertex 4.449593469062211 3.232818887608602 0
      vertex 2.860452944397136 2.0782407134626726 -3
    endloop
  endfacet
  facet normal -0.8443279255020152 -0.5358267949789963 0
    outer loop
      vertex -5.663118960624632 -4.114496766047312 -3
      vertex -6.134146760307044 -3.372275718712008 0
      vertex -6.134146760307044 -3.372275718712008 -3
    endloop
  endfacet
  facet normal -0.7705132427757893 -0.6374239897486896 0
    outer loop
      vertex -5.663118960624632 -4.114496766047312 -3
      vertex -5.1027803919498815 -4.79182974150082 -3
      vertex -5.663118960624632 -4.114496766047312 0
    endloop
  endfacet
  facet normal -0.5877852522924721 -0.8090169943749481 0
    outer loop
      vertex -4.461967928240828 -5.393592699430526 -3
      vertex -3.7507875648529776 -5.910295478514104 -3
      vertex -3.7507875648529776 -5.910295478514104 0
    endloop
  endfacet
  facet normal -0.6845471059286894 -0.7289686274214108 0
    outer loop
      vertex -4.461967928240828 -5.393592699430526 -3
      vertex -4.461967928240828 -5.393592699430526 0
      vertex -5.1027803919498815 -4.79182974150082 -3
    endloop
  endfacet
  facet normal 0 0 -1
    outer loop
      vertex -6.50843540121776 -2.576871868792745 -3
      vertex -6.7800821279004175 -1.740829210153984 -3
      vertex -6.50843540121776 2.576871868792745 -3
    endloop
  endfacet
  facet normal 0 0 -1
    outer loop
      vertex -6.7800821279004175 -1.740829210153984 -3
      vertex -6.9448029092013455 -0.8773326349501285 -3
      vertex -6.7800821279004175 1.740829210153984 -3
    endloop
  endfacet
  facet normal 0 0 -1
    outer loop
      vertex -6.134146760307044 -3.372275718712008 -3
      vertex -6.50843540121776 -2.576871868792745 -3
      vertex -6.134146760307044 3.372275718712008 -3
    endloop
  endfacet
  facet normal 0 0 -1
    outer loop
      vertex -5.663118960624632 -4.114496766047312 -3
      vertex -6.134146760307044 -3.372275718712008 -3
      vertex -5.663118960624632 4.114496766047312 -3
    endloop
  endfacet
  facet normal 0 0 -1
    outer loop
      vertex -5.663118960624632 -4.114496766047312 -3
      vertex -5.1027803919498815 4.79182974150082 -3
      vertex -5.1027803919498815 -4.79182974150082 -3
    endloop
  endfacet
  facet normal 0 0 -1
    outer loop
      vertex -4.461967928240828 -5.393592699430526 -3
      vertex -3.7507875648529776 5.910295478514104 -3
      vertex -3.7507875648529776 -5.910295478514104 -3
    endloop
  endfacet
  facet normal 0 0 -1
    outer loop
      vertex -3.7507875648529776 -5.910295478514104 -3
      vertex -3.507834122504761 -0.443142504388075 -3
      vertex -3.424633319704803 -0.8792963867614509 -3
    endloop
  endfacet
  facet normal 0 0 -1
    outer loop
      vertex -3.7507875648529776 -5.910295478514104 -3
      vertex -3.5357142857142856 0 -3
      vertex -3.507834122504761 -0.443142504388075 -3
    endloop
  endfacet
  facet normal 0 0 -1
    outer loop
      vertex -4.461967928240828 -5.393592699430526 -3
      vertex -5.1027803919498815 -4.79182974150082 -3
      vertex -4.461967928240828 5.393592699430526 -3
    endloop
  endfacet
  facet normal -0.9048270524660196 -0.42577929156507277 0
    outer loop
      vertex -6.134146760307044 -3.372275718712008 -3
      vertex -6.50843540121776 -2.576871868792745 0
      vertex -6.50843540121776 -2.576871868792745 -3
    endloop
  endfacet
  facet normal -0.9510565162951536 -0.3090169943749475 0
    outer loop
      vertex -6.50843540121776 -2.576871868792745 -3
      vertex -6.7800821279004175 -1.740829210153984 0
      vertex -6.7800821279004175 -1.740829210153984 -3
    endloop
  endfacet
  facet normal -0.9822872507286885 -0.18738131458572532 0
    outer loop
      vertex -6.7800821279004175 -1.740829210153984 -3
      vertex -6.9448029092013455 -0.8773326349501285 0
      vertex -6.9448029092013455 -0.8773326349501285 -3
    endloop
  endfacet
  facet normal -0.9980267284282717 -0.06279051952931274 0
    outer loop
      vertex -6.9448029092013455 -0.8773326349501285 -3
      vertex -7 0 0
      vertex -7 0 -3
    endloop
  endfacet
  facet normal 0 0 -1
    outer loop
      vertex -2.980455040955507 -6.333789367262137 -3
      vertex -1.8945304536757386 -2.9853023080249814 -3
      vertex -2.1631189606246317 -6.657395614066075 -3
    endloop
  endfacet
  facet normal 0 0 -1
    outer loop
      vertex -3.7507875648529776 -5.910295478514104 -3
      vertex -2.860452944397136 -2.078240713462673 -3
      vertex -2.980455040955507 -6.333789367262137 -3
    endloop
  endfacet
  facet normal 0 0 -1
    outer loop
      vertex -2.980455040955507 -6.333789367262137 -3
      vertex -2.860452944397136 -2.078240713462673 -3
      vertex -2.57742478981142 -2.4203629816764343 -3
    endloop
  endfacet
  facet normal 0 0 -1
    outer loop
      vertex -2.980455040955507 -6.333789367262137 -3
      vertex -2.2537491066114383 -2.7243146798143982 -3
      vertex -1.8945304536757386 -2.9853023080249814 -3
    endloop
  endfacet
  facet normal 0 0 -1
    outer loop
      vertex -2.980455040955507 -6.333789367262137 -3
      vertex -2.57742478981142 -2.4203629816764343 -3
      vertex -2.2537491066114383 -2.7243146798143982 -3
    endloop
  endfacet
  facet normal 0 0 -1
    outer loop
      vertex -2.1631189606246317 -6.657395614066075 -3
      vertex -1.8945304536757386 -2.9853023080249814 -3
      vertex -1.5054339237479346 -3.1992099355048547 -3
    endloop
  endfacet
  facet normal 0 0 -1
    outer loop
      vertex -2.1631189606246317 -6.657395614066075 -3
      vertex -1.0925958015399926 -3.3626641111864353 -3
      vertex -1.3116692021000738 -6.87601075510082 -3
    endloop
  endfacet
  facet normal 0 0 -1
    outer loop
      vertex -1.3116692021000738 -6.87601075510082 -3
      vertex -0.22200933690721653 -3.528737361228532 -3
      vertex -0.43953363670519635 -6.986187098997901 -3
    endloop
  endfacet
  facet normal 0 0 -1
    outer loop
      vertex -0.43953363670519635 -6.986187098997901 -3
      vertex -0.22200933690721653 -3.528737361228532 -3
      vertex 0.43953363670519635 -6.986187098997901 -3
    endloop
  endfacet
  facet normal 0 0 -1
    outer loop
      vertex -2.1631189606246317 -6.657395614066075 -3
      vertex -1.5054339237479346 -3.1992099355048547 -3
      vertex -1.0925958015399926 -3.3626641111864353 -3
    endloop
  endfacet
  facet normal 0 0 -1
    outer loop
      vertex -1.3116692021000738 -6.87601075510082 -3
      vertex -1.0925958015399926 -3.3626641111864353 -3
      vertex -0.6625267908566699 -3.473087065076435 -3
    endloop
  endfacet
  facet normal 0 0 -1
    outer loop
      vertex -1.3116692021000738 -6.87601075510082 -3
      vertex -0.6625267908566699 -3.473087065076435 -3
      vertex -0.22200933690721653 -3.528737361228532 -3
    endloop
  endfacet
  facet normal -0.4817536741017148 -0.8763066800438638 0
    outer loop
      vertex -3.7507875648529776 -5.910295478514104 -3
      vertex -2.980455040955507 -6.333789367262137 -3
      vertex -2.980455040955507 -6.333789367262137 0
    endloop
  endfacet
  facet normal -0.36812455268467814 -0.9297764858882512 0
    outer loop
      vertex -2.980455040955507 -6.333789367262137 -3
      vertex -2.1631189606246317 -6.657395614066075 -3
      vertex -2.1631189606246317 -6.657395614066075 0
    endloop
  endfacet
  facet normal -0.24868988716485488 -0.9685831611286311 0
    outer loop
      vertex -2.1631189606246317 -6.657395614066075 -3
      vertex -1.3116692021000738 -6.87601075510082 -3
      vertex -1.3116692021000738 -6.87601075510082 0
    endloop
  endfacet
  facet normal -0.12533323356430498 -0.9921147013144778 0
    outer loop
      vertex -1.3116692021000738 -6.87601075510082 -3
      vertex -0.43953363670519635 -6.986187098997901 -3
      vertex -0.43953363670519635 -6.986187098997901 0
    endloop
  endfacet
  facet normal 0 0 -1
    outer loop
      vertex -3.7507875648529776 -5.910295478514104 -3
      vertex -3.0983700472979456 -1.7033433477167794 -3
      vertex -2.860452944397136 -2.078240713462673 -3
    endloop
  endfacet
  facet normal 0 0 -1
    outer loop
      vertex -3.7507875648529776 -5.910295478514104 -3
      vertex -3.2874240036763176 -1.301583239849397 -3
      vertex -3.0983700472979456 -1.7033433477167794 -3
    endloop
  endfacet
  facet normal 0 0 -1
    outer loop
      vertex -3.7507875648529776 -5.910295478514104 -3
      vertex -3.424633319704803 -0.8792963867614509 -3
      vertex -3.2874240036763176 -1.301583239849397 -3
    endloop
  endfacet
  facet normal -0.7705132427757893 -0.6374239897486896 0
    outer loop
      vertex -5.1027803919498815 -4.79182974150082 -3
      vertex -5.1027803919498815 -4.79182974150082 0
      vertex -5.663118960624632 -4.114496766047312 0
    endloop
  endfacet
  facet normal -0.8443279255020152 -0.5358267949789963 0
    outer loop
      vertex -5.663118960624632 -4.114496766047312 -3
      vertex -5.663118960624632 -4.114496766047312 0
      vertex -6.134146760307044 -3.372275718712008 0
    endloop
  endfacet
  facet normal -0.5877852522924721 -0.8090169943749481 0
    outer loop
      vertex -4.461967928240828 -5.393592699430526 -3
      vertex -3.7507875648529776 -5.910295478514104 0
      vertex -4.461967928240828 -5.393592699430526 0
    endloop
  endfacet
  facet normal -0.6845471059286894 -0.7289686274214108 0
    outer loop
      vertex -5.1027803919498815 -4.79182974150082 -3
      vertex -4.461967928240828 -5.393592699430526 0
      vertex -5.1027803919498815 -4.79182974150082 0
    endloop
  endfacet
  facet normal 0 0 1
    outer loop
      vertex -4.461967928240828 -5.393592699430526 0
      vertex -4.819686740241249 -2.6496452075594346 0
      vertex -5.1027803919498815 -4.79182974150082 0
    endloop
  endfacet
  facet normal 0 0 1
    outer loop
      vertex -4.461967928240828 -5.393592699430526 0
      vertex -4.449593469062211 -3.232818887608602 0
      vertex -4.819686740241249 -2.6496452075594346 0
    endloop
  endfacet
  facet normal 0 0 1
    outer loop
      vertex -4.461967928240828 -5.393592699430526 0
      vertex -3.7507875648529776 -5.910295478514104 0
      vertex -4.009327450817764 -3.765009082607787 0
    endloop
  endfacet
  facet normal 0 0 1
    outer loop
      vertex -3.7507875648529776 -5.910295478514104 0
      vertex -3.505831943617793 -4.237822835266842 0
      vertex -4.009327450817764 -3.765009082607787 0
    endloop
  endfacet
  facet normal 0 0 1
    outer loop
      vertex -4.461967928240828 -5.393592699430526 0
      vertex -4.009327450817764 -3.765009082607787 0
      vertex -4.449593469062211 -3.232818887608602 0
    endloop
  endfacet
  facet normal -0.9048270524660196 -0.42577929156507277 0
    outer loop
      vertex -6.134146760307044 -3.372275718712008 -3
      vertex -6.134146760307044 -3.372275718712008 0
      vertex -6.50843540121776 -2.576871868792745 0
    endloop
  endfacet
  facet normal -0.9510565162951536 -0.3090169943749475 0
    outer loop
      vertex -6.50843540121776 -2.576871868792745 -3
      vertex -6.50843540121776 -2.576871868792745 0
      vertex -6.7800821279004175 -1.740829210153984 0
    endloop
  endfacet
  facet normal -0.9822872507286885 -0.18738131458572532 0
    outer loop
      vertex -6.7800821279004175 -1.740829210153984 -3
      vertex -6.7800821279004175 -1.740829210153984 0
      vertex -6.9448029092013455 -0.8773326349501285 0
    endloop
  endfacet
  facet normal -0.9980267284282717 -0.06279051952931274 0
    outer loop
      vertex -6.9448029092013455 -0.8773326349501285 -3
      vertex -6.9448029092013455 -0.8773326349501285 0
      vertex -7 0 0
    endloop
  endfacet
  facet normal 0 0 1
    outer loop
      vertex -5.663118960624632 -4.114496766047312 0
      vertex -5.1027803919498815 -4.79182974150082 0
      vertex -5.327207386207471 -1.3677943794067016 0
    endloop
  endfacet
  facet normal 0 0 1
    outer loop
      vertex -5.663118960624632 -4.114496766047312 0
      vertex -5.327207386207471 -1.3677943794067016 0
      vertex -5.456630857229628 -0.6893327846036723 0
    endloop
  endfacet
  facet normal 0 0 1
    outer loop
      vertex -6.134146760307044 -3.372275718712008 0
      vertex -6.50843540121776 2.576871868792745 0
      vertex -6.50843540121776 -2.576871868792745 0
    endloop
  endfacet
  facet normal 0 0 1
    outer loop
      vertex -6.7800821279004175 -1.740829210153984 0
      vertex -6.9448029092013455 0.8773326349501285 0
      vertex -6.9448029092013455 -0.8773326349501285 0
    endloop
  endfacet
  facet normal 0 0 1
    outer loop
      vertex -6.50843540121776 -2.576871868792745 0
      vertex -6.7800821279004175 1.740829210153984 0
      vertex -6.7800821279004175 -1.740829210153984 0
    endloop
  endfacet
  facet normal 0 0 1
    outer loop
      vertex -5.663118960624632 -4.114496766047312 0
      vertex -6.134146760307044 3.372275718712008 0
      vertex -6.134146760307044 -3.372275718712008 0
    endloop
  endfacet
  facet normal 0 0 1
    outer loop
      vertex -5.663118960624632 -4.114496766047312 0
      vertex -5.456630857229628 -0.6893327846036723 0
      vertex -5.5 0 0
    endloop
  endfacet
  facet normal 0 0 1
    outer loop
      vertex -5.1027803919498815 -4.79182974150082 0
      vertex -4.819686740241249 -2.6496452075594346 0
      vertex -5.113770672385383 -2.0246850397657283 0
    endloop
  endfacet
  facet normal 0 0 1
    outer loop
      vertex -5.1027803919498815 -4.79182974150082 0
      vertex -5.113770672385383 -2.0246850397657283 0
      vertex -5.327207386207471 -1.3677943794067016 0
    endloop
  endfacet
  facet normal -0.36812455268467814 -0.9297764858882512 0
    outer loop
      vertex -2.980455040955507 -6.333789367262137 -3
      vertex -2.1631189606246317 -6.657395614066075 0
      vertex -2.980455040955507 -6.333789367262137 0
    endloop
  endfacet
  facet normal -0.4817536741017148 -0.8763066800438638 0
    outer loop
      vertex -3.7507875648529776 -5.910295478514104 -3
      vertex -2.980455040955507 -6.333789367262137 0
      vertex -3.7507875648529776 -5.910295478514104 0
    endloop
  endfacet
  facet normal -0.24868988716485488 -0.9685831611286311 0
    outer loop
      vertex -2.1631189606246317 -6.657395614066075 -3
      vertex -1.3116692021000738 -6.87601075510082 0
      vertex -2.1631189606246317 -6.657395614066075 0
    endloop
  endfacet
  facet normal -0.12533323356430498 -0.9921147013144778 0
    outer loop
      vertex -1.3116692021000738 -6.87601075510082 -3
      vertex -0.43953363670519635 -6.986187098997901 0
      vertex -1.3116692021000738 -6.87601075510082 0
    endloop
  endfacet
  facet normal 0 -1 0
    outer loop
      vertex -0.43953363670519635 -6.986187098997901 -3
      vertex 0.43953363670519635 -6.986187098997901 0
      vertex -0.43953363670519635 -6.986187098997901 0
    endloop
  endfacet
  facet normal 0 0 1
    outer loop
      vertex -3.7507875648529776 -5.910295478514104 0
      vertex -2.980455040955507 -6.333789367262137 0
      vertex -3.505831943617793 -4.237822835266842 0
    endloop
  endfacet
  facet normal 0 0 1
    outer loop
      vertex -2.980455040955507 -6.333789367262137 0
      vertex -2.341786103607898 -4.9765487885631075 0
      vertex -2.9470473723844823 -4.643803590261082 0
    endloop
  endfacet
  facet normal 0 0 1
    outer loop
      vertex -2.980455040955507 -6.333789367262137 0
      vertex -2.1631189606246317 -6.657395614066075 0
      vertex -2.341786103607898 -4.9765487885631075 0
    endloop
  endfacet
  facet normal 0 0 1
    outer loop
      vertex -2.1631189606246317 -6.657395614066075 0
      vertex -1.6995934690622108 -5.230810839623344 0
      vertex -2.341786103607898 -4.9765487885631075 0
    endloop
  endfacet
  facet normal 0 0 1
    outer loop
      vertex -2.980455040955507 -6.333789367262137 0
      vertex -2.9470473723844823 -4.643803590261082 0
      vertex -3.505831943617793 -4.237822835266842 0
    endloop
  endfacet
  facet normal 0 0 1
    outer loop
      vertex -2.1631189606246317 -6.657395614066075 0
      vertex -1.3116692021000738 -6.87601075510082 0
      vertex -1.6995934690622108 -5.230810839623344 0
    endloop
  endfacet
  facet normal 0 0 1
    outer loop
      vertex -1.3116692021000738 -6.87601075510082 0
      vertex -0.43953363670519635 -6.986187098997901 0
      vertex -1.0305972302214865 -5.402579879007788 0
    endloop
  endfacet
  facet normal 0 0 1
    outer loop
      vertex -1.3116692021000738 -6.87601075510082 0
      vertex -1.0305972302214865 -5.402579879007788 0
      vertex -1.6995934690622108 -5.230810839623344 0
    endloop
  endfacet
  facet normal 0 0 1
    outer loop
      vertex -0.43953363670519635 -6.986187098997901 0
      vertex 0.43953363670519635 -6.986187098997901 0
      vertex -0.3453478574112257 -5.489147006355494 0
    endloop
  endfacet
  facet normal 0 0 1
    outer loop
      vertex -0.43953363670519635 -6.986187098997901 0
      vertex -0.3453478574112257 -5.489147006355494 0
      vertex -1.0305972302214865 -5.402579879007788 0
    endloop
  endfacet
  facet normal 0 0 -1
    outer loop
      vertex -6.9448029092013455 -0.8773326349501285 -3
      vertex -7 0 -3
      vertex -6.9448029092013455 0.8773326349501285 -3
    endloop
  endfacet
  facet normal 0 0 -1
    outer loop
      vertex -6.9448029092013455 -0.8773326349501285 -3
      vertex -6.9448029092013455 0.8773326349501285 -3
      vertex -6.7800821279004175 1.740829210153984 -3
    endloop
  endfacet
  facet normal 0 0 -1
    outer loop
      vertex -6.7800821279004175 -1.740829210153984 -3
      vertex -6.7800821279004175 1.740829210153984 -3
      vertex -6.50843540121776 2.576871868792745 -3
    endloop
  endfacet
  facet normal 0 0 -1
    outer loop
      vertex -6.50843540121776 -2.576871868792745 -3
      vertex -6.50843540121776 2.576871868792745 -3
      vertex -6.134146760307044 3.372275718712008 -3
    endloop
  endfacet
  facet normal 0 0 -1
    outer loop
      vertex -6.134146760307044 -3.372275718712008 -3
      vertex -6.134146760307044 3.372275718712008 -3
      vertex -5.663118960624632 4.114496766047312 -3
    endloop
  endfacet
  facet normal 0 0 -1
    outer loop
      vertex -5.663118960624632 -4.114496766047312 -3
      vertex -5.663118960624632 4.114496766047312 -3
      vertex -5.1027803919498815 4.79182974150082 -3
    endloop
  endfacet
  facet normal 0 0 -1
    outer loop
      vertex -3.7507875648529776 -5.910295478514104 -3
      vertex -3.7507875648529776 5.910295478514104 -3
      vertex -3.5357142857142856 0 -3
    endloop
  endfacet
  facet normal 0 0 -1
    outer loop
      vertex -5.1027803919498815 -4.79182974150082 -3
      vertex -5.1027803919498815 4.79182974150082 -3
      vertex -4.461967928240828 5.393592699430526 -3
    endloop
  endfacet
  facet normal 0 0 -1
    outer loop
      vertex -4.461967928240828 -5.393592699430526 -3
      vertex -4.461967928240828 5.393592699430526 -3
      vertex -3.7507875648529776 5.910295478514104 -3
    endloop
  endfacet
  facet normal 0 0 -1
    outer loop
      vertex -3.7507875648529776 5.910295478514104 -3
      vertex -3.507834122504761 0.443142504388075 -3
      vertex -3.5357142857142856 0 -3
    endloop
  endfacet
  facet normal 0 0 -1
    outer loop
      vertex -3.7507875648529776 5.910295478514104 -3
      vertex -3.424633319704803 0.879296386761451 -3
      vertex -3.507834122504761 0.443142504388075 -3
    endloop
  endfacet
  facet normal -0.9980267284282717 0.06279051952931274 0
    outer loop
      vertex -7 0 -3
      vertex -6.9448029092013455 0.8773326349501285 0
      vertex -6.9448029092013455 0.8773326349501285 -3
    endloop
  endfacet
  facet normal -0.9822872507286885 0.18738131458572532 0
    outer loop
      vertex -6.9448029092013455 0.8773326349501285 -3
      vertex -6.7800821279004175 1.740829210153984 0
      vertex -6.7800821279004175 1.740829210153984 -3
    endloop
  endfacet
  facet normal -0.9510565162951536 0.3090169943749475 0
    outer loop
      vertex -6.7800821279004175 1.740829210153984 -3
      vertex -6.50843540121776 2.576871868792745 0
      vertex -6.50843540121776 2.576871868792745 -3
    endloop
  endfacet
  facet normal -0.9048270524660196 0.42577929156507277 0
    outer loop
      vertex -6.50843540121776 2.576871868792745 -3
      vertex -6.134146760307044 3.372275718712008 0
      vertex -6.134146760307044 3.372275718712008 -3
    endloop
  endfacet
  facet normal -0.8443279255020152 0.5358267949789963 0
    outer loop
      vertex -6.134146760307044 3.372275718712008 -3
      vertex -5.663118960624632 4.114496766047312 0
      vertex -5.663118960624632 4.114496766047312 -3
    endloop
  endfacet
  facet normal -0.7705132427757893 0.6374239897486896 0
    outer loop
      vertex -5.663118960624632 4.114496766047312 -3
      vertex -5.1027803919498815 4.79182974150082 0
      vertex -5.1027803919498815 4.79182974150082 -3
    endloop
  endfacet
  facet normal -0.6845471059286894 0.7289686274214108 0
    outer loop
      vertex -5.1027803919498815 4.79182974150082 -3
      vertex -5.1027803919498815 4.79182974150082 0
      vertex -4.461967928240828 5.393592699430526 -3
    endloop
  endfacet
  facet normal -0.5877852522924721 0.8090169943749481 0
    outer loop
      vertex -4.461967928240828 5.393592699430526 -3
      vertex -4.461967928240828 5.393592699430526 0
      vertex -3.7507875648529776 5.910295478514104 -3
    endloop
  endfacet
  facet normal 0 0 -1
    outer loop
      vertex -2.980455040955509 6.333789367262137 -3
      vertex -3.2874240036763176 1.301583239849397 -3
      vertex -3.424633319704803 0.879296386761451 -3
    endloop
  endfacet
  facet normal 0 0 -1
    outer loop
      vertex -2.980455040955509 6.333789367262137 -3
      vertex -3.098370047297946 1.7033433477167796 -3
      vertex -3.2874240036763176 1.301583239849397 -3
    endloop
  endfacet
  facet normal 0 0 -1
    outer loop
      vertex -2.980455040955509 6.333789367262137 -3
      vertex -2.860452944397136 2.0782407134626726 -3
      vertex -3.098370047297946 1.7033433477167796 -3
    endloop
  endfacet
  facet normal 0 0 -1
    outer loop
      vertex -2.980455040955509 6.333789367262137 -3
      vertex -2.57742478981142 2.4203629816764343 -3
      vertex -2.860452944397136 2.0782407134626726 -3
    endloop
  endfacet
  facet normal 0 0 -1
    outer loop
      vertex -3.7507875648529776 5.910295478514104 -3
      vertex -2.980455040955509 6.333789367262137 -3
      vertex -3.424633319704803 0.879296386761451 -3
    endloop
  endfacet
  facet normal 0 0 -1
    outer loop
      vertex -2.1631189606246317 6.657395614066075 -3
      vertex -2.2537491066114383 2.7243146798143982 -3
      vertex -2.57742478981142 2.4203629816764343 -3
    endloop
  endfacet
  facet normal 0 0 -1
    outer loop
      vertex -2.1631189606246317 6.657395614066075 -3
      vertex -1.8945304536757388 2.9853023080249814 -3
      vertex -2.2537491066114383 2.7243146798143982 -3
    endloop
  endfacet
  facet normal 0 0 -1
    outer loop
      vertex -2.980455040955509 6.333789367262137 -3
      vertex -2.1631189606246317 6.657395614066075 -3
      vertex -2.57742478981142 2.4203629816764343 -3
    endloop
  endfacet
  facet normal 0 0 -1
    outer loop
      vertex -2.1631189606246317 6.657395614066075 -3
      vertex -1.311669202100072 6.876010755100821 -3
      vertex -1.8945304536757388 2.9853023080249814 -3
    endloop
  endfacet
  facet normal 0 0 -1
    outer loop
      vertex -1.311669202100072 6.876010755100821 -3
      vertex -1.5054339237479357 3.1992099355048547 -3
      vertex -1.8945304536757388 2.9853023080249814 -3
    endloop
  endfacet
  facet normal 0 0 -1
    outer loop
      vertex -1.311669202100072 6.876010755100821 -3
      vertex -1.0925958015399928 3.3626641111864357 -3
      vertex -1.5054339237479357 3.1992099355048547 -3
    endloop
  endfacet
  facet normal 0 0 -1
    outer loop
      vertex -1.311669202100072 6.876010755100821 -3
      vertex -0.6625267908566691 3.4730870650764354 -3
      vertex -1.0925958015399928 3.3626641111864357 -3
    endloop
  endfacet
  facet normal 0 0 -1
    outer loop
      vertex -0.43953363670519296 6.986187098997901 -3
      vertex -0.2220093369072148 3.528737361228532 -3
      vertex -0.6625267908566691 3.4730870650764354 -3
    endloop
  endfacet
  facet normal 0 0 -1
    outer loop
      vertex -0.43953363670519296 6.986187098997901 -3
      vertex 0.22200933690721403 3.528737361228532 -3
      vertex -0.2220093369072148 3.528737361228532 -3
    endloop
  endfacet
  facet normal 0 0 -1
    outer loop
      vertex -1.311669202100072 6.876010755100821 -3
      vertex -0.43953363670519296 6.986187098997901 -3
      vertex -0.6625267908566691 3.4730870650764354 -3
    endloop
  endfacet
  facet normal -0.4817536741017157 0.8763066800438634 0
    outer loop
      vertex -3.7507875648529776 5.910295478514104 -3
      vertex -3.7507875648529776 5.910295478514104 0
      vertex -2.980455040955509 6.333789367262137 -3
    endloop
  endfacet
  facet normal -0.3681245526846775 0.9297764858882517 0
    outer loop
      vertex -2.980455040955509 6.333789367262137 -3
      vertex -2.980455040955509 6.333789367262137 0
      vertex -2.1631189606246317 6.657395614066075 -3
    endloop
  endfacet
  facet normal -0.24868988716485535 0.968583161128631 0
    outer loop
      vertex -2.1631189606246317 6.657395614066075 -3
      vertex -2.1631189606246317 6.657395614066075 0
      vertex -1.311669202100072 6.876010755100821 -3
    endloop
  endfacet
  facet normal -0.12533323356430376 0.992114701314478 0
    outer loop
      vertex -1.311669202100072 6.876010755100821 -3
      vertex -1.311669202100072 6.876010755100821 0
      vertex -0.43953363670519296 6.986187098997901 -3
    endloop
  endfacet
  facet normal 0 1 0
    outer loop
      vertex -0.43953363670519296 6.986187098997901 -3
      vertex -0.43953363670519296 6.986187098997901 0
      vertex 0.43953363670519296 6.986187098997901 -3
    endloop
  endfacet
  facet normal -0.9980267284282717 0.06279051952931274 0
    outer loop
      vertex -7 0 -3
      vertex -7 0 0
      vertex -6.9448029092013455 0.8773326349501285 0
    endloop
  endfacet
  facet normal -0.9822872507286885 0.18738131458572532 0
    outer loop
      vertex -6.9448029092013455 0.8773326349501285 -3
      vertex -6.9448029092013455 0.8773326349501285 0
      vertex -6.7800821279004175 1.740829210153984 0
    endloop
  endfacet
  facet normal -0.9510565162951536 0.3090169943749475 0
    outer loop
      vertex -6.7800821279004175 1.740829210153984 -3
      vertex -6.7800821279004175 1.740829210153984 0
      vertex -6.50843540121776 2.576871868792745 0
    endloop
  endfacet
  facet normal -0.9048270524660196 0.42577929156507277 0
    outer loop
      vertex -6.50843540121776 2.576871868792745 -3
      vertex -6.50843540121776 2.576871868792745 0
      vertex -6.134146760307044 3.372275718712008 0
    endloop
  endfacet
  facet normal 0 0 1
    outer loop
      vertex -6.9448029092013455 -0.8773326349501285 0
      vertex -6.9448029092013455 0.8773326349501285 0
      vertex -7 0 0
    endloop
  endfacet
  facet normal 0 0 1
    outer loop
      vertex -6.7800821279004175 -1.740829210153984 0
      vertex -6.7800821279004175 1.740829210153984 0
      vertex -6.9448029092013455 0.8773326349501285 0
    endloop
  endfacet
  facet normal 0 0 1
    outer loop
      vertex -6.50843540121776 -2.576871868792745 0
      vertex -6.50843540121776 2.576871868792745 0
      vertex -6.7800821279004175 1.740829210153984 0
    endloop
  endfacet
  facet normal 0 0 1
    outer loop
      vertex -6.134146760307044 -3.372275718712008 0
      vertex -6.134146760307044 3.372275718712008 0
      vertex -6.50843540121776 2.576871868792745 0
    endloop
  endfacet
  facet normal 0 0 1
    outer loop
      vertex -5.663118960624632 -4.114496766047312 0
      vertex -5.5 0 0
      vertex -5.663118960624632 4.114496766047312 0
    endloop
  endfacet
  facet normal 0 0 1
    outer loop
      vertex -5.663118960624632 -4.114496766047312 0
      vertex -5.663118960624632 4.114496766047312 0
      vertex -6.134146760307044 3.372275718712008 0
    endloop
  endfacet
  facet normal 0 0 1
    outer loop
      vertex -5.663118960624632 4.114496766047312 0
      vertex -5.5 0 0
      vertex -5.456630857229628 0.6893327846036723 0
    endloop
  endfacet
  facet normal 0 0 1
    outer loop
      vertex -5.663118960624632 4.114496766047312 0
      vertex -5.456630857229628 0.6893327846036723 0
      vertex -5.327207386207471 1.3677943794067016 0
    endloop
  endfacet
  facet normal 0 0 1
    outer loop
      vertex -5.663118960624632 4.114496766047312 0
      vertex -5.327207386207471 1.3677943794067016 0
      vertex -5.113770672385383 2.0246850397657283 0
    endloop
  endfacet
  facet normal 0 0 1
    outer loop
      vertex -5.663118960624632 4.114496766047312 0
      vertex -5.113770672385383 2.0246850397657283 0
      vertex -4.819686740241249 2.6496452075594346 0
    endloop
  endfacet
  facet normal -0.8443279255020152 0.5358267949789963 0
    outer loop
      vertex -6.134146760307044 3.372275718712008 -3
      vertex -6.134146760307044 3.372275718712008 0
      vertex -5.663118960624632 4.114496766047312 0
    endloop
  endfacet
  facet normal -0.7705132427757893 0.6374239897486896 0
    outer loop
      vertex -5.663118960624632 4.114496766047312 -3
      vertex -5.663118960624632 4.114496766047312 0
      vertex -5.1027803919498815 4.79182974150082 0
    endloop
  endfacet
  facet normal -0.6845471059286894 0.7289686274214108 0
    outer loop
      vertex -4.461967928240828 5.393592699430526 -3
      vertex -5.1027803919498815 4.79182974150082 0
      vertex -4.461967928240828 5.393592699430526 0
    endloop
  endfacet
  facet normal -0.5877852522924721 0.8090169943749481 0
    outer loop
      vertex -3.7507875648529776 5.910295478514104 -3
      vertex -4.461967928240828 5.393592699430526 0
      vertex -3.7507875648529776 5.910295478514104 0
    endloop
  endfacet
  facet normal 0 0 1
    outer loop
      vertex -5.663118960624632 4.114496766047312 0
      vertex -4.819686740241249 2.6496452075594346 0
      vertex -5.1027803919498815 4.79182974150082 0
    endloop
  endfacet
  facet normal 0 0 1
    outer loop
      vertex -5.1027803919498815 4.79182974150082 0
      vertex -4.819686740241249 2.6496452075594346 0
      vertex -4.449593469062211 3.232818887608602 0
    endloop
  endfacet
  facet normal 0 0 1
    outer loop
      vertex -5.1027803919498815 4.79182974150082 0
      vertex -4.449593469062211 3.232818887608602 0
      vertex -4.461967928240828 5.393592699430526 0
    endloop
  endfacet
  facet normal 0 0 1
    outer loop
      vertex -4.461967928240828 5.393592699430526 0
      vertex -4.449593469062211 3.232818887608602 0
      vertex -4.009327450817764 3.765009082607787 0
    endloop
  endfacet
  facet normal 0 0 1
    outer loop
      vertex -4.461967928240828 5.393592699430526 0
      vertex -4.009327450817764 3.765009082607787 0
      vertex -3.505831943617793 4.237822835266842 0
    endloop
  endfacet
  facet normal 0 0 1
    outer loop
      vertex -4.461967928240828 5.393592699430526 0
      vertex -3.505831943617793 4.237822835266842 0
      vertex -3.7507875648529776 5.910295478514104 0
    endloop
  endfacet
  facet normal -0.4817536741017157 0.8763066800438634 0
    outer loop
      vertex -2.980455040955509 6.333789367262137 -3
      vertex -3.7507875648529776 5.910295478514104 0
      vertex -2.980455040955509 6.333789367262137 0
    endloop
  endfacet
  facet normal -0.3681245526846775 0.9297764858882517 0
    outer loop
      vertex -2.1631189606246317 6.657395614066075 -3
      vertex -2.980455040955509 6.333789367262137 0
      vertex -2.1631189606246317 6.657395614066075 0
    endloop
  endfacet
  facet normal -0.24868988716485535 0.968583161128631 0
    outer loop
      vertex -1.311669202100072 6.876010755100821 -3
      vertex -2.1631189606246317 6.657395614066075 0
      vertex -1.311669202100072 6.876010755100821 0
    endloop
  endfacet
  facet normal -0.12533323356430376 0.992114701314478 0
    outer loop
      vertex -0.43953363670519296 6.986187098997901 -3
      vertex -1.311669202100072 6.876010755100821 0
      vertex -0.43953363670519296 6.986187098997901 0
    endloop
  endfacet
  facet normal 0 0 1
    outer loop
      vertex -3.7507875648529776 5.910295478514104 0
      vertex -3.505831943617793 4.237822835266842 0
      vertex -2.9470473723844823 4.643803590261082 0
    endloop
  endfacet
  facet normal 0 0 1
    outer loop
      vertex -3.7507875648529776 5.910295478514104 0
      vertex -2.9470473723844823 4.643803590261082 0
      vertex -2.980455040955509 6.333789367262137 0
    endloop
  endfacet
  facet normal 0 0 1
    outer loop
      vertex -2.980455040955509 6.333789367262137 0
      vertex -2.9470473723844823 4.643803590261082 0
      vertex -2.3417861036079 4.9765487885631075 0
    endloop
  endfacet
  facet normal 0 0 1
    outer loop
      vertex -2.980455040955509 6.333789367262137 0
      vertex -2.3417861036079 4.9765487885631075 0
      vertex -1.6995934690622108 5.230810839623344 0
    endloop
  endfacet
  facet normal 0 0 1
    outer loop
      vertex -2.980455040955509 6.333789367262137 0
      vertex -1.6995934690622108 5.230810839623344 0
      vertex -2.1631189606246317 6.657395614066075 0
    endloop
  endfacet
  facet normal 0 0 1
    outer loop
      vertex -2.1631189606246317 6.657395614066075 0
      vertex -1.6995934690622108 5.230810839623344 0
      vertex -1.0305972302214852 5.402579879007788 0
    endloop
  endfacet
  facet normal 0 0 1
    outer loop
      vertex -1.311669202100072 6.876010755100821 0
      vertex -1.0305972302214852 5.402579879007788 0
      vertex -0.3453478574112227 5.489147006355494 0
    endloop
  endfacet
  facet normal 0 0 1
    outer loop
      vertex -2.1631189606246317 6.657395614066075 0
      vertex -1.0305972302214852 5.402579879007788 0
      vertex -1.311669202100072 6.876010755100821 0
    endloop
  endfacet
  facet normal 0 0 1
    outer loop
      vertex -1.311669202100072 6.876010755100821 0
      vertex -0.3453478574112227 5.489147006355494 0
      vertex -0.43953363670519296 6.986187098997901 0
    endloop
  endfacet
  facet normal 0 0 1
    outer loop
      vertex -0.43953363670519296 6.986187098997901 0
      vertex -0.3453478574112227 5.489147006355494 0
      vertex 0.43953363670519296 6.986187098997901 0
    endloop
  endfacet
  facet normal 0 0 -1
    outer loop
      vertex 0.43953363670519635 -6.986187098997901 -3
      vertex 0.66252679085667 -3.473087065076435 -3
      vertex 1.3116692021000738 -6.87601075510082 -3
    endloop
  endfacet
  facet normal 0 0 -1
    outer loop
      vertex 0.43953363670519635 -6.986187098997901 -3
      vertex -0.22200933690721653 -3.528737361228532 -3
      vertex 0.22200933690721653 -3.528737361228532 -3
    endloop
  endfacet
  facet normal 0 0 -1
    outer loop
      vertex 0.43953363670519635 -6.986187098997901 -3
      vertex 0.22200933690721653 -3.528737361228532 -3
      vertex 0.66252679085667 -3.473087065076435 -3
    endloop
  endfacet
  facet normal 0 0 -1
    outer loop
      vertex 1.3116692021000738 -6.87601075510082 -3
      vertex 0.66252679085667 -3.473087065076435 -3
      vertex 1.0925958015399926 -3.3626641111864357 -3
    endloop
  endfacet
  facet normal 0 0 -1
    outer loop
      vertex 1.3116692021000738 -6.87601075510082 -3
      vertex 1.0925958015399926 -3.3626641111864357 -3
      vertex 1.5054339237479346 -3.199209935504855 -3
    endloop
  endfacet
  facet normal 0 0 -1
    outer loop
      vertex 1.3116692021000738 -6.87601075510082 -3
      vertex 1.5054339237479346 -3.199209935504855 -3
      vertex 1.8945304536757368 -2.985302308024983 -3
    endloop
  endfacet
  facet normal 0 0 -1
    outer loop
      vertex 1.3116692021000738 -6.87601075510082 -3
      vertex 1.8945304536757368 -2.985302308024983 -3
      vertex 2.1631189606246317 -6.657395614066075 -3
    endloop
  endfacet
  facet normal 0 0 -1
    outer loop
      vertex 2.1631189606246317 -6.657395614066075 -3
      vertex 2.57742478981142 -2.4203629816764347 -3
      vertex 2.980455040955507 -6.333789367262137 -3
    endloop
  endfacet
  facet normal 0 0 -1
    outer loop
      vertex 2.1631189606246317 -6.657395614066075 -3
      vertex 1.8945304536757368 -2.985302308024983 -3
      vertex 2.2537491066114392 -2.7243146798143973 -3
    endloop
  endfacet
  facet normal 0 0 -1
    outer loop
      vertex 2.1631189606246317 -6.657395614066075 -3
      vertex 2.2537491066114392 -2.7243146798143973 -3
      vertex 2.57742478981142 -2.4203629816764347 -3
    endloop
  endfacet
  facet normal 0 0 -1
    outer loop
      vertex 2.980455040955507 -6.333789367262137 -3
      vertex 3.424633319704803 -0.8792963867614496 -3
      vertex 3.7507875648529736 -5.910295478514107 -3
    endloop
  endfacet
  facet normal 0 0 -1
    outer loop
      vertex 2.980455040955507 -6.333789367262137 -3
      vertex 2.57742478981142 -2.4203629816764347 -3
      vertex 2.860452944397136 -2.078240713462673 -3
    endloop
  endfacet
  facet normal 0 -1 0
    outer loop
      vertex -0.43953363670519635 -6.986187098997901 -3
      vertex 0.43953363670519635 -6.986187098997901 -3
      vertex 0.43953363670519635 -6.986187098997901 0
    endloop
  endfacet
  facet normal 0.12533323356430498 -0.9921147013144778 0
    outer loop
      vertex 0.43953363670519635 -6.986187098997901 -3
      vertex 1.3116692021000738 -6.87601075510082 -3
      vertex 1.3116692021000738 -6.87601075510082 0
    endloop
  endfacet
  facet normal 0.24868988716485488 -0.9685831611286311 0
    outer loop
      vertex 1.3116692021000738 -6.87601075510082 -3
      vertex 2.1631189606246317 -6.657395614066075 -3
      vertex 2.1631189606246317 -6.657395614066075 0
    endloop
  endfacet
  facet normal 0.36812455268467814 -0.9297764858882512 0
    outer loop
      vertex 2.1631189606246317 -6.657395614066075 -3
      vertex 2.980455040955507 -6.333789367262137 -3
      vertex 2.980455040955507 -6.333789367262137 0
    endloop
  endfacet
  facet normal 0.4817536741017145 -0.8763066800438641 0
    outer loop
      vertex 2.980455040955507 -6.333789367262137 -3
      vertex 3.7507875648529736 -5.910295478514107 -3
      vertex 3.7507875648529736 -5.910295478514107 0
    endloop
  endfacet
  facet normal 0 0 -1
    outer loop
      vertex 2.980455040955507 -6.333789367262137 -3
      vertex 2.860452944397136 -2.078240713462673 -3
      vertex 3.0983700472979456 -1.7033433477167794 -3
    endloop
  endfacet
  facet normal 0 0 -1
    outer loop
      vertex 2.980455040955507 -6.333789367262137 -3
      vertex 3.0983700472979456 -1.7033433477167794 -3
      vertex 3.287424003676317 -1.3015832398493987 -3
    endloop
  endfacet
  facet normal 0 0 -1
    outer loop
      vertex 2.980455040955507 -6.333789367262137 -3
      vertex 3.287424003676317 -1.3015832398493987 -3
      vertex 3.424633319704803 -0.8792963867614496 -3
    endloop
  endfacet
  facet normal 0.587785252292473 -0.8090169943749476 0
    outer loop
      vertex 3.7507875648529736 -5.910295478514107 -3
      vertex 4.4619679282408296 -5.393592699430523 -3
      vertex 4.4619679282408296 -5.393592699430523 0
    endloop
  endfacet
  facet normal 0.6845471059286887 -0.7289686274214113 0
    outer loop
      vertex 4.4619679282408296 -5.393592699430523 -3
      vertex 5.1027803919498815 -4.79182974150082 -3
      vertex 5.1027803919498815 -4.79182974150082 0
    endloop
  endfacet
  facet normal 0.7705132427757893 -0.6374239897486896 0
    outer loop
      vertex 5.1027803919498815 -4.79182974150082 -3
      vertex 5.663118960624632 -4.114496766047312 -3
      vertex 5.1027803919498815 -4.79182974150082 0
    endloop
  endfacet
  facet normal 0.8443279255020152 -0.5358267949789963 0
    outer loop
      vertex 5.663118960624632 -4.114496766047312 -3
      vertex 6.134146760307044 -3.372275718712008 -3
      vertex 5.663118960624632 -4.114496766047312 0
    endloop
  endfacet
  facet normal 0 0 -1
    outer loop
      vertex 3.7507875648529736 -5.910295478514107 -3
      vertex 3.424633319704803 -0.8792963867614496 -3
      vertex 3.507834122504761 -0.44314250438807506 -3
    endloop
  endfacet
  facet normal 0 0 -1
    outer loop
      vertex 3.7507875648529736 -5.910295478514107 -3
      vertex 3.507834122504761 -0.44314250438807506 -3
      vertex 3.5357142857142856 0 -3
    endloop
  endfacet
  facet normal 0 0 -1
    outer loop
      vertex 3.7507875648529736 -5.910295478514107 -3
      vertex 4.461967928240828 5.393592699430524 -3
      vertex 4.4619679282408296 -5.393592699430523 -3
    endloop
  endfacet
  facet normal 0 0 -1
    outer loop
      vertex 4.4619679282408296 -5.393592699430523 -3
      vertex 5.102780391949881 4.7918297415008215 -3
      vertex 5.1027803919498815 -4.79182974150082 -3
    endloop
  endfacet
  facet normal 0 0 -1
    outer loop
      vertex 3.7507875648529736 -5.910295478514107 -3
      vertex 3.5357142857142856 0 -3
      vertex 3.7507875648529767 5.910295478514105 -3
    endloop
  endfacet
  facet normal 0 0 -1
    outer loop
      vertex 5.1027803919498815 -4.79182974150082 -3
      vertex 5.663118960624632 4.114496766047312 -3
      vertex 5.663118960624632 -4.114496766047312 -3
    endloop
  endfacet
  facet normal 0 0 -1
    outer loop
      vertex 5.663118960624632 -4.114496766047312 -3
      vertex 6.134146760307045 3.3722757187120074 -3
      vertex 6.134146760307044 -3.372275718712008 -3
    endloop
  endfacet
  facet normal 0 0 -1
    outer loop
      vertex 6.134146760307044 -3.372275718712008 -3
      vertex 6.50843540121776 2.576871868792746 -3
      vertex 6.508435401217759 -2.5768718687927485 -3
    endloop
  endfacet
  facet normal 0 0 -1
    outer loop
      vertex 6.508435401217759 -2.5768718687927485 -3
      vertex 6.7800821279004175 1.7408292101539835 -3
      vertex 6.780082127900418 -1.740829210153981 -3
    endloop
  endfacet
  facet normal 0 0 -1
    outer loop
      vertex 6.780082127900418 -1.740829210153981 -3
      vertex 6.9448029092013455 0.8773326349501298 -3
      vertex 6.9448029092013455 -0.8773326349501285 -3
    endloop
  endfacet
  facet normal 0.9048270524660191 -0.4257792915650735 0
    outer loop
      vertex 6.134146760307044 -3.372275718712008 -3
      vertex 6.508435401217759 -2.5768718687927485 -3
      vertex 6.134146760307044 -3.372275718712008 0
    endloop
  endfacet
  facet normal 0.9510565162951536 -0.3090169943749471 0
    outer loop
      vertex 6.508435401217759 -2.5768718687927485 -3
      vertex 6.780082127900418 -1.740829210153981 -3
      vertex 6.508435401217759 -2.5768718687927485 0
    endloop
  endfacet
  facet normal 0.9822872507286886 -0.18738131458572496 0
    outer loop
      vertex 6.780082127900418 -1.740829210153981 -3
      vertex 6.9448029092013455 -0.8773326349501285 -3
      vertex 6.780082127900418 -1.740829210153981 0
    endloop
  endfacet
  facet normal 0.9980267284282717 -0.06279051952931274 0
    outer loop
      vertex 6.9448029092013455 -0.8773326349501285 -3
      vertex 7 0 -3
      vertex 6.9448029092013455 -0.8773326349501285 0
    endloop
  endfacet
  facet normal 0.12533323356430498 -0.9921147013144778 0
    outer loop
      vertex 0.43953363670519635 -6.986187098997901 -3
      vertex 1.3116692021000738 -6.87601075510082 0
      vertex 0.43953363670519635 -6.986187098997901 0
    endloop
  endfacet
  facet normal 0.24868988716485488 -0.9685831611286311 0
    outer loop
      vertex 1.3116692021000738 -6.87601075510082 -3
      vertex 2.1631189606246317 -6.657395614066075 0
      vertex 1.3116692021000738 -6.87601075510082 0
    endloop
  endfacet
  facet normal 0.36812455268467814 -0.9297764858882512 0
    outer loop
      vertex 2.1631189606246317 -6.657395614066075 -3
      vertex 2.980455040955507 -6.333789367262137 0
      vertex 2.1631189606246317 -6.657395614066075 0
    endloop
  endfacet
  facet normal 0.4817536741017145 -0.8763066800438641 0
    outer loop
      vertex 2.980455040955507 -6.333789367262137 -3
      vertex 3.7507875648529736 -5.910295478514107 0
      vertex 2.980455040955507 -6.333789367262137 0
    endloop
  endfacet
  facet normal 0 0 1
    outer loop
      vertex 0.43953363670519635 -6.986187098997901 0
      vertex 1.3116692021000738 -6.87601075510082 0
      vertex 0.3453478574112257 -5.489147006355494 0
    endloop
  endfacet
  facet normal 0 0 1
    outer loop
      vertex 0.43953363670519635 -6.986187098997901 0
      vertex 0.3453478574112257 -5.489147006355494 0
      vertex -0.3453478574112257 -5.489147006355494 0
    endloop
  endfacet
  facet normal 0 0 1
    outer loop
      vertex 1.3116692021000738 -6.87601075510082 0
      vertex 2.1631189606246317 -6.657395614066075 0
      vertex 1.0305972302214865 -5.402579879007788 0
    endloop
  endfacet
  facet normal 0 0 1
    outer loop
      vertex 1.3116692021000738 -6.87601075510082 0
      vertex 1.0305972302214865 -5.402579879007788 0
      vertex 0.3453478574112257 -5.489147006355494 0
    endloop
  endfacet
  facet normal 0 0 1
    outer loop
      vertex 2.1631189606246317 -6.657395614066075 0
      vertex 1.6995934690622108 -5.230810839623344 0
      vertex 1.0305972302214865 -5.402579879007788 0
    endloop
  endfacet
  facet normal 0 0 1
    outer loop
      vertex 2.1631189606246317 -6.657395614066075 0
      vertex 2.980455040955507 -6.333789367262137 0
      vertex 1.6995934690622108 -5.230810839623344 0
    endloop
  endfacet
  facet normal 0 0 1
    outer loop
      vertex 2.980455040955507 -6.333789367262137 0
      vertex 2.341786103607898 -4.9765487885631075 0
      vertex 1.6995934690622108 -5.230810839623344 0
    endloop
  endfacet
  facet normal 0 0 1
    outer loop
      vertex 2.980455040955507 -6.333789367262137 0
      vertex 2.9470473723844792 -4.643803590261085 0
      vertex 2.341786103607898 -4.9765487885631075 0
    endloop
  endfacet
  facet normal 0 0 1
    outer loop
      vertex 2.980455040955507 -6.333789367262137 0
      vertex 3.7507875648529736 -5.910295478514107 0
      vertex 2.9470473723844792 -4.643803590261085 0
    endloop
  endfacet
  facet normal 0 0 1
    outer loop
      vertex 3.7507875648529736 -5.910295478514107 0
      vertex 3.5058319436177947 -4.23782283526684 0
      vertex 2.9470473723844792 -4.643803590261085 0
    endloop
  endfacet
  facet normal 0.587785252292473 -0.8090169943749476 0
    outer loop
      vertex 3.7507875648529736 -5.910295478514107 -3
      vertex 4.4619679282408296 -5.393592699430523 0
      vertex 3.7507875648529736 -5.910295478514107 0
    endloop
  endfacet
  facet normal 0.6845471059286887 -0.7289686274214113 0
    outer loop
      vertex 4.4619679282408296 -5.393592699430523 -3
      vertex 5.1027803919498815 -4.79182974150082 0
      vertex 4.4619679282408296 -5.393592699430523 0
    endloop
  endfacet
  facet normal 0.7705132427757893 -0.6374239897486896 0
    outer loop
      vertex 5.663118960624632 -4.114496766047312 -3
      vertex 5.663118960624632 -4.114496766047312 0
      vertex 5.1027803919498815 -4.79182974150082 0
    endloop
  endfacet
  facet normal 0.8443279255020152 -0.5358267949789963 0
    outer loop
      vertex 6.134146760307044 -3.372275718712008 -3
      vertex 6.134146760307044 -3.372275718712008 0
      vertex 5.663118960624632 -4.114496766047312 0
    endloop
  endfacet
  facet normal 0 0 1
    outer loop
      vertex 3.7507875648529736 -5.910295478514107 0
      vertex 4.4619679282408296 -5.393592699430523 0
      vertex 3.5058319436177947 -4.23782283526684 0
    endloop
  endfacet
  facet normal 0 0 1
    outer loop
      vertex 4.4619679282408296 -5.393592699430523 0
      vertex 4.009327450817764 -3.765009082607787 0
      vertex 3.5058319436177947 -4.23782283526684 0
    endloop
  endfacet
  facet normal 0 0 1
    outer loop
      vertex 4.4619679282408296 -5.393592699430523 0
      vertex 4.449593469062211 -3.232818887608602 0
      vertex 4.009327450817764 -3.765009082607787 0
    endloop
  endfacet
  facet normal 0 0 1
    outer loop
      vertex 4.4619679282408296 -5.393592699430523 0
      vertex 5.1027803919498815 -4.79182974150082 0
      vertex 4.449593469062211 -3.232818887608602 0
    endloop
  endfacet
  facet normal 0 0 1
    outer loop
      vertex 5.1027803919498815 -4.79182974150082 0
      vertex 4.819686740241249 -2.6496452075594346 0
      vertex 4.449593469062211 -3.232818887608602 0
    endloop
  endfacet
  facet normal 0 0 1
    outer loop
      vertex 5.1027803919498815 -4.79182974150082 0
      vertex 5.663118960624632 -4.114496766047312 0
      vertex 4.819686740241249 -2.6496452075594346 0
    endloop
  endfacet
  facet normal 0.9048270524660191 -0.4257792915650735 0
    outer loop
      vertex 6.508435401217759 -2.5768718687927485 -3
      vertex 6.508435401217759 -2.5768718687927485 0
      vertex 6.134146760307044 -3.372275718712008 0
    endloop
  endfacet
  facet normal 0.9510565162951536 -0.3090169943749471 0
    outer loop
      vertex 6.780082127900418 -1.740829210153981 -3
      vertex 6.780082127900418 -1.740829210153981 0
      vertex 6.508435401217759 -2.5768718687927485 0
    endloop
  endfacet
  facet normal 0.9822872507286886 -0.18738131458572496 0
    outer loop
      vertex 6.9448029092013455 -0.8773326349501285 -3
      vertex 6.9448029092013455 -0.8773326349501285 0
      vertex 6.780082127900418 -1.740829210153981 0
    endloop
  endfacet
  facet normal 0.9980267284282717 -0.06279051952931274 0
    outer loop
      vertex 6.9448029092013455 -0.8773326349501285 0
      vertex 7 0 -3
      vertex 7 0 0
    endloop
  endfacet
  facet normal 0 0 1
    outer loop
      vertex 5.663118960624632 -4.114496766047312 0
      vertex 5.113770672385382 -2.024685039765731 0
      vertex 4.819686740241249 -2.6496452075594346 0
    endloop
  endfacet
  facet normal 0 0 1
    outer loop
      vertex 5.663118960624632 -4.114496766047312 0
      vertex 5.327207386207472 -1.3677943794066993 0
      vertex 5.113770672385382 -2.024685039765731 0
    endloop
  endfacet
  facet normal 0 0 1
    outer loop
      vertex 5.663118960624632 -4.114496766047312 0
      vertex 5.456630857229628 -0.6893327846036723 0
      vertex 5.327207386207472 -1.3677943794066993 0
    endloop
  endfacet
  facet normal 0 0 1
    outer loop
      vertex 5.663118960624632 -4.114496766047312 0
      vertex 5.5 0 0
      vertex 5.456630857229628 -0.6893327846036723 0
    endloop
  endfacet
  facet normal 0 0 1
    outer loop
      vertex 5.663118960624632 -4.114496766047312 0
      vertex 6.134146760307044 -3.372275718712008 0
      vertex 5.663118960624632 4.114496766047312 0
    endloop
  endfacet
  facet normal 0 0 1
    outer loop
      vertex 6.134146760307044 -3.372275718712008 0
      vertex 6.508435401217759 -2.5768718687927485 0
      vertex 6.134146760307045 3.3722757187120074 0
    endloop
  endfacet
  facet normal 0 0 1
    outer loop
      vertex 6.508435401217759 -2.5768718687927485 0
      vertex 6.780082127900418 -1.740829210153981 0
      vertex 6.50843540121776 2.576871868792746 0
    endloop
  endfacet
  facet normal 0 0 1
    outer loop
      vertex 6.780082127900418 -1.740829210153981 0
      vertex 6.9448029092013455 -0.8773326349501285 0
      vertex 6.7800821279004175 1.7408292101539835 0
    endloop
  endfacet
  facet normal 0 0 -1
    outer loop
      vertex 3.7507875648529767 5.910295478514105 -3
      vertex 3.4246333197048027 0.8792963867614508 -3
      vertex 3.2874240036763176 1.3015832398493972 -3
    endloop
  endfacet
  facet normal 0 0 -1
    outer loop
      vertex 3.7507875648529767 5.910295478514105 -3
      vertex 3.2874240036763176 1.3015832398493972 -3
      vertex 3.0983700472979465 1.7033433477167792 -3
    endloop
  endfacet
  facet normal 0 0 -1
    outer loop
      vertex 3.7507875648529767 5.910295478514105 -3
      vertex 3.0983700472979465 1.7033433477167792 -3
      vertex 2.860452944397136 2.0782407134626726 -3
    endloop
  endfacet
  facet normal 0 0 -1
    outer loop
      vertex 1.311669202100072 6.876010755100821 -3
      vertex 0.6625267908566691 3.473087065076435 -3
      vertex 0.22200933690721403 3.528737361228532 -3
    endloop
  endfacet
  facet normal 0 0 -1
    outer loop
      vertex 1.311669202100072 6.876010755100821 -3
      vertex 1.0925958015399926 3.3626641111864357 -3
      vertex 0.6625267908566691 3.473087065076435 -3
    endloop
  endfacet
  facet normal 0 0 -1
    outer loop
      vertex 2.1631189606246317 6.657395614066075 -3
      vertex 1.5054339237479357 3.199209935504855 -3
      vertex 1.0925958015399926 3.3626641111864357 -3
    endloop
  endfacet
  facet normal 0 0 -1
    outer loop
      vertex -0.43953363670519296 6.986187098997901 -3
      vertex 0.43953363670519296 6.986187098997901 -3
      vertex 0.22200933690721403 3.528737361228532 -3
    endloop
  endfacet
  facet normal 0 0 -1
    outer loop
      vertex 0.43953363670519296 6.986187098997901 -3
      vertex 1.311669202100072 6.876010755100821 -3
      vertex 0.22200933690721403 3.528737361228532 -3
    endloop
  endfacet
  facet normal 0 0 -1
    outer loop
      vertex 1.311669202100072 6.876010755100821 -3
      vertex 2.1631189606246317 6.657395614066075 -3
      vertex 1.0925958015399926 3.3626641111864357 -3
    endloop
  endfacet
  facet normal 0 0 -1
    outer loop
      vertex 2.1631189606246317 6.657395614066075 -3
      vertex 1.8945304536757381 2.9853023080249823 -3
      vertex 1.5054339237479357 3.199209935504855 -3
    endloop
  endfacet
  facet normal 0 0 -1
    outer loop
      vertex 2.980455040955509 6.333789367262137 -3
      vertex 2.5774247898114195 2.4203629816764356 -3
      vertex 2.253749106611439 2.7243146798143973 -3
    endloop
  endfacet
  facet normal 0 0 -1
    outer loop
      vertex 2.980455040955509 6.333789367262137 -3
      vertex 2.253749106611439 2.7243146798143973 -3
      vertex 1.8945304536757381 2.9853023080249823 -3
    endloop
  endfacet
  facet normal 0 0 -1
    outer loop
      vertex 2.980455040955509 6.333789367262137 -3
      vertex 2.860452944397136 2.0782407134626726 -3
      vertex 2.5774247898114195 2.4203629816764356 -3
    endloop
  endfacet
  facet normal 0 0 -1
    outer loop
      vertex 2.980455040955509 6.333789367262137 -3
      vertex 3.7507875648529767 5.910295478514105 -3
      vertex 2.860452944397136 2.0782407134626726 -3
    endloop
  endfacet
  facet normal 0 0 -1
    outer loop
      vertex 2.1631189606246317 6.657395614066075 -3
      vertex 2.980455040955509 6.333789367262137 -3
      vertex 1.8945304536757381 2.9853023080249823 -3
    endloop
  endfacet
  facet normal 0.12533323356430376 0.992114701314478 0
    outer loop
      vertex 0.43953363670519296 6.986187098997901 -3
      vertex 0.43953363670519296 6.986187098997901 0
      vertex 1.311669202100072 6.876010755100821 -3
    endloop
  endfacet
  facet normal 0.24868988716485535 0.968583161128631 0
    outer loop
      vertex 1.311669202100072 6.876010755100821 -3
      vertex 1.311669202100072 6.876010755100821 0
      vertex 2.1631189606246317 6.657395614066075 -3
    endloop
  endfacet
  facet normal 0.3681245526846775 0.9297764858882517 0
    outer loop
      vertex 2.1631189606246317 6.657395614066075 -3
      vertex 2.1631189606246317 6.657395614066075 0
      vertex 2.980455040955509 6.333789367262137 -3
    endloop
  endfacet
  facet normal 0.4817536741017154 0.8763066800438636 0
    outer loop
      vertex 2.980455040955509 6.333789367262137 -3
      vertex 2.980455040955509 6.333789367262137 0
      vertex 3.7507875648529767 5.910295478514105 -3
    endloop
  endfacet
  facet normal 0 0 -1
    outer loop
      vertex 4.4619679282408296 -5.393592699430523 -3
      vertex 4.461967928240828 5.393592699430524 -3
      vertex 5.102780391949881 4.7918297415008215 -3
    endloop
  endfacet
  facet normal 0 0 -1
    outer loop
      vertex 3.7507875648529767 5.910295478514105 -3
      vertex 3.5357142857142856 0 -3
      vertex 3.5078341225047613 0.4431425043880758 -3
    endloop
  endfacet
  facet normal 0 0 -1
    outer loop
      vertex 3.7507875648529767 5.910295478514105 -3
      vertex 3.5078341225047613 0.4431425043880758 -3
      vertex 3.4246333197048027 0.8792963867614508 -3
    endloop
  endfacet
  facet normal 0 0 -1
    outer loop
      vertex 3.7507875648529736 -5.910295478514107 -3
      vertex 3.7507875648529767 5.910295478514105 -3
      vertex 4.461967928240828 5.393592699430524 -3
    endloop
  endfacet
  facet normal 0 0 -1
    outer loop
      vertex 5.1027803919498815 -4.79182974150082 -3
      vertex 5.102780391949881 4.7918297415008215 -3
      vertex 5.663118960624632 4.114496766047312 -3
    endloop
  endfacet
  facet normal 0 0 -1
    outer loop
      vertex 5.663118960624632 -4.114496766047312 -3
      vertex 5.663118960624632 4.114496766047312 -3
      vertex 6.134146760307045 3.3722757187120074 -3
    endloop
  endfacet
  facet normal 0 0 -1
    outer loop
      vertex 6.134146760307044 -3.372275718712008 -3
      vertex 6.134146760307045 3.3722757187120074 -3
      vertex 6.50843540121776 2.576871868792746 -3
    endloop
  endfacet
  facet normal 0 0 -1
    outer loop
      vertex 6.9448029092013455 -0.8773326349501285 -3
      vertex 6.9448029092013455 0.8773326349501298 -3
      vertex 7 0 -3
    endloop
  endfacet
  facet normal 0 0 -1
    outer loop
      vertex 6.780082127900418 -1.740829210153981 -3
      vertex 6.7800821279004175 1.7408292101539835 -3
      vertex 6.9448029092013455 0.8773326349501298 -3
    endloop
  endfacet
  facet normal 0 0 -1
    outer loop
      vertex 6.508435401217759 -2.5768718687927485 -3
      vertex 6.50843540121776 2.576871868792746 -3
      vertex 6.7800821279004175 1.7408292101539835 -3
    endloop
  endfacet
  facet normal 0.9980267284282717 0.06279051952931264 0
    outer loop
      vertex 7 0 -3
      vertex 6.9448029092013455 0.8773326349501298 -3
      vertex 7 0 0
    endloop
  endfacet
  facet normal 0.9822872507286885 0.1873813145857257 0
    outer loop
      vertex 6.9448029092013455 0.8773326349501298 -3
      vertex 6.7800821279004175 1.7408292101539835 -3
      vertex 6.9448029092013455 0.8773326349501298 0
    endloop
  endfacet
  facet normal 0.9510565162951536 0.30901699437494695 0
    outer loop
      vertex 6.7800821279004175 1.7408292101539835 -3
      vertex 6.50843540121776 2.576871868792746 -3
      vertex 6.7800821279004175 1.7408292101539835 0
    endloop
  endfacet
  facet normal 0.9048270524660196 0.42577929156507244 0
    outer loop
      vertex 6.50843540121776 2.576871868792746 -3
      vertex 6.134146760307045 3.3722757187120074 -3
      vertex 6.50843540121776 2.576871868792746 0
    endloop
  endfacet
  facet normal 0.6845471059286877 0.7289686274214123 0
    outer loop
      vertex 5.102780391949881 4.7918297415008215 -3
      vertex 4.461967928240828 5.393592699430524 -3
      vertex 4.461967928240828 5.393592699430524 0
    endloop
  endfacet
  facet normal 0.5877852522924736 0.809016994374947 0
    outer loop
      vertex 3.7507875648529767 5.910295478514105 -3
      vertex 3.7507875648529767 5.910295478514105 0
      vertex 4.461967928240828 5.393592699430524 -3
    endloop
  endfacet
  facet normal 0.7705132427757896 0.6374239897486893 0
    outer loop
      vertex 5.102780391949881 4.7918297415008215 -3
      vertex 5.663118960624632 4.114496766047312 0
      vertex 5.663118960624632 4.114496766047312 -3
    endloop
  endfacet
  facet normal 0.844327925502015 0.5358267949789969 0
    outer loop
      vertex 6.134146760307045 3.3722757187120074 -3
      vertex 5.663118960624632 4.114496766047312 -3
      vertex 6.134146760307045 3.3722757187120074 0
    endloop
  endfacet
  facet normal 0 1 0
    outer loop
      vertex -0.43953363670519296 6.986187098997901 0
      vertex 0.43953363670519296 6.986187098997901 0
      vertex 0.43953363670519296 6.986187098997901 -3
    endloop
  endfacet
  facet normal 0.12533323356430376 0.992114701314478 0
    outer loop
      vertex 1.311669202100072 6.876010755100821 -3
      vertex 0.43953363670519296 6.986187098997901 0
      vertex 1.311669202100072 6.876010755100821 0
    endloop
  endfacet
  facet normal 0.24868988716485535 0.968583161128631 0
    outer loop
      vertex 2.1631189606246317 6.657395614066075 -3
      vertex 1.311669202100072 6.876010755100821 0
      vertex 2.1631189606246317 6.657395614066075 0
    endloop
  endfacet
  facet normal 0.4817536741017154 0.8763066800438636 0
    outer loop
      vertex 3.7507875648529767 5.910295478514105 -3
      vertex 2.980455040955509 6.333789367262137 0
      vertex 3.7507875648529767 5.910295478514105 0
    endloop
  endfacet
  facet normal 0.3681245526846775 0.9297764858882517 0
    outer loop
      vertex 2.980455040955509 6.333789367262137 -3
      vertex 2.1631189606246317 6.657395614066075 0
      vertex 2.980455040955509 6.333789367262137 0
    endloop
  endfacet
  facet normal 0 0 1
    outer loop
      vertex 0.43953363670519296 6.986187098997901 0
      vertex -0.3453478574112227 5.489147006355494 0
      vertex 0.34534785741122304 5.489147006355494 0
    endloop
  endfacet
  facet normal 0 0 1
    outer loop
      vertex 0.43953363670519296 6.986187098997901 0
      vertex 0.34534785741122304 5.489147006355494 0
      vertex 1.0305972302214852 5.402579879007788 0
    endloop
  endfacet
  facet normal 0 0 1
    outer loop
      vertex 1.311669202100072 6.876010755100821 0
      vertex 1.0305972302214852 5.402579879007788 0
      vertex 1.6995934690622108 5.230810839623344 0
    endloop
  endfacet
  facet normal 0 0 1
    outer loop
      vertex 0.43953363670519296 6.986187098997901 0
      vertex 1.0305972302214852 5.402579879007788 0
      vertex 1.311669202100072 6.876010755100821 0
    endloop
  endfacet
  facet normal 0 0 1
    outer loop
      vertex 1.311669202100072 6.876010755100821 0
      vertex 1.6995934690622108 5.230810839623344 0
      vertex 2.1631189606246317 6.657395614066075 0
    endloop
  endfacet
  facet normal 0 0 1
    outer loop
      vertex 2.980455040955509 6.333789367262137 0
      vertex 2.9470473723844814 4.643803590261083 0
      vertex 3.5058319436177934 4.23782283526684 0
    endloop
  endfacet
  facet normal 0 0 1
    outer loop
      vertex 2.1631189606246317 6.657395614066075 0
      vertex 1.6995934690622108 5.230810839623344 0
      vertex 2.3417861036079 4.9765487885631075 0
    endloop
  endfacet
  facet normal 0 0 1
    outer loop
      vertex 2.1631189606246317 6.657395614066075 0
      vertex 2.3417861036079 4.9765487885631075 0
      vertex 2.980455040955509 6.333789367262137 0
    endloop
  endfacet
  facet normal 0 0 1
    outer loop
      vertex 2.980455040955509 6.333789367262137 0
      vertex 2.3417861036079 4.9765487885631075 0
      vertex 2.9470473723844814 4.643803590261083 0
    endloop
  endfacet
  facet normal 0 0 1
    outer loop
      vertex 2.980455040955509 6.333789367262137 0
      vertex 3.5058319436177934 4.23782283526684 0
      vertex 3.7507875648529767 5.910295478514105 0
    endloop
  endfacet
  facet normal 0.9980267284282717 0.06279051952931264 0
    outer loop
      vertex 6.9448029092013455 0.8773326349501298 -3
      vertex 6.9448029092013455 0.8773326349501298 0
      vertex 7 0 0
    endloop
  endfacet
  facet normal 0.9822872507286885 0.1873813145857257 0
    outer loop
      vertex 6.7800821279004175 1.7408292101539835 -3
      vertex 6.7800821279004175 1.7408292101539835 0
      vertex 6.9448029092013455 0.8773326349501298 0
    endloop
  endfacet
  facet normal 0.9510565162951536 0.30901699437494695 0
    outer loop
      vertex 6.50843540121776 2.576871868792746 -3
      vertex 6.50843540121776 2.576871868792746 0
      vertex 6.7800821279004175 1.7408292101539835 0
    endloop
  endfacet
  facet normal 0.9048270524660196 0.42577929156507244 0
    outer loop
      vertex 6.134146760307045 3.3722757187120074 -3
      vertex 6.134146760307045 3.3722757187120074 0
      vertex 6.50843540121776 2.576871868792746 0
    endloop
  endfacet
  facet normal 0 0 1
    outer loop
      vertex 5.102780391949881 4.7918297415008215 0
      vertex 5.113770672385383 2.0246850397657288 0
      vertex 5.327207386207471 1.3677943794067013 0
    endloop
  endfacet
  facet normal 0 0 1
    outer loop
      vertex 5.102780391949881 4.7918297415008215 0
      vertex 4.8196867402412495 2.649645207559434 0
      vertex 5.113770672385383 2.0246850397657288 0
    endloop
  endfacet
  facet normal 0 0 1
    outer loop
      vertex 5.663118960624632 -4.114496766047312 0
      vertex 5.663118960624632 4.114496766047312 0
      vertex 5.5 0 0
    endloop
  endfacet
  facet normal 0 0 1
    outer loop
      vertex 5.663118960624632 4.114496766047312 0
      vertex 5.456630857229628 0.6893327846036734 0
      vertex 5.5 0 0
    endloop
  endfacet
  facet normal 0 0 1
    outer loop
      vertex 6.134146760307044 -3.372275718712008 0
      vertex 6.134146760307045 3.3722757187120074 0
      vertex 5.663118960624632 4.114496766047312 0
    endloop
  endfacet
  facet normal 0 0 1
    outer loop
      vertex 6.9448029092013455 -0.8773326349501285 0
      vertex 7 0 0
      vertex 6.9448029092013455 0.8773326349501298 0
    endloop
  endfacet
  facet normal 0 0 1
    outer loop
      vertex 6.780082127900418 -1.740829210153981 0
      vertex 6.7800821279004175 1.7408292101539835 0
      vertex 6.50843540121776 2.576871868792746 0
    endloop
  endfacet
  facet normal 0 0 1
    outer loop
      vertex 6.9448029092013455 -0.8773326349501285 0
      vertex 6.9448029092013455 0.8773326349501298 0
      vertex 6.7800821279004175 1.7408292101539835 0
    endloop
  endfacet
  facet normal 0 0 1
    outer loop
      vertex 6.508435401217759 -2.5768718687927485 0
      vertex 6.50843540121776 2.576871868792746 0
      vertex 6.134146760307045 3.3722757187120074 0
    endloop
  endfacet
  facet normal 0 0 1
    outer loop
      vertex 5.663118960624632 4.114496766047312 0
      vertex 5.327207386207471 1.3677943794067013 0
      vertex 5.456630857229628 0.6893327846036734 0
    endloop
  endfacet
  facet normal 0 0 1
    outer loop
      vertex 5.102780391949881 4.7918297415008215 0
      vertex 5.327207386207471 1.3677943794067013 0
      vertex 5.663118960624632 4.114496766047312 0
    endloop
  endfacet
  facet normal 0.6845471059286877 0.7289686274214123 0
    outer loop
      vertex 5.102780391949881 4.7918297415008215 -3
      vertex 4.461967928240828 5.393592699430524 0
      vertex 5.102780391949881 4.7918297415008215 0
    endloop
  endfacet
  facet normal 0.5877852522924736 0.809016994374947 0
    outer loop
      vertex 4.461967928240828 5.393592699430524 -3
      vertex 3.7507875648529767 5.910295478514105 0
      vertex 4.461967928240828 5.393592699430524 0
    endloop
  endfacet
  facet normal 0.844327925502015 0.5358267949789969 0
    outer loop
      vertex 5.663118960624632 4.114496766047312 -3
      vertex 5.663118960624632 4.114496766047312 0
      vertex 6.134146760307045 3.3722757187120074 0
    endloop
  endfacet
  facet normal 0.7705132427757896 0.6374239897486893 0
    outer loop
      vertex 5.102780391949881 4.7918297415008215 -3
      vertex 5.102780391949881 4.7918297415008215 0
      vertex 5.663118960624632 4.114496766047312 0
    endloop
  endfacet
  facet normal 0 0 1
    outer loop
      vertex 4.461967928240828 5.393592699430524 0
      vertex 4.009327450817763 3.765009082607788 0
      vertex 4.449593469062211 3.232818887608602 0
    endloop
  endfacet
  facet normal 0 0 1
    outer loop
      vertex 3.7507875648529767 5.910295478514105 0
      vertex 3.5058319436177934 4.23782283526684 0
      vertex 4.009327450817763 3.765009082607788 0
    endloop
  endfacet
  facet normal 0 0 1
    outer loop
      vertex 3.7507875648529767 5.910295478514105 0
      vertex 4.009327450817763 3.765009082607788 0
      vertex 4.461967928240828 5.393592699430524 0
    endloop
  endfacet
  facet normal 0 0 1
    outer loop
      vertex 4.461967928240828 5.393592699430524 0
      vertex 4.449593469062211 3.232818887608602 0
      vertex 4.8196867402412495 2.649645207559434 0
    endloop
  endfacet
  facet normal 0 0 1
    outer loop
      vertex 5.102780391949881 4.7918297415008215 0
      vertex 4.461967928240828 5.393592699430524 0
      vertex 4.8196867402412495 2.649645207559434 0
    endloop
  endfacet
endsolid OpenSCAD_Model
