solid OpenSCAD_Model
  facet normal 0.5246872794572313 0.7221700853461402 0.4507478525815932
    outer loop
      vertex -1.5979120493123653 -2.5179064921220804 -3
      vertex -1.9008893980005568 -2.2977805632778003 -3
      vertex -2.4112205774054853 -3.7994756647590675 0
    endloop
  endfacet
  facet normal 0.6110618755220594 0.6507148051770034 0.4507478525815933
    outer loop
      vertex -2.1738885853459955 -2.041417262323053 -3
      vertex -3.2803588233963525 -3.080461976679098 0
      vertex -1.9008893980005568 -2.2977805632778003 -3
    endloop
  endfacet
  facet normal 0.6877996607792313 0.5689973638120454 0.450747852581593
    outer loop
      vertex -3.6405764746872635 -2.6450336353161292 0
      vertex -2.1738885853459955 -2.041417262323053 -3
      vertex -2.412604251082433 -1.752859591657911 -3
    endloop
  endfacet
  facet normal 0.8489618516265154 0.2758444269438132 0.45074785258159317
    outer loop
      vertex -2.7727263061310357 -1.0978000053275216 -3
      vertex -2.8884533555085965 -0.7416287706523351 -3
      vertex -4.35862422507884 -1.119104492241847 0
    endloop
  endfacet
  facet normal 0.7536904345143166 0.4783064941172164 0.4507478525815934
    outer loop
      vertex -3.9433800601973856 -2.1678915334577193 0
      vertex -2.412604251082433 -1.752859591657911 -3
      vertex -2.6132717065593782 -1.4366582781247583 -3
    endloop
  endfacet
  facet normal 0.8076950598642652 0.38007244528371603 0.45074785258159317
    outer loop
      vertex -4.183994186497132 -1.6565604870810504 0
      vertex -2.6132717065593782 -1.4366582781247583 -3
      vertex -2.7727263061310357 -1.0978000053275216 -3
    endloop
  endfacet
  facet normal 0.8768400078433869 0.16726617720953443 0.45074785258159317
    outer loop
      vertex -2.8884533555085965 -0.7416287706523351 -3
      vertex -2.9586277699913897 -0.3737616072364068 -3
      vertex -4.464516155915151 -0.5639995510393683 0
    endloop
  endfacet
  facet normal 0.8908898733377371 0.05605003994068916 0.45074785258159317
    outer loop
      vertex -2.9586277699913897 -0.3737616072364068 -3
      vertex -2.982142857142857 0 -3
      vertex -4.5 0 0
    endloop
  endfacet
  facet normal 0.4300380515623759 0.7822363118658694 0.4507478525815932
    outer loop
      vertex -1.5979120493123653 -2.5179064921220804 -3
      vertex -2.4112205774054853 -3.7994756647590675 0
      vertex -1.2697346730601267 -2.6983235314611655 -3
    endloop
  endfacet
  facet normal 0.32860686670210104 0.8299662044621515 0.4507478525815931
    outer loop
      vertex -1.2697346730601267 -2.6983235314611655 -3
      vertex -1.3905764746872633 -4.2797543233281905 0
      vertex -0.9215328225110039 -2.836186396808761 -3
    endloop
  endfacet
  facet normal 0.22199335525371 0.8646070342162863 0.45074785258159306
    outer loop
      vertex -0.9215328225110039 -2.836186396808761 -3
      vertex -0.8432159156357617 -4.420292628279099 0
      vertex -0.558797848853858 -2.929320908423054 -3
    endloop
  endfacet
  facet normal 0.11187887598056236 0.8856124945496242 0.45074785258159317
    outer loop
      vertex -0.8432159156357617 -4.420292628279099 0
      vertex -0.18725029931063214 -2.9762582794200245 -3
      vertex -0.558797848853858 -2.929320908423054 -3
    endloop
  endfacet
  facet normal 0 0.8926513168046537 0.4507478525815931
    outer loop
      vertex -0.28255733788191195 -4.491120277927222 0
      vertex 0.18725029931063214 -2.9762582794200245 -3
      vertex -0.18725029931063214 -2.9762582794200245 -3
    endloop
  endfacet
  facet normal 0.8489618516265157 0.2758444269438126 0.4507478525815932
    outer loop
      vertex -4.35862422507884 -1.119104492241847 0
      vertex -4.183994186497132 -1.6565604870810504 0
      vertex -2.7727263061310357 -1.0978000053275216 -3
    endloop
  endfacet
  facet normal 0.876840007843387 0.16726617720953485 0.45074785258159317
    outer loop
      vertex -2.8884533555085965 -0.7416287706523351 -3
      vertex -4.464516155915151 -0.5639995510393683 0
      vertex -4.35862422507884 -1.119104492241847 0
    endloop
  endfacet
  facet normal 0.8908898733377372 0.05605003994068924 0.4507478525815932
    outer loop
      vertex -2.9586277699913897 -0.3737616072364068 -3
      vertex -4.5 0 0
      vertex -4.464516155915151 -0.5639995510393683 0
    endloop
  endfacet
  facet normal 0.22199335525370928 0.8646070342162865 0.4507478525815932
    outer loop
      vertex -1.3905764746872633 -4.2797543233281905 0
      vertex -0.8432159156357617 -4.420292628279099 0
      vertex -0.9215328225110039 -2.836186396808761 -3
    endloop
  endfacet
  facet normal 0.11187887598056208 0.8856124945496244 0.45074785258159317
    outer loop
      vertex -0.8432159156357617 -4.420292628279099 0
      vertex -0.28255733788191195 -4.491120277927222 0
      vertex -0.18725029931063214 -2.9762582794200245 -3
    endloop
  endfacet
  facet normal 0.7536904345143156 0.4783064941172182 0.4507478525815931
    outer loop
      vertex -3.9433800601973856 -2.1678915334577193 0
      vertex -3.6405764746872635 -2.6450336353161292 0
      vertex -2.412604251082433 -1.752859591657911 -3
    endloop
  endfacet
  facet normal 0.6877996607792319 0.5689973638120442 0.4507478525815933
    outer loop
      vertex -3.6405764746872635 -2.6450336353161292 0
      vertex -3.2803588233963525 -3.080461976679098 0
      vertex -2.1738885853459955 -2.041417262323053 -3
    endloop
  endfacet
  facet normal 0.6110618755220589 0.6507148051770039 0.45074785258159317
    outer loop
      vertex -3.2803588233963525 -3.080461976679098 0
      vertex -2.868407953869103 -3.467309592491052 0
      vertex -1.9008893980005568 -2.2977805632778003 -3
    endloop
  endfacet
  facet normal 0.5246872794572318 0.72217008534614 0.45074785258159317
    outer loop
      vertex -2.868407953869103 -3.467309592491052 0
      vertex -2.4112205774054853 -3.7994756647590675 0
      vertex -1.9008893980005568 -2.2977805632778003 -3
    endloop
  endfacet
  facet normal 0.8076950598642656 0.3800724452837153 0.4507478525815933
    outer loop
      vertex -4.183994186497132 -1.6565604870810504 0
      vertex -3.9433800601973856 -2.1678915334577193 0
      vertex -2.6132717065593782 -1.4366582781247583 -3
    endloop
  endfacet
  facet normal 0.43003805156237607 0.7822363118658692 0.4507478525815932
    outer loop
      vertex -2.4112205774054853 -3.7994756647590675 0
      vertex -1.916006812042826 -4.071721736097088 0
      vertex -1.2697346730601267 -2.6983235314611655 -3
    endloop
  endfacet
  facet normal 0.328606866702101 0.8299662044621515 0.4507478525815933
    outer loop
      vertex -1.916006812042826 -4.071721736097088 0
      vertex -1.3905764746872633 -4.2797543233281905 0
      vertex -1.2697346730601267 -2.6983235314611655 -3
    endloop
  endfacet
  facet normal 0.8908898733377371 -0.05605003994068916 0.45074785258159317
    outer loop
      vertex -2.9586277699913897 0.3737616072364068 -3
      vertex -4.464516155915151 0.5639995510393683 0
      vertex -2.982142857142857 0 -3
    endloop
  endfacet
  facet normal 0.8768400078433869 -0.1672661772095345 0.45074785258159317
    outer loop
      vertex -2.8884533555085965 0.741628770652335 -3
      vertex -4.35862422507884 1.119104492241847 0
      vertex -2.9586277699913897 0.3737616072364068 -3
    endloop
  endfacet
  facet normal 0.8489618516265154 -0.2758444269438133 0.45074785258159317
    outer loop
      vertex -2.8884533555085965 0.741628770652335 -3
      vertex -2.7727263061310357 1.0978000053275214 -3
      vertex -4.35862422507884 1.119104492241847 0
    endloop
  endfacet
  facet normal 0.8076950598642657 -0.380072445283715 0.45074785258159317
    outer loop
      vertex -3.9433800601973856 2.1678915334577193 0
      vertex -2.7727263061310357 1.0978000053275214 -3
      vertex -2.6132717065593787 1.4366582781247583 -3
    endloop
  endfacet
  facet normal 0.7536904345143155 -0.47830649411721815 0.4507478525815932
    outer loop
      vertex -2.4126042510824326 1.752859591657911 -3
      vertex -3.9433800601973856 2.1678915334577193 0
      vertex -2.6132717065593787 1.4366582781247583 -3
    endloop
  endfacet
  facet normal 0.6877996607792317 -0.5689973638120444 0.4507478525815932
    outer loop
      vertex -2.4126042510824326 1.752859591657911 -3
      vertex -2.1738885853459955 2.041417262323053 -3
      vertex -3.2803588233963525 3.080461976679098 0
    endloop
  endfacet
  facet normal 0.6110618755220597 -0.6507148051770031 0.45074785258159306
    outer loop
      vertex -1.9008893980005566 2.297780563277801 -3
      vertex -2.868407953869103 3.467309592491052 0
      vertex -2.1738885853459955 2.041417262323053 -3
    endloop
  endfacet
  facet normal 0.5246872794572309 -0.7221700853461407 0.45074785258159333
    outer loop
      vertex -1.9008893980005566 2.297780563277801 -3
      vertex -1.5979120493123653 2.5179064921220804 -3
      vertex -2.4112205774054853 3.7994756647590675 0
    endloop
  endfacet
  facet normal 0.43003805156237596 -0.7822363118658693 0.4507478525815933
    outer loop
      vertex -1.5979120493123653 2.5179064921220804 -3
      vertex -1.2697346730601275 2.698323531461165 -3
      vertex -1.9160068120428273 4.071721736097087 0
    endloop
  endfacet
  facet normal 0.32860686670210126 -0.8299662044621514 0.45074785258159317
    outer loop
      vertex -1.2697346730601275 2.698323531461165 -3
      vertex -0.9215328225110039 2.836186396808761 -3
      vertex -1.3905764746872633 4.2797543233281905 0
    endloop
  endfacet
  facet normal 0.22199335525370922 -0.8646070342162866 0.4507478525815931
    outer loop
      vertex -0.8432159156357606 4.420292628279099 0
      vertex -0.9215328225110039 2.836186396808761 -3
      vertex -0.5587978488538572 2.929320908423054 -3
    endloop
  endfacet
  facet normal 0.11187887598056216 -0.8856124945496244 0.45074785258159306
    outer loop
      vertex -0.28255733788190734 4.491120277927222 0
      vertex -0.5587978488538572 2.929320908423054 -3
      vertex -0.18725029931063064 2.9762582794200245 -3
    endloop
  endfacet
  facet normal 0.8908898733377372 -0.05605003994068924 0.4507478525815932
    outer loop
      vertex -4.464516155915151 0.5639995510393683 0
      vertex -4.5 0 0
      vertex -2.982142857142857 0 -3
    endloop
  endfacet
  facet normal 0.876840007843387 -0.16726617720953485 0.4507478525815932
    outer loop
      vertex -4.35862422507884 1.119104492241847 0
      vertex -4.464516155915151 0.5639995510393683 0
      vertex -2.9586277699913897 0.3737616072364068 -3
    endloop
  endfacet
  facet normal 0.8489618516265156 -0.27584442694381256 0.4507478525815932
    outer loop
      vertex -4.183994186497132 1.6565604870810504 0
      vertex -4.35862422507884 1.119104492241847 0
      vertex -2.7727263061310357 1.0978000053275214 -3
    endloop
  endfacet
  facet normal 0.8076950598642656 -0.3800724452837153 0.4507478525815933
    outer loop
      vertex -3.9433800601973856 2.1678915334577193 0
      vertex -4.183994186497132 1.6565604870810504 0
      vertex -2.7727263061310357 1.0978000053275214 -3
    endloop
  endfacet
  facet normal 0.7536904345143156 -0.4783064941172182 0.4507478525815933
    outer loop
      vertex -3.6405764746872635 2.6450336353161292 0
      vertex -3.9433800601973856 2.1678915334577193 0
      vertex -2.4126042510824326 1.752859591657911 -3
    endloop
  endfacet
  facet normal 0.6877996607792319 -0.5689973638120442 0.4507478525815933
    outer loop
      vertex -2.4126042510824326 1.752859591657911 -3
      vertex -3.2803588233963525 3.080461976679098 0
      vertex -3.6405764746872635 2.6450336353161292 0
    endloop
  endfacet
  facet normal 0.6110618755220588 -0.6507148051770039 0.4507478525815932
    outer loop
      vertex -3.2803588233963525 3.080461976679098 0
      vertex -2.1738885853459955 2.041417262323053 -3
      vertex -2.868407953869103 3.467309592491052 0
    endloop
  endfacet
  facet normal 0.5246872794572318 -0.72217008534614 0.45074785258159306
    outer loop
      vertex -2.4112205774054853 3.7994756647590675 0
      vertex -2.868407953869103 3.467309592491052 0
      vertex -1.9008893980005566 2.297780563277801 -3
    endloop
  endfacet
  facet normal 0.43003805156237596 -0.7822363118658694 0.45074785258159317
    outer loop
      vertex -1.9160068120428273 4.071721736097087 0
      vertex -2.4112205774054853 3.7994756647590675 0
      vertex -1.5979120493123653 2.5179064921220804 -3
    endloop
  endfacet
  facet normal 0.3286068667021015 -0.8299662044621513 0.4507478525815931
    outer loop
      vertex -1.2697346730601275 2.698323531461165 -3
      vertex -1.3905764746872633 4.2797543233281905 0
      vertex -1.9160068120428273 4.071721736097087 0
    endloop
  endfacet
  facet normal 0.22199335525370886 -0.8646070342162866 0.4507478525815932
    outer loop
      vertex -0.8432159156357606 4.420292628279099 0
      vertex -1.3905764746872633 4.2797543233281905 0
      vertex -0.9215328225110039 2.836186396808761 -3
    endloop
  endfacet
  facet normal 0.11187887598056137 -0.8856124945496244 0.4507478525815931
    outer loop
      vertex -0.28255733788190734 4.491120277927222 0
      vertex -0.8432159156357606 4.420292628279099 0
      vertex -0.5587978488538572 2.929320908423054 -3
    endloop
  endfacet
  facet normal 0 -0.8926513168046538 0.45074785258159317
    outer loop
      vertex -0.28255733788190734 4.491120277927222 0
      vertex -0.18725029931063064 2.9762582794200245 -3
      vertex 0.28255733788190973 4.491120277927222 0
    endloop
  endfacet
  facet normal -0.11187887598056236 0.8856124945496242 0.45074785258159317
    outer loop
      vertex 0.18725029931063214 -2.9762582794200245 -3
      vertex 0.28255733788191195 -4.491120277927222 0
      vertex 0.558797848853858 -2.929320908423054 -3
    endloop
  endfacet
  facet normal -0.22199335525371 0.8646070342162863 0.45074785258159306
    outer loop
      vertex 0.9215328225110039 -2.836186396808761 -3
      vertex 0.558797848853858 -2.929320908423054 -3
      vertex 0.8432159156357617 -4.420292628279099 0
    endloop
  endfacet
  facet normal -0.32860686670210104 0.8299662044621515 0.4507478525815931
    outer loop
      vertex 1.2697346730601267 -2.6983235314611655 -3
      vertex 0.9215328225110039 -2.836186396808761 -3
      vertex 1.3905764746872633 -4.2797543233281905 0
    endloop
  endfacet
  facet normal -0.43003805156237473 0.78223631186587 0.4507478525815933
    outer loop
      vertex 1.916006812042826 -4.071721736097088 0
      vertex 1.5979120493123637 -2.5179064921220817 -3
      vertex 1.2697346730601267 -2.6983235314611655 -3
    endloop
  endfacet
  facet normal -0.5246872794572311 0.7221700853461406 0.4507478525815932
    outer loop
      vertex 1.900889398000558 -2.2977805632778 -3
      vertex 1.5979120493123637 -2.5179064921220817 -3
      vertex 2.411220577405483 -3.799475664759069 0
    endloop
  endfacet
  facet normal -0.6110618755220601 0.6507148051770028 0.45074785258159306
    outer loop
      vertex 2.1738885853459955 -2.041417262323053 -3
      vertex 1.900889398000558 -2.2977805632778 -3
      vertex 2.868407953869105 -3.4673095924910506 0
    endloop
  endfacet
  facet normal -0.6877996607792313 0.568997363812045 0.4507478525815933
    outer loop
      vertex 2.1738885853459955 -2.041417262323053 -3
      vertex 3.2803588233963525 -3.080461976679098 0
      vertex 2.412604251082433 -1.752859591657911 -3
    endloop
  endfacet
  facet normal -0.7536904345143165 0.4783064941172166 0.45074785258159333
    outer loop
      vertex 2.412604251082433 -1.752859591657911 -3
      vertex 3.9433800601973856 -2.1678915334577193 0
      vertex 2.6132717065593782 -1.4366582781247583 -3
    endloop
  endfacet
  facet normal -0.8076950598642655 0.38007244528371537 0.4507478525815932
    outer loop
      vertex 2.6132717065593782 -1.4366582781247583 -3
      vertex 3.9433800601973856 -2.1678915334577193 0
      vertex 2.7727263061310348 -1.0978000053275228 -3
    endloop
  endfacet
  facet normal -0.8489618516265149 0.2758444269438143 0.4507478525815931
    outer loop
      vertex 2.888453355508597 -0.7416287706523338 -3
      vertex 2.7727263061310348 -1.0978000053275228 -3
      vertex 4.358624225078841 -1.119104492241845 0
    endloop
  endfacet
  facet normal -0.876840007843387 0.167266177209534 0.45074785258159317
    outer loop
      vertex 2.888453355508597 -0.7416287706523338 -3
      vertex 4.358624225078841 -1.119104492241845 0
      vertex 2.9586277699913897 -0.3737616072364068 -3
    endloop
  endfacet
  facet normal -0.8908898733377371 0.05605003994068916 0.45074785258159317
    outer loop
      vertex 2.9586277699913897 -0.3737616072364068 -3
      vertex 4.464516155915151 -0.5639995510393683 0
      vertex 2.982142857142857 0 -3
    endloop
  endfacet
  facet normal 0 0.8926513168046537 0.4507478525815931
    outer loop
      vertex -0.28255733788191195 -4.491120277927222 0
      vertex 0.28255733788191195 -4.491120277927222 0
      vertex 0.18725029931063214 -2.9762582794200245 -3
    endloop
  endfacet
  facet normal -0.11187887598056206 0.8856124945496243 0.45074785258159317
    outer loop
      vertex 0.28255733788191195 -4.491120277927222 0
      vertex 0.8432159156357617 -4.420292628279099 0
      vertex 0.558797848853858 -2.929320908423054 -3
    endloop
  endfacet
  facet normal -0.22199335525370928 0.8646070342162865 0.4507478525815932
    outer loop
      vertex 0.8432159156357617 -4.420292628279099 0
      vertex 1.3905764746872633 -4.2797543233281905 0
      vertex 0.9215328225110039 -2.836186396808761 -3
    endloop
  endfacet
  facet normal -0.328606866702101 0.8299662044621515 0.4507478525815933
    outer loop
      vertex 1.3905764746872633 -4.2797543233281905 0
      vertex 1.916006812042826 -4.071721736097088 0
      vertex 1.2697346730601267 -2.6983235314611655 -3
    endloop
  endfacet
  facet normal -0.430038051562376 0.7822363118658694 0.45074785258159317
    outer loop
      vertex 1.916006812042826 -4.071721736097088 0
      vertex 2.411220577405483 -3.799475664759069 0
      vertex 1.5979120493123637 -2.5179064921220817 -3
    endloop
  endfacet
  facet normal -0.5246872794572315 0.7221700853461401 0.45074785258159306
    outer loop
      vertex 2.411220577405483 -3.799475664759069 0
      vertex 2.868407953869105 -3.4673095924910506 0
      vertex 1.900889398000558 -2.2977805632778 -3
    endloop
  endfacet
  facet normal -0.6110618755220594 0.6507148051770035 0.45074785258159317
    outer loop
      vertex 2.1738885853459955 -2.041417262323053 -3
      vertex 2.868407953869105 -3.4673095924910506 0
      vertex 3.2803588233963525 -3.080461976679098 0
    endloop
  endfacet
  facet normal -0.6877996607792319 0.5689973638120442 0.4507478525815931
    outer loop
      vertex 3.2803588233963525 -3.080461976679098 0
      vertex 3.6405764746872635 -2.6450336353161292 0
      vertex 2.412604251082433 -1.752859591657911 -3
    endloop
  endfacet
  facet normal -0.7536904345143156 0.4783064941172182 0.45074785258159317
    outer loop
      vertex 3.6405764746872635 -2.6450336353161292 0
      vertex 3.9433800601973856 -2.1678915334577193 0
      vertex 2.412604251082433 -1.752859591657911 -3
    endloop
  endfacet
  facet normal -0.8076950598642655 0.3800724452837155 0.45074785258159333
    outer loop
      vertex 3.9433800601973856 -2.1678915334577193 0
      vertex 4.183994186497131 -1.6565604870810526 0
      vertex 2.7727263061310348 -1.0978000053275228 -3
    endloop
  endfacet
  facet normal -0.8489618516265154 0.27584442694381317 0.45074785258159333
    outer loop
      vertex 2.7727263061310348 -1.0978000053275228 -3
      vertex 4.183994186497131 -1.6565604870810526 0
      vertex 4.358624225078841 -1.119104492241845 0
    endloop
  endfacet
  facet normal -0.8768400078433871 0.16726617720953407 0.4507478525815932
    outer loop
      vertex 4.358624225078841 -1.119104492241845 0
      vertex 4.464516155915151 -0.5639995510393683 0
      vertex 2.9586277699913897 -0.3737616072364068 -3
    endloop
  endfacet
  facet normal -0.8908898733377372 0.05605003994068924 0.4507478525815932
    outer loop
      vertex 4.464516155915151 -0.5639995510393683 0
      vertex 4.5 0 0
      vertex 2.982142857142857 0 -3
    endloop
  endfacet
  facet normal 0 -0.8926513168046537 0.4507478525815931
    outer loop
      vertex -0.18725029931063064 2.9762582794200245 -3
      vertex 0.1872502993106278 2.9762582794200245 -3
      vertex 0.28255733788190973 4.491120277927222 0
    endloop
  endfacet
  facet normal -0.11187887598056132 -0.8856124945496244 0.45074785258159317
    outer loop
      vertex 0.5587978488538572 2.929320908423054 -3
      vertex 0.8432159156357606 4.420292628279099 0
      vertex 0.1872502993106278 2.9762582794200245 -3
    endloop
  endfacet
  facet normal -0.22199335525370953 -0.8646070342162864 0.450747852581593
    outer loop
      vertex 0.9215328225110039 2.836186396808761 -3
      vertex 0.8432159156357606 4.420292628279099 0
      vertex 0.5587978488538572 2.929320908423054 -3
    endloop
  endfacet
  facet normal -0.32860686670210126 -0.8299662044621514 0.45074785258159317
    outer loop
      vertex 1.2697346730601275 2.698323531461165 -3
      vertex 1.3905764746872633 4.2797543233281905 0
      vertex 0.9215328225110039 2.836186396808761 -3
    endloop
  endfacet
  facet normal -0.43003805156237535 -0.7822363118658696 0.4507478525815931
    outer loop
      vertex 1.597912049312365 2.517906492122081 -3
      vertex 2.411220577405485 3.799475664759068 0
      vertex 1.2697346730601275 2.698323531461165 -3
    endloop
  endfacet
  facet normal -0.8908898733377373 -0.05605003994068908 0.4507478525815932
    outer loop
      vertex 2.982142857142857 0 -3
      vertex 4.5 0 0
      vertex 2.9586277699913897 0.3737616072364074 -3
    endloop
  endfacet
  facet normal -0.876840007843387 -0.16726617720953482 0.4507478525815932
    outer loop
      vertex 2.8884533555085965 0.7416287706523349 -3
      vertex 2.9586277699913897 0.3737616072364074 -3
      vertex 4.464516155915151 0.5639995510393692 0
    endloop
  endfacet
  facet normal -0.8076950598642663 -0.38007244528371387 0.4507478525815931
    outer loop
      vertex 2.613271706559379 1.436658278124758 -3
      vertex 2.772726306131035 1.0978000053275219 -3
      vertex 4.183994186497131 1.6565604870810509 0
    endloop
  endfacet
  facet normal -0.7536904345143153 -0.4783064941172187 0.45074785258159317
    outer loop
      vertex 2.4126042510824326 1.752859591657911 -3
      vertex 2.613271706559379 1.436658278124758 -3
      vertex 3.943380060197386 2.167891533457719 0
    endloop
  endfacet
  facet normal -0.8489618516265153 -0.2758444269438139 0.45074785258159317
    outer loop
      vertex 2.772726306131035 1.0978000053275219 -3
      vertex 2.8884533555085965 0.7416287706523349 -3
      vertex 4.35862422507884 1.1191044922418465 0
    endloop
  endfacet
  facet normal -0.6877996607792322 -0.568997363812044 0.4507478525815933
    outer loop
      vertex 2.173888585345995 2.041417262323054 -3
      vertex 2.4126042510824326 1.752859591657911 -3
      vertex 3.6405764746872635 2.6450336353161292 0
    endloop
  endfacet
  facet normal -0.6110618755220585 -0.6507148051770042 0.45074785258159317
    outer loop
      vertex 1.900889398000557 2.2977805632778 -3
      vertex 2.173888585345995 2.041417262323054 -3
      vertex 3.280358823396352 3.080461976679099 0
    endloop
  endfacet
  facet normal -0.5246872794572323 -0.7221700853461397 0.45074785258159317
    outer loop
      vertex 1.900889398000557 2.2977805632778 -3
      vertex 2.411220577405485 3.799475664759068 0
      vertex 1.597912049312365 2.517906492122081 -3
    endloop
  endfacet
  facet normal -0.3286068667021015 -0.8299662044621513 0.45074785258159317
    outer loop
      vertex 1.9160068120428273 4.071721736097087 0
      vertex 1.3905764746872633 4.2797543233281905 0
      vertex 1.2697346730601275 2.698323531461165 -3
    endloop
  endfacet
  facet normal -0.4300380515623757 -0.7822363118658695 0.4507478525815933
    outer loop
      vertex 2.411220577405485 3.799475664759068 0
      vertex 1.9160068120428273 4.071721736097087 0
      vertex 1.2697346730601275 2.698323531461165 -3
    endloop
  endfacet
  facet normal -0.8076950598642663 -0.38007244528371414 0.4507478525815931
    outer loop
      vertex 2.613271706559379 1.436658278124758 -3
      vertex 4.183994186497131 1.6565604870810509 0
      vertex 3.943380060197386 2.167891533457719 0
    endloop
  endfacet
  facet normal -0.5246872794572321 -0.7221700853461397 0.45074785258159317
    outer loop
      vertex 2.868407953869104 3.467309592491051 0
      vertex 2.411220577405485 3.799475664759068 0
      vertex 1.900889398000557 2.2977805632778 -3
    endloop
  endfacet
  facet normal -0.6110618755220586 -0.6507148051770042 0.4507478525815933
    outer loop
      vertex 1.900889398000557 2.2977805632778 -3
      vertex 3.280358823396352 3.080461976679099 0
      vertex 2.868407953869104 3.467309592491051 0
    endloop
  endfacet
  facet normal -0.6877996607792322 -0.5689973638120439 0.4507478525815932
    outer loop
      vertex 3.6405764746872635 2.6450336353161292 0
      vertex 3.280358823396352 3.080461976679099 0
      vertex 2.173888585345995 2.041417262323054 -3
    endloop
  endfacet
  facet normal -0.7536904345143154 -0.47830649411721854 0.4507478525815931
    outer loop
      vertex 2.4126042510824326 1.752859591657911 -3
      vertex 3.943380060197386 2.167891533457719 0
      vertex 3.6405764746872635 2.6450336353161292 0
    endloop
  endfacet
  facet normal -0.11187887598056184 -0.8856124945496243 0.45074785258159317
    outer loop
      vertex 0.8432159156357606 4.420292628279099 0
      vertex 0.28255733788190973 4.491120277927222 0
      vertex 0.1872502993106278 2.9762582794200245 -3
    endloop
  endfacet
  facet normal -0.22199335525370886 -0.8646070342162866 0.4507478525815932
    outer loop
      vertex 1.3905764746872633 4.2797543233281905 0
      vertex 0.8432159156357606 4.420292628279099 0
      vertex 0.9215328225110039 2.836186396808761 -3
    endloop
  endfacet
  facet normal -0.8908898733377372 -0.056050039940689154 0.4507478525815932
    outer loop
      vertex 2.9586277699913897 0.3737616072364074 -3
      vertex 4.5 0 0
      vertex 4.464516155915151 0.5639995510393692 0
    endloop
  endfacet
  facet normal -0.8768400078433869 -0.16726617720953524 0.45074785258159317
    outer loop
      vertex 2.8884533555085965 0.7416287706523349 -3
      vertex 4.464516155915151 0.5639995510393692 0
      vertex 4.35862422507884 1.1191044922418465 0
    endloop
  endfacet
  facet normal -0.8489618516265154 -0.27584442694381345 0.4507478525815931
    outer loop
      vertex 4.35862422507884 1.1191044922418465 0
      vertex 4.183994186497131 1.6565604870810509 0
      vertex 2.772726306131035 1.0978000053275219 -3
    endloop
  endfacet
  facet normal -0.8443279255020157 -0.5358267949789955 0
    outer loop
      vertex -12.135254915624213 -8.816778784387097 -3
      vertex -13.144600200657951 -7.226305111525731 0
      vertex -13.144600200657951 -7.226305111525731 -3
    endloop
  endfacet
  facet normal -0.7705132427757891 -0.6374239897486899 0
    outer loop
      vertex -12.135254915624213 -8.816778784387097 -3
      vertex -10.934529411321176 -10.268206588930328 -3
      vertex -12.135254915624213 -8.816778784387097 0
    endloop
  endfacet
  facet normal -0.5877852522924732 -0.8090169943749473 0
    outer loop
      vertex -9.561359846230344 -11.55769864163684 -3
      vertex -8.037401924684952 -12.664918882530225 -3
      vertex -8.037401924684952 -12.664918882530225 0
    endloop
  endfacet
  facet normal -0.6845471059286886 -0.7289686274214117 0
    outer loop
      vertex -9.561359846230344 -11.55769864163684 -3
      vertex -9.561359846230344 -11.55769864163684 0
      vertex -10.934529411321176 -10.268206588930328 -3
    endloop
  endfacet
  facet normal 0 0 -1
    outer loop
      vertex -13.946647288323772 -5.521868290270168 -3
      vertex -14.528747416929466 -3.7303483074728225 -3
      vertex -13.946647288323772 5.521868290270168 -3
    endloop
  endfacet
  facet normal 0 0 -1
    outer loop
      vertex -14.528747416929466 -3.7303483074728225 -3
      vertex -14.881720519717168 -1.879998503464561 -3
      vertex -14.528747416929466 3.7303483074728225 -3
    endloop
  endfacet
  facet normal 0 0 -1
    outer loop
      vertex -13.144600200657951 -7.226305111525731 -3
      vertex -13.946647288323772 -5.521868290270168 -3
      vertex -13.144600200657951 7.226305111525731 -3
    endloop
  endfacet
  facet normal 0 0 -1
    outer loop
      vertex -12.135254915624213 -8.816778784387097 -3
      vertex -13.144600200657951 -7.226305111525731 -3
      vertex -12.135254915624213 8.816778784387097 -3
    endloop
  endfacet
  facet normal 0 0 -1
    outer loop
      vertex -12.135254915624213 -8.816778784387097 -3
      vertex -10.934529411321176 10.268206588930328 -3
      vertex -10.934529411321176 -10.268206588930328 -3
    endloop
  endfacet
  facet normal 0 0 -1
    outer loop
      vertex -9.561359846230344 -11.55769864163684 -3
      vertex -8.037401924684952 12.664918882530225 -3
      vertex -8.037401924684952 -12.664918882530225 -3
    endloop
  endfacet
  facet normal 0 0 -1
    outer loop
      vertex -9.561359846230344 -11.55769864163684 -3
      vertex -10.934529411321176 -10.268206588930328 -3
      vertex -9.561359846230344 11.55769864163684 -3
    endloop
  endfacet
  facet normal -0.9048270524660189 -0.42577929156507377 0
    outer loop
      vertex -13.144600200657951 -7.226305111525731 -3
      vertex -13.946647288323772 -5.521868290270168 0
      vertex -13.946647288323772 -5.521868290270168 -3
    endloop
  endfacet
  facet normal -0.9510565162951538 -0.30901699437494673 0
    outer loop
      vertex -13.946647288323772 -5.521868290270168 -3
      vertex -14.528747416929466 -3.7303483074728225 0
      vertex -14.528747416929466 -3.7303483074728225 -3
    endloop
  endfacet
  facet normal -0.9822872507286886 -0.18738131458572513 0
    outer loop
      vertex -14.528747416929466 -3.7303483074728225 -3
      vertex -14.881720519717168 -1.879998503464561 0
      vertex -14.881720519717168 -1.879998503464561 -3
    endloop
  endfacet
  facet normal -0.9980267284282716 -0.06279051952931293 0
    outer loop
      vertex -14.881720519717168 -1.879998503464561 -3
      vertex -15 0 0
      vertex -15 0 -3
    endloop
  endfacet
  facet normal 0 0 -1
    outer loop
      vertex -4.635254915624211 -14.265847744427303 -3
      vertex -2.7727263061310357 -1.0978000053275216 -3
      vertex -2.8107197187858723 -14.734308760930329 -3
    endloop
  endfacet
  facet normal 0 0 -1
    outer loop
      vertex -2.8107197187858723 -14.734308760930329 -3
      vertex -0.9215328225110039 -2.836186396808761 -3
      vertex -0.9418577929397064 -14.970400926424073 -3
    endloop
  endfacet
  facet normal 0 0 -1
    outer loop
      vertex -0.9418577929397064 -14.970400926424073 -3
      vertex -0.18725029931063214 -2.9762582794200245 -3
      vertex 0.9418577929397064 -14.970400926424073 -3
    endloop
  endfacet
  facet normal -0.4817536741017145 -0.876306680043864 0
    outer loop
      vertex -8.037401924684952 -12.664918882530225 -3
      vertex -6.386689373476086 -13.572405786990293 -3
      vertex -6.386689373476086 -13.572405786990293 0
    endloop
  endfacet
  facet normal -0.3681245526846781 -0.9297764858882513 0
    outer loop
      vertex -6.386689373476086 -13.572405786990293 -3
      vertex -4.635254915624211 -14.265847744427303 -3
      vertex -4.635254915624211 -14.265847744427303 0
    endloop
  endfacet
  facet normal -0.24868988716485493 -0.9685831611286311 0
    outer loop
      vertex -4.635254915624211 -14.265847744427303 -3
      vertex -2.8107197187858723 -14.734308760930329 -3
      vertex -2.8107197187858723 -14.734308760930329 0
    endloop
  endfacet
  facet normal -0.12533323356430498 -0.9921147013144778 0
    outer loop
      vertex -2.8107197187858723 -14.734308760930329 -3
      vertex -0.9418577929397064 -14.970400926424073 -3
      vertex -0.9418577929397064 -14.970400926424073 0
    endloop
  endfacet
  facet normal 0 0 -1
    outer loop
      vertex -8.037401924684952 -12.664918882530225 -3
      vertex -6.386689373476091 13.572405786990291 -3
      vertex -6.386689373476086 -13.572405786990293 -3
    endloop
  endfacet
  facet normal 0 0 -1
    outer loop
      vertex -6.386689373476086 -13.572405786990293 -3
      vertex -4.635254915624211 14.265847744427303 -3
      vertex -4.635254915624211 -14.265847744427303 -3
    endloop
  endfacet
  facet normal 0 0 -1
    outer loop
      vertex -2.8107197187858723 -14.734308760930329 -3
      vertex -1.5979120493123653 -2.5179064921220804 -3
      vertex -1.2697346730601267 -2.6983235314611655 -3
    endloop
  endfacet
  facet normal 0 0 -1
    outer loop
      vertex -2.8107197187858723 -14.734308760930329 -3
      vertex -2.412604251082433 -1.752859591657911 -3
      vertex -2.1738885853459955 -2.041417262323053 -3
    endloop
  endfacet
  facet normal 0 0 -1
    outer loop
      vertex -2.8107197187858723 -14.734308760930329 -3
      vertex -2.6132717065593782 -1.4366582781247583 -3
      vertex -2.412604251082433 -1.752859591657911 -3
    endloop
  endfacet
  facet normal 0 0 -1
    outer loop
      vertex -2.8107197187858723 -14.734308760930329 -3
      vertex -2.7727263061310357 -1.0978000053275216 -3
      vertex -2.6132717065593782 -1.4366582781247583 -3
    endloop
  endfacet
  facet normal 0 0 -1
    outer loop
      vertex -2.8107197187858723 -14.734308760930329 -3
      vertex -2.1738885853459955 -2.041417262323053 -3
      vertex -1.9008893980005568 -2.2977805632778003 -3
    endloop
  endfacet
  facet normal 0 0 -1
    outer loop
      vertex -2.8107197187858723 -14.734308760930329 -3
      vertex -1.9008893980005568 -2.2977805632778003 -3
      vertex -1.5979120493123653 -2.5179064921220804 -3
    endloop
  endfacet
  facet normal 0 0 -1
    outer loop
      vertex -4.635254915624211 -14.265847744427303 -3
      vertex -2.8884533555085965 -0.7416287706523351 -3
      vertex -2.7727263061310357 -1.0978000053275216 -3
    endloop
  endfacet
  facet normal 0 0 -1
    outer loop
      vertex -4.635254915624211 -14.265847744427303 -3
      vertex -2.982142857142857 0 -3
      vertex -2.9586277699913897 -0.3737616072364068 -3
    endloop
  endfacet
  facet normal 0 0 -1
    outer loop
      vertex -4.635254915624211 -14.265847744427303 -3
      vertex -2.9586277699913897 -0.3737616072364068 -3
      vertex -2.8884533555085965 -0.7416287706523351 -3
    endloop
  endfacet
  facet normal 0 0 -1
    outer loop
      vertex -4.635254915624211 -14.265847744427303 -3
      vertex -2.9586277699913897 0.3737616072364068 -3
      vertex -2.982142857142857 0 -3
    endloop
  endfacet
  facet normal 0 0 -1
    outer loop
      vertex -2.8107197187858723 -14.734308760930329 -3
      vertex -1.2697346730601267 -2.6983235314611655 -3
      vertex -0.9215328225110039 -2.836186396808761 -3
    endloop
  endfacet
  facet normal 0 0 -1
    outer loop
      vertex -0.9418577929397064 -14.970400926424073 -3
      vertex -0.9215328225110039 -2.836186396808761 -3
      vertex -0.558797848853858 -2.929320908423054 -3
    endloop
  endfacet
  facet normal 0 0 -1
    outer loop
      vertex -0.9418577929397064 -14.970400926424073 -3
      vertex -0.558797848853858 -2.929320908423054 -3
      vertex -0.18725029931063214 -2.9762582794200245 -3
    endloop
  endfacet
  facet normal -0.7705132427757891 -0.6374239897486899 0
    outer loop
      vertex -10.934529411321176 -10.268206588930328 -3
      vertex -10.934529411321176 -10.268206588930328 0
      vertex -12.135254915624213 -8.816778784387097 0
    endloop
  endfacet
  facet normal -0.8443279255020157 -0.5358267949789955 0
    outer loop
      vertex -12.135254915624213 -8.816778784387097 -3
      vertex -12.135254915624213 -8.816778784387097 0
      vertex -13.144600200657951 -7.226305111525731 0
    endloop
  endfacet
  facet normal -0.5877852522924732 -0.8090169943749473 0
    outer loop
      vertex -9.561359846230344 -11.55769864163684 -3
      vertex -8.037401924684952 -12.664918882530225 0
      vertex -9.561359846230344 -11.55769864163684 0
    endloop
  endfacet
  facet normal -0.6845471059286886 -0.7289686274214117 0
    outer loop
      vertex -10.934529411321176 -10.268206588930328 -3
      vertex -9.561359846230344 -11.55769864163684 0
      vertex -10.934529411321176 -10.268206588930328 0
    endloop
  endfacet
  facet normal -0.9048270524660189 -0.42577929156507377 0
    outer loop
      vertex -13.144600200657951 -7.226305111525731 -3
      vertex -13.144600200657951 -7.226305111525731 0
      vertex -13.946647288323772 -5.521868290270168 0
    endloop
  endfacet
  facet normal -0.9510565162951538 -0.30901699437494673 0
    outer loop
      vertex -13.946647288323772 -5.521868290270168 -3
      vertex -13.946647288323772 -5.521868290270168 0
      vertex -14.528747416929466 -3.7303483074728225 0
    endloop
  endfacet
  facet normal -0.9822872507286886 -0.18738131458572513 0
    outer loop
      vertex -14.528747416929466 -3.7303483074728225 -3
      vertex -14.528747416929466 -3.7303483074728225 0
      vertex -14.881720519717168 -1.879998503464561 0
    endloop
  endfacet
  facet normal -0.9980267284282716 -0.06279051952931293 0
    outer loop
      vertex -14.881720519717168 -1.879998503464561 -3
      vertex -14.881720519717168 -1.879998503464561 0
      vertex -15 0 0
    endloop
  endfacet
  facet normal 0 0 1
    outer loop
      vertex -13.144600200657951 -7.226305111525731 0
      vertex -13.946647288323772 5.521868290270168 0
      vertex -13.946647288323772 -5.521868290270168 0
    endloop
  endfacet
  facet normal 0 0 1
    outer loop
      vertex -14.528747416929466 -3.7303483074728225 0
      vertex -14.881720519717168 1.879998503464561 0
      vertex -14.881720519717168 -1.879998503464561 0
    endloop
  endfacet
  facet normal 0 0 1
    outer loop
      vertex -13.946647288323772 -5.521868290270168 0
      vertex -14.528747416929466 3.7303483074728225 0
      vertex -14.528747416929466 -3.7303483074728225 0
    endloop
  endfacet
  facet normal 0 0 1
    outer loop
      vertex -12.135254915624213 -8.816778784387097 0
      vertex -13.144600200657951 7.226305111525731 0
      vertex -13.144600200657951 -7.226305111525731 0
    endloop
  endfacet
  facet normal 0 0 1
    outer loop
      vertex -12.135254915624213 -8.816778784387097 0
      vertex -10.934529411321176 -10.268206588930328 0
      vertex -12.135254915624213 8.816778784387097 0
    endloop
  endfacet
  facet normal 0 0 1
    outer loop
      vertex -9.561359846230344 -11.55769864163684 0
      vertex -10.934529411321176 10.268206588930328 0
      vertex -10.934529411321176 -10.268206588930328 0
    endloop
  endfacet
  facet normal 0 0 1
    outer loop
      vertex -9.561359846230344 -11.55769864163684 0
      vertex -8.037401924684952 -12.664918882530225 0
      vertex -9.561359846230344 11.55769864163684 0
    endloop
  endfacet
  facet normal -0.3681245526846781 -0.9297764858882513 0
    outer loop
      vertex -6.386689373476086 -13.572405786990293 -3
      vertex -4.635254915624211 -14.265847744427303 0
      vertex -6.386689373476086 -13.572405786990293 0
    endloop
  endfacet
  facet normal -0.4817536741017145 -0.876306680043864 0
    outer loop
      vertex -8.037401924684952 -12.664918882530225 -3
      vertex -6.386689373476086 -13.572405786990293 0
      vertex -8.037401924684952 -12.664918882530225 0
    endloop
  endfacet
  facet normal -0.24868988716485493 -0.9685831611286311 0
    outer loop
      vertex -4.635254915624211 -14.265847744427303 -3
      vertex -2.8107197187858723 -14.734308760930329 0
      vertex -4.635254915624211 -14.265847744427303 0
    endloop
  endfacet
  facet normal -0.12533323356430498 -0.9921147013144778 0
    outer loop
      vertex -2.8107197187858723 -14.734308760930329 -3
      vertex -0.9418577929397064 -14.970400926424073 0
      vertex -2.8107197187858723 -14.734308760930329 0
    endloop
  endfacet
  facet normal 0 -1 0
    outer loop
      vertex -0.9418577929397064 -14.970400926424073 -3
      vertex 0.9418577929397064 -14.970400926424073 0
      vertex -0.9418577929397064 -14.970400926424073 0
    endloop
  endfacet
  facet normal 0 0 1
    outer loop
      vertex -2.8107197187858723 -14.734308760930329 0
      vertex -0.9418577929397064 -14.970400926424073 0
      vertex -1.916006812042826 -4.071721736097088 0
    endloop
  endfacet
  facet normal 0 0 1
    outer loop
      vertex -4.635254915624211 -14.265847744427303 0
      vertex -2.8107197187858723 -14.734308760930329 0
      vertex -3.6405764746872635 -2.6450336353161292 0
    endloop
  endfacet
  facet normal 0 0 1
    outer loop
      vertex -2.8107197187858723 -14.734308760930329 0
      vertex -1.916006812042826 -4.071721736097088 0
      vertex -2.4112205774054853 -3.7994756647590675 0
    endloop
  endfacet
  facet normal 0 0 1
    outer loop
      vertex -0.9418577929397064 -14.970400926424073 0
      vertex -1.3905764746872633 -4.2797543233281905 0
      vertex -1.916006812042826 -4.071721736097088 0
    endloop
  endfacet
  facet normal 0 0 1
    outer loop
      vertex -0.9418577929397064 -14.970400926424073 0
      vertex -0.8432159156357617 -4.420292628279099 0
      vertex -1.3905764746872633 -4.2797543233281905 0
    endloop
  endfacet
  facet normal 0 0 1
    outer loop
      vertex -0.9418577929397064 -14.970400926424073 0
      vertex -0.28255733788191195 -4.491120277927222 0
      vertex -0.8432159156357617 -4.420292628279099 0
    endloop
  endfacet
  facet normal 0 0 1
    outer loop
      vertex -0.9418577929397064 -14.970400926424073 0
      vertex 0.28255733788191195 -4.491120277927222 0
      vertex -0.28255733788191195 -4.491120277927222 0
    endloop
  endfacet
  facet normal 0 0 1
    outer loop
      vertex -8.037401924684952 -12.664918882530225 0
      vertex -6.386689373476086 -13.572405786990293 0
      vertex -8.037401924684952 12.664918882530225 0
    endloop
  endfacet
  facet normal 0 0 1
    outer loop
      vertex -6.386689373476086 -13.572405786990293 0
      vertex -4.635254915624211 -14.265847744427303 0
      vertex -6.386689373476091 13.572405786990291 0
    endloop
  endfacet
  facet normal 0 0 1
    outer loop
      vertex -4.635254915624211 -14.265847744427303 0
      vertex -3.9433800601973856 -2.1678915334577193 0
      vertex -4.183994186497132 -1.6565604870810504 0
    endloop
  endfacet
  facet normal 0 0 1
    outer loop
      vertex -4.635254915624211 -14.265847744427303 0
      vertex -4.183994186497132 -1.6565604870810504 0
      vertex -4.35862422507884 -1.119104492241847 0
    endloop
  endfacet
  facet normal 0 0 1
    outer loop
      vertex -4.635254915624211 -14.265847744427303 0
      vertex -3.6405764746872635 -2.6450336353161292 0
      vertex -3.9433800601973856 -2.1678915334577193 0
    endloop
  endfacet
  facet normal 0 0 1
    outer loop
      vertex -4.635254915624211 -14.265847744427303 0
      vertex -4.35862422507884 -1.119104492241847 0
      vertex -4.464516155915151 -0.5639995510393683 0
    endloop
  endfacet
  facet normal 0 0 1
    outer loop
      vertex -4.635254915624211 -14.265847744427303 0
      vertex -4.464516155915151 -0.5639995510393683 0
      vertex -4.5 0 0
    endloop
  endfacet
  facet normal 0 0 1
    outer loop
      vertex -2.8107197187858723 -14.734308760930329 0
      vertex -2.868407953869103 -3.467309592491052 0
      vertex -3.2803588233963525 -3.080461976679098 0
    endloop
  endfacet
  facet normal 0 0 1
    outer loop
      vertex -2.8107197187858723 -14.734308760930329 0
      vertex -3.2803588233963525 -3.080461976679098 0
      vertex -3.6405764746872635 -2.6450336353161292 0
    endloop
  endfacet
  facet normal 0 0 1
    outer loop
      vertex -2.8107197187858723 -14.734308760930329 0
      vertex -2.4112205774054853 -3.7994756647590675 0
      vertex -2.868407953869103 -3.467309592491052 0
    endloop
  endfacet
  facet normal 0 0 -1
    outer loop
      vertex -14.881720519717168 -1.879998503464561 -3
      vertex -15 0 -3
      vertex -14.881720519717168 1.879998503464561 -3
    endloop
  endfacet
  facet normal 0 0 -1
    outer loop
      vertex -14.881720519717168 -1.879998503464561 -3
      vertex -14.881720519717168 1.879998503464561 -3
      vertex -14.528747416929466 3.7303483074728225 -3
    endloop
  endfacet
  facet normal 0 0 -1
    outer loop
      vertex -14.528747416929466 -3.7303483074728225 -3
      vertex -14.528747416929466 3.7303483074728225 -3
      vertex -13.946647288323772 5.521868290270168 -3
    endloop
  endfacet
  facet normal 0 0 -1
    outer loop
      vertex -13.946647288323772 -5.521868290270168 -3
      vertex -13.946647288323772 5.521868290270168 -3
      vertex -13.144600200657951 7.226305111525731 -3
    endloop
  endfacet
  facet normal 0 0 -1
    outer loop
      vertex -13.144600200657951 -7.226305111525731 -3
      vertex -13.144600200657951 7.226305111525731 -3
      vertex -12.135254915624213 8.816778784387097 -3
    endloop
  endfacet
  facet normal 0 0 -1
    outer loop
      vertex -12.135254915624213 -8.816778784387097 -3
      vertex -12.135254915624213 8.816778784387097 -3
      vertex -10.934529411321176 10.268206588930328 -3
    endloop
  endfacet
  facet normal 0 0 -1
    outer loop
      vertex -10.934529411321176 -10.268206588930328 -3
      vertex -10.934529411321176 10.268206588930328 -3
      vertex -9.561359846230344 11.55769864163684 -3
    endloop
  endfacet
  facet normal 0 0 -1
    outer loop
      vertex -9.561359846230344 -11.55769864163684 -3
      vertex -9.561359846230344 11.55769864163684 -3
      vertex -8.037401924684952 12.664918882530225 -3
    endloop
  endfacet
  facet normal -0.9980267284282716 0.06279051952931293 0
    outer loop
      vertex -15 0 -3
      vertex -14.881720519717168 1.879998503464561 0
      vertex -14.881720519717168 1.879998503464561 -3
    endloop
  endfacet
  facet normal -0.9822872507286886 0.18738131458572513 0
    outer loop
      vertex -14.881720519717168 1.879998503464561 -3
      vertex -14.528747416929466 3.7303483074728225 0
      vertex -14.528747416929466 3.7303483074728225 -3
    endloop
  endfacet
  facet normal -0.9510565162951538 0.30901699437494673 0
    outer loop
      vertex -14.528747416929466 3.7303483074728225 -3
      vertex -13.946647288323772 5.521868290270168 0
      vertex -13.946647288323772 5.521868290270168 -3
    endloop
  endfacet
  facet normal -0.9048270524660189 0.42577929156507377 0
    outer loop
      vertex -13.946647288323772 5.521868290270168 -3
      vertex -13.144600200657951 7.226305111525731 0
      vertex -13.144600200657951 7.226305111525731 -3
    endloop
  endfacet
  facet normal -0.8443279255020157 0.5358267949789955 0
    outer loop
      vertex -13.144600200657951 7.226305111525731 -3
      vertex -12.135254915624213 8.816778784387097 0
      vertex -12.135254915624213 8.816778784387097 -3
    endloop
  endfacet
  facet normal -0.7705132427757891 0.6374239897486899 0
    outer loop
      vertex -12.135254915624213 8.816778784387097 -3
      vertex -10.934529411321176 10.268206588930328 0
      vertex -10.934529411321176 10.268206588930328 -3
    endloop
  endfacet
  facet normal -0.6845471059286886 0.7289686274214117 0
    outer loop
      vertex -10.934529411321176 10.268206588930328 -3
      vertex -10.934529411321176 10.268206588930328 0
      vertex -9.561359846230344 11.55769864163684 -3
    endloop
  endfacet
  facet normal -0.5877852522924732 0.8090169943749473 0
    outer loop
      vertex -9.561359846230344 11.55769864163684 -3
      vertex -9.561359846230344 11.55769864163684 0
      vertex -8.037401924684952 12.664918882530225 -3
    endloop
  endfacet
  facet normal 0 0 -1
    outer loop
      vertex -8.037401924684952 -12.664918882530225 -3
      vertex -8.037401924684952 12.664918882530225 -3
      vertex -6.386689373476091 13.572405786990291 -3
    endloop
  endfacet
  facet normal 0 0 -1
    outer loop
      vertex -6.386689373476086 -13.572405786990293 -3
      vertex -6.386689373476091 13.572405786990291 -3
      vertex -4.635254915624211 14.265847744427303 -3
    endloop
  endfacet
  facet normal 0 0 -1
    outer loop
      vertex -4.635254915624211 -14.265847744427303 -3
      vertex -4.635254915624211 14.265847744427303 -3
      vertex -2.810719718785869 14.73430876093033 -3
    endloop
  endfacet
  facet normal 0 0 -1
    outer loop
      vertex -4.635254915624211 -14.265847744427303 -3
      vertex -2.810719718785869 14.73430876093033 -3
      vertex -2.9586277699913897 0.3737616072364068 -3
    endloop
  endfacet
  facet normal 0 0 -1
    outer loop
      vertex -2.810719718785869 14.73430876093033 -3
      vertex -2.8884533555085965 0.741628770652335 -3
      vertex -2.9586277699913897 0.3737616072364068 -3
    endloop
  endfacet
  facet normal 0 0 -1
    outer loop
      vertex -2.810719718785869 14.73430876093033 -3
      vertex -2.7727263061310357 1.0978000053275214 -3
      vertex -2.8884533555085965 0.741628770652335 -3
    endloop
  endfacet
  facet normal 0 0 -1
    outer loop
      vertex -2.810719718785869 14.73430876093033 -3
      vertex -2.6132717065593787 1.4366582781247583 -3
      vertex -2.7727263061310357 1.0978000053275214 -3
    endloop
  endfacet
  facet normal 0 0 -1
    outer loop
      vertex -2.810719718785869 14.73430876093033 -3
      vertex -2.4126042510824326 1.752859591657911 -3
      vertex -2.6132717065593787 1.4366582781247583 -3
    endloop
  endfacet
  facet normal 0 0 -1
    outer loop
      vertex -2.810719718785869 14.73430876093033 -3
      vertex -2.1738885853459955 2.041417262323053 -3
      vertex -2.4126042510824326 1.752859591657911 -3
    endloop
  endfacet
  facet normal 0 0 -1
    outer loop
      vertex -2.810719718785869 14.73430876093033 -3
      vertex -1.9008893980005566 2.297780563277801 -3
      vertex -2.1738885853459955 2.041417262323053 -3
    endloop
  endfacet
  facet normal 0 0 -1
    outer loop
      vertex -0.9418577929396992 14.970400926424073 -3
      vertex -1.5979120493123653 2.5179064921220804 -3
      vertex -1.9008893980005566 2.297780563277801 -3
    endloop
  endfacet
  facet normal 0 0 -1
    outer loop
      vertex -0.9418577929396992 14.970400926424073 -3
      vertex -1.2697346730601275 2.698323531461165 -3
      vertex -1.5979120493123653 2.5179064921220804 -3
    endloop
  endfacet
  facet normal 0 0 -1
    outer loop
      vertex -0.9418577929396992 14.970400926424073 -3
      vertex -0.9215328225110039 2.836186396808761 -3
      vertex -1.2697346730601275 2.698323531461165 -3
    endloop
  endfacet
  facet normal 0 0 -1
    outer loop
      vertex -0.9418577929396992 14.970400926424073 -3
      vertex -0.5587978488538572 2.929320908423054 -3
      vertex -0.9215328225110039 2.836186396808761 -3
    endloop
  endfacet
  facet normal 0 0 -1
    outer loop
      vertex -0.9418577929396992 14.970400926424073 -3
      vertex -0.18725029931063064 2.9762582794200245 -3
      vertex -0.5587978488538572 2.929320908423054 -3
    endloop
  endfacet
  facet normal 0 0 -1
    outer loop
      vertex -0.9418577929396992 14.970400926424073 -3
      vertex 0.1872502993106278 2.9762582794200245 -3
      vertex -0.18725029931063064 2.9762582794200245 -3
    endloop
  endfacet
  facet normal 0 0 -1
    outer loop
      vertex -2.810719718785869 14.73430876093033 -3
      vertex -0.9418577929396992 14.970400926424073 -3
      vertex -1.9008893980005566 2.297780563277801 -3
    endloop
  endfacet
  facet normal -0.48175367410171477 0.8763066800438638 0
    outer loop
      vertex -8.037401924684952 12.664918882530225 -3
      vertex -8.037401924684952 12.664918882530225 0
      vertex -6.386689373476091 13.572405786990291 -3
    endloop
  endfacet
  facet normal -0.36812455268467803 0.9297764858882512 0
    outer loop
      vertex -6.386689373476091 13.572405786990291 -3
      vertex -6.386689373476091 13.572405786990291 0
      vertex -4.635254915624211 14.265847744427303 -3
    endloop
  endfacet
  facet normal -0.24868988716485538 0.968583161128631 0
    outer loop
      vertex -4.635254915624211 14.265847744427303 -3
      vertex -4.635254915624211 14.265847744427303 0
      vertex -2.810719718785869 14.73430876093033 -3
    endloop
  endfacet
  facet normal -0.1253332335643038 0.9921147013144779 0
    outer loop
      vertex -2.810719718785869 14.73430876093033 -3
      vertex -2.810719718785869 14.73430876093033 0
      vertex -0.9418577929396992 14.970400926424073 -3
    endloop
  endfacet
  facet normal 0 1 0
    outer loop
      vertex -0.9418577929396992 14.970400926424073 -3
      vertex -0.9418577929396992 14.970400926424073 0
      vertex 0.9418577929396992 14.970400926424073 -3
    endloop
  endfacet
  facet normal -0.9980267284282716 0.06279051952931293 0
    outer loop
      vertex -15 0 -3
      vertex -15 0 0
      vertex -14.881720519717168 1.879998503464561 0
    endloop
  endfacet
  facet normal -0.9822872507286886 0.18738131458572513 0
    outer loop
      vertex -14.881720519717168 1.879998503464561 -3
      vertex -14.881720519717168 1.879998503464561 0
      vertex -14.528747416929466 3.7303483074728225 0
    endloop
  endfacet
  facet normal -0.9510565162951538 0.30901699437494673 0
    outer loop
      vertex -14.528747416929466 3.7303483074728225 -3
      vertex -14.528747416929466 3.7303483074728225 0
      vertex -13.946647288323772 5.521868290270168 0
    endloop
  endfacet
  facet normal -0.9048270524660189 0.42577929156507377 0
    outer loop
      vertex -13.946647288323772 5.521868290270168 -3
      vertex -13.946647288323772 5.521868290270168 0
      vertex -13.144600200657951 7.226305111525731 0
    endloop
  endfacet
  facet normal 0 0 1
    outer loop
      vertex -14.881720519717168 -1.879998503464561 0
      vertex -14.881720519717168 1.879998503464561 0
      vertex -15 0 0
    endloop
  endfacet
  facet normal 0 0 1
    outer loop
      vertex -14.528747416929466 -3.7303483074728225 0
      vertex -14.528747416929466 3.7303483074728225 0
      vertex -14.881720519717168 1.879998503464561 0
    endloop
  endfacet
  facet normal 0 0 1
    outer loop
      vertex -13.946647288323772 -5.521868290270168 0
      vertex -13.946647288323772 5.521868290270168 0
      vertex -14.528747416929466 3.7303483074728225 0
    endloop
  endfacet
  facet normal 0 0 1
    outer loop
      vertex -13.144600200657951 -7.226305111525731 0
      vertex -13.144600200657951 7.226305111525731 0
      vertex -13.946647288323772 5.521868290270168 0
    endloop
  endfacet
  facet normal 0 0 1
    outer loop
      vertex -12.135254915624213 -8.816778784387097 0
      vertex -12.135254915624213 8.816778784387097 0
      vertex -13.144600200657951 7.226305111525731 0
    endloop
  endfacet
  facet normal 0 0 1
    outer loop
      vertex -10.934529411321176 -10.268206588930328 0
      vertex -10.934529411321176 10.268206588930328 0
      vertex -12.135254915624213 8.816778784387097 0
    endloop
  endfacet
  facet normal 0 0 1
    outer loop
      vertex -9.561359846230344 -11.55769864163684 0
      vertex -9.561359846230344 11.55769864163684 0
      vertex -10.934529411321176 10.268206588930328 0
    endloop
  endfacet
  facet normal 0 0 1
    outer loop
      vertex -8.037401924684952 -12.664918882530225 0
      vertex -8.037401924684952 12.664918882530225 0
      vertex -9.561359846230344 11.55769864163684 0
    endloop
  endfacet
  facet normal -0.8443279255020157 0.5358267949789955 0
    outer loop
      vertex -13.144600200657951 7.226305111525731 -3
      vertex -13.144600200657951 7.226305111525731 0
      vertex -12.135254915624213 8.816778784387097 0
    endloop
  endfacet
  facet normal -0.7705132427757891 0.6374239897486899 0
    outer loop
      vertex -12.135254915624213 8.816778784387097 -3
      vertex -12.135254915624213 8.816778784387097 0
      vertex -10.934529411321176 10.268206588930328 0
    endloop
  endfacet
  facet normal -0.6845471059286886 0.7289686274214117 0
    outer loop
      vertex -9.561359846230344 11.55769864163684 -3
      vertex -10.934529411321176 10.268206588930328 0
      vertex -9.561359846230344 11.55769864163684 0
    endloop
  endfacet
  facet normal -0.5877852522924732 0.8090169943749473 0
    outer loop
      vertex -8.037401924684952 12.664918882530225 -3
      vertex -9.561359846230344 11.55769864163684 0
      vertex -8.037401924684952 12.664918882530225 0
    endloop
  endfacet
  facet normal 0 0 1
    outer loop
      vertex -4.635254915624211 -14.265847744427303 0
      vertex -4.5 0 0
      vertex -4.635254915624211 14.265847744427303 0
    endloop
  endfacet
  facet normal 0 0 1
    outer loop
      vertex -6.386689373476086 -13.572405786990293 0
      vertex -6.386689373476091 13.572405786990291 0
      vertex -8.037401924684952 12.664918882530225 0
    endloop
  endfacet
  facet normal 0 0 1
    outer loop
      vertex -4.635254915624211 -14.265847744427303 0
      vertex -4.635254915624211 14.265847744427303 0
      vertex -6.386689373476091 13.572405786990291 0
    endloop
  endfacet
  facet normal 0 0 1
    outer loop
      vertex -4.635254915624211 14.265847744427303 0
      vertex -4.5 0 0
      vertex -4.464516155915151 0.5639995510393683 0
    endloop
  endfacet
  facet normal 0 0 1
    outer loop
      vertex -4.635254915624211 14.265847744427303 0
      vertex -4.464516155915151 0.5639995510393683 0
      vertex -4.35862422507884 1.119104492241847 0
    endloop
  endfacet
  facet normal 0 0 1
    outer loop
      vertex -4.635254915624211 14.265847744427303 0
      vertex -4.35862422507884 1.119104492241847 0
      vertex -4.183994186497132 1.6565604870810504 0
    endloop
  endfacet
  facet normal 0 0 1
    outer loop
      vertex -4.635254915624211 14.265847744427303 0
      vertex -4.183994186497132 1.6565604870810504 0
      vertex -3.9433800601973856 2.1678915334577193 0
    endloop
  endfacet
  facet normal 0 0 1
    outer loop
      vertex -4.635254915624211 14.265847744427303 0
      vertex -3.9433800601973856 2.1678915334577193 0
      vertex -3.6405764746872635 2.6450336353161292 0
    endloop
  endfacet
  facet normal 0 0 1
    outer loop
      vertex -4.635254915624211 14.265847744427303 0
      vertex -3.6405764746872635 2.6450336353161292 0
      vertex -3.2803588233963525 3.080461976679098 0
    endloop
  endfacet
  facet normal 0 0 1
    outer loop
      vertex -4.635254915624211 14.265847744427303 0
      vertex -3.2803588233963525 3.080461976679098 0
      vertex -2.868407953869103 3.467309592491052 0
    endloop
  endfacet
  facet normal 0 0 1
    outer loop
      vertex -4.635254915624211 14.265847744427303 0
      vertex -2.868407953869103 3.467309592491052 0
      vertex -2.4112205774054853 3.7994756647590675 0
    endloop
  endfacet
  facet normal -0.48175367410171477 0.8763066800438638 0
    outer loop
      vertex -6.386689373476091 13.572405786990291 -3
      vertex -8.037401924684952 12.664918882530225 0
      vertex -6.386689373476091 13.572405786990291 0
    endloop
  endfacet
  facet normal -0.36812455268467803 0.9297764858882512 0
    outer loop
      vertex -4.635254915624211 14.265847744427303 -3
      vertex -6.386689373476091 13.572405786990291 0
      vertex -4.635254915624211 14.265847744427303 0
    endloop
  endfacet
  facet normal -0.24868988716485538 0.968583161128631 0
    outer loop
      vertex -2.810719718785869 14.73430876093033 -3
      vertex -4.635254915624211 14.265847744427303 0
      vertex -2.810719718785869 14.73430876093033 0
    endloop
  endfacet
  facet normal -0.1253332335643038 0.9921147013144779 0
    outer loop
      vertex -0.9418577929396992 14.970400926424073 -3
      vertex -2.810719718785869 14.73430876093033 0
      vertex -0.9418577929396992 14.970400926424073 0
    endloop
  endfacet
  facet normal 0 0 1
    outer loop
      vertex -2.810719718785869 14.73430876093033 0
      vertex -2.4112205774054853 3.7994756647590675 0
      vertex -1.9160068120428273 4.071721736097087 0
    endloop
  endfacet
  facet normal 0 0 1
    outer loop
      vertex -2.810719718785869 14.73430876093033 0
      vertex -1.9160068120428273 4.071721736097087 0
      vertex -1.3905764746872633 4.2797543233281905 0
    endloop
  endfacet
  facet normal 0 0 1
    outer loop
      vertex -4.635254915624211 14.265847744427303 0
      vertex -2.4112205774054853 3.7994756647590675 0
      vertex -2.810719718785869 14.73430876093033 0
    endloop
  endfacet
  facet normal 0 0 1
    outer loop
      vertex -2.810719718785869 14.73430876093033 0
      vertex -1.3905764746872633 4.2797543233281905 0
      vertex -0.8432159156357606 4.420292628279099 0
    endloop
  endfacet
  facet normal 0 0 1
    outer loop
      vertex -0.9418577929396992 14.970400926424073 0
      vertex -0.8432159156357606 4.420292628279099 0
      vertex -0.28255733788190734 4.491120277927222 0
    endloop
  endfacet
  facet normal 0 0 1
    outer loop
      vertex -2.810719718785869 14.73430876093033 0
      vertex -0.8432159156357606 4.420292628279099 0
      vertex -0.9418577929396992 14.970400926424073 0
    endloop
  endfacet
  facet normal 0 0 1
    outer loop
      vertex -0.9418577929396992 14.970400926424073 0
      vertex -0.28255733788190734 4.491120277927222 0
      vertex 0.9418577929396992 14.970400926424073 0
    endloop
  endfacet
  facet normal 0 0 -1
    outer loop
      vertex 0.9418577929397064 -14.970400926424073 -3
      vertex 1.900889398000558 -2.2977805632778 -3
      vertex 2.8107197187858723 -14.734308760930329 -3
    endloop
  endfacet
  facet normal 0 -1 0
    outer loop
      vertex -0.9418577929397064 -14.970400926424073 -3
      vertex 0.9418577929397064 -14.970400926424073 -3
      vertex 0.9418577929397064 -14.970400926424073 0
    endloop
  endfacet
  facet normal 0.12533323356430498 -0.9921147013144778 0
    outer loop
      vertex 0.9418577929397064 -14.970400926424073 -3
      vertex 2.8107197187858723 -14.734308760930329 -3
      vertex 2.8107197187858723 -14.734308760930329 0
    endloop
  endfacet
  facet normal 0.24868988716485493 -0.9685831611286311 0
    outer loop
      vertex 2.8107197187858723 -14.734308760930329 -3
      vertex 4.635254915624211 -14.265847744427303 -3
      vertex 4.635254915624211 -14.265847744427303 0
    endloop
  endfacet
  facet normal 0.3681245526846781 -0.9297764858882513 0
    outer loop
      vertex 4.635254915624211 -14.265847744427303 -3
      vertex 6.386689373476086 -13.572405786990293 -3
      vertex 6.386689373476086 -13.572405786990293 0
    endloop
  endfacet
  facet normal 0.4817536741017143 -0.876306680043864 0
    outer loop
      vertex 6.386689373476086 -13.572405786990293 -3
      vertex 8.037401924684943 -12.66491888253023 -3
      vertex 8.037401924684943 -12.66491888253023 0
    endloop
  endfacet
  facet normal 0 0 -1
    outer loop
      vertex 0.9418577929397064 -14.970400926424073 -3
      vertex -0.18725029931063214 -2.9762582794200245 -3
      vertex 0.18725029931063214 -2.9762582794200245 -3
    endloop
  endfacet
  facet normal 0 0 -1
    outer loop
      vertex 0.9418577929397064 -14.970400926424073 -3
      vertex 0.18725029931063214 -2.9762582794200245 -3
      vertex 0.558797848853858 -2.929320908423054 -3
    endloop
  endfacet
  facet normal 0 0 -1
    outer loop
      vertex 0.9418577929397064 -14.970400926424073 -3
      vertex 0.558797848853858 -2.929320908423054 -3
      vertex 0.9215328225110039 -2.836186396808761 -3
    endloop
  endfacet
  facet normal 0 0 -1
    outer loop
      vertex 0.9418577929397064 -14.970400926424073 -3
      vertex 0.9215328225110039 -2.836186396808761 -3
      vertex 1.2697346730601267 -2.6983235314611655 -3
    endloop
  endfacet
  facet normal 0 0 -1
    outer loop
      vertex 0.9418577929397064 -14.970400926424073 -3
      vertex 1.2697346730601267 -2.6983235314611655 -3
      vertex 1.5979120493123637 -2.5179064921220817 -3
    endloop
  endfacet
  facet normal 0 0 -1
    outer loop
      vertex 0.9418577929397064 -14.970400926424073 -3
      vertex 1.5979120493123637 -2.5179064921220817 -3
      vertex 1.900889398000558 -2.2977805632778 -3
    endloop
  endfacet
  facet normal 0 0 -1
    outer loop
      vertex 2.8107197187858723 -14.734308760930329 -3
      vertex 1.900889398000558 -2.2977805632778 -3
      vertex 2.1738885853459955 -2.041417262323053 -3
    endloop
  endfacet
  facet normal 0 0 -1
    outer loop
      vertex 2.8107197187858723 -14.734308760930329 -3
      vertex 2.1738885853459955 -2.041417262323053 -3
      vertex 2.412604251082433 -1.752859591657911 -3
    endloop
  endfacet
  facet normal 0 0 -1
    outer loop
      vertex 2.8107197187858723 -14.734308760930329 -3
      vertex 2.412604251082433 -1.752859591657911 -3
      vertex 2.6132717065593782 -1.4366582781247583 -3
    endloop
  endfacet
  facet normal 0 0 -1
    outer loop
      vertex 2.8107197187858723 -14.734308760930329 -3
      vertex 2.6132717065593782 -1.4366582781247583 -3
      vertex 2.7727263061310348 -1.0978000053275228 -3
    endloop
  endfacet
  facet normal 0 0 -1
    outer loop
      vertex 2.8107197187858723 -14.734308760930329 -3
      vertex 2.7727263061310348 -1.0978000053275228 -3
      vertex 2.888453355508597 -0.7416287706523338 -3
    endloop
  endfacet
  facet normal 0 0 -1
    outer loop
      vertex 2.8107197187858723 -14.734308760930329 -3
      vertex 2.888453355508597 -0.7416287706523338 -3
      vertex 2.9586277699913897 -0.3737616072364068 -3
    endloop
  endfacet
  facet normal 0 0 -1
    outer loop
      vertex 2.8107197187858723 -14.734308760930329 -3
      vertex 2.9586277699913897 -0.3737616072364068 -3
      vertex 4.635254915624211 14.265847744427303 -3
    endloop
  endfacet
  facet normal 0 0 -1
    outer loop
      vertex 2.8107197187858723 -14.734308760930329 -3
      vertex 4.635254915624211 14.265847744427303 -3
      vertex 4.635254915624211 -14.265847744427303 -3
    endloop
  endfacet
  facet normal 0 0 -1
    outer loop
      vertex 4.635254915624211 -14.265847744427303 -3
      vertex 6.386689373476091 13.572405786990291 -3
      vertex 6.386689373476086 -13.572405786990293 -3
    endloop
  endfacet
  facet normal 0 0 -1
    outer loop
      vertex 6.386689373476086 -13.572405786990293 -3
      vertex 8.03740192468495 12.664918882530227 -3
      vertex 8.037401924684943 -12.66491888253023 -3
    endloop
  endfacet
  facet normal 0.5877852522924728 -0.8090169943749477 0
    outer loop
      vertex 8.037401924684943 -12.66491888253023 -3
      vertex 9.56135984623035 -11.557698641636836 -3
      vertex 9.56135984623035 -11.557698641636836 0
    endloop
  endfacet
  facet normal 0.684547105928689 -0.7289686274214113 0
    outer loop
      vertex 9.56135984623035 -11.557698641636836 -3
      vertex 10.934529411321176 -10.268206588930328 -3
      vertex 10.934529411321176 -10.268206588930328 0
    endloop
  endfacet
  facet normal 0.7705132427757891 -0.6374239897486899 0
    outer loop
      vertex 10.934529411321176 -10.268206588930328 -3
      vertex 12.135254915624213 -8.816778784387097 -3
      vertex 10.934529411321176 -10.268206588930328 0
    endloop
  endfacet
  facet normal 0.8443279255020157 -0.5358267949789955 0
    outer loop
      vertex 12.135254915624213 -8.816778784387097 -3
      vertex 13.144600200657951 -7.226305111525731 -3
      vertex 12.135254915624213 -8.816778784387097 0
    endloop
  endfacet
  facet normal 0 0 -1
    outer loop
      vertex 8.037401924684943 -12.66491888253023 -3
      vertex 9.561359846230346 11.557698641636836 -3
      vertex 9.56135984623035 -11.557698641636836 -3
    endloop
  endfacet
  facet normal 0 0 -1
    outer loop
      vertex 9.56135984623035 -11.557698641636836 -3
      vertex 10.934529411321174 10.268206588930331 -3
      vertex 10.934529411321176 -10.268206588930328 -3
    endloop
  endfacet
  facet normal 0 0 -1
    outer loop
      vertex 10.934529411321176 -10.268206588930328 -3
      vertex 12.135254915624213 8.816778784387097 -3
      vertex 12.135254915624213 -8.816778784387097 -3
    endloop
  endfacet
  facet normal 0 0 -1
    outer loop
      vertex 12.135254915624213 -8.816778784387097 -3
      vertex 13.144600200657953 7.22630511152573 -3
      vertex 13.144600200657951 -7.226305111525731 -3
    endloop
  endfacet
  facet normal 0 0 -1
    outer loop
      vertex 13.144600200657951 -7.226305111525731 -3
      vertex 13.94664728832377 5.521868290270169 -3
      vertex 13.946647288323769 -5.5218682902701755 -3
    endloop
  endfacet
  facet normal 0 0 -1
    outer loop
      vertex 13.946647288323769 -5.5218682902701755 -3
      vertex 14.528747416929466 3.730348307472822 -3
      vertex 14.528747416929468 -3.7303483074728163 -3
    endloop
  endfacet
  facet normal 0 0 -1
    outer loop
      vertex 14.528747416929468 -3.7303483074728163 -3
      vertex 14.881720519717168 1.8799985034645639 -3
      vertex 14.881720519717168 -1.879998503464561 -3
    endloop
  endfacet
  facet normal 0.904827052466019 -0.4257792915650737 0
    outer loop
      vertex 13.144600200657951 -7.226305111525731 -3
      vertex 13.946647288323769 -5.5218682902701755 -3
      vertex 13.144600200657951 -7.226305111525731 0
    endloop
  endfacet
  facet normal 0.9510565162951536 -0.30901699437494723 0
    outer loop
      vertex 13.946647288323769 -5.5218682902701755 -3
      vertex 14.528747416929468 -3.7303483074728163 -3
      vertex 13.946647288323769 -5.5218682902701755 0
    endloop
  endfacet
  facet normal 0.9822872507286887 -0.18738131458572485 0
    outer loop
      vertex 14.528747416929468 -3.7303483074728163 -3
      vertex 14.881720519717168 -1.879998503464561 -3
      vertex 14.528747416929468 -3.7303483074728163 0
    endloop
  endfacet
  facet normal 0.9980267284282716 -0.06279051952931293 0
    outer loop
      vertex 14.881720519717168 -1.879998503464561 -3
      vertex 15 0 -3
      vertex 14.881720519717168 -1.879998503464561 0
    endloop
  endfacet
  facet normal 0.12533323356430498 -0.9921147013144778 0
    outer loop
      vertex 0.9418577929397064 -14.970400926424073 -3
      vertex 2.8107197187858723 -14.734308760930329 0
      vertex 0.9418577929397064 -14.970400926424073 0
    endloop
  endfacet
  facet normal 0.24868988716485493 -0.9685831611286311 0
    outer loop
      vertex 2.8107197187858723 -14.734308760930329 -3
      vertex 4.635254915624211 -14.265847744427303 0
      vertex 2.8107197187858723 -14.734308760930329 0
    endloop
  endfacet
  facet normal 0.3681245526846781 -0.9297764858882513 0
    outer loop
      vertex 4.635254915624211 -14.265847744427303 -3
      vertex 6.386689373476086 -13.572405786990293 0
      vertex 4.635254915624211 -14.265847744427303 0
    endloop
  endfacet
  facet normal 0.4817536741017143 -0.876306680043864 0
    outer loop
      vertex 6.386689373476086 -13.572405786990293 -3
      vertex 8.037401924684943 -12.66491888253023 0
      vertex 6.386689373476086 -13.572405786990293 0
    endloop
  endfacet
  facet normal 0 0 1
    outer loop
      vertex -0.9418577929397064 -14.970400926424073 0
      vertex 0.9418577929397064 -14.970400926424073 0
      vertex 0.28255733788191195 -4.491120277927222 0
    endloop
  endfacet
  facet normal 0 0 1
    outer loop
      vertex 0.9418577929397064 -14.970400926424073 0
      vertex 2.8107197187858723 -14.734308760930329 0
      vertex 0.8432159156357617 -4.420292628279099 0
    endloop
  endfacet
  facet normal 0 0 1
    outer loop
      vertex 0.9418577929397064 -14.970400926424073 0
      vertex 0.8432159156357617 -4.420292628279099 0
      vertex 0.28255733788191195 -4.491120277927222 0
    endloop
  endfacet
  facet normal 0 0 1
    outer loop
      vertex 2.8107197187858723 -14.734308760930329 0
      vertex 1.3905764746872633 -4.2797543233281905 0
      vertex 0.8432159156357617 -4.420292628279099 0
    endloop
  endfacet
  facet normal 0 0 1
    outer loop
      vertex 2.8107197187858723 -14.734308760930329 0
      vertex 4.635254915624211 -14.265847744427303 0
      vertex 2.411220577405483 -3.799475664759069 0
    endloop
  endfacet
  facet normal 0 0 1
    outer loop
      vertex 2.8107197187858723 -14.734308760930329 0
      vertex 1.916006812042826 -4.071721736097088 0
      vertex 1.3905764746872633 -4.2797543233281905 0
    endloop
  endfacet
  facet normal 0 0 1
    outer loop
      vertex 2.8107197187858723 -14.734308760930329 0
      vertex 2.411220577405483 -3.799475664759069 0
      vertex 1.916006812042826 -4.071721736097088 0
    endloop
  endfacet
  facet normal 0 0 1
    outer loop
      vertex 4.635254915624211 -14.265847744427303 0
      vertex 2.868407953869105 -3.4673095924910506 0
      vertex 2.411220577405483 -3.799475664759069 0
    endloop
  endfacet
  facet normal 0 0 1
    outer loop
      vertex 4.635254915624211 -14.265847744427303 0
      vertex 3.2803588233963525 -3.080461976679098 0
      vertex 2.868407953869105 -3.4673095924910506 0
    endloop
  endfacet
  facet normal 0 0 1
    outer loop
      vertex 4.635254915624211 -14.265847744427303 0
      vertex 3.6405764746872635 -2.6450336353161292 0
      vertex 3.2803588233963525 -3.080461976679098 0
    endloop
  endfacet
  facet normal 0 0 1
    outer loop
      vertex 4.635254915624211 -14.265847744427303 0
      vertex 3.9433800601973856 -2.1678915334577193 0
      vertex 3.6405764746872635 -2.6450336353161292 0
    endloop
  endfacet
  facet normal 0 0 1
    outer loop
      vertex 4.635254915624211 -14.265847744427303 0
      vertex 4.183994186497131 -1.6565604870810526 0
      vertex 3.9433800601973856 -2.1678915334577193 0
    endloop
  endfacet
  facet normal 0 0 1
    outer loop
      vertex 4.635254915624211 -14.265847744427303 0
      vertex 4.358624225078841 -1.119104492241845 0
      vertex 4.183994186497131 -1.6565604870810526 0
    endloop
  endfacet
  facet normal 0 0 1
    outer loop
      vertex 4.635254915624211 -14.265847744427303 0
      vertex 4.464516155915151 -0.5639995510393683 0
      vertex 4.358624225078841 -1.119104492241845 0
    endloop
  endfacet
  facet normal 0 0 1
    outer loop
      vertex 4.635254915624211 -14.265847744427303 0
      vertex 4.5 0 0
      vertex 4.464516155915151 -0.5639995510393683 0
    endloop
  endfacet
  facet normal 0 0 1
    outer loop
      vertex 4.635254915624211 -14.265847744427303 0
      vertex 6.386689373476086 -13.572405786990293 0
      vertex 4.635254915624211 14.265847744427303 0
    endloop
  endfacet
  facet normal 0 0 1
    outer loop
      vertex 6.386689373476086 -13.572405786990293 0
      vertex 8.037401924684943 -12.66491888253023 0
      vertex 6.386689373476091 13.572405786990291 0
    endloop
  endfacet
  facet normal 0.5877852522924728 -0.8090169943749477 0
    outer loop
      vertex 8.037401924684943 -12.66491888253023 -3
      vertex 9.56135984623035 -11.557698641636836 0
      vertex 8.037401924684943 -12.66491888253023 0
    endloop
  endfacet
  facet normal 0.684547105928689 -0.7289686274214113 0
    outer loop
      vertex 9.56135984623035 -11.557698641636836 -3
      vertex 10.934529411321176 -10.268206588930328 0
      vertex 9.56135984623035 -11.557698641636836 0
    endloop
  endfacet
  facet normal 0.7705132427757891 -0.6374239897486899 0
    outer loop
      vertex 12.135254915624213 -8.816778784387097 -3
      vertex 12.135254915624213 -8.816778784387097 0
      vertex 10.934529411321176 -10.268206588930328 0
    endloop
  endfacet
  facet normal 0.8443279255020157 -0.5358267949789955 0
    outer loop
      vertex 13.144600200657951 -7.226305111525731 -3
      vertex 13.144600200657951 -7.226305111525731 0
      vertex 12.135254915624213 -8.816778784387097 0
    endloop
  endfacet
  facet normal 0.904827052466019 -0.4257792915650737 0
    outer loop
      vertex 13.946647288323769 -5.5218682902701755 -3
      vertex 13.946647288323769 -5.5218682902701755 0
      vertex 13.144600200657951 -7.226305111525731 0
    endloop
  endfacet
  facet normal 0.9510565162951536 -0.30901699437494723 0
    outer loop
      vertex 14.528747416929468 -3.7303483074728163 -3
      vertex 14.528747416929468 -3.7303483074728163 0
      vertex 13.946647288323769 -5.5218682902701755 0
    endloop
  endfacet
  facet normal 0.9822872507286887 -0.18738131458572485 0
    outer loop
      vertex 14.881720519717168 -1.879998503464561 -3
      vertex 14.881720519717168 -1.879998503464561 0
      vertex 14.528747416929468 -3.7303483074728163 0
    endloop
  endfacet
  facet normal 0.9980267284282716 -0.06279051952931293 0
    outer loop
      vertex 14.881720519717168 -1.879998503464561 0
      vertex 15 0 -3
      vertex 15 0 0
    endloop
  endfacet
  facet normal 0 0 1
    outer loop
      vertex 8.037401924684943 -12.66491888253023 0
      vertex 9.56135984623035 -11.557698641636836 0
      vertex 8.03740192468495 12.664918882530227 0
    endloop
  endfacet
  facet normal 0 0 1
    outer loop
      vertex 9.56135984623035 -11.557698641636836 0
      vertex 10.934529411321176 -10.268206588930328 0
      vertex 9.561359846230346 11.557698641636836 0
    endloop
  endfacet
  facet normal 0 0 1
    outer loop
      vertex 10.934529411321176 -10.268206588930328 0
      vertex 12.135254915624213 -8.816778784387097 0
      vertex 10.934529411321174 10.268206588930331 0
    endloop
  endfacet
  facet normal 0 0 1
    outer loop
      vertex 12.135254915624213 -8.816778784387097 0
      vertex 13.144600200657951 -7.226305111525731 0
      vertex 12.135254915624213 8.816778784387097 0
    endloop
  endfacet
  facet normal 0 0 1
    outer loop
      vertex 13.144600200657951 -7.226305111525731 0
      vertex 13.946647288323769 -5.5218682902701755 0
      vertex 13.144600200657953 7.22630511152573 0
    endloop
  endfacet
  facet normal 0 0 1
    outer loop
      vertex 13.946647288323769 -5.5218682902701755 0
      vertex 14.528747416929468 -3.7303483074728163 0
      vertex 13.94664728832377 5.521868290270169 0
    endloop
  endfacet
  facet normal 0 0 1
    outer loop
      vertex 14.528747416929468 -3.7303483074728163 0
      vertex 14.881720519717168 -1.879998503464561 0
      vertex 14.528747416929466 3.730348307472822 0
    endloop
  endfacet
  facet normal 0 0 -1
    outer loop
      vertex 0.9418577929396992 14.970400926424073 -3
      vertex 0.5587978488538572 2.929320908423054 -3
      vertex 0.1872502993106278 2.9762582794200245 -3
    endloop
  endfacet
  facet normal 0 0 -1
    outer loop
      vertex 0.9418577929396992 14.970400926424073 -3
      vertex 0.9215328225110039 2.836186396808761 -3
      vertex 0.5587978488538572 2.929320908423054 -3
    endloop
  endfacet
  facet normal 0 0 -1
    outer loop
      vertex 2.810719718785869 14.73430876093033 -3
      vertex 1.2697346730601275 2.698323531461165 -3
      vertex 0.9215328225110039 2.836186396808761 -3
    endloop
  endfacet
  facet normal 0 0 -1
    outer loop
      vertex 4.635254915624211 14.265847744427303 -3
      vertex 2.9586277699913897 -0.3737616072364068 -3
      vertex 2.982142857142857 0 -3
    endloop
  endfacet
  facet normal 0 0 -1
    outer loop
      vertex 4.635254915624211 14.265847744427303 -3
      vertex 2.9586277699913897 0.3737616072364074 -3
      vertex 2.8884533555085965 0.7416287706523349 -3
    endloop
  endfacet
  facet normal 0 0 -1
    outer loop
      vertex 4.635254915624211 14.265847744427303 -3
      vertex 2.982142857142857 0 -3
      vertex 2.9586277699913897 0.3737616072364074 -3
    endloop
  endfacet
  facet normal 0 0 -1
    outer loop
      vertex 4.635254915624211 14.265847744427303 -3
      vertex 2.8884533555085965 0.7416287706523349 -3
      vertex 2.772726306131035 1.0978000053275219 -3
    endloop
  endfacet
  facet normal 0 0 -1
    outer loop
      vertex 2.810719718785869 14.73430876093033 -3
      vertex 1.900889398000557 2.2977805632778 -3
      vertex 1.597912049312365 2.517906492122081 -3
    endloop
  endfacet
  facet normal 0 0 -1
    outer loop
      vertex 2.810719718785869 14.73430876093033 -3
      vertex 2.173888585345995 2.041417262323054 -3
      vertex 1.900889398000557 2.2977805632778 -3
    endloop
  endfacet
  facet normal 0 0 -1
    outer loop
      vertex 2.810719718785869 14.73430876093033 -3
      vertex 2.772726306131035 1.0978000053275219 -3
      vertex 2.613271706559379 1.436658278124758 -3
    endloop
  endfacet
  facet normal 0 0 -1
    outer loop
      vertex 2.810719718785869 14.73430876093033 -3
      vertex 2.613271706559379 1.436658278124758 -3
      vertex 2.4126042510824326 1.752859591657911 -3
    endloop
  endfacet
  facet normal 0 0 -1
    outer loop
      vertex 2.810719718785869 14.73430876093033 -3
      vertex 2.4126042510824326 1.752859591657911 -3
      vertex 2.173888585345995 2.041417262323054 -3
    endloop
  endfacet
  facet normal 0 0 -1
    outer loop
      vertex 2.810719718785869 14.73430876093033 -3
      vertex 1.597912049312365 2.517906492122081 -3
      vertex 1.2697346730601275 2.698323531461165 -3
    endloop
  endfacet
  facet normal 0 0 -1
    outer loop
      vertex 4.635254915624211 -14.265847744427303 -3
      vertex 4.635254915624211 14.265847744427303 -3
      vertex 6.386689373476091 13.572405786990291 -3
    endloop
  endfacet
  facet normal 0 0 -1
    outer loop
      vertex 6.386689373476086 -13.572405786990293 -3
      vertex 6.386689373476091 13.572405786990291 -3
      vertex 8.03740192468495 12.664918882530227 -3
    endloop
  endfacet
  facet normal 0 0 -1
    outer loop
      vertex -0.9418577929396992 14.970400926424073 -3
      vertex 0.9418577929396992 14.970400926424073 -3
      vertex 0.1872502993106278 2.9762582794200245 -3
    endloop
  endfacet
  facet normal 0 0 -1
    outer loop
      vertex 0.9418577929396992 14.970400926424073 -3
      vertex 2.810719718785869 14.73430876093033 -3
      vertex 0.9215328225110039 2.836186396808761 -3
    endloop
  endfacet
  facet normal 0 0 -1
    outer loop
      vertex 2.810719718785869 14.73430876093033 -3
      vertex 4.635254915624211 14.265847744427303 -3
      vertex 2.772726306131035 1.0978000053275219 -3
    endloop
  endfacet
  facet normal 0.1253332335643038 0.9921147013144779 0
    outer loop
      vertex 0.9418577929396992 14.970400926424073 -3
      vertex 0.9418577929396992 14.970400926424073 0
      vertex 2.810719718785869 14.73430876093033 -3
    endloop
  endfacet
  facet normal 0.24868988716485538 0.968583161128631 0
    outer loop
      vertex 2.810719718785869 14.73430876093033 -3
      vertex 2.810719718785869 14.73430876093033 0
      vertex 4.635254915624211 14.265847744427303 -3
    endloop
  endfacet
  facet normal 0.36812455268467803 0.9297764858882512 0
    outer loop
      vertex 4.635254915624211 14.265847744427303 -3
      vertex 4.635254915624211 14.265847744427303 0
      vertex 6.386689373476091 13.572405786990291 -3
    endloop
  endfacet
  facet normal 0.4817536741017145 0.8763066800438641 0
    outer loop
      vertex 6.386689373476091 13.572405786990291 -3
      vertex 6.386689373476091 13.572405786990291 0
      vertex 8.03740192468495 12.664918882530227 -3
    endloop
  endfacet
  facet normal 0 0 -1
    outer loop
      vertex 9.56135984623035 -11.557698641636836 -3
      vertex 9.561359846230346 11.557698641636836 -3
      vertex 10.934529411321174 10.268206588930331 -3
    endloop
  endfacet
  facet normal 0 0 -1
    outer loop
      vertex 8.037401924684943 -12.66491888253023 -3
      vertex 8.03740192468495 12.664918882530227 -3
      vertex 9.561359846230346 11.557698641636836 -3
    endloop
  endfacet
  facet normal 0 0 -1
    outer loop
      vertex 10.934529411321176 -10.268206588930328 -3
      vertex 10.934529411321174 10.268206588930331 -3
      vertex 12.135254915624213 8.816778784387097 -3
    endloop
  endfacet
  facet normal 0 0 -1
    outer loop
      vertex 12.135254915624213 -8.816778784387097 -3
      vertex 12.135254915624213 8.816778784387097 -3
      vertex 13.144600200657953 7.22630511152573 -3
    endloop
  endfacet
  facet normal 0 0 -1
    outer loop
      vertex 13.144600200657951 -7.226305111525731 -3
      vertex 13.144600200657953 7.22630511152573 -3
      vertex 13.94664728832377 5.521868290270169 -3
    endloop
  endfacet
  facet normal 0 0 -1
    outer loop
      vertex 14.881720519717168 -1.879998503464561 -3
      vertex 14.881720519717168 1.8799985034645639 -3
      vertex 15 0 -3
    endloop
  endfacet
  facet normal 0 0 -1
    outer loop
      vertex 14.528747416929468 -3.7303483074728163 -3
      vertex 14.528747416929466 3.730348307472822 -3
      vertex 14.881720519717168 1.8799985034645639 -3
    endloop
  endfacet
  facet normal 0 0 -1
    outer loop
      vertex 13.946647288323769 -5.5218682902701755 -3
      vertex 13.94664728832377 5.521868290270169 -3
      vertex 14.528747416929466 3.730348307472822 -3
    endloop
  endfacet
  facet normal 0.9980267284282716 0.06279051952931283 0
    outer loop
      vertex 15 0 -3
      vertex 14.881720519717168 1.8799985034645639 -3
      vertex 15 0 0
    endloop
  endfacet
  facet normal 0.9822872507286885 0.1873813145857255 0
    outer loop
      vertex 14.881720519717168 1.8799985034645639 -3
      vertex 14.528747416929466 3.730348307472822 -3
      vertex 14.881720519717168 1.8799985034645639 0
    endloop
  endfacet
  facet normal 0.9510565162951536 0.30901699437494734 0
    outer loop
      vertex 14.528747416929466 3.730348307472822 -3
      vertex 13.94664728832377 5.521868290270169 -3
      vertex 14.528747416929466 3.730348307472822 0
    endloop
  endfacet
  facet normal 0.9048270524660196 0.42577929156507266 0
    outer loop
      vertex 13.94664728832377 5.521868290270169 -3
      vertex 13.144600200657953 7.22630511152573 -3
      vertex 13.94664728832377 5.521868290270169 0
    endloop
  endfacet
  facet normal 0.6845471059286875 0.7289686274214127 0
    outer loop
      vertex 10.934529411321174 10.268206588930331 -3
      vertex 9.561359846230346 11.557698641636836 -3
      vertex 9.561359846230346 11.557698641636836 0
    endloop
  endfacet
  facet normal 0.5877852522924742 0.8090169943749467 0
    outer loop
      vertex 8.03740192468495 12.664918882530227 -3
      vertex 8.03740192468495 12.664918882530227 0
      vertex 9.561359846230346 11.557698641636836 -3
    endloop
  endfacet
  facet normal 0.7705132427757895 0.6374239897486894 0
    outer loop
      vertex 10.934529411321174 10.268206588930331 -3
      vertex 12.135254915624213 8.816778784387097 0
      vertex 12.135254915624213 8.816778784387097 -3
    endloop
  endfacet
  facet normal 0.8443279255020154 0.535826794978996 0
    outer loop
      vertex 13.144600200657953 7.22630511152573 -3
      vertex 12.135254915624213 8.816778784387097 -3
      vertex 13.144600200657953 7.22630511152573 0
    endloop
  endfacet
  facet normal 0 0 1
    outer loop
      vertex 2.810719718785869 14.73430876093033 0
      vertex 2.411220577405485 3.799475664759068 0
      vertex 2.868407953869104 3.467309592491051 0
    endloop
  endfacet
  facet normal 0 0 1
    outer loop
      vertex 2.810719718785869 14.73430876093033 0
      vertex 3.280358823396352 3.080461976679099 0
      vertex 3.6405764746872635 2.6450336353161292 0
    endloop
  endfacet
  facet normal 0 0 1
    outer loop
      vertex 2.810719718785869 14.73430876093033 0
      vertex 2.868407953869104 3.467309592491051 0
      vertex 3.280358823396352 3.080461976679099 0
    endloop
  endfacet
  facet normal 0 0 1
    outer loop
      vertex 4.635254915624211 -14.265847744427303 0
      vertex 4.635254915624211 14.265847744427303 0
      vertex 4.5 0 0
    endloop
  endfacet
  facet normal 0 0 1
    outer loop
      vertex 4.635254915624211 14.265847744427303 0
      vertex 4.464516155915151 0.5639995510393692 0
      vertex 4.5 0 0
    endloop
  endfacet
  facet normal 0 0 1
    outer loop
      vertex 4.635254915624211 14.265847744427303 0
      vertex 4.35862422507884 1.1191044922418465 0
      vertex 4.464516155915151 0.5639995510393692 0
    endloop
  endfacet
  facet normal 0 0 1
    outer loop
      vertex 4.635254915624211 14.265847744427303 0
      vertex 3.6405764746872635 2.6450336353161292 0
      vertex 3.943380060197386 2.167891533457719 0
    endloop
  endfacet
  facet normal 0 0 1
    outer loop
      vertex 4.635254915624211 14.265847744427303 0
      vertex 4.183994186497131 1.6565604870810509 0
      vertex 4.35862422507884 1.1191044922418465 0
    endloop
  endfacet
  facet normal 0 0 1
    outer loop
      vertex 4.635254915624211 14.265847744427303 0
      vertex 3.943380060197386 2.167891533457719 0
      vertex 4.183994186497131 1.6565604870810509 0
    endloop
  endfacet
  facet normal 0 0 1
    outer loop
      vertex 6.386689373476086 -13.572405786990293 0
      vertex 6.386689373476091 13.572405786990291 0
      vertex 4.635254915624211 14.265847744427303 0
    endloop
  endfacet
  facet normal 0 0 1
    outer loop
      vertex 8.037401924684943 -12.66491888253023 0
      vertex 8.03740192468495 12.664918882530227 0
      vertex 6.386689373476091 13.572405786990291 0
    endloop
  endfacet
  facet normal 0 1 0
    outer loop
      vertex -0.9418577929396992 14.970400926424073 0
      vertex 0.9418577929396992 14.970400926424073 0
      vertex 0.9418577929396992 14.970400926424073 -3
    endloop
  endfacet
  facet normal 0.1253332335643038 0.9921147013144779 0
    outer loop
      vertex 2.810719718785869 14.73430876093033 -3
      vertex 0.9418577929396992 14.970400926424073 0
      vertex 2.810719718785869 14.73430876093033 0
    endloop
  endfacet
  facet normal 0.24868988716485538 0.968583161128631 0
    outer loop
      vertex 4.635254915624211 14.265847744427303 -3
      vertex 2.810719718785869 14.73430876093033 0
      vertex 4.635254915624211 14.265847744427303 0
    endloop
  endfacet
  facet normal 0.4817536741017145 0.8763066800438641 0
    outer loop
      vertex 8.03740192468495 12.664918882530227 -3
      vertex 6.386689373476091 13.572405786990291 0
      vertex 8.03740192468495 12.664918882530227 0
    endloop
  endfacet
  facet normal 0.36812455268467803 0.9297764858882512 0
    outer loop
      vertex 6.386689373476091 13.572405786990291 -3
      vertex 4.635254915624211 14.265847744427303 0
      vertex 6.386689373476091 13.572405786990291 0
    endloop
  endfacet
  facet normal 0 0 1
    outer loop
      vertex 0.9418577929396992 14.970400926424073 0
      vertex -0.28255733788190734 4.491120277927222 0
      vertex 0.28255733788190973 4.491120277927222 0
    endloop
  endfacet
  facet normal 0 0 1
    outer loop
      vertex 0.9418577929396992 14.970400926424073 0
      vertex 0.28255733788190973 4.491120277927222 0
      vertex 0.8432159156357606 4.420292628279099 0
    endloop
  endfacet
  facet normal 0 0 1
    outer loop
      vertex 0.9418577929396992 14.970400926424073 0
      vertex 0.8432159156357606 4.420292628279099 0
      vertex 1.3905764746872633 4.2797543233281905 0
    endloop
  endfacet
  facet normal 0 0 1
    outer loop
      vertex 0.9418577929396992 14.970400926424073 0
      vertex 1.3905764746872633 4.2797543233281905 0
      vertex 1.9160068120428273 4.071721736097087 0
    endloop
  endfacet
  facet normal 0 0 1
    outer loop
      vertex 2.810719718785869 14.73430876093033 0
      vertex 1.9160068120428273 4.071721736097087 0
      vertex 2.411220577405485 3.799475664759068 0
    endloop
  endfacet
  facet normal 0 0 1
    outer loop
      vertex 2.810719718785869 14.73430876093033 0
      vertex 3.6405764746872635 2.6450336353161292 0
      vertex 4.635254915624211 14.265847744427303 0
    endloop
  endfacet
  facet normal 0 0 1
    outer loop
      vertex 0.9418577929396992 14.970400926424073 0
      vertex 1.9160068120428273 4.071721736097087 0
      vertex 2.810719718785869 14.73430876093033 0
    endloop
  endfacet
  facet normal 0.9980267284282716 0.06279051952931283 0
    outer loop
      vertex 14.881720519717168 1.8799985034645639 -3
      vertex 14.881720519717168 1.8799985034645639 0
      vertex 15 0 0
    endloop
  endfacet
  facet normal 0.9822872507286885 0.1873813145857255 0
    outer loop
      vertex 14.528747416929466 3.730348307472822 -3
      vertex 14.528747416929466 3.730348307472822 0
      vertex 14.881720519717168 1.8799985034645639 0
    endloop
  endfacet
  facet normal 0.9510565162951536 0.30901699437494734 0
    outer loop
      vertex 13.94664728832377 5.521868290270169 -3
      vertex 13.94664728832377 5.521868290270169 0
      vertex 14.528747416929466 3.730348307472822 0
    endloop
  endfacet
  facet normal 0.9048270524660196 0.42577929156507266 0
    outer loop
      vertex 13.144600200657953 7.22630511152573 -3
      vertex 13.144600200657953 7.22630511152573 0
      vertex 13.94664728832377 5.521868290270169 0
    endloop
  endfacet
  facet normal 0 0 1
    outer loop
      vertex 9.56135984623035 -11.557698641636836 0
      vertex 9.561359846230346 11.557698641636836 0
      vertex 8.03740192468495 12.664918882530227 0
    endloop
  endfacet
  facet normal 0 0 1
    outer loop
      vertex 10.934529411321176 -10.268206588930328 0
      vertex 10.934529411321174 10.268206588930331 0
      vertex 9.561359846230346 11.557698641636836 0
    endloop
  endfacet
  facet normal 0 0 1
    outer loop
      vertex 12.135254915624213 -8.816778784387097 0
      vertex 12.135254915624213 8.816778784387097 0
      vertex 10.934529411321174 10.268206588930331 0
    endloop
  endfacet
  facet normal 0 0 1
    outer loop
      vertex 13.144600200657951 -7.226305111525731 0
      vertex 13.144600200657953 7.22630511152573 0
      vertex 12.135254915624213 8.816778784387097 0
    endloop
  endfacet
  facet normal 0 0 1
    outer loop
      vertex 14.881720519717168 -1.879998503464561 0
      vertex 15 0 0
      vertex 14.881720519717168 1.8799985034645639 0
    endloop
  endfacet
  facet normal 0 0 1
    outer loop
      vertex 14.528747416929468 -3.7303483074728163 0
      vertex 14.528747416929466 3.730348307472822 0
      vertex 13.94664728832377 5.521868290270169 0
    endloop
  endfacet
  facet normal 0 0 1
    outer loop
      vertex 14.881720519717168 -1.879998503464561 0
      vertex 14.881720519717168 1.8799985034645639 0
      vertex 14.528747416929466 3.730348307472822 0
    endloop
  endfacet
  facet normal 0 0 1
    outer loop
      vertex 13.946647288323769 -5.5218682902701755 0
      vertex 13.94664728832377 5.521868290270169 0
      vertex 13.144600200657953 7.22630511152573 0
    endloop
  endfacet
  facet normal 0.6845471059286875 0.7289686274214127 0
    outer loop
      vertex 10.934529411321174 10.268206588930331 -3
      vertex 9.561359846230346 11.557698641636836 0
      vertex 10.934529411321174 10.268206588930331 0
    endloop
  endfacet
  facet normal 0.5877852522924742 0.8090169943749467 0
    outer loop
      vertex 9.561359846230346 11.557698641636836 -3
      vertex 8.03740192468495 12.664918882530227 0
      vertex 9.561359846230346 11.557698641636836 0
    endloop
  endfacet
  facet normal 0.8443279255020154 0.535826794978996 0
    outer loop
      vertex 12.135254915624213 8.816778784387097 -3
      vertex 12.135254915624213 8.816778784387097 0
      vertex 13.144600200657953 7.22630511152573 0
    endloop
  endfacet
  facet normal 0.7705132427757895 0.6374239897486894 0
    outer loop
      vertex 10.934529411321174 10.268206588930331 -3
      vertex 10.934529411321174 10.268206588930331 0
      vertex 12.135254915624213 8.816778784387097 0
    endloop
  endfacet
endsolid OpenSCAD_Model
