solid OpenSCAD_Model
  facet normal 0.998026 0.0628013 0
    outer loop
      vertex 15 0 0
      vertex 14.8817 1.88 -4.2
      vertex 14.8817 1.88 0
    endloop
  endfacet
  facet normal 0.998026 0.0628013 0
    outer loop
      vertex 14.8817 1.88 -4.2
      vertex 15 0 0
      vertex 15 0 -4.2
    endloop
  endfacet
  facet normal -0.998026 0.0628013 0
    outer loop
      vertex -15 0 -4.2
      vertex -14.8817 1.88 0
      vertex -14.8817 1.88 -4.2
    endloop
  endfacet
  facet normal -0.998026 0.0628013 0
    outer loop
      vertex -14.8817 1.88 0
      vertex -15 0 -4.2
      vertex -15 0 0
    endloop
  endfacet
  facet normal 0 1 -0
    outer loop
      vertex 0.941857 14.9704 -4.2
      vertex -0.941857 14.9704 0
      vertex 0.941857 14.9704 0
    endloop
  endfacet
  facet normal 0 1 0
    outer loop
      vertex -0.941857 14.9704 0
      vertex 0.941857 14.9704 -4.2
      vertex -0.941857 14.9704 -4.2
    endloop
  endfacet
  facet normal 0 -1 0
    outer loop
      vertex -0.941857 -14.9704 -4.2
      vertex 0.941857 -14.9704 0
      vertex -0.941857 -14.9704 0
    endloop
  endfacet
  facet normal 0 -1 -0
    outer loop
      vertex 0.941857 -14.9704 0
      vertex -0.941857 -14.9704 -4.2
      vertex 0.941857 -14.9704 -4.2
    endloop
  endfacet
  facet normal 0.684557 0.728959 -0
    outer loop
      vertex 10.9345 10.2682 -4.2
      vertex 9.56136 11.5577 0
      vertex 10.9345 10.2682 0
    endloop
  endfacet
  facet normal 0.684557 0.728959 0
    outer loop
      vertex 9.56136 11.5577 0
      vertex 10.9345 10.2682 -4.2
      vertex 9.56136 11.5577 -4.2
    endloop
  endfacet
  facet normal -0.684557 0.728959 0
    outer loop
      vertex -9.56136 11.5577 -4.2
      vertex -10.9345 10.2682 0
      vertex -9.56136 11.5577 0
    endloop
  endfacet
  facet normal -0.684557 0.728959 0
    outer loop
      vertex -10.9345 10.2682 0
      vertex -9.56136 11.5577 -4.2
      vertex -10.9345 10.2682 -4.2
    endloop
  endfacet
  facet normal -0.368104 0.929785 0
    outer loop
      vertex -4.63525 14.2658 -4.2
      vertex -6.38669 13.5724 0
      vertex -4.63525 14.2658 0
    endloop
  endfacet
  facet normal -0.368104 0.929785 0
    outer loop
      vertex -6.38669 13.5724 0
      vertex -4.63525 14.2658 -4.2
      vertex -6.38669 13.5724 -4.2
    endloop
  endfacet
  facet normal 0.951057 -0.309017 0
    outer loop
      vertex 13.9466 -5.52187 0
      vertex 14.5287 -3.73035 -4.2
      vertex 14.5287 -3.73035 0
    endloop
  endfacet
  facet normal 0.951057 -0.309017 0
    outer loop
      vertex 14.5287 -3.73035 -4.2
      vertex 13.9466 -5.52187 0
      vertex 13.9466 -5.52187 -4.2
    endloop
  endfacet
  facet normal 0.904837 0.425758 0
    outer loop
      vertex 13.9466 5.52187 0
      vertex 13.1446 7.22631 -4.2
      vertex 13.1446 7.22631 0
    endloop
  endfacet
  facet normal 0.904837 0.425758 0
    outer loop
      vertex 13.1446 7.22631 -4.2
      vertex 13.9466 5.52187 0
      vertex 13.9466 5.52187 -4.2
    endloop
  endfacet
  facet normal 0.844338 0.535811 0
    outer loop
      vertex 13.1446 7.22631 0
      vertex 12.1353 8.81678 -4.2
      vertex 12.1353 8.81678 0
    endloop
  endfacet
  facet normal 0.844338 0.535811 0
    outer loop
      vertex 12.1353 8.81678 -4.2
      vertex 13.1446 7.22631 0
      vertex 13.1446 7.22631 -4.2
    endloop
  endfacet
  facet normal 0.368104 0.929785 -0
    outer loop
      vertex 6.38669 13.5724 -4.2
      vertex 4.63525 14.2658 0
      vertex 6.38669 13.5724 0
    endloop
  endfacet
  facet normal 0.368104 0.929785 0
    outer loop
      vertex 4.63525 14.2658 0
      vertex 6.38669 13.5724 -4.2
      vertex 4.63525 14.2658 -4.2
    endloop
  endfacet
  facet normal 0.48176 0.876303 -0
    outer loop
      vertex 8.0374 12.6649 -4.2
      vertex 6.38669 13.5724 0
      vertex 8.0374 12.6649 0
    endloop
  endfacet
  facet normal 0.48176 0.876303 0
    outer loop
      vertex 6.38669 13.5724 0
      vertex 8.0374 12.6649 -4.2
      vertex 6.38669 13.5724 -4.2
    endloop
  endfacet
  facet normal -0.904837 0.425758 0
    outer loop
      vertex -13.9466 5.52187 -4.2
      vertex -13.1446 7.22631 0
      vertex -13.1446 7.22631 -4.2
    endloop
  endfacet
  facet normal -0.904837 0.425758 0
    outer loop
      vertex -13.1446 7.22631 0
      vertex -13.9466 5.52187 -4.2
      vertex -13.9466 5.52187 0
    endloop
  endfacet
  facet normal -0.951057 0.309017 0
    outer loop
      vertex -14.5287 3.73035 -4.2
      vertex -13.9466 5.52187 0
      vertex -13.9466 5.52187 -4.2
    endloop
  endfacet
  facet normal -0.951057 0.309017 0
    outer loop
      vertex -13.9466 5.52187 0
      vertex -14.5287 3.73035 -4.2
      vertex -14.5287 3.73035 0
    endloop
  endfacet
  facet normal -0.24871 0.968578 0
    outer loop
      vertex -2.81072 14.7343 -4.2
      vertex -4.63525 14.2658 0
      vertex -2.81072 14.7343 0
    endloop
  endfacet
  facet normal -0.24871 0.968578 0
    outer loop
      vertex -4.63525 14.2658 0
      vertex -2.81072 14.7343 -4.2
      vertex -4.63525 14.2658 -4.2
    endloop
  endfacet
  facet normal 0.951057 0.309017 0
    outer loop
      vertex 14.5287 3.73035 0
      vertex 13.9466 5.52187 -4.2
      vertex 13.9466 5.52187 0
    endloop
  endfacet
  facet normal 0.951057 0.309017 0
    outer loop
      vertex 13.9466 5.52187 -4.2
      vertex 14.5287 3.73035 0
      vertex 14.5287 3.73035 -4.2
    endloop
  endfacet
  facet normal 0.982285 0.187395 0
    outer loop
      vertex 14.8817 1.88 0
      vertex 14.5287 3.73035 -4.2
      vertex 14.5287 3.73035 0
    endloop
  endfacet
  facet normal 0.982285 0.187395 0
    outer loop
      vertex 14.5287 3.73035 -4.2
      vertex 14.8817 1.88 0
      vertex 14.8817 1.88 -4.2
    endloop
  endfacet
  facet normal 0.770492 0.63745 0
    outer loop
      vertex 12.1353 8.81678 0
      vertex 10.9345 10.2682 -4.2
      vertex 10.9345 10.2682 0
    endloop
  endfacet
  facet normal 0.770492 0.63745 0
    outer loop
      vertex 10.9345 10.2682 -4.2
      vertex 12.1353 8.81678 0
      vertex 12.1353 8.81678 -4.2
    endloop
  endfacet
  facet normal 0.24871 0.968578 -0
    outer loop
      vertex 4.63525 14.2658 -4.2
      vertex 2.81072 14.7343 0
      vertex 4.63525 14.2658 0
    endloop
  endfacet
  facet normal 0.24871 0.968578 0
    outer loop
      vertex 2.81072 14.7343 0
      vertex 4.63525 14.2658 -4.2
      vertex 2.81072 14.7343 -4.2
    endloop
  endfacet
  facet normal 0.125337 0.992114 -0
    outer loop
      vertex 2.81072 14.7343 -4.2
      vertex 0.941857 14.9704 0
      vertex 2.81072 14.7343 0
    endloop
  endfacet
  facet normal 0.125337 0.992114 0
    outer loop
      vertex 0.941857 14.9704 0
      vertex 2.81072 14.7343 -4.2
      vertex 0.941857 14.9704 -4.2
    endloop
  endfacet
  facet normal 0.587778 0.809022 -0
    outer loop
      vertex 9.56136 11.5577 -4.2
      vertex 8.0374 12.6649 0
      vertex 9.56136 11.5577 0
    endloop
  endfacet
  facet normal 0.587778 0.809022 0
    outer loop
      vertex 8.0374 12.6649 0
      vertex 9.56136 11.5577 -4.2
      vertex 8.0374 12.6649 -4.2
    endloop
  endfacet
  facet normal -0.844338 0.535811 0
    outer loop
      vertex -13.1446 7.22631 -4.2
      vertex -12.1353 8.81678 0
      vertex -12.1353 8.81678 -4.2
    endloop
  endfacet
  facet normal -0.844338 0.535811 0
    outer loop
      vertex -12.1353 8.81678 0
      vertex -13.1446 7.22631 -4.2
      vertex -13.1446 7.22631 0
    endloop
  endfacet
  facet normal -0.770492 0.63745 0
    outer loop
      vertex -12.1353 8.81678 -4.2
      vertex -10.9345 10.2682 0
      vertex -10.9345 10.2682 -4.2
    endloop
  endfacet
  facet normal -0.770492 0.63745 0
    outer loop
      vertex -10.9345 10.2682 0
      vertex -12.1353 8.81678 -4.2
      vertex -12.1353 8.81678 0
    endloop
  endfacet
  facet normal -0.982285 0.187395 0
    outer loop
      vertex -14.8817 1.88 -4.2
      vertex -14.5287 3.73035 0
      vertex -14.5287 3.73035 -4.2
    endloop
  endfacet
  facet normal -0.982285 0.187395 0
    outer loop
      vertex -14.5287 3.73035 0
      vertex -14.8817 1.88 -4.2
      vertex -14.8817 1.88 0
    endloop
  endfacet
  facet normal 0 0 1
    outer loop
      vertex 4.5 0 0
      vertex 15 0 0
      vertex 14.8817 1.88 0
    endloop
  endfacet
  facet normal 0 0 1
    outer loop
      vertex 4.46452 0.563999 0
      vertex 14.8817 1.88 0
      vertex 14.5287 3.73035 0
    endloop
  endfacet
  facet normal 0 0 1
    outer loop
      vertex 15 0 0
      vertex 4.5 0 0
      vertex 14.8817 -1.88 0
    endloop
  endfacet
  facet normal 0 0 1
    outer loop
      vertex 4.35862 1.1191 0
      vertex 14.5287 3.73035 0
      vertex 13.9466 5.52187 0
    endloop
  endfacet
  facet normal -0 0 1
    outer loop
      vertex 4.46452 -0.563999 0
      vertex 14.8817 -1.88 0
      vertex 4.5 0 0
    endloop
  endfacet
  facet normal 0 0 1
    outer loop
      vertex 4.18399 1.65656 0
      vertex 13.9466 5.52187 0
      vertex 13.1446 7.22631 0
    endloop
  endfacet
  facet normal 0 0 1
    outer loop
      vertex 14.8817 -1.88 0
      vertex 4.46452 -0.563999 0
      vertex 14.5287 -3.73035 0
    endloop
  endfacet
  facet normal 0 0 1
    outer loop
      vertex 3.94338 2.16789 0
      vertex 13.1446 7.22631 0
      vertex 12.1353 8.81678 0
    endloop
  endfacet
  facet normal -0 0 1
    outer loop
      vertex 4.35862 -1.1191 0
      vertex 14.5287 -3.73035 0
      vertex 4.46452 -0.563999 0
    endloop
  endfacet
  facet normal 0 0 1
    outer loop
      vertex 3.64058 2.64503 0
      vertex 12.1353 8.81678 0
      vertex 10.9345 10.2682 0
    endloop
  endfacet
  facet normal 0 0 1
    outer loop
      vertex 14.5287 -3.73035 0
      vertex 4.35862 -1.1191 0
      vertex 13.9466 -5.52187 0
    endloop
  endfacet
  facet normal 0 0 1
    outer loop
      vertex 3.28036 3.08046 0
      vertex 10.9345 10.2682 0
      vertex 9.56136 11.5577 0
    endloop
  endfacet
  facet normal -0 0 1
    outer loop
      vertex 4.18399 -1.65656 0
      vertex 13.9466 -5.52187 0
      vertex 4.35862 -1.1191 0
    endloop
  endfacet
  facet normal 0 0 1
    outer loop
      vertex 2.86841 3.46731 0
      vertex 9.56136 11.5577 0
      vertex 8.0374 12.6649 0
    endloop
  endfacet
  facet normal 0 0 1
    outer loop
      vertex 13.9466 -5.52187 0
      vertex 4.18399 -1.65656 0
      vertex 13.1446 -7.22631 0
    endloop
  endfacet
  facet normal 0 0 1
    outer loop
      vertex 2.41122 3.79947 0
      vertex 8.0374 12.6649 0
      vertex 6.38669 13.5724 0
    endloop
  endfacet
  facet normal -0 0 1
    outer loop
      vertex 3.94338 -2.16789 0
      vertex 13.1446 -7.22631 0
      vertex 4.18399 -1.65656 0
    endloop
  endfacet
  facet normal 0 0 1
    outer loop
      vertex 1.91601 4.07172 0
      vertex 6.38669 13.5724 0
      vertex 4.63525 14.2658 0
    endloop
  endfacet
  facet normal 0 0 1
    outer loop
      vertex 13.1446 -7.22631 0
      vertex 3.94338 -2.16789 0
      vertex 12.1353 -8.81678 0
    endloop
  endfacet
  facet normal -0 0 1
    outer loop
      vertex 3.64058 -2.64503 0
      vertex 12.1353 -8.81678 0
      vertex 3.94338 -2.16789 0
    endloop
  endfacet
  facet normal 0 0 1
    outer loop
      vertex 14.8817 1.88 0
      vertex 4.46452 0.563999 0
      vertex 4.5 0 0
    endloop
  endfacet
  facet normal 0 0 1
    outer loop
      vertex 14.5287 3.73035 0
      vertex 4.35862 1.1191 0
      vertex 4.46452 0.563999 0
    endloop
  endfacet
  facet normal 0 0 1
    outer loop
      vertex 13.9466 5.52187 0
      vertex 4.18399 1.65656 0
      vertex 4.35862 1.1191 0
    endloop
  endfacet
  facet normal 0 0 1
    outer loop
      vertex 13.1446 7.22631 0
      vertex 3.94338 2.16789 0
      vertex 4.18399 1.65656 0
    endloop
  endfacet
  facet normal 0 0 1
    outer loop
      vertex 12.1353 8.81678 0
      vertex 3.64058 2.64503 0
      vertex 3.94338 2.16789 0
    endloop
  endfacet
  facet normal 0 0 1
    outer loop
      vertex 10.9345 10.2682 0
      vertex 3.28036 3.08046 0
      vertex 3.64058 2.64503 0
    endloop
  endfacet
  facet normal 0 0 1
    outer loop
      vertex 9.56136 11.5577 0
      vertex 2.86841 3.46731 0
      vertex 3.28036 3.08046 0
    endloop
  endfacet
  facet normal 0 0 1
    outer loop
      vertex 1.39058 4.27975 0
      vertex 4.63525 14.2658 0
      vertex 2.81072 14.7343 0
    endloop
  endfacet
  facet normal 0 0 1
    outer loop
      vertex 8.0374 12.6649 0
      vertex 2.41122 3.79947 0
      vertex 2.86841 3.46731 0
    endloop
  endfacet
  facet normal 0 0 1
    outer loop
      vertex 6.38669 13.5724 0
      vertex 1.91601 4.07172 0
      vertex 2.41122 3.79947 0
    endloop
  endfacet
  facet normal 0 0 1
    outer loop
      vertex 4.63525 14.2658 0
      vertex 1.39058 4.27975 0
      vertex 1.91601 4.07172 0
    endloop
  endfacet
  facet normal 0 0 1
    outer loop
      vertex 0.843215 4.42029 0
      vertex 2.81072 14.7343 0
      vertex 0.941857 14.9704 0
    endloop
  endfacet
  facet normal 0 0 1
    outer loop
      vertex 2.81072 14.7343 0
      vertex 0.843215 4.42029 0
      vertex 1.39058 4.27975 0
    endloop
  endfacet
  facet normal 0 0 1
    outer loop
      vertex 0.941857 14.9704 0
      vertex 0.282557 4.49112 0
      vertex 0.843215 4.42029 0
    endloop
  endfacet
  facet normal 0 0 1
    outer loop
      vertex 0.941857 14.9704 0
      vertex -0.282557 4.49112 0
      vertex 0.282557 4.49112 0
    endloop
  endfacet
  facet normal -0 0 1
    outer loop
      vertex -0.941857 14.9704 0
      vertex -0.282557 4.49112 0
      vertex 0.941857 14.9704 0
    endloop
  endfacet
  facet normal 0 0 1
    outer loop
      vertex -0.282557 4.49112 0
      vertex -0.941857 14.9704 0
      vertex -0.843215 4.42029 0
    endloop
  endfacet
  facet normal -0 0 1
    outer loop
      vertex -2.81072 14.7343 0
      vertex -0.843215 4.42029 0
      vertex -0.941857 14.9704 0
    endloop
  endfacet
  facet normal 0 0 1
    outer loop
      vertex -0.843215 4.42029 0
      vertex -2.81072 14.7343 0
      vertex -1.39058 4.27975 0
    endloop
  endfacet
  facet normal -0 0 1
    outer loop
      vertex -4.63525 14.2658 0
      vertex -1.39058 4.27975 0
      vertex -2.81072 14.7343 0
    endloop
  endfacet
  facet normal 0 0 1
    outer loop
      vertex -1.39058 4.27975 0
      vertex -4.63525 14.2658 0
      vertex -1.91601 4.07172 0
    endloop
  endfacet
  facet normal -0 0 1
    outer loop
      vertex -6.38669 13.5724 0
      vertex -1.91601 4.07172 0
      vertex -4.63525 14.2658 0
    endloop
  endfacet
  facet normal 0 0 1
    outer loop
      vertex -1.91601 4.07172 0
      vertex -6.38669 13.5724 0
      vertex -2.41122 3.79947 0
    endloop
  endfacet
  facet normal -0 0 1
    outer loop
      vertex -8.0374 12.6649 0
      vertex -2.41122 3.79947 0
      vertex -6.38669 13.5724 0
    endloop
  endfacet
  facet normal 0 0 1
    outer loop
      vertex -2.41122 3.79947 0
      vertex -8.0374 12.6649 0
      vertex -2.86841 3.46731 0
    endloop
  endfacet
  facet normal -0 0 1
    outer loop
      vertex -9.56136 11.5577 0
      vertex -2.86841 3.46731 0
      vertex -8.0374 12.6649 0
    endloop
  endfacet
  facet normal 0 0 1
    outer loop
      vertex -2.86841 3.46731 0
      vertex -9.56136 11.5577 0
      vertex -3.28036 3.08046 0
    endloop
  endfacet
  facet normal -0 0 1
    outer loop
      vertex -10.9345 10.2682 0
      vertex -3.28036 3.08046 0
      vertex -9.56136 11.5577 0
    endloop
  endfacet
  facet normal -0 0 1
    outer loop
      vertex -12.1353 8.81678 0
      vertex -3.64058 2.64503 0
      vertex -10.9345 10.2682 0
    endloop
  endfacet
  facet normal 0 0 1
    outer loop
      vertex -3.28036 3.08046 0
      vertex -10.9345 10.2682 0
      vertex -3.64058 2.64503 0
    endloop
  endfacet
  facet normal 0 0 1
    outer loop
      vertex 12.1353 -8.81678 0
      vertex 3.64058 -2.64503 0
      vertex 10.9345 -10.2682 0
    endloop
  endfacet
  facet normal -0 0 1
    outer loop
      vertex 3.28036 -3.08046 0
      vertex 10.9345 -10.2682 0
      vertex 3.64058 -2.64503 0
    endloop
  endfacet
  facet normal 0 0 1
    outer loop
      vertex 10.9345 -10.2682 0
      vertex 3.28036 -3.08046 0
      vertex 9.56136 -11.5577 0
    endloop
  endfacet
  facet normal -0 0 1
    outer loop
      vertex 2.86841 -3.46731 0
      vertex 9.56136 -11.5577 0
      vertex 3.28036 -3.08046 0
    endloop
  endfacet
  facet normal 0 0 1
    outer loop
      vertex 9.56136 -11.5577 0
      vertex 2.86841 -3.46731 0
      vertex 8.0374 -12.6649 0
    endloop
  endfacet
  facet normal -0 0 1
    outer loop
      vertex 2.41122 -3.79947 0
      vertex 8.0374 -12.6649 0
      vertex 2.86841 -3.46731 0
    endloop
  endfacet
  facet normal 0 0 1
    outer loop
      vertex 8.0374 -12.6649 0
      vertex 2.41122 -3.79947 0
      vertex 6.38669 -13.5724 0
    endloop
  endfacet
  facet normal -0 0 1
    outer loop
      vertex 1.91601 -4.07172 0
      vertex 6.38669 -13.5724 0
      vertex 2.41122 -3.79947 0
    endloop
  endfacet
  facet normal 0 0 1
    outer loop
      vertex 6.38669 -13.5724 0
      vertex 1.91601 -4.07172 0
      vertex 4.63525 -14.2658 0
    endloop
  endfacet
  facet normal -0 0 1
    outer loop
      vertex 1.39058 -4.27975 0
      vertex 4.63525 -14.2658 0
      vertex 1.91601 -4.07172 0
    endloop
  endfacet
  facet normal 0 0 1
    outer loop
      vertex 4.63525 -14.2658 0
      vertex 1.39058 -4.27975 0
      vertex 2.81072 -14.7343 0
    endloop
  endfacet
  facet normal -0 0 1
    outer loop
      vertex 0.843215 -4.42029 0
      vertex 2.81072 -14.7343 0
      vertex 1.39058 -4.27975 0
    endloop
  endfacet
  facet normal 0 0 1
    outer loop
      vertex 2.81072 -14.7343 0
      vertex 0.843215 -4.42029 0
      vertex 0.941857 -14.9704 0
    endloop
  endfacet
  facet normal -0 0 1
    outer loop
      vertex 0.282557 -4.49112 0
      vertex 0.941857 -14.9704 0
      vertex 0.843215 -4.42029 0
    endloop
  endfacet
  facet normal -0 0 1
    outer loop
      vertex -0.282557 -4.49112 0
      vertex 0.941857 -14.9704 0
      vertex 0.282557 -4.49112 0
    endloop
  endfacet
  facet normal 0 0 1
    outer loop
      vertex -0.941857 -14.9704 0
      vertex -0.282557 -4.49112 0
      vertex -0.843215 -4.42029 0
    endloop
  endfacet
  facet normal 0 0 1
    outer loop
      vertex -0.282557 -4.49112 0
      vertex -0.941857 -14.9704 0
      vertex 0.941857 -14.9704 0
    endloop
  endfacet
  facet normal 0 0 1
    outer loop
      vertex -2.81072 -14.7343 0
      vertex -0.843215 -4.42029 0
      vertex -1.39058 -4.27975 0
    endloop
  endfacet
  facet normal 0 0 1
    outer loop
      vertex -4.63525 -14.2658 0
      vertex -1.39058 -4.27975 0
      vertex -1.91601 -4.07172 0
    endloop
  endfacet
  facet normal 0 0 1
    outer loop
      vertex -6.38669 -13.5724 0
      vertex -1.91601 -4.07172 0
      vertex -2.41122 -3.79947 0
    endloop
  endfacet
  facet normal 0 0 1
    outer loop
      vertex -0.843215 -4.42029 0
      vertex -2.81072 -14.7343 0
      vertex -0.941857 -14.9704 0
    endloop
  endfacet
  facet normal 0 0 1
    outer loop
      vertex -8.0374 -12.6649 0
      vertex -2.41122 -3.79947 0
      vertex -2.86841 -3.46731 0
    endloop
  endfacet
  facet normal 0 0 1
    outer loop
      vertex -9.56136 -11.5577 0
      vertex -2.86841 -3.46731 0
      vertex -3.28036 -3.08046 0
    endloop
  endfacet
  facet normal 0 0 1
    outer loop
      vertex -10.9345 -10.2682 0
      vertex -3.28036 -3.08046 0
      vertex -3.64058 -2.64503 0
    endloop
  endfacet
  facet normal 0 0 1
    outer loop
      vertex -12.1353 -8.81678 0
      vertex -3.64058 -2.64503 0
      vertex -3.94338 -2.16789 0
    endloop
  endfacet
  facet normal 0 0 1
    outer loop
      vertex -13.1446 -7.22631 0
      vertex -3.94338 -2.16789 0
      vertex -4.18399 -1.65656 0
    endloop
  endfacet
  facet normal 0 0 1
    outer loop
      vertex -13.9466 -5.52187 0
      vertex -4.18399 -1.65656 0
      vertex -4.35862 -1.1191 0
    endloop
  endfacet
  facet normal 0 0 1
    outer loop
      vertex -14.5287 -3.73035 0
      vertex -4.35862 -1.1191 0
      vertex -4.46452 -0.563999 0
    endloop
  endfacet
  facet normal 0 0 1
    outer loop
      vertex -1.39058 -4.27975 0
      vertex -4.63525 -14.2658 0
      vertex -2.81072 -14.7343 0
    endloop
  endfacet
  facet normal 0 0 1
    outer loop
      vertex -14.8817 -1.88 0
      vertex -4.46452 -0.563999 0
      vertex -4.5 0 0
    endloop
  endfacet
  facet normal 0 0 1
    outer loop
      vertex -3.64058 2.64503 0
      vertex -12.1353 8.81678 0
      vertex -3.94338 2.16789 0
    endloop
  endfacet
  facet normal -0 0 1
    outer loop
      vertex -13.1446 7.22631 0
      vertex -3.94338 2.16789 0
      vertex -12.1353 8.81678 0
    endloop
  endfacet
  facet normal 0 0 1
    outer loop
      vertex -1.91601 -4.07172 0
      vertex -6.38669 -13.5724 0
      vertex -4.63525 -14.2658 0
    endloop
  endfacet
  facet normal 0 0 1
    outer loop
      vertex -3.94338 2.16789 0
      vertex -13.1446 7.22631 0
      vertex -4.18399 1.65656 0
    endloop
  endfacet
  facet normal 0 0 1
    outer loop
      vertex -2.41122 -3.79947 0
      vertex -8.0374 -12.6649 0
      vertex -6.38669 -13.5724 0
    endloop
  endfacet
  facet normal -0 0 1
    outer loop
      vertex -13.9466 5.52187 0
      vertex -4.18399 1.65656 0
      vertex -13.1446 7.22631 0
    endloop
  endfacet
  facet normal 0 0 1
    outer loop
      vertex -2.86841 -3.46731 0
      vertex -9.56136 -11.5577 0
      vertex -8.0374 -12.6649 0
    endloop
  endfacet
  facet normal 0 0 1
    outer loop
      vertex -4.18399 1.65656 0
      vertex -13.9466 5.52187 0
      vertex -4.35862 1.1191 0
    endloop
  endfacet
  facet normal 0 0 1
    outer loop
      vertex -3.28036 -3.08046 0
      vertex -10.9345 -10.2682 0
      vertex -9.56136 -11.5577 0
    endloop
  endfacet
  facet normal -0 0 1
    outer loop
      vertex -14.5287 3.73035 0
      vertex -4.35862 1.1191 0
      vertex -13.9466 5.52187 0
    endloop
  endfacet
  facet normal 0 0 1
    outer loop
      vertex -3.64058 -2.64503 0
      vertex -12.1353 -8.81678 0
      vertex -10.9345 -10.2682 0
    endloop
  endfacet
  facet normal 0 0 1
    outer loop
      vertex -4.35862 1.1191 0
      vertex -14.5287 3.73035 0
      vertex -4.46452 0.563999 0
    endloop
  endfacet
  facet normal 0 0 1
    outer loop
      vertex -3.94338 -2.16789 0
      vertex -13.1446 -7.22631 0
      vertex -12.1353 -8.81678 0
    endloop
  endfacet
  facet normal -0 0 1
    outer loop
      vertex -14.8817 1.88 0
      vertex -4.46452 0.563999 0
      vertex -14.5287 3.73035 0
    endloop
  endfacet
  facet normal 0 0 1
    outer loop
      vertex -4.18399 -1.65656 0
      vertex -13.9466 -5.52187 0
      vertex -13.1446 -7.22631 0
    endloop
  endfacet
  facet normal 0 0 1
    outer loop
      vertex -4.46452 0.563999 0
      vertex -14.8817 1.88 0
      vertex -4.5 0 0
    endloop
  endfacet
  facet normal 0 0 1
    outer loop
      vertex -4.35862 -1.1191 0
      vertex -14.5287 -3.73035 0
      vertex -13.9466 -5.52187 0
    endloop
  endfacet
  facet normal 0 0 1
    outer loop
      vertex -15 0 0
      vertex -4.5 0 0
      vertex -14.8817 1.88 0
    endloop
  endfacet
  facet normal 0 0 1
    outer loop
      vertex -4.46452 -0.563999 0
      vertex -14.8817 -1.88 0
      vertex -14.5287 -3.73035 0
    endloop
  endfacet
  facet normal 0 0 1
    outer loop
      vertex -4.5 0 0
      vertex -15 0 0
      vertex -14.8817 -1.88 0
    endloop
  endfacet
  facet normal -0.48176 0.876303 0
    outer loop
      vertex -6.38669 13.5724 -4.2
      vertex -8.0374 12.6649 0
      vertex -6.38669 13.5724 0
    endloop
  endfacet
  facet normal -0.48176 0.876303 0
    outer loop
      vertex -8.0374 12.6649 0
      vertex -6.38669 13.5724 -4.2
      vertex -8.0374 12.6649 -4.2
    endloop
  endfacet
  facet normal -0.587778 0.809022 0
    outer loop
      vertex -8.0374 12.6649 -4.2
      vertex -9.56136 11.5577 0
      vertex -8.0374 12.6649 0
    endloop
  endfacet
  facet normal -0.587778 0.809022 0
    outer loop
      vertex -9.56136 11.5577 0
      vertex -8.0374 12.6649 -4.2
      vertex -9.56136 11.5577 -4.2
    endloop
  endfacet
  facet normal -0.125337 0.992114 0
    outer loop
      vertex -0.941857 14.9704 -4.2
      vertex -2.81072 14.7343 0
      vertex -0.941857 14.9704 0
    endloop
  endfacet
  facet normal -0.125337 0.992114 0
    outer loop
      vertex -2.81072 14.7343 0
      vertex -0.941857 14.9704 -4.2
      vertex -2.81072 14.7343 -4.2
    endloop
  endfacet
  facet normal 0.998026 -0.0628013 0
    outer loop
      vertex 14.8817 -1.88 0
      vertex 15 0 -4.2
      vertex 15 0 0
    endloop
  endfacet
  facet normal 0.998026 -0.0628013 0
    outer loop
      vertex 15 0 -4.2
      vertex 14.8817 -1.88 0
      vertex 14.8817 -1.88 -4.2
    endloop
  endfacet
  facet normal 0.770492 -0.63745 0
    outer loop
      vertex 10.9345 -10.2682 0
      vertex 12.1353 -8.81678 -4.2
      vertex 12.1353 -8.81678 0
    endloop
  endfacet
  facet normal 0.770492 -0.63745 0
    outer loop
      vertex 12.1353 -8.81678 -4.2
      vertex 10.9345 -10.2682 0
      vertex 10.9345 -10.2682 -4.2
    endloop
  endfacet
  facet normal 0.904837 -0.425758 0
    outer loop
      vertex 13.1446 -7.22631 0
      vertex 13.9466 -5.52187 -4.2
      vertex 13.9466 -5.52187 0
    endloop
  endfacet
  facet normal 0.904837 -0.425758 0
    outer loop
      vertex 13.9466 -5.52187 -4.2
      vertex 13.1446 -7.22631 0
      vertex 13.1446 -7.22631 -4.2
    endloop
  endfacet
  facet normal 0.982285 -0.187395 0
    outer loop
      vertex 14.5287 -3.73035 0
      vertex 14.8817 -1.88 -4.2
      vertex 14.8817 -1.88 0
    endloop
  endfacet
  facet normal 0.982285 -0.187395 0
    outer loop
      vertex 14.8817 -1.88 -4.2
      vertex 14.5287 -3.73035 0
      vertex 14.5287 -3.73035 -4.2
    endloop
  endfacet
  facet normal 0 0 -1
    outer loop
      vertex 2.375 0 -4.2
      vertex 15 0 -4.2
      vertex 14.8817 -1.88 -4.2
    endloop
  endfacet
  facet normal 0 0 -1
    outer loop
      vertex 2.35627 -0.297666 -4.2
      vertex 14.8817 -1.88 -4.2
      vertex 14.5287 -3.73035 -4.2
    endloop
  endfacet
  facet normal 0 0 -1
    outer loop
      vertex 15 0 -4.2
      vertex 2.375 0 -4.2
      vertex 14.8817 1.88 -4.2
    endloop
  endfacet
  facet normal 0 0 -1
    outer loop
      vertex 2.30038 -0.590638 -4.2
      vertex 14.5287 -3.73035 -4.2
      vertex 13.9466 -5.52187 -4.2
    endloop
  endfacet
  facet normal 0 0 -1
    outer loop
      vertex 2.35627 0.297666 -4.2
      vertex 14.8817 1.88 -4.2
      vertex 2.375 0 -4.2
    endloop
  endfacet
  facet normal 0 0 -1
    outer loop
      vertex 2.20822 -0.874295 -4.2
      vertex 13.9466 -5.52187 -4.2
      vertex 13.1446 -7.22631 -4.2
    endloop
  endfacet
  facet normal -0 0 -1
    outer loop
      vertex 14.8817 1.88 -4.2
      vertex 2.35627 0.297666 -4.2
      vertex 14.5287 3.73035 -4.2
    endloop
  endfacet
  facet normal 0 0 -1
    outer loop
      vertex 2.08123 -1.14416 -4.2
      vertex 13.1446 -7.22631 -4.2
      vertex 12.1353 -8.81678 -4.2
    endloop
  endfacet
  facet normal 0 0 -1
    outer loop
      vertex 2.30038 0.590638 -4.2
      vertex 14.5287 3.73035 -4.2
      vertex 2.35627 0.297666 -4.2
    endloop
  endfacet
  facet normal 0 0 -1
    outer loop
      vertex 1.92142 -1.39599 -4.2
      vertex 12.1353 -8.81678 -4.2
      vertex 10.9345 -10.2682 -4.2
    endloop
  endfacet
  facet normal -0 0 -1
    outer loop
      vertex 14.5287 3.73035 -4.2
      vertex 2.30038 0.590638 -4.2
      vertex 13.9466 5.52187 -4.2
    endloop
  endfacet
  facet normal 0 0 -1
    outer loop
      vertex 1.7313 -1.6258 -4.2
      vertex 10.9345 -10.2682 -4.2
      vertex 9.56136 -11.5577 -4.2
    endloop
  endfacet
  facet normal 0 0 -1
    outer loop
      vertex 2.20822 0.874295 -4.2
      vertex 13.9466 5.52187 -4.2
      vertex 2.30038 0.590638 -4.2
    endloop
  endfacet
  facet normal 0 0 -1
    outer loop
      vertex 1.51388 -1.82997 -4.2
      vertex 9.56136 -11.5577 -4.2
      vertex 8.0374 -12.6649 -4.2
    endloop
  endfacet
  facet normal -0 0 -1
    outer loop
      vertex 13.9466 5.52187 -4.2
      vertex 2.20822 0.874295 -4.2
      vertex 13.1446 7.22631 -4.2
    endloop
  endfacet
  facet normal 0 0 -1
    outer loop
      vertex 1.27259 -2.00528 -4.2
      vertex 8.0374 -12.6649 -4.2
      vertex 6.38669 -13.5724 -4.2
    endloop
  endfacet
  facet normal 0 0 -1
    outer loop
      vertex 2.08123 1.14416 -4.2
      vertex 13.1446 7.22631 -4.2
      vertex 2.20822 0.874295 -4.2
    endloop
  endfacet
  facet normal 0 0 -1
    outer loop
      vertex 1.01123 -2.14896 -4.2
      vertex 6.38669 -13.5724 -4.2
      vertex 4.63525 -14.2658 -4.2
    endloop
  endfacet
  facet normal -0 0 -1
    outer loop
      vertex 13.1446 7.22631 -4.2
      vertex 2.08123 1.14416 -4.2
      vertex 12.1353 8.81678 -4.2
    endloop
  endfacet
  facet normal 0 0 -1
    outer loop
      vertex 0.733915 -2.25876 -4.2
      vertex 4.63525 -14.2658 -4.2
      vertex 2.81072 -14.7343 -4.2
    endloop
  endfacet
  facet normal 0 0 -1
    outer loop
      vertex 1.92142 1.39599 -4.2
      vertex 12.1353 8.81678 -4.2
      vertex 2.08123 1.14416 -4.2
    endloop
  endfacet
  facet normal -0 0 -1
    outer loop
      vertex 12.1353 8.81678 -4.2
      vertex 1.92142 1.39599 -4.2
      vertex 10.9345 10.2682 -4.2
    endloop
  endfacet
  facet normal 0 0 -1
    outer loop
      vertex 14.8817 -1.88 -4.2
      vertex 2.35627 -0.297666 -4.2
      vertex 2.375 0 -4.2
    endloop
  endfacet
  facet normal 0 0 -1
    outer loop
      vertex 14.5287 -3.73035 -4.2
      vertex 2.30038 -0.590638 -4.2
      vertex 2.35627 -0.297666 -4.2
    endloop
  endfacet
  facet normal 0 0 -1
    outer loop
      vertex 13.9466 -5.52187 -4.2
      vertex 2.20822 -0.874295 -4.2
      vertex 2.30038 -0.590638 -4.2
    endloop
  endfacet
  facet normal 0 0 -1
    outer loop
      vertex 13.1446 -7.22631 -4.2
      vertex 2.08123 -1.14416 -4.2
      vertex 2.20822 -0.874295 -4.2
    endloop
  endfacet
  facet normal 0 0 -1
    outer loop
      vertex 12.1353 -8.81678 -4.2
      vertex 1.92142 -1.39599 -4.2
      vertex 2.08123 -1.14416 -4.2
    endloop
  endfacet
  facet normal 0 0 -1
    outer loop
      vertex 10.9345 -10.2682 -4.2
      vertex 1.7313 -1.6258 -4.2
      vertex 1.92142 -1.39599 -4.2
    endloop
  endfacet
  facet normal 0 0 -1
    outer loop
      vertex 9.56136 -11.5577 -4.2
      vertex 1.51388 -1.82997 -4.2
      vertex 1.7313 -1.6258 -4.2
    endloop
  endfacet
  facet normal 0 0 -1
    outer loop
      vertex 8.0374 -12.6649 -4.2
      vertex 1.27259 -2.00528 -4.2
      vertex 1.51388 -1.82997 -4.2
    endloop
  endfacet
  facet normal 0 0 -1
    outer loop
      vertex 6.38669 -13.5724 -4.2
      vertex 1.01123 -2.14896 -4.2
      vertex 1.27259 -2.00528 -4.2
    endloop
  endfacet
  facet normal 0 0 -1
    outer loop
      vertex 0.44503 -2.33293 -4.2
      vertex 2.81072 -14.7343 -4.2
      vertex 0.941857 -14.9704 -4.2
    endloop
  endfacet
  facet normal 0 0 -1
    outer loop
      vertex 4.63525 -14.2658 -4.2
      vertex 0.733915 -2.25876 -4.2
      vertex 1.01123 -2.14896 -4.2
    endloop
  endfacet
  facet normal 0 0 -1
    outer loop
      vertex 2.81072 -14.7343 -4.2
      vertex 0.44503 -2.33293 -4.2
      vertex 0.733915 -2.25876 -4.2
    endloop
  endfacet
  facet normal 0 0 -1
    outer loop
      vertex 0.941857 -14.9704 -4.2
      vertex 0.149127 -2.37031 -4.2
      vertex 0.44503 -2.33293 -4.2
    endloop
  endfacet
  facet normal 0 0 -1
    outer loop
      vertex 0.941857 -14.9704 -4.2
      vertex -0.149127 -2.37031 -4.2
      vertex 0.149127 -2.37031 -4.2
    endloop
  endfacet
  facet normal 0 0 -1
    outer loop
      vertex -0.941857 -14.9704 -4.2
      vertex -0.149127 -2.37031 -4.2
      vertex 0.941857 -14.9704 -4.2
    endloop
  endfacet
  facet normal -0 0 -1
    outer loop
      vertex -0.149127 -2.37031 -4.2
      vertex -0.941857 -14.9704 -4.2
      vertex -0.44503 -2.33293 -4.2
    endloop
  endfacet
  facet normal 0 0 -1
    outer loop
      vertex -2.81072 -14.7343 -4.2
      vertex -0.44503 -2.33293 -4.2
      vertex -0.941857 -14.9704 -4.2
    endloop
  endfacet
  facet normal -0 0 -1
    outer loop
      vertex -0.44503 -2.33293 -4.2
      vertex -2.81072 -14.7343 -4.2
      vertex -0.733915 -2.25876 -4.2
    endloop
  endfacet
  facet normal 0 0 -1
    outer loop
      vertex -4.63525 -14.2658 -4.2
      vertex -0.733915 -2.25876 -4.2
      vertex -2.81072 -14.7343 -4.2
    endloop
  endfacet
  facet normal -0 0 -1
    outer loop
      vertex -0.733915 -2.25876 -4.2
      vertex -4.63525 -14.2658 -4.2
      vertex -1.01123 -2.14896 -4.2
    endloop
  endfacet
  facet normal 0 0 -1
    outer loop
      vertex -6.38669 -13.5724 -4.2
      vertex -1.01123 -2.14896 -4.2
      vertex -4.63525 -14.2658 -4.2
    endloop
  endfacet
  facet normal -0 0 -1
    outer loop
      vertex -1.01123 -2.14896 -4.2
      vertex -6.38669 -13.5724 -4.2
      vertex -1.27259 -2.00528 -4.2
    endloop
  endfacet
  facet normal 0 0 -1
    outer loop
      vertex -8.0374 -12.6649 -4.2
      vertex -1.27259 -2.00528 -4.2
      vertex -6.38669 -13.5724 -4.2
    endloop
  endfacet
  facet normal -0 0 -1
    outer loop
      vertex -1.27259 -2.00528 -4.2
      vertex -8.0374 -12.6649 -4.2
      vertex -1.51388 -1.82997 -4.2
    endloop
  endfacet
  facet normal 0 0 -1
    outer loop
      vertex -9.56136 -11.5577 -4.2
      vertex -1.51388 -1.82997 -4.2
      vertex -8.0374 -12.6649 -4.2
    endloop
  endfacet
  facet normal -0 0 -1
    outer loop
      vertex -1.51388 -1.82997 -4.2
      vertex -9.56136 -11.5577 -4.2
      vertex -1.7313 -1.6258 -4.2
    endloop
  endfacet
  facet normal -0 0 -1
    outer loop
      vertex -1.7313 -1.6258 -4.2
      vertex -10.9345 -10.2682 -4.2
      vertex -1.92142 -1.39599 -4.2
    endloop
  endfacet
  facet normal 0 0 -1
    outer loop
      vertex -10.9345 -10.2682 -4.2
      vertex -1.7313 -1.6258 -4.2
      vertex -9.56136 -11.5577 -4.2
    endloop
  endfacet
  facet normal 0 0 -1
    outer loop
      vertex 1.7313 1.6258 -4.2
      vertex 10.9345 10.2682 -4.2
      vertex 1.92142 1.39599 -4.2
    endloop
  endfacet
  facet normal -0 0 -1
    outer loop
      vertex 10.9345 10.2682 -4.2
      vertex 1.7313 1.6258 -4.2
      vertex 9.56136 11.5577 -4.2
    endloop
  endfacet
  facet normal 0 0 -1
    outer loop
      vertex 1.51388 1.82997 -4.2
      vertex 9.56136 11.5577 -4.2
      vertex 1.7313 1.6258 -4.2
    endloop
  endfacet
  facet normal -0 0 -1
    outer loop
      vertex 9.56136 11.5577 -4.2
      vertex 1.51388 1.82997 -4.2
      vertex 8.0374 12.6649 -4.2
    endloop
  endfacet
  facet normal 0 0 -1
    outer loop
      vertex 1.27259 2.00528 -4.2
      vertex 8.0374 12.6649 -4.2
      vertex 1.51388 1.82997 -4.2
    endloop
  endfacet
  facet normal -0 0 -1
    outer loop
      vertex 8.0374 12.6649 -4.2
      vertex 1.27259 2.00528 -4.2
      vertex 6.38669 13.5724 -4.2
    endloop
  endfacet
  facet normal 0 0 -1
    outer loop
      vertex 1.01123 2.14896 -4.2
      vertex 6.38669 13.5724 -4.2
      vertex 1.27259 2.00528 -4.2
    endloop
  endfacet
  facet normal -0 0 -1
    outer loop
      vertex 6.38669 13.5724 -4.2
      vertex 1.01123 2.14896 -4.2
      vertex 4.63525 14.2658 -4.2
    endloop
  endfacet
  facet normal 0 0 -1
    outer loop
      vertex 0.733915 2.25876 -4.2
      vertex 4.63525 14.2658 -4.2
      vertex 1.01123 2.14896 -4.2
    endloop
  endfacet
  facet normal -0 0 -1
    outer loop
      vertex 4.63525 14.2658 -4.2
      vertex 0.733915 2.25876 -4.2
      vertex 2.81072 14.7343 -4.2
    endloop
  endfacet
  facet normal 0 0 -1
    outer loop
      vertex 0.44503 2.33293 -4.2
      vertex 2.81072 14.7343 -4.2
      vertex 0.733915 2.25876 -4.2
    endloop
  endfacet
  facet normal -0 0 -1
    outer loop
      vertex 2.81072 14.7343 -4.2
      vertex 0.44503 2.33293 -4.2
      vertex 0.941857 14.9704 -4.2
    endloop
  endfacet
  facet normal 0 0 -1
    outer loop
      vertex 0.149127 2.37031 -4.2
      vertex 0.941857 14.9704 -4.2
      vertex 0.44503 2.33293 -4.2
    endloop
  endfacet
  facet normal 0 0 -1
    outer loop
      vertex -0.149127 2.37031 -4.2
      vertex 0.941857 14.9704 -4.2
      vertex 0.149127 2.37031 -4.2
    endloop
  endfacet
  facet normal 0 0 -1
    outer loop
      vertex -0.941857 14.9704 -4.2
      vertex -0.149127 2.37031 -4.2
      vertex -0.44503 2.33293 -4.2
    endloop
  endfacet
  facet normal 0 0 -1
    outer loop
      vertex -2.81072 14.7343 -4.2
      vertex -0.44503 2.33293 -4.2
      vertex -0.733915 2.25876 -4.2
    endloop
  endfacet
  facet normal 0 0 -1
    outer loop
      vertex -0.149127 2.37031 -4.2
      vertex -0.941857 14.9704 -4.2
      vertex 0.941857 14.9704 -4.2
    endloop
  endfacet
  facet normal 0 0 -1
    outer loop
      vertex -4.63525 14.2658 -4.2
      vertex -0.733915 2.25876 -4.2
      vertex -1.01123 2.14896 -4.2
    endloop
  endfacet
  facet normal 0 0 -1
    outer loop
      vertex -6.38669 13.5724 -4.2
      vertex -1.01123 2.14896 -4.2
      vertex -1.27259 2.00528 -4.2
    endloop
  endfacet
  facet normal 0 0 -1
    outer loop
      vertex -8.0374 12.6649 -4.2
      vertex -1.27259 2.00528 -4.2
      vertex -1.51388 1.82997 -4.2
    endloop
  endfacet
  facet normal 0 0 -1
    outer loop
      vertex -9.56136 11.5577 -4.2
      vertex -1.51388 1.82997 -4.2
      vertex -1.7313 1.6258 -4.2
    endloop
  endfacet
  facet normal 0 0 -1
    outer loop
      vertex -10.9345 10.2682 -4.2
      vertex -1.7313 1.6258 -4.2
      vertex -1.92142 1.39599 -4.2
    endloop
  endfacet
  facet normal 0 0 -1
    outer loop
      vertex -12.1353 8.81678 -4.2
      vertex -1.92142 1.39599 -4.2
      vertex -2.08123 1.14416 -4.2
    endloop
  endfacet
  facet normal 0 0 -1
    outer loop
      vertex -13.1446 7.22631 -4.2
      vertex -2.08123 1.14416 -4.2
      vertex -2.20822 0.874295 -4.2
    endloop
  endfacet
  facet normal 0 0 -1
    outer loop
      vertex -13.9466 5.52187 -4.2
      vertex -2.20822 0.874295 -4.2
      vertex -2.30038 0.590638 -4.2
    endloop
  endfacet
  facet normal 0 0 -1
    outer loop
      vertex -14.5287 3.73035 -4.2
      vertex -2.30038 0.590638 -4.2
      vertex -2.35627 0.297666 -4.2
    endloop
  endfacet
  facet normal 0 0 -1
    outer loop
      vertex -0.44503 2.33293 -4.2
      vertex -2.81072 14.7343 -4.2
      vertex -0.941857 14.9704 -4.2
    endloop
  endfacet
  facet normal 0 0 -1
    outer loop
      vertex -14.8817 1.88 -4.2
      vertex -2.35627 0.297666 -4.2
      vertex -2.375 0 -4.2
    endloop
  endfacet
  facet normal 0 0 -1
    outer loop
      vertex -12.1353 -8.81678 -4.2
      vertex -1.92142 -1.39599 -4.2
      vertex -10.9345 -10.2682 -4.2
    endloop
  endfacet
  facet normal -0 0 -1
    outer loop
      vertex -1.92142 -1.39599 -4.2
      vertex -12.1353 -8.81678 -4.2
      vertex -2.08123 -1.14416 -4.2
    endloop
  endfacet
  facet normal 0 0 -1
    outer loop
      vertex -0.733915 2.25876 -4.2
      vertex -4.63525 14.2658 -4.2
      vertex -2.81072 14.7343 -4.2
    endloop
  endfacet
  facet normal 0 0 -1
    outer loop
      vertex -13.1446 -7.22631 -4.2
      vertex -2.08123 -1.14416 -4.2
      vertex -12.1353 -8.81678 -4.2
    endloop
  endfacet
  facet normal 0 0 -1
    outer loop
      vertex -1.01123 2.14896 -4.2
      vertex -6.38669 13.5724 -4.2
      vertex -4.63525 14.2658 -4.2
    endloop
  endfacet
  facet normal -0 0 -1
    outer loop
      vertex -2.08123 -1.14416 -4.2
      vertex -13.1446 -7.22631 -4.2
      vertex -2.20822 -0.874295 -4.2
    endloop
  endfacet
  facet normal 0 0 -1
    outer loop
      vertex -1.27259 2.00528 -4.2
      vertex -8.0374 12.6649 -4.2
      vertex -6.38669 13.5724 -4.2
    endloop
  endfacet
  facet normal 0 0 -1
    outer loop
      vertex -13.9466 -5.52187 -4.2
      vertex -2.20822 -0.874295 -4.2
      vertex -13.1446 -7.22631 -4.2
    endloop
  endfacet
  facet normal 0 0 -1
    outer loop
      vertex -1.51388 1.82997 -4.2
      vertex -9.56136 11.5577 -4.2
      vertex -8.0374 12.6649 -4.2
    endloop
  endfacet
  facet normal -0 0 -1
    outer loop
      vertex -2.20822 -0.874295 -4.2
      vertex -13.9466 -5.52187 -4.2
      vertex -2.30038 -0.590638 -4.2
    endloop
  endfacet
  facet normal 0 0 -1
    outer loop
      vertex -1.7313 1.6258 -4.2
      vertex -10.9345 10.2682 -4.2
      vertex -9.56136 11.5577 -4.2
    endloop
  endfacet
  facet normal 0 0 -1
    outer loop
      vertex -14.5287 -3.73035 -4.2
      vertex -2.30038 -0.590638 -4.2
      vertex -13.9466 -5.52187 -4.2
    endloop
  endfacet
  facet normal 0 0 -1
    outer loop
      vertex -1.92142 1.39599 -4.2
      vertex -12.1353 8.81678 -4.2
      vertex -10.9345 10.2682 -4.2
    endloop
  endfacet
  facet normal -0 0 -1
    outer loop
      vertex -2.30038 -0.590638 -4.2
      vertex -14.5287 -3.73035 -4.2
      vertex -2.35627 -0.297666 -4.2
    endloop
  endfacet
  facet normal 0 0 -1
    outer loop
      vertex -2.08123 1.14416 -4.2
      vertex -13.1446 7.22631 -4.2
      vertex -12.1353 8.81678 -4.2
    endloop
  endfacet
  facet normal 0 0 -1
    outer loop
      vertex -14.8817 -1.88 -4.2
      vertex -2.35627 -0.297666 -4.2
      vertex -14.5287 -3.73035 -4.2
    endloop
  endfacet
  facet normal 0 0 -1
    outer loop
      vertex -2.20822 0.874295 -4.2
      vertex -13.9466 5.52187 -4.2
      vertex -13.1446 7.22631 -4.2
    endloop
  endfacet
  facet normal -0 0 -1
    outer loop
      vertex -2.35627 -0.297666 -4.2
      vertex -14.8817 -1.88 -4.2
      vertex -2.375 0 -4.2
    endloop
  endfacet
  facet normal 0 0 -1
    outer loop
      vertex -2.30038 0.590638 -4.2
      vertex -14.5287 3.73035 -4.2
      vertex -13.9466 5.52187 -4.2
    endloop
  endfacet
  facet normal 0 0 -1
    outer loop
      vertex -15 0 -4.2
      vertex -2.375 0 -4.2
      vertex -14.8817 -1.88 -4.2
    endloop
  endfacet
  facet normal 0 0 -1
    outer loop
      vertex -2.35627 0.297666 -4.2
      vertex -14.8817 1.88 -4.2
      vertex -14.5287 3.73035 -4.2
    endloop
  endfacet
  facet normal 0 0 -1
    outer loop
      vertex -2.375 0 -4.2
      vertex -15 0 -4.2
      vertex -14.8817 1.88 -4.2
    endloop
  endfacet
  facet normal 0.48176 -0.876303 0
    outer loop
      vertex 6.38669 -13.5724 -4.2
      vertex 8.0374 -12.6649 0
      vertex 6.38669 -13.5724 0
    endloop
  endfacet
  facet normal 0.48176 -0.876303 0
    outer loop
      vertex 8.0374 -12.6649 0
      vertex 6.38669 -13.5724 -4.2
      vertex 8.0374 -12.6649 -4.2
    endloop
  endfacet
  facet normal 0.684557 -0.728959 0
    outer loop
      vertex 9.56136 -11.5577 -4.2
      vertex 10.9345 -10.2682 0
      vertex 9.56136 -11.5577 0
    endloop
  endfacet
  facet normal 0.684557 -0.728959 0
    outer loop
      vertex 10.9345 -10.2682 0
      vertex 9.56136 -11.5577 -4.2
      vertex 10.9345 -10.2682 -4.2
    endloop
  endfacet
  facet normal 0.844338 -0.535811 0
    outer loop
      vertex 12.1353 -8.81678 0
      vertex 13.1446 -7.22631 -4.2
      vertex 13.1446 -7.22631 0
    endloop
  endfacet
  facet normal 0.844338 -0.535811 0
    outer loop
      vertex 13.1446 -7.22631 -4.2
      vertex 12.1353 -8.81678 0
      vertex 12.1353 -8.81678 -4.2
    endloop
  endfacet
  facet normal -0.770492 -0.63745 0
    outer loop
      vertex -10.9345 -10.2682 -4.2
      vertex -12.1353 -8.81678 0
      vertex -12.1353 -8.81678 -4.2
    endloop
  endfacet
  facet normal -0.770492 -0.63745 0
    outer loop
      vertex -12.1353 -8.81678 0
      vertex -10.9345 -10.2682 -4.2
      vertex -10.9345 -10.2682 0
    endloop
  endfacet
  facet normal -0.844338 -0.535811 0
    outer loop
      vertex -12.1353 -8.81678 -4.2
      vertex -13.1446 -7.22631 0
      vertex -13.1446 -7.22631 -4.2
    endloop
  endfacet
  facet normal -0.844338 -0.535811 0
    outer loop
      vertex -13.1446 -7.22631 0
      vertex -12.1353 -8.81678 -4.2
      vertex -12.1353 -8.81678 0
    endloop
  endfacet
  facet normal -0.951057 -0.309017 0
    outer loop
      vertex -13.9466 -5.52187 -4.2
      vertex -14.5287 -3.73035 0
      vertex -14.5287 -3.73035 -4.2
    endloop
  endfacet
  facet normal -0.951057 -0.309017 0
    outer loop
      vertex -14.5287 -3.73035 0
      vertex -13.9466 -5.52187 -4.2
      vertex -13.9466 -5.52187 0
    endloop
  endfacet
  facet normal 0.368104 -0.929785 0
    outer loop
      vertex 4.63525 -14.2658 -4.2
      vertex 6.38669 -13.5724 0
      vertex 4.63525 -14.2658 0
    endloop
  endfacet
  facet normal 0.368104 -0.929785 0
    outer loop
      vertex 6.38669 -13.5724 0
      vertex 4.63525 -14.2658 -4.2
      vertex 6.38669 -13.5724 -4.2
    endloop
  endfacet
  facet normal 0.24871 -0.968578 0
    outer loop
      vertex 2.81072 -14.7343 -4.2
      vertex 4.63525 -14.2658 0
      vertex 2.81072 -14.7343 0
    endloop
  endfacet
  facet normal 0.24871 -0.968578 0
    outer loop
      vertex 4.63525 -14.2658 0
      vertex 2.81072 -14.7343 -4.2
      vertex 4.63525 -14.2658 -4.2
    endloop
  endfacet
  facet normal 0.125337 -0.992114 0
    outer loop
      vertex 0.941857 -14.9704 -4.2
      vertex 2.81072 -14.7343 0
      vertex 0.941857 -14.9704 0
    endloop
  endfacet
  facet normal 0.125337 -0.992114 0
    outer loop
      vertex 2.81072 -14.7343 0
      vertex 0.941857 -14.9704 -4.2
      vertex 2.81072 -14.7343 -4.2
    endloop
  endfacet
  facet normal -0.125337 -0.992114 0
    outer loop
      vertex -2.81072 -14.7343 -4.2
      vertex -0.941857 -14.9704 0
      vertex -2.81072 -14.7343 0
    endloop
  endfacet
  facet normal -0.125337 -0.992114 -0
    outer loop
      vertex -0.941857 -14.9704 0
      vertex -2.81072 -14.7343 -4.2
      vertex -0.941857 -14.9704 -4.2
    endloop
  endfacet
  facet normal -0.368104 -0.929785 0
    outer loop
      vertex -6.38669 -13.5724 -4.2
      vertex -4.63525 -14.2658 0
      vertex -6.38669 -13.5724 0
    endloop
  endfacet
  facet normal -0.368104 -0.929785 -0
    outer loop
      vertex -4.63525 -14.2658 0
      vertex -6.38669 -13.5724 -4.2
      vertex -4.63525 -14.2658 -4.2
    endloop
  endfacet
  facet normal -0.24871 -0.968578 0
    outer loop
      vertex -4.63525 -14.2658 -4.2
      vertex -2.81072 -14.7343 0
      vertex -4.63525 -14.2658 0
    endloop
  endfacet
  facet normal -0.24871 -0.968578 -0
    outer loop
      vertex -2.81072 -14.7343 0
      vertex -4.63525 -14.2658 -4.2
      vertex -2.81072 -14.7343 -4.2
    endloop
  endfacet
  facet normal -0.684557 -0.728959 0
    outer loop
      vertex -10.9345 -10.2682 -4.2
      vertex -9.56136 -11.5577 0
      vertex -10.9345 -10.2682 0
    endloop
  endfacet
  facet normal -0.684557 -0.728959 -0
    outer loop
      vertex -9.56136 -11.5577 0
      vertex -10.9345 -10.2682 -4.2
      vertex -9.56136 -11.5577 -4.2
    endloop
  endfacet
  facet normal -0.904837 -0.425758 0
    outer loop
      vertex -13.1446 -7.22631 -4.2
      vertex -13.9466 -5.52187 0
      vertex -13.9466 -5.52187 -4.2
    endloop
  endfacet
  facet normal -0.904837 -0.425758 0
    outer loop
      vertex -13.9466 -5.52187 0
      vertex -13.1446 -7.22631 -4.2
      vertex -13.1446 -7.22631 0
    endloop
  endfacet
  facet normal -0.982285 -0.187395 0
    outer loop
      vertex -14.5287 -3.73035 -4.2
      vertex -14.8817 -1.88 0
      vertex -14.8817 -1.88 -4.2
    endloop
  endfacet
  facet normal -0.982285 -0.187395 0
    outer loop
      vertex -14.8817 -1.88 0
      vertex -14.5287 -3.73035 -4.2
      vertex -14.5287 -3.73035 0
    endloop
  endfacet
  facet normal -0.998026 -0.0628013 0
    outer loop
      vertex -14.8817 -1.88 -4.2
      vertex -15 0 0
      vertex -15 0 -4.2
    endloop
  endfacet
  facet normal -0.998026 -0.0628013 0
    outer loop
      vertex -15 0 0
      vertex -14.8817 -1.88 -4.2
      vertex -14.8817 -1.88 0
    endloop
  endfacet
  facet normal 0.587778 -0.809022 0
    outer loop
      vertex 8.0374 -12.6649 -4.2
      vertex 9.56136 -11.5577 0
      vertex 8.0374 -12.6649 0
    endloop
  endfacet
  facet normal 0.587778 -0.809022 0
    outer loop
      vertex 9.56136 -11.5577 0
      vertex 8.0374 -12.6649 -4.2
      vertex 9.56136 -11.5577 -4.2
    endloop
  endfacet
  facet normal -0.48176 -0.876303 0
    outer loop
      vertex -8.0374 -12.6649 -4.2
      vertex -6.38669 -13.5724 0
      vertex -8.0374 -12.6649 0
    endloop
  endfacet
  facet normal -0.48176 -0.876303 -0
    outer loop
      vertex -6.38669 -13.5724 0
      vertex -8.0374 -12.6649 -4.2
      vertex -6.38669 -13.5724 -4.2
    endloop
  endfacet
  facet normal -0.587778 -0.809022 0
    outer loop
      vertex -9.56136 -11.5577 -4.2
      vertex -8.0374 -12.6649 0
      vertex -9.56136 -11.5577 0
    endloop
  endfacet
  facet normal -0.587778 -0.809022 -0
    outer loop
      vertex -8.0374 -12.6649 0
      vertex -9.56136 -11.5577 -4.2
      vertex -8.0374 -12.6649 -4.2
    endloop
  endfacet
  facet normal -0.687799 0.568998 0.450748
    outer loop
      vertex 3.28036 -3.08046 0
      vertex 3.64058 -2.64503 0
      vertex 1.7313 -1.6258 -4.2
    endloop
  endfacet
  facet normal -0.89089 -0.056044 0.450748
    outer loop
      vertex 4.5 0 0
      vertex 4.46452 0.563999 0
      vertex 2.375 0 -4.2
    endloop
  endfacet
  facet normal -0.890889 -0.0560573 0.450749
    outer loop
      vertex 2.375 0 -4.2
      vertex 4.46452 0.563999 0
      vertex 2.35627 0.297666 -4.2
    endloop
  endfacet
  facet normal -0.890889 0.0560573 0.450749
    outer loop
      vertex 4.46452 -0.563999 0
      vertex 2.375 0 -4.2
      vertex 2.35627 -0.297666 -4.2
    endloop
  endfacet
  facet normal 0.876838 0.167274 0.450749
    outer loop
      vertex -2.30038 -0.590638 -4.2
      vertex -2.35627 -0.297666 -4.2
      vertex -4.46452 -0.563999 0
    endloop
  endfacet
  facet normal 0.221994 -0.864607 0.450748
    outer loop
      vertex -0.44503 2.33293 -4.2
      vertex -0.843215 4.42029 0
      vertex -1.39058 4.27975 0
    endloop
  endfacet
  facet normal -0.111875 0.885613 0.450748
    outer loop
      vertex 0.282557 -4.49112 0
      vertex 0.44503 -2.33293 -4.2
      vertex 0.149127 -2.37031 -4.2
    endloop
  endfacet
  facet normal -0.876837 0.16728 0.450748
    outer loop
      vertex 4.35862 -1.1191 0
      vertex 4.46452 -0.563999 0
      vertex 2.30038 -0.590638 -4.2
    endloop
  endfacet
  facet normal -0.807697 0.380068 0.450748
    outer loop
      vertex 3.94338 -2.16789 0
      vertex 4.18399 -1.65656 0
      vertex 2.08123 -1.14416 -4.2
    endloop
  endfacet
  facet normal 0.61106 0.650716 0.450748
    outer loop
      vertex -1.51388 -1.82997 -4.2
      vertex -1.7313 -1.6258 -4.2
      vertex -2.86841 -3.46731 0
    endloop
  endfacet
  facet normal 0.111875 -0.885613 0.450748
    outer loop
      vertex -0.149127 2.37031 -4.2
      vertex -0.282557 4.49112 0
      vertex -0.44503 2.33293 -4.2
    endloop
  endfacet
  facet normal 0.687793 -0.569006 0.450747
    outer loop
      vertex -1.92142 1.39599 -4.2
      vertex -1.7313 1.6258 -4.2
      vertex -3.64058 2.64503 0
    endloop
  endfacet
  facet normal -0.848962 0.275843 0.450748
    outer loop
      vertex 4.18399 -1.65656 0
      vertex 4.35862 -1.1191 0
      vertex 2.30038 -0.590638 -4.2
    endloop
  endfacet
  facet normal -0.89089 0.056044 0.450748
    outer loop
      vertex 4.46452 -0.563999 0
      vertex 4.5 0 0
      vertex 2.375 0 -4.2
    endloop
  endfacet
  facet normal -0.848967 0.275829 0.450747
    outer loop
      vertex 4.18399 -1.65656 0
      vertex 2.30038 -0.590638 -4.2
      vertex 2.20822 -0.874295 -4.2
    endloop
  endfacet
  facet normal -0.753699 0.478293 0.450748
    outer loop
      vertex 3.94338 -2.16789 0
      vertex 2.08123 -1.14416 -4.2
      vertex 1.92142 -1.39599 -4.2
    endloop
  endfacet
  facet normal -0.807694 0.380075 0.450747
    outer loop
      vertex 4.18399 -1.65656 0
      vertex 2.20822 -0.874295 -4.2
      vertex 2.08123 -1.14416 -4.2
    endloop
  endfacet
  facet normal -0.430029 0.782242 0.450746
    outer loop
      vertex 2.41122 -3.79947 0
      vertex 1.27259 -2.00528 -4.2
      vertex 1.01123 -2.14896 -4.2
    endloop
  endfacet
  facet normal -0.430045 0.782232 0.450748
    outer loop
      vertex 1.91601 -4.07172 0
      vertex 2.41122 -3.79947 0
      vertex 1.01123 -2.14896 -4.2
    endloop
  endfacet
  facet normal -0.430045 -0.782232 0.450748
    outer loop
      vertex 2.41122 3.79947 0
      vertex 1.91601 4.07172 0
      vertex 1.01123 2.14896 -4.2
    endloop
  endfacet
  facet normal 0.848962 -0.275843 0.450748
    outer loop
      vertex -2.30038 0.590638 -4.2
      vertex -4.18399 1.65656 0
      vertex -4.35862 1.1191 0
    endloop
  endfacet
  facet normal 0.430029 -0.782242 0.450746
    outer loop
      vertex -1.27259 2.00528 -4.2
      vertex -1.01123 2.14896 -4.2
      vertex -2.41122 3.79947 0
    endloop
  endfacet
  facet normal -0.876838 0.167274 0.450749
    outer loop
      vertex 4.46452 -0.563999 0
      vertex 2.35627 -0.297666 -4.2
      vertex 2.30038 -0.590638 -4.2
    endloop
  endfacet
  facet normal -0.753692 0.478304 0.450747
    outer loop
      vertex 3.64058 -2.64503 0
      vertex 3.94338 -2.16789 0
      vertex 1.92142 -1.39599 -4.2
    endloop
  endfacet
  facet normal -0.687793 0.569006 0.450747
    outer loop
      vertex 3.64058 -2.64503 0
      vertex 1.92142 -1.39599 -4.2
      vertex 1.7313 -1.6258 -4.2
    endloop
  endfacet
  facet normal -0.328603 0.829967 0.450748
    outer loop
      vertex 1.39058 -4.27975 0
      vertex 1.91601 -4.07172 0
      vertex 1.01123 -2.14896 -4.2
    endloop
  endfacet
  facet normal -0.61106 0.650716 0.450748
    outer loop
      vertex 2.86841 -3.46731 0
      vertex 1.7313 -1.6258 -4.2
      vertex 1.51388 -1.82997 -4.2
    endloop
  endfacet
  facet normal -0.221985 0.86461 0.450747
    outer loop
      vertex 1.39058 -4.27975 0
      vertex 0.733915 -2.25876 -4.2
      vertex 0.44503 -2.33293 -4.2
    endloop
  endfacet
  facet normal 0.848962 0.275843 0.450748
    outer loop
      vertex -4.18399 -1.65656 0
      vertex -2.30038 -0.590638 -4.2
      vertex -4.35862 -1.1191 0
    endloop
  endfacet
  facet normal 0.876837 0.16728 0.450748
    outer loop
      vertex -4.35862 -1.1191 0
      vertex -2.30038 -0.590638 -4.2
      vertex -4.46452 -0.563999 0
    endloop
  endfacet
  facet normal 0.328615 0.829963 0.450747
    outer loop
      vertex -0.733915 -2.25876 -4.2
      vertex -1.01123 -2.14896 -4.2
      vertex -1.39058 -4.27975 0
    endloop
  endfacet
  facet normal 0.221994 0.864607 0.450748
    outer loop
      vertex -0.843215 -4.42029 0
      vertex -0.44503 -2.33293 -4.2
      vertex -1.39058 -4.27975 0
    endloop
  endfacet
  facet normal 0.221985 0.86461 0.450747
    outer loop
      vertex -0.44503 -2.33293 -4.2
      vertex -0.733915 -2.25876 -4.2
      vertex -1.39058 -4.27975 0
    endloop
  endfacet
  facet normal 0.524693 0.722167 0.450747
    outer loop
      vertex -1.27259 -2.00528 -4.2
      vertex -1.51388 -1.82997 -4.2
      vertex -2.41122 -3.79947 0
    endloop
  endfacet
  facet normal 0.524679 0.722176 0.450748
    outer loop
      vertex -2.41122 -3.79947 0
      vertex -1.51388 -1.82997 -4.2
      vertex -2.86841 -3.46731 0
    endloop
  endfacet
  facet normal 0.753699 0.478293 0.450748
    outer loop
      vertex -1.92142 -1.39599 -4.2
      vertex -2.08123 -1.14416 -4.2
      vertex -3.94338 -2.16789 0
    endloop
  endfacet
  facet normal 0.611065 0.650712 0.450748
    outer loop
      vertex -2.86841 -3.46731 0
      vertex -1.7313 -1.6258 -4.2
      vertex -3.28036 -3.08046 0
    endloop
  endfacet
  facet normal -0.611065 -0.650712 0.450748
    outer loop
      vertex 3.28036 3.08046 0
      vertex 2.86841 3.46731 0
      vertex 1.7313 1.6258 -4.2
    endloop
  endfacet
  facet normal -0.524693 -0.722167 0.450747
    outer loop
      vertex 1.51388 1.82997 -4.2
      vertex 2.41122 3.79947 0
      vertex 1.27259 2.00528 -4.2
    endloop
  endfacet
  facet normal -0.111883 -0.885612 0.450748
    outer loop
      vertex 0.44503 2.33293 -4.2
      vertex 0.843215 4.42029 0
      vertex 0.282557 4.49112 0
    endloop
  endfacet
  facet normal 0.111883 -0.885612 0.450748
    outer loop
      vertex -0.44503 2.33293 -4.2
      vertex -0.282557 4.49112 0
      vertex -0.843215 4.42029 0
    endloop
  endfacet
  facet normal 0.876837 -0.16728 0.450748
    outer loop
      vertex -2.30038 0.590638 -4.2
      vertex -4.35862 1.1191 0
      vertex -4.46452 0.563999 0
    endloop
  endfacet
  facet normal 0.753699 -0.478293 0.450748
    outer loop
      vertex -2.08123 1.14416 -4.2
      vertex -1.92142 1.39599 -4.2
      vertex -3.94338 2.16789 0
    endloop
  endfacet
  facet normal 0.753692 -0.478304 0.450747
    outer loop
      vertex -1.92142 1.39599 -4.2
      vertex -3.64058 2.64503 0
      vertex -3.94338 2.16789 0
    endloop
  endfacet
  facet normal 0.687799 -0.568998 0.450748
    outer loop
      vertex -1.7313 1.6258 -4.2
      vertex -3.28036 3.08046 0
      vertex -3.64058 2.64503 0
    endloop
  endfacet
  facet normal -0.221994 0.864607 0.450748
    outer loop
      vertex 0.843215 -4.42029 0
      vertex 1.39058 -4.27975 0
      vertex 0.44503 -2.33293 -4.2
    endloop
  endfacet
  facet normal -0.111883 0.885612 0.450748
    outer loop
      vertex 0.843215 -4.42029 0
      vertex 0.44503 -2.33293 -4.2
      vertex 0.282557 -4.49112 0
    endloop
  endfacet
  facet normal -0.524679 0.722176 0.450748
    outer loop
      vertex 2.41122 -3.79947 0
      vertex 2.86841 -3.46731 0
      vertex 1.51388 -1.82997 -4.2
    endloop
  endfacet
  facet normal -0.611065 0.650712 0.450748
    outer loop
      vertex 2.86841 -3.46731 0
      vertex 3.28036 -3.08046 0
      vertex 1.7313 -1.6258 -4.2
    endloop
  endfacet
  facet normal 0.328603 0.829967 0.450748
    outer loop
      vertex -1.39058 -4.27975 0
      vertex -1.01123 -2.14896 -4.2
      vertex -1.91601 -4.07172 0
    endloop
  endfacet
  facet normal 0.111883 0.885612 0.450748
    outer loop
      vertex -0.282557 -4.49112 0
      vertex -0.44503 -2.33293 -4.2
      vertex -0.843215 -4.42029 0
    endloop
  endfacet
  facet normal 0.687799 0.568998 0.450748
    outer loop
      vertex -3.28036 -3.08046 0
      vertex -1.7313 -1.6258 -4.2
      vertex -3.64058 -2.64503 0
    endloop
  endfacet
  facet normal -0.753692 -0.478304 0.450747
    outer loop
      vertex 3.94338 2.16789 0
      vertex 3.64058 2.64503 0
      vertex 1.92142 1.39599 -4.2
    endloop
  endfacet
  facet normal -0.687799 -0.568998 0.450748
    outer loop
      vertex 3.64058 2.64503 0
      vertex 3.28036 3.08046 0
      vertex 1.7313 1.6258 -4.2
    endloop
  endfacet
  facet normal -0.221994 -0.864607 0.450748
    outer loop
      vertex 1.39058 4.27975 0
      vertex 0.843215 4.42029 0
      vertex 0.44503 2.33293 -4.2
    endloop
  endfacet
  facet normal -0.430029 -0.782242 0.450746
    outer loop
      vertex 1.27259 2.00528 -4.2
      vertex 2.41122 3.79947 0
      vertex 1.01123 2.14896 -4.2
    endloop
  endfacet
  facet normal 0.524679 -0.722176 0.450748
    outer loop
      vertex -1.51388 1.82997 -4.2
      vertex -2.41122 3.79947 0
      vertex -2.86841 3.46731 0
    endloop
  endfacet
  facet normal 0.61106 -0.650716 0.450748
    outer loop
      vertex -1.7313 1.6258 -4.2
      vertex -1.51388 1.82997 -4.2
      vertex -2.86841 3.46731 0
    endloop
  endfacet
  facet normal 0.328603 -0.829967 0.450748
    outer loop
      vertex -1.01123 2.14896 -4.2
      vertex -1.39058 4.27975 0
      vertex -1.91601 4.07172 0
    endloop
  endfacet
  facet normal 0.430045 -0.782232 0.450748
    outer loop
      vertex -1.01123 2.14896 -4.2
      vertex -1.91601 4.07172 0
      vertex -2.41122 3.79947 0
    endloop
  endfacet
  facet normal 0.328615 -0.829963 0.450747
    outer loop
      vertex -1.01123 2.14896 -4.2
      vertex -0.733915 2.25876 -4.2
      vertex -1.39058 4.27975 0
    endloop
  endfacet
  facet normal 0.221985 -0.86461 0.450747
    outer loop
      vertex -0.733915 2.25876 -4.2
      vertex -0.44503 2.33293 -4.2
      vertex -1.39058 4.27975 0
    endloop
  endfacet
  facet normal 0.807697 -0.380068 0.450748
    outer loop
      vertex -2.08123 1.14416 -4.2
      vertex -3.94338 2.16789 0
      vertex -4.18399 1.65656 0
    endloop
  endfacet
  facet normal 0.89089 -0.056044 0.450748
    outer loop
      vertex -2.375 0 -4.2
      vertex -4.46452 0.563999 0
      vertex -4.5 0 0
    endloop
  endfacet
  facet normal 0.890889 -0.0560573 0.450749
    outer loop
      vertex -2.375 0 -4.2
      vertex -2.35627 0.297666 -4.2
      vertex -4.46452 0.563999 0
    endloop
  endfacet
  facet normal -0.328615 0.829963 0.450747
    outer loop
      vertex 1.39058 -4.27975 0
      vertex 1.01123 -2.14896 -4.2
      vertex 0.733915 -2.25876 -4.2
    endloop
  endfacet
  facet normal -0.524693 0.722167 0.450747
    outer loop
      vertex 2.41122 -3.79947 0
      vertex 1.51388 -1.82997 -4.2
      vertex 1.27259 -2.00528 -4.2
    endloop
  endfacet
  facet normal 0.807697 0.380068 0.450748
    outer loop
      vertex -3.94338 -2.16789 0
      vertex -2.08123 -1.14416 -4.2
      vertex -4.18399 -1.65656 0
    endloop
  endfacet
  facet normal 0.430045 0.782232 0.450748
    outer loop
      vertex -1.91601 -4.07172 0
      vertex -1.01123 -2.14896 -4.2
      vertex -2.41122 -3.79947 0
    endloop
  endfacet
  facet normal 0.430029 0.782242 0.450746
    outer loop
      vertex -1.01123 -2.14896 -4.2
      vertex -1.27259 -2.00528 -4.2
      vertex -2.41122 -3.79947 0
    endloop
  endfacet
  facet normal 0 0.892651 0.450748
    outer loop
      vertex 0.149127 -2.37031 -4.2
      vertex -0.282557 -4.49112 0
      vertex 0.282557 -4.49112 0
    endloop
  endfacet
  facet normal 0 0.892651 0.450748
    outer loop
      vertex -0.282557 -4.49112 0
      vertex 0.149127 -2.37031 -4.2
      vertex -0.149127 -2.37031 -4.2
    endloop
  endfacet
  facet normal 0.687793 0.569006 0.450747
    outer loop
      vertex -1.7313 -1.6258 -4.2
      vertex -1.92142 -1.39599 -4.2
      vertex -3.64058 -2.64503 0
    endloop
  endfacet
  facet normal 0.753692 0.478304 0.450747
    outer loop
      vertex -3.64058 -2.64503 0
      vertex -1.92142 -1.39599 -4.2
      vertex -3.94338 -2.16789 0
    endloop
  endfacet
  facet normal -0.61106 -0.650716 0.450748
    outer loop
      vertex 1.7313 1.6258 -4.2
      vertex 2.86841 3.46731 0
      vertex 1.51388 1.82997 -4.2
    endloop
  endfacet
  facet normal -0.524679 -0.722176 0.450748
    outer loop
      vertex 2.86841 3.46731 0
      vertex 2.41122 3.79947 0
      vertex 1.51388 1.82997 -4.2
    endloop
  endfacet
  facet normal -0.111875 -0.885613 0.450748
    outer loop
      vertex 0.44503 2.33293 -4.2
      vertex 0.282557 4.49112 0
      vertex 0.149127 2.37031 -4.2
    endloop
  endfacet
  facet normal -0.328603 -0.829967 0.450748
    outer loop
      vertex 1.91601 4.07172 0
      vertex 1.39058 4.27975 0
      vertex 1.01123 2.14896 -4.2
    endloop
  endfacet
  facet normal -0.221985 -0.86461 0.450747
    outer loop
      vertex 0.733915 2.25876 -4.2
      vertex 1.39058 4.27975 0
      vertex 0.44503 2.33293 -4.2
    endloop
  endfacet
  facet normal -0.328615 -0.829963 0.450747
    outer loop
      vertex 1.01123 2.14896 -4.2
      vertex 1.39058 4.27975 0
      vertex 0.733915 2.25876 -4.2
    endloop
  endfacet
  facet normal 0.524693 -0.722167 0.450747
    outer loop
      vertex -1.51388 1.82997 -4.2
      vertex -1.27259 2.00528 -4.2
      vertex -2.41122 3.79947 0
    endloop
  endfacet
  facet normal 0.611065 -0.650712 0.450748
    outer loop
      vertex -1.7313 1.6258 -4.2
      vertex -2.86841 3.46731 0
      vertex -3.28036 3.08046 0
    endloop
  endfacet
  facet normal 0.848967 -0.275829 0.450747
    outer loop
      vertex -2.30038 0.590638 -4.2
      vertex -2.20822 0.874295 -4.2
      vertex -4.18399 1.65656 0
    endloop
  endfacet
  facet normal 0.807694 -0.380075 0.450747
    outer loop
      vertex -2.20822 0.874295 -4.2
      vertex -2.08123 1.14416 -4.2
      vertex -4.18399 1.65656 0
    endloop
  endfacet
  facet normal 0.89089 0.056044 0.450748
    outer loop
      vertex -4.46452 -0.563999 0
      vertex -2.375 0 -4.2
      vertex -4.5 0 0
    endloop
  endfacet
  facet normal 0.807694 0.380075 0.450747
    outer loop
      vertex -2.08123 -1.14416 -4.2
      vertex -2.20822 -0.874295 -4.2
      vertex -4.18399 -1.65656 0
    endloop
  endfacet
  facet normal 0.848967 0.275829 0.450747
    outer loop
      vertex -2.20822 -0.874295 -4.2
      vertex -2.30038 -0.590638 -4.2
      vertex -4.18399 -1.65656 0
    endloop
  endfacet
  facet normal 0.111875 0.885613 0.450748
    outer loop
      vertex -0.282557 -4.49112 0
      vertex -0.149127 -2.37031 -4.2
      vertex -0.44503 -2.33293 -4.2
    endloop
  endfacet
  facet normal -0.687793 -0.569006 0.450747
    outer loop
      vertex 1.92142 1.39599 -4.2
      vertex 3.64058 2.64503 0
      vertex 1.7313 1.6258 -4.2
    endloop
  endfacet
  facet normal -0.876837 -0.16728 0.450748
    outer loop
      vertex 4.46452 0.563999 0
      vertex 4.35862 1.1191 0
      vertex 2.30038 0.590638 -4.2
    endloop
  endfacet
  facet normal -0.876838 -0.167274 0.450749
    outer loop
      vertex 2.35627 0.297666 -4.2
      vertex 4.46452 0.563999 0
      vertex 2.30038 0.590638 -4.2
    endloop
  endfacet
  facet normal -0.807697 -0.380068 0.450748
    outer loop
      vertex 4.18399 1.65656 0
      vertex 3.94338 2.16789 0
      vertex 2.08123 1.14416 -4.2
    endloop
  endfacet
  facet normal -0.753699 -0.478293 0.450748
    outer loop
      vertex 2.08123 1.14416 -4.2
      vertex 3.94338 2.16789 0
      vertex 1.92142 1.39599 -4.2
    endloop
  endfacet
  facet normal 0 -0.892651 0.450748
    outer loop
      vertex -0.149127 2.37031 -4.2
      vertex 0.282557 4.49112 0
      vertex -0.282557 4.49112 0
    endloop
  endfacet
  facet normal 0 -0.892651 0.450748
    outer loop
      vertex 0.282557 4.49112 0
      vertex -0.149127 2.37031 -4.2
      vertex 0.149127 2.37031 -4.2
    endloop
  endfacet
  facet normal 0.890889 0.0560573 0.450749
    outer loop
      vertex -2.35627 -0.297666 -4.2
      vertex -2.375 0 -4.2
      vertex -4.46452 -0.563999 0
    endloop
  endfacet
  facet normal -0.807694 -0.380075 0.450747
    outer loop
      vertex 2.20822 0.874295 -4.2
      vertex 4.18399 1.65656 0
      vertex 2.08123 1.14416 -4.2
    endloop
  endfacet
  facet normal -0.848967 -0.275829 0.450747
    outer loop
      vertex 2.30038 0.590638 -4.2
      vertex 4.18399 1.65656 0
      vertex 2.20822 0.874295 -4.2
    endloop
  endfacet
  facet normal -0.848962 -0.275843 0.450748
    outer loop
      vertex 4.35862 1.1191 0
      vertex 4.18399 1.65656 0
      vertex 2.30038 0.590638 -4.2
    endloop
  endfacet
  facet normal 0.876838 -0.167274 0.450749
    outer loop
      vertex -2.35627 0.297666 -4.2
      vertex -2.30038 0.590638 -4.2
      vertex -4.46452 0.563999 0
    endloop
  endfacet
endsolid OpenSCAD_Model
