solid OpenSCAD_Model
  facet normal 0.996787 0.0627103 -0.0498393
    outer loop
      vertex 6.175 0 -3
      vertex 6.12631 0.773932 -3
      vertex 6.325 0 0
    endloop
  endfacet
  facet normal 0 -0.998757 -0.0498413
    outer loop
      vertex -0.387731 -6.16281 -3
      vertex 0.397149 -6.31252 0
      vertex -0.397149 -6.31252 0
    endloop
  endfacet
  facet normal 0 -0.998757 -0.0498413
    outer loop
      vertex 0.397149 -6.31252 0
      vertex -0.387731 -6.16281 -3
      vertex 0.387731 -6.16281 -3
    endloop
  endfacet
  facet normal 0.996786 -0.0627194 -0.049837
    outer loop
      vertex 6.27512 -0.792732 0
      vertex 6.12631 -0.773932 -3
      vertex 6.325 0 0
    endloop
  endfacet
  facet normal -0.996787 -0.0627103 -0.0498393
    outer loop
      vertex -6.12631 -0.773932 -3
      vertex -6.325 0 0
      vertex -6.175 0 -3
    endloop
  endfacet
  facet normal 0.125176 0.990882 -0.0498413
    outer loop
      vertex 1.15708 6.06562 -3
      vertex 0.387731 6.16281 -3
      vertex 0.397149 6.31252 0
    endloop
  endfacet
  facet normal 0.9037 0.425256 -0.0498405
    outer loop
      vertex 5.74137 2.27317 -3
      vertex 5.54264 3.04709 0
      vertex 5.88084 2.32839 0
    endloop
  endfacet
  facet normal 0.683699 -0.72806 -0.0498399
    outer loop
      vertex 4.61073 -4.32976 0
      vertex 4.03171 -4.8735 0
      vertex 4.50138 -4.22708 -3
    endloop
  endfacet
  facet normal 0.248381 -0.967379 -0.0498396
    outer loop
      vertex 1.95453 -6.01543 0
      vertex 1.15708 -6.06562 -3
      vertex 1.90818 -5.87277 -3
    endloop
  endfacet
  facet normal -0.996786 0.0627194 -0.049837
    outer loop
      vertex -6.12631 0.773932 -3
      vertex -6.325 0 0
      vertex -6.27512 0.792732 0
    endloop
  endfacet
  facet normal 0.683699 0.72806 -0.0498399
    outer loop
      vertex 4.50138 4.22708 -3
      vertex 4.03171 4.8735 0
      vertex 4.61073 4.32976 0
    endloop
  endfacet
  facet normal 0.981068 0.187141 -0.049837
    outer loop
      vertex 6.12631 0.773932 -3
      vertex 6.12629 1.57296 0
      vertex 6.27512 0.792732 0
    endloop
  endfacet
  facet normal 0.9037 -0.425256 -0.0498405
    outer loop
      vertex 5.88084 -2.32839 0
      vertex 5.54264 -3.04709 0
      vertex 5.74137 -2.27317 -3
    endloop
  endfacet
  facet normal 0.769558 -0.636629 -0.0498401
    outer loop
      vertex 4.61073 -4.32976 0
      vertex 4.50138 -4.22708 -3
      vertex 4.99568 -3.62957 -3
    endloop
  endfacet
  facet normal 0.367666 -0.928621 -0.0498372
    outer loop
      vertex 2.69305 -5.72303 0
      vertex 1.95453 -6.01543 0
      vertex 2.62919 -5.58731 -3
    endloop
  endfacet
  facet normal -0.769558 -0.636629 -0.0498401
    outer loop
      vertex -4.61073 -4.32976 0
      vertex -4.99568 -3.62957 -3
      vertex -4.50138 -4.22708 -3
    endloop
  endfacet
  facet normal -0.683699 -0.72806 -0.0498399
    outer loop
      vertex -4.03171 -4.8735 0
      vertex -4.61073 -4.32976 0
      vertex -4.50138 -4.22708 -3
    endloop
  endfacet
  facet normal -0.9037 0.425256 -0.0498405
    outer loop
      vertex -5.74137 2.27317 -3
      vertex -5.88084 2.32839 0
      vertex -5.54264 3.04709 0
    endloop
  endfacet
  facet normal 0 0 1
    outer loop
      vertex 2.18025 -2.06519 0
      vertex 6.325 0 0
      vertex 6.27512 0.792732 0
    endloop
  endfacet
  facet normal 0 0 1
    outer loop
      vertex 2.18025 -2.06519 0
      vertex 6.27512 0.792732 0
      vertex 6.12629 1.57296 0
    endloop
  endfacet
  facet normal 0 0 1
    outer loop
      vertex 6.325 0 0
      vertex 2.18025 -2.06519 0
      vertex 6.27512 -0.792732 0
    endloop
  endfacet
  facet normal 0 0 1
    outer loop
      vertex 2.18025 -2.06519 0
      vertex 6.12629 1.57296 0
      vertex 5.88084 2.32839 0
    endloop
  endfacet
  facet normal 0 0 1
    outer loop
      vertex 6.27512 -0.792732 0
      vertex 2.18025 -2.06519 0
      vertex 6.12629 -1.57296 0
    endloop
  endfacet
  facet normal 0 0 1
    outer loop
      vertex 2.18025 -2.06519 0
      vertex 5.88084 2.32839 0
      vertex 5.54264 3.04709 0
    endloop
  endfacet
  facet normal 0 0 1
    outer loop
      vertex 6.12629 -1.57296 0
      vertex 2.18025 -2.06519 0
      vertex 5.88084 -2.32839 0
    endloop
  endfacet
  facet normal 0 0 1
    outer loop
      vertex 2.18025 -2.06519 0
      vertex 5.54264 3.04709 0
      vertex 5.11703 3.71774 0
    endloop
  endfacet
  facet normal 0 0 1
    outer loop
      vertex 5.88084 -2.32839 0
      vertex 2.18025 -2.06519 0
      vertex 5.54264 -3.04709 0
    endloop
  endfacet
  facet normal 0 0 1
    outer loop
      vertex 2.18025 -2.06519 0
      vertex 5.11703 3.71774 0
      vertex 4.61073 4.32976 0
    endloop
  endfacet
  facet normal -0 0 1
    outer loop
      vertex 2.17943 -2.60133 0
      vertex 5.54264 -3.04709 0
      vertex 2.18025 -2.06519 0
    endloop
  endfacet
  facet normal 0 0 1
    outer loop
      vertex 2.18025 -2.06519 0
      vertex 4.61073 4.32976 0
      vertex 4.03171 4.8735 0
    endloop
  endfacet
  facet normal 0 0 1
    outer loop
      vertex 5.54264 -3.04709 0
      vertex 2.17943 -2.60133 0
      vertex 5.11703 -3.71774 0
    endloop
  endfacet
  facet normal 0 0 1
    outer loop
      vertex 2.18025 -2.06519 0
      vertex 4.03171 4.8735 0
      vertex 3.3891 5.34037 0
    endloop
  endfacet
  facet normal -0 0 1
    outer loop
      vertex 2.17693 -3.07986 0
      vertex 5.11703 -3.71774 0
      vertex 2.17943 -2.60133 0
    endloop
  endfacet
  facet normal 0 0 1
    outer loop
      vertex 2.18025 -2.06519 0
      vertex 3.3891 5.34037 0
      vertex 2.69305 5.72303 0
    endloop
  endfacet
  facet normal 0 0 1
    outer loop
      vertex 5.11703 -3.71774 0
      vertex 2.17693 -3.07986 0
      vertex 4.61073 -4.32976 0
    endloop
  endfacet
  facet normal 0 0 1
    outer loop
      vertex 2.18025 -2.06519 0
      vertex 2.69305 5.72303 0
      vertex 2.18025 5.92606 0
    endloop
  endfacet
  facet normal -0 0 1
    outer loop
      vertex 2.17278 -3.50076 0
      vertex 4.61073 -4.32976 0
      vertex 2.17693 -3.07986 0
    endloop
  endfacet
  facet normal 0 0 1
    outer loop
      vertex 4.61073 -4.32976 0
      vertex 2.17278 -3.50076 0
      vertex 4.03171 -4.8735 0
    endloop
  endfacet
  facet normal -0 0 1
    outer loop
      vertex 2.16696 -3.86403 0
      vertex 4.03171 -4.8735 0
      vertex 2.17278 -3.50076 0
    endloop
  endfacet
  facet normal -0 0 1
    outer loop
      vertex 2.1595 -4.16969 0
      vertex 4.03171 -4.8735 0
      vertex 2.16696 -3.86403 0
    endloop
  endfacet
  facet normal -0 0 1
    outer loop
      vertex 2.15036 -4.41771 0
      vertex 4.03171 -4.8735 0
      vertex 2.1595 -4.16969 0
    endloop
  endfacet
  facet normal 0 0 1
    outer loop
      vertex 4.03171 -4.8735 0
      vertex 2.15036 -4.41771 0
      vertex 3.3891 -5.34037 0
    endloop
  endfacet
  facet normal -0 0 1
    outer loop
      vertex 2.13957 -4.60811 0
      vertex 3.3891 -5.34037 0
      vertex 2.15036 -4.41771 0
    endloop
  endfacet
  facet normal -0 0 1
    outer loop
      vertex 2.12206 -4.76746 0
      vertex 3.3891 -5.34037 0
      vertex 2.13957 -4.60811 0
    endloop
  endfacet
  facet normal -0 0 1
    outer loop
      vertex 2.09274 -4.92233 0
      vertex 3.3891 -5.34037 0
      vertex 2.12206 -4.76746 0
    endloop
  endfacet
  facet normal 0 0 1
    outer loop
      vertex 3.3891 -5.34037 0
      vertex 2.09274 -4.92233 0
      vertex 2.69305 -5.72303 0
    endloop
  endfacet
  facet normal -0 0 1
    outer loop
      vertex 2.05164 -5.07271 0
      vertex 2.69305 -5.72303 0
      vertex 2.09274 -4.92233 0
    endloop
  endfacet
  facet normal -0 0 1
    outer loop
      vertex 1.99873 -5.21861 0
      vertex 2.69305 -5.72303 0
      vertex 2.05164 -5.07271 0
    endloop
  endfacet
  facet normal -0 0 1
    outer loop
      vertex 1.93404 -5.36003 0
      vertex 2.69305 -5.72303 0
      vertex 1.99873 -5.21861 0
    endloop
  endfacet
  facet normal -0 0 1
    outer loop
      vertex 1.85754 -5.49698 0
      vertex 2.69305 -5.72303 0
      vertex 1.93404 -5.36003 0
    endloop
  endfacet
  facet normal 0 0 1
    outer loop
      vertex 2.69305 -5.72303 0
      vertex 1.85754 -5.49698 0
      vertex 1.95453 -6.01543 0
    endloop
  endfacet
  facet normal -0 0 1
    outer loop
      vertex 1.76926 -5.62943 0
      vertex 1.95453 -6.01543 0
      vertex 1.85754 -5.49698 0
    endloop
  endfacet
  facet normal -0 0 1
    outer loop
      vertex 1.67029 -5.75389 0
      vertex 1.95453 -6.01543 0
      vertex 1.76926 -5.62943 0
    endloop
  endfacet
  facet normal -0 0 1
    outer loop
      vertex 1.56169 -5.86688 0
      vertex 1.95453 -6.01543 0
      vertex 1.67029 -5.75389 0
    endloop
  endfacet
  facet normal -0 0 1
    outer loop
      vertex 1.44345 -5.96843 0
      vertex 1.95453 -6.01543 0
      vertex 1.56169 -5.86688 0
    endloop
  endfacet
  facet normal 0 0 1
    outer loop
      vertex 1.31558 -6.05852 0
      vertex 1.95453 -6.01543 0
      vertex 1.44345 -5.96843 0
    endloop
  endfacet
  facet normal -0 0 1
    outer loop
      vertex 1.31558 -6.05852 0
      vertex 1.18519 -6.21297 0
      vertex 1.95453 -6.01543 0
    endloop
  endfacet
  facet normal -0 0 1
    outer loop
      vertex 1.17809 -6.13715 0
      vertex 1.18519 -6.21297 0
      vertex 1.31558 -6.05852 0
    endloop
  endfacet
  facet normal -0 0 1
    outer loop
      vertex 1.03094 -6.20432 0
      vertex 1.18519 -6.21297 0
      vertex 1.17809 -6.13715 0
    endloop
  endfacet
  facet normal 0 0 1
    outer loop
      vertex 1.18519 -6.21297 0
      vertex 1.03094 -6.20432 0
      vertex 0.908098 -6.24797 0
    endloop
  endfacet
  facet normal 0 0 -1
    outer loop
      vertex 0.397149 -6.31252 0
      vertex 0.874176 -6.26003 0
      vertex 0.700882 -6.30646 0
    endloop
  endfacet
  facet normal 0 0 -1
    outer loop
      vertex 0.397149 -6.31252 0
      vertex 0.700882 -6.30646 0
      vertex 0.504166 -6.34573 0
    endloop
  endfacet
  facet normal -0 0 -1
    outer loop
      vertex 0.874176 -6.26003 0
      vertex 0.397149 -6.31252 0
      vertex 0.908098 -6.24797 0
    endloop
  endfacet
  facet normal 0 0 -1
    outer loop
      vertex 0.284027 -6.37787 0
      vertex 0.397149 -6.31252 0
      vertex 0.504166 -6.34573 0
    endloop
  endfacet
  facet normal 0 0 -1
    outer loop
      vertex 0.0404816 -6.40286 0
      vertex 0.397149 -6.31252 0
      vertex 0.284027 -6.37787 0
    endloop
  endfacet
  facet normal 0 0 -1
    outer loop
      vertex -0.397149 -6.31252 0
      vertex 0.0404816 -6.40286 0
      vertex -0.226471 -6.42072 0
    endloop
  endfacet
  facet normal 0 0 -1
    outer loop
      vertex 0.0404816 -6.40286 0
      vertex -0.397149 -6.31252 0
      vertex 0.397149 -6.31252 0
    endloop
  endfacet
  facet normal 0 0 -1
    outer loop
      vertex -0.516846 -6.43143 0
      vertex -0.397149 -6.31252 0
      vertex -0.226471 -6.42072 0
    endloop
  endfacet
  facet normal 0 0 -1
    outer loop
      vertex -0.830658 -6.435 0
      vertex -0.397149 -6.31252 0
      vertex -0.516846 -6.43143 0
    endloop
  endfacet
  facet normal 0 0 -1
    outer loop
      vertex -0.830658 -6.435 0
      vertex -1.18519 -6.21297 0
      vertex -0.397149 -6.31252 0
    endloop
  endfacet
  facet normal 0 0 -1
    outer loop
      vertex -2.54761 -6.435 0
      vertex -1.18519 -6.21297 0
      vertex -0.830658 -6.435 0
    endloop
  endfacet
  facet normal -0 0 -1
    outer loop
      vertex -1.18519 -6.21297 0
      vertex -2.54761 -6.435 0
      vertex -1.95453 -6.01543 0
    endloop
  endfacet
  facet normal -0 0 -1
    outer loop
      vertex -1.95453 -6.01543 0
      vertex -2.54761 -6.435 0
      vertex -2.54761 -5.78062 0
    endloop
  endfacet
  facet normal -0 0 1
    outer loop
      vertex -1.95453 6.01543 0
      vertex -1.24561 -2.52899 0
      vertex -1.24561 6.19745 0
    endloop
  endfacet
  facet normal -0 0 1
    outer loop
      vertex -2.69305 5.72303 0
      vertex -1.24561 -2.52899 0
      vertex -1.95453 6.01543 0
    endloop
  endfacet
  facet normal -0 0 1
    outer loop
      vertex -3.3891 5.34037 0
      vertex -1.24561 -2.52899 0
      vertex -2.69305 5.72303 0
    endloop
  endfacet
  facet normal -0 0 1
    outer loop
      vertex -4.03171 4.8735 0
      vertex -1.24561 -2.52899 0
      vertex -3.3891 5.34037 0
    endloop
  endfacet
  facet normal -0 0 1
    outer loop
      vertex -4.61073 4.32976 0
      vertex -1.24561 -2.52899 0
      vertex -4.03171 4.8735 0
    endloop
  endfacet
  facet normal -0 0 1
    outer loop
      vertex -5.11703 3.71774 0
      vertex -1.24561 -2.52899 0
      vertex -4.61073 4.32976 0
    endloop
  endfacet
  facet normal -0 0 1
    outer loop
      vertex -5.54264 3.04709 0
      vertex -1.24561 -2.52899 0
      vertex -5.11703 3.71774 0
    endloop
  endfacet
  facet normal -0 0 1
    outer loop
      vertex -5.88084 2.32839 0
      vertex -1.24561 -2.52899 0
      vertex -5.54264 3.04709 0
    endloop
  endfacet
  facet normal -0 0 1
    outer loop
      vertex -6.12629 1.57296 0
      vertex -1.24561 -2.52899 0
      vertex -5.88084 2.32839 0
    endloop
  endfacet
  facet normal -0 0 1
    outer loop
      vertex -6.27512 0.792732 0
      vertex -1.24561 -2.52899 0
      vertex -6.12629 1.57296 0
    endloop
  endfacet
  facet normal -0 0 1
    outer loop
      vertex -6.325 0 0
      vertex -1.24561 -2.52899 0
      vertex -6.27512 0.792732 0
    endloop
  endfacet
  facet normal -0 -0 1
    outer loop
      vertex -6.27512 -0.792732 0
      vertex -1.24561 -2.52899 0
      vertex -6.325 0 0
    endloop
  endfacet
  facet normal -0 -0 1
    outer loop
      vertex -6.12629 -1.57296 0
      vertex -1.24561 -2.52899 0
      vertex -6.27512 -0.792732 0
    endloop
  endfacet
  facet normal -0 -0 1
    outer loop
      vertex -5.88084 -2.32839 0
      vertex -1.24561 -2.52899 0
      vertex -6.12629 -1.57296 0
    endloop
  endfacet
  facet normal 0 -0 1
    outer loop
      vertex -5.54264 -3.04709 0
      vertex -1.24561 -2.52899 0
      vertex -5.88084 -2.32839 0
    endloop
  endfacet
  facet normal 0 -0 1
    outer loop
      vertex -2.54761 -4.13206 0
      vertex -1.24561 -2.52899 0
      vertex -5.54264 -3.04709 0
    endloop
  endfacet
  facet normal 0 0 1
    outer loop
      vertex -1.24561 -2.52899 0
      vertex -2.54761 -4.13206 0
      vertex -1.24628 -2.73294 0
    endloop
  endfacet
  facet normal 0 0 1
    outer loop
      vertex -1.24628 -2.73294 0
      vertex -2.54761 -4.13206 0
      vertex -1.24828 -2.91695 0
    endloop
  endfacet
  facet normal 0 0 1
    outer loop
      vertex -1.24828 -2.91695 0
      vertex -2.54761 -4.13206 0
      vertex -1.2516 -3.08104 0
    endloop
  endfacet
  facet normal 0 -0 1
    outer loop
      vertex -2.38486 -4.144 0
      vertex -1.2516 -3.08104 0
      vertex -2.46275 -4.13853 0
    endloop
  endfacet
  facet normal 0 0 1
    outer loop
      vertex -1.2516 -3.08104 0
      vertex -2.38486 -4.144 0
      vertex -1.25627 -3.22519 0
    endloop
  endfacet
  facet normal 0 -0 1
    outer loop
      vertex -2.31396 -4.14848 0
      vertex -1.25627 -3.22519 0
      vertex -2.38486 -4.144 0
    endloop
  endfacet
  facet normal 0 -0 1
    outer loop
      vertex -2.19308 -4.15445 0
      vertex -1.25627 -3.22519 0
      vertex -2.25003 -4.15196 0
    endloop
  endfacet
  facet normal 0 0 1
    outer loop
      vertex -1.25627 -3.22519 0
      vertex -2.19308 -4.15445 0
      vertex -1.26227 -3.34941 0
    endloop
  endfacet
  facet normal 0 -0 1
    outer loop
      vertex -2.14313 -4.15593 0
      vertex -1.26227 -3.34941 0
      vertex -2.19308 -4.15445 0
    endloop
  endfacet
  facet normal 0 0 1
    outer loop
      vertex -1.26227 -3.34941 0
      vertex -2.10013 -4.15643 0
      vertex -1.26959 -3.4537 0
    endloop
  endfacet
  facet normal 0 -0 1
    outer loop
      vertex -1.99866 -4.15279 0
      vertex -1.26959 -3.4537 0
      vertex -2.10013 -4.15643 0
    endloop
  endfacet
  facet normal 0 -0 1
    outer loop
      vertex -1.90347 -4.14183 0
      vertex -1.26959 -3.4537 0
      vertex -1.99866 -4.15279 0
    endloop
  endfacet
  facet normal 0 0 1
    outer loop
      vertex -1.26959 -3.4537 0
      vertex -1.81462 -4.12357 0
      vertex -1.27826 -3.53807 0
    endloop
  endfacet
  facet normal 0 0 1
    outer loop
      vertex -1.2912 -3.61081 0
      vertex -1.81462 -4.12357 0
      vertex -1.31145 -3.68024 0
    endloop
  endfacet
  facet normal 0 0 1
    outer loop
      vertex -1.41606 -3.86856 0
      vertex -1.81462 -4.12357 0
      vertex -1.46555 -3.9247 0
    endloop
  endfacet
  facet normal 0 0 1
    outer loop
      vertex -1.65585 -4.06514 0
      vertex -1.81462 -4.12357 0
      vertex -1.73209 -4.09801 0
    endloop
  endfacet
  facet normal 0 -0 1
    outer loop
      vertex -2.69305 -5.72303 0
      vertex -2.54761 -4.13206 0
      vertex -3.3891 -5.34037 0
    endloop
  endfacet
  facet normal 0 0 1
    outer loop
      vertex -2.54761 -4.13206 0
      vertex -2.69305 -5.72303 0
      vertex -2.54761 -5.78062 0
    endloop
  endfacet
  facet normal 0 0 1
    outer loop
      vertex -1.58594 -4.02498 0
      vertex -1.81462 -4.12357 0
      vertex -1.65585 -4.06514 0
    endloop
  endfacet
  facet normal 0 0 1
    outer loop
      vertex -2.54761 -4.13206 0
      vertex -4.03171 -4.8735 0
      vertex -3.3891 -5.34037 0
    endloop
  endfacet
  facet normal 0 0 1
    outer loop
      vertex -1.52234 -3.97751 0
      vertex -1.81462 -4.12357 0
      vertex -1.58594 -4.02498 0
    endloop
  endfacet
  facet normal 0 0 1
    outer loop
      vertex -2.54761 -4.13206 0
      vertex -4.61073 -4.32976 0
      vertex -4.03171 -4.8735 0
    endloop
  endfacet
  facet normal 0 0 1
    outer loop
      vertex -1.46555 -3.9247 0
      vertex -1.81462 -4.12357 0
      vertex -1.52234 -3.97751 0
    endloop
  endfacet
  facet normal 0 0 1
    outer loop
      vertex -2.54761 -4.13206 0
      vertex -5.11703 -3.71774 0
      vertex -4.61073 -4.32976 0
    endloop
  endfacet
  facet normal 0 0 1
    outer loop
      vertex -1.37389 -3.80911 0
      vertex -1.81462 -4.12357 0
      vertex -1.41606 -3.86856 0
    endloop
  endfacet
  facet normal 0 0 1
    outer loop
      vertex -2.54761 -4.13206 0
      vertex -5.54264 -3.04709 0
      vertex -5.11703 -3.71774 0
    endloop
  endfacet
  facet normal 0 0 1
    outer loop
      vertex -1.33902 -3.74632 0
      vertex -1.81462 -4.12357 0
      vertex -1.37389 -3.80911 0
    endloop
  endfacet
  facet normal 0 -0 1
    outer loop
      vertex -2.46275 -4.13853 0
      vertex -1.2516 -3.08104 0
      vertex -2.54761 -4.13206 0
    endloop
  endfacet
  facet normal 0 0 1
    outer loop
      vertex -1.31145 -3.68024 0
      vertex -1.81462 -4.12357 0
      vertex -1.33902 -3.74632 0
    endloop
  endfacet
  facet normal 0 -0 1
    outer loop
      vertex -2.25003 -4.15196 0
      vertex -1.25627 -3.22519 0
      vertex -2.31396 -4.14848 0
    endloop
  endfacet
  facet normal 0 0 1
    outer loop
      vertex -1.27826 -3.53807 0
      vertex -1.81462 -4.12357 0
      vertex -1.2912 -3.61081 0
    endloop
  endfacet
  facet normal 0 -0 1
    outer loop
      vertex -2.10013 -4.15643 0
      vertex -1.26227 -3.34941 0
      vertex -2.14313 -4.15593 0
    endloop
  endfacet
  facet normal 0 -0 1
    outer loop
      vertex -1.81462 -4.12357 0
      vertex -1.26959 -3.4537 0
      vertex -1.90347 -4.14183 0
    endloop
  endfacet
  facet normal 0 0 -1
    outer loop
      vertex 1.95453 6.01543 0
      vertex 2.18025 6.73955 0
      vertex 2.18025 5.92606 0
    endloop
  endfacet
  facet normal 0 0 -1
    outer loop
      vertex 1.18519 6.21297 0
      vertex 2.18025 6.73955 0
      vertex 1.95453 6.01543 0
    endloop
  endfacet
  facet normal 0 0 -1
    outer loop
      vertex 0.397149 6.31252 0
      vertex 2.18025 6.73955 0
      vertex 1.18519 6.21297 0
    endloop
  endfacet
  facet normal 0 0 -1
    outer loop
      vertex -1.24561 6.73955 0
      vertex 0.397149 6.31252 0
      vertex -0.397149 6.31252 0
    endloop
  endfacet
  facet normal 0 0 -1
    outer loop
      vertex -1.24561 6.73955 0
      vertex -0.397149 6.31252 0
      vertex -1.18519 6.21297 0
    endloop
  endfacet
  facet normal 0 0 -1
    outer loop
      vertex 0.397149 6.31252 0
      vertex -1.24561 6.73955 0
      vertex 2.18025 6.73955 0
    endloop
  endfacet
  facet normal 0 0 -1
    outer loop
      vertex -1.24561 6.73955 0
      vertex -1.18519 6.21297 0
      vertex -1.24561 6.19745 0
    endloop
  endfacet
  facet normal 0 0.998757 -0.0498413
    outer loop
      vertex 0.387731 6.16281 -3
      vertex -0.397149 6.31252 0
      vertex 0.397149 6.31252 0
    endloop
  endfacet
  facet normal 0 0.998757 -0.0498413
    outer loop
      vertex -0.397149 6.31252 0
      vertex 0.387731 6.16281 -3
      vertex -0.387731 6.16281 -3
    endloop
  endfacet
  facet normal -0.683694 0.728064 -0.0498415
    outer loop
      vertex -3.93609 4.75792 -3
      vertex -4.50138 4.22708 -3
      vertex -4.03171 4.8735 0
    endloop
  endfacet
  facet normal 0.248381 0.967379 -0.0498396
    outer loop
      vertex 1.90818 5.87277 -3
      vertex 1.15708 6.06562 -3
      vertex 1.95453 6.01543 0
    endloop
  endfacet
  facet normal 0.367664 0.928622 -0.0498372
    outer loop
      vertex 2.62919 5.58731 -3
      vertex 2.18025 5.92606 0
      vertex 2.69305 5.72303 0
    endloop
  endfacet
  facet normal 0.367671 0.92862 -0.0498359
    outer loop
      vertex 2.18025 5.92606 0
      vertex 2.62919 5.58731 -3
      vertex 1.95453 6.01543 0
    endloop
  endfacet
  facet normal 0.76956 0.636627 -0.0498392
    outer loop
      vertex 4.99568 3.62957 -3
      vertex 4.61073 4.32976 0
      vertex 5.11703 3.71774 0
    endloop
  endfacet
  facet normal 0.996786 0.0627194 -0.049837
    outer loop
      vertex 6.325 0 0
      vertex 6.12631 0.773932 -3
      vertex 6.27512 0.792732 0
    endloop
  endfacet
  facet normal 0.981068 -0.187141 -0.049837
    outer loop
      vertex 6.27512 -0.792732 0
      vertex 6.12629 -1.57296 0
      vertex 6.12631 -0.773932 -3
    endloop
  endfacet
  facet normal 0.981066 -0.187152 -0.0498399
    outer loop
      vertex 6.12629 -1.57296 0
      vertex 5.981 -1.53566 -3
      vertex 6.12631 -0.773932 -3
    endloop
  endfacet
  facet normal 0.949875 -0.308631 -0.0498398
    outer loop
      vertex 6.12629 -1.57296 0
      vertex 5.74137 -2.27317 -3
      vertex 5.981 -1.53566 -3
    endloop
  endfacet
  facet normal 0.949876 -0.308628 -0.0498406
    outer loop
      vertex 5.88084 -2.32839 0
      vertex 5.74137 -2.27317 -3
      vertex 6.12629 -1.57296 0
    endloop
  endfacet
  facet normal 0.843279 -0.53516 -0.0498399
    outer loop
      vertex 5.54264 -3.04709 0
      vertex 4.99568 -3.62957 -3
      vertex 5.41119 -2.97483 -3
    endloop
  endfacet
  facet normal 0.587044 -0.80802 -0.0498388
    outer loop
      vertex 3.3891 -5.34037 0
      vertex 3.30873 -5.21372 -3
      vertex 4.03171 -4.8735 0
    endloop
  endfacet
  facet normal 0.481165 -0.875212 -0.0498389
    outer loop
      vertex 3.3891 -5.34037 0
      vertex 2.62919 -5.58731 -3
      vertex 3.30873 -5.21372 -3
    endloop
  endfacet
  facet normal -0.481158 -0.875216 -0.049837
    outer loop
      vertex -2.69305 -5.72303 0
      vertex -3.3891 -5.34037 0
      vertex -2.62919 -5.58731 -3
    endloop
  endfacet
  facet normal -0.843279 -0.53516 -0.0498399
    outer loop
      vertex -4.99568 -3.62957 -3
      vertex -5.54264 -3.04709 0
      vertex -5.41119 -2.97483 -3
    endloop
  endfacet
  facet normal -0.981068 0.187141 -0.049837
    outer loop
      vertex -6.12631 0.773932 -3
      vertex -6.27512 0.792732 0
      vertex -6.12629 1.57296 0
    endloop
  endfacet
  facet normal -0.981066 0.187152 -0.0498399
    outer loop
      vertex -5.981 1.53566 -3
      vertex -6.12631 0.773932 -3
      vertex -6.12629 1.57296 0
    endloop
  endfacet
  facet normal -0.367666 0.928621 -0.0498372
    outer loop
      vertex -2.62919 5.58731 -3
      vertex -2.69305 5.72303 0
      vertex -1.95453 6.01543 0
    endloop
  endfacet
  facet normal -0.949875 0.308631 -0.0498398
    outer loop
      vertex -5.981 1.53566 -3
      vertex -6.12629 1.57296 0
      vertex -5.74137 2.27317 -3
    endloop
  endfacet
  facet normal -0.949876 0.308628 -0.0498406
    outer loop
      vertex -5.74137 2.27317 -3
      vertex -6.12629 1.57296 0
      vertex -5.88084 2.32839 0
    endloop
  endfacet
  facet normal -0.843279 0.53516 -0.0498399
    outer loop
      vertex -5.41119 2.97483 -3
      vertex -5.54264 3.04709 0
      vertex -4.99568 3.62957 -3
    endloop
  endfacet
  facet normal 0.248389 0.967377 -0.0498417
    outer loop
      vertex 1.95453 6.01543 0
      vertex 1.15708 6.06562 -3
      vertex 1.18519 6.21297 0
    endloop
  endfacet
  facet normal 0.125174 0.990882 -0.0498417
    outer loop
      vertex 1.15708 6.06562 -3
      vertex 0.397149 6.31252 0
      vertex 1.18519 6.21297 0
    endloop
  endfacet
  facet normal 0.481158 0.875216 -0.049837
    outer loop
      vertex 3.3891 5.34037 0
      vertex 2.62919 5.58731 -3
      vertex 2.69305 5.72303 0
    endloop
  endfacet
  facet normal 0.367658 0.928625 -0.0498395
    outer loop
      vertex 2.62919 5.58731 -3
      vertex 1.90818 5.87277 -3
      vertex 1.95453 6.01543 0
    endloop
  endfacet
  facet normal 0.949876 0.308628 -0.0498406
    outer loop
      vertex 6.12629 1.57296 0
      vertex 5.74137 2.27317 -3
      vertex 5.88084 2.32839 0
    endloop
  endfacet
  facet normal 0.843277 0.535163 -0.049839
    outer loop
      vertex 5.54264 3.04709 0
      vertex 4.99568 3.62957 -3
      vertex 5.11703 3.71774 0
    endloop
  endfacet
  facet normal 0.903701 0.425254 -0.0498401
    outer loop
      vertex 5.74137 2.27317 -3
      vertex 5.41119 2.97483 -3
      vertex 5.54264 3.04709 0
    endloop
  endfacet
  facet normal 0.996787 -0.0627103 -0.0498393
    outer loop
      vertex 6.325 0 0
      vertex 6.12631 -0.773932 -3
      vertex 6.175 0 -3
    endloop
  endfacet
  facet normal 0.76956 -0.636627 -0.0498392
    outer loop
      vertex 5.11703 -3.71774 0
      vertex 4.61073 -4.32976 0
      vertex 4.99568 -3.62957 -3
    endloop
  endfacet
  facet normal 0.843277 -0.535163 -0.049839
    outer loop
      vertex 5.11703 -3.71774 0
      vertex 4.99568 -3.62957 -3
      vertex 5.54264 -3.04709 0
    endloop
  endfacet
  facet normal 0.903701 -0.425254 -0.0498401
    outer loop
      vertex 5.54264 -3.04709 0
      vertex 5.41119 -2.97483 -3
      vertex 5.74137 -2.27317 -3
    endloop
  endfacet
  facet normal 0.367658 -0.928625 -0.0498395
    outer loop
      vertex 1.95453 -6.01543 0
      vertex 1.90818 -5.87277 -3
      vertex 2.62919 -5.58731 -3
    endloop
  endfacet
  facet normal 0.125182 -0.990881 -0.0498397
    outer loop
      vertex 1.15708 -6.06562 -3
      vertex 0.908098 -6.24797 0
      vertex 0.397149 -6.31252 0
    endloop
  endfacet
  facet normal 0.12516 -0.990884 -0.0498417
    outer loop
      vertex 0.908098 -6.24797 0
      vertex 1.15708 -6.06562 -3
      vertex 1.18519 -6.21297 0
    endloop
  endfacet
  facet normal 0.248389 -0.967377 -0.0498417
    outer loop
      vertex 1.18519 -6.21297 0
      vertex 1.15708 -6.06562 -3
      vertex 1.95453 -6.01543 0
    endloop
  endfacet
  facet normal 0.125176 -0.990882 -0.0498413
    outer loop
      vertex 0.397149 -6.31252 0
      vertex 0.387731 -6.16281 -3
      vertex 1.15708 -6.06562 -3
    endloop
  endfacet
  facet normal 0.481158 -0.875216 -0.049837
    outer loop
      vertex 2.69305 -5.72303 0
      vertex 2.62919 -5.58731 -3
      vertex 3.3891 -5.34037 0
    endloop
  endfacet
  facet normal 0.587052 -0.808014 -0.0498414
    outer loop
      vertex 4.03171 -4.8735 0
      vertex 3.30873 -5.21372 -3
      vertex 3.93609 -4.75792 -3
    endloop
  endfacet
  facet normal 0 0 -1
    outer loop
      vertex 6.12631 -0.773932 -3
      vertex 6.12631 0.773932 -3
      vertex 6.175 0 -3
    endloop
  endfacet
  facet normal 0 0 -1
    outer loop
      vertex 5.981 -1.53566 -3
      vertex 6.12631 0.773932 -3
      vertex 6.12631 -0.773932 -3
    endloop
  endfacet
  facet normal 0 0 -1
    outer loop
      vertex 5.981 -1.53566 -3
      vertex 5.981 1.53566 -3
      vertex 6.12631 0.773932 -3
    endloop
  endfacet
  facet normal 0 0 -1
    outer loop
      vertex 5.74137 -2.27317 -3
      vertex 5.981 1.53566 -3
      vertex 5.981 -1.53566 -3
    endloop
  endfacet
  facet normal 0 0 -1
    outer loop
      vertex 5.74137 -2.27317 -3
      vertex 5.74137 2.27317 -3
      vertex 5.981 1.53566 -3
    endloop
  endfacet
  facet normal 0 0 -1
    outer loop
      vertex 5.41119 -2.97483 -3
      vertex 5.74137 2.27317 -3
      vertex 5.74137 -2.27317 -3
    endloop
  endfacet
  facet normal 0 0 -1
    outer loop
      vertex 5.41119 -2.97483 -3
      vertex 5.41119 2.97483 -3
      vertex 5.74137 2.27317 -3
    endloop
  endfacet
  facet normal 0 0 -1
    outer loop
      vertex 4.99568 -3.62957 -3
      vertex 5.41119 2.97483 -3
      vertex 5.41119 -2.97483 -3
    endloop
  endfacet
  facet normal 0 0 -1
    outer loop
      vertex 4.99568 -3.62957 -3
      vertex 4.99568 3.62957 -3
      vertex 5.41119 2.97483 -3
    endloop
  endfacet
  facet normal 0 0 -1
    outer loop
      vertex 4.50138 -4.22708 -3
      vertex 4.99568 3.62957 -3
      vertex 4.99568 -3.62957 -3
    endloop
  endfacet
  facet normal 0 0 -1
    outer loop
      vertex 4.50138 -4.22708 -3
      vertex 4.50138 4.22708 -3
      vertex 4.99568 3.62957 -3
    endloop
  endfacet
  facet normal 0 0 -1
    outer loop
      vertex 3.93609 -4.75792 -3
      vertex 4.50138 4.22708 -3
      vertex 4.50138 -4.22708 -3
    endloop
  endfacet
  facet normal 0 0 -1
    outer loop
      vertex 3.93609 -4.75792 -3
      vertex 3.93609 4.75792 -3
      vertex 4.50138 4.22708 -3
    endloop
  endfacet
  facet normal 0 0 -1
    outer loop
      vertex 3.30873 -5.21372 -3
      vertex 3.93609 4.75792 -3
      vertex 3.93609 -4.75792 -3
    endloop
  endfacet
  facet normal 0 0 -1
    outer loop
      vertex 3.30873 -5.21372 -3
      vertex 3.30873 5.21372 -3
      vertex 3.93609 4.75792 -3
    endloop
  endfacet
  facet normal 0 0 -1
    outer loop
      vertex 2.62919 -5.58731 -3
      vertex 3.30873 5.21372 -3
      vertex 3.30873 -5.21372 -3
    endloop
  endfacet
  facet normal 0 0 -1
    outer loop
      vertex 2.62919 -5.58731 -3
      vertex 2.62919 5.58731 -3
      vertex 3.30873 5.21372 -3
    endloop
  endfacet
  facet normal 0 0 -1
    outer loop
      vertex 1.90818 -5.87277 -3
      vertex 2.62919 5.58731 -3
      vertex 2.62919 -5.58731 -3
    endloop
  endfacet
  facet normal 0 0 -1
    outer loop
      vertex 1.90818 -5.87277 -3
      vertex 1.90818 5.87277 -3
      vertex 2.62919 5.58731 -3
    endloop
  endfacet
  facet normal 0 0 -1
    outer loop
      vertex 1.15708 -6.06562 -3
      vertex 1.90818 5.87277 -3
      vertex 1.90818 -5.87277 -3
    endloop
  endfacet
  facet normal 0 0 -1
    outer loop
      vertex 1.15708 -6.06562 -3
      vertex 1.15708 6.06562 -3
      vertex 1.90818 5.87277 -3
    endloop
  endfacet
  facet normal 0 0 -1
    outer loop
      vertex 0.387731 -6.16281 -3
      vertex 1.15708 6.06562 -3
      vertex 1.15708 -6.06562 -3
    endloop
  endfacet
  facet normal 0 0 -1
    outer loop
      vertex 0.387731 -6.16281 -3
      vertex 0.387731 6.16281 -3
      vertex 1.15708 6.06562 -3
    endloop
  endfacet
  facet normal 0 0 -1
    outer loop
      vertex -0.387731 -6.16281 -3
      vertex 0.387731 6.16281 -3
      vertex 0.387731 -6.16281 -3
    endloop
  endfacet
  facet normal 0 0 -1
    outer loop
      vertex -0.387731 -6.16281 -3
      vertex -0.387731 6.16281 -3
      vertex 0.387731 6.16281 -3
    endloop
  endfacet
  facet normal 0 0 -1
    outer loop
      vertex -1.15708 -6.06562 -3
      vertex -0.387731 6.16281 -3
      vertex -0.387731 -6.16281 -3
    endloop
  endfacet
  facet normal 0 0 -1
    outer loop
      vertex -1.15708 -6.06562 -3
      vertex -1.15708 6.06562 -3
      vertex -0.387731 6.16281 -3
    endloop
  endfacet
  facet normal 0 0 -1
    outer loop
      vertex -1.90818 -5.87277 -3
      vertex -1.15708 6.06562 -3
      vertex -1.15708 -6.06562 -3
    endloop
  endfacet
  facet normal 0 0 -1
    outer loop
      vertex -1.90818 -5.87277 -3
      vertex -1.90818 5.87277 -3
      vertex -1.15708 6.06562 -3
    endloop
  endfacet
  facet normal 0 0 -1
    outer loop
      vertex -2.62919 -5.58731 -3
      vertex -1.90818 5.87277 -3
      vertex -1.90818 -5.87277 -3
    endloop
  endfacet
  facet normal 0 0 -1
    outer loop
      vertex -2.62919 -5.58731 -3
      vertex -2.62919 5.58731 -3
      vertex -1.90818 5.87277 -3
    endloop
  endfacet
  facet normal 0 0 -1
    outer loop
      vertex -3.30873 -5.21372 -3
      vertex -2.62919 5.58731 -3
      vertex -2.62919 -5.58731 -3
    endloop
  endfacet
  facet normal 0 0 -1
    outer loop
      vertex -3.30873 -5.21372 -3
      vertex -3.30873 5.21372 -3
      vertex -2.62919 5.58731 -3
    endloop
  endfacet
  facet normal 0 0 -1
    outer loop
      vertex -3.93609 -4.75792 -3
      vertex -3.30873 5.21372 -3
      vertex -3.30873 -5.21372 -3
    endloop
  endfacet
  facet normal 0 0 -1
    outer loop
      vertex -3.93609 -4.75792 -3
      vertex -3.93609 4.75792 -3
      vertex -3.30873 5.21372 -3
    endloop
  endfacet
  facet normal 0 0 -1
    outer loop
      vertex -4.50138 -4.22708 -3
      vertex -3.93609 4.75792 -3
      vertex -3.93609 -4.75792 -3
    endloop
  endfacet
  facet normal 0 0 -1
    outer loop
      vertex -4.50138 -4.22708 -3
      vertex -4.50138 4.22708 -3
      vertex -3.93609 4.75792 -3
    endloop
  endfacet
  facet normal 0 0 -1
    outer loop
      vertex -4.99568 -3.62957 -3
      vertex -4.50138 4.22708 -3
      vertex -4.50138 -4.22708 -3
    endloop
  endfacet
  facet normal 0 0 -1
    outer loop
      vertex -4.99568 -3.62957 -3
      vertex -4.99568 3.62957 -3
      vertex -4.50138 4.22708 -3
    endloop
  endfacet
  facet normal 0 0 -1
    outer loop
      vertex -5.41119 -2.97483 -3
      vertex -4.99568 3.62957 -3
      vertex -4.99568 -3.62957 -3
    endloop
  endfacet
  facet normal 0 0 -1
    outer loop
      vertex -5.41119 -2.97483 -3
      vertex -5.41119 2.97483 -3
      vertex -4.99568 3.62957 -3
    endloop
  endfacet
  facet normal 0 0 -1
    outer loop
      vertex -5.74137 -2.27317 -3
      vertex -5.41119 2.97483 -3
      vertex -5.41119 -2.97483 -3
    endloop
  endfacet
  facet normal 0 0 -1
    outer loop
      vertex -5.74137 -2.27317 -3
      vertex -5.74137 2.27317 -3
      vertex -5.41119 2.97483 -3
    endloop
  endfacet
  facet normal 0 0 -1
    outer loop
      vertex -5.981 -1.53566 -3
      vertex -5.74137 2.27317 -3
      vertex -5.74137 -2.27317 -3
    endloop
  endfacet
  facet normal 0 0 -1
    outer loop
      vertex -5.981 -1.53566 -3
      vertex -5.981 1.53566 -3
      vertex -5.74137 2.27317 -3
    endloop
  endfacet
  facet normal 0 0 -1
    outer loop
      vertex -6.12631 -0.773932 -3
      vertex -5.981 1.53566 -3
      vertex -5.981 -1.53566 -3
    endloop
  endfacet
  facet normal 0 0 -1
    outer loop
      vertex -6.12631 -0.773932 -3
      vertex -6.12631 0.773932 -3
      vertex -5.981 1.53566 -3
    endloop
  endfacet
  facet normal 0 -0 -1
    outer loop
      vertex -6.12631 0.773932 -3
      vertex -6.12631 -0.773932 -3
      vertex -6.175 0 -3
    endloop
  endfacet
  facet normal -0.367701 -0.928607 -0.0498373
    outer loop
      vertex -2.62919 -5.58731 -3
      vertex -2.54761 -5.78062 0
      vertex -2.69305 -5.72303 0
    endloop
  endfacet
  facet normal -0.367658 -0.928625 -0.0498396
    outer loop
      vertex -2.54761 -5.78062 0
      vertex -2.62919 -5.58731 -3
      vertex -1.95453 -6.01543 0
    endloop
  endfacet
  facet normal -0.683694 -0.728064 -0.0498415
    outer loop
      vertex -4.03171 -4.8735 0
      vertex -4.50138 -4.22708 -3
      vertex -3.93609 -4.75792 -3
    endloop
  endfacet
  facet normal -0.9037 -0.425256 -0.0498405
    outer loop
      vertex -5.54264 -3.04709 0
      vertex -5.88084 -2.32839 0
      vertex -5.74137 -2.27317 -3
    endloop
  endfacet
  facet normal -0.949876 -0.308628 -0.0498406
    outer loop
      vertex -5.88084 -2.32839 0
      vertex -6.12629 -1.57296 0
      vertex -5.74137 -2.27317 -3
    endloop
  endfacet
  facet normal -0.981066 -0.187152 -0.0498399
    outer loop
      vertex -6.12629 -1.57296 0
      vertex -6.12631 -0.773932 -3
      vertex -5.981 -1.53566 -3
    endloop
  endfacet
  facet normal -0.125176 0.990882 -0.0498413
    outer loop
      vertex -0.387731 6.16281 -3
      vertex -1.15708 6.06562 -3
      vertex -0.397149 6.31252 0
    endloop
  endfacet
  facet normal -0.481158 0.875216 -0.049837
    outer loop
      vertex -2.62919 5.58731 -3
      vertex -3.3891 5.34037 0
      vertex -2.69305 5.72303 0
    endloop
  endfacet
  facet normal -0.996787 0.0627103 -0.0498393
    outer loop
      vertex -6.175 0 -3
      vertex -6.325 0 0
      vertex -6.12631 0.773932 -3
    endloop
  endfacet
  facet normal -0.76956 0.636627 -0.0498392
    outer loop
      vertex -4.99568 3.62957 -3
      vertex -5.11703 3.71774 0
      vertex -4.61073 4.32976 0
    endloop
  endfacet
  facet normal -0.843277 0.535163 -0.049839
    outer loop
      vertex -4.99568 3.62957 -3
      vertex -5.54264 3.04709 0
      vertex -5.11703 3.71774 0
    endloop
  endfacet
  facet normal -0.769558 0.636629 -0.0498401
    outer loop
      vertex -4.50138 4.22708 -3
      vertex -4.99568 3.62957 -3
      vertex -4.61073 4.32976 0
    endloop
  endfacet
  facet normal -0.683699 0.72806 -0.0498399
    outer loop
      vertex -4.50138 4.22708 -3
      vertex -4.61073 4.32976 0
      vertex -4.03171 4.8735 0
    endloop
  endfacet
  facet normal -0.903701 0.425254 -0.0498401
    outer loop
      vertex -5.41119 2.97483 -3
      vertex -5.74137 2.27317 -3
      vertex -5.54264 3.04709 0
    endloop
  endfacet
  facet normal 0.481165 0.875212 -0.0498389
    outer loop
      vertex 3.30873 5.21372 -3
      vertex 2.62919 5.58731 -3
      vertex 3.3891 5.34037 0
    endloop
  endfacet
  facet normal 0.587044 0.80802 -0.0498388
    outer loop
      vertex 4.03171 4.8735 0
      vertex 3.30873 5.21372 -3
      vertex 3.3891 5.34037 0
    endloop
  endfacet
  facet normal 0.769558 0.636629 -0.0498401
    outer loop
      vertex 4.99568 3.62957 -3
      vertex 4.50138 4.22708 -3
      vertex 4.61073 4.32976 0
    endloop
  endfacet
  facet normal 0.949875 0.308631 -0.0498398
    outer loop
      vertex 5.981 1.53566 -3
      vertex 5.74137 2.27317 -3
      vertex 6.12629 1.57296 0
    endloop
  endfacet
  facet normal 0.981066 0.187152 -0.0498399
    outer loop
      vertex 6.12631 0.773932 -3
      vertex 5.981 1.53566 -3
      vertex 6.12629 1.57296 0
    endloop
  endfacet
  facet normal 0.683694 -0.728064 -0.0498415
    outer loop
      vertex 4.03171 -4.8735 0
      vertex 3.93609 -4.75792 -3
      vertex 4.50138 -4.22708 -3
    endloop
  endfacet
  facet normal -0.981068 -0.187141 -0.049837
    outer loop
      vertex -6.12629 -1.57296 0
      vertex -6.27512 -0.792732 0
      vertex -6.12631 -0.773932 -3
    endloop
  endfacet
  facet normal -0.996786 -0.0627194 -0.049837
    outer loop
      vertex -6.27512 -0.792732 0
      vertex -6.325 0 0
      vertex -6.12631 -0.773932 -3
    endloop
  endfacet
  facet normal -0.481165 -0.875212 -0.0498389
    outer loop
      vertex -2.62919 -5.58731 -3
      vertex -3.3891 -5.34037 0
      vertex -3.30873 -5.21372 -3
    endloop
  endfacet
  facet normal -0.587044 -0.80802 -0.0498388
    outer loop
      vertex -3.3891 -5.34037 0
      vertex -4.03171 -4.8735 0
      vertex -3.30873 -5.21372 -3
    endloop
  endfacet
  facet normal -0.587052 -0.808014 -0.0498414
    outer loop
      vertex -3.30873 -5.21372 -3
      vertex -4.03171 -4.8735 0
      vertex -3.93609 -4.75792 -3
    endloop
  endfacet
  facet normal -0.843277 -0.535163 -0.049839
    outer loop
      vertex -5.11703 -3.71774 0
      vertex -5.54264 -3.04709 0
      vertex -4.99568 -3.62957 -3
    endloop
  endfacet
  facet normal -0.76956 -0.636627 -0.0498392
    outer loop
      vertex -4.61073 -4.32976 0
      vertex -5.11703 -3.71774 0
      vertex -4.99568 -3.62957 -3
    endloop
  endfacet
  facet normal -0.903701 -0.425254 -0.0498401
    outer loop
      vertex -5.54264 -3.04709 0
      vertex -5.74137 -2.27317 -3
      vertex -5.41119 -2.97483 -3
    endloop
  endfacet
  facet normal -0.125174 0.990882 -0.0498417
    outer loop
      vertex -1.15708 6.06562 -3
      vertex -1.18519 6.21297 0
      vertex -0.397149 6.31252 0
    endloop
  endfacet
  facet normal -0.248483 0.967353 -0.0498414
    outer loop
      vertex -1.15708 6.06562 -3
      vertex -1.24561 6.19745 0
      vertex -1.18519 6.21297 0
    endloop
  endfacet
  facet normal -0.248381 0.967379 -0.0498396
    outer loop
      vertex -1.24561 6.19745 0
      vertex -1.15708 6.06562 -3
      vertex -1.95453 6.01543 0
    endloop
  endfacet
  facet normal -0.587044 0.80802 -0.0498388
    outer loop
      vertex -3.30873 5.21372 -3
      vertex -4.03171 4.8735 0
      vertex -3.3891 5.34037 0
    endloop
  endfacet
  facet normal -0.481165 0.875212 -0.0498389
    outer loop
      vertex -3.30873 5.21372 -3
      vertex -3.3891 5.34037 0
      vertex -2.62919 5.58731 -3
    endloop
  endfacet
  facet normal 0.587052 0.808014 -0.0498414
    outer loop
      vertex 3.93609 4.75792 -3
      vertex 3.30873 5.21372 -3
      vertex 4.03171 4.8735 0
    endloop
  endfacet
  facet normal 0.683694 0.728064 -0.0498415
    outer loop
      vertex 4.50138 4.22708 -3
      vertex 3.93609 4.75792 -3
      vertex 4.03171 4.8735 0
    endloop
  endfacet
  facet normal 0.843279 0.53516 -0.0498399
    outer loop
      vertex 5.41119 2.97483 -3
      vertex 4.99568 3.62957 -3
      vertex 5.54264 3.04709 0
    endloop
  endfacet
  facet normal -0.949875 -0.308631 -0.0498398
    outer loop
      vertex -5.74137 -2.27317 -3
      vertex -6.12629 -1.57296 0
      vertex -5.981 -1.53566 -3
    endloop
  endfacet
  facet normal -0.125176 -0.990882 -0.0498413
    outer loop
      vertex -0.397149 -6.31252 0
      vertex -1.15708 -6.06562 -3
      vertex -0.387731 -6.16281 -3
    endloop
  endfacet
  facet normal -0.367658 0.928625 -0.0498395
    outer loop
      vertex -1.90818 5.87277 -3
      vertex -2.62919 5.58731 -3
      vertex -1.95453 6.01543 0
    endloop
  endfacet
  facet normal -0.248381 0.967379 -0.0498396
    outer loop
      vertex -1.90818 5.87277 -3
      vertex -1.95453 6.01543 0
      vertex -1.15708 6.06562 -3
    endloop
  endfacet
  facet normal -0.587052 0.808014 -0.0498414
    outer loop
      vertex -3.93609 4.75792 -3
      vertex -4.03171 4.8735 0
      vertex -3.30873 5.21372 -3
    endloop
  endfacet
  facet normal -0.248389 -0.967377 -0.0498417
    outer loop
      vertex -1.18519 -6.21297 0
      vertex -1.95453 -6.01543 0
      vertex -1.15708 -6.06562 -3
    endloop
  endfacet
  facet normal -0.125174 -0.990882 -0.0498417
    outer loop
      vertex -0.397149 -6.31252 0
      vertex -1.18519 -6.21297 0
      vertex -1.15708 -6.06562 -3
    endloop
  endfacet
  facet normal -0.248381 -0.967379 -0.0498396
    outer loop
      vertex -1.15708 -6.06562 -3
      vertex -1.95453 -6.01543 0
      vertex -1.90818 -5.87277 -3
    endloop
  endfacet
  facet normal -0.367658 -0.928625 -0.0498395
    outer loop
      vertex -1.95453 -6.01543 0
      vertex -2.62919 -5.58731 -3
      vertex -1.90818 -5.87277 -3
    endloop
  endfacet
  facet normal -0 0 1
    outer loop
      vertex -1.24561 6.73955 2
      vertex 2.18025 -2.06519 2
      vertex 2.18025 6.73955 2
    endloop
  endfacet
  facet normal 0 0 1
    outer loop
      vertex 2.18025 -2.06519 2
      vertex -1.24561 -2.52899 2
      vertex 2.17943 -2.60133 2
    endloop
  endfacet
  facet normal 0 0 1
    outer loop
      vertex -1.24628 -2.73294 2
      vertex 2.17943 -2.60133 2
      vertex -1.24561 -2.52899 2
    endloop
  endfacet
  facet normal 0 0 1
    outer loop
      vertex 2.17943 -2.60133 2
      vertex -1.24628 -2.73294 2
      vertex 2.17693 -3.07986 2
    endloop
  endfacet
  facet normal -0 0 1
    outer loop
      vertex -1.24828 -2.91695 2
      vertex 2.17693 -3.07986 2
      vertex -1.24628 -2.73294 2
    endloop
  endfacet
  facet normal 0 0 1
    outer loop
      vertex -1.2516 -3.08104 2
      vertex 2.17693 -3.07986 2
      vertex -1.24828 -2.91695 2
    endloop
  endfacet
  facet normal 0 0 1
    outer loop
      vertex -1.25627 -3.22519 2
      vertex 2.17693 -3.07986 2
      vertex -1.2516 -3.08104 2
    endloop
  endfacet
  facet normal 0 0 1
    outer loop
      vertex 2.17693 -3.07986 2
      vertex -1.25627 -3.22519 2
      vertex 2.17278 -3.50076 2
    endloop
  endfacet
  facet normal -0 0 1
    outer loop
      vertex -1.26227 -3.34941 2
      vertex 2.17278 -3.50076 2
      vertex -1.25627 -3.22519 2
    endloop
  endfacet
  facet normal -0 0 1
    outer loop
      vertex -1.26959 -3.4537 2
      vertex 2.17278 -3.50076 2
      vertex -1.26227 -3.34941 2
    endloop
  endfacet
  facet normal 0 0 1
    outer loop
      vertex 2.17278 -3.50076 2
      vertex -1.26959 -3.4537 2
      vertex 2.16696 -3.86403 2
    endloop
  endfacet
  facet normal -0 0 1
    outer loop
      vertex -1.27826 -3.53807 2
      vertex 2.16696 -3.86403 2
      vertex -1.26959 -3.4537 2
    endloop
  endfacet
  facet normal -0 0 1
    outer loop
      vertex -1.2912 -3.61081 2
      vertex 2.16696 -3.86403 2
      vertex -1.27826 -3.53807 2
    endloop
  endfacet
  facet normal 0 0 1
    outer loop
      vertex 2.16696 -3.86403 2
      vertex -1.2912 -3.61081 2
      vertex 2.1595 -4.16969 2
    endloop
  endfacet
  facet normal -0 0 1
    outer loop
      vertex -1.31145 -3.68024 2
      vertex 2.1595 -4.16969 2
      vertex -1.2912 -3.61081 2
    endloop
  endfacet
  facet normal 0 0 1
    outer loop
      vertex 2.1595 -4.16969 2
      vertex -1.31145 -3.68024 2
      vertex 2.15036 -4.41771 2
    endloop
  endfacet
  facet normal 0 0 1
    outer loop
      vertex 2.15036 -4.41771 2
      vertex -1.31145 -3.68024 2
      vertex 2.13957 -4.60811 2
    endloop
  endfacet
  facet normal -0 0 1
    outer loop
      vertex -1.33902 -3.74632 2
      vertex 2.13957 -4.60811 2
      vertex -1.31145 -3.68024 2
    endloop
  endfacet
  facet normal 0 0 1
    outer loop
      vertex 2.13957 -4.60811 2
      vertex -1.33902 -3.74632 2
      vertex 2.12206 -4.76746 2
    endloop
  endfacet
  facet normal 0 0 1
    outer loop
      vertex 2.12206 -4.76746 2
      vertex -1.33902 -3.74632 2
      vertex 2.09274 -4.92233 2
    endloop
  endfacet
  facet normal 0 0 1
    outer loop
      vertex 2.09274 -4.92233 2
      vertex -1.33902 -3.74632 2
      vertex 2.05164 -5.07271 2
    endloop
  endfacet
  facet normal 0 0 1
    outer loop
      vertex 2.05164 -5.07271 2
      vertex -1.33902 -3.74632 2
      vertex 1.99873 -5.21861 2
    endloop
  endfacet
  facet normal 0 0 1
    outer loop
      vertex 1.99873 -5.21861 2
      vertex -1.33902 -3.74632 2
      vertex 1.93404 -5.36003 2
    endloop
  endfacet
  facet normal 0 -0 1
    outer loop
      vertex 0.874176 -6.26003 2
      vertex 1.93404 -5.36003 2
      vertex -1.33902 -3.74632 2
    endloop
  endfacet
  facet normal 0 0 1
    outer loop
      vertex 1.93404 -5.36003 2
      vertex 0.874176 -6.26003 2
      vertex 1.85754 -5.49698 2
    endloop
  endfacet
  facet normal 0 0 1
    outer loop
      vertex 1.85754 -5.49698 2
      vertex 0.874176 -6.26003 2
      vertex 1.76926 -5.62943 2
    endloop
  endfacet
  facet normal 0 -0 1
    outer loop
      vertex 1.03094 -6.20432 2
      vertex 1.76926 -5.62943 2
      vertex 0.874176 -6.26003 2
    endloop
  endfacet
  facet normal 0 0 1
    outer loop
      vertex 1.67029 -5.75389 2
      vertex 1.03094 -6.20432 2
      vertex 1.56169 -5.86688 2
    endloop
  endfacet
  facet normal 0 0 1
    outer loop
      vertex 2.18025 -2.06519 2
      vertex -1.24561 6.73955 2
      vertex -1.24561 -2.52899 2
    endloop
  endfacet
  facet normal 0 0 1
    outer loop
      vertex 1.56169 -5.86688 2
      vertex 1.31558 -6.05852 2
      vertex 1.44345 -5.96843 2
    endloop
  endfacet
  facet normal 0 0 1
    outer loop
      vertex 1.56169 -5.86688 2
      vertex 1.17809 -6.13715 2
      vertex 1.31558 -6.05852 2
    endloop
  endfacet
  facet normal 0 0 1
    outer loop
      vertex 1.56169 -5.86688 2
      vertex 1.03094 -6.20432 2
      vertex 1.17809 -6.13715 2
    endloop
  endfacet
  facet normal 0 0 1
    outer loop
      vertex 1.76926 -5.62943 2
      vertex 1.03094 -6.20432 2
      vertex 1.67029 -5.75389 2
    endloop
  endfacet
  facet normal 0 0 1
    outer loop
      vertex 0.874176 -6.26003 2
      vertex -1.33902 -3.74632 2
      vertex 0.700882 -6.30646 2
    endloop
  endfacet
  facet normal 0 0 1
    outer loop
      vertex 0.700882 -6.30646 2
      vertex -1.33902 -3.74632 2
      vertex 0.504166 -6.34573 2
    endloop
  endfacet
  facet normal -0 0 1
    outer loop
      vertex -1.37389 -3.80911 2
      vertex 0.504166 -6.34573 2
      vertex -1.33902 -3.74632 2
    endloop
  endfacet
  facet normal 0 0 1
    outer loop
      vertex 0.504166 -6.34573 2
      vertex -1.37389 -3.80911 2
      vertex 0.284027 -6.37787 2
    endloop
  endfacet
  facet normal 0 0 1
    outer loop
      vertex 0.284027 -6.37787 2
      vertex -1.37389 -3.80911 2
      vertex 0.0404816 -6.40286 2
    endloop
  endfacet
  facet normal -0 0 1
    outer loop
      vertex -1.41606 -3.86856 2
      vertex 0.0404816 -6.40286 2
      vertex -1.37389 -3.80911 2
    endloop
  endfacet
  facet normal 0 0 1
    outer loop
      vertex 0.0404816 -6.40286 2
      vertex -1.41606 -3.86856 2
      vertex -0.226471 -6.42072 2
    endloop
  endfacet
  facet normal -0 0 1
    outer loop
      vertex -1.46555 -3.9247 2
      vertex -0.226471 -6.42072 2
      vertex -1.41606 -3.86856 2
    endloop
  endfacet
  facet normal 0 0 1
    outer loop
      vertex -0.226471 -6.42072 2
      vertex -1.46555 -3.9247 2
      vertex -0.516846 -6.43143 2
    endloop
  endfacet
  facet normal -0 0 1
    outer loop
      vertex -1.52234 -3.97751 2
      vertex -0.516846 -6.43143 2
      vertex -1.46555 -3.9247 2
    endloop
  endfacet
  facet normal 0 0 1
    outer loop
      vertex -0.516846 -6.43143 2
      vertex -1.52234 -3.97751 2
      vertex -0.830658 -6.435 2
    endloop
  endfacet
  facet normal -0 0 1
    outer loop
      vertex -1.58594 -4.02498 2
      vertex -0.830658 -6.435 2
      vertex -1.52234 -3.97751 2
    endloop
  endfacet
  facet normal -0 0 1
    outer loop
      vertex -1.65585 -4.06514 2
      vertex -0.830658 -6.435 2
      vertex -1.58594 -4.02498 2
    endloop
  endfacet
  facet normal -0 0 1
    outer loop
      vertex -1.73209 -4.09801 2
      vertex -0.830658 -6.435 2
      vertex -1.65585 -4.06514 2
    endloop
  endfacet
  facet normal -0 0 1
    outer loop
      vertex -1.81462 -4.12357 2
      vertex -0.830658 -6.435 2
      vertex -1.73209 -4.09801 2
    endloop
  endfacet
  facet normal -0 0 1
    outer loop
      vertex -1.90347 -4.14183 2
      vertex -0.830658 -6.435 2
      vertex -1.81462 -4.12357 2
    endloop
  endfacet
  facet normal 0 0 1
    outer loop
      vertex -2.54761 -6.435 2
      vertex -1.90347 -4.14183 2
      vertex -1.99866 -4.15279 2
    endloop
  endfacet
  facet normal 0 0 1
    outer loop
      vertex -2.54761 -6.435 2
      vertex -1.99866 -4.15279 2
      vertex -2.10013 -4.15643 2
    endloop
  endfacet
  facet normal 0 0 1
    outer loop
      vertex -2.54761 -6.435 2
      vertex -2.10013 -4.15643 2
      vertex -2.14313 -4.15593 2
    endloop
  endfacet
  facet normal 0 0 1
    outer loop
      vertex -2.54761 -6.435 2
      vertex -2.14313 -4.15593 2
      vertex -2.19308 -4.15445 2
    endloop
  endfacet
  facet normal 0 0 1
    outer loop
      vertex -2.54761 -6.435 2
      vertex -2.19308 -4.15445 2
      vertex -2.25003 -4.15196 2
    endloop
  endfacet
  facet normal 0 0 1
    outer loop
      vertex -2.54761 -6.435 2
      vertex -2.25003 -4.15196 2
      vertex -2.31396 -4.14848 2
    endloop
  endfacet
  facet normal 0 0 1
    outer loop
      vertex -2.54761 -6.435 2
      vertex -2.31396 -4.14848 2
      vertex -2.38486 -4.144 2
    endloop
  endfacet
  facet normal 0 0 1
    outer loop
      vertex -2.54761 -6.435 2
      vertex -2.38486 -4.144 2
      vertex -2.46275 -4.13853 2
    endloop
  endfacet
  facet normal 0 0 1
    outer loop
      vertex -2.54761 -6.435 2
      vertex -2.46275 -4.13853 2
      vertex -2.54761 -4.13206 2
    endloop
  endfacet
  facet normal 0 0 1
    outer loop
      vertex -1.90347 -4.14183 2
      vertex -2.54761 -6.435 2
      vertex -0.830658 -6.435 2
    endloop
  endfacet
  facet normal 0.0368583 -0.999321 0
    outer loop
      vertex -0.516846 -6.43143 0
      vertex -0.226471 -6.42072 2
      vertex -0.516846 -6.43143 2
    endloop
  endfacet
  facet normal 0.0368583 -0.999321 0
    outer loop
      vertex -0.226471 -6.42072 2
      vertex -0.516846 -6.43143 0
      vertex -0.226471 -6.42072 0
    endloop
  endfacet
  facet normal 0.066754 -0.997769 0
    outer loop
      vertex -0.226471 -6.42072 0
      vertex 0.0404816 -6.40286 2
      vertex -0.226471 -6.42072 2
    endloop
  endfacet
  facet normal 0.066754 -0.997769 0
    outer loop
      vertex 0.0404816 -6.40286 2
      vertex -0.226471 -6.42072 0
      vertex 0.0404816 -6.40286 0
    endloop
  endfacet
  facet normal 0.102073 -0.994777 0
    outer loop
      vertex 0.0404816 -6.40286 0
      vertex 0.284027 -6.37787 2
      vertex 0.0404816 -6.40286 2
    endloop
  endfacet
  facet normal 0.102073 -0.994777 0
    outer loop
      vertex 0.284027 -6.37787 2
      vertex 0.0404816 -6.40286 0
      vertex 0.284027 -6.37787 0
    endloop
  endfacet
  facet normal 0.144467 -0.98951 0
    outer loop
      vertex 0.284027 -6.37787 0
      vertex 0.504166 -6.34573 2
      vertex 0.284027 -6.37787 2
    endloop
  endfacet
  facet normal 0.144467 -0.98951 0
    outer loop
      vertex 0.504166 -6.34573 2
      vertex 0.284027 -6.37787 0
      vertex 0.504166 -6.34573 0
    endloop
  endfacet
  facet normal 0.195765 -0.980651 0
    outer loop
      vertex 0.504166 -6.34573 0
      vertex 0.700882 -6.30646 2
      vertex 0.504166 -6.34573 2
    endloop
  endfacet
  facet normal 0.195765 -0.980651 0
    outer loop
      vertex 0.700882 -6.30646 2
      vertex 0.504166 -6.34573 0
      vertex 0.700882 -6.30646 0
    endloop
  endfacet
  facet normal 0.258798 -0.965931 0
    outer loop
      vertex 0.700882 -6.30646 0
      vertex 0.874176 -6.26003 2
      vertex 0.700882 -6.30646 2
    endloop
  endfacet
  facet normal 0.258798 -0.965931 0
    outer loop
      vertex 0.874176 -6.26003 2
      vertex 0.700882 -6.30646 0
      vertex 0.874176 -6.26003 0
    endloop
  endfacet
  facet normal 0.334981 -0.942225 0
    outer loop
      vertex 0.908098 -6.24797 0
      vertex 0.874176 -6.26003 2
      vertex 0.874176 -6.26003 0
    endloop
  endfacet
  facet normal 0.334859 -0.942268 -2.34185e-06
    outer loop
      vertex 0.874176 -6.26003 2
      vertex 0.908098 -6.24797 0
      vertex 1.03094 -6.20432 2
    endloop
  endfacet
  facet normal 0.334825 -0.94228 0
    outer loop
      vertex 1.03094 -6.20432 2
      vertex 0.908098 -6.24797 0
      vertex 1.03094 -6.20432 0
    endloop
  endfacet
  facet normal 0.415256 -0.909705 0
    outer loop
      vertex 1.03094 -6.20432 0
      vertex 1.17809 -6.13715 2
      vertex 1.03094 -6.20432 2
    endloop
  endfacet
  facet normal 0.415256 -0.909705 0
    outer loop
      vertex 1.17809 -6.13715 2
      vertex 1.03094 -6.20432 0
      vertex 1.17809 -6.13715 0
    endloop
  endfacet
  facet normal 0.496445 -0.868068 0
    outer loop
      vertex 1.17809 -6.13715 0
      vertex 1.31558 -6.05852 2
      vertex 1.17809 -6.13715 2
    endloop
  endfacet
  facet normal 0.496445 -0.868068 0
    outer loop
      vertex 1.31558 -6.05852 2
      vertex 1.17809 -6.13715 0
      vertex 1.31558 -6.05852 0
    endloop
  endfacet
  facet normal 0.575953 -0.817483 0
    outer loop
      vertex 1.31558 -6.05852 0
      vertex 1.44345 -5.96843 2
      vertex 1.31558 -6.05852 2
    endloop
  endfacet
  facet normal 0.575953 -0.817483 0
    outer loop
      vertex 1.44345 -5.96843 2
      vertex 1.31558 -6.05852 0
      vertex 1.44345 -5.96843 0
    endloop
  endfacet
  facet normal 0.651536 -0.758618 0
    outer loop
      vertex 1.44345 -5.96843 0
      vertex 1.56169 -5.86688 2
      vertex 1.44345 -5.96843 2
    endloop
  endfacet
  facet normal 0.651536 -0.758618 0
    outer loop
      vertex 1.56169 -5.86688 2
      vertex 1.44345 -5.96843 0
      vertex 1.56169 -5.86688 0
    endloop
  endfacet
  facet normal 0.720974 -0.692962 0
    outer loop
      vertex 1.56169 -5.86688 2
      vertex 1.67029 -5.75389 0
      vertex 1.67029 -5.75389 2
    endloop
  endfacet
  facet normal 0.720974 -0.692962 0
    outer loop
      vertex 1.67029 -5.75389 0
      vertex 1.56169 -5.86688 2
      vertex 1.56169 -5.86688 0
    endloop
  endfacet
  facet normal 0.7827 -0.622399 0
    outer loop
      vertex 1.67029 -5.75389 2
      vertex 1.76926 -5.62943 0
      vertex 1.76926 -5.62943 2
    endloop
  endfacet
  facet normal 0.7827 -0.622399 0
    outer loop
      vertex 1.76926 -5.62943 0
      vertex 1.67029 -5.75389 2
      vertex 1.67029 -5.75389 0
    endloop
  endfacet
  facet normal 0.832108 -0.554613 0
    outer loop
      vertex 1.76926 -5.62943 2
      vertex 1.85754 -5.49698 0
      vertex 1.85754 -5.49698 2
    endloop
  endfacet
  facet normal 0.832108 -0.554613 0
    outer loop
      vertex 1.85754 -5.49698 0
      vertex 1.76926 -5.62943 2
      vertex 1.76926 -5.62943 0
    endloop
  endfacet
  facet normal 0.873027 -0.487671 0
    outer loop
      vertex 1.85754 -5.49698 2
      vertex 1.93404 -5.36003 0
      vertex 1.93404 -5.36003 2
    endloop
  endfacet
  facet normal 0.873027 -0.487671 0
    outer loop
      vertex 1.93404 -5.36003 0
      vertex 1.85754 -5.49698 2
      vertex 1.85754 -5.49698 0
    endloop
  endfacet
  facet normal 0.909375 -0.415977 0
    outer loop
      vertex 1.93404 -5.36003 2
      vertex 1.99873 -5.21861 0
      vertex 1.99873 -5.21861 2
    endloop
  endfacet
  facet normal 0.909375 -0.415977 0
    outer loop
      vertex 1.99873 -5.21861 0
      vertex 1.93404 -5.36003 2
      vertex 1.93404 -5.36003 0
    endloop
  endfacet
  facet normal 0.940092 -0.34092 0
    outer loop
      vertex 1.99873 -5.21861 2
      vertex 2.05164 -5.07271 0
      vertex 2.05164 -5.07271 2
    endloop
  endfacet
  facet normal 0.940092 -0.34092 0
    outer loop
      vertex 2.05164 -5.07271 0
      vertex 1.99873 -5.21861 2
      vertex 1.99873 -5.21861 0
    endloop
  endfacet
  facet normal 0.964622 -0.263638 0
    outer loop
      vertex 2.05164 -5.07271 2
      vertex 2.09274 -4.92233 0
      vertex 2.09274 -4.92233 2
    endloop
  endfacet
  facet normal 0.964622 -0.263638 0
    outer loop
      vertex 2.09274 -4.92233 0
      vertex 2.05164 -5.07271 2
      vertex 2.05164 -5.07271 0
    endloop
  endfacet
  facet normal 0.982547 -0.186016 0
    outer loop
      vertex 2.09274 -4.92233 2
      vertex 2.12206 -4.76746 0
      vertex 2.12206 -4.76746 2
    endloop
  endfacet
  facet normal 0.982547 -0.186016 0
    outer loop
      vertex 2.12206 -4.76746 0
      vertex 2.09274 -4.92233 2
      vertex 2.09274 -4.92233 0
    endloop
  endfacet
  facet normal 0.994017 -0.109226 0
    outer loop
      vertex 2.12206 -4.76746 2
      vertex 2.13957 -4.60811 0
      vertex 2.13957 -4.60811 2
    endloop
  endfacet
  facet normal 0.994017 -0.109226 0
    outer loop
      vertex 2.13957 -4.60811 0
      vertex 2.12206 -4.76746 2
      vertex 2.12206 -4.76746 0
    endloop
  endfacet
  facet normal 0.998398 -0.0565794 0
    outer loop
      vertex 2.13957 -4.60811 2
      vertex 2.15036 -4.41771 0
      vertex 2.15036 -4.41771 2
    endloop
  endfacet
  facet normal 0.998398 -0.0565794 0
    outer loop
      vertex 2.15036 -4.41771 0
      vertex 2.13957 -4.60811 2
      vertex 2.13957 -4.60811 0
    endloop
  endfacet
  facet normal 0.999322 -0.0368269 0
    outer loop
      vertex 2.15036 -4.41771 2
      vertex 2.1595 -4.16969 0
      vertex 2.1595 -4.16969 2
    endloop
  endfacet
  facet normal 0.999322 -0.0368269 0
    outer loop
      vertex 2.1595 -4.16969 0
      vertex 2.15036 -4.41771 2
      vertex 2.15036 -4.41771 0
    endloop
  endfacet
  facet normal 0.999702 -0.0243989 0
    outer loop
      vertex 2.1595 -4.16969 2
      vertex 2.16696 -3.86403 0
      vertex 2.16696 -3.86403 2
    endloop
  endfacet
  facet normal 0.999702 -0.0243989 0
    outer loop
      vertex 2.16696 -3.86403 0
      vertex 2.1595 -4.16969 2
      vertex 2.1595 -4.16969 0
    endloop
  endfacet
  facet normal 0.999872 -0.0160191 0
    outer loop
      vertex 2.16696 -3.86403 2
      vertex 2.17278 -3.50076 0
      vertex 2.17278 -3.50076 2
    endloop
  endfacet
  facet normal 0.999872 -0.0160191 0
    outer loop
      vertex 2.17278 -3.50076 0
      vertex 2.16696 -3.86403 2
      vertex 2.16696 -3.86403 0
    endloop
  endfacet
  facet normal 0.999951 -0.00985934 0
    outer loop
      vertex 2.17278 -3.50076 2
      vertex 2.17693 -3.07986 0
      vertex 2.17693 -3.07986 2
    endloop
  endfacet
  facet normal 0.999951 -0.00985934 0
    outer loop
      vertex 2.17693 -3.07986 0
      vertex 2.17278 -3.50076 2
      vertex 2.17278 -3.50076 0
    endloop
  endfacet
  facet normal 0.999986 -0.00522426 0
    outer loop
      vertex 2.17693 -3.07986 2
      vertex 2.17943 -2.60133 0
      vertex 2.17943 -2.60133 2
    endloop
  endfacet
  facet normal 0.999986 -0.00522426 0
    outer loop
      vertex 2.17943 -2.60133 0
      vertex 2.17693 -3.07986 2
      vertex 2.17693 -3.07986 0
    endloop
  endfacet
  facet normal 0.999999 -0.00152945 0
    outer loop
      vertex 2.17943 -2.60133 2
      vertex 2.18025 -2.06519 0
      vertex 2.18025 -2.06519 2
    endloop
  endfacet
  facet normal 0.999999 -0.00152945 0
    outer loop
      vertex 2.18025 -2.06519 0
      vertex 2.17943 -2.60133 2
      vertex 2.17943 -2.60133 0
    endloop
  endfacet
  facet normal 1 0 0
    outer loop
      vertex 2.18025 6.73955 2
      vertex 2.18025 5.92606 0
      vertex 2.18025 6.73955 0
    endloop
  endfacet
  facet normal 1 -0 0
    outer loop
      vertex 2.18025 -2.06519 2
      vertex 2.18025 5.92606 0
      vertex 2.18025 6.73955 2
    endloop
  endfacet
  facet normal 1 0 0
    outer loop
      vertex 2.18025 5.92606 0
      vertex 2.18025 -2.06519 2
      vertex 2.18025 -2.06519 0
    endloop
  endfacet
  facet normal 0 1 -0
    outer loop
      vertex 2.18025 6.73955 0
      vertex -1.24561 6.73955 2
      vertex 2.18025 6.73955 2
    endloop
  endfacet
  facet normal 0 1 0
    outer loop
      vertex -1.24561 6.73955 2
      vertex 2.18025 6.73955 0
      vertex -1.24561 6.73955 0
    endloop
  endfacet
  facet normal -1 0 0
    outer loop
      vertex -1.24561 6.19745 0
      vertex -1.24561 6.73955 2
      vertex -1.24561 6.73955 0
    endloop
  endfacet
  facet normal -1 0 0
    outer loop
      vertex -1.24561 -2.52899 2
      vertex -1.24561 6.19745 0
      vertex -1.24561 -2.52899 0
    endloop
  endfacet
  facet normal -1 0 0
    outer loop
      vertex -1.24561 6.19745 0
      vertex -1.24561 -2.52899 2
      vertex -1.24561 6.73955 2
    endloop
  endfacet
  facet normal -0.999995 0.0032851 0
    outer loop
      vertex -1.24628 -2.73294 0
      vertex -1.24561 -2.52899 2
      vertex -1.24561 -2.52899 0
    endloop
  endfacet
  facet normal -0.999995 0.0032851 0
    outer loop
      vertex -1.24561 -2.52899 2
      vertex -1.24628 -2.73294 0
      vertex -1.24628 -2.73294 2
    endloop
  endfacet
  facet normal -0.999941 0.0108683 0
    outer loop
      vertex -1.24828 -2.91695 0
      vertex -1.24628 -2.73294 2
      vertex -1.24628 -2.73294 0
    endloop
  endfacet
  facet normal -0.999941 0.0108683 0
    outer loop
      vertex -1.24628 -2.73294 2
      vertex -1.24828 -2.91695 0
      vertex -1.24828 -2.91695 2
    endloop
  endfacet
  facet normal -0.999795 0.0202287 0
    outer loop
      vertex -1.2516 -3.08104 0
      vertex -1.24828 -2.91695 2
      vertex -1.24828 -2.91695 0
    endloop
  endfacet
  facet normal -0.999795 0.0202287 0
    outer loop
      vertex -1.24828 -2.91695 2
      vertex -1.2516 -3.08104 0
      vertex -1.2516 -3.08104 2
    endloop
  endfacet
  facet normal -0.999476 0.0323798 0
    outer loop
      vertex -1.25627 -3.22519 0
      vertex -1.2516 -3.08104 2
      vertex -1.2516 -3.08104 0
    endloop
  endfacet
  facet normal -0.999476 0.0323798 0
    outer loop
      vertex -1.2516 -3.08104 2
      vertex -1.25627 -3.22519 0
      vertex -1.25627 -3.22519 2
    endloop
  endfacet
  facet normal -0.998836 0.0482452 0
    outer loop
      vertex -1.26227 -3.34941 0
      vertex -1.25627 -3.22519 2
      vertex -1.25627 -3.22519 0
    endloop
  endfacet
  facet normal -0.998836 0.0482452 0
    outer loop
      vertex -1.25627 -3.22519 2
      vertex -1.26227 -3.34941 0
      vertex -1.26227 -3.34941 2
    endloop
  endfacet
  facet normal -0.997546 0.0700166 0
    outer loop
      vertex -1.26959 -3.4537 0
      vertex -1.26227 -3.34941 2
      vertex -1.26227 -3.34941 0
    endloop
  endfacet
  facet normal -0.997546 0.0700166 0
    outer loop
      vertex -1.26227 -3.34941 2
      vertex -1.26959 -3.4537 0
      vertex -1.26959 -3.4537 2
    endloop
  endfacet
  facet normal -0.994761 0.102223 0
    outer loop
      vertex -1.27826 -3.53807 0
      vertex -1.26959 -3.4537 2
      vertex -1.26959 -3.4537 0
    endloop
  endfacet
  facet normal -0.994761 0.102223 0
    outer loop
      vertex -1.26959 -3.4537 2
      vertex -1.27826 -3.53807 0
      vertex -1.27826 -3.53807 2
    endloop
  endfacet
  facet normal -0.984543 0.175144 0
    outer loop
      vertex -1.2912 -3.61081 0
      vertex -1.27826 -3.53807 2
      vertex -1.27826 -3.53807 0
    endloop
  endfacet
  facet normal -0.984543 0.175144 0
    outer loop
      vertex -1.27826 -3.53807 2
      vertex -1.2912 -3.61081 0
      vertex -1.2912 -3.61081 2
    endloop
  endfacet
  facet normal -0.960002 0.279995 0
    outer loop
      vertex -1.31145 -3.68024 0
      vertex -1.2912 -3.61081 2
      vertex -1.2912 -3.61081 0
    endloop
  endfacet
  facet normal -0.960002 0.279995 0
    outer loop
      vertex -1.2912 -3.61081 2
      vertex -1.31145 -3.68024 0
      vertex -1.31145 -3.68024 2
    endloop
  endfacet
  facet normal -0.922895 0.385052 0
    outer loop
      vertex -1.33902 -3.74632 0
      vertex -1.31145 -3.68024 2
      vertex -1.31145 -3.68024 0
    endloop
  endfacet
  facet normal -0.922895 0.385052 0
    outer loop
      vertex -1.31145 -3.68024 2
      vertex -1.33902 -3.74632 0
      vertex -1.33902 -3.74632 2
    endloop
  endfacet
  facet normal -0.874236 0.485501 0
    outer loop
      vertex -1.37389 -3.80911 0
      vertex -1.33902 -3.74632 2
      vertex -1.33902 -3.74632 0
    endloop
  endfacet
  facet normal -0.874236 0.485501 0
    outer loop
      vertex -1.33902 -3.74632 2
      vertex -1.37389 -3.80911 0
      vertex -1.37389 -3.80911 2
    endloop
  endfacet
  facet normal -0.815639 0.578562 0
    outer loop
      vertex -1.41606 -3.86856 0
      vertex -1.37389 -3.80911 2
      vertex -1.37389 -3.80911 0
    endloop
  endfacet
  facet normal -0.815639 0.578562 0
    outer loop
      vertex -1.37389 -3.80911 2
      vertex -1.41606 -3.86856 0
      vertex -1.41606 -3.86856 2
    endloop
  endfacet
  facet normal -0.750138 0.661281 0
    outer loop
      vertex -1.46555 -3.9247 0
      vertex -1.41606 -3.86856 2
      vertex -1.41606 -3.86856 0
    endloop
  endfacet
  facet normal -0.750138 0.661281 0
    outer loop
      vertex -1.41606 -3.86856 2
      vertex -1.46555 -3.9247 0
      vertex -1.46555 -3.9247 2
    endloop
  endfacet
  facet normal -0.68098 0.732302 0
    outer loop
      vertex -1.46555 -3.9247 0
      vertex -1.52234 -3.97751 2
      vertex -1.46555 -3.9247 2
    endloop
  endfacet
  facet normal -0.68098 0.732302 0
    outer loop
      vertex -1.52234 -3.97751 2
      vertex -1.46555 -3.9247 0
      vertex -1.52234 -3.97751 0
    endloop
  endfacet
  facet normal -0.598144 0.801389 0
    outer loop
      vertex -1.52234 -3.97751 0
      vertex -1.58594 -4.02498 2
      vertex -1.52234 -3.97751 2
    endloop
  endfacet
  facet normal -0.598144 0.801389 0
    outer loop
      vertex -1.58594 -4.02498 2
      vertex -1.52234 -3.97751 0
      vertex -1.58594 -4.02498 0
    endloop
  endfacet
  facet normal -0.498115 0.867111 0
    outer loop
      vertex -1.58594 -4.02498 0
      vertex -1.65585 -4.06514 2
      vertex -1.58594 -4.02498 2
    endloop
  endfacet
  facet normal -0.498115 0.867111 0
    outer loop
      vertex -1.65585 -4.06514 2
      vertex -1.58594 -4.02498 0
      vertex -1.65585 -4.06514 0
    endloop
  endfacet
  facet normal -0.39591 0.918289 0
    outer loop
      vertex -1.65585 -4.06514 0
      vertex -1.73209 -4.09801 2
      vertex -1.65585 -4.06514 2
    endloop
  endfacet
  facet normal -0.39591 0.918289 0
    outer loop
      vertex -1.73209 -4.09801 2
      vertex -1.65585 -4.06514 0
      vertex -1.73209 -4.09801 0
    endloop
  endfacet
  facet normal -0.295842 0.955237 0
    outer loop
      vertex -1.73209 -4.09801 0
      vertex -1.81462 -4.12357 2
      vertex -1.73209 -4.09801 2
    endloop
  endfacet
  facet normal -0.295842 0.955237 0
    outer loop
      vertex -1.81462 -4.12357 2
      vertex -1.73209 -4.09801 0
      vertex -1.81462 -4.12357 0
    endloop
  endfacet
  facet normal -0.201308 0.979528 0
    outer loop
      vertex -1.81462 -4.12357 0
      vertex -1.90347 -4.14183 2
      vertex -1.81462 -4.12357 2
    endloop
  endfacet
  facet normal -0.201308 0.979528 0
    outer loop
      vertex -1.90347 -4.14183 2
      vertex -1.81462 -4.12357 0
      vertex -1.90347 -4.14183 0
    endloop
  endfacet
  facet normal -0.114382 0.993437 0
    outer loop
      vertex -1.90347 -4.14183 0
      vertex -1.99866 -4.15279 2
      vertex -1.90347 -4.14183 2
    endloop
  endfacet
  facet normal -0.114382 0.993437 0
    outer loop
      vertex -1.99866 -4.15279 2
      vertex -1.90347 -4.14183 0
      vertex -1.99866 -4.15279 0
    endloop
  endfacet
  facet normal -0.0358496 0.999357 0
    outer loop
      vertex -1.99866 -4.15279 0
      vertex -2.10013 -4.15643 2
      vertex -1.99866 -4.15279 2
    endloop
  endfacet
  facet normal -0.0358496 0.999357 0
    outer loop
      vertex -2.10013 -4.15643 2
      vertex -1.99866 -4.15279 0
      vertex -2.10013 -4.15643 0
    endloop
  endfacet
  facet normal 0.0116271 0.999932 -0
    outer loop
      vertex -2.10013 -4.15643 0
      vertex -2.14313 -4.15593 2
      vertex -2.10013 -4.15643 2
    endloop
  endfacet
  facet normal 0.0116271 0.999932 0
    outer loop
      vertex -2.14313 -4.15593 2
      vertex -2.10013 -4.15643 0
      vertex -2.14313 -4.15593 0
    endloop
  endfacet
  facet normal 0.0296166 0.999561 -0
    outer loop
      vertex -2.14313 -4.15593 0
      vertex -2.19308 -4.15445 2
      vertex -2.14313 -4.15593 2
    endloop
  endfacet
  facet normal 0.0296166 0.999561 0
    outer loop
      vertex -2.19308 -4.15445 2
      vertex -2.14313 -4.15593 0
      vertex -2.19308 -4.15445 0
    endloop
  endfacet
  facet normal 0.0436808 0.999046 -0
    outer loop
      vertex -2.19308 -4.15445 0
      vertex -2.25003 -4.15196 2
      vertex -2.19308 -4.15445 2
    endloop
  endfacet
  facet normal 0.0436808 0.999046 0
    outer loop
      vertex -2.25003 -4.15196 2
      vertex -2.19308 -4.15445 0
      vertex -2.25003 -4.15196 0
    endloop
  endfacet
  facet normal 0.0543541 0.998522 -0
    outer loop
      vertex -2.25003 -4.15196 0
      vertex -2.31396 -4.14848 2
      vertex -2.25003 -4.15196 2
    endloop
  endfacet
  facet normal 0.0543541 0.998522 0
    outer loop
      vertex -2.31396 -4.14848 2
      vertex -2.25003 -4.15196 0
      vertex -2.31396 -4.14848 0
    endloop
  endfacet
  facet normal 0.0630618 0.99801 -0
    outer loop
      vertex -2.31396 -4.14848 0
      vertex -2.38486 -4.144 2
      vertex -2.31396 -4.14848 2
    endloop
  endfacet
  facet normal 0.0630618 0.99801 0
    outer loop
      vertex -2.38486 -4.144 2
      vertex -2.31396 -4.14848 0
      vertex -2.38486 -4.144 0
    endloop
  endfacet
  facet normal 0.0700547 0.997543 -0
    outer loop
      vertex -2.38486 -4.144 0
      vertex -2.46275 -4.13853 2
      vertex -2.38486 -4.144 2
    endloop
  endfacet
  facet normal 0.0700547 0.997543 0
    outer loop
      vertex -2.46275 -4.13853 2
      vertex -2.38486 -4.144 0
      vertex -2.46275 -4.13853 0
    endloop
  endfacet
  facet normal 0.0760226 0.997106 -0
    outer loop
      vertex -2.46275 -4.13853 0
      vertex -2.54761 -4.13206 2
      vertex -2.46275 -4.13853 2
    endloop
  endfacet
  facet normal 0.0760226 0.997106 0
    outer loop
      vertex -2.54761 -4.13206 2
      vertex -2.46275 -4.13853 0
      vertex -2.54761 -4.13206 0
    endloop
  endfacet
  facet normal -1 0 0
    outer loop
      vertex -2.54761 -5.78062 0
      vertex -2.54761 -4.13206 2
      vertex -2.54761 -4.13206 0
    endloop
  endfacet
  facet normal -1 0 0
    outer loop
      vertex -2.54761 -6.435 2
      vertex -2.54761 -5.78062 0
      vertex -2.54761 -6.435 0
    endloop
  endfacet
  facet normal -1 0 0
    outer loop
      vertex -2.54761 -5.78062 0
      vertex -2.54761 -6.435 2
      vertex -2.54761 -4.13206 2
    endloop
  endfacet
  facet normal 0 -1 0
    outer loop
      vertex -2.54761 -6.435 0
      vertex -0.830658 -6.435 2
      vertex -2.54761 -6.435 2
    endloop
  endfacet
  facet normal 0 -1 -0
    outer loop
      vertex -0.830658 -6.435 2
      vertex -2.54761 -6.435 0
      vertex -0.830658 -6.435 0
    endloop
  endfacet
  facet normal 0.0113755 -0.999935 0
    outer loop
      vertex -0.830658 -6.435 0
      vertex -0.516846 -6.43143 2
      vertex -0.830658 -6.435 2
    endloop
  endfacet
  facet normal 0.0113755 -0.999935 0
    outer loop
      vertex -0.516846 -6.43143 2
      vertex -0.830658 -6.435 0
      vertex -0.516846 -6.43143 0
    endloop
  endfacet
endsolid OpenSCAD_Model
