solid OpenSCAD_Model
  facet normal 0.998026 0.062808 0
    outer loop
      vertex 16 0 0
      vertex 15.8738 2.00533 -5
      vertex 15.8738 2.00533 0
    endloop
  endfacet
  facet normal 0.998026 0.062808 0
    outer loop
      vertex 15.8738 2.00533 -5
      vertex 16 0 0
      vertex 16 0 -5
    endloop
  endfacet
  facet normal -0.998026 0.062808 0
    outer loop
      vertex -16 0 -5
      vertex -15.8738 2.00533 0
      vertex -15.8738 2.00533 -5
    endloop
  endfacet
  facet normal -0.998026 0.062808 0
    outer loop
      vertex -15.8738 2.00533 0
      vertex -16 0 -5
      vertex -16 0 0
    endloop
  endfacet
  facet normal 0 1 -0
    outer loop
      vertex 1.00465 15.9684 -5
      vertex -1.00465 15.9684 0
      vertex 1.00465 15.9684 0
    endloop
  endfacet
  facet normal 0 1 0
    outer loop
      vertex -1.00465 15.9684 0
      vertex 1.00465 15.9684 -5
      vertex -1.00465 15.9684 -5
    endloop
  endfacet
  facet normal 0 -1 0
    outer loop
      vertex -1.00465 -15.9684 -5
      vertex 1.00465 -15.9684 0
      vertex -1.00465 -15.9684 0
    endloop
  endfacet
  facet normal 0 -1 -0
    outer loop
      vertex 1.00465 -15.9684 0
      vertex -1.00465 -15.9684 -5
      vertex 1.00465 -15.9684 -5
    endloop
  endfacet
  facet normal 0.684535 0.72898 -0
    outer loop
      vertex 11.6635 10.9528 -5
      vertex 10.1988 12.3282 0
      vertex 11.6635 10.9528 0
    endloop
  endfacet
  facet normal 0.684535 0.72898 0
    outer loop
      vertex 10.1988 12.3282 0
      vertex 11.6635 10.9528 -5
      vertex 10.1988 12.3282 -5
    endloop
  endfacet
  facet normal -0.684535 0.72898 0
    outer loop
      vertex -10.1988 12.3282 -5
      vertex -11.6635 10.9528 0
      vertex -10.1988 12.3282 0
    endloop
  endfacet
  facet normal -0.684535 0.72898 0
    outer loop
      vertex -11.6635 10.9528 0
      vertex -10.1988 12.3282 -5
      vertex -11.6635 10.9528 -5
    endloop
  endfacet
  facet normal -0.368136 0.929772 0
    outer loop
      vertex -4.94427 15.2169 -5
      vertex -6.81247 14.4772 0
      vertex -4.94427 15.2169 0
    endloop
  endfacet
  facet normal -0.368136 0.929772 0
    outer loop
      vertex -6.81247 14.4772 0
      vertex -4.94427 15.2169 -5
      vertex -6.81247 14.4772 -5
    endloop
  endfacet
  facet normal 0.904831 0.425772 0
    outer loop
      vertex 14.8764 5.88999 0
      vertex 14.0209 7.70806 -5
      vertex 14.0209 7.70806 0
    endloop
  endfacet
  facet normal 0.904831 0.425772 0
    outer loop
      vertex 14.0209 7.70806 -5
      vertex 14.8764 5.88999 0
      vertex 14.8764 5.88999 -5
    endloop
  endfacet
  facet normal 0.368136 0.929772 -0
    outer loop
      vertex 6.81247 14.4772 -5
      vertex 4.94427 15.2169 0
      vertex 6.81247 14.4772 0
    endloop
  endfacet
  facet normal 0.368136 0.929772 0
    outer loop
      vertex 4.94427 15.2169 0
      vertex 6.81247 14.4772 -5
      vertex 4.94427 15.2169 -5
    endloop
  endfacet
  facet normal 0.248694 0.968582 -0
    outer loop
      vertex 4.94427 15.2169 -5
      vertex 2.9981 15.7166 0
      vertex 4.94427 15.2169 0
    endloop
  endfacet
  facet normal 0.248694 0.968582 0
    outer loop
      vertex 2.9981 15.7166 0
      vertex 4.94427 15.2169 -5
      vertex 2.9981 15.7166 -5
    endloop
  endfacet
  facet normal 0.481759 0.876304 -0
    outer loop
      vertex 8.57323 13.5092 -5
      vertex 6.81247 14.4772 0
      vertex 8.57323 13.5092 0
    endloop
  endfacet
  facet normal 0.481759 0.876304 0
    outer loop
      vertex 6.81247 14.4772 0
      vertex 8.57323 13.5092 -5
      vertex 6.81247 14.4772 -5
    endloop
  endfacet
  facet normal -0.904831 0.425772 0
    outer loop
      vertex -14.8764 5.88999 -5
      vertex -14.0209 7.70806 0
      vertex -14.0209 7.70806 -5
    endloop
  endfacet
  facet normal -0.904831 0.425772 0
    outer loop
      vertex -14.0209 7.70806 0
      vertex -14.8764 5.88999 -5
      vertex -14.8764 5.88999 0
    endloop
  endfacet
  facet normal -0.951057 0.309015 0
    outer loop
      vertex -15.4973 3.97904 -5
      vertex -14.8764 5.88999 0
      vertex -14.8764 5.88999 -5
    endloop
  endfacet
  facet normal -0.951057 0.309015 0
    outer loop
      vertex -14.8764 5.88999 0
      vertex -15.4973 3.97904 -5
      vertex -15.4973 3.97904 0
    endloop
  endfacet
  facet normal -0.125318 0.992117 0
    outer loop
      vertex -1.00465 15.9684 -5
      vertex -2.9981 15.7166 0
      vertex -1.00465 15.9684 0
    endloop
  endfacet
  facet normal -0.125318 0.992117 0
    outer loop
      vertex -2.9981 15.7166 0
      vertex -1.00465 15.9684 -5
      vertex -2.9981 15.7166 -5
    endloop
  endfacet
  facet normal 0.982288 -0.187379 0
    outer loop
      vertex 15.4973 -3.97904 0
      vertex 15.8738 -2.00533 -5
      vertex 15.8738 -2.00533 0
    endloop
  endfacet
  facet normal 0.982288 -0.187379 0
    outer loop
      vertex 15.8738 -2.00533 -5
      vertex 15.4973 -3.97904 0
      vertex 15.4973 -3.97904 -5
    endloop
  endfacet
  facet normal 0.125318 -0.992117 0
    outer loop
      vertex 1.00465 -15.9684 -5
      vertex 2.9981 -15.7166 0
      vertex 1.00465 -15.9684 0
    endloop
  endfacet
  facet normal 0.125318 -0.992117 0
    outer loop
      vertex 2.9981 -15.7166 0
      vertex 1.00465 -15.9684 -5
      vertex 2.9981 -15.7166 -5
    endloop
  endfacet
  facet normal 0.951057 0.309015 0
    outer loop
      vertex 15.4973 3.97904 0
      vertex 14.8764 5.88999 -5
      vertex 14.8764 5.88999 0
    endloop
  endfacet
  facet normal 0.951057 0.309015 0
    outer loop
      vertex 14.8764 5.88999 -5
      vertex 15.4973 3.97904 0
      vertex 15.4973 3.97904 -5
    endloop
  endfacet
  facet normal 0.982288 0.187379 0
    outer loop
      vertex 15.8738 2.00533 0
      vertex 15.4973 3.97904 -5
      vertex 15.4973 3.97904 0
    endloop
  endfacet
  facet normal 0.982288 0.187379 0
    outer loop
      vertex 15.4973 3.97904 -5
      vertex 15.8738 2.00533 0
      vertex 15.8738 2.00533 -5
    endloop
  endfacet
  facet normal 0.770517 0.637419 0
    outer loop
      vertex 12.9443 9.40456 0
      vertex 11.6635 10.9528 -5
      vertex 11.6635 10.9528 0
    endloop
  endfacet
  facet normal 0.770517 0.637419 0
    outer loop
      vertex 11.6635 10.9528 -5
      vertex 12.9443 9.40456 0
      vertex 12.9443 9.40456 -5
    endloop
  endfacet
  facet normal 0.844335 0.535816 0
    outer loop
      vertex 14.0209 7.70806 0
      vertex 12.9443 9.40456 -5
      vertex 12.9443 9.40456 0
    endloop
  endfacet
  facet normal 0.844335 0.535816 0
    outer loop
      vertex 12.9443 9.40456 -5
      vertex 14.0209 7.70806 0
      vertex 14.0209 7.70806 -5
    endloop
  endfacet
  facet normal 0.125318 0.992117 -0
    outer loop
      vertex 2.9981 15.7166 -5
      vertex 1.00465 15.9684 0
      vertex 2.9981 15.7166 0
    endloop
  endfacet
  facet normal 0.125318 0.992117 0
    outer loop
      vertex 1.00465 15.9684 0
      vertex 2.9981 15.7166 -5
      vertex 1.00465 15.9684 -5
    endloop
  endfacet
  facet normal 0.58777 0.809028 -0
    outer loop
      vertex 10.1988 12.3282 -5
      vertex 8.57323 13.5092 0
      vertex 10.1988 12.3282 0
    endloop
  endfacet
  facet normal 0.58777 0.809028 0
    outer loop
      vertex 8.57323 13.5092 0
      vertex 10.1988 12.3282 -5
      vertex 8.57323 13.5092 -5
    endloop
  endfacet
  facet normal -0.844335 0.535816 0
    outer loop
      vertex -14.0209 7.70806 -5
      vertex -12.9443 9.40456 0
      vertex -12.9443 9.40456 -5
    endloop
  endfacet
  facet normal -0.844335 0.535816 0
    outer loop
      vertex -12.9443 9.40456 0
      vertex -14.0209 7.70806 -5
      vertex -14.0209 7.70806 0
    endloop
  endfacet
  facet normal -0.770517 0.637419 0
    outer loop
      vertex -12.9443 9.40456 -5
      vertex -11.6635 10.9528 0
      vertex -11.6635 10.9528 -5
    endloop
  endfacet
  facet normal -0.770517 0.637419 0
    outer loop
      vertex -11.6635 10.9528 0
      vertex -12.9443 9.40456 -5
      vertex -12.9443 9.40456 0
    endloop
  endfacet
  facet normal -0.982288 0.187379 0
    outer loop
      vertex -15.8738 2.00533 -5
      vertex -15.4973 3.97904 0
      vertex -15.4973 3.97904 -5
    endloop
  endfacet
  facet normal -0.982288 0.187379 0
    outer loop
      vertex -15.4973 3.97904 0
      vertex -15.8738 2.00533 -5
      vertex -15.8738 2.00533 0
    endloop
  endfacet
  facet normal 0 0 1
    outer loop
      vertex 15.8738 2.00533 0
      vertex 15.8738 -2.00533 0
      vertex 16 0 0
    endloop
  endfacet
  facet normal 0 0 1
    outer loop
      vertex 15.4973 3.97904 0
      vertex 15.8738 -2.00533 0
      vertex 15.8738 2.00533 0
    endloop
  endfacet
  facet normal 0 0 1
    outer loop
      vertex 15.4973 3.97904 0
      vertex 15.4973 -3.97904 0
      vertex 15.8738 -2.00533 0
    endloop
  endfacet
  facet normal 0 0 1
    outer loop
      vertex 14.8764 5.88999 0
      vertex 15.4973 -3.97904 0
      vertex 15.4973 3.97904 0
    endloop
  endfacet
  facet normal 0 0 1
    outer loop
      vertex 14.8764 5.88999 0
      vertex 14.8764 -5.88999 0
      vertex 15.4973 -3.97904 0
    endloop
  endfacet
  facet normal 0 0 1
    outer loop
      vertex 14.0209 7.70806 0
      vertex 14.8764 -5.88999 0
      vertex 14.8764 5.88999 0
    endloop
  endfacet
  facet normal 0 0 1
    outer loop
      vertex 14.0209 7.70806 0
      vertex 14.0209 -7.70806 0
      vertex 14.8764 -5.88999 0
    endloop
  endfacet
  facet normal 0 0 1
    outer loop
      vertex 12.9443 9.40456 0
      vertex 14.0209 -7.70806 0
      vertex 14.0209 7.70806 0
    endloop
  endfacet
  facet normal 0 0 1
    outer loop
      vertex 12.9443 9.40456 0
      vertex 12.9443 -9.40456 0
      vertex 14.0209 -7.70806 0
    endloop
  endfacet
  facet normal 0 0 1
    outer loop
      vertex 11.6635 10.9528 0
      vertex 12.9443 -9.40456 0
      vertex 12.9443 9.40456 0
    endloop
  endfacet
  facet normal 0 0 1
    outer loop
      vertex 11.6635 10.9528 0
      vertex 11.6635 -10.9528 0
      vertex 12.9443 -9.40456 0
    endloop
  endfacet
  facet normal 0 0 1
    outer loop
      vertex 10.1988 12.3282 0
      vertex 11.6635 -10.9528 0
      vertex 11.6635 10.9528 0
    endloop
  endfacet
  facet normal 0 0 1
    outer loop
      vertex 10.1988 12.3282 0
      vertex 10.1988 -12.3282 0
      vertex 11.6635 -10.9528 0
    endloop
  endfacet
  facet normal 0 0 1
    outer loop
      vertex 8.57323 13.5092 0
      vertex 10.1988 -12.3282 0
      vertex 10.1988 12.3282 0
    endloop
  endfacet
  facet normal 0 0 1
    outer loop
      vertex 8.57323 13.5092 0
      vertex 8.57323 -13.5092 0
      vertex 10.1988 -12.3282 0
    endloop
  endfacet
  facet normal 0 0 1
    outer loop
      vertex 6.81247 14.4772 0
      vertex 8.57323 -13.5092 0
      vertex 8.57323 13.5092 0
    endloop
  endfacet
  facet normal 0 0 1
    outer loop
      vertex 6.81247 14.4772 0
      vertex 6.81247 -14.4772 0
      vertex 8.57323 -13.5092 0
    endloop
  endfacet
  facet normal 0 0 1
    outer loop
      vertex 4.94427 15.2169 0
      vertex 6.81247 -14.4772 0
      vertex 6.81247 14.4772 0
    endloop
  endfacet
  facet normal 0 0 1
    outer loop
      vertex 4.94427 15.2169 0
      vertex 4.94427 -15.2169 0
      vertex 6.81247 -14.4772 0
    endloop
  endfacet
  facet normal 0 0 1
    outer loop
      vertex 2.9981 15.7166 0
      vertex 4.94427 -15.2169 0
      vertex 4.94427 15.2169 0
    endloop
  endfacet
  facet normal 0 0 1
    outer loop
      vertex 2.9981 15.7166 0
      vertex 2.9981 -15.7166 0
      vertex 4.94427 -15.2169 0
    endloop
  endfacet
  facet normal 0 0 1
    outer loop
      vertex 1.00465 15.9684 0
      vertex 2.9981 -15.7166 0
      vertex 2.9981 15.7166 0
    endloop
  endfacet
  facet normal 0 0 1
    outer loop
      vertex 1.00465 15.9684 0
      vertex 1.00465 -15.9684 0
      vertex 2.9981 -15.7166 0
    endloop
  endfacet
  facet normal -0 0 1
    outer loop
      vertex -1.00465 15.9684 0
      vertex 1.00465 -15.9684 0
      vertex 1.00465 15.9684 0
    endloop
  endfacet
  facet normal 0 0 1
    outer loop
      vertex -1.00465 15.9684 0
      vertex -1.00465 -15.9684 0
      vertex 1.00465 -15.9684 0
    endloop
  endfacet
  facet normal -0 0 1
    outer loop
      vertex -2.9981 15.7166 0
      vertex -1.00465 -15.9684 0
      vertex -1.00465 15.9684 0
    endloop
  endfacet
  facet normal 0 0 1
    outer loop
      vertex -2.9981 15.7166 0
      vertex -2.9981 -15.7166 0
      vertex -1.00465 -15.9684 0
    endloop
  endfacet
  facet normal -0 0 1
    outer loop
      vertex -4.94427 15.2169 0
      vertex -2.9981 -15.7166 0
      vertex -2.9981 15.7166 0
    endloop
  endfacet
  facet normal 0 0 1
    outer loop
      vertex -4.94427 15.2169 0
      vertex -4.94427 -15.2169 0
      vertex -2.9981 -15.7166 0
    endloop
  endfacet
  facet normal -0 0 1
    outer loop
      vertex -6.81247 14.4772 0
      vertex -4.94427 -15.2169 0
      vertex -4.94427 15.2169 0
    endloop
  endfacet
  facet normal 0 0 1
    outer loop
      vertex -6.81247 14.4772 0
      vertex -6.81247 -14.4772 0
      vertex -4.94427 -15.2169 0
    endloop
  endfacet
  facet normal -0 0 1
    outer loop
      vertex -8.57323 13.5092 0
      vertex -6.81247 -14.4772 0
      vertex -6.81247 14.4772 0
    endloop
  endfacet
  facet normal 0 0 1
    outer loop
      vertex -8.57323 13.5092 0
      vertex -8.57323 -13.5092 0
      vertex -6.81247 -14.4772 0
    endloop
  endfacet
  facet normal -0 0 1
    outer loop
      vertex -10.1988 12.3282 0
      vertex -8.57323 -13.5092 0
      vertex -8.57323 13.5092 0
    endloop
  endfacet
  facet normal 0 0 1
    outer loop
      vertex -10.1988 12.3282 0
      vertex -10.1988 -12.3282 0
      vertex -8.57323 -13.5092 0
    endloop
  endfacet
  facet normal -0 0 1
    outer loop
      vertex -11.6635 10.9528 0
      vertex -10.1988 -12.3282 0
      vertex -10.1988 12.3282 0
    endloop
  endfacet
  facet normal 0 0 1
    outer loop
      vertex -11.6635 10.9528 0
      vertex -11.6635 -10.9528 0
      vertex -10.1988 -12.3282 0
    endloop
  endfacet
  facet normal -0 0 1
    outer loop
      vertex -12.9443 9.40456 0
      vertex -11.6635 -10.9528 0
      vertex -11.6635 10.9528 0
    endloop
  endfacet
  facet normal 0 0 1
    outer loop
      vertex -12.9443 9.40456 0
      vertex -12.9443 -9.40456 0
      vertex -11.6635 -10.9528 0
    endloop
  endfacet
  facet normal -0 0 1
    outer loop
      vertex -14.0209 7.70806 0
      vertex -12.9443 -9.40456 0
      vertex -12.9443 9.40456 0
    endloop
  endfacet
  facet normal 0 0 1
    outer loop
      vertex -14.0209 7.70806 0
      vertex -14.0209 -7.70806 0
      vertex -12.9443 -9.40456 0
    endloop
  endfacet
  facet normal -0 0 1
    outer loop
      vertex -14.8764 5.88999 0
      vertex -14.0209 -7.70806 0
      vertex -14.0209 7.70806 0
    endloop
  endfacet
  facet normal 0 0 1
    outer loop
      vertex -14.8764 5.88999 0
      vertex -14.8764 -5.88999 0
      vertex -14.0209 -7.70806 0
    endloop
  endfacet
  facet normal -0 0 1
    outer loop
      vertex -15.4973 3.97904 0
      vertex -14.8764 -5.88999 0
      vertex -14.8764 5.88999 0
    endloop
  endfacet
  facet normal 0 0 1
    outer loop
      vertex -15.4973 3.97904 0
      vertex -15.4973 -3.97904 0
      vertex -14.8764 -5.88999 0
    endloop
  endfacet
  facet normal -0 0 1
    outer loop
      vertex -15.8738 2.00533 0
      vertex -15.4973 -3.97904 0
      vertex -15.4973 3.97904 0
    endloop
  endfacet
  facet normal 0 0 1
    outer loop
      vertex -15.8738 2.00533 0
      vertex -15.8738 -2.00533 0
      vertex -15.4973 -3.97904 0
    endloop
  endfacet
  facet normal 0 -0 1
    outer loop
      vertex -15.8738 -2.00533 0
      vertex -15.8738 2.00533 0
      vertex -16 0 0
    endloop
  endfacet
  facet normal -0.481759 0.876304 0
    outer loop
      vertex -6.81247 14.4772 -5
      vertex -8.57323 13.5092 0
      vertex -6.81247 14.4772 0
    endloop
  endfacet
  facet normal -0.481759 0.876304 0
    outer loop
      vertex -8.57323 13.5092 0
      vertex -6.81247 14.4772 -5
      vertex -8.57323 13.5092 -5
    endloop
  endfacet
  facet normal -0.58777 0.809028 0
    outer loop
      vertex -8.57323 13.5092 -5
      vertex -10.1988 12.3282 0
      vertex -8.57323 13.5092 0
    endloop
  endfacet
  facet normal -0.58777 0.809028 0
    outer loop
      vertex -10.1988 12.3282 0
      vertex -8.57323 13.5092 -5
      vertex -10.1988 12.3282 -5
    endloop
  endfacet
  facet normal -0.248694 0.968582 0
    outer loop
      vertex -2.9981 15.7166 -5
      vertex -4.94427 15.2169 0
      vertex -2.9981 15.7166 0
    endloop
  endfacet
  facet normal -0.248694 0.968582 0
    outer loop
      vertex -4.94427 15.2169 0
      vertex -2.9981 15.7166 -5
      vertex -4.94427 15.2169 -5
    endloop
  endfacet
  facet normal 0.998026 -0.062808 0
    outer loop
      vertex 15.8738 -2.00533 0
      vertex 16 0 -5
      vertex 16 0 0
    endloop
  endfacet
  facet normal 0.998026 -0.062808 0
    outer loop
      vertex 16 0 -5
      vertex 15.8738 -2.00533 0
      vertex 15.8738 -2.00533 -5
    endloop
  endfacet
  facet normal 0.904831 -0.425772 0
    outer loop
      vertex 14.0209 -7.70806 0
      vertex 14.8764 -5.88999 -5
      vertex 14.8764 -5.88999 0
    endloop
  endfacet
  facet normal 0.904831 -0.425772 0
    outer loop
      vertex 14.8764 -5.88999 -5
      vertex 14.0209 -7.70806 0
      vertex 14.0209 -7.70806 -5
    endloop
  endfacet
  facet normal -0.684535 -0.72898 0
    outer loop
      vertex -11.6635 -10.9528 -5
      vertex -10.1988 -12.3282 0
      vertex -11.6635 -10.9528 0
    endloop
  endfacet
  facet normal -0.684535 -0.72898 -0
    outer loop
      vertex -10.1988 -12.3282 0
      vertex -11.6635 -10.9528 -5
      vertex -10.1988 -12.3282 -5
    endloop
  endfacet
  facet normal -0.904831 -0.425772 0
    outer loop
      vertex -14.0209 -7.70806 -5
      vertex -14.8764 -5.88999 0
      vertex -14.8764 -5.88999 -5
    endloop
  endfacet
  facet normal -0.904831 -0.425772 0
    outer loop
      vertex -14.8764 -5.88999 0
      vertex -14.0209 -7.70806 -5
      vertex -14.0209 -7.70806 0
    endloop
  endfacet
  facet normal -0.844335 -0.535816 0
    outer loop
      vertex -12.9443 -9.40456 -5
      vertex -14.0209 -7.70806 0
      vertex -14.0209 -7.70806 -5
    endloop
  endfacet
  facet normal -0.844335 -0.535816 0
    outer loop
      vertex -14.0209 -7.70806 0
      vertex -12.9443 -9.40456 -5
      vertex -12.9443 -9.40456 0
    endloop
  endfacet
  facet normal 0 0 -1
    outer loop
      vertex 13.925 0 -5
      vertex 16 0 -5
      vertex 15.8738 -2.00533 -5
    endloop
  endfacet
  facet normal 0 0 -1
    outer loop
      vertex 13.8152 -1.74527 -5
      vertex 15.8738 -2.00533 -5
      vertex 15.4973 -3.97904 -5
    endloop
  endfacet
  facet normal 0 0 -1
    outer loop
      vertex 16 0 -5
      vertex 13.925 0 -5
      vertex 15.8738 2.00533 -5
    endloop
  endfacet
  facet normal 0 0 -1
    outer loop
      vertex 13.4875 -3.46301 -5
      vertex 15.4973 -3.97904 -5
      vertex 14.8764 -5.88999 -5
    endloop
  endfacet
  facet normal 0 0 -1
    outer loop
      vertex 13.8152 1.74527 -5
      vertex 15.8738 2.00533 -5
      vertex 13.925 0 -5
    endloop
  endfacet
  facet normal 0 0 -1
    outer loop
      vertex 12.9471 -5.12613 -5
      vertex 14.8764 -5.88999 -5
      vertex 14.0209 -7.70806 -5
    endloop
  endfacet
  facet normal -0 0 -1
    outer loop
      vertex 15.8738 2.00533 -5
      vertex 13.8152 1.74527 -5
      vertex 15.4973 3.97904 -5
    endloop
  endfacet
  facet normal 0 0 -1
    outer loop
      vertex 13.4875 3.46301 -5
      vertex 15.4973 3.97904 -5
      vertex 13.8152 1.74527 -5
    endloop
  endfacet
  facet normal 0 0 -1
    outer loop
      vertex 15.8738 -2.00533 -5
      vertex 13.8152 -1.74527 -5
      vertex 13.925 0 -5
    endloop
  endfacet
  facet normal 0 0 -1
    outer loop
      vertex 15.4973 -3.97904 -5
      vertex 13.4875 -3.46301 -5
      vertex 13.8152 -1.74527 -5
    endloop
  endfacet
  facet normal 0 0 -1
    outer loop
      vertex 14.8764 -5.88999 -5
      vertex 12.9471 -5.12613 -5
      vertex 13.4875 -3.46301 -5
    endloop
  endfacet
  facet normal 0 0 -1
    outer loop
      vertex 12.2026 -6.70842 -5
      vertex 14.0209 -7.70806 -5
      vertex 12.9443 -9.40456 -5
    endloop
  endfacet
  facet normal 0 0 -1
    outer loop
      vertex 14.0209 -7.70806 -5
      vertex 12.2026 -6.70842 -5
      vertex 12.9471 -5.12613 -5
    endloop
  endfacet
  facet normal 0 0 -1
    outer loop
      vertex 11.2656 -8.18491 -5
      vertex 12.9443 -9.40456 -5
      vertex 11.6635 -10.9528 -5
    endloop
  endfacet
  facet normal 0 0 -1
    outer loop
      vertex 12.9443 -9.40456 -5
      vertex 11.2656 -8.18491 -5
      vertex 12.2026 -6.70842 -5
    endloop
  endfacet
  facet normal 0 0 -1
    outer loop
      vertex 10.1509 -9.53232 -5
      vertex 11.6635 -10.9528 -5
      vertex 10.1988 -12.3282 -5
    endloop
  endfacet
  facet normal 0 0 -1
    outer loop
      vertex 11.6635 -10.9528 -5
      vertex 10.1509 -9.53232 -5
      vertex 11.2656 -8.18491 -5
    endloop
  endfacet
  facet normal 0 0 -1
    outer loop
      vertex 10.1988 -12.3282 -5
      vertex 8.87613 -10.7294 -5
      vertex 10.1509 -9.53232 -5
    endloop
  endfacet
  facet normal 0 0 -1
    outer loop
      vertex 8.57323 -13.5092 -5
      vertex 8.87613 -10.7294 -5
      vertex 10.1988 -12.3282 -5
    endloop
  endfacet
  facet normal 0 0 -1
    outer loop
      vertex 8.57323 -13.5092 -5
      vertex 7.46139 -11.7573 -5
      vertex 8.87613 -10.7294 -5
    endloop
  endfacet
  facet normal 0 0 -1
    outer loop
      vertex 6.81247 -14.4772 -5
      vertex 7.46139 -11.7573 -5
      vertex 8.57323 -13.5092 -5
    endloop
  endfacet
  facet normal 0 0 -1
    outer loop
      vertex 6.81247 -14.4772 -5
      vertex 5.92898 -12.5997 -5
      vertex 7.46139 -11.7573 -5
    endloop
  endfacet
  facet normal 0 0 -1
    outer loop
      vertex 4.94427 -15.2169 -5
      vertex 5.92898 -12.5997 -5
      vertex 6.81247 -14.4772 -5
    endloop
  endfacet
  facet normal 0 0 -1
    outer loop
      vertex 4.94427 -15.2169 -5
      vertex 4.30306 -13.2435 -5
      vertex 5.92898 -12.5997 -5
    endloop
  endfacet
  facet normal 0 0 -1
    outer loop
      vertex 2.9981 -15.7166 -5
      vertex 4.30306 -13.2435 -5
      vertex 4.94427 -15.2169 -5
    endloop
  endfacet
  facet normal 0 0 -1
    outer loop
      vertex 2.9981 -15.7166 -5
      vertex 2.60928 -13.6783 -5
      vertex 4.30306 -13.2435 -5
    endloop
  endfacet
  facet normal 0 0 -1
    outer loop
      vertex 1.00465 -15.9684 -5
      vertex 2.60928 -13.6783 -5
      vertex 2.9981 -15.7166 -5
    endloop
  endfacet
  facet normal 0 0 -1
    outer loop
      vertex 1.00465 -15.9684 -5
      vertex 0.874357 -13.8975 -5
      vertex 2.60928 -13.6783 -5
    endloop
  endfacet
  facet normal 0 0 -1
    outer loop
      vertex 1.00465 -15.9684 -5
      vertex -0.874357 -13.8975 -5
      vertex 0.874357 -13.8975 -5
    endloop
  endfacet
  facet normal 0 0 -1
    outer loop
      vertex -1.00465 -15.9684 -5
      vertex -0.874357 -13.8975 -5
      vertex 1.00465 -15.9684 -5
    endloop
  endfacet
  facet normal 0 0 -1
    outer loop
      vertex -1.00465 -15.9684 -5
      vertex -2.60928 -13.6783 -5
      vertex -0.874357 -13.8975 -5
    endloop
  endfacet
  facet normal 0 0 -1
    outer loop
      vertex -2.9981 -15.7166 -5
      vertex -2.60928 -13.6783 -5
      vertex -1.00465 -15.9684 -5
    endloop
  endfacet
  facet normal 0 0 -1
    outer loop
      vertex -2.9981 -15.7166 -5
      vertex -4.30306 -13.2435 -5
      vertex -2.60928 -13.6783 -5
    endloop
  endfacet
  facet normal 0 0 -1
    outer loop
      vertex -4.94427 -15.2169 -5
      vertex -4.30306 -13.2435 -5
      vertex -2.9981 -15.7166 -5
    endloop
  endfacet
  facet normal 0 0 -1
    outer loop
      vertex -4.94427 -15.2169 -5
      vertex -5.92898 -12.5997 -5
      vertex -4.30306 -13.2435 -5
    endloop
  endfacet
  facet normal 0 0 -1
    outer loop
      vertex -6.81247 -14.4772 -5
      vertex -5.92898 -12.5997 -5
      vertex -4.94427 -15.2169 -5
    endloop
  endfacet
  facet normal 0 0 -1
    outer loop
      vertex -6.81247 -14.4772 -5
      vertex -7.46139 -11.7573 -5
      vertex -5.92898 -12.5997 -5
    endloop
  endfacet
  facet normal 0 0 -1
    outer loop
      vertex -8.57323 -13.5092 -5
      vertex -7.46139 -11.7573 -5
      vertex -6.81247 -14.4772 -5
    endloop
  endfacet
  facet normal 0 0 -1
    outer loop
      vertex -8.57323 -13.5092 -5
      vertex -8.87613 -10.7294 -5
      vertex -7.46139 -11.7573 -5
    endloop
  endfacet
  facet normal 0 0 -1
    outer loop
      vertex -10.1988 -12.3282 -5
      vertex -8.87613 -10.7294 -5
      vertex -8.57323 -13.5092 -5
    endloop
  endfacet
  facet normal -0 0 -1
    outer loop
      vertex -8.87613 -10.7294 -5
      vertex -10.1988 -12.3282 -5
      vertex -10.1509 -9.53232 -5
    endloop
  endfacet
  facet normal 0 0 -1
    outer loop
      vertex -11.6635 -10.9528 -5
      vertex -10.1509 -9.53232 -5
      vertex -10.1988 -12.3282 -5
    endloop
  endfacet
  facet normal -0 0 -1
    outer loop
      vertex -10.1509 -9.53232 -5
      vertex -11.6635 -10.9528 -5
      vertex -11.2656 -8.18491 -5
    endloop
  endfacet
  facet normal 0 0 -1
    outer loop
      vertex -12.9443 -9.40456 -5
      vertex -11.2656 -8.18491 -5
      vertex -11.6635 -10.9528 -5
    endloop
  endfacet
  facet normal -0 0 -1
    outer loop
      vertex -11.2656 -8.18491 -5
      vertex -12.9443 -9.40456 -5
      vertex -12.2026 -6.70842 -5
    endloop
  endfacet
  facet normal 0 0 -1
    outer loop
      vertex -14.0209 -7.70806 -5
      vertex -12.2026 -6.70842 -5
      vertex -12.9443 -9.40456 -5
    endloop
  endfacet
  facet normal -0 0 -1
    outer loop
      vertex -12.2026 -6.70842 -5
      vertex -14.0209 -7.70806 -5
      vertex -12.9471 -5.12613 -5
    endloop
  endfacet
  facet normal 0 0 -1
    outer loop
      vertex -14.8764 -5.88999 -5
      vertex -12.9471 -5.12613 -5
      vertex -14.0209 -7.70806 -5
    endloop
  endfacet
  facet normal 0 0 -1
    outer loop
      vertex -15.4973 -3.97904 -5
      vertex -13.4875 -3.46301 -5
      vertex -14.8764 -5.88999 -5
    endloop
  endfacet
  facet normal -0 0 -1
    outer loop
      vertex -12.9471 -5.12613 -5
      vertex -14.8764 -5.88999 -5
      vertex -13.4875 -3.46301 -5
    endloop
  endfacet
  facet normal -0 0 -1
    outer loop
      vertex 15.4973 3.97904 -5
      vertex 13.4875 3.46301 -5
      vertex 14.8764 5.88999 -5
    endloop
  endfacet
  facet normal 0 0 -1
    outer loop
      vertex 12.9471 5.12613 -5
      vertex 14.8764 5.88999 -5
      vertex 13.4875 3.46301 -5
    endloop
  endfacet
  facet normal -0 0 -1
    outer loop
      vertex 14.8764 5.88999 -5
      vertex 12.9471 5.12613 -5
      vertex 14.0209 7.70806 -5
    endloop
  endfacet
  facet normal 0 0 -1
    outer loop
      vertex 12.2026 6.70842 -5
      vertex 14.0209 7.70806 -5
      vertex 12.9471 5.12613 -5
    endloop
  endfacet
  facet normal -0 0 -1
    outer loop
      vertex 14.0209 7.70806 -5
      vertex 12.2026 6.70842 -5
      vertex 12.9443 9.40456 -5
    endloop
  endfacet
  facet normal 0 0 -1
    outer loop
      vertex 11.2656 8.18491 -5
      vertex 12.9443 9.40456 -5
      vertex 12.2026 6.70842 -5
    endloop
  endfacet
  facet normal -0 0 -1
    outer loop
      vertex 12.9443 9.40456 -5
      vertex 11.2656 8.18491 -5
      vertex 11.6635 10.9528 -5
    endloop
  endfacet
  facet normal 0 0 -1
    outer loop
      vertex 10.1509 9.53232 -5
      vertex 11.6635 10.9528 -5
      vertex 11.2656 8.18491 -5
    endloop
  endfacet
  facet normal -0 0 -1
    outer loop
      vertex 11.6635 10.9528 -5
      vertex 10.1509 9.53232 -5
      vertex 10.1988 12.3282 -5
    endloop
  endfacet
  facet normal 0 0 -1
    outer loop
      vertex 8.87613 10.7294 -5
      vertex 10.1988 12.3282 -5
      vertex 10.1509 9.53232 -5
    endloop
  endfacet
  facet normal 0 0 -1
    outer loop
      vertex 8.87613 10.7294 -5
      vertex 8.57323 13.5092 -5
      vertex 10.1988 12.3282 -5
    endloop
  endfacet
  facet normal 0 0 -1
    outer loop
      vertex 7.46139 11.7573 -5
      vertex 8.57323 13.5092 -5
      vertex 8.87613 10.7294 -5
    endloop
  endfacet
  facet normal 0 0 -1
    outer loop
      vertex 7.46139 11.7573 -5
      vertex 6.81247 14.4772 -5
      vertex 8.57323 13.5092 -5
    endloop
  endfacet
  facet normal 0 0 -1
    outer loop
      vertex 5.92898 12.5997 -5
      vertex 6.81247 14.4772 -5
      vertex 7.46139 11.7573 -5
    endloop
  endfacet
  facet normal 0 0 -1
    outer loop
      vertex 5.92898 12.5997 -5
      vertex 4.94427 15.2169 -5
      vertex 6.81247 14.4772 -5
    endloop
  endfacet
  facet normal 0 0 -1
    outer loop
      vertex 4.30306 13.2435 -5
      vertex 4.94427 15.2169 -5
      vertex 5.92898 12.5997 -5
    endloop
  endfacet
  facet normal 0 0 -1
    outer loop
      vertex 4.30306 13.2435 -5
      vertex 2.9981 15.7166 -5
      vertex 4.94427 15.2169 -5
    endloop
  endfacet
  facet normal 0 0 -1
    outer loop
      vertex 2.60928 13.6783 -5
      vertex 2.9981 15.7166 -5
      vertex 4.30306 13.2435 -5
    endloop
  endfacet
  facet normal 0 0 -1
    outer loop
      vertex 2.60928 13.6783 -5
      vertex 1.00465 15.9684 -5
      vertex 2.9981 15.7166 -5
    endloop
  endfacet
  facet normal 0 0 -1
    outer loop
      vertex 0.874357 13.8975 -5
      vertex 1.00465 15.9684 -5
      vertex 2.60928 13.6783 -5
    endloop
  endfacet
  facet normal 0 0 -1
    outer loop
      vertex -0.874357 13.8975 -5
      vertex 1.00465 15.9684 -5
      vertex 0.874357 13.8975 -5
    endloop
  endfacet
  facet normal 0 0 -1
    outer loop
      vertex -0.874357 13.8975 -5
      vertex -1.00465 15.9684 -5
      vertex 1.00465 15.9684 -5
    endloop
  endfacet
  facet normal 0 0 -1
    outer loop
      vertex -2.60928 13.6783 -5
      vertex -1.00465 15.9684 -5
      vertex -0.874357 13.8975 -5
    endloop
  endfacet
  facet normal 0 0 -1
    outer loop
      vertex -2.60928 13.6783 -5
      vertex -2.9981 15.7166 -5
      vertex -1.00465 15.9684 -5
    endloop
  endfacet
  facet normal 0 0 -1
    outer loop
      vertex -4.30306 13.2435 -5
      vertex -2.9981 15.7166 -5
      vertex -2.60928 13.6783 -5
    endloop
  endfacet
  facet normal 0 0 -1
    outer loop
      vertex -4.30306 13.2435 -5
      vertex -4.94427 15.2169 -5
      vertex -2.9981 15.7166 -5
    endloop
  endfacet
  facet normal 0 0 -1
    outer loop
      vertex -5.92898 12.5997 -5
      vertex -4.94427 15.2169 -5
      vertex -4.30306 13.2435 -5
    endloop
  endfacet
  facet normal 0 0 -1
    outer loop
      vertex -5.92898 12.5997 -5
      vertex -6.81247 14.4772 -5
      vertex -4.94427 15.2169 -5
    endloop
  endfacet
  facet normal 0 0 -1
    outer loop
      vertex -7.46139 11.7573 -5
      vertex -6.81247 14.4772 -5
      vertex -5.92898 12.5997 -5
    endloop
  endfacet
  facet normal 0 0 -1
    outer loop
      vertex -7.46139 11.7573 -5
      vertex -8.57323 13.5092 -5
      vertex -6.81247 14.4772 -5
    endloop
  endfacet
  facet normal 0 0 -1
    outer loop
      vertex -8.87613 10.7294 -5
      vertex -8.57323 13.5092 -5
      vertex -7.46139 11.7573 -5
    endloop
  endfacet
  facet normal 0 0 -1
    outer loop
      vertex -10.1988 12.3282 -5
      vertex -8.87613 10.7294 -5
      vertex -10.1509 9.53232 -5
    endloop
  endfacet
  facet normal 0 0 -1
    outer loop
      vertex -8.87613 10.7294 -5
      vertex -10.1988 12.3282 -5
      vertex -8.57323 13.5092 -5
    endloop
  endfacet
  facet normal 0 0 -1
    outer loop
      vertex -11.6635 10.9528 -5
      vertex -10.1509 9.53232 -5
      vertex -11.2656 8.18491 -5
    endloop
  endfacet
  facet normal 0 0 -1
    outer loop
      vertex -10.1509 9.53232 -5
      vertex -11.6635 10.9528 -5
      vertex -10.1988 12.3282 -5
    endloop
  endfacet
  facet normal 0 0 -1
    outer loop
      vertex -12.9443 9.40456 -5
      vertex -11.2656 8.18491 -5
      vertex -12.2026 6.70842 -5
    endloop
  endfacet
  facet normal 0 0 -1
    outer loop
      vertex -11.2656 8.18491 -5
      vertex -12.9443 9.40456 -5
      vertex -11.6635 10.9528 -5
    endloop
  endfacet
  facet normal 0 0 -1
    outer loop
      vertex -14.0209 7.70806 -5
      vertex -12.2026 6.70842 -5
      vertex -12.9471 5.12613 -5
    endloop
  endfacet
  facet normal 0 0 -1
    outer loop
      vertex -14.8764 5.88999 -5
      vertex -12.9471 5.12613 -5
      vertex -13.4875 3.46301 -5
    endloop
  endfacet
  facet normal 0 0 -1
    outer loop
      vertex -15.4973 3.97904 -5
      vertex -13.4875 3.46301 -5
      vertex -13.8152 1.74527 -5
    endloop
  endfacet
  facet normal 0 0 -1
    outer loop
      vertex -12.2026 6.70842 -5
      vertex -14.0209 7.70806 -5
      vertex -12.9443 9.40456 -5
    endloop
  endfacet
  facet normal 0 0 -1
    outer loop
      vertex -15.8738 2.00533 -5
      vertex -13.8152 1.74527 -5
      vertex -13.925 0 -5
    endloop
  endfacet
  facet normal -0 0 -1
    outer loop
      vertex -13.4875 -3.46301 -5
      vertex -15.4973 -3.97904 -5
      vertex -13.8152 -1.74527 -5
    endloop
  endfacet
  facet normal 0 0 -1
    outer loop
      vertex -15.8738 -2.00533 -5
      vertex -13.8152 -1.74527 -5
      vertex -15.4973 -3.97904 -5
    endloop
  endfacet
  facet normal 0 0 -1
    outer loop
      vertex -12.9471 5.12613 -5
      vertex -14.8764 5.88999 -5
      vertex -14.0209 7.70806 -5
    endloop
  endfacet
  facet normal -0 0 -1
    outer loop
      vertex -13.8152 -1.74527 -5
      vertex -15.8738 -2.00533 -5
      vertex -13.925 0 -5
    endloop
  endfacet
  facet normal 0 0 -1
    outer loop
      vertex -13.4875 3.46301 -5
      vertex -15.4973 3.97904 -5
      vertex -14.8764 5.88999 -5
    endloop
  endfacet
  facet normal 0 0 -1
    outer loop
      vertex -16 0 -5
      vertex -13.925 0 -5
      vertex -15.8738 -2.00533 -5
    endloop
  endfacet
  facet normal 0 0 -1
    outer loop
      vertex -13.8152 1.74527 -5
      vertex -15.8738 2.00533 -5
      vertex -15.4973 3.97904 -5
    endloop
  endfacet
  facet normal 0 0 -1
    outer loop
      vertex -13.925 0 -5
      vertex -16 0 -5
      vertex -15.8738 2.00533 -5
    endloop
  endfacet
  facet normal 0.481759 -0.876304 0
    outer loop
      vertex 6.81247 -14.4772 -5
      vertex 8.57323 -13.5092 0
      vertex 6.81247 -14.4772 0
    endloop
  endfacet
  facet normal 0.481759 -0.876304 0
    outer loop
      vertex 8.57323 -13.5092 0
      vertex 6.81247 -14.4772 -5
      vertex 8.57323 -13.5092 -5
    endloop
  endfacet
  facet normal 0.951057 -0.309015 0
    outer loop
      vertex 14.8764 -5.88999 0
      vertex 15.4973 -3.97904 -5
      vertex 15.4973 -3.97904 0
    endloop
  endfacet
  facet normal 0.951057 -0.309015 0
    outer loop
      vertex 15.4973 -3.97904 -5
      vertex 14.8764 -5.88999 0
      vertex 14.8764 -5.88999 -5
    endloop
  endfacet
  facet normal -0.770517 -0.637419 0
    outer loop
      vertex -11.6635 -10.9528 -5
      vertex -12.9443 -9.40456 0
      vertex -12.9443 -9.40456 -5
    endloop
  endfacet
  facet normal -0.770517 -0.637419 0
    outer loop
      vertex -12.9443 -9.40456 0
      vertex -11.6635 -10.9528 -5
      vertex -11.6635 -10.9528 0
    endloop
  endfacet
  facet normal -0.951057 -0.309015 0
    outer loop
      vertex -14.8764 -5.88999 -5
      vertex -15.4973 -3.97904 0
      vertex -15.4973 -3.97904 -5
    endloop
  endfacet
  facet normal -0.951057 -0.309015 0
    outer loop
      vertex -15.4973 -3.97904 0
      vertex -14.8764 -5.88999 -5
      vertex -14.8764 -5.88999 0
    endloop
  endfacet
  facet normal 0.684535 -0.72898 0
    outer loop
      vertex 10.1988 -12.3282 -5
      vertex 11.6635 -10.9528 0
      vertex 10.1988 -12.3282 0
    endloop
  endfacet
  facet normal 0.684535 -0.72898 0
    outer loop
      vertex 11.6635 -10.9528 0
      vertex 10.1988 -12.3282 -5
      vertex 11.6635 -10.9528 -5
    endloop
  endfacet
  facet normal 0.368136 -0.929772 0
    outer loop
      vertex 4.94427 -15.2169 -5
      vertex 6.81247 -14.4772 0
      vertex 4.94427 -15.2169 0
    endloop
  endfacet
  facet normal 0.368136 -0.929772 0
    outer loop
      vertex 6.81247 -14.4772 0
      vertex 4.94427 -15.2169 -5
      vertex 6.81247 -14.4772 -5
    endloop
  endfacet
  facet normal 0.248694 -0.968582 0
    outer loop
      vertex 2.9981 -15.7166 -5
      vertex 4.94427 -15.2169 0
      vertex 2.9981 -15.7166 0
    endloop
  endfacet
  facet normal 0.248694 -0.968582 0
    outer loop
      vertex 4.94427 -15.2169 0
      vertex 2.9981 -15.7166 -5
      vertex 4.94427 -15.2169 -5
    endloop
  endfacet
  facet normal 0.844335 -0.535816 0
    outer loop
      vertex 12.9443 -9.40456 0
      vertex 14.0209 -7.70806 -5
      vertex 14.0209 -7.70806 0
    endloop
  endfacet
  facet normal 0.844335 -0.535816 0
    outer loop
      vertex 14.0209 -7.70806 -5
      vertex 12.9443 -9.40456 0
      vertex 12.9443 -9.40456 -5
    endloop
  endfacet
  facet normal 0.770517 -0.637419 0
    outer loop
      vertex 11.6635 -10.9528 0
      vertex 12.9443 -9.40456 -5
      vertex 12.9443 -9.40456 0
    endloop
  endfacet
  facet normal 0.770517 -0.637419 0
    outer loop
      vertex 12.9443 -9.40456 -5
      vertex 11.6635 -10.9528 0
      vertex 11.6635 -10.9528 -5
    endloop
  endfacet
  facet normal -0.125318 -0.992117 0
    outer loop
      vertex -2.9981 -15.7166 -5
      vertex -1.00465 -15.9684 0
      vertex -2.9981 -15.7166 0
    endloop
  endfacet
  facet normal -0.125318 -0.992117 -0
    outer loop
      vertex -1.00465 -15.9684 0
      vertex -2.9981 -15.7166 -5
      vertex -1.00465 -15.9684 -5
    endloop
  endfacet
  facet normal -0.368136 -0.929772 0
    outer loop
      vertex -6.81247 -14.4772 -5
      vertex -4.94427 -15.2169 0
      vertex -6.81247 -14.4772 0
    endloop
  endfacet
  facet normal -0.368136 -0.929772 -0
    outer loop
      vertex -4.94427 -15.2169 0
      vertex -6.81247 -14.4772 -5
      vertex -4.94427 -15.2169 -5
    endloop
  endfacet
  facet normal -0.248694 -0.968582 0
    outer loop
      vertex -4.94427 -15.2169 -5
      vertex -2.9981 -15.7166 0
      vertex -4.94427 -15.2169 0
    endloop
  endfacet
  facet normal -0.248694 -0.968582 -0
    outer loop
      vertex -2.9981 -15.7166 0
      vertex -4.94427 -15.2169 -5
      vertex -2.9981 -15.7166 -5
    endloop
  endfacet
  facet normal -0.982288 -0.187379 0
    outer loop
      vertex -15.4973 -3.97904 -5
      vertex -15.8738 -2.00533 0
      vertex -15.8738 -2.00533 -5
    endloop
  endfacet
  facet normal -0.982288 -0.187379 0
    outer loop
      vertex -15.8738 -2.00533 0
      vertex -15.4973 -3.97904 -5
      vertex -15.4973 -3.97904 0
    endloop
  endfacet
  facet normal -0.998026 -0.062808 0
    outer loop
      vertex -15.8738 -2.00533 -5
      vertex -16 0 0
      vertex -16 0 -5
    endloop
  endfacet
  facet normal -0.998026 -0.062808 0
    outer loop
      vertex -16 0 0
      vertex -15.8738 -2.00533 -5
      vertex -15.8738 -2.00533 0
    endloop
  endfacet
  facet normal 0.58777 -0.809028 0
    outer loop
      vertex 8.57323 -13.5092 -5
      vertex 10.1988 -12.3282 0
      vertex 8.57323 -13.5092 0
    endloop
  endfacet
  facet normal 0.58777 -0.809028 0
    outer loop
      vertex 10.1988 -12.3282 0
      vertex 8.57323 -13.5092 -5
      vertex 10.1988 -12.3282 -5
    endloop
  endfacet
  facet normal -0.481759 -0.876304 0
    outer loop
      vertex -8.57323 -13.5092 -5
      vertex -6.81247 -14.4772 0
      vertex -8.57323 -13.5092 0
    endloop
  endfacet
  facet normal -0.481759 -0.876304 -0
    outer loop
      vertex -6.81247 -14.4772 0
      vertex -8.57323 -13.5092 -5
      vertex -6.81247 -14.4772 -5
    endloop
  endfacet
  facet normal -0.58777 -0.809028 0
    outer loop
      vertex -10.1988 -12.3282 -5
      vertex -8.57323 -13.5092 0
      vertex -10.1988 -12.3282 0
    endloop
  endfacet
  facet normal -0.58777 -0.809028 -0
    outer loop
      vertex -8.57323 -13.5092 0
      vertex -10.1988 -12.3282 -5
      vertex -8.57323 -13.5092 -5
    endloop
  endfacet
  facet normal -0.996787 -0.0627107 0.0498393
    outer loop
      vertex 13.925 0 -5
      vertex 14.075 0 -2
      vertex 13.8152 1.74527 -5
    endloop
  endfacet
  facet normal -0.683694 0.728065 0.0498441
    outer loop
      vertex 8.97174 -10.845 -2
      vertex 10.1509 -9.53232 -5
      vertex 8.87613 -10.7294 -5
    endloop
  endfacet
  facet normal 0.587066 -0.808003 0.0498448
    outer loop
      vertex -8.87613 10.7294 -5
      vertex -7.46139 11.7573 -5
      vertex -8.97174 10.845 -2
    endloop
  endfacet
  facet normal -0.949875 -0.308631 0.04985
    outer loop
      vertex 13.6328 3.50031 -2
      vertex 13.0866 5.18135 -2
      vertex 12.9471 5.12613 -5
    endloop
  endfacet
  facet normal -0.903701 0.425256 0.0498251
    outer loop
      vertex 12.334 -6.78068 -2
      vertex 13.0866 -5.18135 -2
      vertex 12.2026 -6.70842 -5
    endloop
  endfacet
  facet normal 0.949875 0.308631 0.04985
    outer loop
      vertex -13.0866 -5.18135 -2
      vertex -12.9471 -5.12613 -5
      vertex -13.6328 -3.50031 -2
    endloop
  endfacet
  facet normal 0.683694 -0.728065 0.0498441
    outer loop
      vertex -8.87613 10.7294 -5
      vertex -8.97174 10.845 -2
      vertex -10.1509 9.53232 -5
    endloop
  endfacet
  facet normal -0.769549 -0.636641 0.0498273
    outer loop
      vertex 11.2656 8.18491 -5
      vertex 10.2602 9.635 -2
      vertex 10.1509 9.53232 -5
    endloop
  endfacet
  facet normal -0.949871 0.308643 0.0498429
    outer loop
      vertex 13.6328 -3.50031 -2
      vertex 13.4875 -3.46301 -5
      vertex 12.9471 -5.12613 -5
    endloop
  endfacet
  facet normal -0.683713 0.728047 0.0498286
    outer loop
      vertex 10.2602 -9.635 -2
      vertex 10.1509 -9.53232 -5
      vertex 8.97174 -10.845 -2
    endloop
  endfacet
  facet normal 0 0.998757 0.049838
    outer loop
      vertex 0.874357 -13.8975 -5
      vertex -0.883776 -14.0472 -2
      vertex 0.883776 -14.0472 -2
    endloop
  endfacet
  facet normal 0 0.998757 0.049838
    outer loop
      vertex -0.883776 -14.0472 -2
      vertex 0.874357 -13.8975 -5
      vertex -0.874357 -13.8975 -5
    endloop
  endfacet
  facet normal 0.683713 0.728047 0.0498286
    outer loop
      vertex -8.97174 -10.845 -2
      vertex -10.1509 -9.53232 -5
      vertex -10.2602 -9.635 -2
    endloop
  endfacet
  facet normal 0.683713 -0.728047 0.0498286
    outer loop
      vertex -10.1509 9.53232 -5
      vertex -8.97174 10.845 -2
      vertex -10.2602 9.635 -2
    endloop
  endfacet
  facet normal 0.367677 -0.928618 0.0498209
    outer loop
      vertex -4.30306 13.2435 -5
      vertex -4.34941 13.3861 -2
      vertex -5.99284 12.7354 -2
    endloop
  endfacet
  facet normal 0.949871 -0.308643 0.0498429
    outer loop
      vertex -13.4875 3.46301 -5
      vertex -12.9471 5.12613 -5
      vertex -13.6328 3.50031 -2
    endloop
  endfacet
  facet normal -0.248395 -0.967375 0.0498578
    outer loop
      vertex 4.34941 13.3861 -2
      vertex 2.63739 13.8257 -2
      vertex 2.60928 13.6783 -5
    endloop
  endfacet
  facet normal -0.683713 -0.728047 0.0498286
    outer loop
      vertex 10.1509 9.53232 -5
      vertex 10.2602 9.635 -2
      vertex 8.97174 10.845 -2
    endloop
  endfacet
  facet normal -0.903701 -0.425256 0.0498251
    outer loop
      vertex 13.0866 5.18135 -2
      vertex 12.334 6.78068 -2
      vertex 12.2026 6.70842 -5
    endloop
  endfacet
  facet normal -0.248333 -0.967393 0.0498201
    outer loop
      vertex 4.30306 13.2435 -5
      vertex 4.34941 13.3861 -2
      vertex 2.60928 13.6783 -5
    endloop
  endfacet
  facet normal -0.367677 -0.928618 0.0498209
    outer loop
      vertex 5.99284 12.7354 -2
      vertex 4.34941 13.3861 -2
      vertex 4.30306 13.2435 -5
    endloop
  endfacet
  facet normal -0.996786 -0.0627208 0.0498334
    outer loop
      vertex 14.075 0 -2
      vertex 13.964 1.76406 -2
      vertex 13.8152 1.74527 -5
    endloop
  endfacet
  facet normal -0.981068 -0.187144 0.0498331
    outer loop
      vertex 13.8152 1.74527 -5
      vertex 13.964 1.76406 -2
      vertex 13.6328 3.50031 -2
    endloop
  endfacet
  facet normal -0.996787 0.0627107 0.0498393
    outer loop
      vertex 14.075 0 -2
      vertex 13.925 0 -5
      vertex 13.8152 -1.74527 -5
    endloop
  endfacet
  facet normal -0.843282 0.535158 0.049825
    outer loop
      vertex 11.3869 -8.27308 -2
      vertex 12.2026 -6.70842 -5
      vertex 11.2656 -8.18491 -5
    endloop
  endfacet
  facet normal -0.587066 0.808003 0.0498448
    outer loop
      vertex 8.97174 -10.845 -2
      vertex 8.87613 -10.7294 -5
      vertex 7.46139 -11.7573 -5
    endloop
  endfacet
  facet normal -0.58704 0.808023 0.0498254
    outer loop
      vertex 7.54176 -11.8839 -2
      vertex 8.97174 -10.845 -2
      vertex 7.46139 -11.7573 -5
    endloop
  endfacet
  facet normal -0.481133 0.87523 0.0498313
    outer loop
      vertex 5.99284 -12.7354 -2
      vertex 7.46139 -11.7573 -5
      vertex 5.92898 -12.5997 -5
    endloop
  endfacet
  facet normal -0.367677 0.928618 0.0498209
    outer loop
      vertex 4.34941 -13.3861 -2
      vertex 5.99284 -12.7354 -2
      vertex 4.30306 -13.2435 -5
    endloop
  endfacet
  facet normal 0.996787 0.0627107 0.0498393
    outer loop
      vertex -13.8152 -1.74527 -5
      vertex -13.925 0 -5
      vertex -14.075 0 -2
    endloop
  endfacet
  facet normal 0.843281 0.535159 0.0498259
    outer loop
      vertex -11.3869 -8.27308 -2
      vertex -12.2026 -6.70842 -5
      vertex -12.334 -6.78068 -2
    endloop
  endfacet
  facet normal 0.248333 0.967393 0.0498201
    outer loop
      vertex -2.60928 -13.6783 -5
      vertex -4.30306 -13.2435 -5
      vertex -4.34941 -13.3861 -2
    endloop
  endfacet
  facet normal 0.996787 -0.0627107 0.0498393
    outer loop
      vertex -13.925 0 -5
      vertex -13.8152 1.74527 -5
      vertex -14.075 0 -2
    endloop
  endfacet
  facet normal 0 0 -1
    outer loop
      vertex 13.964 -1.76406 -2
      vertex 13.964 1.76406 -2
      vertex 14.075 0 -2
    endloop
  endfacet
  facet normal 0 0 -1
    outer loop
      vertex 13.6328 -3.50031 -2
      vertex 13.964 1.76406 -2
      vertex 13.964 -1.76406 -2
    endloop
  endfacet
  facet normal 0 0 -1
    outer loop
      vertex 13.6328 -3.50031 -2
      vertex 13.6328 3.50031 -2
      vertex 13.964 1.76406 -2
    endloop
  endfacet
  facet normal 0 0 -1
    outer loop
      vertex 13.0866 -5.18135 -2
      vertex 13.6328 3.50031 -2
      vertex 13.6328 -3.50031 -2
    endloop
  endfacet
  facet normal 0 0 -1
    outer loop
      vertex 13.0866 -5.18135 -2
      vertex 13.0866 5.18135 -2
      vertex 13.6328 3.50031 -2
    endloop
  endfacet
  facet normal 0 0 -1
    outer loop
      vertex 12.334 -6.78068 -2
      vertex 13.0866 5.18135 -2
      vertex 13.0866 -5.18135 -2
    endloop
  endfacet
  facet normal 0 0 -1
    outer loop
      vertex 12.334 -6.78068 -2
      vertex 12.334 6.78068 -2
      vertex 13.0866 5.18135 -2
    endloop
  endfacet
  facet normal 0 0 -1
    outer loop
      vertex 11.3869 -8.27308 -2
      vertex 12.334 6.78068 -2
      vertex 12.334 -6.78068 -2
    endloop
  endfacet
  facet normal 0 0 -1
    outer loop
      vertex 11.3869 -8.27308 -2
      vertex 11.3869 8.27308 -2
      vertex 12.334 6.78068 -2
    endloop
  endfacet
  facet normal 0 0 -1
    outer loop
      vertex 10.2602 -9.635 -2
      vertex 11.3869 8.27308 -2
      vertex 11.3869 -8.27308 -2
    endloop
  endfacet
  facet normal 0 0 -1
    outer loop
      vertex 10.2602 -9.635 -2
      vertex 10.2602 9.635 -2
      vertex 11.3869 8.27308 -2
    endloop
  endfacet
  facet normal 0 0 -1
    outer loop
      vertex 8.97174 -10.845 -2
      vertex 10.2602 9.635 -2
      vertex 10.2602 -9.635 -2
    endloop
  endfacet
  facet normal 0 0 -1
    outer loop
      vertex 8.97174 -10.845 -2
      vertex 8.97174 10.845 -2
      vertex 10.2602 9.635 -2
    endloop
  endfacet
  facet normal 0 0 -1
    outer loop
      vertex 7.54176 -11.8839 -2
      vertex 8.97174 10.845 -2
      vertex 8.97174 -10.845 -2
    endloop
  endfacet
  facet normal 0 0 -1
    outer loop
      vertex 7.54176 -11.8839 -2
      vertex 7.54176 11.8839 -2
      vertex 8.97174 10.845 -2
    endloop
  endfacet
  facet normal 0 0 -1
    outer loop
      vertex 5.99284 -12.7354 -2
      vertex 7.54176 11.8839 -2
      vertex 7.54176 -11.8839 -2
    endloop
  endfacet
  facet normal 0 0 -1
    outer loop
      vertex 5.99284 -12.7354 -2
      vertex 5.99284 12.7354 -2
      vertex 7.54176 11.8839 -2
    endloop
  endfacet
  facet normal 0 0 -1
    outer loop
      vertex 4.34941 -13.3861 -2
      vertex 5.99284 12.7354 -2
      vertex 5.99284 -12.7354 -2
    endloop
  endfacet
  facet normal 0 0 -1
    outer loop
      vertex 4.34941 -13.3861 -2
      vertex 4.34941 13.3861 -2
      vertex 5.99284 12.7354 -2
    endloop
  endfacet
  facet normal 0 0 -1
    outer loop
      vertex 2.63739 -13.8257 -2
      vertex 4.34941 13.3861 -2
      vertex 4.34941 -13.3861 -2
    endloop
  endfacet
  facet normal 0 0 -1
    outer loop
      vertex 2.63739 -13.8257 -2
      vertex 2.63739 13.8257 -2
      vertex 4.34941 13.3861 -2
    endloop
  endfacet
  facet normal 0 0 -1
    outer loop
      vertex 0.883776 -14.0472 -2
      vertex 2.63739 13.8257 -2
      vertex 2.63739 -13.8257 -2
    endloop
  endfacet
  facet normal 0 0 -1
    outer loop
      vertex 0.883776 -14.0472 -2
      vertex 0.883776 14.0472 -2
      vertex 2.63739 13.8257 -2
    endloop
  endfacet
  facet normal 0 0 -1
    outer loop
      vertex -0.883776 -14.0472 -2
      vertex 0.883776 14.0472 -2
      vertex 0.883776 -14.0472 -2
    endloop
  endfacet
  facet normal 0 0 -1
    outer loop
      vertex -0.883776 -14.0472 -2
      vertex -0.883776 14.0472 -2
      vertex 0.883776 14.0472 -2
    endloop
  endfacet
  facet normal 0 0 -1
    outer loop
      vertex -2.63739 -13.8257 -2
      vertex -0.883776 14.0472 -2
      vertex -0.883776 -14.0472 -2
    endloop
  endfacet
  facet normal 0 0 -1
    outer loop
      vertex -2.63739 -13.8257 -2
      vertex -2.63739 13.8257 -2
      vertex -0.883776 14.0472 -2
    endloop
  endfacet
  facet normal 0 0 -1
    outer loop
      vertex -4.34941 -13.3861 -2
      vertex -2.63739 13.8257 -2
      vertex -2.63739 -13.8257 -2
    endloop
  endfacet
  facet normal 0 0 -1
    outer loop
      vertex -4.34941 -13.3861 -2
      vertex -4.34941 13.3861 -2
      vertex -2.63739 13.8257 -2
    endloop
  endfacet
  facet normal 0 0 -1
    outer loop
      vertex -5.99284 -12.7354 -2
      vertex -4.34941 13.3861 -2
      vertex -4.34941 -13.3861 -2
    endloop
  endfacet
  facet normal 0 0 -1
    outer loop
      vertex -5.99284 -12.7354 -2
      vertex -5.99284 12.7354 -2
      vertex -4.34941 13.3861 -2
    endloop
  endfacet
  facet normal 0 0 -1
    outer loop
      vertex -7.54176 -11.8839 -2
      vertex -5.99284 12.7354 -2
      vertex -5.99284 -12.7354 -2
    endloop
  endfacet
  facet normal 0 0 -1
    outer loop
      vertex -7.54176 -11.8839 -2
      vertex -7.54176 11.8839 -2
      vertex -5.99284 12.7354 -2
    endloop
  endfacet
  facet normal 0 0 -1
    outer loop
      vertex -8.97174 -10.845 -2
      vertex -7.54176 11.8839 -2
      vertex -7.54176 -11.8839 -2
    endloop
  endfacet
  facet normal 0 0 -1
    outer loop
      vertex -8.97174 -10.845 -2
      vertex -8.97174 10.845 -2
      vertex -7.54176 11.8839 -2
    endloop
  endfacet
  facet normal 0 0 -1
    outer loop
      vertex -10.2602 -9.635 -2
      vertex -8.97174 10.845 -2
      vertex -8.97174 -10.845 -2
    endloop
  endfacet
  facet normal 0 0 -1
    outer loop
      vertex -10.2602 -9.635 -2
      vertex -10.2602 9.635 -2
      vertex -8.97174 10.845 -2
    endloop
  endfacet
  facet normal 0 0 -1
    outer loop
      vertex -11.3869 -8.27308 -2
      vertex -10.2602 9.635 -2
      vertex -10.2602 -9.635 -2
    endloop
  endfacet
  facet normal 0 0 -1
    outer loop
      vertex -11.3869 -8.27308 -2
      vertex -11.3869 8.27308 -2
      vertex -10.2602 9.635 -2
    endloop
  endfacet
  facet normal 0 0 -1
    outer loop
      vertex -12.334 -6.78068 -2
      vertex -11.3869 8.27308 -2
      vertex -11.3869 -8.27308 -2
    endloop
  endfacet
  facet normal 0 0 -1
    outer loop
      vertex -12.334 -6.78068 -2
      vertex -12.334 6.78068 -2
      vertex -11.3869 8.27308 -2
    endloop
  endfacet
  facet normal 0 0 -1
    outer loop
      vertex -13.0866 -5.18135 -2
      vertex -12.334 6.78068 -2
      vertex -12.334 -6.78068 -2
    endloop
  endfacet
  facet normal 0 0 -1
    outer loop
      vertex -13.0866 -5.18135 -2
      vertex -13.0866 5.18135 -2
      vertex -12.334 6.78068 -2
    endloop
  endfacet
  facet normal 0 0 -1
    outer loop
      vertex -13.6328 -3.50031 -2
      vertex -13.0866 5.18135 -2
      vertex -13.0866 -5.18135 -2
    endloop
  endfacet
  facet normal 0 0 -1
    outer loop
      vertex -13.6328 -3.50031 -2
      vertex -13.6328 3.50031 -2
      vertex -13.0866 5.18135 -2
    endloop
  endfacet
  facet normal 0 0 -1
    outer loop
      vertex -13.964 -1.76406 -2
      vertex -13.6328 3.50031 -2
      vertex -13.6328 -3.50031 -2
    endloop
  endfacet
  facet normal 0 0 -1
    outer loop
      vertex -13.964 -1.76406 -2
      vertex -13.964 1.76406 -2
      vertex -13.6328 3.50031 -2
    endloop
  endfacet
  facet normal 0 -0 -1
    outer loop
      vertex -13.964 1.76406 -2
      vertex -13.964 -1.76406 -2
      vertex -14.075 0 -2
    endloop
  endfacet
  facet normal 0.769549 -0.636641 0.0498273
    outer loop
      vertex -10.1509 9.53232 -5
      vertex -10.2602 9.635 -2
      vertex -11.2656 8.18491 -5
    endloop
  endfacet
  facet normal 0.481144 -0.875225 0.0498243
    outer loop
      vertex -7.46139 11.7573 -5
      vertex -5.99284 12.7354 -2
      vertex -7.54176 11.8839 -2
    endloop
  endfacet
  facet normal 0.996786 -0.0627208 0.0498334
    outer loop
      vertex -13.8152 1.74527 -5
      vertex -13.964 1.76406 -2
      vertex -14.075 0 -2
    endloop
  endfacet
  facet normal 0.981068 -0.187144 0.0498331
    outer loop
      vertex -13.8152 1.74527 -5
      vertex -13.6328 3.50031 -2
      vertex -13.964 1.76406 -2
    endloop
  endfacet
  facet normal 0.949875 -0.308631 0.04985
    outer loop
      vertex -12.9471 5.12613 -5
      vertex -13.0866 5.18135 -2
      vertex -13.6328 3.50031 -2
    endloop
  endfacet
  facet normal -0.125159 -0.990883 0.0498581
    outer loop
      vertex 2.60928 13.6783 -5
      vertex 2.63739 13.8257 -2
      vertex 0.883776 14.0472 -2
    endloop
  endfacet
  facet normal -0.76955 -0.63664 0.0498263
    outer loop
      vertex 11.2656 8.18491 -5
      vertex 11.3869 8.27308 -2
      vertex 10.2602 9.635 -2
    endloop
  endfacet
  facet normal -0.981064 -0.187161 0.0498432
    outer loop
      vertex 13.8152 1.74527 -5
      vertex 13.6328 3.50031 -2
      vertex 13.4875 3.46301 -5
    endloop
  endfacet
  facet normal -0.481133 -0.87523 0.0498313
    outer loop
      vertex 7.46139 11.7573 -5
      vertex 5.99284 12.7354 -2
      vertex 5.92898 12.5997 -5
    endloop
  endfacet
  facet normal -0.996786 0.0627208 0.0498334
    outer loop
      vertex 13.964 -1.76406 -2
      vertex 14.075 0 -2
      vertex 13.8152 -1.74527 -5
    endloop
  endfacet
  facet normal -0.981068 0.187144 0.0498331
    outer loop
      vertex 13.964 -1.76406 -2
      vertex 13.8152 -1.74527 -5
      vertex 13.6328 -3.50031 -2
    endloop
  endfacet
  facet normal -0.903717 0.425218 0.0498497
    outer loop
      vertex 13.0866 -5.18135 -2
      vertex 12.9471 -5.12613 -5
      vertex 12.2026 -6.70842 -5
    endloop
  endfacet
  facet normal -0.949875 0.308631 0.04985
    outer loop
      vertex 13.0866 -5.18135 -2
      vertex 13.6328 -3.50031 -2
      vertex 12.9471 -5.12613 -5
    endloop
  endfacet
  facet normal -0.843281 0.535159 0.0498259
    outer loop
      vertex 12.334 -6.78068 -2
      vertex 12.2026 -6.70842 -5
      vertex 11.3869 -8.27308 -2
    endloop
  endfacet
  facet normal -0.481144 0.875225 0.0498243
    outer loop
      vertex 7.54176 -11.8839 -2
      vertex 7.46139 -11.7573 -5
      vertex 5.99284 -12.7354 -2
    endloop
  endfacet
  facet normal -0.125193 0.99088 0.049838
    outer loop
      vertex 0.883776 -14.0472 -2
      vertex 2.60928 -13.6783 -5
      vertex 0.874357 -13.8975 -5
    endloop
  endfacet
  facet normal -0.248395 0.967375 0.0498578
    outer loop
      vertex 2.63739 -13.8257 -2
      vertex 4.34941 -13.3861 -2
      vertex 2.60928 -13.6783 -5
    endloop
  endfacet
  facet normal -0.125159 0.990883 0.0498581
    outer loop
      vertex 2.63739 -13.8257 -2
      vertex 2.60928 -13.6783 -5
      vertex 0.883776 -14.0472 -2
    endloop
  endfacet
  facet normal -0.367693 0.928611 0.0498311
    outer loop
      vertex 5.99284 -12.7354 -2
      vertex 5.92898 -12.5997 -5
      vertex 4.30306 -13.2435 -5
    endloop
  endfacet
  facet normal 0.981068 0.187144 0.0498331
    outer loop
      vertex -13.6328 -3.50031 -2
      vertex -13.8152 -1.74527 -5
      vertex -13.964 -1.76406 -2
    endloop
  endfacet
  facet normal 0.996786 0.0627208 0.0498334
    outer loop
      vertex -13.964 -1.76406 -2
      vertex -13.8152 -1.74527 -5
      vertex -14.075 0 -2
    endloop
  endfacet
  facet normal 0.903701 0.425256 0.0498251
    outer loop
      vertex -12.334 -6.78068 -2
      vertex -12.2026 -6.70842 -5
      vertex -13.0866 -5.18135 -2
    endloop
  endfacet
  facet normal 0.903717 0.425218 0.0498497
    outer loop
      vertex -12.2026 -6.70842 -5
      vertex -12.9471 -5.12613 -5
      vertex -13.0866 -5.18135 -2
    endloop
  endfacet
  facet normal 0.683694 0.728065 0.0498441
    outer loop
      vertex -8.97174 -10.845 -2
      vertex -8.87613 -10.7294 -5
      vertex -10.1509 -9.53232 -5
    endloop
  endfacet
  facet normal 0.367677 0.928618 0.0498209
    outer loop
      vertex -4.34941 -13.3861 -2
      vertex -4.30306 -13.2435 -5
      vertex -5.99284 -12.7354 -2
    endloop
  endfacet
  facet normal 0.843281 -0.535159 0.0498259
    outer loop
      vertex -12.2026 6.70842 -5
      vertex -11.3869 8.27308 -2
      vertex -12.334 6.78068 -2
    endloop
  endfacet
  facet normal 0.76955 -0.63664 0.0498263
    outer loop
      vertex -11.2656 8.18491 -5
      vertex -10.2602 9.635 -2
      vertex -11.3869 8.27308 -2
    endloop
  endfacet
  facet normal 0.58704 -0.808023 0.0498254
    outer loop
      vertex -7.46139 11.7573 -5
      vertex -7.54176 11.8839 -2
      vertex -8.97174 10.845 -2
    endloop
  endfacet
  facet normal 0 -0.998757 0.049838
    outer loop
      vertex -0.874357 13.8975 -5
      vertex 0.883776 14.0472 -2
      vertex -0.883776 14.0472 -2
    endloop
  endfacet
  facet normal 0 -0.998757 0.049838
    outer loop
      vertex 0.883776 14.0472 -2
      vertex -0.874357 13.8975 -5
      vertex 0.874357 13.8975 -5
    endloop
  endfacet
  facet normal 0.248395 -0.967375 0.0498578
    outer loop
      vertex -2.60928 13.6783 -5
      vertex -2.63739 13.8257 -2
      vertex -4.34941 13.3861 -2
    endloop
  endfacet
  facet normal -0.125193 -0.99088 0.049838
    outer loop
      vertex 2.60928 13.6783 -5
      vertex 0.883776 14.0472 -2
      vertex 0.874357 13.8975 -5
    endloop
  endfacet
  facet normal 0.981064 -0.187161 0.0498432
    outer loop
      vertex -13.4875 3.46301 -5
      vertex -13.6328 3.50031 -2
      vertex -13.8152 1.74527 -5
    endloop
  endfacet
  facet normal -0.903717 -0.425218 0.0498497
    outer loop
      vertex 12.9471 5.12613 -5
      vertex 13.0866 5.18135 -2
      vertex 12.2026 6.70842 -5
    endloop
  endfacet
  facet normal -0.949871 -0.308643 0.0498429
    outer loop
      vertex 13.4875 3.46301 -5
      vertex 13.6328 3.50031 -2
      vertex 12.9471 5.12613 -5
    endloop
  endfacet
  facet normal -0.58704 -0.808023 0.0498254
    outer loop
      vertex 8.97174 10.845 -2
      vertex 7.54176 11.8839 -2
      vertex 7.46139 11.7573 -5
    endloop
  endfacet
  facet normal -0.481144 -0.875225 0.0498243
    outer loop
      vertex 7.46139 11.7573 -5
      vertex 7.54176 11.8839 -2
      vertex 5.99284 12.7354 -2
    endloop
  endfacet
  facet normal -0.587066 -0.808003 0.0498448
    outer loop
      vertex 8.87613 10.7294 -5
      vertex 8.97174 10.845 -2
      vertex 7.46139 11.7573 -5
    endloop
  endfacet
  facet normal -0.683694 -0.728065 0.0498441
    outer loop
      vertex 10.1509 9.53232 -5
      vertex 8.97174 10.845 -2
      vertex 8.87613 10.7294 -5
    endloop
  endfacet
  facet normal -0.367693 -0.928611 0.0498311
    outer loop
      vertex 5.92898 12.5997 -5
      vertex 5.99284 12.7354 -2
      vertex 4.30306 13.2435 -5
    endloop
  endfacet
  facet normal -0.981064 0.187161 0.0498432
    outer loop
      vertex 13.6328 -3.50031 -2
      vertex 13.8152 -1.74527 -5
      vertex 13.4875 -3.46301 -5
    endloop
  endfacet
  facet normal -0.76955 0.63664 0.0498263
    outer loop
      vertex 11.3869 -8.27308 -2
      vertex 11.2656 -8.18491 -5
      vertex 10.2602 -9.635 -2
    endloop
  endfacet
  facet normal -0.769549 0.636641 0.0498273
    outer loop
      vertex 10.2602 -9.635 -2
      vertex 11.2656 -8.18491 -5
      vertex 10.1509 -9.53232 -5
    endloop
  endfacet
  facet normal -0.248333 0.967393 0.0498201
    outer loop
      vertex 4.34941 -13.3861 -2
      vertex 4.30306 -13.2435 -5
      vertex 2.60928 -13.6783 -5
    endloop
  endfacet
  facet normal 0.981064 0.187161 0.0498432
    outer loop
      vertex -13.6328 -3.50031 -2
      vertex -13.4875 -3.46301 -5
      vertex -13.8152 -1.74527 -5
    endloop
  endfacet
  facet normal 0.76955 0.63664 0.0498263
    outer loop
      vertex -10.2602 -9.635 -2
      vertex -11.2656 -8.18491 -5
      vertex -11.3869 -8.27308 -2
    endloop
  endfacet
  facet normal 0.843282 0.535158 0.049825
    outer loop
      vertex -11.3869 -8.27308 -2
      vertex -11.2656 -8.18491 -5
      vertex -12.2026 -6.70842 -5
    endloop
  endfacet
  facet normal 0.481144 0.875225 0.0498243
    outer loop
      vertex -5.99284 -12.7354 -2
      vertex -7.46139 -11.7573 -5
      vertex -7.54176 -11.8839 -2
    endloop
  endfacet
  facet normal 0.125193 0.99088 0.049838
    outer loop
      vertex -0.883776 -14.0472 -2
      vertex -0.874357 -13.8975 -5
      vertex -2.60928 -13.6783 -5
    endloop
  endfacet
  facet normal 0.367693 0.928611 0.0498311
    outer loop
      vertex -4.30306 -13.2435 -5
      vertex -5.92898 -12.5997 -5
      vertex -5.99284 -12.7354 -2
    endloop
  endfacet
  facet normal 0.843282 -0.535158 0.049825
    outer loop
      vertex -11.2656 8.18491 -5
      vertex -11.3869 8.27308 -2
      vertex -12.2026 6.70842 -5
    endloop
  endfacet
  facet normal 0.367693 -0.928611 0.0498311
    outer loop
      vertex -5.92898 12.5997 -5
      vertex -4.30306 13.2435 -5
      vertex -5.99284 12.7354 -2
    endloop
  endfacet
  facet normal 0.125159 -0.990883 0.0498581
    outer loop
      vertex -2.60928 13.6783 -5
      vertex -0.883776 14.0472 -2
      vertex -2.63739 13.8257 -2
    endloop
  endfacet
  facet normal 0.125193 -0.99088 0.049838
    outer loop
      vertex -0.874357 13.8975 -5
      vertex -0.883776 14.0472 -2
      vertex -2.60928 13.6783 -5
    endloop
  endfacet
  facet normal -0.843282 -0.535158 0.049825
    outer loop
      vertex 12.2026 6.70842 -5
      vertex 11.3869 8.27308 -2
      vertex 11.2656 8.18491 -5
    endloop
  endfacet
  facet normal -0.843281 -0.535159 0.0498259
    outer loop
      vertex 12.2026 6.70842 -5
      vertex 12.334 6.78068 -2
      vertex 11.3869 8.27308 -2
    endloop
  endfacet
  facet normal 0.949871 0.308643 0.0498429
    outer loop
      vertex -12.9471 -5.12613 -5
      vertex -13.4875 -3.46301 -5
      vertex -13.6328 -3.50031 -2
    endloop
  endfacet
  facet normal 0.769549 0.636641 0.0498273
    outer loop
      vertex -10.2602 -9.635 -2
      vertex -10.1509 -9.53232 -5
      vertex -11.2656 -8.18491 -5
    endloop
  endfacet
  facet normal 0.125159 0.990883 0.0498581
    outer loop
      vertex -0.883776 -14.0472 -2
      vertex -2.60928 -13.6783 -5
      vertex -2.63739 -13.8257 -2
    endloop
  endfacet
  facet normal 0.248395 0.967375 0.0498578
    outer loop
      vertex -2.63739 -13.8257 -2
      vertex -2.60928 -13.6783 -5
      vertex -4.34941 -13.3861 -2
    endloop
  endfacet
  facet normal 0.58704 0.808023 0.0498254
    outer loop
      vertex -7.54176 -11.8839 -2
      vertex -7.46139 -11.7573 -5
      vertex -8.97174 -10.845 -2
    endloop
  endfacet
  facet normal 0.587066 0.808003 0.0498448
    outer loop
      vertex -7.46139 -11.7573 -5
      vertex -8.87613 -10.7294 -5
      vertex -8.97174 -10.845 -2
    endloop
  endfacet
  facet normal 0.903717 -0.425218 0.0498497
    outer loop
      vertex -12.9471 5.12613 -5
      vertex -12.2026 6.70842 -5
      vertex -13.0866 5.18135 -2
    endloop
  endfacet
  facet normal 0.903701 -0.425256 0.0498251
    outer loop
      vertex -12.2026 6.70842 -5
      vertex -12.334 6.78068 -2
      vertex -13.0866 5.18135 -2
    endloop
  endfacet
  facet normal 0.481133 -0.87523 0.0498313
    outer loop
      vertex -5.92898 12.5997 -5
      vertex -5.99284 12.7354 -2
      vertex -7.46139 11.7573 -5
    endloop
  endfacet
  facet normal 0.248333 -0.967393 0.0498201
    outer loop
      vertex -4.30306 13.2435 -5
      vertex -2.60928 13.6783 -5
      vertex -4.34941 13.3861 -2
    endloop
  endfacet
  facet normal 0.481133 0.87523 0.0498313
    outer loop
      vertex -5.99284 -12.7354 -2
      vertex -5.92898 -12.5997 -5
      vertex -7.46139 -11.7573 -5
    endloop
  endfacet
endsolid OpenSCAD_Model
