solid OpenSCAD_Model
  facet normal 0 -1 0
    outer loop
      vertex -2.95712 5.12189 -4.5
      vertex 2.95712 5.12189 0
      vertex -2.95712 5.12189 0
    endloop
  endfacet
  facet normal 0 -1 -0
    outer loop
      vertex 2.95712 5.12189 0
      vertex -2.95712 5.12189 -4.5
      vertex 2.95712 5.12189 -4.5
    endloop
  endfacet
  facet normal -0.866025 -0.500001 0
    outer loop
      vertex 5.91425 0 -4.5
      vertex 2.95712 5.12189 0
      vertex 2.95712 5.12189 -4.5
    endloop
  endfacet
  facet normal -0.866025 -0.500001 0
    outer loop
      vertex 2.95712 5.12189 0
      vertex 5.91425 0 -4.5
      vertex 5.91425 0 0
    endloop
  endfacet
  facet normal 0 0 1
    outer loop
      vertex 5.91425 0 0
      vertex 10 0 0
      vertex 9.92115 1.25333 0
    endloop
  endfacet
  facet normal 0 0 1
    outer loop
      vertex 5.91425 0 0
      vertex 9.92115 1.25333 0
      vertex 9.68583 2.4869 0
    endloop
  endfacet
  facet normal 0 0 1
    outer loop
      vertex 10 0 0
      vertex 5.91425 0 0
      vertex 9.92115 -1.25333 0
    endloop
  endfacet
  facet normal 0 0 1
    outer loop
      vertex 5.91425 0 0
      vertex 9.68583 2.4869 0
      vertex 9.29776 3.68124 0
    endloop
  endfacet
  facet normal 0 0 1
    outer loop
      vertex 9.92115 -1.25333 0
      vertex 5.91425 0 0
      vertex 9.68583 -2.4869 0
    endloop
  endfacet
  facet normal 0 0 1
    outer loop
      vertex 5.91425 0 0
      vertex 9.29776 3.68124 0
      vertex 8.76307 4.81754 0
    endloop
  endfacet
  facet normal 0 0 1
    outer loop
      vertex 9.68583 -2.4869 0
      vertex 5.91425 0 0
      vertex 9.29776 -3.68124 0
    endloop
  endfacet
  facet normal -0 0 1
    outer loop
      vertex 2.95712 5.12189 0
      vertex 8.76307 4.81754 0
      vertex 8.09017 5.87785 0
    endloop
  endfacet
  facet normal 0 0 1
    outer loop
      vertex 9.29776 -3.68124 0
      vertex 5.91425 0 0
      vertex 8.76307 -4.81754 0
    endloop
  endfacet
  facet normal 0 0 1
    outer loop
      vertex 2.95712 5.12189 0
      vertex 8.09017 5.87785 0
      vertex 7.28969 6.84547 0
    endloop
  endfacet
  facet normal 0 0 1
    outer loop
      vertex 2.95712 -5.12189 0
      vertex 8.76307 -4.81754 0
      vertex 5.91425 0 0
    endloop
  endfacet
  facet normal 0 0 1
    outer loop
      vertex 2.95712 5.12189 0
      vertex 7.28969 6.84547 0
      vertex 6.37424 7.70513 0
    endloop
  endfacet
  facet normal 0 0 1
    outer loop
      vertex 8.76307 -4.81754 0
      vertex 2.95712 -5.12189 0
      vertex 8.09017 -5.87785 0
    endloop
  endfacet
  facet normal 0 0 1
    outer loop
      vertex 8.09017 -5.87785 0
      vertex 2.95712 -5.12189 0
      vertex 7.28969 -6.84547 0
    endloop
  endfacet
  facet normal 0 0 1
    outer loop
      vertex 2.95712 5.12189 0
      vertex 6.37424 7.70513 0
      vertex 5.35827 8.44328 0
    endloop
  endfacet
  facet normal 0 0 1
    outer loop
      vertex 2.95712 5.12189 0
      vertex 5.35827 8.44328 0
      vertex 4.25779 9.04827 0
    endloop
  endfacet
  facet normal 0 0 1
    outer loop
      vertex 2.95712 5.12189 0
      vertex 4.25779 9.04827 0
      vertex 3.09017 9.51056 0
    endloop
  endfacet
  facet normal 0 0 1
    outer loop
      vertex 8.76307 4.81754 0
      vertex 2.95712 5.12189 0
      vertex 5.91425 0 0
    endloop
  endfacet
  facet normal 0 0 1
    outer loop
      vertex 1.87381 9.82287 0
      vertex 2.95712 5.12189 0
      vertex 3.09017 9.51056 0
    endloop
  endfacet
  facet normal 0 0 1
    outer loop
      vertex 0.627905 9.98027 0
      vertex 2.95712 5.12189 0
      vertex 1.87381 9.82287 0
    endloop
  endfacet
  facet normal -0 0 1
    outer loop
      vertex -0.627905 9.98027 0
      vertex 2.95712 5.12189 0
      vertex 0.627905 9.98027 0
    endloop
  endfacet
  facet normal 0 0 1
    outer loop
      vertex -2.95712 5.12189 0
      vertex -0.627905 9.98027 0
      vertex -1.87381 9.82287 0
    endloop
  endfacet
  facet normal 0 0 1
    outer loop
      vertex -0.627905 9.98027 0
      vertex -2.95712 5.12189 0
      vertex 2.95712 5.12189 0
    endloop
  endfacet
  facet normal -0 0 1
    outer loop
      vertex -3.09017 9.51056 0
      vertex -2.95712 5.12189 0
      vertex -1.87381 9.82287 0
    endloop
  endfacet
  facet normal -0 0 1
    outer loop
      vertex -4.25779 9.04827 0
      vertex -2.95712 5.12189 0
      vertex -3.09017 9.51056 0
    endloop
  endfacet
  facet normal -0 0 1
    outer loop
      vertex -5.35827 8.44328 0
      vertex -2.95712 5.12189 0
      vertex -4.25779 9.04827 0
    endloop
  endfacet
  facet normal -0 0 1
    outer loop
      vertex -6.37424 7.70513 0
      vertex -2.95712 5.12189 0
      vertex -5.35827 8.44328 0
    endloop
  endfacet
  facet normal -0 0 1
    outer loop
      vertex -7.28969 6.84547 0
      vertex -2.95712 5.12189 0
      vertex -6.37424 7.70513 0
    endloop
  endfacet
  facet normal 0 0 1
    outer loop
      vertex 7.28969 -6.84547 0
      vertex 2.95712 -5.12189 0
      vertex 6.37424 -7.70513 0
    endloop
  endfacet
  facet normal 0 0 1
    outer loop
      vertex 6.37424 -7.70513 0
      vertex 2.95712 -5.12189 0
      vertex 5.35827 -8.44328 0
    endloop
  endfacet
  facet normal 0 0 1
    outer loop
      vertex 5.35827 -8.44328 0
      vertex 2.95712 -5.12189 0
      vertex 4.25779 -9.04827 0
    endloop
  endfacet
  facet normal 0 0 1
    outer loop
      vertex 4.25779 -9.04827 0
      vertex 2.95712 -5.12189 0
      vertex 3.09017 -9.51056 0
    endloop
  endfacet
  facet normal 0 0 1
    outer loop
      vertex 2.95712 -5.12189 0
      vertex 1.87381 -9.82287 0
      vertex 3.09017 -9.51056 0
    endloop
  endfacet
  facet normal 0 0 1
    outer loop
      vertex 2.95712 -5.12189 0
      vertex 0.627905 -9.98027 0
      vertex 1.87381 -9.82287 0
    endloop
  endfacet
  facet normal 0 0 1
    outer loop
      vertex 2.95712 -5.12189 0
      vertex -0.627905 -9.98027 0
      vertex 0.627905 -9.98027 0
    endloop
  endfacet
  facet normal -0 0 1
    outer loop
      vertex -2.95712 -5.12189 0
      vertex -0.627905 -9.98027 0
      vertex 2.95712 -5.12189 0
    endloop
  endfacet
  facet normal 0 0 1
    outer loop
      vertex -0.627905 -9.98027 0
      vertex -2.95712 -5.12189 0
      vertex -1.87381 -9.82287 0
    endloop
  endfacet
  facet normal 0 0 1
    outer loop
      vertex -2.95712 -5.12189 0
      vertex -3.09017 -9.51056 0
      vertex -1.87381 -9.82287 0
    endloop
  endfacet
  facet normal 0 0 1
    outer loop
      vertex -2.95712 -5.12189 0
      vertex -4.25779 -9.04827 0
      vertex -3.09017 -9.51056 0
    endloop
  endfacet
  facet normal 0 0 1
    outer loop
      vertex -2.95712 -5.12189 0
      vertex -5.35827 -8.44328 0
      vertex -4.25779 -9.04827 0
    endloop
  endfacet
  facet normal -0 0 1
    outer loop
      vertex -8.76307 -4.81754 0
      vertex -2.95712 -5.12189 0
      vertex -5.91425 0 0
    endloop
  endfacet
  facet normal 0 0 1
    outer loop
      vertex -2.95712 -5.12189 0
      vertex -6.37424 -7.70513 0
      vertex -5.35827 -8.44328 0
    endloop
  endfacet
  facet normal -0 0 1
    outer loop
      vertex -8.09017 5.87785 0
      vertex -2.95712 5.12189 0
      vertex -7.28969 6.84547 0
    endloop
  endfacet
  facet normal 0 0 1
    outer loop
      vertex -8.76307 4.81754 0
      vertex -2.95712 5.12189 0
      vertex -8.09017 5.87785 0
    endloop
  endfacet
  facet normal 0 0 1
    outer loop
      vertex -2.95712 -5.12189 0
      vertex -7.28969 -6.84547 0
      vertex -6.37424 -7.70513 0
    endloop
  endfacet
  facet normal 0 0 1
    outer loop
      vertex -2.95712 5.12189 0
      vertex -8.76307 4.81754 0
      vertex -5.91425 0 0
    endloop
  endfacet
  facet normal 0 0 1
    outer loop
      vertex -2.95712 -5.12189 0
      vertex -8.09017 -5.87785 0
      vertex -7.28969 -6.84547 0
    endloop
  endfacet
  facet normal -0 0 1
    outer loop
      vertex -9.29776 3.68124 0
      vertex -5.91425 0 0
      vertex -8.76307 4.81754 0
    endloop
  endfacet
  facet normal 0 0 1
    outer loop
      vertex -2.95712 -5.12189 0
      vertex -8.76307 -4.81754 0
      vertex -8.09017 -5.87785 0
    endloop
  endfacet
  facet normal -0 0 1
    outer loop
      vertex -9.68583 2.4869 0
      vertex -5.91425 0 0
      vertex -9.29776 3.68124 0
    endloop
  endfacet
  facet normal 0 0 1
    outer loop
      vertex -5.91425 0 0
      vertex -9.29776 -3.68124 0
      vertex -8.76307 -4.81754 0
    endloop
  endfacet
  facet normal -0 0 1
    outer loop
      vertex -9.92115 1.25333 0
      vertex -5.91425 0 0
      vertex -9.68583 2.4869 0
    endloop
  endfacet
  facet normal 0 0 1
    outer loop
      vertex -5.91425 0 0
      vertex -9.68583 -2.4869 0
      vertex -9.29776 -3.68124 0
    endloop
  endfacet
  facet normal 0 0 1
    outer loop
      vertex -10 0 0
      vertex -5.91425 0 0
      vertex -9.92115 1.25333 0
    endloop
  endfacet
  facet normal 0 0 1
    outer loop
      vertex -5.91425 0 0
      vertex -9.92115 -1.25333 0
      vertex -9.68583 -2.4869 0
    endloop
  endfacet
  facet normal 0 0 1
    outer loop
      vertex -5.91425 0 0
      vertex -10 0 0
      vertex -9.92115 -1.25333 0
    endloop
  endfacet
  facet normal 0.866025 -0.500001 0
    outer loop
      vertex -5.91425 0 0
      vertex -2.95712 5.12189 -4.5
      vertex -2.95712 5.12189 0
    endloop
  endfacet
  facet normal 0.866025 -0.500001 0
    outer loop
      vertex -2.95712 5.12189 -4.5
      vertex -5.91425 0 0
      vertex -5.91425 0 -4.5
    endloop
  endfacet
  facet normal 0 1 -0
    outer loop
      vertex 2.95712 -5.12189 -4.5
      vertex -2.95712 -5.12189 0
      vertex 2.95712 -5.12189 0
    endloop
  endfacet
  facet normal 0 1 0
    outer loop
      vertex -2.95712 -5.12189 0
      vertex 2.95712 -5.12189 -4.5
      vertex -2.95712 -5.12189 -4.5
    endloop
  endfacet
  facet normal 0.866025 0.500001 0
    outer loop
      vertex -2.95712 -5.12189 0
      vertex -5.91425 0 -4.5
      vertex -5.91425 0 0
    endloop
  endfacet
  facet normal 0.866025 0.500001 0
    outer loop
      vertex -5.91425 0 -4.5
      vertex -2.95712 -5.12189 0
      vertex -2.95712 -5.12189 -4.5
    endloop
  endfacet
  facet normal -0.866025 0.500001 0
    outer loop
      vertex 2.95712 -5.12189 -4.5
      vertex 5.91425 0 0
      vertex 5.91425 0 -4.5
    endloop
  endfacet
  facet normal -0.866025 0.500001 0
    outer loop
      vertex 5.91425 0 0
      vertex 2.95712 -5.12189 -4.5
      vertex 2.95712 -5.12189 0
    endloop
  endfacet
  facet normal 0.904831 0.425771 0
    outer loop
      vertex 9.29776 3.68124 0
      vertex 8.76307 4.81754 -4.5
      vertex 8.76307 4.81754 0
    endloop
  endfacet
  facet normal 0.904831 0.425771 0
    outer loop
      vertex 8.76307 4.81754 -4.5
      vertex 9.29776 3.68124 0
      vertex 9.29776 3.68124 -4.5
    endloop
  endfacet
  facet normal -0.951055 0.309021 0
    outer loop
      vertex -9.68583 2.4869 -4.5
      vertex -9.29776 3.68124 0
      vertex -9.29776 3.68124 -4.5
    endloop
  endfacet
  facet normal -0.951055 0.309021 0
    outer loop
      vertex -9.29776 3.68124 0
      vertex -9.68583 2.4869 -4.5
      vertex -9.68583 2.4869 0
    endloop
  endfacet
  facet normal 0.844325 0.535831 0
    outer loop
      vertex 8.76307 4.81754 0
      vertex 8.09017 5.87785 -4.5
      vertex 8.09017 5.87785 0
    endloop
  endfacet
  facet normal 0.844325 0.535831 0
    outer loop
      vertex 8.09017 5.87785 -4.5
      vertex 8.76307 4.81754 0
      vertex 8.76307 4.81754 -4.5
    endloop
  endfacet
  facet normal 0.248691 0.968583 -0
    outer loop
      vertex 3.09017 9.51056 -4.5
      vertex 1.87381 9.82287 0
      vertex 3.09017 9.51056 0
    endloop
  endfacet
  facet normal 0.248691 0.968583 0
    outer loop
      vertex 1.87381 9.82287 0
      vertex 3.09017 9.51056 -4.5
      vertex 1.87381 9.82287 -4.5
    endloop
  endfacet
  facet normal 0.368122 0.929777 -0
    outer loop
      vertex 4.25779 9.04827 -4.5
      vertex 3.09017 9.51056 0
      vertex 4.25779 9.04827 0
    endloop
  endfacet
  facet normal 0.368122 0.929777 0
    outer loop
      vertex 3.09017 9.51056 0
      vertex 4.25779 9.04827 -4.5
      vertex 3.09017 9.51056 -4.5
    endloop
  endfacet
  facet normal -0.368122 0.929777 0
    outer loop
      vertex -3.09017 9.51056 -4.5
      vertex -4.25779 9.04827 0
      vertex -3.09017 9.51056 0
    endloop
  endfacet
  facet normal -0.368122 0.929777 0
    outer loop
      vertex -4.25779 9.04827 0
      vertex -3.09017 9.51056 -4.5
      vertex -4.25779 9.04827 -4.5
    endloop
  endfacet
  facet normal -0.904831 0.425771 0
    outer loop
      vertex -9.29776 3.68124 -4.5
      vertex -8.76307 4.81754 0
      vertex -8.76307 4.81754 -4.5
    endloop
  endfacet
  facet normal -0.904831 0.425771 0
    outer loop
      vertex -8.76307 4.81754 0
      vertex -9.29776 3.68124 -4.5
      vertex -9.29776 3.68124 0
    endloop
  endfacet
  facet normal 0.998027 -0.0627883 0
    outer loop
      vertex 9.92115 -1.25333 0
      vertex 10 0 -4.5
      vertex 10 0 0
    endloop
  endfacet
  facet normal 0.998027 -0.0627883 0
    outer loop
      vertex 10 0 -4.5
      vertex 9.92115 -1.25333 0
      vertex 9.92115 -1.25333 -4.5
    endloop
  endfacet
  facet normal 0.368122 -0.929777 0
    outer loop
      vertex 3.09017 -9.51056 -4.5
      vertex 4.25779 -9.04827 0
      vertex 3.09017 -9.51056 0
    endloop
  endfacet
  facet normal 0.368122 -0.929777 0
    outer loop
      vertex 4.25779 -9.04827 0
      vertex 3.09017 -9.51056 -4.5
      vertex 4.25779 -9.04827 -4.5
    endloop
  endfacet
  facet normal 0.125338 0.992114 -0
    outer loop
      vertex 1.87381 9.82287 -4.5
      vertex 0.627905 9.98027 0
      vertex 1.87381 9.82287 0
    endloop
  endfacet
  facet normal 0.125338 0.992114 0
    outer loop
      vertex 0.627905 9.98027 0
      vertex 1.87381 9.82287 -4.5
      vertex 0.627905 9.98027 -4.5
    endloop
  endfacet
  facet normal -0.770515 0.637422 0
    outer loop
      vertex -8.09017 5.87785 -4.5
      vertex -7.28969 6.84547 0
      vertex -7.28969 6.84547 -4.5
    endloop
  endfacet
  facet normal -0.770515 0.637422 0
    outer loop
      vertex -7.28969 6.84547 0
      vertex -8.09017 5.87785 -4.5
      vertex -8.09017 5.87785 0
    endloop
  endfacet
  facet normal -0.481751 0.876308 0
    outer loop
      vertex -4.25779 9.04827 -4.5
      vertex -5.35827 8.44328 0
      vertex -4.25779 9.04827 0
    endloop
  endfacet
  facet normal -0.481751 0.876308 0
    outer loop
      vertex -5.35827 8.44328 0
      vertex -4.25779 9.04827 -4.5
      vertex -5.35827 8.44328 -4.5
    endloop
  endfacet
  facet normal -0.125338 0.992114 0
    outer loop
      vertex -0.627905 9.98027 -4.5
      vertex -1.87381 9.82287 0
      vertex -0.627905 9.98027 0
    endloop
  endfacet
  facet normal -0.125338 0.992114 0
    outer loop
      vertex -1.87381 9.82287 0
      vertex -0.627905 9.98027 -4.5
      vertex -1.87381 9.82287 -4.5
    endloop
  endfacet
  facet normal -0.587788 0.809015 0
    outer loop
      vertex -5.35827 8.44328 -4.5
      vertex -6.37424 7.70513 0
      vertex -5.35827 8.44328 0
    endloop
  endfacet
  facet normal -0.587788 0.809015 0
    outer loop
      vertex -6.37424 7.70513 0
      vertex -5.35827 8.44328 -4.5
      vertex -6.37424 7.70513 -4.5
    endloop
  endfacet
  facet normal 0.998027 0.0627883 0
    outer loop
      vertex 10 0 0
      vertex 9.92115 1.25333 -4.5
      vertex 9.92115 1.25333 0
    endloop
  endfacet
  facet normal 0.998027 0.0627883 0
    outer loop
      vertex 9.92115 1.25333 -4.5
      vertex 10 0 0
      vertex 10 0 -4.5
    endloop
  endfacet
  facet normal 0.951055 -0.309021 0
    outer loop
      vertex 9.29776 -3.68124 0
      vertex 9.68583 -2.4869 -4.5
      vertex 9.68583 -2.4869 0
    endloop
  endfacet
  facet normal 0.951055 -0.309021 0
    outer loop
      vertex 9.68583 -2.4869 -4.5
      vertex 9.29776 -3.68124 0
      vertex 9.29776 -3.68124 -4.5
    endloop
  endfacet
  facet normal -0.125338 -0.992114 0
    outer loop
      vertex -1.87381 -9.82287 -4.5
      vertex -0.627905 -9.98027 0
      vertex -1.87381 -9.82287 0
    endloop
  endfacet
  facet normal -0.125338 -0.992114 -0
    outer loop
      vertex -0.627905 -9.98027 0
      vertex -1.87381 -9.82287 -4.5
      vertex -0.627905 -9.98027 -4.5
    endloop
  endfacet
  facet normal 0.248691 -0.968583 0
    outer loop
      vertex 1.87381 -9.82287 -4.5
      vertex 3.09017 -9.51056 0
      vertex 1.87381 -9.82287 0
    endloop
  endfacet
  facet normal 0.248691 -0.968583 0
    outer loop
      vertex 3.09017 -9.51056 0
      vertex 1.87381 -9.82287 -4.5
      vertex 3.09017 -9.51056 -4.5
    endloop
  endfacet
  facet normal 0.951055 0.309021 0
    outer loop
      vertex 9.68583 2.4869 0
      vertex 9.29776 3.68124 -4.5
      vertex 9.29776 3.68124 0
    endloop
  endfacet
  facet normal 0.951055 0.309021 0
    outer loop
      vertex 9.29776 3.68124 -4.5
      vertex 9.68583 2.4869 0
      vertex 9.68583 2.4869 -4.5
    endloop
  endfacet
  facet normal 0.684545 0.728971 -0
    outer loop
      vertex 7.28969 6.84547 -4.5
      vertex 6.37424 7.70513 0
      vertex 7.28969 6.84547 0
    endloop
  endfacet
  facet normal 0.684545 0.728971 0
    outer loop
      vertex 6.37424 7.70513 0
      vertex 7.28969 6.84547 -4.5
      vertex 6.37424 7.70513 -4.5
    endloop
  endfacet
  facet normal 0 1 -0
    outer loop
      vertex 0.627905 9.98027 -4.5
      vertex -0.627905 9.98027 0
      vertex 0.627905 9.98027 0
    endloop
  endfacet
  facet normal 0 1 0
    outer loop
      vertex -0.627905 9.98027 0
      vertex 0.627905 9.98027 -4.5
      vertex -0.627905 9.98027 -4.5
    endloop
  endfacet
  facet normal 0.587788 0.809015 -0
    outer loop
      vertex 6.37424 7.70513 -4.5
      vertex 5.35827 8.44328 0
      vertex 6.37424 7.70513 0
    endloop
  endfacet
  facet normal 0.587788 0.809015 0
    outer loop
      vertex 5.35827 8.44328 0
      vertex 6.37424 7.70513 -4.5
      vertex 5.35827 8.44328 -4.5
    endloop
  endfacet
  facet normal 0.481751 0.876308 -0
    outer loop
      vertex 5.35827 8.44328 -4.5
      vertex 4.25779 9.04827 0
      vertex 5.35827 8.44328 0
    endloop
  endfacet
  facet normal 0.481751 0.876308 0
    outer loop
      vertex 4.25779 9.04827 0
      vertex 5.35827 8.44328 -4.5
      vertex 4.25779 9.04827 -4.5
    endloop
  endfacet
  facet normal -0.998027 0.0627883 0
    outer loop
      vertex -10 0 -4.5
      vertex -9.92115 1.25333 0
      vertex -9.92115 1.25333 -4.5
    endloop
  endfacet
  facet normal -0.998027 0.0627883 0
    outer loop
      vertex -9.92115 1.25333 0
      vertex -10 0 -4.5
      vertex -10 0 0
    endloop
  endfacet
  facet normal -0.982287 0.187384 0
    outer loop
      vertex -9.92115 1.25333 -4.5
      vertex -9.68583 2.4869 0
      vertex -9.68583 2.4869 -4.5
    endloop
  endfacet
  facet normal -0.982287 0.187384 0
    outer loop
      vertex -9.68583 2.4869 0
      vertex -9.92115 1.25333 -4.5
      vertex -9.92115 1.25333 0
    endloop
  endfacet
  facet normal -0.844325 0.535831 0
    outer loop
      vertex -8.76307 4.81754 -4.5
      vertex -8.09017 5.87785 0
      vertex -8.09017 5.87785 -4.5
    endloop
  endfacet
  facet normal -0.844325 0.535831 0
    outer loop
      vertex -8.09017 5.87785 0
      vertex -8.76307 4.81754 -4.5
      vertex -8.76307 4.81754 0
    endloop
  endfacet
  facet normal -0.248691 0.968583 0
    outer loop
      vertex -1.87381 9.82287 -4.5
      vertex -3.09017 9.51056 0
      vertex -1.87381 9.82287 0
    endloop
  endfacet
  facet normal -0.248691 0.968583 0
    outer loop
      vertex -3.09017 9.51056 0
      vertex -1.87381 9.82287 -4.5
      vertex -3.09017 9.51056 -4.5
    endloop
  endfacet
  facet normal -0.684545 0.728971 0
    outer loop
      vertex -6.37424 7.70513 -4.5
      vertex -7.28969 6.84547 0
      vertex -6.37424 7.70513 0
    endloop
  endfacet
  facet normal -0.684545 0.728971 0
    outer loop
      vertex -7.28969 6.84547 0
      vertex -6.37424 7.70513 -4.5
      vertex -7.28969 6.84547 -4.5
    endloop
  endfacet
  facet normal 0.982287 -0.187384 0
    outer loop
      vertex 9.68583 -2.4869 0
      vertex 9.92115 -1.25333 -4.5
      vertex 9.92115 -1.25333 0
    endloop
  endfacet
  facet normal 0.982287 -0.187384 0
    outer loop
      vertex 9.92115 -1.25333 -4.5
      vertex 9.68583 -2.4869 0
      vertex 9.68583 -2.4869 -4.5
    endloop
  endfacet
  facet normal -0.248691 -0.968583 0
    outer loop
      vertex -3.09017 -9.51056 -4.5
      vertex -1.87381 -9.82287 0
      vertex -3.09017 -9.51056 0
    endloop
  endfacet
  facet normal -0.248691 -0.968583 -0
    outer loop
      vertex -1.87381 -9.82287 0
      vertex -3.09017 -9.51056 -4.5
      vertex -1.87381 -9.82287 -4.5
    endloop
  endfacet
  facet normal 0.125338 -0.992114 0
    outer loop
      vertex 0.627905 -9.98027 -4.5
      vertex 1.87381 -9.82287 0
      vertex 0.627905 -9.98027 0
    endloop
  endfacet
  facet normal 0.125338 -0.992114 0
    outer loop
      vertex 1.87381 -9.82287 0
      vertex 0.627905 -9.98027 -4.5
      vertex 1.87381 -9.82287 -4.5
    endloop
  endfacet
  facet normal 0.982287 0.187384 0
    outer loop
      vertex 9.92115 1.25333 0
      vertex 9.68583 2.4869 -4.5
      vertex 9.68583 2.4869 0
    endloop
  endfacet
  facet normal 0.982287 0.187384 0
    outer loop
      vertex 9.68583 2.4869 -4.5
      vertex 9.92115 1.25333 0
      vertex 9.92115 1.25333 -4.5
    endloop
  endfacet
  facet normal 0.770515 0.637422 0
    outer loop
      vertex 8.09017 5.87785 0
      vertex 7.28969 6.84547 -4.5
      vertex 7.28969 6.84547 0
    endloop
  endfacet
  facet normal 0.770515 0.637422 0
    outer loop
      vertex 7.28969 6.84547 -4.5
      vertex 8.09017 5.87785 0
      vertex 8.09017 5.87785 -4.5
    endloop
  endfacet
  facet normal 0.481751 -0.876308 0
    outer loop
      vertex 4.25779 -9.04827 -4.5
      vertex 5.35827 -8.44328 0
      vertex 4.25779 -9.04827 0
    endloop
  endfacet
  facet normal 0.481751 -0.876308 0
    outer loop
      vertex 5.35827 -8.44328 0
      vertex 4.25779 -9.04827 -4.5
      vertex 5.35827 -8.44328 -4.5
    endloop
  endfacet
  facet normal 0.770515 -0.637422 0
    outer loop
      vertex 7.28969 -6.84547 0
      vertex 8.09017 -5.87785 -4.5
      vertex 8.09017 -5.87785 0
    endloop
  endfacet
  facet normal 0.770515 -0.637422 0
    outer loop
      vertex 8.09017 -5.87785 -4.5
      vertex 7.28969 -6.84547 0
      vertex 7.28969 -6.84547 -4.5
    endloop
  endfacet
  facet normal 0.844325 -0.535831 0
    outer loop
      vertex 8.09017 -5.87785 0
      vertex 8.76307 -4.81754 -4.5
      vertex 8.76307 -4.81754 0
    endloop
  endfacet
  facet normal 0.844325 -0.535831 0
    outer loop
      vertex 8.76307 -4.81754 -4.5
      vertex 8.09017 -5.87785 0
      vertex 8.09017 -5.87785 -4.5
    endloop
  endfacet
  facet normal -0.998027 -0.0627883 0
    outer loop
      vertex -9.92115 -1.25333 -4.5
      vertex -10 0 0
      vertex -10 0 -4.5
    endloop
  endfacet
  facet normal -0.998027 -0.0627883 0
    outer loop
      vertex -10 0 0
      vertex -9.92115 -1.25333 -4.5
      vertex -9.92115 -1.25333 0
    endloop
  endfacet
  facet normal -0.951055 -0.309021 0
    outer loop
      vertex -9.29776 -3.68124 -4.5
      vertex -9.68583 -2.4869 0
      vertex -9.68583 -2.4869 -4.5
    endloop
  endfacet
  facet normal -0.951055 -0.309021 0
    outer loop
      vertex -9.68583 -2.4869 0
      vertex -9.29776 -3.68124 -4.5
      vertex -9.29776 -3.68124 0
    endloop
  endfacet
  facet normal -0.770515 -0.637422 0
    outer loop
      vertex -7.28969 -6.84547 -4.5
      vertex -8.09017 -5.87785 0
      vertex -8.09017 -5.87785 -4.5
    endloop
  endfacet
  facet normal -0.770515 -0.637422 0
    outer loop
      vertex -8.09017 -5.87785 0
      vertex -7.28969 -6.84547 -4.5
      vertex -7.28969 -6.84547 0
    endloop
  endfacet
  facet normal -0.904831 -0.425771 0
    outer loop
      vertex -8.76307 -4.81754 -4.5
      vertex -9.29776 -3.68124 0
      vertex -9.29776 -3.68124 -4.5
    endloop
  endfacet
  facet normal -0.904831 -0.425771 0
    outer loop
      vertex -9.29776 -3.68124 0
      vertex -8.76307 -4.81754 -4.5
      vertex -8.76307 -4.81754 0
    endloop
  endfacet
  facet normal 0.684545 -0.728971 0
    outer loop
      vertex 6.37424 -7.70513 -4.5
      vertex 7.28969 -6.84547 0
      vertex 6.37424 -7.70513 0
    endloop
  endfacet
  facet normal 0.684545 -0.728971 0
    outer loop
      vertex 7.28969 -6.84547 0
      vertex 6.37424 -7.70513 -4.5
      vertex 7.28969 -6.84547 -4.5
    endloop
  endfacet
  facet normal 0.587788 -0.809015 0
    outer loop
      vertex 5.35827 -8.44328 -4.5
      vertex 6.37424 -7.70513 0
      vertex 5.35827 -8.44328 0
    endloop
  endfacet
  facet normal 0.587788 -0.809015 0
    outer loop
      vertex 6.37424 -7.70513 0
      vertex 5.35827 -8.44328 -4.5
      vertex 6.37424 -7.70513 -4.5
    endloop
  endfacet
  facet normal 0.904831 -0.425771 0
    outer loop
      vertex 8.76307 -4.81754 0
      vertex 9.29776 -3.68124 -4.5
      vertex 9.29776 -3.68124 0
    endloop
  endfacet
  facet normal 0.904831 -0.425771 0
    outer loop
      vertex 9.29776 -3.68124 -4.5
      vertex 8.76307 -4.81754 0
      vertex 8.76307 -4.81754 -4.5
    endloop
  endfacet
  facet normal -0.684545 -0.728971 0
    outer loop
      vertex -7.28969 -6.84547 -4.5
      vertex -6.37424 -7.70513 0
      vertex -7.28969 -6.84547 0
    endloop
  endfacet
  facet normal -0.684545 -0.728971 -0
    outer loop
      vertex -6.37424 -7.70513 0
      vertex -7.28969 -6.84547 -4.5
      vertex -6.37424 -7.70513 -4.5
    endloop
  endfacet
  facet normal 0 -1 0
    outer loop
      vertex -0.627905 -9.98027 -4.5
      vertex 0.627905 -9.98027 0
      vertex -0.627905 -9.98027 0
    endloop
  endfacet
  facet normal 0 -1 -0
    outer loop
      vertex 0.627905 -9.98027 0
      vertex -0.627905 -9.98027 -4.5
      vertex 0.627905 -9.98027 -4.5
    endloop
  endfacet
  facet normal -0.481751 -0.876308 0
    outer loop
      vertex -5.35827 -8.44328 -4.5
      vertex -4.25779 -9.04827 0
      vertex -5.35827 -8.44328 0
    endloop
  endfacet
  facet normal -0.481751 -0.876308 -0
    outer loop
      vertex -4.25779 -9.04827 0
      vertex -5.35827 -8.44328 -4.5
      vertex -4.25779 -9.04827 -4.5
    endloop
  endfacet
  facet normal 0 0 -1
    outer loop
      vertex 5.91425 0 -4.5
      vertex 10 0 -4.5
      vertex 9.92115 -1.25333 -4.5
    endloop
  endfacet
  facet normal 0 0 -1
    outer loop
      vertex 5.91425 0 -4.5
      vertex 9.92115 -1.25333 -4.5
      vertex 9.68583 -2.4869 -4.5
    endloop
  endfacet
  facet normal 0 0 -1
    outer loop
      vertex 10 0 -4.5
      vertex 5.91425 0 -4.5
      vertex 9.92115 1.25333 -4.5
    endloop
  endfacet
  facet normal 0 0 -1
    outer loop
      vertex 5.91425 0 -4.5
      vertex 9.68583 -2.4869 -4.5
      vertex 9.29776 -3.68124 -4.5
    endloop
  endfacet
  facet normal -0 0 -1
    outer loop
      vertex 9.92115 1.25333 -4.5
      vertex 5.91425 0 -4.5
      vertex 9.68583 2.4869 -4.5
    endloop
  endfacet
  facet normal 0 0 -1
    outer loop
      vertex 5.91425 0 -4.5
      vertex 9.29776 -3.68124 -4.5
      vertex 8.76307 -4.81754 -4.5
    endloop
  endfacet
  facet normal -0 0 -1
    outer loop
      vertex 9.68583 2.4869 -4.5
      vertex 5.91425 0 -4.5
      vertex 9.29776 3.68124 -4.5
    endloop
  endfacet
  facet normal 0 0 -1
    outer loop
      vertex 2.95712 -5.12189 -4.5
      vertex 8.76307 -4.81754 -4.5
      vertex 8.09017 -5.87785 -4.5
    endloop
  endfacet
  facet normal -0 0 -1
    outer loop
      vertex 9.29776 3.68124 -4.5
      vertex 5.91425 0 -4.5
      vertex 8.76307 4.81754 -4.5
    endloop
  endfacet
  facet normal 0 0 -1
    outer loop
      vertex 2.95712 -5.12189 -4.5
      vertex 8.09017 -5.87785 -4.5
      vertex 7.28969 -6.84547 -4.5
    endloop
  endfacet
  facet normal 0 0 -1
    outer loop
      vertex 2.95712 5.12189 -4.5
      vertex 8.76307 4.81754 -4.5
      vertex 5.91425 0 -4.5
    endloop
  endfacet
  facet normal 0 0 -1
    outer loop
      vertex 2.95712 -5.12189 -4.5
      vertex 7.28969 -6.84547 -4.5
      vertex 6.37424 -7.70513 -4.5
    endloop
  endfacet
  facet normal 0 0 -1
    outer loop
      vertex 8.76307 4.81754 -4.5
      vertex 2.95712 5.12189 -4.5
      vertex 8.09017 5.87785 -4.5
    endloop
  endfacet
  facet normal -0 0 -1
    outer loop
      vertex 8.09017 5.87785 -4.5
      vertex 2.95712 5.12189 -4.5
      vertex 7.28969 6.84547 -4.5
    endloop
  endfacet
  facet normal 0 0 -1
    outer loop
      vertex 2.95712 -5.12189 -4.5
      vertex 6.37424 -7.70513 -4.5
      vertex 5.35827 -8.44328 -4.5
    endloop
  endfacet
  facet normal 0 0 -1
    outer loop
      vertex 2.95712 -5.12189 -4.5
      vertex 5.35827 -8.44328 -4.5
      vertex 4.25779 -9.04827 -4.5
    endloop
  endfacet
  facet normal 0 0 -1
    outer loop
      vertex 2.95712 -5.12189 -4.5
      vertex 4.25779 -9.04827 -4.5
      vertex 3.09017 -9.51056 -4.5
    endloop
  endfacet
  facet normal -0 0 -1
    outer loop
      vertex 8.76307 -4.81754 -4.5
      vertex 2.95712 -5.12189 -4.5
      vertex 5.91425 0 -4.5
    endloop
  endfacet
  facet normal 0 0 -1
    outer loop
      vertex 1.87381 -9.82287 -4.5
      vertex 2.95712 -5.12189 -4.5
      vertex 3.09017 -9.51056 -4.5
    endloop
  endfacet
  facet normal 0 0 -1
    outer loop
      vertex 0.627905 -9.98027 -4.5
      vertex 2.95712 -5.12189 -4.5
      vertex 1.87381 -9.82287 -4.5
    endloop
  endfacet
  facet normal 0 0 -1
    outer loop
      vertex -0.627905 -9.98027 -4.5
      vertex 2.95712 -5.12189 -4.5
      vertex 0.627905 -9.98027 -4.5
    endloop
  endfacet
  facet normal 0 0 -1
    outer loop
      vertex -2.95712 -5.12189 -4.5
      vertex -0.627905 -9.98027 -4.5
      vertex -1.87381 -9.82287 -4.5
    endloop
  endfacet
  facet normal 0 0 -1
    outer loop
      vertex -0.627905 -9.98027 -4.5
      vertex -2.95712 -5.12189 -4.5
      vertex 2.95712 -5.12189 -4.5
    endloop
  endfacet
  facet normal 0 0 -1
    outer loop
      vertex -3.09017 -9.51056 -4.5
      vertex -2.95712 -5.12189 -4.5
      vertex -1.87381 -9.82287 -4.5
    endloop
  endfacet
  facet normal 0 0 -1
    outer loop
      vertex -4.25779 -9.04827 -4.5
      vertex -2.95712 -5.12189 -4.5
      vertex -3.09017 -9.51056 -4.5
    endloop
  endfacet
  facet normal 0 0 -1
    outer loop
      vertex -5.35827 -8.44328 -4.5
      vertex -2.95712 -5.12189 -4.5
      vertex -4.25779 -9.04827 -4.5
    endloop
  endfacet
  facet normal 0 0 -1
    outer loop
      vertex -6.37424 -7.70513 -4.5
      vertex -2.95712 -5.12189 -4.5
      vertex -5.35827 -8.44328 -4.5
    endloop
  endfacet
  facet normal 0 0 -1
    outer loop
      vertex -7.28969 -6.84547 -4.5
      vertex -2.95712 -5.12189 -4.5
      vertex -6.37424 -7.70513 -4.5
    endloop
  endfacet
  facet normal -0 0 -1
    outer loop
      vertex 7.28969 6.84547 -4.5
      vertex 2.95712 5.12189 -4.5
      vertex 6.37424 7.70513 -4.5
    endloop
  endfacet
  facet normal -0 0 -1
    outer loop
      vertex 6.37424 7.70513 -4.5
      vertex 2.95712 5.12189 -4.5
      vertex 5.35827 8.44328 -4.5
    endloop
  endfacet
  facet normal -0 0 -1
    outer loop
      vertex 5.35827 8.44328 -4.5
      vertex 2.95712 5.12189 -4.5
      vertex 4.25779 9.04827 -4.5
    endloop
  endfacet
  facet normal -0 0 -1
    outer loop
      vertex 4.25779 9.04827 -4.5
      vertex 2.95712 5.12189 -4.5
      vertex 3.09017 9.51056 -4.5
    endloop
  endfacet
  facet normal 0 0 -1
    outer loop
      vertex 2.95712 5.12189 -4.5
      vertex 1.87381 9.82287 -4.5
      vertex 3.09017 9.51056 -4.5
    endloop
  endfacet
  facet normal 0 0 -1
    outer loop
      vertex 2.95712 5.12189 -4.5
      vertex 0.627905 9.98027 -4.5
      vertex 1.87381 9.82287 -4.5
    endloop
  endfacet
  facet normal 0 0 -1
    outer loop
      vertex 2.95712 5.12189 -4.5
      vertex -0.627905 9.98027 -4.5
      vertex 0.627905 9.98027 -4.5
    endloop
  endfacet
  facet normal 0 0 -1
    outer loop
      vertex -2.95712 5.12189 -4.5
      vertex -0.627905 9.98027 -4.5
      vertex 2.95712 5.12189 -4.5
    endloop
  endfacet
  facet normal 0 0 -1
    outer loop
      vertex -0.627905 9.98027 -4.5
      vertex -2.95712 5.12189 -4.5
      vertex -1.87381 9.82287 -4.5
    endloop
  endfacet
  facet normal 0 0 -1
    outer loop
      vertex -2.95712 5.12189 -4.5
      vertex -3.09017 9.51056 -4.5
      vertex -1.87381 9.82287 -4.5
    endloop
  endfacet
  facet normal 0 0 -1
    outer loop
      vertex -2.95712 5.12189 -4.5
      vertex -4.25779 9.04827 -4.5
      vertex -3.09017 9.51056 -4.5
    endloop
  endfacet
  facet normal 0 0 -1
    outer loop
      vertex -2.95712 5.12189 -4.5
      vertex -5.35827 8.44328 -4.5
      vertex -4.25779 9.04827 -4.5
    endloop
  endfacet
  facet normal 0 0 -1
    outer loop
      vertex -8.76307 4.81754 -4.5
      vertex -2.95712 5.12189 -4.5
      vertex -5.91425 0 -4.5
    endloop
  endfacet
  facet normal 0 0 -1
    outer loop
      vertex -2.95712 5.12189 -4.5
      vertex -6.37424 7.70513 -4.5
      vertex -5.35827 8.44328 -4.5
    endloop
  endfacet
  facet normal 0 0 -1
    outer loop
      vertex -8.09017 -5.87785 -4.5
      vertex -2.95712 -5.12189 -4.5
      vertex -7.28969 -6.84547 -4.5
    endloop
  endfacet
  facet normal 0 0 -1
    outer loop
      vertex -8.76307 -4.81754 -4.5
      vertex -2.95712 -5.12189 -4.5
      vertex -8.09017 -5.87785 -4.5
    endloop
  endfacet
  facet normal 0 0 -1
    outer loop
      vertex -2.95712 5.12189 -4.5
      vertex -7.28969 6.84547 -4.5
      vertex -6.37424 7.70513 -4.5
    endloop
  endfacet
  facet normal 0 0 -1
    outer loop
      vertex -2.95712 -5.12189 -4.5
      vertex -8.76307 -4.81754 -4.5
      vertex -5.91425 0 -4.5
    endloop
  endfacet
  facet normal 0 0 -1
    outer loop
      vertex -2.95712 5.12189 -4.5
      vertex -8.09017 5.87785 -4.5
      vertex -7.28969 6.84547 -4.5
    endloop
  endfacet
  facet normal 0 0 -1
    outer loop
      vertex -9.29776 -3.68124 -4.5
      vertex -5.91425 0 -4.5
      vertex -8.76307 -4.81754 -4.5
    endloop
  endfacet
  facet normal -0 0 -1
    outer loop
      vertex -2.95712 5.12189 -4.5
      vertex -8.76307 4.81754 -4.5
      vertex -8.09017 5.87785 -4.5
    endloop
  endfacet
  facet normal 0 0 -1
    outer loop
      vertex -9.68583 -2.4869 -4.5
      vertex -5.91425 0 -4.5
      vertex -9.29776 -3.68124 -4.5
    endloop
  endfacet
  facet normal 0 0 -1
    outer loop
      vertex -5.91425 0 -4.5
      vertex -9.29776 3.68124 -4.5
      vertex -8.76307 4.81754 -4.5
    endloop
  endfacet
  facet normal 0 0 -1
    outer loop
      vertex -9.92115 -1.25333 -4.5
      vertex -5.91425 0 -4.5
      vertex -9.68583 -2.4869 -4.5
    endloop
  endfacet
  facet normal 0 0 -1
    outer loop
      vertex -5.91425 0 -4.5
      vertex -9.68583 2.4869 -4.5
      vertex -9.29776 3.68124 -4.5
    endloop
  endfacet
  facet normal 0 0 -1
    outer loop
      vertex -10 0 -4.5
      vertex -5.91425 0 -4.5
      vertex -9.92115 -1.25333 -4.5
    endloop
  endfacet
  facet normal 0 0 -1
    outer loop
      vertex -5.91425 0 -4.5
      vertex -9.92115 1.25333 -4.5
      vertex -9.68583 2.4869 -4.5
    endloop
  endfacet
  facet normal 0 0 -1
    outer loop
      vertex -5.91425 0 -4.5
      vertex -10 0 -4.5
      vertex -9.92115 1.25333 -4.5
    endloop
  endfacet
  facet normal -0.982287 -0.187384 0
    outer loop
      vertex -9.68583 -2.4869 -4.5
      vertex -9.92115 -1.25333 0
      vertex -9.92115 -1.25333 -4.5
    endloop
  endfacet
  facet normal -0.982287 -0.187384 0
    outer loop
      vertex -9.92115 -1.25333 0
      vertex -9.68583 -2.4869 -4.5
      vertex -9.68583 -2.4869 0
    endloop
  endfacet
  facet normal -0.844325 -0.535831 0
    outer loop
      vertex -8.09017 -5.87785 -4.5
      vertex -8.76307 -4.81754 0
      vertex -8.76307 -4.81754 -4.5
    endloop
  endfacet
  facet normal -0.844325 -0.535831 0
    outer loop
      vertex -8.76307 -4.81754 0
      vertex -8.09017 -5.87785 -4.5
      vertex -8.09017 -5.87785 0
    endloop
  endfacet
  facet normal -0.587788 -0.809015 0
    outer loop
      vertex -6.37424 -7.70513 -4.5
      vertex -5.35827 -8.44328 0
      vertex -6.37424 -7.70513 0
    endloop
  endfacet
  facet normal -0.587788 -0.809015 -0
    outer loop
      vertex -5.35827 -8.44328 0
      vertex -6.37424 -7.70513 -4.5
      vertex -5.35827 -8.44328 -4.5
    endloop
  endfacet
  facet normal -0.368122 -0.929777 0
    outer loop
      vertex -4.25779 -9.04827 -4.5
      vertex -3.09017 -9.51056 0
      vertex -4.25779 -9.04827 0
    endloop
  endfacet
  facet normal -0.368122 -0.929777 -0
    outer loop
      vertex -3.09017 -9.51056 0
      vertex -4.25779 -9.04827 -4.5
      vertex -3.09017 -9.51056 -4.5
    endloop
  endfacet
endsolid OpenSCAD_Model
