solid OpenSCAD_Model
  facet normal 0.753690434514316 0.4783064941172175 0.4507478525815932
    outer loop
      vertex -1.9214153616405003 -1.3959899741946238 -4.2
      vertex -2.0812283651041756 -1.144164975991574 -4.2
      vertex -3.9433800601973856 -2.1678915334577193 0
    endloop
  endfacet
  facet normal 0.6877996607792315 0.5689973638120447 0.45074785258159306
    outer loop
      vertex -3.6405764746872635 -2.6450336353161292 0
      vertex -1.7313004901258526 -1.6257993765806351 -4.2
      vertex -1.9214153616405003 -1.3959899741946238 -4.2
    endloop
  endfacet
  facet normal 0.5246872794572313 0.7221700853461402 0.45074785258159317
    outer loop
      vertex -1.5138819756531379 -1.8299689515924997 -4.2
      vertex -2.4112205774054853 -3.7994756647590675 0
      vertex -1.2725886380751172 -2.0052788230672856 -4.2
    endloop
  endfacet
  facet normal 0.6110618755220594 0.6507148051770035 0.45074785258159317
    outer loop
      vertex -1.5138819756531379 -1.8299689515924997 -4.2
      vertex -1.7313004901258526 -1.6257993765806351 -4.2
      vertex -2.868407953869103 -3.467309592491052 0
    endloop
  endfacet
  facet normal 0.8076950598642656 0.3800724452837155 0.4507478525815932
    outer loop
      vertex -2.0812283651041756 -1.144164975991574 -4.2
      vertex -2.2082191539845972 -0.8742958126261099 -4.2
      vertex -4.183994186497132 -1.6565604870810504 0
    endloop
  endfacet
  facet normal 0.8489618516265156 0.2758444269438128 0.4507478525815931
    outer loop
      vertex -2.2082191539845972 -0.8742958126261099 -4.2
      vertex -2.300385007680499 -0.5906384820165302 -4.2
      vertex -4.35862422507884 -1.119104492241847 0
    endloop
  endfacet
  facet normal 0.8768400078433869 0.16726617720953477 0.4507478525815933
    outer loop
      vertex -2.300385007680499 -0.5906384820165302 -4.2
      vertex -2.356272415621885 -0.29766642971522217 -4.2
      vertex -4.464516155915151 -0.5639995510393683 0
    endloop
  endfacet
  facet normal 0.8908898733377372 0.05605003994068938 0.4507478525815932
    outer loop
      vertex -2.356272415621885 -0.29766642971522217 -4.2
      vertex -2.375 0 -4.2
      vertex -4.5 0 0
    endloop
  endfacet
  facet normal 0.43003805156237584 0.7822363118658694 0.45074785258159317
    outer loop
      vertex -1.011225817467047 -2.1489642496067964 -4.2
      vertex -1.2725886380751172 -2.0052788230672856 -4.2
      vertex -1.916006812042826 -4.071721736097088 0
    endloop
  endfacet
  facet normal 0.32860686670210154 0.8299662044621514 0.45074785258159317
    outer loop
      vertex -0.7339153616405001 -2.2587592262009895 -4.2
      vertex -1.011225817467047 -2.1489642496067964 -4.2
      vertex -1.3905764746872633 -4.2797543233281905 0
    endloop
  endfacet
  facet normal 0.2219933552537093 0.8646070342162865 0.4507478525815931
    outer loop
      vertex -0.44503062214109645 -2.3329322204806355 -4.2
      vertex -0.7339153616405001 -2.2587592262009895 -4.2
      vertex -0.8432159156357617 -4.420292628279099 0
    endloop
  endfacet
  facet normal 0.11187887598056206 0.8856124945496243 0.4507478525815933
    outer loop
      vertex -0.1491274838821202 -2.370313480017145 -4.2
      vertex -0.44503062214109645 -2.3329322204806355 -4.2
      vertex -0.28255733788191195 -4.491120277927222 0
    endloop
  endfacet
  facet normal 0.7536904345143156 0.47830649411721815 0.45074785258159317
    outer loop
      vertex -3.9433800601973856 -2.1678915334577193 0
      vertex -3.6405764746872635 -2.6450336353161292 0
      vertex -1.9214153616405003 -1.3959899741946238 -4.2
    endloop
  endfacet
  facet normal 0.8076950598642654 0.38007244528371553 0.45074785258159306
    outer loop
      vertex -2.0812283651041756 -1.144164975991574 -4.2
      vertex -4.183994186497132 -1.6565604870810504 0
      vertex -3.9433800601973856 -2.1678915334577193 0
    endloop
  endfacet
  facet normal 0.8489618516265156 0.27584442694381267 0.45074785258159317
    outer loop
      vertex -2.2082191539845972 -0.8742958126261099 -4.2
      vertex -4.35862422507884 -1.119104492241847 0
      vertex -4.183994186497132 -1.6565604870810504 0
    endloop
  endfacet
  facet normal 0.8768400078433869 0.167266177209535 0.4507478525815933
    outer loop
      vertex -2.300385007680499 -0.5906384820165302 -4.2
      vertex -4.464516155915151 -0.5639995510393683 0
      vertex -4.35862422507884 -1.119104492241847 0
    endloop
  endfacet
  facet normal 0.8908898733377372 0.056050039940689245 0.45074785258159333
    outer loop
      vertex -2.356272415621885 -0.29766642971522217 -4.2
      vertex -4.5 0 0
      vertex -4.464516155915151 -0.5639995510393683 0
    endloop
  endfacet
  facet normal 0.4300380515623761 0.7822363118658692 0.4507478525815932
    outer loop
      vertex -2.4112205774054853 -3.7994756647590675 0
      vertex -1.916006812042826 -4.071721736097088 0
      vertex -1.2725886380751172 -2.0052788230672856 -4.2
    endloop
  endfacet
  facet normal 0.328606866702101 0.8299662044621516 0.4507478525815932
    outer loop
      vertex -1.916006812042826 -4.071721736097088 0
      vertex -1.3905764746872633 -4.2797543233281905 0
      vertex -1.011225817467047 -2.1489642496067964 -4.2
    endloop
  endfacet
  facet normal 0.22199335525370928 0.8646070342162864 0.45074785258159317
    outer loop
      vertex -1.3905764746872633 -4.2797543233281905 0
      vertex -0.8432159156357617 -4.420292628279099 0
      vertex -0.7339153616405001 -2.2587592262009895 -4.2
    endloop
  endfacet
  facet normal 0.11187887598056206 0.8856124945496242 0.45074785258159317
    outer loop
      vertex -0.8432159156357617 -4.420292628279099 0
      vertex -0.28255733788191195 -4.491120277927222 0
      vertex -0.44503062214109645 -2.3329322204806355 -4.2
    endloop
  endfacet
  facet normal 0 0.8926513168046538 0.4507478525815932
    outer loop
      vertex -0.28255733788191195 -4.491120277927222 0
      vertex 0.28255733788191195 -4.491120277927222 0
      vertex -0.1491274838821202 -2.370313480017145 -4.2
    endloop
  endfacet
  facet normal 0.6877996607792319 0.5689973638120444 0.4507478525815932
    outer loop
      vertex -3.2803588233963525 -3.080461976679098 0
      vertex -1.7313004901258526 -1.6257993765806351 -4.2
      vertex -3.6405764746872635 -2.6450336353161292 0
    endloop
  endfacet
  facet normal 0.6110618755220588 0.6507148051770039 0.45074785258159317
    outer loop
      vertex -3.2803588233963525 -3.080461976679098 0
      vertex -2.868407953869103 -3.467309592491052 0
      vertex -1.7313004901258526 -1.6257993765806351 -4.2
    endloop
  endfacet
  facet normal 0.5246872794572318 0.72217008534614 0.4507478525815932
    outer loop
      vertex -1.5138819756531379 -1.8299689515924997 -4.2
      vertex -2.868407953869103 -3.467309592491052 0
      vertex -2.4112205774054853 -3.7994756647590675 0
    endloop
  endfacet
  facet normal 0.8908898733377372 -0.05605003994068938 0.4507478525815932
    outer loop
      vertex -2.375 0 -4.2
      vertex -2.356272415621885 0.29766642971522217 -4.2
      vertex -4.5 0 0
    endloop
  endfacet
  facet normal 0.8768400078433869 -0.16726617720953477 0.4507478525815933
    outer loop
      vertex -2.356272415621885 0.29766642971522217 -4.2
      vertex -2.300385007680499 0.5906384820165302 -4.2
      vertex -4.464516155915151 0.5639995510393683 0
    endloop
  endfacet
  facet normal 0.8489618516265156 -0.2758444269438128 0.4507478525815932
    outer loop
      vertex -2.300385007680499 0.5906384820165302 -4.2
      vertex -2.2082191539845972 0.8742958126261099 -4.2
      vertex -4.35862422507884 1.119104492241847 0
    endloop
  endfacet
  facet normal 0.8076950598642656 -0.3800724452837155 0.4507478525815932
    outer loop
      vertex -2.2082191539845972 0.8742958126261099 -4.2
      vertex -2.0812283651041756 1.144164975991574 -4.2
      vertex -4.183994186497132 1.6565604870810504 0
    endloop
  endfacet
  facet normal 0.753690434514316 -0.4783064941172175 0.4507478525815933
    outer loop
      vertex -2.0812283651041756 1.144164975991574 -4.2
      vertex -1.9214153616405003 1.3959899741946238 -4.2
      vertex -3.9433800601973856 2.1678915334577193 0
    endloop
  endfacet
  facet normal 0.6877996607792316 -0.5689973638120447 0.45074785258159317
    outer loop
      vertex -1.9214153616405003 1.3959899741946238 -4.2
      vertex -1.7313004901258526 1.6257993765806351 -4.2
      vertex -3.6405764746872635 2.6450336353161292 0
    endloop
  endfacet
  facet normal 0.6110618755220594 -0.6507148051770035 0.45074785258159317
    outer loop
      vertex -1.5138819756531379 1.8299689515924997 -4.2
      vertex -2.868407953869103 3.467309592491052 0
      vertex -1.7313004901258526 1.6257993765806351 -4.2
    endloop
  endfacet
  facet normal 0.5246872794572313 -0.7221700853461402 0.45074785258159317
    outer loop
      vertex -1.5138819756531379 1.8299689515924997 -4.2
      vertex -1.2725886380751172 2.0052788230672856 -4.2
      vertex -2.4112205774054853 3.7994756647590675 0
    endloop
  endfacet
  facet normal 0.43003805156237673 -0.782236311865869 0.4507478525815931
    outer loop
      vertex -1.2725886380751172 2.0052788230672856 -4.2
      vertex -1.0112258174670476 2.1489642496067964 -4.2
      vertex -1.9160068120428273 4.071721736097087 0
    endloop
  endfacet
  facet normal 0.3286068667021008 -0.8299662044621516 0.4507478525815931
    outer loop
      vertex -1.0112258174670476 2.1489642496067964 -4.2
      vertex -0.7339153616405001 2.2587592262009895 -4.2
      vertex -1.3905764746872633 4.2797543233281905 0
    endloop
  endfacet
  facet normal 0.22199335525370886 -0.8646070342162866 0.45074785258159317
    outer loop
      vertex -0.7339153616405001 2.2587592262009895 -4.2
      vertex -0.44503062214109584 2.3329322204806355 -4.2
      vertex -0.8432159156357606 4.420292628279099 0
    endloop
  endfacet
  facet normal 0.11187887598056234 -0.8856124945496243 0.45074785258159306
    outer loop
      vertex -0.2825573378819078 4.491120277927222 0
      vertex -0.44503062214109584 2.3329322204806355 -4.2
      vertex -0.14912748388211902 2.370313480017145 -4.2
    endloop
  endfacet
  facet normal 0 -0.8926513168046538 0.4507478525815932
    outer loop
      vertex -0.2825573378819078 4.491120277927222 0
      vertex -0.14912748388211902 2.370313480017145 -4.2
      vertex 0.1491274838821164 2.370313480017145 -4.2
    endloop
  endfacet
  facet normal 0.8908898733377372 -0.05605003994068924 0.45074785258159317
    outer loop
      vertex -4.464516155915151 0.5639995510393683 0
      vertex -4.5 0 0
      vertex -2.356272415621885 0.29766642971522217 -4.2
    endloop
  endfacet
  facet normal 0.8768400078433869 -0.16726617720953482 0.45074785258159317
    outer loop
      vertex -4.35862422507884 1.119104492241847 0
      vertex -4.464516155915151 0.5639995510393683 0
      vertex -2.300385007680499 0.5906384820165302 -4.2
    endloop
  endfacet
  facet normal 0.8489618516265156 -0.2758444269438126 0.45074785258159317
    outer loop
      vertex -4.183994186497132 1.6565604870810504 0
      vertex -4.35862422507884 1.119104492241847 0
      vertex -2.2082191539845972 0.8742958126261099 -4.2
    endloop
  endfacet
  facet normal 0.8076950598642656 -0.3800724452837153 0.4507478525815933
    outer loop
      vertex -3.9433800601973856 2.1678915334577193 0
      vertex -4.183994186497132 1.6565604870810504 0
      vertex -2.0812283651041756 1.144164975991574 -4.2
    endloop
  endfacet
  facet normal 0.7536904345143156 -0.47830649411721815 0.45074785258159317
    outer loop
      vertex -3.6405764746872635 2.6450336353161292 0
      vertex -3.9433800601973856 2.1678915334577193 0
      vertex -1.9214153616405003 1.3959899741946238 -4.2
    endloop
  endfacet
  facet normal 0.6877996607792319 -0.5689973638120444 0.4507478525815932
    outer loop
      vertex -3.2803588233963525 3.080461976679098 0
      vertex -3.6405764746872635 2.6450336353161292 0
      vertex -1.7313004901258526 1.6257993765806351 -4.2
    endloop
  endfacet
  facet normal 0.6110618755220588 -0.6507148051770039 0.45074785258159317
    outer loop
      vertex -3.2803588233963525 3.080461976679098 0
      vertex -1.7313004901258526 1.6257993765806351 -4.2
      vertex -2.868407953869103 3.467309592491052 0
    endloop
  endfacet
  facet normal 0.5246872794572318 -0.72217008534614 0.4507478525815932
    outer loop
      vertex -2.868407953869103 3.467309592491052 0
      vertex -1.5138819756531379 1.8299689515924997 -4.2
      vertex -2.4112205774054853 3.7994756647590675 0
    endloop
  endfacet
  facet normal 0.43003805156237596 -0.7822363118658694 0.45074785258159317
    outer loop
      vertex -1.9160068120428273 4.071721736097087 0
      vertex -2.4112205774054853 3.7994756647590675 0
      vertex -1.2725886380751172 2.0052788230672856 -4.2
    endloop
  endfacet
  facet normal 0.3286068667021015 -0.8299662044621513 0.4507478525815931
    outer loop
      vertex -1.3905764746872633 4.2797543233281905 0
      vertex -1.9160068120428273 4.071721736097087 0
      vertex -1.0112258174670476 2.1489642496067964 -4.2
    endloop
  endfacet
  facet normal 0.22199335525370897 -0.8646070342162865 0.4507478525815931
    outer loop
      vertex -0.7339153616405001 2.2587592262009895 -4.2
      vertex -0.8432159156357606 4.420292628279099 0
      vertex -1.3905764746872633 4.2797543233281905 0
    endloop
  endfacet
  facet normal 0.11187887598056144 -0.8856124945496243 0.4507478525815931
    outer loop
      vertex -0.2825573378819078 4.491120277927222 0
      vertex -0.8432159156357606 4.420292628279099 0
      vertex -0.44503062214109584 2.3329322204806355 -4.2
    endloop
  endfacet
  facet normal 0 0.8926513168046538 0.4507478525815933
    outer loop
      vertex 0.28255733788191195 -4.491120277927222 0
      vertex 0.1491274838821202 -2.370313480017145 -4.2
      vertex -0.1491274838821202 -2.370313480017145 -4.2
    endloop
  endfacet
  facet normal -0.11187887598056206 0.8856124945496243 0.4507478525815933
    outer loop
      vertex 0.1491274838821202 -2.370313480017145 -4.2
      vertex 0.28255733788191195 -4.491120277927222 0
      vertex 0.44503062214109645 -2.3329322204806355 -4.2
    endloop
  endfacet
  facet normal -0.2219933552537093 0.8646070342162865 0.4507478525815931
    outer loop
      vertex 0.7339153616405001 -2.2587592262009895 -4.2
      vertex 0.44503062214109645 -2.3329322204806355 -4.2
      vertex 0.8432159156357617 -4.420292628279099 0
    endloop
  endfacet
  facet normal -0.32860686670210154 0.8299662044621514 0.45074785258159317
    outer loop
      vertex 1.011225817467047 -2.1489642496067964 -4.2
      vertex 0.7339153616405001 -2.2587592262009895 -4.2
      vertex 1.3905764746872633 -4.2797543233281905 0
    endloop
  endfacet
  facet normal -0.43003805156237546 0.7822363118658695 0.4507478525815932
    outer loop
      vertex 1.272588638075116 -2.0052788230672864 -4.2
      vertex 1.011225817467047 -2.1489642496067964 -4.2
      vertex 1.916006812042826 -4.071721736097088 0
    endloop
  endfacet
  facet normal -0.5246872794572311 0.7221700853461404 0.4507478525815932
    outer loop
      vertex 1.5138819756531388 -1.829968951592499 -4.2
      vertex 1.272588638075116 -2.0052788230672864 -4.2
      vertex 2.411220577405483 -3.799475664759069 0
    endloop
  endfacet
  facet normal -0.6110618755220596 0.6507148051770032 0.4507478525815931
    outer loop
      vertex 1.7313004901258526 -1.6257993765806351 -4.2
      vertex 1.5138819756531388 -1.829968951592499 -4.2
      vertex 2.868407953869105 -3.4673095924910506 0
    endloop
  endfacet
  facet normal -0.6877996607792316 0.5689973638120447 0.45074785258159317
    outer loop
      vertex 1.7313004901258526 -1.6257993765806351 -4.2
      vertex 3.6405764746872635 -2.6450336353161292 0
      vertex 1.9214153616405003 -1.3959899741946238 -4.2
    endloop
  endfacet
  facet normal -0.753690434514316 0.4783064941172175 0.4507478525815933
    outer loop
      vertex 2.0812283651041756 -1.144164975991574 -4.2
      vertex 1.9214153616405003 -1.3959899741946238 -4.2
      vertex 3.9433800601973856 -2.1678915334577193 0
    endloop
  endfacet
  facet normal -0.8076950598642653 0.38007244528371575 0.45074785258159317
    outer loop
      vertex 2.208219153984597 -0.8742958126261111 -4.2
      vertex 2.0812283651041756 -1.144164975991574 -4.2
      vertex 4.183994186497131 -1.6565604870810526 0
    endloop
  endfacet
  facet normal -0.8489618516265155 0.2758444269438132 0.4507478525815932
    outer loop
      vertex 2.3003850076804992 -0.5906384820165292 -4.2
      vertex 2.208219153984597 -0.8742958126261111 -4.2
      vertex 4.358624225078841 -1.119104492241845 0
    endloop
  endfacet
  facet normal -0.876840007843387 0.16726617720953402 0.4507478525815933
    outer loop
      vertex 2.356272415621885 -0.29766642971522217 -4.2
      vertex 2.3003850076804992 -0.5906384820165292 -4.2
      vertex 4.464516155915151 -0.5639995510393683 0
    endloop
  endfacet
  facet normal -0.8908898733377372 0.05605003994068938 0.4507478525815932
    outer loop
      vertex 2.375 0 -4.2
      vertex 2.356272415621885 -0.29766642971522217 -4.2
      vertex 4.5 0 0
    endloop
  endfacet
  facet normal -0.11187887598056206 0.8856124945496242 0.45074785258159317
    outer loop
      vertex 0.28255733788191195 -4.491120277927222 0
      vertex 0.8432159156357617 -4.420292628279099 0
      vertex 0.44503062214109645 -2.3329322204806355 -4.2
    endloop
  endfacet
  facet normal -0.22199335525370942 0.8646070342162864 0.45074785258159317
    outer loop
      vertex 0.7339153616405001 -2.2587592262009895 -4.2
      vertex 0.8432159156357617 -4.420292628279099 0
      vertex 1.3905764746872633 -4.2797543233281905 0
    endloop
  endfacet
  facet normal -0.328606866702101 0.8299662044621516 0.4507478525815932
    outer loop
      vertex 1.3905764746872633 -4.2797543233281905 0
      vertex 1.916006812042826 -4.071721736097088 0
      vertex 1.011225817467047 -2.1489642496067964 -4.2
    endloop
  endfacet
  facet normal -0.43003805156237596 0.7822363118658693 0.4507478525815932
    outer loop
      vertex 1.916006812042826 -4.071721736097088 0
      vertex 2.411220577405483 -3.799475664759069 0
      vertex 1.272588638075116 -2.0052788230672864 -4.2
    endloop
  endfacet
  facet normal -0.5246872794572317 0.72217008534614 0.4507478525815931
    outer loop
      vertex 1.5138819756531388 -1.829968951592499 -4.2
      vertex 2.411220577405483 -3.799475664759069 0
      vertex 2.868407953869105 -3.4673095924910506 0
    endloop
  endfacet
  facet normal -0.611061875522059 0.6507148051770036 0.4507478525815931
    outer loop
      vertex 1.7313004901258526 -1.6257993765806351 -4.2
      vertex 2.868407953869105 -3.4673095924910506 0
      vertex 3.2803588233963525 -3.080461976679098 0
    endloop
  endfacet
  facet normal -0.6877996607792319 0.5689973638120444 0.4507478525815932
    outer loop
      vertex 3.2803588233963525 -3.080461976679098 0
      vertex 3.6405764746872635 -2.6450336353161292 0
      vertex 1.7313004901258526 -1.6257993765806351 -4.2
    endloop
  endfacet
  facet normal -0.7536904345143156 0.47830649411721815 0.45074785258159317
    outer loop
      vertex 3.6405764746872635 -2.6450336353161292 0
      vertex 3.9433800601973856 -2.1678915334577193 0
      vertex 1.9214153616405003 -1.3959899741946238 -4.2
    endloop
  endfacet
  facet normal -0.8076950598642655 0.3800724452837155 0.4507478525815932
    outer loop
      vertex 3.9433800601973856 -2.1678915334577193 0
      vertex 4.183994186497131 -1.6565604870810526 0
      vertex 2.0812283651041756 -1.144164975991574 -4.2
    endloop
  endfacet
  facet normal -0.8489618516265155 0.27584442694381317 0.4507478525815932
    outer loop
      vertex 4.183994186497131 -1.6565604870810526 0
      vertex 4.358624225078841 -1.119104492241845 0
      vertex 2.208219153984597 -0.8742958126261111 -4.2
    endloop
  endfacet
  facet normal -0.8768400078433871 0.16726617720953407 0.4507478525815933
    outer loop
      vertex 4.358624225078841 -1.119104492241845 0
      vertex 4.464516155915151 -0.5639995510393683 0
      vertex 2.3003850076804992 -0.5906384820165292 -4.2
    endloop
  endfacet
  facet normal -0.8908898733377372 0.05605003994068924 0.45074785258159317
    outer loop
      vertex 4.464516155915151 -0.5639995510393683 0
      vertex 4.5 0 0
      vertex 2.356272415621885 -0.29766642971522217 -4.2
    endloop
  endfacet
  facet normal -0.1118788759805609 -0.8856124945496243 0.4507478525815932
    outer loop
      vertex 0.1491274838821164 2.370313480017145 -4.2
      vertex 0.44503062214109584 2.3329322204806355 -4.2
      vertex 0.28255733788190973 4.491120277927222 0
    endloop
  endfacet
  facet normal -0.22199335525370886 -0.8646070342162866 0.45074785258159317
    outer loop
      vertex 0.44503062214109584 2.3329322204806355 -4.2
      vertex 0.7339153616405001 2.2587592262009895 -4.2
      vertex 0.8432159156357606 4.420292628279099 0
    endloop
  endfacet
  facet normal -0.3286068667021008 -0.8299662044621516 0.4507478525815931
    outer loop
      vertex 0.7339153616405001 2.2587592262009895 -4.2
      vertex 1.0112258174670476 2.1489642496067964 -4.2
      vertex 1.3905764746872633 4.2797543233281905 0
    endloop
  endfacet
  facet normal -0.43003805156237596 -0.7822363118658695 0.45074785258159317
    outer loop
      vertex 1.0112258174670476 2.1489642496067964 -4.2
      vertex 1.272588638075117 2.005278823067286 -4.2
      vertex 1.9160068120428273 4.071721736097087 0
    endloop
  endfacet
  facet normal -0.8908898733377372 -0.0560500399406893 0.4507478525815932
    outer loop
      vertex 2.375 0 -4.2
      vertex 4.5 0 0
      vertex 2.356272415621885 0.2976664297152226 -4.2
    endloop
  endfacet
  facet normal -0.8768400078433869 -0.16726617720953504 0.4507478525815932
    outer loop
      vertex 2.300385007680499 0.5906384820165301 -4.2
      vertex 2.356272415621885 0.2976664297152226 -4.2
      vertex 4.464516155915151 0.5639995510393692 0
    endloop
  endfacet
  facet normal -0.8489618516265154 -0.2758444269438136 0.4507478525815932
    outer loop
      vertex 2.208219153984597 0.8742958126261102 -4.2
      vertex 2.300385007680499 0.5906384820165301 -4.2
      vertex 4.35862422507884 1.1191044922418465 0
    endloop
  endfacet
  facet normal -0.8076950598642664 -0.3800724452837137 0.4507478525815933
    outer loop
      vertex 2.081228365104176 1.144164975991574 -4.2
      vertex 2.208219153984597 0.8742958126261102 -4.2
      vertex 4.183994186497131 1.6565604870810509 0
    endloop
  endfacet
  facet normal -0.6110618755220582 -0.6507148051770045 0.4507478525815932
    outer loop
      vertex 1.513881975653138 1.8299689515924993 -4.2
      vertex 1.7313004901258524 1.6257993765806358 -4.2
      vertex 2.868407953869104 3.467309592491051 0
    endloop
  endfacet
  facet normal -0.5246872794572325 -0.7221700853461395 0.45074785258159317
    outer loop
      vertex 1.272588638075117 2.005278823067286 -4.2
      vertex 1.513881975653138 1.8299689515924993 -4.2
      vertex 2.411220577405485 3.799475664759068 0
    endloop
  endfacet
  facet normal -0.687799660779232 -0.5689973638120441 0.4507478525815932
    outer loop
      vertex 1.7313004901258524 1.6257993765806358 -4.2
      vertex 1.9214153616405003 1.3959899741946238 -4.2
      vertex 3.6405764746872635 2.6450336353161292 0
    endloop
  endfacet
  facet normal -0.7536904345143154 -0.47830649411721843 0.45074785258159317
    outer loop
      vertex 1.9214153616405003 1.3959899741946238 -4.2
      vertex 2.081228365104176 1.144164975991574 -4.2
      vertex 3.943380060197386 2.167891533457719 0
    endloop
  endfacet
  facet normal -0.5246872794572321 -0.7221700853461397 0.4507478525815932
    outer loop
      vertex 2.868407953869104 3.467309592491051 0
      vertex 2.411220577405485 3.799475664759068 0
      vertex 1.513881975653138 1.8299689515924993 -4.2
    endloop
  endfacet
  facet normal -0.6110618755220584 -0.6507148051770043 0.4507478525815931
    outer loop
      vertex 3.280358823396352 3.080461976679099 0
      vertex 2.868407953869104 3.467309592491051 0
      vertex 1.7313004901258524 1.6257993765806358 -4.2
    endloop
  endfacet
  facet normal -0.6877996607792323 -0.5689973638120437 0.4507478525815933
    outer loop
      vertex 1.7313004901258524 1.6257993765806358 -4.2
      vertex 3.6405764746872635 2.6450336353161292 0
      vertex 3.280358823396352 3.080461976679099 0
    endloop
  endfacet
  facet normal 0 -0.8926513168046537 0.45074785258159317
    outer loop
      vertex -0.2825573378819078 4.491120277927222 0
      vertex 0.1491274838821164 2.370313480017145 -4.2
      vertex 0.28255733788190973 4.491120277927222 0
    endloop
  endfacet
  facet normal -0.11187887598056183 -0.8856124945496243 0.4507478525815931
    outer loop
      vertex 0.8432159156357606 4.420292628279099 0
      vertex 0.28255733788190973 4.491120277927222 0
      vertex 0.44503062214109584 2.3329322204806355 -4.2
    endloop
  endfacet
  facet normal -0.2219933552537089 -0.8646070342162867 0.45074785258159317
    outer loop
      vertex 1.3905764746872633 4.2797543233281905 0
      vertex 0.8432159156357606 4.420292628279099 0
      vertex 0.7339153616405001 2.2587592262009895 -4.2
    endloop
  endfacet
  facet normal -0.3286068667021015 -0.8299662044621513 0.4507478525815931
    outer loop
      vertex 1.9160068120428273 4.071721736097087 0
      vertex 1.3905764746872633 4.2797543233281905 0
      vertex 1.0112258174670476 2.1489642496067964 -4.2
    endloop
  endfacet
  facet normal -0.4300380515623757 -0.7822363118658696 0.45074785258159317
    outer loop
      vertex 2.411220577405485 3.799475664759068 0
      vertex 1.9160068120428273 4.071721736097087 0
      vertex 1.272588638075117 2.005278823067286 -4.2
    endloop
  endfacet
  facet normal -0.8908898733377372 -0.056050039940689154 0.4507478525815932
    outer loop
      vertex 4.5 0 0
      vertex 4.464516155915151 0.5639995510393692 0
      vertex 2.356272415621885 0.2976664297152226 -4.2
    endloop
  endfacet
  facet normal -0.8768400078433868 -0.16726617720953535 0.45074785258159317
    outer loop
      vertex 2.300385007680499 0.5906384820165301 -4.2
      vertex 4.464516155915151 0.5639995510393692 0
      vertex 4.35862422507884 1.1191044922418465 0
    endloop
  endfacet
  facet normal -0.8489618516265154 -0.27584442694381345 0.4507478525815933
    outer loop
      vertex 2.208219153984597 0.8742958126261102 -4.2
      vertex 4.35862422507884 1.1191044922418465 0
      vertex 4.183994186497131 1.6565604870810509 0
    endloop
  endfacet
  facet normal -0.8076950598642662 -0.380072445283714 0.45074785258159317
    outer loop
      vertex 2.081228365104176 1.144164975991574 -4.2
      vertex 4.183994186497131 1.6565604870810509 0
      vertex 3.943380060197386 2.167891533457719 0
    endloop
  endfacet
  facet normal -0.7536904345143155 -0.47830649411721843 0.4507478525815932
    outer loop
      vertex 3.943380060197386 2.167891533457719 0
      vertex 3.6405764746872635 2.6450336353161292 0
      vertex 1.9214153616405003 1.3959899741946238 -4.2
    endloop
  endfacet
  facet normal -0.8443279255020152 -0.5358267949789965 0
    outer loop
      vertex -10.112712429686843 -7.347315653655914 -4.2
      vertex -10.953833500548294 -6.021920926271442 0
      vertex -10.953833500548294 -6.021920926271442 -4.2
    endloop
  endfacet
  facet normal -0.7705132427757891 -0.6374239897486897 0
    outer loop
      vertex -10.112712429686843 -7.347315653655914 -4.2
      vertex -9.112107842767646 -8.556838824108606 -4.2
      vertex -10.112712429686843 -7.347315653655914 0
    endloop
  endfacet
  facet normal -0.5877852522924725 -0.8090169943749479 0
    outer loop
      vertex -7.96779987185862 -9.631415534697368 -4.2
      vertex -6.6978349372374595 -10.554099068775187 -4.2
      vertex -6.6978349372374595 -10.554099068775187 0
    endloop
  endfacet
  facet normal -0.6845471059286893 -0.7289686274214109 0
    outer loop
      vertex -7.96779987185862 -9.631415534697368 -4.2
      vertex -7.96779987185862 -9.631415534697368 0
      vertex -9.112107842767646 -8.556838824108606 -4.2
    endloop
  endfacet
  facet normal 0 0 -1
    outer loop
      vertex -11.622206073603143 -4.601556908558473 -4.2
      vertex -12.107289514107888 -3.1086235895606857 -4.2
      vertex -11.622206073603143 4.601556908558473 -4.2
    endloop
  endfacet
  facet normal 0 0 -1
    outer loop
      vertex -12.107289514107888 -3.1086235895606857 -4.2
      vertex -12.401433766430973 -1.5666654195538008 -4.2
      vertex -12.107289514107888 3.1086235895606857 -4.2
    endloop
  endfacet
  facet normal 0 0 -1
    outer loop
      vertex -10.953833500548294 -6.021920926271442 -4.2
      vertex -11.622206073603143 -4.601556908558473 -4.2
      vertex -10.953833500548294 6.021920926271442 -4.2
    endloop
  endfacet
  facet normal 0 0 -1
    outer loop
      vertex -10.112712429686843 -7.347315653655914 -4.2
      vertex -10.953833500548294 -6.021920926271442 -4.2
      vertex -10.112712429686843 7.347315653655914 -4.2
    endloop
  endfacet
  facet normal 0 0 -1
    outer loop
      vertex -10.112712429686843 -7.347315653655914 -4.2
      vertex -9.112107842767646 8.556838824108606 -4.2
      vertex -9.112107842767646 -8.556838824108606 -4.2
    endloop
  endfacet
  facet normal 0 0 -1
    outer loop
      vertex -7.96779987185862 -9.631415534697368 -4.2
      vertex -6.6978349372374595 10.554099068775187 -4.2
      vertex -6.6978349372374595 -10.554099068775187 -4.2
    endloop
  endfacet
  facet normal 0 0 -1
    outer loop
      vertex -7.96779987185862 -9.631415534697368 -4.2
      vertex -9.112107842767646 -8.556838824108606 -4.2
      vertex -7.96779987185862 9.631415534697368 -4.2
    endloop
  endfacet
  facet normal -0.9048270524660195 -0.42577929156507294 0
    outer loop
      vertex -10.953833500548294 -6.021920926271442 -4.2
      vertex -11.622206073603143 -4.601556908558473 0
      vertex -11.622206073603143 -4.601556908558473 -4.2
    endloop
  endfacet
  facet normal -0.9510565162951536 -0.309016994374947 0
    outer loop
      vertex -11.622206073603143 -4.601556908558473 -4.2
      vertex -12.107289514107888 -3.1086235895606857 0
      vertex -12.107289514107888 -3.1086235895606857 -4.2
    endloop
  endfacet
  facet normal -0.9822872507286887 -0.18738131458572455 0
    outer loop
      vertex -12.107289514107888 -3.1086235895606857 -4.2
      vertex -12.401433766430973 -1.5666654195538008 0
      vertex -12.401433766430973 -1.5666654195538008 -4.2
    endloop
  endfacet
  facet normal -0.9980267284282716 -0.06279051952931351 0
    outer loop
      vertex -12.401433766430973 -1.5666654195538008 -4.2
      vertex -12.5 0 0
      vertex -12.5 0 -4.2
    endloop
  endfacet
  facet normal 0 0 -1
    outer loop
      vertex -3.8627124296868423 -11.888206453689419 -4.2
      vertex -2.300385007680499 -0.5906384820165302 -4.2
      vertex -2.3422664323215603 -12.278590634108607 -4.2
    endloop
  endfacet
  facet normal 0 0 -1
    outer loop
      vertex -2.3422664323215603 -12.278590634108607 -4.2
      vertex -0.7339153616405001 -2.2587592262009895 -4.2
      vertex -0.784881494116422 -12.475334105353394 -4.2
    endloop
  endfacet
  facet normal 0 0 -1
    outer loop
      vertex -0.784881494116422 -12.475334105353394 -4.2
      vertex -0.1491274838821202 -2.370313480017145 -4.2
      vertex 0.784881494116422 -12.475334105353394 -4.2
    endloop
  endfacet
  facet normal -0.4817536741017147 -0.8763066800438639 0
    outer loop
      vertex -6.6978349372374595 -10.554099068775187 -4.2
      vertex -5.322241144563406 -11.310338155825244 -4.2
      vertex -5.322241144563406 -11.310338155825244 0
    endloop
  endfacet
  facet normal -0.3681245526846779 -0.9297764858882515 0
    outer loop
      vertex -5.322241144563406 -11.310338155825244 -4.2
      vertex -3.8627124296868423 -11.888206453689419 -4.2
      vertex -3.8627124296868423 -11.888206453689419 0
    endloop
  endfacet
  facet normal -0.2486898871648548 -0.9685831611286311 0
    outer loop
      vertex -3.8627124296868423 -11.888206453689419 -4.2
      vertex -2.3422664323215603 -12.278590634108607 -4.2
      vertex -2.3422664323215603 -12.278590634108607 0
    endloop
  endfacet
  facet normal -0.12533323356430495 -0.9921147013144778 0
    outer loop
      vertex -2.3422664323215603 -12.278590634108607 -4.2
      vertex -0.784881494116422 -12.475334105353394 -4.2
      vertex -0.784881494116422 -12.475334105353394 0
    endloop
  endfacet
  facet normal 0 0 -1
    outer loop
      vertex -6.6978349372374595 -10.554099068775187 -4.2
      vertex -5.322241144563409 11.310338155825244 -4.2
      vertex -5.322241144563406 -11.310338155825244 -4.2
    endloop
  endfacet
  facet normal 0 0 -1
    outer loop
      vertex -5.322241144563406 -11.310338155825244 -4.2
      vertex -3.8627124296868423 11.888206453689419 -4.2
      vertex -3.8627124296868423 -11.888206453689419 -4.2
    endloop
  endfacet
  facet normal 0 0 -1
    outer loop
      vertex -2.3422664323215603 -12.278590634108607 -4.2
      vertex -1.9214153616405003 -1.3959899741946238 -4.2
      vertex -1.7313004901258526 -1.6257993765806351 -4.2
    endloop
  endfacet
  facet normal 0 0 -1
    outer loop
      vertex -2.3422664323215603 -12.278590634108607 -4.2
      vertex -2.2082191539845972 -0.8742958126261099 -4.2
      vertex -2.0812283651041756 -1.144164975991574 -4.2
    endloop
  endfacet
  facet normal 0 0 -1
    outer loop
      vertex -2.3422664323215603 -12.278590634108607 -4.2
      vertex -2.0812283651041756 -1.144164975991574 -4.2
      vertex -1.9214153616405003 -1.3959899741946238 -4.2
    endloop
  endfacet
  facet normal 0 0 -1
    outer loop
      vertex -2.3422664323215603 -12.278590634108607 -4.2
      vertex -1.7313004901258526 -1.6257993765806351 -4.2
      vertex -1.5138819756531379 -1.8299689515924997 -4.2
    endloop
  endfacet
  facet normal 0 0 -1
    outer loop
      vertex -2.3422664323215603 -12.278590634108607 -4.2
      vertex -1.5138819756531379 -1.8299689515924997 -4.2
      vertex -1.2725886380751172 -2.0052788230672856 -4.2
    endloop
  endfacet
  facet normal 0 0 -1
    outer loop
      vertex -3.8627124296868423 -11.888206453689419 -4.2
      vertex -2.356272415621885 -0.29766642971522217 -4.2
      vertex -2.300385007680499 -0.5906384820165302 -4.2
    endloop
  endfacet
  facet normal 0 0 -1
    outer loop
      vertex -3.8627124296868423 -11.888206453689419 -4.2
      vertex -2.375 0 -4.2
      vertex -2.356272415621885 -0.29766642971522217 -4.2
    endloop
  endfacet
  facet normal 0 0 -1
    outer loop
      vertex -2.3422664323215603 -12.278590634108607 -4.2
      vertex -2.300385007680499 -0.5906384820165302 -4.2
      vertex -2.2082191539845972 -0.8742958126261099 -4.2
    endloop
  endfacet
  facet normal 0 0 -1
    outer loop
      vertex -2.3422664323215603 -12.278590634108607 -4.2
      vertex -1.2725886380751172 -2.0052788230672856 -4.2
      vertex -1.011225817467047 -2.1489642496067964 -4.2
    endloop
  endfacet
  facet normal 0 0 -1
    outer loop
      vertex -2.3422664323215603 -12.278590634108607 -4.2
      vertex -1.011225817467047 -2.1489642496067964 -4.2
      vertex -0.7339153616405001 -2.2587592262009895 -4.2
    endloop
  endfacet
  facet normal 0 0 -1
    outer loop
      vertex -0.784881494116422 -12.475334105353394 -4.2
      vertex -0.7339153616405001 -2.2587592262009895 -4.2
      vertex -0.44503062214109645 -2.3329322204806355 -4.2
    endloop
  endfacet
  facet normal 0 0 -1
    outer loop
      vertex -0.784881494116422 -12.475334105353394 -4.2
      vertex -0.44503062214109645 -2.3329322204806355 -4.2
      vertex -0.1491274838821202 -2.370313480017145 -4.2
    endloop
  endfacet
  facet normal -0.7705132427757891 -0.6374239897486897 0
    outer loop
      vertex -9.112107842767646 -8.556838824108606 -4.2
      vertex -9.112107842767646 -8.556838824108606 0
      vertex -10.112712429686843 -7.347315653655914 0
    endloop
  endfacet
  facet normal -0.8443279255020152 -0.5358267949789965 0
    outer loop
      vertex -10.112712429686843 -7.347315653655914 -4.2
      vertex -10.112712429686843 -7.347315653655914 0
      vertex -10.953833500548294 -6.021920926271442 0
    endloop
  endfacet
  facet normal -0.5877852522924725 -0.8090169943749479 0
    outer loop
      vertex -7.96779987185862 -9.631415534697368 -4.2
      vertex -6.6978349372374595 -10.554099068775187 0
      vertex -7.96779987185862 -9.631415534697368 0
    endloop
  endfacet
  facet normal -0.6845471059286893 -0.7289686274214109 0
    outer loop
      vertex -9.112107842767646 -8.556838824108606 -4.2
      vertex -7.96779987185862 -9.631415534697368 0
      vertex -9.112107842767646 -8.556838824108606 0
    endloop
  endfacet
  facet normal -0.9048270524660195 -0.42577929156507294 0
    outer loop
      vertex -10.953833500548294 -6.021920926271442 -4.2
      vertex -10.953833500548294 -6.021920926271442 0
      vertex -11.622206073603143 -4.601556908558473 0
    endloop
  endfacet
  facet normal -0.9510565162951536 -0.309016994374947 0
    outer loop
      vertex -11.622206073603143 -4.601556908558473 -4.2
      vertex -11.622206073603143 -4.601556908558473 0
      vertex -12.107289514107888 -3.1086235895606857 0
    endloop
  endfacet
  facet normal -0.9822872507286887 -0.18738131458572455 0
    outer loop
      vertex -12.107289514107888 -3.1086235895606857 -4.2
      vertex -12.107289514107888 -3.1086235895606857 0
      vertex -12.401433766430973 -1.5666654195538008 0
    endloop
  endfacet
  facet normal -0.9980267284282716 -0.06279051952931351 0
    outer loop
      vertex -12.401433766430973 -1.5666654195538008 -4.2
      vertex -12.401433766430973 -1.5666654195538008 0
      vertex -12.5 0 0
    endloop
  endfacet
  facet normal 0 0 1
    outer loop
      vertex -10.953833500548294 -6.021920926271442 0
      vertex -11.622206073603143 4.601556908558473 0
      vertex -11.622206073603143 -4.601556908558473 0
    endloop
  endfacet
  facet normal 0 0 1
    outer loop
      vertex -12.107289514107888 -3.1086235895606857 0
      vertex -12.401433766430973 1.5666654195538008 0
      vertex -12.401433766430973 -1.5666654195538008 0
    endloop
  endfacet
  facet normal 0 0 1
    outer loop
      vertex -11.622206073603143 -4.601556908558473 0
      vertex -12.107289514107888 3.1086235895606857 0
      vertex -12.107289514107888 -3.1086235895606857 0
    endloop
  endfacet
  facet normal 0 0 1
    outer loop
      vertex -10.112712429686843 -7.347315653655914 0
      vertex -10.953833500548294 6.021920926271442 0
      vertex -10.953833500548294 -6.021920926271442 0
    endloop
  endfacet
  facet normal 0 0 1
    outer loop
      vertex -10.112712429686843 -7.347315653655914 0
      vertex -9.112107842767646 -8.556838824108606 0
      vertex -10.112712429686843 7.347315653655914 0
    endloop
  endfacet
  facet normal 0 0 1
    outer loop
      vertex -7.96779987185862 -9.631415534697368 0
      vertex -9.112107842767646 8.556838824108606 0
      vertex -9.112107842767646 -8.556838824108606 0
    endloop
  endfacet
  facet normal 0 0 1
    outer loop
      vertex -7.96779987185862 -9.631415534697368 0
      vertex -6.6978349372374595 -10.554099068775187 0
      vertex -7.96779987185862 9.631415534697368 0
    endloop
  endfacet
  facet normal -0.3681245526846779 -0.9297764858882515 0
    outer loop
      vertex -5.322241144563406 -11.310338155825244 -4.2
      vertex -3.8627124296868423 -11.888206453689419 0
      vertex -5.322241144563406 -11.310338155825244 0
    endloop
  endfacet
  facet normal -0.4817536741017147 -0.8763066800438639 0
    outer loop
      vertex -6.6978349372374595 -10.554099068775187 -4.2
      vertex -5.322241144563406 -11.310338155825244 0
      vertex -6.6978349372374595 -10.554099068775187 0
    endloop
  endfacet
  facet normal -0.2486898871648548 -0.9685831611286311 0
    outer loop
      vertex -3.8627124296868423 -11.888206453689419 -4.2
      vertex -2.3422664323215603 -12.278590634108607 0
      vertex -3.8627124296868423 -11.888206453689419 0
    endloop
  endfacet
  facet normal -0.12533323356430495 -0.9921147013144778 0
    outer loop
      vertex -2.3422664323215603 -12.278590634108607 -4.2
      vertex -0.784881494116422 -12.475334105353394 0
      vertex -2.3422664323215603 -12.278590634108607 0
    endloop
  endfacet
  facet normal 0 -1 0
    outer loop
      vertex -0.784881494116422 -12.475334105353394 -4.2
      vertex 0.784881494116422 -12.475334105353394 0
      vertex -0.784881494116422 -12.475334105353394 0
    endloop
  endfacet
  facet normal 0 0 1
    outer loop
      vertex -3.8627124296868423 -11.888206453689419 0
      vertex -2.3422664323215603 -12.278590634108607 0
      vertex -3.2803588233963525 -3.080461976679098 0
    endloop
  endfacet
  facet normal 0 0 1
    outer loop
      vertex -2.3422664323215603 -12.278590634108607 0
      vertex -0.784881494116422 -12.475334105353394 0
      vertex -1.3905764746872633 -4.2797543233281905 0
    endloop
  endfacet
  facet normal 0 0 1
    outer loop
      vertex -2.3422664323215603 -12.278590634108607 0
      vertex -2.868407953869103 -3.467309592491052 0
      vertex -3.2803588233963525 -3.080461976679098 0
    endloop
  endfacet
  facet normal 0 0 1
    outer loop
      vertex -2.3422664323215603 -12.278590634108607 0
      vertex -2.4112205774054853 -3.7994756647590675 0
      vertex -2.868407953869103 -3.467309592491052 0
    endloop
  endfacet
  facet normal 0 0 1
    outer loop
      vertex -2.3422664323215603 -12.278590634108607 0
      vertex -1.916006812042826 -4.071721736097088 0
      vertex -2.4112205774054853 -3.7994756647590675 0
    endloop
  endfacet
  facet normal 0 0 1
    outer loop
      vertex -2.3422664323215603 -12.278590634108607 0
      vertex -1.3905764746872633 -4.2797543233281905 0
      vertex -1.916006812042826 -4.071721736097088 0
    endloop
  endfacet
  facet normal 0 0 1
    outer loop
      vertex -0.784881494116422 -12.475334105353394 0
      vertex -0.8432159156357617 -4.420292628279099 0
      vertex -1.3905764746872633 -4.2797543233281905 0
    endloop
  endfacet
  facet normal 0 0 1
    outer loop
      vertex -0.784881494116422 -12.475334105353394 0
      vertex -0.28255733788191195 -4.491120277927222 0
      vertex -0.8432159156357617 -4.420292628279099 0
    endloop
  endfacet
  facet normal 0 0 1
    outer loop
      vertex -0.784881494116422 -12.475334105353394 0
      vertex 0.28255733788191195 -4.491120277927222 0
      vertex -0.28255733788191195 -4.491120277927222 0
    endloop
  endfacet
  facet normal 0 0 1
    outer loop
      vertex -6.6978349372374595 -10.554099068775187 0
      vertex -5.322241144563406 -11.310338155825244 0
      vertex -6.6978349372374595 10.554099068775187 0
    endloop
  endfacet
  facet normal 0 0 1
    outer loop
      vertex -5.322241144563406 -11.310338155825244 0
      vertex -3.8627124296868423 -11.888206453689419 0
      vertex -5.322241144563409 11.310338155825244 0
    endloop
  endfacet
  facet normal 0 0 1
    outer loop
      vertex -3.8627124296868423 -11.888206453689419 0
      vertex -3.9433800601973856 -2.1678915334577193 0
      vertex -4.183994186497132 -1.6565604870810504 0
    endloop
  endfacet
  facet normal 0 0 1
    outer loop
      vertex -3.8627124296868423 -11.888206453689419 0
      vertex -4.183994186497132 -1.6565604870810504 0
      vertex -4.35862422507884 -1.119104492241847 0
    endloop
  endfacet
  facet normal 0 0 1
    outer loop
      vertex -3.8627124296868423 -11.888206453689419 0
      vertex -3.2803588233963525 -3.080461976679098 0
      vertex -3.6405764746872635 -2.6450336353161292 0
    endloop
  endfacet
  facet normal 0 0 1
    outer loop
      vertex -3.8627124296868423 -11.888206453689419 0
      vertex -3.6405764746872635 -2.6450336353161292 0
      vertex -3.9433800601973856 -2.1678915334577193 0
    endloop
  endfacet
  facet normal 0 0 1
    outer loop
      vertex -3.8627124296868423 -11.888206453689419 0
      vertex -4.35862422507884 -1.119104492241847 0
      vertex -4.464516155915151 -0.5639995510393683 0
    endloop
  endfacet
  facet normal 0 0 1
    outer loop
      vertex -3.8627124296868423 -11.888206453689419 0
      vertex -4.464516155915151 -0.5639995510393683 0
      vertex -5.322241144563409 11.310338155825244 0
    endloop
  endfacet
  facet normal 0 0 -1
    outer loop
      vertex -12.401433766430973 -1.5666654195538008 -4.2
      vertex -12.5 0 -4.2
      vertex -12.401433766430973 1.5666654195538008 -4.2
    endloop
  endfacet
  facet normal 0 0 -1
    outer loop
      vertex -12.401433766430973 -1.5666654195538008 -4.2
      vertex -12.401433766430973 1.5666654195538008 -4.2
      vertex -12.107289514107888 3.1086235895606857 -4.2
    endloop
  endfacet
  facet normal 0 0 -1
    outer loop
      vertex -12.107289514107888 -3.1086235895606857 -4.2
      vertex -12.107289514107888 3.1086235895606857 -4.2
      vertex -11.622206073603143 4.601556908558473 -4.2
    endloop
  endfacet
  facet normal 0 0 -1
    outer loop
      vertex -11.622206073603143 -4.601556908558473 -4.2
      vertex -11.622206073603143 4.601556908558473 -4.2
      vertex -10.953833500548294 6.021920926271442 -4.2
    endloop
  endfacet
  facet normal 0 0 -1
    outer loop
      vertex -10.953833500548294 -6.021920926271442 -4.2
      vertex -10.953833500548294 6.021920926271442 -4.2
      vertex -10.112712429686843 7.347315653655914 -4.2
    endloop
  endfacet
  facet normal 0 0 -1
    outer loop
      vertex -10.112712429686843 -7.347315653655914 -4.2
      vertex -10.112712429686843 7.347315653655914 -4.2
      vertex -9.112107842767646 8.556838824108606 -4.2
    endloop
  endfacet
  facet normal 0 0 -1
    outer loop
      vertex -9.112107842767646 -8.556838824108606 -4.2
      vertex -9.112107842767646 8.556838824108606 -4.2
      vertex -7.96779987185862 9.631415534697368 -4.2
    endloop
  endfacet
  facet normal 0 0 -1
    outer loop
      vertex -7.96779987185862 -9.631415534697368 -4.2
      vertex -7.96779987185862 9.631415534697368 -4.2
      vertex -6.6978349372374595 10.554099068775187 -4.2
    endloop
  endfacet
  facet normal -0.9980267284282716 0.06279051952931351 0
    outer loop
      vertex -12.5 0 -4.2
      vertex -12.401433766430973 1.5666654195538008 0
      vertex -12.401433766430973 1.5666654195538008 -4.2
    endloop
  endfacet
  facet normal -0.9822872507286887 0.18738131458572455 0
    outer loop
      vertex -12.401433766430973 1.5666654195538008 -4.2
      vertex -12.107289514107888 3.1086235895606857 0
      vertex -12.107289514107888 3.1086235895606857 -4.2
    endloop
  endfacet
  facet normal -0.9510565162951536 0.309016994374947 0
    outer loop
      vertex -12.107289514107888 3.1086235895606857 -4.2
      vertex -11.622206073603143 4.601556908558473 0
      vertex -11.622206073603143 4.601556908558473 -4.2
    endloop
  endfacet
  facet normal -0.9048270524660195 0.42577929156507294 0
    outer loop
      vertex -11.622206073603143 4.601556908558473 -4.2
      vertex -10.953833500548294 6.021920926271442 0
      vertex -10.953833500548294 6.021920926271442 -4.2
    endloop
  endfacet
  facet normal -0.8443279255020152 0.5358267949789965 0
    outer loop
      vertex -10.953833500548294 6.021920926271442 -4.2
      vertex -10.112712429686843 7.347315653655914 0
      vertex -10.112712429686843 7.347315653655914 -4.2
    endloop
  endfacet
  facet normal -0.7705132427757891 0.6374239897486897 0
    outer loop
      vertex -10.112712429686843 7.347315653655914 -4.2
      vertex -9.112107842767646 8.556838824108606 0
      vertex -9.112107842767646 8.556838824108606 -4.2
    endloop
  endfacet
  facet normal -0.6845471059286893 0.7289686274214109 0
    outer loop
      vertex -9.112107842767646 8.556838824108606 -4.2
      vertex -9.112107842767646 8.556838824108606 0
      vertex -7.96779987185862 9.631415534697368 -4.2
    endloop
  endfacet
  facet normal -0.5877852522924725 0.8090169943749479 0
    outer loop
      vertex -7.96779987185862 9.631415534697368 -4.2
      vertex -7.96779987185862 9.631415534697368 0
      vertex -6.6978349372374595 10.554099068775187 -4.2
    endloop
  endfacet
  facet normal 0 0 -1
    outer loop
      vertex -6.6978349372374595 -10.554099068775187 -4.2
      vertex -6.6978349372374595 10.554099068775187 -4.2
      vertex -5.322241144563409 11.310338155825244 -4.2
    endloop
  endfacet
  facet normal 0 0 -1
    outer loop
      vertex -5.322241144563406 -11.310338155825244 -4.2
      vertex -5.322241144563409 11.310338155825244 -4.2
      vertex -3.8627124296868423 11.888206453689419 -4.2
    endloop
  endfacet
  facet normal 0 0 -1
    outer loop
      vertex -3.8627124296868423 -11.888206453689419 -4.2
      vertex -3.8627124296868423 11.888206453689419 -4.2
      vertex -2.342266432321557 12.278590634108609 -4.2
    endloop
  endfacet
  facet normal 0 0 -1
    outer loop
      vertex -3.8627124296868423 -11.888206453689419 -4.2
      vertex -2.342266432321557 12.278590634108609 -4.2
      vertex -2.375 0 -4.2
    endloop
  endfacet
  facet normal 0 0 -1
    outer loop
      vertex -2.342266432321557 12.278590634108609 -4.2
      vertex -2.356272415621885 0.29766642971522217 -4.2
      vertex -2.375 0 -4.2
    endloop
  endfacet
  facet normal 0 0 -1
    outer loop
      vertex -2.342266432321557 12.278590634108609 -4.2
      vertex -2.300385007680499 0.5906384820165302 -4.2
      vertex -2.356272415621885 0.29766642971522217 -4.2
    endloop
  endfacet
  facet normal 0 0 -1
    outer loop
      vertex -2.342266432321557 12.278590634108609 -4.2
      vertex -2.2082191539845972 0.8742958126261099 -4.2
      vertex -2.300385007680499 0.5906384820165302 -4.2
    endloop
  endfacet
  facet normal 0 0 -1
    outer loop
      vertex -2.342266432321557 12.278590634108609 -4.2
      vertex -2.0812283651041756 1.144164975991574 -4.2
      vertex -2.2082191539845972 0.8742958126261099 -4.2
    endloop
  endfacet
  facet normal 0 0 -1
    outer loop
      vertex -2.342266432321557 12.278590634108609 -4.2
      vertex -1.9214153616405003 1.3959899741946238 -4.2
      vertex -2.0812283651041756 1.144164975991574 -4.2
    endloop
  endfacet
  facet normal 0 0 -1
    outer loop
      vertex -2.342266432321557 12.278590634108609 -4.2
      vertex -1.7313004901258526 1.6257993765806351 -4.2
      vertex -1.9214153616405003 1.3959899741946238 -4.2
    endloop
  endfacet
  facet normal 0 0 -1
    outer loop
      vertex -2.342266432321557 12.278590634108609 -4.2
      vertex -1.5138819756531379 1.8299689515924997 -4.2
      vertex -1.7313004901258526 1.6257993765806351 -4.2
    endloop
  endfacet
  facet normal 0 0 -1
    outer loop
      vertex -0.784881494116416 12.475334105353394 -4.2
      vertex -1.2725886380751172 2.0052788230672856 -4.2
      vertex -1.5138819756531379 1.8299689515924997 -4.2
    endloop
  endfacet
  facet normal 0 0 -1
    outer loop
      vertex -0.784881494116416 12.475334105353394 -4.2
      vertex -1.0112258174670476 2.1489642496067964 -4.2
      vertex -1.2725886380751172 2.0052788230672856 -4.2
    endloop
  endfacet
  facet normal 0 0 -1
    outer loop
      vertex -0.784881494116416 12.475334105353394 -4.2
      vertex -0.7339153616405001 2.2587592262009895 -4.2
      vertex -1.0112258174670476 2.1489642496067964 -4.2
    endloop
  endfacet
  facet normal 0 0 -1
    outer loop
      vertex -0.784881494116416 12.475334105353394 -4.2
      vertex -0.44503062214109584 2.3329322204806355 -4.2
      vertex -0.7339153616405001 2.2587592262009895 -4.2
    endloop
  endfacet
  facet normal 0 0 -1
    outer loop
      vertex -0.784881494116416 12.475334105353394 -4.2
      vertex -0.14912748388211902 2.370313480017145 -4.2
      vertex -0.44503062214109584 2.3329322204806355 -4.2
    endloop
  endfacet
  facet normal 0 0 -1
    outer loop
      vertex -0.784881494116416 12.475334105353394 -4.2
      vertex 0.1491274838821164 2.370313480017145 -4.2
      vertex -0.14912748388211902 2.370313480017145 -4.2
    endloop
  endfacet
  facet normal 0 0 -1
    outer loop
      vertex -2.342266432321557 12.278590634108609 -4.2
      vertex -0.784881494116416 12.475334105353394 -4.2
      vertex -1.5138819756531379 1.8299689515924997 -4.2
    endloop
  endfacet
  facet normal -0.4817536741017157 0.8763066800438634 0
    outer loop
      vertex -6.6978349372374595 10.554099068775187 -4.2
      vertex -6.6978349372374595 10.554099068775187 0
      vertex -5.322241144563409 11.310338155825244 -4.2
    endloop
  endfacet
  facet normal -0.3681245526846771 0.9297764858882518 0
    outer loop
      vertex -5.322241144563409 11.310338155825244 -4.2
      vertex -5.322241144563409 11.310338155825244 0
      vertex -3.8627124296868423 11.888206453689419 -4.2
    endloop
  endfacet
  facet normal -0.24868988716485535 0.968583161128631 0
    outer loop
      vertex -3.8627124296868423 11.888206453689419 -4.2
      vertex -3.8627124296868423 11.888206453689419 0
      vertex -2.342266432321557 12.278590634108609 -4.2
    endloop
  endfacet
  facet normal -0.12533323356430362 0.9921147013144779 0
    outer loop
      vertex -2.342266432321557 12.278590634108609 -4.2
      vertex -2.342266432321557 12.278590634108609 0
      vertex -0.784881494116416 12.475334105353394 -4.2
    endloop
  endfacet
  facet normal 0 1 0
    outer loop
      vertex -0.784881494116416 12.475334105353394 -4.2
      vertex -0.784881494116416 12.475334105353394 0
      vertex 0.784881494116416 12.475334105353394 -4.2
    endloop
  endfacet
  facet normal -0.9980267284282716 0.06279051952931351 0
    outer loop
      vertex -12.5 0 -4.2
      vertex -12.5 0 0
      vertex -12.401433766430973 1.5666654195538008 0
    endloop
  endfacet
  facet normal -0.9822872507286887 0.18738131458572455 0
    outer loop
      vertex -12.401433766430973 1.5666654195538008 -4.2
      vertex -12.401433766430973 1.5666654195538008 0
      vertex -12.107289514107888 3.1086235895606857 0
    endloop
  endfacet
  facet normal -0.9510565162951536 0.309016994374947 0
    outer loop
      vertex -12.107289514107888 3.1086235895606857 -4.2
      vertex -12.107289514107888 3.1086235895606857 0
      vertex -11.622206073603143 4.601556908558473 0
    endloop
  endfacet
  facet normal -0.9048270524660195 0.42577929156507294 0
    outer loop
      vertex -11.622206073603143 4.601556908558473 -4.2
      vertex -11.622206073603143 4.601556908558473 0
      vertex -10.953833500548294 6.021920926271442 0
    endloop
  endfacet
  facet normal 0 0 1
    outer loop
      vertex -12.401433766430973 -1.5666654195538008 0
      vertex -12.401433766430973 1.5666654195538008 0
      vertex -12.5 0 0
    endloop
  endfacet
  facet normal 0 0 1
    outer loop
      vertex -12.107289514107888 -3.1086235895606857 0
      vertex -12.107289514107888 3.1086235895606857 0
      vertex -12.401433766430973 1.5666654195538008 0
    endloop
  endfacet
  facet normal 0 0 1
    outer loop
      vertex -11.622206073603143 -4.601556908558473 0
      vertex -11.622206073603143 4.601556908558473 0
      vertex -12.107289514107888 3.1086235895606857 0
    endloop
  endfacet
  facet normal 0 0 1
    outer loop
      vertex -10.953833500548294 -6.021920926271442 0
      vertex -10.953833500548294 6.021920926271442 0
      vertex -11.622206073603143 4.601556908558473 0
    endloop
  endfacet
  facet normal 0 0 1
    outer loop
      vertex -10.112712429686843 -7.347315653655914 0
      vertex -10.112712429686843 7.347315653655914 0
      vertex -10.953833500548294 6.021920926271442 0
    endloop
  endfacet
  facet normal 0 0 1
    outer loop
      vertex -9.112107842767646 -8.556838824108606 0
      vertex -9.112107842767646 8.556838824108606 0
      vertex -10.112712429686843 7.347315653655914 0
    endloop
  endfacet
  facet normal 0 0 1
    outer loop
      vertex -7.96779987185862 -9.631415534697368 0
      vertex -7.96779987185862 9.631415534697368 0
      vertex -9.112107842767646 8.556838824108606 0
    endloop
  endfacet
  facet normal 0 0 1
    outer loop
      vertex -6.6978349372374595 -10.554099068775187 0
      vertex -6.6978349372374595 10.554099068775187 0
      vertex -7.96779987185862 9.631415534697368 0
    endloop
  endfacet
  facet normal -0.8443279255020152 0.5358267949789965 0
    outer loop
      vertex -10.953833500548294 6.021920926271442 -4.2
      vertex -10.953833500548294 6.021920926271442 0
      vertex -10.112712429686843 7.347315653655914 0
    endloop
  endfacet
  facet normal -0.7705132427757891 0.6374239897486897 0
    outer loop
      vertex -10.112712429686843 7.347315653655914 -4.2
      vertex -10.112712429686843 7.347315653655914 0
      vertex -9.112107842767646 8.556838824108606 0
    endloop
  endfacet
  facet normal -0.6845471059286893 0.7289686274214109 0
    outer loop
      vertex -7.96779987185862 9.631415534697368 -4.2
      vertex -9.112107842767646 8.556838824108606 0
      vertex -7.96779987185862 9.631415534697368 0
    endloop
  endfacet
  facet normal -0.5877852522924725 0.8090169943749479 0
    outer loop
      vertex -6.6978349372374595 10.554099068775187 -4.2
      vertex -7.96779987185862 9.631415534697368 0
      vertex -6.6978349372374595 10.554099068775187 0
    endloop
  endfacet
  facet normal 0 0 1
    outer loop
      vertex -5.322241144563406 -11.310338155825244 0
      vertex -5.322241144563409 11.310338155825244 0
      vertex -6.6978349372374595 10.554099068775187 0
    endloop
  endfacet
  facet normal 0 0 1
    outer loop
      vertex -5.322241144563409 11.310338155825244 0
      vertex -4.464516155915151 -0.5639995510393683 0
      vertex -4.5 0 0
    endloop
  endfacet
  facet normal 0 0 1
    outer loop
      vertex -5.322241144563409 11.310338155825244 0
      vertex -4.5 0 0
      vertex -4.464516155915151 0.5639995510393683 0
    endloop
  endfacet
  facet normal 0 0 1
    outer loop
      vertex -5.322241144563409 11.310338155825244 0
      vertex -4.464516155915151 0.5639995510393683 0
      vertex -4.35862422507884 1.119104492241847 0
    endloop
  endfacet
  facet normal 0 0 1
    outer loop
      vertex -5.322241144563409 11.310338155825244 0
      vertex -4.35862422507884 1.119104492241847 0
      vertex -4.183994186497132 1.6565604870810504 0
    endloop
  endfacet
  facet normal 0 0 1
    outer loop
      vertex -5.322241144563409 11.310338155825244 0
      vertex -4.183994186497132 1.6565604870810504 0
      vertex -3.9433800601973856 2.1678915334577193 0
    endloop
  endfacet
  facet normal 0 0 1
    outer loop
      vertex -5.322241144563409 11.310338155825244 0
      vertex -3.9433800601973856 2.1678915334577193 0
      vertex -3.6405764746872635 2.6450336353161292 0
    endloop
  endfacet
  facet normal 0 0 1
    outer loop
      vertex -3.8627124296868423 11.888206453689419 0
      vertex -3.6405764746872635 2.6450336353161292 0
      vertex -3.2803588233963525 3.080461976679098 0
    endloop
  endfacet
  facet normal 0 0 1
    outer loop
      vertex -3.8627124296868423 11.888206453689419 0
      vertex -3.2803588233963525 3.080461976679098 0
      vertex -2.868407953869103 3.467309592491052 0
    endloop
  endfacet
  facet normal -0.4817536741017157 0.8763066800438634 0
    outer loop
      vertex -5.322241144563409 11.310338155825244 -4.2
      vertex -6.6978349372374595 10.554099068775187 0
      vertex -5.322241144563409 11.310338155825244 0
    endloop
  endfacet
  facet normal -0.3681245526846771 0.9297764858882518 0
    outer loop
      vertex -3.8627124296868423 11.888206453689419 -4.2
      vertex -5.322241144563409 11.310338155825244 0
      vertex -3.8627124296868423 11.888206453689419 0
    endloop
  endfacet
  facet normal -0.24868988716485535 0.968583161128631 0
    outer loop
      vertex -2.342266432321557 12.278590634108609 -4.2
      vertex -3.8627124296868423 11.888206453689419 0
      vertex -2.342266432321557 12.278590634108609 0
    endloop
  endfacet
  facet normal -0.12533323356430362 0.9921147013144779 0
    outer loop
      vertex -0.784881494116416 12.475334105353394 -4.2
      vertex -2.342266432321557 12.278590634108609 0
      vertex -0.784881494116416 12.475334105353394 0
    endloop
  endfacet
  facet normal 0 0 1
    outer loop
      vertex -5.322241144563409 11.310338155825244 0
      vertex -3.6405764746872635 2.6450336353161292 0
      vertex -3.8627124296868423 11.888206453689419 0
    endloop
  endfacet
  facet normal 0 0 1
    outer loop
      vertex -3.8627124296868423 11.888206453689419 0
      vertex -2.868407953869103 3.467309592491052 0
      vertex -2.4112205774054853 3.7994756647590675 0
    endloop
  endfacet
  facet normal 0 0 1
    outer loop
      vertex -3.8627124296868423 11.888206453689419 0
      vertex -2.4112205774054853 3.7994756647590675 0
      vertex -1.9160068120428273 4.071721736097087 0
    endloop
  endfacet
  facet normal 0 0 1
    outer loop
      vertex -2.342266432321557 12.278590634108609 0
      vertex -1.9160068120428273 4.071721736097087 0
      vertex -1.3905764746872633 4.2797543233281905 0
    endloop
  endfacet
  facet normal 0 0 1
    outer loop
      vertex -2.342266432321557 12.278590634108609 0
      vertex -1.3905764746872633 4.2797543233281905 0
      vertex -0.8432159156357606 4.420292628279099 0
    endloop
  endfacet
  facet normal 0 0 1
    outer loop
      vertex -2.342266432321557 12.278590634108609 0
      vertex -0.8432159156357606 4.420292628279099 0
      vertex -0.2825573378819078 4.491120277927222 0
    endloop
  endfacet
  facet normal 0 0 1
    outer loop
      vertex -3.8627124296868423 11.888206453689419 0
      vertex -1.9160068120428273 4.071721736097087 0
      vertex -2.342266432321557 12.278590634108609 0
    endloop
  endfacet
  facet normal 0 0 1
    outer loop
      vertex -2.342266432321557 12.278590634108609 0
      vertex -0.2825573378819078 4.491120277927222 0
      vertex -0.784881494116416 12.475334105353394 0
    endloop
  endfacet
  facet normal 0 0 1
    outer loop
      vertex -0.784881494116416 12.475334105353394 0
      vertex -0.2825573378819078 4.491120277927222 0
      vertex 0.784881494116416 12.475334105353394 0
    endloop
  endfacet
  facet normal 0 0 -1
    outer loop
      vertex 0.784881494116422 -12.475334105353394 -4.2
      vertex 1.5138819756531388 -1.829968951592499 -4.2
      vertex 2.3422664323215603 -12.278590634108607 -4.2
    endloop
  endfacet
  facet normal 0 -1 0
    outer loop
      vertex -0.784881494116422 -12.475334105353394 -4.2
      vertex 0.784881494116422 -12.475334105353394 -4.2
      vertex 0.784881494116422 -12.475334105353394 0
    endloop
  endfacet
  facet normal 0.12533323356430495 -0.9921147013144778 0
    outer loop
      vertex 0.784881494116422 -12.475334105353394 -4.2
      vertex 2.3422664323215603 -12.278590634108607 -4.2
      vertex 2.3422664323215603 -12.278590634108607 0
    endloop
  endfacet
  facet normal 0.2486898871648548 -0.9685831611286311 0
    outer loop
      vertex 2.3422664323215603 -12.278590634108607 -4.2
      vertex 3.8627124296868423 -11.888206453689419 -4.2
      vertex 3.8627124296868423 -11.888206453689419 0
    endloop
  endfacet
  facet normal 0.3681245526846779 -0.9297764858882515 0
    outer loop
      vertex 3.8627124296868423 -11.888206453689419 -4.2
      vertex 5.322241144563406 -11.310338155825244 -4.2
      vertex 5.322241144563406 -11.310338155825244 0
    endloop
  endfacet
  facet normal 0.48175367410171493 -0.8763066800438637 0
    outer loop
      vertex 5.322241144563406 -11.310338155825244 -4.2
      vertex 6.697834937237452 -10.55409906877519 -4.2
      vertex 6.697834937237452 -10.55409906877519 0
    endloop
  endfacet
  facet normal 0 0 -1
    outer loop
      vertex 0.784881494116422 -12.475334105353394 -4.2
      vertex -0.1491274838821202 -2.370313480017145 -4.2
      vertex 0.1491274838821202 -2.370313480017145 -4.2
    endloop
  endfacet
  facet normal 0 0 -1
    outer loop
      vertex 0.784881494116422 -12.475334105353394 -4.2
      vertex 0.1491274838821202 -2.370313480017145 -4.2
      vertex 0.44503062214109645 -2.3329322204806355 -4.2
    endloop
  endfacet
  facet normal 0 0 -1
    outer loop
      vertex 0.784881494116422 -12.475334105353394 -4.2
      vertex 0.44503062214109645 -2.3329322204806355 -4.2
      vertex 0.7339153616405001 -2.2587592262009895 -4.2
    endloop
  endfacet
  facet normal 0 0 -1
    outer loop
      vertex 0.784881494116422 -12.475334105353394 -4.2
      vertex 0.7339153616405001 -2.2587592262009895 -4.2
      vertex 1.011225817467047 -2.1489642496067964 -4.2
    endloop
  endfacet
  facet normal 0 0 -1
    outer loop
      vertex 0.784881494116422 -12.475334105353394 -4.2
      vertex 1.011225817467047 -2.1489642496067964 -4.2
      vertex 1.272588638075116 -2.0052788230672864 -4.2
    endloop
  endfacet
  facet normal 0 0 -1
    outer loop
      vertex 0.784881494116422 -12.475334105353394 -4.2
      vertex 1.272588638075116 -2.0052788230672864 -4.2
      vertex 1.5138819756531388 -1.829968951592499 -4.2
    endloop
  endfacet
  facet normal 0 0 -1
    outer loop
      vertex 2.3422664323215603 -12.278590634108607 -4.2
      vertex 1.5138819756531388 -1.829968951592499 -4.2
      vertex 1.7313004901258526 -1.6257993765806351 -4.2
    endloop
  endfacet
  facet normal 0 0 -1
    outer loop
      vertex 2.3422664323215603 -12.278590634108607 -4.2
      vertex 1.7313004901258526 -1.6257993765806351 -4.2
      vertex 1.9214153616405003 -1.3959899741946238 -4.2
    endloop
  endfacet
  facet normal 0 0 -1
    outer loop
      vertex 2.3422664323215603 -12.278590634108607 -4.2
      vertex 1.9214153616405003 -1.3959899741946238 -4.2
      vertex 2.0812283651041756 -1.144164975991574 -4.2
    endloop
  endfacet
  facet normal 0 0 -1
    outer loop
      vertex 2.3422664323215603 -12.278590634108607 -4.2
      vertex 2.0812283651041756 -1.144164975991574 -4.2
      vertex 2.208219153984597 -0.8742958126261111 -4.2
    endloop
  endfacet
  facet normal 0 0 -1
    outer loop
      vertex 2.3422664323215603 -12.278590634108607 -4.2
      vertex 2.208219153984597 -0.8742958126261111 -4.2
      vertex 2.3003850076804992 -0.5906384820165292 -4.2
    endloop
  endfacet
  facet normal 0 0 -1
    outer loop
      vertex 2.3422664323215603 -12.278590634108607 -4.2
      vertex 2.3003850076804992 -0.5906384820165292 -4.2
      vertex 2.356272415621885 -0.29766642971522217 -4.2
    endloop
  endfacet
  facet normal 0 0 -1
    outer loop
      vertex 2.3422664323215603 -12.278590634108607 -4.2
      vertex 2.356272415621885 -0.29766642971522217 -4.2
      vertex 2.375 0 -4.2
    endloop
  endfacet
  facet normal 0 0 -1
    outer loop
      vertex 2.3422664323215603 -12.278590634108607 -4.2
      vertex 2.375 0 -4.2
      vertex 3.8627124296868423 11.888206453689419 -4.2
    endloop
  endfacet
  facet normal 0 0 -1
    outer loop
      vertex 2.3422664323215603 -12.278590634108607 -4.2
      vertex 3.8627124296868423 11.888206453689419 -4.2
      vertex 3.8627124296868423 -11.888206453689419 -4.2
    endloop
  endfacet
  facet normal 0 0 -1
    outer loop
      vertex 3.8627124296868423 -11.888206453689419 -4.2
      vertex 5.322241144563409 11.310338155825244 -4.2
      vertex 5.322241144563406 -11.310338155825244 -4.2
    endloop
  endfacet
  facet normal 0 0 -1
    outer loop
      vertex 5.322241144563406 -11.310338155825244 -4.2
      vertex 6.697834937237459 10.554099068775189 -4.2
      vertex 6.697834937237452 -10.55409906877519 -4.2
    endloop
  endfacet
  facet normal 0.5877852522924727 -0.8090169943749478 0
    outer loop
      vertex 6.697834937237452 -10.55409906877519 -4.2
      vertex 7.967799871858625 -9.631415534697362 -4.2
      vertex 7.967799871858625 -9.631415534697362 0
    endloop
  endfacet
  facet normal 0.684547105928689 -0.7289686274214113 0
    outer loop
      vertex 7.967799871858625 -9.631415534697362 -4.2
      vertex 9.112107842767646 -8.556838824108606 -4.2
      vertex 9.112107842767646 -8.556838824108606 0
    endloop
  endfacet
  facet normal 0.7705132427757891 -0.6374239897486897 0
    outer loop
      vertex 9.112107842767646 -8.556838824108606 -4.2
      vertex 10.112712429686843 -7.347315653655914 -4.2
      vertex 9.112107842767646 -8.556838824108606 0
    endloop
  endfacet
  facet normal 0.8443279255020152 -0.5358267949789965 0
    outer loop
      vertex 10.112712429686843 -7.347315653655914 -4.2
      vertex 10.953833500548294 -6.021920926271442 -4.2
      vertex 10.112712429686843 -7.347315653655914 0
    endloop
  endfacet
  facet normal 0 0 -1
    outer loop
      vertex 6.697834937237452 -10.55409906877519 -4.2
      vertex 7.967799871858622 9.631415534697364 -4.2
      vertex 7.967799871858625 -9.631415534697362 -4.2
    endloop
  endfacet
  facet normal 0 0 -1
    outer loop
      vertex 7.967799871858625 -9.631415534697362 -4.2
      vertex 9.112107842767644 8.55683882410861 -4.2
      vertex 9.112107842767646 -8.556838824108606 -4.2
    endloop
  endfacet
  facet normal 0 0 -1
    outer loop
      vertex 9.112107842767646 -8.556838824108606 -4.2
      vertex 10.112712429686843 7.347315653655914 -4.2
      vertex 10.112712429686843 -7.347315653655914 -4.2
    endloop
  endfacet
  facet normal 0 0 -1
    outer loop
      vertex 10.112712429686843 -7.347315653655914 -4.2
      vertex 10.953833500548296 6.0219209262714415 -4.2
      vertex 10.953833500548294 -6.021920926271442 -4.2
    endloop
  endfacet
  facet normal 0 0 -1
    outer loop
      vertex 10.953833500548294 -6.021920926271442 -4.2
      vertex 11.622206073603142 4.601556908558475 -4.2
      vertex 11.62220607360314 -4.6015569085584795 -4.2
    endloop
  endfacet
  facet normal 0 0 -1
    outer loop
      vertex 11.62220607360314 -4.6015569085584795 -4.2
      vertex 12.107289514107888 3.108623589560685 -4.2
      vertex 12.10728951410789 -3.1086235895606804 -4.2
    endloop
  endfacet
  facet normal 0 0 -1
    outer loop
      vertex 12.10728951410789 -3.1086235895606804 -4.2
      vertex 12.401433766430973 1.5666654195538032 -4.2
      vertex 12.401433766430973 -1.5666654195538008 -4.2
    endloop
  endfacet
  facet normal 0.9048270524660195 -0.42577929156507266 0
    outer loop
      vertex 10.953833500548294 -6.021920926271442 -4.2
      vertex 11.62220607360314 -4.6015569085584795 -4.2
      vertex 10.953833500548294 -6.021920926271442 0
    endloop
  endfacet
  facet normal 0.9510565162951534 -0.3090169943749479 0
    outer loop
      vertex 11.62220607360314 -4.6015569085584795 -4.2
      vertex 12.10728951410789 -3.1086235895606804 -4.2
      vertex 11.62220607360314 -4.6015569085584795 0
    endloop
  endfacet
  facet normal 0.9822872507286887 -0.1873813145857241 0
    outer loop
      vertex 12.10728951410789 -3.1086235895606804 -4.2
      vertex 12.401433766430973 -1.5666654195538008 -4.2
      vertex 12.10728951410789 -3.1086235895606804 0
    endloop
  endfacet
  facet normal 0.9980267284282716 -0.06279051952931351 0
    outer loop
      vertex 12.401433766430973 -1.5666654195538008 -4.2
      vertex 12.5 0 -4.2
      vertex 12.401433766430973 -1.5666654195538008 0
    endloop
  endfacet
  facet normal 0.12533323356430495 -0.9921147013144778 0
    outer loop
      vertex 0.784881494116422 -12.475334105353394 -4.2
      vertex 2.3422664323215603 -12.278590634108607 0
      vertex 0.784881494116422 -12.475334105353394 0
    endloop
  endfacet
  facet normal 0.2486898871648548 -0.9685831611286311 0
    outer loop
      vertex 2.3422664323215603 -12.278590634108607 -4.2
      vertex 3.8627124296868423 -11.888206453689419 0
      vertex 2.3422664323215603 -12.278590634108607 0
    endloop
  endfacet
  facet normal 0.3681245526846779 -0.9297764858882515 0
    outer loop
      vertex 3.8627124296868423 -11.888206453689419 -4.2
      vertex 5.322241144563406 -11.310338155825244 0
      vertex 3.8627124296868423 -11.888206453689419 0
    endloop
  endfacet
  facet normal 0.48175367410171493 -0.8763066800438637 0
    outer loop
      vertex 5.322241144563406 -11.310338155825244 -4.2
      vertex 6.697834937237452 -10.55409906877519 0
      vertex 5.322241144563406 -11.310338155825244 0
    endloop
  endfacet
  facet normal 0 0 1
    outer loop
      vertex -0.784881494116422 -12.475334105353394 0
      vertex 0.784881494116422 -12.475334105353394 0
      vertex 0.28255733788191195 -4.491120277927222 0
    endloop
  endfacet
  facet normal 0 0 1
    outer loop
      vertex 0.784881494116422 -12.475334105353394 0
      vertex 2.3422664323215603 -12.278590634108607 0
      vertex 0.28255733788191195 -4.491120277927222 0
    endloop
  endfacet
  facet normal 0 0 1
    outer loop
      vertex 2.3422664323215603 -12.278590634108607 0
      vertex 3.8627124296868423 -11.888206453689419 0
      vertex 1.916006812042826 -4.071721736097088 0
    endloop
  endfacet
  facet normal 0 0 1
    outer loop
      vertex 2.3422664323215603 -12.278590634108607 0
      vertex 0.8432159156357617 -4.420292628279099 0
      vertex 0.28255733788191195 -4.491120277927222 0
    endloop
  endfacet
  facet normal 0 0 1
    outer loop
      vertex 2.3422664323215603 -12.278590634108607 0
      vertex 1.3905764746872633 -4.2797543233281905 0
      vertex 0.8432159156357617 -4.420292628279099 0
    endloop
  endfacet
  facet normal 0 0 1
    outer loop
      vertex 2.3422664323215603 -12.278590634108607 0
      vertex 1.916006812042826 -4.071721736097088 0
      vertex 1.3905764746872633 -4.2797543233281905 0
    endloop
  endfacet
  facet normal 0 0 1
    outer loop
      vertex 3.8627124296868423 -11.888206453689419 0
      vertex 2.411220577405483 -3.799475664759069 0
      vertex 1.916006812042826 -4.071721736097088 0
    endloop
  endfacet
  facet normal 0 0 1
    outer loop
      vertex 3.8627124296868423 -11.888206453689419 0
      vertex 2.868407953869105 -3.4673095924910506 0
      vertex 2.411220577405483 -3.799475664759069 0
    endloop
  endfacet
  facet normal 0 0 1
    outer loop
      vertex 3.8627124296868423 -11.888206453689419 0
      vertex 5.322241144563406 -11.310338155825244 0
      vertex 3.6405764746872635 -2.6450336353161292 0
    endloop
  endfacet
  facet normal 0 0 1
    outer loop
      vertex 3.8627124296868423 -11.888206453689419 0
      vertex 3.2803588233963525 -3.080461976679098 0
      vertex 2.868407953869105 -3.4673095924910506 0
    endloop
  endfacet
  facet normal 0 0 1
    outer loop
      vertex 3.8627124296868423 -11.888206453689419 0
      vertex 3.6405764746872635 -2.6450336353161292 0
      vertex 3.2803588233963525 -3.080461976679098 0
    endloop
  endfacet
  facet normal 0 0 1
    outer loop
      vertex 5.322241144563406 -11.310338155825244 0
      vertex 3.9433800601973856 -2.1678915334577193 0
      vertex 3.6405764746872635 -2.6450336353161292 0
    endloop
  endfacet
  facet normal 0 0 1
    outer loop
      vertex 5.322241144563406 -11.310338155825244 0
      vertex 4.183994186497131 -1.6565604870810526 0
      vertex 3.9433800601973856 -2.1678915334577193 0
    endloop
  endfacet
  facet normal 0 0 1
    outer loop
      vertex 5.322241144563406 -11.310338155825244 0
      vertex 4.358624225078841 -1.119104492241845 0
      vertex 4.183994186497131 -1.6565604870810526 0
    endloop
  endfacet
  facet normal 0 0 1
    outer loop
      vertex 5.322241144563406 -11.310338155825244 0
      vertex 4.464516155915151 -0.5639995510393683 0
      vertex 4.358624225078841 -1.119104492241845 0
    endloop
  endfacet
  facet normal 0 0 1
    outer loop
      vertex 5.322241144563406 -11.310338155825244 0
      vertex 4.5 0 0
      vertex 4.464516155915151 -0.5639995510393683 0
    endloop
  endfacet
  facet normal 0 0 1
    outer loop
      vertex 5.322241144563406 -11.310338155825244 0
      vertex 4.464516155915151 0.5639995510393692 0
      vertex 4.5 0 0
    endloop
  endfacet
  facet normal 0 0 1
    outer loop
      vertex 5.322241144563406 -11.310338155825244 0
      vertex 6.697834937237452 -10.55409906877519 0
      vertex 5.322241144563409 11.310338155825244 0
    endloop
  endfacet
  facet normal 0.5877852522924727 -0.8090169943749478 0
    outer loop
      vertex 6.697834937237452 -10.55409906877519 -4.2
      vertex 7.967799871858625 -9.631415534697362 0
      vertex 6.697834937237452 -10.55409906877519 0
    endloop
  endfacet
  facet normal 0.684547105928689 -0.7289686274214113 0
    outer loop
      vertex 7.967799871858625 -9.631415534697362 -4.2
      vertex 9.112107842767646 -8.556838824108606 0
      vertex 7.967799871858625 -9.631415534697362 0
    endloop
  endfacet
  facet normal 0.7705132427757891 -0.6374239897486897 0
    outer loop
      vertex 10.112712429686843 -7.347315653655914 -4.2
      vertex 10.112712429686843 -7.347315653655914 0
      vertex 9.112107842767646 -8.556838824108606 0
    endloop
  endfacet
  facet normal 0.8443279255020152 -0.5358267949789965 0
    outer loop
      vertex 10.953833500548294 -6.021920926271442 -4.2
      vertex 10.953833500548294 -6.021920926271442 0
      vertex 10.112712429686843 -7.347315653655914 0
    endloop
  endfacet
  facet normal 0.9048270524660195 -0.42577929156507266 0
    outer loop
      vertex 11.62220607360314 -4.6015569085584795 -4.2
      vertex 11.62220607360314 -4.6015569085584795 0
      vertex 10.953833500548294 -6.021920926271442 0
    endloop
  endfacet
  facet normal 0.9510565162951534 -0.3090169943749479 0
    outer loop
      vertex 12.10728951410789 -3.1086235895606804 -4.2
      vertex 12.10728951410789 -3.1086235895606804 0
      vertex 11.62220607360314 -4.6015569085584795 0
    endloop
  endfacet
  facet normal 0.9822872507286887 -0.1873813145857241 0
    outer loop
      vertex 12.401433766430973 -1.5666654195538008 -4.2
      vertex 12.401433766430973 -1.5666654195538008 0
      vertex 12.10728951410789 -3.1086235895606804 0
    endloop
  endfacet
  facet normal 0.9980267284282716 -0.06279051952931351 0
    outer loop
      vertex 12.401433766430973 -1.5666654195538008 0
      vertex 12.5 0 -4.2
      vertex 12.5 0 0
    endloop
  endfacet
  facet normal 0 0 1
    outer loop
      vertex 6.697834937237452 -10.55409906877519 0
      vertex 7.967799871858625 -9.631415534697362 0
      vertex 6.697834937237459 10.554099068775189 0
    endloop
  endfacet
  facet normal 0 0 1
    outer loop
      vertex 7.967799871858625 -9.631415534697362 0
      vertex 9.112107842767646 -8.556838824108606 0
      vertex 7.967799871858622 9.631415534697364 0
    endloop
  endfacet
  facet normal 0 0 1
    outer loop
      vertex 9.112107842767646 -8.556838824108606 0
      vertex 10.112712429686843 -7.347315653655914 0
      vertex 9.112107842767644 8.55683882410861 0
    endloop
  endfacet
  facet normal 0 0 1
    outer loop
      vertex 10.112712429686843 -7.347315653655914 0
      vertex 10.953833500548294 -6.021920926271442 0
      vertex 10.112712429686843 7.347315653655914 0
    endloop
  endfacet
  facet normal 0 0 1
    outer loop
      vertex 10.953833500548294 -6.021920926271442 0
      vertex 11.62220607360314 -4.6015569085584795 0
      vertex 10.953833500548296 6.0219209262714415 0
    endloop
  endfacet
  facet normal 0 0 1
    outer loop
      vertex 11.62220607360314 -4.6015569085584795 0
      vertex 12.10728951410789 -3.1086235895606804 0
      vertex 11.622206073603142 4.601556908558475 0
    endloop
  endfacet
  facet normal 0 0 1
    outer loop
      vertex 12.10728951410789 -3.1086235895606804 0
      vertex 12.401433766430973 -1.5666654195538008 0
      vertex 12.107289514107888 3.108623589560685 0
    endloop
  endfacet
  facet normal 0 0 -1
    outer loop
      vertex 0.784881494116416 12.475334105353394 -4.2
      vertex 0.44503062214109584 2.3329322204806355 -4.2
      vertex 0.1491274838821164 2.370313480017145 -4.2
    endloop
  endfacet
  facet normal 0 0 -1
    outer loop
      vertex 0.784881494116416 12.475334105353394 -4.2
      vertex 0.7339153616405001 2.2587592262009895 -4.2
      vertex 0.44503062214109584 2.3329322204806355 -4.2
    endloop
  endfacet
  facet normal 0 0 -1
    outer loop
      vertex 2.342266432321557 12.278590634108609 -4.2
      vertex 1.0112258174670476 2.1489642496067964 -4.2
      vertex 0.7339153616405001 2.2587592262009895 -4.2
    endloop
  endfacet
  facet normal 0 0 -1
    outer loop
      vertex 2.342266432321557 12.278590634108609 -4.2
      vertex 1.272588638075117 2.005278823067286 -4.2
      vertex 1.0112258174670476 2.1489642496067964 -4.2
    endloop
  endfacet
  facet normal 0 0 -1
    outer loop
      vertex 2.342266432321557 12.278590634108609 -4.2
      vertex 2.300385007680499 0.5906384820165301 -4.2
      vertex 2.208219153984597 0.8742958126261102 -4.2
    endloop
  endfacet
  facet normal 0 0 -1
    outer loop
      vertex 3.8627124296868423 11.888206453689419 -4.2
      vertex 2.375 0 -4.2
      vertex 2.356272415621885 0.2976664297152226 -4.2
    endloop
  endfacet
  facet normal 0 0 -1
    outer loop
      vertex 3.8627124296868423 11.888206453689419 -4.2
      vertex 2.356272415621885 0.2976664297152226 -4.2
      vertex 2.300385007680499 0.5906384820165301 -4.2
    endloop
  endfacet
  facet normal 0 0 -1
    outer loop
      vertex 2.342266432321557 12.278590634108609 -4.2
      vertex 1.513881975653138 1.8299689515924993 -4.2
      vertex 1.272588638075117 2.005278823067286 -4.2
    endloop
  endfacet
  facet normal 0 0 -1
    outer loop
      vertex 2.342266432321557 12.278590634108609 -4.2
      vertex 1.7313004901258524 1.6257993765806358 -4.2
      vertex 1.513881975653138 1.8299689515924993 -4.2
    endloop
  endfacet
  facet normal 0 0 -1
    outer loop
      vertex 2.342266432321557 12.278590634108609 -4.2
      vertex 2.081228365104176 1.144164975991574 -4.2
      vertex 1.9214153616405003 1.3959899741946238 -4.2
    endloop
  endfacet
  facet normal 0 0 -1
    outer loop
      vertex 2.342266432321557 12.278590634108609 -4.2
      vertex 2.208219153984597 0.8742958126261102 -4.2
      vertex 2.081228365104176 1.144164975991574 -4.2
    endloop
  endfacet
  facet normal 0 0 -1
    outer loop
      vertex 2.342266432321557 12.278590634108609 -4.2
      vertex 1.9214153616405003 1.3959899741946238 -4.2
      vertex 1.7313004901258524 1.6257993765806358 -4.2
    endloop
  endfacet
  facet normal 0 0 -1
    outer loop
      vertex 3.8627124296868423 -11.888206453689419 -4.2
      vertex 3.8627124296868423 11.888206453689419 -4.2
      vertex 5.322241144563409 11.310338155825244 -4.2
    endloop
  endfacet
  facet normal 0 0 -1
    outer loop
      vertex 5.322241144563406 -11.310338155825244 -4.2
      vertex 5.322241144563409 11.310338155825244 -4.2
      vertex 6.697834937237459 10.554099068775189 -4.2
    endloop
  endfacet
  facet normal 0 0 -1
    outer loop
      vertex -0.784881494116416 12.475334105353394 -4.2
      vertex 0.784881494116416 12.475334105353394 -4.2
      vertex 0.1491274838821164 2.370313480017145 -4.2
    endloop
  endfacet
  facet normal 0 0 -1
    outer loop
      vertex 0.784881494116416 12.475334105353394 -4.2
      vertex 2.342266432321557 12.278590634108609 -4.2
      vertex 0.7339153616405001 2.2587592262009895 -4.2
    endloop
  endfacet
  facet normal 0 0 -1
    outer loop
      vertex 2.342266432321557 12.278590634108609 -4.2
      vertex 3.8627124296868423 11.888206453689419 -4.2
      vertex 2.300385007680499 0.5906384820165301 -4.2
    endloop
  endfacet
  facet normal 0.12533323356430362 0.9921147013144779 0
    outer loop
      vertex 0.784881494116416 12.475334105353394 -4.2
      vertex 0.784881494116416 12.475334105353394 0
      vertex 2.342266432321557 12.278590634108609 -4.2
    endloop
  endfacet
  facet normal 0.24868988716485535 0.968583161128631 0
    outer loop
      vertex 2.342266432321557 12.278590634108609 -4.2
      vertex 2.342266432321557 12.278590634108609 0
      vertex 3.8627124296868423 11.888206453689419 -4.2
    endloop
  endfacet
  facet normal 0.3681245526846771 0.9297764858882518 0
    outer loop
      vertex 3.8627124296868423 11.888206453689419 -4.2
      vertex 3.8627124296868423 11.888206453689419 0
      vertex 5.322241144563409 11.310338155825244 -4.2
    endloop
  endfacet
  facet normal 0.4817536741017151 0.8763066800438637 0
    outer loop
      vertex 5.322241144563409 11.310338155825244 -4.2
      vertex 5.322241144563409 11.310338155825244 0
      vertex 6.697834937237459 10.554099068775189 -4.2
    endloop
  endfacet
  facet normal 0 0 -1
    outer loop
      vertex 7.967799871858625 -9.631415534697362 -4.2
      vertex 7.967799871858622 9.631415534697364 -4.2
      vertex 9.112107842767644 8.55683882410861 -4.2
    endloop
  endfacet
  facet normal 0 0 -1
    outer loop
      vertex 6.697834937237452 -10.55409906877519 -4.2
      vertex 6.697834937237459 10.554099068775189 -4.2
      vertex 7.967799871858622 9.631415534697364 -4.2
    endloop
  endfacet
  facet normal 0 0 -1
    outer loop
      vertex 9.112107842767646 -8.556838824108606 -4.2
      vertex 9.112107842767644 8.55683882410861 -4.2
      vertex 10.112712429686843 7.347315653655914 -4.2
    endloop
  endfacet
  facet normal 0 0 -1
    outer loop
      vertex 10.112712429686843 -7.347315653655914 -4.2
      vertex 10.112712429686843 7.347315653655914 -4.2
      vertex 10.953833500548296 6.0219209262714415 -4.2
    endloop
  endfacet
  facet normal 0 0 -1
    outer loop
      vertex 10.953833500548294 -6.021920926271442 -4.2
      vertex 10.953833500548296 6.0219209262714415 -4.2
      vertex 11.622206073603142 4.601556908558475 -4.2
    endloop
  endfacet
  facet normal 0 0 -1
    outer loop
      vertex 12.401433766430973 -1.5666654195538008 -4.2
      vertex 12.401433766430973 1.5666654195538032 -4.2
      vertex 12.5 0 -4.2
    endloop
  endfacet
  facet normal 0 0 -1
    outer loop
      vertex 12.10728951410789 -3.1086235895606804 -4.2
      vertex 12.107289514107888 3.108623589560685 -4.2
      vertex 12.401433766430973 1.5666654195538032 -4.2
    endloop
  endfacet
  facet normal 0 0 -1
    outer loop
      vertex 11.62220607360314 -4.6015569085584795 -4.2
      vertex 11.622206073603142 4.601556908558475 -4.2
      vertex 12.107289514107888 3.108623589560685 -4.2
    endloop
  endfacet
  facet normal 0.9980267284282716 0.0627905195293134 0
    outer loop
      vertex 12.5 0 -4.2
      vertex 12.401433766430973 1.5666654195538032 -4.2
      vertex 12.5 0 0
    endloop
  endfacet
  facet normal 0.9822872507286886 0.18738131458572493 0
    outer loop
      vertex 12.401433766430973 1.5666654195538032 -4.2
      vertex 12.107289514107888 3.108623589560685 -4.2
      vertex 12.401433766430973 1.5666654195538032 0
    endloop
  endfacet
  facet normal 0.9510565162951535 0.3090169943749475 0
    outer loop
      vertex 12.107289514107888 3.108623589560685 -4.2
      vertex 11.622206073603142 4.601556908558475 -4.2
      vertex 12.107289514107888 3.108623589560685 0
    endloop
  endfacet
  facet normal 0.90482705246602 0.4257792915650718 0
    outer loop
      vertex 11.622206073603142 4.601556908558475 -4.2
      vertex 10.953833500548296 6.0219209262714415 -4.2
      vertex 11.622206073603142 4.601556908558475 0
    endloop
  endfacet
  facet normal 0.6845471059286881 0.7289686274214121 0
    outer loop
      vertex 9.112107842767644 8.55683882410861 -4.2
      vertex 7.967799871858622 9.631415534697364 -4.2
      vertex 7.967799871858622 9.631415534697364 0
    endloop
  endfacet
  facet normal 0.5877852522924739 0.8090169943749469 0
    outer loop
      vertex 6.697834937237459 10.554099068775189 -4.2
      vertex 6.697834937237459 10.554099068775189 0
      vertex 7.967799871858622 9.631415534697364 -4.2
    endloop
  endfacet
  facet normal 0.7705132427757896 0.6374239897486894 0
    outer loop
      vertex 9.112107842767644 8.55683882410861 -4.2
      vertex 10.112712429686843 7.347315653655914 0
      vertex 10.112712429686843 7.347315653655914 -4.2
    endloop
  endfacet
  facet normal 0.8443279255020147 0.5358267949789971 0
    outer loop
      vertex 10.953833500548296 6.0219209262714415 -4.2
      vertex 10.112712429686843 7.347315653655914 -4.2
      vertex 10.953833500548296 6.0219209262714415 0
    endloop
  endfacet
  facet normal 0 0 1
    outer loop
      vertex 5.322241144563406 -11.310338155825244 0
      vertex 3.8627124296868423 11.888206453689419 0
      vertex 4.464516155915151 0.5639995510393692 0
    endloop
  endfacet
  facet normal 0 0 1
    outer loop
      vertex 3.8627124296868423 11.888206453689419 0
      vertex 4.35862422507884 1.1191044922418465 0
      vertex 4.464516155915151 0.5639995510393692 0
    endloop
  endfacet
  facet normal 0 0 1
    outer loop
      vertex 3.8627124296868423 11.888206453689419 0
      vertex 3.6405764746872635 2.6450336353161292 0
      vertex 3.943380060197386 2.167891533457719 0
    endloop
  endfacet
  facet normal 0 0 1
    outer loop
      vertex 3.8627124296868423 11.888206453689419 0
      vertex 3.280358823396352 3.080461976679099 0
      vertex 3.6405764746872635 2.6450336353161292 0
    endloop
  endfacet
  facet normal 0 0 1
    outer loop
      vertex 3.8627124296868423 11.888206453689419 0
      vertex 4.183994186497131 1.6565604870810509 0
      vertex 4.35862422507884 1.1191044922418465 0
    endloop
  endfacet
  facet normal 0 0 1
    outer loop
      vertex 3.8627124296868423 11.888206453689419 0
      vertex 3.943380060197386 2.167891533457719 0
      vertex 4.183994186497131 1.6565604870810509 0
    endloop
  endfacet
  facet normal 0 0 1
    outer loop
      vertex 5.322241144563406 -11.310338155825244 0
      vertex 5.322241144563409 11.310338155825244 0
      vertex 3.8627124296868423 11.888206453689419 0
    endloop
  endfacet
  facet normal 0 0 1
    outer loop
      vertex 6.697834937237452 -10.55409906877519 0
      vertex 6.697834937237459 10.554099068775189 0
      vertex 5.322241144563409 11.310338155825244 0
    endloop
  endfacet
  facet normal 0 1 0
    outer loop
      vertex -0.784881494116416 12.475334105353394 0
      vertex 0.784881494116416 12.475334105353394 0
      vertex 0.784881494116416 12.475334105353394 -4.2
    endloop
  endfacet
  facet normal 0.12533323356430362 0.9921147013144779 0
    outer loop
      vertex 2.342266432321557 12.278590634108609 -4.2
      vertex 0.784881494116416 12.475334105353394 0
      vertex 2.342266432321557 12.278590634108609 0
    endloop
  endfacet
  facet normal 0.24868988716485535 0.968583161128631 0
    outer loop
      vertex 3.8627124296868423 11.888206453689419 -4.2
      vertex 2.342266432321557 12.278590634108609 0
      vertex 3.8627124296868423 11.888206453689419 0
    endloop
  endfacet
  facet normal 0.4817536741017151 0.8763066800438637 0
    outer loop
      vertex 6.697834937237459 10.554099068775189 -4.2
      vertex 5.322241144563409 11.310338155825244 0
      vertex 6.697834937237459 10.554099068775189 0
    endloop
  endfacet
  facet normal 0.3681245526846771 0.9297764858882518 0
    outer loop
      vertex 5.322241144563409 11.310338155825244 -4.2
      vertex 3.8627124296868423 11.888206453689419 0
      vertex 5.322241144563409 11.310338155825244 0
    endloop
  endfacet
  facet normal 0 0 1
    outer loop
      vertex 0.784881494116416 12.475334105353394 0
      vertex -0.2825573378819078 4.491120277927222 0
      vertex 0.28255733788190973 4.491120277927222 0
    endloop
  endfacet
  facet normal 0 0 1
    outer loop
      vertex 0.784881494116416 12.475334105353394 0
      vertex 0.28255733788190973 4.491120277927222 0
      vertex 0.8432159156357606 4.420292628279099 0
    endloop
  endfacet
  facet normal 0 0 1
    outer loop
      vertex 0.784881494116416 12.475334105353394 0
      vertex 0.8432159156357606 4.420292628279099 0
      vertex 1.3905764746872633 4.2797543233281905 0
    endloop
  endfacet
  facet normal 0 0 1
    outer loop
      vertex 2.342266432321557 12.278590634108609 0
      vertex 1.3905764746872633 4.2797543233281905 0
      vertex 1.9160068120428273 4.071721736097087 0
    endloop
  endfacet
  facet normal 0 0 1
    outer loop
      vertex 2.342266432321557 12.278590634108609 0
      vertex 1.9160068120428273 4.071721736097087 0
      vertex 2.411220577405485 3.799475664759068 0
    endloop
  endfacet
  facet normal 0 0 1
    outer loop
      vertex 2.342266432321557 12.278590634108609 0
      vertex 2.411220577405485 3.799475664759068 0
      vertex 2.868407953869104 3.467309592491051 0
    endloop
  endfacet
  facet normal 0 0 1
    outer loop
      vertex 2.342266432321557 12.278590634108609 0
      vertex 2.868407953869104 3.467309592491051 0
      vertex 3.280358823396352 3.080461976679099 0
    endloop
  endfacet
  facet normal 0 0 1
    outer loop
      vertex 0.784881494116416 12.475334105353394 0
      vertex 1.3905764746872633 4.2797543233281905 0
      vertex 2.342266432321557 12.278590634108609 0
    endloop
  endfacet
  facet normal 0 0 1
    outer loop
      vertex 2.342266432321557 12.278590634108609 0
      vertex 3.280358823396352 3.080461976679099 0
      vertex 3.8627124296868423 11.888206453689419 0
    endloop
  endfacet
  facet normal 0.9980267284282716 0.0627905195293134 0
    outer loop
      vertex 12.401433766430973 1.5666654195538032 -4.2
      vertex 12.401433766430973 1.5666654195538032 0
      vertex 12.5 0 0
    endloop
  endfacet
  facet normal 0.9822872507286886 0.18738131458572493 0
    outer loop
      vertex 12.107289514107888 3.108623589560685 -4.2
      vertex 12.107289514107888 3.108623589560685 0
      vertex 12.401433766430973 1.5666654195538032 0
    endloop
  endfacet
  facet normal 0.9510565162951535 0.3090169943749475 0
    outer loop
      vertex 11.622206073603142 4.601556908558475 -4.2
      vertex 11.622206073603142 4.601556908558475 0
      vertex 12.107289514107888 3.108623589560685 0
    endloop
  endfacet
  facet normal 0.90482705246602 0.4257792915650718 0
    outer loop
      vertex 10.953833500548296 6.0219209262714415 -4.2
      vertex 10.953833500548296 6.0219209262714415 0
      vertex 11.622206073603142 4.601556908558475 0
    endloop
  endfacet
  facet normal 0 0 1
    outer loop
      vertex 7.967799871858625 -9.631415534697362 0
      vertex 7.967799871858622 9.631415534697364 0
      vertex 6.697834937237459 10.554099068775189 0
    endloop
  endfacet
  facet normal 0 0 1
    outer loop
      vertex 9.112107842767646 -8.556838824108606 0
      vertex 9.112107842767644 8.55683882410861 0
      vertex 7.967799871858622 9.631415534697364 0
    endloop
  endfacet
  facet normal 0 0 1
    outer loop
      vertex 10.112712429686843 -7.347315653655914 0
      vertex 10.112712429686843 7.347315653655914 0
      vertex 9.112107842767644 8.55683882410861 0
    endloop
  endfacet
  facet normal 0 0 1
    outer loop
      vertex 10.953833500548294 -6.021920926271442 0
      vertex 10.953833500548296 6.0219209262714415 0
      vertex 10.112712429686843 7.347315653655914 0
    endloop
  endfacet
  facet normal 0 0 1
    outer loop
      vertex 12.401433766430973 -1.5666654195538008 0
      vertex 12.5 0 0
      vertex 12.401433766430973 1.5666654195538032 0
    endloop
  endfacet
  facet normal 0 0 1
    outer loop
      vertex 12.10728951410789 -3.1086235895606804 0
      vertex 12.107289514107888 3.108623589560685 0
      vertex 11.622206073603142 4.601556908558475 0
    endloop
  endfacet
  facet normal 0 0 1
    outer loop
      vertex 12.401433766430973 -1.5666654195538008 0
      vertex 12.401433766430973 1.5666654195538032 0
      vertex 12.107289514107888 3.108623589560685 0
    endloop
  endfacet
  facet normal 0 0 1
    outer loop
      vertex 11.62220607360314 -4.6015569085584795 0
      vertex 11.622206073603142 4.601556908558475 0
      vertex 10.953833500548296 6.0219209262714415 0
    endloop
  endfacet
  facet normal 0.6845471059286881 0.7289686274214121 0
    outer loop
      vertex 9.112107842767644 8.55683882410861 -4.2
      vertex 7.967799871858622 9.631415534697364 0
      vertex 9.112107842767644 8.55683882410861 0
    endloop
  endfacet
  facet normal 0.5877852522924739 0.8090169943749469 0
    outer loop
      vertex 7.967799871858622 9.631415534697364 -4.2
      vertex 6.697834937237459 10.554099068775189 0
      vertex 7.967799871858622 9.631415534697364 0
    endloop
  endfacet
  facet normal 0.8443279255020147 0.5358267949789971 0
    outer loop
      vertex 10.112712429686843 7.347315653655914 -4.2
      vertex 10.112712429686843 7.347315653655914 0
      vertex 10.953833500548296 6.0219209262714415 0
    endloop
  endfacet
  facet normal 0.7705132427757896 0.6374239897486894 0
    outer loop
      vertex 9.112107842767644 8.55683882410861 -4.2
      vertex 9.112107842767644 8.55683882410861 0
      vertex 10.112712429686843 7.347315653655914 0
    endloop
  endfacet
endsolid OpenSCAD_Model
