solid OpenSCAD_Model
  facet normal 0 1 -0
    outer loop
      vertex 1.73099 -2.99817 -2.5
      vertex -1.73099 -2.99817 0
      vertex 1.73099 -2.99817 0
    endloop
  endfacet
  facet normal 0 1 0
    outer loop
      vertex -1.73099 -2.99817 0
      vertex 1.73099 -2.99817 -2.5
      vertex -1.73099 -2.99817 -2.5
    endloop
  endfacet
  facet normal 0 0 1
    outer loop
      vertex 3.46199 0 -2.5
      vertex 1.78581 0.225599 -2.5
      vertex 1.8 0 -2.5
    endloop
  endfacet
  facet normal 0 0 1
    outer loop
      vertex 3.46199 0 -2.5
      vertex 1.74345 0.447641 -2.5
      vertex 1.78581 0.225599 -2.5
    endloop
  endfacet
  facet normal -0 0 1
    outer loop
      vertex 1.57735 0.867156 -2.5
      vertex 3.46199 0 -2.5
      vertex 1.73099 2.99817 -2.5
    endloop
  endfacet
  facet normal 0 0 1
    outer loop
      vertex 3.46199 0 -2.5
      vertex 1.6736 0.662623 -2.5
      vertex 1.74345 0.447641 -2.5
    endloop
  endfacet
  facet normal 0 0 1
    outer loop
      vertex 3.46199 0 -2.5
      vertex 1.57735 0.867156 -2.5
      vertex 1.6736 0.662623 -2.5
    endloop
  endfacet
  facet normal 0 0 1
    outer loop
      vertex 1.73099 2.99817 -2.5
      vertex 1.45623 1.05801 -2.5
      vertex 1.57735 0.867156 -2.5
    endloop
  endfacet
  facet normal 0 0 1
    outer loop
      vertex 1.73099 2.99817 -2.5
      vertex 1.31214 1.23218 -2.5
      vertex 1.45623 1.05801 -2.5
    endloop
  endfacet
  facet normal 0 0 1
    outer loop
      vertex 1.73099 2.99817 -2.5
      vertex 1.14736 1.38692 -2.5
      vertex 1.31214 1.23218 -2.5
    endloop
  endfacet
  facet normal 0 0 1
    outer loop
      vertex 1.73099 2.99817 -2.5
      vertex 0.964488 1.51979 -2.5
      vertex 1.14736 1.38692 -2.5
    endloop
  endfacet
  facet normal 0 0 1
    outer loop
      vertex 1.73099 2.99817 -2.5
      vertex 0.766402 1.62869 -2.5
      vertex 0.964488 1.51979 -2.5
    endloop
  endfacet
  facet normal 0 0 1
    outer loop
      vertex 1.73099 2.99817 -2.5
      vertex 0.556231 1.7119 -2.5
      vertex 0.766402 1.62869 -2.5
    endloop
  endfacet
  facet normal 0 0 1
    outer loop
      vertex 1.73099 2.99817 -2.5
      vertex 0.337286 1.76812 -2.5
      vertex 0.556231 1.7119 -2.5
    endloop
  endfacet
  facet normal 0 0 1
    outer loop
      vertex 1.73099 2.99817 -2.5
      vertex 0.113023 1.79645 -2.5
      vertex 0.337286 1.76812 -2.5
    endloop
  endfacet
  facet normal 0 0 1
    outer loop
      vertex 1.73099 2.99817 -2.5
      vertex -0.113023 1.79645 -2.5
      vertex 0.113023 1.79645 -2.5
    endloop
  endfacet
  facet normal -0 0 1
    outer loop
      vertex -1.73099 2.99817 -2.5
      vertex -0.113023 1.79645 -2.5
      vertex 1.73099 2.99817 -2.5
    endloop
  endfacet
  facet normal 0 0 1
    outer loop
      vertex -0.113023 1.79645 -2.5
      vertex -1.73099 2.99817 -2.5
      vertex -0.337286 1.76812 -2.5
    endloop
  endfacet
  facet normal 0 0 1
    outer loop
      vertex -0.337286 1.76812 -2.5
      vertex -1.73099 2.99817 -2.5
      vertex -0.556231 1.7119 -2.5
    endloop
  endfacet
  facet normal 0 0 1
    outer loop
      vertex -0.556231 1.7119 -2.5
      vertex -1.73099 2.99817 -2.5
      vertex -0.766402 1.62869 -2.5
    endloop
  endfacet
  facet normal 0 0 1
    outer loop
      vertex -1.73099 2.99817 -2.5
      vertex -0.964488 1.51979 -2.5
      vertex -0.766402 1.62869 -2.5
    endloop
  endfacet
  facet normal 0 0 1
    outer loop
      vertex -1.73099 2.99817 -2.5
      vertex -1.14736 1.38692 -2.5
      vertex -0.964488 1.51979 -2.5
    endloop
  endfacet
  facet normal 0 0 1
    outer loop
      vertex -1.73099 2.99817 -2.5
      vertex -1.31214 1.23218 -2.5
      vertex -1.14736 1.38692 -2.5
    endloop
  endfacet
  facet normal 0 0 1
    outer loop
      vertex -1.73099 2.99817 -2.5
      vertex -1.45623 1.05801 -2.5
      vertex -1.31214 1.23218 -2.5
    endloop
  endfacet
  facet normal 0 0 1
    outer loop
      vertex -1.73099 2.99817 -2.5
      vertex -1.57735 0.867156 -2.5
      vertex -1.45623 1.05801 -2.5
    endloop
  endfacet
  facet normal 0 0 1
    outer loop
      vertex -3.46199 0 -2.5
      vertex -1.57735 0.867156 -2.5
      vertex -1.73099 2.99817 -2.5
    endloop
  endfacet
  facet normal 0 0 1
    outer loop
      vertex -1.57735 0.867156 -2.5
      vertex -3.46199 0 -2.5
      vertex -1.6736 0.662623 -2.5
    endloop
  endfacet
  facet normal 0 0 1
    outer loop
      vertex -1.6736 0.662623 -2.5
      vertex -3.46199 0 -2.5
      vertex -1.74345 0.447641 -2.5
    endloop
  endfacet
  facet normal 0 0 1
    outer loop
      vertex -1.74345 0.447641 -2.5
      vertex -3.46199 0 -2.5
      vertex -1.78581 0.225599 -2.5
    endloop
  endfacet
  facet normal 0 0 1
    outer loop
      vertex -1.78581 0.225599 -2.5
      vertex -3.46199 0 -2.5
      vertex -1.8 0 -2.5
    endloop
  endfacet
  facet normal 0 0 1
    outer loop
      vertex 1.78581 -0.225599 -2.5
      vertex 3.46199 0 -2.5
      vertex 1.8 0 -2.5
    endloop
  endfacet
  facet normal 0 0 1
    outer loop
      vertex 1.74345 -0.447641 -2.5
      vertex 3.46199 0 -2.5
      vertex 1.78581 -0.225599 -2.5
    endloop
  endfacet
  facet normal 0 0 1
    outer loop
      vertex 1.6736 -0.662623 -2.5
      vertex 3.46199 0 -2.5
      vertex 1.74345 -0.447641 -2.5
    endloop
  endfacet
  facet normal 0 0 1
    outer loop
      vertex 1.57735 -0.867156 -2.5
      vertex 3.46199 0 -2.5
      vertex 1.6736 -0.662623 -2.5
    endloop
  endfacet
  facet normal 0 0 1
    outer loop
      vertex 3.46199 0 -2.5
      vertex 1.57735 -0.867156 -2.5
      vertex 1.73099 -2.99817 -2.5
    endloop
  endfacet
  facet normal -0 0 1
    outer loop
      vertex 1.45623 -1.05801 -2.5
      vertex 1.73099 -2.99817 -2.5
      vertex 1.57735 -0.867156 -2.5
    endloop
  endfacet
  facet normal -0 0 1
    outer loop
      vertex 1.31214 -1.23218 -2.5
      vertex 1.73099 -2.99817 -2.5
      vertex 1.45623 -1.05801 -2.5
    endloop
  endfacet
  facet normal -0 0 1
    outer loop
      vertex 1.14736 -1.38692 -2.5
      vertex 1.73099 -2.99817 -2.5
      vertex 1.31214 -1.23218 -2.5
    endloop
  endfacet
  facet normal -0 0 1
    outer loop
      vertex 0.964488 -1.51979 -2.5
      vertex 1.73099 -2.99817 -2.5
      vertex 1.14736 -1.38692 -2.5
    endloop
  endfacet
  facet normal -0 0 1
    outer loop
      vertex 0.766402 -1.62869 -2.5
      vertex 1.73099 -2.99817 -2.5
      vertex 0.964488 -1.51979 -2.5
    endloop
  endfacet
  facet normal -0 0 1
    outer loop
      vertex 0.556231 -1.7119 -2.5
      vertex 1.73099 -2.99817 -2.5
      vertex 0.766402 -1.62869 -2.5
    endloop
  endfacet
  facet normal -0 0 1
    outer loop
      vertex 0.337286 -1.76812 -2.5
      vertex 1.73099 -2.99817 -2.5
      vertex 0.556231 -1.7119 -2.5
    endloop
  endfacet
  facet normal -0 0 1
    outer loop
      vertex 0.113023 -1.79645 -2.5
      vertex 1.73099 -2.99817 -2.5
      vertex 0.337286 -1.76812 -2.5
    endloop
  endfacet
  facet normal -0 0 1
    outer loop
      vertex -0.113023 -1.79645 -2.5
      vertex 1.73099 -2.99817 -2.5
      vertex 0.113023 -1.79645 -2.5
    endloop
  endfacet
  facet normal 0 0 1
    outer loop
      vertex -1.73099 -2.99817 -2.5
      vertex -0.113023 -1.79645 -2.5
      vertex -0.337286 -1.76812 -2.5
    endloop
  endfacet
  facet normal 0 0 1
    outer loop
      vertex -1.73099 -2.99817 -2.5
      vertex -0.337286 -1.76812 -2.5
      vertex -0.556231 -1.7119 -2.5
    endloop
  endfacet
  facet normal 0 0 1
    outer loop
      vertex -1.73099 -2.99817 -2.5
      vertex -0.556231 -1.7119 -2.5
      vertex -0.766402 -1.62869 -2.5
    endloop
  endfacet
  facet normal 0 0 1
    outer loop
      vertex -0.113023 -1.79645 -2.5
      vertex -1.73099 -2.99817 -2.5
      vertex 1.73099 -2.99817 -2.5
    endloop
  endfacet
  facet normal 0 0 1
    outer loop
      vertex -0.964488 -1.51979 -2.5
      vertex -1.73099 -2.99817 -2.5
      vertex -0.766402 -1.62869 -2.5
    endloop
  endfacet
  facet normal 0 0 1
    outer loop
      vertex -1.14736 -1.38692 -2.5
      vertex -1.73099 -2.99817 -2.5
      vertex -0.964488 -1.51979 -2.5
    endloop
  endfacet
  facet normal 0 0 1
    outer loop
      vertex -1.31214 -1.23218 -2.5
      vertex -1.73099 -2.99817 -2.5
      vertex -1.14736 -1.38692 -2.5
    endloop
  endfacet
  facet normal 0 0 1
    outer loop
      vertex -1.45623 -1.05801 -2.5
      vertex -1.73099 -2.99817 -2.5
      vertex -1.31214 -1.23218 -2.5
    endloop
  endfacet
  facet normal 0 0 1
    outer loop
      vertex -1.57735 -0.867156 -2.5
      vertex -1.73099 -2.99817 -2.5
      vertex -1.45623 -1.05801 -2.5
    endloop
  endfacet
  facet normal 0 0 1
    outer loop
      vertex -3.46199 0 -2.5
      vertex -1.57735 -0.867156 -2.5
      vertex -1.6736 -0.662623 -2.5
    endloop
  endfacet
  facet normal 0 0 1
    outer loop
      vertex -3.46199 0 -2.5
      vertex -1.6736 -0.662623 -2.5
      vertex -1.74345 -0.447641 -2.5
    endloop
  endfacet
  facet normal 0 0 1
    outer loop
      vertex -3.46199 0 -2.5
      vertex -1.74345 -0.447641 -2.5
      vertex -1.78581 -0.225599 -2.5
    endloop
  endfacet
  facet normal -0 0 1
    outer loop
      vertex -3.46199 0 -2.5
      vertex -1.78581 -0.225599 -2.5
      vertex -1.8 0 -2.5
    endloop
  endfacet
  facet normal 0 0 1
    outer loop
      vertex -1.57735 -0.867156 -2.5
      vertex -3.46199 0 -2.5
      vertex -1.73099 -2.99817 -2.5
    endloop
  endfacet
  facet normal -0.866025 0.500001 0
    outer loop
      vertex 1.73099 -2.99817 -2.5
      vertex 3.46199 0 0
      vertex 3.46199 0 -2.5
    endloop
  endfacet
  facet normal -0.866025 0.500001 0
    outer loop
      vertex 3.46199 0 0
      vertex 1.73099 -2.99817 -2.5
      vertex 1.73099 -2.99817 0
    endloop
  endfacet
  facet normal -0.866025 -0.500001 0
    outer loop
      vertex 3.46199 0 -2.5
      vertex 1.73099 2.99817 0
      vertex 1.73099 2.99817 -2.5
    endloop
  endfacet
  facet normal -0.866025 -0.500001 0
    outer loop
      vertex 1.73099 2.99817 0
      vertex 3.46199 0 -2.5
      vertex 3.46199 0 0
    endloop
  endfacet
  facet normal 0 0 1
    outer loop
      vertex 3.46199 0 0
      vertex 30 0 0
      vertex 29.7634 3.76 0
    endloop
  endfacet
  facet normal 0 0 1
    outer loop
      vertex 3.46199 0 0
      vertex 29.7634 3.76 0
      vertex 29.0575 7.4607 0
    endloop
  endfacet
  facet normal 0 0 1
    outer loop
      vertex 30 0 0
      vertex 3.46199 0 0
      vertex 29.7634 -3.76 0
    endloop
  endfacet
  facet normal 0 0 1
    outer loop
      vertex 3.46199 0 0
      vertex 29.0575 7.4607 0
      vertex 27.8933 11.0437 0
    endloop
  endfacet
  facet normal 0 0 1
    outer loop
      vertex 29.7634 -3.76 0
      vertex 3.46199 0 0
      vertex 29.0575 -7.4607 0
    endloop
  endfacet
  facet normal 0 0 1
    outer loop
      vertex 3.46199 0 0
      vertex 27.8933 11.0437 0
      vertex 26.2892 14.4526 0
    endloop
  endfacet
  facet normal 0 0 1
    outer loop
      vertex 29.0575 -7.4607 0
      vertex 3.46199 0 0
      vertex 27.8933 -11.0437 0
    endloop
  endfacet
  facet normal 0 0 1
    outer loop
      vertex 1.73099 2.99817 0
      vertex 26.2892 14.4526 0
      vertex 24.2705 17.6336 0
    endloop
  endfacet
  facet normal 0 0 1
    outer loop
      vertex 27.8933 -11.0437 0
      vertex 3.46199 0 0
      vertex 26.2892 -14.4526 0
    endloop
  endfacet
  facet normal 0 0 1
    outer loop
      vertex 1.73099 2.99817 0
      vertex 24.2705 17.6336 0
      vertex 21.8691 20.5364 0
    endloop
  endfacet
  facet normal -0 0 1
    outer loop
      vertex 1.73099 -2.99817 0
      vertex 26.2892 -14.4526 0
      vertex 3.46199 0 0
    endloop
  endfacet
  facet normal 0 0 1
    outer loop
      vertex 1.73099 2.99817 0
      vertex 21.8691 20.5364 0
      vertex 19.1227 23.1154 0
    endloop
  endfacet
  facet normal 0 0 1
    outer loop
      vertex 26.2892 -14.4526 0
      vertex 1.73099 -2.99817 0
      vertex 24.2705 -17.6336 0
    endloop
  endfacet
  facet normal 0 0 1
    outer loop
      vertex 1.73099 2.99817 0
      vertex 19.1227 23.1154 0
      vertex 16.0748 25.3298 0
    endloop
  endfacet
  facet normal 0 0 1
    outer loop
      vertex 24.2705 -17.6336 0
      vertex 1.73099 -2.99817 0
      vertex 21.8691 -20.5364 0
    endloop
  endfacet
  facet normal 0 0 1
    outer loop
      vertex 1.73099 2.99817 0
      vertex 16.0748 25.3298 0
      vertex 12.7734 27.1448 0
    endloop
  endfacet
  facet normal 0 0 1
    outer loop
      vertex 21.8691 -20.5364 0
      vertex 1.73099 -2.99817 0
      vertex 19.1227 -23.1154 0
    endloop
  endfacet
  facet normal 0 0 1
    outer loop
      vertex 1.73099 2.99817 0
      vertex 12.7734 27.1448 0
      vertex 9.27051 28.5317 0
    endloop
  endfacet
  facet normal 0 0 1
    outer loop
      vertex 19.1227 -23.1154 0
      vertex 1.73099 -2.99817 0
      vertex 16.0748 -25.3298 0
    endloop
  endfacet
  facet normal 0 0 1
    outer loop
      vertex 1.73099 2.99817 0
      vertex 9.27051 28.5317 0
      vertex 5.62144 29.4686 0
    endloop
  endfacet
  facet normal 0 0 1
    outer loop
      vertex 16.0748 -25.3298 0
      vertex 1.73099 -2.99817 0
      vertex 12.7734 -27.1448 0
    endloop
  endfacet
  facet normal 0 0 1
    outer loop
      vertex 12.7734 -27.1448 0
      vertex 1.73099 -2.99817 0
      vertex 9.27051 -28.5317 0
    endloop
  endfacet
  facet normal 0 0 1
    outer loop
      vertex 1.73099 2.99817 0
      vertex 5.62144 29.4686 0
      vertex 1.88371 29.9408 0
    endloop
  endfacet
  facet normal 0 0 1
    outer loop
      vertex 26.2892 14.4526 0
      vertex 1.73099 2.99817 0
      vertex 3.46199 0 0
    endloop
  endfacet
  facet normal 0 0 1
    outer loop
      vertex 1.88371 29.9408 0
      vertex -1.73099 2.99817 0
      vertex 1.73099 2.99817 0
    endloop
  endfacet
  facet normal -0 0 1
    outer loop
      vertex -1.88371 29.9408 0
      vertex -1.73099 2.99817 0
      vertex 1.88371 29.9408 0
    endloop
  endfacet
  facet normal -0 0 1
    outer loop
      vertex -5.62144 29.4686 0
      vertex -1.73099 2.99817 0
      vertex -1.88371 29.9408 0
    endloop
  endfacet
  facet normal -0 0 1
    outer loop
      vertex -9.27051 28.5317 0
      vertex -1.73099 2.99817 0
      vertex -5.62144 29.4686 0
    endloop
  endfacet
  facet normal 0 0 1
    outer loop
      vertex 9.27051 -28.5317 0
      vertex 1.73099 -2.99817 0
      vertex 5.62144 -29.4686 0
    endloop
  endfacet
  facet normal 0 0 1
    outer loop
      vertex 5.62144 -29.4686 0
      vertex 1.73099 -2.99817 0
      vertex 1.88371 -29.9408 0
    endloop
  endfacet
  facet normal -0 0 1
    outer loop
      vertex -1.73099 -2.99817 0
      vertex 1.88371 -29.9408 0
      vertex 1.73099 -2.99817 0
    endloop
  endfacet
  facet normal 0 0 1
    outer loop
      vertex -1.73099 -2.99817 0
      vertex -1.88371 -29.9408 0
      vertex 1.88371 -29.9408 0
    endloop
  endfacet
  facet normal 0 0 1
    outer loop
      vertex -26.2892 -14.4526 0
      vertex -1.73099 -2.99817 0
      vertex -3.46199 0 0
    endloop
  endfacet
  facet normal -0 0 1
    outer loop
      vertex -12.7734 27.1448 0
      vertex -1.73099 2.99817 0
      vertex -9.27051 28.5317 0
    endloop
  endfacet
  facet normal 0 0 1
    outer loop
      vertex -1.73099 -2.99817 0
      vertex -5.62144 -29.4686 0
      vertex -1.88371 -29.9408 0
    endloop
  endfacet
  facet normal -0 0 1
    outer loop
      vertex -16.0748 25.3298 0
      vertex -1.73099 2.99817 0
      vertex -12.7734 27.1448 0
    endloop
  endfacet
  facet normal 0 0 1
    outer loop
      vertex -1.73099 -2.99817 0
      vertex -9.27051 -28.5317 0
      vertex -5.62144 -29.4686 0
    endloop
  endfacet
  facet normal -0 0 1
    outer loop
      vertex -19.1227 23.1154 0
      vertex -1.73099 2.99817 0
      vertex -16.0748 25.3298 0
    endloop
  endfacet
  facet normal 0 0 1
    outer loop
      vertex -1.73099 -2.99817 0
      vertex -12.7734 -27.1448 0
      vertex -9.27051 -28.5317 0
    endloop
  endfacet
  facet normal -0 0 1
    outer loop
      vertex -21.8691 20.5364 0
      vertex -1.73099 2.99817 0
      vertex -19.1227 23.1154 0
    endloop
  endfacet
  facet normal 0 0 1
    outer loop
      vertex -1.73099 -2.99817 0
      vertex -16.0748 -25.3298 0
      vertex -12.7734 -27.1448 0
    endloop
  endfacet
  facet normal -0 0 1
    outer loop
      vertex -24.2705 17.6336 0
      vertex -1.73099 2.99817 0
      vertex -21.8691 20.5364 0
    endloop
  endfacet
  facet normal 0 0 1
    outer loop
      vertex -1.73099 -2.99817 0
      vertex -19.1227 -23.1154 0
      vertex -16.0748 -25.3298 0
    endloop
  endfacet
  facet normal -0 0 1
    outer loop
      vertex -26.2892 14.4526 0
      vertex -1.73099 2.99817 0
      vertex -24.2705 17.6336 0
    endloop
  endfacet
  facet normal 0 0 1
    outer loop
      vertex -1.73099 -2.99817 0
      vertex -21.8691 -20.5364 0
      vertex -19.1227 -23.1154 0
    endloop
  endfacet
  facet normal 0 0 1
    outer loop
      vertex -1.73099 2.99817 0
      vertex -26.2892 14.4526 0
      vertex -3.46199 0 0
    endloop
  endfacet
  facet normal 0 0 1
    outer loop
      vertex -1.73099 -2.99817 0
      vertex -24.2705 -17.6336 0
      vertex -21.8691 -20.5364 0
    endloop
  endfacet
  facet normal -0 0 1
    outer loop
      vertex -27.8933 11.0437 0
      vertex -3.46199 0 0
      vertex -26.2892 14.4526 0
    endloop
  endfacet
  facet normal 0 0 1
    outer loop
      vertex -1.73099 -2.99817 0
      vertex -26.2892 -14.4526 0
      vertex -24.2705 -17.6336 0
    endloop
  endfacet
  facet normal -0 0 1
    outer loop
      vertex -29.0575 7.4607 0
      vertex -3.46199 0 0
      vertex -27.8933 11.0437 0
    endloop
  endfacet
  facet normal 0 0 1
    outer loop
      vertex -3.46199 0 0
      vertex -27.8933 -11.0437 0
      vertex -26.2892 -14.4526 0
    endloop
  endfacet
  facet normal -0 0 1
    outer loop
      vertex -29.7634 3.76 0
      vertex -3.46199 0 0
      vertex -29.0575 7.4607 0
    endloop
  endfacet
  facet normal 0 0 1
    outer loop
      vertex -3.46199 0 0
      vertex -29.0575 -7.4607 0
      vertex -27.8933 -11.0437 0
    endloop
  endfacet
  facet normal 0 0 1
    outer loop
      vertex -30 0 0
      vertex -3.46199 0 0
      vertex -29.7634 3.76 0
    endloop
  endfacet
  facet normal 0 0 1
    outer loop
      vertex -3.46199 0 0
      vertex -29.7634 -3.76 0
      vertex -29.0575 -7.4607 0
    endloop
  endfacet
  facet normal 0 0 1
    outer loop
      vertex -3.46199 0 0
      vertex -30 0 0
      vertex -29.7634 -3.76 0
    endloop
  endfacet
  facet normal 0 -1 0
    outer loop
      vertex -1.73099 2.99817 -2.5
      vertex 1.73099 2.99817 0
      vertex -1.73099 2.99817 0
    endloop
  endfacet
  facet normal 0 -1 -0
    outer loop
      vertex 1.73099 2.99817 0
      vertex -1.73099 2.99817 -2.5
      vertex 1.73099 2.99817 -2.5
    endloop
  endfacet
  facet normal 0.866025 0.500001 0
    outer loop
      vertex -1.73099 -2.99817 0
      vertex -3.46199 0 -2.5
      vertex -3.46199 0 0
    endloop
  endfacet
  facet normal 0.866025 0.500001 0
    outer loop
      vertex -3.46199 0 -2.5
      vertex -1.73099 -2.99817 0
      vertex -1.73099 -2.99817 -2.5
    endloop
  endfacet
  facet normal 0.866025 -0.500001 0
    outer loop
      vertex -3.46199 0 0
      vertex -1.73099 2.99817 -2.5
      vertex -1.73099 2.99817 0
    endloop
  endfacet
  facet normal 0.866025 -0.500001 0
    outer loop
      vertex -1.73099 2.99817 -2.5
      vertex -3.46199 0 0
      vertex -3.46199 0 -2.5
    endloop
  endfacet
  facet normal 0.951059 -0.309009 0
    outer loop
      vertex -1.74345 0.447641 -2.5
      vertex -1.6736 0.662623 -4.5
      vertex -1.6736 0.662623 -2.5
    endloop
  endfacet
  facet normal 0.951059 -0.309009 0
    outer loop
      vertex -1.6736 0.662623 -4.5
      vertex -1.74345 0.447641 -2.5
      vertex -1.74345 0.447641 -4.5
    endloop
  endfacet
  facet normal -0.844327 -0.535828 0
    outer loop
      vertex 1.57735 0.867156 -4.5
      vertex 1.45623 1.05801 -2.5
      vertex 1.45623 1.05801 -4.5
    endloop
  endfacet
  facet normal -0.844327 -0.535828 0
    outer loop
      vertex 1.45623 1.05801 -2.5
      vertex 1.57735 0.867156 -4.5
      vertex 1.57735 0.867156 -2.5
    endloop
  endfacet
  facet normal -0.248708 -0.968578 0
    outer loop
      vertex 0.337286 1.76812 -4.5
      vertex 0.556231 1.7119 -2.5
      vertex 0.337286 1.76812 -2.5
    endloop
  endfacet
  facet normal -0.248708 -0.968578 -0
    outer loop
      vertex 0.556231 1.7119 -2.5
      vertex 0.337286 1.76812 -4.5
      vertex 0.556231 1.7119 -4.5
    endloop
  endfacet
  facet normal -0.368115 -0.92978 0
    outer loop
      vertex 0.556231 1.7119 -4.5
      vertex 0.766402 1.62869 -2.5
      vertex 0.556231 1.7119 -2.5
    endloop
  endfacet
  facet normal -0.368115 -0.92978 -0
    outer loop
      vertex 0.766402 1.62869 -2.5
      vertex 0.556231 1.7119 -4.5
      vertex 0.766402 1.62869 -4.5
    endloop
  endfacet
  facet normal 0.368115 -0.92978 0
    outer loop
      vertex -0.766402 1.62869 -4.5
      vertex -0.556231 1.7119 -2.5
      vertex -0.766402 1.62869 -2.5
    endloop
  endfacet
  facet normal 0.368115 -0.92978 0
    outer loop
      vertex -0.556231 1.7119 -2.5
      vertex -0.766402 1.62869 -4.5
      vertex -0.556231 1.7119 -4.5
    endloop
  endfacet
  facet normal 0.90482 -0.425794 0
    outer loop
      vertex -1.6736 0.662623 -2.5
      vertex -1.57735 0.867156 -4.5
      vertex -1.57735 0.867156 -2.5
    endloop
  endfacet
  facet normal 0.90482 -0.425794 0
    outer loop
      vertex -1.57735 0.867156 -4.5
      vertex -1.6736 0.662623 -2.5
      vertex -1.6736 0.662623 -4.5
    endloop
  endfacet
  facet normal -0.982285 0.187395 0
    outer loop
      vertex 1.74345 -0.447641 -4.5
      vertex 1.78581 -0.225599 -2.5
      vertex 1.78581 -0.225599 -4.5
    endloop
  endfacet
  facet normal -0.982285 0.187395 0
    outer loop
      vertex 1.78581 -0.225599 -2.5
      vertex 1.74345 -0.447641 -4.5
      vertex 1.74345 -0.447641 -2.5
    endloop
  endfacet
  facet normal -0.982285 -0.187395 0
    outer loop
      vertex 1.78581 0.225599 -4.5
      vertex 1.74345 0.447641 -2.5
      vertex 1.74345 0.447641 -4.5
    endloop
  endfacet
  facet normal -0.982285 -0.187395 0
    outer loop
      vertex 1.74345 0.447641 -2.5
      vertex 1.78581 0.225599 -4.5
      vertex 1.78581 0.225599 -2.5
    endloop
  endfacet
  facet normal -0.68455 -0.728966 0
    outer loop
      vertex 1.14736 1.38692 -4.5
      vertex 1.31214 1.23218 -2.5
      vertex 1.14736 1.38692 -2.5
    endloop
  endfacet
  facet normal -0.68455 -0.728966 -0
    outer loop
      vertex 1.31214 1.23218 -2.5
      vertex 1.14736 1.38692 -4.5
      vertex 1.31214 1.23218 -4.5
    endloop
  endfacet
  facet normal -0.125329 -0.992115 0
    outer loop
      vertex 0.113023 1.79645 -4.5
      vertex 0.337286 1.76812 -2.5
      vertex 0.113023 1.79645 -2.5
    endloop
  endfacet
  facet normal -0.125329 -0.992115 -0
    outer loop
      vertex 0.337286 1.76812 -2.5
      vertex 0.113023 1.79645 -4.5
      vertex 0.337286 1.76812 -4.5
    endloop
  endfacet
  facet normal -0.587802 -0.809005 0
    outer loop
      vertex 0.964488 1.51979 -4.5
      vertex 1.14736 1.38692 -2.5
      vertex 0.964488 1.51979 -2.5
    endloop
  endfacet
  facet normal -0.587802 -0.809005 -0
    outer loop
      vertex 1.14736 1.38692 -2.5
      vertex 0.964488 1.51979 -4.5
      vertex 1.14736 1.38692 -4.5
    endloop
  endfacet
  facet normal 0.982285 -0.187395 0
    outer loop
      vertex -1.78581 0.225599 -2.5
      vertex -1.74345 0.447641 -4.5
      vertex -1.74345 0.447641 -2.5
    endloop
  endfacet
  facet normal 0.982285 -0.187395 0
    outer loop
      vertex -1.74345 0.447641 -4.5
      vertex -1.78581 0.225599 -2.5
      vertex -1.78581 0.225599 -4.5
    endloop
  endfacet
  facet normal 0.770504 -0.637435 0
    outer loop
      vertex -1.45623 1.05801 -2.5
      vertex -1.31214 1.23218 -4.5
      vertex -1.31214 1.23218 -2.5
    endloop
  endfacet
  facet normal 0.770504 -0.637435 0
    outer loop
      vertex -1.31214 1.23218 -4.5
      vertex -1.45623 1.05801 -2.5
      vertex -1.45623 1.05801 -4.5
    endloop
  endfacet
  facet normal 0.248708 -0.968578 0
    outer loop
      vertex -0.556231 1.7119 -4.5
      vertex -0.337286 1.76812 -2.5
      vertex -0.556231 1.7119 -2.5
    endloop
  endfacet
  facet normal 0.248708 -0.968578 0
    outer loop
      vertex -0.337286 1.76812 -2.5
      vertex -0.556231 1.7119 -4.5
      vertex -0.337286 1.76812 -4.5
    endloop
  endfacet
  facet normal 0.68455 -0.728966 0
    outer loop
      vertex -1.31214 1.23218 -4.5
      vertex -1.14736 1.38692 -2.5
      vertex -1.31214 1.23218 -2.5
    endloop
  endfacet
  facet normal 0.68455 -0.728966 0
    outer loop
      vertex -1.14736 1.38692 -2.5
      vertex -1.31214 1.23218 -4.5
      vertex -1.14736 1.38692 -4.5
    endloop
  endfacet
  facet normal -0.998028 -0.0627752 0
    outer loop
      vertex 1.8 0 -4.5
      vertex 1.78581 0.225599 -2.5
      vertex 1.78581 0.225599 -4.5
    endloop
  endfacet
  facet normal -0.998028 -0.0627752 0
    outer loop
      vertex 1.78581 0.225599 -2.5
      vertex 1.8 0 -4.5
      vertex 1.8 0 -2.5
    endloop
  endfacet
  facet normal -0.481758 0.876304 0
    outer loop
      vertex 0.964488 -1.51979 -4.5
      vertex 0.766402 -1.62869 -2.5
      vertex 0.964488 -1.51979 -2.5
    endloop
  endfacet
  facet normal -0.481758 0.876304 0
    outer loop
      vertex 0.766402 -1.62869 -2.5
      vertex 0.964488 -1.51979 -4.5
      vertex 0.766402 -1.62869 -4.5
    endloop
  endfacet
  facet normal -0.770504 -0.637435 0
    outer loop
      vertex 1.45623 1.05801 -4.5
      vertex 1.31214 1.23218 -2.5
      vertex 1.31214 1.23218 -4.5
    endloop
  endfacet
  facet normal -0.770504 -0.637435 0
    outer loop
      vertex 1.31214 1.23218 -2.5
      vertex 1.45623 1.05801 -4.5
      vertex 1.45623 1.05801 -2.5
    endloop
  endfacet
  facet normal 0 -1 0
    outer loop
      vertex -0.113023 1.79645 -4.5
      vertex 0.113023 1.79645 -2.5
      vertex -0.113023 1.79645 -2.5
    endloop
  endfacet
  facet normal 0 -1 -0
    outer loop
      vertex 0.113023 1.79645 -2.5
      vertex -0.113023 1.79645 -4.5
      vertex 0.113023 1.79645 -4.5
    endloop
  endfacet
  facet normal -0.481758 -0.876304 0
    outer loop
      vertex 0.766402 1.62869 -4.5
      vertex 0.964488 1.51979 -2.5
      vertex 0.766402 1.62869 -2.5
    endloop
  endfacet
  facet normal -0.481758 -0.876304 -0
    outer loop
      vertex 0.964488 1.51979 -2.5
      vertex 0.766402 1.62869 -4.5
      vertex 0.964488 1.51979 -4.5
    endloop
  endfacet
  facet normal 0.998028 -0.0627752 0
    outer loop
      vertex -1.8 0 -2.5
      vertex -1.78581 0.225599 -4.5
      vertex -1.78581 0.225599 -2.5
    endloop
  endfacet
  facet normal 0.998028 -0.0627752 0
    outer loop
      vertex -1.78581 0.225599 -4.5
      vertex -1.8 0 -2.5
      vertex -1.8 0 -4.5
    endloop
  endfacet
  facet normal 0.844327 -0.535828 0
    outer loop
      vertex -1.57735 0.867156 -2.5
      vertex -1.45623 1.05801 -4.5
      vertex -1.45623 1.05801 -2.5
    endloop
  endfacet
  facet normal 0.844327 -0.535828 0
    outer loop
      vertex -1.45623 1.05801 -4.5
      vertex -1.57735 0.867156 -2.5
      vertex -1.57735 0.867156 -4.5
    endloop
  endfacet
  facet normal 0.125329 -0.992115 0
    outer loop
      vertex -0.337286 1.76812 -4.5
      vertex -0.113023 1.79645 -2.5
      vertex -0.337286 1.76812 -2.5
    endloop
  endfacet
  facet normal 0.125329 -0.992115 0
    outer loop
      vertex -0.113023 1.79645 -2.5
      vertex -0.337286 1.76812 -4.5
      vertex -0.113023 1.79645 -4.5
    endloop
  endfacet
  facet normal 0.587802 -0.809005 0
    outer loop
      vertex -1.14736 1.38692 -4.5
      vertex -0.964488 1.51979 -2.5
      vertex -1.14736 1.38692 -2.5
    endloop
  endfacet
  facet normal 0.587802 -0.809005 0
    outer loop
      vertex -0.964488 1.51979 -2.5
      vertex -1.14736 1.38692 -4.5
      vertex -0.964488 1.51979 -4.5
    endloop
  endfacet
  facet normal 0.481758 -0.876304 0
    outer loop
      vertex -0.964488 1.51979 -4.5
      vertex -0.766402 1.62869 -2.5
      vertex -0.964488 1.51979 -2.5
    endloop
  endfacet
  facet normal 0.481758 -0.876304 0
    outer loop
      vertex -0.766402 1.62869 -2.5
      vertex -0.964488 1.51979 -4.5
      vertex -0.766402 1.62869 -4.5
    endloop
  endfacet
  facet normal -0.998028 0.0627752 0
    outer loop
      vertex 1.78581 -0.225599 -4.5
      vertex 1.8 0 -2.5
      vertex 1.8 0 -4.5
    endloop
  endfacet
  facet normal -0.998028 0.0627752 0
    outer loop
      vertex 1.8 0 -2.5
      vertex 1.78581 -0.225599 -4.5
      vertex 1.78581 -0.225599 -2.5
    endloop
  endfacet
  facet normal 0.90482 0.425794 0
    outer loop
      vertex -1.57735 -0.867156 -2.5
      vertex -1.6736 -0.662623 -4.5
      vertex -1.6736 -0.662623 -2.5
    endloop
  endfacet
  facet normal 0.90482 0.425794 0
    outer loop
      vertex -1.6736 -0.662623 -4.5
      vertex -1.57735 -0.867156 -2.5
      vertex -1.57735 -0.867156 -4.5
    endloop
  endfacet
  facet normal -0.125329 0.992115 0
    outer loop
      vertex 0.337286 -1.76812 -4.5
      vertex 0.113023 -1.79645 -2.5
      vertex 0.337286 -1.76812 -2.5
    endloop
  endfacet
  facet normal -0.125329 0.992115 0
    outer loop
      vertex 0.113023 -1.79645 -2.5
      vertex 0.337286 -1.76812 -4.5
      vertex 0.113023 -1.79645 -4.5
    endloop
  endfacet
  facet normal -0.368115 0.92978 0
    outer loop
      vertex 0.766402 -1.62869 -4.5
      vertex 0.556231 -1.7119 -2.5
      vertex 0.766402 -1.62869 -2.5
    endloop
  endfacet
  facet normal -0.368115 0.92978 0
    outer loop
      vertex 0.556231 -1.7119 -2.5
      vertex 0.766402 -1.62869 -4.5
      vertex 0.556231 -1.7119 -4.5
    endloop
  endfacet
  facet normal -0.90482 -0.425794 0
    outer loop
      vertex 1.6736 0.662623 -4.5
      vertex 1.57735 0.867156 -2.5
      vertex 1.57735 0.867156 -4.5
    endloop
  endfacet
  facet normal -0.90482 -0.425794 0
    outer loop
      vertex 1.57735 0.867156 -2.5
      vertex 1.6736 0.662623 -4.5
      vertex 1.6736 0.662623 -2.5
    endloop
  endfacet
  facet normal -0.951059 -0.309009 0
    outer loop
      vertex 1.74345 0.447641 -4.5
      vertex 1.6736 0.662623 -2.5
      vertex 1.6736 0.662623 -4.5
    endloop
  endfacet
  facet normal -0.951059 -0.309009 0
    outer loop
      vertex 1.6736 0.662623 -2.5
      vertex 1.74345 0.447641 -4.5
      vertex 1.74345 0.447641 -2.5
    endloop
  endfacet
  facet normal -0.90482 0.425794 0
    outer loop
      vertex 1.57735 -0.867156 -4.5
      vertex 1.6736 -0.662623 -2.5
      vertex 1.6736 -0.662623 -4.5
    endloop
  endfacet
  facet normal -0.90482 0.425794 0
    outer loop
      vertex 1.6736 -0.662623 -2.5
      vertex 1.57735 -0.867156 -4.5
      vertex 1.57735 -0.867156 -2.5
    endloop
  endfacet
  facet normal -0.951059 0.309009 0
    outer loop
      vertex 1.6736 -0.662623 -4.5
      vertex 1.74345 -0.447641 -2.5
      vertex 1.74345 -0.447641 -4.5
    endloop
  endfacet
  facet normal -0.951059 0.309009 0
    outer loop
      vertex 1.74345 -0.447641 -2.5
      vertex 1.6736 -0.662623 -4.5
      vertex 1.6736 -0.662623 -2.5
    endloop
  endfacet
  facet normal -0.68455 0.728966 0
    outer loop
      vertex 1.31214 -1.23218 -4.5
      vertex 1.14736 -1.38692 -2.5
      vertex 1.31214 -1.23218 -2.5
    endloop
  endfacet
  facet normal -0.68455 0.728966 0
    outer loop
      vertex 1.14736 -1.38692 -2.5
      vertex 1.31214 -1.23218 -4.5
      vertex 1.14736 -1.38692 -4.5
    endloop
  endfacet
  facet normal -0.770504 0.637435 0
    outer loop
      vertex 1.31214 -1.23218 -4.5
      vertex 1.45623 -1.05801 -2.5
      vertex 1.45623 -1.05801 -4.5
    endloop
  endfacet
  facet normal -0.770504 0.637435 0
    outer loop
      vertex 1.45623 -1.05801 -2.5
      vertex 1.31214 -1.23218 -4.5
      vertex 1.31214 -1.23218 -2.5
    endloop
  endfacet
  facet normal -0.844327 0.535828 0
    outer loop
      vertex 1.45623 -1.05801 -4.5
      vertex 1.57735 -0.867156 -2.5
      vertex 1.57735 -0.867156 -4.5
    endloop
  endfacet
  facet normal -0.844327 0.535828 0
    outer loop
      vertex 1.57735 -0.867156 -2.5
      vertex 1.45623 -1.05801 -4.5
      vertex 1.45623 -1.05801 -2.5
    endloop
  endfacet
  facet normal 0.248708 0.968578 -0
    outer loop
      vertex -0.337286 -1.76812 -4.5
      vertex -0.556231 -1.7119 -2.5
      vertex -0.337286 -1.76812 -2.5
    endloop
  endfacet
  facet normal 0.248708 0.968578 0
    outer loop
      vertex -0.556231 -1.7119 -2.5
      vertex -0.337286 -1.76812 -4.5
      vertex -0.556231 -1.7119 -4.5
    endloop
  endfacet
  facet normal 0.125329 0.992115 -0
    outer loop
      vertex -0.113023 -1.79645 -4.5
      vertex -0.337286 -1.76812 -2.5
      vertex -0.113023 -1.79645 -2.5
    endloop
  endfacet
  facet normal 0.125329 0.992115 0
    outer loop
      vertex -0.337286 -1.76812 -2.5
      vertex -0.113023 -1.79645 -4.5
      vertex -0.337286 -1.76812 -4.5
    endloop
  endfacet
  facet normal 0.998028 0.0627752 0
    outer loop
      vertex -1.78581 -0.225599 -2.5
      vertex -1.8 0 -4.5
      vertex -1.8 0 -2.5
    endloop
  endfacet
  facet normal 0.998028 0.0627752 0
    outer loop
      vertex -1.8 0 -4.5
      vertex -1.78581 -0.225599 -2.5
      vertex -1.78581 -0.225599 -4.5
    endloop
  endfacet
  facet normal 0.844327 0.535828 0
    outer loop
      vertex -1.45623 -1.05801 -2.5
      vertex -1.57735 -0.867156 -4.5
      vertex -1.57735 -0.867156 -2.5
    endloop
  endfacet
  facet normal 0.844327 0.535828 0
    outer loop
      vertex -1.57735 -0.867156 -4.5
      vertex -1.45623 -1.05801 -2.5
      vertex -1.45623 -1.05801 -4.5
    endloop
  endfacet
  facet normal 0.951059 0.309009 0
    outer loop
      vertex -1.6736 -0.662623 -2.5
      vertex -1.74345 -0.447641 -4.5
      vertex -1.74345 -0.447641 -2.5
    endloop
  endfacet
  facet normal 0.951059 0.309009 0
    outer loop
      vertex -1.74345 -0.447641 -4.5
      vertex -1.6736 -0.662623 -2.5
      vertex -1.6736 -0.662623 -4.5
    endloop
  endfacet
  facet normal -0.248708 0.968578 0
    outer loop
      vertex 0.556231 -1.7119 -4.5
      vertex 0.337286 -1.76812 -2.5
      vertex 0.556231 -1.7119 -2.5
    endloop
  endfacet
  facet normal -0.248708 0.968578 0
    outer loop
      vertex 0.337286 -1.76812 -2.5
      vertex 0.556231 -1.7119 -4.5
      vertex 0.337286 -1.76812 -4.5
    endloop
  endfacet
  facet normal -0.587802 0.809005 0
    outer loop
      vertex 1.14736 -1.38692 -4.5
      vertex 0.964488 -1.51979 -2.5
      vertex 1.14736 -1.38692 -2.5
    endloop
  endfacet
  facet normal -0.587802 0.809005 0
    outer loop
      vertex 0.964488 -1.51979 -2.5
      vertex 1.14736 -1.38692 -4.5
      vertex 0.964488 -1.51979 -4.5
    endloop
  endfacet
  facet normal 0.587802 0.809005 -0
    outer loop
      vertex -0.964488 -1.51979 -4.5
      vertex -1.14736 -1.38692 -2.5
      vertex -0.964488 -1.51979 -2.5
    endloop
  endfacet
  facet normal 0.587802 0.809005 0
    outer loop
      vertex -1.14736 -1.38692 -2.5
      vertex -0.964488 -1.51979 -4.5
      vertex -1.14736 -1.38692 -4.5
    endloop
  endfacet
  facet normal 0 1 -0
    outer loop
      vertex 0.113023 -1.79645 -4.5
      vertex -0.113023 -1.79645 -2.5
      vertex 0.113023 -1.79645 -2.5
    endloop
  endfacet
  facet normal 0 1 0
    outer loop
      vertex -0.113023 -1.79645 -2.5
      vertex 0.113023 -1.79645 -4.5
      vertex -0.113023 -1.79645 -4.5
    endloop
  endfacet
  facet normal 0.68455 0.728966 -0
    outer loop
      vertex -1.14736 -1.38692 -4.5
      vertex -1.31214 -1.23218 -2.5
      vertex -1.14736 -1.38692 -2.5
    endloop
  endfacet
  facet normal 0.68455 0.728966 0
    outer loop
      vertex -1.31214 -1.23218 -2.5
      vertex -1.14736 -1.38692 -4.5
      vertex -1.31214 -1.23218 -4.5
    endloop
  endfacet
  facet normal 0.982285 0.187395 0
    outer loop
      vertex -1.74345 -0.447641 -2.5
      vertex -1.78581 -0.225599 -4.5
      vertex -1.78581 -0.225599 -2.5
    endloop
  endfacet
  facet normal 0.982285 0.187395 0
    outer loop
      vertex -1.78581 -0.225599 -4.5
      vertex -1.74345 -0.447641 -2.5
      vertex -1.74345 -0.447641 -4.5
    endloop
  endfacet
  facet normal 0.481758 0.876304 -0
    outer loop
      vertex -0.766402 -1.62869 -4.5
      vertex -0.964488 -1.51979 -2.5
      vertex -0.766402 -1.62869 -2.5
    endloop
  endfacet
  facet normal 0.481758 0.876304 0
    outer loop
      vertex -0.964488 -1.51979 -2.5
      vertex -0.766402 -1.62869 -4.5
      vertex -0.964488 -1.51979 -4.5
    endloop
  endfacet
  facet normal 0.368115 0.92978 -0
    outer loop
      vertex -0.556231 -1.7119 -4.5
      vertex -0.766402 -1.62869 -2.5
      vertex -0.556231 -1.7119 -2.5
    endloop
  endfacet
  facet normal 0.368115 0.92978 0
    outer loop
      vertex -0.766402 -1.62869 -2.5
      vertex -0.556231 -1.7119 -4.5
      vertex -0.766402 -1.62869 -4.5
    endloop
  endfacet
  facet normal 0.770504 0.637435 0
    outer loop
      vertex -1.31214 -1.23218 -2.5
      vertex -1.45623 -1.05801 -4.5
      vertex -1.45623 -1.05801 -2.5
    endloop
  endfacet
  facet normal 0.770504 0.637435 0
    outer loop
      vertex -1.45623 -1.05801 -4.5
      vertex -1.31214 -1.23218 -2.5
      vertex -1.31214 -1.23218 -4.5
    endloop
  endfacet
  facet normal 0.998026 0.0628013 0
    outer loop
      vertex 30 0 0
      vertex 29.7634 3.76 -4.5
      vertex 29.7634 3.76 0
    endloop
  endfacet
  facet normal 0.998026 0.0628013 0
    outer loop
      vertex 29.7634 3.76 -4.5
      vertex 30 0 0
      vertex 30 0 -4.5
    endloop
  endfacet
  facet normal -0.998026 0.0628013 0
    outer loop
      vertex -30 0 -4.5
      vertex -29.7634 3.76 0
      vertex -29.7634 3.76 -4.5
    endloop
  endfacet
  facet normal -0.998026 0.0628013 0
    outer loop
      vertex -29.7634 3.76 0
      vertex -30 0 -4.5
      vertex -30 0 0
    endloop
  endfacet
  facet normal 0 1 -0
    outer loop
      vertex 1.88371 29.9408 -4.5
      vertex -1.88371 29.9408 0
      vertex 1.88371 29.9408 0
    endloop
  endfacet
  facet normal 0 1 0
    outer loop
      vertex -1.88371 29.9408 0
      vertex 1.88371 29.9408 -4.5
      vertex -1.88371 29.9408 -4.5
    endloop
  endfacet
  facet normal 0 -1 0
    outer loop
      vertex -1.88371 -29.9408 -4.5
      vertex 1.88371 -29.9408 0
      vertex -1.88371 -29.9408 0
    endloop
  endfacet
  facet normal 0 -1 -0
    outer loop
      vertex 1.88371 -29.9408 0
      vertex -1.88371 -29.9408 -4.5
      vertex 1.88371 -29.9408 -4.5
    endloop
  endfacet
  facet normal 0.684541 0.728974 -0
    outer loop
      vertex 21.8691 20.5364 -4.5
      vertex 19.1227 23.1154 0
      vertex 21.8691 20.5364 0
    endloop
  endfacet
  facet normal 0.684541 0.728974 0
    outer loop
      vertex 19.1227 23.1154 0
      vertex 21.8691 20.5364 -4.5
      vertex 19.1227 23.1154 -4.5
    endloop
  endfacet
  facet normal -0.684541 0.728974 0
    outer loop
      vertex -19.1227 23.1154 -4.5
      vertex -21.8691 20.5364 0
      vertex -19.1227 23.1154 0
    endloop
  endfacet
  facet normal -0.684541 0.728974 0
    outer loop
      vertex -21.8691 20.5364 0
      vertex -19.1227 23.1154 -4.5
      vertex -21.8691 20.5364 -4.5
    endloop
  endfacet
  facet normal -0.368126 0.929776 0
    outer loop
      vertex -9.27051 28.5317 -4.5
      vertex -12.7734 27.1448 0
      vertex -9.27051 28.5317 0
    endloop
  endfacet
  facet normal -0.368126 0.929776 0
    outer loop
      vertex -12.7734 27.1448 0
      vertex -9.27051 28.5317 -4.5
      vertex -12.7734 27.1448 -4.5
    endloop
  endfacet
  facet normal 0.904828 -0.425778 0
    outer loop
      vertex 26.2892 -14.4526 0
      vertex 27.8933 -11.0437 -4.5
      vertex 27.8933 -11.0437 0
    endloop
  endfacet
  facet normal 0.904828 -0.425778 0
    outer loop
      vertex 27.8933 -11.0437 -4.5
      vertex 26.2892 -14.4526 0
      vertex 26.2892 -14.4526 -4.5
    endloop
  endfacet
  facet normal 0.904828 0.425778 0
    outer loop
      vertex 27.8933 11.0437 0
      vertex 26.2892 14.4526 -4.5
      vertex 26.2892 14.4526 0
    endloop
  endfacet
  facet normal 0.904828 0.425778 0
    outer loop
      vertex 26.2892 14.4526 -4.5
      vertex 27.8933 11.0437 0
      vertex 27.8933 11.0437 -4.5
    endloop
  endfacet
  facet normal 0.844331 0.535822 0
    outer loop
      vertex 26.2892 14.4526 0
      vertex 24.2705 17.6336 -4.5
      vertex 24.2705 17.6336 0
    endloop
  endfacet
  facet normal 0.844331 0.535822 0
    outer loop
      vertex 24.2705 17.6336 -4.5
      vertex 26.2892 14.4526 0
      vertex 26.2892 14.4526 -4.5
    endloop
  endfacet
  facet normal 0.368126 0.929776 -0
    outer loop
      vertex 12.7734 27.1448 -4.5
      vertex 9.27051 28.5317 0
      vertex 12.7734 27.1448 0
    endloop
  endfacet
  facet normal 0.368126 0.929776 0
    outer loop
      vertex 9.27051 28.5317 0
      vertex 12.7734 27.1448 -4.5
      vertex 9.27051 28.5317 -4.5
    endloop
  endfacet
  facet normal 0.248684 0.968585 -0
    outer loop
      vertex 9.27051 28.5317 -4.5
      vertex 5.62144 29.4686 0
      vertex 9.27051 28.5317 0
    endloop
  endfacet
  facet normal 0.248684 0.968585 0
    outer loop
      vertex 5.62144 29.4686 0
      vertex 9.27051 28.5317 -4.5
      vertex 5.62144 29.4686 -4.5
    endloop
  endfacet
  facet normal 0.58778 0.809021 -0
    outer loop
      vertex 19.1227 23.1154 -4.5
      vertex 16.0748 25.3298 0
      vertex 19.1227 23.1154 0
    endloop
  endfacet
  facet normal 0.58778 0.809021 0
    outer loop
      vertex 16.0748 25.3298 0
      vertex 19.1227 23.1154 -4.5
      vertex 16.0748 25.3298 -4.5
    endloop
  endfacet
  facet normal -0.904828 0.425778 0
    outer loop
      vertex -27.8933 11.0437 -4.5
      vertex -26.2892 14.4526 0
      vertex -26.2892 14.4526 -4.5
    endloop
  endfacet
  facet normal -0.904828 0.425778 0
    outer loop
      vertex -26.2892 14.4526 0
      vertex -27.8933 11.0437 -4.5
      vertex -27.8933 11.0437 0
    endloop
  endfacet
  facet normal -0.770514 0.637423 0
    outer loop
      vertex -24.2705 17.6336 -4.5
      vertex -21.8691 20.5364 0
      vertex -21.8691 20.5364 -4.5
    endloop
  endfacet
  facet normal -0.770514 0.637423 0
    outer loop
      vertex -21.8691 20.5364 0
      vertex -24.2705 17.6336 -4.5
      vertex -24.2705 17.6336 0
    endloop
  endfacet
  facet normal -0.951056 0.30902 0
    outer loop
      vertex -29.0575 7.4607 -4.5
      vertex -27.8933 11.0437 0
      vertex -27.8933 11.0437 -4.5
    endloop
  endfacet
  facet normal -0.951056 0.30902 0
    outer loop
      vertex -27.8933 11.0437 0
      vertex -29.0575 7.4607 -4.5
      vertex -29.0575 7.4607 0
    endloop
  endfacet
  facet normal -0.481762 0.876302 0
    outer loop
      vertex -12.7734 27.1448 -4.5
      vertex -16.0748 25.3298 0
      vertex -12.7734 27.1448 0
    endloop
  endfacet
  facet normal -0.481762 0.876302 0
    outer loop
      vertex -16.0748 25.3298 0
      vertex -12.7734 27.1448 -4.5
      vertex -16.0748 25.3298 -4.5
    endloop
  endfacet
  facet normal -0.248684 0.968585 0
    outer loop
      vertex -5.62144 29.4686 -4.5
      vertex -9.27051 28.5317 0
      vertex -5.62144 29.4686 0
    endloop
  endfacet
  facet normal -0.248684 0.968585 0
    outer loop
      vertex -9.27051 28.5317 0
      vertex -5.62144 29.4686 -4.5
      vertex -9.27051 28.5317 -4.5
    endloop
  endfacet
  facet normal 0.125337 -0.992114 0
    outer loop
      vertex 1.88371 -29.9408 -4.5
      vertex 5.62144 -29.4686 0
      vertex 1.88371 -29.9408 0
    endloop
  endfacet
  facet normal 0.125337 -0.992114 0
    outer loop
      vertex 5.62144 -29.4686 0
      vertex 1.88371 -29.9408 -4.5
      vertex 5.62144 -29.4686 -4.5
    endloop
  endfacet
  facet normal 0.368126 -0.929776 0
    outer loop
      vertex 9.27051 -28.5317 -4.5
      vertex 12.7734 -27.1448 0
      vertex 9.27051 -28.5317 0
    endloop
  endfacet
  facet normal 0.368126 -0.929776 0
    outer loop
      vertex 12.7734 -27.1448 0
      vertex 9.27051 -28.5317 -4.5
      vertex 12.7734 -27.1448 -4.5
    endloop
  endfacet
  facet normal 0.951056 0.30902 0
    outer loop
      vertex 29.0575 7.4607 0
      vertex 27.8933 11.0437 -4.5
      vertex 27.8933 11.0437 0
    endloop
  endfacet
  facet normal 0.951056 0.30902 0
    outer loop
      vertex 27.8933 11.0437 -4.5
      vertex 29.0575 7.4607 0
      vertex 29.0575 7.4607 -4.5
    endloop
  endfacet
  facet normal 0.98229 0.187369 0
    outer loop
      vertex 29.7634 3.76 0
      vertex 29.0575 7.4607 -4.5
      vertex 29.0575 7.4607 0
    endloop
  endfacet
  facet normal 0.98229 0.187369 0
    outer loop
      vertex 29.0575 7.4607 -4.5
      vertex 29.7634 3.76 0
      vertex 29.7634 3.76 -4.5
    endloop
  endfacet
  facet normal 0.770514 0.637423 0
    outer loop
      vertex 24.2705 17.6336 0
      vertex 21.8691 20.5364 -4.5
      vertex 21.8691 20.5364 0
    endloop
  endfacet
  facet normal 0.770514 0.637423 0
    outer loop
      vertex 21.8691 20.5364 -4.5
      vertex 24.2705 17.6336 0
      vertex 24.2705 17.6336 -4.5
    endloop
  endfacet
  facet normal 0.125337 0.992114 -0
    outer loop
      vertex 5.62144 29.4686 -4.5
      vertex 1.88371 29.9408 0
      vertex 5.62144 29.4686 0
    endloop
  endfacet
  facet normal 0.125337 0.992114 0
    outer loop
      vertex 1.88371 29.9408 0
      vertex 5.62144 29.4686 -4.5
      vertex 1.88371 29.9408 -4.5
    endloop
  endfacet
  facet normal 0.481762 0.876302 -0
    outer loop
      vertex 16.0748 25.3298 -4.5
      vertex 12.7734 27.1448 0
      vertex 16.0748 25.3298 0
    endloop
  endfacet
  facet normal 0.481762 0.876302 0
    outer loop
      vertex 12.7734 27.1448 0
      vertex 16.0748 25.3298 -4.5
      vertex 12.7734 27.1448 -4.5
    endloop
  endfacet
  facet normal -0.844331 0.535822 0
    outer loop
      vertex -26.2892 14.4526 -4.5
      vertex -24.2705 17.6336 0
      vertex -24.2705 17.6336 -4.5
    endloop
  endfacet
  facet normal -0.844331 0.535822 0
    outer loop
      vertex -24.2705 17.6336 0
      vertex -26.2892 14.4526 -4.5
      vertex -26.2892 14.4526 0
    endloop
  endfacet
  facet normal -0.98229 0.187369 0
    outer loop
      vertex -29.7634 3.76 -4.5
      vertex -29.0575 7.4607 0
      vertex -29.0575 7.4607 -4.5
    endloop
  endfacet
  facet normal -0.98229 0.187369 0
    outer loop
      vertex -29.0575 7.4607 0
      vertex -29.7634 3.76 -4.5
      vertex -29.7634 3.76 0
    endloop
  endfacet
  facet normal -0.58778 0.809021 0
    outer loop
      vertex -16.0748 25.3298 -4.5
      vertex -19.1227 23.1154 0
      vertex -16.0748 25.3298 0
    endloop
  endfacet
  facet normal -0.58778 0.809021 0
    outer loop
      vertex -19.1227 23.1154 0
      vertex -16.0748 25.3298 -4.5
      vertex -19.1227 23.1154 -4.5
    endloop
  endfacet
  facet normal -0.125337 0.992114 0
    outer loop
      vertex -1.88371 29.9408 -4.5
      vertex -5.62144 29.4686 0
      vertex -1.88371 29.9408 0
    endloop
  endfacet
  facet normal -0.125337 0.992114 0
    outer loop
      vertex -5.62144 29.4686 0
      vertex -1.88371 29.9408 -4.5
      vertex -5.62144 29.4686 -4.5
    endloop
  endfacet
  facet normal 0.770514 -0.637423 0
    outer loop
      vertex 21.8691 -20.5364 0
      vertex 24.2705 -17.6336 -4.5
      vertex 24.2705 -17.6336 0
    endloop
  endfacet
  facet normal 0.770514 -0.637423 0
    outer loop
      vertex 24.2705 -17.6336 -4.5
      vertex 21.8691 -20.5364 0
      vertex 21.8691 -20.5364 -4.5
    endloop
  endfacet
  facet normal 0.951056 -0.30902 0
    outer loop
      vertex 27.8933 -11.0437 0
      vertex 29.0575 -7.4607 -4.5
      vertex 29.0575 -7.4607 0
    endloop
  endfacet
  facet normal 0.951056 -0.30902 0
    outer loop
      vertex 29.0575 -7.4607 -4.5
      vertex 27.8933 -11.0437 0
      vertex 27.8933 -11.0437 -4.5
    endloop
  endfacet
  facet normal 0.98229 -0.187369 0
    outer loop
      vertex 29.0575 -7.4607 0
      vertex 29.7634 -3.76 -4.5
      vertex 29.7634 -3.76 0
    endloop
  endfacet
  facet normal 0.98229 -0.187369 0
    outer loop
      vertex 29.7634 -3.76 -4.5
      vertex 29.0575 -7.4607 0
      vertex 29.0575 -7.4607 -4.5
    endloop
  endfacet
  facet normal -0.684541 -0.728974 0
    outer loop
      vertex -21.8691 -20.5364 -4.5
      vertex -19.1227 -23.1154 0
      vertex -21.8691 -20.5364 0
    endloop
  endfacet
  facet normal -0.684541 -0.728974 -0
    outer loop
      vertex -19.1227 -23.1154 0
      vertex -21.8691 -20.5364 -4.5
      vertex -19.1227 -23.1154 -4.5
    endloop
  endfacet
  facet normal -0.904828 -0.425778 0
    outer loop
      vertex -26.2892 -14.4526 -4.5
      vertex -27.8933 -11.0437 0
      vertex -27.8933 -11.0437 -4.5
    endloop
  endfacet
  facet normal -0.904828 -0.425778 0
    outer loop
      vertex -27.8933 -11.0437 0
      vertex -26.2892 -14.4526 -4.5
      vertex -26.2892 -14.4526 0
    endloop
  endfacet
  facet normal -0.770514 -0.637423 0
    outer loop
      vertex -21.8691 -20.5364 -4.5
      vertex -24.2705 -17.6336 0
      vertex -24.2705 -17.6336 -4.5
    endloop
  endfacet
  facet normal -0.770514 -0.637423 0
    outer loop
      vertex -24.2705 -17.6336 0
      vertex -21.8691 -20.5364 -4.5
      vertex -21.8691 -20.5364 0
    endloop
  endfacet
  facet normal 0 0 -1
    outer loop
      vertex 1.8 0 -4.5
      vertex 30 0 -4.5
      vertex 29.7634 -3.76 -4.5
    endloop
  endfacet
  facet normal 0 0 -1
    outer loop
      vertex 1.78581 -0.225599 -4.5
      vertex 29.7634 -3.76 -4.5
      vertex 29.0575 -7.4607 -4.5
    endloop
  endfacet
  facet normal 0 0 -1
    outer loop
      vertex 30 0 -4.5
      vertex 1.8 0 -4.5
      vertex 29.7634 3.76 -4.5
    endloop
  endfacet
  facet normal 0 0 -1
    outer loop
      vertex 1.74345 -0.447641 -4.5
      vertex 29.0575 -7.4607 -4.5
      vertex 27.8933 -11.0437 -4.5
    endloop
  endfacet
  facet normal 0 0 -1
    outer loop
      vertex 1.78581 0.225599 -4.5
      vertex 29.7634 3.76 -4.5
      vertex 1.8 0 -4.5
    endloop
  endfacet
  facet normal 0 0 -1
    outer loop
      vertex 1.6736 -0.662623 -4.5
      vertex 27.8933 -11.0437 -4.5
      vertex 26.2892 -14.4526 -4.5
    endloop
  endfacet
  facet normal -0 0 -1
    outer loop
      vertex 29.7634 3.76 -4.5
      vertex 1.78581 0.225599 -4.5
      vertex 29.0575 7.4607 -4.5
    endloop
  endfacet
  facet normal 0 0 -1
    outer loop
      vertex 1.57735 -0.867156 -4.5
      vertex 26.2892 -14.4526 -4.5
      vertex 24.2705 -17.6336 -4.5
    endloop
  endfacet
  facet normal 0 0 -1
    outer loop
      vertex 1.74345 0.447641 -4.5
      vertex 29.0575 7.4607 -4.5
      vertex 1.78581 0.225599 -4.5
    endloop
  endfacet
  facet normal 0 0 -1
    outer loop
      vertex 1.45623 -1.05801 -4.5
      vertex 24.2705 -17.6336 -4.5
      vertex 21.8691 -20.5364 -4.5
    endloop
  endfacet
  facet normal -0 0 -1
    outer loop
      vertex 29.0575 7.4607 -4.5
      vertex 1.74345 0.447641 -4.5
      vertex 27.8933 11.0437 -4.5
    endloop
  endfacet
  facet normal 0 0 -1
    outer loop
      vertex 1.31214 -1.23218 -4.5
      vertex 21.8691 -20.5364 -4.5
      vertex 19.1227 -23.1154 -4.5
    endloop
  endfacet
  facet normal 0 0 -1
    outer loop
      vertex 1.6736 0.662623 -4.5
      vertex 27.8933 11.0437 -4.5
      vertex 1.74345 0.447641 -4.5
    endloop
  endfacet
  facet normal 0 0 -1
    outer loop
      vertex 1.14736 -1.38692 -4.5
      vertex 19.1227 -23.1154 -4.5
      vertex 16.0748 -25.3298 -4.5
    endloop
  endfacet
  facet normal -0 0 -1
    outer loop
      vertex 27.8933 11.0437 -4.5
      vertex 1.6736 0.662623 -4.5
      vertex 26.2892 14.4526 -4.5
    endloop
  endfacet
  facet normal 0 0 -1
    outer loop
      vertex 0.964488 -1.51979 -4.5
      vertex 16.0748 -25.3298 -4.5
      vertex 12.7734 -27.1448 -4.5
    endloop
  endfacet
  facet normal 0 0 -1
    outer loop
      vertex 1.57735 0.867156 -4.5
      vertex 26.2892 14.4526 -4.5
      vertex 1.6736 0.662623 -4.5
    endloop
  endfacet
  facet normal 0 0 -1
    outer loop
      vertex 0.766402 -1.62869 -4.5
      vertex 12.7734 -27.1448 -4.5
      vertex 9.27051 -28.5317 -4.5
    endloop
  endfacet
  facet normal -0 0 -1
    outer loop
      vertex 26.2892 14.4526 -4.5
      vertex 1.57735 0.867156 -4.5
      vertex 24.2705 17.6336 -4.5
    endloop
  endfacet
  facet normal 0 0 -1
    outer loop
      vertex 0.556231 -1.7119 -4.5
      vertex 9.27051 -28.5317 -4.5
      vertex 5.62144 -29.4686 -4.5
    endloop
  endfacet
  facet normal 0 0 -1
    outer loop
      vertex 1.45623 1.05801 -4.5
      vertex 24.2705 17.6336 -4.5
      vertex 1.57735 0.867156 -4.5
    endloop
  endfacet
  facet normal 0 0 -1
    outer loop
      vertex 0.337286 -1.76812 -4.5
      vertex 5.62144 -29.4686 -4.5
      vertex 1.88371 -29.9408 -4.5
    endloop
  endfacet
  facet normal -0 0 -1
    outer loop
      vertex 24.2705 17.6336 -4.5
      vertex 1.45623 1.05801 -4.5
      vertex 21.8691 20.5364 -4.5
    endloop
  endfacet
  facet normal 0 0 -1
    outer loop
      vertex 1.31214 1.23218 -4.5
      vertex 21.8691 20.5364 -4.5
      vertex 1.45623 1.05801 -4.5
    endloop
  endfacet
  facet normal 0 0 -1
    outer loop
      vertex 29.7634 -3.76 -4.5
      vertex 1.78581 -0.225599 -4.5
      vertex 1.8 0 -4.5
    endloop
  endfacet
  facet normal 0 0 -1
    outer loop
      vertex 29.0575 -7.4607 -4.5
      vertex 1.74345 -0.447641 -4.5
      vertex 1.78581 -0.225599 -4.5
    endloop
  endfacet
  facet normal 0 0 -1
    outer loop
      vertex 27.8933 -11.0437 -4.5
      vertex 1.6736 -0.662623 -4.5
      vertex 1.74345 -0.447641 -4.5
    endloop
  endfacet
  facet normal 0 0 -1
    outer loop
      vertex 26.2892 -14.4526 -4.5
      vertex 1.57735 -0.867156 -4.5
      vertex 1.6736 -0.662623 -4.5
    endloop
  endfacet
  facet normal 0 0 -1
    outer loop
      vertex 24.2705 -17.6336 -4.5
      vertex 1.45623 -1.05801 -4.5
      vertex 1.57735 -0.867156 -4.5
    endloop
  endfacet
  facet normal 0 0 -1
    outer loop
      vertex 21.8691 -20.5364 -4.5
      vertex 1.31214 -1.23218 -4.5
      vertex 1.45623 -1.05801 -4.5
    endloop
  endfacet
  facet normal 0 0 -1
    outer loop
      vertex 19.1227 -23.1154 -4.5
      vertex 1.14736 -1.38692 -4.5
      vertex 1.31214 -1.23218 -4.5
    endloop
  endfacet
  facet normal 0 0 -1
    outer loop
      vertex 16.0748 -25.3298 -4.5
      vertex 0.964488 -1.51979 -4.5
      vertex 1.14736 -1.38692 -4.5
    endloop
  endfacet
  facet normal 0 0 -1
    outer loop
      vertex 12.7734 -27.1448 -4.5
      vertex 0.766402 -1.62869 -4.5
      vertex 0.964488 -1.51979 -4.5
    endloop
  endfacet
  facet normal 0 0 -1
    outer loop
      vertex 9.27051 -28.5317 -4.5
      vertex 0.556231 -1.7119 -4.5
      vertex 0.766402 -1.62869 -4.5
    endloop
  endfacet
  facet normal 0 0 -1
    outer loop
      vertex 5.62144 -29.4686 -4.5
      vertex 0.337286 -1.76812 -4.5
      vertex 0.556231 -1.7119 -4.5
    endloop
  endfacet
  facet normal 0 0 -1
    outer loop
      vertex 1.88371 -29.9408 -4.5
      vertex 0.113023 -1.79645 -4.5
      vertex 0.337286 -1.76812 -4.5
    endloop
  endfacet
  facet normal 0 0 -1
    outer loop
      vertex 1.88371 -29.9408 -4.5
      vertex -0.113023 -1.79645 -4.5
      vertex 0.113023 -1.79645 -4.5
    endloop
  endfacet
  facet normal 0 0 -1
    outer loop
      vertex -1.88371 -29.9408 -4.5
      vertex -0.113023 -1.79645 -4.5
      vertex 1.88371 -29.9408 -4.5
    endloop
  endfacet
  facet normal -0 0 -1
    outer loop
      vertex -0.113023 -1.79645 -4.5
      vertex -1.88371 -29.9408 -4.5
      vertex -0.337286 -1.76812 -4.5
    endloop
  endfacet
  facet normal 0 0 -1
    outer loop
      vertex -5.62144 -29.4686 -4.5
      vertex -0.337286 -1.76812 -4.5
      vertex -1.88371 -29.9408 -4.5
    endloop
  endfacet
  facet normal -0 0 -1
    outer loop
      vertex -0.337286 -1.76812 -4.5
      vertex -5.62144 -29.4686 -4.5
      vertex -0.556231 -1.7119 -4.5
    endloop
  endfacet
  facet normal 0 0 -1
    outer loop
      vertex -9.27051 -28.5317 -4.5
      vertex -0.556231 -1.7119 -4.5
      vertex -5.62144 -29.4686 -4.5
    endloop
  endfacet
  facet normal -0 0 -1
    outer loop
      vertex -0.556231 -1.7119 -4.5
      vertex -9.27051 -28.5317 -4.5
      vertex -0.766402 -1.62869 -4.5
    endloop
  endfacet
  facet normal 0 0 -1
    outer loop
      vertex -12.7734 -27.1448 -4.5
      vertex -0.766402 -1.62869 -4.5
      vertex -9.27051 -28.5317 -4.5
    endloop
  endfacet
  facet normal -0 0 -1
    outer loop
      vertex -0.766402 -1.62869 -4.5
      vertex -12.7734 -27.1448 -4.5
      vertex -0.964488 -1.51979 -4.5
    endloop
  endfacet
  facet normal 0 0 -1
    outer loop
      vertex -16.0748 -25.3298 -4.5
      vertex -0.964488 -1.51979 -4.5
      vertex -12.7734 -27.1448 -4.5
    endloop
  endfacet
  facet normal -0 0 -1
    outer loop
      vertex -0.964488 -1.51979 -4.5
      vertex -16.0748 -25.3298 -4.5
      vertex -1.14736 -1.38692 -4.5
    endloop
  endfacet
  facet normal 0 0 -1
    outer loop
      vertex -19.1227 -23.1154 -4.5
      vertex -1.14736 -1.38692 -4.5
      vertex -16.0748 -25.3298 -4.5
    endloop
  endfacet
  facet normal 0 0 -1
    outer loop
      vertex -21.8691 -20.5364 -4.5
      vertex -1.31214 -1.23218 -4.5
      vertex -19.1227 -23.1154 -4.5
    endloop
  endfacet
  facet normal -0 0 -1
    outer loop
      vertex -1.14736 -1.38692 -4.5
      vertex -19.1227 -23.1154 -4.5
      vertex -1.31214 -1.23218 -4.5
    endloop
  endfacet
  facet normal -0 0 -1
    outer loop
      vertex 21.8691 20.5364 -4.5
      vertex 1.31214 1.23218 -4.5
      vertex 19.1227 23.1154 -4.5
    endloop
  endfacet
  facet normal 0 0 -1
    outer loop
      vertex 1.14736 1.38692 -4.5
      vertex 19.1227 23.1154 -4.5
      vertex 1.31214 1.23218 -4.5
    endloop
  endfacet
  facet normal -0 0 -1
    outer loop
      vertex 19.1227 23.1154 -4.5
      vertex 1.14736 1.38692 -4.5
      vertex 16.0748 25.3298 -4.5
    endloop
  endfacet
  facet normal 0 0 -1
    outer loop
      vertex 0.964488 1.51979 -4.5
      vertex 16.0748 25.3298 -4.5
      vertex 1.14736 1.38692 -4.5
    endloop
  endfacet
  facet normal -0 0 -1
    outer loop
      vertex 16.0748 25.3298 -4.5
      vertex 0.964488 1.51979 -4.5
      vertex 12.7734 27.1448 -4.5
    endloop
  endfacet
  facet normal 0 0 -1
    outer loop
      vertex 0.766402 1.62869 -4.5
      vertex 12.7734 27.1448 -4.5
      vertex 0.964488 1.51979 -4.5
    endloop
  endfacet
  facet normal -0 0 -1
    outer loop
      vertex 12.7734 27.1448 -4.5
      vertex 0.766402 1.62869 -4.5
      vertex 9.27051 28.5317 -4.5
    endloop
  endfacet
  facet normal 0 0 -1
    outer loop
      vertex 0.556231 1.7119 -4.5
      vertex 9.27051 28.5317 -4.5
      vertex 0.766402 1.62869 -4.5
    endloop
  endfacet
  facet normal -0 0 -1
    outer loop
      vertex 9.27051 28.5317 -4.5
      vertex 0.556231 1.7119 -4.5
      vertex 5.62144 29.4686 -4.5
    endloop
  endfacet
  facet normal 0 0 -1
    outer loop
      vertex 0.337286 1.76812 -4.5
      vertex 5.62144 29.4686 -4.5
      vertex 0.556231 1.7119 -4.5
    endloop
  endfacet
  facet normal -0 0 -1
    outer loop
      vertex 5.62144 29.4686 -4.5
      vertex 0.337286 1.76812 -4.5
      vertex 1.88371 29.9408 -4.5
    endloop
  endfacet
  facet normal 0 0 -1
    outer loop
      vertex 0.113023 1.79645 -4.5
      vertex 1.88371 29.9408 -4.5
      vertex 0.337286 1.76812 -4.5
    endloop
  endfacet
  facet normal 0 0 -1
    outer loop
      vertex -0.113023 1.79645 -4.5
      vertex 1.88371 29.9408 -4.5
      vertex 0.113023 1.79645 -4.5
    endloop
  endfacet
  facet normal 0 0 -1
    outer loop
      vertex -1.88371 29.9408 -4.5
      vertex -0.113023 1.79645 -4.5
      vertex -0.337286 1.76812 -4.5
    endloop
  endfacet
  facet normal 0 0 -1
    outer loop
      vertex -5.62144 29.4686 -4.5
      vertex -0.337286 1.76812 -4.5
      vertex -0.556231 1.7119 -4.5
    endloop
  endfacet
  facet normal 0 0 -1
    outer loop
      vertex -9.27051 28.5317 -4.5
      vertex -0.556231 1.7119 -4.5
      vertex -0.766402 1.62869 -4.5
    endloop
  endfacet
  facet normal 0 0 -1
    outer loop
      vertex -12.7734 27.1448 -4.5
      vertex -0.766402 1.62869 -4.5
      vertex -0.964488 1.51979 -4.5
    endloop
  endfacet
  facet normal 0 0 -1
    outer loop
      vertex -16.0748 25.3298 -4.5
      vertex -0.964488 1.51979 -4.5
      vertex -1.14736 1.38692 -4.5
    endloop
  endfacet
  facet normal 0 0 -1
    outer loop
      vertex -19.1227 23.1154 -4.5
      vertex -1.14736 1.38692 -4.5
      vertex -1.31214 1.23218 -4.5
    endloop
  endfacet
  facet normal 0 0 -1
    outer loop
      vertex -21.8691 20.5364 -4.5
      vertex -1.31214 1.23218 -4.5
      vertex -1.45623 1.05801 -4.5
    endloop
  endfacet
  facet normal 0 0 -1
    outer loop
      vertex -24.2705 17.6336 -4.5
      vertex -1.45623 1.05801 -4.5
      vertex -1.57735 0.867156 -4.5
    endloop
  endfacet
  facet normal 0 0 -1
    outer loop
      vertex -26.2892 14.4526 -4.5
      vertex -1.57735 0.867156 -4.5
      vertex -1.6736 0.662623 -4.5
    endloop
  endfacet
  facet normal 0 0 -1
    outer loop
      vertex -27.8933 11.0437 -4.5
      vertex -1.6736 0.662623 -4.5
      vertex -1.74345 0.447641 -4.5
    endloop
  endfacet
  facet normal 0 0 -1
    outer loop
      vertex -29.0575 7.4607 -4.5
      vertex -1.74345 0.447641 -4.5
      vertex -1.78581 0.225599 -4.5
    endloop
  endfacet
  facet normal 0 0 -1
    outer loop
      vertex -0.113023 1.79645 -4.5
      vertex -1.88371 29.9408 -4.5
      vertex 1.88371 29.9408 -4.5
    endloop
  endfacet
  facet normal 0 0 -1
    outer loop
      vertex -29.7634 3.76 -4.5
      vertex -1.78581 0.225599 -4.5
      vertex -1.8 0 -4.5
    endloop
  endfacet
  facet normal -0 0 -1
    outer loop
      vertex -1.31214 -1.23218 -4.5
      vertex -21.8691 -20.5364 -4.5
      vertex -1.45623 -1.05801 -4.5
    endloop
  endfacet
  facet normal 0 0 -1
    outer loop
      vertex -24.2705 -17.6336 -4.5
      vertex -1.45623 -1.05801 -4.5
      vertex -21.8691 -20.5364 -4.5
    endloop
  endfacet
  facet normal 0 0 -1
    outer loop
      vertex -0.337286 1.76812 -4.5
      vertex -5.62144 29.4686 -4.5
      vertex -1.88371 29.9408 -4.5
    endloop
  endfacet
  facet normal -0 0 -1
    outer loop
      vertex -1.45623 -1.05801 -4.5
      vertex -24.2705 -17.6336 -4.5
      vertex -1.57735 -0.867156 -4.5
    endloop
  endfacet
  facet normal 0 0 -1
    outer loop
      vertex -0.556231 1.7119 -4.5
      vertex -9.27051 28.5317 -4.5
      vertex -5.62144 29.4686 -4.5
    endloop
  endfacet
  facet normal 0 0 -1
    outer loop
      vertex -26.2892 -14.4526 -4.5
      vertex -1.57735 -0.867156 -4.5
      vertex -24.2705 -17.6336 -4.5
    endloop
  endfacet
  facet normal 0 0 -1
    outer loop
      vertex -0.766402 1.62869 -4.5
      vertex -12.7734 27.1448 -4.5
      vertex -9.27051 28.5317 -4.5
    endloop
  endfacet
  facet normal -0 0 -1
    outer loop
      vertex -1.57735 -0.867156 -4.5
      vertex -26.2892 -14.4526 -4.5
      vertex -1.6736 -0.662623 -4.5
    endloop
  endfacet
  facet normal 0 0 -1
    outer loop
      vertex -0.964488 1.51979 -4.5
      vertex -16.0748 25.3298 -4.5
      vertex -12.7734 27.1448 -4.5
    endloop
  endfacet
  facet normal 0 0 -1
    outer loop
      vertex -27.8933 -11.0437 -4.5
      vertex -1.6736 -0.662623 -4.5
      vertex -26.2892 -14.4526 -4.5
    endloop
  endfacet
  facet normal 0 0 -1
    outer loop
      vertex -1.14736 1.38692 -4.5
      vertex -19.1227 23.1154 -4.5
      vertex -16.0748 25.3298 -4.5
    endloop
  endfacet
  facet normal -0 0 -1
    outer loop
      vertex -1.6736 -0.662623 -4.5
      vertex -27.8933 -11.0437 -4.5
      vertex -1.74345 -0.447641 -4.5
    endloop
  endfacet
  facet normal 0 0 -1
    outer loop
      vertex -1.31214 1.23218 -4.5
      vertex -21.8691 20.5364 -4.5
      vertex -19.1227 23.1154 -4.5
    endloop
  endfacet
  facet normal 0 0 -1
    outer loop
      vertex -29.0575 -7.4607 -4.5
      vertex -1.74345 -0.447641 -4.5
      vertex -27.8933 -11.0437 -4.5
    endloop
  endfacet
  facet normal 0 0 -1
    outer loop
      vertex -1.45623 1.05801 -4.5
      vertex -24.2705 17.6336 -4.5
      vertex -21.8691 20.5364 -4.5
    endloop
  endfacet
  facet normal -0 0 -1
    outer loop
      vertex -1.74345 -0.447641 -4.5
      vertex -29.0575 -7.4607 -4.5
      vertex -1.78581 -0.225599 -4.5
    endloop
  endfacet
  facet normal 0 0 -1
    outer loop
      vertex -1.57735 0.867156 -4.5
      vertex -26.2892 14.4526 -4.5
      vertex -24.2705 17.6336 -4.5
    endloop
  endfacet
  facet normal 0 0 -1
    outer loop
      vertex -29.7634 -3.76 -4.5
      vertex -1.78581 -0.225599 -4.5
      vertex -29.0575 -7.4607 -4.5
    endloop
  endfacet
  facet normal 0 0 -1
    outer loop
      vertex -1.6736 0.662623 -4.5
      vertex -27.8933 11.0437 -4.5
      vertex -26.2892 14.4526 -4.5
    endloop
  endfacet
  facet normal -0 0 -1
    outer loop
      vertex -1.78581 -0.225599 -4.5
      vertex -29.7634 -3.76 -4.5
      vertex -1.8 0 -4.5
    endloop
  endfacet
  facet normal 0 0 -1
    outer loop
      vertex -1.74345 0.447641 -4.5
      vertex -29.0575 7.4607 -4.5
      vertex -27.8933 11.0437 -4.5
    endloop
  endfacet
  facet normal 0 0 -1
    outer loop
      vertex -30 0 -4.5
      vertex -1.8 0 -4.5
      vertex -29.7634 -3.76 -4.5
    endloop
  endfacet
  facet normal 0 0 -1
    outer loop
      vertex -1.78581 0.225599 -4.5
      vertex -29.7634 3.76 -4.5
      vertex -29.0575 7.4607 -4.5
    endloop
  endfacet
  facet normal 0 0 -1
    outer loop
      vertex -1.8 0 -4.5
      vertex -30 0 -4.5
      vertex -29.7634 3.76 -4.5
    endloop
  endfacet
  facet normal 0.481762 -0.876302 0
    outer loop
      vertex 12.7734 -27.1448 -4.5
      vertex 16.0748 -25.3298 0
      vertex 12.7734 -27.1448 0
    endloop
  endfacet
  facet normal 0.481762 -0.876302 0
    outer loop
      vertex 16.0748 -25.3298 0
      vertex 12.7734 -27.1448 -4.5
      vertex 16.0748 -25.3298 -4.5
    endloop
  endfacet
  facet normal 0.844331 -0.535822 0
    outer loop
      vertex 24.2705 -17.6336 0
      vertex 26.2892 -14.4526 -4.5
      vertex 26.2892 -14.4526 0
    endloop
  endfacet
  facet normal 0.844331 -0.535822 0
    outer loop
      vertex 26.2892 -14.4526 -4.5
      vertex 24.2705 -17.6336 0
      vertex 24.2705 -17.6336 -4.5
    endloop
  endfacet
  facet normal 0.998026 -0.0628013 0
    outer loop
      vertex 29.7634 -3.76 0
      vertex 30 0 -4.5
      vertex 30 0 0
    endloop
  endfacet
  facet normal 0.998026 -0.0628013 0
    outer loop
      vertex 30 0 -4.5
      vertex 29.7634 -3.76 0
      vertex 29.7634 -3.76 -4.5
    endloop
  endfacet
  facet normal -0.248684 -0.968585 0
    outer loop
      vertex -9.27051 -28.5317 -4.5
      vertex -5.62144 -29.4686 0
      vertex -9.27051 -28.5317 0
    endloop
  endfacet
  facet normal -0.248684 -0.968585 -0
    outer loop
      vertex -5.62144 -29.4686 0
      vertex -9.27051 -28.5317 -4.5
      vertex -5.62144 -29.4686 -4.5
    endloop
  endfacet
  facet normal -0.951056 -0.30902 0
    outer loop
      vertex -27.8933 -11.0437 -4.5
      vertex -29.0575 -7.4607 0
      vertex -29.0575 -7.4607 -4.5
    endloop
  endfacet
  facet normal -0.951056 -0.30902 0
    outer loop
      vertex -29.0575 -7.4607 0
      vertex -27.8933 -11.0437 -4.5
      vertex -27.8933 -11.0437 0
    endloop
  endfacet
  facet normal 0.248684 -0.968585 0
    outer loop
      vertex 5.62144 -29.4686 -4.5
      vertex 9.27051 -28.5317 0
      vertex 5.62144 -29.4686 0
    endloop
  endfacet
  facet normal 0.248684 -0.968585 0
    outer loop
      vertex 9.27051 -28.5317 0
      vertex 5.62144 -29.4686 -4.5
      vertex 9.27051 -28.5317 -4.5
    endloop
  endfacet
  facet normal -0.125337 -0.992114 0
    outer loop
      vertex -5.62144 -29.4686 -4.5
      vertex -1.88371 -29.9408 0
      vertex -5.62144 -29.4686 0
    endloop
  endfacet
  facet normal -0.125337 -0.992114 -0
    outer loop
      vertex -1.88371 -29.9408 0
      vertex -5.62144 -29.4686 -4.5
      vertex -1.88371 -29.9408 -4.5
    endloop
  endfacet
  facet normal -0.844331 -0.535822 0
    outer loop
      vertex -24.2705 -17.6336 -4.5
      vertex -26.2892 -14.4526 0
      vertex -26.2892 -14.4526 -4.5
    endloop
  endfacet
  facet normal -0.844331 -0.535822 0
    outer loop
      vertex -26.2892 -14.4526 0
      vertex -24.2705 -17.6336 -4.5
      vertex -24.2705 -17.6336 0
    endloop
  endfacet
  facet normal -0.98229 -0.187369 0
    outer loop
      vertex -29.0575 -7.4607 -4.5
      vertex -29.7634 -3.76 0
      vertex -29.7634 -3.76 -4.5
    endloop
  endfacet
  facet normal -0.98229 -0.187369 0
    outer loop
      vertex -29.7634 -3.76 0
      vertex -29.0575 -7.4607 -4.5
      vertex -29.0575 -7.4607 0
    endloop
  endfacet
  facet normal -0.998026 -0.0628013 0
    outer loop
      vertex -29.7634 -3.76 -4.5
      vertex -30 0 0
      vertex -30 0 -4.5
    endloop
  endfacet
  facet normal -0.998026 -0.0628013 0
    outer loop
      vertex -30 0 0
      vertex -29.7634 -3.76 -4.5
      vertex -29.7634 -3.76 0
    endloop
  endfacet
  facet normal 0.684541 -0.728974 0
    outer loop
      vertex 19.1227 -23.1154 -4.5
      vertex 21.8691 -20.5364 0
      vertex 19.1227 -23.1154 0
    endloop
  endfacet
  facet normal 0.684541 -0.728974 0
    outer loop
      vertex 21.8691 -20.5364 0
      vertex 19.1227 -23.1154 -4.5
      vertex 21.8691 -20.5364 -4.5
    endloop
  endfacet
  facet normal 0.58778 -0.809021 0
    outer loop
      vertex 16.0748 -25.3298 -4.5
      vertex 19.1227 -23.1154 0
      vertex 16.0748 -25.3298 0
    endloop
  endfacet
  facet normal 0.58778 -0.809021 0
    outer loop
      vertex 19.1227 -23.1154 0
      vertex 16.0748 -25.3298 -4.5
      vertex 19.1227 -23.1154 -4.5
    endloop
  endfacet
  facet normal -0.481762 -0.876302 0
    outer loop
      vertex -16.0748 -25.3298 -4.5
      vertex -12.7734 -27.1448 0
      vertex -16.0748 -25.3298 0
    endloop
  endfacet
  facet normal -0.481762 -0.876302 -0
    outer loop
      vertex -12.7734 -27.1448 0
      vertex -16.0748 -25.3298 -4.5
      vertex -12.7734 -27.1448 -4.5
    endloop
  endfacet
  facet normal -0.58778 -0.809021 0
    outer loop
      vertex -19.1227 -23.1154 -4.5
      vertex -16.0748 -25.3298 0
      vertex -19.1227 -23.1154 0
    endloop
  endfacet
  facet normal -0.58778 -0.809021 -0
    outer loop
      vertex -16.0748 -25.3298 0
      vertex -19.1227 -23.1154 -4.5
      vertex -16.0748 -25.3298 -4.5
    endloop
  endfacet
  facet normal -0.368126 -0.929776 0
    outer loop
      vertex -12.7734 -27.1448 -4.5
      vertex -9.27051 -28.5317 0
      vertex -12.7734 -27.1448 0
    endloop
  endfacet
  facet normal -0.368126 -0.929776 -0
    outer loop
      vertex -9.27051 -28.5317 0
      vertex -12.7734 -27.1448 -4.5
      vertex -9.27051 -28.5317 -4.5
    endloop
  endfacet
endsolid OpenSCAD_Model
