solid OpenSCAD_Model
  facet normal 0 -1 0
    outer loop
      vertex -2.95712 5.12189 -4.5
      vertex 2.95712 5.12189 0
      vertex -2.95712 5.12189 0
    endloop
  endfacet
  facet normal 0 -1 -0
    outer loop
      vertex 2.95712 5.12189 0
      vertex -2.95712 5.12189 -4.5
      vertex 2.95712 5.12189 -4.5
    endloop
  endfacet
  facet normal 0 0 1
    outer loop
      vertex 5.91425 0 0
      vertex 12.5 0 0
      vertex 12.4014 1.56666 0
    endloop
  endfacet
  facet normal 0 0 1
    outer loop
      vertex 5.91425 0 0
      vertex 12.4014 1.56666 0
      vertex 12.1073 3.10862 0
    endloop
  endfacet
  facet normal 0 0 1
    outer loop
      vertex 12.5 0 0
      vertex 5.91425 0 0
      vertex 12.4014 -1.56666 0
    endloop
  endfacet
  facet normal 0 0 1
    outer loop
      vertex 5.91425 0 0
      vertex 12.1073 3.10862 0
      vertex 11.6222 4.60156 0
    endloop
  endfacet
  facet normal 0 0 1
    outer loop
      vertex 12.4014 -1.56666 0
      vertex 5.91425 0 0
      vertex 12.1073 -3.10862 0
    endloop
  endfacet
  facet normal 0 0 1
    outer loop
      vertex 5.91425 0 0
      vertex 11.6222 4.60156 0
      vertex 10.9538 6.02192 0
    endloop
  endfacet
  facet normal 0 0 1
    outer loop
      vertex 12.1073 -3.10862 0
      vertex 5.91425 0 0
      vertex 11.6222 -4.60156 0
    endloop
  endfacet
  facet normal 0 0 1
    outer loop
      vertex 2.95712 5.12189 0
      vertex 10.9538 6.02192 0
      vertex 10.1127 7.34731 0
    endloop
  endfacet
  facet normal 0 0 1
    outer loop
      vertex 11.6222 -4.60156 0
      vertex 5.91425 0 0
      vertex 10.9538 -6.02192 0
    endloop
  endfacet
  facet normal 0 0 1
    outer loop
      vertex 2.95712 5.12189 0
      vertex 10.1127 7.34731 0
      vertex 9.11211 8.55684 0
    endloop
  endfacet
  facet normal -0 0 1
    outer loop
      vertex 2.95712 -5.12189 0
      vertex 10.9538 -6.02192 0
      vertex 5.91425 0 0
    endloop
  endfacet
  facet normal 0 0 1
    outer loop
      vertex 2.95712 5.12189 0
      vertex 9.11211 8.55684 0
      vertex 7.9678 9.63142 0
    endloop
  endfacet
  facet normal 0 0 1
    outer loop
      vertex 10.9538 -6.02192 0
      vertex 2.95712 -5.12189 0
      vertex 10.1127 -7.34731 0
    endloop
  endfacet
  facet normal 0 0 1
    outer loop
      vertex 2.95712 5.12189 0
      vertex 7.9678 9.63142 0
      vertex 6.69783 10.5541 0
    endloop
  endfacet
  facet normal 0 0 1
    outer loop
      vertex 10.1127 -7.34731 0
      vertex 2.95712 -5.12189 0
      vertex 9.11211 -8.55684 0
    endloop
  endfacet
  facet normal 0 0 1
    outer loop
      vertex 9.11211 -8.55684 0
      vertex 2.95712 -5.12189 0
      vertex 7.9678 -9.63142 0
    endloop
  endfacet
  facet normal 0 0 1
    outer loop
      vertex 2.95712 5.12189 0
      vertex 6.69783 10.5541 0
      vertex 5.32224 11.3103 0
    endloop
  endfacet
  facet normal 0 0 1
    outer loop
      vertex 2.95712 5.12189 0
      vertex 5.32224 11.3103 0
      vertex 3.86271 11.8882 0
    endloop
  endfacet
  facet normal 0 0 1
    outer loop
      vertex 10.9538 6.02192 0
      vertex 2.95712 5.12189 0
      vertex 5.91425 0 0
    endloop
  endfacet
  facet normal 0 0 1
    outer loop
      vertex 2.34227 12.2786 0
      vertex 2.95712 5.12189 0
      vertex 3.86271 11.8882 0
    endloop
  endfacet
  facet normal 0 0 1
    outer loop
      vertex 0.784881 12.4753 0
      vertex 2.95712 5.12189 0
      vertex 2.34227 12.2786 0
    endloop
  endfacet
  facet normal -0 0 1
    outer loop
      vertex -0.784881 12.4753 0
      vertex 2.95712 5.12189 0
      vertex 0.784881 12.4753 0
    endloop
  endfacet
  facet normal 0 0 1
    outer loop
      vertex -2.95712 5.12189 0
      vertex -0.784881 12.4753 0
      vertex -2.34227 12.2786 0
    endloop
  endfacet
  facet normal 0 0 1
    outer loop
      vertex -0.784881 12.4753 0
      vertex -2.95712 5.12189 0
      vertex 2.95712 5.12189 0
    endloop
  endfacet
  facet normal -0 0 1
    outer loop
      vertex -3.86271 11.8882 0
      vertex -2.95712 5.12189 0
      vertex -2.34227 12.2786 0
    endloop
  endfacet
  facet normal -0 0 1
    outer loop
      vertex -5.32224 11.3103 0
      vertex -2.95712 5.12189 0
      vertex -3.86271 11.8882 0
    endloop
  endfacet
  facet normal -0 0 1
    outer loop
      vertex -6.69783 10.5541 0
      vertex -2.95712 5.12189 0
      vertex -5.32224 11.3103 0
    endloop
  endfacet
  facet normal -0 0 1
    outer loop
      vertex -7.9678 9.63142 0
      vertex -2.95712 5.12189 0
      vertex -6.69783 10.5541 0
    endloop
  endfacet
  facet normal 0 0 1
    outer loop
      vertex 7.9678 -9.63142 0
      vertex 2.95712 -5.12189 0
      vertex 6.69783 -10.5541 0
    endloop
  endfacet
  facet normal 0 0 1
    outer loop
      vertex 6.69783 -10.5541 0
      vertex 2.95712 -5.12189 0
      vertex 5.32224 -11.3103 0
    endloop
  endfacet
  facet normal 0 0 1
    outer loop
      vertex 5.32224 -11.3103 0
      vertex 2.95712 -5.12189 0
      vertex 3.86271 -11.8882 0
    endloop
  endfacet
  facet normal 0 0 1
    outer loop
      vertex 2.95712 -5.12189 0
      vertex 2.34227 -12.2786 0
      vertex 3.86271 -11.8882 0
    endloop
  endfacet
  facet normal 0 0 1
    outer loop
      vertex 2.95712 -5.12189 0
      vertex 0.784881 -12.4753 0
      vertex 2.34227 -12.2786 0
    endloop
  endfacet
  facet normal 0 0 1
    outer loop
      vertex 2.95712 -5.12189 0
      vertex -0.784881 -12.4753 0
      vertex 0.784881 -12.4753 0
    endloop
  endfacet
  facet normal -0 0 1
    outer loop
      vertex -2.95712 -5.12189 0
      vertex -0.784881 -12.4753 0
      vertex 2.95712 -5.12189 0
    endloop
  endfacet
  facet normal 0 0 1
    outer loop
      vertex -0.784881 -12.4753 0
      vertex -2.95712 -5.12189 0
      vertex -2.34227 -12.2786 0
    endloop
  endfacet
  facet normal 0 0 1
    outer loop
      vertex -2.95712 -5.12189 0
      vertex -3.86271 -11.8882 0
      vertex -2.34227 -12.2786 0
    endloop
  endfacet
  facet normal 0 0 1
    outer loop
      vertex -2.95712 -5.12189 0
      vertex -5.32224 -11.3103 0
      vertex -3.86271 -11.8882 0
    endloop
  endfacet
  facet normal 0 0 1
    outer loop
      vertex -10.9538 -6.02192 0
      vertex -2.95712 -5.12189 0
      vertex -5.91425 0 0
    endloop
  endfacet
  facet normal -0 0 1
    outer loop
      vertex -9.11211 8.55684 0
      vertex -2.95712 5.12189 0
      vertex -7.9678 9.63142 0
    endloop
  endfacet
  facet normal 0 0 1
    outer loop
      vertex -2.95712 -5.12189 0
      vertex -6.69783 -10.5541 0
      vertex -5.32224 -11.3103 0
    endloop
  endfacet
  facet normal -0 0 1
    outer loop
      vertex -10.1127 7.34731 0
      vertex -2.95712 5.12189 0
      vertex -9.11211 8.55684 0
    endloop
  endfacet
  facet normal 0 0 1
    outer loop
      vertex -2.95712 -5.12189 0
      vertex -7.9678 -9.63142 0
      vertex -6.69783 -10.5541 0
    endloop
  endfacet
  facet normal -0 0 1
    outer loop
      vertex -10.9538 6.02192 0
      vertex -2.95712 5.12189 0
      vertex -10.1127 7.34731 0
    endloop
  endfacet
  facet normal 0 0 1
    outer loop
      vertex -2.95712 -5.12189 0
      vertex -9.11211 -8.55684 0
      vertex -7.9678 -9.63142 0
    endloop
  endfacet
  facet normal 0 0 1
    outer loop
      vertex -2.95712 5.12189 0
      vertex -10.9538 6.02192 0
      vertex -5.91425 0 0
    endloop
  endfacet
  facet normal 0 0 1
    outer loop
      vertex -2.95712 -5.12189 0
      vertex -10.1127 -7.34731 0
      vertex -9.11211 -8.55684 0
    endloop
  endfacet
  facet normal -0 0 1
    outer loop
      vertex -11.6222 4.60156 0
      vertex -5.91425 0 0
      vertex -10.9538 6.02192 0
    endloop
  endfacet
  facet normal 0 0 1
    outer loop
      vertex -2.95712 -5.12189 0
      vertex -10.9538 -6.02192 0
      vertex -10.1127 -7.34731 0
    endloop
  endfacet
  facet normal -0 0 1
    outer loop
      vertex -12.1073 3.10862 0
      vertex -5.91425 0 0
      vertex -11.6222 4.60156 0
    endloop
  endfacet
  facet normal 0 0 1
    outer loop
      vertex -5.91425 0 0
      vertex -11.6222 -4.60156 0
      vertex -10.9538 -6.02192 0
    endloop
  endfacet
  facet normal -0 0 1
    outer loop
      vertex -12.4014 1.56666 0
      vertex -5.91425 0 0
      vertex -12.1073 3.10862 0
    endloop
  endfacet
  facet normal 0 0 1
    outer loop
      vertex -5.91425 0 0
      vertex -12.1073 -3.10862 0
      vertex -11.6222 -4.60156 0
    endloop
  endfacet
  facet normal 0 0 1
    outer loop
      vertex -12.5 0 0
      vertex -5.91425 0 0
      vertex -12.4014 1.56666 0
    endloop
  endfacet
  facet normal 0 0 1
    outer loop
      vertex -5.91425 0 0
      vertex -12.4014 -1.56666 0
      vertex -12.1073 -3.10862 0
    endloop
  endfacet
  facet normal 0 0 1
    outer loop
      vertex -5.91425 0 0
      vertex -12.5 0 0
      vertex -12.4014 -1.56666 0
    endloop
  endfacet
  facet normal -0.866025 -0.500001 0
    outer loop
      vertex 5.91425 0 -4.5
      vertex 2.95712 5.12189 0
      vertex 2.95712 5.12189 -4.5
    endloop
  endfacet
  facet normal -0.866025 -0.500001 0
    outer loop
      vertex 2.95712 5.12189 0
      vertex 5.91425 0 -4.5
      vertex 5.91425 0 0
    endloop
  endfacet
  facet normal 0.866025 -0.500001 0
    outer loop
      vertex -5.91425 0 0
      vertex -2.95712 5.12189 -4.5
      vertex -2.95712 5.12189 0
    endloop
  endfacet
  facet normal 0.866025 -0.500001 0
    outer loop
      vertex -2.95712 5.12189 -4.5
      vertex -5.91425 0 0
      vertex -5.91425 0 -4.5
    endloop
  endfacet
  facet normal 0 1 -0
    outer loop
      vertex 2.95712 -5.12189 -4.5
      vertex -2.95712 -5.12189 0
      vertex 2.95712 -5.12189 0
    endloop
  endfacet
  facet normal 0 1 0
    outer loop
      vertex -2.95712 -5.12189 0
      vertex 2.95712 -5.12189 -4.5
      vertex -2.95712 -5.12189 -4.5
    endloop
  endfacet
  facet normal 0.866025 0.500001 0
    outer loop
      vertex -2.95712 -5.12189 0
      vertex -5.91425 0 -4.5
      vertex -5.91425 0 0
    endloop
  endfacet
  facet normal 0.866025 0.500001 0
    outer loop
      vertex -5.91425 0 -4.5
      vertex -2.95712 -5.12189 0
      vertex -2.95712 -5.12189 -4.5
    endloop
  endfacet
  facet normal -0.866025 0.500001 0
    outer loop
      vertex 2.95712 -5.12189 -4.5
      vertex 5.91425 0 0
      vertex 5.91425 0 -4.5
    endloop
  endfacet
  facet normal -0.866025 0.500001 0
    outer loop
      vertex 5.91425 0 0
      vertex 2.95712 -5.12189 -4.5
      vertex 2.95712 -5.12189 0
    endloop
  endfacet
  facet normal -0.951054 0.309025 0
    outer loop
      vertex -12.1073 3.10862 -4.5
      vertex -11.6222 4.60156 0
      vertex -11.6222 4.60156 -4.5
    endloop
  endfacet
  facet normal -0.951054 0.309025 0
    outer loop
      vertex -11.6222 4.60156 0
      vertex -12.1073 3.10862 -4.5
      vertex -12.1073 3.10862 0
    endloop
  endfacet
  facet normal 0.844333 0.535819 0
    outer loop
      vertex 10.9538 6.02192 0
      vertex 10.1127 7.34731 -4.5
      vertex 10.1127 7.34731 0
    endloop
  endfacet
  facet normal 0.844333 0.535819 0
    outer loop
      vertex 10.1127 7.34731 -4.5
      vertex 10.9538 6.02192 0
      vertex 10.9538 6.02192 -4.5
    endloop
  endfacet
  facet normal 0.2487 0.96858 -0
    outer loop
      vertex 3.86271 11.8882 -4.5
      vertex 2.34227 12.2786 0
      vertex 3.86271 11.8882 0
    endloop
  endfacet
  facet normal 0.2487 0.96858 0
    outer loop
      vertex 2.34227 12.2786 0
      vertex 3.86271 11.8882 -4.5
      vertex 2.34227 12.2786 -4.5
    endloop
  endfacet
  facet normal 0.368142 0.92977 -0
    outer loop
      vertex 5.32224 11.3103 -4.5
      vertex 3.86271 11.8882 0
      vertex 5.32224 11.3103 0
    endloop
  endfacet
  facet normal 0.368142 0.92977 0
    outer loop
      vertex 3.86271 11.8882 0
      vertex 5.32224 11.3103 -4.5
      vertex 3.86271 11.8882 -4.5
    endloop
  endfacet
  facet normal -0.368142 0.92977 0
    outer loop
      vertex -3.86271 11.8882 -4.5
      vertex -5.32224 11.3103 0
      vertex -3.86271 11.8882 0
    endloop
  endfacet
  facet normal -0.368142 0.92977 0
    outer loop
      vertex -5.32224 11.3103 0
      vertex -3.86271 11.8882 -4.5
      vertex -5.32224 11.3103 -4.5
    endloop
  endfacet
  facet normal -0.90482 0.425795 0
    outer loop
      vertex -11.6222 4.60156 -4.5
      vertex -10.9538 6.02192 0
      vertex -10.9538 6.02192 -4.5
    endloop
  endfacet
  facet normal -0.90482 0.425795 0
    outer loop
      vertex -10.9538 6.02192 0
      vertex -11.6222 4.60156 -4.5
      vertex -11.6222 4.60156 0
    endloop
  endfacet
  facet normal 0.998025 -0.0628122 0
    outer loop
      vertex 12.4014 -1.56666 0
      vertex 12.5 0 -4.5
      vertex 12.5 0 0
    endloop
  endfacet
  facet normal 0.998025 -0.0628122 0
    outer loop
      vertex 12.5 0 -4.5
      vertex 12.4014 -1.56666 0
      vertex 12.4014 -1.56666 -4.5
    endloop
  endfacet
  facet normal 0.368142 -0.92977 0
    outer loop
      vertex 3.86271 -11.8882 -4.5
      vertex 5.32224 -11.3103 0
      vertex 3.86271 -11.8882 0
    endloop
  endfacet
  facet normal 0.368142 -0.92977 0
    outer loop
      vertex 5.32224 -11.3103 0
      vertex 3.86271 -11.8882 -4.5
      vertex 5.32224 -11.3103 -4.5
    endloop
  endfacet
  facet normal 0.982292 0.187354 0
    outer loop
      vertex 12.4014 1.56666 0
      vertex 12.1073 3.10862 -4.5
      vertex 12.1073 3.10862 0
    endloop
  endfacet
  facet normal 0.982292 0.187354 0
    outer loop
      vertex 12.1073 3.10862 -4.5
      vertex 12.4014 1.56666 0
      vertex 12.4014 1.56666 -4.5
    endloop
  endfacet
  facet normal -0.77052 0.637416 0
    outer loop
      vertex -10.1127 7.34731 -4.5
      vertex -9.11211 8.55684 0
      vertex -9.11211 8.55684 -4.5
    endloop
  endfacet
  facet normal -0.77052 0.637416 0
    outer loop
      vertex -9.11211 8.55684 0
      vertex -10.1127 7.34731 -4.5
      vertex -10.1127 7.34731 0
    endloop
  endfacet
  facet normal -0.125306 0.992118 0
    outer loop
      vertex -0.784881 12.4753 -4.5
      vertex -2.34227 12.2786 0
      vertex -0.784881 12.4753 0
    endloop
  endfacet
  facet normal -0.125306 0.992118 0
    outer loop
      vertex -2.34227 12.2786 0
      vertex -0.784881 12.4753 -4.5
      vertex -2.34227 12.2786 -4.5
    endloop
  endfacet
  facet normal -0.684548 0.728968 0
    outer loop
      vertex -7.9678 9.63142 -4.5
      vertex -9.11211 8.55684 0
      vertex -7.9678 9.63142 0
    endloop
  endfacet
  facet normal -0.684548 0.728968 0
    outer loop
      vertex -9.11211 8.55684 0
      vertex -7.9678 9.63142 -4.5
      vertex -9.11211 8.55684 -4.5
    endloop
  endfacet
  facet normal 0.998025 0.0628122 0
    outer loop
      vertex 12.5 0 0
      vertex 12.4014 1.56666 -4.5
      vertex 12.4014 1.56666 0
    endloop
  endfacet
  facet normal 0.998025 0.0628122 0
    outer loop
      vertex 12.4014 1.56666 -4.5
      vertex 12.5 0 0
      vertex 12.5 0 -4.5
    endloop
  endfacet
  facet normal 0.90482 -0.425795 0
    outer loop
      vertex 10.9538 -6.02192 0
      vertex 11.6222 -4.60156 -4.5
      vertex 11.6222 -4.60156 0
    endloop
  endfacet
  facet normal 0.90482 -0.425795 0
    outer loop
      vertex 11.6222 -4.60156 -4.5
      vertex 10.9538 -6.02192 0
      vertex 10.9538 -6.02192 -4.5
    endloop
  endfacet
  facet normal 0.2487 -0.96858 0
    outer loop
      vertex 2.34227 -12.2786 -4.5
      vertex 3.86271 -11.8882 0
      vertex 2.34227 -12.2786 0
    endloop
  endfacet
  facet normal 0.2487 -0.96858 0
    outer loop
      vertex 3.86271 -11.8882 0
      vertex 2.34227 -12.2786 -4.5
      vertex 3.86271 -11.8882 -4.5
    endloop
  endfacet
  facet normal 0.684548 0.728968 -0
    outer loop
      vertex 9.11211 8.55684 -4.5
      vertex 7.9678 9.63142 0
      vertex 9.11211 8.55684 0
    endloop
  endfacet
  facet normal 0.684548 0.728968 0
    outer loop
      vertex 7.9678 9.63142 0
      vertex 9.11211 8.55684 -4.5
      vertex 7.9678 9.63142 -4.5
    endloop
  endfacet
  facet normal 0.77052 0.637416 0
    outer loop
      vertex 10.1127 7.34731 0
      vertex 9.11211 8.55684 -4.5
      vertex 9.11211 8.55684 0
    endloop
  endfacet
  facet normal 0.77052 0.637416 0
    outer loop
      vertex 9.11211 8.55684 -4.5
      vertex 10.1127 7.34731 0
      vertex 10.1127 7.34731 -4.5
    endloop
  endfacet
  facet normal 0 1 -0
    outer loop
      vertex 0.784881 12.4753 -4.5
      vertex -0.784881 12.4753 0
      vertex 0.784881 12.4753 0
    endloop
  endfacet
  facet normal 0 1 0
    outer loop
      vertex -0.784881 12.4753 0
      vertex 0.784881 12.4753 -4.5
      vertex -0.784881 12.4753 -4.5
    endloop
  endfacet
  facet normal 0.587782 0.809019 -0
    outer loop
      vertex 7.9678 9.63142 -4.5
      vertex 6.69783 10.5541 0
      vertex 7.9678 9.63142 0
    endloop
  endfacet
  facet normal 0.587782 0.809019 0
    outer loop
      vertex 6.69783 10.5541 0
      vertex 7.9678 9.63142 -4.5
      vertex 6.69783 10.5541 -4.5
    endloop
  endfacet
  facet normal 0.481736 0.876317 -0
    outer loop
      vertex 6.69783 10.5541 -4.5
      vertex 5.32224 11.3103 0
      vertex 6.69783 10.5541 0
    endloop
  endfacet
  facet normal 0.481736 0.876317 0
    outer loop
      vertex 5.32224 11.3103 0
      vertex 6.69783 10.5541 -4.5
      vertex 5.32224 11.3103 -4.5
    endloop
  endfacet
  facet normal -0.998025 0.0628122 0
    outer loop
      vertex -12.5 0 -4.5
      vertex -12.4014 1.56666 0
      vertex -12.4014 1.56666 -4.5
    endloop
  endfacet
  facet normal -0.998025 0.0628122 0
    outer loop
      vertex -12.4014 1.56666 0
      vertex -12.5 0 -4.5
      vertex -12.5 0 0
    endloop
  endfacet
  facet normal -0.481736 0.876317 0
    outer loop
      vertex -5.32224 11.3103 -4.5
      vertex -6.69783 10.5541 0
      vertex -5.32224 11.3103 0
    endloop
  endfacet
  facet normal -0.481736 0.876317 0
    outer loop
      vertex -6.69783 10.5541 0
      vertex -5.32224 11.3103 -4.5
      vertex -6.69783 10.5541 -4.5
    endloop
  endfacet
  facet normal -0.587782 0.809019 0
    outer loop
      vertex -6.69783 10.5541 -4.5
      vertex -7.9678 9.63142 0
      vertex -6.69783 10.5541 0
    endloop
  endfacet
  facet normal -0.587782 0.809019 0
    outer loop
      vertex -7.9678 9.63142 0
      vertex -6.69783 10.5541 -4.5
      vertex -7.9678 9.63142 -4.5
    endloop
  endfacet
  facet normal 0.982292 -0.187354 0
    outer loop
      vertex 12.1073 -3.10862 0
      vertex 12.4014 -1.56666 -4.5
      vertex 12.4014 -1.56666 0
    endloop
  endfacet
  facet normal 0.982292 -0.187354 0
    outer loop
      vertex 12.4014 -1.56666 -4.5
      vertex 12.1073 -3.10862 0
      vertex 12.1073 -3.10862 -4.5
    endloop
  endfacet
  facet normal 0.844333 -0.535819 0
    outer loop
      vertex 10.1127 -7.34731 0
      vertex 10.9538 -6.02192 -4.5
      vertex 10.9538 -6.02192 0
    endloop
  endfacet
  facet normal 0.844333 -0.535819 0
    outer loop
      vertex 10.9538 -6.02192 -4.5
      vertex 10.1127 -7.34731 0
      vertex 10.1127 -7.34731 -4.5
    endloop
  endfacet
  facet normal 0.125306 -0.992118 0
    outer loop
      vertex 0.784881 -12.4753 -4.5
      vertex 2.34227 -12.2786 0
      vertex 0.784881 -12.4753 0
    endloop
  endfacet
  facet normal 0.125306 -0.992118 0
    outer loop
      vertex 2.34227 -12.2786 0
      vertex 0.784881 -12.4753 -4.5
      vertex 2.34227 -12.2786 -4.5
    endloop
  endfacet
  facet normal 0.90482 0.425795 0
    outer loop
      vertex 11.6222 4.60156 0
      vertex 10.9538 6.02192 -4.5
      vertex 10.9538 6.02192 0
    endloop
  endfacet
  facet normal 0.90482 0.425795 0
    outer loop
      vertex 10.9538 6.02192 -4.5
      vertex 11.6222 4.60156 0
      vertex 11.6222 4.60156 -4.5
    endloop
  endfacet
  facet normal 0.951054 0.309025 0
    outer loop
      vertex 12.1073 3.10862 0
      vertex 11.6222 4.60156 -4.5
      vertex 11.6222 4.60156 0
    endloop
  endfacet
  facet normal 0.951054 0.309025 0
    outer loop
      vertex 11.6222 4.60156 -4.5
      vertex 12.1073 3.10862 0
      vertex 12.1073 3.10862 -4.5
    endloop
  endfacet
  facet normal 0.125306 0.992118 -0
    outer loop
      vertex 2.34227 12.2786 -4.5
      vertex 0.784881 12.4753 0
      vertex 2.34227 12.2786 0
    endloop
  endfacet
  facet normal 0.125306 0.992118 0
    outer loop
      vertex 0.784881 12.4753 0
      vertex 2.34227 12.2786 -4.5
      vertex 0.784881 12.4753 -4.5
    endloop
  endfacet
  facet normal -0.982292 0.187354 0
    outer loop
      vertex -12.4014 1.56666 -4.5
      vertex -12.1073 3.10862 0
      vertex -12.1073 3.10862 -4.5
    endloop
  endfacet
  facet normal -0.982292 0.187354 0
    outer loop
      vertex -12.1073 3.10862 0
      vertex -12.4014 1.56666 -4.5
      vertex -12.4014 1.56666 0
    endloop
  endfacet
  facet normal -0.844333 0.535819 0
    outer loop
      vertex -10.9538 6.02192 -4.5
      vertex -10.1127 7.34731 0
      vertex -10.1127 7.34731 -4.5
    endloop
  endfacet
  facet normal -0.844333 0.535819 0
    outer loop
      vertex -10.1127 7.34731 0
      vertex -10.9538 6.02192 -4.5
      vertex -10.9538 6.02192 0
    endloop
  endfacet
  facet normal -0.2487 0.96858 0
    outer loop
      vertex -2.34227 12.2786 -4.5
      vertex -3.86271 11.8882 0
      vertex -2.34227 12.2786 0
    endloop
  endfacet
  facet normal -0.2487 0.96858 0
    outer loop
      vertex -3.86271 11.8882 0
      vertex -2.34227 12.2786 -4.5
      vertex -3.86271 11.8882 -4.5
    endloop
  endfacet
  facet normal 0.481736 -0.876317 0
    outer loop
      vertex 5.32224 -11.3103 -4.5
      vertex 6.69783 -10.5541 0
      vertex 5.32224 -11.3103 0
    endloop
  endfacet
  facet normal 0.481736 -0.876317 0
    outer loop
      vertex 6.69783 -10.5541 0
      vertex 5.32224 -11.3103 -4.5
      vertex 6.69783 -10.5541 -4.5
    endloop
  endfacet
  facet normal 0.684548 -0.728968 0
    outer loop
      vertex 7.9678 -9.63142 -4.5
      vertex 9.11211 -8.55684 0
      vertex 7.9678 -9.63142 0
    endloop
  endfacet
  facet normal 0.684548 -0.728968 0
    outer loop
      vertex 9.11211 -8.55684 0
      vertex 7.9678 -9.63142 -4.5
      vertex 9.11211 -8.55684 -4.5
    endloop
  endfacet
  facet normal -0.368142 -0.92977 0
    outer loop
      vertex -5.32224 -11.3103 -4.5
      vertex -3.86271 -11.8882 0
      vertex -5.32224 -11.3103 0
    endloop
  endfacet
  facet normal -0.368142 -0.92977 -0
    outer loop
      vertex -3.86271 -11.8882 0
      vertex -5.32224 -11.3103 -4.5
      vertex -3.86271 -11.8882 -4.5
    endloop
  endfacet
  facet normal -0.125306 -0.992118 0
    outer loop
      vertex -2.34227 -12.2786 -4.5
      vertex -0.784881 -12.4753 0
      vertex -2.34227 -12.2786 0
    endloop
  endfacet
  facet normal -0.125306 -0.992118 -0
    outer loop
      vertex -0.784881 -12.4753 0
      vertex -2.34227 -12.2786 -4.5
      vertex -0.784881 -12.4753 -4.5
    endloop
  endfacet
  facet normal -0.998025 -0.0628122 0
    outer loop
      vertex -12.4014 -1.56666 -4.5
      vertex -12.5 0 0
      vertex -12.5 0 -4.5
    endloop
  endfacet
  facet normal -0.998025 -0.0628122 0
    outer loop
      vertex -12.5 0 0
      vertex -12.4014 -1.56666 -4.5
      vertex -12.4014 -1.56666 0
    endloop
  endfacet
  facet normal -0.951054 -0.309025 0
    outer loop
      vertex -11.6222 -4.60156 -4.5
      vertex -12.1073 -3.10862 0
      vertex -12.1073 -3.10862 -4.5
    endloop
  endfacet
  facet normal -0.951054 -0.309025 0
    outer loop
      vertex -12.1073 -3.10862 0
      vertex -11.6222 -4.60156 -4.5
      vertex -11.6222 -4.60156 0
    endloop
  endfacet
  facet normal -0.77052 -0.637416 0
    outer loop
      vertex -9.11211 -8.55684 -4.5
      vertex -10.1127 -7.34731 0
      vertex -10.1127 -7.34731 -4.5
    endloop
  endfacet
  facet normal -0.77052 -0.637416 0
    outer loop
      vertex -10.1127 -7.34731 0
      vertex -9.11211 -8.55684 -4.5
      vertex -9.11211 -8.55684 0
    endloop
  endfacet
  facet normal 0.951054 -0.309025 0
    outer loop
      vertex 11.6222 -4.60156 0
      vertex 12.1073 -3.10862 -4.5
      vertex 12.1073 -3.10862 0
    endloop
  endfacet
  facet normal 0.951054 -0.309025 0
    outer loop
      vertex 12.1073 -3.10862 -4.5
      vertex 11.6222 -4.60156 0
      vertex 11.6222 -4.60156 -4.5
    endloop
  endfacet
  facet normal 0.587782 -0.809019 0
    outer loop
      vertex 6.69783 -10.5541 -4.5
      vertex 7.9678 -9.63142 0
      vertex 6.69783 -10.5541 0
    endloop
  endfacet
  facet normal 0.587782 -0.809019 0
    outer loop
      vertex 7.9678 -9.63142 0
      vertex 6.69783 -10.5541 -4.5
      vertex 7.9678 -9.63142 -4.5
    endloop
  endfacet
  facet normal 0.77052 -0.637416 0
    outer loop
      vertex 9.11211 -8.55684 0
      vertex 10.1127 -7.34731 -4.5
      vertex 10.1127 -7.34731 0
    endloop
  endfacet
  facet normal 0.77052 -0.637416 0
    outer loop
      vertex 10.1127 -7.34731 -4.5
      vertex 9.11211 -8.55684 0
      vertex 9.11211 -8.55684 -4.5
    endloop
  endfacet
  facet normal -0.587782 -0.809019 0
    outer loop
      vertex -7.9678 -9.63142 -4.5
      vertex -6.69783 -10.5541 0
      vertex -7.9678 -9.63142 0
    endloop
  endfacet
  facet normal -0.587782 -0.809019 -0
    outer loop
      vertex -6.69783 -10.5541 0
      vertex -7.9678 -9.63142 -4.5
      vertex -6.69783 -10.5541 -4.5
    endloop
  endfacet
  facet normal 0 -1 0
    outer loop
      vertex -0.784881 -12.4753 -4.5
      vertex 0.784881 -12.4753 0
      vertex -0.784881 -12.4753 0
    endloop
  endfacet
  facet normal 0 -1 -0
    outer loop
      vertex 0.784881 -12.4753 0
      vertex -0.784881 -12.4753 -4.5
      vertex 0.784881 -12.4753 -4.5
    endloop
  endfacet
  facet normal -0.2487 -0.96858 0
    outer loop
      vertex -3.86271 -11.8882 -4.5
      vertex -2.34227 -12.2786 0
      vertex -3.86271 -11.8882 0
    endloop
  endfacet
  facet normal -0.2487 -0.96858 -0
    outer loop
      vertex -2.34227 -12.2786 0
      vertex -3.86271 -11.8882 -4.5
      vertex -2.34227 -12.2786 -4.5
    endloop
  endfacet
  facet normal 0 0 -1
    outer loop
      vertex 5.91425 0 -4.5
      vertex 12.5 0 -4.5
      vertex 12.4014 -1.56666 -4.5
    endloop
  endfacet
  facet normal 0 0 -1
    outer loop
      vertex 5.91425 0 -4.5
      vertex 12.4014 -1.56666 -4.5
      vertex 12.1073 -3.10862 -4.5
    endloop
  endfacet
  facet normal 0 0 -1
    outer loop
      vertex 12.5 0 -4.5
      vertex 5.91425 0 -4.5
      vertex 12.4014 1.56666 -4.5
    endloop
  endfacet
  facet normal 0 0 -1
    outer loop
      vertex 5.91425 0 -4.5
      vertex 12.1073 -3.10862 -4.5
      vertex 11.6222 -4.60156 -4.5
    endloop
  endfacet
  facet normal -0 0 -1
    outer loop
      vertex 12.4014 1.56666 -4.5
      vertex 5.91425 0 -4.5
      vertex 12.1073 3.10862 -4.5
    endloop
  endfacet
  facet normal 0 0 -1
    outer loop
      vertex 5.91425 0 -4.5
      vertex 11.6222 -4.60156 -4.5
      vertex 10.9538 -6.02192 -4.5
    endloop
  endfacet
  facet normal -0 0 -1
    outer loop
      vertex 12.1073 3.10862 -4.5
      vertex 5.91425 0 -4.5
      vertex 11.6222 4.60156 -4.5
    endloop
  endfacet
  facet normal 0 0 -1
    outer loop
      vertex 2.95712 -5.12189 -4.5
      vertex 10.9538 -6.02192 -4.5
      vertex 10.1127 -7.34731 -4.5
    endloop
  endfacet
  facet normal -0 0 -1
    outer loop
      vertex 11.6222 4.60156 -4.5
      vertex 5.91425 0 -4.5
      vertex 10.9538 6.02192 -4.5
    endloop
  endfacet
  facet normal 0 0 -1
    outer loop
      vertex 2.95712 -5.12189 -4.5
      vertex 10.1127 -7.34731 -4.5
      vertex 9.11211 -8.55684 -4.5
    endloop
  endfacet
  facet normal 0 0 -1
    outer loop
      vertex 2.95712 5.12189 -4.5
      vertex 10.9538 6.02192 -4.5
      vertex 5.91425 0 -4.5
    endloop
  endfacet
  facet normal 0 0 -1
    outer loop
      vertex 2.95712 -5.12189 -4.5
      vertex 9.11211 -8.55684 -4.5
      vertex 7.9678 -9.63142 -4.5
    endloop
  endfacet
  facet normal -0 0 -1
    outer loop
      vertex 10.9538 6.02192 -4.5
      vertex 2.95712 5.12189 -4.5
      vertex 10.1127 7.34731 -4.5
    endloop
  endfacet
  facet normal 0 0 -1
    outer loop
      vertex 2.95712 -5.12189 -4.5
      vertex 7.9678 -9.63142 -4.5
      vertex 6.69783 -10.5541 -4.5
    endloop
  endfacet
  facet normal -0 0 -1
    outer loop
      vertex 10.1127 7.34731 -4.5
      vertex 2.95712 5.12189 -4.5
      vertex 9.11211 8.55684 -4.5
    endloop
  endfacet
  facet normal -0 0 -1
    outer loop
      vertex 9.11211 8.55684 -4.5
      vertex 2.95712 5.12189 -4.5
      vertex 7.9678 9.63142 -4.5
    endloop
  endfacet
  facet normal 0 0 -1
    outer loop
      vertex 2.95712 -5.12189 -4.5
      vertex 6.69783 -10.5541 -4.5
      vertex 5.32224 -11.3103 -4.5
    endloop
  endfacet
  facet normal 0 0 -1
    outer loop
      vertex 2.95712 -5.12189 -4.5
      vertex 5.32224 -11.3103 -4.5
      vertex 3.86271 -11.8882 -4.5
    endloop
  endfacet
  facet normal 0 0 -1
    outer loop
      vertex 10.9538 -6.02192 -4.5
      vertex 2.95712 -5.12189 -4.5
      vertex 5.91425 0 -4.5
    endloop
  endfacet
  facet normal 0 0 -1
    outer loop
      vertex 2.34227 -12.2786 -4.5
      vertex 2.95712 -5.12189 -4.5
      vertex 3.86271 -11.8882 -4.5
    endloop
  endfacet
  facet normal 0 0 -1
    outer loop
      vertex 0.784881 -12.4753 -4.5
      vertex 2.95712 -5.12189 -4.5
      vertex 2.34227 -12.2786 -4.5
    endloop
  endfacet
  facet normal 0 0 -1
    outer loop
      vertex -0.784881 -12.4753 -4.5
      vertex 2.95712 -5.12189 -4.5
      vertex 0.784881 -12.4753 -4.5
    endloop
  endfacet
  facet normal 0 0 -1
    outer loop
      vertex -2.95712 -5.12189 -4.5
      vertex -0.784881 -12.4753 -4.5
      vertex -2.34227 -12.2786 -4.5
    endloop
  endfacet
  facet normal 0 0 -1
    outer loop
      vertex -0.784881 -12.4753 -4.5
      vertex -2.95712 -5.12189 -4.5
      vertex 2.95712 -5.12189 -4.5
    endloop
  endfacet
  facet normal 0 0 -1
    outer loop
      vertex -3.86271 -11.8882 -4.5
      vertex -2.95712 -5.12189 -4.5
      vertex -2.34227 -12.2786 -4.5
    endloop
  endfacet
  facet normal 0 0 -1
    outer loop
      vertex -5.32224 -11.3103 -4.5
      vertex -2.95712 -5.12189 -4.5
      vertex -3.86271 -11.8882 -4.5
    endloop
  endfacet
  facet normal 0 0 -1
    outer loop
      vertex -6.69783 -10.5541 -4.5
      vertex -2.95712 -5.12189 -4.5
      vertex -5.32224 -11.3103 -4.5
    endloop
  endfacet
  facet normal 0 0 -1
    outer loop
      vertex -7.9678 -9.63142 -4.5
      vertex -2.95712 -5.12189 -4.5
      vertex -6.69783 -10.5541 -4.5
    endloop
  endfacet
  facet normal -0 0 -1
    outer loop
      vertex 7.9678 9.63142 -4.5
      vertex 2.95712 5.12189 -4.5
      vertex 6.69783 10.5541 -4.5
    endloop
  endfacet
  facet normal -0 0 -1
    outer loop
      vertex 6.69783 10.5541 -4.5
      vertex 2.95712 5.12189 -4.5
      vertex 5.32224 11.3103 -4.5
    endloop
  endfacet
  facet normal -0 0 -1
    outer loop
      vertex 5.32224 11.3103 -4.5
      vertex 2.95712 5.12189 -4.5
      vertex 3.86271 11.8882 -4.5
    endloop
  endfacet
  facet normal 0 0 -1
    outer loop
      vertex 2.95712 5.12189 -4.5
      vertex 2.34227 12.2786 -4.5
      vertex 3.86271 11.8882 -4.5
    endloop
  endfacet
  facet normal 0 0 -1
    outer loop
      vertex 2.95712 5.12189 -4.5
      vertex 0.784881 12.4753 -4.5
      vertex 2.34227 12.2786 -4.5
    endloop
  endfacet
  facet normal 0 0 -1
    outer loop
      vertex 2.95712 5.12189 -4.5
      vertex -0.784881 12.4753 -4.5
      vertex 0.784881 12.4753 -4.5
    endloop
  endfacet
  facet normal 0 0 -1
    outer loop
      vertex -2.95712 5.12189 -4.5
      vertex -0.784881 12.4753 -4.5
      vertex 2.95712 5.12189 -4.5
    endloop
  endfacet
  facet normal 0 0 -1
    outer loop
      vertex -0.784881 12.4753 -4.5
      vertex -2.95712 5.12189 -4.5
      vertex -2.34227 12.2786 -4.5
    endloop
  endfacet
  facet normal 0 0 -1
    outer loop
      vertex -2.95712 5.12189 -4.5
      vertex -3.86271 11.8882 -4.5
      vertex -2.34227 12.2786 -4.5
    endloop
  endfacet
  facet normal 0 0 -1
    outer loop
      vertex -2.95712 5.12189 -4.5
      vertex -5.32224 11.3103 -4.5
      vertex -3.86271 11.8882 -4.5
    endloop
  endfacet
  facet normal 0 0 -1
    outer loop
      vertex -10.9538 6.02192 -4.5
      vertex -2.95712 5.12189 -4.5
      vertex -5.91425 0 -4.5
    endloop
  endfacet
  facet normal 0 0 -1
    outer loop
      vertex -9.11211 -8.55684 -4.5
      vertex -2.95712 -5.12189 -4.5
      vertex -7.9678 -9.63142 -4.5
    endloop
  endfacet
  facet normal 0 0 -1
    outer loop
      vertex -2.95712 5.12189 -4.5
      vertex -6.69783 10.5541 -4.5
      vertex -5.32224 11.3103 -4.5
    endloop
  endfacet
  facet normal 0 0 -1
    outer loop
      vertex -10.1127 -7.34731 -4.5
      vertex -2.95712 -5.12189 -4.5
      vertex -9.11211 -8.55684 -4.5
    endloop
  endfacet
  facet normal 0 0 -1
    outer loop
      vertex -2.95712 5.12189 -4.5
      vertex -7.9678 9.63142 -4.5
      vertex -6.69783 10.5541 -4.5
    endloop
  endfacet
  facet normal 0 0 -1
    outer loop
      vertex -10.9538 -6.02192 -4.5
      vertex -2.95712 -5.12189 -4.5
      vertex -10.1127 -7.34731 -4.5
    endloop
  endfacet
  facet normal 0 0 -1
    outer loop
      vertex -2.95712 5.12189 -4.5
      vertex -9.11211 8.55684 -4.5
      vertex -7.9678 9.63142 -4.5
    endloop
  endfacet
  facet normal -0 0 -1
    outer loop
      vertex -2.95712 -5.12189 -4.5
      vertex -10.9538 -6.02192 -4.5
      vertex -5.91425 0 -4.5
    endloop
  endfacet
  facet normal 0 0 -1
    outer loop
      vertex -2.95712 5.12189 -4.5
      vertex -10.1127 7.34731 -4.5
      vertex -9.11211 8.55684 -4.5
    endloop
  endfacet
  facet normal 0 0 -1
    outer loop
      vertex -11.6222 -4.60156 -4.5
      vertex -5.91425 0 -4.5
      vertex -10.9538 -6.02192 -4.5
    endloop
  endfacet
  facet normal 0 0 -1
    outer loop
      vertex -2.95712 5.12189 -4.5
      vertex -10.9538 6.02192 -4.5
      vertex -10.1127 7.34731 -4.5
    endloop
  endfacet
  facet normal 0 0 -1
    outer loop
      vertex -12.1073 -3.10862 -4.5
      vertex -5.91425 0 -4.5
      vertex -11.6222 -4.60156 -4.5
    endloop
  endfacet
  facet normal 0 0 -1
    outer loop
      vertex -5.91425 0 -4.5
      vertex -11.6222 4.60156 -4.5
      vertex -10.9538 6.02192 -4.5
    endloop
  endfacet
  facet normal 0 0 -1
    outer loop
      vertex -12.4014 -1.56666 -4.5
      vertex -5.91425 0 -4.5
      vertex -12.1073 -3.10862 -4.5
    endloop
  endfacet
  facet normal 0 0 -1
    outer loop
      vertex -5.91425 0 -4.5
      vertex -12.1073 3.10862 -4.5
      vertex -11.6222 4.60156 -4.5
    endloop
  endfacet
  facet normal 0 0 -1
    outer loop
      vertex -12.5 0 -4.5
      vertex -5.91425 0 -4.5
      vertex -12.4014 -1.56666 -4.5
    endloop
  endfacet
  facet normal 0 0 -1
    outer loop
      vertex -5.91425 0 -4.5
      vertex -12.4014 1.56666 -4.5
      vertex -12.1073 3.10862 -4.5
    endloop
  endfacet
  facet normal 0 0 -1
    outer loop
      vertex -5.91425 0 -4.5
      vertex -12.5 0 -4.5
      vertex -12.4014 1.56666 -4.5
    endloop
  endfacet
  facet normal -0.982292 -0.187354 0
    outer loop
      vertex -12.1073 -3.10862 -4.5
      vertex -12.4014 -1.56666 0
      vertex -12.4014 -1.56666 -4.5
    endloop
  endfacet
  facet normal -0.982292 -0.187354 0
    outer loop
      vertex -12.4014 -1.56666 0
      vertex -12.1073 -3.10862 -4.5
      vertex -12.1073 -3.10862 0
    endloop
  endfacet
  facet normal -0.684548 -0.728968 0
    outer loop
      vertex -9.11211 -8.55684 -4.5
      vertex -7.9678 -9.63142 0
      vertex -9.11211 -8.55684 0
    endloop
  endfacet
  facet normal -0.684548 -0.728968 -0
    outer loop
      vertex -7.9678 -9.63142 0
      vertex -9.11211 -8.55684 -4.5
      vertex -7.9678 -9.63142 -4.5
    endloop
  endfacet
  facet normal -0.90482 -0.425795 0
    outer loop
      vertex -10.9538 -6.02192 -4.5
      vertex -11.6222 -4.60156 0
      vertex -11.6222 -4.60156 -4.5
    endloop
  endfacet
  facet normal -0.90482 -0.425795 0
    outer loop
      vertex -11.6222 -4.60156 0
      vertex -10.9538 -6.02192 -4.5
      vertex -10.9538 -6.02192 0
    endloop
  endfacet
  facet normal -0.481736 -0.876317 0
    outer loop
      vertex -6.69783 -10.5541 -4.5
      vertex -5.32224 -11.3103 0
      vertex -6.69783 -10.5541 0
    endloop
  endfacet
  facet normal -0.481736 -0.876317 -0
    outer loop
      vertex -5.32224 -11.3103 0
      vertex -6.69783 -10.5541 -4.5
      vertex -5.32224 -11.3103 -4.5
    endloop
  endfacet
  facet normal -0.844333 -0.535819 0
    outer loop
      vertex -10.1127 -7.34731 -4.5
      vertex -10.9538 -6.02192 0
      vertex -10.9538 -6.02192 -4.5
    endloop
  endfacet
  facet normal -0.844333 -0.535819 0
    outer loop
      vertex -10.9538 -6.02192 0
      vertex -10.1127 -7.34731 -4.5
      vertex -10.1127 -7.34731 0
    endloop
  endfacet
endsolid OpenSCAD_Model
