solid OpenSCAD_Model
  facet normal 0.994593 0.062576 0.0828827
    outer loop
      vertex 6.125 0 0
      vertex 6.375 0 -3
      vertex 6.32473 0.798999 -3
    endloop
  endfacet
  facet normal -0.682193 -0.726459 0.082883
    outer loop
      vertex -4.64717 -4.36399 -3
      vertex -4.06358 -4.91202 -3
      vertex -4.46493 -4.19285 0
    endloop
  endfacet
  facet normal 0 0 -1
    outer loop
      vertex 6.32473 -0.798999 -3
      vertex 6.32473 0.798999 -3
      vertex 6.375 0 -3
    endloop
  endfacet
  facet normal 0 0 -1
    outer loop
      vertex 6.17472 -1.5854 -3
      vertex 6.32473 0.798999 -3
      vertex 6.32473 -0.798999 -3
    endloop
  endfacet
  facet normal 0 0 -1
    outer loop
      vertex 6.17472 -1.5854 -3
      vertex 6.17472 1.5854 -3
      vertex 6.32473 0.798999 -3
    endloop
  endfacet
  facet normal 0 0 -1
    outer loop
      vertex 5.92732 -2.34679 -3
      vertex 6.17472 1.5854 -3
      vertex 6.17472 -1.5854 -3
    endloop
  endfacet
  facet normal 0 0 -1
    outer loop
      vertex 5.92732 -2.34679 -3
      vertex 5.92732 2.34679 -3
      vertex 6.17472 1.5854 -3
    endloop
  endfacet
  facet normal 0 0 -1
    outer loop
      vertex 5.58645 -3.07118 -3
      vertex 5.92732 2.34679 -3
      vertex 5.92732 -2.34679 -3
    endloop
  endfacet
  facet normal 0 0 -1
    outer loop
      vertex 5.58645 -3.07118 -3
      vertex 5.58645 3.07118 -3
      vertex 5.92732 2.34679 -3
    endloop
  endfacet
  facet normal 0 0 -1
    outer loop
      vertex 5.15748 -3.74713 -3
      vertex 5.58645 3.07118 -3
      vertex 5.58645 -3.07118 -3
    endloop
  endfacet
  facet normal 0 0 -1
    outer loop
      vertex 5.15748 -3.74713 -3
      vertex 5.15748 3.74713 -3
      vertex 5.58645 3.07118 -3
    endloop
  endfacet
  facet normal 0 0 -1
    outer loop
      vertex 4.64717 -4.36399 -3
      vertex 5.15748 3.74713 -3
      vertex 5.15748 -3.74713 -3
    endloop
  endfacet
  facet normal 0 0 -1
    outer loop
      vertex 4.64717 -4.36399 -3
      vertex 4.64717 4.36399 -3
      vertex 5.15748 3.74713 -3
    endloop
  endfacet
  facet normal 0 0 -1
    outer loop
      vertex 4.06358 -4.91202 -3
      vertex 4.64717 4.36399 -3
      vertex 4.64717 -4.36399 -3
    endloop
  endfacet
  facet normal 0 0 -1
    outer loop
      vertex 4.06358 -4.91202 -3
      vertex 4.06358 4.91202 -3
      vertex 4.64717 4.36399 -3
    endloop
  endfacet
  facet normal 0 0 -1
    outer loop
      vertex 3.4159 -5.38259 -3
      vertex 4.06358 4.91202 -3
      vertex 4.06358 -4.91202 -3
    endloop
  endfacet
  facet normal 0 0 -1
    outer loop
      vertex 3.4159 -5.38259 -3
      vertex 3.4159 5.38259 -3
      vertex 4.06358 4.91202 -3
    endloop
  endfacet
  facet normal 0 0 -1
    outer loop
      vertex 2.71434 -5.76827 -3
      vertex 3.4159 5.38259 -3
      vertex 3.4159 -5.38259 -3
    endloop
  endfacet
  facet normal 0 0 -1
    outer loop
      vertex 2.71434 -5.76827 -3
      vertex 2.71434 5.76827 -3
      vertex 3.4159 5.38259 -3
    endloop
  endfacet
  facet normal 0 0 -1
    outer loop
      vertex 1.96998 -6.06298 -3
      vertex 2.71434 5.76827 -3
      vertex 2.71434 -5.76827 -3
    endloop
  endfacet
  facet normal 0 0 -1
    outer loop
      vertex 1.96998 -6.06298 -3
      vertex 1.96998 6.06298 -3
      vertex 2.71434 5.76827 -3
    endloop
  endfacet
  facet normal 0 0 -1
    outer loop
      vertex 1.19456 -6.26208 -3
      vertex 1.96998 6.06298 -3
      vertex 1.96998 -6.06298 -3
    endloop
  endfacet
  facet normal 0 0 -1
    outer loop
      vertex 1.19456 -6.26208 -3
      vertex 1.19456 6.26208 -3
      vertex 1.96998 6.06298 -3
    endloop
  endfacet
  facet normal 0 0 -1
    outer loop
      vertex 0.40029 -6.36242 -3
      vertex 1.19456 6.26208 -3
      vertex 1.19456 -6.26208 -3
    endloop
  endfacet
  facet normal 0 0 -1
    outer loop
      vertex 0.40029 -6.36242 -3
      vertex 0.40029 6.36242 -3
      vertex 1.19456 6.26208 -3
    endloop
  endfacet
  facet normal 0 0 -1
    outer loop
      vertex -0.40029 -6.36242 -3
      vertex 0.40029 6.36242 -3
      vertex 0.40029 -6.36242 -3
    endloop
  endfacet
  facet normal 0 0 -1
    outer loop
      vertex -0.40029 -6.36242 -3
      vertex -0.40029 6.36242 -3
      vertex 0.40029 6.36242 -3
    endloop
  endfacet
  facet normal 0 0 -1
    outer loop
      vertex -1.19456 -6.26208 -3
      vertex -0.40029 6.36242 -3
      vertex -0.40029 -6.36242 -3
    endloop
  endfacet
  facet normal 0 0 -1
    outer loop
      vertex -1.19456 -6.26208 -3
      vertex -1.19456 6.26208 -3
      vertex -0.40029 6.36242 -3
    endloop
  endfacet
  facet normal 0 0 -1
    outer loop
      vertex -1.96998 -6.06298 -3
      vertex -1.19456 6.26208 -3
      vertex -1.19456 -6.26208 -3
    endloop
  endfacet
  facet normal 0 0 -1
    outer loop
      vertex -1.96998 -6.06298 -3
      vertex -1.96998 6.06298 -3
      vertex -1.19456 6.26208 -3
    endloop
  endfacet
  facet normal 0 0 -1
    outer loop
      vertex -2.71434 -5.76827 -3
      vertex -1.96998 6.06298 -3
      vertex -1.96998 -6.06298 -3
    endloop
  endfacet
  facet normal 0 0 -1
    outer loop
      vertex -2.71434 -5.76827 -3
      vertex -2.71434 5.76827 -3
      vertex -1.96998 6.06298 -3
    endloop
  endfacet
  facet normal 0 0 -1
    outer loop
      vertex -3.4159 -5.38259 -3
      vertex -2.71434 5.76827 -3
      vertex -2.71434 -5.76827 -3
    endloop
  endfacet
  facet normal 0 0 -1
    outer loop
      vertex -3.4159 -5.38259 -3
      vertex -3.4159 5.38259 -3
      vertex -2.71434 5.76827 -3
    endloop
  endfacet
  facet normal 0 0 -1
    outer loop
      vertex -4.06358 -4.91202 -3
      vertex -3.4159 5.38259 -3
      vertex -3.4159 -5.38259 -3
    endloop
  endfacet
  facet normal 0 0 -1
    outer loop
      vertex -4.06358 -4.91202 -3
      vertex -4.06358 4.91202 -3
      vertex -3.4159 5.38259 -3
    endloop
  endfacet
  facet normal 0 0 -1
    outer loop
      vertex -4.64717 -4.36399 -3
      vertex -4.06358 4.91202 -3
      vertex -4.06358 -4.91202 -3
    endloop
  endfacet
  facet normal 0 0 -1
    outer loop
      vertex -4.64717 -4.36399 -3
      vertex -4.64717 4.36399 -3
      vertex -4.06358 4.91202 -3
    endloop
  endfacet
  facet normal 0 0 -1
    outer loop
      vertex -5.15748 -3.74713 -3
      vertex -4.64717 4.36399 -3
      vertex -4.64717 -4.36399 -3
    endloop
  endfacet
  facet normal 0 0 -1
    outer loop
      vertex -5.15748 -3.74713 -3
      vertex -5.15748 3.74713 -3
      vertex -4.64717 4.36399 -3
    endloop
  endfacet
  facet normal 0 0 -1
    outer loop
      vertex -5.58645 -3.07118 -3
      vertex -5.15748 3.74713 -3
      vertex -5.15748 -3.74713 -3
    endloop
  endfacet
  facet normal 0 0 -1
    outer loop
      vertex -5.58645 -3.07118 -3
      vertex -5.58645 3.07118 -3
      vertex -5.15748 3.74713 -3
    endloop
  endfacet
  facet normal 0 0 -1
    outer loop
      vertex -5.92732 -2.34679 -3
      vertex -5.58645 3.07118 -3
      vertex -5.58645 -3.07118 -3
    endloop
  endfacet
  facet normal 0 0 -1
    outer loop
      vertex -5.92732 -2.34679 -3
      vertex -5.92732 2.34679 -3
      vertex -5.58645 3.07118 -3
    endloop
  endfacet
  facet normal 0 0 -1
    outer loop
      vertex -6.17472 -1.5854 -3
      vertex -5.92732 2.34679 -3
      vertex -5.92732 -2.34679 -3
    endloop
  endfacet
  facet normal 0 0 -1
    outer loop
      vertex -6.17472 -1.5854 -3
      vertex -6.17472 1.5854 -3
      vertex -5.92732 2.34679 -3
    endloop
  endfacet
  facet normal 0 0 -1
    outer loop
      vertex -6.32473 -0.798999 -3
      vertex -6.17472 1.5854 -3
      vertex -6.17472 -1.5854 -3
    endloop
  endfacet
  facet normal 0 0 -1
    outer loop
      vertex -6.32473 -0.798999 -3
      vertex -6.32473 0.798999 -3
      vertex -6.17472 1.5854 -3
    endloop
  endfacet
  facet normal 0 -0 -1
    outer loop
      vertex -6.32473 0.798999 -3
      vertex -6.32473 -0.798999 -3
      vertex -6.375 0 -3
    endloop
  endfacet
  facet normal 0.124902 0.988701 0.0828823
    outer loop
      vertex 0.40029 6.36242 -3
      vertex 1.14771 6.01651 0
      vertex 1.19456 6.26208 -3
    endloop
  endfacet
  facet normal 0.901716 0.424311 0.0828809
    outer loop
      vertex 5.36738 2.95074 0
      vertex 5.69488 2.25476 0
      vertex 5.58645 3.07118 -3
    endloop
  endfacet
  facet normal -0.124896 -0.988702 0.0828839
    outer loop
      vertex -1.14771 -6.01651 0
      vertex -0.40029 -6.36242 -3
      vertex -0.384591 -6.11291 0
    endloop
  endfacet
  facet normal -0.682191 0.726462 0.0828841
    outer loop
      vertex -4.46493 4.19285 0
      vertex -3.90422 4.71939 0
      vertex -4.06358 4.91202 -3
    endloop
  endfacet
  facet normal 0.767863 0.63523 0.0828824
    outer loop
      vertex 4.64717 4.36399 -3
      vertex 4.95523 3.60018 0
      vertex 5.15748 3.74713 -3
    endloop
  endfacet
  facet normal -0.767863 -0.63523 0.0828824
    outer loop
      vertex -5.15748 -3.74713 -3
      vertex -4.64717 -4.36399 -3
      vertex -4.95523 -3.60018 0
    endloop
  endfacet
  facet normal -0.901715 0.424312 0.0828814
    outer loop
      vertex -5.92732 2.34679 -3
      vertex -5.69488 2.25476 0
      vertex -5.58645 3.07118 -3
    endloop
  endfacet
  facet normal -0.124902 -0.988701 0.0828823
    outer loop
      vertex -1.19456 -6.26208 -3
      vertex -0.40029 -6.36242 -3
      vertex -1.14771 -6.01651 0
    endloop
  endfacet
  facet normal 0.247841 -0.965249 0.0828811
    outer loop
      vertex 1.19456 -6.26208 -3
      vertex 1.96998 -6.06298 -3
      vertex 1.89273 -5.82522 0
    endloop
  endfacet
  facet normal 0.978908 -0.186732 0.0828845
    outer loop
      vertex 5.93257 -1.52322 0
      vertex 6.17472 -1.5854 -3
      vertex 6.32473 -0.798999 -3
    endloop
  endfacet
  facet normal 0.366855 0.926579 0.082881
    outer loop
      vertex 1.89273 5.82522 0
      vertex 2.71434 5.76827 -3
      vertex 1.96998 6.06298 -3
    endloop
  endfacet
  facet normal 0.841421 0.533986 0.0828822
    outer loop
      vertex 4.95523 3.60018 0
      vertex 5.36738 2.95074 0
      vertex 5.15748 3.74713 -3
    endloop
  endfacet
  facet normal 0.841423 0.533982 0.0828812
    outer loop
      vertex 5.15748 3.74713 -3
      vertex 5.36738 2.95074 0
      vertex 5.58645 3.07118 -3
    endloop
  endfacet
  facet normal 0.682191 0.726462 0.0828841
    outer loop
      vertex 3.90422 4.71939 0
      vertex 4.46493 4.19285 0
      vertex 4.06358 4.91202 -3
    endloop
  endfacet
  facet normal 0.978908 0.186732 0.0828845
    outer loop
      vertex 5.93257 1.52322 0
      vertex 6.32473 0.798999 -3
      vertex 6.17472 1.5854 -3
    endloop
  endfacet
  facet normal 0.994593 0.0625778 0.0828832
    outer loop
      vertex 6.0767 0.767666 0
      vertex 6.125 0 0
      vertex 6.32473 0.798999 -3
    endloop
  endfacet
  facet normal 0.978907 0.186737 0.0828831
    outer loop
      vertex 5.93257 1.52322 0
      vertex 6.0767 0.767666 0
      vertex 6.32473 0.798999 -3
    endloop
  endfacet
  facet normal -0.994593 -0.0625778 0.0828832
    outer loop
      vertex -6.32473 -0.798999 -3
      vertex -6.0767 -0.767666 0
      vertex -6.125 0 0
    endloop
  endfacet
  facet normal 0 0 1
    outer loop
      vertex 6.0767 0.767666 0
      vertex 6.0767 -0.767666 0
      vertex 6.125 0 0
    endloop
  endfacet
  facet normal 0 0 1
    outer loop
      vertex 5.93257 1.52322 0
      vertex 6.0767 -0.767666 0
      vertex 6.0767 0.767666 0
    endloop
  endfacet
  facet normal 0 0 1
    outer loop
      vertex 5.93257 1.52322 0
      vertex 5.93257 -1.52322 0
      vertex 6.0767 -0.767666 0
    endloop
  endfacet
  facet normal 0 0 1
    outer loop
      vertex 5.69488 2.25476 0
      vertex 5.93257 -1.52322 0
      vertex 5.93257 1.52322 0
    endloop
  endfacet
  facet normal 0 0 1
    outer loop
      vertex 5.69488 2.25476 0
      vertex 5.69488 -2.25476 0
      vertex 5.93257 -1.52322 0
    endloop
  endfacet
  facet normal 0 0 1
    outer loop
      vertex 5.36738 2.95074 0
      vertex 5.69488 -2.25476 0
      vertex 5.69488 2.25476 0
    endloop
  endfacet
  facet normal 0 0 1
    outer loop
      vertex 5.36738 2.95074 0
      vertex 5.36738 -2.95074 0
      vertex 5.69488 -2.25476 0
    endloop
  endfacet
  facet normal 0 0 1
    outer loop
      vertex 4.95523 3.60018 0
      vertex 5.36738 -2.95074 0
      vertex 5.36738 2.95074 0
    endloop
  endfacet
  facet normal 0 0 1
    outer loop
      vertex 4.95523 3.60018 0
      vertex 4.95523 -3.60018 0
      vertex 5.36738 -2.95074 0
    endloop
  endfacet
  facet normal 0 0 1
    outer loop
      vertex 4.46493 4.19285 0
      vertex 4.95523 -3.60018 0
      vertex 4.95523 3.60018 0
    endloop
  endfacet
  facet normal 0 0 1
    outer loop
      vertex 4.46493 4.19285 0
      vertex 4.46493 -4.19285 0
      vertex 4.95523 -3.60018 0
    endloop
  endfacet
  facet normal 0 0 1
    outer loop
      vertex 3.90422 4.71939 0
      vertex 4.46493 -4.19285 0
      vertex 4.46493 4.19285 0
    endloop
  endfacet
  facet normal 0 0 1
    outer loop
      vertex 3.90422 4.71939 0
      vertex 3.90422 -4.71939 0
      vertex 4.46493 -4.19285 0
    endloop
  endfacet
  facet normal 0 0 1
    outer loop
      vertex 3.28194 5.17151 0
      vertex 3.90422 -4.71939 0
      vertex 3.90422 4.71939 0
    endloop
  endfacet
  facet normal 0 0 1
    outer loop
      vertex 3.28194 5.17151 0
      vertex 3.28194 -5.17151 0
      vertex 3.90422 -4.71939 0
    endloop
  endfacet
  facet normal 0 0 1
    outer loop
      vertex 2.6079 5.54207 0
      vertex 3.28194 -5.17151 0
      vertex 3.28194 5.17151 0
    endloop
  endfacet
  facet normal 0 0 1
    outer loop
      vertex 2.6079 5.54207 0
      vertex 2.6079 -5.54207 0
      vertex 3.28194 -5.17151 0
    endloop
  endfacet
  facet normal 0 0 1
    outer loop
      vertex 1.89273 5.82522 0
      vertex 2.6079 -5.54207 0
      vertex 2.6079 5.54207 0
    endloop
  endfacet
  facet normal 0 0 1
    outer loop
      vertex 1.89273 5.82522 0
      vertex 1.89273 -5.82522 0
      vertex 2.6079 -5.54207 0
    endloop
  endfacet
  facet normal 0 0 1
    outer loop
      vertex 1.14771 6.01651 0
      vertex 1.89273 -5.82522 0
      vertex 1.89273 5.82522 0
    endloop
  endfacet
  facet normal 0 0 1
    outer loop
      vertex 1.14771 6.01651 0
      vertex 1.14771 -6.01651 0
      vertex 1.89273 -5.82522 0
    endloop
  endfacet
  facet normal 0 0 1
    outer loop
      vertex 0.384591 6.11291 0
      vertex 1.14771 -6.01651 0
      vertex 1.14771 6.01651 0
    endloop
  endfacet
  facet normal 0 0 1
    outer loop
      vertex 0.384591 6.11291 0
      vertex 0.384591 -6.11291 0
      vertex 1.14771 -6.01651 0
    endloop
  endfacet
  facet normal -0 0 1
    outer loop
      vertex -0.384591 6.11291 0
      vertex 0.384591 -6.11291 0
      vertex 0.384591 6.11291 0
    endloop
  endfacet
  facet normal 0 0 1
    outer loop
      vertex -0.384591 6.11291 0
      vertex -0.384591 -6.11291 0
      vertex 0.384591 -6.11291 0
    endloop
  endfacet
  facet normal -0 0 1
    outer loop
      vertex -1.14771 6.01651 0
      vertex -0.384591 -6.11291 0
      vertex -0.384591 6.11291 0
    endloop
  endfacet
  facet normal 0 0 1
    outer loop
      vertex -1.14771 6.01651 0
      vertex -1.14771 -6.01651 0
      vertex -0.384591 -6.11291 0
    endloop
  endfacet
  facet normal -0 0 1
    outer loop
      vertex -1.89273 5.82522 0
      vertex -1.14771 -6.01651 0
      vertex -1.14771 6.01651 0
    endloop
  endfacet
  facet normal 0 0 1
    outer loop
      vertex -1.89273 5.82522 0
      vertex -1.89273 -5.82522 0
      vertex -1.14771 -6.01651 0
    endloop
  endfacet
  facet normal -0 0 1
    outer loop
      vertex -2.6079 5.54207 0
      vertex -1.89273 -5.82522 0
      vertex -1.89273 5.82522 0
    endloop
  endfacet
  facet normal 0 0 1
    outer loop
      vertex -2.6079 5.54207 0
      vertex -2.6079 -5.54207 0
      vertex -1.89273 -5.82522 0
    endloop
  endfacet
  facet normal -0 0 1
    outer loop
      vertex -3.28194 5.17151 0
      vertex -2.6079 -5.54207 0
      vertex -2.6079 5.54207 0
    endloop
  endfacet
  facet normal 0 0 1
    outer loop
      vertex -3.28194 5.17151 0
      vertex -3.28194 -5.17151 0
      vertex -2.6079 -5.54207 0
    endloop
  endfacet
  facet normal -0 0 1
    outer loop
      vertex -3.90422 4.71939 0
      vertex -3.28194 -5.17151 0
      vertex -3.28194 5.17151 0
    endloop
  endfacet
  facet normal 0 0 1
    outer loop
      vertex -3.90422 4.71939 0
      vertex -3.90422 -4.71939 0
      vertex -3.28194 -5.17151 0
    endloop
  endfacet
  facet normal -0 0 1
    outer loop
      vertex -4.46493 4.19285 0
      vertex -3.90422 -4.71939 0
      vertex -3.90422 4.71939 0
    endloop
  endfacet
  facet normal 0 0 1
    outer loop
      vertex -4.46493 4.19285 0
      vertex -4.46493 -4.19285 0
      vertex -3.90422 -4.71939 0
    endloop
  endfacet
  facet normal -0 0 1
    outer loop
      vertex -4.95523 3.60018 0
      vertex -4.46493 -4.19285 0
      vertex -4.46493 4.19285 0
    endloop
  endfacet
  facet normal 0 0 1
    outer loop
      vertex -4.95523 3.60018 0
      vertex -4.95523 -3.60018 0
      vertex -4.46493 -4.19285 0
    endloop
  endfacet
  facet normal -0 0 1
    outer loop
      vertex -5.36738 2.95074 0
      vertex -4.95523 -3.60018 0
      vertex -4.95523 3.60018 0
    endloop
  endfacet
  facet normal 0 0 1
    outer loop
      vertex -5.36738 2.95074 0
      vertex -5.36738 -2.95074 0
      vertex -4.95523 -3.60018 0
    endloop
  endfacet
  facet normal -0 0 1
    outer loop
      vertex -5.69488 2.25476 0
      vertex -5.36738 -2.95074 0
      vertex -5.36738 2.95074 0
    endloop
  endfacet
  facet normal 0 0 1
    outer loop
      vertex -5.69488 2.25476 0
      vertex -5.69488 -2.25476 0
      vertex -5.36738 -2.95074 0
    endloop
  endfacet
  facet normal -0 0 1
    outer loop
      vertex -5.93257 1.52322 0
      vertex -5.69488 -2.25476 0
      vertex -5.69488 2.25476 0
    endloop
  endfacet
  facet normal 0 0 1
    outer loop
      vertex -5.93257 1.52322 0
      vertex -5.93257 -1.52322 0
      vertex -5.69488 -2.25476 0
    endloop
  endfacet
  facet normal -0 0 1
    outer loop
      vertex -6.0767 0.767666 0
      vertex -5.93257 -1.52322 0
      vertex -5.93257 1.52322 0
    endloop
  endfacet
  facet normal 0 0 1
    outer loop
      vertex -6.0767 0.767666 0
      vertex -6.0767 -0.767666 0
      vertex -5.93257 -1.52322 0
    endloop
  endfacet
  facet normal 0 -0 1
    outer loop
      vertex -6.0767 -0.767666 0
      vertex -6.0767 0.767666 0
      vertex -6.125 0 0
    endloop
  endfacet
  facet normal -0.978907 -0.186737 0.0828831
    outer loop
      vertex -6.32473 -0.798999 -3
      vertex -5.93257 -1.52322 0
      vertex -6.0767 -0.767666 0
    endloop
  endfacet
  facet normal -0.947785 0.307952 0.0828848
    outer loop
      vertex -6.17472 1.5854 -3
      vertex -5.93257 1.52322 0
      vertex -5.69488 2.25476 0
    endloop
  endfacet
  facet normal -0.947781 0.307964 0.0828814
    outer loop
      vertex -6.17472 1.5854 -3
      vertex -5.69488 2.25476 0
      vertex -5.92732 2.34679 -3
    endloop
  endfacet
  facet normal -0.767863 0.63523 0.0828824
    outer loop
      vertex -5.15748 3.74713 -3
      vertex -4.95523 3.60018 0
      vertex -4.64717 4.36399 -3
    endloop
  endfacet
  facet normal -0.682191 -0.726462 0.0828841
    outer loop
      vertex -4.46493 -4.19285 0
      vertex -4.06358 -4.91202 -3
      vertex -3.90422 -4.71939 0
    endloop
  endfacet
  facet normal -0.480091 -0.873295 0.08288
    outer loop
      vertex -3.4159 -5.38259 -3
      vertex -2.71434 -5.76827 -3
      vertex -2.6079 -5.54207 0
    endloop
  endfacet
  facet normal -0.585765 -0.806232 0.0828828
    outer loop
      vertex -4.06358 -4.91202 -3
      vertex -3.4159 -5.38259 -3
      vertex -3.28194 -5.17151 0
    endloop
  endfacet
  facet normal -0.366855 -0.926579 0.082881
    outer loop
      vertex -2.71434 -5.76827 -3
      vertex -1.96998 -6.06298 -3
      vertex -1.89273 -5.82522 0
    endloop
  endfacet
  facet normal 0.247836 -0.96525 0.0828825
    outer loop
      vertex 1.14771 -6.01651 0
      vertex 1.19456 -6.26208 -3
      vertex 1.89273 -5.82522 0
    endloop
  endfacet
  facet normal 0.480091 -0.873295 0.08288
    outer loop
      vertex 2.6079 -5.54207 0
      vertex 2.71434 -5.76827 -3
      vertex 3.4159 -5.38259 -3
    endloop
  endfacet
  facet normal 0.682191 -0.726462 0.0828841
    outer loop
      vertex 3.90422 -4.71939 0
      vertex 4.06358 -4.91202 -3
      vertex 4.46493 -4.19285 0
    endloop
  endfacet
  facet normal 0.994593 -0.062576 0.0828827
    outer loop
      vertex 6.125 0 0
      vertex 6.32473 -0.798999 -3
      vertex 6.375 0 -3
    endloop
  endfacet
  facet normal 0.901716 -0.424311 0.0828809
    outer loop
      vertex 5.36738 -2.95074 0
      vertex 5.58645 -3.07118 -3
      vertex 5.69488 -2.25476 0
    endloop
  endfacet
  facet normal -0.247836 0.96525 0.0828825
    outer loop
      vertex -1.89273 5.82522 0
      vertex -1.14771 6.01651 0
      vertex -1.19456 6.26208 -3
    endloop
  endfacet
  facet normal -0.366855 0.926579 0.082881
    outer loop
      vertex -2.71434 5.76827 -3
      vertex -1.89273 5.82522 0
      vertex -1.96998 6.06298 -3
    endloop
  endfacet
  facet normal -0.682193 0.726459 0.082883
    outer loop
      vertex -4.64717 4.36399 -3
      vertex -4.46493 4.19285 0
      vertex -4.06358 4.91202 -3
    endloop
  endfacet
  facet normal 0.247836 0.96525 0.0828825
    outer loop
      vertex 1.14771 6.01651 0
      vertex 1.89273 5.82522 0
      vertex 1.19456 6.26208 -3
    endloop
  endfacet
  facet normal 0.247841 0.965249 0.0828811
    outer loop
      vertex 1.19456 6.26208 -3
      vertex 1.89273 5.82522 0
      vertex 1.96998 6.06298 -3
    endloop
  endfacet
  facet normal 0.585769 0.806229 0.082884
    outer loop
      vertex 3.28194 5.17151 0
      vertex 3.90422 4.71939 0
      vertex 4.06358 4.91202 -3
    endloop
  endfacet
  facet normal 0.682193 0.726459 0.082883
    outer loop
      vertex 4.06358 4.91202 -3
      vertex 4.46493 4.19285 0
      vertex 4.64717 4.36399 -3
    endloop
  endfacet
  facet normal 0.767862 0.635231 0.0828829
    outer loop
      vertex 4.46493 4.19285 0
      vertex 4.95523 3.60018 0
      vertex 4.64717 4.36399 -3
    endloop
  endfacet
  facet normal 0.901715 0.424312 0.0828814
    outer loop
      vertex 5.58645 3.07118 -3
      vertex 5.69488 2.25476 0
      vertex 5.92732 2.34679 -3
    endloop
  endfacet
  facet normal 0.947781 0.307964 0.0828814
    outer loop
      vertex 5.69488 2.25476 0
      vertex 6.17472 1.5854 -3
      vertex 5.92732 2.34679 -3
    endloop
  endfacet
  facet normal 0.947785 0.307952 0.0828848
    outer loop
      vertex 5.69488 2.25476 0
      vertex 5.93257 1.52322 0
      vertex 6.17472 1.5854 -3
    endloop
  endfacet
  facet normal -0.767862 -0.635231 0.0828829
    outer loop
      vertex -4.95523 -3.60018 0
      vertex -4.64717 -4.36399 -3
      vertex -4.46493 -4.19285 0
    endloop
  endfacet
  facet normal -0.994593 -0.062576 0.0828827
    outer loop
      vertex -6.375 0 -3
      vertex -6.32473 -0.798999 -3
      vertex -6.125 0 0
    endloop
  endfacet
  facet normal -0.901715 -0.424312 0.0828814
    outer loop
      vertex -5.92732 -2.34679 -3
      vertex -5.58645 -3.07118 -3
      vertex -5.69488 -2.25476 0
    endloop
  endfacet
  facet normal -0.947781 -0.307964 0.0828814
    outer loop
      vertex -6.17472 -1.5854 -3
      vertex -5.92732 -2.34679 -3
      vertex -5.69488 -2.25476 0
    endloop
  endfacet
  facet normal -0.947785 -0.307952 0.0828848
    outer loop
      vertex -6.17472 -1.5854 -3
      vertex -5.69488 -2.25476 0
      vertex -5.93257 -1.52322 0
    endloop
  endfacet
  facet normal -0.994593 0.062576 0.0828827
    outer loop
      vertex -6.375 0 -3
      vertex -6.125 0 0
      vertex -6.32473 0.798999 -3
    endloop
  endfacet
  facet normal -0.841423 0.533982 0.0828812
    outer loop
      vertex -5.58645 3.07118 -3
      vertex -5.36738 2.95074 0
      vertex -5.15748 3.74713 -3
    endloop
  endfacet
  facet normal -0.901716 0.424311 0.0828809
    outer loop
      vertex -5.69488 2.25476 0
      vertex -5.36738 2.95074 0
      vertex -5.58645 3.07118 -3
    endloop
  endfacet
  facet normal -0.480099 -0.87329 0.0828827
    outer loop
      vertex -3.4159 -5.38259 -3
      vertex -2.6079 -5.54207 0
      vertex -3.28194 -5.17151 0
    endloop
  endfacet
  facet normal -0.247841 -0.965249 0.0828811
    outer loop
      vertex -1.96998 -6.06298 -3
      vertex -1.19456 -6.26208 -3
      vertex -1.89273 -5.82522 0
    endloop
  endfacet
  facet normal -0.247836 -0.96525 0.0828825
    outer loop
      vertex -1.89273 -5.82522 0
      vertex -1.19456 -6.26208 -3
      vertex -1.14771 -6.01651 0
    endloop
  endfacet
  facet normal 0.124902 -0.988701 0.0828823
    outer loop
      vertex 0.40029 -6.36242 -3
      vertex 1.19456 -6.26208 -3
      vertex 1.14771 -6.01651 0
    endloop
  endfacet
  facet normal 0.366855 -0.926579 0.082881
    outer loop
      vertex 1.89273 -5.82522 0
      vertex 1.96998 -6.06298 -3
      vertex 2.71434 -5.76827 -3
    endloop
  endfacet
  facet normal 0.366851 -0.92658 0.08288
    outer loop
      vertex 1.89273 -5.82522 0
      vertex 2.71434 -5.76827 -3
      vertex 2.6079 -5.54207 0
    endloop
  endfacet
  facet normal 0.480099 -0.87329 0.0828827
    outer loop
      vertex 2.6079 -5.54207 0
      vertex 3.4159 -5.38259 -3
      vertex 3.28194 -5.17151 0
    endloop
  endfacet
  facet normal 0.585765 -0.806232 0.0828828
    outer loop
      vertex 3.28194 -5.17151 0
      vertex 3.4159 -5.38259 -3
      vertex 4.06358 -4.91202 -3
    endloop
  endfacet
  facet normal 0.767862 -0.635231 0.0828829
    outer loop
      vertex 4.46493 -4.19285 0
      vertex 4.64717 -4.36399 -3
      vertex 4.95523 -3.60018 0
    endloop
  endfacet
  facet normal 0.682193 -0.726459 0.082883
    outer loop
      vertex 4.06358 -4.91202 -3
      vertex 4.64717 -4.36399 -3
      vertex 4.46493 -4.19285 0
    endloop
  endfacet
  facet normal 0.947781 -0.307964 0.0828814
    outer loop
      vertex 5.69488 -2.25476 0
      vertex 5.92732 -2.34679 -3
      vertex 6.17472 -1.5854 -3
    endloop
  endfacet
  facet normal 0.901715 -0.424312 0.0828814
    outer loop
      vertex 5.58645 -3.07118 -3
      vertex 5.92732 -2.34679 -3
      vertex 5.69488 -2.25476 0
    endloop
  endfacet
  facet normal 0.947785 -0.307952 0.0828848
    outer loop
      vertex 5.69488 -2.25476 0
      vertex 6.17472 -1.5854 -3
      vertex 5.93257 -1.52322 0
    endloop
  endfacet
  facet normal 0.841421 -0.533986 0.0828822
    outer loop
      vertex 4.95523 -3.60018 0
      vertex 5.15748 -3.74713 -3
      vertex 5.36738 -2.95074 0
    endloop
  endfacet
  facet normal 0.841423 -0.533982 0.0828812
    outer loop
      vertex 5.15748 -3.74713 -3
      vertex 5.58645 -3.07118 -3
      vertex 5.36738 -2.95074 0
    endloop
  endfacet
  facet normal -0.366851 0.92658 0.08288
    outer loop
      vertex -2.71434 5.76827 -3
      vertex -2.6079 5.54207 0
      vertex -1.89273 5.82522 0
    endloop
  endfacet
  facet normal -0.124896 0.988702 0.0828839
    outer loop
      vertex -1.14771 6.01651 0
      vertex -0.384591 6.11291 0
      vertex -0.40029 6.36242 -3
    endloop
  endfacet
  facet normal -0.124902 0.988701 0.0828823
    outer loop
      vertex -1.19456 6.26208 -3
      vertex -1.14771 6.01651 0
      vertex -0.40029 6.36242 -3
    endloop
  endfacet
  facet normal -0.247841 0.965249 0.0828811
    outer loop
      vertex -1.96998 6.06298 -3
      vertex -1.89273 5.82522 0
      vertex -1.19456 6.26208 -3
    endloop
  endfacet
  facet normal 0 0.996559 0.0828838
    outer loop
      vertex 0.40029 6.36242 -3
      vertex -0.384591 6.11291 0
      vertex 0.384591 6.11291 0
    endloop
  endfacet
  facet normal 0 0.996559 0.0828838
    outer loop
      vertex -0.384591 6.11291 0
      vertex 0.40029 6.36242 -3
      vertex -0.40029 6.36242 -3
    endloop
  endfacet
  facet normal 0.585765 0.806232 0.0828828
    outer loop
      vertex 3.28194 5.17151 0
      vertex 4.06358 4.91202 -3
      vertex 3.4159 5.38259 -3
    endloop
  endfacet
  facet normal 0.480099 0.87329 0.0828827
    outer loop
      vertex 2.6079 5.54207 0
      vertex 3.28194 5.17151 0
      vertex 3.4159 5.38259 -3
    endloop
  endfacet
  facet normal -0.901716 -0.424311 0.0828809
    outer loop
      vertex -5.69488 -2.25476 0
      vertex -5.58645 -3.07118 -3
      vertex -5.36738 -2.95074 0
    endloop
  endfacet
  facet normal -0.978908 -0.186732 0.0828845
    outer loop
      vertex -6.32473 -0.798999 -3
      vertex -6.17472 -1.5854 -3
      vertex -5.93257 -1.52322 0
    endloop
  endfacet
  facet normal -0.978908 0.186732 0.0828845
    outer loop
      vertex -6.32473 0.798999 -3
      vertex -5.93257 1.52322 0
      vertex -6.17472 1.5854 -3
    endloop
  endfacet
  facet normal -0.767862 0.635231 0.0828829
    outer loop
      vertex -4.95523 3.60018 0
      vertex -4.46493 4.19285 0
      vertex -4.64717 4.36399 -3
    endloop
  endfacet
  facet normal -0.841421 0.533986 0.0828822
    outer loop
      vertex -5.36738 2.95074 0
      vertex -4.95523 3.60018 0
      vertex -5.15748 3.74713 -3
    endloop
  endfacet
  facet normal -0.585769 -0.806229 0.082884
    outer loop
      vertex -4.06358 -4.91202 -3
      vertex -3.28194 -5.17151 0
      vertex -3.90422 -4.71939 0
    endloop
  endfacet
  facet normal -0.366851 -0.92658 0.08288
    outer loop
      vertex -2.71434 -5.76827 -3
      vertex -1.89273 -5.82522 0
      vertex -2.6079 -5.54207 0
    endloop
  endfacet
  facet normal 0.585769 -0.806229 0.082884
    outer loop
      vertex 3.28194 -5.17151 0
      vertex 4.06358 -4.91202 -3
      vertex 3.90422 -4.71939 0
    endloop
  endfacet
  facet normal 0.767863 -0.63523 0.0828824
    outer loop
      vertex 4.64717 -4.36399 -3
      vertex 5.15748 -3.74713 -3
      vertex 4.95523 -3.60018 0
    endloop
  endfacet
  facet normal 0.978907 -0.186737 0.0828831
    outer loop
      vertex 5.93257 -1.52322 0
      vertex 6.32473 -0.798999 -3
      vertex 6.0767 -0.767666 0
    endloop
  endfacet
  facet normal 0.994593 -0.0625778 0.0828832
    outer loop
      vertex 6.0767 -0.767666 0
      vertex 6.32473 -0.798999 -3
      vertex 6.125 0 0
    endloop
  endfacet
  facet normal -0.480099 0.87329 0.0828827
    outer loop
      vertex -3.4159 5.38259 -3
      vertex -3.28194 5.17151 0
      vertex -2.6079 5.54207 0
    endloop
  endfacet
  facet normal -0.480091 0.873295 0.08288
    outer loop
      vertex -3.4159 5.38259 -3
      vertex -2.6079 5.54207 0
      vertex -2.71434 5.76827 -3
    endloop
  endfacet
  facet normal 0.124896 0.988702 0.0828839
    outer loop
      vertex 0.384591 6.11291 0
      vertex 1.14771 6.01651 0
      vertex 0.40029 6.36242 -3
    endloop
  endfacet
  facet normal 0.480091 0.873295 0.08288
    outer loop
      vertex 2.6079 5.54207 0
      vertex 3.4159 5.38259 -3
      vertex 2.71434 5.76827 -3
    endloop
  endfacet
  facet normal 0.366851 0.92658 0.08288
    outer loop
      vertex 1.89273 5.82522 0
      vertex 2.6079 5.54207 0
      vertex 2.71434 5.76827 -3
    endloop
  endfacet
  facet normal -0.841423 -0.533982 0.0828812
    outer loop
      vertex -5.58645 -3.07118 -3
      vertex -5.15748 -3.74713 -3
      vertex -5.36738 -2.95074 0
    endloop
  endfacet
  facet normal -0.841421 -0.533986 0.0828822
    outer loop
      vertex -5.36738 -2.95074 0
      vertex -5.15748 -3.74713 -3
      vertex -4.95523 -3.60018 0
    endloop
  endfacet
  facet normal -0.978907 0.186737 0.0828831
    outer loop
      vertex -6.32473 0.798999 -3
      vertex -6.0767 0.767666 0
      vertex -5.93257 1.52322 0
    endloop
  endfacet
  facet normal -0.994593 0.0625778 0.0828832
    outer loop
      vertex -6.32473 0.798999 -3
      vertex -6.125 0 0
      vertex -6.0767 0.767666 0
    endloop
  endfacet
  facet normal 0 -0.996559 0.0828838
    outer loop
      vertex -0.40029 -6.36242 -3
      vertex 0.384591 -6.11291 0
      vertex -0.384591 -6.11291 0
    endloop
  endfacet
  facet normal 0 -0.996559 0.0828838
    outer loop
      vertex 0.384591 -6.11291 0
      vertex -0.40029 -6.36242 -3
      vertex 0.40029 -6.36242 -3
    endloop
  endfacet
  facet normal 0.124896 -0.988702 0.0828839
    outer loop
      vertex 0.384591 -6.11291 0
      vertex 0.40029 -6.36242 -3
      vertex 1.14771 -6.01651 0
    endloop
  endfacet
  facet normal -0.585765 0.806232 0.0828828
    outer loop
      vertex -4.06358 4.91202 -3
      vertex -3.28194 5.17151 0
      vertex -3.4159 5.38259 -3
    endloop
  endfacet
  facet normal -0.585769 0.806229 0.082884
    outer loop
      vertex -4.06358 4.91202 -3
      vertex -3.90422 4.71939 0
      vertex -3.28194 5.17151 0
    endloop
  endfacet
endsolid OpenSCAD_Model
