solid OpenSCAD_Model
  facet normal 0.996787 0.0627103 0.0498393
    outer loop
      vertex 6.12631 0.773932 0
      vertex 6.175 0 0
      vertex 6.325 0 -3
    endloop
  endfacet
  facet normal 0.996786 0.0627194 0.049837
    outer loop
      vertex 6.12631 0.773932 0
      vertex 6.325 0 -3
      vertex 6.27512 0.792732 -3
    endloop
  endfacet
  facet normal -0.683699 -0.72806 0.0498399
    outer loop
      vertex -4.61073 -4.32976 -3
      vertex -4.03171 -4.8735 -3
      vertex -4.50138 -4.22708 0
    endloop
  endfacet
  facet normal 0.76956 -0.636627 0.0498392
    outer loop
      vertex 4.61073 -4.32976 -3
      vertex 5.11703 -3.71774 -3
      vertex 4.99568 -3.62957 0
    endloop
  endfacet
  facet normal 0 0 -1
    outer loop
      vertex 6.27512 -0.792732 -3
      vertex 6.27512 0.792732 -3
      vertex 6.325 0 -3
    endloop
  endfacet
  facet normal 0 0 -1
    outer loop
      vertex 6.12629 -1.57296 -3
      vertex 6.27512 0.792732 -3
      vertex 6.27512 -0.792732 -3
    endloop
  endfacet
  facet normal 0 0 -1
    outer loop
      vertex 6.12629 -1.57296 -3
      vertex 6.12629 1.57296 -3
      vertex 6.27512 0.792732 -3
    endloop
  endfacet
  facet normal 0 0 -1
    outer loop
      vertex 5.88084 -2.32839 -3
      vertex 6.12629 1.57296 -3
      vertex 6.12629 -1.57296 -3
    endloop
  endfacet
  facet normal 0 0 -1
    outer loop
      vertex 5.88084 -2.32839 -3
      vertex 5.88084 2.32839 -3
      vertex 6.12629 1.57296 -3
    endloop
  endfacet
  facet normal 0 0 -1
    outer loop
      vertex 5.54264 -3.04709 -3
      vertex 5.88084 2.32839 -3
      vertex 5.88084 -2.32839 -3
    endloop
  endfacet
  facet normal 0 0 -1
    outer loop
      vertex 5.54264 -3.04709 -3
      vertex 5.54264 3.04709 -3
      vertex 5.88084 2.32839 -3
    endloop
  endfacet
  facet normal 0 0 -1
    outer loop
      vertex 5.11703 -3.71774 -3
      vertex 5.54264 3.04709 -3
      vertex 5.54264 -3.04709 -3
    endloop
  endfacet
  facet normal 0 0 -1
    outer loop
      vertex 5.11703 -3.71774 -3
      vertex 5.11703 3.71774 -3
      vertex 5.54264 3.04709 -3
    endloop
  endfacet
  facet normal 0 0 -1
    outer loop
      vertex 4.61073 -4.32976 -3
      vertex 5.11703 3.71774 -3
      vertex 5.11703 -3.71774 -3
    endloop
  endfacet
  facet normal 0 0 -1
    outer loop
      vertex 4.61073 -4.32976 -3
      vertex 4.61073 4.32976 -3
      vertex 5.11703 3.71774 -3
    endloop
  endfacet
  facet normal 0 0 -1
    outer loop
      vertex 4.03171 -4.8735 -3
      vertex 4.61073 4.32976 -3
      vertex 4.61073 -4.32976 -3
    endloop
  endfacet
  facet normal 0 0 -1
    outer loop
      vertex 4.03171 -4.8735 -3
      vertex 4.03171 4.8735 -3
      vertex 4.61073 4.32976 -3
    endloop
  endfacet
  facet normal 0 0 -1
    outer loop
      vertex 3.3891 -5.34037 -3
      vertex 4.03171 4.8735 -3
      vertex 4.03171 -4.8735 -3
    endloop
  endfacet
  facet normal 0 0 -1
    outer loop
      vertex 3.3891 -5.34037 -3
      vertex 3.3891 5.34037 -3
      vertex 4.03171 4.8735 -3
    endloop
  endfacet
  facet normal 0 0 -1
    outer loop
      vertex 2.69305 -5.72303 -3
      vertex 3.3891 5.34037 -3
      vertex 3.3891 -5.34037 -3
    endloop
  endfacet
  facet normal 0 0 -1
    outer loop
      vertex 2.69305 -5.72303 -3
      vertex 2.69305 5.72303 -3
      vertex 3.3891 5.34037 -3
    endloop
  endfacet
  facet normal 0 0 -1
    outer loop
      vertex 1.95453 -6.01543 -3
      vertex 2.69305 5.72303 -3
      vertex 2.69305 -5.72303 -3
    endloop
  endfacet
  facet normal 0 0 -1
    outer loop
      vertex 1.95453 -6.01543 -3
      vertex 1.95453 6.01543 -3
      vertex 2.69305 5.72303 -3
    endloop
  endfacet
  facet normal 0 0 -1
    outer loop
      vertex 1.18519 -6.21297 -3
      vertex 1.95453 6.01543 -3
      vertex 1.95453 -6.01543 -3
    endloop
  endfacet
  facet normal 0 0 -1
    outer loop
      vertex 1.18519 -6.21297 -3
      vertex 1.18519 6.21297 -3
      vertex 1.95453 6.01543 -3
    endloop
  endfacet
  facet normal 0 0 -1
    outer loop
      vertex 0.397149 -6.31252 -3
      vertex 1.18519 6.21297 -3
      vertex 1.18519 -6.21297 -3
    endloop
  endfacet
  facet normal 0 0 -1
    outer loop
      vertex 0.397149 -6.31252 -3
      vertex 0.397149 6.31252 -3
      vertex 1.18519 6.21297 -3
    endloop
  endfacet
  facet normal 0 0 -1
    outer loop
      vertex -0.397149 -6.31252 -3
      vertex 0.397149 6.31252 -3
      vertex 0.397149 -6.31252 -3
    endloop
  endfacet
  facet normal 0 0 -1
    outer loop
      vertex -0.397149 -6.31252 -3
      vertex -0.397149 6.31252 -3
      vertex 0.397149 6.31252 -3
    endloop
  endfacet
  facet normal 0 0 -1
    outer loop
      vertex -1.18519 -6.21297 -3
      vertex -0.397149 6.31252 -3
      vertex -0.397149 -6.31252 -3
    endloop
  endfacet
  facet normal 0 0 -1
    outer loop
      vertex -1.18519 -6.21297 -3
      vertex -1.18519 6.21297 -3
      vertex -0.397149 6.31252 -3
    endloop
  endfacet
  facet normal 0 0 -1
    outer loop
      vertex -1.95453 -6.01543 -3
      vertex -1.18519 6.21297 -3
      vertex -1.18519 -6.21297 -3
    endloop
  endfacet
  facet normal 0 0 -1
    outer loop
      vertex -1.95453 -6.01543 -3
      vertex -1.95453 6.01543 -3
      vertex -1.18519 6.21297 -3
    endloop
  endfacet
  facet normal 0 0 -1
    outer loop
      vertex -2.69305 -5.72303 -3
      vertex -1.95453 6.01543 -3
      vertex -1.95453 -6.01543 -3
    endloop
  endfacet
  facet normal 0 0 -1
    outer loop
      vertex -2.69305 -5.72303 -3
      vertex -2.69305 5.72303 -3
      vertex -1.95453 6.01543 -3
    endloop
  endfacet
  facet normal 0 0 -1
    outer loop
      vertex -3.3891 -5.34037 -3
      vertex -2.69305 5.72303 -3
      vertex -2.69305 -5.72303 -3
    endloop
  endfacet
  facet normal 0 0 -1
    outer loop
      vertex -3.3891 -5.34037 -3
      vertex -3.3891 5.34037 -3
      vertex -2.69305 5.72303 -3
    endloop
  endfacet
  facet normal 0 0 -1
    outer loop
      vertex -4.03171 -4.8735 -3
      vertex -3.3891 5.34037 -3
      vertex -3.3891 -5.34037 -3
    endloop
  endfacet
  facet normal 0 0 -1
    outer loop
      vertex -4.03171 -4.8735 -3
      vertex -4.03171 4.8735 -3
      vertex -3.3891 5.34037 -3
    endloop
  endfacet
  facet normal 0 0 -1
    outer loop
      vertex -4.61073 -4.32976 -3
      vertex -4.03171 4.8735 -3
      vertex -4.03171 -4.8735 -3
    endloop
  endfacet
  facet normal 0 0 -1
    outer loop
      vertex -4.61073 -4.32976 -3
      vertex -4.61073 4.32976 -3
      vertex -4.03171 4.8735 -3
    endloop
  endfacet
  facet normal 0 0 -1
    outer loop
      vertex -5.11703 -3.71774 -3
      vertex -4.61073 4.32976 -3
      vertex -4.61073 -4.32976 -3
    endloop
  endfacet
  facet normal 0 0 -1
    outer loop
      vertex -5.11703 -3.71774 -3
      vertex -5.11703 3.71774 -3
      vertex -4.61073 4.32976 -3
    endloop
  endfacet
  facet normal 0 0 -1
    outer loop
      vertex -5.54264 -3.04709 -3
      vertex -5.11703 3.71774 -3
      vertex -5.11703 -3.71774 -3
    endloop
  endfacet
  facet normal 0 0 -1
    outer loop
      vertex -5.54264 -3.04709 -3
      vertex -5.54264 3.04709 -3
      vertex -5.11703 3.71774 -3
    endloop
  endfacet
  facet normal 0 0 -1
    outer loop
      vertex -5.88084 -2.32839 -3
      vertex -5.54264 3.04709 -3
      vertex -5.54264 -3.04709 -3
    endloop
  endfacet
  facet normal 0 0 -1
    outer loop
      vertex -5.88084 -2.32839 -3
      vertex -5.88084 2.32839 -3
      vertex -5.54264 3.04709 -3
    endloop
  endfacet
  facet normal 0 0 -1
    outer loop
      vertex -6.12629 -1.57296 -3
      vertex -5.88084 2.32839 -3
      vertex -5.88084 -2.32839 -3
    endloop
  endfacet
  facet normal 0 0 -1
    outer loop
      vertex -6.12629 -1.57296 -3
      vertex -6.12629 1.57296 -3
      vertex -5.88084 2.32839 -3
    endloop
  endfacet
  facet normal 0 0 -1
    outer loop
      vertex -6.27512 -0.792732 -3
      vertex -6.12629 1.57296 -3
      vertex -6.12629 -1.57296 -3
    endloop
  endfacet
  facet normal 0 0 -1
    outer loop
      vertex -6.27512 -0.792732 -3
      vertex -6.27512 0.792732 -3
      vertex -6.12629 1.57296 -3
    endloop
  endfacet
  facet normal 0 -0 -1
    outer loop
      vertex -6.27512 0.792732 -3
      vertex -6.27512 -0.792732 -3
      vertex -6.325 0 -3
    endloop
  endfacet
  facet normal 0.587052 0.808014 0.0498414
    outer loop
      vertex 3.30873 5.21372 0
      vertex 3.93609 4.75792 0
      vertex 4.03171 4.8735 -3
    endloop
  endfacet
  facet normal 0.949876 -0.308628 0.0498406
    outer loop
      vertex 5.74137 -2.27317 0
      vertex 5.88084 -2.32839 -3
      vertex 6.12629 -1.57296 -3
    endloop
  endfacet
  facet normal -0.949876 0.308628 0.0498406
    outer loop
      vertex -6.12629 1.57296 -3
      vertex -5.74137 2.27317 0
      vertex -5.88084 2.32839 -3
    endloop
  endfacet
  facet normal 0 0 1
    outer loop
      vertex 6.12631 0.773932 0
      vertex 6.12631 -0.773932 0
      vertex 6.175 0 0
    endloop
  endfacet
  facet normal 0 0 1
    outer loop
      vertex 5.981 1.53566 0
      vertex 6.12631 -0.773932 0
      vertex 6.12631 0.773932 0
    endloop
  endfacet
  facet normal 0 0 1
    outer loop
      vertex 5.981 1.53566 0
      vertex 5.981 -1.53566 0
      vertex 6.12631 -0.773932 0
    endloop
  endfacet
  facet normal 0 0 1
    outer loop
      vertex 5.74137 2.27317 0
      vertex 5.981 -1.53566 0
      vertex 5.981 1.53566 0
    endloop
  endfacet
  facet normal 0 0 1
    outer loop
      vertex 5.74137 2.27317 0
      vertex 5.74137 -2.27317 0
      vertex 5.981 -1.53566 0
    endloop
  endfacet
  facet normal 0 0 1
    outer loop
      vertex 5.41119 2.97483 0
      vertex 5.74137 -2.27317 0
      vertex 5.74137 2.27317 0
    endloop
  endfacet
  facet normal 0 0 1
    outer loop
      vertex 5.41119 2.97483 0
      vertex 5.41119 -2.97483 0
      vertex 5.74137 -2.27317 0
    endloop
  endfacet
  facet normal 0 0 1
    outer loop
      vertex 4.99568 3.62957 0
      vertex 5.41119 -2.97483 0
      vertex 5.41119 2.97483 0
    endloop
  endfacet
  facet normal 0 0 1
    outer loop
      vertex 4.99568 3.62957 0
      vertex 4.99568 -3.62957 0
      vertex 5.41119 -2.97483 0
    endloop
  endfacet
  facet normal 0 0 1
    outer loop
      vertex 4.50138 4.22708 0
      vertex 4.99568 -3.62957 0
      vertex 4.99568 3.62957 0
    endloop
  endfacet
  facet normal 0 0 1
    outer loop
      vertex 4.50138 4.22708 0
      vertex 4.50138 -4.22708 0
      vertex 4.99568 -3.62957 0
    endloop
  endfacet
  facet normal 0 0 1
    outer loop
      vertex 3.93609 4.75792 0
      vertex 4.50138 -4.22708 0
      vertex 4.50138 4.22708 0
    endloop
  endfacet
  facet normal 0 0 1
    outer loop
      vertex 3.93609 4.75792 0
      vertex 3.93609 -4.75792 0
      vertex 4.50138 -4.22708 0
    endloop
  endfacet
  facet normal 0 0 1
    outer loop
      vertex 3.30873 5.21372 0
      vertex 3.93609 -4.75792 0
      vertex 3.93609 4.75792 0
    endloop
  endfacet
  facet normal 0 0 1
    outer loop
      vertex 3.30873 5.21372 0
      vertex 3.30873 -5.21372 0
      vertex 3.93609 -4.75792 0
    endloop
  endfacet
  facet normal 0 0 1
    outer loop
      vertex 2.62919 5.58731 0
      vertex 3.30873 -5.21372 0
      vertex 3.30873 5.21372 0
    endloop
  endfacet
  facet normal 0 0 1
    outer loop
      vertex 2.62919 5.58731 0
      vertex 2.62919 -5.58731 0
      vertex 3.30873 -5.21372 0
    endloop
  endfacet
  facet normal 0 0 1
    outer loop
      vertex 1.90818 5.87277 0
      vertex 2.62919 -5.58731 0
      vertex 2.62919 5.58731 0
    endloop
  endfacet
  facet normal 0 0 1
    outer loop
      vertex 1.90818 5.87277 0
      vertex 1.90818 -5.87277 0
      vertex 2.62919 -5.58731 0
    endloop
  endfacet
  facet normal 0 0 1
    outer loop
      vertex 1.15708 6.06562 0
      vertex 1.90818 -5.87277 0
      vertex 1.90818 5.87277 0
    endloop
  endfacet
  facet normal 0 0 1
    outer loop
      vertex 1.15708 6.06562 0
      vertex 1.15708 -6.06562 0
      vertex 1.90818 -5.87277 0
    endloop
  endfacet
  facet normal 0 0 1
    outer loop
      vertex 0.387731 6.16281 0
      vertex 1.15708 -6.06562 0
      vertex 1.15708 6.06562 0
    endloop
  endfacet
  facet normal 0 0 1
    outer loop
      vertex 0.387731 6.16281 0
      vertex 0.387731 -6.16281 0
      vertex 1.15708 -6.06562 0
    endloop
  endfacet
  facet normal -0 0 1
    outer loop
      vertex -0.387731 6.16281 0
      vertex 0.387731 -6.16281 0
      vertex 0.387731 6.16281 0
    endloop
  endfacet
  facet normal 0 0 1
    outer loop
      vertex -0.387731 6.16281 0
      vertex -0.387731 -6.16281 0
      vertex 0.387731 -6.16281 0
    endloop
  endfacet
  facet normal -0 0 1
    outer loop
      vertex -1.15708 6.06562 0
      vertex -0.387731 -6.16281 0
      vertex -0.387731 6.16281 0
    endloop
  endfacet
  facet normal 0 0 1
    outer loop
      vertex -1.15708 6.06562 0
      vertex -1.15708 -6.06562 0
      vertex -0.387731 -6.16281 0
    endloop
  endfacet
  facet normal -0 0 1
    outer loop
      vertex -1.90818 5.87277 0
      vertex -1.15708 -6.06562 0
      vertex -1.15708 6.06562 0
    endloop
  endfacet
  facet normal 0 0 1
    outer loop
      vertex -1.90818 5.87277 0
      vertex -1.90818 -5.87277 0
      vertex -1.15708 -6.06562 0
    endloop
  endfacet
  facet normal -0 0 1
    outer loop
      vertex -2.62919 5.58731 0
      vertex -1.90818 -5.87277 0
      vertex -1.90818 5.87277 0
    endloop
  endfacet
  facet normal 0 0 1
    outer loop
      vertex -2.62919 5.58731 0
      vertex -2.62919 -5.58731 0
      vertex -1.90818 -5.87277 0
    endloop
  endfacet
  facet normal -0 0 1
    outer loop
      vertex -3.30873 5.21372 0
      vertex -2.62919 -5.58731 0
      vertex -2.62919 5.58731 0
    endloop
  endfacet
  facet normal 0 0 1
    outer loop
      vertex -3.30873 5.21372 0
      vertex -3.30873 -5.21372 0
      vertex -2.62919 -5.58731 0
    endloop
  endfacet
  facet normal -0 0 1
    outer loop
      vertex -3.93609 4.75792 0
      vertex -3.30873 -5.21372 0
      vertex -3.30873 5.21372 0
    endloop
  endfacet
  facet normal 0 0 1
    outer loop
      vertex -3.93609 4.75792 0
      vertex -3.93609 -4.75792 0
      vertex -3.30873 -5.21372 0
    endloop
  endfacet
  facet normal -0 0 1
    outer loop
      vertex -4.50138 4.22708 0
      vertex -3.93609 -4.75792 0
      vertex -3.93609 4.75792 0
    endloop
  endfacet
  facet normal 0 0 1
    outer loop
      vertex -4.50138 4.22708 0
      vertex -4.50138 -4.22708 0
      vertex -3.93609 -4.75792 0
    endloop
  endfacet
  facet normal -0 0 1
    outer loop
      vertex -4.99568 3.62957 0
      vertex -4.50138 -4.22708 0
      vertex -4.50138 4.22708 0
    endloop
  endfacet
  facet normal 0 0 1
    outer loop
      vertex -4.99568 3.62957 0
      vertex -4.99568 -3.62957 0
      vertex -4.50138 -4.22708 0
    endloop
  endfacet
  facet normal -0 0 1
    outer loop
      vertex -5.41119 2.97483 0
      vertex -4.99568 -3.62957 0
      vertex -4.99568 3.62957 0
    endloop
  endfacet
  facet normal 0 0 1
    outer loop
      vertex -5.41119 2.97483 0
      vertex -5.41119 -2.97483 0
      vertex -4.99568 -3.62957 0
    endloop
  endfacet
  facet normal -0 0 1
    outer loop
      vertex -5.74137 2.27317 0
      vertex -5.41119 -2.97483 0
      vertex -5.41119 2.97483 0
    endloop
  endfacet
  facet normal 0 0 1
    outer loop
      vertex -5.74137 2.27317 0
      vertex -5.74137 -2.27317 0
      vertex -5.41119 -2.97483 0
    endloop
  endfacet
  facet normal -0 0 1
    outer loop
      vertex -5.981 1.53566 0
      vertex -5.74137 -2.27317 0
      vertex -5.74137 2.27317 0
    endloop
  endfacet
  facet normal 0 0 1
    outer loop
      vertex -5.981 1.53566 0
      vertex -5.981 -1.53566 0
      vertex -5.74137 -2.27317 0
    endloop
  endfacet
  facet normal -0 0 1
    outer loop
      vertex -6.12631 0.773932 0
      vertex -5.981 -1.53566 0
      vertex -5.981 1.53566 0
    endloop
  endfacet
  facet normal 0 0 1
    outer loop
      vertex -6.12631 0.773932 0
      vertex -6.12631 -0.773932 0
      vertex -5.981 -1.53566 0
    endloop
  endfacet
  facet normal 0 -0 1
    outer loop
      vertex -6.12631 -0.773932 0
      vertex -6.12631 0.773932 0
      vertex -6.175 0 0
    endloop
  endfacet
  facet normal 0.683694 0.728064 0.0498415
    outer loop
      vertex 3.93609 4.75792 0
      vertex 4.50138 4.22708 0
      vertex 4.03171 4.8735 -3
    endloop
  endfacet
  facet normal 0.248381 0.967379 0.0498396
    outer loop
      vertex 1.15708 6.06562 0
      vertex 1.90818 5.87277 0
      vertex 1.95453 6.01543 -3
    endloop
  endfacet
  facet normal -0.9037 -0.425256 0.0498405
    outer loop
      vertex -5.88084 -2.32839 -3
      vertex -5.54264 -3.04709 -3
      vertex -5.74137 -2.27317 0
    endloop
  endfacet
  facet normal 0.683699 -0.72806 0.0498399
    outer loop
      vertex 4.03171 -4.8735 -3
      vertex 4.61073 -4.32976 -3
      vertex 4.50138 -4.22708 0
    endloop
  endfacet
  facet normal 0.981068 0.187141 0.049837
    outer loop
      vertex 6.12629 1.57296 -3
      vertex 6.12631 0.773932 0
      vertex 6.27512 0.792732 -3
    endloop
  endfacet
  facet normal -0.683699 0.72806 0.0498399
    outer loop
      vertex -4.61073 4.32976 -3
      vertex -4.50138 4.22708 0
      vertex -4.03171 4.8735 -3
    endloop
  endfacet
  facet normal 0.683699 0.72806 0.0498399
    outer loop
      vertex 4.03171 4.8735 -3
      vertex 4.50138 4.22708 0
      vertex 4.61073 4.32976 -3
    endloop
  endfacet
  facet normal 0.903701 0.425254 0.0498401
    outer loop
      vertex 5.41119 2.97483 0
      vertex 5.74137 2.27317 0
      vertex 5.54264 3.04709 -3
    endloop
  endfacet
  facet normal 0.587044 0.80802 0.0498388
    outer loop
      vertex 3.30873 5.21372 0
      vertex 4.03171 4.8735 -3
      vertex 3.3891 5.34037 -3
    endloop
  endfacet
  facet normal 0 0.998757 0.0498413
    outer loop
      vertex 0.397149 6.31252 -3
      vertex -0.387731 6.16281 0
      vertex 0.387731 6.16281 0
    endloop
  endfacet
  facet normal 0 0.998757 0.0498413
    outer loop
      vertex -0.387731 6.16281 0
      vertex 0.397149 6.31252 -3
      vertex -0.397149 6.31252 -3
    endloop
  endfacet
  facet normal -0.981066 -0.187152 0.0498399
    outer loop
      vertex -6.12631 -0.773932 0
      vertex -6.12629 -1.57296 -3
      vertex -5.981 -1.53566 0
    endloop
  endfacet
  facet normal -0.843277 -0.535163 0.049839
    outer loop
      vertex -5.54264 -3.04709 -3
      vertex -5.11703 -3.71774 -3
      vertex -4.99568 -3.62957 0
    endloop
  endfacet
  facet normal -0.481165 -0.875212 0.0498389
    outer loop
      vertex -3.3891 -5.34037 -3
      vertex -2.62919 -5.58731 0
      vertex -3.30873 -5.21372 0
    endloop
  endfacet
  facet normal -0.481158 -0.875216 0.049837
    outer loop
      vertex -3.3891 -5.34037 -3
      vertex -2.69305 -5.72303 -3
      vertex -2.62919 -5.58731 0
    endloop
  endfacet
  facet normal 0.367658 -0.928625 0.0498395
    outer loop
      vertex 1.90818 -5.87277 0
      vertex 1.95453 -6.01543 -3
      vertex 2.62919 -5.58731 0
    endloop
  endfacet
  facet normal 0.769558 -0.636629 0.0498401
    outer loop
      vertex 4.50138 -4.22708 0
      vertex 4.61073 -4.32976 -3
      vertex 4.99568 -3.62957 0
    endloop
  endfacet
  facet normal 0.981068 -0.187141 0.049837
    outer loop
      vertex 6.12629 -1.57296 -3
      vertex 6.27512 -0.792732 -3
      vertex 6.12631 -0.773932 0
    endloop
  endfacet
  facet normal 0.996787 -0.0627103 0.0498393
    outer loop
      vertex 6.12631 -0.773932 0
      vertex 6.325 0 -3
      vertex 6.175 0 0
    endloop
  endfacet
  facet normal 0.996786 -0.0627194 0.049837
    outer loop
      vertex 6.12631 -0.773932 0
      vertex 6.27512 -0.792732 -3
      vertex 6.325 0 -3
    endloop
  endfacet
  facet normal -0.996787 0.0627103 0.0498393
    outer loop
      vertex -6.325 0 -3
      vertex -6.175 0 0
      vertex -6.12631 0.773932 0
    endloop
  endfacet
  facet normal -0.769558 0.636629 0.0498401
    outer loop
      vertex -4.99568 3.62957 0
      vertex -4.50138 4.22708 0
      vertex -4.61073 4.32976 -3
    endloop
  endfacet
  facet normal -0.367666 0.928621 0.0498372
    outer loop
      vertex -2.69305 5.72303 -3
      vertex -2.62919 5.58731 0
      vertex -1.95453 6.01543 -3
    endloop
  endfacet
  facet normal 0.843277 0.535163 0.049839
    outer loop
      vertex 4.99568 3.62957 0
      vertex 5.54264 3.04709 -3
      vertex 5.11703 3.71774 -3
    endloop
  endfacet
  facet normal 0.981066 0.187152 0.0498399
    outer loop
      vertex 5.981 1.53566 0
      vertex 6.12631 0.773932 0
      vertex 6.12629 1.57296 -3
    endloop
  endfacet
  facet normal -0.843279 -0.53516 0.0498399
    outer loop
      vertex -5.54264 -3.04709 -3
      vertex -4.99568 -3.62957 0
      vertex -5.41119 -2.97483 0
    endloop
  endfacet
  facet normal 0 -0.998757 0.0498413
    outer loop
      vertex -0.397149 -6.31252 -3
      vertex 0.387731 -6.16281 0
      vertex -0.387731 -6.16281 0
    endloop
  endfacet
  facet normal 0 -0.998757 0.0498413
    outer loop
      vertex 0.387731 -6.16281 0
      vertex -0.397149 -6.31252 -3
      vertex 0.397149 -6.31252 -3
    endloop
  endfacet
  facet normal -0.949875 -0.308631 0.0498398
    outer loop
      vertex -6.12629 -1.57296 -3
      vertex -5.74137 -2.27317 0
      vertex -5.981 -1.53566 0
    endloop
  endfacet
  facet normal -0.949876 -0.308628 0.0498406
    outer loop
      vertex -6.12629 -1.57296 -3
      vertex -5.88084 -2.32839 -3
      vertex -5.74137 -2.27317 0
    endloop
  endfacet
  facet normal -0.996787 -0.0627103 0.0498393
    outer loop
      vertex -6.325 0 -3
      vertex -6.12631 -0.773932 0
      vertex -6.175 0 0
    endloop
  endfacet
  facet normal 0.125176 -0.990882 0.0498413
    outer loop
      vertex 0.387731 -6.16281 0
      vertex 0.397149 -6.31252 -3
      vertex 1.15708 -6.06562 0
    endloop
  endfacet
  facet normal 0.481165 -0.875212 0.0498389
    outer loop
      vertex 2.62919 -5.58731 0
      vertex 3.3891 -5.34037 -3
      vertex 3.30873 -5.21372 0
    endloop
  endfacet
  facet normal 0.125174 -0.990882 0.0498417
    outer loop
      vertex 0.397149 -6.31252 -3
      vertex 1.18519 -6.21297 -3
      vertex 1.15708 -6.06562 0
    endloop
  endfacet
  facet normal 0.248389 -0.967377 0.0498417
    outer loop
      vertex 1.15708 -6.06562 0
      vertex 1.18519 -6.21297 -3
      vertex 1.95453 -6.01543 -3
    endloop
  endfacet
  facet normal 0.843277 -0.535163 0.049839
    outer loop
      vertex 4.99568 -3.62957 0
      vertex 5.11703 -3.71774 -3
      vertex 5.54264 -3.04709 -3
    endloop
  endfacet
  facet normal 0.903701 -0.425254 0.0498401
    outer loop
      vertex 5.41119 -2.97483 0
      vertex 5.54264 -3.04709 -3
      vertex 5.74137 -2.27317 0
    endloop
  endfacet
  facet normal 0.9037 -0.425256 0.0498405
    outer loop
      vertex 5.54264 -3.04709 -3
      vertex 5.88084 -2.32839 -3
      vertex 5.74137 -2.27317 0
    endloop
  endfacet
  facet normal 0.949875 -0.308631 0.0498398
    outer loop
      vertex 5.74137 -2.27317 0
      vertex 6.12629 -1.57296 -3
      vertex 5.981 -1.53566 0
    endloop
  endfacet
  facet normal -0.981068 0.187141 0.049837
    outer loop
      vertex -6.27512 0.792732 -3
      vertex -6.12631 0.773932 0
      vertex -6.12629 1.57296 -3
    endloop
  endfacet
  facet normal -0.996786 0.0627194 0.049837
    outer loop
      vertex -6.325 0 -3
      vertex -6.12631 0.773932 0
      vertex -6.27512 0.792732 -3
    endloop
  endfacet
  facet normal -0.843279 0.53516 0.0498399
    outer loop
      vertex -5.54264 3.04709 -3
      vertex -5.41119 2.97483 0
      vertex -4.99568 3.62957 0
    endloop
  endfacet
  facet normal -0.9037 0.425256 0.0498405
    outer loop
      vertex -5.88084 2.32839 -3
      vertex -5.74137 2.27317 0
      vertex -5.54264 3.04709 -3
    endloop
  endfacet
  facet normal -0.683694 0.728064 0.0498415
    outer loop
      vertex -4.50138 4.22708 0
      vertex -3.93609 4.75792 0
      vertex -4.03171 4.8735 -3
    endloop
  endfacet
  facet normal -0.481158 0.875216 0.049837
    outer loop
      vertex -3.3891 5.34037 -3
      vertex -2.62919 5.58731 0
      vertex -2.69305 5.72303 -3
    endloop
  endfacet
  facet normal 0.76956 0.636627 0.0498392
    outer loop
      vertex 4.61073 4.32976 -3
      vertex 4.99568 3.62957 0
      vertex 5.11703 3.71774 -3
    endloop
  endfacet
  facet normal 0.769558 0.636629 0.0498401
    outer loop
      vertex 4.50138 4.22708 0
      vertex 4.99568 3.62957 0
      vertex 4.61073 4.32976 -3
    endloop
  endfacet
  facet normal 0.949875 0.308631 0.0498398
    outer loop
      vertex 5.74137 2.27317 0
      vertex 5.981 1.53566 0
      vertex 6.12629 1.57296 -3
    endloop
  endfacet
  facet normal 0.481165 0.875212 0.0498389
    outer loop
      vertex 2.62919 5.58731 0
      vertex 3.30873 5.21372 0
      vertex 3.3891 5.34037 -3
    endloop
  endfacet
  facet normal 0.125174 0.990882 0.0498417
    outer loop
      vertex 0.397149 6.31252 -3
      vertex 1.15708 6.06562 0
      vertex 1.18519 6.21297 -3
    endloop
  endfacet
  facet normal 0.248389 0.967377 0.0498417
    outer loop
      vertex 1.15708 6.06562 0
      vertex 1.95453 6.01543 -3
      vertex 1.18519 6.21297 -3
    endloop
  endfacet
  facet normal 0.125176 0.990882 0.0498413
    outer loop
      vertex 0.387731 6.16281 0
      vertex 1.15708 6.06562 0
      vertex 0.397149 6.31252 -3
    endloop
  endfacet
  facet normal -0.76956 -0.636627 0.0498392
    outer loop
      vertex -5.11703 -3.71774 -3
      vertex -4.61073 -4.32976 -3
      vertex -4.99568 -3.62957 0
    endloop
  endfacet
  facet normal -0.769558 -0.636629 0.0498401
    outer loop
      vertex -4.99568 -3.62957 0
      vertex -4.61073 -4.32976 -3
      vertex -4.50138 -4.22708 0
    endloop
  endfacet
  facet normal -0.683694 -0.728064 0.0498415
    outer loop
      vertex -4.50138 -4.22708 0
      vertex -4.03171 -4.8735 -3
      vertex -3.93609 -4.75792 0
    endloop
  endfacet
  facet normal -0.125174 -0.990882 0.0498417
    outer loop
      vertex -1.18519 -6.21297 -3
      vertex -0.397149 -6.31252 -3
      vertex -1.15708 -6.06562 0
    endloop
  endfacet
  facet normal -0.367666 -0.928621 0.0498372
    outer loop
      vertex -2.69305 -5.72303 -3
      vertex -1.95453 -6.01543 -3
      vertex -2.62919 -5.58731 0
    endloop
  endfacet
  facet normal -0.125176 -0.990882 0.0498413
    outer loop
      vertex -1.15708 -6.06562 0
      vertex -0.397149 -6.31252 -3
      vertex -0.387731 -6.16281 0
    endloop
  endfacet
  facet normal -0.996786 -0.0627194 0.049837
    outer loop
      vertex -6.325 0 -3
      vertex -6.27512 -0.792732 -3
      vertex -6.12631 -0.773932 0
    endloop
  endfacet
  facet normal -0.981068 -0.187141 0.049837
    outer loop
      vertex -6.27512 -0.792732 -3
      vertex -6.12629 -1.57296 -3
      vertex -6.12631 -0.773932 0
    endloop
  endfacet
  facet normal 0.587044 -0.80802 0.0498388
    outer loop
      vertex 3.30873 -5.21372 0
      vertex 3.3891 -5.34037 -3
      vertex 4.03171 -4.8735 -3
    endloop
  endfacet
  facet normal 0.481158 -0.875216 0.049837
    outer loop
      vertex 2.62919 -5.58731 0
      vertex 2.69305 -5.72303 -3
      vertex 3.3891 -5.34037 -3
    endloop
  endfacet
  facet normal 0.367666 -0.928621 0.0498372
    outer loop
      vertex 1.95453 -6.01543 -3
      vertex 2.69305 -5.72303 -3
      vertex 2.62919 -5.58731 0
    endloop
  endfacet
  facet normal 0.248381 -0.967379 0.0498396
    outer loop
      vertex 1.15708 -6.06562 0
      vertex 1.95453 -6.01543 -3
      vertex 1.90818 -5.87277 0
    endloop
  endfacet
  facet normal 0.843279 -0.53516 0.0498399
    outer loop
      vertex 4.99568 -3.62957 0
      vertex 5.54264 -3.04709 -3
      vertex 5.41119 -2.97483 0
    endloop
  endfacet
  facet normal 0.981066 -0.187152 0.0498399
    outer loop
      vertex 5.981 -1.53566 0
      vertex 6.12629 -1.57296 -3
      vertex 6.12631 -0.773932 0
    endloop
  endfacet
  facet normal -0.981066 0.187152 0.0498399
    outer loop
      vertex -6.12631 0.773932 0
      vertex -5.981 1.53566 0
      vertex -6.12629 1.57296 -3
    endloop
  endfacet
  facet normal -0.843277 0.535163 0.049839
    outer loop
      vertex -5.54264 3.04709 -3
      vertex -4.99568 3.62957 0
      vertex -5.11703 3.71774 -3
    endloop
  endfacet
  facet normal -0.76956 0.636627 0.0498392
    outer loop
      vertex -5.11703 3.71774 -3
      vertex -4.99568 3.62957 0
      vertex -4.61073 4.32976 -3
    endloop
  endfacet
  facet normal -0.903701 0.425254 0.0498401
    outer loop
      vertex -5.74137 2.27317 0
      vertex -5.41119 2.97483 0
      vertex -5.54264 3.04709 -3
    endloop
  endfacet
  facet normal -0.481165 0.875212 0.0498389
    outer loop
      vertex -3.3891 5.34037 -3
      vertex -3.30873 5.21372 0
      vertex -2.62919 5.58731 0
    endloop
  endfacet
  facet normal -0.587044 0.80802 0.0498388
    outer loop
      vertex -4.03171 4.8735 -3
      vertex -3.30873 5.21372 0
      vertex -3.3891 5.34037 -3
    endloop
  endfacet
  facet normal -0.587052 0.808014 0.0498414
    outer loop
      vertex -4.03171 4.8735 -3
      vertex -3.93609 4.75792 0
      vertex -3.30873 5.21372 0
    endloop
  endfacet
  facet normal 0.843279 0.53516 0.0498399
    outer loop
      vertex 4.99568 3.62957 0
      vertex 5.41119 2.97483 0
      vertex 5.54264 3.04709 -3
    endloop
  endfacet
  facet normal 0.949876 0.308628 0.0498406
    outer loop
      vertex 5.74137 2.27317 0
      vertex 6.12629 1.57296 -3
      vertex 5.88084 2.32839 -3
    endloop
  endfacet
  facet normal 0.9037 0.425256 0.0498405
    outer loop
      vertex 5.54264 3.04709 -3
      vertex 5.74137 2.27317 0
      vertex 5.88084 2.32839 -3
    endloop
  endfacet
  facet normal 0.481158 0.875216 0.049837
    outer loop
      vertex 2.62919 5.58731 0
      vertex 3.3891 5.34037 -3
      vertex 2.69305 5.72303 -3
    endloop
  endfacet
  facet normal 0.367666 0.928621 0.0498372
    outer loop
      vertex 1.95453 6.01543 -3
      vertex 2.62919 5.58731 0
      vertex 2.69305 5.72303 -3
    endloop
  endfacet
  facet normal -0.903701 -0.425254 0.0498401
    outer loop
      vertex -5.74137 -2.27317 0
      vertex -5.54264 -3.04709 -3
      vertex -5.41119 -2.97483 0
    endloop
  endfacet
  facet normal -0.248389 -0.967377 0.0498417
    outer loop
      vertex -1.95453 -6.01543 -3
      vertex -1.18519 -6.21297 -3
      vertex -1.15708 -6.06562 0
    endloop
  endfacet
  facet normal -0.367658 -0.928625 0.0498395
    outer loop
      vertex -2.62919 -5.58731 0
      vertex -1.95453 -6.01543 -3
      vertex -1.90818 -5.87277 0
    endloop
  endfacet
  facet normal -0.248381 -0.967379 0.0498396
    outer loop
      vertex -1.95453 -6.01543 -3
      vertex -1.15708 -6.06562 0
      vertex -1.90818 -5.87277 0
    endloop
  endfacet
  facet normal 0.587052 -0.808014 0.0498414
    outer loop
      vertex 3.30873 -5.21372 0
      vertex 4.03171 -4.8735 -3
      vertex 3.93609 -4.75792 0
    endloop
  endfacet
  facet normal 0.683694 -0.728064 0.0498415
    outer loop
      vertex 3.93609 -4.75792 0
      vertex 4.03171 -4.8735 -3
      vertex 4.50138 -4.22708 0
    endloop
  endfacet
  facet normal -0.949875 0.308631 0.0498398
    outer loop
      vertex -6.12629 1.57296 -3
      vertex -5.981 1.53566 0
      vertex -5.74137 2.27317 0
    endloop
  endfacet
  facet normal -0.125176 0.990882 0.0498413
    outer loop
      vertex -1.15708 6.06562 0
      vertex -0.387731 6.16281 0
      vertex -0.397149 6.31252 -3
    endloop
  endfacet
  facet normal 0.367658 0.928625 0.0498395
    outer loop
      vertex 1.90818 5.87277 0
      vertex 2.62919 5.58731 0
      vertex 1.95453 6.01543 -3
    endloop
  endfacet
  facet normal -0.587052 -0.808014 0.0498414
    outer loop
      vertex -4.03171 -4.8735 -3
      vertex -3.30873 -5.21372 0
      vertex -3.93609 -4.75792 0
    endloop
  endfacet
  facet normal -0.587044 -0.80802 0.0498388
    outer loop
      vertex -4.03171 -4.8735 -3
      vertex -3.3891 -5.34037 -3
      vertex -3.30873 -5.21372 0
    endloop
  endfacet
  facet normal -0.248389 0.967377 0.0498417
    outer loop
      vertex -1.95453 6.01543 -3
      vertex -1.15708 6.06562 0
      vertex -1.18519 6.21297 -3
    endloop
  endfacet
  facet normal -0.125174 0.990882 0.0498417
    outer loop
      vertex -1.18519 6.21297 -3
      vertex -1.15708 6.06562 0
      vertex -0.397149 6.31252 -3
    endloop
  endfacet
  facet normal -0.248381 0.967379 0.0498396
    outer loop
      vertex -1.95453 6.01543 -3
      vertex -1.90818 5.87277 0
      vertex -1.15708 6.06562 0
    endloop
  endfacet
  facet normal -0.367658 0.928625 0.0498395
    outer loop
      vertex -2.62919 5.58731 0
      vertex -1.90818 5.87277 0
      vertex -1.95453 6.01543 -3
    endloop
  endfacet
endsolid OpenSCAD_Model
