solid OpenSCAD_Model
  facet normal 0 0 1
    outer loop
      vertex 3.45 0 0
      vertex 10 0 0
      vertex 9.92115 1.25333 0
    endloop
  endfacet
  facet normal 0 0 1
    outer loop
      vertex 3.4228 0.432399 0
      vertex 9.92115 1.25333 0
      vertex 9.68583 2.4869 0
    endloop
  endfacet
  facet normal 0 0 1
    outer loop
      vertex 10 0 0
      vertex 3.45 0 0
      vertex 9.92115 -1.25333 0
    endloop
  endfacet
  facet normal 0 0 1
    outer loop
      vertex 3.34161 0.85798 0
      vertex 9.68583 2.4869 0
      vertex 9.29776 3.68124 0
    endloop
  endfacet
  facet normal -0 0 1
    outer loop
      vertex 3.4228 -0.432399 0
      vertex 9.92115 -1.25333 0
      vertex 3.45 0 0
    endloop
  endfacet
  facet normal 0 0 1
    outer loop
      vertex 3.20773 1.27003 0
      vertex 9.29776 3.68124 0
      vertex 8.76307 4.81754 0
    endloop
  endfacet
  facet normal 0 0 1
    outer loop
      vertex 9.92115 -1.25333 0
      vertex 3.4228 -0.432399 0
      vertex 9.68583 -2.4869 0
    endloop
  endfacet
  facet normal 0 0 1
    outer loop
      vertex 3.02326 1.66205 0
      vertex 8.76307 4.81754 0
      vertex 8.09017 5.87785 0
    endloop
  endfacet
  facet normal -0 0 1
    outer loop
      vertex 3.34161 -0.85798 0
      vertex 9.68583 -2.4869 0
      vertex 3.4228 -0.432399 0
    endloop
  endfacet
  facet normal 0 0 1
    outer loop
      vertex 2.79111 2.02786 0
      vertex 8.09017 5.87785 0
      vertex 7.28969 6.84547 0
    endloop
  endfacet
  facet normal 0 0 1
    outer loop
      vertex 9.68583 -2.4869 0
      vertex 3.34161 -0.85798 0
      vertex 9.29776 -3.68124 0
    endloop
  endfacet
  facet normal 0 0 1
    outer loop
      vertex 2.51494 2.36169 0
      vertex 7.28969 6.84547 0
      vertex 6.37424 7.70513 0
    endloop
  endfacet
  facet normal -0 0 1
    outer loop
      vertex 3.20773 -1.27003 0
      vertex 9.29776 -3.68124 0
      vertex 3.34161 -0.85798 0
    endloop
  endfacet
  facet normal 0 0 1
    outer loop
      vertex 2.19911 2.65827 0
      vertex 6.37424 7.70513 0
      vertex 5.35827 8.44328 0
    endloop
  endfacet
  facet normal 0 0 1
    outer loop
      vertex 9.29776 -3.68124 0
      vertex 3.20773 -1.27003 0
      vertex 8.76307 -4.81754 0
    endloop
  endfacet
  facet normal 0 0 1
    outer loop
      vertex 1.8486 2.91293 0
      vertex 5.35827 8.44328 0
      vertex 4.25779 9.04827 0
    endloop
  endfacet
  facet normal -0 0 1
    outer loop
      vertex 3.02326 -1.66205 0
      vertex 8.76307 -4.81754 0
      vertex 3.20773 -1.27003 0
    endloop
  endfacet
  facet normal 0 0 1
    outer loop
      vertex 8.76307 -4.81754 0
      vertex 3.02326 -1.66205 0
      vertex 8.09017 -5.87785 0
    endloop
  endfacet
  facet normal 0 0 1
    outer loop
      vertex 9.92115 1.25333 0
      vertex 3.4228 0.432399 0
      vertex 3.45 0 0
    endloop
  endfacet
  facet normal 0 0 1
    outer loop
      vertex 9.68583 2.4869 0
      vertex 3.34161 0.85798 0
      vertex 3.4228 0.432399 0
    endloop
  endfacet
  facet normal 0 0 1
    outer loop
      vertex 9.29776 3.68124 0
      vertex 3.20773 1.27003 0
      vertex 3.34161 0.85798 0
    endloop
  endfacet
  facet normal 0 0 1
    outer loop
      vertex 1.46894 3.12165 0
      vertex 4.25779 9.04827 0
      vertex 3.09017 9.51056 0
    endloop
  endfacet
  facet normal 0 0 1
    outer loop
      vertex 8.76307 4.81754 0
      vertex 3.02326 1.66205 0
      vertex 3.20773 1.27003 0
    endloop
  endfacet
  facet normal 0 0 1
    outer loop
      vertex 8.09017 5.87785 0
      vertex 2.79111 2.02786 0
      vertex 3.02326 1.66205 0
    endloop
  endfacet
  facet normal 0 0 1
    outer loop
      vertex 7.28969 6.84547 0
      vertex 2.51494 2.36169 0
      vertex 2.79111 2.02786 0
    endloop
  endfacet
  facet normal 0 0 1
    outer loop
      vertex 6.37424 7.70513 0
      vertex 2.19911 2.65827 0
      vertex 2.51494 2.36169 0
    endloop
  endfacet
  facet normal 0 0 1
    outer loop
      vertex 1.06611 3.28114 0
      vertex 3.09017 9.51056 0
      vertex 1.87381 9.82287 0
    endloop
  endfacet
  facet normal 0 0 1
    outer loop
      vertex 5.35827 8.44328 0
      vertex 1.8486 2.91293 0
      vertex 2.19911 2.65827 0
    endloop
  endfacet
  facet normal 0 0 1
    outer loop
      vertex 4.25779 9.04827 0
      vertex 1.46894 3.12165 0
      vertex 1.8486 2.91293 0
    endloop
  endfacet
  facet normal 0 0 1
    outer loop
      vertex 3.09017 9.51056 0
      vertex 1.06611 3.28114 0
      vertex 1.46894 3.12165 0
    endloop
  endfacet
  facet normal 0 0 1
    outer loop
      vertex 1.87381 9.82287 0
      vertex 0.646465 3.38889 0
      vertex 1.06611 3.28114 0
    endloop
  endfacet
  facet normal 0 0 1
    outer loop
      vertex 0.627905 9.98027 0
      vertex 0.646465 3.38889 0
      vertex 1.87381 9.82287 0
    endloop
  endfacet
  facet normal 0 0 1
    outer loop
      vertex 0.627905 9.98027 0
      vertex 0.216627 3.44319 0
      vertex 0.646465 3.38889 0
    endloop
  endfacet
  facet normal 0 0 1
    outer loop
      vertex 0.627905 9.98027 0
      vertex -0.216627 3.44319 0
      vertex 0.216627 3.44319 0
    endloop
  endfacet
  facet normal -0 0 1
    outer loop
      vertex -0.627905 9.98027 0
      vertex -0.216627 3.44319 0
      vertex 0.627905 9.98027 0
    endloop
  endfacet
  facet normal 0 0 1
    outer loop
      vertex -0.627905 9.98027 0
      vertex -0.646465 3.38889 0
      vertex -0.216627 3.44319 0
    endloop
  endfacet
  facet normal -0 0 1
    outer loop
      vertex -1.87381 9.82287 0
      vertex -0.646465 3.38889 0
      vertex -0.627905 9.98027 0
    endloop
  endfacet
  facet normal 0 0 1
    outer loop
      vertex -0.646465 3.38889 0
      vertex -1.87381 9.82287 0
      vertex -1.06611 3.28114 0
    endloop
  endfacet
  facet normal -0 0 1
    outer loop
      vertex -3.09017 9.51056 0
      vertex -1.06611 3.28114 0
      vertex -1.87381 9.82287 0
    endloop
  endfacet
  facet normal 0 0 1
    outer loop
      vertex -1.06611 3.28114 0
      vertex -3.09017 9.51056 0
      vertex -1.46894 3.12165 0
    endloop
  endfacet
  facet normal -0 0 1
    outer loop
      vertex -4.25779 9.04827 0
      vertex -1.46894 3.12165 0
      vertex -3.09017 9.51056 0
    endloop
  endfacet
  facet normal 0 0 1
    outer loop
      vertex -1.46894 3.12165 0
      vertex -4.25779 9.04827 0
      vertex -1.8486 2.91293 0
    endloop
  endfacet
  facet normal -0 0 1
    outer loop
      vertex -5.35827 8.44328 0
      vertex -1.8486 2.91293 0
      vertex -4.25779 9.04827 0
    endloop
  endfacet
  facet normal 0 0 1
    outer loop
      vertex -1.8486 2.91293 0
      vertex -5.35827 8.44328 0
      vertex -2.19911 2.65827 0
    endloop
  endfacet
  facet normal -0 0 1
    outer loop
      vertex -6.37424 7.70513 0
      vertex -2.19911 2.65827 0
      vertex -5.35827 8.44328 0
    endloop
  endfacet
  facet normal 0 0 1
    outer loop
      vertex -2.19911 2.65827 0
      vertex -6.37424 7.70513 0
      vertex -2.51494 2.36169 0
    endloop
  endfacet
  facet normal -0 0 1
    outer loop
      vertex -7.28969 6.84547 0
      vertex -2.51494 2.36169 0
      vertex -6.37424 7.70513 0
    endloop
  endfacet
  facet normal 0 0 1
    outer loop
      vertex -2.51494 2.36169 0
      vertex -7.28969 6.84547 0
      vertex -2.79111 2.02786 0
    endloop
  endfacet
  facet normal -0 0 1
    outer loop
      vertex -8.09017 5.87785 0
      vertex -2.79111 2.02786 0
      vertex -7.28969 6.84547 0
    endloop
  endfacet
  facet normal 0 0 1
    outer loop
      vertex -2.79111 2.02786 0
      vertex -8.09017 5.87785 0
      vertex -3.02326 1.66205 0
    endloop
  endfacet
  facet normal -0 0 1
    outer loop
      vertex 2.79111 -2.02786 0
      vertex 8.09017 -5.87785 0
      vertex 3.02326 -1.66205 0
    endloop
  endfacet
  facet normal 0 0 1
    outer loop
      vertex 8.09017 -5.87785 0
      vertex 2.79111 -2.02786 0
      vertex 7.28969 -6.84547 0
    endloop
  endfacet
  facet normal -0 0 1
    outer loop
      vertex 2.51494 -2.36169 0
      vertex 7.28969 -6.84547 0
      vertex 2.79111 -2.02786 0
    endloop
  endfacet
  facet normal 0 0 1
    outer loop
      vertex 7.28969 -6.84547 0
      vertex 2.51494 -2.36169 0
      vertex 6.37424 -7.70513 0
    endloop
  endfacet
  facet normal -0 0 1
    outer loop
      vertex 2.19911 -2.65827 0
      vertex 6.37424 -7.70513 0
      vertex 2.51494 -2.36169 0
    endloop
  endfacet
  facet normal 0 0 1
    outer loop
      vertex 6.37424 -7.70513 0
      vertex 2.19911 -2.65827 0
      vertex 5.35827 -8.44328 0
    endloop
  endfacet
  facet normal -0 0 1
    outer loop
      vertex 1.8486 -2.91293 0
      vertex 5.35827 -8.44328 0
      vertex 2.19911 -2.65827 0
    endloop
  endfacet
  facet normal 0 0 1
    outer loop
      vertex 5.35827 -8.44328 0
      vertex 1.8486 -2.91293 0
      vertex 4.25779 -9.04827 0
    endloop
  endfacet
  facet normal -0 0 1
    outer loop
      vertex 1.46894 -3.12165 0
      vertex 4.25779 -9.04827 0
      vertex 1.8486 -2.91293 0
    endloop
  endfacet
  facet normal 0 0 1
    outer loop
      vertex 4.25779 -9.04827 0
      vertex 1.46894 -3.12165 0
      vertex 3.09017 -9.51056 0
    endloop
  endfacet
  facet normal -0 0 1
    outer loop
      vertex 1.06611 -3.28114 0
      vertex 3.09017 -9.51056 0
      vertex 1.46894 -3.12165 0
    endloop
  endfacet
  facet normal 0 0 1
    outer loop
      vertex 3.09017 -9.51056 0
      vertex 1.06611 -3.28114 0
      vertex 1.87381 -9.82287 0
    endloop
  endfacet
  facet normal -0 0 1
    outer loop
      vertex 0.646465 -3.38889 0
      vertex 1.87381 -9.82287 0
      vertex 1.06611 -3.28114 0
    endloop
  endfacet
  facet normal 0 0 1
    outer loop
      vertex 0.646465 -3.38889 0
      vertex 0.627905 -9.98027 0
      vertex 1.87381 -9.82287 0
    endloop
  endfacet
  facet normal -0 0 1
    outer loop
      vertex 0.216627 -3.44319 0
      vertex 0.627905 -9.98027 0
      vertex 0.646465 -3.38889 0
    endloop
  endfacet
  facet normal -0 0 1
    outer loop
      vertex -0.216627 -3.44319 0
      vertex 0.627905 -9.98027 0
      vertex 0.216627 -3.44319 0
    endloop
  endfacet
  facet normal 0 0 1
    outer loop
      vertex -0.216627 -3.44319 0
      vertex -0.627905 -9.98027 0
      vertex 0.627905 -9.98027 0
    endloop
  endfacet
  facet normal 0 0 1
    outer loop
      vertex -0.646465 -3.38889 0
      vertex -0.627905 -9.98027 0
      vertex -0.216627 -3.44319 0
    endloop
  endfacet
  facet normal 0 0 1
    outer loop
      vertex -1.87381 -9.82287 0
      vertex -0.646465 -3.38889 0
      vertex -1.06611 -3.28114 0
    endloop
  endfacet
  facet normal 0 0 1
    outer loop
      vertex -3.09017 -9.51056 0
      vertex -1.06611 -3.28114 0
      vertex -1.46894 -3.12165 0
    endloop
  endfacet
  facet normal 0 0 1
    outer loop
      vertex -4.25779 -9.04827 0
      vertex -1.46894 -3.12165 0
      vertex -1.8486 -2.91293 0
    endloop
  endfacet
  facet normal 0 0 1
    outer loop
      vertex -0.646465 -3.38889 0
      vertex -1.87381 -9.82287 0
      vertex -0.627905 -9.98027 0
    endloop
  endfacet
  facet normal 0 0 1
    outer loop
      vertex -5.35827 -8.44328 0
      vertex -1.8486 -2.91293 0
      vertex -2.19911 -2.65827 0
    endloop
  endfacet
  facet normal 0 0 1
    outer loop
      vertex -6.37424 -7.70513 0
      vertex -2.19911 -2.65827 0
      vertex -2.51494 -2.36169 0
    endloop
  endfacet
  facet normal 0 0 1
    outer loop
      vertex -7.28969 -6.84547 0
      vertex -2.51494 -2.36169 0
      vertex -2.79111 -2.02786 0
    endloop
  endfacet
  facet normal 0 0 1
    outer loop
      vertex -8.09017 -5.87785 0
      vertex -2.79111 -2.02786 0
      vertex -3.02326 -1.66205 0
    endloop
  endfacet
  facet normal 0 0 1
    outer loop
      vertex -1.06611 -3.28114 0
      vertex -3.09017 -9.51056 0
      vertex -1.87381 -9.82287 0
    endloop
  endfacet
  facet normal 0 0 1
    outer loop
      vertex -8.76307 -4.81754 0
      vertex -3.02326 -1.66205 0
      vertex -3.20773 -1.27003 0
    endloop
  endfacet
  facet normal 0 0 1
    outer loop
      vertex -9.29776 -3.68124 0
      vertex -3.20773 -1.27003 0
      vertex -3.34161 -0.85798 0
    endloop
  endfacet
  facet normal 0 0 1
    outer loop
      vertex -9.68583 -2.4869 0
      vertex -3.34161 -0.85798 0
      vertex -3.4228 -0.432399 0
    endloop
  endfacet
  facet normal 0 0 1
    outer loop
      vertex -9.92115 -1.25333 0
      vertex -3.4228 -0.432399 0
      vertex -3.45 0 0
    endloop
  endfacet
  facet normal -0 0 1
    outer loop
      vertex -8.76307 4.81754 0
      vertex -3.02326 1.66205 0
      vertex -8.09017 5.87785 0
    endloop
  endfacet
  facet normal 0 0 1
    outer loop
      vertex -1.46894 -3.12165 0
      vertex -4.25779 -9.04827 0
      vertex -3.09017 -9.51056 0
    endloop
  endfacet
  facet normal 0 0 1
    outer loop
      vertex -3.02326 1.66205 0
      vertex -8.76307 4.81754 0
      vertex -3.20773 1.27003 0
    endloop
  endfacet
  facet normal 0 0 1
    outer loop
      vertex -1.8486 -2.91293 0
      vertex -5.35827 -8.44328 0
      vertex -4.25779 -9.04827 0
    endloop
  endfacet
  facet normal -0 0 1
    outer loop
      vertex -9.29776 3.68124 0
      vertex -3.20773 1.27003 0
      vertex -8.76307 4.81754 0
    endloop
  endfacet
  facet normal 0 0 1
    outer loop
      vertex -2.19911 -2.65827 0
      vertex -6.37424 -7.70513 0
      vertex -5.35827 -8.44328 0
    endloop
  endfacet
  facet normal 0 0 1
    outer loop
      vertex -3.20773 1.27003 0
      vertex -9.29776 3.68124 0
      vertex -3.34161 0.85798 0
    endloop
  endfacet
  facet normal 0 0 1
    outer loop
      vertex -2.51494 -2.36169 0
      vertex -7.28969 -6.84547 0
      vertex -6.37424 -7.70513 0
    endloop
  endfacet
  facet normal -0 0 1
    outer loop
      vertex -9.68583 2.4869 0
      vertex -3.34161 0.85798 0
      vertex -9.29776 3.68124 0
    endloop
  endfacet
  facet normal 0 0 1
    outer loop
      vertex -2.79111 -2.02786 0
      vertex -8.09017 -5.87785 0
      vertex -7.28969 -6.84547 0
    endloop
  endfacet
  facet normal 0 0 1
    outer loop
      vertex -3.34161 0.85798 0
      vertex -9.68583 2.4869 0
      vertex -3.4228 0.432399 0
    endloop
  endfacet
  facet normal 0 0 1
    outer loop
      vertex -3.02326 -1.66205 0
      vertex -8.76307 -4.81754 0
      vertex -8.09017 -5.87785 0
    endloop
  endfacet
  facet normal -0 0 1
    outer loop
      vertex -9.92115 1.25333 0
      vertex -3.4228 0.432399 0
      vertex -9.68583 2.4869 0
    endloop
  endfacet
  facet normal 0 0 1
    outer loop
      vertex -3.20773 -1.27003 0
      vertex -9.29776 -3.68124 0
      vertex -8.76307 -4.81754 0
    endloop
  endfacet
  facet normal 0 0 1
    outer loop
      vertex -3.4228 0.432399 0
      vertex -9.92115 1.25333 0
      vertex -3.45 0 0
    endloop
  endfacet
  facet normal 0 0 1
    outer loop
      vertex -3.34161 -0.85798 0
      vertex -9.68583 -2.4869 0
      vertex -9.29776 -3.68124 0
    endloop
  endfacet
  facet normal 0 0 1
    outer loop
      vertex -10 0 0
      vertex -3.45 0 0
      vertex -9.92115 1.25333 0
    endloop
  endfacet
  facet normal 0 0 1
    outer loop
      vertex -3.4228 -0.432399 0
      vertex -9.92115 -1.25333 0
      vertex -9.68583 -2.4869 0
    endloop
  endfacet
  facet normal 0 0 1
    outer loop
      vertex -3.45 0 0
      vertex -10 0 0
      vertex -9.92115 -1.25333 0
    endloop
  endfacet
  facet normal -0.465547 -0.0292845 0.884539
    outer loop
      vertex 1.55 0 -1
      vertex 3.45 0 0
      vertex 1.53778 0.194266 -1
    endloop
  endfacet
  facet normal 0.465547 0.0292845 0.884539
    outer loop
      vertex -1.53778 -0.194266 -1
      vertex -1.55 0 -1
      vertex -3.45 0 0
    endloop
  endfacet
  facet normal -0.465547 0.0292852 0.884539
    outer loop
      vertex 3.4228 -0.432399 0
      vertex 3.45 0 0
      vertex 1.53778 -0.194266 -1
    endloop
  endfacet
  facet normal -0 0.466467 0.884538
    outer loop
      vertex -0.0973244 -1.54694 -1
      vertex 0.216627 -3.44319 0
      vertex 0.0973244 -1.54694 -1
    endloop
  endfacet
  facet normal 0 0.466467 0.884538
    outer loop
      vertex 0.216627 -3.44319 0
      vertex -0.0973244 -1.54694 -1
      vertex -0.216627 -3.44319 0
    endloop
  endfacet
  facet normal -0.0584726 -0.462788 0.884538
    outer loop
      vertex 0.290441 1.52254 -1
      vertex 0.216627 3.44319 0
      vertex 0.0973244 1.54694 -1
    endloop
  endfacet
  facet normal -0.443637 0.144143 0.884539
    outer loop
      vertex 3.20773 -1.27003 0
      vertex 3.34161 -0.85798 0
      vertex 1.44115 -0.570593 -1
    endloop
  endfacet
  facet normal 0.359415 0.297342 0.884539
    outer loop
      vertex -1.1299 -1.06105 -1
      vertex -1.25398 -0.911067 -1
      vertex -2.51494 -2.36169 0
    endloop
  endfacet
  facet normal 0.319316 0.340042 0.884538
    outer loop
      vertex -2.19911 -2.65827 0
      vertex -1.1299 -1.06105 -1
      vertex -2.51494 -2.36169 0
    endloop
  endfacet
  facet normal 0.465547 -0.0292852 0.884539
    outer loop
      vertex -1.53778 0.194266 -1
      vertex -3.4228 0.432399 0
      vertex -3.45 0 0
    endloop
  endfacet
  facet normal 0.443637 -0.144143 0.884539
    outer loop
      vertex -1.44115 0.570593 -1
      vertex -3.20773 1.27003 0
      vertex -3.34161 0.85798 0
    endloop
  endfacet
  facet normal -0.319316 -0.340042 0.884538
    outer loop
      vertex 2.51494 2.36169 0
      vertex 2.19911 2.65827 0
      vertex 1.1299 1.06105 -1
    endloop
  endfacet
  facet normal -0.458202 -0.0874218 0.884538
    outer loop
      vertex 1.53778 0.194266 -1
      vertex 3.4228 0.432399 0
      vertex 1.5013 0.385468 -1
    endloop
  endfacet
  facet normal -0.359415 0.297342 0.884539
    outer loop
      vertex 2.51494 -2.36169 0
      vertex 1.25398 -0.911067 -1
      vertex 1.1299 -1.06105 -1
    endloop
  endfacet
  facet normal -0.224723 0.408769 0.884538
    outer loop
      vertex 1.46894 -3.12165 0
      vertex 1.8486 -2.91293 0
      vertex 0.830531 -1.30871 -1
    endloop
  endfacet
  facet normal -0.224716 0.408771 0.884539
    outer loop
      vertex 1.46894 -3.12165 0
      vertex 0.830531 -1.30871 -1
      vertex 0.659958 -1.40248 -1
    endloop
  endfacet
  facet normal 0.274183 0.377381 0.884538
    outer loop
      vertex -1.8486 -2.91293 0
      vertex -0.830531 -1.30871 -1
      vertex -2.19911 -2.65827 0
    endloop
  endfacet
  facet normal 0.319316 -0.340042 0.884538
    outer loop
      vertex -1.1299 1.06105 -1
      vertex -2.19911 2.65827 0
      vertex -2.51494 2.36169 0
    endloop
  endfacet
  facet normal -0.115988 -0.451815 0.884539
    outer loop
      vertex 0.478976 1.47414 -1
      vertex 0.646465 3.38889 0
      vertex 0.290441 1.52254 -1
    endloop
  endfacet
  facet normal -0.0584625 -0.462788 0.884539
    outer loop
      vertex 0.290441 1.52254 -1
      vertex 0.646465 3.38889 0
      vertex 0.216627 3.44319 0
    endloop
  endfacet
  facet normal -0.31931 -0.340047 0.884539
    outer loop
      vertex 1.1299 1.06105 -1
      vertex 2.19911 2.65827 0
      vertex 0.988007 1.19429 -1
    endloop
  endfacet
  facet normal -0.443637 -0.144143 0.884539
    outer loop
      vertex 3.34161 0.85798 0
      vertex 3.20773 1.27003 0
      vertex 1.44115 0.570593 -1
    endloop
  endfacet
  facet normal -0.39386 -0.249928 0.88454
    outer loop
      vertex 1.35827 0.746717 -1
      vertex 3.02326 1.66205 0
      vertex 1.25398 0.911067 -1
    endloop
  endfacet
  facet normal -0.443637 -0.144144 0.884539
    outer loop
      vertex 1.5013 0.385468 -1
      vertex 3.34161 0.85798 0
      vertex 1.44115 0.570593 -1
    endloop
  endfacet
  facet normal -0.458203 -0.0874134 0.884539
    outer loop
      vertex 3.4228 0.432399 0
      vertex 3.34161 0.85798 0
      vertex 1.5013 0.385468 -1
    endloop
  endfacet
  facet normal -0.465547 -0.0292852 0.884539
    outer loop
      vertex 3.45 0 0
      vertex 3.4228 0.432399 0
      vertex 1.53778 0.194266 -1
    endloop
  endfacet
  facet normal -0.458203 0.0874134 0.884539
    outer loop
      vertex 3.34161 -0.85798 0
      vertex 3.4228 -0.432399 0
      vertex 1.5013 -0.385468 -1
    endloop
  endfacet
  facet normal -0.458202 0.0874218 0.884538
    outer loop
      vertex 3.4228 -0.432399 0
      vertex 1.53778 -0.194266 -1
      vertex 1.5013 -0.385468 -1
    endloop
  endfacet
  facet normal -0.171726 0.433706 0.884539
    outer loop
      vertex 1.46894 -3.12165 0
      vertex 0.659958 -1.40248 -1
      vertex 0.478976 -1.47414 -1
    endloop
  endfacet
  facet normal -0.171717 0.433712 0.884538
    outer loop
      vertex 1.06611 -3.28114 0
      vertex 1.46894 -3.12165 0
      vertex 0.478976 -1.47414 -1
    endloop
  endfacet
  facet normal -0.274183 0.377381 0.884538
    outer loop
      vertex 1.8486 -2.91293 0
      vertex 2.19911 -2.65827 0
      vertex 0.830531 -1.30871 -1
    endloop
  endfacet
  facet normal 0.443637 0.144143 0.884539
    outer loop
      vertex -3.20773 -1.27003 0
      vertex -1.44115 -0.570593 -1
      vertex -3.34161 -0.85798 0
    endloop
  endfacet
  facet normal 0.274193 0.377371 0.884539
    outer loop
      vertex -0.830531 -1.30871 -1
      vertex -0.988007 -1.19429 -1
      vertex -2.19911 -2.65827 0
    endloop
  endfacet
  facet normal 0.116009 0.451812 0.884538
    outer loop
      vertex -0.646465 -3.38889 0
      vertex -0.478976 -1.47414 -1
      vertex -1.06611 -3.28114 0
    endloop
  endfacet
  facet normal 0.31931 0.340047 0.884539
    outer loop
      vertex -0.988007 -1.19429 -1
      vertex -1.1299 -1.06105 -1
      vertex -2.19911 -2.65827 0
    endloop
  endfacet
  facet normal 0.422071 0.198611 0.884539
    outer loop
      vertex -3.02326 -1.66205 0
      vertex -1.44115 -0.570593 -1
      vertex -3.20773 -1.27003 0
    endloop
  endfacet
  facet normal 0.359418 0.297339 0.884538
    outer loop
      vertex -2.51494 -2.36169 0
      vertex -1.25398 -0.911067 -1
      vertex -2.79111 -2.02786 0
    endloop
  endfacet
  facet normal 0.458202 0.0874218 0.884538
    outer loop
      vertex -1.5013 -0.385468 -1
      vertex -1.53778 -0.194266 -1
      vertex -3.4228 -0.432399 0
    endloop
  endfacet
  facet normal 0.458203 -0.0874134 0.884539
    outer loop
      vertex -1.5013 0.385468 -1
      vertex -3.34161 0.85798 0
      vertex -3.4228 0.432399 0
    endloop
  endfacet
  facet normal 0.458202 -0.0874218 0.884538
    outer loop
      vertex -1.53778 0.194266 -1
      vertex -1.5013 0.385468 -1
      vertex -3.4228 0.432399 0
    endloop
  endfacet
  facet normal 0 -0.466467 0.884538
    outer loop
      vertex 0.216627 3.44319 0
      vertex -0.0973244 1.54694 -1
      vertex 0.0973244 1.54694 -1
    endloop
  endfacet
  facet normal 0 -0.466467 0.884538
    outer loop
      vertex -0.0973244 1.54694 -1
      vertex 0.216627 3.44319 0
      vertex -0.216627 3.44319 0
    endloop
  endfacet
  facet normal 0.171717 -0.433712 0.884538
    outer loop
      vertex -0.478976 1.47414 -1
      vertex -1.06611 3.28114 0
      vertex -1.46894 3.12165 0
    endloop
  endfacet
  facet normal 0.393851 -0.249946 0.884538
    outer loop
      vertex -1.25398 0.911067 -1
      vertex -2.79111 2.02786 0
      vertex -3.02326 1.66205 0
    endloop
  endfacet
  facet normal -0.171717 -0.433712 0.884538
    outer loop
      vertex 1.46894 3.12165 0
      vertex 1.06611 3.28114 0
      vertex 0.478976 1.47414 -1
    endloop
  endfacet
  facet normal -0.116009 -0.451812 0.884538
    outer loop
      vertex 1.06611 3.28114 0
      vertex 0.646465 3.38889 0
      vertex 0.478976 1.47414 -1
    endloop
  endfacet
  facet normal -0.274183 -0.377381 0.884538
    outer loop
      vertex 2.19911 2.65827 0
      vertex 1.8486 2.91293 0
      vertex 0.830531 1.30871 -1
    endloop
  endfacet
  facet normal -0.359418 -0.297339 0.884538
    outer loop
      vertex 2.79111 2.02786 0
      vertex 2.51494 2.36169 0
      vertex 1.25398 0.911067 -1
    endloop
  endfacet
  facet normal -0.422071 -0.198611 0.884539
    outer loop
      vertex 3.20773 1.27003 0
      vertex 3.02326 1.66205 0
      vertex 1.44115 0.570593 -1
    endloop
  endfacet
  facet normal -0.443637 0.144144 0.884539
    outer loop
      vertex 3.34161 -0.85798 0
      vertex 1.5013 -0.385468 -1
      vertex 1.44115 -0.570593 -1
    endloop
  endfacet
  facet normal -0.422071 0.198611 0.884539
    outer loop
      vertex 3.02326 -1.66205 0
      vertex 3.20773 -1.27003 0
      vertex 1.44115 -0.570593 -1
    endloop
  endfacet
  facet normal -0.359418 0.297339 0.884538
    outer loop
      vertex 2.51494 -2.36169 0
      vertex 2.79111 -2.02786 0
      vertex 1.25398 -0.911067 -1
    endloop
  endfacet
  facet normal -0.393851 0.249946 0.884538
    outer loop
      vertex 2.79111 -2.02786 0
      vertex 3.02326 -1.66205 0
      vertex 1.25398 -0.911067 -1
    endloop
  endfacet
  facet normal -0.0584625 0.462788 0.884539
    outer loop
      vertex 0.646465 -3.38889 0
      vertex 0.290441 -1.52254 -1
      vertex 0.216627 -3.44319 0
    endloop
  endfacet
  facet normal -0.319316 0.340042 0.884538
    outer loop
      vertex 2.19911 -2.65827 0
      vertex 2.51494 -2.36169 0
      vertex 1.1299 -1.06105 -1
    endloop
  endfacet
  facet normal 0.465547 0.0292852 0.884539
    outer loop
      vertex -3.4228 -0.432399 0
      vertex -1.53778 -0.194266 -1
      vertex -3.45 0 0
    endloop
  endfacet
  facet normal 0.0584625 0.462788 0.884539
    outer loop
      vertex -0.216627 -3.44319 0
      vertex -0.290441 -1.52254 -1
      vertex -0.646465 -3.38889 0
    endloop
  endfacet
  facet normal 0.115988 0.451815 0.884539
    outer loop
      vertex -0.290441 -1.52254 -1
      vertex -0.478976 -1.47414 -1
      vertex -0.646465 -3.38889 0
    endloop
  endfacet
  facet normal 0.171726 0.433706 0.884539
    outer loop
      vertex -0.478976 -1.47414 -1
      vertex -0.659958 -1.40248 -1
      vertex -1.46894 -3.12165 0
    endloop
  endfacet
  facet normal 0.224723 0.408769 0.884538
    outer loop
      vertex -1.46894 -3.12165 0
      vertex -0.830531 -1.30871 -1
      vertex -1.8486 -2.91293 0
    endloop
  endfacet
  facet normal 0.393851 0.249946 0.884538
    outer loop
      vertex -2.79111 -2.02786 0
      vertex -1.25398 -0.911067 -1
      vertex -3.02326 -1.66205 0
    endloop
  endfacet
  facet normal 0.443637 -0.144144 0.884539
    outer loop
      vertex -1.5013 0.385468 -1
      vertex -1.44115 0.570593 -1
      vertex -3.34161 0.85798 0
    endloop
  endfacet
  facet normal 0.115988 -0.451815 0.884539
    outer loop
      vertex -0.478976 1.47414 -1
      vertex -0.290441 1.52254 -1
      vertex -0.646465 3.38889 0
    endloop
  endfacet
  facet normal 0.31931 -0.340047 0.884539
    outer loop
      vertex -1.1299 1.06105 -1
      vertex -0.988007 1.19429 -1
      vertex -2.19911 2.65827 0
    endloop
  endfacet
  facet normal 0.359418 -0.297339 0.884538
    outer loop
      vertex -1.25398 0.911067 -1
      vertex -2.51494 2.36169 0
      vertex -2.79111 2.02786 0
    endloop
  endfacet
  facet normal 0.422071 -0.198611 0.884539
    outer loop
      vertex -1.44115 0.570593 -1
      vertex -3.02326 1.66205 0
      vertex -3.20773 1.27003 0
    endloop
  endfacet
  facet normal -0.171726 -0.433706 0.884539
    outer loop
      vertex 0.659958 1.40248 -1
      vertex 1.46894 3.12165 0
      vertex 0.478976 1.47414 -1
    endloop
  endfacet
  facet normal -0.274193 -0.377371 0.884539
    outer loop
      vertex 0.988007 1.19429 -1
      vertex 2.19911 2.65827 0
      vertex 0.830531 1.30871 -1
    endloop
  endfacet
  facet normal -0.224723 -0.408769 0.884538
    outer loop
      vertex 1.8486 2.91293 0
      vertex 1.46894 3.12165 0
      vertex 0.830531 1.30871 -1
    endloop
  endfacet
  facet normal -0.422068 -0.198616 0.884539
    outer loop
      vertex 1.44115 0.570593 -1
      vertex 3.02326 1.66205 0
      vertex 1.35827 0.746717 -1
    endloop
  endfacet
  facet normal -0.359415 -0.297342 0.884539
    outer loop
      vertex 1.25398 0.911067 -1
      vertex 2.51494 2.36169 0
      vertex 1.1299 1.06105 -1
    endloop
  endfacet
  facet normal -0.393851 -0.249946 0.884538
    outer loop
      vertex 3.02326 1.66205 0
      vertex 2.79111 2.02786 0
      vertex 1.25398 0.911067 -1
    endloop
  endfacet
  facet normal -0.465547 0.0292845 0.884539
    outer loop
      vertex 3.45 0 0
      vertex 1.55 0 -1
      vertex 1.53778 -0.194266 -1
    endloop
  endfacet
  facet normal -0.422068 0.198616 0.884539
    outer loop
      vertex 3.02326 -1.66205 0
      vertex 1.44115 -0.570593 -1
      vertex 1.35827 -0.746717 -1
    endloop
  endfacet
  facet normal -0.39386 0.249928 0.88454
    outer loop
      vertex 3.02326 -1.66205 0
      vertex 1.35827 -0.746717 -1
      vertex 1.25398 -0.911067 -1
    endloop
  endfacet
  facet normal -0.116009 0.451812 0.884538
    outer loop
      vertex 0.646465 -3.38889 0
      vertex 1.06611 -3.28114 0
      vertex 0.478976 -1.47414 -1
    endloop
  endfacet
  facet normal -0.115988 0.451815 0.884539
    outer loop
      vertex 0.646465 -3.38889 0
      vertex 0.478976 -1.47414 -1
      vertex 0.290441 -1.52254 -1
    endloop
  endfacet
  facet normal -0.0584726 0.462788 0.884538
    outer loop
      vertex 0.216627 -3.44319 0
      vertex 0.290441 -1.52254 -1
      vertex 0.0973244 -1.54694 -1
    endloop
  endfacet
  facet normal -0.31931 0.340047 0.884539
    outer loop
      vertex 2.19911 -2.65827 0
      vertex 1.1299 -1.06105 -1
      vertex 0.988007 -1.19429 -1
    endloop
  endfacet
  facet normal -0.274193 0.377371 0.884539
    outer loop
      vertex 2.19911 -2.65827 0
      vertex 0.988007 -1.19429 -1
      vertex 0.830531 -1.30871 -1
    endloop
  endfacet
  facet normal 0.443637 0.144144 0.884539
    outer loop
      vertex -1.44115 -0.570593 -1
      vertex -1.5013 -0.385468 -1
      vertex -3.34161 -0.85798 0
    endloop
  endfacet
  facet normal 0.458203 0.0874134 0.884539
    outer loop
      vertex -3.34161 -0.85798 0
      vertex -1.5013 -0.385468 -1
      vertex -3.4228 -0.432399 0
    endloop
  endfacet
  facet normal 0.171717 0.433712 0.884538
    outer loop
      vertex -1.06611 -3.28114 0
      vertex -0.478976 -1.47414 -1
      vertex -1.46894 -3.12165 0
    endloop
  endfacet
  facet normal 0.0584726 0.462788 0.884538
    outer loop
      vertex -0.216627 -3.44319 0
      vertex -0.0973244 -1.54694 -1
      vertex -0.290441 -1.52254 -1
    endloop
  endfacet
  facet normal 0.224716 0.408771 0.884539
    outer loop
      vertex -0.659958 -1.40248 -1
      vertex -0.830531 -1.30871 -1
      vertex -1.46894 -3.12165 0
    endloop
  endfacet
  facet normal 0.39386 0.249928 0.88454
    outer loop
      vertex -1.25398 -0.911067 -1
      vertex -1.35827 -0.746717 -1
      vertex -3.02326 -1.66205 0
    endloop
  endfacet
  facet normal 0.422068 0.198616 0.884539
    outer loop
      vertex -1.35827 -0.746717 -1
      vertex -1.44115 -0.570593 -1
      vertex -3.02326 -1.66205 0
    endloop
  endfacet
  facet normal 0.465547 -0.0292845 0.884539
    outer loop
      vertex -1.55 0 -1
      vertex -1.53778 0.194266 -1
      vertex -3.45 0 0
    endloop
  endfacet
  facet normal 0.274193 -0.377371 0.884539
    outer loop
      vertex -0.988007 1.19429 -1
      vertex -0.830531 1.30871 -1
      vertex -2.19911 2.65827 0
    endloop
  endfacet
  facet normal 0.274183 -0.377381 0.884538
    outer loop
      vertex -0.830531 1.30871 -1
      vertex -1.8486 2.91293 0
      vertex -2.19911 2.65827 0
    endloop
  endfacet
  facet normal 0.224723 -0.408769 0.884538
    outer loop
      vertex -0.830531 1.30871 -1
      vertex -1.46894 3.12165 0
      vertex -1.8486 2.91293 0
    endloop
  endfacet
  facet normal 0.0584625 -0.462788 0.884539
    outer loop
      vertex -0.290441 1.52254 -1
      vertex -0.216627 3.44319 0
      vertex -0.646465 3.38889 0
    endloop
  endfacet
  facet normal 0.0584726 -0.462788 0.884538
    outer loop
      vertex -0.0973244 1.54694 -1
      vertex -0.216627 3.44319 0
      vertex -0.290441 1.52254 -1
    endloop
  endfacet
  facet normal 0.359415 -0.297342 0.884539
    outer loop
      vertex -1.25398 0.911067 -1
      vertex -1.1299 1.06105 -1
      vertex -2.51494 2.36169 0
    endloop
  endfacet
  facet normal 0.422068 -0.198616 0.884539
    outer loop
      vertex -1.44115 0.570593 -1
      vertex -1.35827 0.746717 -1
      vertex -3.02326 1.66205 0
    endloop
  endfacet
  facet normal 0.39386 -0.249928 0.88454
    outer loop
      vertex -1.35827 0.746717 -1
      vertex -1.25398 0.911067 -1
      vertex -3.02326 1.66205 0
    endloop
  endfacet
  facet normal -0.224716 -0.408771 0.884539
    outer loop
      vertex 0.830531 1.30871 -1
      vertex 1.46894 3.12165 0
      vertex 0.659958 1.40248 -1
    endloop
  endfacet
  facet normal 0.116009 -0.451812 0.884538
    outer loop
      vertex -0.478976 1.47414 -1
      vertex -0.646465 3.38889 0
      vertex -1.06611 3.28114 0
    endloop
  endfacet
  facet normal 0.224716 -0.408771 0.884539
    outer loop
      vertex -0.830531 1.30871 -1
      vertex -0.659958 1.40248 -1
      vertex -1.46894 3.12165 0
    endloop
  endfacet
  facet normal 0.171726 -0.433706 0.884539
    outer loop
      vertex -0.659958 1.40248 -1
      vertex -0.478976 1.47414 -1
      vertex -1.46894 3.12165 0
    endloop
  endfacet
  facet normal -0.998027 -0.0627794 0
    outer loop
      vertex 1.55 0 -15
      vertex 1.53778 0.194266 -1
      vertex 1.53778 0.194266 -15
    endloop
  endfacet
  facet normal -0.998027 -0.0627794 0
    outer loop
      vertex 1.53778 0.194266 -1
      vertex 1.55 0 -15
      vertex 1.55 0 -1
    endloop
  endfacet
  facet normal 0.998027 -0.0627794 0
    outer loop
      vertex -1.55 0 -1
      vertex -1.53778 0.194266 -15
      vertex -1.53778 0.194266 -1
    endloop
  endfacet
  facet normal 0.998027 -0.0627794 0
    outer loop
      vertex -1.53778 0.194266 -15
      vertex -1.55 0 -1
      vertex -1.55 0 -15
    endloop
  endfacet
  facet normal 0 -1 0
    outer loop
      vertex -0.0973244 1.54694 -15
      vertex 0.0973244 1.54694 -1
      vertex -0.0973244 1.54694 -1
    endloop
  endfacet
  facet normal 0 -1 -0
    outer loop
      vertex 0.0973244 1.54694 -1
      vertex -0.0973244 1.54694 -15
      vertex 0.0973244 1.54694 -15
    endloop
  endfacet
  facet normal 0 1 -0
    outer loop
      vertex 0.0973244 -1.54694 -15
      vertex -0.0973244 -1.54694 -1
      vertex 0.0973244 -1.54694 -1
    endloop
  endfacet
  facet normal 0 1 0
    outer loop
      vertex -0.0973244 -1.54694 -1
      vertex 0.0973244 -1.54694 -15
      vertex -0.0973244 -1.54694 -15
    endloop
  endfacet
  facet normal -0.68453 -0.728985 0
    outer loop
      vertex 0.988007 1.19429 -15
      vertex 1.1299 1.06105 -1
      vertex 0.988007 1.19429 -1
    endloop
  endfacet
  facet normal -0.68453 -0.728985 -0
    outer loop
      vertex 1.1299 1.06105 -1
      vertex 0.988007 1.19429 -15
      vertex 1.1299 1.06105 -15
    endloop
  endfacet
  facet normal 0.68453 -0.728985 0
    outer loop
      vertex -1.1299 1.06105 -15
      vertex -0.988007 1.19429 -1
      vertex -1.1299 1.06105 -1
    endloop
  endfacet
  facet normal 0.68453 -0.728985 0
    outer loop
      vertex -0.988007 1.19429 -1
      vertex -1.1299 1.06105 -15
      vertex -0.988007 1.19429 -15
    endloop
  endfacet
  facet normal 0.368143 -0.929769 0
    outer loop
      vertex -0.659958 1.40248 -15
      vertex -0.478976 1.47414 -1
      vertex -0.659958 1.40248 -1
    endloop
  endfacet
  facet normal 0.368143 -0.929769 0
    outer loop
      vertex -0.478976 1.47414 -1
      vertex -0.659958 1.40248 -15
      vertex -0.478976 1.47414 -15
    endloop
  endfacet
  facet normal -0.904822 -0.425789 0
    outer loop
      vertex 1.44115 0.570593 -15
      vertex 1.35827 0.746717 -1
      vertex 1.35827 0.746717 -15
    endloop
  endfacet
  facet normal -0.904822 -0.425789 0
    outer loop
      vertex 1.35827 0.746717 -1
      vertex 1.44115 0.570593 -15
      vertex 1.44115 0.570593 -1
    endloop
  endfacet
  facet normal -0.84435 -0.535791 0
    outer loop
      vertex 1.35827 0.746717 -15
      vertex 1.25398 0.911067 -1
      vertex 1.25398 0.911067 -15
    endloop
  endfacet
  facet normal -0.84435 -0.535791 0
    outer loop
      vertex 1.25398 0.911067 -1
      vertex 1.35827 0.746717 -15
      vertex 1.35827 0.746717 -1
    endloop
  endfacet
  facet normal -0.368143 -0.929769 0
    outer loop
      vertex 0.478976 1.47414 -15
      vertex 0.659958 1.40248 -1
      vertex 0.478976 1.47414 -1
    endloop
  endfacet
  facet normal -0.368143 -0.929769 -0
    outer loop
      vertex 0.659958 1.40248 -1
      vertex 0.478976 1.47414 -15
      vertex 0.659958 1.40248 -15
    endloop
  endfacet
  facet normal -0.248653 -0.968593 0
    outer loop
      vertex 0.290441 1.52254 -15
      vertex 0.478976 1.47414 -1
      vertex 0.290441 1.52254 -1
    endloop
  endfacet
  facet normal -0.248653 -0.968593 -0
    outer loop
      vertex 0.478976 1.47414 -1
      vertex 0.290441 1.52254 -15
      vertex 0.478976 1.47414 -15
    endloop
  endfacet
  facet normal -0.587809 -0.809 0
    outer loop
      vertex 0.830531 1.30871 -15
      vertex 0.988007 1.19429 -1
      vertex 0.830531 1.30871 -1
    endloop
  endfacet
  facet normal -0.587809 -0.809 -0
    outer loop
      vertex 0.988007 1.19429 -1
      vertex 0.830531 1.30871 -15
      vertex 0.988007 1.19429 -15
    endloop
  endfacet
  facet normal 0.904822 -0.425789 0
    outer loop
      vertex -1.44115 0.570593 -1
      vertex -1.35827 0.746717 -15
      vertex -1.35827 0.746717 -1
    endloop
  endfacet
  facet normal 0.904822 -0.425789 0
    outer loop
      vertex -1.35827 0.746717 -15
      vertex -1.44115 0.570593 -1
      vertex -1.44115 0.570593 -15
    endloop
  endfacet
  facet normal 0.770505 -0.637434 0
    outer loop
      vertex -1.25398 0.911067 -1
      vertex -1.1299 1.06105 -15
      vertex -1.1299 1.06105 -1
    endloop
  endfacet
  facet normal 0.770505 -0.637434 0
    outer loop
      vertex -1.1299 1.06105 -15
      vertex -1.25398 0.911067 -1
      vertex -1.25398 0.911067 -15
    endloop
  endfacet
  facet normal 0.951058 -0.309013 0
    outer loop
      vertex -1.5013 0.385468 -1
      vertex -1.44115 0.570593 -15
      vertex -1.44115 0.570593 -1
    endloop
  endfacet
  facet normal 0.951058 -0.309013 0
    outer loop
      vertex -1.44115 0.570593 -15
      vertex -1.5013 0.385468 -1
      vertex -1.5013 0.385468 -15
    endloop
  endfacet
  facet normal 0.481741 -0.876314 0
    outer loop
      vertex -0.830531 1.30871 -15
      vertex -0.659958 1.40248 -1
      vertex -0.830531 1.30871 -1
    endloop
  endfacet
  facet normal 0.481741 -0.876314 0
    outer loop
      vertex -0.659958 1.40248 -1
      vertex -0.830531 1.30871 -15
      vertex -0.659958 1.40248 -15
    endloop
  endfacet
  facet normal 0.248653 -0.968593 0
    outer loop
      vertex -0.478976 1.47414 -15
      vertex -0.290441 1.52254 -1
      vertex -0.478976 1.47414 -1
    endloop
  endfacet
  facet normal 0.248653 -0.968593 0
    outer loop
      vertex -0.290441 1.52254 -1
      vertex -0.478976 1.47414 -15
      vertex -0.290441 1.52254 -15
    endloop
  endfacet
  facet normal -0.368143 0.929769 0
    outer loop
      vertex 0.659958 -1.40248 -15
      vertex 0.478976 -1.47414 -1
      vertex 0.659958 -1.40248 -1
    endloop
  endfacet
  facet normal -0.368143 0.929769 0
    outer loop
      vertex 0.478976 -1.47414 -1
      vertex 0.659958 -1.40248 -15
      vertex 0.478976 -1.47414 -15
    endloop
  endfacet
  facet normal -0.951058 -0.309013 0
    outer loop
      vertex 1.5013 0.385468 -15
      vertex 1.44115 0.570593 -1
      vertex 1.44115 0.570593 -15
    endloop
  endfacet
  facet normal -0.951058 -0.309013 0
    outer loop
      vertex 1.44115 0.570593 -1
      vertex 1.5013 0.385468 -15
      vertex 1.5013 0.385468 -1
    endloop
  endfacet
  facet normal -0.982281 -0.187412 0
    outer loop
      vertex 1.53778 0.194266 -15
      vertex 1.5013 0.385468 -1
      vertex 1.5013 0.385468 -15
    endloop
  endfacet
  facet normal -0.982281 -0.187412 0
    outer loop
      vertex 1.5013 0.385468 -1
      vertex 1.53778 0.194266 -15
      vertex 1.53778 0.194266 -1
    endloop
  endfacet
  facet normal -0.770505 -0.637434 0
    outer loop
      vertex 1.25398 0.911067 -15
      vertex 1.1299 1.06105 -1
      vertex 1.1299 1.06105 -15
    endloop
  endfacet
  facet normal -0.770505 -0.637434 0
    outer loop
      vertex 1.1299 1.06105 -1
      vertex 1.25398 0.911067 -15
      vertex 1.25398 0.911067 -1
    endloop
  endfacet
  facet normal -0.125352 -0.992112 0
    outer loop
      vertex 0.0973244 1.54694 -15
      vertex 0.290441 1.52254 -1
      vertex 0.0973244 1.54694 -1
    endloop
  endfacet
  facet normal -0.125352 -0.992112 -0
    outer loop
      vertex 0.290441 1.52254 -1
      vertex 0.0973244 1.54694 -15
      vertex 0.290441 1.52254 -15
    endloop
  endfacet
  facet normal -0.481741 -0.876314 0
    outer loop
      vertex 0.659958 1.40248 -15
      vertex 0.830531 1.30871 -1
      vertex 0.659958 1.40248 -1
    endloop
  endfacet
  facet normal -0.481741 -0.876314 -0
    outer loop
      vertex 0.830531 1.30871 -1
      vertex 0.659958 1.40248 -15
      vertex 0.830531 1.30871 -15
    endloop
  endfacet
  facet normal 0.84435 -0.535791 0
    outer loop
      vertex -1.35827 0.746717 -1
      vertex -1.25398 0.911067 -15
      vertex -1.25398 0.911067 -1
    endloop
  endfacet
  facet normal 0.84435 -0.535791 0
    outer loop
      vertex -1.25398 0.911067 -15
      vertex -1.35827 0.746717 -1
      vertex -1.35827 0.746717 -15
    endloop
  endfacet
  facet normal 0.982281 -0.187412 0
    outer loop
      vertex -1.53778 0.194266 -1
      vertex -1.5013 0.385468 -15
      vertex -1.5013 0.385468 -1
    endloop
  endfacet
  facet normal 0.982281 -0.187412 0
    outer loop
      vertex -1.5013 0.385468 -15
      vertex -1.53778 0.194266 -1
      vertex -1.53778 0.194266 -15
    endloop
  endfacet
  facet normal 0.587809 -0.809 0
    outer loop
      vertex -0.988007 1.19429 -15
      vertex -0.830531 1.30871 -1
      vertex -0.988007 1.19429 -1
    endloop
  endfacet
  facet normal 0.587809 -0.809 0
    outer loop
      vertex -0.830531 1.30871 -1
      vertex -0.988007 1.19429 -15
      vertex -0.830531 1.30871 -15
    endloop
  endfacet
  facet normal 0.125352 -0.992112 0
    outer loop
      vertex -0.290441 1.52254 -15
      vertex -0.0973244 1.54694 -1
      vertex -0.290441 1.52254 -1
    endloop
  endfacet
  facet normal 0.125352 -0.992112 0
    outer loop
      vertex -0.0973244 1.54694 -1
      vertex -0.290441 1.52254 -15
      vertex -0.0973244 1.54694 -15
    endloop
  endfacet
  facet normal -0.951058 0.309013 0
    outer loop
      vertex 1.44115 -0.570593 -15
      vertex 1.5013 -0.385468 -1
      vertex 1.5013 -0.385468 -15
    endloop
  endfacet
  facet normal -0.951058 0.309013 0
    outer loop
      vertex 1.5013 -0.385468 -1
      vertex 1.44115 -0.570593 -15
      vertex 1.44115 -0.570593 -1
    endloop
  endfacet
  facet normal -0.982281 0.187412 0
    outer loop
      vertex 1.5013 -0.385468 -15
      vertex 1.53778 -0.194266 -1
      vertex 1.53778 -0.194266 -15
    endloop
  endfacet
  facet normal -0.982281 0.187412 0
    outer loop
      vertex 1.53778 -0.194266 -1
      vertex 1.5013 -0.385468 -15
      vertex 1.5013 -0.385468 -1
    endloop
  endfacet
  facet normal 0.904822 0.425789 0
    outer loop
      vertex -1.35827 -0.746717 -1
      vertex -1.44115 -0.570593 -15
      vertex -1.44115 -0.570593 -1
    endloop
  endfacet
  facet normal 0.904822 0.425789 0
    outer loop
      vertex -1.44115 -0.570593 -15
      vertex -1.35827 -0.746717 -1
      vertex -1.35827 -0.746717 -15
    endloop
  endfacet
  facet normal 0.770505 0.637434 0
    outer loop
      vertex -1.1299 -1.06105 -1
      vertex -1.25398 -0.911067 -15
      vertex -1.25398 -0.911067 -1
    endloop
  endfacet
  facet normal 0.770505 0.637434 0
    outer loop
      vertex -1.25398 -0.911067 -15
      vertex -1.1299 -1.06105 -1
      vertex -1.1299 -1.06105 -15
    endloop
  endfacet
  facet normal -0.587809 0.809 0
    outer loop
      vertex 0.988007 -1.19429 -15
      vertex 0.830531 -1.30871 -1
      vertex 0.988007 -1.19429 -1
    endloop
  endfacet
  facet normal -0.587809 0.809 0
    outer loop
      vertex 0.830531 -1.30871 -1
      vertex 0.988007 -1.19429 -15
      vertex 0.830531 -1.30871 -15
    endloop
  endfacet
  facet normal -0.84435 0.535791 0
    outer loop
      vertex 1.25398 -0.911067 -15
      vertex 1.35827 -0.746717 -1
      vertex 1.35827 -0.746717 -15
    endloop
  endfacet
  facet normal -0.84435 0.535791 0
    outer loop
      vertex 1.35827 -0.746717 -1
      vertex 1.25398 -0.911067 -15
      vertex 1.25398 -0.911067 -1
    endloop
  endfacet
  facet normal -0.998027 0.0627794 0
    outer loop
      vertex 1.53778 -0.194266 -15
      vertex 1.55 0 -1
      vertex 1.55 0 -15
    endloop
  endfacet
  facet normal -0.998027 0.0627794 0
    outer loop
      vertex 1.55 0 -1
      vertex 1.53778 -0.194266 -15
      vertex 1.53778 -0.194266 -1
    endloop
  endfacet
  facet normal 0.248653 0.968593 -0
    outer loop
      vertex -0.290441 -1.52254 -15
      vertex -0.478976 -1.47414 -1
      vertex -0.290441 -1.52254 -1
    endloop
  endfacet
  facet normal 0.248653 0.968593 0
    outer loop
      vertex -0.478976 -1.47414 -1
      vertex -0.290441 -1.52254 -15
      vertex -0.478976 -1.47414 -15
    endloop
  endfacet
  facet normal 0.951058 0.309013 0
    outer loop
      vertex -1.44115 -0.570593 -1
      vertex -1.5013 -0.385468 -15
      vertex -1.5013 -0.385468 -1
    endloop
  endfacet
  facet normal 0.951058 0.309013 0
    outer loop
      vertex -1.5013 -0.385468 -15
      vertex -1.44115 -0.570593 -1
      vertex -1.44115 -0.570593 -15
    endloop
  endfacet
  facet normal 0.998027 0.0627794 0
    outer loop
      vertex -1.53778 -0.194266 -1
      vertex -1.55 0 -15
      vertex -1.55 0 -1
    endloop
  endfacet
  facet normal 0.998027 0.0627794 0
    outer loop
      vertex -1.55 0 -15
      vertex -1.53778 -0.194266 -1
      vertex -1.53778 -0.194266 -15
    endloop
  endfacet
  facet normal -0.770505 0.637434 0
    outer loop
      vertex 1.1299 -1.06105 -15
      vertex 1.25398 -0.911067 -1
      vertex 1.25398 -0.911067 -15
    endloop
  endfacet
  facet normal -0.770505 0.637434 0
    outer loop
      vertex 1.25398 -0.911067 -1
      vertex 1.1299 -1.06105 -15
      vertex 1.1299 -1.06105 -1
    endloop
  endfacet
  facet normal -0.481741 0.876314 0
    outer loop
      vertex 0.830531 -1.30871 -15
      vertex 0.659958 -1.40248 -1
      vertex 0.830531 -1.30871 -1
    endloop
  endfacet
  facet normal -0.481741 0.876314 0
    outer loop
      vertex 0.659958 -1.40248 -1
      vertex 0.830531 -1.30871 -15
      vertex 0.659958 -1.40248 -15
    endloop
  endfacet
  facet normal -0.904822 0.425789 0
    outer loop
      vertex 1.35827 -0.746717 -15
      vertex 1.44115 -0.570593 -1
      vertex 1.44115 -0.570593 -15
    endloop
  endfacet
  facet normal -0.904822 0.425789 0
    outer loop
      vertex 1.44115 -0.570593 -1
      vertex 1.35827 -0.746717 -15
      vertex 1.35827 -0.746717 -1
    endloop
  endfacet
  facet normal 0.125352 0.992112 -0
    outer loop
      vertex -0.0973244 -1.54694 -15
      vertex -0.290441 -1.52254 -1
      vertex -0.0973244 -1.54694 -1
    endloop
  endfacet
  facet normal 0.125352 0.992112 0
    outer loop
      vertex -0.290441 -1.52254 -1
      vertex -0.0973244 -1.54694 -15
      vertex -0.290441 -1.52254 -15
    endloop
  endfacet
  facet normal 0.84435 0.535791 0
    outer loop
      vertex -1.25398 -0.911067 -1
      vertex -1.35827 -0.746717 -15
      vertex -1.35827 -0.746717 -1
    endloop
  endfacet
  facet normal 0.84435 0.535791 0
    outer loop
      vertex -1.35827 -0.746717 -15
      vertex -1.25398 -0.911067 -1
      vertex -1.25398 -0.911067 -15
    endloop
  endfacet
  facet normal 0.982281 0.187412 0
    outer loop
      vertex -1.5013 -0.385468 -1
      vertex -1.53778 -0.194266 -15
      vertex -1.53778 -0.194266 -1
    endloop
  endfacet
  facet normal 0.982281 0.187412 0
    outer loop
      vertex -1.53778 -0.194266 -15
      vertex -1.5013 -0.385468 -1
      vertex -1.5013 -0.385468 -15
    endloop
  endfacet
  facet normal -0.68453 0.728985 0
    outer loop
      vertex 1.1299 -1.06105 -15
      vertex 0.988007 -1.19429 -1
      vertex 1.1299 -1.06105 -1
    endloop
  endfacet
  facet normal -0.68453 0.728985 0
    outer loop
      vertex 0.988007 -1.19429 -1
      vertex 1.1299 -1.06105 -15
      vertex 0.988007 -1.19429 -15
    endloop
  endfacet
  facet normal -0.248653 0.968593 0
    outer loop
      vertex 0.478976 -1.47414 -15
      vertex 0.290441 -1.52254 -1
      vertex 0.478976 -1.47414 -1
    endloop
  endfacet
  facet normal -0.248653 0.968593 0
    outer loop
      vertex 0.290441 -1.52254 -1
      vertex 0.478976 -1.47414 -15
      vertex 0.290441 -1.52254 -15
    endloop
  endfacet
  facet normal -0.125352 0.992112 0
    outer loop
      vertex 0.290441 -1.52254 -15
      vertex 0.0973244 -1.54694 -1
      vertex 0.290441 -1.52254 -1
    endloop
  endfacet
  facet normal -0.125352 0.992112 0
    outer loop
      vertex 0.0973244 -1.54694 -1
      vertex 0.290441 -1.52254 -15
      vertex 0.0973244 -1.54694 -15
    endloop
  endfacet
  facet normal 0.68453 0.728985 -0
    outer loop
      vertex -0.988007 -1.19429 -15
      vertex -1.1299 -1.06105 -1
      vertex -0.988007 -1.19429 -1
    endloop
  endfacet
  facet normal 0.68453 0.728985 0
    outer loop
      vertex -1.1299 -1.06105 -1
      vertex -0.988007 -1.19429 -15
      vertex -1.1299 -1.06105 -15
    endloop
  endfacet
  facet normal 0.587809 0.809 -0
    outer loop
      vertex -0.830531 -1.30871 -15
      vertex -0.988007 -1.19429 -1
      vertex -0.830531 -1.30871 -1
    endloop
  endfacet
  facet normal 0.587809 0.809 0
    outer loop
      vertex -0.988007 -1.19429 -1
      vertex -0.830531 -1.30871 -15
      vertex -0.988007 -1.19429 -15
    endloop
  endfacet
  facet normal 0.368143 0.929769 -0
    outer loop
      vertex -0.478976 -1.47414 -15
      vertex -0.659958 -1.40248 -1
      vertex -0.478976 -1.47414 -1
    endloop
  endfacet
  facet normal 0.368143 0.929769 0
    outer loop
      vertex -0.659958 -1.40248 -1
      vertex -0.478976 -1.47414 -15
      vertex -0.659958 -1.40248 -15
    endloop
  endfacet
  facet normal 0.481741 0.876314 -0
    outer loop
      vertex -0.659958 -1.40248 -15
      vertex -0.830531 -1.30871 -1
      vertex -0.659958 -1.40248 -1
    endloop
  endfacet
  facet normal 0.481741 0.876314 0
    outer loop
      vertex -0.830531 -1.30871 -1
      vertex -0.659958 -1.40248 -15
      vertex -0.830531 -1.30871 -15
    endloop
  endfacet
  facet normal 0.904831 0.425771 0
    outer loop
      vertex 9.29776 3.68124 0
      vertex 8.76307 4.81754 -15
      vertex 8.76307 4.81754 0
    endloop
  endfacet
  facet normal 0.904831 0.425771 0
    outer loop
      vertex 8.76307 4.81754 -15
      vertex 9.29776 3.68124 0
      vertex 9.29776 3.68124 -15
    endloop
  endfacet
  facet normal -0.951055 0.309021 0
    outer loop
      vertex -9.68583 2.4869 -15
      vertex -9.29776 3.68124 0
      vertex -9.29776 3.68124 -15
    endloop
  endfacet
  facet normal -0.951055 0.309021 0
    outer loop
      vertex -9.29776 3.68124 0
      vertex -9.68583 2.4869 -15
      vertex -9.68583 2.4869 0
    endloop
  endfacet
  facet normal 0.844325 0.535831 0
    outer loop
      vertex 8.76307 4.81754 0
      vertex 8.09017 5.87785 -15
      vertex 8.09017 5.87785 0
    endloop
  endfacet
  facet normal 0.844325 0.535831 0
    outer loop
      vertex 8.09017 5.87785 -15
      vertex 8.76307 4.81754 0
      vertex 8.76307 4.81754 -15
    endloop
  endfacet
  facet normal 0.368122 0.929777 -0
    outer loop
      vertex 4.25779 9.04827 -15
      vertex 3.09017 9.51056 0
      vertex 4.25779 9.04827 0
    endloop
  endfacet
  facet normal 0.368122 0.929777 0
    outer loop
      vertex 3.09017 9.51056 0
      vertex 4.25779 9.04827 -15
      vertex 3.09017 9.51056 -15
    endloop
  endfacet
  facet normal -0.368122 0.929777 0
    outer loop
      vertex -3.09017 9.51056 -15
      vertex -4.25779 9.04827 0
      vertex -3.09017 9.51056 0
    endloop
  endfacet
  facet normal -0.368122 0.929777 0
    outer loop
      vertex -4.25779 9.04827 0
      vertex -3.09017 9.51056 -15
      vertex -4.25779 9.04827 -15
    endloop
  endfacet
  facet normal -0.904831 0.425771 0
    outer loop
      vertex -9.29776 3.68124 -15
      vertex -8.76307 4.81754 0
      vertex -8.76307 4.81754 -15
    endloop
  endfacet
  facet normal -0.904831 0.425771 0
    outer loop
      vertex -8.76307 4.81754 0
      vertex -9.29776 3.68124 -15
      vertex -9.29776 3.68124 0
    endloop
  endfacet
  facet normal 0.998027 -0.0627883 0
    outer loop
      vertex 9.92115 -1.25333 0
      vertex 10 0 -15
      vertex 10 0 0
    endloop
  endfacet
  facet normal 0.998027 -0.0627883 0
    outer loop
      vertex 10 0 -15
      vertex 9.92115 -1.25333 0
      vertex 9.92115 -1.25333 -15
    endloop
  endfacet
  facet normal 0.368122 -0.929777 0
    outer loop
      vertex 3.09017 -9.51056 -15
      vertex 4.25779 -9.04827 0
      vertex 3.09017 -9.51056 0
    endloop
  endfacet
  facet normal 0.368122 -0.929777 0
    outer loop
      vertex 4.25779 -9.04827 0
      vertex 3.09017 -9.51056 -15
      vertex 4.25779 -9.04827 -15
    endloop
  endfacet
  facet normal 0.125338 0.992114 -0
    outer loop
      vertex 1.87381 9.82287 -15
      vertex 0.627905 9.98027 0
      vertex 1.87381 9.82287 0
    endloop
  endfacet
  facet normal 0.125338 0.992114 0
    outer loop
      vertex 0.627905 9.98027 0
      vertex 1.87381 9.82287 -15
      vertex 0.627905 9.98027 -15
    endloop
  endfacet
  facet normal -0.770515 0.637422 0
    outer loop
      vertex -8.09017 5.87785 -15
      vertex -7.28969 6.84547 0
      vertex -7.28969 6.84547 -15
    endloop
  endfacet
  facet normal -0.770515 0.637422 0
    outer loop
      vertex -7.28969 6.84547 0
      vertex -8.09017 5.87785 -15
      vertex -8.09017 5.87785 0
    endloop
  endfacet
  facet normal -0.481751 0.876308 0
    outer loop
      vertex -4.25779 9.04827 -15
      vertex -5.35827 8.44328 0
      vertex -4.25779 9.04827 0
    endloop
  endfacet
  facet normal -0.481751 0.876308 0
    outer loop
      vertex -5.35827 8.44328 0
      vertex -4.25779 9.04827 -15
      vertex -5.35827 8.44328 -15
    endloop
  endfacet
  facet normal -0.125338 0.992114 0
    outer loop
      vertex -0.627905 9.98027 -15
      vertex -1.87381 9.82287 0
      vertex -0.627905 9.98027 0
    endloop
  endfacet
  facet normal -0.125338 0.992114 0
    outer loop
      vertex -1.87381 9.82287 0
      vertex -0.627905 9.98027 -15
      vertex -1.87381 9.82287 -15
    endloop
  endfacet
  facet normal -0.587788 0.809015 0
    outer loop
      vertex -5.35827 8.44328 -15
      vertex -6.37424 7.70513 0
      vertex -5.35827 8.44328 0
    endloop
  endfacet
  facet normal -0.587788 0.809015 0
    outer loop
      vertex -6.37424 7.70513 0
      vertex -5.35827 8.44328 -15
      vertex -6.37424 7.70513 -15
    endloop
  endfacet
  facet normal 0.998027 0.0627883 0
    outer loop
      vertex 10 0 0
      vertex 9.92115 1.25333 -15
      vertex 9.92115 1.25333 0
    endloop
  endfacet
  facet normal 0.998027 0.0627883 0
    outer loop
      vertex 9.92115 1.25333 -15
      vertex 10 0 0
      vertex 10 0 -15
    endloop
  endfacet
  facet normal 0.951055 -0.309021 0
    outer loop
      vertex 9.29776 -3.68124 0
      vertex 9.68583 -2.4869 -15
      vertex 9.68583 -2.4869 0
    endloop
  endfacet
  facet normal 0.951055 -0.309021 0
    outer loop
      vertex 9.68583 -2.4869 -15
      vertex 9.29776 -3.68124 0
      vertex 9.29776 -3.68124 -15
    endloop
  endfacet
  facet normal -0.125338 -0.992114 0
    outer loop
      vertex -1.87381 -9.82287 -15
      vertex -0.627905 -9.98027 0
      vertex -1.87381 -9.82287 0
    endloop
  endfacet
  facet normal -0.125338 -0.992114 -0
    outer loop
      vertex -0.627905 -9.98027 0
      vertex -1.87381 -9.82287 -15
      vertex -0.627905 -9.98027 -15
    endloop
  endfacet
  facet normal 0.248691 -0.968583 0
    outer loop
      vertex 1.87381 -9.82287 -15
      vertex 3.09017 -9.51056 0
      vertex 1.87381 -9.82287 0
    endloop
  endfacet
  facet normal 0.248691 -0.968583 0
    outer loop
      vertex 3.09017 -9.51056 0
      vertex 1.87381 -9.82287 -15
      vertex 3.09017 -9.51056 -15
    endloop
  endfacet
  facet normal 0.951055 0.309021 0
    outer loop
      vertex 9.68583 2.4869 0
      vertex 9.29776 3.68124 -15
      vertex 9.29776 3.68124 0
    endloop
  endfacet
  facet normal 0.951055 0.309021 0
    outer loop
      vertex 9.29776 3.68124 -15
      vertex 9.68583 2.4869 0
      vertex 9.68583 2.4869 -15
    endloop
  endfacet
  facet normal 0.684545 0.728971 -0
    outer loop
      vertex 7.28969 6.84547 -15
      vertex 6.37424 7.70513 0
      vertex 7.28969 6.84547 0
    endloop
  endfacet
  facet normal 0.684545 0.728971 0
    outer loop
      vertex 6.37424 7.70513 0
      vertex 7.28969 6.84547 -15
      vertex 6.37424 7.70513 -15
    endloop
  endfacet
  facet normal 0.770515 0.637422 0
    outer loop
      vertex 8.09017 5.87785 0
      vertex 7.28969 6.84547 -15
      vertex 7.28969 6.84547 0
    endloop
  endfacet
  facet normal 0.770515 0.637422 0
    outer loop
      vertex 7.28969 6.84547 -15
      vertex 8.09017 5.87785 0
      vertex 8.09017 5.87785 -15
    endloop
  endfacet
  facet normal 0 1 -0
    outer loop
      vertex 0.627905 9.98027 -15
      vertex -0.627905 9.98027 0
      vertex 0.627905 9.98027 0
    endloop
  endfacet
  facet normal 0 1 0
    outer loop
      vertex -0.627905 9.98027 0
      vertex 0.627905 9.98027 -15
      vertex -0.627905 9.98027 -15
    endloop
  endfacet
  facet normal 0.248691 0.968583 -0
    outer loop
      vertex 3.09017 9.51056 -15
      vertex 1.87381 9.82287 0
      vertex 3.09017 9.51056 0
    endloop
  endfacet
  facet normal 0.248691 0.968583 0
    outer loop
      vertex 1.87381 9.82287 0
      vertex 3.09017 9.51056 -15
      vertex 1.87381 9.82287 -15
    endloop
  endfacet
  facet normal 0.587788 0.809015 -0
    outer loop
      vertex 6.37424 7.70513 -15
      vertex 5.35827 8.44328 0
      vertex 6.37424 7.70513 0
    endloop
  endfacet
  facet normal 0.587788 0.809015 0
    outer loop
      vertex 5.35827 8.44328 0
      vertex 6.37424 7.70513 -15
      vertex 5.35827 8.44328 -15
    endloop
  endfacet
  facet normal 0.481751 0.876308 -0
    outer loop
      vertex 5.35827 8.44328 -15
      vertex 4.25779 9.04827 0
      vertex 5.35827 8.44328 0
    endloop
  endfacet
  facet normal 0.481751 0.876308 0
    outer loop
      vertex 4.25779 9.04827 0
      vertex 5.35827 8.44328 -15
      vertex 4.25779 9.04827 -15
    endloop
  endfacet
  facet normal -0.998027 0.0627883 0
    outer loop
      vertex -10 0 -15
      vertex -9.92115 1.25333 0
      vertex -9.92115 1.25333 -15
    endloop
  endfacet
  facet normal -0.998027 0.0627883 0
    outer loop
      vertex -9.92115 1.25333 0
      vertex -10 0 -15
      vertex -10 0 0
    endloop
  endfacet
  facet normal -0.684545 0.728971 0
    outer loop
      vertex -6.37424 7.70513 -15
      vertex -7.28969 6.84547 0
      vertex -6.37424 7.70513 0
    endloop
  endfacet
  facet normal -0.684545 0.728971 0
    outer loop
      vertex -7.28969 6.84547 0
      vertex -6.37424 7.70513 -15
      vertex -7.28969 6.84547 -15
    endloop
  endfacet
  facet normal 0.982287 -0.187384 0
    outer loop
      vertex 9.68583 -2.4869 0
      vertex 9.92115 -1.25333 -15
      vertex 9.92115 -1.25333 0
    endloop
  endfacet
  facet normal 0.982287 -0.187384 0
    outer loop
      vertex 9.92115 -1.25333 -15
      vertex 9.68583 -2.4869 0
      vertex 9.68583 -2.4869 -15
    endloop
  endfacet
  facet normal -0.248691 -0.968583 0
    outer loop
      vertex -3.09017 -9.51056 -15
      vertex -1.87381 -9.82287 0
      vertex -3.09017 -9.51056 0
    endloop
  endfacet
  facet normal -0.248691 -0.968583 -0
    outer loop
      vertex -1.87381 -9.82287 0
      vertex -3.09017 -9.51056 -15
      vertex -1.87381 -9.82287 -15
    endloop
  endfacet
  facet normal 0.125338 -0.992114 0
    outer loop
      vertex 0.627905 -9.98027 -15
      vertex 1.87381 -9.82287 0
      vertex 0.627905 -9.98027 0
    endloop
  endfacet
  facet normal 0.125338 -0.992114 0
    outer loop
      vertex 1.87381 -9.82287 0
      vertex 0.627905 -9.98027 -15
      vertex 1.87381 -9.82287 -15
    endloop
  endfacet
  facet normal 0.982287 0.187384 0
    outer loop
      vertex 9.92115 1.25333 0
      vertex 9.68583 2.4869 -15
      vertex 9.68583 2.4869 0
    endloop
  endfacet
  facet normal 0.982287 0.187384 0
    outer loop
      vertex 9.68583 2.4869 -15
      vertex 9.92115 1.25333 0
      vertex 9.92115 1.25333 -15
    endloop
  endfacet
  facet normal -0.982287 0.187384 0
    outer loop
      vertex -9.92115 1.25333 -15
      vertex -9.68583 2.4869 0
      vertex -9.68583 2.4869 -15
    endloop
  endfacet
  facet normal -0.982287 0.187384 0
    outer loop
      vertex -9.68583 2.4869 0
      vertex -9.92115 1.25333 -15
      vertex -9.92115 1.25333 0
    endloop
  endfacet
  facet normal -0.844325 0.535831 0
    outer loop
      vertex -8.76307 4.81754 -15
      vertex -8.09017 5.87785 0
      vertex -8.09017 5.87785 -15
    endloop
  endfacet
  facet normal -0.844325 0.535831 0
    outer loop
      vertex -8.09017 5.87785 0
      vertex -8.76307 4.81754 -15
      vertex -8.76307 4.81754 0
    endloop
  endfacet
  facet normal -0.248691 0.968583 0
    outer loop
      vertex -1.87381 9.82287 -15
      vertex -3.09017 9.51056 0
      vertex -1.87381 9.82287 0
    endloop
  endfacet
  facet normal -0.248691 0.968583 0
    outer loop
      vertex -3.09017 9.51056 0
      vertex -1.87381 9.82287 -15
      vertex -3.09017 9.51056 -15
    endloop
  endfacet
  facet normal 0.481751 -0.876308 0
    outer loop
      vertex 4.25779 -9.04827 -15
      vertex 5.35827 -8.44328 0
      vertex 4.25779 -9.04827 0
    endloop
  endfacet
  facet normal 0.481751 -0.876308 0
    outer loop
      vertex 5.35827 -8.44328 0
      vertex 4.25779 -9.04827 -15
      vertex 5.35827 -8.44328 -15
    endloop
  endfacet
  facet normal 0.770515 -0.637422 0
    outer loop
      vertex 7.28969 -6.84547 0
      vertex 8.09017 -5.87785 -15
      vertex 8.09017 -5.87785 0
    endloop
  endfacet
  facet normal 0.770515 -0.637422 0
    outer loop
      vertex 8.09017 -5.87785 -15
      vertex 7.28969 -6.84547 0
      vertex 7.28969 -6.84547 -15
    endloop
  endfacet
  facet normal 0.844325 -0.535831 0
    outer loop
      vertex 8.09017 -5.87785 0
      vertex 8.76307 -4.81754 -15
      vertex 8.76307 -4.81754 0
    endloop
  endfacet
  facet normal 0.844325 -0.535831 0
    outer loop
      vertex 8.76307 -4.81754 -15
      vertex 8.09017 -5.87785 0
      vertex 8.09017 -5.87785 -15
    endloop
  endfacet
  facet normal -0.481751 -0.876308 0
    outer loop
      vertex -5.35827 -8.44328 -15
      vertex -4.25779 -9.04827 0
      vertex -5.35827 -8.44328 0
    endloop
  endfacet
  facet normal -0.481751 -0.876308 -0
    outer loop
      vertex -4.25779 -9.04827 0
      vertex -5.35827 -8.44328 -15
      vertex -4.25779 -9.04827 -15
    endloop
  endfacet
  facet normal -0.998027 -0.0627883 0
    outer loop
      vertex -9.92115 -1.25333 -15
      vertex -10 0 0
      vertex -10 0 -15
    endloop
  endfacet
  facet normal -0.998027 -0.0627883 0
    outer loop
      vertex -10 0 0
      vertex -9.92115 -1.25333 -15
      vertex -9.92115 -1.25333 0
    endloop
  endfacet
  facet normal -0.951055 -0.309021 0
    outer loop
      vertex -9.29776 -3.68124 -15
      vertex -9.68583 -2.4869 0
      vertex -9.68583 -2.4869 -15
    endloop
  endfacet
  facet normal -0.951055 -0.309021 0
    outer loop
      vertex -9.68583 -2.4869 0
      vertex -9.29776 -3.68124 -15
      vertex -9.29776 -3.68124 0
    endloop
  endfacet
  facet normal -0.770515 -0.637422 0
    outer loop
      vertex -7.28969 -6.84547 -15
      vertex -8.09017 -5.87785 0
      vertex -8.09017 -5.87785 -15
    endloop
  endfacet
  facet normal -0.770515 -0.637422 0
    outer loop
      vertex -8.09017 -5.87785 0
      vertex -7.28969 -6.84547 -15
      vertex -7.28969 -6.84547 0
    endloop
  endfacet
  facet normal 0.684545 -0.728971 0
    outer loop
      vertex 6.37424 -7.70513 -15
      vertex 7.28969 -6.84547 0
      vertex 6.37424 -7.70513 0
    endloop
  endfacet
  facet normal 0.684545 -0.728971 0
    outer loop
      vertex 7.28969 -6.84547 0
      vertex 6.37424 -7.70513 -15
      vertex 7.28969 -6.84547 -15
    endloop
  endfacet
  facet normal 0.587788 -0.809015 0
    outer loop
      vertex 5.35827 -8.44328 -15
      vertex 6.37424 -7.70513 0
      vertex 5.35827 -8.44328 0
    endloop
  endfacet
  facet normal 0.587788 -0.809015 0
    outer loop
      vertex 6.37424 -7.70513 0
      vertex 5.35827 -8.44328 -15
      vertex 6.37424 -7.70513 -15
    endloop
  endfacet
  facet normal 0.904831 -0.425771 0
    outer loop
      vertex 8.76307 -4.81754 0
      vertex 9.29776 -3.68124 -15
      vertex 9.29776 -3.68124 0
    endloop
  endfacet
  facet normal 0.904831 -0.425771 0
    outer loop
      vertex 9.29776 -3.68124 -15
      vertex 8.76307 -4.81754 0
      vertex 8.76307 -4.81754 -15
    endloop
  endfacet
  facet normal -0.684545 -0.728971 0
    outer loop
      vertex -7.28969 -6.84547 -15
      vertex -6.37424 -7.70513 0
      vertex -7.28969 -6.84547 0
    endloop
  endfacet
  facet normal -0.684545 -0.728971 -0
    outer loop
      vertex -6.37424 -7.70513 0
      vertex -7.28969 -6.84547 -15
      vertex -6.37424 -7.70513 -15
    endloop
  endfacet
  facet normal 0 -1 0
    outer loop
      vertex -0.627905 -9.98027 -15
      vertex 0.627905 -9.98027 0
      vertex -0.627905 -9.98027 0
    endloop
  endfacet
  facet normal 0 -1 -0
    outer loop
      vertex 0.627905 -9.98027 0
      vertex -0.627905 -9.98027 -15
      vertex 0.627905 -9.98027 -15
    endloop
  endfacet
  facet normal -0.587788 -0.809015 0
    outer loop
      vertex -6.37424 -7.70513 -15
      vertex -5.35827 -8.44328 0
      vertex -6.37424 -7.70513 0
    endloop
  endfacet
  facet normal -0.587788 -0.809015 -0
    outer loop
      vertex -5.35827 -8.44328 0
      vertex -6.37424 -7.70513 -15
      vertex -5.35827 -8.44328 -15
    endloop
  endfacet
  facet normal 0 0 -1
    outer loop
      vertex 1.55 0 -15
      vertex 10 0 -15
      vertex 9.92115 -1.25333 -15
    endloop
  endfacet
  facet normal 0 0 -1
    outer loop
      vertex 1.53778 -0.194266 -15
      vertex 9.92115 -1.25333 -15
      vertex 9.68583 -2.4869 -15
    endloop
  endfacet
  facet normal 0 0 -1
    outer loop
      vertex 10 0 -15
      vertex 1.55 0 -15
      vertex 9.92115 1.25333 -15
    endloop
  endfacet
  facet normal 0 0 -1
    outer loop
      vertex 1.5013 -0.385468 -15
      vertex 9.68583 -2.4869 -15
      vertex 9.29776 -3.68124 -15
    endloop
  endfacet
  facet normal 0 0 -1
    outer loop
      vertex 1.53778 0.194266 -15
      vertex 9.92115 1.25333 -15
      vertex 1.55 0 -15
    endloop
  endfacet
  facet normal 0 0 -1
    outer loop
      vertex 1.44115 -0.570593 -15
      vertex 9.29776 -3.68124 -15
      vertex 8.76307 -4.81754 -15
    endloop
  endfacet
  facet normal -0 0 -1
    outer loop
      vertex 9.92115 1.25333 -15
      vertex 1.53778 0.194266 -15
      vertex 9.68583 2.4869 -15
    endloop
  endfacet
  facet normal 0 0 -1
    outer loop
      vertex 1.35827 -0.746717 -15
      vertex 8.76307 -4.81754 -15
      vertex 8.09017 -5.87785 -15
    endloop
  endfacet
  facet normal 0 0 -1
    outer loop
      vertex 1.5013 0.385468 -15
      vertex 9.68583 2.4869 -15
      vertex 1.53778 0.194266 -15
    endloop
  endfacet
  facet normal 0 0 -1
    outer loop
      vertex 1.25398 -0.911067 -15
      vertex 8.09017 -5.87785 -15
      vertex 7.28969 -6.84547 -15
    endloop
  endfacet
  facet normal -0 0 -1
    outer loop
      vertex 9.68583 2.4869 -15
      vertex 1.5013 0.385468 -15
      vertex 9.29776 3.68124 -15
    endloop
  endfacet
  facet normal 0 0 -1
    outer loop
      vertex 1.1299 -1.06105 -15
      vertex 7.28969 -6.84547 -15
      vertex 6.37424 -7.70513 -15
    endloop
  endfacet
  facet normal 0 0 -1
    outer loop
      vertex 1.44115 0.570593 -15
      vertex 9.29776 3.68124 -15
      vertex 1.5013 0.385468 -15
    endloop
  endfacet
  facet normal 0 0 -1
    outer loop
      vertex 0.988007 -1.19429 -15
      vertex 6.37424 -7.70513 -15
      vertex 5.35827 -8.44328 -15
    endloop
  endfacet
  facet normal -0 0 -1
    outer loop
      vertex 9.29776 3.68124 -15
      vertex 1.44115 0.570593 -15
      vertex 8.76307 4.81754 -15
    endloop
  endfacet
  facet normal 0 0 -1
    outer loop
      vertex 0.830531 -1.30871 -15
      vertex 5.35827 -8.44328 -15
      vertex 4.25779 -9.04827 -15
    endloop
  endfacet
  facet normal 0 0 -1
    outer loop
      vertex 1.35827 0.746717 -15
      vertex 8.76307 4.81754 -15
      vertex 1.44115 0.570593 -15
    endloop
  endfacet
  facet normal 0 0 -1
    outer loop
      vertex 0.659958 -1.40248 -15
      vertex 4.25779 -9.04827 -15
      vertex 3.09017 -9.51056 -15
    endloop
  endfacet
  facet normal -0 0 -1
    outer loop
      vertex 8.76307 4.81754 -15
      vertex 1.35827 0.746717 -15
      vertex 8.09017 5.87785 -15
    endloop
  endfacet
  facet normal 0 0 -1
    outer loop
      vertex 0.478976 -1.47414 -15
      vertex 3.09017 -9.51056 -15
      vertex 1.87381 -9.82287 -15
    endloop
  endfacet
  facet normal 0 0 -1
    outer loop
      vertex 1.25398 0.911067 -15
      vertex 8.09017 5.87785 -15
      vertex 1.35827 0.746717 -15
    endloop
  endfacet
  facet normal -0 0 -1
    outer loop
      vertex 8.09017 5.87785 -15
      vertex 1.25398 0.911067 -15
      vertex 7.28969 6.84547 -15
    endloop
  endfacet
  facet normal 0 0 -1
    outer loop
      vertex 9.92115 -1.25333 -15
      vertex 1.53778 -0.194266 -15
      vertex 1.55 0 -15
    endloop
  endfacet
  facet normal 0 0 -1
    outer loop
      vertex 9.68583 -2.4869 -15
      vertex 1.5013 -0.385468 -15
      vertex 1.53778 -0.194266 -15
    endloop
  endfacet
  facet normal 0 0 -1
    outer loop
      vertex 9.29776 -3.68124 -15
      vertex 1.44115 -0.570593 -15
      vertex 1.5013 -0.385468 -15
    endloop
  endfacet
  facet normal 0 0 -1
    outer loop
      vertex 8.76307 -4.81754 -15
      vertex 1.35827 -0.746717 -15
      vertex 1.44115 -0.570593 -15
    endloop
  endfacet
  facet normal 0 0 -1
    outer loop
      vertex 8.09017 -5.87785 -15
      vertex 1.25398 -0.911067 -15
      vertex 1.35827 -0.746717 -15
    endloop
  endfacet
  facet normal 0 0 -1
    outer loop
      vertex 7.28969 -6.84547 -15
      vertex 1.1299 -1.06105 -15
      vertex 1.25398 -0.911067 -15
    endloop
  endfacet
  facet normal 0 0 -1
    outer loop
      vertex 6.37424 -7.70513 -15
      vertex 0.988007 -1.19429 -15
      vertex 1.1299 -1.06105 -15
    endloop
  endfacet
  facet normal 0 0 -1
    outer loop
      vertex 5.35827 -8.44328 -15
      vertex 0.830531 -1.30871 -15
      vertex 0.988007 -1.19429 -15
    endloop
  endfacet
  facet normal 0 0 -1
    outer loop
      vertex 4.25779 -9.04827 -15
      vertex 0.659958 -1.40248 -15
      vertex 0.830531 -1.30871 -15
    endloop
  endfacet
  facet normal 0 0 -1
    outer loop
      vertex 0.290441 -1.52254 -15
      vertex 1.87381 -9.82287 -15
      vertex 0.627905 -9.98027 -15
    endloop
  endfacet
  facet normal 0 0 -1
    outer loop
      vertex 3.09017 -9.51056 -15
      vertex 0.478976 -1.47414 -15
      vertex 0.659958 -1.40248 -15
    endloop
  endfacet
  facet normal 0 0 -1
    outer loop
      vertex 1.87381 -9.82287 -15
      vertex 0.290441 -1.52254 -15
      vertex 0.478976 -1.47414 -15
    endloop
  endfacet
  facet normal 0 0 -1
    outer loop
      vertex 0.627905 -9.98027 -15
      vertex 0.0973244 -1.54694 -15
      vertex 0.290441 -1.52254 -15
    endloop
  endfacet
  facet normal 0 0 -1
    outer loop
      vertex 0.627905 -9.98027 -15
      vertex -0.0973244 -1.54694 -15
      vertex 0.0973244 -1.54694 -15
    endloop
  endfacet
  facet normal 0 0 -1
    outer loop
      vertex -0.627905 -9.98027 -15
      vertex -0.0973244 -1.54694 -15
      vertex 0.627905 -9.98027 -15
    endloop
  endfacet
  facet normal -0 0 -1
    outer loop
      vertex -0.0973244 -1.54694 -15
      vertex -0.627905 -9.98027 -15
      vertex -0.290441 -1.52254 -15
    endloop
  endfacet
  facet normal 0 0 -1
    outer loop
      vertex -1.87381 -9.82287 -15
      vertex -0.290441 -1.52254 -15
      vertex -0.627905 -9.98027 -15
    endloop
  endfacet
  facet normal -0 0 -1
    outer loop
      vertex -0.290441 -1.52254 -15
      vertex -1.87381 -9.82287 -15
      vertex -0.478976 -1.47414 -15
    endloop
  endfacet
  facet normal 0 0 -1
    outer loop
      vertex -3.09017 -9.51056 -15
      vertex -0.478976 -1.47414 -15
      vertex -1.87381 -9.82287 -15
    endloop
  endfacet
  facet normal -0 0 -1
    outer loop
      vertex -0.478976 -1.47414 -15
      vertex -3.09017 -9.51056 -15
      vertex -0.659958 -1.40248 -15
    endloop
  endfacet
  facet normal 0 0 -1
    outer loop
      vertex -4.25779 -9.04827 -15
      vertex -0.659958 -1.40248 -15
      vertex -3.09017 -9.51056 -15
    endloop
  endfacet
  facet normal -0 0 -1
    outer loop
      vertex -0.659958 -1.40248 -15
      vertex -4.25779 -9.04827 -15
      vertex -0.830531 -1.30871 -15
    endloop
  endfacet
  facet normal 0 0 -1
    outer loop
      vertex -5.35827 -8.44328 -15
      vertex -0.830531 -1.30871 -15
      vertex -4.25779 -9.04827 -15
    endloop
  endfacet
  facet normal -0 0 -1
    outer loop
      vertex -0.830531 -1.30871 -15
      vertex -5.35827 -8.44328 -15
      vertex -0.988007 -1.19429 -15
    endloop
  endfacet
  facet normal 0 0 -1
    outer loop
      vertex -6.37424 -7.70513 -15
      vertex -0.988007 -1.19429 -15
      vertex -5.35827 -8.44328 -15
    endloop
  endfacet
  facet normal -0 0 -1
    outer loop
      vertex -0.988007 -1.19429 -15
      vertex -6.37424 -7.70513 -15
      vertex -1.1299 -1.06105 -15
    endloop
  endfacet
  facet normal -0 0 -1
    outer loop
      vertex -1.1299 -1.06105 -15
      vertex -7.28969 -6.84547 -15
      vertex -1.25398 -0.911067 -15
    endloop
  endfacet
  facet normal 0 0 -1
    outer loop
      vertex -7.28969 -6.84547 -15
      vertex -1.1299 -1.06105 -15
      vertex -6.37424 -7.70513 -15
    endloop
  endfacet
  facet normal 0 0 -1
    outer loop
      vertex 1.1299 1.06105 -15
      vertex 7.28969 6.84547 -15
      vertex 1.25398 0.911067 -15
    endloop
  endfacet
  facet normal -0 0 -1
    outer loop
      vertex 7.28969 6.84547 -15
      vertex 1.1299 1.06105 -15
      vertex 6.37424 7.70513 -15
    endloop
  endfacet
  facet normal 0 0 -1
    outer loop
      vertex 0.988007 1.19429 -15
      vertex 6.37424 7.70513 -15
      vertex 1.1299 1.06105 -15
    endloop
  endfacet
  facet normal -0 0 -1
    outer loop
      vertex 6.37424 7.70513 -15
      vertex 0.988007 1.19429 -15
      vertex 5.35827 8.44328 -15
    endloop
  endfacet
  facet normal 0 0 -1
    outer loop
      vertex 0.830531 1.30871 -15
      vertex 5.35827 8.44328 -15
      vertex 0.988007 1.19429 -15
    endloop
  endfacet
  facet normal -0 0 -1
    outer loop
      vertex 5.35827 8.44328 -15
      vertex 0.830531 1.30871 -15
      vertex 4.25779 9.04827 -15
    endloop
  endfacet
  facet normal 0 0 -1
    outer loop
      vertex 0.659958 1.40248 -15
      vertex 4.25779 9.04827 -15
      vertex 0.830531 1.30871 -15
    endloop
  endfacet
  facet normal -0 0 -1
    outer loop
      vertex 4.25779 9.04827 -15
      vertex 0.659958 1.40248 -15
      vertex 3.09017 9.51056 -15
    endloop
  endfacet
  facet normal 0 0 -1
    outer loop
      vertex 0.478976 1.47414 -15
      vertex 3.09017 9.51056 -15
      vertex 0.659958 1.40248 -15
    endloop
  endfacet
  facet normal -0 0 -1
    outer loop
      vertex 3.09017 9.51056 -15
      vertex 0.478976 1.47414 -15
      vertex 1.87381 9.82287 -15
    endloop
  endfacet
  facet normal 0 0 -1
    outer loop
      vertex 0.290441 1.52254 -15
      vertex 1.87381 9.82287 -15
      vertex 0.478976 1.47414 -15
    endloop
  endfacet
  facet normal -0 0 -1
    outer loop
      vertex 1.87381 9.82287 -15
      vertex 0.290441 1.52254 -15
      vertex 0.627905 9.98027 -15
    endloop
  endfacet
  facet normal 0 0 -1
    outer loop
      vertex 0.0973244 1.54694 -15
      vertex 0.627905 9.98027 -15
      vertex 0.290441 1.52254 -15
    endloop
  endfacet
  facet normal 0 0 -1
    outer loop
      vertex -0.0973244 1.54694 -15
      vertex 0.627905 9.98027 -15
      vertex 0.0973244 1.54694 -15
    endloop
  endfacet
  facet normal 0 0 -1
    outer loop
      vertex -0.627905 9.98027 -15
      vertex -0.0973244 1.54694 -15
      vertex -0.290441 1.52254 -15
    endloop
  endfacet
  facet normal 0 0 -1
    outer loop
      vertex -1.87381 9.82287 -15
      vertex -0.290441 1.52254 -15
      vertex -0.478976 1.47414 -15
    endloop
  endfacet
  facet normal 0 0 -1
    outer loop
      vertex -0.0973244 1.54694 -15
      vertex -0.627905 9.98027 -15
      vertex 0.627905 9.98027 -15
    endloop
  endfacet
  facet normal 0 0 -1
    outer loop
      vertex -3.09017 9.51056 -15
      vertex -0.478976 1.47414 -15
      vertex -0.659958 1.40248 -15
    endloop
  endfacet
  facet normal 0 0 -1
    outer loop
      vertex -4.25779 9.04827 -15
      vertex -0.659958 1.40248 -15
      vertex -0.830531 1.30871 -15
    endloop
  endfacet
  facet normal 0 0 -1
    outer loop
      vertex -5.35827 8.44328 -15
      vertex -0.830531 1.30871 -15
      vertex -0.988007 1.19429 -15
    endloop
  endfacet
  facet normal 0 0 -1
    outer loop
      vertex -6.37424 7.70513 -15
      vertex -0.988007 1.19429 -15
      vertex -1.1299 1.06105 -15
    endloop
  endfacet
  facet normal 0 0 -1
    outer loop
      vertex -7.28969 6.84547 -15
      vertex -1.1299 1.06105 -15
      vertex -1.25398 0.911067 -15
    endloop
  endfacet
  facet normal 0 0 -1
    outer loop
      vertex -8.09017 5.87785 -15
      vertex -1.25398 0.911067 -15
      vertex -1.35827 0.746717 -15
    endloop
  endfacet
  facet normal 0 0 -1
    outer loop
      vertex -8.76307 4.81754 -15
      vertex -1.35827 0.746717 -15
      vertex -1.44115 0.570593 -15
    endloop
  endfacet
  facet normal 0 0 -1
    outer loop
      vertex -9.29776 3.68124 -15
      vertex -1.44115 0.570593 -15
      vertex -1.5013 0.385468 -15
    endloop
  endfacet
  facet normal 0 0 -1
    outer loop
      vertex -9.68583 2.4869 -15
      vertex -1.5013 0.385468 -15
      vertex -1.53778 0.194266 -15
    endloop
  endfacet
  facet normal 0 0 -1
    outer loop
      vertex -0.290441 1.52254 -15
      vertex -1.87381 9.82287 -15
      vertex -0.627905 9.98027 -15
    endloop
  endfacet
  facet normal 0 0 -1
    outer loop
      vertex -9.92115 1.25333 -15
      vertex -1.53778 0.194266 -15
      vertex -1.55 0 -15
    endloop
  endfacet
  facet normal 0 0 -1
    outer loop
      vertex -8.09017 -5.87785 -15
      vertex -1.25398 -0.911067 -15
      vertex -7.28969 -6.84547 -15
    endloop
  endfacet
  facet normal -0 0 -1
    outer loop
      vertex -1.25398 -0.911067 -15
      vertex -8.09017 -5.87785 -15
      vertex -1.35827 -0.746717 -15
    endloop
  endfacet
  facet normal 0 0 -1
    outer loop
      vertex -0.478976 1.47414 -15
      vertex -3.09017 9.51056 -15
      vertex -1.87381 9.82287 -15
    endloop
  endfacet
  facet normal 0 0 -1
    outer loop
      vertex -8.76307 -4.81754 -15
      vertex -1.35827 -0.746717 -15
      vertex -8.09017 -5.87785 -15
    endloop
  endfacet
  facet normal 0 0 -1
    outer loop
      vertex -0.659958 1.40248 -15
      vertex -4.25779 9.04827 -15
      vertex -3.09017 9.51056 -15
    endloop
  endfacet
  facet normal -0 0 -1
    outer loop
      vertex -1.35827 -0.746717 -15
      vertex -8.76307 -4.81754 -15
      vertex -1.44115 -0.570593 -15
    endloop
  endfacet
  facet normal 0 0 -1
    outer loop
      vertex -0.830531 1.30871 -15
      vertex -5.35827 8.44328 -15
      vertex -4.25779 9.04827 -15
    endloop
  endfacet
  facet normal 0 0 -1
    outer loop
      vertex -9.29776 -3.68124 -15
      vertex -1.44115 -0.570593 -15
      vertex -8.76307 -4.81754 -15
    endloop
  endfacet
  facet normal 0 0 -1
    outer loop
      vertex -0.988007 1.19429 -15
      vertex -6.37424 7.70513 -15
      vertex -5.35827 8.44328 -15
    endloop
  endfacet
  facet normal -0 0 -1
    outer loop
      vertex -1.44115 -0.570593 -15
      vertex -9.29776 -3.68124 -15
      vertex -1.5013 -0.385468 -15
    endloop
  endfacet
  facet normal 0 0 -1
    outer loop
      vertex -1.1299 1.06105 -15
      vertex -7.28969 6.84547 -15
      vertex -6.37424 7.70513 -15
    endloop
  endfacet
  facet normal 0 0 -1
    outer loop
      vertex -9.68583 -2.4869 -15
      vertex -1.5013 -0.385468 -15
      vertex -9.29776 -3.68124 -15
    endloop
  endfacet
  facet normal 0 0 -1
    outer loop
      vertex -1.25398 0.911067 -15
      vertex -8.09017 5.87785 -15
      vertex -7.28969 6.84547 -15
    endloop
  endfacet
  facet normal -0 0 -1
    outer loop
      vertex -1.5013 -0.385468 -15
      vertex -9.68583 -2.4869 -15
      vertex -1.53778 -0.194266 -15
    endloop
  endfacet
  facet normal 0 0 -1
    outer loop
      vertex -1.35827 0.746717 -15
      vertex -8.76307 4.81754 -15
      vertex -8.09017 5.87785 -15
    endloop
  endfacet
  facet normal 0 0 -1
    outer loop
      vertex -9.92115 -1.25333 -15
      vertex -1.53778 -0.194266 -15
      vertex -9.68583 -2.4869 -15
    endloop
  endfacet
  facet normal 0 0 -1
    outer loop
      vertex -1.44115 0.570593 -15
      vertex -9.29776 3.68124 -15
      vertex -8.76307 4.81754 -15
    endloop
  endfacet
  facet normal -0 0 -1
    outer loop
      vertex -1.53778 -0.194266 -15
      vertex -9.92115 -1.25333 -15
      vertex -1.55 0 -15
    endloop
  endfacet
  facet normal 0 0 -1
    outer loop
      vertex -1.5013 0.385468 -15
      vertex -9.68583 2.4869 -15
      vertex -9.29776 3.68124 -15
    endloop
  endfacet
  facet normal 0 0 -1
    outer loop
      vertex -10 0 -15
      vertex -1.55 0 -15
      vertex -9.92115 -1.25333 -15
    endloop
  endfacet
  facet normal 0 0 -1
    outer loop
      vertex -1.53778 0.194266 -15
      vertex -9.92115 1.25333 -15
      vertex -9.68583 2.4869 -15
    endloop
  endfacet
  facet normal 0 0 -1
    outer loop
      vertex -1.55 0 -15
      vertex -10 0 -15
      vertex -9.92115 1.25333 -15
    endloop
  endfacet
  facet normal -0.982287 -0.187384 0
    outer loop
      vertex -9.68583 -2.4869 -15
      vertex -9.92115 -1.25333 0
      vertex -9.92115 -1.25333 -15
    endloop
  endfacet
  facet normal -0.982287 -0.187384 0
    outer loop
      vertex -9.92115 -1.25333 0
      vertex -9.68583 -2.4869 -15
      vertex -9.68583 -2.4869 0
    endloop
  endfacet
  facet normal -0.844325 -0.535831 0
    outer loop
      vertex -8.09017 -5.87785 -15
      vertex -8.76307 -4.81754 0
      vertex -8.76307 -4.81754 -15
    endloop
  endfacet
  facet normal -0.844325 -0.535831 0
    outer loop
      vertex -8.76307 -4.81754 0
      vertex -8.09017 -5.87785 -15
      vertex -8.09017 -5.87785 0
    endloop
  endfacet
  facet normal -0.904831 -0.425771 0
    outer loop
      vertex -8.76307 -4.81754 -15
      vertex -9.29776 -3.68124 0
      vertex -9.29776 -3.68124 -15
    endloop
  endfacet
  facet normal -0.904831 -0.425771 0
    outer loop
      vertex -9.29776 -3.68124 0
      vertex -8.76307 -4.81754 -15
      vertex -8.76307 -4.81754 0
    endloop
  endfacet
  facet normal -0.368122 -0.929777 0
    outer loop
      vertex -4.25779 -9.04827 -15
      vertex -3.09017 -9.51056 0
      vertex -4.25779 -9.04827 0
    endloop
  endfacet
  facet normal -0.368122 -0.929777 -0
    outer loop
      vertex -3.09017 -9.51056 0
      vertex -4.25779 -9.04827 -15
      vertex -3.09017 -9.51056 -15
    endloop
  endfacet
endsolid OpenSCAD_Model
