solid OpenSCAD_Model
  facet normal 0.7988065878230701 0.2595479938643155 0.5427180429389398
    outer loop
      vertex -2.673107396928723 -1.058358088968449 -3.9
      vertex -2.7846765882448143 -0.7149834255989577 -3.9
      vertex -5.230349070094608 -1.3429253906902163 0
    endloop
  endfacet
  facet normal 0.8250377486222651 0.15738436776513445 0.5427180429389399
    outer loop
      vertex -2.7846765882448143 -0.7149834255989577 -3.9
      vertex -2.852329766279124 -0.3603330464973742 -3.9
      vertex -5.357419387098181 -0.676799461247242 0
    endloop
  endfacet
  facet normal 0.8382575712720258 0.05273869616943204 0.5427180429389399
    outer loop
      vertex -2.852329766279124 -0.3603330464973742 -3.9
      vertex -2.875 0 -3.9
      vertex -5.4 0 0
    endloop
  endfacet
  facet normal 0.20887835453367687 0.8135274788695405 0.5427180429389397
    outer loop
      vertex -0.5387212794339589 -2.82407584584498 -3.9
      vertex -0.8884238588279738 -2.7342874843485663 -3.9
      vertex -1.0118590987629141 -5.304351153934919 0
    endloop
  endfacet
  facet normal 0.10526925679910247 0.8332919713050713 0.5427180429389398
    outer loop
      vertex -0.18052274364677706 -2.869326844231281 -3.9
      vertex -0.5387212794339589 -2.82407584584498 -3.9
      vertex -0.3390688054582943 -5.389344333512667 0
    endloop
  endfacet
  facet normal 0.7091636486560637 0.4500489365539553 0.5427180429389399
    outer loop
      vertex -2.325923858827974 -1.6898826003408602 -3.9
      vertex -2.5193817051261074 -1.3850418130424318 -3.9
      vertex -4.732056072236863 -2.6014698401492633 0
    endloop
  endfacet
  facet normal 0.6471655929890119 0.5353819394784509 0.54271804293894
    outer loop
      vertex -2.0957848038365587 -1.9680729295449795 -3.9
      vertex -2.325923858827974 -1.6898826003408602 -3.9
      vertex -4.368691769624717 -3.174040362379355 0
    endloop
  endfacet
  facet normal 0.5749613493225377 0.6122716493957023 0.5427180429389399
    outer loop
      vertex -1.8325939705274827 -2.2152255729803945 -3.9
      vertex -2.0957848038365587 -1.9680729295449795 -3.9
      vertex -3.4420895446429243 -4.160771510989263 0
    endloop
  endfacet
  facet normal 0.493689621711985 0.6795054696486293 0.5427180429389398
    outer loop
      vertex -1.8325939705274827 -2.2152255729803945 -3.9
      vertex -2.8934646928865826 -4.559370797710881 0
      vertex -1.5405020355646157 -2.427442785818293 -3.9
    endloop
  endfacet
  facet normal 0.7599777699499789 0.35761839305380283 0.5427180429389398
    outer loop
      vertex -2.5193817051261074 -1.3850418130424318 -3.9
      vertex -2.673107396928723 -1.058358088968449 -3.9
      vertex -5.020793023796558 -1.9878725844972607 0
    endloop
  endfacet
  facet normal 0.40463211385114944 0.7360230827283052 0.5427180429389398
    outer loop
      vertex -1.2241154632495832 -2.6013777758398064 -3.9
      vertex -1.5405020355646157 -2.427442785818293 -3.9
      vertex -2.2992081744513913 -4.886066083316506 0
    endloop
  endfacet
  facet normal 0.3091933158393727 0.780933172114478 0.5427180429389399
    outer loop
      vertex -0.8884238588279738 -2.7342874843485663 -3.9
      vertex -1.2241154632495832 -2.6013777758398064 -3.9
      vertex -1.668691769624716 -5.135705187993829 0
    endloop
  endfacet
  facet normal 0.759977769949979 0.35761839305380233 0.5427180429389398
    outer loop
      vertex -2.5193817051261074 -1.3850418130424318 -3.9
      vertex -5.020793023796558 -1.9878725844972607 0
      vertex -4.732056072236863 -2.6014698401492633 0
    endloop
  endfacet
  facet normal 0.709163648656064 0.45004893655395495 0.5427180429389399
    outer loop
      vertex -4.732056072236863 -2.6014698401492633 0
      vertex -4.368691769624717 -3.174040362379355 0
      vertex -2.325923858827974 -1.6898826003408602 -3.9
    endloop
  endfacet
  facet normal 0.8250377486222649 0.1573843677651356 0.5427180429389399
    outer loop
      vertex -2.7846765882448143 -0.7149834255989577 -3.9
      vertex -5.357419387098181 -0.676799461247242 0
      vertex -5.230349070094608 -1.3429253906902163 0
    endloop
  endfacet
  facet normal 0.8382575712720258 0.05273869616943146 0.5427180429389399
    outer loop
      vertex -2.852329766279124 -0.3603330464973742 -3.9
      vertex -5.4 0 0
      vertex -5.357419387098181 -0.676799461247242 0
    endloop
  endfacet
  facet normal 0.7988065878230701 0.259547993864316 0.5427180429389398
    outer loop
      vertex -5.230349070094608 -1.3429253906902163 0
      vertex -5.020793023796558 -1.9878725844972607 0
      vertex -2.673107396928723 -1.058358088968449 -3.9
    endloop
  endfacet
  facet normal 0.49368962171198433 0.6795054696486298 0.5427180429389399
    outer loop
      vertex -3.4420895446429243 -4.160771510989263 0
      vertex -2.8934646928865826 -4.559370797710881 0
      vertex -1.8325939705274827 -2.2152255729803945 -3.9
    endloop
  endfacet
  facet normal 0.40463211385115 0.7360230827283049 0.5427180429389398
    outer loop
      vertex -2.8934646928865826 -4.559370797710881 0
      vertex -2.2992081744513913 -4.886066083316506 0
      vertex -1.5405020355646157 -2.427442785818293 -3.9
    endloop
  endfacet
  facet normal 0.20887835453367623 0.8135274788695407 0.5427180429389398
    outer loop
      vertex -1.668691769624716 -5.135705187993829 0
      vertex -1.0118590987629141 -5.304351153934919 0
      vertex -0.8884238588279738 -2.7342874843485663 -3.9
    endloop
  endfacet
  facet normal 0.3091933158393729 0.780933172114478 0.5427180429389398
    outer loop
      vertex -2.2992081744513913 -4.886066083316506 0
      vertex -1.668691769624716 -5.135705187993829 0
      vertex -1.2241154632495832 -2.6013777758398064 -3.9
    endloop
  endfacet
  facet normal 0.10526925679910269 0.8332919713050713 0.5427180429389399
    outer loop
      vertex -1.0118590987629141 -5.304351153934919 0
      vertex -0.3390688054582943 -5.389344333512667 0
      vertex -0.5387212794339589 -2.82407584584498 -3.9
    endloop
  endfacet
  facet normal 0 0.8399149515686258 0.5427180429389398
    outer loop
      vertex -0.3390688054582943 -5.389344333512667 0
      vertex 0.3390688054582943 -5.389344333512667 0
      vertex -0.18052274364677706 -2.869326844231281 -3.9
    endloop
  endfacet
  facet normal 0.5749613493225377 0.6122716493957022 0.5427180429389399
    outer loop
      vertex -3.9364305880756234 -3.6965543720149183 0
      vertex -3.4420895446429243 -4.160771510989263 0
      vertex -2.0957848038365587 -1.9680729295449795 -3.9
    endloop
  endfacet
  facet normal 0.6471655929890117 0.5353819394784511 0.5427180429389399
    outer loop
      vertex -3.9364305880756234 -3.6965543720149183 0
      vertex -2.0957848038365587 -1.9680729295449795 -3.9
      vertex -4.368691769624717 -3.174040362379355 0
    endloop
  endfacet
  facet normal 0.8382575712720258 -0.05273869616943204 0.5427180429389399
    outer loop
      vertex -2.875 0 -3.9
      vertex -2.852329766279124 0.3603330464973742 -3.9
      vertex -5.4 0 0
    endloop
  endfacet
  facet normal 0.8250377486222651 -0.15738436776513445 0.54271804293894
    outer loop
      vertex -2.852329766279124 0.3603330464973742 -3.9
      vertex -2.7846765882448143 0.7149834255989577 -3.9
      vertex -5.357419387098181 0.676799461247242 0
    endloop
  endfacet
  facet normal 0.7988065878230701 -0.2595479938643155 0.5427180429389398
    outer loop
      vertex -2.7846765882448143 0.7149834255989577 -3.9
      vertex -2.673107396928723 1.058358088968449 -3.9
      vertex -5.230349070094608 1.3429253906902163 0
    endloop
  endfacet
  facet normal 0.7599777699499789 -0.35761839305380283 0.5427180429389398
    outer loop
      vertex -2.673107396928723 1.058358088968449 -3.9
      vertex -2.5193817051261074 1.3850418130424318 -3.9
      vertex -5.020793023796558 1.9878725844972607 0
    endloop
  endfacet
  facet normal 0.7091636486560637 -0.4500489365539553 0.5427180429389399
    outer loop
      vertex -2.5193817051261074 1.3850418130424318 -3.9
      vertex -2.325923858827974 1.6898826003408602 -3.9
      vertex -4.732056072236863 2.6014698401492633 0
    endloop
  endfacet
  facet normal 0.6471655929890119 -0.5353819394784509 0.5427180429389399
    outer loop
      vertex -2.325923858827974 1.6898826003408602 -3.9
      vertex -2.0957848038365587 1.9680729295449795 -3.9
      vertex -4.368691769624717 3.174040362379355 0
    endloop
  endfacet
  facet normal 0.5749613493225377 -0.6122716493957023 0.5427180429389399
    outer loop
      vertex -1.8325939705274827 2.2152255729803945 -3.9
      vertex -3.4420895446429243 4.160771510989263 0
      vertex -2.0957848038365587 1.9680729295449795 -3.9
    endloop
  endfacet
  facet normal 0.493689621711985 -0.6795054696486293 0.5427180429389398
    outer loop
      vertex -1.8325939705274827 2.2152255729803945 -3.9
      vertex -1.5405020355646157 2.427442785818293 -3.9
      vertex -2.8934646928865826 4.559370797710881 0
    endloop
  endfacet
  facet normal 0.40463211385114956 -0.7360230827283051 0.5427180429389399
    outer loop
      vertex -1.5405020355646157 2.427442785818293 -3.9
      vertex -1.224115463249584 2.601377775839806 -3.9
      vertex -2.299208174451393 4.886066083316505 0
    endloop
  endfacet
  facet normal 0.30919331583937293 -0.780933172114478 0.5427180429389398
    outer loop
      vertex -1.224115463249584 2.601377775839806 -3.9
      vertex -0.8884238588279738 2.7342874843485663 -3.9
      vertex -1.668691769624716 5.135705187993829 0
    endloop
  endfacet
  facet normal 0.20887835453367648 -0.8135274788695406 0.5427180429389399
    outer loop
      vertex -0.8884238588279738 2.7342874843485663 -3.9
      vertex -0.5387212794339582 2.82407584584498 -3.9
      vertex -1.0118590987629128 5.3043511539349195 0
    endloop
  endfacet
  facet normal 0.10526925679910226 -0.8332919713050713 0.5427180429389398
    outer loop
      vertex -0.5387212794339582 2.82407584584498 -3.9
      vertex -0.18052274364677567 2.869326844231281 -3.9
      vertex -0.3390688054582914 5.389344333512667 0
    endloop
  endfacet
  facet normal 0 -0.8399149515686258 0.5427180429389399
    outer loop
      vertex -0.3390688054582914 5.389344333512667 0
      vertex -0.18052274364677567 2.869326844231281 -3.9
      vertex 0.1805227436467747 2.869326844231281 -3.9
    endloop
  endfacet
  facet normal 0.8382575712720258 -0.052738696169431463 0.5427180429389399
    outer loop
      vertex -5.357419387098181 0.676799461247242 0
      vertex -5.4 0 0
      vertex -2.852329766279124 0.3603330464973742 -3.9
    endloop
  endfacet
  facet normal 0.825037748622265 -0.15738436776513542 0.5427180429389398
    outer loop
      vertex -5.230349070094608 1.3429253906902163 0
      vertex -5.357419387098181 0.676799461247242 0
      vertex -2.7846765882448143 0.7149834255989577 -3.9
    endloop
  endfacet
  facet normal 0.7988065878230701 -0.259547993864316 0.5427180429389398
    outer loop
      vertex -5.020793023796558 1.9878725844972607 0
      vertex -5.230349070094608 1.3429253906902163 0
      vertex -2.673107396928723 1.058358088968449 -3.9
    endloop
  endfacet
  facet normal 0.759977769949979 -0.3576183930538022 0.5427180429389398
    outer loop
      vertex -4.732056072236863 2.6014698401492633 0
      vertex -5.020793023796558 1.9878725844972607 0
      vertex -2.5193817051261074 1.3850418130424318 -3.9
    endloop
  endfacet
  facet normal 0.709163648656064 -0.45004893655395495 0.5427180429389399
    outer loop
      vertex -4.368691769624717 3.174040362379355 0
      vertex -4.732056072236863 2.6014698401492633 0
      vertex -2.325923858827974 1.6898826003408602 -3.9
    endloop
  endfacet
  facet normal 0.6471655929890117 -0.5353819394784511 0.5427180429389399
    outer loop
      vertex -3.9364305880756234 3.6965543720149183 0
      vertex -4.368691769624717 3.174040362379355 0
      vertex -2.0957848038365587 1.9680729295449795 -3.9
    endloop
  endfacet
  facet normal 0.5749613493225377 -0.6122716493957022 0.5427180429389398
    outer loop
      vertex -3.4420895446429243 4.160771510989263 0
      vertex -3.9364305880756234 3.6965543720149183 0
      vertex -2.0957848038365587 1.9680729295449795 -3.9
    endloop
  endfacet
  facet normal 0.49368962171198433 -0.6795054696486298 0.5427180429389399
    outer loop
      vertex -2.8934646928865826 4.559370797710881 0
      vertex -3.4420895446429243 4.160771510989263 0
      vertex -1.8325939705274827 2.2152255729803945 -3.9
    endloop
  endfacet
  facet normal 0.4046321138511501 -0.7360230827283047 0.5427180429389398
    outer loop
      vertex -2.299208174451393 4.886066083316505 0
      vertex -2.8934646928865826 4.559370797710881 0
      vertex -1.5405020355646157 2.427442785818293 -3.9
    endloop
  endfacet
  facet normal 0.30919331583937304 -0.7809331721144779 0.5427180429389398
    outer loop
      vertex -1.668691769624716 5.135705187993829 0
      vertex -2.299208174451393 4.886066083316505 0
      vertex -1.224115463249584 2.601377775839806 -3.9
    endloop
  endfacet
  facet normal 0.20887835453367687 -0.8135274788695405 0.5427180429389399
    outer loop
      vertex -1.0118590987629128 5.3043511539349195 0
      vertex -1.668691769624716 5.135705187993829 0
      vertex -0.8884238588279738 2.7342874843485663 -3.9
    endloop
  endfacet
  facet normal 0.10526925679910132 -0.8332919713050713 0.5427180429389398
    outer loop
      vertex -0.3390688054582914 5.389344333512667 0
      vertex -1.0118590987629128 5.3043511539349195 0
      vertex -0.5387212794339582 2.82407584584498 -3.9
    endloop
  endfacet
  facet normal 0 0.8399149515686258 0.5427180429389399
    outer loop
      vertex 0.3390688054582943 -5.389344333512667 0
      vertex 0.18052274364677706 -2.869326844231281 -3.9
      vertex -0.18052274364677706 -2.869326844231281 -3.9
    endloop
  endfacet
  facet normal -0.10526925679910247 0.8332919713050713 0.5427180429389398
    outer loop
      vertex 0.5387212794339589 -2.82407584584498 -3.9
      vertex 0.18052274364677706 -2.869326844231281 -3.9
      vertex 0.3390688054582943 -5.389344333512667 0
    endloop
  endfacet
  facet normal -0.20887835453367687 0.8135274788695405 0.5427180429389398
    outer loop
      vertex 0.8884238588279738 -2.7342874843485663 -3.9
      vertex 0.5387212794339589 -2.82407584584498 -3.9
      vertex 1.0118590987629141 -5.304351153934919 0
    endloop
  endfacet
  facet normal -0.3091933158393727 0.780933172114478 0.5427180429389399
    outer loop
      vertex 1.2241154632495832 -2.6013777758398064 -3.9
      vertex 0.8884238588279738 -2.7342874843485663 -3.9
      vertex 1.668691769624716 -5.135705187993829 0
    endloop
  endfacet
  facet normal -0.40463211385114944 0.7360230827283053 0.5427180429389399
    outer loop
      vertex 1.5405020355646142 -2.427442785818294 -3.9
      vertex 1.2241154632495832 -2.6013777758398064 -3.9
      vertex 2.2992081744513913 -4.886066083316506 0
    endloop
  endfacet
  facet normal -0.49368962171198494 0.6795054696486293 0.5427180429389399
    outer loop
      vertex 1.8325939705274836 -2.2152255729803936 -3.9
      vertex 1.5405020355646142 -2.427442785818294 -3.9
      vertex 2.89346469288658 -4.559370797710883 0
    endloop
  endfacet
  facet normal -0.5749613493225376 0.6122716493957023 0.5427180429389399
    outer loop
      vertex 2.0957848038365587 -1.9680729295449795 -3.9
      vertex 1.8325939705274836 -2.2152255729803936 -3.9
      vertex 3.442089544642926 -4.160771510989261 0
    endloop
  endfacet
  facet normal -0.6471655929890119 0.5353819394784509 0.5427180429389399
    outer loop
      vertex 2.325923858827974 -1.6898826003408602 -3.9
      vertex 2.0957848038365587 -1.9680729295449795 -3.9
      vertex 4.368691769624717 -3.174040362379355 0
    endloop
  endfacet
  facet normal -0.7091636486560637 0.4500489365539553 0.5427180429389399
    outer loop
      vertex 2.5193817051261074 -1.3850418130424318 -3.9
      vertex 2.325923858827974 -1.6898826003408602 -3.9
      vertex 4.732056072236863 -2.6014698401492633 0
    endloop
  endfacet
  facet normal -0.759977769949979 0.3576183930538023 0.5427180429389399
    outer loop
      vertex 2.6731073969287222 -1.0583580889684503 -3.9
      vertex 2.5193817051261074 -1.3850418130424318 -3.9
      vertex 5.020793023796557 -1.9878725844972633 0
    endloop
  endfacet
  facet normal -0.7988065878230699 0.2595479938643166 0.5427180429389398
    outer loop
      vertex 2.784676588244815 -0.7149834255989564 -3.9
      vertex 2.6731073969287222 -1.0583580889684503 -3.9
      vertex 5.230349070094609 -1.342925390690214 0
    endloop
  endfacet
  facet normal -0.8250377486222651 0.15738436776513395 0.5427180429389399
    outer loop
      vertex 2.852329766279124 -0.3603330464973742 -3.9
      vertex 2.784676588244815 -0.7149834255989564 -3.9
      vertex 5.357419387098181 -0.676799461247242 0
    endloop
  endfacet
  facet normal -0.8382575712720258 0.05273869616943204 0.5427180429389399
    outer loop
      vertex 2.875 0 -3.9
      vertex 2.852329766279124 -0.3603330464973742 -3.9
      vertex 5.4 0 0
    endloop
  endfacet
  facet normal -0.10526925679910269 0.8332919713050713 0.5427180429389399
    outer loop
      vertex 0.3390688054582943 -5.389344333512667 0
      vertex 1.0118590987629141 -5.304351153934919 0
      vertex 0.5387212794339589 -2.82407584584498 -3.9
    endloop
  endfacet
  facet normal -0.20887835453367623 0.8135274788695407 0.5427180429389398
    outer loop
      vertex 1.0118590987629141 -5.304351153934919 0
      vertex 1.668691769624716 -5.135705187993829 0
      vertex 0.8884238588279738 -2.7342874843485663 -3.9
    endloop
  endfacet
  facet normal -0.3091933158393729 0.780933172114478 0.5427180429389398
    outer loop
      vertex 1.668691769624716 -5.135705187993829 0
      vertex 2.2992081744513913 -4.886066083316506 0
      vertex 1.2241154632495832 -2.6013777758398064 -3.9
    endloop
  endfacet
  facet normal -0.40463211385114967 0.7360230827283051 0.5427180429389398
    outer loop
      vertex 2.2992081744513913 -4.886066083316506 0
      vertex 2.89346469288658 -4.559370797710883 0
      vertex 1.5405020355646142 -2.427442785818294 -3.9
    endloop
  endfacet
  facet normal -0.4936896217119846 0.6795054696486295 0.5427180429389399
    outer loop
      vertex 2.89346469288658 -4.559370797710883 0
      vertex 3.442089544642926 -4.160771510989261 0
      vertex 1.8325939705274836 -2.2152255729803936 -3.9
    endloop
  endfacet
  facet normal -0.5749613493225377 0.6122716493957024 0.5427180429389399
    outer loop
      vertex 3.442089544642926 -4.160771510989261 0
      vertex 3.9364305880756234 -3.6965543720149183 0
      vertex 2.0957848038365587 -1.9680729295449795 -3.9
    endloop
  endfacet
  facet normal -0.6471655929890117 0.5353819394784511 0.5427180429389399
    outer loop
      vertex 3.9364305880756234 -3.6965543720149183 0
      vertex 4.368691769624717 -3.174040362379355 0
      vertex 2.0957848038365587 -1.9680729295449795 -3.9
    endloop
  endfacet
  facet normal -0.709163648656064 0.45004893655395495 0.5427180429389399
    outer loop
      vertex 4.368691769624717 -3.174040362379355 0
      vertex 4.732056072236863 -2.6014698401492633 0
      vertex 2.325923858827974 -1.6898826003408602 -3.9
    endloop
  endfacet
  facet normal -0.7599777699499789 0.3576183930538026 0.5427180429389398
    outer loop
      vertex 4.732056072236863 -2.6014698401492633 0
      vertex 5.020793023796557 -1.9878725844972633 0
      vertex 2.5193817051261074 -1.3850418130424318 -3.9
    endloop
  endfacet
  facet normal -0.7988065878230699 0.25954799386431615 0.5427180429389399
    outer loop
      vertex 5.020793023796557 -1.9878725844972633 0
      vertex 5.230349070094609 -1.342925390690214 0
      vertex 2.6731073969287222 -1.0583580889684503 -3.9
    endloop
  endfacet
  facet normal -0.8250377486222651 0.15738436776513487 0.5427180429389399
    outer loop
      vertex 5.230349070094609 -1.342925390690214 0
      vertex 5.357419387098181 -0.676799461247242 0
      vertex 2.784676588244815 -0.7149834255989564 -3.9
    endloop
  endfacet
  facet normal -0.8382575712720258 0.052738696169431463 0.5427180429389399
    outer loop
      vertex 5.357419387098181 -0.676799461247242 0
      vertex 5.4 0 0
      vertex 2.852329766279124 -0.3603330464973742 -3.9
    endloop
  endfacet
  facet normal -0.30919331583937293 -0.780933172114478 0.5427180429389398
    outer loop
      vertex 0.8884238588279738 2.7342874843485663 -3.9
      vertex 1.224115463249584 2.601377775839806 -3.9
      vertex 1.668691769624716 5.135705187993829 0
    endloop
  endfacet
  facet normal -0.40463211385115 -0.736023082728305 0.5427180429389398
    outer loop
      vertex 1.224115463249584 2.601377775839806 -3.9
      vertex 1.5405020355646153 2.427442785818293 -3.9
      vertex 2.299208174451393 4.886066083316505 0
    endloop
  endfacet
  facet normal -0.7599777699499793 -0.35761839305380144 0.5427180429389398
    outer loop
      vertex 2.519381705126108 1.3850418130424316 -3.9
      vertex 2.6731073969287227 1.0583580889684492 -3.9
      vertex 5.020793023796558 1.9878725844972611 0
    endloop
  endfacet
  facet normal -0.4936896217119855 -0.6795054696486288 0.5427180429389398
    outer loop
      vertex 1.5405020355646153 2.427442785818293 -3.9
      vertex 1.832593970527483 2.2152255729803936 -3.9
      vertex 2.893464692886582 4.559370797710882 0
    endloop
  endfacet
  facet normal -0.5749613493225365 -0.6122716493957033 0.5427180429389399
    outer loop
      vertex 1.832593970527483 2.2152255729803936 -3.9
      vertex 2.0957848038365583 1.9680729295449801 -3.9
      vertex 3.4420895446429247 4.160771510989262 0
    endloop
  endfacet
  facet normal -0.647165592989012 -0.5353819394784507 0.5427180429389399
    outer loop
      vertex 2.0957848038365583 1.9680729295449801 -3.9
      vertex 2.325923858827974 1.6898826003408602 -3.9
      vertex 4.368691769624717 3.174040362379355 0
    endloop
  endfacet
  facet normal -0.7091636486560634 -0.4500489365539558 0.5427180429389399
    outer loop
      vertex 2.325923858827974 1.6898826003408602 -3.9
      vertex 2.519381705126108 1.3850418130424316 -3.9
      vertex 4.732056072236864 2.601469840149263 0
    endloop
  endfacet
  facet normal -0.10526925679910198 -0.8332919713050714 0.5427180429389399
    outer loop
      vertex 0.1805227436467747 2.869326844231281 -3.9
      vertex 0.5387212794339582 2.82407584584498 -3.9
      vertex 0.3390688054582917 5.389344333512667 0
    endloop
  endfacet
  facet normal -0.20887835453367648 -0.8135274788695406 0.5427180429389399
    outer loop
      vertex 0.5387212794339582 2.82407584584498 -3.9
      vertex 0.8884238588279738 2.7342874843485663 -3.9
      vertex 1.0118590987629128 5.3043511539349195 0
    endloop
  endfacet
  facet normal -0.8382575712720259 -0.05273869616943196 0.5427180429389399
    outer loop
      vertex 2.875 0 -3.9
      vertex 5.4 0 0
      vertex 2.852329766279124 0.36033304649737474 -3.9
    endloop
  endfacet
  facet normal -0.825037748622265 -0.1573843677651347 0.5427180429389399
    outer loop
      vertex 2.7846765882448143 0.7149834255989576 -3.9
      vertex 2.852329766279124 0.36033304649737474 -3.9
      vertex 5.357419387098181 0.676799461247243 0
    endloop
  endfacet
  facet normal -0.79880658782307 -0.25954799386431626 0.5427180429389398
    outer loop
      vertex 2.6731073969287227 1.0583580889684492 -3.9
      vertex 2.7846765882448143 0.7149834255989576 -3.9
      vertex 5.230349070094608 1.3429253906902159 0
    endloop
  endfacet
  facet normal -0.6471655929890116 -0.5353819394784514 0.5427180429389399
    outer loop
      vertex 2.0957848038365583 1.9680729295449801 -3.9
      vertex 4.368691769624717 3.174040362379355 0
      vertex 3.9364305880756225 3.696554372014919 0
    endloop
  endfacet
  facet normal -0.5749613493225374 -0.6122716493957027 0.5427180429389398
    outer loop
      vertex 3.9364305880756225 3.696554372014919 0
      vertex 3.4420895446429247 4.160771510989262 0
      vertex 2.0957848038365583 1.9680729295449801 -3.9
    endloop
  endfacet
  facet normal 0 -0.8399149515686258 0.5427180429389398
    outer loop
      vertex -0.3390688054582914 5.389344333512667 0
      vertex 0.1805227436467747 2.869326844231281 -3.9
      vertex 0.3390688054582917 5.389344333512667 0
    endloop
  endfacet
  facet normal -0.10526925679910142 -0.8332919713050715 0.5427180429389399
    outer loop
      vertex 1.0118590987629128 5.3043511539349195 0
      vertex 0.3390688054582917 5.389344333512667 0
      vertex 0.5387212794339582 2.82407584584498 -3.9
    endloop
  endfacet
  facet normal -0.30919331583937304 -0.7809331721144779 0.5427180429389398
    outer loop
      vertex 2.299208174451393 4.886066083316505 0
      vertex 1.668691769624716 5.135705187993829 0
      vertex 1.224115463249584 2.601377775839806 -3.9
    endloop
  endfacet
  facet normal -0.20887835453367687 -0.8135274788695405 0.5427180429389398
    outer loop
      vertex 1.668691769624716 5.135705187993829 0
      vertex 1.0118590987629128 5.3043511539349195 0
      vertex 0.8884238588279738 2.7342874843485663 -3.9
    endloop
  endfacet
  facet normal -0.40463211385114944 -0.7360230827283052 0.5427180429389399
    outer loop
      vertex 2.893464692886582 4.559370797710882 0
      vertex 2.299208174451393 4.886066083316505 0
      vertex 1.5405020355646153 2.427442785818293 -3.9
    endloop
  endfacet
  facet normal -0.4936896217119852 -0.679505469648629 0.5427180429389399
    outer loop
      vertex 3.4420895446429247 4.160771510989262 0
      vertex 2.893464692886582 4.559370797710882 0
      vertex 1.832593970527483 2.2152255729803936 -3.9
    endloop
  endfacet
  facet normal -0.7988065878230701 -0.2595479938643156 0.5427180429389399
    outer loop
      vertex 5.230349070094608 1.3429253906902159 0
      vertex 5.020793023796558 1.9878725844972611 0
      vertex 2.6731073969287227 1.0583580889684492 -3.9
    endloop
  endfacet
  facet normal -0.8382575712720258 -0.05273869616943138 0.5427180429389399
    outer loop
      vertex 2.852329766279124 0.36033304649737474 -3.9
      vertex 5.4 0 0
      vertex 5.357419387098181 0.676799461247243 0
    endloop
  endfacet
  facet normal -0.8250377486222649 -0.15738436776513592 0.5427180429389399
    outer loop
      vertex 2.7846765882448143 0.7149834255989576 -3.9
      vertex 5.357419387098181 0.676799461247243 0
      vertex 5.230349070094608 1.3429253906902159 0
    endloop
  endfacet
  facet normal -0.7091636486560636 -0.45004893655395545 0.54271804293894
    outer loop
      vertex 4.732056072236864 2.601469840149263 0
      vertex 4.368691769624717 3.174040362379355 0
      vertex 2.325923858827974 1.6898826003408602 -3.9
    endloop
  endfacet
  facet normal -0.7599777699499792 -0.35761839305380183 0.5427180429389399
    outer loop
      vertex 2.519381705126108 1.3850418130424316 -3.9
      vertex 5.020793023796558 1.9878725844972611 0
      vertex 4.732056072236864 2.601469840149263 0
    endloop
  endfacet
  facet normal -0.8443279255020152 -0.5358267949789963 0
    outer loop
      vertex -5.663118960624632 -4.114496766047312 -3.9
      vertex -6.134146760307044 -3.372275718712008 0
      vertex -6.134146760307044 -3.372275718712008 -3.9
    endloop
  endfacet
  facet normal -0.7705132427757891 -0.6374239897486897 0
    outer loop
      vertex -5.663118960624632 -4.114496766047312 -3.9
      vertex -5.1027803919498815 -4.79182974150082 -3.9
      vertex -5.663118960624632 -4.114496766047312 0
    endloop
  endfacet
  facet normal -0.5877852522924721 -0.809016994374948 0
    outer loop
      vertex -4.461967928240828 -5.393592699430526 -3.9
      vertex -3.7507875648529776 -5.910295478514104 -3.9
      vertex -3.7507875648529776 -5.910295478514104 0
    endloop
  endfacet
  facet normal -0.6845471059286894 -0.7289686274214109 0
    outer loop
      vertex -4.461967928240828 -5.393592699430526 -3.9
      vertex -4.461967928240828 -5.393592699430526 0
      vertex -5.1027803919498815 -4.79182974150082 -3.9
    endloop
  endfacet
  facet normal 0 0 -1
    outer loop
      vertex -6.50843540121776 -2.576871868792745 -3.9
      vertex -6.7800821279004175 -1.740829210153984 -3.9
      vertex -6.50843540121776 2.576871868792745 -3.9
    endloop
  endfacet
  facet normal 0 0 -1
    outer loop
      vertex -6.7800821279004175 -1.740829210153984 -3.9
      vertex -6.9448029092013455 -0.8773326349501285 -3.9
      vertex -6.7800821279004175 1.740829210153984 -3.9
    endloop
  endfacet
  facet normal 0 0 -1
    outer loop
      vertex -6.134146760307044 -3.372275718712008 -3.9
      vertex -6.50843540121776 -2.576871868792745 -3.9
      vertex -6.134146760307044 3.372275718712008 -3.9
    endloop
  endfacet
  facet normal 0 0 -1
    outer loop
      vertex -5.663118960624632 -4.114496766047312 -3.9
      vertex -6.134146760307044 -3.372275718712008 -3.9
      vertex -5.663118960624632 4.114496766047312 -3.9
    endloop
  endfacet
  facet normal 0 0 -1
    outer loop
      vertex -5.663118960624632 -4.114496766047312 -3.9
      vertex -5.1027803919498815 4.79182974150082 -3.9
      vertex -5.1027803919498815 -4.79182974150082 -3.9
    endloop
  endfacet
  facet normal 0 0 -1
    outer loop
      vertex -4.461967928240828 -5.393592699430526 -3.9
      vertex -3.7507875648529776 5.910295478514104 -3.9
      vertex -3.7507875648529776 -5.910295478514104 -3.9
    endloop
  endfacet
  facet normal 0 0 -1
    outer loop
      vertex -4.461967928240828 -5.393592699430526 -3.9
      vertex -5.1027803919498815 -4.79182974150082 -3.9
      vertex -4.461967928240828 5.393592699430526 -3.9
    endloop
  endfacet
  facet normal -0.9048270524660195 -0.4257792915650727 0
    outer loop
      vertex -6.134146760307044 -3.372275718712008 -3.9
      vertex -6.50843540121776 -2.576871868792745 0
      vertex -6.50843540121776 -2.576871868792745 -3.9
    endloop
  endfacet
  facet normal -0.9510565162951535 -0.30901699437494745 0
    outer loop
      vertex -6.50843540121776 -2.576871868792745 -3.9
      vertex -6.7800821279004175 -1.740829210153984 0
      vertex -6.7800821279004175 -1.740829210153984 -3.9
    endloop
  endfacet
  facet normal -0.9822872507286886 -0.18738131458572532 0
    outer loop
      vertex -6.7800821279004175 -1.740829210153984 -3.9
      vertex -6.9448029092013455 -0.8773326349501285 0
      vertex -6.9448029092013455 -0.8773326349501285 -3.9
    endloop
  endfacet
  facet normal -0.9980267284282716 -0.06279051952931274 0
    outer loop
      vertex -6.9448029092013455 -0.8773326349501285 -3.9
      vertex -7 0 0
      vertex -7 0 -3.9
    endloop
  endfacet
  facet normal 0 0 -1
    outer loop
      vertex -2.980455040955507 -6.333789367262137 -3.9
      vertex -2.0957848038365587 -1.9680729295449795 -3.9
      vertex -2.1631189606246317 -6.657395614066075 -3.9
    endloop
  endfacet
  facet normal 0 0 -1
    outer loop
      vertex -2.1631189606246317 -6.657395614066075 -3.9
      vertex -2.0957848038365587 -1.9680729295449795 -3.9
      vertex -1.8325939705274827 -2.2152255729803945 -3.9
    endloop
  endfacet
  facet normal 0 0 -1
    outer loop
      vertex -2.1631189606246317 -6.657395614066075 -3.9
      vertex -1.8325939705274827 -2.2152255729803945 -3.9
      vertex -1.5405020355646157 -2.427442785818293 -3.9
    endloop
  endfacet
  facet normal 0 0 -1
    outer loop
      vertex -2.1631189606246317 -6.657395614066075 -3.9
      vertex -1.2241154632495832 -2.6013777758398064 -3.9
      vertex -1.3116692021000738 -6.87601075510082 -3.9
    endloop
  endfacet
  facet normal 0 0 -1
    outer loop
      vertex -1.3116692021000738 -6.87601075510082 -3.9
      vertex -0.18052274364677706 -2.869326844231281 -3.9
      vertex -0.43953363670519635 -6.986187098997901 -3.9
    endloop
  endfacet
  facet normal 0 0 -1
    outer loop
      vertex -0.43953363670519635 -6.986187098997901 -3.9
      vertex -0.18052274364677706 -2.869326844231281 -3.9
      vertex 0.43953363670519635 -6.986187098997901 -3.9
    endloop
  endfacet
  facet normal 0 0 -1
    outer loop
      vertex -2.1631189606246317 -6.657395614066075 -3.9
      vertex -1.5405020355646157 -2.427442785818293 -3.9
      vertex -1.2241154632495832 -2.6013777758398064 -3.9
    endloop
  endfacet
  facet normal 0 0 -1
    outer loop
      vertex -1.3116692021000738 -6.87601075510082 -3.9
      vertex -1.2241154632495832 -2.6013777758398064 -3.9
      vertex -0.8884238588279738 -2.7342874843485663 -3.9
    endloop
  endfacet
  facet normal 0 0 -1
    outer loop
      vertex -1.3116692021000738 -6.87601075510082 -3.9
      vertex -0.8884238588279738 -2.7342874843485663 -3.9
      vertex -0.5387212794339589 -2.82407584584498 -3.9
    endloop
  endfacet
  facet normal 0 0 -1
    outer loop
      vertex -1.3116692021000738 -6.87601075510082 -3.9
      vertex -0.5387212794339589 -2.82407584584498 -3.9
      vertex -0.18052274364677706 -2.869326844231281 -3.9
    endloop
  endfacet
  facet normal -0.4817536741017148 -0.8763066800438638 0
    outer loop
      vertex -3.7507875648529776 -5.910295478514104 -3.9
      vertex -2.980455040955507 -6.333789367262137 -3.9
      vertex -2.980455040955507 -6.333789367262137 0
    endloop
  endfacet
  facet normal -0.36812455268467814 -0.9297764858882513 0
    outer loop
      vertex -2.980455040955507 -6.333789367262137 -3.9
      vertex -2.1631189606246317 -6.657395614066075 -3.9
      vertex -2.1631189606246317 -6.657395614066075 0
    endloop
  endfacet
  facet normal -0.24868988716485488 -0.9685831611286311 0
    outer loop
      vertex -2.1631189606246317 -6.657395614066075 -3.9
      vertex -1.3116692021000738 -6.87601075510082 -3.9
      vertex -1.3116692021000738 -6.87601075510082 0
    endloop
  endfacet
  facet normal -0.12533323356430498 -0.9921147013144778 0
    outer loop
      vertex -1.3116692021000738 -6.87601075510082 -3.9
      vertex -0.43953363670519635 -6.986187098997901 -3.9
      vertex -0.43953363670519635 -6.986187098997901 0
    endloop
  endfacet
  facet normal 0 0 -1
    outer loop
      vertex -2.980455040955507 -6.333789367262137 -3.9
      vertex -2.673107396928723 -1.058358088968449 -3.9
      vertex -2.5193817051261074 -1.3850418130424318 -3.9
    endloop
  endfacet
  facet normal 0 0 -1
    outer loop
      vertex -2.980455040955507 -6.333789367262137 -3.9
      vertex -2.7846765882448143 -0.7149834255989577 -3.9
      vertex -2.673107396928723 -1.058358088968449 -3.9
    endloop
  endfacet
  facet normal 0 0 -1
    outer loop
      vertex -3.7507875648529776 -5.910295478514104 -3.9
      vertex -2.980455040955509 6.333789367262137 -3.9
      vertex -2.980455040955507 -6.333789367262137 -3.9
    endloop
  endfacet
  facet normal 0 0 -1
    outer loop
      vertex -2.980455040955507 -6.333789367262137 -3.9
      vertex -2.852329766279124 -0.3603330464973742 -3.9
      vertex -2.7846765882448143 -0.7149834255989577 -3.9
    endloop
  endfacet
  facet normal 0 0 -1
    outer loop
      vertex -2.980455040955507 -6.333789367262137 -3.9
      vertex -2.875 0 -3.9
      vertex -2.852329766279124 -0.3603330464973742 -3.9
    endloop
  endfacet
  facet normal 0 0 -1
    outer loop
      vertex -2.980455040955507 -6.333789367262137 -3.9
      vertex -2.325923858827974 -1.6898826003408602 -3.9
      vertex -2.0957848038365587 -1.9680729295449795 -3.9
    endloop
  endfacet
  facet normal 0 0 -1
    outer loop
      vertex -2.980455040955507 -6.333789367262137 -3.9
      vertex -2.5193817051261074 -1.3850418130424318 -3.9
      vertex -2.325923858827974 -1.6898826003408602 -3.9
    endloop
  endfacet
  facet normal -0.7705132427757891 -0.6374239897486897 0
    outer loop
      vertex -5.1027803919498815 -4.79182974150082 -3.9
      vertex -5.1027803919498815 -4.79182974150082 0
      vertex -5.663118960624632 -4.114496766047312 0
    endloop
  endfacet
  facet normal -0.8443279255020152 -0.5358267949789963 0
    outer loop
      vertex -5.663118960624632 -4.114496766047312 -3.9
      vertex -5.663118960624632 -4.114496766047312 0
      vertex -6.134146760307044 -3.372275718712008 0
    endloop
  endfacet
  facet normal -0.5877852522924721 -0.809016994374948 0
    outer loop
      vertex -4.461967928240828 -5.393592699430526 -3.9
      vertex -3.7507875648529776 -5.910295478514104 0
      vertex -4.461967928240828 -5.393592699430526 0
    endloop
  endfacet
  facet normal -0.6845471059286894 -0.7289686274214109 0
    outer loop
      vertex -5.1027803919498815 -4.79182974150082 -3.9
      vertex -4.461967928240828 -5.393592699430526 0
      vertex -5.1027803919498815 -4.79182974150082 0
    endloop
  endfacet
  facet normal 0 0 1
    outer loop
      vertex -4.461967928240828 -5.393592699430526 0
      vertex -4.732056072236863 -2.6014698401492633 0
      vertex -5.1027803919498815 -4.79182974150082 0
    endloop
  endfacet
  facet normal 0 0 1
    outer loop
      vertex -4.461967928240828 -5.393592699430526 0
      vertex -4.368691769624717 -3.174040362379355 0
      vertex -4.732056072236863 -2.6014698401492633 0
    endloop
  endfacet
  facet normal 0 0 1
    outer loop
      vertex -4.461967928240828 -5.393592699430526 0
      vertex -3.7507875648529776 -5.910295478514104 0
      vertex -3.9364305880756234 -3.6965543720149183 0
    endloop
  endfacet
  facet normal 0 0 1
    outer loop
      vertex -3.7507875648529776 -5.910295478514104 0
      vertex -3.4420895446429243 -4.160771510989263 0
      vertex -3.9364305880756234 -3.6965543720149183 0
    endloop
  endfacet
  facet normal 0 0 1
    outer loop
      vertex -4.461967928240828 -5.393592699430526 0
      vertex -3.9364305880756234 -3.6965543720149183 0
      vertex -4.368691769624717 -3.174040362379355 0
    endloop
  endfacet
  facet normal -0.9048270524660195 -0.4257792915650727 0
    outer loop
      vertex -6.134146760307044 -3.372275718712008 -3.9
      vertex -6.134146760307044 -3.372275718712008 0
      vertex -6.50843540121776 -2.576871868792745 0
    endloop
  endfacet
  facet normal -0.9510565162951535 -0.30901699437494745 0
    outer loop
      vertex -6.50843540121776 -2.576871868792745 -3.9
      vertex -6.50843540121776 -2.576871868792745 0
      vertex -6.7800821279004175 -1.740829210153984 0
    endloop
  endfacet
  facet normal -0.9822872507286886 -0.18738131458572532 0
    outer loop
      vertex -6.7800821279004175 -1.740829210153984 -3.9
      vertex -6.7800821279004175 -1.740829210153984 0
      vertex -6.9448029092013455 -0.8773326349501285 0
    endloop
  endfacet
  facet normal -0.9980267284282716 -0.06279051952931274 0
    outer loop
      vertex -6.9448029092013455 -0.8773326349501285 -3.9
      vertex -6.9448029092013455 -0.8773326349501285 0
      vertex -7 0 0
    endloop
  endfacet
  facet normal 0 0 1
    outer loop
      vertex -6.134146760307044 -3.372275718712008 0
      vertex -6.50843540121776 2.576871868792745 0
      vertex -6.50843540121776 -2.576871868792745 0
    endloop
  endfacet
  facet normal 0 0 1
    outer loop
      vertex -6.7800821279004175 -1.740829210153984 0
      vertex -6.9448029092013455 0.8773326349501285 0
      vertex -6.9448029092013455 -0.8773326349501285 0
    endloop
  endfacet
  facet normal 0 0 1
    outer loop
      vertex -6.50843540121776 -2.576871868792745 0
      vertex -6.7800821279004175 1.740829210153984 0
      vertex -6.7800821279004175 -1.740829210153984 0
    endloop
  endfacet
  facet normal 0 0 1
    outer loop
      vertex -5.663118960624632 -4.114496766047312 0
      vertex -6.134146760307044 3.372275718712008 0
      vertex -6.134146760307044 -3.372275718712008 0
    endloop
  endfacet
  facet normal 0 0 1
    outer loop
      vertex -5.663118960624632 -4.114496766047312 0
      vertex -5.1027803919498815 -4.79182974150082 0
      vertex -5.663118960624632 4.114496766047312 0
    endloop
  endfacet
  facet normal 0 0 1
    outer loop
      vertex -5.1027803919498815 -4.79182974150082 0
      vertex -5.357419387098181 -0.676799461247242 0
      vertex -5.663118960624632 4.114496766047312 0
    endloop
  endfacet
  facet normal 0 0 1
    outer loop
      vertex -5.1027803919498815 -4.79182974150082 0
      vertex -4.732056072236863 -2.6014698401492633 0
      vertex -5.020793023796558 -1.9878725844972607 0
    endloop
  endfacet
  facet normal 0 0 1
    outer loop
      vertex -5.1027803919498815 -4.79182974150082 0
      vertex -5.020793023796558 -1.9878725844972607 0
      vertex -5.230349070094608 -1.3429253906902163 0
    endloop
  endfacet
  facet normal 0 0 1
    outer loop
      vertex -5.1027803919498815 -4.79182974150082 0
      vertex -5.230349070094608 -1.3429253906902163 0
      vertex -5.357419387098181 -0.676799461247242 0
    endloop
  endfacet
  facet normal -0.36812455268467814 -0.9297764858882513 0
    outer loop
      vertex -2.980455040955507 -6.333789367262137 -3.9
      vertex -2.1631189606246317 -6.657395614066075 0
      vertex -2.980455040955507 -6.333789367262137 0
    endloop
  endfacet
  facet normal -0.4817536741017148 -0.8763066800438638 0
    outer loop
      vertex -3.7507875648529776 -5.910295478514104 -3.9
      vertex -2.980455040955507 -6.333789367262137 0
      vertex -3.7507875648529776 -5.910295478514104 0
    endloop
  endfacet
  facet normal -0.24868988716485488 -0.9685831611286311 0
    outer loop
      vertex -2.1631189606246317 -6.657395614066075 -3.9
      vertex -1.3116692021000738 -6.87601075510082 0
      vertex -2.1631189606246317 -6.657395614066075 0
    endloop
  endfacet
  facet normal -0.12533323356430498 -0.9921147013144778 0
    outer loop
      vertex -1.3116692021000738 -6.87601075510082 -3.9
      vertex -0.43953363670519635 -6.986187098997901 0
      vertex -1.3116692021000738 -6.87601075510082 0
    endloop
  endfacet
  facet normal 0 -1 0
    outer loop
      vertex -0.43953363670519635 -6.986187098997901 -3.9
      vertex 0.43953363670519635 -6.986187098997901 0
      vertex -0.43953363670519635 -6.986187098997901 0
    endloop
  endfacet
  facet normal 0 0 1
    outer loop
      vertex -3.7507875648529776 -5.910295478514104 0
      vertex -2.980455040955507 -6.333789367262137 0
      vertex -3.4420895446429243 -4.160771510989263 0
    endloop
  endfacet
  facet normal 0 0 1
    outer loop
      vertex -2.980455040955507 -6.333789367262137 0
      vertex -2.2992081744513913 -4.886066083316506 0
      vertex -2.8934646928865826 -4.559370797710881 0
    endloop
  endfacet
  facet normal 0 0 1
    outer loop
      vertex -2.980455040955507 -6.333789367262137 0
      vertex -2.1631189606246317 -6.657395614066075 0
      vertex -2.2992081744513913 -4.886066083316506 0
    endloop
  endfacet
  facet normal 0 0 1
    outer loop
      vertex -2.1631189606246317 -6.657395614066075 0
      vertex -1.668691769624716 -5.135705187993829 0
      vertex -2.2992081744513913 -4.886066083316506 0
    endloop
  endfacet
  facet normal 0 0 1
    outer loop
      vertex -2.980455040955507 -6.333789367262137 0
      vertex -2.8934646928865826 -4.559370797710881 0
      vertex -3.4420895446429243 -4.160771510989263 0
    endloop
  endfacet
  facet normal 0 0 1
    outer loop
      vertex -2.1631189606246317 -6.657395614066075 0
      vertex -1.3116692021000738 -6.87601075510082 0
      vertex -1.668691769624716 -5.135705187993829 0
    endloop
  endfacet
  facet normal 0 0 1
    outer loop
      vertex -1.3116692021000738 -6.87601075510082 0
      vertex -0.43953363670519635 -6.986187098997901 0
      vertex -1.0118590987629141 -5.304351153934919 0
    endloop
  endfacet
  facet normal 0 0 1
    outer loop
      vertex -1.3116692021000738 -6.87601075510082 0
      vertex -1.0118590987629141 -5.304351153934919 0
      vertex -1.668691769624716 -5.135705187993829 0
    endloop
  endfacet
  facet normal 0 0 1
    outer loop
      vertex -0.43953363670519635 -6.986187098997901 0
      vertex 0.43953363670519635 -6.986187098997901 0
      vertex -0.3390688054582943 -5.389344333512667 0
    endloop
  endfacet
  facet normal 0 0 1
    outer loop
      vertex -0.43953363670519635 -6.986187098997901 0
      vertex -0.3390688054582943 -5.389344333512667 0
      vertex -1.0118590987629141 -5.304351153934919 0
    endloop
  endfacet
  facet normal 0 0 -1
    outer loop
      vertex -6.9448029092013455 -0.8773326349501285 -3.9
      vertex -7 0 -3.9
      vertex -6.9448029092013455 0.8773326349501285 -3.9
    endloop
  endfacet
  facet normal 0 0 -1
    outer loop
      vertex -6.9448029092013455 -0.8773326349501285 -3.9
      vertex -6.9448029092013455 0.8773326349501285 -3.9
      vertex -6.7800821279004175 1.740829210153984 -3.9
    endloop
  endfacet
  facet normal 0 0 -1
    outer loop
      vertex -6.7800821279004175 -1.740829210153984 -3.9
      vertex -6.7800821279004175 1.740829210153984 -3.9
      vertex -6.50843540121776 2.576871868792745 -3.9
    endloop
  endfacet
  facet normal 0 0 -1
    outer loop
      vertex -6.50843540121776 -2.576871868792745 -3.9
      vertex -6.50843540121776 2.576871868792745 -3.9
      vertex -6.134146760307044 3.372275718712008 -3.9
    endloop
  endfacet
  facet normal 0 0 -1
    outer loop
      vertex -6.134146760307044 -3.372275718712008 -3.9
      vertex -6.134146760307044 3.372275718712008 -3.9
      vertex -5.663118960624632 4.114496766047312 -3.9
    endloop
  endfacet
  facet normal 0 0 -1
    outer loop
      vertex -5.663118960624632 -4.114496766047312 -3.9
      vertex -5.663118960624632 4.114496766047312 -3.9
      vertex -5.1027803919498815 4.79182974150082 -3.9
    endloop
  endfacet
  facet normal 0 0 -1
    outer loop
      vertex -5.1027803919498815 -4.79182974150082 -3.9
      vertex -5.1027803919498815 4.79182974150082 -3.9
      vertex -4.461967928240828 5.393592699430526 -3.9
    endloop
  endfacet
  facet normal 0 0 -1
    outer loop
      vertex -4.461967928240828 -5.393592699430526 -3.9
      vertex -4.461967928240828 5.393592699430526 -3.9
      vertex -3.7507875648529776 5.910295478514104 -3.9
    endloop
  endfacet
  facet normal -0.9980267284282716 0.06279051952931274 0
    outer loop
      vertex -7 0 -3.9
      vertex -6.9448029092013455 0.8773326349501285 0
      vertex -6.9448029092013455 0.8773326349501285 -3.9
    endloop
  endfacet
  facet normal -0.9822872507286886 0.18738131458572532 0
    outer loop
      vertex -6.9448029092013455 0.8773326349501285 -3.9
      vertex -6.7800821279004175 1.740829210153984 0
      vertex -6.7800821279004175 1.740829210153984 -3.9
    endloop
  endfacet
  facet normal -0.9510565162951535 0.30901699437494745 0
    outer loop
      vertex -6.7800821279004175 1.740829210153984 -3.9
      vertex -6.50843540121776 2.576871868792745 0
      vertex -6.50843540121776 2.576871868792745 -3.9
    endloop
  endfacet
  facet normal -0.9048270524660195 0.4257792915650727 0
    outer loop
      vertex -6.50843540121776 2.576871868792745 -3.9
      vertex -6.134146760307044 3.372275718712008 0
      vertex -6.134146760307044 3.372275718712008 -3.9
    endloop
  endfacet
  facet normal -0.8443279255020152 0.5358267949789963 0
    outer loop
      vertex -6.134146760307044 3.372275718712008 -3.9
      vertex -5.663118960624632 4.114496766047312 0
      vertex -5.663118960624632 4.114496766047312 -3.9
    endloop
  endfacet
  facet normal -0.7705132427757891 0.6374239897486897 0
    outer loop
      vertex -5.663118960624632 4.114496766047312 -3.9
      vertex -5.1027803919498815 4.79182974150082 0
      vertex -5.1027803919498815 4.79182974150082 -3.9
    endloop
  endfacet
  facet normal -0.6845471059286894 0.7289686274214109 0
    outer loop
      vertex -5.1027803919498815 4.79182974150082 -3.9
      vertex -5.1027803919498815 4.79182974150082 0
      vertex -4.461967928240828 5.393592699430526 -3.9
    endloop
  endfacet
  facet normal -0.5877852522924721 0.809016994374948 0
    outer loop
      vertex -4.461967928240828 5.393592699430526 -3.9
      vertex -4.461967928240828 5.393592699430526 0
      vertex -3.7507875648529776 5.910295478514104 -3.9
    endloop
  endfacet
  facet normal 0 0 -1
    outer loop
      vertex -2.980455040955507 -6.333789367262137 -3.9
      vertex -2.980455040955509 6.333789367262137 -3.9
      vertex -2.875 0 -3.9
    endloop
  endfacet
  facet normal 0 0 -1
    outer loop
      vertex -3.7507875648529776 -5.910295478514104 -3.9
      vertex -3.7507875648529776 5.910295478514104 -3.9
      vertex -2.980455040955509 6.333789367262137 -3.9
    endloop
  endfacet
  facet normal 0 0 -1
    outer loop
      vertex -2.980455040955509 6.333789367262137 -3.9
      vertex -2.852329766279124 0.3603330464973742 -3.9
      vertex -2.875 0 -3.9
    endloop
  endfacet
  facet normal 0 0 -1
    outer loop
      vertex -2.980455040955509 6.333789367262137 -3.9
      vertex -2.7846765882448143 0.7149834255989577 -3.9
      vertex -2.852329766279124 0.3603330464973742 -3.9
    endloop
  endfacet
  facet normal 0 0 -1
    outer loop
      vertex -2.980455040955509 6.333789367262137 -3.9
      vertex -2.673107396928723 1.058358088968449 -3.9
      vertex -2.7846765882448143 0.7149834255989577 -3.9
    endloop
  endfacet
  facet normal 0 0 -1
    outer loop
      vertex -2.980455040955509 6.333789367262137 -3.9
      vertex -2.5193817051261074 1.3850418130424318 -3.9
      vertex -2.673107396928723 1.058358088968449 -3.9
    endloop
  endfacet
  facet normal 0 0 -1
    outer loop
      vertex -2.1631189606246317 6.657395614066075 -3.9
      vertex -2.325923858827974 1.6898826003408602 -3.9
      vertex -2.5193817051261074 1.3850418130424318 -3.9
    endloop
  endfacet
  facet normal 0 0 -1
    outer loop
      vertex -2.1631189606246317 6.657395614066075 -3.9
      vertex -2.0957848038365587 1.9680729295449795 -3.9
      vertex -2.325923858827974 1.6898826003408602 -3.9
    endloop
  endfacet
  facet normal 0 0 -1
    outer loop
      vertex -2.1631189606246317 6.657395614066075 -3.9
      vertex -1.8325939705274827 2.2152255729803945 -3.9
      vertex -2.0957848038365587 1.9680729295449795 -3.9
    endloop
  endfacet
  facet normal 0 0 -1
    outer loop
      vertex -2.980455040955509 6.333789367262137 -3.9
      vertex -2.1631189606246317 6.657395614066075 -3.9
      vertex -2.5193817051261074 1.3850418130424318 -3.9
    endloop
  endfacet
  facet normal 0 0 -1
    outer loop
      vertex -2.1631189606246317 6.657395614066075 -3.9
      vertex -1.311669202100072 6.876010755100821 -3.9
      vertex -1.8325939705274827 2.2152255729803945 -3.9
    endloop
  endfacet
  facet normal 0 0 -1
    outer loop
      vertex -1.311669202100072 6.876010755100821 -3.9
      vertex -1.5405020355646157 2.427442785818293 -3.9
      vertex -1.8325939705274827 2.2152255729803945 -3.9
    endloop
  endfacet
  facet normal 0 0 -1
    outer loop
      vertex -1.311669202100072 6.876010755100821 -3.9
      vertex -1.224115463249584 2.601377775839806 -3.9
      vertex -1.5405020355646157 2.427442785818293 -3.9
    endloop
  endfacet
  facet normal 0 0 -1
    outer loop
      vertex -1.311669202100072 6.876010755100821 -3.9
      vertex -0.8884238588279738 2.7342874843485663 -3.9
      vertex -1.224115463249584 2.601377775839806 -3.9
    endloop
  endfacet
  facet normal 0 0 -1
    outer loop
      vertex -0.43953363670519296 6.986187098997901 -3.9
      vertex -0.5387212794339582 2.82407584584498 -3.9
      vertex -0.8884238588279738 2.7342874843485663 -3.9
    endloop
  endfacet
  facet normal 0 0 -1
    outer loop
      vertex -0.43953363670519296 6.986187098997901 -3.9
      vertex -0.18052274364677567 2.869326844231281 -3.9
      vertex -0.5387212794339582 2.82407584584498 -3.9
    endloop
  endfacet
  facet normal 0 0 -1
    outer loop
      vertex -0.43953363670519296 6.986187098997901 -3.9
      vertex 0.1805227436467747 2.869326844231281 -3.9
      vertex -0.18052274364677567 2.869326844231281 -3.9
    endloop
  endfacet
  facet normal 0 0 -1
    outer loop
      vertex -1.311669202100072 6.876010755100821 -3.9
      vertex -0.43953363670519296 6.986187098997901 -3.9
      vertex -0.8884238588279738 2.7342874843485663 -3.9
    endloop
  endfacet
  facet normal -0.4817536741017157 0.8763066800438633 0
    outer loop
      vertex -3.7507875648529776 5.910295478514104 -3.9
      vertex -3.7507875648529776 5.910295478514104 0
      vertex -2.980455040955509 6.333789367262137 -3.9
    endloop
  endfacet
  facet normal -0.3681245526846775 0.9297764858882517 0
    outer loop
      vertex -2.980455040955509 6.333789367262137 -3.9
      vertex -2.980455040955509 6.333789367262137 0
      vertex -2.1631189606246317 6.657395614066075 -3.9
    endloop
  endfacet
  facet normal -0.24868988716485532 0.968583161128631 0
    outer loop
      vertex -2.1631189606246317 6.657395614066075 -3.9
      vertex -2.1631189606246317 6.657395614066075 0
      vertex -1.311669202100072 6.876010755100821 -3.9
    endloop
  endfacet
  facet normal -0.12533323356430373 0.9921147013144779 0
    outer loop
      vertex -1.311669202100072 6.876010755100821 -3.9
      vertex -1.311669202100072 6.876010755100821 0
      vertex -0.43953363670519296 6.986187098997901 -3.9
    endloop
  endfacet
  facet normal 0 1 0
    outer loop
      vertex -0.43953363670519296 6.986187098997901 -3.9
      vertex -0.43953363670519296 6.986187098997901 0
      vertex 0.43953363670519296 6.986187098997901 -3.9
    endloop
  endfacet
  facet normal -0.9980267284282716 0.06279051952931274 0
    outer loop
      vertex -7 0 -3.9
      vertex -7 0 0
      vertex -6.9448029092013455 0.8773326349501285 0
    endloop
  endfacet
  facet normal -0.9822872507286886 0.18738131458572532 0
    outer loop
      vertex -6.9448029092013455 0.8773326349501285 -3.9
      vertex -6.9448029092013455 0.8773326349501285 0
      vertex -6.7800821279004175 1.740829210153984 0
    endloop
  endfacet
  facet normal -0.9510565162951535 0.30901699437494745 0
    outer loop
      vertex -6.7800821279004175 1.740829210153984 -3.9
      vertex -6.7800821279004175 1.740829210153984 0
      vertex -6.50843540121776 2.576871868792745 0
    endloop
  endfacet
  facet normal -0.9048270524660195 0.4257792915650727 0
    outer loop
      vertex -6.50843540121776 2.576871868792745 -3.9
      vertex -6.50843540121776 2.576871868792745 0
      vertex -6.134146760307044 3.372275718712008 0
    endloop
  endfacet
  facet normal 0 0 1
    outer loop
      vertex -6.9448029092013455 -0.8773326349501285 0
      vertex -6.9448029092013455 0.8773326349501285 0
      vertex -7 0 0
    endloop
  endfacet
  facet normal 0 0 1
    outer loop
      vertex -6.7800821279004175 -1.740829210153984 0
      vertex -6.7800821279004175 1.740829210153984 0
      vertex -6.9448029092013455 0.8773326349501285 0
    endloop
  endfacet
  facet normal 0 0 1
    outer loop
      vertex -6.50843540121776 -2.576871868792745 0
      vertex -6.50843540121776 2.576871868792745 0
      vertex -6.7800821279004175 1.740829210153984 0
    endloop
  endfacet
  facet normal 0 0 1
    outer loop
      vertex -6.134146760307044 -3.372275718712008 0
      vertex -6.134146760307044 3.372275718712008 0
      vertex -6.50843540121776 2.576871868792745 0
    endloop
  endfacet
  facet normal 0 0 1
    outer loop
      vertex -5.663118960624632 -4.114496766047312 0
      vertex -5.663118960624632 4.114496766047312 0
      vertex -6.134146760307044 3.372275718712008 0
    endloop
  endfacet
  facet normal 0 0 1
    outer loop
      vertex -5.663118960624632 4.114496766047312 0
      vertex -5.357419387098181 -0.676799461247242 0
      vertex -5.4 0 0
    endloop
  endfacet
  facet normal 0 0 1
    outer loop
      vertex -5.663118960624632 4.114496766047312 0
      vertex -5.4 0 0
      vertex -5.357419387098181 0.676799461247242 0
    endloop
  endfacet
  facet normal 0 0 1
    outer loop
      vertex -5.663118960624632 4.114496766047312 0
      vertex -5.357419387098181 0.676799461247242 0
      vertex -5.230349070094608 1.3429253906902163 0
    endloop
  endfacet
  facet normal 0 0 1
    outer loop
      vertex -5.663118960624632 4.114496766047312 0
      vertex -5.230349070094608 1.3429253906902163 0
      vertex -5.020793023796558 1.9878725844972607 0
    endloop
  endfacet
  facet normal 0 0 1
    outer loop
      vertex -5.1027803919498815 4.79182974150082 0
      vertex -5.020793023796558 1.9878725844972607 0
      vertex -4.732056072236863 2.6014698401492633 0
    endloop
  endfacet
  facet normal -0.8443279255020152 0.5358267949789963 0
    outer loop
      vertex -6.134146760307044 3.372275718712008 -3.9
      vertex -6.134146760307044 3.372275718712008 0
      vertex -5.663118960624632 4.114496766047312 0
    endloop
  endfacet
  facet normal -0.7705132427757891 0.6374239897486897 0
    outer loop
      vertex -5.663118960624632 4.114496766047312 -3.9
      vertex -5.663118960624632 4.114496766047312 0
      vertex -5.1027803919498815 4.79182974150082 0
    endloop
  endfacet
  facet normal -0.6845471059286894 0.7289686274214109 0
    outer loop
      vertex -4.461967928240828 5.393592699430526 -3.9
      vertex -5.1027803919498815 4.79182974150082 0
      vertex -4.461967928240828 5.393592699430526 0
    endloop
  endfacet
  facet normal -0.5877852522924721 0.809016994374948 0
    outer loop
      vertex -3.7507875648529776 5.910295478514104 -3.9
      vertex -4.461967928240828 5.393592699430526 0
      vertex -3.7507875648529776 5.910295478514104 0
    endloop
  endfacet
  facet normal 0 0 1
    outer loop
      vertex -5.663118960624632 4.114496766047312 0
      vertex -5.020793023796558 1.9878725844972607 0
      vertex -5.1027803919498815 4.79182974150082 0
    endloop
  endfacet
  facet normal 0 0 1
    outer loop
      vertex -5.1027803919498815 4.79182974150082 0
      vertex -4.732056072236863 2.6014698401492633 0
      vertex -4.368691769624717 3.174040362379355 0
    endloop
  endfacet
  facet normal 0 0 1
    outer loop
      vertex -5.1027803919498815 4.79182974150082 0
      vertex -4.368691769624717 3.174040362379355 0
      vertex -4.461967928240828 5.393592699430526 0
    endloop
  endfacet
  facet normal 0 0 1
    outer loop
      vertex -4.461967928240828 5.393592699430526 0
      vertex -4.368691769624717 3.174040362379355 0
      vertex -3.9364305880756234 3.6965543720149183 0
    endloop
  endfacet
  facet normal 0 0 1
    outer loop
      vertex -4.461967928240828 5.393592699430526 0
      vertex -3.9364305880756234 3.6965543720149183 0
      vertex -3.4420895446429243 4.160771510989263 0
    endloop
  endfacet
  facet normal 0 0 1
    outer loop
      vertex -4.461967928240828 5.393592699430526 0
      vertex -3.4420895446429243 4.160771510989263 0
      vertex -3.7507875648529776 5.910295478514104 0
    endloop
  endfacet
  facet normal -0.4817536741017157 0.8763066800438633 0
    outer loop
      vertex -2.980455040955509 6.333789367262137 -3.9
      vertex -3.7507875648529776 5.910295478514104 0
      vertex -2.980455040955509 6.333789367262137 0
    endloop
  endfacet
  facet normal -0.3681245526846775 0.9297764858882517 0
    outer loop
      vertex -2.1631189606246317 6.657395614066075 -3.9
      vertex -2.980455040955509 6.333789367262137 0
      vertex -2.1631189606246317 6.657395614066075 0
    endloop
  endfacet
  facet normal -0.24868988716485532 0.968583161128631 0
    outer loop
      vertex -1.311669202100072 6.876010755100821 -3.9
      vertex -2.1631189606246317 6.657395614066075 0
      vertex -1.311669202100072 6.876010755100821 0
    endloop
  endfacet
  facet normal -0.12533323356430373 0.9921147013144779 0
    outer loop
      vertex -0.43953363670519296 6.986187098997901 -3.9
      vertex -1.311669202100072 6.876010755100821 0
      vertex -0.43953363670519296 6.986187098997901 0
    endloop
  endfacet
  facet normal 0 0 1
    outer loop
      vertex -3.7507875648529776 5.910295478514104 0
      vertex -3.4420895446429243 4.160771510989263 0
      vertex -2.8934646928865826 4.559370797710881 0
    endloop
  endfacet
  facet normal 0 0 1
    outer loop
      vertex -3.7507875648529776 5.910295478514104 0
      vertex -2.8934646928865826 4.559370797710881 0
      vertex -2.980455040955509 6.333789367262137 0
    endloop
  endfacet
  facet normal 0 0 1
    outer loop
      vertex -2.980455040955509 6.333789367262137 0
      vertex -2.8934646928865826 4.559370797710881 0
      vertex -2.299208174451393 4.886066083316505 0
    endloop
  endfacet
  facet normal 0 0 1
    outer loop
      vertex -2.980455040955509 6.333789367262137 0
      vertex -2.299208174451393 4.886066083316505 0
      vertex -1.668691769624716 5.135705187993829 0
    endloop
  endfacet
  facet normal 0 0 1
    outer loop
      vertex -2.980455040955509 6.333789367262137 0
      vertex -1.668691769624716 5.135705187993829 0
      vertex -2.1631189606246317 6.657395614066075 0
    endloop
  endfacet
  facet normal 0 0 1
    outer loop
      vertex -2.1631189606246317 6.657395614066075 0
      vertex -1.668691769624716 5.135705187993829 0
      vertex -1.0118590987629128 5.3043511539349195 0
    endloop
  endfacet
  facet normal 0 0 1
    outer loop
      vertex -1.311669202100072 6.876010755100821 0
      vertex -1.0118590987629128 5.3043511539349195 0
      vertex -0.3390688054582914 5.389344333512667 0
    endloop
  endfacet
  facet normal 0 0 1
    outer loop
      vertex -2.1631189606246317 6.657395614066075 0
      vertex -1.0118590987629128 5.3043511539349195 0
      vertex -1.311669202100072 6.876010755100821 0
    endloop
  endfacet
  facet normal 0 0 1
    outer loop
      vertex -1.311669202100072 6.876010755100821 0
      vertex -0.3390688054582914 5.389344333512667 0
      vertex -0.43953363670519296 6.986187098997901 0
    endloop
  endfacet
  facet normal 0 0 1
    outer loop
      vertex -0.43953363670519296 6.986187098997901 0
      vertex -0.3390688054582914 5.389344333512667 0
      vertex 0.43953363670519296 6.986187098997901 0
    endloop
  endfacet
  facet normal 0 0 -1
    outer loop
      vertex 0.43953363670519635 -6.986187098997901 -3.9
      vertex 0.8884238588279738 -2.7342874843485663 -3.9
      vertex 1.3116692021000738 -6.87601075510082 -3.9
    endloop
  endfacet
  facet normal 0 0 -1
    outer loop
      vertex 0.43953363670519635 -6.986187098997901 -3.9
      vertex -0.18052274364677706 -2.869326844231281 -3.9
      vertex 0.18052274364677706 -2.869326844231281 -3.9
    endloop
  endfacet
  facet normal 0 0 -1
    outer loop
      vertex 0.43953363670519635 -6.986187098997901 -3.9
      vertex 0.18052274364677706 -2.869326844231281 -3.9
      vertex 0.5387212794339589 -2.82407584584498 -3.9
    endloop
  endfacet
  facet normal 0 0 -1
    outer loop
      vertex 0.43953363670519635 -6.986187098997901 -3.9
      vertex 0.5387212794339589 -2.82407584584498 -3.9
      vertex 0.8884238588279738 -2.7342874843485663 -3.9
    endloop
  endfacet
  facet normal 0 0 -1
    outer loop
      vertex 1.3116692021000738 -6.87601075510082 -3.9
      vertex 0.8884238588279738 -2.7342874843485663 -3.9
      vertex 1.2241154632495832 -2.6013777758398064 -3.9
    endloop
  endfacet
  facet normal 0 0 -1
    outer loop
      vertex 1.3116692021000738 -6.87601075510082 -3.9
      vertex 1.2241154632495832 -2.6013777758398064 -3.9
      vertex 1.5405020355646142 -2.427442785818294 -3.9
    endloop
  endfacet
  facet normal 0 0 -1
    outer loop
      vertex 1.3116692021000738 -6.87601075510082 -3.9
      vertex 1.5405020355646142 -2.427442785818294 -3.9
      vertex 1.8325939705274836 -2.2152255729803936 -3.9
    endloop
  endfacet
  facet normal 0 0 -1
    outer loop
      vertex 1.3116692021000738 -6.87601075510082 -3.9
      vertex 1.8325939705274836 -2.2152255729803936 -3.9
      vertex 2.1631189606246317 -6.657395614066075 -3.9
    endloop
  endfacet
  facet normal 0 0 -1
    outer loop
      vertex 2.1631189606246317 -6.657395614066075 -3.9
      vertex 2.5193817051261074 -1.3850418130424318 -3.9
      vertex 2.980455040955507 -6.333789367262137 -3.9
    endloop
  endfacet
  facet normal 0 0 -1
    outer loop
      vertex 2.1631189606246317 -6.657395614066075 -3.9
      vertex 1.8325939705274836 -2.2152255729803936 -3.9
      vertex 2.0957848038365587 -1.9680729295449795 -3.9
    endloop
  endfacet
  facet normal 0 -1 0
    outer loop
      vertex -0.43953363670519635 -6.986187098997901 -3.9
      vertex 0.43953363670519635 -6.986187098997901 -3.9
      vertex 0.43953363670519635 -6.986187098997901 0
    endloop
  endfacet
  facet normal 0.12533323356430498 -0.9921147013144778 0
    outer loop
      vertex 0.43953363670519635 -6.986187098997901 -3.9
      vertex 1.3116692021000738 -6.87601075510082 -3.9
      vertex 1.3116692021000738 -6.87601075510082 0
    endloop
  endfacet
  facet normal 0.24868988716485488 -0.9685831611286311 0
    outer loop
      vertex 1.3116692021000738 -6.87601075510082 -3.9
      vertex 2.1631189606246317 -6.657395614066075 -3.9
      vertex 2.1631189606246317 -6.657395614066075 0
    endloop
  endfacet
  facet normal 0.36812455268467814 -0.9297764858882513 0
    outer loop
      vertex 2.1631189606246317 -6.657395614066075 -3.9
      vertex 2.980455040955507 -6.333789367262137 -3.9
      vertex 2.980455040955507 -6.333789367262137 0
    endloop
  endfacet
  facet normal 0.48175367410171444 -0.876306680043864 0
    outer loop
      vertex 2.980455040955507 -6.333789367262137 -3.9
      vertex 3.7507875648529736 -5.910295478514107 -3.9
      vertex 3.7507875648529736 -5.910295478514107 0
    endloop
  endfacet
  facet normal 0 0 -1
    outer loop
      vertex 2.1631189606246317 -6.657395614066075 -3.9
      vertex 2.0957848038365587 -1.9680729295449795 -3.9
      vertex 2.325923858827974 -1.6898826003408602 -3.9
    endloop
  endfacet
  facet normal 0 0 -1
    outer loop
      vertex 2.1631189606246317 -6.657395614066075 -3.9
      vertex 2.325923858827974 -1.6898826003408602 -3.9
      vertex 2.5193817051261074 -1.3850418130424318 -3.9
    endloop
  endfacet
  facet normal 0 0 -1
    outer loop
      vertex 2.980455040955507 -6.333789367262137 -3.9
      vertex 2.5193817051261074 -1.3850418130424318 -3.9
      vertex 2.6731073969287222 -1.0583580889684503 -3.9
    endloop
  endfacet
  facet normal 0 0 -1
    outer loop
      vertex 2.980455040955507 -6.333789367262137 -3.9
      vertex 2.6731073969287222 -1.0583580889684503 -3.9
      vertex 2.784676588244815 -0.7149834255989564 -3.9
    endloop
  endfacet
  facet normal 0 0 -1
    outer loop
      vertex 2.980455040955507 -6.333789367262137 -3.9
      vertex 2.784676588244815 -0.7149834255989564 -3.9
      vertex 2.852329766279124 -0.3603330464973742 -3.9
    endloop
  endfacet
  facet normal 0 0 -1
    outer loop
      vertex 2.980455040955507 -6.333789367262137 -3.9
      vertex 2.852329766279124 -0.3603330464973742 -3.9
      vertex 2.875 0 -3.9
    endloop
  endfacet
  facet normal 0 0 -1
    outer loop
      vertex 2.980455040955507 -6.333789367262137 -3.9
      vertex 3.7507875648529767 5.910295478514105 -3.9
      vertex 3.7507875648529736 -5.910295478514107 -3.9
    endloop
  endfacet
  facet normal 0.5877852522924729 -0.8090169943749477 0
    outer loop
      vertex 3.7507875648529736 -5.910295478514107 -3.9
      vertex 4.4619679282408296 -5.393592699430523 -3.9
      vertex 4.4619679282408296 -5.393592699430523 0
    endloop
  endfacet
  facet normal 0.6845471059286888 -0.7289686274214113 0
    outer loop
      vertex 4.4619679282408296 -5.393592699430523 -3.9
      vertex 5.1027803919498815 -4.79182974150082 -3.9
      vertex 5.1027803919498815 -4.79182974150082 0
    endloop
  endfacet
  facet normal 0.7705132427757891 -0.6374239897486897 0
    outer loop
      vertex 5.1027803919498815 -4.79182974150082 -3.9
      vertex 5.663118960624632 -4.114496766047312 -3.9
      vertex 5.1027803919498815 -4.79182974150082 0
    endloop
  endfacet
  facet normal 0.8443279255020152 -0.5358267949789963 0
    outer loop
      vertex 5.663118960624632 -4.114496766047312 -3.9
      vertex 6.134146760307044 -3.372275718712008 -3.9
      vertex 5.663118960624632 -4.114496766047312 0
    endloop
  endfacet
  facet normal 0 0 -1
    outer loop
      vertex 3.7507875648529736 -5.910295478514107 -3.9
      vertex 4.461967928240828 5.393592699430524 -3.9
      vertex 4.4619679282408296 -5.393592699430523 -3.9
    endloop
  endfacet
  facet normal 0 0 -1
    outer loop
      vertex 4.4619679282408296 -5.393592699430523 -3.9
      vertex 5.102780391949881 4.7918297415008215 -3.9
      vertex 5.1027803919498815 -4.79182974150082 -3.9
    endloop
  endfacet
  facet normal 0 0 -1
    outer loop
      vertex 5.1027803919498815 -4.79182974150082 -3.9
      vertex 5.663118960624632 4.114496766047312 -3.9
      vertex 5.663118960624632 -4.114496766047312 -3.9
    endloop
  endfacet
  facet normal 0 0 -1
    outer loop
      vertex 5.663118960624632 -4.114496766047312 -3.9
      vertex 6.134146760307045 3.3722757187120074 -3.9
      vertex 6.134146760307044 -3.372275718712008 -3.9
    endloop
  endfacet
  facet normal 0 0 -1
    outer loop
      vertex 6.134146760307044 -3.372275718712008 -3.9
      vertex 6.50843540121776 2.576871868792746 -3.9
      vertex 6.508435401217759 -2.5768718687927485 -3.9
    endloop
  endfacet
  facet normal 0 0 -1
    outer loop
      vertex 6.508435401217759 -2.5768718687927485 -3.9
      vertex 6.7800821279004175 1.7408292101539835 -3.9
      vertex 6.780082127900418 -1.740829210153981 -3.9
    endloop
  endfacet
  facet normal 0 0 -1
    outer loop
      vertex 6.780082127900418 -1.740829210153981 -3.9
      vertex 6.9448029092013455 0.8773326349501298 -3.9
      vertex 6.9448029092013455 -0.8773326349501285 -3.9
    endloop
  endfacet
  facet normal 0.9048270524660191 -0.42577929156507344 0
    outer loop
      vertex 6.134146760307044 -3.372275718712008 -3.9
      vertex 6.508435401217759 -2.5768718687927485 -3.9
      vertex 6.134146760307044 -3.372275718712008 0
    endloop
  endfacet
  facet normal 0.9510565162951536 -0.3090169943749471 0
    outer loop
      vertex 6.508435401217759 -2.5768718687927485 -3.9
      vertex 6.780082127900418 -1.740829210153981 -3.9
      vertex 6.508435401217759 -2.5768718687927485 0
    endloop
  endfacet
  facet normal 0.9822872507286886 -0.18738131458572496 0
    outer loop
      vertex 6.780082127900418 -1.740829210153981 -3.9
      vertex 6.9448029092013455 -0.8773326349501285 -3.9
      vertex 6.780082127900418 -1.740829210153981 0
    endloop
  endfacet
  facet normal 0.9980267284282716 -0.06279051952931274 0
    outer loop
      vertex 6.9448029092013455 -0.8773326349501285 -3.9
      vertex 7 0 -3.9
      vertex 6.9448029092013455 -0.8773326349501285 0
    endloop
  endfacet
  facet normal 0.12533323356430498 -0.9921147013144778 0
    outer loop
      vertex 0.43953363670519635 -6.986187098997901 -3.9
      vertex 1.3116692021000738 -6.87601075510082 0
      vertex 0.43953363670519635 -6.986187098997901 0
    endloop
  endfacet
  facet normal 0.24868988716485488 -0.9685831611286311 0
    outer loop
      vertex 1.3116692021000738 -6.87601075510082 -3.9
      vertex 2.1631189606246317 -6.657395614066075 0
      vertex 1.3116692021000738 -6.87601075510082 0
    endloop
  endfacet
  facet normal 0.36812455268467814 -0.9297764858882513 0
    outer loop
      vertex 2.1631189606246317 -6.657395614066075 -3.9
      vertex 2.980455040955507 -6.333789367262137 0
      vertex 2.1631189606246317 -6.657395614066075 0
    endloop
  endfacet
  facet normal 0.48175367410171444 -0.876306680043864 0
    outer loop
      vertex 2.980455040955507 -6.333789367262137 -3.9
      vertex 3.7507875648529736 -5.910295478514107 0
      vertex 2.980455040955507 -6.333789367262137 0
    endloop
  endfacet
  facet normal 0 0 1
    outer loop
      vertex 0.43953363670519635 -6.986187098997901 0
      vertex 1.3116692021000738 -6.87601075510082 0
      vertex 0.3390688054582943 -5.389344333512667 0
    endloop
  endfacet
  facet normal 0 0 1
    outer loop
      vertex 0.43953363670519635 -6.986187098997901 0
      vertex 0.3390688054582943 -5.389344333512667 0
      vertex -0.3390688054582943 -5.389344333512667 0
    endloop
  endfacet
  facet normal 0 0 1
    outer loop
      vertex 1.3116692021000738 -6.87601075510082 0
      vertex 2.1631189606246317 -6.657395614066075 0
      vertex 1.0118590987629141 -5.304351153934919 0
    endloop
  endfacet
  facet normal 0 0 1
    outer loop
      vertex 1.3116692021000738 -6.87601075510082 0
      vertex 1.0118590987629141 -5.304351153934919 0
      vertex 0.3390688054582943 -5.389344333512667 0
    endloop
  endfacet
  facet normal 0 0 1
    outer loop
      vertex 2.1631189606246317 -6.657395614066075 0
      vertex 1.668691769624716 -5.135705187993829 0
      vertex 1.0118590987629141 -5.304351153934919 0
    endloop
  endfacet
  facet normal 0 0 1
    outer loop
      vertex 2.1631189606246317 -6.657395614066075 0
      vertex 2.980455040955507 -6.333789367262137 0
      vertex 1.668691769624716 -5.135705187993829 0
    endloop
  endfacet
  facet normal 0 0 1
    outer loop
      vertex 2.980455040955507 -6.333789367262137 0
      vertex 2.2992081744513913 -4.886066083316506 0
      vertex 1.668691769624716 -5.135705187993829 0
    endloop
  endfacet
  facet normal 0 0 1
    outer loop
      vertex 2.980455040955507 -6.333789367262137 0
      vertex 2.89346469288658 -4.559370797710883 0
      vertex 2.2992081744513913 -4.886066083316506 0
    endloop
  endfacet
  facet normal 0 0 1
    outer loop
      vertex 2.980455040955507 -6.333789367262137 0
      vertex 3.7507875648529736 -5.910295478514107 0
      vertex 2.89346469288658 -4.559370797710883 0
    endloop
  endfacet
  facet normal 0 0 1
    outer loop
      vertex 3.7507875648529736 -5.910295478514107 0
      vertex 3.442089544642926 -4.160771510989261 0
      vertex 2.89346469288658 -4.559370797710883 0
    endloop
  endfacet
  facet normal 0.5877852522924729 -0.8090169943749477 0
    outer loop
      vertex 3.7507875648529736 -5.910295478514107 -3.9
      vertex 4.4619679282408296 -5.393592699430523 0
      vertex 3.7507875648529736 -5.910295478514107 0
    endloop
  endfacet
  facet normal 0.6845471059286888 -0.7289686274214113 0
    outer loop
      vertex 4.4619679282408296 -5.393592699430523 -3.9
      vertex 5.1027803919498815 -4.79182974150082 0
      vertex 4.4619679282408296 -5.393592699430523 0
    endloop
  endfacet
  facet normal 0.7705132427757891 -0.6374239897486897 0
    outer loop
      vertex 5.663118960624632 -4.114496766047312 -3.9
      vertex 5.663118960624632 -4.114496766047312 0
      vertex 5.1027803919498815 -4.79182974150082 0
    endloop
  endfacet
  facet normal 0.8443279255020152 -0.5358267949789963 0
    outer loop
      vertex 6.134146760307044 -3.372275718712008 -3.9
      vertex 6.134146760307044 -3.372275718712008 0
      vertex 5.663118960624632 -4.114496766047312 0
    endloop
  endfacet
  facet normal 0 0 1
    outer loop
      vertex 3.7507875648529736 -5.910295478514107 0
      vertex 4.4619679282408296 -5.393592699430523 0
      vertex 3.442089544642926 -4.160771510989261 0
    endloop
  endfacet
  facet normal 0 0 1
    outer loop
      vertex 4.4619679282408296 -5.393592699430523 0
      vertex 3.9364305880756234 -3.6965543720149183 0
      vertex 3.442089544642926 -4.160771510989261 0
    endloop
  endfacet
  facet normal 0 0 1
    outer loop
      vertex 4.4619679282408296 -5.393592699430523 0
      vertex 4.368691769624717 -3.174040362379355 0
      vertex 3.9364305880756234 -3.6965543720149183 0
    endloop
  endfacet
  facet normal 0 0 1
    outer loop
      vertex 4.4619679282408296 -5.393592699430523 0
      vertex 5.1027803919498815 -4.79182974150082 0
      vertex 4.368691769624717 -3.174040362379355 0
    endloop
  endfacet
  facet normal 0 0 1
    outer loop
      vertex 5.1027803919498815 -4.79182974150082 0
      vertex 4.732056072236863 -2.6014698401492633 0
      vertex 4.368691769624717 -3.174040362379355 0
    endloop
  endfacet
  facet normal 0 0 1
    outer loop
      vertex 5.1027803919498815 -4.79182974150082 0
      vertex 5.663118960624632 -4.114496766047312 0
      vertex 5.020793023796557 -1.9878725844972633 0
    endloop
  endfacet
  facet normal 0.9048270524660191 -0.42577929156507344 0
    outer loop
      vertex 6.508435401217759 -2.5768718687927485 -3.9
      vertex 6.508435401217759 -2.5768718687927485 0
      vertex 6.134146760307044 -3.372275718712008 0
    endloop
  endfacet
  facet normal 0.9510565162951536 -0.3090169943749471 0
    outer loop
      vertex 6.780082127900418 -1.740829210153981 -3.9
      vertex 6.780082127900418 -1.740829210153981 0
      vertex 6.508435401217759 -2.5768718687927485 0
    endloop
  endfacet
  facet normal 0.9822872507286886 -0.18738131458572496 0
    outer loop
      vertex 6.9448029092013455 -0.8773326349501285 -3.9
      vertex 6.9448029092013455 -0.8773326349501285 0
      vertex 6.780082127900418 -1.740829210153981 0
    endloop
  endfacet
  facet normal 0.9980267284282716 -0.06279051952931274 0
    outer loop
      vertex 6.9448029092013455 -0.8773326349501285 0
      vertex 7 0 -3.9
      vertex 7 0 0
    endloop
  endfacet
  facet normal 0 0 1
    outer loop
      vertex 5.1027803919498815 -4.79182974150082 0
      vertex 5.020793023796557 -1.9878725844972633 0
      vertex 4.732056072236863 -2.6014698401492633 0
    endloop
  endfacet
  facet normal 0 0 1
    outer loop
      vertex 5.663118960624632 -4.114496766047312 0
      vertex 5.230349070094609 -1.342925390690214 0
      vertex 5.020793023796557 -1.9878725844972633 0
    endloop
  endfacet
  facet normal 0 0 1
    outer loop
      vertex 5.663118960624632 -4.114496766047312 0
      vertex 5.357419387098181 -0.676799461247242 0
      vertex 5.230349070094609 -1.342925390690214 0
    endloop
  endfacet
  facet normal 0 0 1
    outer loop
      vertex 5.663118960624632 -4.114496766047312 0
      vertex 5.4 0 0
      vertex 5.357419387098181 -0.676799461247242 0
    endloop
  endfacet
  facet normal 0 0 1
    outer loop
      vertex 5.663118960624632 -4.114496766047312 0
      vertex 5.357419387098181 0.676799461247243 0
      vertex 5.4 0 0
    endloop
  endfacet
  facet normal 0 0 1
    outer loop
      vertex 5.663118960624632 -4.114496766047312 0
      vertex 6.134146760307044 -3.372275718712008 0
      vertex 5.663118960624632 4.114496766047312 0
    endloop
  endfacet
  facet normal 0 0 1
    outer loop
      vertex 6.134146760307044 -3.372275718712008 0
      vertex 6.508435401217759 -2.5768718687927485 0
      vertex 6.134146760307045 3.3722757187120074 0
    endloop
  endfacet
  facet normal 0 0 1
    outer loop
      vertex 6.508435401217759 -2.5768718687927485 0
      vertex 6.780082127900418 -1.740829210153981 0
      vertex 6.50843540121776 2.576871868792746 0
    endloop
  endfacet
  facet normal 0 0 1
    outer loop
      vertex 6.780082127900418 -1.740829210153981 0
      vertex 6.9448029092013455 -0.8773326349501285 0
      vertex 6.7800821279004175 1.7408292101539835 0
    endloop
  endfacet
  facet normal 0 0 -1
    outer loop
      vertex 2.980455040955507 -6.333789367262137 -3.9
      vertex 2.875 0 -3.9
      vertex 2.980455040955509 6.333789367262137 -3.9
    endloop
  endfacet
  facet normal 0 0 -1
    outer loop
      vertex 2.980455040955509 6.333789367262137 -3.9
      vertex 2.519381705126108 1.3850418130424316 -3.9
      vertex 2.325923858827974 1.6898826003408602 -3.9
    endloop
  endfacet
  facet normal 0 0 -1
    outer loop
      vertex 2.980455040955509 6.333789367262137 -3.9
      vertex 2.325923858827974 1.6898826003408602 -3.9
      vertex 2.0957848038365583 1.9680729295449801 -3.9
    endloop
  endfacet
  facet normal 0 0 -1
    outer loop
      vertex 2.980455040955509 6.333789367262137 -3.9
      vertex 2.875 0 -3.9
      vertex 2.852329766279124 0.36033304649737474 -3.9
    endloop
  endfacet
  facet normal 0 0 -1
    outer loop
      vertex 2.980455040955509 6.333789367262137 -3.9
      vertex 2.852329766279124 0.36033304649737474 -3.9
      vertex 2.7846765882448143 0.7149834255989576 -3.9
    endloop
  endfacet
  facet normal 0 0 -1
    outer loop
      vertex 2.980455040955507 -6.333789367262137 -3.9
      vertex 2.980455040955509 6.333789367262137 -3.9
      vertex 3.7507875648529767 5.910295478514105 -3.9
    endloop
  endfacet
  facet normal 0 0 -1
    outer loop
      vertex 2.980455040955509 6.333789367262137 -3.9
      vertex 2.7846765882448143 0.7149834255989576 -3.9
      vertex 2.6731073969287227 1.0583580889684492 -3.9
    endloop
  endfacet
  facet normal 0 0 -1
    outer loop
      vertex 2.980455040955509 6.333789367262137 -3.9
      vertex 2.6731073969287227 1.0583580889684492 -3.9
      vertex 2.519381705126108 1.3850418130424316 -3.9
    endloop
  endfacet
  facet normal 0 0 -1
    outer loop
      vertex 1.311669202100072 6.876010755100821 -3.9
      vertex 0.5387212794339582 2.82407584584498 -3.9
      vertex 0.1805227436467747 2.869326844231281 -3.9
    endloop
  endfacet
  facet normal 0 0 -1
    outer loop
      vertex 1.311669202100072 6.876010755100821 -3.9
      vertex 0.8884238588279738 2.7342874843485663 -3.9
      vertex 0.5387212794339582 2.82407584584498 -3.9
    endloop
  endfacet
  facet normal 0 0 -1
    outer loop
      vertex 1.311669202100072 6.876010755100821 -3.9
      vertex 1.224115463249584 2.601377775839806 -3.9
      vertex 0.8884238588279738 2.7342874843485663 -3.9
    endloop
  endfacet
  facet normal 0 0 -1
    outer loop
      vertex 2.1631189606246317 6.657395614066075 -3.9
      vertex 1.5405020355646153 2.427442785818293 -3.9
      vertex 1.224115463249584 2.601377775839806 -3.9
    endloop
  endfacet
  facet normal 0 0 -1
    outer loop
      vertex -0.43953363670519296 6.986187098997901 -3.9
      vertex 0.43953363670519296 6.986187098997901 -3.9
      vertex 0.1805227436467747 2.869326844231281 -3.9
    endloop
  endfacet
  facet normal 0 0 -1
    outer loop
      vertex 0.43953363670519296 6.986187098997901 -3.9
      vertex 1.311669202100072 6.876010755100821 -3.9
      vertex 0.1805227436467747 2.869326844231281 -3.9
    endloop
  endfacet
  facet normal 0 0 -1
    outer loop
      vertex 1.311669202100072 6.876010755100821 -3.9
      vertex 2.1631189606246317 6.657395614066075 -3.9
      vertex 1.224115463249584 2.601377775839806 -3.9
    endloop
  endfacet
  facet normal 0 0 -1
    outer loop
      vertex 2.1631189606246317 6.657395614066075 -3.9
      vertex 1.832593970527483 2.2152255729803936 -3.9
      vertex 1.5405020355646153 2.427442785818293 -3.9
    endloop
  endfacet
  facet normal 0 0 -1
    outer loop
      vertex 2.1631189606246317 6.657395614066075 -3.9
      vertex 2.0957848038365583 1.9680729295449801 -3.9
      vertex 1.832593970527483 2.2152255729803936 -3.9
    endloop
  endfacet
  facet normal 0 0 -1
    outer loop
      vertex 2.1631189606246317 6.657395614066075 -3.9
      vertex 2.980455040955509 6.333789367262137 -3.9
      vertex 2.0957848038365583 1.9680729295449801 -3.9
    endloop
  endfacet
  facet normal 0.12533323356430373 0.9921147013144779 0
    outer loop
      vertex 0.43953363670519296 6.986187098997901 -3.9
      vertex 0.43953363670519296 6.986187098997901 0
      vertex 1.311669202100072 6.876010755100821 -3.9
    endloop
  endfacet
  facet normal 0.24868988716485532 0.968583161128631 0
    outer loop
      vertex 1.311669202100072 6.876010755100821 -3.9
      vertex 1.311669202100072 6.876010755100821 0
      vertex 2.1631189606246317 6.657395614066075 -3.9
    endloop
  endfacet
  facet normal 0.3681245526846775 0.9297764858882517 0
    outer loop
      vertex 2.1631189606246317 6.657395614066075 -3.9
      vertex 2.1631189606246317 6.657395614066075 0
      vertex 2.980455040955509 6.333789367262137 -3.9
    endloop
  endfacet
  facet normal 0.48175367410171543 0.8763066800438636 0
    outer loop
      vertex 2.980455040955509 6.333789367262137 -3.9
      vertex 2.980455040955509 6.333789367262137 0
      vertex 3.7507875648529767 5.910295478514105 -3.9
    endloop
  endfacet
  facet normal 0 0 -1
    outer loop
      vertex 4.4619679282408296 -5.393592699430523 -3.9
      vertex 4.461967928240828 5.393592699430524 -3.9
      vertex 5.102780391949881 4.7918297415008215 -3.9
    endloop
  endfacet
  facet normal 0 0 -1
    outer loop
      vertex 3.7507875648529736 -5.910295478514107 -3.9
      vertex 3.7507875648529767 5.910295478514105 -3.9
      vertex 4.461967928240828 5.393592699430524 -3.9
    endloop
  endfacet
  facet normal 0 0 -1
    outer loop
      vertex 5.1027803919498815 -4.79182974150082 -3.9
      vertex 5.102780391949881 4.7918297415008215 -3.9
      vertex 5.663118960624632 4.114496766047312 -3.9
    endloop
  endfacet
  facet normal 0 0 -1
    outer loop
      vertex 5.663118960624632 -4.114496766047312 -3.9
      vertex 5.663118960624632 4.114496766047312 -3.9
      vertex 6.134146760307045 3.3722757187120074 -3.9
    endloop
  endfacet
  facet normal 0 0 -1
    outer loop
      vertex 6.134146760307044 -3.372275718712008 -3.9
      vertex 6.134146760307045 3.3722757187120074 -3.9
      vertex 6.50843540121776 2.576871868792746 -3.9
    endloop
  endfacet
  facet normal 0 0 -1
    outer loop
      vertex 6.9448029092013455 -0.8773326349501285 -3.9
      vertex 6.9448029092013455 0.8773326349501298 -3.9
      vertex 7 0 -3.9
    endloop
  endfacet
  facet normal 0 0 -1
    outer loop
      vertex 6.780082127900418 -1.740829210153981 -3.9
      vertex 6.7800821279004175 1.7408292101539835 -3.9
      vertex 6.9448029092013455 0.8773326349501298 -3.9
    endloop
  endfacet
  facet normal 0 0 -1
    outer loop
      vertex 6.508435401217759 -2.5768718687927485 -3.9
      vertex 6.50843540121776 2.576871868792746 -3.9
      vertex 6.7800821279004175 1.7408292101539835 -3.9
    endloop
  endfacet
  facet normal 0.9980267284282717 0.06279051952931264 0
    outer loop
      vertex 7 0 -3.9
      vertex 6.9448029092013455 0.8773326349501298 -3.9
      vertex 7 0 0
    endloop
  endfacet
  facet normal 0.9822872507286885 0.1873813145857257 0
    outer loop
      vertex 6.9448029092013455 0.8773326349501298 -3.9
      vertex 6.7800821279004175 1.7408292101539835 -3.9
      vertex 6.9448029092013455 0.8773326349501298 0
    endloop
  endfacet
  facet normal 0.9510565162951538 0.30901699437494706 0
    outer loop
      vertex 6.7800821279004175 1.7408292101539835 -3.9
      vertex 6.50843540121776 2.576871868792746 -3.9
      vertex 6.7800821279004175 1.7408292101539835 0
    endloop
  endfacet
  facet normal 0.9048270524660197 0.42577929156507244 0
    outer loop
      vertex 6.50843540121776 2.576871868792746 -3.9
      vertex 6.134146760307045 3.3722757187120074 -3.9
      vertex 6.50843540121776 2.576871868792746 0
    endloop
  endfacet
  facet normal 0.6845471059286877 0.7289686274214124 0
    outer loop
      vertex 5.102780391949881 4.7918297415008215 -3.9
      vertex 4.461967928240828 5.393592699430524 -3.9
      vertex 4.461967928240828 5.393592699430524 0
    endloop
  endfacet
  facet normal 0.5877852522924736 0.809016994374947 0
    outer loop
      vertex 3.7507875648529767 5.910295478514105 -3.9
      vertex 3.7507875648529767 5.910295478514105 0
      vertex 4.461967928240828 5.393592699430524 -3.9
    endloop
  endfacet
  facet normal 0.7705132427757896 0.6374239897486893 0
    outer loop
      vertex 5.102780391949881 4.7918297415008215 -3.9
      vertex 5.663118960624632 4.114496766047312 0
      vertex 5.663118960624632 4.114496766047312 -3.9
    endloop
  endfacet
  facet normal 0.844327925502015 0.5358267949789969 0
    outer loop
      vertex 6.134146760307045 3.3722757187120074 -3.9
      vertex 5.663118960624632 4.114496766047312 -3.9
      vertex 6.134146760307045 3.3722757187120074 0
    endloop
  endfacet
  facet normal 0 1 0
    outer loop
      vertex -0.43953363670519296 6.986187098997901 0
      vertex 0.43953363670519296 6.986187098997901 0
      vertex 0.43953363670519296 6.986187098997901 -3.9
    endloop
  endfacet
  facet normal 0.12533323356430373 0.9921147013144779 0
    outer loop
      vertex 1.311669202100072 6.876010755100821 -3.9
      vertex 0.43953363670519296 6.986187098997901 0
      vertex 1.311669202100072 6.876010755100821 0
    endloop
  endfacet
  facet normal 0.24868988716485532 0.968583161128631 0
    outer loop
      vertex 2.1631189606246317 6.657395614066075 -3.9
      vertex 1.311669202100072 6.876010755100821 0
      vertex 2.1631189606246317 6.657395614066075 0
    endloop
  endfacet
  facet normal 0.48175367410171543 0.8763066800438636 0
    outer loop
      vertex 3.7507875648529767 5.910295478514105 -3.9
      vertex 2.980455040955509 6.333789367262137 0
      vertex 3.7507875648529767 5.910295478514105 0
    endloop
  endfacet
  facet normal 0.3681245526846775 0.9297764858882517 0
    outer loop
      vertex 2.980455040955509 6.333789367262137 -3.9
      vertex 2.1631189606246317 6.657395614066075 0
      vertex 2.980455040955509 6.333789367262137 0
    endloop
  endfacet
  facet normal 0 0 1
    outer loop
      vertex 0.43953363670519296 6.986187098997901 0
      vertex -0.3390688054582914 5.389344333512667 0
      vertex 0.3390688054582917 5.389344333512667 0
    endloop
  endfacet
  facet normal 0 0 1
    outer loop
      vertex 0.43953363670519296 6.986187098997901 0
      vertex 0.3390688054582917 5.389344333512667 0
      vertex 1.0118590987629128 5.3043511539349195 0
    endloop
  endfacet
  facet normal 0 0 1
    outer loop
      vertex 1.311669202100072 6.876010755100821 0
      vertex 1.0118590987629128 5.3043511539349195 0
      vertex 1.668691769624716 5.135705187993829 0
    endloop
  endfacet
  facet normal 0 0 1
    outer loop
      vertex 0.43953363670519296 6.986187098997901 0
      vertex 1.0118590987629128 5.3043511539349195 0
      vertex 1.311669202100072 6.876010755100821 0
    endloop
  endfacet
  facet normal 0 0 1
    outer loop
      vertex 1.311669202100072 6.876010755100821 0
      vertex 1.668691769624716 5.135705187993829 0
      vertex 2.1631189606246317 6.657395614066075 0
    endloop
  endfacet
  facet normal 0 0 1
    outer loop
      vertex 2.980455040955509 6.333789367262137 0
      vertex 2.893464692886582 4.559370797710882 0
      vertex 3.4420895446429247 4.160771510989262 0
    endloop
  endfacet
  facet normal 0 0 1
    outer loop
      vertex 2.1631189606246317 6.657395614066075 0
      vertex 1.668691769624716 5.135705187993829 0
      vertex 2.299208174451393 4.886066083316505 0
    endloop
  endfacet
  facet normal 0 0 1
    outer loop
      vertex 2.1631189606246317 6.657395614066075 0
      vertex 2.299208174451393 4.886066083316505 0
      vertex 2.980455040955509 6.333789367262137 0
    endloop
  endfacet
  facet normal 0 0 1
    outer loop
      vertex 2.980455040955509 6.333789367262137 0
      vertex 2.299208174451393 4.886066083316505 0
      vertex 2.893464692886582 4.559370797710882 0
    endloop
  endfacet
  facet normal 0 0 1
    outer loop
      vertex 2.980455040955509 6.333789367262137 0
      vertex 3.4420895446429247 4.160771510989262 0
      vertex 3.7507875648529767 5.910295478514105 0
    endloop
  endfacet
  facet normal 0.9980267284282717 0.06279051952931264 0
    outer loop
      vertex 6.9448029092013455 0.8773326349501298 -3.9
      vertex 6.9448029092013455 0.8773326349501298 0
      vertex 7 0 0
    endloop
  endfacet
  facet normal 0.9822872507286885 0.1873813145857257 0
    outer loop
      vertex 6.7800821279004175 1.7408292101539835 -3.9
      vertex 6.7800821279004175 1.7408292101539835 0
      vertex 6.9448029092013455 0.8773326349501298 0
    endloop
  endfacet
  facet normal 0.9510565162951538 0.30901699437494706 0
    outer loop
      vertex 6.50843540121776 2.576871868792746 -3.9
      vertex 6.50843540121776 2.576871868792746 0
      vertex 6.7800821279004175 1.7408292101539835 0
    endloop
  endfacet
  facet normal 0.9048270524660197 0.42577929156507244 0
    outer loop
      vertex 6.134146760307045 3.3722757187120074 -3.9
      vertex 6.134146760307045 3.3722757187120074 0
      vertex 6.50843540121776 2.576871868792746 0
    endloop
  endfacet
  facet normal 0 0 1
    outer loop
      vertex 5.102780391949881 4.7918297415008215 0
      vertex 5.230349070094608 1.3429253906902159 0
      vertex 5.357419387098181 0.676799461247243 0
    endloop
  endfacet
  facet normal 0 0 1
    outer loop
      vertex 5.102780391949881 4.7918297415008215 0
      vertex 5.020793023796558 1.9878725844972611 0
      vertex 5.230349070094608 1.3429253906902159 0
    endloop
  endfacet
  facet normal 0 0 1
    outer loop
      vertex 5.102780391949881 4.7918297415008215 0
      vertex 4.732056072236864 2.601469840149263 0
      vertex 5.020793023796558 1.9878725844972611 0
    endloop
  endfacet
  facet normal 0 0 1
    outer loop
      vertex 5.663118960624632 -4.114496766047312 0
      vertex 5.102780391949881 4.7918297415008215 0
      vertex 5.357419387098181 0.676799461247243 0
    endloop
  endfacet
  facet normal 0 0 1
    outer loop
      vertex 5.663118960624632 -4.114496766047312 0
      vertex 5.663118960624632 4.114496766047312 0
      vertex 5.102780391949881 4.7918297415008215 0
    endloop
  endfacet
  facet normal 0 0 1
    outer loop
      vertex 6.134146760307044 -3.372275718712008 0
      vertex 6.134146760307045 3.3722757187120074 0
      vertex 5.663118960624632 4.114496766047312 0
    endloop
  endfacet
  facet normal 0 0 1
    outer loop
      vertex 6.9448029092013455 -0.8773326349501285 0
      vertex 7 0 0
      vertex 6.9448029092013455 0.8773326349501298 0
    endloop
  endfacet
  facet normal 0 0 1
    outer loop
      vertex 6.780082127900418 -1.740829210153981 0
      vertex 6.7800821279004175 1.7408292101539835 0
      vertex 6.50843540121776 2.576871868792746 0
    endloop
  endfacet
  facet normal 0 0 1
    outer loop
      vertex 6.9448029092013455 -0.8773326349501285 0
      vertex 6.9448029092013455 0.8773326349501298 0
      vertex 6.7800821279004175 1.7408292101539835 0
    endloop
  endfacet
  facet normal 0 0 1
    outer loop
      vertex 6.508435401217759 -2.5768718687927485 0
      vertex 6.50843540121776 2.576871868792746 0
      vertex 6.134146760307045 3.3722757187120074 0
    endloop
  endfacet
  facet normal 0.6845471059286877 0.7289686274214124 0
    outer loop
      vertex 5.102780391949881 4.7918297415008215 -3.9
      vertex 4.461967928240828 5.393592699430524 0
      vertex 5.102780391949881 4.7918297415008215 0
    endloop
  endfacet
  facet normal 0.5877852522924736 0.809016994374947 0
    outer loop
      vertex 4.461967928240828 5.393592699430524 -3.9
      vertex 3.7507875648529767 5.910295478514105 0
      vertex 4.461967928240828 5.393592699430524 0
    endloop
  endfacet
  facet normal 0.844327925502015 0.5358267949789969 0
    outer loop
      vertex 5.663118960624632 4.114496766047312 -3.9
      vertex 5.663118960624632 4.114496766047312 0
      vertex 6.134146760307045 3.3722757187120074 0
    endloop
  endfacet
  facet normal 0.7705132427757896 0.6374239897486893 0
    outer loop
      vertex 5.102780391949881 4.7918297415008215 -3.9
      vertex 5.102780391949881 4.7918297415008215 0
      vertex 5.663118960624632 4.114496766047312 0
    endloop
  endfacet
  facet normal 0 0 1
    outer loop
      vertex 4.461967928240828 5.393592699430524 0
      vertex 3.9364305880756225 3.696554372014919 0
      vertex 4.368691769624717 3.174040362379355 0
    endloop
  endfacet
  facet normal 0 0 1
    outer loop
      vertex 3.7507875648529767 5.910295478514105 0
      vertex 3.4420895446429247 4.160771510989262 0
      vertex 3.9364305880756225 3.696554372014919 0
    endloop
  endfacet
  facet normal 0 0 1
    outer loop
      vertex 3.7507875648529767 5.910295478514105 0
      vertex 3.9364305880756225 3.696554372014919 0
      vertex 4.461967928240828 5.393592699430524 0
    endloop
  endfacet
  facet normal 0 0 1
    outer loop
      vertex 4.461967928240828 5.393592699430524 0
      vertex 4.368691769624717 3.174040362379355 0
      vertex 4.732056072236864 2.601469840149263 0
    endloop
  endfacet
  facet normal 0 0 1
    outer loop
      vertex 5.102780391949881 4.7918297415008215 0
      vertex 4.461967928240828 5.393592699430524 0
      vertex 4.732056072236864 2.601469840149263 0
    endloop
  endfacet
endsolid OpenSCAD_Model
