solid OpenSCAD_Model
  facet normal 0.998026 0.0627987 0
    outer loop
      vertex 4.75 0 0
      vertex 4.71254 0.595332 -3
      vertex 4.71254 0.595332 0
    endloop
  endfacet
  facet normal 0.998026 0.0627987 0
    outer loop
      vertex 4.71254 0.595332 -3
      vertex 4.75 0 0
      vertex 4.75 0 -3
    endloop
  endfacet
  facet normal 0 0 -1
    outer loop
      vertex 4.71254 -0.595332 -3
      vertex 4.71254 0.595332 -3
      vertex 4.75 0 -3
    endloop
  endfacet
  facet normal 0 0 -1
    outer loop
      vertex 4.60077 -1.18128 -3
      vertex 4.71254 0.595332 -3
      vertex 4.71254 -0.595332 -3
    endloop
  endfacet
  facet normal 0 0 -1
    outer loop
      vertex 4.60077 -1.18128 -3
      vertex 4.60077 1.18128 -3
      vertex 4.71254 0.595332 -3
    endloop
  endfacet
  facet normal 0 0 -1
    outer loop
      vertex 4.41644 -1.74859 -3
      vertex 4.60077 1.18128 -3
      vertex 4.60077 -1.18128 -3
    endloop
  endfacet
  facet normal 0 0 -1
    outer loop
      vertex 4.41644 -1.74859 -3
      vertex 4.41644 1.74859 -3
      vertex 4.60077 1.18128 -3
    endloop
  endfacet
  facet normal 0 0 -1
    outer loop
      vertex 4.16246 -2.28833 -3
      vertex 4.41644 1.74859 -3
      vertex 4.41644 -1.74859 -3
    endloop
  endfacet
  facet normal 0 0 -1
    outer loop
      vertex 4.16246 -2.28833 -3
      vertex 4.16246 2.28833 -3
      vertex 4.41644 1.74859 -3
    endloop
  endfacet
  facet normal 0 0 -1
    outer loop
      vertex 3.84283 -2.79198 -3
      vertex 4.16246 2.28833 -3
      vertex 4.16246 -2.28833 -3
    endloop
  endfacet
  facet normal 0 0 -1
    outer loop
      vertex 3.84283 -2.79198 -3
      vertex 3.84283 2.79198 -3
      vertex 4.16246 2.28833 -3
    endloop
  endfacet
  facet normal 0 0 -1
    outer loop
      vertex 3.4626 -3.2516 -3
      vertex 3.84283 2.79198 -3
      vertex 3.84283 -2.79198 -3
    endloop
  endfacet
  facet normal 0 0 -1
    outer loop
      vertex 3.4626 -3.2516 -3
      vertex 3.4626 3.2516 -3
      vertex 3.84283 2.79198 -3
    endloop
  endfacet
  facet normal 0 0 -1
    outer loop
      vertex 3.02776 -3.65994 -3
      vertex 3.4626 3.2516 -3
      vertex 3.4626 -3.2516 -3
    endloop
  endfacet
  facet normal 0 0 -1
    outer loop
      vertex 3.02776 -3.65994 -3
      vertex 3.02776 3.65994 -3
      vertex 3.4626 3.2516 -3
    endloop
  endfacet
  facet normal 0 0 -1
    outer loop
      vertex 2.54518 -4.01056 -3
      vertex 3.02776 3.65994 -3
      vertex 3.02776 -3.65994 -3
    endloop
  endfacet
  facet normal 0 0 -1
    outer loop
      vertex 2.54518 -4.01056 -3
      vertex 2.54518 4.01056 -3
      vertex 3.02776 3.65994 -3
    endloop
  endfacet
  facet normal 0 0 -1
    outer loop
      vertex 2.02245 -4.29793 -3
      vertex 2.54518 4.01056 -3
      vertex 2.54518 -4.01056 -3
    endloop
  endfacet
  facet normal 0 0 -1
    outer loop
      vertex 2.02245 -4.29793 -3
      vertex 2.02245 4.29793 -3
      vertex 2.54518 4.01056 -3
    endloop
  endfacet
  facet normal 0 0 -1
    outer loop
      vertex 1.46783 -4.51752 -3
      vertex 2.02245 4.29793 -3
      vertex 2.02245 -4.29793 -3
    endloop
  endfacet
  facet normal 0 0 -1
    outer loop
      vertex 1.46783 -4.51752 -3
      vertex 1.46783 4.51752 -3
      vertex 2.02245 4.29793 -3
    endloop
  endfacet
  facet normal 0 0 -1
    outer loop
      vertex 0.89006 -4.66586 -3
      vertex 1.46783 4.51752 -3
      vertex 1.46783 -4.51752 -3
    endloop
  endfacet
  facet normal 0 0 -1
    outer loop
      vertex 0.89006 -4.66586 -3
      vertex 0.89006 4.66586 -3
      vertex 1.46783 4.51752 -3
    endloop
  endfacet
  facet normal 0 0 -1
    outer loop
      vertex 0.298255 -4.74063 -3
      vertex 0.89006 4.66586 -3
      vertex 0.89006 -4.66586 -3
    endloop
  endfacet
  facet normal 0 0 -1
    outer loop
      vertex 0.298255 -4.74063 -3
      vertex 0.298255 4.74063 -3
      vertex 0.89006 4.66586 -3
    endloop
  endfacet
  facet normal 0 0 -1
    outer loop
      vertex -0.298255 -4.74063 -3
      vertex 0.298255 4.74063 -3
      vertex 0.298255 -4.74063 -3
    endloop
  endfacet
  facet normal 0 0 -1
    outer loop
      vertex -0.298255 -4.74063 -3
      vertex -0.298255 4.74063 -3
      vertex 0.298255 4.74063 -3
    endloop
  endfacet
  facet normal 0 0 -1
    outer loop
      vertex -0.89006 -4.66586 -3
      vertex -0.298255 4.74063 -3
      vertex -0.298255 -4.74063 -3
    endloop
  endfacet
  facet normal 0 0 -1
    outer loop
      vertex -0.89006 -4.66586 -3
      vertex -0.89006 4.66586 -3
      vertex -0.298255 4.74063 -3
    endloop
  endfacet
  facet normal 0 0 -1
    outer loop
      vertex -1.46783 -4.51752 -3
      vertex -0.89006 4.66586 -3
      vertex -0.89006 -4.66586 -3
    endloop
  endfacet
  facet normal 0 0 -1
    outer loop
      vertex -1.46783 -4.51752 -3
      vertex -1.46783 4.51752 -3
      vertex -0.89006 4.66586 -3
    endloop
  endfacet
  facet normal 0 0 -1
    outer loop
      vertex -2.02245 -4.29793 -3
      vertex -1.46783 4.51752 -3
      vertex -1.46783 -4.51752 -3
    endloop
  endfacet
  facet normal 0 0 -1
    outer loop
      vertex -2.02245 -4.29793 -3
      vertex -2.02245 4.29793 -3
      vertex -1.46783 4.51752 -3
    endloop
  endfacet
  facet normal 0 0 -1
    outer loop
      vertex -2.54518 -4.01056 -3
      vertex -2.02245 4.29793 -3
      vertex -2.02245 -4.29793 -3
    endloop
  endfacet
  facet normal 0 0 -1
    outer loop
      vertex -2.54518 -4.01056 -3
      vertex -2.54518 4.01056 -3
      vertex -2.02245 4.29793 -3
    endloop
  endfacet
  facet normal 0 0 -1
    outer loop
      vertex -3.02776 -3.65994 -3
      vertex -2.54518 4.01056 -3
      vertex -2.54518 -4.01056 -3
    endloop
  endfacet
  facet normal 0 0 -1
    outer loop
      vertex -3.02776 -3.65994 -3
      vertex -3.02776 3.65994 -3
      vertex -2.54518 4.01056 -3
    endloop
  endfacet
  facet normal 0 0 -1
    outer loop
      vertex -3.4626 -3.2516 -3
      vertex -3.02776 3.65994 -3
      vertex -3.02776 -3.65994 -3
    endloop
  endfacet
  facet normal 0 0 -1
    outer loop
      vertex -3.4626 -3.2516 -3
      vertex -3.4626 3.2516 -3
      vertex -3.02776 3.65994 -3
    endloop
  endfacet
  facet normal 0 0 -1
    outer loop
      vertex -3.84283 -2.79198 -3
      vertex -3.4626 3.2516 -3
      vertex -3.4626 -3.2516 -3
    endloop
  endfacet
  facet normal 0 0 -1
    outer loop
      vertex -3.84283 -2.79198 -3
      vertex -3.84283 2.79198 -3
      vertex -3.4626 3.2516 -3
    endloop
  endfacet
  facet normal 0 0 -1
    outer loop
      vertex -4.16246 -2.28833 -3
      vertex -3.84283 2.79198 -3
      vertex -3.84283 -2.79198 -3
    endloop
  endfacet
  facet normal 0 0 -1
    outer loop
      vertex -4.16246 -2.28833 -3
      vertex -4.16246 2.28833 -3
      vertex -3.84283 2.79198 -3
    endloop
  endfacet
  facet normal 0 0 -1
    outer loop
      vertex -4.41644 -1.74859 -3
      vertex -4.16246 2.28833 -3
      vertex -4.16246 -2.28833 -3
    endloop
  endfacet
  facet normal 0 0 -1
    outer loop
      vertex -4.41644 -1.74859 -3
      vertex -4.41644 1.74859 -3
      vertex -4.16246 2.28833 -3
    endloop
  endfacet
  facet normal 0 0 -1
    outer loop
      vertex -4.60077 -1.18128 -3
      vertex -4.41644 1.74859 -3
      vertex -4.41644 -1.74859 -3
    endloop
  endfacet
  facet normal 0 0 -1
    outer loop
      vertex -4.60077 -1.18128 -3
      vertex -4.60077 1.18128 -3
      vertex -4.41644 1.74859 -3
    endloop
  endfacet
  facet normal 0 0 -1
    outer loop
      vertex -4.71254 -0.595332 -3
      vertex -4.60077 1.18128 -3
      vertex -4.60077 -1.18128 -3
    endloop
  endfacet
  facet normal 0 0 -1
    outer loop
      vertex -4.71254 -0.595332 -3
      vertex -4.71254 0.595332 -3
      vertex -4.60077 1.18128 -3
    endloop
  endfacet
  facet normal 0 -0 -1
    outer loop
      vertex -4.71254 0.595332 -3
      vertex -4.71254 -0.595332 -3
      vertex -4.75 0 -3
    endloop
  endfacet
  facet normal -0.951057 0.309017 0
    outer loop
      vertex -4.60077 1.18128 -3
      vertex -4.41644 1.74859 0
      vertex -4.41644 1.74859 -3
    endloop
  endfacet
  facet normal -0.951057 0.309017 0
    outer loop
      vertex -4.41644 1.74859 0
      vertex -4.60077 1.18128 -3
      vertex -4.60077 1.18128 0
    endloop
  endfacet
  facet normal 0.844325 0.535832 0
    outer loop
      vertex 4.16246 2.28833 0
      vertex 3.84283 2.79198 -3
      vertex 3.84283 2.79198 0
    endloop
  endfacet
  facet normal 0.844325 0.535832 0
    outer loop
      vertex 3.84283 2.79198 -3
      vertex 4.16246 2.28833 0
      vertex 4.16246 2.28833 -3
    endloop
  endfacet
  facet normal 0.24868 0.968586 -0
    outer loop
      vertex 1.46783 4.51752 -3
      vertex 0.89006 4.66586 0
      vertex 1.46783 4.51752 0
    endloop
  endfacet
  facet normal 0.24868 0.968586 0
    outer loop
      vertex 0.89006 4.66586 0
      vertex 1.46783 4.51752 -3
      vertex 0.89006 4.66586 -3
    endloop
  endfacet
  facet normal 0.368125 0.929776 -0
    outer loop
      vertex 2.02245 4.29793 -3
      vertex 1.46783 4.51752 0
      vertex 2.02245 4.29793 0
    endloop
  endfacet
  facet normal 0.368125 0.929776 0
    outer loop
      vertex 1.46783 4.51752 0
      vertex 2.02245 4.29793 -3
      vertex 1.46783 4.51752 -3
    endloop
  endfacet
  facet normal -0.368125 0.929776 0
    outer loop
      vertex -1.46783 4.51752 -3
      vertex -2.02245 4.29793 0
      vertex -1.46783 4.51752 0
    endloop
  endfacet
  facet normal -0.368125 0.929776 0
    outer loop
      vertex -2.02245 4.29793 0
      vertex -1.46783 4.51752 -3
      vertex -2.02245 4.29793 -3
    endloop
  endfacet
  facet normal -0.904829 0.425776 0
    outer loop
      vertex -4.41644 1.74859 -3
      vertex -4.16246 2.28833 0
      vertex -4.16246 2.28833 -3
    endloop
  endfacet
  facet normal -0.904829 0.425776 0
    outer loop
      vertex -4.16246 2.28833 0
      vertex -4.41644 1.74859 -3
      vertex -4.41644 1.74859 0
    endloop
  endfacet
  facet normal 0.982289 -0.187372 0
    outer loop
      vertex 4.60077 -1.18128 0
      vertex 4.71254 -0.595332 -3
      vertex 4.71254 -0.595332 0
    endloop
  endfacet
  facet normal 0.982289 -0.187372 0
    outer loop
      vertex 4.71254 -0.595332 -3
      vertex 4.60077 -1.18128 0
      vertex 4.60077 -1.18128 -3
    endloop
  endfacet
  facet normal 0.982289 0.187372 0
    outer loop
      vertex 4.71254 0.595332 0
      vertex 4.60077 1.18128 -3
      vertex 4.60077 1.18128 0
    endloop
  endfacet
  facet normal 0.982289 0.187372 0
    outer loop
      vertex 4.60077 1.18128 -3
      vertex 4.71254 0.595332 0
      vertex 4.71254 0.595332 -3
    endloop
  endfacet
  facet normal 0 0 1
    outer loop
      vertex 4.71254 0.595332 0
      vertex 4.71254 -0.595332 0
      vertex 4.75 0 0
    endloop
  endfacet
  facet normal 0 0 1
    outer loop
      vertex 4.60077 1.18128 0
      vertex 4.71254 -0.595332 0
      vertex 4.71254 0.595332 0
    endloop
  endfacet
  facet normal 0 0 1
    outer loop
      vertex 4.60077 1.18128 0
      vertex 4.60077 -1.18128 0
      vertex 4.71254 -0.595332 0
    endloop
  endfacet
  facet normal 0 0 1
    outer loop
      vertex 4.41644 1.74859 0
      vertex 4.60077 -1.18128 0
      vertex 4.60077 1.18128 0
    endloop
  endfacet
  facet normal 0 0 1
    outer loop
      vertex 4.41644 1.74859 0
      vertex 4.41644 -1.74859 0
      vertex 4.60077 -1.18128 0
    endloop
  endfacet
  facet normal 0 0 1
    outer loop
      vertex 4.16246 2.28833 0
      vertex 4.41644 -1.74859 0
      vertex 4.41644 1.74859 0
    endloop
  endfacet
  facet normal 0 0 1
    outer loop
      vertex 4.16246 2.28833 0
      vertex 4.16246 -2.28833 0
      vertex 4.41644 -1.74859 0
    endloop
  endfacet
  facet normal 0 0 1
    outer loop
      vertex 3.84283 2.79198 0
      vertex 4.16246 -2.28833 0
      vertex 4.16246 2.28833 0
    endloop
  endfacet
  facet normal 0 0 1
    outer loop
      vertex 3.84283 2.79198 0
      vertex 3.84283 -2.79198 0
      vertex 4.16246 -2.28833 0
    endloop
  endfacet
  facet normal 0 0 1
    outer loop
      vertex 3.4626 3.2516 0
      vertex 3.84283 -2.79198 0
      vertex 3.84283 2.79198 0
    endloop
  endfacet
  facet normal 0 0 1
    outer loop
      vertex 3.4626 3.2516 0
      vertex 3.4626 -3.2516 0
      vertex 3.84283 -2.79198 0
    endloop
  endfacet
  facet normal 0 0 1
    outer loop
      vertex 3.02776 3.65994 0
      vertex 3.4626 -3.2516 0
      vertex 3.4626 3.2516 0
    endloop
  endfacet
  facet normal 0 0 1
    outer loop
      vertex 3.02776 3.65994 0
      vertex 3.02776 -3.65994 0
      vertex 3.4626 -3.2516 0
    endloop
  endfacet
  facet normal 0 0 1
    outer loop
      vertex 2.54518 4.01056 0
      vertex 3.02776 -3.65994 0
      vertex 3.02776 3.65994 0
    endloop
  endfacet
  facet normal 0 0 1
    outer loop
      vertex 2.54518 4.01056 0
      vertex 2.54518 -4.01056 0
      vertex 3.02776 -3.65994 0
    endloop
  endfacet
  facet normal 0 0 1
    outer loop
      vertex 2.02245 4.29793 0
      vertex 2.54518 -4.01056 0
      vertex 2.54518 4.01056 0
    endloop
  endfacet
  facet normal 0 0 1
    outer loop
      vertex 2.02245 4.29793 0
      vertex 2.02245 -4.29793 0
      vertex 2.54518 -4.01056 0
    endloop
  endfacet
  facet normal 0 0 1
    outer loop
      vertex 1.46783 4.51752 0
      vertex 2.02245 -4.29793 0
      vertex 2.02245 4.29793 0
    endloop
  endfacet
  facet normal 0 0 1
    outer loop
      vertex 1.46783 4.51752 0
      vertex 1.46783 -4.51752 0
      vertex 2.02245 -4.29793 0
    endloop
  endfacet
  facet normal 0 0 1
    outer loop
      vertex 0.89006 4.66586 0
      vertex 1.46783 -4.51752 0
      vertex 1.46783 4.51752 0
    endloop
  endfacet
  facet normal 0 0 1
    outer loop
      vertex 0.89006 4.66586 0
      vertex 0.89006 -4.66586 0
      vertex 1.46783 -4.51752 0
    endloop
  endfacet
  facet normal 0 0 1
    outer loop
      vertex 0.298255 4.74063 0
      vertex 0.89006 -4.66586 0
      vertex 0.89006 4.66586 0
    endloop
  endfacet
  facet normal 0 0 1
    outer loop
      vertex 0.298255 4.74063 0
      vertex 0.298255 -4.74063 0
      vertex 0.89006 -4.66586 0
    endloop
  endfacet
  facet normal -0 0 1
    outer loop
      vertex -0.298255 4.74063 0
      vertex 0.298255 -4.74063 0
      vertex 0.298255 4.74063 0
    endloop
  endfacet
  facet normal 0 0 1
    outer loop
      vertex -0.298255 4.74063 0
      vertex -0.298255 -4.74063 0
      vertex 0.298255 -4.74063 0
    endloop
  endfacet
  facet normal -0 0 1
    outer loop
      vertex -0.89006 4.66586 0
      vertex -0.298255 -4.74063 0
      vertex -0.298255 4.74063 0
    endloop
  endfacet
  facet normal 0 0 1
    outer loop
      vertex -0.89006 4.66586 0
      vertex -0.89006 -4.66586 0
      vertex -0.298255 -4.74063 0
    endloop
  endfacet
  facet normal -0 0 1
    outer loop
      vertex -1.46783 4.51752 0
      vertex -0.89006 -4.66586 0
      vertex -0.89006 4.66586 0
    endloop
  endfacet
  facet normal 0 0 1
    outer loop
      vertex -1.46783 4.51752 0
      vertex -1.46783 -4.51752 0
      vertex -0.89006 -4.66586 0
    endloop
  endfacet
  facet normal -0 0 1
    outer loop
      vertex -2.02245 4.29793 0
      vertex -1.46783 -4.51752 0
      vertex -1.46783 4.51752 0
    endloop
  endfacet
  facet normal 0 0 1
    outer loop
      vertex -2.02245 4.29793 0
      vertex -2.02245 -4.29793 0
      vertex -1.46783 -4.51752 0
    endloop
  endfacet
  facet normal -0 0 1
    outer loop
      vertex -2.54518 4.01056 0
      vertex -2.02245 -4.29793 0
      vertex -2.02245 4.29793 0
    endloop
  endfacet
  facet normal 0 0 1
    outer loop
      vertex -2.54518 4.01056 0
      vertex -2.54518 -4.01056 0
      vertex -2.02245 -4.29793 0
    endloop
  endfacet
  facet normal -0 0 1
    outer loop
      vertex -3.02776 3.65994 0
      vertex -2.54518 -4.01056 0
      vertex -2.54518 4.01056 0
    endloop
  endfacet
  facet normal 0 0 1
    outer loop
      vertex -3.02776 3.65994 0
      vertex -3.02776 -3.65994 0
      vertex -2.54518 -4.01056 0
    endloop
  endfacet
  facet normal -0 0 1
    outer loop
      vertex -3.4626 3.2516 0
      vertex -3.02776 -3.65994 0
      vertex -3.02776 3.65994 0
    endloop
  endfacet
  facet normal 0 0 1
    outer loop
      vertex -3.4626 3.2516 0
      vertex -3.4626 -3.2516 0
      vertex -3.02776 -3.65994 0
    endloop
  endfacet
  facet normal -0 0 1
    outer loop
      vertex -3.84283 2.79198 0
      vertex -3.4626 -3.2516 0
      vertex -3.4626 3.2516 0
    endloop
  endfacet
  facet normal 0 0 1
    outer loop
      vertex -3.84283 2.79198 0
      vertex -3.84283 -2.79198 0
      vertex -3.4626 -3.2516 0
    endloop
  endfacet
  facet normal -0 0 1
    outer loop
      vertex -4.16246 2.28833 0
      vertex -3.84283 -2.79198 0
      vertex -3.84283 2.79198 0
    endloop
  endfacet
  facet normal 0 0 1
    outer loop
      vertex -4.16246 2.28833 0
      vertex -4.16246 -2.28833 0
      vertex -3.84283 -2.79198 0
    endloop
  endfacet
  facet normal -0 0 1
    outer loop
      vertex -4.41644 1.74859 0
      vertex -4.16246 -2.28833 0
      vertex -4.16246 2.28833 0
    endloop
  endfacet
  facet normal 0 0 1
    outer loop
      vertex -4.41644 1.74859 0
      vertex -4.41644 -1.74859 0
      vertex -4.16246 -2.28833 0
    endloop
  endfacet
  facet normal -0 0 1
    outer loop
      vertex -4.60077 1.18128 0
      vertex -4.41644 -1.74859 0
      vertex -4.41644 1.74859 0
    endloop
  endfacet
  facet normal 0 0 1
    outer loop
      vertex -4.60077 1.18128 0
      vertex -4.60077 -1.18128 0
      vertex -4.41644 -1.74859 0
    endloop
  endfacet
  facet normal -0 0 1
    outer loop
      vertex -4.71254 0.595332 0
      vertex -4.60077 -1.18128 0
      vertex -4.60077 1.18128 0
    endloop
  endfacet
  facet normal 0 0 1
    outer loop
      vertex -4.71254 0.595332 0
      vertex -4.71254 -0.595332 0
      vertex -4.60077 -1.18128 0
    endloop
  endfacet
  facet normal 0 -0 1
    outer loop
      vertex -4.71254 -0.595332 0
      vertex -4.71254 0.595332 0
      vertex -4.75 0 0
    endloop
  endfacet
  facet normal 0.904829 0.425776 0
    outer loop
      vertex 4.41644 1.74859 0
      vertex 4.16246 2.28833 -3
      vertex 4.16246 2.28833 0
    endloop
  endfacet
  facet normal 0.904829 0.425776 0
    outer loop
      vertex 4.16246 2.28833 -3
      vertex 4.41644 1.74859 0
      vertex 4.41644 1.74859 -3
    endloop
  endfacet
  facet normal 0.125346 0.992113 -0
    outer loop
      vertex 0.89006 4.66586 -3
      vertex 0.298255 4.74063 0
      vertex 0.89006 4.66586 0
    endloop
  endfacet
  facet normal 0.125346 0.992113 0
    outer loop
      vertex 0.298255 4.74063 0
      vertex 0.89006 4.66586 -3
      vertex 0.298255 4.74063 -3
    endloop
  endfacet
  facet normal 0.481749 0.876309 -0
    outer loop
      vertex 2.54518 4.01056 -3
      vertex 2.02245 4.29793 0
      vertex 2.54518 4.01056 0
    endloop
  endfacet
  facet normal 0.481749 0.876309 0
    outer loop
      vertex 2.02245 4.29793 0
      vertex 2.54518 4.01056 -3
      vertex 2.02245 4.29793 -3
    endloop
  endfacet
  facet normal -0.982289 0.187372 0
    outer loop
      vertex -4.71254 0.595332 -3
      vertex -4.60077 1.18128 0
      vertex -4.60077 1.18128 -3
    endloop
  endfacet
  facet normal -0.982289 0.187372 0
    outer loop
      vertex -4.60077 1.18128 0
      vertex -4.71254 0.595332 -3
      vertex -4.71254 0.595332 0
    endloop
  endfacet
  facet normal -0.770514 0.637423 0
    outer loop
      vertex -3.84283 2.79198 -3
      vertex -3.4626 3.2516 0
      vertex -3.4626 3.2516 -3
    endloop
  endfacet
  facet normal -0.770514 0.637423 0
    outer loop
      vertex -3.4626 3.2516 0
      vertex -3.84283 2.79198 -3
      vertex -3.84283 2.79198 0
    endloop
  endfacet
  facet normal -0.24868 0.968586 0
    outer loop
      vertex -0.89006 4.66586 -3
      vertex -1.46783 4.51752 0
      vertex -0.89006 4.66586 0
    endloop
  endfacet
  facet normal -0.24868 0.968586 0
    outer loop
      vertex -1.46783 4.51752 0
      vertex -0.89006 4.66586 -3
      vertex -1.46783 4.51752 -3
    endloop
  endfacet
  facet normal -0.684545 0.72897 0
    outer loop
      vertex -3.02776 3.65994 -3
      vertex -3.4626 3.2516 0
      vertex -3.02776 3.65994 0
    endloop
  endfacet
  facet normal -0.684545 0.72897 0
    outer loop
      vertex -3.4626 3.2516 0
      vertex -3.02776 3.65994 -3
      vertex -3.4626 3.2516 -3
    endloop
  endfacet
  facet normal 0.481749 -0.876309 0
    outer loop
      vertex 2.02245 -4.29793 -3
      vertex 2.54518 -4.01056 0
      vertex 2.02245 -4.29793 0
    endloop
  endfacet
  facet normal 0.481749 -0.876309 0
    outer loop
      vertex 2.54518 -4.01056 0
      vertex 2.02245 -4.29793 -3
      vertex 2.54518 -4.01056 -3
    endloop
  endfacet
  facet normal -0.684545 -0.72897 0
    outer loop
      vertex -3.4626 -3.2516 -3
      vertex -3.02776 -3.65994 0
      vertex -3.4626 -3.2516 0
    endloop
  endfacet
  facet normal -0.684545 -0.72897 -0
    outer loop
      vertex -3.02776 -3.65994 0
      vertex -3.4626 -3.2516 -3
      vertex -3.02776 -3.65994 -3
    endloop
  endfacet
  facet normal -0.951057 -0.309017 0
    outer loop
      vertex -4.41644 -1.74859 -3
      vertex -4.60077 -1.18128 0
      vertex -4.60077 -1.18128 -3
    endloop
  endfacet
  facet normal -0.951057 -0.309017 0
    outer loop
      vertex -4.60077 -1.18128 0
      vertex -4.41644 -1.74859 -3
      vertex -4.41644 -1.74859 0
    endloop
  endfacet
  facet normal 0.125346 -0.992113 0
    outer loop
      vertex 0.298255 -4.74063 -3
      vertex 0.89006 -4.66586 0
      vertex 0.298255 -4.74063 0
    endloop
  endfacet
  facet normal 0.125346 -0.992113 0
    outer loop
      vertex 0.89006 -4.66586 0
      vertex 0.298255 -4.74063 -3
      vertex 0.89006 -4.66586 -3
    endloop
  endfacet
  facet normal 0.951057 0.309017 0
    outer loop
      vertex 4.60077 1.18128 0
      vertex 4.41644 1.74859 -3
      vertex 4.41644 1.74859 0
    endloop
  endfacet
  facet normal 0.951057 0.309017 0
    outer loop
      vertex 4.41644 1.74859 -3
      vertex 4.60077 1.18128 0
      vertex 4.60077 1.18128 -3
    endloop
  endfacet
  facet normal 0.684545 0.72897 -0
    outer loop
      vertex 3.4626 3.2516 -3
      vertex 3.02776 3.65994 0
      vertex 3.4626 3.2516 0
    endloop
  endfacet
  facet normal 0.684545 0.72897 0
    outer loop
      vertex 3.02776 3.65994 0
      vertex 3.4626 3.2516 -3
      vertex 3.02776 3.65994 -3
    endloop
  endfacet
  facet normal 0.770514 0.637423 0
    outer loop
      vertex 3.84283 2.79198 0
      vertex 3.4626 3.2516 -3
      vertex 3.4626 3.2516 0
    endloop
  endfacet
  facet normal 0.770514 0.637423 0
    outer loop
      vertex 3.4626 3.2516 -3
      vertex 3.84283 2.79198 0
      vertex 3.84283 2.79198 -3
    endloop
  endfacet
  facet normal 0 1 -0
    outer loop
      vertex 0.298255 4.74063 -3
      vertex -0.298255 4.74063 0
      vertex 0.298255 4.74063 0
    endloop
  endfacet
  facet normal 0 1 0
    outer loop
      vertex -0.298255 4.74063 0
      vertex 0.298255 4.74063 -3
      vertex -0.298255 4.74063 -3
    endloop
  endfacet
  facet normal -0.998026 0.0627987 0
    outer loop
      vertex -4.75 0 -3
      vertex -4.71254 0.595332 0
      vertex -4.71254 0.595332 -3
    endloop
  endfacet
  facet normal -0.998026 0.0627987 0
    outer loop
      vertex -4.71254 0.595332 0
      vertex -4.75 0 -3
      vertex -4.75 0 0
    endloop
  endfacet
  facet normal -0.125346 0.992113 0
    outer loop
      vertex -0.298255 4.74063 -3
      vertex -0.89006 4.66586 0
      vertex -0.298255 4.74063 0
    endloop
  endfacet
  facet normal -0.125346 0.992113 0
    outer loop
      vertex -0.89006 4.66586 0
      vertex -0.298255 4.74063 -3
      vertex -0.89006 4.66586 -3
    endloop
  endfacet
  facet normal -0.481749 0.876309 0
    outer loop
      vertex -2.02245 4.29793 -3
      vertex -2.54518 4.01056 0
      vertex -2.02245 4.29793 0
    endloop
  endfacet
  facet normal -0.481749 0.876309 0
    outer loop
      vertex -2.54518 4.01056 0
      vertex -2.02245 4.29793 -3
      vertex -2.54518 4.01056 -3
    endloop
  endfacet
  facet normal 0.998026 -0.0627987 0
    outer loop
      vertex 4.71254 -0.595332 0
      vertex 4.75 0 -3
      vertex 4.75 0 0
    endloop
  endfacet
  facet normal 0.998026 -0.0627987 0
    outer loop
      vertex 4.75 0 -3
      vertex 4.71254 -0.595332 0
      vertex 4.71254 -0.595332 -3
    endloop
  endfacet
  facet normal 0.951057 -0.309017 0
    outer loop
      vertex 4.41644 -1.74859 0
      vertex 4.60077 -1.18128 -3
      vertex 4.60077 -1.18128 0
    endloop
  endfacet
  facet normal 0.951057 -0.309017 0
    outer loop
      vertex 4.60077 -1.18128 -3
      vertex 4.41644 -1.74859 0
      vertex 4.41644 -1.74859 -3
    endloop
  endfacet
  facet normal -0.982289 -0.187372 0
    outer loop
      vertex -4.60077 -1.18128 -3
      vertex -4.71254 -0.595332 0
      vertex -4.71254 -0.595332 -3
    endloop
  endfacet
  facet normal -0.982289 -0.187372 0
    outer loop
      vertex -4.71254 -0.595332 0
      vertex -4.60077 -1.18128 -3
      vertex -4.60077 -1.18128 0
    endloop
  endfacet
  facet normal -0.904829 -0.425776 0
    outer loop
      vertex -4.16246 -2.28833 -3
      vertex -4.41644 -1.74859 0
      vertex -4.41644 -1.74859 -3
    endloop
  endfacet
  facet normal -0.904829 -0.425776 0
    outer loop
      vertex -4.41644 -1.74859 0
      vertex -4.16246 -2.28833 -3
      vertex -4.16246 -2.28833 0
    endloop
  endfacet
  facet normal 0 -1 0
    outer loop
      vertex -0.298255 -4.74063 -3
      vertex 0.298255 -4.74063 0
      vertex -0.298255 -4.74063 0
    endloop
  endfacet
  facet normal 0 -1 -0
    outer loop
      vertex 0.298255 -4.74063 0
      vertex -0.298255 -4.74063 -3
      vertex 0.298255 -4.74063 -3
    endloop
  endfacet
  facet normal 0.587791 0.809013 -0
    outer loop
      vertex 3.02776 3.65994 -3
      vertex 2.54518 4.01056 0
      vertex 3.02776 3.65994 0
    endloop
  endfacet
  facet normal 0.587791 0.809013 0
    outer loop
      vertex 2.54518 4.01056 0
      vertex 3.02776 3.65994 -3
      vertex 2.54518 4.01056 -3
    endloop
  endfacet
  facet normal -0.844325 0.535832 0
    outer loop
      vertex -4.16246 2.28833 -3
      vertex -3.84283 2.79198 0
      vertex -3.84283 2.79198 -3
    endloop
  endfacet
  facet normal -0.844325 0.535832 0
    outer loop
      vertex -3.84283 2.79198 0
      vertex -4.16246 2.28833 -3
      vertex -4.16246 2.28833 0
    endloop
  endfacet
  facet normal -0.587791 0.809013 0
    outer loop
      vertex -2.54518 4.01056 -3
      vertex -3.02776 3.65994 0
      vertex -2.54518 4.01056 0
    endloop
  endfacet
  facet normal -0.587791 0.809013 0
    outer loop
      vertex -3.02776 3.65994 0
      vertex -2.54518 4.01056 -3
      vertex -3.02776 3.65994 -3
    endloop
  endfacet
  facet normal 0.770514 -0.637423 0
    outer loop
      vertex 3.4626 -3.2516 0
      vertex 3.84283 -2.79198 -3
      vertex 3.84283 -2.79198 0
    endloop
  endfacet
  facet normal 0.770514 -0.637423 0
    outer loop
      vertex 3.84283 -2.79198 -3
      vertex 3.4626 -3.2516 0
      vertex 3.4626 -3.2516 -3
    endloop
  endfacet
  facet normal 0.904829 -0.425776 0
    outer loop
      vertex 4.16246 -2.28833 0
      vertex 4.41644 -1.74859 -3
      vertex 4.41644 -1.74859 0
    endloop
  endfacet
  facet normal 0.904829 -0.425776 0
    outer loop
      vertex 4.41644 -1.74859 -3
      vertex 4.16246 -2.28833 0
      vertex 4.16246 -2.28833 -3
    endloop
  endfacet
  facet normal -0.24868 -0.968586 0
    outer loop
      vertex -1.46783 -4.51752 -3
      vertex -0.89006 -4.66586 0
      vertex -1.46783 -4.51752 0
    endloop
  endfacet
  facet normal -0.24868 -0.968586 -0
    outer loop
      vertex -0.89006 -4.66586 0
      vertex -1.46783 -4.51752 -3
      vertex -0.89006 -4.66586 -3
    endloop
  endfacet
  facet normal -0.998026 -0.0627987 0
    outer loop
      vertex -4.71254 -0.595332 -3
      vertex -4.75 0 0
      vertex -4.75 0 -3
    endloop
  endfacet
  facet normal -0.998026 -0.0627987 0
    outer loop
      vertex -4.75 0 0
      vertex -4.71254 -0.595332 -3
      vertex -4.71254 -0.595332 0
    endloop
  endfacet
  facet normal -0.770514 -0.637423 0
    outer loop
      vertex -3.4626 -3.2516 -3
      vertex -3.84283 -2.79198 0
      vertex -3.84283 -2.79198 -3
    endloop
  endfacet
  facet normal -0.770514 -0.637423 0
    outer loop
      vertex -3.84283 -2.79198 0
      vertex -3.4626 -3.2516 -3
      vertex -3.4626 -3.2516 0
    endloop
  endfacet
  facet normal 0.24868 -0.968586 0
    outer loop
      vertex 0.89006 -4.66586 -3
      vertex 1.46783 -4.51752 0
      vertex 0.89006 -4.66586 0
    endloop
  endfacet
  facet normal 0.24868 -0.968586 0
    outer loop
      vertex 1.46783 -4.51752 0
      vertex 0.89006 -4.66586 -3
      vertex 1.46783 -4.51752 -3
    endloop
  endfacet
  facet normal 0.368125 -0.929776 0
    outer loop
      vertex 1.46783 -4.51752 -3
      vertex 2.02245 -4.29793 0
      vertex 1.46783 -4.51752 0
    endloop
  endfacet
  facet normal 0.368125 -0.929776 0
    outer loop
      vertex 2.02245 -4.29793 0
      vertex 1.46783 -4.51752 -3
      vertex 2.02245 -4.29793 -3
    endloop
  endfacet
  facet normal 0.684545 -0.72897 0
    outer loop
      vertex 3.02776 -3.65994 -3
      vertex 3.4626 -3.2516 0
      vertex 3.02776 -3.65994 0
    endloop
  endfacet
  facet normal 0.684545 -0.72897 0
    outer loop
      vertex 3.4626 -3.2516 0
      vertex 3.02776 -3.65994 -3
      vertex 3.4626 -3.2516 -3
    endloop
  endfacet
  facet normal 0.587791 -0.809013 0
    outer loop
      vertex 2.54518 -4.01056 -3
      vertex 3.02776 -3.65994 0
      vertex 2.54518 -4.01056 0
    endloop
  endfacet
  facet normal 0.587791 -0.809013 0
    outer loop
      vertex 3.02776 -3.65994 0
      vertex 2.54518 -4.01056 -3
      vertex 3.02776 -3.65994 -3
    endloop
  endfacet
  facet normal 0.844325 -0.535832 0
    outer loop
      vertex 3.84283 -2.79198 0
      vertex 4.16246 -2.28833 -3
      vertex 4.16246 -2.28833 0
    endloop
  endfacet
  facet normal 0.844325 -0.535832 0
    outer loop
      vertex 4.16246 -2.28833 -3
      vertex 3.84283 -2.79198 0
      vertex 3.84283 -2.79198 -3
    endloop
  endfacet
  facet normal -0.368125 -0.929776 0
    outer loop
      vertex -2.02245 -4.29793 -3
      vertex -1.46783 -4.51752 0
      vertex -2.02245 -4.29793 0
    endloop
  endfacet
  facet normal -0.368125 -0.929776 -0
    outer loop
      vertex -1.46783 -4.51752 0
      vertex -2.02245 -4.29793 -3
      vertex -1.46783 -4.51752 -3
    endloop
  endfacet
  facet normal -0.481749 -0.876309 0
    outer loop
      vertex -2.54518 -4.01056 -3
      vertex -2.02245 -4.29793 0
      vertex -2.54518 -4.01056 0
    endloop
  endfacet
  facet normal -0.481749 -0.876309 -0
    outer loop
      vertex -2.02245 -4.29793 0
      vertex -2.54518 -4.01056 -3
      vertex -2.02245 -4.29793 -3
    endloop
  endfacet
  facet normal -0.125346 -0.992113 0
    outer loop
      vertex -0.89006 -4.66586 -3
      vertex -0.298255 -4.74063 0
      vertex -0.89006 -4.66586 0
    endloop
  endfacet
  facet normal -0.125346 -0.992113 -0
    outer loop
      vertex -0.298255 -4.74063 0
      vertex -0.89006 -4.66586 -3
      vertex -0.298255 -4.74063 -3
    endloop
  endfacet
  facet normal -0.844325 -0.535832 0
    outer loop
      vertex -3.84283 -2.79198 -3
      vertex -4.16246 -2.28833 0
      vertex -4.16246 -2.28833 -3
    endloop
  endfacet
  facet normal -0.844325 -0.535832 0
    outer loop
      vertex -4.16246 -2.28833 0
      vertex -3.84283 -2.79198 -3
      vertex -3.84283 -2.79198 0
    endloop
  endfacet
  facet normal -0.587791 -0.809013 0
    outer loop
      vertex -3.02776 -3.65994 -3
      vertex -2.54518 -4.01056 0
      vertex -3.02776 -3.65994 0
    endloop
  endfacet
  facet normal -0.587791 -0.809013 -0
    outer loop
      vertex -2.54518 -4.01056 0
      vertex -3.02776 -3.65994 -3
      vertex -2.54518 -4.01056 -3
    endloop
  endfacet
endsolid OpenSCAD_Model
