solid OpenSCAD_Model
  facet normal 0 -1 0
    outer loop
      vertex -2.42339 4.19745 -4
      vertex 2.42339 4.19745 0
      vertex -2.42339 4.19745 0
    endloop
  endfacet
  facet normal 0 -1 -0
    outer loop
      vertex 2.42339 4.19745 0
      vertex -2.42339 4.19745 -4
      vertex 2.42339 4.19745 -4
    endloop
  endfacet
  facet normal 0.866025 -0.5 0
    outer loop
      vertex -4.84679 0 0
      vertex -2.42339 4.19745 -4
      vertex -2.42339 4.19745 0
    endloop
  endfacet
  facet normal 0.866025 -0.5 0
    outer loop
      vertex -2.42339 4.19745 -4
      vertex -4.84679 0 0
      vertex -4.84679 0 -4
    endloop
  endfacet
  facet normal -0.866025 -0.5 0
    outer loop
      vertex 4.84679 0 -4
      vertex 2.42339 4.19745 0
      vertex 2.42339 4.19745 -4
    endloop
  endfacet
  facet normal -0.866025 -0.5 0
    outer loop
      vertex 2.42339 4.19745 0
      vertex 4.84679 0 -4
      vertex 4.84679 0 0
    endloop
  endfacet
  facet normal 0 0 1
    outer loop
      vertex 4.84679 0 0
      vertex 7 0 0
      vertex 6.9448 0.877332 0
    endloop
  endfacet
  facet normal 0 0 1
    outer loop
      vertex 4.84679 0 0
      vertex 6.9448 0.877332 0
      vertex 6.78008 1.74083 0
    endloop
  endfacet
  facet normal 0 0 1
    outer loop
      vertex 7 0 0
      vertex 4.84679 0 0
      vertex 6.9448 -0.877332 0
    endloop
  endfacet
  facet normal 0 0 1
    outer loop
      vertex 4.84679 0 0
      vertex 6.78008 1.74083 0
      vertex 6.50844 2.57687 0
    endloop
  endfacet
  facet normal 0 0 1
    outer loop
      vertex 6.9448 -0.877332 0
      vertex 4.84679 0 0
      vertex 6.78008 -1.74083 0
    endloop
  endfacet
  facet normal 0 0 1
    outer loop
      vertex 4.84679 0 0
      vertex 6.50844 2.57687 0
      vertex 6.13415 3.37228 0
    endloop
  endfacet
  facet normal 0 0 1
    outer loop
      vertex 6.78008 -1.74083 0
      vertex 4.84679 0 0
      vertex 6.50844 -2.57687 0
    endloop
  endfacet
  facet normal 0 0 1
    outer loop
      vertex 2.42339 4.19745 0
      vertex 6.13415 3.37228 0
      vertex 5.66312 4.1145 0
    endloop
  endfacet
  facet normal 0 0 1
    outer loop
      vertex 6.50844 -2.57687 0
      vertex 4.84679 0 0
      vertex 6.13415 -3.37228 0
    endloop
  endfacet
  facet normal -0 0 1
    outer loop
      vertex 2.42339 4.19745 0
      vertex 5.66312 4.1145 0
      vertex 5.10278 4.79183 0
    endloop
  endfacet
  facet normal 0 0 1
    outer loop
      vertex 2.42339 -4.19745 0
      vertex 6.13415 -3.37228 0
      vertex 4.84679 0 0
    endloop
  endfacet
  facet normal 0 0 1
    outer loop
      vertex 6.13415 -3.37228 0
      vertex 2.42339 -4.19745 0
      vertex 5.66312 -4.1145 0
    endloop
  endfacet
  facet normal 0 0 1
    outer loop
      vertex 2.42339 4.19745 0
      vertex 5.10278 4.79183 0
      vertex 4.46197 5.39359 0
    endloop
  endfacet
  facet normal 0 0 1
    outer loop
      vertex 2.42339 4.19745 0
      vertex 4.46197 5.39359 0
      vertex 3.75079 5.91029 0
    endloop
  endfacet
  facet normal 0 0 1
    outer loop
      vertex 2.42339 4.19745 0
      vertex 3.75079 5.91029 0
      vertex 2.98045 6.33379 0
    endloop
  endfacet
  facet normal 0 0 1
    outer loop
      vertex 6.13415 3.37228 0
      vertex 2.42339 4.19745 0
      vertex 4.84679 0 0
    endloop
  endfacet
  facet normal 0 0 1
    outer loop
      vertex 2.16312 6.6574 0
      vertex 2.42339 4.19745 0
      vertex 2.98045 6.33379 0
    endloop
  endfacet
  facet normal 0 0 1
    outer loop
      vertex 1.31167 6.87601 0
      vertex 2.42339 4.19745 0
      vertex 2.16312 6.6574 0
    endloop
  endfacet
  facet normal 0 0 1
    outer loop
      vertex 0.439533 6.98619 0
      vertex 2.42339 4.19745 0
      vertex 1.31167 6.87601 0
    endloop
  endfacet
  facet normal -0 0 1
    outer loop
      vertex -0.439533 6.98619 0
      vertex 2.42339 4.19745 0
      vertex 0.439533 6.98619 0
    endloop
  endfacet
  facet normal 0 0 1
    outer loop
      vertex -2.42339 4.19745 0
      vertex -0.439533 6.98619 0
      vertex -1.31167 6.87601 0
    endloop
  endfacet
  facet normal 0 0 1
    outer loop
      vertex -2.42339 4.19745 0
      vertex -1.31167 6.87601 0
      vertex -2.16312 6.6574 0
    endloop
  endfacet
  facet normal 0 0 1
    outer loop
      vertex -0.439533 6.98619 0
      vertex -2.42339 4.19745 0
      vertex 2.42339 4.19745 0
    endloop
  endfacet
  facet normal -0 0 1
    outer loop
      vertex -2.98045 6.33379 0
      vertex -2.42339 4.19745 0
      vertex -2.16312 6.6574 0
    endloop
  endfacet
  facet normal -0 0 1
    outer loop
      vertex -3.75079 5.91029 0
      vertex -2.42339 4.19745 0
      vertex -2.98045 6.33379 0
    endloop
  endfacet
  facet normal -0 0 1
    outer loop
      vertex -4.46197 5.39359 0
      vertex -2.42339 4.19745 0
      vertex -3.75079 5.91029 0
    endloop
  endfacet
  facet normal -0 0 1
    outer loop
      vertex -5.10278 4.79183 0
      vertex -2.42339 4.19745 0
      vertex -4.46197 5.39359 0
    endloop
  endfacet
  facet normal 0 0 1
    outer loop
      vertex -5.66312 4.1145 0
      vertex -2.42339 4.19745 0
      vertex -5.10278 4.79183 0
    endloop
  endfacet
  facet normal 0 0 1
    outer loop
      vertex 5.66312 -4.1145 0
      vertex 2.42339 -4.19745 0
      vertex 5.10278 -4.79183 0
    endloop
  endfacet
  facet normal 0 0 1
    outer loop
      vertex 5.10278 -4.79183 0
      vertex 2.42339 -4.19745 0
      vertex 4.46197 -5.39359 0
    endloop
  endfacet
  facet normal 0 0 1
    outer loop
      vertex 4.46197 -5.39359 0
      vertex 2.42339 -4.19745 0
      vertex 3.75079 -5.91029 0
    endloop
  endfacet
  facet normal 0 0 1
    outer loop
      vertex 3.75079 -5.91029 0
      vertex 2.42339 -4.19745 0
      vertex 2.98045 -6.33379 0
    endloop
  endfacet
  facet normal 0 0 1
    outer loop
      vertex 2.42339 -4.19745 0
      vertex 2.16312 -6.6574 0
      vertex 2.98045 -6.33379 0
    endloop
  endfacet
  facet normal 0 0 1
    outer loop
      vertex 2.42339 -4.19745 0
      vertex 1.31167 -6.87601 0
      vertex 2.16312 -6.6574 0
    endloop
  endfacet
  facet normal 0 0 1
    outer loop
      vertex 2.42339 -4.19745 0
      vertex 0.439533 -6.98619 0
      vertex 1.31167 -6.87601 0
    endloop
  endfacet
  facet normal 0 0 1
    outer loop
      vertex 2.42339 -4.19745 0
      vertex -0.439533 -6.98619 0
      vertex 0.439533 -6.98619 0
    endloop
  endfacet
  facet normal -0 0 1
    outer loop
      vertex -2.42339 -4.19745 0
      vertex -0.439533 -6.98619 0
      vertex 2.42339 -4.19745 0
    endloop
  endfacet
  facet normal 0 0 1
    outer loop
      vertex -0.439533 -6.98619 0
      vertex -2.42339 -4.19745 0
      vertex -1.31167 -6.87601 0
    endloop
  endfacet
  facet normal 0 0 1
    outer loop
      vertex -1.31167 -6.87601 0
      vertex -2.42339 -4.19745 0
      vertex -2.16312 -6.6574 0
    endloop
  endfacet
  facet normal 0 0 1
    outer loop
      vertex -2.42339 -4.19745 0
      vertex -2.98045 -6.33379 0
      vertex -2.16312 -6.6574 0
    endloop
  endfacet
  facet normal 0 0 1
    outer loop
      vertex -2.42339 -4.19745 0
      vertex -3.75079 -5.91029 0
      vertex -2.98045 -6.33379 0
    endloop
  endfacet
  facet normal 0 0 1
    outer loop
      vertex -2.42339 -4.19745 0
      vertex -4.46197 -5.39359 0
      vertex -3.75079 -5.91029 0
    endloop
  endfacet
  facet normal -0 0 1
    outer loop
      vertex -6.13415 -3.37228 0
      vertex -2.42339 -4.19745 0
      vertex -4.84679 0 0
    endloop
  endfacet
  facet normal 0 0 1
    outer loop
      vertex -2.42339 -4.19745 0
      vertex -5.10278 -4.79183 0
      vertex -4.46197 -5.39359 0
    endloop
  endfacet
  facet normal 0 0 1
    outer loop
      vertex -6.13415 3.37228 0
      vertex -2.42339 4.19745 0
      vertex -5.66312 4.1145 0
    endloop
  endfacet
  facet normal 0 0 1
    outer loop
      vertex -2.42339 4.19745 0
      vertex -6.13415 3.37228 0
      vertex -4.84679 0 0
    endloop
  endfacet
  facet normal 0 0 1
    outer loop
      vertex -2.42339 -4.19745 0
      vertex -5.66312 -4.1145 0
      vertex -5.10278 -4.79183 0
    endloop
  endfacet
  facet normal -0 0 1
    outer loop
      vertex -6.50844 2.57687 0
      vertex -4.84679 0 0
      vertex -6.13415 3.37228 0
    endloop
  endfacet
  facet normal 0 0 1
    outer loop
      vertex -2.42339 -4.19745 0
      vertex -6.13415 -3.37228 0
      vertex -5.66312 -4.1145 0
    endloop
  endfacet
  facet normal -0 0 1
    outer loop
      vertex -6.78008 1.74083 0
      vertex -4.84679 0 0
      vertex -6.50844 2.57687 0
    endloop
  endfacet
  facet normal 0 0 1
    outer loop
      vertex -4.84679 0 0
      vertex -6.50844 -2.57687 0
      vertex -6.13415 -3.37228 0
    endloop
  endfacet
  facet normal -0 0 1
    outer loop
      vertex -6.9448 0.877332 0
      vertex -4.84679 0 0
      vertex -6.78008 1.74083 0
    endloop
  endfacet
  facet normal 0 0 1
    outer loop
      vertex -4.84679 0 0
      vertex -6.78008 -1.74083 0
      vertex -6.50844 -2.57687 0
    endloop
  endfacet
  facet normal 0 0 1
    outer loop
      vertex -7 0 0
      vertex -4.84679 0 0
      vertex -6.9448 0.877332 0
    endloop
  endfacet
  facet normal 0 0 1
    outer loop
      vertex -4.84679 0 0
      vertex -6.9448 -0.877332 0
      vertex -6.78008 -1.74083 0
    endloop
  endfacet
  facet normal 0 0 1
    outer loop
      vertex -4.84679 0 0
      vertex -7 0 0
      vertex -6.9448 -0.877332 0
    endloop
  endfacet
  facet normal -0.866025 0.5 0
    outer loop
      vertex 2.42339 -4.19745 -4
      vertex 4.84679 0 0
      vertex 4.84679 0 -4
    endloop
  endfacet
  facet normal -0.866025 0.5 0
    outer loop
      vertex 4.84679 0 0
      vertex 2.42339 -4.19745 -4
      vertex 2.42339 -4.19745 0
    endloop
  endfacet
  facet normal 0 1 -0
    outer loop
      vertex 2.42339 -4.19745 -4
      vertex -2.42339 -4.19745 0
      vertex 2.42339 -4.19745 0
    endloop
  endfacet
  facet normal 0 1 0
    outer loop
      vertex -2.42339 -4.19745 0
      vertex 2.42339 -4.19745 -4
      vertex -2.42339 -4.19745 -4
    endloop
  endfacet
  facet normal 0 0 1
    outer loop
      vertex 4.84679 0 -4
      vertex 2.72832 0.344666 -4
      vertex 2.75 0 -4
    endloop
  endfacet
  facet normal 0 0 1
    outer loop
      vertex 4.84679 0 -4
      vertex 2.6636 0.683897 -4
      vertex 2.72832 0.344666 -4
    endloop
  endfacet
  facet normal 0 0 1
    outer loop
      vertex 4.84679 0 -4
      vertex 2.55688 1.01234 -4
      vertex 2.6636 0.683897 -4
    endloop
  endfacet
  facet normal -0 0 1
    outer loop
      vertex 2.40984 1.32482 -4
      vertex 4.84679 0 -4
      vertex 2.42339 4.19745 -4
    endloop
  endfacet
  facet normal 0 0 1
    outer loop
      vertex 4.84679 0 -4
      vertex 2.40984 1.32482 -4
      vertex 2.55688 1.01234 -4
    endloop
  endfacet
  facet normal 0 0 1
    outer loop
      vertex 2.42339 4.19745 -4
      vertex 2.2248 1.61641 -4
      vertex 2.40984 1.32482 -4
    endloop
  endfacet
  facet normal 0 0 1
    outer loop
      vertex 2.42339 4.19745 -4
      vertex 2.00466 1.8825 -4
      vertex 2.2248 1.61641 -4
    endloop
  endfacet
  facet normal 0 0 1
    outer loop
      vertex 2.42339 4.19745 -4
      vertex 1.75292 2.11891 -4
      vertex 2.00466 1.8825 -4
    endloop
  endfacet
  facet normal 0 0 1
    outer loop
      vertex 2.42339 4.19745 -4
      vertex 1.47352 2.3219 -4
      vertex 1.75292 2.11891 -4
    endloop
  endfacet
  facet normal 0 0 1
    outer loop
      vertex 2.42339 4.19745 -4
      vertex 1.17089 2.48827 -4
      vertex 1.47352 2.3219 -4
    endloop
  endfacet
  facet normal 0 0 1
    outer loop
      vertex 2.42339 4.19745 -4
      vertex 0.849796 2.61541 -4
      vertex 1.17089 2.48827 -4
    endloop
  endfacet
  facet normal 0 0 1
    outer loop
      vertex 2.42339 4.19745 -4
      vertex 0.515298 2.70129 -4
      vertex 0.849796 2.61541 -4
    endloop
  endfacet
  facet normal 0 0 1
    outer loop
      vertex 2.42339 4.19745 -4
      vertex 0.172673 2.74457 -4
      vertex 0.515298 2.70129 -4
    endloop
  endfacet
  facet normal 0 0 1
    outer loop
      vertex 2.42339 4.19745 -4
      vertex -0.172673 2.74457 -4
      vertex 0.172673 2.74457 -4
    endloop
  endfacet
  facet normal -0 0 1
    outer loop
      vertex -2.42339 4.19745 -4
      vertex -0.172673 2.74457 -4
      vertex 2.42339 4.19745 -4
    endloop
  endfacet
  facet normal 0 0 1
    outer loop
      vertex -0.172673 2.74457 -4
      vertex -2.42339 4.19745 -4
      vertex -0.515298 2.70129 -4
    endloop
  endfacet
  facet normal 0 0 1
    outer loop
      vertex -0.515298 2.70129 -4
      vertex -2.42339 4.19745 -4
      vertex -0.849796 2.61541 -4
    endloop
  endfacet
  facet normal 0 0 1
    outer loop
      vertex -0.849796 2.61541 -4
      vertex -2.42339 4.19745 -4
      vertex -1.17089 2.48827 -4
    endloop
  endfacet
  facet normal 0 0 1
    outer loop
      vertex -2.42339 4.19745 -4
      vertex -1.47352 2.3219 -4
      vertex -1.17089 2.48827 -4
    endloop
  endfacet
  facet normal 0 0 1
    outer loop
      vertex -2.42339 4.19745 -4
      vertex -1.75292 2.11891 -4
      vertex -1.47352 2.3219 -4
    endloop
  endfacet
  facet normal 0 0 1
    outer loop
      vertex -2.42339 4.19745 -4
      vertex -2.00466 1.8825 -4
      vertex -1.75292 2.11891 -4
    endloop
  endfacet
  facet normal 0 0 1
    outer loop
      vertex -2.42339 4.19745 -4
      vertex -2.2248 1.61641 -4
      vertex -2.00466 1.8825 -4
    endloop
  endfacet
  facet normal 0 0 1
    outer loop
      vertex -2.42339 4.19745 -4
      vertex -2.40984 1.32482 -4
      vertex -2.2248 1.61641 -4
    endloop
  endfacet
  facet normal 0 0 1
    outer loop
      vertex -4.84679 0 -4
      vertex -2.40984 1.32482 -4
      vertex -2.42339 4.19745 -4
    endloop
  endfacet
  facet normal 0 0 1
    outer loop
      vertex -2.40984 1.32482 -4
      vertex -4.84679 0 -4
      vertex -2.55688 1.01234 -4
    endloop
  endfacet
  facet normal 0 0 1
    outer loop
      vertex -2.55688 1.01234 -4
      vertex -4.84679 0 -4
      vertex -2.6636 0.683897 -4
    endloop
  endfacet
  facet normal 0 0 1
    outer loop
      vertex -2.72832 0.344666 -4
      vertex -4.84679 0 -4
      vertex -2.75 0 -4
    endloop
  endfacet
  facet normal 0 0 1
    outer loop
      vertex -2.6636 0.683897 -4
      vertex -4.84679 0 -4
      vertex -2.72832 0.344666 -4
    endloop
  endfacet
  facet normal 0 0 1
    outer loop
      vertex 2.72832 -0.344666 -4
      vertex 4.84679 0 -4
      vertex 2.75 0 -4
    endloop
  endfacet
  facet normal 0 0 1
    outer loop
      vertex 2.6636 -0.683897 -4
      vertex 4.84679 0 -4
      vertex 2.72832 -0.344666 -4
    endloop
  endfacet
  facet normal 0 0 1
    outer loop
      vertex 2.55688 -1.01234 -4
      vertex 4.84679 0 -4
      vertex 2.6636 -0.683897 -4
    endloop
  endfacet
  facet normal 0 0 1
    outer loop
      vertex 2.40984 -1.32482 -4
      vertex 4.84679 0 -4
      vertex 2.55688 -1.01234 -4
    endloop
  endfacet
  facet normal 0 0 1
    outer loop
      vertex 4.84679 0 -4
      vertex 2.40984 -1.32482 -4
      vertex 2.42339 -4.19745 -4
    endloop
  endfacet
  facet normal -0 0 1
    outer loop
      vertex 2.2248 -1.61641 -4
      vertex 2.42339 -4.19745 -4
      vertex 2.40984 -1.32482 -4
    endloop
  endfacet
  facet normal -0 0 1
    outer loop
      vertex 2.00466 -1.8825 -4
      vertex 2.42339 -4.19745 -4
      vertex 2.2248 -1.61641 -4
    endloop
  endfacet
  facet normal -0 0 1
    outer loop
      vertex 1.75292 -2.11891 -4
      vertex 2.42339 -4.19745 -4
      vertex 2.00466 -1.8825 -4
    endloop
  endfacet
  facet normal -0 0 1
    outer loop
      vertex 1.47352 -2.3219 -4
      vertex 2.42339 -4.19745 -4
      vertex 1.75292 -2.11891 -4
    endloop
  endfacet
  facet normal -0 0 1
    outer loop
      vertex 1.17089 -2.48827 -4
      vertex 2.42339 -4.19745 -4
      vertex 1.47352 -2.3219 -4
    endloop
  endfacet
  facet normal -0 0 1
    outer loop
      vertex 0.849796 -2.61541 -4
      vertex 2.42339 -4.19745 -4
      vertex 1.17089 -2.48827 -4
    endloop
  endfacet
  facet normal -0 0 1
    outer loop
      vertex 0.515298 -2.70129 -4
      vertex 2.42339 -4.19745 -4
      vertex 0.849796 -2.61541 -4
    endloop
  endfacet
  facet normal -0 0 1
    outer loop
      vertex 0.172673 -2.74457 -4
      vertex 2.42339 -4.19745 -4
      vertex 0.515298 -2.70129 -4
    endloop
  endfacet
  facet normal -0 0 1
    outer loop
      vertex -0.172673 -2.74457 -4
      vertex 2.42339 -4.19745 -4
      vertex 0.172673 -2.74457 -4
    endloop
  endfacet
  facet normal 0 0 1
    outer loop
      vertex -2.42339 -4.19745 -4
      vertex -0.172673 -2.74457 -4
      vertex -0.515298 -2.70129 -4
    endloop
  endfacet
  facet normal 0 0 1
    outer loop
      vertex -2.42339 -4.19745 -4
      vertex -0.515298 -2.70129 -4
      vertex -0.849796 -2.61541 -4
    endloop
  endfacet
  facet normal 0 0 1
    outer loop
      vertex -2.42339 -4.19745 -4
      vertex -0.849796 -2.61541 -4
      vertex -1.17089 -2.48827 -4
    endloop
  endfacet
  facet normal 0 0 1
    outer loop
      vertex -0.172673 -2.74457 -4
      vertex -2.42339 -4.19745 -4
      vertex 2.42339 -4.19745 -4
    endloop
  endfacet
  facet normal 0 0 1
    outer loop
      vertex -1.47352 -2.3219 -4
      vertex -2.42339 -4.19745 -4
      vertex -1.17089 -2.48827 -4
    endloop
  endfacet
  facet normal 0 0 1
    outer loop
      vertex -1.75292 -2.11891 -4
      vertex -2.42339 -4.19745 -4
      vertex -1.47352 -2.3219 -4
    endloop
  endfacet
  facet normal 0 0 1
    outer loop
      vertex -2.00466 -1.8825 -4
      vertex -2.42339 -4.19745 -4
      vertex -1.75292 -2.11891 -4
    endloop
  endfacet
  facet normal 0 0 1
    outer loop
      vertex -2.2248 -1.61641 -4
      vertex -2.42339 -4.19745 -4
      vertex -2.00466 -1.8825 -4
    endloop
  endfacet
  facet normal 0 0 1
    outer loop
      vertex -2.40984 -1.32482 -4
      vertex -2.42339 -4.19745 -4
      vertex -2.2248 -1.61641 -4
    endloop
  endfacet
  facet normal 0 0 1
    outer loop
      vertex -4.84679 0 -4
      vertex -2.40984 -1.32482 -4
      vertex -2.55688 -1.01234 -4
    endloop
  endfacet
  facet normal 0 0 1
    outer loop
      vertex -4.84679 0 -4
      vertex -2.55688 -1.01234 -4
      vertex -2.6636 -0.683897 -4
    endloop
  endfacet
  facet normal 0 0 1
    outer loop
      vertex -4.84679 0 -4
      vertex -2.6636 -0.683897 -4
      vertex -2.72832 -0.344666 -4
    endloop
  endfacet
  facet normal 0 0 1
    outer loop
      vertex -2.40984 -1.32482 -4
      vertex -4.84679 0 -4
      vertex -2.42339 -4.19745 -4
    endloop
  endfacet
  facet normal -0 0 1
    outer loop
      vertex -4.84679 0 -4
      vertex -2.72832 -0.344666 -4
      vertex -2.75 0 -4
    endloop
  endfacet
  facet normal 0.866025 0.5 0
    outer loop
      vertex -2.42339 -4.19745 0
      vertex -4.84679 0 -4
      vertex -4.84679 0 0
    endloop
  endfacet
  facet normal 0.866025 0.5 0
    outer loop
      vertex -4.84679 0 -4
      vertex -2.42339 -4.19745 0
      vertex -2.42339 -4.19745 -4
    endloop
  endfacet
  facet normal -0.998028 -0.0627774 0
    outer loop
      vertex 2.75 0 -28.5
      vertex 2.72832 0.344666 -4
      vertex 2.72832 0.344666 -28.5
    endloop
  endfacet
  facet normal -0.998028 -0.0627774 0
    outer loop
      vertex 2.72832 0.344666 -4
      vertex 2.75 0 -28.5
      vertex 2.75 0 -4
    endloop
  endfacet
  facet normal 0.998028 -0.0627774 0
    outer loop
      vertex -2.75 0 -4
      vertex -2.72832 0.344666 -28.5
      vertex -2.72832 0.344666 -4
    endloop
  endfacet
  facet normal 0.998028 -0.0627774 0
    outer loop
      vertex -2.72832 0.344666 -28.5
      vertex -2.75 0 -4
      vertex -2.75 0 -28.5
    endloop
  endfacet
  facet normal 0 -1 0
    outer loop
      vertex -0.172673 2.74457 -28.5
      vertex 0.172673 2.74457 -4
      vertex -0.172673 2.74457 -4
    endloop
  endfacet
  facet normal 0 -1 -0
    outer loop
      vertex 0.172673 2.74457 -4
      vertex -0.172673 2.74457 -28.5
      vertex 0.172673 2.74457 -28.5
    endloop
  endfacet
  facet normal 0 1 -0
    outer loop
      vertex 0.172673 -2.74457 -28.5
      vertex -0.172673 -2.74457 -4
      vertex 0.172673 -2.74457 -4
    endloop
  endfacet
  facet normal 0 1 0
    outer loop
      vertex -0.172673 -2.74457 -4
      vertex 0.172673 -2.74457 -28.5
      vertex -0.172673 -2.74457 -28.5
    endloop
  endfacet
  facet normal -0.684563 -0.728954 0
    outer loop
      vertex 1.75292 2.11891 -28.5
      vertex 2.00466 1.8825 -4
      vertex 1.75292 2.11891 -4
    endloop
  endfacet
  facet normal -0.684563 -0.728954 -0
    outer loop
      vertex 2.00466 1.8825 -4
      vertex 1.75292 2.11891 -28.5
      vertex 2.00466 1.8825 -28.5
    endloop
  endfacet
  facet normal 0.684563 -0.728954 0
    outer loop
      vertex -2.00466 1.8825 -28.5
      vertex -1.75292 2.11891 -4
      vertex -2.00466 1.8825 -4
    endloop
  endfacet
  facet normal 0.684563 -0.728954 0
    outer loop
      vertex -1.75292 2.11891 -4
      vertex -2.00466 1.8825 -28.5
      vertex -1.75292 2.11891 -28.5
    endloop
  endfacet
  facet normal 0.368149 -0.929767 0
    outer loop
      vertex -1.17089 2.48827 -28.5
      vertex -0.849796 2.61541 -4
      vertex -1.17089 2.48827 -4
    endloop
  endfacet
  facet normal 0.368149 -0.929767 0
    outer loop
      vertex -0.849796 2.61541 -4
      vertex -1.17089 2.48827 -28.5
      vertex -0.849796 2.61541 -28.5
    endloop
  endfacet
  facet normal -0.904829 0.425775 0
    outer loop
      vertex 2.40984 -1.32482 -28.5
      vertex 2.55688 -1.01234 -4
      vertex 2.55688 -1.01234 -28.5
    endloop
  endfacet
  facet normal -0.904829 0.425775 0
    outer loop
      vertex 2.55688 -1.01234 -4
      vertex 2.40984 -1.32482 -28.5
      vertex 2.40984 -1.32482 -4
    endloop
  endfacet
  facet normal -0.904829 -0.425775 0
    outer loop
      vertex 2.55688 1.01234 -28.5
      vertex 2.40984 1.32482 -4
      vertex 2.40984 1.32482 -28.5
    endloop
  endfacet
  facet normal -0.904829 -0.425775 0
    outer loop
      vertex 2.40984 1.32482 -4
      vertex 2.55688 1.01234 -28.5
      vertex 2.55688 1.01234 -4
    endloop
  endfacet
  facet normal -0.368149 -0.929767 0
    outer loop
      vertex 0.849796 2.61541 -28.5
      vertex 1.17089 2.48827 -4
      vertex 0.849796 2.61541 -4
    endloop
  endfacet
  facet normal -0.368149 -0.929767 -0
    outer loop
      vertex 1.17089 2.48827 -4
      vertex 0.849796 2.61541 -28.5
      vertex 1.17089 2.48827 -28.5
    endloop
  endfacet
  facet normal -0.587774 -0.809025 0
    outer loop
      vertex 1.47352 2.3219 -28.5
      vertex 1.75292 2.11891 -4
      vertex 1.47352 2.3219 -4
    endloop
  endfacet
  facet normal -0.587774 -0.809025 -0
    outer loop
      vertex 1.75292 2.11891 -4
      vertex 1.47352 2.3219 -28.5
      vertex 1.75292 2.11891 -28.5
    endloop
  endfacet
  facet normal 0.904829 -0.425775 0
    outer loop
      vertex -2.55688 1.01234 -4
      vertex -2.40984 1.32482 -28.5
      vertex -2.40984 1.32482 -4
    endloop
  endfacet
  facet normal 0.904829 -0.425775 0
    outer loop
      vertex -2.40984 1.32482 -28.5
      vertex -2.55688 1.01234 -4
      vertex -2.55688 1.01234 -28.5
    endloop
  endfacet
  facet normal 0.770497 -0.637443 0
    outer loop
      vertex -2.2248 1.61641 -4
      vertex -2.00466 1.8825 -28.5
      vertex -2.00466 1.8825 -4
    endloop
  endfacet
  facet normal 0.770497 -0.637443 0
    outer loop
      vertex -2.00466 1.8825 -28.5
      vertex -2.2248 1.61641 -4
      vertex -2.2248 1.61641 -28.5
    endloop
  endfacet
  facet normal 0.481749 -0.876309 0
    outer loop
      vertex -1.47352 2.3219 -28.5
      vertex -1.17089 2.48827 -4
      vertex -1.47352 2.3219 -4
    endloop
  endfacet
  facet normal 0.481749 -0.876309 0
    outer loop
      vertex -1.17089 2.48827 -4
      vertex -1.47352 2.3219 -28.5
      vertex -1.17089 2.48827 -28.5
    endloop
  endfacet
  facet normal 0.248678 -0.968586 0
    outer loop
      vertex -0.849796 2.61541 -28.5
      vertex -0.515298 2.70129 -4
      vertex -0.849796 2.61541 -4
    endloop
  endfacet
  facet normal 0.248678 -0.968586 0
    outer loop
      vertex -0.515298 2.70129 -4
      vertex -0.849796 2.61541 -28.5
      vertex -0.515298 2.70129 -28.5
    endloop
  endfacet
  facet normal -0.125323 0.992116 0
    outer loop
      vertex 0.515298 -2.70129 -28.5
      vertex 0.172673 -2.74457 -4
      vertex 0.515298 -2.70129 -4
    endloop
  endfacet
  facet normal -0.125323 0.992116 0
    outer loop
      vertex 0.172673 -2.74457 -4
      vertex 0.515298 -2.70129 -28.5
      vertex 0.172673 -2.74457 -28.5
    endloop
  endfacet
  facet normal -0.368149 0.929767 0
    outer loop
      vertex 1.17089 -2.48827 -28.5
      vertex 0.849796 -2.61541 -4
      vertex 1.17089 -2.48827 -4
    endloop
  endfacet
  facet normal -0.368149 0.929767 0
    outer loop
      vertex 0.849796 -2.61541 -4
      vertex 1.17089 -2.48827 -28.5
      vertex 0.849796 -2.61541 -28.5
    endloop
  endfacet
  facet normal -0.951054 -0.309023 0
    outer loop
      vertex 2.6636 0.683897 -28.5
      vertex 2.55688 1.01234 -4
      vertex 2.55688 1.01234 -28.5
    endloop
  endfacet
  facet normal -0.951054 -0.309023 0
    outer loop
      vertex 2.55688 1.01234 -4
      vertex 2.6636 0.683897 -28.5
      vertex 2.6636 0.683897 -4
    endloop
  endfacet
  facet normal -0.982283 -0.187404 0
    outer loop
      vertex 2.72832 0.344666 -28.5
      vertex 2.6636 0.683897 -4
      vertex 2.6636 0.683897 -28.5
    endloop
  endfacet
  facet normal -0.982283 -0.187404 0
    outer loop
      vertex 2.6636 0.683897 -4
      vertex 2.72832 0.344666 -28.5
      vertex 2.72832 0.344666 -4
    endloop
  endfacet
  facet normal -0.770497 -0.637443 0
    outer loop
      vertex 2.2248 1.61641 -28.5
      vertex 2.00466 1.8825 -4
      vertex 2.00466 1.8825 -28.5
    endloop
  endfacet
  facet normal -0.770497 -0.637443 0
    outer loop
      vertex 2.00466 1.8825 -4
      vertex 2.2248 1.61641 -28.5
      vertex 2.2248 1.61641 -4
    endloop
  endfacet
  facet normal -0.844339 -0.535809 0
    outer loop
      vertex 2.40984 1.32482 -28.5
      vertex 2.2248 1.61641 -4
      vertex 2.2248 1.61641 -28.5
    endloop
  endfacet
  facet normal -0.844339 -0.535809 0
    outer loop
      vertex 2.2248 1.61641 -4
      vertex 2.40984 1.32482 -28.5
      vertex 2.40984 1.32482 -4
    endloop
  endfacet
  facet normal -0.248678 -0.968586 0
    outer loop
      vertex 0.515298 2.70129 -28.5
      vertex 0.849796 2.61541 -4
      vertex 0.515298 2.70129 -4
    endloop
  endfacet
  facet normal -0.248678 -0.968586 -0
    outer loop
      vertex 0.849796 2.61541 -4
      vertex 0.515298 2.70129 -28.5
      vertex 0.849796 2.61541 -28.5
    endloop
  endfacet
  facet normal -0.125323 -0.992116 0
    outer loop
      vertex 0.172673 2.74457 -28.5
      vertex 0.515298 2.70129 -4
      vertex 0.172673 2.74457 -4
    endloop
  endfacet
  facet normal -0.125323 -0.992116 -0
    outer loop
      vertex 0.515298 2.70129 -4
      vertex 0.172673 2.74457 -28.5
      vertex 0.515298 2.70129 -28.5
    endloop
  endfacet
  facet normal -0.481749 -0.876309 0
    outer loop
      vertex 1.17089 2.48827 -28.5
      vertex 1.47352 2.3219 -4
      vertex 1.17089 2.48827 -4
    endloop
  endfacet
  facet normal -0.481749 -0.876309 -0
    outer loop
      vertex 1.47352 2.3219 -4
      vertex 1.17089 2.48827 -28.5
      vertex 1.47352 2.3219 -28.5
    endloop
  endfacet
  facet normal 0.844339 -0.535809 0
    outer loop
      vertex -2.40984 1.32482 -4
      vertex -2.2248 1.61641 -28.5
      vertex -2.2248 1.61641 -4
    endloop
  endfacet
  facet normal 0.844339 -0.535809 0
    outer loop
      vertex -2.2248 1.61641 -28.5
      vertex -2.40984 1.32482 -4
      vertex -2.40984 1.32482 -28.5
    endloop
  endfacet
  facet normal 0.951054 -0.309023 0
    outer loop
      vertex -2.6636 0.683897 -4
      vertex -2.55688 1.01234 -28.5
      vertex -2.55688 1.01234 -4
    endloop
  endfacet
  facet normal 0.951054 -0.309023 0
    outer loop
      vertex -2.55688 1.01234 -28.5
      vertex -2.6636 0.683897 -4
      vertex -2.6636 0.683897 -28.5
    endloop
  endfacet
  facet normal 0.982283 -0.187404 0
    outer loop
      vertex -2.72832 0.344666 -4
      vertex -2.6636 0.683897 -28.5
      vertex -2.6636 0.683897 -4
    endloop
  endfacet
  facet normal 0.982283 -0.187404 0
    outer loop
      vertex -2.6636 0.683897 -28.5
      vertex -2.72832 0.344666 -4
      vertex -2.72832 0.344666 -28.5
    endloop
  endfacet
  facet normal 0.587774 -0.809025 0
    outer loop
      vertex -1.75292 2.11891 -28.5
      vertex -1.47352 2.3219 -4
      vertex -1.75292 2.11891 -4
    endloop
  endfacet
  facet normal 0.587774 -0.809025 0
    outer loop
      vertex -1.47352 2.3219 -4
      vertex -1.75292 2.11891 -28.5
      vertex -1.47352 2.3219 -28.5
    endloop
  endfacet
  facet normal 0.125323 -0.992116 0
    outer loop
      vertex -0.515298 2.70129 -28.5
      vertex -0.172673 2.74457 -4
      vertex -0.515298 2.70129 -4
    endloop
  endfacet
  facet normal 0.125323 -0.992116 0
    outer loop
      vertex -0.172673 2.74457 -4
      vertex -0.515298 2.70129 -28.5
      vertex -0.172673 2.74457 -28.5
    endloop
  endfacet
  facet normal -0.998028 0.0627774 0
    outer loop
      vertex 2.72832 -0.344666 -28.5
      vertex 2.75 0 -4
      vertex 2.75 0 -28.5
    endloop
  endfacet
  facet normal -0.998028 0.0627774 0
    outer loop
      vertex 2.75 0 -4
      vertex 2.72832 -0.344666 -28.5
      vertex 2.72832 -0.344666 -4
    endloop
  endfacet
  facet normal -0.770497 0.637443 0
    outer loop
      vertex 2.00466 -1.8825 -28.5
      vertex 2.2248 -1.61641 -4
      vertex 2.2248 -1.61641 -28.5
    endloop
  endfacet
  facet normal -0.770497 0.637443 0
    outer loop
      vertex 2.2248 -1.61641 -4
      vertex 2.00466 -1.8825 -28.5
      vertex 2.00466 -1.8825 -4
    endloop
  endfacet
  facet normal 0.684563 0.728954 -0
    outer loop
      vertex -1.75292 -2.11891 -28.5
      vertex -2.00466 -1.8825 -4
      vertex -1.75292 -2.11891 -4
    endloop
  endfacet
  facet normal 0.684563 0.728954 0
    outer loop
      vertex -2.00466 -1.8825 -4
      vertex -1.75292 -2.11891 -28.5
      vertex -2.00466 -1.8825 -28.5
    endloop
  endfacet
  facet normal 0.904829 0.425775 0
    outer loop
      vertex -2.40984 -1.32482 -4
      vertex -2.55688 -1.01234 -28.5
      vertex -2.55688 -1.01234 -4
    endloop
  endfacet
  facet normal 0.904829 0.425775 0
    outer loop
      vertex -2.55688 -1.01234 -28.5
      vertex -2.40984 -1.32482 -4
      vertex -2.40984 -1.32482 -28.5
    endloop
  endfacet
  facet normal 0.770497 0.637443 0
    outer loop
      vertex -2.00466 -1.8825 -4
      vertex -2.2248 -1.61641 -28.5
      vertex -2.2248 -1.61641 -4
    endloop
  endfacet
  facet normal 0.770497 0.637443 0
    outer loop
      vertex -2.2248 -1.61641 -28.5
      vertex -2.00466 -1.8825 -4
      vertex -2.00466 -1.8825 -28.5
    endloop
  endfacet
  facet normal -0.481749 0.876309 0
    outer loop
      vertex 1.47352 -2.3219 -28.5
      vertex 1.17089 -2.48827 -4
      vertex 1.47352 -2.3219 -4
    endloop
  endfacet
  facet normal -0.481749 0.876309 0
    outer loop
      vertex 1.17089 -2.48827 -4
      vertex 1.47352 -2.3219 -28.5
      vertex 1.17089 -2.48827 -28.5
    endloop
  endfacet
  facet normal -0.951054 0.309023 0
    outer loop
      vertex 2.55688 -1.01234 -28.5
      vertex 2.6636 -0.683897 -4
      vertex 2.6636 -0.683897 -28.5
    endloop
  endfacet
  facet normal -0.951054 0.309023 0
    outer loop
      vertex 2.6636 -0.683897 -4
      vertex 2.55688 -1.01234 -28.5
      vertex 2.55688 -1.01234 -4
    endloop
  endfacet
  facet normal -0.844339 0.535809 0
    outer loop
      vertex 2.2248 -1.61641 -28.5
      vertex 2.40984 -1.32482 -4
      vertex 2.40984 -1.32482 -28.5
    endloop
  endfacet
  facet normal -0.844339 0.535809 0
    outer loop
      vertex 2.40984 -1.32482 -4
      vertex 2.2248 -1.61641 -28.5
      vertex 2.2248 -1.61641 -4
    endloop
  endfacet
  facet normal 0.982283 0.187404 0
    outer loop
      vertex -2.6636 -0.683897 -4
      vertex -2.72832 -0.344666 -28.5
      vertex -2.72832 -0.344666 -4
    endloop
  endfacet
  facet normal 0.982283 0.187404 0
    outer loop
      vertex -2.72832 -0.344666 -28.5
      vertex -2.6636 -0.683897 -4
      vertex -2.6636 -0.683897 -28.5
    endloop
  endfacet
  facet normal 0.998028 0.0627774 0
    outer loop
      vertex -2.72832 -0.344666 -4
      vertex -2.75 0 -28.5
      vertex -2.75 0 -4
    endloop
  endfacet
  facet normal 0.998028 0.0627774 0
    outer loop
      vertex -2.75 0 -28.5
      vertex -2.72832 -0.344666 -4
      vertex -2.72832 -0.344666 -28.5
    endloop
  endfacet
  facet normal 0.951054 0.309023 0
    outer loop
      vertex -2.55688 -1.01234 -4
      vertex -2.6636 -0.683897 -28.5
      vertex -2.6636 -0.683897 -4
    endloop
  endfacet
  facet normal 0.951054 0.309023 0
    outer loop
      vertex -2.6636 -0.683897 -28.5
      vertex -2.55688 -1.01234 -4
      vertex -2.55688 -1.01234 -28.5
    endloop
  endfacet
  facet normal -0.587774 0.809025 0
    outer loop
      vertex 1.75292 -2.11891 -28.5
      vertex 1.47352 -2.3219 -4
      vertex 1.75292 -2.11891 -4
    endloop
  endfacet
  facet normal -0.587774 0.809025 0
    outer loop
      vertex 1.47352 -2.3219 -4
      vertex 1.75292 -2.11891 -28.5
      vertex 1.47352 -2.3219 -28.5
    endloop
  endfacet
  facet normal -0.248678 0.968586 0
    outer loop
      vertex 0.849796 -2.61541 -28.5
      vertex 0.515298 -2.70129 -4
      vertex 0.849796 -2.61541 -4
    endloop
  endfacet
  facet normal -0.248678 0.968586 0
    outer loop
      vertex 0.515298 -2.70129 -4
      vertex 0.849796 -2.61541 -28.5
      vertex 0.515298 -2.70129 -28.5
    endloop
  endfacet
  facet normal -0.982283 0.187404 0
    outer loop
      vertex 2.6636 -0.683897 -28.5
      vertex 2.72832 -0.344666 -4
      vertex 2.72832 -0.344666 -28.5
    endloop
  endfacet
  facet normal -0.982283 0.187404 0
    outer loop
      vertex 2.72832 -0.344666 -4
      vertex 2.6636 -0.683897 -28.5
      vertex 2.6636 -0.683897 -4
    endloop
  endfacet
  facet normal 0.125323 0.992116 -0
    outer loop
      vertex -0.172673 -2.74457 -28.5
      vertex -0.515298 -2.70129 -4
      vertex -0.172673 -2.74457 -4
    endloop
  endfacet
  facet normal 0.125323 0.992116 0
    outer loop
      vertex -0.515298 -2.70129 -4
      vertex -0.172673 -2.74457 -28.5
      vertex -0.515298 -2.70129 -28.5
    endloop
  endfacet
  facet normal 0.368149 0.929767 -0
    outer loop
      vertex -0.849796 -2.61541 -28.5
      vertex -1.17089 -2.48827 -4
      vertex -0.849796 -2.61541 -4
    endloop
  endfacet
  facet normal 0.368149 0.929767 0
    outer loop
      vertex -1.17089 -2.48827 -4
      vertex -0.849796 -2.61541 -28.5
      vertex -1.17089 -2.48827 -28.5
    endloop
  endfacet
  facet normal 0.248678 0.968586 -0
    outer loop
      vertex -0.515298 -2.70129 -28.5
      vertex -0.849796 -2.61541 -4
      vertex -0.515298 -2.70129 -4
    endloop
  endfacet
  facet normal 0.248678 0.968586 0
    outer loop
      vertex -0.849796 -2.61541 -4
      vertex -0.515298 -2.70129 -28.5
      vertex -0.849796 -2.61541 -28.5
    endloop
  endfacet
  facet normal 0.844339 0.535809 0
    outer loop
      vertex -2.2248 -1.61641 -4
      vertex -2.40984 -1.32482 -28.5
      vertex -2.40984 -1.32482 -4
    endloop
  endfacet
  facet normal 0.844339 0.535809 0
    outer loop
      vertex -2.40984 -1.32482 -28.5
      vertex -2.2248 -1.61641 -4
      vertex -2.2248 -1.61641 -28.5
    endloop
  endfacet
  facet normal -0.684563 0.728954 0
    outer loop
      vertex 2.00466 -1.8825 -28.5
      vertex 1.75292 -2.11891 -4
      vertex 2.00466 -1.8825 -4
    endloop
  endfacet
  facet normal -0.684563 0.728954 0
    outer loop
      vertex 1.75292 -2.11891 -4
      vertex 2.00466 -1.8825 -28.5
      vertex 1.75292 -2.11891 -28.5
    endloop
  endfacet
  facet normal 0.481749 0.876309 -0
    outer loop
      vertex -1.17089 -2.48827 -28.5
      vertex -1.47352 -2.3219 -4
      vertex -1.17089 -2.48827 -4
    endloop
  endfacet
  facet normal 0.481749 0.876309 0
    outer loop
      vertex -1.47352 -2.3219 -4
      vertex -1.17089 -2.48827 -28.5
      vertex -1.47352 -2.3219 -28.5
    endloop
  endfacet
  facet normal 0.587774 0.809025 -0
    outer loop
      vertex -1.47352 -2.3219 -28.5
      vertex -1.75292 -2.11891 -4
      vertex -1.47352 -2.3219 -4
    endloop
  endfacet
  facet normal 0.587774 0.809025 0
    outer loop
      vertex -1.75292 -2.11891 -4
      vertex -1.47352 -2.3219 -28.5
      vertex -1.75292 -2.11891 -28.5
    endloop
  endfacet
  facet normal -0.951058 0.309011 0
    outer loop
      vertex -6.78008 1.74083 -28.5
      vertex -6.50844 2.57687 0
      vertex -6.50844 2.57687 -28.5
    endloop
  endfacet
  facet normal -0.951058 0.309011 0
    outer loop
      vertex -6.50844 2.57687 0
      vertex -6.78008 1.74083 -28.5
      vertex -6.78008 1.74083 0
    endloop
  endfacet
  facet normal 0.844326 0.535829 0
    outer loop
      vertex 6.13415 3.37228 0
      vertex 5.66312 4.1145 -28.5
      vertex 5.66312 4.1145 0
    endloop
  endfacet
  facet normal 0.844326 0.535829 0
    outer loop
      vertex 5.66312 4.1145 -28.5
      vertex 6.13415 3.37228 0
      vertex 6.13415 3.37228 -28.5
    endloop
  endfacet
  facet normal 0.368131 0.929774 -0
    outer loop
      vertex 2.98045 6.33379 -28.5
      vertex 2.16312 6.6574 0
      vertex 2.98045 6.33379 0
    endloop
  endfacet
  facet normal 0.368131 0.929774 0
    outer loop
      vertex 2.16312 6.6574 0
      vertex 2.98045 6.33379 -28.5
      vertex 2.16312 6.6574 -28.5
    endloop
  endfacet
  facet normal -0.368131 0.929774 0
    outer loop
      vertex -2.16312 6.6574 -28.5
      vertex -2.98045 6.33379 0
      vertex -2.16312 6.6574 0
    endloop
  endfacet
  facet normal -0.368131 0.929774 0
    outer loop
      vertex -2.98045 6.33379 0
      vertex -2.16312 6.6574 -28.5
      vertex -2.98045 6.33379 -28.5
    endloop
  endfacet
  facet normal -0.904828 0.425778 0
    outer loop
      vertex -6.50844 2.57687 -28.5
      vertex -6.13415 3.37228 0
      vertex -6.13415 3.37228 -28.5
    endloop
  endfacet
  facet normal -0.904828 0.425778 0
    outer loop
      vertex -6.13415 3.37228 0
      vertex -6.50844 2.57687 -28.5
      vertex -6.50844 2.57687 0
    endloop
  endfacet
  facet normal 0.998027 -0.0627939 0
    outer loop
      vertex 6.9448 -0.877332 0
      vertex 7 0 -28.5
      vertex 7 0 0
    endloop
  endfacet
  facet normal 0.998027 -0.0627939 0
    outer loop
      vertex 7 0 -28.5
      vertex 6.9448 -0.877332 0
      vertex 6.9448 -0.877332 -28.5
    endloop
  endfacet
  facet normal 0.982287 0.18738 0
    outer loop
      vertex 6.9448 0.877332 0
      vertex 6.78008 1.74083 -28.5
      vertex 6.78008 1.74083 0
    endloop
  endfacet
  facet normal 0.982287 0.18738 0
    outer loop
      vertex 6.78008 1.74083 -28.5
      vertex 6.9448 0.877332 0
      vertex 6.9448 0.877332 -28.5
    endloop
  endfacet
  facet normal 0.684547 0.728969 -0
    outer loop
      vertex 5.10278 4.79183 -28.5
      vertex 4.46197 5.39359 0
      vertex 5.10278 4.79183 0
    endloop
  endfacet
  facet normal 0.684547 0.728969 0
    outer loop
      vertex 4.46197 5.39359 0
      vertex 5.10278 4.79183 -28.5
      vertex 4.46197 5.39359 -28.5
    endloop
  endfacet
  facet normal 0 1 -0
    outer loop
      vertex 0.439533 6.98619 -28.5
      vertex -0.439533 6.98619 0
      vertex 0.439533 6.98619 0
    endloop
  endfacet
  facet normal 0 1 0
    outer loop
      vertex -0.439533 6.98619 0
      vertex 0.439533 6.98619 -28.5
      vertex -0.439533 6.98619 -28.5
    endloop
  endfacet
  facet normal 0.481755 0.876306 -0
    outer loop
      vertex 3.75079 5.91029 -28.5
      vertex 2.98045 6.33379 0
      vertex 3.75079 5.91029 0
    endloop
  endfacet
  facet normal 0.481755 0.876306 0
    outer loop
      vertex 2.98045 6.33379 0
      vertex 3.75079 5.91029 -28.5
      vertex 2.98045 6.33379 -28.5
    endloop
  endfacet
  facet normal -0.982287 0.18738 0
    outer loop
      vertex -6.9448 0.877332 -28.5
      vertex -6.78008 1.74083 0
      vertex -6.78008 1.74083 -28.5
    endloop
  endfacet
  facet normal -0.982287 0.18738 0
    outer loop
      vertex -6.78008 1.74083 0
      vertex -6.9448 0.877332 -28.5
      vertex -6.9448 0.877332 0
    endloop
  endfacet
  facet normal -0.770511 0.637427 0
    outer loop
      vertex -5.66312 4.1145 -28.5
      vertex -5.10278 4.79183 0
      vertex -5.10278 4.79183 -28.5
    endloop
  endfacet
  facet normal -0.770511 0.637427 0
    outer loop
      vertex -5.10278 4.79183 0
      vertex -5.66312 4.1145 -28.5
      vertex -5.66312 4.1145 0
    endloop
  endfacet
  facet normal -0.248684 0.968585 0
    outer loop
      vertex -1.31167 6.87601 -28.5
      vertex -2.16312 6.6574 0
      vertex -1.31167 6.87601 0
    endloop
  endfacet
  facet normal -0.248684 0.968585 0
    outer loop
      vertex -2.16312 6.6574 0
      vertex -1.31167 6.87601 -28.5
      vertex -2.16312 6.6574 -28.5
    endloop
  endfacet
  facet normal -0.684547 0.728969 0
    outer loop
      vertex -4.46197 5.39359 -28.5
      vertex -5.10278 4.79183 0
      vertex -4.46197 5.39359 0
    endloop
  endfacet
  facet normal -0.684547 0.728969 0
    outer loop
      vertex -5.10278 4.79183 0
      vertex -4.46197 5.39359 -28.5
      vertex -5.10278 4.79183 -28.5
    endloop
  endfacet
  facet normal 0.904828 -0.425778 0
    outer loop
      vertex 6.13415 -3.37228 0
      vertex 6.50844 -2.57687 -28.5
      vertex 6.50844 -2.57687 0
    endloop
  endfacet
  facet normal 0.904828 -0.425778 0
    outer loop
      vertex 6.50844 -2.57687 -28.5
      vertex 6.13415 -3.37228 0
      vertex 6.13415 -3.37228 -28.5
    endloop
  endfacet
  facet normal -0.684547 -0.728969 0
    outer loop
      vertex -5.10278 -4.79183 -28.5
      vertex -4.46197 -5.39359 0
      vertex -5.10278 -4.79183 0
    endloop
  endfacet
  facet normal -0.684547 -0.728969 -0
    outer loop
      vertex -4.46197 -5.39359 0
      vertex -5.10278 -4.79183 -28.5
      vertex -4.46197 -5.39359 -28.5
    endloop
  endfacet
  facet normal -0.904828 -0.425778 0
    outer loop
      vertex -6.13415 -3.37228 -28.5
      vertex -6.50844 -2.57687 0
      vertex -6.50844 -2.57687 -28.5
    endloop
  endfacet
  facet normal -0.904828 -0.425778 0
    outer loop
      vertex -6.50844 -2.57687 0
      vertex -6.13415 -3.37228 -28.5
      vertex -6.13415 -3.37228 0
    endloop
  endfacet
  facet normal 0.481755 -0.876306 0
    outer loop
      vertex 2.98045 -6.33379 -28.5
      vertex 3.75079 -5.91029 0
      vertex 2.98045 -6.33379 0
    endloop
  endfacet
  facet normal 0.481755 -0.876306 0
    outer loop
      vertex 3.75079 -5.91029 0
      vertex 2.98045 -6.33379 -28.5
      vertex 3.75079 -5.91029 -28.5
    endloop
  endfacet
  facet normal 0.770511 0.637427 0
    outer loop
      vertex 5.66312 4.1145 0
      vertex 5.10278 4.79183 -28.5
      vertex 5.10278 4.79183 0
    endloop
  endfacet
  facet normal 0.770511 0.637427 0
    outer loop
      vertex 5.10278 4.79183 -28.5
      vertex 5.66312 4.1145 0
      vertex 5.66312 4.1145 -28.5
    endloop
  endfacet
  facet normal 0.248684 0.968585 -0
    outer loop
      vertex 2.16312 6.6574 -28.5
      vertex 1.31167 6.87601 0
      vertex 2.16312 6.6574 0
    endloop
  endfacet
  facet normal 0.248684 0.968585 0
    outer loop
      vertex 1.31167 6.87601 0
      vertex 2.16312 6.6574 -28.5
      vertex 1.31167 6.87601 -28.5
    endloop
  endfacet
  facet normal 0.125337 0.992114 -0
    outer loop
      vertex 1.31167 6.87601 -28.5
      vertex 0.439533 6.98619 0
      vertex 1.31167 6.87601 0
    endloop
  endfacet
  facet normal 0.125337 0.992114 0
    outer loop
      vertex 0.439533 6.98619 0
      vertex 1.31167 6.87601 -28.5
      vertex 0.439533 6.98619 -28.5
    endloop
  endfacet
  facet normal 0.587783 0.809018 -0
    outer loop
      vertex 4.46197 5.39359 -28.5
      vertex 3.75079 5.91029 0
      vertex 4.46197 5.39359 0
    endloop
  endfacet
  facet normal 0.587783 0.809018 0
    outer loop
      vertex 3.75079 5.91029 0
      vertex 4.46197 5.39359 -28.5
      vertex 3.75079 5.91029 -28.5
    endloop
  endfacet
  facet normal -0.998027 0.0627939 0
    outer loop
      vertex -7 0 -28.5
      vertex -6.9448 0.877332 0
      vertex -6.9448 0.877332 -28.5
    endloop
  endfacet
  facet normal -0.998027 0.0627939 0
    outer loop
      vertex -6.9448 0.877332 0
      vertex -7 0 -28.5
      vertex -7 0 0
    endloop
  endfacet
  facet normal -0.844326 0.535829 0
    outer loop
      vertex -6.13415 3.37228 -28.5
      vertex -5.66312 4.1145 0
      vertex -5.66312 4.1145 -28.5
    endloop
  endfacet
  facet normal -0.844326 0.535829 0
    outer loop
      vertex -5.66312 4.1145 0
      vertex -6.13415 3.37228 -28.5
      vertex -6.13415 3.37228 0
    endloop
  endfacet
  facet normal -0.125337 0.992114 0
    outer loop
      vertex -0.439533 6.98619 -28.5
      vertex -1.31167 6.87601 0
      vertex -0.439533 6.98619 0
    endloop
  endfacet
  facet normal -0.125337 0.992114 0
    outer loop
      vertex -1.31167 6.87601 0
      vertex -0.439533 6.98619 -28.5
      vertex -1.31167 6.87601 -28.5
    endloop
  endfacet
  facet normal -0.587783 0.809018 0
    outer loop
      vertex -3.75079 5.91029 -28.5
      vertex -4.46197 5.39359 0
      vertex -3.75079 5.91029 0
    endloop
  endfacet
  facet normal -0.587783 0.809018 0
    outer loop
      vertex -4.46197 5.39359 0
      vertex -3.75079 5.91029 -28.5
      vertex -4.46197 5.39359 -28.5
    endloop
  endfacet
  facet normal -0.481755 0.876306 0
    outer loop
      vertex -2.98045 6.33379 -28.5
      vertex -3.75079 5.91029 0
      vertex -2.98045 6.33379 0
    endloop
  endfacet
  facet normal -0.481755 0.876306 0
    outer loop
      vertex -3.75079 5.91029 0
      vertex -2.98045 6.33379 -28.5
      vertex -3.75079 5.91029 -28.5
    endloop
  endfacet
  facet normal 0.998027 0.0627939 0
    outer loop
      vertex 7 0 0
      vertex 6.9448 0.877332 -28.5
      vertex 6.9448 0.877332 0
    endloop
  endfacet
  facet normal 0.998027 0.0627939 0
    outer loop
      vertex 6.9448 0.877332 -28.5
      vertex 7 0 0
      vertex 7 0 -28.5
    endloop
  endfacet
  facet normal 0 -1 0
    outer loop
      vertex -0.439533 -6.98619 -28.5
      vertex 0.439533 -6.98619 0
      vertex -0.439533 -6.98619 0
    endloop
  endfacet
  facet normal 0 -1 -0
    outer loop
      vertex 0.439533 -6.98619 0
      vertex -0.439533 -6.98619 -28.5
      vertex 0.439533 -6.98619 -28.5
    endloop
  endfacet
  facet normal -0.951058 -0.309011 0
    outer loop
      vertex -6.50844 -2.57687 -28.5
      vertex -6.78008 -1.74083 0
      vertex -6.78008 -1.74083 -28.5
    endloop
  endfacet
  facet normal -0.951058 -0.309011 0
    outer loop
      vertex -6.78008 -1.74083 0
      vertex -6.50844 -2.57687 -28.5
      vertex -6.50844 -2.57687 0
    endloop
  endfacet
  facet normal -0.844326 -0.535829 0
    outer loop
      vertex -5.66312 -4.1145 -28.5
      vertex -6.13415 -3.37228 0
      vertex -6.13415 -3.37228 -28.5
    endloop
  endfacet
  facet normal -0.844326 -0.535829 0
    outer loop
      vertex -6.13415 -3.37228 0
      vertex -5.66312 -4.1145 -28.5
      vertex -5.66312 -4.1145 0
    endloop
  endfacet
  facet normal 0.125337 -0.992114 0
    outer loop
      vertex 0.439533 -6.98619 -28.5
      vertex 1.31167 -6.87601 0
      vertex 0.439533 -6.98619 0
    endloop
  endfacet
  facet normal 0.125337 -0.992114 0
    outer loop
      vertex 1.31167 -6.87601 0
      vertex 0.439533 -6.98619 -28.5
      vertex 1.31167 -6.87601 -28.5
    endloop
  endfacet
  facet normal 0.904828 0.425778 0
    outer loop
      vertex 6.50844 2.57687 0
      vertex 6.13415 3.37228 -28.5
      vertex 6.13415 3.37228 0
    endloop
  endfacet
  facet normal 0.904828 0.425778 0
    outer loop
      vertex 6.13415 3.37228 -28.5
      vertex 6.50844 2.57687 0
      vertex 6.50844 2.57687 -28.5
    endloop
  endfacet
  facet normal 0.951058 0.309011 0
    outer loop
      vertex 6.78008 1.74083 0
      vertex 6.50844 2.57687 -28.5
      vertex 6.50844 2.57687 0
    endloop
  endfacet
  facet normal 0.951058 0.309011 0
    outer loop
      vertex 6.50844 2.57687 -28.5
      vertex 6.78008 1.74083 0
      vertex 6.78008 1.74083 -28.5
    endloop
  endfacet
  facet normal 0.982287 -0.18738 0
    outer loop
      vertex 6.78008 -1.74083 0
      vertex 6.9448 -0.877332 -28.5
      vertex 6.9448 -0.877332 0
    endloop
  endfacet
  facet normal 0.982287 -0.18738 0
    outer loop
      vertex 6.9448 -0.877332 -28.5
      vertex 6.78008 -1.74083 0
      vertex 6.78008 -1.74083 -28.5
    endloop
  endfacet
  facet normal -0.481755 -0.876306 0
    outer loop
      vertex -3.75079 -5.91029 -28.5
      vertex -2.98045 -6.33379 0
      vertex -3.75079 -5.91029 0
    endloop
  endfacet
  facet normal -0.481755 -0.876306 -0
    outer loop
      vertex -2.98045 -6.33379 0
      vertex -3.75079 -5.91029 -28.5
      vertex -2.98045 -6.33379 -28.5
    endloop
  endfacet
  facet normal -0.248684 -0.968585 0
    outer loop
      vertex -2.16312 -6.6574 -28.5
      vertex -1.31167 -6.87601 0
      vertex -2.16312 -6.6574 0
    endloop
  endfacet
  facet normal -0.248684 -0.968585 -0
    outer loop
      vertex -1.31167 -6.87601 0
      vertex -2.16312 -6.6574 -28.5
      vertex -1.31167 -6.87601 -28.5
    endloop
  endfacet
  facet normal -0.998027 -0.0627939 0
    outer loop
      vertex -6.9448 -0.877332 -28.5
      vertex -7 0 0
      vertex -7 0 -28.5
    endloop
  endfacet
  facet normal -0.998027 -0.0627939 0
    outer loop
      vertex -7 0 0
      vertex -6.9448 -0.877332 -28.5
      vertex -6.9448 -0.877332 0
    endloop
  endfacet
  facet normal 0 0 -1
    outer loop
      vertex 2.75 0 -28.5
      vertex 7 0 -28.5
      vertex 6.9448 -0.877332 -28.5
    endloop
  endfacet
  facet normal 0 0 -1
    outer loop
      vertex 2.72832 -0.344666 -28.5
      vertex 6.9448 -0.877332 -28.5
      vertex 6.78008 -1.74083 -28.5
    endloop
  endfacet
  facet normal 0 0 -1
    outer loop
      vertex 7 0 -28.5
      vertex 2.75 0 -28.5
      vertex 6.9448 0.877332 -28.5
    endloop
  endfacet
  facet normal 0 0 -1
    outer loop
      vertex 2.6636 -0.683897 -28.5
      vertex 6.78008 -1.74083 -28.5
      vertex 6.50844 -2.57687 -28.5
    endloop
  endfacet
  facet normal 0 0 -1
    outer loop
      vertex 2.72832 0.344666 -28.5
      vertex 6.9448 0.877332 -28.5
      vertex 2.75 0 -28.5
    endloop
  endfacet
  facet normal 0 0 -1
    outer loop
      vertex 2.55688 -1.01234 -28.5
      vertex 6.50844 -2.57687 -28.5
      vertex 6.13415 -3.37228 -28.5
    endloop
  endfacet
  facet normal -0 0 -1
    outer loop
      vertex 6.9448 0.877332 -28.5
      vertex 2.72832 0.344666 -28.5
      vertex 6.78008 1.74083 -28.5
    endloop
  endfacet
  facet normal 0 0 -1
    outer loop
      vertex 2.40984 -1.32482 -28.5
      vertex 6.13415 -3.37228 -28.5
      vertex 5.66312 -4.1145 -28.5
    endloop
  endfacet
  facet normal 0 0 -1
    outer loop
      vertex 2.6636 0.683897 -28.5
      vertex 6.78008 1.74083 -28.5
      vertex 2.72832 0.344666 -28.5
    endloop
  endfacet
  facet normal 0 0 -1
    outer loop
      vertex 2.2248 -1.61641 -28.5
      vertex 5.66312 -4.1145 -28.5
      vertex 5.10278 -4.79183 -28.5
    endloop
  endfacet
  facet normal -0 0 -1
    outer loop
      vertex 6.78008 1.74083 -28.5
      vertex 2.6636 0.683897 -28.5
      vertex 6.50844 2.57687 -28.5
    endloop
  endfacet
  facet normal 0 0 -1
    outer loop
      vertex 2.00466 -1.8825 -28.5
      vertex 5.10278 -4.79183 -28.5
      vertex 4.46197 -5.39359 -28.5
    endloop
  endfacet
  facet normal 0 0 -1
    outer loop
      vertex 2.55688 1.01234 -28.5
      vertex 6.50844 2.57687 -28.5
      vertex 2.6636 0.683897 -28.5
    endloop
  endfacet
  facet normal 0 0 -1
    outer loop
      vertex 1.75292 -2.11891 -28.5
      vertex 4.46197 -5.39359 -28.5
      vertex 3.75079 -5.91029 -28.5
    endloop
  endfacet
  facet normal -0 0 -1
    outer loop
      vertex 6.50844 2.57687 -28.5
      vertex 2.55688 1.01234 -28.5
      vertex 6.13415 3.37228 -28.5
    endloop
  endfacet
  facet normal 0 0 -1
    outer loop
      vertex 1.47352 -2.3219 -28.5
      vertex 3.75079 -5.91029 -28.5
      vertex 2.98045 -6.33379 -28.5
    endloop
  endfacet
  facet normal 0 0 -1
    outer loop
      vertex 2.40984 1.32482 -28.5
      vertex 6.13415 3.37228 -28.5
      vertex 2.55688 1.01234 -28.5
    endloop
  endfacet
  facet normal -0 0 -1
    outer loop
      vertex 6.13415 3.37228 -28.5
      vertex 2.40984 1.32482 -28.5
      vertex 5.66312 4.1145 -28.5
    endloop
  endfacet
  facet normal 0 0 -1
    outer loop
      vertex 6.9448 -0.877332 -28.5
      vertex 2.72832 -0.344666 -28.5
      vertex 2.75 0 -28.5
    endloop
  endfacet
  facet normal 0 0 -1
    outer loop
      vertex 6.78008 -1.74083 -28.5
      vertex 2.6636 -0.683897 -28.5
      vertex 2.72832 -0.344666 -28.5
    endloop
  endfacet
  facet normal 0 0 -1
    outer loop
      vertex 6.50844 -2.57687 -28.5
      vertex 2.55688 -1.01234 -28.5
      vertex 2.6636 -0.683897 -28.5
    endloop
  endfacet
  facet normal 0 0 -1
    outer loop
      vertex 6.13415 -3.37228 -28.5
      vertex 2.40984 -1.32482 -28.5
      vertex 2.55688 -1.01234 -28.5
    endloop
  endfacet
  facet normal 0 0 -1
    outer loop
      vertex 5.66312 -4.1145 -28.5
      vertex 2.2248 -1.61641 -28.5
      vertex 2.40984 -1.32482 -28.5
    endloop
  endfacet
  facet normal 0 0 -1
    outer loop
      vertex 1.17089 -2.48827 -28.5
      vertex 2.98045 -6.33379 -28.5
      vertex 2.16312 -6.6574 -28.5
    endloop
  endfacet
  facet normal 0 0 -1
    outer loop
      vertex 5.10278 -4.79183 -28.5
      vertex 2.00466 -1.8825 -28.5
      vertex 2.2248 -1.61641 -28.5
    endloop
  endfacet
  facet normal 0 0 -1
    outer loop
      vertex 4.46197 -5.39359 -28.5
      vertex 1.75292 -2.11891 -28.5
      vertex 2.00466 -1.8825 -28.5
    endloop
  endfacet
  facet normal 0 0 -1
    outer loop
      vertex 3.75079 -5.91029 -28.5
      vertex 1.47352 -2.3219 -28.5
      vertex 1.75292 -2.11891 -28.5
    endloop
  endfacet
  facet normal 0 0 -1
    outer loop
      vertex 0.849796 -2.61541 -28.5
      vertex 2.16312 -6.6574 -28.5
      vertex 1.31167 -6.87601 -28.5
    endloop
  endfacet
  facet normal 0 0 -1
    outer loop
      vertex 2.98045 -6.33379 -28.5
      vertex 1.17089 -2.48827 -28.5
      vertex 1.47352 -2.3219 -28.5
    endloop
  endfacet
  facet normal 0 0 -1
    outer loop
      vertex 2.16312 -6.6574 -28.5
      vertex 0.849796 -2.61541 -28.5
      vertex 1.17089 -2.48827 -28.5
    endloop
  endfacet
  facet normal 0 0 -1
    outer loop
      vertex 1.31167 -6.87601 -28.5
      vertex 0.515298 -2.70129 -28.5
      vertex 0.849796 -2.61541 -28.5
    endloop
  endfacet
  facet normal 0 0 -1
    outer loop
      vertex 0.439533 -6.98619 -28.5
      vertex 0.515298 -2.70129 -28.5
      vertex 1.31167 -6.87601 -28.5
    endloop
  endfacet
  facet normal 0 0 -1
    outer loop
      vertex 0.439533 -6.98619 -28.5
      vertex 0.172673 -2.74457 -28.5
      vertex 0.515298 -2.70129 -28.5
    endloop
  endfacet
  facet normal 0 0 -1
    outer loop
      vertex 0.439533 -6.98619 -28.5
      vertex -0.172673 -2.74457 -28.5
      vertex 0.172673 -2.74457 -28.5
    endloop
  endfacet
  facet normal 0 0 -1
    outer loop
      vertex -0.439533 -6.98619 -28.5
      vertex -0.172673 -2.74457 -28.5
      vertex 0.439533 -6.98619 -28.5
    endloop
  endfacet
  facet normal 0 0 -1
    outer loop
      vertex -0.439533 -6.98619 -28.5
      vertex -0.515298 -2.70129 -28.5
      vertex -0.172673 -2.74457 -28.5
    endloop
  endfacet
  facet normal 0 0 -1
    outer loop
      vertex -1.31167 -6.87601 -28.5
      vertex -0.515298 -2.70129 -28.5
      vertex -0.439533 -6.98619 -28.5
    endloop
  endfacet
  facet normal -0 0 -1
    outer loop
      vertex -0.515298 -2.70129 -28.5
      vertex -1.31167 -6.87601 -28.5
      vertex -0.849796 -2.61541 -28.5
    endloop
  endfacet
  facet normal 0 0 -1
    outer loop
      vertex -2.16312 -6.6574 -28.5
      vertex -0.849796 -2.61541 -28.5
      vertex -1.31167 -6.87601 -28.5
    endloop
  endfacet
  facet normal -0 0 -1
    outer loop
      vertex -0.849796 -2.61541 -28.5
      vertex -2.16312 -6.6574 -28.5
      vertex -1.17089 -2.48827 -28.5
    endloop
  endfacet
  facet normal 0 0 -1
    outer loop
      vertex -2.98045 -6.33379 -28.5
      vertex -1.17089 -2.48827 -28.5
      vertex -2.16312 -6.6574 -28.5
    endloop
  endfacet
  facet normal -0 0 -1
    outer loop
      vertex -1.17089 -2.48827 -28.5
      vertex -2.98045 -6.33379 -28.5
      vertex -1.47352 -2.3219 -28.5
    endloop
  endfacet
  facet normal 0 0 -1
    outer loop
      vertex -3.75079 -5.91029 -28.5
      vertex -1.47352 -2.3219 -28.5
      vertex -2.98045 -6.33379 -28.5
    endloop
  endfacet
  facet normal -0 0 -1
    outer loop
      vertex -1.47352 -2.3219 -28.5
      vertex -3.75079 -5.91029 -28.5
      vertex -1.75292 -2.11891 -28.5
    endloop
  endfacet
  facet normal 0 0 -1
    outer loop
      vertex -4.46197 -5.39359 -28.5
      vertex -1.75292 -2.11891 -28.5
      vertex -3.75079 -5.91029 -28.5
    endloop
  endfacet
  facet normal -0 0 -1
    outer loop
      vertex -1.75292 -2.11891 -28.5
      vertex -4.46197 -5.39359 -28.5
      vertex -2.00466 -1.8825 -28.5
    endloop
  endfacet
  facet normal 0 0 -1
    outer loop
      vertex -5.10278 -4.79183 -28.5
      vertex -2.00466 -1.8825 -28.5
      vertex -4.46197 -5.39359 -28.5
    endloop
  endfacet
  facet normal -0 0 -1
    outer loop
      vertex -2.00466 -1.8825 -28.5
      vertex -5.10278 -4.79183 -28.5
      vertex -2.2248 -1.61641 -28.5
    endloop
  endfacet
  facet normal -0 0 -1
    outer loop
      vertex -2.2248 -1.61641 -28.5
      vertex -5.66312 -4.1145 -28.5
      vertex -2.40984 -1.32482 -28.5
    endloop
  endfacet
  facet normal 0 0 -1
    outer loop
      vertex -5.66312 -4.1145 -28.5
      vertex -2.2248 -1.61641 -28.5
      vertex -5.10278 -4.79183 -28.5
    endloop
  endfacet
  facet normal 0 0 -1
    outer loop
      vertex 2.2248 1.61641 -28.5
      vertex 5.66312 4.1145 -28.5
      vertex 2.40984 1.32482 -28.5
    endloop
  endfacet
  facet normal -0 0 -1
    outer loop
      vertex 5.66312 4.1145 -28.5
      vertex 2.2248 1.61641 -28.5
      vertex 5.10278 4.79183 -28.5
    endloop
  endfacet
  facet normal 0 0 -1
    outer loop
      vertex 2.00466 1.8825 -28.5
      vertex 5.10278 4.79183 -28.5
      vertex 2.2248 1.61641 -28.5
    endloop
  endfacet
  facet normal -0 0 -1
    outer loop
      vertex 5.10278 4.79183 -28.5
      vertex 2.00466 1.8825 -28.5
      vertex 4.46197 5.39359 -28.5
    endloop
  endfacet
  facet normal 0 0 -1
    outer loop
      vertex 1.75292 2.11891 -28.5
      vertex 4.46197 5.39359 -28.5
      vertex 2.00466 1.8825 -28.5
    endloop
  endfacet
  facet normal -0 0 -1
    outer loop
      vertex 4.46197 5.39359 -28.5
      vertex 1.75292 2.11891 -28.5
      vertex 3.75079 5.91029 -28.5
    endloop
  endfacet
  facet normal 0 0 -1
    outer loop
      vertex 1.47352 2.3219 -28.5
      vertex 3.75079 5.91029 -28.5
      vertex 1.75292 2.11891 -28.5
    endloop
  endfacet
  facet normal -0 0 -1
    outer loop
      vertex 3.75079 5.91029 -28.5
      vertex 1.47352 2.3219 -28.5
      vertex 2.98045 6.33379 -28.5
    endloop
  endfacet
  facet normal 0 0 -1
    outer loop
      vertex 1.17089 2.48827 -28.5
      vertex 2.98045 6.33379 -28.5
      vertex 1.47352 2.3219 -28.5
    endloop
  endfacet
  facet normal -0 0 -1
    outer loop
      vertex 2.98045 6.33379 -28.5
      vertex 1.17089 2.48827 -28.5
      vertex 2.16312 6.6574 -28.5
    endloop
  endfacet
  facet normal 0 0 -1
    outer loop
      vertex 0.849796 2.61541 -28.5
      vertex 2.16312 6.6574 -28.5
      vertex 1.17089 2.48827 -28.5
    endloop
  endfacet
  facet normal -0 0 -1
    outer loop
      vertex 2.16312 6.6574 -28.5
      vertex 0.849796 2.61541 -28.5
      vertex 1.31167 6.87601 -28.5
    endloop
  endfacet
  facet normal 0 0 -1
    outer loop
      vertex 0.515298 2.70129 -28.5
      vertex 1.31167 6.87601 -28.5
      vertex 0.849796 2.61541 -28.5
    endloop
  endfacet
  facet normal 0 0 -1
    outer loop
      vertex 0.515298 2.70129 -28.5
      vertex 0.439533 6.98619 -28.5
      vertex 1.31167 6.87601 -28.5
    endloop
  endfacet
  facet normal 0 0 -1
    outer loop
      vertex 0.172673 2.74457 -28.5
      vertex 0.439533 6.98619 -28.5
      vertex 0.515298 2.70129 -28.5
    endloop
  endfacet
  facet normal 0 0 -1
    outer loop
      vertex -0.172673 2.74457 -28.5
      vertex 0.439533 6.98619 -28.5
      vertex 0.172673 2.74457 -28.5
    endloop
  endfacet
  facet normal 0 0 -1
    outer loop
      vertex -0.172673 2.74457 -28.5
      vertex -0.439533 6.98619 -28.5
      vertex 0.439533 6.98619 -28.5
    endloop
  endfacet
  facet normal 0 0 -1
    outer loop
      vertex -0.515298 2.70129 -28.5
      vertex -0.439533 6.98619 -28.5
      vertex -0.172673 2.74457 -28.5
    endloop
  endfacet
  facet normal 0 0 -1
    outer loop
      vertex -1.31167 6.87601 -28.5
      vertex -0.515298 2.70129 -28.5
      vertex -0.849796 2.61541 -28.5
    endloop
  endfacet
  facet normal 0 0 -1
    outer loop
      vertex -2.16312 6.6574 -28.5
      vertex -0.849796 2.61541 -28.5
      vertex -1.17089 2.48827 -28.5
    endloop
  endfacet
  facet normal 0 0 -1
    outer loop
      vertex -0.515298 2.70129 -28.5
      vertex -1.31167 6.87601 -28.5
      vertex -0.439533 6.98619 -28.5
    endloop
  endfacet
  facet normal 0 0 -1
    outer loop
      vertex -2.98045 6.33379 -28.5
      vertex -1.17089 2.48827 -28.5
      vertex -1.47352 2.3219 -28.5
    endloop
  endfacet
  facet normal 0 0 -1
    outer loop
      vertex -3.75079 5.91029 -28.5
      vertex -1.47352 2.3219 -28.5
      vertex -1.75292 2.11891 -28.5
    endloop
  endfacet
  facet normal 0 0 -1
    outer loop
      vertex -4.46197 5.39359 -28.5
      vertex -1.75292 2.11891 -28.5
      vertex -2.00466 1.8825 -28.5
    endloop
  endfacet
  facet normal 0 0 -1
    outer loop
      vertex -0.849796 2.61541 -28.5
      vertex -2.16312 6.6574 -28.5
      vertex -1.31167 6.87601 -28.5
    endloop
  endfacet
  facet normal 0 0 -1
    outer loop
      vertex -5.10278 4.79183 -28.5
      vertex -2.00466 1.8825 -28.5
      vertex -2.2248 1.61641 -28.5
    endloop
  endfacet
  facet normal 0 0 -1
    outer loop
      vertex -5.66312 4.1145 -28.5
      vertex -2.2248 1.61641 -28.5
      vertex -2.40984 1.32482 -28.5
    endloop
  endfacet
  facet normal 0 0 -1
    outer loop
      vertex -6.13415 3.37228 -28.5
      vertex -2.40984 1.32482 -28.5
      vertex -2.55688 1.01234 -28.5
    endloop
  endfacet
  facet normal 0 0 -1
    outer loop
      vertex -6.50844 2.57687 -28.5
      vertex -2.55688 1.01234 -28.5
      vertex -2.6636 0.683897 -28.5
    endloop
  endfacet
  facet normal 0 0 -1
    outer loop
      vertex -6.78008 1.74083 -28.5
      vertex -2.6636 0.683897 -28.5
      vertex -2.72832 0.344666 -28.5
    endloop
  endfacet
  facet normal 0 0 -1
    outer loop
      vertex -1.17089 2.48827 -28.5
      vertex -2.98045 6.33379 -28.5
      vertex -2.16312 6.6574 -28.5
    endloop
  endfacet
  facet normal 0 0 -1
    outer loop
      vertex -6.9448 0.877332 -28.5
      vertex -2.72832 0.344666 -28.5
      vertex -2.75 0 -28.5
    endloop
  endfacet
  facet normal 0 0 -1
    outer loop
      vertex -6.13415 -3.37228 -28.5
      vertex -2.40984 -1.32482 -28.5
      vertex -5.66312 -4.1145 -28.5
    endloop
  endfacet
  facet normal -0 0 -1
    outer loop
      vertex -2.40984 -1.32482 -28.5
      vertex -6.13415 -3.37228 -28.5
      vertex -2.55688 -1.01234 -28.5
    endloop
  endfacet
  facet normal 0 0 -1
    outer loop
      vertex -1.47352 2.3219 -28.5
      vertex -3.75079 5.91029 -28.5
      vertex -2.98045 6.33379 -28.5
    endloop
  endfacet
  facet normal 0 0 -1
    outer loop
      vertex -6.50844 -2.57687 -28.5
      vertex -2.55688 -1.01234 -28.5
      vertex -6.13415 -3.37228 -28.5
    endloop
  endfacet
  facet normal 0 0 -1
    outer loop
      vertex -1.75292 2.11891 -28.5
      vertex -4.46197 5.39359 -28.5
      vertex -3.75079 5.91029 -28.5
    endloop
  endfacet
  facet normal -0 0 -1
    outer loop
      vertex -2.55688 -1.01234 -28.5
      vertex -6.50844 -2.57687 -28.5
      vertex -2.6636 -0.683897 -28.5
    endloop
  endfacet
  facet normal 0 0 -1
    outer loop
      vertex -2.00466 1.8825 -28.5
      vertex -5.10278 4.79183 -28.5
      vertex -4.46197 5.39359 -28.5
    endloop
  endfacet
  facet normal 0 0 -1
    outer loop
      vertex -6.78008 -1.74083 -28.5
      vertex -2.6636 -0.683897 -28.5
      vertex -6.50844 -2.57687 -28.5
    endloop
  endfacet
  facet normal 0 0 -1
    outer loop
      vertex -2.2248 1.61641 -28.5
      vertex -5.66312 4.1145 -28.5
      vertex -5.10278 4.79183 -28.5
    endloop
  endfacet
  facet normal -0 0 -1
    outer loop
      vertex -2.6636 -0.683897 -28.5
      vertex -6.78008 -1.74083 -28.5
      vertex -2.72832 -0.344666 -28.5
    endloop
  endfacet
  facet normal 0 0 -1
    outer loop
      vertex -2.40984 1.32482 -28.5
      vertex -6.13415 3.37228 -28.5
      vertex -5.66312 4.1145 -28.5
    endloop
  endfacet
  facet normal 0 0 -1
    outer loop
      vertex -6.9448 -0.877332 -28.5
      vertex -2.72832 -0.344666 -28.5
      vertex -6.78008 -1.74083 -28.5
    endloop
  endfacet
  facet normal 0 0 -1
    outer loop
      vertex -2.55688 1.01234 -28.5
      vertex -6.50844 2.57687 -28.5
      vertex -6.13415 3.37228 -28.5
    endloop
  endfacet
  facet normal -0 0 -1
    outer loop
      vertex -2.72832 -0.344666 -28.5
      vertex -6.9448 -0.877332 -28.5
      vertex -2.75 0 -28.5
    endloop
  endfacet
  facet normal 0 0 -1
    outer loop
      vertex -2.6636 0.683897 -28.5
      vertex -6.78008 1.74083 -28.5
      vertex -6.50844 2.57687 -28.5
    endloop
  endfacet
  facet normal 0 0 -1
    outer loop
      vertex -7 0 -28.5
      vertex -2.75 0 -28.5
      vertex -6.9448 -0.877332 -28.5
    endloop
  endfacet
  facet normal 0 0 -1
    outer loop
      vertex -2.72832 0.344666 -28.5
      vertex -6.9448 0.877332 -28.5
      vertex -6.78008 1.74083 -28.5
    endloop
  endfacet
  facet normal 0 0 -1
    outer loop
      vertex -2.75 0 -28.5
      vertex -7 0 -28.5
      vertex -6.9448 0.877332 -28.5
    endloop
  endfacet
  facet normal -0.770511 -0.637427 0
    outer loop
      vertex -5.10278 -4.79183 -28.5
      vertex -5.66312 -4.1145 0
      vertex -5.66312 -4.1145 -28.5
    endloop
  endfacet
  facet normal -0.770511 -0.637427 0
    outer loop
      vertex -5.66312 -4.1145 0
      vertex -5.10278 -4.79183 -28.5
      vertex -5.10278 -4.79183 0
    endloop
  endfacet
  facet normal 0.368131 -0.929774 0
    outer loop
      vertex 2.16312 -6.6574 -28.5
      vertex 2.98045 -6.33379 0
      vertex 2.16312 -6.6574 0
    endloop
  endfacet
  facet normal 0.368131 -0.929774 0
    outer loop
      vertex 2.98045 -6.33379 0
      vertex 2.16312 -6.6574 -28.5
      vertex 2.98045 -6.33379 -28.5
    endloop
  endfacet
  facet normal 0.248684 -0.968585 0
    outer loop
      vertex 1.31167 -6.87601 -28.5
      vertex 2.16312 -6.6574 0
      vertex 1.31167 -6.87601 0
    endloop
  endfacet
  facet normal 0.248684 -0.968585 0
    outer loop
      vertex 2.16312 -6.6574 0
      vertex 1.31167 -6.87601 -28.5
      vertex 2.16312 -6.6574 -28.5
    endloop
  endfacet
  facet normal 0.684547 -0.728969 0
    outer loop
      vertex 4.46197 -5.39359 -28.5
      vertex 5.10278 -4.79183 0
      vertex 4.46197 -5.39359 0
    endloop
  endfacet
  facet normal 0.684547 -0.728969 0
    outer loop
      vertex 5.10278 -4.79183 0
      vertex 4.46197 -5.39359 -28.5
      vertex 5.10278 -4.79183 -28.5
    endloop
  endfacet
  facet normal 0.951058 -0.309011 0
    outer loop
      vertex 6.50844 -2.57687 0
      vertex 6.78008 -1.74083 -28.5
      vertex 6.78008 -1.74083 0
    endloop
  endfacet
  facet normal 0.951058 -0.309011 0
    outer loop
      vertex 6.78008 -1.74083 -28.5
      vertex 6.50844 -2.57687 0
      vertex 6.50844 -2.57687 -28.5
    endloop
  endfacet
  facet normal 0.844326 -0.535829 0
    outer loop
      vertex 5.66312 -4.1145 0
      vertex 6.13415 -3.37228 -28.5
      vertex 6.13415 -3.37228 0
    endloop
  endfacet
  facet normal 0.844326 -0.535829 0
    outer loop
      vertex 6.13415 -3.37228 -28.5
      vertex 5.66312 -4.1145 0
      vertex 5.66312 -4.1145 -28.5
    endloop
  endfacet
  facet normal 0.770511 -0.637427 0
    outer loop
      vertex 5.10278 -4.79183 0
      vertex 5.66312 -4.1145 -28.5
      vertex 5.66312 -4.1145 0
    endloop
  endfacet
  facet normal 0.770511 -0.637427 0
    outer loop
      vertex 5.66312 -4.1145 -28.5
      vertex 5.10278 -4.79183 0
      vertex 5.10278 -4.79183 -28.5
    endloop
  endfacet
  facet normal -0.982287 -0.18738 0
    outer loop
      vertex -6.78008 -1.74083 -28.5
      vertex -6.9448 -0.877332 0
      vertex -6.9448 -0.877332 -28.5
    endloop
  endfacet
  facet normal -0.982287 -0.18738 0
    outer loop
      vertex -6.9448 -0.877332 0
      vertex -6.78008 -1.74083 -28.5
      vertex -6.78008 -1.74083 0
    endloop
  endfacet
  facet normal 0.587783 -0.809018 0
    outer loop
      vertex 3.75079 -5.91029 -28.5
      vertex 4.46197 -5.39359 0
      vertex 3.75079 -5.91029 0
    endloop
  endfacet
  facet normal 0.587783 -0.809018 0
    outer loop
      vertex 4.46197 -5.39359 0
      vertex 3.75079 -5.91029 -28.5
      vertex 4.46197 -5.39359 -28.5
    endloop
  endfacet
  facet normal -0.125337 -0.992114 0
    outer loop
      vertex -1.31167 -6.87601 -28.5
      vertex -0.439533 -6.98619 0
      vertex -1.31167 -6.87601 0
    endloop
  endfacet
  facet normal -0.125337 -0.992114 -0
    outer loop
      vertex -0.439533 -6.98619 0
      vertex -1.31167 -6.87601 -28.5
      vertex -0.439533 -6.98619 -28.5
    endloop
  endfacet
  facet normal -0.587783 -0.809018 0
    outer loop
      vertex -4.46197 -5.39359 -28.5
      vertex -3.75079 -5.91029 0
      vertex -4.46197 -5.39359 0
    endloop
  endfacet
  facet normal -0.587783 -0.809018 -0
    outer loop
      vertex -3.75079 -5.91029 0
      vertex -4.46197 -5.39359 -28.5
      vertex -3.75079 -5.91029 -28.5
    endloop
  endfacet
  facet normal -0.368131 -0.929774 0
    outer loop
      vertex -2.98045 -6.33379 -28.5
      vertex -2.16312 -6.6574 0
      vertex -2.98045 -6.33379 0
    endloop
  endfacet
  facet normal -0.368131 -0.929774 -0
    outer loop
      vertex -2.16312 -6.6574 0
      vertex -2.98045 -6.33379 -28.5
      vertex -2.16312 -6.6574 -28.5
    endloop
  endfacet
endsolid OpenSCAD_Model
