solid OpenSCAD_Model
  facet normal 0.996787 0.0627103 -0.0498393
    outer loop
      vertex 6.175 0 -3
      vertex 6.12631 0.773932 -3
      vertex 6.325 0 0
    endloop
  endfacet
  facet normal 0.683694 -0.728064 -0.0498415
    outer loop
      vertex 4.03171 -4.8735 0
      vertex 3.93609 -4.75792 -3
      vertex 4.50138 -4.22708 -3
    endloop
  endfacet
  facet normal -0.587052 0.808014 -0.0498414
    outer loop
      vertex -3.93609 4.75792 -3
      vertex -4.03171 4.8735 0
      vertex -3.30873 5.21372 -3
    endloop
  endfacet
  facet normal 0.949876 0.308628 -0.0498406
    outer loop
      vertex 6.12629 1.57296 0
      vertex 5.74137 2.27317 -3
      vertex 5.88084 2.32839 0
    endloop
  endfacet
  facet normal 0.903701 -0.425254 -0.0498401
    outer loop
      vertex 5.54264 -3.04709 0
      vertex 5.41119 -2.97483 -3
      vertex 5.74137 -2.27317 -3
    endloop
  endfacet
  facet normal 0.367666 -0.928621 -0.0498372
    outer loop
      vertex 2.69305 -5.72303 0
      vertex 1.95453 -6.01543 0
      vertex 2.62919 -5.58731 -3
    endloop
  endfacet
  facet normal -0.949876 -0.308628 -0.0498406
    outer loop
      vertex -5.88084 -2.32839 0
      vertex -6.12629 -1.57296 0
      vertex -5.74137 -2.27317 -3
    endloop
  endfacet
  facet normal -0.683694 0.728064 -0.0498415
    outer loop
      vertex -3.93609 4.75792 -3
      vertex -4.50138 4.22708 -3
      vertex -4.03171 4.8735 0
    endloop
  endfacet
  facet normal 0.769558 0.636629 -0.0498401
    outer loop
      vertex 4.99568 3.62957 -3
      vertex 4.50138 4.22708 -3
      vertex 4.61073 4.32976 0
    endloop
  endfacet
  facet normal 0.949875 -0.308631 -0.0498398
    outer loop
      vertex 6.12629 -1.57296 0
      vertex 5.74137 -2.27317 -3
      vertex 5.981 -1.53566 -3
    endloop
  endfacet
  facet normal 0.684249 -0.727556 -0.0496452
    outer loop
      vertex 4.50138 -4.22708 -3
      vertex 4.04263 -4.86323 0
      vertex 4.03171 -4.8735 0
    endloop
  endfacet
  facet normal 0.683689 -0.72807 -0.0498399
    outer loop
      vertex 4.04263 -4.86323 0
      vertex 4.50138 -4.22708 -3
      vertex 4.61073 -4.32976 0
    endloop
  endfacet
  facet normal 0 -0.998757 -0.0498413
    outer loop
      vertex -0.387731 -6.16281 -3
      vertex 0.397149 -6.31252 0
      vertex -0.397149 -6.31252 0
    endloop
  endfacet
  facet normal 0 -0.998757 -0.0498413
    outer loop
      vertex 0.397149 -6.31252 0
      vertex -0.387731 -6.16281 -3
      vertex 0.387731 -6.16281 -3
    endloop
  endfacet
  facet normal 0.248389 -0.967377 -0.0498417
    outer loop
      vertex 1.18519 -6.21297 0
      vertex 1.15708 -6.06562 -3
      vertex 1.95453 -6.01543 0
    endloop
  endfacet
  facet normal -0.683699 -0.72806 -0.0498399
    outer loop
      vertex -4.03171 -4.8735 0
      vertex -4.61073 -4.32976 0
      vertex -4.50138 -4.22708 -3
    endloop
  endfacet
  facet normal -0.683699 0.72806 -0.0498399
    outer loop
      vertex -4.50138 4.22708 -3
      vertex -4.61073 4.32976 0
      vertex -4.03171 4.8735 0
    endloop
  endfacet
  facet normal -0.587047 0.808017 -0.0498388
    outer loop
      vertex -3.30873 5.21372 -3
      vertex -3.83452 5.01676 0
      vertex -3.3891 5.34037 0
    endloop
  endfacet
  facet normal -0.587036 0.808025 -0.0498364
    outer loop
      vertex -3.83452 5.01676 0
      vertex -3.30873 5.21372 -3
      vertex -4.03171 4.8735 0
    endloop
  endfacet
  facet normal -0.248381 0.967379 -0.0498396
    outer loop
      vertex -1.90818 5.87277 -3
      vertex -1.95453 6.01543 0
      vertex -1.15708 6.06562 -3
    endloop
  endfacet
  facet normal -0.949875 0.308631 -0.0498398
    outer loop
      vertex -5.981 1.53566 -3
      vertex -6.12629 1.57296 0
      vertex -5.74137 2.27317 -3
    endloop
  endfacet
  facet normal -0.9037 0.425256 -0.0498405
    outer loop
      vertex -5.74137 2.27317 -3
      vertex -5.88084 2.32839 0
      vertex -5.54264 3.04709 0
    endloop
  endfacet
  facet normal 0.248389 0.967377 -0.0498417
    outer loop
      vertex 1.95453 6.01543 0
      vertex 1.15708 6.06562 -3
      vertex 1.18519 6.21297 0
    endloop
  endfacet
  facet normal 0.481158 0.875216 -0.049837
    outer loop
      vertex 3.3891 5.34037 0
      vertex 2.62919 5.58731 -3
      vertex 2.69305 5.72303 0
    endloop
  endfacet
  facet normal 0.587044 0.80802 -0.0498388
    outer loop
      vertex 4.03171 4.8735 0
      vertex 3.30873 5.21372 -3
      vertex 3.3891 5.34037 0
    endloop
  endfacet
  facet normal 0.843277 0.535163 -0.049839
    outer loop
      vertex 5.54264 3.04709 0
      vertex 4.99568 3.62957 -3
      vertex 5.11703 3.71774 0
    endloop
  endfacet
  facet normal 0.9037 0.425256 -0.0498405
    outer loop
      vertex 5.74137 2.27317 -3
      vertex 5.54264 3.04709 0
      vertex 5.88084 2.32839 0
    endloop
  endfacet
  facet normal 0.996786 0.0627194 -0.049837
    outer loop
      vertex 6.325 0 0
      vertex 6.12631 0.773932 -3
      vertex 6.27512 0.792732 0
    endloop
  endfacet
  facet normal 0.981068 0.187141 -0.049837
    outer loop
      vertex 6.12631 0.773932 -3
      vertex 6.12629 1.57296 0
      vertex 6.27512 0.792732 0
    endloop
  endfacet
  facet normal 0.996787 -0.0627103 -0.0498393
    outer loop
      vertex 6.325 0 0
      vertex 6.12631 -0.773932 -3
      vertex 6.175 0 -3
    endloop
  endfacet
  facet normal 0.981066 -0.187152 -0.0498399
    outer loop
      vertex 6.12629 -1.57296 0
      vertex 5.981 -1.53566 -3
      vertex 6.12631 -0.773932 -3
    endloop
  endfacet
  facet normal 0.9037 -0.425256 -0.0498405
    outer loop
      vertex 5.88084 -2.32839 0
      vertex 5.54264 -3.04709 0
      vertex 5.74137 -2.27317 -3
    endloop
  endfacet
  facet normal 0.949876 -0.308628 -0.0498406
    outer loop
      vertex 5.88084 -2.32839 0
      vertex 5.74137 -2.27317 -3
      vertex 6.12629 -1.57296 0
    endloop
  endfacet
  facet normal 0.76956 -0.636627 -0.0498392
    outer loop
      vertex 5.11703 -3.71774 0
      vertex 4.61073 -4.32976 0
      vertex 4.99568 -3.62957 -3
    endloop
  endfacet
  facet normal 0.769558 -0.636629 -0.0498401
    outer loop
      vertex 4.61073 -4.32976 0
      vertex 4.50138 -4.22708 -3
      vertex 4.99568 -3.62957 -3
    endloop
  endfacet
  facet normal 0.481165 -0.875212 -0.0498389
    outer loop
      vertex 3.3891 -5.34037 0
      vertex 2.62919 -5.58731 -3
      vertex 3.30873 -5.21372 -3
    endloop
  endfacet
  facet normal 0.587044 -0.80802 -0.0498388
    outer loop
      vertex 3.3891 -5.34037 0
      vertex 3.30873 -5.21372 -3
      vertex 4.03171 -4.8735 0
    endloop
  endfacet
  facet normal 0.367658 -0.928625 -0.0498395
    outer loop
      vertex 1.95453 -6.01543 0
      vertex 1.90818 -5.87277 -3
      vertex 2.62919 -5.58731 -3
    endloop
  endfacet
  facet normal -0.996787 -0.0627103 -0.0498393
    outer loop
      vertex -6.12631 -0.773932 -3
      vertex -6.325 0 0
      vertex -6.175 0 -3
    endloop
  endfacet
  facet normal -0.981066 -0.187152 -0.0498399
    outer loop
      vertex -6.12629 -1.57296 0
      vertex -6.12631 -0.773932 -3
      vertex -5.981 -1.53566 -3
    endloop
  endfacet
  facet normal -0.769558 -0.636629 -0.0498401
    outer loop
      vertex -4.61073 -4.32976 0
      vertex -4.99568 -3.62957 -3
      vertex -4.50138 -4.22708 -3
    endloop
  endfacet
  facet normal -0.996787 0.0627103 -0.0498393
    outer loop
      vertex -6.175 0 -3
      vertex -6.325 0 0
      vertex -6.12631 0.773932 -3
    endloop
  endfacet
  facet normal 0 0 -1
    outer loop
      vertex 4.03171 4.8735 0
      vertex 4.04263 6.73955 0
      vertex 4.04263 4.86323 0
    endloop
  endfacet
  facet normal 0 0 -1
    outer loop
      vertex 3.3891 5.34037 0
      vertex 4.04263 6.73955 0
      vertex 4.03171 4.8735 0
    endloop
  endfacet
  facet normal 0 0 -1
    outer loop
      vertex 2.69305 5.72303 0
      vertex 4.04263 6.73955 0
      vertex 3.3891 5.34037 0
    endloop
  endfacet
  facet normal 0 0 -1
    outer loop
      vertex 1.95453 6.01543 0
      vertex 4.04263 6.73955 0
      vertex 2.69305 5.72303 0
    endloop
  endfacet
  facet normal 0 0 -1
    outer loop
      vertex 0.616745 6.73955 0
      vertex 1.95453 6.01543 0
      vertex 1.18519 6.21297 0
    endloop
  endfacet
  facet normal 0 0 -1
    outer loop
      vertex 0.616745 6.73955 0
      vertex 1.18519 6.21297 0
      vertex 0.616745 6.28478 0
    endloop
  endfacet
  facet normal 0 0 -1
    outer loop
      vertex 1.95453 6.01543 0
      vertex 0.616745 6.73955 0
      vertex 4.04263 6.73955 0
    endloop
  endfacet
  facet normal 0 0 1
    outer loop
      vertex 0.397149 6.31252 0
      vertex 0.616745 2.028 0
      vertex 0.616745 6.28478 0
    endloop
  endfacet
  facet normal 0 0 1
    outer loop
      vertex -0.408646 2.028 0
      vertex 0.397149 6.31252 0
      vertex -0.397149 6.31252 0
    endloop
  endfacet
  facet normal 0 0 1
    outer loop
      vertex -0.408646 2.028 0
      vertex -0.397149 6.31252 0
      vertex -0.408646 6.31107 0
    endloop
  endfacet
  facet normal 0 0 1
    outer loop
      vertex 0.397149 6.31252 0
      vertex -0.408646 2.028 0
      vertex 0.616745 2.028 0
    endloop
  endfacet
  facet normal 0 0 -1
    outer loop
      vertex -1.18519 6.21297 0
      vertex -0.408646 6.73955 0
      vertex -0.408646 6.31107 0
    endloop
  endfacet
  facet normal 0 0 -1
    outer loop
      vertex -3.83452 6.73955 0
      vertex -1.18519 6.21297 0
      vertex -1.95453 6.01543 0
    endloop
  endfacet
  facet normal 0 0 -1
    outer loop
      vertex -3.83452 6.73955 0
      vertex -1.95453 6.01543 0
      vertex -2.69305 5.72303 0
    endloop
  endfacet
  facet normal 0 0 -1
    outer loop
      vertex -1.18519 6.21297 0
      vertex -3.83452 6.73955 0
      vertex -0.408646 6.73955 0
    endloop
  endfacet
  facet normal 0 0 -1
    outer loop
      vertex -3.3891 5.34037 0
      vertex -3.83452 6.73955 0
      vertex -2.69305 5.72303 0
    endloop
  endfacet
  facet normal 0 0 -1
    outer loop
      vertex -3.83452 6.73955 0
      vertex -3.3891 5.34037 0
      vertex -3.83452 5.01676 0
    endloop
  endfacet
  facet normal 0 0 1
    outer loop
      vertex 0.616745 -0.901428 0
      vertex 0.397149 -6.31252 0
      vertex 0.616745 -6.28478 0
    endloop
  endfacet
  facet normal -0 0 1
    outer loop
      vertex -0.408646 -0.901428 0
      vertex 0.397149 -6.31252 0
      vertex 0.616745 -0.901428 0
    endloop
  endfacet
  facet normal 0 0 1
    outer loop
      vertex 0.397149 -6.31252 0
      vertex -0.408646 -0.901428 0
      vertex -0.397149 -6.31252 0
    endloop
  endfacet
  facet normal 0 0 1
    outer loop
      vertex -0.397149 -6.31252 0
      vertex -0.408646 -0.901428 0
      vertex -0.408646 -6.31107 0
    endloop
  endfacet
  facet normal 0 0 -1
    outer loop
      vertex -0.408646 -6.435 0
      vertex -1.18519 -6.21297 0
      vertex -0.408646 -6.31107 0
    endloop
  endfacet
  facet normal 0 0 -1
    outer loop
      vertex -3.83452 -6.435 0
      vertex -1.18519 -6.21297 0
      vertex -0.408646 -6.435 0
    endloop
  endfacet
  facet normal -0 0 -1
    outer loop
      vertex -1.18519 -6.21297 0
      vertex -3.83452 -6.435 0
      vertex -1.95453 -6.01543 0
    endloop
  endfacet
  facet normal 0 0 -1
    outer loop
      vertex -3.83452 -6.435 0
      vertex -2.69305 -5.72303 0
      vertex -1.95453 -6.01543 0
    endloop
  endfacet
  facet normal 0 0 -1
    outer loop
      vertex -3.83452 -6.435 0
      vertex -3.3891 -5.34037 0
      vertex -2.69305 -5.72303 0
    endloop
  endfacet
  facet normal -0 0 -1
    outer loop
      vertex -3.3891 -5.34037 0
      vertex -3.83452 -6.435 0
      vertex -3.83452 -5.01676 0
    endloop
  endfacet
  facet normal 0 0 -1
    outer loop
      vertex 4.04263 -6.435 0
      vertex 4.03171 -4.8735 0
      vertex 4.04263 -4.86323 0
    endloop
  endfacet
  facet normal 0 0 -1
    outer loop
      vertex 4.04263 -6.435 0
      vertex 3.3891 -5.34037 0
      vertex 4.03171 -4.8735 0
    endloop
  endfacet
  facet normal 0 0 -1
    outer loop
      vertex 4.04263 -6.435 0
      vertex 2.69305 -5.72303 0
      vertex 3.3891 -5.34037 0
    endloop
  endfacet
  facet normal 0 0 -1
    outer loop
      vertex 4.04263 -6.435 0
      vertex 1.95453 -6.01543 0
      vertex 2.69305 -5.72303 0
    endloop
  endfacet
  facet normal 0 0 -1
    outer loop
      vertex 4.04263 -6.435 0
      vertex 1.18519 -6.21297 0
      vertex 1.95453 -6.01543 0
    endloop
  endfacet
  facet normal 0 0 -1
    outer loop
      vertex 0.616745 -6.435 0
      vertex 1.18519 -6.21297 0
      vertex 4.04263 -6.435 0
    endloop
  endfacet
  facet normal 0 0 -1
    outer loop
      vertex 1.18519 -6.21297 0
      vertex 0.616745 -6.435 0
      vertex 0.616745 -6.28478 0
    endloop
  endfacet
  facet normal 0 0 1
    outer loop
      vertex 6.27512 0.792732 0
      vertex 6.27512 -0.792732 0
      vertex 6.325 0 0
    endloop
  endfacet
  facet normal 0 0 1
    outer loop
      vertex 6.12629 1.57296 0
      vertex 6.27512 -0.792732 0
      vertex 6.27512 0.792732 0
    endloop
  endfacet
  facet normal 0 0 1
    outer loop
      vertex 6.12629 1.57296 0
      vertex 6.12629 -1.57296 0
      vertex 6.27512 -0.792732 0
    endloop
  endfacet
  facet normal 0 0 1
    outer loop
      vertex 5.88084 2.32839 0
      vertex 6.12629 -1.57296 0
      vertex 6.12629 1.57296 0
    endloop
  endfacet
  facet normal 0 0 1
    outer loop
      vertex 5.88084 2.32839 0
      vertex 5.88084 -2.32839 0
      vertex 6.12629 -1.57296 0
    endloop
  endfacet
  facet normal 0 0 1
    outer loop
      vertex 5.54264 3.04709 0
      vertex 5.88084 -2.32839 0
      vertex 5.88084 2.32839 0
    endloop
  endfacet
  facet normal 0 0 1
    outer loop
      vertex 5.54264 3.04709 0
      vertex 5.54264 -3.04709 0
      vertex 5.88084 -2.32839 0
    endloop
  endfacet
  facet normal 0 0 1
    outer loop
      vertex 5.11703 3.71774 0
      vertex 5.54264 -3.04709 0
      vertex 5.54264 3.04709 0
    endloop
  endfacet
  facet normal 0 0 1
    outer loop
      vertex 5.11703 3.71774 0
      vertex 5.11703 -3.71774 0
      vertex 5.54264 -3.04709 0
    endloop
  endfacet
  facet normal 0 0 1
    outer loop
      vertex 4.61073 4.32976 0
      vertex 5.11703 -3.71774 0
      vertex 5.11703 3.71774 0
    endloop
  endfacet
  facet normal 0 0 1
    outer loop
      vertex 4.61073 4.32976 0
      vertex 4.61073 -4.32976 0
      vertex 5.11703 -3.71774 0
    endloop
  endfacet
  facet normal 0 0 1
    outer loop
      vertex 4.04263 4.86323 0
      vertex 4.61073 -4.32976 0
      vertex 4.61073 4.32976 0
    endloop
  endfacet
  facet normal 0 0 1
    outer loop
      vertex 4.61073 -4.32976 0
      vertex 4.04263 4.86323 0
      vertex 4.04263 -4.86323 0
    endloop
  endfacet
  facet normal 0 0 1
    outer loop
      vertex -4.61073 4.32976 0
      vertex -3.83452 5.01676 0
      vertex -4.03171 4.8735 0
    endloop
  endfacet
  facet normal 0 0 1
    outer loop
      vertex -3.83452 5.01676 0
      vertex -4.61073 4.32976 0
      vertex -3.83452 -5.01676 0
    endloop
  endfacet
  facet normal -0 0 1
    outer loop
      vertex -4.61073 -4.32976 0
      vertex -3.83452 -5.01676 0
      vertex -4.61073 4.32976 0
    endloop
  endfacet
  facet normal 0 0 1
    outer loop
      vertex -3.83452 -5.01676 0
      vertex -4.61073 -4.32976 0
      vertex -4.03171 -4.8735 0
    endloop
  endfacet
  facet normal -0 0 1
    outer loop
      vertex -5.11703 3.71774 0
      vertex -4.61073 -4.32976 0
      vertex -4.61073 4.32976 0
    endloop
  endfacet
  facet normal 0 0 1
    outer loop
      vertex -5.11703 3.71774 0
      vertex -5.11703 -3.71774 0
      vertex -4.61073 -4.32976 0
    endloop
  endfacet
  facet normal -0 0 1
    outer loop
      vertex -5.54264 3.04709 0
      vertex -5.11703 -3.71774 0
      vertex -5.11703 3.71774 0
    endloop
  endfacet
  facet normal 0 0 1
    outer loop
      vertex -5.54264 3.04709 0
      vertex -5.54264 -3.04709 0
      vertex -5.11703 -3.71774 0
    endloop
  endfacet
  facet normal -0 0 1
    outer loop
      vertex -5.88084 2.32839 0
      vertex -5.54264 -3.04709 0
      vertex -5.54264 3.04709 0
    endloop
  endfacet
  facet normal 0 0 1
    outer loop
      vertex -5.88084 2.32839 0
      vertex -5.88084 -2.32839 0
      vertex -5.54264 -3.04709 0
    endloop
  endfacet
  facet normal -0 0 1
    outer loop
      vertex -6.12629 1.57296 0
      vertex -5.88084 -2.32839 0
      vertex -5.88084 2.32839 0
    endloop
  endfacet
  facet normal 0 0 1
    outer loop
      vertex -6.12629 1.57296 0
      vertex -6.12629 -1.57296 0
      vertex -5.88084 -2.32839 0
    endloop
  endfacet
  facet normal -0 0 1
    outer loop
      vertex -6.27512 0.792732 0
      vertex -6.12629 -1.57296 0
      vertex -6.12629 1.57296 0
    endloop
  endfacet
  facet normal 0 0 1
    outer loop
      vertex -6.27512 0.792732 0
      vertex -6.27512 -0.792732 0
      vertex -6.12629 -1.57296 0
    endloop
  endfacet
  facet normal 0 -0 1
    outer loop
      vertex -6.27512 -0.792732 0
      vertex -6.27512 0.792732 0
      vertex -6.325 0 0
    endloop
  endfacet
  facet normal -0.769558 0.636629 -0.0498401
    outer loop
      vertex -4.50138 4.22708 -3
      vertex -4.99568 3.62957 -3
      vertex -4.61073 4.32976 0
    endloop
  endfacet
  facet normal 0.125176 0.990882 -0.0498413
    outer loop
      vertex 1.15708 6.06562 -3
      vertex 0.387731 6.16281 -3
      vertex 0.397149 6.31252 0
    endloop
  endfacet
  facet normal -0.981066 0.187152 -0.0498399
    outer loop
      vertex -5.981 1.53566 -3
      vertex -6.12631 0.773932 -3
      vertex -6.12629 1.57296 0
    endloop
  endfacet
  facet normal -0.949876 0.308628 -0.0498406
    outer loop
      vertex -5.74137 2.27317 -3
      vertex -6.12629 1.57296 0
      vertex -5.88084 2.32839 0
    endloop
  endfacet
  facet normal 0.125175 0.990882 -0.0498417
    outer loop
      vertex 1.15708 6.06562 -3
      vertex 0.616745 6.28478 0
      vertex 1.18519 6.21297 0
    endloop
  endfacet
  facet normal 0.125171 0.990882 -0.0498425
    outer loop
      vertex 0.616745 6.28478 0
      vertex 1.15708 6.06562 -3
      vertex 0.397149 6.31252 0
    endloop
  endfacet
  facet normal 0.683689 0.72807 -0.0498399
    outer loop
      vertex 4.50138 4.22708 -3
      vertex 4.04263 4.86323 0
      vertex 4.61073 4.32976 0
    endloop
  endfacet
  facet normal 0.684249 0.727556 -0.0496452
    outer loop
      vertex 4.04263 4.86323 0
      vertex 4.50138 4.22708 -3
      vertex 4.03171 4.8735 0
    endloop
  endfacet
  facet normal 0.367658 0.928625 -0.0498395
    outer loop
      vertex 2.62919 5.58731 -3
      vertex 1.90818 5.87277 -3
      vertex 1.95453 6.01543 0
    endloop
  endfacet
  facet normal 0.367666 0.928621 -0.0498372
    outer loop
      vertex 2.62919 5.58731 -3
      vertex 1.95453 6.01543 0
      vertex 2.69305 5.72303 0
    endloop
  endfacet
  facet normal 0.76956 0.636627 -0.0498392
    outer loop
      vertex 4.99568 3.62957 -3
      vertex 4.61073 4.32976 0
      vertex 5.11703 3.71774 0
    endloop
  endfacet
  facet normal 0.981066 0.187152 -0.0498399
    outer loop
      vertex 6.12631 0.773932 -3
      vertex 5.981 1.53566 -3
      vertex 6.12629 1.57296 0
    endloop
  endfacet
  facet normal 0.996786 -0.0627194 -0.049837
    outer loop
      vertex 6.27512 -0.792732 0
      vertex 6.12631 -0.773932 -3
      vertex 6.325 0 0
    endloop
  endfacet
  facet normal 0.981068 -0.187141 -0.049837
    outer loop
      vertex 6.27512 -0.792732 0
      vertex 6.12629 -1.57296 0
      vertex 6.12631 -0.773932 -3
    endloop
  endfacet
  facet normal 0.843279 -0.53516 -0.0498399
    outer loop
      vertex 5.54264 -3.04709 0
      vertex 4.99568 -3.62957 -3
      vertex 5.41119 -2.97483 -3
    endloop
  endfacet
  facet normal 0.843277 -0.535163 -0.049839
    outer loop
      vertex 5.11703 -3.71774 0
      vertex 4.99568 -3.62957 -3
      vertex 5.54264 -3.04709 0
    endloop
  endfacet
  facet normal 0.587052 -0.808014 -0.0498414
    outer loop
      vertex 4.03171 -4.8735 0
      vertex 3.30873 -5.21372 -3
      vertex 3.93609 -4.75792 -3
    endloop
  endfacet
  facet normal 0.481158 -0.875216 -0.049837
    outer loop
      vertex 2.69305 -5.72303 0
      vertex 2.62919 -5.58731 -3
      vertex 3.3891 -5.34037 0
    endloop
  endfacet
  facet normal 0.125171 -0.990882 -0.0498425
    outer loop
      vertex 1.15708 -6.06562 -3
      vertex 0.616745 -6.28478 0
      vertex 0.397149 -6.31252 0
    endloop
  endfacet
  facet normal 0.125175 -0.990882 -0.0498417
    outer loop
      vertex 0.616745 -6.28478 0
      vertex 1.15708 -6.06562 -3
      vertex 1.18519 -6.21297 0
    endloop
  endfacet
  facet normal 0 0 -1
    outer loop
      vertex 6.12631 -0.773932 -3
      vertex 6.12631 0.773932 -3
      vertex 6.175 0 -3
    endloop
  endfacet
  facet normal 0 0 -1
    outer loop
      vertex 5.981 -1.53566 -3
      vertex 6.12631 0.773932 -3
      vertex 6.12631 -0.773932 -3
    endloop
  endfacet
  facet normal 0 0 -1
    outer loop
      vertex 5.981 -1.53566 -3
      vertex 5.981 1.53566 -3
      vertex 6.12631 0.773932 -3
    endloop
  endfacet
  facet normal 0 0 -1
    outer loop
      vertex 5.74137 -2.27317 -3
      vertex 5.981 1.53566 -3
      vertex 5.981 -1.53566 -3
    endloop
  endfacet
  facet normal 0 0 -1
    outer loop
      vertex 5.74137 -2.27317 -3
      vertex 5.74137 2.27317 -3
      vertex 5.981 1.53566 -3
    endloop
  endfacet
  facet normal 0 0 -1
    outer loop
      vertex 5.41119 -2.97483 -3
      vertex 5.74137 2.27317 -3
      vertex 5.74137 -2.27317 -3
    endloop
  endfacet
  facet normal 0 0 -1
    outer loop
      vertex 5.41119 -2.97483 -3
      vertex 5.41119 2.97483 -3
      vertex 5.74137 2.27317 -3
    endloop
  endfacet
  facet normal 0 0 -1
    outer loop
      vertex 4.99568 -3.62957 -3
      vertex 5.41119 2.97483 -3
      vertex 5.41119 -2.97483 -3
    endloop
  endfacet
  facet normal 0 0 -1
    outer loop
      vertex 4.99568 -3.62957 -3
      vertex 4.99568 3.62957 -3
      vertex 5.41119 2.97483 -3
    endloop
  endfacet
  facet normal 0 0 -1
    outer loop
      vertex 4.50138 -4.22708 -3
      vertex 4.99568 3.62957 -3
      vertex 4.99568 -3.62957 -3
    endloop
  endfacet
  facet normal 0 0 -1
    outer loop
      vertex 4.50138 -4.22708 -3
      vertex 4.50138 4.22708 -3
      vertex 4.99568 3.62957 -3
    endloop
  endfacet
  facet normal 0 0 -1
    outer loop
      vertex 3.93609 -4.75792 -3
      vertex 4.50138 4.22708 -3
      vertex 4.50138 -4.22708 -3
    endloop
  endfacet
  facet normal 0 0 -1
    outer loop
      vertex 3.93609 -4.75792 -3
      vertex 3.93609 4.75792 -3
      vertex 4.50138 4.22708 -3
    endloop
  endfacet
  facet normal 0 0 -1
    outer loop
      vertex 3.30873 -5.21372 -3
      vertex 3.93609 4.75792 -3
      vertex 3.93609 -4.75792 -3
    endloop
  endfacet
  facet normal 0 0 -1
    outer loop
      vertex 3.30873 -5.21372 -3
      vertex 3.30873 5.21372 -3
      vertex 3.93609 4.75792 -3
    endloop
  endfacet
  facet normal 0 0 -1
    outer loop
      vertex 2.62919 -5.58731 -3
      vertex 3.30873 5.21372 -3
      vertex 3.30873 -5.21372 -3
    endloop
  endfacet
  facet normal 0 0 -1
    outer loop
      vertex 2.62919 -5.58731 -3
      vertex 2.62919 5.58731 -3
      vertex 3.30873 5.21372 -3
    endloop
  endfacet
  facet normal 0 0 -1
    outer loop
      vertex 1.90818 -5.87277 -3
      vertex 2.62919 5.58731 -3
      vertex 2.62919 -5.58731 -3
    endloop
  endfacet
  facet normal 0 0 -1
    outer loop
      vertex 1.90818 -5.87277 -3
      vertex 1.90818 5.87277 -3
      vertex 2.62919 5.58731 -3
    endloop
  endfacet
  facet normal 0 0 -1
    outer loop
      vertex 1.15708 -6.06562 -3
      vertex 1.90818 5.87277 -3
      vertex 1.90818 -5.87277 -3
    endloop
  endfacet
  facet normal 0 0 -1
    outer loop
      vertex 1.15708 -6.06562 -3
      vertex 1.15708 6.06562 -3
      vertex 1.90818 5.87277 -3
    endloop
  endfacet
  facet normal 0 0 -1
    outer loop
      vertex 0.387731 -6.16281 -3
      vertex 1.15708 6.06562 -3
      vertex 1.15708 -6.06562 -3
    endloop
  endfacet
  facet normal 0 0 -1
    outer loop
      vertex 0.387731 -6.16281 -3
      vertex 0.387731 6.16281 -3
      vertex 1.15708 6.06562 -3
    endloop
  endfacet
  facet normal 0 0 -1
    outer loop
      vertex -0.387731 -6.16281 -3
      vertex 0.387731 6.16281 -3
      vertex 0.387731 -6.16281 -3
    endloop
  endfacet
  facet normal 0 0 -1
    outer loop
      vertex -0.387731 -6.16281 -3
      vertex -0.387731 6.16281 -3
      vertex 0.387731 6.16281 -3
    endloop
  endfacet
  facet normal 0 0 -1
    outer loop
      vertex -1.15708 -6.06562 -3
      vertex -0.387731 6.16281 -3
      vertex -0.387731 -6.16281 -3
    endloop
  endfacet
  facet normal 0 0 -1
    outer loop
      vertex -1.15708 -6.06562 -3
      vertex -1.15708 6.06562 -3
      vertex -0.387731 6.16281 -3
    endloop
  endfacet
  facet normal 0 0 -1
    outer loop
      vertex -1.90818 -5.87277 -3
      vertex -1.15708 6.06562 -3
      vertex -1.15708 -6.06562 -3
    endloop
  endfacet
  facet normal 0 0 -1
    outer loop
      vertex -1.90818 -5.87277 -3
      vertex -1.90818 5.87277 -3
      vertex -1.15708 6.06562 -3
    endloop
  endfacet
  facet normal 0 0 -1
    outer loop
      vertex -2.62919 -5.58731 -3
      vertex -1.90818 5.87277 -3
      vertex -1.90818 -5.87277 -3
    endloop
  endfacet
  facet normal 0 0 -1
    outer loop
      vertex -2.62919 -5.58731 -3
      vertex -2.62919 5.58731 -3
      vertex -1.90818 5.87277 -3
    endloop
  endfacet
  facet normal 0 0 -1
    outer loop
      vertex -3.30873 -5.21372 -3
      vertex -2.62919 5.58731 -3
      vertex -2.62919 -5.58731 -3
    endloop
  endfacet
  facet normal 0 0 -1
    outer loop
      vertex -3.30873 -5.21372 -3
      vertex -3.30873 5.21372 -3
      vertex -2.62919 5.58731 -3
    endloop
  endfacet
  facet normal 0 0 -1
    outer loop
      vertex -3.93609 -4.75792 -3
      vertex -3.30873 5.21372 -3
      vertex -3.30873 -5.21372 -3
    endloop
  endfacet
  facet normal 0 0 -1
    outer loop
      vertex -3.93609 -4.75792 -3
      vertex -3.93609 4.75792 -3
      vertex -3.30873 5.21372 -3
    endloop
  endfacet
  facet normal 0 0 -1
    outer loop
      vertex -4.50138 -4.22708 -3
      vertex -3.93609 4.75792 -3
      vertex -3.93609 -4.75792 -3
    endloop
  endfacet
  facet normal 0 0 -1
    outer loop
      vertex -4.50138 -4.22708 -3
      vertex -4.50138 4.22708 -3
      vertex -3.93609 4.75792 -3
    endloop
  endfacet
  facet normal 0 0 -1
    outer loop
      vertex -4.99568 -3.62957 -3
      vertex -4.50138 4.22708 -3
      vertex -4.50138 -4.22708 -3
    endloop
  endfacet
  facet normal 0 0 -1
    outer loop
      vertex -4.99568 -3.62957 -3
      vertex -4.99568 3.62957 -3
      vertex -4.50138 4.22708 -3
    endloop
  endfacet
  facet normal 0 0 -1
    outer loop
      vertex -5.41119 -2.97483 -3
      vertex -4.99568 3.62957 -3
      vertex -4.99568 -3.62957 -3
    endloop
  endfacet
  facet normal 0 0 -1
    outer loop
      vertex -5.41119 -2.97483 -3
      vertex -5.41119 2.97483 -3
      vertex -4.99568 3.62957 -3
    endloop
  endfacet
  facet normal 0 0 -1
    outer loop
      vertex -5.74137 -2.27317 -3
      vertex -5.41119 2.97483 -3
      vertex -5.41119 -2.97483 -3
    endloop
  endfacet
  facet normal 0 0 -1
    outer loop
      vertex -5.74137 -2.27317 -3
      vertex -5.74137 2.27317 -3
      vertex -5.41119 2.97483 -3
    endloop
  endfacet
  facet normal 0 0 -1
    outer loop
      vertex -5.981 -1.53566 -3
      vertex -5.74137 2.27317 -3
      vertex -5.74137 -2.27317 -3
    endloop
  endfacet
  facet normal 0 0 -1
    outer loop
      vertex -5.981 -1.53566 -3
      vertex -5.981 1.53566 -3
      vertex -5.74137 2.27317 -3
    endloop
  endfacet
  facet normal 0 0 -1
    outer loop
      vertex -6.12631 -0.773932 -3
      vertex -5.981 1.53566 -3
      vertex -5.981 -1.53566 -3
    endloop
  endfacet
  facet normal 0 0 -1
    outer loop
      vertex -6.12631 -0.773932 -3
      vertex -6.12631 0.773932 -3
      vertex -5.981 1.53566 -3
    endloop
  endfacet
  facet normal 0 -0 -1
    outer loop
      vertex -6.12631 0.773932 -3
      vertex -6.12631 -0.773932 -3
      vertex -6.175 0 -3
    endloop
  endfacet
  facet normal -0.843279 -0.53516 -0.0498399
    outer loop
      vertex -4.99568 -3.62957 -3
      vertex -5.54264 -3.04709 0
      vertex -5.41119 -2.97483 -3
    endloop
  endfacet
  facet normal -0.9037 -0.425256 -0.0498405
    outer loop
      vertex -5.54264 -3.04709 0
      vertex -5.88084 -2.32839 0
      vertex -5.74137 -2.27317 -3
    endloop
  endfacet
  facet normal -0.683694 -0.728064 -0.0498415
    outer loop
      vertex -4.03171 -4.8735 0
      vertex -4.50138 -4.22708 -3
      vertex -3.93609 -4.75792 -3
    endloop
  endfacet
  facet normal -0.367666 -0.928621 -0.0498372
    outer loop
      vertex -1.95453 -6.01543 0
      vertex -2.69305 -5.72303 0
      vertex -2.62919 -5.58731 -3
    endloop
  endfacet
  facet normal -0.481158 -0.875216 -0.049837
    outer loop
      vertex -2.69305 -5.72303 0
      vertex -3.3891 -5.34037 0
      vertex -2.62919 -5.58731 -3
    endloop
  endfacet
  facet normal -0.843277 0.535163 -0.049839
    outer loop
      vertex -4.99568 3.62957 -3
      vertex -5.54264 3.04709 0
      vertex -5.11703 3.71774 0
    endloop
  endfacet
  facet normal -0.76956 0.636627 -0.0498392
    outer loop
      vertex -4.99568 3.62957 -3
      vertex -5.11703 3.71774 0
      vertex -4.61073 4.32976 0
    endloop
  endfacet
  facet normal -0.903701 0.425254 -0.0498401
    outer loop
      vertex -5.41119 2.97483 -3
      vertex -5.74137 2.27317 -3
      vertex -5.54264 3.04709 0
    endloop
  endfacet
  facet normal -0.125176 0.990882 -0.0498413
    outer loop
      vertex -0.387731 6.16281 -3
      vertex -1.15708 6.06562 -3
      vertex -0.397149 6.31252 0
    endloop
  endfacet
  facet normal -0.996786 0.0627194 -0.049837
    outer loop
      vertex -6.12631 0.773932 -3
      vertex -6.325 0 0
      vertex -6.27512 0.792732 0
    endloop
  endfacet
  facet normal -0.981068 0.187141 -0.049837
    outer loop
      vertex -6.12631 0.773932 -3
      vertex -6.27512 0.792732 0
      vertex -6.12629 1.57296 0
    endloop
  endfacet
  facet normal 0.587052 0.808014 -0.0498414
    outer loop
      vertex 3.93609 4.75792 -3
      vertex 3.30873 5.21372 -3
      vertex 4.03171 4.8735 0
    endloop
  endfacet
  facet normal 0.683694 0.728064 -0.0498415
    outer loop
      vertex 4.50138 4.22708 -3
      vertex 3.93609 4.75792 -3
      vertex 4.03171 4.8735 0
    endloop
  endfacet
  facet normal 0.248381 0.967379 -0.0498396
    outer loop
      vertex 1.90818 5.87277 -3
      vertex 1.15708 6.06562 -3
      vertex 1.95453 6.01543 0
    endloop
  endfacet
  facet normal 0.903701 0.425254 -0.0498401
    outer loop
      vertex 5.74137 2.27317 -3
      vertex 5.41119 2.97483 -3
      vertex 5.54264 3.04709 0
    endloop
  endfacet
  facet normal 0.949875 0.308631 -0.0498398
    outer loop
      vertex 5.981 1.53566 -3
      vertex 5.74137 2.27317 -3
      vertex 6.12629 1.57296 0
    endloop
  endfacet
  facet normal 0.248381 -0.967379 -0.0498396
    outer loop
      vertex 1.95453 -6.01543 0
      vertex 1.15708 -6.06562 -3
      vertex 1.90818 -5.87277 -3
    endloop
  endfacet
  facet normal -0.981068 -0.187141 -0.049837
    outer loop
      vertex -6.12629 -1.57296 0
      vertex -6.27512 -0.792732 0
      vertex -6.12631 -0.773932 -3
    endloop
  endfacet
  facet normal -0.996786 -0.0627194 -0.049837
    outer loop
      vertex -6.27512 -0.792732 0
      vertex -6.325 0 0
      vertex -6.12631 -0.773932 -3
    endloop
  endfacet
  facet normal -0.843277 -0.535163 -0.049839
    outer loop
      vertex -5.11703 -3.71774 0
      vertex -5.54264 -3.04709 0
      vertex -4.99568 -3.62957 -3
    endloop
  endfacet
  facet normal -0.76956 -0.636627 -0.0498392
    outer loop
      vertex -4.61073 -4.32976 0
      vertex -5.11703 -3.71774 0
      vertex -4.99568 -3.62957 -3
    endloop
  endfacet
  facet normal -0.903701 -0.425254 -0.0498401
    outer loop
      vertex -5.54264 -3.04709 0
      vertex -5.74137 -2.27317 -3
      vertex -5.41119 -2.97483 -3
    endloop
  endfacet
  facet normal -0.481165 -0.875212 -0.0498389
    outer loop
      vertex -2.62919 -5.58731 -3
      vertex -3.3891 -5.34037 0
      vertex -3.30873 -5.21372 -3
    endloop
  endfacet
  facet normal -0.587036 -0.808025 -0.0498364
    outer loop
      vertex -3.30873 -5.21372 -3
      vertex -3.83452 -5.01676 0
      vertex -4.03171 -4.8735 0
    endloop
  endfacet
  facet normal -0.587047 -0.808017 -0.0498388
    outer loop
      vertex -3.83452 -5.01676 0
      vertex -3.30873 -5.21372 -3
      vertex -3.3891 -5.34037 0
    endloop
  endfacet
  facet normal -0.587052 -0.808014 -0.0498414
    outer loop
      vertex -3.30873 -5.21372 -3
      vertex -4.03171 -4.8735 0
      vertex -3.93609 -4.75792 -3
    endloop
  endfacet
  facet normal -0.843279 0.53516 -0.0498399
    outer loop
      vertex -5.41119 2.97483 -3
      vertex -5.54264 3.04709 0
      vertex -4.99568 3.62957 -3
    endloop
  endfacet
  facet normal -0.481165 0.875212 -0.0498389
    outer loop
      vertex -3.30873 5.21372 -3
      vertex -3.3891 5.34037 0
      vertex -2.62919 5.58731 -3
    endloop
  endfacet
  facet normal -0.124973 0.990905 -0.0498946
    outer loop
      vertex -1.15708 6.06562 -3
      vertex -0.408646 6.31107 0
      vertex -0.397149 6.31252 0
    endloop
  endfacet
  facet normal -0.125177 0.990882 -0.0498417
    outer loop
      vertex -0.408646 6.31107 0
      vertex -1.15708 6.06562 -3
      vertex -1.18519 6.21297 0
    endloop
  endfacet
  facet normal -0.248389 0.967377 -0.0498417
    outer loop
      vertex -1.15708 6.06562 -3
      vertex -1.95453 6.01543 0
      vertex -1.18519 6.21297 0
    endloop
  endfacet
  facet normal 0 0.998757 -0.0498413
    outer loop
      vertex 0.387731 6.16281 -3
      vertex -0.397149 6.31252 0
      vertex 0.397149 6.31252 0
    endloop
  endfacet
  facet normal 0 0.998757 -0.0498413
    outer loop
      vertex -0.397149 6.31252 0
      vertex 0.387731 6.16281 -3
      vertex -0.387731 6.16281 -3
    endloop
  endfacet
  facet normal 0.481165 0.875212 -0.0498389
    outer loop
      vertex 3.30873 5.21372 -3
      vertex 2.62919 5.58731 -3
      vertex 3.3891 5.34037 0
    endloop
  endfacet
  facet normal 0.843279 0.53516 -0.0498399
    outer loop
      vertex 5.41119 2.97483 -3
      vertex 4.99568 3.62957 -3
      vertex 5.54264 3.04709 0
    endloop
  endfacet
  facet normal 0.125176 -0.990882 -0.0498413
    outer loop
      vertex 0.397149 -6.31252 0
      vertex 0.387731 -6.16281 -3
      vertex 1.15708 -6.06562 -3
    endloop
  endfacet
  facet normal -0.949875 -0.308631 -0.0498398
    outer loop
      vertex -5.74137 -2.27317 -3
      vertex -6.12629 -1.57296 0
      vertex -5.981 -1.53566 -3
    endloop
  endfacet
  facet normal -0.125176 -0.990882 -0.0498413
    outer loop
      vertex -0.397149 -6.31252 0
      vertex -1.15708 -6.06562 -3
      vertex -0.387731 -6.16281 -3
    endloop
  endfacet
  facet normal -0.481158 0.875216 -0.049837
    outer loop
      vertex -2.62919 5.58731 -3
      vertex -3.3891 5.34037 0
      vertex -2.69305 5.72303 0
    endloop
  endfacet
  facet normal -0.367666 0.928621 -0.0498372
    outer loop
      vertex -2.62919 5.58731 -3
      vertex -2.69305 5.72303 0
      vertex -1.95453 6.01543 0
    endloop
  endfacet
  facet normal -0.248389 -0.967377 -0.0498417
    outer loop
      vertex -1.18519 -6.21297 0
      vertex -1.95453 -6.01543 0
      vertex -1.15708 -6.06562 -3
    endloop
  endfacet
  facet normal -0.125177 -0.990882 -0.0498417
    outer loop
      vertex -1.15708 -6.06562 -3
      vertex -0.408646 -6.31107 0
      vertex -1.18519 -6.21297 0
    endloop
  endfacet
  facet normal -0.124973 -0.990905 -0.0498946
    outer loop
      vertex -0.408646 -6.31107 0
      vertex -1.15708 -6.06562 -3
      vertex -0.397149 -6.31252 0
    endloop
  endfacet
  facet normal -0.248381 -0.967379 -0.0498396
    outer loop
      vertex -1.15708 -6.06562 -3
      vertex -1.95453 -6.01543 0
      vertex -1.90818 -5.87277 -3
    endloop
  endfacet
  facet normal -0.367658 -0.928625 -0.0498395
    outer loop
      vertex -1.95453 -6.01543 0
      vertex -2.62919 -5.58731 -3
      vertex -1.90818 -5.87277 -3
    endloop
  endfacet
  facet normal -0.367658 0.928625 -0.0498395
    outer loop
      vertex -1.90818 5.87277 -3
      vertex -2.62919 5.58731 -3
      vertex -1.95453 6.01543 0
    endloop
  endfacet
  facet normal -0 0 1
    outer loop
      vertex -3.83452 6.73955 2
      vertex -0.408646 2.028 2
      vertex -0.408646 6.73955 2
    endloop
  endfacet
  facet normal 0 0 1
    outer loop
      vertex -0.408646 2.028 2
      vertex -3.83452 6.73955 2
      vertex -0.408646 -0.901428 2
    endloop
  endfacet
  facet normal 0 0 1
    outer loop
      vertex -3.83452 -6.435 2
      vertex -0.408646 -0.901428 2
      vertex -3.83452 6.73955 2
    endloop
  endfacet
  facet normal 0 0 1
    outer loop
      vertex -0.408646 -0.901428 2
      vertex -3.83452 -6.435 2
      vertex -0.408646 -6.435 2
    endloop
  endfacet
  facet normal -0 0 1
    outer loop
      vertex -0.408646 2.028 2
      vertex 0.616745 -0.901428 2
      vertex 0.616745 2.028 2
    endloop
  endfacet
  facet normal 0 0 1
    outer loop
      vertex 0.616745 -0.901428 2
      vertex -0.408646 2.028 2
      vertex -0.408646 -0.901428 2
    endloop
  endfacet
  facet normal 0 0 1
    outer loop
      vertex 0.616745 2.028 2
      vertex 4.04263 6.73955 2
      vertex 0.616745 6.73955 2
    endloop
  endfacet
  facet normal 0 0 1
    outer loop
      vertex 0.616745 -0.901428 2
      vertex 4.04263 6.73955 2
      vertex 0.616745 2.028 2
    endloop
  endfacet
  facet normal 0 0 1
    outer loop
      vertex 4.04263 6.73955 2
      vertex 0.616745 -0.901428 2
      vertex 4.04263 -6.435 2
    endloop
  endfacet
  facet normal 0 0 1
    outer loop
      vertex 4.04263 -6.435 2
      vertex 0.616745 -0.901428 2
      vertex 0.616745 -6.435 2
    endloop
  endfacet
  facet normal 0 -1 0
    outer loop
      vertex -0.408646 -0.901428 0
      vertex 0.616745 -0.901428 2
      vertex -0.408646 -0.901428 2
    endloop
  endfacet
  facet normal 0 -1 -0
    outer loop
      vertex 0.616745 -0.901428 2
      vertex -0.408646 -0.901428 0
      vertex 0.616745 -0.901428 0
    endloop
  endfacet
  facet normal -1 0 0
    outer loop
      vertex 0.616745 -6.28478 0
      vertex 0.616745 -0.901428 2
      vertex 0.616745 -0.901428 0
    endloop
  endfacet
  facet normal -1 0 0
    outer loop
      vertex 0.616745 -6.435 2
      vertex 0.616745 -6.28478 0
      vertex 0.616745 -6.435 0
    endloop
  endfacet
  facet normal -1 0 0
    outer loop
      vertex 0.616745 -6.28478 0
      vertex 0.616745 -6.435 2
      vertex 0.616745 -0.901428 2
    endloop
  endfacet
  facet normal 0 -1 0
    outer loop
      vertex 0.616745 -6.435 0
      vertex 4.04263 -6.435 2
      vertex 0.616745 -6.435 2
    endloop
  endfacet
  facet normal 0 -1 -0
    outer loop
      vertex 4.04263 -6.435 2
      vertex 0.616745 -6.435 0
      vertex 4.04263 -6.435 0
    endloop
  endfacet
  facet normal 1 0 0
    outer loop
      vertex 4.04263 6.73955 2
      vertex 4.04263 4.86323 0
      vertex 4.04263 6.73955 0
    endloop
  endfacet
  facet normal 1 -0 0
    outer loop
      vertex 4.04263 -6.435 2
      vertex 4.04263 4.86323 0
      vertex 4.04263 6.73955 2
    endloop
  endfacet
  facet normal 1 0 0
    outer loop
      vertex 4.04263 4.86323 0
      vertex 4.04263 -6.435 2
      vertex 4.04263 -4.86323 0
    endloop
  endfacet
  facet normal 1 0 0
    outer loop
      vertex 4.04263 -4.86323 0
      vertex 4.04263 -6.435 2
      vertex 4.04263 -6.435 0
    endloop
  endfacet
  facet normal 0 1 -0
    outer loop
      vertex 4.04263 6.73955 0
      vertex 0.616745 6.73955 2
      vertex 4.04263 6.73955 2
    endloop
  endfacet
  facet normal 0 1 0
    outer loop
      vertex 0.616745 6.73955 2
      vertex 4.04263 6.73955 0
      vertex 0.616745 6.73955 0
    endloop
  endfacet
  facet normal -1 0 0
    outer loop
      vertex 0.616745 6.28478 0
      vertex 0.616745 6.73955 2
      vertex 0.616745 6.73955 0
    endloop
  endfacet
  facet normal -1 0 0
    outer loop
      vertex 0.616745 2.028 2
      vertex 0.616745 6.28478 0
      vertex 0.616745 2.028 0
    endloop
  endfacet
  facet normal -1 0 0
    outer loop
      vertex 0.616745 6.28478 0
      vertex 0.616745 2.028 2
      vertex 0.616745 6.73955 2
    endloop
  endfacet
  facet normal 0 1 -0
    outer loop
      vertex 0.616745 2.028 0
      vertex -0.408646 2.028 2
      vertex 0.616745 2.028 2
    endloop
  endfacet
  facet normal 0 1 0
    outer loop
      vertex -0.408646 2.028 2
      vertex 0.616745 2.028 0
      vertex -0.408646 2.028 0
    endloop
  endfacet
  facet normal 1 0 0
    outer loop
      vertex -0.408646 6.73955 2
      vertex -0.408646 6.31107 0
      vertex -0.408646 6.73955 0
    endloop
  endfacet
  facet normal 1 -0 0
    outer loop
      vertex -0.408646 2.028 2
      vertex -0.408646 6.31107 0
      vertex -0.408646 6.73955 2
    endloop
  endfacet
  facet normal 1 0 0
    outer loop
      vertex -0.408646 6.31107 0
      vertex -0.408646 2.028 2
      vertex -0.408646 2.028 0
    endloop
  endfacet
  facet normal 0 1 -0
    outer loop
      vertex -0.408646 6.73955 0
      vertex -3.83452 6.73955 2
      vertex -0.408646 6.73955 2
    endloop
  endfacet
  facet normal 0 1 0
    outer loop
      vertex -3.83452 6.73955 2
      vertex -0.408646 6.73955 0
      vertex -3.83452 6.73955 0
    endloop
  endfacet
  facet normal -1 0 0
    outer loop
      vertex -3.83452 5.01676 0
      vertex -3.83452 6.73955 2
      vertex -3.83452 6.73955 0
    endloop
  endfacet
  facet normal -1 0 0
    outer loop
      vertex -3.83452 -6.435 2
      vertex -3.83452 5.01676 0
      vertex -3.83452 -5.01676 0
    endloop
  endfacet
  facet normal -1 0 0
    outer loop
      vertex -3.83452 -6.435 2
      vertex -3.83452 -5.01676 0
      vertex -3.83452 -6.435 0
    endloop
  endfacet
  facet normal -1 0 0
    outer loop
      vertex -3.83452 5.01676 0
      vertex -3.83452 -6.435 2
      vertex -3.83452 6.73955 2
    endloop
  endfacet
  facet normal 0 -1 0
    outer loop
      vertex -3.83452 -6.435 0
      vertex -0.408646 -6.435 2
      vertex -3.83452 -6.435 2
    endloop
  endfacet
  facet normal 0 -1 -0
    outer loop
      vertex -0.408646 -6.435 2
      vertex -3.83452 -6.435 0
      vertex -0.408646 -6.435 0
    endloop
  endfacet
  facet normal 1 0 0
    outer loop
      vertex -0.408646 -0.901428 2
      vertex -0.408646 -6.31107 0
      vertex -0.408646 -0.901428 0
    endloop
  endfacet
  facet normal 1 -0 0
    outer loop
      vertex -0.408646 -6.435 2
      vertex -0.408646 -6.31107 0
      vertex -0.408646 -0.901428 2
    endloop
  endfacet
  facet normal 1 0 0
    outer loop
      vertex -0.408646 -6.31107 0
      vertex -0.408646 -6.435 2
      vertex -0.408646 -6.435 0
    endloop
  endfacet
endsolid OpenSCAD_Model
