solid OpenSCAD_Model
  facet normal -0.7695556865203677 -0.6366318303218882 -0.04983932147580145
    outer loop
      vertex -4.9956799402653 -3.6295739329060215 -3
      vertex -4.501381274327217 -4.227078379109652 -3
      vertex -5.117032489421542 -3.717741720749893 0
    endloop
  endfacet
  facet normal -0.5870547814661057 -0.8080115875361037 -0.04983932147580139
    outer loop
      vertex -3.936093136698158 -4.757919274140499 -3
      vertex -3.308730458995305 -5.213724939974942 -3
      vertex -3.3891044782421544 -5.340374128800245 0
    endloop
  endfacet
  facet normal -0.683696384192808 -0.7280627007864858 -0.04983932147580158
    outer loop
      vertex -3.936093136698158 -4.757919274140499 -3
      vertex -4.031706735160462 -4.873496260556868 0
      vertex -4.501381274327217 -4.227078379109652 -3
    endloop
  endfacet
  facet normal -0.8432786359612158 -0.5351608955876943 -0.04983932147580144
    outer loop
      vertex -4.9956799402653 -3.6295739329060215 -3
      vertex -5.117032489421542 -3.717741720749893 0
      vertex -5.542639751277437 -3.04709198869335 0
    endloop
  endfacet
  facet normal -0.5870547814661055 -0.8080115875361037 -0.04983932147580145
    outer loop
      vertex -3.936093136698158 -4.757919274140499 -3
      vertex -3.3891044782421544 -5.340374128800245 0
      vertex -3.942960001528263 -4.937974536762224 0
    endloop
  endfacet
  facet normal -0.6836963841928086 -0.7280627007864852 -0.04983932147580132
    outer loop
      vertex -4.501381274327217 -4.227078379109652 -3
      vertex -4.031706735160462 -4.873496260556868 0
      vertex -4.610726568440429 -4.329760444998955 0
    endloop
  endfacet
  facet normal -0.5870547814661028 -0.8080115875361059 -0.04983932147580157
    outer loop
      vertex -3.936093136698158 -4.757919274140499 -3
      vertex -3.942960001528263 -4.937974536762224 0
      vertex -4.031706735160462 -4.873496260556868 0
    endloop
  endfacet
  facet normal -0.7695556865203672 -0.6366318303218885 -0.0498393214758013
    outer loop
      vertex -4.501381274327217 -4.227078379109652 -3
      vertex -4.610726568440429 -4.329760444998955 0
      vertex -5.117032489421542 -3.717741720749893 0
    endloop
  endfacet
  facet normal -0.9037025775627167 -0.42525015384045883 -0.049839321475801404
    outer loop
      vertex -5.741369800359952 -2.273169112827886 -3
      vertex -5.411193749270857 -2.9748289375780925 -3
      vertex -5.88083627324319 -2.3283877957305874 0
    endloop
  endfacet
  facet normal -0.9498745896703011 -0.3086329631350304 -0.04983932147580164
    outer loop
      vertex -5.741369800359952 -2.273169112827886 -3
      vertex -6.126288494138592 -1.572963536317707 0
      vertex -5.9810010199692965 -1.5356600532429787 -3
    endloop
  endfacet
  facet normal -0.843278635961216 -0.535160895587694 -0.049839321475801536
    outer loop
      vertex -4.9956799402653 -3.6295739329060215 -3
      vertex -5.542639751277437 -3.04709198869335 0
      vertex -5.411193749270857 -2.9748289375780925 -3
    endloop
  endfacet
  facet normal 0 0 -1
    outer loop
      vertex -5.9810010199692965 -1.5356600532429787 -3
      vertex -6.126308280616901 -0.7739327172595776 -3
      vertex -5.9810010199692965 1.5356600532429787 -3
    endloop
  endfacet
  facet normal 0 0 -1
    outer loop
      vertex -5.741369800359952 -2.273169112827886 -3
      vertex -5.9810010199692965 -1.5356600532429787 -3
      vertex -5.741369800359952 2.273169112827886 -3
    endloop
  endfacet
  facet normal 0 0 -1
    outer loop
      vertex -4.9956799402653 -3.6295739329060215 -3
      vertex -5.411193749270857 -2.9748289375780925 -3
      vertex -4.9956799402653 3.6295739329060215 -3
    endloop
  endfacet
  facet normal 0 0 -1
    outer loop
      vertex -5.741369800359952 -2.273169112827886 -3
      vertex -5.411193749270857 2.9748289375780925 -3
      vertex -5.411193749270857 -2.9748289375780925 -3
    endloop
  endfacet
  facet normal -0.9810665120712087 -0.18714844623256893 -0.04983932147580127
    outer loop
      vertex -5.9810010199692965 -1.5356600532429787 -3
      vertex -6.275125485814073 -0.7927327022942232 0
      vertex -6.126308280616901 -0.7739327172595776 -3
    endloop
  endfacet
  facet normal -0.9967864295160271 -0.06271248653595363 -0.049839321475801474
    outer loop
      vertex -6.126308280616901 -0.7739327172595776 -3
      vertex -6.325 0 0
      vertex -6.175 0 -3
    endloop
  endfacet
  facet normal 0 0 -1
    outer loop
      vertex -4.9956799402653 -3.6295739329060215 -3
      vertex -4.501381274327217 4.227078379109652 -3
      vertex -4.501381274327217 -4.227078379109652 -3
    endloop
  endfacet
  facet normal 0 0 -1
    outer loop
      vertex -3.936093136698158 -4.757919274140499 -3
      vertex -4.501381274327217 -4.227078379109652 -3
      vertex -3.936093136698158 4.757919274140499 -3
    endloop
  endfacet
  facet normal 0 0 -1
    outer loop
      vertex -3.936093136698158 -4.757919274140499 -3
      vertex -3.308730458995305 5.213724939974942 -3
      vertex -3.308730458995305 -5.213724939974942 -3
    endloop
  endfacet
  facet normal -0.9037025775627168 -0.42525015384045833 -0.04983932147580155
    outer loop
      vertex -5.411193749270857 -2.9748289375780925 -3
      vertex -5.542639751277437 -3.04709198869335 0
      vertex -5.88083627324319 -2.3283877957305874 0
    endloop
  endfacet
  facet normal -0.9498745896703006 -0.30863296313503114 -0.049839321475801404
    outer loop
      vertex -5.741369800359952 -2.273169112827886 -3
      vertex -5.88083627324319 -2.3283877957305874 0
      vertex -6.126288494138592 -1.572963536317707 0
    endloop
  endfacet
  facet normal -0.9810665120712089 -0.18714844623256752 -0.04983932147580163
    outer loop
      vertex -5.9810010199692965 -1.5356600532429787 -3
      vertex -6.126288494138592 -1.572963536317707 0
      vertex -6.275125485814073 -0.7927327022942232 0
    endloop
  endfacet
  facet normal -0.9967864295160269 -0.06271248653595435 -0.04983932147580126
    outer loop
      vertex -6.126308280616901 -0.7739327172595776 -3
      vertex -6.275125485814073 -0.7927327022942232 0
      vertex -6.325 0 0
    endloop
  endfacet
  facet normal -0.4811549741461546 -0.8752176488675516 -0.04983932147580144
    outer loop
      vertex -3.308730458995305 -5.213724939974942 -3
      vertex -2.6291871254143224 -5.587307048977671 -3
      vertex -2.6930540191490833 -5.723031106847574 0
    endloop
  endfacet
  facet normal -0.3676670654558691 -0.9286210050466776 -0.04983932147580148
    outer loop
      vertex -2.6291871254143224 -5.587307048977671 -3
      vertex -1.9081799402653001 -5.872773988122573 -3
      vertex -1.9545324894215423 -6.015432465566846 0
    endloop
  endfacet
  facet normal -0.24838082750968726 -0.967379453244917 -0.04983932147580129
    outer loop
      vertex -1.9081799402653001 -5.872773988122573 -3
      vertex -1.1570796175668507 -6.065623773249652 -3
      vertex -1.1851868147547096 -6.212966860858955 0
    endloop
  endfacet
  facet normal -0.12517747553816136 -0.9908817495810106 -0.04983932147580166
    outer loop
      vertex -1.1570796175668507 -6.065623773249652 -3
      vertex -0.38773145809351245 -6.1628150480445765 -3
      vertex -0.39715003602290955 -6.312519057308818 0
    endloop
  endfacet
  facet normal -0.3676670654558692 -0.9286210050466774 -0.049839321475801446
    outer loop
      vertex -2.6291871254143224 -5.587307048977671 -3
      vertex -1.9545324894215423 -6.015432465566846 0
      vertex -2.6930540191490833 -5.723031106847574 0
    endloop
  endfacet
  facet normal -0.48115497414615477 -0.8752176488675516 -0.04983932147580141
    outer loop
      vertex -3.308730458995305 -5.213724939974942 -3
      vertex -2.6930540191490833 -5.723031106847574 0
      vertex -3.3891044782421544 -5.340374128800245 0
    endloop
  endfacet
  facet normal -0.2483808275096867 -0.9673794532449174 -0.04983932147580149
    outer loop
      vertex -1.9081799402653001 -5.872773988122573 -3
      vertex -1.1851868147547096 -6.212966860858955 0
      vertex -1.9545324894215423 -6.015432465566846 0
    endloop
  endfacet
  facet normal -0.125177475538163 -0.9908817495810104 -0.049839321475801314
    outer loop
      vertex -1.1570796175668507 -6.065623773249652 -3
      vertex -0.5170800015330315 -6.297368379308861 0
      vertex -1.1851868147547096 -6.212966860858955 0
    endloop
  endfacet
  facet normal -0.12517747553816083 -0.9908817495810108 -0.04983932147580183
    outer loop
      vertex -1.1570796175668507 -6.065623773249652 -3
      vertex -0.39715003602290955 -6.312519057308818 0
      vertex -0.5170800015330315 -6.297368379308861 0
    endloop
  endfacet
  facet normal 0 -0.998757248802146 -0.049839321475801654
    outer loop
      vertex -0.38773145809351245 -6.1628150480445765 -3
      vertex 0.39715003602290955 -6.312519057308818 0
      vertex -0.39715003602290955 -6.312519057308818 0
    endloop
  endfacet
  facet normal 0 0 -1
    outer loop
      vertex -3.308730458995305 -5.213724939974942 -3
      vertex -2.6291871254143238 5.58730704897767 -3
      vertex -2.6291871254143224 -5.587307048977671 -3
    endloop
  endfacet
  facet normal 0 0 -1
    outer loop
      vertex -2.6291871254143224 -5.587307048977671 -3
      vertex -1.9081799402653001 5.872773988122573 -3
      vertex -1.9081799402653001 -5.872773988122573 -3
    endloop
  endfacet
  facet normal 0 0 -1
    outer loop
      vertex -1.9081799402653001 -5.872773988122573 -3
      vertex -1.1570796175668492 6.065623773249652 -3
      vertex -1.1570796175668507 -6.065623773249652 -3
    endloop
  endfacet
  facet normal 0 0 -1
    outer loop
      vertex -1.1570796175668507 -6.065623773249652 -3
      vertex -0.38773145809350945 6.1628150480445765 -3
      vertex -0.38773145809351245 -6.1628150480445765 -3
    endloop
  endfacet
  facet normal 0 0 1
    outer loop
      vertex -5.542639751277437 -3.04709198869335 0
      vertex -5.88083627324319 2.3283877957305874 0
      vertex -5.88083627324319 -2.3283877957305874 0
    endloop
  endfacet
  facet normal 0 0 1
    outer loop
      vertex -6.126288494138592 -1.572963536317707 0
      vertex -6.275125485814073 0.7927327022942232 0
      vertex -6.275125485814073 -0.7927327022942232 0
    endloop
  endfacet
  facet normal 0 0 1
    outer loop
      vertex -5.88083627324319 -2.3283877957305874 0
      vertex -6.126288494138592 1.572963536317707 0
      vertex -6.126288494138592 -1.572963536317707 0
    endloop
  endfacet
  facet normal 0 0 1
    outer loop
      vertex -5.117032489421542 -3.717741720749893 0
      vertex -5.542639751277437 3.04709198869335 0
      vertex -5.542639751277437 -3.04709198869335 0
    endloop
  endfacet
  facet normal 0 0 1
    outer loop
      vertex -5.117032489421542 -3.717741720749893 0
      vertex -4.610726568440429 -4.329760444998955 0
      vertex -5.117032489421542 3.717741720749893 0
    endloop
  endfacet
  facet normal 0 0 1
    outer loop
      vertex -4.031706735160462 -4.873496260556868 0
      vertex -4.610726568440429 4.329760444998955 0
      vertex -4.610726568440429 -4.329760444998955 0
    endloop
  endfacet
  facet normal 0 0 1
    outer loop
      vertex -4.031706735160462 -4.873496260556868 0
      vertex -3.942960001528263 -4.937974536762224 0
      vertex -3.942960001528263 4.937974536762224 0
    endloop
  endfacet
  facet normal 0 0 1
    outer loop
      vertex -0.39715003602290955 -6.312519057308818 0
      vertex -0.5170800015330315 -1.0558800026774406 0
      vertex -0.5170800015330315 -6.297368379308861 0
    endloop
  endfacet
  facet normal 0 0 1
    outer loop
      vertex -0.39715003602290955 -6.312519057308818 0
      vertex 0.39715003602290955 -6.312519057308818 0
      vertex -0.5170800015330315 -1.0558800026774406 0
    endloop
  endfacet
  facet normal 0 0 -1
    outer loop
      vertex -6.126308280616901 -0.7739327172595776 -3
      vertex -6.175 0 -3
      vertex -6.126308280616901 0.7739327172595776 -3
    endloop
  endfacet
  facet normal 0 0 -1
    outer loop
      vertex -6.126308280616901 -0.7739327172595776 -3
      vertex -6.126308280616901 0.7739327172595776 -3
      vertex -5.9810010199692965 1.5356600532429787 -3
    endloop
  endfacet
  facet normal 0 0 -1
    outer loop
      vertex -5.9810010199692965 -1.5356600532429787 -3
      vertex -5.9810010199692965 1.5356600532429787 -3
      vertex -5.741369800359952 2.273169112827886 -3
    endloop
  endfacet
  facet normal 0 0 -1
    outer loop
      vertex -5.741369800359952 -2.273169112827886 -3
      vertex -5.741369800359952 2.273169112827886 -3
      vertex -5.411193749270857 2.9748289375780925 -3
    endloop
  endfacet
  facet normal 0 0 -1
    outer loop
      vertex -5.411193749270857 -2.9748289375780925 -3
      vertex -5.411193749270857 2.9748289375780925 -3
      vertex -4.9956799402653 3.6295739329060215 -3
    endloop
  endfacet
  facet normal 0 0 -1
    outer loop
      vertex -4.9956799402653 -3.6295739329060215 -3
      vertex -4.9956799402653 3.6295739329060215 -3
      vertex -4.501381274327217 4.227078379109652 -3
    endloop
  endfacet
  facet normal -0.9967864295160271 0.06271248653595363 -0.04983932147580128
    outer loop
      vertex -6.175 0 -3
      vertex -6.275125485814073 0.7927327022942232 0
      vertex -6.126308280616901 0.7739327172595776 -3
    endloop
  endfacet
  facet normal -0.9810665120712087 0.18714844623256893 -0.04983932147580127
    outer loop
      vertex -6.126308280616901 0.7739327172595776 -3
      vertex -6.275125485814073 0.7927327022942232 0
      vertex -5.9810010199692965 1.5356600532429787 -3
    endloop
  endfacet
  facet normal -0.9498745896703011 0.3086329631350304 -0.04983932147580164
    outer loop
      vertex -5.9810010199692965 1.5356600532429787 -3
      vertex -6.126288494138592 1.572963536317707 0
      vertex -5.741369800359952 2.273169112827886 -3
    endloop
  endfacet
  facet normal -0.9037025775627167 0.42525015384045883 -0.049839321475801404
    outer loop
      vertex -5.741369800359952 2.273169112827886 -3
      vertex -5.88083627324319 2.3283877957305874 0
      vertex -5.411193749270857 2.9748289375780925 -3
    endloop
  endfacet
  facet normal -0.843278635961216 0.535160895587694 -0.049839321475801536
    outer loop
      vertex -5.411193749270857 2.9748289375780925 -3
      vertex -5.542639751277437 3.04709198869335 0
      vertex -4.9956799402653 3.6295739329060215 -3
    endloop
  endfacet
  facet normal 0 0 -1
    outer loop
      vertex -4.501381274327217 -4.227078379109652 -3
      vertex -4.501381274327217 4.227078379109652 -3
      vertex -3.936093136698158 4.757919274140499 -3
    endloop
  endfacet
  facet normal 0 0 -1
    outer loop
      vertex -3.936093136698158 -4.757919274140499 -3
      vertex -3.936093136698158 4.757919274140499 -3
      vertex -3.308730458995305 5.213724939974942 -3
    endloop
  endfacet
  facet normal -0.9967864295160269 0.06271248653595436 -0.04983932147580146
    outer loop
      vertex -6.175 0 -3
      vertex -6.325 0 0
      vertex -6.275125485814073 0.7927327022942232 0
    endloop
  endfacet
  facet normal -0.9810665120712089 0.18714844623256752 -0.04983932147580163
    outer loop
      vertex -5.9810010199692965 1.5356600532429787 -3
      vertex -6.275125485814073 0.7927327022942232 0
      vertex -6.126288494138592 1.572963536317707 0
    endloop
  endfacet
  facet normal -0.9498745896703006 0.30863296313503114 -0.049839321475801404
    outer loop
      vertex -5.741369800359952 2.273169112827886 -3
      vertex -6.126288494138592 1.572963536317707 0
      vertex -5.88083627324319 2.3283877957305874 0
    endloop
  endfacet
  facet normal -0.9037025775627168 0.42525015384045833 -0.04983932147580155
    outer loop
      vertex -5.411193749270857 2.9748289375780925 -3
      vertex -5.88083627324319 2.3283877957305874 0
      vertex -5.542639751277437 3.04709198869335 0
    endloop
  endfacet
  facet normal -0.7695556865203677 0.6366318303218882 -0.04983932147580145
    outer loop
      vertex -4.9956799402653 3.6295739329060215 -3
      vertex -5.117032489421542 3.717741720749893 0
      vertex -4.501381274327217 4.227078379109652 -3
    endloop
  endfacet
  facet normal -0.683696384192808 0.7280627007864858 -0.04983932147580158
    outer loop
      vertex -4.501381274327217 4.227078379109652 -3
      vertex -4.031706735160462 4.873496260556868 0
      vertex -3.936093136698158 4.757919274140499 -3
    endloop
  endfacet
  facet normal -0.5870547814661057 0.8080115875361037 -0.04983932147580139
    outer loop
      vertex -3.936093136698158 4.757919274140499 -3
      vertex -3.3891044782421544 5.340374128800245 0
      vertex -3.308730458995305 5.213724939974942 -3
    endloop
  endfacet
  facet normal -0.8432786359612158 0.5351608955876943 -0.04983932147580144
    outer loop
      vertex -4.9956799402653 3.6295739329060215 -3
      vertex -5.542639751277437 3.04709198869335 0
      vertex -5.117032489421542 3.717741720749893 0
    endloop
  endfacet
  facet normal -0.7695556865203672 0.6366318303218885 -0.0498393214758013
    outer loop
      vertex -4.501381274327217 4.227078379109652 -3
      vertex -5.117032489421542 3.717741720749893 0
      vertex -4.610726568440429 4.329760444998955 0
    endloop
  endfacet
  facet normal -0.6836963841928086 0.7280627007864852 -0.04983932147580132
    outer loop
      vertex -4.501381274327217 4.227078379109652 -3
      vertex -4.610726568440429 4.329760444998955 0
      vertex -4.031706735160462 4.873496260556868 0
    endloop
  endfacet
  facet normal -0.5870547814661028 0.8080115875361059 -0.04983932147580157
    outer loop
      vertex -3.936093136698158 4.757919274140499 -3
      vertex -4.031706735160462 4.873496260556868 0
      vertex -3.942960001528263 4.937974536762224 0
    endloop
  endfacet
  facet normal -0.5870547814661055 0.8080115875361037 -0.04983932147580145
    outer loop
      vertex -3.936093136698158 4.757919274140499 -3
      vertex -3.942960001528263 4.937974536762224 0
      vertex -3.3891044782421544 5.340374128800245 0
    endloop
  endfacet
  facet normal 0 0 -1
    outer loop
      vertex -3.308730458995305 -5.213724939974942 -3
      vertex -3.308730458995305 5.213724939974942 -3
      vertex -2.6291871254143238 5.58730704897767 -3
    endloop
  endfacet
  facet normal 0 0 -1
    outer loop
      vertex -2.6291871254143224 -5.587307048977671 -3
      vertex -2.6291871254143238 5.58730704897767 -3
      vertex -1.9081799402653001 5.872773988122573 -3
    endloop
  endfacet
  facet normal 0 0 -1
    outer loop
      vertex -1.9081799402653001 -5.872773988122573 -3
      vertex -1.9081799402653001 5.872773988122573 -3
      vertex -1.1570796175668492 6.065623773249652 -3
    endloop
  endfacet
  facet normal 0 0 -1
    outer loop
      vertex -1.1570796175668507 -6.065623773249652 -3
      vertex -1.1570796175668492 6.065623773249652 -3
      vertex -0.38773145809350945 6.1628150480445765 -3
    endloop
  endfacet
  facet normal 0 0 -1
    outer loop
      vertex -0.38773145809351245 -6.1628150480445765 -3
      vertex -0.38773145809350945 6.1628150480445765 -3
      vertex 0.38773145809350945 6.1628150480445765 -3
    endloop
  endfacet
  facet normal -0.4811549741461545 0.8752176488675517 -0.04983932147580151
    outer loop
      vertex -3.308730458995305 5.213724939974942 -3
      vertex -2.693054019149085 5.723031106847573 0
      vertex -2.6291871254143238 5.58730704897767 -3
    endloop
  endfacet
  facet normal -0.3676670654558694 0.9286210050466773 -0.049839321475801474
    outer loop
      vertex -2.6291871254143238 5.58730704897767 -3
      vertex -1.9545324894215423 6.015432465566846 0
      vertex -1.9081799402653001 5.872773988122573 -3
    endloop
  endfacet
  facet normal -0.2483808275096868 0.967379453244917 -0.04983932147580159
    outer loop
      vertex -1.9081799402653001 5.872773988122573 -3
      vertex -1.185186814754708 6.212966860858956 0
      vertex -1.1570796175668492 6.065623773249652 -3
    endloop
  endfacet
  facet normal -0.12517747553816108 0.9908817495810107 -0.04983932147580167
    outer loop
      vertex -1.1570796175668492 6.065623773249652 -3
      vertex -0.3971500360229065 6.312519057308818 0
      vertex -0.38773145809350945 6.1628150480445765 -3
    endloop
  endfacet
  facet normal 0 0.9987572488021461 -0.049839321475801654
    outer loop
      vertex -0.38773145809350945 6.1628150480445765 -3
      vertex -0.3971500360229065 6.312519057308818 0
      vertex 0.38773145809350945 6.1628150480445765 -3
    endloop
  endfacet
  facet normal -0.4811549741461548 0.8752176488675515 -0.049839321475801404
    outer loop
      vertex -3.308730458995305 5.213724939974942 -3
      vertex -3.3891044782421544 5.340374128800245 0
      vertex -2.693054019149085 5.723031106847573 0
    endloop
  endfacet
  facet normal -0.3676670654558693 0.9286210050466773 -0.049839321475801494
    outer loop
      vertex -2.6291871254143238 5.58730704897767 -3
      vertex -2.693054019149085 5.723031106847573 0
      vertex -1.9545324894215423 6.015432465566846 0
    endloop
  endfacet
  facet normal -0.24838082750968718 0.967379453244917 -0.04983932147580147
    outer loop
      vertex -1.9081799402653001 5.872773988122573 -3
      vertex -1.9545324894215423 6.015432465566846 0
      vertex -1.185186814754708 6.212966860858956 0
    endloop
  endfacet
  facet normal -0.1251774755381607 0.9908817495810108 -0.04983932147580159
    outer loop
      vertex -1.1570796175668492 6.065623773249652 -3
      vertex -1.185186814754708 6.212966860858956 0
      vertex -0.5170800015330315 6.29736837930886 0
    endloop
  endfacet
  facet normal -0.12517747553816494 0.9908817495810103 -0.04983932147580054
    outer loop
      vertex -1.1570796175668492 6.065623773249652 -3
      vertex -0.5170800015330315 6.29736837930886 0
      vertex -0.3971500360229065 6.312519057308818 0
    endloop
  endfacet
  facet normal 0 0 1
    outer loop
      vertex -6.275125485814073 -0.7927327022942232 0
      vertex -6.275125485814073 0.7927327022942232 0
      vertex -6.325 0 0
    endloop
  endfacet
  facet normal 0 0 1
    outer loop
      vertex -6.126288494138592 -1.572963536317707 0
      vertex -6.126288494138592 1.572963536317707 0
      vertex -6.275125485814073 0.7927327022942232 0
    endloop
  endfacet
  facet normal 0 0 1
    outer loop
      vertex -5.88083627324319 -2.3283877957305874 0
      vertex -5.88083627324319 2.3283877957305874 0
      vertex -6.126288494138592 1.572963536317707 0
    endloop
  endfacet
  facet normal 0 0 1
    outer loop
      vertex -5.542639751277437 -3.04709198869335 0
      vertex -5.542639751277437 3.04709198869335 0
      vertex -5.88083627324319 2.3283877957305874 0
    endloop
  endfacet
  facet normal 0 0 1
    outer loop
      vertex -5.117032489421542 -3.717741720749893 0
      vertex -5.117032489421542 3.717741720749893 0
      vertex -5.542639751277437 3.04709198869335 0
    endloop
  endfacet
  facet normal 0 0 1
    outer loop
      vertex -4.610726568440429 -4.329760444998955 0
      vertex -4.610726568440429 4.329760444998955 0
      vertex -5.117032489421542 3.717741720749893 0
    endloop
  endfacet
  facet normal 0 0 1
    outer loop
      vertex -4.031706735160462 -4.873496260556868 0
      vertex -4.031706735160462 4.873496260556868 0
      vertex -4.610726568440429 4.329760444998955 0
    endloop
  endfacet
  facet normal 0 0 1
    outer loop
      vertex -4.031706735160462 -4.873496260556868 0
      vertex -3.942960001528263 4.937974536762224 0
      vertex -4.031706735160462 4.873496260556868 0
    endloop
  endfacet
  facet normal 0 0 1
    outer loop
      vertex 0.5083199962973595 1.8735599964857101 0
      vertex -0.5170800015330315 6.29736837930886 0
      vertex -0.5170800015330315 1.8735599964857101 0
    endloop
  endfacet
  facet normal 0 0 1
    outer loop
      vertex -0.3971500360229065 6.312519057308818 0
      vertex -0.5170800015330315 6.29736837930886 0
      vertex 0.5083199962973595 1.8735599964857101 0
    endloop
  endfacet
  facet normal 0 -0.9987572488021459 -0.049839321475801654
    outer loop
      vertex -0.38773145809351245 -6.1628150480445765 -3
      vertex 0.38773145809351245 -6.1628150480445765 -3
      vertex 0.39715003602290955 -6.312519057308818 0
    endloop
  endfacet
  facet normal 0.12517747553816136 -0.9908817495810106 -0.04983932147580166
    outer loop
      vertex 0.38773145809351245 -6.1628150480445765 -3
      vertex 1.1570796175668507 -6.065623773249652 -3
      vertex 0.39715003602290955 -6.312519057308818 0
    endloop
  endfacet
  facet normal 0.24838082750968726 -0.967379453244917 -0.0498393214758013
    outer loop
      vertex 1.1570796175668507 -6.065623773249652 -3
      vertex 1.9081799402653001 -5.872773988122573 -3
      vertex 1.1851868147547096 -6.212966860858955 0
    endloop
  endfacet
  facet normal 0.3676670654558691 -0.9286210050466776 -0.049839321475801474
    outer loop
      vertex 1.9081799402653001 -5.872773988122573 -3
      vertex 2.6291871254143224 -5.587307048977671 -3
      vertex 1.9545324894215423 -6.015432465566846 0
    endloop
  endfacet
  facet normal 0.4811549741461548 -0.8752176488675516 -0.04983932147580144
    outer loop
      vertex 2.6291871254143224 -5.587307048977671 -3
      vertex 3.3087304589953015 -5.213724939974944 -3
      vertex 2.6930540191490833 -5.723031106847574 0
    endloop
  endfacet
  facet normal 0.1251774755381662 -0.9908817495810102 -0.04983932147580033
    outer loop
      vertex 1.1570796175668507 -6.065623773249652 -3
      vertex 0.5083199962973595 -6.298475025325468 0
      vertex 0.39715003602290955 -6.312519057308818 0
    endloop
  endfacet
  facet normal 0.12517747553816208 -0.9908817495810105 -0.04983932147580131
    outer loop
      vertex 1.1570796175668507 -6.065623773249652 -3
      vertex 1.1851868147547096 -6.212966860858955 0
      vertex 0.5083199962973595 -6.298475025325468 0
    endloop
  endfacet
  facet normal 0.2483808275096867 -0.9673794532449174 -0.04983932147580149
    outer loop
      vertex 1.9081799402653001 -5.872773988122573 -3
      vertex 1.9545324894215423 -6.015432465566846 0
      vertex 1.1851868147547096 -6.212966860858955 0
    endloop
  endfacet
  facet normal 0.3676670654558692 -0.9286210050466774 -0.049839321475801446
    outer loop
      vertex 2.6291871254143224 -5.587307048977671 -3
      vertex 2.6930540191490833 -5.723031106847574 0
      vertex 1.9545324894215423 -6.015432465566846 0
    endloop
  endfacet
  facet normal 0.48115497414615466 -0.8752176488675516 -0.04983932147580148
    outer loop
      vertex 3.3087304589953015 -5.213724939974944 -3
      vertex 3.3891044782421513 -5.340374128800247 0
      vertex 2.6930540191490833 -5.723031106847574 0
    endloop
  endfacet
  facet normal 0 0 -1
    outer loop
      vertex -0.38773145809351245 -6.1628150480445765 -3
      vertex 0.38773145809350945 6.1628150480445765 -3
      vertex 0.38773145809351245 -6.1628150480445765 -3
    endloop
  endfacet
  facet normal 0 0 -1
    outer loop
      vertex 0.38773145809351245 -6.1628150480445765 -3
      vertex 1.1570796175668492 6.065623773249652 -3
      vertex 1.1570796175668507 -6.065623773249652 -3
    endloop
  endfacet
  facet normal 0 0 -1
    outer loop
      vertex 1.1570796175668507 -6.065623773249652 -3
      vertex 1.9081799402653001 5.872773988122573 -3
      vertex 1.9081799402653001 -5.872773988122573 -3
    endloop
  endfacet
  facet normal 0 0 -1
    outer loop
      vertex 1.9081799402653001 -5.872773988122573 -3
      vertex 2.6291871254143238 5.58730704897767 -3
      vertex 2.6291871254143224 -5.587307048977671 -3
    endloop
  endfacet
  facet normal 0 0 -1
    outer loop
      vertex 2.6291871254143224 -5.587307048977671 -3
      vertex 3.308730458995304 5.213724939974943 -3
      vertex 3.3087304589953015 -5.213724939974944 -3
    endloop
  endfacet
  facet normal 0.5870547814661052 -0.8080115875361041 -0.049839321475801494
    outer loop
      vertex 3.3087304589953015 -5.213724939974944 -3
      vertex 3.9360931366981604 -4.757919274140497 -3
      vertex 3.3891044782421513 -5.340374128800247 0
    endloop
  endfacet
  facet normal 0.6836963841928081 -0.7280627007864856 -0.04983932147580148
    outer loop
      vertex 3.9360931366981604 -4.757919274140497 -3
      vertex 4.501381274327217 -4.227078379109652 -3
      vertex 4.031706735160464 -4.873496260556866 0
    endloop
  endfacet
  facet normal 0.7695556865203677 -0.6366318303218882 -0.049839321475801446
    outer loop
      vertex 4.501381274327217 -4.227078379109652 -3
      vertex 4.9956799402653 -3.6295739329060215 -3
      vertex 5.117032489421542 -3.717741720749893 0
    endloop
  endfacet
  facet normal 0.5870547814661052 -0.808011587536104 -0.04983932147580147
    outer loop
      vertex 3.9360931366981604 -4.757919274140497 -3
      vertex 3.934199996292591 -4.944339053111489 0
      vertex 3.3891044782421513 -5.340374128800247 0
    endloop
  endfacet
  facet normal 0.5870547814661047 -0.8080115875361044 -0.04983932147580148
    outer loop
      vertex 3.9360931366981604 -4.757919274140497 -3
      vertex 4.031706735160464 -4.873496260556866 0
      vertex 3.934199996292591 -4.944339053111489 0
    endloop
  endfacet
  facet normal 0.6836963841928086 -0.7280627007864853 -0.04983932147580132
    outer loop
      vertex 4.501381274327217 -4.227078379109652 -3
      vertex 4.610726568440429 -4.329760444998955 0
      vertex 4.031706735160464 -4.873496260556866 0
    endloop
  endfacet
  facet normal 0.7695556865203672 -0.6366318303218885 -0.0498393214758013
    outer loop
      vertex 4.501381274327217 -4.227078379109652 -3
      vertex 5.117032489421542 -3.717741720749893 0
      vertex 4.610726568440429 -4.329760444998955 0
    endloop
  endfacet
  facet normal 0.8432786359612158 -0.5351608955876943 -0.04983932147580144
    outer loop
      vertex 4.9956799402653 -3.6295739329060215 -3
      vertex 5.542639751277437 -3.04709198869335 0
      vertex 5.117032489421542 -3.717741720749893 0
    endloop
  endfacet
  facet normal 0 0 -1
    outer loop
      vertex 3.3087304589953015 -5.213724939974944 -3
      vertex 3.936093136698159 4.757919274140498 -3
      vertex 3.9360931366981604 -4.757919274140497 -3
    endloop
  endfacet
  facet normal 0 0 -1
    outer loop
      vertex 3.9360931366981604 -4.757919274140497 -3
      vertex 4.501381274327216 4.227078379109653 -3
      vertex 4.501381274327217 -4.227078379109652 -3
    endloop
  endfacet
  facet normal 0.843278635961216 -0.535160895587694 -0.049839321475801536
    outer loop
      vertex 4.9956799402653 -3.6295739329060215 -3
      vertex 5.411193749270857 -2.9748289375780925 -3
      vertex 5.542639751277437 -3.04709198869335 0
    endloop
  endfacet
  facet normal 0.9037025775627164 -0.42525015384045944 -0.049839321475801404
    outer loop
      vertex 5.411193749270857 -2.9748289375780925 -3
      vertex 5.741369800359951 -2.273169112827889 -3
      vertex 5.880836273243189 -2.3283877957305905 0
    endloop
  endfacet
  facet normal 0.9498745896703011 -0.30863296313503036 -0.04983932147580138
    outer loop
      vertex 5.741369800359951 -2.273169112827889 -3
      vertex 5.981001019969297 -1.535660053242976 -3
      vertex 6.126288494138592 -1.5729635363177044 0
    endloop
  endfacet
  facet normal 0 0 -1
    outer loop
      vertex 4.501381274327217 -4.227078379109652 -3
      vertex 4.9956799402653 3.6295739329060215 -3
      vertex 4.9956799402653 -3.6295739329060215 -3
    endloop
  endfacet
  facet normal 0 0 -1
    outer loop
      vertex 4.9956799402653 -3.6295739329060215 -3
      vertex 5.411193749270858 2.974828937578092 -3
      vertex 5.411193749270857 -2.9748289375780925 -3
    endloop
  endfacet
  facet normal 0 0 -1
    outer loop
      vertex 5.411193749270857 -2.9748289375780925 -3
      vertex 5.741369800359952 2.2731691128278864 -3
      vertex 5.741369800359951 -2.273169112827889 -3
    endloop
  endfacet
  facet normal 0 0 -1
    outer loop
      vertex 5.741369800359951 -2.273169112827889 -3
      vertex 5.9810010199692965 1.5356600532429783 -3
      vertex 5.981001019969297 -1.535660053242976 -3
    endloop
  endfacet
  facet normal 0 0 -1
    outer loop
      vertex 5.981001019969297 -1.535660053242976 -3
      vertex 6.126308280616901 0.7739327172595788 -3
      vertex 6.126308280616901 -0.7739327172595776 -3
    endloop
  endfacet
  facet normal 0.9810665120712088 -0.18714844623256846 -0.04983932147580127
    outer loop
      vertex 5.981001019969297 -1.535660053242976 -3
      vertex 6.126308280616901 -0.7739327172595776 -3
      vertex 6.275125485814073 -0.7927327022942232 0
    endloop
  endfacet
  facet normal 0.9967864295160271 -0.06271248653595363 -0.049839321475801474
    outer loop
      vertex 6.126308280616901 -0.7739327172595776 -3
      vertex 6.175 0 -3
      vertex 6.325 0 0
    endloop
  endfacet
  facet normal 0.9037025775627164 -0.4252501538404589 -0.04983932147580155
    outer loop
      vertex 5.411193749270857 -2.9748289375780925 -3
      vertex 5.880836273243189 -2.3283877957305905 0
      vertex 5.542639751277437 -3.04709198869335 0
    endloop
  endfacet
  facet normal 0.9498745896703011 -0.30863296313503014 -0.049839321475801425
    outer loop
      vertex 5.741369800359951 -2.273169112827889 -3
      vertex 6.126288494138592 -1.5729635363177044 0
      vertex 5.880836273243189 -2.3283877957305905 0
    endloop
  endfacet
  facet normal 0.9810665120712088 -0.18714844623256816 -0.04983932147580135
    outer loop
      vertex 5.981001019969297 -1.535660053242976 -3
      vertex 6.275125485814073 -0.7927327022942232 0
      vertex 6.126288494138592 -1.5729635363177044 0
    endloop
  endfacet
  facet normal 0.9967864295160269 -0.06271248653595435 -0.04983932147580126
    outer loop
      vertex 6.126308280616901 -0.7739327172595776 -3
      vertex 6.325 0 0
      vertex 6.275125485814073 -0.7927327022942232 0
    endloop
  endfacet
  facet normal 0 0 1
    outer loop
      vertex 0.39715003602290955 -6.312519057308818 0
      vertex 0.5083199962973595 -6.298475025325468 0
      vertex -0.5170800015330315 -1.0558800026774406 0
    endloop
  endfacet
  facet normal 0 0 1
    outer loop
      vertex 0.5083199962973595 -6.298475025325468 0
      vertex 0.5083199962973595 -1.0558800026774406 0
      vertex -0.5170800015330315 -1.0558800026774406 0
    endloop
  endfacet
  facet normal 0 0 1
    outer loop
      vertex 4.031706735160464 -4.873496260556866 0
      vertex 4.031706735160463 4.873496260556866 0
      vertex 3.934199996292591 -4.944339053111489 0
    endloop
  endfacet
  facet normal 0 0 1
    outer loop
      vertex 4.031706735160464 -4.873496260556866 0
      vertex 4.610726568440429 -4.329760444998955 0
      vertex 4.031706735160463 4.873496260556866 0
    endloop
  endfacet
  facet normal 0 0 1
    outer loop
      vertex 4.610726568440429 -4.329760444998955 0
      vertex 5.117032489421542 -3.717741720749893 0
      vertex 4.610726568440429 4.329760444998956 0
    endloop
  endfacet
  facet normal 0 0 1
    outer loop
      vertex 5.117032489421542 -3.717741720749893 0
      vertex 5.542639751277437 -3.04709198869335 0
      vertex 5.117032489421542 3.717741720749893 0
    endloop
  endfacet
  facet normal 0 0 1
    outer loop
      vertex 5.542639751277437 -3.04709198869335 0
      vertex 5.880836273243189 -2.3283877957305905 0
      vertex 5.542639751277437 3.0470919886933494 0
    endloop
  endfacet
  facet normal 0 0 1
    outer loop
      vertex 5.880836273243189 -2.3283877957305905 0
      vertex 6.126288494138592 -1.5729635363177044 0
      vertex 5.88083627324319 2.3283877957305883 0
    endloop
  endfacet
  facet normal 0 0 1
    outer loop
      vertex 6.126288494138592 -1.5729635363177044 0
      vertex 6.275125485814073 -0.7927327022942232 0
      vertex 6.126288494138592 1.5729635363177066 0
    endloop
  endfacet
  facet normal 0 0 -1
    outer loop
      vertex 0.38773145809351245 -6.1628150480445765 -3
      vertex 0.38773145809350945 6.1628150480445765 -3
      vertex 1.1570796175668492 6.065623773249652 -3
    endloop
  endfacet
  facet normal 0 0 -1
    outer loop
      vertex 1.1570796175668507 -6.065623773249652 -3
      vertex 1.1570796175668492 6.065623773249652 -3
      vertex 1.9081799402653001 5.872773988122573 -3
    endloop
  endfacet
  facet normal 0 0 -1
    outer loop
      vertex 1.9081799402653001 -5.872773988122573 -3
      vertex 1.9081799402653001 5.872773988122573 -3
      vertex 2.6291871254143238 5.58730704897767 -3
    endloop
  endfacet
  facet normal 0 0 -1
    outer loop
      vertex 2.6291871254143224 -5.587307048977671 -3
      vertex 2.6291871254143238 5.58730704897767 -3
      vertex 3.308730458995304 5.213724939974943 -3
    endloop
  endfacet
  facet normal 0.12517747553816108 0.9908817495810107 -0.049839321475801654
    outer loop
      vertex 0.38773145809350945 6.1628150480445765 -3
      vertex 0.3971500360229065 6.312519057308818 0
      vertex 1.1570796175668492 6.065623773249652 -3
    endloop
  endfacet
  facet normal 0.2483808275096868 0.967379453244917 -0.04983932147580159
    outer loop
      vertex 1.1570796175668492 6.065623773249652 -3
      vertex 1.185186814754708 6.212966860858956 0
      vertex 1.9081799402653001 5.872773988122573 -3
    endloop
  endfacet
  facet normal 0.3676670654558694 0.9286210050466773 -0.04983932147580147
    outer loop
      vertex 1.9081799402653001 5.872773988122573 -3
      vertex 1.9545324894215423 6.015432465566846 0
      vertex 2.6291871254143238 5.58730704897767 -3
    endloop
  endfacet
  facet normal 0.48115497414615405 0.8752176488675519 -0.04983932147580151
    outer loop
      vertex 2.6291871254143238 5.58730704897767 -3
      vertex 2.693054019149085 5.723031106847573 0
      vertex 3.308730458995304 5.213724939974943 -3
    endloop
  endfacet
  facet normal 0 0.998757248802146 -0.04983932147580166
    outer loop
      vertex -0.3971500360229065 6.312519057308818 0
      vertex 0.3971500360229065 6.312519057308818 0
      vertex 0.38773145809350945 6.1628150480445765 -3
    endloop
  endfacet
  facet normal 0.1251774755381628 0.9908817495810104 -0.04983932147580112
    outer loop
      vertex 1.1570796175668492 6.065623773249652 -3
      vertex 0.3971500360229065 6.312519057308818 0
      vertex 0.5083199962973595 6.298475025325468 0
    endloop
  endfacet
  facet normal 0.1251774755381611 0.9908817495810109 -0.049839321475801605
    outer loop
      vertex 1.1570796175668492 6.065623773249652 -3
      vertex 0.5083199962973595 6.298475025325468 0
      vertex 1.185186814754708 6.212966860858956 0
    endloop
  endfacet
  facet normal 0.24838082750968718 0.967379453244917 -0.04983932147580147
    outer loop
      vertex 1.9081799402653001 5.872773988122573 -3
      vertex 1.185186814754708 6.212966860858956 0
      vertex 1.9545324894215423 6.015432465566846 0
    endloop
  endfacet
  facet normal 0.4811549741461542 0.8752176488675519 -0.04983932147580148
    outer loop
      vertex 3.308730458995304 5.213724939974943 -3
      vertex 2.693054019149085 5.723031106847573 0
      vertex 3.389104478242154 5.340374128800246 0
    endloop
  endfacet
  facet normal 0.3676670654558693 0.9286210050466773 -0.049839321475801494
    outer loop
      vertex 2.6291871254143238 5.58730704897767 -3
      vertex 1.9545324894215423 6.015432465566846 0
      vertex 2.693054019149085 5.723031106847573 0
    endloop
  endfacet
  facet normal 0 0 -1
    outer loop
      vertex 3.3087304589953015 -5.213724939974944 -3
      vertex 3.308730458995304 5.213724939974943 -3
      vertex 3.936093136698159 4.757919274140498 -3
    endloop
  endfacet
  facet normal 0 0 -1
    outer loop
      vertex 3.9360931366981604 -4.757919274140497 -3
      vertex 3.936093136698159 4.757919274140498 -3
      vertex 4.501381274327216 4.227078379109653 -3
    endloop
  endfacet
  facet normal 0 0 -1
    outer loop
      vertex 4.501381274327217 -4.227078379109652 -3
      vertex 4.501381274327216 4.227078379109653 -3
      vertex 4.9956799402653 3.6295739329060215 -3
    endloop
  endfacet
  facet normal 0 0 -1
    outer loop
      vertex 5.411193749270857 -2.9748289375780925 -3
      vertex 5.411193749270858 2.974828937578092 -3
      vertex 5.741369800359952 2.2731691128278864 -3
    endloop
  endfacet
  facet normal 0 0 -1
    outer loop
      vertex 4.9956799402653 -3.6295739329060215 -3
      vertex 4.9956799402653 3.6295739329060215 -3
      vertex 5.411193749270858 2.974828937578092 -3
    endloop
  endfacet
  facet normal 0 0 -1
    outer loop
      vertex 5.741369800359951 -2.273169112827889 -3
      vertex 5.741369800359952 2.2731691128278864 -3
      vertex 5.9810010199692965 1.5356600532429783 -3
    endloop
  endfacet
  facet normal 0 0 -1
    outer loop
      vertex 5.981001019969297 -1.535660053242976 -3
      vertex 5.9810010199692965 1.5356600532429783 -3
      vertex 6.126308280616901 0.7739327172595788 -3
    endloop
  endfacet
  facet normal 0 0 -1
    outer loop
      vertex 6.126308280616901 -0.7739327172595776 -3
      vertex 6.126308280616901 0.7739327172595788 -3
      vertex 6.175 0 -3
    endloop
  endfacet
  facet normal 0.9967864295160271 0.06271248653595353 -0.049839321475801474
    outer loop
      vertex 6.175 0 -3
      vertex 6.126308280616901 0.7739327172595788 -3
      vertex 6.325 0 0
    endloop
  endfacet
  facet normal 0.9810665120712085 0.18714844623256932 -0.049839321475801265
    outer loop
      vertex 6.126308280616901 0.7739327172595788 -3
      vertex 5.9810010199692965 1.5356600532429783 -3
      vertex 6.275125485814073 0.7927327022942244 0
    endloop
  endfacet
  facet normal 0.8432786359612156 0.5351608955876945 -0.04983932147580128
    outer loop
      vertex 5.411193749270858 2.974828937578092 -3
      vertex 4.9956799402653 3.6295739329060215 -3
      vertex 5.542639751277437 3.0470919886933494 0
    endloop
  endfacet
  facet normal 0.9498745896703011 0.30863296313503 -0.04983932147580164
    outer loop
      vertex 5.9810010199692965 1.5356600532429783 -3
      vertex 5.741369800359952 2.2731691128278864 -3
      vertex 6.126288494138592 1.5729635363177066 0
    endloop
  endfacet
  facet normal 0.9037025775627169 0.42525015384045833 -0.049839321475801474
    outer loop
      vertex 5.411193749270858 2.974828937578092 -3
      vertex 5.88083627324319 2.3283877957305883 0
      vertex 5.741369800359952 2.2731691128278864 -3
    endloop
  endfacet
  facet normal 0.9967864295160269 0.06271248653595426 -0.049839321475801265
    outer loop
      vertex 6.126308280616901 0.7739327172595788 -3
      vertex 6.275125485814073 0.7927327022942244 0
      vertex 6.325 0 0
    endloop
  endfacet
  facet normal 0.9810665120712089 0.18714844623256796 -0.04983932147580165
    outer loop
      vertex 5.9810010199692965 1.5356600532429783 -3
      vertex 6.126288494138592 1.5729635363177066 0
      vertex 6.275125485814073 0.7927327022942244 0
    endloop
  endfacet
  facet normal 0.9498745896703009 0.3086329631350307 -0.04983932147580146
    outer loop
      vertex 5.741369800359952 2.2731691128278864 -3
      vertex 5.88083627324319 2.3283877957305883 0
      vertex 6.126288494138592 1.5729635363177066 0
    endloop
  endfacet
  facet normal 0.9037025775627165 0.42525015384045894 -0.04983932147580128
    outer loop
      vertex 5.411193749270858 2.974828937578092 -3
      vertex 5.542639751277437 3.0470919886933494 0
      vertex 5.88083627324319 2.3283877957305883 0
    endloop
  endfacet
  facet normal 0.6836963841928079 0.7280627007864859 -0.049839321475801356
    outer loop
      vertex 4.501381274327216 4.227078379109653 -3
      vertex 3.936093136698159 4.757919274140498 -3
      vertex 4.031706735160463 4.873496260556866 0
    endloop
  endfacet
  facet normal 0.5870547814661062 0.8080115875361035 -0.04983932147580149
    outer loop
      vertex 3.308730458995304 5.213724939974943 -3
      vertex 3.389104478242154 5.340374128800246 0
      vertex 3.936093136698159 4.757919274140498 -3
    endloop
  endfacet
  facet normal 0.7695556865203674 0.6366318303218883 -0.04983932147580143
    outer loop
      vertex 4.501381274327216 4.227078379109653 -3
      vertex 5.117032489421542 3.717741720749893 0
      vertex 4.9956799402653 3.6295739329060215 -3
    endloop
  endfacet
  facet normal 0.7695556865203678 0.6366318303218881 -0.04983932147580153
    outer loop
      vertex 4.501381274327216 4.227078379109653 -3
      vertex 4.610726568440429 4.329760444998956 0
      vertex 5.117032489421542 3.717741720749893 0
    endloop
  endfacet
  facet normal 0.5870547814661082 0.8080115875361018 -0.04983932147580135
    outer loop
      vertex 3.936093136698159 4.757919274140498 -3
      vertex 3.934199996292591 4.944339053111489 0
      vertex 4.031706735160463 4.873496260556866 0
    endloop
  endfacet
  facet normal 0.6836963841928074 0.7280627007864863 -0.04983932147580151
    outer loop
      vertex 4.501381274327216 4.227078379109653 -3
      vertex 4.031706735160463 4.873496260556866 0
      vertex 4.610726568440429 4.329760444998956 0
    endloop
  endfacet
  facet normal 0.5870547814661062 0.8080115875361032 -0.04983932147580144
    outer loop
      vertex 3.936093136698159 4.757919274140498 -3
      vertex 3.389104478242154 5.340374128800246 0
      vertex 3.934199996292591 4.944339053111489 0
    endloop
  endfacet
  facet normal 0.8432786359612159 0.5351608955876941 -0.04983932147580143
    outer loop
      vertex 4.9956799402653 3.6295739329060215 -3
      vertex 5.117032489421542 3.717741720749893 0
      vertex 5.542639751277437 3.0470919886933494 0
    endloop
  endfacet
  facet normal 0 0 1
    outer loop
      vertex -0.3971500360229065 6.312519057308818 0
      vertex 0.5083199962973595 1.8735599964857101 0
      vertex 0.3971500360229065 6.312519057308818 0
    endloop
  endfacet
  facet normal 0 0 1
    outer loop
      vertex 0.3971500360229065 6.312519057308818 0
      vertex 0.5083199962973595 1.8735599964857101 0
      vertex 0.5083199962973595 6.298475025325468 0
    endloop
  endfacet
  facet normal 0 0 1
    outer loop
      vertex 4.031706735160463 4.873496260556866 0
      vertex 3.934199996292591 4.944339053111489 0
      vertex 3.934199996292591 -4.944339053111489 0
    endloop
  endfacet
  facet normal 0 0 1
    outer loop
      vertex 4.610726568440429 -4.329760444998955 0
      vertex 4.610726568440429 4.329760444998956 0
      vertex 4.031706735160463 4.873496260556866 0
    endloop
  endfacet
  facet normal 0 0 1
    outer loop
      vertex 5.117032489421542 -3.717741720749893 0
      vertex 5.117032489421542 3.717741720749893 0
      vertex 4.610726568440429 4.329760444998956 0
    endloop
  endfacet
  facet normal 0 0 1
    outer loop
      vertex 5.542639751277437 -3.04709198869335 0
      vertex 5.542639751277437 3.0470919886933494 0
      vertex 5.117032489421542 3.717741720749893 0
    endloop
  endfacet
  facet normal 0 0 1
    outer loop
      vertex 6.275125485814073 -0.7927327022942232 0
      vertex 6.325 0 0
      vertex 6.275125485814073 0.7927327022942244 0
    endloop
  endfacet
  facet normal 0 0 1
    outer loop
      vertex 6.126288494138592 -1.5729635363177044 0
      vertex 6.126288494138592 1.5729635363177066 0
      vertex 5.88083627324319 2.3283877957305883 0
    endloop
  endfacet
  facet normal 0 0 1
    outer loop
      vertex 6.275125485814073 -0.7927327022942232 0
      vertex 6.275125485814073 0.7927327022942244 0
      vertex 6.126288494138592 1.5729635363177066 0
    endloop
  endfacet
  facet normal 0 0 1
    outer loop
      vertex 5.880836273243189 -2.3283877957305905 0
      vertex 5.88083627324319 2.3283877957305883 0
      vertex 5.542639751277437 3.0470919886933494 0
    endloop
  endfacet
  facet normal 0 0 -1
    outer loop
      vertex -3.942960001528263 -6.589440003037453 0
      vertex -3.3891044782421544 -5.340374128800245 0
      vertex -2.6930540191490833 -5.723031106847574 0
    endloop
  endfacet
  facet normal 0 0 -1
    outer loop
      vertex -3.942960001528263 -6.589440003037453 0
      vertex -3.942960001528263 -4.937974536762224 0
      vertex -3.3891044782421544 -5.340374128800245 0
    endloop
  endfacet
  facet normal -1 0 0
    outer loop
      vertex -3.942960001528263 -6.589440003037453 0
      vertex -3.942960001528263 6.585119999945164 2
      vertex -3.942960001528263 -4.937974536762224 0
    endloop
  endfacet
  facet normal -1 0 0
    outer loop
      vertex -3.942960001528263 -6.589440003037453 0
      vertex -3.942960001528263 -6.589440003037453 2
      vertex -3.942960001528263 6.585119999945164 2
    endloop
  endfacet
  facet normal 0 0 -1
    outer loop
      vertex -3.942960001528263 -6.589440003037453 0
      vertex -2.6930540191490833 -5.723031106847574 0
      vertex -1.9545324894215423 -6.015432465566846 0
    endloop
  endfacet
  facet normal 0 0 -1
    outer loop
      vertex -3.942960001528263 -6.589440003037453 0
      vertex -1.9545324894215423 -6.015432465566846 0
      vertex -1.1851868147547096 -6.212966860858955 0
    endloop
  endfacet
  facet normal 0 0 -1
    outer loop
      vertex -3.942960001528263 -6.589440003037453 0
      vertex -1.1851868147547096 -6.212966860858955 0
      vertex -0.5170800015330315 -6.589440003037453 0
    endloop
  endfacet
  facet normal 0 -1 0
    outer loop
      vertex -3.942960001528263 -6.589440003037453 0
      vertex -0.5170800015330315 -6.589440003037453 0
      vertex -3.942960001528263 -6.589440003037453 2
    endloop
  endfacet
  facet normal 0 0 -1
    outer loop
      vertex -0.5170800015330315 -6.589440003037453 0
      vertex -1.1851868147547096 -6.212966860858955 0
      vertex -0.5170800015330315 -6.297368379308861 0
    endloop
  endfacet
  facet normal 1 0 0
    outer loop
      vertex -0.5170800015330315 -6.589440003037453 0
      vertex -0.5170800015330315 -6.297368379308861 0
      vertex -0.5170800015330315 -6.589440003037453 2
    endloop
  endfacet
  facet normal 1 0 0
    outer loop
      vertex -0.5170800015330315 -6.589440003037453 2
      vertex -0.5170800015330315 -6.297368379308861 0
      vertex -0.5170800015330315 -1.0558800026774406 0
    endloop
  endfacet
  facet normal 0 -1 0
    outer loop
      vertex -0.5170800015330315 -6.589440003037453 0
      vertex -0.5170800015330315 -6.589440003037453 2
      vertex -3.942960001528263 -6.589440003037453 2
    endloop
  endfacet
  facet normal 0 0 1
    outer loop
      vertex -3.942960001528263 -6.589440003037453 2
      vertex -0.5170800015330315 -6.589440003037453 2
      vertex -0.5170800015330315 -1.0558800026774406 2
    endloop
  endfacet
  facet normal 0 -1 0
    outer loop
      vertex -0.5170800015330315 -1.0558800026774406 2
      vertex -0.5170800015330315 -1.0558800026774406 0
      vertex 0.5083199962973595 -1.0558800026774406 0
    endloop
  endfacet
  facet normal 0 0 1
    outer loop
      vertex -3.942960001528263 -6.589440003037453 2
      vertex -0.5170800015330315 -1.0558800026774406 2
      vertex -0.5170800015330315 1.8735599964857101 2
    endloop
  endfacet
  facet normal 1 0 0
    outer loop
      vertex -0.5170800015330315 -6.589440003037453 2
      vertex -0.5170800015330315 -1.0558800026774406 0
      vertex -0.5170800015330315 -1.0558800026774406 2
    endloop
  endfacet
  facet normal -1 0 0
    outer loop
      vertex -3.942960001528263 6.585119999945164 2
      vertex -3.942960001528263 4.937974536762224 0
      vertex -3.942960001528263 -4.937974536762224 0
    endloop
  endfacet
  facet normal 0 0 -1
    outer loop
      vertex -3.942960001528263 6.585119999945164 0
      vertex -3.3891044782421544 5.340374128800245 0
      vertex -3.942960001528263 4.937974536762224 0
    endloop
  endfacet
  facet normal 0 0 -1
    outer loop
      vertex -3.942960001528263 6.585119999945164 0
      vertex -2.693054019149085 5.723031106847573 0
      vertex -3.3891044782421544 5.340374128800245 0
    endloop
  endfacet
  facet normal -1 0 0
    outer loop
      vertex -3.942960001528263 6.585119999945164 0
      vertex -3.942960001528263 4.937974536762224 0
      vertex -3.942960001528263 6.585119999945164 2
    endloop
  endfacet
  facet normal 0 0 1
    outer loop
      vertex -3.942960001528263 -6.589440003037453 2
      vertex -0.5170800015330315 1.8735599964857101 2
      vertex -3.942960001528263 6.585119999945164 2
    endloop
  endfacet
  facet normal 0 0 1
    outer loop
      vertex -0.5170800015330315 -1.0558800026774406 2
      vertex 0.5083199962973595 1.8735599964857101 2
      vertex -0.5170800015330315 1.8735599964857101 2
    endloop
  endfacet
  facet normal 0 1 0
    outer loop
      vertex -0.5170800015330315 1.8735599964857101 2
      vertex 0.5083199962973595 1.8735599964857101 2
      vertex -0.5170800015330315 1.8735599964857101 0
    endloop
  endfacet
  facet normal 0 0 -1
    outer loop
      vertex -3.942960001528263 6.585119999945164 0
      vertex -1.9545324894215423 6.015432465566846 0
      vertex -2.693054019149085 5.723031106847573 0
    endloop
  endfacet
  facet normal 0 0 -1
    outer loop
      vertex -3.942960001528263 6.585119999945164 0
      vertex -1.185186814754708 6.212966860858956 0
      vertex -1.9545324894215423 6.015432465566846 0
    endloop
  endfacet
  facet normal 0 0 -1
    outer loop
      vertex -3.942960001528263 6.585119999945164 0
      vertex -0.5170800015330315 6.585119999945164 0
      vertex -1.185186814754708 6.212966860858956 0
    endloop
  endfacet
  facet normal 0 1 0
    outer loop
      vertex -3.942960001528263 6.585119999945164 0
      vertex -0.5170800015330315 6.585119999945164 2
      vertex -0.5170800015330315 6.585119999945164 0
    endloop
  endfacet
  facet normal 1 0 0
    outer loop
      vertex -0.5170800015330315 1.8735599964857101 2
      vertex -0.5170800015330315 1.8735599964857101 0
      vertex -0.5170800015330315 6.29736837930886 0
    endloop
  endfacet
  facet normal 1 0 0
    outer loop
      vertex -0.5170800015330315 6.585119999945164 0
      vertex -0.5170800015330315 1.8735599964857101 2
      vertex -0.5170800015330315 6.29736837930886 0
    endloop
  endfacet
  facet normal 0 0 -1
    outer loop
      vertex -0.5170800015330315 6.585119999945164 0
      vertex -0.5170800015330315 6.29736837930886 0
      vertex -1.185186814754708 6.212966860858956 0
    endloop
  endfacet
  facet normal 0 1 0
    outer loop
      vertex -3.942960001528263 6.585119999945164 0
      vertex -3.942960001528263 6.585119999945164 2
      vertex -0.5170800015330315 6.585119999945164 2
    endloop
  endfacet
  facet normal 0 0 1
    outer loop
      vertex -3.942960001528263 6.585119999945164 2
      vertex -0.5170800015330315 1.8735599964857101 2
      vertex -0.5170800015330315 6.585119999945164 2
    endloop
  endfacet
  facet normal 1 0 0
    outer loop
      vertex -0.5170800015330315 6.585119999945164 0
      vertex -0.5170800015330315 6.585119999945164 2
      vertex -0.5170800015330315 1.8735599964857101 2
    endloop
  endfacet
  facet normal 0 0 -1
    outer loop
      vertex 0.5083199962973595 -6.589440003037453 0
      vertex 0.5083199962973595 -6.298475025325468 0
      vertex 1.1851868147547096 -6.212966860858955 0
    endloop
  endfacet
  facet normal -1 0 0
    outer loop
      vertex 0.5083199962973595 -6.589440003037453 0
      vertex 0.5083199962973595 -1.0558800026774406 2
      vertex 0.5083199962973595 -6.298475025325468 0
    endloop
  endfacet
  facet normal 0 0 -1
    outer loop
      vertex 0.5083199962973595 -6.589440003037453 0
      vertex 1.1851868147547096 -6.212966860858955 0
      vertex 3.934199996292591 -6.589440003037453 0
    endloop
  endfacet
  facet normal 0 0 -1
    outer loop
      vertex 3.934199996292591 -6.589440003037453 0
      vertex 1.1851868147547096 -6.212966860858955 0
      vertex 1.9545324894215423 -6.015432465566846 0
    endloop
  endfacet
  facet normal 0 0 -1
    outer loop
      vertex 3.934199996292591 -6.589440003037453 0
      vertex 1.9545324894215423 -6.015432465566846 0
      vertex 2.6930540191490833 -5.723031106847574 0
    endloop
  endfacet
  facet normal 0 -1 0
    outer loop
      vertex 0.5083199962973595 -6.589440003037453 0
      vertex 3.934199996292591 -6.589440003037453 0
      vertex 0.5083199962973595 -6.589440003037453 2
    endloop
  endfacet
  facet normal -1 0 0
    outer loop
      vertex 0.5083199962973595 -6.589440003037453 0
      vertex 0.5083199962973595 -6.589440003037453 2
      vertex 0.5083199962973595 -1.0558800026774406 2
    endloop
  endfacet
  facet normal 0 -1 0
    outer loop
      vertex 3.934199996292591 -6.589440003037453 0
      vertex 3.934199996292591 -6.589440003037453 2
      vertex 0.5083199962973595 -6.589440003037453 2
    endloop
  endfacet
  facet normal 0 0 1
    outer loop
      vertex 0.5083199962973595 -6.589440003037453 2
      vertex 3.934199996292591 -6.589440003037453 2
      vertex 0.5083199962973595 -1.0558800026774406 2
    endloop
  endfacet
  facet normal -1 0 0
    outer loop
      vertex 0.5083199962973595 -1.0558800026774406 2
      vertex 0.5083199962973595 -1.0558800026774406 0
      vertex 0.5083199962973595 -6.298475025325468 0
    endloop
  endfacet
  facet normal 0 -1 0
    outer loop
      vertex -0.5170800015330315 -1.0558800026774406 2
      vertex 0.5083199962973595 -1.0558800026774406 0
      vertex 0.5083199962973595 -1.0558800026774406 2
    endloop
  endfacet
  facet normal 0 0 1
    outer loop
      vertex -0.5170800015330315 -1.0558800026774406 2
      vertex 0.5083199962973595 -1.0558800026774406 2
      vertex 0.5083199962973595 1.8735599964857101 2
    endloop
  endfacet
  facet normal 0 0 1
    outer loop
      vertex 0.5083199962973595 -1.0558800026774406 2
      vertex 3.934199996292591 -6.589440003037453 2
      vertex 0.5083199962973595 1.8735599964857101 2
    endloop
  endfacet
  facet normal 0 0 -1
    outer loop
      vertex 3.934199996292591 -6.589440003037453 0
      vertex 2.6930540191490833 -5.723031106847574 0
      vertex 3.3891044782421513 -5.340374128800247 0
    endloop
  endfacet
  facet normal 0 0 -1
    outer loop
      vertex 3.934199996292591 -6.589440003037453 0
      vertex 3.3891044782421513 -5.340374128800247 0
      vertex 3.934199996292591 -4.944339053111489 0
    endloop
  endfacet
  facet normal 1 0 0
    outer loop
      vertex 3.934199996292591 -6.589440003037453 0
      vertex 3.934199996292591 -4.944339053111489 0
      vertex 3.934199996292591 -6.589440003037453 2
    endloop
  endfacet
  facet normal 1 0 0
    outer loop
      vertex 3.934199996292591 -6.589440003037453 2
      vertex 3.934199996292591 -4.944339053111489 0
      vertex 3.934199996292591 4.944339053111489 0
    endloop
  endfacet
  facet normal 0 1 0
    outer loop
      vertex 0.5083199962973595 1.8735599964857101 2
      vertex 0.5083199962973595 1.8735599964857101 0
      vertex -0.5170800015330315 1.8735599964857101 0
    endloop
  endfacet
  facet normal 0 0 1
    outer loop
      vertex 3.934199996292591 -6.589440003037453 2
      vertex 3.934199996292591 6.585119999945164 2
      vertex 0.5083199962973595 1.8735599964857101 2
    endloop
  endfacet
  facet normal -1 0 0
    outer loop
      vertex 0.5083199962973595 6.585119999945164 2
      vertex 0.5083199962973595 6.298475025325468 0
      vertex 0.5083199962973595 1.8735599964857101 0
    endloop
  endfacet
  facet normal 0 0 -1
    outer loop
      vertex 0.5083199962973595 6.585119999945164 0
      vertex 1.185186814754708 6.212966860858956 0
      vertex 0.5083199962973595 6.298475025325468 0
    endloop
  endfacet
  facet normal -1 0 0
    outer loop
      vertex 0.5083199962973595 6.585119999945164 0
      vertex 0.5083199962973595 6.298475025325468 0
      vertex 0.5083199962973595 6.585119999945164 2
    endloop
  endfacet
  facet normal 0 0 -1
    outer loop
      vertex 0.5083199962973595 6.585119999945164 0
      vertex 3.934199996292591 6.585119999945164 0
      vertex 1.185186814754708 6.212966860858956 0
    endloop
  endfacet
  facet normal 0 0 -1
    outer loop
      vertex 3.934199996292591 6.585119999945164 0
      vertex 1.9545324894215423 6.015432465566846 0
      vertex 1.185186814754708 6.212966860858956 0
    endloop
  endfacet
  facet normal 0 0 -1
    outer loop
      vertex 3.934199996292591 6.585119999945164 0
      vertex 2.693054019149085 5.723031106847573 0
      vertex 1.9545324894215423 6.015432465566846 0
    endloop
  endfacet
  facet normal 0 1 0
    outer loop
      vertex 0.5083199962973595 6.585119999945164 0
      vertex 3.934199996292591 6.585119999945164 2
      vertex 3.934199996292591 6.585119999945164 0
    endloop
  endfacet
  facet normal -1 0 0
    outer loop
      vertex 0.5083199962973595 1.8735599964857101 2
      vertex 0.5083199962973595 6.585119999945164 2
      vertex 0.5083199962973595 1.8735599964857101 0
    endloop
  endfacet
  facet normal 0 1 0
    outer loop
      vertex 0.5083199962973595 6.585119999945164 0
      vertex 0.5083199962973595 6.585119999945164 2
      vertex 3.934199996292591 6.585119999945164 2
    endloop
  endfacet
  facet normal 0 0 1
    outer loop
      vertex 0.5083199962973595 1.8735599964857101 2
      vertex 3.934199996292591 6.585119999945164 2
      vertex 0.5083199962973595 6.585119999945164 2
    endloop
  endfacet
  facet normal 1 0 0
    outer loop
      vertex 3.934199996292591 -6.589440003037453 2
      vertex 3.934199996292591 4.944339053111489 0
      vertex 3.934199996292591 6.585119999945164 0
    endloop
  endfacet
  facet normal 1 0 0
    outer loop
      vertex 3.934199996292591 -6.589440003037453 2
      vertex 3.934199996292591 6.585119999945164 0
      vertex 3.934199996292591 6.585119999945164 2
    endloop
  endfacet
  facet normal 0 0 -1
    outer loop
      vertex 3.934199996292591 6.585119999945164 0
      vertex 3.934199996292591 4.944339053111489 0
      vertex 3.389104478242154 5.340374128800246 0
    endloop
  endfacet
  facet normal 0 0 -1
    outer loop
      vertex 3.934199996292591 6.585119999945164 0
      vertex 3.389104478242154 5.340374128800246 0
      vertex 2.693054019149085 5.723031106847573 0
    endloop
  endfacet
endsolid OpenSCAD_Model
