solid OpenSCAD_Model
  facet normal -0.8443279255020152 -0.5358267949789965 0
    outer loop
      vertex -10.112712429686843 -7.347315653655914 -4.5
      vertex -10.953833500548294 -6.021920926271442 0
      vertex -10.953833500548294 -6.021920926271442 -4.5
    endloop
  endfacet
  facet normal -0.7705132427757891 -0.6374239897486897 0
    outer loop
      vertex -10.112712429686843 -7.347315653655914 -4.5
      vertex -9.112107842767646 -8.556838824108606 -4.5
      vertex -10.112712429686843 -7.347315653655914 0
    endloop
  endfacet
  facet normal -0.5877852522924725 -0.8090169943749479 0
    outer loop
      vertex -7.96779987185862 -9.631415534697368 -4.5
      vertex -6.6978349372374595 -10.554099068775187 -4.5
      vertex -6.6978349372374595 -10.554099068775187 0
    endloop
  endfacet
  facet normal -0.6845471059286893 -0.7289686274214109 0
    outer loop
      vertex -7.96779987185862 -9.631415534697368 -4.5
      vertex -7.96779987185862 -9.631415534697368 0
      vertex -9.112107842767646 -8.556838824108606 -4.5
    endloop
  endfacet
  facet normal 0 0 -1
    outer loop
      vertex -11.622206073603143 -4.601556908558473 -4.5
      vertex -12.107289514107888 -3.1086235895606857 -4.5
      vertex -11.622206073603143 4.601556908558473 -4.5
    endloop
  endfacet
  facet normal 0 0 -1
    outer loop
      vertex -12.107289514107888 -3.1086235895606857 -4.5
      vertex -12.401433766430973 -1.5666654195538008 -4.5
      vertex -12.107289514107888 3.1086235895606857 -4.5
    endloop
  endfacet
  facet normal 0 0 -1
    outer loop
      vertex -10.953833500548294 -6.021920926271442 -4.5
      vertex -11.622206073603143 -4.601556908558473 -4.5
      vertex -10.953833500548294 6.021920926271442 -4.5
    endloop
  endfacet
  facet normal 0 0 -1
    outer loop
      vertex -10.112712429686843 -7.347315653655914 -4.5
      vertex -10.953833500548294 -6.021920926271442 -4.5
      vertex -10.112712429686843 7.347315653655914 -4.5
    endloop
  endfacet
  facet normal 0 0 -1
    outer loop
      vertex -10.112712429686843 -7.347315653655914 -4.5
      vertex -9.112107842767646 8.556838824108606 -4.5
      vertex -9.112107842767646 -8.556838824108606 -4.5
    endloop
  endfacet
  facet normal 0 0 -1
    outer loop
      vertex -7.96779987185862 -9.631415534697368 -4.5
      vertex -6.6978349372374595 10.554099068775187 -4.5
      vertex -6.6978349372374595 -10.554099068775187 -4.5
    endloop
  endfacet
  facet normal 0 0 -1
    outer loop
      vertex -7.96779987185862 -9.631415534697368 -4.5
      vertex -9.112107842767646 -8.556838824108606 -4.5
      vertex -7.96779987185862 9.631415534697368 -4.5
    endloop
  endfacet
  facet normal -0.9048270524660195 -0.42577929156507294 0
    outer loop
      vertex -10.953833500548294 -6.021920926271442 -4.5
      vertex -11.622206073603143 -4.601556908558473 0
      vertex -11.622206073603143 -4.601556908558473 -4.5
    endloop
  endfacet
  facet normal -0.9510565162951536 -0.309016994374947 0
    outer loop
      vertex -11.622206073603143 -4.601556908558473 -4.5
      vertex -12.107289514107888 -3.1086235895606857 0
      vertex -12.107289514107888 -3.1086235895606857 -4.5
    endloop
  endfacet
  facet normal -0.9822872507286887 -0.18738131458572457 0
    outer loop
      vertex -12.107289514107888 -3.1086235895606857 -4.5
      vertex -12.401433766430973 -1.5666654195538008 0
      vertex -12.401433766430973 -1.5666654195538008 -4.5
    endloop
  endfacet
  facet normal -0.9980267284282716 -0.0627905195293135 0
    outer loop
      vertex -12.401433766430973 -1.5666654195538008 -4.5
      vertex -12.5 0 0
      vertex -12.5 0 -4.5
    endloop
  endfacet
  facet normal 0 0 -1
    outer loop
      vertex -5.322241144563406 -11.310338155825244 -4.5
      vertex -2.957125000655651 -5.1218907460570335 -4.5
      vertex -3.8627124296868423 -11.888206453689419 -4.5
    endloop
  endfacet
  facet normal 0 0 -1
    outer loop
      vertex -6.6978349372374595 -10.554099068775187 -4.5
      vertex -2.957125000655651 -5.1218907460570335 -4.5
      vertex -5.322241144563406 -11.310338155825244 -4.5
    endloop
  endfacet
  facet normal 0 0 -1
    outer loop
      vertex -3.8627124296868423 -11.888206453689419 -4.5
      vertex 2.957125000655651 -5.1218907460570335 -4.5
      vertex -2.3422664323215603 -12.278590634108607 -4.5
    endloop
  endfacet
  facet normal 0 0 -1
    outer loop
      vertex -2.3422664323215603 -12.278590634108607 -4.5
      vertex 2.957125000655651 -5.1218907460570335 -4.5
      vertex -0.784881494116422 -12.475334105353394 -4.5
    endloop
  endfacet
  facet normal 0 0 -1
    outer loop
      vertex -3.8627124296868423 -11.888206453689419 -4.5
      vertex -2.957125000655651 -5.1218907460570335 -4.5
      vertex 2.957125000655651 -5.1218907460570335 -4.5
    endloop
  endfacet
  facet normal -0.48175367410171477 -0.8763066800438639 0
    outer loop
      vertex -6.6978349372374595 -10.554099068775187 -4.5
      vertex -5.322241144563406 -11.310338155825244 -4.5
      vertex -5.322241144563406 -11.310338155825244 0
    endloop
  endfacet
  facet normal -0.36812455268467786 -0.9297764858882515 0
    outer loop
      vertex -5.322241144563406 -11.310338155825244 -4.5
      vertex -3.8627124296868423 -11.888206453689419 -4.5
      vertex -3.8627124296868423 -11.888206453689419 0
    endloop
  endfacet
  facet normal -0.24868988716485477 -0.9685831611286311 0
    outer loop
      vertex -3.8627124296868423 -11.888206453689419 -4.5
      vertex -2.3422664323215603 -12.278590634108607 -4.5
      vertex -2.3422664323215603 -12.278590634108607 0
    endloop
  endfacet
  facet normal -0.12533323356430495 -0.9921147013144778 0
    outer loop
      vertex -2.3422664323215603 -12.278590634108607 -4.5
      vertex -0.784881494116422 -12.475334105353394 -4.5
      vertex -0.784881494116422 -12.475334105353394 0
    endloop
  endfacet
  facet normal 0 0 -1
    outer loop
      vertex -6.6978349372374595 -10.554099068775187 -4.5
      vertex -5.914250001311302 0 -4.5
      vertex -2.957125000655651 -5.1218907460570335 -4.5
    endloop
  endfacet
  facet normal -0.7705132427757891 -0.6374239897486897 0
    outer loop
      vertex -9.112107842767646 -8.556838824108606 -4.5
      vertex -9.112107842767646 -8.556838824108606 0
      vertex -10.112712429686843 -7.347315653655914 0
    endloop
  endfacet
  facet normal -0.8443279255020152 -0.5358267949789965 0
    outer loop
      vertex -10.112712429686843 -7.347315653655914 -4.5
      vertex -10.112712429686843 -7.347315653655914 0
      vertex -10.953833500548294 -6.021920926271442 0
    endloop
  endfacet
  facet normal -0.5877852522924725 -0.8090169943749479 0
    outer loop
      vertex -7.96779987185862 -9.631415534697368 -4.5
      vertex -6.6978349372374595 -10.554099068775187 0
      vertex -7.96779987185862 -9.631415534697368 0
    endloop
  endfacet
  facet normal -0.6845471059286893 -0.7289686274214109 0
    outer loop
      vertex -9.112107842767646 -8.556838824108606 -4.5
      vertex -7.96779987185862 -9.631415534697368 0
      vertex -9.112107842767646 -8.556838824108606 0
    endloop
  endfacet
  facet normal -0.9048270524660195 -0.42577929156507294 0
    outer loop
      vertex -10.953833500548294 -6.021920926271442 -4.5
      vertex -10.953833500548294 -6.021920926271442 0
      vertex -11.622206073603143 -4.601556908558473 0
    endloop
  endfacet
  facet normal -0.9510565162951536 -0.309016994374947 0
    outer loop
      vertex -11.622206073603143 -4.601556908558473 -4.5
      vertex -11.622206073603143 -4.601556908558473 0
      vertex -12.107289514107888 -3.1086235895606857 0
    endloop
  endfacet
  facet normal -0.9822872507286887 -0.18738131458572457 0
    outer loop
      vertex -12.107289514107888 -3.1086235895606857 -4.5
      vertex -12.107289514107888 -3.1086235895606857 0
      vertex -12.401433766430973 -1.5666654195538008 0
    endloop
  endfacet
  facet normal -0.9980267284282716 -0.0627905195293135 0
    outer loop
      vertex -12.401433766430973 -1.5666654195538008 -4.5
      vertex -12.401433766430973 -1.5666654195538008 0
      vertex -12.5 0 0
    endloop
  endfacet
  facet normal 0 0 1
    outer loop
      vertex -10.953833500548294 -6.021920926271442 0
      vertex -11.622206073603143 4.601556908558473 0
      vertex -11.622206073603143 -4.601556908558473 0
    endloop
  endfacet
  facet normal 0 0 1
    outer loop
      vertex -12.107289514107888 -3.1086235895606857 0
      vertex -12.401433766430973 1.5666654195538008 0
      vertex -12.401433766430973 -1.5666654195538008 0
    endloop
  endfacet
  facet normal 0 0 1
    outer loop
      vertex -11.622206073603143 -4.601556908558473 0
      vertex -12.107289514107888 3.1086235895606857 0
      vertex -12.107289514107888 -3.1086235895606857 0
    endloop
  endfacet
  facet normal 0 0 1
    outer loop
      vertex -10.112712429686843 -7.347315653655914 0
      vertex -10.953833500548294 6.021920926271442 0
      vertex -10.953833500548294 -6.021920926271442 0
    endloop
  endfacet
  facet normal 0 0 1
    outer loop
      vertex -10.112712429686843 -7.347315653655914 0
      vertex -9.112107842767646 -8.556838824108606 0
      vertex -10.112712429686843 7.347315653655914 0
    endloop
  endfacet
  facet normal 0 0 1
    outer loop
      vertex -7.96779987185862 -9.631415534697368 0
      vertex -9.112107842767646 8.556838824108606 0
      vertex -9.112107842767646 -8.556838824108606 0
    endloop
  endfacet
  facet normal 0 0 1
    outer loop
      vertex -7.96779987185862 -9.631415534697368 0
      vertex -6.6978349372374595 -10.554099068775187 0
      vertex -7.96779987185862 9.631415534697368 0
    endloop
  endfacet
  facet normal -0.36812455268467786 -0.9297764858882515 0
    outer loop
      vertex -5.322241144563406 -11.310338155825244 -4.5
      vertex -3.8627124296868423 -11.888206453689419 0
      vertex -5.322241144563406 -11.310338155825244 0
    endloop
  endfacet
  facet normal -0.48175367410171477 -0.8763066800438639 0
    outer loop
      vertex -6.6978349372374595 -10.554099068775187 -4.5
      vertex -5.322241144563406 -11.310338155825244 0
      vertex -6.6978349372374595 -10.554099068775187 0
    endloop
  endfacet
  facet normal -0.24868988716485477 -0.9685831611286311 0
    outer loop
      vertex -3.8627124296868423 -11.888206453689419 -4.5
      vertex -2.3422664323215603 -12.278590634108607 0
      vertex -3.8627124296868423 -11.888206453689419 0
    endloop
  endfacet
  facet normal -0.12533323356430495 -0.9921147013144778 0
    outer loop
      vertex -2.3422664323215603 -12.278590634108607 -4.5
      vertex -0.784881494116422 -12.475334105353394 0
      vertex -2.3422664323215603 -12.278590634108607 0
    endloop
  endfacet
  facet normal 0 -1 0
    outer loop
      vertex -0.784881494116422 -12.475334105353394 -4.5
      vertex 0.784881494116422 -12.475334105353394 0
      vertex -0.784881494116422 -12.475334105353394 0
    endloop
  endfacet
  facet normal 0 0 1
    outer loop
      vertex -5.322241144563406 -11.310338155825244 0
      vertex -3.8627124296868423 -11.888206453689419 0
      vertex -5.914250001311302 0 0
    endloop
  endfacet
  facet normal 0 0 1
    outer loop
      vertex -3.8627124296868423 -11.888206453689419 0
      vertex -2.3422664323215603 -12.278590634108607 0
      vertex -2.957125000655651 -5.1218907460570335 0
    endloop
  endfacet
  facet normal 0 0 1
    outer loop
      vertex -2.3422664323215603 -12.278590634108607 0
      vertex -0.784881494116422 -12.475334105353394 0
      vertex -2.957125000655651 -5.1218907460570335 0
    endloop
  endfacet
  facet normal 0 0 1
    outer loop
      vertex -0.784881494116422 -12.475334105353394 0
      vertex 0.784881494116422 -12.475334105353394 0
      vertex -2.957125000655651 -5.1218907460570335 0
    endloop
  endfacet
  facet normal 0 0 1
    outer loop
      vertex -6.6978349372374595 -10.554099068775187 0
      vertex -5.322241144563406 -11.310338155825244 0
      vertex -6.6978349372374595 10.554099068775187 0
    endloop
  endfacet
  facet normal 0 0 1
    outer loop
      vertex -3.8627124296868423 -11.888206453689419 0
      vertex -2.957125000655651 -5.1218907460570335 0
      vertex -5.914250001311302 0 0
    endloop
  endfacet
  facet normal 0 0 1
    outer loop
      vertex -5.322241144563406 -11.310338155825244 0
      vertex -5.914250001311302 0 0
      vertex -6.6978349372374595 10.554099068775187 0
    endloop
  endfacet
  facet normal 0 0 -1
    outer loop
      vertex -12.401433766430973 -1.5666654195538008 -4.5
      vertex -12.5 0 -4.5
      vertex -12.401433766430973 1.5666654195538008 -4.5
    endloop
  endfacet
  facet normal 0 0 -1
    outer loop
      vertex -12.401433766430973 -1.5666654195538008 -4.5
      vertex -12.401433766430973 1.5666654195538008 -4.5
      vertex -12.107289514107888 3.1086235895606857 -4.5
    endloop
  endfacet
  facet normal 0 0 -1
    outer loop
      vertex -12.107289514107888 -3.1086235895606857 -4.5
      vertex -12.107289514107888 3.1086235895606857 -4.5
      vertex -11.622206073603143 4.601556908558473 -4.5
    endloop
  endfacet
  facet normal 0 0 -1
    outer loop
      vertex -11.622206073603143 -4.601556908558473 -4.5
      vertex -11.622206073603143 4.601556908558473 -4.5
      vertex -10.953833500548294 6.021920926271442 -4.5
    endloop
  endfacet
  facet normal 0 0 -1
    outer loop
      vertex -10.953833500548294 -6.021920926271442 -4.5
      vertex -10.953833500548294 6.021920926271442 -4.5
      vertex -10.112712429686843 7.347315653655914 -4.5
    endloop
  endfacet
  facet normal 0 0 -1
    outer loop
      vertex -10.112712429686843 -7.347315653655914 -4.5
      vertex -10.112712429686843 7.347315653655914 -4.5
      vertex -9.112107842767646 8.556838824108606 -4.5
    endloop
  endfacet
  facet normal 0 0 -1
    outer loop
      vertex -9.112107842767646 -8.556838824108606 -4.5
      vertex -9.112107842767646 8.556838824108606 -4.5
      vertex -7.96779987185862 9.631415534697368 -4.5
    endloop
  endfacet
  facet normal 0 0 -1
    outer loop
      vertex -7.96779987185862 -9.631415534697368 -4.5
      vertex -7.96779987185862 9.631415534697368 -4.5
      vertex -6.6978349372374595 10.554099068775187 -4.5
    endloop
  endfacet
  facet normal -0.9980267284282716 0.0627905195293135 0
    outer loop
      vertex -12.5 0 -4.5
      vertex -12.401433766430973 1.5666654195538008 0
      vertex -12.401433766430973 1.5666654195538008 -4.5
    endloop
  endfacet
  facet normal -0.9822872507286887 0.18738131458572457 0
    outer loop
      vertex -12.401433766430973 1.5666654195538008 -4.5
      vertex -12.107289514107888 3.1086235895606857 0
      vertex -12.107289514107888 3.1086235895606857 -4.5
    endloop
  endfacet
  facet normal -0.9510565162951536 0.309016994374947 0
    outer loop
      vertex -12.107289514107888 3.1086235895606857 -4.5
      vertex -11.622206073603143 4.601556908558473 0
      vertex -11.622206073603143 4.601556908558473 -4.5
    endloop
  endfacet
  facet normal -0.9048270524660195 0.42577929156507294 0
    outer loop
      vertex -11.622206073603143 4.601556908558473 -4.5
      vertex -10.953833500548294 6.021920926271442 0
      vertex -10.953833500548294 6.021920926271442 -4.5
    endloop
  endfacet
  facet normal -0.8443279255020152 0.5358267949789965 0
    outer loop
      vertex -10.953833500548294 6.021920926271442 -4.5
      vertex -10.112712429686843 7.347315653655914 0
      vertex -10.112712429686843 7.347315653655914 -4.5
    endloop
  endfacet
  facet normal -0.7705132427757891 0.6374239897486897 0
    outer loop
      vertex -10.112712429686843 7.347315653655914 -4.5
      vertex -9.112107842767646 8.556838824108606 0
      vertex -9.112107842767646 8.556838824108606 -4.5
    endloop
  endfacet
  facet normal -0.6845471059286893 0.7289686274214109 0
    outer loop
      vertex -9.112107842767646 8.556838824108606 -4.5
      vertex -9.112107842767646 8.556838824108606 0
      vertex -7.96779987185862 9.631415534697368 -4.5
    endloop
  endfacet
  facet normal -0.5877852522924725 0.8090169943749479 0
    outer loop
      vertex -7.96779987185862 9.631415534697368 -4.5
      vertex -7.96779987185862 9.631415534697368 0
      vertex -6.6978349372374595 10.554099068775187 -4.5
    endloop
  endfacet
  facet normal 0 0 -1
    outer loop
      vertex -6.6978349372374595 -10.554099068775187 -4.5
      vertex -5.322241144563409 11.310338155825244 -4.5
      vertex -5.914250001311302 0 -4.5
    endloop
  endfacet
  facet normal 0 0 -1
    outer loop
      vertex -6.6978349372374595 -10.554099068775187 -4.5
      vertex -6.6978349372374595 10.554099068775187 -4.5
      vertex -5.322241144563409 11.310338155825244 -4.5
    endloop
  endfacet
  facet normal 0 0 -1
    outer loop
      vertex -3.8627124296868423 11.888206453689419 -4.5
      vertex -2.957125000655651 5.1218907460570335 -4.5
      vertex -5.914250001311302 0 -4.5
    endloop
  endfacet
  facet normal 0 0 -1
    outer loop
      vertex -5.322241144563409 11.310338155825244 -4.5
      vertex -3.8627124296868423 11.888206453689419 -4.5
      vertex -5.914250001311302 0 -4.5
    endloop
  endfacet
  facet normal 0 0 -1
    outer loop
      vertex -3.8627124296868423 11.888206453689419 -4.5
      vertex -2.342266432321557 12.278590634108609 -4.5
      vertex -2.957125000655651 5.1218907460570335 -4.5
    endloop
  endfacet
  facet normal 0 0 -1
    outer loop
      vertex -2.342266432321557 12.278590634108609 -4.5
      vertex -0.784881494116416 12.475334105353394 -4.5
      vertex -2.957125000655651 5.1218907460570335 -4.5
    endloop
  endfacet
  facet normal 0 0 -1
    outer loop
      vertex -0.784881494116416 12.475334105353394 -4.5
      vertex 0.784881494116416 12.475334105353394 -4.5
      vertex -2.957125000655651 5.1218907460570335 -4.5
    endloop
  endfacet
  facet normal -0.48175367410171577 0.8763066800438634 0
    outer loop
      vertex -6.6978349372374595 10.554099068775187 -4.5
      vertex -6.6978349372374595 10.554099068775187 0
      vertex -5.322241144563409 11.310338155825244 -4.5
    endloop
  endfacet
  facet normal -0.3681245526846771 0.9297764858882517 0
    outer loop
      vertex -5.322241144563409 11.310338155825244 -4.5
      vertex -5.322241144563409 11.310338155825244 0
      vertex -3.8627124296868423 11.888206453689419 -4.5
    endloop
  endfacet
  facet normal -0.24868988716485538 0.9685831611286311 0
    outer loop
      vertex -3.8627124296868423 11.888206453689419 -4.5
      vertex -3.8627124296868423 11.888206453689419 0
      vertex -2.342266432321557 12.278590634108609 -4.5
    endloop
  endfacet
  facet normal -0.12533323356430362 0.9921147013144779 0
    outer loop
      vertex -2.342266432321557 12.278590634108609 -4.5
      vertex -2.342266432321557 12.278590634108609 0
      vertex -0.784881494116416 12.475334105353394 -4.5
    endloop
  endfacet
  facet normal 0 1 0
    outer loop
      vertex -0.784881494116416 12.475334105353394 -4.5
      vertex -0.784881494116416 12.475334105353394 0
      vertex 0.784881494116416 12.475334105353394 -4.5
    endloop
  endfacet
  facet normal -0.9980267284282716 0.0627905195293135 0
    outer loop
      vertex -12.5 0 -4.5
      vertex -12.5 0 0
      vertex -12.401433766430973 1.5666654195538008 0
    endloop
  endfacet
  facet normal -0.9822872507286887 0.18738131458572457 0
    outer loop
      vertex -12.401433766430973 1.5666654195538008 -4.5
      vertex -12.401433766430973 1.5666654195538008 0
      vertex -12.107289514107888 3.1086235895606857 0
    endloop
  endfacet
  facet normal -0.9510565162951536 0.309016994374947 0
    outer loop
      vertex -12.107289514107888 3.1086235895606857 -4.5
      vertex -12.107289514107888 3.1086235895606857 0
      vertex -11.622206073603143 4.601556908558473 0
    endloop
  endfacet
  facet normal -0.9048270524660195 0.42577929156507294 0
    outer loop
      vertex -11.622206073603143 4.601556908558473 -4.5
      vertex -11.622206073603143 4.601556908558473 0
      vertex -10.953833500548294 6.021920926271442 0
    endloop
  endfacet
  facet normal 0 0 1
    outer loop
      vertex -12.401433766430973 -1.5666654195538008 0
      vertex -12.401433766430973 1.5666654195538008 0
      vertex -12.5 0 0
    endloop
  endfacet
  facet normal 0 0 1
    outer loop
      vertex -12.107289514107888 -3.1086235895606857 0
      vertex -12.107289514107888 3.1086235895606857 0
      vertex -12.401433766430973 1.5666654195538008 0
    endloop
  endfacet
  facet normal 0 0 1
    outer loop
      vertex -11.622206073603143 -4.601556908558473 0
      vertex -11.622206073603143 4.601556908558473 0
      vertex -12.107289514107888 3.1086235895606857 0
    endloop
  endfacet
  facet normal 0 0 1
    outer loop
      vertex -10.953833500548294 -6.021920926271442 0
      vertex -10.953833500548294 6.021920926271442 0
      vertex -11.622206073603143 4.601556908558473 0
    endloop
  endfacet
  facet normal 0 0 1
    outer loop
      vertex -10.112712429686843 -7.347315653655914 0
      vertex -10.112712429686843 7.347315653655914 0
      vertex -10.953833500548294 6.021920926271442 0
    endloop
  endfacet
  facet normal 0 0 1
    outer loop
      vertex -9.112107842767646 -8.556838824108606 0
      vertex -9.112107842767646 8.556838824108606 0
      vertex -10.112712429686843 7.347315653655914 0
    endloop
  endfacet
  facet normal 0 0 1
    outer loop
      vertex -7.96779987185862 -9.631415534697368 0
      vertex -7.96779987185862 9.631415534697368 0
      vertex -9.112107842767646 8.556838824108606 0
    endloop
  endfacet
  facet normal 0 0 1
    outer loop
      vertex -6.6978349372374595 -10.554099068775187 0
      vertex -6.6978349372374595 10.554099068775187 0
      vertex -7.96779987185862 9.631415534697368 0
    endloop
  endfacet
  facet normal -0.8443279255020152 0.5358267949789965 0
    outer loop
      vertex -10.953833500548294 6.021920926271442 -4.5
      vertex -10.953833500548294 6.021920926271442 0
      vertex -10.112712429686843 7.347315653655914 0
    endloop
  endfacet
  facet normal -0.7705132427757891 0.6374239897486897 0
    outer loop
      vertex -10.112712429686843 7.347315653655914 -4.5
      vertex -10.112712429686843 7.347315653655914 0
      vertex -9.112107842767646 8.556838824108606 0
    endloop
  endfacet
  facet normal -0.6845471059286893 0.7289686274214109 0
    outer loop
      vertex -7.96779987185862 9.631415534697368 -4.5
      vertex -9.112107842767646 8.556838824108606 0
      vertex -7.96779987185862 9.631415534697368 0
    endloop
  endfacet
  facet normal -0.5877852522924725 0.8090169943749479 0
    outer loop
      vertex -6.6978349372374595 10.554099068775187 -4.5
      vertex -7.96779987185862 9.631415534697368 0
      vertex -6.6978349372374595 10.554099068775187 0
    endloop
  endfacet
  facet normal 0 0 1
    outer loop
      vertex -6.6978349372374595 10.554099068775187 0
      vertex -5.914250001311302 0 0
      vertex -2.957125000655651 5.1218907460570335 0
    endloop
  endfacet
  facet normal -0.48175367410171577 0.8763066800438634 0
    outer loop
      vertex -5.322241144563409 11.310338155825244 -4.5
      vertex -6.6978349372374595 10.554099068775187 0
      vertex -5.322241144563409 11.310338155825244 0
    endloop
  endfacet
  facet normal -0.3681245526846771 0.9297764858882517 0
    outer loop
      vertex -3.8627124296868423 11.888206453689419 -4.5
      vertex -5.322241144563409 11.310338155825244 0
      vertex -3.8627124296868423 11.888206453689419 0
    endloop
  endfacet
  facet normal -0.24868988716485538 0.9685831611286311 0
    outer loop
      vertex -2.342266432321557 12.278590634108609 -4.5
      vertex -3.8627124296868423 11.888206453689419 0
      vertex -2.342266432321557 12.278590634108609 0
    endloop
  endfacet
  facet normal -0.12533323356430362 0.9921147013144779 0
    outer loop
      vertex -0.784881494116416 12.475334105353394 -4.5
      vertex -2.342266432321557 12.278590634108609 0
      vertex -0.784881494116416 12.475334105353394 0
    endloop
  endfacet
  facet normal 0 0 1
    outer loop
      vertex -6.6978349372374595 10.554099068775187 0
      vertex -2.957125000655651 5.1218907460570335 0
      vertex -5.322241144563409 11.310338155825244 0
    endloop
  endfacet
  facet normal 0 0 1
    outer loop
      vertex -5.322241144563409 11.310338155825244 0
      vertex -2.957125000655651 5.1218907460570335 0
      vertex -3.8627124296868423 11.888206453689419 0
    endloop
  endfacet
  facet normal 0 0 1
    outer loop
      vertex -3.8627124296868423 11.888206453689419 0
      vertex -2.957125000655651 5.1218907460570335 0
      vertex 2.957125000655651 5.1218907460570335 0
    endloop
  endfacet
  facet normal 0 0 1
    outer loop
      vertex -3.8627124296868423 11.888206453689419 0
      vertex 2.957125000655651 5.1218907460570335 0
      vertex -2.342266432321557 12.278590634108609 0
    endloop
  endfacet
  facet normal 0 0 1
    outer loop
      vertex -2.342266432321557 12.278590634108609 0
      vertex 2.957125000655651 5.1218907460570335 0
      vertex -0.784881494116416 12.475334105353394 0
    endloop
  endfacet
  facet normal 0 0 -1
    outer loop
      vertex -0.784881494116422 -12.475334105353394 -4.5
      vertex 2.957125000655651 -5.1218907460570335 -4.5
      vertex 0.784881494116422 -12.475334105353394 -4.5
    endloop
  endfacet
  facet normal 0 0 -1
    outer loop
      vertex 0.784881494116422 -12.475334105353394 -4.5
      vertex 2.957125000655651 -5.1218907460570335 -4.5
      vertex 2.3422664323215603 -12.278590634108607 -4.5
    endloop
  endfacet
  facet normal 0 0 -1
    outer loop
      vertex 2.3422664323215603 -12.278590634108607 -4.5
      vertex 2.957125000655651 -5.1218907460570335 -4.5
      vertex 3.8627124296868423 -11.888206453689419 -4.5
    endloop
  endfacet
  facet normal 0 0 -1
    outer loop
      vertex 3.8627124296868423 -11.888206453689419 -4.5
      vertex 5.914250001311302 0 -4.5
      vertex 5.322241144563406 -11.310338155825244 -4.5
    endloop
  endfacet
  facet normal 0 -1 0
    outer loop
      vertex -0.784881494116422 -12.475334105353394 -4.5
      vertex 0.784881494116422 -12.475334105353394 -4.5
      vertex 0.784881494116422 -12.475334105353394 0
    endloop
  endfacet
  facet normal 0.12533323356430495 -0.9921147013144778 0
    outer loop
      vertex 0.784881494116422 -12.475334105353394 -4.5
      vertex 2.3422664323215603 -12.278590634108607 -4.5
      vertex 2.3422664323215603 -12.278590634108607 0
    endloop
  endfacet
  facet normal 0.24868988716485477 -0.9685831611286311 0
    outer loop
      vertex 2.3422664323215603 -12.278590634108607 -4.5
      vertex 3.8627124296868423 -11.888206453689419 -4.5
      vertex 3.8627124296868423 -11.888206453689419 0
    endloop
  endfacet
  facet normal 0.36812455268467786 -0.9297764858882515 0
    outer loop
      vertex 3.8627124296868423 -11.888206453689419 -4.5
      vertex 5.322241144563406 -11.310338155825244 -4.5
      vertex 5.322241144563406 -11.310338155825244 0
    endloop
  endfacet
  facet normal 0.48175367410171493 -0.8763066800438637 0
    outer loop
      vertex 5.322241144563406 -11.310338155825244 -4.5
      vertex 6.697834937237452 -10.55409906877519 -4.5
      vertex 6.697834937237452 -10.55409906877519 0
    endloop
  endfacet
  facet normal 0 0 -1
    outer loop
      vertex 3.8627124296868423 -11.888206453689419 -4.5
      vertex 2.957125000655651 -5.1218907460570335 -4.5
      vertex 5.914250001311302 0 -4.5
    endloop
  endfacet
  facet normal 0 0 -1
    outer loop
      vertex 5.322241144563406 -11.310338155825244 -4.5
      vertex 6.697834937237459 10.554099068775189 -4.5
      vertex 6.697834937237452 -10.55409906877519 -4.5
    endloop
  endfacet
  facet normal 0 0 -1
    outer loop
      vertex 5.322241144563406 -11.310338155825244 -4.5
      vertex 5.914250001311302 0 -4.5
      vertex 6.697834937237459 10.554099068775189 -4.5
    endloop
  endfacet
  facet normal 0.5877852522924728 -0.8090169943749478 0
    outer loop
      vertex 6.697834937237452 -10.55409906877519 -4.5
      vertex 7.967799871858625 -9.631415534697362 -4.5
      vertex 7.967799871858625 -9.631415534697362 0
    endloop
  endfacet
  facet normal 0.684547105928689 -0.7289686274214113 0
    outer loop
      vertex 7.967799871858625 -9.631415534697362 -4.5
      vertex 9.112107842767646 -8.556838824108606 -4.5
      vertex 9.112107842767646 -8.556838824108606 0
    endloop
  endfacet
  facet normal 0.7705132427757891 -0.6374239897486897 0
    outer loop
      vertex 9.112107842767646 -8.556838824108606 -4.5
      vertex 10.112712429686843 -7.347315653655914 -4.5
      vertex 9.112107842767646 -8.556838824108606 0
    endloop
  endfacet
  facet normal 0.8443279255020152 -0.5358267949789965 0
    outer loop
      vertex 10.112712429686843 -7.347315653655914 -4.5
      vertex 10.953833500548294 -6.021920926271442 -4.5
      vertex 10.112712429686843 -7.347315653655914 0
    endloop
  endfacet
  facet normal 0 0 -1
    outer loop
      vertex 6.697834937237452 -10.55409906877519 -4.5
      vertex 7.967799871858622 9.631415534697364 -4.5
      vertex 7.967799871858625 -9.631415534697362 -4.5
    endloop
  endfacet
  facet normal 0 0 -1
    outer loop
      vertex 7.967799871858625 -9.631415534697362 -4.5
      vertex 9.112107842767644 8.55683882410861 -4.5
      vertex 9.112107842767646 -8.556838824108606 -4.5
    endloop
  endfacet
  facet normal 0 0 -1
    outer loop
      vertex 9.112107842767646 -8.556838824108606 -4.5
      vertex 10.112712429686843 7.347315653655914 -4.5
      vertex 10.112712429686843 -7.347315653655914 -4.5
    endloop
  endfacet
  facet normal 0 0 -1
    outer loop
      vertex 10.112712429686843 -7.347315653655914 -4.5
      vertex 10.953833500548296 6.0219209262714415 -4.5
      vertex 10.953833500548294 -6.021920926271442 -4.5
    endloop
  endfacet
  facet normal 0 0 -1
    outer loop
      vertex 10.953833500548294 -6.021920926271442 -4.5
      vertex 11.622206073603142 4.601556908558475 -4.5
      vertex 11.62220607360314 -4.6015569085584795 -4.5
    endloop
  endfacet
  facet normal 0 0 -1
    outer loop
      vertex 11.62220607360314 -4.6015569085584795 -4.5
      vertex 12.107289514107888 3.108623589560685 -4.5
      vertex 12.10728951410789 -3.1086235895606804 -4.5
    endloop
  endfacet
  facet normal 0 0 -1
    outer loop
      vertex 12.10728951410789 -3.1086235895606804 -4.5
      vertex 12.401433766430973 1.5666654195538032 -4.5
      vertex 12.401433766430973 -1.5666654195538008 -4.5
    endloop
  endfacet
  facet normal 0.9048270524660195 -0.4257792915650726 0
    outer loop
      vertex 10.953833500548294 -6.021920926271442 -4.5
      vertex 11.62220607360314 -4.6015569085584795 -4.5
      vertex 10.953833500548294 -6.021920926271442 0
    endloop
  endfacet
  facet normal 0.9510565162951534 -0.3090169943749479 0
    outer loop
      vertex 11.62220607360314 -4.6015569085584795 -4.5
      vertex 12.10728951410789 -3.1086235895606804 -4.5
      vertex 11.62220607360314 -4.6015569085584795 0
    endloop
  endfacet
  facet normal 0.9822872507286887 -0.1873813145857241 0
    outer loop
      vertex 12.10728951410789 -3.1086235895606804 -4.5
      vertex 12.401433766430973 -1.5666654195538008 -4.5
      vertex 12.10728951410789 -3.1086235895606804 0
    endloop
  endfacet
  facet normal 0.9980267284282716 -0.0627905195293135 0
    outer loop
      vertex 12.401433766430973 -1.5666654195538008 -4.5
      vertex 12.5 0 -4.5
      vertex 12.401433766430973 -1.5666654195538008 0
    endloop
  endfacet
  facet normal 0.12533323356430495 -0.9921147013144778 0
    outer loop
      vertex 0.784881494116422 -12.475334105353394 -4.5
      vertex 2.3422664323215603 -12.278590634108607 0
      vertex 0.784881494116422 -12.475334105353394 0
    endloop
  endfacet
  facet normal 0.24868988716485477 -0.9685831611286311 0
    outer loop
      vertex 2.3422664323215603 -12.278590634108607 -4.5
      vertex 3.8627124296868423 -11.888206453689419 0
      vertex 2.3422664323215603 -12.278590634108607 0
    endloop
  endfacet
  facet normal 0.36812455268467786 -0.9297764858882515 0
    outer loop
      vertex 3.8627124296868423 -11.888206453689419 -4.5
      vertex 5.322241144563406 -11.310338155825244 0
      vertex 3.8627124296868423 -11.888206453689419 0
    endloop
  endfacet
  facet normal 0.48175367410171493 -0.8763066800438637 0
    outer loop
      vertex 5.322241144563406 -11.310338155825244 -4.5
      vertex 6.697834937237452 -10.55409906877519 0
      vertex 5.322241144563406 -11.310338155825244 0
    endloop
  endfacet
  facet normal 0 0 1
    outer loop
      vertex 0.784881494116422 -12.475334105353394 0
      vertex 2.3422664323215603 -12.278590634108607 0
      vertex -2.957125000655651 -5.1218907460570335 0
    endloop
  endfacet
  facet normal 0 0 1
    outer loop
      vertex 2.3422664323215603 -12.278590634108607 0
      vertex 3.8627124296868423 -11.888206453689419 0
      vertex -2.957125000655651 -5.1218907460570335 0
    endloop
  endfacet
  facet normal 0 0 1
    outer loop
      vertex 3.8627124296868423 -11.888206453689419 0
      vertex 2.957125000655651 -5.1218907460570335 0
      vertex -2.957125000655651 -5.1218907460570335 0
    endloop
  endfacet
  facet normal 0 0 1
    outer loop
      vertex 3.8627124296868423 -11.888206453689419 0
      vertex 5.322241144563406 -11.310338155825244 0
      vertex 2.957125000655651 -5.1218907460570335 0
    endloop
  endfacet
  facet normal 0 0 1
    outer loop
      vertex 5.322241144563406 -11.310338155825244 0
      vertex 6.697834937237452 -10.55409906877519 0
      vertex 2.957125000655651 -5.1218907460570335 0
    endloop
  endfacet
  facet normal 0 0 1
    outer loop
      vertex 6.697834937237452 -10.55409906877519 0
      vertex 5.914250001311302 0 0
      vertex 2.957125000655651 -5.1218907460570335 0
    endloop
  endfacet
  facet normal 0.5877852522924728 -0.8090169943749478 0
    outer loop
      vertex 6.697834937237452 -10.55409906877519 -4.5
      vertex 7.967799871858625 -9.631415534697362 0
      vertex 6.697834937237452 -10.55409906877519 0
    endloop
  endfacet
  facet normal 0.684547105928689 -0.7289686274214113 0
    outer loop
      vertex 7.967799871858625 -9.631415534697362 -4.5
      vertex 9.112107842767646 -8.556838824108606 0
      vertex 7.967799871858625 -9.631415534697362 0
    endloop
  endfacet
  facet normal 0.7705132427757891 -0.6374239897486897 0
    outer loop
      vertex 10.112712429686843 -7.347315653655914 -4.5
      vertex 10.112712429686843 -7.347315653655914 0
      vertex 9.112107842767646 -8.556838824108606 0
    endloop
  endfacet
  facet normal 0.8443279255020152 -0.5358267949789965 0
    outer loop
      vertex 10.953833500548294 -6.021920926271442 -4.5
      vertex 10.953833500548294 -6.021920926271442 0
      vertex 10.112712429686843 -7.347315653655914 0
    endloop
  endfacet
  facet normal 0.9048270524660195 -0.4257792915650726 0
    outer loop
      vertex 11.62220607360314 -4.6015569085584795 -4.5
      vertex 11.62220607360314 -4.6015569085584795 0
      vertex 10.953833500548294 -6.021920926271442 0
    endloop
  endfacet
  facet normal 0.9510565162951534 -0.3090169943749479 0
    outer loop
      vertex 12.10728951410789 -3.1086235895606804 -4.5
      vertex 12.10728951410789 -3.1086235895606804 0
      vertex 11.62220607360314 -4.6015569085584795 0
    endloop
  endfacet
  facet normal 0.9822872507286887 -0.1873813145857241 0
    outer loop
      vertex 12.401433766430973 -1.5666654195538008 -4.5
      vertex 12.401433766430973 -1.5666654195538008 0
      vertex 12.10728951410789 -3.1086235895606804 0
    endloop
  endfacet
  facet normal 0.9980267284282716 -0.0627905195293135 0
    outer loop
      vertex 12.401433766430973 -1.5666654195538008 0
      vertex 12.5 0 -4.5
      vertex 12.5 0 0
    endloop
  endfacet
  facet normal 0 0 1
    outer loop
      vertex 6.697834937237452 -10.55409906877519 0
      vertex 7.967799871858625 -9.631415534697362 0
      vertex 6.697834937237459 10.554099068775189 0
    endloop
  endfacet
  facet normal 0 0 1
    outer loop
      vertex 7.967799871858625 -9.631415534697362 0
      vertex 9.112107842767646 -8.556838824108606 0
      vertex 7.967799871858622 9.631415534697364 0
    endloop
  endfacet
  facet normal 0 0 1
    outer loop
      vertex 9.112107842767646 -8.556838824108606 0
      vertex 10.112712429686843 -7.347315653655914 0
      vertex 9.112107842767644 8.55683882410861 0
    endloop
  endfacet
  facet normal 0 0 1
    outer loop
      vertex 10.112712429686843 -7.347315653655914 0
      vertex 10.953833500548294 -6.021920926271442 0
      vertex 10.112712429686843 7.347315653655914 0
    endloop
  endfacet
  facet normal 0 0 1
    outer loop
      vertex 10.953833500548294 -6.021920926271442 0
      vertex 11.62220607360314 -4.6015569085584795 0
      vertex 10.953833500548296 6.0219209262714415 0
    endloop
  endfacet
  facet normal 0 0 1
    outer loop
      vertex 11.62220607360314 -4.6015569085584795 0
      vertex 12.10728951410789 -3.1086235895606804 0
      vertex 11.622206073603142 4.601556908558475 0
    endloop
  endfacet
  facet normal 0 0 1
    outer loop
      vertex 12.10728951410789 -3.1086235895606804 0
      vertex 12.401433766430973 -1.5666654195538008 0
      vertex 12.107289514107888 3.108623589560685 0
    endloop
  endfacet
  facet normal 0 0 -1
    outer loop
      vertex 6.697834937237459 10.554099068775189 -4.5
      vertex 5.914250001311302 0 -4.5
      vertex 2.957125000655651 5.1218907460570335 -4.5
    endloop
  endfacet
  facet normal 0 0 -1
    outer loop
      vertex 3.8627124296868423 11.888206453689419 -4.5
      vertex 2.957125000655651 5.1218907460570335 -4.5
      vertex -2.957125000655651 5.1218907460570335 -4.5
    endloop
  endfacet
  facet normal 0 0 -1
    outer loop
      vertex 0.784881494116416 12.475334105353394 -4.5
      vertex 2.342266432321557 12.278590634108609 -4.5
      vertex -2.957125000655651 5.1218907460570335 -4.5
    endloop
  endfacet
  facet normal 0 0 -1
    outer loop
      vertex 2.342266432321557 12.278590634108609 -4.5
      vertex 3.8627124296868423 11.888206453689419 -4.5
      vertex -2.957125000655651 5.1218907460570335 -4.5
    endloop
  endfacet
  facet normal 0 0 -1
    outer loop
      vertex 5.322241144563409 11.310338155825244 -4.5
      vertex 6.697834937237459 10.554099068775189 -4.5
      vertex 2.957125000655651 5.1218907460570335 -4.5
    endloop
  endfacet
  facet normal 0 0 -1
    outer loop
      vertex 3.8627124296868423 11.888206453689419 -4.5
      vertex 5.322241144563409 11.310338155825244 -4.5
      vertex 2.957125000655651 5.1218907460570335 -4.5
    endloop
  endfacet
  facet normal 0.12533323356430362 0.9921147013144779 0
    outer loop
      vertex 0.784881494116416 12.475334105353394 -4.5
      vertex 0.784881494116416 12.475334105353394 0
      vertex 2.342266432321557 12.278590634108609 -4.5
    endloop
  endfacet
  facet normal 0.24868988716485538 0.9685831611286311 0
    outer loop
      vertex 2.342266432321557 12.278590634108609 -4.5
      vertex 2.342266432321557 12.278590634108609 0
      vertex 3.8627124296868423 11.888206453689419 -4.5
    endloop
  endfacet
  facet normal 0.3681245526846771 0.9297764858882517 0
    outer loop
      vertex 3.8627124296868423 11.888206453689419 -4.5
      vertex 3.8627124296868423 11.888206453689419 0
      vertex 5.322241144563409 11.310338155825244 -4.5
    endloop
  endfacet
  facet normal 0.4817536741017151 0.8763066800438637 0
    outer loop
      vertex 5.322241144563409 11.310338155825244 -4.5
      vertex 5.322241144563409 11.310338155825244 0
      vertex 6.697834937237459 10.554099068775189 -4.5
    endloop
  endfacet
  facet normal 0 0 -1
    outer loop
      vertex 7.967799871858625 -9.631415534697362 -4.5
      vertex 7.967799871858622 9.631415534697364 -4.5
      vertex 9.112107842767644 8.55683882410861 -4.5
    endloop
  endfacet
  facet normal 0 0 -1
    outer loop
      vertex 6.697834937237452 -10.55409906877519 -4.5
      vertex 6.697834937237459 10.554099068775189 -4.5
      vertex 7.967799871858622 9.631415534697364 -4.5
    endloop
  endfacet
  facet normal 0 0 -1
    outer loop
      vertex 9.112107842767646 -8.556838824108606 -4.5
      vertex 9.112107842767644 8.55683882410861 -4.5
      vertex 10.112712429686843 7.347315653655914 -4.5
    endloop
  endfacet
  facet normal 0 0 -1
    outer loop
      vertex 10.112712429686843 -7.347315653655914 -4.5
      vertex 10.112712429686843 7.347315653655914 -4.5
      vertex 10.953833500548296 6.0219209262714415 -4.5
    endloop
  endfacet
  facet normal 0 0 -1
    outer loop
      vertex 10.953833500548294 -6.021920926271442 -4.5
      vertex 10.953833500548296 6.0219209262714415 -4.5
      vertex 11.622206073603142 4.601556908558475 -4.5
    endloop
  endfacet
  facet normal 0 0 -1
    outer loop
      vertex 12.401433766430973 -1.5666654195538008 -4.5
      vertex 12.401433766430973 1.5666654195538032 -4.5
      vertex 12.5 0 -4.5
    endloop
  endfacet
  facet normal 0 0 -1
    outer loop
      vertex 12.10728951410789 -3.1086235895606804 -4.5
      vertex 12.107289514107888 3.108623589560685 -4.5
      vertex 12.401433766430973 1.5666654195538032 -4.5
    endloop
  endfacet
  facet normal 0 0 -1
    outer loop
      vertex 11.62220607360314 -4.6015569085584795 -4.5
      vertex 11.622206073603142 4.601556908558475 -4.5
      vertex 12.107289514107888 3.108623589560685 -4.5
    endloop
  endfacet
  facet normal 0.9980267284282716 0.0627905195293134 0
    outer loop
      vertex 12.5 0 -4.5
      vertex 12.401433766430973 1.5666654195538032 -4.5
      vertex 12.5 0 0
    endloop
  endfacet
  facet normal 0.9822872507286886 0.18738131458572493 0
    outer loop
      vertex 12.401433766430973 1.5666654195538032 -4.5
      vertex 12.107289514107888 3.108623589560685 -4.5
      vertex 12.401433766430973 1.5666654195538032 0
    endloop
  endfacet
  facet normal 0.9510565162951535 0.3090169943749475 0
    outer loop
      vertex 12.107289514107888 3.108623589560685 -4.5
      vertex 11.622206073603142 4.601556908558475 -4.5
      vertex 12.107289514107888 3.108623589560685 0
    endloop
  endfacet
  facet normal 0.9048270524660199 0.42577929156507177 0
    outer loop
      vertex 11.622206073603142 4.601556908558475 -4.5
      vertex 10.953833500548296 6.0219209262714415 -4.5
      vertex 11.622206073603142 4.601556908558475 0
    endloop
  endfacet
  facet normal 0.6845471059286881 0.7289686274214121 0
    outer loop
      vertex 9.112107842767644 8.55683882410861 -4.5
      vertex 7.967799871858622 9.631415534697364 -4.5
      vertex 7.967799871858622 9.631415534697364 0
    endloop
  endfacet
  facet normal 0.5877852522924739 0.8090169943749469 0
    outer loop
      vertex 6.697834937237459 10.554099068775189 -4.5
      vertex 6.697834937237459 10.554099068775189 0
      vertex 7.967799871858622 9.631415534697364 -4.5
    endloop
  endfacet
  facet normal 0.7705132427757896 0.6374239897486894 0
    outer loop
      vertex 9.112107842767644 8.55683882410861 -4.5
      vertex 10.112712429686843 7.347315653655914 0
      vertex 10.112712429686843 7.347315653655914 -4.5
    endloop
  endfacet
  facet normal 0.8443279255020147 0.5358267949789971 0
    outer loop
      vertex 10.953833500548296 6.0219209262714415 -4.5
      vertex 10.112712429686843 7.347315653655914 -4.5
      vertex 10.953833500548296 6.0219209262714415 0
    endloop
  endfacet
  facet normal 0 0 1
    outer loop
      vertex 6.697834937237452 -10.55409906877519 0
      vertex 5.322241144563409 11.310338155825244 0
      vertex 5.914250001311302 0 0
    endloop
  endfacet
  facet normal 0 0 1
    outer loop
      vertex 3.8627124296868423 11.888206453689419 0
      vertex 2.957125000655651 5.1218907460570335 0
      vertex 5.914250001311302 0 0
    endloop
  endfacet
  facet normal 0 0 1
    outer loop
      vertex 6.697834937237452 -10.55409906877519 0
      vertex 6.697834937237459 10.554099068775189 0
      vertex 5.322241144563409 11.310338155825244 0
    endloop
  endfacet
  facet normal 0 1 0
    outer loop
      vertex -0.784881494116416 12.475334105353394 0
      vertex 0.784881494116416 12.475334105353394 0
      vertex 0.784881494116416 12.475334105353394 -4.5
    endloop
  endfacet
  facet normal 0.12533323356430362 0.9921147013144779 0
    outer loop
      vertex 2.342266432321557 12.278590634108609 -4.5
      vertex 0.784881494116416 12.475334105353394 0
      vertex 2.342266432321557 12.278590634108609 0
    endloop
  endfacet
  facet normal 0.24868988716485538 0.9685831611286311 0
    outer loop
      vertex 3.8627124296868423 11.888206453689419 -4.5
      vertex 2.342266432321557 12.278590634108609 0
      vertex 3.8627124296868423 11.888206453689419 0
    endloop
  endfacet
  facet normal 0.4817536741017151 0.8763066800438637 0
    outer loop
      vertex 6.697834937237459 10.554099068775189 -4.5
      vertex 5.322241144563409 11.310338155825244 0
      vertex 6.697834937237459 10.554099068775189 0
    endloop
  endfacet
  facet normal 0.3681245526846771 0.9297764858882517 0
    outer loop
      vertex 5.322241144563409 11.310338155825244 -4.5
      vertex 3.8627124296868423 11.888206453689419 0
      vertex 5.322241144563409 11.310338155825244 0
    endloop
  endfacet
  facet normal 0 0 1
    outer loop
      vertex -0.784881494116416 12.475334105353394 0
      vertex 2.957125000655651 5.1218907460570335 0
      vertex 0.784881494116416 12.475334105353394 0
    endloop
  endfacet
  facet normal 0 0 1
    outer loop
      vertex 0.784881494116416 12.475334105353394 0
      vertex 2.957125000655651 5.1218907460570335 0
      vertex 2.342266432321557 12.278590634108609 0
    endloop
  endfacet
  facet normal 0 0 1
    outer loop
      vertex 2.342266432321557 12.278590634108609 0
      vertex 2.957125000655651 5.1218907460570335 0
      vertex 3.8627124296868423 11.888206453689419 0
    endloop
  endfacet
  facet normal 0 0 1
    outer loop
      vertex 3.8627124296868423 11.888206453689419 0
      vertex 5.914250001311302 0 0
      vertex 5.322241144563409 11.310338155825244 0
    endloop
  endfacet
  facet normal 0.9980267284282716 0.0627905195293134 0
    outer loop
      vertex 12.401433766430973 1.5666654195538032 -4.5
      vertex 12.401433766430973 1.5666654195538032 0
      vertex 12.5 0 0
    endloop
  endfacet
  facet normal 0.9822872507286886 0.18738131458572493 0
    outer loop
      vertex 12.107289514107888 3.108623589560685 -4.5
      vertex 12.107289514107888 3.108623589560685 0
      vertex 12.401433766430973 1.5666654195538032 0
    endloop
  endfacet
  facet normal 0.9510565162951535 0.3090169943749475 0
    outer loop
      vertex 11.622206073603142 4.601556908558475 -4.5
      vertex 11.622206073603142 4.601556908558475 0
      vertex 12.107289514107888 3.108623589560685 0
    endloop
  endfacet
  facet normal 0.9048270524660199 0.42577929156507177 0
    outer loop
      vertex 10.953833500548296 6.0219209262714415 -4.5
      vertex 10.953833500548296 6.0219209262714415 0
      vertex 11.622206073603142 4.601556908558475 0
    endloop
  endfacet
  facet normal 0 0 1
    outer loop
      vertex 7.967799871858625 -9.631415534697362 0
      vertex 7.967799871858622 9.631415534697364 0
      vertex 6.697834937237459 10.554099068775189 0
    endloop
  endfacet
  facet normal 0 0 1
    outer loop
      vertex 9.112107842767646 -8.556838824108606 0
      vertex 9.112107842767644 8.55683882410861 0
      vertex 7.967799871858622 9.631415534697364 0
    endloop
  endfacet
  facet normal 0 0 1
    outer loop
      vertex 10.112712429686843 -7.347315653655914 0
      vertex 10.112712429686843 7.347315653655914 0
      vertex 9.112107842767644 8.55683882410861 0
    endloop
  endfacet
  facet normal 0 0 1
    outer loop
      vertex 10.953833500548294 -6.021920926271442 0
      vertex 10.953833500548296 6.0219209262714415 0
      vertex 10.112712429686843 7.347315653655914 0
    endloop
  endfacet
  facet normal 0 0 1
    outer loop
      vertex 12.401433766430973 -1.5666654195538008 0
      vertex 12.5 0 0
      vertex 12.401433766430973 1.5666654195538032 0
    endloop
  endfacet
  facet normal 0 0 1
    outer loop
      vertex 12.10728951410789 -3.1086235895606804 0
      vertex 12.107289514107888 3.108623589560685 0
      vertex 11.622206073603142 4.601556908558475 0
    endloop
  endfacet
  facet normal 0 0 1
    outer loop
      vertex 12.401433766430973 -1.5666654195538008 0
      vertex 12.401433766430973 1.5666654195538032 0
      vertex 12.107289514107888 3.108623589560685 0
    endloop
  endfacet
  facet normal 0 0 1
    outer loop
      vertex 11.62220607360314 -4.6015569085584795 0
      vertex 11.622206073603142 4.601556908558475 0
      vertex 10.953833500548296 6.0219209262714415 0
    endloop
  endfacet
  facet normal 0.6845471059286881 0.7289686274214121 0
    outer loop
      vertex 9.112107842767644 8.55683882410861 -4.5
      vertex 7.967799871858622 9.631415534697364 0
      vertex 9.112107842767644 8.55683882410861 0
    endloop
  endfacet
  facet normal 0.5877852522924739 0.8090169943749469 0
    outer loop
      vertex 7.967799871858622 9.631415534697364 -4.5
      vertex 6.697834937237459 10.554099068775189 0
      vertex 7.967799871858622 9.631415534697364 0
    endloop
  endfacet
  facet normal 0.8443279255020147 0.5358267949789971 0
    outer loop
      vertex 10.112712429686843 7.347315653655914 -4.5
      vertex 10.112712429686843 7.347315653655914 0
      vertex 10.953833500548296 6.0219209262714415 0
    endloop
  endfacet
  facet normal 0.7705132427757896 0.6374239897486894 0
    outer loop
      vertex 9.112107842767644 8.55683882410861 -4.5
      vertex 9.112107842767644 8.55683882410861 0
      vertex 10.112712429686843 7.347315653655914 0
    endloop
  endfacet
  facet normal 0.8660254038093487 0.49999999995685457 0
    outer loop
      vertex -2.957125000655651 -5.1218907460570335 -4.5
      vertex -5.914250001311302 0 -4.5
      vertex -5.914250001311302 0 0
    endloop
  endfacet
  facet normal 0 1 0
    outer loop
      vertex 2.957125000655651 -5.1218907460570335 -4.5
      vertex -2.957125000655651 -5.1218907460570335 -4.5
      vertex -2.957125000655651 -5.1218907460570335 0
    endloop
  endfacet
  facet normal 0.8660254038093487 0.49999999995685457 0
    outer loop
      vertex -2.957125000655651 -5.1218907460570335 -4.5
      vertex -5.914250001311302 0 0
      vertex -2.957125000655651 -5.1218907460570335 0
    endloop
  endfacet
  facet normal 0.8660254038093487 -0.49999999995685457 0
    outer loop
      vertex -5.914250001311302 0 -4.5
      vertex -2.957125000655651 5.1218907460570335 -4.5
      vertex -2.957125000655651 5.1218907460570335 0
    endloop
  endfacet
  facet normal 0.8660254038093487 -0.49999999995685457 0
    outer loop
      vertex -2.957125000655651 5.1218907460570335 0
      vertex -5.914250001311302 0 0
      vertex -5.914250001311302 0 -4.5
    endloop
  endfacet
  facet normal 0 -1 0
    outer loop
      vertex -2.957125000655651 5.1218907460570335 -4.5
      vertex 2.957125000655651 5.1218907460570335 0
      vertex -2.957125000655651 5.1218907460570335 0
    endloop
  endfacet
  facet normal -0.8660254038093487 0.49999999995685457 0
    outer loop
      vertex 5.914250001311302 0 -4.5
      vertex 2.957125000655651 -5.1218907460570335 -4.5
      vertex 2.957125000655651 -5.1218907460570335 0
    endloop
  endfacet
  facet normal 0 1 0
    outer loop
      vertex 2.957125000655651 -5.1218907460570335 -4.5
      vertex -2.957125000655651 -5.1218907460570335 0
      vertex 2.957125000655651 -5.1218907460570335 0
    endloop
  endfacet
  facet normal -0.8660254038093487 0.49999999995685457 0
    outer loop
      vertex 2.957125000655651 -5.1218907460570335 0
      vertex 5.914250001311302 0 0
      vertex 5.914250001311302 0 -4.5
    endloop
  endfacet
  facet normal 0 -1 0
    outer loop
      vertex -2.957125000655651 5.1218907460570335 -4.5
      vertex 2.957125000655651 5.1218907460570335 -4.5
      vertex 2.957125000655651 5.1218907460570335 0
    endloop
  endfacet
  facet normal -0.8660254038093487 -0.49999999995685457 0
    outer loop
      vertex 2.957125000655651 5.1218907460570335 -4.5
      vertex 5.914250001311302 0 -4.5
      vertex 5.914250001311302 0 0
    endloop
  endfacet
  facet normal -0.8660254038093487 -0.49999999995685457 0
    outer loop
      vertex 2.957125000655651 5.1218907460570335 -4.5
      vertex 5.914250001311302 0 0
      vertex 2.957125000655651 5.1218907460570335 0
    endloop
  endfacet
endsolid OpenSCAD_Model
